<svg xmlns="http://www.w3.org/2000/svg" width="16" height="16"><defs><style id="current-color-scheme" type="text/css"></style></defs><path d="M3 1c-1.11 0-2 .89-2 2v10c0 1.11.89 2 2 2h10c1.11 0 2-.89 2-2V3c0-1.11-.89-2-2-2zm5 3c2.21 0 4 1.79 4 4v.5a1.498 1.498 0 0 1-2.65.96C9 9.79 8.52 10 8 10c-1.1 0-2-.9-2-2s.9-2 2-2 2 .9 2 2v.5c0 .28.22.5.5.5s.5-.22.5-.5V8c0-1.66-1.34-3-3-3S5 6.34 5 8s1.34 3 3 3h2.5s.5 0 .5.5c-.03.5-.5.5-.5.5H8c-2.21 0-4-1.79-4-4s1.79-4 4-4zm0 3c-.55 0-1 .45-1 1s.45 1 1 1 1-.45 1-1-.45-1-1-1z" fill="currentColor" color="#565656"/></svg>