<svg xmlns="http://www.w3.org/2000/svg" width="16" height="16"><defs><style id="current-color-scheme" type="text/css"></style></defs><path d="M5 0a4.997 4.997 0 0 0-.994.1c-.014.002-.027.006-.041.01a5 5 0 0 0-.889.277C3.07.39 3.06.39 3.053.395l-.016.007a5 5 0 0 0-.795.432c-.016.01-.034.018-.05.03-.248.17-.48.362-.694.574l-.045.042a5 5 0 0 0-.549.665c-.023.033-.05.063-.072.097a4.995 4.995 0 0 0-.396.735c-.02.043-.041.084-.059.128a5 5 0 0 0-.254.817c-.012.053-.025.104-.035.158a5.07 5.07 0 0 0-.035.229c-.012.085-.024.17-.032.257-.013.145-.02.29-.021.434.002.264.025.528.068.79.007.042.012.085.02.128.047.249.113.494.197.732l.037.1c.09.242.198.478.324.703l.028.045c.132.228.281.446.447.65l.012.016c.168.203.351.392.549.566l.066.06c.199.171.411.327.635.466.012.007.025.012.037.02a4.996 4.996 0 0 0 1.574.617L4 9.895V16h2V9.898c.223-.047.443-.11.658-.187.037-.013.073-.025.11-.04.42-.158.816-.373 1.18-.638.03-.022.058-.046.087-.068a5 5 0 0 0 .498-.432c.16-.162.31-.335.447-.517.02-.025.037-.051.055-.077a5 5 0 0 0 .336-.523l.03-.055a5 5 0 0 0 .29-.64l.002-.006.004-.012a5 5 0 0 0 .196-.695L9.895 6H16V4H9.898a4.992 4.992 0 0 0-.234-.787c-.01-.027-.019-.054-.03-.08a5 5 0 0 0-.42-.81 4.998 4.998 0 0 0-.429-.587c-.022-.026-.047-.048-.07-.074a5 5 0 0 0-.5-.484c-.027-.023-.051-.047-.078-.069a5 5 0 0 0-.6-.41L7.398.62a5 5 0 0 0-.652-.3c-.044-.017-.088-.03-.133-.046a5 5 0 0 0-.709-.189l-.04-.008A5 5 0 0 0 5 0z" fill="currentColor" color="#565656"/></svg>