<svg xmlns="http://www.w3.org/2000/svg" width="16" height="16"><defs><style id="current-color-scheme" type="text/css"></style></defs><path d="M2 1C.892 1 0 1.892 0 3v10c0 1.108.892 2 2 2h12c1.108 0 2-.892 2-2V3c0-1.108-.892-2-2-2zm2 2h1v1h.5c.654 0 1.202.418 1.408 1H5v1h.5C6.331 6 7 6.669 7 7.5S6.331 9 5.5 9H5v1H4V9h-.5a1.492 1.492 0 0 1-1.408-1H4V7h-.5C2.669 7 2 6.331 2 5.5S2.669 4 3.5 4H4zm-.5 2a.499.499 0 1 0 0 1H4V5zM5 7v1h.5c.277.013.5-.223.5-.5S5.777 7 5.5 7zm3 2h4v1H8z" fill="currentColor" color="#565656"/></svg>