<svg xmlns="http://www.w3.org/2000/svg" width="16" height="16"><defs><style id="current-color-scheme" type="text/css"></style></defs><path d="M3 1.01c-1.108 0-2 .892-2 2v10c0 1.108.892 2 2 2h10c1.108 0 2-.892 2-2v-10c0-1.108-.892-2-2-2zM6.082 3H6.4v.756h-.354c-.472 0-.778.079-.92.234-.144.152-.218.478-.218.979V6.28c0 .554-.075.955-.227 1.205-.151.25-.415.42-.789.508.374.095.638.27.79.52.151.25.226.65.226 1.2v1.313c0 .505.074.83.219.983.141.15.447.228.92.228H6.4V13h-.318c-.84 0-1.4-.13-1.68-.39-.283-.262-.424-.784-.424-1.563V9.783c0-.532-.091-.9-.273-1.105-.182-.205-1.47-.307-.99-.307H2.4v-.758h.314c.48 0 .809-.1.99-.3.183-.205.274-.57.274-1.096v-1.27c0-.78.14-1.299.424-1.556.28-.261.84-.391 1.68-.391zM9.6 3h.318c.84 0 1.4.13 1.68.39.283.258.424.778.424 1.557v1.27c0 .525.091.89.273 1.095.182.202 1.47.301.99.301h.315v.758h-.314c-.48 0-.809.102-.99.307-.183.204-.274.573-.274 1.105v1.264c0 .779-.141 1.301-.424 1.562-.28.261-.84.391-1.68.391H9.6v-.762h.354c.472 0 .778-.077.92-.228.144-.152.218-.478.218-.983V9.715c0-.55.075-.95.227-1.201.15-.25.415-.425.789-.52-.374-.088-.638-.257-.79-.508-.151-.25-.226-.65-.226-1.205V4.97c0-.501-.074-.827-.219-.979-.14-.155-.447-.234-.92-.234H9.6z" fill="currentColor" color="#565656"/></svg>