<svg xmlns="http://www.w3.org/2000/svg" width="16" height="16"><defs><linearGradient id="b" x1="1" x2="8" y1="8" y2="1" gradientUnits="userSpaceOnUse"><stop offset="0" stop-color="#e81877"/><stop offset=".313" stop-color="#dd1d8c"/><stop offset=".563" stop-color="#6d57b1"/><stop offset=".75" stop-color="#2a78c1"/><stop offset="1" stop-color="#018dcb"/></linearGradient><linearGradient id="d" x1="1" x2="8" y1="8" y2="15" gradientUnits="userSpaceOnUse"><stop offset="0" stop-color="#e51561"/><stop offset=".313" stop-color="#e4156c"/><stop offset=".563" stop-color="#e71e2c"/><stop offset=".75" stop-color="#e8301e"/><stop offset="1" stop-color="#e6320e"/></linearGradient><linearGradient id="a" x1="15" x2="8" y1="8" y2="1" gradientUnits="userSpaceOnUse"><stop offset="0" stop-color="#bec900"/><stop offset=".313" stop-color="#9ec80a"/><stop offset=".563" stop-color="#71b93d"/><stop offset=".75" stop-color="#35a48f"/><stop offset="1" stop-color="#018fca"/></linearGradient><linearGradient id="c" x1="15" x2="8" y1="8" y2="15" gradientUnits="userSpaceOnUse"><stop offset="0" stop-color="#c1cc00"/><stop offset=".313" stop-color="#dfcd00"/><stop offset=".563" stop-color="#f0cc00"/><stop offset=".75" stop-color="#fd8c08"/><stop offset="1" stop-color="#f25c13"/></linearGradient></defs><path d="M8 1v7h7a7 7 0 0 0-7-7z" fill="url(#a)" transform="rotate(15 8 8)"/><path d="M8 1a7 7 0 0 0-7 7h7z" fill="url(#b)" transform="rotate(15 8 8)"/><path d="M8 8v7a7 7 0 0 0 7-7z" fill="url(#c)" transform="rotate(15 8 8)"/><path d="M1 8a7 7 0 0 0 7 7V8z" fill="url(#d)" transform="rotate(15 8 8)"/><g opacity=".7"><path d="M8 1v7h7a7 7 0 0 0-7-7z" fill="url(#a)"/><path d="M8 1a7 7 0 0 0-7 7h7z" fill="url(#b)"/><path d="M8 8v7a7 7 0 0 0 7-7z" fill="url(#c)"/><path d="M1 8a7 7 0 0 0 7 7V8z" fill="url(#d)"/></g><g opacity=".35"><path d="M8 1v7h7a7 7 0 0 0-7-7z" fill="url(#a)" transform="rotate(45 8 8)"/><path d="M8 1a7 7 0 0 0-7 7h7z" fill="url(#b)" transform="rotate(45 8 8)"/><path d="M8 8v7a7 7 0 0 0 7-7z" fill="url(#c)" transform="rotate(45 8 8)"/><path d="M1 8a7 7 0 0 0 7 7V8z" fill="url(#d)" transform="rotate(45 8 8)"/></g><g opacity=".3"><path d="M8 1v7h7a7 7 0 0 0-7-7z" fill="url(#a)" transform="rotate(60 8 8)"/><path d="M8 1a7 7 0 0 0-7 7h7z" fill="url(#b)" transform="rotate(60 8 8)"/><path d="M8 8v7a7 7 0 0 0 7-7z" fill="url(#c)" transform="rotate(60 8 8)"/><path d="M1 8a7 7 0 0 0 7 7V8z" fill="url(#d)" transform="rotate(60 8 8)"/></g></svg>