<svg xmlns="http://www.w3.org/2000/svg" width="16" height="16"><defs><style id="current-color-scheme" type="text/css">.ColorScheme-Text{color:#565656}</style></defs><rect class="ColorScheme-Text" width="14" height="14" x="1" y="1" rx="2" ry="2" opacity=".3" fill="currentColor"/><path class="ColorScheme-Text" d="M4 2a2 2 0 0 0-2 2 2 2 0 0 0 2 2 2 2 0 0 0 1.014-.28l5.265 5.266A2 2 0 0 0 10 12a2 2 0 0 0 2 2 2 2 0 0 0 2-2 2 2 0 0 0-2-2 2 2 0 0 0-1.014.28L5.721 5.013A2 2 0 0 0 6 4a2 2 0 0 0-2-2z" fill="currentColor"/></svg>