<svg xmlns="http://www.w3.org/2000/svg" width="16" height="16"><defs><style id="current-color-scheme" type="text/css"></style></defs><path d="M7 0v2h2V0H7zM3.05 1.637l-.347.347-.015-.015-.72.718.016.016-.347.348L3.05 4.465 4.465 3.05 3.05 1.637zm9.9 0L11.534 3.05l1.414 1.414 1.414-1.414-.347-.348.015-.015-.719-.72-.015.016-.348-.347zM8 3a5 5 0 1 0 0 10A5 5 0 0 0 8 3zm0 2v6a3 3 0 0 1-3-3 3 3 0 0 1 3-3zM0 7v2h2V7H0zm14 0v2h2V7h-2zM3.05 11.535L1.638 12.95l.347.348-.015.015.718.72.016-.016.348.347 1.414-1.414-1.414-1.414zm9.9 0l-1.415 1.414 1.414 1.414.348-.347.015.015.72-.719-.016-.015.347-.348-1.414-1.414zM7 14v2h2v-2H7z" fill="currentColor" color="#565656"/></svg>