<svg xmlns="http://www.w3.org/2000/svg" width="16" height="16"><defs><style id="current-color-scheme" type="text/css"></style></defs><path d="M3.008 1c-2.249 0-2 2-2 2v12H15V5h-1.998v8H3.008V5H11V1H3.008zM12 1v4l3-2-3-2zM6.434 6C5.368 6 4.92 6.352 4.92 7.254L4.889 8c-.047.369-.176.678-.579.678h-.304v.644h.305c.588 0 .609.645.609 1.201-.005.174.014.369.018.477.083.712.538 1 1.496 1v-.592c-.45 0-.607-.118-.67-.408-.034-.116-.038-.514-.051-.705 0-.415-.124-1.035-.723-1.291.473-.203.644-.628.698-1.004.023-.104.018-.222.025-.303 0-.866.01-1.105.72-1.105V6zm3.142 0v.592c.71 0 .719.239.719 1.105.007.08.002.199.025.303.054.376.225.801.698 1.004-.599.256-.723.876-.723 1.291-.014.191-.017.589-.051.705-.063.29-.218.408-.668.408V12c.957 0 1.411-.288 1.494-1 .004-.108.023-.303.018-.477 0-.556.021-1.2.609-1.2h.305v-.645h-.305c-.402 0-.532-.31-.578-.678l-.031-.746c0-.902-.446-1.254-1.512-1.254z" fill="currentColor" color="#565656"/></svg>