<svg xmlns="http://www.w3.org/2000/svg" width="16" height="16"><defs><style id="current-color-scheme" type="text/css"></style></defs><path d="M1 2v12h2V2H1zm4 1v2h5.996c.428 0 .998.614.998 1v1H6.998c-.919 0-1.734.384-2.248.969A3.02 3.02 0 0 0 4 10c.006.72.27 1.453.781 2.031.512.579 1.31.969 2.217.969h6.996v-.844c.016-.094 0-.156 0-.156V6c0-1.634-1.319-3-2.998-3H5zm1.998 6h4.996v2H6.998c-.398 0-.565-.11-.717-.281A1.145 1.145 0 0 1 6 10c-.002-.28.105-.554.25-.719.145-.165.326-.281.748-.281z" fill="currentColor" color="#565656"/></svg>