<svg xmlns="http://www.w3.org/2000/svg" width="16" height="16"><defs><style id="current-color-scheme" type="text/css"></style></defs><path d="M7.492-.004L7.5 0A1.5 1.5 0 0 0 6 1.5a1.5 1.5 0 0 0 .113.57L2.221 5.186A1.5 1.5 0 0 0 1.5 5 1.5 1.5 0 0 0 0 6.5a1.5 1.5 0 0 0 1 1.412v5.176A1.5 1.5 0 0 0 0 14.5 1.5 1.5 0 0 0 1.5 16a1.5 1.5 0 0 0 1.412-1h4.176A1.5 1.5 0 0 0 8.5 16a1.5 1.5 0 0 0 1.5-1.5 1.5 1.5 0 0 0-.186-.717l3.118-3.896A1.5 1.5 0 0 0 13.5 10 1.5 1.5 0 0 0 15 8.5 1.5 1.5 0 0 0 13.5 7a1.5 1.5 0 0 0-.584.12L8.822 2.206a1.5 1.5 0 0 0 .17-.71 1.5 1.5 0 0 0-1.5-1.5zm-.71 2.82A1.5 1.5 0 0 0 7.5 3a1.5 1.5 0 0 0 .582-.12l4.096 4.915a1.5 1.5 0 0 0-.18.71 1.5 1.5 0 0 0 .186.72l-3.116 3.894a1.5 1.5 0 0 0-.57-.111 1.5 1.5 0 0 0-1.412 1H2.91a1.5 1.5 0 0 0-.91-.91V7.922A1.5 1.5 0 0 0 3 6.51a1.5 1.5 0 0 0-.113-.569L6.78 2.826v-.01z" fill="currentColor" color="#565656"/></svg>