<svg xmlns="http://www.w3.org/2000/svg" width="16" height="16"><defs><style id="current-color-scheme" type="text/css"></style></defs><path d="M5.99 1.02l.01 6H3.658l3.34 4.86V9.896c0-1.011.901-1.844 1.875-1.844h2.783l.717-1.031H9.998l-.01-6H5.99zm2.883 8.03c-.492 0-.875.356-.875.845v5.218c0 .488.383.844.875.844h6.25c.492 0 .875-.356.875-.844V9.895c0-.489-.383-.844-.875-.844h-6.25zM10 10h4v5h-1v-2h-2v2h-1v-5zm1 1v1h2v-1h-2zM1 14.031V16h6.258a1.74 1.74 0 0 1-.256-.887v-1.082H1z" fill="currentColor" color="#565656"/></svg>