<svg xmlns="http://www.w3.org/2000/svg" width="16" height="16"><defs><style id="current-color-scheme" type="text/css"></style></defs><path d="M2.84 1.006c-.281.044-.844.234-.844.933v12.127c0 .933 1 .934 1 .934h9.99c1 0 1-.934 1-.934.02-.043.005-6.952 0-9.328L9.99 1.006H2.996s-.062-.015-.156 0zM7.996 4l.766 2.152 2.062-.98-.98 2.062L11.996 8l-2.152.766.98 2.062-2.062-.98L7.996 12 7.23 9.848l-2.062.98.98-2.062L3.996 8l2.152-.766-.98-2.062 2.062.98L7.996 4z" fill="currentColor" color="#565656"/></svg>