<svg xmlns="http://www.w3.org/2000/svg" width="16" height="16"><defs><style id="current-color-scheme" type="text/css"></style></defs><path d="M4 1v2h8V1H4zM2 4c-.5 0-1 .5-1 1v4c0 .5.5 1 1 1h1V8h5.125a3.66 3.66 0 0 1 2.531-1.031c1.782 0 3.29 1.28 3.625 2.968C14.674 9.8 15 9.408 15 9V5c0-.5-.5-1-1-1H2zm8.66 3.94a2.726 2.726 0 0 0-2.719 2.718 2.726 2.726 0 0 0 2.72 2.719c.486 0 .946-.148 1.343-.375a.75.75 0 0 0 .156.219l1.844 1.812a.751.751 0 1 0 1.062-1.062l-1.843-1.813a.75.75 0 0 0-.22-.156c.228-.397.376-.857.376-1.344A2.726 2.726 0 0 0 10.66 7.94zm0 1c.955 0 1.719.763 1.719 1.718s-.764 1.719-1.719 1.719a1.711 1.711 0 0 1-1.719-1.719c0-.955.764-1.719 1.72-1.719zM4 9v5h5.094a3.709 3.709 0 0 1-2.125-3.344c0-.595.151-1.156.406-1.656H4z" fill="currentColor" color="#565656"/></svg>