<svg xmlns="http://www.w3.org/2000/svg" width="16" height="16"><defs><style id="current-color-scheme" type="text/css"></style></defs><path d="M12.5 1a2.5 2.5 0 0 0-2.449 2H2v1c1.855.959 3.165 2.48 3.357 3.303.209.892-.023 1.912-.648 3.009A2.5 2.5 0 0 0 3.5 10 2.5 2.5 0 0 0 1 12.5 2.5 2.5 0 0 0 3.5 15a2.5 2.5 0 0 0 2.45-2H9v2h5v-5H9v2H5.945a2.5 2.5 0 0 0-.443-.994c.852-1.346 1.209-2.625.924-3.865C6.132 5.862 5.24 4.865 3.969 4h6.086A2.5 2.5 0 0 0 12.5 6 2.5 2.5 0 0 0 15 3.5 2.5 2.5 0 0 0 12.5 1z" fill="currentColor" color="#565656"/></svg>