<svg xmlns="http://www.w3.org/2000/svg" width="16" height="16"><defs><style id="current-color-scheme" type="text/css"></style></defs><path d="M14.574 1.006a1.75 7.876 44.989 0 0-6.513 4.463 1.75 7.876 44.989 0 0-3.1 3.6 3.034 3.034 0 0 1 1.975 1.974 1.75 7.876 44.989 0 0 3.597-3.1 1.75 7.876 44.989 0 0 4.332-6.806 1.75 7.876 44.989 0 0-.291-.131zM13 9c-.389 1.277-1.361 2.371-1.781 3.25a1.765 1.765 0 0 0-.219.875c0 1.039.892 1.875 2 1.875s2-.836 2-1.875a1.79 1.79 0 0 0-.25-.875c-.42-.879-1.361-1.973-1.75-3.25zm-8.5 1.33v.002C1 11.27 3.625 13.486 1 15c3.5 0 5.25-1.752 5.25-2.92 0-.582.06-1.653-1.75-1.75z" fill="currentColor" color="#565656"/></svg>