<svg xmlns="http://www.w3.org/2000/svg" width="16" height="16"><defs><style id="current-color-scheme" type="text/css"></style></defs><path d="M9.125-.059v.121l.67 1.106a7 5 0 0 1 2.742 1.018l.813-.645a8 6 0 0 0-4.225-1.6zM7.918 0A8 6 0 0 0 5.5.303l.838.842A7 5 0 0 1 8.006.996a7 5 0 0 1 .527.02L7.918 0zM4.424.639a8 6 0 0 0-1.86.968l.973.547a7 5 0 0 1 1.664-.732L4.424.639zm9.74 1.53l-.789.628a7 5 0 0 1 .795.838l1-.293a8 6 0 0 0-1.006-1.172zm-12.44.112A8 6 0 0 0 .692 3.586l.932.367a7 5 0 0 1 1.012-1.16l-.91-.512zm13.93 1.961l-.966.283a7 5 0 0 1 .296 1.09l1.006.137a8 6 0 0 0-.336-1.51zm-15.386.25A8 6 0 0 0 .01 5.918l1.004-.045a7 5 0 0 1 .181-1.014l-.927-.367zM14.945 6.62a7 5 0 0 1-.588 1.467l.99.275a8 6 0 0 0 .585-1.607l-.987-.135zm-13.83.25L.11 6.914a8 6 0 0 0 .563 1.473l.91-.418a7 5 0 0 1-.467-1.1zm1.088 1.912v.004l-.94.43a8 6 0 0 0 1.772 1.467c.636 2.375-1.84 4.501-1.03 5.312 1.136.108 1.81-1.567 2.083-3.19a8.55 8.55 0 0 0 .767-1.296 8 6 0 0 0 3.141.488L6.93 10.93a7 5 0 0 1-1.787-.385C5.15 10.1 4.877 9.82 4.008 10l-.002-.01c-.08 0-.158-.016-.236-.027A7 5 0 0 1 2.203 8.78zm11.461.15A7 5 0 0 1 11.99 10.1l.977.595a8 6 0 0 0 1.777-1.463l-1.08-.3zm-2.834 1.633a7 5 0 0 1-2.43.422l.922.922a8 6 0 0 0 2.594-.681l-1.086-.663z" fill="currentColor" color="#565656"/></svg>