<svg xmlns="http://www.w3.org/2000/svg" width="16" height="16"><defs><style id="current-color-scheme" type="text/css"></style></defs><path d="M8.03 1.063A6.963 6.963 0 0 0 1.06 8.03 6.963 6.963 0 0 0 8.03 15a6.963 6.963 0 0 0 6.968-6.969 6.963 6.963 0 0 0-6.969-6.969zM5 5.002h1c.276 0 .538.101.719.282L8 6.562l1.281-1.277c.18-.18.441-.281.721-.281h1v1c0 .276-.1.538-.281.719L9.439 8l1.282 1.285c.18.181.282.443.281.719v1h-1c-.276 0-.538-.1-.719-.281L8.002 9.437l-1.281 1.286c-.18.18-.441.279-.721.279H5v-1c0-.276.1-.538.281-.719l1.282-1.285L5.28 6.721c-.18-.18-.279-.443-.279-.719L5 5.004z" fill="currentColor" color="#565656"/></svg>