<svg xmlns="http://www.w3.org/2000/svg" width="16" height="16"><defs><style id="current-color-scheme" type="text/css"></style></defs><path d="M0 2.004v12h11l5-6-5-6H0zm3.008 3h1c.28 0 .529.112.699.293L6 6.59l1.293-1.293c.18-.18.43-.293.707-.293h1l.004 1c0 .277-.11.526-.3.707L7.41 8.004l1.3 1.293c.182.18.294.43.294.707v1h-1a.958.958 0 0 1-.701-.293L6.01 9.418l-1.293 1.293a.996.996 0 0 1-.707.293h-1v-1c0-.277.11-.526.29-.707l1.294-1.293L3.3 6.71a.996.996 0 0 1-.293-.707v-1z" fill="currentColor" color="#565656"/></svg>