<svg xmlns="http://www.w3.org/2000/svg" width="16" height="16"><defs><style id="current-color-scheme" type="text/css"></style></defs><path d="M1 1v14h14V1H1zm2 2h4v3.277c-.293.17-.537.409-.71.7-.01.015-.017.03-.026.046a1.987 1.987 0 0 0-.198.495C6.028 7.673 6 7.833 6 8a1.983 1.983 0 0 0 .1.598c.042.133.096.26.164.379l.025.046c.174.291.418.53.711.7V13H3V3zm6 0h4v10H9V9.723c.293-.17.537-.409.71-.7.01-.015.017-.03.026-.046a1.987 1.987 0 0 0 .198-.495C9.972 8.327 10 8.168 10 8a1.976 1.976 0 0 0-.1-.598 1.987 1.987 0 0 0-.164-.379l-.025-.046a1.993 1.993 0 0 0-.711-.7V3z" fill="currentColor" color="#565656"/></svg>