<svg xmlns="http://www.w3.org/2000/svg" width="16" height="16"><defs><style id="current-color-scheme" type="text/css"></style></defs><path d="M1 1.004v14h14v-14H1zm2 2h10v4H9.723a1.991 1.991 0 0 0-.7-.711l-.046-.025a1.97 1.97 0 0 0-.495-.198A1.97 1.97 0 0 0 8 6.004a1.97 1.97 0 0 0-.598.1c-.133.042-.26.096-.379.164l-.046.025c-.291.174-.53.418-.7.71H3v-4zm0 6h3.277c.17.293.409.537.7.71l.046.028a1.97 1.97 0 0 0 .495.195c.155.04.315.069.482.069.167 0 .327-.03.482-.069l.116-.03a1.993 1.993 0 0 0 1.125-.903H13v4H3v-4z" fill="currentColor" color="#565656"/></svg>