<svg xmlns="http://www.w3.org/2000/svg" width="16" height="16"><defs><style id="current-color-scheme" type="text/css"></style></defs><path d="M8 0C5.238 0 3 2.31 3 5.16c0 1.68.77 3.16 1.985 4.1.555.43.99.99.99 1.76L6 12h4l.029-.98c.039-.77.431-1.33.986-1.76C12.231 8.32 13 6.84 13 5.16 13 2.31 10.762 0 8 0zm0 2.06c1.653 0 3.005 1.39 3.005 3.1 0 .97-.438 1.87-1.197 2.45-1.128.88-1.556 1.86-1.711 2.679h-.194c-.155-.82-.583-1.8-1.712-2.68A3.064 3.064 0 0 1 4.995 5.16c0-1.71 1.351-3.1 3.005-3.1zM6 13v2c0 1 1.027 1 1.027 1h1.946s1.056 0 1.027-1v-2z" fill="currentColor" opacity=".3" color="#565656"/></svg>