<svg xmlns="http://www.w3.org/2000/svg" width="16" height="16"><defs><style id="current-color-scheme" type="text/css"></style></defs><path d="M3.89 2a1 1 0 0 0-.96.723l-2.887 10A1 1 0 0 0 1.003 14H2.17a1 1 0 0 0 .963-.732L3.763 11h1.481l.631 2.268a1 1 0 0 0 .963.732h1.166a1 1 0 0 0 .5-.135 1 1 0 0 0 .5.135h1a1 1 0 0 0 .66-.248 3.99 3.99 0 0 0 1.338.248 1 1 0 0 0 .002 0c2.197 0 4-1.803 4-4s-1.803-4-4-4a1 1 0 0 0-.002 0c-.344 0-.67.1-.998.186V3a1 1 0 0 0-1-1h-1a1 1 0 0 0-1 1v6.088L6.326 2.744A1 1 0 0 0 5.36 2H3.891zm.665 3l.949 4h-2l1.05-4zm7.449 3a2 2 0 0 1 2 2 2 2 0 0 1-2 2 2 2 0 0 1-2-2 2 2 0 0 1 2-2z" fill="currentColor" color="#565656"/></svg>