<svg xmlns="http://www.w3.org/2000/svg" width="16" height="16"><defs><style id="current-color-scheme" type="text/css"></style></defs><path d="M7.28 1.05c-1.119 0-2.153.293-2.956.917a3.26 3.26 0 0 0-1.27 2.572c0 .92.424 1.785 1.026 2.602a5.972 5.972 0 0 0-.707.56c-.28.26-.524.545-.723.854a1.023.977 0 0 0-.002.006 4.224 4.224 0 0 0-.47 1.066 1.023.977 0 0 0-.002.01c-.116.407-.17.835-.17 1.275 0 .551.147 1.098.42 1.59a1.023.977 0 0 0 .006.01c.27.475.637.896 1.08 1.244.45.354.976.624 1.558.822a1.023.977 0 0 0 .014.004c.6.196 1.23.293 1.875.293 1.165 0 2.274-.398 3.324-.988l.75.795a1.023.977 0 0 0 1.412.1l.975-.772a1.023.977 0 0 0 .101-1.414l-.773-.805c.4-.48.812-.931 1.168-1.523a1.023.977 0 0 0-.326-1.305l-.96-.6a1.023.977 0 0 0-1.452.34c-.19.325-.412.551-.617.828L8.916 7.824c.215-.123.404-.239.57-.367.13-.1.278-.217.446-.355a1.023.977 0 0 0 .002-.002c.217-.18.407-.37.566-.598a1.023.977 0 0 0 .012-.014 7.4 7.4 0 0 0 .302-.5c.145-.252.25-.526.309-.808.041-.197.051-.4.06-.604a1.023.977 0 0 0 .018-.181c0-.98-.4-1.923-1.17-2.518-.743-.574-1.707-.826-2.752-.826zm1.937 1.596l.006.008c-.001 0-.003 0-.004-.002-.002 0 0-.004-.002-.006zM7.297 3.96c.37 0 .476.075.51.105a1.023.977 0 0 0 .005.006c.038.034.09.076.09.366a.764.764 0 0 1-.06.31 1.023.977 0 0 0-.006.012.944.944 0 0 1-.154.267 1.023.977 0 0 0-.012.018 1.808 1.808 0 0 1-.33.281c-.152.105-.274.18-.399.256-.296-.415-.605-.838-.605-1.129 0-.173-.01-.16.158-.277.2-.139.428-.215.803-.215zM6.135 9.492l1.885 2c-.333.112-.688.37-1.008.37-.562 0-.92-.128-1.23-.372-.317-.252-.386-.41-.386-.707 0-.43.098-.691.276-.914a1.023.977 0 0 0 .004-.008c.095-.12.317-.245.459-.369z" fill="currentColor" color="#565656"/></svg>