<?xml version="1.0" encoding="UTF-8" standalone="no"?>
<svg
   xmlns:dc="http://purl.org/dc/elements/1.1/"
   xmlns:cc="http://creativecommons.org/ns#"
   xmlns:rdf="http://www.w3.org/1999/02/22-rdf-syntax-ns#"
   xmlns:svg="http://www.w3.org/2000/svg"
   xmlns="http://www.w3.org/2000/svg"
   xmlns:sodipodi="http://sodipodi.sourceforge.net/DTD/sodipodi-0.dtd"
   xmlns:inkscape="http://www.inkscape.org/namespaces/inkscape"
   width="16"
   height="16"
   version="1.1"
   id="svg9"
   sodipodi:docname="folder-move.svg"
   inkscape:version="0.92.4 (5da689c313, 2019-01-14)">
  <metadata
     id="metadata13">
    <rdf:RDF>
      <cc:Work
         rdf:about="">
        <dc:format>image/svg+xml</dc:format>
        <dc:type
           rdf:resource="http://purl.org/dc/dcmitype/StillImage" />
      </cc:Work>
    </rdf:RDF>
  </metadata>
  <sodipodi:namedview
     pagecolor="#ffffff"
     bordercolor="#666666"
     borderopacity="1"
     objecttolerance="10"
     gridtolerance="10"
     guidetolerance="10"
     inkscape:pageopacity="0"
     inkscape:pageshadow="2"
     inkscape:window-width="678"
     inkscape:window-height="480"
     id="namedview11"
     showgrid="false"
     inkscape:zoom="14.75"
     inkscape:cx="8"
     inkscape:cy="8"
     inkscape:window-x="0"
     inkscape:window-y="28"
     inkscape:window-maximized="0"
     inkscape:current-layer="svg9" />
  <defs
     id="defs3">
    <style
       id="current-color-scheme"
       type="text/css">
   .ColorScheme-Text { color:#565656; } .ColorScheme-Highlight { color:#5294e2; }
  </style>
  </defs>
  <path
     style="opacity:0.3;fill:currentColor"
     class="ColorScheme-Text"
     d="M 12 7 L 12 11.25 C 12 11.665 11.665 12 11.25 12 L 5 12 L 5 14.25 C 5 14.665 5.3345 15 5.75 15 L 14.25 15 C 14.665 15 15 14.665 15 14.25 L 15 7.75 C 15 7.3345 14.665 7 14.25 7 L 12 7 z"
     id="path7" />
  <g
     id="g830"
     transform="matrix(0.71428572,0,0,0.71428572,-16.900727,0.93299573)"
     style="stroke-width:1.39999998">
    <rect
       ry="1"
       rx="1"
       y="0.79661018"
       x="24.660816"
       height="5"
       width="14"
       id="rect23"
       style="display:inline;opacity:0.5;fill:#565656;fill-opacity:1;stroke:none;stroke-width:1.39999998;stroke-linecap:round;stroke-linejoin:miter;stroke-miterlimit:4;stroke-dasharray:none;stroke-opacity:1;paint-order:stroke markers fill;enable-background:new" />
    <path
       sodipodi:nodetypes="ccssssssccssc"
       id="path4-3"
       d="m 31.661017,2.7966102 -1,2 h -6 c -0.554,0 -1,0.446 -1,1 V 13.79661 c 0,0.554 0.446,1 1,1 h 14 c 0.554,0 1,-0.446 1,-1 v -5.9999998 -2 -2 c 0,-0.5 -0.5,-1 -1,-1 z"
       style="display:inline;fill:#565656;fill-opacity:1;stroke:none;stroke-width:1.39999998;enable-background:new"
       inkscape:connector-curvature="0" />
  </g>
</svg>
