<svg xmlns="http://www.w3.org/2000/svg" width="16" height="16"><defs><style id="current-color-scheme" type="text/css"></style></defs><path d="M6 3l-.008 2 2.922.012h.002c-.055 0 .084.16.084.082v.924H7.996c-1.716 0-3.03 1.125-3.055 2.484-.012.68.306 1.363.862 1.822.555.46 1.315.7 2.193.7H11v-5.93c0-1.171-.887-2.082-2.084-2.082L6.006 3H6zM-.004 5v6l4-3-4-3zm16 0l-4 3 4 3V5zm-8 3.018H9v1.005H7.996c-.52 0-.794-.137-.92-.242-.126-.104-.136-.172-.135-.244.003-.144.085-.52 1.055-.52z" fill="currentColor" color="#565656"/></svg>