<svg xmlns="http://www.w3.org/2000/svg" width="16" height="16"><defs><style id="current-color-scheme" type="text/css"></style></defs><path d="M4.5 0C2.567 0 1 1.79 1 4v3c0 2.21 1.567 4 3.5 4S8 9.21 8 7V4c0-2.21-1.567-4-3.5-4zm8 0C10.567 0 9 1.79 9 4v3c0 2.21 1.567 4 3.5 4S16 9.21 16 7V4c0-2.21-1.567-4-3.5-4zm-8 2C5.328 2 6 3.045 6 4.334v2.332C6 7.955 5.328 9 4.5 9S3 7.955 3 6.666V4.334C3 3.045 3.672 2 4.5 2zm8 0c.828 0 1.5 1.045 1.5 2.334v2.332C14 7.955 13.328 9 12.5 9S11 7.955 11 6.666V4.334C11 3.045 11.672 2 12.5 2zM0 10v1h1v-1H0zm12 2v1.5h-1.5v1H12V16h1v-1.5h1.5v-1H13V12h-1z" fill="currentColor" color="#565656"/></svg>