<svg xmlns="http://www.w3.org/2000/svg" width="16" height="16"><defs><style id="current-color-scheme" type="text/css"></style></defs><path d="M11.215 2l-2.5 3h5l-2.5-3zM3.828 6L1 14h1.143l.974-2.285H5.84L6.715 14h1.142L5.266 6H3.828zm4.887 0v8h4A2.286 2.286 0 0 0 15 11.715a2.286 2.286 0 0 0-1.533-2.154 2.286 2.286 0 0 0 .39-1.276A2.286 2.286 0 0 0 11.572 6H8.715zm1.142 1.143h1.715a1.143 1.143 0 0 1 1.143 1.142 1.143 1.143 0 0 1-1.143 1.143H9.857V7.143zm-5.31.097l1.072 3.332H3.363L4.547 7.24zm5.31 3.332h2.858a1.143 1.143 0 0 1 1.142 1.143 1.143 1.143 0 0 1-1.142 1.142H9.857v-2.285z" fill="currentColor" color="#565656"/></svg>