<svg xmlns="http://www.w3.org/2000/svg" width="16" height="16"><defs><style id="current-color-scheme" type="text/css"></style></defs><path d="M2.34.938L.934 2.343l4.693 4.693c-.765.089-1.438.428-1.88.932A3.017 3.017 0 0 0 2.996 10c.005.72.268 1.453.78 2.031.513.579 1.31.969 2.22.969h5.593l2.062 2.063 1.407-1.407L2.339.937zM6.402 3l2 2h1.594c.428 0 1 .614 1 1v1h-.594l2.594 2.594V6a3 3 0 0 0-3-3H6.402zm-.406 6H7.59l2 2H5.996c-.398 0-.567-.11-.719-.281a1.144 1.144 0 0 1-.28-.719c-.003-.28.104-.554.25-.719.144-.165.327-.281.75-.281z" fill="currentColor" color="#565656"/></svg>