<svg xmlns="http://www.w3.org/2000/svg" width="16" height="16"><defs><style id="current-color-scheme" type="text/css"></style></defs><path d="M1 1v14h14V1H1zm2 2h10v10H3V3zm1.022 1A.022.022 0 0 0 4 4.021v.957c0 .012.01.022.021.022h7.958c.011 0 .021-.01.021-.022v-.957A.022.022 0 0 0 11.979 4H4.022zm0 3A.022.022 0 0 0 4 7.021v.957c0 .012.01.022.021.022h7.958c.011 0 .021-.01.021-.022v-.957A.022.022 0 0 0 11.979 7H4.022zm0 2.8C4.01 9.8 4 9.81 4 9.82v.959c0 .012.01.022.021.022h7.958c.011 0 .021-.01.021-.022V9.82c0-.011-.01-.02-.021-.02H4.022z" fill="currentColor" color="#565656"/></svg>