<svg xmlns="http://www.w3.org/2000/svg" width="16" height="16"><defs><style id="current-color-scheme" type="text/css"></style></defs><path d="M0 2v12h10l5.293-5.293L16 8l-.707-.707L10 2H0zm4 2h1v1H4a1 1 0 0 0-1 1v1a1.5 1.5 0 0 1-.375 1A1.5 1.5 0 0 1 3 9v1a1 1 0 0 0 1 1h1v1H4a2 2 0 0 1-2-2V9a.5.5 0 0 0-.5-.5H1v-1h.5A.5.5 0 0 0 2 7V6a2 2 0 0 1 2-2zm2 0h1a2 2 0 0 1 2 2v1a.5.5 0 0 0 .5.5h.5v1h-.5A.5.5 0 0 0 9 9v1a2 2 0 0 1-2 2H6v-1h1a1 1 0 0 0 1-1V9c0-.383.14-.735.375-1A1.5 1.5 0 0 1 8 7V6a1 1 0 0 0-1-1H6V4z" fill="currentColor" color="#565656"/></svg>