<svg xmlns="http://www.w3.org/2000/svg" id="Capa_1" width="16" height="16" x="0" y="0" version="1.1" xml:space="preserve"><defs><style id="current-color-scheme" type="text/css"></style></defs><path d="M14.68 12.246a.326.326 0 0 0-.304.132l-.473-.062.681-.7c.11.03.233 0 .32-.09a.358.358 0 0 0-.001-.49.323.323 0 0 0-.47 0 .356.356 0 0 0-.087.33l-.609.626.203-.805a.334.334 0 0 0 .229-.238.348.348 0 0 0-.237-.424.331.331 0 0 0-.406.247c-.03.122.009.241.087.326l-.22.874-.25-.94a.351.351 0 0 0 .083-.326.332.332 0 0 0-.409-.242c-.315.09-.334.563 0 .662l.196.738-1.28.577.315-1.44c0 .008.015-.104.016-.16.019-.645-.555-1.241-1.33-.964-.038.014.006-.012-.792.427.185-.762.314-1.576.373-2.344.86.545 1.206-.06 1.3-.321l1.05-3.267.712-.744c.109.028.228.003.313-.086a.358.358 0 0 0-.001-.49.323.323 0 0 0-.47 0 .352.352 0 0 0-.082.327l-.618.647.207-.822a.335.335 0 0 0 .23-.239.348.348 0 0 0-.238-.423.331.331 0 0 0-.406.247c-.03.121.01.24.087.325l-.22.874-.249-.94a.352.352 0 0 0 .083-.326.332.332 0 0 0-.409-.242.35.35 0 0 0-.232.426c.032.121.124.204.232.236l.23.864-1.114 2.27-.215-.224a57.415 57.415 0 0 1-.247-.26c-.09-.554-.238-1.022-.434-1.401a.706.706 0 0 0 .123-.4.678.678 0 0 0-.663-.692.636.636 0 0 0-.103.011l-.377-.392c.002-.024.007-.046.007-.07 0-.467-.362-.848-.81-.848-.447 0-.81.381-.81.848 0 .024.005.046.007.07l-.376.392c-.034-.005-.068-.01-.103-.01a.678.678 0 0 0-.664.69c0 .15.047.288.124.4-.196.38-.345.848-.434 1.403l-.248.259-.215.224-1.113-2.27.23-.864a.334.334 0 0 0 .231-.236.35.35 0 0 0-.232-.426.332.332 0 0 0-.409.242.351.351 0 0 0 .083.326l-.249.94-.22-.875a.35.35 0 0 0 .086-.325.331.331 0 0 0-.406-.247.348.348 0 0 0-.237.424c.031.121.122.205.23.238l.207.822-.618-.646a.352.352 0 0 0-.082-.327.323.323 0 0 0-.47 0 .357.357 0 0 0-.001.49.318.318 0 0 0 .313.086l.711.743s1.039 3.233 1.05 3.267c.095.262.44.867 1.3.321.06.769.189 1.582.374 2.345-.799-.44-.754-.414-.792-.428-.775-.277-1.349.32-1.33.965 0 .056.015.167.016.16l.315 1.44c-.106-.048-1.132-.51-1.28-.578l.196-.738c.334-.099.315-.571 0-.662a.332.332 0 0 0-.41.242.351.351 0 0 0 .084.327l-.25.94-.22-.874a.352.352 0 0 0 .087-.326.331.331 0 0 0-.406-.247.348.348 0 0 0-.237.423c.03.122.121.206.229.239l.203.805-.61-.626a.356.356 0 0 0-.086-.33.323.323 0 0 0-.47 0 .358.358 0 0 0 0 .49c.086.09.208.12.318.09l.682.7-.473.062a.326.326 0 0 0-.304-.132.344.344 0 0 0-.29.387c.024.19.19.324.372.301a.334.334 0 0 0 .263-.206l.74-.097 2.205 1.277c.23.133.513.12.73-.034a.74.74 0 0 0 .302-.696l-.17-1.354c.045.03 1.205.862 1.793 1.28.23.261.478.418.734.418.257 0 .504-.157.735-.418.588-.418 1.748-1.25 1.792-1.28l-.17 1.354a.74.74 0 0 0 .302.696.675.675 0 0 0 .731.034l2.205-1.277.74.096c.044.109.141.19.262.207a.336.336 0 0 0 .372-.302.344.344 0 0 0-.289-.387z" fill="currentColor" color="#565656"/></svg>