<svg xmlns="http://www.w3.org/2000/svg" width="16" height="16"><defs><style id="current-color-scheme" type="text/css"></style></defs><path d="M8 0L6.885 3.135a4.953 4.953 0 0 0-1.533.638l-3.008-1.43 1.43 3.009c-.294.466-.513.98-.64 1.533L0 8l3.135 1.115c.126.553.345 1.067.638 1.533l-1.43 3.008 3.01-1.431c.466.292.98.514 1.532.64L8 16l1.115-3.135a4.948 4.948 0 0 0 1.531-.64l3.01 1.431-1.431-3.01c.292-.465.514-.979.64-1.53L16 8l-3.135-1.115a4.96 4.96 0 0 0-.64-1.531l1.431-3.01-3.008 1.43a4.949 4.949 0 0 0-1.533-.64L8 0zM6 6a1 1 0 0 1 1 1 1 1 0 0 1-1 1 1 1 0 0 1-1-1 1 1 0 0 1 1-1zm4 0a1 1 0 0 1 1 1 1 1 0 0 1-1 1 1 1 0 0 1-1-1 1 1 0 0 1 1-1zm.498 3.496a.5.5 0 0 1 .314.895s-1.295 1.105-2.81 1.109c-1.51.004-2.809-1.074-2.809-1.074a.5.5 0 1 1 .614-.79S7.01 10.504 8 10.5c.985-.002 2.189-.89 2.189-.89a.5.5 0 0 1 .309-.114z" fill="currentColor" color="#565656"/></svg>