<svg xmlns="http://www.w3.org/2000/svg" width="16" height="16"><defs><style id="current-color-scheme" type="text/css">.ColorScheme-Text{color:#565656}</style></defs><path class="ColorScheme-Text" d="M6.537 1.195c-.116.001-.233.016-.348.047-.916.246-1.422 1.4-1.279 2.735-1.252-.484-2.498-.295-2.973.527-.474.822-.015 1.995 1.03 2.838C1.74 7.885.995 8.9 1.24 9.816c.246.917 1.398 1.419 2.733 1.276.08-.209.176-.417.295-.623.476-.493 1.26-1.064 2.06-1.373a2 2 0 0 1-.26-.575 2 2 0 0 1 1.414-2.449 2 2 0 0 1 2.45 1.414 2 2 0 0 1-1.414 2.45A2 2 0 0 1 7.89 10c.131.847.03 1.807-.159 2.467v.002a4.43 4.43 0 0 1-.392.566c.543 1.227 1.556 1.976 2.473 1.73.916-.245 1.418-1.4 1.275-2.734 1.252.484 2.498.295 2.973-.527.474-.822.015-1.997-1.03-2.84 1.227-.543 1.976-1.556 1.73-2.473-.245-.916-1.4-1.42-2.734-1.277.484-1.252.295-2.498-.527-2.973-.822-.474-1.995-.015-2.838 1.03-.475-1.074-1.31-1.78-2.125-1.776zm-2.72 11.946l.005.02a1.955 1.955 0 0 0-.006-.02zm.156.373c0 .002.002.003.004.006l-.002-.006h-.002zm.004.006l.003.01c.036.062.08.115.124.171a1.59 1.59 0 0 1-.127-.181zm2.75.125c-.028.021-.055.045-.082.066.003-.003.008-.003.011-.006.024-.018.047-.041.07-.06zm-1.104.554c-.075.017-.149.028-.223.035.007 0 .015 0 .022-.002.067-.007.133-.018.201-.033zm-.61.028c.07.01.14.021.212.021l.017-.002c-.078 0-.153-.01-.228-.02z" fill="currentColor"/><path class="ColorScheme-Text" d="M6.33 9.096c-.8.309-1.585.88-2.062 1.373-.831 1.44-.728 3.043.232 3.597.96.554 2.401-.158 3.232-1.597v-.002c.188-.66.29-1.622.159-2.469a2 2 0 0 1-.889-.266 2 2 0 0 1-.672-.636z" fill="currentColor" opacity=".3"/></svg>