<svg xmlns="http://www.w3.org/2000/svg" width="16" height="16"><defs><style id="current-color-scheme" type="text/css"></style></defs><path d="M2.344.938L.938 2.343 3.05 4.457C.85 5.932 0 8 0 8s2 5.004 8 5.004a9.098 9.098 0 0 0 3.076-.522l2.58 2.58 1.406-1.406L2.345.937zM8 3.003c-.524 0-1.006.05-1.47.119l1.92 1.92a3 3 0 0 1 2.515 2.516l3.11 3.109C15.447 9.366 16 8.004 16 8.004s-2-5-8-5zM5.3 6.707l3.997 3.996a3 3 0 0 1-1.297.3 3 3 0 0 1-3-3 3 3 0 0 1 .3-1.296z" fill="currentColor" color="#565656"/></svg>