<svg xmlns="http://www.w3.org/2000/svg" width="16" height="16"><defs><style id="current-color-scheme" type="text/css"></style></defs><path d="M8 1.98c-.917.001-1.81.293-2.355.97-.546.675-.7 1.503-.768 2.462-.034.473-.044.995-.04 1.568H4c-.554 0-1 .446-1 1s.446 1 1 1h.889c.047 1.399.11 3.043.111 5a1 1 0 1 0 2 0c0-1.961-.056-3.619-.102-5H8c.554 0 1-.446 1-1s-.446-1-1-1H6.846a17.605 17.605 0 0 1 .027-1.425c.057-.79.217-1.212.328-1.35.111-.138.218-.224.801-.225a1 1 0 1 0-.002-2zm.707 8.758L8 11.445l1.414 1.414L8 14.273l.707.707 1.414-1.414 1.414 1.414.707-.707-1.414-1.414 1.414-1.414-.707-.707-1.414 1.414-1.414-1.414z" fill="currentColor" color="#565656"/></svg>