<svg xmlns="http://www.w3.org/2000/svg" width="16" height="16"><defs><style id="current-color-scheme" type="text/css"></style></defs><path d="M4.3 2l-2.857 8h1.428l.608-1.715h2.785L6.87 10h1.59L5.443 2H4.301zm.571 2.285l1 2.858h-2l1-2.858zM10 5v1h2.5c.214 0 .5.307.5.5V7h-2.5c-.46 0-.868.192-1.125.484A1.509 1.509 0 0 0 9 8.5c.003.36.134.726.39 1.016.26.289.66.484 1.11.484H14v-.422c.008-.047 0-.078 0-.078v-3A1.5 1.5 0 0 0 12.5 5H10zm.5 3H13v1h-2.5c-.199 0-.283-.055-.36-.14A.572.572 0 0 1 10 8.5a.56.56 0 0 1 .125-.36c.08-.081.17-.139.375-.14zM5 11.996l3 4 3-4H5z" fill="currentColor" color="#565656"/></svg>