<svg xmlns="http://www.w3.org/2000/svg" width="16" height="16"><defs><style id="current-color-scheme" type="text/css"></style></defs><path d="M13.18 0a.354.354 0 0 0-.149.031L1.78 2.105c-.938.175-.773 1.163-.773 1.163L1.457 6h2.945l1.073-1.947L7.797 6h2.201l.863-1.225L12.53 6h2.469L14.135.85c-.124-.743-.68-.85-.951-.848L13.18 0zM1 7v1h1V7H1zm2 0v1h1V7H3zm2 0v1h1V7H5zm2 0v1h1V7H7zm2 0v1h1V7H9zm2 0v1h1V7h-1zm2 0v1h1V7h-1zm2 0v1h1V7h-1zM1.002 9v2.908h2.816L7.91 16V9H1.002zM9.91 9v3c1.07-.58 1.79-1.7 1.79-3H9.91zm4 0c0 2.57-1.68 4.76-4 5.5V16c3.15-.78 5.5-3.6 5.5-7h-1.5z" fill="currentColor" color="#565656"/></svg>