<svg xmlns="http://www.w3.org/2000/svg" id="Capa_1" width="16" height="16" x="0" y="0" version="1.1" xml:space="preserve"><defs><style id="current-color-scheme" type="text/css"></style></defs><path d="M5 1C3.895 1 3 2.343 3 4s.895 3 2 3 2-1.343 2-3-.895-3-2-3zm5 0C8.895 1 8 2.343 8 4s.895 3 2 3 2-1.343 2-3-.895-3-2-3zM1.887 5.986a.87.87 0 0 0-.262.075c-.673.313-.827 1.427-.344 2.486.484 1.059 1.421 1.661 2.094 1.348.673-.314.827-1.426.344-2.485-.423-.926-1.196-1.504-1.832-1.424zm12.226 0c-.636-.08-1.41.498-1.832 1.424-.483 1.059-.33 2.17.344 2.484.673.314 1.61-.288 2.094-1.347.483-1.059.329-2.173-.344-2.486a.87.87 0 0 0-.262-.075zM7.838 8s-1.056-.003-1.78.644C5.057 9.543 3.9 11.452 3.9 11.452c-.611.958-.9 1.464-.9 1.994C3 14.493 3.784 15 4.838 15c.464 0 .751.005 1.51-.387 0 0 .492-.452 1.652-.406 1.15-.046 1.64.4 1.64.4.759.392 1.059.393 1.524.393C12.218 15 13 14.492 13 13.445c0-.53-.29-1.039-.9-1.996 0 .001-1.186-1.875-2.157-2.804C9.265 7.996 8.162 8 8.162 8h-.324z" fill="currentColor" color="#565656"/></svg>