<svg xmlns="http://www.w3.org/2000/svg" width="16" height="16"><defs><style id="current-color-scheme" type="text/css">.ColorScheme-Text{color:#565656}</style></defs><path class="ColorScheme-Text" d="M5.406 6S4 6 4 7.4v4.2c0 .775.636 1.4 1.428 1.4H9l1.5 2 1.5-2h.572S14 13 14 11.6V7.4C14 6 12.572 6 12.572 6H5.406zM9 7h1v2h2v1h-2v2H9v-2H7V9h2V7z" fill="currentColor"/><path class="ColorScheme-Text" d="M3.406 2S2 2 2 3.4v4.2c0 .628.42 1.151 1 1.33V6.4C3 5 4.406 5 4.406 5h7.166s.196.024.428.086V3.4C12 2 10.572 2 10.572 2H3.406z" fill="currentColor" opacity=".3"/></svg>