<svg xmlns="http://www.w3.org/2000/svg" width="16" height="16"><defs><style id="current-color-scheme" type="text/css"></style></defs><path d="M3.5 1A2.515 2.515 0 0 0 1 3.5v.002c.001.763.43 1.382 1 1.848V11c0 1.645 1.355 3 3 3a1 1 0 0 0 1.6.8l2-1.5a1 1 0 0 0 0-1.599l-2-1.5a1 1 0 0 0-1.6.785V5.35c.57-.466.999-1.085 1-1.848V3.5C6 2.131 4.869 1 3.5 1zm6.47 0a1 1 0 0 0-.57.2l-2 1.5a1 1 0 0 0 0 1.599l2 1.5a1 1 0 0 0 1.6-.785v5.636c-.571.466-.999 1.085-1 1.848v.002c0 1.369 1.131 2.5 2.5 2.5s2.5-1.131 2.5-2.5v-.002c-.001-.763-.429-1.382-1-1.848V5c0-1.645-1.355-3-3-3a1 1 0 0 0-1.03-1z" fill="currentColor" color="#565656"/></svg>