<svg xmlns="http://www.w3.org/2000/svg" width="16" height="16"><defs><style id="current-color-scheme" type="text/css"></style></defs><path d="M5-.213V0a5 5 0 0 1-.084.885 5 5 0 0 1-.111.484 5 5 0 0 1-.162.475A5 5 0 0 1 2.045 4.55a5 5 0 0 1-.455.18 5 5 0 0 1-.01 0 5 5 0 0 1-.012 0 5 5 0 0 1-.455.126 5 5 0 0 1-.015 0 5 5 0 0 1-1.098.1v1a6 6 0 0 0 1.414-.176l.951 2.852c-.766.1-1.561.3-2.365.3v.663a10.31 10.31 0 0 0 4.8-1.188l.67 1.053.538.842a12 12 0 0 0 .844-.535l-.004-.01a11.965 11.965 0 0 0 4.527-6.059l2.154.615.74.248c.475-1.475.728-3.08.731-4.634h-1a14.321 14.321 0 0 1-.426 3.36l-7.693-2.2A6 6 0 0 0 6-.212H5zm.61 2.336l4.808 1.375A10.967 10.967 0 0 1 6.313 8.99l-.649-1.02-.424-.667a9 9 0 0 1-.699.45 9.042 9.042 0 0 1-1.23.595l-.946-2.836A6 6 0 0 0 5.61 2.123zm3.513 5.666a12 12 0 0 1-.682.732L9.893 9.87A13.986 13.986 0 0 1 0 14v1a14.997 14.997 0 0 0 10.617-4.459l2.21 2.053A18 18 0 0 1 8.188 16h2.02a19 19 0 0 0 3.346-2.729l.01.01a19 19 0 0 0 .681-.732h-.006A19 19 0 0 0 16 10.25V8.21a18 18 0 0 1-2.508 3.642l-2.18-2.026-.726-.674-1.463-1.359v-.004z" fill="currentColor" color="#565656"/></svg>