<svg xmlns="http://www.w3.org/2000/svg" width="16" height="16"><defs><style id="current-color-scheme" type="text/css"></style></defs><path d="M6 2C2.134 2 0 4.68 0 7.984c0 3.305 2.134 5.766 6 5.766-3.222 0-4.834-3.012-4.834-5.766S2.778 2.996 6 2.996c1.456 0 2.77.475 3.793 1.229A6.236 6.236 0 0 0 8 3.959c-2.761 0-5 1.753-5 3.916v.01c.001.106.008.213.02.318.192 3.23 3.238 5.799 6.98 5.799 3.866 0 6-2.742 6-6.123 0-3.381-2.134-5.877-6-5.877 3.222 0 4.834 3.057 4.834 5.875S13.222 12.979 10 12.979c-1.672 0-3.177-.62-4.24-1.606a6.154 6.154 0 0 0 2.24.418c2.705 0 4.917-1.689 4.992-3.807H13c0-.019-.004-.04-.004-.058L13 7.875a3.088 3.088 0 0 0-.031-.4C12.666 4.409 9.665 2 6 2z" fill="currentColor" color="#565656"/></svg>