<svg xmlns="http://www.w3.org/2000/svg" width="16" height="16"><defs><style id="current-color-scheme" type="text/css"></style></defs><path d="M10.932-.05C9.836-.025 8.834-.094 7.703.2V.2c-1.901.797-3.01 2.56-3.51 4.473-.04.158-.26.789-.26 1.564v2.868C3.876 10.66 2.77 11.613 1.62 12.47c-.536.378-1.094.708-1.619 1.097l.004 2.381c2.969-.01 4.28-.02 6.273-.015 1.605-2.463 2.67-4.192 2.694-6.752V6.238c.07-.624.303-1.281.81-1.34.888-.048 1.617.205 2.094.51a3.11 3.11 0 0 0 1.771.547H16V.943h-1.14c-.806.065-1.437-.477-2.174-.742-.368-.09-.998-.252-1.754-.252z" fill="currentColor" color="#565656"/></svg>