<svg xmlns="http://www.w3.org/2000/svg" width="16" height="16"><defs><style id="current-color-scheme" type="text/css"></style></defs><path d="M3.525 0l2.903 1.28a11.491 11.491 0 0 1-1.801 2.534L.818.02H.012v.949l3.722 3.705A11.48 11.48 0 0 1 1.36 6.268L.57 4.482l-.54-1.255L.016 6.25l.224.506c-.081.03-.158.07-.24.1v1.308c.253-.079.494-.185.74-.28l1.936 4.366c-.862.335-1.754.615-2.676.814v1.27c1.1-.222 2.158-.551 3.178-.957l1.135 2.562h1.332l-1.35-3.046A18.716 18.716 0 0 0 8.883 9.8l3.424 3.408A23.675 23.675 0 0 1 8.67 16h2.22a24.863 24.863 0 0 0 2.294-1.92l1.867 1.86.888.01.006-.856-1.884-1.877A25.054 25.054 0 0 0 16 10.987v-2.15a23.61 23.61 0 0 1-2.813 3.509l-3.42-3.409a18.729 18.729 0 0 0 3.31-4.732l2.859 1.26.003-1.346-2.367-1.025c.406-.988.739-2.012.971-3.076h-1.27c-.208.891-.49 1.753-.83 2.586L8.04.695c.09-.226.196-.445.274-.677H6.995c-.024.066-.058.126-.084.191L6.432 0H3.525zm4.03 1.775l4.392 1.934a17.456 17.456 0 0 1-3.054 4.357L5.5 4.686a12.775 12.775 0 0 0 2.055-2.91zm-2.946 3.77l3.399 3.383a17.447 17.447 0 0 1-4.215 2.834L1.859 7.395c1-.497 1.92-1.12 2.75-1.85z" fill="currentColor" color="#565656"/></svg>