<svg xmlns="http://www.w3.org/2000/svg" width="16" height="16"><defs><style id="current-color-scheme" type="text/css"></style></defs><path d="M11-.139V0L5.736 7.178a4.5 4.5 0 0 1 .45.156A4.478 4.478 0 0 0 4.5 7a4.495 4.495 0 0 0-3.18 1.32 4.5 4.5 0 0 0-.627.787l2.094 2.094-1.396 1.904a3.5 3.5 0 0 0 1.505 1.502L4.8 13.213l2.096 2.096a4.5 4.5 0 0 0 .785-.63A4.5 4.5 0 0 0 9 11.5c0-.581-.12-1.133-.32-1.643a4.5 4.5 0 0 1 .144.405L16 4.862l-5-5zM2.914.086L.086 2.916l3.672 3.67 2.828-2.828L2.914.086zm9.328 9.328l-2.828 2.83 3.672 3.672 2.828-2.83-3.672-3.672zm-11.494 4.5L0 15.014l1 1 1.02-.748a4.5 4.5 0 0 1-1.272-1.272v-.08z" fill="currentColor" color="#565656"/></svg>