<svg xmlns="http://www.w3.org/2000/svg" width="16" height="16"><defs><style id="current-color-scheme" type="text/css"></style></defs><path d="M8-.05V0a8 8 0 0 0-8 8 8 8 0 0 0 1.385 4.498 1.5 1.5 0 0 0-.184.252 1.5 1.5 0 0 0 .549 2 1.5 1.5 0 0 0 1.758-.2A8 8 0 0 0 8 15.95a8 8 0 0 0 8-8 8 8 0 0 0-8-8zM8 1a7 7 0 0 1 7 7 7 7 0 0 1-7 7 7 7 0 0 1-4.018-1.271 1.5 1.5 0 0 0-.732-1.5 1.5 1.5 0 0 0-.973-.2A7 7 0 0 1 1 8.03a7 7 0 0 1 7-7V1zm0 2a5 5 0 0 0-5 5 5 5 0 0 0 5 5 5 5 0 0 0 3.072-1.063 1.5 1.5 0 0 0 1.727-.687 1.5 1.5 0 0 0-.078-1.62A5 5 0 0 0 13 8a5 5 0 0 0-5-5zm0 1a4 4 0 0 1 4 4 4 4 0 0 1-.143 1.043 1.5 1.5 0 0 0-1.656.707 1.5 1.5 0 0 0 .037 1.56 4 4 0 0 1-2.238.7 4 4 0 0 1-4-4 4 4 0 0 1 4-4V4zm0 2a2 2 0 0 0-2 2 2 2 0 0 0 2 2 2 2 0 0 0 2-2 2 2 0 0 0-2-2z" fill="currentColor" color="#565656"/></svg>