<svg xmlns="http://www.w3.org/2000/svg" width="16" height="16"><defs><style id="current-color-scheme" type="text/css"></style></defs><path d="M8.78 1.998a.184.184 0 0 0-.143.045.211.211 0 0 0-.069.14L8.342 4.67c-.01.114.069.217.176.228a4.958 4.958 0 0 1 1.771.532.189.189 0 0 0 .149.008.2.2 0 0 0 .11-.106l1.013-2.25a.214.214 0 0 0-.09-.277 7.541 7.541 0 0 0-2.692-.807zm-1.864.037a7.564 7.564 0 0 0-2.66.918.216.216 0 0 0-.08.281l1.092 2.207c.034.07.102.11.171.11.031 0 .061-.007.09-.024a4.981 4.981 0 0 1 1.752-.603c.106-.016.18-.12.166-.235l-.312-2.476c-.015-.114-.113-.193-.219-.178zm5.986 1.797a.192.192 0 0 0-.13.076L11.3 5.846a.217.217 0 0 0-.041.152c.005.055.03.106.07.14.483.422.888.923 1.207 1.495a.194.194 0 0 0 .168.101c.034 0 .068-.009.1-.029l2-1.281a.205.205 0 0 0 .088-.127.223.223 0 0 0-.022-.158 8.444 8.444 0 0 0-1.826-2.262.186.186 0 0 0-.143-.045zm-10.04.207a.185.185 0 0 0-.141.05A8.5 8.5 0 0 0 .977 6.425a.226.226 0 0 0-.016.16.202.202 0 0 0 .092.123l2.045 1.2a.185.185 0 0 0 .263-.085A5.622 5.622 0 0 1 4.516 6.28a.211.211 0 0 0 .064-.142.22.22 0 0 0-.047-.153L2.994 4.11a.189.189 0 0 0-.133-.07zm12.53 3.791l-2.224.746c-.102.035-.159.152-.127.262a6.04 6.04 0 0 1 .234 1.96.219.219 0 0 0 .051.151.19.19 0 0 0 .135.069l2.328.115h.008c.103 0 .188-.088.193-.2a9.143 9.143 0 0 0-.355-2.967c-.032-.109-.14-.17-.242-.136zm-10.779.24a.195.195 0 0 0-.115.059.226.226 0 0 0-.037.256l1.72 3.457a2.008 2.008 0 0 0 .523 1.582c.345.369.802.572 1.288.572.487 0 .945-.203 1.29-.572.343-.369.532-.858.532-1.38 0-.52-.189-1.011-.533-1.38a1.753 1.753 0 0 0-1.287-.572h-.002c-.033 0-.067 0-.1.002L4.739 8.1a.19.19 0 0 0-.125-.03zm-4.095.067a.185.185 0 0 0-.149.02.207.207 0 0 0-.09.126 9.182 9.182 0 0 0-.27 2.65c.006.112.091.2.194.2h.01l2.326-.115a.19.19 0 0 0 .135-.069.219.219 0 0 0 .05-.15 6.085 6.085 0 0 1 .178-1.752c.028-.111-.033-.226-.136-.256L.518 8.137z" fill="currentColor" color="#565656"/></svg>