<svg xmlns="http://www.w3.org/2000/svg" width="16" height="16"><defs><style id="current-color-scheme" type="text/css"></style></defs><path d="M1 0v14H0v1h1v1h1v-1h14v-1h-.844l-.187-.188-.844-.812-1.281-1.313-.719-.687L10 13.094l-1.313-1.281L7.875 11l-2-2H2V7h3.875l2-2 .813-.844L10 2.875 12.125 5l2-2 .844-.844L16 1.125V.906h-.219l-.5-.469L14.25 1.47l-.813.812-1.312 1.313L10 1.469 8.469 3 8 3.469l-.844.812L5.47 6H2V0H1zm1 10h3.469l1.687 1.688.844.843.469.469 1 1H2v-4zm10.125 2.406l1.313 1.281.294.313h-3.2l1.593-1.594z" fill="currentColor" color="#565656"/></svg>