<svg xmlns="http://www.w3.org/2000/svg" width="16" height="16"><defs><style id="current-color-scheme" type="text/css"></style></defs><path d="M13.78 2.975l-.032.056c-.074-.012-.149-.025-.227-.025-.817 0-1.525.723-1.523 1.523 0 .359.147.688.377.948L9.254 11.03a1.363 1.363 0 0 0-.233-.025c-.013 0-.025.004-.039.004L7.44 6.676c.34-.274.56-.688.559-1.147.002-.8-.659-1.523-1.477-1.523-.817 0-1.525.723-1.523 1.523 0 .058.01.114.018.17l-2.48 1.24a1.436 1.436 0 0 0-1.015-.433c-.817 0-1.525.723-1.523 1.523-.002.8.706 1.477 1.523 1.477.818 0 1.479-.676 1.477-1.477 0-.073-.01-.145-.021-.216l2.482-1.24c.275.262.646.427 1.047.43l1.562 4.368c-.342.286-.571.707-.57 1.158-.002.8.706 1.477 1.523 1.477.818 0 1.479-.676 1.477-1.477.001-.37-.145-.719-.377-.992l3.096-5.5.59 4.17c-.473.268-.81.773-.809 1.322-.002.8.706 1.477 1.523 1.477.818 0 1.479-.676 1.477-1.477.002-.708-.516-1.352-1.201-1.492l-.6-4.203c.476-.25.802-.744.801-1.305.002-.71-.52-1.357-1.209-1.494l-.01-.06z" fill="currentColor" color="#565656"/></svg>