<svg xmlns="http://www.w3.org/2000/svg" width="16" height="16"><defs><style id="current-color-scheme" type="text/css"></style></defs><path d="M0 0v16h16V0H0zm1 1h12.719l-.469.469-.813.812-1.312 1.313L9 1.469 7.469 3 7 3.469l-.844.812L4.47 6H1V1zm14 .125v13.719l-.281-.281-.75-.75-.844-.813-1.281-1.313-.719-.687L9 13.094l-1.313-1.281L6.875 11l-2-2H1V7h3.875l2-2 .813-.844L9 2.875 11.125 5l2-2 .844-.844L15 1.125zM1 10h3.469l1.687 1.688.844.843.469.469L9 14.531 9.531 14l1.594-1.594 1.313 1.281.5.532.312.312.031.031.438.438H1v-5z" fill="currentColor" color="#565656"/></svg>