<svg xmlns="http://www.w3.org/2000/svg" width="16" height="16"><defs><style id="current-color-scheme" type="text/css"></style></defs><path d="M8 1a7 7 0 0 0-7 7 7 7 0 0 0 7 7 7 7 0 0 0 7-7 7 7 0 0 0-7-7zm0 2a5 5 0 0 1 5 5 5 5 0 0 1-5 5 5 5 0 0 1-5-5 5 5 0 0 1 5-5zm.096 1a4 4 0 1 0 4 4 4 4 0 0 0-3.657-3.982C8 4 8.096 4 8.096 4zm0 1a3 3 0 1 1 0 6 3 3 0 0 1 0-6zm0 1c-1.108 0-2 .892-2 2s.892 2 2 2 2-.892 2-2c0-.205-.04-.398-.096-.584a.998.998 0 1 1-1.32-1.32A1.988 1.988 0 0 0 8.096 6z" fill="currentColor" color="#565656"/></svg>