<svg xmlns="http://www.w3.org/2000/svg" width="16" height="16"><defs><style id="current-color-scheme" type="text/css"></style></defs><path d="M8 1C4.146 1 1 4.146 1 8s3.146 7 7 7 7-3.146 7-7-3.146-7-7-7zm3.535 3.467c.04.041.078.084.115.127.137.147.265.302.383.465a4.717 4.717 0 0 1 .488.828c.04.077.075.155.11.234l.008.024c.087.218.155.446.21.68.027.1.05.2.07.302.03.164.05.33.061.496.01.11.014.221.016.332 0 .016.004.03.004.045l-.002.031c-.002.08-.006.16-.012.239-.005.094-.008.186-.017.279v.01l-.002.013c-.003.03-.01.057-.014.086v.002a5.13 5.13 0 0 1-.064.375l-.028.106c-.053.23-.125.453-.209.67l-.021.06c-.015.036-.026.072-.041.108a4.977 4.977 0 0 1-.057.11 4.862 4.862 0 0 1-.289.538 5.033 5.033 0 0 1-.07.115c-.017.025-.03.053-.047.078a4.96 4.96 0 0 1-.082.108c-.13.179-.268.351-.42.511a4.969 4.969 0 0 1-.088.096 5.001 5.001 0 0 1-.125.113 4.816 4.816 0 0 1-.482.397c-.035.026-.07.053-.106.078l-.04.03c-.046.027-.091.055-.138.081a4.728 4.728 0 0 1-.539.291c-.031.016-.063.03-.095.045-.034.015-.065.035-.098.05l-.041.013a4.924 4.924 0 0 1-.766.236l-.03.008c-.044.009-.085.021-.128.03l-.162.025a5.856 5.856 0 0 1-.328.045c-.085.005-.17.01-.254.011C8.137 12.991 8.07 13 8 13l-.02-.002a5 5 0 0 1-.814-.076l-.062-.01a5.005 5.005 0 0 1-.286-.066 5.186 5.186 0 0 1-.672-.207h-.001a5 5 0 0 1-.278-.127 4.985 4.985 0 0 1-1.402-.977l7.07-7.068z" fill="currentColor" color="#565656"/></svg>