<svg xmlns="http://www.w3.org/2000/svg" width="16" height="16"><defs><style id="current-color-scheme" type="text/css"></style></defs><path d="M2 2C.892 2 0 2.892 0 4v8c0 1.108.892 2 2 2h6V9L2 6V4l6 3 6-3v2l-2 1h3c.364 0 .703.108 1 .283V4c0-1.108-.892-2-2-2H2zm8 6c-.554 0-1 .446-1 1v5c0 .554.446 1 1 1h5c.554 0 1-.446 1-1V9c0-.554-.446-1-1-1h-5zm0 1h1v1h1v1h1v-1h1V9h1v5h-1v-3h-1v1h-1v-1h-1v3h-1V9z" fill="currentColor" color="#565656"/><path d="M10 8c-.554 0-1 .446-1 1v5c0 .554.446 1 1 1h5c.554 0 1-.446 1-1V9c0-.554-.446-1-1-1h-5zm0 1h1v1h1v1h1v-1h1V9h1v5h-1v-3h-1v1h-1v-1h-1v3h-1V9z" fill="none"/></svg>