<svg xmlns="http://www.w3.org/2000/svg" width="16" height="16" version="1.1" id="svg7"><defs id="defs3"><style id="current-color-scheme" type="text/css"></style></defs><path d="M2 1c-.554 0-1 .446-1 1v3c0 .554.446 1 1 1h4.88A3.957 3.957 0 0 1 8 5.822c.391 0 .762.073 1.12.178H14c.554 0 1-.446 1-1V2c0-.554-.446-1-1-1H2z" id="rect23" display="inline" opacity=".5" fill="#565656" fill-opacity="1" stroke="none" stroke-width="1" stroke-linecap="round" stroke-linejoin="miter" stroke-miterlimit="4" stroke-dasharray="none" stroke-opacity="1" paint-order="stroke markers fill"/><path d="M8 3L7 5H1c-.554 0-1 .446-1 1v8c0 .554.446 1 1 1h14c.554 0 1-.446 1-1V4c0-.5-.5-1-1-1H8zm0 2.822a4 4 0 0 1 4 4v.5a1.5 1.5 0 0 1-2.648.965A1.986 1.986 0 0 1 8 11.822a2 2 0 1 1 2-2v.5a.5.5 0 1 0 1 0v-.5a3 3 0 1 0-3 3h2.5s.5 0 .5.5c-.031.5-.5.5-.5.5H8a4 4 0 0 1 0-8zm0 3a1 1 0 1 0 0 2 1 1 0 0 0 0-2z" id="path4-3" display="inline" fill="#565656" fill-opacity="1" stroke="none"/></svg>