<svg xmlns="http://www.w3.org/2000/svg" width="16" height="16"><defs><style id="current-color-scheme" type="text/css"></style></defs><path d="M0 0v16h16V0H0zm1 1h4v4.707A7 3 0 0 1 1 3V1zm5 0h4v4.873A7 3 0 0 1 8 6a7 3 0 0 1-2-.127V1zm5 0h4v2a7 3 0 0 1-4 2.707V1zM1 4.928a8 4 0 0 0 4 1.777v2.59a8 4 0 0 0-4 1.777V4.928zm14 .008v6.128a8 4 0 0 0-4-1.77V6.706a8 4 0 0 0 4-1.77zM6 6.867A8 4 0 0 0 8 7a8 4 0 0 0 2-.13v2.26A8 4 0 0 0 8 9a8 4 0 0 0-2 .133V6.867zM8 10a7 3 0 0 1 2 .127V15H6v-4.873A7 3 0 0 1 8 10zm-3 .293V15H1v-2a7 3 0 0 1 4-2.707zm6 0A7 3 0 0 1 15 13v2h-4v-4.707z" fill="currentColor" color="#565656"/></svg>