<svg xmlns="http://www.w3.org/2000/svg" width="16" height="16"><defs><style id="current-color-scheme" type="text/css"></style></defs><path d="M5 2v2H2.932C1.862 4 1 4.94 1 6.105v5.79C1 13.06 1.862 14 2.932 14h10.136c1.07 0 1.932-.94 1.932-2.105v-5.79C15 4.94 14.138 4 13.068 4H11v2h1.998c-.002.009.002.026.002.105v5.79c0 .079-.004.096-.002.105H12v-1H9v1H3.004c0-.009-.004-.026-.004-.105v-5.79c0-.079.005-.096.004-.105H5v2l4-3-4-3zm4 5v1h3V7H9zm0 2v1h3V9H9z" fill="currentColor" color="#565656"/></svg>