<svg xmlns="http://www.w3.org/2000/svg" width="16" height="16"><defs><style id="current-color-scheme" type="text/css">.ColorScheme-Text{color:#565656}</style></defs><path class="ColorScheme-Text" d="M4.799.77c-.84.052-1.808.315-2.967.894l-.336.168.168.336c.728 1.455.893 2.499.807 3.357-.086.859-.432 1.557-.807 2.307-.375.75-.78 1.552-.88 2.568-.102 1.017.108 2.223.88 3.768l.168.336.336-.168c1.455-.728 2.499-.893 3.357-.807.86.086 1.557.432 2.307.807.75.375 1.552.78 2.568.88 1.017.102 2.223-.108 3.768-.88l.336-.168-.168-.336c-.728-1.455-.893-2.499-.807-3.357.086-.86.432-1.557.807-2.307.375-.75.78-1.552.88-2.568.102-1.017-.108-2.223-.88-3.768l-.168-.336-.336.168c-1.455.728-2.499.893-3.357.807-.86-.086-1.557-.432-2.307-.807-.75-.375-1.552-.78-2.568-.88a4.95 4.95 0 0 0-.801-.015z" opacity=".3" fill="currentColor"/><path class="ColorScheme-Text" d="M0 0v3h3V0zm13 0v3h3V0zM0 13v3h3v-3zm13 0v3h3v-3z" fill="currentColor"/></svg>