<svg width="16" height="16" version="1.1" viewBox="0 0 16 16" xmlns="http://www.w3.org/2000/svg">
 <defs>
  <style id="current-color-scheme" type="text/css">.ColorScheme-Text {
        color:#565656;
      }
      .ColorScheme-NegativeText{
        color:#e74c3c;
      }</style>
 </defs>
 <path class="ColorScheme-NegativeText" d="m11.571 7.0712a4.5 4.5 0 0 0-4.5 4.5 4.5 4.5 0 0 0 4.5 4.5 4.5 4.5 0 0 0 4.5-4.5 4.5 4.5 0 0 0-4.5-4.5zm-2.1211 1.8789c0.12781 0 0.25558 0.0485 0.35352 0.14648l1.7676 1.7676 1.7676-1.7676c0.19587-0.19588 0.51116-0.19588 0.70703 0 0.19587 0.19587 0.19587 0.51115 0 0.70703l-1.7676 1.7676 1.7676 1.7676c0.19587 0.19587 0.19587 0.51116 0 0.70703-0.19587 0.19587-0.51116 0.19587-0.70703 0l-1.7676-1.7676-1.7676 1.7676c-0.19587 0.19587-0.51116 0.19587-0.70703 0-0.19587-0.19587-0.19587-0.51116 0-0.70703l1.7676-1.7676-1.7676-1.7676c-0.19587-0.19588-0.19587-0.51116 0-0.70703 0.09793-0.0979 0.22571-0.14648 0.35352-0.14648z" fill="currentColor"/>
 <path class="ColorScheme-Text" d="m15.07-0.072266c-0.25562 0-0.51116 0.099092-0.70703 0.29492l-3.5352 3.5352-0.70703-0.70703c-0.78347-0.78347-2.0447-0.78346-2.8281 0l-1.4141 1.4141 1.4141 1.4141 1.4141-1.4141 1.666 1.666a5.5 5.5 0 0 1 1.127-0.13086 5.5 5.5 0 0 1 1.7637 0.29297c-0.085552-0.14705-0.18819-0.2878-0.31445-0.41406l-0.70703-0.70703 3.5352-3.5352c0.39174-0.39175 0.39173-1.0223 0-1.4141-0.19587-0.19587-0.45142-0.29491-0.70703-0.29492zm-10.605 5.9512-1.4141 1.4141c-0.78348 0.78348-0.78347 2.0447 0 2.8281l0.70703 0.70703-3.5352 3.5352c-0.39173 0.39174-0.39173 1.0224 0 1.4141 0.39174 0.39174 1.0223 0.39174 1.4141 0l3.5352-3.5352 0.70703 0.70703c0.12973 0.12972 0.27422 0.23551 0.42578 0.32226a5.5 5.5 0 0 1-0.30469-1.7715 5.5 5.5 0 0 1 0.13086-1.127l-1.666-1.666 1.4141-1.4141-1.4141-1.4141z" fill="currentColor"/>
</svg>
