<svg xmlns="http://www.w3.org/2000/svg" width="16" height="16"><defs><style id="current-color-scheme" type="text/css"></style></defs><path d="M8 .996a7 7 0 1 0 0 14 7 7 0 0 0 0-14zm-.5 1.938c.067-.007.151.004.219 0 .008.032-.049.145-.125.312-.486 1.061-.514 2.304-.063 2.969.082.12.157.235.157.25 0 .015-.088.031-.188.031-.234 0-.455-.142-.906-.5-.2-.159-.462-.292-.563-.312-.158-.032-.2-.018-.406.187-.191.191-.25.294-.25.469 0 .663.787 1.19 2.25 1.5 1.987.42 2.476.799 2.531 1.844.069 1.31-.628 2.297-2.156 3.062-.182.091-.298.127-.375.156-.034-.003-.06.003-.094 0a1.112 1.112 0 0 1-.031-.312c0-.696-.274-1.412-.688-1.813a5.257 5.257 0 0 0-.687-.5c-.266-.164-.534-.356-.594-.437-.099-.136-.107-.219-.031-.469.139-.457.304-.711.625-1 .168-.151.338-.278.375-.281.037-.003-.215-.079-.594-.156-.378-.078-.932-.24-1.218-.344-.524-.19-1.231-.587-1.5-.875l-.032-.031a5.026 5.026 0 0 1 2.906-3.407c.301-.127.61-.214.938-.28.163-.034.332-.046.5-.063zm4.688 2.343c.117.073.56 1.032.687 1.5.163.605.152 1.65 0 2.25-.058.229-.132.442-.156.47-.025.026-.114-.127-.219-.313s-.44-.581-.719-.875c-.804-.849-.93-1.292-.594-1.97.17-.34.91-1.118 1-1.062z" fill="currentColor" color="#5294e2"/></svg>