<svg xmlns="http://www.w3.org/2000/svg" width="16" height="16"><defs><style id="current-color-scheme" type="text/css"></style></defs><path d="M15.39 2.344a.5.5 0 0 0-.48.588c.218 1.594-.143 3.898-1.258 5.736-.636 1.049-1.506 1.943-2.652 2.525V9H5v2.275c-1.218-.577-2.123-1.507-2.773-2.603-1.09-1.836-1.42-4.138-1.178-5.733a.5.5 0 0 0-.524-.58.5.5 0 0 0-.463.43C-.22 4.647.14 7.112 1.367 9.18a7.567 7.567 0 0 0 2.98 2.823H2.915A1.5 1.5 0 0 0 1.5 11 1.5 1.5 0 0 0 0 12.5 1.5 1.5 0 0 0 1.5 14a1.5 1.5 0 0 0 1.412-1H5v2h6v-2h2.088a1.5 1.5 0 0 0 1.412 1 1.5 1.5 0 0 0 1.5-1.5 1.5 1.5 0 0 0-1.5-1.5 1.5 1.5 0 0 0-1.414 1.002h-1.592a7.698 7.698 0 0 0 3.012-2.816c1.253-2.066 1.646-4.53 1.392-6.39a.5.5 0 0 0-.507-.452z" fill="currentColor" color="#565656"/></svg>