<svg xmlns="http://www.w3.org/2000/svg" width="16" height="16"><defs><style id="current-color-scheme" type="text/css"></style></defs><path d="M4.904-.031v.097C3.552-.075 2.436.25 1.63.886.813 1.532.324 2.465.119 3.458c-.294 1.426-.022 3.01.785 4.217v3.295h4V9.807c.66.088 1.343.14 2.043.158-.004.215-.017.444-.017.654-.002 1.396.077 2.656.554 3.611.896 1.79 2.7 2.087 4.42 1.579v.16h4v-3.774c.185-.715.104-1.454-.355-2.142-.483-.725-1.395-.922-2.442-1.018-1.046-.096-2.298-.056-3.601-.027-.517.011-1.011-.034-1.531-.037.032-.9.065-1.784.072-2.694a18.6 18.6 0 0 0-.108-2.308h.965v-4h-4zm-.879 1.066c.25-.014.52-.007.81.026.027.002.044.014.07.017v2.89h2.02c.092.698.128 1.477.122 2.302-.006.876-.04 1.776-.072 2.677a19.911 19.911 0 0 1-2.07-.176V6.97H1.66c-.569-.957-.79-2.206-.562-3.31.166-.807.55-1.513 1.15-1.987.45-.355 1.027-.594 1.777-.637zm7.381 8.94a17.78 17.78 0 0 1 1.61.056c.947.087 1.536.33 1.7.576.275.412.3.883.161 1.362h-2.973v2.802c-1.365.52-2.82.42-3.525-.988-.329-.657-.451-1.817-.45-3.162 0-.198.014-.435.018-.64.532-.003 1.062.036 1.58.025.655-.014 1.29-.03 1.88-.031z" fill="currentColor" color="#565656"/></svg>