<svg xmlns="http://www.w3.org/2000/svg" width="16" height="16"><defs><style id="current-color-scheme" type="text/css"></style></defs><path d="M2 2v12h12v-1H3V2H2zm2 0v1h1v3h1V2H4zm4.5 0C7.669 2 7 2.669 7 3.5v1C7 5.331 7.669 6 8.5 6S10 5.331 10 4.5v-1C10 2.669 9.331 2 8.5 2zm4 0c-.831 0-1.5.669-1.5 1.5v1c0 .831.669 1.5 1.5 1.5S14 5.331 14 4.5v-1c0-.831-.669-1.5-1.5-1.5zm-4 1c.277 0 .5.223.5.5v1a.499.499 0 1 1-1 0v-1c0-.277.223-.5.5-.5zm4 0c.277 0 .5.223.5.5v1a.499.499 0 1 1-1 0v-1c0-.277.223-.5.5-.5zM8.59 7l3.535 3.535.002-.002.002.002 1.875-1.873V7.246l-1.877 1.877L10.004 7H8.59zM5.6 9l-2 2h-.592v1h.998v-.008l.008.008 2-2h1.591l2 2h4.403v-1H10.02l-2-2H5.6z" fill="currentColor" color="#565656"/></svg>