<svg xmlns="http://www.w3.org/2000/svg" width="16" height="16"><defs><style id="current-color-scheme" type="text/css"></style></defs><path d="M8 2C4.676 2 2 4.676 2 8s2.676 6 6 6 6-2.676 6-6c0-.882-.192-1.716-.531-2.469l-.781.782c.19.529.312 1.09.312 1.687 0 2.77-2.23 5-5 5s-5-2.23-5-5 2.23-5 5-5a4.97 4.97 0 0 1 3.99 2.01l.723-.723A5.978 5.978 0 0 0 8 2zm0 2a3.986 3.986 0 0 0-2.83 1.17l.707.707A2.99 2.99 0 0 1 8 5c1.662 0 3 1.338 3 3s-1.338 3-3 3-3-1.338-3-3c0-.302.057-.587.139-.861l-.782-.782A3.99 3.99 0 0 0 8 12c2.216 0 4-1.784 4-4s-1.784-4-4-4zm0 2a2 2 0 0 0-2 2 2 2 0 0 0 2 2 2 2 0 0 0 1.936-1.5H8.863A1 1 0 0 1 8 9a1 1 0 0 1-1-1 1 1 0 0 1 1-1 1 1 0 0 1 .865.5h1.069A2 2 0 0 0 8 6z" fill="currentColor" color="#565656"/></svg>