<svg xmlns="http://www.w3.org/2000/svg" width="16" height="16"><defs><style id="current-color-scheme" type="text/css"></style></defs><path d="M8 0c-.486 1.702-1.663 3.172-2.188 4.344-.183.348-.312.733-.312 1.156C5.5 6.885 6.615 8 8 8s2.5-1.115 2.5-2.5c0-.423-.098-.808-.281-1.156C9.694 3.172 8.487 1.703 8 0zM3.5 8c-.486 1.703-1.663 3.172-2.188 4.344C1.13 12.692 1 13.077 1 13.5 1 14.885 2.115 16 3.5 16S6 14.885 6 13.5c0-.423-.098-.808-.281-1.156C5.194 11.172 3.986 9.703 3.5 8zm9 0c-.486 1.703-1.663 3.172-2.188 4.344-.183.348-.312.733-.312 1.156 0 1.385 1.115 2.5 2.5 2.5s2.5-1.115 2.5-2.5c0-.423-.098-.808-.281-1.156C14.194 11.172 12.987 9.703 12.5 8z" fill="currentColor" color="#565656"/></svg>