<svg xmlns="http://www.w3.org/2000/svg" width="16" height="16"><defs><style id="current-color-scheme" type="text/css"></style></defs><path d="M7 1v1.086a6 6 0 0 0-2.47 1.03l-.772-.772-1.414 1.414.77.77A6 6 0 0 0 2.09 7H1v2h1.086a6 6 0 0 0 1.03 2.47l-.772.772 1.414 1.414.77-.77A6 6 0 0 0 7 13.91V15h2v-1.086a6 6 0 0 0 2.47-1.03l.772.772 1.414-1.414-.77-.77A6 6 0 0 0 13.91 9H15V7h-1.086a6 6 0 0 0-1.03-2.47l.772-.772-1.414-1.414-.77.77A6 6 0 0 0 9 2.09V1zm0 3h2v5h2l-3 3-3-3h2z" fill="currentColor" color="#5294e2"/></svg>