<svg xmlns="http://www.w3.org/2000/svg" width="16" height="16"><defs><style id="current-color-scheme" type="text/css"></style></defs><path d="M11 0v1.746c-.35-.017-.712-.045-1.037-.037-1.05.027-1.97.185-2.781.457a6.611 6.611 0 0 0-3.56 2.793C2.511 6.713 2.125 8.892 1.991 11H0v5h5v-2.053c4.258-.468 6.91-2.804 8.281-5.265A10.068 10.068 0 0 0 14.496 5H16V0h-5zM9.992 2.709c.313-.008.665.017 1.008.035V5h2.492a9.235 9.235 0 0 1-1.084 3.193c-1.23 2.207-3.53 4.28-7.408 4.723V11H3.02c.133-2.002.495-4.002 1.447-5.508C5.145 4.42 6.09 3.59 7.5 3.115c.704-.236 1.528-.381 2.492-.406z" fill="currentColor" color="#565656"/></svg>