<svg xmlns="http://www.w3.org/2000/svg" width="16" height="16"><defs><style id="current-color-scheme" type="text/css"></style></defs><path d="M1.006 1.494l.014.006a.5.5 0 0 0-.083.996s3.687.515 6.3 2.178c1.306.831 2.307 1.91 2.556 3.32.249 1.411-.232 3.261-2.18 5.695a.5.5 0 0 0 .381.811c3.62 0 5.57-1.335 6.535-2.713.96-1.38.96-2.79.96-2.79a.5.5 0 1 0-1 0s0 1.09-.786 2.212c-.685.98-2.18 1.862-4.74 2.104 1.431-2.106 2.068-3.972 1.799-5.499-.314-1.776-1.56-3.071-3.004-3.99C4.87 1.987 1.055 1.5 1.055 1.5a.5.5 0 0 0-.05-.006z" fill="currentColor" color="#565656"/></svg>