<svg xmlns="http://www.w3.org/2000/svg" width="16" height="16"><defs><style id="current-color-scheme" type="text/css"></style></defs><path d="M1.02 1.5a.5.5 0 0 0-.051.002.5.5 0 0 0-.033.996s2.662.377 5.066 1.51v1.994h2.807c.496.578.849 1.237.982 1.992.249 1.411-.232 3.261-2.18 5.695a.5.5 0 0 0 .391.813c3.619 0 5.57-1.335 6.535-2.713.965-1.378.965-2.787.965-2.787a.5.5 0 1 0-1 0s0 1.091-.785 2.213c-.686.979-2.181 1.862-4.74 2.103 1.431-2.105 2.068-3.969 1.798-5.496-.218-1.238-.896-2.24-1.773-3.047V3.002H6.203C3.67 1.851 1.068 1.506 1.068 1.506A.5.5 0 0 0 1.02 1.5z" fill="currentColor" color="#565656"/></svg>