<svg width="16.011" height="16" version="1.1" xmlns="http://www.w3.org/2000/svg">
 <path d="m8 1.0039c-2.0508 0-4.0977 0.78125-5.6562 2.3398-3.1172 3.1172-3.1172 8.1953 0 11.312 0.39062 0.39062 1.0234 0.39062 1.4141 0 0.39063-0.39062 0.39063-1.0234 0-1.4141-2.3516-2.3516-2.3516-6.1328 0-8.4844 2.3516-2.3516 6.1328-2.3516 8.4844 0 2.3516 2.3516 2.3516 6.1328 0 8.4844-0.39063 0.39062-0.39063 1.0234 0 1.4141 0.39062 0.39062 1.0234 0.39062 1.4141 0 3.1172-3.1172 3.1172-8.1953 0-11.312-1.5586-1.5586-3.6055-2.3398-5.6562-2.3398zm-1 2.9961v3.2734c-0.61719 0.35547-0.99609 1.0156-1 1.7266 0 1.1055 0.89453 2 2 2s2-0.89453 2-2c0-0.71484-0.38281-1.375-1-1.7305v-3.2695l-1-1z" fill="#565656"/>
 <path d="m12 9c-0.0039 1.0586-0.42969 2.0742-1.1797 2.8203l2.1289 2.1289c1.3125-1.3125 2.0508-3.0938 2.0508-4.9492z" fill="#565656" fill-opacity=".34902"/>
</svg>
