<svg xmlns="http://www.w3.org/2000/svg" width="16" height="16"><defs><style id="current-color-scheme" type="text/css"></style></defs><path d="M8 0a8 8 0 0 0-8 8 8 8 0 0 0 8 8 8 8 0 0 0 8-8 8 8 0 0 0-8-8zm1.545 1.91c0 5.727 4.39 6.554 3.271 9.817C12.178 13.587 10.62 15 7.908 15h-.025c1.342-.007 2.116-.71 2.433-1.635.56-1.631-1.636-2.046-1.636-4.91-2.046.818-3.272 2.736-3.272 4.092a2.45 2.45 0 0 0 1.92 2.39C4.895 14.648 3 12.604 3 10.093 3 7.38 5.454 3.546 9.545 1.91z" fill="currentColor" color="#565656"/></svg>