<svg height="16" width="16" xmlns="http://www.w3.org/2000/svg">
  <defs>
   <style id="current-color-scheme" type="text/css">.ColorScheme-Text { color:#565656; } .ColorScheme-Highlight { color:#5294e2; }</style>
  </defs><g class="ColorScheme-Text" fill="currentColor"><path d="M457.24 204.726a6.006 6.006 0 0 0-6.54-1.301 6.005 6.005 0 0 0-3.702 5.543 6.005 6.005 0 0 0 3.703 5.543 6.006 6.006 0 0 0 6.539-1.301l-1.414-1.414a3.994 3.994 0 0 1-4.36.867 3.995 3.995 0 0 1-2.47-3.695c0-1.621.973-3.075 2.47-3.696a3.994 3.994 0 0 1 4.36.868l1.414-1.414z" transform="translate(-445 -200.969)"/></g></svg>
