<svg width="16" height="16" version="1.1" xmlns="http://www.w3.org/2000/svg">
 <defs>
  <style id="current-color-scheme" type="text/css">.ColorScheme-Text { color:#565656; } .ColorScheme-Highlight { color:#5294e2; }</style>
 </defs>
 <path class="ColorScheme-Text" d="m7 0v7.0039h2v-7.0039zm5.2422 2.3438-1.4141 1.4141 0.70703 0.70703c0.938 0.9378 1.4646 2.2088 1.4648 3.5352 0 2.7733-2.2267 5-5 5-2.7719 0-4.9979-2.2247-5-4.9961v-0.0039c0.00554-1.3233 0.53455-2.5899 1.4727-3.5234l0.70898-0.70508-1.4102-1.418-0.70898 0.70508c-1.3139 1.3076-2.0562 3.0838-2.0625 4.9375a1.0001 1.0001 0 0 0 0 0.00391c0 3.8541 3.1459 7 7 7 3.8541 0 7-3.1459 7-7-2.8e-4 -1.856-0.73822-3.637-2.0508-4.9492z" fill="currentColor"/>
</svg>
