<svg xmlns="http://www.w3.org/2000/svg" width="16" height="16"><defs><style id="current-color-scheme" type="text/css"></style></defs><path d="M6 .04v1.132c-.977.142-1.81.397-2.463.799-1.01.615-1.516 1.558-1.516 2.83C2.017 6.996 3.58 7.719 6 8.385v4.992c-1.173-.099-2.245-.32-3.377-.805L2 13.93c.564.3 1.327.562 2.29.785.543.122 1.11.2 1.71.254v1.07h3v-1.117c1.997-.285 3.98-1.204 3.959-3.69-.07-1.828-1.203-2.507-3.959-3.476V2.803c.903.12 2.002.372 3.225.982L13 2.242c-.551-.295-1.831-.766-2.646-.941A11.717 11.717 0 0 0 9 1.1V.04H6zm0 2.759v3.998c-1.227-.435-2.357-1.093-2.324-2.192C3.616 3.565 4.68 3.015 6 2.8zM9 9.25c1.281.449 2.32 1.035 2.297 2.064-.04 1.396-1.132 1.883-2.297 2.05V9.25z" fill="currentColor" color="#565656"/></svg>