<svg xmlns="http://www.w3.org/2000/svg" width="16" height="16"><defs><style id="current-color-scheme" type="text/css"></style></defs><path d="M1 1v5h2.5A1.5 1.5 0 0 0 5 4.5c0-.533-.268-1.015-.688-1.281.116-.213.188-.46.188-.719A1.5 1.5 0 0 0 3 1H1zm10 0v5h2.5A1.5 1.5 0 0 0 15 4.5v-2A1.5 1.5 0 0 0 13.5 1H11zM2 2h1a.5.5 0 0 1 0 1H2V2zm10 0h1.5a.5.5 0 0 1 .5.5v2a.5.5 0 0 1-.5.5H12V2zM6 3v1h3V3H6zM2 4h1.5a.5.5 0 0 1 0 1H2V4zM1 8v2h4V8H1zm6 0v2h2V8H7zm4 0v2h4V8h-4zm-5 4l-4 1.5L6 15v-3zm4 0v3l4-1.5-4-1.5zm-2 1a.5.5 0 1 0 0 1 .5.5 0 0 0 0-1z" fill="currentColor" color="#565656"/></svg>