<svg xmlns="http://www.w3.org/2000/svg" width="16" height="16"><defs><style id="current-color-scheme" type="text/css"></style></defs><path d="M9 1c-1.718 0-3.268.744-4.365 1.916-.026.024-.055.046-.08.07a6.5 6.5 0 0 1 .025-.01c-.096.106-.195.209-.283.32a6.11 6.11 0 0 1 .695-.464A6.5 6.5 0 0 1 7 2.504a6.5 6.5 0 0 1 6.5 6.5 6.5 6.5 0 0 1-.314 1.976 6.107 6.107 0 0 1-.483.723c.114-.09.219-.19.326-.289a6.5 6.5 0 0 1-.011.033c.032-.033.06-.07.091-.103A5.973 5.973 0 0 0 15 7c0-3.293-2.707-6-6-6zM7 3C3.707 3 1 5.707 1 9s2.707 6 6 6 6-2.707 6-6-2.707-6-6-6zm0 4c1.098 0 2 .902 2 2 0 1.098-.902 2-2 2-1.098 0-2-.902-2-2 0-1.098.902-2 2-2z" fill="currentColor" color="#565656"/></svg>