<svg xmlns="http://www.w3.org/2000/svg" width="16" height="16"><defs><style id="current-color-scheme" type="text/css"></style></defs><path d="M2.059 3.002l2.144 1.63L2 6.31v.033l2.18 1.66h.047l2.18-1.66-2.204-1.676 2.192-1.664H2.059zm4.406 0l2.146 1.63 2.143-1.63h-4.29zm4.453 0L13 4.586V3.002h-2.082zM8.656 4.666L6.453 6.342l2.18 1.66 2.203-1.676-2.18-1.66zm2.18 1.66L13 7.971V4.68l-2.164 1.646zm.172 2.688v1.994H9.006v.996h2.002V14l3.004-2.494-3.004-2.492zM4 10.992v1.03h1v-1.03H4zm2.018 0v1.03h1.97v-1.03h-1.97z" fill="currentColor" color="#565656"/></svg>