<svg xmlns="http://www.w3.org/2000/svg" width="16" height="16"><defs><style id="current-color-scheme" type="text/css"></style></defs><path d="M10.03 1c-.148.003-.3.017-.46.04-.567.078-1.251.352-2.015.759-1.54-.853-2.741-.905-3.748-.645-1.07.277-1.938.73-3.291.69L0 1.828V16h11.787A2.973 2.973 0 0 1 11 14c0-1.184.708-2.21 1.715-2.695-.487-.137-.98-.286-1.526-.422-.979-.245-2.09-.187-3.189.484V2.67c.703-.386 1.245-.598 1.68-.662.239-.035.452-.032.658-.006.206.026.405.077.611.139.535.16 1.194.412 2.051.56v8.486A2.925 2.925 0 0 1 14 11c.352 0 .685.073 1 .188V1.845l-.518.017c-1.516.055-2.27-.398-3.25-.691A3.859 3.859 0 0 0 10.03 1zm-4.811.994c.499.039 1.063.22 1.781.615v8.727c-1.104-.642-2.21-.69-3.184-.447-.653.162-1.247.349-1.816.5V2.664c.802-.148 1.474-.381 2.055-.531.23-.06.454-.109.683-.133.155-.016.314-.019.48-.006zM14 12a2 2 0 0 0-2 2 2 2 0 0 0 2 2 2 2 0 0 0 2-2 2 2 0 0 0-2-2z" fill="currentColor" color="#565656"/></svg>