<svg xmlns="http://www.w3.org/2000/svg" width="16" height="16"><defs><style id="current-color-scheme" type="text/css"></style></defs><path d="M7 1L0 8h2v7h8.377A3.568 3.568 0 0 1 10 13.428c0-1.398.824-2.587 2-3.16V8h2L7 1zm0 5a2 2 0 0 1 0 4c3-.002 3 2.4 3 2.4v.6H4v-.6s0-2.398 3-2.4a2 2 0 0 1 0-4zm6.5 4v.857c-1.38 0-2.5 1.15-2.5 2.57S12.12 16 13.5 16c1.367 0 2.476-1.13 2.498-2.53a.417.429 0 0 0 .002-.042.417.429 0 0 0-.416-.428.417.429 0 0 0-.418.428c0 .947-.746 1.715-1.666 1.715-.92 0-1.666-.769-1.666-1.715 0-.947.746-1.713 1.666-1.713v.857l1.666-1.287L13.5 10z" fill="currentColor" color="#565656"/></svg>