<svg xmlns="http://www.w3.org/2000/svg" width="16" height="16"><defs><style id="current-color-scheme" type="text/css"></style></defs><path d="M0 1v13.996c3 0 6 0 9 .002v-6h6V9h1V1.004C10.667 1.006 5.333.998 0 1zm9 2h6v1H9V3zM3.5 4C4.331 4 5 4.667 5 5.498v1.5h1v3H1v-3h1v-1.5C2 4.668 2.669 4 3.5 4zm0 .998c-.277 0-.5.223-.5.5v1.5h1v-1.5c0-.277-.223-.5-.5-.5zm5.5 1h6v1H9v-1zM12 10v.586l-.414-.414-1.414 1.414.414.414H10v2h.586l-.414.414 1.414 1.414.414-.414V16h2v-.586l.414.414 1.414-1.414-.414-.414H16v-2h-.586l.414-.414-1.414-1.414-.414.414V10h-2zm1 2a1 1 0 0 1 1 1 1 1 0 0 1-1 1 1 1 0 0 1-1-1 1 1 0 0 1 1-1z" fill="currentColor" color="#565656"/></svg>