<svg width="16" height="16" version="1.1" viewBox="0 0 16 16" xmlns="http://www.w3.org/2000/svg">
 <defs>
  <style id="current-color-scheme" type="text/css">.ColorScheme-Text { color:#565656; } .ColorScheme-Highlight { color:#5294e2; }</style>
 </defs>
 <path class="ColorScheme-Text" d="m0 3v2h2v-2h-2zm3 0v2h4v-2h-4zm6 0v2h2v-2h-2zm3 0v2h4v-2h-4zm-12 4v2h2v-2h-2zm3 0v2h4v-2h-4zm6 0v2h2v-2h-2zm3 0v2h4v-2h-4zm-12 4v2h2v-2h-2zm3 0v2h4v-2h-4zm6 0v2h2v-2h-2zm3 0v2h4v-2h-4z" fill="currentColor"/>
</svg>
