<svg xmlns="http://www.w3.org/2000/svg" width="16" height="16"><defs><style id="current-color-scheme" type="text/css"></style></defs><path d="M2 1s-.076.004-.182.023a.9.9 0 0 0-.472.204.86.86 0 0 0-.065.054.884.884 0 0 0-.054.065.9.9 0 0 0-.204.472C1.004 1.924 1 2 1 2v12c0 1 1 1 1 1h12s1 0 1-1V2s-.004-.076-.023-.182a.904.904 0 0 0-.204-.472c-.016-.022-.035-.044-.054-.065a.88.88 0 0 0-.065-.054.9.9 0 0 0-.472-.204C14.076 1.004 14 1 14 1H2zm1 3h3v6H3V4zm4 1h2v1H7V5zm4 0v3h2l-3 4V9l-2 .082L11 5z" fill="currentColor" color="#565656"/></svg>