<svg xmlns="http://www.w3.org/2000/svg" width="16" height="16"><defs><style id="current-color-scheme" type="text/css"></style></defs><path d="M2 1s-.076.004-.182.023a.9.9 0 0 0-.472.204.845.845 0 0 0-.065.054.884.884 0 0 0-.054.065.9.9 0 0 0-.204.472c-.02.106-.02.182-.02.182v12c0 1 1 1 1 1h12s1 0 1-1V2s-.003-.076-.023-.182a.9.9 0 0 0-.203-.472.86.86 0 0 0-.054-.065.93.93 0 0 0-.065-.054.9.9 0 0 0-.472-.204c-.1-.019-.18-.023-.18-.023H2zm2 4h3v6H4V5zm4 1h4v1H8V6zm0 3h4v1H8V9z" fill="currentColor" color="#565656"/></svg>