<svg xmlns="http://www.w3.org/2000/svg" width="16" height="16"><defs><style id="current-color-scheme" type="text/css"></style></defs><path d="M8 3.004c-1.55.015-3.112.37-4.463 1.135-.538.35-1.185.803-1.672 1.26C1.1 6.148.443 7.023 0 8.003c1.215 2.68 3.886 4.643 6.824 4.934 1.928.218 3.945-.115 5.639-1.069.538-.35 1.185-.803 1.672-1.26.766-.75 1.422-1.626 1.865-2.605-1.215-2.68-3.886-4.644-6.824-4.934-.39-.045-.783-.066-1.176-.066zm0 1.998v.002c1.607-.036 3.03 1.402 3 3 .052 1.766-1.709 3.29-3.45 2.96-1.757-.205-2.991-2.179-2.413-3.849C5.506 5.885 6.713 4.987 8 5.002zm0 2.002a1 1 0 0 0-1 1 1 1 0 0 0 1 1 1 1 0 0 0 1-1 1 1 0 0 0-1-1z" fill="currentColor" color="#565656"/></svg>