<svg xmlns="http://www.w3.org/2000/svg" width="16" height="16"><defs><style id="current-color-scheme" type="text/css"></style></defs><path d="M7.5 0v1.813h1V0h-1zM2.687 1.969l-.718.718L3.25 4l.719-.75-1.281-1.281zm10.624 0L12.03 3.25l.719.75 1.281-1.313-.72-.718zM8 3a5 5 0 1 0 0 10A5 5 0 0 0 8 3zm0 2a3 3 0 0 1 3 3 3 3 0 0 1-3 3 3 3 0 0 1-3-3 3 3 0 0 1 3-3zM0 7.5v1h1.813v-1H0zm14.188 0v1H16v-1h-1.813zM3.25 12.031l-1.281 1.281.718.72L3.97 12.75l-.719-.719zm9.5 0l-.719.719 1.28 1.281.72-.719-1.281-1.28zM7.5 14.187V16h1v-1.813h-1z" fill="currentColor" color="#565656"/></svg>