<svg xmlns="http://www.w3.org/2000/svg" width="16" height="16"><defs><style id="current-color-scheme" type="text/css"></style></defs><path d="M2 1s-.076.004-.182.023a.9.9 0 0 0-.472.204.86.86 0 0 0-.065.054.86.86 0 0 0-.054.065.9.9 0 0 0-.204.472C1.004 1.924 1 2 1 2v12c0 1 1 1 1 1h6v-2H3V6h10v2h2V2s-.004-.076-.023-.182a.904.904 0 0 0-.204-.472 1.065 1.065 0 0 0-.054-.065.88.88 0 0 0-.065-.054.9.9 0 0 0-.472-.204C14.076 1.004 14 1 14 1H2zm7.5 8s-.037.002-.09.012a.45.45 0 0 0-.236.101.446.446 0 0 0-.033.028.45.45 0 0 0-.129.27A.71.71 0 0 0 9 9.5v6c0 .5.5.5.5.5h6s.5 0 .5-.5v-6s-.002-.037-.012-.09a.448.448 0 0 0-.101-.236.332.332 0 0 0-.028-.033.45.45 0 0 0-.27-.129C15.538 9.002 15.5 9 15.5 9h-6zm.5 3h5v3h-5v-3z" fill="currentColor" color="#565656"/></svg>