<svg xmlns="http://www.w3.org/2000/svg" width="16" height="16"><defs><style id="current-color-scheme" type="text/css"></style></defs><path d="M7.994 2C6.124 2 4.6 3.534 4.544 5.451a.605.605 0 0 0-.134.053c-.43.227-.54.936-.246 1.592.237.527.658.854 1.04.843C5.49 9.692 6.633 11 7.993 11h.012c1.36 0 2.504-1.308 2.79-3.06.382.01.801-.317 1.038-.844.294-.656.186-1.365-.244-1.592a.605.605 0 0 0-.135-.053C11.4 3.534 9.875 2 8.005 2h-.01zm2.4 9c-.288.7-1.273 1.227-2.449 1.227-1.17 0-2.145-.52-2.44-1.215-2.468.258-4.267.89-4.484 1.636-.003.008.002.017 0 .024-.007.027-.008.05-.011.078-.001.012-.01.02-.01.033v1.86c0 .197.156.357.35.357h13.3c.194 0 .35-.16.35-.357v-1.85-.022c-.002-.043-.02-.08-.033-.123-.221-.756-2.058-1.396-4.572-1.648z" fill="currentColor" color="#565656"/></svg>