<?xml version="1.0" encoding="UTF-8" standalone="no"?>
<svg
   xmlns:dc="http://purl.org/dc/elements/1.1/"
   xmlns:cc="http://creativecommons.org/ns#"
   xmlns:rdf="http://www.w3.org/1999/02/22-rdf-syntax-ns#"
   xmlns:svg="http://www.w3.org/2000/svg"
   xmlns="http://www.w3.org/2000/svg"
   xmlns:sodipodi="http://sodipodi.sourceforge.net/DTD/sodipodi-0.dtd"
   xmlns:inkscape="http://www.inkscape.org/namespaces/inkscape"
   width="22"
   height="22"
   version="1.1"
   viewBox="0 0 22 22"
   id="svg14"
   sodipodi:docname="emblem-encrypted-locked.svg"
   inkscape:version="0.92.2 2405546, 2018-03-11">
  <metadata
     id="metadata20">
    <rdf:RDF>
      <cc:Work
         rdf:about="">
        <dc:format>image/svg+xml</dc:format>
        <dc:type
           rdf:resource="http://purl.org/dc/dcmitype/StillImage" />
      </cc:Work>
    </rdf:RDF>
  </metadata>
  <defs
     id="defs18" />
  <sodipodi:namedview
     pagecolor="#ffffff"
     bordercolor="#666666"
     borderopacity="1"
     objecttolerance="10"
     gridtolerance="10"
     guidetolerance="10"
     inkscape:pageopacity="0"
     inkscape:pageshadow="2"
     inkscape:window-width="1920"
     inkscape:window-height="1024"
     id="namedview16"
     showgrid="false"
     inkscape:zoom="21.454545"
     inkscape:cx="10.045756"
     inkscape:cy="5.3414696"
     inkscape:window-x="0"
     inkscape:window-y="28"
     inkscape:window-maximized="1"
     inkscape:current-layer="svg14" />
  <g
     id="g833"
     transform="matrix(0.8,0,0,0.8,2.2,2.2)">
    <g
       id="g12"
       transform="matrix(0.5,0,0,0.5,-1,-1)">
      <circle
         id="circle2"
         r="20"
         cy="24"
         cx="24"
         style="fill:#ff7f2a" />
      <g
         id="g10">
        <path
           id="path4"
           d="m 18,16 a 8,8 0 0 0 -8,8 8,8 0 0 0 8,8 8,8 0 0 0 8,-8 8,8 0 0 0 -8,-8 z m 0,4 a 4,4 0 0 1 4,4 4,4 0 0 1 -4,4 4,4 0 0 1 -4,-4 4,4 0 0 1 4,-4 z"
           style="fill:#ffffff"
           inkscape:connector-curvature="0" />
        <rect
           id="rect6"
           y="22"
           x="22"
           height="4"
           width="16"
           style="fill:#ffffff" />
        <rect
           id="rect8"
           y="26"
           x="31"
           height="4"
           width="4"
           style="fill:#ffffff" />
      </g>
    </g>
  </g>
</svg>
