<?xml version="1.0" encoding="UTF-8" standalone="no"?>
<!-- Created with Inkscape (http://www.inkscape.org/) -->

<svg
   xmlns:dc="http://purl.org/dc/elements/1.1/"
   xmlns:cc="http://creativecommons.org/ns#"
   xmlns:rdf="http://www.w3.org/1999/02/22-rdf-syntax-ns#"
   xmlns:svg="http://www.w3.org/2000/svg"
   xmlns="http://www.w3.org/2000/svg"
   xmlns:sodipodi="http://sodipodi.sourceforge.net/DTD/sodipodi-0.dtd"
   xmlns:inkscape="http://www.inkscape.org/namespaces/inkscape"
   width="22"
   height="22"
   viewBox="0 0 5.8208332 5.8208332"
   version="1.1"
   id="svg4572"
   inkscape:version="0.92.2 2405546, 2018-03-11"
   sodipodi:docname="emblem-shared.svg">
  <title
     id="title4611">Canvas icon theme</title>
  <defs
     id="defs4566" />
  <sodipodi:namedview
     id="base"
     pagecolor="#ffffff"
     bordercolor="#666666"
     borderopacity="1.0"
     inkscape:pageopacity="0.0"
     inkscape:pageshadow="2"
     inkscape:zoom="22.4"
     inkscape:cx="-11.592247"
     inkscape:cy="10.789208"
     inkscape:document-units="px"
     inkscape:current-layer="layer1"
     showgrid="true"
     units="px"
     width="64px"
     showguides="true"
     inkscape:guide-bbox="true"
     inkscape:window-width="695"
     inkscape:window-height="462"
     inkscape:window-x="976"
     inkscape:window-y="794"
     inkscape:window-maximized="0"
     inkscape:snap-bbox="true"
     inkscape:bbox-nodes="true"
     inkscape:snap-bbox-edge-midpoints="true">
    <inkscape:grid
       type="xygrid"
       id="grid4582" />
  </sodipodi:namedview>
  <metadata
     id="metadata4569">
    <rdf:RDF>
      <cc:Work
         rdf:about="">
        <dc:format>image/svg+xml</dc:format>
        <dc:type
           rdf:resource="http://purl.org/dc/dcmitype/StillImage" />
        <dc:title>Canvas icon theme</dc:title>
        <cc:license
           rdf:resource="http://creativecommons.org/licenses/by-nc-sa/4.0/" />
        <dc:creator>
          <cc:Agent>
            <dc:title>Vince Liuice</dc:title>
          </cc:Agent>
        </dc:creator>
      </cc:Work>
      <cc:License
         rdf:about="http://creativecommons.org/licenses/by-nc-sa/4.0/">
        <cc:permits
           rdf:resource="http://creativecommons.org/ns#Reproduction" />
        <cc:permits
           rdf:resource="http://creativecommons.org/ns#Distribution" />
        <cc:requires
           rdf:resource="http://creativecommons.org/ns#Notice" />
        <cc:requires
           rdf:resource="http://creativecommons.org/ns#Attribution" />
        <cc:prohibits
           rdf:resource="http://creativecommons.org/ns#CommercialUse" />
        <cc:permits
           rdf:resource="http://creativecommons.org/ns#DerivativeWorks" />
        <cc:requires
           rdf:resource="http://creativecommons.org/ns#ShareAlike" />
      </cc:License>
    </rdf:RDF>
  </metadata>
  <g
     inkscape:label="Layer 1"
     inkscape:groupmode="layer"
     id="layer1"
     transform="translate(0,-291.17917)">
    <g
       id="g838"
       transform="translate(0.52916693,0.26457225)">
      <rect
         transform="matrix(0,-1,-1,0,0,0)"
         style="display:inline;fill:#673ab7;fill-opacity:1;stroke:none;stroke-width:0.26458332;enable-background:new"
         id="rect4414"
         width="4.2333331"
         height="4.2333331"
         x="-295.94168"
         y="-4.4979162"
         rx="2.1166666"
         ry="2.1166666" />
      <g
         id="g4893"
         inkscape:label="apps"
         style="display:inline;fill:#ffffff;enable-background:new"
         transform="matrix(0.13229166,0,0,0.13229166,-81.359376,222.91667)">
        <path
           inkscape:connector-curvature="0"
           d="m 636.00002,527.99996 c -1.65685,0 -3,1.34315 -3,3 0,0.23127 0.0442,0.44001 0.0937,0.65625 l -3.21875,2 c -0.51341,-0.41127 -1.16591,-0.65625 -1.87495,-0.65625 -1.65685,0 -3,1.34315 -3,3 0,1.65685 1.34315,3 3,3 0.70904,0 1.36154,-0.24498 1.875,-0.65625 l 3.21875,2 c -0.0495,0.21624 -0.0937,0.42498 -0.0937,0.65625 0,1.65685 1.34315,3 3,3 1.65685,0 3,-1.34315 3,-3 0,-1.65685 -1.34315,-3 -3,-3 -0.70904,0 -1.36154,0.24498 -1.875,0.65625 l -3.21875,-2 c 0.0495,-0.21624 0.0937,-0.42498 0.0937,-0.65625 0,-0.23127 -0.0442,-0.44001 -0.0937,-0.65625 l 3.21875,-2 c 0.51341,0.41127 1.16591,0.65625 1.87495,0.65625 1.65685,0 3,-1.34315 3,-3 0,-1.65685 -1.34315,-3 -3,-3 z"
           id="path4895"
           style="fill:#ffffff;fill-opacity:1;stroke:none" />
      </g>
    </g>
  </g>
</svg>
