<svg xmlns="http://www.w3.org/2000/svg" width="24" height="24"><defs><style id="current-color-scheme" type="text/css"></style></defs><path d="M.963-.004a.5.5 0 0 0-.377.781c1.318 1.977 1.856 5.517 2.219 9.221H.998v1.992H.002v1h.996v2.006H3.25c.21 2.304.473 4.432 1.01 6.05.291.879.662 1.618 1.197 2.153a2.645 2.645 0 0 0 2.076.783c2.053-.136 3.451-1.39 4.336-3.068.885-1.678 1.337-3.797 1.684-5.906v-.012h1.44V12.99h3v2.006h2.445c.228 1.508.453 3.022.746 4.389.413 1.928.924 3.572 1.982 4.478a.5.5 0 0 0 .83-.363h.002a.5.5 0 0 0-.18-.396c-.69-.593-1.255-2.067-1.654-3.928-.273-1.274-.491-2.72-.713-4.18h1.541V12.99h1v-1h-1V9.998h-2.459c-.245-.951-.543-1.819-.928-2.547-.38-.72-.855-1.317-1.486-1.683-.63-.366-1.407-.467-2.244-.258-.659.164-1.156.645-1.514 1.25-.357.605-.605 1.354-.81 2.203-.08.327-.147.68-.215 1.035h-3.34v1.992h-4V9.998H3.832C3.495 6.239 2.97 2.549 1.418.223a.5.5 0 0 0-.455-.227zM16.56 6.404c.415-.035.748.051 1.054.229.408.236.778.67 1.104 1.285.297.562.544 1.281.763 2.08h-1.49v1.992h-3V9.998h-.638c.053-.271.106-.552.166-.8.192-.799.425-1.468.699-1.93.273-.463.556-.703.896-.788.16-.04.307-.064.446-.076zM5.994 12.99h4v2.006h2.543c-.338 2.022-.785 3.996-1.553 5.451-.786 1.492-1.824 2.424-3.52 2.537-.555.037-.935-.123-1.302-.49s-.694-.97-.957-1.762c-.478-1.44-.742-3.488-.951-5.736h1.74V12.99z" fill="currentColor" color="#565656"/></svg>