<svg xmlns="http://www.w3.org/2000/svg" width="24" height="24"><defs><style id="current-color-scheme" type="text/css"></style></defs><path d="M.492-.002V0A.5.5 0 0 0 .13.83c.906 1.058 2.55 1.57 4.478 1.982 1.367.293 2.88.518 4.39.747v2.445h2.005v3H8.996v1.44h-.012c-2.109.346-4.228.798-5.906 1.683S.147 14.41.01 16.463a2.645 2.645 0 0 0 .783 2.076c.535.535 1.275.906 2.152 1.197 1.62.538 3.747.8 6.051 1.01v2.252h2.006v.996h1v-.996h1.992v-1.807c3.704.363 7.245.901 9.22 2.22a.5.5 0 1 0 .556-.833c-2.327-1.551-6.017-2.077-9.776-2.414V18h-1.992v-4h1.992v-3.34c.355-.068.708-.136 1.035-.215.85-.205 1.599-.453 2.203-.81.605-.357 1.086-.855 1.25-1.514.21-.837.109-1.613-.257-2.244-.367-.631-.964-1.106-1.684-1.486-.728-.385-1.596-.683-2.547-.928v-2.46h-1.992v-1h-1v1H8.996v1.542c-1.46-.222-2.906-.44-4.18-.713C2.955 1.433 1.481.869.89.178a.5.5 0 0 0-.397-.18zm13.502 4.516c.799.219 1.518.466 2.08.763.616.326 1.049.696 1.285 1.104.237.408.312.862.153 1.5-.085.34-.325.623-.787.896-.463.274-1.132.507-1.93.7-.249.06-.53.112-.8.166v-.64h-1.993v-3h1.992v-1.49zm-4.998 6.945v2.543h2.006v4H8.996v1.74c-2.248-.209-4.296-.473-5.736-.951-.792-.263-1.395-.59-1.762-.957s-.527-.746-.49-1.303c.113-1.695 1.046-2.733 2.537-3.52C5 12.246 6.974 11.798 8.996 11.46z" fill="currentColor" color="#565656"/></svg>