<svg xmlns="http://www.w3.org/2000/svg" width="24" height="24"><defs><style id="current-color-scheme" type="text/css"></style></defs><path d="M10.25 5l-.154 1.844a5.5 5.5 0 0 0-1.608.93l-1.676-.79-1.75 3.032 1.522 1.056A5.5 5.5 0 0 0 6.5 12a5.5 5.5 0 0 0 .08.932l-1.518 1.052 1.75 3.032 1.672-.787a5.5 5.5 0 0 0 1.612.923l.15 1.85h3.5l.154-1.844a5.5 5.5 0 0 0 1.608-.93l1.676.79 1.75-3.032-1.522-1.056a5.5 5.5 0 0 0 .084-.928 5.5 5.5 0 0 0-.08-.932l1.518-1.052-1.75-3.032-1.672.787A5.5 5.5 0 0 0 13.9 6.85L13.75 5h-3.5zM12 10a2 2 0 0 1 2 2 2 2 0 0 1-2 2 2 2 0 0 1-2-2 2 2 0 0 1 2-2z" fill="currentColor" color="#565656"/></svg>