<svg xmlns="http://www.w3.org/2000/svg" width="24" height="24"><defs><style id="current-color-scheme" type="text/css"></style></defs><path d="M16.5 5a2.5 2.5 0 0 0-2.45 2H8.5C7.12 7 6 8.62 6 10s1.12 3 2.5 3h7c.828 0 1.5 1.172 1.5 2 0 .828-.672 2-1.5 2H9.945A2.5 2.5 0 0 0 7.5 15 2.5 2.5 0 0 0 5 17.5 2.5 2.5 0 0 0 7.5 20a2.5 2.5 0 0 0 2.45-2h5.55c1.381 0 2.5-1.619 2.5-3 0-1.38-1.119-3-2.5-3h-7C7.672 12 7 10.828 7 10c0-.828.672-2 1.5-2h5.555a2.5 2.5 0 0 0 2.445 2A2.5 2.5 0 0 0 19 7.5 2.5 2.5 0 0 0 16.5 5z" fill="currentColor" color="#565656"/></svg>