<svg xmlns="http://www.w3.org/2000/svg" width="24" height="24"><defs><style id="current-color-scheme" type="text/css"></style></defs><path d="M7.01 5c-2.249 0-2 2-2 2v12h13.992V9h-1.998v8H7.01V9h6.992V5H7.01zm7.992 0l2 3 2-3h-4zM13.59 9.994l-.012.006v.592c.71 0 .719.239.719 1.105.007.08.002.199.025.303.053.376.224.801.698 1.004-.6.256-.723.875-.723 1.29-.014.192-.017.59-.05.706-.064.29-.22.408-.669.408V16c.957 0 1.411-.288 1.494-1 .004-.108.023-.303.018-.477 0-.556.02-1.2.61-1.2h.304v-.645h-.305c-.403 0-.532-.31-.578-.678l-.031-.746c.01-.91-.44-1.26-1.5-1.26zM10.436 10c-1.066 0-1.514.352-1.514 1.254L8.89 12c-.047.369-.176.678-.579.678h-.304v.644h.305c.588 0 .609.644.609 1.201-.005.174.013.369.017.477.084.712.54 1 1.497 1v-.592c-.45 0-.607-.118-.67-.408-.034-.116-.038-.514-.051-.705 0-.416-.124-1.035-.723-1.291.473-.203.644-.628.697-1.004.024-.104.019-.222.026-.303 0-.866.01-1.105.72-1.105V10z" fill="currentColor" color="#565656"/></svg>