<svg xmlns="http://www.w3.org/2000/svg" width="24" height="24"><defs><style id="current-color-scheme" type="text/css"></style></defs><path d="M5 4.73v1h1v6h1v-7H5zm5 0a2 2 0 0 0-2 2v3a2 2 0 0 0 2 2 2 2 0 0 0 2-2 2 2 0 0 0-2-2A2 2 0 0 0 9 8V6.73a1 1 0 0 1 1-1 1 1 0 0 1 1 1h1a2 2 0 0 0-2-2zM12 5v1a7 7 0 0 1 6.309 4h-3.61v1h5V6h-1v2.656A8 8 0 0 0 12 5zm-2 3.73a1 1 0 0 1 1 1 1 1 0 0 1-1 1 1 1 0 0 1-1-1 1 1 0 0 1 1-1zM18 12a2 2 0 0 0-2 2 2 2 0 0 0 .68 1.5A2 2 0 0 0 16 17a2 2 0 0 0 2 2 2 2 0 0 0 2-2 2 2 0 0 0-.68-1.5A2 2 0 0 0 20 14a2 2 0 0 0-2-2zM5 13v5h1v-2.656A8 8 0 0 0 12.7 19v-1a7 7 0 0 1-6.31-4H10v-1H5zm13 0a1 1 0 0 1 1 1 1 1 0 0 1-1 1 1 1 0 0 1-1-1 1 1 0 0 1 1-1zm0 3a1 1 0 0 1 1 1 1 1 0 0 1-1 1 1 1 0 0 1-1-1 1 1 0 0 1 1-1z" fill="currentColor" color="#565656"/></svg>