<svg xmlns="http://www.w3.org/2000/svg" width="24" height="24"><defs><style id="current-color-scheme" type="text/css"></style></defs><path d="M8 5a2 2 0 0 0-2 2 2 2 0 0 0 .68 1.5A2 2 0 0 0 6 10a2 2 0 0 0 2 2 2 2 0 0 0 2-2 2 2 0 0 0-.68-1.5A2 2 0 0 0 10 7a2 2 0 0 0-2-2zm4 0v1a7 7 0 0 1 6.309 4h-3.61v1h5V6h-1v2.656A8 8 0 0 0 12 5zM8 6a1 1 0 0 1 1 1 1 1 0 0 1-1 1 1 1 0 0 1-1-1 1 1 0 0 1 1-1zm0 3a1 1 0 0 1 1 1 1 1 0 0 1-1 1 1 1 0 0 1-1-1 1 1 0 0 1 1-1zm5 3v1h1v6h1v-7h-2zm5 0a2 2 0 0 0-2 2v3a2 2 0 0 0 2 2 2 2 0 0 0 2-2 2 2 0 0 0-2-2 2 2 0 0 0-1 .27V14a1 1 0 0 1 1-1 1 1 0 0 1 1 1h1a2 2 0 0 0-2-2zM5 13v5h1v-2.656A8 8 0 0 0 12.7 19v-1a7 7 0 0 1-6.31-4H10v-1H5zm13 3a1 1 0 0 1 1 1 1 1 0 0 1-1 1 1 1 0 0 1-1-1 1 1 0 0 1 1-1z" fill="currentColor" color="#565656"/></svg>