<svg xmlns="http://www.w3.org/2000/svg" width="24" height="24"><defs><style id="current-color-scheme" type="text/css"></style></defs><path d="M3.004 0v10H1.006v1.994h-1v1h1V15h1.54c-.22 1.46-.44 2.906-.712 4.18-.399 1.862-.963 3.337-1.654 3.93a.5.5 0 0 0-.18.396.5.5 0 0 0 .83.363c1.058-.907 1.57-2.551 1.982-4.48.293-1.367.518-2.88.747-4.389h2.445v-2.006h3V15h1.44l.001.012c.347 2.11.8 4.227 1.684 5.906.885 1.679 2.283 2.933 4.336 3.07a2.646 2.646 0 0 0 2.076-.783c.535-.535.906-1.274 1.197-2.152.538-1.62.799-3.748 1.01-6.053H23v-2.006h.996v-1H23V10h-1.816c.103-1.11.218-2.206.375-3.252A.5.5 0 0 0 21 6.164V0h-1v10h-1.998v1.994h-4V10h-2V0h-1v10h-.34a22.828 22.828 0 0 0-.215-1.035c-.205-.85-.453-1.598-.81-2.203-.357-.605-.855-1.085-1.514-1.25-.837-.21-1.613-.109-2.244.258-.631.366-1.106.963-1.486 1.683a8.916 8.916 0 0 0-.39.893V0h-1zm1 2.5l2 1.531V3h3v1l1.998-1.5L9.004 1v1h-3v-.969l-2 1.469zm7.998 0l2 1.531V3h4v1L20 2.5 18.002 1v1h-4v-.969l-2 1.469zM7.436 6.406c.138.012.285.037.445.076.34.085.623.325.896.788.274.462.507 1.131.7 1.93.06.248.112.528.166.8h-.64v1.994h-3V10H4.517c.218-.8.465-1.518.761-2.08.326-.616.696-1.049 1.104-1.285a1.72 1.72 0 0 1 1.055-.229zm6.566 6.588h4V15h1.74c-.209 2.249-.473 4.297-.951 5.738-.263.792-.59 1.393-.957 1.76s-.746.53-1.303.492c-1.695-.113-2.733-1.045-3.52-2.537-.766-1.455-1.214-3.43-1.552-5.453h2.543v-2.006z" fill="currentColor" color="#565656"/></svg>