<svg xmlns="http://www.w3.org/2000/svg" width="24" height="24"><defs><style id="current-color-scheme" type="text/css"></style></defs><path d="M9.99 5.02l.01 6H7.658l3.34 4.86v-1.985c0-1.011.901-1.844 1.875-1.844h2.783l.717-1.031h-2.375l-.01-6H9.99zm2.89 8.03c-.492 0-.874.356-.874.845v5.218c0 .488.382.844.875.844h6.25c.492 0 .875-.356.875-.844v-5.218c0-.489-.383-.844-.875-.844h-6.25zm1.126.97h3v1h-1v3h1v1h-3v-1h1v-3h-1v-1zM5 18.03V20h6.258a1.74 1.74 0 0 1-.256-.887v-1.082H5z" fill="currentColor" color="#565656"/></svg>