<svg xmlns="http://www.w3.org/2000/svg" width="24" height="24" version="1.1" id="svg7"><defs id="defs3"><style id="current-color-scheme" type="text/css"></style></defs><g id="g828" transform="translate(4 -4)" fill="#565656" fill-opacity="1"><path id="path2" d="M8 9a7 7 0 0 0-7 7 7 7 0 0 0 7 7 7 7 0 0 0 7-7 7 7 0 0 0-7-7zm0 2a5 5 0 0 1 5 5 5 5 0 0 1-5 5 5 5 0 0 1-5-5 5 5 0 0 1 5-5z"/><path id="path4" d="M10.49 12.996a.5.5 0 0 0-.344.15L8 15.293l-1.646-1.646a.5.5 0 1 0-.707.706l2 2a.5.5 0 0 0 .707 0l2.5-2.5a.5.5 0 0 0-.364-.857z"/></g></svg>