<svg xmlns="http://www.w3.org/2000/svg" width="24" height="24"><defs><style id="current-color-scheme" type="text/css"></style></defs><path d="M9.99 5.02l.01 6H7.658l3.34 4.86v-1.985c0-1.011.901-1.844 1.875-1.844h2.783l.717-1.031h-2.375l-.01-6H9.99zm2.883 8.03c-.492 0-.875.356-.875.845v5.218c0 .488.383.844.875.844h6.25c.492 0 .875-.356.875-.844v-5.218c0-.489-.383-.844-.875-.844h-6.25zM14 14h4v5h-1v-2h-2v2h-1v-5zm1 1v1h2v-1h-2zM5 18.031V20h6.258a1.74 1.74 0 0 1-.256-.887v-1.082H5z" fill="currentColor" color="#565656"/></svg>