<svg xmlns="http://www.w3.org/2000/svg" width="24" height="24"><defs><style id="current-color-scheme" type="text/css"></style></defs><path d="M11.604 4a.702.702 0 0 0-.315.074L4.393 7.516a.696.696 0 0 0-.393.64v7.655c0 .266.15.51.389.63l6.896 3.483c.1.05.21.076.319.076.171 0 .347-.09.347-.09l6.87-3.469a.707.707 0 0 0 .388-.63V8.148a.708.708 0 0 0-.393-.632L11.92 4.074A.71.71 0 0 0 11.604 4zm0 1.496l5.314 2.652-5.314 2.653L6.29 8.148l5.313-2.652zm-6.19 3.795l5.482 2.736v6.118l-5.482-2.77V9.291zm12.38 0v6.084l-5.483 2.77v-6.118l5.484-2.736z" fill="currentColor" color="#565656"/></svg>