<svg xmlns="http://www.w3.org/2000/svg" width="24" height="24"><defs><style id="current-color-scheme" type="text/css"></style></defs><path d="M12 5C9.239 5 7 7.089 7 9.666c.002.556.11 1.107.32 1.627.152.391.457.824.649 1.123L12 19l4.031-6.58c.317-.368.454-.759.653-1.127.208-.52.315-1.071.316-1.627C17 7.089 14.761 5 12 5zm0 2a3 3 0 0 1 2.865 3.887 2.965 2.965 0 0 1-.185.453c-.01.018-.017.036-.026.055A3 3 0 0 1 12 13a3 3 0 0 1-2.775-1.865l-.006-.014a3.015 3.015 0 0 1-.203-.834l-.004-.043a2.869 2.869 0 0 1 .004-.543A3 3 0 0 1 12 7z" fill="currentColor" color="#565656"/></svg>