<svg xmlns="http://www.w3.org/2000/svg" width="24" height="24"><defs><style id="current-color-scheme" type="text/css"></style></defs><path d="M11.994 6c-1.87 0-3.394 1.534-3.45 3.451a.603.603 0 0 0-.134.053c-.43.227-.54.936-.246 1.592.237.527.658.854 1.04.844.286 1.752 1.43 3.06 2.79 3.06h.012c1.36 0 2.504-1.308 2.791-3.06.381.01.802-.317 1.039-.844.294-.656.184-1.365-.246-1.592a.6.6 0 0 0-.135-.053C15.4 7.534 13.875 6 12.005 6h-.01zM16 14v3h2v-3h-2zm-6.494 1.012c-2.47.258-4.268.889-4.484 1.636-.003.008.002.017 0 .024-.007.027-.007.051-.01.078-.001.012-.012.021-.012.033v1.86c0 .197.156.357.35.357H13v-2.934a3.575 3.575 0 0 1-1.055.161c-1.17 0-2.145-.52-2.44-1.215zM16 18v1h2v-1h-2z" fill="currentColor" color="#565656"/></svg>