<svg xmlns="http://www.w3.org/2000/svg" width="24" height="24"><defs><style id="current-color-scheme" type="text/css"></style></defs><path d="M4.502 4l-.412.219-.053.465.354.304L4.5 5h1l.414-.219.05-.465-.353-.304L5.502 4h-1zm3 0l-.412.219-.053.465.354.304L7.5 5h1l.414-.219.05-.465-.353-.304L8.502 4h-1zm3 0l-.412.219-.053.465.354.304L10.5 5h1l.414-.219.05-.465-.353-.304L11.502 4h-1zm3 0l-.412.219-.053.465.354.304L13.5 5h1l.414-.219.05-.465-.353-.304L14.502 4h-1zm3 0l-.412.219-.053.465.354.304L16.5 5h1l.414-.219.05-.465-.353-.304L17.502 4h-1zm2.996.5L19 5.5l.219.414.465.05.304-.353.01-.111-.5-1zM4.316 6.035l-.306.354L4 6.5v1l.219.414.465.05.304-.353.01-.111v-1l-.219-.414-.463-.05zM7 7v2h6V7H7zm12.316.035l-.306.354L19 7.5v1l.219.414.465.05.304-.353.01-.111v-1l-.219-.414-.463-.05zm-15 2l-.306.354L4 9.5v1l.219.414.465.05.304-.353.01-.111v-1l-.219-.414-.463-.05zm15 1l-.306.354-.01.111v1l.219.414.465.05.304-.353.01-.111v-1l-.219-.414-.463-.05zM9 11v2h6v-2H9zm-4.684 1.035l-.306.354L4 12.5v1l.219.414.465.05.304-.353.01-.111v-1l-.219-.414-.463-.05zm15 1l-.306.354-.01.111v1l.219.414.465.05.304-.353.01-.111v-1l-.219-.414-.463-.05zM11 15v2h6v-2h-6zm-6.684.035l-.306.354L4 15.5v1l.219.414.465.05.304-.353.01-.111v-1l-.219-.414-.463-.05zm15 1l-.306.354-.01.111v1l.219.414.465.05.304-.353.01-.111v-1l-.219-.414-.463-.05zm-14.998 2l-.308.354L4 18.5l.5 1 .5-1-.219-.414-.463-.05zM6.506 19l-.422.219-.053.465.354.304.12.012h1l.415-.219.05-.465-.353-.304L7.506 19h-1zm3 0l-.422.219-.053.465.354.304.12.012h1l.415-.219.05-.465-.353-.304-.111-.012h-1zm3 0l-.422.219-.053.465.354.304.12.012h1l.415-.219.05-.465-.353-.304-.111-.012h-1zm3 0l-.422.219-.053.465.354.304.12.012h1l.415-.219.05-.465-.353-.304-.111-.012h-1zm3 0l-.422.219-.053.465.354.304.12.012 1-.5-1-.5z" fill="currentColor" color="#565656"/></svg>