<svg xmlns="http://www.w3.org/2000/svg" width="24" height="24"><defs><style id="current-color-scheme" type="text/css"></style></defs><path d="M5 5v14h14V5H5zm2 2h4v3.277c-.293.17-.537.409-.71.7-.01.015-.017.03-.026.046a1.987 1.987 0 0 0-.198.495c-.038.155-.066.314-.066.482a1.976 1.976 0 0 0 .1.598c.042.133.096.26.164.379l.025.046c.174.291.418.53.711.7V17H7V7zm6 0h4v10h-4v-3.277c.293-.17.537-.409.71-.7.01-.015.017-.03.026-.046a1.987 1.987 0 0 0 .198-.495c.038-.155.066-.314.066-.482a1.976 1.976 0 0 0-.1-.598 1.987 1.987 0 0 0-.164-.379l-.025-.046a1.993 1.993 0 0 0-.711-.7V7z" fill="currentColor" color="#565656"/></svg>