<svg xmlns="http://www.w3.org/2000/svg" width="24" height="24"><defs><style id="current-color-scheme" type="text/css"></style></defs><path d="M5 5.004v14h14v-14H5zm2 2h10v4h-3.277a1.991 1.991 0 0 0-.7-.711l-.046-.025a1.97 1.97 0 0 0-.495-.198 1.97 1.97 0 0 0-.482-.066 1.97 1.97 0 0 0-.598.1c-.133.042-.26.096-.379.164l-.046.025c-.291.174-.53.418-.7.71H7v-4zm0 6h3.277c.17.293.409.537.7.71l.046.028a1.97 1.97 0 0 0 .495.195c.155.04.315.069.482.069.167 0 .327-.03.482-.069l.116-.03a1.993 1.993 0 0 0 1.125-.903H17v4H7v-4z" fill="currentColor" color="#565656"/></svg>