<svg xmlns="http://www.w3.org/2000/svg" width="24" height="24"><defs><style id="current-color-scheme" type="text/css"></style></defs><path d="M4 4v7h8V4H4zm9 1.078V9h1V6.355A6 6 0 0 1 18 12h1a7 7 0 0 0-6-6.922zM5 12a7 7 0 0 0 6 6.922V15h-1v2.645A6 6 0 0 1 6 12H5zm11.5 1a3.5 3.5 0 0 0-3.5 3.5 3.5 3.5 0 0 0 .7 2.094l.716-.717a2.5 2.5 0 0 1-.42-1.37 2.5 2.5 0 0 1 2.5-2.5 2.5 2.5 0 0 1 1.377.417l.717-.717a3.5 3.5 0 0 0-2.1-.701L16.5 13zm2.805 1.398l-.004.008-.717.717a2.5 2.5 0 0 1 .42 1.37 2.5 2.5 0 0 1-2.5 2.5 2.5 2.5 0 0 1-1.377-.417l-.717.717a3.5 3.5 0 0 0 2.094.7 3.5 3.5 0 0 0 3.5-3.5 3.5 3.5 0 0 0-.7-2.095z" fill="currentColor" color="#565656"/></svg>