<svg xmlns="http://www.w3.org/2000/svg" width="24" height="24"><defs><style id="current-color-scheme" type="text/css"></style></defs><path d="M6 4c-1.108 0-2 .892-2 2v12c0 1.108.892 2 2 2h12c1.108 0 2-.892 2-2V6c0-1.108-.892-2-2-2zm4 2h7c-.228 3.034-1.036 5.674-2.439 7.836 1.024 1.29 2.37 2.409 4.039 3.357l-.569 1.08a13.83 13.83 0 0 1-4.152-3.355c-1.1 1.365-2.504 2.483-4.211 3.355l-.684-1.023c1.745-.872 3.112-1.992 4.098-3.357C11.83 12.034 10.958 9.655 10.465 7H10zm-3.648.377c.845.461 1.614 1.02 2.306 1.674l-.75.98a14.634 14.634 0 0 0-2.365-1.846zm5.25.623c.455 2.276 1.194 4.314 2.218 5.87 1.024-1.821 1.67-3.86 1.936-5.87zM5.775 9.652c.77.423 1.48.904 2.133 1.442l-.806.98a9.467 9.467 0 0 0-2.135-1.615zm1.327 3.334l.98.694a24.247 24.247 0 0 1-2.02 5.248l-1.152-.809a24.29 24.29 0 0 0 2.192-5.133z" fill="currentColor" color="#565656"/></svg>