<svg xmlns="http://www.w3.org/2000/svg" width="24" height="24"><defs><style id="current-color-scheme" type="text/css"></style></defs><path d="M7.89 6a1 1 0 0 0-.96.723l-2.887 10A1 1 0 0 0 5.003 18H6.17a1 1 0 0 0 .963-.732L7.763 15h1.481l.631 2.268a1 1 0 0 0 .963.732h1.166a1 1 0 0 0 .5-.135 1 1 0 0 0 .5.135h1a1 1 0 0 0 .66-.248 3.99 3.99 0 0 0 1.338.248 1 1 0 0 0 .002 0c2.197 0 4-1.803 4-4s-1.803-4-4-4a1 1 0 0 0-.002 0c-.344 0-.67.1-.998.186V7a1 1 0 0 0-1-1h-1a1 1 0 0 0-1 1v6.088l-1.678-6.344A1 1 0 0 0 9.36 6H7.891zm.665 3l.949 4h-2l1.05-4zm7.449 3a2 2 0 0 1 2 2 2 2 0 0 1-2 2 2 2 0 0 1-2-2 2 2 0 0 1 2-2z" fill="currentColor" color="#565656"/></svg>