<?xml version="1.0" encoding="UTF-8" standalone="no"?>
<svg
   xmlns:dc="http://purl.org/dc/elements/1.1/"
   xmlns:cc="http://creativecommons.org/ns#"
   xmlns:rdf="http://www.w3.org/1999/02/22-rdf-syntax-ns#"
   xmlns:svg="http://www.w3.org/2000/svg"
   xmlns="http://www.w3.org/2000/svg"
   xmlns:sodipodi="http://sodipodi.sourceforge.net/DTD/sodipodi-0.dtd"
   xmlns:inkscape="http://www.inkscape.org/namespaces/inkscape"
   width="24"
   height="24"
   version="1.1"
   id="svg11"
   sodipodi:docname="folder-copy.svg"
   inkscape:version="0.92.4 (5da689c313, 2019-01-14)">
  <metadata
     id="metadata15">
    <rdf:RDF>
      <cc:Work
         rdf:about="">
        <dc:format>image/svg+xml</dc:format>
        <dc:type
           rdf:resource="http://purl.org/dc/dcmitype/StillImage" />
      </cc:Work>
    </rdf:RDF>
  </metadata>
  <sodipodi:namedview
     pagecolor="#ffffff"
     bordercolor="#666666"
     borderopacity="1"
     objecttolerance="10"
     gridtolerance="10"
     guidetolerance="10"
     inkscape:pageopacity="0"
     inkscape:pageshadow="2"
     inkscape:window-width="1366"
     inkscape:window-height="712"
     id="namedview13"
     showgrid="false"
     inkscape:zoom="9.8333333"
     inkscape:cx="-0.66101695"
     inkscape:cy="12"
     inkscape:window-x="0"
     inkscape:window-y="30"
     inkscape:window-maximized="1"
     inkscape:current-layer="svg11" />
  <defs
     id="defs3">
    <style
       id="current-color-scheme"
       type="text/css">
   .ColorScheme-Text { color:#565656; } .ColorScheme-Highlight { color:#5294e2; }
  </style>
  </defs>
  <g
     id="g33"
     transform="translate(4.5000002,-4.2510015)">
    <path
       id="path7"
       d="m 12,15 v 4.25 C 12,19.665 11.665,20 11.25,20 H 5.0000004 v 2.25 c 0,0.415 0.3345,0.75 0.75,0.75 H 14.25 C 14.665,23 15,22.665 15,22.25 v -6.5 C 15,15.3345 14.665,15 14.25,15 Z"
       class="ColorScheme-Text"
       style="color:#565656;fill:currentColor"
       inkscape:connector-curvature="0" />
    <g
       style="stroke-width:1.39999998"
       transform="matrix(0.71428572,0,0,0.71428572,-16.900727,8.9329957)"
       id="g830">
      <rect
         style="display:inline;opacity:0.5;fill:#565656;fill-opacity:1;stroke:none;stroke-width:1.39999998;stroke-linecap:round;stroke-linejoin:miter;stroke-miterlimit:4;stroke-dasharray:none;stroke-opacity:1;paint-order:stroke markers fill;enable-background:new"
         id="rect23"
         width="14"
         height="5"
         x="24.660816"
         y="0.79661018"
         rx="1"
         ry="1" />
      <path
         inkscape:connector-curvature="0"
         style="display:inline;fill:#565656;fill-opacity:1;stroke:none;stroke-width:1.39999998;enable-background:new"
         d="m 31.661017,2.7966102 -1,2 h -6 c -0.554,0 -1,0.446 -1,1 V 13.79661 c 0,0.554 0.446,1 1,1 h 14 c 0.554,0 1,-0.446 1,-1 v -5.9999998 -2 -2 c 0,-0.5 -0.5,-1 -1,-1 z"
         id="path4-3"
         sodipodi:nodetypes="ccssssssccssc" />
    </g>
  </g>
</svg>
