<svg xmlns="http://www.w3.org/2000/svg" width="24" height="24"><defs><style id="current-color-scheme" type="text/css"></style></defs><path d="M10 7l-.008 2 2.922.012h.002c-.055 0 .084.16.084.082v.924h-1.004c-1.716 0-3.03 1.125-3.055 2.484-.012.68.306 1.363.862 1.822.555.46 1.315.7 2.193.7H15v-5.93c0-1.171-.887-2.082-2.084-2.082L10.006 7H10zM3.996 9v6l4-3-4-3zm16 0l-4 3 4 3V9zm-8 3.018H13v1.005h-1.004c-.52 0-.794-.137-.92-.242-.126-.104-.136-.172-.135-.244.003-.144.085-.52 1.055-.52z" fill="currentColor" color="#565656"/></svg>