<svg xmlns="http://www.w3.org/2000/svg" width="24" height="24"><defs><style id="current-color-scheme" type="text/css"></style></defs><path d="M6.34 4.938L4.934 6.343l4.693 4.693c-.765.089-1.438.428-1.88.932A3.017 3.017 0 0 0 6.996 14c.005.72.268 1.453.78 2.031.513.579 1.31.969 2.22.969h5.593l2.062 2.063 1.407-1.407L6.339 4.938zM10.402 7l2 2h1.594c.428 0 1 .614 1 1v1h-.594l2.594 2.594V10a3 3 0 0 0-3-3h-3.594zm-.406 6h1.594l2 2H9.996c-.398 0-.567-.11-.719-.281a1.144 1.144 0 0 1-.28-.719c-.003-.28.104-.554.25-.719.144-.165.327-.281.75-.281z" fill="currentColor" color="#565656"/></svg>