<svg xmlns="http://www.w3.org/2000/svg" width="24" height="24"><defs><style id="current-color-scheme" type="text/css"></style></defs><path d="M15.215 6l-2.5 3h5l-2.5-3zm-7.387 4L5 18h1.143l.974-2.285H9.84L10.715 18h1.142l-2.591-8H7.828zm4.887 0v8h4A2.286 2.286 0 0 0 19 15.715a2.286 2.286 0 0 0-1.533-2.154 2.286 2.286 0 0 0 .39-1.276A2.286 2.286 0 0 0 15.572 10h-2.857zm1.142 1.143h1.715a1.143 1.143 0 0 1 1.143 1.142 1.143 1.143 0 0 1-1.143 1.143h-1.715v-2.285zm-5.31.097l1.072 3.332H7.363l1.184-3.332zm5.31 3.332h2.858a1.143 1.143 0 0 1 1.142 1.143 1.143 1.143 0 0 1-1.142 1.142h-2.858v-2.285z" fill="currentColor" color="#565656"/></svg>