<svg xmlns="http://www.w3.org/2000/svg" width="24" height="24"><defs><style id="current-color-scheme" type="text/css"></style></defs><path d="M8.5 5A3.515 3.515 0 0 0 5 8.5C5 10.421 6.579 12 8.5 12c.898 0 1.702-.368 2.324-.932L6.95 16.883a1 1 0 0 0 .264 1.377l.812.562a1 1 0 0 0 1.4-.267l2.813-4.22c-.133.369-.238.753-.238 1.165 0 1.921 1.579 3.5 3.5 3.5s3.5-1.579 3.5-3.5-1.579-3.5-3.5-3.5c-.898 0-1.702.368-2.324.932l3.875-5.815a1 1 0 0 0-.264-1.377l-.812-.562a1 1 0 0 0-1.4.267l-2.813 4.22c.133-.37.238-.753.238-1.165C12 6.579 10.421 5 8.5 5zm0 2c.864 0 1.5.636 1.5 1.5S9.364 10 8.5 10 7 9.364 7 8.5 7.636 7 8.5 7zm7 7c.864 0 1.5.636 1.5 1.5s-.636 1.5-1.5 1.5-1.5-.636-1.5-1.5.636-1.5 1.5-1.5z" fill="currentColor" color="#565656"/></svg>