<svg xmlns="http://www.w3.org/2000/svg" width="24" height="24"><defs><style id="current-color-scheme" type="text/css"></style></defs><path d="M8.5 7v2h6c.428 0 .594.267.469.719L14.625 11h-5.25c-1.838 0-3.125 1.352-3.5 2.75-.187.699-.162 1.479.25 2.156C6.537 16.584 7.373 17 8.281 17h6c.719 0 .969-.719.969-.719l1.656-6C17.341 8.712 16.18 7 14.5 7h-6zm.875 6h4.688l-.563 2H8.281c-.398 0-.424-.084-.469-.156-.044-.073-.08-.293 0-.594.162-.602.718-1.25 1.563-1.25z" fill="currentColor" color="#565656"/></svg>