<svg xmlns="http://www.w3.org/2000/svg" width="24" height="24"><defs><style id="current-color-scheme" type="text/css"></style></defs><path d="M5 5v14h14V5H5zm2 2h10v10H7V7zm1.022 1A.022.022 0 0 0 8 8.021v.957c0 .012.01.022.021.022h7.958c.011 0 .021-.01.021-.021v-.957A.022.022 0 0 0 15.979 8H8.022zm0 3a.022.022 0 0 0-.022.021v.957c0 .012.01.022.021.022h7.958c.011 0 .021-.01.021-.021v-.957a.022.022 0 0 0-.021-.022H8.022zm0 2.8c-.012 0-.022.009-.022.02v.959c0 .012.01.022.021.022h7.958c.011 0 .021-.01.021-.022v-.959c0-.011-.01-.02-.021-.02H8.022z" fill="currentColor" color="#565656"/></svg>