<svg xmlns="http://www.w3.org/2000/svg" width="24" height="24"><defs><style id="current-color-scheme" type="text/css"></style></defs><path d="M4 6v12h10l5.293-5.293L20 12l-.707-.707L14 6H4zm4 2h1v1H8a1 1 0 0 0-1 1v1a1.5 1.5 0 0 1-.375 1A1.5 1.5 0 0 1 7 13v1a1 1 0 0 0 1 1h1v1H8a2 2 0 0 1-2-2v-1a.5.5 0 0 0-.5-.5H5v-1h.5A.5.5 0 0 0 6 11v-1a2 2 0 0 1 2-2zm2 0h1a2 2 0 0 1 2 2v1a.5.5 0 0 0 .5.5h.5v1h-.5a.5.5 0 0 0-.5.5v1a2 2 0 0 1-2 2h-1v-1h1a1 1 0 0 0 1-1v-1c0-.383.14-.735.375-1A1.5 1.5 0 0 1 12 11v-1a1 1 0 0 0-1-1h-1V8z" fill="currentColor" color="#565656"/></svg>