<svg xmlns="http://www.w3.org/2000/svg" width="24" height="24"><path d="M12 4a4 4 0 1 0 0 8 4 4 0 0 0 0-8zm0 8.986c-4.028.005-7.497 3.018-8 7.014h9.713C12.679 19.173 12 17.918 12 16.5c0-1.403.665-2.66 1.682-3.486-.739-.015-1.495-.026-1.682-.028z" fill="currentColor" color="#565656"/><path d="M16.5 13a3.5 3.5 0 0 0-3.5 3.5 3.5 3.5 0 0 0 3.5 3.5 3.5 3.5 0 0 0 3.5-3.5 3.5 3.5 0 0 0-3.5-3.5zm-1.414 1.379l1.414 1.414 1.414-1.414.707.707-1.414 1.414 1.414 1.414-.707.707-1.414-1.414-1.414 1.414-.707-.707 1.414-1.414-1.414-1.414.707-.707z" fill="currentColor" color="#5294e2"/></svg>