<svg xmlns="http://www.w3.org/2000/svg" width="24" height="24"><defs><style id="current-color-scheme" type="text/css"></style></defs><path d="M13 6c-.917.001-1.81.293-2.355.969-.546.675-.7 1.503-.768 2.463-.034.472-.044.994-.04 1.568H9c-.554 0-1 .446-1 1s.446 1 1 1h.889c.047 1.398.111 3.043.111 5a1 1 0 1 0 2 0c0-1.962-.056-3.619-.102-5H13c.554 0 1-.446 1-1s-.446-1-1-1h-1.154a17.651 17.651 0 0 1 .027-1.426c.057-.79.217-1.212.328-1.35.111-.137.218-.223.801-.224A1 1 0 1 0 13 6z" fill="currentColor" color="#565656"/></svg>