<svg xmlns="http://www.w3.org/2000/svg" width="24" height="24"><defs><style id="current-color-scheme" type="text/css">.ColorScheme-Text{color:#565656}</style></defs><path class="ColorScheme-Text" d="M12 4a4 4 0 1 0 0 8 4 4 0 0 0 0-8zm0 8.986c-4.028.005-7.497 3.018-8 7.014h9.713C12.679 19.173 12 17.918 12 16.5c0-1.403.665-2.66 1.682-3.486-.739-.015-1.495-.026-1.682-.028z" fill="currentColor"/><path class="ColorScheme-Text" d="M16.5 13a3.5 3.5 0 0 0-3.5 3.5 3.5 3.5 0 0 0 3.5 3.5 3.5 3.5 0 0 0 3.5-3.5 3.5 3.5 0 0 0-3.5-3.5zm1.742 1.465l.707.707L16.121 18l-.707-.707L14 15.879l.707-.707 1.414 1.414 2.121-2.121z" fill="currentColor" opacity=".3"/></svg>