<svg xmlns="http://www.w3.org/2000/svg" width="24" height="24"><defs><style id="current-color-scheme" type="text/css"></style></defs><path d="M12.002 5a4.567 4.567 0 0 0-4.574 4.56c0 .444.065.873.183 1.278-.576.461-2.81 2.46-1.89 5.053 0 0 .777-.066 1.416-1.245a4.974 4.974 0 0 0 1.049 2.01c-.723.212-1.213.624-1.213 1.096 0 .689 1.044 1.248 2.33 1.248.872 0 1.63-.257 2.029-.637.22.03.441.047.668.047a5.1 5.1 0 0 0 .668-.047c.4.38 1.159.637 2.031.637 1.286 0 2.33-.56 2.33-1.248 0-.472-.49-.884-1.213-1.096a4.98 4.98 0 0 0 1.05-2.01c.638 1.178 1.415 1.245 1.415 1.245.921-2.593-1.315-4.592-1.89-5.053.119-.405.185-.834.185-1.277C16.576 7.04 14.53 5 12.002 5z" fill="currentColor" color="#565656"/></svg>