<svg xmlns="http://www.w3.org/2000/svg" width="24" height="24"><defs><style id="current-color-scheme" type="text/css"></style></defs><path d="M12 4a4 4 0 0 0-4 4 4 4 0 0 0 4 4 4 4 0 0 0 4-4 4 4 0 0 0-4-4zm0 8.988c-4.028.005-7.497 3.016-8 7.012h9.713C12.679 19.173 12 17.918 12 16.5c0-1.403.665-2.66 1.682-3.486-.739-.015-1.495-.024-1.682-.026zm4.5.012a3.5 3.5 0 0 0-3.5 3.5 3.5 3.5 0 0 0 3.5 3.5 3.5 3.5 0 0 0 3.5-3.5 3.5 3.5 0 0 0-3.5-3.5zm-.5 1h1v2h2v1h-3v-3z" fill="currentColor" color="#565656"/></svg>