<svg xmlns="http://www.w3.org/2000/svg" width="24" height="24"><defs><style id="current-color-scheme" type="text/css"></style></defs><path d="M6.344 4.938L4.937 6.343l2.114 2.113C4.85 9.932 4 12 4 12s2 5.004 8 5.004a9.098 9.098 0 0 0 3.076-.522l2.58 2.58 1.407-1.406L6.342 4.938zM12 7.003c-.524 0-1.006.05-1.47.119l1.92 1.92a3 3 0 0 1 2.515 2.516l3.11 3.109C19.447 13.366 20 12.004 20 12.004s-2-5-8-5zm-2.7 3.703l3.997 3.996a3 3 0 0 1-1.297.3 3 3 0 0 1-3-3 3 3 0 0 1 .3-1.296z" fill="currentColor" color="#565656"/></svg>