<svg xmlns="http://www.w3.org/2000/svg" width="24" height="24"><defs><style id="current-color-scheme" type="text/css">.ColorScheme-Text{color:#565656}</style></defs><path class="ColorScheme-Text" d="M5 5v14h.39a.5.5 0 0 0 .23 0H19v-2H7v-1.611c.12-.233.24-.466.393-.684.816-1.164 2.146-2.146 4.683-2.656 2.674-.538 4.213-1.484 5.045-2.68.832-1.196.91-2.559.893-3.797a.5.5 0 0 0-.514-.498.5.5 0 0 0-.486.514c.017 1.182-.07 2.284-.715 3.21-.645.928-1.893 1.762-4.42 2.27-2.354.474-3.884 1.393-4.879 2.522V5H5z" fill="currentColor"/><path class="ColorScheme-Text" d="M18 6.4c-.043 1-.229 2.035-.879 2.97-.832 1.195-2.37 2.141-5.045 2.679-2.537.51-3.867 1.492-4.683 2.656-.153.218-.273.451-.393.684V17h11V6.4z" fill="currentColor" opacity=".3"/></svg>