<svg xmlns="http://www.w3.org/2000/svg" width="24" height="24"><defs><style id="current-color-scheme" type="text/css"></style></defs><path d="M8.3 6l-2.857 8h1.428l.608-1.715h2.785L10.87 14h1.59L9.443 6H8.301zm.571 2.285l1 2.858h-2l1-2.858zM14 9v1h2.5c.214 0 .5.307.5.5v.5h-2.5c-.46 0-.868.192-1.125.484A1.509 1.509 0 0 0 13 12.5c.003.36.134.726.39 1.016.26.289.66.484 1.11.484H18v-.422c.008-.047 0-.078 0-.078v-3A1.5 1.5 0 0 0 16.5 9H14zm.5 3H17v1h-2.5c-.199 0-.283-.055-.36-.14a.572.572 0 0 1-.14-.36.56.56 0 0 1 .125-.36c.08-.081.17-.139.375-.14zM9 15.996l3 4 3-4H9z" fill="currentColor" color="#565656"/></svg>