<svg xmlns="http://www.w3.org/2000/svg" width="24" height="24"><defs><style id="current-color-scheme" type="text/css"></style></defs><path d="M6 4c-1.108 0-2 .892-2 2v12c0 1.108.892 2 2 2h12c1.108 0 2-.892 2-2V6c0-1.108-.892-2-2-2H6zm1.715 2h8.57C17.235 6 18 6.765 18 7.715v8.57c0 .95-.765 1.715-1.715 1.715h-8.57C6.765 18 6 17.235 6 16.285v-8.57C6 6.765 6.765 6 7.715 6zm3.025 1l-.111 1.316a3.964 3.929 0 0 0-1.158.664l-1.21-.562-1.259 2.164 1.096.756a3.964 3.929 0 0 0-.06.662 3.964 3.929 0 0 0 .058.666l-1.094.752 1.26 2.164 1.205-.562a3.964 3.929 0 0 0 1.162.66L10.74 17h2.522l.111-1.316a3.964 3.929 0 0 0 1.158-.664l1.21.562 1.261-2.164-1.098-.756a3.964 3.929 0 0 0 .06-.662 3.964 3.929 0 0 0-.056-.666l1.094-.752-1.262-2.164-1.205.562a3.964 3.929 0 0 0-1.162-.66L13.262 7H10.74zm1.262 3.572A1.441 1.429 0 0 1 13.443 12a1.441 1.429 0 0 1-1.441 1.428A1.441 1.429 0 0 1 10.561 12a1.441 1.429 0 0 1 1.441-1.428z" fill="currentColor" color="#5294e2"/></svg>