<svg xmlns="http://www.w3.org/2000/svg" width="24" height="24"><defs><style id="current-color-scheme" type="text/css"></style></defs><path d="M17.18 4a.354.354 0 0 0-.149.031L5.78 6.105c-.938.175-.773 1.163-.773 1.163L5.457 10h2.945l1.073-1.947L11.797 10h2.201l.863-1.225L16.53 10h2.469l-.863-5.15c-.124-.743-.68-.85-.951-.848L17.18 4zM5 11v1h1v-1H5zm2 0v1h1v-1H7zm2 0v1h1v-1H9zm2 0v1h1v-1h-1zm2 0v1h1v-1h-1zm2 0v1h1v-1h-1zm2 0v1h1v-1h-1zm2 0v1h1v-1h-1zM5.002 13v2.908h2.816L11.91 20v-7H5.002zm8.908 0v3c1.07-.58 1.79-1.7 1.79-3h-1.79zm4 0c0 2.57-1.68 4.76-4 5.5V20c3.15-.78 5.5-3.6 5.5-7h-1.5z" fill="currentColor" color="#565656"/></svg>