<svg xmlns="http://www.w3.org/2000/svg" width="24" height="24"><defs><style id="current-color-scheme" type="text/css">.ColorScheme-Text{color:#565656}</style></defs><path class="ColorScheme-Text" d="M9.406 10S8 10 8 11.4v4.2c0 .775.636 1.4 1.428 1.4H13l1.5 2 1.5-2h.572S18 17 18 15.6v-4.2c0-1.4-1.428-1.4-1.428-1.4H9.406zM13 11h1v2h2v1h-2v2h-1v-2h-2v-1h2v-2z" fill="currentColor"/><path class="ColorScheme-Text" d="M7.406 6S6 6 6 7.4v4.2c0 .628.42 1.151 1 1.33V10.4C7 9 8.406 9 8.406 9h7.166s.196.024.428.086V7.4C16 6 14.572 6 14.572 6H7.406z" fill="currentColor" opacity=".3"/></svg>