<svg xmlns="http://www.w3.org/2000/svg" width="24" height="24"><defs><style id="current-color-scheme" type="text/css"></style></defs><path d="M6 5.004s-1 0-1 1v11s0 1 1 1h12s1 0 1-1v-9c0-1-1-1-1-1h-5l-2-2H6zM15.5 11l1.666 1.285-1.666 1.287v-.857c-.92 0-1.666.766-1.666 1.713s.746 1.715 1.666 1.715 1.666-.768 1.666-1.715a.417.429 0 0 1 .418-.428.417.429 0 0 1 .416.428.417.429 0 0 1-.002.043C17.976 15.871 16.867 17 15.5 17c-1.381 0-2.5-1.152-2.5-2.572 0-1.42 1.119-2.57 2.5-2.57V11z" fill="currentColor" opacity=".3" color="#565656"/></svg>