<svg xmlns="http://www.w3.org/2000/svg" width="24" height="24"><defs><style id="current-color-scheme" type="text/css"></style></defs><path d="M8.03 4l-.704 1.809A17.486 17.486 0 0 1 4 4.424v1.388c.933.465 1.892.858 2.875 1.159l-1.494 3.845c-.47-.214-.928-.458-1.381-.716v1.408c.309.159.617.32.932.463L4 14.369v3.418l.055-.14a18.739 18.739 0 0 0 7.306 1.867l.002.486H12.6v-.465a18.772 18.772 0 0 0 7.4-1.644v-3.703l-.69-1.782c.235-.089.458-.204.69-.302v-1.346c-.377.173-.754.346-1.14.492l-1.596-4.107A19.01 19.01 0 0 0 20 6.178V4.805c-1.03.495-2.095.893-3.186 1.177L16.043 4h-1.338l.879 2.256c-.994.184-2 .28-3.008.29L12.57 4h-1.248l.008 2.518a17.591 17.591 0 0 1-2.79-.39L9.366 4H8.03zm.054 3.295c1.07.25 2.156.4 3.248.46l.012 4.587a17.512 17.512 0 0 1-4.815-1.051l1.555-3.996zm7.957.135l1.643 4.218c-1.661.497-3.379.75-5.098.743l-.008-4.606c1.161-.012 2.32-.13 3.463-.355zm-9.96 5.015a18.78 18.78 0 0 0 5.267 1.135l.011 4.695a17.47 17.47 0 0 1-6.85-1.796l1.571-4.034zm12.054.36l1.511 3.879a17.497 17.497 0 0 1-7.05 1.615l-.008-4.672a18.844 18.844 0 0 0 5.547-.822z" fill="currentColor" color="#565656"/></svg>