<svg xmlns="http://www.w3.org/2000/svg" width="24" height="24"><defs><style id="current-color-scheme" type="text/css"></style></defs><path d="M10 6c-3.866 0-6 2.68-6 5.984 0 3.305 2.134 5.766 6 5.766-3.222 0-4.834-3.012-4.834-5.766S6.778 6.996 10 6.996c1.456 0 2.77.475 3.793 1.229A6.236 6.236 0 0 0 12 7.959c-2.761 0-5 1.753-5 3.916v.01c.001.106.008.213.02.318.192 3.23 3.238 5.799 6.98 5.799 3.866 0 6-2.742 6-6.123 0-3.381-2.134-5.877-6-5.877 3.222 0 4.834 3.057 4.834 5.875S17.222 16.979 14 16.979c-1.672 0-3.177-.62-4.24-1.606a6.154 6.154 0 0 0 2.24.418c2.705 0 4.917-1.689 4.992-3.807H17c0-.019-.004-.04-.004-.058l.004-.051a3.088 3.088 0 0 0-.031-.4C16.666 8.409 13.665 6 10 6z" fill="currentColor" color="#565656"/></svg>