<svg xmlns="http://www.w3.org/2000/svg" width="24" height="24"><defs><style id="current-color-scheme" type="text/css"></style></defs><path d="M19.81 4c-.33-.029-1.331.337-1.681.553-.783.365-2.194 1.109-3.861 2.443.114.081.227.172.336.266 1.59-1.174 2.697-1.604 3.042-1.139.325.436-.254 1.508-1.363 2.924a5.006 5.405 0 0 0-4.875-2.453 5.006 5.405 0 0 0-4.304 6.068 5.006 5.405 0 0 0 .335 1.346c-1.88 2.43-3.83 5.197-3.37 5.814.495.668 3.226-.642 6.126-2.861a5.006 5.405 0 0 0 2.532.348 5.006 5.405 0 0 0 4.302-6.069 5.006 5.405 0 0 0-.23-1.035c2.16-2.86 3.585-5.528 3.11-6.168-.017-.022-.051-.033-.098-.037zM7.624 14.432a5.006 5.405 0 0 0 1.527 1.904c-1.463 1.188-2.54 1.757-2.88 1.299-.338-.455.203-1.586 1.353-3.203z" fill="currentColor" color="#565656"/></svg>