<svg xmlns="http://www.w3.org/2000/svg" width="24" height="24"><defs><style id="current-color-scheme" type="text/css"></style></defs><path d="M5 4v14H4v1h1v1h1v-1h14v-1h-.844l-.187-.188-.844-.812-1.281-1.313-.719-.687L14 17.094l-1.313-1.282-.812-.812-2-2H6v-2h3.875l2-2 .813-.844L14 6.875 16.125 9l2-2 .844-.844L20 5.125v-.219h-.219l-.5-.468-1.031 1.03-.813.813-1.312 1.313L14 5.469 12.469 7 12 7.469l-.844.812L9.47 10H6V4H5zm1 10h3.469l1.687 1.688.844.843.469.469 1 1H6v-4zm10.125 2.406l1.313 1.282.294.312h-3.2l1.593-1.594z" fill="currentColor" color="#565656"/></svg>