<svg xmlns="http://www.w3.org/2000/svg" width="24" height="24"><defs><style id="current-color-scheme" type="text/css"></style></defs><path d="M12 5.004c-.93 0-1.73.495-2.445 1.144-.716.65-1.378 1.477-2.06 2.284-.845 1.167-3 2.737-3.495 3.002v1.07c1.272 0 1.366.792 2.398 1.851.04.118.077.239.127.342.076.154.14.332.424.453l.12.051.08-.01c.113.131.23.251.343.385.683.807 1.347 1.634 2.063 2.283.715.65 1.514 1.145 2.445 1.145.93 0 1.73-.495 2.445-1.145.716-.649 1.378-1.476 2.06-2.283 1.366-1.613 1.766-3.072 3.495-3.072v-1c-.784 0-.498-.31-1.174-.79-.099-.087-.2-.173-.295-.265-.288-.281-.553-.562-.789-.787a3.06 3.06 0 0 0-.346-.295c-.032-.023-.075-.044-.115-.066a27.95 27.95 0 0 1-.775-.87c-.683-.806-1.345-1.633-2.06-2.283C13.73 5.5 12.93 5.004 12 5.004zm0 1c.57 0 1.145.317 1.773.887.628.57 1.279 1.369 1.971 2.187.121.144.256.283.381.428-.06.05-.116.104-.166.16-.234.265-.414.591-.58.969-.332.754-.597 1.71-.836 2.664-.239.954-.448 1.904-.639 2.6-.042.152-.075.227-.115.351-.093-.25-.187-.496-.293-.867-.29-1.016-.603-2.398-.91-3.78-.307-1.381-.606-2.763-.875-3.812a13.456 13.456 0 0 0-.383-1.295c-.04-.109-.087-.194-.133-.285.273-.13.54-.207.805-.207zm-1.564.992c.09.265.192.6.306 1.045.26 1.017.56 2.395.867 3.78.308 1.384.624 2.774.926 3.835.151.53.296.976.45 1.32.076.173.152.32.257.456.017.021.048.043.069.066-.453.328-.885.506-1.311.506-.57 0-1.145-.317-1.773-.887-.628-.57-1.279-1.367-1.971-2.185-.063-.075-.134-.148-.197-.223.042-.046.085-.091.123-.14.237-.311.413-.69.572-1.12.318-.86.55-1.93.767-2.982.219-1.053.422-2.088.647-2.822a3.66 3.66 0 0 1 .268-.649zm-1.44 1.211a65.417 65.417 0 0 0-.453 2.057c-.216 1.044-.449 2.085-.727 2.838-.137.372-.288.67-.425.853-.042-.045-.08-.092-.121-.137-.093-.314-.19-.711-.297-1.125-.115-.442-.235-.885-.393-1.254a2.183 2.183 0 0 0-.209-.38c.687-.596 1.306-1.3 1.885-1.983.254-.3.497-.585.74-.869zm7.797 2.055c.439.462.908.891 1.412 1.254.213.196.436.385.68.552-1.225.657-2.234 1.79-3.143 2.864-.275.325-.54.637-.803.943.182-.695.366-1.5.575-2.332.234-.935.497-1.86.78-2.506.143-.323.293-.575.413-.71.058-.066.064-.054.086-.065zM5.584 11.693c.026.045.046.066.078.141.074.172.148.458.223.719a6.076 6.076 0 0 0-.903-.55c.145-.071.29-.142.428-.228.059-.03.115-.05.174-.082z" fill="currentColor" color="#565656"/></svg>