<svg xmlns="http://www.w3.org/2000/svg" width="24" height="24"><defs><style id="current-color-scheme" type="text/css"></style></defs><path d="M4 4v16h16V4H4zm1 1h12.719l-.469.469-.813.812-1.312 1.313L13 5.469 11.469 7 11 7.469l-.844.812L8.47 10H5V5zm14 .125v13.719l-.281-.282-.75-.75-.844-.812-1.281-1.313-.719-.687L13 17.094l-1.313-1.282-.812-.812-2-2H5v-2h3.875l2-2 .813-.844L13 6.875 15.125 9l2-2 .844-.844L19 5.125zM5 14h3.469l1.687 1.688.844.843.469.469L13 18.531l.531-.531 1.594-1.594 1.313 1.282.5.53.312.313.031.032.438.437H5v-5z" fill="currentColor" color="#565656"/></svg>