<svg xmlns="http://www.w3.org/2000/svg" width="24" height="24"><defs><style id="current-color-scheme" type="text/css"></style></defs><path d="M4 4v16h16V4H4zm1 1h14v2.387A11 6 0 0 0 12 6a11 6 0 0 0-7 1.38V5zm7 2a10 5 0 0 1 7 1.441v2.108A8 3 0 0 0 12 9a8 3 0 0 0-7 1.555v-2.11A10 5 0 0 1 12 7zm0 3a7 2 0 0 1 7 2 7 2 0 0 1-7 2 7 2 0 0 1-7-2 7 2 0 0 1 7-2zm7 3.445v2.114A10 5 0 0 1 12 17a10 5 0 0 1-7-1.445V13.45A8 3 0 0 0 12 15a8 3 0 0 0 7-1.555zm0 3.168V19H5v-2.38A11 6 0 0 0 12 18a11 6 0 0 0 7-1.387z" fill="currentColor" color="#565656"/></svg>