<svg xmlns="http://www.w3.org/2000/svg" width="24" height="24"><defs><style id="current-color-scheme" type="text/css"></style></defs><path d="M4 4v16h16V4H4zm1 1h4v4.707A7 3 0 0 1 5 7V5zm5 0h4v4.873A7 3 0 0 1 12 10a7 3 0 0 1-2-.127V5zm5 0h4v2a7 3 0 0 1-4 2.707V5zM5 8.928a8 4 0 0 0 4 1.777v2.59a8 4 0 0 0-4 1.777V8.928zm14 .008v6.128a8 4 0 0 0-4-1.77v-2.589a8 4 0 0 0 4-1.77zm-9 1.931A8 4 0 0 0 12 11a8 4 0 0 0 2-.13v2.26a8 4 0 0 0-2-.13 8 4 0 0 0-2 .133v-2.266zM12 14a7 3 0 0 1 2 .127V19h-4v-4.873A7 3 0 0 1 12 14zm-3 .293V19H5v-2a7 3 0 0 1 4-2.707zm6 0A7 3 0 0 1 19 17v2h-4v-4.707z" fill="currentColor" color="#565656"/></svg>