<svg width="24" height="24" version="1.1" viewBox="0 0 24 24" xmlns="http://www.w3.org/2000/svg">
 <defs>
  <style id="current-color-scheme" type="text/css">.ColorScheme-Text {
        color:#565656;
      }
      .ColorScheme-NegativeText{
        color:#e74c3c;
      }</style>
 </defs>
 <path class="ColorScheme-NegativeText" d="m17.5 13a4.5 4.5 0 0 0-4.5 4.5 4.5 4.5 0 0 0 4.5 4.5 4.5 4.5 0 0 0 4.5-4.5 4.5 4.5 0 0 0-4.5-4.5zm-2.1211 1.8789c0.12781 0 0.25558 0.0485 0.35352 0.14648l1.7676 1.7676 1.7676-1.7676c0.19587-0.19587 0.51116-0.19587 0.70703 0 0.19587 0.19587 0.19587 0.51116 0 0.70703l-1.7676 1.7676 1.7676 1.7676c0.19587 0.19587 0.19587 0.51116 0 0.70703-0.19587 0.19587-0.51116 0.19587-0.70703 0l-1.7676-1.7676-1.7676 1.7676c-0.19587 0.19587-0.51116 0.19587-0.70703 0-0.19587-0.19587-0.19587-0.51116 0-0.70703l1.7676-1.7676-1.7676-1.7676c-0.19587-0.19587-0.19587-0.51116 0-0.70703 0.09793-0.0979 0.22571-0.14648 0.35352-0.14648z" fill="currentColor"/>
 <path class="ColorScheme-Text" d="m19.07 3.9277c-0.25562 0-0.51116 0.0991-0.70703 0.29493l-3.5352 3.5352-0.70703-0.70703c-0.78347-0.78347-2.0447-0.78346-2.8281 0l-1.4141 1.4141 1.4141 1.4141 1.4141-1.4141 2.8281 2.8281-1.4141 1.4141 0.26953 0.26953a5.5 5.5 0 0 1 3.0137-0.96875c0.27415-0.71418 0.12257-1.5512-0.45508-2.1289l-0.70703-0.70703 3.5352-3.5352c0.39174-0.39175 0.39173-1.0223 0-1.4141-0.19587-0.19587-0.45141-0.29492-0.70703-0.29493zm-10.605 5.9512-1.4141 1.4141c-0.78348 0.78348-0.78347 2.0446 0 2.8281l0.70703 0.70703-3.5352 3.5352c-0.39173 0.39174-0.39173 1.0224 0 1.4141 0.39174 0.39174 1.0223 0.39174 1.4141 0l3.5352-3.5352 0.70703 0.70703c0.57766 0.57764 1.4147 0.72922 2.1289 0.45508a5.5 5.5 0 0 1 0.96875-3.0137l-0.26953-0.26953-1.4141 1.4141-2.8281-2.8281 1.4141-1.4141z" fill="currentColor"/>
</svg>
