<svg xmlns="http://www.w3.org/2000/svg" width="24" height="24"><defs><style id="current-color-scheme" type="text/css"></style></defs><path d="M18.533 6.006a.5.5 0 0 0-.469.574c.222 1.617-.043 3.782-1.05 5.483-.652 1.099-1.593 2.012-2.942 2.525v-1.594h-5v1.664c-1.43-.485-2.401-1.403-3.049-2.525-.959-1.663-1.173-3.794-.925-5.416a.5.5 0 1 0-.989-.153c-.28 1.83-.059 4.146 1.05 6.067.794 1.378 2.087 2.52 3.913 3.06v2.303h5v-2.373a6.844 6.844 0 0 0 3.803-3.049c1.154-1.948 1.431-4.293 1.18-6.129a.5.5 0 0 0-.522-.437z" fill="currentColor" color="#565656"/></svg>