<svg xmlns="http://www.w3.org/2000/svg" width="24" height="24"><defs><style id="current-color-scheme" type="text/css"></style></defs><path d="M19.496 4.996a.5.5 0 0 0-.488.461c-.391 4.134-2.237 6.8-5.104 8.951l-2.326-2.326a14.333 14.333 0 0 0-.5-1.922c-.453-1.32-1.139-2.604-2.205-3.568C7.807 5.627 6.356 5.004 4.5 5.004a.5.5 0 1 0 0 1c1.638 0 2.805.52 3.701 1.33.896.81 1.516 1.937 1.932 3.15.266.775.427 1.566.55 2.336L8 15.504l3.5 3.5 3.5-3.5-.352-.352c2.97-2.298 4.945-5.253 5.356-9.601a.5.5 0 0 0-.508-.555z" fill="currentColor" color="#565656"/></svg>