<svg xmlns="http://www.w3.org/2000/svg" width="24" height="24"><defs><style id="current-color-scheme" type="text/css"></style></defs><path d="M16.037 5.207c-.095 0-.156.012-.156.012l-9.844 1.75c-.985.173-.812 1.156-.812 1.156l.5 2.875h12.187l-.875-4.969c-.13-.738-.715-.826-1-.824zM5 12v1h1v-1H5zm2 0v1h1v-1H7zm2 0v1h1v-1H9zm2 0v1h1v-1h-1zm2 0v1h1v-1h-1zm2 0v1h1v-1h-1zm2 0v1h1v-1h-1zm2 0v1h1v-1h-1zM6.25 14l.719 3.969c.173.985 1.156.812 1.156.812l9.844-1.75s.986-.171.812-1.156L18.441 14H6.25z" fill="currentColor" color="#565656"/></svg>