<svg xmlns="http://www.w3.org/2000/svg" width="24" height="24"><defs><style id="current-color-scheme" type="text/css"></style></defs><path d="M6 6v2.992H5V9h1v9h12v-1H7v-1h3v-.008l.008.008 2-2H13.6l2 2H18v-1h-1.986l-2-2h-2.42l-2 2H7v-2h1.875l2-2H9.461l-1 1H7V9h1v-.008H7V6H6zm2 0v1h1v3h1V6H8zm4.5 0c-.831 0-1.5.669-1.5 1.5v1c0 .831.669 1.5 1.5 1.5S14 9.331 14 8.5v-1c0-.831-.669-1.5-1.5-1.5zm4 0c-.831 0-1.5.669-1.5 1.5v1c0 .831.669 1.5 1.5 1.5S18 9.331 18 8.5v-1c0-.831-.669-1.5-1.5-1.5zm-4 1c.277 0 .5.223.5.5v1a.499.499 0 1 1-1 0v-1c0-.277.223-.5.5-.5zm4 0c.277 0 .5.223.5.5v1a.499.499 0 1 1-1 0v-1c0-.277.223-.5.5-.5z" fill="currentColor" color="#565656"/></svg>