<svg xmlns="http://www.w3.org/2000/svg" width="24" height="24"><defs><style id="current-color-scheme" type="text/css">.ColorScheme-Text{color:#565656}</style></defs><path class="ColorScheme-Text" d="M6 6v1.527h-.996v.008H6V15H5v.008h1V18h12v-2.133l-.041-.039L15.131 13l-.004.004-.006-.004-2.123 2.123L9.875 12H7V7.535h4.465l-2.467 2.467H7.002v1h2.41l3.59-3.59 2.123 2.123.006-.004.004.004 2.828-2.828c.003.005-.707-.707-.707-.707L15.13 8.125 13.004 6l-.002.002L13 6l-1.527 1.527H7V6H6zm1 7h2.46l2 2H7v-2zm8.127 1.41l2.125 2.125.482.465H7v-1.992h4.469l1.527 1.527.002-.002.002.002 2.127-2.125z" fill="currentColor"/><path class="ColorScheme-Text" d="M17.46 6.22l-2.451 2.779-2-3-4 4h-2v7h11V6.741z" fill="currentColor" opacity=".5"/></svg>