<svg xmlns="http://www.w3.org/2000/svg" width="24" height="24"><defs><style id="current-color-scheme" type="text/css"></style></defs><path d="M12.281 3c-2.016 0-3.305.549-4.531 1.365-.742.487-1.299 1.085-1.67 1.791-.387.691-.58 1.931-.58 2.873h4.984l-.023-.777c.024-1.578.885-1.766 1.385-1.766.451 0 .837.124 1.16.375.339.252.51.582.51.99 0 .581-.474.86-1.067 1.366-.95.81-1.765 1.432-1.959 1.62-.71.676-1.624 1.272-1.347 3.425h5.04c0-.88.002-1.406.76-1.893l2.3-1.857C18.08 9.805 18.5 8.84 18.5 7.615c0-1.46-.685-2.62-2.057-3.484C15.233 3.377 13.846 3 12.281 3zm-3.07 13.094V21h4.937v-4.906H9.211z" fill="currentColor" color="#565656"/></svg>