<svg xmlns="http://www.w3.org/2000/svg" width="24" height="24"><defs><style id="current-color-scheme" type="text/css"></style></defs><path d="M18.5 5a1.5 1.5 0 0 0-1.44 1.084C11.73 7.186 7.018 10.742 6.067 17.066A1.5 1.5 0 0 0 5 18.5 1.5 1.5 0 0 0 6.5 20 1.5 1.5 0 0 0 8 18.5a1.5 1.5 0 0 0-.93-1.387c.91-5.788 5.113-8.96 10.055-10.02A1.5 1.5 0 0 0 18.5 8 1.5 1.5 0 0 0 20 6.5 1.5 1.5 0 0 0 18.5 5zM13 11v9l3.5-2.25 2.5-1.607V20h1v-9h-1v3.857l-2.5-1.607L13 11z" fill="currentColor" color="#565656"/></svg>