<svg xmlns="http://www.w3.org/2000/svg" width="24" height="24"><defs><style id="current-color-scheme" type="text/css"></style></defs><path d="M7 5a2 2 0 0 0-2 2 2 2 0 0 0 2 2 2 2 0 0 0 2-2 2 2 0 0 0-2-2zm8.11 0c-.26.004-.508.11-.692.293l-3.5 3.5-.5.5-2 2-1.5 1.5-.5.5-1.125 1.125a1 1 0 0 0 0 1.414l2.875 2.875a1 1 0 0 0 1.414 0l1.125-1.125.5-.5 3.5-3.5.5-.5 3.5-3.5a1 1 0 0 0 0-1.414l-2.875-2.875A.999.999 0 0 0 15.109 5zm-3.485 5.914l.012.012 1.437 1.437.012.012-3.293 3.293-.5.5-.418.418-1.46-1.461.417-.418.5-.5 1.5-1.5 1.793-1.793z" fill="currentColor" color="#565656"/></svg>