<svg xmlns="http://www.w3.org/2000/svg" width="24" height="24"><defs><style id="current-color-scheme" type="text/css"></style></defs><path d="M10.5 5C9.698 5 9 5.647 9 6.45V8H5.965C5.43 8 5 8.326 5 8.861V12h1.45c.802 0 1.55.698 1.55 1.5S7.252 15 6.45 15H5v3.033c0 .535.43.967.965.967H9v-.967c0-.802.018-1.992 1.5-2.033 1.482-.041 1.5 1.291 1.5 2.033V19h3.139c.535 0 .861-.432.861-.967V15h1.553c.802 0 1.447-.698 1.447-1.5s-.654-1.377-1.447-1.5H16V8.861c0-.535-.326-.861-.861-.861H12V6.45C12 5.646 11.302 5 10.5 5z" fill="currentColor" color="#565656"/></svg>