<svg xmlns="http://www.w3.org/2000/svg" width="24" height="24"><defs><style id="current-color-scheme" type="text/css"></style></defs><path d="M12 4c-.486 1.702-1.663 3.172-2.188 4.344-.183.348-.312.733-.312 1.156 0 1.385 1.115 2.5 2.5 2.5s2.5-1.115 2.5-2.5c0-.423-.098-.808-.281-1.156C13.694 7.172 12.487 5.703 12 4zm-4.5 8c-.486 1.703-1.663 3.172-2.188 4.344C5.13 16.692 5 17.077 5 17.5 5 18.885 6.115 20 7.5 20s2.5-1.115 2.5-2.5c0-.423-.098-.808-.281-1.156C9.194 15.172 7.987 13.703 7.5 12zm9 0c-.486 1.703-1.663 3.172-2.188 4.344-.183.348-.312.733-.312 1.156 0 1.385 1.115 2.5 2.5 2.5s2.5-1.115 2.5-2.5c0-.423-.098-.808-.281-1.156-.525-1.172-1.733-2.641-2.219-4.344z" fill="currentColor" color="#565656"/></svg>