<svg xmlns="http://www.w3.org/2000/svg" width="24" height="24"><defs><style id="current-color-scheme" type="text/css"></style></defs><path d="M10 6a3 3 0 1 0 0 6 3 3 0 0 0 0-6zm5 1.951c-.388 0-.753.09-1.084.238a3.97 3.97 0 0 1-1.1 3.641A2.6 2.6 0 0 0 15 13.004c1.433 0 2.594-1.13 2.594-2.525 0-1.396-1.161-2.528-2.594-2.528zM10 14c-6 .003-6 4.004-6 4.004v1c.88.003 13.517-.002 10-.004a1 1 0 0 1-1-1v-2a1 1 0 0 1 1-1h.154c-.888-.573-2.199-1.001-4.154-1zm6 0v2h-2v2h2v2h2v-2h2v-2h-2v-2h-2z" fill="currentColor" color="#565656"/></svg>