<svg xmlns="http://www.w3.org/2000/svg" width="24" height="24"><defs><style id="current-color-scheme" type="text/css"></style></defs><path d="M11 5v1.086a6 6 0 0 0-2.47 1.03l-.772-.772-1.414 1.414.77.77A6 6 0 0 0 6.09 11H5v2h1.086a6 6 0 0 0 1.03 2.47l-.772.772 1.414 1.414.77-.77A6 6 0 0 0 11 17.91V19h2v-1.086a6 6 0 0 0 2.47-1.03l.772.772 1.414-1.414-.77-.77A6 6 0 0 0 17.91 13H19v-2h-1.086a6 6 0 0 0-1.03-2.47l.772-.772-1.414-1.414-.77.77A6 6 0 0 0 13 6.09V5h-2zm-.414 4.172L12 10.586l1.414-1.414 1.414 1.414L13.414 12l1.414 1.414-1.414 1.414L12 13.414l-1.414 1.414-1.414-1.414L10.586 12l-1.414-1.414 1.414-1.414z" fill="currentColor" color="#565656"/></svg>