<svg xmlns="http://www.w3.org/2000/svg" width="24" height="24"><defs><style id="current-color-scheme" type="text/css"></style></defs><path d="M11 5v1.086a6.001 6.001 0 0 0-2.47 1.03l-.772-.772-1.414 1.414.77.77A6 6 0 0 0 6.09 11H5v2h1.086c.153.89.505 1.735 1.03 2.47l-.772.772 1.414 1.414.77-.77A5.99 5.99 0 0 0 11 17.91V19h2v-1.086a6.003 6.003 0 0 0 2.47-1.03l.772.772 1.414-1.414-.77-.77A5.992 5.992 0 0 0 17.91 13H19v-2h-1.086a6.001 6.001 0 0 0-1.03-2.47l.772-.772-1.414-1.414-.77.77A6.002 6.002 0 0 0 13 6.09V5h-2zm0 5h4v4h-4l-2-2 2-2z" fill="currentColor" color="#565656"/></svg>