<svg xmlns="http://www.w3.org/2000/svg" width="24" height="24"><defs><style id="current-color-scheme" type="text/css"></style></defs><path d="M14.584 5.555l-1.338 2.511H4v7.868h5.057l-.963 1.806 1.322.705 1.338-2.511H20V8.066h-5.057l.963-1.806-1.322-.705zM4.768 8.6h8.193l-.498.937h-.121v.227l-1.46 2.74v-1.535h-.759v2.96L9.34 15.4H4.768V8.6zm9.892 0h4.572v6.8H11.04l1.303-2.447V14.4h.76v-2.873L14.66 8.6zm-4.152 1.084a.576.576 0 0 0-.319.086c-.083.056-.125.146-.125.271 0 .123.042.213.125.272a.56.56 0 0 0 .319.087c.122 0 .226-.03.312-.087.09-.06.133-.15.133-.272a.319.319 0 0 0-.037-.16.292.292 0 0 0-.096-.111.379.379 0 0 0-.142-.063.638.638 0 0 0-.17-.023zm-4.485.148V14.4H6.8V12.47h2.23v-.512H6.8v-1.613h2.39v-.512H6.023zM16.2 10.906c-.28 0-.538.04-.771.121-.231.081-.43.201-.596.358a1.57 1.57 0 0 0-.389.564 1.983 1.983 0 0 0-.136.76c0 .281.05.531.15.75.1.22.242.402.422.55.184.149.401.262.654.339.253.077.532.115.838.115.142 0 .271-.006.39-.014a3.111 3.111 0 0 0 .682-.111c.109-.03.218-.064.328-.104v-.505a7.162 7.162 0 0 1-.32.103 3.992 3.992 0 0 1-.33.074 4.202 4.202 0 0 1-.742.059c-.42 0-.737-.093-.951-.283-.211-.19-.324-.487-.338-.889h2.887v-.352c0-.228-.042-.437-.125-.625a1.316 1.316 0 0 0-.35-.484 1.593 1.593 0 0 0-.56-.312 2.297 2.297 0 0 0-.743-.114zm-.015.473c.172 0 .318.022.441.068a.78.78 0 0 1 .3.194c.082.083.14.183.177.302.038.117.058.247.058.389h-2.053c.031-.31.137-.548.32-.71.187-.164.44-.243.757-.243z" fill="currentColor" color="#565656"/></svg>