<svg xmlns="http://www.w3.org/2000/svg" width="24" height="24"><defs><style id="current-color-scheme" type="text/css"></style></defs><path d="M15 4v1.746c-.35-.017-.712-.045-1.037-.037-1.05.027-1.97.185-2.781.457a6.611 6.611 0 0 0-3.56 2.793c-1.11 1.754-1.496 3.933-1.63 6.041H4v5h5v-2.053c4.258-.468 6.91-2.804 8.281-5.265A10.068 10.068 0 0 0 18.496 9H20V4h-5zm-1.008 2.709c.313-.008.665.017 1.008.035V9h2.492a9.235 9.235 0 0 1-1.084 3.193c-1.23 2.207-3.53 4.28-7.408 4.723V15H7.02c.133-2.002.495-4.002 1.447-5.508C9.145 8.42 10.09 7.59 11.5 7.115c.704-.236 1.528-.381 2.492-.406z" fill="currentColor" color="#565656"/></svg>