<svg xmlns="http://www.w3.org/2000/svg" width="24" height="24"><defs><style id="current-color-scheme" type="text/css"></style></defs><path d="M5.02 5.5a.5.5 0 0 0-.051.002.5.5 0 0 0-.033.996s3.686.513 6.298 2.176c1.307.831 2.308 1.91 2.557 3.32.225 1.274-.158 2.91-1.666 5.008h-1.123v3h3v-1.668c2.36-.391 3.768-1.448 4.535-2.545.965-1.378.965-2.787.965-2.787a.5.5 0 1 0-1 0s0 1.091-.785 2.213c-.588.84-1.777 1.604-3.715 1.959v-.172h-.822c1.282-1.975 1.851-3.73 1.595-5.18-.313-1.776-1.562-3.073-3.005-3.992-2.888-1.837-6.702-2.324-6.702-2.324A.5.5 0 0 0 5.02 5.5z" fill="currentColor" color="#565656"/></svg>