<svg xmlns="http://www.w3.org/2000/svg" width="24" height="24"><defs><style id="current-color-scheme" type="text/css"></style></defs><path d="M12 4a8 8 0 0 0-8 8 8 8 0 0 0 8 8 8 8 0 0 0 8-8 8 8 0 0 0-8-8zm1.545 1.91c0 5.727 4.39 6.554 3.271 9.817C16.178 17.587 14.62 19 11.908 19h-.025c1.342-.007 2.116-.71 2.433-1.635.56-1.631-1.636-2.046-1.636-4.91-2.046.818-3.272 2.736-3.272 4.092a2.45 2.45 0 0 0 1.92 2.39C8.895 18.648 7 16.605 7 14.093c0-2.711 2.454-6.546 6.545-8.182z" fill="currentColor" color="#565656"/></svg>