<svg xmlns="http://www.w3.org/2000/svg" width="24" height="24"><defs><style id="current-color-scheme" type="text/css"></style></defs><path d="M7.5 5A2.5 2.5 0 0 0 7 9.95v4.003a2.5 2.5 0 1 0 1-.002V9.945a2.5 2.5 0 0 0 1.066-.496l1.213.908A2.5 2.5 0 0 0 10 11.5a2.5 2.5 0 0 0 2.5 2.5 2.48 2.48 0 0 0 1.5-.512V16h-2l3.281 2.812.219.188.219-.188L19 16h-2v-3h-2.512A2.48 2.48 0 0 0 15 11.5 2.5 2.5 0 0 0 12.5 9a2.5 2.5 0 0 0-1.615.596L9.69 8.703A2.5 2.5 0 0 0 7.5 5z" fill="currentColor" color="#565656"/></svg>