<svg width="24" height="24" version="1.1" xmlns="http://www.w3.org/2000/svg">
 <defs>
  <style id="current-color-scheme" type="text/css">.ColorScheme-Text { color:#565656; } .ColorScheme-Highlight { color:#5294e2; }</style>
 </defs>
 <path class="ColorScheme-Text" d="m19.081 8.08c-0.26548 5.6e-4 -0.51985 0.10667-0.70703 0.29493-0.38935 0.39158-0.3876 1.0246 0.0039 1.4141l1.2129 1.207h-6.6017c-0.55228 0-1 0.44772-1 1s0.44772 1 1 1h6.6017l-1.2129 1.207c-0.3915 0.38943-0.39325 1.0225-0.0039 1.4141 0.3894 0.39153 1.0225 0.39332 1.4141 4e-3l2.9277-2.916c0.03767-0.0375 0.07229-0.078 0.10352-0.12109 0.06069-0.0833 0.10813-0.17559 0.14062-0.27344 6.73e-4 -2e-3 0.0013-4e-3 2e-3 -6e-3 6.78e-4 -3e-3 0.0013-5e-3 2e-3 -8e-3 0.03082-0.0972 0.04659-0.19856 0.04677-0.30054-1e-5 -0.0293-0.0013-0.0587-0.0039-0.0879-6.56e-4 -3e-3 -0.0013-5e-3 -2e-3 -8e-3 -0.0016-0.0157-0.0036-0.0313-0.0059-0.0469-0.0028-0.0183-6e-3 -0.0366-0.0098-0.0547-0.0029-0.0157-0.0062-0.0313-0.0098-0.0469-0.0013-5e-3 -0.0026-0.0104-0.0039-0.0156-0.0063-0.0237-0.01347-0.0471-0.02149-0.0703-0.01238-0.0353-0.02672-0.0698-0.04297-0.10351-0.01363-0.0287-0.02862-0.0567-0.04492-0.084-0.0026-5e-3 -0.0052-9e-3 -0.0078-0.0137-0.0045-7e-3 -9e-3 -0.0131-0.01367-0.0195-0.01301-0.0193-0.02669-0.0382-0.04101-0.0566-0.0039-5e-3 -0.0078-0.0104-0.01172-0.0156-0.0058-7e-3 -0.01162-0.0144-0.01758-0.0215-0.01799-0.0216-0.03689-0.0425-0.05664-0.0625-6.66e-4 -6.7e-4 -0.0013-1e-3 -2e-3 -2e-3l-2.9277-2.9141c-0.1875-0.18755-0.44183-0.29293-0.70703-0.29297z" fill="currentColor" opacity=".45"/>
 <path class="ColorScheme-Text" d="m10.989 3c-4.9587 0-9 4.0413-9 9s4.0413 9 9 9c2.179-9.9e-4 4.2843-0.7933 5.9238-2.2285a1 1 0 0 0 0.09375-1.4102 1 1 0 0 0-1.4102-0.0937c-1.2755 1.1165-2.9122 1.7316-4.6074 1.7324-3.8778 0-7-3.1222-7-7s3.1222-7 7-7c1.6952 7.7e-4 3.3319 0.61586 4.6074 1.7324a1 1 0 0 0 1.4102-0.0937 1 1 0 0 0-0.09375-1.4102c-1.6396-1.4353-3.7448-2.2276-5.9238-2.2286z" fill="currentColor"/>
</svg>
