<svg width="24" height="24" version="1.1" xmlns="http://www.w3.org/2000/svg">
 <defs>
  <style id="current-color-scheme" type="text/css">.ColorScheme-Text { color:#565656; } .ColorScheme-Highlight { color:#4285f4; }</style>
 </defs>
 <path class="ColorScheme-Text" d="m5 8c-0.554 0-1 0.446-1 1s0.446 1 1 1h14c0.554 0 1-0.446 1-1s-0.446-1-1-1zm0 6c-0.554 0-1 0.446-1 1s0.446 1 1 1h14c0.554 0 1-0.446 1-1s-0.446-1-1-1z" fill="currentColor"/>
 <path class="ColorScheme-Text" d="m14.756 3.756c-0.25562 0-0.51116 0.0971-0.70703 0.29297-0.39174 0.39174-0.39174 1.0223 0 1.4141l4.2422 4.2441c0.39174 0.39174 1.0243 0.39174 1.416 0s0.39174-1.0243 0-1.416l-4.2441-4.2422c-0.19587-0.19587-0.45141-0.29297-0.70703-0.29297zm-9.7559 10.244c-0.25562 0-0.51116 0.0971-0.70703 0.29297-0.39174 0.39174-0.39174 1.0243 0 1.416l4.2441 4.2422c0.39174 0.39174 1.0223 0.39174 1.4141 0s0.39174-1.0223 0-1.4141l-4.2422-4.2441c-0.19587-0.19587-0.45336-0.29297-0.70898-0.29297z" fill="currentColor" opacity=".45"/>
</svg>
