<svg width="24" height="24" version="1.1" xmlns="http://www.w3.org/2000/svg">
 <defs>
  <style id="current-color-scheme" type="text/css">.ColorScheme-Text { color:#565656; } .ColorScheme-Highlight { color:#5294e2; }</style>
 </defs>
 <g id="22-22-system-reboot" transform="translate(-31,-34)" class="ColorScheme-Text" fill="currentColor">
  <path d="m36.115 40.949c-0.25562 0-0.51116 0.09905-0.70703 0.29492-0.39174 0.39174-0.39174 1.0223 0 1.4141l2.6289 2.6289c0.39174 0.39174 1.0223 0.39174 1.4141 0 0.39174-0.39174 0.39174-1.0223 0-1.4141l-2.6289-2.6289c-0.19587-0.19587-0.45141-0.29492-0.70703-0.29492zm11.115 5.459c-0.25562 0-0.51116 0.09905-0.70703 0.29492-0.39174 0.39174-0.39174 1.0223 0 1.4141l2.6289 2.6289c0.39174 0.39174 1.0223 0.39174 1.4141 0s0.39174-1.0223 0-1.4141l-2.6289-2.6289c-0.19587-0.19587-0.45141-0.29492-0.70703-0.29492z" opacity=".45"/>
  <path d="m36.622 52.358c-2.8882-2.8995-3.4554-7.3974-1.3769-10.923a1 1 0 0 1 1.37-0.35355 1 1 0 0 1 0.35355 1.37c-1.6208 2.749-1.1825 6.2321 1.0689 8.4936 2.2607 2.2597 5.7498 2.702 8.5032 1.0786a1 1 0 0 1 1.37 0.35355 1 1 0 0 1-0.35355 1.37c-3.5303 2.0814-8.0354 1.5092-10.934-1.388a1.0001 1.0001 0 0 1-0.0014-0.0014zm1.4515-12.735a1 1 0 0 1 0.35355-1.37c3.5254-2.0785 8.0234-1.5113 10.923 1.3769a1.0001 1.0001 0 0 1 0.0028 0.0028c2.8882 2.8995 3.4554 7.3974 1.3769 10.923a1 1 0 0 1-1.37 0.35355 1 1 0 0 1-0.35355-1.37c1.6204-2.7485 1.1826-6.2307-1.0676-8.4922-2.2614-2.2526-5.7453-2.6914-8.4949-1.0703a1 1 0 0 1-1.37-0.35355z"/>
 </g>
</svg>
