<svg xmlns="http://www.w3.org/2000/svg" width="24" height="24"><defs><style id="current-color-scheme" type="text/css"></style></defs><path d="M10 4.04v1.132c-.977.142-1.81.397-2.463.799-1.01.615-1.516 1.558-1.516 2.83-.004 2.195 1.558 2.918 3.979 3.584v4.992c-1.173-.099-2.245-.32-3.377-.805L6 17.93c.564.3 1.327.562 2.29.785.543.122 1.11.2 1.71.254v1.07h3v-1.117c1.997-.285 3.98-1.204 3.959-3.69-.07-1.828-1.203-2.507-3.959-3.476V6.803c.903.12 2.002.372 3.225.982L17 6.242c-.551-.295-1.831-.766-2.646-.941A11.717 11.717 0 0 0 13 5.1V4.04h-3zm0 2.759v3.998c-1.227-.435-2.357-1.093-2.324-2.192C7.616 7.565 8.68 7.015 10 6.8zm3 6.451c1.281.449 2.32 1.035 2.297 2.064-.04 1.396-1.132 1.883-2.297 2.05V13.25z" fill="currentColor" color="#565656"/></svg>