<svg xmlns="http://www.w3.org/2000/svg" width="24" height="24"><defs><style id="current-color-scheme" type="text/css"></style></defs><path d="M10 5L5 19h2.5l1.063-3h3.462a3.5 3.5 0 0 1 2.971-3.06L12 5h-2zm1 4l1.75 5h-3.5L11 9zm4.5 4v.857c-1.381 0-2.5 1.15-2.5 2.57S14.119 19 15.5 19c1.367 0 2.476-1.13 2.498-2.53a.417.429 0 0 0 .002-.042.417.429 0 0 0-.416-.428.417.429 0 0 0-.418.428c0 .947-.746 1.715-1.666 1.715-.92 0-1.666-.768-1.666-1.715 0-.947.746-1.713 1.666-1.713v.857l1.666-1.287L15.5 13z" fill="currentColor" color="#565656"/></svg>