<svg xmlns="http://www.w3.org/2000/svg" width="24" height="24"><defs><style id="current-color-scheme" type="text/css"></style></defs><path d="M5 5v5h2.5A1.5 1.5 0 0 0 9 8.5c0-.533-.268-1.015-.688-1.281.116-.213.188-.46.188-.719A1.5 1.5 0 0 0 7 5H5zm10 0v5h2.5A1.5 1.5 0 0 0 19 8.5v-2A1.5 1.5 0 0 0 17.5 5H15zM6 6h1a.5.5 0 0 1 0 1H6V6zm10 0h1.5a.5.5 0 0 1 .5.5v2a.5.5 0 0 1-.5.5H16V6zm-6 1v1h3V7h-3zM6 8h1.5a.5.5 0 0 1 0 1H6V8zm-1 4v2h4v-2H5zm6 0v2h2v-2h-2zm4 0v2h4v-2h-4zm-5 4l-4 1.5 4 1.5v-3zm4 0v3l4-1.5-4-1.5zm-2 1a.5.5 0 1 0 0 1 .5.5 0 0 0 0-1z" fill="currentColor" color="#565656"/></svg>