<svg xmlns="http://www.w3.org/2000/svg" width="24" height="24"><defs><style id="current-color-scheme" type="text/css"></style></defs><path d="M12 6v9.023h3.002c.939 0 1.769-.372 2.299-.959.53-.586.766-1.336.756-2.066a3.077 3.077 0 0 0-.79-2.043C16.738 9.378 15.919 9 14.999 9h-1.002V6H12zM6.006 7l-.008 2 2.922.012h.002c-.055 0 .084.16.084.082v.924H8.002c-1.716 0-3.03 1.125-3.055 2.484-.012.68.306 1.363.862 1.822.555.46 1.315.7 2.193.7h3.004v-5.93c0-1.171-.887-2.082-2.084-2.082L6.006 7zM14 11h1.002c.422 0 .625.126.787.303.162.177.264.447.268.722.004.276-.089.53-.24.698-.152.167-.356.3-.815.3H14V11zm-5.998 1.018h1.004v1.005H8.002c-.52 0-.794-.136-.92-.24-.126-.104-.136-.174-.135-.246.003-.144.085-.52 1.055-.52zm-1 3.275l-2.354 2.353a.5.5 0 1 0 .707.708l1.647-1.647 2 2 2-2 2 2 2-2 2 2 2.353-2.353a.5.5 0 1 0-.707-.708l-1.646 1.647-2-2-2 2-2-2-2 2-2-2z" fill="currentColor" color="#565656"/></svg>