<svg xmlns="http://www.w3.org/2000/svg" width="24" height="24"><defs><style id="current-color-scheme" type="text/css"></style></defs><path d="M12.81 5.068a2 2 0 0 0-1.96 1.672 2 2 0 0 0 1.644 2.301 2 2 0 0 0 2.3-1.646 2 2 0 0 0-1.644-2.301 2 2 0 0 0-.34-.026zM8.587 6.414a1 1 0 0 0-1 1 1 1 0 0 0 1 1 1 1 0 0 0 1-1 1 1 0 0 0-1-1zm8.318.973a1 1 0 0 0-1 1 1 1 0 0 0 1 1 1 1 0 0 0 1-1 1 1 0 0 0-1-1zM7.06 9.182a2 2 0 0 0-1.961 1.672 2 2 0 0 0 1.646 2.3 2 2 0 0 0 2.3-1.644 2 2 0 0 0-1.646-2.301 2 2 0 0 0-.34-.027zm5.185 1.425a1 1 0 0 0-1 1 1 1 0 0 0 1 1 1 1 0 0 0 1-1 1 1 0 0 0-1-1zm4.68.211a2 2 0 0 0-1.961 1.672 2 2 0 0 0 1.644 2.301 2 2 0 0 0 2.303-1.645 2 2 0 0 0-1.646-2.3 2 2 0 0 0-.34-.028zM6.996 14.4a1 1 0 0 0-1 1 1 1 0 0 0 1 1 1 1 0 0 0 1-1 1 1 0 0 0-1-1zm4.176.532a2 2 0 0 0-1.96 1.673 2 2 0 0 0 1.645 2.301 2 2 0 0 0 2.301-1.646 2 2 0 0 0-1.644-2.301 2 2 0 0 0-.342-.027zM15.762 16a1 1 0 0 0-1 1 1 1 0 0 0 1 1 1 1 0 0 0 1-1 1 1 0 0 0-1-1z" fill="currentColor" color="#565656"/></svg>