<svg xmlns="http://www.w3.org/2000/svg" width="24" height="24"><defs><style id="current-color-scheme" type="text/css"></style></defs><path d="M9.012 5c-1 0-.998.934-.998.934-.002.003 0 .66 0 .746a7 7 0 0 1 2.99-.68 7 7 0 0 1 7 7 7 7 0 0 1-3.399 5.994h4.399s.063.015.156 0c.281-.044.844-.234.844-.933V5.936c0-.934-1-.936-1-.936H9.012zM11 7c-3.293 0-6 2.707-6 6s2.707 6 6 6 6-2.707 6-6-2.707-6-6-6zm0 4.285c.942 0 1.715.773 1.715 1.715 0 .942-.773 1.715-1.715 1.715A1.722 1.722 0 0 1 9.285 13c0-.942.773-1.715 1.715-1.715z" fill="currentColor" color="#565656"/></svg>