<svg xmlns="http://www.w3.org/2000/svg" width="24" height="24"><defs><style id="current-color-scheme" type="text/css">.ColorScheme-Text{color:#565656}</style></defs><path class="ColorScheme-Text" d="M.508 3.008a.5.5 0 0 0-.5.5v16.984a.5.5 0 0 0 .5.5h22.984a.5.5 0 0 0 .5-.5V3.508a.5.5 0 0 0-.5-.5H.508zm.5 1h6.004V15.08H3.96v-2l-2.953 2.461V4.008zm7.004 0h7.974V15.08H8.012V4.008zm8.974 0h6.006V15.54l-2.953-2.46v2h-3.053V4.007zM1.008 15.619L3.96 18.08v-2h3.05v3.912H1.009V15.62zm21.984 0v4.373h-6.006V16.08h3.053v2l2.953-2.46zm-14.98.461h7.974v3.912H8.012V16.08z" fill="currentColor"/><path class="ColorScheme-Text" d="M1 4v16h22V4H1z" fill="currentColor" opacity=".3"/></svg>