<svg xmlns="http://www.w3.org/2000/svg" width="24" height="24"><defs><style id="current-color-scheme" type="text/css">.ColorScheme-Text{color:#565656}</style></defs><path class="ColorScheme-Text" d="M13.5 0a.5.5 0 0 0-.5.5v8.977a.5.5 0 0 0 .5.5h7.992a.5.5 0 0 0 .5-.5V.5a.5.5 0 0 0-.5-.5H13.5zm1.002.986h5.994a.5.5 0 0 1 .5.5v6.998a.5.5 0 0 1-.5.5h-5.994a.5.5 0 0 1-.5-.5V1.486a.5.5 0 0 1 .5-.5zM9.5 3.976l-2.5 3h2v12h1v-12h2l-2.5-3zm4 10a.5.5 0 0 0-.5.5v8.975a.5.5 0 0 0 .5.5h7.992a.5.5 0 0 0 .5-.5v-8.974a.5.5 0 0 0-.5-.5H13.5zm1.002.987h5.994a.5.5 0 0 1 .5.5v6.998a.5.5 0 0 1-.5.5h-5.994a.5.5 0 0 1-.5-.5v-6.998a.5.5 0 0 1 .5-.5z" fill="currentColor"/><path class="ColorScheme-Text" d="M14 1v7.977h6.992V1H14zm0 13.977v7.974h6.992v-7.974H14z" fill="currentColor" opacity=".3"/></svg>