<svg xmlns="http://www.w3.org/2000/svg" width="24" height="24"><defs><style id="current-color-scheme" type="text/css">.ColorScheme-Text{color:#565656}</style></defs><path class="ColorScheme-Text" d="M.549 2.008a.5.5 0 0 0-.5.5V10.5a.5.5 0 0 0 .5.5h8.974a.5.5 0 0 0 .5-.5V2.508a.5.5 0 0 0-.5-.5H.55zm13.974 0a.5.5 0 0 0-.5.5V10.5a.5.5 0 0 0 .5.5H23.5a.5.5 0 0 0 .5-.5V2.508a.5.5 0 0 0-.5-.5h-8.977zM1.54 3.004h6.998a.5.5 0 0 1 .5.5v5.994a.5.5 0 0 1-.5.5H1.54a.5.5 0 0 1-.5-.5V3.504a.5.5 0 0 1 .5-.5zm13.977 0h6.998a.5.5 0 0 1 .5.5v5.994a.5.5 0 0 1-.5.5h-6.998a.5.5 0 0 1-.5-.5V3.504a.5.5 0 0 1 .5-.5zM17.023 12v2h-12v1h12v2l3-2.5-3-2.5z" fill="currentColor"/><path class="ColorScheme-Text" d="M1.049 3.008V10h7.974V3.008H1.05zm13.974 0V10H23V3.008h-7.977z" fill="currentColor" opacity=".3"/></svg>