<svg xmlns="http://www.w3.org/2000/svg" width="24" height="24"><defs><style id="current-color-scheme" type="text/css">.ColorScheme-Text{color:#565656}</style></defs><path class="ColorScheme-Text" d="M3 0L0 2.5 3 5V3h3V2H3V0zm0 5H.254a.716.348 34.65 0 0-.133.498L9.738 18.5a.716.348 34.65 0 0 .87.498h13.138a.716.348 34.65 0 0 .133-.498L14.262 5.498a.716.348 34.65 0 0-.87-.498H3zm-1.51.996H13.63l8.88 12.008H10.374L1.49 5.996zM21 19v2h-3v1h3v2l3-2.5-3-2.5z" fill="currentColor"/><path class="ColorScheme-Text" d="M1.992 6c-.277 0-.336.223-.133.498L10 17.502c.203.275.593.498.87.498h11.136c.277 0 .336-.223.133-.498L14 6.498c-.203-.275-.593-.498-.87-.498H1.993z" fill="currentColor" opacity=".3"/></svg>