<svg xmlns="http://www.w3.org/2000/svg" width="24" height="24"><defs><style id="current-color-scheme" type="text/css"></style></defs><path d="M6.508 6a.5.5 0 0 0 0 1h5.496c1.654 0 2.89.467 3.719 1.24C16.55 9.014 17 10.111 17 11.5a.5.5 0 0 0 1 0c0-1.611-.55-3.014-1.596-3.99C15.36 6.533 13.848 6 12.004 6H6.508zm0 3a.5.5 0 0 0 0 1h3.996c1.183 0 1.91.236 2.342.648.43.413.656 1.075.656 2.153a.5.5 0 0 0 1 0c0-1.223-.274-2.212-.967-2.875C12.842 9.263 11.82 9 10.504 9H6.508zm8.5 4.014v1.994h-2.002v.996h2.002V18l3.004-2.494-3.004-2.492zM8 14.992v1.03h1v-1.03H8zm2.018 0v1.03h1.97v-1.03h-1.97z" fill="currentColor" color="#565656"/></svg>