<svg xmlns="http://www.w3.org/2000/svg" width="24" height="24"><defs><style id="current-color-scheme" type="text/css">.ColorScheme-Text{color:#565656}</style></defs><path class="ColorScheme-Text" d="M18.77 0a.348.716 34.65 0 0-.27.121L5.498 9.738a.348.716 34.65 0 0-.498.87v13.138a.348.716 34.65 0 0 .498.133L18.5 14.262a.348.716 34.65 0 0 .498-.87V.255A.348.716 34.65 0 0 18.811 0a.348.716 34.65 0 0-.041 0zM5 21H3v-3H2v3H0l2.5 3L5 21zM21.5 0L19 3h2v3h1V3h2l-2.5-3zm-3.496 1.49v12.137L5.996 22.51V10.37l12.008-8.88z" fill="currentColor"/><path class="ColorScheme-Text" d="M17.855 1.746c-.09-.024-.216.014-.353.115L6.498 10c-.275.203-.498.593-.498.87v11.138c0 .277.223.336.498.133L17.502 14c.275-.203.498-.593.498-.87V1.995c0-.138-.054-.224-.145-.248z" fill="currentColor" opacity=".3"/></svg>