<svg xmlns="http://www.w3.org/2000/svg" width="24" height="24"><defs><style id="current-color-scheme" type="text/css"></style></defs><path d="M12.01 5.69c-1.832 0-3.325 1.552-3.38 3.49a.578.578 0 0 0-.13.054c-.421.23-.53.945-.242 1.608.232.533.644.864 1.017.853.282 1.773 1.402 3.094 2.735 3.094h.011c1.333 0 2.454-1.321 2.735-3.094.374.01.786-.32 1.017-.853.289-.663.18-1.378-.242-1.608a.579.579 0 0 0-.13-.054c-.055-1.938-1.548-3.49-3.38-3.49h-.011zm2.385 9.384c-.29.688-1.274 1.203-2.45 1.203-1.17 0-2.145-.508-2.44-1.191-2.468.253-4.267.874-4.484 1.607-.003.007.002.015 0 .022-.007.026-.008.05-.011.076-.001.012-.01.02-.01.033v1.826c0 .194.156.35.35.35h13.298a.35.35 0 0 0 .352-.35v-1.814-.024c-.002-.042-.02-.077-.033-.119-.221-.742-2.059-1.371-4.572-1.619z" fill="currentColor" color="#565656"/></svg>