<svg width="24" height="24" version="1.1" xmlns="http://www.w3.org/2000/svg">
 <defs>
  <style id="current-color-scheme" type="text/css">.ColorScheme-Text { color:#565656; } .ColorScheme-Highlight { color:#5294e2; }</style>
 </defs>
 <path style="fill:currentColor" class="ColorScheme-Text" d="m6.1992 4.5c-1.207 0-2.1992 1.007-2.1992 2.209v10.582c0 1.202 0.99322 2.209 2.1992 2.209h11.602c1.206 0 2.1992-1.007 2.1992-2.209v-10.582c0-1.202-0.99322-2.209-2.1992-2.209zm0 2h11.602c0.124 0 0.19922 0.070984 0.19922 0.20898v10.582c0 0.138-0.075219 0.20898-0.19922 0.20898h-11.602c-0.124 0-0.19922-0.070984-0.19922-0.20898v-10.582c0-0.138 0.075219-0.20898 0.19922-0.20898zm2.2949 3.8945a0.6 0.6 0 0 0-0.41797 1.0293l1.5762 1.5762-1.5762 1.5762a0.6 0.6 0 1 0 0.84766 0.84766l2-2a0.6 0.6 0 0 0 0-0.84766l-2-2a0.6 0.6 0 0 0-0.42969-0.18164zm3.5059 4.1055v1h3v-1z"/>
</svg>
