<svg xmlns="http://www.w3.org/2000/svg" width="24" height="24"><defs><style id="current-color-scheme" type="text/css"></style></defs><path d="M4 5v13.996c3 0 6 0 9 .002v-6h6V13h1V5.004C14.667 5.006 9.333 4.998 4 5zm9 2h6v1h-6V7zM7.5 8C8.331 8 9 8.667 9 9.498v1.5h1v3H5v-3h1v-1.5C6 8.668 6.669 8 7.5 8zm0 .998c-.277 0-.5.223-.5.5v1.5h1v-1.5c0-.277-.223-.5-.5-.5zm5.5 1h6v1h-6v-1zM16 14v.586l-.414-.414-1.414 1.414.414.414H14v2h.586l-.414.414 1.414 1.414.414-.414V20h2v-.586l.414.414 1.414-1.414-.414-.414H20v-2h-.586l.414-.414-1.414-1.414-.414.414V14h-2zm1 2a1 1 0 0 1 1 1 1 1 0 0 1-1 1 1 1 0 0 1-1-1 1 1 0 0 1 1-1z" fill="currentColor" color="#565656"/></svg>