<svg xmlns="http://www.w3.org/2000/svg" width="24" height="24"><defs><style id="current-color-scheme" type="text/css"></style></defs><path d="M10 6a3 3 0 1 0 0 6 3 3 0 0 0 0-6zm4.996 1.945L15 7.95c-.388 0-.753.09-1.084.239a3.97 3.97 0 0 1-1.1 3.64 2.6 2.6 0 0 0 2.18 1.17c1.433 0 2.594-1.13 2.594-2.525s-1.161-2.528-2.594-2.528zM10 13.996C4 14 4 18 4 18v1h12v-1s0-4.01-6-4v-.004zm5 .002V14c-.196 0-.372.013-.553.021.698.4 1.23.878 1.604 1.377.94 1.26.949 2.6.949 2.6h3v-1s0-3-5-3z" fill="currentColor" color="#565656"/></svg>