<svg xmlns="http://www.w3.org/2000/svg" width="24" height="24"><defs><style id="current-color-scheme" type="text/css"></style></defs><path d="M10.004 6a6 6 0 0 0-6 6 6 6 0 0 0 6 6 6 6 0 0 0 1.998-.352 6 6 0 0 0 2.002.352 6 6 0 0 0 6-6 6 6 0 0 0-6-6 6 6 0 0 0-2 .35 6 6 0 0 0-2-.35zM9.51 8.035A6 6 0 0 0 8.004 12a6 6 0 0 0 1.504 3.965A4 4 0 0 1 6.004 12 4 4 0 0 1 9.51 8.035zm4.988 0A4 4 0 0 1 18.004 12a4 4 0 0 1-3.508 3.965A6 6 0 0 0 16.004 12a6 6 0 0 0-1.506-3.965zm-2.492.506A4 4 0 0 1 14.004 12a4 4 0 0 1-2.002 3.459A4 4 0 0 1 10.004 12a4 4 0 0 1 2.002-3.459z" fill="currentColor" color="#565656"/></svg>