<svg xmlns="http://www.w3.org/2000/svg" width="24" height="24"><defs><style id="current-color-scheme" type="text/css"></style></defs><path d="M11.5 4v1.813h1V4h-1zM6.687 5.969l-.718.718L7.25 8l.719-.75-1.282-1.281zm10.624 0L16.03 7.25l.719.75 1.281-1.313-.72-.718zM12 7a5 5 0 1 0 0 10 5 5 0 0 0 0-10zm0 2a3 3 0 0 1 3 3 3 3 0 0 1-3 3 3 3 0 0 1-3-3 3 3 0 0 1 3-3zm-8 2.5v1h1.813v-1H4zm14.188 0v1H20v-1h-1.813zM7.25 16.031l-1.281 1.282.718.718L7.97 16.75l-.719-.719zm9.5 0l-.719.719 1.28 1.281.72-.718-1.281-1.282zm-5.25 2.157V20h1v-1.813h-1z" fill="currentColor" color="#565656"/></svg>