<svg xmlns="http://www.w3.org/2000/svg" width="24" height="24"><defs><style id="current-color-scheme" type="text/css"></style></defs><path d="M5.998 5s-.08.004-.18.023a.9.9 0 0 0-.472.204.886.886 0 0 0-.065.054.86.86 0 0 0-.054.065.9.9 0 0 0-.204.472C5.004 5.924 5 6 5 6v12c0 1 1 1 1 1h12s1 0 1-1V6s-.004-.076-.023-.182a.9.9 0 0 0-.204-.472.885.885 0 0 0-.054-.065.845.845 0 0 0-.065-.054.9.9 0 0 0-.472-.204C18.076 5.004 18 5 18 5H5.998zM7 10h10v7H7v-7zm5 1l-3 2.5 3 2.5v-2h3v-1h-3v-2z" fill="currentColor" color="#565656"/></svg>