<svg xmlns="http://www.w3.org/2000/svg" width="24" height="24"><defs><style id="current-color-scheme" type="text/css"></style></defs><path d="M6 5s-.076.004-.182.023a.9.9 0 0 0-.472.204.86.86 0 0 0-.065.054.86.86 0 0 0-.054.065.9.9 0 0 0-.204.472C5.004 5.924 5 6 5 6v12c0 1 1 1 1 1h6v-2H7v-7h10v2h2V6s-.004-.076-.023-.182a.904.904 0 0 0-.204-.472 1.065 1.065 0 0 0-.054-.065.88.88 0 0 0-.065-.054.9.9 0 0 0-.472-.204C18.076 5.004 18 5 18 5H6zm7.5 8s-.037.002-.09.012a.45.45 0 0 0-.236.101.446.446 0 0 0-.033.028.45.45 0 0 0-.129.27.71.71 0 0 0-.012.089v6c0 .5.5.5.5.5h6s.5 0 .5-.5v-6s-.002-.037-.012-.09a.448.448 0 0 0-.101-.236.332.332 0 0 0-.028-.033.45.45 0 0 0-.27-.129c-.052-.01-.089-.012-.089-.012h-6zm.5 3h5v3h-5v-3z" fill="currentColor" color="#565656"/></svg>