<svg xmlns="http://www.w3.org/2000/svg" width="24" height="24"><defs><style id="current-color-scheme" type="text/css"></style></defs><path d="M15.004 7.982a1 1 0 0 0-.707.293l-2.293 2.293L9.72 8.285a1 1 0 0 0-.01-.01 1 1 0 0 0-.701-.289L9 8a1 1 0 0 0-1 1 1 1 0 0 0 .293.707L10.586 12l-2.293 2.293a1 1 0 0 0-.29.7 1 1 0 0 0 1 1 1 1 0 0 0 .708-.294l2.293-2.293 2.283 2.283a1 1 0 0 0 .717.303 1 1 0 0 0 1-1 1 1 0 0 0-.293-.707l-2.3-2.299 2.282-2.283a1 1 0 0 0 .31-.72 1 1 0 0 0-1-1z" fill="currentColor" color="#565656"/></svg>