<svg xmlns="http://www.w3.org/2000/svg" width="24" height="24"><defs><style id="current-color-scheme" type="text/css"></style></defs><path d="M11.994 6c-1.87 0-3.394 1.534-3.45 3.451a.605.605 0 0 0-.134.053c-.43.227-.54.936-.246 1.592.237.527.658.854 1.04.843.286 1.753 1.43 3.061 2.79 3.061h.012c1.36 0 2.504-1.308 2.79-3.06.382.01.801-.317 1.038-.844.294-.656.186-1.365-.244-1.592a.605.605 0 0 0-.135-.053C15.4 7.534 13.875 6 12.005 6h-.01zm2.4 9c-.288.7-1.273 1.227-2.449 1.227-1.17 0-2.145-.52-2.44-1.215-2.468.258-4.267.89-4.484 1.636-.003.008.002.017 0 .024-.007.027-.008.05-.011.078-.001.012-.01.02-.01.033v1.86c0 .197.156.357.35.357h13.3c.194 0 .35-.16.35-.357v-1.85-.022c-.002-.043-.02-.08-.033-.123-.221-.756-2.058-1.396-4.572-1.648z" fill="currentColor" color="#565656"/></svg>