<svg width="64" height="64" version="1.1" viewBox="0 0 16.933 16.933" xmlns="http://www.w3.org/2000/svg" xmlns:xlink="http://www.w3.org/1999/xlink">
 <defs>
  <linearGradient id="a" x1="-197.1" x2="-196.91" y1="217.68" y2="219.37" gradientTransform="rotate(-45 -338.07 -140.03)" gradientUnits="userSpaceOnUse">
   <stop offset="0"/>
   <stop stop-opacity="0" offset="1"/>
  </linearGradient>
 </defs>
 <g transform="translate(0 -280.07)">
  <path d="M3.44 282.448c-.294 0-.395.269-.53.53h-.793a.528.528 0 0 0-.53.528v5.292c0 .293.237.53.53.53h12.7c.293 0 .529-.237.529-.53v-5.292a.528.528 0 0 0-.53-.529H7.674c-.155-.249-.236-.53-.53-.53z" fill="#4d4d4d" paint-order="markers stroke fill"/>
  <path d="M3.44 282.448c-.294 0-.395.269-.53.53h-.793a.528.528 0 0 0-.53.528v5.292c0 .293.237.53.53.53h12.7c.293 0 .529-.237.529-.53v-5.292a.528.528 0 0 0-.53-.529H7.674c-.155-.249-.236-.53-.53-.53z" opacity=".18" paint-order="markers stroke fill"/>
  <rect x="2.381" y="283.77" width="12.171" height="5.027" ry=".265" fill="#fff" paint-order="markers stroke fill"/>
  <rect x=".529" y="285.36" width="15.875" height="9.525" ry=".529" fill="#4d4d4d" paint-order="markers stroke fill"/>
  <path d="M8.467 284.3h7.408c.293 0 .53.236.53.53v3.968c0 .293-.237.529-.53.529H6.152c-.294 0-.677-.276-.53-.53l2.316-3.968c.147-.253.236-.529.529-.529z" fill="#4d4d4d" paint-order="markers stroke fill"/>
  <rect x="3.704" y="282.71" width="3.175" height=".529" ry=".265" opacity=".25" paint-order="stroke markers fill"/>
  <path d="M5.82 287.74v4.233h5.292v-4.233H5.821zm.265.264h4.763v3.228l-1.81-1.81-1.95 1.95a.08.08 0 0 1 .008-.102l.56-.562-.808-.81-.763.762v-2.656zm3.97.53a.265.265 0 0 0-.265.264.265.265 0 0 0 .264.264.265.265 0 0 0 .265-.264.265.265 0 0 0-.265-.265z" fill="#fff" paint-order="stroke markers fill"/>
 </g>
 <path d="m16.404 11.641-3.1744 3.1749h2.6458c0.29307 0 0.52864-0.23557 0.52864-0.52864z" fill="url(#a)" opacity=".1" style="paint-order:stroke markers fill"/>
</svg>
