<svg width="64" height="64" version="1.1" viewBox="0 0 64 64" xmlns="http://www.w3.org/2000/svg">
 <defs>
  <style id="current-color-scheme" type="text/css">.ColorScheme-Text { color:#565656; } .ColorScheme-Highlight { color:#4285f4; }</style>
  <linearGradient id="a" x1="-197.72" x2="-197.72" y1="263.86" y2="273.76" gradientTransform="matrix(.70709 -.70709 .70709 .70709 4.2268 -282.38)" gradientUnits="userSpaceOnUse">
   <stop offset="0"/>
   <stop stop-opacity="0" offset="1"/>
  </linearGradient>
 </defs>
 <path class="ColorScheme-Highlight" d="m26.998 7.9864-13.999 0.0037795c-1.1112 0-1.4929 1.0129-2.0031 1.9994v0.011338h-0.99779c-2.2186 0-4.0025 1.7839-4.0025 4.0025v5.0003c-2.2148 0-3.9949 1.7839-3.9949 3.9987v27.999c0 2.2148 1.7839 3.9987 3.9987 3.9987h52.002c2.2148 0 3.9987-1.7839 3.9987-3.9987v-31.997c0-2.2186-1.7839-4.0025-3.9987-4.0025v-0.99401c0-2.2186-1.7839-4.0025-4.0025-4.0025h-16.857l-0.13984-0.011339h-8.0012c-0.58582-0.94488-0.89196-2.0031-2.0031-2.0031z" fill="currentColor"/>
 <path d="m26.998 7.9962-13.999 0.00378c-1.1112 0-1.4929 1.0129-2.0031 1.9994v0.011339h-0.99779c-2.2186 0-4.0025 1.7839-4.0025 4.0025v5.0003h25.001l3.0009-4.0025h24v-0.99401c0-2.2186-1.7839-4.0025-4.0025-4.0025l-24.994-0.011339c-0.58582-0.94488-0.89196-2.0031-2.0031-2.0031z" opacity=".2"/>
 <path d="m11.018 13a2.0031 1.9987 0 0 0-2.0182 2.01v3.99h22l3.0009-3.99h20.999a2.0031 1.9987 0 0 0-2.0144-2.01z" fill="#fff"/>
 <rect x="14" y="9" width="12" height="2" rx="1" ry="1" opacity=".25"/>
 <path d="m61.996 39.002-16 16h12c2.216 0 3.9999-1.784 3.9999-3.9999z" fill="url(#a)" opacity=".2"/>
 <rect x="39" y="17" width="16" height="2" ry="1" opacity=".25"/>
 <path d="m32.002 28a10 10 0 0 0-10 10 10 10 0 0 0 10 10 10 10 0 0 0 9.9961-10 10 10 0 0 0-9.9961-10m-0.014 1h0.014a9.0001 9.0001 0 0 1 8.9961 8.9961 9.0001 9.0001 0 0 1-8.9961 9.0041 9.0001 9.0001 0 0 1-9.0041-9.0001 9.0001 9.0001 0 0 1 8.9901-9.0001m0.012 2.998c-0.554 0-1 0.447-1 1.002v3.272a2 2 0 0 0-0.99801 1.728 2 2 0 0 0 2 2 2 2 0 0 0 1.014-0.277l3.375 3.375c0.195 0.195 0.51 0.195 0.705 0l4e-3 -4e-3a0.497 0.497 0 0 0 0-0.705l-3.375-3.375a2 2 0 0 0 0.277-1.014 2 2 0 0 0-1.002-1.73v-3.27a1 1 0 0 0-1-1.002" opacity=".15"/>
</svg>
