<svg xmlns="http://www.w3.org/2000/svg" width="22" height="22"><defs><style id="current-color-scheme" type="text/css"></style></defs><path d="M9.5 4c-.794 0-.78.033-.53 1.031L10.593 10h-4.5L4.875 8.219C4.736 8.009 4.753 8 4.532 8h-.22c-.427 0-.292.437-.292.437L4.313 11l-.293 2.562s-.128.438.262.438h.25c.211 0 .204-.009.343-.219L6.095 12h4.5l-1.626 4.938C8.707 17.984 8.704 18 9.5 18c.432 0 .434-.012.72-.5l3.687-5.5H17c.554 0 1-.446 1-1s-.446-1-1-1h-3.093l-3.688-5.5c-.266-.457-.283-.498-.656-.5H9.5z" fill="currentColor" color="#dfdfdf"/></svg>