<svg xmlns="http://www.w3.org/2000/svg" width="22" height="22"><defs><style id="current-color-scheme" type="text/css"></style></defs><path d="M8.002 3A7.963 7.963 0 0 0 4.09 8.764c.241-.115.49-.217.746-.3C5.938 8.112 7.167 8.006 8.453 8c1.78-.007 3.682.225 5.467.566C12.53 5.568 10.524 2.988 8.002 3zm4.24 1.117c1.043 1.12 1.892 2.532 2.586 4.03l.318.687c.963.22 1.887.456 2.692.709a7 7 0 0 0-5.596-5.426zM8.457 9c-2.458.01-4.565.438-5.457 2a8 8 0 0 0 16 0c-2.34-.915-6.84-2.015-10.543-2z" fill="currentColor" color="#dfdfdf"/></svg>