<svg xmlns="http://www.w3.org/2000/svg" width="22" height="22"><defs><style id="current-color-scheme" type="text/css">.ColorScheme-Text{color:#dfdfdf}</style></defs><path class="ColorScheme-Text" d="M11.041 3a1.75 1.75 0 0 0-.93.244L4.89 6.334A1.83 1.83 0 0 0 4 7.91v6.18c0 .403.143.778.373 1.09l13.463-7.998a1.792 1.792 0 0 0-.725-.848L11.89 3.242A1.75 1.75 0 0 0 11.043 3h-.002zm6.889 4.41a1.776 1.82 0 0 1 .013.053 1.818 1.818 0 0 0-.013-.053zM4.502 15.352l.039.039a1.776 1.82 0 0 1-.039-.04z" fill="currentColor"/><path class="ColorScheme-Text" d="M17.848 7.176l-13.487 8.01a1.776 1.82 0 0 0 .527.48l5.224 3.09a1.776 1.82 0 0 0 1.776 0l5.224-3.09A1.776 1.82 0 0 0 18 14.09V7.909a1.776 1.82 0 0 0-.152-.733z" fill="currentColor" opacity=".3"/></svg>