<svg xmlns="http://www.w3.org/2000/svg" width="22" height="22"><defs><style id="current-color-scheme" type="text/css">.ColorScheme-Text{color:#dfdfdf}</style></defs><path class="ColorScheme-Text" d="M6 10a1 1 0 0 0-1 1 1 1 0 0 0 .006.111c.064 2.435 2.193 4.426 4.994 4.815V17H7a1 1 0 0 0-1 1 1 1 0 0 0 1 1h8a1 1 0 0 0 1-1 1 1 0 0 0-1-1h-3v-1.074c2.805-.39 4.936-2.387 4.994-4.826A1 1 0 0 0 17 11a1 1 0 0 0-1-1 1 1 0 0 0-1 1h-.016c-.083 2.068-1.41 3-3.984 3s-3.9-.932-3.984-3H7a1 1 0 0 0-1-1z" fill="currentColor"/><path class="ColorScheme-Text" d="M11 3C8.784 3 7 4.86 7 7.168v1.664C7 11.141 8.784 13 11 13s4-1.86 4-4.168V7.168C15 4.859 13.216 3 11 3zM9 6h1v4H9V6zm3 0h1v4h-1V6z" fill="currentColor" opacity=".3"/></svg>