<svg xmlns="http://www.w3.org/2000/svg" width="22" height="22"><defs><style id="current-color-scheme" type="text/css">.ColorScheme-Text{color:#dfdfdf}</style></defs><path class="ColorScheme-Text" d="M6 10a1 1 0 0 0-1 1 1 1 0 0 0 .006.111c.064 2.435 2.193 4.426 4.994 4.815V17H7a1 1 0 0 0-1 1 1 1 0 0 0 1 1h8a1 1 0 0 0 1-1 1 1 0 0 0-1-1h-3v-1.074c2.805-.39 4.936-2.387 4.994-4.826A1 1 0 0 0 17 11a1 1 0 0 0-1-1 1 1 0 0 0-1 1h-.016c-.083 2.068-1.41 3-3.984 3s-3.9-.932-3.984-3H7a1 1 0 0 0-1-1z" fill="currentColor" opacity=".3"/><rect class="ColorScheme-Text" width="10" height="8" x="-13" y="-15" rx="4.167" ry="4" transform="matrix(0 -1 -1 0 0 0)" fill="currentColor" opacity=".3"/></svg>