<svg xmlns="http://www.w3.org/2000/svg" width="22" height="22"><defs><style id="current-color-scheme" type="text/css"></style></defs><path d="M3 16.203v.547C3 17.962 4.038 19 5.25 19h11.5c1.212 0 2.25-1.038 2.25-2.25v-.547A2.96 2.96 0 0 1 17 17H5a2.96 2.96 0 0 1-2-.797zM6 3A2 2 0 0 0 4.01 4.78l-1 8.999A2 2 0 0 0 5 16h12a2 2 0 0 0 1.988-2.221l-1-9A2 2 0 0 0 16 3H6zm4.986 2a.5.5 0 0 1 .496.348l.87 2.714h2.85a.5.5 0 0 1 .294.907l-2.314 1.666.88 2.711a.5.5 0 0 1-.77.556l-2.3-1.683-2.305 1.676a.5.5 0 0 1-.77-.563l.891-2.707-2.305-1.676a.5.5 0 0 1 .295-.904l2.852.014.88-2.713A.5.5 0 0 1 10.987 5z" fill="currentColor" color="#dfdfdf"/></svg>