<svg xmlns="http://www.w3.org/2000/svg" width="22" height="22"><defs><style id="current-color-scheme" type="text/css"></style></defs><path d="M3 16.203v.547C3 17.962 4.038 19 5.25 19h11.5c1.212 0 2.25-1.038 2.25-2.25v-.547A2.96 2.96 0 0 1 17 17H5a2.96 2.96 0 0 1-2-.797zM11 5a.52.52 0 0 1 .496.35l.87 2.65h2.851c.487 0 .688.686.293.97l-2.314 1.666.88 2.702c.144.459-.379.844-.769.563L11 12.22 8.702 13.9a.5.5 0 0 1-.77-.563l.89-2.712L6.52 8.951c-.392-.285-.191-.952.293-.951h2.851l.881-2.65c.064-.2.238-.35.455-.35zM6 3c-1.02 0-1.886.987-2 2l-.988 8.779A2 2 0 0 0 5 16h12a2 2 0 0 0 1.989-2.221L18 5c-.114-1.013-.98-2-2-2z" fill="currentColor" color="#5294e2"/></svg>