<svg xmlns="http://www.w3.org/2000/svg" width="22" height="22" version="1"><defs><style id="current-color-scheme" type="text/css"></style></defs><path d="M8.991 3a.996.996 0 0 0-.673.293l-2.992 3c-.979.943.47 2.396 1.41 1.414l1.291-1.294.008 7.939c-.007.049-.01.098-.01.148 0 .015.01.028.01.043v.006c.003.124.029.247.076.361.226 2.236 2.127 4.09 4.402 4.09C14.93 19 17 16.925 17 14.5S14.93 10 12.513 10c-.943 0-1.767.408-2.486.947L10.02 4A.999.999 0 0 0 8.99 3z" fill="currentColor" color="#dfdfdf"/></svg>