<svg xmlns="http://www.w3.org/2000/svg" width="22" height="22"><defs><style id="current-color-scheme" type="text/css"></style></defs><path d="M11.5 3.02c-3.047 0-5.5 2.676-5.5 6v4c0 3.324 2.453 6 5.5 6 .169 0 .335-.011.5-.027v-2.317l-.031.031c-.025.06-.08.112-.125.157a.484.484 0 0 1-.344.156H11v-4.938l-2.156 1.782a.485.485 0 0 1-.344.156H8v-.5c0-.153.079-.283.188-.375l2.562-2.125-2.437-2.031c-.047-.02-.087-.062-.125-.094A.455.455 0 0 1 8 8.525v-.5h.5c.122 0 .225.051.312.125l.031.031L11 9.963V5.025h.5c.208 0 .394.133.47.313l2.874 2.843.406.375-.437.344-2.563 2.125 1.413 1.172c.545-.706 1.383-1.174 2.337-1.174.353 0 .687.073 1 .188V9.025c0-3.324-2.453-6-5.5-6zm.5 3.687v3.25l1.781-1.468-1.78-1.78zm4 5.311c-1.108 0-2 .91-2 2.031v.969h-1v4h6v-4h-1v-.969c0-1.12-.892-2.03-2-2.03zm-4 .065v1.935h1.014a3.03 3.03 0 0 1 .177-.953L12 12.085zm4 .935c.554 0 1 .442 1 1v1h-2v-1c0-.558.446-1 1-1z" fill="currentColor" color="#dfdfdf"/></svg>