<svg width="22" height="22" version="1.1" xmlns="http://www.w3.org/2000/svg">
 <defs>
  <style id="current-color-scheme" type="text/css">.ColorScheme-Text { color:#dfdfdf; } .ColorScheme-Highlight { color:#4285f4; }</style>
 </defs>
 <path class="ColorScheme-Text" d="m17 13c-1.108 0-2 0.91085-2 2.0312v0.96875h-1v4h6v-4h-1v-0.96875c0-1.1199-0.892-2.0312-2-2.0312zm0 1c0.554 0 1 0.4424 1 1v1h-2v-1c0-0.5576 0.446-1 1-1z" fill="currentColor"/>
 <path class="ColorScheme-Text" d="m10.92 2.1504a1 1 0 0 0-0.92969 0.99609v5.7617l-3.2441-2.6133a1.0003 1.0003 0 0 0-1.2539 1.5586l3.9043 3.1465-3.9043 3.1465a1 1 0 0 0 1.2539 1.5566l3.2441-2.6133v5.7617a1.001 1.001 0 0 0 1 1 0.998 0.998 0 0 0 0.62695-0.2207l0.38281-0.30859v-2.5664l-0.009766 0.007813v-3.6719l1.1504 0.92773c0.17679-0.67178 0.52348-1.2808 0.99219-1.7734l-1.5469-1.2461 3.9043-3.1465a1.002 1.002 0 0 0 0-1.5586l-4.873-3.9258a1 1 0 0 0-0.69727-0.21875zm1.0703 3.0879 2.2773 1.8359-2.2773 1.8359v-3.6719z" fill="currentColor"/>
</svg>
