<svg version="1.1" viewBox="0 0 22 22" xmlns="http://www.w3.org/2000/svg">
 <defs>
  <style id="current-color-scheme" type="text/css">.ColorScheme-Text {
                color:#dfdfdf;
            }</style>
 </defs>
 <g class="ColorScheme-Text" fill="currentColor">
  <path d="m11 2.5156-2.4844 2.4844h-3.5156v3.5156l-2.4844 2.4844 2.4844 2.4844v3.5156h3.5156l2.4844 2.4844 2.4844-2.4844h3.5156v-3.5156l2.4844-2.4844-2.4844-2.4844v-3.5156h-3.5156l-2.4844-2.4844zm0 3.4844a5 5 0 0 1 5 5 5 5 0 0 1-5 5 5 5 0 0 1-5-5 5 5 0 0 1 5-5z"/>
  <path d="m11 7a4 4 0 0 0-4 4 4 4 0 0 0 4 4v-8z"/>
 </g>
</svg>
