<svg xmlns="http://www.w3.org/2000/svg" width="22" height="22"><defs><style id="current-color-scheme" type="text/css"></style></defs><path d="M13.07 18.725A7.998 7.998 0 1 0 8.927 3.274a7.998 7.998 0 0 0 4.141 15.451zm-.648-2.414c-2.225.596-4.554-.128-5.957-1.833l-1.055.768.068-3.608 3.676.923-1.108.814c.94 1.105 2.437 1.547 3.9 1.155 1.52-.407 2.65-1.683 2.834-3.186l1.898.204c-.271 2.25-1.977 4.152-4.255 4.763zm4.09-5.98l-3.66-.863 1.108-.814c-.93-1.102-2.454-1.574-3.908-1.185-1.522.408-2.641 1.65-2.842 3.156l-1.898-.204c.303-2.257 1.98-4.12 4.263-4.732 2.213-.593 4.583.157 5.965 1.862l1.064-.738-.092 3.518z" fill="currentColor" color="#dfdfdf"/></svg>