<svg xmlns="http://www.w3.org/2000/svg" width="22" height="22"><defs><style id="current-color-scheme" type="text/css"></style></defs><path d="M16.656 16.657A8 8 0 1 0 5.342 5.343a8 8 0 0 0 11.314 11.314zm-1.768-1.768c-1.629 1.629-4.009 2.166-6.076 1.391l-.53 1.194-1.747-3.16 3.647-1.039-.552 1.26c1.365.487 2.884.12 3.955-.95 1.113-1.113 1.454-2.784.862-4.178l1.746-.773c.89 2.086.364 4.586-1.304 6.254zm.553-7.226l-3.602 1.083.552-1.26c-1.356-.489-2.913-.135-3.977.93-1.115 1.114-1.463 2.75-.884 4.154l-1.746.773c-.867-2.107-.347-4.56 1.326-6.232 1.62-1.62 4.048-2.155 6.098-1.37l.553-1.171 1.679 3.094z" fill="currentColor" color="#dfdfdf"/></svg>