<svg xmlns="http://www.w3.org/2000/svg" width="22" height="22"><defs><style id="current-color-scheme" type="text/css"></style></defs><path d="M11 3a8 8 0 1 0 .001 16.001 8 8 0 0 0 0-16zm0 2.5c2.305 0 4.368 1.303 5.282 3.313l1.219-.469-1 3.47-3.313-1.845 1.28-.5c-.62-1.31-1.954-2.125-3.469-2.125-1.573 0-2.996.94-3.563 2.344L5.656 9C6.5 6.896 8.64 5.5 10.998 5.5zm-5.5 4.72L8.813 12l-1.28.5c.612 1.305 1.963 2.156 3.468 2.156 1.576 0 2.98-.91 3.564-2.313l1.78.688c-.876 2.103-2.978 3.47-5.344 3.47-2.292 0-4.387-1.34-5.28-3.345l-1.22.438 1-3.375z" fill="currentColor" color="#dfdfdf" opacity=".3"/></svg>