<svg xmlns="http://www.w3.org/2000/svg" width="22" height="22"><defs><style id="current-color-scheme" type="text/css"></style></defs><path d="M17.927 15A7.999 7.999 0 1 0 4.072 7 7.999 7.999 0 0 0 17.927 15zm-2.165-1.25c-1.152 1.995-3.311 3.13-5.509 2.916l-.203 1.29-2.504-2.6 3.253-1.947-.207 1.36c1.444.117 2.816-.63 3.574-1.942.786-1.362.684-3.064-.249-4.257l1.486-1.198c1.4 1.783 1.539 4.334.36 6.377zm-1.337-7.122l-3.198 1.979.207-1.36c-1.436-.121-2.848.623-3.6 1.926-.788 1.365-.702 3.035.221 4.242L6.57 14.613c-1.382-1.81-1.514-4.314-.332-6.361 1.146-1.985 3.352-3.13 5.535-2.901l.23-1.275 2.423 2.553z" fill="currentColor" color="#dfdfdf"/></svg>