<svg xmlns="http://www.w3.org/2000/svg" width="22" height="22"><defs><style id="current-color-scheme" type="text/css"></style></defs><path d="M15 4.073A7.999 7.999 0 1 0 7 17.928 7.999 7.999 0 0 0 15 4.073zm-1.25 2.165c1.995 1.152 3.13 3.311 2.916 5.508l1.29.204-2.6 2.504-1.947-3.253 1.36.207c.117-1.445-.63-2.817-1.942-3.574-1.362-.786-3.064-.684-4.257.248L7.372 6.596c1.783-1.399 4.334-1.538 6.377-.359zM6.628 7.574l1.979 3.199-1.36-.208c-.121 1.437.623 2.849 1.926 3.601 1.365.788 3.035.701 4.242-.221l1.198 1.486c-1.81 1.382-4.314 1.514-6.361.332-1.985-1.146-3.13-3.353-2.901-5.536l-1.275-.23L6.63 7.575z" fill="currentColor" color="#dfdfdf"/></svg>