<svg xmlns="http://www.w3.org/2000/svg" width="22" height="22"><defs><style id="current-color-scheme" type="text/css"></style></defs><path d="M19 11a8 8 0 1 0-16.001.001 8 8 0 0 0 16 0zm-2.5 0c0 2.304-1.303 4.367-3.314 5.281l.47 1.22-3.47-1 1.844-3.314.5 1.281c1.31-.62 2.126-1.954 2.126-3.469 0-1.573-.94-2.996-2.345-3.563L13 5.656c2.105.844 3.5 2.984 3.5 5.343zm-4.72-5.5L10 8.813l-.5-1.28C8.193 8.144 7.342 9.495 7.342 11c0 1.576.91 2.98 2.313 3.563l-.688 1.781C6.865 15.468 5.5 13.366 5.5 11.001c0-2.292 1.34-4.387 3.344-5.28L8.405 4.5l3.375 1z" fill="currentColor" color="#dfdfdf"/></svg>