<svg xmlns="http://www.w3.org/2000/svg" width="22" height="22"><defs><style id="current-color-scheme" type="text/css"></style></defs><path d="M11 3a8 8 0 1 0 0 16 8 8 0 0 0 0-16zM7.25 5h3a1 1 0 0 1 .75.342A1 1 0 0 1 11.75 5h3a1 1 0 0 1 1 1v1.914c.201.282.385.578.531.899l1.219-.47-1 3.47-.75-.418v1.408l.594.228a5.43 5.43 0 0 1-.594 1.043V16a1 1 0 0 1-1 1h-3a1 1 0 0 1-.75-.34 1 1 0 0 1-.75.34h-3a1 1 0 0 1-1-1v-1.94a5.346 5.346 0 0 1-.531-.904l-1.219.44 1-3.375.75.402V9.229L5.656 9c.153-.382.362-.73.594-1.06V6a1 1 0 0 1 1-1zM8 6c-.554 0-1 .446-1 1v8c0 .554.446 1 1 1h1c.554 0 1-.446 1-1V7c0-.554-.446-1-1-1H8zm5 0c-.554 0-1 .446-1 1v8c0 .554.446 1 1 1h1c.554 0 1-.446 1-1V7c0-.554-.446-1-1-1h-1z" fill="currentColor" color="#dfdfdf"/></svg>