<svg xmlns="http://www.w3.org/2000/svg" width="22" height="22"><defs><style id="current-color-scheme" type="text/css"></style></defs><path d="M10.193 2c-1.098 1.384-1.427 2.066-1.03 2.947.358.799 1.286 1.206.82 3.053.766-.9 1.375-2.043.773-2.965-.612-.938-.948-1.507-.563-3.035zm3 0c-1.098 1.384-1.427 2.066-1.03 2.947.358.799 1.286 1.206.82 3.053.766-.9 1.375-2.043.773-2.965-.612-.938-.948-1.507-.563-3.035zm3 0c-1.098 1.384-1.427 2.066-1.03 2.947.358.799 1.286 1.206.82 3.053.766-.9 1.375-2.043.773-2.965-.612-.938-.948-1.507-.563-3.035zM7 9a4 4 0 1 0 .723 7.932C8.462 18.482 9.958 19 13 19c6 0 6-2 6-10H7zm0 2h.008c.011 1.596.052 2.938.195 3.986A2 2 0 0 1 7 15a2 2 0 0 1 0-4z" fill="currentColor" color="#dfdfdf"/></svg>