<svg xmlns="http://www.w3.org/2000/svg" width="22" height="22"><defs><style id="current-color-scheme" type="text/css"></style></defs><path d="M3 16.203v.547C3 17.962 4.04 19 5.25 19h11.5c1.212 0 2.25-1.038 2.25-2.25v-.547A2.96 2.96 0 0 1 17 17H5a2.96 2.96 0 0 1-2-.797zm8.08-9.906L10 10.289h2.18zM9.899 5h2.314l2.91 9h-1.91l-.609-2H9.528l-.617 2H7zM6 3a2 2 0 0 0-1.988 1.78l-1 8.999A2 2 0 0 0 5 16h12a2 2 0 0 0 1.988-2.221l-1-9A2 2 0 0 0 16 3z" fill="currentColor" fill-rule="evenodd" color="#dfdfdf"/></svg>