<svg xmlns="http://www.w3.org/2000/svg" width="22" height="22"><defs><style id="current-color-scheme" type="text/css"></style></defs><path d="M11 3a7.975 7.975 0 0 0-6.955 4.045 7.981 7.981 0 0 1 5.488-.897l.006-.013a7.904 7.904 0 0 1 .83-1.59c.03-.045.057-.09.088-.135.152-.216.314-.423.486-.623l.082-.1c.205-.229.42-.45.649-.654A8.134 8.134 0 0 0 11 3zm3.227.678c-.29.15-.56.329-.819.523-.064.048-.123.102-.185.153-.215.175-.42.361-.608.564l-.09.096a6.036 6.036 0 0 0-1.09 1.765A7.974 7.974 0 0 1 16 14c0 .306-.027.606-.06.902h.01c.34.06.69.098 1.05.098.331 0 .654-.035.97-.086A7.954 7.954 0 0 0 19 11a7.98 7.98 0 0 0-4.773-7.322zM8 8a5.986 5.986 0 0 0-4.982 2.645C3.012 10.763 3 10.88 3 11c0 4.432 3.568 8 8 8 .12 0 .235-.012.354-.018h.002a5.987 5.987 0 0 0 2.218-2.755 7.946 7.946 0 0 1-.936-.525l-.095-.065a7.98 7.98 0 0 1-.818-.623l-.01-.008a7.997 7.997 0 0 1-.735-.74l-.091-.108a7.955 7.955 0 0 1-.586-.78l-.04-.058a7.96 7.96 0 0 1-.486-.884l-.08-.178a7.91 7.91 0 0 1-.345-.908c-.007-.022-.016-.042-.022-.063a7.997 7.997 0 0 1-.254-1.232A8.096 8.096 0 0 1 9 9c0-.306.018-.606.05-.902A6.065 6.065 0 0 0 8 8zm3.014.812C11.012 8.876 11 8.936 11 9c0 .249.02.492.049.732.009.074.022.146.033.22.028.175.063.349.106.519.017.07.034.141.054.21.066.227.142.45.233.665.096.227.209.446.332.658l.05.084c.116.192.242.377.377.555l.04.052c.306.391.659.743 1.052 1.047l.049.037c.192.146.393.28.602.403l.011.007c.002-.063.012-.125.012-.189a5.98 5.98 0 0 0-2.986-5.188zm4.453 8.032a8.052 8.052 0 0 1-.512 1.111c.49-.278.937-.618 1.356-.99l-.008-.002a8.034 8.034 0 0 1-.836-.12z" opacity=".3" fill="currentColor" color="#dfdfdf"/></svg>