<svg xmlns="http://www.w3.org/2000/svg" width="22" height="22"><defs><style id="current-color-scheme" type="text/css">.ColorScheme-Text{color:#dfdfdf}</style></defs><path d="M6.85 3c-2.923.13-6.61 7.018-.698 12.88 5.998 5.945 13.049 2.099 12.844-.89A8.504 8.501 0 0 1 13.505 17a8.504 8.501 0 0 1-8.504-8.5 8.504 8.501 0 0 1 2.025-5.492c-.059-.003-.117-.01-.176-.007z" class="ColorScheme-Text" fill="currentColor"/><path d="M7.58 3.13A7.995 7.995 0 0 0 13.505 16.5a7.967 7.967 0 0 0 5.365-2.071 2.126 2.126 0 0 0-.626-.824c-1.202-1-3.422-1.718-5.742-4.019C10.052 7.16 9.355 4.86 8.329 3.673a1.936 1.936 0 0 0-.748-.544z" class="ColorScheme-Text" fill="currentColor" opacity=".3"/></svg>