<svg xmlns="http://www.w3.org/2000/svg" width="22" height="22"><defs><style id="current-color-scheme" type="text/css"></style></defs><path d="M16.687 4.17l-.422-.355A3.472 3.472 0 0 0 14.04 3a3.483 3.483 0 0 0-2.756 1.36L4.79 12.671a3.734 3.734 0 0 0-.768 2.692c.1.974.558 1.85 1.294 2.466l.422.354a3.465 3.465 0 0 0 2.599.796 3.483 3.483 0 0 0 2.368-1.322l4.382-5.608c.78-.998.63-2.467-.333-3.275l-.221-.185a2.207 2.207 0 0 0-1.413-.518c-.684 0-1.322.315-1.75.863l-4.374 5.598a.876.876 0 0 0 .122 1.2c.146.123.33.19.518.19a.81.81 0 0 0 .641-.316l4.374-5.598a.591.591 0 0 1 .844-.093l.221.186a.624.624 0 0 1 .22.418.633.633 0 0 1-.13.457l-4.37 5.591c-.36.461-.897.726-1.473.726-.431 0-.853-.155-1.189-.436l-.422-.354a1.964 1.964 0 0 1-.69-1.317 1.996 1.996 0 0 1 .41-1.439l6.496-8.313c.361-.461.898-.726 1.474-.726.432 0 .854.154 1.19.435l.422.354c.811.68.937 1.918.28 2.758a.87.87 0 0 0-.179.627c.023.226.13.43.302.574.146.122.33.19.517.19a.81.81 0 0 0 .642-.317 3.73 3.73 0 0 0 .766-2.693 3.682 3.682 0 0 0-1.294-2.468z" fill="currentColor" color="#dfdfdf"/></svg>