<svg xmlns="http://www.w3.org/2000/svg" width="22" height="22"><defs><style id="current-color-scheme" type="text/css">.ColorScheme-Text{color:#dfdfdf}</style></defs><path class="ColorScheme-Text" d="M19.635 2.025l-5.617 6.819L16 10l4-7.648zM5 6.5L1 10l4.375-.625.95 5.625H9.71L6.5 7zm7 2.53L9 10l1 3 4-3zm3 1.57L9.855 15H18.2L17 12zM3.836 16a.834.834 0 0 0-.836.836v1.328c0 .463.373.836.836.836H9v-3H3.836z" fill="currentColor"/><path class="ColorScheme-Text" d="M3.836 16zM9 16v3h9.164a.836.836 0 0 0 .836-.838v-1.326a.834.834 0 0 0-.836-.836H9z" opacity=".4" fill="currentColor"/></svg>