<svg xmlns="http://www.w3.org/2000/svg" width="22" height="22"><defs><style id="current-color-scheme" type="text/css"></style></defs><path d="M6.5 4A3.5 3.5 0 0 0 3 7.5 3.5 3.5 0 0 0 6.5 11a3.5 3.5 0 0 0 1.477-.33L9.5 12.5 4 19l7-5 7 5-5.5-6.5 1.523-1.832A3.5 3.5 0 0 0 15.5 11 3.5 3.5 0 0 0 19 7.5a3.5 3.5 0 0 0-.002-.025l-.002-.059a3.5 3.5 0 0 0-.045-.47 3.582 3.582 0 0 0-.076-.354 3.5 3.5 0 0 0-.059-.205 3.438 3.438 0 0 0-.244-.565 3.412 3.412 0 0 0-.576-.808 3.389 3.389 0 0 0-1.9-.963 3.5 3.5 0 0 0-.027-.004 3.5 3.5 0 0 0-.46-.043c-.013 0-.025-.004-.037-.004l-.017.002A3.5 3.5 0 0 0 15.5 4 3.5 3.5 0 0 0 12 7.5a3.5 3.5 0 0 0 .383 1.584L11 11 9.62 9.088A3.5 3.5 0 0 0 10 7.5 3.5 3.5 0 0 0 6.5 4zm0 2A1.5 1.5 0 0 1 8 7.5 1.5 1.5 0 0 1 6.5 9 1.5 1.5 0 0 1 5 7.5 1.5 1.5 0 0 1 6.5 6zm9 0A1.5 1.5 0 0 1 17 7.5 1.5 1.5 0 0 1 15.5 9 1.5 1.5 0 0 1 14 7.5 1.5 1.5 0 0 1 15.5 6z" fill="currentColor" color="#dfdfdf"/></svg>