<svg width="22" height="22" version="1.1" xmlns="http://www.w3.org/2000/svg">
 <defs>
  <style id="current-color-scheme" type="text/css">.ColorScheme-Text { color:#dfdfdf; } .ColorScheme-Highlight { color:#4285f4; }</style>
 </defs>
 <path class="ColorScheme-Text" d="m7 14v4c0 1.108 0.892 2 2 2h4c1.108 0 2-0.892 2-2v-4h-2v4h-4v-4z" fill="currentColor" opacity=".45"/>
 <path class="ColorScheme-Text" d="m8 3c-1.662 0-3 1.338-3 3v7c0 1.662 1.338 3 3 3h6c1.662 0 3-1.338 3-3v-7c0-1.662-1.338-3-3-3zm0 2h6c0.554 0 1 0.446 1 1v7c0 0.554-0.446 1-1 1h-6c-0.554 0-1-0.446-1-1v-7c0-0.554 0.446-1 1-1z" fill="currentColor"/>
</svg>
