<svg xmlns="http://www.w3.org/2000/svg" width="22" height="22"><defs><style id="current-color-scheme" type="text/css"></style></defs><path d="M11 3a8 8 0 0 0-8 8 8 8 0 0 0 8 8 8 8 0 0 0 8-8 8 8 0 0 0-8-8zM8 7a2 2 0 0 1 2 2 2 2 0 0 1-2 2 2 2 0 0 1-2-2 2 2 0 0 1 2-2zm6 0a2 2 0 0 1 2 2 2 2 0 0 1-2 2 2 2 0 0 1-2-2 2 2 0 0 1 2-2zm-7.063 4.986a1 1 0 0 1 .1 0 1 1 0 0 1 .953.868s.075.506.479 1.05C8.872 14.45 9.502 15 11 15c1.498 0 2.128-.55 2.531-1.096.404-.544.479-1.05.479-1.05a1.001 1.001 0 1 1 1.98.292s-.144.994-.851 1.95C14.43 16.05 13.06 17 11 17s-3.431-.95-4.139-1.904c-.707-.956-.851-1.95-.851-1.95a1 1 0 0 1 .928-1.16z" fill="currentColor" color="#dfdfdf"/></svg>