<svg xmlns="http://www.w3.org/2000/svg" width="22" height="22"><defs><style id="current-color-scheme" type="text/css"></style></defs><path d="M9.176 5s-1.98-.043-4.078 1.498C3 8.039 2 11.229 2 15.824c0 0 2.224 2.075 5.443 2.176 0 0 .54-.634.977-1.182-1.85-.547-2.55-2.185-2.55-2.185 1.704.953 2.862 1.35 4.63 1.367 1.768-.017 3.926-.414 5.63-1.367 0 0-.7 1.638-2.55 2.185.437.548.977 1.182.977 1.182C17.776 17.9 20 15.824 20 15.824c0-4.595-1-7.785-3.098-9.326C14.805 4.957 12.824 5 12.824 5l-.146.172c2.622.735 3.816 2.373 3.816 2.373s-.32-.172-.86-.402C14 6.358 12 6 10.5 6 9 6 8 6.358 6.365 7.143c-.539.23-.86.402-.86.402S6.7 5.907 9.323 5.172zM8.5 11c.838 0 1.515.668 1.5 1.5A1.501 1.501 0 1 1 8.5 11zm5 0a1.501 1.501 0 1 1-1.5 1.5 1.483 1.483 0 0 1 1.5-1.5z" fill="currentColor" color="#dfdfdf"/></svg>