<svg xmlns="http://www.w3.org/2000/svg" width="22" height="22"><defs><style id="current-color-scheme" type="text/css"></style></defs><path d="M4.637 3.223L3.223 4.637l2.176 2.175A6.952 6.952 0 0 0 4 11v4.666S4.001 18 6.334 18H9v-6H6v-1c0-.962.352-1.885.907-2.68L13 14.414V18h2.666c1.189-.134 1.661-.75 2.198-1.55l-3.407-3.407L13.414 12zM11 4a6.93 6.93 0 0 0-2.927.656L9.65 6.234A4.26 4.26 0 0 1 11 6c2.59 0 5 2.41 5 5v1h-.587L18 14.586V11c0-3.873-3.126-7-7-7z" fill="currentColor" color="#dfdfdf"/></svg>