<svg version="1.1" viewBox="0 0 22 22" xmlns="http://www.w3.org/2000/svg">
 <style type="text/css">.ColorScheme-Text {
            color:#dfdfdf;
            }
            .ColorScheme-NeutralText {
                color:#f67400;
            }</style>
 <path class="ColorScheme-NeutralText" d="m17 13c-1.6569 0-3 0.44772-3 1v5c0 0.55228 1.3431 1 3 1s3-0.44772 3-1v-5c0-0.55228-1.3431-1-3-1zm0 1c0.73919 8.7e-4 1.4514 0.09268 2 0.25781v0.48633c-0.54948 0.16443-1.2616 0.25552-2 0.25586-0.73919-8.7e-4 -1.4514-0.09268-2-0.25781v-0.48633c0.54948-0.16443 1.2616-0.25552 2-0.25586zm-2 1.7441c0.54948 0.16443 1.2616 0.25552 2 0.25586 0.73841-3.34e-4 1.4505-0.09143 2-0.25586v1c-0.54948 0.16443-1.2616 0.25552-2 0.25586-0.73919-8.7e-4 -1.4514-0.09268-2-0.25781z" fill="currentColor"/>
 <path class="ColorScheme-Text" d="m11 8c-1.6575 0-3 1.3425-3 3v3h3c1.6575 0 3-1.3425 3-3s-1.3425-3-3-3zm0 2a1 1 0 0 1 1 1 1 1 0 0 1-1 1 1 1 0 0 1-1-1 1 1 0 0 1 1-1z" fill="currentColor" opacity=".45"/>
 <path class="ColorScheme-Text" d="m7 3c-1.662 0-3 1.338-3 3v10c0 1.662 1.338 3 3 3h5v-2h-5c-0.554 0-1-0.446-1-1v-10c0-0.554 0.446-1 1-1h8c0.554 0 1 0.446 1 1v5h2v-5c0-1.662-1.338-3-3-3z" fill="currentColor"/>
</svg>
