<svg version="1.1" viewBox="0 0 22 22" xmlns="http://www.w3.org/2000/svg">
 <defs>
  <style id="current-color-scheme" type="text/css">.ColorScheme-Text { color:#dfdfdf; } .ColorScheme-Highlight { color:#4285f4; }</style>
 </defs>
 <path class="ColorScheme-Text" d="m11 8c-1.6575 0-3 1.3425-3 3v3h3c1.6575 0 3-1.3425 3-3s-1.3425-3-3-3zm0 2a1 1 0 0 1 1 1 1 1 0 0 1-1 1 1 1 0 0 1-1-1 1 1 0 0 1 1-1z" fill="currentColor" opacity=".45"/>
 <path class="ColorScheme-Text" d="m7 3c-1.662 0-3 1.338-3 3v10c0 1.662 1.338 3 3 3h5v-2h-5c-0.554 0-1-0.446-1-1v-10c0-0.554 0.446-1 1-1h8c0.554 0 1 0.446 1 1v5h2v-5c0-1.662-1.338-3-3-3h-8z" fill="currentColor"/>
 <path class="ColorScheme-Text" d="m17 13a3 1 0 0 0-3 1v5a3 1 0 0 0 3 1 3 1 0 0 0 3-1v-5a3 1 0 0 0-3-1zm0 1a3 1 0 0 1 2 0.25781v0.48633a3 1 0 0 1-2 0.25586 3 1 0 0 1-2-0.25781v-0.48633a3 1 0 0 1 2-0.25586zm-2 1.7441a3 1 0 0 0 2 0.25586 3 1 0 0 0 2-0.25586v1a3 1 0 0 1-2 0.25586 3 1 0 0 1-2-0.25781zm0 2a3 1 0 0 0 2 0.25586 3 1 0 0 0 2-0.25586v1a3 1 0 0 1-2 0.25586 3 1 0 0 1-2-0.25781z" fill="currentColor"/>
</svg>
