<svg xmlns="http://www.w3.org/2000/svg" width="22" height="22"><defs><style id="current-color-scheme" type="text/css"></style></defs><path d="M7 3L2 6l4 2.984-4.01 3.008L7 15l4-3-5-3 5-3 5 3.016L11 12l1.777 1.334A4.999 4.999 0 0 1 17 11a5.003 5.003 0 0 1 2.98.994l.03-.017L16 9.007l4-3-5-3-4 2.984-4-2.984zm10 9a4 4 0 1 0 0 8 4 4 0 0 0 0-8zm-6 1l-4 3-1-.6v.6l5 3 1.477-.885a5.012 5.012 0 0 1-.477-2.12 5 5 0 0 1 .396-1.953L11 12.992zm4.354.646L17 15.293l1.647-1.647.707.708L17.707 16l1.647 1.647-.708.707-1.643-1.66-1.646 1.646-.707-.707 1.646-1.646-1.646-1.647.707-.707z" fill="currentColor" color="#dfdfdf"/></svg>