<svg xmlns="http://www.w3.org/2000/svg" width="22" height="22"><defs><style id="current-color-scheme" type="text/css"></style></defs><path d="M7 3L2 6l4 2.984-4.01 3.008L7 15l4-3-5-3 5-3 5 3.016L11 12l1.777 1.334A4.999 4.999 0 0 1 17 11a5.003 5.003 0 0 1 2.98.994l.03-.017L16 9l4-3-5-3-4 2.985L7 3zm10 9a4 4 0 1 0 0 8 4 4 0 0 0 0-8zm-6 1l-4 3-1-.6v.6l5 3 1.477-.885A5 5 0 0 1 12 16a5 5 0 0 1 .397-1.953l-1.4-1.05zm6 0a3 3 0 0 1 3 3h-1a2 2 0 0 0-2-2v-1zm-3 3h1a2 2 0 0 0 2 2v1a3 3 0 0 1-3-3z" fill="currentColor" color="#dfdfdf"/></svg>