<svg xmlns="http://www.w3.org/2000/svg" width="22" height="22"><defs><style id="current-color-scheme" type="text/css"></style></defs><path d="M17.615 5.782c-.121-.636-.522-.951-.877-1.078-1.501-.6-2.802-.658-4.449-.705-.07-.445-.396-.59-.757-.73-.968-.373-2.467-.28-2.849-.179-.305.082-.647.248-.832.505-.125.175-.21.392-.21.703 0 .175.005.587.009.95.005.365.01.495.01.495 0 .324-.276.257-.616.257h-1.57c-1.494 0-1.5 1.662-1.4 2.766.056.412.527 3.313.974 4.196.175.339.29.485.631.635.758.31 2.493.655 3.305.757.807.097 1.32.305 1.62-.3 0 0 .06-.151.145-.375a5.777 5.777 0 0 0 .296-1.926c0-.053.08-.053.08 0 0 .346-.07 1.568.899 1.898.381.13 1.173.242 1.975.334.727.078 1.253.354 1.253 2.14 0 1.086-.234 1.231-1.484 1.231-1.007 0-1.394.024-1.394-.742 0-.621.642-.553 1.118-.553.21 0 .056-.15.056-.534 0-.382.25-.6.015-.606-1.645-.043-2.613-.005-2.613 1.965C10.95 18.67 11.667 19 14 19c1.829 0 2.476-.059 3.228-2.3.152-.441.512-1.795.733-4.06.14-1.435-.13-5.763-.346-6.858zm-3.19 4.787a3.548 3.548 0 0 0-.646.034c.06-.436.25-.98.923-.955.747.023.852.698.852 1.155a3.145 3.145 0 0 0-1.128-.234z" fill="currentColor" color="#dfdfdf"/></svg>