<svg xmlns="http://www.w3.org/2000/svg" width="22" height="22"><defs><style id="current-color-scheme" type="text/css"></style></defs><path d="M5 3c-1.108 0-2 .892-2 2v12c0 1.108.892 2 2 2h12c1.108 0 2-.892 2-2V5c0-1.108-.892-2-2-2H5zm5.9 1.7l1.5 2-.398.3h1.996l-.398-.3 1.5-2 .8.6L14.625 7H17v1h-2v3h2v1h-2v5h-1v-5h-2.041c-.096 1.12-.477 2.031-.926 2.811-.62 1.07-1.691 2.054-1.691 2.054l-.684-.728s1.013-.966 1.51-1.826c.401-.7.704-1.411.793-2.311H9v-.94l-1 .5V17H5v-1h2v-3.94l-1.777.89-.446-.9L7 10.94V8H5V7h2V5h1v2h1v1H8v2.44l.777-.39.446.9-.106.05H11V8h-1V7h1.375L10.1 5.3l.8-.6zM12 8v3h2V8h-2z" fill="currentColor" color="#dfdfdf"/></svg>