<svg xmlns="http://www.w3.org/2000/svg" width="22" height="22"><defs><style id="current-color-scheme" type="text/css"></style></defs><path d="M5 3c-1.108 0-2 .892-2 2v12c0 1.108.892 2 2 2h12c1.108 0 2-.892 2-2V5c0-1.108-.892-2-2-2H5zm0 2h5.549l-.051.55s-.328 3.52-1.225 6.13c.583.87 1.14 1.769 1.838 3.009l-.869.491a48.609 48.609 0 0 0-1.422-2.37c-1.394 3.121-3.365 4.483-3.365 4.483l-.557-.832s1.971-1.31 3.264-4.65c-.765-1.11-1.635-2.23-3.053-4l.782-.622c1.18 1.47 1.973 2.492 2.668 3.452.55-1.9.798-4.001.869-4.641H5V5zm6 0h6v.5c0 2.15-.833 4.97-1.707 6.91-.111.25-.242.46-.367.69.624 1.09 1.46 2.12 2.844 3.232l-.627.779c-1.282-1.034-2.147-2.04-2.803-3.06-1.393 1.984-3.104 3.033-3.104 3.033l-.517-.855s1.78-1.099 3.068-3.139a19.4 19.4 0 0 1-.887-2c-.758-1.95-1.208-4.5-1.31-5.09H11V5zm1.607 1c.14.77.569 3.03 1.227 4.73.173.45.351.87.539 1.28.757-1.68 1.442-4.16 1.551-6.01h-3.317z" fill="currentColor" color="#dfdfdf"/></svg>