<svg xmlns="http://www.w3.org/2000/svg" width="22" height="22"><defs><style id="current-color-scheme" type="text/css"></style></defs><path d="M5 3c-1.108 0-2 .892-2 2v12c0 1.108.892 2 2 2h12c1.108 0 2-.892 2-2V5c0-1.108-.892-2-2-2zm1 3h1v1.5c0 .694.127 1.077.266 1.25.138.173.317.25.734.25s.596-.077.734-.25C8.873 8.577 9 8.194 9 7.5V6h1v1.5c0 .806-.123 1.423-.484 1.875C9.154 9.827 8.583 10 8 10s-1.154-.173-1.516-.625C6.123 8.923 6 8.305 6 7.5zm8 0h1v4h-1zm-5 7h1l2 2.5V13h1v4h-1l-2-2.5V17H9z" fill="currentColor" color="#dfdfdf"/></svg>