<svg xmlns="http://www.w3.org/2000/svg" width="22" height="22"><defs><style id="current-color-scheme" type="text/css"></style></defs><path d="M5 3c-1.108 0-2 .892-2 2v12c0 1.108.892 2 2 2h12c1.108 0 2-.892 2-2V5c0-1.108-.892-2-2-2zm8.799 2.057l.873.697c-.032.053-.059.1-.08.143a.83.83 0 0 0 .096.585c.512.393.816.861 1.144 1.366.087.186.186.37.201.566.035.453-.147.836-.443 1.143-.296.306-1.121.459-1.871.459-.201 0-.497-.028-.719-.08v3.703c.19-.053.461-.121.641-.205.19-.085.385-.18.586-.286l.412 1.063a9.921 9.921 0 0 1-.776.316c-.253.085-.599.16-.863.223V18h-1v-3.061c-.306.043-1.827.112-2.102.112-.983 0-1.839-.143-2.568-.428-.73-.296-1.3-.73-1.713-1.301-.401-.57-.617-1.384-.617-2.24a2.436 2.436 0 0 1 .543-1.43c.603-.764 1.319-1.132 2.137-1.437.349-.095.755-.12 1.22-.152A19.814 19.814 0 0 1 10.613 8H12c-.032-.497-.215-1.3-.5-1.533-.275-.233-.63-.348-1.063-.348-.412 0-.724.08-.935.238a.71.71 0 0 0-.317.618s.016.206.016.238l-1.127.143c-.02-.096-.031-.493-.031-.493 0-.581.207-1.025.62-1.332.411-.306.976-.459 1.694-.459 1.1 0 1.86.444 2.284 1.332a5.287 5.287 0 0 1 1.158-1.347zm-.096 1.617c-.264.317-.518.629-.592.935-.074.307-.111.24-.111.6v.697c.17.034.44.063.656.063.349 0 .892-.058 1.03-.174.132-.185.169-.337.158-.477-.05-.275-.162-.5-.305-.712-.218-.39-.563-.658-.836-.932zM10.725 9c-.74 0-1.334.02-1.778.063a4.722 4.722 0 0 0-1.062.206 3.388 3.388 0 0 0-.713.325c-.588.471-.848.886-.903 1.338-.021.303-.083.562-.039.787.202 1.013.78 1.359 1.545 1.826.56.254 1.31.379 2.25.379.286 0 1.71-.047 1.975-.078V9z" fill="currentColor" color="#dfdfdf"/></svg>