<svg xmlns="http://www.w3.org/2000/svg" width="22" height="22" version="1"><path d="M10.924 3.013l-6.77 1.986c-.092.032-.154.474-.154.57 0 2.372.64 5.115 1.754 7.525.904 1.954 2.53 4.56 5.14 5.88.034.017.07.026.106.026s.072-.01.105-.025c2.61-1.321 4.237-3.927 5.14-5.881C17.362 10.684 18 7.94 18 5.569c0-.096-.062-.538-.154-.57l-6.77-1.986a.23.23 0 0 0-.152 0zm.031 2.994c.028-.01.06-.01.088 0l3.869 1.318a.126.126 0 0 1 .088.12c0 1.334-.365 2.877-1.002 4.232-.517 1.1-1.446 2.566-2.938 3.309-.018.01-.04.014-.06.014s-.042-.004-.06-.014c-1.492-.742-2.421-2.21-2.938-3.309C7.365 10.322 7 8.78 7 7.444c0-.054.035-.1.088-.119l3.867-1.318z" fill="currentColor" color="#dfdfdf"/><path d="M10 7v4h2V7h-2zm0 5v2h2v-2h-2z" fill="currentColor" color="#5294e2"/></svg>