<svg xmlns="http://www.w3.org/2000/svg" width="22" height="22" version="1"><defs><style id="current-color-scheme" type="text/css"></style></defs><path d="M10.924 3.012l-6.77 1.986c-.092.032-.154.474-.154.57 0 2.373.64 5.117 1.754 7.526.904 1.954 2.53 4.56 5.14 5.881.034.016.07.025.106.025s.072-.009.105-.025c2.61-1.32 4.237-3.927 5.14-5.88C17.362 10.684 18 7.94 18 5.568c0-.097-.062-.539-.154-.57l-6.77-1.987a.23.23 0 0 0-.152 0zm.03 2.996c.029-.01.06-.01.089 0l3.869 1.318a.126.126 0 0 1 .088.12c0 1.334-.365 2.877-1.002 4.232-.517 1.1-1.446 2.565-2.937 3.308-.02.01-.04.014-.061.014s-.042-.004-.061-.014c-1.491-.742-2.42-2.209-2.937-3.308C7.365 10.323 7 8.78 7 7.445c0-.054.035-.1.088-.119l3.867-1.318zM10 7v4h2V7h-2zm0 5v2h2v-2h-2z" fill="currentColor" color="#5294e2"/></svg>