<svg xmlns="http://www.w3.org/2000/svg" width="22" height="22"><defs><style id="current-color-scheme" type="text/css">.ColorScheme-Text{color:#dfdfdf}</style></defs><path class="ColorScheme-Text" d="M20 4s-.202 2.152-4.021 3.857c-.035.917-.164 1.84-.483 2.719-.525 1.447-1.598 2.766-3.303 3.442-2.753 1.091-4.087 2.461-4.777 3.601 1.152-.832 3.028-1.635 6.113-1.945C19.37 15.088 20 4 20 4z" fill="currentColor" opacity=".3"/><path class="ColorScheme-Text" d="M13.742 1s.423 3.219-3.242 6.002c.302.851.51 1.774.5 2.734a5.474 5.474 0 0 1-1.576 3.823 13.228 13.228 0 0 0-1.701 2.091c.909-.905 2.208-1.812 4.101-2.562C17.59 10.803 13.742 1 13.742 1z" fill="currentColor"/><path class="ColorScheme-Text" d="M3.681 11.501C7.927 6.504 6.972 3 6.972 3s5.439 6.087 1.738 9.858C4.575 17.07 5.725 20 5.725 20s-4.479-5.633-2.044-8.499z" fill="currentColor"/></svg>