<svg xmlns="http://www.w3.org/2000/svg" width="22" height="22"><defs><style id="current-color-scheme" type="text/css"></style></defs><path d="M13.242 3.01a3.498 3.498 0 1 0 3.295 5.227 3.498 3.498 0 0 0-1.3-4.774V3.46a3.479 3.479 0 0 0-1.995-.451zM6.317 5.008A2.498 2.498 0 0 0 5.26 9.67a2.5 2.5 0 1 0 1.057-4.662zm10 5a2.498 2.498 0 0 0-1.057 4.662 2.5 2.5 0 1 0 1.057-4.662zm-11.465.998a2 2 0 1 0 1.14.258 1.992 1.992 0 0 0-1.14-.258zm8.279 3.998a2 2 0 0 0-1.027 3.783 2 2 0 1 0 1.027-3.783zm-5.742 1a1.5 1.5 0 1 0 .221 2.99 1.5 1.5 0 0 0-.221-2.99z" fill="currentColor" color="#dfdfdf"/></svg>