<svg xmlns="http://www.w3.org/2000/svg" width="22" height="22"><defs><style id="current-color-scheme" type="text/css">.ColorScheme-Text{color:#dfdfdf}</style></defs><path class="ColorScheme-Text" d="M3.8 4c-.442 0-.8.311-.8.7v13.6c0 .389.358.7.8.7H16v-2h-4v-1h4v-1h-1v-1h1v-4h3V4.7c0-.389-.358-.7-.8-.7H12v4h2v1h-2v1h2v1h-2v-1H9v1H5v-1h3V7H5V6h3V4H3.8zM13 6h4v1h-4V6zM5 8h2v1H5V8zm10 0h2v1h-2V8zM5 12h3v1H5v-1zm7 0h3v1h-3v-1zm-7 2h3v1H5v-1zm4 0h1v1H9v-1zm3 0h1v1h-1v-1zm-7 2h1v1H5v-1zm2 0h3v1H7v-1z" fill="currentColor"/><path class="ColorScheme-Text" d="M9 3.5V9h2V3.5s-.081-.5-1-.5-1 .5-1 .5z" fill="currentColor" opacity=".3"/><path d="M17 11v6h2v-6h-2zm0 7v2h2v-2h-2z" fill="currentColor" color="#5294e2"/></svg>