<svg xmlns="http://www.w3.org/2000/svg" width="22" height="22"><defs><style id="current-color-scheme" type="text/css">.ColorScheme-Text{color:#dfdfdf}</style></defs><path class="ColorScheme-Text" d="M3.8 4c-.442 0-.8.311-.8.7v13.6c0 .389.358.7.8.7h14.4c.442 0 .8-.311.8-.7V4.7c0-.389-.358-.7-.8-.7H12v4h2v1h-2v1h2v1h-2v-1H9v1H5v-1h3V7H5V6h3V4zM13 6h4v1h-4zM5 8h2v1H5zm10 0h2v1h-2zm1 2h1v1h-1zM5 12h3v1H5zm7 0h3v1h-3zm4 0h1v1h-1zM5 14h3v1H5zm4 0h1v1H9zm3 0h1v1h-1zm3 0h2v1h-2zM5 16h1v1H5zm2 0h3v1H7zm5 0h4v1h-4z" fill="currentColor"/><path class="ColorScheme-Text" d="M9 3.5V9h2V3.5s-.081-.5-1-.5-1 .5-1 .5z" fill="currentColor" opacity=".3"/></svg>