<svg xmlns="http://www.w3.org/2000/svg" width="22" height="22"><defs><style id="current-color-scheme" type="text/css"></style></defs><path d="M11 3a8 8 0 0 0-5.604 2.293l2.756 4.773A3 3 0 0 1 11 8h7.412A8 8 0 0 0 11 3zM4.7 6.086A8 8 0 0 0 3 11a8 8 0 0 0 5.865 7.701l2.752-4.767A3 3 0 0 1 11 14a3 3 0 0 1-2.594-1.502l-.004.002L4.7 6.086zM11 9a2 2 0 0 0-2 2 2 2 0 0 0 2 2 2 2 0 0 0 2-2 2 2 0 0 0-2-2zm2.23 0a3 3 0 0 1 .77 2 3 3 0 0 1-.404 1.498l.002.002-3.704 6.414A8 8 0 0 0 11 19a8 8 0 0 0 8-8 8 8 0 0 0-.26-2h-5.51z" opacity=".3" fill="currentColor" color="#dfdfdf"/></svg>