<svg xmlns="http://www.w3.org/2000/svg" width="22" height="22"><defs><style id="current-color-scheme" type="text/css">.ColorScheme-Text{color:#dfdfdf}</style></defs><path class="ColorScheme-Text" d="M11 2.72L8.81 5H6v2.81L3.72 10H7c0-2.21 1.79-4 4-4s4 1.79 4 4h3.28L16 8V5h-2.78zM11 7a3 3 0 0 0-3 3h3z" fill="currentColor"/><path class="ColorScheme-Text" d="M18 12c0-.554-.446-1-1-1H4c-.554 0-1 .446-1 1v5c0 .554.446 1 1 1h13c.554 0 1-.446 1-1zm-3 0v1h-1v-1zm0 2v1h-1v-1zm-1 2v1H7v-1zm-1-4v1h-1v-1zm0 2v1h-1v-1zm-2-2v1h-1v-1zm0 2v1h-1v-1zm-2-2v1H8v-1zm0 2v1H8v-1zm-2-2v1H6v-1zm0 2v1H6v-1z" fill="currentColor" fill-rule="evenodd"/></svg>