<svg xmlns="http://www.w3.org/2000/svg" width="22" height="22"><defs><style id="current-color-scheme" type="text/css"></style></defs><path d="M3.02 3.986c-1.35-.026-1.364 2.008-.014 2v11c-.02 1.347 2.001 1.35 1.998.014H5V4.957a.997.997 0 0 0-.994-.97H3.02zm2.98 1v11h1.006v1.274c0 .727.726.726.726.726h1.274v-2h2v1.996h2v-1.996h2v1.998H16.279s.727 0 .727-.726v-1.272h.3c.388 0 .7-.306.7-.687V5.674a.691.691 0 0 0-.7-.688H6zm2.006 2h4a1 1 0 0 1 .781 1.625l-2.7 3.375h1.919c1.352-.019 1.352 2.02 0 2h-4a1 1 0 0 1-.781-1.625l2.699-3.375H8.006c-1.352.02-1.352-2.019 0-2zm6.508 0h1.992a.5.5 0 0 1 .416.778l-1.477 2.222h1.06c.677-.01.677 1.01 0 1h-1.991a.5.5 0 0 1-.418-.777l1.476-2.223h-1.058c-.676.01-.676-1.01 0-1z" fill="currentColor" color="#dfdfdf"/></svg>