<svg xmlns="http://www.w3.org/2000/svg" width="22" height="22"><path d="M3.02 3.986c-1.35-.026-1.364 2.008-.014 2v11c-.02 1.347 2.001 1.35 1.998.014H5V4.957a.997.997 0 0 0-.994-.97H3.02zm2.98 1v11h1.006v1.274c0 .727.726.726.726.726h1.274v-2h2v1.996h2v-1.996H15v-5h-.486a.5.5 0 0 1-.418-.777l1.476-2.223h-1.058c-.676.01-.676-1.01 0-1h1.992a.5.5 0 0 1 .416.778l-1.477 2.222h1.06c.029 0 .05.011.075.014h1.426V5.674a.691.691 0 0 0-.7-.688H6zm2.006 2h4a1 1 0 0 1 .781 1.625l-2.7 3.375h1.919c1.352-.019 1.352 2.02 0 2h-4a1 1 0 0 1-.781-1.625l2.699-3.375H8.006c-1.352.02-1.352-2.019 0-2z" fill="currentColor" opacity=".3" color="#dfdfdf"/><path d="M16 11v4h2v-4h-2zm0 5v2h2v-2h-2z" fill="currentColor" color="#5294e2"/></svg>