<svg xmlns="http://www.w3.org/2000/svg" width="22" height="22"><defs><style id="current-color-scheme" type="text/css"></style></defs><path d="M14 11a3 3 0 0 1-3 3 3 3 0 0 1-3-3 3 3 0 0 1 3-3 3 3 0 0 1 3 3zM4.832 3a.76.76 0 0 0-.531.217c-.195.191-.3.5-.3.9v13.76c0 .4.114.71.3.9.284.283.727.309 1.232.008l3.588-2.091 7.764-4.524a6 6 0 0 0 .086-.586 6 6 0 0 1-.086.586l.476-.277c.852-.491.852-1.291 0-1.791l-.478-.28a6 6 0 0 0-7.756-4.521L5.533 3.207c-.252-.145-.49-.211-.7-.207zM8.49 5.557c-.063.03-.125.062-.187.094.062-.032.124-.065.187-.094zm-.607.328zM11 6c2.774 0 5 2.227 5 5 0 .189-.033.374-.055.56L9.05 15.577c-.128-.055-.262-.1-.385-.166l-.021-.011-.024-.012c-.018-.009-.015-.003-.033-.01a1.38 1.38 0 0 0-.154-.1H8.43a5.045 5.045 0 0 1-.22-.138l-.009-.006a4.928 4.928 0 0 1-.24-.174l-.002-.002a4.86 4.86 0 0 1-.228-.19h-.002c-.102-.088-.171-.146-.207-.18l-.002-.003-.002-.002-.01-.012-.014-.013a4.935 4.935 0 0 1-.338-.367A5.47 5.47 0 0 1 7 13.985l-.002-.004-.002-.002a4.964 4.964 0 0 1-.183-.26l-.002-.004a5.362 5.362 0 0 1-.147-.236l-.004-.008a4.938 4.938 0 0 1-.142-.275l-.002-.004-.002-.004c-.057-.116-.098-.193-.115-.235v-.002a5.002 5.002 0 0 1-.184-.513v-.006a6.772 6.772 0 0 1-.137-.606c-.016-.094-.028-.166-.035-.218v-.01A4.974 4.974 0 0 1 6 11c.002-.116.008-.233.018-.35v-.007l.002-.006a5.03 5.03 0 0 1 .033-.322v-.002h.002c.006-.047.012-.095.02-.141v-.004a4.983 4.983 0 0 1 .097-.447l.002-.006.002-.006c.037-.14.079-.276.127-.408v-.002l.002-.004.014-.033v-.004l.001-.002c.053-.14.11-.278.174-.412l.004-.006v-.002l.018-.033.002-.004.002-.004c.063-.129.133-.256.209-.38l.039-.063c.085-.136.172-.265.265-.387.102-.133.207-.255.315-.371l.004-.004.01-.01A4.967 4.967 0 0 1 11 6zm-3.691.285c-.062.049-.124.096-.184.147.06-.05.122-.098.184-.147zm9.66 4.106zM5 11a6 6 0 0 0 .022.378A6 6 0 0 1 5 11zm.256 1.718a6 6 0 0 0 .102.29 6 6 0 0 1-.102-.29zm2.936 3.572a6 6 0 0 0 .45.215 6 6 0 0 1-.45-.215z" fill="currentColor" color="#dfdfdf"/></svg>