<svg xmlns="http://www.w3.org/2000/svg" width="22" height="22" version="1"><defs><style id="current-color-scheme" type="text/css"></style></defs><path d="M5 4c-1.108 0-2 .892-2 2v10c0 1.108.892 2 2 2h12c1.108 0 2-.892 2-2V6c0-1.108-.892-2-2-2H5zm9.031 2a.615.615 0 0 1 .188.063l1.562.78c.208.107.27.368.156.563l-4.875 8.375a.456.456 0 0 1-.436.22c-.051-.007-.107-.007-.156-.032-.005-.002-4.25-3.312-4.25-3.312a.403.403 0 0 1-.156-.562l1.031-1.25c.114-.195.386-.263.594-.156L10 12.439l3.625-6.22a.427.427 0 0 1 .406-.218z" fill="currentColor" color="#dfdfdf"/></svg>