<svg xmlns="http://www.w3.org/2000/svg" width="22" height="22"><defs><style id="current-color-scheme" type="text/css"></style></defs><path d="M5 3c-1.108 0-2 .892-2 2v12c0 1.108.892 2 2 2h12c1.108 0 2-.892 2-2V5c0-1.108-.892-2-2-2zm4 2v1h3v2H9v1h1c.75 0 1.44.317 1.873.805.433.487.627 1.098.627 1.695s-.194 1.21-.627 1.697C11.44 13.685 10.75 14 10 14H9v1H8v-1H5v-2h3v-1H7c-.75 0-1.44-.315-1.873-.803A2.537 2.537 0 0 1 4.5 8.5c0-.597.194-1.208.627-1.695C5.56 6.317 6.25 6 7 6h1V5zM7 8c-.25 0-.31.06-.377.135A.574.574 0 0 0 6.5 8.5a.58.58 0 0 0 .123.367C6.69 8.942 6.75 9 7 9h1V8zm2 4h1c.25 0 .31-.058.377-.133a.576.576 0 0 0 .123-.367.57.57 0 0 0-.123-.365C10.31 11.06 10.251 11 10 11H9zm3 3h5v2h-5z" fill="currentColor" color="#dfdfdf"/></svg>