<svg xmlns="http://www.w3.org/2000/svg" width="22" height="22"><defs><style id="current-color-scheme" type="text/css"></style></defs><path d="M10.504 3c-.01.022-.032.014-.049.016-.238.02-.476.045-.71.088-1.72.313-3.132 1.127-4.225 2.439a6.417 6.417 0 0 0-1.5 3.695c-.052.669-.002 1.63.15 2.283.113.487.282.958.51 1.407l.058.115a6.857 6.857 0 0 0 2.479 2.65c.97.593 2.02 1.177 3.144 1.293l.246.026c.082 0 .394.02.393.101-.004.686-.002 1.115-.002 1.801 0 .027.002.053.004.086 0 0 .274-.124.508-.234a14.546 14.546 0 0 0 3.21-2.114c.219-.19.427-.391.628-.6.086-.088.171-.18.257-.269.134-.137.248-.29.374-.433a7.18 7.18 0 0 0 .404-.522c.283-.393.537-.801.75-1.234.107-.22.21-.44.3-.666.004-.004.007-.007.008-.012a7.81 7.81 0 0 0 .49-1.914c.03-.229.05-.46.061-.69.026-.495-.007-1.288-.1-1.775a6.581 6.581 0 0 0-1.773-3.402 7.113 7.113 0 0 0-4.297-2.094c-.13-.015-.263-.011-.392-.041h-.926zM8 9a1 1 0 0 1 1 1 1 1 0 0 1-1 1 1 1 0 0 1-1-1 1 1 0 0 1 1-1zm3 0a1 1 0 0 1 1 1 1 1 0 0 1-1 1 1 1 0 0 1-1-1 1 1 0 0 1 1-1zm3 0a1 1 0 0 1 1 1 1 1 0 0 1-1 1 1 1 0 0 1-1-1 1 1 0 0 1 1-1z" fill="currentColor" color="#dfdfdf"/></svg>