<?xml version="1.0" encoding="UTF-8"?>
<svg width="22" height="22" version="1.1" xmlns="http://www.w3.org/2000/svg" xmlns:cc="http://creativecommons.org/ns#" xmlns:dc="http://purl.org/dc/elements/1.1/" xmlns:rdf="http://www.w3.org/1999/02/22-rdf-syntax-ns#">
 <metadata>
  <rdf:RDF>
   <cc:Work rdf:about="">
    <dc:format>image/svg+xml</dc:format>
    <dc:type rdf:resource="http://purl.org/dc/dcmitype/StillImage"/>
    <dc:title/>
   </cc:Work>
  </rdf:RDF>
 </metadata>
 <g fill="#dfdfdf">
  <path d="M6.509 4c-.36 0-.693.19-.873.498l-3.5 6a.992.992 0 0 0 0 1.003l3.5 5.999c.18.308.513.5.873.5h6.986c.36 0 .691-.192.872-.5l3.497-5.999a.992.992 0 0 0 0-1.004l-3.497-5.999A1.01 1.01 0 0 0 13.495 4zm6.114 2c.257 0 .497.124.636.328v.002l-3.257 3.255-3.257-3.257A.766.766 0 0 1 7.348 6zM5.67 8.082l2.917 2.917-2.917 2.918-1.566-2.558a.68.68 0 0 1 0-.719L5.67 8.082zm8.662 0L15.9 10.64a.68.68 0 0 1 0 .719l-1.566 2.558L11.416 11l2.917-2.917zm-4.33 4.331l3.254 3.255a.768.768 0 0 1-.634.33H7.38a.768.768 0 0 1-.636-.328l3.257-3.257z" color="#dfdfdf"/>
  <path d="M16.54 4c-.43 0-.678.465-.46.803l.952 1.465.947 1.464c.233.357.812.357 1.044 0l.951-1.464.947-1.465c.228-.357-.06-.801-.521-.803z" color="#5294e2"/>
 </g>
</svg>
