<svg xmlns="http://www.w3.org/2000/svg" viewBox="0 0 22 22"><path d="M3 1c-1.108 0-2 .892-2 2v16c0 1.108.892 2 2 2h16c1.108 0 2-.892 2-2V3c0-1.108-.892-2-2-2H3zm5.32 5.637c.4 0 .754.03 1.063.088.317.05.588.109.812.176.225.067.407.138.549.213.15.075.254.129.313.162l-.475 1.287a3.67 3.67 0 0 0-.937-.375 4.094 4.094 0 0 0-1.162-.162c-.892 0-1.576.28-2.051.838-.467.55-.699 1.315-.699 2.299 0 .467.054.895.162 1.287.117.383.283.713.5.988.225.275.501.492.826.65.333.15.72.225 1.162.225.275 0 .513-.009.713-.025.2-.025.358-.055.475-.088v-3.111h1.574v4.162c-.217.083-.583.175-1.1.275-.517.1-1.112.15-1.787.15a4.711 4.711 0 0 1-1.713-.301 3.602 3.602 0 0 1-1.324-.875 4.029 4.029 0 0 1-.838-1.412c-.2-.558-.301-1.201-.301-1.926 0-.725.11-1.365.326-1.924a4.185 4.185 0 0 1 .912-1.414 3.76 3.76 0 0 1 1.35-.887 4.534 4.534 0 0 1 1.65-.301zm6.758 2.164c.5 0 .92.063 1.262.188.342.125.613.298.813.523.208.225.354.501.438.826.092.317.137.665.137 1.049v3.963c-.233.05-.587.109-1.063.176a10.07 10.07 0 0 1-1.586.111c-.392 0-.751-.036-1.076-.111a2.334 2.334 0 0 1-.838-.363 1.793 1.793 0 0 1-.537-.65c-.125-.267-.188-.595-.188-.986 0-.375.071-.693.213-.951.15-.258.35-.467.6-.625.25-.167.538-.283.863-.35a4.708 4.708 0 0 1 1.037-.111c.167 0 .342.012.525.037.183.017.38.05.588.1v-.25a1.94 1.94 0 0 0-.063-.5.955.955 0 0 0-.227-.412.944.944 0 0 0-.412-.287 1.72 1.72 0 0 0-.637-.102c-.35 0-.671.026-.963.076-.292.05-.53.107-.713.174l-.188-1.225a5.85 5.85 0 0 1 .838-.199c.367-.067.759-.1 1.176-.1zm.299 3.773c-.167 0-.337.014-.512.039-.167.025-.321.07-.463.137a.83.83 0 0 0-.324.287.763.763 0 0 0-.125.451c0 .358.111.608.336.75.225.133.531.199.914.199.467 0 .821-.024 1.063-.074v-1.676a2.99 2.99 0 0 0-.363-.074 3.373 3.373 0 0 0-.525-.039z" fill="#ececec"/></svg>