<svg viewBox="0 0 22 22" xmlns="http://www.w3.org/2000/svg"><path d="M3 1c-1.108 0-2 .892-2 2v16c0 1.108.892 2 2 2h16c1.108 0 2-.892 2-2V3c0-1.108-.892-2-2-2H3zm9.67 4.863c.25 0 .467.083.65.25.183.167.275.396.275.688 0 .283-.092.507-.275.674a.932.932 0 0 1-.65.25.948.948 0 0 1-.662-.25c-.183-.167-.275-.39-.275-.674 0-.292.092-.521.275-.688a.948.948 0 0 1 .662-.25zm-7.572.725h5.475v1.338h-3.9v2.211h3.463v1.338H6.673v3.775H5.099V6.588zm6.822 2.125h1.512v6.537H11.92V8.713zm3.262 4.705h2.213v.639h-1.57a5.774 5.774 0 0 1-.018.244 5.217 5.217 0 0 1-.02.268 4.218 4.218 0 0 1-.043.475c.617.033 1.07.176 1.361.426.296.246.445.583.445 1.012 0 .196-.035.378-.102.545a1.119 1.119 0 0 1-.305.432 1.508 1.508 0 0 1-.52.287c-.208.067-.451.1-.73.1-.113 0-.227-.009-.344-.025a4.143 4.143 0 0 1-.338-.063 3.15 3.15 0 0 1-.281-.068 1.41 1.41 0 0 1-.188-.068l.143-.639c.088.042.213.089.375.139.167.046.37.068.607.068.162 0 .301-.017.418-.051a.777.777 0 0 0 .281-.148.561.561 0 0 0 .162-.213.809.809 0 0 0-.031-.631.66.66 0 0 0-.287-.275 1.68 1.68 0 0 0-.543-.17 5.461 5.461 0 0 0-.857-.055c.046-.4.082-.78.107-1.139.025-.362.046-.725.063-1.088z" fill="#ececec"/></svg>