<svg viewBox="0 0 22 22" xmlns="http://www.w3.org/2000/svg"><path d="M3 1c-1.108 0-2 .892-2 2v16c0 1.108.892 2 2 2h16c1.108 0 2-.892 2-2V3c0-1.108-.892-2-2-2H3zm8.863 4.801v5.711l.613-.637.637-.688c.208-.233.405-.454.588-.662.192-.217.355-.404.488-.563h1.787c-.417.467-.86.949-1.326 1.449-.458.5-.92.988-1.387 1.463.25.208.512.462.787.762.275.292.542.604.801.938.258.333.5.667.725 1 .225.333.412.642.563.926h-1.75a11.18 11.18 0 0 0-.525-.813 9.757 9.757 0 0 0-.625-.824 11.662 11.662 0 0 0-.688-.75 5.502 5.502 0 0 0-.688-.613v3h-1.512V6.051l1.512-.25zm-5.1 1.037h1.576V15.5H6.763V6.838z" fill="#ececec"/></svg>