<svg xmlns="http://www.w3.org/2000/svg" viewBox="0 0 22 22"><path d="M3 1c-1.108 0-2 .892-2 2v16c0 1.108.892 2 2 2h16c1.108 0 2-.892 2-2V3c0-1.108-.892-2-2-2H3zm11.963 4.801v7.486c0 .183.014.338.039.463a.838.838 0 0 0 .162.324.791.791 0 0 0 .299.201c.133.042.3.075.5.1l-.211 1.25c-.45-.008-.825-.059-1.125-.15a1.765 1.765 0 0 1-.701-.387 1.496 1.496 0 0 1-.375-.639 3.49 3.49 0 0 1-.1-.875V6.051l1.512-.25zm-5.613.836c.542 0 1.021.063 1.437.188.425.117.758.247 1 .389l-.486 1.275a3.711 3.711 0 0 0-.938-.363 4.274 4.274 0 0 0-1.037-.125c-.425 0-.758.087-1 .262-.233.175-.352.422-.352.738 0 .192.038.358.113.5.083.133.196.255.338.363.15.108.32.207.512.299.2.092.417.18.65.264.408.15.771.303 1.088.461.325.15.596.334.813.551.225.208.395.458.512.75.117.283.176.629.176 1.037 0 .783-.28 1.393-.838 1.826-.55.425-1.359.637-2.426.637-.358 0-.686-.024-.986-.074a5.893 5.893 0 0 1-1.375-.363 4.494 4.494 0 0 1-.4-.199l.463-1.289c.225.125.529.25.912.375s.845.188 1.387.188c.567 0 .98-.095 1.238-.287.258-.192.387-.462.387-.813 0-.208-.045-.387-.137-.537a1.199 1.199 0 0 0-.375-.4 2.599 2.599 0 0 0-.588-.338 7.913 7.913 0 0 0-.799-.313 13.4 13.4 0 0 1-.875-.35 3.232 3.232 0 0 1-.738-.486 2.373 2.373 0 0 1-.512-.688c-.125-.267-.188-.588-.188-.963 0-.783.271-1.396.813-1.838.542-.45 1.278-.676 2.211-.676z" fill="#ececec"/></svg>