<svg viewBox="0 0 22 22" xmlns="http://www.w3.org/2000/svg"><path d="M3 1c-1.108 0-2 .892-2 2v16c0 1.108.892 2 2 2h16c1.108 0 2-.892 2-2V3c0-1.108-.892-2-2-2H3zm1.846 5.838h1.486a63.958 63.958 0 0 1 1.676 3.875c.283.7.57 1.441.861 2.225.3.783.613 1.637.938 2.563H8.108a37.66 37.66 0 0 0-.363-1.012 27.847 27.847 0 0 1-.361-1.025h-3.65c-.117.35-.238.695-.363 1.037l-.35 1H1.384c.325-.925.632-1.779.924-2.563.292-.783.577-1.525.852-2.225.283-.7.561-1.367.836-2 .275-.633.56-1.258.852-1.875zm.711 1.674c-.192.442-.412.98-.662 1.613-.242.633-.495 1.321-.762 2.063h2.85a84.01 84.01 0 0 0-.775-2.074 50.599 50.599 0 0 0-.65-1.602zm7.908.313c.45 0 .816.059 1.1.176.292.117.533.271.725.463a3.111 3.111 0 0 1 .827-.412c.175-.067.357-.122.549-.164.2-.042.402-.063.602-.063.508 0 .925.077 1.25.227.333.142.59.345.773.611.192.258.322.576.389.951.075.367.111.769.111 1.211v3.676h-1.512v-3.438c0-.683-.083-1.175-.25-1.475-.167-.308-.488-.463-.963-.463-.242 0-.471.042-.688.125-.217.075-.378.15-.486.225.067.208.112.429.137.662.025.233.037.483.037.75V15.5h-1.512v-3.438c0-.683-.089-1.175-.264-1.475-.167-.308-.483-.463-.949-.463-.167 0-.351.012-.551.037-.2.025-.349.046-.449.063v5.275h-1.512V9.175a10.181 10.181 0 0 1 2.637-.351z" fill="#ececec"/></svg>