<svg xmlns="http://www.w3.org/2000/svg" viewBox="0 0 22 22"><path d="M3 1c-1.108 0-2 .892-2 2v16c0 1.108.892 2 2 2h16c1.108 0 2-.892 2-2V3c0-1.108-.892-2-2-2H3zm2.031 5.838h1.574v3.463h3.762V6.838h1.576V15.5h-1.576v-3.838H6.605V15.5H5.031V6.838zM16.49 8.824c.1 0 .216.009.35.025.133.008.267.026.4.051.133.017.262.041.387.074.125.025.226.051.301.076l-.264 1.273a4.075 4.075 0 0 0-.523-.125 3.44 3.44 0 0 0-1.301-.023 3.22 3.22 0 0 0-.387.086v5.238h-1.514V9.274a7.961 7.961 0 0 1 1.088-.301c.442-.1.93-.15 1.463-.15z" fill="#ececec"/></svg>