<svg xmlns="http://www.w3.org/2000/svg" viewBox="0 0 22 22"><path d="M3 1c-1.108 0-2 .892-2 2v16c0 1.108.892 2 2 2h16c1.108 0 2-.892 2-2V3c0-1.108-.892-2-2-2H3zm3.406 5.75c.725 0 1.388.087 1.988.262.6.167 1.112.434 1.537.801a3.5 3.5 0 0 1 1 1.375c.233.55.35 1.208.35 1.975 0 .75-.116 1.405-.35 1.963a3.733 3.733 0 0 1-1 1.387c-.425.367-.94.643-1.549.826-.6.175-1.267.262-2 .262-.35 0-.746-.015-1.188-.049a7.535 7.535 0 0 1-1.264-.176V6.964c.4-.092.825-.151 1.275-.176.45-.025.849-.037 1.199-.037zm.102 1.363c-.467 0-.8.012-1 .037v6.05c.092.008.211.017.361.025h.613c1.058 0 1.845-.265 2.361-.799.525-.542.789-1.297.789-2.264 0-.983-.255-1.737-.764-2.262-.508-.525-1.295-.787-2.361-.787zm9.105.688c.9 0 1.602.278 2.102.836.508.558.762 1.392.762 2.5 0 .083-.003.181-.012.289 0 .1-.005.19-.014.273h-4.313c.042.525.226.935.551 1.227.333.283.813.424 1.438.424.367 0 .7-.033 1-.1.308-.067.55-.138.725-.213l.199 1.238a2.73 2.73 0 0 1-.35.137c-.142.042-.308.08-.5.113a5.772 5.772 0 0 1-1.262.137c-.575 0-1.075-.083-1.5-.25a2.898 2.898 0 0 1-1.051-.713 2.976 2.976 0 0 1-.611-1.074 4.467 4.467 0 0 1-.201-1.363c0-.575.083-1.078.25-1.512.175-.433.404-.791.688-1.074a2.69 2.69 0 0 1 .975-.65c.367-.15.742-.225 1.125-.225zm.014 1.262a1.3 1.3 0 0 0-.613.137 1.378 1.378 0 0 0-.449.338 1.632 1.632 0 0 0-.275.488 2.614 2.614 0 0 0-.137.563h2.813c0-.208-.03-.405-.088-.588a1.297 1.297 0 0 0-.264-.488 1.044 1.044 0 0 0-.412-.324 1.22 1.22 0 0 0-.574-.125z" fill="#ececec"/></svg>