<svg viewBox="0 0 22 22" xmlns="http://www.w3.org/2000/svg"><path d="M3 1c-1.108 0-2 .892-2 2v16c0 1.108.892 2 2 2h16c1.108 0 2-.892 2-2V3c0-1.108-.892-2-2-2H3zm2.254 5.838h6.912v1.361H9.504V15.5H7.916V8.199H5.254V6.838zm10.137 1.986c.1 0 .218.009.352.025.133.008.265.026.398.051.133.017.264.041.389.074.125.025.224.051.299.076l-.262 1.273a4.12 4.12 0 0 0-.525-.125 3.421 3.421 0 0 0-1.299-.023 3.277 3.277 0 0 0-.389.086v5.238h-1.512V9.274a7.961 7.961 0 0 1 1.088-.301c.442-.1.928-.15 1.461-.15z" fill="#ececec"/></svg>