<svg viewBox="0 0 22 22" xmlns="http://www.w3.org/2000/svg"><path d="M3 1c-1.108 0-2 .892-2 2v16c0 1.108.892 2 2 2h16c1.108 0 2-.892 2-2V3c0-1.108-.892-2-2-2H3zm1.432 5.838h1.576v3.574c.275-.275.561-.567.861-.875.3-.317.597-.633.889-.949.3-.325.583-.637.85-.938l.725-.813h1.889a92.63 92.63 0 0 1-1.826 2.025c-.325.342-.653.682-.986 1.023-.325.342-.646.668-.963.977.35.267.704.579 1.063.938.367.35.724.728 1.074 1.137.35.4.683.82 1 1.262.325.433.622.867.889 1.301H9.61a16.339 16.339 0 0 0-1.65-2.114c-.308-.342-.63-.666-.963-.975a9.031 9.031 0 0 0-.986-.799v3.887H4.435V6.837zm7.762 2.125h1.512v3.424c0 .7.101 1.2.301 1.5.208.3.566.451 1.074.451.183 0 .374-.009.574-.025.208-.017.363-.037.463-.063V8.963h1.514v6.338c-.292.075-.672.15-1.139.225a8.8 8.8 0 0 1-1.537.125c-.525 0-.966-.075-1.324-.225a2.182 2.182 0 0 1-.852-.625 2.516 2.516 0 0 1-.449-.951 5.135 5.135 0 0 1-.137-1.225V8.963z" fill="#ececec"/></svg>