<svg xmlns="http://www.w3.org/2000/svg" viewBox="0 0 22 22"><path d="M3 1c-1.108 0-2 .892-2 2v16c0 1.108.892 2 2 2h16c1.108 0 2-.892 2-2V3c0-1.108-.892-2-2-2H3zm2.52 5.838h5.562v1.338H7.094v2.137h3.551v1.313H7.094v2.537h4.287v1.338H5.52V6.839zm9.348 1.963c.383 0 .752.036 1.102.111.35.067.612.135.787.201l-.275 1.225a3.367 3.367 0 0 0-.637-.201 3.608 3.608 0 0 0-.9-.1c-.308 0-.558.054-.75.162a.502.502 0 0 0-.287.477c0 .108.015.204.049.287.042.083.11.161.201.236.092.067.211.138.361.213.15.067.334.138.551.213.358.133.662.267.912.4.25.125.455.271.613.438.167.158.286.34.361.549.075.208.113.458.113.75 0 .625-.235 1.101-.701 1.426-.458.317-1.116.475-1.975.475-.575 0-1.037-.05-1.387-.15a6.479 6.479 0 0 1-.738-.225l.264-1.262c.225.092.49.178.799.262.317.083.676.125 1.076.125s.692-.045.875-.137c.183-.1.273-.267.273-.5 0-.217-.099-.395-.299-.537-.192-.142-.513-.296-.963-.463a9.458 9.458 0 0 1-.762-.313 2.823 2.823 0 0 1-.588-.4c-.167-.15-.3-.329-.4-.537a2.013 2.013 0 0 1-.137-.787c0-.6.22-1.072.662-1.414.442-.35 1.04-.523 1.799-.523z" fill="#ececec"/></svg>