<svg xmlns="http://www.w3.org/2000/svg" viewBox="0 0 22 22"><path d="M3 1c-1.108 0-2 .892-2 2v16c0 1.108.892 2 2 2h16c1.108 0 2-.892 2-2V3c0-1.108-.892-2-2-2H3zm3.336 5.637c.542 0 1.021.063 1.438.188.425.117.758.247 1 .389l-.488 1.275a3.719 3.719 0 0 0-.937-.363 4.274 4.274 0 0 0-1.037-.125c-.425 0-.758.087-1 .262-.233.175-.35.422-.35.738 0 .192.036.358.111.5.083.133.196.255.338.363.15.108.32.207.512.299.2.092.417.18.65.264.408.15.771.303 1.088.461.325.15.596.334.812.551.225.208.395.458.512.75.117.283.176.629.176 1.037 0 .783-.28 1.393-.838 1.826-.55.425-1.357.637-2.424.637-.358 0-.688-.024-.988-.074a5.893 5.893 0 0 1-1.375-.363 4.494 4.494 0 0 1-.4-.199l.463-1.289c.225.125.529.25.912.375s.847.188 1.389.188c.567 0 .978-.095 1.236-.287.258-.192.389-.462.389-.813 0-.208-.047-.387-.139-.537a1.199 1.199 0 0 0-.375-.4 2.599 2.599 0 0 0-.588-.338 7.913 7.913 0 0 0-.799-.313 13.4 13.4 0 0 1-.875-.35 3.232 3.232 0 0 1-.738-.486 2.373 2.373 0 0 1-.512-.688c-.125-.267-.188-.588-.188-.963 0-.783.271-1.396.813-1.838.542-.45 1.28-.676 2.213-.676zm3.35 2.326h1.6c.075.35.164.728.264 1.137.1.4.204.813.313 1.238.108.417.221.825.338 1.225.117.4.233.766.35 1.1.125-.383.245-.779.361-1.188.125-.408.243-.816.352-1.225.108-.408.207-.804.299-1.188.1-.392.189-.758.264-1.1h1.162c.075.342.158.708.25 1.1.092.383.187.779.287 1.188.108.408.221.816.338 1.225.125.408.25.804.375 1.188a39.78 39.78 0 0 0 .674-2.325 39.964 39.964 0 0 0 .588-2.375h1.563c-.175.642-.354 1.27-.537 1.887a62.361 62.361 0 0 1-.551 1.764 40.229 40.229 0 0 1-.549 1.574c-.183.492-.362.929-.537 1.313h-1.227c-.217-.617-.44-1.271-.674-1.963-.225-.7-.433-1.417-.625-2.15-.192.733-.4 1.45-.625 2.15a62.955 62.955 0 0 1-.65 1.963h-1.238c-.167-.383-.34-.821-.523-1.313a44.403 44.403 0 0 1-.551-1.574 68.397 68.397 0 0 1-.551-1.764 88.256 88.256 0 0 1-.537-1.887z" fill="#ececec"/></svg>