<svg xmlns="http://www.w3.org/2000/svg" viewBox="0 0 22 22"><path d="M3 1c-1.108 0-2 .892-2 2v16c0 1.108.892 2 2 2h16c1.108 0 2-.892 2-2V3c0-1.108-.892-2-2-2H3zm1.418 5.838h1.875l1.912 2.963 1.887-2.963h1.801l-2.738 4.125a40.905 40.905 0 0 1 1.676 2.438c.492.767.903 1.466 1.236 2.1h-1.85a19.213 19.213 0 0 0-.912-1.625 27.936 27.936 0 0 0-1.15-1.713 14.22 14.22 0 0 0-.549.775c-.192.3-.388.609-.588.926-.192.308-.37.607-.537.898-.167.292-.3.538-.4.738H4.294a25.78 25.78 0 0 1 1.299-2.176 87.13 87.13 0 0 1 1.6-2.35L4.42 6.837zm10.891 1.963c.383 0 .75.036 1.1.111.35.067.612.135.787.201l-.275 1.225a3.367 3.367 0 0 0-.637-.201 3.608 3.608 0 0 0-.9-.1c-.308 0-.558.054-.75.162a.502.502 0 0 0-.287.477c0 .108.015.204.049.287.042.083.11.161.201.236.092.067.211.138.361.213.15.067.334.138.551.213.358.133.662.267.912.4.25.125.455.271.613.438.167.158.286.34.361.549.075.208.113.458.113.75 0 .625-.233 1.101-.699 1.426-.458.317-1.118.475-1.977.475-.575 0-1.037-.05-1.387-.15a6.479 6.479 0 0 1-.738-.225l.264-1.262c.225.092.49.178.799.262.317.083.676.125 1.076.125s.692-.045.875-.137c.183-.1.275-.267.275-.5 0-.217-.101-.395-.301-.537-.192-.142-.513-.296-.963-.463a9.458 9.458 0 0 1-.762-.313 2.823 2.823 0 0 1-.588-.4c-.167-.15-.3-.329-.4-.537a2.013 2.013 0 0 1-.137-.787c0-.6.22-1.072.662-1.414.442-.35 1.042-.523 1.801-.523z" fill="#ececec"/></svg>