<svg xmlns="http://www.w3.org/2000/svg" viewBox="0 0 22 22"><path d="M3 1c-1.108 0-2 .892-2 2v16c0 1.108.892 2 2 2h16c1.108 0 2-.892 2-2V3c0-1.108-.892-2-2-2H3zm-.756 5.588h1.287c.333.35.693.767 1.076 1.25.383.475.767.97 1.15 1.486.392.517.767 1.038 1.125 1.563.367.517.691 1 .975 1.451v-5.75H9.42v8.662H8.082a48.784 48.784 0 0 0-.949-1.525c-.35-.55-.713-1.1-1.088-1.65a34.9 34.9 0 0 0-1.15-1.611c-.383-.525-.75-.995-1.1-1.412v6.199H2.244V6.589zm11.254 1.963c.458 0 .878.083 1.262.25.392.158.725.388 1 .688.275.3.487.661.637 1.086.158.417.238.884.238 1.4 0 .517-.075.987-.225 1.412-.15.425-.364.788-.639 1.088-.275.3-.608.535-1 .701a3.15 3.15 0 0 1-1.273.25c-.467 0-.892-.083-1.275-.25a2.893 2.893 0 0 1-.988-.701 3.282 3.282 0 0 1-.65-1.088 4.216 4.216 0 0 1-.225-1.412c0-.517.075-.984.225-1.4.158-.425.375-.786.65-1.086.283-.3.617-.529 1-.688a3.13 3.13 0 0 1 1.264-.25zm0 1.313c-.5 0-.892.191-1.176.574-.275.375-.412.887-.412 1.537 0 .658.137 1.179.412 1.563.283.383.676.576 1.176.576.5 0 .887-.193 1.162-.576.283-.383.424-.904.424-1.563 0-.65-.14-1.162-.424-1.537-.275-.383-.662-.574-1.162-.574zm3.363 3.555h2.895v.576a4.382 4.382 0 0 0-.451.631 8.397 8.397 0 0 0-.844 1.98 5.82 5.82 0 0 0-.193 1.145h-.775c.025-.317.082-.65.17-1 .087-.35.193-.69.318-1.02.129-.333.268-.642.418-.93.154-.292.307-.537.457-.732h-1.994v-.65z" fill="#ececec"/></svg>