<svg xmlns="http://www.w3.org/2000/svg" width="22" height="22"><defs><style id="current-color-scheme" type="text/css"></style></defs><path d="M5.914 3.375L4.5 4.789l1.414 1.414L7.328 4.79 5.914 3.375zm11.092.2a1.5 1.5 0 0 0-1.5 1.5 1.5 1.5 0 0 0 1.5 1.5 1.5 1.5 0 0 0 1.5-1.5 1.5 1.5 0 0 0-1.5-1.5zM3.793 5.495L2.377 6.91l1.416 1.414L5.207 6.91 3.793 5.496zm4.242 0L6.621 6.91l1.414 1.414L9.45 6.91 8.035 5.496zm6.766.723l-.826.826 1.06 1.06.826-.826a2.526 2.526 0 0 1-1.06-1.06zm-3.289.056l-6.035 6.036a7.496 7.496 0 0 1 2.558 1.685 7.519 7.519 0 0 1 1.684 2.557l6.035-6.037-4.242-4.24zM5.914 7.617L4.5 9.031l1.414 1.414 1.414-1.414-1.414-1.414zm9.191 4.957l-1.414 1.416 1.414 1.414 1.415-1.414-1.415-1.416zm-12.042.258c-.215.005-.43.022-.642.057a.5.5 0 0 0-.274.849l6.115 6.116a.5.5 0 0 0 .85-.274c.274-1.696-.423-3.541-1.783-4.904-1.193-1.192-2.756-1.876-4.266-1.844zm9.922 1.865l-1.414 1.414 1.414 1.414 1.414-1.414-1.414-1.414zm4.243 0l-1.415 1.414 1.415 1.414 1.414-1.414-1.414-1.414zm-2.122 2.121l-1.414 1.414 1.414 1.414 1.415-1.414-1.415-1.414z" fill="currentColor" color="#dfdfdf"/></svg>