<svg xmlns="http://www.w3.org/2000/svg" viewBox="0 0 22 22"><path d="M3 1c-1.108 0-2 .892-2 2v16c0 1.108.892 2 2 2h16c1.108 0 2-.892 2-2V3c0-1.108-.892-2-2-2H3zm1.311 5.838h1.574v3.574c.275-.275.563-.567.863-.875.3-.317.595-.633.887-.949.3-.325.585-.637.852-.938l.725-.813h1.887a92.217 92.217 0 0 1-1.824 2.025c-.325.342-.655.682-.988 1.023-.325.342-.646.668-.963.977.35.267.704.579 1.063.938.367.35.726.728 1.076 1.137.35.4.683.82 1 1.262.325.433.62.867.887 1.301H9.489a16.339 16.339 0 0 0-1.65-2.114c-.308-.342-.63-.666-.963-.975a9.044 9.044 0 0 0-.988-.799v3.887H4.314V6.837zm10.742 1.986c.533 0 .98.077 1.338.227.358.142.641.345.85.611.217.258.366.576.449.951.092.367.139.769.139 1.211V15.5h-1.514v-3.438c0-.35-.024-.645-.074-.887-.042-.25-.116-.452-.225-.602a.818.818 0 0 0-.426-.336 1.653 1.653 0 0 0-.65-.113 5.04 5.04 0 0 0-.6.037c-.208.025-.363.046-.463.063v5.275h-1.512V9.175a10.181 10.181 0 0 1 2.688-.351z" fill="#ececec"/></svg>