<svg viewBox="0 0 22 22" xmlns="http://www.w3.org/2000/svg"><path d="M3 1c-1.108 0-2 .892-2 2v16c0 1.108.892 2 2 2h16c1.108 0 2-.892 2-2V3c0-1.108-.892-2-2-2H3zm1.383 5.838h1.576v3.574c.275-.275.561-.567.861-.875.3-.317.597-.633.889-.949.3-.325.583-.637.85-.938l.725-.813h1.889a92.63 92.63 0 0 1-1.826 2.025c-.325.342-.653.682-.986 1.023-.325.342-.646.668-.963.977.35.267.704.579 1.063.938.367.35.724.728 1.074 1.137.35.4.683.82 1 1.262.325.433.622.867.889 1.301H9.561a16.339 16.339 0 0 0-1.65-2.114c-.308-.342-.63-.666-.963-.975a9.031 9.031 0 0 0-.986-.799v3.887H4.386V6.837zM14.92 8.801c.458 0 .88.083 1.264.25.392.158.725.388 1 .688.275.3.487.661.637 1.086.158.417.238.884.238 1.4 0 .517-.075.987-.225 1.412-.15.425-.364.788-.639 1.088-.275.3-.608.535-1 .701a3.16 3.16 0 0 1-1.275.25c-.467 0-.89-.083-1.273-.25a2.893 2.893 0 0 1-.988-.701 3.282 3.282 0 0 1-.65-1.088 4.216 4.216 0 0 1-.225-1.412c0-.517.075-.984.225-1.4.158-.425.375-.786.65-1.086.283-.3.617-.529 1-.688.383-.167.803-.25 1.262-.25zm0 1.312c-.5 0-.89.191-1.174.574-.275.375-.412.887-.412 1.537 0 .658.137 1.179.412 1.563.283.383.674.576 1.174.576.5 0 .889-.193 1.164-.576.283-.383.424-.904.424-1.563 0-.65-.14-1.162-.424-1.537-.275-.383-.664-.574-1.164-.574z" fill="#ececec"/></svg>