<svg xmlns="http://www.w3.org/2000/svg" viewBox="0 0 22 22"><path d="M3 1c-1.108 0-2 .892-2 2v16c0 1.108.892 2 2 2h16c1.108 0 2-.892 2-2V3c0-1.108-.892-2-2-2H3zm11.305 4.801v5.711l.613-.637.637-.688c.208-.233.405-.454.588-.662.192-.217.355-.404.488-.563h1.787c-.417.467-.86.949-1.326 1.449-.458.5-.92.988-1.387 1.463.25.208.512.462.787.762.275.292.542.604.801.938.258.333.5.667.725 1 .225.333.413.642.563.926h-1.75a11.18 11.18 0 0 0-.525-.813 9.757 9.757 0 0 0-.625-.824 11.662 11.662 0 0 0-.688-.75 5.502 5.502 0 0 0-.688-.613v3h-1.512V6.051l1.512-.25zM6.811 6.838h1.486a61.085 61.085 0 0 1 1.676 3.875c.283.7.572 1.441.863 2.225.3.783.612 1.637.938 2.563h-1.701a37.645 37.645 0 0 0-.361-1.012 27.837 27.837 0 0 1-.363-1.025h-3.65c-.117.35-.236.695-.361 1.037l-.352 1H3.349a146.468 146.468 0 0 1 1.776-4.788c.283-.7.563-1.367.838-2s.558-1.258.85-1.875zm.713 1.674c-.192.442-.414.98-.664 1.613-.242.633-.495 1.321-.762 2.063h2.85a84.01 84.01 0 0 0-.775-2.074 51.191 51.191 0 0 0-.648-1.602z" fill="#ececec"/></svg>