<svg viewBox="0 0 22 22" xmlns="http://www.w3.org/2000/svg"><path d="M3 1c-1.108 0-2 .892-2 2v16c0 1.108.892 2 2 2h16c1.108 0 2-.892 2-2V3c0-1.108-.892-2-2-2H3zm1.229 5.838h6.912v1.361H8.479V15.5H6.891V8.199H4.229V6.838zm10.219 1.986c.492 0 .959.038 1.4.113.442.075.817.155 1.125.238v5.662c0 1.042-.267 1.804-.801 2.287-.525.483-1.334.725-2.426.725a6.806 6.806 0 0 1-2.199-.362l.275-1.289c.258.108.55.197.875.264.333.067.691.1 1.074.1.608 0 1.042-.125 1.301-.375.258-.25.387-.622.387-1.113v-.25c-.15.075-.35.152-.6.227a2.836 2.836 0 0 1-.838.111c-.417 0-.8-.066-1.15-.199a2.464 2.464 0 0 1-.887-.588 2.803 2.803 0 0 1-.574-.963 4.19 4.19 0 0 1-.201-1.35c0-.475.071-.912.213-1.313.15-.4.362-.742.637-1.025a2.976 2.976 0 0 1 1.025-.662c.4-.158.855-.238 1.363-.238zm.012 1.264c-.55 0-.97.182-1.262.549-.292.358-.438.834-.438 1.426 0 .642.137 1.112.412 1.412.283.292.646.438 1.088.438.242 0 .465-.033.674-.1.217-.067.392-.147.525-.238v-3.387a3.46 3.46 0 0 0-.4-.063 3.962 3.962 0 0 0-.6-.037z" fill="#ececec"/></svg>