<svg xmlns="http://www.w3.org/2000/svg" viewBox="0 0 22 22"><path d="M3 1c-1.108 0-2 .892-2 2v16c0 1.108.892 2 2 2h16c1.108 0 2-.892 2-2V3c0-1.108-.892-2-2-2H3zm3.748 5.75c.525 0 1.013.042 1.463.125.45.075.837.203 1.162.387.333.183.592.427.775.727.183.3.275.67.275 1.111 0 .408-.101.759-.301 1.051a2.033 2.033 0 0 1-.813.699c.525.175.914.434 1.164.775.25.342.375.776.375 1.301 0 .892-.327 1.562-.977 2.01-.65.442-1.645.662-2.986.662-.458 0-.922-.015-1.389-.049a6.144 6.144 0 0 1-1.225-.176V6.961c.183-.033.38-.063.588-.088a7.65 7.65 0 0 1 .637-.074 16.08 16.08 0 0 1 1.25-.051zm.201 1.287c-.242 0-.459.005-.65.014a5.89 5.89 0 0 0-.475.037v2.275h1.111c.6 0 1.072-.083 1.414-.25.342-.175.512-.484.512-.926 0-.417-.179-.712-.537-.887-.35-.175-.808-.264-1.375-.264zm8.141.787c.533 0 .98.077 1.338.227.358.142.641.345.85.611.217.258.366.576.449.951.092.367.139.769.139 1.211V15.5h-1.514v-3.438c0-.35-.024-.645-.074-.887-.042-.25-.116-.452-.225-.602a.818.818 0 0 0-.426-.336 1.653 1.653 0 0 0-.65-.113 5.04 5.04 0 0 0-.6.037c-.208.025-.363.046-.463.063v5.275h-1.512V9.175a10.181 10.181 0 0 1 2.688-.351zm-9.266 2.775v2.639a13.786 13.786 0 0 0 1.112.049c.325 0 .625-.021.9-.063.283-.042.525-.113.725-.213.208-.108.372-.249.488-.424.125-.175.188-.401.188-.676 0-.492-.179-.834-.537-1.025-.358-.192-.855-.287-1.488-.287H5.825z" fill="#ececec"/></svg>