<svg xmlns="http://www.w3.org/2000/svg" viewBox="0 0 22 22"><path d="M3 1c-1.108 0-2 .892-2 2v16c0 1.108.892 2 2 2h16c1.108 0 2-.892 2-2V3c0-1.108-.892-2-2-2H3zm8.674 4.551v3.236c.167-.058.36-.109.576-.15.225-.042.445-.063.662-.063.525 0 .959.077 1.301.227.35.142.628.345.836.611.208.258.354.571.438.937.092.367.139.775.139 1.225v3.676h-1.514v-3.438c0-.35-.024-.645-.074-.887-.042-.25-.116-.452-.225-.602a.821.821 0 0 0-.412-.336 1.653 1.653 0 0 0-.65-.113c-.2 0-.405.021-.613.063-.208.042-.363.08-.463.113v5.199h-1.512V5.8l1.512-.25zM2.135 6.588h6.914v1.361H6.385v7.301H4.799V7.949H2.135V6.588zm16.277 6.83h.531v4.332h-.756v-3.318a2.466 2.466 0 0 1-.426.256 4.378 4.378 0 0 1-.492.207l-.232-.576a4.59 4.59 0 0 0 .725-.369c.246-.15.463-.327.65-.531z" fill="#ececec"/></svg>