<svg xmlns="http://www.w3.org/2000/svg" viewBox="0 0 22 22"><path d="M3 1c-1.108 0-2 .892-2 2v16c0 1.108.892 2 2 2h16c1.108 0 2-.892 2-2V3c0-1.108-.892-2-2-2H3zm3.563 5.637c.358 0 .685.03.977.088.292.05.545.109.762.176.217.067.395.138.537.213.142.075.242.129.301.162l-.463 1.287c-.2-.125-.488-.241-.863-.35a3.925 3.925 0 0 0-1.199-.176c-.375 0-.726.068-1.051.201a2.268 2.268 0 0 0-.85.574 2.768 2.768 0 0 0-.549.975 4.242 4.242 0 0 0-.201 1.363c0 .458.05.878.15 1.262.108.383.272.717.488 1 .217.275.491.492.824.65.333.15.733.225 1.199.225.558 0 1.013-.054 1.363-.162.35-.117.621-.224.812-.324l.426 1.287c-.1.067-.239.133-.414.199a5.974 5.974 0 0 1-.6.201 6.29 6.29 0 0 1-.787.137 6.59 6.59 0 0 1-.938.063c-.65 0-1.233-.101-1.75-.301a3.503 3.503 0 0 1-1.313-.875 3.994 3.994 0 0 1-.824-1.424c-.192-.558-.289-1.201-.289-1.926 0-.725.11-1.365.326-1.924a4.185 4.185 0 0 1 .912-1.414 3.76 3.76 0 0 1 1.35-.887c.517-.2 1.07-.301 1.662-.301zm6.621 2.188c.45 0 .816.059 1.1.176.292.117.535.271.727.463a3.111 3.111 0 0 1 .825-.412c.175-.067.359-.122.551-.164.2-.042.4-.063.6-.063.508 0 .925.077 1.25.227.333.142.592.345.775.611.192.258.32.576.387.951.075.367.113.769.113 1.211v3.676h-1.514v-3.438c0-.683-.083-1.175-.25-1.475-.167-.308-.488-.463-.963-.463-.242 0-.471.042-.688.125-.217.075-.378.15-.486.225.067.208.112.429.137.662.025.233.037.483.037.75V15.5h-1.512v-3.438c0-.683-.087-1.175-.262-1.475-.167-.308-.485-.463-.951-.463-.167 0-.349.012-.549.037-.2.025-.351.046-.451.063v5.275h-1.512V9.175a10.181 10.181 0 0 1 2.637-.351z" fill="#ececec"/></svg>