<svg xmlns="http://www.w3.org/2000/svg" width="22" height="22"><defs><style id="current-color-scheme" type="text/css"></style></defs><path d="M17.75 5a.25.25 0 0 1 .25.25v.5a.25.25 0 0 1-.25.25H16V5h1.75zm0 2a.25.25 0 0 1 .25.25v.5a.25.25 0 0 1-.25.25H16V7h1.75zm0 2a.25.25 0 0 1 .25.25v.5a.25.25 0 0 1-.25.25H16V9h1.75zm0 2a.25.25 0 0 1 .25.25v.5a.25.25 0 0 1-.25.25H16v-1h1.75zm0 2a.25.25 0 0 1 .25.25v.5a.25.25 0 0 1-.25.25H16v-1h1.75zm0 2a.25.25 0 0 1 .25.25v.5a.25.25 0 0 1-.25.25H16v-1h1.75zm0 2a.25.25 0 0 1 .25.25v.5a.25.25 0 0 1-.25.25H16v-1h1.75zM4.25 5a.25.25 0 0 0-.25.25v.5c0 .138.112.25.25.25H6V5H4.25zm0 2a.25.25 0 0 0-.25.25v.5c0 .138.112.25.25.25H6V7H4.25zm0 2a.25.25 0 0 0-.25.25v.5c0 .138.112.25.25.25H6V9H4.25zm0 2a.25.25 0 0 0-.25.25v.5c0 .138.112.25.25.25H6v-1H4.25zm0 2a.25.25 0 0 0-.25.25v.5c0 .138.112.25.25.25H6v-1H4.25zm0 2a.25.25 0 0 0-.25.25v.5c0 .138.112.25.25.25H6v-1H4.25zm0 2a.25.25 0 0 0-.25.25v.5c0 .138.112.25.25.25H6v-1H4.25zM8 4h6c.554 0 1 .446 1 1v13c0 .554-.446 1-1 1H8c-.554 0-1-.446-1-1V5c0-.554.446-1 1-1z" fill="currentColor" color="#dfdfdf"/></svg>