<svg xmlns="http://www.w3.org/2000/svg" viewBox="0 0 22 22"><path d="M3 1c-1.108 0-2 .892-2 2v16c0 1.108.892 2 2 2h16c1.108 0 2-.892 2-2V3c0-1.108-.892-2-2-2H3zm.846 5.838h1.289c.333.35.691.767 1.074 1.25.383.475.767.97 1.15 1.486.392.517.767 1.038 1.125 1.563.367.517.691 1 .975 1.451v-5.75h1.562V15.5H9.683a48.784 48.784 0 0 0-.949-1.525c-.35-.55-.713-1.1-1.088-1.65a34.9 34.9 0 0 0-1.15-1.611c-.383-.525-.75-.995-1.1-1.412v6.199H3.845V6.839zM15.7 8.801c.9 0 1.6.278 2.1.836.508.558.764 1.392.764 2.5 0 .083-.005.181-.014.289 0 .1-.003.19-.012.273h-4.313c.042.525.226.935.551 1.227.333.283.813.424 1.437.424.367 0 .7-.033 1-.1.308-.067.55-.138.725-.213l.199 1.238a2.73 2.73 0 0 1-.35.137c-.142.042-.308.08-.5.113a5.772 5.772 0 0 1-1.262.137c-.575 0-1.075-.083-1.5-.25a2.898 2.898 0 0 1-1.051-.713 2.98 2.98 0 0 1-.613-1.074 4.468 4.468 0 0 1-.199-1.363c0-.575.083-1.078.25-1.512.175-.433.404-.791.688-1.074a2.69 2.69 0 0 1 .975-.65c.367-.15.742-.225 1.125-.225zm.014 1.262a1.3 1.3 0 0 0-.613.137 1.378 1.378 0 0 0-.449.338 1.632 1.632 0 0 0-.275.488 2.619 2.619 0 0 0-.139.563h2.813a1.94 1.94 0 0 0-.086-.588 1.297 1.297 0 0 0-.264-.488 1.044 1.044 0 0 0-.412-.324 1.22 1.22 0 0 0-.574-.125z" fill="#ececec"/></svg>