<svg xmlns="http://www.w3.org/2000/svg" viewBox="0 0 22 22"><path d="M3 1c-1.108 0-2 .892-2 2v16c0 1.108.892 2 2 2h16c1.108 0 2-.892 2-2V3c0-1.108-.892-2-2-2H3zm-.063 5.588H8.5v1.338H4.512v2.137h3.551v1.313H4.512v2.537h4.287v1.338H2.938V6.589zm9.936 1.986c.533 0 .98.077 1.338.227.358.142.641.345.85.611.217.258.368.576.451.951.092.367.137.769.137 1.211v3.676h-1.512v-3.438c0-.35-.026-.645-.076-.887-.042-.25-.116-.452-.225-.602a.813.813 0 0 0-.424-.336 1.653 1.653 0 0 0-.65-.113 5.04 5.04 0 0 0-.6.037c-.208.025-.363.046-.463.063v5.275h-1.514V8.925a10.23 10.23 0 0 1 2.688-.351zm5.613 4.844h.531v4.332h-.758v-3.318a2.442 2.442 0 0 1-.424.256 4.402 4.402 0 0 1-.494.207l-.23-.576a4.59 4.59 0 0 0 .725-.369c.246-.15.463-.327.65-.531z" fill="#ececec"/></svg>