<svg xmlns="http://www.w3.org/2000/svg" viewBox="0 0 22 22"><path d="M3 1c-1.108 0-2 .892-2 2v16c0 1.108.892 2 2 2h16c1.108 0 2-.892 2-2V3c0-1.108-.892-2-2-2H3zm11.373 5.113c.25 0 .467.083.65.25.183.167.275.396.275.688 0 .283-.092.507-.275.674a.932.932 0 0 1-.65.25.948.948 0 0 1-.662-.25c-.183-.167-.275-.39-.275-.674 0-.292.092-.521.275-.688a.948.948 0 0 1 .662-.25zm-4.889.523c.542 0 1.021.063 1.438.188.425.117.758.247 1 .389l-.486 1.275a3.711 3.711 0 0 0-.938-.363A4.29 4.29 0 0 0 9.459 8c-.425 0-.758.087-1 .262-.233.175-.35.422-.35.738 0 .192.038.358.113.5.083.133.196.255.338.363.15.108.32.207.512.299.2.092.417.18.65.264.408.15.771.303 1.088.461.325.15.596.334.813.551.225.208.395.458.512.75.117.283.176.629.176 1.037 0 .783-.28 1.393-.838 1.826-.55.425-1.359.637-2.426.637-.358 0-.686-.024-.986-.074a5.926 5.926 0 0 1-1.375-.363 4.494 4.494 0 0 1-.4-.199l.463-1.289c.225.125.529.25.912.375s.845.188 1.387.188c.567 0 .98-.095 1.238-.287.258-.192.387-.462.387-.813 0-.208-.045-.387-.137-.537a1.199 1.199 0 0 0-.375-.4 2.599 2.599 0 0 0-.588-.338 7.96 7.96 0 0 0-.801-.313 13.4 13.4 0 0 1-.875-.35 3.22 3.22 0 0 1-.736-.486 2.38 2.38 0 0 1-.514-.688c-.125-.267-.188-.588-.188-.963 0-.783.271-1.396.813-1.838.542-.45 1.28-.676 2.213-.676zm4.139 2.326h1.512v6.537h-1.512V8.962z" fill="#ececec"/></svg>