<svg viewBox="0 0 22 22" xmlns="http://www.w3.org/2000/svg"><path d="M3 1c-1.108 0-2 .892-2 2v16c0 1.108.892 2 2 2h16c1.108 0 2-.892 2-2V3c0-1.108-.892-2-2-2H3zm.895 5.838h1.576v3.463h3.762V6.838h1.576V15.5H9.233v-3.838H5.471V15.5H3.895V6.838zm8.836 2.125h1.512v3.424c0 .7.101 1.2.301 1.5.208.3.566.451 1.074.451.183 0 .374-.009.574-.025.208-.017.363-.037.463-.063V8.963h1.514v6.338c-.292.075-.672.15-1.139.225a8.8 8.8 0 0 1-1.537.125c-.525 0-.966-.075-1.324-.225a2.182 2.182 0 0 1-.852-.625 2.516 2.516 0 0 1-.449-.951 5.135 5.135 0 0 1-.137-1.225V8.963z" fill="#ececec"/></svg>