<svg viewBox="0 0 22 22" xmlns="http://www.w3.org/2000/svg"><path d="M3 1c-1.108 0-2 .892-2 2v16c0 1.108.892 2 2 2h16c1.108 0 2-.892 2-2V3c0-1.108-.892-2-2-2H3zm-.063 5.588H8.5v1.338H4.512v2.137h3.551v1.313H4.512v2.537h4.287v1.338H2.938V6.589zm9.936 1.986c.533 0 .98.077 1.338.227.358.142.641.345.85.611.217.258.368.576.451.951.092.367.137.769.137 1.211v3.676h-1.512v-3.438c0-.35-.026-.645-.076-.887-.042-.25-.116-.452-.225-.602a.813.813 0 0 0-.424-.336 1.653 1.653 0 0 0-.65-.113 5.04 5.04 0 0 0-.6.037c-.208.025-.363.046-.463.063v5.275h-1.514V8.925a10.23 10.23 0 0 1 2.688-.351zm4.01 4.844h2.895v.576a4.305 4.305 0 0 0-.451.631 8.397 8.397 0 0 0-.844 1.98 5.82 5.82 0 0 0-.193 1.145h-.775c.025-.317.082-.65.17-1 .088-.35.193-.69.318-1.02.129-.333.268-.642.418-.93.154-.292.307-.537.457-.732h-1.994v-.65z" fill="#ececec"/></svg>