<svg viewBox="0 0 22 22" xmlns="http://www.w3.org/2000/svg"><path d="M3 1c-1.108 0-2 .892-2 2v16c0 1.108.892 2 2 2h16c1.108 0 2-.892 2-2V3c0-1.108-.892-2-2-2H3zm3.713 5.75c.725 0 1.386.087 1.986.262.6.167 1.112.434 1.537.801a3.5 3.5 0 0 1 1 1.375c.233.55.352 1.208.352 1.975 0 .75-.118 1.405-.352 1.963a3.733 3.733 0 0 1-1 1.387c-.425.367-.94.643-1.549.826-.6.175-1.267.262-2 .262-.35 0-.746-.015-1.188-.049a7.535 7.535 0 0 1-1.264-.176V6.964c.4-.092.825-.151 1.275-.176.45-.025.851-.037 1.201-.037zm.1 1.363c-.467 0-.8.012-1 .037v6.05c.092.008.211.017.361.025h.613c1.058 0 1.847-.265 2.363-.799.525-.542.787-1.297.787-2.264 0-.983-.255-1.737-.764-2.262-.508-.525-1.295-.787-2.361-.787zm8.461.688c.5 0 .92.063 1.262.188.342.125.613.298.813.523.208.225.354.501.438.826.092.317.137.665.137 1.049v3.963c-.233.05-.587.109-1.063.176a10.07 10.07 0 0 1-1.586.111c-.392 0-.751-.036-1.076-.111a2.334 2.334 0 0 1-.838-.363 1.793 1.793 0 0 1-.537-.65c-.125-.267-.188-.595-.188-.986 0-.375.071-.693.213-.951.15-.258.35-.467.6-.625.25-.167.538-.283.863-.35a4.708 4.708 0 0 1 1.037-.111c.167 0 .342.012.525.037.183.017.38.05.588.1v-.25a1.94 1.94 0 0 0-.063-.5.955.955 0 0 0-.227-.412.944.944 0 0 0-.412-.287 1.72 1.72 0 0 0-.637-.102c-.35 0-.671.026-.963.076-.292.05-.53.107-.713.174l-.188-1.225a5.85 5.85 0 0 1 .838-.199c.367-.067.759-.1 1.176-.1zm.299 3.773c-.167 0-.337.014-.512.039-.167.025-.321.07-.463.137a.83.83 0 0 0-.324.287.763.763 0 0 0-.125.451c0 .358.111.608.336.75.225.133.531.199.914.199.467 0 .821-.024 1.062-.074v-1.676a2.99 2.99 0 0 0-.363-.074 3.373 3.373 0 0 0-.525-.039z" fill="#ececec"/></svg>