<svg viewBox="0 0 22 22" xmlns="http://www.w3.org/2000/svg"><path d="M3 1c-1.108 0-2 .892-2 2v16c0 1.108.892 2 2 2h16c1.108 0 2-.892 2-2V3c0-1.108-.892-2-2-2H3zm3.748 5.75c.525 0 1.013.042 1.463.125.45.075.837.203 1.162.387.333.183.592.427.775.727.183.3.275.67.275 1.111 0 .408-.101.759-.301 1.051a2.033 2.033 0 0 1-.813.699c.525.175.914.434 1.164.775.25.342.375.776.375 1.301 0 .892-.327 1.562-.977 2.01-.65.442-1.645.662-2.986.662-.458 0-.922-.015-1.389-.049a6.144 6.144 0 0 1-1.225-.176V6.961c.183-.033.38-.063.588-.088a7.65 7.65 0 0 1 .637-.074 16.08 16.08 0 0 1 1.25-.051zm.201 1.287c-.242 0-.459.005-.65.014a5.89 5.89 0 0 0-.475.037v2.275h1.111c.6 0 1.072-.083 1.414-.25.342-.175.512-.484.512-.926 0-.417-.179-.712-.537-.887-.35-.175-.808-.264-1.375-.264zm8.328.787c.492 0 .959.038 1.4.113.442.075.817.155 1.125.238v5.662c0 1.042-.267 1.804-.801 2.287-.525.483-1.334.725-2.426.725a6.806 6.806 0 0 1-2.199-.362l.275-1.289c.258.108.55.197.875.264.333.067.691.1 1.074.1.608 0 1.042-.125 1.301-.375.258-.25.387-.622.387-1.113v-.25c-.15.075-.35.152-.6.227a2.836 2.836 0 0 1-.838.111c-.417 0-.8-.066-1.15-.199a2.464 2.464 0 0 1-.887-.588 2.803 2.803 0 0 1-.574-.963 4.19 4.19 0 0 1-.201-1.35c0-.475.071-.912.213-1.313.15-.4.362-.742.637-1.025a2.976 2.976 0 0 1 1.025-.662c.4-.158.855-.238 1.363-.238zm.012 1.264c-.55 0-.97.182-1.262.549-.292.358-.438.834-.438 1.426 0 .642.137 1.112.412 1.412.283.292.646.438 1.088.438.242 0 .465-.033.674-.1.217-.067.392-.147.525-.238v-3.387a3.46 3.46 0 0 0-.4-.063 3.962 3.962 0 0 0-.6-.037zM5.824 11.6v2.639a13.786 13.786 0 0 0 1.112.049c.325 0 .625-.021.9-.063.283-.042.525-.113.725-.213.208-.108.372-.249.488-.424.125-.175.188-.401.188-.676 0-.492-.179-.834-.537-1.025-.358-.192-.855-.287-1.488-.287H5.825z" fill="#ececec"/></svg>