<svg xmlns="http://www.w3.org/2000/svg" width="22" height="22"><defs><style id="current-color-scheme" type="text/css"></style></defs><path d="M8.9 4.005c-3.014.863-5.141 3.187-4.878 6.419.304 3.728 5.759 7.498 7.895 7.576.931-.218.392-3.17-.156-5.398a53.848 53.848 0 0 0-.485-1.805l-.144-.496c-.292-.97-.645-2.077-1.223-3.838a.5.5 0 1 1 .951-.31c1.002 3.051 1.399 4.393 1.807 5.968 1.609 1.997 3.948 4.73 4.703 4.559 1.166-.263 1.588-7.948-.538-10.318-2.126-2.37-4.94-2.928-7.932-2.357z" fill="currentColor" color="#dfdfdf"/></svg>