<svg xmlns="http://www.w3.org/2000/svg" viewBox="0 0 22 22"><path d="M3 1c-1.108 0-2 .892-2 2v16c0 1.108.892 2 2 2h16c1.108 0 2-.892 2-2V3c0-1.108-.892-2-2-2H3zm4.873 5.637c.542 0 1.021.063 1.438.188.425.117.758.247 1 .389l-.486 1.275a3.711 3.711 0 0 0-.938-.363 4.29 4.29 0 0 0-1.039-.125c-.425 0-.758.087-1 .262-.233.175-.35.422-.35.738 0 .192.038.358.113.5.083.133.196.255.338.363.15.108.32.207.512.299.2.092.417.18.65.264.408.15.771.303 1.088.461.325.15.596.334.813.551.225.208.395.458.512.75.117.283.176.629.176 1.037 0 .783-.28 1.393-.838 1.826-.55.425-1.359.637-2.426.637-.358 0-.686-.024-.986-.074a5.926 5.926 0 0 1-1.375-.363 4.494 4.494 0 0 1-.4-.199l.463-1.289c.225.125.529.25.912.375s.845.188 1.387.188c.567 0 .98-.095 1.238-.287.258-.192.387-.462.387-.813 0-.208-.045-.387-.137-.537a1.199 1.199 0 0 0-.375-.4 2.599 2.599 0 0 0-.588-.338 7.96 7.96 0 0 0-.801-.313 13.4 13.4 0 0 1-.875-.35 3.22 3.22 0 0 1-.736-.486 2.38 2.38 0 0 1-.514-.688c-.125-.267-.188-.588-.188-.963 0-.783.271-1.396.813-1.838.542-.45 1.28-.676 2.213-.676zm6.301 2.164c.5 0 .922.063 1.264.188.342.125.613.298.813.523.208.225.354.501.438.826.092.317.137.665.137 1.049v3.963c-.233.05-.587.109-1.063.176-.467.075-.996.111-1.588.111-.392 0-.749-.036-1.074-.111a2.334 2.334 0 0 1-.838-.363 1.793 1.793 0 0 1-.537-.65c-.125-.267-.188-.595-.188-.986 0-.375.071-.693.213-.951.15-.258.35-.467.6-.625.25-.167.536-.283.861-.35a4.726 4.726 0 0 1 1.039-.111c.167 0 .34.012.523.037.183.017.38.05.588.1v-.25a1.94 1.94 0 0 0-.063-.5.951.951 0 0 0-.225-.412.944.944 0 0 0-.412-.287 1.73 1.73 0 0 0-.639-.102c-.35 0-.669.026-.961.076-.292.05-.53.107-.713.174l-.188-1.225a5.85 5.85 0 0 1 .838-.199c.367-.067.757-.1 1.174-.1zm.301 3.773c-.167 0-.339.014-.514.039-.167.025-.319.07-.461.137a.836.836 0 0 0-.326.287.763.763 0 0 0-.125.451c0 .358.113.608.338.75.225.133.529.199.912.199.467 0 .821-.024 1.063-.074v-1.676a2.941 2.941 0 0 0-.361-.074 3.373 3.373 0 0 0-.525-.039z" fill="#ececec"/></svg>