<svg viewBox="0 0 22 22" xmlns="http://www.w3.org/2000/svg"><path d="M3 1c-1.108 0-2 .892-2 2v16c0 1.108.892 2 2 2h16c1.108 0 2-.892 2-2V3c0-1.108-.892-2-2-2H3zm10.646 4.801v5.711l.611-.637.639-.688c.208-.233.405-.454.588-.662.192-.217.353-.404.486-.563h1.787c-.417.467-.858.949-1.324 1.449-.458.5-.92.988-1.387 1.463.25.208.512.462.787.762.275.292.54.604.799.938.258.333.502.667.727 1 .225.333.413.642.563.926h-1.75a11.18 11.18 0 0 0-.525-.813 9.757 9.757 0 0 0-.625-.824 11.662 11.662 0 0 0-.688-.75 5.433 5.433 0 0 0-.688-.613v3h-1.514V6.051l1.514-.25zM4.107 6.838h6.912v1.361H8.357V15.5H6.769V8.199H4.107V6.838z" fill="#ececec"/></svg>