<svg xmlns="http://www.w3.org/2000/svg" viewBox="0 0 22 22"><path d="M3 1c-1.108 0-2 .892-2 2v16c0 1.108.892 2 2 2h16c1.108 0 2-.892 2-2V3c0-1.108-.892-2-2-2H3zm13.533 5.113c.25 0 .467.083.65.25.183.167.275.396.275.688 0 .283-.092.507-.275.674a.932.932 0 0 1-.65.25.948.948 0 0 1-.662-.25c-.183-.167-.275-.39-.275-.674 0-.292.092-.521.275-.688a.948.948 0 0 1 .662-.25zm-11.322.725h1.463c.183.317.388.704.613 1.162.225.458.454.941.688 1.449.233.5.463 1.014.688 1.539.233.517.445.996.637 1.438l.625-1.438c.225-.525.454-1.039.687-1.539.233-.508.463-.991.688-1.449.225-.458.43-.845.613-1.162h1.424a82.988 82.988 0 0 1 .389 4.212c.058.742.109 1.492.15 2.25.05.75.092 1.483.125 2.199H12.45c-.033-1.01-.075-2.047-.125-3.113a60.467 60.467 0 0 0-.199-3.1c-.092.192-.201.421-.326.688-.125.267-.259.558-.4.875-.142.308-.288.63-.438.963-.142.333-.282.658-.424.975l-.375.875-.301.688H8.688c-.083-.192-.184-.424-.301-.699A32.037 32.037 0 0 0 8 12.776a43.012 43.012 0 0 0-.426-.975 36.538 36.538 0 0 0-.426-.963c-.142-.308-.273-.597-.398-.863a23.233 23.233 0 0 0-.326-.688c-.092 1-.163 2.033-.213 3.1A469.208 469.208 0 0 0 6.1 15.5H4.549c.033-.717.072-1.458.113-2.225L4.812 11c.058-.758.121-1.491.188-2.199.067-.708.136-1.363.211-1.963zm10.572 2.125h1.514V15.5h-1.514V8.963z" fill="#ececec"/></svg>