<svg xmlns="http://www.w3.org/2000/svg" viewBox="0 0 22 22"><path d="M3 1c-1.108 0-2 .892-2 2v16c0 1.108.892 2 2 2h16c1.108 0 2-.892 2-2V3c0-1.108-.892-2-2-2H3zm.254 5.588H4.83v3.463h3.762V6.588h1.576v8.662H8.592v-3.838H4.83v3.838H3.254V6.588zm11.461 1.986c.1 0 .216.009.35.025.133.008.267.026.4.051.133.017.262.041.387.074.125.025.226.051.301.076l-.264 1.273a4.12 4.12 0 0 0-.525-.125 3.421 3.421 0 0 0-1.299-.023 3.277 3.277 0 0 0-.389.086v5.238h-1.512V9.024a7.961 7.961 0 0 1 1.088-.301c.442-.1.93-.15 1.463-.15zm3.641 4.844h.719v2.676h.488v.619h-.488v1.037h-.736v-1.037h-1.9v-.537c.083-.183.193-.395.33-.633.142-.237.298-.48.469-.73.171-.25.353-.497.545-.738.192-.242.383-.46.574-.656zm-.018.932a8.61 8.61 0 0 0-1.157 1.745h1.156v-1.744z" fill="#ececec"/></svg>