<svg xmlns="http://www.w3.org/2000/svg" viewBox="0 0 22 22"><path d="M3 1c-1.108 0-2 .892-2 2v16c0 1.108.892 2 2 2h16c1.108 0 2-.892 2-2V3c0-1.108-.892-2-2-2H3zm11.445 4.551v7.486c0 .183.012.338.037.463a.838.838 0 0 0 .162.324.8.8 0 0 0 .301.201c.133.042.3.075.5.1l-.213 1.25c-.45-.008-.825-.059-1.125-.15a1.757 1.757 0 0 1-.699-.387 1.496 1.496 0 0 1-.375-.639 3.486 3.486 0 0 1-.102-.875V5.801l1.514-.25zM3.779 6.588h1.287c.333.35.693.767 1.076 1.25.383.475.765.97 1.148 1.486.392.517.767 1.038 1.125 1.563.367.517.693 1 .977 1.451v-5.75h1.562v8.662H9.616a49.034 49.034 0 0 0-.951-1.525c-.35-.55-.711-1.1-1.086-1.65a34.9 34.9 0 0 0-1.15-1.611c-.383-.525-.75-.995-1.1-1.412v6.199H3.778V6.589zm13.863 6.83h.531v4.332h-.756v-3.318a2.442 2.442 0 0 1-.424.256 4.402 4.402 0 0 1-.494.207l-.232-.576c.242-.096.485-.219.727-.369a2.97 2.97 0 0 0 .648-.531z" fill="#ececec"/></svg>