<svg viewBox="0 0 22 22" xmlns="http://www.w3.org/2000/svg"><path d="M3 1c-1.108 0-2 .892-2 2v16c0 1.108.892 2 2 2h16c1.108 0 2-.892 2-2V3c0-1.108-.892-2-2-2H3zm1.65 5.838h1.588V12.1c0 .392.042.73.125 1.014.092.275.217.499.375.674.167.175.358.305.574.389.225.083.475.125.75.125s.525-.042.75-.125c.225-.083.418-.214.576-.389.167-.175.292-.399.375-.674.092-.283.137-.622.137-1.014V6.838h1.588v5.412c0 .5-.071.958-.213 1.375a2.88 2.88 0 0 1-.625 1.088c-.275.308-.629.55-1.063.725-.433.167-.945.25-1.537.25s-1.1-.083-1.525-.25a2.936 2.936 0 0 1-1.063-.725 2.962 2.962 0 0 1-.611-1.088 4.504 4.504 0 0 1-.201-1.375V6.838zm8.193 2.125h4.963v1.063c-.167.175-.387.42-.662.736-.267.317-.555.671-.863 1.063-.308.383-.621.788-.938 1.213a25.31 25.31 0 0 0-.836 1.201h3.375v1.262h-5.201v-.938c.183-.333.412-.696.688-1.088.275-.392.558-.782.85-1.174.292-.4.58-.78.863-1.139.292-.358.55-.671.775-.938h-3.01V8.962z" fill="#ececec"/></svg>