<svg viewBox="0 0 22 22" xmlns="http://www.w3.org/2000/svg"><path d="M3 1c-1.108 0-2 .892-2 2v16c0 1.108.892 2 2 2h16c1.108 0 2-.892 2-2V3c0-1.108-.892-2-2-2H3zm6.457 5.637c.358 0 .683.03.975.088.292.05.545.109.762.176.217.067.395.138.537.213.142.075.242.129.301.162l-.463 1.287c-.2-.125-.486-.241-.861-.35a3.939 3.939 0 0 0-1.201-.176c-.375 0-.724.068-1.049.201-.325.125-.61.316-.852.574a2.768 2.768 0 0 0-.549.975 4.242 4.242 0 0 0-.201 1.363c0 .458.05.878.15 1.262.108.383.272.717.488 1 .217.275.491.492.824.65.333.15.735.225 1.201.225.558 0 1.01-.054 1.361-.162.35-.117.621-.224.813-.324l.426 1.287c-.1.067-.237.133-.412.199a6.027 6.027 0 0 1-.602.201 6.29 6.29 0 0 1-.787.137 6.586 6.586 0 0 1-.937.063c-.65 0-1.233-.101-1.75-.301a3.503 3.503 0 0 1-1.313-.875 3.994 3.994 0 0 1-.824-1.424c-.192-.558-.287-1.201-.287-1.926 0-.725.108-1.365.324-1.924a4.185 4.185 0 0 1 .912-1.414 3.76 3.76 0 0 1 1.35-.887 4.574 4.574 0 0 1 1.664-.301zm6.533 2.188c.1 0 .216.009.35.025.133.008.267.026.4.051.133.017.262.041.387.074.125.025.226.051.301.076l-.264 1.273a4.12 4.12 0 0 0-.525-.125 3.421 3.421 0 0 0-1.299-.023 3.277 3.277 0 0 0-.389.086V15.5h-1.512V9.275a7.961 7.961 0 0 1 1.088-.301c.442-.1.93-.15 1.463-.15z" fill="#ececec"/></svg>