<svg viewBox="0 0 22 22" xmlns="http://www.w3.org/2000/svg"><path d="M3 1c-1.108 0-2 .892-2 2v16c0 1.108.892 2 2 2h16c1.108 0 2-.892 2-2V3c0-1.108-.892-2-2-2H3zm4.164 5.75c.525 0 1.013.042 1.463.125.45.075.837.203 1.162.387.333.183.592.427.775.727.183.3.275.67.275 1.111 0 .408-.101.759-.301 1.051a2.03 2.03 0 0 1-.812.699c.525.175.912.434 1.162.775.25.342.375.776.375 1.301 0 .892-.325 1.562-.975 2.01-.65.442-1.647.662-2.988.662-.458 0-.92-.015-1.387-.049a6.144 6.144 0 0 1-1.225-.176V6.961c.183-.033.38-.063.588-.088a7.65 7.65 0 0 1 .637-.074 15.983 15.983 0 0 1 1.25-.051zm.199 1.287c-.242 0-.457.005-.648.014-.183.008-.343.02-.477.037v2.275h1.113c.6 0 1.07-.083 1.412-.25.342-.175.514-.484.514-.926 0-.417-.181-.712-.539-.887-.35-.175-.808-.264-1.375-.264zm4.604.926h1.613c.083.35.182.728.299 1.137.125.408.259.825.4 1.25.142.417.293.833.451 1.25.158.417.316.804.475 1.162.267-.742.517-1.528.75-2.361.233-.842.445-1.654.637-2.438h1.563c-.675 2.483-1.458 4.733-2.35 6.75a6.848 6.848 0 0 1-.512.963 2.84 2.84 0 0 1-.588.662c-.217.175-.458.3-.725.375a3.125 3.125 0 0 1-.926.125c-.233 0-.466-.026-.699-.076a2.375 2.375 0 0 1-.514-.162l.275-1.213c.3.117.595.176.887.176.392 0 .697-.095.914-.287.225-.183.419-.472.586-.863a36.591 36.591 0 0 1-1.375-3 34.317 34.317 0 0 1-1.162-3.449zM6.238 11.6v2.639a13.882 13.882 0 0 0 1.114.049c.325 0 .625-.021.9-.063.283-.042.525-.113.725-.213.208-.108.372-.249.488-.424.125-.175.188-.401.188-.676 0-.492-.181-.834-.539-1.025-.358-.192-.853-.287-1.486-.287H6.239z" fill="#ececec"/></svg>