<svg xmlns="http://www.w3.org/2000/svg" viewBox="0 0 22 22"><path d="M3 1c-1.108 0-2 .892-2 2v16c0 1.108.892 2 2 2h16c1.108 0 2-.892 2-2V3c0-1.108-.892-2-2-2H3zm4.736 5.75c1.258 0 2.222.229 2.889.688.675.458 1.012 1.175 1.012 2.15 0 .508-.092.946-.275 1.313a2.272 2.272 0 0 1-.773.887c-.342.225-.758.392-1.25.5a7.913 7.913 0 0 1-1.688.162h-.789v3.051H5.288V6.964a7.405 7.405 0 0 1 1.213-.162c.45-.033.861-.051 1.236-.051zm.113 1.363c-.4 0-.73.012-.988.037v2.949h.764c.758 0 1.342-.104 1.75-.313.408-.217.611-.621.611-1.213a1.43 1.43 0 0 0-.162-.711 1.165 1.165 0 0 0-.449-.451 2.04 2.04 0 0 0-.688-.225 4.415 4.415 0 0 0-.838-.074zm7.25.688c.383 0 .75.036 1.1.111.35.067.614.135.789.201l-.275 1.225a3.392 3.392 0 0 0-.639-.201 3.592 3.592 0 0 0-.898-.1c-.308 0-.558.054-.75.162a.503.503 0 0 0-.289.477c0 .108.017.204.051.287a.75.75 0 0 0 .199.236c.092.067.213.138.363.213.15.067.334.138.551.213.358.133.662.267.912.4.25.125.453.271.611.438.167.158.288.34.363.549.075.208.113.458.113.75 0 .625-.235 1.101-.701 1.426-.458.317-1.116.475-1.975.475-.575 0-1.037-.05-1.387-.15a6.479 6.479 0 0 1-.738-.225l.262-1.262c.225.092.492.178.801.262a4.24 4.24 0 0 0 1.074.125c.4 0 .692-.045.875-.137.183-.1.275-.267.275-.5 0-.217-.099-.395-.299-.537-.192-.142-.513-.296-.963-.463-.275-.1-.53-.204-.764-.313a2.807 2.807 0 0 1-.586-.4c-.167-.15-.3-.329-.4-.537a2.011 2.011 0 0 1-.139-.787c0-.6.222-1.072.664-1.414.442-.35 1.04-.523 1.799-.523z" fill="#ececec"/></svg>