<svg viewBox="0 0 22 22" xmlns="http://www.w3.org/2000/svg"><path d="M3 1c-1.108 0-2 .892-2 2v16c0 1.108.892 2 2 2h16c1.108 0 2-.892 2-2V3c0-1.108-.892-2-2-2H3zm2 5.75c.525 0 1.01.042 1.461.125.45.075.839.203 1.164.387.333.183.59.427.773.727.183.3.275.67.275 1.111 0 .408-.099.759-.299 1.051a2.03 2.03 0 0 1-.812.699c.525.175.912.434 1.162.775.25.342.375.776.375 1.301 0 .892-.325 1.562-.975 2.01-.65.442-1.647.662-2.988.662-.458 0-.92-.015-1.387-.049a6.166 6.166 0 0 1-1.227-.176V6.961c.183-.033.38-.063.588-.088.208-.033.422-.058.639-.074a15.983 15.983 0 0 1 1.25-.051zm.199 1.287c-.242 0-.459.005-.65.014a5.89 5.89 0 0 0-.475.037v2.275h1.113c.6 0 1.07-.083 1.412-.25.342-.175.512-.484.512-.926 0-.417-.179-.712-.537-.887-.35-.175-.808-.264-1.375-.264zm8.09.787c.45 0 .818.059 1.102.176.292.117.533.271.725.463a3.111 3.111 0 0 1 .825-.412c.175-.067.359-.122.551-.164.2-.042.4-.063.6-.063.508 0 .925.077 1.25.227.333.142.592.345.775.611.192.258.32.576.387.951.075.367.113.769.113 1.211V15.5h-1.514v-3.438c0-.683-.083-1.175-.25-1.475-.167-.308-.486-.463-.961-.463-.242 0-.471.042-.688.125-.217.075-.38.15-.488.225.067.208.112.429.137.662.025.233.039.483.039.75v3.613h-1.514v-3.438c0-.683-.087-1.175-.262-1.475-.167-.308-.485-.463-.951-.463-.167 0-.349.012-.549.037-.2.025-.351.046-.451.063v5.275h-1.512V9.174a10.181 10.181 0 0 1 2.637-.351zm-9.215 2.775v2.639a13.882 13.882 0 0 0 1.114.049c.325 0 .623-.021.898-.063.283-.042.527-.113.727-.213a1.27 1.27 0 0 0 .486-.424c.125-.175.188-.401.188-.676 0-.492-.179-.834-.537-1.025-.358-.192-.855-.287-1.488-.287H4.075z" fill="#ececec"/></svg>