<svg viewBox="0 0 22 22" xmlns="http://www.w3.org/2000/svg"><path d="M3 1c-1.108 0-2 .892-2 2v16c0 1.108.892 2 2 2h16c1.108 0 2-.892 2-2V3c0-1.108-.892-2-2-2H3zm4.078 5.838h1.488a63.958 63.958 0 0 1 1.676 3.875c.283.7.57 1.441.861 2.225.3.783.612 1.637.938 2.563h-1.699a37.66 37.66 0 0 0-.363-1.012 27.847 27.847 0 0 1-.361-1.025h-3.65c-.117.35-.238.695-.363 1.037l-.35 1H3.618a137.543 137.543 0 0 1 1.774-4.788c.283-.7.563-1.367.838-2s.558-1.258.85-1.875zm.713 1.674c-.192.442-.412.98-.662 1.613-.242.633-.495 1.321-.762 2.063h2.85a84.01 84.01 0 0 0-.775-2.074 50.599 50.599 0 0 0-.65-1.602zm4.25.451h1.613c.092.367.196.763.313 1.188.125.417.253.837.387 1.262.142.417.284.825.426 1.225.15.392.287.746.412 1.063.125-.317.259-.671.4-1.063.142-.4.279-.808.412-1.225.142-.425.275-.845.4-1.262.125-.425.233-.821.324-1.188h1.563a37.04 37.04 0 0 1-1.199 3.588 41.044 41.044 0 0 1-1.275 2.949h-1.301a44.645 44.645 0 0 1-1.287-2.949 39.707 39.707 0 0 1-1.188-3.588z" fill="#ececec"/></svg>