<svg xmlns="http://www.w3.org/2000/svg" width="22" height="22"><defs><style id="current-color-scheme" type="text/css">.ColorScheme-Text{color:#dfdfdf}</style></defs><path class="ColorScheme-Text" d="M5 6v12c0 .554.446 1 1 1h10c.554 0 1-.446 1-1V6H5zm2.5 2h7a.5.5 0 0 1 .5.5v4a.5.5 0 0 1-.5.5h-7a.5.5 0 0 1-.5-.5v-4a.5.5 0 0 1 .5-.5zM8 9v1h6V9H8zm0 2v1h6v-1H8zm0 3h1v1h1v-1h1v1h1v-1h1v1h1v-1h1v1h-1v1h1v1h-1v-1h-1v1h-1v-1h-1v1h-1v-1H9v1H8v-1H7v-1h1v-1zm0 1v1h1v-1H8zm2 1h1v-1h-1v1zm2 0h1v-1h-1v1z" fill="currentColor"/><path fill-rule="evenodd" class="ColorScheme-Text" d="M5 5l2-2h8l2 2z" fill="currentColor"/></svg>