<svg xmlns="http://www.w3.org/2000/svg" viewBox="0 0 22 22"><path d="M3 1c-1.108 0-2 .892-2 2v16c0 1.108.892 2 2 2h16c1.108 0 2-.892 2-2V3c0-1.108-.892-2-2-2H3zm.686 5.838h1.463c.183.317.386.704.611 1.162.225.458.454.941.688 1.449.233.5.463 1.014.688 1.539.233.517.447.996.639 1.438l.625-1.438c.225-.525.454-1.039.688-1.539.233-.508.463-.991.688-1.449.225-.458.428-.845.611-1.162h1.426a82.988 82.988 0 0 1 .387 4.212c.058.742.109 1.492.15 2.25.05.75.092 1.483.125 2.199h-1.549c-.033-1.01-.075-2.047-.125-3.113-.042-1.067-.11-2.1-.201-3.1-.092.192-.199.421-.324.688-.125.267-.259.558-.4.875-.142.308-.287.63-.438.963-.142.333-.284.658-.426.975l-.375.875-.299.688H7.162a138.28 138.28 0 0 1-.299-.699 32.353 32.353 0 0 0-.389-.875 42.76 42.76 0 0 0-.424-.975 36.538 36.538 0 0 0-.426-.963c-.142-.308-.275-.597-.4-.863a23.846 23.846 0 0 0-.324-.688c-.092 1-.163 2.033-.213 3.1-.042 1.067-.08 2.105-.113 3.113H3.025c.033-.717.07-1.458.111-2.225L3.286 11c.058-.758.121-1.491.188-2.199.067-.708.138-1.363.213-1.963zm9.709 2.125h1.613c.083.35.184.728.301 1.137.125.408.257.825.398 1.25.142.417.293.833.451 1.25.158.417.316.804.475 1.162.267-.742.517-1.528.75-2.361.233-.842.445-1.654.637-2.438h1.563c-.675 2.483-1.458 4.733-2.35 6.75a6.848 6.848 0 0 1-.512.963 2.84 2.84 0 0 1-.588.662c-.217.175-.458.3-.725.375a3.125 3.125 0 0 1-.926.125c-.233 0-.466-.026-.699-.076a2.375 2.375 0 0 1-.514-.162l.275-1.213c.3.117.597.176.889.176.392 0 .695-.095.912-.287.225-.183.421-.472.588-.863a36.591 36.591 0 0 1-1.375-3 34.316 34.316 0 0 1-1.164-3.449z" fill="#ececec"/></svg>