<svg viewBox="0 0 22 22" xmlns="http://www.w3.org/2000/svg"><path d="M3 1c-1.108 0-2 .892-2 2v16c0 1.108.892 2 2 2h16c1.108 0 2-.892 2-2V3c0-1.108-.892-2-2-2H3zm1.107 5.838h6.912v1.361H8.357V15.5H6.769V8.199H4.107V6.838zM14.38 8.824c.533 0 .98.077 1.338.227.358.142.641.345.85.611.217.258.368.576.451.951.092.367.137.769.137 1.211V15.5h-1.512v-3.438c0-.35-.026-.645-.076-.887-.042-.25-.116-.452-.225-.602a.818.818 0 0 0-.426-.336 1.643 1.643 0 0 0-.648-.113c-.192 0-.393.012-.602.037a10.45 10.45 0 0 0-.461.063v5.275h-1.514V9.175a10.23 10.23 0 0 1 2.688-.351z" fill="#ececec"/></svg>