<svg viewBox="0 0 22 22" xmlns="http://www.w3.org/2000/svg"><path d="M3 1c-1.108 0-2 .892-2 2v16c0 1.108.892 2 2 2h16c1.108 0 2-.892 2-2V3c0-1.108-.892-2-2-2H3zm4.482 5.637c.542 0 1.021.063 1.438.188.425.117.758.247 1 .389l-.486 1.275a3.711 3.711 0 0 0-.938-.363 4.29 4.29 0 0 0-1.039-.125c-.425 0-.758.087-1 .262-.233.175-.35.422-.35.738 0 .192.038.358.113.5.083.133.196.255.338.363.15.108.32.207.512.299.2.092.417.18.65.264.408.15.771.303 1.088.461.325.15.596.334.813.551.225.208.395.458.512.75.117.283.176.629.176 1.037 0 .783-.28 1.393-.838 1.826-.55.425-1.359.637-2.426.637-.358 0-.686-.024-.986-.074a5.926 5.926 0 0 1-1.375-.363 4.494 4.494 0 0 1-.4-.199l.463-1.289c.225.125.529.25.912.375s.845.188 1.387.188c.567 0 .98-.095 1.238-.287.258-.192.387-.462.387-.813 0-.208-.045-.387-.137-.537a1.199 1.199 0 0 0-.375-.4 2.599 2.599 0 0 0-.588-.338 7.96 7.96 0 0 0-.801-.313 13.4 13.4 0 0 1-.875-.35 3.22 3.22 0 0 1-.736-.486 2.38 2.38 0 0 1-.514-.688c-.125-.267-.188-.588-.188-.963 0-.783.271-1.396.813-1.838.542-.45 1.28-.676 2.213-.676zm7.088 2.188c.517 0 1 .038 1.451.113.45.075.82.155 1.111.238v8.637H15.62v-2.537a3.528 3.528 0 0 1-.65.25c-.25.075-.53.111-.838.111-.467 0-.878-.078-1.236-.236a2.486 2.486 0 0 1-.9-.701 3.303 3.303 0 0 1-.563-1.074 4.812 4.812 0 0 1-.188-1.387c0-.517.075-.984.225-1.4.158-.425.379-.785.662-1.076.292-.3.642-.529 1.051-.688.408-.167.87-.25 1.387-.25zm.014 1.301c-.558 0-.996.191-1.313.574-.317.375-.475.896-.475 1.563 0 .633.125 1.139.375 1.514.258.375.661.563 1.211.563.25 0 .485-.038.701-.113.225-.083.404-.17.537-.262v-3.738a3.408 3.408 0 0 0-.412-.063 4.18 4.18 0 0 0-.625-.037z" fill="#ececec"/></svg>