<svg viewBox="0 0 22 22" xmlns="http://www.w3.org/2000/svg"><path d="M3 1c-1.108 0-2 .892-2 2v16c0 1.108.892 2 2 2h16c1.108 0 2-.892 2-2V3c0-1.108-.892-2-2-2H3zm1.768 5.588h1.576v8.662H4.768V6.588zm6.275 1.986c.533 0 .98.077 1.338.227.358.142.641.345.85.611.217.258.366.576.449.951.092.367.139.769.139 1.211v3.676h-1.514v-3.438c0-.35-.024-.645-.074-.887-.042-.25-.116-.452-.225-.602a.818.818 0 0 0-.426-.336 1.653 1.653 0 0 0-.65-.113 5.04 5.04 0 0 0-.6.037c-.208.025-.363.046-.463.063v5.275H8.355V8.925a10.181 10.181 0 0 1 2.688-.351zm5.611 4.844h.531v4.332h-.756v-3.318a2.466 2.466 0 0 1-.426.256 4.378 4.378 0 0 1-.492.207l-.232-.576a4.59 4.59 0 0 0 .725-.369c.246-.15.463-.327.65-.531z" fill="#ececec"/></svg>