<svg xmlns="http://www.w3.org/2000/svg" width="22" height="22"><defs><style id="current-color-scheme" type="text/css">.ColorScheme-Text{color:#dfdfdf}</style></defs><g transform="translate(3 -1030.4)"><path class="ColorScheme-Text" d="M1 1033.4c-.554 0-1 .446-1 1v14c0 .554.446 1 1 1h14c.554 0 1-.446 1-1v-14c0-.554-.446-1-1-1H1zm.5 1a.5.5 0 0 1 .5.5.5.5 0 0 1-.5.5.5.5 0 0 1-.5-.5.5.5 0 0 1 .5-.5zm6.5 0a7 7 0 0 1 7 7 7 7 0 0 1-7 7 7 7 0 0 1-7-7 7 7 0 0 1 7-7zm6.5 0a.5.5 0 0 1 .5.5.5.5 0 0 1-.5.5.5.5 0 0 1-.5-.5.5.5 0 0 1 .5-.5zm-13 13a.5.5 0 0 1 .5.5.5.5 0 0 1-.5.5.5.5 0 0 1-.5-.5.5.5 0 0 1 .5-.5zm13 0a.5.5 0 0 1 .5.5.5.5 0 0 1-.5.5.5.5 0 0 1-.5-.5.5.5 0 0 1 .5-.5z" fill="currentColor"/><circle class="ColorScheme-Text" cx="8" cy="1041.4" r="2" fill="currentColor"/><path class="ColorScheme-Text" d="M9.002 1035.502a1 1 0 0 0-1.002 1v1.898a3 3 0 0 1 2.344 1.129c.789-.17 1.455-.328 2.129-.486.894-.211.533-.99.175-1.43a5.999 5.999 0 0 0-3.447-2.092 1.003 1.003 0 0 0-.2-.02zM13.897 1042.4a1 1 0 0 0-1-1.002h-1.898a3 3 0 0 1-1.13 2.344c.171.79.328 1.455.487 2.129.21.894.99.533 1.43.176a6.002 6.002 0 0 0 2.092-3.448c.013-.066.02-.132.02-.199zM6.997 1047.3a1 1 0 0 0 1.002-1v-1.899a3 3 0 0 1-2.344-1.128c-.79.17-1.455.327-2.129.486-.894.21-.533.99-.176 1.43a6.002 6.002 0 0 0 3.448 2.091c.066.013.132.02.199.02zM2.102 1040.4a1 1 0 0 0 1 1.002H5a3 3 0 0 1 1.13-2.344c-.171-.79-.328-1.455-.487-2.129-.211-.894-.99-.533-1.43-.176a6.002 6.002 0 0 0-2.092 3.448c-.013.066-.02.132-.02.199z" fill="currentColor"/></g></svg>