<svg xmlns="http://www.w3.org/2000/svg" viewBox="0 0 22 22"><path d="M3 1c-1.108 0-2 .892-2 2v16c0 1.108.892 2 2 2h16c1.108 0 2-.892 2-2V3c0-1.108-.892-2-2-2H3zm4.594 5.838H9.17V15.5H7.594V6.838zm5.03.15v1.975h2.324v1.262h-2.324v2.662c0 .525.083.9.25 1.125.167.225.45.338.85.338.275 0 .516-.03.725-.088.217-.058.389-.112.514-.162l.25 1.201c-.175.075-.404.15-.688.225a3.575 3.575 0 0 1-1 .125c-.467 0-.859-.063-1.176-.188a1.755 1.755 0 0 1-.738-.537 2.22 2.22 0 0 1-.387-.863 5.444 5.444 0 0 1-.113-1.162V7.239l1.514-.25z" fill="#ececec"/></svg>