<svg xmlns="http://www.w3.org/2000/svg" width="22" height="22" version="1"><defs><style id="current-color-scheme" type="text/css">.ColorScheme-Text{color:#dfdfdf}</style></defs><path d="M5.223 14.557A2.221 2.221 0 1 0 5.219 19a2.221 2.221 0 0 0 .004-4.443z" fill="currentColor" color="#5294e2"/><path class="ColorScheme-Text" d="M3 3v2.651c7.19.145 12.994 6.034 12.994 13.26l-.002.089h2.654l.002-.09C18.648 10.224 11.652 3.144 3 3z" fill="currentColor"/><path class="ColorScheme-Text" d="M3 8.314v2.652c4.259.142 7.68 3.649 7.68 7.945 0 .03 0 .06-.003.089h2.654l.002-.09C13.333 13.154 8.722 8.459 3 8.315z" fill="currentColor"/></svg>