<svg viewBox="0 0 22 22" xmlns="http://www.w3.org/2000/svg"><path d="M3 1c-1.108 0-2 .892-2 2v16c0 1.108.892 2 2 2h16c1.108 0 2-.892 2-2V3c0-1.108-.892-2-2-2H3zm5.307 5.838h1.588v5.813c0 .425-.045.821-.137 1.188a2.352 2.352 0 0 1-.488.963c-.225.275-.534.49-.926.648-.383.158-.869.238-1.461.238-.55 0-1.029-.075-1.438-.225-.4-.158-.709-.325-.926-.5l.563-1.238c.208.142.462.279.762.412.308.125.621.188.938.188.533 0 .922-.132 1.164-.398.242-.267.361-.725.361-1.375V6.839zm5.709 1.963c.5 0 .92.063 1.262.188.342.125.613.298.813.523.208.225.354.501.438.826.092.317.139.665.139 1.049v3.963c-.233.05-.587.109-1.062.176-.467.075-.996.111-1.588.111-.392 0-.749-.036-1.074-.111a2.334 2.334 0 0 1-.838-.363 1.793 1.793 0 0 1-.537-.65c-.125-.267-.188-.595-.188-.986 0-.375.069-.693.211-.951.15-.258.352-.467.602-.625.25-.167.536-.283.861-.35a4.708 4.708 0 0 1 1.037-.111c.167 0 .342.012.525.037.183.017.38.05.588.1v-.25a1.94 1.94 0 0 0-.063-.5.951.951 0 0 0-.225-.412.944.944 0 0 0-.412-.287 1.73 1.73 0 0 0-.639-.102c-.35 0-.671.026-.963.076-.292.05-.528.107-.711.174l-.188-1.225a5.81 5.81 0 0 1 .836-.199c.367-.067.759-.1 1.176-.1zm.301 3.773c-.167 0-.339.014-.514.039-.167.025-.321.07-.463.137a.83.83 0 0 0-.324.287.763.763 0 0 0-.125.451c0 .358.113.608.338.75.225.133.529.199.912.199.467 0 .821-.024 1.063-.074v-1.676a2.99 2.99 0 0 0-.363-.074 3.347 3.347 0 0 0-.523-.039z" fill="#ececec"/></svg>