<svg xmlns="http://www.w3.org/2000/svg" viewBox="0 0 22 22"><path d="M3 1c-1.108 0-2 .892-2 2v16c0 1.108.892 2 2 2h16c1.108 0 2-.892 2-2V3c0-1.108-.892-2-2-2H3zM1.84 6.838h1.688c.1.567.204 1.145.313 1.736.117.592.233 1.175.35 1.75.125.567.25 1.117.375 1.65.125.533.25 1.025.375 1.475.158-.425.316-.869.475-1.336.167-.475.33-.954.488-1.438.158-.492.308-.98.449-1.463.15-.483.289-.95.414-1.4h1.35c.133.45.274.92.424 1.412.15.483.305.971.463 1.463.167.483.33.963.488 1.438l.475 1.324c.125-.45.247-.936.363-1.461.117-.533.233-1.084.35-1.65.117-.575.23-1.158.338-1.75.117-.592.224-1.175.324-1.75h1.625a79.228 79.228 0 0 1-.975 4.525 54.002 54.002 0 0 1-1.201 4.137h-1.5a81.394 81.394 0 0 1-1.887-5.512 75.812 75.812 0 0 1-.938 2.875c-.317.908-.633 1.787-.949 2.637h-1.5a50.194 50.194 0 0 1-1.213-4.137 88.205 88.205 0 0 1-.963-4.525zm14.9 1.963c.458 0 .878.083 1.262.25.392.158.725.388 1 .688.275.3.487.661.637 1.086.158.417.238.884.238 1.4 0 .517-.075.987-.225 1.412-.15.425-.364.788-.639 1.088-.275.3-.608.535-1 .701a3.15 3.15 0 0 1-1.273.25c-.467 0-.892-.083-1.275-.25a2.893 2.893 0 0 1-.988-.701 3.282 3.282 0 0 1-.65-1.088 4.216 4.216 0 0 1-.225-1.412c0-.517.075-.984.225-1.4.158-.425.375-.786.65-1.086.283-.3.617-.529 1-.688a3.13 3.13 0 0 1 1.264-.25zm0 1.312c-.5 0-.892.191-1.176.574-.275.375-.412.887-.412 1.537 0 .658.137 1.179.412 1.563.283.383.676.576 1.176.576.5 0 .887-.193 1.162-.576.283-.383.424-.904.424-1.563 0-.65-.14-1.162-.424-1.537-.275-.383-.662-.574-1.162-.574z" fill="#ececec"/></svg>