<svg xmlns="http://www.w3.org/2000/svg" viewBox="0 0 22 22"><path d="M3 1c-1.108 0-2 .892-2 2v16c0 1.108.892 2 2 2h16c1.108 0 2-.892 2-2V3c0-1.108-.892-2-2-2H3zm.676 5.838h1.287c.333.35.693.767 1.076 1.25.383.475.765.97 1.148 1.486.392.517.767 1.038 1.125 1.563.367.517.693 1 .977 1.451v-5.75h1.562V15.5H9.513a49.034 49.034 0 0 0-.951-1.525c-.35-.55-.711-1.1-1.086-1.65a34.9 34.9 0 0 0-1.15-1.611c-.383-.525-.75-.995-1.1-1.412v6.199H3.675V6.839zm11.953 1.963c.458 0 .878.083 1.262.25.392.158.725.388 1 .688.275.3.489.661.639 1.086.158.417.236.884.236 1.4 0 .517-.075.987-.225 1.412-.15.425-.362.788-.637 1.088-.275.3-.608.535-1 .701a3.16 3.16 0 0 1-1.275.25c-.467 0-.892-.083-1.275-.25a2.893 2.893 0 0 1-.988-.701c-.275-.3-.49-.663-.648-1.088a4.216 4.216 0 0 1-.227-1.412c0-.517.077-.984.227-1.4.158-.425.373-.786.648-1.086.283-.3.617-.529 1-.688a3.13 3.13 0 0 1 1.264-.25zm0 1.312c-.5 0-.892.191-1.176.574-.275.375-.412.887-.412 1.537 0 .658.137 1.179.412 1.563.283.383.676.576 1.176.576.5 0 .887-.193 1.162-.576.283-.383.426-.904.426-1.563 0-.65-.142-1.162-.426-1.537-.275-.383-.662-.574-1.162-.574z" fill="#ececec"/></svg>