<svg xmlns="http://www.w3.org/2000/svg" width="22" height="22"><defs><style id="current-color-scheme" type="text/css"></style></defs><path d="M8.25 3a.25.25 0 0 0-.25.25v1.5c0 .139.112.25.25.25h.5A.25.25 0 0 0 9 4.75v-1.5A.25.25 0 0 0 8.75 3h-.5zm4 0a.25.25 0 0 0-.25.25v1.5c0 .139.112.25.25.25h.5a.25.25 0 0 0 .25-.25v-1.5a.25.25 0 0 0-.25-.25h-.5zm4 0a.25.25 0 0 0-.25.25v1.5c0 .139.112.25.25.25h.5a.25.25 0 0 0 .25-.25v-1.5a.25.25 0 0 0-.25-.25h-.5zm-10 2C5.557 5 5 5.557 5 6.25v.775c.572.116 1 .618 1 1.225v.5c0 .607-.428 1.11-1 1.225v1.05c.572.116 1 .618 1 1.225v.5c0 .607-.428 1.109-1 1.225v1.05c.572.116 1 .618 1 1.225v.5c0 .599-.418 1.095-.979 1.219A1.245 1.245 0 0 0 6.25 19h11.5c.692 0 1.25-.558 1.25-1.25V6.25c0-.609-.431-1.111-1.006-1.225A.994.994 0 0 1 17 6h-1c-.554 0-1-.446-1-1h-1c0 .554-.446 1-1 1h-1c-.554 0-1-.446-1-1h-1c0 .554-.446 1-1 1H8c-.554 0-1-.446-1-1h-.75zM8 7h9c.554 0 1 .446 1 1v9c0 .554-.446 1-1 1H8c-.554 0-1-.446-1-1V8c0-.554.446-1 1-1zM3.25 8a.25.25 0 0 0-.25.25v.5c0 .139.112.25.25.25h1.5A.25.25 0 0 0 5 8.75v-.5A.25.25 0 0 0 4.75 8h-1.5zm5 0a.25.25 0 0 0-.25.25v8.5c0 .138.112.25.25.25h8.5a.25.25 0 0 0 .25-.25v-8.5a.25.25 0 0 0-.25-.25h-8.5zm-5 4a.25.25 0 0 0-.25.25v.5c0 .138.112.25.25.25h1.5a.25.25 0 0 0 .25-.25v-.5a.25.25 0 0 0-.25-.25h-1.5zm0 4a.25.25 0 0 0-.25.25v.5c0 .138.112.25.25.25h1.5a.25.25 0 0 0 .25-.25v-.5a.25.25 0 0 0-.25-.25h-1.5z" fill="currentColor" color="#dfdfdf"/></svg>