<svg viewBox="0 0 22 22" xmlns="http://www.w3.org/2000/svg"><path d="M3 1c-1.108 0-2 .892-2 2v16c0 1.108.892 2 2 2h16c1.108 0 2-.892 2-2V3c0-1.108-.892-2-2-2H3zm11.445 4.551v7.486c0 .183.012.338.037.463a.838.838 0 0 0 .162.324.8.8 0 0 0 .301.201c.133.042.3.075.5.1l-.213 1.25c-.45-.008-.825-.059-1.125-.15a1.757 1.757 0 0 1-.699-.387 1.496 1.496 0 0 1-.375-.639 3.486 3.486 0 0 1-.102-.875V5.801l1.514-.25zM3.779 6.588h1.287c.333.35.693.767 1.076 1.25.383.475.765.97 1.148 1.486.392.517.767 1.038 1.125 1.563.367.517.693 1 .977 1.451v-5.75h1.562v8.662H9.616a49.034 49.034 0 0 0-.951-1.525c-.35-.55-.711-1.1-1.086-1.65a34.9 34.9 0 0 0-1.15-1.611c-.383-.525-.75-.995-1.1-1.412v6.199H3.778V6.589zm13.496 6.73c.242 0 .45.03.625.088.175.058.317.142.43.25a.926.926 0 0 1 .258.375c.058.142.086.298.086.469a.9.9 0 0 1-.168.537c-.108.158-.251.28-.426.363.225.079.411.209.557.393.15.183.225.42.225.707 0 .192-.033.37-.1.537a1.142 1.142 0 0 1-.307.426c-.137.117-.311.21-.523.281-.208.067-.458.1-.75.1-.113 0-.231-.009-.352-.025a2.705 2.705 0 0 1-.336-.057 3.769 3.769 0 0 1-.289-.068 1.3 1.3 0 0 1-.199-.08l.15-.645c.087.042.214.09.381.145.167.05.373.074.619.074.329 0 .567-.063.713-.188a.649.649 0 0 0 .219-.512.634.634 0 0 0-.088-.344.584.584 0 0 0-.232-.219.93.93 0 0 0-.336-.119 2.044 2.044 0 0 0-.4-.037h-.256v-.613h.313c.096 0 .191-.009.287-.025a.902.902 0 0 0 .268-.1.62.62 0 0 0 .195-.193.568.568 0 0 0 .074-.307.512.512 0 0 0-.207-.432.553.553 0 0 0-.205-.1.973.973 0 0 0-.25-.031c-.188 0-.354.03-.5.088a2.1 2.1 0 0 0-.389.188l-.273-.563a2.638 2.638 0 0 1 .486-.238c.104-.037.215-.067.332-.088.117-.025.24-.037.369-.037z" fill="#ececec"/></svg>