<svg xmlns="http://www.w3.org/2000/svg" viewBox="0 0 22 22"><path d="M3 1c-1.108 0-2 .892-2 2v16c0 1.108.892 2 2 2h16c1.108 0 2-.892 2-2V3c0-1.108-.892-2-2-2H3zm13.221 4.801v7.486c0 .183.012.338.037.463a.842.842 0 0 0 .164.324.791.791 0 0 0 .299.201c.133.042.3.075.5.1l-.213 1.25c-.45-.008-.825-.059-1.125-.15a1.757 1.757 0 0 1-.699-.387 1.496 1.496 0 0 1-.375-.639 3.49 3.49 0 0 1-.1-.875V6.051l1.512-.25zM5.555 6.838h1.289c.333.35.691.767 1.074 1.25.383.475.767.97 1.15 1.486.392.517.767 1.038 1.125 1.563.367.517.691 1 .975 1.451v-5.75h1.563V15.5h-1.338a48.784 48.784 0 0 0-.949-1.525c-.35-.55-.713-1.1-1.088-1.65a34.9 34.9 0 0 0-1.15-1.611c-.383-.525-.75-.995-1.1-1.412v6.199H5.555V6.839z" fill="#ececec"/></svg>