<svg width="22" height="22" version="1.1" xmlns="http://www.w3.org/2000/svg">
 <style id="current-color-scheme" type="text/css">.ColorScheme-Text {
        color:#dfdfdf;
      }
      .ColorScheme-Background {
        color:#eff0f1;
      }
      .ColorScheme-Highlight {
        color:#3daee9;
      }
      .ColorScheme-ButtonText {
        color:#dfdfdf;
      }</style>
 <path class="ColorScheme-Text" d="m7 2.998c-1.662 0-3 1.338-3 3v7c0 2 1 3.0002 3 4l4.0059 2.002 3.9941-2.002c1.9955-1 3-2 3-4v-7c0-1.662-1.338-3-3-3zm0 2h8c0.554 0 1 0.446 1 1v7c0 0.554-0.446 1-1 1h-8c-0.554 0-1-0.446-1-1v-7c0-0.554 0.446-1 1-1z" fill="currentColor"/>
 <path class="ColorScheme-Text" d="m11 6v1h-1v1h1v3h-1v1h3v-1h-1v-5z" fill="currentColor" opacity=".45"/>
</svg>
