<svg xmlns="http://www.w3.org/2000/svg" width="22" height="22" version="1.1">
 <defs>
  <style id="current-color-scheme" type="text/css">
   .ColorScheme-Text { color:#dfdfdf; } .ColorScheme-Highlight { color:#4285f4; }
  </style>
 </defs>
 <path d="m4 4c-0.554 0-1 0.446-1 1v12c0 0.554 0.446 1 1 1h14c0.554 0 1-0.446 1-1v-12c0-0.554-0.446-1-1-1h-14zm12 1h2v1h-2v-1zm0 2h2v1h-2v-1zm0 2h2v1h-2v-1zm0 2h2v1h-2v-1zm-12 3h6v3h-6v-3zm8 0h6v3h-6v-3z" style="fill:currentColor" class="ColorScheme-Text" />
</svg>
