<svg version="1.1" viewBox="0 0 22 22" xmlns="http://www.w3.org/2000/svg">
 <style id="current-color-scheme" type="text/css">.ColorScheme-Text {
        color:#dfdfdf;
      }</style>
 <path class="ColorScheme-Text" d="m10.438 6-2.4375 6h1.0742l0.40625-1h3.0391l0.40625 1h1.0742l-2.4395-6h-0.53711l-0.023438 0.00977-0.023438-0.00977zm0.5625 1.2578 1.1133 2.7422h-2.2266z" fill="currentColor" opacity=".45"/>
 <path class="ColorScheme-Text" d="m16.499 3.5512c-0.2175 0.51225-0.50173 0.94125-0.7485 1.3148-0.16725 0.26025-0.35623 0.54524-0.48263 0.86211-0.0337 0.1107-0.054 0.22538-0.0543 0.34201 0 0.40538 0.2085 0.76237 0.52575 0.98588 0.1086 0.0239 0.21963 0.0362 0.33107 0.0366 0.82815 0 1.4996-0.64063 1.5-1.4311-7.5e-4 -0.1086-0.015-0.21664-0.0402-0.32227 0.0135 0.0176 0.0254 0.0354 0.0374 0.0534-0.102-0.18601-0.21452-0.36225-0.32025-0.52651-0.24677-0.37348-0.53102-0.8025-0.74852-1.3147" fill="currentColor" opacity=".45"/>
 <path class="ColorScheme-Text" d="m16.499 3c-0.0621 0.21337-0.1458 0.42187-0.23662 0.62626-0.462 1.0125-1.1857 1.7055-1.2555 2.3445-2e-3 0.0105-6e-3 0.0198-7e-3 0.0293l6e-3 1e-3c-1e-3 0.0222-6e-3 0.0439-6e-3 0.0661 0 0.79087 0.67163 1.4318 1.5 1.4318 0.82838 0 1.5-0.64125 1.5-1.4318 0-0.0217-5e-3 -0.0439-6e-3 -0.0661l6e-3 -1e-3c-2e-3 -0.0105-6e-3 -0.0198-7e-3 -0.0293-0.0696-0.639-0.79311-1.332-1.2555-2.3445-0.0906-0.20439-0.17439-0.41289-0.23663-0.62626m0 0.54937c0.2175 0.51225 0.50174 0.94126 0.7485 1.3148 0.16725 0.26025 0.35624 0.54525 0.48263 0.86214 0.0337 0.11071 0.054 0.22537 0.0543 0.34199 0 0.67764-0.57525 1.2274-1.2855 1.2274s-1.2855-0.54975-1.2855-1.2274c0-0.11655 0.0202-0.23136 0.0543-0.34199 0.1263-0.31651 0.31574-0.60189 0.48261-0.86214 0.24677-0.37349 0.531-0.8025 0.7485-1.3148" fill="currentColor" opacity=".45"/>
 <path class="ColorScheme-Text" d="m7 3c-1.662 0-3 1.338-3 3v7c0 2 1 3.0002 3 4l4.0059 2.002 3.9941-2.002c1.9955-1 3-2 3-4v-4h-2v4c0 0.554-0.446 1-1 1h-8c-0.554 0-1-0.446-1-1v-7c0-0.554 0.446-1 1-1h7v-2z" fill="currentColor"/>
</svg>
