<svg width="22" height="22" version="1.1" xmlns="http://www.w3.org/2000/svg">
 <style id="current-color-scheme" type="text/css">.ColorScheme-Text {
        color:#dfdfdf;
      }
      .ColorScheme-Background {
        color:#eff0f1;
      }
      .ColorScheme-Highlight {
        color:#3daee9;
      }
      .ColorScheme-ButtonText {
        color:#dfdfdf;
      }</style>
 <path class="ColorScheme-Text" d="m16 3-2 5h2v3l2-5h-2zm-5.5625 3-2.4375 6h1.0742l0.40625-1h3.0391l0.40625 1h1.0742l-2.4395-6h-0.53711l-0.023438 0.00977-0.023438-0.00977zm0.5625 1.2578 1.1133 2.7422h-2.2266z" fill="currentColor" opacity=".45"/>
 <path class="ColorScheme-Text" d="m7 3c-1.662 0-3 1.338-3 3v7c0 2 1 3.0002 3 4l4.0059 2.002 3.9941-2.002c1.9955-1 3-2 3-4v-1h-2v1c0 0.554-0.446 1-1 1h-8c-0.554 0-1-0.446-1-1v-7c0-0.554 0.446-1 1-1h6v-2z" fill="currentColor"/>
</svg>
