<svg xmlns="http://www.w3.org/2000/svg" width="22" height="22"><defs><style id="current-color-scheme" type="text/css"></style></defs><path d="M10.5 3a5.5 5.5 0 0 0-5.48 5.127A4 4 0 0 0 2 12a4 4 0 0 0 4 4h-.22c.078.282.148.567.128.846.01.746-.4 1.2-.902 1.634-.128.068-.226.148-.217.176.03.094.616.294.961.328.445.045 1.065-.01 1.42-.142A2.72 2.72 0 0 0 8.506 17.8c.273-.409.416-.813.459-1.285L8.996 16H15.5a3.5 3.5 0 0 0 3.5-3.5 3.5 3.5 0 0 0-3.027-3.463A5.5 5.5 0 0 0 16 8.5 5.5 5.5 0 0 0 10.5 3z" fill="currentColor" color="#dfdfdf"/></svg>