<svg width="22" height="22" version="1.1" xmlns="http://www.w3.org/2000/svg">
 <defs>
  <style id="current-color-scheme" type="text/css">
   .ColorScheme-Text { color:#dfdfdf; } .ColorScheme-Highlight { color:#4285f4; }
  </style>
 </defs>
 <path style="fill:currentColor" class="ColorScheme-Text" d="m11 2a9 9 0 0 0-9 9 9 9 0 0 0 9 9 9 9 0 0 0 9-9 9 9 0 0 0-9-9zm0 2a7 7 0 0 1 7 7 7 7 0 0 1-7 7 7 7 0 0 1-7-7 7 7 0 0 1 7-7z"/>
 <path style="fill:currentColor" class="ColorScheme-Text" d="m10.406 5.4767c-0.86489 0.028741-1.8409 0.29748-2.789 0.9843-0.9843 0.71319-1.4157 0.90844-1.8933 1.1455 0.42548 0.032593 2.9707-0.33037 3.4207 1.165-1.8059 0.51556-2.7081 1.6533-1.9396 3.2687 0.77689 1.6332 2.1194 1.6711 3.7766 2.7799 1.2939 0.86518 1.6107 1.3061 2.4453 2.5055-0.17333-1.6575-0.97541-3.7938-1.3502-4.7348 1.4474 0.86578 2.1825 1.0599 4.2009 1.2711-2.6193-1.8643-3.1164-2.2284-4.6154-3.5061-1.0059 0.05037-0.89541 0.04178-1.4886 0.07585 0.78104 1.1019 1.0892 2.72-0.33837 3.0169-1.3363 0.27793-2.6249-0.87526-2.2584-2.1108 0.39793-1.3413 2.115-1.0839 3.9161-1.3167 1.8015-0.23259 3.4474-1.9991 4.4373-3.3067h-2.96e-4c-1.6895 0.57659-2.7194 0.91171-5.2228 1.6092-0.40504-0.78904-0.92889-2.2868 1.8199-2.3914-0.50282-0.27259-1.256-0.48385-2.1206-0.45541z" opacity=".45"/>
</svg>
