<svg xmlns="http://www.w3.org/2000/svg" width="22" height="22" version="1"><defs><style id="current-color-scheme" type="text/css">.ColorScheme-Text{color:#dfdfdf}</style></defs><path class="ColorScheme-Text" d="M15 3a4 4 0 0 0-4 4 4 4 0 0 0 .559 2.027L8.95 11.634l-1.416 1.414-4.242 4.243a1 1 0 0 0 0 1.416 1 1 0 0 0 1.416 0L5.416 18H7v-1.584L7.416 16H9v-1.487l1.365-1.465 2.608-2.607A4 4 0 0 0 15 11a4 4 0 0 0 0-8zm1 2a1 1 0 1 1 0 2 1 1 0 0 1 0-2z" fill="currentColor"/><path opacity=".3" class="ColorScheme-Text" d="M4 7.1a.996.996 0 0 0-.707.293.997.997 0 0 0 0 1.414l4.242 4.242 1.416-1.414L4.71 7.393A1 1 0 0 0 4 7.1zm6.365 5.949L9 14.514l4.193 4.193a.997.997 0 0 0 1.414 0 1 1 0 0 0 0-1.416l-4.242-4.242z" fill="currentColor"/></svg>