<svg xmlns="http://www.w3.org/2000/svg" width="22" height="22" version="1"><defs><style id="current-color-scheme" type="text/css"></style></defs><path d="M15 3a4 4 0 0 0-4 4c.002.714.195 1.413.559 2.027l-2.608 2.608L4.71 7.393a1 1 0 0 0-1.416 1.414l4.242 4.242-4.242 4.242a1 1 0 0 0 0 1.416 1 1 0 0 0 1.416 0L5.416 18H7v-1.584L7.416 16H9v-1.486l4.193 4.193a.997.997 0 0 0 1.414 0 1 1 0 0 0 0-1.416l-4.242-4.242 2.608-2.608A3.995 3.995 0 0 0 15 11a4 4 0 0 0 0-8zm1 2a1 1 0 1 1 0 2 1 1 0 0 1 0-2z" fill="currentColor" color="#dfdfdf"/></svg>