<svg xmlns="http://www.w3.org/2000/svg" width="22" height="22"><defs><style id="current-color-scheme" type="text/css"></style></defs><path d="M9.338 3c-.046 0-.348.51-.635 1.072-.42.824-.62 1.456-.69 2.188-.016.18-.013.358-.001.533A2.932 2.932 0 0 0 8 7.029c0 .322.065.626.16.916a7.027 7.027 0 0 0-3.072 2.645 3.671 3.671 0 0 0-.457.748 6.966 6.966 0 0 0-.42 1.31 6.922 6.922 0 0 0-.16.842c-.003.026.005.031.017.028-.013.11-.03.216-.04.332-.033.371-.037.525-.012.525L8 10l-1.031 3.455c.006.006.137-.047.293-.12.955-.439 2.145-1.206 3.197-1.331.363-.043 1.622-.048 2-.008.766.08 1.466.672 2.326.908.381.105.569.13.881.12.312-.012.496-.054.727-.165.576-.277.879-.878.794-1.527-.007-.061-.024-.12-.037-.18.025-.06.002-.163-.095-.334a3.278 3.278 0 0 0-.451-.798c-.791-.87-1.719-1.591-2.766-2.07a2.915 2.915 0 0 0 .154-1.147c.003-.076.01-.15.006-.225-.053-1.017-.648-1.715-1.545-2.174-.475-.243-1.202-.356-1.676-.357-.591-.001-1.04-.51-1.33-.926C9.401 3.054 9.352 3 9.337 3zm8.494 9.828a2.38 2.38 0 0 1-1.006.932c-.329.158-.736.25-1.123.263a3.862 3.862 0 0 1-1.183-.154c-1.138-.313-1.842-.845-2.165-.879a38.922 38.922 0 0 0-1.777.006c-.664.08-1.829.756-2.898 1.248-.09.041-.17.077-.244.108a1.896 1.896 0 0 1-.12.044c-.025.01-.05.018-.117.034-.033.007-.072.018-.172.023a3.152 3.152 0 0 1-.228-.012l-.22-.066-.32-.215a1 1 0 0 1-.263-.473l-1.24 1.362a1 1 0 0 1-.666.324A7 7 0 0 0 5.793 19h10.416A7 7 0 0 0 18 14.334a7 7 0 0 0-.168-1.506zM8 15a1 1 0 0 1 1 1 1 1 0 0 1-1 1 1 1 0 0 1-1-1 1 1 0 0 1 1-1zm6 0a1 1 0 0 1 1 1 1 1 0 0 1-1 1 1 1 0 0 1-1-1 1 1 0 0 1 1-1z" fill="currentColor" color="#dfdfdf"/></svg>