<svg xmlns="http://www.w3.org/2000/svg" width="22" height="22" version="1"><defs><style id="current-color-scheme" type="text/css"></style></defs><path d="M3.8 4c-.442 0-.8.362-.8.813v11.375c0 .45.358.812.8.812H6v1.188c0 .45.372.812.834.812h8.332a.822.822 0 0 0 .834-.813V17h2.2c.442 0 .8-.362.8-.813V4.813A.805.805 0 0 0 18.2 4H3.8zM4 5h14v11H4V5zm6 1a1 1 0 0 0-1 1 1 1 0 0 0 1 1 1 1 0 0 0 1-1 1 1 0 0 0-1-1zm5 0a2 2 0 0 0-2 2 2 2 0 0 0 2 2 2 2 0 0 0 2-2 2 2 0 0 0-2-2zM6.5 9A1.5 1.5 0 0 0 5 10.5 1.5 1.5 0 0 0 6.5 12 1.5 1.5 0 0 0 8 10.5 1.5 1.5 0 0 0 6.5 9zm8.965 2.4a.5.5 0 0 0-.465.5.5.5 0 0 0 .5.5.5.5 0 0 0 .5-.5.5.5 0 0 0-.5-.5.5.5 0 0 0-.035 0zM12 12a1 1 0 0 0-1 1 1 1 0 0 0 1 1 1 1 0 0 0 1-1 1 1 0 0 0-1-1z" fill="currentColor" color="#dfdfdf"/></svg>