<svg xmlns="http://www.w3.org/2000/svg" width="22" height="22"><defs><style id="current-color-scheme" type="text/css"></style></defs><path d="M11 3c-4.406 0-8 3.594-8 8 0 2.968 1.634 5.561 4.045 6.941a2.199 2.199 0 0 1 .576-1.976A5.984 5.984 0 0 1 5 11c0-3.325 2.674-6 6-6a5.985 5.985 0 0 1 5.799 7.527c.442.51.782 1.117.971 1.793.144.044.284.099.421.159A7.926 7.926 0 0 0 19 11c0-4.406-3.594-8-8-8zm0 3c-2.756 0-5 2.244-5 5 0 1.866 1.042 3.479 2.563 4.338.161-.065.328-.121.501-.156a4.66 4.66 0 0 1 .108-.641A3.977 3.977 0 0 1 7 11c0-2.215 1.785-4 4-4s4 1.785 4 4c0 .089-.02.172-.025.26.344.125.661.304.961.508.039-.251.064-.506.064-.768 0-2.756-2.244-5-5-5zm2.5 5.998V12a3.5 3.5 0 0 0-3.5 3.5 3.5 3.5 0 0 0 .053.607A1.5 1.5 0 0 0 9.5 16 1.5 1.5 0 0 0 8 17.5 1.5 1.5 0 0 0 9.5 19H17a2 2 0 0 0 2-2 2 2 0 0 0-2-2 2 2 0 0 0-.039 0 3.5 3.5 0 0 0-3.461-3.002z" fill="currentColor" color="#dfdfdf"/></svg>