<svg xmlns="http://www.w3.org/2000/svg" width="22" height="22"><defs><style id="current-color-scheme" type="text/css"></style></defs><path d="M3.8 3a.8.8 0 0 0-.8.8v14.4a.8.8 0 0 0 .8.8h14.4a.8.8 0 0 0 .8-.8V3.8a.8.8 0 0 0-.8-.8zm6.7 2c.277 0 .5.335.5.75v10.5c0 .416-.223.75-.5.75s-.5-.334-.5-.75V5.75c0-.415.223-.75.5-.75zm-6 1c.277 0 .5.37.5.832v8.336c0 .461-.223.832-.5.832s-.5-.37-.5-.832V6.832C4 6.371 4.223 6 4.5 6zm9 0c.277 0 .5.32.5.715v8.57c0 .396-.223.715-.5.715s-.5-.32-.5-.715v-8.57c0-.396.223-.715.5-.715zm-6 1c.277 0 .5.358.5.8v6.4c0 .442-.223.8-.5.8s-.5-.358-.5-.8V7.8c0-.442.223-.8.5-.8zm9 0c.277 0 .5.298.5.668v6.664c0 .37-.223.668-.5.668s-.5-.298-.5-.668V7.668c0-.37.223-.668.5-.668z" fill="currentColor" color="#dfdfdf"/></svg>