<svg xmlns="http://www.w3.org/2000/svg" width="22" height="22"><defs><style id="current-color-scheme" type="text/css">.ColorScheme-Text{color:#dfdfdf}</style></defs><g class="ColorScheme-Text" fill="currentColor"><path class="ColorScheme-Text" d="M11 3c-4.418 0-8 3.579-8 8 0 4.418 3.579 8 8 8 .326 0 .647-.025.963-.063A5 5 0 0 1 11 16a5 5 0 0 1 2-3.992V11.5L12 13h-2l-1-1.5V14H7V8h2l2 3 2-3h2v3.105A5 5 0 0 1 16 11a5 5 0 0 1 2.938.96c.037-.315.062-.634.062-.96 0-4.418-3.579-8-8-8z"/></g><path class="ColorScheme-Text" d="M19.465 14a4 4 0 1 0-6.928 4 4 4 0 0 0 6.928-4zm-.866.5a3 3 0 0 1-1.098 4.097l-.5-.866A2 2 0 0 0 17.733 15l.866-.5zM14.5 13.4l.5.866A2 2 0 0 0 14.269 17l-.866.5a3 3 0 0 1 1.098-4.098z" fill="currentColor"/></svg>