<svg xmlns="http://www.w3.org/2000/svg" width="22" height="22"><defs><style id="current-color-scheme" type="text/css">.ColorScheme-Text{color:#dfdfdf}</style></defs><path opacity=".3" class="ColorScheme-Text" d="M11 3C9.338 3 8 4.338 8 6v5.002C8 12.664 9.338 14 11 14s3-1.336 3-2.998V6c0-1.662-1.338-3-3-3z" fill="currentColor"/><path class="ColorScheme-Text" d="M5 10v.998C5 13.965 7 17 10 17v2h2v-2c3 0 5-3.035 5-6.001V10h-2v.998a3.97 3.97 0 0 1-4 4.002A3.97 3.97 0 0 1 7 11v-.998H5z" fill="currentColor"/></svg>