<svg xmlns="http://www.w3.org/2000/svg" width="22" height="22"><defs><style id="current-color-scheme" type="text/css"></style></defs><path d="M11 3C8.852 4.97 5.235 6.705 4 7c0 5.333 2.625 11.111 7 12 4.375-.889 7-6.667 7-12-1.235-.295-4.852-2.03-7-4zm.145 3.998V7h.001a4.002 4.002 0 0 1 3.204 1.818l1.388-.463-1.57 3.147-3.147-1.574 1.278-.426a1.986 1.986 0 0 0-1.229-.504 1.998 1.998 0 0 0-1.806.998l-1.733-1a4.007 4.007 0 0 1 3.614-1.998zm-3.313 3.5l3.147 1.574-1.278.426c.338.294.763.485 1.229.502a1.998 1.998 0 0 0 1.806-.998l1.733 1A4.007 4.007 0 0 1 10.855 15a4 4 0 0 1-3.203-1.818l-1.388.463 1.568-3.147z" fill="currentColor" fill-rule="evenodd" color="#dfdfdf"/></svg>