<svg xmlns="http://www.w3.org/2000/svg" width="22" height="22"><defs><style id="current-color-scheme" type="text/css">.ColorScheme-Text{color:#dfdfdf}</style></defs><path opacity=".3" class="ColorScheme-Text" d="M3.5 3c-.277 0-.5.223-.5.5V4H1v14.502c0 .277.223.5.5.5h6c.277 0 .5-.223.5-.5v-14.5l-.5.002H6v-.5c0-.277-.223-.5-.5-.5z" fill="currentColor"/><path class="ColorScheme-Text" d="M1 11v7.502c0 .277.223.5.5.5h6c.277 0 .5-.223.5-.5v-7.5zM15 3c-2.77 0-5 2.676-5 6h5zm1 0v6h5c0-3.324-2.23-6-5-6zm-6 7v3c0 3.324 2.23 6 5 6h1c2.77 0 5-2.676 5-6v-3h-5z" fill="currentColor"/></svg>