<svg xmlns="http://www.w3.org/2000/svg" width="22" height="22"><defs><style id="current-color-scheme" type="text/css"></style></defs><path d="M8.666 3C6.081 3 4 5.102 4 7.713v2.574l.002.01c.002 1.723.164 5.563 1.521 7.11C6.747 18.8 9.6 19 10.752 19c2.049 0 3.248-.803 3.248-.803V16.5s-1.521.526-2.98.5c-1.05-.029-2.695-.44-2.92-1.6-.03-.143-.043-.309-.065-.464.209.028.414.064.631.064h4.668C15.919 15 18 12.898 18 10.287V7.713C18 5.102 15.92 3 13.334 3zM8 7a1 1 0 0 1 1 1 1 1 0 0 1-1 1 1 1 0 0 1-1-1 1 1 0 0 1 1-1z" fill="currentColor" color="#dfdfdf"/></svg>