<svg width="22" height="22" version="1.1" xmlns="http://www.w3.org/2000/svg">
 <defs>
  <style id="current-color-scheme" type="text/css">.ColorScheme-Text {
        color:#dfdfdf;
      }</style>
 </defs>
 <path class="ColorScheme-Text" d="m12 16.763v-3.672l2.278 1.836zm0-11.525 2.278 1.836-2.278 1.836v-3.673zm0.593 5.763 3.906-3.148a1.002 1.002 0 0 0 0-1.558l-4.872-3.926a1 1 0 0 0-1.627 0.778v5.762l-3.244-2.614a1.0003 1.0003 0 0 0-1.255 1.558l3.905 3.147-3.905 3.147a1 1 0 0 0 1.255 1.557l3.244-2.614v5.762a1.001 1.001 0 0 0 1 1 0.998 0.998 0 0 0 0.627-0.221l4.872-3.926a1.002 1.002 0 0 0 0-1.557l-3.906-3.148z" fill="currentColor"/>
</svg>
