<svg width="22" height="22" version="1.1" xmlns="http://www.w3.org/2000/svg">
 <defs>
  <style id="current-color-scheme" type="text/css">.ColorScheme-Text{color:#dfdfdf}</style>
 </defs>
 <g transform="translate(2.9845,2.998)" color="#000000" fill="#dfdfdf">
  <path d="m8.031 2.002c-3.034 0-5.766 1.078-8.031 2.75l8.031 8.75 1-1.102v-1.398h1.014c0.02-1.632 1.337-2.993 2.976-2.998l2.979-3.284c-2.257-1.653-4.958-2.718-7.969-2.718z" opacity=".35" overflow="visible"/>
  <path d="m8.031 8.002a5.94 5.94 0 0 0-0.947 0.084c-0.103 0.016-0.202 0.039-0.303 0.06a6.134 6.134 0 0 0-0.576 0.153c-0.118 0.037-0.238 0.07-0.353 0.113-0.174 0.066-0.34 0.146-0.506 0.226a7.106 7.106 0 0 0-1.157 0.678l3.842 4.186 1-1.09v-1.41h1.014c0.01-0.865 0.392-1.648 0.986-2.2-0.104-0.054-0.207-0.112-0.314-0.164a6.618 6.618 0 0 0-0.506-0.226c-0.116-0.044-0.235-0.076-0.354-0.113-0.188-0.06-0.38-0.11-0.576-0.153-0.1-0.02-0.2-0.044-0.302-0.06a5.94 5.94 0 0 0-0.948-0.084zm5 1c-1.108 0-2 0.91-2 2.03v0.97h-1v4h6v-4h-1v-0.97c0-1.119-0.892-2.03-2-2.03zm0 1c0.554 0 1 0.442 1 1v1h-2v-1c0-0.558 0.446-1 1-1z" overflow="visible"/>
 </g>
</svg>
