<svg xmlns="http://www.w3.org/2000/svg" width="22" height="22"><defs><style id="current-color-scheme" type="text/css">.ColorScheme-Text{color:#dfdfdf}</style></defs><path opacity=".3" class="ColorScheme-Text" d="M18 4.01l-14 14h8v-4.004h1.014c.02-1.635 1.342-3 2.986-3 .774 0 1.47.31 2 .8V4.01z" fill="currentColor"/><path class="ColorScheme-Text" d="M12 10.01l-8 8h8v-8zM16 12c-1.108 0-2 .91-2 2.031V15h-1v4h6v-4h-1v-.969c0-1.12-.892-2.031-2-2.031zm0 1c.554 0 1 .442 1 1v1h-2v-1c0-.558.446-1 1-1z" fill="currentColor"/></svg>