<svg xmlns="http://www.w3.org/2000/svg" width="22" height="22"><defs><style id="current-color-scheme" type="text/css">.ColorScheme-Text{color:#dfdfdf}</style></defs><path opacity=".3" class="ColorScheme-Text" d="M5 5S4 5 4 6v9c0 1 1 1 1 1h2l1 1h5v-2H9l-1-1H6V7h10v6h2V6c0-1-1-1-1-1H5z" fill="currentColor"/><path class="ColorScheme-Text" d="M14 14v1c0 .276.1.538.281.719l.781.781-.78.781A1.015 1.015 0 0 0 14 18v1h1c.276 0 .538-.1.719-.281l.781-.782.781.782c.181.18.443.281.719.281h1v-1c0-.276-.1-.538-.281-.719l-.782-.781.782-.781c.18-.181.281-.443.281-.719v-1h-1c-.276 0-.538.1-.719.281l-.781.781-.781-.78A1.015 1.015 0 0 0 15 14h-1z" fill="currentColor"/></svg>