<svg width="22" height="22" version="1.1" xmlns="http://www.w3.org/2000/svg">
 <defs>
  <style id="current-color-scheme" type="text/css">.ColorScheme-Text {
        color:#dfdfdf;
      }</style>
 </defs>
 <path class="ColorScheme-Text" d="m18.778 3.2218c-0.39174-0.39174-1.0225-0.39174-1.4142 0l-3.5355 3.5355-0.70711-0.70711c-0.78347-0.78347-2.045-0.78347-2.8284 0l-4.2426 4.2426c-0.78348 0.78348-0.78347 2.045 0 2.8284l0.70711 0.70711-3.5355 3.5355c-0.39174 0.39174-0.39174 1.0225 0 1.4142 0.39174 0.39174 1.0225 0.39174 1.4142 0l3.5355-3.5355 0.70711 0.70711c0.78347 0.78347 2.045 0.78347 2.8284 0l4.2426-4.2426c0.78348-0.78348 0.78347-2.045 0-2.8284l-0.70711-0.70711 3.5355-3.5355c0.39174-0.39174 0.39174-1.0225 0-1.4142zm-7.0711 4.2426 0.70711 0.7071 2.1213 2.1213-4.2426 4.2426-0.70711-0.7071-2.1213-2.1213z" fill="currentColor"/>
</svg>
