<svg xmlns="http://www.w3.org/2000/svg" width="22" height="22"><defs><style id="current-color-scheme" type="text/css">.ColorScheme-Text{color:#dfdfdf}</style></defs><path opacity=".3" class="ColorScheme-Text" d="M7.5 7a4.457 4.457 0 0 0-2.797 1h5.6A4.483 4.483 0 0 0 7.5 7zm-3.738 7A4.492 4.492 0 0 0 7.5 16a4.49 4.49 0 0 0 3.72-2H3.763zM15 14v.996h3V14h-3z" fill="currentColor"/><path class="ColorScheme-Text" d="M6 9c-1.108 0-2 .892-2 2s.892 2 2 2 2-.892 2-2-.892-2-2-2zm5 0c-1.108 0-2 .892-2 2s.892 2 2 2 2-.892 2-2-.892-2-2-2zm5 0c-1.108 0-2 .892-2 2s.892 2 2 2 2-.892 2-2-.892-2-2-2z" fill="currentColor"/></svg>