<svg xmlns="http://www.w3.org/2000/svg" width="22" height="22"><defs><style id="current-color-scheme" type="text/css">.ColorScheme-Text{color:#dfdfdf}</style></defs><path class="ColorScheme-Text" d="M16 12c-1.108 0-2 .91-2 2.031V15h-1v4h6v-4h-1v-.969c0-1.12-.892-2.031-2-2.031zm0 1c.554 0 1 .442 1 1v1h-2v-1c0-.558.446-1 1-1z" fill="currentColor"/><path class="ColorScheme-Text" d="M11 4C7.95 4 5.08 5.073 3 7l8 11 1-1.375V14h1.014c.02-1.635 1.342-3 2.986-3 .029 0 .055.009.084.01L19 7c-2.081-1.927-4.949-3-8-3z" opacity=".3" fill="currentColor"/><path class="ColorScheme-Text" d="M11 12a7 7 0 0 0-3.623 1.018L11 18l1-1.375V14h1.014a3.038 3.038 0 0 1 .45-1.541A7 7 0 0 0 11 12z" fill="currentColor"/></svg>