<svg width="22" height="22" version="1.1" xmlns="http://www.w3.org/2000/svg">
 <defs>
  <style id="current-color-scheme" type="text/css">.ColorScheme-Text {
        color:#dfdfdf;
      }</style>
 </defs>
 <path class="ColorScheme-Text" d="m1 10c-0.55228 0-1 0.44772-1 1s0.44772 1 1 1 1-0.44772 1-1-0.44772-1-1-1zm4 0c-0.55228 0-1 0.44772-1 1s0.44772 1 1 1 1-0.44772 1-1-0.44772-1-1-1zm12 0c-0.55228 0-1 0.44772-1 1s0.44772 1 1 1 1-0.44772 1-1-0.44772-1-1-1zm4 0c-0.55228 0-1 0.44772-1 1s0.44772 1 1 1 1-0.44772 1-1-0.44772-1-1-1z" color-rendering="auto" fill="currentColor" image-rendering="auto" shape-rendering="auto" style="isolation:auto;mix-blend-mode:normal;text-decoration-line:none;text-decoration-style:solid"/>
 <path class="ColorScheme-Text" d="m10 3v5.8457l-3.3867-2.6348-1.2266 1.5781 4.4512 3.4609-4.502 4.002 1.3281 1.4961 3.3359-2.9648v5.2168h1.4141l5.0938-5.0938-3.5449-2.7578 3.4941-3.1055-5.043-5.043zm2 3.4141 1.543 1.543-1.543 1.3711zm0 6.5195 1.4922 1.1602-1.4922 1.4922z" fill="currentColor"/>
</svg>
