<svg width="22" height="22" version="1.1" xmlns="http://www.w3.org/2000/svg">
 <defs>
  <style id="current-color-scheme" type="text/css">.ColorScheme-Text {
        color:#dfdfdf;
      }</style>
 </defs>
 <path class="ColorScheme-Text" d="m10.928 2.1504a1 1 0 0 0-0.92773 0.99609v5.7617l-3.2441-2.6133a1.0003 1.0003 0 0 0-1.2539 1.5586l3.9043 3.1465-3.9043 3.1465a1 1 0 0 0 1.2539 1.5566l3.2441-2.6133v5.7617a1.001 1.001 0 0 0 1 1 0.998 0.998 0 0 0 0.62695-0.2207l4.8711-3.9258a1.002 1.002 0 0 0 0-1.5566l-3.9023-3.1484 3.9023-3.1465a1.002 1.002 0 0 0 0-1.5586l-4.8711-3.9258a1 1 0 0 0-0.69922-0.21875zm1.0723 3.0879 2.2773 1.8359-2.2773 1.8359v-3.6719zm-11 4.7617a1 1 0 0 0-1 1 1 1 0 0 0 1 1 1 1 0 0 0 1-1 1 1 0 0 0-1-1zm4 0a1 1 0 0 0-1 1 1 1 0 0 0 1 1 1 1 0 0 0 1-1 1 1 0 0 0-1-1zm12 0a1 1 0 0 0-1 1 1 1 0 0 0 1 1 1 1 0 0 0 1-1 1 1 0 0 0-1-1zm4 0a1 1 0 0 0-1 1 1 1 0 0 0 1 1 1 1 0 0 0 1-1 1 1 0 0 0-1-1zm-9 3.0918 2.2773 1.8359-2.2773 1.8359v-3.6719z" fill="currentColor"/>
</svg>
