<svg version="1.1" viewBox="0 0 22 22" xmlns="http://www.w3.org/2000/svg">
 <defs>
  <style id="current-color-scheme" type="text/css">.ColorScheme-Text {
        color:#dfdfdf;
      }</style>
 </defs>
 <path class="ColorScheme-Text" d="m15 3.875v3.75c-0.5-0.625-1.125-1.25-1.7227-1.666l-0.57812 0.91602c0.90234 0.58398 1.6758 1.125 2.3008 2v0.125c-0.62499 0.87499-1.3984 1.416-2.3008 2l0.57812 0.91602c0.59765-0.41602 1.2227-1.041 1.7227-1.666v3.75c1.5-1e-4 2.0225-0.35594 2.4961-0.96484l1.5039-1.7852-1.5039-1.7852c-0.16055-0.20642-0.32719-0.38309-0.53516-0.52734 0.20797-0.14426 0.3746-0.32092 0.53516-0.52734l1.5039-1.7852-1.5039-1.7852c-0.4736-0.6089-0.9961-0.96474-2.4961-0.96484zm0.90039 0.90039c0.72499 0 1.8496 1.8496 1.8496 1.8496s-1.125 1.875-1.875 1.875h-0.125s0.125-0.62501 0.15039-1.875zm-0.15039 4.5996h0.125c0.75 0 1.875 1.875 1.875 1.875s-1.1246 1.8496-1.8496 1.8496v-1.8496c-0.02539-1.25-0.15039-1.875-0.15039-1.875z" fill="currentColor"/>
 <path class="ColorScheme-Text" d="m10.992 5c-2.9623 5e-3 -5.8185 1.107-8.0176 3.0918a1 1 0 0 0-0.07227 1.4121 1 1 0 0 0 1.4121 0.0723c1.8325-1.6538 4.2113-2.5711 6.6797-2.5762 0.3373 5e-5 0.67306 0.019 1.0059 0.0527v-2.0078c-0.33351-0.0281-0.66887-0.0449-1.0059-0.0449a1.0001 1.0001 0 0 0-2e-3 0zm2e-3 4c-1.9749 3e-3 -3.8797 0.73744-5.3457 2.0606a1 1 0 0 0-0.07227 1.4121 1 1 0 0 0 1.4121 0.0723c1.0994-0.99224 2.5271-1.5419 4.0078-1.5449 0.33858 5e-5 0.67426 0.0299 1.0039 0.0859v-2.0215c-0.33148-0.042-0.66649-0.0644-1.0039-0.0644a1.0001 1.0001 0 0 0-2e-3 0zm2e-3 4c-0.98726 2e-3 -1.9409 0.36984-2.6738 1.0312a1.0001 1.0001 0 0 0-0.07227 1.4102l2.0039 2.2285a1.0001 1.0001 0 0 0 1.4863-2e-3l2.0059-2.2285a1.0001 1.0001 0 0 0 0.22842-0.4394h-0.97461c-0.554 0-1-0.446-1-1v-0.86914c-0.32517-0.08451-0.66075-0.13079-1.002-0.13086a1.0001 1.0001 0 0 0-2e-3 0zm0 2h2e-3c0.12434 1.4e-4 0.21537 0.10816 0.33594 0.13086l-0.33594 0.375-0.33789-0.375c0.12056-0.0229 0.21157-0.13051 0.33594-0.13086z" fill="currentColor"/>
</svg>
