<svg xmlns="http://www.w3.org/2000/svg" width="22" height="22"><defs><style id="current-color-scheme" type="text/css">.ColorScheme-Text{color:#dfdfdf}</style></defs><g opacity=".3"><path fill-rule="evenodd" class="ColorScheme-Text" d="M6 3a2 2 0 0 0-1.988 1.78l-1 8.999A2 2 0 0 0 5 16h12a2 2 0 0 0 1.988-2.221l-1-9A2 2 0 0 0 16 3H6zm6 2v7h2v2H8v-2h2V7.5L8 8V6l4-1z" fill="currentColor"/><path class="ColorScheme-Text" d="M3 16.203v.547C3 17.962 4.04 19 5.25 19h11.5c1.212 0 2.25-1.038 2.25-2.25v-.547A2.959 2.959 0 0 1 17 17H5a2.959 2.959 0 0 1-2-.797z" fill="currentColor"/></g></svg>