<svg xmlns="http://www.w3.org/2000/svg" width="22" height="22" version="1"><defs><style id="current-color-scheme" type="text/css"></style></defs><path d="M5 9v7c0 2 0 3 1.5 3S8 18 8 16c0 2 0 3 1.5 3s1.5-1 1.5-3c0 2 0 3 1.5 3s1.5-1 1.5-3c0 2 0 2.999 1.5 3 1.5 0 1.5-1 1.5-3V9h-.002C17 6 16 3 11 2.998s-6 3-6 6zm3.5-1c.831 0 1.5.669 1.5 1.5S9.331 11 8.5 11 7 10.33 7 9.5 7.669 8 8.5 8zm6 0c.831 0 1.5.669 1.5 1.5s-.669 1.5-1.5 1.5-1.5-.67-1.5-1.5.669-1.5 1.5-1.5z" fill="currentColor" color="#5294e2"/></svg>