<svg xmlns="http://www.w3.org/2000/svg" width="22" height="22"><defs><style id="current-color-scheme" type="text/css">.ColorScheme-Text{color:#dfdfdf}</style></defs><path class="ColorScheme-Text" d="M11 3c-.65 1.268-1.466 2.639-2.814 4.19A23.037 23.037 0 0 1 6.434 9h9.097a22.208 22.208 0 0 1-1.66-1.701A19.038 19.038 0 0 1 11 3zm1.553.775A18.807 18.807 0 0 0 14.62 6.64c.848.965 1.67 1.735 2.436 2.361h.447l-1.442-4.002c-1.061.022-2.28-.465-3.068-.918-.16-.095-.3-.2-.441-.305zM9.4 3.852c-.992.613-2.36 1.166-3.459 1.15 0 0-.913 2.553-1.433 3.998h.41A21.697 21.697 0 0 0 7.43 6.533 20.622 20.622 0 0 0 9.4 3.852zM4.305 10a.255.255 0 0 0-.172.068.408.408 0 0 0-.13.287L4 10.357v.002a.488.488 0 0 0-.002.038v.002c0 .025.003.05.008.074l.002.006.177.92.06.308a.446.446 0 0 0 .093.196.319.319 0 0 0 .074.062c.04.023.083.035.127.035h.256l3.846-.012H9.116c.01.002.02.002.03.002l.012-.002h3.684a.237.237 0 0 0 .043 0H13.357l3.846.012h.256c.071 0 .14-.032.195-.09v-.002a.41.41 0 0 0 .1-.201l.06-.309.178-.92a.508.508 0 0 0 .006-.037v-.002a.497.497 0 0 0-.06-.289.361.361 0 0 0-.065-.08h-.002a.326.326 0 0 0-.02-.015l-.005-.006a.289.289 0 0 0-.026-.016h-.002a.264.264 0 0 0-.027-.014h-.002a.253.253 0 0 0-.027-.01h-.002A.245.245 0 0 0 17.7 10h-8.73zm4.722 2.984l.086.004h-.497l-3.432.01c.24 1.81.458 5 1.689 5.002h1.59l-1.45-2.508c-.022-.04-.015-.095.018-.123l2.031-1.724.774-.657h-.678l.088-.004a1.23 1.23 0 0 1-.219 0zm3.727 0l.088.004h-.678l.773.657 2.032 1.724c.033.028.04.083.017.123L13.537 18h1.582c1.223 0 1.453-3.191 1.697-5.002l-3.43-.01h-.5l.087-.004a1.23 1.23 0 0 1-.22 0z" fill="currentColor" fill-rule="evenodd"/><path class="ColorScheme-Text" d="M10.578 13l-1.692 3.996h4.227L11.423 13h-.845z" fill="currentColor" fill-rule="evenodd" opacity=".3"/></svg>