<svg xmlns="http://www.w3.org/2000/svg" width="22" height="22"><defs><style id="current-color-scheme" type="text/css"></style></defs><path d="M11.5 4a6.5 6.5 0 0 0-6.01 4.031A5 5 0 0 0 1 13a5 5 0 0 0 5 5h11.75A3.25 3.25 0 0 0 21 14.75a3.237 3.237 0 0 0-1.691-2.836A3 3 0 0 0 20 10a3 3 0 0 0-3-3 3 3 0 0 0-.023 0A6.5 6.5 0 0 0 11.5 4zm0 2a4.5 4.5 0 0 1 4.5 4.5 4.5 4.5 0 0 1-4.5 4.5A4.5 4.5 0 0 1 7 10.5 4.5 4.5 0 0 1 11.5 6zm0 1A3.5 3.5 0 0 0 8 10.5a3.5 3.5 0 0 0 3.5 3.5 3.5 3.5 0 0 0 3.5-3.5A3.5 3.5 0 0 0 11.5 7zM10 8h2.5A1.5 1.5 0 0 1 14 9.5a1.5 1.5 0 0 1-1.5 1.5H11v2h-1v-2zm1 1v1h1.5a.5.5 0 0 0 .5-.5.5.5 0 0 0-.5-.5z" fill="currentColor" color="#5294e2"/></svg>