<svg xmlns="http://www.w3.org/2000/svg" width="22" height="22"><defs><style id="current-color-scheme" type="text/css">.ColorScheme-Text{color:#dfdfdf}</style></defs><path class="ColorScheme-Text" d="M11.5 4a6.5 6.5 0 0 0-6.01 4.031A5 5 0 0 0 1 13a5 5 0 0 0 5 5h6.424A5 5 0 0 1 12 16a5 5 0 0 1 .113-1.047A4.5 4.5 0 0 1 11.5 15 4.5 4.5 0 0 1 7 10.5 4.5 4.5 0 0 1 11.5 6a4.5 4.5 0 0 1 4.5 4.5 4.5 4.5 0 0 1-.049.617A5 5 0 0 1 17 11a5 5 0 0 1 2.49.67A3 3 0 0 0 20 10a3 3 0 0 0-3-3 3 3 0 0 0-.023 0A6.5 6.5 0 0 0 11.5 4zm0 3A3.5 3.5 0 0 0 8 10.5a3.5 3.5 0 0 0 3.5 3.5 3.5 3.5 0 0 0 .99-.145 5 5 0 0 1 2.365-2.365A3.5 3.5 0 0 0 15 10.5 3.5 3.5 0 0 0 11.5 7zM10 8h2.5A1.5 1.5 0 0 1 14 9.5a1.5 1.5 0 0 1-1.5 1.5H11v2h-1V8zm1 1v1h1.5a.5.5 0 0 0 .5-.5.5.5 0 0 0-.5-.5H11z" fill="currentColor" opacity=".3"/><path class="ColorScheme-Text" d="M17.28 12.008a4 4 0 1 0 0 0zM15 14h1v4h-1zm3 0h1v4h-1z" fill="currentColor"/></svg>