<svg xmlns="http://www.w3.org/2000/svg" width="22" height="22"><defs><style id="current-color-scheme" type="text/css"></style></defs><path d="M11 3c-4.432 0-8 3.568-8 8s3.568 8 8 8 8-3.568 8-8-3.568-8-8-8zM8 6c1.6 1.2 5.299 1.202 7 1.5-1.179.262-3.117.316-4.77.652C11.656 9.168 12.391 9.218 14 9.5c-1.713.38-2.36.342-3.79 1.361 1.685.368 3.668.443 4.79.639-1.804.4-5.4.3-7 1.5l1.5.2L11 13c-1.2 1.6-1.202 2.299-1.5 4-.4-1.804-.3-2.4-1.5-4l.2-1.5L8 10c.505.379 1.229.631 2.023.818L10.2 9.5l-.172-1.3c-.794.176-1.516.417-2.027.8l.2-1.5zm4 7l1.5.2L15 13c-1.2 1.6-1.202 2.299-1.5 4-.4-1.804-.3-2.4-1.5-4z" fill="currentColor" color="#dfdfdf"/></svg>