<svg xmlns="http://www.w3.org/2000/svg" width="22" height="22"><defs><style id="current-color-scheme" type="text/css">.ColorScheme-Text{color:#dfdfdf}</style></defs><path class="ColorScheme-Text" d="M11 3c-1 0-1 1-1 1v14s0 1 1 1h8c1 0 1-1 1-1V4s0-1-1-1zm1 2.003h6v11h-6z" fill="currentColor"/><path opacity=".3" class="ColorScheme-Text" d="M3.5 3c-.277 0-.5.223-.5.5V4l-2-.002V18.5c0 .277.223.5.5.5h6c.277 0 .5-.223.5-.5V3.999L7.5 4H6v-.5c0-.277-.223-.5-.5-.5z" fill="currentColor"/><path class="ColorScheme-Text" d="M1 13v5.502c0 .277.223.5.5.5h6c.277 0 .5-.223.5-.5V13z" fill="currentColor"/></svg>