<svg xmlns="http://www.w3.org/2000/svg" width="22" height="22"><defs><style id="current-color-scheme" type="text/css"></style></defs><path d="M11.5 3C8.463 3 6 5.328 6 8.2c.002.133.009.266.021.4H6V9H4.834C4.372 9 4 9.346 4 9.777v5.446c0 .43.372.777.834.777H6v2.2c0 .442.377.8.846.8h2.963l1.267-2h.848l1.267 2h2.963c.47 0 .846-.358.846-.8V16h1.166c.462 0 .834-.346.834-.777V9.777c0-.43-.372-.777-.834-.777H17v-.4h-.018A4.92 4.92 0 0 0 17 8.2C17 5.327 14.537 3 11.5 3zm0 2C13.433 5 15 6 15 8.978l-.002.044H8v-.044C8 6 9.567 5 11.5 5zM9 7v1h1V7zm4 0v1h1V7zm-1.5 3c.923 0 1.467.782 1.467 1.742V12h.617c.227-.04.416.263.416.5v2.072a.42.42 0 0 1-.416.428H9.416A.42.42 0 0 1 9 14.572V12.5c0-.237.185-.5.416-.5h.617v-.258c0-.96.544-1.742 1.467-1.742zm0 .857c-.462 0-.633.383-.633.858V12h1.266v-.285c0-.475-.171-.858-.633-.858z" opacity=".3" fill="currentColor" color="#dfdfdf"/></svg>