<svg xmlns="http://www.w3.org/2000/svg" width="22" height="22"><defs><style id="current-color-scheme" type="text/css"></style></defs><path d="M11 2a8.963 8.963 0 0 0-5.625 1.969L3.562 2.156 2.157 3.562 3.97 5.375C2.734 6.875 2 8.775 2 10.975a9 9 0 1 0 18 0 8.963 8.963 0 0 0-1.969-5.625l1.813-1.812-1.407-1.407-1.812 1.813A8.963 8.963 0 0 0 11 1.975zm0 2a7 7 0 1 1 0 14 7 7 0 0 1 0-14zm0 1v6L5.805 8a6 6 0 0 0 .953 7.242 6 6 0 0 0 7.242 1 6 6 0 0 0 2.795-6.8A6 6 0 0 0 11 5.042z" fill="currentColor" color="#dfdfdf"/></svg>