<svg xmlns="http://www.w3.org/2000/svg" width="22" height="22"><defs><style id="current-color-scheme" type="text/css"></style></defs><path d="M11 3a8 8 0 1 0 0 16 8 8 0 0 0 0-16zM8.5 7h5c.831 0 1.5.669 1.5 1.5v5c0 .831-.669 1.5-1.5 1.5h-5c-.831 0-1.5-.669-1.5-1.5v-5C7 7.669 7.669 7 8.5 7zm1.086 1.379a.498.498 0 0 0-.354.146l-.707.707a.499.499 0 0 0 0 .707L9.585 11l-1.06 1.06a.499.499 0 0 0 0 .708l.707.707a.499.499 0 0 0 .707 0L11 12.415l1.06 1.06a.499.499 0 0 0 .708 0l.707-.707a.499.499 0 0 0 0-.707L12.415 11l1.06-1.06a.499.499 0 0 0 0-.708l-.707-.707a.499.499 0 0 0-.707 0L11 9.585l-1.06-1.06a.498.498 0 0 0-.354-.146z" fill="currentColor" color="#dfdfdf"/></svg>