<svg xmlns="http://www.w3.org/2000/svg" width="22" height="22" version="1"><defs><style id="current-color-scheme" type="text/css"></style></defs><path d="M4 3c-1.108 0-2 .892-2 2v12c0 1.108.892 2 2 2h14c1.108 0 2-.892 2-2V5c0-1.108-.892-2-2-2zM3 7h1v1H3zm7 1h1v1h1v1h-1v2c0 .258.053 1 .324 1H12v1h-1c-.931 0-1-1.17-1-1.801zm8 0h1v6c-.86-.082-1-.406-1-1zM3 9h1v5c-.86-.082-1-.906-1-1.5zm2 0h2.5c.998-.012 1.5.867 1.5 1.5V14H8v-3.5c0-.264-.336-.5-.67-.5H6v4H5zm10.098 0h.002c1.206.001 1.9 1.055 1.9 2.439V12h-2.855c.046.561.39.969.986.969.503 0 .753-.151 1.043-.461l.697.724c-.449.477-.917.766-1.748.766-1.084 0-2.121-.639-2.121-2.504 0-1.593.904-2.493 2.096-2.494zM15 10a1 1 0 0 0-1 1h2a1 1 0 0 0-1-1z" fill="currentColor" color="#dfdfdf"/></svg>