<svg xmlns="http://www.w3.org/2000/svg" width="22" height="22"><defs><style id="current-color-scheme" type="text/css"></style></defs><path d="M11 3C9.338 3 8 4.338 8 6v4.008A5 5 0 0 0 6 14a5 5 0 0 0 4.652 4.982A4 4 0 0 0 11 19a5 5 0 0 0 5-5 5 5 0 0 0-2-3.992V6c0-1.662-1.338-3-3-3zm0 2c.589 0 1 .411 1 1v5.008l.8.6a2.997 2.997 0 0 1 1.2 2.394 2.97 2.97 0 0 1-3.16 2.99l-.024-.004-.025-.002A2.973 2.973 0 0 1 8 14a2.997 2.997 0 0 1 1.2-2.393l.8-.6V6c0-.589.411-1 1-1z" fill="currentColor" color="#5294e2"/></svg>