<svg xmlns="http://www.w3.org/2000/svg" width="22" height="22"><defs><style id="current-color-scheme" type="text/css"></style></defs><path d="M3 5v12h2V5H3zm4 0v12l4.252-.033c2.931-.033 3.208-.072 4.447-.676 2.702-1.316 3.98-4.505 2.941-7.344-.686-1.875-2.248-3.263-4.237-3.767-.625-.16-1.02-.18-3.449-.18H7zm2 2h3v3h-1V8.687c-.557.436-1 1.143-1 2.313 0 3 3 3 3 3v1s-4 0-4-4c0-1.483.558-2.413 1.25-3H9V7zm4 0s4 0 4 4c0 1.483-.558 2.413-1.25 3H17v1h-3v-3h1v1.313c.557-.436 1-1.143 1-2.313 0-3-3-3-3-3V7z" fill="currentColor" color="#dfdfdf"/></svg>