<svg xmlns="http://www.w3.org/2000/svg" width="22" height="22"><defs><style id="current-color-scheme" type="text/css"></style></defs><path d="M3 5v12h2V5H3zm4 0v12l4.252-.033c2.931-.033 3.208-.072 4.447-.676 2.702-1.316 3.98-4.505 2.941-7.344-.686-1.875-2.248-3.263-4.237-3.767-.625-.16-1.02-.18-3.449-.18H7zm6 2c1.482 0 2.413.558 3 1.25V7h1v3h-3V9h1.312C14.877 8.443 14.17 8 13 8c-3 0-3 3-3 3H9s0-4 4-4zm3 4h1s0 4-4 4c-1.483 0-2.413-.558-3-1.25V15H9v-3h3v1h-1.313c.436.557 1.143 1 2.313 1 3 0 3-3 3-3z" fill="currentColor" color="#dfdfdf"/></svg>