<svg xmlns="http://www.w3.org/2000/svg" width="22" height="22"><defs><style id="current-color-scheme" type="text/css"></style></defs><path d="M6.025 3v.002c-2.489 0-4.36 2.001-4.49 4.48l-.499 9.461c-.315 1.85 1.483 3.018 2.995.995C4.973 16.658 7 14 7 14l8 .041 2.989 4.022c1.499 2.012 3.187.357 2.996-1.004l-.496-9.475c0-.035.01-.067.01-.102A4.477 4.477 0 0 0 16.009 3zM5 5h2v2h2v2H7v2H5V9H3V7h2zm11 0a1 1 0 0 1 1 1 1 1 0 0 1-1 1 1 1 0 0 1-1-1 1 1 0 0 1 1-1zm-2 2a1 1 0 0 1 1 1 1 1 0 0 1-1 1 1 1 0 0 1-1-1 1 1 0 0 1 1-1zm4 0a1 1 0 0 1 1 1 1 1 0 0 1-1 1 1 1 0 0 1-1-1 1 1 0 0 1 1-1zm-2 2a1 1 0 0 1 1 1 1 1 0 0 1-1 1 1 1 0 0 1-1-1 1 1 0 0 1 1-1z" fill="currentColor" color="#dfdfdf"/></svg>