<svg xmlns="http://www.w3.org/2000/svg" width="22" height="22"><defs><style id="current-color-scheme" type="text/css">.ColorScheme-Highlight{color:#5294e2}</style></defs><path d="M11 3c-4.432 0-8 3.568-8 8s3.568 8 8 8 8-3.568 8-8-3.568-8-8-8zm0 2a6 6 0 0 1 6 6 6 6 0 0 1-6 6 6 6 0 0 1-6-6 6 6 0 0 1 6-6z" fill="currentColor" color="#dfdfdf"/><g class="ColorScheme-Highlight" fill="currentColor"><path class="ColorScheme-Highlight" d="M9 7.001v4.094A1.39 1.39 0 0 0 8.5 11a1.5 1.5 0 1 0 1.5 1.5V9h3v2.094a1.39 1.39 0 0 0-.5-.095 1.5 1.5 0 1 0 1.5 1.5v-5.5h-.5z"/></g></svg>