<svg xmlns="http://www.w3.org/2000/svg" width="22" height="22"><defs><style id="current-color-scheme" type="text/css"></style></defs><path d="M11 11a3 3 0 0 0-3 3h6a3 3 0 0 0-3-3zm0-8a4 4 0 0 0-4 4v2H5a1 1 0 0 0-1 1v8a1 1 0 0 0 1 1h12a1 1 0 0 0 1-1v-8a1 1 0 0 0-1-1h-2V7a4 4 0 0 0-4-4zm0 2a2 2 0 0 1 2 2c0 .471-.102.842-.236 1.107-.133.266-.426.62-.764.893-.33.267-1 .6-1 .6s.303-.364.428-.65c-.141.031-.283.05-.428.05a2 2 0 1 1 0-4zm0 5a4 4 0 1 1 0 8 4 4 0 0 1 0-8z" fill="currentColor" color="#dfdfdf"/></svg>