<svg version="1.1" viewBox="0 0 22 22" xmlns="http://www.w3.org/2000/svg">
 <defs>
  <style id="current-color-scheme" type="text/css">.ColorScheme-Text {            color:#dfdfdf;        }</style>
 </defs>
 <path class="ColorScheme-Text" d="m15 3s-2.5564-0.060165-3.5117 1.8926c-0.28326 0.57903-0.48447 1.3317-0.44922 2.1426 0.03525 0.81084 0.32334 1.6862 1.0176 2.4043 0.52743 0.54556 0.75697 1.0653 0.86133 1.4453 0.01201 0.04373 0.01646 0.07639 0.02539 0.11523h4.1113c0.0089-0.03848 0.01538-0.07166 0.02734-0.11523 0.10441-0.3799 0.3339-0.89975 0.86133-1.4453 0.6943-0.71808 0.98232-1.5935 1.0176-2.4043 0.035252-0.81084-0.16596-1.5635-0.44922-2.1426-0.95529-1.9527-3.5117-1.8926-3.5117-1.8926zm-7.6992 0.28516-0.5 3.4219c0.94561-0.92199 2.169-1.5062 3.4805-1.6621zm-0.6875 3.6074-3.4043 0.56445 1.8203 2.9492c0.12721-1.3135 0.68394-2.5485 1.584-3.5137zm-1.6172 3.7754-2.2383 2.6152 3.293 1.0918c-0.58695-0.84783-0.94549-1.8326-1.041-2.8594-0.024538-0.28188-0.029107-0.56514-0.013672-0.84766zm8.0039 2.332v1.5c2e-5 0.1326 0.05271 0.25976 0.14648 0.35352l1 1c0.093707 0.09377 0.22092 0.14646 0.35352 0.14648h1c0.1326-2.5e-5 0.25976-0.05272 0.35352-0.14648l1-1c0.093773-0.093753 0.14646-0.22092 0.14648-0.35352v-1.5zm-6.8105 1.5859-0.035156 3.4512 3.2246-1.2812c-1.273-0.3525-2.3941-1.1153-3.1895-2.1699zm7.2695 1.8574c-0.6154 0.28396-1.2745 0.46161-1.9492 0.52539-0.63453 0.05255-1.2734 0.0038-1.8926-0.14453l2.1953 2.6719z" fill="currentColor"/>
 <path class="ColorScheme-Text" d="m10.043 7.125a4 4 0 0 0-3.043 3.875 4 4 0 0 0 4 4 4 4 0 0 0 1.0449-0.14453c-0.028428-0.11588-0.044904-0.23432-0.044922-0.35547v-1.5-0.27734a2 2 0 0 1-1 0.27734 2 2 0 0 1-2-2 2 2 0 0 1 1.5605-1.9473c-0.32658-0.63227-0.48419-1.3004-0.51758-1.9277z" fill="currentColor" opacity=".45"/>
</svg>
