<svg xmlns="http://www.w3.org/2000/svg" width="22" height="22"><defs><style id="current-color-scheme" type="text/css"></style></defs><path opacity=".35" d="M11 2.94a5.15 5.15 0 0 0-5.143 5.156c0 1.688.795 3.161 2.041 4.101.574.434 1.048.993 1.048 1.765L9 14.94h4l.057-.978c.045-.77.472-1.33 1.045-1.765a5.095 5.095 0 0 0 2.04-4.101A5.15 5.15 0 0 0 11 2.94zM11 5a3.093 3.093 0 0 1 3.086 3.096c0 .974-.444 1.871-1.222 2.456-1.16.877-1.6 1.858-1.761 2.674h-.206c-.16-.816-.6-1.797-1.761-2.674a3.052 3.052 0 0 1-1.222-2.456A3.094 3.094 0 0 1 11 5zM9 15.94v1h4v-1zm1 2v1h2v-1z" fill="currentColor" color="#dfdfdf"/></svg>