<svg xmlns="http://www.w3.org/2000/svg" width="22" height="22"><defs><style id="current-color-scheme" type="text/css"></style></defs><path d="M11 3a8 8 0 0 0-8 8 8 8 0 0 0 .992 3.857l1.674-1.113A6 6 0 0 1 5 11a6 6 0 0 1 6-6 6 6 0 0 1 4.594 2.15l1.672-1.113A8 8 0 0 0 11 3zM8 6.6V8.54l1.29.86L8 10.26v1.94l4.2-2.8L8 6.6zm10.012.55l-1.674 1.114A6 6 0 0 1 17 11a6 6 0 0 1-6 6 6 6 0 0 1-4.588-2.143L4.74 15.97A8 8 0 0 0 11 19a8 8 0 0 0 8-8 8 8 0 0 0-.988-3.85zM14 9.8l-4.2 2.8 4.2 2.8V13.46l-1.29-.86L14 11.74V9.8z" fill="currentColor" color="#dfdfdf"/></svg>