<svg xmlns="http://www.w3.org/2000/svg" width="22" height="22" version="1"><defs><style id="current-color-scheme" type="text/css"></style></defs><path d="M6.5 3C5.669 3 5 3.669 5 4.5v13c0 .831.669 1.5 1.5 1.5h8c.831 0 1.5-.669 1.5-1.5v-13c0-.831-.669-1.5-1.5-1.5h-8zM8 5a1 1 0 1 1 0 2 1 1 0 0 1 0-2zm5 0a1 1 0 1 1 0 2 1 1 0 0 1 0-2zm-2.5 5a3.5 3.5 0 1 1 0 7 3.5 3.5 0 0 1 0-7zm0 2a1.5 1.5 0 1 0 .001 3.001A1.5 1.5 0 0 0 10.5 12zm7.123 2a.609.687 0 0 0-.623.688v3.625a.609.687 0 0 0 .912.595l1.393-.906 1.39-.906a.609.687 0 0 0 0-1.19l-1.39-.908-1.393-.906a.609.687 0 0 0-.289-.092z" fill-rule="evenodd" fill="currentColor" color="#dfdfdf"/></svg>