<svg xmlns="http://www.w3.org/2000/svg" width="22" height="22"><defs><style id="current-color-scheme" type="text/css"></style></defs><path d="M7 3a2 2 0 0 0-2 2 2 2 0 0 0 2 2 2 2 0 0 0 2-2 2 2 0 0 0-2-2zm2.213 0c.483.533.787 1.231.787 2 0 1.645-1.355 3-3 3a2.975 2.975 0 0 1-2-.787V17c0 1.116.884 2 2 2s2-.884 2-2v-3h.408l-.77-1.158-.007-.012C8.343 12.382 8 11.782 8 11.002V11c0-1.645 1.355-3 3-3h.002a3.003 3.003 0 0 1 2.432 1.248l.02.03 2.009 3.015A5.465 5.465 0 0 0 17 8.5C17 5.462 14.5 3 11.5 3zM11 9a2 2 0 0 0-2 2c0 .472.219.895.473 1.29l3.845 5.794A2 2 0 0 0 17 17a2 2 0 0 0-.367-1.15L12.62 9.832A2 2 0 0 0 11 9z" fill="currentColor" color="#dfdfdf"/></svg>