<svg xmlns="http://www.w3.org/2000/svg" width="22" height="22" version="1"><defs><style id="current-color-scheme" type="text/css"></style></defs><path opacity=".3" d="M11 3c-4.432 0-8 3.568-8 8s3.568 8 8 8a7.982 7.982 0 0 0 8-7.988V11c0-4.432-3.568-8-8-8zm.088 2a6 6 0 0 1 4.154 1.758 6 6 0 0 1 0 8.484 6 6 0 0 1-8.484 0 6 6 0 0 1 0-8.484A6 6 0 0 1 11.088 5zM11 6v5l5 .008V11c0-2.773-2.227-5-5-5zm-4 4a1 1 0 0 0-1 1 1 1 0 0 0 1 1 1 1 0 0 0 1-1 1 1 0 0 0-1-1zm4 4a1 1 0 0 0-1 1 1 1 0 0 0 1 1 1 1 0 0 0 1-1 1 1 0 0 0-1-1z" fill="currentColor" color="#dfdfdf"/></svg>