<svg xmlns="http://www.w3.org/2000/svg" width="22" height="22"><path d="M10.5 3C7.535 3 5.132 5.386 5.035 8.328 3.274 8.951 2.003 10.57 2 12.5c0 2.104 1.496 3.804 3.457 4.289-.078.609-.13 1.217-.383 1.832a1 1 0 0 0 1.16 1.352c2.11-.51 3.784-1.588 5.139-2.973H15c2.75 0 5-2.25 5-5 0-1.737-.925-3.217-2.289-4.088A3 3 0 0 1 17 8a3 3 0 0 1-3-3 3 3 0 0 1 .061-.6c-.95-.862-2.184-1.398-3.559-1.4a1 1 0 0 0-.002 0zm1.5 9h3c.554 0 1 .446 1 1s-.446 1-1 1h-3c-.554 0-1-.446-1-1s.446-1 1-1z" fill="currentColor" color="#dfdfdf"/><path d="M19 5a2 2 0 0 1-4 0 2 2 0 1 1 4 0z" fill="currentColor" color="#5294e2"/></svg>