<svg xmlns="http://www.w3.org/2000/svg" width="22" height="22"><defs><style id="current-color-scheme" type="text/css"></style></defs><path d="M8 4v.018a3 2.997 0 0 0-3 2.996v.271a2 1.998 0 0 0-1-.271 2 1.998 0 0 0-2 1.998h-.5a.5.5 0 0 0-.5.5.5.5 0 0 0 .5.498h3.061C5.256 8.824 6.533 8.012 8 8.012h.002c.533 0 1.05.118 1.533.32a5.69 5.69 0 0 1 1.399-1.936A3 2.997 0 0 0 8 4zm6.5 2.012v.004a4.493 4.493 0 0 0-4.441 3.816A2.998 2.998 0 0 0 5 12.008c.001.343.061.683.178 1.006-.06-.01-.119-.01-.178-.01-1.105 0-2 .895-2 1.998A2 2 0 0 0 5 17h1.045c.371-.102.649-.204.967-.479.34-.293 3.497-5.498 6.377-5.498 1.526.001 3.007.748 3.525 2.797.046.192.108.564.086.682a1.501 1.501 0 0 1-3 0 1.5 1.5 0 0 1 1.479-1.498c-.469-.297-1.04-.471-1.475-.475-1.181-.01-1.917 1.021-2.022 1.944-.103.913.196 1.975 2.01 2.527H18.5a2.496 2.496 0 1 0 .232-4.982c.176-.485.266-.995.268-1.51a4.499 4.499 0 0 0-4.5-4.496z" fill="currentColor" color="#5294e2"/></svg>