<svg xmlns="http://www.w3.org/2000/svg" width="22" height="22"><defs><style id="current-color-scheme" type="text/css">.ColorScheme-Text{color:#dfdfdf}</style></defs><path class="ColorScheme-Text" d="M14.5 6.015a4.495 4.495 0 0 0-4.441 3.818A2.998 2.998 0 0 0 5 12.008c.001.343.061.684.178 1.007-.06-.01-.119-.01-.178-.01A1.999 1.999 0 1 0 5 17h1.045c.371-.103.649-.203.967-.478.34-.294 3.497-5.5 6.377-5.5 1.527.001 3.007.749 3.525 2.798.046.192.108.565.086.683a1.5 1.5 0 1 1-1.521-1.498c-.469-.298-1.04-.473-1.475-.477-1.181-.01-1.917 1.023-2.022 1.946-.103.913.196 1.974 2.01 2.526H18.5c1.38 0 2.5-1.118 2.5-2.497a2.498 2.498 0 0 0-2.268-2.486c.176-.485.266-.996.268-1.51a4.497 4.497 0 0 0-4.5-4.495z" fill="currentColor"/><path opacity=".3" class="ColorScheme-Text" d="M8 4.017a3 2.997 0 0 0-3 2.997v.27a2 1.998 0 0 0-1-.27A2 1.998 0 0 0 2 9.01h-.5a.5.5 0 0 0-.5.5.5.5 0 0 0 .5.5h3.061C5.257 8.823 6.533 8.012 8 8.012h.001c.533 0 1.05.118 1.533.32a5.7 5.7 0 0 1 1.399-1.936A3 2.997 0 0 0 8 4z" fill="currentColor"/></svg>