<svg xmlns="http://www.w3.org/2000/svg" width="22" height="22"><defs><style id="current-color-scheme" type="text/css"></style></defs><path d="M11.532 3.004c-.43-.013-.518.002-.642.113-.204.178-.194.56.017.723.114.085.201.104.703.133 1.486.084 2.622.477 3.72 1.283 1.315.963 2.14 2.305 2.452 3.986.08.429.12.787.147 1.342.016.362.028.442.076.535.151.282.592.323.793.072.106-.13.118-.23.1-.681-.05-1.325-.345-2.529-.86-3.541-.37-.726-.717-1.194-1.346-1.81-.67-.654-1.179-1.012-1.972-1.391a7.512 7.512 0 0 0-2.45-.711 10.96 10.96 0 0 0-.738-.053zm-5.642.265a1.16 1.16 0 0 0-.322.008h-.002c-.251.052-.566.235-1.248.73-.41.3-.972.839-1.104 1.055-.306.514-.289.951.084 1.955.64 1.723 1.575 3.383 2.805 4.985 2.353 3.065 5.317 5.294 9.03 6.789.472.19.626.223.997.205.45-.021.79-.157 1.271-.514.532-.394 1.293-1.32 1.49-1.812.184-.468.135-.892-.14-1.223-.156-.183-1.309-1.103-1.848-1.472a15.947 15.947 0 0 0-1.334-.811c-.383-.191-.765-.224-1.138-.1-.294.099-.39.183-.819.709-.222.269-.427.513-.453.536a1.348 1.348 0 0 1-.209.113c-.346.158-.82.063-1.594-.315-.603-.291-1.137-.66-1.741-1.203-.516-.46-1.035-1.06-1.326-1.527-.376-.602-.662-1.383-.665-1.815 0-.186.077-.45.172-.584.037-.054.272-.258.524-.457.626-.493.766-.647.851-.941.082-.274-.006-.644-.267-1.143-.458-.873-1.855-2.62-2.358-2.945a1.802 1.802 0 0 0-.318-.154 1.463 1.463 0 0 0-.338-.069zm5.888 1.623a.4.4 0 0 0-.304.188h-.002a.462.462 0 0 0 .04.584c.096.111.24.163.5.184.716.056 1.501.285 2.034.595a3.96 3.96 0 0 1 1.474 1.5c.307.548.485 1.253.485 1.922 0 .434.06.593.264.694.121.062.342.067.445.015a.585.585 0 0 0 .24-.254c.037-.093.036-.654.002-.96a5.058 5.058 0 0 0-.84-2.29c-.814-1.183-2.057-1.91-3.662-2.14-.316-.047-.527-.06-.676-.038zm.561 1.932a.392.392 0 0 0-.137.043.475.475 0 0 0-.148.723c.105.12.204.157.53.195.692.083 1.1.336 1.333.824.108.23.173.479.207.832.03.266.07.364.195.457.175.132.462.126.618-.013.166-.15.196-.33.124-.79-.105-.704-.345-1.196-.785-1.601-.34-.313-.74-.507-1.26-.615a3.623 3.623 0 0 0-.449-.053h-.002a1.429 1.429 0 0 0-.226-.002z" opacity=".3" fill="currentColor" color="#dfdfdf"/></svg>