<svg xmlns="http://www.w3.org/2000/svg" width="22" height="22"><defs><style id="current-color-scheme" type="text/css">.ColorScheme-Text{color:#dfdfdf}</style></defs><path class="ColorScheme-Text" d="M14.422 6.611c-1.735.124-4.786 3.044-4.357 3.029 3.548-.123 5.765.08 8.534.93.41.126-.443-3.674-4.177-3.959z" xml:space="default" fill="currentColor"/><path class="ColorScheme-Text" d="M9.144 4.212c-.987 1.418-1.111 6.966-.856 6.625C10.388 8.02 15.42 4.54 18.42 3.14c3.71-1.732-7.08-1.52-9.276 1.071z" xml:space="default" fill="currentColor"/><path class="ColorScheme-Text" d="M4.675 10.21c.569 1.626 4.208 3.789 4.083 3.383-1.035-3.36-1.41-5.53-1.293-8.395.018-.424-3.474 1.37-2.79 5.012z" xml:space="default" fill="currentColor"/><path class="ColorScheme-Text" d="M5.15 15.553c1.612.65 5.655-.632 5.264-.807-3.237-1.445-5.133-2.597-7.235-4.572-.312-.292-1.249 3.488 1.971 5.379z" xml:space="default" fill="currentColor"/><path class="ColorScheme-Text" d="M9.813 18.606c1.541-.8 3.157-4.683 2.77-4.5-3.203 1.516-5.316 2.207-8.198 2.523-.427.047 1.89 3.192 5.428 1.977z" xml:space="default" fill="currentColor"/><path class="ColorScheme-Text" d="M15.247 16.97c.377-1.68-1.58-5.407-1.688-4.996-.896 3.398-1.726 5.441-3.341 7.822-.24.353 3.686.632 5.03-2.825z" xml:space="default" fill="currentColor"/><path class="ColorScheme-Text" d="M17.387 11.682c-1.047-1.375-5.182-2.326-4.937-1.977 2.03 2.881 3.06 4.833 3.84 7.595.116.408 2.88-2.361 1.097-5.618z" xml:space="default" fill="currentColor"/></svg>