<svg xmlns="http://www.w3.org/2000/svg" width="22" height="22"><defs><style id="current-color-scheme" type="text/css"></style></defs><path opacity=".3" d="M11 3a8 8 0 0 0-8 8 8 8 0 0 0 8 8 8 8 0 0 0 8-8 8 8 0 0 0-8-8zm0 2a6 6 0 0 1 4.486 2.023A1.5 1.5 0 0 1 15.75 7a1.5 1.5 0 0 1 1.5 1.5 1.5 1.5 0 0 1-.434 1.053A6 6 0 0 1 17 11a6 6 0 0 1-1.174 3.553 1.5 1.5 0 0 1 .174.697 1.5 1.5 0 0 1-1.5 1.5 1.5 1.5 0 0 1-.939-.332A6 6 0 0 1 11 17a6 6 0 0 1-5.191-3.002A1.5 1.5 0 0 1 5.75 14a1.5 1.5 0 0 1-1.5-1.5 1.5 1.5 0 0 1 .76-1.3A6 6 0 0 1 5 11a6 6 0 0 1 6-6zm0 1a5 5 0 0 0-5 5 5 5 0 0 0 0 .021 1.5 1.5 0 0 1 1.065.762l3.46-.553A1.5 1.5 0 0 1 12 10a1.5 1.5 0 0 1 .791.227l1.543-1.234a1.5 1.5 0 0 1-.084-.492 1.5 1.5 0 0 1 .352-.965A5 5 0 0 0 11 6zm3.959 3.773l-1.543 1.235a1.5 1.5 0 0 1 .084.492 1.5 1.5 0 0 1-.3.898l.933 1.399a1.5 1.5 0 0 1 .367-.046 1.5 1.5 0 0 1 .59.12 5 5 0 0 0 .91-2.87 5 5 0 0 0-.108-1.008 1.5 1.5 0 0 1-.142.008 1.5 1.5 0 0 1-.791-.227zm-4.273 2.444l-3.461.554a1.5 1.5 0 0 1-.479.848A5 5 0 0 0 11 16a5 5 0 0 0 2.033-.44 1.5 1.5 0 0 1-.033-.31 1.5 1.5 0 0 1 .3-.898l-.933-1.399A1.5 1.5 0 0 1 12 13a1.5 1.5 0 0 1-1.314-.783z" fill="currentColor" color="#dfdfdf"/></svg>