<svg xmlns="http://www.w3.org/2000/svg" width="22" height="22"><defs><style id="current-color-scheme" type="text/css"></style></defs><path d="M4.072 15A8 8 0 0 0 15 17.928 8 8 0 0 0 17.928 7 8 8 0 0 0 7 4.072 8 8 0 0 0 4.072 15zm1.732-1a6 6 0 0 1-.49-4.897 1.5 1.5 0 0 1-.153-.217 1.5 1.5 0 0 1 .55-2.049 1.5 1.5 0 0 1 1.128-.15A6 6 0 0 1 8 5.803a6 6 0 0 1 3.664-.76 1.5 1.5 0 0 1 .517-.5 1.5 1.5 0 0 1 2.049.55 1.5 1.5 0 0 1 .182.98A6 6 0 0 1 16.196 8a6 6 0 0 1-.004 5.997 1.5 1.5 0 0 1 .031.05 1.5 1.5 0 0 1-.549 2.049 1.5 1.5 0 0 1-1.506-.008 6 6 0 0 1-.168.108A6 6 0 0 1 5.804 14zm.866-.5a5 5 0 0 0 6.83 1.83 5 5 0 0 0 .019-.01 1.5 1.5 0 0 1 .127-1.303l-2.209-2.721a1.5 1.5 0 0 1-1.803-.662 1.5 1.5 0 0 1-.2-.798l-1.84-.72a1.5 1.5 0 0 1-.384.319 1.5 1.5 0 0 1-1.011.178 5 5 0 0 0 .47 3.887zM7.96 8.185l1.84.719a1.5 1.5 0 0 1 .384-.32 1.5 1.5 0 0 1 .928-.188l.745-1.508a1.5 1.5 0 0 1-.224-.294 1.5 1.5 0 0 1-.19-.572A5 5 0 0 0 8.5 6.67a5 5 0 0 0-.819.597 1.5 1.5 0 0 1 .078.12 1.5 1.5 0 0 1 .2.798zm4.252 2.479l2.211 2.72a1.5 1.5 0 0 1 .973-.01A5 5 0 0 0 15.33 8.5a5 5 0 0 0-1.397-1.541 1.5 1.5 0 0 1-.252.184 1.5 1.5 0 0 1-.929.189l-.744 1.507a1.5 1.5 0 0 1 .224.295 1.5 1.5 0 0 1-.02 1.53z" fill="currentColor" color="#dfdfdf"/></svg>