<svg xmlns="http://www.w3.org/2000/svg" width="22" height="22"><defs><style id="current-color-scheme" type="text/css"></style></defs><path d="M15 17.928A8 8 0 0 0 17.928 7 8 8 0 0 0 7 4.072 8 8 0 0 0 4.072 15 8 8 0 0 0 15 17.928zm-1-1.732a6 6 0 0 1-4.897.491 1.5 1.5 0 0 1-.217.152 1.5 1.5 0 0 1-2.049-.549 1.5 1.5 0 0 1-.15-1.128A6 6 0 0 1 5.803 14a6 6 0 0 1-.76-3.664 1.5 1.5 0 0 1-.5-.517 1.5 1.5 0 0 1 .55-2.049 1.5 1.5 0 0 1 .98-.182A6 6 0 0 1 8 5.804a6 6 0 0 1 5.997.004 1.5 1.5 0 0 1 .05-.031 1.5 1.5 0 0 1 2.049.549 1.5 1.5 0 0 1-.008 1.506 6 6 0 0 1 .108.168A6 6 0 0 1 14 16.196zm-.5-.866a5 5 0 0 0 1.83-6.83 5 5 0 0 0-.011-.019 1.5 1.5 0 0 1-1.302-.127l-2.72 2.21a1.5 1.5 0 0 1-.663 1.802 1.5 1.5 0 0 1-.798.2l-.72 1.84a1.5 1.5 0 0 1 .32.384 1.5 1.5 0 0 1 .178 1.011 5 5 0 0 0 3.886-.472zm-5.315-1.288l.719-1.841a1.5 1.5 0 0 1-.32-.384 1.5 1.5 0 0 1-.188-.928l-1.508-.745a1.5 1.5 0 0 1-.294.224 1.5 1.5 0 0 1-.572.19A5 5 0 0 0 6.67 13.5a5 5 0 0 0 .597.82 1.5 1.5 0 0 1 .12-.079 1.5 1.5 0 0 1 .798-.2zm2.479-4.253l2.72-2.21a1.5 1.5 0 0 1-.01-.974A5 5 0 0 0 8.5 6.67a5 5 0 0 0-1.541 1.397 1.5 1.5 0 0 1 .184.253 1.5 1.5 0 0 1 .189.928l1.507.745a1.5 1.5 0 0 1 .295-.225 1.5 1.5 0 0 1 1.53.021z" fill="currentColor" color="#dfdfdf"/></svg>