<svg xmlns="http://www.w3.org/2000/svg" width="22" height="22"><defs><style id="current-color-scheme" type="text/css"></style></defs><path d="M3 11a8 8 0 0 0 8 8 8 8 0 0 0 8-8 8 8 0 0 0-8-8 8 8 0 0 0-8 8zm2 0a6 6 0 0 1 2.023-4.486A1.5 1.5 0 0 1 7 6.25a1.5 1.5 0 0 1 1.5-1.5 1.5 1.5 0 0 1 1.053.434A6 6 0 0 1 11 5a6 6 0 0 1 3.553 1.174A1.5 1.5 0 0 1 15.25 6a1.5 1.5 0 0 1 1.5 1.5 1.5 1.5 0 0 1-.332.94A6 6 0 0 1 17 11a6 6 0 0 1-3.002 5.191 1.5 1.5 0 0 1 .002.059 1.5 1.5 0 0 1-1.5 1.5 1.5 1.5 0 0 1-1.3-.76 6 6 0 0 1-.2.01 6 6 0 0 1-6-6zm1 0a5 5 0 0 0 5 5 5 5 0 0 0 .021 0 1.5 1.5 0 0 1 .762-1.065l-.553-3.46A1.5 1.5 0 0 1 10 10a1.5 1.5 0 0 1 .226-.791L8.992 7.666a1.5 1.5 0 0 1-.492.084 1.5 1.5 0 0 1-.965-.352A5 5 0 0 0 6 11zm3.773-3.959l1.235 1.543A1.5 1.5 0 0 1 11.5 8.5a1.5 1.5 0 0 1 .898.3l1.398-.933a1.5 1.5 0 0 1-.046-.367 1.5 1.5 0 0 1 .121-.59 5 5 0 0 0-2.87-.91 5 5 0 0 0-1.008.107A1.5 1.5 0 0 1 10 6.25a1.5 1.5 0 0 1-.226.791zm2.443 4.273l.555 3.461a1.5 1.5 0 0 1 .848.479A5 5 0 0 0 15.999 11a5 5 0 0 0-.439-2.033 1.5 1.5 0 0 1-.31.033 1.5 1.5 0 0 1-.899-.3l-1.398.933A1.5 1.5 0 0 1 13 10a1.5 1.5 0 0 1-.784 1.314z" fill="currentColor" color="#dfdfdf"/></svg>