<svg xmlns="http://www.w3.org/2000/svg" width="22" height="22"><defs><style id="current-color-scheme" type="text/css"></style></defs><path d="M15 4.072A8 8 0 0 0 4.072 7 8 8 0 0 0 7 17.928 8 8 0 0 0 17.928 15 8 8 0 0 0 15 4.072zm-1 1.732a6 6 0 0 1 2.874 3.995 1.5 1.5 0 0 1 .24.112 1.5 1.5 0 0 1 .549 2.049 1.5 1.5 0 0 1-.902.695A6 6 0 0 1 16.196 14a6 6 0 0 1-2.793 2.49 1.5 1.5 0 0 1-.198.69 1.5 1.5 0 0 1-2.05.55 1.5 1.5 0 0 1-.646-.758 6 6 0 0 1-2.51-.776A6 6 0 0 1 5.006 11a1.5 1.5 0 0 1-.052-.028 1.5 1.5 0 0 1-.549-2.049 1.5 1.5 0 0 1 1.309-.747A6 6 0 0 1 5.803 8 6 6 0 0 1 14 5.804zm-.5.866A5 5 0 0 0 6.67 8.5a5 5 0 0 0-.01.019A1.5 1.5 0 0 1 7.2 9.71l3.274 1.252a1.5 1.5 0 0 1 1.892-.328 1.5 1.5 0 0 1 .572.591l1.953-.297a1.5 1.5 0 0 1 .174-.467 1.5 1.5 0 0 1 .786-.66 5 5 0 0 0-2.35-3.13zm1.542 5.247l-1.953.298a1.5 1.5 0 0 1-.174.468 1.5 1.5 0 0 1-.71.628l.11 1.678a1.5 1.5 0 0 1 .341.143 1.5 1.5 0 0 1 .45.4A5 5 0 0 0 15.33 13.5a5 5 0 0 0 .411-.926 1.5 1.5 0 0 1-.127-.065 1.5 1.5 0 0 1-.572-.592zm-4.923-.02l-3.274-1.25a1.5 1.5 0 0 1-.839.494 5 5 0 0 0 2.494 4.19 5 5 0 0 0 1.98.635 1.5 1.5 0 0 1 .127-.285 1.5 1.5 0 0 1 .71-.628l-.11-1.678a1.5 1.5 0 0 1-.341-.143 1.5 1.5 0 0 1-.747-1.335z" fill="currentColor" color="#dfdfdf"/></svg>