<svg xmlns="http://www.w3.org/2000/svg" width="22" height="22"><defs><style id="current-color-scheme" type="text/css"></style></defs><path d="M7 4.072A8 8 0 0 0 4.072 15 8 8 0 0 0 15 17.928 8 8 0 0 0 17.928 7 8 8 0 0 0 7 4.072zm1 1.732a6 6 0 0 1 4.897-.49 1.5 1.5 0 0 1 .217-.153 1.5 1.5 0 0 1 2.049.55 1.5 1.5 0 0 1 .15 1.128A6 6 0 0 1 16.197 8a6 6 0 0 1 .76 3.664 1.5 1.5 0 0 1 .5.517 1.5 1.5 0 0 1-.55 2.049 1.5 1.5 0 0 1-.98.182 6 6 0 0 1-1.925 1.784 6 6 0 0 1-5.997-.004 1.5 1.5 0 0 1-.05.031 1.5 1.5 0 0 1-2.049-.549 1.5 1.5 0 0 1 .008-1.506A6 6 0 0 1 5.804 14a6 6 0 0 1 2.197-8.196zm.5.866a5 5 0 0 0-1.83 6.83 5 5 0 0 0 .01.019 1.5 1.5 0 0 1 1.304.127l2.72-2.209a1.5 1.5 0 0 1 .662-1.803 1.5 1.5 0 0 1 .799-.2l.719-1.84a1.5 1.5 0 0 1-.318-.384 1.5 1.5 0 0 1-.178-1.011 5 5 0 0 0-3.887.47zm5.315 1.289l-.719 1.84a1.5 1.5 0 0 1 .319.385 1.5 1.5 0 0 1 .189.928l1.507.744a1.5 1.5 0 0 1 .294-.224 1.5 1.5 0 0 1 .571-.19A5 5 0 0 0 15.33 8.5a5 5 0 0 0-.597-.819 1.5 1.5 0 0 1-.119.078 1.5 1.5 0 0 1-.799.2zm-2.479 4.252l-2.72 2.211a1.5 1.5 0 0 1 .01.973 5 5 0 0 0 4.874-.065 5 5 0 0 0 1.541-1.397 1.5 1.5 0 0 1-.184-.252 1.5 1.5 0 0 1-.189-.929l-1.507-.744a1.5 1.5 0 0 1-.294.225 1.5 1.5 0 0 1-1.53-.021z" fill="currentColor" color="#dfdfdf"/></svg>