<svg xmlns="http://www.w3.org/2000/svg" width="22" height="22"><defs><style id="current-color-scheme" type="text/css"></style></defs><path d="M17.928 7A8 8 0 0 0 7 4.072 8 8 0 0 0 4.072 15 8 8 0 0 0 15 17.928 8 8 0 0 0 17.928 7zm-1.732 1a6 6 0 0 1 .49 4.897 1.5 1.5 0 0 1 .153.217 1.5 1.5 0 0 1-.55 2.049 1.5 1.5 0 0 1-1.128.15 6 6 0 0 1-1.16.883 6 6 0 0 1-3.665.76 1.5 1.5 0 0 1-.517.499 1.5 1.5 0 0 1-2.048-.55 1.5 1.5 0 0 1-.182-.98A6 6 0 0 1 5.804 14a6 6 0 0 1 .004-5.997 1.5 1.5 0 0 1-.03-.05 1.5 1.5 0 0 1 .548-2.049 1.5 1.5 0 0 1 1.507.008A6 6 0 0 1 8 5.803 6 6 0 0 1 16.197 8zm-.866.5A5 5 0 0 0 8.5 6.67a5 5 0 0 0-.019.01 1.5 1.5 0 0 1-.127 1.303l2.209 2.721a1.5 1.5 0 0 1 1.803.662 1.5 1.5 0 0 1 .2.799l1.84.719a1.5 1.5 0 0 1 .384-.318 1.5 1.5 0 0 1 1.01-.178 5 5 0 0 0-.47-3.887zm-1.288 5.315l-1.841-.719a1.5 1.5 0 0 1-.384.319 1.5 1.5 0 0 1-.929.189l-.744 1.507a1.5 1.5 0 0 1 .224.295 1.5 1.5 0 0 1 .19.571 5 5 0 0 0 2.942-.648 5 5 0 0 0 .82-.597 1.5 1.5 0 0 1-.079-.119 1.5 1.5 0 0 1-.199-.799zm-4.253-2.479l-2.21-2.72a1.5 1.5 0 0 1-.974.01A5 5 0 0 0 6.67 13.5a5 5 0 0 0 1.397 1.541 1.5 1.5 0 0 1 .252-.184 1.5 1.5 0 0 1 .929-.188l.744-1.507a1.5 1.5 0 0 1-.224-.295 1.5 1.5 0 0 1 .02-1.53z" fill="currentColor" color="#dfdfdf"/></svg>