<svg xmlns="http://www.w3.org/2000/svg" width="22" height="22"><defs><style id="current-color-scheme" type="text/css"></style></defs><path d="M7 17.928A8 8 0 0 0 17.928 15 8 8 0 0 0 15 4.072 8 8 0 0 0 4.072 7 8 8 0 0 0 7 17.928zm1-1.732a6 6 0 0 1-2.874-3.995 1.5 1.5 0 0 1-.24-.112 1.5 1.5 0 0 1-.549-2.049 1.5 1.5 0 0 1 .902-.695A6 6 0 0 1 5.804 8a6 6 0 0 1 2.793-2.49 1.5 1.5 0 0 1 .198-.69 1.5 1.5 0 0 1 2.049-.55 1.5 1.5 0 0 1 .647.758A6 6 0 0 1 14 5.804a6 6 0 0 1 2.995 5.195 1.5 1.5 0 0 1 .052.028 1.5 1.5 0 0 1 .549 2.049 1.5 1.5 0 0 1-1.309.746 6 6 0 0 1-.09.178A6 6 0 0 1 8 16.196zm.5-.866a5 5 0 0 0 6.83-1.83 5 5 0 0 0 .011-.019 1.5 1.5 0 0 1-.541-1.191l-3.274-1.252a1.5 1.5 0 0 1-1.892.328 1.5 1.5 0 0 1-.572-.592l-1.953.298a1.5 1.5 0 0 1-.174.468 1.5 1.5 0 0 1-.786.66A5 5 0 0 0 8.5 15.33zm-1.542-5.247l1.954-.298a1.5 1.5 0 0 1 .173-.468 1.5 1.5 0 0 1 .71-.628l-.11-1.678a1.5 1.5 0 0 1-.341-.143 1.5 1.5 0 0 1-.45-.4A5 5 0 0 0 6.67 8.5a5 5 0 0 0-.411.927 1.5 1.5 0 0 1 .127.064 1.5 1.5 0 0 1 .572.592zm4.923.02l3.274 1.25a1.5 1.5 0 0 1 .838-.494 5 5 0 0 0-2.494-4.19 5 5 0 0 0-1.98-.635 1.5 1.5 0 0 1-.127.285 1.5 1.5 0 0 1-.71.628l.11 1.678a1.5 1.5 0 0 1 .341.143 1.5 1.5 0 0 1 .747 1.335z" fill="currentColor" color="#dfdfdf"/></svg>