<svg xmlns="http://www.w3.org/2000/svg" width="22" height="22"><defs><style id="current-color-scheme" type="text/css"></style></defs><path d="M11.019 3C7.126 3 3.888 5.595 3.183 9.027A7.981 7.5 0 0 0 3 10.604a7.981 7.5 0 0 0 3.03 5.873V19l1.773-1.52a7.981 7.5 0 0 0 3.178.624 7.981 7.5 0 0 0 7.838-6.108c.117-.506.181-1.03.181-1.568C19 6.325 15.426 3 11.019 3zm-.024 2h.047l.561.025.022.002.023.004.546.074.033.006.033.01.156.043-.271.963-.113-.033-.501-.07-.512-.022-.515.021-.138.02-.137-.99.16-.022.024-.004.02-.002zm-1.804.287l.27.961-.399.115-.851.42-.359.27-.598-.801.397-.299.037-.027.041-.02.934-.46.04-.022.043-.012zm4.263.197l.854.422.04.02.038.027.812.611.037.03.033.035.02.021-.483.44-.205.275-.774-.582-.812-.402zm-7.007 1.5l.739.672-.326.36-.238.359-.206.393-.174.427-.925-.373.183-.455.01-.025.012-.022.231-.437.012-.024.014-.021.274-.412.022-.03.023-.027zm9.554.47l.257.384.014.021.012.024.232.437.011.022.01.025.185.46.01.025.008.025.134.478.008.028.004.027.008.047-.924.156-.056.016-.002-.006h-.002l-.004-.02-.121-.431-.162-.404-.208-.393-.244-.367zM5.067 9.9l.536.09.454.026-.025.484.023.453.074.44.121.43-.96.27-.127-.448-.008-.028-.004-.027-.084-.496-.003-.028-.002-.027-.03-.512v-.054l.03-.512.002-.027.003-.028zm10.94.573l.998.054-.03.512-.002.027-.004.028-.083.496-.004.027-.008.028-.134.478-.008.025-.01.026-.181.451-.926-.373.17-.424.122-.435.075-.44zm-9.398 2.132l.017.028.234.35.614.68.353.265-.6.8-.388-.292-.037-.03-.033-.035-.67-.74-.024-.027-.022-.03-.274-.412-.014-.021-.012-.024-.01-.015.599-.319zm8.59.356l.738.672-.669.738-.033.035-.037.03-.8.601-.599-.799.764-.576zM8.59 14.404l.471.233.941.27.33.044-.137.992-.352-.048-.034-.006-.033-.01-1.03-.291-.043-.012-.041-.021-.513-.252zm4.429.221l.054.195.351.711-.05.024-.042.021-.042.012-1.031.29-.033.01-.033.007-.546.074-.023.004-.022.002-.321.013-.045-1 .294-.011.503-.07.945-.27.004-.002z" fill="currentColor" color="#dfdfdf"/></svg>