<svg xmlns="http://www.w3.org/2000/svg" width="22" height="22" version="1"><defs><style id="current-color-scheme" type="text/css">.ColorScheme-Text{color:#dfdfdf}</style></defs><path class="ColorScheme-Text" d="M7 3a4 4 0 0 0-4 4 4 4 0 0 0 1.115 2.77A7 7 0 0 0 4 11a7 7 0 0 0 7 7 7 7 0 0 0 1.238-.113A4 4 0 0 0 15 19a4 4 0 0 0 4-4 4 4 0 0 0-1.115-2.77A7 7 0 0 0 18 11a7 7 0 0 0-7-7 7 7 0 0 0-1.238.113A4 4 0 0 0 7 3zm4 2.09v1a5 5 0 0 1 4.996 4.906 1 1 0 0 1 .004.094 1 1 0 0 1-1 1 1 1 0 0 1-1-1 3 3 0 0 0-3-3v1l-3-2 3-2zm-4 5a1 1 0 0 1 1 1 3 3 0 0 0 3 3v-1l3 2-3 2v-1a5 5 0 0 1-4.996-4.906A1 1 0 0 1 6 11.09a1 1 0 0 1 1-1z" fill="currentColor"/></svg>