<svg xmlns="http://www.w3.org/2000/svg" width="22" height="22" version="1"><defs><style id="current-color-scheme" type="text/css">.ColorScheme-Text{color:#dfdfdf}</style></defs><path class="ColorScheme-Text" d="M7 3a4 4 0 0 0-4 4 4 4 0 0 0 1.115 2.77A7 7 0 0 0 4 11a7 7 0 0 0 7 7 7 7 0 0 0 1.238-.113A4 4 0 0 0 15 19a4 4 0 0 0 4-4 4 4 0 0 0-1.115-2.77A7 7 0 0 0 18 11a7 7 0 0 0-7-7 7 7 0 0 0-1.238.113A4 4 0 0 0 7 3zm4.127 4c1.974 0 2.992 1.042 2.992 1.654 0 .614-.295.705-.78.705-.94 0-.554-1.132-2.318-1.132-.583 0-1.312.265-1.312.947 0 .548.646.75 1.785 1.031 1.718.46 3.006.919 3.006 2.496 0 1.531-1.247 2.299-3.22 2.299-1.974 0-3.235-1.181-3.235-1.793 0-.612.233-.766.717-.766.943 0 .817 1.29 2.58 1.29.585 0 1.45-.268 1.45-.952 0-.546-.047-.735-1.298-1.072C10.158 11.526 8 11.091 8 9.424c0-1.531 1.156-2.422 3.13-2.422L11.126 7z" fill="currentColor"/><circle cx="19" cy="4" r="2" fill="currentColor" color="#5294e2"/></svg>