<svg xmlns="http://www.w3.org/2000/svg" width="22" height="22"><defs><style id="current-color-scheme" type="text/css"></style></defs><path d="M12.054 3.865a1.005 1.005 0 0 0-.397.027.997.997 0 0 0-.707 1.225l.518 1.932-3.864 1.035-.518-1.932a.999.999 0 1 0-1.93.518l.518 1.93-1.932.518a.999.999 0 0 0-.707 1.226c.143.535.69.85 1.224.706l1.932-.518 1.036 3.865-1.933.517a.999.999 0 1 0 .518 1.93l1.93-.517.518 1.932a.999.999 0 0 0 1.226.706.997.997 0 0 0 .706-1.224l-.517-1.932 3.864-1.035.518 1.932a.999.999 0 1 0 1.93-.518l-.518-1.93 1.932-.518a.999.999 0 0 0 .707-1.226.997.997 0 0 0-1.224-.706l-1.931.519-1.035-3.865 1.932-.517a.999.999 0 1 0-.518-1.93l-1.93.517-.518-1.932a.999.999 0 0 0-.828-.734zm-.068 5.114l1.035 3.865-3.864 1.035-1.035-3.865 3.864-1.035z" fill="currentColor" color="#dfdfdf"/></svg>