<svg xmlns="http://www.w3.org/2000/svg" width="22" height="22" version="1"><defs><style id="current-color-scheme" type="text/css"></style></defs><path d="M11 3c-4.432 0-8 3.568-8 8s3.568 8 8 8 8-3.568 8-8-3.568-8-8-8zm0 1a2 2 0 0 1 2 2 2 2 0 0 1-2 2 2 2 0 0 1-2-2 2 2 0 0 1 2-2zM6 9a2 2 0 0 1 2 2 2 2 0 0 1-2 2 2 2 0 0 1-2-2 2 2 0 0 1 2-2zm10 0a2 2 0 0 1 2 2 2 2 0 0 1-2 2 2 2 0 0 1-2-2 2 2 0 0 1 2-2zm-5.512.635a.5.5 0 0 1 .446.25.5.5 0 0 1-.183.681.5.5 0 0 1-.684-.181.5.5 0 0 1 .184-.684.5.5 0 0 1 .238-.066zm1.366.365a.5.5 0 0 1 .446.25.5.5 0 0 1-.184.684.5.5 0 0 1-.682-.184.5.5 0 0 1 .181-.684.5.5 0 0 1 .239-.066zm-1.73 1a.5.5 0 0 1 .443.25.5.5 0 0 1-.181.684.5.5 0 0 1-.685-.184.5.5 0 0 1 .183-.684.5.5 0 0 1 .239-.066zm1.365.365a.5.5 0 0 1 .445.25.5.5 0 0 1-.184.684.5.5 0 0 1-.684-.184.5.5 0 0 1 .184-.68.5.5 0 0 1 .238-.07zM11 14a2 2 0 0 1 2 2 2 2 0 0 1-2 2 2 2 0 0 1-2-2 2 2 0 0 1 2-2z" fill="currentColor" color="#dfdfdf"/></svg>