<svg xmlns="http://www.w3.org/2000/svg" width="22" height="22"><g fill="currentColor"><path d="M5 3c-1.108 0-2 .892-2 2v12c0 1.108.892 2 2 2h12c1.108 0 2-.892 2-2V5c0-1.108-.892-2-2-2H5zm3.865 2.305l1.586 2.748A3 3 0 0 1 11 8a3 3 0 0 1 .547.053l1.588-2.748 1.73 1-1.586 2.75a3 3 0 0 1 .547.945H17v2h-3.176a3 3 0 0 1-.543.949l1.584 2.746-1.73 1-1.586-2.748A3 3 0 0 1 11 14a3 3 0 0 1-.547-.053l-1.588 2.748-1.73-1 1.586-2.75A3 3 0 0 1 8.174 12H5v-2h3.176a3 3 0 0 1 .543-.95L7.135 6.306l1.73-1z" color="#dfdfdf"/><path d="M11 9a2 2 0 0 0-2 2 2 2 0 0 0 2 2 2 2 0 0 0 2-2 2 2 0 0 0-2-2z" color="#5294e2"/></g></svg>