<svg xmlns="http://www.w3.org/2000/svg" width="22" height="22"><defs><style id="current-color-scheme" type="text/css"></style></defs><path d="M5 3c-1.108 0-2 .892-2 2v12c0 1.108.892 2 2 2h12c1.108 0 2-.892 2-2V5c0-1.108-.892-2-2-2H5zm3.865 2.305l1.586 2.748a3 3 0 0 1 .55 0 3 3 0 0 1 .546.053l1.588-2.748 1.73 1-1.586 2.75a3 3 0 0 1 .547.945H17v2h-3.176a3 3 0 0 1-.543.95l1.584 2.745-1.73 1L11.549 14a3 3 0 0 1-.55.1 3 3 0 0 1-.547-.053l-1.588 2.748-1.73-1 1.586-2.75a3 3 0 0 1-.547-.945H4.999v-2h3.176a3 3 0 0 1 .543-1L7.134 6.354l1.73-1zM11 9.005a2 2 0 0 0-2 2 2 2 0 0 0 2 2 2 2 0 0 0 2-2 2 2 0 0 0-2-2z" fill="currentColor" color="#dfdfdf"/></svg>