<svg width="22" height="22" version="1.1" xmlns="http://www.w3.org/2000/svg">
 <defs>
  <style id="current-color-scheme" type="text/css">
   .ColorScheme-Text { color:#dfdfdf; } .ColorScheme-Highlight { color:#4285f4; }
  </style>
 </defs>
 <g transform="translate(2.9999,1.9961)" style="fill:currentColor" class="ColorScheme-Text">
  <path d="m8 1.0039c-2.0523 0-4.1007 0.78182-5.6603 2.3415-3.1195 3.1195-3.1195 8.2012 0 11.32 0.3909 0.3909 1.0241 0.3909 1.4151 0 0.39091-0.3909 0.39091-1.0241 0-1.4151-2.3533-2.3533-2.3533-6.1372 0-8.4906 2.3533-2.3533 6.1372-2.3533 8.4906 0 2.3533 2.3533 2.3533 6.1372 0 8.4906-0.39091 0.3909-0.39091 1.0241 0 1.4151 0.3909 0.3909 1.0241 0.3909 1.4151 0 3.1195-3.1195 3.1195-8.2012 0-11.32-1.5597-1.5597-3.6081-2.3415-5.6603-2.3415zm-1.0007 2.9983v3.2758c-0.61764 0.35573-0.99681 1.0163-1.0007 1.7279 0 1.1063 0.89518 2.0015 2.0015 2.0015 1.1063 0 2.0015-0.89518 2.0015-2.0015 0-0.71536-0.38309-1.376-1.0007-1.7318v-3.2719l-1.0007-1.0007z" stroke-width="1.0007"/>
  <path d="m12 9c-0.0039 1.0586-0.42969 2.0742-1.1797 2.8203l2.1289 2.1289c1.3125-1.3125 2.0508-3.0938 2.0508-4.9492z" opacity=".35"/>
 </g>
</svg>
