<svg width="22" height="22" version="1.1" xmlns="http://www.w3.org/2000/svg">
 <defs>
  <style id="current-color-scheme" type="text/css">.ColorScheme-Text { color:#dfdfdf; } .ColorScheme-Highlight { color:#4285f4; }</style>
 </defs>
 <path class="ColorScheme-Text" d="m11 2a9 9 0 0 0-9 9 9 9 0 0 0 9 9 9 9 0 0 0 9-9 9 9 0 0 0-9-9zm0 2a7 7 0 0 1 7 7 7 7 0 0 1-7 7 7 7 0 0 1-7-7 7 7 0 0 1 7-7zm-1.4844 3.002c-0.94902 0.019851-1.949 0.14615-2.9668 0.4707-0.36032 0.081097-0.62032 0.60637-0.53125 1.0586 0.089085 0.45222 0.52735 0.73326 0.875 0.58789 4.1286-1.3165 8.1836 0.82422 8.1836 0.82422 0.32387 0.17204 0.73998-0.057993 0.875-0.4707 0.13501-0.41271-0.01988-0.92757-0.34375-1.0996 0 0-2.4886-1.3273-5.6855-1.3711-0.13321-0.00125-0.27067-0.0025-0.40625 0zm0.43555 3c-0.78913 0.0071-1.63 0.15914-2.5273 0.48828-0.27079 0.0709-0.47597 0.52076-0.41211 0.92969 0.063828 0.40889 0.35469 0.6553 0.61719 0.53125 3.7347-1.3699 6.6426 0.97461 6.6426 0.97461 0.23403 0.1854 0.55464 0.0046 0.67578-0.35352 0.12114-0.35816 0.02702-0.83413-0.20703-1.0195 0 0-1.8283-1.4589-4.4668-1.5508-0.10994-0.0041999-0.20954-1e-3 -0.32227 0zm0.31445 2.998c-0.60487-4e-3 -1.2663 0.09714-1.9766 0.31445-0.17984 0.03549-0.32328 0.31549-0.2832 0.56055 0.040092 0.245 0.23873 0.38943 0.41211 0.31445 3.0206-0.92415 5.0566 0.73438 5.0566 0.73438 0.14905 0.14411 0.39507 0.07692 0.48633-0.14062 0.09126-0.21756 0.01211-0.52148-0.15234-0.62891-1.1008-0.65029-2.2514-1.1293-3.543-1.1543z" fill="currentColor"/>
</svg>
