<svg xmlns="http://www.w3.org/2000/svg" width="22" height="22"><defs><style id="current-color-scheme" type="text/css"></style></defs><path d="M11 3a8 8 0 0 0-7.928 6.986L7.2 12.37A2.5 2.5 0 0 1 8.5 12a2.5 2.5 0 0 1 .412.035l2.098-3.27A3 3 0 0 1 14 6a3 3 0 0 1 3 3 3 3 0 0 1-3 3 3 3 0 0 1-.424-.033l-2.597 2.219A2.5 2.5 0 0 1 11 14.5 2.5 2.5 0 0 1 8.5 17 2.5 2.5 0 0 1 6 14.5a2.5 2.5 0 0 1 .05-.484L3.114 12.32A8 8 0 0 0 11 19a8 8 0 0 0 8-8 8 8 0 0 0-8-8zM3.072 9.986a8 8 0 0 0-.052.616 8 8 0 0 1 .052-.616zM14 7a2 2 0 0 0-2 2 2 2 0 0 0 2 2 2 2 0 0 0 2-2 2 2 0 0 0-2-2zm0 1a1 1 0 0 1 1 1 1 1 0 0 1-1 1 1 1 0 0 1-1-1 1 1 0 0 1 1-1zM3 11a8 8 0 0 0 .04.725A8 8 0 0 1 3 11zm5.46 2a1.5 1.5 0 0 0-.148.014l.188.107c.496.286.672.903.395 1.383s-.9.636-1.395.35l-.498-.288A1.5 1.5 0 0 0 8.5 16a1.5 1.5 0 0 0 1.5-1.5A1.5 1.5 0 0 0 8.5 13a1.5 1.5 0 0 0-.04 0z" fill="currentColor" color="#dfdfdf"/></svg>