<svg xmlns="http://www.w3.org/2000/svg" width="22" height="22"><defs><style id="current-color-scheme" type="text/css"></style></defs><path d="M9 2v2.189A6.5 6.5 0 0 0 4.18 9h2.086A4.5 4.5 0 0 1 10.5 6a4.5 4.5 0 0 1 4.232 3h2.077A6.5 6.5 0 0 0 12 4.19V2H9zm1.5 5A3.5 3.5 0 0 0 7 10.5a3.5 3.5 0 0 0 .041.5h5.908a2.5 2.5 0 0 1-2.449 2 2.5 2.5 0 0 1-1.998-1h-1.16a3.5 3.5 0 0 0 3.158 2 3.5 3.5 0 0 0 3.5-3.5 3.5 3.5 0 0 0-.041-.5H8.051A2.5 2.5 0 0 1 10.5 8a2.5 2.5 0 0 1 1.998 1h1.16A3.5 3.5 0 0 0 10.5 7zm-6.316 5A6.5 6.5 0 0 0 9 16.814V19h3v-2.191A6.5 6.5 0 0 0 16.816 12h-2.08a4.5 4.5 0 0 1-4.236 3 4.5 4.5 0 0 1-4.236-3h-2.08z" fill="currentColor" color="#dfdfdf"/></svg>