<svg xmlns="http://www.w3.org/2000/svg" width="22" height="22" version="1"><defs><style id="current-color-scheme" type="text/css"></style></defs><path d="M17.934 3.004c-.455-.028-.702.052-7.362 2.38-3.79 1.326-6.976 2.467-7.08 2.534-.3.196-.492.572-.492.965 0 .843.309 1.08 3.356 2.566 1.542.753 2.575 1.303 2.7 1.436.113.118.766 1.348 1.45 2.734 1.238 2.502 1.521 2.971 1.967 3.24.473.288 1.117.12 1.496-.39.178-.239 4.958-13.743 5.017-14.174a1.19 1.19 0 0 0-.355-1.047c-.189-.18-.304-.22-.697-.244zM6 14a2 2 0 0 0-2 2 2 2 0 0 0 2 2 2 2 0 0 0 2-2 2 2 0 0 0-2-2z" fill="currentColor" color="#dfdfdf"/></svg>