<svg xmlns="http://www.w3.org/2000/svg" width="22" height="22" version="1"><path d="M12.473 18.859c-.446-.27-.73-.738-1.968-3.24-.684-1.386-1.337-2.617-1.449-2.735-.125-.133-1.158-.682-2.7-1.435C3.31 9.962 3 9.726 3 8.883c0-.393.192-.77.493-.965.103-.068 3.289-1.208 7.079-2.533 6.66-2.33 6.907-2.41 7.362-2.382.394.024.508.064.697.245.284.27.411.645.356 1.046-.06.43-4.84 13.937-5.019 14.176-.379.51-1.022.678-1.496.39z" fill="currentColor" color="#dfdfdf"/><circle cx="6" cy="16" r="2" fill="currentColor" color="#5294e2"/></svg>