<svg xmlns="http://www.w3.org/2000/svg" width="22" height="22"><defs><style id="current-color-scheme" type="text/css"></style></defs><path d="M9.043 5a4.044 4.044 0 0 0-1.185.217c-1.691.575-2.975 2.229-3.352 4.299-1.11.268-2.062 1.257-2.39 2.666-.465 2 .502 4.078 2.155 4.64.027.008.055.013.082.02.228.099.472.158.73.158H17.07c.43 0 .824-.156 1.16-.415 1.34-.774 2.07-2.615 1.653-4.403-.307-1.321-1.162-2.278-2.182-2.613l-.027-.132c-.465-2-2.183-3.17-3.836-2.607-.317.109-.61.28-.876.495C12.052 5.843 10.59 4.959 9.044 5z" fill="currentColor" color="#dfdfdf"/></svg>