<svg xmlns="http://www.w3.org/2000/svg" width="22" height="22"><defs><style id="current-color-scheme" type="text/css"></style></defs><path d="M15 0l-4 1.709v8.09c0 .9-.253 1.707-.83 2.287A3.049 3.049 0 0 1 8 13c-1.724 0-3-1.428-3-3.201V4.673l-4 1.78v2.438c0 1.047.136 2.005.408 2.873.27.867.69 1.613 1.258 2.24a5.627 5.627 0 0 0 1.777 1.299l.135.043c.079.044.156.088.248.125.873.352 1.912.529 3.112.529l-.002-.004c1.22 0 2.272-.17 3.162-.516.89-.342 1.62-.826 2.197-1.453a5.955 5.955 0 0 0 1.285-2.252c.28-.874.418-1.837.418-2.886v-.182L15 8.699V0z" transform="translate(3 3)" fill="currentColor" color="#dfdfdf" id="MPATH5"/></svg>