<svg width="22" height="22" version="1.1" xmlns="http://www.w3.org/2000/svg">
 <defs>
  <style id="current-color-scheme" type="text/css">.ColorScheme-Text { color:#dfdfdf; } .ColorScheme-Highlight { color:#4285f4; }</style>
 </defs>
 <path class="ColorScheme-Text" d="m10.576 3.0117a8.006 8.011 0 0 0-5.2324 2.3242 8.006 8.011 0 0 0-1.2344 9.7305 8.006 8.011 0 0 0 1.2344 1.5977l4.2461-4.248-0.41602-0.41602h-2l-1.5879 1.5898a6.0045 6.0082 0 0 1 1.1738-6.8379 6.0045 6.0082 0 0 1 6.8262-1.166l1.4746-1.4766a8.006 8.011 0 0 0-4.4844-1.0977zm6.0898 2.3242-4.2461 4.248 0.41602 0.41602h2l1.5801-1.582a6.0045 6.0082 0 0 1-1.166 6.8301 6.0045 6.0082 0 0 1-6.8262 1.166l-1.4746 1.4766a8.006 8.011 0 0 0 9.7168-1.2266 8.006 8.011 0 0 0 1.2246-9.7207 8.006 8.011 0 0 0-1.2246-1.6074z" fill="currentColor" opacity=".35"/>
</svg>
