<svg width="22" height="22" version="1.1" xmlns="http://www.w3.org/2000/svg">
 <defs>
  <style id="current-color-scheme" type="text/css">.ColorScheme-Text { color:#dfdfdf; }</style>
 </defs>
 <path class="ColorScheme-Text" d="m5 4c-1.662 0-3 1.338-3 3v8c0 1.662 1.338 3 3 3h12c1.662 0 3-1.338 3-3v-8c0-1.662-1.338-3-3-3zm0 2h12c0.554 0 1 0.446 1 1v8c0 0.554-0.446 1-1 1h-12c-0.554 0-1-0.446-1-1v-8c0-0.554 0.446-1 1-1z" fill="currentColor"/>
 <rect class="ColorScheme-Text" x="6" y="13" width="10" height="2" rx="1" ry="1" fill="currentColor" opacity=".45"/>
</svg>
