<svg xmlns="http://www.w3.org/2000/svg" width="22" height="22"><defs><style id="current-color-scheme" type="text/css">.ColorScheme-Text{color:#dfdfdf}</style></defs><path opacity=".3" class="ColorScheme-Text" d="M16 5s2 0 2 2H4c0-2 1.969-2 1.969-2zm2 8c0 2-2 2-2 2h-1l-2 3-2-3H6c-1.108 0-2-.892-2-2z" fill="currentColor"/><path class="ColorScheme-Text" d="M6 8c-1.108 0-2 .892-2 2s.892 2 2 2 2-.892 2-2-.892-2-2-2zm5 0c-1.108 0-2 .892-2 2s.892 2 2 2 2-.892 2-2-.892-2-2-2zm5 0c-1.108 0-2 .892-2 2s.892 2 2 2 2-.892 2-2-.892-2-2-2z" fill="currentColor"/></svg>