<svg xmlns="http://www.w3.org/2000/svg" width="22" height="22"><defs><style id="current-color-scheme" type="text/css"></style></defs><path fill-rule="evenodd" d="M10.96 3l-.015-.002c-.687 0-1.156.194-1.224.46-.035.054-.077.105-.096.169L8.981 6.8c.965.7 3.066.7 4.031 0l-.644-3.174c-.004-.014-.016-.023-.02-.036 0-.002.003-.004.003-.005 0-.082-.056-.163-.144-.238a.703.703 0 0 0-.284-.186 2.948 2.948 0 0 0-.926-.166zM8.154 9.6l-.65 2.199H6.446a.7.7 0 0 0-.646.43l-1.75 5.8a.7.7 0 0 0 .646.968h12.6a.7.7 0 0 0 .645-.969l-1.75-5.799a.7.7 0 0 0-.645-.43H14.49L13.839 9.6c-1.924.766-3.541.962-5.685 0zm6.437 2.535l.576 1.95a.699.699 0 0 1-.304.794c-1.099.674-2.498 1.005-3.893 1.018-1.394.013-2.795-.288-3.874-1.04a.7.7 0 0 1-.27-.772l.55-1.86c.754.441 4.169 1.755 7.215-.09z" fill="currentColor" color="#dfdfdf"/></svg>