<?xml version="1.0" encoding="UTF-8"?>
<svg width="22" height="22" version="1.1" xmlns="http://www.w3.org/2000/svg" xmlns:cc="http://creativecommons.org/ns#" xmlns:dc="http://purl.org/dc/elements/1.1/" xmlns:rdf="http://www.w3.org/1999/02/22-rdf-syntax-ns#">
 <metadata>
  <rdf:RDF>
   <cc:Work rdf:about="">
    <dc:format>image/svg+xml</dc:format>
    <dc:type rdf:resource="http://purl.org/dc/dcmitype/StillImage"/>
    <dc:title/>
   </cc:Work>
  </rdf:RDF>
 </metadata>
 <g fill="#dfdfdf">
  <path d="M11 3.003c-2.071 0-3.835 1.268-4.594 3.062A3.981 3.981 0 0 0 3 10.003a4 4 0 0 0 4 4h2v-2.5c0-.831.669-1.5 1.5-1.5.83 0 1.5.669 1.5 1.5v2.5h3.5a3.5 3.5 0 0 0 3.5-3.5 3.49 3.49 0 0 0-3.094-3.469A5.011 5.011 0 0 0 11 3.003z" color="#dfdfdf"/>
  <path d="M10.344 11a.515.515 0 0 0-.344.5v3.78a.505.505 0 0 0-.031.094L9.344 16H7.28l-.125.157-1 1c-.257.157-.305.567-.092.78.213.213.623.164.78-.093L7.687 17H9v1.5a.52.52 0 0 0 .5.508.52.52 0 0 0 .5-.508v-1.812l.687-.688h2.125l.75.75-1.406 1.407c-.257.157-.305.567-.092.78.213.213.622.164.78-.093l1.406-1.406 1.406 1.406c.157.257.567.306.78.093.213-.213.165-.623-.092-.78l-3-3-.125-.157h-2.22v-3.5c.006-.295-.302-.555-.593-.5a.651.651 0 0 0-.062 0z" color="#5294e2"/>
 </g>
</svg>
