<svg xmlns="http://www.w3.org/2000/svg" width="22" height="22"><defs><style id="current-color-scheme" type="text/css"></style></defs><path d="M10 3.002l-.5 1.031c.162-.013.335-.031.5-.031h.5l-.5-1zm0 2a5 5 0 0 0-5 5c0 .47.079.917.201 1.346a4.094 4.094 0 0 1 1.914-1.123c.824-1.406 2.24-2.442 3.983-2.442 1.642 0 3.059.863 3.898 2.147A4.998 4.998 0 0 0 10 5.002zm-4.938.062l.344 1.063c.22-.26.46-.5.719-.719l-1.063-.344zm9.875 0l-1.093.375h-.063c.14.111.275.226.406.344.132.119.258.242.376.375l.374-1.094zm-3.84 3.72c-1.553 0-2.875.95-3.445 2.296a2.986 2.986 0 0 0-2.554 2.953 3 3 0 0 0 3 3h6.375a2.625 2.625 0 0 0 2.625-2.625 2.618 2.618 0 0 0-2.32-2.601 3.759 3.759 0 0 0-3.68-3.024zM4 9.501l-1 .5 1.031.5c-.015-.17-.031-.326-.031-.5 0-.028-.002-.084 0-.156.006-.116.022-.233.031-.344H4zm11.969 0c.015.17.031.326.031.5 0 .027.002.084 0 .156-.006.116-.022.232-.031.344H16l1-.5-1.031-.5z" fill="currentColor" color="#dfdfdf"/></svg>