<svg width="22" height="22" version="1.1" xmlns="http://www.w3.org/2000/svg">
 <defs>
  <style id="current-color-scheme" type="text/css">
   .ColorScheme-Text { color:#dfdfdf; } .ColorScheme-Highlight { color:#4285f4; }
  </style>
 </defs>
 <path d="m11.001 3-0.5 1.0293c0.17-0.01 0.33-0.029297 0.5-0.029297s0.33 0.019297 0.5 0.029297zm0 2c-3.31 0-6 2.68-6 6 0 3.31 2.69 6 6 6s6-2.69 6-6c0-3.32-2.69-6-6-6zm-5.6602 0.33984 0.38086 1.0898c0.22-0.25 0.46875-0.49875 0.71875-0.71875l-1.0996-0.37109zm11.32 0-1.0996 0.37109c0.25 0.22 0.49875 0.46875 0.71875 0.71875l0.38086-1.0898zm-5.6602 1.6602a4 4 0 0 1 4 4 4 4 0 0 1-4 4 4 4 0 0 1-4-4 4 4 0 0 1 4-4zm-6.9707 3.5-1.0293 0.5 1.0293 0.5c-0.01-0.17-0.029297-0.34-0.029297-0.5 0-0.17 0.019297-0.34 0.029297-0.5zm13.941 0c0.01 0.16 0.0293 0.33 0.0293 0.5 0 0.16-0.0193 0.33-0.0293 0.5l1.0293-0.5zm-12.25 5.0605-0.38086 1.0898 1.0996-0.37109c-0.25-0.22-0.49875-0.46875-0.71875-0.71875zm10.559 0c-0.22 0.25-0.46875 0.49875-0.71875 0.71875l1.0996 0.37109-0.38086-1.0898zm-5.7793 2.4004 0.5 1.0391 0.5-1.0391c-0.17 0.02-0.33 0.03906-0.5 0.03906s-0.33-0.01906-0.5-0.03906z" style="fill:currentColor" class="ColorScheme-Text"/>
</svg>
