<?xml version="1.0" encoding="UTF-8"?>
<svg width="22" height="22" version="1.1" xmlns="http://www.w3.org/2000/svg" xmlns:cc="http://creativecommons.org/ns#" xmlns:dc="http://purl.org/dc/elements/1.1/" xmlns:rdf="http://www.w3.org/1999/02/22-rdf-syntax-ns#">
 <metadata>
  <rdf:RDF>
   <cc:Work rdf:about="">
    <dc:format>image/svg+xml</dc:format>
    <dc:type rdf:resource="http://purl.org/dc/dcmitype/StillImage"/>
    <dc:title/>
   </cc:Work>
  </rdf:RDF>
 </metadata>
 <g fill="#dfdfdf">
  <path d="M11 4C8.929 4 7.165 5.268 6.406 7.063A3.981 3.981 0 0 0 3 11a4 4 0 0 0 4 4h1v-1a1 1 0 0 1 .293-.707L10 11.586V11H8a1 1 0 0 1-1-1V8a1 1 0 0 1 1-1h5a1 1 0 0 1 1 1v4a1 1 0 0 1-.293.709L12 14.416V15h3.5a3.5 3.5 0 0 0 3.5-3.5 3.49 3.49 0 0 0-3.094-3.469A5.011 5.011 0 0 0 11 4z" color="#dfdfdf" opacity=".3"/>
  <path d="M8 8v2h3v2l-2 2v2h2v-2l2-2V8zm1 9v2h2v-2z" color="#5294e2"/>
 </g>
</svg>
