<svg xmlns="http://www.w3.org/2000/svg" width="22" height="22"><defs><style id="current-color-scheme" type="text/css"></style></defs><path d="M11 4C8.929 4 7.165 5.268 6.406 7.063A3.981 3.981 0 0 0 3 11a4 4 0 0 0 4 4h.406a3.68 3.68 0 0 1 2.125-1.688C10.151 11.99 11.506 10.974 13 11c1.908-.03 3.582 1.485 3.875 3.344.143.045.27.09.406.156a3.471 3.471 0 0 0 1.719-3 3.49 3.49 0 0 0-3.094-3.469A5.011 5.011 0 0 0 11 4zm2 8c-1.312 0-2.405.858-2.813 2.031A2.494 2.494 0 0 0 10.5 19H16a2 2 0 1 0 0-4 3 3 0 0 0-3-3z" fill="currentColor" color="#dfdfdf"/></svg>