<svg width="22" height="22" version="1.1" xmlns="http://www.w3.org/2000/svg">
 <defs>
  <style id="current-color-scheme" type="text/css">
   .ColorScheme-Text { color:#dfdfdf; } .ColorScheme-Highlight { color:#4285f4; }
  </style>
 </defs>
 <path d="m5.9552 15v1.1328l-0.98242-0.5664-0.5 0.86718 0.98047 0.56641-0.98047 0.56641 0.5 0.86718 0.98242-0.5664v1.1328h1v-1.1328l0.98242 0.5664 0.5-0.86718-0.98047-0.56641 0.98047-0.56641-0.5-0.86718-0.98242 0.5664v-1.1328z" style="fill:currentColor" class="ColorScheme-Text" opacity=".35"/>
 <path d="m10.955 15v1.1328l-0.98242-0.5664-0.5 0.86718 0.98047 0.56641-0.98047 0.56641 0.5 0.86718 0.98242-0.5664v1.1328h1v-1.1328l0.98242 0.5664 0.5-0.86718-0.98047-0.56641 0.98047-0.56641-0.5-0.86718-0.98242 0.5664v-1.1328z" style="fill:currentColor" class="ColorScheme-Text" opacity=".35"/>
 <path d="m15.955 15v1.1328l-0.98242-0.5664-0.5 0.86718 0.98047 0.56641-0.98047 0.56641 0.5 0.86718 0.98242-0.5664v1.1328h1v-1.1328l0.98242 0.5664 0.5-0.86718-0.98047-0.56641 0.98047-0.56641-0.5-0.86718-0.98242 0.5664v-1.1328z" style="fill:currentColor" class="ColorScheme-Text" opacity=".35"/>
 <path d="m11.555 3c-1.745 0.00283-3.219 0.88811-4.2383 2.1777 0.032952 0.094999 0.051388 0.19442 0.054687 0.29492 0.49374-0.43599 1.2668-0.28389 1.5586 0.30664l0.074219 0.32227c0.66791-0.68589 1.562-1.1006 2.5566-1.1016h0.0039c1.998 0.0014 3.6325 1.6653 3.7285 3.8125v0.015625l0.05664 0.75195 0.67774 0.28906c0.5896 0.25166 0.97461 0.83437 0.97461 1.4941-4e-6 0.9265-0.69663 1.6367-1.5195 1.6367h-8.125c-1.2868 0-2.3555-1.1055-2.3555-2.5234 0-0.88714 0.42608-1.6453 1.0586-2.0898-0.34992-0.16284-0.57491-0.51249-0.57811-0.89844-0.34049-0.00127-0.65695-0.17569-0.83984-0.46289-0.99975 0.81241-1.6426 2.0509-1.6426 3.4512 0 2.4525 1.9306 4.5234 4.3574 4.5234h8.125c1.9632 0 3.5176-1.6723 3.5176-3.6367 0-1.2388-0.71478-2.2929-1.7344-2.9531l-0.06055-0.050781-0.04297-0.18164c-0.3954-2.8718-2.6837-5.1757-5.5996-5.1777z" style="fill:currentColor" class="ColorScheme-Text"/>
 <path d="m5.4591 4.5 0.18359 0.81641 0.82812 0.19531-0.83008 0.16797-0.16016 0.82031-0.18945-0.83008-0.82031-0.18164 0.81641-0.16211zm2.4961 1.5 0.27734 1.2246 1.2383 0.29102-1.2441 0.25391-0.24023 1.2305-0.28516-1.2441-1.2305-0.27148 1.2246-0.24609z" style="fill:currentColor" class="ColorScheme-Text"/>
</svg>
