<svg width="22" height="22" version="1.1" xmlns="http://www.w3.org/2000/svg">
 <defs>
  <style id="current-color-scheme" type="text/css">
   .ColorScheme-Text { color:#dfdfdf; } .ColorScheme-Highlight { color:#4285f4; }
  </style>
 </defs>
 <path d="m11.555 3c-2.0961 0.0034-3.8046 1.2776-4.7988 3l-0.066406 0.078125-0.1543 0.044922c-2.0147 0.41479-3.5352 2.1952-3.5352 4.3535 0 2.4525 1.9306 4.5234 4.3574 4.5234h1.5977v-2h-1.5977c-1.2868 0-2.3555-1.1055-2.3555-2.5234 0-1.3542 0.99177-2.4161 2.1973-2.5039l0.70898-0.050781 0.30273-0.65234v-0.00195c0.6204-1.3579 1.875-2.2662 3.3496-2.2676h0.0039c1.998 0.0014 3.6325 1.6653 3.7285 3.8125v0.015625l0.05664 0.75195 0.67774 0.28906c0.5896 0.25166 0.97461 0.83437 0.97461 1.4941 0 0.9265-0.69663 1.6367-1.5195 1.6367h-2.5273v2h2.5273c1.9632 0 3.5176-1.6723 3.5176-3.6367 0-1.2388-0.71478-2.2929-1.7344-2.9531l-0.06054-0.050781-0.04297-0.18164c-0.3954-2.8718-2.6837-5.1757-5.5996-5.1777h-0.0078z" style="fill:currentColor" class="ColorScheme-Text"/>
 <path d="m10.085 14.507v-0.20781q0-0.77929 0.20781-1.1949 0.20781-0.46757 0.93514-1.091t0.93514-0.9871q0.20781-0.41562 0.20781-1.0391t-0.41562-0.9871q-0.36367-0.36367-1.091-0.36367-0.77929 0-1.9223 0.51953l-0.41562-0.93515q1.2988-0.62343 2.3379-0.62343 1.2469 0 1.9223 0.67538 0.72734 0.62343 0.72734 1.7144 0 0.72734-0.25976 1.2469-0.25976 0.51952-1.091 1.2469-0.77929 0.72734-0.9871 1.039-0.15586 0.31172-0.15586 0.88319v0.1039zm1.3508 1.9742q0 0.46757-0.20781 0.72734-0.20781 0.20781-0.62343 0.20781t-0.62343-0.20781q-0.20781-0.25976-0.20781-0.72734 0-0.46757 0.20781-0.67538t0.62343-0.20781 0.62343 0.20781 0.20781 0.67538z" fill="#ff5555"/>
</svg>
