<svg xmlns="http://www.w3.org/2000/svg" width="22" height="22"><defs><style id="current-color-scheme" type="text/css"></style></defs><path d="M10.75 4.031c-2.763.102-5.309 1.805-6.313 4.563a7.026 7.026 0 0 0-.158 4.316c.404-1.318 1.485-2.333 2.838-2.683.17-.29.372-.56.59-.813.01-.71.13-1.428.387-2.133.514-1.412 1.474-2.508 2.656-3.25zm.35 4.754c-1.554 0-2.876.951-3.446 2.297A2.986 2.986 0 0 0 5.1 14.035a3 3 0 0 0 3 3h6.375A2.625 2.625 0 0 0 17.1 14.41a2.618 2.618 0 0 0-2.32-2.601 3.759 3.759 0 0 0-3.68-3.024z" fill="currentColor" color="#dfdfdf"/></svg>