<svg xmlns="http://www.w3.org/2000/svg" width="22" height="22"><defs><style id="current-color-scheme" type="text/css"></style></defs><path d="M11 3l-.5 1.031c.165-.011.332-.03.5-.03.168-.001.335.019.5.03L11 3zm0 2a6 6 0 1 0 0 12 6 6 0 0 0 0-12zm-5.656.344l.375 1.093c.218-.25.467-.5.718-.718l-1.093-.375zm11.312 0l-1.094.375c.252.218.501.467.72.718l.374-1.093zM4.031 10.5L3 11l1.031.5C4.02 11.335 4 11.168 4 11c0-.168.02-.335.031-.5zm13.938 0c.011.165.03.332.03.5 0 .168-.019.335-.03.5L19 11l-1.031-.5zm-12.25 5.063l-.375 1.093 1.093-.375a7.326 7.326 0 0 1-.718-.718zm10.562 0c-.218.25-.467.5-.719.718l1.094.375-.375-1.093zM10.5 17.968L11 19l.5-1.031c-.165.011-.332.03-.5.03-.168 0-.335-.019-.5-.03z" fill="currentColor" color="#dfdfdf"/></svg>