<svg xmlns="http://www.w3.org/2000/svg" width="22" height="22"><defs><style id="current-color-scheme" type="text/css"></style></defs><path d="M11 3.004c-2.071 0-3.835 1.268-4.594 3.062A3.981 3.981 0 0 0 3 10.004a3.982 3.982 0 0 0 3.188 3.906c.764-.778 1.52-1.561 2.312-2.312.573.538 1.133 1.099 1.688 1.656.242-.07.382-.846.718-1.094.855-.868 1.71-1.725 2.594-2.562.666.624 1.291 1.26 1.938 1.906.597.571 1.227 1.204 1.437 2.031.016.051.018.105.031.156A3.468 3.468 0 0 0 19 10.504a3.49 3.49 0 0 0-3.094-3.469A5.011 5.011 0 0 0 11 3.004zM13.5 11l-.344.344-1.406 1.406c-.453.453-.75 1.063-.75 1.75 0 1.375 1.125 2.5 2.5 2.5s2.5-1.125 2.5-2.5c0-.687-.297-1.297-.75-1.75l-1.406-1.406L13.5 11zm-5 2l-.344.344L6.75 14.75c-.453.453-.75 1.063-.75 1.75C6 17.875 7.125 19 8.5 19s2.5-1.125 2.5-2.5c0-.687-.297-1.297-.75-1.75l-1.406-1.406L8.5 13z" fill="currentColor" color="#dfdfdf"/></svg>