<svg xmlns="http://www.w3.org/2000/svg" width="22" height="22"><g fill="currentColor"><path d="M11 3.003c-2.071 0-3.835 1.268-4.594 3.063A3.981 3.981 0 0 0 3 10.003a3.982 3.982 0 0 0 3.187 3.907c.764-.779 1.521-1.562 2.313-2.313.573.538 1.133 1.1 1.687 1.656.243-.069.383-.846.719-1.093.854-.868 1.71-1.725 2.594-2.563.666.625 1.291 1.261 1.937 1.906.598.572 1.228 1.204 1.438 2.032.016.05.018.104.031.156A3.468 3.468 0 0 0 19 10.503a3.49 3.49 0 0 0-3.094-3.468A5.011 5.011 0 0 0 11 3.003zm2.5 9.438c-.085.083-.165.167-.25.25-.397.416-.9.783-1.125 1.312h2.781a1.308 1.308 0 0 0-.094-.187c-.373-.513-.879-.913-1.312-1.375z" color="#dfdfdf"/><path d="M13.5 11l-.344.344-1.406 1.406c-.453.453-.75 1.063-.75 1.75 0 1.375 1.125 2.5 2.5 2.5s2.5-1.125 2.5-2.5c0-.687-.297-1.297-.75-1.75l-1.406-1.406zm-5 2l-.344.344L6.75 14.75c-.453.453-.75 1.063-.75 1.75C6 17.875 7.125 19 8.5 19s2.5-1.125 2.5-2.5c0-.687-.297-1.297-.75-1.75l-1.406-1.406z" color="#5294e2"/></g></svg>