<svg xmlns="http://www.w3.org/2000/svg" width="22" height="22"><defs><style id="current-color-scheme" type="text/css"></style></defs><path d="M11.043 3a1.776 1.82 0 0 0-.932.245L4.89 6.335A1.776 1.82 0 0 0 4 7.91v6.18a1.776 1.82 0 0 0 .889 1.576l5.222 3.09a1.776 1.82 0 0 0 1.778 0l5.222-3.09A1.776 1.82 0 0 0 18 14.09V7.91a1.776 1.82 0 0 0-.889-1.576l-5.222-3.09a1.776 1.82 0 0 0-.846-.242zM8.885 7c.835 0 1.588.427 2.115 1.073C11.527 7.427 12.28 7 13.115 7 14.71 7 16 8.47 16 10.283c0 .488-.083.955-.209 1.405-.07.247.99-2.218-.227.625C14.348 15.156 11 17 11 17s-3.348-1.844-4.564-4.687c-.107-.223-.227-.625-.227-.625A4.935 4.935 0 0 1 6 10.283C6 8.47 7.291 7 8.885 7z" fill="currentColor" color="#dfdfdf"/></svg>