<svg xmlns="http://www.w3.org/2000/svg" width="22" height="22"><path d="M10 3a7 6.5 0 0 0-7 6.5 7 6.5 0 0 0 2 4.547V17l1.32-1.98a7 6.5 0 0 0 2.262.834A5.081 5.081 0 0 1 8 13.5c0-2.44 1.723-4.455 4.049-5.193A1 1 0 0 1 12 8a1 1 0 0 1 1-1 1 1 0 0 1 1 1c1.061 0 2.067.262 2.943.717A7 6.5 0 0 0 10 3zM7 7a1 1 0 0 1 1 1 1 1 0 0 1-1 1 1 1 0 0 1-1-1 1 1 0 0 1 1-1zm7 2a5 4.5 0 0 0-5 4.5 5 4.5 0 0 0 5 4.5 5 4.5 0 0 0 1.01-.096C15.062 16.304 16.388 15 18 15c.231 0 .455.031.672.082A5 4.5 0 0 0 19 13.5 5 4.5 0 0 0 14 9zm-2 2a1 1 0 0 1 1 1 1 1 0 0 1-1 1 1 1 0 0 1-1-1 1 1 0 0 1 1-1zm4 0a1 1 0 0 1 1 1 1 1 0 0 1-1 1 1 1 0 0 1-1-1 1 1 0 0 1 1-1zm2 6a.983.983 0 0 0-.926.613L18 19v-2z" fill="currentColor" color="#dfdfdf"/><circle cx="18" cy="18" r="2" fill="currentColor" color="#5294e2"/></svg>