<svg xmlns="http://www.w3.org/2000/svg" width="22" height="22"><defs><style id="current-color-scheme" type="text/css">.ColorScheme-Highlight{color:#5294e2}</style></defs><path class="ColorScheme-Highlight" d="M11 3c-.193 0-.383.01-.572.023l-.07.004a7.975 7.975 0 0 0-6.503 4.375c-.079.158-.16.316-.228.479a7.274 7.274 0 0 0-.615 2.682l-.004.091c-.003.09-.007.18-.006.27L3 11c0 .93.166 1.82.455 2.648.117.372.25.747.412 1.127l.033.082A3 3 0 0 1 9 17a3 3 0 0 1-.486 1.633c.092.028.158.044.267.078.525.165 1.122.253 1.797.277l.086.004c.092.003.182.008.277.008H11c.223 0 .443-.012.662-.03 1.978-.14 3.567-.87 4.996-2.298a7.93 7.93 0 0 0 2.264-4.569c.012-.086.024-.172.033-.26.02-.186.03-.375.037-.566.002-.048.004-.094.004-.142 0-.045.004-.09.004-.135a7.98 7.98 0 0 0-7.78-7.994c-.033-.002-.067-.002-.1-.002-.04 0-.08-.004-.12-.004zM8.5 7A1.5 1.5 0 0 1 10 8.5C10 9 10 10 9 10c0 1 2.032 2.946 3 3 0-1 1-1 1.5-1a1.5 1.5 0 0 1 0 3h-.56c-.297-.006-.642-.116-1.127-.293-1.623-.592-2.75-1.542-3.905-3.293-.672-1.02-.904-1.633-.908-2.396V8.5A1.5 1.5 0 0 1 8.5 7z" fill="currentColor"/><circle class="ColorScheme-Highlight" cx="6" cy="17" r="2" fill="currentColor"/></svg>