<svg xmlns="http://www.w3.org/2000/svg" width="22" height="22" version="1"><path d="M11 3c-.193 0-.383.01-.572.023l-.071.004a7.975 7.975 0 0 0-6.501 4.375c-.08.158-.16.316-.229.479a7.273 7.273 0 0 0-.615 2.681l-.004.092c-.003.09-.007.179-.006.27L3 11c0 .93.166 1.819.455 2.648.068.216.157.435.238.653A3 3 0 0 1 5 14a3 3 0 0 1 3 3 3 3 0 0 1-.375 1.451c.319.013.628.094 1.156.26.525.165 1.122.253 1.797.277l.086.004c.092.003.182.008.277.008H11c.223 0 .443-.012.662-.029 1.978-.141 3.566-.872 4.996-2.299a7.93 7.93 0 0 0 2.264-4.568c.012-.087.024-.173.033-.26a8.135 8.135 0 0 0 .041-.711c.001-.045.004-.088.004-.133a7.98 7.98 0 0 0-7.779-7.994l-.102-.002C11.079 3.004 11.04 3 11 3zM6 9a2 2 0 0 1 2 2 2 2 0 0 1-2 2 2 2 0 0 1-2-2 2 2 0 0 1 2-2zm5 0a2 2 0 0 1 2 2 2 2 0 0 1-2 2 2 2 0 0 1-2-2 2 2 0 0 1 2-2zm5 0a2 2 0 0 1 2 2 2 2 0 0 1-2 2 2 2 0 0 1-2-2 2 2 0 0 1 2-2z" fill="currentColor" color="#dfdfdf"/><circle cx="5" cy="17" r="2" fill="currentColor" color="#5294e2"/></svg>