<svg xmlns="http://www.w3.org/2000/svg" width="22" height="22" version="1"><defs><style id="current-color-scheme" type="text/css">.ColorScheme-Text{color:#dfdfdf}</style></defs><path class="ColorScheme-Text" d="M3.223 1.807L1.807 3.223l16.97 16.97 1.416-1.416-16.97-16.97zM11 3a4 4 0 0 0-3.352 1.82L9 6.172V6h1V5h2v1h1v2h-1v1h-.172l1.35 1.35A4 4 0 0 0 15 7a4 4 0 0 0-4-4zm-.795 10.033C3.022 13.375 3 18.145 3 18.145V19h13.172l-5.967-5.967zM-8.984 11.025l1.414 1.414-1.793 1.793h5.172v2h-5.172l1.793 1.793-1.414 1.414-4.207-4.207z" fill="currentColor"/></svg>