<svg xmlns="http://www.w3.org/2000/svg" width="22" height="22"><defs><style id="current-color-scheme" type="text/css"></style></defs><path d="M6.53 3A3.515 3.515 0 0 0 3 6.532v8.937A3.514 3.514 0 0 0 6.53 19h8.94A3.514 3.514 0 0 0 19 15.47V6.531A3.515 3.515 0 0 0 15.47 3zM5.002 5.001L10 5v.47c-.129.012-.21 0-.373 0-.54.036-.938.104-.938.406 0 .266.082.515.28.781l2.501 3.873 2.655-3.904c.176-.278.25-.53.25-.688 0-.23-.187-.383-.375-.468h-1V5h4v.47c-.446.036-.827.065-1.156.343-.317.266-.753.796-1.28 1.594L12 11.47V16c.211.193 1.213.52 2 .531v.47H8v-.471c.799-.036 1.812-.337 2-.53v-4.56L7.875 8.188C6.96 6.883 6.356 6.103 6.063 5.813c-.293-.29-.6-.343-1.062-.343V5z" fill="currentColor" color="#dfdfdf"/></svg>