<svg xmlns="http://www.w3.org/2000/svg" width="22" height="22" version="1"><defs><style id="current-color-scheme" type="text/css"></style></defs><path d="M10.092 5.047c-3.556 0-2.729 3.248-4.549 4.226-.063.036-.098.069-.154.104 1.2-.715 2.68-1.312 4.252-1.717a17.347 17.347 0 0 1 4.021-.559c-1.2-.34-1.332-2.054-3.57-2.054zm3.875 2.955a17.347 17.347 0 0 0-3.926.558c-4.386 1.129-7.513 3.584-6.982 5.483.305 1.085 1.777 1.801 3.97 1.931 0-.008-.003-.015-.004-.023-.118-1.027.533-1.92 1.297-2.526.764-.605 1.747-1.045 2.85-1.279 1.103-.234 2.136-.223 3 .037.812.245 1.576.778 1.764 1.694 2.198-1.233 3.338-2.719 3.007-3.92-.35-1.258-2.258-2.008-4.976-1.955zM12.662 13a1.859 3.577 76.001 0 0-1.377.142 1.859 3.577 76.001 0 0-3.28 2.6 1.859 3.577 76.001 0 0 3.71 1.115 1.859 3.577 76.001 0 0 3.277-2.6A1.859 3.577 76.001 0 0 12.662 13z" fill="currentColor" color="#dfdfdf"/></svg>