<svg xmlns="http://www.w3.org/2000/svg" width="22" height="22"><defs><style id="current-color-scheme" type="text/css"></style></defs><path d="M10.998 4s-3.779 0-6.297.19c-.352.043-1.118.047-1.803.79-.54.567-.714 1.852-.714 1.852s-.178 1.511-.18 3.022L2 12.14c-.003 1.51.18 3.021.18 3.021s.175 1.285.714 1.852c.685.743 1.584.72 1.985.799 1.44.143 6.119.187 6.119.187s3.78-.01 6.299-.195c.352-.044 1.12-.048 1.805-.791.54-.567.714-1.852.714-1.852s.177-1.51.18-3.021L20 9.854c.003-1.511-.18-3.022-.18-3.022s-.175-1.285-.715-1.851c-.684-.744-1.452-.748-1.804-.791C14.782 4 11.006 4 11.006 4h-.008zM8 7l6 4.014L8 15V7z" fill="currentColor" color="#dfdfdf"/></svg>