<svg xmlns="http://www.w3.org/2000/svg" width="22" height="22"><defs><style id="current-color-scheme" type="text/css">.ColorScheme-Text{color:#dfdfdf}</style></defs><path class="ColorScheme-Text" d="M10.998 4s-3.779 0-6.297.19c-.352.043-1.118.047-1.803.79-.54.567-.714 1.852-.714 1.852s-.178 1.511-.18 3.022L2 12.14c-.003 1.51.18 3.021.18 3.021s.175 1.285.714 1.852c.685.743 1.584.721 1.985.798 1.44.144 6.119.188 6.119.188s1.211-.015 2.408-.039A4.942 4.942 0 0 1 13 16c0-2.75 2.25-5 5-5 .71 0 1.385.154 1.998.424L20 9.854c.003-1.511-.18-3.022-.18-3.022s-.175-1.285-.715-1.852c-.684-.743-1.452-.747-1.804-.79C14.783 4 11.006 4 11.006 4h-.008zM8 7l6 4.014L8 15V7z" fill="currentColor"/><path class="ColorScheme-Text" d="M19.035 12.1a4 4 0 1 0-2.07 7.728 4 4 0 0 0 2.07-7.728zm-.259.966a3 3 0 0 1 2.121 3.674l-.965-.259a2 2 0 0 0-1.415-2.45l.26-.965zm-3.674 2.121l.966.26a2 2 0 0 0 1.414 2.449l-.259.965a3 3 0 0 1-2.121-3.674z" fill="currentColor"/></svg>