<svg xmlns="http://www.w3.org/2000/svg" width="22" height="22"><defs><style id="current-color-scheme" type="text/css">.ColorScheme-Text{color:#dfdfdf}</style></defs><path class="ColorScheme-Text" d="M10.998 4s-3.779 0-6.297.19c-.352.043-1.118.047-1.803.79-.54.567-.714 1.852-.714 1.852s-.178 1.511-.18 3.022L2 12.14c-.003 1.51.18 3.021.18 3.021s.175 1.286.714 1.852c.685.744 1.584.721 1.985.799 1.44.143 6.119.187 6.119.187s2.766-.015 5.15-.135L15.2 16.6A1 1 0 0 1 16 15h1v-3.119c0-.407.087-.79.301-1.143.213-.353.642-.738 1.232-.738h.934c.199 0 .373.054.533.125v-.271c.003-1.51-.18-3.022-.18-3.022s-.175-1.285-.715-1.851c-.684-.744-1.452-.748-1.804-.791-2.518-.189-6.295-.19-6.295-.19zM8 7l6 4.014L8 15z" fill="currentColor"/><path class="ColorScheme-Text" d="M18.533 11c-.295 0-.533.392-.533.881V16h-2l1.5 2 1.5 2 1.5-2 1.5-2h-2v-4.119c0-.489-.238-.881-.533-.881h-.934z" fill="currentColor"/></svg>