<svg xmlns="http://www.w3.org/2000/svg" width="22" height="22"><defs><style id="current-color-scheme" type="text/css">.ColorScheme-Text{color:#dfdfdf}</style></defs><path class="ColorScheme-Text" d="M4.885 3C4.395 3 4 3.357 4 3.8v14.4c0 .443.395.8.885.8H7V3z" opacity=".3" fill="currentColor"/><path class="ColorScheme-Text" d="M7 3v16h10.125c.485 0 .875-.358.875-.8V3.8c0-.442-.39-.8-.875-.8H7zm2.5 3h6a.5.5 0 0 1 .416.777L10.434 15H15.5a.5.5 0 1 1 0 1h-6a.5.5 0 0 1-.416-.777L14.566 7H9.5a.5.5 0 1 1 0-1z" fill="currentColor"/></svg>