<svg width="22" height="22" version="1.1" xmlns="http://www.w3.org/2000/svg">
 <defs>
  <style id="current-color-scheme" type="text/css">.ColorScheme-Text { color:#727272; } .ColorScheme-Highlight { color:#5294e2; }</style>
 </defs>
 <path class="ColorScheme-Text" d="m10.995 2-2.5 4h1.5v6h-3.995v-1.2715c0.61771-0.35663 0.99874-1.0152 1-1.7285 0-1.1046-0.89543-2-2-2s-2 0.89543-2 2c5.6e-4 0.71397 0.38169 1.3735 1 1.7305v1.2695c0 2 2 2 2 2h3.995v2.2715c-0.61771 0.35663-0.99874 1.0152-1 1.7285 0 1.1046 0.89543 2 2 2 1.1046 0 2-0.89543 2-2-5.6e-4 -0.71397-0.38169-1.3735-1-1.7305v-2.2695h4.005s2 0 2-2v-1s1.125-0.1875 1-1v-2c0.125-1.125-1-1-1-1h-2c-1.0625 0-1 1-1 1v2c0 1 1 1 1 1v1h-4.005v-6h1.5z" fill="currentColor"/>
</svg>
