<svg width="22" height="22" version="1.1" viewBox="0 0 22 22" xmlns="http://www.w3.org/2000/svg">
 <defs>
  <style id="current-color-scheme" type="text/css">.ColorScheme-Text { color:#727272; } .ColorScheme-Highlight { color:#5294e2; }</style>
 </defs>
 <path d="m6 4c-1 0-1 1-1 1v12s0 1 1 1h10s1 0 1-1v-12s0-1-1-1zm5 2c5.3333 0 5.3333 8 0 8h-4v-4c0-2.2091 1.7909-4 4-4zm-2e-3 1a2 2 0 0 0-0.20698 0.011719 2 2 0 0 0-1.793 1.9883l0.0019531 1h-1v3h3a3 3 0 0 0 2.998-2.9473v-0.052734h-1v-1a2 2 0 0 0-1.8594-1.9941 2 2 0 0 0-0.14062-0.005859zm0 1a1 1 0 0 1 1 1v1h-2v-1a1 1 0 0 1 1-1z" class="ColorScheme-Text" fill="currentColor"/>
</svg>
