<?xml version="1.0" encoding="UTF-8" standalone="no"?>
<!-- Created with Inkscape (http://www.inkscape.org/) -->

<svg
   xmlns:dc="http://purl.org/dc/elements/1.1/"
   xmlns:cc="http://creativecommons.org/ns#"
   xmlns:rdf="http://www.w3.org/1999/02/22-rdf-syntax-ns#"
   xmlns:svg="http://www.w3.org/2000/svg"
   xmlns="http://www.w3.org/2000/svg"
   xmlns:sodipodi="http://sodipodi.sourceforge.net/DTD/sodipodi-0.dtd"
   xmlns:inkscape="http://www.inkscape.org/namespaces/inkscape"
   width="16"
   height="16"
   id="svg2"
   version="1.1"
   inkscape:version="0.48.4 r9939"
   viewBox="0 0 16 16"
   sodipodi:docname="empty.svg">
  <defs
     id="defs4" />
  <sodipodi:namedview
     id="base"
     pagecolor="#ffffff"
     bordercolor="#666666"
     borderopacity="1.0"
     inkscape:pageopacity="0.0"
     inkscape:pageshadow="2"
     inkscape:zoom="7.919596"
     inkscape:cx="29.06507"
     inkscape:cy="8.535999"
     inkscape:document-units="px"
     inkscape:current-layer="layer1"
     showgrid="true"
     inkscape:showpageshadow="false"
     borderlayer="true"
     inkscape:window-width="1321"
     inkscape:window-height="748"
     inkscape:window-x="43"
     inkscape:window-y="-3"
     inkscape:window-maximized="1"
     units="px"
     inkscape:snap-bbox="true"
     inkscape:snap-global="true">
    <inkscape:grid
       type="xygrid"
       id="grid4101" />
    <sodipodi:guide
       position="2,14.000017"
       orientation="12,0"
       id="guide4071" />
    <sodipodi:guide
       position="2,2.0000174"
       orientation="0,12"
       id="guide4073" />
    <sodipodi:guide
       position="14,2.0000174"
       orientation="-12,0"
       id="guide4075" />
    <sodipodi:guide
       position="14,14.000017"
       orientation="0,-12"
       id="guide4077" />
  </sodipodi:namedview>
  <metadata
     id="metadata7">
    <rdf:RDF>
      <cc:Work
         rdf:about="">
        <dc:format>image/svg+xml</dc:format>
        <dc:type
           rdf:resource="http://purl.org/dc/dcmitype/StillImage" />
        <dc:title></dc:title>
      </cc:Work>
    </rdf:RDF>
  </metadata>
  <g
     inkscape:label="Capa 1"
     inkscape:groupmode="layer"
     id="layer1"
     transform="translate(0,-1036.3622)">
    <rect
       style="fill:#7f8c8d;fill-opacity:1;stroke:none"
       id="rect4035"
       width="0"
       height="10.999983"
       x="-17"
       y="1039.3622" />
    <path
       style="color:#000000;fill:#7f8c8d;fill-opacity:1;fill-rule:nonzero;stroke:none;stroke-width:0.1;marker:none;visibility:visible;display:inline;overflow:visible;enable-background:accumulate"
       d="M 8 2 C 4.686287 2 2 4.6863 2 8 C 2 10.975613 4.1585868 13.433271 7 13.90625 L 7 12.90625 C 4.7215842 12.440014 3 10.416225 3 8 C 3 5.2386 5.238576 3 8 3 C 10.416246 3 12.440019 4.7215957 12.90625 7 L 13.90625 7 C 13.433273 4.1585941 10.975625 2 8 2 z "
       transform="translate(0,1036.3622)"
       id="path3787-7" />
    <path
       style="color:#000000;fill:#7f8c8d;fill-opacity:1;fill-rule:nonzero;stroke:none;stroke-width:0.1;marker:none;visibility:visible;display:inline;overflow:visible;enable-background:accumulate"
       d="M 8 4 C 5.790861 4 4 5.7909 4 8 L 6 8 C 6 6.8954 6.895431 6 8 6 L 8 4 z "
       transform="translate(0,1036.3622)"
       id="path3790-4" />
    <path
       transform="translate(-40,1036.3622)"
       sodipodi:type="arc"
       style="color:#000000;fill:#7f8c8d;fill-opacity:1;fill-rule:nonzero;stroke:none;stroke-width:0.1;marker:none;visibility:visible;display:inline;overflow:visible;enable-background:accumulate"
       id="path3812-6"
       sodipodi:cx="48"
       sodipodi:cy="8"
       sodipodi:rx="1"
       sodipodi:ry="1"
       d="m 49,8 a 1,1 0 1 1 -2,0 1,1 0 1 1 2,0 z" />
    <path
       inkscape:connector-curvature="0"
       style="fill:#7f8c8d;fill-opacity:1;stroke:none"
       d="m 9.5,1044.3622 0,0.5 0,3.6407 c -0.147272,-0.085 -0.317518,-0.1407 -0.5,-0.1407 -0.552284,0 -1,0.4477 -1,1 0,0.5523 0.447716,1 1,1 0.552285,0 1,-0.4477 1,-1 l 0,-3.5 3.5,0 0,2.1407 c -0.147272,-0.085 -0.317517,-0.1407 -0.5,-0.1407 -0.552285,0 -1,0.4477 -1,1 0,0.5523 0.447715,1 1,1 0.552285,0 1,-0.4477 1,-1 l 0,-4 0,-0.5 -4.5,0 z m 0.5,0.5 3.5,0 0,0.5 -3.5,0 0,-0.5 z"
       id="path3763" />
  </g>
</svg>
