<?xml version="1.0" encoding="UTF-8" standalone="no"?>
<!-- Created with Inkscape (http://www.inkscape.org/) -->

<svg
   xmlns:dc="http://purl.org/dc/elements/1.1/"
   xmlns:cc="http://creativecommons.org/ns#"
   xmlns:rdf="http://www.w3.org/1999/02/22-rdf-syntax-ns#"
   xmlns:svg="http://www.w3.org/2000/svg"
   xmlns="http://www.w3.org/2000/svg"
   xmlns:sodipodi="http://sodipodi.sourceforge.net/DTD/sodipodi-0.dtd"
   xmlns:inkscape="http://www.inkscape.org/namespaces/inkscape"
   width="16"
   height="16"
   id="svg2"
   version="1.1"
   inkscape:version="0.48.5 r10040"
   viewBox="0 0 16 16"
   sodipodi:docname="source-ui.svg">
  <defs
     id="defs4" />
  <sodipodi:namedview
     id="base"
     pagecolor="#ffffff"
     bordercolor="#666666"
     borderopacity="1.0"
     inkscape:pageopacity="0.0"
     inkscape:pageshadow="2"
     inkscape:zoom="44.8"
     inkscape:cx="3.5287431"
     inkscape:cy="6.8854492"
     inkscape:document-units="px"
     inkscape:current-layer="layer1"
     showgrid="true"
     inkscape:showpageshadow="false"
     borderlayer="true"
     units="px"
     inkscape:window-width="1874"
     inkscape:window-height="1060"
     inkscape:window-x="44"
     inkscape:window-y="-3"
     inkscape:window-maximized="1">
    <inkscape:grid
       type="xygrid"
       id="grid4062" />
    <sodipodi:guide
       position="2,14.000017"
       orientation="12,0"
       id="guide4066" />
    <sodipodi:guide
       position="2,2.0000174"
       orientation="0,12"
       id="guide4068" />
    <sodipodi:guide
       position="14,2.0000174"
       orientation="-12,0"
       id="guide4070" />
    <sodipodi:guide
       position="14,14.000017"
       orientation="0,-12"
       id="guide4072" />
  </sodipodi:namedview>
  <metadata
     id="metadata7">
    <rdf:RDF>
      <cc:Work
         rdf:about="">
        <dc:format>image/svg+xml</dc:format>
        <dc:type
           rdf:resource="http://purl.org/dc/dcmitype/StillImage" />
        <dc:title></dc:title>
      </cc:Work>
    </rdf:RDF>
  </metadata>
  <g
     inkscape:label="Capa 1"
     inkscape:groupmode="layer"
     id="layer1"
     transform="translate(0,-1036.3622)">
    <path
       inkscape:connector-curvature="0"
       style="fill:#1d99f3;fill-opacity:1;stroke:none"
       d="m 6.5,1038.3622 c -1.385,0 -2.5,1.115 -2.5,2.5 0,1.385 1.115,2.5 2.5,2.5 1.385,0 2.5,-1.115 2.5,-2.5 0,-1.385 -1.115,-2.5 -2.5,-2.5 z m 0,1 c 0.831,0 1.5,0.669 1.5,1.5 0,0.831 -0.669,1.5 -1.5,1.5 -0.831,0 -1.5,-0.669 -1.5,-1.5 0,-0.831 0.669,-1.5 1.5,-1.5 z"
       id="rect4112" />
    <path
       style="fill:#1d99f3;fill-opacity:1;stroke:none"
       d="m 6.5,1044.3622 c -2.4929876,0 -4.5,2.007 -4.5,4.5 l 0,0.5 0,1 0.2753906,0 0.7246094,0 0.3457031,0 6.3085938,0 1.0703121,0 0.275391,0 0,-1 0,-0.5 c 0,-2.493 -2.0070124,-4.5 -4.5,-4.5 z m 0,1 c 1.9389876,0 3.5,1.561 3.5,3.5 0,0.1727 0,0.5 0,0.5 l -7,0 c 0,0 0,-0.3273 0,-0.5 0,-1.939 1.5610124,-3.5 3.5,-3.5 z"
       id="rect4114"
       inkscape:connector-curvature="0"
       sodipodi:nodetypes="sscccccccccssssccss" />
    <path
       inkscape:connector-curvature="0"
       style="fill:#1d99f3;fill-opacity:1;stroke:none"
       d="m 12,1040.3622 c -1.108,0 -2,0.892 -2,2 0,1.108 0.892,2 2,2 1.108,0 2,-0.892 2,-2 0,-1.108 -0.892,-2 -2,-2 z m 0,1 c 0.554,0 1,0.446 1,1 0,0.554 -0.446,1 -1,1 -0.554,0 -1,-0.446 -1,-1 0,-0.554 0.446,-1 1,-1 z"
       id="rect4139" />
    <path
       inkscape:connector-curvature="0"
       style="fill:#1d99f3;fill-opacity:1;stroke:none"
       d="m 12,1045.3622 c -0.554726,0 -1.066885,0.1595 -1.511719,0.4199 0.243138,0.2369 0.465409,0.4951 0.65625,0.7774 0.260111,-0.1234 0.547449,-0.1973 0.855469,-0.1973 1.108,0 2,0.892 2,2 l -2.099609,0 c 0.06511,0.3231 0.09961,0.6572 0.09961,1 l 1.724609,0 1.09375,0 0.181641,0 0,-1 c 0,-1.662 -1.338,-3 -3,-3 z"
       id="rect4148" />
  </g>
</svg>
