<?xml version="1.0" encoding="UTF-8" standalone="no"?>
<!-- Created with Inkscape (http://www.inkscape.org/) -->

<svg
   xmlns:dc="http://purl.org/dc/elements/1.1/"
   xmlns:cc="http://creativecommons.org/ns#"
   xmlns:rdf="http://www.w3.org/1999/02/22-rdf-syntax-ns#"
   xmlns:svg="http://www.w3.org/2000/svg"
   xmlns="http://www.w3.org/2000/svg"
   xmlns:sodipodi="http://sodipodi.sourceforge.net/DTD/sodipodi-0.dtd"
   xmlns:inkscape="http://www.inkscape.org/namespaces/inkscape"
   width="16"
   height="16"
   id="svg3387"
   version="1.1"
   inkscape:version="0.91pre2 r13516"
   viewBox="0 0 16 16"
   sodipodi:docname="deb.svg">
  <defs
     id="defs3389" />
  <sodipodi:namedview
     id="base"
     pagecolor="#ffffff"
     bordercolor="#666666"
     borderopacity="1.0"
     inkscape:pageopacity="0.0"
     inkscape:pageshadow="2"
     inkscape:zoom="31.392433"
     inkscape:cx="5.8930891"
     inkscape:cy="9.0413658"
     inkscape:current-layer="layer1"
     showgrid="true"
     inkscape:grid-bbox="true"
     inkscape:document-units="px"
     inkscape:snap-bbox="true"
     inkscape:bbox-nodes="true"
     inkscape:object-paths="true"
     inkscape:object-nodes="true"
     inkscape:snap-global="false"
     inkscape:window-width="1301"
     inkscape:window-height="744"
     inkscape:window-x="65"
     inkscape:window-y="24"
     inkscape:window-maximized="1">
    <inkscape:grid
       type="xygrid"
       id="grid3410" />
  </sodipodi:namedview>
  <metadata
     id="metadata3392">
    <rdf:RDF>
      <cc:Work
         rdf:about="">
        <dc:format>image/svg+xml</dc:format>
        <dc:type
           rdf:resource="http://purl.org/dc/dcmitype/StillImage" />
        <dc:title></dc:title>
      </cc:Work>
    </rdf:RDF>
  </metadata>
  <g
     id="layer1"
     inkscape:label="Layer 1"
     inkscape:groupmode="layer">
    <path
       inkscape:connector-curvature="0"
       style="fill:#f6970a;fill-opacity:1"
       d="m 8.9072957,0.65704348 c -0.230599,0.018679 -0.4597475,0.02777 -0.6870329,0.056594 l 0.09814,0.015649 C 8.4850309,0.66860918 8.7295996,0.69798888 8.9072957,0.65698968 Z M 7.8999883,0.76550238 C 7.5247395,0.78775868 7.0004295,0.98504788 7.1612794,0.80698418 6.5491522,1.0800537 5.4624781,1.4638075 4.8521789,2.0363904 L 4.8367783,1.9072902 C 4.5570816,2.242329 3.6144015,2.9081193 3.5401814,3.3433602 l -0.072332,0.015649 C 3.3227028,3.6049837 3.2263011,3.8858278 3.1114189,4.1390854 2.9214769,4.4632246 2.8310118,4.263804 2.8582855,4.3147397 2.4843631,5.0734492 2.3004273,5.713173 2.1402429,6.2363803 2.2546334,6.4067934 2.144216,7.2637727 2.1868415,7.9514266 1.9997114,11.347247 4.5682497,14.644866 7.3784303,15.405622 7.7898702,15.552905 8.4019529,15.546411 8.9229941,15.560615 8.3082191,15.385085 8.2307748,15.470234 7.6315489,15.260987 7.2001084,15.057582 7.1058429,14.823705 6.7998612,14.55839 L 6.918673,14.775417 C 6.3187867,14.563591 6.5699676,14.511314 6.0818237,14.356973 l 0.129145,-0.170459 c -0.1943981,-0.0151 -0.5112843,-0.327567 -0.5992356,-0.50111 l -0.2169573,0.01014 C 5.1397149,13.380501 5.0079269,13.153727 5.017669,12.977471 L 4.945337,13.096279 C 4.8680024,12.963268 4.0071132,11.917331 4.454595,12.161318 4.3719396,12.085811 4.2588306,12.037881 4.1394873,11.820387 l 0.092979,-0.108513 C 4.0175751,11.434831 3.8366499,11.081062 3.8501973,10.962867 3.9644237,11.11774 4.0453008,11.148203 4.1239871,11.174642 3.5802973,9.8258231 3.549258,11.100323 3.1373214,9.8005961 l 0.087822,-0.0057 C 3.1585392,9.6941791 3.1185577,9.5818795 3.065004,9.4747526 L 3.101121,9.0976856 C 2.7096813,8.6457181 2.9926021,7.1773166 3.049375,6.3701305 3.0882239,6.0421411 3.3735839,5.6894663 3.5917831,5.1406646 L 3.4574814,5.120197 C 3.7118865,4.6759889 4.91621,3.3367429 5.4721208,3.4052202 5.7414097,3.067459 5.4165649,3.3996065 5.3636421,3.3173683 5.955108,2.7058718 6.1423922,2.8853862 6.5414371,2.7749502 6.971561,2.5198694 6.1721447,2.8730211 6.3761358,2.6767899 7.1200014,2.4868727 6.9030392,2.2460796 7.87421,2.1498468 c 0.041879,0.023448 0.00248,0.047543 -0.056912,0.067245 0.6840474,-0.1845021 1.8046871,-0.087912 2.567385,0.2634467 1.011148,0.4727434 2.150158,1.8726175 2.195446,3.1872925 l 0.0465,0.015649 c -0.02504,0.5223577 0.07951,1.1234761 -0.103317,1.6789099 l 0.118816,-0.2531432 c 0.01207,0.3916379 -0.114713,0.5849877 -0.232461,0.9246615 L 12.197873,8.13724 c -0.174402,0.3390034 0.01605,0.2156256 -0.108484,0.4855706 -0.272586,0.2421846 -0.829779,0.7581139 -1.007326,0.8058551 -0.129269,-0.00556 0.09038,-0.1536013 0.118817,-0.2117708 -0.364826,0.25056 -0.294457,0.3796407 -0.852355,0.53206 l -0.0154,-0.03622 C 8.9564728,10.360412 7.0437345,9.0729505 7.0683751,7.3210623 7.054167,7.4320993 7.0263966,7.4055311 6.9960478,7.4501526 6.9249127,6.5493915 7.4087792,5.6453317 8.2306656,5.2753688 9.0340462,4.8781917 9.9799889,5.0384256 10.555265,5.5749915 10.239526,5.1610777 9.606739,4.7233031 8.8608858,4.7639602 8.1305775,4.7754857 7.4467935,5.2411052 7.2181766,5.7454643 6.8444281,5.9803606 6.8022756,6.6553117 6.6396123,6.7785649 6.4200866,8.3916652 7.0523388,9.0840186 8.1221768,9.9038531 8.2901261,10.016992 8.1720148,10.034459 8.1945085,10.12087 7.8394348,9.9548541 7.5113064,9.7057391 7.2440095,9.3976221 7.3859965,9.6049411 7.5417297,9.8070251 7.7399233,9.9658671 7.4048497,9.8527881 6.9560117,9.1523077 6.8255799,9.1238262 7.4028227,10.158319 9.1703002,10.941475 10.095502,10.554774 9.6680373,10.569884 9.1198018,10.561174 8.6387669,10.384307 8.436763,10.280379 8.1660682,10.067879 8.2151657,10.027837 9.476938,10.498653 10.780028,10.381054 11.872524,9.506135 12.150244,9.2898985 12.451133,8.9223442 12.538905,8.9172274 12.423631,9.0906508 12.527085,9.0335004 12.487165,9.1341846 12.694121,8.7685533 12.358814,8.977627 12.74546,8.4161819 l 0.149801,0.2065943 c -0.05556,-0.3707431 0.460343,-0.8187416 0.408106,-1.4050558 0.05913,-0.089482 0.09573,-0.039842 0.09814,0.082616 -0.0064,-0.109656 -0.02002,-0.2173249 0,-0.3874252 0.04779,0.1265072 0.111747,0.2642168 0.144639,0.3977832 -0.113054,-0.4415005 0.112955,-0.7452913 0.170478,-1.0021655 -0.05628,-0.02474 -0.174353,0.1955805 -0.201468,-0.3254557 0.004,-0.2266546 0.06517,-0.1200787 0.08782,-0.1756495 -0.04397,-0.02474 -0.16154,-0.1982879 -0.232461,-0.5320598 0.05103,-0.078135 0.136372,0.2052082 0.206628,0.2169522 -0.04441,-0.2648278 -0.120839,-0.468178 -0.123978,-0.6715183 -0.204801,-0.428127 -0.0717,0.054125 -0.237635,-0.1860074 -0.217533,-0.680063 0.17953,-0.1562547 0.20664,-0.464919 0.329947,0.4785906 0.517946,1.2217657 0.604392,1.5291035 C 13.960752,5.3245606 13.852204,4.9600772 13.721777,4.6089622 13.82262,4.6504442 13.559168,3.8379671 13.850922,4.3765399 13.539163,3.2291336 12.519406,2.1571843 11.577988,1.6541566 c 0.114231,0.1051302 0.25887,0.236938 0.206633,0.2583099 -0.468143,-0.278246 -0.3873,-0.3008896 -0.454586,-0.4184246 -0.380867,-0.1550625 -0.40364,0.012072 -0.656053,0 C 9.9552498,1.1130055 9.8169734,1.1543085 9.1552575,0.91548758 l 0.03095,0.13946832 c -0.4759029,-0.15818732 -0.5545446,0.059615 -1.0693065,0 -0.03095,-0.023448 0.1641087,-0.0853879 0.3254456,-0.10850852 -0.4597079,0.0608021 -0.4377301,-0.090932 -0.8885155,0.015649 0.1105801,-0.0775536 0.2280654,-0.130069 0.3462613,-0.1965492 z M 13.401518,7.3002021 c 0.0035,0.1221255 -0.03005,0.3157784 -0.09299,0.5217666 0.09571,-0.2509128 0.101057,-0.3883144 0.09299,-0.5217666 z M 8.2719039,0.84816778 c 0.1317531,0.022803 0.2802827,0.040936 0.258295,0.072332 0.143989,-0.031894 0.1814269,-0.059619 -0.258295,-0.072332 z m 0.258295,0.072332 -0.087812,0.020468 0.082655,-0.010135 0.00542,-0.010333 z M 7.7811616,2.2274098 c -0.082671,0.02474 -0.1846412,0.049991 -0.2272905,0.087852 0.067584,-0.033136 0.1440935,-0.063544 0.2272905,-0.087862 z M 2.4552661,3.849542 c 0.038252,0.3556807 -0.2674259,0.4931619 0.06716,0.2582606 0.1800162,-0.405672 -0.069635,-0.111047 -0.06716,-0.2582651 z M 2.1814863,4.9808579 C 1.9677483,5.2539224 2.0851591,5.3114405 2.0626646,5.4973783 2.1400342,5.260316 2.1517287,5.1183142 2.1814863,4.9808529 Z m 8.8024417,1.6478508 c -0.03036,0 -0.0682,0.080738 -0.08781,0.1652813 0.04505,0.024193 0.07952,0.3131256 0.123989,0.1342818 0.01486,-0.2221387 -0.006,-0.3004226 -0.03616,-0.299573 z m 2.701688,0.7489973 -0.03616,0.092979 c -0.06581,0.4721523 -0.208403,0.9402057 -0.428753,1.3740464 0.242835,-0.4571595 0.398975,-0.9600829 0.464919,-1.4670303 z m -2.861822,0.1704828 c -0.03294,0.1633538 -0.122657,0.3055246 -0.206629,0.4546206 -0.461701,0.2905365 -0.04332,-0.1750432 0,-0.3512986 -0.495915,0.6250289 -0.06454,0.3724916 -0.08265,0.5475995 C 10.681644,7.9962369 10.786451,7.778142 10.8238,7.5481837 Z M 9.8164766,8.4986783 C 9.6162963,8.5481073 9.4128868,8.5481073 9.2069185,8.5299733 8.9602832,8.5355433 9.2514305,8.656008 9.573677,8.7056224 9.662948,8.6360044 9.7448997,8.5674354 9.8164766,8.4989635 Z M 6.701517,8.5348941 c 0.05413,0.2001508 0.1646505,0.3674838 0.2686282,0.5423436 L 6.8926513,8.8551092 C 6.806697,8.7602078 6.7590501,8.6483307 6.701517,8.5348297 Z M 6.5103878,8.8706484 6.474271,9.041116 C 6.6362736,9.2613176 6.7680416,9.5041025 6.9753364,9.6765081 6.8269163,9.3858376 6.7144285,9.2644426 6.5104474,8.8705837 Z"
       id="path2820" />
  </g>
</svg>
