<svg xmlns="http://www.w3.org/2000/svg" xmlns:xlink="http://www.w3.org/1999/xlink" width="48" height="48"><g paint-order="markers stroke fill"><rect width="36" height="40" x="6" y="4" ry="1.905" rx="2" fill="#9bd916"/><path d="M42 17.242A40 40 0 0 1 23.494 44H40c1.108 0 2-.85 2-1.904z" opacity=".15" fill="url(#a)"/></g><defs><linearGradient xlink:href="#b" id="a" gradientUnits="userSpaceOnUse" x1="32.747" y1="44" x2="32.747" y2="17.242"/><linearGradient id="b"><stop offset="0"/><stop offset="1" stop-opacity="0"/></linearGradient></defs><path d="M15.746 15a.75.75 0 0 0-.52 1.285L17.14 18.2A8.991 8.991 0 0 0 15 24.01V33h17.982V24.01a8.991 8.991 0 0 0-2.125-5.807l1.917-1.916A.75.75 0 0 0 32.23 15a.75.75 0 0 0-.515.226l-1.926 1.926a8.991 8.991 0 0 0-5.798-2.134 8.991 8.991 0 0 0-5.798 2.116l-1.909-1.908a.75.75 0 0 0-.538-.226m8.245 1.516a7.493 7.493 0 0 1 7.493 7.493H16.499a7.493 7.493 0 0 1 7.492-7.493m-2.997 2.997a1.499 1.499 0 0 0-1.498 1.499 1.499 1.499 0 0 0 1.498 1.498 1.499 1.499 0 0 0 1.499-1.498 1.499 1.499 0 0 0-1.499-1.499m5.994 0a1.499 1.499 0 0 0-1.498 1.499 1.499 1.499 0 0 0 1.498 1.498 1.499 1.499 0 0 0 1.499-1.498 1.499 1.499 0 0 0-1.499-1.499m-10.49 5.994h5.995v1.499h1.498v1.498h1.499v-2.997h5.994v5.995H16.499zm7.493 2.998h-1.498v1.498h1.498z" fill="#fff"/></svg>