<svg xmlns="http://www.w3.org/2000/svg" xmlns:xlink="http://www.w3.org/1999/xlink" width="48" height="48"><rect width="36" height="40" x="6" y="4" ry="1.905" rx="2" fill="gray" paint-order="markers stroke fill"/><path d="M42 17.242A40 40 0 0 1 23.494 44H40c1.108 0 2-.85 2-1.904z" opacity=".15" fill="url(#a)" paint-order="markers stroke fill"/><defs><linearGradient xlink:href="#b" id="a" x1="32.747" y1="44" x2="32.747" y2="17.242" gradientUnits="userSpaceOnUse"/><linearGradient id="b"><stop offset="0"/><stop offset="1" stop-opacity="0"/></linearGradient></defs><g fill="#fff" paint-order="stroke markers fill"><path d="M19 24.742A4.258 4.258 0 0 0 14.742 29 4.258 4.258 0 0 0 19 33.258 4.258 4.258 0 0 0 23.258 29 4.258 4.258 0 0 0 19 24.742zm0 1.935A2.323 2.323 0 0 1 21.323 29 2.323 2.323 0 0 1 19 31.323 2.323 2.323 0 0 1 16.677 29 2.323 2.323 0 0 1 19 26.677z"/><path d="M18.227 23h1.547v2.71h-1.547zM18.227 32.29h1.547V35h-1.547zM25 28.226v1.547h-2.71v-1.547zM15.71 28.226v1.547H13v-1.547zM23.79 32.696l-1.094 1.094-1.916-1.916 1.094-1.094zM17.22 26.126l-1.094 1.095-1.916-1.916 1.095-1.095zM15.305 33.79l-1.095-1.094 1.916-1.916 1.095 1.094zM21.874 27.22l-1.094-1.094 1.916-1.916 1.094 1.095z"/></g><g fill="#fff" paint-order="stroke markers fill"><path d="M22.898 12.887a4.258 4.258 0 0 0-3.011 5.215 4.258 4.258 0 0 0 5.215 3.011 4.258 4.258 0 0 0 3.011-5.215 4.258 4.258 0 0 0-5.215-3.011zm.5 1.87a2.323 2.323 0 0 1 2.845 1.642 2.323 2.323 0 0 1-1.642 2.844 2.323 2.323 0 0 1-2.844-1.642 2.323 2.323 0 0 1 1.642-2.844z"/><path d="M21.7 11.404l1.495-.4.701 2.617-1.495.4zM24.104 20.378l1.496-.4.7 2.617-1.494.4zM29.596 14.699l.4 1.495-2.617.701-.4-1.495zM20.622 17.103l.4 1.496-2.617.7-.4-1.494zM29.583 19.33l-.773 1.34-2.347-1.354.774-1.34zM21.538 14.685l-.774 1.34-2.347-1.355.774-1.34zM21.67 22.583l-1.34-.774 1.355-2.346 1.34.774zM26.316 14.538l-1.34-.774 1.354-2.347 1.34.774z"/></g><g fill="#fff" paint-order="stroke markers fill"><path d="M30.732 24.255a2.839 2.839 0 0 0-3.477 2.008 2.839 2.839 0 0 0 2.008 3.476 2.839 2.839 0 0 0 3.476-2.007 2.839 2.839 0 0 0-2.007-3.477zm-.334 1.247a1.548 1.548 0 0 1 1.095 1.896 1.548 1.548 0 0 1-1.896 1.095 1.548 1.548 0 0 1-1.095-1.896 1.548 1.548 0 0 1 1.896-1.095z"/><path d="M30.535 23l.996.267-.467 1.745-.997-.267zM28.932 28.982l.996.267-.467 1.745-.997-.267zM33.995 27.534l-.267.997-1.745-.468.267-.997zM28.012 25.93l-.267.998L26 26.46l.268-.997zM32.444 30.204l-.893.516-.904-1.565.894-.516zM29.348 24.84l-.894.516-.903-1.565.893-.516zM26.791 29.444l-.516-.893 1.565-.904.516.894zM32.155 26.348l-.516-.894 1.565-.903.516.893z"/></g></svg>