<svg xmlns="http://www.w3.org/2000/svg" xmlns:xlink="http://www.w3.org/1999/xlink" width="48" height="48"><g paint-order="markers stroke fill"><rect width="36" height="40" x="6" y="4" ry="1.905" rx="2" fill="#f88e45"/><path d="M42 17.242A40 40 0 0 1 23.494 44H40c1.108 0 2-.85 2-1.904z" opacity=".15" fill="url(#a)"/></g><defs><linearGradient xlink:href="#b" id="a" gradientUnits="userSpaceOnUse" x1="32.747" y1="44" x2="32.747" y2="17.242"/><linearGradient id="b"><stop offset="0"/><stop offset="1" stop-opacity="0"/></linearGradient></defs><path d="M20 31c0 .552.453 1 .997 1h6.006c.55 0 .997-.444.997-1 0-.552-.453-1-.997-1h-6.006A.996.996 0 0 0 20 31zM23.5 14.787l-4.23 6.682a1.293 1.293 0 0 0-.133.912l1.726 6.13c.076.27.364.489.627.489h5.02c.27 0 .551-.22.627-.488l1.726-6.131c.076-.27.013-.683-.133-.912l-4.23-6.682v5.293a1.542 1.542 0 0 1 1.031 1.453 1.542 1.542 0 0 1-1.543 1.543 1.542 1.542 0 0 1-1.543-1.543A1.542 1.542 0 0 1 23.5 20.07v-5.283z" fill="#fff" fill-rule="evenodd"/></svg>