<svg width="64" height="64" version="1.1" viewBox="0 0 16.933 16.933" xmlns="http://www.w3.org/2000/svg" xmlns:xlink="http://www.w3.org/1999/xlink">
 <defs>
  <linearGradient id="a" x1="49.571" x2="51.714" y1="52.714" y2="54.857" gradientTransform="matrix(2.3333,0,0,2.3333,-68.667,-72.001)" gradientUnits="userSpaceOnUse">
   <stop offset="0"/>
   <stop stop-opacity="0" offset="1"/>
  </linearGradient>
  <clipPath>
   <rect width="192" height="152"/>
  </clipPath>
  <clipPath>
   <rect width="192" height="152"/>
  </clipPath>
  <clipPath>
   <rect width="192" height="152"/>
  </clipPath>
  <clipPath>
   <rect width="192" height="152"/>
  </clipPath>
  <clipPath>
   <rect width="192" height="152"/>
  </clipPath>
  <clipPath>
   <rect width="192" height="152"/>
  </clipPath>
  <clipPath>
   <rect width="192" height="152"/>
  </clipPath>
  <clipPath>
   <rect width="192" height="152"/>
  </clipPath>
 </defs>
 <g transform="scale(.26458)">
  <rect x="8" y="4" width="48" height="56" ry="5" fill="#f4f4f4" style="paint-order:stroke fill markers"/>
  <path d="m56 46-14 14h9c2.77 0 5-2.23 5-5z" fill="url(#a)" fill-rule="evenodd" opacity=".1" stroke-width="8.8191" style="paint-order:stroke fill markers"/>
 </g>
 <g transform="matrix(.5 0 0 .5 -5.8236 3.9964)">
  <path d="m18.526 4.0398h20.108" fill="#cdcdcd" stroke="#deddda" stroke-dashoffset="1.125" stroke-width=".26236"/>
  <path d="m18.526-0.98461 20.108-0.0010083" fill="#cdcdcd" stroke="#deddda" stroke-dashoffset="1.125" stroke-width=".26357"/>
  <path d="m18.526 9.0608h20.108" fill="#cdcdcd" stroke="#deddda" stroke-dashoffset="1.125" stroke-width=".26236"/>
  <path d="m18.526 14.084h20.108" fill="#cdcdcd" stroke="#deddda" stroke-dashoffset="1.125" stroke-width=".26236"/>
  <path d="m18.526 19.107h15.346" fill="#cdcdcd" stroke="#deddda" stroke-dashoffset="1.125" stroke-width=".22919"/>
  <path d="m20.628-2.7485v23.377" fill="#cdcdcd" stroke="#a13f12" stroke-dashoffset="1.125" stroke-width=".26458"/>
  <g transform="matrix(1.3089 0 0 1.3089 17.939 -1.3254)" fill="#555555" stroke-width=".20214">
   <g class="UnoptimicedTransforms" stroke="#2e3436" stroke-dashoffset="1.08" stroke-width=".12128" aria-label="R"></g>
   <g class="UnoptimicedTransforms" transform="translate(179.44 17.941)" stroke="#2e3436" stroke-dashoffset="1.08" stroke-width=".12128" aria-label="R"></g>
   <g class="UnoptimicedTransforms" transform="translate(205.52 -41.663)" stroke="#2e3436" stroke-dashoffset="1.08" stroke-width=".12128" aria-label="R"></g>
   <g class="UnoptimicedTransforms" transform="translate(384.96 -23.722)" stroke="#2e3436" stroke-dashoffset="1.08" stroke-width=".12128" aria-label="R"></g>
   <g class="UnoptimicedTransforms" transform="translate(206.93 -123.5)" stroke="#2e3436" stroke-dashoffset="1.08" stroke-width=".12128" aria-label="R"></g>
   <g class="UnoptimicedTransforms" transform="translate(386.37 -105.56)" stroke="#2e3436" stroke-dashoffset="1.08" stroke-width=".12128" aria-label="R"></g>
   <g class="UnoptimicedTransforms" transform="translate(412.45 -165.16)" stroke="#2e3436" stroke-dashoffset="1.08" stroke-width=".12128" aria-label="R"></g>
   <g class="UnoptimicedTransforms" transform="translate(591.89 -147.22)" stroke="#2e3436" stroke-dashoffset="1.08" stroke-width=".12128" aria-label="R"></g>
   <path d="m12.607 3.7157c-0.039079-0.21162 0.36635-1.4548-0.93038-2.1569-0.25745-0.13938-0.58043-0.2663-0.95884-0.35872-0.82099-0.20051-1.904-0.23631-3.0605 0.10923-0.96887 0.28948-1.8922 0.81924-2.6796 1.5516-0.70237 0.65334-1.2712 1.4445-1.6653 2.3186-0.034323 0.076146-0.067228 0.15308-0.098674 0.23077-0.22023 0.54233-0.37058 1.1559-0.39983 1.8039-0.028148 0.62359 0.055042 1.3146 0.33272 1.9962 0.2713 0.58632 0.72621 1.201 1.3847 1.6655 0.39737 0.28078 0.88464 0.51183 1.433 0.62623 0.21294 0.04443 0.44491 0.07247 0.6909 0.07324 0.45312 0.0045 0.88172-0.08485 1.277-0.23049 0.35725-0.13164 0.68322-0.30761 0.97437-0.49586 0.26521-0.17172 0.50595-0.35505 0.71622-0.51606 0.20864-0.15976 0.37884-0.29085 0.55066-0.40631 0.15818-0.10661 0.30276-0.18662 0.43316-0.24053 0.12502-0.051682 0.22203-0.073133 0.29435-0.078801 0.06679-0.013253 0.1222-0.00871 0.14298-0.013539 0.02127-0.013257 0.02597-0.00202 0.0254-0.049168 0.0034-0.042788 0.03083-0.015289 0.04176 0.012398 0.014 0.042328 0.0096 0.11489-0.01919 0.20641-0.04234 0.09403-0.10895 0.19438-0.20506 0.30634-0.10516 0.12251-0.23336 0.24481-0.37394 0.37163-0.03789 0.03413-0.07658 0.06852-0.11566 0.10312-0.11974 0.10603-0.25094 0.21791-0.3867 0.33965-0.18459 0.16553-0.37919 0.351-0.56006 0.5661-0.19287 0.22875-0.36454 0.48946-0.48898 0.7756-0.13313 0.30613-0.21128 0.63976-0.20354 0.98613 0.01142 0.27758 0.080588 0.52973 0.18073 0.74248 0.11637 0.24721 0.2753 0.44398 0.44677 0.58633 0.16571 0.13757 0.33773 0.2186 0.48932 0.25641 0.052915 0.0132 0.10541 0.02056 0.15651 0.02308 0.35365 0.01746 0.58114-0.18495 0.67216-0.24457-0.08943-0.10795-0.16127-0.32666-0.22259-0.55411-0.0083-0.03062-0.01647-0.06095-0.02467-0.0886-0.02412-0.08136-0.04583-0.15917-0.05831-0.23625-0.01258-0.07763-0.02018-0.15964-0.01659-0.23931 0.0032-0.07009 0.01489-0.13615 0.03722-0.19336 0.01978-0.07164 0.05854-0.1594 0.12451-0.25693 0.06389-0.09446 0.15164-0.1954 0.26322-0.29264 0.11203-0.09868 0.24381-0.19517 0.40718-0.30345 0.12406-0.08222 0.24452-0.15721 0.39323-0.25154 0.04646-0.02947 0.09533-0.06091 0.14536-0.09386 0.18084-0.11926 0.40563-0.27764 0.62421-0.47241 0.20113-0.17922 0.42084-0.40992 0.60841-0.70238 0.18008-0.26172 0.3492-0.60292 0.42502-1.0103 0.0704-0.37931 0.05989-0.82541-0.10748-1.2672-0.19725-0.51224-0.5662-0.92007-0.99534-1.1868-0.42839-0.26653-0.90198-0.38953-1.3429-0.41491-0.44988-0.018504-0.86429 0.061584-1.2232 0.17785-0.36579 0.1185-0.69389 0.2811-0.97052 0.44049-0.27342 0.15737-0.53763 0.33447-0.73717 0.46569-0.22875 0.15043-0.403 0.26137-0.57403 0.35196-0.17225 0.090789-0.31746 0.14594-0.43539 0.17238-0.12803 0.028706-0.20333 0.019271-0.24376 0.0034143-0.019266-0.01042-0.040196-0.023613-0.061077-0.039683-0.056613-0.043571-0.10568-0.10906-0.12596-0.17973-0.040679-0.12233-0.044639-0.27029-0.023044-0.40221-0.010989-0.13117 2.868e-4 -0.29746 0.036639-0.48559 0.039116-0.20244 0.10568-0.42321 0.19874-0.65824 0.01343-0.033642 0.027446-0.067197 0.042041-0.10065 0.16887-0.38702 0.43246-0.74962 0.76508-1.0564 0.37322-0.34426 0.79413-0.58354 1.2091-0.73458 0.50159-0.18259 0.99578-0.2379 1.4342-0.2732 0.19917-0.016039 0.3822-0.027896 0.54642-0.047818 0.86434-0.10485 1.4493-0.84046 1.8049-0.92964z"/>
  </g>
 </g>
</svg>
