<svg xmlns="http://www.w3.org/2000/svg" xmlns:xlink="http://www.w3.org/1999/xlink" width="48" height="48"><g paint-order="markers stroke fill"><rect rx="2" ry="1.905" y="4" x="6" height="40" width="36" fill="#66bb6a"/><path d="M42 17.242A40 40 0 0 1 23.494 44H40c1.108 0 2-.85 2-1.904z" opacity=".15" fill="url(#a)"/></g><defs><linearGradient xlink:href="#b" id="a" x1="32.747" y1="44" x2="32.747" y2="17.242" gradientUnits="userSpaceOnUse"/><linearGradient id="b"><stop offset="0"/><stop offset="1" stop-opacity="0"/></linearGradient></defs><path d="M24 16a8.092 7.875 0 0 0-8.092 7.875A8.092 7.875 0 0 0 24 31.75a8.092 7.875 0 0 0 8.092-7.875A8.092 7.875 0 0 0 24 16zm-.014 3.156c1.452 0 2.63 1.065 2.63 2.38 0 .88-.528 1.648-1.313 2.06v3.394c0 .282-.225.51-.508.51H23.18a.51.51 0 0 1-.508-.51v-3.392c-.787-.412-1.315-1.182-1.315-2.063 0-1.314 1.177-2.379 2.63-2.379z" fill="#fff" fill-rule="evenodd"/></svg>