<?xml version="1.0" encoding="UTF-8" standalone="no"?>
<svg
   xmlns:dc="http://purl.org/dc/elements/1.1/"
   xmlns:cc="http://creativecommons.org/ns#"
   xmlns:rdf="http://www.w3.org/1999/02/22-rdf-syntax-ns#"
   xmlns:svg="http://www.w3.org/2000/svg"
   xmlns="http://www.w3.org/2000/svg"
   xmlns:xlink="http://www.w3.org/1999/xlink"
   xmlns:sodipodi="http://sodipodi.sourceforge.net/DTD/sodipodi-0.dtd"
   xmlns:inkscape="http://www.inkscape.org/namespaces/inkscape"
   width="48px"
   height="48px"
   viewBox="0 0 48 48"
   version="1.1"
   id="svg18"
   sodipodi:docname="application-x-sharedlib.svg"
   inkscape:version="0.92.2 2405546, 2018-03-11">
  <metadata
     id="metadata22">
    <rdf:RDF>
      <cc:Work
         rdf:about="">
        <dc:format>image/svg+xml</dc:format>
        <dc:type
           rdf:resource="http://purl.org/dc/dcmitype/StillImage" />
        <dc:title>application-octet-stream</dc:title>
      </cc:Work>
    </rdf:RDF>
  </metadata>
  <sodipodi:namedview
     pagecolor="#ffffff"
     bordercolor="#666666"
     borderopacity="1"
     objecttolerance="10"
     gridtolerance="10"
     guidetolerance="10"
     inkscape:pageopacity="0"
     inkscape:pageshadow="2"
     inkscape:window-width="1260"
     inkscape:window-height="720"
     id="namedview20"
     showgrid="true"
     inkscape:zoom="4.9166667"
     inkscape:cx="26.317212"
     inkscape:cy="31.017531"
     inkscape:window-x="334"
     inkscape:window-y="116"
     inkscape:window-maximized="0"
     inkscape:current-layer="svg18"
     inkscape:snap-bbox="true"
     inkscape:bbox-nodes="true"
     inkscape:snap-nodes="false"
     inkscape:snap-others="false">
    <inkscape:grid
       type="xygrid"
       id="grid888" />
  </sodipodi:namedview>
  <!-- Generator: Sketch 41.2 (35397) - http://www.bohemiancoding.com/sketch -->
  <title
     id="title2">application-octet-stream</title>
  <desc
     id="desc4">Created with Sketch.</desc>
  <rect
     style="opacity:1;fill:#808080;fill-opacity:1;stroke:none;stroke-width:0.92582005;stroke-linecap:round;stroke-linejoin:round;stroke-miterlimit:4;stroke-dasharray:none;stroke-opacity:0.05882353;paint-order:markers stroke fill"
     id="rect834"
     width="36"
     height="40"
     x="6"
     y="4"
     ry="1.9047618"
     rx="2" />
  <path
     style="opacity:0.15;fill:url(#linearGradient877);fill-opacity:1;stroke:none;stroke-width:0.92582005;stroke-linecap:round;stroke-linejoin:round;stroke-miterlimit:4;stroke-dasharray:none;stroke-opacity:0.05882353;paint-order:markers stroke fill"
     d="M 42,17.242188 A 40,40 0 0 1 23.494141,44 H 40 c 1.108,0 2,-0.849059 2,-1.904297 z"
     id="rect866"
     inkscape:connector-curvature="0" />
  <defs
     id="defs11">
    <linearGradient
       inkscape:collect="always"
       xlink:href="#linearGradient875"
       id="linearGradient877"
       x1="32.74707"
       y1="44"
       x2="32.74707"
       y2="17.242188"
       gradientUnits="userSpaceOnUse" />
    <linearGradient
       inkscape:collect="always"
       id="linearGradient875">
      <stop
         style="stop-color:#000000;stop-opacity:1;"
         offset="0"
         id="stop871" />
      <stop
         style="stop-color:#000000;stop-opacity:0;"
         offset="1"
         id="stop873" />
    </linearGradient>
  </defs>
  <g
     id="g843"
     transform="matrix(1.4630492,0,0,1.4630492,6.6128498,-393.13847)">
    <path
       inkscape:connector-curvature="0"
       id="circle823"
       transform="matrix(0.26458333,0,0,0.26458333,0,280.06667)"
       d="M 32,21 A 11.000001,11.000001 0 0 0 21,32 11.000001,11.000001 0 0 0 32,43 11.000001,11.000001 0 0 0 43,32 11.000001,11.000001 0 0 0 32,21 Z m 0,5 a 5.9999572,5.9999572 0 0 1 6,6 5.9999572,5.9999572 0 0 1 -6,6 5.9999572,5.9999572 0 0 1 -6,-6 5.9999572,5.9999572 0 0 1 6,-6 z"
       style="opacity:1;fill:#ffffff;fill-opacity:1;stroke:none;stroke-width:0.78571439;stroke-miterlimit:4;stroke-dasharray:none;stroke-opacity:0.03921569;paint-order:stroke markers fill" />
    <rect
       y="284.43231"
       x="7.9375"
       height="1.852072"
       width="1.0583333"
       id="rect839"
       style="opacity:1;fill:#ffffff;fill-opacity:1;stroke:none;stroke-width:0.52916503;stroke-miterlimit:4;stroke-dasharray:none;stroke-opacity:0.03921569;paint-order:stroke markers fill" />
    <rect
       style="opacity:1;fill:#ffffff;fill-opacity:1;stroke:none;stroke-width:0.52916503;stroke-miterlimit:4;stroke-dasharray:none;stroke-opacity:0.03921569;paint-order:stroke markers fill"
       id="rect841"
       width="1.0583333"
       height="1.852072"
       x="7.9375"
       y="290.78229" />
    <rect
       transform="rotate(90)"
       style="opacity:1;fill:#ffffff;fill-opacity:1;stroke:none;stroke-width:0.52916503;stroke-miterlimit:4;stroke-dasharray:none;stroke-opacity:0.03921569;paint-order:stroke markers fill"
       id="rect843"
       width="1.0583333"
       height="1.852072"
       x="288.00418"
       y="-12.567691" />
    <rect
       transform="rotate(90)"
       y="-6.2177148"
       x="288.00418"
       height="1.852072"
       width="1.0583333"
       id="rect845"
       style="opacity:1;fill:#ffffff;fill-opacity:1;stroke:none;stroke-width:0.52916503;stroke-miterlimit:4;stroke-dasharray:none;stroke-opacity:0.03921569;paint-order:stroke markers fill" />
    <rect
       y="-214.11176"
       x="197.50789"
       height="1.852072"
       width="1.0583333"
       id="rect847"
       style="opacity:1;fill:#ffffff;fill-opacity:1;stroke:none;stroke-width:0.52916503;stroke-miterlimit:4;stroke-dasharray:none;stroke-opacity:0.03921569;paint-order:stroke markers fill"
       transform="rotate(135)" />
    <rect
       style="opacity:1;fill:#ffffff;fill-opacity:1;stroke:none;stroke-width:0.52916503;stroke-miterlimit:4;stroke-dasharray:none;stroke-opacity:0.03921569;paint-order:stroke markers fill"
       id="rect849"
       width="1.0583333"
       height="1.852072"
       x="197.50789"
       y="-207.76176"
       transform="rotate(135)" />
    <rect
       transform="rotate(-135)"
       style="opacity:1;fill:#ffffff;fill-opacity:1;stroke:none;stroke-width:0.52916503;stroke-miterlimit:4;stroke-dasharray:none;stroke-opacity:0.03921569;paint-order:stroke markers fill"
       id="rect851"
       width="1.0583333"
       height="1.852072"
       x="-210.53989"
       y="-202.13809" />
    <rect
       transform="rotate(-135)"
       y="-195.7881"
       x="-210.53989"
       height="1.852072"
       width="1.0583333"
       id="rect853"
       style="opacity:1;fill:#ffffff;fill-opacity:1;stroke:none;stroke-width:0.52916503;stroke-miterlimit:4;stroke-dasharray:none;stroke-opacity:0.03921569;paint-order:stroke markers fill" />
  </g>
  <g
     transform="matrix(1.413197,-0.378665,0.378665,1.413197,-97.222543,-387.54842)"
     id="g866">
    <path
       style="opacity:1;fill:#ffffff;fill-opacity:1;stroke:none;stroke-width:0.78571439;stroke-miterlimit:4;stroke-dasharray:none;stroke-opacity:0.03921569;paint-order:stroke markers fill"
       d="M 32,21 A 11.000001,11.000001 0 0 0 21,32 11.000001,11.000001 0 0 0 32,43 11.000001,11.000001 0 0 0 43,32 11.000001,11.000001 0 0 0 32,21 Z m 0,5 a 5.9999572,5.9999572 0 0 1 6,6 5.9999572,5.9999572 0 0 1 -6,6 5.9999572,5.9999572 0 0 1 -6,-6 5.9999572,5.9999572 0 0 1 6,-6 z"
       transform="matrix(0.26458333,0,0,0.26458333,0,280.06667)"
       id="path847"
       inkscape:connector-curvature="0" />
    <rect
       style="opacity:1;fill:#ffffff;fill-opacity:1;stroke:none;stroke-width:0.52916503;stroke-miterlimit:4;stroke-dasharray:none;stroke-opacity:0.03921569;paint-order:stroke markers fill"
       id="rect850"
       width="1.0583333"
       height="1.852072"
       x="7.9375"
       y="284.43231" />
    <rect
       y="290.78229"
       x="7.9375"
       height="1.852072"
       width="1.0583333"
       id="rect852"
       style="opacity:1;fill:#ffffff;fill-opacity:1;stroke:none;stroke-width:0.52916503;stroke-miterlimit:4;stroke-dasharray:none;stroke-opacity:0.03921569;paint-order:stroke markers fill" />
    <rect
       y="-12.567691"
       x="288.00418"
       height="1.852072"
       width="1.0583333"
       id="rect854"
       style="opacity:1;fill:#ffffff;fill-opacity:1;stroke:none;stroke-width:0.52916503;stroke-miterlimit:4;stroke-dasharray:none;stroke-opacity:0.03921569;paint-order:stroke markers fill"
       transform="rotate(90)" />
    <rect
       style="opacity:1;fill:#ffffff;fill-opacity:1;stroke:none;stroke-width:0.52916503;stroke-miterlimit:4;stroke-dasharray:none;stroke-opacity:0.03921569;paint-order:stroke markers fill"
       id="rect856"
       width="1.0583333"
       height="1.852072"
       x="288.00418"
       y="-6.2177148"
       transform="rotate(90)" />
    <rect
       transform="rotate(135)"
       style="opacity:1;fill:#ffffff;fill-opacity:1;stroke:none;stroke-width:0.52916503;stroke-miterlimit:4;stroke-dasharray:none;stroke-opacity:0.03921569;paint-order:stroke markers fill"
       id="rect858"
       width="1.0583333"
       height="1.852072"
       x="197.50789"
       y="-214.11176" />
    <rect
       transform="rotate(135)"
       y="-207.76176"
       x="197.50789"
       height="1.852072"
       width="1.0583333"
       id="rect860"
       style="opacity:1;fill:#ffffff;fill-opacity:1;stroke:none;stroke-width:0.52916503;stroke-miterlimit:4;stroke-dasharray:none;stroke-opacity:0.03921569;paint-order:stroke markers fill" />
    <rect
       y="-202.13809"
       x="-210.53989"
       height="1.852072"
       width="1.0583333"
       id="rect862"
       style="opacity:1;fill:#ffffff;fill-opacity:1;stroke:none;stroke-width:0.52916503;stroke-miterlimit:4;stroke-dasharray:none;stroke-opacity:0.03921569;paint-order:stroke markers fill"
       transform="rotate(-135)" />
    <rect
       style="opacity:1;fill:#ffffff;fill-opacity:1;stroke:none;stroke-width:0.52916503;stroke-miterlimit:4;stroke-dasharray:none;stroke-opacity:0.03921569;paint-order:stroke markers fill"
       id="rect864"
       width="1.0583333"
       height="1.852072"
       x="-210.53989"
       y="-195.7881"
       transform="rotate(-135)" />
  </g>
  <g
     id="g886"
     transform="matrix(0.94213134,0.25244333,-0.25244333,0.94213134,94.858895,-246.97636)">
    <path
       inkscape:connector-curvature="0"
       id="path868"
       transform="matrix(0.26458333,0,0,0.26458333,0,280.06667)"
       d="M 32,21 A 11.000001,11.000001 0 0 0 21,32 11.000001,11.000001 0 0 0 32,43 11.000001,11.000001 0 0 0 43,32 11.000001,11.000001 0 0 0 32,21 Z m 0,5 a 5.9999572,5.9999572 0 0 1 6,6 5.9999572,5.9999572 0 0 1 -6,6 5.9999572,5.9999572 0 0 1 -6,-6 5.9999572,5.9999572 0 0 1 6,-6 z"
       style="opacity:1;fill:#ffffff;fill-opacity:1;stroke:none;stroke-width:0.78571439;stroke-miterlimit:4;stroke-dasharray:none;stroke-opacity:0.03921569;paint-order:stroke markers fill" />
    <rect
       y="284.43231"
       x="7.9375"
       height="1.852072"
       width="1.0583333"
       id="rect870"
       style="opacity:1;fill:#ffffff;fill-opacity:1;stroke:none;stroke-width:0.52916503;stroke-miterlimit:4;stroke-dasharray:none;stroke-opacity:0.03921569;paint-order:stroke markers fill" />
    <rect
       style="opacity:1;fill:#ffffff;fill-opacity:1;stroke:none;stroke-width:0.52916503;stroke-miterlimit:4;stroke-dasharray:none;stroke-opacity:0.03921569;paint-order:stroke markers fill"
       id="rect872"
       width="1.0583333"
       height="1.852072"
       x="7.9375"
       y="290.78229" />
    <rect
       transform="rotate(90)"
       style="opacity:1;fill:#ffffff;fill-opacity:1;stroke:none;stroke-width:0.52916503;stroke-miterlimit:4;stroke-dasharray:none;stroke-opacity:0.03921569;paint-order:stroke markers fill"
       id="rect874"
       width="1.0583333"
       height="1.852072"
       x="288.00418"
       y="-12.567691" />
    <rect
       transform="rotate(90)"
       y="-6.2177148"
       x="288.00418"
       height="1.852072"
       width="1.0583333"
       id="rect876"
       style="opacity:1;fill:#ffffff;fill-opacity:1;stroke:none;stroke-width:0.52916503;stroke-miterlimit:4;stroke-dasharray:none;stroke-opacity:0.03921569;paint-order:stroke markers fill" />
    <rect
       y="-214.11176"
       x="197.50789"
       height="1.852072"
       width="1.0583333"
       id="rect878"
       style="opacity:1;fill:#ffffff;fill-opacity:1;stroke:none;stroke-width:0.52916503;stroke-miterlimit:4;stroke-dasharray:none;stroke-opacity:0.03921569;paint-order:stroke markers fill"
       transform="rotate(135)" />
    <rect
       style="opacity:1;fill:#ffffff;fill-opacity:1;stroke:none;stroke-width:0.52916503;stroke-miterlimit:4;stroke-dasharray:none;stroke-opacity:0.03921569;paint-order:stroke markers fill"
       id="rect880"
       width="1.0583333"
       height="1.852072"
       x="197.50789"
       y="-207.76176"
       transform="rotate(135)" />
    <rect
       transform="rotate(-135)"
       style="opacity:1;fill:#ffffff;fill-opacity:1;stroke:none;stroke-width:0.52916503;stroke-miterlimit:4;stroke-dasharray:none;stroke-opacity:0.03921569;paint-order:stroke markers fill"
       id="rect882"
       width="1.0583333"
       height="1.852072"
       x="-210.53989"
       y="-202.13809" />
    <rect
       transform="rotate(-135)"
       y="-195.7881"
       x="-210.53989"
       height="1.852072"
       width="1.0583333"
       id="rect884"
       style="opacity:1;fill:#ffffff;fill-opacity:1;stroke:none;stroke-width:0.52916503;stroke-miterlimit:4;stroke-dasharray:none;stroke-opacity:0.03921569;paint-order:stroke markers fill" />
  </g>
</svg>
