<svg width="48" height="48" xmlns="http://www.w3.org/2000/svg"><rect x="6" y="4" width="36" height="40" rx="2" ry="1.905" fill="#ffb142" paint-order="markers stroke fill"/><defs><linearGradient id="a" x1="32.747" x2="32.747" y1="44" y2="17.242" gradientUnits="userSpaceOnUse"><stop offset="0"/><stop stop-opacity="0" offset="1"/></linearGradient></defs><g fill="#fff"><g fill-rule="evenodd"><path d="M12 12v-2h2.667L16 11l-1.333 1zM18 14v-2h-2.667L14 13l1.333 1zM18 18v-2h-2.667L14 17l1.333 1zM12 16v-2h2.667L16 15l-1.333 1zM18 22v-2h-2.667L14 21l1.333 1zM12 20v-2h2.667L16 19l-1.333 1zM18 26v-2h-2.667L14 25l1.333 1zM12 24v-2h2.667L16 23l-1.333 1zM18 30v-2h-2.667L14 29l1.333 1zM12 28v-2h2.667L16 27l-1.333 1zM15 37c3 0 1-2.62 1-4s0-2-1-2-1 .62-1 2-2 4 1 4zm0-.635a1 1 0 1 0 0-2 1 1 0 0 0 0 2z"/></g><path d="M31.622 26.003c-.447.009-.89.026-1.18.07-1.304.199-2.347.656-3.02 1.322a2.686 2.686 0 0 0-.731 1.256c-.079.303-.105 1.003-.023 1.271.274.94.923 1.663 2.146 2.39.52.305.92.508 2.075 1.03 1.387.622 1.81.873 2.006 1.185.077.128.105.192.095.344-.021.24-.142.361-.424.464-.19.066-.257.087-.614.087-.654-.007-1.23-.129-2.029-.413a7.382 7.382 0 0 1-1.58-.775c-.463-.301-.5-.314-.637-.24-.105.057-.858.729-1.415 1.273-.363.354-.368.426-.118.67.247.244.942.759 1.322.98.411.243.689.379 1.154.55.782.29 1.438.41 2.666.514.279.023 1.277.026 1.627 0 1.922-.153 3.49-.781 4.316-1.7.296-.327.474-.606.614-.998.136-.379.17-1.127.07-1.58-.166-.735-.607-1.4-1.32-1.96-.716-.561-1.442-.934-3.184-1.632-1.218-.485-1.675-.743-1.794-1.014-.064-.144-.026-.4.07-.499.192-.193.562-.263 1.04-.205.89.11 2.034.518 3.042 1.081.195.108.384.199.424.208.164.042.261-.023.92-.775.808-.924.8-.888.355-1.203-1.326-.95-2.86-1.5-4.623-1.666a12.318 12.318 0 0 0-1.25-.035z"/></g><path d="M42 17.242A40 40 0 0 1 23.494 44H40c1.108 0 2-.85 2-1.904z" fill="url(#a)" opacity=".15" paint-order="markers stroke fill"/></svg>