<svg xmlns="http://www.w3.org/2000/svg" xmlns:xlink="http://www.w3.org/1999/xlink" width="48" height="48"><g paint-order="markers stroke fill"><rect width="36" height="40" x="6" y="4" ry="1.905" rx="2" fill="#687583"/><path d="M42 17.242A40 40 0 0 1 23.494 44H40c1.108 0 2-.85 2-1.904z" opacity=".15" fill="url(#a)"/></g><defs><linearGradient xlink:href="#b" id="a" gradientUnits="userSpaceOnUse" x1="32.747" y1="44" x2="32.747" y2="17.242"/><linearGradient id="b"><stop offset="0"/><stop offset="1" stop-opacity="0"/></linearGradient></defs><path d="M24 15a9 9 0 0 0-9 9 9 9 0 0 0 9 9 9 9 0 0 0 9-9 9 9 0 0 0-9-9m0 1.5a7.5 7.5 0 1 1-.002 15.002A7.5 7.5 0 0 1 24 16.5M22.5 18v7.5H30V24h-6v-6z" color="#4d4d4d" fill="#fff"/></svg>