<svg width="48" height="48" version="1.1" xmlns="http://www.w3.org/2000/svg" xmlns:xlink="http://www.w3.org/1999/xlink">
 <defs>
  <linearGradient id="a" x1="32.747" x2="32.747" y1="44" y2="17.242" gradientUnits="userSpaceOnUse">
   <stop offset="0"/>
   <stop stop-opacity="0" offset="1"/>
  </linearGradient>
 </defs>
 <rect x="6" y="4" width="36" height="40" rx="2" ry="1.905" fill="#21a8f1" style="paint-order:markers stroke fill"/>
 <path d="m12 10v2h2.668l1.332-1-1.332-1zm3.332 2-1.332 1 1.332 1h2.668v-2zm-3.332 2v2h2.668l1.332-1-1.332-1zm3.332 2-1.332 1 1.332 1h2.668v-2zm-3.332 2v2h2.668l1.332-1-1.332-1zm3.332 2-1.332 1 1.332 1h2.668v-2zm-3.332 2v2h2.668l1.332-1-1.332-1zm3.332 2-1.332 1 1.332 1h2.668v-2zm-3.332 2v2h2.668l1.332-1-1.332-1zm3.332 2-1.332 1 1.332 1h2.668v-2zm7.668 1c-0.554 0-1 0.446-1 1v6c0 0.554 0.446 1 1 1h12c0.554 0 1-0.446 1-1v-6c0-0.554-0.446-1-1-1zm3.0391 1.6649h0.83398l2.0117 4.7054h-0.79102l-0.56641-1.4377h-2.166l-0.57422 1.4377h-0.75976zm3.6797 0h1.8594c1.2039 0 2.0684 0.34079 2.0684 1.3229 0 0.73179-0.5334 1.1673-1.3418 1.3214l1.5195 2.0612h-0.84766l-1.4395-1.996h-1.0664v1.996h-0.75195zm-3.291 0.48233c-0.18593 0.55205-0.37966 1.0584-0.58984 1.5912l-0.29102 0.71962h1.7949l-0.2832-0.71962c-0.21827-0.53279-0.40364-1.0456-0.59766-1.5912zm4.043 0v1.7448h0.99414c0.92965 0 1.4375-0.29436 1.4375-0.90418 0-0.62266-0.50784-0.84059-1.4375-0.84059zm-15.471-0.14719c-1 0-1 0.62-1 2s-2 4 1 4 1-2.62 1-4 0-2-1-2zm0 3.3652c1.3333 0 1.3333 2 0 2s-1.3333-2 0-2z" fill="#fff" fill-rule="evenodd"/>
 <path d="m42 17.242a40 40 0 0 1-18.506 26.758h16.506c1.108 0 2-0.85 2-1.904z" fill="url(#a)" opacity=".15" style="paint-order:markers stroke fill"/>
</svg>
