<svg xmlns="http://www.w3.org/2000/svg" xmlns:xlink="http://www.w3.org/1999/xlink" width="48" height="48"><g paint-order="markers stroke fill"><rect rx="2" ry="1.905" y="4" x="6" height="40" width="36" fill="#448aff"/><path d="M42 17.242A40 40 0 0 1 23.494 44H40c1.108 0 2-.85 2-1.904z" opacity=".15" fill="url(#a)"/></g><defs><linearGradient xlink:href="#b" id="a" x1="32.747" y1="44" x2="32.747" y2="17.242" gradientUnits="userSpaceOnUse"/><linearGradient id="b"><stop offset="0"/><stop offset="1" stop-opacity="0"/></linearGradient></defs><path d="M24 33a9 9 0 1 0 0-18 9 9 0 0 0 0 18zm-3.398-12.638c.52-.528-1.04-1.056.52-2.113 1.561-1.056 2.082 1.585 3.643 1.585s1.561-1.056 3.122 0 1.561 3.168-.52 2.64c-2.082-.528-3.643-1.584-3.643.528 0 2.113-5.724.529-5.724-1.584 0-2.112 2.082-.528 2.602-1.056zm8.557 5.508c.155.438.883-.295 1.051.875.168 1.171-1.006.53-1.36 2.023-.355 1.493-1.48.388-2.505.976-.375.215-.018 1.368-.995 1.484-1.177.139-2.598-.414-3.018-.518-.768-.191-2.02-1.505-.01-1.491 2.01.014.016-.437.994-1.484.436-.467 1.677.184 2.512.018 1.033-.206 1.588-1.194.928-1.516-1.195-.582 1.327-2.707 2.52-2.124 1.195.582-.273 1.318-.117 1.757zm-10.662 2.463S17.117 27 18.957 27c1.839 0 2.758 2 1.379 2-1.38 0-1.84-.667-1.84-.667z" fill="#fff" fill-rule="evenodd"/></svg>