<svg xmlns="http://www.w3.org/2000/svg" xmlns:xlink="http://www.w3.org/1999/xlink" width="48" height="48"><g paint-order="markers stroke fill"><rect rx="2" ry="1.905" y="4" x="6" height="40" width="36" fill="#0091ea"/><path d="M42 17.242A40 40 0 0 1 23.494 44H40c1.108 0 2-.85 2-1.904z" opacity=".15" fill="url(#a)"/></g><defs><linearGradient xlink:href="#b" id="a" x1="32.747" y1="44" x2="32.747" y2="17.242" gradientUnits="userSpaceOnUse"/><linearGradient id="b"><stop offset="0"/><stop offset="1" stop-opacity="0"/></linearGradient></defs><g fill="#FFF" fill-rule="evenodd"><path d="M25 19.5h8a.5.5 0 1 0 0-1h-8a.5.5 0 1 0 0 1zM25 23.5h8a.5.5 0 1 0 0-1h-8a.5.5 0 1 0 0 1zM16 27.5h17a.5.5 0 1 0 0-1H16a.5.5 0 1 0 0 1zM16 31.5h17a.5.5 0 1 0 0-1H16a.5.5 0 1 0 0 1zM20.169 23.19l-.342-.899h-2.91l-.342.918c-.133.358-.247.6-.342.725-.094.125-.249.188-.463.188a.68.68 0 0 1-.484-.2.613.613 0 0 1-.21-.454c0-.098.016-.199.049-.303.033-.104.086-.249.161-.435l1.831-4.648.188-.48c.073-.188.152-.344.235-.467a.952.952 0 0 1 .327-.3c.135-.077.302-.115.5-.115.202 0 .37.038.506.114a.972.972 0 0 1 .327.296c.083.12.153.25.21.388.057.138.13.323.217.554l1.87 4.62c.147.351.22.607.22.766 0 .166-.07.318-.208.457a.682.682 0 0 1-.5.207.6.6 0 0 1-.498-.227 1.527 1.527 0 0 1-.178-.322 18.884 18.884 0 0 1-.164-.384zm-2.871-1.988h2.139l-1.08-2.954-1.06 2.954z"/></g></svg>