<?xml version="1.0" encoding="UTF-8" standalone="no"?>
<svg
   xmlns:dc="http://purl.org/dc/elements/1.1/"
   xmlns:cc="http://creativecommons.org/ns#"
   xmlns:rdf="http://www.w3.org/1999/02/22-rdf-syntax-ns#"
   xmlns:svg="http://www.w3.org/2000/svg"
   xmlns="http://www.w3.org/2000/svg"
   xmlns:xlink="http://www.w3.org/1999/xlink"
   xmlns:sodipodi="http://sodipodi.sourceforge.net/DTD/sodipodi-0.dtd"
   xmlns:inkscape="http://www.inkscape.org/namespaces/inkscape"
   width="48px"
   height="48px"
   viewBox="0 0 48 48"
   version="1.1"
   id="svg39"
   sodipodi:docname="application-x-desktop.svg"
   inkscape:version="0.92.2 2405546, 2018-03-11">
  <metadata
     id="metadata43">
    <rdf:RDF>
      <cc:Work
         rdf:about="">
        <dc:format>image/svg+xml</dc:format>
        <dc:type
           rdf:resource="http://purl.org/dc/dcmitype/StillImage" />
      </cc:Work>
    </rdf:RDF>
  </metadata>
  <sodipodi:namedview
     pagecolor="#ffffff"
     bordercolor="#666666"
     borderopacity="1"
     objecttolerance="10"
     gridtolerance="10"
     guidetolerance="10"
     inkscape:pageopacity="0"
     inkscape:pageshadow="2"
     inkscape:window-width="1920"
     inkscape:window-height="1051"
     id="namedview41"
     showgrid="false"
     inkscape:zoom="4.9166667"
     inkscape:cx="24"
     inkscape:cy="24"
     inkscape:window-x="0"
     inkscape:window-y="29"
     inkscape:window-maximized="1"
     inkscape:current-layer="svg39" />
  <!-- Generator: Sketch 41.2 (35397) - http://www.bohemiancoding.com/sketch -->
  <title
     id="title2">application-x-desktop</title>
  <desc
     id="desc4">Created with Sketch.</desc>
  <g
     id="g829">
    <rect
       rx="2"
       ry="1.9047618"
       y="4"
       x="6"
       height="40"
       width="36"
       id="rect834"
       style="opacity:1;fill:#d32f2f;fill-opacity:1;stroke:none;stroke-width:0.92582005;stroke-linecap:round;stroke-linejoin:round;stroke-miterlimit:4;stroke-dasharray:none;stroke-opacity:0.05882353;paint-order:markers stroke fill" />
    <path
       inkscape:connector-curvature="0"
       id="rect866"
       d="M 42,17.242188 A 40,40 0 0 1 23.494141,44 H 40 c 1.108,0 2,-0.849059 2,-1.904297 z"
       style="opacity:0.15;fill:url(#linearGradient877);fill-opacity:1;stroke:none;stroke-width:0.92582005;stroke-linecap:round;stroke-linejoin:round;stroke-miterlimit:4;stroke-dasharray:none;stroke-opacity:0.05882353;paint-order:markers stroke fill" />
  </g>
  <defs
     id="defs11">
    <linearGradient
       inkscape:collect="always"
       xlink:href="#linearGradient875"
       id="linearGradient877"
       x1="32.74707"
       y1="44"
       x2="32.74707"
       y2="17.242188"
       gradientUnits="userSpaceOnUse" />
    <linearGradient
       inkscape:collect="always"
       id="linearGradient875">
      <stop
         style="stop-color:#000000;stop-opacity:1;"
         offset="0"
         id="stop871" />
      <stop
         style="stop-color:#000000;stop-opacity:0;"
         offset="1"
         id="stop873" />
    </linearGradient>
  </defs>
  <g
     id="Page-1"
     style="fill:none;fill-rule:evenodd;stroke:none;stroke-width:1"
     transform="translate(1.5000004e-7,-1.4412585)">
    <g
       id="application-x-desktop">
      <path
         d="m 33.166666,24.916667 c -1.012522,0 -1.833333,0.820811 -1.833333,1.833333 0,1.012522 0.820811,1.833333 1.833333,1.833333 C 34.179189,28.583333 35,27.762522 35,26.75 35,25.737478 34.179189,24.916667 33.166666,24.916667 Z"
         id="path4003"
         inkscape:connector-curvature="0"
         style="fill:#ffffff" />
      <path
         d="m 27.055555,26.138889 c -0.337507,0 -0.611111,0.273604 -0.611111,0.611111 0,0.337507 0.273604,0.611111 0.611111,0.611111 0.337507,0 0.611111,-0.273604 0.611111,-0.611111 0,-0.337507 -0.273604,-0.611111 -0.611111,-0.611111 z"
         id="path3932"
         inkscape:connector-curvature="0"
         style="fill:#ffffff" />
      <path
         d="m 31.021899,20.578954 c -0.87687,0.50626 -1.177308,1.627509 -0.671046,2.504379 0.506261,0.87687 1.62751,1.177308 2.504379,0.671047 0.87687,-0.506261 1.177308,-1.62751 0.671047,-2.50438 -0.506261,-0.87687 -1.62751,-1.177308 -2.50438,-0.671046 z"
         id="path3997"
         inkscape:connector-curvature="0"
         style="fill:#ffffff" />
      <path
         d="m 28.996257,24.145919 c -0.652014,0.174707 -1.038948,0.844896 -0.864241,1.496911 0.174706,0.652013 0.844896,1.038948 1.49691,0.864241 0.652014,-0.174707 1.038948,-0.844896 0.864242,-1.49691 -0.174707,-0.652014 -0.844897,-1.038948 -1.496911,-0.864242 z"
         id="path3995"
         inkscape:connector-curvature="0"
         style="fill:#ffffff" />
      <path
         d="m 26.340633,24.692984 c -0.29229,0.168754 -0.392436,0.542504 -0.223682,0.834794 0.168753,0.29229 0.542503,0.392435 0.834793,0.223682 0.29229,-0.168754 0.392436,-0.542504 0.223682,-0.834793 -0.168754,-0.29229 -0.542503,-0.392436 -0.834793,-0.223683 z"
         id="path3935"
         inkscape:connector-curvature="0"
         style="fill:#ffffff" />
      <path
         d="m 26.99562,17.894767 c -0.506261,0.87687 -0.205823,1.998119 0.671046,2.50438 0.87687,0.506261 1.998119,0.205823 2.50438,-0.671047 C 30.677307,18.851231 30.37687,17.729982 29.5,17.22372 28.62313,16.717459 27.501881,17.017897 26.99562,17.894767 Z"
         id="path3991"
         inkscape:connector-curvature="0"
         style="fill:#ffffff" />
      <path
         d="m 27.024845,21.996671 c -0.477307,0.477308 -0.477307,1.251176 0,1.728483 0.477307,0.477308 1.251176,0.477308 1.728484,0 0.477307,-0.477307 0.477307,-1.251176 0,-1.728483 -0.477308,-0.477307 -1.251176,-0.477308 -1.728484,0 z"
         id="path3989"
         inkscape:connector-curvature="0"
         style="fill:#ffffff" />
      <path
         d="m 24.99854,23.798256 c -0.168754,0.29229 -0.06861,0.666039 0.223682,0.834793 0.29229,0.168753 0.666039,0.06861 0.834793,-0.223682 0.168754,-0.29229 0.06861,-0.66604 -0.223682,-0.834794 -0.29229,-0.168753 -0.66604,-0.06861 -0.834793,0.223683 z"
         id="path3937"
         inkscape:connector-curvature="0"
         style="fill:#ffffff" />
      <path
         d="m 22.166667,17.583333 c -1e-6,1.012522 0.82081,1.833334 1.833333,1.833334 1.012522,0 1.833333,-0.820812 1.833333,-1.833334 C 25.833333,16.570811 25.012522,15.75 24,15.75 c -1.012523,0 -1.833334,0.820811 -1.833333,1.833333 z"
         id="path3985"
         inkscape:connector-curvature="0"
         style="fill:#ffffff" />
      <path
         d="m 24.242928,21.121074 c -0.174706,0.652014 0.212228,1.322203 0.864242,1.49691 0.652014,0.174707 1.322204,-0.212227 1.496911,-0.864241 0.174706,-0.652015 -0.212229,-1.322204 -0.864242,-1.496911 -0.652014,-0.174707 -1.322204,0.212228 -1.496911,0.864242 z"
         id="path3983"
         inkscape:connector-curvature="0"
         style="fill:#ffffff" />
      <path
         d="m 23.388889,23.694444 c 0,0.337508 0.273603,0.611112 0.611111,0.611112 0.337507,0 0.611111,-0.273604 0.611111,-0.611112 0,-0.337507 -0.273604,-0.611111 -0.611111,-0.611111 -0.337508,0 -0.611111,0.273604 -0.611111,0.611111 z"
         id="path3939"
         inkscape:connector-curvature="0"
         style="fill:#ffffff" />
      <path
         d="m 17.828954,19.7281 c 0.50626,0.87687 1.627509,1.177308 2.504379,0.671047 0.87687,-0.506261 1.177308,-1.62751 0.671046,-2.50438 C 20.498118,17.017897 19.37687,16.717459 18.5,17.223721 c -0.87687,0.506261 -1.177308,1.62751 -0.671046,2.504379 z"
         id="path3979"
         inkscape:connector-curvature="0"
         style="fill:#ffffff" />
      <path
         d="m 21.395919,21.753742 c 0.174707,0.652015 0.844896,1.038949 1.49691,0.864242 0.652014,-0.174707 1.038949,-0.844896 0.864242,-1.49691 -0.174707,-0.652015 -0.844896,-1.038949 -1.49691,-0.864242 -0.652014,0.174707 -1.038949,0.844896 -0.864242,1.49691 z"
         id="path3977"
         inkscape:connector-curvature="0"
         style="fill:#ffffff" />
      <path
         d="m 21.942984,24.409367 c 0.168754,0.29229 0.542504,0.392436 0.834793,0.223682 0.29229,-0.168753 0.392436,-0.542503 0.223683,-0.834793 -0.168754,-0.29229 -0.542504,-0.392436 -0.834794,-0.223683 -0.29229,0.168754 -0.392435,0.542504 -0.223682,0.834794 z"
         id="path3941"
         inkscape:connector-curvature="0"
         style="fill:#ffffff" />
      <path
         d="m 15.144767,23.75438 c 0.87687,0.506261 1.998119,0.205823 2.50438,-0.671046 0.506261,-0.876871 0.205823,-1.99812 -0.671047,-2.50438 -0.87687,-0.506262 -1.998119,-0.205824 -2.50438,0.671046 -0.506261,0.87687 -0.205823,1.998119 0.671047,2.50438 z"
         id="path3973"
         inkscape:connector-curvature="0"
         style="fill:#ffffff" />
      <path
         d="m 19.24667,23.725154 c 0.477308,0.477308 1.251177,0.477308 1.728484,1e-6 0.477307,-0.477308 0.477307,-1.251176 1e-6,-1.728484 -0.477308,-0.477307 -1.251177,-0.477307 -1.728484,0 -0.477308,0.477308 -0.477308,1.251176 -10e-7,1.728483 z"
         id="path3971"
         inkscape:connector-curvature="0"
         style="fill:#ffffff" />
      <path
         d="m 21.048255,25.75146 c 0.292291,0.168753 0.66604,0.06861 0.834794,-0.223682 0.168753,-0.29229 0.06861,-0.66604 -0.223683,-0.834794 -0.292289,-0.168753 -0.666039,-0.06861 -0.834793,0.223683 -0.168753,0.292289 -0.06861,0.666039 0.223682,0.834793 z"
         id="path3943"
         inkscape:connector-curvature="0"
         style="fill:#ffffff" />
      <path
         d="m 14.833333,28.583333 c 1.012522,0 1.833333,-0.820811 1.833334,-1.833333 -1e-6,-1.012522 -0.820812,-1.833333 -1.833334,-1.833333 C 13.820811,24.916667 13,25.737478 13,26.75 c 0,1.012522 0.820811,1.833333 1.833333,1.833333 z"
         id="path3967"
         inkscape:connector-curvature="0"
         style="fill:#ffffff" />
      <path
         d="m 18.371073,26.507071 c 0.652014,0.174707 1.322204,-0.212227 1.496911,-0.864241 0.174706,-0.652015 -0.212228,-1.322204 -0.864242,-1.496911 -0.652014,-0.174706 -1.322204,0.212228 -1.49691,0.864242 -0.174707,0.652014 0.212227,1.322203 0.864241,1.49691 z"
         id="path3965"
         inkscape:connector-curvature="0"
         style="fill:#ffffff" />
      <path
         d="m 20.944444,27.361111 c 0.337508,0 0.611111,-0.273604 0.611111,-0.611111 1e-6,-0.337507 -0.273604,-0.611111 -0.611111,-0.611111 -0.337507,0 -0.611111,0.273604 -0.611111,0.611111 0,0.337507 0.273604,0.611111 0.611111,0.611111 z"
         id="path3945"
         inkscape:connector-curvature="0"
         style="fill:#ffffff" />
      <path
         d="m 21.169685,29.415488 -1.213759,3.210694 h 2.431948 l -1.218189,-3.210694 m -0.504994,-0.859932 h 1.014418 l 2.520543,6.451646 h -0.930253 l -0.60245,-1.655046 H 19.68571 l -0.602449,1.655046 h -0.943543 l 2.524973,-6.451646"
         id="path4444"
         inkscape:connector-curvature="0"
         style="fill:#ffffff" />
      <path
         d="m 27.904007,32.574332 c -0.64243,0 -1.087519,0.07346 -1.33527,0.22038 -0.247754,0.146928 -0.37163,0.397559 -0.371628,0.751903 -2e-6,0.282321 0.09219,0.507026 0.276561,0.674114 0.187253,0.164209 0.440766,0.246314 0.760542,0.246314 0.440766,0 0.793669,-0.155565 1.058709,-0.466699 0.267915,-0.314008 0.401874,-0.730289 0.401878,-1.248842 v -0.177174 h -0.790792 m 1.585904,-0.328415 v 2.761289 h -0.795112 v -0.734618 c -0.181497,0.293849 -0.407643,0.51135 -0.678439,0.652513 -0.270802,0.13828 -0.602098,0.20742 -0.99389,0.20742 -0.495507,0 -0.890181,-0.13828 -1.184026,-0.41484 -0.290966,-0.279442 -0.436448,-0.652513 -0.436448,-1.119207 0,-0.544479 0.181493,-0.954998 0.544479,-1.231562 0.365866,-0.276556 0.910344,-0.414836 1.633438,-0.41484 h 1.114886 v -0.07778 c -4e-6,-0.365864 -0.121,-0.648185 -0.362987,-0.846968 -0.239113,-0.201654 -0.576171,-0.302481 -1.011175,-0.302485 -0.276563,4e-6 -0.545922,0.03315 -0.808076,0.09939 -0.262158,0.06627 -0.514231,0.165655 -0.756221,0.298169 V 30.38778 c 0.290964,-0.11235 0.573286,-0.195892 0.846967,-0.250634 0.273678,-0.05761 0.540156,-0.08642 0.799434,-0.08642 0.700041,4e-6 1.222914,0.181499 1.568618,0.544479 0.345697,0.362989 0.518547,0.913229 0.518552,1.650722"
         id="path4446"
         inkscape:connector-curvature="0"
         style="fill:#ffffff" />
    </g>
  </g>
</svg>
