<svg xmlns="http://www.w3.org/2000/svg" xmlns:xlink="http://www.w3.org/1999/xlink" width="48" height="48"><g paint-order="markers stroke fill"><rect rx="2" ry="1.905" y="4" x="6" height="40" width="36" fill="#f9a825"/><path d="M42 17.242A40 40 0 0 1 23.494 44H40c1.108 0 2-.85 2-1.904z" opacity=".15" fill="url(#a)"/></g><defs><linearGradient xlink:href="#b" id="a" x1="32.747" y1="44" x2="32.747" y2="17.242" gradientUnits="userSpaceOnUse"/><linearGradient id="b"><stop offset="0"/><stop offset="1" stop-opacity="0"/></linearGradient></defs><path d="M24 29.5c-.554 0-1 .446-1 1v6c0 .554.446 1 1 1h12c.554 0 1-.446 1-1v-6c0-.554-.446-1-1-1H24zm5.889 1.63c.12 0 .221.025.302.071a.588.588 0 0 1 .198.178c.05.072.09.15.125.232.034.083.078.194.13.332l1.124 2.772c.087.21.13.365.13.46 0 .1-.042.191-.125.274a.405.405 0 0 1-.298.123.39.39 0 0 1-.176-.035.36.36 0 0 1-.123-.1.914.914 0 0 1-.108-.193c-.038-.087-.07-.164-.097-.23l-.205-.54H29.02l-.206.551c-.08.215-.148.36-.205.436-.056.075-.15.111-.279.111a.405.405 0 0 1-.289-.119.37.37 0 0 1-.127-.273c0-.059.01-.12.03-.182.019-.062.052-.148.097-.26l1.098-2.789c.03-.08.069-.177.113-.289.044-.112.09-.205.14-.28a.567.567 0 0 1 .497-.25zm-5.455.075h1.416c.195 0 .36.009.5.025.138.017.263.05.375.1a1.089 1.089 0 0 1 .593.611c.054.14.08.288.08.444 0 .32-.09.576-.271.767-.18.192-.453.328-.82.409.154.082.3.203.441.363.14.16.267.33.377.512.11.18.196.342.258.488.061.145.092.246.092.3a.306.306 0 0 1-.055.169.378.378 0 0 1-.147.132.466.466 0 0 1-.216.047.422.422 0 0 1-.246-.068.662.662 0 0 1-.172-.174 6.825 6.825 0 0 1-.196-.31l-.347-.58a3.189 3.189 0 0 0-.336-.487.83.83 0 0 0-.301-.228 1.028 1.028 0 0 0-.383-.06h-.305v1.378c0 .182-.04.316-.12.402a.405.405 0 0 1-.313.127c-.139 0-.246-.043-.322-.133-.077-.09-.116-.222-.116-.396v-3.305c0-.187.043-.322.127-.406.084-.084.22-.127.407-.127zm8.63 0h1.416c.196 0 .362.009.5.025.14.017.264.05.375.1a1.089 1.089 0 0 1 .594.611c.054.14.08.288.08.444 0 .32-.09.576-.271.767-.18.192-.453.328-.82.409.154.082.3.203.44.363.142.16.268.33.378.512.11.18.196.342.258.488.061.145.091.246.091.3a.306.306 0 0 1-.054.169.378.378 0 0 1-.147.132.466.466 0 0 1-.217.047.422.422 0 0 1-.246-.068.662.662 0 0 1-.171-.174 6.826 6.826 0 0 1-.196-.31l-.347-.58a3.189 3.189 0 0 0-.336-.487.83.83 0 0 0-.301-.228 1.028 1.028 0 0 0-.383-.06h-.305v1.378c0 .182-.04.316-.12.402a.405.405 0 0 1-.313.127c-.139 0-.246-.043-.323-.133-.076-.09-.115-.222-.115-.396v-3.305c0-.187.043-.322.127-.406.084-.084.219-.127.406-.127zm-8.293.652v1.182h.78c.209 0 .385-.018.527-.055a.616.616 0 0 0 .326-.183.532.532 0 0 0 .114-.36.554.554 0 0 0-.344-.52c-.102-.042-.301-.064-.6-.064h-.803zm8.631 0v1.182h.78c.209 0 .384-.018.527-.055a.616.616 0 0 0 .326-.183.532.532 0 0 0 .113-.36.554.554 0 0 0-.343-.52c-.102-.042-.301-.064-.6-.064h-.803zm-3.52.192l-.634 1.771h1.283l-.648-1.771zM13 12.5v-2h2.667l1.333 1-1.333 1zM19 14.5v-2h-2.667L15 13.5l1.333 1zM19 18.5v-2h-2.667L15 17.5l1.333 1zM13 16.5v-2h2.667l1.333 1-1.333 1zM19 22.5v-2h-2.667L15 21.5l1.333 1zM13 20.5v-2h2.667l1.333 1-1.333 1zM19 26.5v-2h-2.667L15 25.5l1.333 1zM13 24.5v-2h2.667l1.333 1-1.333 1zM19 30.5v-2h-2.667L15 29.5l1.333 1zM13 28.5v-2h2.667l1.333 1-1.333 1zM16 37.5c3 0 1-2.62 1-4s0-2-1-2-1 .62-1 2-2 4 1 4zm0-.635a1 1 0 1 0 0-2 1 1 0 0 0 0 2z" fill="#fff" fill-rule="evenodd"/></svg>