<svg xmlns="http://www.w3.org/2000/svg" xmlns:xlink="http://www.w3.org/1999/xlink" width="48" height="48"><g paint-order="markers stroke fill"><rect rx="2" ry="1.905" y="4" x="6" height="40" width="36" fill="#ab47bc"/><path d="M42 17.242A40 40 0 0 1 23.494 44H40c1.108 0 2-.85 2-1.904z" opacity=".15" fill="url(#a)"/></g><defs><linearGradient xlink:href="#b" id="a" x1="32.747" y1="44" x2="32.747" y2="17.242" gradientUnits="userSpaceOnUse"/><linearGradient id="b"><stop offset="0"/><stop offset="1" stop-opacity="0"/></linearGradient></defs><g fill="#fff" fill-rule="evenodd"><path d="M21.086 17.734c.445-.069.894-.119 1.344-.142.08-.02.163-.016.244-.018.639-.02 1.278-.02 1.916.009 1.152.081 2.297.273 3.408.592l-.004.006c-.163.22-.326.44-.486.663-.048.008-.09-.022-.133-.037-.842-.348-1.74-.55-2.643-.66-1.485-.151-3.006-.03-4.431.428-1.05.34-2.062.863-2.845 1.652-.554.567-.98 1.3-1.038 2.104-.054.383.038.765.12 1.137-.31.032-.614.107-.922.155-.866.155-1.731.311-2.597.465-.009-.62.153-1.235.41-1.797.514-1.093 1.403-1.967 2.394-2.636.67-.45 1.394-.817 2.147-1.108a14.118 14.118 0 0 1 3.116-.813z"/><path d="M27.508 18.844c.16-.223.323-.443.486-.663 1.491.437 2.932 1.127 4.109 2.155.48.43.916.918 1.25 1.472.396.653.647 1.4.674 2.166-1.17-.204-2.34-.41-3.51-.616.144-.458.145-.956.047-1.424-.183-.807-.7-1.5-1.325-2.027a6.565 6.565 0 0 0-1.744-1.046l.013-.017z"/><path d="M23.497 21.709a.518.518 0 0 0-.482.328c-.17-.03-.342-.059-.513-.082a4.659 4.659 0 0 0-.03.185c.16.027.321.058.481.092h.02c0 .29.234.523.524.523.23 0 .432-.143.503-.348.194.033.39.07.585.102.522.09 1.037.19 1.56.277.55.1 1.1.19 1.652.288.794.137 1.595.29 2.39.42 1.272.233 2.545.449 3.818.678.263.042.526.092.79.133.008-.062.014-.124.03-.185-.265-.058-.533-.092-.8-.143l-3.51-.616c-.268-.044-.53-.104-.8-.144-.8-.147-1.608-.28-2.41-.42-.08-.021-.158-.024-.237-.042-.192-.032-.382-.075-.575-.102-.801-.145-1.608-.283-2.41-.42-.017-.007-.035-.008-.052-.011a.532.532 0 0 0-.534-.513zM13.027 24.97c.647-.005 1.293-.001 1.94-.002l.002.096c.47-.103.952-.146 1.433-.12.35.032.67.182.983.331-.352.218-.711.428-1.055.659-.384-.296-.905-.296-1.352-.167-.006.048-.01.096-.011.144v3.339h-1.939v-4.28zM19.953 24.964c-.57 0-1.132.005-1.701.01v5.466c.096-.005.191-.015.285-.039.552-.074 1.1-.156 1.652-.226.004-.294 0-.59 0-.885.053-.002.114-.007.167-.01a5.848 5.848 0 0 0 2.4-.678c.43-.243.854-.565 1.051-1.033.169-.39.087-.843-.128-1.2-.282-.458-.752-.767-1.238-.973-.784-.324-1.645-.437-2.488-.432zm.246.471c.497.05.938.333 1.278.689.293.308.504.737.433 1.17-.079.434-.379.79-.718 1.052-.295.216-.636.403-1.003.452-.001-1.119.008-2.243.01-3.363zM24.93 24.97c2.221-.006 4.443 0 6.664-.002.65.002 1.31.006 1.942.174.182.06.425.132.473.343.005 1.255.002 2.51.001 3.765h-1.94c0-1.245-.002-2.49.002-3.735-.117-.102-.285-.098-.43-.116-.4-.01-.798-.003-1.197-.004v3.855h-1.943c-.002-1.03 0-2.059 0-3.088-.006-.225.01-.45-.01-.675a1.497 1.497 0 0 0-.578-.092h-1.04c-.001 1.285.002 2.57-.002 3.855h-1.828a.209.209 0 0 1-.118-.024c.01-1.418.003-2.837.004-4.255z"/></g></svg>