<svg xmlns="http://www.w3.org/2000/svg" xmlns:xlink="http://www.w3.org/1999/xlink" width="48" height="48"><g paint-order="markers stroke fill"><rect rx="2" ry="1.905" y="4" x="6" height="40" width="36" fill="#72cb78"/><path d="M42 17.242A40 40 0 0 1 23.494 44H40c1.108 0 2-.85 2-1.904z" opacity=".15" fill="url(#a)"/></g><defs><linearGradient xlink:href="#b" id="a" gradientUnits="userSpaceOnUse" x1="32.747" y1="44" x2="32.747" y2="17.242"/><linearGradient id="b"><stop offset="0"/><stop offset="1" stop-opacity="0"/></linearGradient></defs><path d="M24 25l-8.17-5.446c-.458-.306-.385-.554.163-.554h16.014c.548 0 .618.25.162.554L24 25zm-9-5l9 6 9-6v10.004c0 .55-.445.996-.993.996H15.993a.994.994 0 0 1-.993-.996V20z" fill="#FFF" fill-rule="evenodd"/></svg>