<svg xmlns="http://www.w3.org/2000/svg" xmlns:xlink="http://www.w3.org/1999/xlink" width="48" height="48"><g paint-order="markers stroke fill"><rect rx="2" ry="1.905" y="4" x="6" height="40" width="36" fill="#8bc34a"/><path d="M42 17.242A40 40 0 0 1 23.494 44H40c1.108 0 2-.85 2-1.904z" opacity=".15" fill="url(#a)"/></g><defs><linearGradient xlink:href="#b" id="a" x1="32.747" y1="44" x2="32.747" y2="17.242" gradientUnits="userSpaceOnUse"/><linearGradient id="b"><stop offset="0"/><stop offset="1" stop-opacity="0"/></linearGradient></defs><path d="M19.5 22l-8 3.354v1.292l8 3.354v-1.585L13.639 26l5.861-2.415V22zm6.462-5L20.5 31h1.554L27.5 17h-1.538zm2.538 5v1.585L34.361 26 28.5 28.415V30l8-3.354v-1.292L28.5 22z" fill="#FFF" fill-rule="evenodd"/></svg>