<svg xmlns="http://www.w3.org/2000/svg" xmlns:xlink="http://www.w3.org/1999/xlink" width="48" height="48"><g paint-order="markers stroke fill"><rect rx="2" ry="1.905" y="4" x="6" height="40" width="36" fill="#0288d1"/><path d="M42 17.242A40 40 0 0 1 23.494 44H40c1.108 0 2-.85 2-1.904z" opacity=".15" fill="url(#a)"/></g><defs><linearGradient xlink:href="#b" id="a" x1="32.747" y1="44" x2="32.747" y2="17.242" gradientUnits="userSpaceOnUse"/><linearGradient id="b"><stop offset="0"/><stop offset="1" stop-opacity="0"/></linearGradient></defs><path d="M15.994 18A.998.998 0 0 0 15 19.002v9.996c0 .547.446 1.002.994 1.002h16.012A.998.998 0 0 0 33 28.998v-9.996c0-.547-.446-1.002-.994-1.002H15.994zm.004 1H18v1h-2v2h2v1h-2v-1l-.002-3zM19 19l10 .002V29l-10-.002V19zm11 .002h2V20h-2v-.998zM22 22v4l4-2-4-2zm8 0h2v1h-2v-1zm-14 3h2v1h-2v-1zm14 0h2v1l.002 3H32h-2v-1h2v-2h-2v-1zm-14 3h2v.998h-2V28z" fill="#fff" fill-rule="evenodd"/></svg>