<svg xmlns="http://www.w3.org/2000/svg" xmlns:xlink="http://www.w3.org/1999/xlink" width="48" height="48"><g paint-order="markers stroke fill"><rect rx="2" ry="1.905" y="4" x="6" height="40" width="36" fill="#f2f2f2"/><path d="M42 17.242A40 40 0 0 1 23.494 44H40c1.108 0 2-.85 2-1.904z" opacity=".15" fill="url(#a)"/></g><defs><linearGradient xlink:href="#b" id="a" x1="32.747" y1="44" x2="32.747" y2="17.242" gradientUnits="userSpaceOnUse"/><linearGradient id="b"><stop offset="0"/><stop offset="1" stop-opacity="0"/></linearGradient></defs><path d="M14 17.5c-.554 0-1 .446-1 1v11c0 .554.446 1 1 1h20c.554 0 1-.446 1-1v-11c0-.554-.446-1-1-1zm4.176 2.72c.202 0 .369.037.504.114a.979.979 0 0 1 .328.297c.083.12.152.248.209.387.057.138.13.323.219.554l1.869 4.62c.146.351.22.607.22.767 0 .166-.07.317-.209.455a.68.68 0 0 1-.5.207.649.649 0 0 1-.293-.06.6.6 0 0 1-.205-.166 1.53 1.53 0 0 1-.177-.323 19.226 19.226 0 0 1-.164-.383l-.342-.898h-2.91l-.342.918c-.134.358-.248.6-.342.725-.094.125-.25.187-.465.187a.677.677 0 0 1-.482-.2.616.616 0 0 1-.211-.454c0-.098.018-.199.05-.303.033-.104.086-.248.16-.434l1.833-4.648.187-.48c.074-.188.152-.344.235-.467a.95.95 0 0 1 .326-.301c.135-.077.303-.113.502-.113zm4.91 0c.205 0 .364.066.475.198.11.132.166.318.166.562v2.038c.25-.26.505-.46.765-.598.26-.138.585-.21.969-.21.443 0 .83.107 1.164.317.334.21.591.514.775.912.184.4.278.872.278 1.418 0 .404-.052.775-.155 1.112a2.64 2.64 0 0 1-.447.877c-.195.247-.432.439-.71.574a2.077 2.077 0 0 1-.92.201c-.206 0-.398-.023-.579-.072a1.708 1.708 0 0 1-.463-.194 2.082 2.082 0 0 1-.324-.246 5.571 5.571 0 0 1-.353-.38v.132c0 .251-.062.44-.182.569a.6.6 0 0 1-.46.191.567.567 0 0 1-.45-.191c-.113-.129-.168-.318-.168-.569V21.04c0-.27.055-.473.164-.611a.545.545 0 0 1 .455-.207zm-4.922 1.528l-1.059 2.953h2.14zm12.994.445c.345 0 .661.05.95.15.288.102.532.232.732.391.2.16.353.33.459.51.106.18.16.35.16.506 0 .16-.06.294-.18.404a.61.61 0 0 1-.431.166.434.434 0 0 1-.276-.084 1.37 1.37 0 0 1-.246-.277 2.021 2.021 0 0 0-.512-.557c-.177-.123-.402-.185-.675-.185-.394 0-.71.155-.951.463-.241.307-.362.728-.362 1.261 0 .251.03.482.092.692.062.21.15.389.268.537.117.148.26.26.425.336.166.076.349.115.547.115.267 0 .495-.062.686-.185.19-.124.36-.313.506-.567.081-.15.169-.267.263-.351a.498.498 0 0 1 .346-.127c.163 0 .299.061.406.185a.598.598 0 0 1 .162.397c0 .166-.05.342-.15.53-.1.19-.25.37-.453.54-.204.17-.46.31-.77.414-.309.104-.657.156-1.045.156-.823 0-1.465-.24-1.927-.72-.463-.48-.694-1.125-.694-1.932 0-.547.105-1.031.317-1.451.211-.42.517-.743.918-.973.4-.23.879-.344 1.435-.344zm-6.049 1.004c-.254 0-.48.07-.68.21a1.376 1.376 0 0 0-.468.599c-.114.262-.17.574-.17.935 0 .531.12.938.363 1.223.243.285.561.428.955.428.336 0 .623-.146.866-.438.242-.291.365-.708.365-1.252 0-.351-.052-.654-.153-.908-.1-.254-.244-.45-.43-.588a1.055 1.055 0 0 0-.648-.209z" fill="gray" fill-rule="evenodd"/></svg>