<svg xmlns="http://www.w3.org/2000/svg" xmlns:xlink="http://www.w3.org/1999/xlink" width="48" height="48"><g paint-order="markers stroke fill"><rect rx="2" ry="1.905" y="4" x="6" height="40" width="36" fill="#32a3d7"/><path d="M42 17.242A40 40 0 0 1 23.494 44H40c1.108 0 2-.85 2-1.904z" opacity=".15" fill="url(#a)"/></g><defs><linearGradient xlink:href="#b" id="a" x1="32.747" y1="44" x2="32.747" y2="17.242" gradientUnits="userSpaceOnUse"/><linearGradient id="b"><stop offset="0"/><stop offset="1" stop-opacity="0"/></linearGradient></defs><g fill="#fff" fill-rule="evenodd"><path d="M26.002 17l-11.004.822A1.095 1.095 0 0 0 14 18.897v10.207c0 .55.447 1.033.998 1.074L26.002 31a.913.913 0 0 0 .998-.922V17.922a.91.91 0 0 0-.998-.922zm-5.635 3.72c.202 0 .371.038.506.114a.972.972 0 0 1 .326.297c.083.12.154.248.211.387.057.138.13.323.217.554l1.871 4.62c.147.351.219.607.219.767a.63.63 0 0 1-.207.455.68.68 0 0 1-.5.207.649.649 0 0 1-.293-.06.6.6 0 0 1-.205-.166 1.521 1.521 0 0 1-.18-.323 19.213 19.213 0 0 1-.164-.383l-.342-.898h-2.91l-.342.918c-.133.358-.247.6-.342.725-.094.125-.248.187-.462.187a.677.677 0 0 1-.483-.2.616.616 0 0 1-.21-.454c0-.098.015-.199.048-.303.033-.104.087-.248.162-.434l1.83-4.648.188-.48c.073-.188.151-.344.234-.467a.957.957 0 0 1 .328-.301 1 1 0 0 1 .5-.113zm-.01 1.528L19.3 25.201h2.137z"/><path d="M33 19.002c0 .002-7.002-.002-7.002-.002C26 19 26 28.998 26 28.998l7.002.002C33 29 33 19.002 33 19.002zm-8 0A1 1 0 0 1 25.998 18h7.004c.551 0 .998.456.998 1.002v9.996A1 1 0 0 1 33.002 30h-7.004c-.551 0-.998-.456-.998-1.002z"/><path d="M27 21.5h5a.5.5 0 0 0 0-1h-5a.5.5 0 0 0 0 1zM27 24.5h5a.5.5 0 0 0 0-1h-5a.5.5 0 0 0 0 1zM27 27.5h5a.5.5 0 0 0 0-1h-5a.5.5 0 0 0 0 1z"/></g></svg>