<svg xmlns="http://www.w3.org/2000/svg" xmlns:xlink="http://www.w3.org/1999/xlink" width="48" height="48"><g paint-order="markers stroke fill"><rect rx="2" ry="1.905" y="4" x="6" height="40" width="36" fill="#66bb6a"/><path d="M42 17.242A40 40 0 0 1 23.494 44H40c1.108 0 2-.85 2-1.904z" opacity=".15" fill="url(#a)"/></g><defs><linearGradient xlink:href="#b" id="a" x1="32.747" y1="44" x2="32.747" y2="17.242" gradientUnits="userSpaceOnUse"/><linearGradient id="b"><stop offset="0"/><stop offset="1" stop-opacity="0"/></linearGradient></defs><g fill="#fff" fill-rule="evenodd"><path d="M26.002 17l-11.004.822A1.095 1.095 0 0 0 14 18.897v10.207c0 .55.447 1.033.998 1.074L26.002 31a.913.913 0 0 0 .998-.922V17.922a.91.91 0 0 0-.998-.922zM19 20.842h3.828c.231 0 .403.052.516.154a.518.518 0 0 1 .168.402c0 .17-.056.306-.168.409-.113.102-.285.154-.516.154h-3.267v1.756h3.01c.22 0 .384.05.493.15.11.1.165.23.165.393a.526.526 0 0 1-.16.398c-.108.103-.274.153-.499.153h-3.01v2.037h3.381c.228 0 .399.052.514.158a.549.549 0 0 1 .174.424c0 .169-.058.306-.174.412-.115.106-.286.158-.514.158H19c-.316 0-.543-.07-.682-.21-.138-.14-.207-.366-.207-.679v-5.38c0-.209.03-.378.092-.51a.579.579 0 0 1 .291-.29c.132-.06.3-.09.506-.09z"/><path d="M33 19.002c0 .002-7.002-.002-7.002-.002C26 19 26 28.998 26 28.998l7.002.002C33 29 33 19.002 33 19.002zm-8 0A1 1 0 0 1 25.998 18h7.004c.551 0 .998.456.998 1.002v9.996A1 1 0 0 1 33.002 30h-7.004c-.551 0-.998-.456-.998-1.002z"/><path d="M27 21.5h5a.5.5 0 0 0 0-1h-5a.5.5 0 0 0 0 1zM27 24.5h5a.5.5 0 0 0 0-1h-5a.5.5 0 0 0 0 1zM27 27.5h5a.5.5 0 0 0 0-1h-5a.5.5 0 0 0 0 1z"/></g></svg>