<svg width="48" height="48" version="1.1" xmlns="http://www.w3.org/2000/svg" xmlns:xlink="http://www.w3.org/1999/xlink">
 <defs>
  <linearGradient id="a" x1="32.747" x2="32.747" y1="44" y2="17.242" gradientUnits="userSpaceOnUse">
   <stop offset="0"/>
   <stop stop-opacity="0" offset="1"/>
  </linearGradient>
 </defs>
 <rect x="6" y="4" width="36" height="40" rx="2" ry="1.905" fill="#674172" style="paint-order:markers stroke fill"/>
 <path d="m12 10v2h2.668l1.332-1-1.332-1h-2.668zm3.332 2-1.332 1 1.332 1h2.668v-2h-2.668zm-3.332 2v2h2.668l1.332-1-1.332-1h-2.668zm3.332 2-1.332 1 1.332 1h2.668v-2h-2.668zm-3.332 2v2h2.668l1.332-1-1.332-1h-2.668zm3.332 2-1.332 1 1.332 1h2.668v-2h-2.668zm-3.332 2v2h2.668l1.332-1-1.332-1h-2.668zm3.332 2-1.332 1 1.332 1h2.668v-2h-2.668zm-3.332 2v2h2.668l1.332-1-1.332-1h-2.668zm3.332 2-1.332 1 1.332 1h2.668v-2h-2.668zm7.668 1c-0.554 0-1 0.446-1 1v6c0 0.554 0.446 1 1 1h12c0.554 0 1-0.446 1-1v-6c0-0.554-0.446-1-1-1h-12zm9.0254 1.9414c0.72274 0 1.1758 0.46556 1.1758 1.1758 0 0.79154-0.63504 1.6007-1.584 2.4844 0.20965-0.016259 0.45798-0.039062 0.66211-0.039062h1.1191v0.42969h-2.543v-0.29297c1.2689-1.0897 1.8535-1.8813 1.8535-2.5645 0-0.45541-0.24208-0.78711-0.74414-0.78711-0.33103 0-0.61721 0.2007-0.83789 0.46094l-0.29297-0.28125c0.33103-0.3524 0.67832-0.58594 1.1914-0.58594zm-17.025 0.058594c-1 0-1 0.62-1 2s-2 4 1 4 1-2.62 1-4 0-2-1-2zm9.2344 0.017578h1.2031c0.82205 0 1.3906 0.27133 1.3906 0.9707 0 0.39577-0.21502 0.74206-0.5957 0.86133v0.027344c0.48551 0.092166 0.82812 0.40707 0.82812 0.94922 0 0.7807-0.63035 1.166-1.5352 1.166h-1.291v-3.9746zm3.5215 0h2.5703v0.29297l-2.1348 3.252h2.1562v0.42969h-2.7852v-0.29883l2.1348-3.252h-1.9414v-0.42383zm-3.0078 0.39648v1.2949h0.60156c0.69516 0 0.97656-0.25506 0.97656-0.65625 0-0.46625-0.32613-0.63867-0.95508-0.63867h-0.62305zm0 1.6797v1.4961h0.70703c0.69516 0 1.1035-0.24257 1.1035-0.7793 0-0.49336-0.39732-0.7168-1.1035-0.7168h-0.70703zm-9.748 1.2715c1.3333 0 1.3333 2 0 2s-1.3333-2 0-2z" fill="#fff" fill-rule="evenodd"/>
 <path d="m42 17.242a40 40 0 0 1-18.506 26.758h16.506c1.108 0 2-0.85 2-1.904z" fill="url(#a)" opacity=".15" style="paint-order:markers stroke fill"/>
</svg>
