<svg xmlns="http://www.w3.org/2000/svg" xmlns:xlink="http://www.w3.org/1999/xlink" width="48" height="48"><g paint-order="markers stroke fill"><rect rx="2" ry="1.905" y="4" x="6" height="40" width="36" fill="#5294e2"/><path d="M42 17.242A40 40 0 0 1 23.494 44H40c1.108 0 2-.85 2-1.904z" opacity=".15" fill="url(#a)"/></g><defs><linearGradient id="c"><stop offset="0"/><stop offset="1" stop-opacity="0"/></linearGradient><linearGradient xlink:href="#b" id="a" gradientUnits="userSpaceOnUse" x1="32.747" y1="44" x2="32.747" y2="17.242"/><linearGradient id="b"><stop offset="0"/><stop offset="1" stop-opacity="0"/></linearGradient><linearGradient xlink:href="#c" id="d" x1="21.285" y1="35.706" x2="21.285" y2="26.367" gradientUnits="userSpaceOnUse"/></defs><path d="M9.808 23.204s5.244 10.713 13.116 12.158c7.868 1.447 11.992-1.924 10.866-5.295-1.124-3.37-6.994-6.502-10.617-3.61-3.623 2.888-3.744 2.044-6.492.962-2.748-1.083-4.498-6.502-4.498-6.502s-1.749-4.093-3.122-2.288c-1.376 1.809.748 4.575.748 4.575m0 0" fill="url(#d)" opacity=".1"/><path d="M16.329 14c-.321.024-.784.232-1.456.818-1.277.752-.863 1.808-.555 2.316.222-.345.615-.811 1.27-1.444.605-.583 1.187-.852 1.667-.999l-.265-.354c-.145-.19-.337-.35-.661-.327m1.376 1.278a4.601 4.601 0 0 0-1.72.845c-.76.6-1.091 1.134-1.244 1.502l4.393 3.815c.182-.364.417-.736.74-1.09a5.421 5.421 0 0 1 1.01-.848l-3.176-4.224m7.485 4.2c-.251 0-.515.01-.767.017-1.174.068-2.252.29-3.07.545-.013.02-.036-.01-.053 0-.211.166-.466.418-.846.82a4.54 4.54 0 0 0-.767 1.039c-.007.02-.017.055-.027.082-.92 2.551.176 6.85 4.208 7.848 4.57 1.127 4.816-.092 6.773 1.254 1.968 1.342.867 3.375 1.8 2.81.479-.286 1.997-2.425 1.432-5.913-.613-3.736-2.206-5.725-3.81-7.085-1.245-1.056-3.09-1.417-4.87-1.417m-.003 0" fill="#fff"/></svg>