<svg xmlns="http://www.w3.org/2000/svg" xmlns:xlink="http://www.w3.org/1999/xlink" width="48" height="48"><g paint-order="markers stroke fill"><rect width="36" height="40" x="6" y="4" ry="1.905" rx="2" fill="#f62459"/><path d="M42 17.242A40 40 0 0 1 23.494 44H40c1.108 0 2-.85 2-1.904z" opacity=".15" fill="url(#a)"/></g><defs><linearGradient xlink:href="#b" id="a" gradientUnits="userSpaceOnUse" x1="32.747" y1="44" x2="32.747" y2="17.242"/><linearGradient id="b"><stop offset="0"/><stop offset="1" stop-opacity="0"/></linearGradient></defs><path d="M16.5 15v6H15v9h4.5v3h9v-3H33v-9h-1.5v-6zm1.5 1.5h12V21h-1.5v-1.5h-9V21H18zm1.5 0V18h9v-1.5zm-3 6h15v6H30V27H18v1.5h-1.5zM27 24v1.5h3V24zm-6 6h6v1.5h-6z" fill="#fff"/></svg>