<svg xmlns="http://www.w3.org/2000/svg" xmlns:xlink="http://www.w3.org/1999/xlink" width="48" height="48"><g paint-order="markers stroke fill"><rect rx="2" ry="1.905" y="4" x="6" height="40" width="36" fill="#ab47bc"/><path d="M42 17.242A40 40 0 0 1 23.494 44H40c1.108 0 2-.85 2-1.904z" opacity=".15" fill="url(#a)"/></g><defs><linearGradient xlink:href="#b" id="a" x1="32.747" y1="44" x2="32.747" y2="17.242" gradientUnits="userSpaceOnUse"/><linearGradient id="b"><stop offset="0"/><stop offset="1" stop-opacity="0"/></linearGradient></defs><path d="M29.604 18.988l.531 9.581c-.878-.219-1.96-.033-2.877.124-1.725.296-2.93 1.605-2.69 2.924.238 1.318 1.83 2.148 3.556 1.852 1.7-.292 3.97-.681 3.62-2.98l-.695-12.53a.748.748 0 0 0-.245-.515.997.997 0 0 0-.67-.401L19.34 15.526a.996.996 0 0 0-.452.04.75.75 0 0 0-.779.808l.784 9.994c-.87-.202-1.932-.02-2.834.135-1.725.296-2.93 1.605-2.69 2.923.238 1.319 1.83 2.148 3.556 1.852 1.686-.289 3.933-.674 3.628-2.922l-.843-10.759 9.895 1.39z" fill="#FFF" fill-rule="evenodd"/></svg>