<?xml version="1.0" encoding="UTF-8" standalone="no"?>
<svg
   xmlns:dc="http://purl.org/dc/elements/1.1/"
   xmlns:cc="http://creativecommons.org/ns#"
   xmlns:rdf="http://www.w3.org/1999/02/22-rdf-syntax-ns#"
   xmlns:svg="http://www.w3.org/2000/svg"
   xmlns="http://www.w3.org/2000/svg"
   xmlns:xlink="http://www.w3.org/1999/xlink"
   xmlns:sodipodi="http://sodipodi.sourceforge.net/DTD/sodipodi-0.dtd"
   xmlns:inkscape="http://www.inkscape.org/namespaces/inkscape"
   width="48px"
   height="48px"
   viewBox="0 0 48 48"
   version="1.1"
   id="svg25"
   sodipodi:docname="application-vnd.ms-access.svg"
   inkscape:version="0.92.2 2405546, 2018-03-11">
  <metadata
     id="metadata29">
    <rdf:RDF>
      <cc:Work
         rdf:about="">
        <dc:format>image/svg+xml</dc:format>
        <dc:type
           rdf:resource="http://purl.org/dc/dcmitype/StillImage" />
      </cc:Work>
    </rdf:RDF>
  </metadata>
  <sodipodi:namedview
     pagecolor="#ffffff"
     bordercolor="#666666"
     borderopacity="1"
     objecttolerance="10"
     gridtolerance="10"
     guidetolerance="10"
     inkscape:pageopacity="0"
     inkscape:pageshadow="2"
     inkscape:window-width="826"
     inkscape:window-height="566"
     id="namedview27"
     showgrid="false"
     inkscape:zoom="4.9166667"
     inkscape:cx="42.878288"
     inkscape:cy="15.593851"
     inkscape:window-x="876"
     inkscape:window-y="115"
     inkscape:window-maximized="0"
     inkscape:current-layer="svg25" />
  <!-- Generator: Sketch 41.2 (35397) - http://www.bohemiancoding.com/sketch -->
  <title
     id="title2">application-vnd.ms-access</title>
  <desc
     id="desc4">Created with Sketch.</desc>
  <g
     id="g829">
    <rect
       rx="2"
       ry="1.9047618"
       y="4"
       x="6"
       height="40"
       width="36"
       id="rect834"
       style="opacity:1;fill:#32a3d7;fill-opacity:1;stroke:none;stroke-width:0.92582005;stroke-linecap:round;stroke-linejoin:round;stroke-miterlimit:4;stroke-dasharray:none;stroke-opacity:0.05882353;paint-order:markers stroke fill" />
    <path
       inkscape:connector-curvature="0"
       id="rect866"
       d="M 42,17.242188 A 40,40 0 0 1 23.494141,44 H 40 c 1.108,0 2,-0.849059 2,-1.904297 z"
       style="opacity:0.15;fill:url(#linearGradient877);fill-opacity:1;stroke:none;stroke-width:0.92582005;stroke-linecap:round;stroke-linejoin:round;stroke-miterlimit:4;stroke-dasharray:none;stroke-opacity:0.05882353;paint-order:markers stroke fill" />
  </g>
  <defs
     id="defs11">
    <linearGradient
       x1="90.7002767%"
       y1="6.56534831%"
       x2="35.3271484%"
       y2="64.1438802%"
       id="linearGradient-1">
      <stop
         stop-color="#93DEF2"
         offset="0%"
         id="stop6" />
      <stop
         stop-color="#5ABADF"
         offset="100%"
         id="stop8" />
    </linearGradient>
    <linearGradient
       inkscape:collect="always"
       xlink:href="#linearGradient875"
       id="linearGradient877"
       x1="32.74707"
       y1="44"
       x2="32.74707"
       y2="17.242188"
       gradientUnits="userSpaceOnUse" />
    <linearGradient
       inkscape:collect="always"
       id="linearGradient875">
      <stop
         style="stop-color:#000000;stop-opacity:1;"
         offset="0"
         id="stop871" />
      <stop
         style="stop-color:#000000;stop-opacity:0;"
         offset="1"
         id="stop873" />
    </linearGradient>
  </defs>
  <g
     id="g68"
     transform="translate(1,2.198084e-5)">
    <path
       id="Rectangle-232"
       d="M 25.001953,17 13.998047,17.822266 C 13.447034,17.863429 13,18.344845 13,18.896484 v 10.207032 c 0,0.549954 0.44659,1.033021 0.998047,1.074218 L 25.001953,31 C 25.552966,31.041164 26,30.627567 26,30.078125 V 17.921875 C 26,17.365955 25.55341,16.958803 25.001953,17 Z m -5.634765,3.720703 c 0.201823,0 0.370767,0.03678 0.505859,0.113281 0.135091,0.0765 0.243164,0.176431 0.326172,0.296875 0.08301,0.120443 0.15397,0.248372 0.210937,0.386719 0.05697,0.138347 0.128906,0.323567 0.216797,0.554688 l 1.871094,4.61914 c 0.146485,0.351564 0.21875,0.608072 0.21875,0.767578 0,0.166016 -0.06868,0.316732 -0.207031,0.455078 -0.138347,0.138347 -0.304687,0.207032 -0.5,0.207032 -0.113933,0 -0.211588,-0.01986 -0.292969,-0.06055 -0.08138,-0.04069 -0.149739,-0.09603 -0.205078,-0.166016 -0.05534,-0.06999 -0.116211,-0.177408 -0.179688,-0.322265 -0.06348,-0.144858 -0.118489,-0.272135 -0.164062,-0.382813 l -0.341797,-0.898437 h -2.910156 l -0.341797,0.917968 c -0.133464,0.358075 -0.247395,0.599284 -0.341797,0.72461 -0.0944,0.125326 -0.248046,0.1875 -0.462891,0.1875 -0.182292,0 -0.342448,-0.06575 -0.482422,-0.199219 -0.139975,-0.133464 -0.210937,-0.285806 -0.210937,-0.455078 0,-0.09766 0.01628,-0.198567 0.04883,-0.302735 0.03255,-0.104167 0.08724,-0.248045 0.162109,-0.433593 l 1.830079,-4.648438 c 0.05208,-0.133464 0.114256,-0.293292 0.1875,-0.480469 0.07324,-0.187174 0.151367,-0.343098 0.234374,-0.466796 0.08301,-0.123699 0.193033,-0.224285 0.328126,-0.300782 0.135092,-0.0765 0.301431,-0.113281 0.5,-0.113281 z m -0.0098,1.527344 -1.058594,2.953125 h 2.136719 z"
       style="fill:#ffffff;fill-rule:evenodd;stroke:none;stroke-width:1"
       inkscape:connector-curvature="0" />
    <path
       style="fill:#ffffff;fill-rule:evenodd;stroke:none;stroke-width:1"
       inkscape:connector-curvature="0"
       id="Rectangle-233"
       d="M 32,19.002473 C 32,19.00349 24.998446,19 24.998446,19 24.999895,19.000019 25,28.997527 25,28.997527 25,28.99651 32.001554,29 32.001554,29 32.000105,28.999981 32,19.002473 32,19.002473 Z m -8,0 C 24,18.448823 24.446311,18 24.997545,18 h 7.00491 C 32.553384,18 33,18.455761 33,19.002473 v 9.995054 C 33,29.551177 32.553689,30 32.002455,30 h -7.00491 C 24.446616,30 24,29.544239 24,28.997527 Z" />
    <path
       style="fill:#ffffff;fill-rule:evenodd;stroke:none;stroke-width:1"
       inkscape:connector-curvature="0"
       id="Path-381"
       d="m 26,21.5 h 5 c 0.276142,0 0.5,-0.223858 0.5,-0.5 0,-0.276142 -0.223858,-0.5 -0.5,-0.5 h -5 c -0.276142,0 -0.5,0.223858 -0.5,0.5 0,0.276142 0.223858,0.5 0.5,0.5 z" />
    <path
       style="fill:#ffffff;fill-rule:evenodd;stroke:none;stroke-width:1"
       inkscape:connector-curvature="0"
       id="path19"
       d="m 26,24.5 h 5 c 0.276142,0 0.5,-0.223858 0.5,-0.5 0,-0.276142 -0.223858,-0.5 -0.5,-0.5 h -5 c -0.276142,0 -0.5,0.223858 -0.5,0.5 0,0.276142 0.223858,0.5 0.5,0.5 z" />
    <path
       style="fill:#ffffff;fill-rule:evenodd;stroke:none;stroke-width:1"
       inkscape:connector-curvature="0"
       id="path21"
       d="m 26,27.5 h 5 c 0.276142,0 0.5,-0.223858 0.5,-0.5 0,-0.276142 -0.223858,-0.5 -0.5,-0.5 h -5 c -0.276142,0 -0.5,0.223858 -0.5,0.5 0,0.276142 0.223858,0.5 0.5,0.5 z" />
  </g>
</svg>
