<?xml version="1.0" encoding="UTF-8" standalone="no"?>
<svg
   xmlns:dc="http://purl.org/dc/elements/1.1/"
   xmlns:cc="http://creativecommons.org/ns#"
   xmlns:rdf="http://www.w3.org/1999/02/22-rdf-syntax-ns#"
   xmlns:svg="http://www.w3.org/2000/svg"
   xmlns="http://www.w3.org/2000/svg"
   xmlns:xlink="http://www.w3.org/1999/xlink"
   xmlns:sodipodi="http://sodipodi.sourceforge.net/DTD/sodipodi-0.dtd"
   xmlns:inkscape="http://www.inkscape.org/namespaces/inkscape"
   width="48px"
   height="48px"
   viewBox="0 0 48 48"
   version="1.1"
   id="svg21"
   sodipodi:docname="application-dicom.svg"
   inkscape:version="0.92.4 (5da689c313, 2019-01-14)">
  <metadata
     id="metadata25">
    <rdf:RDF>
      <cc:Work
         rdf:about="">
        <dc:format>image/svg+xml</dc:format>
        <dc:type
           rdf:resource="http://purl.org/dc/dcmitype/StillImage" />
        <dc:title>application-atom+xml</dc:title>
      </cc:Work>
    </rdf:RDF>
  </metadata>
  <sodipodi:namedview
     pagecolor="#ffffff"
     bordercolor="#666666"
     borderopacity="1"
     objecttolerance="10"
     gridtolerance="10"
     guidetolerance="10"
     inkscape:pageopacity="0"
     inkscape:pageshadow="2"
     inkscape:window-width="1221"
     inkscape:window-height="687"
     id="namedview23"
     showgrid="false"
     inkscape:zoom="9.8333335"
     inkscape:cx="24.70202"
     inkscape:cy="21.488659"
     inkscape:window-x="94"
     inkscape:window-y="345"
     inkscape:window-maximized="0"
     inkscape:current-layer="svg21" />
  <!-- Generator: Sketch 41.2 (35397) - http://www.bohemiancoding.com/sketch -->
  <title
     id="title2">application-atom+xml</title>
  <desc
     id="desc4">Created with Sketch.</desc>
  <g
     id="g1185">
    <rect
       style="opacity:1;fill:#687583;fill-opacity:1;stroke:none;stroke-width:0.92582005;stroke-linecap:round;stroke-linejoin:round;stroke-miterlimit:4;stroke-dasharray:none;stroke-opacity:0.05882353;paint-order:markers stroke fill"
       id="rect1181"
       width="36"
       height="40"
       x="6"
       y="4"
       ry="1.9047618"
       rx="2" />
    <path
       style="opacity:0.15;fill:url(#linearGradient1187);fill-opacity:1;stroke:none;stroke-width:0.92582005;stroke-linecap:round;stroke-linejoin:round;stroke-miterlimit:4;stroke-dasharray:none;stroke-opacity:0.05882353;paint-order:markers stroke fill"
       d="M 42,17.242188 A 40,40 0 0 1 23.494141,44 H 40 c 1.108,0 2,-0.849059 2,-1.904297 z"
       id="path1183"
       inkscape:connector-curvature="0" />
  </g>
  <defs
     id="defs11">
    <linearGradient
       inkscape:collect="always"
       xlink:href="#linearGradient875"
       id="linearGradient1187"
       gradientUnits="userSpaceOnUse"
       x1="32.74707"
       y1="44"
       x2="32.74707"
       y2="17.242188" />
    <linearGradient
       inkscape:collect="always"
       id="linearGradient875">
      <stop
         style="stop-color:#000000;stop-opacity:1;"
         offset="0"
         id="stop871" />
      <stop
         style="stop-color:#000000;stop-opacity:0;"
         offset="1"
         id="stop873" />
    </linearGradient>
  </defs>
  <path
     inkscape:connector-curvature="0"
     style="fill:#ffffff;stroke-width:1"
     d="m 22.6125,13.50075 c -1.026,0 -2.364,0.609 -3.5865,1.6275 -0.7335,0.33 -1.251,1.092 -1.251,1.9785 0,0.2775 0.0495,0.5505 0.147,0.8025 -1.269,0.2565 -2.2275,1.4235 -2.2275,2.8245 0,0.291 0.0405,0.579 0.123,0.855 -0.5235,0.54 -0.8175,1.275001 -0.8175,2.049 0,0.606 0.1785,1.167 0.486,1.6305 -0.318,0.481501 -0.486,1.0425 -0.486,1.6335 0,1.047 0.5445,2.0085 1.41,2.514 -0.015,0.129 -0.021,0.261 -0.021,0.3915 0,1.413 0.882,2.6595 2.16,3.0855 0.5565,0.996 1.5675,1.6065 2.6745,1.6065 1.215,0 2.2695,-0.732 2.778,-1.797 0.5085,1.065 1.56,1.797 2.775,1.797 1.107,0 2.121,-0.6105 2.6775,-1.6065 1.278,-0.426 2.16,-1.674 2.16,-3.0855 0,-0.1305 -0.009,-0.261 -0.024,-0.3915 0.864,-0.5055 1.41,-1.467 1.41,-2.514 0,-0.591 -0.1665,-1.152 -0.486,-1.6335 0.306,-0.464999 0.486,-1.026 0.486,-1.6305 0,-0.773999 -0.2955,-1.515 -0.8175,-2.049 0.0825,-0.2775 0.126,-0.564 0.126,-0.855 0,-1.401 -0.9615,-2.568 -2.2305,-2.8245 0.0975,-0.252 0.147,-0.525 0.147,-0.8025 0,-0.8865 -0.516,-1.6485 -1.251,-1.9785 -1.2225,-1.0185 -2.5605,-1.6275 -3.5865,-1.6275 -0.57,0 -1.074,0.2955 -1.386,0.744 -0.312,-0.45 -0.819,-0.744 -1.389,-0.744 m 0,0.6795 c 0.5865,0 1.062,0.501 1.062,1.1145 v 4.3995 c -0.2925,-0.2415 -0.6615,-0.387 -1.062,-0.387 -0.18,0 -0.327,0.1545 -0.327,0.342 0,0.1875 0.147,0.339 0.327,0.339 0.5865,0 1.062,0.498 1.062,1.1115 v 8.178 c -0.405,-0.546 -0.9735,-0.9555 -1.6455,-1.1445 -0.174,-0.048 -0.354,0.0585 -0.4005,0.24 -0.0465,0.1815 0.0555,0.3675 0.2295,0.4155 1.068,0.3 1.815,1.3155 1.815,2.4705 0,1.413 -1.0995,2.5635 -2.451,2.5635 -0.912,0 -1.743,-0.5265 -2.169,-1.3725 -0.042,-0.084 -0.1155,-0.144 -0.2025,-0.1695 -1.068,-0.3 -1.812,-1.3155 -1.812,-2.4705 0,-0.1725 0.015,-0.348 0.0465,-0.5175 0.03,-0.156 -0.0465,-0.3135 -0.186,-0.378 -0.7605,-0.3525 -1.251,-1.141499 -1.251,-2.01 0,-0.3945 0.099,-0.771 0.285,-1.104 0.486,0.4485 1.122,0.72 1.818,0.72 0.18,0 0.324,-0.1545 0.324,-0.342 0,-0.1875 -0.144,-0.338999 -0.324,-0.338999 -1.1595,0 -2.1045,-0.987001 -2.1045,-2.2005 0,-0.6525 0.276,-1.269 0.756,-1.689001 0.108,-0.093 0.144,-0.2505 0.0915,-0.386999 -0.1035,-0.265501 -0.153,-0.5445 -0.153,-0.828001 0,-1.2135 0.9435,-2.1975 2.1045,-2.1975 1.1595,0 2.1045,0.984 2.1045,2.1975 0,0.1875 0.144,0.342001 0.324,0.342001 0.18,0 0.327,-0.154501 0.327,-0.342001 0,-1.5255 -1.1415,-2.775 -2.577,-2.871 -0.1305,-0.228 -0.1995,-0.489 -0.1995,-0.7575 0,-0.606 0.3525,-1.128 0.8535,-1.353 0.0195,-0.0165 0.0405,-0.018 0.0585,-0.0255 0.156,-0.0615 0.321,-0.0975 0.498,-0.0975 0.5445,0 1.0335,0.318 1.2705,0.831 0.078,0.1695 0.2715,0.2385 0.432,0.1575 0.162,-0.0825 0.231,-0.2835 0.153,-0.453 -0.2715,-0.585 -0.7875,-1.008 -1.38,-1.1565 0.831,-0.5295 1.6485,-0.831 2.301,-0.831 z m 2.775,0 c 0.6525,0 1.4715,0.3015 2.301,0.831 -0.5925,0.1485 -1.1055,0.5715 -1.377,1.1565 -0.078,0.1695 -0.0105,0.3705 0.15,0.453 0.162,0.0825 0.354,0.0165 0.432,-0.159 0.2385,-0.513 0.726,-0.831 1.2705,-0.831 0.1755,0 0.342,0.0345 0.498,0.0945 0.018,0.0165 0.039,0.0195 0.0585,0.0255 0.501,0.2265 0.8535,0.747 0.8535,1.3545 0,0.2685 -0.0705,0.5265 -0.1995,0.7545 -1.437,0.096 -2.577,1.3485 -2.577,2.874001 0,0.1875 0.147,0.342 0.327,0.342 0.18,0 0.327,-0.1545 0.327,-0.342 0,-1.213501 0.9405,-2.200501 2.1015,-2.200501 1.1595,0 2.1045,0.987 2.1045,2.200501 0,0.2835 -0.0495,0.5625 -0.153,0.828 -0.0525,0.1365 -0.0165,0.2925 0.0915,0.387 0.48,0.42 0.756,1.036499 0.756,1.689 0,1.2135 -0.9435,2.2005 -2.1045,2.2005 -0.18,0 -0.324,0.151499 -0.324,0.338999 0,0.1875 0.144,0.342001 0.324,0.342001 0.6975,0 1.3365,-0.273 1.821,-0.72 0.1875,0.334499 0.282,0.709499 0.282,1.104 0,0.867 -0.4905,1.656 -1.251,2.01 -0.1395,0.0645 -0.216,0.222 -0.186,0.378 0.033,0.167999 0.0495,0.3435 0.0495,0.517499 0,1.155001 -0.7485,2.1705 -1.815,2.4705 -0.087,0.0255 -0.1605,0.0855 -0.2025,0.1695 -0.426,0.846 -1.257,1.3725 -2.169,1.3725 -1.3515,0 -2.451,-1.1505 -2.451,-2.5635 0,-0.0975 -0.0045,-0.189 -0.012,-0.2835 0.0075,-0.0285 0.012,-0.06 0.012,-0.0915 v -11.2335 c 0,-0.612 0.477,-1.1145 1.062,-1.1145 0.18,0 0.327,-0.1515 0.327,-0.339 0,-0.1875 -0.147,-0.342 -0.327,-0.342 -0.4005,0 -0.7695,0.1455 -1.062,0.387 v -2.9475 c 0,-0.6135 0.477,-1.1145 1.062,-1.1145 m 4.8585,5.853 c -0.18,0 -0.324,0.1545 -0.324,0.342 0,1.2135 -0.9435,2.1975 -2.1045,2.1975 -0.57,0 -1.104,-0.2325 -1.5,-0.6585 -0.126,-0.1335 -0.33,-0.138 -0.459,0 -0.129,0.1305 -0.132,0.345 -0.006,0.48 0.4515,0.4815 1.0335,0.774 1.665,0.846 0.15,1.035 1.008,1.8345 2.0385,1.8345 0.18,0 0.324,-0.1545 0.324,-0.342 0,-0.1875 -0.144,-0.339 -0.324,-0.339 h -0.003 c -0.6735,0 -1.236,-0.498 -1.374,-1.1595 1.35,-0.1845 2.3955,-1.3905 2.3955,-2.8515 0,-0.1875 -0.147,-0.342 -0.327,-0.342 z m -11.7975,0.357 c -0.18,0 -0.327,0.1545 -0.327,0.342 0,1.461 1.0485,2.6715 2.3985,2.856 -0.138,0.6615 -0.7035,1.1595 -1.377,1.1595 -0.18,0 -0.327,0.1545 -0.327,0.342 0,0.1875 0.147,0.339 0.327,0.339 1.032,0 1.887,-0.795 2.037,-1.8315 0.6315,-0.0705 1.215,-0.3645 1.665,-0.846 0.126,-0.1335 0.1215,-0.351 -0.006,-0.483 -0.129,-0.1305 -0.333,-0.129 -0.459,0 -0.399,0.426 -0.933,0.6615 -1.5,0.6615 -1.1595,0 -2.1045,-0.987 -2.1045,-2.2005 0,-0.1875 -0.144,-0.342 -0.324,-0.342 z m 6.939,5.0865 c -0.18,0 -0.324,0.1545 -0.324,0.342 0,0.1875 0.144,0.339 0.324,0.339 1.1595,0 2.1045,0.987 2.1045,2.2005 0,0.078 -0.0045,0.1575 -0.012,0.234 -1.0095,0.4275 -1.722,1.464 -1.722,2.6715 0,0.1875 0.144,0.339 0.324,0.339 0.18,0 0.327,-0.1515 0.327,-0.339 0,-1.2135 0.9435,-2.2005 2.1045,-2.2005 0.18,0 0.324,-0.1545 0.324,-0.342 0,-0.1875 -0.144,-0.339 -0.324,-0.339 -0.126,0 -0.2505,0.018 -0.3705,0.0285 0,-0.018 0,-0.0345 0,-0.048 0,-1.5885 -1.236,-2.88 -2.754,-2.88 z m -3.816,0.726 c -1.5195,0 -2.754,1.2915 -2.754,2.88 0,0.0165 0,0.033 0,0.048 -0.1215,-0.0165 -0.243,-0.027 -0.3675,-0.027 -0.18,0 -0.327,0.1515 -0.327,0.339 0,0.1875 0.147,0.342 0.327,0.342 1.1595,0 2.1045,0.987 2.1045,2.2005 0,0.1875 0.144,0.342 0.324,0.342 0.18,0 0.327,-0.1545 0.327,-0.342 0,-1.2075 -0.7155,-2.2425 -1.725,-2.6715 -0.0075,-0.078 -0.012,-0.1545 -0.012,-0.231 0,-1.2135 0.9435,-2.2005 2.1045,-2.2005 0.18,0 0.327,-0.1545 0.327,-0.342 0,-0.1875 -0.147,-0.339 -0.327,-0.339"
     id="path2" />
</svg>
