<svg xmlns="http://www.w3.org/2000/svg" xmlns:xlink="http://www.w3.org/1999/xlink" width="48" height="48"><g paint-order="markers stroke fill"><rect rx="2" ry="1.905" y="4" x="6" height="40" width="36" fill="#32a3d7"/><path d="M42 17.242A40 40 0 0 1 23.494 44H40c1.108 0 2-.85 2-1.904z" opacity=".15" fill="url(#a)"/></g><defs><linearGradient xlink:href="#b" id="a" x1="32.747" y1="44" x2="32.747" y2="17.242" gradientUnits="userSpaceOnUse"/><linearGradient id="b"><stop offset="0"/><stop offset="1" stop-opacity="0"/></linearGradient></defs><path d="M20.027 32.841c-.358-.093-.322-.193.268-.747 1.019-.952 1.188-1.9.899-5.019-.231-2.488-.284-2.678-.672-2.47-.843.452-1.894-.13-3.09-1.706-.59-.78-.646-1.008-.545-2.221.061-.744.189-1.642.282-1.996.142-.543.097-.644-.297-.644-.257 0-.599-.16-.76-.355-.408-.492.319-1.282 1.18-1.282.35 0 .768-.158.928-.351.414-.498 1.045-.435 1.755.175.754.65 1.01 2.152.587 3.436-.478 1.452-.147 1.594.524.223.375-.766.904-1.435 1.34-1.693.396-.234.975-.829 1.287-1.322.312-.494.702-.984.868-1.09.51-.326 1.91-.774 2.433-.779.712-.015 1.667.828 1.837 1.603.08.366.51 1.23.954 1.918.444.689.806 1.374.806 1.52 0 .148.315.667.702 1.151.578.727.7 1.093.692 2.079-.01 1.35-.738 3.072-1.005 2.378-.084-.219-.05-.592.078-.83.265-.496.031-2.697-.257-2.41-.2.202-.331 2.35-.276 4.515.074 2.81-.063 5.458-.284 5.53-.567.18-.815-.286-.582-1.097.35-1.221.277-4.468-.111-4.98-.18-.238-.396-.842-.48-1.344-.086-.503-.246-.97-.359-1.038-.369-.228-.925 1.248-.925 2.452 0 .943-.142 1.378-.702 2.152-.791 1.093-.853 1.415-.35 1.834.39.325.467 1.07.13 1.278-.122.075-.437-.096-.702-.381-.375-.402-.481-.435-.481-.15 0 .427-.867.716-1.346.45-.256-.143-.194-.27.275-.58.838-.548.757-.998-.363-2.022-.873-.798-.95-.959-.807-1.668.453-2.246.452-2.305-.072-2.305-.342 0-.493.147-.493.483 0 .266-.116.7-.258.966-.25.468-.326.844-.931 4.69-.302 1.916-.377 1.99-1.681 1.649m6.279-4.08c.302-.589.347-1.091.217-2.481-.173-1.846-.3-1.91-.805-.408-.173.514-.51 1.186-.75 1.492-.557.714-.546.93.073 1.59.665.706.809.685 1.265-.195" fill="#fff"/></svg>