<svg width="64" height="64" version="1.1" viewBox="0 0 16.933 16.933" xmlns="http://www.w3.org/2000/svg">
 <defs>
  <linearGradient id="a" x1="49.571" x2="51.714" y1="52.714" y2="54.857" gradientTransform="matrix(2.3333,0,0,2.3333,-68.667,-72.001)" gradientUnits="userSpaceOnUse">
   <stop offset="0"/>
   <stop stop-opacity="0" offset="1"/>
  </linearGradient>
 </defs>
 <g transform="scale(.26458)">
  <rect x="8" y="4" width="48" height="56" ry="5" fill="#f4f4f4" style="paint-order:stroke fill markers"/>
  <path d="m56 46-14 14h9c2.77 0 5-2.23 5-5z" fill="url(#a)" fill-rule="evenodd" opacity=".1" stroke-width="8.8191" style="paint-order:stroke fill markers"/>
 </g>
 <g transform="translate(-20.252 -1.6829)" fill="none" stroke="#1463a5" stroke-width=".2634">
  <path d="m26.875 8.9206s-1.1178 2.4086-0.91522 3.4756c0.14089 0.74203 0.47626 1.2513 1.1786 1.5291 0.41633 0.16464 1.5804-0.2634 1.5804-0.2634v-1.8438s-1.0536-0.34572-1.2676-1.6792c0 0 0.11324 1.1396 0.32726 1.1725" enable-background="new" stroke-linecap="round" stroke-linejoin="round"/>
  <path d="m26.414 6.8134c-0.80667-0.72436-1.8109-0.42803-1.8109-0.42803s0.5268 1.6627 1.5146 1.4981" enable-background="new"/>
  <path d="m26.611 13.662c-0.2634 1.0536 0.5268 1.317 2.1072 0.79021 1.5804 0.5268 2.3706 0.2634 2.1072-0.79021" enable-background="new" stroke-linecap="round"/>
  <path d="m27.194 7.6868c0.49915-0.2319 1.0296 0.0524 1.0117 0.08148 0 0-0.17236 0.71479-0.57975 0.65312-0.38162-0.05776-0.43164-0.57252-0.43196-0.7346z" enable-background="new" stroke-linejoin="round"/>
  <path d="m30.826 9.7108s0.68179-2.0225 0.2634-2.8974c-0.13658-0.28559-0.5268-0.48793-0.79021-0.48793-0.53407 0-0.79021 0.22452-1.5804 0.22452-0.79021 0-1.0463-0.22452-1.5804-0.22452-0.2634 0-0.65363 0.20233-0.79021 0.48793-0.41839 0.8749 0.2634 2.8974 0.2634 2.8974" enable-background="new"/>
  <path d="m30.562 8.9206s1.1178 2.4086 0.91523 3.4756c-0.14089 0.74203-0.47626 1.2513-1.1786 1.5291-0.41633 0.16464-1.5804-0.2634-1.5804-0.2634v-1.8438s1.0536-0.34572 1.2676-1.6792c0 0-0.12488 1.1629-0.3389 1.1958" enable-background="new" stroke-linecap="round" stroke-linejoin="round"/>
  <path d="m31.023 6.8134c0.80667-0.72436 1.8109-0.42803 1.8109-0.42803s-0.5268 1.6627-1.5146 1.4981" enable-background="new"/>
  <path d="m30.243 7.6868c-0.49915-0.2319-1.0296 0.0524-1.0117 0.08148 0 0 0.17236 0.71479 0.57975 0.65312 0.38162-0.05776 0.43164-0.57252 0.43196-0.7346z" enable-background="new" stroke-linejoin="round"/>
 </g>
</svg>
