<svg xmlns="http://www.w3.org/2000/svg" xmlns:xlink="http://www.w3.org/1999/xlink" width="48" height="48"><g paint-order="markers stroke fill"><rect rx="2" ry="1.905" y="4" x="6" height="40" width="36" fill="#d32f2f"/><path d="M42 17.242A40 40 0 0 1 23.494 44H40c1.108 0 2-.85 2-1.904z" opacity=".15" fill="url(#a)"/></g><defs><linearGradient xlink:href="#b" id="a" x1="32.747" y1="44" x2="32.747" y2="17.242" gradientUnits="userSpaceOnUse"/><linearGradient id="b"><stop offset="0"/><stop offset="1" stop-opacity="0"/></linearGradient></defs><path d="M24.262 15.28c.14-.316.288-.481.397-.524.03-.012.048-.008.103.038.321.267.48 1.051.22 2.053a13.66 13.66 0 0 1-.583 1.681c-.334-1.422-.413-2.618-.137-3.247zm8.55 12.694c.59.325.576.457.052.654-.863.326-2.168.067-3.436-.882 1.684-.126 2.867-.057 3.383.228zM15.88 31.058c-.496.16-.866.21-1.083.19.188-.394.897-.918 1.844-1.146l.742-.178c-.576.597-1.091 1.002-1.503 1.134zm9.198-2.745c1.669-.285 3.138-.476 4.349-.567a6.829 6.829 0 0 1-.385-.31c-2.053-1.782-3.93-5.863-4.644-8.908-1.437 3.51-4.709 9.003-7.015 11.396 2.837-.676 5.155-1.177 7.695-1.61zm-8.789.33c-1.557.376-2.785 1.37-3.002 2.42-.312 1.504 1.148 2.035 3.052 1.423 1.265-.407 3.06-2.428 4.796-4.947-1.513.317-3.074.678-4.846 1.105zm10.144-11.419c.393-1.514.114-2.895-.711-3.583-.985-.82-2.235-.33-2.835 1.037-.655 1.495-.028 4.766 1.265 7.874 1.088-2.048 1.933-3.986 2.281-5.328zm1.626 11.345c1.779 1.543 3.835 2.028 5.333 1.463 1.694-.64 1.881-2.414.142-3.372-1.17-.645-3.62-.602-7.203-.067.546.778 1.128 1.455 1.728 1.976zm-3.234-1.734a98.292 98.292 0 0 0-3.69.704 51.889 51.889 0 0 0 3.017-4.987c.602 1.448 1.35 2.86 2.179 4.04-.482.073-.984.153-1.506.243z" fill="#fff" fill-rule="evenodd"/></svg>