<svg xmlns="http://www.w3.org/2000/svg" xmlns:xlink="http://www.w3.org/1999/xlink" width="48" height="48"><rect width="36" height="40" x="6" y="4" ry="1.905" rx="2" fill="gray" paint-order="markers stroke fill"/><path d="M42 17.242A40 40 0 0 1 23.494 44H40c1.108 0 2-.85 2-1.904z" opacity=".15" fill="url(#a)" paint-order="markers stroke fill"/><defs><linearGradient xlink:href="#b" id="a" x1="32.747" y1="44" x2="32.747" y2="17.242" gradientUnits="userSpaceOnUse"/><linearGradient id="b"><stop offset="0"/><stop offset="1" stop-opacity="0"/></linearGradient></defs><path d="M19.36 19.027c0 .427-.027.795-.079 1.102a2.565 2.565 0 0 1-.289.836 1.92 1.92 0 0 1-.687.71c-.282.167-.594.25-.938.25-.396 0-.75-.111-1.064-.335a2.045 2.045 0 0 1-.71-.93 3.457 3.457 0 0 1-.177-.717 5.962 5.962 0 0 1-.057-.85c0-.392.021-.747.063-1.062.042-.315.107-.586.195-.812.154-.375.377-.661.67-.858.293-.196.643-.295 1.049-.295.268 0 .512.044.73.131.22.088.411.215.577.383.165.168.305.376.42.623.197.43.296 1.038.296 1.824zm-1.07-.078c0-.476-.03-.866-.087-1.17-.057-.303-.154-.532-.289-.687-.135-.155-.323-.233-.562-.233-.344 0-.583.174-.717.52-.134.346-.201.88-.201 1.601 0 .49.028.891.086 1.204.057.312.153.548.289.709.135.16.319.24.55.24.24 0 .427-.084.563-.25.135-.167.23-.405.285-.715.055-.31.082-.716.082-1.219zm3.706 2.352v-3.555c-.661.508-1.107.762-1.336.762a.395.395 0 0 1-.29-.131.422.422 0 0 1-.128-.303c0-.133.042-.23.125-.293.084-.062.23-.143.442-.242.315-.148.567-.305.755-.469.19-.164.357-.347.502-.55.146-.204.241-.329.286-.375.044-.047.127-.07.25-.07a.4.4 0 0 1 .332.16c.083.106.125.253.125.44v4.473c0 .524-.179.786-.536.786a.49.49 0 0 1-.382-.16c-.097-.107-.145-.265-.145-.473zm6.871-2.274c0 .427-.026.795-.078 1.102a2.565 2.565 0 0 1-.289.836 1.92 1.92 0 0 1-.688.71c-.28.167-.593.25-.937.25-.396 0-.75-.111-1.064-.335a2.045 2.045 0 0 1-.71-.93 3.457 3.457 0 0 1-.177-.717 5.962 5.962 0 0 1-.057-.85c0-.392.021-.747.063-1.062a3.51 3.51 0 0 1 .195-.812c.154-.375.377-.661.67-.858.293-.196.642-.295 1.049-.295.268 0 .511.044.73.131.219.088.411.215.576.383.166.168.306.376.42.623.198.43.297 1.038.297 1.824zm-1.07-.078c0-.476-.029-.866-.086-1.17-.057-.303-.154-.532-.29-.687-.135-.155-.322-.233-.562-.233-.343 0-.582.174-.716.52-.135.346-.202.88-.202 1.601 0 .49.03.891.086 1.204.058.312.154.548.29.709.135.16.318.24.55.24.24 0 .427-.084.563-.25.135-.167.23-.405.285-.715.055-.31.082-.716.082-1.219zm5.824.078c0 .427-.026.795-.078 1.102a2.565 2.565 0 0 1-.29.836 1.92 1.92 0 0 1-.687.71c-.28.167-.593.25-.937.25-.396 0-.75-.111-1.065-.335a2.045 2.045 0 0 1-.709-.93 3.457 3.457 0 0 1-.177-.717 5.962 5.962 0 0 1-.057-.85c0-.392.02-.747.063-1.062a3.51 3.51 0 0 1 .195-.812c.154-.375.377-.661.67-.858.293-.196.642-.295 1.049-.295.268 0 .511.044.73.131.219.088.41.215.576.383.166.168.306.376.42.623.198.43.297 1.038.297 1.824zm-1.07-.078c0-.476-.029-.866-.086-1.17-.057-.303-.154-.532-.29-.687-.135-.155-.322-.233-.562-.233-.343 0-.582.174-.717.52-.134.346-.2.88-.2 1.601 0 .49.028.891.085 1.204.058.312.154.548.29.709.135.16.318.24.55.24.24 0 .427-.084.563-.25.135-.167.23-.405.285-.715.054-.31.082-.716.082-1.219zM17.242 31.301v-3.555c-.661.508-1.107.762-1.336.762a.395.395 0 0 1-.29-.131.422.422 0 0 1-.128-.303c0-.133.042-.23.125-.293.084-.062.23-.143.442-.242.315-.148.567-.305.756-.469.188-.164.356-.347.501-.55.146-.204.241-.329.286-.375.044-.047.127-.07.25-.07a.4.4 0 0 1 .332.16c.083.106.125.253.125.44v4.473c0 .524-.179.786-.535.786a.49.49 0 0 1-.383-.16c-.097-.107-.145-.265-.145-.473zm6.871-2.274c0 .427-.026.795-.078 1.102a2.565 2.565 0 0 1-.289.836 1.92 1.92 0 0 1-.687.71c-.282.167-.594.25-.938.25-.396 0-.75-.111-1.064-.335a2.045 2.045 0 0 1-.71-.93 3.457 3.457 0 0 1-.177-.717 5.962 5.962 0 0 1-.057-.85c0-.392.021-.747.063-1.062a3.51 3.51 0 0 1 .195-.812c.154-.375.377-.661.67-.858.293-.196.643-.295 1.049-.295.268 0 .512.044.73.131.22.088.411.215.576.383.166.168.306.376.42.623.198.43.297 1.038.297 1.824zm-1.07-.078c0-.476-.029-.866-.086-1.17-.057-.303-.154-.532-.289-.687-.135-.155-.323-.233-.563-.233-.343 0-.582.174-.716.52-.134.346-.202.88-.202 1.601 0 .49.03.891.086 1.204.058.312.154.548.29.709.135.16.319.24.55.24.24 0 .427-.084.563-.25.135-.167.23-.405.285-.715.055-.31.082-.716.082-1.219zm5.824.078c0 .427-.026.795-.078 1.102a2.565 2.565 0 0 1-.289.836 1.92 1.92 0 0 1-.688.71c-.28.167-.593.25-.937.25-.396 0-.75-.111-1.064-.335a2.045 2.045 0 0 1-.71-.93 3.457 3.457 0 0 1-.177-.717 5.962 5.962 0 0 1-.057-.85c0-.392.021-.747.063-1.062a3.51 3.51 0 0 1 .195-.812c.154-.375.377-.661.67-.858.293-.196.642-.295 1.049-.295.268 0 .511.044.73.131.219.088.411.215.576.383.166.168.306.376.42.623.198.43.297 1.038.297 1.824zm-1.07-.078c0-.476-.029-.866-.086-1.17-.057-.303-.154-.532-.29-.687-.135-.155-.322-.233-.562-.233-.343 0-.582.174-.716.52-.135.346-.202.88-.202 1.601 0 .49.03.891.086 1.204.058.312.154.548.29.709.135.16.318.24.55.24.24 0 .427-.084.563-.25.135-.167.23-.405.285-.715.055-.31.082-.716.082-1.219zm3.707 2.352v-3.555c-.662.508-1.107.762-1.336.762a.395.395 0 0 1-.291-.131.422.422 0 0 1-.127-.303c0-.133.042-.23.125-.293.083-.062.23-.143.441-.242.316-.148.567-.305.756-.469.19-.164.356-.347.502-.55.146-.204.241-.329.285-.375.045-.047.128-.07.25-.07a.4.4 0 0 1 .332.16c.084.106.125.253.125.44v4.473c0 .524-.178.786-.535.786a.49.49 0 0 1-.383-.16c-.096-.107-.144-.265-.144-.473z" fill="#fff" fill-rule="evenodd"/></svg>