<svg width="48" height="48" version="1.1" xmlns="http://www.w3.org/2000/svg" xmlns:xlink="http://www.w3.org/1999/xlink">
 <rect x="6" y="4" width="36" height="40" rx="2" ry="1.905" fill="#fb8c00" style="paint-order:markers stroke fill"/>
 <defs>
  <linearGradient id="a" x1="32.747" x2="32.747" y1="44" y2="17.242" gradientUnits="userSpaceOnUse">
   <stop offset="0"/>
   <stop stop-opacity="0" offset="1"/>
  </linearGradient>
 </defs>
 <path d="M23 29c-.554 0-1 .446-1 1v6c0 .554.446 1 1 1h12c.554 0 1-.446 1-1v-6c0-.554-.446-1-1-1H23zm1.91 1.63c.121 0 .222.025.303.071a.588.588 0 0 1 .197.178c.05.072.091.15.125.232.034.083.078.194.131.332l1.123 2.772c.088.21.13.365.13.46 0 .1-.041.191-.124.274a.405.405 0 0 1-.299.123.39.39 0 0 1-.176-.035.36.36 0 0 1-.123-.1.914.914 0 0 1-.107-.193l-.098-.23-.205-.54h-1.746l-.205.551c-.08.215-.148.36-.205.436-.057.075-.15.111-.28.111a.405.405 0 0 1-.288-.119.371.371 0 0 1-.127-.273c0-.059.01-.12.029-.182.02-.062.053-.148.098-.26l1.097-2.789.113-.289c.044-.112.091-.205.141-.28a.567.567 0 0 1 .496-.25zm4.377.003c.348 0 .658.068.93.207.271.139.478.31.623.514.144.204.217.398.217.58 0 .1-.036.187-.106.263a.331.331 0 0 1-.254.114c-.111 0-.196-.026-.252-.079a1.106 1.106 0 0 1-.185-.273 1.307 1.307 0 0 0-.4-.477.975.975 0 0 0-.567-.158c-.357 0-.642.135-.854.406-.211.272-.318.659-.318 1.159 0 .334.047.61.14.832.094.221.227.388.4.498a1.1 1.1 0 0 0 .603.164c.25 0 .462-.064.634-.188.173-.124.303-.304.391-.545a.93.93 0 0 1 .139-.277c.054-.071.142-.107.263-.107.104 0 .192.037.266.109a.361.361 0 0 1 .111.27c0 .136-.034.284-.101.443a1.625 1.625 0 0 1-.871.842 1.99 1.99 0 0 1-.785.142 2.74 2.74 0 0 1-.618-.062 1.74 1.74 0 0 1-.506-.201 1.71 1.71 0 0 1-.417-.36 2.133 2.133 0 0 1-.29-.453 2.351 2.351 0 0 1-.181-.533c-.04-.19-.059-.39-.059-.604 0-.345.05-.656.15-.93.101-.273.245-.506.432-.7.188-.195.408-.342.66-.444a2.13 2.13 0 0 1 .805-.152zm3.098.072h2.297c.138 0 .24.03.308.092a.313.313 0 0 1 .102.242.315.315 0 0 1-.102.244c-.067.062-.17.094-.308.094H32.72v1.053h1.804c.133 0 .232.03.297.09.066.06.1.138.1.236a.315.315 0 0 1-.098.238c-.064.062-.164.092-.299.092h-1.804v1.223h2.027c.137 0 .24.032.309.095.069.064.105.147.105.252a.322.322 0 0 1-.105.248c-.07.064-.172.096-.309.096h-2.363c-.19 0-.327-.043-.41-.127-.083-.084-.123-.219-.123-.406v-3.229c0-.125.017-.227.054-.306a.343.343 0 0 1 .174-.172.74.74 0 0 1 .305-.055zm-7.48.844l-.635 1.771h1.283l-.649-1.771zM12 12v-2h2.667L16 11l-1.333 1zM18 14v-2h-2.667L14 13l1.333 1zM18 18v-2h-2.667L14 17l1.333 1zM12 16v-2h2.667L16 15l-1.333 1zM18 22v-2h-2.667L14 21l1.333 1zM12 20v-2h2.667L16 19l-1.333 1zM18 26v-2h-2.667L14 25l1.333 1zM12 24v-2h2.667L16 23l-1.333 1zM18 30v-2h-2.667L14 29l1.333 1zM12 28v-2h2.667L16 27l-1.333 1zM15 37c3 0 1-2.62 1-4s0-2-1-2-1 .62-1 2-2 4 1 4zm0-.635a1 1 0 1 0 0-2 1 1 0 0 0 0 2z" fill="#fff" fill-rule="evenodd"/>
 <path d="m42 17.242a40 40 0 0 1-18.506 26.758h16.506c1.108 0 2-0.85 2-1.904z" fill="url(#a)" opacity=".15" style="paint-order:markers stroke fill"/>
</svg>
