<svg xmlns="http://www.w3.org/2000/svg" xmlns:xlink="http://www.w3.org/1999/xlink" width="48" height="48"><g paint-order="markers stroke fill"><rect rx="2" ry="1.905" y="4" x="6" height="40" width="36" fill="#f2f2f2"/><path d="M42 17.242A40 40 0 0 1 23.494 44H40c1.108 0 2-.85 2-1.904z" opacity=".15" fill="url(#a)"/></g><defs><linearGradient xlink:href="#b" id="a" x1="32.747" y1="44" x2="32.747" y2="17.242" gradientUnits="userSpaceOnUse"/><linearGradient id="b"><stop offset="0"/><stop offset="1" stop-opacity="0"/></linearGradient></defs><path d="M15.826 18h16.35A3 3 0 0 0 34 19.826v8.35A3 3 0 0 0 32.174 30h-16.35A3 3 0 0 0 14 28.174v-8.35A3 3 0 0 0 15.826 18M24 20a4 4 0 1 0 0 8 4 4 0 0 0 0-8m0 1a3 3 0 1 1 0 6 3 3 0 0 1 0-6" style="isolation:auto;mix-blend-mode:normal;solid-color:#000;solid-opacity:1" color="#000" overflow="visible" fill="#9d9d9d"/></svg>