<svg xmlns="http://www.w3.org/2000/svg" xmlns:xlink="http://www.w3.org/1999/xlink" width="48" height="48"><g paint-order="markers stroke fill"><rect width="36" height="40" x="6" y="4" ry="1.905" rx="2" fill="#fdd285"/><path d="M42 17.242A40 40 0 0 1 23.494 44H40c1.108 0 2-.85 2-1.904z" opacity=".15" fill="url(#a)"/></g><defs><linearGradient xlink:href="#b" id="a" gradientUnits="userSpaceOnUse" x1="32.747" y1="44" x2="32.747" y2="17.242"/><linearGradient id="b"><stop offset="0"/><stop offset="1" stop-opacity="0"/></linearGradient></defs><path d="M24 15c-1.608 5.727-6 9.11-6 12.273C18 30.436 20.687 33 24 33s6-2.563 6-5.727c0-3.163-4.392-6.546-6-12.273m4.125 9.35a5.143 4.91 0 0 1 1.018 2.923A5.143 4.91 0 0 1 24 32.182a5.143 4.91 0 0 1-3.057-.969 6 5.727 0 0 0 1.343.15 6 5.727 0 0 0 6-5.727 6 5.727 0 0 0-.161-1.286" color="#000" fill="#fff"/></svg>