<?xml version="1.0" encoding="UTF-8" standalone="no"?>
<svg
   xmlns:dc="http://purl.org/dc/elements/1.1/"
   xmlns:cc="http://creativecommons.org/ns#"
   xmlns:rdf="http://www.w3.org/1999/02/22-rdf-syntax-ns#"
   xmlns:svg="http://www.w3.org/2000/svg"
   xmlns="http://www.w3.org/2000/svg"
   xmlns:xlink="http://www.w3.org/1999/xlink"
   xmlns:sodipodi="http://sodipodi.sourceforge.net/DTD/sodipodi-0.dtd"
   xmlns:inkscape="http://www.inkscape.org/namespaces/inkscape"
   width="48px"
   height="48px"
   viewBox="0 0 48 48"
   version="1.1"
   id="svg20"
   sodipodi:docname="application-x-ruby.svg"
   inkscape:version="0.92.2 2405546, 2018-03-11">
  <metadata
     id="metadata24">
    <rdf:RDF>
      <cc:Work
         rdf:about="">
        <dc:format>image/svg+xml</dc:format>
        <dc:type
           rdf:resource="http://purl.org/dc/dcmitype/StillImage" />
      </cc:Work>
    </rdf:RDF>
  </metadata>
  <sodipodi:namedview
     pagecolor="#ffffff"
     bordercolor="#666666"
     borderopacity="1"
     objecttolerance="10"
     gridtolerance="10"
     guidetolerance="10"
     inkscape:pageopacity="0"
     inkscape:pageshadow="2"
     inkscape:window-width="1920"
     inkscape:window-height="1051"
     id="namedview22"
     showgrid="false"
     inkscape:zoom="6.9532167"
     inkscape:cx="48.396753"
     inkscape:cy="20.302475"
     inkscape:window-x="0"
     inkscape:window-y="29"
     inkscape:window-maximized="1"
     inkscape:current-layer="svg20" />
  <!-- Generator: Sketch 41.2 (35397) - http://www.bohemiancoding.com/sketch -->
  <title
     id="title2">application-x-ruby</title>
  <desc
     id="desc4">Created with Sketch.</desc>
  <g
     id="g829">
    <rect
       rx="2"
       ry="1.9047618"
       y="4"
       x="6"
       height="40"
       width="36"
       id="rect834"
       style="opacity:1;fill:#d32f2f;fill-opacity:1;stroke:none;stroke-width:0.92582005;stroke-linecap:round;stroke-linejoin:round;stroke-miterlimit:4;stroke-dasharray:none;stroke-opacity:0.05882353;paint-order:markers stroke fill" />
    <path
       inkscape:connector-curvature="0"
       id="rect866"
       d="M 42,17.242188 A 40,40 0 0 1 23.494141,44 H 40 c 1.108,0 2,-0.849059 2,-1.904297 z"
       style="opacity:0.15;fill:url(#linearGradient877);fill-opacity:1;stroke:none;stroke-width:0.92582005;stroke-linecap:round;stroke-linejoin:round;stroke-miterlimit:4;stroke-dasharray:none;stroke-opacity:0.05882353;paint-order:markers stroke fill" />
  </g>
  <defs
     id="defs11">
    <linearGradient
       inkscape:collect="always"
       xlink:href="#linearGradient875"
       id="linearGradient877"
       x1="32.74707"
       y1="44"
       x2="32.74707"
       y2="17.242188"
       gradientUnits="userSpaceOnUse" />
    <linearGradient
       inkscape:collect="always"
       id="linearGradient875">
      <stop
         style="stop-color:#000000;stop-opacity:1;"
         offset="0"
         id="stop871" />
      <stop
         style="stop-color:#000000;stop-opacity:0;"
         offset="1"
         id="stop873" />
    </linearGradient>
  </defs>
  <g
     id="Page-1"
     transform="translate(0.1591365,-1.8538087)"
     style="fill:none;fill-rule:evenodd;stroke:none;stroke-width:1">
    <g
       id="application-x-ruby">
      <path
         d="m 27.164547,18.614163 4.630136,3.786539 -7.4e-4,0.0015 0.429382,0.350694 -6.464176,0.432543 1.739348,6.889568 c 0.003,-0.0031 0.006,-0.0063 0.0089,-0.0094 l 0.0044,0.01743 -0.273872,-0.08754 -6.538947,-2.100698 -2.38e-4,7.87e-4 -0.0024,-7.87e-4 0.0017,0.0033 -2.039112,6.754224 9.2e-5,0.0024 -0.320052,-0.747456 C 17.573645,32.004941 16.409333,29.1347 16.212946,28.933779 l 0.04806,-0.08765 -1.020049,-2.739763 -0.239366,5.006307 -0.0016,0.0029 c 1.75e-4,0.0063 3.58e-4,0.01259 5.49e-4,0.01886 L 15,31.145925 l 8.58e-4,-0.0016 c 0.107758,3.387295 2.526046,3.487866 3.61398,3.519123 l -0.0112,0.0067 13.071348,-0.886987 5.03e-4,-0.0066 0.03609,-0.0024 -0.01535,-0.0012 -0.0134,-0.09248 0.998907,-13.077703 -0.01079,0.02188 c 0.01235,-0.430685 -0.0245,-0.856253 -0.128653,-1.255749 l 0.0038,5.33e-4 C 32.257115,18.14484 31.370048,17.354362 29.858162,17.10665 l 8.15e-4,-4.51e-4 -4.909263,-0.02231 1.899093,1.685803 0.288383,-0.159367 z m 4.530385,15.158665 -0.01794,-0.01592 -0.0011,0.01443 z"
         id="Combined-Shape"
         inkscape:connector-curvature="0"
         style="fill:#ffffff" />
      <path
         d="m 15.173132,26.019801 1.026295,2.91111 4.459478,-1.000505 5.09132,-4.731669 1.436814,-4.563803 -2.262402,-1.597452 -3.846378,1.439491 c -1.211832,1.127141 -3.563388,3.357326 -3.648169,3.39927 -0.08389,0.04284 -1.55283,2.81919 -2.256958,4.143558 z"
         id="path111"
         style="fill:#d32f2f;fill-opacity:1"
         inkscape:connector-curvature="0" />
      <path
         d="m 18.776768,20.790155 c 2.626425,-2.604114 6.012308,-4.142665 7.311688,-2.831684 1.298576,1.310981 -0.07853,4.49696 -2.704959,7.100182 -2.626424,2.603221 -5.970363,4.226553 -7.268851,2.915572 -1.299379,-1.310089 0.0357,-4.580849 2.662122,-7.18407 z"
         id="path134"
         inkscape:connector-curvature="0"
         style="fill:#ffffff" />
    </g>
  </g>
</svg>
