<svg width="48" height="48" version="1.1" xmlns="http://www.w3.org/2000/svg">
 <g paint-order="markers stroke fill">
  <rect x="6" y="4" width="36" height="40" rx="2" ry="1.905" fill="#4caf50"/>
  <path d="M42 17.242A40 40 0 0 1 23.494 44H40c1.108 0 2-.85 2-1.904z" fill="url(#a)" opacity=".15"/>
 </g>
 <defs>
  <linearGradient id="a" x1="32.747" x2="32.747" y1="44" y2="17.242" gradientUnits="userSpaceOnUse">
   <stop offset="0"/>
   <stop stop-opacity="0" offset="1"/>
  </linearGradient>
 </defs>
 <path d="m20 16c-0.55401 0-1 0.44599-1 1v2h-2c-0.55401 0-1 0.44599-1 1v11c0 0.55401 0.44599 1 1 1h11c0.55401 0 1-0.44599 1-1v-2h2c0.55401 0 1-0.44599 1-1v-11c0-0.55401-0.44599-1-1-1zm0 1h11v11h-2v-8c0-0.55401-0.44599-1-1-1-3 0-8-0.32532-8-2zm-3 3h11v11h-11zm1 1v2h9v-2zm0 4v1h9v-1zm0 2v1h9v-1zm0 2v1h9v-1z" fill="#fff"/>
</svg>
