<svg xmlns="http://www.w3.org/2000/svg" xmlns:xlink="http://www.w3.org/1999/xlink" width="48" height="48"><g paint-order="markers stroke fill"><rect rx="2" ry="1.905" y="4" x="6" height="40" width="36" fill="#4caf50"/><path d="M42 17.242A40 40 0 0 1 23.494 44H40c1.108 0 2-.85 2-1.904z" opacity=".15" fill="url(#a)"/></g><defs><linearGradient xlink:href="#b" id="a" x1="32.747" y1="44" x2="32.747" y2="17.242" gradientUnits="userSpaceOnUse"/><linearGradient id="b"><stop offset="0"/><stop offset="1" stop-opacity="0"/></linearGradient></defs><g fill="#FFF" fill-rule="evenodd"><path d="M12 10h2.667L16 11l-1.333 1H12zM18 12h-2.667L14 13l1.333 1H18zM18 16h-2.667L14 17l1.333 1H18zM12 14h2.667L16 15l-1.333 1H12zM18 20h-2.667L14 21l1.333 1H18zM12 18h2.667L16 19l-1.333 1H12zM18 24h-2.667L14 25l1.333 1H18zM12 22h2.667L16 23l-1.333 1H12zM18 28h-2.667L14 29l1.333 1H18zM12 26h2.667L16 27l-1.333 1H12zM15 37c3 0 1-2.62 1-4s0-2-1-2-1 .62-1 2-2 4 1 4zm0-.635a1 1 0 1 0 0-2 1 1 0 0 0 0 2z"/></g></svg>