<svg width="64" height="64" version="1.1" viewBox="0 0 16.933 16.933" xmlns="http://www.w3.org/2000/svg">
 <defs>
  <linearGradient id="a" x1="49.571" x2="51.714" y1="52.714" y2="54.857" gradientTransform="matrix(.61734 0 0 .61734 -18.168 -19.05)" gradientUnits="userSpaceOnUse">
   <stop offset="0"/>
   <stop stop-opacity="0" offset="1"/>
  </linearGradient>
 </defs>
 <rect x="2.1166" y="1.0583" width="12.7" height="14.816" ry="1.3229" fill="#f4f4f4" stroke-width=".26458" style="paint-order:stroke fill markers"/>
 <g transform="matrix(.066145 0 0 .066145 -1.0583 -1.852)" enable-background="new" fill="none" stroke="#8f76e4" stroke-width="8">
  <path d="m152 100c-20.007 0-38.494 10.674-48.497 28s-10.003 38.674 0 56 28.491 28 48.497 28h88" color="#000000" enable-background="accumulate"/>
  <path d="m167.23 119.01c-14.95-6.1579-32.138-2.7096-43.556 8.7386s-14.821 28.645-8.6234 43.579 20.776 24.668 36.945 24.668h88" color="#000000" enable-background="accumulate"/>
  <path d="m168.97 139.03c-7.681-7.681-19.563-9.2453-28.971-3.814s-13.994 16.504-11.182 26.996c2.8114 10.492 12.32 17.788 23.182 17.788h88" color="#000000" enable-background="accumulate"/>
 </g>
 <path d="m14.816 12.171-3.7041 3.7041h2.3812c0.73288 0 1.3229-0.59001 1.3229-1.3229z" fill="url(#a)" fill-rule="evenodd" opacity=".1" stroke-width="2.3333" style="paint-order:stroke fill markers"/>
</svg>
