<svg xmlns="http://www.w3.org/2000/svg" xmlns:xlink="http://www.w3.org/1999/xlink" width="48" height="48"><g paint-order="markers stroke fill"><rect width="36" height="40" x="6" y="4" ry="1.905" rx="2" fill="#cf000f"/><path d="M42 17.242A40 40 0 0 1 23.494 44H40c1.108 0 2-.85 2-1.904z" opacity=".15" fill="url(#a)"/></g><defs><linearGradient xlink:href="#b" id="a" gradientUnits="userSpaceOnUse" x1="32.747" y1="44" x2="32.747" y2="17.242"/><linearGradient id="b"><stop offset="0"/><stop offset="1" stop-opacity="0"/></linearGradient></defs><path d="M24 15c-2.992 0-5.4 2.41-5.4 5.4 0 1.745.823 3.287 2.1 4.272V33l3.3-2.4 3.3 2.4v-8.328a5.378 5.378 0 0 0 2.1-4.272c0-2.992-2.41-5.4-5.4-5.4" fill="#fff"/></svg>