<svg xmlns="http://www.w3.org/2000/svg" xmlns:xlink="http://www.w3.org/1999/xlink" width="48" height="48"><g paint-order="markers stroke fill"><rect rx="2" ry="1.905" y="4" x="6" height="40" width="36" fill="#448aff"/><path d="M42 17.242A40 40 0 0 1 23.494 44H40c1.108 0 2-.85 2-1.904z" opacity=".15" fill="url(#a)"/></g><defs><linearGradient xlink:href="#b" id="a" x1="32.747" y1="44" x2="32.747" y2="17.242" gradientUnits="userSpaceOnUse"/><linearGradient id="b"><stop offset="0"/><stop offset="1" stop-opacity="0"/></linearGradient></defs><g fill="#FFF" fill-rule="evenodd"><path d="M22 29.997c0-.55.45-.997 1.007-.997h11.986c.556 0 1.007.453 1.007.997v6.006c0 .55-.45.997-1.007.997H23.007A1.006 1.006 0 0 1 22 36.003v-6.006zm6.944 3.843v1.097c0 .146-.015.263-.043.35a.554.554 0 0 1-.159.236 1.49 1.49 0 0 1-.294.204c-.347.187-.68.324-1 .41-.32.086-.67.129-1.047.129a3.41 3.41 0 0 1-1.203-.203 2.53 2.53 0 0 1-.926-.59 2.604 2.604 0 0 1-.588-.938 3.505 3.505 0 0 1-.205-1.23c0-.446.066-.853.199-1.223a2.51 2.51 0 0 1 .586-.941c.258-.258.572-.455.941-.592a3.61 3.61 0 0 1 1.258-.205c.386 0 .727.051 1.024.154.296.103.537.232.722.389.185.156.324.321.418.496.094.174.14.33.14.465 0 .145-.053.27-.161.373a.544.544 0 0 1-.63.095.546.546 0 0 1-.193-.164 4.619 4.619 0 0 0-.363-.507 1.172 1.172 0 0 0-.4-.29 1.528 1.528 0 0 0-.643-.117c-.268 0-.508.047-.719.139-.21.092-.39.227-.54.402-.15.176-.265.392-.344.647-.08.255-.12.538-.12.847 0 .672.155 1.19.463 1.551.309.362.74.543 1.291.543.269 0 .52-.035.756-.105.236-.07.475-.17.717-.301v-.93h-.898c-.216 0-.38-.032-.49-.097-.111-.066-.167-.176-.167-.332 0-.128.047-.234.14-.317a.542.542 0 0 1 .376-.125h1.316c.162 0 .299.014.41.043a.463.463 0 0 1 .272.192c.07.098.104.247.104.445zm.953.992l2.941-3.52h-2.527c-.177 0-.31-.039-.4-.117a.39.39 0 0 1-.135-.308c0-.133.045-.24.134-.323.09-.082.224-.123.4-.123h3.259c.421 0 .632.197.632.59a.837.837 0 0 1-.105.45c-.07.111-.212.292-.426.542l-2.75 3.274h3.031c.18 0 .314.037.403.111a.383.383 0 0 1 .133.31.422.422 0 0 1-.133.329c-.089.08-.223.121-.403.121h-3.718c-.253 0-.443-.057-.57-.17a.578.578 0 0 1-.192-.455.5.5 0 0 1 .031-.18.658.658 0 0 1 .084-.154c.035-.048.084-.11.147-.184l.164-.193zM12 10h2.667L16 11l-1.333 1H12zM18 12h-2.667L14 13l1.333 1H18zM18 16h-2.667L14 17l1.333 1H18zM12 14h2.667L16 15l-1.333 1H12zM18 20h-2.667L14 21l1.333 1H18zM12 18h2.667L16 19l-1.333 1H12zM18 24h-2.667L14 25l1.333 1H18zM12 22h2.667L16 23l-1.333 1H12zM18 28h-2.667L14 29l1.333 1H18zM12 26h2.667L16 27l-1.333 1H12zM15 37c3 0 1-2.62 1-4s0-2-1-2-1 .62-1 2-2 4 1 4zm0-.635a1 1 0 1 0 0-2 1 1 0 0 0 0 2z"/></g></svg>