<?xml version="1.0" encoding="UTF-8" standalone="no"?>
<svg
   xmlns:dc="http://purl.org/dc/elements/1.1/"
   xmlns:cc="http://creativecommons.org/ns#"
   xmlns:rdf="http://www.w3.org/1999/02/22-rdf-syntax-ns#"
   xmlns:svg="http://www.w3.org/2000/svg"
   xmlns="http://www.w3.org/2000/svg"
   xmlns:xlink="http://www.w3.org/1999/xlink"
   xmlns:sodipodi="http://sodipodi.sourceforge.net/DTD/sodipodi-0.dtd"
   xmlns:inkscape="http://www.inkscape.org/namespaces/inkscape"
   width="48px"
   height="48px"
   viewBox="0 0 48 48"
   version="1.1"
   id="svg37"
   sodipodi:docname="application-x-perl.svg"
   inkscape:version="0.92.4 (5da689c313, 2019-01-14)">
  <metadata
     id="metadata41">
    <rdf:RDF>
      <cc:Work
         rdf:about="">
        <dc:format>image/svg+xml</dc:format>
        <dc:type
           rdf:resource="http://purl.org/dc/dcmitype/StillImage" />
        <dc:title>application-x-executable</dc:title>
      </cc:Work>
    </rdf:RDF>
  </metadata>
  <sodipodi:namedview
     pagecolor="#ffffff"
     bordercolor="#666666"
     borderopacity="1"
     objecttolerance="10"
     gridtolerance="10"
     guidetolerance="10"
     inkscape:pageopacity="0"
     inkscape:pageshadow="2"
     inkscape:window-width="715"
     inkscape:window-height="458"
     id="namedview39"
     showgrid="false"
     showguides="true"
     inkscape:guide-bbox="true"
     inkscape:zoom="6.9532167"
     inkscape:cx="3.8618518"
     inkscape:cy="23.549902"
     inkscape:window-x="164"
     inkscape:window-y="181"
     inkscape:window-maximized="0"
     inkscape:current-layer="svg37" />
  <!-- Generator: Sketch 41.2 (35397) - http://www.bohemiancoding.com/sketch -->
  <title
     id="title2">application-x-executable</title>
  <desc
     id="desc4">Created with Sketch.</desc>
  <g
     id="g829">
    <rect
       rx="2"
       ry="1.9047618"
       y="4"
       x="6"
       height="40"
       width="36"
       id="rect834"
       style="opacity:1;fill:#32a3d7;fill-opacity:1;stroke:none;stroke-width:0.92582005;stroke-linecap:round;stroke-linejoin:round;stroke-miterlimit:4;stroke-dasharray:none;stroke-opacity:0.05882353;paint-order:markers stroke fill" />
    <path
       inkscape:connector-curvature="0"
       id="rect866"
       d="M 42,17.242188 A 40,40 0 0 1 23.494141,44 H 40 c 1.108,0 2,-0.849059 2,-1.904297 z"
       style="opacity:0.15;fill:url(#linearGradient877);fill-opacity:1;stroke:none;stroke-width:0.92582005;stroke-linecap:round;stroke-linejoin:round;stroke-miterlimit:4;stroke-dasharray:none;stroke-opacity:0.05882353;paint-order:markers stroke fill" />
  </g>
  <defs
     id="defs11">
    <linearGradient
       inkscape:collect="always"
       xlink:href="#linearGradient875"
       id="linearGradient877"
       x1="32.74707"
       y1="44"
       x2="32.74707"
       y2="17.242188"
       gradientUnits="userSpaceOnUse" />
    <linearGradient
       inkscape:collect="always"
       id="linearGradient875">
      <stop
         style="stop-color:#000000;stop-opacity:1;"
         offset="0"
         id="stop871" />
      <stop
         style="stop-color:#000000;stop-opacity:0;"
         offset="1"
         id="stop873" />
    </linearGradient>
  </defs>
  <path
     inkscape:connector-curvature="0"
     style="fill:#ffffff;stroke-width:1"
     d="m 20.027057,32.841262 c -0.35841,-0.09297 -0.322419,-0.193452 0.268434,-0.746815 1.018247,-0.952263 1.187705,-1.900027 0.898277,-5.019251 -0.230943,-2.487883 -0.28343,-2.678334 -0.671835,-2.469888 -0.842789,0.451389 -1.894027,-0.13047 -3.08923,-1.706574 -0.590853,-0.779806 -0.64634,-1.007751 -0.545865,-2.220949 0.06148,-0.743815 0.188953,-1.642091 0.281929,-1.996003 0.142471,-0.542866 0.09747,-0.643341 -0.296926,-0.643341 -0.256436,0 -0.59835,-0.160458 -0.76031,-0.35541 -0.407899,-0.491878 0.31942,-1.282182 1.180206,-1.282182 0.349413,0 0.76781,-0.157461 0.92827,-0.350912 0.413897,-0.497876 1.04524,-0.434893 1.754564,0.175456 0.754311,0.649338 1.010748,2.151964 0.587854,3.435645 -0.478383,1.45164 -0.146971,1.594104 0.523369,0.223444 0.374908,-0.766309 0.904275,-1.435142 1.340666,-1.693078 0.395903,-0.233943 0.974759,-0.829294 1.286681,-1.322671 0.311922,-0.493377 0.701825,-0.983755 0.868284,-1.090229 0.509874,-0.325419 1.910525,-0.773808 2.432395,-0.778307 0.712324,-0.015 1.667585,0.827795 1.837044,1.603102 0.08099,0.365908 0.509873,1.229694 0.953762,1.918023 0.44389,0.688328 0.8068,1.373659 0.8068,1.520622 0,0.146956 0.314922,0.665834 0.701825,1.150213 0.577358,0.72732 0.700326,1.09323 0.691328,2.078484 -0.01044,1.351164 -0.737816,3.072737 -1.00475,2.378409 -0.08398,-0.218946 -0.04949,-0.592353 0.07799,-0.829294 0.265434,-0.496376 0.0315,-2.69783 -0.256437,-2.4099 -0.200949,0.20095 -0.331417,2.348416 -0.27593,4.513876 0.07349,2.810301 -0.06299,5.458644 -0.284929,5.530626 -0.566859,0.179955 -0.814298,-0.286429 -0.581855,-1.097727 0.349413,-1.220697 0.277431,-4.46739 -0.110971,-4.980262 -0.179954,-0.236941 -0.395901,-0.841291 -0.47988,-1.343666 -0.08549,-0.502375 -0.245939,-0.968759 -0.358411,-1.037742 -0.368909,-0.227943 -0.925271,1.247691 -0.925271,2.451891 0,0.943266 -0.14247,1.378157 -0.701824,2.151964 -0.791804,1.093229 -0.853289,1.415648 -0.350914,1.834044 0.391403,0.325419 0.467885,1.069235 0.130471,1.277682 -0.121471,0.07499 -0.436391,-0.09597 -0.701825,-0.380904 -0.374907,-0.4019 -0.481381,-0.434893 -0.481381,-0.149963 0,0.427394 -0.866783,0.716822 -1.345165,0.449888 -0.256436,-0.142471 -0.194951,-0.269932 0.274431,-0.578856 0.838293,-0.548863 0.757312,-0.998752 -0.362908,-2.022997 -0.872784,-0.797802 -0.950765,-0.958262 -0.8068,-1.667585 0.452888,-2.246443 0.451388,-2.304928 -0.07199,-2.304928 -0.341915,0 -0.493376,0.14697 -0.493376,0.482881 0,0.265433 -0.115471,0.700325 -0.257937,0.965759 -0.250437,0.467883 -0.325419,0.844291 -0.931268,4.689335 -0.301425,1.916524 -0.376407,1.990004 -1.681082,1.64959 m 6.278938,-4.080486 c 0.302925,-0.587854 0.347915,-1.090229 0.217447,-2.480384 -0.172457,-1.846041 -0.299926,-1.910524 -0.8053,-0.407898 -0.172458,0.514372 -0.509874,1.186205 -0.749813,1.49213 -0.556362,0.713821 -0.545865,0.929769 0.07348,1.589604 0.664335,0.706325 0.8083,0.685329 1.264185,-0.194952"
     id="path2" />
</svg>
