<?xml version="1.0" encoding="UTF-8" standalone="no"?>
<svg
   xmlns:dc="http://purl.org/dc/elements/1.1/"
   xmlns:cc="http://creativecommons.org/ns#"
   xmlns:rdf="http://www.w3.org/1999/02/22-rdf-syntax-ns#"
   xmlns:svg="http://www.w3.org/2000/svg"
   xmlns="http://www.w3.org/2000/svg"
   xmlns:xlink="http://www.w3.org/1999/xlink"
   xmlns:sodipodi="http://sodipodi.sourceforge.net/DTD/sodipodi-0.dtd"
   xmlns:inkscape="http://www.inkscape.org/namespaces/inkscape"
   width="48px"
   height="48px"
   viewBox="0 0 48 48"
   version="1.1"
   id="svg18"
   sodipodi:docname="application-vnd.oasis.opendocument.text-web.svg"
   inkscape:version="0.92.2 2405546, 2018-03-11">
  <metadata
     id="metadata22">
    <rdf:RDF>
      <cc:Work
         rdf:about="">
        <dc:format>image/svg+xml</dc:format>
        <dc:type
           rdf:resource="http://purl.org/dc/dcmitype/StillImage" />
      </cc:Work>
    </rdf:RDF>
  </metadata>
  <sodipodi:namedview
     pagecolor="#ffffff"
     bordercolor="#666666"
     borderopacity="1"
     objecttolerance="10"
     gridtolerance="10"
     guidetolerance="10"
     inkscape:pageopacity="0"
     inkscape:pageshadow="2"
     inkscape:window-width="1077"
     inkscape:window-height="552"
     id="namedview20"
     showgrid="false"
     inkscape:zoom="4.9166667"
     inkscape:cx="24"
     inkscape:cy="24"
     inkscape:window-x="709"
     inkscape:window-y="124"
     inkscape:window-maximized="0"
     inkscape:current-layer="svg18" />
  <!-- Generator: Sketch 41.2 (35397) - http://www.bohemiancoding.com/sketch -->
  <title
     id="title2">application-vnd.oasis.opendocument.text-web</title>
  <desc
     id="desc4">Created with Sketch.</desc>
  <g
     id="g829">
    <rect
       rx="2"
       ry="1.9047618"
       y="4"
       x="6"
       height="40"
       width="36"
       id="rect834"
       style="opacity:1;fill:#448aff;fill-opacity:1;stroke:none;stroke-width:0.92582005;stroke-linecap:round;stroke-linejoin:round;stroke-miterlimit:4;stroke-dasharray:none;stroke-opacity:0.05882353;paint-order:markers stroke fill" />
    <path
       inkscape:connector-curvature="0"
       id="rect866"
       d="M 42,17.242188 A 40,40 0 0 1 23.494141,44 H 40 c 1.108,0 2,-0.849059 2,-1.904297 z"
       style="opacity:0.15;fill:url(#linearGradient877);fill-opacity:1;stroke:none;stroke-width:0.92582005;stroke-linecap:round;stroke-linejoin:round;stroke-miterlimit:4;stroke-dasharray:none;stroke-opacity:0.05882353;paint-order:markers stroke fill" />
  </g>
  <defs
     id="defs11">
    <linearGradient
       x1="90.7002767%"
       y1="6.56534831%"
       x2="35.3271484%"
       y2="64.1438802%"
       id="linearGradient-1">
      <stop
         stop-color="#93DEF2"
         offset="0%"
         id="stop6" />
      <stop
         stop-color="#5ABADF"
         offset="100%"
         id="stop8" />
    </linearGradient>
    <linearGradient
       inkscape:collect="always"
       xlink:href="#linearGradient875"
       id="linearGradient877"
       x1="32.74707"
       y1="44"
       x2="32.74707"
       y2="17.242188"
       gradientUnits="userSpaceOnUse" />
    <linearGradient
       inkscape:collect="always"
       id="linearGradient875">
      <stop
         style="stop-color:#000000;stop-opacity:1;"
         offset="0"
         id="stop871" />
      <stop
         style="stop-color:#000000;stop-opacity:0;"
         offset="1"
         id="stop873" />
    </linearGradient>
  </defs>
  <g
     id="Page-1"
     transform="translate(0,-1)"
     style="fill:none;fill-rule:evenodd;stroke:none;stroke-width:1">
    <g
       id="application-vnd.oasis.opendocument.text-web">
      <path
         d="m 24,34 c 4.970563,0 9,-4.029437 9,-9 0,-4.970563 -4.029437,-9 -9,-9 -4.970563,0 -9,4.029437 -9,9 0,4.970563 4.029437,9 9,9 z M 20.601895,21.361858 c 0.520379,-0.528117 -1.040758,-1.056235 0.520379,-2.112469 1.561137,-1.056235 2.081516,1.584352 3.642653,1.584352 1.561137,0 1.561137,-1.056235 3.122274,0 1.561137,1.056235 1.561137,3.168704 -0.520379,2.640587 -2.081516,-0.528118 -3.642653,-1.584353 -3.642653,0.528117 0,2.112469 -5.724169,0.528117 -5.724169,-1.584352 0,-2.11247 2.081516,-0.528117 2.601895,-1.056235 z m 8.556997,5.507827 c 0.155529,0.438776 0.883026,-0.295159 1.051091,0.875571 0.168064,1.17073 -1.005641,0.529723 -1.360307,2.022968 -0.354666,1.493246 -1.479097,0.387666 -2.505116,0.976002 -0.374485,0.214736 -0.01711,1.368179 -0.994224,1.483558 -1.17705,0.138988 -2.598509,-0.41394 -3.018227,-0.518222 -0.768143,-0.190851 -2.020447,-1.504891 -0.01067,-1.490669 2.009781,0.01422 0.01666,-0.436879 0.994224,-1.483558 0.436773,-0.467651 1.677478,0.183945 2.512226,0.01778 1.033553,-0.205742 1.588233,-1.19384 0.927661,-1.516023 -1.194083,-0.582393 1.327176,-2.706882 2.521258,-2.124489 1.194083,0.582393 -0.273448,1.318309 -0.11792,1.757085 z m -10.662298,2.463648 c 0,0 -1.379428,-1.333333 0.459809,-1.333333 1.839237,0 2.758856,2 1.379428,2 -1.379428,0 -1.839237,-0.666667 -1.839237,-0.666667 z"
         id="Combined-Shape"
         inkscape:connector-curvature="0"
         style="fill:#ffffff" />
    </g>
  </g>
</svg>
