<?xml version="1.0" encoding="UTF-8" standalone="no"?>
<svg
   xmlns:dc="http://purl.org/dc/elements/1.1/"
   xmlns:cc="http://creativecommons.org/ns#"
   xmlns:rdf="http://www.w3.org/1999/02/22-rdf-syntax-ns#"
   xmlns:svg="http://www.w3.org/2000/svg"
   xmlns="http://www.w3.org/2000/svg"
   xmlns:xlink="http://www.w3.org/1999/xlink"
   xmlns:sodipodi="http://sodipodi.sourceforge.net/DTD/sodipodi-0.dtd"
   xmlns:inkscape="http://www.inkscape.org/namespaces/inkscape"
   width="48px"
   height="48px"
   viewBox="0 0 48 48"
   version="1.1"
   id="svg25"
   sodipodi:docname="application-vnd.ms-excel.svg"
   inkscape:version="0.92.2 2405546, 2018-03-11">
  <metadata
     id="metadata29">
    <rdf:RDF>
      <cc:Work
         rdf:about="">
        <dc:format>image/svg+xml</dc:format>
        <dc:type
           rdf:resource="http://purl.org/dc/dcmitype/StillImage" />
      </cc:Work>
    </rdf:RDF>
  </metadata>
  <sodipodi:namedview
     pagecolor="#ffffff"
     bordercolor="#666666"
     borderopacity="1"
     objecttolerance="10"
     gridtolerance="10"
     guidetolerance="10"
     inkscape:pageopacity="0"
     inkscape:pageshadow="2"
     inkscape:window-width="730"
     inkscape:window-height="444"
     id="namedview27"
     showgrid="false"
     inkscape:zoom="2.4583333"
     inkscape:cx="-31.149036"
     inkscape:cy="15.900975"
     inkscape:window-x="83"
     inkscape:window-y="141"
     inkscape:window-maximized="0"
     inkscape:current-layer="svg25"
     showguides="false" />
  <!-- Generator: Sketch 41.2 (35397) - http://www.bohemiancoding.com/sketch -->
  <title
     id="title2">application-vnd.ms-wxcel</title>
  <desc
     id="desc4">Created with Sketch.</desc>
  <g
     id="g829">
    <rect
       rx="2"
       ry="1.9047618"
       y="4"
       x="6"
       height="40"
       width="36"
       id="rect834"
       style="opacity:1;fill:#66bb6a;fill-opacity:1;stroke:none;stroke-width:0.92582005;stroke-linecap:round;stroke-linejoin:round;stroke-miterlimit:4;stroke-dasharray:none;stroke-opacity:0.05882353;paint-order:markers stroke fill" />
    <path
       inkscape:connector-curvature="0"
       id="rect866"
       d="M 42,17.242188 A 40,40 0 0 1 23.494141,44 H 40 c 1.108,0 2,-0.849059 2,-1.904297 z"
       style="opacity:0.15;fill:url(#linearGradient877);fill-opacity:1;stroke:none;stroke-width:0.92582005;stroke-linecap:round;stroke-linejoin:round;stroke-miterlimit:4;stroke-dasharray:none;stroke-opacity:0.05882353;paint-order:markers stroke fill" />
  </g>
  <defs
     id="defs11">
    <linearGradient
       inkscape:collect="always"
       xlink:href="#linearGradient875"
       id="linearGradient877"
       x1="32.74707"
       y1="44"
       x2="32.74707"
       y2="17.242188"
       gradientUnits="userSpaceOnUse" />
    <linearGradient
       inkscape:collect="always"
       id="linearGradient875">
      <stop
         style="stop-color:#000000;stop-opacity:1;"
         offset="0"
         id="stop871" />
      <stop
         style="stop-color:#000000;stop-opacity:0;"
         offset="1"
         id="stop873" />
    </linearGradient>
  </defs>
  <g
     id="g873"
     transform="translate(1,2.198084e-5)">
    <path
       id="Rectangle-232"
       d="M 25.001953,17 13.998047,17.822266 C 13.447034,17.863429 13,18.344845 13,18.896484 v 10.207032 c 0,0.549954 0.44659,1.033021 0.998047,1.074218 L 25.001953,31 C 25.552966,31.041164 26,30.627567 26,30.078125 V 17.921875 C 26,17.365955 25.55341,16.958803 25.001953,17 Z M 18,20.841797 h 3.828125 c 0.231121,0 0.40332,0.05176 0.515625,0.154297 0.112305,0.10254 0.167969,0.236327 0.167969,0.402344 0,0.169271 -0.05566,0.305664 -0.167969,0.408203 -0.112305,0.10254 -0.284504,0.154297 -0.515625,0.154297 h -3.267578 v 1.755859 h 3.009765 c 0.221355,0 0.385091,0.0511 0.494141,0.150391 0.10905,0.09928 0.164063,0.229816 0.164063,0.392578 0,0.162761 -0.05273,0.295897 -0.160157,0.398437 -0.107423,0.102539 -0.273436,0.152344 -0.498047,0.152344 h -3.009765 v 2.037109 h 3.380859 c 0.227865,0 0.398112,0.05241 0.513672,0.158203 0.115561,0.105794 0.173828,0.248046 0.173828,0.423829 0,0.169271 -0.05827,0.306314 -0.173828,0.412109 C 22.339518,27.947591 22.169271,28 21.941406,28 H 18 c -0.315757,0 -0.543294,-0.07097 -0.681641,-0.210938 -0.138347,-0.139974 -0.207031,-0.365232 -0.207031,-0.677734 v -5.380859 c 0,-0.208335 0.02995,-0.37793 0.0918,-0.509766 0.06185,-0.131837 0.159179,-0.22884 0.291016,-0.289062 0.131836,-0.06022 0.30078,-0.08984 0.505859,-0.08984 z"
       style="fill:#ffffff;fill-rule:evenodd;stroke:none;stroke-width:1"
       inkscape:connector-curvature="0" />
    <path
       style="fill:#ffffff;fill-rule:evenodd;stroke:none;stroke-width:1"
       inkscape:connector-curvature="0"
       id="Rectangle-233"
       d="M 32,19.002473 C 32,19.00349 24.998446,19 24.998446,19 24.999895,19.000019 25,28.997527 25,28.997527 25,28.99651 32.001554,29 32.001554,29 32.000105,28.999981 32,19.002473 32,19.002473 Z m -8,0 C 24,18.448823 24.446311,18 24.997545,18 h 7.00491 C 32.553384,18 33,18.455761 33,19.002473 v 9.995054 C 33,29.551177 32.553689,30 32.002455,30 h -7.00491 C 24.446616,30 24,29.544239 24,28.997527 Z" />
    <path
       style="fill:#ffffff;fill-rule:evenodd;stroke:none;stroke-width:1"
       inkscape:connector-curvature="0"
       id="Path-381"
       d="m 26,21.5 h 5 c 0.276142,0 0.5,-0.223858 0.5,-0.5 0,-0.276142 -0.223858,-0.5 -0.5,-0.5 h -5 c -0.276142,0 -0.5,0.223858 -0.5,0.5 0,0.276142 0.223858,0.5 0.5,0.5 z" />
    <path
       style="fill:#ffffff;fill-rule:evenodd;stroke:none;stroke-width:1"
       inkscape:connector-curvature="0"
       id="path19"
       d="m 26,24.5 h 5 c 0.276142,0 0.5,-0.223858 0.5,-0.5 0,-0.276142 -0.223858,-0.5 -0.5,-0.5 h -5 c -0.276142,0 -0.5,0.223858 -0.5,0.5 0,0.276142 0.223858,0.5 0.5,0.5 z" />
    <path
       style="fill:#ffffff;fill-rule:evenodd;stroke:none;stroke-width:1"
       inkscape:connector-curvature="0"
       id="path21"
       d="m 26,27.5 h 5 c 0.276142,0 0.5,-0.223858 0.5,-0.5 0,-0.276142 -0.223858,-0.5 -0.5,-0.5 h -5 c -0.276142,0 -0.5,0.223858 -0.5,0.5 0,0.276142 0.223858,0.5 0.5,0.5 z" />
  </g>
</svg>
