<svg width="64" height="64" version="1.1" viewBox="0 0 16.933 16.933" xmlns="http://www.w3.org/2000/svg">
 <defs>
  <linearGradient id="a" x1="49.571" x2="51.714" y1="52.714" y2="54.857" gradientTransform="matrix(2.3333,0,0,2.3333,-68.667,-72.001)" gradientUnits="userSpaceOnUse">
   <stop offset="0"/>
   <stop stop-opacity="0" offset="1"/>
  </linearGradient>
 </defs>
 <g transform="scale(.26458)">
  <rect x="8" y="4" width="48" height="56" ry="5" fill="#f4f4f4" style="paint-order:stroke fill markers"/>
  <path d="m56 46-14 14h9c2.77 0 5-2.23 5-5z" fill="url(#a)" fill-rule="evenodd" opacity=".1" stroke-width="8.8191" style="paint-order:stroke fill markers"/>
 </g>
 <path d="m12.7 8.4665a4.2223 4.2223 0 0 0-4.2332-4.2332 4.2223 4.2223 0 0 0-4.2332 4.2332 4.2223 4.2223 0 0 0 4.2332 4.2332 4.2223 4.2223 0 0 0 4.2332-4.2332zm-2.6848 0c0 0.85305-0.679 1.5492-1.5484 1.5492a1.5414 1.5414 0 0 1-1.55-1.5492c0-0.85227 0.62827-1.5484 1.5492-1.5484s1.5484 0.71334 1.5484 1.5484z" fill="#808080" opacity=".75"/>
 <path d="m8.4664 6.349a2.1175 2.1175 0 1 0 1e-3 4.235 2.1175 2.1175 0 0 0-1e-3 -4.235zm0 1.058a1.059 1.059 0 1 1-1e-3 2.118 1.059 1.059 0 0 1 0-2.118z" fill="#333" opacity=".35" overflow="visible"/>
 <path d="m8.4664 6.4815a1.985 1.985 0 1 0 1e-3 3.97 1.985 1.985 0 0 0-1e-3 -3.97zm0 0.992a0.993 0.993 0 1 1-1e-3 1.985 0.993 0.993 0 0 1 0-1.985z" fill="none" overflow="visible"/>
</svg>
