<svg xmlns="http://www.w3.org/2000/svg" xmlns:xlink="http://www.w3.org/1999/xlink" width="48" height="48"><g paint-order="markers stroke fill"><rect width="36" height="40" x="6" y="4" ry="1.905" rx="2" fill="#adc959"/><path d="M42 17.242A40 40 0 0 1 23.494 44H40c1.108 0 2-.85 2-1.904z" opacity=".15" fill="url(#a)"/></g><defs><linearGradient xlink:href="#b" id="a" gradientUnits="userSpaceOnUse" x1="32.747" y1="44" x2="32.747" y2="17.242"/><linearGradient id="b"><stop offset="0"/><stop offset="1" stop-opacity="0"/></linearGradient></defs><g fill="#FFF" fill-rule="evenodd"><circle cx="24" cy="30.5" r="2"/><path d="M19.846 27.033c.024-.038.095-.136.212-.272.208-.242.462-.486.763-.715C21.68 25.391 22.732 25 24 25c1.268 0 2.318.391 3.18 1.046.3.229.554.473.762.715.117.136.188.234.212.272a1 1 0 0 0 1.692-1.066c-.256-.407-.734-.964-1.456-1.513C27.196 23.546 25.73 23 24 23c-1.73 0-3.196.546-4.39 1.454-.722.549-1.2 1.106-1.456 1.513a1 1 0 0 0 1.692 1.066zM16.75 22.162c.051-.058.183-.188.394-.367.369-.311.818-.626 1.347-.922 1.53-.857 3.387-1.373 5.583-1.373 2.194 0 4.018.514 5.499 1.367.51.293.94.606 1.29.914.2.176.322.304.369.36a1 1 0 1 0 1.536-1.281c-.384-.46-1.11-1.1-2.197-1.727-1.777-1.022-3.943-1.633-6.497-1.633-2.55 0-4.74.609-6.56 1.627-1.11.622-1.862 1.256-2.264 1.711a1 1 0 1 0 1.5 1.324z"/></g></svg>