<svg xmlns="http://www.w3.org/2000/svg" xmlns:xlink="http://www.w3.org/1999/xlink" width="48" height="48"><g paint-order="markers stroke fill"><rect rx="2" ry="1.905" y="4" x="6" height="40" width="36" fill="#d32f2f"/><path d="M42 17.242A40 40 0 0 1 23.494 44H40c1.108 0 2-.85 2-1.904z" opacity=".15" fill="url(#a)"/></g><defs><linearGradient xlink:href="#b" id="a" x1="32.747" y1="44" x2="32.747" y2="17.242" gradientUnits="userSpaceOnUse"/><linearGradient id="b"><stop offset="0"/><stop offset="1" stop-opacity="0"/></linearGradient></defs><g fill="none" fill-rule="evenodd"><path d="M27.324 16.76l4.63 3.787v.001l.428.351-6.464.433 1.74 6.89a.77.77 0 0 0 .009-.01l.004.017-.274-.087-6.539-2.101h-.003l.002.003-2.039 6.755v.002l-.32-.748c-.765-1.902-1.93-4.772-2.126-4.973l.048-.088-1.02-2.74-.24 5.007v.033-.001c.108 3.387 2.526 3.487 3.614 3.519l-.011.006 13.071-.887v-.006l.037-.003h-.016l-.013-.093.999-13.078-.01.022a4.482 4.482 0 0 0-.13-1.256h.004c-.289-1.224-1.176-2.014-2.688-2.262h.001l-4.91-.023 1.9 1.686.288-.16zm4.53 15.159l-.018-.016-.001.015z" fill="#fff"/><path d="M15.332 24.166l1.027 2.911 4.459-1 5.091-4.732 1.437-4.564-2.262-1.597-3.847 1.44c-1.211 1.126-3.563 3.356-3.648 3.398-.084.043-1.553 2.82-2.257 4.144z" fill="#d32f2f"/><path d="M18.936 18.936c2.626-2.604 6.012-4.142 7.312-2.831 1.298 1.31-.079 4.497-2.705 7.1-2.627 2.603-5.97 4.226-7.27 2.915-1.299-1.31.036-4.58 2.663-7.184z" fill="#fff"/></g></svg>