<svg xmlns="http://www.w3.org/2000/svg" xmlns:xlink="http://www.w3.org/1999/xlink" width="48" height="48"><g paint-order="markers stroke fill"><rect rx="2" ry="1.905" y="4" x="6" height="40" width="36" fill="#32a3d7"/><path d="M42 17.242A40 40 0 0 1 23.494 44H40c1.108 0 2-.85 2-1.904z" opacity=".15" fill="url(#a)"/></g><defs><linearGradient xlink:href="#b" id="a" x1="32.747" y1="44" x2="32.747" y2="17.242" gradientUnits="userSpaceOnUse"/><linearGradient id="b"><stop offset="0"/><stop offset="1" stop-opacity="0"/></linearGradient></defs><g fill="#fff" paint-order="stroke markers fill"><path d="M24 16.903A7.097 7.097 0 0 0 16.903 24 7.097 7.097 0 0 0 24 31.097 7.097 7.097 0 0 0 31.097 24 7.097 7.097 0 0 0 24 16.903zm0 3.226A3.871 3.871 0 0 1 27.871 24 3.871 3.871 0 0 1 24 27.871 3.871 3.871 0 0 1 20.129 24 3.871 3.871 0 0 1 24 20.129z"/><path d="M22.71 14h2.58v4.515h-2.58zM22.71 29.483h2.58V34h-2.58zM34 22.71v2.58h-4.515v-2.58zM18.517 22.71v2.58H14v-2.58zM31.984 30.16l-1.825 1.824-3.193-3.194 1.824-1.824zM21.035 19.21l-1.824 1.825-3.194-3.193 1.825-1.825zM17.842 31.984l-1.825-1.825 3.194-3.193 1.824 1.824zM28.79 21.035l-1.824-1.824 3.193-3.194 1.825 1.825z"/></g></svg>