<svg xmlns="http://www.w3.org/2000/svg" xmlns:xlink="http://www.w3.org/1999/xlink" width="48" height="48"><g paint-order="markers stroke fill"><rect rx="2" ry="1.905" y="4" x="6" height="40" width="36" fill="#32a3d7"/><path d="M42 17.242A40 40 0 0 1 23.494 44H40c1.108 0 2-.85 2-1.904z" opacity=".15" fill="url(#a)"/></g><defs><linearGradient xlink:href="#b" id="a" x1="32.747" y1="44" x2="32.747" y2="17.242" gradientUnits="userSpaceOnUse"/><linearGradient id="b"><stop offset="0"/><stop offset="1" stop-opacity="0"/></linearGradient></defs><g fill-rule="evenodd" fill="none"><g fill="#FFF"><path d="M15 17.626h17.564a.75.75 0 0 0 0-1.5H15a.75.75 0 0 0 0 1.5z"/><path d="M15.908 15.218v17.564a.75.75 0 0 0 1.5 0V15.218a.75.75 0 1 0-1.5 0z"/><path d="M15 30.889h17.564a.75.75 0 0 0 0-1.5H15a.75.75 0 1 0 0 1.5z"/><path d="M30.118 15.218v17.564a.75.75 0 0 0 1.5 0V15.218a.75.75 0 1 0-1.5 0z"/></g><path d="M24.679 26.451L23.52 22.16l-1.171 4.292a9.24 9.24 0 0 1-.218.7.929.929 0 0 1-.28.382c-.134.112-.311.168-.533.168a.875.875 0 0 1-.442-.1.768.768 0 0 1-.28-.283 1.78 1.78 0 0 1-.176-.435 23.725 23.725 0 0 1-.122-.466l-1.192-4.82a2.82 2.82 0 0 1-.107-.639c0-.186.065-.342.195-.469a.665.665 0 0 1 .484-.19c.263 0 .44.084.532.254.091.169.17.415.24.737l.937 4.18 1.05-3.911c.078-.3.148-.528.21-.684a.986.986 0 0 1 .302-.405c.14-.114.33-.171.571-.171.245 0 .434.06.57.178a.973.973 0 0 1 .28.388c.052.14.122.371.21.694l1.06 3.91.937-4.179c.046-.218.089-.389.13-.513a.823.823 0 0 1 .21-.332c.099-.097.243-.146.432-.146.188 0 .349.062.48.188a.623.623 0 0 1 .198.471c0 .133-.035.347-.107.64l-1.192 4.819a8.567 8.567 0 0 1-.202.715.953.953 0 0 1-.274.398c-.128.114-.31.171-.544.171-.221 0-.399-.055-.532-.166a.898.898 0 0 1-.279-.373 9.959 9.959 0 0 1-.22-.71z" fill="#fff"/></g></svg>