<svg xmlns="http://www.w3.org/2000/svg" xmlns:xlink="http://www.w3.org/1999/xlink" width="48" height="48"><g paint-order="markers stroke fill"><rect rx="2" ry="1.905" y="4" x="6" height="40" width="36" fill="#32a3d7"/><path d="M42 17.242A40 40 0 0 1 23.494 44H40c1.108 0 2-.85 2-1.904z" opacity=".15" fill="url(#a)"/></g><defs><linearGradient xlink:href="#b" id="a" x1="32.747" y1="44" x2="32.747" y2="17.242" gradientUnits="userSpaceOnUse"/><linearGradient id="b"><stop offset="0"/><stop offset="1" stop-opacity="0"/></linearGradient></defs><g fill="#FFF" fill-rule="evenodd"><path d="M23.858 20.267v-1.26c0-.559-.448-1.007-1-1.007h-6.863A2 2 0 0 0 14 20.006v9.988A2 2 0 0 0 15.997 32h6.87c.55 0 1-.444 1-.992V29.92c-.253.048-.51.075-.766.078-2.9.049-3.905-2.986-2.42-6.119.899-1.898 2.11-3.11 3.177-3.613zm.994-.266v-.994A.999.999 0 0 1 25.848 18h6.144c1.11 0 2.008.897 2.008 2.006v9.988C34 31.102 33.1 32 31.993 32H25.96a1.003 1.003 0 0 1-1.003-.992v-1.423a6.02 6.02 0 0 0 2.62-2.208c.41-.631.479-1.311.387-1.505-.091-.219-.274-.219-.388-.025-.982 1.603-2.649 3.545-4.544 3.448-1.21-.073-1.758-1.602-1.027-3.836 1.598 1.384 3.128.752 4.247-.704.959-1.239 1.141-2.72.73-3.303-.365-.534-.776-.898-1.347-1.262a1.376 1.376 0 0 0-.783-.189z"/><path d="M22 24.748c.049-.119.122-.261.196-.404 1.151-2.255 3.184-3.68 3.699-3.276.343.261-.196 1.496-.98 2.493-.71.902-1.715 1.923-2.915 1.187z"/></g></svg>