<svg xmlns="http://www.w3.org/2000/svg" xmlns:xlink="http://www.w3.org/1999/xlink" width="48" height="48"><g paint-order="markers stroke fill"><rect rx="2" ry="1.905" y="4" x="6" height="40" width="36" fill="#f9a825"/><path d="M42 17.242A40 40 0 0 1 23.494 44H40c1.108 0 2-.85 2-1.904z" opacity=".15" fill="url(#a)"/></g><defs><linearGradient xlink:href="#b" id="a" x1="32.747" y1="44" x2="32.747" y2="17.242" gradientUnits="userSpaceOnUse"/><linearGradient id="b"><stop offset="0"/><stop offset="1" stop-opacity="0"/></linearGradient></defs><g fill="#fff" fill-rule="evenodd"><path d="M21.645 15.443c1.18-.204 2.694-.23 4.105 0 1.115.182 2.054 1 2.054 2.088v3.82c0 1.121-.911 2.04-2.054 2.04l-3.722.202c-1.394 0-2.7.887-2.7 2.212v.912c0 .554-.454 1.002-1.005 1.002h-.656c-1.194 0-1.89-.849-2.181-2.037-.394-1.596-.378-2.547 0-4.075.327-1.334 1.371-2.037 2.565-2.037h1.541V17.53c0-1.158.315-1.788 2.053-2.088zm.37 3.612a1 1 0 1 0 0-2 1 1 0 0 0 0 2z"/><path d="M26.355 32.557c-1.18.204-2.694.23-4.105 0-1.115-.182-2.054-1-2.054-2.088v-3.82c0-1.121.911-2.04 2.054-2.04l3.722-.202c1.394 0 2.7-.887 2.7-2.212v-.912c0-.554.454-1.002 1.005-1.002h.656c1.194 0 1.89.849 2.181 2.037.394 1.596.378 2.547 0 4.075-.327 1.334-1.371 2.037-2.565 2.037h-1.541v2.039c0 1.158-.315 1.788-2.053 2.088zm-.37-3.612a1 1 0 1 0 0 2 1 1 0 0 0 0-2z"/></g></svg>