<svg xmlns="http://www.w3.org/2000/svg" xmlns:xlink="http://www.w3.org/1999/xlink" width="48" height="48"><g paint-order="markers stroke fill"><rect rx="2" ry="1.905" y="4" x="6" height="40" width="36" fill="#0091ea"/><path d="M42 17.242A40 40 0 0 1 23.494 44H40c1.108 0 2-.85 2-1.904z" opacity=".15" fill="url(#a)"/></g><defs><linearGradient xlink:href="#b" id="a" x1="32.747" y1="44" x2="32.747" y2="17.242" gradientUnits="userSpaceOnUse"/><linearGradient id="b"><stop offset="0"/><stop offset="1" stop-opacity="0"/></linearGradient></defs><g fill="#FFF" fill-rule="evenodd"><path d="M25 19.5h8a.5.5 0 1 0 0-1h-8a.5.5 0 1 0 0 1zM25 23.5h8a.5.5 0 1 0 0-1h-8a.5.5 0 1 0 0 1zM16 27.5h17a.5.5 0 1 0 0-1H16a.5.5 0 1 0 0 1zM16 31.5h17a.5.5 0 1 0 0-1H16a.5.5 0 1 0 0 1zM19.47 22.872l-1.157-4.292-1.172 4.292c-.092.326-.164.56-.218.7a.929.929 0 0 1-.28.382c-.134.112-.311.168-.533.168a.875.875 0 0 1-.442-.1.768.768 0 0 1-.28-.283 1.78 1.78 0 0 1-.176-.435 23.685 23.685 0 0 1-.122-.466l-1.192-4.82a2.82 2.82 0 0 1-.107-.64c0-.185.065-.34.195-.468a.665.665 0 0 1 .484-.19c.263 0 .44.084.532.254.091.169.17.415.24.737l.937 4.18 1.05-3.912c.078-.299.148-.527.21-.683a.986.986 0 0 1 .302-.405c.14-.114.33-.171.572-.171.244 0 .433.06.568.178a.973.973 0 0 1 .281.388c.052.14.122.371.21.693l1.06 3.912.937-4.18a4.99 4.99 0 0 1 .13-.513.823.823 0 0 1 .21-.332c.099-.097.243-.146.432-.146.188 0 .349.062.48.188a.623.623 0 0 1 .198.47c0 .134-.035.348-.107.64l-1.191 4.82a8.568 8.568 0 0 1-.203.715.953.953 0 0 1-.274.398c-.128.114-.31.171-.544.171-.221 0-.399-.055-.532-.166a.898.898 0 0 1-.279-.373 9.957 9.957 0 0 1-.22-.71z"/></g></svg>