<svg xmlns="http://www.w3.org/2000/svg" xmlns:xlink="http://www.w3.org/1999/xlink" width="48" height="48"><g paint-order="markers stroke fill"><rect width="36" height="40" x="6" y="4" ry="1.905" rx="2" fill="#687583"/><path d="M42 17.242A40 40 0 0 1 23.494 44H40c1.108 0 2-.85 2-1.904z" opacity=".15" fill="url(#a)"/></g><defs><linearGradient xlink:href="#b" id="a" gradientUnits="userSpaceOnUse" x1="32.747" y1="44" x2="32.747" y2="17.242"/><linearGradient id="b"><stop offset="0"/><stop offset="1" stop-opacity="0"/></linearGradient></defs><path d="M22.613 13.5c-1.026 0-2.364.61-3.587 1.628a2.162 2.162 0 0 0-1.251 1.979c0 .277.05.55.147.802-1.269.257-2.228 1.424-2.228 2.825 0 .29.041.579.123.855A2.939 2.939 0 0 0 15 23.638c0 .606.178 1.167.486 1.63A2.944 2.944 0 0 0 15 26.902c0 1.047.544 2.008 1.41 2.514a3.405 3.405 0 0 0-.021.391c0 1.413.882 2.66 2.16 3.086.556.996 1.567 1.606 2.674 1.606 1.215 0 2.27-.732 2.778-1.797.509 1.065 1.56 1.797 2.775 1.797 1.107 0 2.121-.61 2.678-1.606 1.278-.426 2.16-1.674 2.16-3.086 0-.13-.009-.26-.024-.391.864-.506 1.41-1.467 1.41-2.514 0-.591-.167-1.152-.486-1.634a2.958 2.958 0 0 0 .486-1.63c0-.774-.296-1.515-.818-2.05.083-.277.126-.563.126-.854 0-1.401-.961-2.568-2.23-2.825.097-.252.147-.525.147-.802a2.16 2.16 0 0 0-1.251-1.979c-1.223-1.018-2.56-1.627-3.587-1.627-.57 0-1.074.295-1.386.744a1.693 1.693 0 0 0-1.389-.744m0 .68c.587 0 1.062.5 1.062 1.114v4.4a1.663 1.663 0 0 0-1.062-.388.336.336 0 0 0-.327.342c0 .188.147.34.327.34.587 0 1.062.497 1.062 1.11v8.179a3.09 3.09 0 0 0-1.645-1.145.326.326 0 0 0-.4.24.34.34 0 0 0 .229.416c1.068.3 1.815 1.315 1.815 2.47 0 1.413-1.1 2.564-2.451 2.564-.912 0-1.743-.527-2.169-1.373a.329.329 0 0 0-.203-.17c-1.068-.3-1.812-1.315-1.812-2.47 0-.172.015-.348.047-.517a.343.343 0 0 0-.186-.378c-.76-.353-1.251-1.142-1.251-2.01 0-.395.099-.771.285-1.104a2.67 2.67 0 0 0 1.818.72c.18 0 .324-.155.324-.342a.33.33 0 0 0-.324-.34c-1.16 0-2.105-.986-2.105-2.2 0-.652.276-1.269.756-1.689a.348.348 0 0 0 .092-.387 2.27 2.27 0 0 1-.153-.828c0-1.213.943-2.197 2.104-2.197 1.16 0 2.105.984 2.105 2.197 0 .188.144.342.324.342.18 0 .327-.154.327-.342 0-1.525-1.142-2.775-2.577-2.87-.13-.229-.2-.49-.2-.758 0-.606.353-1.128.854-1.353.02-.017.04-.018.058-.026.156-.061.321-.097.498-.097.545 0 1.034.318 1.271.83.078.17.271.24.432.158a.346.346 0 0 0 .153-.453 2.1 2.1 0 0 0-1.38-1.156c.831-.53 1.648-.831 2.301-.831zm2.775 0c.653 0 1.472.3 2.301.83a2.094 2.094 0 0 0-1.377 1.157c-.078.17-.01.37.15.453a.311.311 0 0 0 .432-.16 1.399 1.399 0 0 1 1.271-.83c.175 0 .342.034.498.094.018.017.039.02.058.026.501.226.854.747.854 1.354 0 .269-.07.527-.2.755-1.437.096-2.577 1.348-2.577 2.874 0 .187.147.342.327.342.18 0 .327-.155.327-.342 0-1.214.941-2.2 2.102-2.2 1.16 0 2.104.986 2.104 2.2 0 .283-.049.562-.153.828a.349.349 0 0 0 .092.387c.48.42.756 1.036.756 1.689 0 1.213-.944 2.2-2.105 2.2a.33.33 0 0 0-.324.34c0 .187.144.341.324.341a2.68 2.68 0 0 0 1.821-.72c.188.335.282.71.282 1.104 0 .867-.49 1.656-1.25 2.01a.343.343 0 0 0-.187.378c.033.168.05.344.05.518 0 1.155-.749 2.17-1.815 2.47a.329.329 0 0 0-.203.17c-.426.846-1.257 1.372-2.169 1.372-1.351 0-2.45-1.15-2.45-2.563 0-.098-.005-.19-.013-.284a.364.364 0 0 0 .012-.091V19.649c0-.612.477-1.114 1.062-1.114.18 0 .327-.152.327-.34a.336.336 0 0 0-.327-.341c-.4 0-.769.145-1.062.387v-2.948c0-.613.477-1.114 1.062-1.114m4.859 5.853a.334.334 0 0 0-.324.342c0 1.213-.944 2.197-2.105 2.197a2.03 2.03 0 0 1-1.5-.658.31.31 0 0 0-.459 0 .349.349 0 0 0-.006.48 2.687 2.687 0 0 0 1.665.846c.15 1.035 1.008 1.834 2.039 1.834.18 0 .324-.154.324-.342a.33.33 0 0 0-.324-.339h-.003c-.674 0-1.236-.498-1.374-1.16 1.35-.184 2.395-1.39 2.395-2.85a.336.336 0 0 0-.327-.343zm-11.798.357a.336.336 0 0 0-.327.342c0 1.46 1.049 2.671 2.399 2.856-.138.661-.704 1.16-1.377 1.16a.336.336 0 0 0-.327.341c0 .188.147.34.327.34 1.032 0 1.887-.796 2.037-1.832a2.675 2.675 0 0 0 1.665-.846.354.354 0 0 0-.006-.483.32.32 0 0 0-.459 0 2.044 2.044 0 0 1-1.5.661c-1.16 0-2.105-.987-2.105-2.2a.334.334 0 0 0-.324-.342zm6.94 5.086a.334.334 0 0 0-.325.342.33.33 0 0 0 .324.34c1.16 0 2.105.986 2.105 2.2 0 .078-.005.157-.012.234-1.01.427-1.722 1.464-1.722 2.671a.33.33 0 0 0 .324.34c.18 0 .327-.152.327-.34 0-1.213.943-2.2 2.104-2.2.18 0 .324-.155.324-.342a.33.33 0 0 0-.324-.34c-.126 0-.25.019-.37.03v-.049c0-1.588-1.236-2.88-2.754-2.88zm-3.817.726c-1.519 0-2.754 1.292-2.754 2.88v.048a2.717 2.717 0 0 0-.367-.027.333.333 0 0 0-.327.34c0 .187.147.341.327.341 1.16 0 2.104.987 2.104 2.2 0 .188.144.343.324.343.18 0 .327-.155.327-.342 0-1.208-.715-2.243-1.725-2.672a2.408 2.408 0 0 1-.012-.23c0-1.214.944-2.201 2.105-2.201.18 0 .327-.155.327-.342a.333.333 0 0 0-.327-.34" fill="#fff"/></svg>