<svg xmlns="http://www.w3.org/2000/svg" xmlns:xlink="http://www.w3.org/1999/xlink" width="48" height="48"><g paint-order="markers stroke fill"><rect rx="2" ry="1.905" y="4" x="6" height="40" width="36" fill="#3f51b5"/><path d="M42 17.242A40 40 0 0 1 23.494 44H40c1.108 0 2-.85 2-1.904z" opacity=".15" fill="url(#a)"/></g><defs><linearGradient xlink:href="#b" id="a" x1="32.747" y1="44" x2="32.747" y2="17.242" gradientUnits="userSpaceOnUse"/><linearGradient id="b"><stop offset="0"/><stop offset="1" stop-opacity="0"/></linearGradient></defs><g fill="#fff" fill-rule="evenodd"><path d="M29.604 15.688l.531 9.581c-.878-.219-1.96-.033-2.877.124-1.725.296-2.93 1.605-2.69 2.924.238 1.319 1.83 2.148 3.556 1.852 1.7-.292 3.97-.681 3.62-2.98l-.695-12.53a.748.748 0 0 0-.245-.515.997.997 0 0 0-.67-.401L19.34 12.226a.995.995 0 0 0-.452.04.75.75 0 0 0-.779.808l.784 9.995c-.87-.203-1.932-.02-2.834.134-1.725.296-2.93 1.605-2.69 2.923.238 1.32 1.83 2.148 3.556 1.852 1.686-.289 3.933-.674 3.628-2.922l-.843-10.759zM18.472 31.416V35.7h.702v-2.952h.024l1.26 2.952h.606l1.26-2.952h.024V35.7h.702v-4.284h-.822l-1.452 3.36h-.024l-1.458-3.36zm5.418 0V35.7h.702v-1.644h1.062c1.044 0 1.566-.444 1.566-1.326 0-.876-.522-1.314-1.554-1.314zm.702.6h1.02c.306 0 .534.054.678.168.144.108.222.288.222.546 0 .258-.072.444-.216.558-.144.108-.372.168-.684.168h-1.02zm4.65-.684c-.42 0-.768.114-1.038.354-.288.24-.444.576-.48 1.008h.69c.024-.258.108-.45.252-.576.138-.126.33-.186.582-.186.246 0 .432.054.558.162.114.108.174.264.174.474 0 .21-.066.372-.192.48-.132.108-.324.162-.576.162h-.3v.528h.3c.276 0 .486.054.63.174.144.114.222.294.222.54a.692.692 0 0 1-.21.51c-.156.15-.372.228-.642.228-.246 0-.444-.072-.594-.21-.168-.15-.252-.366-.264-.642h-.714c.036.48.204.852.504 1.104.27.228.63.342 1.074.342.468 0 .846-.132 1.134-.39.276-.252.414-.576.414-.972a.908.908 0 0 0-.216-.624c-.132-.156-.33-.27-.582-.348.474-.156.714-.468.714-.936 0-.372-.132-.66-.39-.87-.264-.21-.618-.312-1.05-.312z"/></g></svg>