<svg xmlns="http://www.w3.org/2000/svg" xmlns:xlink="http://www.w3.org/1999/xlink" width="48" height="48"><g paint-order="markers stroke fill"><rect rx="2" ry="1.905" y="4" x="6" height="40" width="36" fill="#614ca3"/><path d="M42 17.242A40 40 0 0 1 23.494 44H40c1.108 0 2-.85 2-1.904z" opacity=".15" fill="url(#a)"/></g><defs><linearGradient xlink:href="#b" id="a" x1="32.747" y1="44" x2="32.747" y2="17.242" gradientUnits="userSpaceOnUse"/><linearGradient id="b"><stop offset="0"/><stop offset="1" stop-opacity="0"/></linearGradient></defs><path d="M29.604 15.688l.531 9.581c-.878-.219-1.96-.033-2.877.124-1.725.296-2.93 1.605-2.69 2.924.238 1.319 1.83 2.148 3.556 1.852 1.7-.292 3.97-.681 3.62-2.98l-.695-12.53a.748.748 0 0 0-.245-.515.997.997 0 0 0-.67-.401L19.34 12.226a.995.995 0 0 0-.452.04.75.75 0 0 0-.779.808l.784 9.995c-.87-.203-1.932-.02-2.834.134-1.725.296-2.93 1.605-2.69 2.923.238 1.32 1.83 2.148 3.556 1.852 1.686-.289 3.933-.674 3.628-2.922l-.843-10.759zM19.6 31.332c-.66 0-1.176.21-1.548.642-.36.408-.534.936-.534 1.59 0 .648.174 1.176.534 1.584.372.42.888.636 1.548.636.654 0 1.17-.21 1.548-.63.36-.402.54-.93.54-1.59s-.18-1.194-.54-1.596c-.378-.426-.894-.636-1.548-.636zm0 .618c.444 0 .786.138 1.026.426.234.288.354.684.354 1.188 0 .504-.12.894-.354 1.176-.24.282-.582.426-1.026.426-.444 0-.792-.15-1.032-.444-.234-.288-.348-.672-.348-1.158 0-.492.114-.876.348-1.164.246-.3.588-.45 1.032-.45zm4.608-.618c-.636 0-1.14.216-1.512.66-.354.414-.528.942-.528 1.584 0 .636.174 1.158.528 1.56.378.432.906.648 1.59.648a3.5 3.5 0 0 0 1.038-.144c.294-.096.552-.228.78-.408V33.42h-1.836v.6h1.134v.882c-.144.084-.294.15-.462.198-.18.048-.372.072-.576.072-.522 0-.906-.144-1.152-.432-.228-.27-.342-.66-.342-1.164 0-.528.126-.93.384-1.218.234-.276.552-.408.954-.408.324 0 .588.066.786.204a.987.987 0 0 1 .384.618h.708c-.078-.48-.27-.834-.576-1.074-.318-.246-.75-.366-1.302-.366zm4.536 0c-.636 0-1.14.216-1.512.66-.354.414-.528.942-.528 1.584 0 .636.174 1.158.528 1.56.378.432.906.648 1.59.648a3.5 3.5 0 0 0 1.038-.144c.294-.096.552-.228.78-.408V33.42h-1.836v.6h1.134v.882c-.144.084-.294.15-.462.198-.18.048-.372.072-.576.072-.522 0-.906-.144-1.152-.432-.228-.27-.342-.66-.342-1.164 0-.528.126-.93.384-1.218.234-.276.552-.408.954-.408.324 0 .588.066.786.204a.987.987 0 0 1 .384.618h.708c-.078-.48-.27-.834-.576-1.074-.318-.246-.75-.366-1.302-.366z" fill="#fff" fill-rule="evenodd"/></svg>