<svg xmlns="http://www.w3.org/2000/svg" xmlns:xlink="http://www.w3.org/1999/xlink" width="48" height="48"><g paint-order="markers stroke fill"><rect rx="2" ry="1.905" y="4" x="6" height="40" width="36" fill="#d86eb0"/><path d="M42 17.242A40 40 0 0 1 23.494 44H40c1.108 0 2-.85 2-1.904z" opacity=".15" fill="url(#a)"/></g><defs><linearGradient xlink:href="#b" id="a" x1="32.747" y1="44" x2="32.747" y2="17.242" gradientUnits="userSpaceOnUse"/><linearGradient id="b"><stop offset="0"/><stop offset="1" stop-opacity="0"/></linearGradient></defs><path d="M29.652 19.344l-.048-.878-9.895-1.39.413 5.271c.328-.159.686-.337 1.089-.54l.465-.236.466-.235c.351-.176.648-.322.932-.458 2.545-1.214 4.513-1.747 6.578-1.534zm.057 1.014l.426 7.69c-.878-.22-1.96-.034-2.877.123-1.725.296-2.93 1.605-2.69 2.924.238 1.318 1.83 2.147 3.556 1.852 1.7-.292 3.97-.682 3.62-2.98l-.515-9.279c1.376.439 2.198 1.165 2.598 2.103.308.723.34 1.508.208 2.228-.026.14-.05.238-.064.283a.5.5 0 1 0 .954.299c.025-.082.06-.219.094-.401.165-.897.124-1.871-.272-2.801-.553-1.299-1.719-2.267-3.577-2.77l-.121-2.193a.748.748 0 0 0-.245-.514.997.997 0 0 0-.67-.401L19.34 15.003a.995.995 0 0 0-.452.04.75.75 0 0 0-.779.808l.562 7.162c-.31.13-.61.248-.921.361-1.923.7-3.043.081-3.696-1.456a6.065 6.065 0 0 1-.376-1.296 5.235 5.235 0 0 1-.076-.578.5.5 0 1 0-.998.056c.008.147.034.39.09.698.091.513.234 1.027.44 1.511.846 1.993 2.492 2.903 4.958 2.005.224-.082.442-.165.661-.253l.14 1.785c-.87-.202-1.932-.02-2.834.135-1.725.295-2.93 1.604-2.69 2.923.238 1.319 1.83 2.148 3.556 1.852 1.686-.29 3.933-.675 3.628-2.923l-.346-4.416a68.49 68.49 0 0 0 1.456-.718l.466-.236.462-.233c.346-.173.637-.316.915-.45 2.457-1.172 4.287-1.656 6.204-1.422z" fill="#fff" fill-rule="evenodd"/></svg>