<svg xmlns="http://www.w3.org/2000/svg" xmlns:xlink="http://www.w3.org/1999/xlink" width="48" height="48"><g paint-order="markers stroke fill"><rect width="36" height="40" x="6" y="4" ry="1.905" rx="2" fill="#824ca3"/><path d="M42 17.242A40 40 0 0 1 23.494 44H40c1.108 0 2-.85 2-1.904z" opacity=".15" fill="url(#a)"/></g><defs><linearGradient xlink:href="#b" id="a" gradientUnits="userSpaceOnUse" x1="32.747" y1="44" x2="32.747" y2="17.242"/><linearGradient id="b"><stop offset="0"/><stop offset="1" stop-opacity="0"/></linearGradient></defs><g fill="#fff" fill-rule="evenodd"><path d="M29.604 15.73l.531 9.581c-.878-.219-1.96-.033-2.877.124-1.725.296-2.93 1.605-2.69 2.924.238 1.319 1.83 2.148 3.556 1.852 1.7-.292 3.97-.681 3.62-2.98l-.695-12.53a.748.748 0 0 0-.245-.515.997.997 0 0 0-.67-.401L19.34 12.268a.995.995 0 0 0-.452.04.75.75 0 0 0-.779.808l.784 9.995c-.87-.203-1.932-.02-2.834.134-1.725.296-2.93 1.605-2.69 2.923.238 1.32 1.83 2.148 3.556 1.852 1.686-.289 3.933-.674 3.628-2.922l-.843-10.759 9.895 1.39zM15.82 31.458l1.23 4.284h.75l.84-3.222h.024l.834 3.222h.744l1.236-4.284h-.792l-.804 3.258h-.024l-.846-3.258h-.726l-.846 3.258h-.024l-.804-3.258zm6.108 0v4.284h.702V32.79h.024l1.26 2.952h.606l1.26-2.952h.024v2.952h.702v-4.284h-.822l-1.452 3.36h-.024l-1.458-3.36zm6.636 0l-1.638 4.284h.75l.39-1.074h1.794l.39 1.074H31l-1.638-4.284zm-.288 2.634l.678-1.878h.024l.672 1.878z"/></g></svg>