<svg xmlns="http://www.w3.org/2000/svg" xmlns:xlink="http://www.w3.org/1999/xlink" width="48" height="48"><g paint-order="markers stroke fill"><rect rx="2" ry="1.905" y="4" x="6" height="40" width="36" fill="#ee527f"/><path d="M42 17.242A40 40 0 0 1 23.494 44H40c1.108 0 2-.85 2-1.904z" opacity=".15" fill="url(#a)"/></g><defs><linearGradient xlink:href="#b" id="a" x1="32.747" y1="44" x2="32.747" y2="17.242" gradientUnits="userSpaceOnUse"/><linearGradient id="b"><stop offset="0"/><stop offset="1" stop-opacity="0"/></linearGradient></defs><g fill="#FFF" fill-rule="evenodd"><path d="M28.47 18.475c.014.391-.115.582-.231.918l-.21.104c-.17.332.017.21-.105.475-.268.238-.81.743-.984.79-.128-.004.085-.15.113-.208-.357.245-.287.368-.834.518l-.016-.036c-1.348.635-3.221-.623-3.197-2.338-.014.109-.04.082-.07.125-.07-.882.407-1.768 1.212-2.13.787-.39 1.71-.23 2.274.295-.31-.405-.926-.836-1.657-.796-.715.012-1.385.467-1.608.96-.367.231-.41.89-.57 1.011-.214 1.58.405 2.262 1.453 3.065.164.111.046.128.068.213a2.842 2.842 0 0 1-.929-.71c.14.203.29.4.484.556-.329-.11-.767-.795-.895-.823.566 1.013 2.295 1.777 3.201 1.398-.42.015-.952.008-1.422-.166-.199-.101-.467-.312-.42-.351 1.237.461 2.514.349 3.583-.508.272-.212.57-.573.655-.578-.129.195.023.094-.077.266.27-.437-.118-.178.28-.755l.147.202c-.055-.363.451-.804.4-1.378.116-.175.129.19.006.593.17-.448.045-.52.089-.89.047.125.11.257.141.388-.111-.433.114-.73.17-.98-.055-.025-.172.19-.198-.32.004-.223.062-.117.084-.172-.044-.025-.158-.195-.228-.522.05-.077.135.2.204.21-.044-.259-.12-.457-.124-.656-.2-.42-.07.056-.233-.18-.214-.666.177-.155.203-.457.324.468.508 1.195.593 1.496a6.127 6.127 0 0 0-.297-1.066c.099.041-.158-.755.128-.228-.305-1.124-1.307-2.175-2.23-2.668.113.104.256.233.205.254-.459-.273-.378-.295-.444-.41-.373-.152-.398.012-.645 0-.704-.373-.84-.334-1.488-.567l.03.138c-.467-.156-.544.058-1.048 0-.03-.024.162-.087.32-.11-.45.06-.43-.089-.871.017.109-.077.224-.127.34-.192-.368.022-.878.214-.72.04-.6.267-1.666.643-2.264 1.203l-.018-.125c-.274.329-1.195.982-1.268 1.408l-.074.017c-.142.241-.234.515-.347.763-.187.318-.274.122-.247.172-.367.744-.55 1.368-.706 1.88.112.168.003 1.01.045 1.683-.184 3.325 2.334 6.554 5.086 7.3.403.144 1.003.139 1.513.153-.602-.172-.68-.091-1.266-.296-.423-.2-.515-.427-.815-.687l.118.21c-.587-.208-.341-.258-.82-.409l.127-.165c-.19-.015-.504-.321-.59-.491l-.209.008c-.25-.308-.383-.531-.374-.704l-.067.12c-.076-.131-.921-1.159-.483-.92-.081-.074-.19-.12-.307-.334l.09-.102c-.211-.271-.389-.62-.375-.735.112.152.19.18.268.206-.533-1.321-.563-.072-.966-1.345l.085-.007c-.065-.098-.105-.205-.158-.31l.037-.37c-.383-.443-.107-1.885-.051-2.676.038-.321.32-.664.534-1.2l-.13-.023c.25-.435 1.424-1.748 1.969-1.68.264-.332-.053-.002-.104-.085.58-.6.761-.424 1.152-.532.422-.25-.362.098-.162-.095.73-.186.517-.423 1.467-.518.1.057-.232.088-.316.162.607-.297 1.921-.229 2.776.165.99.463 2.103 1.832 2.147 3.12l.05.012c-.025.512.078 1.104-.101 1.648l.121-.258M16.51 31.724c-.009.008-.009 1.324-.026 1.668-.017.278-.043.875-.666.875-.64 0-.797-.695-.849-.998-.06-.335-.06-.613-.06-.736 0-.392.026-1.488 1.004-1.488.294 0 .459.082.588.147l.009.532zm-2.51.965c0 2.306 1.298 2.306 1.489 2.306.536 0 .883-.278 1.03-.76l.017.727c.165-.008.329-.025.597-.025.095 0 .173 0 .243.009.069 0 .138.008.216.016-.138-.262-.242-.85-.242-2.126 0-1.243 0-3.345.112-3.983-.311.14-.58.23-1.168.278.233.238.233.36.233 1.44a2.303 2.303 0 0 0-.727-.107c-1.549 0-1.8 1.276-1.8 2.225zM18.694 32.271c.009-.678.156-1.283.77-1.283.676 0 .727.703.71 1.283h-1.48zm2.337.082c0-.956-.2-1.897-1.48-1.897-1.766 0-1.766 1.849-1.766 2.24 0 1.66.788 2.315 2.112 2.315.588 0 .874-.082 1.03-.123-.008-.294.035-.482.087-.736-.182.107-.416.246-.935.246-1.35 0-1.368-1.162-1.368-1.562h2.303l.017-.483zM23.847 32.705c0 .76-.147 1.783-1.151 1.783-.139 0-.312-.025-.424-.05-.018-.294-.018-.8-.018-1.39 0-.703.078-1.07.139-1.25.181-.581.588-.59.666-.59.658 0 .788.86.788 1.497zm-2.484.891c0 .606 0 .949-.104 1.21.355.131.796.205 1.324.205.338 0 1.316 0 1.844-1.022.25-.475.337-1.112.337-1.595 0-.294-.035-.94-.285-1.35a1.216 1.216 0 0 0-1.047-.58c-.831 0-1.074.654-1.203.99 0-.417.008-1.873.077-2.617a3.588 3.588 0 0 1-1.28.319c.337.13.337.67.337 2.429v2.011zM26.428 34.962a3.269 3.269 0 0 0-.546-.041c-.276 0-.467.017-.666.04.087-.155.121-.228.147-.76.035-.727.044-2.674-.017-3.083-.043-.31-.121-.36-.242-.441.71-.066.908-.115 1.237-.262-.069.36-.078.54-.078 1.088-.017 2.821-.026 3.124.165 3.459M29.2 32.647c-.018.516-.026.876-.174 1.162-.181.368-.484.474-.71.474-.52 0-.631-.409-.631-.81 0-.768.727-.826 1.056-.826h.459zm-2.38 1.007c0 .515.164 1.03.649 1.25.216.09.432.09.502.09.796 0 1.064-.555 1.229-.899-.009.36 0 .58.026.867.156-.008.311-.025.571-.025.147 0 .286.017.433.025-.095-.139-.147-.221-.174-.54-.017-.31-.017-.621-.017-1.055l.01-1.668c0-.622-.174-1.235-1.473-1.235-.856 0-1.358.246-1.61.368.105.18.191.335.269.687a1.94 1.94 0 0 1 1.23-.425c.718 0 .718.45.718 1.087-.165-.008-.303-.024-.537-.024-1.1 0-1.827.4-1.827 1.497zM34.185 34.152c.009.279.009.573.13.81-.19-.016-.303-.04-.658-.04-.208 0-.32.016-.485.04.035-.106.052-.147.07-.286.026-.188.043-.818.043-1.039v-.883c0-.384 0-.94-.026-1.137-.018-.139-.06-.515-.563-.515-.493 0-.658.344-.718.622-.07.286-.07.597-.07 1.807.01 1.047.01 1.145.096 1.43a5.064 5.064 0 0 0-.589-.032c-.208 0-.346.008-.519.033.06-.131.095-.196.113-.654.017-.45.052-2.658-.027-3.181-.043-.32-.13-.393-.224-.475.7-.032.925-.139 1.142-.245v.867c.104-.254.32-.818 1.186-.818 1.082 0 1.09.744 1.1 1.234v2.462M26.501 29.258l-.717.677-.716-.677.716-.677.717.677"/></g></svg>