<svg xmlns="http://www.w3.org/2000/svg" xmlns:xlink="http://www.w3.org/1999/xlink" width="48" height="48"><g paint-order="markers stroke fill"><rect rx="2" ry="1.905" y="4" x="6" height="40" width="36" fill="#4caf50"/><path d="M42 17.242A40 40 0 0 1 23.494 44H40c1.108 0 2-.85 2-1.904z" opacity=".15" fill="url(#a)"/></g><defs><linearGradient xlink:href="#b" id="a" x1="32.747" y1="44" x2="32.747" y2="17.242" gradientUnits="userSpaceOnUse"/><linearGradient id="b"><stop offset="0"/><stop offset="1" stop-opacity="0"/></linearGradient></defs><path d="M23.04 14c-1.409 0-2.55.79-2.55 1.765.041.363.271.822.392.98.589.784.589 1.275.442 1.569h-4.755c-.87 0-1.569.7-1.569 1.568v3.97c.294.148.784.148 1.569-.44.157-.122.616-.351.98-.392.975 0 1.765 1.14 1.765 2.549 0 1.407-.79 2.549-1.765 2.549-.3-.005-.754-.273-.98-.393-.785-.588-1.275-.588-1.569-.44v5.146c0 .87.7 1.569 1.569 1.569h6.323c.147-.294.147-.784-.441-1.569-.121-.157-.351-.616-.392-.98 0-.975 1.141-1.765 2.549-1.765s2.549.79 2.549 1.765c-.005.3-.273.754-.392.98-.589.785-.589 1.275-.441 1.569h2.794c.869 0 1.568-.7 1.568-1.569V28.07c.294-.147.785-.147 1.569.44.226.12.681.388.98.393.975 0 1.765-1.141 1.765-2.55 0-1.407-.79-2.548-1.765-2.548-.363.04-.822.27-.98.392-.784.588-1.275.588-1.569.441v-4.755c0-.869-.7-1.568-1.568-1.568h-4.363c-.147-.294-.147-.785.441-1.569.12-.226.387-.681.392-.98 0-.975-1.141-1.765-2.549-1.765z" fill="#FFF" fill-rule="evenodd"/></svg>