<svg xmlns="http://www.w3.org/2000/svg" xmlns:xlink="http://www.w3.org/1999/xlink" width="48" height="48"><g paint-order="markers stroke fill"><rect rx="2" ry="1.905" y="4" x="6" height="40" width="36" fill="#4d4d4d"/><path d="M42 17.242A40 40 0 0 1 23.494 44H40c1.108 0 2-.85 2-1.904z" opacity=".15" fill="url(#a)"/></g><defs><linearGradient xlink:href="#b" id="a" x1="32.747" y1="44" x2="32.747" y2="17.242" gradientUnits="userSpaceOnUse"/><linearGradient id="b"><stop offset="0"/><stop offset="1" stop-opacity="0"/></linearGradient></defs><path d="M20.136 26.232c-.072.72-.096 1.344-.096 1.824.024 1.368.408 1.968.888 2.184.216.096.36.024.36-.216.048-1.272.192-2.592.36-3.84a5.62 5.62 0 0 1 1.032.144c.216.072.312 0 .264-.216-.096-.504-.36-.984-1.08-1.224a50.053 50.053 0 0 1 1.752-6.984c.216-.648.24-1.176 0-1.752-.24-.6-.312-.648-.552-.984-.24-.336-.48-.336-.864-.024-2.544 2.088-5.88 6.84-7.752 10.104a13.493 13.493 0 0 1-1.08-.12c-.36-.048-.408.048-.288.36.072.168.264.528.792.816a12.983 12.983 0 0 0-.648 1.368c-.504 1.344-.408 2.064-.12 2.448.12.168.336.168.432-.048a37.964 37.964 0 0 1 1.824-3.456c1.128.024 3.072-.264 4.776-.384zm-3.864-1.056c1.824-2.856 4.008-5.76 5.832-7.8-.744 1.872-1.416 4.896-1.776 7.392-1.128.024-2.592.288-4.056.408zM31.008 22.2c.048-.936-.432-1.728-1.464-1.728-1.2 0-3.096 1.08-5.04 3.912-1.992 2.904-1.536 5.952.696 5.952 1.152 0 2.232-.888 3-1.872 0 1.128.672 1.896 1.968 1.968 1.32.072 2.832-1.248 3.456-2.568.312-.672.312-1.272.216-1.488-.096-.216-.264-.192-.384.024-.84 1.656-2.16 3.288-3.144 3.336-.816.048-.792-.984-.192-2.328.576-1.272 1.776-3.072 2.304-4.152.576-1.2.384-2.232.024-2.664-.168-.216-.36-.168-.576.144-.264.384-.552.888-.864 1.464zm-2.088 3.72c-1.224 2.112-2.472 3.648-3.456 3.624-.936-.024-.624-2.136.648-4.2 1.32-2.136 3.072-3.696 3.84-3.624.696.072.48 1.56-1.032 4.2z" fill="#FFF" fill-rule="evenodd"/></svg>