<svg xmlns="http://www.w3.org/2000/svg" xmlns:xlink="http://www.w3.org/1999/xlink" width="48" height="48"><g paint-order="markers stroke fill"><rect rx="2" ry="1.905" y="4" x="6" height="40" width="36" fill="#0091ea"/><path d="M42 17.242A40 40 0 0 1 23.494 44H40c1.108 0 2-.85 2-1.904z" opacity=".15" fill="url(#a)"/></g><defs><linearGradient xlink:href="#b" id="a" x1="32.747" y1="44" x2="32.747" y2="17.242" gradientUnits="userSpaceOnUse"/><linearGradient id="b"><stop offset="0"/><stop offset="1" stop-opacity="0"/></linearGradient></defs><path d="M15.975 28.222H13.35c-.38 0-.65-.085-.812-.255-.162-.17-.243-.44-.243-.812v-6.457c0-.379.083-.651.249-.817.166-.166.435-.25.806-.25h2.783c.41 0 .765.026 1.066.077.301.05.57.148.809.293a2.121 2.121 0 0 1 .896 1.075c.082.225.123.462.123.712 0 .86-.43 1.488-1.289 1.887 1.13.36 1.694 1.058 1.694 2.097 0 .48-.123.914-.37 1.298a2.215 2.215 0 0 1-.996.853c-.261.11-.562.186-.902.231-.34.045-.736.068-1.19.068zm-.13-3.815h-1.81v2.508h1.87c1.175 0 1.763-.424 1.763-1.271 0-.434-.152-.748-.457-.944-.305-.195-.76-.293-1.365-.293zm-1.81-3.469v2.221h1.594c.434 0 .768-.04 1.005-.123a.96.96 0 0 0 .542-.469c.097-.164.146-.347.146-.55 0-.434-.154-.722-.463-.865-.308-.142-.779-.214-1.412-.214zm9.803 5.989l-1.377-5.473v5.93c0 .328-.073.574-.22.738a.743.743 0 0 1-.583.246.743.743 0 0 1-.574-.243c-.148-.162-.223-.41-.223-.741v-6.797c0-.375.098-.628.293-.759.196-.13.46-.196.791-.196h.54c.324 0 .559.03.705.088a.593.593 0 0 1 .326.316c.07.152.15.4.24.744l1.248 4.705 1.248-4.705c.09-.343.17-.592.24-.744a.593.593 0 0 1 .325-.316c.147-.059.382-.088.706-.088h.54c.332 0 .595.065.79.196.196.131.293.384.293.759v6.797c0 .328-.073.574-.22.738a.75.75 0 0 1-.588.246.732.732 0 0 1-.568-.246c-.149-.164-.223-.41-.223-.738v-5.93l-1.377 5.473c-.09.355-.163.616-.22.782a1.08 1.08 0 0 1-.313.454c-.153.137-.364.205-.633.205a.954.954 0 0 1-.516-.132.95.95 0 0 1-.328-.337 1.923 1.923 0 0 1-.184-.454l-.138-.518zm10.43-2.051h-1.594v2.432c0 .347-.082.61-.246.79a.805.805 0 0 1-.621.27.811.811 0 0 1-.633-.266c-.16-.178-.24-.439-.24-.783V20.7c0-.384.087-.657.263-.821.176-.164.455-.246.838-.246h2.233c.66 0 1.168.05 1.523.152.352.098.655.26.911.487.256.226.45.503.583.832.133.328.2.697.2 1.107 0 .875-.27 1.538-.81 1.99-.538.45-1.341.676-2.407.676zm-.422-3.938h-1.172v2.625h1.172c.41 0 .753-.042 1.028-.128s.485-.227.63-.422c.144-.196.217-.451.217-.768 0-.379-.112-.687-.334-.926-.25-.254-.764-.38-1.541-.38z" fill="#fff" fill-rule="evenodd"/></svg>