<svg xmlns="http://www.w3.org/2000/svg" xmlns:xlink="http://www.w3.org/1999/xlink" width="48" height="48"><g paint-order="markers stroke fill"><rect rx="2" ry="1.905" y="4" x="6" height="40" width="36" fill="#8bc34a"/><path d="M42 17.242A40 40 0 0 1 23.494 44H40c1.108 0 2-.85 2-1.904z" opacity=".15" fill="url(#a)"/></g><defs><linearGradient xlink:href="#b" id="a" x1="32.747" y1="44" x2="32.747" y2="17.242" gradientUnits="userSpaceOnUse"/><linearGradient id="b"><stop offset="0"/><stop offset="1" stop-opacity="0"/></linearGradient></defs><path d="M18.106 12.606h10.469l.378 3.544h-.616a6.427 6.427 0 0 0-1.1-1.794c-.475-.56-.909-.88-1.302-.963a4.581 4.581 0 0 0-.686-.071 20.661 20.661 0 0 0-.862-.018H20.57l5.103 6.726v.239l-5.798 6.955h7.012c.31 0 .598-.077.862-.23.264-.147.495-.339.695-.574.21-.248.399-.525.563-.831.164-.306.299-.59.405-.848l.589.185-1.038 3.88H18v-.433l6.123-7.415-6.017-7.954v-.398zm-2.612 18.498l1.068 1.452-1.206 1.65h.804l.78-1.146.774 1.146h.804l-1.206-1.65 1.068-1.452h-.798l-.642.948-.648-.948zm4.59.036v1.23h-1.236v.564h1.236v1.236h.564v-1.236h1.23v-.564h-1.23v-1.23zm2.124-.036l1.23 3.03-.546 1.26h.732l1.68-4.29h-.744l-.786 2.208-.822-2.208zm3.426.648v.564h3.03v-.564zm0 1.242v.564h3.03v-.564zm3.54-1.89v.558h1.656l-1.716 2.082v.462h2.736v-.558h-1.836l1.74-2.106v-.438z" fill="#fff" fill-rule="evenodd"/></svg>