<svg xmlns="http://www.w3.org/2000/svg" xmlns:xlink="http://www.w3.org/1999/xlink" width="48" height="48"><g paint-order="markers stroke fill"><rect width="36" height="40" x="6" y="4" ry="1.905" rx="2" fill="#f88e45"/><path d="M42 17.242A40 40 0 0 1 23.494 44H40c1.108 0 2-.85 2-1.904z" opacity=".15" fill="url(#a)"/></g><defs><linearGradient xlink:href="#b" id="a" gradientUnits="userSpaceOnUse" x1="32.747" y1="44" x2="32.747" y2="17.242"/><linearGradient id="b"><stop offset="0"/><stop offset="1" stop-opacity="0"/></linearGradient></defs><path d="M18.764 21.14h-1.899v6.24c0 .36-.08.627-.24.8a.806.806 0 0 1-.621.261.818.818 0 0 1-.63-.263c-.162-.176-.243-.442-.243-.797v-6.24h-1.899c-.296 0-.517-.066-.662-.197a.666.666 0 0 1-.216-.518c0-.223.075-.399.225-.528.15-.128.368-.193.653-.193h5.532c.3 0 .524.066.67.2a.67.67 0 0 1 .22.52.658.658 0 0 1-.222.52c-.149.13-.371.196-.668.196zm1.992 6.24v-6.767c0-.351.08-.615.24-.79a.802.802 0 0 1 .621-.264c.262 0 .474.087.636.26.162.174.243.439.243.794v6.768c0 .355-.081.621-.243.797a.824.824 0 0 1-.636.263.8.8 0 0 1-.618-.266c-.162-.178-.243-.443-.243-.794zm8.818-6.333h-3.428v2.197h2.866c.265 0 .464.06.594.179.131.119.197.278.197.477a.6.6 0 0 1-.2.475c-.132.117-.33.176-.591.176h-2.866v2.83c0 .36-.08.626-.243.8a.815.815 0 0 1-.624.26.818.818 0 0 1-.63-.263c-.162-.176-.243-.442-.243-.797v-6.61c0-.25.037-.454.112-.612a.691.691 0 0 1 .348-.346c.158-.072.36-.108.607-.108h4.101c.278 0 .484.062.618.185a.624.624 0 0 1 .203.483.63.63 0 0 1-.203.49c-.134.122-.34.184-.618.184zm7.248 0h-3.427v2.197h2.865c.265 0 .464.06.594.179.131.119.197.278.197.477 0 .2-.067.358-.2.475-.132.117-.33.176-.591.176h-2.865v2.83c0 .36-.082.626-.244.8a.815.815 0 0 1-.624.26.818.818 0 0 1-.63-.263c-.162-.176-.243-.442-.243-.797v-6.61c0-.25.037-.454.112-.612a.691.691 0 0 1 .348-.346c.158-.072.36-.108.607-.108h4.101c.278 0 .484.062.618.185a.624.624 0 0 1 .203.483.63.63 0 0 1-.203.49c-.134.122-.34.184-.618.184z" fill="#fff" fill-rule="evenodd"/></svg>