<svg xmlns="http://www.w3.org/2000/svg" xmlns:xlink="http://www.w3.org/1999/xlink" width="48" height="48"><g paint-order="markers stroke fill"><rect rx="2" ry="1.905" y="4" x="6" height="40" width="36" fill="#32a3d7"/><path d="M42 17.242A40 40 0 0 1 23.494 44H40c1.108 0 2-.85 2-1.904z" opacity=".15" fill="url(#a)"/></g><defs><linearGradient xlink:href="#b" id="a" x1="32.747" y1="44" x2="32.747" y2="17.242" gradientUnits="userSpaceOnUse"/><linearGradient id="b"><stop offset="0"/><stop offset="1" stop-opacity="0"/></linearGradient></defs><path d="M24 31a7 7 0 1 0 0-14 7 7 0 0 0 0 14zm-2.108-10.425c.379-.353-.757-.705.379-1.409 1.135-.704 1.514 1.056 2.649 1.056s1.135-.704 2.27 0c1.136.705 1.136 2.113-.378 1.76-1.514-.351-2.649-1.055-2.649.353S20 22.687 20 21.279c0-1.409 1.514-.352 1.892-.704zm6.32 4.395c.102.332.648-.248.741.644.093.892-.744.43-1.039 1.582-.295 1.152-1.084.334-1.844.81-.277.174-.047 1.048-.76 1.16-.858.137-1.877-.251-2.18-.32-.552-.127-1.43-1.102.03-1.141 1.46-.04.024-.335.76-1.16.329-.37 1.214.098 1.825-.05.756-.184 1.183-.954.711-1.184-.853-.416 1.032-2.106 1.885-1.69.853.416-.231 1.017-.13 1.349zm-7.88 1.697s-.92-.667.306-.667 1.839 1 .92 1c-.92 0-1.227-.333-1.227-.333zm-4.137-.75v1.935l-6.877-2.98v-1.655l6.877-2.98v1.948l-4.792 1.845zm22.162-1.046l-6.877 2.994v-1.934l4.806-1.887-4.806-1.86v-1.92l6.877 2.966z" fill="#fff" fill-rule="evenodd"/></svg>