<?xml version="1.0" encoding="UTF-8" standalone="no"?>
<svg
   xmlns:dc="http://purl.org/dc/elements/1.1/"
   xmlns:cc="http://creativecommons.org/ns#"
   xmlns:rdf="http://www.w3.org/1999/02/22-rdf-syntax-ns#"
   xmlns:svg="http://www.w3.org/2000/svg"
   xmlns="http://www.w3.org/2000/svg"
   xmlns:xlink="http://www.w3.org/1999/xlink"
   xmlns:sodipodi="http://sodipodi.sourceforge.net/DTD/sodipodi-0.dtd"
   xmlns:inkscape="http://www.inkscape.org/namespaces/inkscape"
   width="48px"
   height="48px"
   viewBox="0 0 48 48"
   version="1.1"
   id="svg18"
   sodipodi:docname="gnome-mime-image-x-portable-bitmap.svg"
   inkscape:version="0.92.2 2405546, 2018-03-11">
  <metadata
     id="metadata22">
    <rdf:RDF>
      <cc:Work
         rdf:about="">
        <dc:format>image/svg+xml</dc:format>
        <dc:type
           rdf:resource="http://purl.org/dc/dcmitype/StillImage" />
      </cc:Work>
    </rdf:RDF>
  </metadata>
  <sodipodi:namedview
     pagecolor="#ffffff"
     bordercolor="#666666"
     borderopacity="1"
     objecttolerance="10"
     gridtolerance="10"
     guidetolerance="10"
     inkscape:pageopacity="0"
     inkscape:pageshadow="2"
     inkscape:window-width="1920"
     inkscape:window-height="1051"
     id="namedview20"
     showgrid="false"
     inkscape:zoom="4.9166667"
     inkscape:cx="24"
     inkscape:cy="24"
     inkscape:window-x="0"
     inkscape:window-y="29"
     inkscape:window-maximized="1"
     inkscape:current-layer="svg18" />
  <!-- Generator: Sketch 41.2 (35397) - http://www.bohemiancoding.com/sketch -->
  <title
     id="title2">gnome-mime-image-x-portable-bitmap</title>
  <desc
     id="desc4">Created with Sketch.</desc>
  <g
     id="g829">
    <rect
       rx="2"
       ry="1.9047618"
       y="4"
       x="6"
       height="40"
       width="36"
       id="rect834"
       style="opacity:1;fill:#0091ea;fill-opacity:1;stroke:none;stroke-width:0.92582005;stroke-linecap:round;stroke-linejoin:round;stroke-miterlimit:4;stroke-dasharray:none;stroke-opacity:0.05882353;paint-order:markers stroke fill" />
    <path
       inkscape:connector-curvature="0"
       id="rect866"
       d="M 42,17.242188 A 40,40 0 0 1 23.494141,44 H 40 c 1.108,0 2,-0.849059 2,-1.904297 z"
       style="opacity:0.15;fill:url(#linearGradient877);fill-opacity:1;stroke:none;stroke-width:0.92582005;stroke-linecap:round;stroke-linejoin:round;stroke-miterlimit:4;stroke-dasharray:none;stroke-opacity:0.05882353;paint-order:markers stroke fill" />
  </g>
  <defs
     id="defs11">
    <linearGradient
       inkscape:collect="always"
       xlink:href="#linearGradient875"
       id="linearGradient877"
       x1="32.74707"
       y1="44"
       x2="32.74707"
       y2="17.242188"
       gradientUnits="userSpaceOnUse" />
    <linearGradient
       inkscape:collect="always"
       id="linearGradient875">
      <stop
         style="stop-color:#000000;stop-opacity:1;"
         offset="0"
         id="stop871" />
      <stop
         style="stop-color:#000000;stop-opacity:0;"
         offset="1"
         id="stop873" />
    </linearGradient>
  </defs>
  <g
     id="Page-1"
     transform="translate(0,-2.7783203)"
     style="fill:none;fill-rule:evenodd;stroke:none;stroke-width:1">
    <g
       id="gnome-mime-image-x-portable-bitmap">
      <path
         d="m 15.974609,31 h -2.625 c -0.378908,0 -0.649413,-0.08496 -0.811523,-0.254883 -0.16211,-0.169923 -0.243164,-0.440428 -0.243164,-0.811523 v -6.457032 c 0,-0.378908 0.08301,-0.651366 0.249023,-0.817382 0.166017,-0.166017 0.434569,-0.249024 0.805664,-0.249024 h 2.783203 c 0.410159,0 0.765624,0.02539 1.066407,0.07617 0.300782,0.05078 0.570311,0.148437 0.808593,0.292969 0.203126,0.121094 0.382812,0.274413 0.539063,0.459961 0.156251,0.185548 0.27539,0.390624 0.357422,0.615234 0.08203,0.224611 0.123047,0.461913 0.123047,0.711914 0,0.859379 -0.429684,1.48828 -1.289063,1.886719 1.128912,0.359377 1.69336,1.058589 1.69336,2.097656 0,0.480471 -0.123046,0.913084 -0.369141,1.297852 -0.246095,0.384767 -0.578123,0.668944 -0.996094,0.852539 -0.26172,0.109375 -0.562498,0.186523 -0.902344,0.231445 C 16.824217,30.977539 16.427737,31 15.974609,31 Z m -0.128906,-3.814453 h -1.810547 v 2.507812 h 1.869141 c 1.175787,0 1.763672,-0.423824 1.763672,-1.271484 0,-0.433596 -0.152343,-0.748046 -0.457032,-0.943359 -0.304689,-0.195314 -0.759762,-0.292969 -1.365234,-0.292969 z m -1.810547,-3.46875 V 25.9375 h 1.59375 c 0.433596,0 0.768554,-0.04102 1.004883,-0.123047 0.236329,-0.08203 0.416992,-0.23828 0.541992,-0.46875 0.09766,-0.164063 0.146485,-0.347655 0.146485,-0.550781 0,-0.433596 -0.154296,-0.721679 -0.462891,-0.864258 -0.308595,-0.142579 -0.779294,-0.213867 -1.412109,-0.213867 z m 9.802735,5.988281 -1.376954,-5.472656 v 5.929687 c 0,0.328127 -0.07324,0.574218 -0.219726,0.738282 -0.146485,0.164063 -0.340819,0.246093 -0.583008,0.246093 -0.234376,0 -0.42578,-0.08105 -0.574219,-0.243164 -0.148438,-0.16211 -0.222656,-0.409178 -0.222656,-0.741211 v -6.796875 c 0,-0.375002 0.09765,-0.627929 0.292969,-0.758789 0.195313,-0.13086 0.458983,-0.196289 0.791015,-0.196289 h 0.539063 c 0.32422,0 0.55957,0.0293 0.706055,0.08789 0.146485,0.05859 0.254882,0.164062 0.325195,0.316406 0.07031,0.152345 0.15039,0.400389 0.240234,0.744141 l 1.248047,4.705078 1.248047,-4.705078 c 0.08984,-0.343752 0.169922,-0.591796 0.240234,-0.744141 0.07031,-0.152344 0.178711,-0.257812 0.325196,-0.316406 0.146485,-0.05859 0.381834,-0.08789 0.706054,-0.08789 H 28.0625 c 0.332033,0 0.595702,0.06543 0.791016,0.196289 0.195313,0.13086 0.292968,0.383787 0.292968,0.758789 v 6.796875 c 0,0.328127 -0.07324,0.574218 -0.219726,0.738282 -0.146485,0.164063 -0.342772,0.246093 -0.588867,0.246093 -0.23047,0 -0.419921,-0.08203 -0.56836,-0.246093 -0.148438,-0.164064 -0.222656,-0.410155 -0.222656,-0.738282 v -5.929687 l -1.376953,5.472656 c -0.08984,0.355471 -0.163086,0.61621 -0.219727,0.782227 -0.05664,0.166016 -0.161132,0.317382 -0.313476,0.454101 -0.152345,0.13672 -0.36328,0.205078 -0.632813,0.205078 -0.203126,0 -0.374999,-0.04395 -0.515625,-0.131836 -0.140626,-0.08789 -0.249999,-0.200194 -0.328125,-0.336914 -0.07813,-0.136719 -0.139648,-0.288085 -0.18457,-0.454101 -0.04492,-0.166017 -0.09082,-0.338866 -0.137695,-0.518555 z m 10.429687,-2.050781 h -1.59375 v 2.43164 c 0,0.347658 -0.08203,0.611328 -0.246094,0.791016 -0.164063,0.179689 -0.371092,0.269531 -0.621093,0.269531 -0.26172,0 -0.472656,-0.08887 -0.632813,-0.266601 -0.160157,-0.177736 -0.240234,-0.438475 -0.240234,-0.782227 v -6.621094 c 0,-0.382814 0.08789,-0.656249 0.263672,-0.820312 0.175782,-0.164063 0.455076,-0.246094 0.83789,-0.246094 h 2.232422 c 0.66016,0 1.167967,0.05078 1.523438,0.152344 0.351564,0.09766 0.655272,0.259764 0.911132,0.486328 0.255861,0.226564 0.450195,0.503905 0.583008,0.832031 0.132813,0.328127 0.199219,0.697264 0.199219,1.107422 0,0.875005 -0.269529,1.538084 -0.808594,1.989258 -0.539065,0.451174 -1.341791,0.676758 -2.408203,0.676758 z m -0.421875,-3.9375 h -1.171875 v 2.625 h 1.171875 c 0.410158,0 0.752928,-0.04297 1.02832,-0.128906 0.275392,-0.08594 0.485351,-0.226562 0.629883,-0.421875 0.144532,-0.195314 0.216797,-0.451171 0.216797,-0.767579 0,-0.378908 -0.111327,-0.687498 -0.333984,-0.925781 -0.250001,-0.253907 -0.763668,-0.380859 -1.541016,-0.380859 z"
         id="BMP"
         inkscape:connector-curvature="0"
         style="fill:#ffffff" />
    </g>
  </g>
</svg>
