<svg xmlns="http://www.w3.org/2000/svg" xmlns:xlink="http://www.w3.org/1999/xlink" width="48" height="48"><g paint-order="markers stroke fill"><rect rx="2" ry="1.905" y="4" x="6" height="40" width="36" fill="#614ca3"/><path d="M42 17.242A40 40 0 0 1 23.494 44H40c1.108 0 2-.85 2-1.904z" opacity=".15" fill="url(#a)"/></g><defs><linearGradient xlink:href="#b" id="a" x1="32.747" y1="44" x2="32.747" y2="17.242" gradientUnits="userSpaceOnUse"/><linearGradient id="b"><stop offset="0"/><stop offset="1" stop-opacity="0"/></linearGradient></defs><path d="M22.415 24.803v1.646c0 .219-.021.394-.064.525a.83.83 0 0 1-.238.354 2.235 2.235 0 0 1-.442.305c-.52.281-1.02.486-1.5.615a6.047 6.047 0 0 1-1.57.193c-.66 0-1.262-.101-1.805-.304a3.796 3.796 0 0 1-1.389-.885 3.906 3.906 0 0 1-.882-1.406A5.257 5.257 0 0 1 14.218 24c0-.668.1-1.28.299-1.834.199-.555.492-1.025.879-1.412a3.858 3.858 0 0 1 1.412-.888c.554-.205 1.183-.307 1.886-.307.578 0 1.09.077 1.535.231.446.154.807.349 1.084.583a2.6 2.6 0 0 1 .627.744c.141.262.211.494.211.697a.744.744 0 0 1-.243.56.816.816 0 0 1-.943.144.818.818 0 0 1-.29-.247 6.929 6.929 0 0 0-.545-.761 1.758 1.758 0 0 0-.6-.434c-.253-.117-.574-.176-.965-.176-.402 0-.761.07-1.078.208-.316.14-.587.34-.811.604a2.722 2.722 0 0 0-.516.97c-.119.382-.179.806-.179 1.271 0 1.008.232 1.783.695 2.326.463.543 1.108.815 1.936.815.403 0 .78-.053 1.134-.158a5.742 5.742 0 0 0 1.075-.452V25.09h-1.347c-.325 0-.57-.049-.736-.147-.166-.097-.249-.263-.249-.498 0-.191.07-.35.208-.474.139-.125.327-.188.566-.188h1.974c.242 0 .448.022.616.065a.694.694 0 0 1 .407.287c.103.148.155.37.155.668zm1.729 2.578v-6.768c0-.351.08-.615.24-.79a.802.802 0 0 1 .62-.264c.263 0 .475.087.637.26.162.174.243.439.243.794v6.768c0 .355-.081.621-.243.797a.824.824 0 0 1-.636.263.8.8 0 0 1-.618-.266c-.162-.178-.243-.443-.243-.794zm8.818-6.334h-3.428v2.197H32.4c.266 0 .464.06.595.179.131.119.196.278.196.477 0 .2-.066.358-.199.475-.133.117-.33.176-.592.176h-2.865v2.83c0 .36-.08.626-.243.8a.815.815 0 0 1-.624.26.818.818 0 0 1-.63-.263c-.162-.176-.243-.442-.243-.797v-6.61c0-.25.037-.454.111-.612a.691.691 0 0 1 .349-.346c.158-.072.36-.108.606-.108h4.102c.277 0 .483.062.618.185a.624.624 0 0 1 .202.483.63.63 0 0 1-.202.49c-.135.122-.34.184-.618.184z" fill="#fff" fill-rule="evenodd"/></svg>