<?xml version="1.0" encoding="UTF-8" standalone="no"?>
<svg
   xmlns:dc="http://purl.org/dc/elements/1.1/"
   xmlns:cc="http://creativecommons.org/ns#"
   xmlns:rdf="http://www.w3.org/1999/02/22-rdf-syntax-ns#"
   xmlns:svg="http://www.w3.org/2000/svg"
   xmlns="http://www.w3.org/2000/svg"
   xmlns:xlink="http://www.w3.org/1999/xlink"
   xmlns:sodipodi="http://sodipodi.sourceforge.net/DTD/sodipodi-0.dtd"
   xmlns:inkscape="http://www.inkscape.org/namespaces/inkscape"
   width="48px"
   height="48px"
   viewBox="0 0 48 48"
   version="1.1"
   id="svg18"
   sodipodi:docname="gnome-mime-image-tiff.svg"
   inkscape:version="0.92.2 2405546, 2018-03-11">
  <metadata
     id="metadata22">
    <rdf:RDF>
      <cc:Work
         rdf:about="">
        <dc:format>image/svg+xml</dc:format>
        <dc:type
           rdf:resource="http://purl.org/dc/dcmitype/StillImage" />
      </cc:Work>
    </rdf:RDF>
  </metadata>
  <sodipodi:namedview
     pagecolor="#ffffff"
     bordercolor="#666666"
     borderopacity="1"
     objecttolerance="10"
     gridtolerance="10"
     guidetolerance="10"
     inkscape:pageopacity="0"
     inkscape:pageshadow="2"
     inkscape:window-width="1920"
     inkscape:window-height="1051"
     id="namedview20"
     showgrid="false"
     inkscape:zoom="4.9166667"
     inkscape:cx="24"
     inkscape:cy="24"
     inkscape:window-x="0"
     inkscape:window-y="29"
     inkscape:window-maximized="1"
     inkscape:current-layer="svg18" />
  <!-- Generator: Sketch 41.2 (35397) - http://www.bohemiancoding.com/sketch -->
  <title
     id="title2">gnome-mime-image-tiff</title>
  <desc
     id="desc4">Created with Sketch.</desc>
  <g
     id="g851">
    <rect
       style="opacity:1;fill:#f88e45;fill-opacity:1;stroke:none;stroke-width:0.92582005;stroke-linecap:round;stroke-linejoin:round;stroke-miterlimit:4;stroke-dasharray:none;stroke-opacity:0.05882353;paint-order:markers stroke fill"
       id="rect846"
       width="36"
       height="40"
       x="6"
       y="4"
       ry="1.9047618"
       rx="2" />
    <path
       style="opacity:0.15;fill:url(#linearGradient853);fill-opacity:1;stroke:none;stroke-width:0.92582005;stroke-linecap:round;stroke-linejoin:round;stroke-miterlimit:4;stroke-dasharray:none;stroke-opacity:0.05882353;paint-order:markers stroke fill"
       d="M 42,17.242188 A 40,40 0 0 1 23.494141,44 H 40 c 1.108,0 2,-0.849059 2,-1.904297 z"
       id="path848"
       inkscape:connector-curvature="0" />
  </g>
  <defs
     id="defs11">
    <linearGradient
       inkscape:collect="always"
       xlink:href="#linearGradient875"
       id="linearGradient853"
       gradientUnits="userSpaceOnUse"
       x1="32.74707"
       y1="44"
       x2="32.74707"
       y2="17.242188" />
    <linearGradient
       inkscape:collect="always"
       id="linearGradient875">
      <stop
         style="stop-color:#000000;stop-opacity:1;"
         offset="0"
         id="stop871" />
      <stop
         style="stop-color:#000000;stop-opacity:0;"
         offset="1"
         id="stop873" />
    </linearGradient>
  </defs>
  <g
     id="Page-1"
     transform="translate(0,-2.7050781)"
     style="fill:none;fill-rule:evenodd;stroke:none;stroke-width:1">
    <g
       id="gnome-mime-image-tiff">
      <path
         d="m 18.763672,23.845703 h -1.898438 v 6.240234 c 0,0.359377 -0.08008,0.625976 -0.240234,0.799805 -0.160157,0.173829 -0.367186,0.260742 -0.621094,0.260742 -0.257813,0 -0.467772,-0.08789 -0.629883,-0.263672 -0.16211,-0.175782 -0.243164,-0.441404 -0.243164,-0.796875 v -6.240234 h -1.898437 c -0.296877,0 -0.517577,-0.06543 -0.662109,-0.196289 -0.144532,-0.13086 -0.216797,-0.30371 -0.216797,-0.518555 0,-0.222657 0.07519,-0.398437 0.225586,-0.527343 0.150391,-0.128907 0.368162,-0.19336 0.65332,-0.19336 h 5.53125 c 0.300783,0 0.524413,0.06641 0.670898,0.199219 0.146485,0.132813 0.219727,0.30664 0.219727,0.521484 0,0.214845 -0.07422,0.387695 -0.222656,0.518555 -0.148439,0.13086 -0.371093,0.196289 -0.667969,0.196289 z m 1.992187,6.240234 v -6.767578 c 0,-0.351564 0.08008,-0.615233 0.240235,-0.791015 0.160157,-0.175782 0.367186,-0.263672 0.621093,-0.263672 0.261721,0 0.473632,0.08691 0.635743,0.260742 0.16211,0.173829 0.243164,0.438475 0.243164,0.793945 v 6.767578 c 0,0.355471 -0.08105,0.621093 -0.243164,0.796875 -0.162111,0.175783 -0.374022,0.263672 -0.635743,0.263672 -0.250001,0 -0.456053,-0.08887 -0.618164,-0.266601 -0.16211,-0.177736 -0.243164,-0.442381 -0.243164,-0.793946 z m 8.81836,-6.333984 h -3.427735 v 2.197266 h 2.865235 c 0.265626,0 0.463866,0.05957 0.594726,0.178711 0.13086,0.119141 0.196289,0.278319 0.196289,0.477539 0,0.199219 -0.0664,0.357421 -0.199218,0.474609 -0.132813,0.117188 -0.330077,0.175781 -0.591797,0.175781 h -2.865235 v 2.830078 c 0,0.359377 -0.08105,0.625976 -0.243164,0.799805 -0.16211,0.173829 -0.370116,0.260742 -0.624023,0.260742 -0.257814,0 -0.467773,-0.08789 -0.629883,-0.263672 -0.16211,-0.175782 -0.243164,-0.441404 -0.243164,-0.796875 v -6.609375 c 0,-0.250001 0.03711,-0.4541 0.111328,-0.612304 0.07422,-0.158204 0.190429,-0.273437 0.348633,-0.345703 0.158204,-0.07227 0.36035,-0.108399 0.606445,-0.108399 h 4.101563 c 0.277345,0 0.483398,0.06152 0.618164,0.184571 0.134766,0.123047 0.202148,0.284178 0.202148,0.483398 0,0.203126 -0.06738,0.36621 -0.202148,0.489258 -0.134766,0.123047 -0.340819,0.18457 -0.618164,0.18457 z m 7.248047,0 h -3.427735 v 2.197266 h 2.865235 c 0.265626,0 0.463866,0.05957 0.594726,0.178711 0.13086,0.119141 0.196289,0.278319 0.196289,0.477539 0,0.199219 -0.06641,0.357421 -0.199219,0.474609 -0.132813,0.117188 -0.330076,0.175781 -0.591796,0.175781 h -2.865235 v 2.830078 c 0,0.359377 -0.08105,0.625976 -0.243164,0.799805 -0.16211,0.173829 -0.370116,0.260742 -0.624023,0.260742 -0.257814,0 -0.467773,-0.08789 -0.629883,-0.263672 -0.16211,-0.175782 -0.243164,-0.441404 -0.243164,-0.796875 v -6.609375 c 0,-0.250001 0.03711,-0.4541 0.111328,-0.612304 0.07422,-0.158204 0.190429,-0.273437 0.348633,-0.345703 0.158204,-0.07227 0.36035,-0.108399 0.606445,-0.108399 h 4.101563 c 0.277345,0 0.483397,0.06152 0.618164,0.184571 0.134766,0.123047 0.202148,0.284178 0.202148,0.483398 0,0.203126 -0.06738,0.36621 -0.202148,0.489258 -0.134767,0.123047 -0.340819,0.18457 -0.618164,0.18457 z"
         id="TIFF"
         inkscape:connector-curvature="0"
         style="fill:#ffffff" />
    </g>
  </g>
</svg>
