<?xml version="1.0" encoding="UTF-8" standalone="no"?>
<svg
   xmlns:dc="http://purl.org/dc/elements/1.1/"
   xmlns:cc="http://creativecommons.org/ns#"
   xmlns:rdf="http://www.w3.org/1999/02/22-rdf-syntax-ns#"
   xmlns:svg="http://www.w3.org/2000/svg"
   xmlns="http://www.w3.org/2000/svg"
   xmlns:xlink="http://www.w3.org/1999/xlink"
   xmlns:sodipodi="http://sodipodi.sourceforge.net/DTD/sodipodi-0.dtd"
   xmlns:inkscape="http://www.inkscape.org/namespaces/inkscape"
   width="48px"
   height="48px"
   viewBox="0 0 48 48"
   version="1.1"
   id="svg19"
   sodipodi:docname="image-x-ico.svg"
   inkscape:version="0.92.2 2405546, 2018-03-11">
  <metadata
     id="metadata23">
    <rdf:RDF>
      <cc:Work
         rdf:about="">
        <dc:format>image/svg+xml</dc:format>
        <dc:type
           rdf:resource="http://purl.org/dc/dcmitype/StillImage" />
      </cc:Work>
    </rdf:RDF>
  </metadata>
  <sodipodi:namedview
     pagecolor="#ffffff"
     bordercolor="#666666"
     borderopacity="1"
     objecttolerance="10"
     gridtolerance="10"
     guidetolerance="10"
     inkscape:pageopacity="0"
     inkscape:pageshadow="2"
     inkscape:window-width="1920"
     inkscape:window-height="1051"
     id="namedview21"
     showgrid="false"
     inkscape:zoom="4.9166667"
     inkscape:cx="24"
     inkscape:cy="24"
     inkscape:window-x="0"
     inkscape:window-y="29"
     inkscape:window-maximized="1"
     inkscape:current-layer="svg19" />
  <!-- Generator: Sketch 41.2 (35397) - http://www.bohemiancoding.com/sketch -->
  <title
     id="title2">image-x-ico</title>
  <desc
     id="desc4">Created with Sketch.</desc>
  <g
     id="g1039">
    <rect
       style="opacity:1;fill:#824ca3;fill-opacity:1;stroke:none;stroke-width:0.92582005;stroke-linecap:round;stroke-linejoin:round;stroke-miterlimit:4;stroke-dasharray:none;stroke-opacity:0.05882353;paint-order:markers stroke fill"
       id="rect1035"
       width="36"
       height="40"
       x="6"
       y="4"
       ry="1.9047618"
       rx="2" />
    <path
       style="opacity:0.15;fill:url(#linearGradient1041);fill-opacity:1;stroke:none;stroke-width:0.92582005;stroke-linecap:round;stroke-linejoin:round;stroke-miterlimit:4;stroke-dasharray:none;stroke-opacity:0.05882353;paint-order:markers stroke fill"
       d="M 42,17.242188 A 40,40 0 0 1 23.494141,44 H 40 c 1.108,0 2,-0.849059 2,-1.904297 z"
       id="path1037"
       inkscape:connector-curvature="0" />
  </g>
  <defs
     id="defs11">
    <linearGradient
       inkscape:collect="always"
       xlink:href="#linearGradient875"
       id="linearGradient1041"
       gradientUnits="userSpaceOnUse"
       x1="32.74707"
       y1="44"
       x2="32.74707"
       y2="17.242188" />
    <linearGradient
       inkscape:collect="always"
       id="linearGradient875">
      <stop
         style="stop-color:#000000;stop-opacity:1;"
         offset="0"
         id="stop871" />
      <stop
         style="stop-color:#000000;stop-opacity:0;"
         offset="1"
         id="stop873" />
    </linearGradient>
  </defs>
  <path
     d="m 13.708007,27.380859 v -6.767578 c 0,-0.351564 0.08008,-0.615233 0.240235,-0.791015 0.160157,-0.175782 0.367186,-0.263672 0.621094,-0.263672 0.26172,0 0.473632,0.08691 0.635742,0.260742 0.16211,0.173829 0.243164,0.438475 0.243164,0.793945 v 6.767578 c 0,0.355471 -0.08105,0.621093 -0.243164,0.796875 -0.16211,0.175783 -0.374022,0.263672 -0.635742,0.263672 -0.250002,0 -0.456054,-0.08887 -0.618164,-0.266601 -0.162111,-0.177736 -0.243165,-0.442381 -0.243165,-0.793946 z m 11.003907,-1.798828 c 0,0.273439 -0.06738,0.569335 -0.202149,0.887696 -0.134765,0.318361 -0.346678,0.630857 -0.635742,0.9375 -0.289064,0.306642 -0.6582,0.555663 -1.107422,0.74707 -0.449221,0.191407 -0.972653,0.287109 -1.570312,0.287109 -0.453128,0 -0.865233,-0.04297 -1.236328,-0.128906 -0.371096,-0.08594 -0.708007,-0.219726 -1.010743,-0.401367 -0.302736,-0.181642 -0.581053,-0.420897 -0.834961,-0.717774 -0.226563,-0.269532 -0.419921,-0.571287 -0.580078,-0.905273 -0.160157,-0.333986 -0.280273,-0.690428 -0.360351,-1.069336 -0.08008,-0.378908 -0.120117,-0.781248 -0.120117,-1.207031 0,-0.69141 0.100584,-1.310544 0.301757,-1.857422 0.201173,-0.546878 0.489256,-1.014647 0.864258,-1.40332 0.375002,-0.388674 0.814451,-0.68457 1.31836,-0.887696 0.503908,-0.203126 1.041012,-0.304687 1.611328,-0.304687 0.695316,0 1.31445,0.13867 1.857422,0.416015 0.542971,0.277346 0.958982,0.620116 1.248046,1.028321 0.289064,0.408205 0.433594,0.793943 0.433594,1.157226 0,0.19922 -0.07031,0.375 -0.210937,0.527344 -0.140626,0.152345 -0.310546,0.228516 -0.509766,0.228516 -0.222657,0 -0.389648,-0.05273 -0.500977,-0.158203 -0.111328,-0.10547 -0.23535,-0.287109 -0.37207,-0.544922 -0.226563,-0.425784 -0.493162,-0.74414 -0.799805,-0.955078 -0.306642,-0.210939 -0.684568,-0.316407 -1.133789,-0.316407 -0.714847,0 -1.284177,0.271482 -1.708007,0.814453 -0.423831,0.542972 -0.635743,1.314449 -0.635743,2.314454 0,0.667972 0.09375,1.22363 0.28125,1.666992 0.187501,0.443361 0.453124,0.774413 0.796875,0.993164 0.343752,0.218751 0.746092,0.328125 1.207032,0.328125 0.500002,0 0.922849,-0.124022 1.268554,-0.37207 0.345705,-0.248049 0.606445,-0.612303 0.782227,-1.092774 0.07422,-0.226564 0.166015,-0.411132 0.275391,-0.553711 0.109375,-0.142579 0.285155,-0.213867 0.527343,-0.213867 0.207033,0 0.384765,0.07227 0.533203,0.216797 0.148439,0.144532 0.222657,0.324218 0.222657,0.539062 z m 5.34375,-6.023437 c 0.890629,0 1.65527,0.180662 2.293945,0.541992 0.638675,0.36133 1.12207,0.874997 1.450195,1.541016 0.328128,0.666019 0.492188,1.448237 0.492188,2.346679 0,0.664066 -0.08984,1.267576 -0.269531,1.810547 -0.179689,0.542972 -0.449216,1.01367 -0.808594,1.41211 -0.359377,0.398439 -0.800779,0.703124 -1.324219,0.914062 -0.52344,0.210939 -1.123043,0.316406 -1.798828,0.316406 -0.671878,0 -1.273435,-0.108397 -1.804688,-0.325195 -0.531251,-0.216798 -0.974606,-0.522459 -1.330078,-0.916992 -0.35547,-0.394533 -0.624022,-0.869138 -0.805664,-1.423828 -0.18164,-0.554691 -0.272461,-1.154294 -0.272461,-1.798828 0,-0.66016 0.09473,-1.265623 0.28418,-1.816407 0.189454,-0.550784 0.463865,-1.019529 0.823242,-1.40625 0.359377,-0.38672 0.796874,-0.682616 1.3125,-0.887695 0.515628,-0.205079 1.10156,-0.307617 1.757813,-0.307617 z m 2.472656,4.417969 c 0,-0.62891 -0.101562,-1.173826 -0.304688,-1.634766 -0.203125,-0.46094 -0.493161,-0.809569 -0.870117,-1.045898 -0.376954,-0.23633 -0.809567,-0.354493 -1.297851,-0.354493 -0.347658,0 -0.668944,0.06543 -0.963868,0.196289 -0.294923,0.13086 -0.548827,0.321288 -0.761718,0.571289 -0.212892,0.250002 -0.380859,0.569335 -0.503907,0.958008 -0.123047,0.388674 -0.18457,0.825193 -0.18457,1.309571 0,0.488283 0.06152,0.929685 0.18457,1.324218 0.123048,0.394534 0.296874,0.721679 0.521485,0.981446 0.22461,0.259767 0.48242,0.454101 0.773437,0.583007 0.291017,0.128907 0.61035,0.19336 0.958008,0.19336 0.445315,0 0.85449,-0.111327 1.227539,-0.333985 0.373049,-0.222657 0.669921,-0.566403 0.890625,-1.03125 0.220704,-0.464846 0.331055,-1.037106 0.331055,-1.716796 z"
     id="ICO"
     inkscape:connector-curvature="0"
     style="fill:#ffffff;fill-rule:evenodd;stroke:none;stroke-width:1" />
</svg>
