<?xml version="1.0" encoding="UTF-8" standalone="no"?>
<svg
   xmlns:dc="http://purl.org/dc/elements/1.1/"
   xmlns:cc="http://creativecommons.org/ns#"
   xmlns:rdf="http://www.w3.org/1999/02/22-rdf-syntax-ns#"
   xmlns:svg="http://www.w3.org/2000/svg"
   xmlns="http://www.w3.org/2000/svg"
   xmlns:xlink="http://www.w3.org/1999/xlink"
   xmlns:sodipodi="http://sodipodi.sourceforge.net/DTD/sodipodi-0.dtd"
   xmlns:inkscape="http://www.inkscape.org/namespaces/inkscape"
   width="48px"
   height="48px"
   viewBox="0 0 48 48"
   version="1.1"
   id="svg19"
   sodipodi:docname="image-jpeg.svg"
   inkscape:version="0.92.2 2405546, 2018-03-11">
  <metadata
     id="metadata23">
    <rdf:RDF>
      <cc:Work
         rdf:about="">
        <dc:format>image/svg+xml</dc:format>
        <dc:type
           rdf:resource="http://purl.org/dc/dcmitype/StillImage" />
      </cc:Work>
    </rdf:RDF>
  </metadata>
  <sodipodi:namedview
     pagecolor="#ffffff"
     bordercolor="#666666"
     borderopacity="1"
     objecttolerance="10"
     gridtolerance="10"
     guidetolerance="10"
     inkscape:pageopacity="0"
     inkscape:pageshadow="2"
     inkscape:window-width="730"
     inkscape:window-height="480"
     id="namedview21"
     showgrid="false"
     inkscape:zoom="4.9166667"
     inkscape:cx="27.383322"
     inkscape:cy="76.718974"
     inkscape:window-x="435"
     inkscape:window-y="269"
     inkscape:window-maximized="0"
     inkscape:current-layer="svg19" />
  <!-- Generator: Sketch 41.2 (35397) - http://www.bohemiancoding.com/sketch -->
  <title
     id="title2">image-jpeg</title>
  <desc
     id="desc4">Created with Sketch.</desc>
  <g
     id="g829">
    <rect
       rx="2"
       ry="1.9047618"
       y="4"
       x="6"
       height="40"
       width="36"
       id="rect834"
       style="opacity:1;fill:#8bc34a;fill-opacity:1;stroke:none;stroke-width:0.92582005;stroke-linecap:round;stroke-linejoin:round;stroke-miterlimit:4;stroke-dasharray:none;stroke-opacity:0.05882353;paint-order:markers stroke fill" />
    <path
       inkscape:connector-curvature="0"
       id="rect866"
       d="M 42,17.242188 A 40,40 0 0 1 23.494141,44 H 40 c 1.108,0 2,-0.849059 2,-1.904297 z"
       style="opacity:0.15;fill:url(#linearGradient877);fill-opacity:1;stroke:none;stroke-width:0.92582005;stroke-linecap:round;stroke-linejoin:round;stroke-miterlimit:4;stroke-dasharray:none;stroke-opacity:0.05882353;paint-order:markers stroke fill" />
  </g>
  <defs
     id="defs11">
    <linearGradient
       inkscape:collect="always"
       xlink:href="#linearGradient875"
       id="linearGradient877"
       x1="32.74707"
       y1="44"
       x2="32.74707"
       y2="17.242188"
       gradientUnits="userSpaceOnUse" />
    <linearGradient
       inkscape:collect="always"
       id="linearGradient875">
      <stop
         style="stop-color:#000000;stop-opacity:1;"
         offset="0"
         id="stop871" />
      <stop
         style="stop-color:#000000;stop-opacity:0;"
         offset="1"
         id="stop873" />
    </linearGradient>
  </defs>
  <path
     d="m 13.980468,20.613279 v 4.5 c 0,0.390627 -0.0166,0.722655 -0.04981,0.996094 -0.0332,0.273439 -0.108398,0.55078 -0.225586,0.832031 -0.195314,0.472659 -0.517576,0.840819 -0.966797,1.104493 -0.449221,0.263673 -0.99609,0.395507 -1.640625,0.395507 -0.582034,0 -1.067381,-0.0918 -1.456055,-0.27539 C 9.2529262,27.982419 8.9394528,27.685547 8.7011703,27.275389 8.5761697,27.056638 8.4746082,26.804687 8.3964828,26.519529 8.3183574,26.234372 8.2792953,25.96289 8.2792953,25.705076 c 0,-0.273439 0.076171,-0.482421 0.2285157,-0.626953 0.1523445,-0.144532 0.347655,-0.216797 0.5859375,-0.216797 0.2304698,0 0.4042962,0.06641 0.5214843,0.199219 0.1171881,0.132813 0.207031,0.339842 0.2695313,0.621094 0.066407,0.300782 0.1328119,0.541014 0.1992189,0.720703 0.06641,0.179688 0.177733,0.333984 0.333984,0.46289 0.156251,0.128907 0.378905,0.19336 0.667969,0.19336 0.769535,0 1.154297,-0.564448 1.154297,-1.69336 v -4.751953 c 0,-0.351564 0.07715,-0.615233 0.231445,-0.791015 0.154298,-0.175782 0.364257,-0.263672 0.629883,-0.263672 0.269533,0 0.483398,0.08789 0.641602,0.263672 0.158204,0.175782 0.237305,0.439451 0.237305,0.791015 z m 5.220703,4.335938 h -1.59375 v 2.43164 c 0,0.347658 -0.08203,0.611328 -0.246094,0.791016 -0.164063,0.179689 -0.371093,0.269531 -0.621094,0.269531 -0.26172,0 -0.472655,-0.08887 -0.632812,-0.266601 -0.160157,-0.177736 -0.240235,-0.438475 -0.240235,-0.782227 v -6.621094 c 0,-0.382814 0.08789,-0.656249 0.263672,-0.820312 0.175782,-0.164063 0.455076,-0.246094 0.837891,-0.246094 h 2.232422 c 0.660159,0 1.167967,0.05078 1.523437,0.152344 0.351564,0.09766 0.655272,0.259764 0.911133,0.486328 0.255861,0.226564 0.450195,0.503905 0.583008,0.832031 0.132813,0.328127 0.199218,0.697264 0.199218,1.107422 0,0.875005 -0.269528,1.538084 -0.808593,1.989258 -0.539065,0.451174 -1.341792,0.676758 -2.408203,0.676758 z m -0.421875,-3.9375 h -1.171875 v 2.625 h 1.171875 c 0.410158,0 0.752928,-0.04297 1.02832,-0.128906 0.275392,-0.08594 0.485351,-0.226562 0.629883,-0.421875 0.144532,-0.195314 0.216797,-0.451171 0.216797,-0.767579 0,-0.378908 -0.111327,-0.687498 -0.333985,-0.925781 -0.250001,-0.253907 -0.763668,-0.380859 -1.541015,-0.380859 z m 10.751953,0.03516 h -3.919922 v 2.109375 h 3.609375 c 0.265626,0 0.463866,0.05957 0.594726,0.178711 0.13086,0.119141 0.196289,0.276366 0.196289,0.47168 0,0.195313 -0.06445,0.354491 -0.193359,0.477539 -0.128907,0.123047 -0.328124,0.18457 -0.597656,0.18457 h -3.609375 v 2.443359 h 4.054687 c 0.273439,0 0.479492,0.06348 0.618164,0.19043 0.138673,0.126954 0.208008,0.295898 0.208008,0.506836 0,0.203126 -0.06934,0.368164 -0.208008,0.495117 -0.138672,0.12695 -0.344725,0.190426 -0.618164,0.190426 h -4.728515 c -0.378908,0 -0.651367,-0.08398 -0.817383,-0.251953 -0.166017,-0.16797 -0.249024,-0.439451 -0.249024,-0.814453 v -6.457032 c 0,-0.250001 0.03711,-0.4541 0.111329,-0.612304 0.07422,-0.158204 0.190428,-0.273437 0.348632,-0.345703 0.158204,-0.07227 0.360351,-0.108399 0.606446,-0.108399 h 4.59375 c 0.277345,0 0.483398,0.06152 0.618164,0.184571 0.134766,0.123047 0.202148,0.284178 0.202148,0.483398 0,0.203126 -0.06738,0.36621 -0.202148,0.489258 -0.134766,0.123047 -0.340819,0.18457 -0.618164,0.18457 z m 10.189453,3.755859 v 1.646485 c 0,0.218751 -0.02148,0.393554 -0.06445,0.524414 -0.04297,0.13086 -0.12207,0.249023 -0.237305,0.354492 -0.115235,0.105469 -0.262694,0.207031 -0.442383,0.304688 -0.519534,0.281251 -1.019529,0.486327 -1.5,0.615234 -0.480471,0.128907 -1.003903,0.193359 -1.570312,0.193359 -0.66016,0 -1.261716,-0.101561 -1.804688,-0.304687 -0.542971,-0.203126 -1.005857,-0.498045 -1.388672,-0.884766 -0.382814,-0.38672 -0.676756,-0.855466 -0.881836,-1.40625 -0.205079,-0.550784 -0.307617,-1.166012 -0.307617,-1.845703 0,-0.667972 0.09961,-1.279294 0.298828,-1.833984 0.19922,-0.554691 0.492186,-1.025389 0.878907,-1.41211 0.38672,-0.38672 0.857419,-0.682616 1.412109,-0.887695 0.55469,-0.205079 1.18359,-0.307617 1.886719,-0.307617 0.578128,0 1.089841,0.07715 1.535156,0.231445 0.445315,0.154298 0.806639,0.348632 1.083984,0.583008 0.277345,0.234376 0.486328,0.482421 0.626953,0.744141 0.140626,0.26172 0.210938,0.494139 0.210938,0.697265 0,0.218751 -0.08105,0.405273 -0.243164,0.559571 -0.16211,0.154297 -0.356444,0.231445 -0.583008,0.231445 -0.125,0 -0.245117,-0.0293 -0.360351,-0.08789 -0.115235,-0.05859 -0.211914,-0.140624 -0.29004,-0.246094 -0.214844,-0.335939 -0.396483,-0.589842 -0.544921,-0.761718 -0.148439,-0.171876 -0.348632,-0.316406 -0.600586,-0.433594 -0.251955,-0.117188 -0.57324,-0.175781 -0.963868,-0.175781 -0.402345,0 -0.761717,0.06934 -1.078125,0.208008 -0.316407,0.138672 -0.586912,0.339842 -0.811523,0.603515 -0.22461,0.263673 -0.396484,0.586912 -0.515625,0.969727 -0.119141,0.382814 -0.178711,0.806638 -0.178711,1.271484 0,1.007818 0.231443,1.7832 0.694336,2.326172 0.462893,0.542971 1.108394,0.814453 1.936523,0.814453 0.402346,0 0.780272,-0.05273 1.13379,-0.158203 0.353517,-0.105469 0.711912,-0.255858 1.075195,-0.451172 v -1.394531 h -1.347656 c -0.324221,0 -0.569336,-0.04883 -0.735352,-0.146485 -0.166016,-0.09766 -0.249023,-0.26367 -0.249023,-0.498046 0,-0.191408 0.06934,-0.349609 0.208007,-0.47461 0.138673,-0.125 0.327148,-0.1875 0.56543,-0.1875 h 1.974609 c 0.242189,0 0.447265,0.02148 0.615235,0.06445 0.167969,0.04297 0.30371,0.138671 0.407226,0.28711 0.103517,0.148438 0.155274,0.371092 0.155274,0.667968 z"
     id="JPEG"
     inkscape:connector-curvature="0"
     style="fill:#ffffff;fill-rule:evenodd;stroke:none;stroke-width:1" />
</svg>
