<svg xmlns="http://www.w3.org/2000/svg" xmlns:xlink="http://www.w3.org/1999/xlink" width="48" height="48"><g paint-order="markers stroke fill"><rect rx="2" ry="1.905" y="4" x="6" height="40" width="36" fill="#45a1d4"/><path d="M42 17.242A40 40 0 0 1 23.494 44H40c1.108 0 2-.85 2-1.904z" opacity=".15" fill="url(#a)"/></g><defs><linearGradient xlink:href="#b" id="a" x1="32.747" y1="44" x2="32.747" y2="17.242" gradientUnits="userSpaceOnUse"/><linearGradient id="b"><stop offset="0"/><stop offset="1" stop-opacity="0"/></linearGradient></defs><path d="M19.219 25.314h-2.39v3.647c0 .522-.124.917-.37 1.187s-.557.404-.932.404c-.392 0-.709-.133-.949-.4-.24-.266-.36-.657-.36-1.173v-9.932c0-.574.132-.984.395-1.23.264-.246.683-.37 1.257-.37h3.349c.99 0 1.752.077 2.285.23.527.146.983.389 1.367.729.383.34.675.756.874 1.248.2.492.299 1.046.299 1.66 0 1.313-.404 2.308-1.213 2.985s-2.013 1.015-3.612 1.015zm-.633-5.906h-1.758v3.937h1.758c.615 0 1.13-.064 1.542-.193.414-.13.728-.34.945-.633.217-.293.325-.677.325-1.151 0-.569-.167-1.032-.5-1.389-.376-.38-1.146-.571-2.312-.571zm15.196 8.007c0 .662-.16 1.229-.483 1.7-.322.472-.799.83-1.428 1.072-.63.244-1.396.365-2.299.365-.861 0-1.6-.132-2.215-.395-.615-.264-1.069-.594-1.362-.989-.293-.396-.44-.793-.44-1.19 0-.265.094-.49.282-.678a.965.965 0 0 1 .712-.281c.252 0 .445.062.58.185.135.123.264.296.387.518.246.428.54.747.883.958.343.211.81.317 1.402.317.48 0 .874-.107 1.182-.321.308-.214.461-.459.461-.734 0-.422-.16-.73-.479-.923-.319-.193-.845-.378-1.577-.554-.826-.205-1.499-.42-2.017-.646-.519-.225-.933-.523-1.244-.892-.31-.369-.466-.823-.466-1.362 0-.48.144-.935.43-1.362.288-.428.711-.77 1.27-1.024.56-.255 1.236-.383 2.027-.383.62 0 1.179.065 1.674.194.495.129.908.302 1.24.518.33.217.582.457.755.721.173.264.26.521.26.773a.893.893 0 0 1-.277.677c-.185.176-.447.264-.787.264a.964.964 0 0 1-.628-.211 4.144 4.144 0 0 1-.594-.633 2.169 2.169 0 0 0-.641-.562c-.246-.141-.58-.211-1.002-.211-.434 0-.794.092-1.081.277-.287.184-.431.414-.431.69 0 .251.105.458.316.62.211.16.495.294.853.399.357.105.85.234 1.476.387.745.181 1.353.398 1.824.65.472.252.83.55 1.072.892.244.343.365.734.365 1.174z" fill="#fff" fill-rule="evenodd"/></svg>