<svg xmlns="http://www.w3.org/2000/svg" xmlns:xlink="http://www.w3.org/1999/xlink" width="48" height="48"><g paint-order="markers stroke fill"><rect rx="2" ry="1.905" y="4" x="6" height="40" width="36" fill="#8bc34a"/><path d="M42 17.242A40 40 0 0 1 23.494 44H40c1.108 0 2-.85 2-1.904z" opacity=".15" fill="url(#a)"/></g><defs><linearGradient xlink:href="#b" id="a" x1="32.747" y1="44" x2="32.747" y2="17.242" gradientUnits="userSpaceOnUse"/><linearGradient id="b"><stop offset="0"/><stop offset="1" stop-opacity="0"/></linearGradient></defs><path d="M13.98 20.613v4.5c0 .39-.016.723-.05.996-.033.274-.108.551-.225.832-.195.473-.518.841-.967 1.105-.449.264-.996.395-1.64.395-.582 0-1.068-.091-1.456-.275a2.136 2.136 0 0 1-.94-.89 3.249 3.249 0 0 1-.306-.756 3.083 3.083 0 0 1-.117-.815c0-.273.076-.482.229-.627a.817.817 0 0 1 .586-.217c.23 0 .404.067.521.2.117.132.207.34.27.62.066.301.133.542.199.721.066.18.178.334.334.463.156.13.379.194.668.194.77 0 1.154-.565 1.154-1.694v-4.752c0-.351.077-.615.232-.79.154-.177.364-.264.63-.264.27 0 .483.087.641.263.158.176.237.44.237.791zm5.221 4.336h-1.594v2.432c0 .348-.082.611-.246.79a.805.805 0 0 1-.62.27.811.811 0 0 1-.634-.266c-.16-.178-.24-.439-.24-.782V20.77c0-.382.088-.656.264-.82.176-.164.455-.246.838-.246H19.2c.66 0 1.168.05 1.524.152.351.098.655.26.91.487.257.226.45.504.584.832.133.328.199.697.199 1.107 0 .875-.27 1.538-.809 1.99-.539.45-1.341.676-2.408.676zm-.422-3.937h-1.172v2.625h1.172c.41 0 .753-.043 1.029-.13.275-.085.485-.226.63-.421.144-.195.216-.451.216-.768 0-.379-.111-.687-.334-.925-.25-.254-.763-.381-1.54-.381zm10.752.035h-3.92v2.11h3.61c.265 0 .464.059.594.178.131.12.197.276.197.472a.63.63 0 0 1-.194.477c-.129.123-.328.185-.597.185h-3.61v2.443h4.055c.273 0 .48.064.618.19a.654.654 0 0 1 .208.507.64.64 0 0 1-.208.495c-.138.127-.345.19-.618.19h-4.729c-.378 0-.65-.083-.817-.251-.166-.168-.249-.44-.249-.814V20.77c0-.25.037-.454.111-.612a.691.691 0 0 1 .35-.346c.157-.072.36-.108.605-.108h4.594c.278 0 .484.062.618.185a.624.624 0 0 1 .203.483.63.63 0 0 1-.203.49c-.134.122-.34.184-.618.184zm10.19 3.756v1.646c0 .219-.022.394-.065.525a.83.83 0 0 1-.237.354 2.235 2.235 0 0 1-.442.305c-.52.281-1.02.486-1.5.615a6.047 6.047 0 0 1-1.57.193c-.66 0-1.262-.101-1.805-.304a3.796 3.796 0 0 1-1.39-.885 3.906 3.906 0 0 1-.88-1.406A5.257 5.257 0 0 1 31.522 24c0-.668.1-1.28.3-1.834.198-.555.491-1.025.878-1.412a3.858 3.858 0 0 1 1.412-.888c.555-.205 1.184-.307 1.887-.307.578 0 1.09.077 1.535.231.445.154.807.349 1.084.583a2.6 2.6 0 0 1 .627.744c.14.262.211.494.211.697a.744.744 0 0 1-.243.56.816.816 0 0 1-.943.144.818.818 0 0 1-.29-.247 6.928 6.928 0 0 0-.545-.761 1.758 1.758 0 0 0-.601-.434c-.252-.117-.573-.176-.964-.176-.402 0-.762.07-1.078.208-.316.14-.587.34-.812.604a2.722 2.722 0 0 0-.515.97c-.12.382-.179.806-.179 1.271 0 1.008.232 1.783.694 2.326.463.543 1.109.815 1.937.815.402 0 .78-.053 1.134-.158a5.742 5.742 0 0 0 1.075-.452V25.09h-1.348c-.324 0-.569-.049-.735-.147-.166-.097-.25-.263-.25-.498 0-.191.07-.35.209-.474.139-.125.327-.188.565-.188h1.975c.242 0 .447.022.615.065a.694.694 0 0 1 .407.287c.104.148.156.37.156.668z" fill="#fff" fill-rule="evenodd"/></svg>