<svg xmlns="http://www.w3.org/2000/svg" xmlns:xlink="http://www.w3.org/1999/xlink" width="48" height="48"><g paint-order="markers stroke fill"><rect width="36" height="40" x="6" y="4" ry="1.905" rx="2" fill="#f88e45"/><path d="M42 17.242A40 40 0 0 1 23.494 44H40c1.108 0 2-.85 2-1.904z" opacity=".15" fill="url(#a)"/></g><defs><linearGradient xlink:href="#b" id="a" gradientUnits="userSpaceOnUse" x1="32.747" y1="44" x2="32.747" y2="17.242"/><linearGradient id="b"><stop offset="0"/><stop offset="1" stop-opacity="0"/></linearGradient></defs><path d="M25.116 28.983l-.615-1.617h-5.238l-.616 1.653c-.24.644-.445 1.08-.615 1.305-.17.225-.448.338-.835.338-.328 0-.618-.12-.87-.36s-.378-.513-.378-.818c0-.175.03-.357.088-.545.059-.187.155-.448.29-.782l3.296-8.367.338-.866c.132-.337.273-.616.422-.839.15-.223.346-.403.59-.54.242-.138.543-.207.9-.207.363 0 .667.069.91.206.243.138.44.315.589.532.149.217.275.45.378.699.102.249.232.581.39.997l3.367 8.315c.264.633.395 1.093.395 1.38 0 .299-.124.573-.373.822-.25.249-.55.373-.901.373-.205 0-.38-.037-.527-.11a1.08 1.08 0 0 1-.37-.299 2.75 2.75 0 0 1-.32-.58c-.115-.26-.213-.49-.295-.69zm-5.168-3.577h3.85l-1.943-5.317zm12.103-3.137v6.934c0 .48-.114.844-.343 1.09-.229.246-.519.37-.87.37-.352 0-.637-.127-.857-.379-.22-.252-.33-.612-.33-1.08v-6.865c0-.475.11-.832.33-1.072.22-.24.505-.36.857-.36.351 0 .641.12.87.36.229.24.343.574.343 1.002zm-1.187-2.479c-.334 0-.62-.102-.857-.308-.237-.205-.356-.495-.356-.87 0-.34.122-.62.365-.84.243-.219.526-.329.848-.329.31 0 .586.1.826.3.24.198.36.488.36.87 0 .368-.116.657-.35.865a1.216 1.216 0 0 1-.836.312z" fill="#fff" fill-rule="evenodd"/></svg>