<svg xmlns="http://www.w3.org/2000/svg" xmlns:xlink="http://www.w3.org/1999/xlink" width="48" height="48"><rect rx="2" ry="1.905" y="4" x="6" height="40" width="36" fill="#f87a45" paint-order="markers stroke fill"/><path d="M42 17.242A40 40 0 0 1 23.494 44H40c1.108 0 2-.85 2-1.904z" opacity=".15" fill="url(#a)" paint-order="markers stroke fill"/><defs><linearGradient xlink:href="#b" id="a" gradientUnits="userSpaceOnUse" x1="32.747" y1="44" x2="32.747" y2="17.242"/><linearGradient id="b"><stop offset="0"/><stop offset="1" stop-opacity="0"/></linearGradient></defs><path d="M13.169 26.625l1.922-2.807-1.617-2.496a4.946 4.946 0 0 1-.343-.624 1.247 1.247 0 0 1-.114-.5c0-.165.073-.312.22-.443a.776.776 0 0 1 .535-.196c.243 0 .431.07.566.213.135.143.321.408.56.794l1.289 2.086 1.376-2.086c.114-.175.21-.326.29-.45.08-.126.158-.23.232-.311a.745.745 0 0 1 .249-.185.776.776 0 0 1 .32-.061.75.75 0 0 1 .535.196.62.62 0 0 1 .208.466c0 .261-.15.617-.45 1.066l-1.694 2.531 1.822 2.807c.164.246.283.45.358.612.074.162.11.316.11.46a.728.728 0 0 1-.38.645.839.839 0 0 1-.41.1.792.792 0 0 1-.416-.103.886.886 0 0 1-.275-.255c-.07-.102-.202-.299-.393-.592l-1.512-2.379-1.605 2.45c-.125.195-.214.332-.267.41a1.554 1.554 0 0 1-.19.228.82.82 0 0 1-.264.176.912.912 0 0 1-.357.064.74.74 0 0 1-.525-.193c-.138-.129-.208-.316-.208-.562 0-.29.143-.643.428-1.061zm14.572-1.043c0 .273-.067.57-.202.888-.135.318-.347.63-.636.937-.289.307-.658.556-1.107.747-.45.192-.973.287-1.57.287-.454 0-.866-.043-1.237-.129a3.473 3.473 0 0 1-1.01-.4 3.41 3.41 0 0 1-.835-.719 4.265 4.265 0 0 1-.58-.905 4.72 4.72 0 0 1-.36-1.07 5.828 5.828 0 0 1-.121-1.206c0-.692.1-1.31.302-1.858.2-.547.489-1.014.864-1.403a3.77 3.77 0 0 1 1.318-.888 4.269 4.269 0 0 1 1.612-.304c.695 0 1.314.138 1.857.416.543.277.96.62 1.248 1.028.29.408.434.794.434 1.157 0 .2-.07.375-.211.527a.669.669 0 0 1-.51.229c-.223 0-.39-.053-.5-.158-.112-.106-.236-.287-.373-.545-.227-.426-.493-.744-.8-.955-.306-.211-.684-.317-1.134-.317-.714 0-1.284.272-1.708.815-.423.543-.635 1.314-.635 2.314 0 .668.093 1.224.28 1.667.188.444.454.775.798.993.344.22.746.329 1.207.329.5 0 .923-.124 1.268-.372.346-.249.607-.613.783-1.093.074-.227.166-.411.275-.554.11-.143.285-.214.527-.214.207 0 .385.072.534.217a.722.722 0 0 1 .222.539zm6.697-4.535h-3.427v2.197h2.865c.266 0 .464.06.595.179.13.119.196.278.196.477 0 .2-.066.358-.2.475-.132.117-.33.176-.591.176h-2.865v2.83c0 .36-.081.626-.243.8a.815.815 0 0 1-.624.26.818.818 0 0 1-.63-.263c-.162-.176-.243-.442-.243-.797v-6.61c0-.25.037-.454.11-.612a.691.691 0 0 1 .35-.346c.158-.072.36-.108.606-.108h4.101c.278 0 .484.062.619.185a.624.624 0 0 1 .202.483.63.63 0 0 1-.202.49c-.135.122-.341.184-.619.184z" fill="#fff" fill-rule="evenodd"/></svg>