<svg xmlns="http://www.w3.org/2000/svg" xmlns:xlink="http://www.w3.org/1999/xlink" width="48" height="48"><g paint-order="markers stroke fill"><rect width="36" height="40" x="6" y="4" ry="1.905" rx="2" fill="#824ca3"/><path d="M42 17.242A40 40 0 0 1 23.494 44H40c1.108 0 2-.85 2-1.904z" opacity=".15" fill="url(#a)"/></g><defs><linearGradient xlink:href="#b" id="a" gradientUnits="userSpaceOnUse" x1="32.747" y1="44" x2="32.747" y2="17.242"/><linearGradient id="b"><stop offset="0"/><stop offset="1" stop-opacity="0"/></linearGradient></defs><path d="M13.708 27.38v-6.767c0-.351.08-.615.24-.79a.802.802 0 0 1 .621-.264c.262 0 .474.087.636.26.162.174.243.439.243.794v6.768c0 .355-.08.621-.243.797a.824.824 0 0 1-.636.263.8.8 0 0 1-.618-.266c-.162-.178-.243-.443-.243-.794zm11.004-1.798c0 .273-.067.57-.202.888-.135.318-.347.63-.636.937-.289.307-.658.556-1.107.747-.45.192-.973.287-1.57.287-.454 0-.866-.043-1.237-.128a3.473 3.473 0 0 1-1.01-.402 3.41 3.41 0 0 1-.836-.718 4.265 4.265 0 0 1-.58-.905 4.72 4.72 0 0 1-.36-1.07 5.828 5.828 0 0 1-.12-1.206c0-.692.1-1.31.301-1.858.202-.547.49-1.014.865-1.403a3.77 3.77 0 0 1 1.318-.888 4.269 4.269 0 0 1 1.611-.304c.696 0 1.315.138 1.858.416.543.277.959.62 1.248 1.028.289.408.433.794.433 1.157 0 .2-.07.375-.21.528a.669.669 0 0 1-.51.228c-.223 0-.39-.053-.501-.158-.112-.106-.236-.287-.372-.545-.227-.426-.493-.744-.8-.955-.307-.211-.685-.317-1.134-.317-.715 0-1.284.272-1.708.815-.424.543-.636 1.314-.636 2.314 0 .668.094 1.224.282 1.667.187.444.453.775.797.993.343.22.746.329 1.207.329.5 0 .922-.124 1.268-.372.346-.249.607-.613.782-1.093.075-.227.166-.411.276-.554.11-.143.285-.214.527-.214.207 0 .385.072.533.217a.722.722 0 0 1 .223.539zm5.344-6.023c.89 0 1.655.18 2.294.542a3.513 3.513 0 0 1 1.45 1.54c.328.667.492 1.449.492 2.347a5.74 5.74 0 0 1-.27 1.81 3.917 3.917 0 0 1-.808 1.413c-.36.398-.8.703-1.324.914-.524.21-1.123.316-1.8.316-.671 0-1.273-.108-1.804-.325a3.58 3.58 0 0 1-1.33-.917 3.917 3.917 0 0 1-.806-1.424 5.748 5.748 0 0 1-.272-1.798c0-.66.095-1.266.284-1.817.19-.55.464-1.02.823-1.406a3.56 3.56 0 0 1 1.313-.888c.515-.205 1.101-.307 1.758-.307zm2.472 4.418c0-.63-.101-1.174-.304-1.635-.203-.461-.494-.81-.87-1.046a2.392 2.392 0 0 0-1.298-.355 2.35 2.35 0 0 0-.964.197c-.295.13-.549.321-.762.571-.213.25-.38.57-.504.958a4.33 4.33 0 0 0-.184 1.31c0 .488.061.93.184 1.324s.297.721.522.981c.224.26.482.454.773.583.291.13.61.194.958.194a2.35 2.35 0 0 0 1.228-.334c.373-.223.67-.567.89-1.032.221-.464.331-1.037.331-1.716z" fill="#fff" fill-rule="evenodd"/></svg>