<?xml version="1.0" encoding="UTF-8" standalone="no"?>
<svg
   xmlns:dc="http://purl.org/dc/elements/1.1/"
   xmlns:cc="http://creativecommons.org/ns#"
   xmlns:rdf="http://www.w3.org/1999/02/22-rdf-syntax-ns#"
   xmlns:svg="http://www.w3.org/2000/svg"
   xmlns="http://www.w3.org/2000/svg"
   xmlns:xlink="http://www.w3.org/1999/xlink"
   xmlns:sodipodi="http://sodipodi.sourceforge.net/DTD/sodipodi-0.dtd"
   xmlns:inkscape="http://www.inkscape.org/namespaces/inkscape"
   width="48px"
   height="48px"
   viewBox="0 0 48 48"
   version="1.1"
   id="svg19"
   sodipodi:docname="image-x-eps.svg"
   inkscape:version="0.92.2 2405546, 2018-03-11">
  <metadata
     id="metadata23">
    <rdf:RDF>
      <cc:Work
         rdf:about="">
        <dc:format>image/svg+xml</dc:format>
        <dc:type
           rdf:resource="http://purl.org/dc/dcmitype/StillImage" />
      </cc:Work>
    </rdf:RDF>
  </metadata>
  <sodipodi:namedview
     pagecolor="#ffffff"
     bordercolor="#666666"
     borderopacity="1"
     objecttolerance="10"
     gridtolerance="10"
     guidetolerance="10"
     inkscape:pageopacity="0"
     inkscape:pageshadow="2"
     inkscape:window-width="1920"
     inkscape:window-height="1051"
     id="namedview21"
     showgrid="false"
     inkscape:zoom="4.9166667"
     inkscape:cx="24"
     inkscape:cy="24"
     inkscape:window-x="0"
     inkscape:window-y="29"
     inkscape:window-maximized="1"
     inkscape:current-layer="svg19" />
  <!-- Generator: Sketch 41.2 (35397) - http://www.bohemiancoding.com/sketch -->
  <title
     id="title2">image-x-eps</title>
  <desc
     id="desc4">Created with Sketch.</desc>
  <g
     id="g851">
    <rect
       style="opacity:1;fill:#f88e45;fill-opacity:1;stroke:none;stroke-width:0.92582005;stroke-linecap:round;stroke-linejoin:round;stroke-miterlimit:4;stroke-dasharray:none;stroke-opacity:0.05882353;paint-order:markers stroke fill"
       id="rect846"
       width="36"
       height="40"
       x="6"
       y="4"
       ry="1.9047618"
       rx="2" />
    <path
       style="opacity:0.15;fill:url(#linearGradient853);fill-opacity:1;stroke:none;stroke-width:0.92582005;stroke-linecap:round;stroke-linejoin:round;stroke-miterlimit:4;stroke-dasharray:none;stroke-opacity:0.05882353;paint-order:markers stroke fill"
       d="M 42,17.242188 A 40,40 0 0 1 23.494141,44 H 40 c 1.108,0 2,-0.849059 2,-1.904297 z"
       id="path848"
       inkscape:connector-curvature="0" />
  </g>
  <defs
     id="defs11">
    <linearGradient
       inkscape:collect="always"
       xlink:href="#linearGradient875"
       id="linearGradient853"
       gradientUnits="userSpaceOnUse"
       x1="32.74707"
       y1="44"
       x2="32.74707"
       y2="17.242188" />
    <linearGradient
       inkscape:collect="always"
       id="linearGradient875">
      <stop
         style="stop-color:#000000;stop-opacity:1;"
         offset="0"
         id="stop871" />
      <stop
         style="stop-color:#000000;stop-opacity:0;"
         offset="1"
         id="stop873" />
    </linearGradient>
  </defs>
  <path
     d="M 25.11621,28.983398 24.500976,27.36621 h -5.238281 l -0.615235,1.652344 c -0.240234,0.644534 -0.445311,1.079589 -0.615234,1.305176 -0.169923,0.225587 -0.448239,0.338379 -0.834961,0.338379 -0.328126,0 -0.618163,-0.120116 -0.870117,-0.360352 -0.251955,-0.240235 -0.377929,-0.512694 -0.377929,-0.817382 0,-0.175783 0.0293,-0.357421 0.08789,-0.544922 0.05859,-0.187502 0.155272,-0.44824 0.290039,-0.782227 l 3.295897,-8.367187 c 0.09375,-0.240235 0.206543,-0.528808 0.338379,-0.865723 0.131837,-0.336916 0.27246,-0.616699 0.421875,-0.839356 0.149415,-0.222657 0.345702,-0.40283 0.588867,-0.540527 0.243166,-0.137695 0.543456,-0.206543 0.900879,-0.206543 0.363283,0 0.666503,0.06885 0.909668,0.206543 0.243165,0.137696 0.439452,0.31494 0.588867,0.531738 0.149416,0.216799 0.275391,0.449706 0.37793,0.698731 0.10254,0.249025 0.232909,0.581541 0.391113,0.997558 l 3.366211,8.314454 c 0.263673,0.632815 0.395508,1.092772 0.395508,1.379882 0,0.29883 -0.12451,0.572753 -0.373535,0.821778 -0.249025,0.249025 -0.549315,0.373536 -0.900879,0.373536 -0.205079,0 -0.380859,-0.03662 -0.527344,-0.109864 -0.146484,-0.07324 -0.269531,-0.172852 -0.36914,-0.298829 -0.09961,-0.125976 -0.206543,-0.319334 -0.320801,-0.580078 -0.114258,-0.260743 -0.212402,-0.490722 -0.294434,-0.689941 z M 19.948242,25.40625 h 3.849609 l -1.942383,-5.317383 z m 12.102539,-3.137696 v 6.934571 c 0,0.480471 -0.114257,0.843748 -0.342774,1.089843 -0.228517,0.246095 -0.518553,0.369141 -0.870117,0.369141 -0.351564,0 -0.637205,-0.125976 -0.856933,-0.37793 -0.219727,-0.251954 -0.32959,-0.612302 -0.32959,-1.081054 v -6.864258 c 0,-0.474611 0.109863,-0.83203 0.32959,-1.072266 0.219728,-0.240236 0.505369,-0.360351 0.856933,-0.360351 0.351564,0 0.6416,0.120115 0.870117,0.360351 0.228517,0.240235 0.342774,0.574216 0.342774,1.001953 z m -1.186524,-2.478515 c -0.333985,0 -0.619627,-0.102538 -0.856933,-0.307618 -0.237305,-0.205079 -0.355957,-0.495114 -0.355957,-0.870117 0,-0.339846 0.12158,-0.619627 0.364747,-0.839355 0.243165,-0.219727 0.525877,-0.329589 0.848144,-0.329589 0.310549,0 0.585936,0.09961 0.826172,0.298828 0.240236,0.199219 0.360351,0.489256 0.360351,0.870117 0,0.369142 -0.117186,0.657714 -0.351562,0.865722 -0.234376,0.208009 -0.512694,0.312012 -0.834962,0.312012 z"
     id="Ai"
     inkscape:connector-curvature="0"
     style="fill:#ffffff;fill-rule:evenodd;stroke:none;stroke-width:1" />
</svg>
