<svg xmlns="http://www.w3.org/2000/svg" xmlns:xlink="http://www.w3.org/1999/xlink" width="48" height="48"><g paint-order="markers stroke fill"><rect rx="2" ry="1.905" y="4" x="6" height="40" width="36" fill="#f2f2f2"/><path d="M42 17.242A40 40 0 0 1 23.494 44H40c1.108 0 2-.85 2-1.904z" opacity=".15" fill="url(#a)"/></g><defs><linearGradient xlink:href="#b" id="a" x1="32.747" y1="44" x2="32.747" y2="17.242" gradientUnits="userSpaceOnUse"/><linearGradient id="b"><stop offset="0"/><stop offset="1" stop-opacity="0"/></linearGradient></defs><path d="M18.297 21.426c0-.742.238-1.494.715-2.256.476-.762 1.172-1.393 2.086-1.893.914-.5 1.98-.75 3.199-.75 1.133 0 2.133.21 3 .627.867.418 1.537.987 2.01 1.705.472.72.709 1.5.709 2.344 0 .664-.135 1.246-.405 1.746s-.59.932-.96 1.295c-.372.363-1.038.975-1.999 1.834a8.134 8.134 0 0 0-.638.639c-.16.183-.28.351-.358.504a2.473 2.473 0 0 0-.181.457c-.043.152-.108.42-.194.802-.148.813-.613 1.22-1.394 1.22-.407 0-.748-.134-1.026-.4-.277-.265-.416-.66-.416-1.183 0-.656.102-1.224.305-1.705.203-.48.473-.902.809-1.266.336-.363.789-.794 1.359-1.294.5-.438.861-.768 1.084-.99.223-.223.41-.471.562-.745a1.8 1.8 0 0 0 .229-.89 2.07 2.07 0 0 0-.697-1.582c-.465-.43-1.065-.645-1.8-.645-.859 0-1.491.217-1.898.65-.406.434-.75 1.073-1.03 1.916-.266.883-.77 1.325-1.513 1.325-.437 0-.806-.155-1.107-.463-.3-.309-.451-.643-.451-1.002zm5.719 12.844c-.477 0-.893-.155-1.248-.463-.356-.309-.534-.74-.534-1.295 0-.492.172-.907.516-1.242a1.741 1.741 0 0 1 1.266-.504c.492 0 .906.168 1.242.504.336.335.504.75.504 1.242 0 .547-.176.976-.528 1.289a1.78 1.78 0 0 1-1.218.469z" fill="#666" fill-rule="evenodd"/></svg>