<svg xmlns="http://www.w3.org/2000/svg" xmlns:xlink="http://www.w3.org/1999/xlink" width="48" height="48"><g paint-order="markers stroke fill"><rect rx="2" ry="1.905" y="4" x="6" height="40" width="36" fill="#3f51b5"/><path d="M42 17.242A40 40 0 0 1 23.494 44H40c1.108 0 2-.85 2-1.904z" opacity=".15" fill="url(#a)"/></g><defs><linearGradient xlink:href="#b" id="a" x1="32.747" y1="44" x2="32.747" y2="17.242" gradientUnits="userSpaceOnUse"/><linearGradient id="b"><stop offset="0"/><stop offset="1" stop-opacity="0"/></linearGradient></defs><path d="M26.557 25.332s-.833 2.61-2.978 2.575c-2.145-.036-2.674-1.324-3.085-2.037-1.38-2.39-3.248-1.948-4.363-1.304-1.115.644-2.25 2.352-1.055 4.423 1.194 2.07 4.65 3.27 8.47 1.055 3.19-1.831 3.011-4.712 3.011-4.712m2.945-7.441c0-1.288-.91-3.126-3.301-3.126s-5.158 2.389-5.15 6.803c-.008 3.678 2.575 4.967 2.575 4.967s-1.843-2.019-.74-3.858c1.104-1.84 2.485-1.66 3.308-1.66 2.759 0 3.308-1.839 3.308-3.126m3.932 11.589c.027-1.938-1.108-4.24-3.858-5.822-3.182-1.846-5.587-.255-5.587-.255s2.677-.584 3.718 1.29c1.04 1.876.19 2.978-.222 3.691-1.38 2.39-.06 3.786 1.055 4.43 1.115.644 3.16.78 4.356-1.29a4.2 4.2 0 0 0 .538-2.044" fill="#fff" fill-rule="evenodd"/></svg>