<svg xmlns="http://www.w3.org/2000/svg" xmlns:xlink="http://www.w3.org/1999/xlink" width="48" height="48"><defs><linearGradient xlink:href="#a" id="b" x1="32.747" y1="44" x2="32.747" y2="17.242" gradientUnits="userSpaceOnUse"/><linearGradient id="a"><stop offset="0"/><stop offset="1" stop-opacity="0"/></linearGradient></defs><g paint-order="markers stroke fill"><rect rx="2" ry="1.905" y="4" x="6" height="40" width="36" fill="#ee527f"/><path d="M42 17.242A40 40 0 0 1 23.494 44H40c1.108 0 2-.85 2-1.904z" opacity=".15" fill="url(#b)"/></g><g fill="#fff"><path d="M16.5 25.25v1.25h15v-1.25zM16.5 29v1.25h15V29zM16.5 32.75V34h15v-1.25zM23.583 14a.415.415 0 0 0-.416.416v.938a3.692 3.692 0 0 0-1.159.481l-.664-.664a.411.411 0 0 0-.586 0l-.586.586a.411.411 0 0 0 0 .587l.664.663c-.223.353-.387.74-.482 1.16h-.937a.415.415 0 0 0-.416.415v.834c0 .231.186.416.416.416h.937c.095.42.26.807.482 1.16l-.664.663a.411.411 0 0 0 0 .586l.586.586a.411.411 0 0 0 .586 0l.664-.663c.353.222.74.386 1.159.481v.937c0 .232.186.417.416.417h.834a.415.415 0 0 0 .416-.417v-.937a3.692 3.692 0 0 0 1.159-.481l.664.663a.411.411 0 0 0 .586 0l.586-.586a.411.411 0 0 0 0-.586l-.664-.664c.223-.352.387-.74.482-1.159h.937a.415.415 0 0 0 .416-.416v-.834a.415.415 0 0 0-.416-.416h-.937a3.692 3.692 0 0 0-.482-1.159l.664-.663a.411.411 0 0 0 0-.587l-.586-.586a.411.411 0 0 0-.586 0l-.664.664a3.692 3.692 0 0 0-1.159-.481v-.938a.415.415 0 0 0-.416-.416zM24 17.334a1.667 1.667 0 1 1 0 3.333 1.667 1.667 0 0 1 0-3.333"/></g></svg>