<svg xmlns="http://www.w3.org/2000/svg" xmlns:xlink="http://www.w3.org/1999/xlink" width="48" height="48"><g paint-order="markers stroke fill"><rect rx="2" ry="1.905" y="4" x="6" height="40" width="36" fill="#fb8c00"/><path d="M42 17.242A40 40 0 0 1 23.494 44H40c1.108 0 2-.85 2-1.904z" opacity=".15" fill="url(#a)"/></g><defs><linearGradient xlink:href="#b" id="a" x1="32.747" y1="44" x2="32.747" y2="17.242" gradientUnits="userSpaceOnUse"/><linearGradient id="b"><stop offset="0"/><stop offset="1" stop-opacity="0"/></linearGradient></defs><path d="M24.336 26.383c0 .364-.09.759-.27 1.183-.18.425-.462.842-.847 1.25-.386.41-.878.741-1.477.997-.599.255-1.297.382-2.094.382A7.317 7.317 0 0 1 18 30.023a4.63 4.63 0 0 1-1.348-.535 4.547 4.547 0 0 1-1.113-.957 5.687 5.687 0 0 1-.773-1.207 6.294 6.294 0 0 1-.48-1.426 7.771 7.771 0 0 1-.161-1.609c0-.922.134-1.747.402-2.477a5.282 5.282 0 0 1 1.153-1.87 5.026 5.026 0 0 1 1.758-1.184 5.692 5.692 0 0 1 2.148-.406c.927 0 1.753.184 2.477.554.723.37 1.278.827 1.664 1.371.385.545.578 1.059.578 1.543 0 .266-.094.5-.282.703a.892.892 0 0 1-.68.305c-.296 0-.519-.07-.667-.21-.149-.141-.314-.384-.496-.727-.302-.568-.658-.993-1.067-1.274-.409-.281-.912-.422-1.511-.422-.954 0-1.713.362-2.278 1.086-.565.724-.847 1.753-.847 3.086 0 .89.125 1.632.375 2.223s.604 1.032 1.062 1.324c.458.292.995.438 1.61.438.666 0 1.23-.166 1.69-.497.462-.33.81-.816 1.044-1.457.099-.302.221-.548.367-.738.146-.19.38-.285.703-.285.276 0 .513.096.711.29a.963.963 0 0 1 .297.718zm1.75 2.226l.289-1.46c-.719-.016-1.078-.303-1.078-.86 0-.26.09-.473.27-.637.18-.164.443-.246.792-.246h.368l.445-2.273h-.813c-.338 0-.6-.085-.785-.254a.81.81 0 0 1-.277-.621c0-.26.09-.47.27-.63.18-.158.443-.237.792-.237h1.164l.368-1.79a3.84 3.84 0 0 1 .191-.71.875.875 0 0 1 .29-.391.801.801 0 0 1 .48-.133c.276 0 .487.073.632.219a.761.761 0 0 1 .22.562c0 .053-.045.316-.134.79l-.289 1.453h1.711l.375-1.79c.052-.27.102-.489.149-.656a.9.9 0 0 1 .254-.422c.122-.114.3-.171.535-.171.27 0 .48.07.629.21.148.141.222.331.222.57 0 .11-.006.217-.02.321-.012.104-.03.205-.05.3-.02.097-.034.158-.04.184l-.288 1.47c.745.015 1.117.304 1.117.866 0 .26-.089.47-.266.625-.177.157-.44.235-.789.235h-.398l-.469 2.273h.867c.35 0 .612.084.79.25a.832.832 0 0 1 .265.633.8.8 0 0 1-.262.621c-.174.159-.439.238-.793.238h-1.203l-.367 1.797a9.232 9.232 0 0 1-.152.664.886.886 0 0 1-.254.41c-.125.118-.305.176-.54.176-.26 0-.465-.073-.616-.218a.757.757 0 0 1-.227-.57c0-.214.036-.48.11-.798l.288-1.46h-1.726l-.367 1.796c-.094.443-.192.762-.293.957-.102.196-.32.293-.653.293-.265 0-.474-.073-.625-.218a.757.757 0 0 1-.226-.57c0-.12.014-.255.043-.403a37.7 37.7 0 0 0 .074-.395zm4.57-5.476H28.93l-.461 2.273h1.742l.445-2.273z" fill="#FFF" fill-rule="evenodd"/></svg>