<svg xmlns="http://www.w3.org/2000/svg" xmlns:xlink="http://www.w3.org/1999/xlink" width="48" height="48"><g paint-order="markers stroke fill"><rect rx="2" ry="1.905" y="4" x="6" height="40" width="36" fill="#d32f2f"/><path d="M42 17.242A40 40 0 0 1 23.494 44H40c1.108 0 2-.85 2-1.904z" opacity=".15" fill="url(#a)"/></g><defs><linearGradient xlink:href="#b" id="a" x1="32.747" y1="44" x2="32.747" y2="17.242" gradientUnits="userSpaceOnUse"/><linearGradient id="b"><stop offset="0"/><stop offset="1" stop-opacity="0"/></linearGradient></defs><g fill="#FFF" fill-rule="evenodd"><path d="M25 19.5h8a.5.5 0 1 0 0-1h-8a.5.5 0 1 0 0 1zM25 23.5h8a.5.5 0 1 0 0-1h-8a.5.5 0 1 0 0 1zM16 27.5h17a.5.5 0 1 0 0-1H16a.5.5 0 1 0 0 1zM16 31.5h17a.5.5 0 1 0 0-1H16a.5.5 0 1 0 0 1z"/></g><rect width="2" height="3" x="18" y="18" rx="0" ry="0" fill="#fff" paint-order="markers stroke fill"/><path d="M22 21l-3 3-3-3z" fill="#fff" paint-order="markers stroke fill"/></svg>