<svg xmlns="http://www.w3.org/2000/svg" xmlns:xlink="http://www.w3.org/1999/xlink" width="48" height="48"><g paint-order="markers stroke fill"><rect rx="2" ry="1.905" y="4" x="6" height="40" width="36" fill="#4caf50"/><path d="M42 17.242A40 40 0 0 1 23.494 44H40c1.108 0 2-.85 2-1.904z" opacity=".15" fill="url(#a)"/></g><defs><linearGradient xlink:href="#b" id="a" x1="32.747" y1="44" x2="32.747" y2="17.242" gradientUnits="userSpaceOnUse"/><linearGradient id="b"><stop offset="0"/><stop offset="1" stop-opacity="0"/></linearGradient></defs><path d="M16.324 31.22c-.363 0-.677-.117-.94-.352-.264-.234-.396-.562-.396-.984 0-.358.126-.665.378-.923s.563-.387.932-.387c.369 0 .684.128.945.383.26.254.39.564.39.927 0 .416-.13.742-.39.98a1.32 1.32 0 0 1-.919.356zm6.39-11.866v3.56c.305-.352.602-.63.892-.835.29-.205.61-.359.962-.461.352-.103.73-.154 1.134-.154.61 0 1.15.129 1.622.387a2.76 2.76 0 0 1 1.112 1.125c.17.287.284.607.342.962.059.354.088.763.088 1.226v4.597c0 .48-.11.843-.33 1.09-.22.246-.51.369-.874.369-.79 0-1.186-.487-1.186-1.46V25.71c0-.768-.115-1.358-.343-1.771-.229-.413-.662-.62-1.301-.62a1.95 1.95 0 0 0-1.156.365c-.343.243-.599.576-.769.998-.129.357-.193.993-.193 1.907v3.173c0 .474-.107.836-.32 1.085-.215.25-.512.374-.893.374-.791 0-1.187-.487-1.187-1.46V19.355c0-.486.104-.85.312-1.094.208-.243.5-.364.875-.364.38 0 .678.123.892.369.214.246.32.609.32 1.09z" fill="#FFF" fill-rule="evenodd"/></svg>