<svg width="48" height="48" version="1.1" xmlns="http://www.w3.org/2000/svg" xmlns:xlink="http://www.w3.org/1999/xlink">
 <g paint-order="markers stroke fill">
  <rect x="6" y="4" width="36" height="40" rx="2" ry="1.905" fill="#f2f2f2"/>
  <path d="M42 17.242A40 40 0 0 1 23.494 44H40c1.108 0 2-.85 2-1.904z" fill="url(#a)" opacity=".15"/>
 </g>
 <defs>
  <linearGradient id="a" x1="32.747" x2="32.747" y1="44" y2="17.242" gradientUnits="userSpaceOnUse">
   <stop offset="0"/>
   <stop stop-opacity="0" offset="1"/>
  </linearGradient>
 </defs>
 <g transform="matrix(2.3622 0 0 2.3622 3.9993 4)" fill-rule="evenodd">
  <path d="m12.695 9.574-1.116-4.184c0-0.012313-0.01224-0.024627-0.03679-0.036947l-4.1817-1.1199c-0.012239 0-0.036713 0-0.049029 0.012315l-3.0656 3.0642c-0.012315 0.012313-0.012315 0.024627-0.012315 0.04926l1.116 4.184c0 0.01231 0.012238 0.02463 0.036791 0.03695l4.1817 1.1199c0.01224 0 0.036713 0 0.049027-0.01231l3.0656-3.0643c0.01231-0.02463 0.02463-0.03695 0.01231-0.04926zm-4.0958-3.2858-1.1037 4.1102c0 0.01231-0.012239 0.01231-0.024477 0l-2.9922-3.0027c-0.012238-0.012313 0-0.012313 0-0.024633l4.1081-1.1075c0 0.012313 0.012314 0.012313 0.012314 0.024633z" fill="#4d4d4d" stroke-width=".42333" style="isolation:isolate"/>
  <path transform="scale(.26458)" d="m46.113 29.186-16.236 4.3516-1.5488 5.7656c0 0.04653-0.04554 0.04653-0.0918 0l-4.1895-4.2051-5.6973 1.5273 1.8691 7.002c0 0.04653 0.04587 0.09406 0.13867 0.14062l15.805 4.2324c0.04626 0 0.139-3.48e-4 0.18555-0.04687l11.586-11.582c0.04653-0.09309 0.09344-0.13902 0.04687-0.18555l-1.8672-7z" opacity=".25" stroke-width="1.6" style="paint-order:stroke fill markers"/>
  <path transform="scale(.26458)" d="m27.818 16c-0.01379 0-0.03513 0.0027-0.05469 0.0039l2.2324 8.332 2.457-0.66211c0 0.04654 0.04687 0.04718 0.04687 0.09375l-1.3301 4.9492 5.1582 19.246c0.0059-4e-3 0.01457-0.0048 0.01953-0.0098l11.586-11.582c0.04653-0.09309 0.09344-0.13902 0.04687-0.18555l-4.2168-15.812c0-0.04654-0.04784-0.09406-0.14062-0.14062l-15.805-4.2324z" opacity=".35" stroke-width="1.6" style="paint-order:stroke fill markers"/>
 </g>
</svg>
