<?xml version="1.0" encoding="UTF-8" standalone="no"?>
<svg
   xmlns:dc="http://purl.org/dc/elements/1.1/"
   xmlns:cc="http://creativecommons.org/ns#"
   xmlns:rdf="http://www.w3.org/1999/02/22-rdf-syntax-ns#"
   xmlns:svg="http://www.w3.org/2000/svg"
   xmlns="http://www.w3.org/2000/svg"
   xmlns:xlink="http://www.w3.org/1999/xlink"
   xmlns:sodipodi="http://sodipodi.sourceforge.net/DTD/sodipodi-0.dtd"
   xmlns:inkscape="http://www.inkscape.org/namespaces/inkscape"
   width="48px"
   height="48px"
   viewBox="0 0 48 48"
   version="1.1"
   id="svg18"
   sodipodi:docname="text-x-bak.svg"
   inkscape:version="0.92.2 2405546, 2018-03-11">
  <metadata
     id="metadata22">
    <rdf:RDF>
      <cc:Work
         rdf:about="">
        <dc:format>image/svg+xml</dc:format>
        <dc:type
           rdf:resource="http://purl.org/dc/dcmitype/StillImage" />
      </cc:Work>
    </rdf:RDF>
  </metadata>
  <sodipodi:namedview
     pagecolor="#ffffff"
     bordercolor="#666666"
     borderopacity="1"
     objecttolerance="10"
     gridtolerance="10"
     guidetolerance="10"
     inkscape:pageopacity="0"
     inkscape:pageshadow="2"
     inkscape:window-width="1920"
     inkscape:window-height="1051"
     id="namedview20"
     showgrid="false"
     inkscape:zoom="4.9166667"
     inkscape:cx="24"
     inkscape:cy="24"
     inkscape:window-x="0"
     inkscape:window-y="29"
     inkscape:window-maximized="1"
     inkscape:current-layer="svg18" />
  <!-- Generator: Sketch 41.2 (35397) - http://www.bohemiancoding.com/sketch -->
  <title
     id="title2">text-x-bak</title>
  <desc
     id="desc4">Created with Sketch.</desc>
  <g
     id="g829">
    <rect
       rx="2"
       ry="1.9047618"
       y="4"
       x="6"
       height="40"
       width="36"
       id="rect834"
       style="opacity:1;fill:#f2f2f2;fill-opacity:1;stroke:none;stroke-width:0.92582005;stroke-linecap:round;stroke-linejoin:round;stroke-miterlimit:4;stroke-dasharray:none;stroke-opacity:0.05882353;paint-order:markers stroke fill" />
    <path
       inkscape:connector-curvature="0"
       id="rect866"
       d="M 42,17.242188 A 40,40 0 0 1 23.494141,44 H 40 c 1.108,0 2,-0.849059 2,-1.904297 z"
       style="opacity:0.15;fill:url(#linearGradient877);fill-opacity:1;stroke:none;stroke-width:0.92582005;stroke-linecap:round;stroke-linejoin:round;stroke-miterlimit:4;stroke-dasharray:none;stroke-opacity:0.05882353;paint-order:markers stroke fill" />
  </g>
  <defs
     id="defs11">
    <linearGradient
       inkscape:collect="always"
       xlink:href="#linearGradient875"
       id="linearGradient877"
       x1="32.74707"
       y1="44"
       x2="32.74707"
       y2="17.242188"
       gradientUnits="userSpaceOnUse" />
    <linearGradient
       inkscape:collect="always"
       id="linearGradient875">
      <stop
         style="stop-color:#000000;stop-opacity:1;"
         offset="0"
         id="stop871" />
      <stop
         style="stop-color:#000000;stop-opacity:0;"
         offset="1"
         id="stop873" />
    </linearGradient>
  </defs>
  <g
     id="Page-1"
     style="fill:#666666;fill-rule:evenodd;stroke:none;stroke-width:1"
     transform="translate(0.556918,-0.969543)">
    <g
       id="text-x-bak"
       style="fill:#666666">
      <path
         d="m 26.734229,15.466868 -5.033519,0.01 c 0.547934,0.348538 1.274003,1.12969 1.87251,2.023264 v 0 c 0.668409,0.998586 1.200559,2.147282 1.600637,3.1507 v 0 l -1.419603,0.825928 4.530038,-0.01031 2.113782,-3.986292 -1.127114,0.75506 -0.715117,-1.359043 C 28.076844,16.109196 27.637466,15.553209 26.734229,15.46688 Z m -7.227832,0.352404 -2.194312,3.251203 3.865173,2.587305 2.073838,-3.915746 c -0.57306,-0.8459 -1.416382,-2.086079 -2.748045,-2.114104 v 0 c -0.01611,-3.22e-4 -0.03221,-6.44e-4 -0.048,-6.44e-4 v 0 c -0.293455,0 -0.605594,0.05605 -0.948657,0.191986 z m 7.721005,7.841478 1.801642,3.906083 1.550064,0.01 c 0.882621,0.01 2.289661,-1.257252 2.307056,-2.212029 v 0 -0.03543 c -3.22e-4,-0.01256 -9.66e-4,-0.02513 -0.0016,-0.03769 v 0 l -1.76171,-4.137063 z M 14,22.362266 l 1.349058,0.735089 -0.453229,0.956387 c -1.461802,3.125253 0.387193,4.649225 2.576996,7.690403 v 0 c -0.312783,-0.75506 -0.2941,-1.562949 -0.01997,-2.345389 v 0 l 1.942734,-4.15734 1.217953,0.633941 -2.405627,-3.744376 z m 10.398503,8.204191 2.073838,3.905761 0.01,-1.610623 h 1.016626 c 3.280516,-0.0016 3.734068,-2.436873 5.315055,-5.878774 v 0 c -0.495427,0.634586 -1.182519,0.968951 -1.962705,1.057213 v 0 l -4.368976,0.0097 -0.01,-1.439253 z m -5.717711,-2.516759 -0.704486,1.459868 c -0.412642,0.857496 0.06185,2.846615 0.895828,3.221246 v 0 h 4.298431 l 0.02996,-4.832191 z"
         id="Fill-1"
         style="fill:#666666"
         inkscape:connector-curvature="0" />
    </g>
  </g>
</svg>
