<svg xmlns="http://www.w3.org/2000/svg" xmlns:xlink="http://www.w3.org/1999/xlink" width="48" height="48"><g paint-order="markers stroke fill"><rect rx="2" ry="1.905" y="4" x="6" height="40" width="36" fill="#ee527f"/><path d="M42 17.242A40 40 0 0 1 23.494 44H40c1.108 0 2-.85 2-1.904z" opacity=".15" fill="url(#a)"/></g><defs><linearGradient xlink:href="#b" id="a" x1="32.747" y1="44" x2="32.747" y2="17.242" gradientUnits="userSpaceOnUse"/><linearGradient id="b"><stop offset="0"/><stop offset="1" stop-opacity="0"/></linearGradient></defs><path d="M32.66 25.267c-.839.01-1.565.197-2.175.482-.225-.424-.45-.795-.487-1.072-.043-.321-.094-.518-.043-.902.052-.384.286-.93.286-.974-.004-.04-.051-.237-.534-.241-.483-.01-.9.09-.947.21-.047.12-.14.397-.202.683-.084.42-.965 1.908-1.467 2.69-.164-.304-.305-.572-.333-.787-.042-.321-.093-.518-.042-.902.052-.384.286-.93.286-.974-.005-.04-.052-.237-.534-.241-.483-.01-.9.09-.947.21-.047.12-.099.406-.202.683-.098.277-1.27 2.761-1.575 3.409-.155.33-.29.594-.39.773-.098.178-.004.013-.013.03l-.131.238v.01c-.066.112-.136.219-.17.219-.023 0-.07-.3.01-.71.174-.863.596-2.207.59-2.256 0-.023.08-.26-.271-.38-.342-.12-.464.08-.492.08-.028 0-.052.072-.052.072s.38-1.515-.726-1.515c-.694 0-1.65.72-2.124 1.376-.3.157-.938.487-1.613.84-.258.134-.525.277-.778.407l-.052-.054c-1.34-1.363-3.82-2.328-3.717-4.16.037-.665.281-2.42 4.763-4.547 3.67-1.742 6.61-1.264 7.12-.201.727 1.519-1.57 4.342-5.386 4.749-1.453.156-2.217-.38-2.41-.581-.2-.21-.229-.219-.304-.179-.122.063-.047.25 0 .362.113.281.581.782 1.378 1.032.699.219 2.405.34 4.468-.42 2.311-.853 4.116-3.22 3.586-5.2-.539-2.014-4.045-2.676-7.36-1.554-1.973.67-4.111 1.715-5.649 3.087-1.828 1.626-2.119 3.046-1.997 3.636.427 2.104 3.47 3.475 4.688 4.49-.06.03-.117.062-.169.089-.61.286-2.93 1.443-3.51 2.667-.657 1.385.102 2.38.609 2.515 1.565.415 3.169-.33 4.036-1.56.862-1.228.76-2.823.36-3.55l-.013-.028.478-.268c.31-.174.614-.335.881-.473-.15.388-.258.848-.314 1.518-.066.787.272 1.805.717 2.207.197.174.432.179.577.179.516 0 .75-.407 1.008-.893.319-.595.6-1.283.6-1.283s-.352 1.863.61 1.863c.351 0 .703-.433.862-.656v.01s.01-.014.028-.045c.038-.053.056-.085.056-.085v-.01c.141-.233.455-.764.924-1.645.605-1.134 1.186-2.555 1.186-2.555s.056.349.23.92c.103.34.328.71.501 1.073-.14.187-.225.294-.225.294l.005.01c-.113.144-.24.296-.37.447-.479.545-1.05 1.166-1.126 1.345-.089.21-.07.366.103.491.127.09.352.108.591.09.431-.027.731-.13.882-.192.234-.08.501-.201.759-.38.469-.33.755-.8.727-1.425-.014-.344-.132-.683-.277-1.005a18.633 18.633 0 0 0 1.44-2.345s.055.348.229.92c.089.29.267.608.426.92-.693.54-1.13 1.166-1.28 1.577-.276.76-.06 1.104.348 1.184.182.036.445-.045.642-.125.244-.076.539-.206.81-.398.47-.33.92-.79.896-1.411a2.6 2.6 0 0 0-.201-.836c.59-.232 1.354-.366 2.325-.254 2.086.232 2.499 1.474 2.419 1.992-.08.518-.516.804-.661.893-.145.085-.192.117-.178.18.018.093.084.089.21.07.174-.026 1.098-.423 1.135-1.38.056-1.228-1.167-2.568-3.338-2.555zm-16.089 5.169c-.689.719-1.66.991-2.072.759-.445-.246-.272-1.304.577-2.068.516-.465 1.186-.894 1.627-1.157.098-.059.248-.143.426-.246.028-.018.047-.027.047-.027.033-.018.07-.04.108-.063.314 1.09.014 2.046-.713 2.801zm5.04-3.266c-.24.558-.745 1.992-1.05 1.912-.263-.068-.422-1.153-.052-2.225.188-.54.586-1.184.82-1.434.38-.402.793-.536.896-.37.122.214-.464 1.769-.614 2.117zm4.158 1.894c-.103.049-.197.085-.239.058-.033-.018.042-.085.042-.085s.52-.531.727-.777c.117-.143.258-.308.408-.496v.053c0 .643-.647 1.072-.938 1.246zm3.207-.697c-.075-.053-.066-.219.187-.737a2.78 2.78 0 0 1 .713-.876c.047.135.075.264.07.385-.005.804-.605 1.103-.97 1.228z" fill="#fff"/></svg>