<svg xmlns="http://www.w3.org/2000/svg" xmlns:xlink="http://www.w3.org/1999/xlink" width="48" height="48"><g paint-order="markers stroke fill"><rect rx="2" ry="1.905" y="4" x="6" height="40" width="36" fill="#0ca1a6"/><path d="M42 17.242A40 40 0 0 1 23.494 44H40c1.108 0 2-.85 2-1.904z" opacity=".15" fill="url(#a)"/></g><defs><linearGradient xlink:href="#b" id="a" x1="32.747" y1="44" x2="32.747" y2="17.242" gradientUnits="userSpaceOnUse"/><linearGradient id="b"><stop offset="0"/><stop offset="1" stop-opacity="0"/></linearGradient></defs><g fill="#fff"><path d="M34.999 24c0-2.751-2.441-5-5.407-5-.278 0-.556.03-.834.059-2.317.325-3.862 1.923-4.758 3.136-.865-1.213-2.441-2.84-4.758-3.136a7.792 7.792 0 0 0-.834-.059c-2.997 0-5.407 2.249-5.407 5s2.441 5 5.407 5c.278 0 .556-.03.834-.059 2.317-.325 3.862-1.923 4.758-3.136.865 1.243 2.41 2.84 4.758 3.136.278.03.556.059.834.059 2.966 0 5.407-2.219 5.407-5zm-16.01 3.195c-.185.03-.371.03-.587.03-1.978 0-3.553-1.45-3.553-3.225 0-1.775 1.607-3.225 3.553-3.225.185 0 .371.03.587.03 2.194.296 3.522 2.367 3.986 3.195-.463.828-1.792 2.899-3.986 3.195zM25.019 24c.463-.828 1.792-2.899 3.986-3.195.185-.03.371-.03.587-.03 1.978 0 3.553 1.45 3.553 3.225 0 1.775-1.607 3.225-3.553 3.225-.185 0-.371 0-.587-.03-2.194-.296-3.522-2.367-3.986-3.195z"/><path d="M16.999 23.5v1h3v-1zM27.699 23.5v1h1.3v1.3h1v-1.3h1.3v-1h-1.3v-1.3h-1v1.3z"/></g></svg>