<svg xmlns="http://www.w3.org/2000/svg" xmlns:xlink="http://www.w3.org/1999/xlink" width="48" height="48"><g paint-order="markers stroke fill"><rect rx="2" ry="1.905" y="4" x="6" height="40" width="36" fill="#38a1d1"/><path d="M42 17.242A40 40 0 0 1 23.494 44H40c1.108 0 2-.85 2-1.904z" opacity=".15" fill="url(#a)"/></g><defs><linearGradient xlink:href="#b" id="a" x1="32.747" y1="44" x2="32.747" y2="17.242" gradientUnits="userSpaceOnUse"/><linearGradient id="b"><stop offset="0"/><stop offset="1" stop-opacity="0"/></linearGradient></defs><path d="M14 13.286l1.429 18.571L24 34.714l8.571-2.857L34 13.286H24zm2.718 2.857h14.567l-.856 5.714-.43 2.857-.926 5.715-2.216.714-2.857.714-2.857-.714-2.785-.714-.357-2.858h2.369l.059.572L24 29.285l3.072-1.142.215-2 .153-1.429h-9.796l-.287-2.857H28L28.358 19H17.145z" fill="#fff" fill-rule="evenodd"/></svg>