<svg xmlns="http://www.w3.org/2000/svg" xmlns:xlink="http://www.w3.org/1999/xlink" width="48" height="48"><g paint-order="markers stroke fill"><rect rx="2" ry="1.905" y="4" x="6" height="40" width="36" fill="#f2f2f2"/><path d="M42 17.242A40 40 0 0 1 23.494 44H40c1.108 0 2-.85 2-1.904z" opacity=".15" fill="url(#a)"/></g><defs><linearGradient xlink:href="#b" id="a" x1="32.747" y1="44" x2="32.747" y2="17.242" gradientUnits="userSpaceOnUse"/><linearGradient id="b"><stop offset="0"/><stop offset="1" stop-opacity="0"/></linearGradient></defs><g transform="matrix(.45865 0 0 .45865 38.38 12.557)"><rect ry=".857" y="12.956" x="-53.622" height="23.983" width="44.54" fill="none" stroke="gray" stroke-width="3.426"/><path d="M-46.77 31.8V18.096h3.426l4.283 5.353 4.282-5.353h3.427V31.8h-3.427V23.45l-4.282 5.353-4.283-5.353V31.8zM-21.074 31.8l-5.14-6.852h3.427v-6.852h3.426v6.852h3.426z" fill="gray"/></g></svg>