<?xml version="1.0" encoding="UTF-8" standalone="no"?>
<svg
   xmlns:dc="http://purl.org/dc/elements/1.1/"
   xmlns:cc="http://creativecommons.org/ns#"
   xmlns:rdf="http://www.w3.org/1999/02/22-rdf-syntax-ns#"
   xmlns:svg="http://www.w3.org/2000/svg"
   xmlns="http://www.w3.org/2000/svg"
   xmlns:xlink="http://www.w3.org/1999/xlink"
   xmlns:sodipodi="http://sodipodi.sourceforge.net/DTD/sodipodi-0.dtd"
   xmlns:inkscape="http://www.inkscape.org/namespaces/inkscape"
   width="48px"
   height="48px"
   viewBox="0 0 48 48"
   version="1.1"
   id="svg19"
   sodipodi:docname="text-x-arduino.svg"
   inkscape:version="0.92.4 (5da689c313, 2019-01-14)">
  <metadata
     id="metadata23">
    <rdf:RDF>
      <cc:Work
         rdf:about="">
        <dc:format>image/svg+xml</dc:format>
        <dc:type
           rdf:resource="http://purl.org/dc/dcmitype/StillImage" />
        <dc:title>application-epub+zip</dc:title>
      </cc:Work>
    </rdf:RDF>
  </metadata>
  <sodipodi:namedview
     pagecolor="#ffffff"
     bordercolor="#666666"
     borderopacity="1"
     objecttolerance="10"
     gridtolerance="10"
     guidetolerance="10"
     inkscape:pageopacity="0"
     inkscape:pageshadow="2"
     inkscape:window-width="730"
     inkscape:window-height="480"
     id="namedview21"
     showgrid="false"
     inkscape:zoom="6.9532167"
     inkscape:cx="13.301493"
     inkscape:cy="35.47705"
     inkscape:window-x="772"
     inkscape:window-y="262"
     inkscape:window-maximized="0"
     inkscape:current-layer="svg19" />
  <!-- Generator: Sketch 41.2 (35397) - http://www.bohemiancoding.com/sketch -->
  <title
     id="title2">application-epub+zip</title>
  <desc
     id="desc4">Created with Sketch.</desc>
  <g
     id="g829">
    <rect
       rx="2"
       ry="1.9047618"
       y="4"
       x="6"
       height="40"
       width="36"
       id="rect834"
       style="opacity:1;fill:#0ca1a6;fill-opacity:1;stroke:none;stroke-width:0.92582005;stroke-linecap:round;stroke-linejoin:round;stroke-miterlimit:4;stroke-dasharray:none;stroke-opacity:0.05882353;paint-order:markers stroke fill" />
    <path
       inkscape:connector-curvature="0"
       id="rect866"
       d="M 42,17.242188 A 40,40 0 0 1 23.494141,44 H 40 c 1.108,0 2,-0.849059 2,-1.904297 z"
       style="opacity:0.15;fill:url(#linearGradient877);fill-opacity:1;stroke:none;stroke-width:0.92582005;stroke-linecap:round;stroke-linejoin:round;stroke-miterlimit:4;stroke-dasharray:none;stroke-opacity:0.05882353;paint-order:markers stroke fill" />
  </g>
  <defs
     id="defs11">
    <linearGradient
       inkscape:collect="always"
       xlink:href="#linearGradient875"
       id="linearGradient877"
       x1="32.74707"
       y1="44"
       x2="32.74707"
       y2="17.242188"
       gradientUnits="userSpaceOnUse" />
    <linearGradient
       inkscape:collect="always"
       id="linearGradient875">
      <stop
         style="stop-color:#000000;stop-opacity:1;"
         offset="0"
         id="stop871" />
      <stop
         style="stop-color:#000000;stop-opacity:0;"
         offset="1"
         id="stop873" />
    </linearGradient>
  </defs>
  <g
     id="g842"
     transform="translate(56.744763,3.601695)">
    <path
       id="path10"
       style="fill:#ffffff"
       d="m -21.745763,20.398305 c 0,-2.751 -2.441,-5 -5.407,-5 v 0 c -0.278,0 -0.556,0.03 -0.834,0.059 v 0 c -2.317,0.325 -3.862,1.923 -4.758,3.136 v 0 c -0.865,-1.213 -2.441,-2.84 -4.758,-3.136 v 0 c -0.278,-0.03 -0.556,-0.059 -0.834,-0.059 v 0 c -2.997,0 -5.407,2.249 -5.407,5 v 0 c 0,2.751 2.441,5 5.407,5 v 0 c 0.278,0 0.556,-0.03 0.834,-0.059 v 0 c 2.317,-0.325 3.862,-1.923 4.758,-3.136 v 0 c 0.865,1.243 2.41,2.84 4.758,3.136 v 0 c 0.278,0.03 0.556,0.059 0.834,0.059 v 0 c 2.966,0 5.407,-2.219 5.407,-5 z m -16.01,3.195 c -0.185,0.03 -0.371,0.03 -0.587,0.03 v 0 c -1.978,0 -3.553,-1.45 -3.553,-3.225 v 0 c 0,-1.775 1.607,-3.225 3.553,-3.225 v 0 c 0.185,0 0.371,0.03 0.587,0.03 v 0 c 2.194,0.296 3.522,2.367 3.986,3.195 v 0 c -0.463,0.828 -1.792,2.899 -3.986,3.195 z m 6.03,-3.195 c 0.463,-0.828 1.792,-2.899 3.986,-3.195 v 0 c 0.185,-0.03 0.371,-0.03 0.587,-0.03 v 0 c 1.978,0 3.553,1.45 3.553,3.225 v 0 c 0,1.775 -1.607,3.225 -3.553,3.225 v 0 c -0.185,0 -0.371,0 -0.587,-0.03 v 0 c -2.194,-0.296 -3.522,-2.367 -3.986,-3.195 z"
       inkscape:connector-curvature="0" />
    <path
       id="path12"
       style="fill:#ffffff"
       d="m -39.745763,19.898305 v 0 1 h 3 v 0 -1 0 z"
       inkscape:connector-curvature="0" />
    <path
       id="path14"
       style="fill:#ffffff"
       d="m -29.045763,19.898305 v 1 0 h 1.3 v 0 1.3 0 h 1 v -1.3 h 1.3 v -1 h -1.3 v -1.3 h -1 v 1.3 z"
       inkscape:connector-curvature="0" />
  </g>
</svg>
