<svg xmlns="http://www.w3.org/2000/svg" xmlns:xlink="http://www.w3.org/1999/xlink" width="48" height="48"><g paint-order="markers stroke fill"><rect rx="2" ry="1.905" y="4" x="6" height="40" width="36" fill="#f2f2f2"/><path d="M42 17.242A40 40 0 0 1 23.494 44H40c1.108 0 2-.85 2-1.904z" opacity=".15" fill="url(#a)"/></g><defs><linearGradient xlink:href="#b" id="a" x1="32.747" y1="44" x2="32.747" y2="17.242" gradientUnits="userSpaceOnUse"/><linearGradient id="b"><stop offset="0"/><stop offset="1" stop-opacity="0"/></linearGradient></defs><path d="M27.291 14.497l-5.033.01c.548.349 1.274 1.13 1.872 2.024.669.998 1.2 2.147 1.6 3.15l-1.419.826 4.53-.01 2.114-3.986-1.127.755-.715-1.36c-.48-.766-.919-1.322-1.822-1.409zm-7.228.353L17.87 18.1l3.865 2.588 2.074-3.916c-.573-.845-1.416-2.086-2.748-2.114h-.048c-.293 0-.606.056-.949.192zm7.721 7.841l1.802 3.906 1.55.01c.883.01 2.29-1.257 2.307-2.212v-.035c0-.013 0-.025-.002-.038l-1.761-4.137zm-13.227-1.298l1.349.735-.453.956c-1.462 3.125.387 4.65 2.577 7.69-.313-.754-.294-1.562-.02-2.345l1.943-4.157 1.217.634-2.405-3.745zm10.398 8.204l2.074 3.906.01-1.61h1.017c3.28-.003 3.734-2.438 5.315-5.88-.495.635-1.183.97-1.963 1.057l-4.369.01-.01-1.44zm-5.717-2.517l-.705 1.46c-.412.858.062 2.847.896 3.221h4.298l.03-4.832z" fill="#666" fill-rule="evenodd"/></svg>