<svg xmlns="http://www.w3.org/2000/svg" xmlns:xlink="http://www.w3.org/1999/xlink" width="48" height="48"><g paint-order="markers stroke fill"><rect width="36" height="40" x="6" y="4" ry="1.905" rx="2" fill="#687583"/><path d="M42 17.242A40 40 0 0 1 23.494 44H40c1.108 0 2-.85 2-1.904z" opacity=".15" fill="url(#a)"/></g><defs><linearGradient xlink:href="#b" id="a" gradientUnits="userSpaceOnUse" x1="32.747" y1="44" x2="32.747" y2="17.242"/><linearGradient id="b"><stop offset="0"/><stop offset="1" stop-opacity="0"/></linearGradient></defs><path d="M19.5 15a2.25 2.25 0 0 0-2.25 2.25 2.25 2.25 0 0 0 1.5 2.118v9.267a2.25 2.25 0 0 0-1.5 2.115A2.25 2.25 0 0 0 19.5 33a2.25 2.25 0 0 0 2.25-2.25 2.25 2.25 0 0 0-1.5-2.118v-9.264a2.25 2.25 0 0 0 1.5-2.118A2.25 2.25 0 0 0 19.5 15m5.25 0l-3 2.1 3 2.4V18h1.5c.831 0 1.5.669 1.5 1.5v9.135a2.25 2.25 0 0 0-1.5 2.115A2.25 2.25 0 0 0 28.5 33a2.25 2.25 0 0 0 2.25-2.25 2.25 2.25 0 0 0-1.5-2.118V19.5c0-1.662-1.335-2.918-3-3h-1.5zm-5.25 1.5a.75.75 0 0 1 .75.75.75.75 0 0 1-.75.75.75.75 0 0 1-.75-.75.75.75 0 0 1 .75-.75m0 13.5a.75.75 0 0 1 .75.75.75.75 0 0 1-.75.75.75.75 0 0 1-.75-.75.75.75 0 0 1 .75-.75m9 0a.75.75 0 0 1 .75.75.75.75 0 0 1-.75.75.75.75 0 0 1-.75-.75.75.75 0 0 1 .75-.75" fill="#fff"/></svg>