<?xml version="1.0" encoding="UTF-8" standalone="no"?>
<svg
   xmlns:dc="http://purl.org/dc/elements/1.1/"
   xmlns:cc="http://creativecommons.org/ns#"
   xmlns:rdf="http://www.w3.org/1999/02/22-rdf-syntax-ns#"
   xmlns:svg="http://www.w3.org/2000/svg"
   xmlns="http://www.w3.org/2000/svg"
   xmlns:xlink="http://www.w3.org/1999/xlink"
   xmlns:sodipodi="http://sodipodi.sourceforge.net/DTD/sodipodi-0.dtd"
   xmlns:inkscape="http://www.inkscape.org/namespaces/inkscape"
   width="48px"
   height="48px"
   viewBox="0 0 48 48"
   version="1.1"
   id="svg25"
   sodipodi:docname="text-x-sass.svg"
   inkscape:version="0.92.2 2405546, 2018-03-11">
  <metadata
     id="metadata29">
    <rdf:RDF>
      <cc:Work
         rdf:about="">
        <dc:format>image/svg+xml</dc:format>
        <dc:type
           rdf:resource="http://purl.org/dc/dcmitype/StillImage" />
        <dc:title>deb</dc:title>
      </cc:Work>
    </rdf:RDF>
  </metadata>
  <sodipodi:namedview
     pagecolor="#ffffff"
     bordercolor="#666666"
     borderopacity="1"
     objecttolerance="10"
     gridtolerance="10"
     guidetolerance="10"
     inkscape:pageopacity="0"
     inkscape:pageshadow="2"
     inkscape:window-width="1920"
     inkscape:window-height="1051"
     id="namedview27"
     showgrid="false"
     inkscape:zoom="9.8333333"
     inkscape:cx="31.373471"
     inkscape:cy="30.26609"
     inkscape:window-x="0"
     inkscape:window-y="29"
     inkscape:window-maximized="1"
     inkscape:current-layer="svg25" />
  <!-- Generator: Sketch 41.2 (35397) - http://www.bohemiancoding.com/sketch -->
  <title
     id="title2">deb</title>
  <desc
     id="desc4">Created with Sketch.</desc>
  <g
     id="g829">
    <rect
       rx="2"
       ry="1.9047618"
       y="4"
       x="6"
       height="40"
       width="36"
       id="rect834"
       style="opacity:1;fill:#ee527f;fill-opacity:1;stroke:none;stroke-width:0.92582005;stroke-linecap:round;stroke-linejoin:round;stroke-miterlimit:4;stroke-dasharray:none;stroke-opacity:0.05882353;paint-order:markers stroke fill" />
    <path
       inkscape:connector-curvature="0"
       id="rect866"
       d="M 42,17.242188 A 40,40 0 0 1 23.494141,44 H 40 c 1.108,0 2,-0.849059 2,-1.904297 z"
       style="opacity:0.15;fill:url(#linearGradient877);fill-opacity:1;stroke:none;stroke-width:0.92582005;stroke-linecap:round;stroke-linejoin:round;stroke-miterlimit:4;stroke-dasharray:none;stroke-opacity:0.05882353;paint-order:markers stroke fill" />
  </g>
  <defs
     id="defs11">
    <linearGradient
       inkscape:collect="always"
       xlink:href="#linearGradient875"
       id="linearGradient877"
       x1="32.74707"
       y1="44"
       x2="32.74707"
       y2="17.242188"
       gradientUnits="userSpaceOnUse" />
    <linearGradient
       inkscape:collect="always"
       id="linearGradient875">
      <stop
         style="stop-color:#000000;stop-opacity:1;"
         offset="0"
         id="stop871" />
      <stop
         style="stop-color:#000000;stop-opacity:0;"
         offset="1"
         id="stop873" />
    </linearGradient>
  </defs>
  <path
     d="m 32.660395,25.266982 c -0.839138,0.01041 -1.565766,0.196619 -2.175196,0.482443 -0.225021,-0.424258 -0.450039,-0.79512 -0.487543,-1.072095 -0.04219,-0.321629 -0.09376,-0.518145 -0.04219,-0.902433 0.05157,-0.384081 0.285962,-0.929183 0.285962,-0.973837 -0.0046,-0.04059 -0.05157,-0.236797 -0.534422,-0.241273 -0.482856,-0.01041 -0.900081,0.08951 -0.94696,0.209943 -0.04688,0.120741 -0.140639,0.397716 -0.201582,0.683643 -0.08438,0.419886 -0.965709,1.907391 -1.467317,2.689188 -0.164078,-0.30383 -0.304715,-0.571853 -0.332843,-0.786168 -0.0422,-0.321733 -0.09376,-0.518248 -0.0422,-0.902434 0.05158,-0.384183 0.285963,-0.929078 0.285963,-0.973836 -0.0046,-0.04059 -0.05157,-0.236694 -0.534424,-0.241169 -0.482854,-0.01041 -0.90008,0.08951 -0.946959,0.209943 -0.04688,0.120532 -0.09844,0.406459 -0.201581,0.683434 -0.09844,0.276975 -1.270426,2.760695 -1.575141,3.408429 -0.154701,0.330684 -0.29065,0.594231 -0.389097,0.772844 -0.09844,0.178613 -0.0046,0.01353 -0.01406,0.03123 -0.08438,0.151862 -0.13126,0.236694 -0.13126,0.236694 v 0.0104 c -0.06564,0.111685 -0.13595,0.218895 -0.168765,0.218895 -0.02343,0 -0.0703,-0.299249 0.0094,-0.710289 0.173453,-0.862047 0.595365,-2.206745 0.590677,-2.25577 0,-0.0229 0.0797,-0.259176 -0.271897,-0.379813 -0.34222,-0.120636 -0.464104,0.08014 -0.492232,0.08014 -0.02813,0 -0.05157,0.07182 -0.05157,0.07182 0,0 0.379721,-1.514463 -0.726627,-1.514463 -0.693813,0 -1.650149,0.71924 -2.123627,1.37582 -0.300029,0.156443 -0.937584,0.487022 -1.612646,0.839981 -0.257835,0.133959 -0.525047,0.276975 -0.778195,0.406459 l -0.05157,-0.05412 c -1.340744,-1.362497 -3.820654,-2.327278 -3.71752,-4.158895 0.0375,-0.665635 0.281274,-2.421164 4.762927,-4.547451 3.670643,-1.742309 6.609968,-1.264238 7.12095,-0.201199 0.72663,1.518835 -1.570452,4.342087 -5.386419,4.74865 -1.453255,0.156339 -2.217387,-0.379813 -2.409592,-0.5807 -0.201579,-0.210047 -0.229708,-0.218895 -0.304716,-0.178717 -0.121884,0.06245 -0.04689,0.25012 0,0.361805 0.112512,0.281347 0.581303,0.781797 1.378251,1.032022 0.6985,0.218791 2.404902,0.339427 4.467588,-0.419991 2.311144,-0.8532 4.115992,-3.22076 3.586259,-5.199763 -0.539112,-2.014809 -4.045676,-2.675865 -7.360036,-1.554537 -1.973612,0.670007 -4.111304,1.715247 -5.648943,3.0868 -1.828288,1.625941 -2.118939,3.046518 -1.997054,3.636274 0.4266,2.104012 3.46906,3.47546 4.687919,4.489474 -0.06093,0.03123 -0.117198,0.06245 -0.168764,0.08951 -0.60943,0.285823 -2.92995,1.442853 -3.511254,2.666915 -0.656306,1.384771 0.103136,2.380986 0.609431,2.514946 1.565766,0.415515 3.169035,-0.33058 4.036299,-1.559013 0.862577,-1.228433 0.759443,-2.823252 0.360971,-3.551443 l -0.01406,-0.02706 0.478167,-0.268024 c 0.309403,-0.174241 0.614118,-0.335056 0.88133,-0.473596 -0.150013,0.388662 -0.257837,0.84883 -0.314092,1.518836 -0.06564,0.786272 0.271901,1.804762 0.717252,2.20685 0.196894,0.174137 0.431289,0.178612 0.576616,0.178612 0.51567,0 0.750066,-0.406458 1.0079,-0.893376 0.31878,-0.594128 0.600055,-1.282038 0.600055,-1.282038 0,0 -0.351594,1.862738 0.609431,1.862738 0.351592,0 0.703187,-0.433314 0.862576,-0.656684 v 0.01041 c 0,0 0.0094,-0.01353 0.02813,-0.04476 0.0375,-0.05309 0.05625,-0.08535 0.05625,-0.08535 v -0.01041 c 0.140638,-0.232322 0.454728,-0.763893 0.92352,-1.643947 0.604741,-1.134652 1.186044,-2.555229 1.186044,-2.555229 0,0 0.05627,0.348483 0.229708,0.920232 0.103136,0.339531 0.328154,0.710289 0.501608,1.072199 -0.140638,0.187564 -0.22502,0.294774 -0.22502,0.294774 l 0.0046,0.01041 c -0.112508,0.142808 -0.239083,0.294774 -0.370344,0.446637 -0.478168,0.544999 -1.050095,1.165877 -1.125101,1.344595 -0.08907,0.209942 -0.0703,0.366281 0.103135,0.491393 0.126573,0.08951 0.351594,0.10721 0.590678,0.08951 0.431289,-0.02706 0.731315,-0.129693 0.881331,-0.192144 0.234395,-0.08015 0.501605,-0.200992 0.75944,-0.379709 0.468794,-0.33058 0.754755,-0.799595 0.72663,-1.424949 -0.01407,-0.344008 -0.131263,-0.683643 -0.27659,-1.005167 0.04219,-0.05725 0.08438,-0.116265 0.126575,-0.178717 0.74069,-1.031917 1.312618,-2.166568 1.312618,-2.166568 0,0 0.05626,0.348483 0.229707,0.920231 0.08907,0.290403 0.267212,0.607556 0.426602,0.920232 -0.693814,0.540523 -1.129789,1.165981 -1.279802,1.577021 -0.276588,0.759313 -0.06094,1.10332 0.346905,1.183675 0.182828,0.03643 0.445352,-0.04476 0.642246,-0.125112 0.243771,-0.07599 0.539112,-0.205467 0.811009,-0.397508 0.468792,-0.33058 0.918833,-0.790748 0.895393,-1.41173 -0.01407,-0.285823 -0.09376,-0.567273 -0.20158,-0.835297 0.590678,-0.232217 1.354809,-0.366282 2.325209,-0.254596 2.086124,0.232321 2.498662,1.474182 2.418967,1.992326 -0.0797,0.518249 -0.515671,0.804175 -0.660997,0.893482 -0.145327,0.08431 -0.192205,0.116056 -0.178141,0.178612 0.01876,0.09368 0.08438,0.08952 0.210956,0.07182 0.173454,-0.02706 1.096973,-0.424361 1.134475,-1.380295 0.05627,-1.228537 -1.16729,-2.568656 -3.337798,-2.555333 z m -16.088942,5.168537 c -0.689125,0.719137 -1.659524,0.99174 -2.072061,0.759417 -0.445353,-0.245644 -0.271901,-1.304415 0.576614,-2.068413 0.515669,-0.46454 1.186044,-0.893274 1.626708,-1.156822 0.09844,-0.05829 0.24846,-0.143015 0.426601,-0.245749 0.02813,-0.0177 0.04689,-0.02706 0.04689,-0.02706 0.03282,-0.0177 0.0703,-0.04059 0.107822,-0.06245 0.31409,1.089893 0.01407,2.045827 -0.712564,2.800872 z m 5.039514,-3.265516 c -0.239084,0.558425 -0.74538,1.99243 -1.050095,1.91197 -0.262523,-0.06765 -0.421912,-1.152553 -0.05157,-2.224751 0.187516,-0.540524 0.58599,-1.183781 0.820386,-1.433901 0.379722,-0.401984 0.79226,-0.536047 0.895393,-0.370758 0.121886,0.214419 -0.464104,1.768956 -0.614117,2.11744 z m 4.158184,1.894067 c -0.103136,0.04892 -0.196892,0.08536 -0.239084,0.05829 -0.03282,-0.01873 0.0422,-0.08535 0.0422,-0.08535 0,0 0.520358,-0.531469 0.726627,-0.777217 0.117197,-0.143016 0.257836,-0.308201 0.407848,-0.49587 v 0.05309 c 0,0.643257 -0.646933,1.072094 -0.937584,1.246336 z m 3.206538,-0.696861 c -0.07501,-0.05309 -0.06562,-0.218895 0.187518,-0.737039 0.09844,-0.205467 0.323465,-0.549474 0.712563,-0.875683 0.04688,0.134064 0.07501,0.263549 0.0703,0.384289 -0.0046,0.80407 -0.604743,1.103425 -0.970401,1.228433 z"
     id="path4"
     style="opacity:1;fill:#ffffff;stroke-width:0.85714352"
     inkscape:connector-curvature="0" />
</svg>
