<svg xmlns="http://www.w3.org/2000/svg" xmlns:xlink="http://www.w3.org/1999/xlink" width="48" height="48"><rect width="36" height="40" x="6" y="4" ry="1.905" rx="2" fill="#f2f2f2" paint-order="markers stroke fill"/><path d="M42 17.242A40 40 0 0 1 23.494 44H40c1.108 0 2-.85 2-1.904z" opacity=".15" fill="url(#a)" paint-order="markers stroke fill"/><defs><linearGradient xlink:href="#b" id="a" x1="32.747" y1="44" x2="32.747" y2="17.242" gradientUnits="userSpaceOnUse"/><linearGradient id="b"><stop offset="0"/><stop offset="1" stop-opacity="0"/></linearGradient></defs><rect x="12" y="26" width="24" height="2" rx="1" fill="#999" fill-rule="evenodd"/><rect x="12" y="30" width="24" height="2" rx="1" fill="#999" fill-rule="evenodd"/><path d="M19.977 21.19l-.342-.899h-2.91l-.342.918c-.134.358-.248.6-.342.725-.094.125-.249.188-.464.188a.68.68 0 0 1-.483-.2.613.613 0 0 1-.21-.454c0-.098.016-.199.049-.303.032-.104.086-.249.16-.435l1.832-4.648.188-.48c.073-.188.151-.344.234-.467a.952.952 0 0 1 .327-.3c.135-.077.302-.115.5-.115.203 0 .371.038.506.114a.972.972 0 0 1 .327.296c.083.12.153.25.21.388.057.138.13.323.218.554l1.87 4.62c.146.351.22.607.22.766 0 .166-.07.318-.208.457a.682.682 0 0 1-.5.207.6.6 0 0 1-.498-.227 1.527 1.527 0 0 1-.179-.322 18.871 18.871 0 0 1-.163-.384zm-2.872-1.988h2.14l-1.08-2.954zm6.622-3.72v2.036c.25-.26.506-.46.766-.599.26-.138.583-.207.967-.207.443 0 .83.105 1.165.315.333.21.592.514.776.913.184.399.276.872.276 1.418 0 .404-.052.774-.154 1.111-.103.337-.252.63-.447.877a2.018 2.018 0 0 1-1.63.776 2.21 2.21 0 0 1-.58-.073 1.697 1.697 0 0 1-.46-.193 2.089 2.089 0 0 1-.325-.247 5.554 5.554 0 0 1-.354-.38v.131c0 .251-.06.44-.181.57a.602.602 0 0 1-.46.192.57.57 0 0 1-.45-.193c-.113-.128-.17-.318-.17-.569v-5.82c0-.27.055-.474.164-.613a.548.548 0 0 1 .457-.207c.205 0 .363.066.474.197.11.132.166.32.166.564zm.063 3.96c0 .53.121.938.364 1.223.242.284.56.427.954.427.336 0 .625-.146.867-.437.243-.292.364-.709.364-1.253 0-.351-.05-.654-.151-.908a1.32 1.32 0 0 0-.43-.588 1.057 1.057 0 0 0-.65-.208c-.254 0-.48.07-.678.208a1.379 1.379 0 0 0-.47.6c-.113.262-.17.574-.17.935zm9.736 1.03c0 .166-.05.343-.149.532-.099.189-.25.369-.454.54-.203.17-.46.308-.769.412-.309.104-.657.156-1.045.156-.823 0-1.466-.24-1.928-.72-.463-.48-.694-1.124-.694-1.931 0-.547.106-1.03.318-1.45.211-.42.517-.745.918-.974.4-.23.879-.345 1.435-.345.345 0 .662.05.95.152.288.1.532.23.732.39.2.16.354.33.46.51.105.181.158.35.158.506 0 .16-.06.295-.178.405a.611.611 0 0 1-.432.166.436.436 0 0 1-.276-.085 1.354 1.354 0 0 1-.247-.276 2.019 2.019 0 0 0-.51-.557c-.177-.123-.403-.185-.676-.185a1.15 1.15 0 0 0-.952.461c-.241.308-.362.729-.362 1.262 0 .251.031.481.093.691.062.21.151.39.269.537.117.149.258.26.424.337.166.077.349.115.547.115.267 0 .496-.062.686-.185.19-.124.36-.313.506-.567.081-.15.169-.267.263-.351a.5.5 0 0 1 .347-.127c.163 0 .298.061.405.185a.594.594 0 0 1 .161.396z" fill="#999" fill-rule="evenodd"/></svg>