<svg xmlns="http://www.w3.org/2000/svg" xmlns:xlink="http://www.w3.org/1999/xlink" width="48" height="48"><g paint-order="markers stroke fill"><rect rx="2" ry="1.905" y="4" x="6" height="40" width="36" fill="#ef6c00"/><path d="M42 17.242A40 40 0 0 1 23.494 44H40c1.108 0 2-.85 2-1.904z" opacity=".15" fill="url(#a)"/></g><defs><linearGradient xlink:href="#b" id="a" x1="32.747" y1="44" x2="32.747" y2="17.242" gradientUnits="userSpaceOnUse"/><linearGradient id="b"><stop offset="0"/><stop offset="1" stop-opacity="0"/></linearGradient></defs><g fill="#fff" fill-rule="evenodd"><path d="M15 15.5h18v4H15zM15 21.5v11h18v-11zm5.998 1.79c.335 0 .639.052.912.161.274.11.514.269.72.479.208.21.383.47.526.779.248.537.37 1.298.37 2.281 0 .534-.033.993-.098 1.377a3.206 3.206 0 0 1-.362 1.045 2.4 2.4 0 0 1-.859.889 2.255 2.255 0 0 1-1.172.312c-.495 0-.938-.14-1.33-.42-.392-.28-.688-.669-.887-1.164-.1-.27-.173-.567-.22-.894a7.451 7.451 0 0 1-.073-1.063c0-.491.028-.934.08-1.328.053-.394.134-.732.245-1.015.192-.47.47-.827.836-1.073s.804-.367 1.312-.367zm6.582.007a.5.5 0 0 1 .414.201c.104.133.156.316.156.55v5.593c0 .654-.224.98-.67.98a.608.608 0 0 1-.476-.2c-.12-.133-.182-.33-.182-.59v-4.444c-.827.634-1.383.953-1.67.953a.493.493 0 0 1-.363-.164.528.528 0 0 1-.158-.38c0-.165.052-.286.156-.364.104-.079.287-.18.55-.303.395-.186.71-.381.946-.586.236-.205.445-.436.627-.69.182-.253.302-.41.358-.468.055-.059.16-.088.312-.088zm-6.562.982c-.43 0-.73.216-.897.649-.168.433-.252 1.1-.252 2.002 0 .612.036 1.113.108 1.504.071.39.192.686.36.886.17.2.399.301.688.301.3 0 .534-.104.704-.312.169-.209.289-.508.357-.895s.103-.895.103-1.523c0-.596-.035-1.082-.107-1.461-.072-.38-.192-.666-.361-.86-.17-.193-.404-.29-.703-.29z"/></g></svg>