<svg xmlns="http://www.w3.org/2000/svg" width="16" height="16"><path d="M8 1C4.13 1 1 4.13 1 8s3.13 7 7 7 7-3.13 7-7-3.13-7-7-7zm-.5 1.94c.07-.01.15 0 .22 0 .01.03-.05.14-.13.31-.48 1.06-.51 2.3-.06 2.97.08.12.16.23.16.25 0 .01-.09.03-.19.03-.23 0-.45-.14-.91-.5-.2-.16-.46-.29-.56-.31-.16-.03-.2-.02-.41.18-.19.2-.25.3-.25.47 0 .67.79 1.19 2.25 1.5 1.99.42 2.48.8 2.54 1.85.07 1.31-.63 2.3-2.16 3.06-.18.09-.3.13-.38.16-.03-.01-.05 0-.09 0-.01-.04-.03-.14-.03-.32 0-.69-.27-1.41-.69-1.81-.11-.11-.42-.33-.68-.5-.27-.16-.54-.35-.6-.44-.1-.13-.11-.21-.03-.47.14-.45.3-.71.63-1 .16-.15.33-.27.37-.28.04 0-.22-.08-.59-.15-.38-.08-.94-.24-1.22-.35-.53-.19-1.23-.58-1.5-.87l-.03-.03c.38-1.54 1.47-2.8 2.9-3.41.3-.13.61-.21.94-.28.16-.03.33-.05.5-.06zm4.69 2.34c.11.07.56 1.03.68 1.5.17.61.16 1.65 0 2.25-.05.23-.13.44-.15.47-.03.03-.12-.13-.22-.31-.1-.19-.44-.58-.72-.88-.8-.85-.93-1.29-.59-1.97.17-.34.91-1.11 1-1.06z" fill="#555555"/></svg>