<svg width="64" height="64" version="1.1" viewBox="0 0 64 64" xmlns="http://www.w3.org/2000/svg">
 <g transform="translate(4)">
  <g transform="matrix(1.1739 0 0 1.1739 -.17391 -.17391)">
   <path d="m24 4.4074c12.703 0 23 10.297 23 23s-10.297 23-23 23-23-10.297-23-23 10.297-23 23-23z" fill="#b89961"/>
   <g transform="translate(1,1)">
    <g opacity=".1"></g>
   </g>
  </g>
  <path d="m28 14c-9.942 0-18 8.058-18 18s8.058 18 18 18 18-8.058 18-18-8.058-18-18-18z" fill="#805b20" stroke-width="1.2"/>
  <path d="m26.832 18.044a14.011 14.011 0 0 0-12.784 12.789l12.784-2e-6zm2.3352 0.0046 2e-6 12.784h12.789a14.011 14.011 0 0 0-12.789-12.784zm-15.124 15.119a14.011 14.011 0 0 0 12.789 12.784v-12.784zm15.124 0v12.789a14.011 14.011 0 0 0 12.784-12.789z" fill="#ffffff" stroke-width="1.1676"/>
 </g>
</svg>
