<svg xmlns="http://www.w3.org/2000/svg" width="64" height="64"><circle cx="32" cy="32" r="27" fill="#f2f2f2"/><circle cx="32" cy="32" r="8" opacity=".2"/><path fill="#394045" d="M29.333 20A1.33 1.33 0 0 0 28 21.333v5.404s1.445 1.27 1.445 2.128c0 .857-1.445 2.127-1.445 2.127v11.674A1.33 1.33 0 0 0 29.333 44h5.333A1.33 1.33 0 0 0 36 42.666v-5.383l-.013-.018s-1.508-1.325-1.508-2.219c0-.895 1.508-2.221 1.508-2.221l.013-.018V21.333a1.33 1.33 0 0 0-1.334-1.334z"/><path fill="#0076e2" d="M32 10c-12.118 0-22 9.882-22 22s9.882 22 22 22 22-9.882 22-22-9.882-22-22-22m0 5c9.422 0 17 7.578 17 17s-7.578 17-17 17-17-7.578-17-17 7.578-17 17-17"/></svg>