<svg xmlns="http://www.w3.org/2000/svg" xmlns:xlink="http://www.w3.org/1999/xlink" width="64" height="64"><defs><linearGradient id="a"><stop offset="0" stop-color="#3889e9"/><stop offset="1" stop-color="#5ea5fb"/></linearGradient><linearGradient xlink:href="#a" id="b" x1="399.57" x2="399.57" y1="545.8" y2="517.8" gradientTransform="translate(-736.2 -987.76) scale(1.9175)" gradientUnits="userSpaceOnUse"/><linearGradient xlink:href="#a" id="c" x1="-.5" x2="536" y1="267.75" y2="267.75" gradientUnits="userSpaceOnUse"/></defs><circle cx="32" cy="32" r="27" fill="#3de365"/><path fill="#195c28" d="M25.925 24.379a5 5 0 0 0-3.098-1.072c-2.749 0-4.985 2.218-5.055 4.98a7.568 7.568 0 0 0-4.857 7.088c0 3.833 2.818 7 6.473 7.5v.068H45.28v-.012c3.61-.212 6.473-3.24 6.473-6.943 0-3.571-2.663-6.514-6.09-6.91.014-.217.021-.436.021-.658 0-5.535-4.618-10.022-10.316-10.022-4.217 0-7.843 2.459-9.443 5.98z"/><circle cx="32.035" cy="32.067" r="30.001" fill="none"/></svg>