<svg width="64" height="64" version="1.1" viewBox="0 0 16.933 16.933" xmlns="http://www.w3.org/2000/svg">
 <g transform="translate(0 -280.07)">
  <rect transform="matrix(0,-1,-1,0,0,0)" x="-295.68" y="-15.61" width="14.287" height="14.287" rx="7.1436" ry="7.1436" fill="#4c627f"/>
  <rect transform="matrix(0 -1 -1 0 0 0)" x="-294.35" y="-14.288" width="11.642" height="11.642" rx="5.821" ry="5.821" fill="#fff" opacity=".15"/>
  <path d="M5.292 291.042c-.004-1.524 2.2-5.925 3.226-5.947.513-.013 1.282.962 1.928 2.222.647 1.259 1.17 2.804 1.196 3.932 0 0-2.483-4.849-3.102-4.863-.63-.017-2.342 3.416-2.138 3.798.2.373 3.888-.83 3.888-.83-.08.123-2.487 1.715-4.293 2.09-.273-.012-.682 0-.705-.402m0 0" fill="#fff" fill-rule="evenodd"/>
 </g>
</svg>
