<svg xmlns="http://www.w3.org/2000/svg" width="64" height="64" viewBox="0 0 16.933 16.933"><g transform="translate(0 -280.067)"><rect width="13.758" height="13.758" x="-295.413" y="-15.346" rx="6.879" ry="6.879" transform="matrix(0 -1 -1 0 0 0)" fill="#4c627f"/><rect transform="matrix(0 -1 -1 0 0 0)" ry="5.821" rx="5.821" y="-14.288" x="-294.354" height="11.642" width="11.642" opacity=".15" fill="#fff"/><path d="M5.292 291.042c-.004-1.524 2.2-5.925 3.226-5.947.513-.013 1.282.962 1.928 2.222.647 1.259 1.17 2.804 1.196 3.932 0 0-2.483-4.849-3.102-4.863-.63-.017-2.342 3.416-2.138 3.798.2.373 3.888-.83 3.888-.83-.08.123-2.487 1.715-4.293 2.09-.273-.012-.682 0-.705-.402m0 0" fill="#fff" fill-rule="evenodd"/></g></svg>