<?xml version="1.0" encoding="UTF-8" standalone="no"?>
<!-- Created with Inkscape (http://www.inkscape.org/) -->

<svg
   xmlns:dc="http://purl.org/dc/elements/1.1/"
   xmlns:cc="http://creativecommons.org/ns#"
   xmlns:rdf="http://www.w3.org/1999/02/22-rdf-syntax-ns#"
   xmlns:svg="http://www.w3.org/2000/svg"
   xmlns="http://www.w3.org/2000/svg"
   xmlns:xlink="http://www.w3.org/1999/xlink"
   xmlns:sodipodi="http://sodipodi.sourceforge.net/DTD/sodipodi-0.dtd"
   xmlns:inkscape="http://www.inkscape.org/namespaces/inkscape"
   width="64"
   height="64"
   viewBox="0 0 16.933333 16.933333"
   version="1.1"
   id="svg4572"
   inkscape:version="0.92.4 5da689c313, 2019-01-14"
   sodipodi:docname="screenie.svg">
  <title
     id="title4611">Canvas icon theme</title>
  <defs
     id="defs4566">
    <linearGradient
       inkscape:collect="always"
       id="linearGradient845">
      <stop
         style="stop-color:#000000;stop-opacity:1;"
         offset="0"
         id="stop841" />
      <stop
         style="stop-color:#000000;stop-opacity:0;"
         offset="1"
         id="stop843" />
    </linearGradient>
    <linearGradient
       inkscape:collect="always"
       xlink:href="#linearGradient845"
       id="linearGradient847"
       x1="45.09375"
       y1="50"
       x2="45.09375"
       y2="14"
       gradientUnits="userSpaceOnUse" />
  </defs>
  <sodipodi:namedview
     id="base"
     pagecolor="#ffffff"
     bordercolor="#666666"
     borderopacity="1.0"
     inkscape:pageopacity="0.0"
     inkscape:pageshadow="2"
     inkscape:zoom="7.919596"
     inkscape:cx="16.299357"
     inkscape:cy="28.143349"
     inkscape:document-units="px"
     inkscape:current-layer="layer1"
     showgrid="true"
     units="px"
     width="64px"
     showguides="true"
     inkscape:guide-bbox="true"
     inkscape:window-width="1920"
     inkscape:window-height="1023"
     inkscape:window-x="0"
     inkscape:window-y="27"
     inkscape:window-maximized="1"
     inkscape:snap-bbox="true"
     inkscape:bbox-nodes="true"
     inkscape:snap-bbox-edge-midpoints="true">
    <inkscape:grid
       type="xygrid"
       id="grid4582" />
    <sodipodi:guide
       position="1.0583333,15.875"
       orientation="0,1"
       id="guide4584"
       inkscape:locked="false" />
    <sodipodi:guide
       position="1.0583333,1.0583333"
       orientation="1,0"
       id="guide4586"
       inkscape:locked="false" />
    <sodipodi:guide
       position="15.875,15.875"
       orientation="1,0"
       id="guide4588"
       inkscape:locked="false" />
    <sodipodi:guide
       position="1.0583333,1.0583333"
       orientation="0,1"
       id="guide4590"
       inkscape:locked="false" />
    <sodipodi:guide
       position="8.4666665,8.4666665"
       orientation="0,1"
       id="guide822"
       inkscape:locked="false" />
    <sodipodi:guide
       position="8.4666665,8.4666665"
       orientation="1,0"
       id="guide824"
       inkscape:locked="false" />
  </sodipodi:namedview>
  <metadata
     id="metadata4569">
    <rdf:RDF>
      <cc:Work
         rdf:about="">
        <dc:format>image/svg+xml</dc:format>
        <dc:type
           rdf:resource="http://purl.org/dc/dcmitype/StillImage" />
        <dc:title>Canvas icon theme</dc:title>
        <cc:license
           rdf:resource="http://creativecommons.org/licenses/by-nc-sa/4.0/" />
        <dc:creator>
          <cc:Agent>
            <dc:title>Vince Liuice</dc:title>
          </cc:Agent>
        </dc:creator>
      </cc:Work>
      <cc:License
         rdf:about="http://creativecommons.org/licenses/by-nc-sa/4.0/">
        <cc:permits
           rdf:resource="http://creativecommons.org/ns#Reproduction" />
        <cc:permits
           rdf:resource="http://creativecommons.org/ns#Distribution" />
        <cc:requires
           rdf:resource="http://creativecommons.org/ns#Notice" />
        <cc:requires
           rdf:resource="http://creativecommons.org/ns#Attribution" />
        <cc:prohibits
           rdf:resource="http://creativecommons.org/ns#CommercialUse" />
        <cc:permits
           rdf:resource="http://creativecommons.org/ns#DerivativeWorks" />
        <cc:requires
           rdf:resource="http://creativecommons.org/ns#ShareAlike" />
      </cc:License>
    </rdf:RDF>
  </metadata>
  <g
     inkscape:label="Layer 1"
     inkscape:groupmode="layer"
     id="layer1"
     transform="translate(0,-280.06667)">
    <g
       transform="translate(1.0702011e-6,-0.26458389)"
       id="g27"
       style="fill:#ffc771;fill-opacity:1">
      <path
         style="fill:#ffc771;fill-opacity:1;fill-rule:evenodd;stroke:none;stroke-width:0.25751501"
         inkscape:connector-curvature="0"
         d="m 13.975785,294.81667 c -0.05356,0.19989 -0.269869,0.31561 -0.480377,0.2592 L 0.97267381,291.72041 c -0.21174466,-0.0567 -0.33945012,-0.26674 -0.2864181,-0.46466 l 2.27128979,-8.47657 c 0.05356,-0.19989 0.2698713,-0.31562 0.4803797,-0.25921 l 12.5227348,3.35546 c 0.211744,0.0567 0.339447,0.26675 0.286415,0.46467 z"
         id="path23"
         sodipodi:nodetypes="sssssssss" />
    </g>
    <path
       style="fill:#a75dfa;fill-opacity:1;fill-rule:evenodd;stroke:none;stroke-width:0.25751501"
       inkscape:connector-curvature="0"
       d="m 15.345833,292.92114 c 0,0.20694 -0.178988,0.3747 -0.396922,0.3747 H 1.9844224 c -0.2192142,0 -0.3969224,-0.1698 -0.3969224,-0.3747 v -8.77559 c 0,-0.20694 0.1789881,-0.37471 0.3969224,-0.37471 H 14.948911 c 0.219214,0 0.396922,0.16981 0.396922,0.37471 z"
       id="polygon11624"
       sodipodi:nodetypes="sssssssss" />
    <path
       style="fill:#fff9f9;fill-rule:evenodd;stroke:none;stroke-width:0.26458332"
       inkscape:connector-curvature="0"
       d="m 11.377083,289.98855 v -3.30776 c 0,-0.21893 -0.178916,-0.39641 -0.394467,-0.39641 H 6.3499996 v -1.05833 c 0,-0.13229 -0.1322916,-0.39688 -0.396875,-0.39688 -0.2645833,0 -0.396875,0.26459 -0.396875,0.39688 v 1.05833 H 4.4979163 c -0.1322917,0 -0.396875,0.13229 -0.396875,0.39688 0,0.26458 0.2645833,0.39687 0.396875,0.39687 h 1.0583333 v 3.30776 c 0,0.21893 0.1789166,0.39641 0.3944668,0.39641 h 4.6326166 v 1.05833 c 0,0.13229 0.132292,0.39688 0.396875,0.39688 0.264584,0 0.396875,-0.26459 0.396875,-0.39688 v -1.05833 h 1.058334 c 0.132291,0 0.396875,-0.13229 0.396875,-0.39688 0,-0.26458 -0.264584,-0.39687 -0.396875,-0.39687 z m -5.0270834,0 v -2.91042 h 4.2333334 v 2.91042 z"
       id="path20" />
    <path
       style="fill:url(#linearGradient847);fill-opacity:1;fill-rule:evenodd;stroke:none;stroke-width:0.97328508;opacity:0.15"
       d="M 50.835938 14 A 57.999999 53.000002 0 0 1 32.1875 50 L 56.5 50 C 57.323688 50 58 49.36612 58 48.583984 L 58 15.416016 C 58 14.64159 57.328525 14 56.5 14 L 50.835938 14 z "
       transform="matrix(0.26458333,0,0,0.26458333,0,280.06667)"
       id="path29" />
  </g>
</svg>
