<svg width="64" height="64" version="1.1" viewBox="0 0 16.933 16.933" xmlns="http://www.w3.org/2000/svg" xmlns:xlink="http://www.w3.org/1999/xlink">
 <path d="M13.976 14.485c-.054.2-.27.316-.48.26L.972 11.389c-.212-.057-.34-.267-.287-.465l2.272-8.476c.053-.2.27-.316.48-.26L15.96 5.545c.211.057.34.267.286.465z" fill="#ffc771" fill-rule="evenodd"/>
 <path d="M15.346 12.854c0 .207-.18.375-.397.375H1.984c-.219 0-.397-.17-.397-.375V4.08c0-.207.18-.375.397-.375H14.95c.22 0 .397.17.397.375z" fill="#a75dfa" fill-rule="evenodd"/>
 <path d="M11.377 9.922V6.614a.397.397 0 0 0-.394-.396H6.35V5.159c0-.132-.132-.397-.397-.397-.264 0-.397.265-.397.397v1.059H4.498c-.132 0-.397.132-.397.397 0 .264.265.396.397.396h1.058v3.308c0 .22.18.397.395.397h4.632v1.058c0 .132.133.397.397.397.265 0 .397-.265.397-.397v-1.058h1.058c.133 0 .397-.133.397-.397 0-.265-.264-.397-.397-.397zm-5.027 0v-2.91h4.233v2.91z" fill="#fff9f9" fill-rule="evenodd"/>
</svg>
