<svg width="64" height="64" version="1.1" viewBox="0 0 16.933 16.933" xmlns="http://www.w3.org/2000/svg">
 <circle cx="8.4665" cy="8.4665" r="7.1436" fill="#f9f9f9" stroke-width=".77999" style="paint-order:stroke markers fill"/>
 <path d="m8.2949 3.2938a5.1902 5.1902 0 0 0-3.4986 1.5151 5.1902 5.1902 0 0 0-0.42348 6.8484l1.0904-1.0904a3.6636 3.6636 0 0 1 0.4131-4.6779 3.6636 3.6636 0 0 1 3.8113-0.8585v1.3108l1.9582-1.9582a5.1902 5.1902 0 0 0-3.3509-1.0893z" fill="#4c8fd8" stroke-width=".86669" style="paint-order:stroke markers fill"/>
 <path d="m12.561 5.3015-1.0904 1.0904a3.6636 3.6636 0 0 1-0.41425 4.6779 3.6636 3.6636 0 0 1-3.8113 0.8585v-1.312l-1.2947 1.2958-0.66349 0.66234a5.1902 5.1902 0 0 0 6.8496-0.42464 5.1902 5.1902 0 0 0 0.42464-6.8484z" fill="#6ddce7" stroke-width=".86669" style="paint-order:stroke markers fill"/>
 <circle cx="13.229" cy="13.229" r="3.4395" fill="#7664c4" style="paint-order:stroke fill markers"/>
 <path d="m12.179 13.513c0 0.60887 0.01149 0.8214-0.37911 0.8214-0.39059 0-0.70078 0.12637-0.70078 0.4825s0.36762 0.52845 0.59738 0.52845 0.68355-0.16083 0.68355-0.64333v-2.1827l1.953-0.45377v1.6716s0.02298 0.20105-0.2355 0.20105-0.82714-0.07468-0.82714 0.47102c0 0.54568 0.55143 0.51122 0.63759 0.51122s0.64334-0.09191 0.64334-0.74099v-3.0673l-2.3837 0.45952z" fill="#ffffff" stroke-width=".13349"/>
</svg>
