<?xml version="1.0" encoding="UTF-8" standalone="no"?>
<!-- Created with Inkscape (http://www.inkscape.org/) -->

<svg
   xmlns:dc="http://purl.org/dc/elements/1.1/"
   xmlns:cc="http://creativecommons.org/ns#"
   xmlns:rdf="http://www.w3.org/1999/02/22-rdf-syntax-ns#"
   xmlns:svg="http://www.w3.org/2000/svg"
   xmlns="http://www.w3.org/2000/svg"
   xmlns:sodipodi="http://sodipodi.sourceforge.net/DTD/sodipodi-0.dtd"
   xmlns:inkscape="http://www.inkscape.org/namespaces/inkscape"
   width="64"
   height="64"
   viewBox="0 0 16.933333 16.933333"
   version="1.1"
   id="svg4572"
   inkscape:version="0.92.2 2405546, 2018-03-11"
   sodipodi:docname="accessories-character-map.svg">
  <title
     id="title4611">Canvas icon theme</title>
  <defs
     id="defs4566" />
  <sodipodi:namedview
     id="base"
     pagecolor="#ffffff"
     bordercolor="#666666"
     borderopacity="1.0"
     inkscape:pageopacity="0.0"
     inkscape:pageshadow="2"
     inkscape:zoom="11.2"
     inkscape:cx="29.893002"
     inkscape:cy="38.558465"
     inkscape:document-units="px"
     inkscape:current-layer="layer1"
     showgrid="true"
     units="px"
     width="64px"
     showguides="true"
     inkscape:guide-bbox="true"
     inkscape:window-width="1920"
     inkscape:window-height="1022"
     inkscape:window-x="0"
     inkscape:window-y="28"
     inkscape:window-maximized="1"
     inkscape:snap-bbox="true"
     inkscape:bbox-nodes="true"
     inkscape:snap-bbox-edge-midpoints="true"
     inkscape:snap-nodes="true"
     inkscape:object-paths="true">
    <inkscape:grid
       type="xygrid"
       id="grid4582" />
    <sodipodi:guide
       position="1.0583333,15.875"
       orientation="0,1"
       id="guide4584"
       inkscape:locked="false" />
    <sodipodi:guide
       position="1.0583333,1.0583333"
       orientation="1,0"
       id="guide4586"
       inkscape:locked="false" />
    <sodipodi:guide
       position="15.875,15.875"
       orientation="1,0"
       id="guide4588"
       inkscape:locked="false" />
    <sodipodi:guide
       position="1.0583333,1.0583333"
       orientation="0,1"
       id="guide4590"
       inkscape:locked="false" />
    <sodipodi:guide
       position="8.4666665,8.4666665"
       orientation="0,1"
       id="guide822"
       inkscape:locked="false" />
    <sodipodi:guide
       position="8.4666665,8.4666665"
       orientation="1,0"
       id="guide824"
       inkscape:locked="false" />
  </sodipodi:namedview>
  <metadata
     id="metadata4569">
    <rdf:RDF>
      <cc:Work
         rdf:about="">
        <dc:format>image/svg+xml</dc:format>
        <dc:type
           rdf:resource="http://purl.org/dc/dcmitype/StillImage" />
        <dc:title>Canvas icon theme</dc:title>
        <cc:license
           rdf:resource="http://creativecommons.org/licenses/by-nc-sa/4.0/" />
        <dc:creator>
          <cc:Agent>
            <dc:title>Vince Liuice</dc:title>
          </cc:Agent>
        </dc:creator>
      </cc:Work>
      <cc:License
         rdf:about="http://creativecommons.org/licenses/by-nc-sa/4.0/">
        <cc:permits
           rdf:resource="http://creativecommons.org/ns#Reproduction" />
        <cc:permits
           rdf:resource="http://creativecommons.org/ns#Distribution" />
        <cc:requires
           rdf:resource="http://creativecommons.org/ns#Notice" />
        <cc:requires
           rdf:resource="http://creativecommons.org/ns#Attribution" />
        <cc:prohibits
           rdf:resource="http://creativecommons.org/ns#CommercialUse" />
        <cc:permits
           rdf:resource="http://creativecommons.org/ns#DerivativeWorks" />
        <cc:requires
           rdf:resource="http://creativecommons.org/ns#ShareAlike" />
      </cc:License>
    </rdf:RDF>
  </metadata>
  <g
     inkscape:label="Layer 1"
     inkscape:groupmode="layer"
     id="layer1"
     transform="translate(0,-280.06667)">
    <rect
       rx="0.5291664"
       ry="0.52916992"
       y="285.09375"
       x="1.8520833"
       height="9.5249996"
       width="9.5249996"
       id="rect826"
       style="opacity:1;fill:#ffffff;fill-opacity:1;stroke:#000000;stroke-width:0.26458333;stroke-miterlimit:4;stroke-dasharray:none;stroke-opacity:0.05882353;paint-order:stroke markers fill" />
    <rect
       style="opacity:1;fill:#ffffff;fill-opacity:1;stroke:none;stroke-width:0.26458333;stroke-miterlimit:4;stroke-dasharray:none;stroke-opacity:0.05882353;paint-order:stroke markers fill"
       id="rect828"
       width="9.5249996"
       height="9.5249996"
       x="1.8520833"
       y="285.09375"
       ry="0.52916992"
       rx="0.5291664" />
    <g
       aria-label="У»Г"
       style="font-style:normal;font-weight:normal;font-size:7.12982464px;line-height:1.25;font-family:sans-serif;letter-spacing:0px;word-spacing:0px;fill:#cccccc;fill-opacity:1;stroke:none;stroke-width:0.1782456"
       id="text836"
       transform="translate(-4.2333333,0.26459044)">
      <g
         aria-label="угд"
         style="font-style:normal;font-weight:normal;font-size:10.58333302px;line-height:1.25;font-family:sans-serif;letter-spacing:0px;word-spacing:0px;fill:#cccccc;fill-opacity:1;stroke:none;stroke-width:0.04716082"
         id="text839">
        <path
           d="m 8.8911023,286.39462 0.5512153,0.16536 -0.1929254,0.46853 h 1.6812068 v 0.52366 H 9.9659721 q 0.2204859,0.30317 0.4409719,0.66146 l -0.5787757,0.33073 Q 9.6076822,288.0207 9.3045138,287.55217 H 8.9737846 l -0.3031684,0.52365 q -0.1653646,0.22049 -0.4409722,0.52366 l -0.4960937,-0.38585 q 0.7992621,-0.79927 1.157552,-1.81901 z m 2.8663197,0 0.523654,0.16536 q -0.08268,0.24805 -0.192925,0.46853 h 1.956814 v 0.52366 h -1.157552 q 0.192925,0.27561 0.35829,0.55121 l -0.496094,0.30317 q -0.220486,-0.44097 -0.496094,-0.85438 h -0.413411 q -0.385851,0.66146 -0.71658,0.99219 l -0.496094,-0.35829 q 0.771702,-0.77171 1.129992,-1.79145 z m -2.480469,2.01193 0.4960937,0.24805 q -0.2480468,0.49609 -0.5512152,0.99219 v 3.14192 H 8.6706162 v -2.39778 q -0.3307291,0.41341 -0.6890191,0.74414 l -0.3307291,-0.4961 q 0.9095052,-0.79926 1.626085,-2.23242 z m 0.6338976,0.85439 h 2.5907114 v -0.68902 h 0.551216 v 0.68902 h 0.964626 v 0.52365 h -0.964626 v 2.25998 q 0,0.41341 -0.165365,0.55122 -0.137804,0.16536 -0.551215,0.16536 -0.496094,0 -0.937066,-0.0827 l -0.110243,-0.55122 q 0.468533,0.11025 0.964626,0.11025 0.248047,0 0.248047,-0.33073 v -2.12218 H 9.9108506 Z m 0.9921874,0.7717 q 0.496094,0.57877 0.826823,1.26779 l -0.551215,0.33073 q -0.275608,-0.66146 -0.799262,-1.26779 z"
           style="font-size:7.05555534px;fill:#cccccc;stroke-width:0.04716082"
           id="path841" />
      </g>
    </g>
    <rect
       style="opacity:1;fill:#498cd8;fill-opacity:1;stroke:none;stroke-width:0.38130516;stroke-miterlimit:4;stroke-dasharray:none;stroke-opacity:0.05882353;paint-order:stroke markers fill"
       id="rect821"
       width="9.5249996"
       height="9.5249996"
       x="6.0854168"
       y="281.91876"
       ry="0.52915776"
       rx="0.5291667" />
    <g
       aria-label="@"
       style="font-style:normal;font-weight:normal;font-size:8.46666622px;line-height:1.25;font-family:sans-serif;letter-spacing:0px;word-spacing:0px;fill:#ffffff;fill-opacity:1;stroke:none;stroke-width:0.26458332"
       id="text835">
      <path
         d="m 11.773958,287.67344 q -0.396875,0.72761 -1.190625,0.72761 -0.5953121,0 -0.9591142,-0.39688 -0.363802,-0.42995 -0.363802,-1.19062 0,-0.8599 0.4630208,-1.35599 0.4960934,-0.52917 1.2898434,-0.52917 0.694531,0 1.289844,0.19844 l -0.09922,1.71979 v 0.26458 0.0331 q 0,0.3638 0.09922,0.56223 0.132292,0.16537 0.396875,0.16537 0.297656,0 0.529167,-0.39688 0.23151,-0.39687 0.23151,-1.19062 0,-1.12448 -0.661458,-1.78594 -0.628386,-0.66146 -1.686719,-0.66146 -1.3229166,0 -2.1166665,0.82683 -0.7606771,0.82682 -0.7606771,2.24895 0,1.25678 0.6614583,1.95131 0.6614583,0.66145 1.8520833,0.66145 0.892969,0 1.785937,-0.3638 v 0.56224 q -0.760677,0.3638 -1.785937,0.3638 -1.4552083,0 -2.2820312,-0.82682 -0.8268229,-0.82682 -0.8268229,-2.3151 0,-1.62058 0.9591146,-2.64584 0.9921874,-1.02526 2.5135415,-1.02526 1.322917,0 2.116667,0.82683 0.826822,0.82682 0.826822,2.21588 0,0.95912 -0.429947,1.52136 -0.396875,0.56224 -0.992188,0.56224 -0.694531,0 -0.859896,-0.72761 z m -0.165364,-2.11666 q -0.297656,-0.0992 -0.595313,-0.0992 -0.496093,0 -0.79375,0.3638 -0.2976559,0.3638 -0.2976559,1.02526 0,0.49609 0.1653649,0.76068 0.198437,0.26458 0.595312,0.26458 0.79375,0 0.892969,-1.28984 z"
         style="font-size:8.46666622px;fill:#ffffff;stroke-width:0.26458332"
         id="path844" />
    </g>
  </g>
</svg>
