<svg xmlns="http://www.w3.org/2000/svg" width="64" height="64" viewBox="0 0 16.933 16.933"><rect width="9.525" height="9.525" x="1.587" y="5.821" fill="#f5f5f5" rx="1.587" ry="1.587" style="paint-order:stroke markers fill"/><g aria-label="У»Г"><path fill="#ccc" d="m4.393 7.41.551.165-.193.468h1.681v.524h-.964q.22.303.44.661l-.578.331q-.22-.524-.524-.992h-.33l-.304.523q-.165.22-.44.524l-.497-.386q.8-.799 1.158-1.819zm2.866 0 .524.165q-.083.248-.193.468h1.957v.524H8.39q.193.275.358.551l-.496.303q-.22-.44-.496-.854h-.413q-.386.661-.717.992l-.496-.358q.772-.772 1.13-1.792zM4.78 9.421l.496.248q-.248.496-.552.992v3.142h-.55v-2.397q-.33.413-.69.744l-.33-.496q.91-.8 1.626-2.233m.634.855h2.59v-.69h.551v.69h.965v.523h-.964v2.26q0 .414-.165.551-.138.166-.55.166-.497 0-.938-.083l-.11-.551q.468.11.964.11.248 0 .248-.33v-2.123h-2.59zm.992.771q.496.579.827 1.268l-.552.33q-.275-.66-.799-1.267z" aria-label="угд" font-size="7.056" font-weight="400" letter-spacing="0" word-spacing="0"/></g><rect width="9.525" height="9.525" x="6.35" y="1.058" fill="#498cd8" rx="1.587" ry="1.587" style="paint-order:stroke markers fill"/><path fill="#fff" d="M12.038 6.812q-.397.728-1.19.728-.596 0-.96-.397-.364-.43-.364-1.19 0-.86.463-1.356.497-.53 1.29-.53.695 0 1.29.2l-.1 1.72v.296q0 .364.1.563.132.165.397.165.298 0 .53-.397.23-.397.23-1.19 0-1.125-.66-1.787-.63-.66-1.688-.66-1.322 0-2.116.826-.76.827-.76 2.25 0 1.256.66 1.95.662.662 1.853.662.893 0 1.786-.364v.562q-.761.364-1.786.364-1.456 0-2.282-.827t-.827-2.315q0-1.62.959-2.646.992-1.025 2.513-1.025 1.323 0 2.117.827.827.826.827 2.215 0 .96-.43 1.522-.397.562-.992.562-.695 0-.86-.728m-.165-2.116q-.298-.1-.596-.1-.496 0-.793.364t-.298 1.026q0 .496.165.76.199.265.596.265.793 0 .893-1.29z" aria-label="@" font-size="8.467" font-weight="400" letter-spacing="0" word-spacing="0"/></svg>