<svg width="64" height="64" version="1.1" viewBox="0 0 64 64" xmlns="http://www.w3.org/2000/svg">
 <rect x="6" y="6" width="52" height="52" rx="8" ry="8" fill="#ececec" fill-rule="evenodd" stroke-linecap="round" stroke-linejoin="round" stroke-width=".99227"/>
 <rect x="13.8" y="29.2" width="36.4" height="5.6" rx="1.4" fill="#517cb3" stroke-width="1.4"/>
 <path d="m18 22.2c-0.7756 0-1.4 0.6244-1.4 1.4v16.8c0 0.7756 0.6244 1.4 1.4 1.4s1.4-0.6244 1.4-1.4l1.4-8.4-1.4-8.4c0-0.7756-0.6244-1.4-1.4-1.4zm28 0c-0.7756 0-1.4 0.6244-1.4 1.4l-1.4 8.4 1.4 8.4c0 0.7756 0.6244 1.4 1.4 1.4s1.4-0.6244 1.4-1.4v-16.8c0-0.7756-0.6244-1.4-1.4-1.4z" fill="#e04c4c" stroke-width="1.4"/>
 <rect x="19.4" y="18" width="5.6" height="28" rx="2.1" fill="#e25454" stroke-width="1.4"/>
 <rect transform="scale(-1,1)" x="-44.6" y="18" width="5.6" height="28" rx="2.1" fill="#e25454" stroke-width="1.4"/>
</svg>
