<svg xmlns="http://www.w3.org/2000/svg" width="64" height="64"><rect width="52" height="52" x="6" y="6" fill="#ececec" fill-rule="evenodd" rx="8" ry="8"/><rect width="36.4" height="5.6" x="13.8" y="29.2" fill="#517cb3" rx="1.4"/><path fill="#e04c4c" d="M18 22.2c-.776 0-1.4.624-1.4 1.4v16.8c0 .776.624 1.4 1.4 1.4s1.4-.624 1.4-1.4l1.4-8.4-1.4-8.4c0-.776-.624-1.4-1.4-1.4m28 0c-.776 0-1.4.624-1.4 1.4L43.2 32l1.4 8.4c0 .776.624 1.4 1.4 1.4s1.4-.624 1.4-1.4V23.6c0-.776-.624-1.4-1.4-1.4"/><rect width="5.6" height="28" x="19.4" y="18" fill="#e25454" rx="2.1"/><rect width="5.6" height="28" x="-44.6" y="18" fill="#e25454" rx="2.1" transform="scale(-1 1)"/></svg>