<svg xmlns="http://www.w3.org/2000/svg" width="64" height="64"><rect width="46" height="54" x="9" y="5" fill="#3d4144" fill-rule="evenodd" rx="5" ry="5" style="paint-order:fill markers stroke"/><path fill="#24a9f7" d="M17 5v23.996l4.002-4.002L25 28.992V4.996z"/><path fill="#282a2c" d="M14 5c-2.77 0-5 2.23-5 5v44c0 2.77 2.23 5 5 5h1V5z" style="paint-order:fill markers stroke"/><path fill="#d52337" d="M48.723 24.006c.459.028.953 0 1.494.375 4.831 2.079 1.591 7.782-4.567 12.12-.037-.818-.377-2.599-.369-3.383 5.254-3.602 8.327-7.108 4.979-8.498-3.53-1.465-4.626 2.535-4.688 8.342-.329.341-2.607 1.854-2.953 2.093.128-5.295 2.943-10.7 5.648-11.01.145-.028.303-.028.456-.028m-4.918 9.213 1.099-.428.911.614.184 1.932-1.151.883-.478.641c-3.544 2.351-6.563 4.162-10.536 5.658l-2.477.368h-1.63c-1.503-.886-.607-1.227-6.067-1.908l6.153.477c4.746-1.84 9.59-4.483 13.996-7.366m-10.83 7.708c-.712 0-6.264-.482-8.473-.686-2.186-.341-4.871-.443-4.363 2.113-.578-1.363.74-3.677 2.614-4.085 2.898-.648 7.496 1.128 9.149 1.673m-2.664.708c.862.341 2.831.587 3.761.894-1.318.682-7.938 3.126-10.671 2.614-.437 0-2.282-1.327-2.327-2.282.142 1.738 8.234.443 9.237-1.261m-1.8.031c.709-.341 4.03-.324 4.762-.596 4.158 1.455 9.752 4.87 13.755 7.173l1.16.341c.224 1.591 1.204 2.139 2.098 3.169l-1.355 1.363-1.06-1.738c-4.687-2.828-13.952-7.398-19.356-9.592m19.356 9.592q.86.512 1.639 1.022c1.202 3.411 2.603 5.708 3.941 5.609-2.067.988-6.519-3.881-8.02-8.461m8.02 8.461c3.153-1.874-3.521-5.29-5.02-6.281-.337-.954.585-2.535.284-3.66 4.707 2.931 7.489 7.17 5.91 9.181-.38.477-.783.716-1.182.75m-4.58-7.14c-.219-.878-3.126-2.876-3.651-3.183-.703-5.537-.737-6.084-1.334-10.388.357-.341 2.556-2.055 2.896-2.293.422 4.6 1.216 10.834 2.339 14.998"/></svg>