<svg xmlns="http://www.w3.org/2000/svg" width="64" height="64" viewBox="0 0 16.933 16.933"><g transform="translate(0 -280.07)"><rect width="4.233" height="4.498" x="10.583" y="282.71" fill="#5ad85d" ry=".312"/><rect width="4.233" height="4.498" x="10.583" y="286.22" fill="#ff584c" ry=".351"/><rect width="4.233" height="4.233" x="10.583" y="289.86" fill="#ffce3d" ry=".331"/><rect width="12.171" height="13.758" x="2.117" y="-295.41" fill="#387fe7" rx="1.317" ry="1.317" transform="scale(1 -1)"/><path fill="#fff" d="M9.478 289.74a1.587 1.587 0 0 1-1.276.645 1.587 1.587 0 0 1-1.275-.644 3.704 2.381 0 0 0-2.43 2.232h7.41a3.704 2.381 0 0 0-2.429-2.234z" paint-order="stroke markers fill"/><g fill="#fff" paint-order="stroke markers fill" transform="translate(0 1.588)"><circle cx="8.202" cy="284.83" r="1.587"/><path d="M6.615 284.83a1.587 2.646 0 0 0 1.587 2.645 1.587 2.646 0 0 0 1.588-2.646z"/></g></g></svg>