<svg xmlns="http://www.w3.org/2000/svg" xmlns:xlink="http://www.w3.org/1999/xlink" width="64" height="64" viewBox="0 0 16.933 16.933"><defs><linearGradient id="a"><stop offset="0"/><stop offset="1" stop-opacity="0"/></linearGradient><linearGradient xlink:href="#a" id="b" x1="40.829" y1="58" x2="40.829" y2="6" gradientUnits="userSpaceOnUse"/></defs><g transform="translate(0 -280.067)"><rect ry=".312" y="282.713" x="10.583" height="4.498" width="4.233" fill="#5ad85d"/><rect width="4.233" height="4.498" x="10.583" y="286.218" ry=".351" fill="#ff584c"/><rect ry=".331" y="289.856" x="10.583" height="4.233" width="4.233" fill="#ffce3d"/><rect width="12.171" height="13.758" x="2.117" y="-295.413" ry=".529" transform="scale(1 -1)" fill="#387fe7"/><path d="M9.478 289.74a1.587 1.587 0 0 1-1.276.645 1.587 1.587 0 0 1-1.275-.644 3.704 2.381 0 0 0-2.43 2.232h7.41a3.704 2.381 0 0 0-2.429-2.234z" fill="#fff" paint-order="stroke markers fill"/><g transform="translate(0 1.588)" fill="#fff" paint-order="stroke markers fill"><circle r="1.587" cy="284.829" cx="8.202"/><path d="M6.615 284.83a1.587 2.646 0 0 0 1.587 2.645 1.587 2.646 0 0 0 1.588-2.646z"/></g><path d="M51.07 6a28.226 39.25 20.203 0 1-5.42 33.514A28.226 39.25 20.203 0 1 27.658 58H52c1.108 0 2-.892 2-2V8c0-1.108-.892-2-2-2h-.93z" transform="matrix(.26458 0 0 .26458 0 280.067)" fill="url(#b)" opacity=".25"/></g></svg>