<svg xmlns="http://www.w3.org/2000/svg" width="64" height="64" viewBox="0 0 16.933 16.933"><path fill="#f2f2f2" fill-rule="evenodd" d="M13 4c-2.77 0-5 2.23-5 5v46c0 2.77 2.23 5 5 5h38c2.77 0 5-2.23 5-5V16L44 4H13z" style="paint-order:stroke fill markers" transform="scale(.26458)"/><path fill="#ccc" fill-rule="evenodd" d="m14.816 4.233-3.175-3.175V2.91c0 .733.59 1.323 1.323 1.323z" style="paint-order:stroke fill markers"/><g transform="matrix(1.25 0 0 1.25 -2.065 -2.567)"><path fill="#e46d6d" d="M12.151 10.747c-1.027-1.11-2.302-1.92-3.73-1.92-1.43 0-2.784.929-3.726 1.92-.107.124-.107.27 0 .395 1.02 1.092 2.272 1.918 3.725 1.918 1.453 0 2.797-.922 3.737-1.918.106-.125.106-.271 0-.395"/><circle cx="8.42" cy="10.944" r="1.693" fill="#50b4ec"/><circle cx="8.42" cy="10.944" r=".847" fill="#525252"/></g></svg>