<svg xmlns="http://www.w3.org/2000/svg" width="64" height="64"><rect width="52" height="52" x="6" y="6" fill="#eb6c37" fill-rule="evenodd" rx="8" ry="8" style="paint-order:stroke fill markers"/><path fill="#fff" d="M32 9C19.258 9 9 19.258 9 32s10.258 23 23 23 23-10.258 23-23S44.742 9 32 9m0 4c10.526 0 19 8.474 19 19s-8.474 19-19 19-19-8.474-19-19 8.474-19 19-19"/><rect width="4" height="30" x="30" y="17" fill="#fff" fill-rule="evenodd" rx="2" ry="2" style="paint-order:stroke fill markers"/><rect width="4" height="30" x="43.255" y="-15" fill="#fff" fill-rule="evenodd" rx="2" ry="2" style="paint-order:stroke fill markers" transform="rotate(45)"/><rect width="4" height="30" x="30" y="-47" fill="#fff" fill-rule="evenodd" rx="2" ry="2" style="paint-order:stroke fill markers" transform="rotate(90)"/><rect width="4" height="30" x="-2" y="-60.255" fill="#fff" fill-rule="evenodd" rx="2" ry="2" style="paint-order:stroke fill markers" transform="rotate(135)"/></svg>