<svg width="64" height="64" enable-background="new 0 0 1024 1024" image-rendering="optimizeSpeed" version="1.1" xmlns="http://www.w3.org/2000/svg">
 <rect x="6.0001" y="6.0001" width="52" height="52" rx="7.9999" ry="7.9999" fill="#f2f2f2" stroke-linecap="round" stroke-linejoin="round" stroke-width="1.0196"/>
 <rect x="16.187" y="21.556" width="33.517" height="20.667" rx="0" ry="0" fill="#fff" stroke-linecap="round" stroke-width="2.7124"/>
 <path d="m25.234 48.369c-4.9944-0.96546-9.5653-1.8476-10.157-1.9602l-1.0767-0.20486 0.1721-28.532 9.2459-1.7005c5.0853-0.93528 9.8725-1.7981 10.638-1.9173l1.3924-0.21678 0.18708 7.4669 14.364 0.17798v21.108l-14.364 0.17798-0.09337 3.7149c-0.08222 3.2716-0.16104 3.7105-0.66042 3.6782-0.31188-0.02016-4.6534-0.82656-9.6479-1.792zm24.105-16.34v-10.021l-6.8519-0.03112-6.8519-0.0126-0.10273 1.4278c-0.11206 1.5574 0.33314 2.3696 1.2989 2.3696 0.92768 0 0.78084 1.2819-0.27281 2.3817-0.73447 0.76662-0.91649 1.3039-1.0264 3.0298-0.09501 1.492 0.02325 2.4285 0.40944 3.2423 0.62072 1.3081 2.6141 2.577 4.0313 2.5661 0.91225-7e-3 2.9787-0.85818 4.1566-1.7122 0.48804-0.35382 0.75891-0.2275 1.8987 0.88549 1.5018 1.4665 1.4868 1.4234 0.80986 2.3193-0.49637 0.65688-0.50449 0.65644-1.8134-0.09686-1.1591-0.66708-1.4202-0.70612-2.2049-0.32962-0.66726 0.32016-0.95952 0.7784-1.1674 1.8305-0.26172 1.3243-0.34116 1.4034-1.4098 1.4034-1.0679 0-1.1446-0.07612-1.3459-1.3354-0.16387-1.0248-0.4343-1.4496-1.1626-1.8262-1.5516-0.80237-2.264-0.18489-2.264 1.9624 0 0.96223 0.09906 1.8486 0.22014 1.9696 0.12108 0.12108 3.3068 0.07056 6.9992 0.01644l6.6495-0.09747zm-10.69 1.4835c-0.11401-0.2971-0.20729-2.58-0.20729-5.073 0-3.4307 0.11573-4.6887 0.47598-5.1738 0.38021-0.51202 0.59613-0.56775 1.0732-0.27698 0.43916 0.26767 0.64091 0.91248 0.76232 2.4364l0.16511 2.0724 2.1035-2.3704c2.1105-2.3783 2.7838-2.6887 3.4696-1.5997 0.30114 0.4782 0.04095 0.89548-1.579 2.5326l-1.9396 1.96 2.1823 2.5022c2.2413 2.5699 2.5151 3.4947 1.0345 3.4947-0.53761 0-1.4404-0.75043-3.0191-2.5097l-2.2522-2.5097-0.16511 2.4271c-0.15811 2.3243-0.2018 2.4314-1.031 2.5275-0.56423 0.06544-0.93811-0.08778-1.0732-0.43977zm-10.444 4.5005v-1.2873l-4.623-0.46427v-3.8955h3.9625v-2.2787l-3.9625-0.44831v-3.4694l4.9532-0.46415v-2.3401l-3.7149 0.2352c-2.0432 0.12936-3.8294 0.34468-3.9693 0.4785s-0.21422 3.4276-0.16511 7.3196l0.08929 7.0763 2.8068 0.3681c4.7819 0.62713 4.623 0.65567 4.623-0.8299z" fill="#4d4d4d" stroke-width=".66042"/>
</svg>
