<svg width="64" height="64" version="1.1" viewBox="0 0 16.933 16.933" xmlns="http://www.w3.org/2000/svg">
 <defs>
  <linearGradient id="a" x1="47" x2="59.998" y1="41" y2="53.978" gradientTransform="translate(-.004 .27) scale(.26458)" gradientUnits="userSpaceOnUse">
   <stop offset="0"/>
   <stop stop-color="#242424" stop-opacity="0" offset="1"/>
  </linearGradient>
 </defs>
 <rect x="1.058" y="2.381" width="14.816" height="12.171" rx="1.372" ry="1.323" fill="#ececec"/>
 <rect x="5.292" y="8.99" width="4.233" height=".529" ry=".265" fill="#666" paint-order="stroke markers fill"/>
 <path d="M3.973 4.19a.264.264 0 0 0-.262.13.264.264 0 0 0 .097.362l2.842 1.64-2.842 1.641a.264.264 0 0 0-.097.362c.074.127.235.17.362.097L7.28 6.57a.26.26 0 0 0 .127-.225c.002-.008.001-.015.002-.022 0-.008 0-.015-.002-.023a.26.26 0 0 0-.127-.224L4.073 4.223a.266.266 0 0 0-.1-.033z" fill="#666" paint-order="stroke markers fill"/>
 <path d="M15.872 9.215l-5.337 5.337h4.767c.316 0 .57-.238.57-.535V9.215z" fill="url(#a)" opacity=".08"/>
</svg>
