<svg width="64" height="64" version="1.1" xmlns="http://www.w3.org/2000/svg">
 <g transform="matrix(1.35 0 0 1.35 -.40001 -.39468)" stroke-linejoin="round" stroke-width="4.4444">
  <path d="m11 4c-1.662 0-3 1.338-3 3v22.08a8 8 0 0 0-4 6.916 8 8 0 0 0 8 8 8 8 0 0 0 6.9199-4h22.08c1.662 0 3-1.338 3-3v-30c0-1.662-1.338-3-3-3z" fill="#f2793f"/>
  <path d="m12 16v4c8.837 0 16 7.163 16 16h4c0-11.05-8.954-20-20-20m0 8v4c4.418 0 8 3.582 8 8h4c0-6.627-5.373-12-12-12m0 8c-2.209 0-4 1.791-4 4s1.791 4 4 4 4-1.791 4-4-1.791-4-4-4" fill="#fff"/>
 </g>
</svg>
