<svg xmlns="http://www.w3.org/2000/svg" width="64" height="64"><g stroke-linejoin="round" stroke-width="4.444"><path fill="#f2793f" d="M14.45 5.005a4.04 4.04 0 0 0-4.05 4.05v29.808A10.8 10.8 0 0 0 5 48.2 10.8 10.8 0 0 0 15.8 59a10.8 10.8 0 0 0 9.342-5.4H54.95A4.04 4.04 0 0 0 59 49.55V9.05A4.04 4.04 0 0 0 54.95 5z"/><path fill="#fff" d="M15.8 21.205v5.4c11.93 0 21.6 9.67 21.6 21.6h5.4c0-14.917-12.088-27-27-27m0 10.8v5.4c5.964 0 10.8 4.836 10.8 10.8H32c0-8.946-7.254-16.2-16.2-16.2m0 10.8a5.4 5.4 0 1 0 0 10.8 5.4 5.4 0 0 0 0-10.8"/></g></svg>