<svg width="64" height="64" version="1.1" viewBox="0 0 16.933 16.933" xmlns="http://www.w3.org/2000/svg">
 <g>
  <circle cx="8.4665" cy="8.46" r="7.1436" fill="#5f5f5f" style="paint-order:stroke markers fill"/>
  <circle cx="8.4665" cy="8.46" r="6.0853" fill="#fff" opacity=".1" style="paint-order:stroke markers fill"/>
  <path d="m7.6342 6.0254c-1.075-0.00122-1.8606 0.82312-2.3628 1.7833-0.65459 1.2512-1.3452 3.1004-0.01252 3.1004 1.4026 0 2.568-0.77854 3.392-1.3669 0.2989 0.54498 0.73397 1.3669 1.3418 1.3669 0.60787 0 1.162-0.23936 1.4328-0.45247l1.0097-1.4063-0.1093-0.12579c-1.278 0.63321-1.714 1.0686-2.4321-0.29798l0.90647-0.8335 1.3312-1.6478-0.098005-0.12151-2.3952 2.0975c-0.38774-0.80266-1.1843-2.095-2.005-2.096m-0.8967 1.0368c0.76114 0 1.2075 1.1211 1.6554 1.9518-0.66039 0.37553-1.5232 0.83869-2.1555 0.70924-0.74954-0.15357-0.94036-0.93761-0.6384-1.5266 0.26776-0.552 0.59627-1.1339 1.1376-1.1339" fill="#c5f533"/>
 </g>
</svg>
