<svg xmlns="http://www.w3.org/2000/svg" width="64" height="64"><g stroke-width=".714"><path fill="#5ee05e" d="M9.6 25.67C9.6 40.078 21.495 60 32 60c9.89 0 22.4-19.925 22.4-34.33C54.4 11.266 44.371 4 32 4 19.629 4 9.6 11.264 9.6 25.67z"/><path fill="#2c3135" d="M38.135 35.335a11.378 11.378 0 0 1 10.418-3.088c.77 3.643-.259 7.59-3.088 10.418a11.378 11.378 0 0 1-10.418 3.088c-.77-3.643.26-7.59 3.088-10.418zM15.446 32.438c3.643-.759 7.59.256 10.418 3.045a11.117 11.117 0 0 1 3.088 10.273c-3.642.76-7.59-.255-10.418-3.044a11.117 11.117 0 0 1-3.088-10.274z"/></g></svg>