<svg id="SimpleNote" width="64" height="64" enable-background="new 0 0 1024 1024" image-rendering="optimizeSpeed" version="1.1" viewBox="0 0 64 64" xmlns="http://www.w3.org/2000/svg" xmlns:xlink="http://www.w3.org/1999/xlink">
 <circle cx="32" cy="32" r="27" fill="#ffe6d5" stroke-linecap="square" stroke-width="2.025" style="paint-order:stroke fill markers"/>
 <g transform="translate(.7229 .72362)" stroke-width="1.4483">
  <path d="m44.312 38.518c0 8.6898-5.7932 13.035-13.035 13.035s-13.035-4.3449-13.035-13.035c0-10.138 6.9925-27.518 13.035-27.518s13.035 17.38 13.035 27.518z" fill="#c4762f" style="paint-order:normal"/>
  <path d="m31.277 12.447c-5.1142 0-11.586 15.931-11.586 26.069 0 7.2415 4.5939 11.586 11.586 11.586 2.338 0 4.3989-0.49425 6.1185-1.4115 2.2744-3.453 4.0196-7.364 4.0196-11.623 0.83089 1.8868 0.43222 5.0896-0.44693 8.3984 1.2201-1.8408 1.8952-4.1818 1.8952-6.9501 0-10.138-6.4722-26.069-11.586-26.069zm-2.1724 2.8966s-0.72415 4.9717-0.72415 7.2415c0 2.9366 1.4483 7.2415 1.4483 8.6898 0 2.1497-2.1724 5.7932-2.1724 5.7932s0.72415-2.5571 0.72415-5.7932c0-1.4483-1.4483-5.2275-1.4483-8.6898 0-2.4617 2.1724-7.2415 2.1724-7.2415zm5.069 0s4.3449 6.2055 4.3449 13.035c0 2.8966-0.5189 5.2037-1.4483 7.2415v-7.2415c0-5.2501-1.4483-8.6898-2.8966-13.035zm-10.138 8.6898v4.3449c0 2.8966-0.42438 5.4696-1.4483 8.6898v-5.7932c0-2.4617 1.4483-7.2415 1.4483-7.2415z" fill="#f1c852" style="paint-order:normal"/>
  <path d="m24.76 39.965c-1.1998 0-2.1724 1.2969-2.1724 2.8966 0.78812-1.4473 1.571-1.4483 2.1724-1.4483s1.3412 9.7e-4 2.1724 1.4483c0-1.5998-0.97264-2.8966-2.1724-2.8966zm11.586 0c-1.1998 0-2.1724 1.2969-2.1724 2.8966 0.78812-1.4473 1.571-1.4483 2.1724-1.4483s1.3412 9.7e-4 2.1724 1.4483c0-1.5998-0.97264-2.8966-2.1724-2.8966zm-7.2415 4.3449a0.72415 0.72415 0 0 0-0.72415 0.72415c0 1.2035 0.96891 2.1724 2.1724 2.1724 1.2035 0 2.1724-0.96891 2.1724-2.1724a0.72415 0.72415 0 0 0-0.72415-0.72415 0.72415 0.72415 0 0 0-0.72415 0.72415c0 0.40118-0.32297 0.72415-0.72415 0.72415s-0.72415-0.32297-0.72415-0.72415a0.72415 0.72415 0 0 0-0.72415-0.72415z" fill="#403b3c" style="paint-order:normal"/>
 </g>
</svg>
