<svg width="64" height="64" version="1.1" viewBox="0 0 16.933 16.933" xmlns="http://www.w3.org/2000/svg">
 <g transform="translate(0 -280.07)">
  <rect transform="matrix(0,-1,-1,0,0,0)" x="-294.88" y="-14.816" width="12.7" height="12.7" rx="6.3494" ry="6.3494" fill="#fff"/>
  <g transform="translate(-.26409 .26408)">
   <path d="m8.7311 281.13a7.1275 7.1275 0 0 0-7.1441 7.1441 7.1275 7.1275 0 0 0 7.1441 7.1431 7.1275 7.1275 0 0 0 7.1431-7.1441 7.1275 7.1275 0 0 0-7.1441-7.1431zm0 1.0996a6.031 6.031 0 0 1 6.0434 6.0434 6.0299 6.0299 0 0 1-4.6468 5.8825c0.01558-0.24817 0.02492-0.56904 0.05607-0.84732 0.03115-0.27829 0.14434-2.6178 0.54723-3.2377 0.40289-0.61992 1.5503-1.3624 1.9522-1.4392 0.40393-0.0779 0.3354-0.23883 0.3354-0.37902 0-0.14122-0.07061-0.4465-0.1786-0.49219-0.10903-0.0457-0.52958 0.22637-0.6708 0.25648-0.13914 0.0311-0.80787 0.0883-0.9034-0.0675-0.09242-0.15575 0.74972-1.7341 0.86186-1.9189a0.59396 0.59396 0 0 0-0.04673-0.70402c-0.20041-0.26168-0.3354-0.52439-0.41224-0.52439-0.2544 0-0.75179 0.58773-0.93766 0.68118-0.18691 0.0935-1.6573 1.1422-1.7964 1.3271a0.56904 0.56904 0 0 1-0.52439 0.24506c-0.20145-0.0145-0.84629-0.0218-1.0602 0.0997-0.21806 0.1246-1.2149 1.137-1.4641 1.2627-0.24921 0.12357-0.57215 0.19729-0.72791 0.21391-0.15576 0.0145-0.66353 0.58149-0.80267 0.69156-0.13707 0.10903-1.2378 0.58669-1.3935 0.68118-0.15576 0.0935 1.1318 1.3977 1.3156 1.4288 0.1433 0.0228-0.014537 0.44235-0.25856 0.63341a6.0247 6.0247 0 0 1-1.3323-3.7932 6.031 6.031 0 0 1 6.0434-6.0434zm-0.25648 5.4827c0.06438 5e-3 0.10384 0.0125 0.10384 0.0125 0.071649 0.16511-0.26064 0.67703-0.568 0.74868-0.30632 0.0706-1.0145 1.1183-1.0373 0.88159-0.023883-0.23675 0.28036-1.0197 0.63549-1.3728a1.0041 1.0041 0 0 1 0.61473-0.26686h-0.00208c0.099685-0.0104 0.18899-8e-3 0.25337-3e-3z" fill="#5771bf"/>
  </g>
 </g>
</svg>
