<svg xmlns="http://www.w3.org/2000/svg" width="64" height="64"><path fill="#f2f2f2" d="M25.482 58.874c-.912-.217-1.675-.722-2.743-1.818-1.783-1.829-3.23-2.591-5.746-3.024-2.61-.449-3.77-1.42-4.467-3.736-.86-2.86-1.76-4.23-3.737-5.69-2.242-1.656-2.817-3.116-2.27-5.762.507-2.451.313-4.194-.716-6.435-1.229-2.673-1.077-4.102.667-6.292 1.6-2.008 2.102-3.335 2.341-6.19.242-2.88 1.043-4.061 3.403-5.018 1.97-.798 3.655-2.183 4.589-3.773 1.08-1.838 1.238-2.048 1.907-2.548 1.08-.806 1.953-1.029 3.616-.925 2.89.181 4.438-.165 6.378-1.428 2.53-1.647 4.063-1.647 6.593 0 1.94 1.263 3.488 1.61 6.377 1.428 2.732-.171 3.869.546 5.534 3.492.825 1.46 2.512 2.88 4.359 3.67 2.629 1.125 3.393 2.152 3.587 4.821.21 2.89.803 4.507 2.373 6.471 1.748 2.186 1.9 3.616.671 6.292-1.029 2.24-1.223 3.984-.717 6.435.548 2.646-.028 4.107-2.27 5.763-1.976 1.46-2.875 2.83-3.736 5.69-.697 2.316-1.857 3.286-4.467 3.735-2.521.434-3.97 1.198-5.747 3.03-1.969 2.032-3.38 2.367-6.134 1.457-2.252-.745-3.986-.748-6.229-.012-1.571.516-2.408.606-3.416.367"/><path fill="#3ddc84" d="M41.68 29.71a.697.697 0 1 1 1.255-.61.697.697 0 1 1-1.256.61zm3.375 6.94a.697.697 0 1 1 1.257-.611.697.697 0 1 1-1.257.61zm.295-9.005c-2.22-1.586-5.118-1.995-7.8-.958l7.332 15.077a8.24 8.24 0 0 0 4.06-6.728l2.782.198a.29.29 0 0 0 .31-.27.29.29 0 0 0-.271-.31l-2.818-.2a8.6 8.6 0 0 0-.878-3.564A8.6 8.6 0 0 0 45.808 28l1.582-2.343a.29.29 0 0 0-.478-.326l-1.562 2.31"/><path fill="#4285f4" d="M38.59 33.322a15.1 15.1 0 0 1-6.61 1.506 15.21 15.21 0 0 1-12.73-6.871.694.694 0 0 0-.993-.177l-2.661 1.96a.7.7 0 0 0-.16.958 19.9 19.9 0 0 0 16.545 8.82c3.03 0 5.94-.662 8.65-1.97zm-6.633-16.68h1.44V13.46a1.44 1.44 0 0 0-2.88 0v3.182z"/><path fill="#4285f4" d="m28.21 22.853-9.9 20.375c-.216.441-.33.92-.34 1.41l-.06 2.667a.807.807 0 0 0 1.319.642l2.06-1.693a3.4 3.4 0 0 0 .9-1.138l9.757-20.087-3.734-2.172zm17.737 21.781a3.4 3.4 0 0 0-.34-1.409l-9.9-20.375-3.733 2.179 9.757 20.08c.215.44.52.826.899 1.138l2.06 1.694a.806.806 0 0 0 1.32-.642l-.06-2.669z"/><path fill="#073042" d="M31.956 16.389c-2.383 0-4.32 1.94-4.32 4.32s1.94 4.32 4.32 4.32 4.32-1.94 4.32-4.32-1.94-4.32-4.32-4.32m0 6.696a2.38 2.38 0 0 1-2.377-2.377 2.378 2.378 0 0 1 4.754 0 2.38 2.38 0 0 1-2.377 2.377"/></svg>