<svg xmlns="http://www.w3.org/2000/svg" width="64" height="64"><rect width="36" height="53" x="14" y="4" fill="#dce1e4" rx="5" ry="5"/><rect width="11" height="9" x="18" y="14" fill="#202224" rx="1" ry="1"/><path fill="#fdbc4a" d="M21 14h5v9h-5z"/><path fill="#84b938" d="M19.228 26.425c-.18.022-.36.081-.528.178a1.395 1.395 0 0 0-.511 1.911l4.602 7.97C9.609 41.932 9.6 58.829 9.6 60.002h44.8c0-1.173-.008-18.068-13.188-23.516l4.602-7.97c.388-.673.157-1.525-.514-1.912s-1.524-.16-1.912.511l-4.894 8.477c-1.927-.498-4.072-.79-6.494-.79s-4.568.292-6.495.79l-4.891-8.477a1.4 1.4 0 0 0-1.387-.689z"/><rect width="28" height="2" x="18" y="55" fill="#fff" rx="1" ry="1"/><circle cx="24" cy="48" r="3" fill="#fff"/><rect width="11" height="9" x="35" y="14" fill="#202224" rx="1" ry="1"/><path fill="#fdbc4a" d="M38 14h5v9h-5z"/><circle cx="40" cy="48" r="3" fill="#fff"/></svg>