<svg width="64" height="64" version="1.1" viewBox="0 0 64 64" xmlns="http://www.w3.org/2000/svg">
 <g transform="matrix(1.1739 0 0 1.1739 3.8261 -14.957)">
  <g transform="translate(0,16)">
   <path d="m24 1c12.703 0 23 10.297 23 23s-10.297 23-23 23-23-10.297-23-23 10.297-23 23-23z" fill="#393939"/>
  </g>
  <g transform="translate(0,16)">
   <g transform="translate(1,1)">
    <g opacity=".1"></g>
   </g>
  </g>
  <g transform="translate(0,16)">
   <g fill="#78cfff">
    <path d="m32.02 12.02c-0.652 0.18-1.746 1.621-2.301 1.727-0.637 0.121-2.535-1.133-2.977-0.668-0.438 0.469 0.953 2.305 0.875 2.941-0.082 0.633-1.898 2.066-1.586 2.625 0.313 0.555 2.508-0.191 3.09 0.078 0.586 0.27 1.391 2.391 2.023 2.27 0.633-0.121 0.59-2.391 1.031-2.859 0.441-0.465 2.738-0.578 2.816-1.215 0.078-0.633-2.105-1.281-2.422-1.84-0.313-0.559 0.27-2.789-0.316-3.059-0.07-0.031-0.145-0.023-0.238 0"/>
    <path d="m21.07 20c-1.27 0.176-1.438 4.789-2.363 5.68-0.926 0.891-5.469 0.852-5.695 2.121-0.227 1.266 4.04 2.863 4.602 4.03 0.559 1.16-0.879 5.496 0.25 6.102 1.133 0.609 3.965-3 5.234-3.176 1.27-0.176 4.941 2.543 5.863 1.652 0.93-0.891-1.617-4.707-1.391-5.977 0.227-1.273 3.934-3.926 3.375-5.082-0.559-1.16-4.945 0.098-6.074-0.512-1.133-0.609-2.527-5.01-3.801-4.828"/>
   </g>
  </g>
 </g>
</svg>
