<svg xmlns="http://www.w3.org/2000/svg" width="64" height="64" version="1"><rect width="52" height="52" x="6" y="6" fill="#3771c8" rx="8" ry="8" style="paint-order:stroke fill markers"/><path fill="#ececec" d="M31.686 53h-2.987l.467-1.218.466-1.219.034-2.91.032-2.908-.411-.63-.41-.63h-.941l-.628.327-.626.327-.555.594-.556.594-1.08 1.755-.006-.235-.009-.236.457-.85.456-.852-.514-.074-.514-.073 2.04-.979 2.04-.98-.339-.645-.336-.645-1.436-1.972h-.89l-.747.63-.746.627-.545 1.17-.545 1.169-.01-.347-.01-.349-.345.456-.344.455-.393 1.245-.391 1.244-.373.2-.373.2.56-1.134.56-1.133-.086-.261-.088-.261-.68.535-.68.534.178-.286.176-.285h-.289l-.507.27-.507.27.597-.723.767-.145.766-.143.944-1.038.27-.522.269-.521h-1.42l-1.095.977-1.098.975.58-.653v-.383l-1.31.676-.282.34-.281.339-.94-.245.914-.408.913-.41.317-.514-.606-.046.695-.198.696-.201 3.437-.919.72-.72-.221-.203-.223-.203-1.144-.379-1.142-.379h-.989l-1.69 1.192-1.69 1.19.596-.956.566-.257.564-.257-.146-.146-.144-.145.726-.442.726-.44-.205-.196-.205-.193-1.11-.37-1.111-.372h-.89l-.58-.58-.58-.58h.165l1.24.578 1.242.578.453.002.453.002-.917-.979-.917-.98 2.642 2.426.536.2.534.202 1.625-.206 1.624-.207.554-.123.554-.125-.657-.686-.657-.685-2.255-1.159-2.256-1.159H17.05l.059-.264.058-.265-1.254-.443-1.254-.443-1.515-.142-1.514-.141 1.085-.401.718.216.717.217.639.141.637.143v-.516l-.522-.693-.522-.693-.573-.62-.573-.62-.047-.31-.048-.312-.402-.443-.4-.443h.482l.816 1.276 1.298 1.603 1.3 1.603 1.163.54 1.16.542.45.002.45.002-1.467-1.478-1.466-1.477.031-.147.03-.147h.233l-.016.117 1.69 1.779 1.69 1.777 1.098.47 1.1.469.778.595.781.594h.536v-.292l-.482-.781-.483-.78-.387-.227-.388-.226.442-.007.442-.006-.443-.496-.441-.496-1.822-1.477-1.821-1.476-1.462-.032-.928-.436.811.114.813.114.578-.366-1.623-1.574v-.606l-1.16-.832-1.16-.834v-.215l.516.362.516.361h.433l-.653-.84.58.597.58.594.777.927.777.926-.148-.58-.147-.58.599 1.203.6 1.203 2.859 2.646.082-.245.081-.246-.622-1.236-.624-1.236-.872-.954-.873-.952-.27-.556-.272-.555.42.513.419.514.381.53.383.53.157-.15.156-.154-.39-.776-.389-.775-1.542-1.612-1.541-1.61.383.286.384.286.242-.495-.059.293-.058.293 1.196 1.256.294.07.295.073 2.605 2.506 2.607 2.506.53.367.528.368.201-.2-.89-1.341-.89-1.34-.676-.621-.678-.621.23.173.23.175h.37v-.52l-3.828-3.932-1.973-1.161v-.174l.407.15.406.148-1.102-1.19-1.103-1.191v-.31l2.304 2.408 2.305 2.406.71.42.714.42v-.42l-.001-.42-.43-.704-.43-.705-2.65-2.861-.932-.296.268-.268-.4-.483-.4-.484.33.292.33.289h.393l-.726-1.102-.725-1.103 1.198 1.304.19-.118.19-.117.85 1.452.85 1.452.62.566.622.566-.12-.348-.12-.348-.818-2.553-.842-.92-.843-.924 1.142.916.408.464.406.464.849 2.553.85 2.554 1.45 3.712.143-.813.144-.811.031.76.03.762.333.796.333.797.536.114.539.114 1.102.215 1.101.213v-.324l-.85-1.027-.852-1.028-1.051-1.1-1.05-1.1-.176.28-.172.282-.194-.684-.271-1.133-.27-1.133.202-.203.152.655.15.654 1.477 1.624 1.477 1.623.292-.291-4.517-6.65-.777-1.843-.777-1.844.077-.233.078-.233.422 1.106.424 1.107.398-.63.004.42.003.422 1.015 2.406.78 1.243.784 1.244.128-.128.13-.128-.376-1.102-.374-1.1-1.042-1.148.289.167.291.168v-.502l-1.137-2.798.122-.318.122-.318-.26-.486-.26-.485.285.06.286.062.627 1.276.63 1.276.76.928-.356-.897-.356-.9.002-.145v-.146l.437.716.436.715.156.71.156.712.972.86 1.786 2.74v-.464l-.43-1.253-.433-1.255-.851-1.688-.85-1.688-.857-.98-.858-.98.588.522.588.52h.52l.156.496.158.494.202-.32.203-.32.014.58.014.58.32.695.318.696.047-.928.047-.928.19 1.277.188 1.275.252.58.253.581-.1-1.45-.1-1.45.21-.13.21-.129v1.883h.456l.159-.63.158-.63-.501-1.402-.503-1.399.033-.928.198.464.2.464.053-.58.053-.58-.038-.58-.035-.58.336.753.338.755h.29l-.263-1.509.126.268.126.27.434 1.472.434 1.471.05-1.044.05-1.044.177 1.276.177 1.276.075 3.481.47-1.16.103-2.538.103-2.538.222-.222v.734l.266.089.265.088-.28.523-.28.523.073.476.073.474.638-.503.637-.505.033-1.665.033-1.666.16 1.277.158 1.276-.18.696-.18.696-.237 1.973-.238 1.972-.156.673-.156.672.266-.164.265-.164-.003.071-.002.072-.462 1.472-.46 1.47.018 5.723.019 5.722.416-.893.416-.893.555-3.551.506-2.554.506-2.552-.019-6.38-.017-6.382.09 1.277.088 1.276.193.195.192.194-.122 2.416-.124 2.416h.31l.254-.638.254-.639.315-1.043.315-1.045-.135 1.045-.136 1.043-.47 1.11-.472 1.109.132.133.133.132.7-1.357.7-1.359.012.19.012.19-1.626 3.515v.687l.349-.288.347-.289v-.438l.566-.74.564-.741.593-1.274.594-1.276.002-.52.001-.523h.466v-.67l.512-.316-.166.55-.167.551-1.329 2.8-1.331 2.801-.132 1.492-.133 1.493.7-.812.699-.812-.466.928-.468.929-.809.776-.808.777-.28 1.004-.282 1.003.104.308.105.308.507-.928.51-.928-.14.522-.14.522h.243l.94-1.58.939-1.582 1.573-3.915.422-2.553.423-2.552.09.44.09.44.41-.648.004.415.002.413-.328.513-.33.516-.159 1.392-.158 1.392.732-.813.73-.811-1.048 1.489-1.052 1.49-.687 1.643-.686 1.643-2.334 4.153.096.097.098.097 1.53-.881.724-1.434.725-1.434-.125-.126-.126-.125h.574l-.147-.522-.147-.521.222.322.223.322.364-.671.363-.67.01.18.007.179-1.86 3.702h.71l1.499-2.156 1.45-1.959 1.45-1.96.009-.27.007-.268 1.147-.835-.928 1.325-.93 1.327.11.108.108.11.645-.401.646-.4.777-.85.777-.848-.305.58h.42l.42-.464.419-.465h.458l-1.09.96-1.089.959-.829 1.65-.829 1.653-.907 1.392.707-.793.705-.793 1.042-1.795 1.044-1.794.715-.509.714-.51-.259-.818.397-.323.398-.322-.174.29-.174.289h.571l.95-.811-1.446 1.697-1.444 1.699-.317.622-.316.621-.18.58-.178.578.763-.634v.32l-.58.76-.58.76v.36l.515-.135.516-.134-.63.513-.626.514-.363 1.593-.364 1.594.132.132.132.132.938-.913.938-.914-.155.407-.154.405h.513l1.84-1.84 1.099-1.756.263-.767.264-.769-.514.146-.516.145-1.392.7-1.392.7.928-.88 2.32-.979.38-.117.382-.117.411-1.119.413-1.12.203-.23.202-.23-.363 1.032-.364 1.032.108.283.109.283-.315.263-.317.262-.238.683-.238.682h.26l1.688-1.767-1.044 1.212v.43l-1.91 1.92-1.908 1.918h2.048l1.175-1.044-.291.384-.294.383.3.107.3.106-.129.14-.128.141-1.82.12-1.821.12-1.014.49-1.014.49-.24.45-.241.45.134.424.134.422-.353.294-.353.292v.863l1.044.247 1.076.195 1.078.194.377-.211.38-.213-.064.305-.063.304.62.072.62.071.938-.478.936-.478.183.01.184.009-.671.364-.67.362.322.204.322.204 1.924.007.128.338.13.338-1.17-.445-5.188-.466-1.34-.317-1.342-.319-2.038 2.84.051.053.051.051 2.044.233 2.044.231.27.225.27.224 1.612.296 1.611.297-.571.14-.574.14.696.381.696.383-.183.008-.183.01-.877-.447-.876-.448-1.376-.499-1.377-.5-3.945-.222-.318.218-.317.218.78 1.086.783 1.084.503.625.503.625 1.389-.052 1.39-.05.245.296.248.298-1.385-.1-1.384-.1v.526l.714.435.716.436-.608.203.42.64.42.641-.094.092-.092.092-1.363-1.853-1.363-1.853h-.374v.175l.001.174.253.91.252.908 1.177 1.894-1.368-1.283-.195.178-.196.177.168-.29.167-.29-.376-.004-.119-2.803-.669-1.602-1.194-.543-.712.677-.713.678-.483.674-.484.672 1.213 1.042-.229.229 1.115.884 1.115.885.232.214.232.213-.58-.296-.58-.297-.792-.6-.793-.6.125.579.124.578.317.928-.848-1.71-.85-1.707-.345.346-.347.347-.466 1.362-.465 1.362-.122 2.25-.124 2.25.487.824.486.824h-2.985zm1.848-8.818.46-.58.14-.524.141-.526-.287-.345-.285-.345h-.64l.011 2.9zm-4.22-2.678.08-.385-.148-.79-.148-.788h-1.603v.26l1.74 2.086zm5.13.126h.194l.151-.608.153-.607-.09-.091-.09-.09-.408.451-.408.45.152.248.153.247zm2.704-1.493 1.369-1.14 1.119-1.062 1.119-1.063.228-.415.229-.416-1.626.82-1.628.818-1.597 1.403-.303 1.271-.278.926zm-3.906.333h.12l1.13-.863 1.13-.863.227-.82.229-.82v-.785l.002-.784.951-1.54.77-.476.769-.476h1.417l.454-.754.455-.753.566-1.772-.263-.264-.58.38-.58.38-2.529 2.814-2.53 2.813-.722 1.196-.725 1.196-.206 1.096-.204 1.095zm-8.487-1.179.856.018.156-.252.155-.252-.239-.24-.239-.24-.966.014-.966.014-.735.17-.735.171.927.29.93.29zm3.143-.214h.989l-.002-.29-.003-.29-.768-.966-.768-.966-.68-.566-.68-.566-.507-.267-.507-.265h-.262v.506l1.1 1.835 1.1 1.835zm2.106-1.016.073-.87-.71-1.516-.709-1.516-.73-.923-.732-.922-1.288-.952-1.288-.952-1.815-1.734-1.815-1.735-.116.115-.114.115.964 2.183.965 2.182 1.563 2.453.354.136.356.137.268-.268-1.096-1.536-1.095-1.534.117-.117.116-.115 1.112 1.582 1.114 1.582 3.045 3.248 1.387 1.828zm6.715-.15.174-.004 1.608-1.043 1.612-1.042.867-.26.866-.26.29-1.152-.151-.15-1.089-.056-1.088-.058-.53.441-.53.44-1.102 1.045-1.102 1.044v1.06zm-2.842-1.85h.07l1.183-1.595 1.18-1.594.35-.987.348-.988v-.676l-1.87 1.48-.625 1.227-.354 1.566-.354 1.567zm-3.436-.553.047-.042-.236-1.734L30.018 32l-.784-1.595-.587-.429-.588-.428-2.383-.63 1.995 2.817 1.996 2.817.364.499.364.5zm7.674-.8.981-.775v-.194h-.64l-.661.871-.661.87zm3.533-1.048.58-.036.489-1.519.487-1.52.322-1.718-.591.27-.592.27-1.044 1.96-1.042 1.96v.147l.406.11.406.112zm-4.1-1.694.38-.212 1.6-1.434 1.601-1.433.77-1.344.773-1.344.522-1.103.522-1.102h-.243l-1.038.715-1.04.715-1.267 1.905-1.269 1.905-.693.41-.694.41v.611l-.303 1.513zm-5.717-.601.104-.404-.2-1.049-.005.927-.004.93zm-1.283-1.222.168-.928.014-.732.013-.733-1.334-2.632-1.335-2.632-1.276-.761-1.276-.763-.074.354-.075.354.853 1.568.854 1.569 3.301 6.265zm-13.844.349h.117v-.234h-.233v.234zm15.265-1.66.208-.545-.152-1.939-.15-1.939-.428-1.31-.427-1.31-.808-1.809-.809-1.809-.258.741-.258.743v1.995l1.506 4.085.252-2.09.28.929.28.929v.735l.002.737.276 1.2.277 1.2zm9.769.268h.116l.142-.234.144-.23h-.232l-.144.232-.143.232zm-25.266-3.02h.116v-.232h-.233v.233zm15.657-3.364.17-.464.162-1.818.16-1.816-.163-1.083-.162-1.082-.361.925-.033 1.768-.25.995-.251.995.28 1.022.277 1.022zm-4.679-1.053.071.008-.17-.29-.171-.29-1.938-2.552-.726-1.16-.726-1.16-.004.515-.005.515.568 1.283.566 1.283h.244l-.134-.348-.133-.348h.272l.47.921.47.921.637.346.637.345zm-2.16-1.384h.116v-.232h-.233v.233zm5.41-1.856.074-1.508-.399-1.33-.4-1.33-.429-.39-.428-.386.004 1.021.002 1.023.146.542.144.54.197-.308.196-.31.004.92.003.922.406 1.05.406 1.053zm2.415-1.247.2-1.131-.13-.128-.13-.13-.253.251-.252.252.364 2.017zm4.705 30.95h-.117v-.233h.234v.233zm-13.718-.464h-.117l.145-.233.143-.231h.232l-.286.464zm13.492 0H37.5l-.153-.249-.154-.247.221-.221.138.359.138.358zm-17.873-.464h-.117v-.233h.234v.233zm1.133-.233h-.116l.143-.231.143-.233h.234l-.145.233-.143.232zm2.464-.464h-.31l.155-.154.155-.155.155.155.154.154zm.792-.25-.444-.019.303-.122.306-.121.28.28zm20.453-.446h-.102l-.331-.537.268.167.268.166v.204zm-.942-.696h-.116v-.232h.233v.233zm-24.597-.464h-.116v-.232h.233v.233zm-2.32-.928h-.116v-.232h.232v.232zm32.601-1.877-.347.014-.697-.45.233.011.23.014.466.198.464.2zm-2.9-.211h-.117v-.234h.233v.234zm-.464-.234h-.117v-.232h.233v.234zm5.569-.23h-.117v-.234h.233v.234zm-35.735-.234h-.117V40.7h.233v.234zm34.922 0h-.31l.156-.153.154-.156.31.31zm-34.013-.249-.445-.019.305-.12.303-.123.141.14.14.14zm33.086.019h-.31l.154-.155.155-.156.31.31zm-32.255-1.215h-.813l.407-.105.406-.107.406.106.406.106zm28.542-.232h-.813l.406-.105.407-.107.811.212zm-31.98-1.826-.855-.023.58-.186.58-.186.84-.047-.144.233-.143.232zm38.013-.44h-.31l.155-.156.155-.154.154.154.155.155zm-39.1-.465h-.116v-.233h.233v.233zm1.857-.233h-.117v-.232h.233v.233zm-.464-.23h-.117v-.234h.233v.233zm32.486-.465h-.117v-.233h.233v.233zm3.828-.037h-.579l.29-.116.29-.117.29.117.29.116zm-3.016-.338-.58.139.812-.39.812-.392-2.087-.182-2.09-.182-.58-.105-.58-.105 3.79.154 1.259-.653-.308.37-.307.37.336-.048.335-.049 1.161.063-.696.435-.697.435zm4.176.143h-.308l.155-.155.153-.155.156.155.155.155zm-38.519-.696h-.308l.155-.155.153-.155.31.31zm1.644-.248-1.025.016.194-.167 1.392-.126 1.392-.127-.464.194-.464.194zm-1.76-.448h-.116v-.233h.234v.233zm-.927-.277-.696-.01.82-.214.286.117.286.115-.696-.01zm10.194.042-.248.002-1.233-.918-1.23-.92-.145-.162-.145-.162.348.189.348.187.348.297.35.297.12-.042.12-.041 1.614 1.27zm27.976-.034h-.58l.29-.116.291-.117.29.117.29.116zm1.277-1.588h-.117v-.232h.233v.233zm-39.68-.232h-.116v-.232h.233v.233zm7.194 0h-.117v-.232h.233v.233zm31.267-.248-.175-.016-.463-.199-.464-.2 1.275-.033v.464zm-34.053-.216h-.117v-.232h.233v.233zm-2.553-.232H13.8v-.232h.233v.233zm2.089 0h-.117v-.232h.233v.233zm-2.553-.239h-.231l-.349-.225-.347-.225h.464l.347.225.349.225zm36.549-.336-.581.117.347-.151.349-.15 1.198-.605v.668l-.734.007zm1.739-.353h-.117v-.232h.234v.232zm-38.983-.928h-.117v-.233h.234v.233zm3.597 0h-.31l.31-.31.155.155.153.155zm-4.061-.233h-.117v-.232h.234v.233zm3.48 0h-.117v-.232h.234v.233zm-3.944-.23h-.117v-.234h.234v.233zm3.48-.008h-.232l-.347-.225-.35-.225h.465l.349.225.347.225zm-1.16-.457h-.117v-.232h.234v.233zm-.696-.232h-.117v-.232h.234v.233zm22.275-.232h-.117v-.232h.234v.232zm-18.911-.484-.349.012-.347-.224-.349-.225.234.013.23.012.464.2.464.2zm33.298-.444h-.117v-.233h.234v.233zm-34.807-.233h-.117v-.23h.234v.232zm2.785 0h-.116v-.23h.233v.232zm32.486 0h-.116v-.23h.233v.232zm-28.042-.23h-.08l-.884-1.045.522.443.523.44v.161zm28.724 0h-.361l.145-.237.146-.236.216.134.216.133v.205zm-36.649-.234h-.116v-.232h.233v.233zm3.3-.087-.11.108-.145-.378-.144-.376.007-.155.006-.155.247.423.245.423zm28.488.087h-.116v-.233h.233v.233zm-27.6-.464H18.7l-.331-.536.536.33v.206zm27.811 0h-.08l.134-.348.133-.348h.471l-.288.348-.29.348zm-7.83-.31-.154.155v-.619l.155.155.155.155zm-18.37-.154h-.116v-.233h.233v.233zm-5.8-.233h-.117v-.232h.233v.233zm2.785 0h-.117v-.232h.232v.233zm21.618-.309-.155.155v-.619l.155.155.155.154zm.657.077h-.116v-.232h.233v.233zm7.513 0h-.203v-.41l.478-.124.477-.125-.274.33-.274.329zm-27.686-.232h-.103l-.165-.268-.166-.268.537.33v.206zm.732-.089-.108.109-.146-.377-.145-.378.007-.155.007-.155.246.425.246.423zm19.657-.143h-.116l.249-.464.248-.464h.232l-.248.464-.248.464zm-24.784-.233h-.087l-.319-.405-.318-.407.406.319.407.32v.174zm24.105-.231h-.116v-.233h.233v.233zm8.121 0h-.116v-.233h.233v.233zm-27.613-.464h-.116v-.233h.233v.233zm21.131-.58-.382.463.569-1.169.57-1.17.392-1.35.392-1.35-.136-.682-.136-.682.208.128.209.13.128-.292.13-.292-.104 1.16-.105 1.161.627-1.334.629-1.334h.367l-.588 1.16-.589 1.16h.434l.476-.638.477-.639.007.18.008.18-.954 1.035-.955 1.035-.644 1.337-.645 1.339-.384.464zm-24.148.116h-.116v-.233h.233v.233zm.968-.31-.155.155v-.62l.155.156.154.155zm25.485-.851h-.116v-.232h.234v.233zm1.554-1.131-.848.783.415-.496.414-.498.161-.58.16-.58.274.294.271.295zm-27.05.435h-.087l-.318-.406-.32-.406.408.319.405.318v.175zm25.73 0h-.117v-.232h.233v.233zm.27-.541-.155.155v-.62l.155.156.155.154zm-2.618-.618h-.117l.144-.233.143-.232h.233l-.144.233-.144.23zm2.85-.078-.155.155v-.62l.155.156.155.154zm2.487-.618h-.117l.144-.233.143-.232h.233l-.144.233-.144.23zm-9.254-1.393h-.117v-.233h.233v.233zm7.397-.696h-.117l.145-.233.143-.231h.232l-.287.464zm-25.961-.233h-.117v-.232h.233v.233zm2.126-.077-.155.155v-.62l.155.156.155.155zm19.917.078h-.116v-.233h.233v.233zm-.44-.295-.139.14.017-.444.02-.446.122.305.12.305zm-22.068-.401h-.116v-.233h.234v.233zm4.177 0h-.116v-.233h.233v.233zm14.357-.02-.086.097v-2.398h.492l-.16 1.103-.16 1.101zm1.681.02h-.088l-.112-.587-.112-.585.2-.125.2-.123v1.42zm4.614-.233h-.116v-.232h.233v.233zm1.624 0h-.116v-.232h.233v.233zm-23.713-.235-.187-.003-.349-.225-.347-.225.392-.004.392-.003.144.233.143.23zm3.796-.074-.155.155v-.62l.31.31zm2.773.078h-.09l-.117-.754-.114-.755.198-.348.198-.348.006 1.102.007 1.103zm-5.363-.233h-.117v-.232h.232v.233zm.927 0h-.117v-.232h.233v.233zm17.403 0h-.117v-.232h.233v.233zm.696 0h-.117v-.232h.233v.233zm-19.953-.462h-.117v-.232h.233v.233zm1.624 0h-.117v-.232h.233v.233zm1.674-.089-.109.11-.144-.378-.145-.376.007-.155.006-.155.247.423.245.423zm-2.602-.143h-.117v-.232h.233v.233zm.696-.232h-.117v-.232h.233v.233zm3.249 0h-.117v-.232h.233v.233zm.734-.077-.155.155v-.619l.155.155.155.154zm9.055-.212-.106.406v-1.624l.212.811zm-12.807-.175h-.116v-.232h.233v.233zm2.857-.11-.13.13-.158-.415-.159-.416.288.285.288.287zm-1.695-.122h-.117v-.232h.233v.233zm3.016 0h-.117v-.232h.233v.233zm5.84-.309-.156.155v-.619l.155.155.155.154zm-6.177-.277-.22.135-.234-.435-.232-.435.198-.21.199-.21.128-.464.126-.464-.118 1.045-.118 1.045.243-.349.241-.347.004.276.003.276zm.569.122h-.117v-.232h.233v.233zm1.16 0h-.117v-.639l-.347-.289-.348-.29v-.477l.928 1.07v.625zm2.392-.426-.082.543-.16-.572-.16-.569.107-.107.107-.106.135.134.135.135zm-5.41.194h-.115v-.232h.233v.233zm11.836 0h-.117v-.232h.233v.233zm-12.53-.232h-.117v-.232h.233v.233zm6.984-.063-.14.14.037-.888.122.303.122.305zm-5.786-.942-.155.154v-.618l.155.154.155.155zm4.37.077h-.116v-.233h.233v.233zm-1.392-.233h-.117v-.232h.233v.233zm.734-.076-.154.154v-.618l.155.154.154.155zm-2.127-.155h-.116v-.233h.233v.233zm2.554-.233h-.117v-.232h.232v.233zm-1.394-.231h-.116V11h.233v.233z" style="fill:#fff"/></svg>