<svg xmlns="http://www.w3.org/2000/svg" width="64" height="64"><path fill="#ed6e6e" d="M32 3a5.443 5.443 0 0 0-2.499.658L9.792 14.924c-1.33.716-2.662 1.97-3.24 3.353-.63 1.512-.6 2.695-.491 3.588l.112 22.061c.04 1.636.801 3.17 2.077 4.184 2.555 2.032 20.757 12.18 20.757 12.18a5.44 5.44 0 0 0 2.993.701 5.44 5.44 0 0 0 2.993-.7S53.195 50.141 55.75 48.11a5.516 5.516 0 0 0 2.077-4.185l.112-22.06c.108-.894.139-2.077-.492-3.589-.577-1.383-1.91-2.637-3.24-3.353L34.5 3.658a5.443 5.443 0 0 0-2.5-.658z"/><path fill="#fff" d="M38.579 16.342a9.863 9.863 0 0 1 2.018 4.88c.008.063.017.125.023.188v.014c.007.064.013.129.018.194v.033l.012.192c.004.064.008.13.01.194 0 .046 0 .091.004.136v.256a9.86 9.86 0 0 1-1.795 5.682 8.862 8.862 0 0 1 .107 3.088 8.782 8.782 0 0 0 1.648-.564 8.772 8.772 0 0 0 1.135-.62 8.774 8.774 0 0 1 .344 2.453c0 .446-.032.891-.099 1.332a8.886 8.886 0 0 0 3.406-1.073 8.778 8.778 0 0 1 .14 1.572 8.8 8.8 0 0 1-.189 1.825 8.91 8.91 0 0 0 2.7-.535c.621-1.651.939-3.4.937-5.164.006-.387-.004-.768-.034-1.146a14.62 14.62 0 0 0-.646-3.312 5.784 5.784 0 0 1-.516 1.045 13.185 13.185 0 0 0-1.824-4.954 13.288 13.288 0 0 0-3.628-3.855 13.31 13.31 0 0 0-3.771-1.86zm-13.43.017a17.32 17.32 0 0 0-3.803 2.35 17.153 17.153 0 0 0-5.882 9.327c-.31 1.3-.466 2.63-.465 3.966a16.996 16.996 0 0 0 2.111 8.229c.095-.83.307-1.641.631-2.41a16.41 16.41 0 0 0 4.83 6.443 16.57 16.57 0 0 0 7.331 3.394 8.75 8.75 0 0 1-1.137-1.945c1.431.46 2.921.713 4.426.75.133 0 .268.005.402.005 2.39.003 4.75-.54 6.896-1.589a8.76 8.76 0 0 1-1.026-.671 14.882 14.882 0 0 0 6.12-4.353 14.71 14.71 0 0 0 1.92-2.943 8.914 8.914 0 0 1-2.516.516 8.109 8.109 0 0 1-.553.017h-.183a8.73 8.73 0 0 0 .28-2.205c0-.332-.019-.662-.056-.99a8.88 8.88 0 0 1-3.565.904 8.634 8.634 0 0 0 .173-1.744c0-.63-.067-1.257-.201-1.873a8.865 8.865 0 0 1-3.004 1.092l-.007-.01a8.628 8.628 0 0 0 .171-1.723c0-.533-.047-1.063-.143-1.587a9.995 9.995 0 0 1-3.306 2.277c-1.247.529-2.59.8-3.945.798-1.6.003-3.178-.376-4.599-1.106a8.902 8.902 0 0 0 1.833-.964 8.9 8.9 0 0 1-3.69-3.27 8.816 8.816 0 0 1-.112-9.255c.306-.511.665-.99 1.07-1.43z"/></svg>