<svg width="64" height="64" version="1.1" xmlns="http://www.w3.org/2000/svg">
 <path d="m32 3c-0.873 0.0154-1.73 0.2411-2.499 0.6582l-19.709 11.266c-1.3291 0.716-2.6625 1.97-3.2394 3.353-0.6309 1.512-0.6003 2.695-0.4918 3.588l0.1123 22.061c0.0398 1.636 0.8009 3.169 2.0767 4.184 2.5549 2.032 20.757 12.18 20.757 12.18 0.911 0.517 1.949 0.76 2.993 0.701 1.044 0.059 2.082-0.184 2.993-0.701 0 0 18.202-10.148 20.757-12.18 1.276-1.014 2.037-2.548 2.077-4.184l0.112-22.061c0.108-0.893 0.139-2.076-0.492-3.588-0.577-1.383-1.91-2.637-3.239-3.353l-19.709-11.266c-0.769-0.4171-1.626-0.6428-2.499-0.6582z" fill="#ed6e6e"/>
 <path d="m38.579 16.342c1.1053 1.416 1.8024 3.1023 2.0184 4.8808 8e-3 0.06186 0.0164 0.12435 0.02272 0.18698 3.94e-4 0.0048 3.94e-4 0.0092 0 0.01398 0.0064 0.06421 0.01274 0.12898 0.01748 0.19398v0.0332c0.0054 0.06421 0.0083 0.12802 0.01223 0.19222 0.0039 0.0642 0.0082 0.12977 0.01052 0.19398 0 0.04541-0.0012 0.09091 0.0035 0.1363-3.94e-4 0.0073-3.94e-4 0.01543 0 0.02272v0.23242c0.0028 2.0326-0.62353 4.0157-1.7947 5.6829 0.12885 0.60516 0.19382 1.2234 0.19398 1.8419 2.37e-4 0.41727-0.0283 0.83284-0.08738 1.246 0.5672-0.13317 1.1186-0.32222 1.6479-0.56444 0.39317-0.17858 0.77354-0.38604 1.1358-0.62036 0.07413 0.25608 0.1373 0.5167 0.18698 0.78288 0.10581 0.55044 0.15822 1.1103 0.15727 1.6706 2.36e-4 0.44554-0.03266 0.89107-0.09961 1.3316 0.78351-0.08072 1.5514-0.26571 2.2857-0.54872 0.38537-0.1482 0.75986-0.32329 1.1202-0.52425 0.05402 0.29945 0.09271 0.60176 0.11534 0.90519 0.0168 0.2203 0.02446 0.44309 0.02446 0.66754 3.95e-4 0.61347-0.06201 1.224-0.18873 1.8244 0.92273-0.03765 1.8335-0.2176 2.6999-0.53474 0.62146-1.6515 0.93865-3.4009 0.93668-5.1639 0.0068-0.38682-0.0038-0.76847-0.0332-1.1463-0.08674-1.1246-0.30411-2.2361-0.64658-3.3115-0.13619 0.36467-0.30876 0.71463-0.51551 1.045-0.26748-1.7564-0.88775-3.4407-1.8244-4.9542-0.93668-1.5135-2.1705-2.8244-3.6278-3.855-1.0114-0.71818-2.1201-1.2918-3.2923-1.7038-0.15771-0.05585-0.3174-0.10874-0.47882-0.15727zm-13.43 0.01748c-1.3647 0.61605-2.6429 1.4054-3.8026 2.3486-2.9386 2.3843-5.0054 5.6623-5.8821 9.3284-0.30982 1.2997-0.46606 2.6296-0.46484 3.9651-0.0048 2.8755 0.72134 5.7061 2.111 8.229 0.09418-0.82868 0.30656-1.6406 0.63085-2.4098 1.047 2.5118 2.7073 4.7261 4.8301 6.4431 2.1228 1.717 4.6415 2.8833 7.3308 3.3937-0.46209-0.59726-0.84373-1.2506-1.1376-1.9449 1.4317 0.46111 2.9216 0.71289 4.4265 0.74968 0.13326 0 0.26787 0.0052 0.40193 0.0052 2.3906 0.0036 4.7508-0.54044 6.8956-1.5885-0.35714-0.2001-0.70035-0.42326-1.0258-0.67104 2.382-0.90609 4.489-2.4056 6.1197-4.353 0.7559-0.90152 1.4008-1.8894 1.9205-2.9428-0.80945 0.29225-1.6566 0.46612-2.5164 0.51551-0.18294 0.01253-0.3684 0.01748-0.55221 0.01748h-0.18349c0.11292-0.43544 0.19136-0.87894 0.23591-1.3263 0.02839-0.28896 0.04369-0.58229 0.04369-0.87899 1.57e-4 -0.33148-0.01844-0.66148-0.05592-0.99082-0.86583 0.42659-1.7978 0.70816-2.7558 0.8353-0.26653 0.03601-0.53515 0.05894-0.8091 0.0699 0.08721-0.43035 0.14154-0.86515 0.16252-1.3036 0.0071-0.14562 0.01052-0.29319 0.01052-0.44037 5.54e-4 -0.62983-0.06714-1.2577-0.20096-1.8734-0.67784 0.39692-1.4059 0.7016-2.1651 0.90698-0.27449 0.07406-0.55437 0.1367-0.8388 0.18523l-7e-3 -0.01052c0.08281-0.41093 0.13678-0.82752 0.15902-1.246 0.0095-0.15666 0.01223-0.31258 0.01223-0.47707 1.58e-4 -0.53244-0.04718-1.0628-0.1433-1.5867-0.93525 0.974-2.06 1.7481-3.3063 2.277-1.2463 0.529-2.5888 0.80033-3.9441 0.79861-1.6003 0.0024-3.178-0.37636-4.5994-1.1061 0.64683-0.24904 1.2622-0.57334 1.8331-0.9646-1.5162-0.72299-2.7953-1.8559-3.6907-3.2696-0.89544-1.4136-1.3704-3.0501-1.37-4.72-2.9e-4 -0.53513 0.04819-1.069 0.14504-1.5955 0.09503-0.52178 0.23761-1.033 0.42639-1.5291 0.18602-0.48923 0.41574-0.96183 0.68677-1.4103 0.30683-0.51146 0.66518-0.98974 1.0695-1.4295z" fill="#ffffff" stroke-width=".89472"/>
</svg>
