<svg xmlns="http://www.w3.org/2000/svg" width="64" height="64"><path fill="#ed6e6e" d="M32 3a5.44 5.44 0 0 0-2.499.658L9.792 14.924c-1.33.716-2.662 1.97-3.24 3.353-.63 1.512-.6 2.695-.491 3.588l.112 22.061A5.52 5.52 0 0 0 8.25 48.11c2.555 2.032 20.757 12.18 20.757 12.18a5.44 5.44 0 0 0 2.993.701 5.44 5.44 0 0 0 2.993-.7S53.195 50.141 55.75 48.11a5.52 5.52 0 0 0 2.077-4.185l.112-22.06c.108-.894.139-2.077-.492-3.589-.577-1.383-1.91-2.637-3.24-3.353L34.5 3.658A5.44 5.44 0 0 0 32 3"/><path fill="#fff" d="M38.579 16.342a9.86 9.86 0 0 1 2.018 4.88q.013.094.023.188v.014q.01.096.018.194v.033l.012.192a6 6 0 0 1 .014.33v.256a9.86 9.86 0 0 1-1.795 5.682 8.9 8.9 0 0 1 .107 3.088 9 9 0 0 0 1.648-.564 9 9 0 0 0 1.135-.62 8.8 8.8 0 0 1 .344 2.453q0 .67-.099 1.332a8.9 8.9 0 0 0 3.406-1.073 9 9 0 0 1 .14 1.572 8.8 8.8 0 0 1-.189 1.825 8.9 8.9 0 0 0 2.7-.535c.621-1.651.939-3.4.937-5.164q.01-.58-.034-1.146a14.6 14.6 0 0 0-.646-3.312 6 6 0 0 1-.516 1.045 13.2 13.2 0 0 0-1.824-4.954 13.3 13.3 0 0 0-3.628-3.855 13.3 13.3 0 0 0-3.771-1.86zm-13.43.017a17.3 17.3 0 0 0-3.803 2.35 17.15 17.15 0 0 0-5.882 9.327c-.31 1.3-.466 2.63-.465 3.966a17 17 0 0 0 2.111 8.229c.095-.83.307-1.641.631-2.41a16.4 16.4 0 0 0 4.83 6.443 16.6 16.6 0 0 0 7.331 3.394 8.8 8.8 0 0 1-1.137-1.945c1.431.46 2.921.713 4.426.75.133 0 .268.005.402.005 2.39.003 4.75-.54 6.896-1.589a9 9 0 0 1-1.026-.671 14.9 14.9 0 0 0 6.12-4.353 14.7 14.7 0 0 0 1.92-2.943 9 9 0 0 1-2.516.516 8 8 0 0 1-.553.017h-.183a8.7 8.7 0 0 0 .28-2.205q0-.498-.056-.99a8.9 8.9 0 0 1-3.565.904 8.6 8.6 0 0 0 .173-1.744q0-.947-.201-1.873a8.9 8.9 0 0 1-3.004 1.092l-.007-.01a8.6 8.6 0 0 0 .171-1.723q0-.8-.143-1.587a10 10 0 0 1-3.306 2.277c-1.247.529-2.59.8-3.945.798-1.6.003-3.178-.376-4.599-1.106a9 9 0 0 0 1.833-.964 8.9 8.9 0 0 1-3.69-3.27 8.82 8.82 0 0 1-.112-9.255q.46-.768 1.07-1.43z"/></svg>