<svg xmlns="http://www.w3.org/2000/svg" width="64" height="64"><path fill="#bf00d2" d="M29.547 5.176A27 27 0 0 0 5.171 29.609 27.6 27.6 0 0 0 7.3 40.195c4.74 11.43 18.102 19.044 30.328 13.708 8.319-3.631 13.873-13.554 9.7-22.574a13.83 13.83 0 0 0-6.766-6.75c-2.966-1.36-6.63-1.608-9.937.03a10.06 10.06 0 0 0-4.774 5.002c-.953 2.185-1.089 4.956.215 7.388a7.35 7.35 0 0 0 3.736 3.373c1.63.666 3.787.724 5.605-.348 1.123-.663 1.938-1.612 2.408-2.865s.469-3.015-.461-4.42h-.001v-.002c-.565-.852-1.285-1.423-2.298-1.76-.818-.273-1.975-.262-2.992.202.37-.445.8-.849 1.277-1.085 1.538-.762 3.095-.675 4.67.047 1.576.723 3.021 2.155 3.764 3.76 2.538 5.486-1.1 11.994-6.595 14.393-8.702 3.798-18.675-1.88-22.226-10.443v-.001C7.612 24.972 15.95 10.54 28.524 5.557l.001-.001h.001q.507-.199 1.021-.38m1.818 26.39-.005.005-.006.004zm.746 3.134h3.819c-.01.158.03.363-.003.481-.166.589-.381.892-.845 1.247-.613.468-1.53.5-1.964.354-.435-.145-.627-.3-.866-.661l-.001-.002c-.241-.364-.232-.935-.166-1.111.06-.16.074-.17.184-.235-.012-.004-.044-.022-.15-.065zm.158.073c.013.005.004-.005.026-.018-.014.008-.014.011-.026.018"/><path fill="#3724b4" d="M32 5a27 27 0 0 0-6.89.938C15.01 10.542 8.19 21.717 10.214 33.71c1.938 11.475 12.36 20.555 23.918 18.283 9.312-1.828 16.305-11.113 14.48-21.178-1.456-8.024-8.86-14.432-17.105-12.686-6.537 1.389-11.386 7.932-9.994 15.014 1.093 5.547 6.327 10.046 12.199 8.686 4.582-1.062 7.923-5.668 6.845-10.652v-.002c-.833-3.839-4.573-7.023-8.812-5.933a6.6 6.6 0 0 0-3.897 2.817c.918-2.053 2.796-3.646 4.897-4.092 4.549-.964 9.066 2.795 9.994 7.913 1.223 6.743-3.688 13.067-9.757 14.258-7.877 1.55-15.44-4.873-16.884-13.42-1.834-10.858 6.01-20.924 15.852-22.733 12.363-2.273 24.014 7.76 26.106 20.95.363 2.287.435 4.548.265 6.755a27 27 0 0 0 .677-5.69 27 27 0 0 0-27-27zm1.433 26.006c.489.034 1.105.568 1.293 1.436.043.2-.007.392-.011.59a2.13 2.13 0 0 1-1.119.885h-.002c-.292.099-.608.098-.902.058v-2.541c.01.005.044.001.05.006.102.073.078.064.09.109-.043-.177.26-.489.4-.525h.001a.6.6 0 0 1 .2-.017z"/><path fill="#3724b4" d="M40.042 7.4c-4.235-.11-8.505.743-12.49 2.76h-.001C22.929 12.5 19.098 16.503 17 21.28s-2.373 10.492.478 15.59a14.4 14.4 0 0 0 7.108 6.285c3.028 1.226 6.751 1.297 9.927-.709a8.86 8.86 0 0 0 3.625-4.495c.691-1.91.646-4.407-.809-6.385a5.5 5.5 0 0 0-2.903-2.068c-1.247-.384-3.077-.261-4.362.888l-.004.003-.003.002c-.622.559-.985 1.127-1.197 2.013-.211.887 0 2.46 1.065 3.362.525.445.856.6 1.558.702.351.052.818.073 1.4-.132.023-.008.046-.031.069-.04-.275.602-.808 1.26-1.321 1.585v-.001c-1.588 1.002-3.24.99-5.018.27-1.779-.72-3.496-2.26-4.423-3.915v-.001c-1.96-3.508-1.802-7.24-.247-10.783 1.556-3.541 4.6-6.727 8.047-8.473 8.218-4.16 18.468-2.007 25.582 3.87A27 27 0 0 0 43.886 7.765a29 29 0 0 0-3.844-.364zm-8.409 23.73c.157-.008.294.006.423.017v5.197l-.613-.07c-.771-.182-1.57-.928-1.832-1.515-.262-.588-.242-.966-.228-1.229.027-.484-.004-.56.338-1.13.291-.51.864-.98 1.367-1.157.212-.074.389-.104.545-.112m2.81 3.876-.085.144c.035-.057.027-.062.056-.111.007-.012.022-.021.028-.033"/><path fill="#af1876" d="M34.762 13.667a18.6 18.6 0 0 0-4.1.36c-8.723 1.743-15.47 10.176-13.55 19.376 1.497 7.167 8.48 12.71 16.103 11.045 5.88-1.284 10.435-7.056 8.985-13.366-1.106-4.822-5.89-8.556-11.127-7.29-3.965.96-7.044 4.936-5.923 9.307v.002c.843 3.278 4.18 5.83 7.863 4.822l.001-.001c.566-.155 1.08-.447 1.574-.765-.755.676-1.625 1.237-2.645 1.46-4.095.894-8.126-2.302-8.989-6.434-1.186-5.678 3.203-11.17 8.877-12.304 7.58-1.516 14.812 4.296 16.255 11.798v.001c1.888 9.81-5.613 19.08-15.296 20.874-12.433 2.302-24.097-7.175-26.287-19.396-.635-3.542-.504-7.226.33-10.747A27 27 0 0 0 5 32a27 27 0 0 0 24.89 26.848 27 27 0 0 0 3.99-.43c12.758-2.364 22.63-14.556 20.068-27.87-1.78-9.247-9.783-16.66-19.185-16.883zm-3.664 14.248q-.003 0-.005.003h-.006zm4.024 3.006.005.012-.005-.007zm1.846.264.002.005-.002-.003zm-5.578.956h2.676a2 2 0 0 1-.25.749 1.54 1.54 0 0 1-.918.714c-.879.278-1.489-.175-1.653-.732-.134-.455.02-.657.196-.706h-.001l-.002.001c-.01.003-.036-.024-.048-.026m-3.038 1.029.002.003v.001zm4.821 2.31-.011.005.006-.003z"/><path fill="#691bf9" d="M35.455 9.507c-1.642-.04-3.317.1-5.01.439-10.615 2.122-18.826 12.388-16.496 23.549 1.808 8.658 10.238 15.353 19.4 13.352 7.03-1.535 12.473-8.44 10.75-15.945-1.307-5.697-6.956-10.111-13.105-8.622-4.617 1.117-8.2 5.749-6.903 10.801.964 3.756 4.783 6.676 8.965 5.53h.002c3.071-.843 5.478-4.023 4.448-7.526v-.001c-.154-.525-.438-1.001-.742-1.459.702.73 1.285 1.594 1.518 2.612.91 3.963-2.191 7.903-6.206 8.78-5.631 1.23-11.112-3.117-12.286-8.74-1.594-7.641 4.26-14.967 11.826-16.479 10.032-2.007 19.552 5.647 21.452 15.532 2.473 12.856-7.333 24.88-19.965 27.221-.697.13-2.515.226-3.214.298.324.029 1.787.134 2.112.151 14.912 0 27-12.088 27-27a27 27 0 0 0-.063-1.745l-.009-.052C56.75 18.873 46.945 9.785 35.455 9.507"/></svg>