<svg width="64" height="64" version="1.1" xmlns="http://www.w3.org/2000/svg">
 <g transform="matrix(1.35 0 0 1.35 -.4 -.4)">
  <path d="m22.183 4.1302a20 20 0 0 0-18.056 18.099c5e-3 2.5983 0.49884 5.2434 1.5762 7.8411 3.5108 8.4666 13.409 14.107 22.465 10.154 6.1618-2.6896 10.276-10.04 7.1855-16.721v-6.66e-4c-1.0254-2.2151-2.8156-3.9926-5.0124-5-2.1968-1.0074-4.9111-1.1905-7.3607 0.02279-1.5834 0.78374-2.8298 2.0872-3.5358 3.7051-0.70607 1.618-0.8069 3.6712 0.15885 5.4727 0.60969 1.1372 1.5604 2.0042 2.7676 2.498 1.2071 0.49385 2.8054 0.53675 4.1517-0.25781 0.83216-0.49118 1.4353-1.1939 1.7839-2.1217s0.3472-2.2336-0.3418-3.2741l-6.67e-4 -6.67e-4v-6.67e-4c-0.41847-0.6311-0.9521-1.0544-1.7025-1.3047-0.60524-0.2019-1.4624-0.19362-2.2161 0.15039 0.27393-0.32991 0.59204-0.62888 0.94596-0.80404h6.66e-4c1.1389-0.56409 2.2919-0.50007 3.459 0.03516 1.1671 0.53522 2.2376 1.596 2.7878 2.7845 1.88 4.0644-0.81498 8.8851-4.8848 10.662-6.4462 2.8133-13.834-1.3927-16.464-7.7357v-6.51e-4c-3.9562-9.5393 2.2205-20.229 11.535-23.921l6.67e-4 -6.5e-4h6.67e-4c0.24991-0.09924 0.50289-0.19117 0.75651-0.28125zm1.3464 19.549c-0.0013 1e-3 -0.0019 0.0022-0.0033 0.0033s-0.0031 0.0015-0.0046 0.0026zm0.55273 2.321h2.8288c-0.0069 0.11651 0.02267 0.26859-2e-3 0.35612-0.12268 0.43627-0.2826 0.66065-0.6263 0.92383-0.45339 0.34666-1.1331 0.36956-1.4544 0.26237-0.32199-0.10741-0.46434-0.22242-0.64193-0.49024l-6.67e-4 -0.0013c-0.17858-0.26969-0.17147-0.69228-0.1224-0.82292 0.04429-0.1179 0.05488-0.12599 0.13607-0.17383-9e-3 -0.0032-0.03248-0.01618-0.11068-0.04818-0.0021-8.66e-4 -0.0044-0.0049-0.0065-0.0059zm0.11719 0.05404c0.0093 0.0033 3e-3 -0.0039 0.01953-0.01367-0.0108 0.0064-0.01076 0.0085-0.01953 0.01367z" fill="#bf00d2"/>
  <path d="m24 4a20 20 0 0 0-5.1042 0.69466c-7.4811 3.4108-12.533 11.688-11.033 20.573 1.4357 8.4994 9.1559 15.226 17.717 13.543 6.898-1.3544 12.078-8.2323 10.726-15.688-1.0781-5.9436-6.5628-10.69-12.67-9.3965h-6.67e-4c-4.842 1.0285-8.4334 5.8754-7.4023 11.121v6.67e-4c0.80909 4.1087 4.6867 7.4409 9.0358 6.4336 3.3942-0.78634 5.869-4.1983 5.0703-7.8906v-0.001333c-0.61668-2.8433-3.3874-5.2022-6.5273-4.3945-1.2036 0.30922-2.2346 1.0716-2.8867 2.0866 0.68062-1.5205 2.0716-2.7005 3.6276-3.0312 3.3695-0.71389 6.7154 2.0706 7.403 5.8613 0.90575 4.9947-2.732 9.6792-7.2272 10.562h-6.67e-4c-5.834 1.1472-11.436-3.6103-12.506-9.9414-1.3584-8.0428 4.4514-15.499 11.742-16.839 9.1576-1.6837 17.788 5.7478 19.338 15.518 0.2687 1.6949 0.32178 3.3695 0.19596 5.0039a20 20 0 0 0 0.5013-4.2148 20 20 0 0 0-20-20zm1.0618 19.264c0.36178 0.02462 0.81824 0.42024 0.95768 1.0632 0.03184 0.1477-0.0053 0.29055-0.0085 0.43685-0.18997 0.2991-0.47252 0.53594-0.82878 0.65625h-0.0013c-0.21668 0.07302-0.45056 0.07239-0.66797 0.04297v-1.8828c0.0065 0.0037 0.03225 0.0011 0.03711 0.0046 0.07519 0.05414 0.05768 0.04739 0.06576 0.08073-0.03112-0.13091 0.19252-0.36208 0.29622-0.38867l0.0013-6.67e-4h6.66e-4c0.04663-0.01199 0.0961-0.01589 0.14779-0.01237z" fill="#3724b4"/>
  <path d="m29.957 5.778c-3.137-0.081196-6.3002 0.55035-9.252 2.0443h-6.67e-4c-3.4238 1.7339-6.2615 4.6988-7.8158 8.237-1.5542 3.5381-1.7577 7.7718 0.35417 11.548v6.67e-4c1.1561 2.0663 3.023 3.747 5.2656 4.6549 2.2427 0.90797 5.0009 0.96061 7.3535-0.52474v-6.67e-4c1.2202-0.77052 2.1727-1.9146 2.6849-3.3294 0.51204-1.4145 0.47822-3.2645-0.59896-4.7298-0.53508-0.72943-1.2286-1.2479-2.151-1.5319-0.92306-0.28417-2.279-0.19299-3.2311 0.6582l-0.0026 2e-3 -2e-3 0.0013c-0.46073 0.41417-0.72988 0.83479-0.88672 1.4915-0.15684 0.65674 2.38e-4 1.8218 0.78841 2.4902 0.38883 0.33 0.63442 0.44382 1.1543 0.52018 0.26012 0.03821 0.60585 0.05431 1.0371-0.09766 0.01686-0.0059 0.03378-0.02329 0.05078-0.02995-0.20367 0.44575-0.59808 0.9336-0.97852 1.1738v-6.66e-4c-1.176 0.74251-2.3992 0.73395-3.7168 0.20052-1.3174-0.53337-2.5896-1.6739-3.276-2.9004v-6.67e-4c-1.4528-2.5984-1.3353-5.3635-0.18288-7.987 1.1524-2.6235 3.4064-4.9832 5.9603-6.2767 6.0874-3.0809 13.68-1.4867 18.95 2.8672a20 20 0 0 0-8.6569-8.2109c-0.9422-0.15228-1.8932-0.24484-2.847-0.26953zm-6.2285 17.578c0.11607-0.0061 0.21721 0.0038 0.31315 0.01237v3.8496l-0.45443-0.05273c-0.571-0.13439-1.1625-0.6867-1.3568-1.1217-0.19423-0.43504-0.17944-0.71529-0.16862-0.91016 0.0199-0.35825-0.0036-0.41556 0.25-0.83659 0.21585-0.37892 0.63994-0.72596 1.013-0.85742 0.15656-0.05516 0.28757-0.07723 0.40365-0.08333zm2.0807 2.8704-0.0625 0.10677c0.02611-0.04179 0.01997-0.04601 0.04167-0.08203 0.0051-0.0091 0.0159-0.01563 0.02083-0.02474z" fill="#3724b4"/>
  <path d="m26.046 10.42c-0.99488-0.02361-2.011 0.06158-3.0378 0.26693-6.4611 1.291-11.459 7.5372-10.036 14.352 1.1084 5.309 6.2809 9.415 11.928 8.1816 4.3559-0.95066 7.7295-5.2264 6.6556-9.9004-0.81986-3.5722-4.3629-6.3377-8.2428-5.3997-2.9368 0.71025-5.2172 3.6558-4.3874 6.8939l6.67e-4 6.67e-4v6.66e-4c0.62413 2.428 3.0955 4.318 5.8242 3.5716 0 0 6.66e-4 -6.67e-4 6.66e-4 -6.67e-4 0.41937-0.11457 0.80055-0.33123 1.166-0.56641-0.55941 0.50031-1.2039 0.91644-1.9596 1.0814-3.0329 0.66241-6.0192-1.7056-6.6582-4.7663-0.87848-4.2056 2.3728-8.2744 6.5755-9.1139h6.67e-4c5.6143-1.1229 10.971 3.1823 12.04 8.7396v6.66e-4c1.3986 7.266-4.1577 14.133-11.33 15.462-9.2102 1.7053-17.85-5.3148-19.472-14.367v-6.67e-4c-0.47077-2.6237-0.37384-5.3523 0.24479-7.9603a20 20 0 0 0-1.3581 7.1035 20 20 0 0 0 18.436 19.888c0.9752-0.03348 1.9611-0.13362 2.9551-0.31771h6.67e-4c9.4499-1.7514 16.763-10.783 14.865-20.645-1.318-6.8496-7.2467-12.341-14.211-12.506zm-2.7142 10.554c-0.0013 4e-4 -2e-3 0.0016-0.0033 2e-3 -0.0015 5e-4 -3e-3 1.48e-4 -0.0046 6.67e-4zm2.9805 2.2266 0.0039 0.0091c-8.67e-4 -2e-3 -0.0024-0.0032-0.0033-0.0052-5.67e-4 -0.0013-7.9e-5 -0.0026-6.67e-4 -0.0039zm1.3678 0.19596 0.0013 0.0033c-2.19e-4 -7.33e-4 -0.0011-0.0012-0.0013-2e-3 -1.09e-4 -3.66e-4 1.1e-4 -9.33e-4 0-0.0013zm-4.1322 0.70768h1.9824c-0.0302 0.21816-0.09939 0.41635-0.18555 0.55469-0.17344 0.27851-0.37259 0.43157-0.67969 0.5293-0.65081 0.20583-1.1025-0.12948-1.2246-0.54232-0.09861-0.33701 0.01472-0.487 0.14583-0.52279h-0.0013l-0.0013 6.67e-4c-0.0068 0.0019-0.02639-0.01797-0.03581-0.01953zm-2.25 0.76237c2.7e-4 7.67e-4 1e-3 0.0012 0.0013 2e-3 1.43e-4 4e-4 -1.43e-4 9e-4 0 0.0013zm3.571 1.7116-0.0085 0.0033c0.0017-6.67e-4 0.0028-0.0019 0.0046-0.0026 0.0013-5e-4 0.0026-1.38e-4 0.0039-6.67e-4z" fill="#af1876"/>
  <path d="m26.559 7.3385c-1.2159-0.02951-2.4569 0.073914-3.7109 0.32487-7.8626 1.5722-13.945 9.1765-12.219 17.444v6.67e-4c1.3387 6.4124 7.5834 11.372 14.37 9.89 5.2081-1.1371 9.2391-6.2515 7.9629-11.811v-6.67e-4c-0.96824-4.2196-5.1521-7.4893-9.707-6.3867-3.4202 0.82768-6.0736 4.2585-5.1133 8.0013 0.71368 2.7818 3.5431 4.9449 6.6406 4.0964h0.001333c2.2751-0.625 4.058-2.9805 3.2949-5.5755v-6.67e-4c-0.11408-0.38863-0.32414-0.74126-0.54948-1.0801 0.5195 0.54086 0.95145 1.1805 1.1243 1.9342v6.66e-4c0.67388 2.9349-1.623 5.8539-4.597 6.5033-4.1713 0.91099-8.2313-2.3089-9.1009-6.4746-1.181-5.6595 3.1563-11.086 8.7598-12.206 7.4313-1.4871 14.483 4.1831 15.891 11.505 1.8313 9.5232-5.4323 18.429-14.789 20.164-0.51672 0.09574-1.8631 0.16718-2.381 0.22046 0.2399 0.021483 1.3239 0.099177 1.5645 0.11198 11.046 0 20-8.9543 20-20-0.0017-0.43138-0.01731-0.8626-0.04687-1.293-0.0023-0.01285-4e-3 -0.02556-0.0065-0.03841-1.614-8.3929-8.8768-15.124-17.388-15.33z" fill="#691bf9"/>
 </g>
</svg>
