<svg width="64" height="64" version="1.1" viewBox="0 0 16.933 16.933" xmlns="http://www.w3.org/2000/svg">
 <g transform="matrix(1.0384 0 0 1.0379 -.32504 -.31693)" stroke-width=".92766">
  <path d="m7.412 1.674a6.88 6.88 0 0 0-5.727 5.691c0.564-0.604 5.037-5.05 5.727-5.691zm3.08 0.219 0.02 7e-3a6.88 6.88 0 0 0-0.02-7e-3zm-2.616 0.137c-7e-3 -7e-3 -0.054 0.018-0.105 0.056-0.157 0.116-1.567 1.366-2.023 1.794-0.237 0.222-0.556 0.513-0.71 0.646s-0.498 0.436-0.764 0.673c-0.266 0.236-0.541 0.479-0.612 0.538-0.145 0.12-0.638 0.557-0.846 0.75-0.075 0.069-0.187 0.165-0.247 0.213s-0.206 0.175-0.324 0.282c-0.222 0.201-0.435 0.372-0.576 0.487a6.88 6.88 0 0 0-0.082 0.998 6.88 6.88 0 0 0 0.507 2.58c0.087-0.145 0.213-0.339 0.362-0.569l1.264-1.958 1.26-1.952a12974 12974 0 0 0 2.51-3.89c0.313-0.483 0.401-0.632 0.386-0.647zm3.613 0.267c-0.04 0.072-0.1 0.151-0.168 0.294-1.895 3.961-3.09 8.228-3.286 11.738-0.018 0.321-0.043 0.716-0.054 0.876l-4e-3 0.116a6.88 6.88 0 0 0 0.49 0.025 6.88 6.88 0 0 0 6.879-6.88 6.88 6.88 0 0 0-3.857-6.17zm-9.172 9.248a6.88 6.88 0 0 0 0.073 0.137c-0.024-0.046-0.05-0.09-0.073-0.137zm0.31 0.548a6.88 6.88 0 0 0 0.093 0.15l-0.094-0.15zm0.438 0.632a6.88 6.88 0 0 0 0.071 0.085c-0.023-0.03-0.048-0.056-0.071-0.085zm0.404 0.463a6.88 6.88 0 0 0 0.13 0.135 6.87 6.87 0 0 1-0.13-0.135zm0.517 0.494a6.88 6.88 0 0 0 0.06 0.055zm0.528 0.41a6.88 6.88 0 0 0 0.159 0.108 6.895 6.895 0 0 1-0.16-0.108zm0.586 0.37a6.88 6.88 0 0 0 0.09 0.052c-0.03-0.016-0.06-0.035-0.09-0.052zm0.638 0.316a6.88 6.88 0 0 0 0.133 0.055c-0.044-0.018-0.09-0.035-0.133-0.055zm0.62 0.233a6.88 6.88 0 0 0 0.113 0.037c-0.037-0.011-0.075-0.025-0.112-0.037zm0.71 0.19a6.88 6.88 0 0 0 0.113 0.02c-0.037-7e-3 -0.075-0.012-0.112-0.02zm0.636 0.099a6.88 6.88 0 0 0 0.13 0.014z" fill="#eddf36" style="paint-order:markers stroke fill"/>
  <path d="m8.467 1.58a6.92 6.92 0 0 0-1.047 0.086c-0.678 0.63-5.198 5.122-5.746 5.71a6.73 6.73 0 0 0-0.015 0.102c0.141-0.115 0.36-0.291 0.586-0.496 0.118-0.107 0.264-0.234 0.324-0.282s0.172-0.144 0.247-0.213c0.208-0.193 0.701-0.63 0.846-0.75 0.07-0.06 0.346-0.302 0.612-0.538 0.266-0.237 0.61-0.54 0.764-0.673 0.154-0.134 0.473-0.424 0.71-0.646 0.456-0.428 1.866-1.678 2.022-1.794 0.051-0.037 0.099-0.063 0.106-0.056 0.015 0.015-0.073 0.164-0.387 0.648a1764 1764 0 0 0-2.509 3.889l-1.26 1.952-1.264 1.96c-0.15 0.231-0.277 0.427-0.365 0.571a6.883 6.883 0 0 0 5.885 4.28l5e-3 -0.125c0.011-0.16 0.036-0.555 0.054-0.876 0.197-3.51 1.392-7.777 3.286-11.738 0.07-0.147 0.131-0.227 0.172-0.301a6.889 6.889 0 0 0-3.026-0.71z" fill="#c63166"/>
  <path d="m8.04 1.613a6.88 6.879 0 0 0-0.44 0.037 6.88 6.879 0 0 1 0.44-0.037zm-6.355 5.76-2e-3 3e-3a6.88 6.879 0 0 0-0.016 0.1 6.88 6.879 0 0 1 0.018-0.103z" fill="#d8d342"/>
 </g>
</svg>
