<svg xmlns="http://www.w3.org/2000/svg" width="64" height="64" viewBox="0 0 16.933 16.933"><path fill="#c8f178" d="M32.121 5c-1.168-.005-2.338.246-3.23.756L10.969 15.998c-.692.395-1.332 1.016-1.86 1.744l6.344 3.7 12.549 7.316c1.698.99 3.11 2.674 3.998 4.568.888-1.894 2.3-3.578 3.998-4.568L54.87 17.754c-.493-.648-1.073-1.203-1.7-1.569l-8.913-5.199-8.916-5.201c-.888-.518-2.053-.78-3.221-.785zm23.748 14.486-6.318 3.684-12.541 7.314c-2.086 1.217-4.008 4.566-4.014 6.988 0 .014.004.028.004.041l-.002.678.062 13.842.032 6.865c.737-.112 1.437-.323 2.017-.654l17.922-10.242c1.785-1.02 3.241-3.517 3.25-5.572l.047-10.322.045-10.32c.003-.739-.186-1.535-.504-2.301zm-47.713.016c-.269.693-.435 1.402-.438 2.068l-.046 10.322-.045 10.32c-.01 2.056 1.423 4.566 3.199 5.602l8.916 5.199 8.916 5.201c.64.373 1.425.608 2.25.715l.031-6.897.063-13.842-.002-.677c0-.014.004-.028.004-.041-.006-2.423-1.929-5.772-4.014-6.989L14.449 23.17 8.156 19.5z" style="isolation:isolate" transform="scale(.26458)"/><path fill="#a5de37" d="M32.09 12c-.865-.004-1.732.183-2.393.56l-6.638 3.794-6.637 3.793c-.46.262-.886.661-1.252 1.128l.283.166 12.55 7.317c1.698.99 3.109 2.674 3.997 4.568.889-1.893 2.3-3.577 3.998-4.568l12.55-7.317.263-.154c-.337-.409-.716-.762-1.127-1.002l-13.207-7.703c-.658-.384-1.522-.578-2.387-.582m17.701 11.029-.24.14-12.541 7.315c-2.086 1.217-4.008 4.566-4.014 6.988q.002.021.004.041l-.002.674.063 13.686c.45-.09.88-.227 1.242-.433l6.638-3.793 6.637-3.793c1.322-.756 2.402-2.607 2.408-4.13l.035-7.644.034-7.644c.002-.452-.1-.933-.264-1.406zm-35.564.012a4.2 4.2 0 0 0-.213 1.234l-.035 7.645-.033 7.644c-.007 1.523 1.055 3.383 2.37 4.15l13.208 7.704c.408.237.898.394 1.416.486l.062-13.717-.002-.674q.002-.02.004-.04c-.006-2.423-1.928-5.773-4.013-6.99L14.45 23.17z" style="isolation:isolate" transform="scale(.26458)"/></svg>