<svg width="64" height="64" version="1.1" viewBox="0 0 16.933 16.933" xmlns="http://www.w3.org/2000/svg">
 <path transform="scale(.26458)" d="m32.121 5c-1.1678-0.0051677-2.338 0.24588-3.2305 0.75586l-17.922 10.242c-0.69199 0.39546-1.3312 1.0164-1.8594 1.7441l6.3438 3.6992 12.549 7.3164c1.6983 0.9908 3.1093 2.6744 3.998 4.5684 0.88858-1.8937 2.2997-3.5776 3.998-4.5684l18.873-11.004c-0.49327-0.64805-1.0725-1.2027-1.6992-1.5684l-8.9141-5.1992-8.916-5.2012c-0.8879-0.51804-2.0529-0.77999-3.2207-0.78516zm23.748 14.486-6.3184 3.6836-12.541 7.3145c-2.0854 1.2166-4.0076 4.5659-4.0137 6.9883 8e-6 0.013591 0.003967 0.027436 0.003906 0.041016l-0.001953 0.67773 0.0625 13.842 0.03125 6.8652c0.73733-0.1127 1.4378-0.323 2.0176-0.6543l17.922-10.242c1.785-1.02 3.2409-3.5166 3.25-5.5723l0.046875-10.322 0.044922-10.32c0.003303-0.73856-0.1857-1.5345-0.50391-2.3008zm-47.713 0.015625c-0.26866 0.69328-0.43456 1.4025-0.4375 2.0684l-0.046875 10.322-0.044922 10.32c-0.0091995 2.056 1.4234 4.5658 3.1992 5.6016l8.916 5.1992 8.916 5.2012c0.63972 0.37314 1.4247 0.60766 2.25 0.71484l0.03125-6.8965 0.0625-13.842-0.001953-0.67773c-6.1e-5 -0.01356 0.003898-0.027446 0.003906-0.041016-0.006074-2.4224-1.9283-5.7717-4.0137-6.9883l-12.541-7.3145-6.293-3.668z" fill="#c8f178" stroke-width="1.3333" style="isolation:isolate"/>
 <path transform="scale(.26458)" d="m32.09 12c-0.86505-0.003828-1.7315 0.18278-2.3926 0.56055l-6.6387 3.793-6.6367 3.793c-0.45931 0.26249-0.88606 0.66185-1.252 1.1289l0.2832 0.16602 12.549 7.3164c1.6983 0.9908 3.1093 2.6744 3.998 4.5684 0.88858-1.8937 2.2997-3.5776 3.998-4.5684l12.549-7.3164 0.26367-0.1543c-0.33655-0.40913-0.71625-0.76235-1.127-1.002l-13.207-7.7031c-0.6577-0.38373-1.5217-0.5782-2.3867-0.58203zm17.701 11.029-0.24024 0.14062-12.541 7.3145c-2.0854 1.2166-4.0076 4.5659-4.0137 6.9883 8e-6 0.013591 0.003967 0.027436 0.003906 0.041016l-0.001953 0.67383 0.0625 13.686c0.45109-0.091052 0.8804-0.22691 1.2422-0.43359l6.6387-3.793 6.6367-3.793c1.3222-0.75553 2.4014-2.6062 2.4082-4.1289l0.035156-7.6445 0.033204-7.6445c0.00202-0.45179-0.098797-0.93245-0.26367-1.4062zm-35.564 0.011719c-0.13316 0.4168-0.21114 0.83686-0.21289 1.2344l-0.035156 7.6445-0.033204 7.6445c-0.006813 1.5229 1.0557 3.3832 2.3711 4.1504l13.207 7.7031c0.40774 0.2378 0.89855 0.39434 1.416 0.48633l0.0625-13.717-0.001953-0.67383c-6.1e-5 -0.01356 0.003898-0.027446 0.003906-0.041016-0.006074-2.4224-1.9283-5.7717-4.0137-6.9883l-12.541-7.3145-0.22266-0.12891z" fill="#a5de37" stroke-width="1.3333" style="isolation:isolate"/>
</svg>
