<svg xmlns="http://www.w3.org/2000/svg" width="64" height="64" viewBox="0 0 16.933 16.933"><g transform="translate(0 -280.067)" paint-order="stroke markers fill"><circle cx="8.467" cy="288.533" r="6.879" fill="#96d16f"/><circle r="3.44" cy="288.533" cx="8.467" opacity=".15"/><g fill="#fff"><path d="M8.467 285.623a2.91 2.91 0 0 0-2.91 2.91 2.91 2.91 0 0 0 2.91 2.91 2.91 2.91 0 0 0 2.91-2.91 2.91 2.91 0 0 0-2.91-2.91zm0 1.323a1.587 1.587 0 0 1 1.587 1.587 1.587 1.587 0 0 1-1.587 1.588 1.587 1.587 0 0 1-1.588-1.588 1.587 1.587 0 0 1 1.588-1.587z"/><path d="M7.938 284.432h1.058v1.852H7.938zM7.938 290.782h1.058v1.852H7.938zM12.568 288.004v1.058h-1.852v-1.058zM6.218 288.004v1.058H4.366v-1.058zM11.74 291.06l-.747.747-1.31-1.31.748-.747zM7.25 286.57l-.747.747-1.31-1.31.748-.747zM5.941 291.807l-.748-.748 1.31-1.31.748.749zM10.431 287.317l-.748-.748 1.31-1.31.748.749z"/></g></g></svg>