<svg xmlns="http://www.w3.org/2000/svg" width="64" height="64" viewBox="0 0 16.933 16.933"><rect width="13.758" height="13.758" x="1.587" y="1.587" fill="#3f51b5" rx="2.117" ry="2.117" style="paint-order:markers stroke fill"/><path fill="#fff" d="M3.704 2.646c-.586 0-1.058.472-1.058 1.058v9.525c0 .586.472 1.058 1.058 1.058h9.525c.587 0 1.059-.472 1.059-1.058v-6.35l-4.234-4.233zm7.937 0 2.647 2.645V3.704c0-.586-.472-1.058-1.059-1.058z" style="paint-order:markers stroke fill"/><path fill="#ccc" d="M5.292 11.907v-.53H9.79v.53zm0-1.323v-.53h6.35v.53zm0-1.323v-.53h6.35v.53zm0-1.323v-.53h6.35v.53z"/></svg>