<svg width="64" height="64" version="1.1" viewBox="0 0 64 64" xmlns="http://www.w3.org/2000/svg">
 <rect x="6" y="6" width="52" height="52" rx="8" ry="8" fill="#528fff"/>
 <rect x="16" y="16" width="14" height="14" rx="2" ry="2" fill="#ffffff" stroke-linecap="round" stroke-linejoin="round" stroke-width="2.8"/>
 <path d="m36 16c-1.108 0-2 0.892-2 2v10c0 1.108 0.892 2 2 2h10c1.108 0 2-0.892 2-2v-10c0-1.108-0.892-2-2-2zm0 2h10v10h-10z" fill="#ffffff" stroke-linecap="round" stroke-linejoin="round" stroke-width="2.8"/>
 <path d="m36 34c-1.108 0-2 0.892-2 2v10c0 1.108 0.892 2 2 2h10c1.108 0 2-0.892 2-2v-10c0-1.108-0.892-2-2-2zm0 2h10v10h-10z" fill="#ffffff" stroke-linecap="round" stroke-linejoin="round" stroke-width="2.8"/>
 <path d="m18 34c-1.108 0-2 0.892-2 2v10c0 1.108 0.892 2 2 2h10c1.108 0 2-0.892 2-2v-10c0-1.108-0.892-2-2-2zm0 2h10v10h-10z" fill="#ffffff" stroke-linecap="round" stroke-linejoin="round" stroke-width="2.8"/>
</svg>
