<svg width="64" height="64" version="1.1" viewBox="0 0 16.933 16.933" xmlns="http://www.w3.org/2000/svg">
 <g transform="translate(0 -280.07)">
  <circle cx="8.4665" cy="288.53" r="7.1436" fill="#48cd7c" style="paint-order:stroke markers fill"/>
  <path d="M12.154 285.776a.51.51 0 1 0-.771.558 2.128 2.128 0 0 1-.467 1.23c-.93-1.06-1.323-1.494-1.505-1.669.097-.062.18-.1.233-.121a.51.51 0 1 0-.179-.465c-.384.163-1.697.89-1.502 3.155-1.438.041-2.194.422-2.538.67a.512.512 0 1 0 .358.5l1.504 1.58c-.035.02-.07.041-.104.059a.511.511 0 1 0 .207.46c.704-.35 1.286-1.207 1.134-2.772a4.929 4.929 0 0 0 1.241-.151c.559-.147 1.023-.399 1.375-.75.444-.444.698-1.026.74-1.694a.511.511 0 0 0 .274-.59zm-4.667 5.284l-1.569-1.647c.101-.054.226-.113.38-.169l1.469 1.464c-.084.145-.18.26-.28.352zm.395-.59l-1.316-1.312a4.95 4.95 0 0 1 .722-.142l.753.719c-.022.293-.08.535-.159.735zm-.266-1.488c.128-.01.263-.017.406-.02.017.155.026.3.028.435zm.85-.52a4.24 4.24 0 0 1 .004-.91l.735.862c-.231.033-.478.05-.74.048zm1.024-.1l-.965-1.13c.052-.224.124-.416.208-.58.313.34.895.996 1.356 1.52-.183.08-.383.144-.599.19zm.83-.305c-.817-.932-1.233-1.396-1.456-1.628.112-.163.232-.29.347-.387.196.195.96 1.054 1.533 1.706-.124.117-.267.22-.424.309z" fill="#fff"/>
 </g>
</svg>
