<svg xmlns="http://www.w3.org/2000/svg" width="64" height="64" version="1.0"><rect width="52" height="52" x="6" y="6" fill="#666" fill-opacity=".91" rx="8" ry="8"/><path fill="#474747" fill-opacity=".961" d="M6 20h52v24H6z" opacity=".75"/><path fill="#fff" d="M28.807 39.237q0 4.142-2.937 6.452T17.952 48q-2.554 0-4.725-.391-2.171-.393-3.618-1.09v-3.75q1.532.698 3.788 1.265 2.299.566 4.725.566 3.406 0 5.108-1.351 1.746-1.352 1.746-3.662 0-1.526-.639-2.572-.638-1.047-2.213-1.919-1.533-.915-4.3-1.918-3.873-1.439-5.874-3.531-1.958-2.093-1.958-5.712 0-2.485 1.234-4.228 1.235-1.788 3.406-2.747 2.213-.96 5.065-.96 2.512 0 4.598.48t3.788 1.265L26.891 21.1q-1.575-.698-3.448-1.177-1.83-.48-3.83-.48-2.853 0-4.3 1.264-1.448 1.221-1.448 3.27 0 1.57.639 2.616.638 1.046 2.086 1.875 1.447.828 3.916 1.787 2.682 1.003 4.512 2.18 1.873 1.133 2.81 2.746.979 1.614.979 4.055m14.175-22.801q5.96 0 8.684 2.398t2.724 6.757q0 2.573-1.149 4.84-1.107 2.223-3.789 3.618-2.639 1.395-7.194 1.395h-3.49v12.12h-3.832V16.436zm-.34 3.357h-3.874v12.294h3.065q4.342 0 6.47-1.439t2.128-4.883q0-3.008-1.873-4.49t-5.917-1.482z" aria-label="SP"/></svg>