<svg xmlns="http://www.w3.org/2000/svg" width="64" height="64" version="1.0"><rect width="52" height="52" x="6" y="6" fill="#677821" fill-opacity=".91" rx="8" ry="8"/><path fill="#a1972f" fill-opacity=".961" d="M6 20h52v24H6z" opacity=".5"/><path fill="#fff" d="M41.599 39.237q0 4.142-2.937 6.452T30.744 48q-2.554 0-4.725-.391-2.171-.393-3.618-1.09v-3.75q1.532.698 3.788 1.265 2.299.566 4.725.566 3.406 0 5.108-1.351 1.746-1.352 1.746-3.662 0-1.526-.639-2.572-.638-1.047-2.213-1.919-1.533-.915-4.3-1.918-3.874-1.439-5.874-3.531-1.958-2.093-1.958-5.712 0-2.485 1.234-4.228 1.235-1.788 3.406-2.747 2.213-.96 5.065-.96 2.512 0 4.598.48t3.788 1.265L39.683 21.1q-1.575-.698-3.448-1.177-1.83-.48-3.83-.48-2.853 0-4.3 1.264-1.448 1.221-1.448 3.27 0 1.57.639 2.616.638 1.046 2.086 1.875t3.916 1.787q2.682 1.003 4.512 2.18 1.873 1.133 2.81 2.746.979 1.614.979 4.055" aria-label="S"/></svg>