<svg width="64" height="64" version="1.0" xmlns="http://www.w3.org/2000/svg">
 <rect x="6" y="6" width="52" height="52" rx="8" ry="8" fill="#666666" fill-opacity=".9098"/>
 <rect x="6" y="20" width="52" height="24" fill="#474747" fill-opacity=".96078" opacity=".75" stroke-linecap="round" stroke-linejoin="round" stroke-width=".6368"/>
 <path d="m28.807 39.237q0 4.1417-2.9372 6.4523-2.9372 2.3106-7.9178 2.3106-2.5541 0-4.7251-0.39237-2.171-0.39237-3.6183-1.0899v-3.7493q1.5325 0.69755 3.7886 1.2643 2.2987 0.56676 4.7251 0.56676 3.4055 0 5.1082-1.3515 1.7453-1.3515 1.7453-3.6621 0-1.5259-0.63854-2.5722-0.63852-1.0463-2.2136-1.9183-1.5325-0.91553-4.2994-1.9183-3.8737-1.4387-5.8745-3.5313-1.9582-2.0926-1.9582-5.7112 0-2.485 1.2345-4.2289 1.2345-1.7875 3.4055-2.7466 2.2136-0.95913 5.0657-0.95913 2.5115 0 4.5974 0.47956 2.0859 0.47956 3.7886 1.2643l-1.1919 3.3569q-1.575-0.69755-3.4481-1.1771-1.8304-0.47956-3.8312-0.47956-2.8521 0-4.2994 1.2643-1.4473 1.2207-1.4473 3.2698 0 1.5695 0.63853 2.6158 0.63854 1.0463 2.0859 1.8747 1.4473 0.82834 3.9163 1.7875 2.6818 1.0027 4.5123 2.1798 1.873 1.1335 2.8095 2.7466 0.97908 1.6131 0.97908 4.0545zm14.175-22.801q5.9596 0 8.684 2.3978 2.7244 2.3978 2.7244 6.7575 0 2.5722-1.1494 4.8392-1.1068 2.2234-3.7886 3.6185-2.6393 1.3951-7.1941 1.3951h-3.4906v12.12h-3.8312v-31.128zm-0.34055 3.3569h-3.8737v12.294h3.0649q4.342 0 6.4704-1.4387 2.1284-1.4387 2.1284-4.8828 0-3.0082-1.873-4.4905-1.873-1.4823-5.917-1.4823z" fill="#ffffff" stroke-width=".13777" aria-label="SP"/>
</svg>
