<svg width="64" height="64" xmlns="http://www.w3.org/2000/svg" viewBox="0 0 64 64"><defs><style>.cls-1{fill:#007d00;}.cls-2{fill:#fff;}</style></defs><g id="Camada_2" data-name="Camada 2"><circle class="cls-1" cx="32" cy="31.9754" r="27" transform="translate(-0.1319 0.1325) rotate(-0.2368)"/></g><g id="Camada_5" data-name="Camada 5"><path class="cls-2" d="M51.19,39.3355l-2.811-15.3249a5.47,5.47,0,0,0-.18-.9789L48.1934,23l-.0017.0022A5.4986,5.4986,0,0,0,42.9035,19H21.0966a5.4986,5.4986,0,0,0-5.2882,4.0022L15.8066,23l-.0058.0317a5.4614,5.4614,0,0,0-.18.9789L12.81,39.3355a3.4881,3.4881,0,0,0,6.009,3.339l.0134.0047L25.5944,35H38.4056l6.7618,7.6792.0134-.0047A3.4881,3.4881,0,0,0,51.19,39.3355Z"/></g><g id="Camada_3" data-name="Camada 3"><circle class="cls-2" cx="37.5" cy="34.5" r="4.5"/><circle class="cls-2" cx="26.5" cy="34.5" r="4.5"/><circle class="cls-1" cx="26.375" cy="34.375" r="2.375"/><circle class="cls-1" cx="37.5" cy="34.5" r="2.5"/><rect class="cls-1" x="22" y="23" width="2" height="8" rx="0.6928"/><rect class="cls-1" x="19" y="26" width="8" height="2" rx="0.6928"/><circle class="cls-1" cx="41" cy="29.5" r="1.25"/><circle class="cls-1" cx="38.5" cy="27" r="1.25"/><circle class="cls-1" cx="41" cy="24.5" r="1.25"/><circle class="cls-1" cx="43.5" cy="27" r="1.25"/></g></svg>