<svg xmlns="http://www.w3.org/2000/svg" width="64" height="64" viewBox="0 0 16.933 16.933"><g transform="translate(0 -280.067)"><circle cx="8.467" cy="288.533" r="6.879" fill="#34b05c" paint-order="stroke markers fill"/><g opacity=".15" stroke-width=".969" paint-order="stroke markers fill"><path d="M8.467 285.529a3.004 3.004 0 0 0-3.005 3.004 3.004 3.004 0 0 0 3.005 3.005 3.004 3.004 0 0 0 3.004-3.005 3.004 3.004 0 0 0-3.004-3.004zm0 1.366a1.639 1.639 0 0 1 1.638 1.638 1.639 1.639 0 0 1-1.638 1.64 1.639 1.639 0 0 1-1.64-1.64 1.639 1.639 0 0 1 1.64-1.638z"/><path d="M7.92 284.3h1.093v1.911H7.921zM7.92 290.855h1.093v1.911H7.921zM12.7 287.987v1.092H10.79v-1.092zM6.145 287.987v1.092H4.234v-1.092zM11.846 291.14l-.772.773-1.352-1.352.773-.772zM7.211 286.506l-.772.772-1.352-1.352.773-.772zM5.86 291.913l-.773-.772 1.352-1.352.772.772zM10.495 287.278l-.773-.772 1.352-1.352.772.772z"/></g><rect width="3.175" height="5.027" x="6.879" y="288.533" rx="1.587" ry="1.253" opacity=".65" fill="#fff" paint-order="stroke markers fill"/><path d="M6.88 284.425a3.44 3.44 0 1 0 3.174.002v2.519l-1.587 1.587-1.588-1.587z" fill="#fff" paint-order="stroke markers fill"/><path d="M7.144 289.856z" fill="#fff"/></g></svg>