<svg width="64" height="64" version="1.1" viewBox="0 0 16.933 16.933" xmlns="http://www.w3.org/2000/svg">
 <g transform="translate(0 -280.07)">
  <circle cx="8.4665" cy="288.53" r="7.1436" fill="#34b05c" style="paint-order:stroke markers fill"/>
  <g opacity=".15" stroke-width=".969" paint-order="stroke markers fill">
   <path d="m8.467 285.53a3.004 3.004 0 0 0-3.005 3.004 3.004 3.004 0 0 0 3.005 3.005 3.004 3.004 0 0 0 3.004-3.005 3.004 3.004 0 0 0-3.004-3.004zm0 1.366a1.639 1.639 0 0 1 1.638 1.638 1.639 1.639 0 0 1-1.638 1.64 1.639 1.639 0 0 1-1.64-1.64 1.639 1.639 0 0 1 1.64-1.638z"/>
   <path d="M7.92 284.3h1.093v1.911H7.921zM7.92 290.855h1.093v1.911H7.921zM12.7 287.987v1.092H10.79v-1.092zM6.145 287.987v1.092H4.234v-1.092zM11.846 291.14l-.772.773-1.352-1.352.773-.772zM7.211 286.506l-.772.772-1.352-1.352.773-.772zM5.86 291.913l-.773-.772 1.352-1.352.772.772zM10.495 287.278l-.773-.772 1.352-1.352.772.772z"/>
  </g>
  <g fill="#fff">
   <rect x="6.879" y="288.53" width="3.175" height="5.027" rx="1.587" ry="1.253" opacity=".65" paint-order="stroke markers fill"/>
   <path d="m6.88 284.42a3.44 3.44 0 1 0 3.174 2e-3v2.519l-1.587 1.587-1.588-1.587z" paint-order="stroke markers fill"/>
   <path d="m7.144 289.86"/>
  </g>
 </g>
</svg>
