<svg xmlns="http://www.w3.org/2000/svg" width="64" height="64" viewBox="0 0 16.933 16.933"><g transform="translate(0 -280.07)"><circle cx="8.466" cy="288.53" r="7.144" fill="#48cd7c" style="paint-order:stroke markers fill"/><path fill="#fff" d="M12.154 285.776a.51.51 0 1 0-.771.558 2.13 2.13 0 0 1-.467 1.23c-.93-1.06-1.323-1.494-1.505-1.669.097-.062.18-.1.233-.121a.51.51 0 1 0-.179-.465c-.384.163-1.697.89-1.502 3.155-1.438.041-2.194.422-2.538.67a.512.512 0 1 0 .358.5l1.504 1.58-.104.059a.511.511 0 1 0 .207.46c.704-.35 1.286-1.207 1.134-2.772a5 5 0 0 0 1.241-.151c.559-.147 1.023-.399 1.375-.75.444-.444.698-1.026.74-1.694a.51.51 0 0 0 .274-.59m-4.667 5.284-1.569-1.647c.101-.054.226-.113.38-.169l1.469 1.464c-.084.145-.18.26-.28.352m.395-.59-1.316-1.312a5 5 0 0 1 .722-.142l.753.719a2.5 2.5 0 0 1-.159.735m-.266-1.488q.192-.015.406-.02.025.233.028.435zm.85-.52a4.2 4.2 0 0 1 .004-.91l.735.862q-.347.05-.74.048zm1.024-.1-.965-1.13c.052-.224.124-.416.208-.58.313.34.895.996 1.356 1.52q-.275.12-.599.19m.83-.305a60 60 0 0 0-1.456-1.628c.112-.163.232-.29.347-.387.196.195.96 1.054 1.533 1.706q-.187.176-.424.309"/></g></svg>