<svg width="64" height="64" version="1.1" viewBox="0 0 64 64" xmlns="http://www.w3.org/2000/svg" xmlns:xlink="http://www.w3.org/1999/xlink">
 <rect x="6" y="6" width="52" height="52" rx="3" ry="3" fill="#df8029"/>
 <path d="m31.518 16c-0.89265 0.03323-1.3833 0.3329-1.7031 0.97656-0.20517 0.41303-0.37286 1.1011-0.37305 1.5293-6.64e-4 1.5708-1.5866 3.0039-3.3262 3.0039-0.85354 0-1.3224-0.23496-3.0508-1.5293-0.78668-0.58914-1.2833-0.43592-2.5039 0.76562-1.1596 1.1417-1.1889 1.6884-0.16211 3.0508 0.42432 0.56317 0.85428 1.3138 0.95508 1.6699 0.24934 0.88058-0.15888 2.4925-0.81445 3.209-0.53733 0.5873-1.8717 1.0449-3.0352 1.0449-1.1064 0-1.5039 0.62987-1.5039 2.373 0 1.3574 0.052085 1.5427 0.51758 1.8516 0.28446 0.18891 1.1062 0.42787 1.8281 0.53125 0.72195 0.10338 1.5553 0.34766 1.8496 0.54297 0.62133 0.41241 1.3415 1.8884 1.3477 2.7637 0.0049 0.63542-0.48417 1.7589-0.98828 2.2695-0.54944 0.55653-0.95137 1.5694-0.80664 2.0312 0.18542 0.59173 1.4414 1.857 2.0918 2.1074 0.37254 0.1435 0.64318 0.10169 1.0039-0.1543 1.0573-0.75012 2.8662-1.5645 3.4766-1.5645 0.92017 0 2.4465 0.81207 2.7812 1.4805 0.15759 0.31482 0.35405 1.0487 0.4375 1.6289 0.2023 1.4071 0.52208 2.0693 1.0586 2.1836 0.24391 0.05169 0.6364 0.13945 0.87109 0.19336 0.2347 0.05538 0.7631 0.05538 1.1738 0 1.0713-0.14387 1.6423-0.94262 1.8223-2.5488 0.16452-1.4686 0.29937-1.7049 1.3809-2.3965 1.0982-0.70224 1.9578-0.83937 2.8027-0.44727 0.70054 0.32516 0.98369 0.49365 2.1328 1.2598 0.84194 0.56145 1.3666 0.46867 2.3398-0.42188 1.4634-1.3391 1.4929-1.9214 0.18164-3.4512-1.2481-1.4559-1.2623-3.2471-0.035156-4.623 0.46993-0.52687 0.89128-0.71014 2.2832-0.98828 2.1016-0.41992 2.4431-0.76311 2.4492-2.4688 0.0062-1.7036-0.26494-1.982-2.2383-2.291-1.8777-0.29402-2.4789-0.71825-3.1387-2.2051-0.54854-1.2363-0.39719-1.9608 0.77344-3.6582 0.60031-0.87036 0.89912-1.5056 0.83008-1.7734-0.1543-0.59764-2.0994-2.3809-2.5977-2.3809-0.23074 0-0.84515 0.3323-1.3652 0.73438-1.4346 1.1094-2.289 1.36-3.5156 1.0312-1.4413-0.38608-1.9543-0.99485-2.3184-2.7539-0.41805-2.0202-0.68764-2.3838-1.877-2.5195-0.39627-0.04554-0.73761-0.063815-1.0352-0.052735v-0.003906zm0.48242 10a6 6 0 0 1 6 6 6 6 0 0 1-6 6 6 6 0 0 1-6-6 6 6 0 0 1 6-6z" fill="#fff"/>
</svg>
