<svg width="64" height="64" version="1.1" xmlns="http://www.w3.org/2000/svg" xmlns:xlink="http://www.w3.org/1999/xlink">
 <defs>
  <path id="c" d="m0.735 43.06 23.265-42.35 23.09 42.31s-2.212-0.155-5.272-0.291c-2.851-0.127-1.794 0.114-8.278-1.089-4.911-0.91-8.522-2.865-15.253-2.727-7.453 0.153-17.549 4.149-17.549 4.149"/>
 </defs>
 <g transform="matrix(1.275 0 0 1.275 1.5109 -16.306)" stroke-width=".7843">
  <use transform="translate(0,16)" width="100%" height="100%" fill="#ae1b29" xlink:href="#c"/>
  <g transform="translate(0,16)" color="#000000">
   <path d="m6.03 37.701 17.947-32.938 19.246 35.625s0.111 0.275-0.39 0.133c-0.471-0.134-0.874-0.529-1.362-0.487-0.411 0.035-0.656 0.63-1.063 0.565-0.582-0.093-0.88-1.202-1.469-1.185-0.519 0.015-0.391 1.01-1.166 1.072-0.687 0.058-0.575-1.827-1.267-1.885-0.469-0.039-0.574 1.942-1.156 1.941-0.616 0 0.025-2.85-0.863-2.897-0.695-0.037-0.313 2.501-0.937 2.504-0.861 4e-3 -0.13-4.157-1.192-4.139-0.755 0.012 0.057 3.851-0.926 3.839-0.905-0.011-0.033-5.941-1.049-5.869-0.838 0.059 0.103 5.304-0.819 5.326-1.117 0.026-5e-3 -7.306-1.114-7.315-0.981-9e-3 -0.102 6.486-1 6.486-1.094 0 3e-3 -8.38-1.037-8.435-1.132-0.06 0.277 8.418-0.957 8.409-1.191-9e-3 0.34-10.639-1.04-10.741-1.13-0.083 0.309 9.951-0.851 9.995-1.218 0.046 0.368-11.688-1.073-11.691-1.055-3e-3 0.074 11.242-1.019 11.4-1.01-0.223 0.202-12.413-0.978-12.417-1.218-4e-3 0.206 12.12-1.055 12.148-1.057 0.014 0.449-12.166-0.939-12.12-1.276 0.038 0.049 12.07-1 12.05-1.132-0.013 0.29-11.13-0.979-11.06-0.967 0.5-0.037 8.599-0.965 11.171-1.017-1.01 0.073-7.962-1.058-9.186-0.928 1.336-0.202 9.355-0.957 9.385-0.927 0.045-0.045-6.291-1.039-6.351-0.595-0.036-0.911 7.177-1.64 7.205-0.847 0.085-0.754-4.057-1.34-4.044-0.679 0.087-0.501 4.532-1.392 4.543-0.512 0.122-0.636-1.752-1.094-1.708-0.411 0.039-0.488 1.971-1.167 2.319-0.621 0.084-0.319-0.592 0.164-1.647" fill="#f55" stroke-width=".7843"/>
  </g>
 </g>
</svg>
