<svg width="64" height="64" version="1.1" xmlns="http://www.w3.org/2000/svg">
 <g transform="translate(0 -3)">
  <g>
   <rect x="28" y="11" width="28" height="32" ry="2" fill="#ffd351"/>
   <rect x="8" y="9" width="28" height="32" ry="2" fill="#7bd57d"/>
   <rect x="19" y="15" width="28" height="32" ry="2" fill="#707ed0"/>
   <path d="m7.16 23c-1.1966 0-2.16 0.91749-2.16 2.0571v30.857c0 1.7095 1.445 3.0857 3.24 3.0857h47.52c1.795 0 3.24-1.3762 3.24-3.0857v-30.857c0-1.1397-0.96336-2.0571-2.16-2.0571z" fill="#c49a6c"/>
  </g>
  <path d="m32 36a2 2 0 0 0-2 2v6a2 2 0 0 0 2 2 2 2 0 0 0 2-2v-6a2 2 0 0 0-2-2zm0 7a1 1 0 0 1 1 1 1 1 0 0 1-1 1 1 1 0 0 1-1-1 1 1 0 0 1 1-1z" fill="#fff"/>
  <path d="m32 24h2v2h-2z" fill="#f2f2f2"/>
  <path d="m30 26h2v2h-2z" fill="#e0e0e0"/>
  <path d="m32 28h2v2h-2z" fill="#f2f2f2"/>
  <path d="m30 30h2v2h-2z" fill="#e0e0e0"/>
  <path d="m32 32h2v2h-2z" fill="#f2f2f2"/>
  <path d="m30 34h2v2h-2z" fill="#e0e0e0"/>
  <path transform="translate(0,3)" d="m42 47c-0.554 0-1 0.446-1 1v4c0 0.554 0.446 1 1 1h11c0.554 0 1-0.446 1-1v-4c0-0.554-0.446-1-1-1h-11zm0 0.99805h2v4h-2v-4zm3 0.001953h1v4h-1v-4zm2 0h1v4h-1v-4zm2 0h2v4h-2v-4zm3 0h1v4h-1v-4z" fill="#a97b50"/>
  <path d="m15 47-2 3h1v4h2v-4h1zm2 3h1v4h2v-4h1l-2-3zm-5 5v1h10v-1z" fill="#a97b50"/>
 </g>
</svg>
