<svg xmlns="http://www.w3.org/2000/svg" width="64" height="64"><g transform="translate(0 -3)"><rect width="28" height="32" x="28" y="11" fill="#ffd351" ry="2"/><rect width="28" height="32" x="8" y="9" fill="#7bd57d" ry="2"/><rect width="28" height="32" x="19" y="15" fill="#707ed0" ry="2"/><path fill="#c49a6c" d="M7.16 23C5.963 23 5 23.917 5 25.057v30.857C5 57.624 6.445 59 8.24 59h47.52c1.795 0 3.24-1.376 3.24-3.086V25.057c0-1.14-.963-2.057-2.16-2.057z"/></g><path fill="#fff" d="M32 33a2 2 0 0 0-2 2v6a2 2 0 0 0 2 2 2 2 0 0 0 2-2v-6a2 2 0 0 0-2-2m0 7a1 1 0 0 1 1 1 1 1 0 0 1-1 1 1 1 0 0 1-1-1 1 1 0 0 1 1-1"/><path fill="#f2f2f2" d="M32 21h2v2h-2z"/><path fill="#e0e0e0" d="M30 23h2v2h-2z"/><path fill="#f2f2f2" d="M32 25h2v2h-2z"/><path fill="#e0e0e0" d="M30 27h2v2h-2z"/><path fill="#f2f2f2" d="M32 29h2v2h-2z"/><path fill="#e0e0e0" d="M30 31h2v2h-2z"/><path fill="#a97b50" d="M42 47c-.554 0-1 .446-1 1v4c0 .554.446 1 1 1h11c.554 0 1-.446 1-1v-4c0-.554-.446-1-1-1zm0 .998h2v4h-2zM45 48h1v4h-1zm2 0h1v4h-1zm2 0h2v4h-2zm3 0h1v4h-1zm-37-4-2 3h1v4h2v-4h1zm2 3h1v4h2v-4h1l-2-3zm-5 5v1h10v-1z"/></svg>