<svg xmlns="http://www.w3.org/2000/svg" width="64" height="64" version="1"><rect width="52" height="52" x="6" y="6" fill="#3f3f3f" fill-rule="evenodd" rx="8" ry="8" style="paint-order:stroke fill markers"/><path fill="#248afd" d="M35.375 32A10.125 10.125 0 0 1 25.25 42.125 10.125 10.125 0 0 1 15.125 32 10.125 10.125 0 0 1 25.25 21.875 10.125 10.125 0 0 1 35.375 32Z"/><path fill="#e97e10" d="M28.625 32A10.125 10.125 0 0 0 38.75 42.125 10.125 10.125 0 0 0 48.875 32 10.125 10.125 0 0 0 38.75 21.875 10.125 10.125 0 0 0 28.625 32Z"/><path fill="#e3424a" d="M42.125 32A10.125 10.125 0 0 1 32 42.125 10.125 10.125 0 0 1 21.875 32 10.125 10.125 0 0 1 32 21.875 10.125 10.125 0 0 1 42.125 32Z"/><path fill="#50beee" d="M28.625 22.481a10.125 10.125 0 0 0-6.75 9.518 10.125 10.125 0 0 0 6.783 9.532A10.125 10.125 0 0 0 35.375 32a10.125 10.125 0 0 0-6.75-9.518z"/><path fill="#fecd38" d="M35.375 22.481a10.125 10.125 0 0 0-6.75 9.518 10.125 10.125 0 0 0 6.75 9.519A10.125 10.125 0 0 0 42.125 32a10.125 10.125 0 0 0-6.75-9.519z"/><path fill="#ff90b8" d="M32 24.466A10.125 10.125 0 0 0 28.625 32a10.125 10.125 0 0 0 3.382 7.541 10.125 10.125 0 0 0 3.368-7.54A10.125 10.125 0 0 0 32 24.465z"/></svg>