<svg width="64" height="64" version="1" xmlns="http://www.w3.org/2000/svg">
 <rect x="6" y="6" width="52" height="52" rx="8" ry="8" fill="#3f3f3f" fill-rule="evenodd" stop-color="#000000" stroke-linecap="round" stroke-linejoin="round" stroke-width="1.8909" style="paint-order:stroke fill markers"/>
 <path d="M 35.375,32 A 10.125,10.125 0 0 1 25.25,42.125 10.125,10.125 0 0 1 15.125,32 10.125,10.125 0 0 1 25.25,21.875 10.125,10.125 0 0 1 35.375,32 Z" fill="#248afd" stroke-width="3.375"/>
 <path d="M 28.625,32 A 10.125,10.125 0 0 0 38.75,42.125 10.125,10.125 0 0 0 48.875,32 10.125,10.125 0 0 0 38.75,21.875 10.125,10.125 0 0 0 28.625,32 Z" fill="#e97e10" stroke-width="3.375"/>
 <path d="M 42.125,32 A 10.125,10.125 0 0 1 32,42.125 10.125,10.125 0 0 1 21.875,32 10.125,10.125 0 0 1 32,21.875 10.125,10.125 0 0 1 42.125,32 Z" fill="#e3424a" stroke-width="3.375"/>
 <path d="m28.625 22.481a10.125 10.125 0 0 0-6.75 9.5185 10.125 10.125 0 0 0 6.7831 9.5317 10.125 10.125 0 0 0 6.7169-9.5317 10.125 10.125 0 0 0-6.75-9.5185z" fill="#50beee" stroke-width="3.375"/>
 <path d="m35.375 22.481a10.125 10.125 0 0 0-6.75 9.5185 10.125 10.125 0 0 0 6.75 9.5185 10.125 10.125 0 0 0 6.75-9.5185 10.125 10.125 0 0 0-6.75-9.5185z" fill="#fecd38" stroke-width="3.375"/>
 <path d="m32 24.466a10.125 10.125 0 0 0-3.375 7.5344 10.125 10.125 0 0 0 3.3818 7.5411 10.125 10.125 0 0 0 3.3684-7.5411 10.125 10.125 0 0 0-3.375-7.5344z" fill="#ff90b8" stroke-width="3.375"/>
</svg>
