<svg width="64" height="64" version="1.1" viewBox="0 0 64 64" xmlns="http://www.w3.org/2000/svg">
 <rect x="6" y="6" width="52" height="52" rx="8" ry="8" fill="#f2f2f2" fill-rule="evenodd" stop-color="#000000" stroke-linecap="round" stroke-linejoin="round" stroke-width="1.8909" style="paint-order:stroke fill markers"/>
 <path d="m54.637 7.4805c-4.9402 1.8139-9.8835 4.0286-14.783 6.6875-13.059 7.0867-24.505 16.502-33.854 27.273v8.5586c0 1.0668 0.21213 2.0808 0.58789 3.0098 9.2974-12.266 21.579-23.152 36.088-31.025 5.0987-2.7669 10.226-5.0157 15.324-6.7949v-1.1895c0-2.6989-1.3276-5.072-3.3633-6.5195z" fill="#fe6230"/>
 <path d="m57.395 10.941c-5.3983 1.8513-10.809 4.215-16.164 7.1211-13.88 7.5325-25.843 17.857-35.23 29.656v2.2812c0 2.6008 1.2355 4.8962 3.1465 6.3555 8.8625-12.082 20.718-22.765 34.91-30.467 4.64-2.5181 9.3032-4.5864 13.943-6.2363v-5.6523c0-1.0852-0.21731-2.1167-0.60547-3.0586z" fill="#fef600"/>
 <path d="m58 15.215c-5.1201 1.7414-10.251 3.9668-15.33 6.7227-14.476 7.8556-26.686 18.89-35.885 31.514 1.1571 2.4247 3.4915 4.1674 6.2773 4.4902 8.2691-11.169 19.267-21.049 32.428-28.191 4.1624-2.2588 8.3458-4.1238 12.51-5.6367v-8.8984z" fill="#00bb00"/>
 <path d="m58 19.654c-4.6609 1.6192-9.3287 3.6704-13.949 6.1777-14.028 7.6129-25.842 18.424-34.586 30.762 1.2878 0.88542 2.8475 1.4062 4.5352 1.4062h4.084c7.5375-9.6119 17.28-18.097 28.795-24.346 3.7015-2.0086 7.4186-3.6847 11.121-5.0605v-8.9395z" fill="#009bfe"/>
 <path d="m23.448 15.246-8.8251 7.7347 0.29744 7.0894 20.774 18.691 13.387-12.394 0.29673-7.7347-25.929-13.387z" color="#000000" fill="#484848" fill-rule="evenodd" stroke="#4d4d4d" stroke-linecap="round" stroke-linejoin="round" stroke-miterlimit="10" stroke-width="2.3092"/>
 <path d="m14.524 23.144 0.28485 6.8365 20.795 18.501 1.19e-4 -7.3916-21.08-17.946z" color="#000000" fill="#a6a6a6" fill-rule="evenodd" stroke-width="1.0817"/>
 <path d="m35.603 41.091v7.3916l13.389-12.234 0.18482-7.4511z" color="#000000" fill="#7f7f7f" fill-rule="evenodd" stroke-width="1.0817"/>
 <path d="m14.524 23.157 21.08 17.934 13.574-12.294-25.822-13.629-8.8312 7.9887z" color="#000000" fill="#f2f2f2" fill-rule="evenodd" stroke-width="1.0817"/>
 <path d="m15.868 21.943 3.3562 2.3422s0.78332 0.28519 1.1394 0c0.35562-0.28519 0.28519-1.1396 0.28519-1.1396l-3.1784-2.6601z" color="#000000" fill="#ffc11a" fill-rule="evenodd" stroke-width="1.0817"/>
 <path d="m18.373 19.676 3.4133 2.331s0.78284 0.28519 1.1385 0c0.35679-0.28405 0.28519-1.1396 0.28519-1.1396l-3.2911-2.5898z" color="#000000" fill="#ffc11a" fill-rule="evenodd" stroke-width="1.0817"/>
 <path d="m20.858 17.429 3.3517 2.441s0.78284 0.28519 1.1396 0c0.35562-0.28485 0.28403-1.1395 0.28403-1.1395l-3.2924-2.643z" color="#000000" fill="#ffc11a" fill-rule="evenodd" stroke-width="1.0817"/>
 <path d="m45.07 38.217c-0.12585 0.001932-0.25163 0.0108-0.37695 0.029297-1.0203 0.14979-1.8832 0.83253-2.2637 1.791-0.58835 1.4816 0.13568 3.1596 1.6172 3.748 0 0 8.2918 6.1117 12.826 10.305 0.71121-1.1964 1.127-2.5914 1.127-4.0898v-2.6133c-5.1599-4.2664-11.822-8.9688-11.822-8.9688-0.35334-0.13994-0.72987-0.20697-1.1074-0.20117z" fill="#4d4d4d" stroke-width=".26458"/>
 <path d="m27.057 26.848 17.376 13.104c1.994 1.2816 3.9176-0.21361 5.1276-1.7088 1.2112-1.4952 0.9976-3.2758-0.28519-4.2732l-18.516-9.9702z" color="#000000" fill="#a0a0a1" fill-rule="evenodd" stroke-width="1.0817"/>
 <path d="m26.345 26.848 17.804 10.826c0.99644 0.71124 3.1324-0.14317 3.988-1.1396 0.85444-0.9976 0.14203-2.4213-0.57038-2.8485l-16.949-10.113z" color="#000000" fill="#f2f2f2" fill-rule="evenodd" stroke-width="1.0817"/>
</svg>
