<svg xmlns="http://www.w3.org/2000/svg" width="64" height="64"><rect width="52" height="52" x="6" y="6" fill="#f2f2f2" fill-rule="evenodd" rx="8" ry="8" style="paint-order:stroke fill markers"/><path fill="#fe6230" d="M54.637 7.48a112 112 0 0 0-14.783 6.688C26.795 21.255 15.349 30.67 6 41.441V50c0 1.066.212 2.08.588 3.01 9.297-12.267 21.579-23.153 36.088-31.026A104 104 0 0 1 58 15.19V14a7.97 7.97 0 0 0-3.363-6.52"/><path fill="#fef600" d="M57.395 10.941a106 106 0 0 0-16.164 7.121c-13.88 7.533-25.843 17.857-35.23 29.656V50a7.97 7.97 0 0 0 3.147 6.356 106.4 106.4 0 0 1 34.91-30.467A98 98 0 0 1 58 19.65V14a8 8 0 0 0-.606-3.058z"/><path fill="#0b0" d="M58 15.215a99 99 0 0 0-15.33 6.723c-14.476 7.855-26.686 18.89-35.885 31.514a7.97 7.97 0 0 0 6.277 4.49c8.27-11.17 19.267-21.05 32.428-28.191A92 92 0 0 1 58 24.114v-8.898z"/><path fill="#009bfe" d="M58 19.654a94 94 0 0 0-13.949 6.178C30.023 33.445 18.209 44.256 9.465 56.594A7.97 7.97 0 0 0 14 58h4.084c7.538-9.612 17.28-18.097 28.795-24.346A86.4 86.4 0 0 1 58 28.594z"/><path fill="#484848" fill-rule="evenodd" stroke="#4d4d4d" stroke-linecap="round" stroke-linejoin="round" stroke-miterlimit="10" stroke-width="2.309" d="m23.448 15.246-8.825 7.735.297 7.09 20.774 18.69 13.387-12.394.297-7.735L23.45 15.245z" color="#000"/><path fill="#a6a6a6" fill-rule="evenodd" d="m14.524 23.144.285 6.837 20.795 18.5V41.09z" color="#000"/><path fill="#7f7f7f" fill-rule="evenodd" d="M35.603 41.091v7.392l13.389-12.234.185-7.451z" color="#000"/><path fill="#f2f2f2" fill-rule="evenodd" d="m14.524 23.157 21.08 17.934 13.574-12.294-25.822-13.629z" color="#000"/><path fill="#ffc11a" fill-rule="evenodd" d="m15.868 21.943 3.356 2.342s.784.285 1.14 0 .285-1.14.285-1.14l-3.179-2.66zm2.505-2.267 3.413 2.331s.783.285 1.139 0c.357-.284.285-1.14.285-1.14l-3.291-2.59zm2.485-2.247 3.352 2.441s.783.285 1.14 0c.355-.285.283-1.14.283-1.14l-3.292-2.643z" color="#000"/><path fill="#4d4d4d" d="M45.07 38.217a2.887 2.887 0 0 0-1.023 5.568s8.291 6.112 12.826 10.305A8 8 0 0 0 58 50v-2.613c-5.16-4.266-11.822-8.969-11.822-8.969a2.9 2.9 0 0 0-1.108-.2z"/><path fill="#a0a0a1" fill-rule="evenodd" d="m27.057 26.848 17.376 13.104c1.994 1.282 3.918-.214 5.128-1.709s.997-3.276-.286-4.273L30.76 24z" color="#000"/><path fill="#f2f2f2" fill-rule="evenodd" d="m26.345 26.848 17.804 10.826c.996.711 3.132-.143 3.988-1.14.854-.997.142-2.42-.57-2.848l-16.95-10.113z" color="#000"/></svg>