<?xml version="1.0" encoding="UTF-8"?>
<svg width="64" height="64" version="1.1" xmlns="http://www.w3.org/2000/svg" xmlns:cc="http://creativecommons.org/ns#" xmlns:dc="http://purl.org/dc/elements/1.1/" xmlns:rdf="http://www.w3.org/1999/02/22-rdf-syntax-ns#">
 <metadata>
  <rdf:RDF>
   <cc:Work rdf:about="">
    <dc:format>image/svg+xml</dc:format>
    <dc:type rdf:resource="http://purl.org/dc/dcmitype/StillImage"/>
    <dc:title/>
   </cc:Work>
  </rdf:RDF>
 </metadata>
 <g transform="translate(0,-1.805)" font-weight="400">
  <path d="m32 35.55c0.637 0 1.342 0.226 2.834 0.723l21.95 8.978c0.874 0.44 1.216 1.023 1.216 1.55 0 0.525-0.342 1.108-1.217 1.548l-21.99 8.996-0.016 0.01c-1.88 0.94-3.674 0.94-5.554 0l-0.016-0.01-21.99-8.996c-0.875-0.44-1.217-1.023-1.217-1.549s0.342-1.109 1.217-1.549l21.941-8.976h8e-3c1.492-0.497 2.197-0.723 2.834-0.723z" fill="#f35a23" overflow="visible" style="font-feature-settings:normal;font-variant-alternates:normal;font-variant-caps:normal;font-variant-ligatures:normal;font-variant-numeric:normal;font-variant-position:normal;isolation:auto;mix-blend-mode:normal;shape-padding:0;text-decoration-color:#000000;text-decoration-line:none;text-decoration-style:solid;text-indent:0;text-orientation:mixed;text-transform:none;white-space:normal"/>
  <path d="m32 35.55v3e-3c-0.637 0-1.342 0.225-2.834 0.722h-8e-3l-16.048 6.567 15.702 6.424c2.097 1.037 4.28 1.037 6.378 0l15.702-6.424-16.057-6.569c-1.492-0.497-2.197-0.722-2.834-0.722z" fill-opacity=".078" overflow="visible" style="font-feature-settings:normal;font-variant-alternates:normal;font-variant-caps:normal;font-variant-ligatures:normal;font-variant-numeric:normal;font-variant-position:normal;isolation:auto;mix-blend-mode:normal;shape-padding:0;text-decoration-color:#000000;text-decoration-line:none;text-decoration-style:solid;text-indent:0;text-orientation:mixed;text-transform:none;white-space:normal"/>
  <path d="m32 22.55c0.637 0 1.342 0.226 2.834 0.723l21.95 8.979c0.874 0.44 1.216 1.022 1.216 1.548 0 0.527-0.342 1.11-1.217 1.55l-21.99 8.995-0.016 0.01c-1.88 0.94-3.674 0.94-5.554 0l-0.016-0.01-21.99-8.996c-0.875-0.439-1.217-1.022-1.217-1.549 0-0.526 0.342-1.109 1.217-1.548l21.941-8.977h8e-3c1.492-0.497 2.197-0.723 2.834-0.723z" fill="#8bc34a" overflow="visible" style="font-feature-settings:normal;font-variant-alternates:normal;font-variant-caps:normal;font-variant-ligatures:normal;font-variant-numeric:normal;font-variant-position:normal;isolation:auto;mix-blend-mode:normal;shape-padding:0;text-decoration-color:#000000;text-decoration-line:none;text-decoration-style:solid;text-indent:0;text-orientation:mixed;text-transform:none;white-space:normal"/>
  <path d="m32 34.543v0.01c-0.861 0-1.658 0.275-3.158 0.775l-0.016 0.01-0.015 0.01-10.801 4.42 11.197 4.58 0.016 0.01c1.88 0.94 3.674 0.94 5.554 0l0.016-0.01 11.209-4.586-10.828-4.43-0.016-0.011c-1.5-0.5-2.297-0.776-3.158-0.776z" fill="#7eb73d" overflow="visible" style="font-feature-settings:normal;font-variant-alternates:normal;font-variant-caps:normal;font-variant-ligatures:normal;font-variant-numeric:normal;font-variant-position:normal;isolation:auto;mix-blend-mode:normal;shape-padding:0;text-decoration-color:#000000;text-decoration-line:none;text-decoration-style:solid;text-indent:0;text-orientation:mixed;text-transform:none;white-space:normal"/>
  <path d="m32 35.55v3e-3c-0.637 0-1.342 0.225-2.834 0.722h-8e-3l-9.84 4.026 9.889 4.045 0.016 0.01c1.88 0.94 3.674 0.94 5.554 0l0.016-0.01 9.887-4.046-9.846-4.028c-1.492-0.497-2.197-0.722-2.834-0.722z" fill="#83be3f" overflow="visible" style="font-feature-settings:normal;font-variant-alternates:normal;font-variant-caps:normal;font-variant-ligatures:normal;font-variant-numeric:normal;font-variant-position:normal;isolation:auto;mix-blend-mode:normal;shape-padding:0;text-decoration-color:#000000;text-decoration-line:none;text-decoration-style:solid;text-indent:0;text-orientation:mixed;text-transform:none;white-space:normal"/>
  <path d="m32 22.55v3e-3c-0.637 0-1.342 0.225-2.834 0.722h-8e-3l-16.048 6.567 15.702 6.424c2.097 1.037 4.28 1.037 6.378 0l15.702-6.424-16.057-6.569c-1.492-0.497-2.197-0.722-2.834-0.722z" fill-opacity=".078" overflow="visible" style="font-feature-settings:normal;font-variant-alternates:normal;font-variant-caps:normal;font-variant-ligatures:normal;font-variant-numeric:normal;font-variant-position:normal;isolation:auto;mix-blend-mode:normal;shape-padding:0;text-decoration-color:#000000;text-decoration-line:none;text-decoration-style:solid;text-indent:0;text-orientation:mixed;text-transform:none;white-space:normal"/>
  <path d="m32 9.55c0.637 0 1.342 0.226 2.834 0.723l21.95 8.979c0.874 0.44 1.216 1.022 1.216 1.548 0 0.527-0.342 1.11-1.217 1.55l-21.99 8.995-0.016 0.01c-1.88 0.94-3.674 0.94-5.554 0l-0.016-0.01-21.99-8.996c-0.875-0.439-1.217-1.022-1.217-1.549 0-0.526 0.342-1.109 1.217-1.548l21.941-8.977h8e-3c1.492-0.497 2.197-0.723 2.834-0.723z" fill="#29b6f6" overflow="visible" style="font-feature-settings:normal;font-variant-alternates:normal;font-variant-caps:normal;font-variant-ligatures:normal;font-variant-numeric:normal;font-variant-position:normal;isolation:auto;mix-blend-mode:normal;shape-padding:0;text-decoration-color:#000000;text-decoration-line:none;text-decoration-style:solid;text-indent:0;text-orientation:mixed;text-transform:none;white-space:normal"/>
  <path d="m32 21.545v6e-3c-0.861 0-1.658 0.275-3.158 0.775l-0.016 0.01-0.015 0.01-10.801 4.42 11.197 4.58 0.016 0.01c1.88 0.94 3.674 0.94 5.554 0l0.016-0.01 11.209-4.586-10.828-4.43-0.016-0.01c-1.5-0.5-2.297-0.775-3.158-0.775z" fill="#0aa8f0" overflow="visible" style="font-feature-settings:normal;font-variant-alternates:normal;font-variant-caps:normal;font-variant-ligatures:normal;font-variant-numeric:normal;font-variant-position:normal;isolation:auto;mix-blend-mode:normal;shape-padding:0;text-decoration-color:#000000;text-decoration-line:none;text-decoration-style:solid;text-indent:0;text-orientation:mixed;text-transform:none;white-space:normal"/>
  <path d="m32 22.55v3e-3c-0.637 0-1.342 0.225-2.834 0.722h-8e-3l-9.84 4.026 9.889 4.045 0.016 0.01c1.88 0.94 3.674 0.94 5.554 0l0.016-0.01 9.887-4.046-9.846-4.028c-1.492-0.497-2.197-0.722-2.834-0.722z" fill="#10adf5" overflow="visible" style="font-feature-settings:normal;font-variant-alternates:normal;font-variant-caps:normal;font-variant-ligatures:normal;font-variant-numeric:normal;font-variant-position:normal;isolation:auto;mix-blend-mode:normal;shape-padding:0;text-decoration-color:#000000;text-decoration-line:none;text-decoration-style:solid;text-indent:0;text-orientation:mixed;text-transform:none;white-space:normal"/>
 </g>
</svg>
