<?xml version="1.0" encoding="UTF-8" standalone="no"?>
<!-- Created with Inkscape (http://www.inkscape.org/) -->

<svg
   xmlns:dc="http://purl.org/dc/elements/1.1/"
   xmlns:cc="http://creativecommons.org/ns#"
   xmlns:rdf="http://www.w3.org/1999/02/22-rdf-syntax-ns#"
   xmlns:svg="http://www.w3.org/2000/svg"
   xmlns="http://www.w3.org/2000/svg"
   xmlns:sodipodi="http://sodipodi.sourceforge.net/DTD/sodipodi-0.dtd"
   xmlns:inkscape="http://www.inkscape.org/namespaces/inkscape"
   width="64"
   height="64"
   viewBox="0 0 16.933333 16.933333"
   version="1.1"
   id="svg4572"
   inkscape:version="0.92.2 2405546, 2018-03-11"
   sodipodi:docname="atom.svg">
  <title
     id="title4611">Canvas icon theme</title>
  <defs
     id="defs4566" />
  <sodipodi:namedview
     id="base"
     pagecolor="#ffffff"
     bordercolor="#666666"
     borderopacity="1.0"
     inkscape:pageopacity="0.0"
     inkscape:pageshadow="2"
     inkscape:zoom="7.919596"
     inkscape:cx="56.381084"
     inkscape:cy="27.506355"
     inkscape:document-units="px"
     inkscape:current-layer="layer1"
     showgrid="true"
     units="px"
     width="64px"
     showguides="true"
     inkscape:guide-bbox="true"
     inkscape:window-width="1920"
     inkscape:window-height="1021"
     inkscape:window-x="0"
     inkscape:window-y="29"
     inkscape:window-maximized="1"
     inkscape:snap-bbox="true"
     inkscape:bbox-nodes="true"
     inkscape:snap-bbox-edge-midpoints="true">
    <inkscape:grid
       type="xygrid"
       id="grid4582" />
    <sodipodi:guide
       position="1.0583333,15.875"
       orientation="0,1"
       id="guide4584"
       inkscape:locked="false" />
    <sodipodi:guide
       position="1.0583333,1.0583333"
       orientation="1,0"
       id="guide4586"
       inkscape:locked="false" />
    <sodipodi:guide
       position="15.875,15.875"
       orientation="1,0"
       id="guide4588"
       inkscape:locked="false" />
    <sodipodi:guide
       position="1.0583333,1.0583333"
       orientation="0,1"
       id="guide4590"
       inkscape:locked="false" />
    <sodipodi:guide
       position="8.4666665,8.4666665"
       orientation="0,1"
       id="guide822"
       inkscape:locked="false" />
    <sodipodi:guide
       position="8.4666665,8.4666665"
       orientation="1,0"
       id="guide824"
       inkscape:locked="false" />
  </sodipodi:namedview>
  <metadata
     id="metadata4569">
    <rdf:RDF>
      <cc:Work
         rdf:about="">
        <dc:format>image/svg+xml</dc:format>
        <dc:type
           rdf:resource="http://purl.org/dc/dcmitype/StillImage" />
        <dc:title>Canvas icon theme</dc:title>
        <cc:license
           rdf:resource="http://creativecommons.org/licenses/by-nc-sa/4.0/" />
        <dc:creator>
          <cc:Agent>
            <dc:title>Vince Liuice</dc:title>
          </cc:Agent>
        </dc:creator>
      </cc:Work>
      <cc:License
         rdf:about="http://creativecommons.org/licenses/by-nc-sa/4.0/">
        <cc:permits
           rdf:resource="http://creativecommons.org/ns#Reproduction" />
        <cc:permits
           rdf:resource="http://creativecommons.org/ns#Distribution" />
        <cc:requires
           rdf:resource="http://creativecommons.org/ns#Notice" />
        <cc:requires
           rdf:resource="http://creativecommons.org/ns#Attribution" />
        <cc:prohibits
           rdf:resource="http://creativecommons.org/ns#CommercialUse" />
        <cc:permits
           rdf:resource="http://creativecommons.org/ns#DerivativeWorks" />
        <cc:requires
           rdf:resource="http://creativecommons.org/ns#ShareAlike" />
      </cc:License>
    </rdf:RDF>
  </metadata>
  <g
     inkscape:label="Layer 1"
     inkscape:groupmode="layer"
     id="layer1"
     transform="translate(0,-280.06667)">
    <circle
       style="opacity:1;fill:#6fd16f;fill-opacity:1;stroke:none;stroke-width:0.49136901;stroke-miterlimit:4;stroke-dasharray:none;stroke-opacity:0.03921569;paint-order:stroke markers fill"
       id="path13"
       cx="8.4666662"
       cy="288.53333"
       r="6.8791666" />
    <path
       d="m 6.9506731,284.62722 c -0.096368,-0.002 -0.1875255,0.006 -0.2480807,0.0267 -0.2962646,0.10287 -0.4821625,0.32425 -0.5850412,0.69378 -0.088879,0.32198 -0.0866,0.90149 0.00651,1.40579 0.016278,0.0876 0.032882,0.16701 0.036789,0.18003 0.00488,0.0182 -0.026697,0.0293 -0.1666896,0.0615 -0.684664,0.15821 -1.184407,0.39426 -1.4849038,0.70061 -0.1347841,0.13641 -0.2096641,0.25557 -0.2529643,0.40631 -0.030603,0.10446 -0.030603,0.31157 0,0.41443 0.083996,0.28358 0.3206818,0.54956 0.694431,0.78527 0.2594756,0.16213 0.3369603,0.18037 0.4209562,0.0954 0.039394,-0.0397 0.048183,-0.0589 0.048183,-0.10681 0,-0.0924 -0.027998,-0.13022 -0.1500858,-0.20088 -0.7657298,-0.43625 -0.9005139,-0.87381 -0.3890506,-1.26287 0.2594756,-0.19696 0.6224811,-0.35291 1.1108292,-0.47369 0.2138965,-0.0528 0.2620801,-0.0596 0.2620801,-0.0313 0,0.0384 0.1575738,0.54859 0.2389651,0.76867 l 0.083995,0.23018 -0.1106919,0.21682 c -0.4424435,0.86503 -0.7263365,1.74666 -0.7605209,2.3916 -0.027998,0.49714 0.060881,0.85266 0.2773818,1.07274 0.2363605,0.23961 0.5697394,0.29106 0.9981836,0.15204 0.1614804,-0.0528 0.4821624,-0.21781 0.6690369,-0.34641 0.1347841,-0.0912 0.1647362,-0.11812 0.1826423,-0.16603 0.017906,-0.0479 0.017906,-0.0631 0,-0.11332 -0.026697,-0.0749 -0.082693,-0.1169 -0.158876,-0.1169 -0.049486,0 -0.08367,0.016 -0.2109664,0.10348 -0.2887765,0.19827 -0.5596469,0.322 -0.7846126,0.36041 -0.3115661,0.054 -0.5111378,-0.085 -0.6029472,-0.41445 -0.039394,-0.14292 -0.037115,-0.60099 0.00651,-0.83801 0.06609,-0.37699 0.1816656,-0.76832 0.3470529,-1.18017 0.097996,-0.24449 0.2848697,-0.65438 0.3102638,-0.68108 0.012697,-0.0143 0.029301,0.009 0.071299,0.1068 0.2138965,0.4864 0.5404387,1.08023 0.8598183,1.56044 0.7621488,1.14502 1.596248,1.88991 2.238914,1.9967 l -0.0068,10e-4 c 0.2822657,0.0463 0.5209047,-0.0244 0.7051747,-0.21097 0.150086,-0.15465 0.249057,-0.37212 0.30538,-0.67458 0.03418,-0.18915 0.03418,-0.71916 0,-0.97669 -0.104185,-0.77126 -0.382214,-1.65452 -0.79796,-2.53518 -0.06479,-0.13772 -0.100926,-0.17157 -0.1849207,-0.17157 -0.09409,-10e-4 -0.170271,0.072 -0.170271,0.16474 0,0.0322 0.03191,0.11911 0.0853,0.23408 0.5124397,1.10562 0.7878687,2.17543 0.7598697,2.94962 -0.01725,0.46101 -0.130878,0.73903 -0.346076,0.84583 -0.112971,0.0564 -0.25622,0.0544 -0.4443967,-0.007 -0.864051,-0.29594 -2.0341331,-1.77629 -2.7881427,-3.52718 l -0.07488,-0.17482 0.10939,-0.18883 c 0.1233893,-0.21487 0.4349554,-0.69508 0.5785298,-0.89204 l 0.096693,-0.13089 h 0.2548729 c 1.545785,0 3.0756167,0.3539 3.8869247,0.89596 0.165388,0.11075 0.36496,0.31287 0.424864,0.43106 0.0433,0.0823 0.04721,0.10422 0.04721,0.21356 0,0.10705 -0.0039,0.13283 -0.03939,0.19827 -0.0993,0.19306 -0.361052,0.3936 -0.698339,0.53654 -0.156271,0.0667 -0.198269,0.11099 -0.198269,0.20216 0,0.0772 0.04981,0.14163 0.124692,0.16474 0.04851,0.0143 0.06479,0.0123 0.151388,-0.0228 0.544346,-0.21781 0.91842,-0.55607 0.994602,-0.89856 0.02148,-0.0924 0.02018,-0.26664 -0.0014,-0.35682 -0.04069,-0.17678 -0.186223,-0.40306 -0.352913,-0.55509 -0.742941,-0.67457 -2.318677,-1.10953 -4.1883994,-1.15478 l -0.1334818,-0.004 0.1562715,-0.17743 c 0.083995,-0.0993 0.2334303,-0.26403 0.3363091,-0.36952 0.5316483,-0.54695 1.0255309,-0.90507 1.4569049,-1.05418 0.1373887,-0.0489 0.1650617,-0.0546 0.3076597,-0.0546 0.132505,0 0.164735,0.004 0.222035,0.0338 0.07782,0.0372 0.165062,0.12859 0.20999,0.21486 0.08757,0.17647 0.117203,0.48575 0.07488,0.81522 -0.014,0.11333 -0.0254,0.24418 -0.0254,0.28943 0,0.0762 0.0026,0.0879 0.04591,0.12535 0.03549,0.0336 0.05958,0.042 0.105489,0.042 0.0739,0 0.142272,-0.0394 0.162783,-0.0934 0.06089,-0.15952 0.09279,-0.72502 0.05339,-0.96334 -0.0612,-0.36594 -0.216175,-0.61304 -0.462955,-0.73252 -0.436257,-0.21358 -1.0698067,-0.005 -1.809166,0.59513 -0.3864462,0.31417 -0.8959562,0.84712 -1.2469157,1.30226 l -0.034184,0.0407 -0.2073852,0.0123 c -0.1741775,0.01 -0.457745,0.0384 -0.7872172,0.0781 l -0.071299,0.009 -0.031254,-0.17613 c -0.059579,-0.35129 -0.064137,-0.40403 -0.064137,-0.74001 0,-0.29496 0.00391,-0.35161 0.031905,-0.46979 0.068694,-0.29855 0.2047806,-0.48412 0.3841672,-0.52253 0.2467786,-0.0528 0.5531357,0.072 0.9832077,0.39491 0.1373885,0.10446 0.3047292,0.0152 0.2842185,-0.14943 -0.00879,-0.072 -0.074229,-0.13382 -0.2930089,-0.28162 -0.1832933,-0.12502 -0.3890506,-0.2279 -0.5570423,-0.27803 -0.082694,-0.0251 -0.1845957,-0.039 -0.2809631,-0.042 z m 0.3288212,2.53387 c 0,0.006 -0.058276,0.0979 -0.1308773,0.20609 -0.072601,0.10681 -0.1754798,0.26403 -0.2288725,0.3529 -0.05209,0.0863 -0.1032044,0.16474 -0.1132968,0.17614 -0.013999,0.0152 -0.03451,-0.0257 -0.096693,-0.22627 -0.088879,-0.27673 -0.1269705,-0.42584 -0.1155756,-0.43886 0.018883,-0.0196 0.6853153,-0.0896 0.6853152,-0.07 z m 1.3497943,1.0467 a 0.48834815,0.48834815 0 0 0 -0.4883481,0.48834 0.48834815,0.48834815 0 0 0 0.4883481,0.48835 0.48834815,0.48834815 0 0 0 0.4883482,-0.48835 0.48834815,0.48834815 0 0 0 -0.4883482,-0.48834 z"
       style="fill:#ffffff;fill-opacity:1;fill-rule:nonzero;stroke:none;stroke-width:0.32556543"
       id="path27"
       inkscape:connector-curvature="0" />
  </g>
</svg>
