<svg width="64" height="64" version="1.1" viewBox="0 0 16.933 16.933" xmlns="http://www.w3.org/2000/svg">
 <defs>
  <clipPath id="a">
   <circle cx="8.467" cy="288.53" r="6.879" fill="#d86eb0" stroke-opacity=".039" stroke-width=".491" paint-order="stroke markers fill"/>
  </clipPath>
 </defs>
 <g transform="matrix(1.0385 0 0 1.0385 -.32619 -291.17)">
  <circle cx="8.467" cy="288.53" r="6.879" fill="#4d4d4d" stroke-width=".92729" style="paint-order:stroke markers fill"/>
  <circle cx="8.4667" cy="288.53" r="4.3311" opacity=".15" stroke-width=".92729" style="paint-order:stroke markers fill"/>
  <g transform="translate(0 -.003)" clip-path="url(#a)" fill="none" opacity=".25" stroke="#fff" stroke-opacity=".937" stroke-width=".12711">
   <path d="m0 287.74s2.284-0.734 3.468 1.977c0.674 1.544 1.623 2.229 2.772 2.283 1.48 0.07 2.673-1.226 3.459-2.385 1.602-2.362 4.189-1.867 6.244-0.97"/>
   <path d="m0 289.11s2.786-2.65 4.365-0.149c0.722 1.143 1.576 2.867 4.049 2.709 1.478-0.095 2.956-0.71 3.718-2.15 1.388-2.617 3.338-2.528 4.165-1.394"/>
   <path d="m0.732 291.07s2.337-2.2 5.24-1.353c1.297 0.379 2.937 1.847 6.056 1.504 0.824-0.09 1.522-0.563 2.183-1.464 0.957-1.305 2.015-1.371 3.385-1.112"/>
  </g>
  <g stroke-width=".96296">
   <path d="m11.67 285.5h-0.82v1.075c-0.61-0.842-1.342-1.219-2.394-1.219-1.818 0-3.192 1.375-3.192 3.192s1.385 3.158 3.258 3.158c1.03 0 1.673-0.332 2.327-1.208v1.064h0.82zm-3.192 0.61c1.34 0 2.371 1.042 2.371 2.394 0 1.385-1.02 2.449-2.327 2.449-1.374 0-2.427-1.075-2.427-2.46a2.379 2.379 0 0 1 2.383-2.383z" fill="#fff" font-size="11.082" font-weight="400" letter-spacing="0" stroke-width=".26674" word-spacing="0" aria-label="a"/>
  </g>
 </g>
</svg>
