<svg width="64" height="64" version="1.1" viewBox="0 0 64 64" xmlns="http://www.w3.org/2000/svg">
 <circle cx="32" cy="32" r="27" fill="#3f444f" stroke-width="1.1739"/>
 <path d="m31.999 15.043c-7.2034 0-13.043 5.8396-13.043 13.043v6.8654c-2.3423 0.8281-3.9094 3.0411-3.9129 5.5254 0 3.2416 2.6278 5.8694 5.8694 5.8694 1.1838 1.17e-4 2.34-0.35776 3.3168-1.0266 0.12988 0.58386 0.62416 1.0266 1.2483 1.0266 0.72258 0 1.3043-0.58172 1.3043-1.3043v-9.1301c0-0.72258-0.58172-1.3043-1.3043-1.3043-0.62601 0-1.1229 0.44516-1.2508 1.0317-0.42082-0.28723-0.87726-0.51846-1.3578-0.68782v-6.8654c0-5.0424 4.0877-9.1301 9.1301-9.1301s9.1301 4.0877 9.1301 9.1301v6.8654c-2.3423 0.8281-3.9113 3.0411-3.9129 5.5254-2e-3 3.2416 2.6278 5.8694 5.8694 5.8694s5.8713-2.6278 5.8694-5.8694c-0.0016-2.4843-1.5706-4.6973-3.9129-5.5254v-6.8654c0-7.2034-5.8396-13.043-13.043-13.043zm-11.087 22.173c1.8008 0 3.2608 1.4599 3.2608 3.2608s-1.4599 3.2608-3.2608 3.2608-3.2608-1.4599-3.2608-3.2608 1.4599-3.2608 3.2608-3.2608zm22.173 0c1.8008 0 3.2608 1.4599 3.2608 3.2608s-1.4599 3.2608-3.2608 3.2608-3.2608-1.4599-3.2608-3.2608 1.4599-3.2608 3.2608-3.2608z" fill="#54a1ea" stroke-width="1.3043" style="paint-order:normal"/>
 <circle cx="15.5" cy="30.5" r="0" fill="#3a3e46" style="paint-order:normal"/>
</svg>
