<?xml version="1.0" encoding="UTF-8"?>
<svg id="svg908" width="64" height="64" version="1.1" viewBox="0 0 16.933 16.933" xmlns="http://www.w3.org/2000/svg">
 <circle id="circle2391" cx="8.5024" cy="8.4665" r="7.1436" fill="#98141b" stroke-width=".26458" style="paint-order:stroke fill markers"/>
 <circle id="circle2393" cx="8.5024" cy="8.4665" r="6.3499" fill="#fff" opacity=".15" stroke-width=".26458" style="paint-order:stroke fill markers"/>
 <path id="path178" d="m8.4665 4.6848c1.8893 0 3.1083 0.23777 3.6629 0.70088 0.55461 0.46929 0.83496 1.5054 0.83496 3.0961v0.34739h-4.4978v-1.0177h3.2911c-0.054852-0.87762-0.2255-1.4322-0.51203-1.67-0.34122-0.29254-1.2737-0.43881-2.7791-0.43881v-1.0178zm0 6.5517c1.3835 0 2.2855-0.07931 2.6938-0.24378 0.41443-0.16456 0.61556-0.51203 0.61556-1.0544h1.1884c0 0.96896-0.28044 1.5967-0.83496 1.8832-0.55453 0.28653-1.7735 0.42662-3.6629 0.42662zm-0.0061 1.0117c-1.8893 0-3.1083-0.2316-3.6629-0.69479-0.55461-0.46319-0.82887-1.4933-0.82887-3.0778 0-1.5907 0.27426-2.6207 0.82887-3.09 0.55461-0.46319 1.7735-0.70088 3.6629-0.70088h0.0061v1.0178h-0.0061c-1.5054 0-2.4378 0.14627-2.7913 0.43881-0.27426 0.23778-0.44491 0.7923-0.49976 1.67h3.2972v1.0177h-3.3155c0.03657 1.0423 0.20722 1.7004 0.53023 1.9747 0.34739 0.28645 1.2738 0.43272 2.7791 0.43272h0.0061v1.0117z" fill="#fff" stroke-width=".084647"/>
</svg>
