<svg width="64" height="64" version="1.1" xmlns="http://www.w3.org/2000/svg">
 <g transform="translate(0 -1058.5)">
  <rect x="6" y="1064.5" width="52" height="52" rx="6" ry="6" fill="#f06292"/>
  <path d="m24 1076.5v4h4v-4h-4zm12 0v4h4v-4h-4zm-18 2v4h4v-4h-4zm24 0v4h4v-4h-4zm-30 2v4h4v-4h-4zm18 0v4h4v-4h-4zm18 0v4h4v-4h-4zm-24 2v4h4v-4h-4zm12 0v4h4v-4h-4zm-18 2v4h4v-4h-4zm24 0v4h4v-4h-4zm-30 2v4h4v-4h-4zm18 0v4h4v-4h-4zm18 0v4h4v-4h-4zm-24 2v4h4v-4h-4zm12 0v4h4v-4h-4zm-18 2v4h4v-4h-4zm24 0v4h4v-4h-4zm-30 2v4h4v-4h-4zm18 0v4h4v-4h-4zm18 0v4h4v-4h-4zm-24 2v4h4v-4h-4zm12 0v4h4v-4h-4zm-18 2v4h4v-4h-4zm24 0v4h4v-4h-4zm-12 2v4h4v-4h-4zm-6 2v4h4v-4h-4zm12 0v4h4v-4h-4zm-6 4v4h4v-4h-4z" fill="#fce4ec"/>
 </g>
</svg>
