<svg width="64" height="64" version="1.1" xmlns="http://www.w3.org/2000/svg">
 <defs>
  <linearGradient id="b" x1="46.168" x2="46.168" y1="57" y2="27.346" gradientTransform="matrix(1.04,0,0,1.04,-1.2813,-1.2787)" gradientUnits="userSpaceOnUse">
   <stop offset="0"/>
   <stop stop-opacity="0" offset="1"/>
  </linearGradient>
 </defs>
 <g transform="translate(0 -1058.5)">
  <rect x="6" y="1064.5" width="52" height="52" rx="3" ry="3" fill="#f06292"/>
  <path d="m24 1076.5v4h4v-4h-4zm12 0v4h4v-4h-4zm-18 2v4h4v-4h-4zm24 0v4h4v-4h-4zm-30 2v4h4v-4h-4zm18 0v4h4v-4h-4zm18 0v4h4v-4h-4zm-24 2v4h4v-4h-4zm12 0v4h4v-4h-4zm-18 2v4h4v-4h-4zm24 0v4h4v-4h-4zm-30 2v4h4v-4h-4zm18 0v4h4v-4h-4zm18 0v4h4v-4h-4zm-24 2v4h4v-4h-4zm12 0v4h4v-4h-4zm-18 2v4h4v-4h-4zm24 0v4h4v-4h-4zm-30 2v4h4v-4h-4zm18 0v4h4v-4h-4zm18 0v4h4v-4h-4zm-24 2v4h4v-4h-4zm12 0v4h4v-4h-4zm-18 2v4h4v-4h-4zm24 0v4h4v-4h-4zm-12 2v4h4v-4h-4zm-6 2v4h4v-4h-4zm12 0v4h4v-4h-4zm-6 4v4h4v-4h-4z" fill="#fce4ec"/>
 </g>
 <path d="m57.999 27.161a46.8 46.8 0 0 1-22.531 30.841h19.41c1.7295 0 3.121-1.3915 3.121-3.121z" fill="url(#b)" opacity=".15" stroke-width="3.9308"/>
</svg>
