<svg xmlns="http://www.w3.org/2000/svg" width="64" height="64"><defs><path d="M5 10A5 5 0 1 1 5 0a5 5 0 0 1 0 10z" id="a"/><path d="M2.429 9.29A5.023 5.023 0 0 1 .507 7.196l8.979-4.408a5.02 5.02 0 0 0-1.399-1.722L2.43 9.289z" id="b"/></defs><path d="M54 53c0 2.991-2.121 5-5 5H15c-2.878 0-5-2.009-5-5V11c0-2.991 2.122-5 5-5h34c2.878 0 5 2.009 5 5z" fill="#cacbcf"/><g fill="none"><path d="M51 11a2 2 0 1 1-4 0 2 2 0 0 1 4 0z" fill="#85858a"/><path d="M50 11a1 1 0 1 0-2 0 1 1 0 0 0 2 0z" fill="#fff"/></g><g fill="none"><path d="M17 11a2 2 0 1 1-4 0 2 2 0 0 1 4 0z" fill="#85858a"/><path d="M16 11a1 1 0 1 0-2 0 1 1 0 0 0 2 0z" fill="#fff"/></g><path d="M14 39h-4v14c0 2.873 2.169 5 5 5h18v-9c-7.752-.5-14.611-4.25-19-10z" fill="#949496"/><path d="M48 27.122C48 35.837 40.837 43 32 43s-16-7.163-16-15.878C16 18.164 23.163 11 32 11s16 7.164 16 16.122" fill="#49494c" fill-rule="evenodd"/><path d="M32 10c-9.388 0-17 7.61-17 17 0 9.388 7.612 17 17 17s17-7.612 17-17c0-9.39-7.612-17-17-17zm10.417 27.418a14.714 14.714 0 0 1-4.683 3.159A14.646 14.646 0 0 1 32 41.732c-1.99 0-3.92-.388-5.734-1.155a14.714 14.714 0 0 1-4.683-3.16A14.67 14.67 0 0 1 17.266 27a14.676 14.676 0 0 1 4.316-10.417 14.658 14.658 0 0 1 4.684-3.16A14.632 14.632 0 0 1 32 12.268c1.99 0 3.92.39 5.734 1.157a14.655 14.655 0 0 1 4.683 3.158A14.676 14.676 0 0 1 46.734 27a14.673 14.673 0 0 1-4.316 10.418z" fill="gray"/><g transform="matrix(-1 0 0 1 44.75 49.25)" fill="#949496" fill-rule="evenodd"><rect rx=".5" height="7" width="1"/><rect rx=".5" height="7" width="1" x="2"/><rect rx=".5" height="7" width="1" x="4"/><rect rx=".5" height="7" width="1" x="6"/><rect rx=".5" height="7" width="1" x="8"/></g><g fill="none"><path d="M51 53a2 2 0 1 1-4 0 2 2 0 0 1 4 0z" fill="#85858a"/><path d="M50 53a1 1 0 1 0-2 0 1 1 0 0 0 2 0z" fill="#fff"/></g><g fill="none"><path d="M17 53a2 2 0 1 1-4 0 2 2 0 0 1 4 0z" fill="#6a6a6a"/><path d="M16 53a1 1 0 1 0-2 0 1 1 0 0 0 2 0z" fill="#fff"/></g><circle cx="32" cy="27" r="12" fill="#ff964a" paint-order="markers stroke fill"/><path d="M23.515 18.515a12 12 0 0 0 0 16.97 12 12 0 0 0 16.97 0z" fill="#6fbb55" paint-order="markers stroke fill"/><path d="M32 15a12 12 0 0 0-12 12 12 12 0 0 0 12 12z" fill="#4babbe" paint-order="markers stroke fill"/><circle r="2" cy="27" cx="32" fill="#fff" paint-order="markers stroke fill"/></svg>