<svg width="64" height="64" version="1.1" viewBox="0 0 16.933 16.933" xmlns="http://www.w3.org/2000/svg">
 <defs>
  <filter id="a" color-interpolation-filters="sRGB">
   <feColorMatrix result="result7" values="1 0 0 0 0 0 1 0 0 0 0 0 1 0 0 0 0 0 1 0"/>
   <feGaussianBlur result="result6" stdDeviation="5"/>
   <feComposite in="result6" in2="result7" operator="atop" result="result91"/>
   <feComposite in2="result91" operator="in"/>
  </filter>
 </defs>
 <g transform="translate(0 -280.07)">
  <circle cx="8.4665" cy="288.53" r="7.1436" fill="#0b93d3" style="paint-order:stroke markers fill"/>
  <g fill="#fff">
   <circle cx="11.906" cy="287.58" r="1.389" opacity=".25" paint-order="stroke markers fill"/>
   <circle cx="11.906" cy="287.58" r="1.389" opacity=".25" paint-order="stroke markers fill"/>
   <circle cx="8.819" cy="287.74" r="3.087" paint-order="stroke markers fill"/>
   <circle cx="8.731" cy="288.27" r="2.646" paint-order="stroke markers fill"/>
   <circle cx="5.424" cy="288.97" r="2.469" paint-order="stroke markers fill"/>
   <circle cx="5.821" cy="289.33" r="2.117" paint-order="stroke markers fill"/>
   <circle cx="12.215" cy="289.59" r="1.852" paint-order="stroke markers fill"/>
   <circle cx="11.642" cy="289.86" r="1.587" paint-order="stroke markers fill"/>
   <path d="m5.424 288.05h6.791v3.395h-6.791z" paint-order="stroke markers fill"/>
   <path d="m5.821 288.53h5.821v2.91h-5.821z" paint-order="stroke markers fill"/>
  </g>
  <path d="M8.475 286.474a1.426 1.426 0 1 0 0 2.852 1.426 1.426 0 0 0 0-2.852zm.006.626a.805.805 0 0 1 .805.805.805.805 0 0 1-.805.805.805.805 0 0 1-.805-.805.805.805 0 0 1 .805-.805z" fill="#1793e6"/>
  <path d="M10.088 288.004c-.374 0-.708.148-.962.382l.408.472a.851.851 0 0 1 .108-.09.716.716 0 0 1 .356-.127c.044-.004.09-.002.14 0a.751.751 0 0 1 .663.433.829.829 0 0 1 .085.402v.002a.313.313 0 0 0 .625 0v-.002-.049c0-.024-.002-.049-.004-.073l-.001-.01-.001-.025h-.001a1.421 1.421 0 0 0-1.417-1.315M6.833 288a1.426 1.426 0 1 0 0 2.852 1.426 1.426 0 0 0 0-2.852zm.006.626a.805.805 0 0 1 .804.805.805.805 0 0 1-.804.805.805.805 0 0 1-.805-.805.805.805 0 0 1 .805-.805z" fill="#1793e6"/>
  <path transform="matrix(.20374 0 0 .20374 5.407 286.47)" d="M6.973 7.471c-.365 0-.744.04-1.094.094a2.842 2.842 0 0 1 1.719 2.594c0 .16-.036.316-.063.469a3.839 3.839 0 0 1 2.938 2.063c.791 1.577.522 3.357-.719 4.594.962-.959 2.934-2.702 4.156-3.844-.512-3.375-3.409-5.969-6.938-5.969z" fill="#f44" filter="url(#a)"/>
  <path d="M7.452 290.53l-.652.026 2.295-2.13.41.46-1.78 1.653z" fill="#1793e6"/>
  <circle cx="11.213" cy="290.31" r=".306" fill="#1793e6"/>
 </g>
</svg>
