<svg width="64" height="64" version="1.1" viewBox="0 0 16.933 16.933" xmlns="http://www.w3.org/2000/svg">
 <g transform="matrix(.96429 0 0 .96429 17.876 .64831)" stroke-width=".27438">
  <path d="m-2.3498 8.1078c0-4.1041-3.3041-7.4082-7.4082-7.4082-0.73446 0-1.0865 0.85182-1.7554 1.0491-2.5048 0.73878-4.8058 2.0142-5.4358 4.5647-0.14182 0.57418-0.21703 1.1752-0.21703 1.7944 0 4.1041 3.3041 7.4082 7.4082 7.4082 0.37703 0 0.81218-0.67659 1.1738-0.73041 2.721-0.40505 4.8848-1.6305 5.7939-4.1464 0.28516-0.78915 0.44051-1.6414 0.44051-2.5314z" fill="#464646"/>
  <circle cx="-9.758" cy="8.1077" r="4.2333" fill="#ccc"/>
  <path d="m-16.726 2.2869a0.44653 0.44653 0 0 0-0.44009 0.44649v3.8696a0.44653 0.44653 0 0 0 0.44649 0.44649h3.8696a0.44653 0.44653 0 0 0 0.31568-0.76217l-3.8696-3.8696a0.44653 0.44653 0 0 0-0.32208-0.13081z" fill="#fb4848"/>
  <path d="m-2.7899 13.928a0.44653 0.44653 0 0 0 0.44009-0.44649v-3.8696a0.44653 0.44653 0 0 0-0.44649-0.44649h-3.8696a0.44653 0.44653 0 0 0-0.31568 0.76217l3.8696 3.8696a0.44653 0.44653 0 0 0 0.32208 0.13081z" fill="#486afb"/>
  <circle cx="-9.758" cy="8.1077" r="1.5875" fill="#f2f2f2"/>
  <path d="m-2.7914 10.633c-1.0326 2.848-3.762 4.8827-6.9666 4.8827v-3.1749c1.5974 0 2.9881-0.88473 3.7089-2.1909z" fill="#486afb"/>
  <path d="m-9.758 0.69956c-2.8883 0-5.3906 1.6529-6.6125 4.0645l2.6622 1.8186c0.61209-1.5844 2.1499-2.7082 3.9502-2.7082z" fill="#fb4848"/>
 </g>
</svg>
