<?xml version="1.0" encoding="UTF-8" standalone="no"?>
<svg
   width="64"
   height="64"
   version="1.1"
   id="svg6"
   xmlns="http://www.w3.org/2000/svg"
   xmlns:svg="http://www.w3.org/2000/svg">
  <defs
     id="defs10" />
  <circle
     cx="32"
     cy="32"
     r="27"
     color="#000"
     fill="#ffc831"
     id="circle2"
     style="fill:#deb247;fill-opacity:1" />
  <path
     style="fill:#091c19;stroke-width:0.0266643;fill-opacity:1"
     d="m 31.587749,50.03947 c -0.580055,-0.07685 -0.685005,-0.101025 -1.133235,-0.260939 -1.360248,-0.485302 -2.790396,-1.612885 -3.890235,-3.067224 -0.723752,-0.95704 -1.226506,-2.012035 -1.57563,-3.30638 -0.167638,-0.621506 -0.296465,-1.222646 -0.296518,-1.383729 -2.8e-5,-0.08221 0.03738,-0.347455 0.08316,-0.589436 0.138652,-0.733136 0.612984,-3.341414 0.612984,-3.370748 0,-0.01509 -0.07498,0.04521 -0.16664,0.133964 -0.529664,0.512909 -1.563376,1.378039 -2.166481,1.813172 -0.854522,0.616525 -1.684887,1.025922 -2.403458,1.185007 -0.374738,0.08297 -0.423861,0.08761 -0.902918,0.08554 -0.648988,-0.0028 -1.002726,-0.06715 -1.537005,-0.279533 -0.862593,-0.342907 -1.659976,-0.902609 -2.631691,-1.8472 -0.667127,-0.648509 -1.016627,-1.080701 -1.250879,-1.546745 -0.209662,-0.417174 -0.27722,-0.738346 -0.275628,-1.310399 v -0.377352 l -0.285992,-0.207056 c -1.237708,-0.896098 -1.897196,-1.650343 -2.726131,-3.117883 -0.726263,-1.285696 -1.0676122,-2.21067 -1.0653462,-2.886652 0.0027,-0.453552 0.0312,-0.591579 0.2034832,-0.946428 0.139757,-0.287854 0.176114,-0.339514 0.361916,-0.514308 0.359327,-0.338022 0.522593,-0.443053 1.005832,-0.64708 0.324022,-0.136794 0.588071,-0.225167 0.963645,-0.322495 1.370043,-0.355056 3.500329,-0.624494 5.516877,-0.697782 2.359517,-0.08574 4.448158,0.174567 8.169378,1.018174 0.56073,0.12712 0.721269,0.155029 0.737787,0.128273 0.03638,-0.05885 0.05951,-0.52274 0.04021,-0.806355 -0.02699,-0.396615 -0.08988,-0.85619 -0.148422,-1.084762 -0.07887,-0.307939 -0.159514,-0.524029 -0.432929,-1.159899 -0.501134,-1.165557 -0.639704,-1.737566 -0.639515,-2.639775 1.89e-4,-0.79545 0.111278,-1.331942 0.414819,-2.002877 0.235033,-0.519558 0.486694,-0.872427 0.931472,-1.306028 0.209176,-0.203929 0.480568,-0.442771 0.603131,-0.530763 0.122565,-0.088 0.251958,-0.183984 0.287585,-0.213314 l 0.06478,-0.05334 -0.08615,-0.159984 c -0.280188,-0.520319 -0.722808,-0.961207 -1.719651,-1.712923 -0.694063,-0.52339 -0.793848,-0.663055 -0.795494,-1.113501 0,-0.234201 0.0075,-0.285057 0.06996,-0.417968 0.244237,-0.520968 0.863833,-0.737122 1.374091,-0.479364 0.157733,0.07967 0.756195,0.522278 1.261405,0.932894 0.387396,0.314846 0.96679,0.901032 1.190385,1.204331 0.178611,0.242276 0.463885,0.728141 0.551874,0.939921 0.03789,0.09121 0.05063,0.09999 0.144921,0.09999 0.05685,0 0.228453,-0.01725 0.381325,-0.03833 0.430335,-0.05934 1.058363,-0.09886 1.571176,-0.09886 0.512811,0 1.140839,0.03952 1.571171,0.09886 0.152876,0.02109 0.324473,0.03833 0.381328,0.03833 0.0943,0 0.107022,-0.0088 0.144922,-0.09999 0.08798,-0.21178 0.373263,-0.697645 0.551873,-0.939921 0.223593,-0.303299 0.80299,-0.889485 1.190374,-1.204331 0.503535,-0.409245 1.103479,-0.853118 1.259859,-0.932111 0.511837,-0.258555 1.131071,-0.04313 1.375638,0.478581 0.0623,0.132911 0.07081,0.183767 0.06996,0.417968 -0.0016,0.450446 -0.101423,0.590111 -0.795482,1.113501 -0.99684,0.751716 -1.439462,1.192604 -1.719652,1.712923 l -0.08615,0.159984 0.06477,0.05334 c 0.03562,0.02932 0.165037,0.125323 0.287591,0.213314 0.122551,0.08799 0.393968,0.326834 0.603142,0.530763 0.444761,0.433601 0.696436,0.78647 0.931473,1.306028 0.303521,0.670935 0.414631,1.207427 0.414807,2.002877 2.61e-4,0.902209 -0.138379,1.474218 -0.639523,2.639775 -0.273401,0.63587 -0.354055,0.85196 -0.432927,1.159899 -0.05855,0.228572 -0.12142,0.688147 -0.14841,1.084762 -0.0193,0.283615 0.0039,0.747502 0.0402,0.806355 0.01654,0.02675 0.17708,-0.0011 0.737807,-0.128273 3.723502,-0.844126 5.80841,-1.103974 8.16936,-1.018174 2.016568,0.07328 4.14684,0.342726 5.516889,0.697782 0.375563,0.09733 0.639623,0.185701 0.963636,0.322495 0.483256,0.204027 0.64652,0.309058 1.005841,0.64708 0.185802,0.174794 0.222156,0.226454 0.361916,0.514308 0.172286,0.354849 0.20196,0.492876 0.203485,0.946428 0.0022,0.675982 -0.339099,1.600956 -1.06534,2.886652 -0.828959,1.46754 -1.488437,2.221785 -2.726143,3.117883 l -0.285995,0.207056 0.0011,0.377352 c 0.0016,0.572053 -0.06595,0.893225 -0.275634,1.310399 -0.234229,0.466044 -0.583752,0.898236 -1.250876,1.546745 -0.971707,0.944591 -1.769103,1.504293 -2.631692,1.8472 -0.534261,0.212384 -0.88801,0.276722 -1.536991,0.279533 -0.479066,0.0022 -0.528179,-0.0027 -0.902913,-0.08554 -0.718587,-0.159085 -1.548945,-0.568482 -2.40347,-1.185007 -0.603117,-0.435133 -1.636819,-1.300263 -2.166479,-1.813172 -0.09166,-0.08876 -0.166652,-0.149043 -0.166652,-0.133964 0,0.02934 0.474334,2.637612 0.612992,3.370748 0.04577,0.241981 0.08318,0.507226 0.08316,0.589436 0,0.161083 -0.128875,0.762223 -0.296516,1.383729 -0.349118,1.294345 -0.851869,2.34934 -1.575633,3.30638 -1.096401,1.449786 -2.537448,2.587542 -3.876898,3.060954 -0.570085,0.201491 -0.486813,0.180861 -0.986582,0.244409 -0.452516,0.05753 -0.684033,0.06289 -0.986582,0.0228 z m 0.786597,-2.034564 c 1.447961,-0.224659 3.423122,-2.01201 4.243552,-3.840045 0.149005,-0.332001 0.181912,-0.439964 0.134112,-0.439964 -0.01206,0 -0.31505,0.102971 -0.673276,0.228824 -0.48129,0.169091 -0.860141,0.279718 -1.451248,0.423769 -0.439961,0.107215 -0.841926,0.202078 -0.893256,0.210807 -0.221453,0.03764 -1.526448,0.152372 -1.733183,0.152372 -0.206737,0 -1.511732,-0.114733 -1.733185,-0.152372 -0.05133,-0.0088 -0.453295,-0.103585 -0.893256,-0.210807 -0.591107,-0.144051 -0.969946,-0.254678 -1.451243,-0.423769 -0.358219,-0.125852 -0.661215,-0.228824 -0.67328,-0.228824 -0.04781,0 -0.01484,0.107967 0.134116,0.439964 0.814495,1.81485 2.799097,3.61683 4.230214,3.840976 0.29067,0.04553 0.46187,0.04531 0.759933,-8.09e-4 z m 0.386635,-5.349084 c 0.565596,-0.05222 0.671332,-0.07074 1.359883,-0.23823 0.566509,-0.137805 0.929912,-0.245732 1.506537,-0.447438 1.096385,-0.383518 1.519866,-0.557151 1.519866,-0.623151 0,-0.105668 -0.374828,-2.087248 -0.399476,-2.111897 -0.01611,-0.01611 -0.111118,2.69e-4 -0.259601,0.04496 -1.379602,0.414624 -2.549275,0.65951 -3.540558,0.741266 -0.351971,0.02903 -0.777934,0.05278 -0.946585,0.05278 -0.168653,0 -0.594616,-0.02375 -0.946587,-0.05278 -0.991283,-0.08176 -2.160955,-0.326642 -3.540572,-0.741266 -0.148475,-0.04463 -0.243455,-0.06107 -0.259595,-0.04496 -0.02456,0.02465 -0.39946,2.006226 -0.39946,2.111897 0,0.06599 0.423293,0.239555 1.519866,0.623174 1.087503,0.380451 1.955865,0.592962 2.759754,0.675378 0.755436,0.07746 0.889631,0.0783 1.626528,0.01024 z M 20.22103,39.220268 c 0.818706,-0.191441 1.902001,-0.931388 3.513663,-2.399994 0.988477,-0.900747 2.808128,-2.660091 2.78686,-2.694506 -0.0073,-0.01193 -0.06934,-0.04077 -0.137679,-0.06405 l -0.124265,-0.04234 -1.228936,0.33545 c -2.618384,0.714718 -3.082433,0.815183 -6.575125,1.42347 -1.268557,0.220928 -2.321461,0.407064 -2.339787,0.413633 -0.04734,0.01695 -0.04338,0.364594 0.0053,0.481504 0.07204,0.172405 0.345696,0.503211 0.761135,0.920101 0.951553,0.954868 1.743161,1.488335 2.42945,1.63722 0.254035,0.05511 0.648125,0.05057 0.909232,-0.01047 z m 24.457684,0.01147 c 0.694619,-0.147144 1.481187,-0.675024 2.441029,-1.638212 0.41544,-0.416892 0.689089,-0.747697 0.761127,-0.920101 0.04884,-0.11691 0.0528,-0.464546 0.0055,-0.481504 -0.01833,-0.0066 -1.071243,-0.192706 -2.339798,-0.413635 C 42.053881,35.17 41.589821,35.069535 38.971438,34.354817 l -1.228932,-0.335451 -0.124253,0.04234 c -0.06834,0.02329 -0.1303,0.05211 -0.13768,0.06405 -0.02127,0.03441 1.798368,1.793759 2.786852,2.694505 1.592338,1.451002 2.6837,2.200136 3.492635,2.397424 0.249041,0.06073 0.668032,0.06715 0.91868,0.01407 z M 32.818881,38.004752 c 0.659818,-0.05339 1.490081,-0.216651 2.424111,-0.476662 0.998418,-0.27793 1.089125,-0.30938 1.099338,-0.381142 0.0084,-0.05922 -0.142048,-0.804044 -0.1676,-0.829602 -0.0076,-0.0076 -0.370868,0.0655 -0.807214,0.162486 -1.350743,0.300222 -2.337195,0.424656 -3.366469,0.424656 -1.029275,0 -2.015726,-0.124434 -3.366481,-0.424656 -0.43633,-0.09698 -0.79957,-0.170103 -0.807208,-0.162486 -0.02564,0.02556 -0.176033,0.770381 -0.167585,0.829602 0.01024,0.07176 0.100922,0.103209 1.099327,0.381142 1.629405,0.453585 2.737377,0.583671 4.059781,0.476662 z m -0.164559,-3.144129 c 0.613993,-0.04113 1.36604,-0.151455 2.025763,-0.29718 0.234245,-0.05174 0.430572,-0.09875 0.436287,-0.104462 0.0057,-0.0057 -0.0031,-0.08751 -0.01946,-0.181753 -0.03507,-0.201348 -0.04246,-0.547132 -0.01493,-0.698247 0.02367,-0.129931 0.125626,-0.339154 0.229652,-0.471256 l 0.07723,-0.09807 -0.360649,-0.173425 c -0.454473,-0.218548 -0.758516,-0.402373 -0.952017,-0.575591 -0.308038,-0.275752 -0.547884,-0.673593 -0.677313,-1.123483 -0.06153,-0.213833 -0.0717,-0.298754 -0.07152,-0.59687 2.69e-4,-0.514683 0.103062,-0.823437 0.396341,-1.191014 0.235911,-0.295671 0.557032,-0.557709 1.035888,-0.845296 l 0.28119,-0.168881 v -0.206956 c 0,-0.163315 -0.0099,-0.215818 -0.04667,-0.248988 -0.07674,-0.06912 -0.95873,-0.5083 -1.259891,-0.62735 -0.640066,-0.253029 -1.281895,-0.334032 -2.193145,-0.276797 -0.522376,0.03282 -0.819342,0.09737 -1.273221,0.276797 -0.301162,0.11905 -1.183153,0.55823 -1.259892,0.62735 -0.03682,0.03317 -0.04667,0.08567 -0.04667,0.248988 v 0.206956 l 0.281193,0.168881 c 0.478854,0.287587 0.799972,0.549625 1.035886,0.845296 0.293282,0.367577 0.396027,0.676331 0.39634,1.191014 2e-4,0.298116 -0.01001,0.383037 -0.07151,0.59687 -0.129428,0.44989 -0.369277,0.847731 -0.677315,1.123483 -0.193502,0.173218 -0.497545,0.357043 -0.952015,0.575591 l -0.360651,0.173425 0.07723,0.09807 c 0.104029,0.132102 0.205987,0.341325 0.22965,0.471256 0.02753,0.151115 0.02013,0.496899 -0.01493,0.698247 -0.01641,0.09425 -0.02516,0.17604 -0.01946,0.181753 0.02589,0.02589 0.912234,0.206544 1.382143,0.281715 0.468284,0.07491 1.241994,0.146635 1.66652,0.154478 0.088,0.0016 0.411966,-0.01393 0.71994,-0.03455 z M 16.797166,34.017831 c 4.811344,-0.837782 4.765486,-0.828463 6.943141,-1.411027 2.11285,-0.565232 2.155334,-0.578625 2.901191,-0.914834 1.452635,-0.654788 1.769369,-0.809136 1.905239,-0.928417 0.160441,-0.140873 0.122376,-0.220461 -0.212037,-0.44333 -0.292848,-0.19517 -0.451067,-0.268203 -0.706614,-0.326193 -0.139325,-0.03161 -0.78127,-0.177716 -1.426534,-0.324678 -3.531692,-0.804329 -4.972397,-1.025795 -7.012723,-1.077993 -2.541488,-0.06502 -6.392209,0.47524 -7.102736,0.996517 -0.08645,0.06344 -0.08942,0.0714 -0.07574,0.203933 0.03854,0.373431 0.428718,1.218245 0.997842,2.16053 0.572038,0.947097 1.008368,1.427877 1.874335,2.065262 0.197976,0.145725 0.363616,0.265663 0.368097,0.266531 0.0046,8.09e-4 0.700433,-0.11897 1.546534,-0.266301 z m 32.326488,-0.0055 c 0.846328,-0.615731 1.314176,-1.132135 1.880562,-2.075742 0.567035,-0.944687 0.949368,-1.775076 0.987527,-2.144842 0.01369,-0.132526 0.0107,-0.140496 -0.07575,-0.203933 -0.355842,-0.261066 -1.667793,-0.574095 -3.209717,-0.765836 -1.427964,-0.177568 -2.778973,-0.257542 -3.892999,-0.230451 -2.02293,0.04919 -3.479098,0.272989 -7.012725,1.077764 -0.64528,0.146961 -1.287224,0.293066 -1.426547,0.324678 -0.255541,0.05799 -0.413749,0.131023 -0.706603,0.326192 -0.494041,0.32925 -0.4545,0.384856 0.631748,0.888407 0.209824,0.09727 0.687472,0.314772 1.06144,0.483342 0.737312,0.332353 0.754943,0.337967 2.746427,0.874159 2.062281,0.555259 2.52613,0.654194 5.49286,1.17156 1.13657,0.198205 2.29447,0.401342 2.57311,0.451415 0.278646,0.05008 0.52201,0.0923 0.540817,0.09382 0.01881,0.0016 0.203239,-0.120211 0.409855,-0.270531 z M 29.195359,25.516273 c 0.343555,-0.156389 0.720593,-0.298003 0.99251,-0.37278 0.987912,-0.271671 2.638442,-0.271671 3.626352,0 0.27192,0.07477 0.648957,0.216391 0.992512,0.37278 0.157247,0.07159 0.297031,0.130149 0.310629,0.130149 0.01361,0 0.0447,-0.09299 0.06911,-0.206648 0.07216,-0.335971 0.192383,-0.675518 0.473811,-1.338121 0.295417,-0.695553 0.391237,-0.954126 0.470003,-1.26832 0.215635,-0.860179 0.09544,-1.687662 -0.337826,-2.325666 -0.211348,-0.31122 -0.792425,-0.792331 -1.340021,-1.109484 -0.235259,-0.136256 -1.512718,-0.284528 -2.451389,-0.284528 -0.938671,0 -2.216132,0.148272 -2.451391,0.284528 -0.547595,0.317153 -1.128667,0.798264 -1.340031,1.109484 -0.433253,0.638004 -0.553442,1.465487 -0.337814,2.325666 0.07876,0.314194 0.174575,0.572767 0.470015,1.26832 0.281403,0.662603 0.401641,1.00215 0.473794,1.338121 0.0244,0.113656 0.05551,0.206648 0.06911,0.206648 0.0136,0 0.153381,-0.05857 0.310629,-0.130149 z"
     id="path827" />
</svg>
