<svg xmlns="http://www.w3.org/2000/svg" width="64" height="64"><g stroke-linecap="round" stroke-linejoin="round"><path fill="#f9d73a" d="M31.998 4c-3 0-6 2-6 2-1.55.885-2.643 1.48-4 2.234l-2 2.765-2-.53C9.782 15.047 6 17.548 6 22.998v18c0 7 6 9 20 17 0 0 3 1.999 5.999 1.999 3 0 6-2 6-2 14-8 20-10 20-17V23c0-7-6-9-20-17 0 0-3-2-6-2z"/><path fill="#333" d="M22 8.24c-1.357.754-2.832 1.583-4 2.234v24.532c0 4 2 7 10 10.999 0 0 2 1 4 1s3.999-1 3.999-1c8-4 10-7 10-11v-6c0-3.999-2-6.999-10-10.999 0 0-2-1-4-1v5c5.523 0 10 4.477 10 10s-4.477 10-10 10c-5.522 0-10-4.477-10-10zm8 9.061c-1.132.296-2 .703-2 .703v4.844a9.87 9.87 0 0 1 2-.644zm-4 1.801a38.18 38.18 0 0 0-2 1.18v5.777a10.03 10.03 0 0 1 2-2.008z"/></g></svg>