<svg xmlns="http://www.w3.org/2000/svg" width="64" height="64"><circle cx="32" cy="32" r="27" fill="#ececec"/><path fill="#ff3200" d="M32 10c.29 0 .578.016.867.027A15 15 0 0 0 32 10m.867.027c7.61.449 13.644 6.761 13.644 14.483 0 5.808-3.542 12.026-10.16 11.49-5.559-.566-7.037-2.75-7.35-5.588-.303-2.74 2.077-5.408 6.362-5.412 2.774-.004 5.38 1.436 4.74 3.718 3.972-4.017-2.769-10.55-9.379-10.669-2.594-.046-5.167.954-7.065 3.29 1.563-1.091 2.817-1.48 4.38-1.527-.799.379-1.926.86-2.619 1.898 1.265-.784 2.668-1.104 4.365-.934-4.885 1.034-8.318 7.323-7.87 14.162A14.46 14.46 0 0 1 17.49 24.51c0-7.763 6.098-14.103 13.764-14.491a22 22 0 0 0-7.313 1.506 22.06 22.06 0 0 0-9.086 6.69q-.048 4.365 1.128 9.343c-1.213-2.608-2.094-5.215-2.248-7.823a21.9 21.9 0 0 0-3.12 7.087 19.5 19.5 0 0 0 3.491 5.992q-1.94-1.218-3.88-3.959a22.2 22.2 0 0 0 .08 6.81c1.582 1.593 3.16 2.613 4.74 3.468q-1.926.14-4.147-.89c2.258 7.637 8.647 13.55 16.37 15.244 1.297-1.363 1.84-2.926 2.987-4.917.063 1.231-.583 3.147-1.483 5.193a22.2 22.2 0 0 0 6.457 0c-.9-2.046-1.546-3.962-1.483-5.193 1.148 1.991 1.69 3.552 2.987 4.917 7.727-1.7 14.112-7.603 16.37-15.243q-2.221 1.03-4.147.889c1.58-.855 3.159-1.875 4.74-3.467.377-2.253.405-4.55.08-6.81q-1.94 2.74-3.88 3.958a19.4 19.4 0 0 0 3.492-5.992 21.8 21.8 0 0 0-3.121-7.09c-.154 2.609-1.035 5.218-2.248 7.826q1.177-4.98 1.128-9.343a22.03 22.03 0 0 0-11.56-7.498v-.003a22 22 0 0 0-4.718-.687zm.723 10.41c1.71.643 3.269.18 2.535 1.184-.922-.276-1.75-.699-2.535-1.184"/></svg>