<svg width="64" height="64" version="1.1" xmlns="http://www.w3.org/2000/svg">
 <circle cx="32" cy="32" r="27" fill="#ececec" stroke-width=".96429"/>
 <path d="m32 10c0.28961 0 0.57819 0.01554 0.86749 0.02686-0.28727-0.01696-0.57597-0.02686-0.86749-0.02686zm0.86749 0.02686c7.6093 0.44914 13.644 6.7616 13.644 14.483 0 5.8084-3.542 12.026-10.16 11.49-5.5593-0.56571-7.0375-2.7503-7.3509-5.5879-0.30268-2.7408 2.0779-5.4081 6.3625-5.4121 2.7743-0.0042 5.3796 1.4362 4.7403 3.7186 3.9716-4.017-2.7693-10.55-9.379-10.669-2.5939-0.04682-5.1676 0.95396-7.0657 3.2902 1.5634-1.0921 2.817-1.4809 4.3804-1.5281-0.79911 0.37905-1.926 0.8599-2.6186 1.8987 1.2642-0.78475 2.6677-1.1046 4.3643-0.93457-4.8847 1.0346-8.3179 7.3235-7.8692 14.162-2.7292-2.6368-4.4261-6.3344-4.4261-10.428 0-7.7626 6.0978-14.103 13.764-14.491-2.4995 0.08452-4.9858 0.58795-7.3132 1.5066-3.5837 1.4116-6.709 3.7373-9.0858 6.6897-0.03279 2.9093 0.34322 6.0239 1.128 9.343-1.213-2.6082-2.0942-5.2149-2.248-7.823-1.4323 2.1287-2.5 4.5179-3.1208 7.0872 0.84212 2.3193 2.0428 4.2807 3.4915 5.9915-1.2929-0.81133-2.5859-2.131-3.8809-3.9585-0.32392 2.2607-0.29629 4.5581 0.08057 6.8105 1.5818 1.5919 3.1606 2.6127 4.7403 3.467-1.2847 0.09422-2.6654-0.20256-4.1468-0.88892 2.258 7.636 8.6469 13.549 16.37 15.243 1.297-1.3625 1.8391-2.9258 2.9865-4.9172 0.06354 1.2314-0.58306 3.147-1.4825 5.1938 2.137 0.31489 4.3194 0.31351 6.4565 0-0.89951-2.0467-1.5461-3.9625-1.4825-5.1938 1.1474 1.9915 1.6895 3.5527 2.9865 4.9172 7.7267-1.7005 14.112-7.6031 16.37-15.243-1.4814 0.68632-2.8621 0.9831-4.1468 0.88892 1.5797-0.85438 3.1585-1.8751 4.7403-3.467 0.37687-2.2525 0.40449-4.5498 0.08058-6.8105-1.295 1.8276-2.5859 3.1472-3.8809 3.9585 1.4507-1.7108 2.6494-3.6721 3.4915-5.9915-0.61882-2.5692-1.6866-4.9611-3.1208-7.0898-0.15366 2.6082-1.035 5.2175-2.248 7.8257 0.78481-3.3192 1.1607-6.4337 1.128-9.343-2.9095-3.6121-6.9389-6.2872-11.559-7.498v-0.0027c-1.5414-0.40222-3.1271-0.62518-4.7188-0.68749zm0.72246 10.41c1.7109 0.64331 3.2689 0.18038 2.5353 1.1843-0.92204-0.27662-1.7506-0.69877-2.5353-1.1843z" fill="#ff3200"/>
</svg>
