<svg width="64" height="64" version="1.1" xmlns="http://www.w3.org/2000/svg">
 <title>bisq_logo_green</title>
 <circle cx="32" cy="32" r="27" fill="#f9f9f9"/>
 <desc>Created with Sketch.</desc>
 <path id="Combined-Shape" d="m46.124 20.921c1.4241 3.0966 1.7266 3.7362 2.8186 6.8852 0.62698 1.9784-0.62889 4.9086-5.8067 2.4178-3.6876-1.7578-6.3556-3.0032-4.1583-5.9334 1.0708-1.4219 2.2832-2.7461 3.6209-3.955 1.4235-1.2433 2.3051-2.0268 3.5256 0.58533zm-1.2277 19.834c2.7119-2.6669 6.4798 0.31667 3.8478 3.8966-5.3028 7.2493-14.56 10.14-22.856 7.2273-8.2952-2.9128-13.89-10.877-13.888-19.988-0.020902-5.4584 1.7897-10.013 5.2491-14.116 3.33-3.7262 8.2874-6.7119 13.177-6.7756 6.8729 0 9.9435 6.0121 7.5229 9.3647-2.7048 3.7278-5.8499 3.4247-8.1889 1.826 0 0-3.218-2.2825-4.1681-3.0439-1.4634-1.1403-3.0724-1.1403-3.6567 0.68567-1.0229 3.2713-1.5344 5.3264-2.3389 8.5977-0.37427 1.6459-0.57025 3.3302-0.58428 5.0215 0.0168 3.1135 1.3882 6.0513 3.7295 7.9897 1.6167 1.5185 3.3531 2.8928 5.1911 4.1085 1.4798 1.0096 3.2035 1.5638 4.9726 1.5987h0.14563c1.7691-0.03493 3.4928-0.58908 4.9726-1.5987 2.3901-1.4385 4.6861-3.0401 6.8729-4.7942zm-19.335-3.77c-0.97534-0.35728-3.1833-2.2842-2.5346-3.7133 0.26041-0.78568 2.1448-0.99901 2.7287-0.99901 3.4453-0.07112 3.5747 6.0704-0.19412 4.7123zm6.0595 6.5433c-0.44006-0.39451-1.2471-1.1835-1.9811-1.8416-0.20327-0.22064-0.24239-0.52796-0.09979-0.78398 0.1426-0.25602 0.44012-0.41265 0.75899-0.39955 1.2948-0.06577 2.5927-0.06577 3.8875 0 0.3004 0.02211 0.56038 0.19599 0.66957 0.44786 0.10919 0.25186 0.04844 0.53751-0.15647 0.73568-0.73224 0.65805-1.5393 1.4471-1.9063 1.8416-0.15924 0.1318-0.36948 0.20284-0.58615 0.19805-0.21667 0.0048-0.4269-0.06625-0.58615-0.19805zm7.7275-6.5433c-3.7688 1.358-3.6394-4.7834-0.19412-4.7123 0.58394 0 2.4036 0.21333 2.7288 0.99901 0.64865 1.4291-1.5593 3.356-2.5346 3.7133z" fill="#25b135"/>
</svg>
