<svg width="64" height="64" version="1.1" viewBox="0 0 64 64" xmlns="http://www.w3.org/2000/svg" xmlns:xlink="http://www.w3.org/1999/xlink">
 <g transform="matrix(1.35 0 0 1.35 -.4 -.4)" stroke-width=".74074">
  <circle cx="24" cy="24" r="20" fill="#f89d30"/>
  <path d="m20 12v4c-0.49169 0.02-1.3942 0-1.8652 0h-3.1348v2s1.7188-0.02999 1.6914 0c0.92026-0.014 1.2133 0.65409 1.3086 1.0996v9.9004c-0.03527 0.28155-0.0053 0.98-0.64844 1 0.029699 0.026-2.3516 0-2.3516 0v2h3.2539c0.5502-0.02 1.2146 0 1.7461 0v4l2-0.03711v-3.9629h1.9688l0.0625 4h2l-0.0625-4c6.0312 0 6.0312-3 6.0312-4.502 0-1.498-0.63423-3.4961-3-3.498 1.3658 0.0019 2-2.2565 2-4 0-2.2566-2-4-5-4v-4h-2v4c-0.59725 0-1.3937-0.022-2 0v-4zm2 6c2 0 5.0003 3.8e-5 5 2.5 3.47e-4 2.5002-3 2.5-5 2.5zm0 7c4 1.25e-4 6.0004 3.8e-5 6 2.5 4.16e-4 2.5002-2 2.5-6 2.5z" fill="#fff"/>
 </g>
</svg>
