<svg width="64" height="64" version="1.1" viewBox="0 0 64 64" xmlns="http://www.w3.org/2000/svg">
 <rect x="6" y="6" width="52" height="52" rx="8" ry="8" fill="#ececec" fill-rule="evenodd" stop-color="#000000" stroke-linecap="round" stroke-linejoin="round" stroke-width="1.8909" style="paint-order:stroke fill markers"/>
 <path d="m11.275 45.273c-0.1381 0.7081-0.3315 2.2092 0 2.549h1.6574l16.16-17.418c-0.6906-0.8496-2.3204-2.8888-3.3148-4.2483-1.243-1.6994-3.3148-1.6994-4.9722-0.4249-1.3259 1.0196-6.9058 13.453-9.53 19.542z" fill="#545454"/>
 <path d="m35.909 24.139c-1.0367-1.0367-1.65-2.4118-1.705-3.8228-0.0551-1.411 0.4527-2.7424 1.4115-3.7013 0.9589-0.9588 2.2903-1.4666 3.7013-1.4115 1.411 0.055 2.7861 0.6683 3.8228 1.705l-7.2306 7.2306z" fill="#545454"/>
 <path d="m32 13h-1v2h-2v1h2v3h-20v29h29v-20h4v-1h-4v-3h4v-1h-4v-3h4v-1h-4v-3h4v-1h-4v-2h-1v2h-3v-2h-1v2h-3v-2zm7 3h-3v3h3v-3zm0 4h-3v3h3v-3zm0 4h-3v3h3v-3zm0 4h-3v3h3v-3zm0 4h-3v3h3v-3zm0 4h-3v3h3v-3zm0 4h-3v3h3v-3zm0 4h-3v3h3v-3zm-4 0v3h-3v-3h3zm0-4v3h-3v-3h3zm0-4v3h-3v-3h3zm0-4v3h-3v-3h3zm0-4v3h-3v-3h3zm0-4v3h-3v-3h3zm0-4v3h-3v-3h3zm0-4v3h-3v-3h3zm-4 4h-3v3h3v-3zm0 4h-3v3h3v-3zm0 4h-3v3h3v-3zm0 4h-3v3h3v-3zm0 4h-3v3h3v-3zm0 4h-3v3h3v-3zm0 4h-3v3h3v-3zm-4-20v3h-3v-3h3zm-4 0v3h-3v-3h3zm0 4h-3v3h3v-3zm-4-4v3h-3v-3h3zm0 4h-3v3h3v-3zm-4-4v3h-3v-3h3zm0 4h-3v3h3v-3zm12 0h-3v3h3v-3zm-12-5h-3v-3h3v3zm4 0h-3v-3h3v3zm4 0h-3v-3h3v3zm4 0h-3v-3h3v3zm0 21v3h-3v-3h3zm-4 0v3h-3v-3h3zm-4 0v3h-3v-3h3zm-4 0v3h-3v-3h3zm-3-1h3v-3h-3v3zm4 0h3v-3h-3v3zm4 0h3v-3h-3v3zm4 0h3v-3h-3v3zm3-7v3h-3v-3h3zm-4 0v3h-3v-3h3zm-4 0v3h-3v-3h3zm-4 0v3h-3v-3h3zm-3-1h3v-3h-3v3zm4 0h3v-3h-3v3zm4 0h3v-3h-3v3zm4 0h3v-3h-3v3z" clip-rule="evenodd" fill="#ececec" fill-rule="evenodd"/>
 <path d="m44.844 20.732c-0.055-1.411-0.6683-2.7862-1.705-3.8228l-7.2306 7.2306c1.0366 1.0367 2.4118 1.65 3.8228 1.705 1.411 0.0551 2.7424-0.4527 3.7013-1.4115 0.9588-0.9589 1.4666-2.2903 1.4115-3.7013zm-14.844 10.768 5.6862 7.8219c0.9001 1.0326 1.4334 1.0637 2.4208 0l4.0348-4.25c0.6854-0.7939 1.038-0.7822 1.6138 0l7.666 10.625c1.1326 1.6577 0.8939 2.1365-1.2104 2.125h-37.119l16.908-16.322z" clip-rule="evenodd" fill="#1A81C4" fill-rule="evenodd"/>
 <path d="m51.375 6.125-45.25 45.25c0.19112 1.1105 0.60461 2.1413 1.2012 3.043l47.092-47.092c-0.90167-0.59656-1.9325-1.0101-3.043-1.2012z" fill="#3c3c3c" stroke-width="1.2537"/>
</svg>
