<svg width="64" height="64" version="1" xmlns="http://www.w3.org/2000/svg">
 <rect transform="matrix(0,-1,-1,0,0,0)" x="-58" y="-58" width="52" height="52" rx="7" ry="7" fill="#175ddc" stroke-width=".89655"/>
 <path d="m17.714 15c-0.71413 0-0.71381-0.10764-0.71381 10.398 0 10.661-0.01324 10.448 0.80645 12.515 0.94322 2.3779 2.4626 4.3878 4.9561 6.5725 2.0929 1.8326 4.574 3.4923 7.3419 4.9014 0.93616 0.47646 1.4197 0.69351 1.8953 0.68557 0.47558 8e-3 0.9591-0.20911 1.8953-0.68557 2.7679-1.4091 5.249-3.0688 7.3419-4.9014 2.4935-2.1847 4.0129-4.1946 4.9561-6.5725 0.81969-2.0673 0.80645-1.8538 0.80645-12.515 0-10.506 3.19e-4 -10.398-0.71381-10.398zm14.286 5h9.7057v14.191s-0.0053 0.6891-0.43411 1.7717c-0.60263 1.5185-1.4382 2.7176-3.5223 4.5423-1.582 1.3853-3.5761 2.6682-5.7493 3.8258z" fill="#ffffff" stroke-width=".88233"/>
</svg>
