<svg width="64" height="64" version="1.1" xmlns="http://www.w3.org/2000/svg">
 <path d="m33.032 5.0197a26.999 26.999 0 0 0-8.0191 0.90022 26.999 26.999 0 0 0-19.093 33.067 26.999 26.999 0 0 0 33.067 19.093 26.999 26.999 0 0 0 19.093-33.067 26.999 26.999 0 0 0-25.048-19.993z" fill="#fed909" stroke-width=".96426"/>
 <circle transform="rotate(-15)" cx="22.627" cy="39.192" r="23" fill="#273f57" stroke-width=".95833"/>
 <path d="m39.85 15.61c-1.3054 0.03598-2.6022 0.45811-3.6593 1.2298-1.2259 0.89488-2.0947 2.1829-3.051 3.3636-0.47815 0.59033-0.98599 1.1605-1.5726 1.6422-0.58657 0.48176-1.2425 0.97299-1.9888 1.0716-1.5057 0.19895-3.0731-0.56766-4.4352-1.0434-1.4161-0.54237-2.8112-1.2228-4.3184-1.3824-2.0796-0.22012-4.2445 0.64659-5.6029 2.243-1.3583 1.5964-1.8727 4.36-1.3315 6.3882 0.54123 2.0282 2.123 3.7459 4.0943 4.4465 1.9713 0.7006 4.2768 0.36274 5.9682-0.87197 1.2259-0.89488 2.0947-2.1829 3.051-3.3636 1.0225-1.2723 2.0963-2.5251 3.5613-3.0999 0.70016-0.27471 1.5083-0.1943 2.2562-0.07157 0.74789 0.12273 1.4709 0.36349 2.179 0.63468 1.4161 0.54237 2.8112 1.2209 4.3184 1.3805 2.0796 0.22012 4.2445-0.64471 5.6029-2.2411 1.3583-1.5964 1.8727-3.4937 1.3315-5.5219-0.54123-2.0282-2.123-3.7459-4.0943-4.4465-0.73924-0.26272-1.5257-0.37942-2.3089-0.35783zm0.78534 14.464c-0.95987 0.02651-1.9121 0.33726-2.6894 0.90587-0.90138 0.65939-1.5418 1.6085-2.2449 2.4784-0.35158 0.43498-0.72505 0.85599-1.1564 1.211-0.4313 0.35498-0.92323 0.64399-1.4615 0.78911-0.53822 0.14511-1.1074 0.14129-1.6573 0.05084-0.54992-0.09043-1.084-0.26536-1.6046-0.46518-1.0412-0.39964-2.0651-0.90132-3.1734-1.0189-1.5291-0.16219-3.12 0.47534-4.1188 1.6517-0.99878 1.1763-1.3773 2.8579-0.97932 4.3523 0.39796 1.4944 1.56 2.7607 3.0095 3.277 1.4495 0.51623 3.1444 0.26758 4.3881-0.64221 0.90138-0.65939 1.5418-1.6085 2.2449-2.4784 0.35158-0.43498 0.72505-0.85599 1.1564-1.211 0.4313-0.35498 0.92323-0.644 1.4614-0.78911 0.53822-0.14511 1.1074-0.14129 1.6573-0.05085 0.54992 0.09045 1.084 0.26536 1.6046 0.46518 1.0412 0.39964 2.0651 0.90132 3.1734 1.0189 1.5291 0.16219 3.12-0.47534 4.1188-1.6517 0.99878-1.1763 1.3773-2.8579 0.97932-4.3523-0.39796-1.4944-1.56-2.7607-3.0095-3.277-0.54356-0.19359-1.1228-0.27957-1.6987-0.26366zm-10.302 14.468c-0.22048 0.01364-0.43998 0.05013-0.65351 0.10735-0.8541 0.22885-1.6088 0.80681-2.0509 1.5726-0.44211 0.76576-0.56597 1.7091-0.33711 2.5632 0.22885 0.85409 0.80681 1.6088 1.5726 2.0509 0.76576 0.44211 1.7091 0.56597 2.5632 0.33711 0.8541-0.22885 1.6088-0.80681 2.0509-1.5726 0.44211-0.76576 0.56597-1.7091 0.33711-2.5632-0.22885-0.8541-0.80681-1.6088-1.5726-2.0509-0.57432-0.33158-1.2482-0.48537-1.9097-0.44446z" fill="#fed909" stroke-width=".96426"/>
</svg>
