<svg width="64" height="64" version="1.1" xmlns="http://www.w3.org/2000/svg">
 <circle cx="32" cy="32" r="27" fill="#424242" stroke-width=".94737"/>
 <path d="m 32,10.4 13.5,4.05 6.75,10.8 L 32,32 Z" fill="#9def75" opacity=".2" stroke-width=".94737"/>
 <path d="m32.033 8.7895c-12.837 0-23.244 10.407-23.244 23.244 0.00518 6.1627 2.4582 12.07 6.8185 16.425 0.93083 0.81192 1.6904 0.16994 2.6682-0.72533l3.3324-3.3306c0.91126-0.88477 0.27806-2.4348-0.99548-2.4369-0.38293-0.0015-0.74935 0.15201-1.0158 0.42558l-3.053 3.0549c-2.9011-3.3626-4.5691-7.5837-4.8608-12.025h4.1984c0.79734 0.01167 1.4465-0.64164 1.434-1.4433-0.01218-0.78422-0.65397-1.4103-1.434-1.3988h-4.1947c0.3175-4.5731 2.1274-8.7052 4.9404-11.942l2.9698 2.9716c0.55588 0.5724 1.4775 0.56904 2.0354-0.0074 0.54665-0.56302 0.53588-1.4601-0.02405-2.0039l-2.9716-2.9698c3.2368-2.813 7.3689-4.6229 11.942-4.9404v4.1947c-0.02718 1.9114 2.8693 1.9114 2.8421 0v-4.1984c4.5817 0.30119 8.7325 2.0905 11.986 4.8997l-3.016 3.0142c-0.55994 0.5438-0.5707 1.4409-0.02405 2.0039 0.55786 0.57644 1.4795 0.5798 2.0354 0.0074l3.0271-3.029c2.8157 3.2274 4.6292 7.3699 4.9385 11.999h2.8421c-0.72329-12.275-10.881-21.775-23.177-21.789z" fill="#9def75" stroke-width=".94737"/>
 <path d="m51.895 25.368-19.876 6.6251" fill="none" stroke="#9def75" stroke-linecap="round" stroke-linejoin="round" stroke-width="2.8421"/>
 <path d="m48.152 30.579c-0.78004-0.01142-1.4218 0.61463-1.434 1.3988-0.01247 0.80162 0.63666 1.4549 1.434 1.4433h4.1984c-0.07051 1.0737-0.22397 2.1344-0.45333 3.1733l-3.2418-0.8678-0.36637 1.3729 3.2473 0.86966c-0.37036 1.2606-0.85922 2.4794-1.4636 3.6433l-2.9494-1.7023-0.71053 1.2323 2.9661 1.7116c-0.55663 0.90773-1.1854 1.7765-1.8892 2.5923l-3.053-3.0549c-0.26648-0.27357-0.6329-0.42709-1.0158-0.42558-1.2735 0.0021-1.9067 1.5521-0.99548 2.4369l3.3324 3.3306c0.97773 0.89528 1.7373 1.5372 2.6682 0.72533 4.3603-4.3551 6.8133-10.263 6.8185-16.425 0-0.48921-0.0035-0.97265-0.03331-1.4544h-2.8643z" fill="#f14133" stroke-width=".94737"/>
</svg>
