<svg xmlns="http://www.w3.org/2000/svg" width="64" height="64"><g stroke-linejoin="round" stroke-width="11.739"><path fill="#a5c8f3" d="M25.5 6 14.667 16.833 19 53.666V58h4.333v-6.5h4.334V58H32v-6.5l6.5-2.166L45 51.5V58h4.333v-6.5h4.334V58H58V45l-4.333-6.5L58 32V19l-8.667-6.5c0-3.6-7.232-6.5-10.833-6.5z"/><path fill="#428ce6" d="M12.5 6v13H32v-6.5C32 8.9 29.101 6 25.5 6zM32 19v13h13V19zm13 0h13v-6.5C58 8.9 55.101 6 51.5 6h-13c3.601 0 6.5 2.9 6.5 6.5zm0 13v13h13V32zm0 13H32v6.5h4.334V58h4.333v-6.5H45zm-13 0V32H12.5v13z"/><path fill="#1d5aa5" d="M12.5 6A6.486 6.486 0 0 0 6 12.5v41.167h4.334v-6.5h4.333v6.5h4.334V12.5A6.49 6.49 0 0 0 12.5 6"/></g></svg>