<svg width="64" height="64" version="1.1" xmlns="http://www.w3.org/2000/svg">
 <path d="m31.665 5.0021a27 27 0 1 1 0 53.996 27 27 0 0 1 0-53.996z" fill="#4b92d6" stroke-width="3.7796"/>
 <g transform="matrix(.79951 0 0 .79951 6.0947 5.5088)" fill="#fff" stroke-width="1.2508">
  <path d="m35.639 13.141s-6.3984 0.03468-6.7051 0.04492c-0.73347 0.10876-1.5566 0.71875-1.5566 0.71875 0.0185 0.0053 0.03771-0.02559 0.05859-0.02148 0.56512-0.33759 1.4505-0.40385 2.0039 0.1543l1.2148 2.1035 2.084 3.6094 2.6289 4.5527c-1.1874 0.67794-3.4648 2-3.4648 2l10.928 2.9277 2.9316-10.922s-3.4693 1.9898-3.4668 1.9941l-3.6172-6.2637c-0.4058-0.57204-1.0737-0.78738-1.6484-0.88281-0.12833-0.01828-0.73439-0.025-1.3906-0.01563zm-12.006 14.742-10.926 2.9238s3.4604 2.0082 3.4629 2.0039l-3.6172 6.2637c-0.2925 0.63745-0.14416 1.3237 0.06055 1.8691 0.04833 0.12028 0.34541 0.64926 0.68164 1.2129 0 0 3.2284 5.5228 3.3906 5.7832 0.46092 0.58082 1.4004 0.99023 1.4004 0.99023-0.0046-0.01868-0.03999-0.01892-0.04687-0.03906-0.57492-0.32062-1.0758-1.0561-0.86914-1.8145l1.2148-2.1035 2.084-3.6094 2.6289-4.5527c1.1808 0.68938 3.4629 2 3.4629 2zm15.756 9.248-8 8 7.9941 8s0.01082-4 0.0059-4h7.2324c0.6983-0.06541 1.2179-0.53633 1.5879-0.98633 0.08-0.102 0.39094-0.62427 0.71094-1.1973 0 0 3.168-5.5574 3.3125-5.8281 0.27255-0.68958 0.15625-1.707 0.15625-1.707-0.01386 0.01336 0.0042 0.04452-0.0098 0.06055 0.0098 0.6582-0.37665 1.458-1.1367 1.6582h-11.854c0.0066-1.3673 0-4 0-4z"/>
  <path d="m21.394 23.671 6.7713 3.924c0.01892-0.01323 0.61996-1.0242 1.3302-2.2541 0.71085-1.2268 1.7365-2.9863 2.2691-3.9058l0.0035-2e-3 0.97116-1.6819-3.2985-5.7132c-0.55847-0.56324-1.4508-0.59077-2.0217-0.14567-0.35991 0.28862-0.47973 0.42708-0.79998 0.95839-0.45274 0.74983-5.2207 8.8177-5.2294 8.8227" opacity=".5"/>
  <path d="m46.75 29.247-6.611 4.002c2e-3 0.023 0.577 1.049 1.287 2.279 0.707 1.229 1.718 2.997 2.248 3.918v4e-3l0.971 1.682h6.597c0.767-0.202 1.237-0.961 1.137-1.678-0.07-0.456-0.13-0.629-0.43-1.172-0.423-0.767-5.199-9.03-5.199-9.04" opacity=".5"/>
  <path d="m29.387 49.129 0.0022-7.9975s-6.1117-0.0017-8.9195 0l-3.2985 5.9452c-0.20856 0.76524 0.21375 1.5518 0.88469 1.8237 0.42991 0.16738 0.60973 0.20192 1.23 0.21361 0.87578 0.01717 10.097 0.01253 10.105 0.01753" opacity=".5"/>
 </g>
</svg>
