<svg width="64" height="64" version="1.1" viewBox="0 0 16.933 16.933" xmlns="http://www.w3.org/2000/svg" xmlns:xlink="http://www.w3.org/1999/xlink">
 <g transform="matrix(.92327 0 0 .92327 .452 -257.48)">
  <path d="M8.069 280.607a1.024 1.024 0 0 0-.727.301 1.025 1.025 0 0 0 0 1.453l2.854 2.854h-7.44a1.025 1.025 0 0 0-1.027 1.027 1.025 1.025 0 0 0 1.027 1.027c1.07-.003 2.587-.003 4.04-.003l-5.264 5.263a1.025 1.025 0 0 0 0 1.452 1.025 1.025 0 0 0 1.452 0c.773-.776 1.88-1.883 2.93-2.933a5.136 5.136 0 0 0 5.082 4.438c2.836 0 5.136-2.3 5.136-5.136a5.136 5.136 0 0 0-1.76-3.866 2564.902 2564.902 0 0 1-5.577-5.576 1.024 1.024 0 0 0-.726-.302zm2.987 8.521a1.199 1.199 0 1 1 0 2.398 1.199 1.199 0 0 1 0-2.398z" fill="#ff892c"/>
  <path d="m11.052 286.38a3.946 3.946 0 0 0-3.946 3.946 3.946 3.946 0 0 0 3.946 3.946 3.946 3.946 0 0 0 3.945-3.946 3.946 3.946 0 0 0-3.945-3.946zm0 2.403a1.543 1.543 0 0 1 1.543 1.543 1.543 1.543 0 0 1-1.543 1.543 1.543 1.543 0 0 1-1.544-1.543 1.543 1.543 0 0 1 1.544-1.543z" fill="#fff" fill-opacity=".099"/>
  <path d="m11.052 287.25a3.082 3.082 0 0 0-3.082 3.081 3.082 3.082 0 0 0 3.082 3.082 3.082 3.082 0 0 0 3.081-3.082 3.082 3.082 0 0 0-3.081-3.081zm0 1.876a1.205 1.205 0 0 1 1.205 1.205 1.205 1.205 0 0 1-1.205 1.205 1.205 1.205 0 0 1-1.206-1.205 1.205 1.205 0 0 1 1.206-1.205z" fill="#fff"/>
  <circle cx="11.052" cy="290.33" r="1.577" display="block" fill="#2e57b1" overflow="visible" style="isolation:auto;mix-blend-mode:normal" paint-order="fill markers stroke"/>
  <path d="M8.069 280.607a1.024 1.024 0 0 0-.727.301 1.025 1.025 0 0 0 0 1.453l2.854 2.854-2.127-4.609z" fill="#ffffff" opacity=".1"/>
  <path d="M1.974 285.523a1.024 1.024 0 0 0-.3.727 1.025 1.025 0 0 0 1.027 1.027h4.036l-4.763-1.754z" fill="#ffffff" opacity=".1"/>
  <path d="M1.318 293.143c0 .262.101.525.302.726a1.025 1.025 0 0 0 1.453 0l2.854-2.854z" fill="#ffffff" opacity=".1"/>
 </g>
</svg>
