<svg xmlns="http://www.w3.org/2000/svg" width="64" height="64" data-name="Camada 1"><path d="M21.94 38.13a12.8 12.8 0 0 0 .56 3.03 15.95 15.95 0 0 0 3.44 5.97 17.9 17.9 0 0 0 6.04 4.34 19.69 19.69 0 0 0 15.84-.03 17.95 17.95 0 0 0 6.04-4.36 15.99 15.99 0 0 0 3.45-5.98 15.03 15.03 0 0 0 .54-6.66 15.38 15.38 0 0 0-2.2-6.02A16.58 16.58 0 0 0 51.63 24L35.4 11.53l-.04-.04a3.6 3.6 0 0 0-4.03 0 1.83 1.83 0 0 0-.26 3.07l6.77 5.52-20.63.02h-.03a3.75 3.75 0 0 0-3.67 2.54c-.33 1.44.83 2.64 2.6 2.64l10.46-.01-18.71 14.3-.07.06c-1.76 1.34-2.33 3.6-1.22 5 1.13 1.44 3.52 1.45 5.3.01l10.18-8.34a15.97 15.97 0 0 0-.14 1.8Z" style="fill:#f38426"/><path d="M48.17 41.9a11.78 11.78 0 0 1-16.44.03 9.85 9.85 0 0 1-2.25-3.51 9.23 9.23 0 0 1 .61-7.62 10.34 10.34 0 0 1 2.5-2.97 11.86 11.86 0 0 1 14.72-.02 10.26 10.26 0 0 1 2.49 2.96 9.22 9.22 0 0 1 .61 7.62 9.78 9.78 0 0 1-2.25 3.52Z" style="fill:#fff"/><path d="M32.95 34.47a6.13 6.13 0 0 1 2.23-4.35 7.55 7.55 0 0 1 9.58 0 6.15 6.15 0 0 1 2.23 4.35 6.06 6.06 0 0 1-1.87 4.66 7.52 7.52 0 0 1-10.3 0 6.01 6.01 0 0 1-1.86-4.66Z" style="fill:#2e66ac"/></svg>