<svg width="64" height="64" version="1" xmlns="http://www.w3.org/2000/svg" xmlns:xlink="http://www.w3.org/1999/xlink">
 <defs>
  <style id="current-color-scheme" type="text/css">.ColorScheme-Text { color:#4d4d4d; }</style>
 </defs>
 <g transform="matrix(1.35 0 0 1.35 -.4 -22)" stroke-width=".74074">
  <g stroke-width=".74074">
   <path d="m24 20c-11.08 0-20 8.92-20 20h20z" fill="#ffb74f"/>
   <path d="m24 20c11.08 0 20 8.92 20 20h-20z" fill="#e26c5c"/>
   <path d="m24 60c11.08 0 20-8.92 20-20h-20z" fill="#4dce7a"/>
   <path d="m24 60c-11.08 0-20-8.92-20-20h20z" fill="#559bcb"/>
   <circle cx="24" cy="40" r="12" fill="#2c3d3d"/>
  </g>
  <path d="m25.832 31.678-2.832 0.26562v10.939l2.8008-0.38281v-4.6758l3.7363 5.1758 2.9258-0.88281-3.8281-4.9688 3.8594-4.707-2.9883-0.64648-3.7051 4.7051zm-6.875 2.998c-0.03167 0-0.06986 0.01825-0.09375 0.03125l-1.0898 1.0586c-0.0464 0.046-0.06526 0.12218-0.03125 0.17578l1.2773 2c-0.22912 0.3639-0.39806 0.76218-0.5293 1.1758l-2.3652 0.4707c-0.06596 0.017-0.125 0.05504-0.125 0.11914v1.4688c0 0.062 0.06152 0.13138 0.125 0.14648l2.3027 0.53125c0.12265 0.4795 0.30916 0.93416 0.56055 1.3516l-1.3379 1.9121c-0.03713 0.054-0.0178 0.13068 0.03125 0.17578l1.0879 1.0293c0.0464 0.042 0.13088 0.06525 0.1875 0.03125l2.0859-1.207c0.41008 0.2235 0.8392 0.4101 1.3066 0.5293l0.49805 2.207c0.01429 0.064 0.05783 0.11719 0.125 0.11719h1.5566c0.0656 0 0.14056-0.05629 0.15625-0.11719l0.55859-2.207c0.48183-0.1229 0.95103-0.32479 1.3711-0.55859l2.0547 1.2949c0.05654 0.034 0.13747 0.01575 0.18555-0.03125l1.0898-1.0293c0.04668-0.046 0.06546-0.12238 0.03125-0.17578l-0.74609-1.1758-0.25 0.08789c-0.03554 0.017-0.07289 7.03e-4 -0.09375-0.0293 0 0-0.47118-0.6737-1.0898-1.5293-0.73959 1.3676-2.2468 2.293-3.9844 2.293-2.4687 0-4.4824-1.8726-4.4824-4.2051 0-1.7157 1.0914-3.1925 2.6465-3.8535v-1.0879c-0.28304 0.094004-0.5487 0.19012-0.80859 0.32422h-0.03125l-2.0859-1.2949c-0.02836-0.017-0.062-0.03034-0.09375-0.02734v-2e-3z" color="#4d4d4d" fill="#fff"/>
 </g>
</svg>
