<svg width="64" height="64" version="1.1" xmlns="http://www.w3.org/2000/svg">
 <rect x="6.0001" y="6.0001" width="52" height="52" rx="7.9999" ry="7.9999" fill="#212e3c" stop-color="#000000" stroke-width="3.7796"/>
 <path d="m32.88 45.954c-0.20071-0.16253-0.20778-0.20603-0.09944-0.61197 0.12349-0.46272 1.3732-4.0282 1.4388-4.1049 0.0212-0.02479 0.33403 0.03066 0.6952 0.12322 0.36116 0.09256 0.76139 0.16791 0.88939 0.16746 0.25265-8.82e-4 1.0801-0.43177 2.8784-1.4989 0.63406-0.37625 1.182-0.65491 1.2176-0.61926 0.03565 0.03565-0.10453 0.83712-0.31151 1.781-0.28703 1.309-0.42661 1.7646-0.58826 1.9202-0.5065 0.4875-5.3139 3.0123-5.7437 3.0165-0.08828 8.82e-4 -0.25774-0.07716-0.37658-0.17339zm-15.604-5.2915c-0.08912-0.09849-0.16175-0.24169-0.16139-0.31822 6.07e-4 -0.12949 1.3862-3.1626 1.6241-3.5552 0.10088-0.16648 0.21969-0.14704 2.0562 0.33655 1.072 0.28228 1.9841 0.54402 2.0269 0.58164 0.118 0.10379-0.31014 1.1591-0.60293 1.4861-0.21665 0.242-0.60449 0.39727-2.4123 0.96578-1.1848 0.37258-2.2024 0.67854-2.2614 0.67991-0.05898 0.0013-0.18014-0.07809-0.26927-0.17657zm17.659-0.3662c-0.55931-0.17834-7.4903-2.1742-15.793-4.5477-3.543-1.0129-6.5502-1.9126-6.6827-1.9994-0.30825-0.20198-0.31849-0.58866-0.02065-0.77988 0.31824-0.20431 8.4553-1.3583 9.2213-1.3077 0.68281 0.04506 23.459 3.3921 23.576 3.4646 0.12153 0.07512 0.09049 0.49106-0.04499 0.60303-0.33341 0.27554-9.3544 4.7198-9.5687 4.7141-0.136-0.0035-0.44555-0.06977-0.68789-0.14705zm4.2104-7.3407c-3.7967-0.50367-8.7757-1.1602-11.064-1.459-5.6443-0.73677-5.5812-0.72349-5.5812-1.1741 0-0.11764 0.21631-1.1587 0.48069-2.3135s0.68834-3.069 0.94212-4.2537c0.47286-2.2075 0.60696-2.6197 0.90368-2.7774 0.27943-0.1486 23.802-1.7349 23.988-1.6177 0.08716 0.05498 0.20159 0.16831 0.25428 0.25185 0.09645 0.1529 0.06727 0.3139-1.8592 10.258-0.40116 2.0708-0.77682 3.8223-0.83478 3.8921-0.05798 0.06985-0.15508 0.12291-0.2158 0.11792-0.06072-5e-3 -3.2168-0.42118-7.0134-0.92485z" fill="#ffffff" stroke-width=".097916"/>
</svg>
