<svg xmlns="http://www.w3.org/2000/svg" width="64" height="64" version="1"><g stroke-width=".778"><path fill="#4b81c4" d="M25.608 11.428C14.19 11.74 6.286 20.992 6.286 32.97s9.013 22.015 19.48 22.17c9.474.13 19.667-9.862 23.053-17.617 1.576 3.765 4.668 8.618 10.18 8.618 0 0-2.571-6.796-2.571-13.041s2.571-12.674 2.571-12.674c-5.612 0-8.725 4.964-10.273 8.701-3.425-6.742-13.304-17.575-23.116-17.701z"/><path fill="#fff" d="M26.857 22.998a7.714 10.282 0 1 1-15.428 0 7.714 10.282 0 1 1 15.428 0z" opacity=".9"/><path fill="#75bfd4" d="M26.857 23c-1.278-1.143-5.472-7.978-15.428-3.633 0-4.337 1.727-10.51 7.385-10.51 7.242.224 8.043 9.805 8.043 14.142z"/><path fill="#272b2d" d="M21.714 24.286a2.571 2.571 0 0 1-5.143 0 2.571 2.571 0 1 1 5.143 0z"/><path fill="#fff" d="M19.786 23.128a1.286 1.286 0 0 1-2.572 0 1.286 1.286 0 1 1 2.572 0z" opacity=".35"/><path fill="#75bfd4" d="M19.143 41.642c0 2.485-7.158 4.5-9.643 4.5a4.5 4.5 0 0 1 0-9c2.485 0 9.643 2.014 9.643 4.5z"/></g></svg>