<?xml version="1.0" encoding="UTF-8"?>
<svg width="64" height="64" version="1" xmlns="http://www.w3.org/2000/svg">
 <g transform="matrix(1.2857 0 0 1.2857 1.1429 -19.429)" stroke-width=".77778">
  <path d="m19.029 24c-8.8811 0.24291-15.029 7.4392-15.029 16.756 0 9.3169 7.0104 17.123 15.152 17.244 7.3681 0.10071 15.296-7.6712 17.93-13.703 1.2253 2.9283 3.6304 6.7034 7.918 6.7031 0 0-2-5.2857-2-10.143s2-9.8574 2-9.8574c-4.3656 0-6.7864 3.861-7.9902 6.7676-2.664-5.2439-10.348-13.67-17.98-13.768z" fill="#4b81c4" stroke-width=".77778"/>
  <path d="m20 32.999a6 7.9971 0 1 1-12 0 6 7.9971 0 1 1 12 0z" fill="#fff" opacity=".9" stroke-width=".77778"/>
  <g stroke-width=".77778">
   <path d="m20 33c-0.99419-0.88802-4.2558-6.2046-12-2.8249 0-3.3733 1.3438-8.1751 5.7444-8.1751 5.6324 0.17463 6.2556 7.6267 6.2556 11z" fill="#75bfd4"/>
   <path d="m16 34.001a2 2 0 0 1-4 0 2 2 0 1 1 4 0z" fill="#272b2d"/>
   <path d="m14.5 33.1a1 1 0 0 1-2 0 1 1 0 1 1 2 0z" fill="#fff" opacity=".35"/>
  </g>
  <path d="m14 47.5c0 1.933-5.567 3.5-7.5 3.5s-3.5-1.567-3.5-3.5 1.567-3.5 3.5-3.5 7.5 1.567 7.5 3.5z" fill="#75bfd4"/>
 </g>
</svg>
