<svg width="64" height="64" version="1.1" viewBox="0 0 64 64" xmlns="http://www.w3.org/2000/svg">
 <path d="m32 5c14.912 0 27 12.088 27 27s-12.088 27-27 27-27-12.088-27-27 12.088-27 27-27z" fill="#333333" stroke-width="1.1739"/>
 <g transform="matrix(1.1739 0 0 1.1739 5 5)"></g>
 <g transform="matrix(1.1739 0 0 1.1739 3.8261 3.8261)">
  <path d="m29 24c0 2.76-2.24 5-5 5s-5-2.24-5-5 2.24-5 5-5 5 2.24 5 5" fill="#ffcc33"/>
  <path d="m12.617 11-1.617 1.617 7.406 7.429c1.242-1.754 3.281-2.906 5.594-2.906 0.895 0 1.742 0.191 2.523 0.5l1.715-1.711c-1.27-0.676-2.699-1.074-4.238-1.074-2.109 0-4.047 0.73-5.594 1.93m16.977-5.785-7.429 7.379c1.762 1.242 2.902 3.305 2.902 5.621 0 0.902-0.184 1.758-0.5 2.547l1.715 1.715c0.68-1.273 1.074-2.719 1.074-4.262 0-2.109-0.73-4.047-1.93-5.594l5.785-5.785-1.621-1.621m-19.449 8.738c-0.684 1.273-1.074 2.715-1.074 4.262 0 2.109 0.73 4.047 1.93 5.594l-5.785 5.785 1.617 1.621 7.383-7.429c-1.73-1.246-2.859-3.277-2.859-5.574 0-0.898 0.188-1.758 0.5-2.547m11.953 6.504c-1.242 1.754-3.281 2.902-5.594 2.902-0.922 0-1.793-0.195-2.594-0.523l-1.715 1.715c1.285 0.695 2.746 1.094 4.309 1.094 2.109 0 4.047-0.727 5.594-1.926l5.785 5.785 1.621-1.621-7.406-7.429" fill="#157cc1"/>
 </g>
</svg>
