<svg width="64" height="64" version="1" xmlns="http://www.w3.org/2000/svg">
 <path d="m20.122 15.272s6.003 8.4031 5.0428 8.9315c-1.1431 0.62902-2.1325 1.4734-2.949 2.229-3.4878-0.0084-4.8818-0.0084-4.8818-0.0084v9.7581l4.8818 0.0046s7.5893 2.1376 13.169 2.7887c1.1186 0.13092-18.051 9.7528-18.051 9.7528 4.7787 0.0012 46.218-10.14 44.621-19.633-3.6717-5.6171-16.677-8.0045-16.677-8.0045s-3.0407-0.232-4.6313-0.232c-3.204 0-6.1485 0.32422-8.7582 0.90629-1.8696-1.4454-11.766-6.4927-11.766-6.4927z" fill="#cbced1"/>
 <path d="m10.921 25.03c-1.1214 1.6804-0.20716 2.4121 0.97794 2.5506-1.3942 0.52832-2.3229-0.81361-3.4121-1.1341-0.68145-0.20052-2.3049 0.70394-3.6989-0.02241 0.50606 1.394 2.5114 0.38309 3.1928 1.018 0.32303 0.30101 1.5783 1.7268 0.69198 2.865-0.88628 1.1382-1.7567-0.95203-3.1607-1.095-0.66247-0.06747-2.1524 1.0776-3.5121 0.50337 1.394 1.4316 1.949 0.79814 2.8909 1.6342 0.94188 0.83602 1.9196 2.1358 0.87179 3.3502-0.65812 0.76276-2.5568 0.62565-2.3687 1.4823 0.31467-0.47608 2.691-0.02002 3.535-0.66064 2.7672-1.7231 4.36-0.06131 2.8107 1.042-0.45643 0.30375-1.1711-0.15165-1.9602-0.07411-1.3211 0.12982-2.7727 0.70263-2.9994 1.1463 0.44518-0.12914 1.5359-0.27455 2.6586 0.13522 0.97233 0.3549 1.9578 1.2719 2.7001 1.1993 2.971-0.29065 3.8113-3.6414 7.1953-1.394v-12.546c-0.52355 0.22585-1.0314 0.85277-3.083 1.1947-2.0516 0.3419-3.566 0.42525-3.3301-1.1947z" fill="#ea7d46" fill-rule="evenodd"/>
 <path d="m21.516 26.424v-1.394h-5.576v12.546h5.576v-1.394c8.3641 0 14.008-3.1238 13.94-4.879-0.06687-1.7297-5.576-4.879-13.94-4.879z" fill="#373a3d"/>
 <path d="m45.242 21.088a11.031 4.8857 15 0 0 9.4395 7.3267 11.031 4.8857 15 0 0 7.2696 0.71334c-0.26654-1.6876-1.8814-3.3549-5.3092-4.9417-2.9332-1.5347-6.899-2.6435-11.4-3.0984z" fill="#373a3d"/>
</svg>
