<svg xmlns="http://www.w3.org/2000/svg" width="64" height="64"><g transform="matrix(1.3 0 0 1.3 -499.14 -648.94)"><rect width="40" height="40" x="388.57" y="503.8" fill="#dd5563" rx="6.155" ry="6.155"/><path fill="#fff" d="M408.57 511.49a12.3 12.3 0 0 0-2.051.174v17.262c0 .568-.458 1.026-1.026 1.026h-1.026a1.023 1.023 0 0 1-1.025-1.026v-16.3a12.31 12.31 0 0 0-7.18 11.171 12.31 12.31 0 0 0 12.308 12.308 12.31 12.31 0 0 0 12.308-12.308 12.31 12.31 0 0 0-12.308-12.308m-.508 6.154a.513.56 0 0 1 .244.07l9.23 5.595a.513.56 0 0 1 0 .978l-9.23 5.595a.513.56 0 0 1-.761-.49v-11.19a.513.56 0 0 1 .517-.558"/></g></svg>