<svg width="64" height="64" version="1" xmlns="http://www.w3.org/2000/svg">
 <circle cx="32" cy="32" r="27" fill="#00c586" stroke-width=".96429"/>
 <circle cx="32" cy="32" r="23" fill="#ffffff" opacity=".1" stroke-width=".82143"/>
 <path d="m44 20-30 9.5996 11.105 4.6191 3.8945 0.78125 0.83594 3.9941 4.5645 11.006 9.5996-30zm-20.35 18.006c-0.1251 0.010608-0.28673 0.037572-0.43555 0.076172-1.1382 0.29707-2.7917 1.5196-3.6777 2.7207-1.0049 1.3623-1.5395 2.9575-1.5371 4.584 5.88e-4 0.45491 0.020503 0.5321 0.1543 0.58984 0.15166 0.065461 1.4391-0.0131 1.9609-0.11914 1.5047-0.30745 2.7862-1.0122 3.9316-2.1602 0.72008-0.72164 1.1467-1.3167 1.5645-2.1875 0.27352-0.57003 0.45829-1.2622 0.36328-1.3574-0.019-0.018-0.16955 0.070095-0.33398 0.19922-1.2419 0.79587-2.2333 1.372-3.6406 1.6484 0.36522-1.3839 0.75413-2.4379 1.4805-3.4316 0.21043-0.28353 0.38281-0.52688 0.38281-0.54102 0-0.02641-0.087788-0.032092-0.21289-0.021485z" fill="#ffffff"/>
 <path d="m14 29.6 11.105 4.6184 3.895 0.78163 15-15z" fill="#c4f1e3"/>
</svg>
