<svg xmlns="http://www.w3.org/2000/svg" width="64" height="64" viewBox="0 0 16.933 16.933"><g paint-order="stroke markers fill" transform="translate(0 -280.067)"><circle r="6.879" cy="288.533" cx="8.467" fill="#cecece"/><circle r="4.762" cy="288.533" cx="8.467" opacity=".5" fill="#fff"/><circle cx="8.467" cy="288.533" r="3.969" fill="#4d4d4d"/><circle r="1.588" cy="288.533" cx="8.467" fill="#fff"/></g><g transform="matrix(1.5 0 0 1.5 -6.982 -426.847)" stroke-width=".667"><circle r="2.117" cy="293.031" cx="13.121" fill="#ff5722"/><path d="M13.366 291.973c-.649.264-1.039.885-1.039 1.323 0 .433.341.785.765.793a.393.393 0 0 1-.382-.396c0-.22.194-.53.52-.662 0 .463.348.53.259.794-.05.15-.173.263-.386.264h.004c.43 0 .678-.228.779-.529.178-.527-.52-.661-.52-1.587z" fill="#fff"/></g></svg>