<svg xmlns="http://www.w3.org/2000/svg" width="64" height="64"><rect width="52" height="52" x="6" y="6" rx="8" ry="8" style="fill:#f5ab42;fill-opacity:1;stroke-width:4.72727;stroke-linecap:round;stroke-linejoin:round;paint-order:stroke fill markers"/><path d="m27.866 43.092 4.114-1.86 3.886 2.262.009 4.552-1.734 2.692-3.243.14-2.649-2.035z" style="fill:#eb5a46;fill-opacity:1;stroke:none;stroke-width:1.155"/><path d="M19.13 42.066h.21c.672 1.749 2.68 3.577 4.29 4.467.484.268 2.658 1.301 2.355-.175-.144-.7-1.3-.964-1.832-1.303-1.187-.754-2.192-1.861-3.018-2.989-.334-.454-1.006-1.184-.993-1.778.016-.777.543-1.344.422-2.198-.395-2.767-1.096-5.321-.901-8.161.079-1.153.713-2.243.782-3.349a.76.76 0 0 0-.584-.802c-1.196-.272-1.447 2.117-1.576 2.895-.349 2.103-.258 4.282.07 6.383.166 1.065.825 2.612.628 3.662-.185.989-.917 2.423-1.495 3.242-.256.362-.653.627-1.074.357-1.2-.769-2.123-2.641-2.9-3.808-1.264-1.901-2.486-4.353-2.439-6.697.03-1.462.875-2.994 1.486-4.29 1.598-3.386 3.5-6.77 6.57-9.053 1.284-.956 2.56-1.08 3.975-1.619 2.408-.916 4.35-2.135 7.01-2.39 4.19-.4 7.367 1.156 10.988 2.943.978.483 2.204.285 3.243.818 3.199 1.642 5.044 4.917 6.51 8.046.716 1.524 1.648 3.424 1.747 5.127.149 2.564-1.45 5.244-2.755 7.324-.599.954-1.627 2.94-2.68 3.41-.43.192-.778-.135-.988-.482-.531-.881-1.301-2.223-1.475-3.242-.175-1.025.489-2.515.643-3.557.312-2.108.384-4.266.131-6.383-.088-.748-.49-3.143-1.55-2.987-.505.074-.708.54-.615.999.41 2.021.998 3.743.748 5.86-.23 1.943-.787 3.923-.937 5.859-.058.743.489 1.294.53 1.988.04.657-.704 1.473-1.053 1.988-.86 1.269-1.929 2.496-3.278 3.257-.54.305-1.53.503-1.313 1.342.267 1.036 1.73.216 2.254-.106 1.956-1.205 2.954-3.011 4.395-4.702.457 1.553 2.167 2.28 3.556 1.363 1.475-.973 2.613-3.219 3.496-4.712 1.187-2.006 2.437-4.614 2.36-7.01-.071-2.257-1.144-4.587-2.114-6.592-1.555-3.212-3.575-6.513-6.88-8.165-1.08-.54-2.307-.408-3.348-.857-1.042-.45-1.99-1.148-3.034-1.618-2.06-.929-4.344-1.395-6.592-1.494-3.432-.15-6.385 1.026-9.417 2.452-1.274.6-2.63.69-3.872 1.489-3.562 2.29-5.838 6.103-7.573 9.867-.61 1.326-1.33 2.736-1.586 4.185-.695 3.932 2.117 8.162 4.39 11.092.474.61.953 1.357 1.63 1.755 1.5.881 2.954-.21 3.453-1.65m6.383-16.584c-1.662.24-1.777 3.088 0 2.922.46-.042 1.187-.26 1.42-.696.512-.962-.303-2.388-1.42-2.226m13.812.006c-1.878.35-1.235 3.326.732 2.905 1.775-.38.992-3.226-.732-2.905m-9.731 6.79c-1.223.238-1.52 1.557-1.889 2.568-.18.493-.435 1.084.034 1.501 1.074.953 2.384.76 3.633.822.911.046 2.037.31 2.93.116.678-.147 2.063-.739 2.37-1.398.363-.782-.771-2.944-1.43-3.37-.508-.33-1.198-.287-1.777-.287-1.24 0-2.653-.188-3.871.049m7.22 11.356c1.774-.765 3.405-2.183 3.971-4.08.196-.657.6-2.991-.726-2.77-.919.154-.586 1.796-.814 2.455-.411 1.193-1.618 2.268-2.745 2.782-1.159.529-3.317-.595-3.63-1.84-.166-.665.358-2.28-.765-2.28s-.599 1.615-.766 2.28c-.207.827-1.849 1.988-2.687 2.051-1.575.12-3.438-1.916-3.777-3.307-.142-.578.123-2.501-1.034-2.115-1.167.39-.523 2.613-.179 3.37a6.1 6.1 0 0 0 1.746 2.249c.404.321 1.2.617 1.402 1.111.198.483.032 1.15.081 1.663.187 1.964.389 4.807 2.389 5.831 1.575.807 4.404 1.08 5.85-.131 1.617-1.355 2.259-5.323 1.684-7.27m-8.371.21c.927-.12 1.659-.396 2.406-.966.349-.266.873-.893 1.36-.798.784.151 1.436 1.127 2.198 1.44.28.116.733.154.878.46.17.358.064.942.064 1.329 0 1.291-.184 3.566-1.267 4.454-.943.773-3.582.48-4.44-.324-.589-.554-.806-1.479-.946-2.247-.202-1.115-.253-2.217-.253-3.348" style="fill:#24120d;stroke:none;stroke-width:.104635"/></svg>