<svg xmlns="http://www.w3.org/2000/svg" width="64" height="64" viewBox="0 0 16.933 16.933"><rect width="13.229" height="13.229" x="1.852" y="281.92" fill="#2196f3" stroke-width=".962" paint-order="markers stroke fill" rx="2.035" ry="2.035" transform="matrix(1.04 0 0 1.04 -.339 -291.61)"/><g fill="#fff"><g transform="matrix(.16297 0 0 .16297 4.07 3.89)"><rect width="16.695" height="12.328" x=".524" y="14.445" ry="2.636"/><rect width="16.695" height="12.328" x="19.651" y="14.445" ry="2.636"/><rect width="16.695" height="12.328" x=".305" y="29.384" ry="2.636"/><rect width="16.695" height="12.328" x="19.432" y="29.384" ry="2.636"/></g><path d="M8.575 4.233a4.233 4.233 0 0 0-2.83 1.1h1.37a3.465 3.465 0 0 1 1.461-.331 3.465 3.465 0 0 1 3.468 3.46v.005A3.465 3.465 0 0 1 8.58 11.93a3.465 3.465 0 0 1-1.468-.33H5.74A4.233 4.233 0 0 0 8.58 12.7a4.233 4.233 0 0 0 4.232-4.233v-.005a4.233 4.233 0 0 0-4.237-4.229z"/></g></svg>