<svg xmlns="http://www.w3.org/2000/svg" width="64" height="64"><rect width="52" height="52" x="6" y="6" fill="#ececec" rx="7" ry="7" style="paint-order:normal"/><path fill="#f2a638" d="M13.059 29A4.05 4.05 0 0 0 9 33.059V50.94A4.05 4.05 0 0 0 13.06 55h32.47L55 45.529V33.058a4.05 4.05 0 0 0-4.058-4.059z" style="paint-order:normal"/><path fill="#f67400" d="m45.529 55 9.47-9.47-5.29-.092c-2.248-.04-4.008 1.81-4.058 4.058z" style="paint-order:normal"/><path fill="#db4957" d="M13.059 19A4.05 4.05 0 0 0 9 23.059V40.94A4.05 4.05 0 0 0 13.06 45h32.47L55 35.529V23.058a4.05 4.05 0 0 0-4.058-4.059z" style="paint-order:normal"/><path fill="#239cf3" d="M13.059 9A4.05 4.05 0 0 0 9 13.059V30.94A4.05 4.05 0 0 0 13.06 35h32.47L55 25.529V13.058a4.05 4.05 0 0 0-4.058-4.059z" style="paint-order:normal"/><path fill="#c0392b" d="m45.529 45 9.47-9.47-5.29-.092c-2.248-.04-4.008 1.81-4.058 4.058z" style="paint-order:normal"/><path fill="#2980b9" d="m45.468 35 9.531-9.517-5.379-.046c-2.248-.019-4.113 1.811-4.058 4.06-.02 2.27-.094 5.503-.094 5.503" style="paint-order:normal"/></svg>