<svg width="64" height="64" version="1.1" viewBox="0 0 64 64" xmlns="http://www.w3.org/2000/svg">
 <rect x="6" y="6" width="52" height="52" rx="7" ry="7" fill="#ececec" stroke-width="4.9134" style="paint-order:normal"/>
 <path d="m13.059 29c-2.2486 0-4.0588 1.8102-4.0588 4.0588v17.882c0 2.2486 1.8102 4.0588 4.0588 4.0588l32.471 1e-6 9.4706-9.4706-1e-6 -12.471c0-2.2486-1.8102-4.0588-4.0588-4.0588z" fill="#f2a638" stroke-width="1.3529" style="paint-order:normal"/>
 <path d="m45.529 55 9.4706-9.4706-5.2899-0.09182c-2.2482-0.03902-4.009 1.8108-4.0588 4.0588z" fill="#f67400" stroke-width="5.1135" style="paint-order:normal"/>
 <path d="m13.059 19c-2.2486 0-4.0588 1.8102-4.0588 4.0588l-7e-7 17.882c-1e-7 2.2486 1.8102 4.0588 4.0588 4.0588l32.471 2e-6 9.4706-9.4706 6e-6 -12.471c1e-6 -2.2486-1.8102-4.0588-4.0588-4.0588z" fill="#db4957" stroke-width="1.3529" style="paint-order:normal"/>
 <path d="m13.059 9c-2.2486 0-4.0588 1.8102-4.0588 4.0588l1.2e-6 17.882c2e-7 2.2486 1.8102 4.0588 4.0588 4.0588l32.471 2e-6 9.4706-9.4706-1e-6 -12.471c0-2.2486-1.8102-4.0588-4.0588-4.0588z" fill="#239cf3" stroke-width="1.3529" style="paint-order:normal"/>
 <path d="m45.529 45 9.4706-9.4706-5.2899-0.09181c-2.2482-0.03903-4.009 1.8108-4.0588 4.0588z" fill="#c0392b" stroke-width="5.1135" style="paint-order:normal"/>
 <path d="m45.468 35 9.5315-9.5165-5.3791-0.04602c-2.2485-0.01923-4.1138 1.8109-4.0588 4.0588-0.0203 2.2702-0.09363 5.5037-0.09363 5.5037z" fill="#2980b9" stroke-width="5.1135" style="paint-order:normal"/>
</svg>
