<svg width="64" height="64" version="1.1" viewBox="0 0 16.933 16.933" xmlns="http://www.w3.org/2000/svg">
 <g transform="translate(0 -280.07)" paint-order="stroke markers fill">
  <path d="M1.587 288.533v6.35c0 .293.237.53.53.53h6.35v-6.88h-6.88z" fill="#e5e5e5"/>
  <path d="M2.117 281.654a.528.528 0 0 0-.53.53v6.35h6.88v-6.88h-6.35z" fill="#f9f9f9"/>
  <path d="M8.467 281.654v13.759h6.35c.293 0 .529-.237.529-.53v-12.7a.528.528 0 0 0-.53-.529h-6.35z" fill="#d96b5f"/>
  <rect x="3.704" y="285.09" width="3.175" height=".529" ry="0" fill="#787878"/>
  <rect transform="rotate(90)" x="283.77" y="-5.556" width="3.175" height=".529" ry="0" fill="#787878"/>
  <rect x="10.319" y="287.48" width="3.175" height=".529" ry="0" fill="#fff"/>
  <rect x="10.319" y="289.06" width="3.175" height=".529" ry="0" fill="#fff"/>
  <rect x="3.704" y="291.71" width="3.175" height=".529" ry="0" fill="#787878"/>
 </g>
</svg>
