<svg xmlns="http://www.w3.org/2000/svg" width="64" height="64" viewBox="0 0 16.933 16.933"><g transform="translate(0 -280.067)" paint-order="stroke markers fill"><path d="M1.587 288.533v6.35c0 .293.237.53.53.53h6.35v-6.88h-6.88z" fill="#eee"/><path d="M2.117 281.654a.528.528 0 0 0-.53.53v6.35h6.88v-6.88h-6.35z" fill="#fff"/><path d="M8.467 281.654v13.759h6.35c.293 0 .529-.237.529-.53v-12.7a.528.528 0 0 0-.53-.529h-6.35z" fill="#d96b5f"/><rect width="3.175" height=".529" x="3.704" y="285.094" ry="0" fill="#787878"/><rect ry="0" y="-5.556" x="283.771" height=".529" width="3.175" transform="rotate(90)" fill="#787878"/><rect ry="0" y="287.475" x="10.319" height=".529" width="3.175" fill="#fff"/><rect width="3.175" height=".529" x="10.319" y="289.063" ry="0" fill="#fff"/><rect ry="0" y="291.708" x="3.704" height=".529" width="3.175" fill="#787878"/></g></svg>