<svg width="64" height="64" version="1.1" viewBox="0 0 64 64" xmlns="http://www.w3.org/2000/svg">
 <g transform="matrix(1.1739 0 0 1.1739 3.8261 -14.957)" stroke-width=".85185">
  <g transform="translate(0,16)" fill="#ce5050">
   <path d="m24 1.0006c12.703 0 23 10.297 23 23 0 12.703-10.297 23-23 23-12.703 0-23-10.297-23-23 0-12.703 10.297-23 23-23z" stroke-width=".85187"/>
  </g>
  <g transform="translate(0,16)">
   <g stroke-width=".85185">
    <g stroke-width=".85185">
     <path d="m11.996 13v17l9 6v-17.5zm2 0 8 5h4l8-5c-4 0-6 0.52-10 4-4-3.395-6-4-10-4zm22 0-9 5.5v17.5l9-6zm-14 6v18h4v-18z" fill="#f9f9f9"/>
    </g>
   </g>
  </g>
 </g>
 <circle cx="48" cy="46" r="15" fill="#4d4d4d" stroke-width=".9375"/>
 <path d="m48 39c-1.9385 0.02128-3.8895 0.51812-5.5781 1.5898-0.67302 0.49094-1.481 1.1248-2.0898 1.7637-0.958 1.0505-1.778 2.2754-2.332 3.6484 1.5187 3.7519 4.8565 6.5019 8.5293 6.9082 2.4092 0.30542 4.931-0.16101 7.0488-1.4961 0.673-0.49094 1.481-1.1248 2.0898-1.7637 0.958-1.0527 1.778-2.2777 2.332-3.6484-1.518-3.7517-4.8573-6.5028-8.5293-6.9082-0.488-0.06495-0.9807-0.09375-1.4707-0.09375zm0.0039 3c2.1397-0.04741 4.0344 1.8676 3.9941 3.9961 0.06857 2.3524-2.2746 4.3827-4.5918 3.9434-2.3402-0.27479-3.9845-2.901-3.2148-5.125 0.4921-1.6362 2.0995-2.8317 3.8145-2.8125zm-0.0039 2a2 1.9988 0 0 0-2 2.002 2 1.9988 0 0 0 2 1.998 2 1.9988 0 0 0 2-1.998 2 1.9988 0 0 0-2-1.998z" fill="#fff" fill-rule="evenodd"/>
</svg>
