<svg width="64" height="64" version="1.1" viewBox="0 0 64 64" xmlns="http://www.w3.org/2000/svg" xmlns:xlink="http://www.w3.org/1999/xlink">
 <defs>
  <linearGradient id="linearGradient1405" x1="1327.6" x2="1324.9" y1="230.86" y2="89.862" gradientTransform="matrix(.0025562 .19867 .22983 -.0022096 -12.936 -218.81)" gradientUnits="userSpaceOnUse">
   <stop stop-color="#5596ea" offset="0"/>
   <stop stop-color="#5596ea" stop-opacity="0" offset="1"/>
  </linearGradient>
  <linearGradient id="linearGradient1403" x1="1142.6" x2="1280.9" y1="62.713" y2="200.87" gradientTransform="matrix(.19763 -.020384 .020384 .19763 -219.7 23.233)" gradientUnits="userSpaceOnUse">
   <stop stop-color="#343434" offset="0"/>
   <stop stop-color="#4d4d4d" offset="1"/>
  </linearGradient>
 </defs>
 <circle cx="32" cy="32" r="27" fill="#ffe0a4" stroke-width="1.1739"/>
 <g transform="translate(1.0864 -.49383)">
  <path d="m36.93 36.294c-3.6351 3.3919-10.629-1.9883-13.58-5.3673-3.0361-3.4754-14.373-15.197-15.201-15.957-0.82858-0.76019-1.4885-1.699-0.7558-2.633 0.76274-0.90965 1.8175-0.45771 2.7323 0.19617 0.91487 0.65391 14.724 9.3276 18.751 11.581 3.9154 2.191 10.623 7.9237 8.0543 12.18z" fill="url(#linearGradient1403)"/>
  <path d="m42.406 39.938c-16.413 12.656-30.168 0.49187-32.248-3.7099 1.23 7.2931 6.9152 13.819 15.504 16.331 6.4865 1.8969 16.453 2.0973 21.093-5.1294z" fill="url(#linearGradient1405)"/>
  <path d="m42.703 40.832c-1.1589 0.53076-1.0336 0.91438-2.0626 0.7489-0.70971-0.11414-6.8579-4.7746-6.8579-4.7746-0.31163-0.74786 0.06219-1.776 0.76439-2.5897 0.65128-0.855 1.5801-1.4329 2.3762-1.2823 0 0 5.8289 5.0541 6.087 5.725 0.37428 0.9727-0.02697 0.92924-0.30714 2.1727z" fill="#bfbfbf"/>
  <path d="m43.021 51.142c4.5799-2.5906 5.9129-7.1033 4.1045-10.405-1.4053-2.5657-3.7128-3.0508-5.3065-1.8102-1.581 1.2307-1.7204 2.6972-1.2488 4.1537 0.96178 2.9706 4.8299 4.9978 2.4508 8.0615z" fill="#282828"/>
 </g>
</svg>
