<svg width="64" height="64" version="1.1" viewBox="0 0 16.933 16.933" xmlns="http://www.w3.org/2000/svg">
 <rect x="1.5875" y="1.5875" width="13.758" height="13.758" rx="2.1166" ry="2.1166" fill="#200e06" fill-opacity=".96078" fill-rule="evenodd" stop-color="#000000" style="paint-order:stroke fill markers"/>
 <g transform="translate(.22181 -.11326)">
  <path d="m6.865 3.5754-0.51159 0.054776-0.30798 0.1912-0.02222 0.19947 0.10748 0.31057 0.31677 0.10438 0.39842 0.065111 0.4196 0.097666 0.43407 0.073896 0.84851 0.26561 0.7989 0.38653 0.8666 0.60615 0.55499 0.45319 0.36121 0.46353-0.02222 0.1142-0.07131 0.029455-0.22944-0.14521-0.36069-0.38757-0.76531-0.68057-0.60719-0.36069-0.61494-0.29817-0.49453-0.22892-0.64129-0.19637-0.29248 0.018603-0.03669 0.14417 0.18603 0.35656 0.18655 0.16123-0.34002 0.293-0.77255 0.60047-1.3952 1.2717-0.72811 0.5891 0.42994-0.77823 0.62889-0.84438 0.74206-0.74309 0.42787-0.32556 0.15399-0.17621 0.01188-0.21755-0.14934-0.10387-0.53071-0.057876-0.22427 0.044958-0.44441 0.45423-1.8815 2.9558-0.10128 0.39893 0.0057 0.35708 0.15451 0.087848 0.22686 0.012919 0.31677-0.22686 0.40927-0.41547 0.06554-0.067413 0.37215-0.36976 1.2945-1.186 1.3973-0.80407 0.25889-0.20153 0.29455-0.069245 0.31057 0.32556-0.15658 0.12092-0.21239 0.0062-0.53897 0.096633-0.37878 0.13281-0.52399 0.25838-0.59478 0.4227-0.58186 0.4935-0.78162 0.7223-0.05412 0.069742-0.02406 0.075461 0.01181 0.23164 0.12247 0.065628 0.24288-0.069762 0.25011-0.22841 0.07493 0.22789 0.22169 1.4764-0.15399-0.0832s-0.2285-0.3158-0.25166-0.36845c-0.02315-0.05265-0.14572-0.36586-0.14572-0.36586l-0.25786-0.10387-0.23306 0.0956-0.11627 0.22479s-0.02944 0.32175-5.17e-4 0.39325c0.02892 0.0715 0.19688 0.61442 0.19688 0.61442l0.45836 0.85729 0.30747 0.49195 0.324 0.45836 0.28473 0.2868 0.401 0.38136 0.36586 0.2191 0.34312 0.11214 0.3855 0.04186 0.20774-0.2129-0.10748-0.33072-0.25734-0.27026 0.07906-0.14728 0.17673-0.01292 0.11472-0.25476 0.13384-0.18345s0.31684-0.02635 0.3793-0.02635 1.3627 0.0351 1.4252 0.02945c0.0625-0.0056 1.2619-0.18396 1.2619-0.18396l0.81854-0.07648-0.68728 0.36069-0.92034 0.29455-0.50694 0.02067s-0.69708 0.06768-0.76428 0.0801-0.61856-0.0067-0.61856-0.0067l-0.09973 0.18603 0.10748 0.22582 0.37103 0.37878 0.40772 0.10387s0.49284 0.08089 0.56791 0.06821 1.2593-0.35294 1.2593-0.35294 0.63964-0.23708 0.694-0.26664c0.05436-0.02957 0.62269-0.42529 0.62269-0.42529l0.6568-0.58032s0.51832-0.64912 0.54931-0.71674c0.031-0.06762 0.14004-0.4134 0.14004-0.4134l-0.26664-0.0057s-0.52064 0.12486-0.57566 0.15554c-0.05503 0.03069-0.44028 0.1912-0.44028 0.1912l-0.5121 0.13229 0.5798-0.28422 0.27595-0.25993-0.32607-0.06976-0.24132 0.0062-0.57101 0.23564s-0.31888 0.21765-0.38498 0.23616c-0.06611 0.0185-0.79425 0.108-0.79425 0.108h-0.64441l-0.7834-0.24546s-0.33505-0.16106-0.3917-0.21704-0.5501-0.364-0.6108-0.39945-0.58652-0.39738-0.58652-0.39738l-0.09405-0.38757 0.056843-1.2108 0.075446-0.88778-0.25321-0.067695-0.84231 0.11317 0.88417-0.37103 1.1673-0.34571 0.97615-0.11885 0.16743-0.29455-0.1204-0.32814-0.74774-0.60047 0.67436 0.32917 0.73586 0.62941 0.50073 0.74361 0.30644 0.5736 0.35863 0.34209 0.33021 0.13901 0.44492-0.3762s0.13281-0.52856 0.13281-0.61029-0.0062-0.71157-0.0062-0.71157l-0.11369-0.40513-0.7586-0.55809-0.87332-0.40255-1.6025-0.69607-0.76014-0.35036-0.3638-0.084748 0.54931 0.036173 0.76376 0.23822 1.0077 0.3669 0.85316 0.34933 0.55241 0.22479 0.23202-0.1266 0.04909-0.43201-0.24649-0.24753-0.94669-0.41857s-0.76462-0.22305-0.84748-0.24856c-0.08285-0.025511-1.5244-0.17673-1.5244-0.17673zm-0.84283 4.5454 0.11782 0.040307-0.01654 0.34519-0.05891 0.79373-0.01809 0.58962-0.03669 0.40514-0.09767-0.89347-0.05374-1.2035z" fill="none" stroke="#803c05" stroke-linecap="round" stroke-linejoin="round" stroke-width=".52916"/>
  <path d="m6.865 3.5754-0.51159 0.054776-0.30798 0.1912-0.02222 0.19947 0.10748 0.31057 0.31677 0.10438 0.39842 0.065111 0.4196 0.097666 0.43407 0.073896 0.84851 0.26561 0.7989 0.38653 0.8666 0.60615 0.55499 0.45319 0.36121 0.46353-0.02222 0.1142-0.07131 0.029455-0.22944-0.14521-0.36069-0.38757-0.76531-0.68057-0.60719-0.36069-0.61494-0.29817-0.49453-0.22892-0.64129-0.19637-0.29248 0.018603-0.03669 0.14417 0.18603 0.35656 0.18655 0.16123-0.34002 0.293-0.77255 0.60047-1.3952 1.2717-0.72811 0.5891 0.42994-0.77823 0.62889-0.84438 0.74206-0.74309 0.42787-0.32556 0.15399-0.17621 0.01188-0.21755-0.14934-0.10387-0.53071-0.057876-0.22427 0.044958-0.44441 0.45423-1.8815 2.9558-0.10128 0.39893 0.0057 0.35708 0.15451 0.087848 0.22686 0.012919 0.31677-0.22686 0.40927-0.41547 0.06554-0.067413 0.37215-0.36976 1.2945-1.186 1.3973-0.80407 0.25889-0.20153 0.29455-0.069245 0.31057 0.32556-0.15658 0.12092-0.21239 0.0062-0.53897 0.096633-0.37878 0.13281-0.52399 0.25838-0.59478 0.4227-0.58186 0.4935-0.78162 0.7223-0.05412 0.069742-0.02406 0.075461 0.01181 0.23164 0.12247 0.065628 0.24288-0.069762 0.25011-0.22841 0.07493 0.22789 0.22169 1.4764-0.15399-0.0832s-0.2285-0.3158-0.25166-0.36845c-0.02315-0.05265-0.14572-0.36586-0.14572-0.36586l-0.25786-0.10387-0.23306 0.0956-0.11627 0.22479s-0.02944 0.32175-5.17e-4 0.39325c0.02892 0.0715 0.19688 0.61442 0.19688 0.61442l0.45836 0.85729 0.30747 0.49195 0.324 0.45836 0.28473 0.2868 0.401 0.38136 0.36586 0.2191 0.34312 0.11214 0.3855 0.04186 0.20774-0.2129-0.10748-0.33072-0.25734-0.27026 0.07906-0.14728 0.17673-0.01292 0.11472-0.25476 0.13384-0.18345s0.31684-0.02635 0.3793-0.02635 1.3627 0.0351 1.4252 0.02945c0.0625-0.0056 1.2619-0.18396 1.2619-0.18396l0.81854-0.07648-0.68728 0.36069-0.92034 0.29455-0.50694 0.02067s-0.69708 0.06768-0.76428 0.0801-0.61856-0.0067-0.61856-0.0067l-0.09973 0.18603 0.10748 0.22582 0.37103 0.37878 0.40772 0.10387s0.49284 0.08089 0.56791 0.06821 1.2593-0.35294 1.2593-0.35294 0.63964-0.23708 0.694-0.26664c0.05436-0.02957 0.62269-0.42529 0.62269-0.42529l0.6568-0.58032s0.51832-0.64912 0.54931-0.71674c0.031-0.06762 0.14004-0.4134 0.14004-0.4134l-0.26664-0.0057s-0.52064 0.12486-0.57566 0.15554c-0.05503 0.03069-0.44028 0.1912-0.44028 0.1912l-0.5121 0.13229 0.5798-0.28422 0.27595-0.25993-0.32607-0.06976-0.24132 0.0062-0.57101 0.23564s-0.31888 0.21765-0.38498 0.23616c-0.06611 0.0185-0.79425 0.108-0.79425 0.108h-0.64441l-0.7834-0.24546s-0.33505-0.16106-0.3917-0.21704-0.5501-0.364-0.6108-0.39945-0.58652-0.39738-0.58652-0.39738l-0.09405-0.38757 0.056843-1.2108 0.075446-0.88778-0.25321-0.067695-0.84231 0.11317 0.88417-0.37103 1.1673-0.34571 0.97615-0.11885 0.16743-0.29455-0.1204-0.32814-0.74774-0.60047 0.67436 0.32917 0.73586 0.62941 0.50073 0.74361 0.30644 0.5736 0.35863 0.34209 0.33021 0.13901 0.44492-0.3762s0.13281-0.52856 0.13281-0.61029-0.0062-0.71157-0.0062-0.71157l-0.11369-0.40513-0.7586-0.55809-0.87332-0.40255-1.6025-0.69607-0.76014-0.35036-0.3638-0.084748 0.54931 0.036173 0.76376 0.23822 1.0077 0.3669 0.85316 0.34933 0.55241 0.22479 0.23202-0.1266 0.04909-0.43201-0.24649-0.24753-0.94669-0.41857s-0.76462-0.22305-0.84748-0.24856c-0.08285-0.025511-1.5244-0.17673-1.5244-0.17673zm-0.84283 4.5454 0.11782 0.040307-0.01654 0.34519-0.05891 0.79373-0.01809 0.58962-0.03669 0.40514-0.09767-0.89347-0.05374-1.2035z" fill="#fed021"/>
 </g>
</svg>
