<svg xmlns="http://www.w3.org/2000/svg" width="64" height="64" viewBox="0 0 16.933 16.933"><rect width="13.758" height="13.758" x="1.587" y="1.587" fill="#200e06" fill-opacity=".961" fill-rule="evenodd" rx="2.117" ry="2.117" style="paint-order:stroke fill markers"/><path fill="none" stroke="#803c05" stroke-linecap="round" stroke-linejoin="round" stroke-width=".529" d="m7.087 3.462-.512.055-.308.191-.022.2.108.31.316.105.399.065.42.097.433.074.849.266.799.386.866.606.555.454.362.463-.023.114-.071.03-.23-.145-.36-.388-.765-.68-.608-.361-.615-.298-.494-.23-.641-.196-.293.019-.037.144.187.357.186.16-.34.294-.773.6L5.08 7.426l-.728.59.43-.779.629-.844.742-.743.428-.326.154-.176.012-.218-.15-.104-.53-.058-.225.045-.444.455-1.881 2.955-.102.4.006.356.155.088.226.013.317-.227.41-.415.065-.068.372-.37 1.295-1.185 1.397-.804.259-.202.294-.07.31.326-.156.121-.212.007-.539.096-.379.133-.524.258-.595.423-.581.494-.782.722-.054.07-.024.075.012.232.122.065.243-.07.25-.228.075.228.222 1.476-.154-.083s-.229-.316-.252-.368c-.023-.053-.146-.366-.146-.366l-.258-.104-.233.096-.116.224s-.03.322 0 .394c.028.071.196.614.196.614l.459.857.307.492.324.459.285.287.401.38.366.22.343.112.385.042.208-.213-.107-.33-.258-.27.08-.148.176-.013.115-.255.134-.183s.317-.027.38-.027 1.362.035 1.424.03c.063-.006 1.262-.184 1.262-.184l.819-.077-.688.361-.92.295-.507.02s-.697.068-.764.08-.619-.006-.619-.006l-.1.186.108.226.371.378.408.104s.493.081.568.068 1.259-.353 1.259-.353.64-.237.694-.266.623-.425.623-.425l.657-.58s.518-.65.549-.718c.03-.067.14-.413.14-.413l-.267-.006s-.52.125-.575.156c-.055.03-.44.191-.44.191l-.513.132.58-.284.276-.26-.326-.07-.241.007-.571.235s-.32.218-.385.236c-.067.019-.795.108-.795.108h-.644l-.784-.245s-.335-.161-.391-.217-.55-.364-.611-.4-.587-.397-.587-.397L7.15 9.51l.057-1.211.076-.888-.254-.068-.842.113.884-.37 1.168-.346.976-.12.167-.294-.12-.328-.748-.6.674.329.736.63.501.743.306.574.36.342.33.139.444-.377s.133-.528.133-.61l-.006-.711-.114-.406-.758-.558-.874-.402-1.602-.696-.76-.35-.364-.085.55.036.763.238L9.84 4.6l.853.35.552.224.232-.127.05-.432-.247-.247-.947-.419-.847-.248c-.083-.026-1.525-.177-1.525-.177zm-.843 4.546.118.04-.017.345-.059.794-.018.59-.036.405-.098-.894-.054-1.203z"/><path fill="#fed021" d="m7.087 3.462-.512.055-.308.191-.022.2.108.31.316.105.399.065.42.097.433.074.849.266.799.386.866.606.555.454.362.463-.023.114-.071.03-.23-.145-.36-.388-.765-.68-.608-.361-.615-.298-.494-.23-.641-.196-.293.019-.037.144.187.357.186.16-.34.294-.773.6L5.08 7.426l-.728.59.43-.779.629-.844.742-.743.428-.326.154-.176.012-.218-.15-.104-.53-.058-.225.045-.444.455-1.881 2.955-.102.4.006.356.155.088.226.013.317-.227.41-.415.065-.068.372-.37 1.295-1.185 1.397-.804.259-.202.294-.07.31.326-.156.121-.212.007-.539.096-.379.133-.524.258-.595.423-.581.494-.782.722-.054.07-.024.075.012.232.122.065.243-.07.25-.228.075.228.222 1.476-.154-.083s-.229-.316-.252-.368c-.023-.053-.146-.366-.146-.366l-.258-.104-.233.096-.116.224s-.03.322 0 .394c.028.071.196.614.196.614l.459.857.307.492.324.459.285.287.401.38.366.22.343.112.385.042.208-.213-.107-.33-.258-.27.08-.148.176-.013.115-.255.134-.183s.317-.027.38-.027 1.362.035 1.424.03c.063-.006 1.262-.184 1.262-.184l.819-.077-.688.361-.92.295-.507.02s-.697.068-.764.08-.619-.006-.619-.006l-.1.186.108.226.371.378.408.104s.493.081.568.068 1.259-.353 1.259-.353.64-.237.694-.266.623-.425.623-.425l.657-.58s.518-.65.549-.718c.03-.067.14-.413.14-.413l-.267-.006s-.52.125-.575.156c-.055.03-.44.191-.44.191l-.513.132.58-.284.276-.26-.326-.07-.241.007-.571.235s-.32.218-.385.236c-.067.019-.795.108-.795.108h-.644l-.784-.245s-.335-.161-.391-.217-.55-.364-.611-.4-.587-.397-.587-.397L7.15 9.51l.057-1.211.076-.888-.254-.068-.842.113.884-.37 1.168-.346.976-.12.167-.294-.12-.328-.748-.6.674.329.736.63.501.743.306.574.36.342.33.139.444-.377s.133-.528.133-.61l-.006-.711-.114-.406-.758-.558-.874-.402-1.602-.696-.76-.35-.364-.085.55.036.763.238L9.84 4.6l.853.35.552.224.232-.127.05-.432-.247-.247-.947-.419-.847-.248c-.083-.026-1.525-.177-1.525-.177zm-.843 4.546.118.04-.017.345-.059.794-.018.59-.036.405-.098-.894-.054-1.203z"/></svg>