<svg id="App-Store" width="64" height="64" enable-background="new 0 0 1024 1024" image-rendering="optimizeSpeed" version="1.1" viewBox="0 0 64 64" xmlns="http://www.w3.org/2000/svg">
 <defs>
  <linearGradient id="b-3" x1="399.57" x2="399.57" y1="545.8" y2="517.8" gradientTransform="matrix(2.1429,0,0,2.1429,-826.36,-1107.5)" gradientUnits="userSpaceOnUse">
   <stop stop-color="#3889e9" offset="0"/>
   <stop stop-color="#5ea5fb" offset="1"/>
  </linearGradient>
 </defs>
 <circle cx="32.02" cy="32.044" r="30.001" fill-opacity="0" stroke-width="1.5715"/>
 <circle cx="32.02" cy="32.044" r="0" fill="url(#b-3)" stroke-width="1.5715"/>
 <g transform="matrix(1.4359 0 0 1.4444 -13.949 -14.222)">
  <ellipse cx="32" cy="32" rx="19.5" ry="18" fill="#6f467c" stroke-width="1.2928" style="paint-order:normal"/>
  <path d="m26.15 23c-3.9489-0.0019-7.15 3.1659-7.15 7.0714s3.2011 7.0714 7.15 7.0714h11.7c3.9489 0 7.15-3.1659 7.15-7.0714s-3.2011-7.0725-7.15-7.0714c-2.3313 5.72e-4 -4.5156 1.1271-5.8526 3.0159-1.336-1.8874-3.5179-3.0147-5.8474-3.0159z" fill="#ffffff" stroke-width="1.2928" style="paint-order:normal"/>
  <path d="m32.001 33.286c-2.5987 0-5.2013 1.9286-5.2013 3.8571 0 1.9286 4.1944 9 5.2013 9s5.1987-7.0714 5.1987-9-2.6-3.8571-5.1987-3.8571z" fill="#c6557f" stroke-width=".7778"/>
  <path d="m26.8 28.143c-1.436 0-2.6 1.1513-2.6 2.5714 0 1.4202 1.1641 2.5714 2.6 2.5714s2.6-1.1513 2.6-2.5714c0-1.4202-1.1641-2.5714-2.6-2.5714zm10.4 0c-1.436 0-2.6 1.1513-2.6 2.5714 0 1.4202 1.1641 2.5714 2.6 2.5714s2.6-1.1513 2.6-2.5714c0-1.4202-1.1641-2.5714-2.6-2.5714zm-11.05 1.2857c0.35898 0 0.65 0.28782 0.65 0.64286s-0.29102 0.64286-0.65 0.64286-0.65-0.28782-0.65-0.64286 0.29102-0.64286 0.65-0.64286zm10.4 0c0.35898 0 0.65 0.28782 0.65 0.64286s-0.29102 0.64286-0.65 0.64286-0.65-0.28782-0.65-0.64286 0.29102-0.64286 0.65-0.64286z" fill="#2f5b93" stroke-width="1.2928" style="paint-order:normal"/>
 </g>
</svg>
