<svg xmlns="http://www.w3.org/2000/svg" width="64" height="64"><rect width="58" height="46" x="3" y="9" fill="#e1434f" rx="4" ry="4"/><path d="M7 9v5h4V9zm46 0v5h4V9zM7 18v4h4v-4zm46 0v4h4v-4zM7 26v4h4v-4zm46 0v4h4v-4zM7 34v4h4v-4zm46 0v4h4v-4zM7 42v4h4v-4zm46 0v4h4v-4zM7 50v5h4v-5zm46 0v5h4v-5z" opacity=".3"/><rect width="30" height="3" x="17" y="43" fill="#f9f9f9" opacity=".5" rx="1.5" ry="1.5" style="paint-order:normal"/><circle cx="24.5" cy="44.5" r="3.5" fill="#fff" style="paint-order:normal"/><path fill="#fff" d="M32 17c-5.523 0-10 4.477-10 10s4.477 10 10 10 10-4.477 10-10-4.477-10-10-10m-3 4 9 6-9 6z" style="paint-order:normal"/></svg>