<svg xmlns="http://www.w3.org/2000/svg" width="64" height="64" viewBox="0 0 16.933 16.933"><g transform="translate(0 -280.067)"><rect ry=".686" rx=".68" y="-13.494" x="-294.883" height="10.054" width="12.7" transform="matrix(0 -1 -1 0 0 0)" fill="#e91e63"/><rect transform="matrix(0 -1 -1 0 0 0)" width="10.583" height="7.938" x="-293.825" y="-12.435" rx="0" ry=".265" opacity=".5" fill="#fff"/><path d="M8.467 285.812a2.721 2.721 0 1 0 0 5.443 2.721 2.721 0 0 0 0-5.443zM7.3 287.369a.389.389 0 1 1 0 .777.389.389 0 0 1 0-.777zm2.333 0a.389.389 0 1 1 0 .777.389.389 0 0 1 0-.777zm-2.265 1.876a1.555 1.555 0 0 0 2.197 0l.275.275a1.943 1.943 0 0 1-2.747 0z" style="marker:none" color="#bebebe" overflow="visible" opacity=".5" fill="#e91e63"/><g transform="matrix(.51435 0 0 .51435 11.027 143.584)"><circle transform="scale(1 -1)" cx="4.624" cy="-289.813" r=".8" opacity=".2"/><rect transform="matrix(0 -1 -1 0 0 0)" width="14.403" height="14.403" x="-296.214" y="-9.425" rx="7.202" ry="7.202" fill="#fff" stroke="#000" stroke-width=".514" stroke-linecap="round" stroke-opacity=".059" paint-order="markers stroke fill"/><circle cx="2.223" cy="289.013" r="4.201" fill="#333"/><circle cy="-289.013" cx="2.223" transform="scale(1 -1)" r="3.001" fill="#e91e63"/><path d="M3.496 287.74a1.8 1.8 0 0 0-2.546 0l1.273 1.273z" opacity=".2" fill="#fff"/><path d="M3.496 287.74a1.8 1.8 0 0 1 0 2.546l-1.273-1.273zM.95 290.286a1.8 1.8 0 0 1 0-2.546l1.273 1.273z" opacity=".4" fill="#fff"/><path d="M.95 290.286a1.8 1.8 0 0 0 2.546 0l-1.273-1.273z" opacity=".6" fill="#fff"/></g></g></svg>