<svg width="64" height="64" version="1.1" xmlns="http://www.w3.org/2000/svg">
 <g transform="translate(3,-3)">
  <circle cx="29" cy="35" r="27" fill="#4d4d4d" stroke-width=".9" style="paint-order:stroke markers fill"/>
  <path d="m22.241 22.4c-0.32865 0-0.5943 0.2583-0.5943 0.5901v5.1188c0 0.32865 0.2625 0.59115 0.5943 0.59115h0.4557l-1.05 1.05 1.05 1.05-1.0469 11.55c-1.1644 0-2.099 0.93555-2.099 2.0958 0 0.38115 0.11445 0.73815 0.29085 1.05l-0.2919 0.0041-1.05 2.1001h21l-1.05-2.1-0.294-0.0041c0.1806-0.31185 0.29505-0.66885 0.29505-1.05 0-1.1644-0.94077-2.0958-2.101-2.0958l-1.049-11.55 1.05-1.05-1.05-1.05h0.4599c0.3318 0 0.5943-0.2583 0.5943-0.59115v-5.1188c0-0.32865-0.2583-0.5901-0.5943-0.5901h-1.5109v2.1h-2.1v-2.1h-2.1v2.1h-2.1v-2.1001h-2.1v2.1h-2.1v-2.1" fill="#fff" stroke-width="1.05"/>
 </g>
</svg>
