<svg xmlns="http://www.w3.org/2000/svg" width="64" height="64" viewBox="0 0 16.933 16.933"><g fill-rule="evenodd"><path d="M2.965 4.34a6.917 6.917 0 0 0-1.378 4.148 6.846 6.846 0 0 0 6.88 6.858l2.407-4.932L6.403 9.5z" fill="#649af5"/><path d="M8.81 5.371l2.064 5.022-2.407 4.953a6.864 6.864 0 0 0 6.879-6.88 6.865 6.865 0 0 0-.737-3.095z" fill="#a2c2f8"/><path d="M8.465 1.587a6.852 6.852 0 0 0-5.502 2.754l3.439 5.158 4.471.894L8.809 5.37h5.799a6.858 6.858 0 0 0-6.143-3.784z" fill="#3b6bd4"/></g><path d="M8.48 5.353a3.179 3.179 0 0 1 3.186 3.185 3.179 3.179 0 0 1-3.186 3.186 3.179 3.179 0 0 1-3.185-3.186A3.179 3.179 0 0 1 8.48 5.353z" fill="#fff"/><path d="M8.48 6.077a2.456 2.456 0 0 1 2.462 2.461A2.456 2.456 0 0 1 8.48 11 2.456 2.456 0 0 1 6.02 8.538 2.456 2.456 0 0 1 8.48 6.077z" fill="#59f"/></svg>