<svg width="64" height="64" version="1.1" viewBox="0 0 16.933 16.933" xmlns="http://www.w3.org/2000/svg">
 <g transform="matrix(1.0384 0 0 1.0383 -.32502 -.32385)" fill-rule="evenodd" stroke-width=".92746">
  <path d="m2.965 4.34a6.917 6.917 0 0 0-1.378 4.148 6.846 6.846 0 0 0 6.88 6.858l2.407-4.932-4.471-0.914z" fill="#649af5"/>
  <path d="m8.81 5.371 2.064 5.022-2.407 4.953a6.864 6.864 0 0 0 6.879-6.88 6.865 6.865 0 0 0-0.737-3.095z" fill="#a2c2f8"/>
  <path d="m8.465 1.587a6.852 6.852 0 0 0-5.502 2.754l3.439 5.158 4.471 0.894-2.064-5.023h5.799a6.858 6.858 0 0 0-6.143-3.784z" fill="#3b6bd4"/>
 </g>
 <path d="m8.466 5.027a3.4325 3.4325 0 0 1 3.44 3.439 3.4325 3.4325 0 0 1-3.44 3.44 3.4325 3.4325 0 0 1-3.439-3.44 3.4325 3.4325 0 0 1 3.439-3.439z" fill="#fff"/>
 <path d="m8.4654 5.8207a2.6404 2.6399 0 0 1 2.6468 2.6452 2.6404 2.6399 0 0 1-2.6468 2.6463 2.6404 2.6399 0 0 1-2.6447-2.6463 2.6404 2.6399 0 0 1 2.6447-2.6452z" fill="#59f"/>
</svg>
