<svg xmlns="http://www.w3.org/2000/svg" xmlns:xlink="http://www.w3.org/1999/xlink" width="64" height="64" viewBox="0 0 16.933 16.933"><defs><linearGradient id="a"><stop offset="0" stop-color="#66bcff"/><stop offset="1" stop-color="#b29aff"/></linearGradient><linearGradient xlink:href="#a" id="c" x1="13.229" y1="297" x2="2.117" y2="280.067" gradientUnits="userSpaceOnUse" gradientTransform="matrix(1.07143 0 0 1 -.605 0)"/><linearGradient xlink:href="#a" id="b" gradientUnits="userSpaceOnUse" x1="13.229" y1="297" x2="2.117" y2="280.067"/></defs><g transform="translate(0 -280.067)"><path d="M.794 282.448H16.14c.146 0 .264.118.264.264v11.642a.264.264 0 0 1-.264.265H.794a.264.264 0 0 1-.265-.265v-11.642c0-.146.118-.264.265-.264z" fill="url(#c)" paint-order="stroke markers fill"/><rect width="1.058" height=".529" x="1.587" y="282.712" ry=".265" opacity=".35" paint-order="stroke markers fill"/><rect ry=".265" y="282.712" x="7.144" height=".529" width="2.646" opacity=".35" paint-order="stroke markers fill"/><rect width=".529" height=".529" x="15.081" y="282.712" ry=".265" opacity=".35" paint-order="stroke markers fill"/><rect ry=".265" y="282.712" x="14.023" height=".529" width=".794" opacity=".35" paint-order="stroke markers fill"/><rect width=".529" height=".529" x="13.229" y="282.712" ry=".265" opacity=".35" paint-order="stroke markers fill"/><path d="M.794 282.448a.264.264 0 0 0-.265.265v.793h15.875v-.793a.264.264 0 0 0-.264-.265H.794z" opacity=".35" paint-order="stroke markers fill"/><g stroke-width="2"><path d="M9.393 290.12s1.176 1.044 1.19 2.647a.53.53 0 1 1-1.058 0c.199-1.858-.397-1.852-.397-1.852z" style="marker:none" color="#000" overflow="visible" fill="#525292"/><path style="marker:none" d="M7.54 290.12s-1.176 1.044-1.19 2.647a.53.53 0 1 0 1.058 0c-.198-1.858.397-1.852.397-1.852z" color="#000" overflow="visible" fill="#6969a6"/><path d="M8.467 284.83s-.573.787-.897 2.116h.367v.794h1.059v-.794h.368c-.325-1.329-.897-2.117-.897-2.117zm.897 2.116c.025.103.051.21.074.318-.022-.111-.049-.214-.074-.318zm-.368.794v.793h.583a7.681 7.681 0 0 0-.058-.793zm.583.793zm0 .389zm-.02.405h-.563v.794H7.937v-.794h-.562c.02.257.05.521.1.794l.33 1.852h1.323l.33-1.852a7.96 7.96 0 0 0 .1-.794zm-2.184 0zm-.02-.405zm0-.389h.582v-.793h-.525a7.68 7.68 0 0 0-.057.793zm.582 0v.794h1.059v-.794zm-.367-1.587c-.026.104-.053.207-.075.318.023-.108.05-.215.075-.318z" fill="#6969a6"/><path d="M7.57 286.946c-.061.248-.12.509-.158.794h.525v-.794zm.367.794v.793h1.059v-.793zm1.059 0h.525a7.35 7.35 0 0 0-.157-.794h-.368zm0 .793v.794h.562c.021-.275.028-.539.02-.794zm0 .794H7.937v.794h1.059zm-1.059 0v-.794h-.582c-.007.255 0 .519.02.794z" style="marker:none" color="#000" overflow="visible" fill="#fff" opacity=".5"/></g></g></svg>