<svg width="64" height="64" version="1.1" xmlns="http://www.w3.org/2000/svg">
 <path d="m10 57.153v-24.931h44v24.931c0 1.5693-1.2057 2.8467-2.7215 2.8467h-38.557c-1.5158 0-2.7215-1.2773-2.7215-2.8467z" fill="#4747d1"/>
 <path d="m9 27.207v5.5869c0 0.68947 0.53088 1.2066 1.2387 1.2066h45.523c0.67244 0 1.2387-0.5171 1.2387-1.2066v-5.5869c0-0.68947-0.56627-1.2066-1.2387-1.2066h-45.523c-0.70783 0-1.2387 0.5171-1.2387 1.2066z" fill="#4747d1"/>
 <path d="m42.239 34 8.2463-8h-9.0249l-8.2485 8z" fill="#f1f1f1"/>
 <path d="m20.611 34 8.2485-8h-9.0625l-8.2485 8z" fill="#f1f1f1"/>
 <path d="m7.9532 19.315c0.17652 0.56487 1.5181 4.9779 1.6946 5.5075 0.21183 0.67078 0.88261 1.0238 1.5534 0.812 4.4859-1.3769 40.362-12.359 44.846-13.736 0.67079-0.17652 1.0238-0.88261 0.84731-1.5181-0.17652-0.56487-1.5181-4.9779-1.6946-5.5075-0.21183-0.67079-0.88261-1.0238-1.5534-0.812-8.9696 2.7184-40.36 12.359-44.846 13.736-0.67079 0.17652-1.0238 0.88261-0.84731 1.5181z" fill="#4747d1"/>
 <path d="m42.699 15.997-10.276-5.5097 8.6518-2.6125 10.276 5.5075z" fill="#f1f1f1"/>
 <path d="m21.759 22.422-10.276-5.4722 8.6518-2.6478 10.276 5.4722z" fill="#f1f1f1"/>
 <path d="m7 18.386v14.264c0 0.76599 0.64818 1.3496 1.4108 1.3496h14.148c1.0295 0 1.7158-0.98485 1.3345-1.8603-0.64818-1.4226-5.7574-12.878-6.4056-14.301-0.22877-0.51066-0.72444-0.80247-1.2964-0.80247h-7.7806c-0.76257 0-1.4108 0.58361-1.4108 1.3496z" fill="#a9a9a9"/>
 <path d="m27 39v15l12-7.4833z" fill="#f1f1f1"/>
</svg>
