<svg width="64" height="64" version="1.1" xmlns="http://www.w3.org/2000/svg">
 <rect x="6" y="6" width="52" height="52" rx="8" ry="8" fill="#c281de" stroke-width=".92854"/>
 <circle cx="32.02" cy="32.044" r="30.001" fill="none"/>
 <circle cx="32.02" cy="32.044" r="30.001" fill="none"/>
 <path d="m18.572 16.432c0.91166-0.31415 1.8815 0.48921 2.5536 0.99695 1.8599 1.4051 3.2259 3.4179 5.1579 4.7225 1.427 0.96354 3.1166 0.11932 4.689 0.011 1.7896-0.12324 3.9382 0.82829 5.6268 0.44393 1.5671-0.3567 2.9003-2.205 3.9856-3.2774 0.94324-0.93202 3.5495-3.9134 5.0597-2.6719 2.1527 1.7697 1.2705 7.9398 1.2705 10.408 0 1.2813-0.24965 2.8392 0.0563 4.0851 0.4323 1.7607 1.683 3.3966 1.5322 5.2928-0.37207 4.6817-6.5389 8.7108-10.498 10.153-6.46 2.3531-13.436 0.71408-18.522-3.8626-1.7097-1.5388-3.588-3.4868-4.0951-5.8213-0.49144-2.2626 1.3853-4.1852 1.5597-6.3302 0.28496-3.5033-0.21673-7.0366 0.1791-10.55 0.12218-1.0845 0.18992-3.1674 1.4438-3.5994m4.2085 17.606c-1.3112 0.54173-0.99176 2.1698-0.32961 3.1045 0.93823 1.3244 2.9481 2.1135 4.5256 1.4707 3.3864-1.3798-1.7394-5.5902-4.196-4.5752m16.398-0.0637c-3.3831 0.59653-5.3838 5.4708-0.70334 4.763 2.9846-0.45138 4.7408-5.4749 0.70334-4.763m-4.9234 7.1574c-0.62622-0.26424-1.1906-0.42677-1.8756-0.45949-5.7918-0.27667 0.28999 5.0243 1.8756 0.45949z" fill="#ffffff"/>
</svg>
