<svg xmlns="http://www.w3.org/2000/svg" width="64" height="64" viewBox="0 0 16.933 16.933"><path d="M8.467 1.588a6.879 6.879 0 1 1 0 13.757 6.879 6.879 0 1 1 0-13.757z" fill="#ff8830"/><path d="M6.504 3.569a6.89 6.89 0 0 0-3.813 1.15 6.817 6.817 0 0 0-.926 2.224c.626-.745 1.174-1.277 1.73-1.645 1.083 2.955 1.14 2.966.336-.196.794-.438 1.617-.582 2.673-.589.092-.001.179.006.271.01-.013 1.647-.27 5.041-1.187 6.28-1.326-3.413-1.165-2.805-.271.103a1.041 1.041 0 0 0-.187.13l-.411-.308.205.59c-.876.132-1.746-.087-2.617.233.116.231.235.448.374.664.825-.187 1.426-.886 2.253-.419.013.065.046.122.075.178l-1.926.776c.045.057.084.113.131.168.65-.307 1.317-.429 1.926-.757.06.054.14.093.224.122l-1.168 1.58c.066.052.137.108.205.158.42-.523.618-1.12 1.16-1.701.07.006.151.017.233.007a7.02 7.02 0 0 0 .178 2.551c.27.105.554.192.842.262-.213-.964-.791-1.857-.739-2.87.266.102.405.234.701.44-.133-.2-.296-.33-.41-.58A.624.624 0 0 0 6.43 12c1.362.518 2.637.664 4.02 1.495l.756.56A3.59 3.59 0 0 1 10 15.177a6.831 6.831 0 0 0 2.244-.954 6.825 6.825 0 0 0 1.159-3.794c0-3.767-3.075-6.86-6.898-6.86m1.131 1.056c2.28.448 4.27 2.238 4.702 4.336l-.103.131c-.192.332-1.992.906-2.645 1.112-1.247.267-2.14.9-3.337.944a.895.895 0 0 0-.262-.243c.728-1.294.489-4.754 1.645-6.28m4.526 4.916l.27.261c0 .21-.022.415-.057.627-.177 1.119-.402 2.225-.868 3.13l-.991-.326c-1.13-.55-2.824-.908-4.029-1.702 1.727-.991 3.779-1.39 5.674-1.99m-4.403 4.833c.137.397.473.662.719.972.112 0 .226-.004.336-.01-.395-.32-.727-.598-1.055-.962m0 0" fill="#f9f9f9"/></svg>