<svg width="64" height="64" version="1.1" viewBox="0 0 16.933 16.933" xmlns="http://www.w3.org/2000/svg">
 <g transform="matrix(1.0261 0 0 1.0384 -.22145 -.32561)" stroke-width=".94413">
  <path d="m8.467 1.588a6.879 6.879 0 1 1 0 13.757 6.879 6.879 0 1 1 0-13.757z" fill="#ff8830"/>
  <path d="m6.504 3.569a6.89 6.89 0 0 0-3.813 1.15 6.817 6.817 0 0 0-0.926 2.224c0.626-0.745 1.174-1.277 1.73-1.645 1.083 2.955 1.14 2.966 0.336-0.196 0.794-0.438 1.617-0.582 2.673-0.589 0.092-1e-3 0.179 6e-3 0.271 0.01-0.013 1.647-0.27 5.041-1.187 6.28-1.326-3.413-1.165-2.805-0.271 0.103a1.041 1.041 0 0 0-0.187 0.13l-0.411-0.308 0.205 0.59c-0.876 0.132-1.746-0.087-2.617 0.233 0.116 0.231 0.235 0.448 0.374 0.664 0.825-0.187 1.426-0.886 2.253-0.419 0.013 0.065 0.046 0.122 0.075 0.178l-1.926 0.776c0.045 0.057 0.084 0.113 0.131 0.168 0.65-0.307 1.317-0.429 1.926-0.757 0.06 0.054 0.14 0.093 0.224 0.122l-1.168 1.58c0.066 0.052 0.137 0.108 0.205 0.158 0.42-0.523 0.618-1.12 1.16-1.701 0.07 6e-3 0.151 0.017 0.233 7e-3a7.02 7.02 0 0 0 0.178 2.551c0.27 0.105 0.554 0.192 0.842 0.262-0.213-0.964-0.791-1.857-0.739-2.87 0.266 0.102 0.405 0.234 0.701 0.44-0.133-0.2-0.296-0.33-0.41-0.58a0.624 0.624 0 0 0 0.064-0.13c1.362 0.518 2.637 0.664 4.02 1.495l0.756 0.56a3.59 3.59 0 0 1-1.206 1.122 6.831 6.831 0 0 0 2.244-0.954 6.825 6.825 0 0 0 1.159-3.794c0-3.767-3.075-6.86-6.898-6.86m1.131 1.056c2.28 0.448 4.27 2.238 4.702 4.336l-0.103 0.131c-0.192 0.332-1.992 0.906-2.645 1.112-1.247 0.267-2.14 0.9-3.337 0.944a0.895 0.895 0 0 0-0.262-0.243c0.728-1.294 0.489-4.754 1.645-6.28m4.526 4.916 0.27 0.261c0 0.21-0.022 0.415-0.057 0.627-0.177 1.119-0.402 2.225-0.868 3.13l-0.991-0.326c-1.13-0.55-2.824-0.908-4.029-1.702 1.727-0.991 3.779-1.39 5.674-1.99m-4.403 4.833c0.137 0.397 0.473 0.662 0.719 0.972 0.112 0 0.226-4e-3 0.336-0.01-0.395-0.32-0.727-0.598-1.055-0.962" fill="#f9f9f9"/>
 </g>
</svg>
