<svg width="64" height="64" version="1.1" viewBox="0 0 16.933 16.933" xmlns="http://www.w3.org/2000/svg">
 <g transform="translate(1.0583 -1.0583)" stroke-width=".26458">
  <path d="m14.552 9.5248a7.1436 7.1436 0 0 1-7.1436 7.1436 7.1436 7.1436 0 0 1-7.1436-7.1436 7.1436 7.1436 0 0 1 7.1436-7.1436 7.1436 7.1436 0 0 1 7.1436 7.1436z" fill="#3ecac7"/>
  <path d="m3.4395 5.5561h7.9373v7.9373h-7.9373z" fill="#303030"/>
  <path d="m5.8552 6.4183c-1.0281 0-1.553 0.73671-1.553 1.6901 0 0.95334 0.56223 1.7451 1.553 1.7265 0.63556 0 1.0212-0.24975 1.3576-0.62361l-0.42585-0.43374c-0.2617 0.24301-0.55791 0.43616-0.93178 0.43616-0.57621 0-0.92722-0.53856-0.93117-1.1144 0.00394-0.57541 0.37338-1.0598 0.93117-1.0598 0.33647 0 0.62154 0.12521 0.88325 0.36822l0.40583-0.48651c-0.31778-0.31778-0.65351-0.50289-1.2891-0.50289zm1.8636 6.212e-4v3.4165h2.1741v-0.62118h-1.553v-2.7953z" fill="#f9f9f9"/>
  <path d="m3.9917 12.01h3.1059v0.62118h-3.1059z" fill="#f9f9f9"/>
 </g>
</svg>
