<svg width="64" height="64" version="1.1" viewBox="0 0 16.933 16.933" xmlns="http://www.w3.org/2000/svg">
 <g transform="matrix(1.0384 0 0 1.0384 -.32504 -.020153)" stroke-width=".92742">
  <path d="m8.821 5.682-4.586 7.944h9.172z" fill="#fff"/>
  <path d="m8.467 11.274c-0.471 1.02-0.727 2.032 0 3.014h6.879c-1.841-0.931-2.409-2.803-5.84-2.559z" fill="#4caf50"/>
  <path d="m6.723 10.51c-2.429 0.542-3.77 2.171-5.136 3.778h6.88v-3.014z" fill="#4caf50"/>
  <path d="m8.467 2.373-6.88 11.915 7.584-5.58c0.965-2.438-0.032-4.343-0.704-6.335z" fill="#2196f3"/>
  <path d="m8.467 2.373 1.04 9.356 5.839 2.559z" fill="#f44336"/>
  <path d="m15.34 14.288-5.834-2.559-0.168-1.51zm-6.873-11.915 0.701 6.332-1.224 0.9zm-6.88 11.915 5.133-3.774 1.392 0.61z" opacity=".1"/>
 </g>
</svg>
