<svg xmlns="http://www.w3.org/2000/svg" width="64" height="64"><path fill="#465051" d="M32.001 5.75c-3.397 0-8.392.895-13 3.06-.28.132-.563.252-.84.393a25 25 0 0 0-3.38 2.064l-.09.069q-.247.18-.489.369c-.09.07-.174.146-.263.218q-.274.223-.541.454c-.078.067-.161.129-.238.197l-.073.064c-.094.084-.18.176-.271.262a19 19 0 0 0-1.505 1.579c-.076.09-.159.172-.233.264-.067.082-.132.17-.197.253-.031.04-.058.084-.089.124q-.18.234-.352.476c-.078.109-.162.212-.237.323q-.206.304-.4.618v.003H9.8a16 16 0 0 0-1.242 2.491c-.027.07-.057.136-.083.206a15 15 0 0 0-.258.73c-.057.174-.106.35-.157.528-.022.075-.048.15-.068.226a17.3 17.3 0 0 0-.59 3.95c-.05 1.459.086 2.972.372 4.51 1.45 7.786 6.834 16.24 12.277 21.891 2.205 2.29 6.164 5.896 10.005 6.901.404.106.803.188 1.202.23.249.028.498.047.743.047 4.385 0 9.372-4.497 11.953-7.178 5.238-5.438 10.42-13.473 12.095-21.01.194-.87.341-1.736.436-2.589.104-.95.148-1.886.116-2.802-.498-14.296-16.788-18.92-24.6-18.92zm1.265 32.662.025.245-.025-.246zm-.655 9.966"/><path fill="#e45e3e" d="M34.321 15.9a24.6 24.6 0 0 0-4.77.418h-.003c-2.683.496-5.434 1.43-8.32 2.803a30 30 0 0 0 1.223 1.865c.419.59.848 1.148 1.282 1.687 3.031 3.774 6.296 6.486 8.18 10.719v.003c.943 2.115 1.54 4.61 1.59 7.806v.003c.05 3.198-.446 7.095-1.692 12.018a102 102 0 0 1-1.886 6.483c.43.113.857.2 1.282.246.265.03.531.05.793.05 4.678 0 9.996-4.797 12.75-7.657 5.587-5.8 11.115-14.37 12.901-22.41-2.96-3.86-5.288-6.875-8.89-9.541-4.753-3.516-9.676-4.437-14.44-4.493"/><path fill="#519c26" d="M6.39 19.968a18.5 18.5 0 0 0-.629 4.214c-.054 1.556.09 3.17.396 4.81 4.302-3.41 8.232-6.152 11.918-8.23a31 31 0 0 1-2.324-4.476s-7.809-1.714-9.36 3.682z"/><path fill="#2194cd" d="M58.239 24.182C57.707 8.933 40.332 4 32 4c-3.843 0-9.61 1.054-14.762 3.683a27 27 0 0 0-3.605 2.202c-3.342 2.436-6.06 5.733-7.242 10.083 3.328-1.483 6.441-2.715 9.36-3.683q1.809-.599 3.526-1.067C31.692 11.83 40.582 13.6 48.76 20.392c3.012 2.502 5.93 5.681 8.891 9.54q.31-1.394.463-2.76a21 21 0 0 0 .125-2.99"/><path fill="#65c32f" d="M18.075 20.762c-3.686 2.078-7.617 4.82-11.918 8.23 1.546 8.305 7.29 17.323 13.095 23.351 2.353 2.443 6.576 6.29 10.673 7.362a102 102 0 0 0 1.887-6.482v-.002q.069-1.124.109-2.173v-.001q.04-1.05.053-2.03t-.002-1.89v-.001a52 52 0 0 0-.159-3.394v-.001a40 40 0 0 0-.152-1.517v-.001a32 32 0 0 0-.44-2.712c-.787-3.766-2.133-6.236-3.769-8.267v-.001a22 22 0 0 0-.556-.662 29 29 0 0 0-1.167-1.254c-.8-.815-1.641-1.6-2.498-2.43a59 59 0 0 1-1.296-1.289 39 39 0 0 1-.65-.686l-.001-.001a30 30 0 0 1-1.943-2.319 27 27 0 0 1-1.265-1.83z"/><path fill="#465051" d="M13.633 9.886a22 22 0 0 0-1.73 1.393l-.078.068a20 20 0 0 0-2.144 2.245q-.106.134-.21.27a18 18 0 0 0-1.15 1.645v.001q-.415.673-.77 1.392c-.203.41-.386.834-.557 1.267q-.047.108-.09.218v.001q-.146.384-.273.778-.089.279-.17.564l-.07.24c3.327-1.483 6.44-2.715 9.36-3.683-.771-1.82-1.486-3.926-2.118-6.4z"/><path d="M18.133 7.265c-.298.14-.601.268-.896.418a27 27 0 0 0-3.605 2.201l-.097.077.097-.074c.633 2.473 1.347 4.58 2.118 6.398q1.81-.599 3.524-1.066l.227-.057c-.849-2.51-1.294-5.145-1.368-7.897" opacity=".2"/><path fill="#fff" d="M29.968 13.548c-3.277.056-6.814.612-10.694 1.67a68 68 0 0 0-3.524 1.067 31 31 0 0 0 2.326 4.476c.415.656.836 1.262 1.263 1.83.64.85 1.29 1.613 1.943 2.318h.002q.326.352.65.687.652.669 1.296 1.29c.857.83 1.698 1.613 2.499 2.428.4.408.788.823 1.165 1.256q.283.324.556.661c1.636 2.031 2.982 4.503 3.77 8.269.175.837.323 1.738.44 2.713q.088.73.153 1.517a52 52 0 0 1 .157 3.394v.002q.015.911.003 1.89a81 81 0 0 1-.054 2.029v.003q-.04 1.05-.108 2.173c.336-1.329.608-2.57.839-3.757.07-.36.114-.687.175-1.036.142-.811.276-1.61.37-2.357.046-.366.073-.71.108-1.06a36 36 0 0 0 .148-1.92c.03-.645.06-1.29.052-1.884V41.2a25 25 0 0 0-.127-2.094l-.027-.268a20 20 0 0 0-.26-1.644c-.095-.489-.213-.95-.34-1.403-.053-.193-.096-.4-.156-.587a17 17 0 0 0-.642-1.71c-.014-.032-.023-.069-.038-.1v-.003a18 18 0 0 0-.836-1.627c-.113-.197-.238-.381-.356-.572-.2-.32-.4-.637-.613-.943q-.201-.284-.41-.563a30 30 0 0 0-.694-.911q-.161-.2-.326-.397c-.66-.8-1.36-1.582-2.072-2.376-.23-.256-.45-.515-.683-.776a63 63 0 0 1-2.191-2.551v-.003a36 36 0 0 1-1.282-1.687q-.629-.884-1.222-1.865a42 42 0 0 1 1.98-.875q.254-.103.508-.203a36 36 0 0 1 2.058-.746q.67-.217 1.33-.4c.2-.055.4-.115.6-.166a28 28 0 0 1 1.767-.397l.076-.016h.003c.705-.13 1.402-.217 2.099-.287q.297-.03.594-.052a24 24 0 0 1 2.077-.08c4.764.056 9.687.977 14.44 4.493-5.624-4.67-11.583-6.966-18.792-6.844z"/></svg>