<svg width="64" height="64" version="1.1" xmlns="http://www.w3.org/2000/svg">
 <path d="m32.001 5.75c-3.3969 0-8.3921 0.89531-13 3.0608-0.27981 0.13148-0.5634 0.25115-0.83987 0.39221-1.1728 0.59848-2.3094 1.2836-3.3797 2.0636-0.0308 0.02229-0.06036 0.04659-0.09107 0.0692-0.16476 0.12115-0.32692 0.24327-0.48824 0.36914-0.08967 0.06996-0.17457 0.14638-0.26309 0.21791-0.18341 0.14782-0.36305 0.29978-0.54136 0.45374-0.07785 0.06737-0.16093 0.12899-0.23779 0.1974-0.02426 0.02167-0.04921 0.04239-0.07336 0.06408-0.09321 0.0838-0.17905 0.17594-0.27068 0.26148-0.1685 0.15734-0.33297 0.31858-0.49583 0.48193-0.17388 0.1743-0.34398 0.35194-0.511 0.5332-0.16998 0.18461-0.33593 0.37208-0.49835 0.56397-0.07594 0.08971-0.15854 0.17272-0.23273 0.26404-0.0672 0.08272-0.13157 0.16974-0.19732 0.25377-0.03107 0.0397-0.05773 0.08312-0.08854 0.12305-0.12013 0.15635-0.23668 0.31585-0.35163 0.4768-0.07823 0.10861-0.16244 0.21194-0.23779 0.32301-0.13777 0.20304-0.27046 0.4076-0.3997 0.6178v0.0026h-0.00259c-0.25847 0.4204-0.49914 0.8553-0.72097 1.3048-0.18973 0.38447-0.36046 0.78064-0.52112 1.1869-0.02716 0.06871-0.057169 0.13571-0.083475 0.20508-0.090808 0.2394-0.17782 0.48362-0.25803 0.73059-0.056368 0.17354-0.10588 0.35076-0.15684 0.52808-0.021665 0.07531-0.047649 0.14959-0.068296 0.22559-0.33333 1.2268-0.54013 2.54-0.58942 3.9503-0.050761 1.4588 0.085395 2.9716 0.37187 4.5092 1.4495 7.7866 6.8341 16.241 12.277 21.892 2.2054 2.2902 6.1642 5.8957 10.005 6.9009 0.40361 0.1057 0.80289 0.18767 1.2016 0.23072 0.24895 0.02695 0.49825 0.04613 0.74374 0.04613 4.385 0 9.3712-4.4966 11.953-7.1777 5.2372-5.4383 10.42-13.473 12.095-21.01 0.19327-0.87057 0.34094-1.7367 0.43511-2.5891 0.10493-0.9503 0.14858-1.8863 0.11634-2.8019-0.49827-14.296-16.788-18.921-24.599-18.921zm-1.9049 8.9517c0.75832-0.01281 1.4961 0.01214 2.2262 0.05641-0.72961-0.04413-1.4683-0.06923-2.2262-0.05641zm0 0c-0.71348 0.01214-1.4424 0.05516-2.1831 0.11793 0.7396-0.06251 1.4706-0.10585 2.1831-0.11793zm2.8257 0.10254c0.55746 0.0462 1.1071 0.11222 1.6494 0.19225-0.54275-0.08009-1.0914-0.14605-1.6494-0.19225zm-5.5856 0.07691c-0.55264 0.05598-1.1136 0.124-1.6823 0.20764 0.5695-0.08367 1.1289-0.15169 1.6823-0.20764zm7.8092 0.19996c0.67613 0.11573 1.3438 0.25374 1.9985 0.42298-0.65496-0.16935-1.3221-0.30716-1.9985-0.42298zm-10.228 0.12305c-0.5707 0.09466-1.1503 0.2037-1.7379 0.32557 0.58704-0.1217 1.1678-0.23107 1.7379-0.32557zm12.679 0.43066c0.52038 0.14542 1.0349 0.30742 1.5431 0.48706-0.50799-0.17955-1.023-0.34166-1.5431-0.48706zm-15.049 0.02296c-0.74062 0.1642-1.4955 0.34976-2.2641 0.55628 0.76907-0.20665 1.5232-0.3921 2.2641-0.55628zm17.235 0.70239c0.52767 0.20344 1.0497 0.42559 1.5659 0.66651-0.51659-0.24116-1.0378-0.46287-1.5659-0.6665zm1.8897 0.81006c0.62512 0.3025 1.2411 0.63682 1.8518 0.99463-0.61077-0.35794-1.2265-0.69201-1.8518-0.99462zm2.3577 1.3074c0.45441 0.27933 0.90559 0.57414 1.3534 0.8844-0.44773-0.31024-0.89908-0.60507-1.3534-0.8844zm1.9251 1.2843c0.58976 0.42834 1.1772 0.87363 1.7582 1.3561-0.58109-0.48256-1.1683-0.92763-1.7582-1.3561zm-19.011 6.6163c0.6636 0.73899 1.3196 1.4727 1.9352 2.2174-0.61719-0.74658-1.27-1.4766-1.9352-2.2174zm2.2742 2.6327c0.21473 0.26824 0.42047 0.54452 0.62484 0.82031-0.20449-0.27589-0.41039-0.5516-0.62484-0.82031zm1.0094 1.3484c0.20002 0.28655 0.3879 0.58524 0.57425 0.8844-0.18661-0.29951-0.37393-0.5975-0.57425-0.8844zm0.90817 1.4202c0.28084 0.48802 0.5465 0.99158 0.78421 1.5253-0.23773-0.53369-0.50334-1.0372-0.78421-1.5253zm0.81963 1.6227c0.22139 0.50555 0.42317 1.0351 0.59954 1.5919-0.1763-0.55644-0.37828-1.0867-0.59954-1.5919zm0.75892 2.1995c0.11288 0.40884 0.22208 0.82328 0.30863 1.2638-0.08662-0.4407-0.1953-0.85528-0.30863-1.2638zm0.55148 2.8096c0.0092 0.08046 0.01704 0.16457 0.02527 0.24609-0.0082-0.08152-0.01607-0.16576-0.02527-0.24609zm0.09614 3.9862c-0.02656 0.57354-0.07753 1.18-0.13912 1.7996 0.06175-0.62005 0.11252-1.2256 0.13912-1.7996zm-0.24032 2.7993c-0.08803 0.69948-0.21344 1.4449-0.34657 2.2046 0.13299-0.7588 0.25846-1.5058 0.34657-2.2046zm-0.511 3.1813c-0.21643 1.1103-0.47196 2.273-0.78674 3.5171 0.31487-1.2444 0.57027-2.4063 0.78674-3.5171z" fill="#465051" stroke="#000" stroke-opacity=".25" stroke-width="0"/>
 <path d="m34.321 15.9c-1.5762-0.01855-3.1607 0.12103-4.7707 0.41836-8.82e-4 1.65e-4 -0.0018-1.64e-4 -0.0028 0-2.6825 0.49565-5.4335 1.4301-8.3191 2.8027 0.39508 0.65554 0.80359 1.2751 1.2224 1.8648 0.41878 0.58977 0.84868 1.1481 1.2817 1.6871 3.0317 3.7739 6.2962 6.4862 8.1814 10.719 3.33e-4 7.53e-4 -3.36e-4 2e-3 0 0.0028 0.9419 2.1155 1.5391 4.6105 1.5893 7.8066 1e-5 9.38e-4 -1.8e-5 0.0018 0 0.0028 0.05029 3.1974-0.44619 7.0945-1.6919 12.018-0.50287 1.9882-1.1256 4.14-1.8862 6.4832 0.43051 0.11274 0.85641 0.20016 1.2817 0.24608 0.26558 0.0287 0.53157 0.04907 0.79342 0.04907 4.6774 0 9.9959-4.7963 12.75-7.6563 5.5863-5.8008 11.115-14.371 12.901-22.411-2.961-3.859-5.2879-6.8741-8.8911-9.5402-4.7523-3.5163-9.6753-4.437-14.439-4.4926z" fill="#e45e3e" stroke="#000" stroke-opacity=".25" stroke-width="0"/>
 <path d="m6.3908 19.968c-0.35555 1.3086-0.57679 2.7092-0.62937 4.2136-0.054138 1.556 0.08994 3.1699 0.39552 4.81 4.3016-3.4097 8.2325-6.1515 11.918-8.2293-0.81106-1.282-1.5929-2.7504-2.3243-4.4766-9.9e-5 -3.64e-4 -7.8083-1.7139-9.3602 3.6824z" fill="#519c26" stroke="#000" stroke-opacity=".25" stroke-width="0"/>
 <path d="m58.239 24.182c-0.53151-15.249-17.907-20.182-26.239-20.182-3.8434 0-9.6109 1.0539-14.762 3.6826-1.2509 0.63838-2.4628 1.3707-3.6045 2.2028-3.3426 2.4356-6.06 5.7324-7.2422 10.083 3.3275-1.4835 6.4411-2.7159 9.3605-3.6836 1.2067-0.40036 2.3801-0.75426 3.5248-1.0664 12.415-3.3882 21.305-1.6181 29.484 5.1739 3.0126 2.5019 5.9304 5.6807 8.8914 9.5397 0.20615-0.9286 0.36232-1.8504 0.46279-2.7597 0.11193-1.0137 0.15928-2.0133 0.12495-2.9899z" fill="#2194cd" stroke="#000" stroke-opacity=".25" stroke-width="0"/>
 <path d="m18.075 20.762c-3.6859 2.0778-7.6167 4.8197-11.918 8.2293 1.5461 8.3058 7.2892 17.324 13.095 23.352 2.3525 2.4429 6.5759 6.2896 10.673 7.3618 0.76042-2.3428 1.3843-4.494 1.8871-6.4819 8.4e-5 -3.32e-4 -8e-5 -5.21e-4 0-1e-3v-1e-3c0.04603-0.74967 0.08201-1.4735 0.10878-2.1736v-1e-3c0.02695-0.69999 0.04463-1.3761 0.05289-2.0288v-1e-3c0.0084-0.65266 0.0074-1.2824-0.0021-1.8901v-1e-3c-0.0189-1.2157-0.07287-2.3438-0.15862-3.3939v-1e-3c-0.04284-0.52482-0.09408-1.03-0.15253-1.517v-1e-3c-0.11694-0.97417-0.26432-1.8751-0.43924-2.7119-0.78729-3.7664-2.1329-6.2362-3.7691-8.2671v-1e-3c-0.18182-0.22568-0.36751-0.44564-0.55616-0.66165-0.3773-0.43202-0.767-0.84646-1.1672-1.254-0.80045-0.81501-1.6411-1.6005-2.4982-2.4305-0.42869-0.41517-0.86126-0.84144-1.2953-1.2886-0.21663-0.22316-0.43384-0.45147-0.65072-0.68612l-1e-3 -1e-3c-0.65164-0.70549-1.3023-1.4675-1.943-2.3187-0.42715-0.5675-0.84984-1.174-1.2648-1.83z" fill="#65c32f" stroke="#000" stroke-opacity=".25" stroke-width="0"/>
 <path d="m13.633 9.8858c-0.20891 0.15222-0.41539 0.30692-0.6192 0.46591-0.37994 0.29642-0.75031 0.6063-1.1103 0.92672-0.02586 0.0231-0.05252 0.04515-0.07829 0.06832-3.56e-4 3.18e-4 -6.76e-4 5.21e-4 -1e-3 1e-3 -0.76864 0.69106-1.4883 1.4378-2.1433 2.2439-1.627e-4 1.96e-4 1.638e-4 1e-3 0 1e-3 -0.07168 0.08824-0.14033 0.17952-0.21047 0.26915-0.25028 0.3199-0.49344 0.64664-0.72291 0.98483-0.14696 0.21658-0.28918 0.43642-0.42703 0.66063-1.498e-4 2.45e-4 1.502e-4 5.21e-4 0 1e-3 -0.27553 0.44819-0.53319 0.9124-0.76968 1.3916-0.20238 0.41011-0.3858 0.8339-0.55718 1.2672-0.02898 0.07329-0.061408 0.1442-0.089474 0.21816-1.123e-4 3.01e-4 1.12e-4 5.25e-4 0 1e-3 -0.096863 0.25536-0.18794 0.51445-0.2735 0.77788-0.060127 0.18512-0.11442 0.37464-0.16878 0.56378-0.0231 0.08032-0.049147 0.15852-0.071173 0.23958-8.64e-5 3.19e-4 8.58e-5 5.22e-4 0 1e-3 3.3275-1.4835 6.4408-2.7157 9.3602-3.6834-0.77087-1.8194-1.4855-3.9261-2.1179-6.3994z" fill="#465051" stroke="#000" stroke-opacity=".25" stroke-width="0"/>
 <path d="m18.133 7.2648c-0.29846 0.14025-0.60096 0.26789-0.89586 0.41836-1.2509 0.63838-2.4634 1.3691-3.605 2.2012-0.03332 0.02415-0.06416 0.051835-0.09714 0.076545 0.03283-0.02415 0.06417-0.049805 0.09714-0.073815 0.63244 2.4732 1.3473 4.5791 2.1182 6.3984 1.2067-0.40036 2.3793-0.75426 3.5241-1.0664 0.07689-0.021 0.15005-0.03682 0.22666-0.05743-0.84891-2.5105-1.2943-5.1442-1.3681-7.8969z" opacity=".2" stroke="#000" stroke-opacity=".25" stroke-width="0"/>
 <path d="m29.968 13.548c-3.2771 0.05551-6.814 0.6119-10.694 1.6707-1.1447 0.31213-2.3174 0.66605-3.5241 1.0664 0.73141 1.7262 1.5149 3.1942 2.326 4.4762 0.415 0.65599 0.83568 1.2618 1.2628 1.8293 0.64073 0.85125 1.2912 1.6137 1.9428 2.3188h0.0028c0.21688 0.23468 0.43367 0.46317 0.65031 0.68633 0.43408 0.4472 0.86652 0.87545 1.2952 1.2906 0.85705 0.83002 1.6982 1.6131 2.4987 2.4281 0.40023 0.40752 0.78838 0.82306 1.1657 1.2551 0.18865 0.21602 0.37404 0.43605 0.55586 0.66172 1.6362 2.0309 2.9823 4.5024 3.7696 8.2688 0.1749 0.83677 0.32291 1.7383 0.43983 2.7125 0.05845 0.48696 0.11098 0.99276 0.15382 1.5176 0.08575 1.0501 0.13752 2.1776 0.15652 3.3934v0.0028c0.0094 0.60774 0.0112 1.2368 0.0028 1.8895-0.0084 0.65272-0.0273 1.3289-0.05397 2.0289v0.0028c-0.02695 0.70003-0.06192 1.4242-0.10794 2.1738 0.33635-1.3292 0.60808-2.5708 0.83919-3.757 0.07039-0.36124 0.11431-0.6876 0.17539-1.0363 0.14217-0.81122 0.27566-1.6102 0.36968-2.357 0.04603-0.36616 0.07298-0.70944 0.10794-1.0609 0.06587-0.66139 0.12002-1.3073 0.1484-1.9195 0.02975-0.64462 0.06055-1.2898 0.05128-1.884-1.4e-5 -8.86e-4 1.4e-5 -0.0018 0-0.0028v-0.0028c-0.01155-0.73743-0.05947-1.4278-0.12684-2.0945-0.0091-0.08862-0.01715-0.18053-0.02695-0.26796-0.06493-0.57423-0.15572-1.1166-0.25904-1.6434-0.09597-0.48914-0.21364-0.95011-0.33999-1.4027-0.05411-0.1939-0.09716-0.40012-0.15652-0.58789-0.1889-0.59754-0.40474-1.1667-0.64221-1.709-0.014-0.0322-0.02345-0.06912-0.03777-0.10118v-0.0028c-0.25358-0.56927-0.5369-1.1064-0.8365-1.627-0.11291-0.19621-0.23751-0.38097-0.35618-0.57148-0.19901-0.31948-0.39886-0.63734-0.61253-0.94336-0.13307-0.19064-0.27202-0.37686-0.41015-0.56328-0.22698-0.30622-0.45458-0.613-0.69348-0.91055-0.107-0.13328-0.21742-0.26446-0.32652-0.39648-0.66085-0.79993-1.3596-1.5826-2.0723-2.3762-0.23058-0.25676-0.44961-0.51576-0.68269-0.77656-0.72955-0.81628-1.4662-1.649-2.1911-2.5512-4.41e-4 -5.49e-4 4.41e-4 -0.0022 0-0.0028-0.43307-0.53902-0.86297-1.0973-1.2817-1.6871-0.41877-0.58975-0.82728-1.2093-1.2224-1.8648 0.66773-0.31766 1.3266-0.60434 1.9806-0.875 0.1701-0.07038 0.33804-0.13514 0.50729-0.20234 0.4832-0.19191 0.96422-0.37268 1.4409-0.53867 0.20643-0.07189 0.41262-0.14077 0.61793-0.2078 0.44578-0.14553 0.88939-0.27657 1.3303-0.39922 0.19978-0.05558 0.40018-0.11592 0.59904-0.16681 0.5925-0.15158 1.1821-0.28658 1.7674-0.39648 0.02485-0.0046 0.05058-0.0119 0.07557-0.01645h0.0028c0.70523-0.13024 1.4022-0.21746 2.0993-0.28711 0.19796-0.01995 0.3962-0.03703 0.59364-0.05194 0.69442-0.05236 1.3882-0.08736 2.0777-0.07931 4.7637 0.05558 9.6866 0.97624 14.439 4.4926-5.6229-4.6695-11.582-6.9662-18.791-6.8441z" fill="#fff" stroke="#000" stroke-opacity=".25" stroke-width="0"/>
</svg>
