<svg xmlns="http://www.w3.org/2000/svg" width="64" height="64"><path fill="#465051" d="M32.001 5.75c-3.397 0-8.392.895-13 3.06-.28.132-.563.252-.84.393a25.128 25.128 0 0 0-3.38 2.064l-.09.069c-.165.121-.328.243-.489.369-.09.07-.174.146-.263.218-.183.148-.363.3-.541.454-.078.067-.161.129-.238.197-.024.022-.05.042-.073.064-.094.084-.18.176-.271.262a19.34 19.34 0 0 0-1.505 1.579c-.076.09-.159.172-.233.264-.067.082-.132.17-.197.253-.031.04-.058.084-.089.124-.12.156-.237.315-.352.476-.078.109-.162.212-.237.323-.138.203-.27.408-.4.618v.003H9.8c-.258.42-.499.855-.72 1.305-.19.384-.361.78-.522 1.186-.027.07-.057.136-.083.206-.091.239-.178.483-.258.73-.057.174-.106.35-.157.528-.022.075-.048.15-.068.226a17.31 17.31 0 0 0-.59 3.95c-.05 1.459.086 2.972.372 4.51 1.45 7.786 6.834 16.24 12.277 21.891 2.205 2.29 6.164 5.896 10.005 6.901.404.106.803.188 1.202.23.249.028.498.047.743.047 4.385 0 9.372-4.497 11.953-7.178 5.238-5.438 10.42-13.473 12.095-21.01.194-.87.341-1.736.436-2.589.104-.95.148-1.886.116-2.802-.498-14.296-16.788-18.92-24.6-18.92zm-1.905 8.952zm0 0zm2.826.102zm-5.586.077zm7.81.2zm-10.229.123zm12.68.43zm-15.05.024zm17.235.702zm1.89.81zm2.358 1.308zm1.925 1.284zm-19.011 6.616zm2.274 2.633zm1.01 1.348zm.908 1.42zm.82 1.623zm.758 2.2zm.552 2.81.025.245-.025-.246zm.096 3.986zm-.24 2.799zm-.511 3.181z"/><path fill="#e45e3e" d="M34.321 15.9a24.581 24.581 0 0 0-4.77.418h-.003c-2.683.496-5.434 1.43-8.32 2.803a29.63 29.63 0 0 0 1.223 1.865c.419.59.848 1.148 1.282 1.687 3.031 3.774 6.296 6.486 8.18 10.719v.003c.943 2.115 1.54 4.61 1.59 7.806v.003c.05 3.198-.446 7.095-1.692 12.018a102.285 102.285 0 0 1-1.886 6.483c.43.113.857.2 1.282.246.265.03.531.05.793.05 4.678 0 9.996-4.797 12.75-7.657 5.587-5.8 11.115-14.37 12.901-22.41-2.96-3.86-5.288-6.875-8.89-9.541-4.753-3.516-9.676-4.437-14.44-4.493z"/><path fill="#519c26" d="M6.39 19.968a18.463 18.463 0 0 0-.629 4.214c-.054 1.556.09 3.17.396 4.81 4.302-3.41 8.232-6.152 11.918-8.23a30.76 30.76 0 0 1-2.324-4.476s-7.809-1.714-9.36 3.682z"/><path fill="#2194cd" d="M58.239 24.182C57.707 8.933 40.332 4 32 4c-3.843 0-9.61 1.054-14.762 3.683a26.807 26.807 0 0 0-3.605 2.202c-3.342 2.436-6.06 5.733-7.242 10.083 3.328-1.483 6.441-2.715 9.36-3.683 1.207-.4 2.38-.754 3.526-1.067C31.692 11.83 40.582 13.6 48.76 20.392c3.012 2.502 5.93 5.681 8.891 9.54.206-.929.362-1.85.463-2.76a20.67 20.67 0 0 0 .125-2.99z"/><path fill="#65c32f" d="M18.075 20.762c-3.686 2.078-7.617 4.82-11.918 8.23 1.546 8.305 7.29 17.323 13.095 23.351 2.353 2.443 6.576 6.29 10.673 7.362a102.36 102.36 0 0 0 1.887-6.482v-.002c.046-.75.082-1.473.109-2.173v-.001c.027-.7.045-1.376.053-2.03.008-.653.007-1.283-.002-1.89v-.001a51.592 51.592 0 0 0-.159-3.394v-.001a40.107 40.107 0 0 0-.152-1.517v-.001a31.743 31.743 0 0 0-.44-2.712c-.787-3.766-2.133-6.236-3.769-8.267v-.001a21.75 21.75 0 0 0-.556-.662 29.26 29.26 0 0 0-1.167-1.254c-.8-.815-1.641-1.6-2.498-2.43a58.855 58.855 0 0 1-1.296-1.289 38.583 38.583 0 0 1-.65-.686l-.001-.001a29.915 29.915 0 0 1-1.943-2.319 27.333 27.333 0 0 1-1.265-1.83z"/><path fill="#465051" d="M13.633 9.886a22.345 22.345 0 0 0-1.73 1.393l-.078.068a19.887 19.887 0 0 0-2.144 2.245c-.072.089-.14.18-.21.27a17.493 17.493 0 0 0-1.15 1.645v.001c-.276.448-.534.913-.77 1.392-.203.41-.386.834-.557 1.267-.03.073-.062.144-.09.218v.001c-.097.256-.188.515-.273.778-.06.185-.115.375-.17.564-.022.08-.048.158-.07.24 3.327-1.483 6.44-2.715 9.36-3.683-.771-1.82-1.486-3.926-2.118-6.4z"/><path d="M18.133 7.265c-.298.14-.601.268-.896.418a26.795 26.795 0 0 0-3.605 2.201l-.097.077.097-.074c.633 2.473 1.347 4.58 2.118 6.398 1.207-.4 2.38-.754 3.524-1.066l.227-.057c-.849-2.51-1.294-5.145-1.368-7.897z" opacity=".2"/><path fill="#fff" d="M29.968 13.548c-3.277.056-6.814.612-10.694 1.67a67.963 67.963 0 0 0-3.524 1.067 30.75 30.75 0 0 0 2.326 4.476c.415.656.836 1.262 1.263 1.83.64.85 1.29 1.613 1.943 2.318h.002c.217.235.434.464.65.687.435.447.867.875 1.296 1.29.857.83 1.698 1.613 2.499 2.428.4.408.788.823 1.165 1.256.189.216.374.436.556.661 1.636 2.031 2.982 4.503 3.77 8.269.175.837.323 1.738.44 2.713.058.487.11.992.153 1.517.086 1.05.138 2.178.157 3.394v.002c.01.608.011 1.237.003 1.89a80.72 80.72 0 0 1-.054 2.029v.003c-.027.7-.062 1.424-.108 2.173.336-1.329.608-2.57.839-3.757.07-.36.114-.687.175-1.036.142-.811.276-1.61.37-2.357.046-.366.073-.71.108-1.06.066-.662.12-1.308.148-1.92.03-.645.06-1.29.052-1.884V41.2a24.461 24.461 0 0 0-.127-2.094c-.01-.09-.017-.181-.027-.268a20.365 20.365 0 0 0-.26-1.644c-.095-.489-.213-.95-.34-1.403-.053-.193-.096-.4-.156-.587a17.129 17.129 0 0 0-.642-1.71c-.014-.032-.023-.069-.038-.1v-.003a17.668 17.668 0 0 0-.836-1.627c-.113-.197-.238-.381-.356-.572-.2-.32-.4-.637-.613-.943-.133-.19-.272-.377-.41-.563a29.636 29.636 0 0 0-.694-.911c-.107-.133-.217-.265-.326-.397-.66-.8-1.36-1.582-2.072-2.376-.23-.256-.45-.515-.683-.776a63.35 63.35 0 0 1-2.191-2.551v-.003a35.515 35.515 0 0 1-1.282-1.687c-.419-.59-.827-1.21-1.222-1.865a41.74 41.74 0 0 1 1.98-.875c.17-.07.338-.135.508-.203a35.863 35.863 0 0 1 2.058-.746c.446-.146.89-.277 1.33-.4.2-.055.4-.115.6-.166a27.981 27.981 0 0 1 1.767-.397c.025-.004.05-.011.076-.016h.003c.705-.13 1.402-.217 2.099-.287.198-.02.396-.037.594-.052a23.957 23.957 0 0 1 2.077-.08c4.764.056 9.687.977 14.44 4.493-5.624-4.67-11.583-6.966-18.792-6.844z"/></svg>