<svg xmlns="http://www.w3.org/2000/svg" width="64" height="64" viewBox="0 0 16.933 16.933"><g color="#000" paint-order="fill markers stroke"><path style="isolation:auto;mix-blend-mode:normal;marker:none" d="M1.587 1.587H14.29L14.288 12.7 12.7 14.287l-11.112.001z" display="block" overflow="visible" fill="#2268ab"/><path style="isolation:auto;mix-blend-mode:normal;marker:none" d="M5.82 5.82h4.234v4.234H5.821z" display="block" overflow="visible" fill="#3d8dd8"/><path style="isolation:auto;mix-blend-mode:normal;marker:none" d="M5.82 1.587h4.234v4.234H5.821z" display="block" overflow="visible" fill="#2777c4"/><path style="isolation:auto;mix-blend-mode:normal;marker:none" d="M1.587 1.587h4.234v4.234H1.587z" display="block" overflow="visible" fill="#1f609e"/><path style="isolation:auto;mix-blend-mode:normal;marker:none" d="M1.587 5.82h4.234v4.234H1.587z" display="block" overflow="visible" fill="#3b83c8"/><path style="isolation:auto;mix-blend-mode:normal;marker:none" d="M10.054 5.82h4.232v4.234h-4.232z" display="block" overflow="visible" fill="#63a3e0"/><path style="isolation:auto;mix-blend-mode:normal;marker:none" d="M10.054 1.587h4.232v4.234h-4.232z" display="block" overflow="visible" fill="#3b8bd8"/><path style="isolation:auto;mix-blend-mode:normal;marker:none" d="M5.82 10.054h4.234v4.232H5.821z" display="block" overflow="visible" fill="#61a2e0"/><path style="isolation:auto;mix-blend-mode:normal;marker:none" d="M1.587 10.054h4.234v4.232H1.587z" display="block" overflow="visible" fill="#4893db"/><g><path d="M10.737 6.128a4.609 4.609 0 0 0-.15.005c-.01-.001-.017-.005-.026-.005H6.317a.184.184 0 0 0-.184.184v4.317a4.609 4.609 0 0 0-.005.108 4.609 4.609 0 0 0 4.609 4.609 4.609 4.609 0 0 0 4.609-4.61 4.609 4.609 0 0 0-4.61-4.608z" style="isolation:auto;mix-blend-mode:normal;marker:none" overflow="visible" fill-opacity=".152"/><path d="M10.737 6.328a4.41 4.41 0 0 0-.144.005c-.008-.001-.015-.005-.024-.005H6.507a.176.176 0 0 0-.176.175v4.13a4.41 4.41 0 0 0-.005.104 4.41 4.41 0 0 0 4.41 4.41 4.41 4.41 0 0 0 4.41-4.41 4.41 4.41 0 0 0-4.41-4.41z" style="isolation:auto;mix-blend-mode:normal;marker:none" overflow="visible" fill="#fff"/><path d="M13.004 10.737a2.267 2.267 0 0 1-2.268 2.268 2.267 2.267 0 0 1-2.267-2.268 2.267 2.267 0 0 1 2.268-2.267 2.267 2.267 0 0 1 2.267 2.267z" style="isolation:auto;mix-blend-mode:normal;marker:none" overflow="visible" fill="#5299dc"/><path d="M10.648 9.855v.794h-.794v.265h.794l.017.793h.248v-.793h.793l.017-.265h-.81v-.794z" style="isolation:auto;mix-blend-mode:normal;marker:none" overflow="visible" fill="#fff"/></g></g></svg>