<svg width="64" height="64" version="1.1" viewBox="0 0 16.933 16.933" xmlns="http://www.w3.org/2000/svg">
 <path d="m3.1749 1.5875c-0.87946 1e-7 -1.5875 0.70801-1.5875 1.5875v4.7624l5.168e-4 4.7779c0.00828 0.87224 0.71268 1.572 1.587 1.572h9.5248l1.5875-1.5864v-1e-3 -9.5248c0-0.87946-0.70801-1.5875-1.5875-1.5875z" color="#000000" fill="#2268ab" style="isolation:auto;mix-blend-mode:normal;paint-order:fill markers stroke"/>
 <path d="m5.82 5.82h4.234v4.234h-4.233z" color="#000000" display="block" fill="#3d8dd8" overflow="visible" style="isolation:auto;mix-blend-mode:normal;paint-order:fill markers stroke"/>
 <path d="m5.82 1.587h4.234v4.234h-4.233z" color="#000000" display="block" fill="#2777c4" overflow="visible" style="isolation:auto;mix-blend-mode:normal;paint-order:fill markers stroke"/>
 <path d="m3.1749 1.5875c-0.87946 1e-7 -1.5875 0.70801-1.5875 1.5875v2.6463h4.2338v-4.2338z" color="#000000" fill="#1f609e" style="isolation:auto;mix-blend-mode:normal;paint-order:fill markers stroke"/>
 <path d="m1.587 5.82h4.234v4.234h-4.234z" color="#000000" display="block" fill="#3b83c8" overflow="visible" style="isolation:auto;mix-blend-mode:normal;paint-order:fill markers stroke"/>
 <path d="m10.054 5.82h4.232v4.234h-4.232z" color="#000000" display="block" fill="#63a3e0" overflow="visible" style="isolation:auto;mix-blend-mode:normal;paint-order:fill markers stroke"/>
 <path d="m10.054 1.5875v4.2338h4.2322v-2.6876c-0.021784-0.86019-0.72081-1.5461-1.5864-1.5461z" color="#000000" fill="#3b8bd8" style="isolation:auto;mix-blend-mode:normal;paint-order:fill markers stroke"/>
 <path d="m5.82 10.054h4.234v4.232h-4.233z" color="#000000" display="block" fill="#61a2e0" overflow="visible" style="isolation:auto;mix-blend-mode:normal;paint-order:fill markers stroke"/>
 <path d="m1.5875 10.054v2.6458c1e-7 0.86563 0.68594 1.5647 1.5461 1.5864h2.6876v-4.2322h-4.2338z" color="#000000" fill="#4893db" style="isolation:auto;mix-blend-mode:normal;paint-order:fill markers stroke"/>
 <path d="m10.737 6.128a4.609 4.609 0 0 0-0.15 5e-3c-0.01-1e-3 -0.017-5e-3 -0.026-5e-3h-4.244a0.184 0.184 0 0 0-0.184 0.184v4.317a4.609 4.609 0 0 0-5e-3 0.108 4.609 4.609 0 0 0 4.609 4.609 4.609 4.609 0 0 0 4.609-4.61 4.609 4.609 0 0 0-4.61-4.608z" color="#000000" fill-opacity=".152" overflow="visible" style="isolation:auto;mix-blend-mode:normal;paint-order:fill markers stroke"/>
 <path d="m10.737 6.328a4.41 4.41 0 0 0-0.144 5e-3c-8e-3 -1e-3 -0.015-5e-3 -0.024-5e-3h-4.062a0.176 0.176 0 0 0-0.176 0.175v4.13a4.41 4.41 0 0 0-5e-3 0.104 4.41 4.41 0 0 0 4.41 4.41 4.41 4.41 0 0 0 4.41-4.41 4.41 4.41 0 0 0-4.41-4.41z" color="#000000" fill="#ffffff" overflow="visible" style="isolation:auto;mix-blend-mode:normal;paint-order:fill markers stroke"/>
 <path d="m13.004 10.737a2.267 2.267 0 0 1-2.268 2.268 2.267 2.267 0 0 1-2.267-2.268 2.267 2.267 0 0 1 2.268-2.267 2.267 2.267 0 0 1 2.267 2.267z" color="#000000" fill="#5299dc" overflow="visible" style="isolation:auto;mix-blend-mode:normal;paint-order:fill markers stroke"/>
 <path d="m10.648 9.855v0.794h-0.794v0.265h0.794l0.017 0.793h0.248v-0.793h0.793l0.017-0.265h-0.81v-0.794z" color="#000000" fill="#ffffff" overflow="visible" style="isolation:auto;mix-blend-mode:normal;paint-order:fill markers stroke"/>
</svg>
