<svg width="64" height="64" version="1.1" viewBox="0 0 16.933 16.933" xmlns="http://www.w3.org/2000/svg">
 <rect x="1.5875" y="1.5875" width="13.758" height="13.758" rx="2.1166" ry="2.1166" fill="#ffcc00" fill-rule="evenodd" stroke-width=".25015"/>
 <path d="m9.257 8.725a0.682 0.682 0 0 1-0.694 0.669c-0.425 0-0.659-0.373-0.697-0.718-0.072-0.66 0.286-1.019 0.598-1.203a1.84 1.84 0 0 1 0.412-0.176s0.338 1.034 0.364 1.194c0.029 0.177 0.016 0.234 0.016 0.234m1.658-2.073a2.713 2.713 0 0 0-1.301-0.385l-0.106-0.371 4e-3 4e-3 -0.012-0.033-0.03-0.11c-0.072-0.318 0.058-0.469 0.125-0.523l0.036-0.025c0.308-0.197 0.744 0.118 0.769 0.137 0.194 0.18 0.549 0.225 0.74 0.04 0.194-0.186 0.148-0.535-0.045-0.721-0.301-0.29-1.227-0.756-2.014-0.25-0.707 0.454-0.722 1.093-0.605 1.462l0.141 0.5a2.78 2.78 0 0 0-0.67 0.282c-0.775 0.457-1.163 1.23-1.066 2.116 0.1 0.911 0.807 1.573 1.682 1.573 0.93 0 1.686-0.728 1.686-1.623-0.013-0.213-0.01-0.211-0.04-0.402-0.03-0.186-0.315-1.062-0.315-1.062 0.176 0.04 0.34 0.103 0.481 0.191 1.598 1 0.933 2.593 0.903 2.662-0.44 1.017-1.4 1.625-2.633 1.666a3.016 3.016 0 0 1-2.168-0.814 3.074 3.074 0 0 1-0.986-2.24c0-1.267 0.826-2.417 2.057-2.861 0.257-0.093 0.463-0.357 0.322-0.663-0.112-0.24-0.414-0.324-0.67-0.23-1.616 0.583-2.701 2.092-2.701 3.753 0 1.099 0.47 2.166 1.29 2.928a4.02 4.02 0 0 0 2.892 1.081c1.614-0.054 2.927-0.896 3.512-2.248 0.365-0.821 0.569-2.68-1.277-3.834" fill="#ffffff"/>
</svg>
