<svg xmlns="http://www.w3.org/2000/svg" width="64" height="64"><path fill="#c4c7cc" d="M25.9 43.834c-.52 0-.9.378-.9.834v10.955L20.922 56H20.9c-.52 0-.9.378-.9.834V58h24v-1.166c0-.456-.381-.834-.9-.834h-.024L39 55.623V44.668c0-.456-.38-.834-.9-.834z"/><rect width="60" height="40" x="2" y="6" fill="#2f3337" rx="6" ry="6"/><rect width="54" height="34" x="5" y="9" fill="#5294e2" rx="3" ry="3"/><path d="M8 9c-1.662 0-3 1.338-3 3v28c0 1.662 1.338 3 3 3h24V9z" opacity=".15"/><path fill="#fff" d="M45.75 18a.25.25 0 0 0-.25.25v1.5c0 .139.112.25.25.25h.5a.25.25 0 0 0 .25-.25v-1.5a.25.25 0 0 0-.25-.25zm-4.699 1.947a.25.25 0 0 0-.178.073l-.353.353a.25.25 0 0 0 0 .354l1.06 1.06a.25.25 0 0 0 .354 0l.353-.353a.25.25 0 0 0 0-.354l-1.06-1.06a.25.25 0 0 0-.176-.073m9.898 0a.25.25 0 0 0-.175.073l-1.06 1.06a.25.25 0 0 0 0 .354l.353.353a.25.25 0 0 0 .353 0l1.06-1.06a.25.25 0 0 0 0-.354l-.353-.353a.25.25 0 0 0-.178-.073M46 22a3.5 3.5 0 1 0 0 7 3.5 3.5 0 0 0 0-7m-7.25 3a.25.25 0 0 0-.25.25v.5c0 .139.112.25.25.25h1.5a.25.25 0 0 0 .25-.25v-.5a.25.25 0 0 0-.25-.25zm13 0a.25.25 0 0 0-.25.25v.5c0 .139.112.25.25.25h1.5a.25.25 0 0 0 .25-.25v-.5a.25.25 0 0 0-.25-.25zm-9.992 4.139a.25.25 0 0 0-.178.074l-1.06 1.06a.25.25 0 0 0 0 .354l.353.353a.25.25 0 0 0 .354 0l1.06-1.06a.25.25 0 0 0 0-.354l-.353-.353a.25.25 0 0 0-.176-.074m8.484 0a.25.25 0 0 0-.175.074l-.354.353a.25.25 0 0 0 0 .354l1.06 1.06a.25.25 0 0 0 .354 0l.354-.353a.25.25 0 0 0 0-.354l-1.06-1.06a.25.25 0 0 0-.179-.074M45.75 31a.25.25 0 0 0-.25.25v1.5c0 .139.112.25.25.25h.5a.25.25 0 0 0 .25-.25v-1.5a.25.25 0 0 0-.25-.25z" color="#000" overflow="visible" style="isolation:auto;mix-blend-mode:normal"/><path fill="#fff" d="M18.463 18A7.5 7.5 0 0 0 11 25.5a7.5 7.5 0 0 0 7.5 7.5 7.5 7.5 0 0 0 3.834-1.055A7 7 0 0 1 21.5 32a6.5 6.5 0 0 1-6.5-6.5 6.5 6.5 0 0 1 6.5-6.5 7 7 0 0 1 .832.055A7.5 7.5 0 0 0 18.5 18z"/></svg>