<svg width="64" height="64" version="1.1" viewBox="0 0 16.933 16.933" xmlns="http://www.w3.org/2000/svg">
 <rect x="1.587" y="1.587" width="13.758" height="13.758" rx="2.117" ry="2.117" fill="#f2f2f2"/>
 <g transform="translate(0 .265)" opacity=".25" stroke-linecap="round" stroke-linejoin="round" stroke-opacity=".35" stroke-width=".075">
  <rect x="2.381" y="3.969" width="12.171" height=".132" rx="0" ry=".066" opacity=".75"/>
  <rect x="2.381" y="6.085" width="12.171" height=".132" rx="0" ry=".066" opacity=".75"/>
  <rect x="2.381" y="8.202" width="12.171" height=".132" rx="0" ry=".066" opacity=".75"/>
  <rect x="2.381" y="10.054" width="12.171" height=".132" rx="0" ry=".066" opacity=".75"/>
  <rect x="2.381" y="12.171" width="12.171" height=".132" rx="0" ry=".066" opacity=".75"/>
 </g>
 <path d="M4.762 1.587h.132v13.758h-.132z" fill="#da4d45" opacity=".15"/>
 <path d="m4 4.598-.73.87-.395-.332-.265.316.711.597.994-1.185z" fill="#1f9bff" opacity=".2"/>
 <path d="m4 8.63-.73.87-.395-.332-.265.316.711.597.994-1.185z" fill="#1f9bff" opacity=".2"/>
 <path d="m4 10.685-.73.869-.395-.331-.265.315.711.597.994-1.185z" fill="#1f9bff" opacity=".2"/>
 <path d="M11.583 5.131a.52.52 0 0 0-.736.065l-3.356 4-1.6-1.343a.521.521 0 0 0-.735.064l-.671.8a.52.52 0 0 0 .064.736l2.8 2.349a.52.52 0 0 0 .736-.065l4.362-5.199a.52.52 0 0 0-.064-.735z" fill="#1f9bff"/>
</svg>
