<svg xmlns="http://www.w3.org/2000/svg" width="64pt" height="64pt" style="isolation:isolate" viewBox="0 0 64 64"><rect width="52" height="52" x="6" y="6" fill="#deddda" rx="5.5" ry="5.5"/><path fill="none" d="M0 0h512v512H0z"/><path fill="#c0bfbc" d="M43.881 30c-1.706 2.475-2.46 4.17-4.825 4.48-2.362.31-3.527-1.13-5.816-3.078L28.393 34.2c.543 2.95 1.208 4.686-.24 6.575-1.464 1.905-3.346 1.704-6.292 1.938l-1.45 5.407c2.467 1.7 4.17 2.46 4.48 4.825l.001.002c.273 2.07-.829 3.256-2.414 5.054H52.5c3.047 0 5.5-2.454 5.5-5.5v-2.35a4.133 4.133 0 0 1-.48-1.506v-.002c-.134-1.023.059-1.819.48-2.58v-7.734l-.199-.346c-2.955.543-4.686 1.207-6.576-.241v-.002c-1.892-1.449-1.699-3.281-1.939-6.291l-5.405-1.45zm-2.86 13.87a6.926 6.926 0 1 1 .37 13.85 6.926 6.926 0 0 1-.37-13.85z"/><path fill="#9a9996" d="M11.5 6A5.489 5.489 0 0 0 6 11.5v6.077c.68.44 1.206 1.018 1.576 1.913l.002.001c.91 2.2-.175 3.692-1.47 6.413l3.957 3.957c2.715-1.29 4.211-2.376 6.426-1.463l.002.001c2.186.903 2.47 2.719 3.485 5.57l5.597-.002c1.002-2.825 1.295-4.662 3.5-5.575 2.2-.911 3.706.18 6.417 1.469l3.958-3.957c-1.303-2.74-2.378-4.219-1.47-6.413v-.001c.911-2.202 2.737-2.49 5.577-3.501v-5.596c-2.82-1.003-4.663-1.296-5.577-3.502a4.494 4.494 0 0 1-.268-.89H11.501zm11.278.265c1.773 0 3.545.675 4.897 2.027a6.926 6.926 0 1 1-9.794 0 6.902 6.902 0 0 1 4.897-2.027z"/></svg>