<svg width="64" height="64" version="1.1" viewBox="0 0 64 64" xmlns="http://www.w3.org/2000/svg" xmlns:xlink="http://www.w3.org/1999/xlink">
 <linearGradient id="d" x1="-231.1" x2="-227.1" y1="131.8" y2="131.8" gradientTransform="matrix(-.50069 4.8338e-8 4.8338e-8 .50069 -104.85 -27.439)" gradientUnits="userSpaceOnUse">
  <stop stop-color="#9a9996" offset="0"/>
  <stop stop-color="#f6f5f4" offset="1"/>
 </linearGradient>
 <linearGradient id="e" x1="-221.1" x2="-237.1" y1="92.796" y2="92.796" gradientTransform="matrix(-.50069 4.8338e-8 4.8338e-8 .50069 -104.85 -27.439)" gradientUnits="userSpaceOnUse">
  <stop stop-color="#02ab90" offset="0"/>
  <stop stop-color="#09635f" offset="1"/>
 </linearGradient>
 <linearGradient id="g" x1="-221.1" x2="-237.1" y1="92.796" y2="92.796" gradientTransform="matrix(-.50069 4.8338e-8 -4.1536e-8 .25038 -104.85 -4.2114)" gradientUnits="userSpaceOnUse">
  <stop stop-color="#f6f5f4" offset="0"/>
  <stop stop-color="#9a9996" offset="1"/>
 </linearGradient>
 <g transform="matrix(.99846 0 0 .99863 -.84452 .0027433)" stroke-width=".50068">
  <path d="m15.867 5.0026-3.0045 0.0012c-0.10532-1.277e-4 -0.2042 0.016243-0.29764 0.04533-0.40779 0.12546-0.70264 0.50616-0.70361 0.95593 7.88e-4 0.55458 0.44668 1.002 1.0013 1.0013l4.005-6.1e-6 0.0012-1.0006c-7.93e-4 -0.55458-0.44668-1.002-1.0018-1.0031z" fill="#c0bfbc"/>
  <path d="m9.859 37.047c-0.55269 2.83e-4 -1.0015 0.44857-1.0013 1.0013l-6.898e-4 1.0025c2.834e-4 0.55269 0.44857 1.0015 1.0032 1.0008 0.55269-2.83e-4 0.99965-0.44806 1.0013-1.0013l-0.0012-1.002c-2.83e-4 -0.55269-0.44806-0.99965-1.0013-1.0013z" fill="url(#d)"/>
  <path d="m7.2589 2.0893c-0.81507 0.25282-1.4053 1.0123-1.4048 1.9132l-0.00188 8.0106 0.00239 1.4673-0.00238 0.53518c5.054e-4 0.0019 0.00239 0.0014 5.054e-4 0.0019l1.41e-5 8.0101c6.3e-6 4.005 5.293e-4 14.02 3.005 16.021l2.003 0.0019c3.0045-2.0037 3.0039-12.018 3.0039-16.023l-1.6e-5 -8.0101-5.16e-4 -0.53846 5.14e-4 -1.4641 0.0014-8.0125c-0.001615-1.1092-0.89478-2.0017-2.0044-2.002l-4.005 6.6e-6c-0.20876-7.577e-4 -0.4084 0.032489-0.59769 0.089283z" fill="url(#e)"/>
  <path d="m13.865 19.022-8.012 5.19e-4 0.0012 1.002 8.0101-1.3e-5z" fill="url(#g)"/>
  <path d="m9.859 37.047c-0.55269 2.83e-4 -1.0015 0.44857-1.0013 1.0013l-6.898e-4 1.0025c2.834e-4 0.55269 0.44857 1.0015 1.0013 1.0013 0.55458-7.9e-4 1.0015-0.44857 1.0013-1.0013l6.89e-4 -1.0025c-2.83e-4 -0.55269-0.44806-0.99965-1.0013-1.0013z" fill="#e6e6e6"/>
  <path d="m15.867 5.0026-3.0045 0.0012c-0.10532-1.277e-4 -0.2042 0.016243-0.29764 0.04533-0.40779 0.12546-0.70264 0.50616-0.70361 0.95593 7.88e-4 0.55458 0.44668 1.002 1.0013 1.0013l4.005-6.1e-6 0.0012-1.0006c-7.93e-4 -0.55458-0.44668-1.002-1.0018-1.0031z" fill="#c0bfbc"/>
  <path d="m7.2589 2.0893c-0.81507 0.25282-1.4053 1.0123-1.4048 1.9132l-0.00188 8.0106 4.974e-4 1.4678-4.94e-4 0.53468 5.054e-4 0.0019 1.41e-5 8.0101c6.3e-6 4.005 5.293e-4 14.02 3.005 16.021l2.0025-3e-6c3.005-2.0018 3.0045-12.016 3.0044-16.021l-5.22e-4 -8.012-1e-5 -0.53657 8e-6 -1.466-1.6e-5 -8.0101c3.1e-4 -1.1097-0.89285-2.0022-2.0025-2.0025l-4.005 6.6e-6c-0.20876-7.717e-4 -0.4084 0.032475-0.59769 0.089269z" fill="#0d9f8c"/>
  <path d="m13.864 19.023-8.0101 1.4e-5 -6.896e-4 1.0025 8.012-5.19e-4z" fill="#e6e6e6"/>
 </g>
 <g transform="translate(-1.0886 -1.9233)" stroke-width=".5">
  <path d="m14.864 7.0048 0.0012 1.0006-0.0012 0.9992 5.22e-4 8.001c7.87e-4 0.55382 0.44607 1.0007 0.99989 0.99989 0.55382-7.89e-4 1.0007-0.44607 0.99989-0.99989l-1.6e-5 -7.9991 6.93e-4 -1.0011-0.0012-1.0006-0.9987 6.925e-4z" fill="#c0bfbc"/>
  <path d="m14.864 7.0048 0.0012 1.0006-0.0012 0.9992 5.22e-4 8.001c7.87e-4 0.55382 0.44607 1.0007 0.99989 0.99989 0.55382-7.89e-4 1.0007-0.44607 0.99989-0.99989l-1.6e-5 -7.9991 6.93e-4 -1.0011-0.0012-1.0006-0.9987 6.925e-4z" fill="#c0bfbc"/>
  <path d="m58.087 7.9233v46h-39.5c-2.4922 0-4.5-2.0078-4.5-4.5v-39c0-2.4922 2.0078-4.5 4.5-4.5h37.455" fill="#f3ffe0"/>
  <path d="m58.087 21.923h-6v8h6z" fill="#51dcab"/>
  <path d="m14.087 49.423c0 2.4922 2.0078 4.5 4.5 4.5h33.5v8h-33.5c-2.4922 0-4.5-2.0078-4.5-4.5z" fill="#6ce4ab"/>
  <path d="m56.087 5.9233c1.0977 0.02539 1.9746 0.90234 2 2v5h-6v-7z" fill="#8aefbc"/>
  <path d="m20.087 39.923h2v2h-2z" fill="#00dab8"/>
  <path d="m20.087 17.923v8h10v-2h18v-6zm0 10v4h14v-2h14v-2zm4 8v2h14v-2zm0 4v2h8v-2z" fill="#ade9b5"/>
  <path d="m20.087 35.923h2v2h-2z" fill="#00dab8"/>
  <path d="m20.087 11.923h12v2h-12z" fill="#307d66"/>
  <path d="m58.087 49.923v10c0 1.1074-0.89258 2-2 2h-4v-12z" fill="#09635f"/>
  <path d="m58.087 37.923h-6v8h6z" fill="#02ab90"/>
  <path d="m58.087 20.923h-6v1h6z" fill="#8aefbc"/>
  <path d="m58.087 29.923h-6v8h6z" fill="#31c6a1"/>
  <path d="m58.087 45.923v6c0 1.1074-0.89258 2-2 2h-4v-8z" fill="#068677"/>
 </g>
</svg>
