<svg width="64" height="64" version="1.1" xmlns="http://www.w3.org/2000/svg">
 <path d="m25.9 43.834c-0.52 0-0.9 0.378-0.9 0.834v10.955l-4.078 0.377h-0.022c-0.52 0-0.9 0.378-0.9 0.834v1.166h24v-1.166c0-0.456-0.381-0.834-0.9-0.834h-0.024l-4.076-0.377v-10.955c0-0.456-0.38-0.834-0.9-0.834z" fill="#c4c7cc"/>
 <rect x="2" y="6" width="60" height="40" rx="6" ry="6" fill="#2f3337"/>
 <rect x="5" y="9" width="54" height="34" rx="3" ry="3" fill="#5294e2" stop-color="#000000" stroke-width="0"/>
 <path d="m8 9c-1.662 0-3 1.338-3 3v28c0 1.662 1.338 3 3 3h24v-34h-24z" fill="#000000" opacity=".15"/>
 <path d="m45.75 18c-0.13807 0-0.25 0.11193-0.25 0.25v1.5c0 0.139 0.112 0.25 0.25 0.25h0.5c0.13807 0 0.25-0.11193 0.25-0.25v-1.5c0-0.13807-0.11193-0.25-0.25-0.25zm-4.699 1.947c-0.0667-3.8e-4 -0.13078 0.0259-0.178 0.073l-0.353 0.353c-0.0979 0.0977-0.0979 0.25632 0 0.354l1.06 1.06c0.0977 0.0979 0.25632 0.0979 0.354 0l0.353-0.353c0.0979-0.0977 0.0979-0.25632 0-0.354l-1.06-1.06c-0.0465-0.047-0.10991-0.0733-0.176-0.073zm9.898 0c-0.0657-3e-5 -0.12877 0.0263-0.175 0.073l-1.06 1.06c-0.0979 0.0977-0.0979 0.25632 0 0.354l0.353 0.353c0.0976 0.0973 0.25543 0.0973 0.353 0l1.06-1.06c0.0979-0.0977 0.0979-0.25632 0-0.354l-0.353-0.353c-0.0472-0.0471-0.1113-0.0734-0.178-0.073zm-4.949 2.053c-1.933 0-3.5 1.567-3.5 3.5s1.567 3.5 3.5 3.5 3.5-1.567 3.5-3.5-1.567-3.5-3.5-3.5zm-7.25 3c-0.13807 0-0.25 0.11193-0.25 0.25v0.5c0 0.139 0.112 0.25 0.25 0.25h1.5c0.13807 0 0.25-0.11193 0.25-0.25v-0.5c0-0.13807-0.11193-0.25-0.25-0.25zm13 0c-0.13807 0-0.25 0.11193-0.25 0.25v0.5c0 0.139 0.112 0.25 0.25 0.25h1.5c0.13807 0 0.25-0.11193 0.25-0.25v-0.5c0-0.13807-0.11193-0.25-0.25-0.25zm-9.992 4.139c-0.0668 1e-4 -0.13082 0.0267-0.178 0.074l-1.06 1.06c-0.0979 0.0977-0.0979 0.25632 0 0.354l0.353 0.353c0.0977 0.0979 0.25632 0.0979 0.354 0l1.06-1.06c0.0979-0.0977 0.0979-0.25632 0-0.354l-0.353-0.353c-0.0464-0.0472-0.10981-0.0738-0.176-0.074zm8.484 0c-0.0658 4.6e-4 -0.1288 0.0271-0.175 0.074l-0.354 0.353c-0.0979 0.0977-0.0979 0.25632 0 0.354l1.06 1.06c0.0977 0.0979 0.25632 0.0979 0.354 0l0.354-0.353c0.0979-0.0977 0.0979-0.25632 0-0.354l-1.06-1.06c-0.0474-0.0475-0.11186-0.0742-0.179-0.074zm-4.492 1.861c-0.13807 0-0.25 0.11193-0.25 0.25v1.5c0 0.139 0.112 0.25 0.25 0.25h0.5c0.13807 0 0.25-0.11193 0.25-0.25v-1.5c0-0.13807-0.11193-0.25-0.25-0.25z" color="#000000" fill="#fff" overflow="visible" style="isolation:auto;mix-blend-mode:normal"/>
 <path d="m18.463 18a7.5 7.5 0 0 0-7.4629 7.5 7.5 7.5 0 0 0 7.5 7.5 7.5 7.5 0 0 0 3.834-1.0547 6.5 6.5 0 0 1-0.83398 0.05469 6.5 6.5 0 0 1-6.5-6.5 6.5 6.5 0 0 1 6.5-6.5 6.5 6.5 0 0 1 0.83203 0.05469 7.5 7.5 0 0 0-3.832-1.0547 7.5 7.5 0 0 0-0.03711 0z" fill="#fff" stroke-width=".75"/>
</svg>
