<svg xmlns="http://www.w3.org/2000/svg" width="64" height="64"><defs><linearGradient id="a" x1="467.17" x2="467.17" y1="546.85" y2="544.72" gradientTransform="translate(-864.23 -981.74)scale(1.8844)" gradientUnits="userSpaceOnUse"><stop offset="0" stop-color="#040404"/><stop offset="1" stop-color="#121212" stop-opacity=".908"/></linearGradient></defs><rect width="52" height="52" x="6" y="6" fill="#4d4d4d" rx="8" ry="8"/><path fill="#ccc" d="M21 10h21c2.77 0 4.505 2.169 5 4.767l6 31.465C53.496 48.831 50.77 51 48 51H16.002c-2.77 0-5.415-2.156-5-4.768L16 14.767C16.415 12.156 18.23 10 21 10"/><rect width="42" height="10" x="11" y="42" fill="#333" ry="5"/><rect width="20" height="2" x="20" y="46" fill="#3889e9" ry="1"/><circle cx="15.997" cy="47" r="2" fill="url(#a)" opacity=".452"/><path fill="#fff" d="M16 46.075a.14.14 0 0 0-.105.045.14.14 0 0 0-.043.103v.745q-.001.06.043.103c.044.043.065.045.105.045a.14.14 0 0 0 .104-.045.14.14 0 0 0 .044-.103v-.745a.14.14 0 0 0-.044-.103.14.14 0 0 0-.104-.045m-.428.219c-.04 0-.076 0-.11.03a.87.87 0 0 0-.357.71q.001.18.073.346.07.165.19.285a.9.9 0 0 0 .63.26q.18 0 .346-.07a.87.87 0 0 0 .474-.475.88.88 0 0 0-.285-1.057.14.14 0 0 0-.111-.03c-.041 0-.074.025-.098.057a.14.14 0 0 0-.027.11q.008.06.057.1a.592.592 0 0 1-.586 1.02.6.6 0 0 1-.319-.316.59.59 0 0 1 .191-.705.15.15 0 0 0 .06-.1.14.14 0 0 0-.03-.109.13.13 0 0 0-.098-.056"/><path d="M16 42c-2.77 0-5 2.23-5 5 0 .059.006.116.008.174a4.724 4.724 0 0 1 4.732-4.652h32.52a4.724 4.724 0 0 1 4.733 4.652q.005-.086.007-.174c0-2.77-2.23-5-5-5zm22.398-22.722-2.803-.004a.46.46 0 0 0-.284.094.3.3 0 0 0-.119.229l-.004 2.26c0 .178.179.323.401.323h.39l-.003 1.722-2.971 1.605.013-6.577 1.034.001a.34.34 0 0 0 .271-.122.21.21 0 0 0 .011-.25l-2.037-3.183a.34.34 0 0 0-.282-.139.33.33 0 0 0-.282.138l-2.052 3.177a.21.21 0 0 0 .01.25.34.34 0 0 0 .271.124l1.034.001-.019 9.11-3.198-1.742.003-1.366c.496-.264.824-.716.825-1.23.003-.817-.817-1.48-1.831-1.481-1.013-.002-1.834.659-1.837 1.475-.001.515.326.968.821 1.234l-.004 1.8c0 .27.166.524.446.676L30.973 30l-.006 2.809c-.673.29-1.136.856-1.138 1.515-.001.954.956 1.73 2.141 1.732 1.186.001 2.148-.771 2.15-1.726.001-.659-.46-1.225-1.131-1.518L33 27.471l4.549-2.457q.082-.046.15-.1a.75.75 0 0 0 .298-.576L38 22.184h.391a.46.46 0 0 0 .284-.095.3.3 0 0 0 .119-.229l.004-2.258c0-.18-.179-.324-.401-.324z" opacity=".15"/><path fill="#f2f2f2" d="M60.836 39.874q-.292-.706-.658-1.384-.206-.385-.437-.76a16.7 16.7 0 0 0-2.426-3.044Q52.629 30 46 30c-6.629 0-8.19 1.562-11.313 4.686Q30 39.372 30 46c0 6.628 1.563 8.191 4.687 11.315Q39.372 62.001 46 62q6.63 0 11.315-4.685 2.581-2.583 3.74-5.755Q62 48.976 62 46a16.5 16.5 0 0 0-.688-4.799q-.21-.675-.476-1.327" image-rendering="optimizeSpeed"/><path fill="#3889e9" d="M38 47a8 8 0 0 0 8 8c4.373 0 7.92-3.211 7.992-7.568Q54 47.366 54 47.3c0-.737-.764-1.3-1.5-1.3s-1.5.563-1.5 1.3c0 2.945-2.054 4.7-5 4.7-2.945 0-5-2.054-5-5 0-2.945 2.054-5 5-5v3l6-4.5-6-4.5v2.999a8 8 0 0 0-8 8z"/></svg>