<svg width="64" height="64" version="1.1" viewBox="0 0 64 64" xmlns="http://www.w3.org/2000/svg">
 <rect x="6" y="6" width="52" height="52" rx="8" ry="8" fill="#f43d53" stroke-width="3.5095"/>
 <path d="m26.039 24c-0.04576 0.03106-0.05483 15.936-0.0098 15.986 0.017 0.0184 0.06562 0.0177 0.10742 0 0.04182-0.0178 2.7848-1.5733 6.0957-3.457v2e-3c7.9372-4.5159 7.7676-4.4172 7.7676-4.5078 0-0.08484-13.893-8.0694-13.961-8.0234z" fill="#ffffff" stroke-width="1.5811"/>
 <path d="m12 6.2598c-1.1134 0.28496-2.131 0.79673-3 1.4922v2.248h3v-3.7402zm40 0v3.7402h3v-2.248c-0.86902-0.69545-1.8866-1.2072-3-1.4922zm-43 5.7402v5h3v-5h-3zm43 0v5h3v-5h-3zm-43 7v5h3v-5h-3zm43 0v5h3v-5h-3zm-43 7v5h3v-5h-3zm43 0v5h3v-5h-3zm-43 7v5h3v-5h-3zm43 0v5h3v-5h-3zm-43 7v5h3v-5h-3zm43 0v5h3v-5h-3zm-43 7v5h3v-5h-3zm43 0v5h3v-5h-3zm-43 7v2.248c0.86902 0.69545 1.8866 1.2072 3 1.4922v-3.7402h-3zm43 0v3.7402c1.1134-0.28496 2.131-0.79673 3-1.4922v-2.248h-3z" fill="#ffffff"/>
</svg>
