<svg width="64" height="64" version="1.1" xmlns="http://www.w3.org/2000/svg">
 <g transform="translate(3.183 3.161) scale(.89997)" fill="#1da7f7" stroke-width="1.571">
  <circle cx="32.02" cy="32.044" r="30.001"/>
  <circle cx="32.02" cy="32.044" r="30.001" fill="#16181c" fill-opacity=".99216"/>
 </g>
 <g transform="matrix(.88889 0 0 .88889 -94.222 9.7778)" fill="#1bd96a">
  <path d="m142-2a27 27 0 0 0-26.82 24.5h5.0176a22 22 0 0 1 21.803-19.5 22 22 0 0 1 22 22 22 22 0 0 1-0.71875 5.3047l4.7402 1.7754a27 27 0 0 0 0.97852-7.0801 27 27 0 0 0-27-27zm-26.82 29.5a27 27 0 0 0 26.82 24.5 27 27 0 0 0 24.264-15.238l-4.6758-1.752a22 22 0 0 1-19.588 11.99 22 22 0 0 1-21.803-19.5z" stroke-linecap="round" stroke-linejoin="round" stroke-width="1.2" style="paint-order:stroke fill markers"/>
  <path d="m142 7a18 18 0 0 0-18 18 18 18 0 0 0 18 18 18 18 0 0 0 2.3594-0.16992l-1.3672-4.916a13 13 0 0 1-0.99219 0.085938 13 13 0 0 1-13-13 13 13 0 0 1 12.893-12.99l0.93554-4.9902a18 18 0 0 0-0.82812-0.019531zm5.7422 0.94531-0.93555 4.9824a13 13 0 0 1 8.1934 12.072 13 13 0 0 1-7.1894 11.58l1.3633 4.9062a18 18 0 0 0 10.826-16.486 18 18 0 0 0-12.258-17.055z" stroke-linecap="round" stroke-linejoin="round" stroke-width=".8" style="paint-order:stroke fill markers"/>
  <path d="m134.94 26.768-14.722 8.5 2.5 4.3301 14.722-8.5 2.866 2.9641 7.0622-1.7679 4.1962-4.7321-1.5-2.5981-3.9641 1.134-2.3705 1.8942-1.9597 0.60575-2.5-4.3301 1.232-1.866 2.875-1.0204 2.6872-3.3457-1.5-2.5981-6.1962 1.2679-5.0622 5.2321z" style="paint-order:stroke fill markers"/>
  <path d="m163.13 16.617-5.6816 1.5566a4 4 0 0 0-0.45117 1.8262 4 4 0 0 0 1.459 3.082l6.293-1.7246a4 4 0 0 0 0.24805-1.3574 4 4 0 0 0-1.8672-3.3828z" color="#000000" stroke-linecap="round" stroke-linejoin="round" style="-inkscape-stroke:none;paint-order:stroke fill markers"/>
 </g>
</svg>
