<svg xmlns="http://www.w3.org/2000/svg" width="64" height="64" viewBox="0 0 16.933 16.933"><rect width="13.758" height="13.758" x="1.587" y="1.587" fill="#f2f2f2" rx="2.117" ry="2.117"/><g stroke-linecap="round" stroke-linejoin="round" stroke-opacity=".35" stroke-width=".075" opacity=".25" transform="translate(0 .265)"><rect width="12.171" height=".132" x="2.381" y="3.969" opacity=".75" rx="0" ry=".066"/><rect width="12.171" height=".132" x="2.381" y="6.085" opacity=".75" rx="0" ry=".066"/><rect width="12.171" height=".132" x="2.381" y="8.202" opacity=".75" rx="0" ry=".066"/><rect width="12.171" height=".132" x="2.381" y="10.054" opacity=".75" rx="0" ry=".066"/><rect width="12.171" height=".132" x="2.381" y="12.171" opacity=".75" rx="0" ry=".066"/></g><path fill="#da4d45" d="M4.762 1.587h.132v13.758h-.132z" opacity=".15"/><path fill="#1f9bff" d="m4 4.598-.73.87-.395-.332-.265.316.711.597.994-1.185zM4 8.63l-.73.87-.395-.332-.265.316.711.597.994-1.185zM4 10.685l-.73.869-.395-.331-.265.315.711.597.994-1.185z" opacity=".2"/><path fill="#1f9bff" d="M11.583 5.131a.52.52 0 0 0-.736.065l-3.356 4-1.6-1.343a.521.521 0 0 0-.735.064l-.671.8a.52.52 0 0 0 .064.736l2.8 2.349a.52.52 0 0 0 .736-.065l4.362-5.199a.52.52 0 0 0-.064-.735z"/></svg>