<svg xmlns="http://www.w3.org/2000/svg" width="64" height="64"><path fill="#ebeaea" d="M27.273 12S24.5 18.805 24.5 19.258V58h15V19.256L37 12z"/><path fill="#e3e2df" d="M27 12s-2.5 6.805-2.5 7.256h15C39.5 19.012 37 12 37 12z"/><path fill="#deddda" d="M6 23.947c.248.008 18.5 0 18.5 0C24.5 17.539 18.578 12 18.5 8H12c0 4-6.002 9.54-6 15.947"/><path fill="#297bde" d="M27 9.47V12h10V9.47z"/><path fill="#1f74da" d="M32 28.018c-3.75 0-3.75 4.729-3.75 4.729H24.5v7.234h15v-7.235h-3.75s0-4.728-3.75-4.728m0 1s2.727 3.326 1.728 4.97c-.998 1.645-2.46 1.645-3.459 0S32 29.019 32 29.019z"/><path fill="#ffbe6f" d="m10.703 12-.006.006C8.931 15.408 5.997 19.463 6 23.945V54a5 5 0 0 0 .074.808q.04.196.092.385a4.1 4.1 0 0 0 .918 1.639 4 4 0 0 0 .55.486q.15.109.305.201a3.6 3.6 0 0 0 .668.301q.089.029.176.055.09.024.18.043a3 3 0 0 0 .369.06 3 3 0 0 0 .38.021H24.5V23.946c0-4.483-2.895-8.537-4.662-11.94L19.832 12z"/><path fill="#ee393e" d="M43.5 18.473c-2.127 1.04-4 3.356-4 5.764V58h14.402C56.174 57.99 58 56.118 58 53.794V24.237c0-2.414-1.865-4.727-4-5.764z"/><path fill="#57e389" d="M12 6h6.5v2H12z"/><path fill="#67656c" d="M43.5 17.473H54v1.016H43.5z"/><path fill="#cecdca" d="M43.5 14H54v3.473H43.5z"/><path fill="#33d17a" fill-opacity=".855" d="M20.25 23.951a5 5 0 1 0 0 10 5 5 0 0 0 0-10"/><path fill="#f8e04c" d="M6 40.32V54a5 5 0 0 0 .074.809 6 6 0 0 0 .092.384 4.1 4.1 0 0 0 .918 1.639 4 4 0 0 0 .55.486q.15.109.305.202.159.09.327.168.166.073.341.132.089.029.176.055.09.024.18.043a3 3 0 0 0 .369.06 3 3 0 0 0 .38.021h44.19C56.173 57.991 58 56.118 58 53.794V40.32z"/><path d="M6.654 40.32 24.332 58H34.94L17.26 40.32H6.653zm21.211 0L45.547 58h8.356a4 4 0 0 0 1.812-.44L38.473 40.32H27.866zm21.215 0L58 49.24v-8.92zM6 50.273V54a5 5 0 0 0 .075.808 4 4 0 0 0 .217.75 4.1 4.1 0 0 0 .792 1.274 4 4 0 0 0 .551.486q.15.108.305.201.159.09.326.168.167.075.342.133.087.029.176.055.088.024.18.043a3 3 0 0 0 .368.06 3 3 0 0 0 .38.021h4.015z" opacity=".8"/></svg>