<svg xmlns="http://www.w3.org/2000/svg" width="64" height="64" image-rendering="optimizeSpeed"><rect width="52" height="52" x="6" y="6" fill="#3f3f3f" fill-rule="evenodd" rx="8" ry="8" style="paint-order:stroke fill markers;fill:#f2f2f2;fill-opacity:1"/><path fill="#3e87dc" d="M36.536 25.074c0 5.564-4.668 10.074-10.427 10.074-5.76 0-10.428-4.51-10.428-10.074C15.681 19.511 20.349 15 26.109 15c5.759 0 10.427 4.51 10.427 10.074"/><path fill="#3e87dc" d="M21.115 27.917a4.758 4.758 0 1 1-9.516-.001 4.758 4.758 0 0 1 9.516.001"/><path fill="#62a0ea" d="M25.714 34.978a6.377 6.377 0 1 1-12.754-.002 6.377 6.377 0 0 1 12.754.002"/><path fill="#62a0ea" d="M40.598 29.548c0 6.157-5.121 11.148-11.439 11.148S17.72 35.705 17.72 29.548 22.841 18.4 29.159 18.4s11.439 4.991 11.439 11.148"/><path fill="#8ebaef" d="M23.16 42.2h17.68V49H23.16z"/><path fill="#8ebaef" d="M41.515 27.24c-5.772.015-10.535 4.781-10.875 10.88.34 6.099 5.103 10.865 10.875 10.88 5.837-.013 10.633-4.886 10.885-11.061-.425-6.032-5.172-10.698-10.885-10.699"/><path fill="#8ebaef" d="M31.32 40.84a8.16 8.16 0 1 1-16.32 0 8.16 8.16 0 0 1 16.32 0"/><path fill="#fff" d="M43.56 33.353c0 6.382-5.176 11.555-11.56 11.555s-11.56-5.173-11.56-11.555c0-6.38 5.176-11.553 11.56-11.553s11.56 5.173 11.56 11.553"/><path fill="#3584e4" d="M31.32 24.848v1.359l1.02 1.021h-2.344a4.796 4.796 0 0 0-4.796 4.796v2.316c0 .766.62 1.388 1.387 1.388a1.347 1.347 0 0 0 1.333-1.361v-2.38a2.04 2.04 0 0 1 2.04-2.039h2.38l-1.02 1.02v1.36h1.02c.436 0 .853-.174 1.16-.48l2.398-2.4a1.217 1.217 0 0 0 0-1.72l-2.397-2.4a1.64 1.64 0 0 0-1.161-.48zm6.093 5.78a1.345 1.345 0 0 0-1.333 1.359v2.71a2.044 2.044 0 0 1-2.04 2.044l-2.379.006 1.019-1.019v-1.361h-1.02a1.65 1.65 0 0 0-1.16.482l-2.4 2.398a1.22 1.22 0 0 0 0 1.722l2.4 2.398c.307.307.724.481 1.16.481h1.02v-1.36l-1.02-1.02h2.344a4.797 4.797 0 0 0 4.796-4.796v-2.658c0-.766-.62-1.386-1.387-1.386"/></svg>