<svg xmlns="http://www.w3.org/2000/svg" width="64" height="64"><rect width="52" height="52" x="6" y="6" fill="#f43d53" rx="8" ry="8"/><path fill="#fff" d="M26.039 24c-.046.031-.055 15.936-.01 15.986.017.018.066.018.108 0s2.784-1.573 6.095-3.457v.002C40.17 32.015 40 32.114 40 32.023c0-.085-13.893-8.07-13.961-8.023M12 6.26a7.9 7.9 0 0 0-3 1.492V10h3zm40 0V10h3V7.752a7.95 7.95 0 0 0-3-1.492M9 12v5h3v-5zm43 0v5h3v-5zM9 19v5h3v-5zm43 0v5h3v-5zM9 26v5h3v-5zm43 0v5h3v-5zM9 33v5h3v-5zm43 0v5h3v-5zM9 40v5h3v-5zm43 0v5h3v-5zM9 47v5h3v-5zm43 0v5h3v-5zM9 54v2.248a7.95 7.95 0 0 0 3 1.492V54zm43 0v3.74a7.9 7.9 0 0 0 3-1.492V54z"/></svg>