<svg xmlns="http://www.w3.org/2000/svg" width="64" height="64"><path fill="#ebeaea" d="M27.273 12S24.5 18.805 24.5 19.258V58h15V19.256L37 12z"/><path fill="#e3e2df" d="M27 12s-2.5 6.805-2.5 7.256h15C39.5 19.012 37 12 37 12z"/><path fill="#deddda" d="M6 23.947c.248.008 18.5 0 18.5 0C24.5 17.539 18.578 12 18.5 8H12c0 4-6.002 9.54-6 15.947z"/><path fill="#297bde" d="M27 9.47V12h10V9.47z"/><path fill="#1f74da" d="M32 28.018c-3.75 0-3.75 4.729-3.75 4.729H24.5v7.234h15v-7.235h-3.75s0-4.728-3.75-4.728zm0 1s2.727 3.326 1.728 4.97c-.998 1.645-2.46 1.645-3.459 0S32 29.019 32 29.019z"/><path fill="#ffbe6f" d="m10.703 12-.006.006C8.931 15.408 5.997 19.463 6 23.945V54a4.728 4.728 0 0 0 .074.808c.026.131.057.258.092.385a4.08 4.08 0 0 0 .918 1.639 4.062 4.062 0 0 0 .55.486c.1.073.202.139.305.201.106.061.215.118.327.168.11.05.224.094.341.133.059.02.118.037.176.055.059.016.12.031.18.043a3.041 3.041 0 0 0 .369.06 3.104 3.104 0 0 0 .38.021H24.5V23.946c0-4.483-2.895-8.537-4.662-11.94L19.832 12z"/><path fill="#ee393e" d="M43.5 18.473c-2.127 1.04-4 3.356-4 5.764V58h14.402C56.174 57.99 58 56.118 58 53.794V24.237c0-2.414-1.865-4.727-4-5.764z"/><path fill="#57e389" d="M12 6h6.5v2H12z"/><path fill="#67656c" d="M43.5 17.473H54v1.016H43.5z"/><path fill="#cecdca" d="M43.5 14H54v3.473H43.5z"/><path fill="#cac9c6" d="M52 49.746h6V52h-6z"/><path fill="#33d17a" fill-opacity=".855" d="M15.25 27a5 5 0 1 0 0 10 5 5 0 0 0 0-10z"/></svg>