<svg width="64" height="64" version="1.1" viewBox="0 0 16.933 16.933" xmlns="http://www.w3.org/2000/svg" xmlns:xlink="http://www.w3.org/1999/xlink">
 <defs>
  <linearGradient id="linearGradient4308">
   <stop stop-color="#64baff" offset="0"/>
   <stop stop-color="#0d52bf" offset="1"/>
  </linearGradient>
  <linearGradient id="linearGradient8451" x1="282.24" x2="261.03" y1="1013.7" y2="988.43" gradientTransform="matrix(.099984 .0839 -.0839 .099984 65.296 -112.27)" gradientUnits="userSpaceOnUse">
   <stop stop-color="#fff" offset="0"/>
   <stop stop-color="#fff" stop-opacity="0" offset="1"/>
  </linearGradient>
  <linearGradient id="linearGradient8460" x1="151" x2="151" y1="60" y2="76" gradientTransform="matrix(.13749 0 0 .13749 -17.297 -4.0255)" gradientUnits="userSpaceOnUse" xlink:href="#linearGradient4308"/>
  <linearGradient id="linearGradient957" x1="151" x2="151" y1="60" y2="76" gradientTransform="matrix(.13749 0 0 .13749 -17.297 .0066533)" gradientUnits="userSpaceOnUse" xlink:href="#linearGradient4308"/>
  <linearGradient id="linearGradient963" x1="151" x2="151" y1="60" y2="76" gradientTransform="matrix(.13749 0 0 .13749 -17.297 2.0607)" gradientUnits="userSpaceOnUse" xlink:href="#linearGradient4308"/>
 </defs>
 <rect x="1.5875" y="1.5875" width="13.758" height="13.758" rx="2.1166" ry="2.1166" fill="#f2f2f2" stroke-width=".92853"/>
 <g transform="translate(0 .26458)" opacity=".25" stroke-linecap="round" stroke-linejoin="round" stroke-opacity=".35" stroke-width=".074834">
  <rect x="2.3812" y="3.9687" width="12.171" height=".13229" rx="0" ry=".066145" opacity=".75"/>
  <rect x="2.3812" y="6.0853" width="12.171" height=".13229" rx="0" ry=".066145" opacity=".75"/>
  <rect x="2.3812" y="8.2019" width="12.171" height=".13229" rx="0" ry=".066145" opacity=".75"/>
  <rect x="2.3812" y="10.054" width="12.171" height=".13229" rx="0" ry=".066145" opacity=".75"/>
  <rect x="2.3812" y="12.171" width="12.171" height=".13229" rx="0" ry=".066145" opacity=".75"/>
 </g>
 <rect x="4.7624" y="1.5875" width=".13229" height="13.758" fill="#da4d45" opacity=".15"/>
 <g fill="#fff">
  <path d="m5.5433 5.8778q-0.01797 0-0.0337-0.00225-0.01348-0.00225-0.0292-0.00674-0.04044-0.011232-0.05616-0.047175-0.02022-0.044928 0-0.10783 0.02246-0.065146 0.07189-0.16623 9e-3 -0.017971 0.01797-0.040436 9e-3 -0.022464 0.02022-0.042682-0.0292 0.011232-0.0629 0.038189-0.03145 0.024711-0.06515 0.051668-0.02246 0.017971-0.04942 0.013479-0.0292-0.00449-0.04717-0.024711-0.01797-0.022464-0.01348-0.049421 0.0045-0.026957 0.02471-0.047175 0.03145-0.022464 0.06515-0.049421t0.07189-0.044928q0.0921-0.047175 0.16848-0.024711 0.03594 0.00674 0.05391 0.044928 0.01797 0.038189-0.0022 0.089857-0.01797 0.051668-0.0629 0.14602-0.01123 0.026957-0.02471 0.053914-0.01123 0.026957-0.02246 0.051668-0.0045 0.00899-0.0067 0.015725-0.0022 0.00674-0.0045 0.013478 0.02246-0.00225 0.05616-0.013478 0.03594-0.011232 0.08087-0.033696 0.04717-0.024711 0.10783-0.065146 0.06065-0.040436 0.13928-0.10109 0.06065-0.049421 0.11457-0.096596 0.05391-0.047175 0.09435-0.085364t0.06515-0.0629 0.02471-0.024711q0.02696-0.03145 0.06515-0.020218 0.01797 0.00449 0.0292 0.015725 0.01123 0.011232 0.01797 0.022464 0.01572 0.03145 0.0022 0.074132-0.01348 0.042682-0.04942 0.13254-0.01348 0.029203-0.02696 0.058407-0.01123 0.029204-0.02246 0.053914-0.0022 0.011232-0.0067 0.024711 0.03145-0.00449 0.06739-0.024711 0.03594-0.020218 0.07189-0.044928 0.03594-0.024711 0.06739-0.051668 0.03145-0.029203 0.05616-0.049421 0.02246-0.020218 0.04942-0.017971 0.02696 0.00225 0.04717 0.022464 0.01797 0.022464 0.01572 0.049421 0 0.026957-0.02246 0.047175-0.05167 0.047175-0.10558 0.089857-0.05391 0.040436-0.11008 0.071885-0.05391 0.029203-0.11007 0.042682-0.05616 0.011232-0.11008-0.00225-0.03594-0.013478-0.05167-0.044928-0.01348-0.03145-9e-3 -0.067393 0.0067-0.038189 0.02696-0.096596-0.02471 0.022464-0.05167 0.042682-0.02471 0.020218-0.05391 0.044928-0.31 0.24486-0.48298 0.24486z" opacity=".25"/>
  <path d="m7.0692 5.7497q-0.02696 0-0.04493-0.015725-0.03594-0.029203-0.02022-0.074132 0-0.00225 0.01572-0.053914 0.01797-0.051668 0.04044-0.11681 0.01123-0.038189 0.02022-0.065146 9e-3 -0.029204 0.01572-0.051668-0.04718 0.017971-0.10783 0.040436-0.06065 0.022464-0.13029 0.049421-0.06739 0.024711-0.13928 0.051668t-0.13928 0.051668q-0.02471 0.00899-0.04942-0.00225-0.02696-0.013478-0.03819-0.040436-9e-3 -0.024711 0.0045-0.049421 0.01123-0.026957 0.03819-0.038189 0.10109-0.035943 0.20892-0.076378 0.11008-0.040436 0.19993-0.074132 0.08986-0.033696 0.14826-0.056161 0.06065-0.022464 0.06065-0.022464 0.01123-0.00225 0.02022-0.00225 0.01123-0.00225 0.02246 0.00225 0.03145 0.00449 0.04493 0.035943 0.01123 0.017971 9e-3 0.047175 0 0.026957-0.01123 0.078625-0.0067 0.029203-0.01797 0.065146-9e-3 0.033696-0.02471 0.078625-0.0022 0.00899-0.0045 0.015725-0.0022 0.00674-0.0045 0.015725 0.08986-0.049421 0.22015-0.10334 0.02471-0.011232 0.04942 0 0.02471 0.00899 0.03594 0.033696 0.01348 0.024711 0.0022 0.051668-0.01123 0.026957-0.03594 0.038189-0.07638 0.033696-0.14152 0.065146-0.06515 0.03145-0.11232 0.056161-0.05616 0.029203-0.10109 0.053914-0.01348 0.011232-0.0337 0.011232z" opacity=".25"/>
  <path d="m7.6099 5.8778q-0.01797 0-0.0337-0.00225-0.01348-0.00225-0.0292-0.00674-0.04044-0.011232-0.05616-0.047175-0.02022-0.044928 0-0.10783 0.02247-0.065146 0.07189-0.16623 9e-3 -0.017971 0.01797-0.040436 9e-3 -0.022464 0.02022-0.042682-0.0292 0.011232-0.0629 0.038189-0.03145 0.024711-0.06515 0.051668-0.02246 0.017971-0.04942 0.013479-0.0292-0.00449-0.04717-0.024711-0.01797-0.022464-0.01348-0.049421 0.0045-0.026957 0.02471-0.047175 0.03145-0.022464 0.06515-0.049421t0.07189-0.044928q0.0921-0.047175 0.16848-0.024711 0.03594 0.00674 0.05391 0.044928 0.01797 0.038189-0.0022 0.089857-0.01797 0.051668-0.0629 0.14602-0.01123 0.026957-0.02471 0.053914-0.01123 0.026957-0.02246 0.051668-0.0045 0.00899-0.0067 0.015725-0.0022 0.00674-0.0045 0.013478 0.02246-0.00225 0.05616-0.013478 0.03594-0.011232 0.08087-0.033696 0.04717-0.024711 0.10783-0.065146 0.06065-0.040436 0.13928-0.10109 0.06065-0.049421 0.11457-0.096596 0.05391-0.047175 0.09435-0.085364t0.06515-0.0629 0.02471-0.024711q0.02696-0.03145 0.06515-0.020218 0.01797 0.00449 0.0292 0.015725 0.01123 0.011232 0.01797 0.022464 0.01572 0.03145 0.0022 0.074132-0.01348 0.042682-0.04942 0.13254-0.01348 0.029203-0.02696 0.058407-0.01123 0.029204-0.02246 0.053914-0.0022 0.011232-0.0067 0.024711 0.03145-0.00449 0.06739-0.024711 0.03594-0.020218 0.07189-0.044928 0.03594-0.024711 0.06739-0.051668 0.03145-0.029203 0.05616-0.049421 0.02246-0.020218 0.04942-0.017971 0.02696 0.00225 0.04718 0.022464 0.01797 0.022464 0.01572 0.049421 0 0.026957-0.02247 0.047175-0.05167 0.047175-0.10558 0.089857-0.05391 0.040436-0.11008 0.071885-0.05391 0.029203-0.11007 0.042682-0.05616 0.011232-0.11008-0.00225-0.03594-0.013478-0.05167-0.044928-0.01348-0.03145-9e-3 -0.067393 0.0067-0.038189 0.02696-0.096596-0.02471 0.022464-0.05167 0.042682-0.02471 0.020218-0.05391 0.044928-0.31 0.24486-0.48298 0.24486z" opacity=".25"/>
  <path d="m8.8033 5.8778q-0.01797 0-0.0337-0.00225-0.01348-0.00225-0.0292-0.00674-0.04044-0.011232-0.05616-0.047175-0.02022-0.044928 0-0.10783 0.02246-0.065146 0.07189-0.16623 9e-3 -0.017971 0.01797-0.040436 9e-3 -0.022464 0.02022-0.042682-0.0292 0.011232-0.0629 0.038189-0.03145 0.024711-0.06515 0.051668-0.02247 0.017971-0.04942 0.013479-0.0292-0.00449-0.04717-0.024711-0.01797-0.022464-0.01348-0.049421 0.0045-0.026957 0.02471-0.047175 0.03145-0.022464 0.06515-0.049421t0.07188-0.044928q0.0921-0.047175 0.16848-0.024711 0.03594 0.00674 0.05391 0.044928 0.01797 0.038189-0.0022 0.089857-0.01797 0.051668-0.0629 0.14602-0.01123 0.026957-0.02471 0.053914-0.01123 0.026957-0.02246 0.051668-0.0045 0.00899-0.0067 0.015725-0.0022 0.00674-0.0045 0.013478 0.02246-0.00225 0.05616-0.013478 0.03594-0.011232 0.08087-0.033696 0.04717-0.024711 0.10783-0.065146 0.06065-0.040436 0.13928-0.10109 0.06065-0.049421 0.11457-0.096596 0.05391-0.047175 0.09435-0.085364t0.06515-0.0629 0.02471-0.024711q0.02696-0.03145 0.06515-0.020218 0.01797 0.00449 0.0292 0.015725 0.01123 0.011232 0.01797 0.022464 0.01572 0.03145 0.0022 0.074132-0.01348 0.042682-0.04942 0.13254-0.01348 0.029203-0.02696 0.058407-0.01123 0.029204-0.02246 0.053914-0.0022 0.011232-0.0067 0.024711 0.03145-0.00449 0.06739-0.024711 0.03594-0.020218 0.07189-0.044928 0.03594-0.024711 0.06739-0.051668 0.03145-0.029203 0.05616-0.049421 0.02246-0.020218 0.04942-0.017971 0.02696 0.00225 0.04717 0.022464 0.01797 0.022464 0.01572 0.049421 0 0.026957-0.02246 0.047175-0.05167 0.047175-0.10558 0.089857-0.05391 0.040436-0.11007 0.071885-0.05391 0.029203-0.11008 0.042682-0.05616 0.011232-0.11007-0.00225-0.03594-0.013478-0.05167-0.044928-0.01348-0.03145-9e-3 -0.067393 0.0067-0.038189 0.02696-0.096596-0.02471 0.022464-0.05167 0.042682-0.02471 0.020218-0.05391 0.044928-0.31001 0.24486-0.48298 0.24486z" opacity=".25"/>
  <path d="m9.9967 5.8778q-0.01797 0-0.0337-0.00225-0.01348-0.00225-0.0292-0.00674-0.04044-0.011232-0.05616-0.047175-0.02022-0.044928 0-0.10783 0.02246-0.065146 0.07189-0.16623 9e-3 -0.017971 0.01797-0.040436 9e-3 -0.022464 0.02022-0.042682-0.0292 0.011232-0.0629 0.038189-0.03145 0.024711-0.06515 0.051668-0.02246 0.017971-0.04942 0.013479-0.0292-0.00449-0.04717-0.024711-0.01797-0.022464-0.01348-0.049421 0.0045-0.026957 0.02471-0.047175 0.03145-0.022464 0.06515-0.049421t0.07189-0.044928q0.0921-0.047175 0.16848-0.024711 0.03594 0.00674 0.05391 0.044928 0.01797 0.038189-0.0022 0.089857-0.01797 0.051668-0.0629 0.14602-0.01123 0.026957-0.02471 0.053914-0.01123 0.026957-0.02246 0.051668-0.0045 0.00899-0.0067 0.015725-0.0022 0.00674-0.0045 0.013478 0.02246-0.00225 0.05616-0.013478 0.03594-0.011232 0.08087-0.033696 0.04717-0.024711 0.10783-0.065146 0.06065-0.040436 0.13928-0.10109 0.06065-0.049421 0.11457-0.096596 0.05391-0.047175 0.09435-0.085364t0.06515-0.0629 0.02471-0.024711q0.02696-0.03145 0.06515-0.020218 0.01797 0.00449 0.0292 0.015725 0.01123 0.011232 0.01797 0.022464 0.01572 0.03145 0.0022 0.074132-0.01348 0.042682-0.04942 0.13254-0.01348 0.029203-0.02696 0.058407-0.01123 0.029204-0.02246 0.053914-0.0022 0.011232-0.0067 0.024711 0.03145-0.00449 0.06739-0.024711 0.03594-0.020218 0.07189-0.044928 0.03594-0.024711 0.06739-0.051668 0.03145-0.029203 0.05616-0.049421 0.02246-0.020218 0.04942-0.017971 0.02696 0.00225 0.04717 0.022464 0.01797 0.022464 0.01572 0.049421 0 0.026957-0.02247 0.047175-0.05167 0.047175-0.10558 0.089857-0.05391 0.040436-0.11008 0.071885-0.05391 0.029203-0.11007 0.042682-0.05616 0.011232-0.11008-0.00225-0.03594-0.013478-0.05167-0.044928-0.01348-0.03145-9e-3 -0.067393 0.0067-0.038189 0.02696-0.096596-0.02471 0.022464-0.05167 0.042682-0.02471 0.020218-0.05391 0.044928-0.31 0.24486-0.48298 0.24486z" opacity=".25"/>
  <path d="m12.283 5.8778q-0.01797 0-0.0337-0.00225-0.01348-0.00225-0.0292-0.00674-0.04044-0.011232-0.05616-0.047175-0.02022-0.044928 0-0.10783 0.02246-0.065146 0.07189-0.16623 9e-3 -0.017971 0.01797-0.040436 9e-3 -0.022464 0.02022-0.042682-0.0292 0.011232-0.0629 0.038189-0.03145 0.024711-0.06515 0.051668-0.02246 0.017971-0.04942 0.013479-0.0292-0.00449-0.04717-0.024711-0.01797-0.022464-0.01348-0.049421 0.0045-0.026957 0.02471-0.047175 0.03145-0.022464 0.06515-0.049421t0.07189-0.044928q0.0921-0.047175 0.16848-0.024711 0.03594 0.00674 0.05391 0.044928 0.01797 0.038189-0.0022 0.089857-0.01797 0.051668-0.0629 0.14602-0.01123 0.026957-0.02471 0.053914-0.01123 0.026957-0.02246 0.051668-0.0045 0.00899-0.0067 0.015725-0.0022 0.00674-0.0045 0.013478 0.02246-0.00225 0.05616-0.013478 0.03594-0.011232 0.08087-0.033696 0.04717-0.024711 0.10783-0.065146 0.06065-0.040436 0.13928-0.10109 0.06065-0.049421 0.11457-0.096596 0.05391-0.047175 0.09435-0.085364t0.06515-0.0629 0.02471-0.024711q0.02696-0.03145 0.06515-0.020218 0.01797 0.00449 0.0292 0.015725 0.01123 0.011232 0.01797 0.022464 0.01572 0.03145 0.0022 0.074132-0.01348 0.042682-0.04942 0.13254-0.01348 0.029203-0.02696 0.058407-0.01123 0.029204-0.02246 0.053914-0.0022 0.011232-0.0067 0.024711 0.03145-0.00449 0.06739-0.024711 0.03594-0.020218 0.07189-0.044928 0.03594-0.024711 0.06739-0.051668 0.03145-0.029203 0.05616-0.049421 0.02246-0.020218 0.04942-0.017971 0.02696 0.00225 0.04718 0.022464 0.01797 0.022464 0.01572 0.049421 0 0.026957-0.02246 0.047175-0.05167 0.047175-0.10558 0.089857-0.05391 0.040436-0.11008 0.071885-0.05391 0.029203-0.11007 0.042682-0.05616 0.011232-0.11008-0.00225-0.03594-0.013478-0.05167-0.044928-0.01348-0.03145-9e-3 -0.067393 0.0067-0.038189 0.02696-0.096596-0.02471 0.022464-0.05167 0.042682-0.02471 0.020218-0.05391 0.044928-0.31 0.24486-0.48298 0.24486z" opacity=".25"/>
  <path d="m13.579 5.8823q-0.01123 0-0.02246-0.00225-0.01123 0-0.02471-0.00225-0.02696-0.00899-0.04493-0.038189-0.0067-0.013478-9e-3 -0.03145-0.0022-0.020218 0.0045-0.058407 9e-3 -0.038189 0.02696-0.10334 0.02022-0.067393 0.05391-0.17297-0.05167 0.017971-0.11457 0.042682t-0.13029 0.049421q-0.02471 0.00899-0.04942-0.00225-0.02696-0.013478-0.03819-0.040436-9e-3 -0.024711 0.0045-0.049421 0.01123-0.026957 0.03819-0.038189 0.07189-0.026957 0.13928-0.051668t0.11906-0.042682q0.05167-0.020218 0.08312-0.03145 0.03145-0.013478 0.03145-0.013478 0.02246-0.00899 0.04268-0.00225 0.0292 0.00674 0.04268 0.033696 0.01123 0.020218 0.0067 0.035943-0.0022 0.015725-0.0067 0.033696-0.0045 0.00899-0.0067 0.020218-0.0022 0.00899-0.0067 0.022464-0.01572 0.038189-0.0337 0.09435-0.01572 0.053914-0.0337 0.11007-0.01123 0.03145-0.01797 0.053914-0.0067 0.022464-0.01123 0.040436 0.04268-0.00899 0.12355-0.051668 0.06964-0.038189 0.14826-0.08761t0.16399-0.10783q0.01797-0.011232 0.03594-0.022464t0.03594-0.024711q0.02471-0.015725 0.05167-0.00899 0.02696 0.00449 0.04493 0.029203 0.01572 0.024711 9e-3 0.051668-0.0045 0.024711-0.0292 0.040436-0.01797 0.013478-0.03819 0.026957-0.01797 0.011232-0.03819 0.024711-0.08536 0.05616-0.16624 0.10783-0.08087 0.051668-0.15276 0.089857-0.14602 0.076378-0.23138 0.076378z" opacity=".25"/>
 </g>
 <g fill="#333">
  <path d="m5.5433 5.728q-0.01797 0-0.0337-0.00225-0.01348-0.00225-0.0292-0.00674-0.04044-0.011232-0.05616-0.047175-0.02022-0.044928 0-0.10783 0.02246-0.065146 0.07189-0.16623 9e-3 -0.017971 0.01797-0.040436 9e-3 -0.022464 0.02022-0.042682-0.0292 0.011232-0.0629 0.038189-0.03145 0.024711-0.06515 0.051668-0.02246 0.017971-0.04942 0.013478-0.0292-0.00449-0.04717-0.024711-0.01797-0.022464-0.01348-0.049421 0.0045-0.026957 0.02471-0.047175 0.03145-0.022464 0.06515-0.049421t0.07189-0.044928q0.0921-0.047175 0.16848-0.024711 0.03594 0.00674 0.05391 0.044928 0.01797 0.038189-0.0022 0.089857-0.01797 0.051668-0.0629 0.14602-0.01123 0.026957-0.02471 0.053914-0.01123 0.026957-0.02246 0.051668-0.0045 0.00899-0.0067 0.015725-0.0022 0.00674-0.0045 0.013479 0.02246-0.00225 0.05616-0.013479 0.03594-0.011232 0.08087-0.033696 0.04717-0.024711 0.10783-0.065146 0.06065-0.040436 0.13928-0.10109 0.06065-0.049421 0.11457-0.096596 0.05391-0.047175 0.09435-0.085364t0.06515-0.0629 0.02471-0.024711q0.02696-0.03145 0.06515-0.020218 0.01797 0.00449 0.0292 0.015725 0.01123 0.011232 0.01797 0.022464 0.01572 0.03145 0.0022 0.074132-0.01348 0.042682-0.04942 0.13254-0.01348 0.029203-0.02696 0.058407-0.01123 0.029203-0.02246 0.053914-0.0022 0.011232-0.0067 0.024711 0.03145-0.00449 0.06739-0.024711 0.03594-0.020218 0.07189-0.044928 0.03594-0.024711 0.06739-0.051668 0.03145-0.029203 0.05616-0.049421 0.02246-0.020218 0.04942-0.017971 0.02696 0.00225 0.04717 0.022464 0.01797 0.022464 0.01572 0.049421 0 0.026957-0.02246 0.047175-0.05167 0.047175-0.10558 0.089857-0.05391 0.040436-0.11008 0.071885-0.05391 0.029203-0.11007 0.042682-0.05616 0.011232-0.11008-0.00225-0.03594-0.013478-0.05167-0.044928-0.01348-0.03145-9e-3 -0.067393 0.0067-0.038189 0.02696-0.096596-0.02471 0.022464-0.05167 0.042682-0.02471 0.020218-0.05391 0.044928-0.31 0.24486-0.48298 0.24486z" opacity=".25"/>
  <path d="m7.0692 5.6q-0.02696 0-0.04493-0.015725-0.03594-0.029204-0.02022-0.074132 0-0.00225 0.01572-0.053914 0.01797-0.051668 0.04044-0.11681 0.01123-0.038189 0.02022-0.065146 9e-3 -0.029203 0.01572-0.051668-0.04718 0.017971-0.10783 0.040436-0.06065 0.022464-0.13029 0.049421-0.06739 0.024711-0.13928 0.051668t-0.13928 0.051668q-0.02471 0.00899-0.04942-0.00225-0.02696-0.013479-0.03819-0.040436-9e-3 -0.024711 0.0045-0.049421 0.01123-0.026957 0.03819-0.038189 0.10109-0.035943 0.20892-0.076378 0.11008-0.040436 0.19993-0.074132 0.08986-0.033696 0.14826-0.05616 0.06065-0.022464 0.06065-0.022464 0.01123-0.00225 0.02022-0.00225 0.01123-0.00225 0.02246 0.00225 0.03145 0.00449 0.04493 0.035943 0.01123 0.017971 9e-3 0.047175 0 0.026957-0.01123 0.078625-0.0067 0.029204-0.01797 0.065146-9e-3 0.033696-0.02471 0.078625-0.0022 0.00899-0.0045 0.015725-0.0022 0.00674-0.0045 0.015725 0.08986-0.049421 0.22015-0.10334 0.02471-0.011232 0.04942 0 0.02471 0.00899 0.03594 0.033696 0.01348 0.024711 0.0022 0.051668-0.01123 0.026957-0.03594 0.038189-0.07638 0.033696-0.14152 0.065146-0.06515 0.03145-0.11232 0.05616-0.05616 0.029203-0.10109 0.053914-0.01348 0.011232-0.0337 0.011232z" opacity=".25"/>
  <path d="m7.6099 5.728q-0.01797 0-0.0337-0.00225-0.01348-0.00225-0.0292-0.00674-0.04044-0.011232-0.05616-0.047175-0.02022-0.044928 0-0.10783 0.02247-0.065146 0.07189-0.16623 9e-3 -0.017971 0.01797-0.040436 9e-3 -0.022464 0.02022-0.042682-0.0292 0.011232-0.0629 0.038189-0.03145 0.024711-0.06515 0.051668-0.02246 0.017971-0.04942 0.013478-0.0292-0.00449-0.04717-0.024711-0.01797-0.022464-0.01348-0.049421 0.0045-0.026957 0.02471-0.047175 0.03145-0.022464 0.06515-0.049421t0.07189-0.044928q0.0921-0.047175 0.16848-0.024711 0.03594 0.00674 0.05391 0.044928 0.01797 0.038189-0.0022 0.089857-0.01797 0.051668-0.0629 0.14602-0.01123 0.026957-0.02471 0.053914-0.01123 0.026957-0.02246 0.051668-0.0045 0.00899-0.0067 0.015725-0.0022 0.00674-0.0045 0.013479 0.02246-0.00225 0.05616-0.013479 0.03594-0.011232 0.08087-0.033696 0.04717-0.024711 0.10783-0.065146 0.06065-0.040436 0.13928-0.10109 0.06065-0.049421 0.11457-0.096596 0.05391-0.047175 0.09435-0.085364t0.06515-0.0629 0.02471-0.024711q0.02696-0.03145 0.06515-0.020218 0.01797 0.00449 0.0292 0.015725 0.01123 0.011232 0.01797 0.022464 0.01572 0.03145 0.0022 0.074132-0.01348 0.042682-0.04942 0.13254-0.01348 0.029203-0.02696 0.058407-0.01123 0.029203-0.02246 0.053914-0.0022 0.011232-0.0067 0.024711 0.03145-0.00449 0.06739-0.024711 0.03594-0.020218 0.07189-0.044928 0.03594-0.024711 0.06739-0.051668 0.03145-0.029203 0.05616-0.049421 0.02246-0.020218 0.04942-0.017971 0.02696 0.00225 0.04718 0.022464 0.01797 0.022464 0.01572 0.049421 0 0.026957-0.02247 0.047175-0.05167 0.047175-0.10558 0.089857-0.05391 0.040436-0.11008 0.071885-0.05391 0.029203-0.11007 0.042682-0.05616 0.011232-0.11008-0.00225-0.03594-0.013478-0.05167-0.044928-0.01348-0.03145-9e-3 -0.067393 0.0067-0.038189 0.02696-0.096596-0.02471 0.022464-0.05167 0.042682-0.02471 0.020218-0.05391 0.044928-0.31 0.24486-0.48298 0.24486z" opacity=".25"/>
  <path d="m8.8033 5.728q-0.01797 0-0.0337-0.00225-0.01348-0.00225-0.0292-0.00674-0.04044-0.011232-0.05616-0.047175-0.02022-0.044928 0-0.10783 0.02246-0.065146 0.07189-0.16623 9e-3 -0.017971 0.01797-0.040436 9e-3 -0.022464 0.02022-0.042682-0.0292 0.011232-0.0629 0.038189-0.03145 0.024711-0.06515 0.051668-0.02247 0.017971-0.04942 0.013478-0.0292-0.00449-0.04717-0.024711-0.01797-0.022464-0.01348-0.049421 0.0045-0.026957 0.02471-0.047175 0.03145-0.022464 0.06515-0.049421t0.07188-0.044928q0.0921-0.047175 0.16848-0.024711 0.03594 0.00674 0.05391 0.044928 0.01797 0.038189-0.0022 0.089857-0.01797 0.051668-0.0629 0.14602-0.01123 0.026957-0.02471 0.053914-0.01123 0.026957-0.02246 0.051668-0.0045 0.00899-0.0067 0.015725-0.0022 0.00674-0.0045 0.013479 0.02246-0.00225 0.05616-0.013479 0.03594-0.011232 0.08087-0.033696 0.04717-0.024711 0.10783-0.065146 0.06065-0.040436 0.13928-0.10109 0.06065-0.049421 0.11457-0.096596 0.05391-0.047175 0.09435-0.085364t0.06515-0.0629 0.02471-0.024711q0.02696-0.03145 0.06515-0.020218 0.01797 0.00449 0.0292 0.015725 0.01123 0.011232 0.01797 0.022464 0.01572 0.03145 0.0022 0.074132-0.01348 0.042682-0.04942 0.13254-0.01348 0.029203-0.02696 0.058407-0.01123 0.029203-0.02246 0.053914-0.0022 0.011232-0.0067 0.024711 0.03145-0.00449 0.06739-0.024711 0.03594-0.020218 0.07189-0.044928 0.03594-0.024711 0.06739-0.051668 0.03145-0.029203 0.05616-0.049421 0.02246-0.020218 0.04942-0.017971 0.02696 0.00225 0.04717 0.022464 0.01797 0.022464 0.01572 0.049421 0 0.026957-0.02246 0.047175-0.05167 0.047175-0.10558 0.089857-0.05391 0.040436-0.11007 0.071885-0.05391 0.029203-0.11008 0.042682-0.05616 0.011232-0.11007-0.00225-0.03594-0.013478-0.05167-0.044928-0.01348-0.03145-9e-3 -0.067393 0.0067-0.038189 0.02696-0.096596-0.02471 0.022464-0.05167 0.042682-0.02471 0.020218-0.05391 0.044928-0.31001 0.24486-0.48298 0.24486z" opacity=".25"/>
  <path d="m9.9967 5.728q-0.01797 0-0.0337-0.00225-0.01348-0.00225-0.0292-0.00674-0.04044-0.011232-0.05616-0.047175-0.02022-0.044928 0-0.10783 0.02246-0.065146 0.07189-0.16623 9e-3 -0.017971 0.01797-0.040436 9e-3 -0.022464 0.02022-0.042682-0.0292 0.011232-0.0629 0.038189-0.03145 0.024711-0.06515 0.051668-0.02246 0.017971-0.04942 0.013478-0.0292-0.00449-0.04717-0.024711-0.01797-0.022464-0.01348-0.049421 0.0045-0.026957 0.02471-0.047175 0.03145-0.022464 0.06515-0.049421t0.07189-0.044928q0.0921-0.047175 0.16848-0.024711 0.03594 0.00674 0.05391 0.044928 0.01797 0.038189-0.0022 0.089857-0.01797 0.051668-0.0629 0.14602-0.01123 0.026957-0.02471 0.053914-0.01123 0.026957-0.02246 0.051668-0.0045 0.00899-0.0067 0.015725-0.0022 0.00674-0.0045 0.013479 0.02246-0.00225 0.05616-0.013479 0.03594-0.011232 0.08087-0.033696 0.04717-0.024711 0.10783-0.065146 0.06065-0.040436 0.13928-0.10109 0.06065-0.049421 0.11457-0.096596 0.05391-0.047175 0.09435-0.085364t0.06515-0.0629 0.02471-0.024711q0.02696-0.03145 0.06515-0.020218 0.01797 0.00449 0.0292 0.015725 0.01123 0.011232 0.01797 0.022464 0.01572 0.03145 0.0022 0.074132-0.01348 0.042682-0.04942 0.13254-0.01348 0.029203-0.02696 0.058407-0.01123 0.029203-0.02246 0.053914-0.0022 0.011232-0.0067 0.024711 0.03145-0.00449 0.06739-0.024711 0.03594-0.020218 0.07189-0.044928 0.03594-0.024711 0.06739-0.051668 0.03145-0.029203 0.05616-0.049421 0.02246-0.020218 0.04942-0.017971 0.02696 0.00225 0.04717 0.022464 0.01797 0.022464 0.01572 0.049421 0 0.026957-0.02247 0.047175-0.05167 0.047175-0.10558 0.089857-0.05391 0.040436-0.11008 0.071885-0.05391 0.029203-0.11007 0.042682-0.05616 0.011232-0.11008-0.00225-0.03594-0.013478-0.05167-0.044928-0.01348-0.03145-9e-3 -0.067393 0.0067-0.038189 0.02696-0.096596-0.02471 0.022464-0.05167 0.042682-0.02471 0.020218-0.05391 0.044928-0.31 0.24486-0.48298 0.24486z" opacity=".25"/>
  <path d="m12.283 5.728q-0.01797 0-0.0337-0.00225-0.01348-0.00225-0.0292-0.00674-0.04044-0.011232-0.05616-0.047175-0.02022-0.044928 0-0.10783 0.02246-0.065146 0.07189-0.16623 9e-3 -0.017971 0.01797-0.040436 9e-3 -0.022464 0.02022-0.042682-0.0292 0.011232-0.0629 0.038189-0.03145 0.024711-0.06515 0.051668-0.02246 0.017971-0.04942 0.013478-0.0292-0.00449-0.04717-0.024711-0.01797-0.022464-0.01348-0.049421 0.0045-0.026957 0.02471-0.047175 0.03145-0.022464 0.06515-0.049421t0.07189-0.044928q0.0921-0.047175 0.16848-0.024711 0.03594 0.00674 0.05391 0.044928 0.01797 0.038189-0.0022 0.089857-0.01797 0.051668-0.0629 0.14602-0.01123 0.026957-0.02471 0.053914-0.01123 0.026957-0.02246 0.051668-0.0045 0.00899-0.0067 0.015725-0.0022 0.00674-0.0045 0.013479 0.02246-0.00225 0.05616-0.013479 0.03594-0.011232 0.08087-0.033696 0.04717-0.024711 0.10783-0.065146 0.06065-0.040436 0.13928-0.10109 0.06065-0.049421 0.11457-0.096596 0.05391-0.047175 0.09435-0.085364t0.06515-0.0629 0.02471-0.024711q0.02696-0.03145 0.06515-0.020218 0.01797 0.00449 0.0292 0.015725 0.01123 0.011232 0.01797 0.022464 0.01572 0.03145 0.0022 0.074132-0.01348 0.042682-0.04942 0.13254-0.01348 0.029203-0.02696 0.058407-0.01123 0.029203-0.02246 0.053914-0.0022 0.011232-0.0067 0.024711 0.03145-0.00449 0.06739-0.024711 0.03594-0.020218 0.07189-0.044928 0.03594-0.024711 0.06739-0.051668 0.03145-0.029203 0.05616-0.049421 0.02246-0.020218 0.04942-0.017971 0.02696 0.00225 0.04718 0.022464 0.01797 0.022464 0.01572 0.049421 0 0.026957-0.02246 0.047175-0.05167 0.047175-0.10558 0.089857-0.05391 0.040436-0.11008 0.071885-0.05391 0.029203-0.11007 0.042682-0.05616 0.011232-0.11008-0.00225-0.03594-0.013478-0.05167-0.044928-0.01348-0.03145-9e-3 -0.067393 0.0067-0.038189 0.02696-0.096596-0.02471 0.022464-0.05167 0.042682-0.02471 0.020218-0.05391 0.044928-0.31 0.24486-0.48298 0.24486z" opacity=".25"/>
  <path d="m13.579 5.7325q-0.01123 0-0.02246-0.00225-0.01123 0-0.02471-0.00225-0.02696-0.00899-0.04493-0.038189-0.0067-0.013478-9e-3 -0.03145-0.0022-0.020218 0.0045-0.058407 9e-3 -0.038189 0.02696-0.10334 0.02022-0.067393 0.05391-0.17297-0.05167 0.017971-0.11457 0.042682t-0.13029 0.049421q-0.02471 0.00899-0.04942-0.00225-0.02696-0.013479-0.03819-0.040436-9e-3 -0.024711 0.0045-0.049421 0.01123-0.026957 0.03819-0.038189 0.07189-0.026957 0.13928-0.051668t0.11906-0.042682q0.05167-0.020218 0.08312-0.03145 0.03145-0.013478 0.03145-0.013478 0.02246-0.00899 0.04268-0.00225 0.0292 0.00674 0.04268 0.033696 0.01123 0.020218 0.0067 0.035943-0.0022 0.015725-0.0067 0.033696-0.0045 0.00899-0.0067 0.020218-0.0022 0.00899-0.0067 0.022464-0.01572 0.038189-0.0337 0.09435-0.01572 0.053914-0.0337 0.11007-0.01123 0.03145-0.01797 0.053914-0.0067 0.022464-0.01123 0.040436 0.04268-0.00899 0.12355-0.051668 0.06964-0.038189 0.14826-0.08761t0.16399-0.10783q0.01797-0.011232 0.03594-0.022464t0.03594-0.024711q0.02471-0.015725 0.05167-0.00899 0.02696 0.00449 0.04493 0.029203 0.01572 0.024711 9e-3 0.051668-0.0045 0.024711-0.0292 0.040436-0.01797 0.013478-0.03819 0.026957-0.01797 0.011232-0.03819 0.024711-0.08536 0.05616-0.16624 0.10783-0.08087 0.051668-0.15276 0.089857-0.14602 0.076378-0.23138 0.076378z" opacity=".25"/>
 </g>
 <g fill="#fff">
  <path d="m5.4398 7.9929q-0.01797 0-0.0337-0.00225-0.01348-0.00225-0.0292-0.00674-0.04044-0.011232-0.05616-0.047175-0.02022-0.044928 0-0.10783 0.02246-0.065146 0.07189-0.16623 9e-3 -0.017971 0.01797-0.040436 9e-3 -0.022464 0.02022-0.042682-0.0292 0.011232-0.0629 0.038189-0.03145 0.024711-0.06515 0.051668-0.02246 0.017971-0.04942 0.013478-0.0292-0.00449-0.04717-0.024711-0.01797-0.022464-0.01348-0.049421 0.0045-0.026957 0.02471-0.047175 0.03145-0.022464 0.06515-0.049421t0.07189-0.044928q0.0921-0.047175 0.16848-0.024711 0.03594 0.00674 0.05391 0.044928 0.01797 0.038189-0.0022 0.089857-0.01797 0.051668-0.0629 0.14602-0.01123 0.026957-0.02471 0.053914-0.01123 0.026957-0.02246 0.051668-0.0045 0.00899-0.0067 0.015725-0.0022 0.00674-0.0045 0.013478 0.02246-0.00225 0.05616-0.013478 0.03594-0.011232 0.08087-0.033696 0.04717-0.024711 0.10783-0.065146 0.06065-0.040436 0.13928-0.10109 0.06065-0.049421 0.11457-0.096596 0.05391-0.047175 0.09435-0.085364t0.06515-0.0629 0.02471-0.024711q0.02696-0.03145 0.06515-0.020218 0.01797 0.00449 0.0292 0.015725 0.01123 0.011232 0.01797 0.022464 0.01572 0.03145 0.0022 0.074132-0.01348 0.042682-0.04942 0.13254-0.01348 0.029203-0.02696 0.058407-0.01123 0.029203-0.02246 0.053914-0.0022 0.011232-0.0067 0.024711 0.03145-0.00449 0.06739-0.024711 0.03594-0.020218 0.07189-0.044928 0.03594-0.024711 0.06739-0.051668 0.03145-0.029203 0.05616-0.049421 0.02246-0.020218 0.04942-0.017971 0.02696 0.00225 0.04717 0.022464 0.01797 0.022464 0.01572 0.049421 0 0.026957-0.02246 0.047175-0.05167 0.047175-0.10558 0.089857-0.05391 0.040436-0.11008 0.071885-0.05391 0.029203-0.11007 0.042682-0.05616 0.011232-0.11008-0.00225-0.03594-0.013478-0.05167-0.044928-0.01348-0.03145-9e-3 -0.067393 0.0067-0.038189 0.02696-0.096596-0.02471 0.022464-0.05167 0.042682-0.02471 0.020218-0.05391 0.044928-0.31 0.24486-0.48298 0.24486z" opacity=".25"/>
  <path d="m6.6333 7.9929q-0.01797 0-0.0337-0.00225-0.01348-0.00225-0.0292-0.00674-0.04043-0.011232-0.05616-0.047175-0.02022-0.044928 0-0.10783 0.02246-0.065146 0.07189-0.16623 9e-3 -0.017971 0.01797-0.040436 9e-3 -0.022464 0.02022-0.042682-0.0292 0.011232-0.0629 0.038189-0.03145 0.024711-0.06515 0.051668-0.02247 0.017971-0.04942 0.013478-0.0292-0.00449-0.04717-0.024711-0.01797-0.022464-0.01348-0.049421 0.0045-0.026957 0.02471-0.047175 0.03145-0.022464 0.06515-0.049421t0.07188-0.044928q0.0921-0.047175 0.16848-0.024711 0.03594 0.00674 0.05391 0.044928 0.01797 0.038189-0.0022 0.089857-0.01797 0.051668-0.0629 0.14602-0.01123 0.026957-0.02471 0.053914-0.01123 0.026957-0.02246 0.051668-0.0045 0.00899-0.0067 0.015725-0.0022 0.00674-0.0045 0.013478 0.02246-0.00225 0.05616-0.013478 0.03594-0.011232 0.08087-0.033696 0.04717-0.024711 0.10783-0.065146 0.06065-0.040436 0.13928-0.10109 0.06065-0.049421 0.11457-0.096596 0.05391-0.047175 0.09435-0.085364 0.04043-0.038189 0.06515-0.0629 0.02471-0.024711 0.02471-0.024711 0.02696-0.03145 0.06515-0.020218 0.01797 0.00449 0.0292 0.015725 0.01123 0.011232 0.01797 0.022464 0.01572 0.03145 0.0022 0.074132-0.01348 0.042682-0.04942 0.13254-0.01348 0.029203-0.02696 0.058407-0.01123 0.029203-0.02246 0.053914-0.0022 0.011232-0.0067 0.024711 0.03145-0.00449 0.06739-0.024711 0.03594-0.020218 0.07188-0.044928 0.03594-0.024711 0.06739-0.051668 0.03145-0.029203 0.05616-0.049421 0.02246-0.020218 0.04942-0.017971 0.02696 0.00225 0.04718 0.022464 0.01797 0.022464 0.01572 0.049421 0 0.026957-0.02246 0.047175-0.05167 0.047175-0.10558 0.089857-0.05391 0.040436-0.11007 0.071885-0.05391 0.029203-0.11008 0.042682-0.05616 0.011232-0.11007-0.00225-0.03594-0.013478-0.05167-0.044928-0.01348-0.03145-9e-3 -0.067393 0.0067-0.038189 0.02696-0.096596-0.02471 0.022464-0.05167 0.042682-0.02471 0.020218-0.05391 0.044928-0.31001 0.24486-0.48298 0.24486z" opacity=".25"/>
  <path d="m7.9457 7.7975q-0.01123 0-0.01797-0.00225-0.03594-0.00899-0.05167-0.026957-0.01348-0.020218-0.01797-0.03145-0.01797-0.049421 9e-3 -0.10109 0.0292-0.053914 0.07189-0.11232 0.01348-0.017971 0.02471-0.038189t0.02246-0.038189q0.0022-0.00225 0.0067-0.00899-0.01348 0.00449-0.0337 0.013478-0.01797 0.00899-0.04268 0.026957-0.04043 0.024711-0.08536 0.065146-0.04493 0.038189-0.0921 0.080871-0.01123 0.011232-0.02471 0.022464-0.01123 0.00899-0.02247 0.020218-0.02022 0.017971-0.04717 0.017971-0.0292-0.00225-0.04717-0.02471-0.02022-0.020218-0.01797-0.047175 0.0022-0.029203 0.02246-0.047175 0.01123-0.011232 0.02471-0.020218 0.01123-0.011232 0.02247-0.022464 0.05391-0.049421 0.10558-0.092103 0.05391-0.044928 0.10334-0.076378 0.05167-0.03145 0.10109-0.044928 0.05167-0.015725 0.09884-0.00225 0.03819 0.011232 0.05391 0.03145t0.02022 0.035943q0.02022 0.051668-9e-3 0.10558-0.0292 0.053914-0.07413 0.11906-0.0045 0.00449-0.01123 0.015725-0.0045 0.00899-0.01123 0.017971 0.0337-0.013478 0.08536-0.03145 0.05391-0.020218 0.13254-0.051668 0.0292-0.00899 0.05391 0.00449 0.02471 0.011232 0.0337 0.038189 0.01123 0.024711-0.0022 0.051668-0.01123 0.024711-0.03594 0.035943-0.07189 0.024711-0.13029 0.044928-0.05841 0.020218-0.09884 0.035943-0.02246 0.00899-0.04044 0.015725-0.01572 0.00449-0.0292 0.00899-0.01797 0.00449-0.0292 0.00899-9e-3 0.00225-0.02022 0.00225z" opacity=".25"/>
  <path d="m8.4453 7.9929q-0.01797 0-0.0337-0.00225-0.01348-0.00225-0.0292-0.00674-0.04043-0.011232-0.05616-0.047175-0.02022-0.044928 0-0.10783 0.02246-0.065146 0.07188-0.16623 9e-3 -0.017971 0.01797-0.040436 9e-3 -0.022464 0.02022-0.042682-0.0292 0.011232-0.0629 0.038189-0.03145 0.024711-0.06515 0.051668-0.02246 0.017971-0.04942 0.013478-0.0292-0.00449-0.04717-0.024711-0.01797-0.022464-0.01348-0.049421 0.0045-0.026957 0.02471-0.047175 0.03145-0.022464 0.06515-0.049421t0.07189-0.044928q0.0921-0.047175 0.16848-0.024711 0.03594 0.00674 0.05391 0.044928 0.01797 0.038189-0.0022 0.089857-0.01797 0.051668-0.0629 0.14602-0.01123 0.026957-0.02471 0.053914-0.01123 0.026957-0.02246 0.051668-0.0045 0.00899-0.0067 0.015725-0.0022 0.00674-0.0045 0.013478 0.02246-0.00225 0.05616-0.013478 0.03594-0.011232 0.08087-0.033696 0.04717-0.024711 0.10783-0.065146 0.06065-0.040436 0.13928-0.10109 0.06065-0.049421 0.11457-0.096596 0.05391-0.047175 0.09435-0.085364 0.04043-0.038189 0.06515-0.0629 0.02471-0.024711 0.02471-0.024711 0.02696-0.03145 0.06515-0.020218 0.01797 0.00449 0.0292 0.015725 0.01123 0.011232 0.01797 0.022464 0.01572 0.03145 0.0022 0.074132-0.01348 0.042682-0.04942 0.13254-0.01348 0.029203-0.02696 0.058407-0.01123 0.029203-0.02247 0.053914-0.0022 0.011232-0.0067 0.024711 0.03145-0.00449 0.06739-0.024711 0.03594-0.020218 0.07188-0.044928 0.03594-0.024711 0.06739-0.051668 0.03145-0.029203 0.05616-0.049421 0.02246-0.020218 0.04942-0.017971 0.02696 0.00225 0.04717 0.022464 0.01797 0.022464 0.01572 0.049421 0 0.026957-0.02246 0.047175-0.05167 0.047175-0.10558 0.089857-0.05391 0.040436-0.11007 0.071885-0.05391 0.029203-0.11008 0.042682-0.05616 0.011232-0.11007-0.00225-0.03594-0.013478-0.05167-0.044928-0.01348-0.03145-9e-3 -0.067393 0.0067-0.038189 0.02696-0.096596-0.02471 0.022464-0.05167 0.042682-0.02471 0.020218-0.05391 0.044928-0.31001 0.24486-0.48298 0.24486z" opacity=".25"/>
  <path d="m9.9712 7.8648q-0.02696 0-0.04493-0.015725-0.03594-0.029203-0.02022-0.074132 0-0.00225 0.01572-0.053914 0.01797-0.051668 0.04044-0.11681 0.01123-0.038189 0.02022-0.065146 9e-3 -0.029203 0.01573-0.051668-0.04717 0.017971-0.10783 0.040436-0.06065 0.022464-0.13029 0.049421-0.06739 0.024711-0.13928 0.051668-0.07188 0.026957-0.13928 0.051668-0.02471 0.00899-0.04942-0.00225-0.02696-0.013478-0.03819-0.040435-9e-3 -0.024711 0.0045-0.049421 0.01123-0.026957 0.03819-0.038189 0.10109-0.035943 0.20892-0.076378 0.11007-0.040436 0.19993-0.074132t0.14826-0.056161q0.06065-0.022464 0.06065-0.022464 0.01123-0.00225 0.02022-0.00225 0.01123-0.00225 0.02246 0.00225 0.03145 0.00449 0.04493 0.035943 0.01123 0.017971 9e-3 0.047175 0 0.026957-0.01123 0.078625-0.0067 0.029204-0.01797 0.065146-9e-3 0.033696-0.02471 0.078625-0.0022 0.00899-0.0045 0.015725-0.0022 0.00674-0.0045 0.015725 0.08986-0.049421 0.22015-0.10334 0.02471-0.011232 0.04942 0 0.02471 0.00899 0.03594 0.033696 0.01348 0.024711 0.0022 0.051668-0.01123 0.026957-0.03594 0.038189-0.07638 0.033696-0.14152 0.065146-0.06515 0.03145-0.11232 0.056161-0.05616 0.029203-0.10109 0.053914-0.01348 0.011232-0.0337 0.011232z" opacity=".25"/>
  <path d="m11.121 7.8424q-0.01572 0-0.0292-0.00449-0.04268-0.00899-0.06065-0.051668-0.01348-0.038189 0.0067-0.085364 0.02022-0.047175 0.05841-0.10558 0.01348-0.020218 0.02471-0.040435 0.01348-0.022464 0.02247-0.040436 0.0067-0.00899 0.01123-0.022464-0.06739-0.011232-0.15725-0.00449-0.08761 0.00449-0.19768 0.033696-0.09884 0.024711-0.20892 0.065146-0.11008 0.038189-0.23363 0.092103-0.02471 0.011232-0.04942 0.00225-0.02471-0.011232-0.03594-0.035943-0.01348-0.024711-0.0022-0.051668 0.01123-0.026957 0.03594-0.038189 0.12805-0.05616 0.24037-0.096596 0.11457-0.042682 0.22015-0.067393 0.27631-0.069639 0.45153-0.022464 0.05167 0.013478 0.07189 0.0629 0.02022 0.051668-9e-3 0.11232-0.0292 0.058407-0.06964 0.12355-0.0045 0.00449-9e-3 0.011232-0.0022 0.00674-0.0067 0.015725 0.05167-0.011232 0.15051-0.044928 0.10109-0.033696 0.2808-0.098842 0.02471-0.00899 0.04942 0.00449 0.02696 0.011232 0.03594 0.038189 0.01123 0.024711 0 0.051668-0.01123 0.024711-0.04043 0.035943-0.10334 0.035943-0.1887 0.065146t-0.15276 0.049421q-0.0921 0.026957-0.13928 0.038189-0.04493 0.00899-0.06964 0.00899z" opacity=".25"/>
  <path d="m12.169 7.8648q-0.02696 0-0.04493-0.015725-0.03594-0.029203-0.02022-0.074132 0-0.00225 0.01572-0.053914 0.01797-0.051668 0.04044-0.11681 0.01123-0.038189 0.02022-0.065146 9e-3 -0.029203 0.01572-0.051668-0.04717 0.017971-0.10783 0.040436-0.06065 0.022464-0.13029 0.049421-0.06739 0.024711-0.13928 0.051668-0.07188 0.026957-0.13928 0.051668-0.02471 0.00899-0.04942-0.00225-0.02696-0.013478-0.03819-0.040435-9e-3 -0.024711 0.0045-0.049421 0.01123-0.026957 0.03819-0.038189 0.10109-0.035943 0.20892-0.076378 0.11007-0.040436 0.19993-0.074132t0.14826-0.056161q0.06065-0.022464 0.06065-0.022464 0.01123-0.00225 0.02022-0.00225 0.01123-0.00225 0.02246 0.00225 0.03145 0.00449 0.04493 0.035943 0.01123 0.017971 9e-3 0.047175 0 0.026957-0.01123 0.078625-0.0067 0.029204-0.01797 0.065146-9e-3 0.033696-0.02471 0.078625-0.0022 0.00899-0.0045 0.015725-0.0022 0.00674-0.0045 0.015725 0.08986-0.049421 0.22015-0.10334 0.02471-0.011232 0.04942 0 0.02471 0.00899 0.03594 0.033696 0.01348 0.024711 0.0022 0.051668-0.01123 0.026957-0.03594 0.038189-0.07638 0.033696-0.14152 0.065146-0.06515 0.03145-0.11232 0.056161-0.05616 0.029203-0.10109 0.053914-0.01348 0.011232-0.0337 0.011232z" opacity=".25"/>
  <path d="m13.042 7.8648q-0.02696 0-0.04493-0.015725-0.03594-0.029203-0.02022-0.074132 0-0.00225 0.01572-0.053914 0.01797-0.051668 0.04043-0.11681 0.01123-0.038189 0.02022-0.065146 9e-3 -0.029203 0.01573-0.051668-0.04718 0.017971-0.10783 0.040436-0.06065 0.022464-0.13029 0.049421-0.06739 0.024711-0.13928 0.051668t-0.13928 0.051668q-0.02471 0.00899-0.04942-0.00225-0.02696-0.013478-0.03819-0.040435-9e-3 -0.024711 0.0045-0.049421 0.01123-0.026957 0.03819-0.038189 0.10109-0.035943 0.20892-0.076378 0.11008-0.040436 0.19993-0.074132 0.08986-0.033696 0.14826-0.056161 0.06065-0.022464 0.06065-0.022464 0.01123-0.00225 0.02022-0.00225 0.01123-0.00225 0.02246 0.00225 0.03145 0.00449 0.04493 0.035943 0.01123 0.017971 9e-3 0.047175 0 0.026957-0.01123 0.078625-0.0067 0.029204-0.01797 0.065146-9e-3 0.033696-0.02471 0.078625-0.0022 0.00899-0.0045 0.015725-0.0022 0.00674-0.0045 0.015725 0.08986-0.049421 0.22015-0.10334 0.02471-0.011232 0.04942 0 0.02471 0.00899 0.03594 0.033696 0.01348 0.024711 0.0022 0.051668-0.01123 0.026957-0.03594 0.038189-0.07638 0.033696-0.14152 0.065146-0.06515 0.03145-0.11232 0.056161-0.05616 0.029203-0.10109 0.053914-0.01348 0.011232-0.0337 0.011232z" opacity=".25"/>
 </g>
 <g fill="#333">
  <path d="m5.4398 7.8431q-0.01797 0-0.0337-0.00225-0.01348-0.00225-0.0292-0.00674-0.04044-0.011232-0.05616-0.047175-0.02022-0.044928 0-0.10783 0.02246-0.065146 0.07189-0.16623 9e-3 -0.017971 0.01797-0.040436 9e-3 -0.022464 0.02022-0.042682-0.0292 0.011232-0.0629 0.038189-0.03145 0.024711-0.06515 0.051668-0.02246 0.017971-0.04942 0.013478-0.0292-0.00449-0.04717-0.024711-0.01797-0.022464-0.01348-0.049421 0.0045-0.026957 0.02471-0.047175 0.03145-0.022464 0.06515-0.049421t0.07189-0.044928q0.0921-0.047175 0.16848-0.024711 0.03594 0.00674 0.05391 0.044928 0.01797 0.038189-0.0022 0.089857-0.01797 0.051668-0.0629 0.14602-0.01123 0.026957-0.02471 0.053914-0.01123 0.026957-0.02246 0.051668-0.0045 0.00899-0.0067 0.015725-0.0022 0.00674-0.0045 0.013478 0.02246-0.00225 0.05616-0.013478 0.03594-0.011232 0.08087-0.033696 0.04717-0.024711 0.10783-0.065146 0.06065-0.040435 0.13928-0.10109 0.06065-0.049421 0.11457-0.096596 0.05391-0.047175 0.09435-0.085364t0.06515-0.0629 0.02471-0.024711q0.02696-0.03145 0.06515-0.020218 0.01797 0.00449 0.0292 0.015725 0.01123 0.011232 0.01797 0.022464 0.01572 0.03145 0.0022 0.074132-0.01348 0.042682-0.04942 0.13254-0.01348 0.029203-0.02696 0.058407-0.01123 0.029203-0.02246 0.053914-0.0022 0.011232-0.0067 0.024711 0.03145-0.00449 0.06739-0.024711 0.03594-0.020218 0.07189-0.044928 0.03594-0.024711 0.06739-0.051668 0.03145-0.029203 0.05616-0.049421 0.02246-0.020218 0.04942-0.017971 0.02696 0.00225 0.04717 0.022464 0.01797 0.022464 0.01572 0.049421 0 0.026957-0.02246 0.047175-0.05167 0.047175-0.10558 0.089857-0.05391 0.040435-0.11008 0.071885-0.05391 0.029203-0.11007 0.042682-0.05616 0.011232-0.11008-0.00225-0.03594-0.013479-0.05167-0.044928-0.01348-0.03145-9e-3 -0.067393 0.0067-0.038189 0.02696-0.096596-0.02471 0.022464-0.05167 0.042682-0.02471 0.020218-0.05391 0.044928-0.31 0.24486-0.48298 0.24486z" opacity=".25"/>
  <path d="m6.6333 7.8431q-0.01797 0-0.0337-0.00225-0.01348-0.00225-0.0292-0.00674-0.04043-0.011232-0.05616-0.047175-0.02022-0.044928 0-0.10783 0.02246-0.065146 0.07189-0.16623 9e-3 -0.017971 0.01797-0.040436 9e-3 -0.022464 0.02022-0.042682-0.0292 0.011232-0.0629 0.038189-0.03145 0.024711-0.06515 0.051668-0.02247 0.017971-0.04942 0.013478-0.0292-0.00449-0.04717-0.024711-0.01797-0.022464-0.01348-0.049421 0.0045-0.026957 0.02471-0.047175 0.03145-0.022464 0.06515-0.049421t0.07188-0.044928q0.0921-0.047175 0.16848-0.024711 0.03594 0.00674 0.05391 0.044928 0.01797 0.038189-0.0022 0.089857-0.01797 0.051668-0.0629 0.14602-0.01123 0.026957-0.02471 0.053914-0.01123 0.026957-0.02246 0.051668-0.0045 0.00899-0.0067 0.015725-0.0022 0.00674-0.0045 0.013478 0.02246-0.00225 0.05616-0.013478 0.03594-0.011232 0.08087-0.033696 0.04717-0.024711 0.10783-0.065146 0.06065-0.040435 0.13928-0.10109 0.06065-0.049421 0.11457-0.096596 0.05391-0.047175 0.09435-0.085364 0.04043-0.038189 0.06515-0.0629 0.02471-0.024711 0.02471-0.024711 0.02696-0.03145 0.06515-0.020218 0.01797 0.00449 0.0292 0.015725 0.01123 0.011232 0.01797 0.022464 0.01572 0.03145 0.0022 0.074132-0.01348 0.042682-0.04942 0.13254-0.01348 0.029203-0.02696 0.058407-0.01123 0.029203-0.02246 0.053914-0.0022 0.011232-0.0067 0.024711 0.03145-0.00449 0.06739-0.024711 0.03594-0.020218 0.07188-0.044928 0.03594-0.024711 0.06739-0.051668 0.03145-0.029203 0.05616-0.049421 0.02246-0.020218 0.04942-0.017971 0.02696 0.00225 0.04718 0.022464 0.01797 0.022464 0.01572 0.049421 0 0.026957-0.02246 0.047175-0.05167 0.047175-0.10558 0.089857-0.05391 0.040435-0.11007 0.071885-0.05391 0.029203-0.11008 0.042682-0.05616 0.011232-0.11007-0.00225-0.03594-0.013479-0.05167-0.044928-0.01348-0.03145-9e-3 -0.067393 0.0067-0.038189 0.02696-0.096596-0.02471 0.022464-0.05167 0.042682-0.02471 0.020218-0.05391 0.044928-0.31001 0.24486-0.48298 0.24486z" opacity=".25"/>
  <path d="m7.9457 7.6477q-0.01123 0-0.01797-0.00225-0.03594-0.00899-0.05167-0.026957-0.01348-0.020218-0.01797-0.03145-0.01797-0.049421 9e-3 -0.10109 0.0292-0.053914 0.07189-0.11232 0.01348-0.017971 0.02471-0.038189t0.02246-0.038189q0.0022-0.00225 0.0067-0.00899-0.01348 0.00449-0.0337 0.013478-0.01797 0.00899-0.04268 0.026957-0.04043 0.024711-0.08536 0.065146-0.04493 0.038189-0.0921 0.080871-0.01123 0.011232-0.02471 0.022464-0.01123 0.00899-0.02247 0.020218-0.02022 0.017971-0.04717 0.017971-0.0292-0.00225-0.04717-0.02471-0.02022-0.020218-0.01797-0.047175 0.0022-0.029203 0.02246-0.047175 0.01123-0.011232 0.02471-0.020218 0.01123-0.011232 0.02247-0.022464 0.05391-0.049421 0.10558-0.092103 0.05391-0.044928 0.10334-0.076378 0.05167-0.03145 0.10109-0.044928 0.05167-0.015725 0.09884-0.00225 0.03819 0.011232 0.05391 0.03145t0.02022 0.035943q0.02022 0.051668-9e-3 0.10558-0.0292 0.053914-0.07413 0.11906-0.0045 0.00449-0.01123 0.015725-0.0045 0.00899-0.01123 0.017971 0.0337-0.013478 0.08536-0.03145 0.05391-0.020218 0.13254-0.051668 0.0292-0.00899 0.05391 0.00449 0.02471 0.011232 0.0337 0.038189 0.01123 0.024711-0.0022 0.051668-0.01123 0.024711-0.03594 0.035943-0.07189 0.024711-0.13029 0.044928-0.05841 0.020218-0.09884 0.035943-0.02246 0.00899-0.04044 0.015725-0.01572 0.00449-0.0292 0.00899-0.01797 0.00449-0.0292 0.00899-9e-3 0.00225-0.02022 0.00225z" opacity=".25"/>
  <path d="m8.4453 7.8431q-0.01797 0-0.0337-0.00225-0.01348-0.00225-0.0292-0.00674-0.04043-0.011232-0.05616-0.047175-0.02022-0.044928 0-0.10783 0.02246-0.065146 0.07188-0.16623 9e-3 -0.017971 0.01797-0.040436 9e-3 -0.022464 0.02022-0.042682-0.0292 0.011232-0.0629 0.038189-0.03145 0.024711-0.06515 0.051668-0.02246 0.017971-0.04942 0.013478-0.0292-0.00449-0.04717-0.024711-0.01797-0.022464-0.01348-0.049421 0.0045-0.026957 0.02471-0.047175 0.03145-0.022464 0.06515-0.049421t0.07189-0.044928q0.0921-0.047175 0.16848-0.024711 0.03594 0.00674 0.05391 0.044928 0.01797 0.038189-0.0022 0.089857-0.01797 0.051668-0.0629 0.14602-0.01123 0.026957-0.02471 0.053914-0.01123 0.026957-0.02246 0.051668-0.0045 0.00899-0.0067 0.015725-0.0022 0.00674-0.0045 0.013478 0.02246-0.00225 0.05616-0.013478 0.03594-0.011232 0.08087-0.033696 0.04717-0.024711 0.10783-0.065146 0.06065-0.040435 0.13928-0.10109 0.06065-0.049421 0.11457-0.096596 0.05391-0.047175 0.09435-0.085364 0.04043-0.038189 0.06515-0.0629 0.02471-0.024711 0.02471-0.024711 0.02696-0.03145 0.06515-0.020218 0.01797 0.00449 0.0292 0.015725 0.01123 0.011232 0.01797 0.022464 0.01572 0.03145 0.0022 0.074132-0.01348 0.042682-0.04942 0.13254-0.01348 0.029203-0.02696 0.058407-0.01123 0.029203-0.02247 0.053914-0.0022 0.011232-0.0067 0.024711 0.03145-0.00449 0.06739-0.024711 0.03594-0.020218 0.07188-0.044928 0.03594-0.024711 0.06739-0.051668 0.03145-0.029203 0.05616-0.049421 0.02246-0.020218 0.04942-0.017971 0.02696 0.00225 0.04717 0.022464 0.01797 0.022464 0.01572 0.049421 0 0.026957-0.02246 0.047175-0.05167 0.047175-0.10558 0.089857-0.05391 0.040435-0.11007 0.071885-0.05391 0.029203-0.11008 0.042682-0.05616 0.011232-0.11007-0.00225-0.03594-0.013479-0.05167-0.044928-0.01348-0.03145-9e-3 -0.067393 0.0067-0.038189 0.02696-0.096596-0.02471 0.022464-0.05167 0.042682-0.02471 0.020218-0.05391 0.044928-0.31001 0.24486-0.48298 0.24486z" opacity=".25"/>
  <path d="m9.9712 7.7151q-0.02696 0-0.04493-0.015725-0.03594-0.029203-0.02022-0.074132 0-0.00225 0.01572-0.053914 0.01797-0.051668 0.04044-0.11681 0.01123-0.038189 0.02022-0.065146 9e-3 -0.029203 0.01573-0.051668-0.04717 0.017971-0.10783 0.040436-0.06065 0.022464-0.13029 0.049421-0.06739 0.024711-0.13928 0.051668-0.07188 0.026957-0.13928 0.051668-0.02471 0.00899-0.04942-0.00225-0.02696-0.013478-0.03819-0.040435-9e-3 -0.024711 0.0045-0.049421 0.01123-0.026957 0.03819-0.038189 0.10109-0.035943 0.20892-0.076378 0.11007-0.040436 0.19993-0.074132t0.14826-0.05616q0.06065-0.022464 0.06065-0.022464 0.01123-0.00225 0.02022-0.00225 0.01123-0.00225 0.02246 0.00225 0.03145 0.00449 0.04493 0.035943 0.01123 0.017971 9e-3 0.047175 0 0.026957-0.01123 0.078625-0.0067 0.029203-0.01797 0.065146-9e-3 0.033696-0.02471 0.078625-0.0022 0.00899-0.0045 0.015725-0.0022 0.00674-0.0045 0.015725 0.08986-0.049421 0.22015-0.10334 0.02471-0.011232 0.04942 0 0.02471 0.00899 0.03594 0.033696 0.01348 0.024711 0.0022 0.051668-0.01123 0.026957-0.03594 0.038189-0.07638 0.033696-0.14152 0.065146-0.06515 0.03145-0.11232 0.05616-0.05616 0.029203-0.10109 0.053914-0.01348 0.011232-0.0337 0.011232z" opacity=".25"/>
  <path d="m11.121 7.6926q-0.01572 0-0.0292-0.00449-0.04268-0.00899-0.06065-0.051668-0.01348-0.038189 0.0067-0.085364 0.02022-0.047175 0.05841-0.10558 0.01348-0.020218 0.02471-0.040435 0.01348-0.022464 0.02247-0.040435 0.0067-0.00899 0.01123-0.022464-0.06739-0.011232-0.15725-0.00449-0.08761 0.00449-0.19768 0.033696-0.09884 0.024711-0.20892 0.065146-0.11008 0.038189-0.23363 0.092103-0.02471 0.011232-0.04942 0.00225-0.02471-0.011232-0.03594-0.035943-0.01348-0.024711-0.0022-0.051668 0.01123-0.026957 0.03594-0.038189 0.12805-0.05616 0.24037-0.096596 0.11457-0.042682 0.22015-0.067393 0.27631-0.069639 0.45153-0.022464 0.05167 0.013478 0.07189 0.0629 0.02022 0.051668-9e-3 0.11232-0.0292 0.058407-0.06964 0.12355-0.0045 0.00449-9e-3 0.011232-0.0022 0.00674-0.0067 0.015725 0.05167-0.011232 0.15051-0.044928 0.10109-0.033696 0.2808-0.098842 0.02471-0.00899 0.04942 0.00449 0.02696 0.011232 0.03594 0.038189 0.01123 0.024711 0 0.051668-0.01123 0.024711-0.04043 0.035943-0.10334 0.035943-0.1887 0.065146t-0.15276 0.049421q-0.0921 0.026957-0.13928 0.038189-0.04493 0.00899-0.06964 0.00899z" opacity=".25"/>
  <path d="m12.169 7.7151q-0.02696 0-0.04493-0.015725-0.03594-0.029203-0.02022-0.074132 0-0.00225 0.01572-0.053914 0.01797-0.051668 0.04044-0.11681 0.01123-0.038189 0.02022-0.065146 9e-3 -0.029203 0.01572-0.051668-0.04717 0.017971-0.10783 0.040436-0.06065 0.022464-0.13029 0.049421-0.06739 0.024711-0.13928 0.051668-0.07188 0.026957-0.13928 0.051668-0.02471 0.00899-0.04942-0.00225-0.02696-0.013478-0.03819-0.040435-9e-3 -0.024711 0.0045-0.049421 0.01123-0.026957 0.03819-0.038189 0.10109-0.035943 0.20892-0.076378 0.11007-0.040436 0.19993-0.074132t0.14826-0.05616q0.06065-0.022464 0.06065-0.022464 0.01123-0.00225 0.02022-0.00225 0.01123-0.00225 0.02246 0.00225 0.03145 0.00449 0.04493 0.035943 0.01123 0.017971 9e-3 0.047175 0 0.026957-0.01123 0.078625-0.0067 0.029203-0.01797 0.065146-9e-3 0.033696-0.02471 0.078625-0.0022 0.00899-0.0045 0.015725-0.0022 0.00674-0.0045 0.015725 0.08986-0.049421 0.22015-0.10334 0.02471-0.011232 0.04942 0 0.02471 0.00899 0.03594 0.033696 0.01348 0.024711 0.0022 0.051668-0.01123 0.026957-0.03594 0.038189-0.07638 0.033696-0.14152 0.065146-0.06515 0.03145-0.11232 0.05616-0.05616 0.029203-0.10109 0.053914-0.01348 0.011232-0.0337 0.011232z" opacity=".25"/>
  <path d="m13.042 7.7151q-0.02696 0-0.04493-0.015725-0.03594-0.029203-0.02022-0.074132 0-0.00225 0.01572-0.053914 0.01797-0.051668 0.04043-0.11681 0.01123-0.038189 0.02022-0.065146 9e-3 -0.029203 0.01573-0.051668-0.04718 0.017971-0.10783 0.040436-0.06065 0.022464-0.13029 0.049421-0.06739 0.024711-0.13928 0.051668t-0.13928 0.051668q-0.02471 0.00899-0.04942-0.00225-0.02696-0.013478-0.03819-0.040435-9e-3 -0.024711 0.0045-0.049421 0.01123-0.026957 0.03819-0.038189 0.10109-0.035943 0.20892-0.076378 0.11008-0.040436 0.19993-0.074132 0.08986-0.033696 0.14826-0.05616 0.06065-0.022464 0.06065-0.022464 0.01123-0.00225 0.02022-0.00225 0.01123-0.00225 0.02246 0.00225 0.03145 0.00449 0.04493 0.035943 0.01123 0.017971 9e-3 0.047175 0 0.026957-0.01123 0.078625-0.0067 0.029203-0.01797 0.065146-9e-3 0.033696-0.02471 0.078625-0.0022 0.00899-0.0045 0.015725-0.0022 0.00674-0.0045 0.015725 0.08986-0.049421 0.22015-0.10334 0.02471-0.011232 0.04942 0 0.02471 0.00899 0.03594 0.033696 0.01348 0.024711 0.0022 0.051668-0.01123 0.026957-0.03594 0.038189-0.07638 0.033696-0.14152 0.065146-0.06515 0.03145-0.11232 0.05616-0.05616 0.029203-0.10109 0.053914-0.01348 0.011232-0.0337 0.011232z" opacity=".25"/>
 </g>
 <g fill="#fff">
  <path d="m5.4278 10q-0.01797 0-0.0337-0.0022-0.01348-0.0022-0.0292-0.0067-0.04044-0.01123-0.05616-0.04717-0.02022-0.04493 0-0.10783 0.02246-0.06515 0.07189-0.16624 9e-3 -0.01797 0.01797-0.04044 9e-3 -0.02247 0.02022-0.04268-0.0292 0.01123-0.0629 0.03819-0.03145 0.02471-0.06515 0.05167-0.02246 0.01797-0.04942 0.01348-0.0292-0.0045-0.04717-0.02471-0.01797-0.02246-0.01348-0.04942 0.0045-0.02696 0.02471-0.04717 0.03145-0.02246 0.06515-0.04942t0.07189-0.04493q0.0921-0.04717 0.16848-0.02471 0.03594 0.0067 0.05391 0.04493 0.01797 0.03819-0.0022 0.08986-0.01797 0.05167-0.0629 0.14602-0.01123 0.02696-0.02471 0.05391-0.01123 0.02696-0.02246 0.05167-0.0045 9e-3 -0.0067 0.01573-0.0022 0.0067-0.0045 0.01348 0.02246-0.0022 0.05616-0.01348 0.03594-0.01123 0.08087-0.0337 0.04717-0.02471 0.10783-0.06515 0.06065-0.04044 0.13928-0.10109 0.06065-0.04942 0.11457-0.0966 0.05391-0.04717 0.09435-0.08536t0.06515-0.0629 0.02471-0.02471q0.02696-0.03145 0.06515-0.02022 0.01797 0.0045 0.0292 0.01572 0.01123 0.01123 0.01797 0.02246 0.01572 0.03145 0.0022 0.07413-0.01348 0.04268-0.04942 0.13254-0.01348 0.0292-0.02696 0.05841-0.01123 0.0292-0.02246 0.05391-0.0022 0.01123-0.0067 0.02471 0.03145-0.0045 0.06739-0.02471 0.03594-0.02022 0.07189-0.04493 0.03594-0.02471 0.06739-0.05167 0.03145-0.0292 0.05616-0.04942 0.02246-0.02022 0.04942-0.01797 0.02696 0.0022 0.04717 0.02246 0.01797 0.02246 0.01572 0.04942 0 0.02696-0.02246 0.04718-0.05167 0.04717-0.10558 0.08986-0.05391 0.04044-0.11008 0.07188-0.05391 0.0292-0.11007 0.04268-0.05616 0.01123-0.11008-0.0022-0.03594-0.01348-0.05167-0.04493-0.01348-0.03145-9e-3 -0.06739 0.0067-0.03819 0.02696-0.0966-0.02471 0.02246-0.05167 0.04268-0.02471 0.02022-0.05391 0.04493-0.31 0.24486-0.48298 0.24486z" opacity=".25"/>
  <path d="m6.6212 10q-0.01797 0-0.0337-0.0022-0.01348-0.0022-0.0292-0.0067-0.04043-0.01123-0.05616-0.04717-0.02022-0.04493 0-0.10783 0.02246-0.06515 0.07189-0.16624 9e-3 -0.01797 0.01797-0.04044 9e-3 -0.02247 0.02022-0.04268-0.0292 0.01123-0.0629 0.03819-0.03145 0.02471-0.06515 0.05167-0.02247 0.01797-0.04942 0.01348-0.0292-0.0045-0.04717-0.02471-0.01797-0.02246-0.01348-0.04942 0.0045-0.02696 0.02471-0.04717 0.03145-0.02246 0.06515-0.04942t0.07188-0.04493q0.0921-0.04717 0.16848-0.02471 0.03594 0.0067 0.05391 0.04493 0.01797 0.03819-0.0022 0.08986-0.01797 0.05167-0.0629 0.14602-0.01123 0.02696-0.02471 0.05391-0.01123 0.02696-0.02246 0.05167-0.0045 9e-3 -0.0067 0.01573-0.0022 0.0067-0.0045 0.01348 0.02246-0.0022 0.05616-0.01348 0.03594-0.01123 0.08087-0.0337 0.04717-0.02471 0.10783-0.06515 0.06065-0.04044 0.13928-0.10109 0.06065-0.04942 0.11457-0.0966 0.05391-0.04717 0.09435-0.08536 0.04043-0.03819 0.06515-0.0629 0.02471-0.02471 0.02471-0.02471 0.02696-0.03145 0.06515-0.02022 0.01797 0.0045 0.0292 0.01572 0.01123 0.01123 0.01797 0.02246 0.01572 0.03145 0.0022 0.07413-0.01348 0.04268-0.04942 0.13254-0.01348 0.0292-0.02696 0.05841-0.01123 0.0292-0.02246 0.05391-0.0022 0.01123-0.0067 0.02471 0.03145-0.0045 0.06739-0.02471 0.03594-0.02022 0.07188-0.04493t0.06739-0.05167q0.03145-0.0292 0.05616-0.04942 0.02246-0.02022 0.04942-0.01797 0.02696 0.0022 0.04718 0.02246 0.01797 0.02246 0.01572 0.04942 0 0.02696-0.02246 0.04718-0.05167 0.04717-0.10558 0.08986-0.05391 0.04044-0.11007 0.07188-0.05391 0.0292-0.11008 0.04268-0.05616 0.01123-0.11007-0.0022-0.03594-0.01348-0.05167-0.04493-0.01348-0.03145-9e-3 -0.06739 0.0067-0.03819 0.02696-0.0966-0.02471 0.02246-0.05167 0.04268-0.02471 0.02022-0.05391 0.04493-0.31001 0.24486-0.48298 0.24486z" opacity=".25"/>
  <path d="m8.4234 9.8497q-0.01572 0-0.0292-0.0045-0.04268-9e-3 -0.06065-0.05167-0.01348-0.03819 0.0067-0.08536 0.02022-0.04717 0.05841-0.10558 0.01348-0.02022 0.02471-0.04044 0.01348-0.02246 0.02246-0.04043 0.0067-9e-3 0.01123-0.02247-0.06739-0.01123-0.15725-0.0045-0.08761 0.0045-0.19768 0.0337-0.09884 0.02471-0.20892 0.06515-0.11007 0.03819-0.23363 0.0921-0.02471 0.01123-0.04942 0.0022-0.02471-0.01123-0.03594-0.03594-0.01348-0.02471-0.0022-0.05167 0.01123-0.02696 0.03594-0.03819 0.12805-0.05616 0.24037-0.0966 0.11457-0.04268 0.22015-0.06739 0.27631-0.06964 0.45153-0.02247 0.05167 0.01348 0.07188 0.0629 0.02022 0.05167-9e-3 0.11232-0.0292 0.05841-0.06964 0.12355-0.0045 0.0045-9e-3 0.01123-0.0022 0.0067-0.0067 0.01572 0.05167-0.01123 0.15051-0.04493 0.10109-0.0337 0.2808-0.09884 0.02471-9e-3 0.04942 0.0045 0.02696 0.01123 0.03594 0.03819 0.01123 0.02471 0 0.05167-0.01123 0.02471-0.04044 0.03594-0.10334 0.03594-0.1887 0.06515-0.08536 0.0292-0.15276 0.04942-0.0921 0.02696-0.13928 0.03819-0.04493 9e-3 -0.06964 9e-3z" opacity=".25"/>
  <path d="m9.2587 9.8048q-0.01123 0-0.01797-0.0022-0.03594-9e-3 -0.05167-0.02696-0.01348-0.02022-0.01797-0.03145-0.01797-0.04942 9e-3 -0.10109 0.0292-0.05391 0.07188-0.11232 0.01348-0.01797 0.02471-0.03819t0.02246-0.03819q0.0022-0.0022 0.0067-9e-3 -0.01348 0.0045-0.0337 0.01348-0.01797 9e-3 -0.04268 0.02696-0.04044 0.02471-0.08536 0.06515-0.04493 0.03819-0.0921 0.08087-0.01123 0.01123-0.02471 0.02246-0.01123 9e-3 -0.02246 0.02022-0.02022 0.01797-0.04717 0.01797-0.0292-0.0022-0.04717-0.02471-0.02022-0.02022-0.01797-0.04717 0.0022-0.0292 0.02246-0.04717 0.01123-0.01123 0.02471-0.02022 0.01123-0.01123 0.02246-0.02246 0.05391-0.04942 0.10558-0.0921 0.05391-0.04493 0.10334-0.07638 0.05167-0.03145 0.10109-0.04493 0.05167-0.01572 0.09884-0.0022 0.03819 0.01123 0.05391 0.03145t0.02022 0.03594q0.02022 0.05167-9e-3 0.10558-0.0292 0.05391-0.07413 0.11906-0.0045 0.0045-0.01123 0.01572-0.0045 9e-3 -0.01123 0.01797 0.0337-0.01348 0.08536-0.03145 0.05391-0.02022 0.13254-0.05167 0.0292-9e-3 0.05391 0.0045 0.02471 0.01123 0.0337 0.03819 0.01123 0.02471-0.0022 0.05167-0.01123 0.02471-0.03594 0.03594-0.07188 0.02471-0.13029 0.04493t-0.09884 0.03594q-0.02246 9e-3 -0.04043 0.01572-0.01572 0.0045-0.0292 9e-3 -0.01797 0.0045-0.0292 9e-3 -9e-3 0.0022-0.02022 0.0022z" opacity=".25"/>
  <path d="m9.8773 9.8048q-0.01123 0-0.01797-0.0022-0.03594-9e-3 -0.05167-0.02696-0.01348-0.02022-0.01797-0.03145-0.01797-0.04942 9e-3 -0.10109 0.0292-0.05391 0.07189-0.11232 0.01348-0.01797 0.02471-0.03819t0.02246-0.03819q0.0022-0.0022 0.0067-9e-3 -0.01348 0.0045-0.0337 0.01348-0.01797 9e-3 -0.04268 0.02696-0.04044 0.02471-0.08536 0.06515-0.04493 0.03819-0.0921 0.08087-0.01123 0.01123-0.02471 0.02246-0.01123 9e-3 -0.02246 0.02022-0.02022 0.01797-0.04717 0.01797-0.0292-0.0022-0.04717-0.02471-0.02022-0.02022-0.01797-0.04717 0.0022-0.0292 0.02246-0.04717 0.01123-0.01123 0.02471-0.02022 0.01123-0.01123 0.02247-0.02246 0.05391-0.04942 0.10558-0.0921 0.05391-0.04493 0.10334-0.07638 0.05167-0.03145 0.10109-0.04493 0.05167-0.01572 0.09884-0.0022 0.03819 0.01123 0.05391 0.03145t0.02022 0.03594q0.02022 0.05167-9e-3 0.10558-0.0292 0.05391-0.07413 0.11906-0.0045 0.0045-0.01123 0.01572-0.0045 9e-3 -0.01123 0.01797 0.0337-0.01348 0.08536-0.03145 0.05391-0.02022 0.13254-0.05167 0.0292-9e-3 0.05391 0.0045 0.02471 0.01123 0.0337 0.03819 0.01123 0.02471-0.0022 0.05167-0.01123 0.02471-0.03594 0.03594-0.07189 0.02471-0.13029 0.04493-0.05841 0.02022-0.09884 0.03594-0.02246 9e-3 -0.04044 0.01572-0.01572 0.0045-0.0292 9e-3 -0.01797 0.0045-0.0292 9e-3 -9e-3 0.0022-0.02022 0.0022z" opacity=".25"/>
  <path d="m10.709 9.8722q-0.02696 0-0.04493-0.01573-0.03594-0.0292-0.02022-0.07413 0-0.0022 0.01572-0.05391 0.01797-0.05167 0.04044-0.11681 0.01123-0.03819 0.02022-0.06515 9e-3 -0.0292 0.01572-0.05167-0.04717 0.01797-0.10783 0.04044-0.06065 0.02246-0.13029 0.04942-0.06739 0.02471-0.13928 0.05167t-0.13928 0.05167q-0.02471 9e-3 -0.04942-0.0022-0.02696-0.01348-0.03819-0.04044-9e-3 -0.02471 0.0045-0.04942 0.01123-0.02696 0.03819-0.03819 0.10109-0.03594 0.20892-0.07638 0.11008-0.04043 0.19993-0.07413 0.08986-0.0337 0.14826-0.05616 0.06065-0.02246 0.06065-0.02246 0.01123-0.0022 0.02022-0.0022 0.01123-0.0022 0.02246 0.0022 0.03145 0.0045 0.04493 0.03594 0.01123 0.01797 9e-3 0.04718 0 0.02696-0.01123 0.07862-0.0067 0.0292-0.01797 0.06515-9e-3 0.0337-0.02471 0.07862-0.0022 9e-3 -0.0045 0.01572-0.0022 0.0067-0.0045 0.01573 0.08986-0.04942 0.22015-0.10334 0.02471-0.01123 0.04942 0 0.02471 9e-3 0.03594 0.0337 0.01348 0.02471 0.0022 0.05167-0.01123 0.02696-0.03594 0.03819-0.07638 0.0337-0.14152 0.06515-0.06515 0.03145-0.11232 0.05616-0.05616 0.0292-0.10109 0.05391-0.01348 0.01123-0.0337 0.01123z" opacity=".25"/>
  <path d="m12.343 10q-0.01797 0-0.0337-0.0022-0.01348-0.0022-0.0292-0.0067-0.04043-0.01123-0.05616-0.04717-0.02022-0.04493 0-0.10783 0.02246-0.06515 0.07188-0.16624 9e-3 -0.01797 0.01797-0.04044 9e-3 -0.02247 0.02022-0.04268-0.0292 0.01123-0.0629 0.03819-0.03145 0.02471-0.06515 0.05167-0.02246 0.01797-0.04942 0.01348-0.0292-0.0045-0.04718-0.02471-0.01797-0.02246-0.01348-0.04942 0.0045-0.02696 0.02471-0.04717 0.03145-0.02246 0.06515-0.04942t0.07188-0.04493q0.0921-0.04717 0.16848-0.02471 0.03594 0.0067 0.05391 0.04493 0.01797 0.03819-0.0022 0.08986-0.01797 0.05167-0.0629 0.14602-0.01123 0.02696-0.02471 0.05391-0.01123 0.02696-0.02247 0.05167-0.0045 9e-3 -0.0067 0.01573-0.0022 0.0067-0.0045 0.01348 0.02247-0.0022 0.05616-0.01348 0.03594-0.01123 0.08087-0.0337 0.04718-0.02471 0.10783-0.06515t0.13928-0.10109q0.06065-0.04942 0.11457-0.0966 0.05391-0.04717 0.09435-0.08536 0.04043-0.03819 0.06515-0.0629 0.02471-0.02471 0.02471-0.02471 0.02696-0.03145 0.06515-0.02022 0.01797 0.0045 0.0292 0.01572 0.01123 0.01123 0.01797 0.02246 0.01572 0.03145 0.0022 0.07413-0.01348 0.04268-0.04942 0.13254-0.01348 0.0292-0.02696 0.05841-0.01123 0.0292-0.02247 0.05391-0.0022 0.01123-0.0067 0.02471 0.03145-0.0045 0.06739-0.02471 0.03594-0.02022 0.07188-0.04493t0.06739-0.05167q0.03145-0.0292 0.05616-0.04942 0.02246-0.02022 0.04942-0.01797 0.02696 0.0022 0.04717 0.02246 0.01797 0.02246 0.01573 0.04942 0 0.02696-0.02246 0.04718-0.05167 0.04717-0.10558 0.08986-0.05391 0.04044-0.11007 0.07188-0.05391 0.0292-0.11008 0.04268-0.05616 0.01123-0.11007-0.0022-0.03594-0.01348-0.05167-0.04493-0.01348-0.03145-9e-3 -0.06739 0.0067-0.03819 0.02696-0.0966-0.02471 0.02246-0.05167 0.04268-0.02471 0.02022-0.05391 0.04493-0.31001 0.24486-0.48298 0.24486z" opacity=".25"/>
  <path d="m13.639 10.005q-0.01123 0-0.02247-0.0022-0.01123 0-0.02471-0.0022-0.02696-9e-3 -0.04493-0.03819-0.0067-0.01348-9e-3 -0.03145-0.0022-0.02022 0.0045-0.05841 9e-3 -0.03819 0.02696-0.10334 0.02022-0.06739 0.05391-0.17298-0.05167 0.01797-0.11457 0.04268t-0.13029 0.04942q-0.02471 9e-3 -0.04942-0.0022-0.02696-0.01348-0.03819-0.04044-9e-3 -0.02471 0.0045-0.04942 0.01123-0.02696 0.03819-0.03819 0.07188-0.02696 0.13928-0.05167 0.06739-0.02471 0.11906-0.04268 0.05167-0.02022 0.08312-0.03145 0.03145-0.01348 0.03145-0.01348 0.02246-9e-3 0.04268-0.0022 0.0292 0.0067 0.04268 0.0337 0.01123 0.02022 0.0067 0.03594-0.0022 0.01573-0.0067 0.0337-0.0045 9e-3 -0.0067 0.02022-0.0022 9e-3 -0.0067 0.02246-0.01572 0.03819-0.0337 0.09435-0.01572 0.05391-0.0337 0.11007-0.01123 0.03145-0.01797 0.05391-0.0067 0.02246-0.01123 0.04044 0.04268-9e-3 0.12355-0.05167 0.06964-0.03819 0.14826-0.08761t0.16399-0.10783q0.01797-0.01123 0.03594-0.02246t0.03594-0.02471q0.02471-0.01572 0.05167-9e-3 0.02696 0.0045 0.04493 0.0292 0.01572 0.02471 9e-3 0.05167-0.0045 0.02471-0.0292 0.04044-0.01797 0.01348-0.03819 0.02696-0.01797 0.01123-0.03819 0.02471-0.08536 0.05616-0.16624 0.10783-0.08087 0.05167-0.15276 0.08986-0.14602 0.07638-0.23138 0.07638z" opacity=".25"/>
 </g>
 <g fill="#333">
  <path d="m5.4278 9.8505q-0.01797 0-0.0337-0.0022-0.01348-0.0022-0.0292-0.0067-0.04044-0.01123-0.05616-0.04717-0.02022-0.04493 0-0.10783 0.02246-0.06515 0.07189-0.16624 9e-3 -0.01797 0.01797-0.04044 9e-3 -0.02246 0.02022-0.04268-0.0292 0.01123-0.0629 0.03819-0.03145 0.02471-0.06515 0.05167-0.02246 0.01797-0.04942 0.01348-0.0292-0.0045-0.04717-0.02471-0.01797-0.02246-0.01348-0.04942 0.0045-0.02696 0.02471-0.04718 0.03145-0.02246 0.06515-0.04942t0.07189-0.04493q0.0921-0.04717 0.16848-0.02471 0.03594 0.0067 0.05391 0.04493 0.01797 0.03819-0.0022 0.08986-0.01797 0.05167-0.0629 0.14602-0.01123 0.02696-0.02471 0.05391-0.01123 0.02696-0.02246 0.05167-0.0045 9e-3 -0.0067 0.01572-0.0022 0.0067-0.0045 0.01348 0.02246-0.0022 0.05616-0.01348 0.03594-0.01123 0.08087-0.0337 0.04717-0.02471 0.10783-0.06515 0.06065-0.04044 0.13928-0.10109 0.06065-0.04942 0.11457-0.0966 0.05391-0.04717 0.09435-0.08536t0.06515-0.0629 0.02471-0.02471q0.02696-0.03145 0.06515-0.02022 0.01797 0.0045 0.0292 0.01572 0.01123 0.01123 0.01797 0.02246 0.01572 0.03145 0.0022 0.07413-0.01348 0.04268-0.04942 0.13254-0.01348 0.0292-0.02696 0.05841-0.01123 0.0292-0.02246 0.05391-0.0022 0.01123-0.0067 0.02471 0.03145-0.0045 0.06739-0.02471 0.03594-0.02022 0.07189-0.04493 0.03594-0.02471 0.06739-0.05167 0.03145-0.0292 0.05616-0.04942 0.02246-0.02022 0.04942-0.01797 0.02696 0.0022 0.04717 0.02246 0.01797 0.02246 0.01572 0.04942 0 0.02696-0.02246 0.04717-0.05167 0.04718-0.10558 0.08986-0.05391 0.04044-0.11008 0.07188-0.05391 0.0292-0.11007 0.04268-0.05616 0.01123-0.11008-0.0022-0.03594-0.01348-0.05167-0.04493-0.01348-0.03145-9e-3 -0.06739 0.0067-0.03819 0.02696-0.0966-0.02471 0.02246-0.05167 0.04268-0.02471 0.02022-0.05391 0.04493-0.31 0.24486-0.48298 0.24486z" opacity=".25"/>
  <path d="m6.6212 9.8505q-0.01797 0-0.0337-0.0022-0.01348-0.0022-0.0292-0.0067-0.04043-0.01123-0.05616-0.04717-0.02022-0.04493 0-0.10783 0.02246-0.06515 0.07189-0.16624 9e-3 -0.01797 0.01797-0.04044 9e-3 -0.02246 0.02022-0.04268-0.0292 0.01123-0.0629 0.03819-0.03145 0.02471-0.06515 0.05167-0.02247 0.01797-0.04942 0.01348-0.0292-0.0045-0.04717-0.02471-0.01797-0.02246-0.01348-0.04942 0.0045-0.02696 0.02471-0.04718 0.03145-0.02246 0.06515-0.04942t0.07188-0.04493q0.0921-0.04717 0.16848-0.02471 0.03594 0.0067 0.05391 0.04493 0.01797 0.03819-0.0022 0.08986-0.01797 0.05167-0.0629 0.14602-0.01123 0.02696-0.02471 0.05391-0.01123 0.02696-0.02246 0.05167-0.0045 9e-3 -0.0067 0.01572-0.0022 0.0067-0.0045 0.01348 0.02246-0.0022 0.05616-0.01348 0.03594-0.01123 0.08087-0.0337 0.04717-0.02471 0.10783-0.06515 0.06065-0.04044 0.13928-0.10109 0.06065-0.04942 0.11457-0.0966 0.05391-0.04717 0.09435-0.08536 0.04043-0.03819 0.06515-0.0629 0.02471-0.02471 0.02471-0.02471 0.02696-0.03145 0.06515-0.02022 0.01797 0.0045 0.0292 0.01572 0.01123 0.01123 0.01797 0.02246 0.01572 0.03145 0.0022 0.07413-0.01348 0.04268-0.04942 0.13254-0.01348 0.0292-0.02696 0.05841-0.01123 0.0292-0.02246 0.05391-0.0022 0.01123-0.0067 0.02471 0.03145-0.0045 0.06739-0.02471 0.03594-0.02022 0.07188-0.04493t0.06739-0.05167q0.03145-0.0292 0.05616-0.04942 0.02246-0.02022 0.04942-0.01797 0.02696 0.0022 0.04718 0.02246 0.01797 0.02246 0.01572 0.04942 0 0.02696-0.02246 0.04717-0.05167 0.04718-0.10558 0.08986-0.05391 0.04044-0.11007 0.07188-0.05391 0.0292-0.11008 0.04268-0.05616 0.01123-0.11007-0.0022-0.03594-0.01348-0.05167-0.04493-0.01348-0.03145-9e-3 -0.06739 0.0067-0.03819 0.02696-0.0966-0.02471 0.02246-0.05167 0.04268-0.02471 0.02022-0.05391 0.04493-0.31001 0.24486-0.48298 0.24486z" opacity=".25"/>
  <path d="m8.4234 9.7q-0.01572 0-0.0292-0.0045-0.04268-9e-3 -0.06065-0.05167-0.01348-0.03819 0.0067-0.08536 0.02022-0.04717 0.05841-0.10558 0.01348-0.02022 0.02471-0.04044 0.01348-0.02246 0.02246-0.04044 0.0067-9e-3 0.01123-0.02246-0.06739-0.01123-0.15725-0.0045-0.08761 0.0045-0.19768 0.0337-0.09884 0.02471-0.20892 0.06515-0.11007 0.03819-0.23363 0.0921-0.02471 0.01123-0.04942 0.0022-0.02471-0.01123-0.03594-0.03594-0.01348-0.02471-0.0022-0.05167 0.01123-0.02696 0.03594-0.03819 0.12805-0.05616 0.24037-0.0966 0.11457-0.04268 0.22015-0.06739 0.27631-0.06964 0.45153-0.02246 0.05167 0.01348 0.07188 0.0629 0.02022 0.05167-9e-3 0.11232-0.0292 0.05841-0.06964 0.12355-0.0045 0.0045-9e-3 0.01123-0.0022 0.0067-0.0067 0.01572 0.05167-0.01123 0.15051-0.04493 0.10109-0.0337 0.2808-0.09884 0.02471-9e-3 0.04942 0.0045 0.02696 0.01123 0.03594 0.03819 0.01123 0.02471 0 0.05167-0.01123 0.02471-0.04044 0.03594-0.10334 0.03594-0.1887 0.06515-0.08536 0.0292-0.15276 0.04942-0.0921 0.02696-0.13928 0.03819-0.04493 9e-3 -0.06964 9e-3z" opacity=".25"/>
  <path d="m9.2587 9.655q-0.01123 0-0.01797-0.0022-0.03594-9e-3 -0.05167-0.02696-0.01348-0.02022-0.01797-0.03145-0.01797-0.04942 9e-3 -0.10109 0.0292-0.05391 0.07188-0.11232 0.01348-0.01797 0.02471-0.03819t0.02246-0.03819q0.0022-0.0022 0.0067-9e-3 -0.01348 0.0045-0.0337 0.01348-0.01797 9e-3 -0.04268 0.02696-0.04044 0.02471-0.08536 0.06515-0.04493 0.03819-0.0921 0.08087-0.01123 0.01123-0.02471 0.02246-0.01123 9e-3 -0.02246 0.02022-0.02022 0.01797-0.04717 0.01797-0.0292-0.0022-0.04717-0.02471-0.02022-0.02022-0.01797-0.04717 0.0022-0.0292 0.02246-0.04718 0.01123-0.01123 0.02471-0.02022 0.01123-0.01123 0.02246-0.02246 0.05391-0.04942 0.10558-0.0921 0.05391-0.04493 0.10334-0.07638 0.05167-0.03145 0.10109-0.04493 0.05167-0.01572 0.09884-0.0022 0.03819 0.01123 0.05391 0.03145t0.02022 0.03594q0.02022 0.05167-9e-3 0.10558-0.0292 0.05391-0.07413 0.11906-0.0045 0.0045-0.01123 0.01572-0.0045 9e-3 -0.01123 0.01797 0.0337-0.01348 0.08536-0.03145 0.05391-0.02022 0.13254-0.05167 0.0292-9e-3 0.05391 0.0045 0.02471 0.01123 0.0337 0.03819 0.01123 0.02471-0.0022 0.05167-0.01123 0.02471-0.03594 0.03594-0.07188 0.02471-0.13029 0.04493t-0.09884 0.03594q-0.02246 9e-3 -0.04043 0.01572-0.01572 0.0045-0.0292 9e-3 -0.01797 0.0045-0.0292 9e-3 -9e-3 0.0022-0.02022 0.0022z" opacity=".25"/>
  <path d="m9.8773 9.655q-0.01123 0-0.01797-0.0022-0.03594-9e-3 -0.05167-0.02696-0.01348-0.02022-0.01797-0.03145-0.01797-0.04942 9e-3 -0.10109 0.0292-0.05391 0.07189-0.11232 0.01348-0.01797 0.02471-0.03819t0.02246-0.03819q0.0022-0.0022 0.0067-9e-3 -0.01348 0.0045-0.0337 0.01348-0.01797 9e-3 -0.04268 0.02696-0.04044 0.02471-0.08536 0.06515-0.04493 0.03819-0.0921 0.08087-0.01123 0.01123-0.02471 0.02246-0.01123 9e-3 -0.02246 0.02022-0.02022 0.01797-0.04717 0.01797-0.0292-0.0022-0.04717-0.02471-0.02022-0.02022-0.01797-0.04717 0.0022-0.0292 0.02246-0.04718 0.01123-0.01123 0.02471-0.02022 0.01123-0.01123 0.02247-0.02246 0.05391-0.04942 0.10558-0.0921 0.05391-0.04493 0.10334-0.07638 0.05167-0.03145 0.10109-0.04493 0.05167-0.01572 0.09884-0.0022 0.03819 0.01123 0.05391 0.03145t0.02022 0.03594q0.02022 0.05167-9e-3 0.10558-0.0292 0.05391-0.07413 0.11906-0.0045 0.0045-0.01123 0.01572-0.0045 9e-3 -0.01123 0.01797 0.0337-0.01348 0.08536-0.03145 0.05391-0.02022 0.13254-0.05167 0.0292-9e-3 0.05391 0.0045 0.02471 0.01123 0.0337 0.03819 0.01123 0.02471-0.0022 0.05167-0.01123 0.02471-0.03594 0.03594-0.07189 0.02471-0.13029 0.04493-0.05841 0.02022-0.09884 0.03594-0.02246 9e-3 -0.04044 0.01572-0.01572 0.0045-0.0292 9e-3 -0.01797 0.0045-0.0292 9e-3 -9e-3 0.0022-0.02022 0.0022z" opacity=".25"/>
  <path d="m10.709 9.7224q-0.02696 0-0.04493-0.01572-0.03594-0.0292-0.02022-0.07413 0-0.0022 0.01572-0.05391 0.01797-0.05167 0.04044-0.11681 0.01123-0.03819 0.02022-0.06515 9e-3 -0.0292 0.01572-0.05167-0.04717 0.01797-0.10783 0.04044-0.06065 0.02246-0.13029 0.04942-0.06739 0.02471-0.13928 0.05167t-0.13928 0.05167q-0.02471 9e-3 -0.04942-0.0022-0.02696-0.01348-0.03819-0.04044-9e-3 -0.02471 0.0045-0.04942 0.01123-0.02696 0.03819-0.03819 0.10109-0.03594 0.20892-0.07638 0.11008-0.04044 0.19993-0.07413 0.08986-0.0337 0.14826-0.05616 0.06065-0.02247 0.06065-0.02247 0.01123-0.0022 0.02022-0.0022 0.01123-0.0022 0.02246 0.0022 0.03145 0.0045 0.04493 0.03594 0.01123 0.01797 9e-3 0.04718 0 0.02696-0.01123 0.07862-0.0067 0.0292-0.01797 0.06515-9e-3 0.0337-0.02471 0.07862-0.0022 9e-3 -0.0045 0.01572-0.0022 0.0067-0.0045 0.01573 0.08986-0.04942 0.22015-0.10334 0.02471-0.01123 0.04942 0 0.02471 9e-3 0.03594 0.0337 0.01348 0.02471 0.0022 0.05167-0.01123 0.02696-0.03594 0.03819-0.07638 0.0337-0.14152 0.06515-0.06515 0.03145-0.11232 0.05616-0.05616 0.0292-0.10109 0.05391-0.01348 0.01123-0.0337 0.01123z" opacity=".25"/>
  <path d="m12.343 9.8505q-0.01797 0-0.0337-0.0022-0.01348-0.0022-0.0292-0.0067-0.04043-0.01123-0.05616-0.04717-0.02022-0.04493 0-0.10783 0.02246-0.06515 0.07188-0.16624 9e-3 -0.01797 0.01797-0.04044 9e-3 -0.02246 0.02022-0.04268-0.0292 0.01123-0.0629 0.03819-0.03145 0.02471-0.06515 0.05167-0.02246 0.01797-0.04942 0.01348-0.0292-0.0045-0.04718-0.02471-0.01797-0.02246-0.01348-0.04942 0.0045-0.02696 0.02471-0.04718 0.03145-0.02246 0.06515-0.04942t0.07188-0.04493q0.0921-0.04717 0.16848-0.02471 0.03594 0.0067 0.05391 0.04493 0.01797 0.03819-0.0022 0.08986-0.01797 0.05167-0.0629 0.14602-0.01123 0.02696-0.02471 0.05391-0.01123 0.02696-0.02247 0.05167-0.0045 9e-3 -0.0067 0.01572-0.0022 0.0067-0.0045 0.01348 0.02247-0.0022 0.05616-0.01348 0.03594-0.01123 0.08087-0.0337 0.04718-0.02471 0.10783-0.06515t0.13928-0.10109q0.06065-0.04942 0.11457-0.0966 0.05391-0.04717 0.09435-0.08536 0.04043-0.03819 0.06515-0.0629 0.02471-0.02471 0.02471-0.02471 0.02696-0.03145 0.06515-0.02022 0.01797 0.0045 0.0292 0.01572 0.01123 0.01123 0.01797 0.02246 0.01572 0.03145 0.0022 0.07413-0.01348 0.04268-0.04942 0.13254-0.01348 0.0292-0.02696 0.05841-0.01123 0.0292-0.02247 0.05391-0.0022 0.01123-0.0067 0.02471 0.03145-0.0045 0.06739-0.02471 0.03594-0.02022 0.07188-0.04493t0.06739-0.05167q0.03145-0.0292 0.05616-0.04942 0.02246-0.02022 0.04942-0.01797 0.02696 0.0022 0.04717 0.02246 0.01797 0.02246 0.01573 0.04942 0 0.02696-0.02246 0.04717-0.05167 0.04718-0.10558 0.08986-0.05391 0.04044-0.11007 0.07188-0.05391 0.0292-0.11008 0.04268-0.05616 0.01123-0.11007-0.0022-0.03594-0.01348-0.05167-0.04493-0.01348-0.03145-9e-3 -0.06739 0.0067-0.03819 0.02696-0.0966-0.02471 0.02246-0.05167 0.04268-0.02471 0.02022-0.05391 0.04493-0.31001 0.24486-0.48298 0.24486z" opacity=".25"/>
  <path d="m13.639 9.855q-0.01123 0-0.02247-0.0022-0.01123 0-0.02471-0.0022-0.02696-9e-3 -0.04493-0.03819-0.0067-0.01348-9e-3 -0.03145-0.0022-0.02022 0.0045-0.05841 9e-3 -0.03819 0.02696-0.10334 0.02022-0.06739 0.05391-0.17297-0.05167 0.01797-0.11457 0.04268t-0.13029 0.04942q-0.02471 9e-3 -0.04942-0.0022-0.02696-0.01348-0.03819-0.04044-9e-3 -0.02471 0.0045-0.04942 0.01123-0.02696 0.03819-0.03819 0.07188-0.02696 0.13928-0.05167 0.06739-0.02471 0.11906-0.04268 0.05167-0.02022 0.08312-0.03145 0.03145-0.01348 0.03145-0.01348 0.02246-9e-3 0.04268-0.0022 0.0292 0.0067 0.04268 0.0337 0.01123 0.02022 0.0067 0.03594-0.0022 0.01572-0.0067 0.0337-0.0045 9e-3 -0.0067 0.02022-0.0022 9e-3 -0.0067 0.02246-0.01572 0.03819-0.0337 0.09435-0.01572 0.05391-0.0337 0.11008-0.01123 0.03145-0.01797 0.05391-0.0067 0.02246-0.01123 0.04044 0.04268-9e-3 0.12355-0.05167 0.06964-0.03819 0.14826-0.08761t0.16399-0.10783q0.01797-0.01123 0.03594-0.02247 0.01797-0.01123 0.03594-0.02471 0.02471-0.01572 0.05167-9e-3 0.02696 0.0045 0.04493 0.0292 0.01572 0.02471 9e-3 0.05167-0.0045 0.02471-0.0292 0.04044-0.01797 0.01348-0.03819 0.02696-0.01797 0.01123-0.03819 0.02471-0.08536 0.05616-0.16624 0.10783-0.08087 0.05167-0.15276 0.08986-0.14602 0.07638-0.23138 0.07638z" opacity=".25"/>
 </g>
 <g fill="#fff">
  <path d="m5.6169 11.77q-0.01123 0-0.01797-0.0022-0.03594-9e-3 -0.05167-0.02696-0.01348-0.02022-0.01797-0.03145-0.01797-0.04942 9e-3 -0.10109 0.0292-0.05391 0.07188-0.11232 0.01348-0.01797 0.02471-0.03819t0.02246-0.03819q0.0022-0.0022 0.0067-9e-3 -0.01348 0.0045-0.0337 0.01348-0.01797 9e-3 -0.04268 0.02696-0.04043 0.02471-0.08536 0.06515-0.04493 0.03819-0.0921 0.08087-0.01123 0.01123-0.02471 0.02246-0.01123 9e-3 -0.02247 0.02022-0.02022 0.01797-0.04717 0.01797-0.0292-0.0022-0.04717-0.02471-0.02022-0.02022-0.01797-0.04717 0.0022-0.0292 0.02247-0.04718 0.01123-0.01123 0.02471-0.02022 0.01123-0.01123 0.02246-0.02246 0.05391-0.04942 0.10558-0.0921 0.05391-0.04493 0.10334-0.07638 0.05167-0.03145 0.10109-0.04493 0.05167-0.01573 0.09884-0.0022 0.03819 0.01123 0.05391 0.03145t0.02022 0.03594q0.02022 0.05167-9e-3 0.10558-0.0292 0.05391-0.07413 0.11906-0.0045 0.0045-0.01123 0.01572-0.0045 9e-3 -0.01123 0.01797 0.0337-0.01348 0.08536-0.03145 0.05391-0.02022 0.13254-0.05167 0.0292-9e-3 0.05391 0.0045 0.02471 0.01123 0.0337 0.03819 0.01123 0.02471-0.0022 0.05167-0.01123 0.02471-0.03594 0.03594-0.07188 0.02471-0.13029 0.04493t-0.09884 0.03594q-0.02246 9e-3 -0.04044 0.01572-0.01572 0.0045-0.0292 9e-3 -0.01797 0.0045-0.0292 9e-3 -9e-3 0.0022-0.02022 0.0022z" opacity=".25"/>
  <path d="m6.1165 11.966q-0.01797 0-0.0337-0.0022-0.01348-0.0022-0.0292-0.0067-0.04044-0.01123-0.05616-0.04718-0.02022-0.04493 0-0.10783 0.02246-0.06515 0.07189-0.16624 9e-3 -0.01797 0.01797-0.04044 9e-3 -0.02246 0.02022-0.04268-0.0292 0.01123-0.0629 0.03819-0.03145 0.02471-0.06515 0.05167-0.02246 0.01797-0.04942 0.01348-0.0292-0.0045-0.04717-0.02471-0.01797-0.02246-0.01348-0.04942 0.0045-0.02696 0.02471-0.04718 0.03145-0.02246 0.06515-0.04942t0.07189-0.04493q0.0921-0.04717 0.16848-0.02471 0.03594 0.0067 0.05391 0.04493 0.01797 0.03819-0.0022 0.08986-0.01797 0.05167-0.0629 0.14602-0.01123 0.02696-0.02471 0.05391-0.01123 0.02696-0.02247 0.05167-0.0045 9e-3 -0.0067 0.01572-0.0022 0.0067-0.0045 0.01348 0.02247-0.0022 0.05616-0.01348 0.03594-0.01123 0.08087-0.0337 0.04717-0.02471 0.10783-0.06515 0.06065-0.04043 0.13928-0.10109 0.06065-0.04942 0.11457-0.0966 0.05391-0.04718 0.09435-0.08536 0.04044-0.03819 0.06515-0.0629t0.02471-0.02471q0.02696-0.03145 0.06515-0.02022 0.01797 0.0045 0.0292 0.01572 0.01123 0.01123 0.01797 0.02246 0.01572 0.03145 0.0022 0.07413-0.01348 0.04268-0.04942 0.13254-0.01348 0.0292-0.02696 0.05841-0.01123 0.0292-0.02247 0.05391-0.0022 0.01123-0.0067 0.02471 0.03145-0.0045 0.06739-0.02471 0.03594-0.02022 0.07189-0.04493 0.03594-0.02471 0.06739-0.05167 0.03145-0.0292 0.05616-0.04942 0.02246-0.02022 0.04942-0.01797 0.02696 0.0022 0.04717 0.02246 0.01797 0.02246 0.01572 0.04942 0 0.02696-0.02246 0.04717-0.05167 0.04718-0.10558 0.08986-0.05391 0.04044-0.11007 0.07188-0.05391 0.0292-0.11008 0.04268-0.05616 0.01123-0.11007-0.0022-0.03594-0.01348-0.05167-0.04493-0.01348-0.03145-9e-3 -0.06739 0.0067-0.03819 0.02696-0.0966-0.02471 0.02246-0.05167 0.04268-0.02471 0.02022-0.05391 0.04493-0.31001 0.24486-0.48298 0.24486z" opacity=".25"/>
  <path d="m7.9187 11.815q-0.01573 0-0.0292-0.0045-0.04268-9e-3 -0.06065-0.05167-0.01348-0.03819 0.0067-0.08536 0.02022-0.04718 0.05841-0.10558 0.01348-0.02022 0.02471-0.04044 0.01348-0.02246 0.02246-0.04044 0.0067-9e-3 0.01123-0.02246-0.06739-0.01123-0.15725-0.0045-0.08761 0.0045-0.19768 0.0337-0.09884 0.02471-0.20892 0.06515-0.11007 0.03819-0.23363 0.0921-0.02471 0.01123-0.04942 0.0022-0.02471-0.01123-0.03594-0.03594-0.01348-0.02471-0.0022-0.05167 0.01123-0.02696 0.03594-0.03819 0.12805-0.05616 0.24037-0.0966 0.11457-0.04268 0.22015-0.06739 0.27631-0.06964 0.45153-0.02246 0.05167 0.01348 0.07189 0.0629 0.02022 0.05167-9e-3 0.11232-0.0292 0.05841-0.06964 0.12355-0.0045 0.0045-9e-3 0.01123-0.0022 0.0067-0.0067 0.01573 0.05167-0.01123 0.15051-0.04493 0.10109-0.0337 0.2808-0.09884 0.02471-9e-3 0.04942 0.0045 0.02696 0.01123 0.03594 0.03819 0.01123 0.02471 0 0.05167-0.01123 0.02471-0.04044 0.03594-0.10334 0.03594-0.1887 0.06515-0.08536 0.0292-0.15276 0.04942-0.0921 0.02696-0.13928 0.03819-0.04493 9e-3 -0.06964 9e-3z" opacity=".25"/>
  <path d="m8.7382 11.97q-0.01123 0-0.02246-0.0022-0.01123 0-0.02471-0.0022-0.02696-9e-3 -0.04493-0.03819-0.0067-0.01348-9e-3 -0.03145-0.0022-0.02022 0.0045-0.05841 9e-3 -0.03819 0.02696-0.10334 0.02022-0.06739 0.05391-0.17297-0.05167 0.01797-0.11457 0.04268t-0.13029 0.04942q-0.02471 9e-3 -0.04942-0.0022-0.02696-0.01348-0.03819-0.04044-9e-3 -0.02471 0.0045-0.04942 0.01123-0.02696 0.03819-0.03819 0.07188-0.02696 0.13928-0.05167 0.06739-0.02471 0.11906-0.04268 0.05167-0.02022 0.08312-0.03145 0.03145-0.01348 0.03145-0.01348 0.02246-9e-3 0.04268-0.0022 0.0292 0.0067 0.04268 0.0337 0.01123 0.02022 0.0067 0.03594-0.0022 0.01572-0.0067 0.0337-0.0045 9e-3 -0.0067 0.02022-0.0022 9e-3 -0.0067 0.02246-0.01573 0.03819-0.0337 0.09435-0.01572 0.05391-0.0337 0.11008-0.01123 0.03145-0.01797 0.05391-0.0067 0.02246-0.01123 0.04044 0.04268-9e-3 0.12355-0.05167 0.06964-0.03819 0.14826-0.08761 0.07863-0.04942 0.16399-0.10783 0.01797-0.01123 0.03594-0.02246t0.03594-0.02471q0.02471-0.01572 0.05167-9e-3 0.02696 0.0045 0.04493 0.0292 0.01572 0.02471 9e-3 0.05167-0.0045 0.02471-0.0292 0.04044-0.01797 0.01348-0.03819 0.02696-0.01797 0.01123-0.03819 0.02471-0.08536 0.05616-0.16624 0.10783-0.08087 0.05167-0.15276 0.08986-0.14602 0.07638-0.23138 0.07638z" opacity=".25"/>
  <path d="m9.5124 11.966q-0.01797 0-0.0337-0.0022-0.01348-0.0022-0.0292-0.0067-0.04043-0.01123-0.05616-0.04718-0.02022-0.04493 0-0.10783 0.02246-0.06515 0.07189-0.16624 9e-3 -0.01797 0.01797-0.04044 9e-3 -0.02246 0.02022-0.04268-0.0292 0.01123-0.0629 0.03819-0.03145 0.02471-0.06515 0.05167-0.02247 0.01797-0.04942 0.01348-0.0292-0.0045-0.04717-0.02471-0.01797-0.02246-0.01348-0.04942 0.0045-0.02696 0.02471-0.04718 0.03145-0.02246 0.06515-0.04942t0.07188-0.04493q0.0921-0.04717 0.16848-0.02471 0.03594 0.0067 0.05391 0.04493 0.01797 0.03819-0.0022 0.08986-0.01797 0.05167-0.0629 0.14602-0.01123 0.02696-0.02471 0.05391-0.01123 0.02696-0.02246 0.05167-0.0045 9e-3 -0.0067 0.01572-0.0022 0.0067-0.0045 0.01348 0.02246-0.0022 0.05616-0.01348 0.03594-0.01123 0.08087-0.0337 0.04717-0.02471 0.10783-0.06515 0.06065-0.04043 0.13928-0.10109 0.06065-0.04942 0.11457-0.0966 0.05391-0.04718 0.09435-0.08536 0.04044-0.03819 0.06515-0.0629t0.02471-0.02471q0.02696-0.03145 0.06515-0.02022 0.01797 0.0045 0.0292 0.01572 0.01123 0.01123 0.01797 0.02246 0.01572 0.03145 0.0022 0.07413-0.01348 0.04268-0.04942 0.13254-0.01348 0.0292-0.02696 0.05841-0.01123 0.0292-0.02246 0.05391-0.0022 0.01123-0.0067 0.02471 0.03145-0.0045 0.06739-0.02471 0.03594-0.02022 0.07188-0.04493t0.06739-0.05167q0.03145-0.0292 0.05616-0.04942 0.02247-0.02022 0.04942-0.01797 0.02696 0.0022 0.04717 0.02246 0.01797 0.02246 0.01572 0.04942 0 0.02696-0.02246 0.04717-0.05167 0.04718-0.10558 0.08986-0.05391 0.04044-0.11007 0.07188-0.05391 0.0292-0.11008 0.04268-0.05616 0.01123-0.11007-0.0022-0.03594-0.01348-0.05167-0.04493-0.01348-0.03145-9e-3 -0.06739 0.0067-0.03819 0.02696-0.0966-0.02471 0.02246-0.05167 0.04268-0.02471 0.02022-0.05391 0.04493-0.31001 0.24486-0.48298 0.24486z" opacity=".25"/>
  <path d="m10.809 11.97q-0.01123 0-0.02246-0.0022-0.01123 0-0.02471-0.0022-0.02696-9e-3 -0.04493-0.03819-0.0067-0.01348-9e-3 -0.03145-0.0022-0.02022 0.0045-0.05841 9e-3 -0.03819 0.02696-0.10334 0.02022-0.06739 0.05391-0.17297-0.05167 0.01797-0.11457 0.04268t-0.13029 0.04942q-0.02471 9e-3 -0.04942-0.0022-0.02696-0.01348-0.03819-0.04044-9e-3 -0.02471 0.0045-0.04942 0.01123-0.02696 0.03819-0.03819 0.07188-0.02696 0.13928-0.05167 0.06739-0.02471 0.11906-0.04268 0.05167-0.02022 0.08312-0.03145 0.03145-0.01348 0.03145-0.01348 0.02247-9e-3 0.04268-0.0022 0.0292 0.0067 0.04268 0.0337 0.01123 0.02022 0.0067 0.03594-0.0022 0.01572-0.0067 0.0337-0.0045 9e-3 -0.0067 0.02022-0.0022 9e-3 -0.0067 0.02246-0.01572 0.03819-0.0337 0.09435-0.01572 0.05391-0.0337 0.11008-0.01123 0.03145-0.01797 0.05391-0.0067 0.02246-0.01123 0.04044 0.04268-9e-3 0.12355-0.05167 0.06964-0.03819 0.14826-0.08761 0.07863-0.04942 0.16399-0.10783 0.01797-0.01123 0.03594-0.02246t0.03594-0.02471q0.02471-0.01572 0.05167-9e-3 0.02696 0.0045 0.04493 0.0292 0.01572 0.02471 9e-3 0.05167-0.0045 0.02471-0.0292 0.04044-0.01797 0.01348-0.03819 0.02696-0.01797 0.01123-0.03819 0.02471-0.08536 0.05616-0.16624 0.10783-0.08087 0.05167-0.15276 0.08986-0.14602 0.07638-0.23138 0.07638z" opacity=".25"/>
 </g>
 <g fill="#333">
  <path d="m5.6169 11.621q-0.01123 0-0.01797-0.0022-0.03594-9e-3 -0.05167-0.02696-0.01348-0.02022-0.01797-0.03145-0.01797-0.04942 9e-3 -0.10109 0.0292-0.05391 0.07188-0.11232 0.01348-0.01797 0.02471-0.03819t0.02246-0.03819q0.0022-0.0022 0.0067-9e-3 -0.01348 0.0045-0.0337 0.01348-0.01797 9e-3 -0.04268 0.02696-0.04043 0.02471-0.08536 0.06515-0.04493 0.03819-0.0921 0.08087-0.01123 0.01123-0.02471 0.02246-0.01123 9e-3 -0.02247 0.02022-0.02022 0.01797-0.04717 0.01797-0.0292-0.0022-0.04717-0.02471-0.02022-0.02022-0.01797-0.04717 0.0022-0.0292 0.02247-0.04718 0.01123-0.01123 0.02471-0.02022 0.01123-0.01123 0.02246-0.02246 0.05391-0.04942 0.10558-0.0921 0.05391-0.04493 0.10334-0.07638 0.05167-0.03145 0.10109-0.04493 0.05167-0.01572 0.09884-0.0022 0.03819 0.01123 0.05391 0.03145t0.02022 0.03594q0.02022 0.05167-9e-3 0.10558-0.0292 0.05391-0.07413 0.11906-0.0045 0.0045-0.01123 0.01572-0.0045 9e-3 -0.01123 0.01797 0.0337-0.01348 0.08536-0.03145 0.05391-0.02022 0.13254-0.05167 0.0292-9e-3 0.05391 0.0045 0.02471 0.01123 0.0337 0.03819 0.01123 0.02471-0.0022 0.05167-0.01123 0.02471-0.03594 0.03594-0.07188 0.02471-0.13029 0.04493t-0.09884 0.03594q-0.02246 9e-3 -0.04044 0.01572-0.01572 0.0045-0.0292 9e-3 -0.01797 0.0045-0.0292 9e-3 -9e-3 0.0022-0.02022 0.0022z" opacity=".25"/>
  <path d="m6.1165 11.816q-0.01797 0-0.0337-0.0022-0.01348-0.0022-0.0292-0.0067-0.04044-0.01123-0.05616-0.04718-0.02022-0.04493 0-0.10783 0.02246-0.06515 0.07189-0.16624 9e-3 -0.01797 0.01797-0.04044 9e-3 -0.02246 0.02022-0.04268-0.0292 0.01123-0.0629 0.03819-0.03145 0.02471-0.06515 0.05167-0.02246 0.01797-0.04942 0.01348-0.0292-0.0045-0.04717-0.02471-0.01797-0.02246-0.01348-0.04942 0.0045-0.02696 0.02471-0.04718 0.03145-0.02246 0.06515-0.04942t0.07189-0.04493q0.0921-0.04717 0.16848-0.02471 0.03594 0.0067 0.05391 0.04493 0.01797 0.03819-0.0022 0.08986-0.01797 0.05167-0.0629 0.14602-0.01123 0.02696-0.02471 0.05391-0.01123 0.02696-0.02247 0.05167-0.0045 9e-3 -0.0067 0.01572-0.0022 0.0067-0.0045 0.01348 0.02247-0.0022 0.05616-0.01348 0.03594-0.01123 0.08087-0.0337 0.04717-0.02471 0.10783-0.06515 0.06065-0.04043 0.13928-0.10109 0.06065-0.04942 0.11457-0.0966 0.05391-0.04717 0.09435-0.08536t0.06515-0.0629 0.02471-0.02471q0.02696-0.03145 0.06515-0.02022 0.01797 0.0045 0.0292 0.01572 0.01123 0.01123 0.01797 0.02247 0.01572 0.03145 0.0022 0.07413-0.01348 0.04268-0.04942 0.13254-0.01348 0.0292-0.02696 0.05841-0.01123 0.0292-0.02247 0.05391-0.0022 0.01123-0.0067 0.02471 0.03145-0.0045 0.06739-0.02471 0.03594-0.02022 0.07189-0.04493 0.03594-0.02471 0.06739-0.05167 0.03145-0.0292 0.05616-0.04942 0.02246-0.02022 0.04942-0.01797 0.02696 0.0022 0.04717 0.02247 0.01797 0.02246 0.01572 0.04942 0 0.02696-0.02246 0.04717-0.05167 0.04717-0.10558 0.08986-0.05391 0.04044-0.11007 0.07189-0.05391 0.0292-0.11008 0.04268-0.05616 0.01123-0.11007-0.0022-0.03594-0.01348-0.05167-0.04493-0.01348-0.03145-9e-3 -0.06739 0.0067-0.03819 0.02696-0.0966-0.02471 0.02247-0.05167 0.04268-0.02471 0.02022-0.05391 0.04493-0.31001 0.24486-0.48298 0.24486z" opacity=".25"/>
  <path d="m7.9187 11.666q-0.01573 0-0.0292-0.0045-0.04268-9e-3 -0.06065-0.05167-0.01348-0.03819 0.0067-0.08536 0.02022-0.04718 0.05841-0.10558 0.01348-0.02022 0.02471-0.04044 0.01348-0.02246 0.02246-0.04044 0.0067-9e-3 0.01123-0.02246-0.06739-0.01123-0.15725-0.0045-0.08761 0.0045-0.19768 0.0337-0.09884 0.02471-0.20892 0.06515-0.11007 0.03819-0.23363 0.0921-0.02471 0.01123-0.04942 0.0022-0.02471-0.01123-0.03594-0.03594-0.01348-0.02471-0.0022-0.05167 0.01123-0.02696 0.03594-0.03819 0.12805-0.05616 0.24037-0.0966 0.11457-0.04268 0.22015-0.06739 0.27631-0.06964 0.45153-0.02246 0.05167 0.01348 0.07189 0.0629 0.02022 0.05167-9e-3 0.11232-0.0292 0.05841-0.06964 0.12355-0.0045 0.0045-9e-3 0.01123-0.0022 0.0067-0.0067 0.01572 0.05167-0.01123 0.15051-0.04493 0.10109-0.0337 0.2808-0.09884 0.02471-9e-3 0.04942 0.0045 0.02696 0.01123 0.03594 0.03819 0.01123 0.02471 0 0.05167-0.01123 0.02471-0.04044 0.03594-0.10334 0.03594-0.1887 0.06515-0.08536 0.0292-0.15276 0.04942-0.0921 0.02696-0.13928 0.03819-0.04493 9e-3 -0.06964 9e-3z" opacity=".25"/>
  <path d="m8.7382 11.821q-0.01123 0-0.02246-0.0022-0.01123 0-0.02471-0.0022-0.02696-9e-3 -0.04493-0.03819-0.0067-0.01348-9e-3 -0.03145-0.0022-0.02022 0.0045-0.05841 9e-3 -0.03819 0.02696-0.10334 0.02022-0.06739 0.05391-0.17297-0.05167 0.01797-0.11457 0.04268t-0.13029 0.04942q-0.02471 9e-3 -0.04942-0.0022-0.02696-0.01348-0.03819-0.04044-9e-3 -0.02471 0.0045-0.04942 0.01123-0.02696 0.03819-0.03819 0.07188-0.02696 0.13928-0.05167 0.06739-0.02471 0.11906-0.04268 0.05167-0.02022 0.08312-0.03145 0.03145-0.01348 0.03145-0.01348 0.02246-9e-3 0.04268-0.0022 0.0292 0.0067 0.04268 0.0337 0.01123 0.02022 0.0067 0.03594-0.0022 0.01572-0.0067 0.0337-0.0045 9e-3 -0.0067 0.02022-0.0022 9e-3 -0.0067 0.02246-0.01573 0.03819-0.0337 0.09435-0.01572 0.05391-0.0337 0.11008-0.01123 0.03145-0.01797 0.05391-0.0067 0.02246-0.01123 0.04044 0.04268-9e-3 0.12355-0.05167 0.06964-0.03819 0.14826-0.08761 0.07863-0.04942 0.16399-0.10783 0.01797-0.01123 0.03594-0.02246t0.03594-0.02471q0.02471-0.01572 0.05167-9e-3 0.02696 0.0045 0.04493 0.0292 0.01572 0.02471 9e-3 0.05167-0.0045 0.02471-0.0292 0.04044-0.01797 0.01348-0.03819 0.02696-0.01797 0.01123-0.03819 0.02471-0.08536 0.05616-0.16624 0.10783-0.08087 0.05167-0.15276 0.08986-0.14602 0.07638-0.23138 0.07638z" opacity=".25"/>
  <path d="m9.5124 11.816q-0.01797 0-0.0337-0.0022-0.01348-0.0022-0.0292-0.0067-0.04043-0.01123-0.05616-0.04718-0.02022-0.04493 0-0.10783 0.02246-0.06515 0.07189-0.16624 9e-3 -0.01797 0.01797-0.04044 9e-3 -0.02246 0.02022-0.04268-0.0292 0.01123-0.0629 0.03819-0.03145 0.02471-0.06515 0.05167-0.02247 0.01797-0.04942 0.01348-0.0292-0.0045-0.04717-0.02471-0.01797-0.02246-0.01348-0.04942 0.0045-0.02696 0.02471-0.04718 0.03145-0.02246 0.06515-0.04942t0.07188-0.04493q0.0921-0.04717 0.16848-0.02471 0.03594 0.0067 0.05391 0.04493 0.01797 0.03819-0.0022 0.08986-0.01797 0.05167-0.0629 0.14602-0.01123 0.02696-0.02471 0.05391-0.01123 0.02696-0.02246 0.05167-0.0045 9e-3 -0.0067 0.01572-0.0022 0.0067-0.0045 0.01348 0.02246-0.0022 0.05616-0.01348 0.03594-0.01123 0.08087-0.0337 0.04717-0.02471 0.10783-0.06515 0.06065-0.04043 0.13928-0.10109 0.06065-0.04942 0.11457-0.0966 0.05391-0.04717 0.09435-0.08536t0.06515-0.0629 0.02471-0.02471q0.02696-0.03145 0.06515-0.02022 0.01797 0.0045 0.0292 0.01572 0.01123 0.01123 0.01797 0.02247 0.01572 0.03145 0.0022 0.07413-0.01348 0.04268-0.04942 0.13254-0.01348 0.0292-0.02696 0.05841-0.01123 0.0292-0.02246 0.05391-0.0022 0.01123-0.0067 0.02471 0.03145-0.0045 0.06739-0.02471 0.03594-0.02022 0.07188-0.04493t0.06739-0.05167q0.03145-0.0292 0.05616-0.04942 0.02247-0.02022 0.04942-0.01797 0.02696 0.0022 0.04717 0.02247 0.01797 0.02246 0.01572 0.04942 0 0.02696-0.02246 0.04717-0.05167 0.04717-0.10558 0.08986-0.05391 0.04044-0.11007 0.07189-0.05391 0.0292-0.11008 0.04268-0.05616 0.01123-0.11007-0.0022-0.03594-0.01348-0.05167-0.04493-0.01348-0.03145-9e-3 -0.06739 0.0067-0.03819 0.02696-0.0966-0.02471 0.02247-0.05167 0.04268-0.02471 0.02022-0.05391 0.04493-0.31001 0.24486-0.48298 0.24486z" opacity=".25"/>
  <path d="m10.809 11.821q-0.01123 0-0.02246-0.0022-0.01123 0-0.02471-0.0022-0.02696-9e-3 -0.04493-0.03819-0.0067-0.01348-9e-3 -0.03145-0.0022-0.02022 0.0045-0.05841 9e-3 -0.03819 0.02696-0.10334 0.02022-0.06739 0.05391-0.17297-0.05167 0.01797-0.11457 0.04268t-0.13029 0.04942q-0.02471 9e-3 -0.04942-0.0022-0.02696-0.01348-0.03819-0.04044-9e-3 -0.02471 0.0045-0.04942 0.01123-0.02696 0.03819-0.03819 0.07188-0.02696 0.13928-0.05167 0.06739-0.02471 0.11906-0.04268 0.05167-0.02022 0.08312-0.03145 0.03145-0.01348 0.03145-0.01348 0.02247-9e-3 0.04268-0.0022 0.0292 0.0067 0.04268 0.0337 0.01123 0.02022 0.0067 0.03594-0.0022 0.01572-0.0067 0.0337-0.0045 9e-3 -0.0067 0.02022-0.0022 9e-3 -0.0067 0.02246-0.01572 0.03819-0.0337 0.09435-0.01572 0.05391-0.0337 0.11008-0.01123 0.03145-0.01797 0.05391-0.0067 0.02246-0.01123 0.04044 0.04268-9e-3 0.12355-0.05167 0.06964-0.03819 0.14826-0.08761 0.07863-0.04942 0.16399-0.10783 0.01797-0.01123 0.03594-0.02246t0.03594-0.02471q0.02471-0.01572 0.05167-9e-3 0.02696 0.0045 0.04493 0.0292 0.01572 0.02471 9e-3 0.05167-0.0045 0.02471-0.0292 0.04044-0.01797 0.01348-0.03819 0.02696-0.01797 0.01123-0.03819 0.02471-0.08536 0.05616-0.16624 0.10783-0.08087 0.05167-0.15276 0.08986-0.14602 0.07638-0.23138 0.07638z" opacity=".25"/>
 </g>
 <path d="m3.9994 4.7359-0.72905 0.86895-0.395-0.33136-0.26503 0.31579 0.71079 0.59667 0.99435-1.185z" fill="#fff" opacity=".2"/>
 <path d="m3.9994 4.5985-0.72905 0.86895-0.395-0.33136-0.26503 0.31579 0.71079 0.59667 0.99435-1.185z" fill="url(#linearGradient8460)" opacity=".2"/>
 <path d="m3.9994 8.7681-0.72905 0.86895-0.395-0.33136-0.26503 0.31579 0.71079 0.59667 0.99435-1.185z" fill="#fff" opacity=".2"/>
 <path d="m3.9994 8.6307-0.72905 0.86895-0.395-0.33136-0.26503 0.31579 0.71079 0.59667 0.99435-1.185z" fill="url(#linearGradient957)" opacity=".2"/>
 <path d="m3.9994 10.822-0.72905 0.86895-0.395-0.33136-0.26503 0.31579 0.71079 0.59667 0.99435-1.185z" fill="#fff" opacity=".2"/>
 <path d="m3.9994 10.685-0.72905 0.86895-0.395-0.33136-0.26503 0.31579 0.71079 0.59667 0.99435-1.185z" fill="url(#linearGradient963)" opacity=".2"/>
 <path d="m11.583 5.1313c-0.22157-0.18592-0.54962-0.15722-0.73554 0.06435l-3.356 3.9995-1.5998-1.3424c-0.22157-0.18592-0.54963-0.15722-0.73554 0.064342l-0.6712 0.7999c-0.18592 0.22157-0.15723 0.54963 0.064355 0.73554l2.7997 2.3492c0.22157 0.18592 0.54963 0.15722 0.73555-0.06436l4.3628-5.1993c0.18592-0.22157 0.15722-0.54963-0.06435-0.73554z" fill="none" opacity=".5" stroke="url(#linearGradient8451)" stroke-linecap="square" stroke-linejoin="round" stroke-width=".26105"/>
 <path d="m11.583 5.1313c-0.22157-0.18592-0.54962-0.15722-0.73554 0.064351l-3.356 3.9995-1.5998-1.3424c-0.22157-0.18592-0.54963-0.15722-0.73554 0.064342l-0.6712 0.7999c-0.18592 0.22157-0.15723 0.54963 0.064355 0.73554l2.7997 2.3492c0.22157 0.18592 0.54963 0.15722 0.73555-0.064364l4.3627-5.1993c0.18592-0.22157 0.15722-0.54963-0.06435-0.73554z" fill="#1f9bff" stroke-width=".87155"/>
</svg>
