<svg xmlns="http://www.w3.org/2000/svg" width="64" height="64"><rect width="52" height="52" x="6" y="6" rx="8" ry="8" style="fill:#99979b;fill-opacity:1;stroke-width:4.72727;stroke-linecap:round;stroke-linejoin:round;paint-order:stroke fill markers"/><g transform="matrix(.64 0 0 .64 11.52 10.6)"><rect width="50" height="38" x="7" y="22" fill="#5e5c64" rx="4.4" ry="4.4"/><path fill="#e5e5e5" d="M11 32h42v24H11z"/><path fill="#fff" d="m15.578 33.762 25.096-20.299c1.158-.938 2.834-.775 3.753.364l10.408 12.864-1.608 14.052L33.883 56.39c-1.16.938-2.834.775-3.755-.362L15.148 37.51c-.919-1.14-.73-2.81.43-3.748"/><path fill="#e7822b" d="M17.256 35.836 32.22 54.335l19.344-15.647-2.882-3.566c-.922-1.139-.73-2.81.427-3.747l3.66-2.96-10.417-12.88z"/><rect width="50" height="38" x="7" y="10" fill="#cbcccd" rx="4.4" ry="4.4"/><circle cx="32" cy="30" r="9" fill="#a0a0a0"/><path fill="none" d="M17.256 36.139 32.22 54.638l19.344-15.647-2.882-3.565c-.922-1.14-.73-2.812.427-3.748l3.66-2.96-10.417-12.88z"/><circle cx="32" cy="27" r="9" fill="#fafafa"/><path fill="#a0a0a0" d="m29.499 18.498-.5 1 .5 1-.5 1 .5 1.001-.5 1 .5 1-.5 1.001.5 1-.5 1v.5a3 3 0 1 0 6 0v-1.5l-.499-1 .5-1-.5-1 .5-1-.5-1.001.5-1-.5-1 .5-1.001-.5-1z"/><path fill="#fff" fill-opacity=".382" d="M34.502 21.498s-.677 1.83-2.456 2.011c-1.78.18-2.547-1.01-2.547-1.01l-.497 1s1.045 1.391 3.044 1.275c1.997-.115 2.893-2.256 2.954-2.276zm0 2.001s-.677 1.828-2.456 2.009c-1.78.179-2.547-1.008-2.547-1.008l-.497 1s1.045 1.391 3.044 1.275c1.997-.117 2.893-2.256 2.954-2.275zm0 2.001s-.723 1.828-2.501 2.009c-1.78.179-2.502-1.008-2.502-1.008l-.498 1s1 1.391 3 1.275c1.997-.117 2.938-2.257 2.999-2.275z"/><path fill="#fff" stroke="#eaeaea" stroke-linecap="round" stroke-width="4" d="M32.258 16.416 49 4M32.625 17.107 15 4"/><circle cx="32" cy="18" r="7" fill="#a0a0a0"/><circle cx="32" cy="15.906" r="7" opacity=".2"/><path fill="#fff" stroke="#eaeaea" stroke-linecap="round" stroke-width="4" d="m15 30 10-8m24 8-10-8"/><circle cx="32" cy="14.906" r="7" fill="#fff"/></g></svg>