<svg xmlns="http://www.w3.org/2000/svg" width="64" height="64" image-rendering="optimizeSpeed"><rect width="52" height="52" x="6" y="6" fill="#4d4d4d" rx="8" ry="8"/><path fill="#fff" d="m35.253 19.027.026 2.989 3.132-.028L38.385 19zm-14.846 1.57-1.487 7.106-4.767.041.016 1.877 4.385-.038-1.301 6.428-3.916.033.016 1.878 3.498-.03-1.402 7.106 1.916-.017 1.4-7.106 6.315-.055-1.434 7.107 1.913-.016 1.47-7.107 4.924-.043-.016-1.877-4.524.039 1.302-6.427 4.054-.035-.016-1.877-3.672.032 1.47-7.106-1.913.017-1.47 7.105-6.316.054 1.47-7.105zm24.18 1.13-.886 4.216-2.297.02.02 2.277 2.175-.018.108 12.55q.037 4.26 3.795 4.228a12 12 0 0 0 3.163-.446l-.02-2.311q-1.18.252-1.808.259c-.73.006-1.248-.166-1.552-.525q-.44-.554-.452-1.91l-.102-11.872 3.48-.03-.02-2.277-3.48.03-.036-4.207zm-9.273 4.288.162 18.81 3.132-.027-.162-18.81zM20.52 29.567l6.263-.054-1.302 6.427-6.3.054z"/></svg>