<svg width="64" height="64" version="1.1" xmlns="http://www.w3.org/2000/svg">
 <path d="m30.926 19h26.286c2.0999 0 3.7887 1.6647 3.7887 3.7348v28.53c0 2.0701-1.6887 3.7348-3.7887 3.7348h-20.915c-1.0741 0-1.7769-0.31641-2.4167-1.0588z" fill="#e4e4e4"/>
 <path d="m42.615 30.354-1.7475-0.09796c0.0188 0.52729-0.0188 0.99415-0.0986 1.6194-0.03986 0.33138-0.11748 1.36-0.1951 1.8665h-0.33565c-1.1958 0-2.6894-0.13756-3.7299-0.31262l0.02098 1.5215c1.1391 0.09796 2.3748 0.19592 3.7299 0.19592h0.0188c-0.49089 2.2029-1.2755 5.009-2.2762 6.9578l1.4517 0.52729c0.1972-0.35014 0.37341-0.62318 0.60836-0.91706 1.3153-1.5402 3.4761-3.0305 5.8108-3.0305 2.2971 0 3.495 1.8217 3.495 3.2639 0 3.22-4.397 3.9807-8.9514 3.3555l0.41117 1.561c5.9682 0.62318 10.151-0.87741 10.151-4.9541 0-2.2634-1.8272-4.5519-4.9488-4.5519-2.0412 0-3.8075 1.1777-5.5154 2.3677 0.41117-1.1129 0.86222-2.9811 1.2167-4.6193 2.4922-0.09796 5.4961-0.41058 7.7936-0.8191l-0.0188-1.4818c-2.4146 0.5252-5.1837 0.79823-7.481 0.89619 0.0986-0.42934 0.15734-1.4184 0.21607-1.7102 0.11748-0.52729 0.21607-1.1317 0.37341-1.6381zm7.3613-0.68358-1.0405 0.44809c0.53075 0.72322 1.1979 1.9112 1.5901 2.7115l1.0615-0.46685c-0.39229-0.80031-1.1202-1.9904-1.6111-2.6927zm2.1796-0.77945-1.0405 0.44809c0.54961 0.72114 1.1979 1.8341 1.63 2.6907l1.0594-0.48561c-0.37341-0.72322-1.1391-1.932-1.6489-2.6532z" fill="#6b6a6e"/>
 <path d="m41.267 45.93c0.37551 0.93162 0.28353 1.9297-1.0741 2.6677l-4.4339 3.2013c-0.79509 0.38974-2.1482 2.1342 0 3.1742-1.8272-0.23759-2.2153-1.5319-2.6852-2.6406l-8.5927-22.942 13.564 8.5367z" fill="#7d45a8"/>
 <path d="m6.7883 9.048 20.349-0.047804c2.0999-0.00494 3.0313 1.854 3.7887 3.7843 1.2524 3.5854 10.602 33.802 10.602 33.802-0.43215-0.91034-1.4727-1.586-2.5468-1.586h-32.193c-2.0999 0-3.7887-1.6683-3.7887-3.7393v-28.477c0-2.071 1.6887-3.7843 3.7887-3.7843z" fill="#cd50dc"/>
 <g transform="matrix(.53652 0 0 .5014 10.759 34)" fill="#e8b3e9">
  <path d="m2.3125 0h11.328c8.2656 0 14.766-6.1406 14.766-13.875 0-7.8594-6.5-14.047-14.766-14.047h-11.328zm11.172-21.939c4.3906 0 7.4666 3.5953 7.4666 8.0641 0 4.375-3.0979 7.4224-7.4666 7.8913h-3.7166v-15.955z" fill="#ffffff" opacity=".75"/>
 </g>
</svg>
