<svg width="64" height="64" version="1.1" viewBox="0 0 64 64" xmlns="http://www.w3.org/2000/svg">
 <g transform="translate(4,4)">
  <circle cx="28" cy="28" r="27" fill="#7c8ea3" stroke-width="1.1739"/>
  <circle cx="28" cy="28" r="23" fill="#ffffff" opacity=".1" stroke-width=".99999"/>
  <path d="m34.22 11.582v8.2174l-6.0415 6.0415-1.1739-1.1739c-0.11461-0.11461-0.26479-0.17196-0.415-0.17196s-0.30038 0.05735-0.415 0.17196c-0.22922 0.22922-0.22922 0.60077 0 0.82999l1.1739 1.1739-1.6898 1.6898-2.1048-2.1048 0.93088-0.93088c0.45844-0.45844 0.45844-1.2015 0-1.66-0.22922-0.22922-0.52956-0.34392-0.82999-0.34392-0.30043 0-0.60077 0.1147-0.82999 0.34392l-3.5217 3.5217c-0.45844 0.45844-0.45844 1.2015 0 1.66 0.45844 0.45844 1.2015 0.45844 1.66 0l0.93088-0.93088 2.1048 2.1048-1.6898 1.6898-1.1739-1.1739c-0.11461-0.11461-0.26479-0.17196-0.415-0.17196s-0.30038 0.05735-0.415 0.17196c-0.22922 0.22922-0.22922 0.60077 0 0.82999l1.1739 1.1739-4.8676 4.8676h-3.5217l4.6957 4.6957v-3.5217l1.1968-1.1968c0.11698 0.87049 0.49088 1.7106 1.151 2.3707 1.6045 1.6045 4.2651 1.6045 5.8696 0l1.3459-1.3459 1.1739 1.1739c0.22922 0.22922 0.60077 0.22922 0.82999 0 0.22922-0.22922 0.22922-0.60077 0-0.82999l-1.1739-1.1739 1.6898-1.6898 2.3478 2.3478c0.45844 0.45844 1.2015 0.45844 1.66 0 0.45844-0.45844 0.45844-1.2015 0-1.66l-2.3478-2.3478 1.6898-1.6898 1.1739 1.1739c0.22922 0.22922 0.60077 0.22922 0.82999 0s0.22922-0.60077 0-0.82999l-1.1739-1.1739 1.3459-1.3459c1.6045-1.6045 1.6045-4.2651 0-5.8696-0.6601-0.6601-1.5003-1.0339-2.3707-1.151l2.3707-2.3707h8.2174zm-1.7609 14.087c0.45064 0 0.90115 0.17205 1.2449 0.51588 0.68767 0.68767 0.68767 1.8023 0 2.49l-1.3459 1.3459-2.49-2.49 1.3459-1.3459c0.34383-0.34383 0.79434-0.51588 1.2449-0.51588zm-3.4209 2.6918 2.49 2.49-1.6898 1.6898-2.49-2.49zm-3.3498 3.3498 2.49 2.49-1.6898 1.6898-2.49-2.49zm-2.5198 2.5198 2.49 2.49-1.3459 1.3459c-0.68767 0.68767-1.8023 0.68767-2.49 0-0.68768-0.68767-0.68767-1.8023 0-2.49z" fill="#f9f9f9" stroke-width="1.1739" style="paint-order:normal"/>
 </g>
</svg>
