<svg width="64pt" height="64pt" style="isolation:isolate" version="1.1" viewBox="0 0 64 64" xmlns="http://www.w3.org/2000/svg">
 <rect x="6" y="6" width="52" height="52" rx="5.5" ry="5.5" fill="#deddda" stroke-width=".99048"/>
 <rect width="512" height="512" fill="#404040" fill-opacity="0"/>
 <path transform="scale(.75)" d="m58.508 40c-2.2751 3.2996-3.2789 5.5589-6.4336 5.9727-3.1496 0.41365-4.7029-1.5064-7.7539-4.1035l-6.4629 3.7305c0.72419 3.9325 1.6105 6.2479-0.32031 8.7676-1.9514 2.5395-4.4616 2.2707-8.3887 2.584l-1.9336 7.209c3.2886 2.2652 5.5589 3.2789 5.9727 6.4336l0.001953 0.001953c0.3633 2.7589-1.105 4.3413-3.2188 6.7383h40.029c4.0627 0 7.334-3.2713 7.334-7.334v-3.1328c-0.31926-0.57153-0.53755-1.2238-0.64062-2.0078v-0.001953c-0.17914-1.3636 0.078793-2.4253 0.64062-3.4414v-10.311l-0.26562-0.46094c-3.9407 0.72364-6.248 1.6086-8.7676-0.32226v-0.001954c-2.5229-1.9316-2.2654-4.3751-2.5859-8.3887l-7.207-1.9316zm-3.8145 18.494c3.2749-0.084965 6.4911 1.5789 8.2441 4.6152 2.5498 4.4166 1.0377 10.065-3.3789 12.615-4.4165 2.5499-10.065 1.0358-12.615-3.3809-2.5499-4.4165-1.0356-10.065 3.3809-12.615 1.3802-0.79681 2.8805-1.1958 4.3691-1.2344z" fill="#c0bfbc" stroke-width=".19441"/>
 <path transform="scale(.75)" d="m15.334 8c-4.0627 0-7.334 3.2713-7.334 7.334v8.1016c0.90644 0.5873 1.6079 1.3575 2.1016 2.5508l0.001954 0.001953c1.2146 2.9322-0.23346 4.9218-1.959 8.5508l5.2754 5.2754c3.6207-1.7206 5.6152-3.1675 8.5684-1.9512l0.001953 0.001953c2.9156 1.2046 3.2947 3.6254 4.6465 7.4258l7.4629-0.001954c1.3369-3.766 1.7276-6.2157 4.666-7.4336 2.9351-1.2146 4.9424 0.24157 8.5566 1.959l5.2773-5.2754c-1.7369-3.6535-3.1702-5.6253-1.959-8.5508v-0.001953c1.2147-2.9353 3.6482-3.3197 7.4355-4.668v-7.4609c-3.7596-1.3369-6.2177-1.7282-7.4355-4.6699-0.17067-0.41232-0.28531-0.80538-0.35742-1.1875h-34.949zm15.037 0.35352c2.3634 0 4.7262 0.90007 6.5293 2.7031 3.6061 3.6061 3.6061 9.4544 0 13.061-3.6061 3.6061-9.4525 3.6061-13.059 0-3.6061-3.6061-3.6061-9.4544 0-13.061 1.8031-1.8031 4.1659-2.7031 6.5293-2.7031z" fill="#9a9996" stroke-width=".19441"/>
</svg>
