<svg width="64" height="64" version="1.1" xmlns="http://www.w3.org/2000/svg">
 <rect x="6" y="6" width="52" height="52" rx="8" ry="8" fill="#808080" stroke-width="3.5095"/>
 <path d="m32 10c-6.094 0-11 4.906-11 11v6h-3c-1.108 0-2 0.892-2 2v22c0 1.108 0.892 2 2 2h28c1.108 0 2-0.892 2-2v-22c0-1.108-0.892-2-2-2h-3v-6c0-6.094-4.906-11-11-11zm0 4c3.878 0 7 3.122 7 7v6h-14v-6c0-3.878 3.122-7 7-7z" fill="#cccccc"/>
 <path d="m16 35v8h32v-8z" fill="#f4d984"/>
 <path d="m21.708 35-5.7077 8h4.018l5.7089-8zm7.2505 0-5.7077 8h4.0192l5.7077-8zm7.2517 0-5.7089 8h4.0192l5.7077-8zm7.2505 0-5.7077 8h4.018l5.7077-8z" fill="#222222"/>
 <circle cx="46" cy="45" r="16" fill="#333333" stroke-width="3.7796"/>
 <g fill="#ffffff">
  <circle cx="37" cy="45" r="3"/>
  <circle cx="46" cy="45" r="3"/>
  <circle cx="55" cy="45" r="3"/>
 </g>
</svg>
