<svg width="64" height="64" version="1.1" xmlns="http://www.w3.org/2000/svg" xmlns:xlink="http://www.w3.org/1999/xlink">
 <defs>
  <linearGradient id="b" x1="399.57" x2="399.57" y1="545.8" y2="517.8" gradientTransform="matrix(2.1429 0 0 2.1429 -826.34 -1107.5)" gradientUnits="userSpaceOnUse">
   <stop stop-color="#3889e9" offset="0"/>
   <stop stop-color="#5ea5fb" offset="1"/>
  </linearGradient>
  <linearGradient id="b-7" x1="467.17" x2="467.17" y1="546.85" y2="544.72" gradientTransform="matrix(1.8844 0 0 1.8844 -864.23 -981.74)" gradientUnits="userSpaceOnUse">
   <stop stop-color="#040404" offset="0"/>
   <stop stop-color="#121212" stop-opacity=".90816" offset="1"/>
  </linearGradient>
 </defs>
 <rect x="6" y="6" width="52" height="52" rx="8" ry="8" fill="#4d4d4d" stroke-width="3.5095"/>
 <path d="m21 10h21c2.77 0 4.5045 2.1689 5 4.7674l6 31.465c0.49551 2.5986-2.23 4.7674-5 4.7674h-31.998c-2.77 0-5.4148-2.1561-5-4.7674l4.9979-31.465c0.41479-2.6114 2.23-4.7674 5-4.7674z" fill="#cccccc"/>
 <rect x="11" y="42" width="42" height="10" ry="5" fill="#333333"/>
 <rect x="20" y="46" width="20" height="2" ry="1" fill="#3889e9" stroke-width="2.005"/>
 <circle cx="15.997" cy="47" r="2" fill="url(#b-7)" opacity=".452" stroke-width="1.7736"/>
 <path d="m16 46.075c-0.04024 0-0.07607 0.01492-0.10547 0.04492-0.0294 0.0288-0.04297 0.06272-0.04297 0.10352v0.74414c0 0.0396 0.01357 0.07472 0.04297 0.10352s0.06524 0.04492 0.10547 0.04492c0.04022 0 0.07415-0.01492 0.10352-0.04492 0.0294-0.0288 0.04492-0.06392 0.04492-0.10352v-0.74414c0-0.0408-0.01551-0.07352-0.04492-0.10352-0.02938-0.0288-0.06328-0.04492-0.10352-0.04492zm-0.42773 0.21875c-0.04062 0-0.07612 4.97e-4 -0.10938 0.0293-0.11298 0.084-0.20139 0.18795-0.26367 0.3125s-0.09375 0.25768-0.09375 0.39844c0 0.12072 0.02507 0.23578 0.07227 0.3457 0.04721 0.1104 0.10975 0.20537 0.18945 0.28516 0.07968 0.0792 0.17529 0.14229 0.28516 0.18945 0.10987 0.0468 0.22501 0.07031 0.3457 0.07031s0.23583-0.02351 0.3457-0.07031 0.20353-0.10965 0.2832-0.18945c0.07968-0.0792 0.1442-0.17525 0.19141-0.28516 0.0472-0.1104 0.07031-0.22498 0.07031-0.3457 0-0.14076-0.03146-0.27388-0.09375-0.39844s-0.14877-0.22827-0.26172-0.3125c-0.0325-0.0252-0.07032-0.0353-0.11133-0.0293-0.04102 0-0.07367 0.02424-0.09766 0.05664-0.02475 0.0324-0.03314 0.06977-0.02734 0.10938 0.0058 0.0408 0.02416 0.07441 0.05664 0.09961 0.07579 0.0576 0.13441 0.12619 0.17578 0.20898 0.0414 0.0828 0.0625 0.17204 0.0625 0.26562 0 0.0804-0.01555 0.15728-0.04687 0.23047-0.03133 0.0732-0.07356 0.13605-0.12695 0.18945-0.05339 0.0528-0.11632 0.09587-0.18945 0.12695-0.07311 0.0312-0.15001 0.04687-0.23047 0.04687s-0.15735-0.01568-0.23047-0.04687c-0.07311-0.0312-0.13606-0.07307-0.18945-0.12695-0.05337-0.0528-0.09756-0.11613-0.12891-0.18945-0.03134-0.0732-0.04687-0.14996-0.04687-0.23047 0-0.0936 0.02111-0.18284 0.0625-0.26562 0.0414-0.0828 0.09995-0.15163 0.17578-0.20898 0.03249-0.0252 0.05278-0.05881 0.05859-0.09961 0.0058-0.0408-0.0046-0.07697-0.0293-0.10938-0.02399-0.0336-0.05703-0.05184-0.09766-0.05664z" fill="#fff"/>
 <path d="m16 42c-2.77 0-5 2.23-5 5 0 0.0588 0.0058 0.11554 0.0078 0.17383 0.04668-2.5846 2.1363-4.6523 4.7324-4.6523h32.52c2.5961 0 4.6857 2.0678 4.7324 4.6523 2e-3 -0.05829 0.0078-0.11503 0.0078-0.17383 0-2.77-2.23-5-5-5h-32z" opacity=".15"/>
 <circle cx="32.017" cy="31.998" r="0" fill="url(#b)" stroke-width="1.5715"/>
 <path d="m38.398 19.278-2.8027-0.0043c-0.10679 6.4e-5 -0.20905 0.0338-0.28455 0.09446-0.07555 0.06068-0.11806 0.14276-0.11847 0.22884l-0.0042 2.2591c-9.05e-4 0.17893 0.1789 0.32433 0.40098 0.32426l0.3907 3.54e-4 -4e-3 1.7213-2.9711 1.605 0.01373-6.5768 1.0333 0.0012c0.11084 1.53e-4 0.21392-0.04636 0.27135-0.12245 0.0579-0.07649 0.06226-0.17134 0.01144-0.25079l-2.0379-3.1825c-0.05455-0.08462-0.1633-0.13806-0.28183-0.13839-0.11866 2.11e-4 -0.22725 0.05291-0.28207 0.13778l-2.0516 3.1765c-0.05092 0.07912-0.04737 0.17437 0.01 0.25076 0.05757 0.07663 0.16054 0.12307 0.27132 0.12323l1.0341 0.0015-0.01952 9.1092-3.198-1.7408 0.0028-1.3668c0.49624-0.26373 0.82458-0.71587 0.82572-1.2305 0.0024-0.81658-0.81762-1.4795-1.8318-1.4806-1.0123-0.0019-1.8341 0.6593-1.8362 1.4759-0.0016 0.51499 0.32539 0.96796 0.82055 1.2331l-0.0037 1.7997c-7.79e-4 0.27144 0.16599 0.52497 0.44544 0.67656l4.7714 2.5967-0.0063 2.8093c-0.6729 0.29068-1.1363 0.85608-1.1377 1.5147-0.0012 0.95462 0.95627 1.73 2.1408 1.732 1.1859 0.0016 2.1478-0.77083 2.1498-1.7258 0.0017-0.65848-0.45939-1.2244-1.1311-1.5173l0.01144-5.3418 4.5485-2.4571c0.05458-0.02956 0.10514-0.06308 0.15081-0.09974 0.18789-0.15088 0.29682-0.35745 0.29718-0.57573l0.0044-2.1545 0.391 5.48e-4c0.10678-6.3e-5 0.20879-0.03403 0.28434-0.0947 0.0755-0.06065 0.1178-0.14288 0.1182-0.22899l0.0041-2.2586c6.69e-4 -0.17912-0.17869-0.32416-0.40089-0.32428z" opacity=".15" stroke-width="1.7349"/>
 <g transform="matrix(.031373 0 0 .031373 29.937 29.937)" fill="#f2f2f2" image-rendering="optimizeSpeed">
  <path id="path" d="m984.88 316.75q-9.2923-22.529-20.962-44.139c-4.376-8.1578-9.0222-16.261-13.938-24.203-21.124-34.252-46.894-66.614-77.311-97.029-99.568-99.568-219.83-149.38-360.67-149.38-140.85 0-261.05 49.811-360.61 149.38-99.569 99.572-149.38 219.78-149.38 360.61s49.811 261.11 149.38 360.67c99.568 99.568 219.78 149.32 360.61 149.32 140.84 0 261.11-49.758 360.67-149.32 54.836-54.89 94.598-116.04 119.23-183.42 20.043-54.943 30.092-113.99 30.092-177.25 0-48.515-5.8888-94.598-17.72-138.25-1.3507-4.9163-2.7553-9.8326-4.2139-14.695-4.4302-14.371-9.5085-28.471-15.181-42.302z" fill="#f2f2f2" stroke-width="42.388"/>
 </g>
 <path d="m38 47c0 4.4184 3.5818 8 8 8 4.3734 0 7.9204-3.2112 7.9922-7.5676 0.0048-0.0441 0.0076-0.08842 8e-3 -0.1328 0-0.73638-0.76382-1.2996-1.5002-1.2996s-1.5 0.56322-1.5 1.2996c0 2.9454-2.0543 4.7004-4.9999 4.7004-2.9454 0-5.0001-2.0544-5.0001-5 0-2.9454 2.0545-5 5.0001-5v3l5.9999-4.5-5.9991-4.5v2.9986c-4.4184 0-8 3.5818-8 8z" fill="#3889e9"/>
</svg>
