<svg id="Calculator" width="64" height="64" enable-background="new 0 0 1024 1024" image-rendering="optimizeSpeed" version="1.1" viewBox="0 0 64 64" xmlns="http://www.w3.org/2000/svg">
 <rect x="6" y="6" width="52" height="52" rx="8" ry="8" fill="#4d4d4d" stroke-width="3.5095"/>
 <path d="m35.253 19.027 0.02577 2.9885 3.1322-0.02701-0.02577-2.9885zm-14.846 1.5706-1.4868 7.1054-4.7674 0.04112 0.01619 1.8772 4.3855-0.03784-1.3016 6.4271-3.9162 0.03374 0.01619 1.8772 3.4978-0.03015-1.4012 7.1065 1.9154-0.01653 1.3994-7.1064 6.3154-0.05451-1.434 7.1068 1.9135-0.01654 1.4704-7.1071 4.9239-0.04249-0.0163-1.8771-4.5237 0.03903 1.3016-6.4271 4.0544-0.035-0.0163-1.8771-3.6724 0.03168 1.4704-7.1053-1.9135 0.01653-1.4704 7.1052-6.3154 0.05446 1.4704-7.1052zm24.18 1.1303-0.88593 4.2152-2.2973 0.0198 0.01956 2.2773 2.1754-0.01863 0.10825 12.551c0.0245 2.8394 1.2892 4.2491 3.7947 4.2275 1.0788-0.0093 2.1332-0.15861 3.1632-0.44566l-0.02002-2.3119c-0.78735 0.16883-1.3902 0.25575-1.8077 0.25937-0.73076 0.0062-1.2482-0.16636-1.5526-0.52503-0.29316-0.36865-0.44343-1.0058-0.45123-1.9098l-0.1024-11.872 3.4796-0.03004-0.01956-2.2773-3.4796 0.03004-0.03627-4.2072zm-9.2731 4.2876 0.16224 18.81 3.1322-0.02703-0.16224-18.81zm-14.793 3.5511 6.2626-0.05402-1.3016 6.4271-6.299 0.05432z" fill="#fff"/>
</svg>
