<svg width="64" height="64" version="1.1" xmlns="http://www.w3.org/2000/svg" xmlns:xlink="http://www.w3.org/1999/xlink">
 <path d="M27.273 12S24.5 18.805 24.5 19.258V58h15V19.256L37 12z" fill="#ebeaea"/>
 <path d="M27 12s-2.5 6.805-2.5 7.256h15C39.5 19.012 37 12 37 12z" fill="#e3e2df"/>
 <path d="M6 23.947c.248.008 18.5 0 18.5 0C24.5 17.539 18.578 12 18.5 8H12c0 4-6.002 9.54-6 15.947z" fill="#deddda"/>
 <path d="M27 9.47V12h10V9.47z" fill="#297bde"/>
 <path d="M32 28.018c-3.75 0-3.75 4.729-3.75 4.729H24.5v7.234h15v-7.235h-3.75s0-4.728-3.75-4.728zm0 1s2.727 3.326 1.728 4.97c-.998 1.645-2.46 1.645-3.459 0S32 29.019 32 29.019z" fill="#1f74da"/>
 <path d="m10.703 12-.006.006C8.931 15.408 5.997 19.463 6 23.945V54a4.728 4.728 0 0 0 .074.808c.026.131.057.258.092.385a4.08 4.08 0 0 0 .918 1.639 4.062 4.062 0 0 0 .55.486c.1.073.202.139.305.201.106.061.215.118.327.168.11.05.224.094.341.133.059.02.118.037.176.055.059.016.12.031.18.043a3.041 3.041 0 0 0 .369.06 3.104 3.104 0 0 0 .38.021H24.5V23.946c0-4.483-2.895-8.537-4.662-11.94L19.832 12z" fill="#ffbe6f"/>
 <path d="M43.5 18.473c-2.127 1.04-4 3.356-4 5.764V58h14.402C56.174 57.99 58 56.118 58 53.794V24.237c0-2.414-1.865-4.727-4-5.764z" fill="#ee393e"/>
 <path d="M12 6h6.5v2H12z" fill="#57e389"/>
 <path d="M43.5 17.473H54v1.016H43.5z" fill="#67656c"/>
 <path d="M43.5 14H54v3.473H43.5z" fill="#cecdca"/>
 <path d="m20.25 23.951a5 5 0 1 0 0 10 5 5 0 0 0 0-10z" fill="#33d17a" fill-opacity=".855"/>
 <path d="M6 40.32V54a4.729 4.729 0 0 0 .074.809c.026.13.057.257.092.384a4.08 4.08 0 0 0 .918 1.639 4.06 4.06 0 0 0 .55.486c.1.073.202.139.305.202.106.06.215.117.327.168.111.048.224.093.341.132.059.02.118.037.176.055.059.016.12.031.18.043a3.041 3.041 0 0 0 .369.06 3.104 3.104 0 0 0 .38.021h44.19C56.173 57.991 58 56.118 58 53.794V40.32H6z" fill="#f8e04c"/>
 <path d="M6.654 40.32 24.332 58H34.94L17.26 40.32H6.653zm21.211 0L45.547 58h8.356a4.032 4.032 0 0 0 1.812-.44L38.473 40.32H27.866zm21.215 0L58 49.24v-8.92h-8.92zM6 50.273V54a4.729 4.729 0 0 0 .075.808 3.828 3.828 0 0 0 .217.75 4.08 4.08 0 0 0 .792 1.274 4.06 4.06 0 0 0 .551.486c.1.072.201.139.305.201.105.06.215.117.326.168.111.05.225.094.342.133.058.02.117.037.176.055.058.015.119.031.18.043a3.041 3.041 0 0 0 .368.06 3.104 3.104 0 0 0 .38.021h4.015L6 50.274z" fill="#000000" opacity=".8"/>
</svg>
