<svg width="64" height="64" version="1.1" viewBox="0 0 64 64" xmlns="http://www.w3.org/2000/svg" xmlns:xlink="http://www.w3.org/1999/xlink">
 <path d="m17.478 1.7187 42.502 11.389c2.1328 0.57227 3.3984 2.7656 2.8281 4.8984l-11.389 42.502c-0.57227 2.1328-2.7656 3.3984-4.8984 2.8281l-42.502-11.389c-2.1328-0.57227-3.3984-2.7656-2.8281-4.8984l11.389-42.502c0.57227-2.1328 2.7656-3.3984 4.8984-2.8281z" fill="#f6d32d" stroke-width=".5"/>
 <path d="m9.9999 6.5273h44c2.2168 0 4 1.7832 4 4v34l-14 14h-34c-2.2168 0-4-1.7832-4-4v-44c0-2.2168 1.7832-4 4-4z" fill="#f9f06b" stroke-width=".5"/>
 <path d="m32 9.5273c0.55274 0 1 0.44727 1 1v7c0 0.55274-0.44727 1-1 1s-1-0.44727-1-1v-7c0-0.55274 0.44727-1 1-1z" fill="#cac9c7" stroke-width=".5"/>
 <path d="m38 10.527c0 3.3145-2.6856 6-6 6-3.3145 0-6-2.6856-6-6 0-3.3145 2.6856-6 6-6 3.3145 0 6 2.6856 6 6z" fill="#c01c28" stroke-width=".5"/>
 <path d="m38 9.5273c0 3.3145-2.6856 6-6 6-3.3145 0-6-2.6856-6-6 0-3.3145 2.6856-6 6-6 3.3145 0 6 2.6856 6 6z" fill="#e01b24" stroke-width=".5"/>
 <path d="m32 4.5273c2.209 0 4 1.791 4 4v1c0 2.209-1.791 4-4 4s-4-1.791-4-4v-1c0-2.209 1.791-4 4-4z" fill="#ef4a42" stroke-width=".5"/>
 <path d="m36.5 6.0273c0 2.4844-2.0156 4.5-4.5 4.5-2.4844 0-4.5-2.0156-4.5-4.5s2.0156-4.5 4.5-4.5c2.4844 0 4.5 2.0156 4.5 4.5z" fill="#c01c28" stroke-width=".5"/>
 <path d="m36.5 5.0273c0 2.4844-2.0156 4.5-4.5 4.5-2.4844 0-4.5-2.0156-4.5-4.5s2.0156-4.5 4.5-4.5c2.4844 0 4.5 2.0156 4.5 4.5z" fill="#e01b24" stroke-width=".5"/>
 <path d="m36.467 4.4902c-0.23633 2.291-2.1641 4.0332-4.4668 4.0371-2.2891-0.003906-4.209-1.7246-4.4629-4-0.02149 0.16602-0.03516 0.33203-0.03711 0.5 0 2.4844 2.0156 4.5 4.5 4.5 2.4844 0 4.5-2.0156 4.5-4.5 0-0.17969-0.01172-0.35742-0.03321-0.53711z" fill="#ed333b" stroke-width=".5"/>
 <path d="m37.971 8.9394c-0.2168 3.1406-2.8223 5.5801-5.9707 5.5879-3.1133-0.0078-5.7051-2.3965-5.9629-5.5-0.01953 0.16602-0.03125 0.33203-0.03711 0.5 0 3.3145 2.6856 6 6 6 3.3145 0 6-2.6856 6-6 0-0.19727-0.0098-0.39258-0.02929-0.58789z" fill="#ed333b" stroke-width=".5"/>
 <path transform="matrix(.5 0 0 .5 -8.2652e-5 .52725)" d="m96 88c-4.418 0-8 3.582-8 8v20l28-28z" fill="#f8e45c"/>
 <path d="m11.512 40.641c1.8477-1.25 3.6973-2.5 5.252-3.1621 1.5547-0.66211 2.8164-0.73633 2.8535-0.23047 0.03711 0.50391-1.1504 1.5879-1.3281 2.1367-0.17774 0.54883 0.6543 0.56446 1.7637 0.21875 1.1094-0.3457 2.4981-1.0488 3.6719-1.4238 1.1758-0.37305 2.1367-0.41602 2.3496-0.11133 0.21289 0.30469-0.32227 0.95703 0.19336 1.1875 0.51758 0.23047 2.082 0.04102 3.9199-0.21094 1.8379-0.25195 3.9473-0.5625 6.0567-0.875" fill="none" stroke="#e5a50a" stroke-linecap="round" stroke-linejoin="round" stroke-width="2"/>
 <path d="m11.512 30.086c3.8516-2.8594 7.7051-5.7188 9.3692-7.5567 1.6641-1.8398 1.1406-2.6582 0.13477-2.8867-1.0059-0.22852-2.4922 0.13086-3.6367 0.89063-1.1465 0.75977-1.9512 1.916-2.0039 3.3477-0.05274 1.4316 0.64649 3.1387 1.4824 4.0059 0.83594 0.86524 1.8106 0.89063 3.3633-0.02539 1.5527-0.91797 3.6856-2.7793 5.2637-3.6836 1.5801-0.9043 2.6016-0.85547 2.2129 0.04687-0.38867 0.90039-2.1875 2.6504-2.166 3.5195 0.02148 0.86914 1.8652 0.85547 3.4961 0.22266s3.0488-1.8867 4.3301-2.5391c1.2832-0.6543 2.4277-0.70703 2.668-0.22266 0.24219 0.48438-0.41992 1.5078-0.31445 2.0078 0.10742 0.5 0.98242 0.47852 2.7129 0.14453 1.7324-0.33203 4.3203-0.97656 6.4082-1.2988 2.0879-0.32031 3.6758-0.32031 5.2637-0.32031" fill="none" stroke="#e5a50a" stroke-linecap="round" stroke-linejoin="round" stroke-width="2"/>
</svg>
