<svg xmlns="http://www.w3.org/2000/svg" width="64" height="64"><rect width="46" height="52" x="8" y="-58" fill="#478aeb" rx="4.978" ry="4.978" transform="scale(1 -1)"/><path fill="#5ad85d" d="M53.904 10.016q.097.475.098.983v16.018a1.99 1.99 0 0 0 1.992-2V12.02a1.99 1.99 0 0 0-1.996-2z"/><path fill="#ff584c" d="M54.002 23.016v17.001a1.99 1.99 0 0 0 1.996-2v-13a1.99 1.99 0 0 0-1.996-2z"/><path fill="#ffce3d" d="M54.002 37.016v15.999a1.996 1.996 0 0 0 1.996-2.003v-12a1.99 1.99 0 0 0-1.996-1.996"/><circle cx="31.002" cy="32.016" r="16" fill="#fff" opacity=".2"/><path fill="#fff" d="M31.002 22.016a5 5 0 1 0 0 10 5 5 0 0 0 0-10m0 2a3 3 0 1 1 0 6 3 3 0 0 1 0-6m-5.182 10a2.813 2.813 0 0 0-2.818 2.818v5.182h2v-6h12v6h2v-5.182a2.813 2.813 0 0 0-2.818-2.818z"/></svg>