<svg width="64" height="64" version="1.1" viewBox="0 0 64 64" xmlns="http://www.w3.org/2000/svg">
 <rect x="6" y="6" width="52" height="52" rx="8" ry="8" fill="#574a3f" stroke-width=".92857"/>
 <path d="m12.338 6.1738c-1.0159 0.21303-1.9586 0.61687-2.791 1.1738h44.906c-0.83246-0.55696-1.7751-0.9608-2.791-1.1738zm-5.0801 3.5215c-0.23755 0.37232-0.45081 0.76253-0.625 1.1738h50.734c-0.17419-0.4113-0.38745-0.80151-0.625-1.1738zm-1.2188 3.5215c-0.024835 0.25774-0.039062 0.51874-0.039062 0.7832v0.39062h52v-0.39062c0-0.26447-0.01423-0.52546-0.03907-0.7832zm-0.039063 3.5215v1.1738h52v-1.1738zm0 3.5215v1.1758h52v-1.1758zm0 3.5234v1.1738h52v-1.1738zm0 3.5215v1.1738h52v-1.1738zm0 3.5215v1.1738h52v-1.1738zm0 3.5215v1.1738h52v-1.1738zm0 3.5215v1.1738h52v-1.1738zm0 3.5215v1.1738h52v-1.1738zm0 3.5215v1.1738h52v-1.1738zm0 3.5215v1.1738h52v-1.1738zm0.24805 3.5215c0.10105 0.40464 0.22499 0.79853 0.38477 1.1758h50.734c0.15977-0.37726 0.28371-0.77114 0.38477-1.1758zm1.9238 3.5234c0.41345 0.43982 0.87134 0.83685 1.375 1.1738h44.906c0.50366-0.33698 0.96155-0.73401 1.375-1.1738z" fill="#3e2e26" stroke-width="1.8062"/>
 <path d="m16.739 20.261v11.739h9.3912v-3.5217h-5.8695v-4.6956h5.8695v-3.5217zm10.565 0v11.739h3.5217v-4.6956h1.1739l2.3478 4.6956h3.5217l-2.9348-5.8695h1.7608v-5.8695zm10.565 0v3.5217h3.5217v8.2173h3.5217v-8.2173h3.5217v-3.5217zm-7.0434 2.3478h2.3478v2.3478h-2.3478zm-14.087 11.739v11.739h9.3912v-11.739z" fill="#f9b807" stroke-width="1.1739"/>
 <path d="m16.739 20.261v1.1739h9.3912v-1.1739zm10.565 0v1.1739h9.3912v-1.1739zm10.565 0v1.1739h10.565v-1.1739zm-21.13 3.5217v1.1739h3.5217v-1.1739zm10.565 0v1.1739h3.5217v-1.1739zm5.8695 0v1.1739h3.5217v-1.1739zm8.2173 0v1.1739h3.5217v-1.1739zm-24.652 3.5217v1.1739h3.5217v-1.1739zm10.565 0v1.1739h3.5217v-1.1739zm4.6956 0 0.58695 1.1739h3.5217l-0.58695-1.1739zm9.3912 0v1.1739h3.5217v-1.1739zm-24.652 3.5217v1.1739h9.3912v-1.1739zm10.565 0v1.1739h3.5217v-1.1739zm6.4564 0 0.58695 1.1739h3.5217l-0.58695-1.1739zm7.6304 0v1.1739h3.5217v-1.1739zm-24.652 3.5217v1.1739h9.3912v-1.1739zm0 3.5217v1.1739h9.3912v-1.1739zm0 3.5217v1.1739h9.3912v-1.1739zm0 3.5217v1.1739h9.3912v-1.1739z" fill="#f88d06" stroke-width="1.1739"/>
</svg>
