<svg xmlns="http://www.w3.org/2000/svg" width="64" height="64"><rect width="52" height="52" x="6" y="6" fill="#574a3f" rx="8" ry="8"/><path fill="#3e2e26" d="M12.338 6.174a7.945 7.945 0 0 0-2.791 1.174h44.906a7.944 7.944 0 0 0-2.791-1.174zm-5.08 3.521c-.238.373-.45.763-.625 1.174h50.734a7.952 7.952 0 0 0-.625-1.174zm-1.219 3.522C6.014 13.475 6 13.736 6 14v.39h52V14c0-.264-.014-.525-.039-.783zM6 16.738v1.174h52v-1.174zm0 3.522v1.176h52V20.26zm0 3.523v1.174h52v-1.174zm0 3.522v1.173h52v-1.173zm0 3.521V32h52v-1.174zm0 3.522v1.173h52v-1.173zm0 3.521v1.174h52v-1.174zm0 3.522v1.174h52V41.39zm0 3.521v1.174h52v-1.174zm0 3.522v1.174h52v-1.174zm.248 3.521c.101.405.225.799.385 1.176h50.734c.16-.377.284-.771.385-1.176zm1.924 3.524c.413.44.871.836 1.375 1.173h44.906a7.992 7.992 0 0 0 1.375-1.173z"/><path fill="#f9b807" d="M16.739 20.261V32h9.391v-3.522h-5.87v-4.695h5.87V20.26zm10.565 0V32h3.522v-4.696H32L34.347 32h3.522l-2.935-5.87h1.761v-5.869zm10.565 0v3.522h3.522V32h3.521v-8.217h3.522V20.26zm-7.043 2.348h2.347v2.348h-2.347zM16.739 34.348v11.739h9.39v-11.74z"/><path fill="#f88d06" d="M16.739 20.261v1.174h9.391V20.26zm10.565 0v1.174h9.391V20.26zm10.565 0v1.174h10.565V20.26zm-21.13 3.522v1.174h3.522v-1.174zm10.565 0v1.174h3.522v-1.174zm5.87 0v1.174h3.521v-1.174zm8.217 0v1.174h3.522v-1.174zm-24.652 3.521v1.174h3.522v-1.174zm10.565 0v1.174h3.522v-1.174zm4.695 0 .587 1.174h3.522l-.587-1.174zm9.392 0v1.174h3.521v-1.174zm-24.652 3.522V32h9.39v-1.174zm10.565 0V32h3.521v-1.174zm6.456 0L34.347 32h3.522l-.587-1.174zm7.63 0V32h3.522v-1.174zm-24.652 3.522v1.174h9.392v-1.174zm0 3.522v1.173h9.392V37.87zm0 3.521v1.174h9.392v-1.174zm0 3.522v1.174h9.392v-1.174z"/></svg>