<svg width="64" height="64" version="1.1" viewBox="0 0 64 64" xmlns="http://www.w3.org/2000/svg">
 <circle cx="32" cy="32" r="27" fill="#385373" stroke-width="1.174"/>
 <path d="m14.348 24.174c-1.2518 2.444-1.9053 5.1172-1.9132 7.8261 0 10.085 8.7596 18.261 19.565 18.261 10.806 0 19.565-8.1757 19.565-18.261-0.0072-2.7086-0.65976-5.382-1.9106-7.8261l-17.654-1.3043z" fill="#6373bf" stroke-width="1.2601"/>
 <path d="m32 13.739a19.565 18.261 0 0 0-17.652 10.435h35.306a19.565 18.261 0 0 0-17.654-10.435z" fill="#ee4b5f" stroke-width="1.2601"/>
 <path d="m32.8 13.881v0.0051c-1.7923 0-3.3411 0.60985-4.1194 1.5133-0.70094-0.22968-1.4974-0.34392-2.3412-0.34392-2.1947 0-4.0418 0.85896-4.7309 2.0737-0.11712-0.12206-0.27446-0.21819-0.4178-0.32354a19.565 18.261 0 0 0-0.77191 0.51715c0.60744 0.22769 1.124 0.54936 1.5081 0.95024 0.68904-1.2147 2.542-2.0763 4.7333-2.0763 0.84725 0 1.6377 0.11849 2.3387 0.34646 0.7741-0.90085 2.3305-1.5158 4.1194-1.5158 2.1053 0 3.8773 0.85906 4.4404 2.0202 0.61928-0.03488 1.2992-0.01213 1.8342 0.13247 0.85066 0.23053 1.5788 1.0098 1.9693 1.9413 0.27103 0.64895 0.32429 1.307 0.19362 1.8878a3.7518 2.8357 0 0 1 0.44583 0.28787c0.03331-0.0246 0.08628-0.06442 0.10445-0.07642 0.4449-0.71626 0.51277-1.6984 0.10445-2.6597-0.19225-0.46021-0.45797-0.86815-0.79739-1.1948 0.42363-0.16673 0.87723-0.27335 1.3553-0.32099 0.18882 0.0044 0.37522 0.04894 0.56301 0.08917a19.565 18.261 0 0 0-1.768-1.0394c-0.39324 0.10063-0.77139 0.22688-1.1056 0.4178-0.68223-0.38961-1.7023-0.63689-2.8456-0.63689-0.12164 0-0.2469 0.02037-0.37195 0.02547-0.56739-1.1663-2.3409-2.0202-4.4404-2.0202zm0.78974 4.1271c-1.2674 0.0072-2.3849 0.5003-2.9144 1.4062-0.08166 0.1293-0.14598 0.26046-0.18852 0.39742v0.02802l-0.31844 1.1413c0.0519-0.13696 0.11026-0.26556 0.18597-0.39742 0.85066-1.4495 3.2225-1.8682 5.2912-0.90438 0.68592 0.3183 1.2439 0.74799 1.6585 1.233a3.7518 2.8357 0 0 1 0.70568-0.27004c-0.54792-0.86906-1.2946-1.7126-2.0712-2.1068-0.7739-0.36047-1.5884-0.53164-2.3489-0.52735zm-10.524 0.50186c-0.59915-2e-3 -1.2396 0.11232-1.8571 0.34646-0.57845 0.21777-1.0625 0.52504-1.4623 0.87637-0.81384-0.15864-1.6062-0.09779-2.2928 0.11464a19.565 18.261 0 0 0-1.5337 1.8215c1.0662-0.98436 3.0368-1.1688 4.8072-0.34137 0.47658 0.22203 0.88698 0.49697 1.2381 0.80249a2.8607 2.4697 0 0 1 0.73115-0.71076c-0.41892-0.48249-0.97066-0.91329-1.6508-1.233 0.27136-0.17013 0.58028-0.32927 0.90438-0.45347 1.2369-0.46616 2.551-0.42534 3.5105 0v-0.02547l-0.74388-0.85088c-0.48008-0.21205-1.0504-0.34319-1.6457-0.34646h-0.0051zm23.216 1.0394c0.02225 0.054 0.04867 0.10484 0.07133 0.15794 0.50529 1.2173 0.43407 2.4661-0.13247 3.3755l1.0878-0.66236c0.22403-0.36129 0.36283-0.78186 0.43054-1.2279a19.565 18.261 0 0 0-1.4572-1.6432z" fill="#952f5b" stroke-width=".85066"/>
 <path d="m25.48 20.261c-4.3222 0-7.8261 3.7958-7.8261 8.4783s3.5039 8.4783 7.8261 8.4783h13.043c4.3222 0 7.8261-3.7958 7.8261-8.4783s-3.5039-8.4783-7.8261-8.4783c-2.6251 0.0026-5.0743 1.431-6.5217 3.8035-1.4474-2.3726-3.8966-3.8009-6.5217-3.8035z" fill="#ffffff" stroke-width="1.3044" style="paint-order:normal"/>
 <path d="m32.001 33.304c-2.5654 0.0026-5.2174 1.3043-5.2174 3.913s4.2072 9.1304 5.2174 9.1304 5.2174-6.5217 5.2174-9.1304-2.652-3.9157-5.2174-3.913z" fill="#ffd10a" stroke-width=".78472"/>
 <path d="m28.088 26.783a2.6087 2.6087 0 0 0-2.6087 2.6087 2.6087 2.6087 0 0 0 2.6087 2.6087 2.6087 2.6087 0 0 0 2.6087-2.6087 2.6087 2.6087 0 0 0-2.6087-2.6087zm7.8261 0a2.6087 2.6087 0 0 0-2.6087 2.6087 2.6087 2.6087 0 0 0 2.6087 2.6087 2.6087 2.6087 0 0 0 2.6087-2.6087 2.6087 2.6087 0 0 0-2.6087-2.6087zm-8.4783 1.3043a0.65217 0.65217 0 0 1 0.65217 0.65217 0.65217 0.65217 0 0 1-0.65217 0.65217 0.65217 0.65217 0 0 1-0.65217-0.65217 0.65217 0.65217 0 0 1 0.65217-0.65217zm7.8261 0a0.65217 0.65217 0 0 1 0.65217 0.65217 0.65217 0.65217 0 0 1-0.65217 0.65217 0.65217 0.65217 0 0 1-0.65217-0.65217 0.65217 0.65217 0 0 1 0.65217-0.65217z" fill="#034c77" stroke-width="1.3044" style="paint-order:normal"/>
</svg>
