<svg width="64" height="64" version="1.1" xmlns="http://www.w3.org/2000/svg">
 <circle cx="32" cy="32" r="27" fill="#207bf6" stroke-width=".96429"/>
 <path d="m32 15a11.2 11.2 0 0 0-11.092 9.6934 11.2 11.2 0 0 0-9.9082 11.107 11.2 11.2 0 0 0 11.199 11.199 11.2 11.2 0 0 0 0.054687-0.003906h19.492a11.2 11.2 0 0 0 0.054687 0.003906 11.2 11.2 0 0 0 11.199-11.199 11.2 11.2 0 0 0-9.9062-11.123 11.2 11.2 0 0 0-11.094-9.6777z" fill="#ffffff"/>
 <path d="m27.074 32.781a0.7 0.7 0 0 0-0.66602 0.58789l-0.18164 1.1328-0.67578 0.52539a0.7 0.7 0 0 0-0.12305 0.98242 0.7 0.7 0 0 0 0.98242 0.12305l0.42188-0.32812c1.0201 0.67465 2.8373 1.5957 5.168 1.5957 2.5023 0 4.4138-1.0617 5.3809-1.7402l0.60547 0.47266a0.7 0.7 0 0 0 0.98242-0.12305 0.7 0.7 0 0 0-0.12109-0.98242l-0.67578-0.52539-0.18359-1.1328a0.7 0.7 0 0 0-0.80273-0.58008 0.7 0.7 0 0 0-0.58008 0.80274l0.13281 0.81055c-0.72162 0.54011-2.4303 1.5977-4.7383 1.5977-1.9891 0-3.5301-0.78451-4.3809-1.3477l0.17188-1.0605a0.7 0.7 0 0 0-0.58008-0.80274 0.7 0.7 0 0 0-0.13672-0.007812z" color="#000000" fill="#207bf6" style="-inkscape-stroke:none"/>
</svg>
