<svg width="64" height="64" version="1.1" viewBox="0 0 64 64" xmlns="http://www.w3.org/2000/svg">
 <g transform="matrix(1.1739 0 0 1.1739 3.8261 3.8261)">
  <path d="m24 1c12.703 0 23 10.297 23 23s-10.297 23-23 23-23-10.297-23-23 10.297-23 23-23z" fill="#df3643"/>
  <path d="m24 10.5c-7.1797 0-13 7.1634-13 16v2c0 3.3137 2.6863 6 6 6v-12c-0.84616 0.0028-1.6822 0.18448-2.4531 0.5332 1.367-5.684 5.169-9.533 9.453-9.533 4.2844-2e-5 8.0862 3.8485 9.4531 9.5332-0.771-0.349-1.607-0.533-2.453-0.533v12c3.3137 0 6-2.6863 6-6v-2c0-8.837-5.82-16-13-16zm-5 9v2h10v-2zm0 4v2h10v-2zm0 4v2h10v-2zm0 4v2h10v-2zm0 4v2h10v-2z" fill="#ffffff"/>
 </g>
</svg>
