<svg xmlns="http://www.w3.org/2000/svg" width="64" height="64"><rect width="52" height="52" x="6" y="6" fill="#388e3c" rx="8" ry="8"/><path fill="#43a047" d="M14 6a7.97 7.97 0 0 0-6 2.71V18l-2 2v2l3 3h38l7-8h4v-1h-4v-4l-8 9h-3l8-9V6.068A8 8 0 0 0 50 6zm2 31L6 45v3l6-4v2l-6 4h4v6.928A8 8 0 0 0 14 58h2V47l6-5h3l-6 5v11h31c4.432 0 8-3.568 8-8v-2.092L51 39h-2l-2-2z"/><g transform="translate(-5 3)"><circle cx="58.5" cy="50.5" r="1.5" fill="#fbc02d"/><circle cx="58.5" cy="50.5" r=".5" fill="#263238"/></g><g transform="translate(-5 -1)"><circle cx="58.5" cy="11.5" r="1.5" fill="#fbc02d"/><circle cx="58.5" cy="11.5" r=".5" fill="#263238"/></g><g transform="translate(5 3)"><circle cx="5.5" cy="50.5" r="1.5" fill="#fbc02d"/><circle cx="5.5" cy="50.5" r=".5" fill="#263238"/></g><rect width="28" height="16" x="18" y="24" fill="#263238" rx="2" ry="2"/><rect width="17" height="6" x="10" y="13" fill="#263238" ry="1"/><rect width="17" height="6" x="37" y="44" fill="#eceff1" ry="1"/><rect width="9" height="1" x="38" y="45" fill="#37474f" ry="0"/><path fill="#37474f" d="M38 47h5v1h-5z"/><path fill="#37474f" fill-rule="evenodd" d="m49 49 2-3 2 3z"/><path fill="#fbc02d" fill-rule="evenodd" d="M21 27h2v10h-2zm4 0h2v10h-2zm4 0h2v10h-2zm4 0h2v10h-2zm4 0h2v10h-2zm4 0h2v10h-2z" style="paint-order:fill markers stroke"/><g transform="translate(.318 .049)"><circle cx="10.182" cy="10.451" r="1.5" fill="#fbc02d"/><circle cx="10.182" cy="10.451" r=".5" fill="#263238"/></g><path fill="#fff" d="M11 14h4v1h-4zm0 2h8v1h-8zm11 0h3v2h-3z" opacity=".5" style="paint-order:stroke fill markers"/></svg>