<svg xmlns="http://www.w3.org/2000/svg" width="64" height="64"><rect width="52" height="52" x="6" y="6" fill="#f2f2f2" rx="8" ry="8"/><path fill="#ffd300" d="M33.837 11.001q34.548 42-19.098 33.078 36.016-1.26 19.098-33.078"/><path fill="#008add" d="M32.248 18.351c-17 .284-20.073 8.594-9.31 24.908a42 42 0 0 0 2.893-.597C21.722 28.2 29.526 20.595 49.266 19.924c-6.71-1.114-12.384-1.626-17.029-1.552M24.32 45.326c1.68 2.397 3.61 4.959 5.844 7.677-1.407-2.65-2.559-5.143-3.417-7.48-.786-.044-1.597-.125-2.427-.198"/></svg>