<svg xmlns="http://www.w3.org/2000/svg" width="64" height="64"><path fill="#e6e6e6" d="M59 32c0 14.912-12.089 27-27 27a27 27 0 0 1-10.234-2.006 27.1 27.1 0 0 1-8.434-5.48.1.1 0 0 0-.028-.021c-.04-.042-.082-.076-.123-.117C8.139 46.465 5 39.596 5 32 5 17.088 17.088 5 32 5c2.26 0 4.457.275 6.552.804a26.9 26.9 0 0 1 10.893 5.59 27.1 27.1 0 0 1 7.61 10.537A26.9 26.9 0 0 1 59 32" class="st1"/><path fill="#0c0c0c" d="M43.962 22.68c.12 1.085-.089 2.214.032 3.318.127 1.199-.038 2.461-.254 3.64-.025-.957-.05-1.928-.102-2.866-.05-.99-.444-2.005-.71-2.97.285 2.03.412 4.086.463 6.122.038 1.573.044 3.21-.216 4.745-.253 1.497-1.034 3-1.522 4.39-.723 2.055-.495 4.802-.666 7.06 0 0-.171.393-.463-1.522-.393-2.588.025-5.424.076-8.056v-.064c0-.032-.006-.089-.006-.089s-.083.241-.095.311a1 1 0 0 0-.02.114v.007l-.019.114c-.006.025-.006.044-.012.07-.007.044-.02.101-.026.152a.4.4 0 0 0-.012.082q-.058.315-.153.78c-.31 1.491-.532 3.001-.742 4.504-.006.032-.006.058-.012.09-.172 1.04-.495 1.484-1.136 2.213-.679.774-1.497 1.745-2.417 2.29-.025.02-.063.038-.101.064-1.23.837-2.373 1.896-3.66 2.594-.09.05-.121.05-.064-.013.044-.05.089-.095.133-.145.33-.356.647-.749.863-1.149l.019-.038c.71-1.446 1.351-2.962 1.992-4.453 0 0-.178.267-.4.584-.279.393-.647.875-.799 1.06-1.205 1.458-2.055 3.577-3.318 4.966-.456.501-1.237.692-1.75 1.18-.482.457-1.174.755-1.802.863-1.015.171-2.093.793-3.127 1.173 0 0 .609-.73 1.053-1.307a39 39 0 0 0 2.563-3.825 3.5 3.5 0 0 0-.889 1.187c-.596 1.313-2.087 2.296-3.12 3.31-.762.75-1.834 1.187-2.868 1.41-1.744-.07-3.52-.26-5.214-.68-1.409-.355-3.978-1.173-4.491-2.144-.07-.14-.102-.697.19-1.23.507-.926 1.529-1.694 2.15-2.595 1.167-1.706 2.836-4.294 4.517-5.303.932-.558 2.182-.894 3.273-1.338.501-.172.742-.26 1.237-.445-1.23.273-2.417.736-3.59 1.18 0 0 .006.013.634-.824.698-.926 1.618-1.694 2.43-2.506 1.427-1.427 4.903-3.736 4.903-3.736s-1.846 1.104-2.81 1.116c-.584.007-1.155.35-1.637.654.597-.673 1.237-1.326 1.853-1.973 1.243-1.32 2.95-2.265 4.472-3.254-.755.158-1.592.082-2.347-.032 1.433-.9 2.829-1.922 4.028-3.096 2.95-2.899 4.402-7.149 6.686-10.505 1.046-1.535 2.493-2.873 3.882-4.13 0 0 .926.14 1.066.673.342 1.326.926 2.645 1.376 3.965.47 1.351.52 2.886.679 4.307" class="st4"/><path fill="#117c13" d="M39.388 28.891c-.165.063.749 3.578 1.04 5.17.14.761.241 1.554.172 2.328 0 0-.083.241-.096.31a1 1 0 0 0-.019.115v.006l-.019.115c-.006.025-.006.044-.012.07-.007.044-.02.1-.026.152a.4.4 0 0 0-.012.082q-.058.315-.153.78c-.31 1.491-.532 3-.742 4.504-.006.032-.006.057-.012.089-.172 1.04-.495 1.484-1.136 2.214-.679.774-1.497 1.744-2.417 2.29-.025.019-.063.038-.101.063-1.231.838-2.373 1.897-3.66 2.595-.09.05-.121.05-.064-.013.044-.05.089-.095.133-.146.33-.355.647-.748.863-1.148l.019-.038c.71-1.446 1.351-2.962 1.992-4.453.032-.057.044-.089.07-.146a1.7 1.7 0 0 0 .14-.419c.367-1.922.76-4.155.335-6.077-.38-1.706-.406-1.287-.406-1.287a15 15 0 0 1-.475 2.448c-.178.603-.502 1.13-.546 1.44-.12.818.21 1.656.228 1.707a3.1 3.1 0 0 1-.367-1.231c-.07-.78.4-1.624.57-2.34.28-1.162-.279-2.836-.031-3.68.64-2.227 3.152-5.665 4.174-8.748.533 1.65.945 3.445 1.516 4.98.05.14.07.184.019.12-.267-.615-.977-1.852-.977-1.852" class="st5"/><path fill="#2b2b2b" d="M41.856 17.219c.006 0 1.269 2.366 1.42 3.641.096.825.305 2.487.305 2.487s-.406-2.493-.786-3.68c-.26-.824-.939-2.448-.939-2.448m-.266 1.605s.723 1.744.894 2.664c.127.692.362 2.094.362 2.094s-.412-1.802-.666-2.684c-.203-.691-.59-2.074-.59-2.074m-1.466 3.273c.64 2.03 1.326 4.136 1.542 6.236.152 1.51-.077 4.605-.077 4.605-.006 0 .064-3.85-.304-5.69a37 37 0 0 0-.87-3.489c-.405-1.338-.386-1.345-.386-1.345zm1.351 12.807s-.019 1.357-.095 2.024c-.076.685-.229 1.376-.317 2.068-.083.64-.254 1.338-.203 1.953.025.311-.051.083-.007-.754.051-1.047.337-2.113.444-3.153.064-.71.178-2.138.178-2.138m.216-11.304s.28.653.501 1.472c.19.704.317 1.414.393 2.144.064.634.216 1.694.216 1.694-.07-.952-.14-1.923-.285-2.861-.032-.222-.127-.533-.203-.8a8 8 0 0 0-.35-1.015 12 12 0 0 1-.272-.634m-3.279 5.272s.165.672.31 1.459c.115.64.166 1.307.267 1.941.14.888.768 2.658.768 2.658s-.387-1.65-.565-2.43c-.146-.647-.196-1.37-.304-2.042a5 5 0 0 0-.254-.97zm-1.111 1.034s2.068 7.784 1.06 11.126c-.629 2.087-3.255 5.804-3.255 5.804-.006-.006 3-4.504 3.178-6.971.197-2.69-.228-5.31-.653-7.993-.108-.653-.33-1.967-.33-1.967z" class="st6"/><path fill="#2b2b2b" d="M36.654 33.686s.216.622.292 1.39c.076.792.082 1.617.063 2.416-.031 1.243-.533 3.743-.533 3.743s.616-2.709.66-3.997c.02-.634-.076-1.332-.127-1.992a5 5 0 0 0-.171-.951 17 17 0 0 1-.184-.609m-4.339 4.206c.45 2.867.12 5.887-.945 8.481-.907 2.22-4.618 5.671-4.618 5.671s1.871-1.623 2.632-2.581c.793-.996 1.352-2.22 1.865-3.394.857-1.948 1.123-4.434.8-6.521-.318-2.068-.083-1.307-.083-1.307zm.933 3.832c0 .057.006.114 0 .178 0 .14 0 .482.044 1.034.026.304.083.704.064 1.11-.02.355-.12.767-.21 1.04-.24.755-.856 2.246-.856 2.246s.755-1.567.977-2.347c.044-.16.159-.489.19-.908.032-.418-.05-.862-.057-.983a20 20 0 0 0-.203-2.201c.026.336.038.501.051.831" class="st6"/><path fill="#2b2b2b" d="M29.556 44.09c-.285 1.599-1.383 4.79-1.383 4.79s1.06-2.462 1.326-3.705c.165-.787.558-1.884.336-2.684-.006 0-.184 1.06-.279 1.599m-12.224 7.809c-.203.552-.628 1.091-1.015 1.573 0 0 .863-.996.952-1.211.038-.096.336-.825.222-.882.006 0-.096.349-.16.52zm3.489-1.307c-.108 1.072-1.104 3.197-1.104 3.197s.977-1.668 1.142-2.512c.038-.178.222-1.637.019-1.694.006 0-.019.673-.057 1.009m4.612-3.375c-.165 1.478-1.294 4.44-1.294 4.44s1.116-2.309 1.32-3.482c.113-.666.418-1.751.113-2.398.007 0-.082.952-.14 1.44zM40.27 15.392c-.73.343-1.465.837-1.935 1.503-.45.647-1.237 2.037-1.237 2.037.006 0 1.136-1.599 1.776-2.214.102-.095.647-.635.717-.679.127-.076.679-.647.679-.647m-.882 3.47a1.3 1.3 0 0 0-.349-.013 4.4 4.4 0 0 0-1.104.292c-.742.305-1.42.85-2.055 1.364 0 0 .628-.374.806-.463.14-.07.564-.317.977-.508.133-.063.45-.19.76-.285.66-.203 1.384-.324 1.384-.324-.172-.019-.254-.038-.419-.063m-1.186 1.668s-.05.362-1.256.222c-.679-.076-1.39.305-1.776.856l-.19.299c.14-.127.209-.19.348-.324 0 0 .438-.362.685-.47.229-.1.622-.095.876.026.133.063.361.07.552.057.31-.013.583-.247.748-.66.007.007.007 0 .013-.006m-.476 1.928c-.032-.057-3.172 1.98-4.27 3.28-1.21 1.433-3.907 4.11-3.907 4.11 0 .006 1.516-.837 2.15-1.357.971-.787 1.637-2.043 2.595-2.842.584-.489 1.072-1.142 1.668-1.63.603-.489 1.764-1.561 1.764-1.561m-.577 5.145c-3.007 1.662-6.312 3.102-9.084 5.132-.92.672-1.859 1.32-2.797 1.966q-.45.316-.927.584c-.209.12-.317.184-.532.298.767-.24 1.566-.52 2.258-.907.545-.304 1.066-.749 1.56-1.135a19 19 0 0 1 2.087-1.39c.337-.19.502-.285.831-.488a9 9 0 0 1 1.409-.692 83 83 0 0 0 4.688-2.023c.215-.533.317-.8.507-1.345m-7.035 5.538c.044-.019.082-.038.127-.05.101-.039.349-.134.723-.343.21-.12.47-.305.755-.406 1.002-.362 3.051-1.06 3.051-1.06s-2.055.628-3.064.945c-.298.096-.583.324-.666.362-.171.076-1.32.685-1.529.825.248-.114.362-.165.603-.273m2.988 1.364c0-.006-3.901.73-5.43 1.681-.964.603-2.112.932-3.077 1.49-.621.362-1.827 1.263-1.827 1.263 0 .006 1.79-.926 2.728-1.256 1.091-.38 2.08-1.053 3.16-1.42 1.484-.496 4.446-1.758 4.446-1.758m-9.033 4.605s-.476-.063-1.573.47a19 19 0 0 0-2.036 1.135c.437-.222.653-.33 1.078-.565.12-.057.615-.342 1.072-.552.33-.152.844-.304 1.186-.406.108-.031.165-.044.273-.082m5.367 1.136c-1.503.019-3.153-.044-4.586.355a16 16 0 0 0-1.897.673c.615-.165.92-.248 1.522-.425a6.6 6.6 0 0 1 1.345-.254q1.807-.151 3.616-.349m-4.276 2.372a8 8 0 0 0-.856.013c-1.472.101-3.052.177-4.434.621-.958.311-2.842 1.193-2.842 1.193s2.448-.99 3.717-1.199c1.75-.292 3.546-.533 5.335-.603a40 40 0 0 1-.92-.025m-5.037 1.814c-1.135.197-2.353.438-3.362.99-1.155.628-.933.59-.933.59.42-.172.628-.26 1.04-.45a13 13 0 0 1 1.93-.718c.538-.158.798-.24 1.325-.412m1.872 1.738c-1.396.152-2.791.31-4.18.457a9.1 9.1 0 0 0-3.248.97c.577-.152 1.16-.317 1.725-.507.749-.229 1.51-.343 2.284-.432a62 62 0 0 0 3.419-.488m-4.155 2.366c0-.006-2.29-.514-3.28-.076-1.192.52-1.332.812-1.332.812.45-.216.673-.324 1.098-.558l.304-.153c.393-.165.888-.222 1.364-.196.615.038 1.846.171 1.846.171" class="st6"/><path fill="#4e4f4e" d="M41.133 2.857c.996 3.68 1.015 7.46.844 11.215-.19 4.085-1.732 8.373-3.064 12.23-1.402 4.066-3.648 7.504-5.76 11.19-1.941 3.381-5.018 6.236-8.044 8.64-2.639 2.093-5.557 3.692-8.697 4.846-.977.355-2.068.482-3.102.514-.76.019-1.306-.025-1.332-.025 2.246-.47 4.523-1.149 6.515-2.297 5.525-3.19 10.727-7.555 13.968-13.125 2.062-3.533 4.01-7.003 5.367-10.885 1.25-3.59 2.613-7.352 2.987-11.146.286-2.899.273-5.867-.247-8.747.178-.603.254-.908.387-1.51.076-.368.114-.546.178-.901z" class="st7"/><path fill="#666" d="M41.133 2.857c.996 3.68 1.015 7.46.844 11.215-.19 4.085-1.732 8.373-3.064 12.23-1.402 4.066-3.648 7.504-5.76 11.19-1.941 3.381-5.018 6.236-8.044 8.64-2.639 2.093-5.557 3.692-8.697 4.846-.977.355-2.061.482-3.102.514h-.006c2.442-.508 4.999-1.25 7.092-2.633 5.455-3.603 10.701-7.96 13.76-13.873 1.902-3.679 3.615-7.295 4.896-11.26 1.186-3.666 2.442-7.536 2.633-11.399.146-2.867-.045-5.779-.73-8.576.077-.362.115-.54.178-.895z" class="st8"/></svg>