<svg width="64" height="64" version="1.1" viewBox="0 0 64 64" xmlns="http://www.w3.org/2000/svg">
 <path class="st1" d="m59 32c0 14.912-12.089 27-27 27-3.6197 0-7.0746-0.71432-10.234-2.0056-3.1526-1.2913-6.01-3.1664-8.4342-5.4811-0.0069-0.0069-0.01374-0.01374-0.02747-0.02061-0.04121-0.04121-0.08242-0.07555-0.12363-0.11676-5.0415-4.911-8.1804-11.78-8.1804-19.376 0-14.912 12.089-27 27-27 2.2598 0 4.4576 0.27474 6.5525 0.80358 2.6924 0.67312 5.2201 1.7446 7.521 3.1526 1.1883 0.72806 2.3147 1.5454 3.3724 2.4384 3.3244 2.8161 5.955 6.429 7.6103 10.536 1.2569 3.1183 1.9438 6.5114 1.9438 10.069z" fill="#e6e6e6" stroke-width=".30709"/>
 <path class="st4" d="m43.962 22.68c0.12053 1.0847-0.08881 2.2139 0.03172 3.3177 0.12687 1.1989-0.03806 2.4613-0.25374 3.6412-0.02537-0.95787-0.05075-1.9284-0.1015-2.8673-0.05075-0.98959-0.44404-2.0045-0.71047-2.9688 0.28546 2.0299 0.41233 4.0852 0.46308 6.1215 0.03806 1.5732 0.0444 3.2098-0.21568 4.7449-0.25374 1.4971-1.034 3.0005-1.5224 4.3897-0.72316 2.0553-0.49479 4.802-0.66607 7.0603 0 0-0.17127 0.3933-0.46308-1.5224-0.3933-2.5881 0.02537-5.4237 0.07612-8.0562v-0.06343c0-0.03172-0.0063-0.08881-0.0063-0.08881s-0.08247 0.24105-0.09515 0.31083c-0.0063 0.02537-0.01903 0.09515-0.01903 0.11418v0.0063c-0.0063 0.03172-0.01269 0.06978-0.01903 0.11418-0.0063 0.02537-0.0063 0.0444-0.01269 0.06978-0.0063 0.04441-0.01903 0.1015-0.02537 0.15224-0.0063 0.02537-0.01269 0.05709-0.01269 0.08246-0.03806 0.20934-0.08881 0.46942-0.15224 0.78025-0.31083 1.4907-0.53285 3.0005-0.74219 4.5039-0.0063 0.03172-0.0063 0.05709-0.01269 0.08881-0.17128 1.0403-0.49479 1.4844-1.1355 2.2139-0.67876 0.77391-1.4971 1.7445-2.4169 2.29-0.02537 0.01903-0.06344 0.03806-0.1015 0.06344-1.2306 0.83734-2.3725 1.8967-3.6602 2.5945-0.08881 0.05075-0.12053 0.05075-0.06343-0.01269 0.0444-0.05075 0.08881-0.09515 0.13321-0.1459 0.32986-0.35524 0.64704-0.74853 0.86272-1.1482l0.01903-0.03806c0.71047-1.4463 1.3512-2.9624 1.9919-4.4531 0 0-0.17762 0.26643-0.39964 0.5836-0.27911 0.3933-0.64704 0.8754-0.79928 1.0594-1.2053 1.459-2.0553 3.5777-3.3176 4.967-0.45673 0.50114-1.237 0.69144-1.7508 1.1799-0.48211 0.45673-1.1735 0.75488-1.8016 0.86272-1.015 0.17128-2.0934 0.79294-3.1273 1.1735 0 0 0.60898-0.7295 1.053-1.3068 0.92615-1.218 1.7825-2.4993 2.5628-3.8251-0.01903 0.01269-0.54554 0.44404-0.88809 1.1862-0.59629 1.3131-2.087 2.2963-3.121 3.3113-0.76122 0.74853-1.8333 1.1862-2.8673 1.4083-1.7445-0.06978-3.5206-0.26008-5.2144-0.67876-1.4083-0.35524-3.9774-1.1735-4.4912-2.1441-0.06978-0.13956-0.1015-0.69778 0.1903-1.2306 0.50748-0.92615 1.5288-1.6937 2.1504-2.5945 1.1672-1.7064 2.8355-4.2945 4.5166-5.3032 0.93249-0.55823 2.1822-0.89443 3.2732-1.3385 0.50114-0.17127 0.74219-0.26008 1.237-0.44404-1.2306 0.27277-2.4169 0.73584-3.5904 1.1799 0 0 0.0063 0.01269 0.63435-0.82466 0.69778-0.92615 1.6176-1.6937 2.4296-2.5057 1.4273-1.4273 4.9035-3.7363 4.9035-3.7363s-1.846 1.1038-2.8102 1.1165c-0.5836 0.0063-1.1545 0.34889-1.6366 0.65338 0.59629-0.67241 1.237-1.3258 1.8523-1.9728 1.2433-1.3194 2.9497-2.2646 4.4722-3.2542-0.75488 0.15859-1.5922 0.08246-2.3471-0.03172 1.4336-0.90078 2.8292-1.9221 4.0281-3.0956 2.9497-2.899 4.4024-7.1491 6.686-10.505 1.0467-1.5351 2.493-2.8736 3.8822-4.1296 0 0 0.92615 0.13956 1.0657 0.67241 0.34255 1.3258 0.92615 2.6452 1.3765 3.9647 0.46942 1.3512 0.52017 2.8863 0.67875 4.3072z" fill="#0c0c0c" stroke-width=".30709"/>
 <path class="st5" d="m39.388 28.891c-0.16493 0.06343 0.74853 3.5777 1.0403 5.17 0.13956 0.76122 0.24105 1.5542 0.17128 2.3281 0 0-0.08246 0.24105-0.09515 0.31083-0.0063 0.02537-0.01903 0.09515-0.01903 0.11418v0.0063c-0.0063 0.03806-0.01269 0.06978-0.01903 0.11418-0.0063 0.02537-0.0063 0.0444-0.01269 0.06978-0.0063 0.04441-0.01903 0.1015-0.02537 0.15224-0.0063 0.02537-0.01269 0.05709-0.01269 0.08247-0.03806 0.20934-0.08881 0.46942-0.15224 0.78025-0.31083 1.4907-0.53285 3.0005-0.74219 4.5039-0.0063 0.03172-0.0063 0.05709-0.01269 0.08881-0.17128 1.0403-0.49479 1.4844-1.1355 2.2139-0.67876 0.77391-1.4971 1.7445-2.4169 2.29-0.02537 0.01903-0.06343 0.03806-0.1015 0.06344-1.2306 0.83734-2.3725 1.8967-3.6602 2.5945-0.08881 0.05075-0.12053 0.05075-0.06343-0.01269 0.0444-0.05075 0.08881-0.09515 0.13321-0.1459 0.32986-0.35524 0.64704-0.74853 0.86272-1.1482l0.01903-0.03806c0.71047-1.4463 1.3512-2.9624 1.9919-4.4531 0.03172-0.05709 0.0444-0.08881 0.06978-0.1459 0.06343-0.12687 0.10784-0.26643 0.13956-0.41867 0.36792-1.9221 0.76122-4.155 0.3362-6.0771-0.38061-1.7064-0.40598-1.2877-0.40598-1.2877-0.09515 0.82466-0.2474 1.6557-0.47576 2.4486-0.17762 0.60263-0.50114 1.1291-0.54554 1.44-0.12053 0.81831 0.20934 1.6557 0.22837 1.7064-0.01903-0.03172-0.30449-0.51382-0.36792-1.2306-0.06978-0.78025 0.39964-1.6239 0.57092-2.3408 0.27911-1.1609-0.27911-2.8355-0.03172-3.6792 0.64069-2.2266 3.1527-5.6647 4.174-8.7477 0.53285 1.6493 0.94518 3.4445 1.5161 4.9796 0.05075 0.13956 0.06978 0.18396 0.01903 0.12053-0.26643-0.61532-0.9769-1.8523-0.9769-1.8523z" fill="#117c13" stroke-width=".30709"/>
 <path class="st6" d="m41.856 17.219c0.0063 0 1.2687 2.3661 1.4209 3.6412 0.09515 0.82466 0.30449 2.4867 0.30449 2.4867s-0.40598-2.493-0.78659-3.6792c-0.26008-0.82466-0.93884-2.4486-0.93884-2.4486z" fill="#2b2b2b" stroke-width=".30709"/>
 <path class="st6" d="m41.59 18.824s0.72316 1.7445 0.89443 2.6643c0.12687 0.69144 0.36158 2.0934 0.36158 2.0934s-0.41233-1.8016-0.66607-2.6833c-0.20299-0.69144-0.58995-2.0743-0.58995-2.0743z" fill="#2b2b2b" stroke-width=".30709"/>
 <path class="st6" d="m40.124 22.097c0.64069 2.0299 1.3258 4.136 1.5415 6.2357 0.15224 1.5098-0.07612 4.6054-0.07612 4.6054-0.0063 0 0.06344-3.8505-0.30449-5.6901-0.23471-1.1735-0.52017-2.3408-0.86906-3.4889-0.40598-1.3385-0.38695-1.3448-0.38695-1.3448z" fill="#2b2b2b" stroke-width=".30709"/>
 <path class="st6" d="m41.475 34.904s-0.01903 1.3575-0.09515 2.0236c-0.07612 0.6851-0.22837 1.3765-0.31718 2.068-0.08247 0.64069-0.25374 1.3385-0.20299 1.9538 0.02537 0.31083-0.05075 0.08246-0.0063-0.75488 0.05075-1.0467 0.3362-2.1124 0.44404-3.1527 0.06344-0.71047 0.17762-2.1378 0.17762-2.1378z" fill="#2b2b2b" stroke-width=".30709"/>
 <path class="st6" d="m41.691 23.6s0.27911 0.65338 0.50114 1.4717c0.1903 0.70413 0.31718 1.4146 0.3933 2.1441 0.06343 0.63435 0.21568 1.6937 0.21568 1.6937-0.06978-0.95152-0.13956-1.9221-0.28546-2.8609-0.031717-0.22202-0.12687-0.53285-0.20299-0.79928-0.095152-0.34889-0.20934-0.69144-0.34889-1.015-0.11418-0.2474-0.17128-0.38061-0.27277-0.63435z" fill="#2b2b2b" stroke-width=".30709"/>
 <path class="st6" d="m38.412 28.872s0.16493 0.67241 0.31083 1.459c0.11418 0.64069 0.16493 1.3068 0.26643 1.9411 0.13956 0.88809 0.76756 2.6579 0.76756 2.6579s-0.38695-1.6493-0.56457-2.4296c-0.1459-0.64704-0.19665-1.3702-0.30449-2.0426-0.05075-0.32986-0.13956-0.65972-0.25374-0.97056-0.08881-0.2474-0.13321-0.36792-0.22202-0.61532z" fill="#2b2b2b" stroke-width=".30709"/>
 <path class="st6" d="m37.301 29.906s2.068 7.7835 1.0594 11.126c-0.62801 2.087-3.2542 5.8043-3.2542 5.8043-0.0063-0.0063 3.0005-4.5039 3.1781-6.9715 0.19665-2.6896-0.22837-5.3095-0.65338-7.9928-0.10784-0.65338-0.32986-1.9665-0.32986-1.9665z" fill="#2b2b2b" stroke-width=".30709"/>
 <path class="st6" d="m36.654 33.686s0.21568 0.62166 0.2918 1.3892c0.07612 0.79294 0.08247 1.6176 0.06344 2.4169-0.03172 1.2433-0.53285 3.7427-0.53285 3.7427s0.61532-2.7087 0.65972-3.9964c0.01903-0.63435-0.07612-1.3321-0.12687-1.9919-0.02537-0.32352-0.08246-0.64704-0.17128-0.95152-0.07612-0.24105-0.11418-0.36158-0.18396-0.60898z" fill="#2b2b2b" stroke-width=".30709"/>
 <path class="st6" d="m32.315 37.892c0.45039 2.8673 0.12053 5.8868-0.94518 8.4813-0.90712 2.2202-4.6181 5.6711-4.6181 5.6711s1.8713-1.6239 2.6326-2.5818c0.79294-0.99593 1.3512-2.2202 1.865-3.3938 0.85637-1.9475 1.1228-4.4341 0.79928-6.5211-0.31718-2.068-0.08247-1.3068-0.08247-1.3068z" fill="#2b2b2b" stroke-width=".30709"/>
 <path class="st6" d="m33.248 41.724c0 0.05709 0.0063 0.11418 0 0.17762 0 0.13956 0 0.48211 0.0444 1.034 0.02537 0.30449 0.08247 0.70413 0.06343 1.1101-0.01903 0.35524-0.12053 0.76756-0.20934 1.0403-0.24105 0.75488-0.85637 2.2456-0.85637 2.2456s0.75488-1.5668 0.9769-2.3471c0.0444-0.15859 0.15859-0.48845 0.1903-0.90712 0.03172-0.41867-0.05075-0.86272-0.05709-0.98324-0.01903-0.72316-0.1015-1.4717-0.20299-2.2012 0.02537 0.33621 0.03806 0.50114 0.05075 0.831z" fill="#2b2b2b" stroke-width=".30709"/>
 <path class="st6" d="m29.556 44.09c-0.28546 1.5986-1.3829 4.7893-1.3829 4.7893s1.0594-2.4613 1.3258-3.7046c0.16493-0.78659 0.55823-1.884 0.3362-2.6833-0.0063 0-0.18396 1.0594-0.27911 1.5986z" fill="#2b2b2b" stroke-width=".30709"/>
 <path class="st6" d="m17.332 51.899c-0.20299 0.55188-0.62801 1.0911-1.015 1.5732 0 0 0.86272-0.99593 0.95152-1.2116 0.03806-0.09515 0.33621-0.82466 0.22202-0.88175 0.0063 0-0.09515 0.34889-0.15859 0.52017z" fill="#2b2b2b" stroke-width=".30709"/>
 <path class="st6" d="m20.821 50.592c-0.10784 1.0721-1.1038 3.1971-1.1038 3.1971s0.9769-1.6683 1.1418-2.512c0.03806-0.17762 0.22202-1.6366 0.01903-1.6937 0.0063 0-0.01903 0.67241-0.05709 1.0086z" fill="#2b2b2b" stroke-width=".30709"/>
 <path class="st6" d="m25.433 47.217c-0.16493 1.478-1.2941 4.4404-1.2941 4.4404s1.1165-2.309 1.3194-3.4826c0.11418-0.66607 0.41867-1.7508 0.11418-2.3978 0.0063 0-0.08246 0.95152-0.13956 1.44z" fill="#2b2b2b" stroke-width=".30709"/>
 <path class="st6" d="m40.27 15.392c-0.7295 0.34255-1.4653 0.83734-1.9348 1.5034-0.45039 0.64704-1.237 2.0363-1.237 2.0363 0.0063 0 1.1355-1.5986 1.7762-2.2139 0.1015-0.09515 0.64704-0.63435 0.71682-0.67875 0.12687-0.07612 0.67876-0.64704 0.67876-0.64704z" fill="#2b2b2b" stroke-width=".30709"/>
 <path class="st6" d="m39.388 18.862c-0.12053-0.01903-0.23471-0.02537-0.34889-0.01269-0.21568 0.02537-0.61532 0.09515-1.1038 0.2918-0.74219 0.30449-1.4209 0.85003-2.0553 1.3639 0 0 0.62801-0.37427 0.80562-0.46308 0.13956-0.06978 0.56457-0.31718 0.9769-0.50748 0.13321-0.06343 0.45039-0.1903 0.76122-0.28546 0.65972-0.20299 1.3829-0.32352 1.3829-0.32352-0.17128-0.01903-0.25374-0.03806-0.41867-0.06344z" fill="#2b2b2b" stroke-width=".30709"/>
 <path class="st6" d="m38.202 20.53s-0.05075 0.36158-1.256 0.22202c-0.67875-0.07612-1.3892 0.30449-1.7762 0.85637-0.07612 0.12053-0.11418 0.17762-0.1903 0.29814 0.13956-0.12687 0.20934-0.1903 0.34889-0.32352 0 0 0.4377-0.36158 0.6851-0.46942 0.22837-0.1015 0.62166-0.09515 0.8754 0.02537 0.13321 0.06343 0.36158 0.06978 0.55188 0.05709 0.31083-0.01269 0.5836-0.2474 0.74853-0.65972 0.0063 0.0063 0.0063 0 0.01269-0.0063z" fill="#2b2b2b" stroke-width=".30709"/>
 <path class="st6" d="m37.726 22.458c-0.03172-0.05709-3.1718 1.9792-4.2692 3.2796-1.2116 1.4336-3.9076 4.1106-3.9076 4.1106 0 0.0063 1.5161-0.83734 2.1504-1.3575 0.97056-0.78659 1.6366-2.0426 2.5945-2.8419 0.5836-0.48845 1.0721-1.1418 1.6683-1.6303 0.60263-0.48845 1.7635-1.5605 1.7635-1.5605z" fill="#2b2b2b" stroke-width=".30709"/>
 <path class="st6" d="m37.149 27.603c-3.0068 1.662-6.3118 3.102-9.0839 5.1319-0.91981 0.67241-1.8586 1.3194-2.7975 1.9665-0.29814 0.20934-0.60898 0.40598-0.92615 0.5836-0.20934 0.12053-0.31718 0.18396-0.53285 0.29814 0.76756-0.24105 1.5668-0.52017 2.2583-0.90712 0.54554-0.30449 1.0657-0.74853 1.5605-1.1355 0.65338-0.50748 1.3639-0.97056 2.087-1.3892 0.33621-0.1903 0.50114-0.28546 0.831-0.48845 0.45673-0.27277 0.92615-0.50748 1.4083-0.69144 1.5859-0.62801 3.1464-1.3004 4.6878-2.0236 0.21568-0.53285 0.31718-0.79928 0.50748-1.3448z" fill="#2b2b2b" stroke-width=".30709"/>
 <path class="st6" d="m30.114 33.141c0.0444-0.01903 0.08247-0.03806 0.12687-0.05075 0.1015-0.03806 0.34889-0.13321 0.72316-0.34255 0.20934-0.12053 0.46942-0.30449 0.75488-0.40598 1.0023-0.36158 3.0512-1.0594 3.0512-1.0594s-2.0553 0.62801-3.0639 0.94518c-0.29814 0.09515-0.5836 0.32352-0.66607 0.36158-0.17127 0.07612-1.3194 0.6851-1.5288 0.82466 0.2474-0.11418 0.36158-0.16493 0.60263-0.27277z" fill="#2b2b2b" stroke-width=".30709"/>
 <path class="st6" d="m33.102 34.505c0-0.0063-3.9013 0.7295-5.43 1.681-0.96421 0.60263-2.1124 0.93249-3.0766 1.4907-0.62166 0.36158-1.8269 1.2624-1.8269 1.2624 0 0.0063 1.7889-0.92615 2.7277-1.256 1.0911-0.38061 2.0807-1.053 3.1591-1.4209 1.4844-0.49479 4.4468-1.7572 4.4468-1.7572z" fill="#2b2b2b" stroke-width=".30709"/>
 <path class="st6" d="m24.069 39.11s-0.47576-0.06343-1.5732 0.46942c-0.69144 0.3362-1.3829 0.71047-2.0363 1.1355 0.4377-0.22202 0.65338-0.32986 1.0784-0.56457 0.12053-0.05709 0.61532-0.34255 1.0721-0.55188 0.32986-0.15224 0.84368-0.30449 1.1862-0.40598 0.10784-0.03172 0.16493-0.04441 0.27277-0.08247z" fill="#2b2b2b" stroke-width=".30709"/>
 <path class="st6" d="m29.436 40.246c-1.5034 0.01903-3.1527-0.0444-4.5864 0.35524-0.63435 0.17762-1.2814 0.41233-1.8967 0.67241 0.61532-0.16493 0.91981-0.2474 1.5224-0.42502 0.44404-0.13321 0.89443-0.21568 1.3448-0.25374 1.2053-0.1015 2.4105-0.21568 3.6158-0.34889z" fill="#2b2b2b" stroke-width=".30709"/>
 <path class="st6" d="m25.16 42.618c-0.28546-0.01269-0.57092-0.0063-0.85637 0.01269-1.4717 0.1015-3.0512 0.17762-4.4341 0.62166-0.95787 0.31083-2.8419 1.1926-2.8419 1.1926s2.4486-0.98959 3.7173-1.1989c1.7508-0.2918 3.546-0.53285 5.3349-0.60263-0.36792-0.0063-0.55188-0.01269-0.91981-0.02537z" fill="#2b2b2b" stroke-width=".30709"/>
 <path class="st6" d="m20.123 44.432c-1.1355 0.19665-2.3534 0.4377-3.3621 0.98959-1.1545 0.62801-0.93249 0.58994-0.93249 0.58994 0.41867-0.17127 0.62801-0.26008 1.0403-0.45039 0.61532-0.28546 1.275-0.53285 1.9284-0.71682 0.5392-0.15859 0.79928-0.24105 1.3258-0.41233z" fill="#2b2b2b" stroke-width=".30709"/>
 <path class="st6" d="m21.995 46.17c-1.3956 0.15224-2.7911 0.31083-4.1804 0.45673-1.0657 0.10784-2.1441 0.41867-3.1083 0.90078-0.05709 0.03172-0.08247 0.0444-0.13956 0.06978 0.57726-0.15224 1.1609-0.31718 1.7254-0.50748 0.74853-0.22837 1.5098-0.34255 2.2837-0.43136 1.1482-0.13321 2.2837-0.2918 3.4191-0.48845z" fill="#2b2b2b" stroke-width=".30709"/>
 <path class="st6" d="m17.84 48.536c0-0.0063-2.29-0.51382-3.2796-0.07612-1.1926 0.52017-1.3321 0.81197-1.3321 0.81197 0.45039-0.21568 0.67241-0.32352 1.0974-0.55823l0.30449-0.15224c0.3933-0.16493 0.88809-0.22202 1.3639-0.19665 0.61532 0.03806 1.846 0.17128 1.846 0.17128z" fill="#2b2b2b" stroke-width=".30709"/>
 <path class="st7" d="m41.133 2.8569c0.99593 3.6792 1.015 7.46 0.84369 11.215-0.19031 4.0852-1.7318 8.3734-3.0639 12.23-1.4019 4.0662-3.6475 7.5044-5.7599 11.19-1.9411 3.3811-5.0177 6.2357-8.0436 8.6398-2.6389 2.0934-5.5569 3.6919-8.6969 4.8464-0.9769 0.35524-2.068 0.48211-3.102 0.51382-0.76122 0.01903-1.3068-0.02537-1.3321-0.02537 2.2456-0.46942 4.5229-1.1482 6.5148-2.2963 5.5252-3.1908 10.727-7.5551 13.968-13.125 2.0616-3.5333 4.0091-7.0032 5.3666-10.885 1.2497-3.5904 2.6135-7.3521 2.9878-11.146 0.28546-2.899 0.27277-5.8677-0.2474-8.7477 0.17762-0.60263 0.25374-0.90712 0.38695-1.5098 0.07612-0.36792 0.11418-0.54554 0.17762-0.90078z" fill="#4e4f4e" stroke-width=".30709"/>
 <path class="st8" d="m41.133 2.8569c0.99593 3.6792 1.015 7.46 0.84369 11.215-0.19031 4.0852-1.7318 8.3734-3.0639 12.23-1.4019 4.0662-3.6475 7.5044-5.7599 11.19-1.9411 3.3811-5.0177 6.2357-8.0436 8.6398-2.6389 2.0934-5.5569 3.6919-8.6969 4.8464-0.9769 0.35524-2.0616 0.48211-3.102 0.51382h-0.0063c2.4422-0.50748 4.9987-1.2497 7.092-2.6326 5.4554-3.6031 10.701-7.9611 13.759-13.873 1.903-3.6792 3.6158-7.295 4.8972-11.26 1.1862-3.6665 2.4422-7.5361 2.6326-11.399 0.1459-2.8673-0.0444-5.7789-0.7295-8.5764 0.07612-0.36158 0.11418-0.5392 0.17762-0.89443z" fill="#666" stroke-width=".30709"/>
</svg>
