<svg width="64" height="64" version="1.1" viewBox="0 0 16.933 16.933" xmlns="http://www.w3.org/2000/svg">
 <circle cx="8.4665" cy="8.46" r="7.1436" fill="#f2f2f2" style="paint-order:stroke markers fill"/>
 <g fill-rule="evenodd">
  <path d="m12.695 9.574-1.116-4.184c0-0.012313-0.01224-0.024627-0.03679-0.036947l-4.1817-1.1199c-0.012239 0-0.036713 0-0.049029 0.012315l-3.0656 3.0642c-0.012315 0.012313-0.012315 0.024627-0.012315 0.04926l1.116 4.184c0 0.01231 0.012238 0.02463 0.036791 0.03695l4.1817 1.1199c0.01224 0 0.036713 0 0.049027-0.01231l3.0656-3.0643c0.01231-0.02463 0.02463-0.03695 0.01231-0.04926zm-4.0958-3.2858-1.1037 4.1102c0 0.01231-0.012239 0.01231-0.024477 0l-2.9922-3.0027c-0.012238-0.012313 0-0.012313 0-0.024633l4.1081-1.1075c0 0.012313 0.012314 0.012313 0.012314 0.024633z" fill="#4d4d4d" stroke-width=".26458" style="isolation:isolate"/>
  <path transform="scale(.26458)" d="m46.113 29.186-16.236 4.3516-1.5488 5.7656c0 0.046527-0.045542 0.046527-0.091797 0l-4.1895-4.2051-5.6973 1.5273 1.8691 7.002c0 0.046527 0.045871 0.09406 0.13867 0.14062l15.805 4.2324c0.046263 0 0.139-3.48e-4 0.18555-0.046875l11.586-11.582c0.046527-0.093092 0.093439-0.13902 0.046875-0.18555l-1.8672-7z" opacity=".25" style="paint-order:stroke fill markers"/>
  <path transform="scale(.26458)" d="m27.818 16c-0.013785 0-0.035127 0.002674-0.054687 0.003906l2.2324 8.332 2.457-0.66211c0 0.046538 0.046875 0.047185 0.046875 0.09375l-1.3301 4.9492 5.1582 19.246c0.005891-0.003958 0.014572-0.004808 0.019531-0.009766l11.586-11.582c0.046527-0.093092 0.093439-0.13902 0.046875-0.18555l-4.2168-15.812c0-0.046538-0.047836-0.09406-0.14062-0.14062l-15.805-4.2324z" opacity=".35" style="paint-order:stroke fill markers"/>
 </g>
</svg>
