<svg xmlns="http://www.w3.org/2000/svg" width="64" height="64" viewBox="0 0 16.933 16.933"><defs><linearGradient id="a" x1="14.679" x2="2.293" y1="293.79" y2="282.98" gradientTransform="matrix(1.0714 0 0 1 -.605 -280.07)" gradientUnits="userSpaceOnUse"><stop offset="0" stop-color="#66bcff"/><stop offset="1" stop-color="#b29aff"/></linearGradient></defs><rect width="15.875" height="12.171" x=".529" y="2.381" fill="url(#a)" rx="1.587" ry="1.587"/><rect width="14.287" height="1.058" x="1.323" y="2.91" opacity=".35" rx=".529" ry=".529"/><rect width="1.058" height=".529" x="1.587" y="3.175" opacity=".35" ry=".265" style="paint-order:stroke markers fill"/><rect width="2.646" height=".529" x="7.144" y="3.175" opacity=".35" ry=".265" style="paint-order:stroke markers fill"/><rect width=".529" height=".529" x="14.817" y="3.175" opacity=".35" ry=".265" style="paint-order:stroke markers fill"/><rect width=".794" height=".529" x="13.759" y="3.175" opacity=".35" ry=".265" style="paint-order:stroke markers fill"/><rect width=".529" height=".529" x="12.965" y="3.175" opacity=".35" ry=".265" style="paint-order:stroke markers fill"/><path fill="#fff" fill-rule="evenodd" d="M.53 11.112v1.853c0 .879.707 1.587 1.586 1.587h12.701c.88 0 1.587-.708 1.587-1.587v-1.853z" opacity=".35" style="paint-order:stroke fill markers"/><rect width="2.381" height="2.381" x="2.646" y="9.525" fill="#ebf2ff" rx=".529" ry=".529" style="paint-order:stroke markers fill"/><rect width="2.381" height="2.381" x="5.821" y="10.319" fill="#ccdfff" rx=".529" ry=".529" style="paint-order:stroke markers fill"/><rect width="2.381" height="2.381" x="8.996" y="10.319" fill="#ccdfff" rx=".529" ry=".529" style="paint-order:stroke markers fill"/><rect width="2.381" height="2.381" x="12.171" y="10.319" fill="#ccdfff" rx=".529" ry=".529" style="paint-order:stroke markers fill"/><circle cx="3.836" cy="12.567" r=".397" fill="#fff" fill-rule="evenodd" style="paint-order:stroke fill markers"/><path fill="#fff" d="m3.836 8.731-.529.53h1.059z"/></svg>