<svg xmlns="http://www.w3.org/2000/svg" width="64" height="64" viewBox="0 0 16.933 16.933"><defs><linearGradient id="a" x1="14.679" x2="2.293" y1="293.79" y2="282.98" gradientTransform="matrix(1.0714 0 0 1 -.605 -280.07)" gradientUnits="userSpaceOnUse"><stop offset="0" stop-color="#66bcff"/><stop offset="1" stop-color="#b29aff"/></linearGradient></defs><rect width="15.875" height="12.171" x=".529" y="2.381" fill="url(#a)" rx="1.587" ry="1.587"/><path fill="#fff" d="M16.404 9.147a11.64 11.64 0 0 0-8.074 5.405h6.487c.879 0 1.587-.708 1.587-1.588z" opacity=".15" style="paint-order:stroke markers fill"/><path fill="#fff" d="M1.714 6.822a12 12 0 0 0-1.185.074v6.068c0 .88.708 1.588 1.587 1.588h10.545a11.64 11.64 0 0 0-10.948-7.73z" opacity=".25" style="paint-order:stroke markers fill"/><rect width="14.287" height="10.583" x="1.323" y="3.175" fill="#fff" fill-rule="evenodd" opacity=".15" rx=".794" ry=".794" style="paint-order:stroke fill markers"/><circle cx="13.626" cy="5.367" r="1.455" fill="#ffdb8a" style="paint-order:stroke markers fill"/></svg>