<svg width="64" height="64" version="1.1" xmlns="http://www.w3.org/2000/svg">
 <rect x="6" y="6" width="52" height="52" rx="8" ry="8" fill="#ccc" fill-rule="evenodd" style="paint-order:stroke fill markers"/>
 <rect x="9" y="9" width="46" height="46" rx="5" ry="5" fill="#fff" fill-rule="evenodd" opacity=".25" style="paint-order:stroke fill markers"/>
 <path d="M29.677 14v5.464a12.8 12.8 0 0 0-4.908 2.03l-3.856-3.858-3.284 3.277 3.862 3.863a12.8 12.8 0 0 0-2.025 4.904H14v4.643h5.468a12.8 12.8 0 0 0 2.028 4.899l-3.867 3.867 3.284 3.282 3.867-3.865a12.8 12.8 0 0 0 4.897 2.023V50h4.645v-5.47a12.8 12.8 0 0 0 4.9-2.024l3.864 3.865 3.28-3.28-3.863-3.867a12.8 12.8 0 0 0 2.028-4.901H50V29.68h-5.444a12.8 12.8 0 0 0-2.035-4.918l3.85-3.844-3.285-3.287-3.847 3.847a12.8 12.8 0 0 0-4.917-2.039V14zM32 25.03a6.966 6.966 0 0 1 6.965 6.966A6.966 6.966 0 0 1 32 38.966a6.966 6.966 0 0 1-6.97-6.97A6.966 6.966 0 0 1 32 25.03" opacity=".15" style="paint-order:stroke markers fill"/>
 <path d="M34.318 17.088v2.359a12.8 12.8 0 0 1 4.917 2.039l1.67-1.67a15.1 15.1 0 0 0-6.587-2.728m-4.645.008a15.1 15.1 0 0 0-6.564 2.746l1.655 1.658a12.8 12.8 0 0 1 4.909-2.03zm14.514 6.003-1.67 1.67a12.8 12.8 0 0 1 2.035 4.917h2.361a15.1 15.1 0 0 0-2.726-6.587m-24.358.027a15.1 15.1 0 0 0-2.742 6.56h2.374a12.8 12.8 0 0 1 2.026-4.903zm12.166 1.912a6.966 6.966 0 0 0-6.97 6.965 6.966 6.966 0 0 0 6.97 6.97 6.966 6.966 0 0 0 6.965-6.97 6.966 6.966 0 0 0-6.965-6.965M17.089 34.33a15.1 15.1 0 0 0 2.744 6.558l1.658-1.658a12.8 12.8 0 0 1-2.027-4.9zm27.438 0a12.8 12.8 0 0 1-2.028 4.902l1.656 1.658a15.1 15.1 0 0 0 2.746-6.56zm-19.751 8.184-1.658 1.658a15.1 15.1 0 0 0 6.555 2.74v-2.375a12.8 12.8 0 0 1-4.897-2.023m14.44 0a12.8 12.8 0 0 1-4.898 2.023v2.375a15.1 15.1 0 0 0 6.554-2.742z" fill="#fff" opacity=".5" style="paint-order:stroke markers fill"/>
 <path d="m36.813 37.5s6.114 5.423 6.188 13.75a2.75 2.75 0 0 1-5.5 0c1.032-9.653-2.063-9.625-2.063-9.625zm-9.625 0s-6.114 5.423-6.187 13.75a2.75 2.75 0 0 0 5.5 0c-1.032-9.653 2.062-9.625 2.062-9.625z" fill="#de0000"/>
 <path d="M32 10s-2.976 4.096-4.661 11h1.912v4.126h5.5V21h1.912C34.977 14.097 32 10 32 10m4.663 11c.13.535.266 1.093.387 1.655-.115-.578-.254-1.11-.387-1.654m-1.912 4.126v4.125h3.03a40 40 0 0 0-.302-4.125zm2.922 8.25H34.75V37.5h-5.5v-4.125h-2.922c.102 1.333.262 2.707.515 4.125l1.72 9.625h6.874l1.719-9.625c.253-1.418.414-2.792.516-4.125M26.22 29.25h3.03v-4.124h-2.73c-.17 1.3-.262 2.69-.3 4.125m3.03 0v4.126h5.5V29.25zM27.337 21c-.132.544-.272 1.077-.386 1.655.12-.562.256-1.12.386-1.655" fill="#de0000"/>
 <path d="M27.339 21c-.315 1.29-.622 2.646-.817 4.125h2.729V21zm1.912 4.125v4.125h5.5v-4.125zm5.5 0h2.728c-.195-1.48-.501-2.835-.816-4.125H34.75zm0 4.125v4.125h2.922c.11-1.43.142-2.801.107-4.125zm0 4.125h-5.5V37.5h5.5zm-5.5 0V29.25h-3.03a40 40 0 0 0 .108 4.125z" fill="#ffd5d5"/>
</svg>
