<svg width="64" height="64" version="1.1" xmlns="http://www.w3.org/2000/svg" xmlns:xlink="http://www.w3.org/1999/xlink">
 <defs>
  <filter id="filter3174" x="-.047721" y="-.048282" width="1.0954" height="1.0966" color-interpolation-filters="sRGB">
   <feGaussianBlur stdDeviation="1.71"/>
  </filter>
  <linearGradient id="ButtonShadow" x1="45.448" x2="45.448" y1="92.54" y2="7.0165" gradientTransform="scale(1.0059 .99417)" gradientUnits="userSpaceOnUse">
   <stop stop-color="#000000" offset="0"/>
   <stop stop-color="#000000" stop-opacity=".58824" offset="1"/>
  </linearGradient>
  <filter id="filter3174-4" x="-.047721" y="-.048282" width="1.0954" height="1.0966" color-interpolation-filters="sRGB">
   <feGaussianBlur stdDeviation="1.71"/>
  </filter>
  <filter id="filter3174-9" x="-.047721" y="-.048282" width="1.0954" height="1.0966" color-interpolation-filters="sRGB">
   <feGaussianBlur stdDeviation="1.71"/>
  </filter>
  <filter id="filter3174-6" x="-.047721" y="-.048282" width="1.0954" height="1.0966" color-interpolation-filters="sRGB">
   <feGaussianBlur stdDeviation="1.71"/>
  </filter>
  <linearGradient id="ButtonShadow-00" x1="45.448" x2="45.448" y1="92.54" y2="7.0165" gradientTransform="matrix(1.0059 0 0 .99417 449.61 -79.485)" gradientUnits="userSpaceOnUse">
   <stop stop-color="#000000" offset="0"/>
   <stop stop-color="#000000" stop-opacity=".58824" offset="1"/>
  </linearGradient>
 </defs>
 <g transform="matrix(.85942 0 0 .85942 -416.98 166.54)" display="none">
  <rect x="5" y="7" width="86" height="85" rx="6" ry="6" fill="url(#ButtonShadow)" filter="url(#filter3174)" opacity=".9"/>
 </g>
 <g transform="matrix(.85942 0 0 .85942 -379.16 196.59)" display="none">
  <rect x="5" y="7" width="86" height="85" rx="6" ry="6" fill="url(#ButtonShadow)" filter="url(#filter3174-4)" opacity=".9"/>
 </g>
 <g transform="matrix(.86355 0 0 .86355 -175.82 82.21)" display="none">
  <rect x="5" y="7" width="86" height="85" rx="6" ry="6" fill="url(#ButtonShadow)" filter="url(#filter3174-9)" opacity=".9"/>
 </g>
 <rect x="454.61" y="-72.485" width="86" height="85" rx="6" ry="6" fill="url(#ButtonShadow-00)" filter="url(#filter3174-6)" opacity=".9"/>
 <rect x="6" y="6" width="52" height="52" rx="8" ry="8" fill="#cccccc" fill-rule="evenodd" stroke-linecap="round" stroke-linejoin="round" stroke-width="1.9637" style="paint-order:stroke fill markers"/>
 <rect x="9" y="9" width="46" height="46" rx="5" ry="5" fill="#ffffff" fill-rule="evenodd" opacity=".25" stroke-linecap="round" stroke-linejoin="round" stroke-width="1.7371" style="paint-order:stroke fill markers"/>
 <path d="m29.677 14v5.4639a12.773 12.773 0 0 0-4.9083 2.03l-3.8558-3.8581-3.2843 3.2775 3.8627 3.8626a12.773 12.773 0 0 0-2.0255 4.9038h-5.4662v4.6429h5.4685a12.773 12.773 0 0 0 2.0277 4.8992l-3.8672 3.8672 3.2843 3.282 3.8672-3.8649a12.773 12.773 0 0 0 4.8969 2.0231v5.4708h4.6452v-5.4708a12.773 12.773 0 0 0 4.8992-2.0231l3.8649 3.8649 3.2797-3.2798-3.8627-3.8671a12.773 12.773 0 0 0 2.0277-4.9015h5.4685v-4.6429h-5.4436a12.773 12.773 0 0 0-2.0345-4.9173l3.849-3.8445-3.2843-3.2865-3.8468 3.8467a12.773 12.773 0 0 0-4.9173-2.0391v-5.439zm2.3226 11.03a6.9657 6.9657 0 0 1 6.9655 6.9655 6.9657 6.9657 0 0 1-6.9655 6.97 6.9657 6.9657 0 0 1-6.97-6.97 6.9657 6.9657 0 0 1 6.97-6.9655z" fill="#000000" opacity=".15" stroke-width="4.3892" style="paint-order:stroke markers fill"/>
 <path d="m34.318 17.088v2.3588a12.773 12.773 0 0 1 4.9173 2.0391l1.6694-1.6693a15.099 15.099 0 0 0-6.5867-2.7286zm-4.6452 0.0076a15.099 15.099 0 0 0-6.564 2.7468l1.6557 1.658a12.773 12.773 0 0 1 4.9083-2.03zm14.514 6.0038-1.6694 1.6693a12.773 12.773 0 0 1 2.0345 4.9174h2.3611a15.099 15.099 0 0 0-2.7263-6.5867zm-24.358 0.02646a15.099 15.099 0 0 0-2.7422 6.561h2.3747a12.773 12.773 0 0 1 2.0255-4.9038zm12.166 1.912a6.9657 6.9657 0 0 0-6.97 6.9655 6.9657 6.9657 0 0 0 6.97 6.97 6.9657 6.9657 0 0 0 6.9655-6.97 6.9657 6.9657 0 0 0-6.9655-6.9655zm-14.906 9.2926a15.099 15.099 0 0 0 2.7445 6.5573l1.658-1.658a12.773 12.773 0 0 1-2.0277-4.9zm27.438 0a12.773 12.773 0 0 1-2.0277 4.9015l1.6557 1.658a15.099 15.099 0 0 0 2.7467-6.5595zm-19.751 8.1835-1.658 1.658a15.099 15.099 0 0 0 6.5549 2.7399v-2.3748a12.773 12.773 0 0 1-4.8969-2.0231zm14.441 0a12.773 12.773 0 0 1-4.8992 2.0231v2.3748a15.099 15.099 0 0 0 6.5549-2.7423z" fill="#ffffff" opacity=".5" stroke-width="4.3892" style="paint-order:stroke markers fill"/>
 <g transform="matrix(.79614 0 0 .79614 -35.332 1.086)">
  <path d="m90.619 45.738s7.6794 6.812 7.7719 17.271c0 1.9077-1.5465 3.4542-3.4542 3.4542s-3.4542-1.5465-3.4542-3.4542c1.2958-12.125-2.5906-12.09-2.5906-12.09z" color="#000000" fill="#de0000"/>
  <path d="m78.529 45.738s-7.6794 6.812-7.7719 17.271c0 1.9077 1.5465 3.4542 3.4542 3.4542 1.9077 0 3.4542-1.5465 3.4542-3.4542-1.2958-12.125 2.5906-12.09 2.5906-12.09z" color="#000000" fill="#de0000"/>
  <path d="m84.574 11.197s-3.7388 5.1449-5.8559 13.817h2.4017v5.1813h6.9084v-5.1813h2.4017c-2.1171-8.6718-5.8559-13.817-5.8559-13.817zm5.8559 13.817c0.164 0.67174 0.33459 1.3724 0.48574 2.0779-0.14356-0.72594-0.3191-1.3953-0.48574-2.0779zm-2.4017 5.1813v5.1813h3.805c-0.04784-1.8031-0.16235-3.5476-0.3778-5.1813zm3.805 5.1813c0.02211 0.83154 0.02202 1.6737 0 2.5367 0.02124-0.86862 0.02219-1.7022 0-2.5367zm0 2.5367c-0.02202 0.86294-0.06606 1.7466-0.13493 2.6446 0.06857-0.89478 0.11382-1.7821 0.13493-2.6446zm-0.13493 2.6446h-3.6701v5.1813h-6.9084v-5.1813h-3.6701c0.12833 1.6743 0.32968 3.4006 0.64766 5.1813l2.1589 12.09h8.6355l2.1589-12.09c0.31798-1.7806 0.51933-3.507 0.64766-5.1813zm-14.249 0c-0.06883-0.89797-0.11288-1.7817-0.13493-2.6446 0.02107 0.86248 0.06632 1.7498 0.13493 2.6446zm-0.13493-2.6446c-0.02202-0.86294-0.02211-1.7051 0-2.5367-0.02219 0.83449-0.02124 1.6681 0 2.5367zm0-2.5367h3.805v-5.1813h-3.4272c-0.21546 1.6337-0.32993 3.3782-0.3778 5.1813zm3.805 0v5.1813h6.9084v-5.1813zm-2.4017-10.363c-0.16665 0.68261-0.34218 1.352-0.48574 2.0779 0.15115-0.70553 0.32175-1.4062 0.48574-2.0779z" fill="#de0000"/>
  <path d="m78.718 25.013c-0.39548 1.6199-0.78042 3.3232-1.0255 5.1813h3.4272v-5.1813zm2.4017 5.1813v5.1813h6.9084v-5.1813zm6.9084 0h3.4272c-0.24505-1.8581-0.62999-3.5614-1.0255-5.1813h-2.4017zm0 5.1813v5.1813h3.6701c0.13766-1.7959 0.17908-3.5182 0.13493-5.1813zm0 5.1813h-6.9084v5.1813h6.9084zm-6.9084 0v-5.1813h-3.805c-0.04413 1.6631-0.0026 3.3853 0.13493 5.1813z" color="#000000" fill="#ffd5d5"/>
 </g>
</svg>
