<svg width="64" height="64" version="1.1" xmlns="http://www.w3.org/2000/svg" xmlns:xlink="http://www.w3.org/1999/xlink">
 <g transform="matrix(1.35 0 0 1.35 -.4 -22)" stroke-width=".74074">
  <g>
   <circle cx="24" cy="40" r="19.259" fill="#33393e"/>
   <g stroke-width=".74074">
    <path d="m27.64 20.379-4.7684 13.484 18.773-3.1379c-2.7815-5.306-7.9062-9.2044-14.009-10.346" fill="#e99f4b"/>
    <path d="m42.879 33.664-14.139 2.6401 12.125 14.584c3.2355-5.0452 4.0725-11.403 2.0145-17.225" fill="#f6d152"/>
    <path d="m39.04 53.102-9.3709-10.844-6.6526 17.723c6.016 0.25977 11.978-2.1986 16.025-6.8794" fill="#369557"/>
    <path d="m20.237 59.631 4.7684-13.484-18.773 3.1379c2.7815 5.306 7.9062 9.2044 14.009 10.346" fill="#4c8fbf"/>
    <path d="m5.1206 46.326 14.139-2.6401-12.125-14.584c-3.2355 5.0452-4.0725 11.403-2.0145 17.225" fill="#8e52a8"/>
   </g>
  </g>
  <circle cx="24" cy="40" r="2.963" fill="#fff" stroke-width=".74074"/>
  <path d="m8.9154 26.898 9.3709 10.844 6.6526-17.723c-6.016-0.25977-11.978 2.1986-16.025 6.8794" fill="#e06959" stroke-width=".74074"/>
 </g>
</svg>
