<svg width="64" height="64" version="1.1" viewBox="0 0 16.933 16.933" xmlns="http://www.w3.org/2000/svg">
 <g transform="matrix(1.1739 0 0 1.1739 1.0123 -3.9572)" stroke-width=".22538">
  <path d="m12.435 10.583a6.0853 6.0853 0 0 1-6.0853 6.0853 6.0853 6.0853 0 0 1-6.0853-6.0853 6.0853 6.0853 0 0 1 6.0853-6.0853 6.0853 6.0853 0 0 1 6.0853 6.0853z" fill="#3dc89a"/>
  <path d="m2.9692 7.2024h6.7614v6.7614h-6.7614z" fill="#303030"/>
  <path d="m3.7041 7.9373h1.1444c0.68446 0 1.2366 0.53365 1.2366 1.4486v0.013229c0 0.92388-0.66377 1.4376-1.1761 1.4437l-0.41142 0.0048h-0.79373zm1.0583 2.3812c0.31847 0 0.79373-0.26012 0.79373-0.91941v-0.013229c0-0.65033-0.47518-0.91941-0.79373-0.91941h-0.52916v1.852z" fill="#f9f9f9"/>
  <path d="m7.8051 7.9373c-0.41991 0-0.79363 0.13839-1.0552 0.39996-0.26167 0.2614-0.40004 0.63525-0.40004 1.0551 0 0.41991 0.13839 0.79363 0.39996 1.0552 0.2614 0.26167 0.63525 0.40004 1.0551 0.40004 0.38425 0 0.67237-0.12024 0.85885-0.24598 0.18649-0.12573 0.28783-0.27439 0.28783-0.27439l0.04392-0.06615v-1.0009h-1.3229v0.52916h0.79373v0.28577c-0.016428 0.02028-0.021373 0.03606-0.098182 0.08785-0.11112 0.07488-0.28601 0.15557-0.56329 0.15557-0.3077 0-0.52916-0.09313-0.68102-0.245-0.15187-0.15187-0.245-0.37332-0.245-0.68103 0-0.3077 0.093132-0.52916 0.245-0.68102 0.15187-0.15187 0.37332-0.245 0.68102-0.245 0.30768 0 0.52929 0.093116 0.68108 0.24494l0.37414-0.37414c-0.2614-0.26167-0.63525-0.40004-1.0551-0.40004z" fill="#f9f9f9"/>
  <path d="m3.4395 12.7h2.6458v0.52916h-2.6458z" fill="#f9f9f9"/>
 </g>
</svg>
