<svg width="64" height="64" version="1.1" viewBox="0 0 16.933 16.933" xmlns="http://www.w3.org/2000/svg">
 <path d="m15.61 8.4662a7.1435 7.1435 0 0 1-7.1435 7.1435 7.1435 7.1435 0 0 1-7.1435-7.1435 7.1435 7.1435 0 0 1 7.1435-7.1435 7.1435 7.1435 0 0 1 7.1435 7.1435z" fill="#3dc89a" stroke-width=".26457"/>
 <rect x="4.4978" y="4.4978" width="7.9373" height="7.9373" rx="1.3229" ry="1.3229" fill="#303030" style="paint-order:markers stroke fill"/>
 <path d="m5.3605 5.3604h1.3434c0.80349 0 1.4516 0.62645 1.4516 1.7005v0.015529c0 1.0845-0.7792 1.6876-1.3806 1.6948l-0.48297 0.00563h-0.93176zm1.2423 2.7953c0.37385 0 0.93176-0.30535 0.93176-1.0793v-0.01553c0-0.76342-0.55781-1.0793-0.93176-1.0793h-0.62118v2.1741z" fill="#f9f9f9" stroke-width=".26457"/>
 <path d="m10.175 5.3604c-0.49293 0-0.93164 0.16246-1.2387 0.46951-0.30717 0.30686-0.46961 0.74572-0.46961 1.2386 0 0.49293 0.16246 0.93164 0.46951 1.2387 0.30686 0.30717 0.74572 0.46961 1.2386 0.46961 0.45107 0 0.7893-0.14115 1.0082-0.28876 0.21892-0.14759 0.33788-0.32211 0.33788-0.32211l0.05156-0.077653v-1.175h-1.553v0.62118h0.93176v0.33547c-0.01928 0.023807-0.02509 0.042331-0.11526 0.10313-0.13044 0.087902-0.33575 0.18262-0.66125 0.18262-0.36121 0-0.62118-0.10933-0.79945-0.28761-0.17828-0.17828-0.28761-0.43824-0.28761-0.79946 0-0.36121 0.10933-0.62118 0.28761-0.79945 0.17828-0.17828 0.43824-0.28761 0.79945-0.28761 0.36119 0 0.62133 0.10931 0.79952 0.28754l0.4392-0.4392c-0.30686-0.30717-0.74572-0.46961-1.2386-0.46961z" fill="#f9f9f9" stroke-width=".26457"/>
 <path d="m5.0499 10.951h3.1059v0.62118h-3.1059z" fill="#f9f9f9" stroke-width=".26457"/>
</svg>
