<?xml version="1.0" encoding="UTF-8"?>
<svg width="64" height="64" version="1.1" viewBox="0 0 16.933 16.933" xmlns="http://www.w3.org/2000/svg">
 <path d="m15.61 8.4665a7.1436 7.1436 0 0 1-7.1436 7.1436 7.1436 7.1436 0 0 1-7.1436-7.1436 7.1436 7.1436 0 0 1 7.1436-7.1436 7.1436 7.1436 0 0 1 7.1436 7.1436z" fill="#1dc99a" stroke-width=".26458"/>
 <rect x="4.4978" y="4.4978" width="7.9373" height="7.9373" rx="1.3229" ry="1.3229" fill="#303030" style="paint-order:markers stroke fill"/>
 <path d="m5.8207 10.756h3.1059v0.62118h-3.1059z" fill="#f9f9f9" stroke-width=".26458"/>
 <g transform="translate(.062897)" fill="#fff" stroke-width=".10494" aria-label="DS">
  <path d="m6.2853 6.4287v1.8672h0.28285q0.48372 0 0.73788-0.23981 0.25621-0.23981 0.25621-0.69689 0-0.45503-0.25416-0.69279t-0.73993-0.23776zm-0.78912-0.59645h0.83217q0.69689 0 1.0371 0.10043 0.34229 0.098384 0.5862 0.33615 0.21522 0.20702 0.31975 0.47757 0.10453 0.27056 0.10453 0.61285 0 0.34639-0.10453 0.619-0.10453 0.27056-0.31975 0.47757-0.24596 0.23776-0.5903 0.3382-0.34434 0.098384-1.033 0.098384h-0.83217z"/>
  <path d="m11.11 5.9285v0.6477q-0.25211-0.11273-0.49192-0.17012-0.23981-0.057391-0.45298-0.057391-0.28285 0-0.41813 0.077887t-0.13528 0.24186q0 0.12298 0.090185 0.19267 0.092235 0.067639 0.33205 0.11683l0.33615 0.067639q0.51037 0.10248 0.72558 0.31155t0.21522 0.5944q0 0.50627-0.3013 0.75428-0.29925 0.24596-0.9162 0.24596-0.29105 0-0.58416-0.055341-0.2931-0.05534-0.5862-0.16397v-0.66614q0.2931 0.15577 0.56571 0.23571 0.27466 0.077887 0.52881 0.077887 0.25826 0 0.39559-0.086086t0.13733-0.24596q0-0.14348-0.09428-0.22136-0.09224-0.077887-0.37099-0.13938l-0.30541-0.067639q-0.45913-0.098384-0.67229-0.3136-0.21112-0.21522-0.21112-0.58006 0-0.45708 0.29515-0.70304 0.29515-0.24596 0.84856-0.24596 0.25211 0 0.51857 0.038944 0.26646 0.036894 0.55136 0.11273z"/>
 </g>
</svg>
