<svg width="64" height="64" version="1" xmlns="http://www.w3.org/2000/svg">
 <g transform="matrix(.96429 0 0 .96429 1.1429 1.1419)">
  <circle cx="32" cy="32.001" r="28" fill="#e4e4e4"/>
  <g stroke-opacity=".098039" stroke-width="1.037">
   <circle cx="19" cy="27.001" r="9" fill="#6d4c41"/>
   <circle cx="44.999" cy="27.001" r="9" fill="#6d4c41"/>
   <path d="m32 16.001c-13.255 0-22 10.745-22 24v9.3122a28 28 0 0 0 22 10.687 28 28 0 0 0 22-10.73v-9.2694c0-13.255-8.745-24-22-24z" fill="#a1887f"/>
  </g>
  <rect x="26" y="46" width="6" height="8" fill="#fff"/>
  <rect x="32" y="45" width="6" height="9" fill="#f2f2f2"/>
  <path d="m26.204 40.001c-2.76-0.08196-4.2039 4.4257-4.2039 7.1205 0 2.6942 2.2386 4.8784 4.9999 4.8784 2.5454 0 4.9663-2.1682 4.9663-2.1682h0.0706s2.419 2.1652 4.9631 2.1682c2.7614 0 4.9999-2.1842 4.9999-4.8784s-1.3559-6.6941-4.1161-6.7757z" fill="#6d4c41" stroke="#000" stroke-opacity=".098039" stroke-width="1.037"/>
  <path d="m37.938 39.781c0.60195 2.4539-3.3359 5.2191-5.8752 5.2191s-6.6058-2.736-6.0029-5.2191c0.46196-1.903 3.4636-1.7792 6.0029-1.7792s5.4177-0.08597 5.8752 1.7792z" fill="#3e2723"/>
  <g transform="matrix(.21876 0 0 .21876 -89.004 1532.2)">
   <circle cx="502.86" cy="-6853.1" r="22.857" fill="#fefefe" stroke="#000" stroke-opacity=".098039" stroke-width="4.7406"/>
   <circle transform="scale(-1,1)" cx="-498.29" cy="-6857.7" r="9.143" fill="#333"/>
  </g>
  <g transform="matrix(.21876 0 0 .21876 -66.999 1532.2)">
   <circle cx="502.86" cy="-6853.1" r="22.857" fill="#fefefe" stroke="#000" stroke-opacity=".098039" stroke-width="4.7406"/>
   <circle transform="scale(-1,1)" cx="-498.29" cy="-6857.7" r="9.143" fill="#333"/>
  </g>
 </g>
</svg>
