<svg xmlns="http://www.w3.org/2000/svg" width="64" height="64" viewBox="0 0 16.933 16.933"><g transform="translate(0 -280.067)" paint-order="stroke markers fill"><circle cx="8.467" cy="288.533" r="6.879" fill="#f36856"/><path d="M8.467 282.713a5.82 5.82 0 0 0-3.705 1.336v.707a5.292 5.292 0 0 0-1.587 3.777 5.292 5.292 0 0 0 1.587 3.773v.714a5.82 5.82 0 0 0 3.705 1.334 5.82 5.82 0 0 0 5.82-5.82 5.82 5.82 0 0 0-5.82-5.821z" opacity=".15"/><rect width="7.408" height="2.646" x="4.762" y="287.21" ry="1.323" opacity=".35" fill="#fff"/><circle cx="10.583" cy="288.533" r="2.117" fill="#fff"/></g></svg>