<svg xmlns="http://www.w3.org/2000/svg" width="64" height="64"><rect width="52" height="52" x="6" y="6" fill="#f2f2f2" fill-rule="evenodd" rx="8" ry="8" style="paint-order:stroke fill markers"/><g transform="translate(13.714 13.714)scale(.57143)"><path fill="#9d7730" d="M7 54.491c.005 4.109.982 5.48 13.405 5.48 3.532 0 7.83.322 10.094-1.154 2.137-1.394 1.366-3.44 1.366-5.521 0-4.287-4.038-7.296-10.904-7.296s-13.965 4.2-13.96 8.491z"/><path fill="orange" d="M32 4c12.81 0 23.611 8.603 26.941 20.346.69 2.433-.848 5.545-.848 8.199 0 15.464-9.54 23.096-25.003 23.096-9.896 0-19.683-.776-24.663-8.526A27.87 27.87 0 0 1 4 32C4 16.535 16.536 4 32 4"/><ellipse cx="-37" cy="28" fill="#3f3f3f" rx="4" ry="7" transform="scale(-1 1)"/><path fill="#f27300" d="M58.803 23.976C58.102 40.62 44.415 52.98 27.756 53c-7.068-.01-13.921-1.649-19.432-6.073A28 28 0 0 0 32.001 60c15.464 0 28-12.536 28-28a28 28 0 0 0-1.197-8.024z"/><ellipse cx="-25" cy="28" fill="#3f3f3f" rx="4" ry="7" transform="scale(-1 1)"/><path fill="#9d7730" d="M57 54.491c-.005 4.109-.982 5.48-13.405 5.48-3.532 0-7.83.322-10.094-1.154-2.137-1.394-1.366-3.44-1.366-5.521 0-4.287 4.038-7.296 10.904-7.296s13.965 4.2 13.96 8.491z"/><path d="M55.644 51.19a30.864 31.111 0 0 1-13.162 8.791c.37-.004.755-.01 1.112-.01 12.423 0 13.401-1.372 13.406-5.48.002-1.134-.502-2.256-1.356-3.301" opacity=".2"/></g></svg>