<svg xmlns="http://www.w3.org/2000/svg" width="64" height="64" version="1.0"><g stroke-width=".478"><path fill="#1c71d8" d="M32 3c-.977 0-1.954.374-2.703 1.123L4.12 29.299a3.8 3.8 0 0 0-1.119 2.703v.956a3.8 3.8 0 0 0 1.12 2.703l25.176 25.176a3.814 3.814 0 0 0 5.406 0L59.88 35.66a3.8 3.8 0 0 0 1.119-2.702v-.956a3.799 3.799 0 0 0-1.12-2.703L34.704 4.122A3.81 3.81 0 0 0 32 3z"/><path fill="#26a269" d="M24.354 24.356 32 16.71v15.291l-7.646 7.646z"/><path fill="#813d9c" d="m16.719 31.99-7.656 7.658v.955l7.646 7.647v-.957l7.645-7.645-7.635-7.658z"/><path fill="#98c1f1" d="M39.645 39.648 24.354 54.939V39.648l15.24-15.407z"/><path fill="#2ec27e" d="m39.645 9.066-7.644 7.645V32l15.29-15.29-7.646-7.645z"/><path fill="#613583" d="m16.725 16.695-5.818 5.818-6.95 6.965A3.8 3.8 0 0 0 3 32.002v.955a3.8 3.8 0 0 0 1.12 2.703l4.943 4.943v-.955l15.29-15.29-7.628-7.663z"/><path fill="#f5c211" d="M32 3c-.977 0-1.955.374-2.703 1.123L16.709 16.711l7.644 7.646L39.638 9.058l-4.935-4.935A3.81 3.81 0 0 0 32 3z"/><path fill="#e01b24" d="M47.291 16.711 47.26 32.91l7.685 7.686 4.934-4.936a3.8 3.8 0 0 0 1.119-2.703H61v-.955h-.002a3.799 3.799 0 0 0-1.12-2.703L47.292 16.71z"/><path fill="#ff7800" d="m32 32.002 15.291-15.291v15.291l-7.646 7.646z"/><path fill="#fff" d="m32 16.711 7.646 7.646 7.645-7.646-7.645-7.646z" opacity=".2"/><path fill="#dc8add" d="M16.709 16.711 4.119 29.299a3.8 3.8 0 0 0-.254.281L16.71 16.711z"/><path fill="#e5a50a" d="m16.708 16.711 7.646 7.646 7.645-7.646z"/><path fill="#ffa348" d="m39.645 39.648 7.651 7.64-.005-15.285z"/><path fill="#3584e4" d="M24.354 39.648 32 32.002l-7.639-7.59z"/><path fill="#f66151" d="m47.291 32.002.006 16.24 7.639-7.639v-.947l-7.645-7.654z"/><path fill="#c061cb" d="m24.354 39.648-7.644 7.644v.958l7.644 7.644V39.648z"/><path fill="#1a5fb4" d="m32 32.002-7.646-7.646-7.645 7.646z"/><path fill="#3584e4" d="m32 32.002-7.646 7.646-7.634-7.657z"/><path d="M3 32.002v.956a3.8 3.8 0 0 0 1.12 2.702l25.177 25.177a3.814 3.814 0 0 0 5.405 0L59.88 35.66A3.8 3.8 0 0 0 61 32.958v-.956a3.8 3.8 0 0 1-1.12 2.703L34.702 59.882a3.814 3.814 0 0 1-5.405 0L4.12 34.705A3.8 3.8 0 0 1 3 32.002z" opacity=".2"/></g></svg>