<svg width="64" height="64" version="1.0" xmlns="http://www.w3.org/2000/svg">
 <g stroke-width=".47785">
  <path d="m32 3c-0.9772 0-1.9544 0.37368-2.7027 1.1229l-25.177 25.176a3.7999 3.7999 0 0 0-1.1191 2.7032h-9.557e-4v0.9557h9.557e-4a3.7999 3.7999 0 0 0 1.1191 2.7027l25.177 25.177a3.8137 3.8137 0 0 0 5.4054 0l25.177-25.177a3.7999 3.7999 0 0 0 1.1191-2.7027h9.56e-4v-0.9557h-9.56e-4a3.7989 3.7989 0 0 0-1.1191-2.7027l-25.177-25.177a3.8094 3.8094 0 0 0-2.7027-1.1229z" fill="#1c71d8"/>
  <path d="m24.354 24.356 7.6456-7.6456v15.291l-7.6456 7.6456z" fill="#26a269"/>
  <path d="m16.719 31.99-7.6562 7.6582v0.95508l7.6465 7.6465v-0.95703l7.6445-7.6445-7.6348-7.6582z" fill="#813d9c"/>
  <path d="m39.645 39.648-15.291 15.291v-15.291l15.24-15.407z" fill="#98c1f1"/>
  <path d="m39.645 9.0664-7.6445 7.6445v15.291l15.291-15.291-7.6465-7.6445z" fill="#2ec27e"/>
  <path d="m16.725 16.695-5.8184 5.8184-6.9492 6.9648a3.7999 3.7999 0 0 0-0.95703 2.5234v0.95508a3.7999 3.7999 0 0 0 1.1191 2.7031l4.9434 4.9434v-0.95508l15.291-15.291-7.6289-7.6621z" fill="#613583"/>
  <path d="m32 3c-0.9772 0-1.9548 0.37378-2.7031 1.123l-12.588 12.588 7.6445 7.6465 15.285-15.299-4.9355-4.9355a3.8094 3.8094 0 0 0-2.7031-1.123z" fill="#f5c211"/>
  <path d="m47.291 16.711-0.03125 16.199 7.6855 7.6855 4.9336-4.9355a3.7999 3.7999 0 0 0 1.1191-2.7031h0.001953v-0.95508h-0.001953a3.7989 3.7989 0 0 0-1.1191-2.7031l-12.588-12.588z" fill="#e01b24"/>
  <path d="m32 32.002 15.291-15.291v15.291l-7.6456 7.6456z" fill="#ff7800"/>
  <path d="m32 16.711 7.6456 7.6456 7.6456-7.6456-7.6456-7.6456z" fill="#fff" opacity=".2"/>
  <path d="m16.709 16.711-12.59 12.588a3.7999 3.7999 0 0 0-0.25391 0.28125l12.844-12.869z" fill="#dc8add"/>
  <path d="m16.708 16.711 7.6456 7.6456 7.6456-7.6456z" fill="#e5a50a"/>
  <path d="m39.645 39.648 7.6513 7.6399-0.005734-15.285z" fill="#ffa348"/>
  <path d="m24.354 39.648 7.6456-7.6456-7.6384-7.5897z" fill="#3584e4"/>
  <path d="m47.291 32.002 0.005859 16.24 7.6387-7.6387v-0.94727l-7.6445-7.6543z" fill="#f66151"/>
  <path d="m24.354 39.648-7.6445 7.6445v0.95703l7.6445 7.6445v-16.246z" fill="#c061cb"/>
  <path d="m32 32.002-7.6456-7.6456-7.6456 7.6456z" fill="#1a5fb4"/>
  <path d="m32 32.002-7.6456 7.6456-7.6346-7.6566z" fill="#3584e4"/>
  <path d="m3.0004 32.002v0.9557h4.778e-4a3.7999 3.7999 0 0 0 1.1191 2.7027l25.177 25.177a3.8137 3.8137 0 0 0 5.4054 0l25.177-25.177a3.7999 3.7999 0 0 0 1.1191-2.7027h4.78e-4v-0.9557h-4.78e-4a3.7999 3.7999 0 0 1-1.1191 2.7027l-25.177 25.177a3.8137 3.8137 0 0 1-5.4054 0l-25.177-25.177a3.7999 3.7999 0 0 1-1.1191-2.7027h-9.557e-4z" opacity=".2"/>
 </g>
</svg>
