<svg width="64" height="64" version="1.1" xmlns="http://www.w3.org/2000/svg">
 <g transform="matrix(1.2632 0 0 1.2632 -8.4299 -8.8947)">
  <path id="Combined-Shape" d="m44.294 47.883h1.1193c3.0933 0 5.5866-2.4989 5.5866-5.5816v-25.719c0-3.0755-2.5012-5.5816-5.5866-5.5816h-26.827c-3.0933 0-5.5866 2.4989-5.5866 5.5816v25.719c0 3.0755 2.5012 5.5816 5.5866 5.5816h14.662l11.045 8.9412z" fill="#38aeff" stroke-width="1.1176"/>
  <polygon transform="translate(8,8.9998)" points="21.735 9 26.382 9 26.382 17.918 33.677 13.706 36 17.73 28.191 22.238 34.009 28.056 30.724 31.342 24 24.618 17.276 31.342 13.991 28.056 19.809 22.238 12 17.73 14.323 13.706 21.735 17.985" fill="#fffeff"/>
 </g>
</svg>
