<svg xmlns="http://www.w3.org/2000/svg" width="64" height="64" viewBox="0 0 16.933 16.933"><circle cx="8.466" cy="8.46" r="7.144" fill="#a238ff" style="paint-order:stroke markers fill"/><path fill="#fff" fill-rule="evenodd" d="M11.334 6.319c.078-.454.193-.74.32-.74.238 0 .43.99.43 2.213s-.192 2.213-.43 2.213c-.097 0-.187-.168-.26-.45-.114 1.032-.351 1.742-.626 1.742-.213 0-.404-.426-.532-1.099-.087 1.279-.307 2.186-.565 2.186-.161 0-.308-.36-.417-.945-.132 1.208-.434 2.055-.788 2.055s-.656-.847-.787-2.055c-.108.585-.255.945-.417.945-.258 0-.477-.907-.565-2.186-.129.673-.319 1.099-.532 1.099-.275 0-.512-.71-.627-1.742-.072.283-.162.45-.26.45-.237 0-.43-.99-.43-2.213 0-1.222.193-2.213.43-2.213.128 0 .242.286.321.74.127-.783.333-1.292.566-1.292.276 0 .516.72.63 1.764.11-.76.278-1.245.467-1.245.264 0 .488.954.572 2.284.156-.682.382-1.11.633-1.11.25 0 .477.428.633 1.11.084-1.33.308-2.284.572-2.284.188 0 .356.485.467 1.245.113-1.044.353-1.764.63-1.764.232 0 .438.51.565 1.292m-7.1 1.255c0-.546.108-.99.243-.99s.244.444.244.99c0 .547-.109.99-.244.99s-.244-.443-.244-.99m7.977 0c0-.546.11-.99.244-.99.135 0 .245.444.245.99 0 .547-.11.99-.245.99-.134 0-.244-.443-.244-.99" clip-rule="evenodd"/></svg>