<svg width="64" height="64" version="1.1" viewBox="0 0 16.933 16.933" xmlns="http://www.w3.org/2000/svg">
 <circle cx="8.466" cy="8.46" r="7.144" fill="#a238ff" style="paint-order:stroke markers fill"/>
 <path d="m11.334 6.3187c0.07833-0.45402 0.19328-0.73952 0.32062-0.74006h2.42e-4c0.23744 8.18e-4 0.4299 0.99093 0.4299 2.2134 0 1.2225-0.19274 2.2134-0.43042 2.2134-0.09745 0-0.18737-0.16825-0.25976-0.45021-0.1144 1.0321-0.35181 1.7416-0.62666 1.7416-0.21265 0-0.40349-0.42621-0.53162-1.0984-0.08748 1.2783-0.30766 2.1853-0.56501 2.1853-0.16151 0-0.30876-0.3594-0.41776-0.9446-0.13108 1.208-0.43392 2.0544-0.78708 2.0544s-0.65654-0.84614-0.78708-2.0544c-0.10822 0.58519-0.25546 0.9446-0.41777 0.9446-0.25734 0-0.47698-0.90697-0.56501-2.1853-0.12813 0.67215-0.31844 1.0984-0.53163 1.0984-0.27456 0-0.51224-0.70926-0.62664-1.7416-0.07187 0.28278-0.16232 0.45021-0.25976 0.45021-0.23768 0-0.43042-0.99091-0.43042-2.2134 0-1.2224 0.19273-2.2134 0.43042-2.2134 0.12759 0 0.24172 0.28632 0.32086 0.74006 0.12678-0.78287 0.3327-1.2917 0.56554-1.2917 0.27645 0 0.51602 0.71961 0.62934 1.7645 0.1109-0.76052 0.27914-1.2453 0.46756-1.2453 0.26407 0 0.48855 0.95358 0.57173 2.2837 0.15639-0.68198 0.38279-1.1098 0.6334-1.1098 0.25058 0 0.47698 0.42811 0.63309 1.1098 0.08346-1.3302 0.30766-2.2837 0.57175-2.2837 0.18813 0 0.35611 0.48483 0.46756 1.2453 0.11306-1.0449 0.35263-1.7645 0.62907-1.7645 0.23204 0 0.43874 0.5091 0.56552 1.2917zm-7.1009 1.2556c0-0.54646 0.10929-0.98957 0.24414-0.98957 0.13486 0 0.24414 0.44311 0.24414 0.98957 0 0.54644-0.10929 0.98958-0.24414 0.98958-0.13486 0-0.24414-0.44313-0.24414-0.98958zm7.9782 0c0-0.54646 0.10928-0.98957 0.24414-0.98957 0.13483 0 0.24414 0.44311 0.24414 0.98957 0 0.54644-0.10931 0.98958-0.24414 0.98958-0.13486 0-0.24414-0.44313-0.24414-0.98958z" clip-rule="evenodd" fill="#ffffff" fill-rule="evenodd" stroke-width=".030491"/>
</svg>
