<svg width="64" height="64" version="1.1" xmlns="http://www.w3.org/2000/svg">
 <defs>
  <linearGradient id="linearGradient9555" x1="14.679" x2="2.2933" y1="293.79" y2="282.98" gradientTransform="matrix(4.0495 0 0 3.7796 -2.2867 -1058.6)" gradientUnits="userSpaceOnUse">
   <stop stop-color="#66bcff" offset="0"/>
   <stop stop-color="#b29aff" offset="1"/>
  </linearGradient>
 </defs>
 <rect x="2" y="9" width="60.001" height="46.002" rx="6.0001" ry="6.0001" fill="url(#linearGradient9555)" stroke-width="3.7796"/>
 <rect x="5" y="11" width="53.999" height="4" rx="2" ry="2" fill="#000000" opacity=".35" stop-color="#000000" stroke-width="0"/>
 <rect x="5.9982" y="12" width="3.9988" height="1.9994" ry="1.0016" opacity=".35" stroke-width="3.7796" style="paint-order:stroke markers fill"/>
 <rect x="27.001" y="12" width="10.001" height="1.9994" ry="1.0016" opacity=".35" stroke-width="3.7796" style="paint-order:stroke markers fill"/>
 <rect x="56.002" y="12" width="1.9994" height="1.9994" ry="1.0016" opacity=".35" stroke-width="3.7796" style="paint-order:stroke markers fill"/>
 <rect x="52.004" y="12" width="3.001" height="1.9994" ry="1.0016" opacity=".35" stroke-width="3.7796" style="paint-order:stroke markers fill"/>
 <rect x="49.003" y="12" width="1.9994" height="1.9994" ry="1.0016" opacity=".35" stroke-width="3.7796" style="paint-order:stroke markers fill"/>
 <path d="m14.001 51.04c-1.1077 0-2 0.89233-2 2v2.0098h40v-2.0098c0-1.1077-0.89233-2-2-2z" fill="#ffffff" opacity=".35" stroke-width="3.7796" style="paint-order:stroke markers fill"/>
 <rect x="17" y="48.001" width="5.0004" height="5.0004" rx=".99906" ry=".99906" fill="#ccdfff" stroke-width="3.7796" style="paint-order:stroke markers fill"/>
 <rect x="26" y="48.001" width="5.0004" height="5.0004" rx=".99906" ry=".99906" fill="#ccdfff" stroke-width="3.7796" style="paint-order:stroke markers fill"/>
 <rect x="35" y="48.001" width="5.0004" height="5.0004" rx=".99906" ry=".99906" fill="#ccdfff" stroke-width="3.7796" style="paint-order:stroke markers fill"/>
 <rect x="43.998" y="48.001" width="5.0004" height="5.0004" rx=".99906" ry=".99906" fill="#ccdfff" stroke-width="3.7796" style="paint-order:stroke markers fill"/>
 <circle cx="52" cy="48" r="12" fill="#999999" stroke-width="3.7796"/>
 <path d="m50.201 40.8-0.15874 1.8974a5.6581 5.6581 0 0 0-1.6555 0.95624l-1.7235-0.81261-1.7991 3.1182 1.5648 1.0847a5.6581 5.6581 0 0 0-0.08693 0.95624 5.6581 5.6581 0 0 0 0.08315 0.96002l-1.561 1.081 1.7991 3.1182 1.7197-0.80884a5.6581 5.6581 0 0 0 1.6592 0.94868l0.15874 1.9011h3.5982l0.15874-1.8974a5.6581 5.6581 0 0 0 1.6555-0.95624l1.7235 0.81261 1.7991-3.1182-1.5648-1.0885a5.6581 5.6581 0 0 0 0.08693-0.95246 5.6581 5.6581 0 0 0-0.08315-0.96002l1.561-1.081-1.7991-3.1182-1.7197 0.80883a5.6581 5.6581 0 0 0-1.6592-0.94868l-0.15874-1.9011zm1.7991 4.8001a2.4 2.4 0 0 1 2.4 2.4 2.4 2.4 0 0 1-2.4 2.4 2.4 2.4 0 0 1-2.4-2.4 2.4 2.4 0 0 1 2.4-2.4z" fill="#ffffff" stroke-width="3.7796"/>
</svg>
