<svg xmlns="http://www.w3.org/2000/svg" xmlns:xlink="http://www.w3.org/1999/xlink" width="64" height="64" viewBox="0 0 16.933 16.933"><defs><linearGradient gradientTransform="matrix(.26458 0 0 .26458 0 280.067)" xlink:href="#a" id="b" x1="45.628" y1="57.955" x2="45.628" y2="12.461" gradientUnits="userSpaceOnUse"/><linearGradient id="a"><stop offset="0"/><stop offset="1" stop-opacity="0"/></linearGradient></defs><path d="M8.467 1.588a6.879 6.879 0 1 1 0 13.757 6.879 6.879 0 0 1 0-13.757z" fill="#04a"/><path d="M12.997 283.364a10.716 10.716 0 0 1 .497 3.185 10.716 10.716 0 0 1-4.695 8.852 6.88 6.88 0 0 0 6.547-6.868 6.88 6.88 0 0 0-2.349-5.17z" opacity=".25" fill="url(#b)" paint-order="stroke markers fill" transform="translate(0 -280.067)"/><path d="M2.453 5.293l-.072.141c.367.204 1.422.734 1.923 1.048.633.388 1.49 1.18 1.557 1.312-.66 1.147-.36 2.162-.438 2.27-.056.09-.574.659-.407.743.165.083.428-.047.468-.073.083-.05.168-.124.132.022-.07.299-.387 1.017.051.865.054-.031.76-.81.845-.836 1.404.366 2.974.198 3.265.062.151.01.58.28.824.409.244.127.91.446.712-.134-.06-.183-.498-.65-.427-.682.156-.062.543.162.692.204.445.125.505-.048.224-.429-.278-.38-.32-.321-.407-.497-.069-.14 0-.297.05-.335.09-.069 1.42-.807 1.731-1.089.462-.42 0-.943-.113-1.017-.957-.69-1.94-.542-1.953-.651-.007-.125-.004-.485-.02-.61-.096-.844-.487-.632-.54-.632-.39.062-.247.66-.081 1.221.012.144-.137.08-.224-.071-.3-.805-.427-.791-.51-.815-.08-.018-.362.154-.357.48.002.092.112.535.112.671-.184.161-.193.528-.387.661-.563.117-1.916-.278-2.085-.296-.585-.11-.84.33-.935.224-.759-.87-1.919-1.516-2.421-1.628-.195-.042-.852-.332-1.089-.478-.038-.023-.081-.04-.123-.061m10.44.763c-.183.197-.15.933-.113.927.187-.038.17-.986.113-.927m.53.112c-.02-.06-.503.617-.418.866.039.108.484-.677.419-.866m-2.504 1.15c.006-.006.014.003.021.01.056.186.119.363.487.408.044.005-.204.15-.375.06-.155-.093-.169-.435-.133-.477m.956.934a.25.25 0 0 1 .083 0c.09.023-.654.411-.712.358-.036-.034.397-.314.63-.358m.194.246c.078.006-.431.533-.488.478-.042-.038.33-.49.488-.478m0 0" fill="#f9f9f9"/></svg>