<svg xmlns="http://www.w3.org/2000/svg" width="64" height="64"><defs><linearGradient id="a" x1="14.679" x2="2.293" y1="293.79" y2="282.98" gradientTransform="matrix(4.0495 0 0 3.7796 -2.287 -1058.6)" gradientUnits="userSpaceOnUse"><stop offset="0" stop-color="#66bcff"/><stop offset="1" stop-color="#b29aff"/></linearGradient></defs><rect width="60.001" height="46.002" x="2" y="9" fill="url(#a)" rx="6" ry="6"/><rect width="53.999" height="4" x="5" y="11" opacity=".35" rx="2" ry="2"/><rect width="3.999" height="1.999" x="5.998" y="12" opacity=".35" ry="1.002" style="paint-order:stroke markers fill"/><rect width="10.001" height="1.999" x="27.001" y="12" opacity=".35" ry="1.002" style="paint-order:stroke markers fill"/><rect width="1.999" height="1.999" x="56.002" y="12" opacity=".35" ry="1.002" style="paint-order:stroke markers fill"/><rect width="3.001" height="1.999" x="52.004" y="12" opacity=".35" ry="1.002" style="paint-order:stroke markers fill"/><rect width="1.999" height="1.999" x="49.003" y="12" opacity=".35" ry="1.002" style="paint-order:stroke markers fill"/><path fill="#fff" d="M14.001 51.04c-1.108 0-2 .892-2 2v2.01h40v-2.01c0-1.108-.892-2-2-2z" opacity=".35" style="paint-order:stroke markers fill"/><rect width="5" height="5" x="17" y="48.001" fill="#ccdfff" rx=".999" ry=".999" style="paint-order:stroke markers fill"/><rect width="5" height="5" x="26" y="48.001" fill="#ccdfff" rx=".999" ry=".999" style="paint-order:stroke markers fill"/><rect width="5" height="5" x="35" y="48.001" fill="#ccdfff" rx=".999" ry=".999" style="paint-order:stroke markers fill"/><rect width="5" height="5" x="43.998" y="48.001" fill="#ccdfff" rx=".999" ry=".999" style="paint-order:stroke markers fill"/><circle cx="52" cy="48" r="12" fill="#999"/><path fill="#fff" d="m50.201 40.8-.159 1.897a5.7 5.7 0 0 0-1.655.957l-1.724-.813-1.799 3.118 1.565 1.085a5.7 5.7 0 0 0-.087.956 5.7 5.7 0 0 0 .083.96l-1.56 1.081 1.798 3.118 1.72-.808a5.7 5.7 0 0 0 1.66.948L50.2 55.2h3.598l.159-1.897a5.7 5.7 0 0 0 1.655-.956l1.724.812 1.799-3.118-1.565-1.088a5.7 5.7 0 0 0 .087-.953 5.7 5.7 0 0 0-.083-.96l1.56-1.08-1.798-3.12-1.72.81a5.7 5.7 0 0 0-1.66-.949L53.8 40.8zm1.8 4.8a2.4 2.4 0 0 1 2.4 2.4 2.4 2.4 0 0 1-2.4 2.4 2.4 2.4 0 0 1-2.4-2.4 2.4 2.4 0 0 1 2.4-2.4"/></svg>