<svg width="64" height="64" version="1.1" viewBox="0 0 16.933 16.933" xmlns="http://www.w3.org/2000/svg">
 <g transform="translate(0 -280.07)">
  <g transform="matrix(1.0385 0 0 1.0385 -.32619 -11.098)" stroke-width=".92729">
   <circle cx="8.467" cy="288.53" r="6.879" fill="#94ba31" style="paint-order:markers stroke fill"/>
  </g>
  <path d="M8.467 284.3a4.233 4.233 0 0 0-3.426 1.755l.607.365a3.528 3.528 0 0 1 2.819-1.414 3.528 3.528 0 0 1 3.527 3.527 3.528 3.528 0 0 1-3.527 3.528 3.528 3.528 0 0 1-2.819-1.412l-.608.364a4.233 4.233 0 0 0 3.427 1.754 4.233 4.233 0 0 0 4.233-4.234 4.233 4.233 0 0 0-4.233-4.233zm-4.234 1.764v4.939l4.234-2.47zm4.234 0a2.47 2.47 0 0 0-1.906.903l.614.368a1.764 1.764 0 0 1 1.292-.566 1.764 1.764 0 0 1 1.764 1.764 1.764 1.764 0 0 1-1.764 1.764 1.764 1.764 0 0 1-1.292-.566l-.615.37a2.47 2.47 0 0 0 1.907.902 2.47 2.47 0 0 0 2.47-2.47 2.47 2.47 0 0 0-2.47-2.47z" fill="#fff"/>
 </g>
</svg>
