<svg width="64" height="64" version="1.1" viewBox="0 0 16.933 16.933" xmlns="http://www.w3.org/2000/svg">
 <g transform="translate(0 -280.07)">
  <g transform="matrix(1.0385 0 0 1.0385 -.32619 -11.098)" stroke-width=".92729">
   <circle cx="8.467" cy="288.53" r="6.879" fill="#569c3b" style="paint-order:markers stroke fill"/>
  </g>
  <path d="M11.164 284.3c-1.672 0-1.985 2.54-1.045 2.54.94 0 2.717-2.54 1.045-2.54zm-2.654.288c-.956.135-.62 1.936-.11 1.97.508.033 1.067-2.104.11-1.97zm-1.73.56a.586.586 0 0 0-.157.04c-.895.34-.136 1.742.366 1.648.47-.089.524-1.759-.208-1.687zm-1.176 1.128a.475.475 0 0 0-.259.074c-.736.434.248 1.482.68 1.32.38-.143.138-1.378-.421-1.395zm3.432.847c-1.317-.024-3.055.668-3.351 2.056-.321 1.503 1.321 3.588 3.035 3.588.843 0 1.815-.797 1.997-1.806.139-.769-1.748-.46-1.684.048.052.416-.166.632-.466.64-.41-.05-.61-.287-.665-.645-.073-.938 2.884-1.608 2.65-3.063-.086-.533-.725-.804-1.516-.818z" fill="#fff"/>
 </g>
</svg>
