<svg width="64" height="64" version="1.1" viewBox="0 0 16.933 16.933" xmlns="http://www.w3.org/2000/svg" xmlns:xlink="http://www.w3.org/1999/xlink">
 <defs>
  <linearGradient id="b" x1="45.628" x2="45.628" y1="57.955" y2="12.461" gradientTransform="matrix(.26458 0 0 .26458 0 280.07)" gradientUnits="userSpaceOnUse">
   <stop offset="0"/>
   <stop stop-opacity="0" offset="1"/>
  </linearGradient>
 </defs>
 <g transform="matrix(1.0385 0 0 1.0385 -.41232 -.32567)" stroke-width=".92729">
  <path d="m8.467 1.588a6.879 6.879 0 1 1 0 13.757 6.879 6.879 0 0 1 0-13.757z" fill="#235292"/>
  <path transform="translate(0 -280.07)" d="m12.997 283.36a10.716 10.716 0 0 1 0.497 3.185 10.716 10.716 0 0 1-4.695 8.852 6.88 6.88 0 0 0 6.547-6.868 6.88 6.88 0 0 0-2.349-5.17z" fill="url(#b)" opacity=".25" style="paint-order:stroke markers fill"/>
 </g>
 <path d="M10.578 7.501c-.52-.603-.987-.993-1.679.023-.413.603-2.884 4.066-3.337 4.617-.133.16-.21.27-.31.337 0-.22 1.707-3.003 2.183-3.81.575-.968.557-.912.488-.912-.097 0-.295.148-.596.478-.549.603-2.175 2.847-2.288 2.813.039-.163 1.312-2.172 1.89-3.003.497-.716.307-.772.022-.701-1.216.3-2.67 1.02-2.718.993.018-.037 4.9-3.569 5.552-3.636.076-.009.236-.148.521-.265.31-.125.519-.229.57-.196-.227.327-.345.393-.348.498-.003.172-.062.45-.128.54 1.262.865 1.755 3.813 2.114 6.186.085.562.166.986.186 1.237-.106-.282-1.115-4.03-2.124-5.199m0 0" fill="#fff"/>
</svg>
