<svg xmlns="http://www.w3.org/2000/svg" xmlns:xlink="http://www.w3.org/1999/xlink" width="64" height="64" viewBox="0 0 16.933 16.933"><defs><linearGradient gradientTransform="matrix(.26458 0 0 .26458 0 280.067)" xlink:href="#a" id="b" x1="45.628" y1="57.955" x2="45.628" y2="12.461" gradientUnits="userSpaceOnUse"/><linearGradient id="a"><stop offset="0"/><stop offset="1" stop-opacity="0"/></linearGradient></defs><g transform="translate(0 -280.067)"><circle cx="8.467" cy="288.533" r="6.879" fill="#a9d13c" paint-order="markers stroke fill"/><path d="M12.997 283.364a10.716 10.716 0 0 1 .497 3.185 10.716 10.716 0 0 1-4.695 8.852 6.88 6.88 0 0 0 6.547-6.868 6.88 6.88 0 0 0-2.349-5.17z" opacity=".25" fill="url(#b)" paint-order="stroke markers fill"/><path d="M8.467 284.3a4.233 4.233 0 0 0-3.426 1.755l.607.365a3.528 3.528 0 0 1 2.819-1.414 3.528 3.528 0 0 1 3.527 3.527 3.528 3.528 0 0 1-3.527 3.528 3.528 3.528 0 0 1-2.819-1.412l-.608.364a4.233 4.233 0 0 0 3.427 1.754 4.233 4.233 0 0 0 4.233-4.234 4.233 4.233 0 0 0-4.233-4.233zm-4.234 1.764v4.939l4.234-2.47zm4.234 0a2.47 2.47 0 0 0-1.906.903l.614.368a1.764 1.764 0 0 1 1.292-.566 1.764 1.764 0 0 1 1.764 1.764 1.764 1.764 0 0 1-1.764 1.764 1.764 1.764 0 0 1-1.292-.566l-.615.37a2.47 2.47 0 0 0 1.907.902 2.47 2.47 0 0 0 2.47-2.47 2.47 2.47 0 0 0-2.47-2.47z" fill="#fff"/></g></svg>