<svg xmlns="http://www.w3.org/2000/svg" width="64" height="64" viewBox="0 0 16.933 16.933"><defs><linearGradient id="a" x1="14.679" x2="2.293" y1="293.79" y2="282.98" gradientTransform="matrix(1.0714 0 0 1 -.605 -280.07)" gradientUnits="userSpaceOnUse"><stop offset="0" stop-color="#66bcff"/><stop offset="1" stop-color="#b29aff"/></linearGradient></defs><rect width="15.875" height="12.171" x=".529" y="2.381" fill="url(#a)" rx="1.587" ry="1.587"/><rect width="14.287" height="1.058" x="1.323" y="2.91" opacity=".35" rx=".529" ry=".529"/><rect width="1.058" height=".529" x="1.587" y="3.175" opacity=".35" ry=".265" style="paint-order:stroke markers fill"/><rect width="2.646" height=".529" x="7.144" y="3.175" opacity=".35" ry=".265" style="paint-order:stroke markers fill"/><rect width=".529" height=".529" x="14.817" y="3.175" opacity=".35" ry=".265" style="paint-order:stroke markers fill"/><rect width=".794" height=".529" x="13.759" y="3.175" opacity=".35" ry=".265" style="paint-order:stroke markers fill"/><rect width=".529" height=".529" x="12.965" y="3.175" opacity=".35" ry=".265" style="paint-order:stroke markers fill"/><path fill="#fff" d="M3.704 13.504a.53.53 0 0 0-.529.53v.53h10.583v-.53a.53.53 0 0 0-.529-.53z" opacity=".35" style="paint-order:stroke markers fill"/><rect width="1.323" height="1.323" x="4.498" y="12.7" fill="#ccdfff" rx=".264" ry=".264" style="paint-order:stroke markers fill"/><rect width="1.323" height="1.323" x="6.879" y="12.7" fill="#ccdfff" rx=".264" ry=".264" style="paint-order:stroke markers fill"/><rect width="1.323" height="1.323" x="9.26" y="12.7" fill="#ccdfff" rx=".264" ry=".264" style="paint-order:stroke markers fill"/><rect width="1.323" height="1.323" x="11.641" y="12.7" fill="#ccdfff" rx=".264" ry=".264" style="paint-order:stroke markers fill"/></svg>