<svg width="64" height="64" version="1.1" viewBox="0 0 16.933 16.933" xmlns="http://www.w3.org/2000/svg">
 <defs>
  <linearGradient id="linearGradient9555" x1="14.679" x2="2.2933" y1="293.79" y2="282.98" gradientTransform="matrix(1.0714 0 0 1 -.605 -280.07)" gradientUnits="userSpaceOnUse">
   <stop stop-color="#66bcff" offset="0"/>
   <stop stop-color="#b29aff" offset="1"/>
  </linearGradient>
 </defs>
 <rect x=".52916" y="2.3812" width="15.875" height="12.171" rx="1.5875" ry="1.5875" fill="url(#linearGradient9555)"/>
 <rect x="1.3229" y="2.9104" width="14.287" height="1.0583" rx=".52916" ry=".52916" fill="#000000" opacity=".35" stop-color="#000000" stroke-width="0"/>
 <rect x="1.587" y="3.175" width="1.058" height=".529" ry=".265" opacity=".35" style="paint-order:stroke markers fill"/>
 <rect x="7.144" y="3.175" width="2.646" height=".529" ry=".265" opacity=".35" style="paint-order:stroke markers fill"/>
 <rect x="14.817" y="3.175" width=".529" height=".529" ry=".265" opacity=".35" style="paint-order:stroke markers fill"/>
 <rect x="13.759" y="3.175" width=".794" height=".529" ry=".265" opacity=".35" style="paint-order:stroke markers fill"/>
 <rect x="12.965" y="3.175" width=".529" height=".529" ry=".265" opacity=".35" style="paint-order:stroke markers fill"/>
 <path d="m3.7044 13.504c-0.29307 0-0.52916 0.23609-0.52916 0.52916v0.53175h10.583v-0.53175c0-0.29307-0.23609-0.52916-0.52916-0.52916z" fill="#ffffff" opacity=".35" style="paint-order:stroke markers fill"/>
 <rect x="4.4978" y="12.7" width="1.323" height="1.323" rx=".26433" ry=".26433" fill="#ccdfff" style="paint-order:stroke markers fill"/>
 <rect x="6.879" y="12.7" width="1.323" height="1.323" rx=".26433" ry=".26433" fill="#ccdfff" style="paint-order:stroke markers fill"/>
 <rect x="9.2602" y="12.7" width="1.323" height="1.323" rx=".26433" ry=".26433" fill="#ccdfff" style="paint-order:stroke markers fill"/>
 <rect x="11.641" y="12.7" width="1.323" height="1.323" rx=".26433" ry=".26433" fill="#ccdfff" style="paint-order:stroke markers fill"/>
</svg>
