<?xml version="1.0" encoding="UTF-8" standalone="no"?>
<!-- Created with Inkscape (http://www.inkscape.org/) -->

<svg
   xmlns:dc="http://purl.org/dc/elements/1.1/"
   xmlns:cc="http://creativecommons.org/ns#"
   xmlns:rdf="http://www.w3.org/1999/02/22-rdf-syntax-ns#"
   xmlns:svg="http://www.w3.org/2000/svg"
   xmlns="http://www.w3.org/2000/svg"
   xmlns:xlink="http://www.w3.org/1999/xlink"
   xmlns:sodipodi="http://sodipodi.sourceforge.net/DTD/sodipodi-0.dtd"
   xmlns:inkscape="http://www.inkscape.org/namespaces/inkscape"
   width="64"
   height="64"
   viewBox="0 0 16.933333 16.933333"
   version="1.1"
   id="svg4572"
   inkscape:version="0.92.2 2405546, 2018-03-11"
   sodipodi:docname="desktop-environment-xfce.svg">
  <title
     id="title4611">Canvas icon theme</title>
  <defs
     id="defs4566">
    <linearGradient
       gradientTransform="matrix(0.26458333,0,0,0.26458333,-4.6124265e-8,280.06667)"
       inkscape:collect="always"
       xlink:href="#linearGradient856"
       id="linearGradient858"
       x1="45.62793"
       y1="57.955078"
       x2="45.62793"
       y2="12.460938"
       gradientUnits="userSpaceOnUse" />
    <linearGradient
       inkscape:collect="always"
       id="linearGradient856">
      <stop
         style="stop-color:#000000;stop-opacity:1;"
         offset="0"
         id="stop852" />
      <stop
         style="stop-color:#000000;stop-opacity:0;"
         offset="1"
         id="stop854" />
    </linearGradient>
  </defs>
  <sodipodi:namedview
     id="base"
     pagecolor="#ffffff"
     bordercolor="#666666"
     borderopacity="1.0"
     inkscape:pageopacity="0.0"
     inkscape:pageshadow="2"
     inkscape:zoom="7.919596"
     inkscape:cx="6.2566763"
     inkscape:cy="22.043933"
     inkscape:document-units="px"
     inkscape:current-layer="layer1"
     showgrid="true"
     units="px"
     width="64px"
     showguides="true"
     inkscape:guide-bbox="true"
     inkscape:window-width="732"
     inkscape:window-height="470"
     inkscape:window-x="1188"
     inkscape:window-y="408"
     inkscape:window-maximized="0"
     inkscape:snap-bbox="true"
     inkscape:bbox-nodes="true"
     inkscape:snap-bbox-edge-midpoints="true">
    <inkscape:grid
       type="xygrid"
       id="grid4582" />
    <sodipodi:guide
       position="1.0583333,15.875"
       orientation="0,1"
       id="guide4584"
       inkscape:locked="false" />
    <sodipodi:guide
       position="1.0583333,1.0583333"
       orientation="1,0"
       id="guide4586"
       inkscape:locked="false" />
    <sodipodi:guide
       position="15.875,15.875"
       orientation="1,0"
       id="guide4588"
       inkscape:locked="false" />
    <sodipodi:guide
       position="1.0583333,1.0583333"
       orientation="0,1"
       id="guide4590"
       inkscape:locked="false" />
    <sodipodi:guide
       position="8.4666665,15.345833"
       orientation="1,0"
       id="guide826"
       inkscape:locked="false" />
  </sodipodi:namedview>
  <metadata
     id="metadata4569">
    <rdf:RDF>
      <cc:Work
         rdf:about="">
        <dc:format>image/svg+xml</dc:format>
        <dc:type
           rdf:resource="http://purl.org/dc/dcmitype/StillImage" />
        <dc:title>Canvas icon theme</dc:title>
        <cc:license
           rdf:resource="http://creativecommons.org/licenses/by-nc-sa/4.0/" />
        <dc:creator>
          <cc:Agent>
            <dc:title>Vince Liuice</dc:title>
          </cc:Agent>
        </dc:creator>
      </cc:Work>
      <cc:License
         rdf:about="http://creativecommons.org/licenses/by-nc-sa/4.0/">
        <cc:permits
           rdf:resource="http://creativecommons.org/ns#Reproduction" />
        <cc:permits
           rdf:resource="http://creativecommons.org/ns#Distribution" />
        <cc:requires
           rdf:resource="http://creativecommons.org/ns#Notice" />
        <cc:requires
           rdf:resource="http://creativecommons.org/ns#Attribution" />
        <cc:prohibits
           rdf:resource="http://creativecommons.org/ns#CommercialUse" />
        <cc:permits
           rdf:resource="http://creativecommons.org/ns#DerivativeWorks" />
        <cc:requires
           rdf:resource="http://creativecommons.org/ns#ShareAlike" />
      </cc:License>
    </rdf:RDF>
  </metadata>
  <g
     inkscape:label="Layer 1"
     inkscape:groupmode="layer"
     id="layer1"
     transform="translate(0,-280.06667)">
    <g
       transform="matrix(0.26458333,0,0,0.26458333,0,284.3)"
       id="g15" />
    <g
       transform="matrix(0.26458333,0,0,0.26458333,1.3229166,282.97709)"
       id="g19"
       style="fill:#1d89db;fill-opacity:1">
      <path
         inkscape:connector-curvature="0"
         d="M 27,-4.9999996 C 41.359913,-4.9999996 53,6.6400872 53,21 53,35.359913 41.359913,47 27,47 12.640087,47 1,35.359913 1,21 1,6.6400872 12.640087,-4.9999996 27,-4.9999996 Z"
         style="fill:#0044aa;fill-opacity:1;stroke-width:1.13043475"
         id="path17" />
    </g>
    <g
       transform="matrix(0.26458333,0,0,0.26458333,0,284.3)"
       id="g31">
      <g
         id="g29">
        <g
           transform="translate(1,1)"
           id="g27">
          <g
             style="opacity:0.1"
             id="g25">
            <!-- color: #35bf5c -->
            <g
               id="g23" />
          </g>
        </g>
      </g>
    </g>
    <g
       transform="matrix(0.26458333,0,0,0.26458333,0,284.3)"
       id="g43" />
    <path
       inkscape:connector-curvature="0"
       style="opacity:0.25;fill:url(#linearGradient858);fill-opacity:1;stroke:none;stroke-width:0.49136904;stroke-miterlimit:4;stroke-dasharray:none;stroke-opacity:0.03821656;paint-order:stroke markers fill"
       d="m 12.997139,283.36363 a 10.715625,10.715625 0 0 1 0.496611,3.18534 10.715625,10.715625 0 0 1 -4.6948041,8.85165 6.8791665,6.8791665 0 0 0 6.5468871,-6.86728 6.8791665,6.8791665 0 0 0 -2.348694,-5.16971 z"
       id="circle839" />
    <g
       transform="matrix(0.20497516,0,0,0.20497516,2.2016536,284.74474)"
       id="g33"
       style="stroke-width:1.29080677" />
    <g
       transform="matrix(0.32556395,0,0,0.32556395,0.40768129,280.63896)"
       id="g39">
      <g
         id="g37">
        <!-- color: #2c65b5 -->
        <g
           id="g35">
          <path
             inkscape:connector-curvature="0"
             d="m 6.281,14.5 c -0.074,0.145 -0.148,0.289 -0.219,0.434 1.125,0.625 4.367,2.254 5.906,3.219 1.945,1.191 4.574,3.621 4.781,4.03 -2.023,3.523 -1.105,6.641 -1.344,6.973 -0.172,0.277 -1.762,2.023 -1.25,2.281 0.508,0.254 1.316,-0.145 1.438,-0.223 0.254,-0.156 0.516,-0.383 0.406,0.066 -0.215,0.918 -1.191,3.125 0.156,2.656 0.164,-0.094 2.332,-2.484 2.594,-2.566 4.313,1.125 9.137,0.609 10.03,0.191 0.465,0.031 1.781,0.859 2.531,1.254 0.75,0.391 2.793,1.371 2.188,-0.41 -0.188,-0.563 -1.531,-2 -1.313,-2.094 0.48,-0.191 1.668,0.496 2.125,0.625 1.367,0.383 1.551,-0.148 0.688,-1.316 -0.852,-1.168 -0.98,-0.988 -1.25,-1.527 -0.211,-0.434 0,-0.914 0.156,-1.031 0.277,-0.211 4.359,-2.477 5.316,-3.344 1.418,-1.289 0,-2.898 -0.348,-3.125 -2.941,-2.117 -5.961,-1.664 -6,-2 -0.02,-0.383 -0.012,-1.488 -0.063,-1.871 -0.293,-2.594 -1.492,-1.941 -1.656,-1.941 -1.199,0.188 -0.758,2.023 -0.25,3.75 0.039,0.441 -0.418,0.246 -0.688,-0.219 -0.922,-2.473 -1.309,-2.43 -1.563,-2.504 -0.246,-0.055 -1.113,0.473 -1.098,1.473 0.004,0.285 0.344,1.645 0.344,2.063 -0.566,0.496 -0.594,1.621 -1.188,2.031 -1.73,0.359 -5.887,-0.855 -6.406,-0.91 -1.797,-0.336 -2.582,1.012 -2.871,0.688 -2.332,-2.672 -5.895,-4.656 -7.438,-5 C 9.397,16.024 7.378,15.133 6.651,14.684 6.534,14.614 6.401,14.563 6.272,14.496 m 32.07,2.344 c -0.563,0.605 -0.465,2.867 -0.348,2.848 0.574,-0.117 0.52,-3.03 0.348,-2.848 m 1.629,0.344 c -0.066,-0.184 -1.547,1.895 -1.285,2.66 0.117,0.332 1.484,-2.078 1.285,-2.66 m -7.691,3.535 c 0.02,-0.02 0.043,0.008 0.066,0.031 0.172,0.57 0.363,1.113 1.496,1.25 0.133,0.016 -0.629,0.461 -1.152,0.188 -0.477,-0.289 -0.52,-1.34 -0.41,-1.469 m 2.938,2.871 c 0.105,-0.016 0.18,-0.012 0.254,0 0.277,0.07 -2.01,1.262 -2.188,1.098 -0.109,-0.105 1.219,-0.965 1.938,-1.098 m 0.594,0.754 c 0.238,0.02 -1.324,1.637 -1.5,1.469 -0.129,-0.117 1.012,-1.508 1.5,-1.469 m 0,0"
             style="fill:#f9f9f9;fill-opacity:1;fill-rule:nonzero;stroke:none"
             id="path33" />
        </g>
      </g>
    </g>
  </g>
</svg>
