<svg width="64" height="64" version="1.1" xmlns="http://www.w3.org/2000/svg">
 <g transform="matrix(1.35 0 0 1.35 -519.57 -675.13)" stroke-width=".74074">
  <g stroke-opacity=".55" stroke-width="2.0741">
   <rect x="388.57" y="503.8" width="40" height="40" rx="20" fill="#434b55"/>
   <rect transform="scale(-1)" x="-425.61" y="-540.84" width="34.074" height="34.074" rx="17.037" fill="#2c363f" stroke-width="2.0741"/>
   <rect transform="scale(-1)" x="-421.9" y="-537.13" width="26.667" height="26.667" rx="13.333" fill="#2e5d89"/>
   <rect transform="scale(-1)" x="-418.57" y="-533.8" width="20" height="20" rx="10" fill="#274f74"/>
   <g fill="#197cf1">
    <path d="m408.57 510.47c-7.3867 0-13.333 5.9467-13.333 13.333 0 7.3867 5.9467 13.333 13.333 13.333 7.3867 0 13.333-5.9467 13.333-13.333 0-7.3867-5.9467-13.333-13.333-13.333m0 0.95238c6.859 0 12.381 5.5219 12.381 12.381 0 6.859-5.5219 12.381-12.381 12.381s-12.381-5.5219-12.381-12.381c0-6.859 5.5219-12.381 12.381-12.381"/>
    <path d="m408.57 512.69c-6.1556 0-11.111 4.9556-11.111 11.111 0 6.1556 4.9556 11.111 11.111 11.111 6.1556 0 11.111-4.9556 11.111-11.111 0-6.1556-4.9556-11.111-11.111-11.111m0 2.2222c4.9244 0 8.8889 3.9605 8.8889 8.8889 0 4.9244-3.9605 8.8889-8.8889 8.8889-4.9244 0-8.8889-3.9605-8.8889-8.8889 0-4.9244 3.9605-8.8889 8.8889-8.8889"/>
    <path d="m408.57 516.37c-1.0716 0-2.0866 0.22937-3.0051 0.63519l1.73 4.3274 1.1627-0.3083 1.8991-4.4305c-0.57297-0.14115-1.1692-0.22287-1.7867-0.22287m2.6773 0.50239-1.8359 4.282 1.0447 0.60176 4.4742-1.7904c-0.84413-1.4032-2.1349-2.498-3.6839-3.0942m-6.5098 0.56554c-1.4032 0.84414-2.498 2.1349-3.0942 3.6839l4.282 1.8359 0.60176-1.0447zm10.626 3.3552-4.3275 1.7301 0.30831 1.1626 4.4305 1.8991c0.14116-0.57297 0.22288-1.1692 0.22288-1.7867 0-1.0716-0.22938-2.0866-0.63519-3.0051m-14.004 1.2184c-0.14116 0.57297-0.22288 1.1692-0.22288 1.7867 0 1.0716 0.22938 2.0866 0.63519 3.0051l4.3275-1.7301-0.30831-1.1626zm9.8501 2.628-0.60176 1.0447 1.7904 4.4742c1.4032-0.84414 2.498-2.1349 3.0942-3.6839zm-4.5308 1.2007-4.4742 1.7904c0.84413 1.4032 2.1349 2.498 3.6839 3.0942l1.8359-4.282zm3.1611 0.42438-1.1627 0.30831-1.8991 4.4305c0.57297 0.14115 1.1692 0.22287 1.7867 0.22287 1.0716 0 2.0867-0.22937 3.0051-0.63519z"/>
   </g>
  </g>
  <g stroke-linejoin="round">
   <circle transform="rotate(37.5)" cx="643.01" cy="166.83" r="2" color="#000000" fill="#2c3e50" stroke-linecap="round" stroke-width="2.2222"/>
   <g fill="#fff" stroke-width="1.4815">
    <path d="m401.57 513.8a3 3 0 0 0-3 3 3 3 0 0 0 3 3 3 3 0 0 0 3-3 3 3 0 0 0-3-3" opacity=".25"/>
    <path d="m405.57 519.3a1.5 1.5 0 0 0-1.5 1.5 1.5 1.5 0 0 0 1.5 1.5 1.5 1.5 0 0 0 1.5-1.5 1.5 1.5 0 0 0-1.5-1.5" opacity=".25"/>
   </g>
  </g>
 </g>
</svg>
