<svg id="App-Store" width="64" height="64" enable-background="new 0 0 1024 1024" image-rendering="optimizeSpeed" version="1.1" viewBox="0 0 64 64" xmlns="http://www.w3.org/2000/svg">
 <path d="m58.182 25.136c-0.06292-0.24883-0.13442-0.51484-0.20879-0.77797-0.14301-0.50054-0.30604-1.0067-0.48337-1.5073-0.36896-1.044-0.80943-2.0622-1.3243-3.069-0.21738-0.42331-0.45477-0.8552-0.7036-1.2813h-0.0014q-1.7505-2.9751-4.3661-5.5916c-5.2713-5.2713-11.638-7.9084-19.094-7.9084s-13.82 2.6371-19.092 7.9084c-5.2713 5.2713-7.9084 11.635-7.9084 19.092 0 7.4565 2.6371 13.823 7.9084 19.094 3.8927 3.8927 8.3804 6.3467 13.437 7.3592 1.8276 0.3661 3.704 0.54629 5.6546 0.54629 7.4565 0 13.823-2.6342 19.094-7.9055 2.7801-2.7801 4.828-5.8633 6.1408-9.2556 0.97245-2.5141 1.5445-5.1941 1.7132-8.0514 0.03433-0.58348 0.05148-1.1813 0.05148-1.7876 0-2.3882-0.26886-4.6679-0.81801-6.8644z" fill="#1791f5" stroke-width=".89649"/>
 <path id="Shape" d="m16.843 14.608c0 2.7472 0.3753 6.6457 2.3502 8.7731 1.0594 1.1411 2.8065 1.4511 4.2093 1.9563 3.0653 1.104 6.4589 2.783 9.7262 3.0683l-4.2976-0.63085-9.7262-1.8573c0.02087 0.98008 0.21911 1.805 0.5892 2.7143 2.4318 5.9746 8.3014 4.75 13.661 4.75-2.0197 0.61366-4.2454 0.68717-6.3333 0.96855-0.69599 0.09386-2.0368 0.11808-2.4719 0.7738-0.7324 1.104 1.3393 2.622 2.0197 3.1746 2.9676 2.4112 5.9325 1.9495 9.2736 0.51164l-1.131 5.6548h3.619l-1.8095 8.1429 4.2424-5.4286 4.8052-6.5595h-4.75c1.5582-2.928 3.4754-5.6588 5.0257-8.5952 0.67925-1.2863 1.625-2.7772 1.2094-4.2974-0.64736-2.3693-4.8753-3.4109-6.9137-4.1099-5.6007-1.9206-11.023-4.1712-16.512-6.3736-2.1424-0.85959-4.4531-2.5145-6.7857-2.6358z" fill="#ffffff" stroke-width="1.3451"/>
</svg>
