<svg xmlns="http://www.w3.org/2000/svg" width="64" height="64" version="1"><path fill="#455a64" fill-rule="evenodd" d="M57.79 58.869s2.742-4.982 2.117-6.047c-.55-.937-5.592-.707-5.592-.707s4.269-5.178 3.593-6.33C57.242 44.65 50 44.012 50 44.012s7.905-2.642 8.132-3.942c.237-1.361-7.08-6.282-7.08-6.282s5.433-9.059 4.924-10.268c-.64-1.517-8.376-1.508-8.376-1.508s3.426-10.973 2.015-11.866c-1.185-.75-14.313 3.322-14.313 3.322s-3.934-9.456-6.124-9.456c-2.204 0-6.86 9.47-6.86 9.47s-7.931-6.274-9.363-5.46c-1.265.719-.694 10.993-.694 10.993z"/><g fill="#80cbc4"><path d="M28.192 18.399c-4.234 0-8.085.254-11.371 1.02-7.176.414-12.82 14.593-12.82 15.972.005 3.243.84 6.407 2.394 9.074C10.277 52.474 18.476 58 27.973 58c13.24 0 23.976-10.732 23.976-23.972S41.432 18.4 28.191 18.4z"/><path fill-rule="evenodd" d="M48.474 40.962s11.825 17.223 10.56 18.845c-1.227 1.575-24.223-7.026-24.223-7.026z"/></g><path fill="#009688" fill-rule="evenodd" d="M27.974 10.054C14.734 10.054 4 20.787 4 34.028c0 .09.013.177.014.267-.001.095-.014.186-.014.281 0 1.264.102 2.505.295 3.716.062.294.162.544.245.815 1.169 3.815 4.214 5.349 4.214 5.349.739.597 1.658 1.205 2.718 1.807h-.088s2.224 11.85 6.302 11.749c3.084-.076 5.504-6.124 9.426-6 3.917.123 5.507 5.959 9.406 6 2.251.023 4.246-2.859 5.482-6h1.128c3.707 3.45 12.133 6.692 15.785 7.883a.4.4 0 0 0 .119-.09c.893-1.147-5.41-11.565-8.902-16.636a23.9 23.9 0 0 0 1.818-9.142c0-13.24-10.733-23.974-23.974-23.974z"/><circle cx="17" cy="27.012" r="3" fill="#fff"/></svg>