<svg width="64" height="64" version="1" xmlns="http://www.w3.org/2000/svg">
 <path d="m57.79 58.869s2.742-4.9816 2.1171-6.0471c-0.54935-0.9366-5.5924-0.70711-5.5924-0.70711s4.2691-5.1773 3.593-6.3301c-0.66568-1.1349-7.908-1.7723-7.908-1.7723s7.9055-2.6428 8.132-3.942c0.23769-1.3616-7.0803-6.2821-7.0803-6.2821s5.434-9.059 4.9243-10.268c-0.63979-1.5168-8.3754-1.5085-8.3754-1.5085s3.4256-10.973 2.0148-11.866c-1.1853-0.75014-14.313 3.3219-14.313 3.3219s-3.9338-9.4559-6.1242-9.4559c-2.2042 0-6.8608 9.4696-6.8608 9.4696s-7.9305-6.2731-9.3618-5.4596c-1.2653 0.7191-0.69436 10.993-0.69436 10.993z" fill="#455a64" fill-rule="evenodd"/>
 <g transform="matrix(2 0 0 2 -1.3046e-7 .012001)" fill="#80cbc4">
  <path d="m14.096 9.1934c-2.1171 0-4.0424 0.1272-5.6855 0.50977-3.5882 0.20751-6.4102 7.2969-6.4102 7.9863 0.0026 1.6215 0.42013 3.2037 1.1973 4.5371 1.9408 4.0043 6.0406 6.7676 10.789 6.7676 6.6202 0 11.988-5.3661 11.988-11.986 0-6.6202-5.2587-7.8145-11.879-7.8145z"/>
  <path d="m24.237 20.475s5.9124 8.6114 5.2803 9.4224c-0.61384 0.7875-12.112-3.5128-12.112-3.5128z" fill-rule="evenodd"/>
 </g>
 <path d="m27.974 10.054c-13.24 0-23.974 10.733-23.974 23.974 0 0.09022 0.01278 0.1772 0.01378 0.26717-0.00113 0.09452-0.01378 0.18615-0.01378 0.28094 0 1.264 0.10214 2.5048 0.29471 3.7156 0.061956 0.29408 0.16224 0.54474 0.24514 0.81528 1.1689 3.8147 4.2141 5.3489 4.2141 5.3489 0.73879 0.59681 1.6582 1.2054 2.7185 1.8068h-0.08814s2.2241 11.85 6.3019 11.749c3.0841-0.07602 5.5042-6.1233 9.4254-6 3.9177 0.12318 5.5076 5.9593 9.4061 6 2.2515 0.02352 4.2463-2.8582 5.4822-6h1.1282c3.7068 3.4505 12.133 6.6928 15.785 7.8834 0.0499-0.02606 0.09058-0.05514 0.11844-0.0909 0.89373-1.1465-5.4101-11.564-8.9014-16.635 1.1646-2.8188 1.8179-5.9022 1.8179-9.1417 0-13.24-10.733-23.974-23.974-23.974z" fill="#009688" fill-rule="evenodd"/>
 <circle cx="17" cy="27.012" r="3" fill="#ffffff"/>
</svg>
