<svg width="64" height="64" version="1.1" viewBox="0 0 16.933 16.933" xmlns="http://www.w3.org/2000/svg">
 <g transform="matrix(1.04 0 0 1.04 -.339 -291.61)" stroke-width=".962" paint-order="markers stroke fill">
  <rect x="1.852" y="281.92" width="13.229" height="13.229" rx="2.2893" ry="2.2893" fill="#ffb030"/>
 </g>
 <path d="m11.956 5.2269c-0.65081-0.3045-1.3467-0.5258-2.0742-0.6518-0.089348 0.16154-0.19373 0.37881-0.2657 0.55165-0.77337-0.11631-1.5396-0.11631-2.2988 0-0.071956-0.17284-0.17871-0.39011-0.26886-0.55165-0.72831 0.12601-1.425 0.34812-2.0758 0.65342-1.3127 1.9837-1.6685 3.918-1.4906 5.8249 0.87065 0.65018 1.7144 1.0451 2.5439 1.3036 0.20481-0.28188 0.38748-0.58153 0.54484-0.89733-0.2997-0.11388-0.58675-0.25442-0.85798-0.41757 0.071956-0.05331 0.14234-0.10904 0.21034-0.16639 1.6543 0.77376 3.4517 0.77376 5.0863 0 0.0688 0.05735 0.13917 0.11308 0.21034 0.16639-0.27203 0.16395-0.55986 0.30448-0.85957 0.41838 0.15736 0.31499 0.33924 0.61545 0.54484 0.89732 0.83032-0.25845 1.6749-0.6534 2.5455-1.3044 0.20877-2.2106-0.35664-4.1272-1.4946-5.8266zm-5.1598 4.6538c-0.4966 0-0.90386-0.46361-0.90386-1.0282 0-0.56456 0.39856-1.029 0.90386-1.029 0.50532 0 0.91256 0.4636 0.90386 1.029 7.937e-4 0.56456-0.39855 1.0282-0.90386 1.0282zm3.3402 0c-0.49661 0-0.90386-0.46361-0.90386-1.0282 0-0.56456 0.39855-1.029 0.90386-1.029 0.5053 0 0.91256 0.4636 0.90386 1.029 0 0.56456-0.39856 1.0282-0.90386 1.0282z" fill="#ffffff" stroke-width=".13782"/>
</svg>
