<svg width="64" height="64" version="1" xmlns="http://www.w3.org/2000/svg">
 <circle cx="32" cy="32" r="18" fill="#fff" fill-rule="evenodd" style="paint-order:normal"/>
 <path d="m32 5a27 27 0 0 0-27 27 27 27 0 0 0 27 27 27 27 0 0 0 27-27 27 27 0 0 0-27-27zm0 15.428a11.572 11.572 0 0 1 11.572 11.572 11.572 11.572 0 0 1-11.572 11.572 11.572 11.572 0 0 1-11.572-11.572 11.572 11.572 0 0 1 11.572-11.572z" fill="#fa4d6f"/>
 <path d="M32 9A23 23 0 0 0 9 32a23 23 0 0 0 23 23 23 23 0 0 0 23-23A23 23 0 0 0 32 9zm0 13.143A9.857 9.857 0 0 1 41.857 32 9.857 9.857 0 0 1 32 41.857 9.857 9.857 0 0 1 22.143 32 9.857 9.857 0 0 1 32 22.143z" fill="#fff" opacity=".15"/>
 <path d="m32 17a15 15 0 0 0-15 15 15 15 0 0 0 15 15 15 15 0 0 0 15-15 15 15 0 0 0-15-15zm0 9a6 6 0 0 1 6 6 6 6 0 0 1-6 6 6 6 0 0 1-6-6 6 6 0 0 1 6-6z" opacity=".35"/>
</svg>
