<svg xmlns="http://www.w3.org/2000/svg" width="64" height="64" version="1"><circle cx="32" cy="32" r="18" fill="#fff" fill-rule="evenodd" style="paint-order:normal"/><path fill="#fa4d6f" d="M32 5A27 27 0 0 0 5 32a27 27 0 0 0 27 27 27 27 0 0 0 27-27A27 27 0 0 0 32 5m0 15.428A11.57 11.57 0 0 1 43.572 32 11.57 11.57 0 0 1 32 43.572 11.57 11.57 0 0 1 20.428 32 11.57 11.57 0 0 1 32 20.428"/><path fill="#fff" d="M32 9A23 23 0 0 0 9 32a23 23 0 0 0 23 23 23 23 0 0 0 23-23A23 23 0 0 0 32 9m0 13.143A9.857 9.857 0 0 1 41.857 32 9.857 9.857 0 0 1 32 41.857 9.857 9.857 0 0 1 22.143 32 9.857 9.857 0 0 1 32 22.143" opacity=".15"/><path d="M32 17a15 15 0 0 0-15 15 15 15 0 0 0 15 15 15 15 0 0 0 15-15 15 15 0 0 0-15-15m0 9a6 6 0 0 1 6 6 6 6 0 0 1-6 6 6 6 0 0 1-6-6 6 6 0 0 1 6-6" opacity=".35"/></svg>