<svg width="64" height="64" version="1.1" viewBox="0 0 16.933 16.933" xmlns="http://www.w3.org/2000/svg">
 <g transform="translate(0 -280.07)">
  <g transform="matrix(1.0385 0 0 1.0385 -.32619 -11.098)" stroke-width=".92729">
   <circle cx="8.467" cy="288.53" r="6.879" fill="#225a84" style="paint-order:stroke markers fill"/>
  </g>
  <path d="M8.731 284.035a4.234 4.234 0 0 0-4.233 4.231V291.845c0 .364.293.657.657.657H8.733a4.233 4.233 0 0 0-.002-8.467zm1.276.928c.17 0 .291.02.448.06.23.06.417.249.417.468 0 .264-.191.457-.479.457-.136 0-.186-.027-.386-.027-.591 0-1.07.48-1.071 1.07v.926c0 .084.067.152.15.152h.705a.472.472 0 1 1 0 .945h-.855v1.081a2.03 2.03 0 0 1-2.03 2.03c-.17 0-.291-.02-.448-.061-.23-.06-.418-.248-.418-.467 0-.265.192-.457.48-.457.136 0 .186.026.386.026.591 0 1.07-.479 1.071-1.07v-.93a.151.151 0 0 0-.151-.152h-.704a.472.472 0 1 1 .005-.945h.85v-1.076a2.03 2.03 0 0 1 2.03-2.03z" fill="#fff"/>
 </g>
</svg>
