<svg xmlns="http://www.w3.org/2000/svg" width="64" height="64" viewBox="0 0 16.933 16.933"><path fill="#4d4d4d" d="M8.38 1.323a7.144 7.144 0 1 1 0 14.287 7.144 7.144 0 0 1 0-14.287"/><path fill="#fff" d="M5.773 12.546h.359q.102-.205.256-.205.103 0 .462.102 1.13.257 1.796.257 2.618-.102 2.822-2.36 0-.924-.77-1.745-.615-.615-2.052-1.334-1.59-.873-1.59-1.54.103-.872 1.282-.923 1.591.051 2.156 1.744h.513L10.75 4.44h-.256q-.103.05-.052.05a.5.5 0 0 1-.256.104q-.052 0-.36-.103-.923-.257-1.642-.257-2.514.154-2.668 2.155.308 1.899 2.31 2.566 1.692.668 1.898 1.899-.104 1.23-1.488 1.283-1.643 0-2.258-1.95h-.513l.308 2.36" font-family="刘德华字体叶根友仿版" font-size="62.261" font-weight="700" letter-spacing="0" word-spacing="0"/></svg>