<?xml version="1.0" encoding="UTF-8" standalone="no"?>
<!-- Created with Inkscape (http://www.inkscape.org/) -->

<svg
   xmlns:dc="http://purl.org/dc/elements/1.1/"
   xmlns:cc="http://creativecommons.org/ns#"
   xmlns:rdf="http://www.w3.org/1999/02/22-rdf-syntax-ns#"
   xmlns:svg="http://www.w3.org/2000/svg"
   xmlns="http://www.w3.org/2000/svg"
   xmlns:xlink="http://www.w3.org/1999/xlink"
   xmlns:sodipodi="http://sodipodi.sourceforge.net/DTD/sodipodi-0.dtd"
   xmlns:inkscape="http://www.inkscape.org/namespaces/inkscape"
   width="64"
   height="64"
   viewBox="0 0 16.933333 16.933333"
   version="1.1"
   id="svg4572"
   inkscape:version="0.92.3 (2405546, 2018-03-11)"
   sodipodi:docname="distributor-logo-kubuntu.svg">
  <title
     id="title4611">Canvas icon theme</title>
  <defs
     id="defs4566">
    <linearGradient
       gradientTransform="matrix(0.26458333,0,0,0.26458333,-4.6124265e-8,280.06667)"
       inkscape:collect="always"
       xlink:href="#linearGradient856"
       id="linearGradient858"
       x1="45.62793"
       y1="57.955078"
       x2="45.62793"
       y2="12.460938"
       gradientUnits="userSpaceOnUse" />
    <linearGradient
       inkscape:collect="always"
       id="linearGradient856">
      <stop
         style="stop-color:#000000;stop-opacity:1;"
         offset="0"
         id="stop852" />
      <stop
         style="stop-color:#000000;stop-opacity:0;"
         offset="1"
         id="stop854" />
    </linearGradient>
  </defs>
  <sodipodi:namedview
     id="base"
     pagecolor="#ffffff"
     bordercolor="#666666"
     borderopacity="1.0"
     inkscape:pageopacity="0.0"
     inkscape:pageshadow="2"
     inkscape:zoom="5.6"
     inkscape:cx="39.862006"
     inkscape:cy="17.478139"
     inkscape:document-units="px"
     inkscape:current-layer="layer1"
     showgrid="true"
     units="px"
     width="64px"
     showguides="true"
     inkscape:guide-bbox="true"
     inkscape:window-width="652"
     inkscape:window-height="468"
     inkscape:window-x="794"
     inkscape:window-y="310"
     inkscape:window-maximized="0"
     inkscape:snap-bbox="true"
     inkscape:bbox-nodes="true"
     inkscape:snap-bbox-edge-midpoints="true">
    <inkscape:grid
       type="xygrid"
       id="grid4582" />
    <sodipodi:guide
       position="1.0583333,15.875"
       orientation="0,1"
       id="guide4584"
       inkscape:locked="false" />
    <sodipodi:guide
       position="1.0583333,1.0583333"
       orientation="1,0"
       id="guide4586"
       inkscape:locked="false" />
    <sodipodi:guide
       position="15.875,15.875"
       orientation="1,0"
       id="guide4588"
       inkscape:locked="false" />
    <sodipodi:guide
       position="1.0583333,1.0583333"
       orientation="0,1"
       id="guide4590"
       inkscape:locked="false" />
    <sodipodi:guide
       position="8.4666665,15.345833"
       orientation="1,0"
       id="guide826"
       inkscape:locked="false" />
    <sodipodi:guide
       position="1.5875,8.4666665"
       orientation="0,1"
       id="guide828"
       inkscape:locked="false" />
  </sodipodi:namedview>
  <metadata
     id="metadata4569">
    <rdf:RDF>
      <cc:Work
         rdf:about="">
        <dc:format>image/svg+xml</dc:format>
        <dc:type
           rdf:resource="http://purl.org/dc/dcmitype/StillImage" />
        <dc:title>Canvas icon theme</dc:title>
        <cc:license
           rdf:resource="http://creativecommons.org/licenses/by-nc-sa/4.0/" />
        <dc:creator>
          <cc:Agent>
            <dc:title>Vince Liuice</dc:title>
          </cc:Agent>
        </dc:creator>
      </cc:Work>
      <cc:License
         rdf:about="http://creativecommons.org/licenses/by-nc-sa/4.0/">
        <cc:permits
           rdf:resource="http://creativecommons.org/ns#Reproduction" />
        <cc:permits
           rdf:resource="http://creativecommons.org/ns#Distribution" />
        <cc:requires
           rdf:resource="http://creativecommons.org/ns#Notice" />
        <cc:requires
           rdf:resource="http://creativecommons.org/ns#Attribution" />
        <cc:prohibits
           rdf:resource="http://creativecommons.org/ns#CommercialUse" />
        <cc:permits
           rdf:resource="http://creativecommons.org/ns#DerivativeWorks" />
        <cc:requires
           rdf:resource="http://creativecommons.org/ns#ShareAlike" />
      </cc:License>
    </rdf:RDF>
  </metadata>
  <g
     inkscape:label="Layer 1"
     inkscape:groupmode="layer"
     id="layer1"
     transform="translate(0,-280.06667)">
    <g
       transform="matrix(0.26458333,0,0,0.26458333,0,284.3)"
       id="g15" />
    <g
       transform="matrix(0.26458333,0,0,0.26458333,1.3229166,282.97709)"
       id="g19"
       style="fill:#4380b4;fill-opacity:1">
      <path
         inkscape:connector-curvature="0"
         d="M 27,-4.9999996 C 41.359913,-4.9999996 53,6.6400872 53,21 53,35.359913 41.359913,47 27,47 12.640087,47 1,35.359913 1,21 1,6.6400872 12.640087,-4.9999996 27,-4.9999996 Z"
         style="fill:#1a87e2;fill-opacity:1;stroke-width:1.13043475"
         id="path17" />
    </g>
    <g
       transform="matrix(0.26458333,0,0,0.26458333,0,284.3)"
       id="g31">
      <g
         id="g29">
        <g
           transform="translate(1,1)"
           id="g27">
          <g
             style="opacity:0.1"
             id="g25">
            <!-- color: #35bf5c -->
            <g
               id="g23" />
          </g>
        </g>
      </g>
    </g>
    <g
       transform="matrix(0.26458333,0,0,0.26458333,0,284.3)"
       id="g43" />
    <path
       inkscape:connector-curvature="0"
       style="opacity:0.25;fill:url(#linearGradient858);fill-opacity:1;stroke:none;stroke-width:0.49136904;stroke-miterlimit:4;stroke-dasharray:none;stroke-opacity:0.03821656;paint-order:stroke markers fill"
       d="m 12.997139,283.36363 a 10.715625,10.715625 0 0 1 0.496611,3.18534 10.715625,10.715625 0 0 1 -4.6948041,8.85165 6.8791665,6.8791665 0 0 0 6.5468871,-6.86728 6.8791665,6.8791665 0 0 0 -2.348694,-5.16971 z"
       id="circle839" />
    <path
       style="fill:#ffffff;fill-opacity:1;stroke-width:0.26458332"
       d="m 8.466577,284.3 c -2.3379498,0 -4.2332436,1.89532 -4.2332436,4.23324 0,2.33789 1.8952937,4.23343 4.2332436,4.23343 2.33804,0 4.233423,-1.89554 4.233423,-4.23343 C 12.7,286.19532 10.804617,284.3 8.466577,284.3 Z m -0.2566237,0.84935 c 0.019334,0.002 0.036814,0.014 0.04558,0.0324 l 0.4180052,0.87881 c 0.2036367,0.006 0.4079728,0.0411 0.6071843,0.10469 l 0.6716646,-0.67071 c 0.018503,-0.0186 0.047458,-0.0221 0.070035,-0.008 l 0.533997,0.32463 c 0.02318,0.0141 0.03314,0.0426 0.02408,0.068 l -0.324806,0.91439 c 0.122625,0.13611 0.226582,0.28535 0.310726,0.44395 l 0.997028,8.1e-4 c 0.02639,1e-5 0.04932,0.0182 0.05558,0.0437 l 0.147858,0.60718 c 0.0065,0.0264 -0.0062,0.0535 -0.03076,0.0652 l -1.248834,0.2733 c -0.147685,-0.98334 -0.9961731,-1.73743 -2.0207312,-1.73743 -0.2270086,0 -0.4450516,0.0377 -0.6490604,0.10598 l -0.010565,-0.006 -0.2675524,-1.23512 c 9.4e-5,-0.0264 0.018222,-0.0493 0.043729,-0.0556 l 0.607184,-0.14786 c 0.00659,-0.002 0.013196,-0.002 0.019655,-0.002 z m -1.980158,0.89438 c 0.012704,-0.002 0.025868,0.002 0.037242,0.009 l 0.9505222,0.86584 c -0.48246,0.37376 -0.7943246,0.95706 -0.7943246,1.61459 0,0.59284 0.2539137,1.12512 0.6572109,1.49841 l -6.415e-4,0.0137 -0.8534306,0.94385 c -0.022649,0.0137 -0.05164,0.0102 -0.070223,-0.008 L 5.714243,290.53921 c -0.019248,-0.0192 -0.022294,-0.0491 -0.0074,-0.0719 l 0.5338087,-0.81395 c -0.100704,-0.1771 -0.1770672,-0.36984 -0.2262365,-0.5731 L 5.092432,288.85495 c -0.025454,-0.006 -0.043545,-0.0292 -0.043545,-0.0556 v -0.62479 c 0,-0.0272 0.018972,-0.0507 0.045396,-0.0562 l 0.9501502,-0.19751 c 0.052577,-0.1755 0.1261164,-0.3419 0.2178955,-0.4962 l -0.5175052,-0.85214 c -0.013688,-0.0225 -0.010266,-0.0516 0.00832,-0.0702 l 0.4419077,-0.44191 c 0.00954,-0.01 0.021937,-0.0152 0.034649,-0.0165 z m 4.2321297,2.93012 1.239382,0.27738 c 0.02312,0.0128 0.0344,0.0399 0.02761,0.0652 l -0.162314,0.60348 c -0.007,0.0262 -0.03141,0.0438 -0.05855,0.0423 l -0.971644,-0.0561 c -0.103173,0.17567 -0.231973,0.33804 -0.383543,0.48211 l 0.264959,0.91143 c 0.0074,0.0251 -0.0034,0.0522 -0.0263,0.0654 l -0.5415919,0.31203 c -0.023498,0.0136 -0.053205,0.009 -0.07115,-0.0115 l -0.645538,-0.72447 c -0.178312,0.042 -0.3591134,0.0614 -0.5386294,0.0589 l -0.4800776,0.8738 c -0.012704,0.0231 -0.039605,0.0344 -0.065036,0.0276 l -0.6034778,-0.16232 c -0.026197,-0.007 -0.043947,-0.0313 -0.04243,-0.0584 l 0.3264764,-1.23549 0.00614,-0.003 c 0.2268632,0.0869 0.4729856,0.13489 0.7304026,0.13489 0.9772416,0 1.7938137,-0.68624 1.9953467,-1.60292 z"
       id="path2819-8-3-8"
       inkscape:connector-curvature="0" />
  </g>
</svg>
