<svg width="64" height="64" version="1.1" viewBox="0 0 16.933 16.933" xmlns="http://www.w3.org/2000/svg">
 <g transform="matrix(1.0385 0 0 1.0385 -.41232 -.32567)" stroke-width=".92729">
  <path d="m8.467 1.588a6.879 6.879 0 1 1 0 13.757 6.879 6.879 0 0 1 0-13.757z" fill="#f16f41"/>
 </g>
 <path d="m8.4679 3.7041a4.7624 4.7624 0 1 0 0 9.5248 4.7624 4.7624 0 0 0 0-9.5248zm1.6975 1.3274a0.63446 0.63446 0 0 1 0.47247 0.94832 0.63559 0.63559 0 1 1-0.47247-0.94832zm-1.6986 0.67271c0.25648 0 0.50397 0.034873 0.73908 0.10012a0.89207 0.89207 0 0 0 1.1958 0.69296c0.47022 0.46235 0.7762 1.0912 0.8212 1.792l-0.90557 0.012374a1.8573 1.8573 0 0 0-2.6323-1.5187l-0.4421-0.79308a2.7527 2.7527 0 0 1 1.2251-0.28573zm-1.5322 0.46347 0.46572 0.77958a1.855 1.855 0 0 0 0 3.0384l-0.46572 0.77845a2.7651 2.7651 0 0 1-1.1407-1.6053 0.88982 0.88982 0 0 0 0-1.3848 2.7673 2.7673 0 0 1 1.1407-1.6064zm-1.7054 1.6627a0.63615 0.63615 0 1 1 0 1.2723 0.63559 0.63559 0 0 1 0-1.2712zm5.0881 0.79983 0.90557 0.014624a2.7538 2.7538 0 0 1-0.8212 1.7909 0.8887 0.8887 0 0 0-1.1958 0.69184 2.7606 2.7606 0 0 1-1.963-0.18449l0.4421-0.79195a1.8561 1.8561 0 0 0 2.6323-1.5209zm-0.30936 2.0091a0.63696 0.63696 0 1 1 0.15524 1.2644 0.63696 0.63696 0 0 1-0.15524-1.2644z" fill="#fff" stroke-width="1.1249"/>
</svg>
