<svg width="64" height="64" version="1.1" viewBox="0 0 16.933 16.933" xmlns="http://www.w3.org/2000/svg" xmlns:xlink="http://www.w3.org/1999/xlink">
 <defs>
  <linearGradient id="b" x1="45.628" x2="45.628" y1="57.955" y2="12.461" gradientTransform="matrix(.26458 0 0 .26458 0 280.07)" gradientUnits="userSpaceOnUse">
   <stop offset="0"/>
   <stop stop-opacity="0" offset="1"/>
  </linearGradient>
 </defs>
 <g transform="matrix(1.0385 0 0 1.0385 -.41232 -.32567)" stroke-width=".92729">
  <path d="m8.467 1.588a6.879 6.879 0 1 1 0 13.757 6.879 6.879 0 0 1 0-13.757z" fill="#405474"/>
  <path transform="translate(0 -280.07)" d="m12.997 283.36a10.716 10.716 0 0 1 0.497 3.185 10.716 10.716 0 0 1-4.695 8.852 6.88 6.88 0 0 0 6.547-6.868 6.88 6.88 0 0 0-2.349-5.17z" fill="url(#b)" opacity=".25" style="paint-order:stroke markers fill"/>
 </g>
 <g fill="#f9f9f9" stroke-width=".75">
  <path d="M6.767 7.392a.465.465 0 0 0-.296.105 3.233 3.233 0 0 0-1.18 2.507c0 1.778 1.426 3.224 3.176 3.224 1.75 0 3.175-1.446 3.175-3.224 0-.978-.43-1.892-1.18-2.507a.468.468 0 0 0-.591 0 2.187 2.187 0 0 1-1.404.506c-.515 0-1-.174-1.403-.506a.47.47 0 0 0-.297-.105zm.203 1.167c.43.282.956.436 1.497.436.541 0 1.069-.154 1.497-.436a2.116 2.116 0 1 1-2.994 0zM8.114 3.705a.353.353 0 1 0 .001.707.353.353 0 0 0 0-.707zm1.094.705a.353.353 0 1 0 0 .707.353.353 0 0 0 0-.707zm-.918.353a.53.53 0 0 0 0 1.058.53.53 0 0 0 0-1.058zM9.35 5.821a.53.53 0 0 0 0 1.059.53.53 0 0 0 0-1.059zm-1.764.353a.53.53 0 0 0 0 1.058.53.53 0 0 0 0-1.058z"/>
 </g>
</svg>
