<svg xmlns="http://www.w3.org/2000/svg" width="64" height="64"><path fill="#ececec" d="M32 5c14.912 0 27 12.088 27 27S46.911 59 32 59 5 46.911 5 32 17.088 5 32 5"/><path fill="#7dadff" d="m32 16.739-12.913 7.63c.683 3.241 3.277 2.955 5.87 3.522L32 23.782l7.043 4.109c3.299 1.227 4.908-.075 5.87-3.522z"/><path fill="#2764c9" d="M39.043 27.891v8.217L32 40.217c-2.42 2.348-1.44 4.696 0 7.043l12.913-7.63V24.37z"/><path fill="#418bff" d="M19.087 24.37v15.26L32 47.26v-7.043l-7.044-4.109v-8.217z"/><path fill="#2764c9" d="m36.695 39.043 8.218 4.696v2.347l-2.348 1.174h-2.348L32 42.565z"/></svg>