<svg xmlns="http://www.w3.org/2000/svg" xmlns:xlink="http://www.w3.org/1999/xlink" width="64" height="64" viewBox="0 0 16.933 16.933"><defs><linearGradient id="a"><stop offset="0"/><stop offset="1" stop-opacity="0"/></linearGradient><linearGradient xlink:href="#a" id="b" x1="45.628" y1="57.955" x2="45.628" y2="12.461" gradientUnits="userSpaceOnUse"/></defs><g transform="translate(0 -280.067)"><circle cx="8.467" cy="288.533" r="6.879" fill="#225a84" paint-order="stroke markers fill"/><path d="M49.123 12.46A40.5 40.5 0 0 1 51 24.5a40.5 40.5 0 0 1-17.744 33.455A26 26 0 0 0 58 32a26 26 0 0 0-8.877-19.54z" transform="matrix(.26458 0 0 .26458 0 280.067)" opacity=".25" fill="url(#b)" paint-order="stroke markers fill"/><path d="M8.731 284.035a4.234 4.234 0 0 0-4.233 4.231V291.845c0 .364.293.657.657.657H8.733a4.233 4.233 0 0 0-.002-8.467zm1.276.928c.17 0 .291.02.448.06.23.06.417.249.417.468 0 .264-.191.457-.479.457-.136 0-.186-.027-.386-.027-.591 0-1.07.48-1.071 1.07v.926c0 .084.067.152.15.152h.705a.472.472 0 1 1 0 .945h-.855v1.081a2.03 2.03 0 0 1-2.03 2.03c-.17 0-.291-.02-.448-.061-.23-.06-.418-.248-.418-.467 0-.265.192-.457.48-.457.136 0 .186.026.386.026.591 0 1.07-.479 1.071-1.07v-.93a.151.151 0 0 0-.151-.152h-.704a.472.472 0 1 1 .005-.945h.85v-1.076a2.03 2.03 0 0 1 2.03-2.03z" fill="#fff"/></g></svg>