<svg xmlns="http://www.w3.org/2000/svg" width="64" height="64"><path fill="#c6e3f2" d="M32 5c14.912 0 27 12.088 27 27S46.911 59 32 59 5 46.911 5 32 17.088 5 32 5z"/><path fill="#64addc" d="m30.943 16.739 8.03 13.964 1.364-2.334-2.504-4.356 4.15-6.184-.587-1.09h-1.509l-3.359 5.003-2.877-5.003h-2.708m-5.797 9.392-2.744 4.695h-7.374L14.396 32l.632 1.174h6.002l-3.125 5.347 1.305 2.42 8.655-14.81h-2.719m4.549 12.914 1.35 2.348h5.175l3.746 5.87h1.428l.624-1.158-2.972-4.708h5.507l1.266-2.348H29.694z"/><path fill="#4e66b2" d="m22.609 16.739-.623 1.157 2.97 4.708H19.45l-1.265 2.348H34.31l-1.35-2.348h-5.175l-3.746-5.87H22.61m22.185 6.322L36.14 37.865h2.719l2.744-4.696h7.374l.632-1.174-.632-1.174h-6.003l3.125-5.347-1.304-2.42zM25.033 33.294l-1.364 2.334 2.504 4.356-4.15 6.184.587 1.09h1.509l3.358-5.004 2.878 5.003h2.708l-8.03-13.964"/></svg>