<svg width="64" height="64" version="1.1" viewBox="0 0 16.933 16.933" xmlns="http://www.w3.org/2000/svg" xmlns:xlink="http://www.w3.org/1999/xlink">
 <defs>
  <linearGradient id="b" x1="45.628" x2="45.628" y1="57.955" y2="12.461" gradientTransform="matrix(.26458 0 0 .26458 0 280.07)" gradientUnits="userSpaceOnUse">
   <stop offset="0"/>
   <stop stop-opacity="0" offset="1"/>
  </linearGradient>
 </defs>
 <g transform="matrix(1.0385 0 0 1.0385 -.41232 -.32567)" stroke-width=".92729">
  <path d="m8.467 1.588a6.879 6.879 0 1 1 0 13.757 6.879 6.879 0 0 1 0-13.757z" fill="#4d4d4d"/>
  <path transform="translate(0 -280.07)" d="m12.997 283.36a10.716 10.716 0 0 1 0.497 3.185 10.716 10.716 0 0 1-4.695 8.852 6.88 6.88 0 0 0 6.547-6.868 6.88 6.88 0 0 0-2.349-5.17z" fill="url(#b)" opacity=".25" style="paint-order:stroke markers fill"/>
 </g>
 <path d="M5.773 12.546h.359c.068-.137.154-.205.256-.205.069 0 .223.034.462.102.753.171 1.352.257 1.796.257 1.745-.068 2.686-.855 2.822-2.36 0-.616-.256-1.198-.77-1.745-.41-.41-1.094-.855-2.052-1.334-1.06-.582-1.59-1.095-1.59-1.54.068-.581.496-.889 1.282-.923 1.06.034 1.78.616 2.156 1.744h.513L10.75 4.44h-.256c-.069.034-.086.05-.052.05a.499.499 0 0 1-.256.104c-.035 0-.154-.035-.36-.103-.615-.171-1.163-.257-1.642-.257-1.676.103-2.565.821-2.668 2.155.205 1.266.975 2.121 2.31 2.566 1.128.445 1.761 1.078 1.898 1.899-.069.82-.565 1.248-1.488 1.283-1.095 0-1.848-.65-2.258-1.95h-.513l.308 2.36" fill="#fff" font-family="刘德华字体叶根友仿版" font-size="62.261" font-weight="700" letter-spacing="0" stroke-width="1.254" word-spacing="0"/>
</svg>
