<svg xmlns="http://www.w3.org/2000/svg" width="64" height="64"><path fill="#7f7fff" d="M37.134 7.02c-.062-.019-27.298 42.66-27.298 42.66-2.377 3.92-4.277 7.071-4.277 7.071s25.55 1.156 45.416-1.517c28.271-3.803-5.81-40.048-13.842-48.214z"/><path fill="#ff7f7f" d="M37.071 7.001C35.255 7.251 2 48.207 2 48.207s2.39.681 7.836 1.473C11.604 48.3 36.381 6.36 37.134 7.02q-.019-.025-.062-.019z"/><path fill="#7f3fbf" d="M37.104 7.005C35.961 6.82 9.836 49.68 9.836 49.68S34.526 51.165 44.25 51c27.535-.467-.762-35.549-7.116-43.98a.05.05 0 0 0-.03-.015"/></svg>