<svg width="64" height="64" version="1.1" viewBox="0 0 16.933 16.933" xmlns="http://www.w3.org/2000/svg" xmlns:xlink="http://www.w3.org/1999/xlink">
 <defs>
  <linearGradient id="b" x1="45.628" x2="45.628" y1="57.955" y2="12.461" gradientTransform="matrix(.26458 0 0 .26458 0 280.07)" gradientUnits="userSpaceOnUse">
   <stop offset="0"/>
   <stop stop-opacity="0" offset="1"/>
  </linearGradient>
 </defs>
 <g transform="matrix(1.0385 0 0 1.0385 -.41232 -.32567)" stroke-width=".92729">
  <path d="m8.467 1.588a6.879 6.879 0 1 1 0 13.757 6.879 6.879 0 0 1 0-13.757z" fill="#87a556"/>
  <path transform="translate(0 -280.07)" d="m12.997 283.36a10.716 10.716 0 0 1 0.497 3.185 10.716 10.716 0 0 1-4.695 8.852 6.88 6.88 0 0 0 6.547-6.868 6.88 6.88 0 0 0-2.349-5.17z" fill="url(#b)" opacity=".25" style="paint-order:stroke markers fill"/>
 </g>
 <path d="M9.525 4.233v2.54l2.117-1.27zm-.847.424A3.81 3.81 0 0 0 5.12 7.108l.372.223A3.387 3.387 0 0 1 8.678 5.08a3.387 3.387 0 0 1 .424.03v-.425a3.81 3.81 0 0 0-.424-.028zm0 1.27a2.54 2.54 0 0 0-2.444 1.85l.38.227A2.117 2.117 0 0 1 8.679 6.35a2.117 2.117 0 0 1 .424.043v-.43a2.54 2.54 0 0 0-.424-.036zm2.921.095l-.37.223a3.387 3.387 0 0 1 .836 2.222 3.387 3.387 0 0 1-.834 2.223l.366.22a3.81 3.81 0 0 0 .891-2.443 3.81 3.81 0 0 0-.889-2.445zm-1.11.666l-.376.226a2.117 2.117 0 0 1 .682 1.553 2.117 2.117 0 0 1-.681 1.552l.376.227a2.54 2.54 0 0 0 .728-1.78 2.54 2.54 0 0 0-.729-1.778zm-6.044.509v2.54l2.117-1.27zm2.17 1.731l-.38.227a2.54 2.54 0 0 0 2.443 1.852 2.54 2.54 0 0 0 .424-.038v-.43a2.117 2.117 0 0 1-.424.044 2.117 2.117 0 0 1-2.063-1.655zm-1.124.675l-.368.22a3.81 3.81 0 0 0 3.555 2.454 3.81 3.81 0 0 0 .424-.026v-.428a3.387 3.387 0 0 1-.424.03 3.387 3.387 0 0 1-3.187-2.25zm4.034.557v2.54l2.117-1.27z" fill="#fff"/>
</svg>
