<svg width="64" height="64" version="1.1" xmlns="http://www.w3.org/2000/svg">
 <path d="m37.134 7.0203c-0.06216-0.01914-27.298 42.66-27.298 42.66-2.3768 3.9203-4.2768 7.0711-4.2768 7.0711s25.549 1.1556 45.416-1.5173c28.271-3.8035-5.8105-40.048-13.842-48.214z" fill="#7f7fff"/>
 <path d="m37.071 7.0011c-1.8156 0.2497-35.071 41.206-35.071 41.206s2.39 0.68109 7.836 1.4731c1.7683-1.3799 26.545-43.32 27.298-42.66-0.0128-0.01686-0.03334-0.023068-0.06218-0.01912z" fill="#ff7f7f"/>
 <path d="m37.104 7.0054c-1.1429-0.18656-27.268 42.675-27.268 42.675s24.69 1.4844 34.414 1.3196c27.535-0.46659-0.76242-35.549-7.1164-43.98-0.0082-0.00838-0.018-0.01292-0.02954-0.01482z" fill="#7f3fbf"/>
</svg>
