<svg xmlns="http://www.w3.org/2000/svg" width="64" height="64" viewBox="0 0 16.933 16.933"><path fill="#1a87e2" d="M8.38 1.323a7.144 7.144 0 1 1 0 14.287 7.144 7.144 0 0 1 0-14.287"/><path fill="#fff" d="M8.467 4.233a4.233 4.233 0 1 0 0 8.467 4.233 4.233 0 0 0 0-8.467m-.257.85q.031.004.046.032l.418.879q.306.009.607.105l.671-.671a.056.056 0 0 1 .07-.008l.534.325a.06.06 0 0 1 .024.068l-.324.914q.184.205.31.444h.997c.027 0 .05.019.056.044l.148.608a.06.06 0 0 1-.03.065l-1.25.273a2.044 2.044 0 0 0-2.67-1.631l-.01-.006-.268-1.236c0-.026.019-.049.044-.055l.607-.148zm-1.98.894a.06.06 0 0 1 .037.01l.95.865a2.038 2.038 0 0 0-.137 3.113v.014l-.854.943a.06.06 0 0 1-.07-.008l-.442-.441a.06.06 0 0 1-.007-.072l.534-.814a2.2 2.2 0 0 1-.227-.573l-.922-.226a.06.06 0 0 1-.043-.055v-.625c0-.027.019-.05.045-.056l.95-.198q.08-.264.218-.496l-.517-.852a.06.06 0 0 1 .008-.07l.442-.442a.06.06 0 0 1 .035-.017m4.232 2.93 1.24.278c.022.012.034.04.027.065l-.162.603a.06.06 0 0 1-.059.043l-.972-.057a2.2 2.2 0 0 1-.383.483l.265.911a.06.06 0 0 1-.026.065l-.542.312a.06.06 0 0 1-.071-.011l-.646-.725a2.2 2.2 0 0 1-.538.06l-.48.873a.06.06 0 0 1-.065.028l-.604-.163a.06.06 0 0 1-.042-.058l.326-1.235.006-.003a2.044 2.044 0 0 0 2.726-1.468z"/></svg>