<svg width="64" height="64" version="1.1" viewBox="0 0 16.933 16.933" xmlns="http://www.w3.org/2000/svg">
 <g transform="matrix(1.0385 0 0 1.0385 -.32619 -291.17)" stroke-width=".92729">
  <circle cx="8.467" cy="288.53" r="6.879" fill="#42a5e9" style="paint-order:stroke markers fill"/>
 </g>
 <g transform="translate(-.24722 -279.94)">
  <path d="m8.7137 284.43c-2.186 0-3.9687 1.7885-3.9687 3.9687v2.9104c0 0.5863 0.47201 1.0583 1.0583 1.0583h2.9104c2.1918 0 3.9687-1.7768 3.9687-3.9687s-1.7827-3.9687-3.9687-3.9687zm0.79373 1.3229a1.3229 1.3229 0 0 1 1.3229 1.3229v0.13229a0.39687 0.39687 0 0 1-0.39687 0.39687 0.39687 0.39687 0 0 1-0.39687-0.39687v-0.13229a0.52916 0.52916 0 0 0-0.52916-0.52915 0.52916 0.52916 0 0 0-0.52916 0.52915v1.0583h0.66145c0.21986 0 0.39687 0.17699 0.39687 0.39686 0 0.21986-0.177 0.39687-0.39687 0.39687h-0.66145v0.79374a1.5875 1.5875 0 0 1-1.5875 1.5875 1.5875 1.5875 0 0 1-1.5875-1.5875 1.5875 1.5875 0 0 1 1.5875-1.5875h0.52916v0.79373h-0.52916a0.79373 0.79373 0 0 0-0.79373 0.79374 0.79373 0.79373 0 0 0 0.79373 0.79373 0.79373 0.79373 0 0 0 0.79373-0.79373v-2.6458a1.3229 1.3229 0 0 1 1.3229-1.3229z" fill="#ffffff" stroke-width=".26458"/>
 </g>
</svg>
