<svg xmlns="http://www.w3.org/2000/svg" xmlns:xlink="http://www.w3.org/1999/xlink" width="64" height="64" viewBox="0 0 16.933 16.933"><defs><linearGradient id="a"><stop offset="0"/><stop offset="1" stop-opacity="0"/></linearGradient><linearGradient xlink:href="#a" id="b" x1="45" y1="58" x2="45" y2="14" gradientUnits="userSpaceOnUse"/></defs><g transform="matrix(1.13043 0 0 1.13043 19.77 -318.377)"><circle r="5.821" cy="289.323" cx="-10.015" fill="#4c5263"/><path style="line-height:normal;text-indent:0;text-align:start;text-decoration-line:none;text-decoration-style:solid;text-decoration-color:#000;text-transform:none;white-space:normal;isolation:auto;mix-blend-mode:normal;solid-color:#000;solid-opacity:1" d="M-4.331 290.525c-.85 1.145-2.418 1.757-4.286 2.029-1.95.283-4.21.199-6.226.027.096.144.202.284.311.419 1.942.154 3.964.755 5.854.48 1.577-.23 3.119-1.232 4.096-2.096a5.61 5.61 0 0 0 .25-.86z" color="#000" font-weight="400" font-family="sans-serif" overflow="visible" fill="#fff" fill-rule="evenodd"/><path d="M-8.561 292.942c-1.976.279-3.988.21-5.97.058 1.275 1.627 3.493 2.447 5.54 2.052 1.978-.34 3.71-1.788 4.408-3.666-1.174.833-2.56 1.338-3.978 1.556z" fill="#5294e2"/><path d="M-12.363 283.112c-.654 2.67-2.537 5.953-3.722 8.048 2.066.497 4.359.642 6.136.804-.031-.403-.33-4.788-.403-5.633-.731-1.325-1.325-2.01-2.011-3.219zm2.514 3.42c.97 1.997.97 3.973.403 5.432.8.005 2.105.094 3.52-.604-1.163-2.656-3.923-4.828-3.923-4.828zm1.912 1.208c.601.403 1.175.77 1.609 1.206.588.59.889 1.387.805 2.214.788-.397 1.31-1.057 1.61-1.61-.525-.483-1.435-.96-2.415-1.307-.54-.192-1.11-.366-1.61-.503z" fill="#fff" fill-rule="evenodd"/><path d="M46.154 12.432A35.5 35.5 0 0 1 50 28.5a35.5 35.5 0 0 1-15.068 28.979A24.87 24.87 0 0 0 56.8 32.822a24.87 24.87 0 0 0-10.647-20.39z" transform="matrix(.23405 0 0 .23405 -17.49 281.641)" opacity=".15" fill="url(#b)"/></g></svg>