<svg xmlns="http://www.w3.org/2000/svg" width="64" height="64" viewBox="0 0 16.933 16.933"><path fill="#87a556" d="M8.38 1.323a7.144 7.144 0 1 1 0 14.287 7.144 7.144 0 0 1 0-14.287"/><path fill="#fff" d="M9.525 4.233v2.54l2.117-1.27zm-.847.424A3.81 3.81 0 0 0 5.12 7.108l.372.223A3.39 3.39 0 0 1 8.678 5.08a3 3 0 0 1 .424.03v-.425a4 4 0 0 0-.424-.028m0 1.27a2.54 2.54 0 0 0-2.444 1.85l.38.227A2.12 2.12 0 0 1 8.679 6.35a2 2 0 0 1 .424.043v-.43a2.5 2.5 0 0 0-.424-.036zm2.921.095-.37.223a3.4 3.4 0 0 1 .836 2.222 3.4 3.4 0 0 1-.834 2.223l.366.22a3.8 3.8 0 0 0 .891-2.443 3.8 3.8 0 0 0-.889-2.445m-1.11.666-.376.226a2.12 2.12 0 0 1 .682 1.553 2.12 2.12 0 0 1-.681 1.552l.376.227a2.54 2.54 0 0 0 .728-1.78 2.54 2.54 0 0 0-.729-1.778m-6.044.509v2.54l2.117-1.27zm2.17 1.731-.38.227a2.54 2.54 0 0 0 2.443 1.852 2.5 2.5 0 0 0 .424-.038v-.43a2 2 0 0 1-.424.044 2.12 2.12 0 0 1-2.063-1.655m-1.124.675-.368.22a3.81 3.81 0 0 0 3.555 2.454 4 4 0 0 0 .424-.026v-.428a3 3 0 0 1-.424.03 3.39 3.39 0 0 1-3.187-2.25m4.034.557v2.54l2.117-1.27z"/></svg>