<svg width="64" height="64" version="1.1" viewBox="0 0 16.933 16.933" xmlns="http://www.w3.org/2000/svg" xmlns:xlink="http://www.w3.org/1999/xlink">
 <defs>
  <linearGradient id="b" x1="45.628" x2="45.628" y1="57.955" y2="12.461" gradientTransform="matrix(.26458 0 0 .26458 0 280.07)" gradientUnits="userSpaceOnUse">
   <stop offset="0"/>
   <stop stop-opacity="0" offset="1"/>
  </linearGradient>
 </defs>
 <g transform="matrix(1.0385 0 0 1.0385 -.41232 -.32567)" stroke-width=".92729">
  <path d="m8.467 1.588a6.879 6.879 0 1 1 0 13.757 6.879 6.879 0 0 1 0-13.757z" fill="#1a87e2"/>
  <path transform="translate(0 -280.07)" d="m12.997 283.36a10.716 10.716 0 0 1 0.497 3.185 10.716 10.716 0 0 1-4.695 8.852 6.88 6.88 0 0 0 6.547-6.868 6.88 6.88 0 0 0-2.349-5.17z" fill="url(#b)" opacity=".25" style="paint-order:stroke markers fill"/>
 </g>
 <path d="M8.467 4.233a4.233 4.233 0 1 0 0 8.467 4.233 4.233 0 0 0 0-8.467zm-.257.85c.02.002.037.014.046.032l.418.879c.203.006.408.041.607.105l.671-.671a.056.056 0 0 1 .07-.008l.534.325a.057.057 0 0 1 .024.068l-.324.914c.122.136.226.285.31.444h.997c.027 0 .05.019.056.044l.148.608a.057.057 0 0 1-.03.065l-1.25.273a2.044 2.044 0 0 0-2.67-1.631l-.01-.006-.268-1.236c0-.026.019-.049.044-.055l.607-.148c.007-.002.013-.002.02-.002zm-1.98.894a.056.056 0 0 1 .037.01l.95.865a2.038 2.038 0 0 0-.137 3.113v.014l-.854.943a.058.058 0 0 1-.07-.008l-.442-.441a.057.057 0 0 1-.007-.072l.534-.814a2.21 2.21 0 0 1-.227-.573l-.922-.226a.057.057 0 0 1-.043-.055v-.625c0-.027.019-.05.045-.056l.95-.198c.053-.175.127-.342.218-.496l-.517-.852a.057.057 0 0 1 .008-.07l.442-.442a.055.055 0 0 1 .035-.017zm4.232 2.93l1.24.278c.022.012.034.04.027.065l-.162.603a.057.057 0 0 1-.059.043l-.972-.057a2.21 2.21 0 0 1-.383.483l.265.911a.057.057 0 0 1-.026.065l-.542.312a.057.057 0 0 1-.071-.011l-.646-.725c-.178.042-.359.062-.538.06l-.48.873a.057.057 0 0 1-.065.028l-.604-.163a.057.057 0 0 1-.042-.058l.326-1.235.006-.003a2.044 2.044 0 0 0 2.726-1.468z" fill="#fff"/>
</svg>
