<svg width="64" height="64" version="1.1" viewBox="0 0 16.933 16.933" xmlns="http://www.w3.org/2000/svg" xmlns:xlink="http://www.w3.org/1999/xlink">
 <defs>
  <linearGradient id="b" x1="45" x2="45" y1="58" y2="14" gradientUnits="userSpaceOnUse">
   <stop offset="0"/>
   <stop stop-opacity="0" offset="1"/>
  </linearGradient>
 </defs>
 <g transform="matrix(1.2272 0 0 1.2266 20.757 -346.41)" stroke-width=".88136">
  <circle cx="-10.015" cy="289.32" r="5.821" fill="#4c5263"/>
  <path d="m-4.331 290.52c-0.85 1.145-2.418 1.757-4.286 2.029-1.95 0.283-4.21 0.199-6.226 0.027 0.096 0.144 0.202 0.284 0.311 0.419 1.942 0.154 3.964 0.755 5.854 0.48 1.577-0.23 3.119-1.232 4.096-2.096a5.61 5.61 0 0 0 0.25-0.86z" color="#000000" fill="#fff" fill-rule="evenodd" font-weight="400" overflow="visible" solid-color="#000000" style="isolation:auto;mix-blend-mode:normal;text-decoration-color:#000000;text-decoration-line:none;text-decoration-style:solid;text-indent:0;text-transform:none;white-space:normal"/>
  <path d="m-8.561 292.94c-1.976 0.279-3.988 0.21-5.97 0.058 1.275 1.627 3.493 2.447 5.54 2.052 1.978-0.34 3.71-1.788 4.408-3.666-1.174 0.833-2.56 1.338-3.978 1.556z" fill="#5294e2"/>
  <path transform="matrix(.23405 0 0 .23405 -17.49 281.64)" d="M 46.154,12.432 A 35.5,35.5 0 0 1 50,28.5 35.5,35.5 0 0 1 34.932,57.479 24.87,24.87 0 0 0 56.8,32.822 24.87,24.87 0 0 0 46.153,12.432 Z" fill="url(#b)" opacity=".15"/>
 </g>
 <path d="m5.4313 0.10655c-0.84976 3.4692-3.2964 7.7349-4.8361 10.457 2.6844 0.64576 5.6638 0.83417 7.9727 1.0447-0.040279-0.52363-0.42878-6.2212-0.52363-7.3191-0.94981-1.7216-1.7216-2.6116-2.6129-4.1825zm3.2665 4.4437c1.2603 2.5948 1.2603 5.1622 0.52363 7.0579 1.0395 0.0065 2.7351 0.12214 4.5736-0.78479-1.5111-3.451-5.0972-6.2731-5.0972-6.2731zm2.4843 1.5696c0.78089 0.52363 1.5267 1.0005 2.0906 1.567 0.764 0.7666 1.1551 1.8022 1.046 2.8767 1.0239-0.51583 1.7021-1.3734 2.0919-2.0919-0.68214-0.62757-1.8645-1.2474-3.1379-1.6982-0.70164-0.24947-1.4422-0.47555-2.0919-0.65356z" fill="#fff" fill-rule="evenodd" stroke-width="1.0887"/>
</svg>
