<svg xmlns="http://www.w3.org/2000/svg" width="64" height="64" viewBox="0 0 16.933 16.933"><path fill="#0087ed" d="M8.38 1.323a7.144 7.144 0 1 1 0 14.287 7.144 7.144 0 0 1 0-14.287"/><path fill="#fff" d="M7.648 4.154a13 13 0 0 0-.776.517q-.465.327-.989.852-.456.456-.639.897-.175.45-.121.883t.296.844a4.3 4.3 0 0 0 .654.821l2.221 2.22.708-.706-2.07-2.07q-.721-.721-.805-1.262-.084-.54.456-1.08.114-.114.243-.228l.244-.213a5 5 0 0 0 .213-.167 1 1 0 0 1 .16-.099l4.55 4.55.707-.707zM7.428 6.4l-.708.708 3.34 3.338a1 1 0 0 1-.1.16 5 5 0 0 0-.167.213l-.213.243a5 5 0 0 1-.228.244q-.54.54-1.08.456t-1.263-.806L4.941 8.888l-.708.708 2.221 2.22a4.3 4.3 0 0 0 .822.654q.41.245.844.297.434.054.882-.122.441-.182.897-.638.525-.525.852-.99.335-.47.517-.775z"/></svg>