<?xml version="1.0" encoding="UTF-8" standalone="no"?>
<!-- Created with Inkscape (http://www.inkscape.org/) -->

<svg
   xmlns:dc="http://purl.org/dc/elements/1.1/"
   xmlns:cc="http://creativecommons.org/ns#"
   xmlns:rdf="http://www.w3.org/1999/02/22-rdf-syntax-ns#"
   xmlns:svg="http://www.w3.org/2000/svg"
   xmlns="http://www.w3.org/2000/svg"
   xmlns:xlink="http://www.w3.org/1999/xlink"
   xmlns:sodipodi="http://sodipodi.sourceforge.net/DTD/sodipodi-0.dtd"
   xmlns:inkscape="http://www.inkscape.org/namespaces/inkscape"
   width="64"
   height="64"
   viewBox="0 0 16.933333 16.933333"
   version="1.1"
   id="svg4572"
   inkscape:version="0.92.3 (2405546, 2018-03-11)"
   sodipodi:docname="distributor-logo-ubuntu.svg">
  <title
     id="title4611">Canvas icon theme</title>
  <defs
     id="defs4566">
    <linearGradient
       gradientTransform="matrix(0.26458333,0,0,0.26458333,-4.6124265e-8,280.06667)"
       inkscape:collect="always"
       xlink:href="#linearGradient856"
       id="linearGradient858"
       x1="45.62793"
       y1="57.955078"
       x2="45.62793"
       y2="12.460938"
       gradientUnits="userSpaceOnUse" />
    <linearGradient
       inkscape:collect="always"
       id="linearGradient856">
      <stop
         style="stop-color:#000000;stop-opacity:1;"
         offset="0"
         id="stop852" />
      <stop
         style="stop-color:#000000;stop-opacity:0;"
         offset="1"
         id="stop854" />
    </linearGradient>
  </defs>
  <sodipodi:namedview
     id="base"
     pagecolor="#ffffff"
     bordercolor="#666666"
     borderopacity="1.0"
     inkscape:pageopacity="0.0"
     inkscape:pageshadow="2"
     inkscape:zoom="5.6"
     inkscape:cx="23.83614"
     inkscape:cy="32.288983"
     inkscape:document-units="px"
     inkscape:current-layer="layer1"
     showgrid="true"
     units="px"
     width="64px"
     showguides="true"
     inkscape:guide-bbox="true"
     inkscape:window-width="652"
     inkscape:window-height="468"
     inkscape:window-x="505"
     inkscape:window-y="248"
     inkscape:window-maximized="0"
     inkscape:snap-bbox="true"
     inkscape:bbox-nodes="true"
     inkscape:snap-bbox-edge-midpoints="true">
    <inkscape:grid
       type="xygrid"
       id="grid4582" />
    <sodipodi:guide
       position="1.0583333,15.875"
       orientation="0,1"
       id="guide4584"
       inkscape:locked="false" />
    <sodipodi:guide
       position="1.0583333,1.0583333"
       orientation="1,0"
       id="guide4586"
       inkscape:locked="false" />
    <sodipodi:guide
       position="15.875,15.875"
       orientation="1,0"
       id="guide4588"
       inkscape:locked="false" />
    <sodipodi:guide
       position="1.0583333,1.0583333"
       orientation="0,1"
       id="guide4590"
       inkscape:locked="false" />
    <sodipodi:guide
       position="8.4666665,15.345833"
       orientation="1,0"
       id="guide826"
       inkscape:locked="false" />
    <sodipodi:guide
       position="1.5875,8.4666665"
       orientation="0,1"
       id="guide828"
       inkscape:locked="false" />
  </sodipodi:namedview>
  <metadata
     id="metadata4569">
    <rdf:RDF>
      <cc:Work
         rdf:about="">
        <dc:format>image/svg+xml</dc:format>
        <dc:type
           rdf:resource="http://purl.org/dc/dcmitype/StillImage" />
        <dc:title>Canvas icon theme</dc:title>
        <cc:license
           rdf:resource="http://creativecommons.org/licenses/by-nc-sa/4.0/" />
        <dc:creator>
          <cc:Agent>
            <dc:title>Vince Liuice</dc:title>
          </cc:Agent>
        </dc:creator>
      </cc:Work>
      <cc:License
         rdf:about="http://creativecommons.org/licenses/by-nc-sa/4.0/">
        <cc:permits
           rdf:resource="http://creativecommons.org/ns#Reproduction" />
        <cc:permits
           rdf:resource="http://creativecommons.org/ns#Distribution" />
        <cc:requires
           rdf:resource="http://creativecommons.org/ns#Notice" />
        <cc:requires
           rdf:resource="http://creativecommons.org/ns#Attribution" />
        <cc:prohibits
           rdf:resource="http://creativecommons.org/ns#CommercialUse" />
        <cc:permits
           rdf:resource="http://creativecommons.org/ns#DerivativeWorks" />
        <cc:requires
           rdf:resource="http://creativecommons.org/ns#ShareAlike" />
      </cc:License>
    </rdf:RDF>
  </metadata>
  <g
     inkscape:label="Layer 1"
     inkscape:groupmode="layer"
     id="layer1"
     transform="translate(0,-280.06667)">
    <g
       transform="matrix(0.26458333,0,0,0.26458333,0,284.3)"
       id="g15" />
    <g
       transform="matrix(0.26458333,0,0,0.26458333,1.3229166,282.97709)"
       id="g19"
       style="fill:#f63f33;fill-opacity:1">
      <path
         inkscape:connector-curvature="0"
         d="M 27,-4.9999996 C 41.359913,-4.9999996 53,6.6400872 53,21 53,35.359913 41.359913,47 27,47 12.640087,47 1,35.359913 1,21 1,6.6400872 12.640087,-4.9999996 27,-4.9999996 Z"
         style="fill:#f63f33;fill-opacity:1;stroke-width:1.13043475"
         id="path17" />
    </g>
    <g
       transform="matrix(0.26458333,0,0,0.26458333,0,284.3)"
       id="g31">
      <g
         id="g29">
        <g
           transform="translate(1,1)"
           id="g27">
          <g
             style="opacity:0.1"
             id="g25">
            <!-- color: #35bf5c -->
            <g
               id="g23" />
          </g>
        </g>
      </g>
    </g>
    <g
       transform="matrix(0.26458333,0,0,0.26458333,0,284.3)"
       id="g43" />
    <path
       inkscape:connector-curvature="0"
       style="opacity:0.25;fill:url(#linearGradient858);fill-opacity:1;stroke:none;stroke-width:0.49136904;stroke-miterlimit:4;stroke-dasharray:none;stroke-opacity:0.03821656;paint-order:stroke markers fill"
       d="m 12.997139,283.36363 a 10.715625,10.715625 0 0 1 0.496611,3.18534 10.715625,10.715625 0 0 1 -4.6948041,8.85165 6.8791665,6.8791665 0 0 0 6.5468871,-6.86728 6.8791665,6.8791665 0 0 0 -2.348694,-5.16971 z"
       id="circle839" />
    <g
       transform="matrix(0.20497516,0,0,0.20497516,2.2016536,284.74474)"
       id="g33"
       style="stroke-width:1.29080677" />
    <path
       style="fill:#ffffff;fill-opacity:1;stroke-width:0.26458332"
       d="m 8.4666653,284.3 c -2.3380328,0 -4.2333334,1.8953 -4.2333334,4.23334 0,2.33794 1.8953006,4.23333 4.2333334,4.23333 2.3380307,0 4.2333357,-1.89539 4.2333357,-4.23333 0,-2.33804 -1.895305,-4.23334 -4.2333357,-4.23334 z m 1.5089558,1.17926 c 0.07284,0.009 0.1453179,0.0323 0.2129059,0.0713 0.27034,0.15615 0.362857,0.5017 0.206705,0.77204 -0.155962,0.27035 -0.5016949,0.36286 -0.7720469,0.2067 -0.27015,-0.15596 -0.362671,-0.50188 -0.206704,-0.77204 0.117114,-0.20276 0.340596,-0.30508 0.55914,-0.27802 z m -1.5089558,0.59841 c 0.2272941,0 0.4474248,0.0312 0.6562948,0.0889 0.03684,0.22712 0.171648,0.43717 0.386539,0.56122 0.214523,0.12367 0.462076,0.13594 0.6769599,0.0548 0.417925,0.41104 0.690092,0.97008 0.729672,1.59267 l -0.805118,0.0114 c -0.07426,-0.8433 -0.7818839,-1.50482 -1.6443477,-1.50482 -0.2484568,0 -0.4843261,0.0557 -0.6955635,0.15399 L 7.3783613,286.332 c 0.3279516,-0.16235 0.6975625,-0.25426 1.088304,-0.25426 z m -1.3621899,0.41238 0.413412,0.69246 c -0.424487,0.29878 -0.7017656,0.79226 -0.7017656,1.35083 0,0.55856 0.2772786,1.05221 0.7017656,1.35082 l -0.413412,0.69143 c -0.4947124,-0.33054 -0.8622392,-0.83554 -1.0149261,-1.4273 0.1783995,-0.14557 0.2924911,-0.36665 0.2924911,-0.61495 0,-0.24846 -0.1140916,-0.47041 -0.2924911,-0.61598 0.1528568,-0.59156 0.5203926,-1.09676 1.0149261,-1.42731 z M 5.5882899,287.968 c 0.3121177,0 0.5653395,0.25304 0.5653395,0.56534 0,0.31215 -0.2532218,0.56533 -0.5653395,0.56533 -0.3123039,0 -0.5653413,-0.25318 -0.5653413,-0.56533 0,-0.3123 0.2530374,-0.56534 0.5653413,-0.56534 z m 4.5227231,0.71107 0.805118,0.0124 c -0.03958,0.62259 -0.311747,1.18168 -0.729672,1.59267 -0.2148839,-0.0812 -0.4622569,-0.0691 -0.6769599,0.0548 -0.214891,0.12423 -0.349712,0.33306 -0.386539,0.56017 -0.20887,0.0579 -0.4290007,0.0899 -0.6562948,0.0899 -0.3907011,0 -0.7603175,-0.0917 -1.088304,-0.25425 l 0.3927405,-0.70383 c 0.2112374,0.0983 0.4471067,0.15296 0.6955635,0.15296 0.8624388,10e-6 1.5702787,-0.66133 1.6443477,-1.50481 z M 9.8360911,290.465 c 0.2185109,-0.027 0.4421599,0.0764 0.5591409,0.27905 0.156141,0.27035 0.06364,0.61505 -0.206705,0.77102 -0.2703419,0.15614 -0.6160689,0.0637 -0.7720459,-0.2067 -0.156143,-0.27017 -0.06363,-0.61591 0.206704,-0.77205 0.06754,-0.039 0.140072,-0.0623 0.212906,-0.0713 z"
       id="path24"
       inkscape:connector-curvature="0" />
  </g>
</svg>
