<svg width="64" height="64" version="1.1" viewBox="0 0 16.933 16.933" xmlns="http://www.w3.org/2000/svg">
 <defs>
  <linearGradient id="a" x1="45.628" x2="45.628" y1="57.955" y2="12.461" gradientTransform="matrix(.26458 0 0 .26458 0 280.07)" gradientUnits="userSpaceOnUse">
   <stop offset="0"/>
   <stop stop-opacity="0" offset="1"/>
  </linearGradient>
 </defs>
 <g transform="matrix(1.0385 0 0 1.0385 -.32619 -.32516)" stroke-width=".92729">
  <path d="m8.467 1.587a6.879 6.879 0 1 1 0 13.758 6.879 6.879 0 0 1 0-13.758z" fill="#f2f2f2"/>
  <path transform="translate(0,-280.07)" d="m12.997 283.36a10.716 10.716 0 0 1 0.497 3.185 10.716 10.716 0 0 1-4.695 8.852 6.88 6.88 0 0 0 6.547-6.867 6.88 6.88 0 0 0-2.349-5.17z" fill="url(#a)" opacity=".25" style="paint-order:stroke markers fill"/>
 </g>
 <path d="M8.466 4.343l-.94.941h.676v2.162l.264.265.265-.265V5.284h.676z" fill="#efa724"/>
 <path d="M11.641 7.518v.677H9.48l-.265.264.265.265h2.162V9.4l.941-.94" fill="#262577"/>
 <path d="M8.466 9.207l-.264.265v2.162h-.677l.941.941.941-.94h-.676V9.471" fill="#9ccd2a"/>
 <path d="M5.291 7.518l-.94.941.94.941v-.676h2.162l.265-.265-.265-.264H5.291" fill="#932279"/>
 <path d="M8.995 8.989v.374l1.529 1.529-.478.478h1.33v-1.331l-.477.478-1.53-1.528zm.749 0l1.155 1.154.478-.478v-.677H9.744zm-.749.748v1.633h.677l.478-.478-1.154-1.155z" fill="#efa724"/>
 <path d="M5.556 8.989v.676l.478.478L7.189 8.99H5.556zm2.007 0l-1.53 1.528-.477-.478v1.33h1.33l-.477-.477 1.528-1.53V8.99zm.374.748l-1.154 1.155.478.478h.676V9.737z" fill="#262577"/>
 <path d="M8.995 5.549v1.633l1.155-1.155-.478-.478h-.677zm1.051 0l.478.478-1.528 1.529v.374h.374l1.529-1.528.478.478V5.549zm.853 1.227L9.744 7.93h1.633v-.676l-.478-.479z" fill="#932279"/>
 <path d="M5.556 5.549v1.33l.478-.477L7.563 7.93h.374v-.374L6.41 6.027l.478-.478zm1.705 0l-.479.478 1.155 1.155V5.549H7.26zM6.034 6.776l-.478.478v.676h1.633L6.034 6.776z" fill="#9ccd2a"/>
</svg>
