<?xml version="1.0" encoding="UTF-8" standalone="no"?>
<!-- Created with Inkscape (http://www.inkscape.org/) -->

<svg
   xmlns:dc="http://purl.org/dc/elements/1.1/"
   xmlns:cc="http://creativecommons.org/ns#"
   xmlns:rdf="http://www.w3.org/1999/02/22-rdf-syntax-ns#"
   xmlns:svg="http://www.w3.org/2000/svg"
   xmlns="http://www.w3.org/2000/svg"
   xmlns:xlink="http://www.w3.org/1999/xlink"
   xmlns:sodipodi="http://sodipodi.sourceforge.net/DTD/sodipodi-0.dtd"
   xmlns:inkscape="http://www.inkscape.org/namespaces/inkscape"
   width="64"
   height="64"
   viewBox="0 0 16.933333 16.933333"
   version="1.1"
   id="svg4572"
   inkscape:version="0.92.2 2405546, 2018-03-11"
   sodipodi:docname="distributor-logo-xubuntu.svg">
  <title
     id="title4611">Canvas icon theme</title>
  <defs
     id="defs4566">
    <linearGradient
       gradientTransform="matrix(0.26458333,0,0,0.26458333,-4.6124265e-8,280.06667)"
       inkscape:collect="always"
       xlink:href="#linearGradient856"
       id="linearGradient858"
       x1="45.62793"
       y1="57.955078"
       x2="45.62793"
       y2="12.460938"
       gradientUnits="userSpaceOnUse" />
    <linearGradient
       inkscape:collect="always"
       id="linearGradient856">
      <stop
         style="stop-color:#000000;stop-opacity:1;"
         offset="0"
         id="stop852" />
      <stop
         style="stop-color:#000000;stop-opacity:0;"
         offset="1"
         id="stop854" />
    </linearGradient>
  </defs>
  <sodipodi:namedview
     id="base"
     pagecolor="#ffffff"
     bordercolor="#666666"
     borderopacity="1.0"
     inkscape:pageopacity="0.0"
     inkscape:pageshadow="2"
     inkscape:zoom="1.979899"
     inkscape:cx="-184.88355"
     inkscape:cy="63.967827"
     inkscape:document-units="px"
     inkscape:current-layer="layer1"
     showgrid="true"
     units="px"
     width="64px"
     showguides="true"
     inkscape:guide-bbox="true"
     inkscape:window-width="732"
     inkscape:window-height="470"
     inkscape:window-x="1130"
     inkscape:window-y="584"
     inkscape:window-maximized="0"
     inkscape:snap-bbox="true"
     inkscape:bbox-nodes="true"
     inkscape:snap-bbox-edge-midpoints="true">
    <inkscape:grid
       type="xygrid"
       id="grid4582" />
    <sodipodi:guide
       position="1.0583333,15.875"
       orientation="0,1"
       id="guide4584"
       inkscape:locked="false" />
    <sodipodi:guide
       position="1.0583333,1.0583333"
       orientation="1,0"
       id="guide4586"
       inkscape:locked="false" />
    <sodipodi:guide
       position="15.875,15.875"
       orientation="1,0"
       id="guide4588"
       inkscape:locked="false" />
    <sodipodi:guide
       position="1.0583333,1.0583333"
       orientation="0,1"
       id="guide4590"
       inkscape:locked="false" />
    <sodipodi:guide
       position="8.4666665,15.345833"
       orientation="1,0"
       id="guide826"
       inkscape:locked="false" />
    <sodipodi:guide
       position="1.5875,8.4666665"
       orientation="0,1"
       id="guide828"
       inkscape:locked="false" />
  </sodipodi:namedview>
  <metadata
     id="metadata4569">
    <rdf:RDF>
      <cc:Work
         rdf:about="">
        <dc:format>image/svg+xml</dc:format>
        <dc:type
           rdf:resource="http://purl.org/dc/dcmitype/StillImage" />
        <dc:title>Canvas icon theme</dc:title>
        <cc:license
           rdf:resource="http://creativecommons.org/licenses/by-nc-sa/4.0/" />
        <dc:creator>
          <cc:Agent>
            <dc:title>Vince Liuice</dc:title>
          </cc:Agent>
        </dc:creator>
      </cc:Work>
      <cc:License
         rdf:about="http://creativecommons.org/licenses/by-nc-sa/4.0/">
        <cc:permits
           rdf:resource="http://creativecommons.org/ns#Reproduction" />
        <cc:permits
           rdf:resource="http://creativecommons.org/ns#Distribution" />
        <cc:requires
           rdf:resource="http://creativecommons.org/ns#Notice" />
        <cc:requires
           rdf:resource="http://creativecommons.org/ns#Attribution" />
        <cc:prohibits
           rdf:resource="http://creativecommons.org/ns#CommercialUse" />
        <cc:permits
           rdf:resource="http://creativecommons.org/ns#DerivativeWorks" />
        <cc:requires
           rdf:resource="http://creativecommons.org/ns#ShareAlike" />
      </cc:License>
    </rdf:RDF>
  </metadata>
  <g
     inkscape:label="Layer 1"
     inkscape:groupmode="layer"
     id="layer1"
     transform="translate(0,-280.06667)">
    <g
       transform="matrix(0.26458333,0,0,0.26458333,0,284.3)"
       id="g15" />
    <g
       transform="matrix(0.26458333,0,0,0.26458333,1.3229166,282.97709)"
       id="g19"
       style="fill:#1d89db;fill-opacity:1">
      <path
         inkscape:connector-curvature="0"
         d="M 27,-4.9999996 C 41.359913,-4.9999996 53,6.6400872 53,21 53,35.359913 41.359913,47 27,47 12.640087,47 1,35.359913 1,21 1,6.6400872 12.640087,-4.9999996 27,-4.9999996 Z"
         style="fill:#0044aa;fill-opacity:1;stroke-width:1.13043475"
         id="path17" />
    </g>
    <g
       transform="matrix(0.26458333,0,0,0.26458333,0,284.3)"
       id="g31">
      <g
         id="g29">
        <g
           transform="translate(1,1)"
           id="g27">
          <g
             style="opacity:0.1"
             id="g25">
            <!-- color: #35bf5c -->
            <g
               id="g23" />
          </g>
        </g>
      </g>
    </g>
    <g
       transform="matrix(0.26458333,0,0,0.26458333,0,284.3)"
       id="g43" />
    <path
       inkscape:connector-curvature="0"
       style="opacity:0.25;fill:url(#linearGradient858);fill-opacity:1;stroke:none;stroke-width:0.49136904;stroke-miterlimit:4;stroke-dasharray:none;stroke-opacity:0.03821656;paint-order:stroke markers fill"
       d="m 12.997139,283.36363 a 10.715625,10.715625 0 0 1 0.496611,3.18534 10.715625,10.715625 0 0 1 -4.6948041,8.85165 6.8791665,6.8791665 0 0 0 6.5468871,-6.86728 6.8791665,6.8791665 0 0 0 -2.348694,-5.16971 z"
       id="circle839" />
    <g
       transform="matrix(0.20497516,0,0,0.20497516,2.2016536,284.74474)"
       id="g33"
       style="stroke-width:1.29080677" />
    <g
       style="display:inline;enable-background:new"
       inkscape:export-ydpi="92.220436"
       inkscape:export-xdpi="92.220436"
       inkscape:export-filename="/ssh/nebula/public_html/temp/xubuntu/precise_logo/logo_bigsizes.png"
       transform="matrix(0.3396342,0,0,0.3396342,-110.31715,155.10512)"
       id="g4519">
      <g
         id="g4521"
         transform="translate(0.44642857,-0.04464286)">
        <path
           d="m 355.83984,380.40234 c -0.0604,0.037 -0.0851,0.0689 -0.0703,0.0449 -0.6791,1.14846 -0.68514,2.65218 -0.99219,4.00195 a 0.4982215,0.4982215 0 0 1 0,0.0703 c -0.1505,1.47805 -0.63371,2.98202 -0.24609,4.40039 a 0.4982215,0.4982215 0 0 1 0.0391,0.0899 c 0.0721,0.0932 0.16294,0.17837 0.2168,0.18945 0.0403,0.008 0.10045,-0.0102 0.24023,-0.10742 0.15127,-0.1053 0.24855,-0.2987 0.29297,-0.57618 a 0.4982215,0.4982215 0 0 1 0.0859,-0.20898 c 0.60561,-2.40329 1.03769,-4.92777 0.87695,-7.39844 a 0.4982215,0.4982215 0 0 1 0,-0.0254 c -0.021,-0.11401 -0.0566,-0.18236 -0.16601,-0.31445 -0.0753,-0.0907 -0.12141,-0.13888 -0.14063,-0.15234 -0.0192,-0.0135 -0.003,-0.0158 -0.0723,-0.0117 a 0.4982215,0.4982215 0 0 1 -0.0645,-0.002 z"
           id="path4523"
           style="fill:#ffffff;fill-opacity:1;stroke:none"
           inkscape:original="M 355.71875 379.90625 C 355.68125 379.91125 355.65195 379.93505 355.59375 379.96875 C 355.47738 380.03605 355.39105 380.1111 355.34375 380.1875 C 354.55632 381.51387 354.58195 383.13517 354.28125 384.40625 A 0.41364053 0.41365909 0 0 0 354.28125 384.46875 C 354.13756 385.87984 353.5878 387.50263 354.0625 389.125 A 0.41364053 0.41365909 0 0 0 354.09375 389.15625 A 0.41364053 0.41365909 0 0 0 354.09375 389.21875 C 354.22466 389.44765 354.44007 389.6366 354.6875 389.6875 C 354.93495 389.7377 355.14523 389.6164 355.3125 389.5 C 355.61157 389.29182 355.7553 388.95103 355.8125 388.59375 L 355.875 388.59375 L 355.875 388.5 C 356.49625 386.05054 356.94871 383.449 356.78125 380.875 A 0.41364053 0.41365909 0 0 0 356.78125 380.8125 C 356.74305 380.58377 356.63856 380.41727 356.5 380.25 C 356.36183 380.08363 356.21445 379.88625 355.875 379.90625 A 0.41364053 0.41365909 0 0 0 355.8125 379.90625 C 355.7934 379.90825 355.75625 379.90125 355.71875 379.90625 z "
           inkscape:radius="-0.49817169"
           sodipodi:type="inkscape:offset" />
        <path
           transform="translate(-0.49107143,-0.26785714)"
           d="m 361.90234,381.83789 a 0.46681363,0.46681363 0 0 1 -0.0508,0.004 c -1.04198,0.5071 -1.57789,1.73208 -2.29883,2.71679 a 0.46681363,0.46681363 0 0 1 -0.0527,0.13868 c -0.90784,1.60892 -2.06389,3.20366 -2.18555,5.06445 0.006,0.29418 0.17347,0.46224 0.34766,0.5 0.16423,0.0345 0.4648,-0.0716 0.58789,-0.25586 0.0107,-0.0266 0.002,-0.0534 0.0176,-0.0762 a 0.46681363,0.46681363 0 0 1 0.0117,-0.0176 c 1.64599,-2.26173 2.89002,-4.94442 3.91211,-7.55078 a 0.46681363,0.46681363 0 0 1 0.002,-0.008 c 0.0707,-0.17114 0.0746,-0.23837 0.0117,-0.36719 -0.0185,-0.0381 -0.20261,-0.1609 -0.30274,-0.14844 z"
           id="path4525"
           style="fill:#ffffff;fill-opacity:1;stroke:none"
           inkscape:original="M 361.71875 381.375 C 360.36735 381.97973 359.80389 383.48371 359.09375 384.40625 A 0.35934087 0.35935699 0 0 0 359.09375 384.46875 C 358.2047 386.04438 356.96957 387.70963 356.84375 389.75 C 356.84375 390.25018 357.15979 390.63145 357.5625 390.71875 C 357.94157 390.80055 358.42044 390.62675 358.65625 390.25 C 358.67445 390.23 358.64175 390.2093 358.65625 390.1875 C 360.33963 387.8744 361.59578 385.15579 362.625 382.53125 C 362.72864 382.28034 362.74863 382.0347 362.625 381.78125 C 362.50136 381.52707 362.16517 381.335 361.84375 381.375 A 0.35934087 0.35935699 0 0 0 361.78125 381.375 L 361.71875 381.375 z "
           inkscape:radius="-0.46676695"
           sodipodi:type="inkscape:offset" />
      </g>
      <path
         inkscape:connector-curvature="0"
         style="fill:#ffffff;fill-opacity:1;stroke:none"
         d="m 345.66985,382.2774 c -0.16726,0.0311 -0.4161,0.1809 -0.59375,0.25 -0.62832,0.23837 -0.975,0.77698 -1.125,1.40625 -0.15274,0.64382 -0.10183,1.36084 0,2.09375 0.10181,0.73145 0.24752,1.48649 0.40625,2.0625 0.13645,0.49836 0.23415,0.7408 0.28125,0.90625 v 0.125 c 0,0.0545 -0.0261,0.05 -0.0625,0.0937 -0.02,0.0109 0.02,0.0625 0,0.0625 -0.0453,0.0346 -0.0999,0.0625 -0.15625,0.0625 -0.11101,0.007 -0.19778,-0.0334 -0.3125,-0.0625 -0.0782,-0.0181 -0.17995,-0.0807 -0.15625,-0.0625 -0.0363,-0.0218 -0.1013,-0.0243 -0.125,-0.0625 0,0.0146 0.0219,0.0143 0,-0.0312 -0.0254,-0.0473 -0.0537,-0.1664 -0.0937,-0.25 -0.0891,-0.18946 -0.15908,-0.40895 -0.28125,-0.6875 -0.24381,-0.55472 -0.55754,-1.23609 -0.90625,-1.875 -0.34999,-0.64145 -0.76223,-1.22354 -1.21875,-1.625 -0.22817,-0.20054 -0.50982,-0.40155 -0.78125,-0.46875 -0.26199,-0.0655 -0.57287,-0.01 -0.84375,0.125 -0.69997,0.38836 -1.09619,1.02422 -1.25,1.6875 -0.15456,0.67346 -0.0815,1.44899 0.0312,2.125 0.11454,0.67454 0.29189,1.23077 0.40625,1.6875 0.049,0.19254 0.1087,0.37235 0.125,0.46875 0,0.0955 -0.0389,0.3448 -0.0625,0.4375 -0.11818,0.40928 -0.40559,1.09375 -0.40625,1.09375 0,0 -5.45294,14.48293 6.25,13.46875 0.0964,-0.007 0.31535,-0.0625 0.40625,-0.0625 2.29827,-0.46272 4.47308,-1.15769 6.40625,-1.9375 0.3798,-0.182 0.87805,-0.36282 1.4375,-0.625 1.11885,-0.52418 2.52451,-1.19587 3.875,-1.9375 1.35103,-0.74219 2.60454,-1.533 3.5625,-2.375 0.9596,-0.84327 1.65997,-1.76731 1.53125,-2.6875 -0.20364,-1.48345 -1.18879,-2.58587 -2.5,-3.4375 -1.31613,-0.85473 -2.95728,-1.44464 -4.59375,-1.875 -1.63576,-0.43018 -3.2241,-0.78002 -4.4375,-0.96875 -0.60652,-0.0945 -1.1749,-0.122 -1.53125,-0.1875 -0.10544,-0.0181 -0.16175,-0.0443 -0.21875,-0.0625 -0.0307,-0.004 -0.0334,-0.0131 -0.0625,-0.0312 -0.0363,-0.0218 -0.1031,-0.0243 -0.125,-0.0625 -0.02,-0.0363 0,-0.0832 0,-0.125 0,-0.0163 -1.7e-4,-0.0407 0,-0.0625 v -0.90625 c -0.02,-0.748 -0.064,-1.73553 -0.21875,-2.65625 -0.15637,-0.92455 -0.39754,-1.80879 -0.90625,-2.40625 -0.30235,-0.35545 -0.73038,-0.5887 -1.25,-0.625 -0.15636,-0.0182 -0.3311,-0.0309 -0.5,0 z"
         id="path4527" />
    </g>
  </g>
</svg>
