<svg width="64" height="64" version="1.1" xmlns="http://www.w3.org/2000/svg">
 <circle cx="32" cy="32" r="27" fill="#17b5f9" stroke-linecap="square" stroke-width=".98182" style="paint-order:markers stroke fill"/>
 <g transform="matrix(.64286 0 0 .64286 11.429 11.429)" fill="#fff">
  <path d="m19.154 60c-1.7108 0-3.8095-1.2266-4.6638-2.7258l-12.85-22.548c-0.85427-1.4992-0.85427-3.9523 0-5.4515l12.85-22.548c0.85427-1.4992 2.953-2.7258 4.6638-2.7258h25.692c1.7108 0 3.8095 1.2266 4.6637 2.7258l12.85 22.548c0.85427 1.4992 0.85427 3.9523 0 5.4515l-12.85 22.548c-0.85415 1.4992-2.9529 2.7258-4.6637 2.7258z" opacity=".35"/>
  <path d="m10.348 14-4.5625 8h36.812l-37.211 19.297 4.9609 8.7031h43.305l4.5625-8h-36.812l37.211-19.297-4.9609-8.7031z"/>
 </g>
</svg>
