<?xml version="1.0" encoding="UTF-8" standalone="no"?>
<!-- Created with Inkscape (http://www.inkscape.org/) -->

<svg
   xmlns:dc="http://purl.org/dc/elements/1.1/"
   xmlns:cc="http://creativecommons.org/ns#"
   xmlns:rdf="http://www.w3.org/1999/02/22-rdf-syntax-ns#"
   xmlns:svg="http://www.w3.org/2000/svg"
   xmlns="http://www.w3.org/2000/svg"
   xmlns:xlink="http://www.w3.org/1999/xlink"
   xmlns:sodipodi="http://sodipodi.sourceforge.net/DTD/sodipodi-0.dtd"
   xmlns:inkscape="http://www.inkscape.org/namespaces/inkscape"
   width="64"
   height="64"
   viewBox="0 0 16.933333 16.933333"
   version="1.1"
   id="svg4572"
   inkscape:version="0.92.3 (2405546, 2018-03-11)"
   sodipodi:docname="distributor-logo-fedora.svg">
  <title
     id="title4611">Canvas icon theme</title>
  <defs
     id="defs4566">
    <linearGradient
       inkscape:collect="always"
       id="linearGradient856">
      <stop
         style="stop-color:#000000;stop-opacity:1;"
         offset="0"
         id="stop852" />
      <stop
         style="stop-color:#000000;stop-opacity:0;"
         offset="1"
         id="stop854" />
    </linearGradient>
    <linearGradient
       inkscape:collect="always"
       xlink:href="#linearGradient856"
       id="linearGradient858"
       x1="45.62793"
       y1="57.955078"
       x2="45.62793"
       y2="12.460938"
       gradientUnits="userSpaceOnUse" />
  </defs>
  <sodipodi:namedview
     id="base"
     pagecolor="#ffffff"
     bordercolor="#666666"
     borderopacity="1.0"
     inkscape:pageopacity="0.0"
     inkscape:pageshadow="2"
     inkscape:zoom="5.6"
     inkscape:cx="13.202125"
     inkscape:cy="39.220657"
     inkscape:document-units="px"
     inkscape:current-layer="layer1"
     showgrid="true"
     units="px"
     width="64px"
     showguides="true"
     inkscape:guide-bbox="true"
     inkscape:window-width="652"
     inkscape:window-height="468"
     inkscape:window-x="589"
     inkscape:window-y="274"
     inkscape:window-maximized="0"
     inkscape:snap-bbox="true"
     inkscape:bbox-nodes="true"
     inkscape:snap-nodes="false">
    <inkscape:grid
       type="xygrid"
       id="grid4582" />
    <sodipodi:guide
       position="1.0583333,15.875"
       orientation="0,1"
       id="guide4584"
       inkscape:locked="false" />
    <sodipodi:guide
       position="1.0583333,1.0583333"
       orientation="1,0"
       id="guide4586"
       inkscape:locked="false" />
    <sodipodi:guide
       position="15.875,15.875"
       orientation="1,0"
       id="guide4588"
       inkscape:locked="false" />
    <sodipodi:guide
       position="1.0583333,1.0583333"
       orientation="0,1"
       id="guide4590"
       inkscape:locked="false" />
  </sodipodi:namedview>
  <metadata
     id="metadata4569">
    <rdf:RDF>
      <cc:Work
         rdf:about="">
        <dc:format>image/svg+xml</dc:format>
        <dc:type
           rdf:resource="http://purl.org/dc/dcmitype/StillImage" />
        <dc:title>Canvas icon theme</dc:title>
        <cc:license
           rdf:resource="http://creativecommons.org/licenses/by-nc-sa/4.0/" />
        <dc:creator>
          <cc:Agent>
            <dc:title>Vince Liuice</dc:title>
          </cc:Agent>
        </dc:creator>
      </cc:Work>
      <cc:License
         rdf:about="http://creativecommons.org/licenses/by-nc-sa/4.0/">
        <cc:permits
           rdf:resource="http://creativecommons.org/ns#Reproduction" />
        <cc:permits
           rdf:resource="http://creativecommons.org/ns#Distribution" />
        <cc:requires
           rdf:resource="http://creativecommons.org/ns#Notice" />
        <cc:requires
           rdf:resource="http://creativecommons.org/ns#Attribution" />
        <cc:prohibits
           rdf:resource="http://creativecommons.org/ns#CommercialUse" />
        <cc:permits
           rdf:resource="http://creativecommons.org/ns#DerivativeWorks" />
        <cc:requires
           rdf:resource="http://creativecommons.org/ns#ShareAlike" />
      </cc:License>
    </rdf:RDF>
  </metadata>
  <g
     inkscape:label="Layer 1"
     inkscape:groupmode="layer"
     id="layer1"
     transform="translate(0,-280.06667)">
    <circle
       style="opacity:1;fill:#225a84;fill-opacity:1;stroke:none;stroke-width:0.49136901;stroke-miterlimit:4;stroke-dasharray:none;stroke-opacity:0.03821656;paint-order:stroke markers fill"
       id="path13"
       cx="8.4666662"
       cy="288.53333"
       r="6.8791666" />
    <path
       style="opacity:0.25;fill:url(#linearGradient858);fill-opacity:1;stroke:none;stroke-width:1.85714281;stroke-miterlimit:4;stroke-dasharray:none;stroke-opacity:0.03821656;paint-order:stroke markers fill"
       d="M 49.123047 12.460938 A 40.5 40.5 0 0 1 51 24.5 A 40.5 40.5 0 0 1 33.255859 57.955078 A 26 26 0 0 0 58 32 A 26 26 0 0 0 49.123047 12.460938 z "
       transform="matrix(0.26458333,0,0,0.26458333,0,280.06667)"
       id="circle839" />
    <path
       style="display:inline;fill:#ffffff;fill-opacity:1;stroke-width:0.26458332"
       d="m 8.7312487,284.03542 c -2.3369141,0 -4.2317221,1.89429 -4.2333324,4.23101 v 2.69286 0.58316 0.30257 c 0,0.36393 0.2928837,0.65707 0.6568074,0.65707 h 0.3051521 2.1210564 1.1523831 c 2.3371527,-8e-4 4.2312677,-1.89588 4.2312677,-4.23333 0,-2.33816 -1.895341,-4.23334 -4.2333343,-4.23334 z m 1.2758923,0.92759 c 0.170068,0 0.290872,0.0193 0.448291,0.0605 0.229583,0.0602 0.416927,0.24823 0.417029,0.46716 1.05e-4,0.26466 -0.191932,0.45707 -0.47904,0.45707 -0.136784,0 -0.18627,-0.0264 -0.386539,-0.0264 -0.5910804,0 -1.0702584,0.47891 -1.0712529,1.06997 v 0.92604 2.1e-4 c 0,0.0836 0.067571,0.15115 0.1511575,0.15115 h 6.333e-4 0.7035717 c 0.2621854,0 0.4739264,0.20997 0.4741304,0.47284 0,0.26298 -0.21205,0.47233 -0.4741304,0.47233 H 8.9357479 v 1.07874 0.002 c 0,1.12101 -0.9088818,2.02959 -2.0298486,2.02959 -0.1701049,0 -0.2908745,-0.019 -0.4482947,-0.0602 -0.2295833,-0.0601 -0.4171824,-0.2483 -0.4172885,-0.46716 0,-0.26459 0.1920569,-0.45708 0.4792992,-0.45708 0.1366487,0 0.1861117,0.0261 0.386284,0.0261 0.59108,0 1.0705817,-0.47884 1.0715077,-1.06969 v -0.93095 c 0,-0.0835 -0.067827,-0.15116 -0.1514104,-0.15116 H 7.8253643 7.1220464 c -0.2622508,0 -0.4741285,-0.20927 -0.4741285,-0.47232 -7.18e-5,-0.26453 0.2140049,-0.47284 0.4790392,-0.47284 h 0.8500728 v -1.07436 -0.002 c -2.4e-6,-1.12113 0.9089679,-2.02987 2.0301091,-2.02987 z"
       id="speech-bubble"
       inkscape:connector-curvature="0" />
  </g>
</svg>
