<svg width="64" height="64" version="1.1" viewBox="0 0 16.933 16.933" xmlns="http://www.w3.org/2000/svg" xmlns:xlink="http://www.w3.org/1999/xlink">
 <defs>
  <linearGradient id="b" x1="45.628" x2="45.628" y1="57.955" y2="12.461" gradientUnits="userSpaceOnUse">
   <stop offset="0"/>
   <stop stop-opacity="0" offset="1"/>
  </linearGradient>
 </defs>
 <g transform="translate(0 -280.07)">
  <g transform="matrix(1.0385 0 0 1.0385 -.32619 -11.098)" stroke-width=".92729">
   <circle cx="8.467" cy="288.53" r="6.879" fill="#4e7ba0" style="paint-order:stroke markers fill"/>
   <path transform="matrix(.26458 0 0 .26458 0 280.07)" d="M 49.123,12.46 A 40.5,40.5 0 0 1 51,24.5 40.5,40.5 0 0 1 33.256,57.955 26,26 0 0 0 58,32 26,26 0 0 0 49.123,12.46 Z" fill="url(#b)" opacity=".25" style="paint-order:stroke markers fill"/>
  </g>
  <path d="M8.665 284.423c-.944.03 2.513 4.66-.149 4.365 2.22.597 2.728-2.186 2.275-3.547-.45-1.348-.683-.507-2.021-.806a.421.421 0 0 0-.105-.012zm-2.646.645c-1.459-.002-.707.474-1.414 1.618-.675 1.092 5.333-.864 4.185 1.58 1.27-1.866-1.297-3.196-2.77-3.198zm1.027 2.09c-1.167-.001-2.342 1.286-2.67 2.264-.454 1.347.245.8 1.146 1.806.861.96.802-5.192 2.84-3.377-.403-.492-.859-.691-1.316-.692zm5.059.219c-.725-.055-3.695 3.664-4.185 1.32.1 2.234 2.983 1.844 4.176 1.005 1.182-.832.286-.787.165-2.116-.012-.139-.067-.202-.156-.21zm-4.28.74c-2.158.785-.885 3.326.306 4.168 1.18.835.86.02 2.123-.5 1.207-.499-4.837-2.346-2.43-3.667z" fill="#fff" fill-rule="evenodd"/>
 </g>
</svg>
