<svg width="64" height="64" version="1.1" xmlns="http://www.w3.org/2000/svg">
 <path d="m32 5a27 27 0 0 0-27 27 27 27 0 0 0 27 27 27 27 0 0 0 27-27 27 27 0 0 0-27-27z" fill="#f2f2f2" stroke-width=".96429"/>
 <g transform="matrix(.81818 0 0 .81818 5.8182 5.8182)">
  <path d="m32 10a22 22 0 0 0-12.92 4.219l4.9414 4.9414a15.125 15.125 0 0 1 7.9788-2.2854 15.125 15.125 0 0 1 15.125 15.125 15.125 15.125 0 0 1-2.2935 7.9707l4.9441 4.9441a22 22 0 0 0 4.2244-12.915 22 22 0 0 0-22-22z" fill="#91cd91"/>
  <path d="m14.224 19.085a22 22 0 0 0-4.2244 12.915 22 22 0 0 0 22 22 22 22 0 0 0 12.92-4.219l-4.9414-4.9414a15.125 15.125 0 0 1-7.9788 2.2854 15.125 15.125 0 0 1-15.125-15.125 15.125 15.125 0 0 1 2.2935-7.9707z" fill="#33855a"/>
  <circle cx="32" cy="32" r="8" fill="#91cd91"/>
 </g>
</svg>
