<svg xmlns="http://www.w3.org/2000/svg" width="64" height="64" viewBox="0 0 16.933 16.933"><path fill="#405474" d="M8.38 1.323a7.144 7.144 0 1 1 0 14.287 7.144 7.144 0 0 1 0-14.287"/><path fill="#f9f9f9" d="M6.767 7.392a.47.47 0 0 0-.296.105 3.23 3.23 0 0 0-1.18 2.507c0 1.778 1.426 3.224 3.176 3.224s3.175-1.446 3.175-3.224c0-.978-.43-1.892-1.18-2.507a.47.47 0 0 0-.591 0 2.2 2.2 0 0 1-1.404.506c-.515 0-1-.174-1.403-.506a.47.47 0 0 0-.297-.105m.203 1.167c.43.282.956.436 1.497.436s1.069-.154 1.497-.436a2.116 2.116 0 1 1-2.994 0m1.144-4.854a.353.353 0 1 0 .001.707.353.353 0 0 0 0-.707zm1.094.705a.353.353 0 1 0 0 .707.353.353 0 0 0 0-.707m-.918.353a.53.53 0 0 0 0 1.058.53.53 0 0 0 0-1.058m1.06 1.058a.53.53 0 0 0 0 1.059.53.53 0 0 0 0-1.059m-1.764.353a.53.53 0 0 0 0 1.058.53.53 0 0 0 0-1.058"/></svg>