<svg width="64" height="64" viewBox="0 0 16.933 16.933" xmlns="http://www.w3.org/2000/svg"><defs><linearGradient id="a" x1="45.628" x2="45.628" y1="57.955" y2="12.461" gradientUnits="userSpaceOnUse"><stop offset="0"/><stop stop-opacity="0" offset="1"/></linearGradient></defs><g transform="translate(0 -280.07)"><circle cx="8.467" cy="288.53" r="6.879" fill="#4d4d4d" paint-order="stroke markers fill"/><path d="M8.466 283.84c-.377.924-.604 1.529-1.024 2.425.257.273.573.59 1.086.95-.552-.228-.928-.455-1.209-.692-.537 1.12-1.378 2.717-3.086 5.785 1.342-.775 2.383-1.252 3.352-1.435a2.457 2.457 0 0 1-.063-.574l.001-.043c.021-.86.469-1.521.999-1.476.53.045.941.778.92 1.638a2.427 2.427 0 0 1-.054.462c.959.188 1.988.664 3.312 1.428-.261-.48-.494-.913-.717-1.326-.35-.272-.716-.625-1.461-1.008.512.133.88.287 1.165.459-2.262-4.212-2.445-4.772-3.221-6.593z" fill="#fff" fill-rule="evenodd"/><path transform="translate(0 280.07) scale(.26458)" d="M49.123 12.461A40.5 40.5 0 0 1 51 24.5a40.5 40.5 0 0 1-17.744 33.455A26 26 0 0 0 58 32a26 26 0 0 0-8.877-19.539z" fill="url(#a)" opacity=".25" paint-order="stroke markers fill"/></g></svg>