<svg xmlns="http://www.w3.org/2000/svg" xmlns:xlink="http://www.w3.org/1999/xlink" width="64" height="64" viewBox="0 0 16.933 16.933"><defs><linearGradient id="a"><stop offset="0"/><stop offset="1" stop-opacity="0"/></linearGradient><linearGradient xlink:href="#a" id="b" x1="45.628" y1="57.955" x2="45.628" y2="12.461" gradientUnits="userSpaceOnUse"/></defs><g transform="translate(0 -280.067)"><circle cx="8.467" cy="288.533" r="6.879" fill="#b6057c" paint-order="stroke markers fill"/><path d="M49.123 12.46A40.5 40.5 0 0 1 51 24.5a40.5 40.5 0 0 1-17.744 33.455A26 26 0 0 0 58 32a26 26 0 0 0-8.877-19.54z" transform="matrix(.26458 0 0 .26458 0 280.067)" opacity=".25" fill="url(#b)" paint-order="stroke markers fill"/><path d="M7.592 284.303c-1.818.086-3.241 1.735-3.168 2.631.07.873 2.281 1.639 2.255 1.665-.452.382-.75.64-1.128.985-.908.83-1.535 1.445-1.217 2.309.367.996 1.17.955 2.112.77 2.432-.48 6.433-3.556 6.23-4.69-.165-.919-2.402-2.734-3.724-3.384a2.798 2.798 0 0 0-1.36-.286zm.376 1.575c.227-.021.492.036.787.18.645.311 1.313 1.139 0 1.61-.357.128-1.502-.308-1.467-.913.031-.558.3-.841.68-.877z" fill="#fff" fill-rule="evenodd"/></g></svg>