<svg xmlns="http://www.w3.org/2000/svg" width="64" height="64" viewBox="0 0 16.933 16.933"><circle cx="8.467" cy="288.53" r="6.879" fill="#42a5e9" style="paint-order:stroke markers fill" transform="translate(-.326 -291.17)scale(1.0385)"/><path fill="#fff" d="M8.466 4.49a3.98 3.98 0 0 0-3.968 3.969v2.91c0 .586.472 1.058 1.058 1.058h2.91a3.969 3.969 0 0 0 0-7.937m.794 1.323a1.323 1.323 0 0 1 1.323 1.323v.132a.397.397 0 0 1-.397.397.397.397 0 0 1-.397-.397v-.132a.53.53 0 0 0-.529-.53.53.53 0 0 0-.529.53v1.058h.662a.396.396 0 1 1 0 .794H8.73v.794a1.587 1.587 0 0 1-1.587 1.587 1.587 1.587 0 0 1-1.588-1.587 1.587 1.587 0 0 1 1.588-1.588h.529v.794h-.53a.794.794 0 0 0-.793.794.794.794 0 0 0 .794.793.794.794 0 0 0 .793-.793V7.136A1.323 1.323 0 0 1 9.26 5.813"/></svg>