<svg width="64" height="64" version="1.1" viewBox="0 0 64 64" xmlns="http://www.w3.org/2000/svg">
 <g transform="matrix(3.9249 0 0 3.9249 -1.2312 -1.2293)" stroke-width=".92734">
  <path transform="matrix(.26458 0 0 .26458 1.323 2.91)" d="m27-5c14.36 0 26 11.64 26 26s-11.64 26-26 26-26-11.64-26-26 11.64-26 26-26z" fill="#16a085"/>
 </g>
 <g transform="matrix(.16 0 0 .16 51.586 -21.904)" fill="#ffffff" fill-rule="evenodd">
  <g transform="matrix(1.2196 0 0 1 -467.57 -225.97)">
   <rect x="318.88" y="462.86" width="46.121" height="200"/>
   <rect x="257.38" y="531.61" width="49.618" height="131.25"/>
  </g>
  <path d="m-222.41 236.9 131.25 1e-5v56.25h-75v143.75l-56.25 1e-5z"/>
 </g>
</svg>
