<svg width="64" height="64" version="1.1" viewBox="0 0 16.933 16.933" xmlns="http://www.w3.org/2000/svg" xmlns:xlink="http://www.w3.org/1999/xlink">
 <defs>
  <linearGradient id="b" x1="45.628" x2="45.628" y1="57.955" y2="12.461" gradientTransform="matrix(.26458 0 0 .26458 0 280.07)" gradientUnits="userSpaceOnUse">
   <stop offset="0"/>
   <stop stop-opacity="0" offset="1"/>
  </linearGradient>
 </defs>
 <g transform="matrix(1.0385 0 0 1.0385 -.41232 -.32567)" stroke-width=".92729">
  <path d="m8.467 1.588a6.879 6.879 0 1 1 0 13.757 6.879 6.879 0 0 1 0-13.757z" fill="#4380b4"/>
  <path transform="translate(0 -280.07)" d="m12.997 283.36a10.716 10.716 0 0 1 0.497 3.185 10.716 10.716 0 0 1-4.695 8.852 6.88 6.88 0 0 0 6.547-6.868 6.88 6.88 0 0 0-2.349-5.17z" fill="url(#b)" opacity=".25" style="paint-order:stroke markers fill"/>
 </g>
 <path d="M9.596 4.233a3.104 3.104 0 0 0-3.01 2.355 3.104 3.104 0 0 0-2.353 3.008V12.7h3.105a3.104 3.104 0 0 0 3.01-2.354A3.104 3.104 0 0 0 12.7 7.338V4.233zm0 .444h2.66v2.66a2.661 2.661 0 0 1-1.827 2.524 3.104 3.104 0 0 0 .013-.265A3.104 3.104 0 0 0 7.338 6.49a3.104 3.104 0 0 0-.268.013 2.661 2.661 0 0 1 2.526-1.827zM7.338 6.935a2.661 2.661 0 0 1 2.66 2.66 2.661 2.661 0 0 1-.03.374 2.661 2.661 0 0 1-.372.03 2.661 2.661 0 0 1-2.661-2.661 2.661 2.661 0 0 1 .03-.374 2.661 2.661 0 0 1 .373-.03zm-.834.137a3.104 3.104 0 0 0-.013.266 3.104 3.104 0 0 0 3.105 3.104 3.104 3.104 0 0 0 .267-.013 2.661 2.661 0 0 1-2.525 1.827h-2.66v-2.66a2.661 2.661 0 0 1 1.826-2.524z" fill="#fff"/>
</svg>
