<svg width="64" height="64" version="1.1" viewBox="0 0 16.933 16.933" xmlns="http://www.w3.org/2000/svg">
 <path d="m8.382 1.323a7.144 7.144 0 1 1 0 14.287 7.144 7.144 0 0 1 0-14.287" fill="#f2f2f2"/>
 <path d="m11.597 10.923c-0.13898-0.25917-0.27142-0.61584-0.30294-0.8986-0.06675-0.59856 0.06615-0.90316-0.24862-1.4897-0.18899-0.35217-0.44569-0.65973-0.6592-0.9957-0.53868-0.84767-0.33887-1.7166-0.73804-2.5875-0.13869-0.30258-0.37109-0.55078-0.69331-0.65455-0.37819-0.12179-0.8319-0.0653-1.17 0.14259-0.9256 0.56896-0.25136 2.274-0.77705 3.1424-0.33069 0.54633-0.68674 1.0299-0.87789 1.6572-0.15083 0.49491-0.11249 1.1004-0.70052 1.3156-0.15858 0.058-0.39438 0.0498-0.48159 0.22323-0.05471 0.10883-0.01703 0.23329 9e-3 0.34441 0.02226 0.0951 0.02857 0.18767 0.01767 0.2848-0.0156 0.139-0.07009 0.27279-0.07818 0.41238-0.0083 0.14308 0.08093 0.23198 0.20509 0.28852 0.44787 0.20396 1.0733 0.32391 1.556 0.41353 0.62391 0.11583 0.56325-0.0697 1.0944-0.2176 0.37506-0.10444 0.83594-0.13187 1.2209-0.0645 0.40701 0.0712 0.68947 0.4162 1.0592 0.46046 0.3139 0 1.9856-0.86265 2.0046-1.2386 0.01711-0.3383-0.31878-0.31336-0.43946-0.5384zm-2.5714-5.5141c0.32533 0.23521-0.0169 0.94313-0.13984 0.82316 0.39332-0.30843-0.33055-0.78544-0.27804-0.1106-0.50316-0.11048-0.03068-1.0369 0.41788-0.71256zm-0.03817 1.1143c0.01755 0.26807-0.60939 0.45686-0.80598 0.53345-0.75079-6e-3 -0.50994-0.77616 0.07197-0.83963 0.11234-0.0122 0.7224 0.12894 0.734 0.30618zm-1.4147-1.0176c0.40005-0.2753 0.66395 0.40875 0.3152 0.626 0.15871-0.83194-0.75392-0.11321-0.11793 0.10789-0.25488 0.27673-0.4411-0.5661-0.19727-0.73389zm-0.54686 6.9076c-0.36393-0.10243-1.716-0.26816-1.8988-0.60416-0.0026-5e-3 -0.0033-0.0215-0.0027-0.0461-1.78e-4 -2.8e-4 -3.96e-4 -6e-4 -5.66e-4 -9e-4 -0.0079-0.0134-0.0011-0.0772 0.01177-0.15635 0.01775-0.18877 0.05097-0.44311 0.06155-0.46629 0.12194-0.2671 0.12068-0.22523 0.20656-0.24843 0.05303-0.0291 0.13122-0.0719 0.26032-0.18359 0.357-0.3089 0.46914-0.48238 0.67161-0.35323 0.07963 0.0279 0.15399 0.1059 0.24555 0.23686a5.3946 5.3946 0 0 1 0.0806 0.0964c0.1602 0.19586 0.52164 0.67178 0.64997 1.0779 0.12706 0.28348 0.13221 0.55279-0.2859 0.6479zm2.7471-2.2016c-0.15988 0.40816-0.0113 0.78334-0.33533 1.14-0.55353 0.60929-1.5902 0.57912-2.0824 0.0151 0.58577-0.23545-0.75024-1.2788-0.7956-1.7106-0.09885-0.94079 0.76996-1.9036 0.96814-2.8043 0.73098 0.77495 1.183-0.31892 1.7947 0.20521 0.47658 0.40835 0.96768 2.0089 0.82881 2.6253-0.07885 0.34994-0.30581 0.34419-0.37835 0.52933zm0.97678 1.8814c-1.5118 0.90461-0.66267-1.3916-0.62162-1.6861 0.10712 0.97577 0.69983 0.17665 1.0449 0.0704-0.16809 0.0517 0.54442 0.91124 0.5366 0.81302 0.02951 0.37062-0.59696 0.58552-0.95987 0.80267z" fill="#4d4d4d" stroke-width=".0094492" p-id="1562"/>
</svg>
