<svg xmlns="http://www.w3.org/2000/svg" xmlns:xlink="http://www.w3.org/1999/xlink" width="64" height="64" viewBox="0 0 16.933 16.933"><defs><linearGradient gradientTransform="matrix(.26458 0 0 .26458 0 280.067)" xlink:href="#a" id="b" x1="45.628" y1="57.955" x2="45.628" y2="12.461" gradientUnits="userSpaceOnUse"/><linearGradient id="a"><stop offset="0"/><stop offset="1" stop-opacity="0"/></linearGradient></defs><path d="M8.467 1.588a6.879 6.879 0 1 1 0 13.757 6.879 6.879 0 0 1 0-13.757z" fill="#1d89db"/><path d="M12.997 283.364a10.716 10.716 0 0 1 .497 3.185 10.716 10.716 0 0 1-4.695 8.852 6.88 6.88 0 0 0 6.547-6.868 6.88 6.88 0 0 0-2.349-5.17z" opacity=".25" fill="url(#b)" paint-order="stroke markers fill" transform="translate(0 -280.067)"/><path style="marker:none" d="M8.467 4.233a4.23 4.23 0 0 0-4.225 4.068c1.403-.99 3.79-2.615 4.382-2.658.196-.249.872-.45.994-.445l-.355.445s-.006.45-.137.537c1.223.817 1.807 3.75 2.057 5.53l-.105.084A4.222 4.222 0 0 0 12.7 8.467a4.233 4.233 0 0 0-4.233-4.234zm-.06 3.478c-.33.01-.998.993-1.76 2.045-.366.506-.84 1.198-1.19 1.678l-.25-.275c.716-1.174 1.609-2.607 1.566-2.66-.01-.005-.021-.013-.035-.01-.242.036-1.218 1.251-1.915 2.125A4.228 4.228 0 0 0 8.467 12.7c.943 0 1.81-.312 2.514-.833-.521-1.593-1.528-4.138-2.54-4.144-.01-.002-.024-.012-.034-.012zm-2.457.412c-.3-.002-1.07.27-1.708.515.025.632.187 1.227.46 1.757.128-.194.35-.512.483-.707.507-.746 1.006-1.406.89-1.542-.02-.023-.066-.023-.125-.023zm-1.713.267c0 .026-.004.05-.004.077 0 .035.005.07.006.105l-.002-.182zm.473 2.022c.026.051.054.101.082.151z" color="#000" overflow="visible" fill="#fff" fill-rule="evenodd"/></svg>