<svg width="63.987px" height="63.987px" version="1.1" viewBox="0 0 16.9 16.9" xmlns="http://www.w3.org/2000/svg">
 <rect x="1.5847" y="1.5847" width="13.734" height="13.734" rx="2.1129" ry="2.1129" fill="#1c90ed" fill-rule="evenodd" stroke-width=".24971"/>
 <g fill="#fff" stroke-width=".26412">
  <path d="m7.2008 12.674c-0.6176-0.039659-1.0344-0.10837-1.4413-0.23757-0.58263-0.18503-0.95702-0.43733-1.291-0.86998-0.4134-0.53557-0.6832-1.4473-0.75098-2.3022-0.023786-0.30112-0.026169-0.47835-0.0076647-0.54988 0.029392-0.11208 0.096453-0.18958 0.20612-0.23817 0.049376-0.021869 0.056196-0.021924 3.7342-0.022159 2.4173-1.556e-4 3.7241-0.00404 3.7992-0.01123 0.12648-0.012168 0.32454-0.046082 0.41872-0.071728 0.13134-0.035763 0.28756-0.096729 0.28756-0.11222 0-0.00398-0.02458-0.05293-0.05469-0.10876-0.11628-0.2158-0.16869-0.30082-0.16806-0.56382 0-0.29018 0.0682-0.55596 0.21416-0.84287 0.06013-0.11821 0.20657-0.34038 0.22436-0.34039 0.01744-5e-6 0.19682 0.10751 0.27944 0.16742 0.33136 0.2403 0.58953 0.68593 0.65556 1.0502 0.01374 0.076433 0.01507 0.078632 0.04285 0.073089 0.16338-0.032691 0.55207-0.042417 0.72536-0.018155 0.27448 0.03843 0.47898 0.11332 0.64427 0.23591 0.04412 0.032713 0.0802 0.062973 0.0802 0.067244 0 0.026031-0.06209 0.17823-0.10565 0.2589-0.06949 0.12877-0.14448 0.2257-0.26433 0.34158-0.30588 0.29583-0.74281 0.4582-1.2353 0.45907l-0.10655 1.883e-4 -0.02537 0.062134c-0.48024 1.176-1.0869 1.9488-1.9128 2.5457-0.83067 0.60028-1.8929 0.94871-3.119 1.0231-0.13967 0.0085-0.71905 0.01167-0.82951 0.0046z"/>
  <rect x="4.7541" y="7.1311" width="1.0565" height="1.0565" ry=".21129"/>
  <rect x="6.0747" y="7.1311" width="1.0565" height="1.0565" ry=".21129"/>
  <rect x="7.3953" y="7.1311" width="1.0565" height="1.0565" ry=".21129"/>
  <rect x="8.7158" y="7.1311" width="1.0565" height="1.0565" ry=".21129"/>
  <rect x="10.036" y="7.1311" width="1.0565" height="1.0565" ry=".21129"/>
  <rect x="6.0747" y="5.8106" width="1.0565" height="1.0565" ry=".21129"/>
  <rect x="7.3953" y="5.8106" width="1.0565" height="1.0565" ry=".21129"/>
  <rect x="8.7158" y="5.8106" width="1.0565" height="1.0565" ry=".21129"/>
  <rect x="8.7158" y="4.49" width="1.0565" height="1.0565" ry=".21129"/>
 </g>
</svg>
