<svg xmlns="http://www.w3.org/2000/svg" width="64" height="64" viewBox="0 0 16.933 16.933"><defs><linearGradient id="a" x1="14.679" x2="2.293" y1="293.79" y2="282.98" gradientTransform="matrix(.99998 0 0 1.0434 0 -292.59)" gradientUnits="userSpaceOnUse"><stop offset="0" stop-color="#66bcff"/><stop offset="1" stop-color="#b29aff"/></linearGradient></defs><rect width="14.816" height="12.7" x="1.058" y="2.117" fill="url(#a)" rx="1.323" ry="1.323"/><rect width="13.229" height="1.058" x="1.852" y="2.646" opacity=".35" rx=".529" ry=".529"/><rect width="1.058" height=".529" x="2.117" y="2.91" opacity=".35" ry=".265" style="paint-order:stroke markers fill"/><rect width="2.646" height=".529" x="7.144" y="2.91" opacity=".35" ry=".265" style="paint-order:stroke markers fill"/><rect width=".529" height=".529" x="14.287" y="2.91" opacity=".35" ry=".265" style="paint-order:stroke markers fill"/><rect width=".794" height=".529" x="13.229" y="2.91" opacity=".35" ry=".265" style="paint-order:stroke markers fill"/><rect width=".529" height=".529" x="12.435" y="2.91" opacity=".35" ry=".265" style="paint-order:stroke markers fill"/><rect width="10.053" height="1.323" x="3.44" y="12.7" fill="#fff" opacity=".35" paint-order="markers stroke fill" rx=".265" ry=".265"/><g fill="#ccdfff" transform="translate(0 1.722)"><rect width="1.323" height="1.323" x="4.233" y="10.448" rx=".264" ry=".264" style="paint-order:stroke markers fill"/><rect width="1.323" height="1.323" x="6.614" y="10.448" rx=".264" ry=".264" style="paint-order:stroke markers fill"/><rect width="1.323" height="1.323" x="8.996" y="10.448" rx=".264" ry=".264" style="paint-order:stroke markers fill"/><rect width="1.323" height="1.323" x="11.376" y="10.448" rx=".264" ry=".264" style="paint-order:stroke markers fill"/></g><path d="M8.467 4.763a.794.794 0 0 0-.265 1.54v.84h-1.19a.13.13 0 0 0-.133.133v.264c0 .074.06.133.132.133h1.191v2.645a.265.265 0 0 1-.264.265h-.133c-.198 0-.787-.228-1.148-.408-.446-.223-.446-.334-.417-.386.09-.158.242-.026.242-.026s.054-.238-.264-.503c-.107-.088-.328-.2-.397-.265-.139-.128-.136-.264-.212-.264-.098 0-.317.483-.317.794 0 .31 0 .653.264.793 0-.12.106-.264.265-.185.073.037.427.273.815.517.574.36 1.444.47 1.83.991.388-.52 1.257-.63 1.831-.991.388-.244.745-.473.815-.517.13-.08.265-.08.265.185.265-.14.265-.484.265-.793s-.246-.794-.344-.794c-.072 0-.047.136-.186.264-.07.065-.29.177-.396.265-.319.265-.265.503-.265.503s.152-.132.242.026c.03.052.029.164-.417.386-.36.18-.95.408-1.148.408h-.132a.265.265 0 0 1-.265-.265V7.673h1.19a.13.13 0 0 0 .133-.133v-.264c0-.074-.06-.117-.132-.133h-1.19v-.84a.794.794 0 0 0-.265-1.54m0 .528a.265.265 0 1 1 0 .53.265.265 0 0 1 0-.53" opacity=".35"/></svg>