<svg xmlns="http://www.w3.org/2000/svg" xmlns:xlink="http://www.w3.org/1999/xlink" width="64" height="64" viewBox="0 0 16.933 16.933"><defs><linearGradient id="a"><stop offset="0" stop-color="#66bcff"/><stop offset="1" stop-color="#b29aff"/></linearGradient><linearGradient xlink:href="#a" id="b" x1="13.229" y1="297" x2="2.117" y2="280.067" gradientUnits="userSpaceOnUse" gradientTransform="matrix(.92857 0 0 1.13043 .605 -37.635)"/></defs><g transform="translate(0 -280.067)"><rect width="13.758" height="13.758" x="1.587" y="281.654" ry="6.879" fill="url(#b)" paint-order="stroke markers fill"/><path d="M3.969 293.56a.996.996 0 0 0-.186.019c.589.546 1.273.99 2.026 1.304h5.315a6.858 6.858 0 0 0 2.026-1.304.996.996 0 0 0-.185-.019H3.969z" opacity=".35" fill="#fff" paint-order="stroke markers fill"/><rect width="1.323" height="1.323" x="4.498" y="292.767" ry=".132" fill="#ccdfff" paint-order="stroke markers fill"/><rect ry=".132" y="292.767" x="6.703" height="1.323" width="1.323" fill="#ccdfff" paint-order="stroke markers fill"/><rect width="1.323" height="1.323" x="8.908" y="292.767" ry=".132" fill="#ccdfff" paint-order="stroke markers fill"/><rect ry=".132" y="292.767" x="11.113" height="1.323" width="1.323" fill="#ccdfff" paint-order="stroke markers fill"/><path d="M8.467 281.654a6.861 6.861 0 0 0-3.675 1.059h7.349a6.861 6.861 0 0 0-3.674-1.059z" opacity=".35" paint-order="stroke markers fill"/><rect ry=".265" y="281.919" x="7.12" height=".529" width="2.646" opacity=".35" paint-order="stroke markers fill"/><path d="M8.467 284.83a.794.794 0 0 0-.265 1.54v.84h-1.19a.132.132 0 0 0-.133.133v.264c0 .074.06.133.132.133h1.191v2.645a.265.265 0 0 1-.264.265h-.133c-.198 0-.787-.228-1.148-.408-.446-.223-.446-.334-.417-.386.09-.158.242-.026.242-.026s.054-.238-.264-.503c-.107-.088-.328-.2-.397-.265-.139-.128-.136-.264-.212-.264-.098 0-.317.483-.317.794 0 .31 0 .653.264.793 0-.12.106-.264.265-.185.073.037.427.273.815.517.574.36 1.444.47 1.83.991.388-.52 1.257-.63 1.831-.991.388-.244.745-.473.815-.517.13-.08.265-.08.265.185.265-.14.265-.484.265-.793 0-.31-.246-.794-.344-.794-.072 0-.047.136-.186.264-.07.065-.29.177-.396.265-.319.265-.265.503-.265.503s.152-.132.242.026c.03.052.029.164-.417.386-.36.18-.95.408-1.148.408h-.132a.265.265 0 0 1-.265-.265v-2.645h1.19a.132.132 0 0 0 .133-.133v-.264c0-.074-.06-.117-.132-.133h-1.19v-.84a.794.794 0 0 0-.265-1.54m0 .528a.265.265 0 1 1 0 .53.265.265 0 0 1 0-.53z" opacity=".35"/></g></svg>