<?xml version="1.0" encoding="UTF-8" standalone="no"?>
<!-- Created with Inkscape (http://www.inkscape.org/) -->

<svg
   xmlns:dc="http://purl.org/dc/elements/1.1/"
   xmlns:cc="http://creativecommons.org/ns#"
   xmlns:rdf="http://www.w3.org/1999/02/22-rdf-syntax-ns#"
   xmlns:svg="http://www.w3.org/2000/svg"
   xmlns="http://www.w3.org/2000/svg"
   xmlns:xlink="http://www.w3.org/1999/xlink"
   xmlns:sodipodi="http://sodipodi.sourceforge.net/DTD/sodipodi-0.dtd"
   xmlns:inkscape="http://www.inkscape.org/namespaces/inkscape"
   width="64"
   height="64"
   viewBox="0 0 16.933333 16.933334"
   version="1.1"
   id="svg8"
   inkscape:version="0.92.3 (2405546, 2018-03-11)"
   sodipodi:docname="document-open-recent.svg">
  <defs
     id="defs2">
    <linearGradient
       inkscape:collect="always"
       id="linearGradient879">
      <stop
         style="stop-color:#000000;stop-opacity:1;"
         offset="0"
         id="stop875" />
      <stop
         style="stop-color:#000000;stop-opacity:0;"
         offset="1"
         id="stop877" />
    </linearGradient>
    <linearGradient
       inkscape:collect="always"
       id="linearGradient863">
      <stop
         style="stop-color:#000000;stop-opacity:1;"
         offset="0"
         id="stop859" />
      <stop
         style="stop-color:#000000;stop-opacity:0;"
         offset="1"
         id="stop861" />
    </linearGradient>
    <linearGradient
       inkscape:collect="always"
       xlink:href="#linearGradient863"
       id="linearGradient865"
       x1="32"
       y1="12"
       x2="32"
       y2="8"
       gradientUnits="userSpaceOnUse" />
    <linearGradient
       inkscape:collect="always"
       xlink:href="#linearGradient879"
       id="linearGradient881"
       x1="30.873047"
       y1="44.4375"
       x2="58"
       y2="44.4375"
       gradientUnits="userSpaceOnUse" />
  </defs>
  <sodipodi:namedview
     id="base"
     pagecolor="#ffffff"
     bordercolor="#666666"
     borderopacity="1.0"
     inkscape:pageopacity="0.0"
     inkscape:pageshadow="2"
     inkscape:zoom="5.6"
     inkscape:cx="24.328643"
     inkscape:cy="43.411518"
     inkscape:document-units="mm"
     inkscape:current-layer="layer1"
     showgrid="true"
     units="px"
     inkscape:window-width="584"
     inkscape:window-height="469"
     inkscape:window-x="436"
     inkscape:window-y="253"
     inkscape:window-maximized="0"
     inkscape:snap-bbox="true"
     inkscape:snap-bbox-edge-midpoints="true"
     inkscape:snap-bbox-midpoints="true"
     inkscape:bbox-nodes="true">
    <inkscape:grid
       type="xygrid"
       id="grid3713" />
  </sodipodi:namedview>
  <metadata
     id="metadata5">
    <rdf:RDF>
      <cc:Work
         rdf:about="">
        <dc:format>image/svg+xml</dc:format>
        <dc:type
           rdf:resource="http://purl.org/dc/dcmitype/StillImage" />
        <dc:title></dc:title>
      </cc:Work>
    </rdf:RDF>
  </metadata>
  <g
     inkscape:label="Layer 1"
     inkscape:groupmode="layer"
     id="layer1"
     transform="translate(0,-280.06663)">
    <circle
       style="opacity:1;fill:#3578c7;fill-opacity:1;stroke:none;stroke-width:0.57727253;stroke-miterlimit:4;stroke-dasharray:none;stroke-opacity:1;paint-order:stroke markers fill"
       id="path846"
       cx="8.4666662"
       cy="288.53329"
       r="6.349998" />
    <path
       style="opacity:1;fill:#ffffff;fill-opacity:1;stroke:none;stroke-width:1.909091;stroke-miterlimit:4;stroke-dasharray:none;stroke-opacity:1;paint-order:stroke markers fill"
       d="M 21.226562 14 A 21.000002 21.000002 0 0 0 11 32 A 21.000002 21.000002 0 0 0 32 53 A 21.000002 21.000002 0 0 0 53 32 A 21.000002 21.000002 0 0 0 42.769531 14 L 21.226562 14 z "
       transform="matrix(0.26458333,0,0,0.26458333,0,280.06663)"
       id="circle848" />
    <path
       style="opacity:0.25;fill:url(#linearGradient865);fill-opacity:1;stroke:none;stroke-width:2.18181753;stroke-miterlimit:4;stroke-dasharray:none;stroke-opacity:1;paint-order:stroke markers fill"
       d="M 32 8 A 23.999992 23.999992 0 0 0 18.759766 12 L 45.238281 12 A 23.999992 23.999992 0 0 0 32 8 z "
       transform="matrix(0.26458333,0,0,0.26458333,0,280.06663)"
       id="circle853" />
    <path
       style="opacity:1;fill:#5294e2;fill-opacity:1;stroke:none;stroke-width:2.07999992;stroke-miterlimit:4;stroke-dasharray:none;stroke-opacity:1;paint-order:stroke markers fill"
       d="M 32 16 C 30.891987 16 30.558293 17.04291 30 18 L 28.833984 20 L 8.9589844 20 A 26 26 0 0 0 6 32 A 26 26 0 0 0 6.1308594 34.595703 A 26 26 0 0 0 20.804688 55.439453 A 26 26 0 0 0 22.019531 56 L 22.058594 56 A 26 26 0 0 0 32 58 A 26 26 0 0 0 56.160156 41.582031 A 26 26 0 0 0 56.976562 39.1875 A 26 26 0 0 0 56.998047 39.121094 A 26 26 0 0 0 57 39.115234 A 26 26 0 0 0 57.458984 37.144531 A 26 26 0 0 0 57.59375 36.539062 A 26 26 0 0 0 57.818359 34.806641 A 26 26 0 0 0 57.921875 33.945312 A 26 26 0 0 0 58 32 A 26 26 0 0 0 52.482422 16 L 32 16 z "
       transform="matrix(0.26458333,0,0,0.26458333,0,280.06663)"
       id="path828" />
    <rect
       style="opacity:0.25;fill:#000000;fill-opacity:1;stroke:none;stroke-width:0.52916664;stroke-miterlimit:4;stroke-dasharray:none;stroke-opacity:1;paint-order:stroke markers fill"
       id="rect867"
       width="3.96875"
       height="0.52916664"
       x="8.9958334"
       y="284.82913"
       ry="0.26458126" />
    <path
       style="opacity:0.15;fill:url(#linearGradient881);fill-opacity:1;stroke:none;stroke-width:2.07999992;stroke-miterlimit:4;stroke-dasharray:none;stroke-opacity:1;paint-order:stroke markers fill"
       d="M 57.943359 30.875 L 30.873047 57.945312 A 26 26 0 0 0 32 58 A 26 26 0 0 0 56.160156 41.582031 A 26 26 0 0 0 56.976562 39.1875 A 26 26 0 0 0 56.998047 39.121094 A 26 26 0 0 0 57 39.115234 A 26 26 0 0 0 57.458984 37.144531 A 26 26 0 0 0 57.59375 36.539062 A 26 26 0 0 0 57.818359 34.806641 A 26 26 0 0 0 57.921875 33.945312 A 26 26 0 0 0 58 32 A 26 26 0 0 0 57.943359 30.875 z "
       transform="matrix(0.26458333,0,0,0.26458333,0,280.06663)"
       id="path870" />
    <path
       inkscape:connector-curvature="0"
       style="opacity:1;fill:#ffffff;fill-opacity:1;stroke:none;stroke-width:0.29450002;stroke-miterlimit:4;stroke-dasharray:none;stroke-opacity:0.03921569;paint-order:stroke markers fill"
       d="m 8.4666666,287.47496 a 2.6458333,2.6458333 0 0 0 -2.6458333,2.64583 2.6458333,2.6458333 0 0 0 2.6458333,2.64584 2.6458333,2.6458333 0 0 0 2.6458334,-2.64584 2.6458333,2.6458333 0 0 0 -2.6458334,-2.64583 z m 0,0.26458 a 2.3812418,2.3812418 0 0 1 2.3812504,2.38125 2.3812418,2.3812418 0 0 1 -2.3812504,2.38125 2.3812418,2.3812418 0 0 1 -2.3812499,-2.38125 2.3812418,2.3812418 0 0 1 2.3812499,-2.38125 z"
       id="path826" />
    <rect
       style="opacity:1;fill:#ffffff;fill-opacity:1;stroke:none;stroke-width:0.2583034;stroke-miterlimit:4;stroke-dasharray:none;stroke-opacity:0.03921569;paint-order:stroke markers fill"
       id="rect831"
       width="0.5291664"
       height="1.5874959"
       x="8.2020836"
       y="288.53329"
       ry="0.2645832" />
    <rect
       ry="0.13229163"
       y="-213.04028"
       x="199.02725"
       height="1.8520833"
       width="0.26458326"
       id="rect833"
       style="opacity:1;fill:#ffffff;fill-opacity:1;stroke:none;stroke-width:0.19728276;stroke-miterlimit:4;stroke-dasharray:none;stroke-opacity:0.03921569;paint-order:stroke markers fill"
       transform="rotate(135)" />
    <circle
       style="opacity:1;fill:#ffffff;fill-opacity:1;stroke:none;stroke-width:0.5579915;stroke-miterlimit:4;stroke-dasharray:none;stroke-opacity:0.03921569;paint-order:stroke markers fill"
       id="path835"
       cx="8.4666662"
       cy="290.12079"
       r="0.52915859" />
  </g>
</svg>
