<svg xmlns="http://www.w3.org/2000/svg" xmlns:xlink="http://www.w3.org/1999/xlink" width="64" height="64"><defs><path d="M5 10A5 5 0 1 1 5 0a5 5 0 0 1 0 10z" id="a"/><path d="M2.429 9.29A5.023 5.023 0 0 1 .507 7.196l8.979-4.408a5.02 5.02 0 0 0-1.399-1.722L2.43 9.289z" id="b"/><linearGradient id="c"><stop offset="0" stop-color="#fff"/><stop offset="1" stop-color="#dadada"/></linearGradient><linearGradient id="d"><stop offset="0" stop-color="#80e493"/><stop offset="1" stop-color="#4bd865"/></linearGradient><linearGradient id="e"><stop offset="0"/><stop offset="1" stop-opacity="0"/></linearGradient><linearGradient id="f"><stop offset="0" stop-color="#dadada"/><stop offset="1" stop-color="#fff"/></linearGradient><linearGradient id="g"><stop offset="0" stop-color="#374359"/><stop offset="1" stop-color="#202733" stop-opacity=".953"/></linearGradient><linearGradient id="h"><stop offset="0" stop-color="#bababa" stop-opacity=".957"/><stop offset=".17" stop-color="#fff" stop-opacity=".827"/><stop offset="1" stop-color="#fff"/></linearGradient><linearGradient id="i"><stop offset="0" stop-opacity=".417"/><stop offset="1" stop-opacity="0"/></linearGradient><linearGradient id="j"><stop offset="0" stop-opacity=".214"/><stop offset="1" stop-color="#fff"/></linearGradient><linearGradient gradientTransform="matrix(.63635 0 0 .63635 -69.815 -67.674)" xlink:href="#k" id="o" x1="164.79" y1="170.337" x2="164.79" y2="181.809" gradientUnits="userSpaceOnUse"/><linearGradient id="k"><stop offset="0" stop-color="#252525"/><stop offset="1" stop-color="#3d3d3d"/></linearGradient><linearGradient id="l"><stop offset="0" stop-color="#c3c3c3"/><stop offset=".252" stop-color="#fff"/><stop offset="1" stop-color="#fff"/></linearGradient><linearGradient id="m"><stop offset="0" stop-color="#c6c6c6"/><stop offset="1" stop-color="#d2d2d2"/></linearGradient><linearGradient id="n"><stop offset="0" stop-opacity=".203"/><stop offset="1" stop-opacity="0"/></linearGradient></defs><path overflow="visible" d="M19.274 8.861v6.822l-2.546.005v3.847h30.545v-3.847h-2.546V8.797z" style="isolation:auto;mix-blend-mode:normal" color="#000" fill="#333"/><path overflow="visible" style="isolation:auto;mix-blend-mode:normal" d="M20.546 8.16h22.909v11.375H20.547z" color="#000" fill="#fff" stroke="#000" stroke-width=".95" stroke-linecap="round" stroke-linejoin="round" stroke-opacity=".059" paint-order="markers stroke fill"/><path overflow="visible" style="isolation:auto;mix-blend-mode:normal" d="M15.456 40.505h33.8l5.017 7H10.365z" color="#000" fill="url(#o)"/><path overflow="visible" style="isolation:auto;mix-blend-mode:normal" d="M17.365 41.142h29.271l8.038 14.698H9.964z" color="#000" fill="#fff" stroke="#828282" stroke-width=".95" stroke-linecap="round" stroke-linejoin="round" stroke-opacity=".059" paint-order="markers stroke fill"/><path overflow="visible" display="block" style="isolation:auto;mix-blend-mode:normal;marker:none" d="M4 20.172l.637-.637h54.727l.636.637v24.151l-.636.637h-4.455l-5.09-5.727H14.182L9.087 44.96h-4.45L4 44.323z" color="#000" fill="#4d4d4d" paint-order="fill markers stroke"/><circle overflow="visible" display="block" r=".538" style="isolation:auto;mix-blend-mode:normal;marker:none" cx="57.308" cy="21.769" color="#000" fill="#fff" paint-order="fill markers stroke"/><path overflow="visible" display="block" style="isolation:auto;mix-blend-mode:normal;marker:none" d="M15.456 37.96h33.09c.742 0 1.272.53 1.272 1.273H14.183c0-.743.53-1.273 1.273-1.273z" color="#000" fill-opacity=".417" paint-order="fill markers stroke"/><circle r="14" cy="35" cx="32" fill="#666" paint-order="stroke markers fill"/><circle cy="43.308" cx="57.308" style="isolation:auto;mix-blend-mode:normal;marker:none" r=".538" display="block" overflow="visible" color="#000" fill="#fff" paint-order="fill markers stroke"/><circle cy="21.769" cx="6.692" style="isolation:auto;mix-blend-mode:normal;marker:none" r=".538" display="block" overflow="visible" color="#000" fill="#fff" paint-order="fill markers stroke"/><circle overflow="visible" display="block" r=".538" style="isolation:auto;mix-blend-mode:normal;marker:none" cx="6.692" cy="43.308" color="#000" fill="#fff" paint-order="fill markers stroke"/><circle cx="32" cy="35" r="12" fill="#fff" paint-order="stroke markers fill"/><circle r="10" cy="35" cx="32" fill="#45474f" paint-order="stroke markers fill"/><circle cx="36.78" cy="31" r="2" opacity=".5" fill="#fff" paint-order="stroke markers fill"/></svg>