<svg xmlns="http://www.w3.org/2000/svg" width="64" height="64" viewBox="0 0 16.934 16.934"><circle cx="8.467" cy="8.467" r="7.144" fill="#333" style="fill:#333;fill-opacity:1;paint-order:markers stroke fill"/><path d="m3.456 10.902-.001-2.66-.002-1.783-.23-.172a10 10 0 0 1-.23-.174l.82.001 1.307.002h.486l.15.114.15.115v3.479l.038.027.04.03-2.525 1.897c-.003 0-.003-.174-.003-.876m1.228-1.498.305-.229V7.166l-.035-.028-.035-.029-.266.002-.273.001h-.006v1.262c0 1.009 0 1.262.002 1.26.002 0 .14-.104.308-.23m8.342 2.022-.456-.344-.001-.768-.002-.953v-.184l-.152.53-.152.53-.153-.528-.151-.528-.001.52-.002.723v.203l-.497-.373-.495-.374.038-.028.036-.027-.001-.767-.002-1.856-.001-1.088h.278l.473.001.194.001.141.495c.078.272.142.494.143.493l.142-.496.141-.495.183.002 1.17.004.043.001-.228.17-.227.17-.001 1.391-.003 3.919zm-6.25-1.119-.79-.592c-.001-.001-.002-.32-.002-1.686V6.345l.154-.116.154-.115h1.834l.153.115.153.116v.378l.002 1.95v1.571l-.433.326-.434.326c-.002 0-.357-.264-.79-.589zm.737-1.447.001-1.231v-.462l-.036-.028-.038-.03h-.233l-.232.002-.036.028-.036.027v1.299l.002.711.302.227.304.227zm1.438 1.712-.438-.324V8.297c-.002-1.876-.002-1.952.001-1.955l.153-.116.15-.112.92.001.92.001.153.115.153.114v1.416l-.001 1.681-.002.266-.353.267-1.213.918-.006.004zM9.739 9.4l.304-.224v-2.01l-.038-.03-.038-.028h-.463l-.038.029-.037.029.001.705q.002 1.756.005 1.754z" style="fill:#fff;fill-opacity:1;stroke-width:.00182564"/></svg>