<svg width="64" height="64" version="1.1" xmlns="http://www.w3.org/2000/svg">
 <rect x="6" y="6" width="52" height="52" rx="8" ry="8" fill="#b76728" stroke-width=".92857"/>
 <rect x="11" y="11" width="42" height="42" rx="3" ry="3" fill="#4d4d4d" stroke-width=".875"/>
 <path d="m16 17.6v1.6h1.6v9.6h-1.6v1.6h8v-1.6h1.6v-9.6h-1.6v-1.6zm12.8 0v1.6h-1.6v9.6h1.6v1.6h6.4v-1.6h1.6v-9.6h-1.6v-1.6zm11.2 0v1.6h-1.6v3.2h1.6v1.6h3.2v1.6h1.6v3.2h-3.2v-3.2h-3.2v3.2h1.6v1.6h6.4v-1.6h1.6v-3.2h-1.6v-1.6h-1.6v-1.6h-3.2v-3.2h3.2v3.2h3.2v-3.2h-1.6v-1.6zm-19.2 1.6h1.6v9.6h-1.6zm9.6 0h3.2v9.6h-3.2zm-14.4 14.4v1.6h1.6v9.6h-1.6v1.6h8v-1.6h1.6v-4.8h-1.6v-1.6h1.6v-3.2h-1.6v-1.6zm12.8 0v1.6h-1.6v9.6h1.6v1.6h6.4v-1.6h1.6v-9.6h-1.6v-1.6zm8 0v1.6h1.6v3.2h1.6v3.2h-1.6v3.2h-1.6v1.6h3.2v-1.6h1.6v-1.6h1.6v1.6h1.6v1.6h3.2v-1.6h-1.6v-3.2h-1.6v-3.2h1.6v-3.2h1.6v-1.6h-3.2v1.6h-1.6v1.6h-1.6v-1.6h-1.6v-1.6zm-16 1.6h1.6v3.2h-1.6zm9.6 0h3.2v9.6h-3.2zm-9.6 4.8h1.6v4.8h-1.6z" fill="#e4e4e4" stroke-width=".8"/>
</svg>
