<svg xmlns="http://www.w3.org/2000/svg" width="64" height="64" version="1"><path fill="#c2352a" d="m36.097 6.005-8.927.152-1.81 1.364.149.152-5.896.152.453-.605-13.46-.305-.153.91-.152 1.364.91 1.669-.453 3.489L6 17.379l.453 2.883.153 2.274.907 3.032-.302 1.517.15 1.668 1.058 1.214.301 1.97-1.962.758.301 6.069 1.212.91-.758 5.305-.606.305-.454 10.163.534-.072 1.284.265s1.554.538 1.875.646c.321.107.798-.483.798-.483h1.284l1.07-.214.592.269.533-.055 1.338-.105.635-.272.272.646.214-.162.59-.27 1.227-.107.265.377s1.496.16 2.031.16c.535 0 .432-.432.432-.432s.157-.05.424.218c.268.268.646-.109.646-.109l.533-.268.377.377.374.268 1.016-.214h1.654l.38-.109L28.381 58l.1-1.12h2.515c.213 0 .112.746.112.746l1.654-.536.856.856 1.766-1.125.962-.163 1.871-.101h2.674l3.046.21.806-.32.584-.536 1.607.907 1.175-.483s1.284.49 1.498.544c.214.054 2.194-.22 2.194-.22l1.226-.324-.798-.587.533-.214 2.246.105 2.992.754-.05-19.57v-1.237l-.748.113-.965.16v-.592l.533-.486.432-.638.102-2.307-.16-1.665-.696-2.038-.635-.856-.109-.805.16-.533.05-.16.697-.272.109-.272-.534-.907.483-.275.754-.457.301-2.728.153-1.82v-6.37l-.455-1.825.302-1.97.153-.762-1.362-.605-5.142-.91-.76 1.062-.3-1.215-9.83-.152-.304 1.672-2.418.3-.303-1.058-2.117-.305.757-.91z"/><path fill="#fff" d="m43.141 13.432-7.428 3.714 11.143 7.428v-7.428l-3.715-3.714zm-26 1.857-5.571 1.857L43.14 48.715h5.572l3.714-9.285-35.286-24.14zm-3.714 20.426L11.57 45l3.714 3.714H19l5.57-1.857-11.142-11.142z"/></svg>