<svg xmlns="http://www.w3.org/2000/svg" width="64" height="64"><rect width="52" height="52" x="6" y="6" fill="#ff7008" rx="8" ry="8"/><path fill="#fff" d="M28 25.59 18 42.91l2.598 1.5 10-17.32L28 25.59zm8 0-2.598 1.5 10 17.32L46 42.91 36 25.59z" opacity=".5"/><path fill="#ffd1ba" d="M28 16c-1.662 0-3 1.338-3 3v6c0 1.662 1.338 3 3 3h8c1.662 0 3-1.338 3-3v-6c0-1.662-1.338-3-3-3h-8zM17 36c-1.662 0-3 1.338-3 3v6c0 1.662 1.338 3 3 3h8c1.662 0 3-1.338 3-3v-6c0-1.662-1.338-3-3-3h-8zm22 0c-1.662 0-3 1.338-3 3v6c0 1.662 1.338 3 3 3h8c1.662 0 3-1.338 3-3v-6c0-1.662-1.338-3-3-3h-8z"/></svg>