<svg width="64" height="64" version="1.1" xmlns="http://www.w3.org/2000/svg">
 <rect x="6" y="6" width="52" height="52" rx="10" ry="10" fill="#75aa03" stroke-width=".92857"/>
 <path d="m24.008 14.332-0.81641 0.53906 2.0703 3.1055c-2.8031 1.777-4.7927 4.7886-5.5352 8.0234h24.543c-0.74115-3.2354-2.7286-6.2453-5.5312-8.0234l2.0703-3.1055-0.81641-0.53906-2.1055 3.1523c-1.812-0.96739-3.8327-1.4767-5.8867-1.4844-2.0561 0.0038-4.0793 0.51073-5.8945 1.4766zm2.4922 5.668c0.82843 0 1.5 0.67157 1.5 1.5s-0.67157 1.5-1.5 1.5-1.5-0.67157-1.5-1.5 0.67157-1.5 1.5-1.5zm11 0c0.82843 0 1.5 0.67157 1.5 1.5s-0.67157 1.5-1.5 1.5-1.5-0.67157-1.5-1.5 0.67157-1.5 1.5-1.5zm-21.531 8c-1.103 0.018615-1.9839 1.0043-1.9688 2.2031v11.594c0 2.8981 4 2.8981 4 0v-11.594c0.015491-1.2254-0.90374-2.2224-2.0312-2.2031zm4.0312 0v19.25c0 1.5235 1.1906 2.75 2.668 2.75h4.332v-2h4v-2.0469c-0.52332-0.091208-1.3017-0.24554-1.6992-0.43359-3.1756-1.1382-5.296-4.1461-5.3008-7.5195 0-4.4183 3.5817-8 8-8s8 3.5817 8 8c-0.0016 3.3228-2.0571 6.2987-5.1641 7.4766-0.45313 0.20822-1.2756 0.3828-1.8359 0.48047v2.043h4v2h4.332c1.4773 0 2.668-1.2265 2.668-2.75v-19.25zm27.969 0c-1.103 0.018615-1.9839 1.0043-1.9688 2.2031v11.594c0 2.8981 4 2.8981 4 0v-11.594c0.01549-1.2254-0.90374-2.2224-2.0312-2.2031zm-15.969 6c-2.2091 0-4 1.7909-4 4s1.7909 4 4 4 4-1.7909 4-4-1.7909-4-4-4zm0 1.332c1.4738-7.19e-4 2.6687 1.1942 2.668 2.668 7.19e-4 1.4738-1.1942 2.6687-2.668 2.668-1.4738 7.19e-4 -2.6687-1.1942-2.668-2.668 9.34e-4 -0.2663 0.04175-0.53095 0.12109-0.78516 0.21546 0.47772 0.69078 0.78492 1.2148 0.78516 0.73536-7.17e-4 1.3313-0.59667 1.332-1.332-2.32e-4 -0.52406-0.30744-0.99939-0.78516-1.2148 0.2542-0.079341 0.51886-0.12016 0.78516-0.12109z" fill="#ffffff"/>
</svg>
