<svg xmlns="http://www.w3.org/2000/svg" height="64" width="64"><path d="M31.895 17.43l15.437 9.555L32 36.604l-15.513-9.619z" fill="#7ed6fb"/><path d="M6 18.33l15.437-9.555 10.484 8.631-15.433 9.58z" fill="#7ed6fb"/><path d="M31.898 17.424l15.47 9.574 10.563-8.592-15.514-9.619z" fill="#7ed6fb"/><path d="M31.895 17.43v16.398l-15.332 9.618-.075-16.46z" fill="#62c8f7"/><path d="M31.895 17.43v16.398l15.331 9.618.076-16.46z" fill="#1f97cf"/><path d="M47.302 26.985v18.608l-15.332 9.62-.076-18.672z" fill="#62c8f7"/><path d="M32 36.553l15.437-9.555L58 35.59l-15.513 9.619z" fill="#7ed6fb"/><path d="M16.488 26.985v18.608l15.476 9.632-.07-18.685z" fill="#1581ce"/><path d="M6 35.64l15.437 9.556L32 36.604l-15.513-9.619z" fill="#7ed6fb"/></svg>