<?xml version="1.0" encoding="UTF-8"?>
<svg width="64" height="64" version="1.1" viewBox="0 0 16.933 16.933" xmlns="http://www.w3.org/2000/svg">
 <rect x="1.5875" y="1.5875" width="13.758" height="13.758" rx="2.6601" ry="2.6601" fill="#98e357" stroke-linecap="round" stroke-linejoin="round" stroke-width=".28168" style="paint-order:stroke fill markers"/>
 <path d="m5.0929 8.83c-0.31934 0.0472-0.65571 0.216-0.95991 0.32426-0.20107 0.0715-0.4412 0.11598-0.62603 0.22335-0.14457 0.084-0.21371 0.2668-0.16387 0.42622 0.06485 0.20743 0.28299 0.39349 0.4421 0.53045 0.50924 0.43829 1.1765 0.69336 1.8503 0.69336 0.18927 0 0.38482-0.0263 0.57038-0.0636 0.079951-0.0161 0.19788-0.0726 0.27823-0.0596 0.10453 0.017 0.22533 0.17947 0.30606 0.24513 0.19343 0.15733 0.40341 0.27919 0.62603 0.38971 0.84907 0.42154 1.9364 0.39352 2.7684-0.0565 1.1192-0.60537 1.6858-1.7269 1.6553-2.9728-0.0051-0.20875-0.05014-0.42576-0.10705-0.62602-0.02539-0.0893-0.1056-0.22881-0.09641-0.31997 0.01264-0.12517 0.21363-0.30587 0.28088-0.41736 0.16407-0.27198 0.27423-0.56754 0.345-0.87643 0.12337-0.53851 0.06744-1.1316-0.14414-1.6416-0.08732-0.21046-0.18569-0.46839-0.44501-0.49136-0.22488-0.0199-0.36909 0.19013-0.50319 0.33833-0.15769 0.17428-0.32449 0.34045-0.48218 0.51473-0.12679 0.14012-0.25063 0.30805-0.4058 0.41735-0.07883-0.24734-0.30526-0.4902-0.44443-0.70949-0.12032-0.18961-0.23309-0.40636-0.39423-0.56446-0.38848-0.38116-1.0377-0.39353-1.4428-0.0313-0.15011 0.1342-0.25318 0.31984-0.36645 0.48451-0.2583 0.37548-0.56054 0.84247-0.96907 1.0668-0.37843 0.20785-0.84678 0.28774-1.266 0.3716-0.4835 0.0967-0.91926 0.21048-1.1206 0.71785-0.31863 0.80299 0.50754 1.43 0.81453 2.0867m7.3175 0.79948c-0.33579 0.0633-0.36202 0.46092-0.4295 0.73081-0.03061 0.12238-0.07498 0.24804-0.0509 0.37562 0.03924 0.20803 0.2407 0.36147 0.45258 0.32776 0.35247-0.0561 0.37954-0.43399 0.45036-0.71729 0.02982-0.11929 0.08024-0.25145 0.0579-0.37562-0.04104-0.22813-0.2483-0.38508-0.48044-0.34128m-4.09 2.6571c-0.32133 0.0606-0.43062 0.47269-0.20449 0.6988 0.163 0.16298 0.49032 0.15333 0.70531 0.19355 0.10082 0.0189 0.20357 0.0458 0.30606 0.0239 0.30728-0.0656 0.44291-0.47299 0.20738-0.69761-0.16552-0.15786-0.46676-0.15198-0.68038-0.19193-0.10911-0.0204-0.2226-0.0477-0.33388-0.0267z" fill="#fff"/>
</svg>
