<svg xmlns="http://www.w3.org/2000/svg" width="64" height="64"><path fill="#70c04b" d="M59.196 33.055 35.183 9.043a1.4 1.4 0 0 0-.565-.34L20.245 4.275a2.74 2.74 0 0 0-2.744.681L4.803 17.654a2.74 2.74 0 0 0-.644 2.858l5.145 14.434a1.4 1.4 0 0 0 .321.51L33.211 59.04a2.74 2.74 0 0 0 3.875 0l22.11-22.11a2.74 2.74 0 0 0 0-3.876zM18.162 22.618a4.11 4.11 0 1 1 0-8.219 4.11 4.11 0 0 1 0 8.22z"/><path fill="#f0f1f1" d="m45.243 50.882 5.149-5.15-.465-5.32-19.633 5.135-.788-6.208 16.109-4.244a4.564 4.564 0 0 0 3.244-4.838l-.85-8.388-9.28-9.278-16.432 4.454-.732 5.047-5.335.8 2.995 22.164 9.79 9.79zm-8.299-27.664.442 5.008a1.37 1.37 0 0 1-.972 1.433l-7.719 1.907-.778-6.313a1.37 1.37 0 0 1 .993-1.477l6.302-1.755a1.367 1.367 0 0 1 1.732 1.197"/><path fill="#b5b5b6" d="M18.162 13.135a5.373 5.373 0 1 0 0 10.746 5.373 5.373 0 1 0 0-10.746m0 8.598a3.225 3.225 0 1 1 .002-6.45 3.225 3.225 0 0 1-.002 6.45"/><path fill="#dcdddd" d="M18.162 14.285a4.224 4.224 0 1 0 0 8.448 4.224 4.224 0 0 0 0-8.448m0 7.37a3.145 3.145 0 1 1 0-6.29 3.145 3.145 0 0 1 0 6.29"/><path fill="#40220f" d="M17.078 20.035a.7.7 0 0 0-.492.184C16.12 20.65 5.19 30.939 4.494 43.7c-.016.184-.382 4.545 1.982 6.949.994 1.01 2.303 1.52 3.899 1.52q.272 0 .554-.02c.901-.08 5.165-1.607 6.42-8.993l-1.224-1.223c-1.066 7.407-5.158 8.847-5.19 8.847l-.039-.002-.039.004c-1.46.106-2.571-.25-3.4-1.092-1.919-1.948-1.603-5.828-1.598-5.89.667-12.226 11.549-22.476 11.658-22.579a.686.686 0 0 0-.44-1.187z"/></svg>