<svg width="64" height="64" version="1.1" viewBox="0 0 16.933 16.933" xmlns="http://www.w3.org/2000/svg">
 <g transform="translate(0 -280.07)">
  <circle cx="8.4665" cy="288.53" r="7.1436" fill="#7091e3" style="paint-order:stroke markers fill"/>
  <path d="m8.4672 284.83a3.7048 3.7048 0 0 0-3.7048 3.7034 3.7048 3.7048 0 0 0 3.7048 3.7048 3.7048 3.7048 0 0 0 3.7034-3.7048 3.7048 3.7048 0 0 0-3.7034-3.7034zm0 1.851a1.8524 1.8524 0 0 1 1.8524 1.8524 1.8524 1.8524 0 0 1-1.8524 1.8524 1.8524 1.8524 0 0 1-1.8524-1.8524 1.8524 1.8524 0 0 1 1.8524-1.8524z" opacity=".15" style="paint-order:stroke markers fill"/>
 </g>
 <path d="m8.4665 4.012c-0.76103 1.02e-5 -1.4309 0.41281-1.8713 1.022-0.39944 0.55247-0.59206 1.2798-0.5698 2.0501-0.69591 0.36409-1.247 0.88958-1.5406 1.505-0.32278 0.67654-0.35704 1.4568 0.027562 2.1046 0.38459 0.64779 1.0875 1.0029 1.8451 1.0688 0.69133 0.06013 1.435-0.14103 2.109-0.54785 0.67393 0.40681 1.417 0.60796 2.1083 0.54785 0.75768-0.06589 1.4611-0.42103 1.8458-1.0688 0.3847-0.64779 0.35036-1.428 0.02756-2.1046-0.29385-0.61587-0.84538-1.1416-1.542-1.5057 0.018835-0.74682-0.17331-1.4674-0.56913-2.024-0.43747-0.61516-1.1038-1.0475-1.8706-1.0474zm0 0.70565c0.5027-7.1e-6 0.96084 0.28082 1.2953 0.75112 0.2538 0.3569 0.38226 0.82668 0.42237 1.3155-1.1196-0.36858-2.3179-0.36833-3.4374 7.055e-4 0.036695-0.5082 0.16526-0.98483 0.42029-1.3376 0.33299-0.46058 0.79091-0.72978 1.2995-0.72978zm0 2.4664c0.57943 3.6e-6 1.1532 0.12449 1.7018 0.33284-0.18021 1.1719-0.77507 2.1432-1.7005 2.8536-0.92101-0.71306-1.5233-1.7268-1.7018-2.8536 0.54831-0.20806 1.1215-0.33285 1.7005-0.33284zm-2.3454 0.67326c0.23189 1.1236 0.827 2.1299 1.7067 2.8874-0.47328 0.22304-0.96518 0.35351-1.409 0.31493-0.58168-0.050591-1.0493-0.30492-1.2995-0.72632-0.25019-0.42142-0.24107-0.93061 0.0020813-1.4403 0.18824-0.39454 0.5554-0.74759 0.99975-1.0357zm4.6922 7.055e-4c0.44368 0.28806 0.81028 0.64088 0.99838 1.0351 0.24316 0.50961 0.25232 1.0188 0.0021 1.4403-0.25026 0.42142-0.71778 0.67573-1.2995 0.72632-0.44299 0.03852-0.93391-0.09149-1.4063-0.31355 0.87678-0.74886 1.4723-1.736 1.7053-2.8881z" fill="#fff" stroke-width=".26458"/>
</svg>
