<svg width="64" height="64" version="1.1" xmlns="http://www.w3.org/2000/svg">
 <rect x="6" y="6" width="52" height="52" rx="8" ry="8" fill="#f2f2f2" stroke-width="3.5095"/>
 <path d="m28.087 16.348c-8.6713 0-15.652 6.9809-15.652 15.652s6.9809 15.652 15.652 15.652c0.44348 0 0.86609-0.04565 1.3043-0.08217-8.0504-0.66783-14.348-7.3474-14.348-15.571 0-8.2291 6.2974-14.909 14.348-15.571-0.43826-0.04043-0.86087-0.08609-1.3043-0.08609" fill="#f49a2a" fill-rule="evenodd" stroke-width="1.3043"/>
 <path d="m34.387 16.35c-1.5683 0.02203-3.1244 0.27966-4.6162 0.76427-5.0875 1.6543-8.9777 5.7925-10.315 10.972h5.4874c1.5934-3.9391 5.4163-6.5185 9.6655-6.5217 3.3381 0.0046 6.4724 1.6059 8.4323 4.3079l4.2314-3.0724c-2.9913-4.117-7.7971-6.5228-12.886-6.4504zm0.25985 7.8235c-0.79889 0.01109-1.5916 0.13994-2.3513 0.38214-1.8711 0.60008-3.4499 1.8577-4.4327 3.5309h6.746c1.2949 0 2.5053 0.64329 3.2328 1.7146l3.3704-2.4023c-1.524-2.058-3.9725-3.2607-6.565-3.2253zm-15.463 5.2174c-0.07003 0.43242-0.12188 0.86759-0.1554 1.3043h5.2377c0.05712-0.43975 0.14221-0.87543 0.25475-1.3043zm8.0605 0c-0.15351 0.4242-0.26943 0.8606-0.34646 1.3043h4.0277c0.1706-0.48114 0.4337-0.92425 0.77446-1.3043zm13.886 0v1.3043h-1.3043v2.6087h1.3043v1.3043h2.6087v-1.3043h1.3043v-2.6087h-1.3043v-1.3043zm6.5217 0v1.3043h-1.3043v2.6087h1.3043v1.3043h2.6087v-1.3043h1.3043v-2.6087h-1.3043v-1.3043zm-28.629 3.913c0.0386 0.43698 0.09554 0.87215 0.17069 1.3043h5.3193c-0.10912-0.42916-0.1908-0.86482-0.24457-1.3043zm7.8796 0c0.07704 0.44375 0.19296 0.88015 0.34646 1.3043h4.4506c-0.34167-0.37989-0.60565-0.823-0.777-1.3043zm10.942 0.89674c-0.72863 1.071-1.9401 1.712-3.2354 1.712h-6.751c0.98414 1.6741 2.5649 2.9319 4.4378 3.5309 3.286 1.0467 6.8855-0.101 8.9164-2.8431zm-18.37 1.712c1.334 5.1757 5.2166 9.3129 10.297 10.972 6.4497 2.0963 13.516-0.19932 17.502-5.6862l-4.229-3.0724c-1.9604 2.7027-5.096 4.3042-8.435 4.3079-4.2501-0.0022-8.0742-2.5818-9.668-6.5217z" fill="#473286" stroke-width="1.3043" style="paint-order:normal"/>
</svg>
