<svg xmlns="http://www.w3.org/2000/svg" width="64" height="64" version="1"><g transform="translate(-3)"><rect width="52" height="52" x="-58" y="-58" fill="#f7941e" rx="26" ry="26" transform="scale(1 -1)rotate(90)"/><g stroke-width=".871"><path fill="#4c3a91" d="M38 6a25.94 25.94 0 0 0-24.63 17.642h49.26A25.94 25.94 0 0 0 37.999 6zM12.42 27.358a26 26 0 0 0-.346 2.785h51.855a26 26 0 0 0-.346-2.786zm-.347 6.498q.1 1.417.346 2.786h51.163q.246-1.369.346-2.786zm1.297 6.501A25.94 25.94 0 0 0 38.001 58a25.94 25.94 0 0 0 24.63-17.643z"/><path fill="#6e5dae" d="M21.245 39.429A18.2 18.2 0 0 0 38 50.57a18.2 18.2 0 0 0 16.747-11.142z"/><path fill="#fff" d="M13.37 23.643a26 26 0 0 0-.952 3.714h51.163a26 26 0 0 0-.95-3.714zm-1.298 6.5A27 27 0 0 0 12 32c0 .625.03 1.243.072 1.857h51.855A27 27 0 0 0 64 32c0-.625-.03-1.243-.073-1.857zm.346 6.5a26 26 0 0 0 .951 3.714h49.26a26 26 0 0 0 .951-3.714z"/></g></g></svg>