<svg xmlns="http://www.w3.org/2000/svg" width="64" height="64" version="1"><g transform="matrix(.83871 0 0 .83871 5.161 5.161)"><rect transform="matrix(0 -1 -1 0 0 0)" ry="28" rx="28" y="-57" x="-60" height="56" width="56" fill="#f7941e"/><path d="M35 4A27.934 27.934 0 0 0 8.475 23h53.05A27.934 27.934 0 0 0 35 4zM8.47 23.016zM7.452 27a28.197 28.197 0 0 0-.373 3h55.844a28.197 28.197 0 0 0-.373-3zm55.098 0zm-55.47 3.021zM7 32zm55.922-1.979zM63 32zM7.078 34c.071 1.017.197 2.017.373 3H62.55c.176-.983.302-1.983.373-3zm55.47 3zM7.452 37zm1.024 4A27.934 27.934 0 0 0 35 60a27.934 27.934 0 0 0 26.525-19z" fill="#4c3a91"/><path d="M16.957 40A19.6 19.6 0 0 0 35 52a19.6 19.6 0 0 0 18.035-12z" fill="#6e5dae"/><path d="M8.475 23a27.876 27.876 0 0 0-1.024 4H62.55a27.876 27.876 0 0 0-1.024-4zm-1.397 7A28.589 28.589 0 0 0 7 32c0 .673.032 1.339.078 2h55.844c.046-.661.078-1.327.078-2s-.032-1.339-.078-2zm.373 7a27.876 27.876 0 0 0 1.024 4h53.05a27.876 27.876 0 0 0 1.024-4z" fill="#fff"/></g></svg>