<svg xmlns="http://www.w3.org/2000/svg" width="64" height="64"><rect width="52" height="52" x="6" y="6" fill="#d0c5ac" rx="8" ry="8"/><path fill="#545454" d="M31 17.63a1 1 0 0 0-1 1v16.74a1 1 0 0 0 1 1 1 1 0 0 0 1-1V18.63a1 1 0 0 0-1-1" color="#000" style="-inkscape-stroke:none"/><path fill="#5a5a5a" d="M18.5 13a1.5 1.5 0 0 0-1.5 1.5 1.5 1.5 0 0 0 1.5 1.5h5.572a1.5 1.5 0 0 0 1.5-1.5 1.5 1.5 0 0 0-1.5-1.5zm17 31a1.5 1.5 0 0 0-1.5 1.5 1.5 1.5 0 0 0 1.5 1.5h9.4a1.5 1.5 0 0 0 1.5-1.5 1.5 1.5 0 0 0-1.5-1.5zm0-5a1.5 1.5 0 0 0-1.5 1.5 1.5 1.5 0 0 0 1.5 1.5h5.64a1.5 1.5 0 0 0 1.5-1.5 1.5 1.5 0 0 0-1.5-1.5z" color="#000" style="-inkscape-stroke:none"/><path fill="#545454" d="M6 42v2h15.082v-2z" color="#000" style="-inkscape-stroke:none"/><path fill="#333" d="M23.5 35.168a1.5 1.5 0 0 0-1.5 1.5v12.709a1.5 1.5 0 0 0 1.5 1.5 1.5 1.5 0 0 0 1.5-1.5V36.668a1.5 1.5 0 0 0-1.5-1.5" color="#000" style="-inkscape-stroke:none"/><path fill="#545454" d="M29.796 29a1 1 0 0 0-1 1 1 1 0 0 0 1 1h10.408a1 1 0 0 0 1-1 1 1 0 0 0-1-1zM30 51v7h2v-7z" color="#000" style="-inkscape-stroke:none"/><path fill="#333" d="M34 30.001a2.899 2.96 0 1 1-2.898-2.96A2.899 2.96 0 0 1 34 30" class="cls-6"/><path fill="#db295b" d="M28 6v14.287c0 .396.319.713.715.713h4.57a.71.71 0 0 0 .715-.713V6z" class="cls-7"/><path fill="#333" d="M31.359 34.629a1 1 0 0 0-.756.117l-7.46 4.52a1 1 0 0 0-.337 1.373 1 1 0 0 0 1.373.338l7.46-4.522a1 1 0 0 0 .337-1.373 1 1 0 0 0-.617-.453m-7.945 10.162a1 1 0 0 0-.613.46 1 1 0 0 0 .351 1.37l6.65 3.94a1 1 0 0 0 1.37-.35 1 1 0 0 0-.35-1.371l-6.65-3.94a1 1 0 0 0-.758-.109M18.191 42a1 1 0 0 0-1 1 1 1 0 0 0 1 1h4.83a1 1 0 0 0 1-1 1 1 0 0 0-1-1z" color="#000" style="-inkscape-stroke:none"/><g stroke-linecap="round" stroke-linejoin="round" color="#000"><path fill="#db295b" d="M32.121 51.104c-.33.018-5.238.455-5.26.306s3.173-5.525 3.304-5.527c.132-.002 2.065 5.07 1.956 5.221" style="-inkscape-stroke:none" transform="translate(0 .254)"/><path fill="#e10b4f" d="m30.164 45.783-.027.004-.018.006q-.014.007-.021.013l-.026.022q-.02.022-.045.055a4 4 0 0 0-.125.175c-.1.15-.237.36-.396.614a112 112 0 0 0-2.242 3.762c-.15.262-.275.485-.362.648a4 4 0 0 0-.127.264l-.01.029-.003.017v.032l.007.025.012.022a.1.1 0 0 0 .024.025q.022.016.039.02c.022.007.04.01.062.013q.067.009.172.01c.141.002.337-.002.572-.012.47-.02 1.097-.06 1.733-.107 1.272-.093 2.595-.209 2.744-.217a.1.1 0 0 0 .076-.041c.033-.046.024-.068.023-.09q-.001-.033-.01-.07a2 2 0 0 0-.046-.194 13 13 0 0 0-.196-.617 58 58 0 0 0-.646-1.79 63 63 0 0 0-.693-1.762c-.1-.24-.186-.44-.252-.58a3 3 0 0 0-.086-.17.4.4 0 0 0-.035-.053q-.01-.013-.026-.028-.008-.007-.023-.015l-.02-.006zm-.01.266.047.093c.064.137.15.335.248.573.198.476.449 1.113.692 1.756s.477 1.29.644 1.785c.084.247.152.457.193.607.018.064.028.11.036.149-.253.017-1.422.12-2.645.209a64 64 0 0 1-1.727.107c-.233.01-.427.014-.56.012-.037 0-.056-.003-.082-.004a3 3 0 0 1 .08-.16c.085-.16.208-.38.357-.643a112 112 0 0 1 2.239-3.754 23 23 0 0 1 .392-.61c.036-.052.061-.086.086-.12" style="-inkscape-stroke:none" transform="translate(0 .254)"/></g><path fill="#545454" d="M45.281 29v2H58v-2z" color="#000" style="-inkscape-stroke:none"/><rect width="6" height="12" x="27" y="-50" fill="#db295b" class="cls-7" ry=".5" transform="rotate(90)"/></svg>