<svg width="64" height="64" version="1.1" viewBox="0 0 64 64" xmlns="http://www.w3.org/2000/svg">
 <circle cx="32" cy="32" r="27" fill="#e9c6af"/>
 <path d="m22.438 12.875h-5.625c-0.932 0-1.6875-0.7555-1.6875-1.6875 0-0.0971 0.0082-0.1922 0.0239-0.2848 0.6187-0.4948 1.2596-0.96294 1.921-1.4027h5.3676c0.932 0 1.6875 0.7555 1.6875 1.6875s-0.7555 1.6875-1.6875 1.6875zm7.3125 4.5v18l2.25-0.5625v-5.0625h26.908c-0.0627-0.7593-0.1567-1.5098-0.2809-2.25h-26.627v-10.125h-2.25zm-13.5 24.75v2.25h-8.2534c-0.37771-0.7312-0.723-1.4818-1.034-2.25h9.2874zm13.5 7.875h1.125l1.125 2.25v6.75c-0.7577 0-1.5081-0.0312-2.25-0.0924v-8.9076zm6.1875-11.25c-0.932 0-1.6875 0.7555-1.6875 1.6875s0.7555 1.6875 1.6875 1.6875h6.75c0.932 0 1.6875-0.7555 1.6875-1.6875s-0.7555-1.6875-1.6875-1.6875h-6.75zm0 5.625c-0.932 0-1.6875 0.7555-1.6875 1.6875s0.7555 1.6875 1.6875 1.6875h11.25c0.932 0 1.6875-0.7555 1.6875-1.6875s-0.7555-1.6875-1.6875-1.6875h-11.25z" clip-rule="evenodd" fill="#5A5A5A" fill-rule="evenodd"/>
 <path d="m15.125 43.375v-0.25c0-0.5523 0.4477-1 1-1h4.625v-6.375c0-0.8284 0.6716-1.5 1.5-1.5h0.375c0.8284 0 1.5 0.6716 1.5 1.5v1.875l5.9418-3.7812c0.1605-0.1021 0.3467-0.1563 0.5369-0.1563h0.3963c0.5523 0 1 0.4477 1 1v0.1415c0 0.3403-0.173 0.6572-0.4592 0.8412l-7.4158 4.7673v5.625l6.75 3.9375v2.25h-1.125l-5.625-3.375v1.875c0 0.8284-0.6716 1.5-1.5 1.5h-0.375c-0.8284 0-1.5-0.6716-1.5-1.5v-6.375h-4.625c-0.5523 0-1-0.4477-1-1z" fill="#333333"/>
 <path d="m30.562 25.812h0.625c1.3807 0 2.5 1.1193 2.5 2.5v0.625c0 1.3807-1.1193 2.5-2.5 2.5h-0.625c-1.3807 0-2.5-1.1193-2.5-2.5v-0.625c0-1.3807 1.1193-2.5 2.5-2.5z" fill="#333333"/>
 <path d="m27.5 17.375v-11.25c0-0.31636 0.1306-0.60221 0.3408-0.80662 1.3557-0.20962 2.7448-0.31838 4.1592-0.31838 0.4726 0 0.9423 0.01214 1.4089 0.03613 0.4839 0.1258 0.8411 0.56562 0.8411 1.0889v11.25c0 0.6213-0.5037 1.125-1.125 1.125h-4.5c-0.6213 0-1.125-0.5037-1.125-1.125zm12.25 7.875c-0.5523 0-1 0.4477-1 1v4.75c0 0.5523 0.4477 1 1 1h11.5c0.5523 0 1-0.4477 1-1v-4.75c0-0.5523-0.4477-1-1-1h-11.5z" clip-rule="evenodd" fill="#DB295B" fill-rule="evenodd"/>
 <path d="m31.368 52.72-4.4174 0.2855c-0.4022 0.026-0.6683-0.4102-0.4612-0.7559l2.8046-4.6815c0.216-0.3605 0.7535-0.3098 0.8983 0.0848l1.6128 4.3959c0.1151 0.3136-0.1038 0.6497-0.4371 0.6712z" fill="#E10B4F" stroke="#E10B4F"/>
</svg>
