<svg width="64" height="64" version="1.1" viewBox="0 0 64 64" xmlns="http://www.w3.org/2000/svg">
 <rect x="6" y="6" width="52" height="52" rx="8" ry="8" fill="#ececec" style="paint-order:stroke fill markers"/>
 <path d="m39.156 14.012c-0.31367-0.01734-0.62734-0.01456-0.93836 0.0026-0.41558 0.02276-0.82851 0.07345-1.2335 0.13897-1.6147 0.2647-3.2823 0.96218-4.9631 2.0382-0.03613 0.02316-0.0724 0.05135-0.10853 0.07491-1.6544-1.0389-3.2955-1.7206-4.897-1.9853-1.6147-0.26338-3.3617-0.26338-4.9499 0.64587s-2.4617 2.4088-3.0308 3.9308c-0.57572 1.5088-0.80601 3.2823-0.71866 5.2411-0.0057 0.0029-0.01244 0.0048-0.01813 0.0078-1.7603 0.91322-3.2029 2.0117-4.2484 3.2823-1.0376 1.2692-1.9058 2.7794-1.9058 4.6058 0 1.8264 0.86954 3.3352 1.9058 4.6058 1.0363 1.2706 2.4749 2.3691 4.2484 3.2823 0.0057 0.0029 0.01244 0.0048 0.01813 0.0078-4.05e-4 0.0085-0.0023 0.01734-0.0026 0.02581-0.09132 1.9853 0.13897 3.7852 0.71866 5.3205 0.57969 1.5353 1.4559 3.0441 3.0308 3.9573 1.5882 0.91586 3.322 0.91851 4.9499 0.65381s3.2823-0.96483 4.9631-2.0382c0.03719-0.02382 0.07412-0.05334 0.11117-0.07756 1.6544 1.0403 3.2955 1.7206 4.897 1.9853 1.6147 0.26338 3.3617 0.26073 4.9499-0.64852 1.5882-0.90924 2.4617-2.4088 3.0308-3.9308 0.57705-1.5088 0.80601-3.2823 0.71866-5.2411 0.0057-0.0029 0.01244-0.0048 0.01813-0.0078 1.7603-0.91322 3.2029-2.0117 4.2484-3.2823 1.0376-1.2692 1.9058-2.7794 1.9058-4.6058 0-1.8264-0.86954-3.3352-1.9058-4.6058-1.0376-1.2692-2.4749-2.3691-4.2484-3.2823-0.0074-0.0038-0.01588-0.0065-0.02329-0.01032 2.82e-4 -6e-3 0.0023-0.01218 0.0026-0.01813 0.09132-1.9853-0.13897-3.7852-0.71866-5.3205-0.57969-1.5353-1.4558-3.0441-3.0308-3.9573-0.89204-0.51484-1.8397-0.74116-2.7794-0.7941zm-0.27661 1.522c0.92777 0.02316 1.6676 0.30705 2.2632 0.64852 0.78881 0.45528 1.6147 1.1885 2.1308 2.5279 0.49896 1.3182 0.82586 2.7661 0.7491 4.6455-1.8397-0.72263-3.9176-1.2441-6.194-1.5617-1.4029-1.7603-2.8852-3.269-4.4073-4.4734 0.0036-0.0023 0.0067-0.0056 0.01032-0.0078 1.6147-1.0363 3.0573-1.4823 4.4734-1.7073 0.35205-0.05757 0.68293-0.08007 0.99263-0.0724zm-13.764 0.1215c0.3097-0.0077 0.64057 0.01509 0.99263 0.0724 1.3632 0.22235 2.7661 0.65116 4.3278 1.6147-1.4956 1.2044-2.9514 2.7132-4.3278 4.4602-2.25 0.31764-4.3014 0.83513-6.1146 1.5485-0.06525-1.8397 0.25676-3.269 0.7491-4.5528 0.50558-1.3235 1.3367-2.0514 2.1308-2.5014 0.5916-0.34014 1.3235-0.62072 2.2632-0.64322zm6.816 2.7264c1.1448 0.8788 2.2764 1.9323 3.3749 3.1499-1.0787-0.07928-2.1838-0.12666-3.3088-0.12666-1.1581 0-2.2897 0.04871-3.3882 0.13182 1.08-1.2189 2.197-2.2764 3.322-3.1632zm7.3719 5.4528c1.6411 0.3322 3.1499 0.78219 4.5131 1.3367-0.2025 1.4426-0.56513 2.9779-1.0906 4.5528-0.47778-0.98468-0.9966-1.972-1.575-2.9646-0.59293-1.0204-1.2136-1.9853-1.8529-2.9117zm-14.691 0.0078c-0.62337 0.91322-1.2282 1.8661-1.8132 2.872-0.58102 1.0032-1.1025 2.0117-1.5882 3.0043-0.52808-1.575-0.89204-3.097-1.0906-4.5396 1.35-0.54925 2.8588-0.9966 4.4734-1.3235zm3.3882 1.5485h7.2793c3.2161 0 4.3411 3.1896 3.8646 5.294l-0.88939 3.9705c-0.5916 2.647-2.9779 3.9705-5.6249 3.9705h-6.6175l0.66175-2.647h5.294c2.5279 0 3.4808-1.5088 3.8382-3.3088l0.26867-1.3235c0.53072-2.647-0.79675-3.3088-2.7794-3.3088h-5.9558zm17.47 0.53734c1.6676 0.87483 2.7529 1.8794 3.6529 2.9779 0.90527 1.1064 1.1276 2.197 1.1276 3.097 0 0.89998-0.22235 1.9985-1.1276 3.1102-0.89204 1.0892-1.9853 2.0911-3.6396 2.9646-0.28455-1.9323-0.87219-3.9705-1.7206-6.0749 0.84704-2.1044 1.4294-4.1558 1.7206-6.0749zm-26.999 0.0026c0.28455 1.9323 0.86954 3.9705 1.7206 6.0749-0.84704 2.1044-1.4294 4.1558-1.7206 6.0749-1.6676-0.87483-2.7529-1.8794-3.6529-2.9779-0.90528-1.1064-1.1276-2.197-1.1276-3.1102 0-0.91322 0.22235-1.9985 1.1276-3.097 0.89204-1.0892 1.9853-2.1044 3.6396-2.9779zm6.2205 4.7514h7.2793l-0.66175 2.647h-7.2793zm-3.4676 3.6132c0.47911 0.98733 1.0006 1.9853 1.575 2.9779 0.59293 1.0191 1.2123 1.9853 1.8529 2.9117-1.6411-0.3322-3.1499-0.78616-4.5264-1.3367 0.2025-1.4426 0.56514-2.9646 1.0906-4.5396zm21.441 0.0052c0.52808 1.575 0.88807 3.097 1.0879 4.5396-1.35 0.54793-2.8588 0.99924-4.4734 1.3367 0.62072-0.91057 1.2242-1.8661 1.8-2.8588 0.58234-1.0059 1.1064-2.0117 1.5882-3.0043zm-22.764 6.3528c1.8397 0.72395 3.9176 1.2441 6.194 1.5617 1.4029 1.7603 2.8852 3.2823 4.4073 4.4734-0.0036 0.0023-0.0067 0.0054-0.01032 0.0078-1.6147 1.0363-3.0573 1.4823-4.4734 1.7073-1.4161 0.23029-2.4617-0.12375-3.2558-0.57969-0.7941-0.45595-1.6147-1.1885-2.1308-2.5279-0.49896-1.3195-0.82586-2.7661-0.7491-4.6455zm23.955 0c0.06604 1.8397-0.25676 3.269-0.7491 4.5528-0.50558 1.3235-1.3367 2.0514-2.1308 2.5014-0.78881 0.45264-1.8397 0.80072-3.2558 0.57175-1.3632-0.22102-2.7661-0.65381-4.3278-1.6147 1.4956-1.2057 2.9514-2.7132 4.3278-4.4734 2.2367-0.31764 4.3014-0.8338 6.1146-1.5485zm-8.6292 1.8132c-1.08 1.2189-2.197 2.2764-3.322 3.1632-1.1448-0.88013-2.2764-1.9455-3.3749-3.1632 1.08 0.07954 2.1838 0.12931 3.322 0.12931 1.1554 0 2.2764-0.04897 3.3882-0.13182z" fill="#1f52e0" stroke-width="1.3235"/>
</svg>
