<svg xmlns="http://www.w3.org/2000/svg" width="64" height="64"><rect width="52" height="52" x="6" y="6" fill="#ececec" rx="8" ry="8" style="paint-order:stroke fill markers"/><path fill="#1f52e0" d="M39.156 14.012a9 9 0 0 0-.938.003c-.416.022-.829.073-1.234.139-1.615.264-3.282.962-4.963 2.038-.036.023-.072.051-.108.075-1.655-1.04-3.296-1.72-4.897-1.986-1.615-.263-3.362-.263-4.95.646s-2.462 2.409-3.031 3.931c-.576 1.509-.806 3.282-.719 5.241l-.018.008c-1.76.913-3.203 2.012-4.248 3.282-1.038 1.27-1.906 2.78-1.906 4.606s.87 3.335 1.906 4.606 2.475 2.369 4.248 3.282l.018.008-.002.026c-.092 1.985.139 3.785.718 5.32.58 1.536 1.456 3.044 3.031 3.958 1.588.915 3.322.918 4.95.653s3.282-.964 4.963-2.038c.037-.024.074-.053.111-.077 1.655 1.04 3.296 1.72 4.897 1.985 1.615.263 3.362.26 4.95-.649s2.462-2.408 3.03-3.93c.578-1.51.807-3.283.72-5.242l.018-.007c1.76-.914 3.203-2.012 4.248-3.283 1.038-1.269 1.906-2.779 1.906-4.605s-.87-3.336-1.906-4.606c-1.038-1.27-2.475-2.37-4.248-3.283l-.024-.01.003-.018c.091-1.985-.139-3.785-.719-5.32s-1.455-3.045-3.03-3.958c-.893-.515-1.84-.74-2.78-.794zm-.277 1.522a4.7 4.7 0 0 1 2.264.649c.788.455 1.614 1.188 2.13 2.527.5 1.319.826 2.767.75 4.646-1.84-.723-3.918-1.244-6.195-1.562-1.402-1.76-2.885-3.269-4.407-4.473l.01-.008c1.615-1.036 3.058-1.482 4.474-1.707q.528-.085.993-.073zm-13.764.122q.465-.013.993.072a11.4 11.4 0 0 1 4.328 1.615c-1.496 1.204-2.952 2.713-4.328 4.46-2.25.317-4.301.835-6.115 1.548-.065-1.84.257-3.269.75-4.552.505-1.324 1.336-2.052 2.13-2.502a4.65 4.65 0 0 1 2.264-.643zm6.816 2.726a25.5 25.5 0 0 1 3.375 3.15 45 45 0 0 0-3.309-.127c-1.158 0-2.29.049-3.388.132a26 26 0 0 1 3.322-3.163zm7.372 5.453c1.641.332 3.15.782 4.513 1.336a26 26 0 0 1-1.09 4.553 44 44 0 0 0-1.575-2.964 44 44 0 0 0-1.853-2.912zm-14.69.008a47 47 0 0 0-1.814 2.872 49 49 0 0 0-1.588 3.004 25 25 0 0 1-1.09-4.54 25 25 0 0 1 4.473-1.323zM28 25.39h7.28c3.216 0 4.34 3.19 3.864 5.294l-.889 3.97c-.592 2.648-2.978 3.971-5.625 3.971h-6.617l.661-2.647h5.294c2.528 0 3.481-1.509 3.839-3.309l.268-1.323c.53-2.647-.797-3.31-2.78-3.31H27.34zm17.47.537a11.3 11.3 0 0 1 3.653 2.978c.906 1.107 1.128 2.197 1.128 3.097s-.222 1.999-1.128 3.11c-.892 1.09-1.985 2.092-3.64 2.965-.284-1.932-.871-3.97-1.72-6.075.847-2.104 1.43-4.156 1.72-6.075zm-26.999.003c.285 1.932.87 3.97 1.721 6.075-.847 2.104-1.43 4.156-1.72 6.075a11.3 11.3 0 0 1-3.653-2.978c-.906-1.107-1.128-2.197-1.128-3.11 0-.914.222-1.999 1.128-3.097a11.4 11.4 0 0 1 3.64-2.978zm6.221 4.751h7.28l-.662 2.647h-7.28zm-3.468 3.614c.48.987 1.001 1.985 1.575 2.977a44 44 0 0 0 1.853 2.912 26 26 0 0 1-4.526-1.337 25.7 25.7 0 0 1 1.09-4.54zm21.441.005a25 25 0 0 1 1.088 4.54c-1.35.547-2.859.999-4.473 1.336.62-.91 1.224-1.866 1.8-2.859a47 47 0 0 0 1.588-3.004zm-22.764 6.353c1.84.723 3.918 1.244 6.194 1.561 1.403 1.76 2.886 3.283 4.408 4.474l-.01.007c-1.615 1.037-3.058 1.483-4.474 1.708-1.416.23-2.462-.124-3.256-.58s-1.615-1.188-2.13-2.528a11.3 11.3 0 0 1-.75-4.645zm23.955 0c.066 1.84-.256 3.269-.749 4.552-.505 1.324-1.336 2.052-2.13 2.502-.79.452-1.84.8-3.256.571a11.5 11.5 0 0 1-4.328-1.614c1.495-1.206 2.951-2.713 4.328-4.474 2.236-.317 4.301-.833 6.114-1.548zm-8.629 1.813a26 26 0 0 1-3.322 3.163c-1.145-.88-2.276-1.946-3.375-3.163 1.08.08 2.184.13 3.322.13a46 46 0 0 0 3.388-.133z"/></svg>