<svg width="64" height="64" version="1.1" xmlns="http://www.w3.org/2000/svg">
 <rect x="3" y="17" width="58" height="30" rx="4.143" ry="4.091" fill="#0056c0"/>
 <circle cx="32" cy="32" r="23" fill="#0086f4"/>
 <path d="m39.959 22.352c-1.3545-3.4402-4.7484-3.7505-8.7009-2.9827l-1.4072-4.9071-2.9868 0.8568 1.3702 4.7777c-0.78519 0.22526-1.5834 0.47092-2.3763 0.7155l-1.3786-4.8095-2.9853 0.85594 1.4056 4.906c-0.64289 0.19864-1.2745 0.39275-1.8936 0.57072l-0.0046-0.015-4.1201 1.1799 0.91554 3.1899s2.1937-0.67453 2.1686-0.6234c1.21-0.34656 1.8051 0.24291 2.0935 0.81617l1.6032 5.5901c0.74924 2.6121 1.5012 5.2363 2.2511 7.8527 0.05606 0.39599 0.0062 1.0673-0.83851 1.3111 0.04794 0.02292-2.1714 0.62202-2.1714 0.62202l0.42939 3.7373 3.887-1.1147c0.7236-0.20656 1.4388-0.39838 2.1388-0.59429l1.4244 4.9626 2.9838-0.85508-1.4082-4.9105c0.8241-0.21798 1.6188-0.43881 2.3926-0.66146l1.4003 4.8883 2.9868-0.8568-1.4196-4.9544c4.939-1.728 8.0909-4.001 7.1751-8.8417-0.73644-3.8982-3.0085-5.0803-6.0553-4.9474 1.4789-1.3784 2.1161-3.2426 1.1206-5.7586zm-1.1359 11.81c1.0652 3.7084-5.4063 5.1075-7.4301 5.6899l-1.8848-6.5759c2.025-0.58015 8.2059-2.9825 9.3149 0.88595zm-4.0494-8.879c0.96664 3.3746-4.4425 4.4995-6.1286 4.9831l-1.7099-5.9639c1.6861-0.48363 6.829-2.5386 7.8386 0.98072z" fill="#ffffff"/>
</svg>
