<svg xmlns="http://www.w3.org/2000/svg" width="64" height="64"><rect width="52" height="52" x="6" y="6" fill="#4d4d4d" rx="8" ry="8" style="paint-order:stroke fill markers"/><path fill="#3966e5" d="M32 21.414c-5.331 0-10.16.873-13.758 2.699-1.76.913-3.202 2.01-4.247 3.28s-1.905 2.779-1.905 4.605.87 3.333 1.905 4.603c1.037 1.269 2.474 2.368 4.247 3.281 3.532 1.826 8.36 2.699 13.758 2.699s10.16-.873 13.758-2.699c1.76-.913 3.201-2.01 4.246-3.28 1.038-1.27 1.905-2.779 1.905-4.604s-.869-3.334-1.905-4.604-2.473-2.368-4.246-3.281c-3.532-1.826-8.36-2.699-13.758-2.699m0 1.72c5.265 0 10 .986 13.361 2.752 1.707.882 2.805 1.905 3.717 3.016.905 1.106 1.125 2.196 1.125 3.096s-.22 1.997-1.125 3.095c-.904 1.106-2.01 2.13-3.717 3.016-3.413 1.76-8.149 2.752-13.361 2.752s-10.001-.986-13.361-2.752c-1.707-.882-2.805-1.905-3.718-3.016-.905-1.106-1.124-2.196-1.124-3.095s.22-1.998 1.124-3.096c.905-1.106 2.011-2.13 3.718-3.016 3.413-1.76 8.149-2.752 13.36-2.752"/><path fill="#3966e5" d="M22.872 26.706c-2.672 4.617-4.326 9.234-4.511 13.216-.092 1.984.137 3.783.717 5.318s1.455 3.042 3.042 3.955c1.588.916 3.32.917 4.948.652s3.28-.963 4.96-2.037c3.348-2.143 6.523-5.9 9.182-10.517 2.672-4.617 4.326-9.234 4.51-13.216.092-1.984-.137-3.783-.716-5.318s-1.455-3.042-3.043-3.955-3.32-.917-4.947-.652-3.281.963-4.961 2.037c-3.347 2.143-6.522 5.9-9.181 10.517m1.495.86c2.632-4.564 5.86-8.176 9.088-10.24 1.614-1.035 3.056-1.481 4.471-1.706 1.416-.23 2.461.122 3.255.577s1.614 1.188 2.116 2.527.84 2.804.752 4.722c-.177 3.837-1.694 8.44-4.326 12.991-2.633 4.564-5.86 8.176-9.088 10.24-1.614 1.035-3.056 1.481-4.472 1.706-1.415.23-2.46-.122-3.254-.577s-1.614-1.188-2.117-2.527-.84-2.804-.751-4.722c.177-3.837 1.693-8.44 4.326-12.991"/><path fill="#3966e5" d="M41.128 26.706c2.672 4.59 4.326 9.168 4.51 13.11.092 1.971-.137 3.757-.716 5.278s-1.455 3.016-3.043 3.93-3.32.91-4.947.646c-1.614-.262-3.281-.956-4.961-2.024-3.347-2.13-6.522-5.847-9.181-10.438-2.672-4.59-4.326-9.167-4.511-13.11-.092-1.97.137-3.757.717-5.278s1.455-3.016 3.042-3.929c1.588-.909 3.32-.91 4.948-.647 1.614.262 3.28.957 4.96 2.024 3.348 2.13 6.523 5.847 9.182 10.438m-1.495.853c-2.633-4.524-5.86-8.11-9.088-10.173a11.2 11.2 0 0 0-4.472-1.693c-1.415-.23-2.46.12-3.254.573-.789.45-1.614 1.18-2.117 2.5a11.1 11.1 0 0 0-.751 4.683c.177 3.81 1.693 8.374 4.326 12.898s5.86 8.11 9.088 10.173a11.2 11.2 0 0 0 4.471 1.694c1.416.228 2.461-.12 3.255-.573.788-.451 1.614-1.18 2.116-2.5.506-1.323.84-2.779.752-4.684-.177-3.81-1.693-8.374-4.326-12.898"/><path fill="#47abeb" d="M35.44 31.336c.634-.423 1.268-.661 1.256-1.984-.01-1.84-1.984-2.646-3.307-2.646V24.06h-1.323v2.646h-1.323V24.06H29.42v2.646h-2.646v1.323c1.073 0 1.323.278 1.323 1.323v5.9c0 .524-.259.713-.735.713l-.588 1.323h2.646v2.646h1.323v-2.646h1.323v2.646h1.323v-2.646c1.323 0 3.969-.555 3.969-2.87 0-1.893-.874-2.726-1.919-3.083m-4.696-3.308c1.865 0 3.44 0 3.44 1.323s-1.747 1.323-3.44 1.323m0 1.323c1.323 0 3.969 0 3.969 1.985s-1.985 1.984-3.969 1.984"/></svg>