<svg width="64" height="64" version="1.1" viewBox="0 0 16.933 16.933" xmlns="http://www.w3.org/2000/svg">
 <rect x="1.5871" y="1.5868" width="13.758" height="13.758" rx="2.9101" ry="2.9101" fill="#0dbc8a" stroke-width="1.0005" style="paint-order:markers stroke fill"/>
 <path d="m7.6199 3.1749c-0.35069 0-0.63475 0.28405-0.63475 0.63475s0.28406 0.63561 0.63475 0.63561c1.6366 0 2.9636 1.3262 2.9636 2.9627 0 0.3507 0.28405 0.63475 0.63475 0.63475s0.63475-0.28405 0.63475-0.63475c0-2.338-1.8951-4.2331-4.2331-4.2331zm-0.21187 1.9051c-2.338 4.5e-6 -4.2331 1.8951-4.2331 4.2331 0 0.3507 0.28405 0.63475 0.63475 0.63475 0.35069 0 0.63561-0.28405 0.63561-0.63475 0-1.6366 1.3262-2.9636 2.9627-2.9636 0.3507 0 0.63475-0.28405 0.63475-0.63475 0-0.35069-0.28405-0.63475-0.63475-0.63475zm5.7153 1.9051c-0.3507 0-0.63561 0.28406-0.63561 0.63475 0 1.6366-1.3261 2.9636-2.9627 2.9636-0.3507 0-0.63475 0.28405-0.63475 0.63475s0.28405 0.63475 0.63475 0.63475c2.3379 0 4.2331-1.8951 4.2331-4.2331 0-0.35069-0.28405-0.63475-0.63475-0.63475zm-7.4085 1.9051c-0.35069 0-0.63475 0.28405-0.63475 0.63475 0 2.3379 1.8951 4.2331 4.2331 4.2331 0.3507 0 0.63475-0.28405 0.63475-0.63475 0-0.3507-0.28405-0.63561-0.63475-0.63561-1.6366 0-2.9636-1.3261-2.9636-2.9627 0-0.3507-0.28405-0.63475-0.63475-0.63475z" fill="#fff" stroke-width=".26458"/>
</svg>
