<svg xmlns="http://www.w3.org/2000/svg" width="64" height="64" viewBox="0 0 16.933 16.933"><rect width="13.758" height="13.758" x="1.587" y="1.587" fill="#0dbc8a" rx="2.91" ry="2.91" style="paint-order:markers stroke fill"/><path fill="#fff" d="M7.62 3.175a.635.635 0 1 0 0 1.27 2.963 2.963 0 0 1 2.964 2.963.635.635 0 1 0 1.269 0A4.233 4.233 0 0 0 7.62 3.175M7.408 5.08a4.233 4.233 0 0 0-4.233 4.233.635.635 0 1 0 1.27 0A2.963 2.963 0 0 1 7.408 6.35a.635.635 0 1 0 0-1.269zm5.715 1.905a.635.635 0 0 0-.635.635 2.963 2.963 0 0 1-2.963 2.963.635.635 0 1 0 0 1.27 4.233 4.233 0 0 0 4.233-4.233.635.635 0 0 0-.635-.635M5.715 8.89a.635.635 0 0 0-.635.635 4.233 4.233 0 0 0 4.233 4.233.635.635 0 1 0 0-1.27A2.963 2.963 0 0 1 6.35 9.525a.635.635 0 0 0-.635-.635"/></svg>