<svg xmlns="http://www.w3.org/2000/svg" width="64" height="64" viewBox="0 0 16.933 16.933"><defs><clipPath id="a"><circle cx="8.467" cy="288.53" r="6.879" fill="#d86eb0" stroke-opacity=".039" stroke-width=".491" style="paint-order:stroke markers fill"/></clipPath></defs><rect width="14.287" height="14.287" x="1.323" y="1.323" fill="#2bd1d4" rx="7.144" ry="7.144"/><path fill="#fff" d="M11.16 4.08a1.276 1.276 0 0 0-.294.039L8.8 4.538 6.964 4.9c-.21.045-.315.136-.362.27a.525.525 0 0 0-.022.085c-.01.061-.012.128-.01.203l.005 4.645a1.73 1.73 0 0 1-.02.217.387.387 0 0 1-.11.23.549.549 0 0 1-.296.119c-.416.062-.727.144-.957.247-.046.02-.089.041-.129.063-.08.044-.148.091-.205.141a.801.801 0 0 0-.277.532 1.467 1.467 0 0 0-.011.211 1.018 1.018 0 0 0 .325.736 1.014 1.014 0 0 0 .572.25c.074.007.153.007.234-.001.215-.024.408-.063.58-.129a1.208 1.208 0 0 0 .713-.714c.032-.093.054-.213.068-.349.018-.18.02-.388.008-.598l-.006-3.694c0-.097-.005-.178.006-.245 0-.006.003-.011.004-.017a.194.194 0 0 1 .045-.1c.043-.049.117-.085.246-.112l2.063-.416 1.224-.247c.1-.02.173-.013.222.027.048.04.073.113.074.225l.006 2.76c-.008.164-.02.283-.076.369a.275.275 0 0 1-.052.058.444.444 0 0 1-.17.083c-.037.01-.078.02-.125.027a5.273 5.273 0 0 0-.45.085 2.75 2.75 0 0 0-.508.169 1.467 1.467 0 0 0-.24.137.981.981 0 0 0-.173.156c-.167.193-.215.421-.212.677a.947.947 0 0 0 .495.835c.12.066.258.108.409.121.075.007.154.007.236-.001a2.42 2.42 0 0 0 .575-.123c.113-.042.216-.096.31-.167a1.231 1.231 0 0 0 .391-.533c.07-.215.077-.564.085-.937l-.004-5.652a1.495 1.495 0 0 0-.02-.241c-.002-.01-.003-.02-.006-.028a.35.35 0 0 0-.03-.08.209.209 0 0 0-.047-.056l-.019-.014a.219.219 0 0 0-.049-.024l-.023-.008a.389.389 0 0 0-.091-.013z"/><g fill="none" stroke="#fff" stroke-opacity=".937" stroke-width=".127" clip-path="url(#a)" transform="translate(-.326 -291.3) scale(1.0385)"><path d="M1.485 287.74c.72.155 1.391.625 1.983 1.98.674 1.545 1.623 2.23 2.772 2.284 1.48.07 2.673-1.226 3.459-2.385 1.602-2.362 4.519-2.136 5.816-1.251" opacity=".35"/><path d="M1.493 288.13c.894-.35 2.083-.424 2.872.827.722 1.143 1.576 2.867 4.049 2.709 1.478-.095 2.956-.71 3.718-2.15.53-.933 1.26-1.872 2.293-2.104.382-.081.655-.07.976.057" opacity=".35"/><path d="M1.775 290.25c.947-.444 2.745-.953 4.197-.53 1.297.38 2.937 1.847 6.056 1.504.824-.09 1.522-.563 2.183-1.464.478-.652.75-1.02 1.306-1.167" opacity=".35"/></g></svg>