<svg width="64" height="64" version="1.1" viewBox="0 0 16.933 16.933" xmlns="http://www.w3.org/2000/svg">
 <defs>
  <clipPath id="a">
   <circle cx="8.467" cy="288.53" r="6.879" fill="#d86eb0" stroke-opacity=".039" stroke-width=".491" style="paint-order:stroke markers fill"/>
  </clipPath>
 </defs>
 <rect x="1.3229" y="1.3229" width="14.287" height="14.287" rx="7.1436" ry="7.1436" fill="#2bd1d4" stroke-width=".96424"/>
 <path d="m11.16 4.0791c-0.07685-0.00154-0.17302 0.012397-0.2936 0.039652l-2.0663 0.41924-1.8356 0.36221c-0.21081 0.045065-0.31533 0.13541-0.36221 0.26953-0.00937 0.026821-0.016689 0.055236-0.021831 0.08554-0.010345 0.060733-0.012689 0.12814-0.010693 0.20271l0.00535 4.6449c-0.00383 0.08161-0.00915 0.15376-0.020494 0.21741-2.3e-5 1.29e-4 2.29e-5 3.17e-4 0 4.46e-4 -0.017036 0.09526-0.048092 0.17112-0.11004 0.22856-0.062049 0.05753-0.15499 0.09687-0.29583 0.1194-0.41534 0.06182-0.72627 0.14446-0.95698 0.24681-0.046142 0.02047-0.08882 0.04167-0.12875 0.06371-0.079869 0.04407-0.14798 0.09103-0.20538 0.14123-0.086106 0.0753-0.14851 0.15772-0.19291 0.24638-0.0148 0.02955-0.027364 0.05946-0.038315 0.09044-0.022014 0.06216-0.036543 0.12684-0.045443 0.19469-0.00888 0.06766-0.012151 0.13802-0.011138 0.21118 0.00301 0.21856 0.071235 0.42097 0.18979 0.58498 0.039588 0.05477 0.08476 0.10517 0.13499 0.15059 0.050056 0.04526 0.10533 0.0855 0.16484 0.11984 0.11924 0.06885 0.25625 0.11437 0.40676 0.12965 0.07525 0.0076 0.15385 0.0078 0.23522-4.46e-4 0.21414-0.02382 0.40788-0.06231 0.58008-0.12875 0.28703-0.11063 0.51427-0.29944 0.67764-0.62953 0.012651-0.02487 0.024174-0.05303 0.03475-0.0842 0.031729-0.09351 0.054137-0.21334 0.06772-0.34884 0.018109-0.18067 0.020533-0.3889 0.00802-0.59832l-0.00535-3.6946c4.192e-4 -0.09679-0.00509-0.17773 0.00535-0.2446 2.35e-5 -1.489e-4 -2.36e-5 -2.967e-4 0-4.454e-4 9.273e-4 -0.0059 0.00326-0.010803 0.00446-0.016484 0.00333-0.015821 0.00658-0.031687 0.012474-0.045888 8e-3 -0.019301 0.018338-0.03701 0.032523-0.053464 0.042604-0.049342 0.11695-0.086062 0.24549-0.11272l2.0632-0.41612v-4.456e-4l1.2247-0.24681c0.09961-0.02009 0.17275-0.012908 0.22142 0.027177 0.04856 0.040153 0.07288 0.11327 0.07441 0.22543l0.0054 2.7605c-0.0077 0.16323-0.0194 0.2823-0.07618 0.368-0.01421 0.021418-0.0312 0.040491-0.05167 0.057919-0.04088 0.034786-0.09583 0.062383-0.1693 0.083313-1.48e-4 4.2e-5 -2.97e-4 -4.22e-5 -4.46e-4 0-0.03674 0.010429-0.07841 0.019246-0.12519 0.026732-0.16616 0.024728-0.31568 0.053386-0.45001 0.085539-0.20135 0.048197-0.36888 0.10464-0.5075 0.16841-0.092467 0.04256-0.17256 0.08822-0.24102 0.13722-0.068453 0.049-0.12529 0.10132-0.17286 0.15638-0.16652 0.19264-0.21472 0.42115-0.21118 0.6772 0.00501 0.36429 0.19426 0.67161 0.49454 0.83492 0.12011 0.06532 0.25808 0.10756 0.409 0.12118 0.07546 0.0068 0.15428 0.0064 0.23568-0.0018 0.21414-0.02382 0.40557-0.05941 0.57517-0.12252 0.11306-0.04205 0.21637-0.09642 0.31009-0.16752 0.14058-0.10666 0.2597-0.25103 0.35776-0.4491 0.01259-0.02476 0.02397-0.0528 0.03386-0.08331 4.1e-5 -1.28e-4 -4.2e-5 -3.18e-4 0-4.46e-4 0.06941-0.21481 0.0768-0.56408 0.0842-0.93692l-0.0035-5.6518c-3e-5 -0.068457-4e-3 -0.1262-0.01024-0.17865-0.0026-0.021705-0.0058-0.043762-0.0098-0.062818-0.0019-0.00926-0.0035-0.018975-0.0058-0.027621-8e-3 -0.029948-0.01754-0.05746-0.0303-0.080193-0.01267-0.022581-0.02902-0.040402-0.04723-0.056135-0.0058-0.00494-0.01239-0.00908-0.01871-0.013366-0.01458-0.00987-0.03102-0.018062-0.04901-0.024503-0.0074-0.00267-0.01463-0.00592-0.02272-0.00802-0.02714-0.00702-0.05662-0.01178-0.09133-0.012474z" fill="#ffffff" stroke-width=".86215"/>
 <g transform="matrix(1.0385 0 0 1.0385 -.32601 -291.3)" clip-path="url(#a)" fill="none" stroke="#ffffff" stroke-opacity=".937" stroke-width=".127">
  <path d="m1.4854 287.74c0.719 0.15538 1.3906 0.6252 1.9826 1.9807 0.674 1.544 1.623 2.229 2.772 2.283 1.48 0.07 2.673-1.226 3.459-2.385 1.602-2.362 4.5188-2.1357 5.8165-1.2509" opacity=".35"/>
  <path d="m1.4927 288.13c0.89388-0.34988 2.0828-0.42377 2.8723 0.82673 0.722 1.143 1.576 2.867 4.049 2.709 1.478-0.095 2.956-0.71 3.718-2.15 0.52913-0.93299 1.2601-1.8714 2.2929-2.1036 0.38219-0.0816 0.65524-0.0703 0.97604 0.0566" opacity=".35"/>
  <path d="m1.7748 290.25c0.94712-0.44412 2.7457-0.95337 4.1972-0.52987 1.297 0.379 2.937 1.847 6.056 1.504 0.824-0.09 1.522-0.563 2.183-1.464 0.4785-0.6525 0.75018-1.0197 1.3056-1.1669" opacity=".35"/>
 </g>
</svg>
