<svg width="64" height="64" version="1.1" viewBox="0 0 16.933 16.933" xmlns="http://www.w3.org/2000/svg">
 <g transform="translate(0 -280.07)">
  <rect x="1.587" y="285.89" width="11.642" height="7.408" rx=".79383" ry=".79383" fill="#5ca4ed" paint-order="stroke markers fill"/>
  <path d="m9.2602 286.42v1.3229h0.90174l1.48 1.3151c0.19 0.04 0.26406-0.07009 0.26406-0.26509v-1.05h0.26458v-1.3229h-2.9104z" fill="#a0ecff"/>
  <path d="M4.233 290.642h2.91c.147 0 .304.123.265.265l-.508 1.847c-.04.141-.176.172-.285.27l-2.382 2.116c-.19.04-.264-.07-.264-.265v-3.968c0-.147.118-.265.264-.265z" fill="#5ca4ed" paint-order="markers stroke fill"/>
  <circle cx="4.763" cy="289.59" r=".661" fill="#fff" opacity=".35" paint-order="markers stroke fill"/>
  <circle cx="7.408" cy="289.59" r=".661" fill="#fff" opacity=".35" paint-order="markers stroke fill"/>
  <circle cx="10.054" cy="289.59" r=".661" fill="#fff" opacity=".35" paint-order="markers stroke fill"/>
 </g>
 <rect x="5.8207" y="1.852" width="9.5248" height="5.8207" rx=".79373" ry=".79373" fill="#a0ecff" stop-color="#000000" stroke-width="0"/>
</svg>
