<svg xmlns="http://www.w3.org/2000/svg" width="64" height="64" viewBox="0 0 16.933 16.933"><g transform="translate(0 -280.07)"><rect width="11.642" height="7.408" x="1.587" y="285.89" fill="#5ca4ed" paint-order="stroke markers fill" rx=".794" ry=".794"/><path fill="#a0ecff" d="M9.26 286.42v1.323h.902l1.48 1.315c.19.04.264-.07.264-.265v-1.05h.265v-1.323H9.26z"/><path fill="#5ca4ed" d="M4.233 290.642h2.91c.147 0 .304.123.265.265l-.508 1.847c-.04.141-.176.172-.285.27l-2.382 2.116c-.19.04-.264-.07-.264-.265v-3.968c0-.147.118-.265.264-.265z" paint-order="markers stroke fill"/><circle cx="4.763" cy="289.59" r=".661" fill="#fff" opacity=".35" paint-order="markers stroke fill"/><circle cx="7.408" cy="289.59" r=".661" fill="#fff" opacity=".35" paint-order="markers stroke fill"/><circle cx="10.054" cy="289.59" r=".661" fill="#fff" opacity=".35" paint-order="markers stroke fill"/></g><rect width="9.525" height="5.821" x="5.821" y="1.852" fill="#a0ecff" rx=".794" ry=".794"/></svg>