<svg xmlns="http://www.w3.org/2000/svg" width="64" height="64"><path fill="#c8f178" d="M31.653 3.002a6.468 6.48 0 0 0-3.387.864L9.234 14.876a6.468 6.48 0 0 0-3.235 5.612v22.02a6.468 6.48 0 0 0 3.234 5.613l19.032 11.01a6.468 6.48 0 0 0 6.468 0l19.032-11.01A6.468 6.48 0 0 0 57 42.508v-22.02a6.468 6.48 0 0 0-3.235-5.613L34.733 3.865a6.468 6.48 0 0 0-3.08-.864z"/><path fill="#86bd1f" d="M31.561 9a2.57 2.57 0 0 0-1.369.355l-16.898 9.933c-.754.443-1.295 1.403-1.295 2.28v19.873c0 .877.55 1.84 1.295 2.278l16.9 9.935a2.63 2.63 0 0 0 2.61 0l16.9-9.935c.745-.438 1.295-1.4 1.295-2.278V21.567c0-.878-.55-1.84-1.295-2.278L32.806 9.355a1.887 1.93 0 0 0-.003 0 2.56 2.56 0 0 0-1.24-.354 1.887 1.93 0 0 0-.003 0z"/><path fill="#c8f178" d="M7.774 16.036a6.468 6.48 0 0 0-1.45 2.45l23.76 13.837V59.84a6.468 6.48 0 0 0 1.264.159 6.468 6.48 0 0 0 1.569-.164V32.324l23.762-13.841a6.468 6.48 0 0 0-1.455-2.447L31.5 29.852z"/><rect width="32" height="32" x="30" y="30" fill="#f9f9f9" rx="16" ry="16"/><path fill="#4d4d4d" d="M57.2 46a11.2 11.2 0 0 1-22.4 0 11.2 11.2 0 1 1 22.4 0"/><path fill="#fff" d="M46.112 42.267a3.73 3.73 0 0 0-3.842 3.732c0 4.978 7.466 4.978 7.466 0a3.733 3.733 0 0 0-3.624-3.732m-.109 2.985a.747.747 0 1 1 0 1.494.747.747 0 0 1 0-1.494"/></svg>