<svg xmlns="http://www.w3.org/2000/svg" width="64" height="64" viewBox="0 0 16.933 16.933"><rect width="12.7" height="13.758" x="2.117" y="1.587" fill="#303030" rx="1.587" ry="1.587" style="paint-order:stroke fill markers"/><rect width="10.583" height="11.641" x="3.175" y="2.646" fill="#fff" opacity=".25" rx="1.058" ry="1.058" style="paint-order:stroke fill markers"/><path fill="#037ad9" d="M8.467.793c-.435 0-.795.36-.795.795s.36.793.795.793.793-.358.793-.793-.358-.795-.793-.795" color="#000" style="font-feature-settings:normal;font-variant-alternates:normal;font-variant-caps:normal;font-variant-east-asian:normal;font-variant-ligatures:normal;font-variant-numeric:normal;font-variant-position:normal;font-variation-settings:normal;inline-size:0;isolation:auto;mix-blend-mode:normal;shape-margin:0;shape-padding:0;text-decoration-color:#000;text-decoration-line:none;text-decoration-style:solid;text-indent:0;text-orientation:mixed;text-transform:none;white-space:normal"/><path fill="#fff" d="M4.233 3.175a.53.53 0 0 0-.529.53v9.524c0 .293.236.529.53.529H9.79l3.439-3.439V3.704a.53.53 0 0 0-.53-.53z" opacity=".9"/><path fill="#46a9ee" fill-rule="evenodd" d="M6.086 3.44s.34-2.117 1.02-2.117h2.721c.681 0 1.02 2.116 1.02 2.116z"/><g fill-opacity=".961" fill-rule="evenodd" color="#000"><path d="M7.144 4.63h1.852m-3.44 1.058h.794m2.381 0h.794M7.673 6.747h.794M6.88 7.805h.793M6.615 8.863h.793m-.793-3.175h.529M5.556 6.747h1.852m.53 1.058H9.79m-3.705 0h.53m1.058 1.058h1.323m-3.44 0h.794m-.794-1.058h.265m1.587-2.117h.265m1.852 3.175h.53M7.938 5.688h.264m.529 1.059h.265m.264 0h.265M9.79 4.63h.529M9.79 5.688h.529m0 1.059h1.323m-1.059 1.058h.265m.265 0h.264m-.794-2.117h.265M7.144 9.922h.793M6.88 10.98h.793M5.556 9.922H6.88m2.645 0h1.852M6.085 10.98h.53m-1.059 0h.265m2.381-1.058h.265m.264 0h.265M7.938 10.98h.793m2.117-6.35h.53" style="font-feature-settings:normal;font-variant-alternates:normal;font-variant-caps:normal;font-variant-east-asian:normal;font-variant-ligatures:normal;font-variant-numeric:normal;font-variant-position:normal;font-variation-settings:normal;inline-size:0;isolation:auto;mix-blend-mode:normal;shape-margin:0;shape-padding:0;text-decoration-color:#000;text-decoration-line:none;text-decoration-style:solid;text-indent:0;text-orientation:mixed;text-transform:none;white-space:normal"/><path fill="#878787" d="M7.144 4.498v.264h1.852v-.264zm2.645 0v.264h.53v-.264zm1.059 0v.264h.53v-.264zM5.557 5.555v.265h.793v-.265zm1.058 0v.265h.53v-.265zm.793 0v.265h.266v-.265zm.53 0v.265H8.2v-.265zm.792 0v.265h.795v-.265zm1.059 0v.265h.53v-.265zm.793 0v.265h.266v-.265zm-5.025 1.06v.264h1.851v-.264zm2.117 0v.264h.793v-.264zm1.056 0v.264h.266v-.264zm.53 0v.264h.265v-.264zm1.058 0v.264h1.325v-.264zM5.557 7.672v.265h.263v-.265zm.529 0v.265h.53v-.265zm.795 0v.265h.793v-.265zm1.056 0v.265H9.79v-.265zm2.645 0v.265h.266v-.265zm.531 0v.265h.264v-.265zM5.557 8.73v.266h.793V8.73zm1.058 0v.266h.793V8.73zm1.059 0v.266h1.322V8.73zm1.851 0v.266h.53V8.73zM5.557 9.79v.266H6.88V9.79zm1.587 0v.266h.793V9.79zm1.057 0v.266h.266V9.79zm.53 0v.266h.265V9.79zm.794 0v.266h1.852V9.79zm-3.969 1.059v.265h.264v-.265zm.53 0v.265h.53v-.265zm.795 0v.265h.793v-.265zm1.056 0v.265h.793v-.265z" style="font-feature-settings:normal;font-variant-alternates:normal;font-variant-caps:normal;font-variant-east-asian:normal;font-variant-ligatures:normal;font-variant-numeric:normal;font-variant-position:normal;font-variation-settings:normal;inline-size:0;isolation:auto;mix-blend-mode:normal;shape-margin:0;shape-padding:0;text-decoration-color:#000;text-decoration-line:none;text-decoration-style:solid;text-indent:0;text-orientation:mixed;text-transform:none;white-space:normal"/></g><path fill="#fff" d="M9.79 10.318h3.44l-3.44 3.44z" paint-order="markers stroke fill"/></svg>