<svg width="64" height="64" version="1.1" viewBox="0 0 16.933 16.933" xmlns="http://www.w3.org/2000/svg" xmlns:xlink="http://www.w3.org/1999/xlink">
 <rect x="2.1166" y="1.5875" width="12.7" height="13.758" rx="1.5875" ry="1.5875" fill="#303030" stroke-linecap="square" stroke-width=".52916" style="paint-order:stroke fill markers"/>
 <rect x="3.1749" y="2.6458" width="10.583" height="11.641" rx="1.0583" ry="1.0583" fill="#ffffff" opacity=".25" stroke-linecap="square" stroke-width=".44434" style="paint-order:stroke fill markers"/>
 <path d="m8.4668 0.79297c-0.43523 0-0.79492 0.35969-0.79492 0.79492s0.35969 0.79297 0.79492 0.79297 0.79297-0.35774 0.79297-0.79297-0.35774-0.79492-0.79297-0.79492z" color="#000000" color-rendering="auto" dominant-baseline="auto" fill="#037ad9" image-rendering="auto" shape-rendering="auto" solid-color="#000000" stop-color="#000000" stroke-width="0" style="font-feature-settings:normal;font-variant-alternates:normal;font-variant-caps:normal;font-variant-east-asian:normal;font-variant-ligatures:normal;font-variant-numeric:normal;font-variant-position:normal;font-variation-settings:normal;inline-size:0;isolation:auto;mix-blend-mode:normal;shape-margin:0;shape-padding:0;text-decoration-color:#000000;text-decoration-line:none;text-decoration-style:solid;text-indent:0;text-orientation:mixed;text-transform:none;white-space:normal"/>
 <path d="m4.2332 3.1749c-0.29315 0-0.52916 0.236-0.52916 0.52916v9.5248c0 0.29315 0.236 0.52916 0.52916 0.52916h5.5567l3.439-3.439v-6.615c0-0.29315-0.236-0.52916-0.52916-0.52916z" fill="#ffffff" opacity=".9"/>
 <path d="m6.0863 3.44s0.33937-2.1172 1.0194-2.1172h2.7214c0.6813 0 1.0207 2.1158 1.0207 2.1158z" fill="#46a9ee" fill-rule="evenodd" stroke="#037ad9" stroke-width="0"/>
 <g fill-opacity=".961" fill-rule="evenodd" shape-rendering="auto">
  <path d="m7.144 4.63h1.852m-3.44 1.058h0.794m2.381 0h0.794m-1.852 1.059h0.794m-1.587 1.058h0.793m-1.058 1.058h0.793m-0.793-3.175h0.529m-1.588 1.059h1.852m0.53 1.058h1.852m-3.705 0h0.53m1.058 1.058h1.323m-3.44 0h0.794m-0.794-1.058h0.265m1.587-2.117h0.265m1.852 3.175h0.53m-2.117-3.175h0.264m0.529 1.059h0.265m0.264 0h0.265m0.265-2.117h0.529m-0.529 1.058h0.529m0 1.059h1.323m-1.059 1.058h0.265m0.265 0h0.264m-0.794-2.117h0.265m-3.704 4.234h0.793m-1.057 1.058h0.793m-2.117-1.058h1.324m2.645 0h1.852m-5.292 1.058h0.53m-1.059 0h0.265m2.381-1.058h0.265m0.264 0h0.265m-1.058 1.058h0.793m2.117-6.35h0.53" color="#000000" color-rendering="auto" dominant-baseline="auto" fill="#000000" image-rendering="auto" solid-color="#000000" stop-color="#000000" style="font-feature-settings:normal;font-variant-alternates:normal;font-variant-caps:normal;font-variant-east-asian:normal;font-variant-ligatures:normal;font-variant-numeric:normal;font-variant-position:normal;font-variation-settings:normal;inline-size:0;isolation:auto;mix-blend-mode:normal;shape-margin:0;shape-padding:0;text-decoration-color:#000000;text-decoration-line:none;text-decoration-style:solid;text-indent:0;text-orientation:mixed;text-transform:none;white-space:normal"/>
  <path d="m7.1445 4.498v0.26367h1.8516v-0.26367zm2.6445 0v0.26367h0.5293v-0.26367zm1.0586 0v0.26367h0.53125v-0.26367zm-5.291 1.0566v0.26562h0.79297v-0.26562zm1.0586 0v0.26562h0.5293v-0.26562zm0.79297 0v0.26562h0.26562v-0.26562zm0.5293 0v0.26562h0.26367v-0.26562zm0.79297 0v0.26562h0.79492v-0.26562zm1.0586 0v0.26562h0.5293v-0.26562zm0.79297 0v0.26562h0.26562v-0.26562zm-5.0254 1.0605v0.26367h1.8516v-0.26367zm2.1172 0v0.26367h0.79297v-0.26367zm1.0566 0v0.26367h0.26562v-0.26367zm0.5293 0v0.26367h0.26562v-0.26367zm1.0586 0v0.26367h1.3242v-0.26367zm-4.7617 1.0566v0.26562h0.26367v-0.26562zm0.5293 0v0.26562h0.5293v-0.26562zm0.79492 0v0.26562h0.79297v-0.26562zm1.0566 0v0.26562h1.8516v-0.26562zm2.6445 0v0.26562h0.26562v-0.26562zm0.53125 0v0.26562h0.26367v-0.26562zm-5.5566 1.0586v0.26562h0.79297v-0.26562zm1.0586 0v0.26562h0.79297v-0.26562zm1.0586 0v0.26562h1.3223v-0.26562zm1.8516 0v0.26562h0.5293v-0.26562zm-3.9688 1.0586v0.26563h1.3242v-0.26563zm1.5879 0v0.26563h0.79297v-0.26563zm1.0566 0v0.26563h0.26562v-0.26563zm0.5293 0v0.26563h0.26562v-0.26563zm0.79492 0v0.26563h1.8516v-0.26563zm-3.9688 1.0586v0.26562h0.26367v-0.26562zm0.5293 0v0.26562h0.5293v-0.26562zm0.79492 0v0.26562h0.79297v-0.26562zm1.0566 0v0.26562h0.79297v-0.26562z" color="#000000" color-rendering="auto" dominant-baseline="auto" fill="#878787" image-rendering="auto" solid-color="#000000" stop-color="#000000" style="font-feature-settings:normal;font-variant-alternates:normal;font-variant-caps:normal;font-variant-east-asian:normal;font-variant-ligatures:normal;font-variant-numeric:normal;font-variant-position:normal;font-variation-settings:normal;inline-size:0;isolation:auto;mix-blend-mode:normal;shape-margin:0;shape-padding:0;text-decoration-color:#000000;text-decoration-line:none;text-decoration-style:solid;text-indent:0;text-orientation:mixed;text-transform:none;white-space:normal"/>
 </g>
 <path d="m9.79 10.318h3.44l-3.44 3.44z" fill="#ffffff" paint-order="markers stroke fill"/>
</svg>
