<svg xmlns="http://www.w3.org/2000/svg" width="64" height="64"><circle cx="32" cy="32" r="27" fill="#711246"/><rect width="2.348" height="27" x="30.826" y="15.565" fill="#f9f9f9" ry="1.174" style="paint-order:normal"/><path fill="#f0d069" d="M32 29.652a8.19 8.19 0 0 0-7.873 5.87l.83 1.174-1.174 1.173v8.218h16.435v-8.218l-1.174-1.173.83-1.174A8.19 8.19 0 0 0 32 29.652" style="paint-order:normal"/><path fill="#f77d58" d="M24.127 35.522a8.3 8.3 0 0 0-.344 2.348h16.435c0-.817-.124-1.604-.344-2.348z" style="paint-order:normal"/><path fill="#f9f9f9" d="M20.848 19.674a3.52 3.52 0 0 1-3.522 3.522 3.52 3.52 0 0 1 3.522 3.521 3.52 3.52 0 0 1 3.522-3.521 3.52 3.52 0 0 1-3.522-3.522m23.478 5.87a3.52 3.52 0 0 1-3.522 3.521 3.52 3.52 0 0 1 3.522 3.522 3.52 3.52 0 0 1 3.522-3.522 3.52 3.52 0 0 1-3.522-3.521" style="paint-order:normal"/></svg>