<svg width="64" height="64" version="1.1" viewBox="0 0 64 64" xmlns="http://www.w3.org/2000/svg">
 <circle cx="32" cy="32" r="27" fill="#711246" stroke-width="1.1739"/>
 <rect x="30.826" y="15.565" width="2.3478" height="27" ry="1.1739" fill="#f9f9f9" stroke-width="1.1739" style="paint-order:normal"/>
 <path d="m32 29.652c-3.7352 0-6.8673 2.4692-7.8734 5.8696l0.82999 1.1739-1.1739 1.1739v8.2174h16.435v-8.2174l-1.1739-1.1739 0.82999-1.1739c-1.0062-3.4004-4.1383-5.8696-7.8734-5.8696z" fill="#f0d069" stroke-width="1.1739" style="paint-order:normal"/>
 <path d="m24.127 35.522c-0.22014 0.74403-0.34392 1.5305-0.34392 2.3478h16.435c0-0.81728-0.12378-1.6038-0.34392-2.3478z" fill="#f77d58" stroke-width="1.1739" style="paint-order:normal"/>
 <path d="m20.848 19.674c0 1.9451-1.5767 3.5217-3.5217 3.5217 1.9451 0 3.5217 1.5767 3.5217 3.5217 0-1.9451 1.5767-3.5217 3.5217-3.5217-1.9451 0-3.5217-1.5767-3.5217-3.5217zm23.478 5.8696c0 1.9451-1.5767 3.5217-3.5217 3.5217 1.9451 0 3.5217 1.5768 3.5217 3.5217-3.2e-5 -1.9451 1.5767-3.5217 3.5217-3.5217-1.9451 0-3.5217-1.5767-3.5217-3.5217z" fill="#f9f9f9" stroke-width="1.1739" style="paint-order:normal"/>
</svg>
