<svg width="64" height="64" version="1" xmlns="http://www.w3.org/2000/svg">
 <rect x="6" y="6" width="52" height="52" rx="8" ry="8" fill="#3c4553" stroke-width=".89655"/>
 <path d="m28.912 13.003c-1.1292-0.0154-1.3693 0.02969-1.6938 0.30748-0.24117 0.20642-0.4386 0.61722-0.51159 1.0682-0.03292 0.20338-0.05012 1.6276-0.05036 3.8726-2.85e-4 2.8364-0.01339 3.5492-0.0636 3.5492-0.03456 0-1.844-1.7829-4.0211-3.9627-2.1771-2.1799-4.0537-4.0278-4.1696-4.1085-0.3153-0.21962-0.87751-0.474-1.3227-0.5964-0.36648-0.10075-0.5289-0.10924-2.1895-0.12723-0.98674-0.01069-1.7945-0.0014-1.7945 0.02122 3e-6 0.02253 3.7692 3.8091 8.3763 8.4159 4.279 4.2787 7.3111 7.295 7.8143 7.7797v-16.214zm6.1762 0-0.37375 0.0053v16.214c0.50318-0.48475 3.5353-3.501 7.8143-7.7797 4.6071-4.6068 8.3763-8.3933 8.3763-8.4159 0-0.02253-0.8078-0.03189-1.7945-0.02122-1.6606 0.01799-1.823 0.02648-2.1895 0.12723-0.4452 0.1224-1.0074 0.37678-1.3227 0.5964-0.11586 0.0807-1.9925 1.9286-4.1696 4.1085-2.1771 2.1799-3.9866 3.9627-4.0211 3.9627-0.05018 0-0.06335-0.7128-0.06361-3.5492-2.47e-4 -2.245-0.01737-3.6692-0.05036-3.8726-0.073-0.451-0.27043-0.8618-0.5116-1.0682-0.32454-0.27778-0.56459-0.32288-1.6938-0.30748zm-22.035 6.9182c-0.05401 0-0.06114 0.30556-0.04506 1.6938 0.01897 1.6372 0.02216 1.7115 0.14579 2.1656 0.15583 0.57246 0.3642 1.0406 0.66798 1.5056 0.16893 0.25858 1.0637 1.1869 3.4009 3.5307l3.1703 3.1808-3.1703 3.1782c-2.3371 2.3438-3.2319 3.2721-3.4009 3.5307-0.30378 0.46498-0.51215 0.93312-0.66798 1.5056-0.12362 0.45412-0.12681 0.52835-0.14579 2.1656-0.01609 1.3882-0.0089 1.6938 0.04506 1.6938 0.09149 0 12.069-11.982 12.069-12.074s-11.977-12.076-12.069-12.076zm37.895 0c-0.09149 0-12.069 11.985-12.069 12.076 0 0.09154 11.977 12.074 12.069 12.074 0.05396 0 0.06114-0.30556 0.04506-1.6938-0.01896-1.6372-0.02217-1.7115-0.14579-2.1656-0.15584-0.57246-0.3642-1.0406-0.66798-1.5056-0.16892-0.25858-1.0637-1.1869-3.4009-3.5307l-3.1703-3.1782 3.1703-3.1808c2.3371-2.3438 3.2319-3.2721 3.4009-3.5307 0.30378-0.46498 0.51215-0.93312 0.66798-1.5056 0.12363-0.45412 0.12681-0.52835 0.14579-2.1656 0.01611-1.3882 9e-3 -1.6938-0.04506-1.6938zm-21.662 14.852c-1.1564 1.1109-16.191 16.144-16.191 16.193 2e-6 0.02249 0.8078 0.03458 1.7945 0.02385 1.6606-0.01791 1.823-0.02913 2.1895-0.12987 0.4452-0.12241 1.0074-0.37413 1.3227-0.59375 0.11585-0.0807 1.9925-1.9313 4.1696-4.1112 2.1771-2.1799 3.9866-3.9627 4.0211-3.9627 0.05018 0 0.06333 0.7128 0.0636 3.5492 2.45e-4 2.245 0.01737 3.6692 0.05038 3.8726 0.11284 0.6973 0.45268 1.1623 0.95691 1.3121 0.18072 0.05367 0.50549 0.07423 1.2193 0.07423 0.21454 0 0.23777-0.0096 0.40291-0.01321zm5.4287 0v16.214c0.16514 0.0038 0.18836 0.01321 0.40291 0.01321 0.71385 0 1.0386-0.02056 1.2193-0.07423 0.50424-0.14973 0.84407-0.61478 0.95691-1.3121 0.03292-0.20338 0.05012-1.6276 0.05036-3.8726 2.99e-4 -2.8364 0.01339-3.5492 0.06361-3.5492 0.03456 0 1.844 1.7828 4.0211 3.9627 2.1771 2.1799 4.0537 4.0305 4.1696 4.1112 0.3153 0.21962 0.87751 0.47135 1.3227 0.59375 0.36648 0.10075 0.5289 0.11188 2.1895 0.12987 0.98674 0.01068 1.7945-0.0014 1.7945-0.02387 0-0.0492-15.034-15.082-16.191-16.193z" fill="#12a1ff" stroke-width=".90475"/>
</svg>
