<svg width="64" height="64" version="1.1" viewBox="0 0 16.933 16.933" xmlns="http://www.w3.org/2000/svg">
 <g transform="translate(0 -280.07)">
  <circle cx="8.4665" cy="288.53" r="7.1436" fill="#a2ca4c" style="paint-order:stroke markers fill"/>
  <circle cx="8.467" cy="288.53" r="5.821" fill="#ffffff" opacity=".1" paint-order="stroke markers fill"/>
  <path d="M5.556 286.417v1.852s1.323-.918 1.323.661c0 1.586-1.323.662-1.323.662v1.852h1.852s-.633-1.323.794-1.323c1.461 0 .794 1.323.794 1.323h1.852v-1.852s1.058.662 1.058-.662c0-1.058-.529-.926-1.058-.661v-1.852H8.996s.794-1.323-.794-1.323c-1.587 0-.794 1.323-.794 1.323m-1.852 0" fill="#fff"/>
 </g>
</svg>
