<?xml version="1.0" encoding="UTF-8"?>
<svg width="64" height="64" version="1.1" viewBox="0 0 64 64" xmlns="http://www.w3.org/2000/svg">
 <circle cx="32" cy="32" r="27" fill="#3e89e5" stroke-width="1.1739"/>
 <circle cx="32" cy="32" r="23" fill="#fff" opacity=".1"/>
 <path d="m30.826 15.565c-1.951 0-3.5217 1.5707-3.5217 3.5217v3.5217h-4.6957c-1.3007 0-2.3478 1.0471-2.3478 2.3478v4.6957h3.5217c1.951 0 3.5217 1.5707 3.5217 3.5217s-1.5707 3.5217-3.5217 3.5217h-3.5217v4.6957c0 1.3007 1.0471 2.3478 2.3478 2.3478h4.6957v-3.5217c0-1.951 1.5707-3.5217 3.5217-3.5217s3.5217 1.5707 3.5217 3.5217v3.5217h4.6957c1.3007 0 2.3478-1.0471 2.3478-2.3478v-4.6957h3.5217c1.951 0 3.5217-1.5707 3.5217-3.5217s-1.5707-3.5217-3.5217-3.5217h-3.5217v-4.6957c0-1.3007-1.0471-2.3478-2.3478-2.3478h-4.6957v-3.5217c0-1.951-1.5707-3.5217-3.5217-3.5217z" fill="#f9f9f9" stroke-width="1.1739"/>
</svg>
