<svg xmlns="http://www.w3.org/2000/svg" width="64" height="64" version="1"><rect width="52" height="52" x="6" y="6" fill="#ececec" fill-rule="evenodd" rx="8" ry="8" style="paint-order:stroke fill markers"/><path fill="#be7c2e" d="M28.111 13.001a.98.98 0 0 0-.83.772l-.802 4.067a15.3 15.3 0 0 0-3.978 2.286l-3.948-1.336a.98.98 0 0 0-1.128.415l-3.8 6.59a.98.98 0 0 0 .208 1.188l3.146 2.76c-.11.741-.178 1.486-.178 2.257s.068 1.516.178 2.256l-3.146 2.761a.98.98 0 0 0-.208 1.188l3.8 6.59a.98.98 0 0 0 1.128.416l3.948-1.336a15.3 15.3 0 0 0 3.978 2.286l.802 4.066a.98.98 0 0 0 .92.772h7.6a.98.98 0 0 0 .92-.772l.8-4.066a15.3 15.3 0 0 0 3.979-2.286l3.948 1.336a.98.98 0 0 0 1.128-.416l3.8-6.59a.98.98 0 0 0-.208-1.188l-3.147-2.76c.111-.741.179-1.486.179-2.257s-.068-1.516-.179-2.256l3.147-2.76a.98.98 0 0 0 .208-1.188l-3.8-6.59a.98.98 0 0 0-1.128-.416L41.5 20.126a15.3 15.3 0 0 0-3.978-2.287l-.801-4.067A.98.98 0 0 0 35.8 13z"/><path fill="#fff" d="M32 24a8 8 0 1 1 0 15.999 8 8 0 0 1 0-16z"/></svg>