<?xml version="1.0" encoding="UTF-8" standalone="no"?>
<!-- Created with Inkscape (http://www.inkscape.org/) -->

<svg
   xmlns:dc="http://purl.org/dc/elements/1.1/"
   xmlns:cc="http://creativecommons.org/ns#"
   xmlns:rdf="http://www.w3.org/1999/02/22-rdf-syntax-ns#"
   xmlns:svg="http://www.w3.org/2000/svg"
   xmlns="http://www.w3.org/2000/svg"
   xmlns:sodipodi="http://sodipodi.sourceforge.net/DTD/sodipodi-0.dtd"
   xmlns:inkscape="http://www.inkscape.org/namespaces/inkscape"
   width="64"
   height="64"
   viewBox="0 0 16.933333 16.933333"
   version="1.1"
   id="svg4572"
   inkscape:version="0.92.4 (5da689c313, 2019-01-14)"
   sodipodi:docname="fastmail.svg">
  <title
     id="title4611">Canvas icon theme</title>
  <defs
     id="defs4566" />
  <sodipodi:namedview
     id="base"
     pagecolor="#ffffff"
     bordercolor="#666666"
     borderopacity="1.0"
     inkscape:pageopacity="0.0"
     inkscape:pageshadow="2"
     inkscape:zoom="5.6"
     inkscape:cx="18.05808"
     inkscape:cy="44.924824"
     inkscape:document-units="px"
     inkscape:current-layer="layer1"
     showgrid="true"
     units="px"
     width="64px"
     showguides="true"
     inkscape:guide-bbox="true"
     inkscape:window-width="1159"
     inkscape:window-height="712"
     inkscape:window-x="386"
     inkscape:window-y="379"
     inkscape:window-maximized="0"
     inkscape:snap-bbox="true"
     inkscape:bbox-nodes="true"
     inkscape:snap-bbox-edge-midpoints="true">
    <inkscape:grid
       type="xygrid"
       id="grid4582" />
    <sodipodi:guide
       position="1.0583333,15.875"
       orientation="0,1"
       id="guide4584"
       inkscape:locked="false" />
    <sodipodi:guide
       position="1.0583333,1.0583333"
       orientation="1,0"
       id="guide4586"
       inkscape:locked="false" />
    <sodipodi:guide
       position="15.875,15.875"
       orientation="1,0"
       id="guide4588"
       inkscape:locked="false" />
    <sodipodi:guide
       position="1.0583333,1.0583333"
       orientation="0,1"
       id="guide4590"
       inkscape:locked="false" />
    <sodipodi:guide
       position="8.4666665,8.4666665"
       orientation="0,1"
       id="guide822"
       inkscape:locked="false" />
    <sodipodi:guide
       position="8.4666665,8.4666665"
       orientation="1,0"
       id="guide824"
       inkscape:locked="false" />
  </sodipodi:namedview>
  <metadata
     id="metadata4569">
    <rdf:RDF>
      <cc:Work
         rdf:about="">
        <dc:format>image/svg+xml</dc:format>
        <dc:type
           rdf:resource="http://purl.org/dc/dcmitype/StillImage" />
        <dc:title>Canvas icon theme</dc:title>
        <cc:license
           rdf:resource="http://creativecommons.org/licenses/by-nc-sa/4.0/" />
        <dc:creator>
          <cc:Agent>
            <dc:title>Vince Liuice</dc:title>
          </cc:Agent>
        </dc:creator>
      </cc:Work>
      <cc:License
         rdf:about="http://creativecommons.org/licenses/by-nc-sa/4.0/">
        <cc:permits
           rdf:resource="http://creativecommons.org/ns#Reproduction" />
        <cc:permits
           rdf:resource="http://creativecommons.org/ns#Distribution" />
        <cc:requires
           rdf:resource="http://creativecommons.org/ns#Notice" />
        <cc:requires
           rdf:resource="http://creativecommons.org/ns#Attribution" />
        <cc:prohibits
           rdf:resource="http://creativecommons.org/ns#CommercialUse" />
        <cc:permits
           rdf:resource="http://creativecommons.org/ns#DerivativeWorks" />
        <cc:requires
           rdf:resource="http://creativecommons.org/ns#ShareAlike" />
      </cc:License>
    </rdf:RDF>
  </metadata>
  <g
     inkscape:label="Layer 1"
     inkscape:groupmode="layer"
     id="layer1"
     transform="translate(0,-280.06667)">
    <circle
       style="opacity:1;fill:#ececec;fill-opacity:1;stroke:none;stroke-width:0.49136901;stroke-miterlimit:4;stroke-dasharray:none;stroke-opacity:0.03921569;paint-order:stroke markers fill"
       id="path13"
       cx="8.4666662"
       cy="288.53333"
       r="6.8791666" />
    <g
       id="g841"
       transform="matrix(1.047508,0,0,1.047508,2.9235919,-3.074915)"
       style="stroke-width:0.95464671">
      <path
         d="m 1.3933169,275.97396 1.8188597,1.58816 c 1.000374,0.87349 1.844651,1.61128 1.876174,1.63954 0.135612,0.12158 0.3064,0.14809 0.4577,0.071 0.02884,-0.0147 0.82342,-0.70107 1.847286,-1.59575 0.988171,-0.86348 1.825374,-1.59458 1.860447,-1.62468 l 0.06377,-0.0547 v 4.91097 l -0.03379,0.0668 c -0.03793,0.0751 -0.09057,0.1261 -0.165275,0.16027 l -0.05047,0.0231 -3.69317,0.002 c -2.874452,0.002 -3.704249,-9.3e-4 -3.7431321,-0.0113 -0.1056614,-0.0283 -0.1958922,-0.11595 -0.2280656,-0.22165 z m 3.8983497,2.50521 c -0.05428,-0.0177 -0.117277,-0.0551 -0.173982,-0.10327 -0.03164,-0.0269 -0.823992,-0.63486 -1.760781,-1.35102 -1.2431315,-0.95036 -1.7050993,-1.30939 -1.7100947,-1.32906 -0.00458,-0.0181 5.292e-4,-0.0366 0.015214,-0.0562 l 0.02204,-0.0292 3.6785997,-0.003 3.678597,-0.003 0.02724,0.0269 c 0.03005,0.0297 0.03454,0.0584 0.01339,0.0851 -0.0076,0.01 -0.777451,0.60103 -1.710727,1.31417 -0.933272,0.71314 -1.721244,1.31761 -1.751044,1.34326 -0.08432,0.0726 -0.153897,0.10547 -0.232661,0.10991 -0.03743,0.002 -0.08053,-2.3e-4 -0.09578,-0.005 z"
         id="path4081"
         style="fill:#43557d;stroke-width:0.25258359"
         inkscape:connector-curvature="0" />
      <path
         d="m 9.3156826,277.18418 c -5.29e-4,-7.9e-4 0,0.28044 0,0.84336 l -0.09095,-0.008 c -0.21907,-0.0178 -0.58743,0.0648 -0.93431,0.19843 -0.07736,0.0298 -0.229362,0.0954 -0.338997,0.14883 -0.314383,0.15333 -0.477097,0.2502 -1.281576,0.76895 -0.140298,0.0905 -0.322797,0.19949 -0.405143,0.24804 -0.974011,0.57432 -1.957075,0.92109 -2.976562,1.0418 -0.176589,0.0209 -0.808448,0.0316 -1.0500655,0.0165 -0.2970371,-0.0185 -0.8110299,-0.0763 -0.8350911,-0.091 l -0.016536,-0.34727 c 0.00315,0.0241 0,0.0732 0,0.16537 0,0.14165 -0.00598,0.1819 -0.016537,0.1819 -0.028572,-2e-5 -0.40635234,-0.064 -0.52916664,-0.0909 -0.1696243,-0.0372 -0.3406166,-0.10047 -0.4547526,-0.1571 -0.051192,-0.0254 -0.099219,-0.0433 -0.099219,-0.0413 0,0.007 0.225716,0.14697 0.3059245,0.19017 0.1768845,0.0953 0.4023518,0.18746 0.64492184,0.25631 l 0.1405599,0.0413 h 0.016536 c 0.00275,0 0.092924,0.0206 0.1984375,0.0413 0.4161658,0.082 0.7857384,0.10851 1.3146488,0.0992 0.523007,-0.009 0.884486,-0.0437 1.339453,-0.13229 0.895051,-0.1742 1.739976,-0.49183 2.860807,-1.0666 0.247843,-0.12709 0.635953,-0.32929 1.322917,-0.7028 0.246295,-0.13391 0.399716,-0.20715 0.545703,-0.25631 0.100531,-0.0339 0.245189,-0.0661 0.305924,-0.0661 h 0.03307 l 0.04961,0.008 c 0.138719,0.0228 0.249955,0.094 0.305925,0.20671 0.02687,0.0541 0.02556,0.0788 0.02479,0.16537 -0.0013,0.15561 -0.0542,0.28697 -0.198438,0.45475 l -0.07441,0.0827 0.07441,-0.0579 c 0.16338,-0.12429 0.336058,-0.30887 0.396875,-0.42168 0.07696,-0.14275 0.06752,-0.30052 -0.01654,-0.47129 -0.08907,-0.18094 -0.291078,-0.34465 -0.487825,-0.3886 l -0.06615,-0.008 c -0.0029,-0.56161 -0.0076,-0.8509 -0.0083,-0.85163 z m -7.9292316,2.81947 -0.00827,-0.27285 c -0.034226,0 -0.42816464,-0.0515 -0.57877604,-0.0744 -0.2427958,-0.037 -0.4424027,-0.0812 -0.6118472,-0.12404 v 0.10749 c 0.2989792,0.13557 0.6403896,0.24429 1.00872394,0.30592 0.076248,0.0127 0.1516407,0.0303 0.1653646,0.0331 0.01233,0.002 0.021643,8e-4 0.024791,0.0248 z"
         id="path4083"
         style="fill:#caa343;stroke-width:0.25258359"
         inkscape:connector-curvature="0" />
    </g>
  </g>
</svg>
