<svg width="64" height="64" version="1.1" viewBox="0 0 16.933 16.933" xmlns="http://www.w3.org/2000/svg">
 <rect x="1.5875" y="1.5875" width="13.758" height="13.758" rx="1.5874" ry="1.5874" fill="#ee794e" fill-rule="evenodd" style="paint-order:fill markers stroke"/>
 <rect x="2.3812" y="13.493" width="12.171" height="1.5875" rx=".79375" ry=".79375" fill-rule="evenodd" opacity=".15" stroke-width=".95916" style="paint-order:fill markers stroke"/>
 <path d="m8.25 4.23c-0.257 5e-3 -0.51 0.015-0.677 0.04-0.747 0.114-1.346 0.376-1.731 0.758a1.54 1.54 0 0 0-0.42 0.72c-0.045 0.174-0.06 0.575-0.013 0.728 0.157 0.54 0.53 0.954 1.23 1.37 0.298 0.176 0.528 0.292 1.19 0.591 0.795 0.357 1.037 0.501 1.15 0.68 0.044 0.072 0.06 0.11 0.054 0.197-0.012 0.138-0.081 0.207-0.243 0.266-0.108 0.038-0.147 0.05-0.352 0.05-0.375-4e-3 -0.705-0.074-1.163-0.237a4.232 4.232 0 0 1-0.905-0.444c-0.266-0.174-0.287-0.18-0.366-0.138-0.059 0.033-0.491 0.418-0.81 0.73-0.209 0.203-0.212 0.244-0.068 0.384 0.141 0.14 0.539 0.435 0.757 0.561 0.237 0.14 0.395 0.217 0.662 0.316 0.448 0.166 0.824 0.235 1.528 0.295 0.16 0.013 0.732 0.015 0.933 0 1.102-0.088 2.001-0.448 2.474-0.975 0.17-0.187 0.272-0.348 0.352-0.572 0.078-0.218 0.098-0.646 0.04-0.906-0.094-0.421-0.348-0.802-0.757-1.123-0.41-0.322-0.826-0.536-1.825-0.936-0.698-0.278-0.96-0.426-1.028-0.581-0.037-0.083-0.015-0.23 0.04-0.286 0.11-0.111 0.322-0.151 0.596-0.118 0.51 0.063 1.166 0.297 1.744 0.62 0.112 0.062 0.22 0.114 0.244 0.119 0.093 0.024 0.15-0.013 0.527-0.444 0.463-0.53 0.458-0.509 0.203-0.69-0.76-0.544-1.64-0.86-2.65-0.955a7.062 7.062 0 0 0-0.717-0.02z" fill="#ffffff"/>
</svg>
