<svg width="64" height="64" version="1.1" viewBox="0 0 64 64" xmlns="http://www.w3.org/2000/svg">
 <circle cx="32" cy="32" r="27" fill="#383737" stroke-width="1.1739"/>
 <path d="m16.739 19.087v25.826h30.522v-25.826zm2.3478 2.3478h25.826v14.087h-1.1739v-1.1739h-1.1739v-1.1739h-1.1739v-1.1739h-1.1739v-1.1739h-2.3478v1.1739h-1.0203v1.1739h-1.3276v1.1739h-1.1739v1.1739h-1.1739v-1.1739h-1.1739v-1.1739h-1.1739v-1.1739h-1.1739v-1.1739h-1.1739v-1.1739h-1.1739v1.1739h-1.1739v1.1739h-1.1739v1.1739h-1.1739v1.1739h-1.1739v1.1739h-1.1739v1.1739h-1.1739v1.1739h-1.1739zm14.087 1.1739v1.1739h-1.1739v1.1739h-1.1739v2.3478h1.1739v1.1739h1.1739v1.1739h2.3478v-1.1739h1.1739v-1.1739h1.1739v-2.3478h-1.1739v-1.1739h-1.1739v-1.1739z" fill="#f9f9f9" stroke-width="1.1739" style="paint-order:normal"/>
</svg>
