<svg width="64" height="64" version="1.1" xmlns="http://www.w3.org/2000/svg">
 <rect x="6" y="6" width="52" height="52" rx="8" ry="8" fill="#8c7af3" style="paint-order:stroke fill markers"/>
 <path d="M27.5 23.327c-4.333 0-5.143 6.429-9.643 6.429-2.571 0-2.571-2.572-3.857-2.572 0 3.857 4.5 6.429 8.357 6.429 6.429 0 5.786-3.857 9.643-3.857s3.214 3.857 9.643 3.857C45.5 33.613 50 31.04 50 27.184c-1.286 0-1.286 2.572-3.857 2.572-4.5 0-5.31-6.429-9.643-6.429-1.929 0-1.929 1.286-4.5 1.286s-2.571-1.286-4.5-1.286M32 36.184c-1.355 0-3.857 0-3.857 1.286 0 3.214 2.571 9 3.857 9s3.857-5.786 3.857-9c0-1.287-2.502-1.286-3.857-1.286" fill="#fff" fill-rule="evenodd"/>
</svg>
