<svg width="64" height="64" version="1.1" xmlns="http://www.w3.org/2000/svg">
 <rect x="6" y="6" width="52" height="52" rx="8" ry="8" fill="#7158e0" stroke-width="0" style="paint-order:stroke fill markers"/>
 <path d="m22.579 38.883c1.0921-0.31308 3.584-1.5883 5.7102-2.922 1.7797-1.1164 3.4848-2.0664 3.7088-2.0664 0.22487 0 1.2654 0.58005 3.7694 2.1012 2.6925 1.6356 4.7068 2.6553 5.7672 2.9195 0.61301 0.1527 1.0399 0.10436 1.6079-0.18188 1.1078-0.55825 2.636-1.7864 4.5512-3.6575 2.5854-2.5259 4.9658-5.489 5.2687-6.5587 0.10312-0.36293 0.0134-0.43607-0.53924-0.42323-0.88481 0.02064-2.0159 0.32695-6.6486 1.8-1.9321 0.61433-3.3058 0.99406-3.5962 0.99406-0.45622 0-2.059-0.92499-4.3319-2.4998-1.101-0.76285-3.3563-2.2336-4.0531-2.6431-0.98568-0.57923-1.4972-0.77821-1.903-0.7404-0.68889 0.06414-1.9227 0.7982-6.2673 3.7287-2.0761 1.4003-3.2042 2.0584-3.6602 2.1349-0.37981 0.06372-0.9049-0.08342-5.9905-1.6799-1.6317-0.51219-2.8806-0.85958-3.5867-0.99767-0.50156-0.09806-1.2-0.13144-1.3081-0.06222-0.38417 0.24564 0.68241 1.9749 2.506 4.063 3.014 3.4511 6.2234 6.2532 7.7351 6.7534 0.25858 0.08562 0.8466 0.05676 1.2603-0.06194z" fill="#ffffff"/>
</svg>
