<svg xmlns="http://www.w3.org/2000/svg" width="64" height="64" viewBox="0 0 16.933 16.933"><circle cx="8.466" cy="8.46" r="7.144" fill="#096" style="paint-order:stroke markers fill"/><path fill="#fff" d="M8.465 3.941a4.66 4.66 0 0 0-4.659 4.66 4.66 4.66 0 0 0 3.119 4.39.31.31 0 0 0 .299-.307v-.666h-.31c-.46 0-1.008-.122-1.178-.622-.227-.665-.873-.828-.686-.931a.36.36 0 0 1 .23-.042c.259.032.53.292.702.507.305.386.475.466.805.466.314 0 .437-.077.437-.077a.79.79 0 0 1 .345-.671C6.38 10.46 5.516 9.856 5.516 8.6c0-.602.166-1.086.45-1.463a2.36 2.36 0 0 1 .016-1.332c.435 0 .924.237 1.236.491.38-.12.801-.18 1.248-.18s.869.06 1.252.179c.31-.254.799-.49 1.234-.49.127.442.14.879.02 1.31.3.38.476.871.476 1.485 0 1.255-.883 1.862-2.083 2.048a.79.79 0 0 1 .344.67v1.365a.31.31 0 0 0 .3.308A4.66 4.66 0 0 0 13.126 8.6a4.66 4.66 0 0 0-4.66-4.659z" opacity=".5"/><path fill="#fff" d="M4.421 8.223H3.375v-.908h-.533v2.303h.533v-.944h1.046v.944h.533V7.315H4.42zm2.194 1.434c.723 0 1.26-.503 1.26-1.19 0-.688-.537-1.191-1.26-1.191-.727 0-1.26.506-1.26 1.19s.533 1.191 1.26 1.191m0-.454c-.411 0-.72-.3-.72-.736 0-.438.309-.737.72-.737s.72.3.72.736c0 .438-.31.737-.72.737m2.417.454c.658 0 .977-.329.977-.714 0-.845-1.339-.552-1.339-.976 0-.145.122-.264.438-.264.204 0 .424.06.638.181l.164-.404c-.213-.135-.51-.204-.799-.204-.654 0-.97.326-.97.717 0 .855 1.339.559 1.339.99 0 .141-.129.247-.444.247-.277 0-.566-.1-.76-.24l-.181.4c.204.159.572.267.937.267m2.319-.04V7.75h.737v-.435H10.08v.435h.737v1.868zm1.763.04c.658 0 .977-.329.977-.714 0-.845-1.339-.552-1.339-.976 0-.145.122-.264.437-.264.204 0 .425.06.639.181l.164-.404c-.214-.135-.51-.204-.8-.204-.654 0-.97.326-.97.717 0 .855 1.34.559 1.34.99 0 .141-.13.247-.445.247-.276 0-.566-.1-.76-.24l-.18.4c.203.159.572.267.937.267" aria-label="HOSTS" style="paint-order:stroke fill markers"/></svg>