<svg xmlns="http://www.w3.org/2000/svg" xmlns:xlink="http://www.w3.org/1999/xlink" width="64" height="64" version="1"><defs><linearGradient xlink:href="#a" id="b" x1="46.168" y1="57" x2="46.168" y2="27.346" gradientUnits="userSpaceOnUse"/><linearGradient id="a"><stop offset="0"/><stop offset="1" stop-opacity="0"/></linearGradient></defs><g transform="matrix(1.04 0 0 1.04 -1.28 -1.28)" stroke-width=".962"><rect transform="matrix(0 -1 -1 0 0 0)" ry="3" rx="3" y="-57" x="-57" height="50" width="50" fill="#e4453b"/><path d="M22.485 16.356L16 44.8h5.27l3.061-12.443h14.385L25.245 43.599l3.512 4.045 1.8-.927c3.401-1.749 4.828-.726 7.409-.01 2.51.697 4.87 1.443 9.768-1.38l-.972-4.982c-5.345 3.8-7.036.41-10.842.275l10.898-8.51L48 27.911H25.172l1.47-7.11h14.962l1.026-4.444H22.487z" fill="#fff"/><path d="M57 27.346A45 45 0 0 1 35.336 57H54c1.662 0 3-1.338 3-3z" opacity=".25" fill="url(#b)" paint-order="markers stroke fill"/></g></svg>