<svg xmlns="http://www.w3.org/2000/svg" xmlns:xlink="http://www.w3.org/1999/xlink" width="64" height="64" viewBox="0 0 16.933 16.933"><defs><linearGradient id="b"><stop offset="0"/><stop offset="1" stop-opacity="0"/></linearGradient><linearGradient id="a"><stop offset="0"/><stop offset="1" stop-opacity="0"/></linearGradient><linearGradient xlink:href="#a" id="c" x1="32" y1="12" x2="32" y2="8" gradientUnits="userSpaceOnUse"/><linearGradient xlink:href="#b" id="d" x1="30.873" y1="44.438" x2="58" y2="44.438" gradientUnits="userSpaceOnUse"/></defs><g transform="translate(0 -280.067)" paint-order="stroke markers fill"><circle cx="8.467" cy="288.533" r="6.35" fill="#3578c7"/><path d="M5.616 283.77a5.556 5.556 0 0 0-2.706 4.763 5.556 5.556 0 0 0 5.557 5.557 5.556 5.556 0 0 0 5.556-5.557 5.556 5.556 0 0 0-2.707-4.762h-5.7z" fill="#fff"/><path d="M32 8a24 24 0 0 0-13.24 4h26.478A24 24 0 0 0 32 8z" transform="matrix(.26458 0 0 .26458 0 280.067)" opacity=".25" fill="url(#c)"/><path d="M8.467 284.3c-.293 0-.382.276-.53.53l-.308.528H2.37a6.88 6.88 0 0 0-.783 3.175 6.88 6.88 0 0 0 .035.687 6.88 6.88 0 0 0 3.883 5.515 6.88 6.88 0 0 0 .321.148h.01a6.88 6.88 0 0 0 2.63.53 6.88 6.88 0 0 0 6.393-4.344 6.88 6.88 0 0 0 .216-.634 6.88 6.88 0 0 0 .006-.018 6.88 6.88 0 0 0 0-.001 6.88 6.88 0 0 0 .122-.522 6.88 6.88 0 0 0 .035-.16 6.88 6.88 0 0 0 .06-.458 6.88 6.88 0 0 0 .027-.228 6.88 6.88 0 0 0 .02-.515 6.88 6.88 0 0 0-1.459-4.233h-5.42z" fill="#5294e2"/><rect width="3.969" height=".529" x="8.996" y="284.829" ry=".265" opacity=".25"/><path d="M57.943 30.875l-27.07 27.07A26 26 0 0 0 32 58a26 26 0 0 0 24.16-16.418 26 26 0 0 0 .817-2.395 26 26 0 0 0 .021-.066 26 26 0 0 0 .002-.006 26 26 0 0 0 .459-1.97 26 26 0 0 0 .135-.606 26 26 0 0 0 .224-1.732 26 26 0 0 0 .104-.862A26 26 0 0 0 58 32a26 26 0 0 0-.057-1.125z" transform="matrix(.26458 0 0 .26458 0 280.067)" opacity=".15" fill="url(#d)"/></g></svg>