<svg xmlns="http://www.w3.org/2000/svg" width="64" height="64" version="1"><g stroke-width=".962" transform="matrix(1.04 0 0 1.04 -1.28 -1.28)"><rect width="50" height="50" x="-57" y="-57" fill="#e4453b" rx="6.419" ry="6.419" transform="matrix(0 -1 -1 0 0 0)"/><path fill="#fff" d="M22.485 16.356 16 44.8h5.27l3.061-12.443h14.385L25.245 43.599l3.512 4.045 1.8-.927c3.401-1.749 4.828-.726 7.409-.01 2.51.697 4.87 1.443 9.768-1.38l-.972-4.982c-5.345 3.8-7.036.41-10.842.275l10.898-8.51L48 27.911H25.172l1.47-7.11h14.962l1.026-4.444H22.487z"/></g></svg>