<svg xmlns="http://www.w3.org/2000/svg" xmlns:xlink="http://www.w3.org/1999/xlink" width="64" height="64" viewBox="0 0 16.933 16.933"><defs><linearGradient id="a"><stop offset="0"/><stop offset="1" stop-opacity="0"/></linearGradient><linearGradient xlink:href="#a" id="b" x1="44.062" y1="57" x2="44.062" y2="28.742" gradientUnits="userSpaceOnUse"/></defs><g transform="translate(0 -280.067)"><g transform="matrix(1 0 0 1.04 0 -11.541)"><rect transform="matrix(0 -1 -1 0 0 0)" ry=".68" rx=".709" y="-14.817" x="-295.148" height="12.7" width="13.229" fill="#8bc34a"/><path transform="matrix(.26458 0 0 .26458 0 280.067)" d="M56 28.742A40 40 0 0 1 32.123 57h21.305C54.852 57 56 55.806 56 54.322z" opacity=".15" fill="url(#b)"/></g><rect width=".529" height="5.159" x="8.202" y="281.654" ry="0" opacity=".35" paint-order="markers stroke fill"/><path d="M8.467 286.417a1.06 1.06 0 0 0-1.059 1.058v2.117a1.06 1.06 0 0 0 1.059 1.058 1.06 1.06 0 0 0 1.058-1.058v-2.117a1.06 1.06 0 0 0-1.058-1.058zm0 .529c.292 0 .529.211.529.529 0 .265-.237.53-.53.53a.548.548 0 0 1-.529-.53c0-.318.238-.53.53-.53zm0 1.587a.53.53 0 0 1 .529.53v.529a.53.53 0 0 1-1.059 0v-.53a.53.53 0 0 1 .53-.529z" fill="#fff"/></g></svg>