<svg xmlns="http://www.w3.org/2000/svg" width="64" height="64" viewBox="0 0 16.933 16.933"><g transform="translate(0 -280.07)"><rect width="13.738" height="13.229" x="-295.4" y="-15.081" fill="#8bc34a" rx="1.587" ry="1.587" transform="matrix(0 -1.04 -1 0 0 -11.541)"/><rect width=".529" height="5.423" x="8.202" y="281.39" opacity=".35" paint-order="markers stroke fill" ry="0"/><path fill="#fff" d="M8.467 286.417a1.06 1.06 0 0 0-1.059 1.058v2.117a1.06 1.06 0 0 0 1.059 1.058 1.06 1.06 0 0 0 1.058-1.058v-2.117a1.06 1.06 0 0 0-1.058-1.058m0 .529c.292 0 .529.211.529.529 0 .265-.237.53-.53.53a.55.55 0 0 1-.529-.53c0-.318.238-.53.53-.53zm0 1.587a.53.53 0 0 1 .529.53v.529a.53.53 0 0 1-1.059 0v-.53a.53.53 0 0 1 .53-.529"/></g></svg>