<svg width="64" height="64" version="1.1" viewBox="0 0 16.933 16.933" xmlns="http://www.w3.org/2000/svg">
 <defs>
  <linearGradient id="linearGradient892" x1="-197.72" x2="-197.72" y1="263.86" y2="273.76" gradientTransform="matrix(.18709 -.18709 .18709 .18709 1.1192 -74.45)" gradientUnits="userSpaceOnUse">
   <stop offset="0"/>
   <stop stop-opacity="0" offset="1"/>
  </linearGradient>
 </defs>
 <path d="m7.1442 2.3771-3.7041 0.00103c-0.2936 0-0.39494 0.26797-0.52969 0.52863v0.00362h-0.26458c-0.58631 0-1.0583 0.47201-1.0583 1.0583v7.4082c0 0.58631 0.47201 1.0583 1.0583 1.0583h11.642c0.58631 0 1.0583-0.47201 1.0583-1.0583v-7.4082c0-0.58631-0.47201-1.0583-1.0583-1.0583h-4.4606c-0.012512-8.467e-4 -0.024471-0.00367-0.037205-0.00362h-2.1156c-0.155-0.249-0.23567-0.52969-0.52969-0.52969z" fill="#5294e2" stroke-linecap="round" stroke-linejoin="round" stroke-width=".49262" style="paint-order:stroke fill markers"/>
 <path d="m7.1442 2.3771-3.7041 0.00103c-0.2936 0-0.39494 0.26797-0.52969 0.52863v0.00362h-0.26458c-0.58631 0-1.0583 0.47201-1.0583 1.0583v7.4082c0 0.58631 0.47201 1.0583 1.0583 1.0583h11.642c0.58631 0 1.0583-0.47201 1.0583-1.0583v-7.4082c0-0.58631-0.47201-1.0583-1.0583-1.0583l-6.6134-0.00362c-0.155-0.249-0.23567-0.52969-0.52969-0.52969z" opacity=".18" stroke-linecap="round" stroke-linejoin="round" stroke-width=".49262" style="paint-order:stroke fill markers"/>
 <rect x="2.381" y="3.7" width="12.171" height="5.027" ry=".53326" fill="#fff" paint-order="markers stroke fill"/>
 <rect x="3.704" y="2.64" width="3.175" height=".529" ry=".265" opacity=".25" paint-order="stroke markers fill"/>
 <path d="m8.9957 4.2333-0.79374 1.0583h-6.6145c-0.58631 0-1.0583 0.47201-1.0583 1.0583v7.4082c0 0.58631 0.47201 1.0583 1.0583 1.0583h13.758c0.58631 0 1.0583-0.47201 1.0583-1.0583v-8.4666c0-0.58631-0.47201-1.0583-1.0583-1.0583z" fill="#5294e2" stroke-linecap="round" stroke-linejoin="round" stroke-width=".52916" style="paint-order:stroke fill markers"/>
 <path d="m16.404 10.583-4.2333 4.2333h3.175c0.58631 0 1.0583-0.47201 1.0583-1.0583z" fill="url(#linearGradient892)" opacity=".2" stroke-linecap="round" stroke-linejoin="round" stroke-width=".52916" style="paint-order:stroke fill markers"/>
 <rect x="10.318" y="4.762" width="4.2333" height=".52916" ry=".26508" opacity=".25" stroke-width="1.0329" style="paint-order:stroke markers fill"/>
 <path d="m8.1601 7.6728v0.72128a1.6898 1.6893 0 0 0-0.65053 0.2691l-0.50926-0.50856-0.43427 0.43416 0.50926 0.50914a1.6898 1.6893 0 0 0-0.26975 0.64921h-0.72029v0.61492h0.72029a1.6898 1.6893 0 0 0 0.26916 0.65037l-0.50868 0.50797 0.43427 0.43532 0.50926-0.50914a1.6898 1.6893 0 0 0 0.65053 0.26968v0.71895h0.6139v-0.71895a1.6898 1.6893 0 0 0 0.65053-0.2691l0.5081 0.50856 0.43543-0.43532-0.50926-0.50797a1.6898 1.6893 0 0 0 0.26975-0.65037h0.71913v-0.61492h-0.71971a1.6898 1.6893 0 0 0-0.26916-0.64979l0.50926-0.50856-0.43543-0.43416-0.5081 0.50914a1.6898 1.6893 0 0 0-0.65053-0.26968v-0.72128zm0.30695 1.46a0.9225 0.92227 0 0 1 0.92144 0.92237 0.9225 0.92227 0 0 1-0.9226 0.92121 0.9225 0.92227 0 0 1-0.92144-0.92238 0.9225 0.92227 0 0 1 0.9226-0.92121z" opacity=".15" stroke-width="1.1249" style="paint-order:stroke markers fill"/>
</svg>
