<svg xmlns="http://www.w3.org/2000/svg" xml:space="preserve" width="64" height="64" viewBox="0 0 16.933 16.933"><rect width="13.758" height="13.758" x="1.587" y="1.587" rx="2.117" ry="2.117" style="fill:#ccc;fill-opacity:1;stroke-width:1.25073;stroke-linecap:round;stroke-linejoin:round;paint-order:stroke fill markers"/><g transform="translate(.955 .955)scale(.8872)"><circle cx="8.466" cy="8.466" r="7.144" fill="#b52cc1" style="display:inline;opacity:1;fill:#fff;paint-order:stroke markers fill"/><circle cx="8.466" cy="8.466" r="6.8" fill="none" style="display:inline;opacity:1;fill:#fff;fill-opacity:0;stroke:#000;stroke-width:.714361;stroke-dasharray:none;stroke-opacity:1"/><path fill="none" d="M2.578 5.172h.348v6.246h-.348Z" style="opacity:1;fill:#fff;fill-opacity:0;stroke:none;stroke-width:.714361;stroke-dasharray:none;stroke-opacity:1"/><path fill="none" d="M2.715 7.532h.593v.016h-.593Z" style="opacity:1;fill:#fff;fill-opacity:0;stroke:none;stroke-width:.714361;stroke-dasharray:none;stroke-opacity:1"/><path d="M2.267 5.111h.687v6.718h-.687Z" style="opacity:1;fill:#000;fill-opacity:1;stroke:none;stroke-width:.722768;stroke-dasharray:none;stroke-opacity:1"/><path d="M4.774 5.936h.687v2.427h-.687Z" style="fill:#000;fill-opacity:1;stroke:none;stroke-width:.434367;stroke-dasharray:none;stroke-opacity:1"/><path d="M4.932 9.75h.687v4.71h-.687Z" style="fill:#000;fill-opacity:1;stroke:none;stroke-width:.605186;stroke-dasharray:none;stroke-opacity:1"/><path d="M9.253 9.033h.687v5.937h-.687Z" style="fill:#000;fill-opacity:1;stroke:none;stroke-width:.679451;stroke-dasharray:none;stroke-opacity:1"/><path d="M11.436 2.468h.687v4.134h-.687z" style="fill:#000;fill-opacity:1;stroke:none;stroke-width:.566973;stroke-dasharray:none;stroke-opacity:1"/><path d="M11.457 8.71h.687v5.67h-.687z" style="fill:#000;fill-opacity:1;stroke:none;stroke-width:.663996;stroke-dasharray:none;stroke-opacity:1"/><path d="M-4.353 3.413h.687v5.251h-.687z" style="fill:#000;fill-opacity:1;stroke:none;stroke-width:.638966;stroke-dasharray:none;stroke-opacity:1" transform="rotate(-90)"/><path d="M-6.625 4.808h.687v7.27h-.687z" style="fill:#000;fill-opacity:1;stroke:none;stroke-width:.751834;stroke-dasharray:none;stroke-opacity:1" transform="rotate(-90)"/><path d="M-9.245 11.457h.687v3.651h-.687z" style="fill:#000;fill-opacity:1;stroke:none;stroke-width:.532809;stroke-dasharray:none;stroke-opacity:1" transform="rotate(-90)"/><path d="M-10.421 4.935h.687v2.44h-.687z" style="fill:#000;fill-opacity:1;stroke:none;stroke-width:.435534;stroke-dasharray:none;stroke-opacity:1" transform="rotate(-90)"/><circle cx="5.12" cy="8.311" r=".37" style="fill:#000;fill-opacity:1;stroke:#000;stroke-width:.714361;stroke-dasharray:none;stroke-opacity:1"/><circle cx="7.562" cy="10.077" r=".37" style="fill:#000;fill-opacity:1;stroke:#000;stroke-width:.714361;stroke-dasharray:none;stroke-opacity:1"/><circle cx="9.592" cy="8.8" r=".438" style="fill:#000;fill-opacity:1;stroke:#000;stroke-width:.84483;stroke-dasharray:none;stroke-opacity:1"/><circle cx="9.102" cy="3.977" r=".37" style="fill:#000;fill-opacity:1;stroke:#000;stroke-width:.714361;stroke-dasharray:none;stroke-opacity:1"/></g></svg>