<svg width="64" height="64" version="1.1" xmlns="http://www.w3.org/2000/svg" xmlns:xlink="http://www.w3.org/1999/xlink">
 <g transform="matrix(1.35 0 0 1.35 -519.57 -675.13)" stroke-width=".74074">
  <rect x="388.57" y="503.8" width="40" height="40" rx="20" fill="#8f3380" fill-opacity=".90196" opacity=".9" stroke-opacity=".55027" stroke-width="2.0741"/>
  <path transform="translate(384.57 499.8)" d="m23.781 10.387c-2.69-0.01228-4.9964 0.48697-7.0938 1.5371-0.69823 0.34958-0.80692 0.4722-0.76172 0.84961 0.09231 0.77027 0.49003 0.84505 1.668 0.31641 2.1899-0.98274 3.2554-1.1923 6.0176-1.1953 3.1702-0.0026 4.3376 0.26894 6.9375 1.6152 0.44669 0.23099 1.8609 1.3226 2.3887 0.73633 0.52275-0.52272 0.24655-0.95536-1.0996-1.7207-2.6548-1.5094-4.9744-2.1241-8.0566-2.1387zm-0.082031 3.1133c-3.5492-0.0027-7.0962 1.3996-9.6973 4.209-1.0062 1.0868-2.1797 2.8682-2.1797 3.3086 0 0.51354 0.21175 0.79688 0.5957 0.79688 0.30096 0 0.6072-0.32469 1.3359-1.4199 1.6298-2.4495 3.7427-4.0744 6.4648-4.9727 2.1111-0.68904 4.5833-0.60927 6.959 0 3.0675 1.0083 5.699 3.2545 7.1406 6.0957 0.31369 0.61823 0.50133 0.80664 0.80859 0.80664 0.52917 0 0.83986-0.39379 0.69531-0.88281-0.23308-0.78876-1.4765-2.6999-2.418-3.7168-2.6046-2.8134-6.1559-4.2219-9.7051-4.2246zm0.16797 3.0918c-0.75648-0.01314-1.524 0.05843-2.291 0.21875-3.6446 0.76184-6.6909 3.7135-7.666 7.4277-0.51749 1.971-0.2796 5.1905 0.57422 7.7656 0.25517 0.76956 0.37836 0.93006 0.74414 0.97266 0.84097 0.09774 0.92315-0.30252 0.41992-2.043-1.44-4.9801-0.20027-9.2171 3.3711-11.527 3.5309-2.2841 8.3871-1.6081 11.15 1.5508 1.7316 1.9795 2.6814 5.3278 1.9258 6.7891-0.49917 0.96532-1.7146 1.5455-2.7129 1.2949-0.72956-0.1831-1.5944-1.0797-1.7051-1.7676-0.39067-2.4275-0.94209-3.3775-2.3379-4.0273-1.1907-0.55439-2.1831-0.53909-3.3516 0.05273-1.0887 0.55146-1.9229 1.6645-2.0918 2.791-0.06094 0.40595-0.03415 1.2844 0.06055 1.9512 0.58902 4.1531 3.5604 7.4385 7.6406 8.4492 0.51314 0.12705 1.3521 0.21682 1.8652 0.19922l0.93359-0.03125c0.52735-0.26769 0.55621-0.88379 0-1.1875l-1.3203-0.20117c-1.6618-0.25323-2.3499-0.47219-3.4922-1.1152-2.484-1.3984-4.2637-4.4297-4.2637-7.2617 0-1.248 0.47253-1.977 1.5742-2.4336 0.79604-0.32992 0.80748-0.32992 1.6035 0 1.0074 0.41752 1.4924 1.1163 1.6172 2.3262 0.22918 2.2205 1.7701 3.6816 3.8828 3.6816 1.6956 0 3.1228-1.1003 3.6289-2.7969 0.49535-1.6604-0.16964-4.4491-1.5664-6.5703-1.8511-2.8112-4.9153-4.4509-8.1934-4.5078zm-0.10938 3.2168c-1.0558 0.01336-2.1415 0.20817-3.0312 0.55469-1.372 0.67192-2.6793 2.0138-3.3555 3.4414-0.51455 1.0863-0.54524 1.2554-0.54492 3.0996 3.8e-4 2.2689 0.27495 3.4742 1.252 5.5117 0.84186 1.7557 2.0082 3.2869 3.3047 4.3359 1.1238 0.90928 1.2431 0.95341 1.7109 0.61133 0.47892-0.35017 0.2118-0.95151-0.75586-1.6934-1.0492-0.80436-2.1824-2.2593-2.9473-3.7852-1.2564-2.5062-1.5729-5.6037-0.75391-7.377 0.59437-1.287 1.5007-2.247 2.6562-2.8145 1.3884-0.6818 3.4163-0.6818 4.8047 0 1.6571 0.81376 2.7166 2.2955 3.0918 4.3281 0.22392 1.2133 0.56289 1.6166 1.0801 1.2832 0.23965-0.15448 0.29183-0.4119 0.26953-1.3359-0.05418-2.2462-1.628-4.5015-3.9277-5.6309-0.772-0.37564-1.7978-0.54265-2.8535-0.5293z" fill="#fff"/>
  <path d="m413.02 533.26c-2.8986-0.6323-5.1328-3.1861-5.3836-6.1539-0.0793-0.93797-0.0518-1.0619 0.27295-1.2358 0.61868-0.33111 0.97625 0.0165 1.1 1.0693 0.31116 2.6474 2.2567 4.6441 4.874 5.002 1.2805 0.17513 1.6924 0.66676 1.0754 1.2837-0.30891 0.30891-0.65299 0.31506-1.9386 0.0347z" fill="#fff"/>
 </g>
</svg>
