<svg xmlns="http://www.w3.org/2000/svg" width="64" height="64" viewBox="0 0 16.933 16.933"><g stroke-width=".185"><path fill="#209af9" d="M15.093 5.809c-.31-.748-.941-1.555-1.435-1.81a7.4 7.4 0 0 1 .724 2.17l.002.013c-.809-2.016-2.18-2.83-3.3-4.6a9 9 0 0 1-.169-.273 2 2 0 0 1-.079-.148 1.3 1.3 0 0 1-.106-.283.02.02 0 0 0-.017-.019H10.7l-.004.002-.005.003.003-.006c-1.796 1.052-2.406 3-2.462 3.974a3.6 3.6 0 0 0-1.969.758 2 2 0 0 0-.184-.14 3.3 3.3 0 0 1-.02-1.748 5.3 5.3 0 0 0-1.722 1.33h-.003c-.284-.358-.264-1.543-.248-1.79a1.3 1.3 0 0 0-.238.127 5 5 0 0 0-.7.599 6 6 0 0 0-.668.802 6 6 0 0 0-.96 2.167l-.01.047c-.013.063-.061.378-.07.447l-.001.016a7 7 0 0 0-.116.986v.036a7.153 7.153 0 0 0 14.2 1.21q.018-.138.033-.277a7.36 7.36 0 0 0-.464-3.593zm-8.244 5.599.1.049.004.003zm7.535-5.224v-.008l.002.008z"/><path fill="#3bbfff" d="m11.618 6.646.044.032a4 4 0 0 0-.664-.866C8.775 3.589 10.415.99 10.692.859l.003-.004C8.898 1.906 8.289 3.854 8.233 4.828c.083-.006.166-.013.251-.013a3.61 3.61 0 0 1 3.134 1.83z"/><path fill="#2a55c4" d="M8.488 7.09c-.012.178-.64.792-.86.792-2.034 0-2.364 1.23-2.364 1.23.09 1.036.812 1.89 1.685 2.34q.06.031.12.058.105.047.21.086a3.2 3.2 0 0 0 .93.18c3.566.167 4.256-4.263 1.684-5.549a2.47 2.47 0 0 1 1.724.42 3.61 3.61 0 0 0-3.134-1.831q-.126.002-.25.013a3.6 3.6 0 0 0-1.97.758c.11.093.233.216.492.472.485.478 1.73.973 1.733 1.031"/><path fill="#1d97f8" d="m5.93 5.347.148.098a3.3 3.3 0 0 1-.02-1.748 5.3 5.3 0 0 0-1.722 1.33c.035 0 1.073-.02 1.594.32"/><path fill="#3bbfff" d="M1.388 8.633c.552 3.261 3.508 5.752 6.864 5.847 3.106.088 5.09-1.715 5.91-3.474a6.48 6.48 0 0 0 .223-4.828v-.014l.001.012c.254 1.657-.589 3.262-1.906 4.347l-.004.01c-2.567 2.09-5.023 1.26-5.52.922l-.104-.052c-1.497-.715-2.115-2.078-1.983-3.248A1.84 1.84 0 0 1 3.175 7.09a2.7 2.7 0 0 1 2.63-.106 3.56 3.56 0 0 0 2.685.106c-.003-.059-1.247-.554-1.733-1.032-.259-.256-.382-.379-.491-.471a2 2 0 0 0-.185-.14l-.147-.098c-.522-.34-1.56-.32-1.594-.32h-.003c-.284-.359-.264-1.544-.248-1.791a1.3 1.3 0 0 0-.238.127 5 5 0 0 0-.7.599 6 6 0 0 0-.67.8 6 6 0 0 0-.96 2.167c-.004.015-.258 1.126-.133 1.702"/><path fill="#097cf4" d="M10.998 5.818a4 4 0 0 1 .664.867q.06.046.108.088c1.621 1.495.772 3.608.708 3.758 1.318-1.085 2.16-2.69 1.906-4.347-.809-2.017-2.18-2.83-3.3-4.6a9 9 0 0 1-.169-.274 2 2 0 0 1-.078-.148A1.3 1.3 0 0 1 10.73.88a.02.02 0 0 0-.016-.018H10.7l-.003.001-.005.003c-.277.131-1.917 2.729.306 4.952"/><path fill="#1d97f8" d="M11.768 6.768a2 2 0 0 0-.107-.088l-.045-.033a2.47 2.47 0 0 0-1.724-.419c2.572 1.287 1.882 5.716-1.683 5.549a3.2 3.2 0 0 1-.93-.18q-.106-.039-.21-.086-.062-.026-.122-.057l.005.003c.498.34 2.953 1.169 5.52-.922l.005-.01c.064-.15.913-2.263-.709-3.757"/><path fill="#1d97f8" d="M5.264 9.112s.33-1.23 2.364-1.23c.22 0 .849-.614.86-.792a3.56 3.56 0 0 1-2.685-.105 2.7 2.7 0 0 0-2.63.105 1.84 1.84 0 0 0 1.694 1.066c-.132 1.17.486 2.533 1.983 3.248l.099.049c-.874-.451-1.595-1.305-1.685-2.34z"/></g></svg>