<svg xmlns="http://www.w3.org/2000/svg" xmlns:xlink="http://www.w3.org/1999/xlink" width="64" height="64" viewBox="0 0 16.933 16.933"><defs><linearGradient id="b" gradientUnits="userSpaceOnUse" x1="-488.268" x2="-488.268" xlink:href="#a" y1="685.242" y2="219.421"/><linearGradient id="a"><stop offset="0" stop-color="#3889e9"/><stop offset="1" stop-color="#5ea5fb"/></linearGradient><linearGradient id="c" gradientUnits="userSpaceOnUse" x1="-1483.13" x2="-1483.13" xlink:href="#a" y1="683.663" y2="138.004"/><linearGradient id="d" gradientUnits="userSpaceOnUse" x1="-.519" x2="-.519" xlink:href="#a" y1="715.891" y2="233.701"/><linearGradient id="e" gradientUnits="userSpaceOnUse" x1="623.442" x2="623.442" xlink:href="#a" y1="675.566" y2="193.376"/><linearGradient id="f" gradientUnits="userSpaceOnUse" x1="129.607" x2="129.607" xlink:href="#a" y1="647.8" y2="165.61"/><linearGradient id="g" gradientTransform="matrix(.39833 .40706 -.40644 .39773 -309.896 275.612)" gradientUnits="userSpaceOnUse" x1="506.529" x2="453.21" y1="405.259" y2="-182.13"><stop offset="0" stop-color="#006ff2" stop-opacity="0"/><stop offset="1" stop-color="#006ff2"/></linearGradient></defs><g transform="matrix(.02798 0 0 .02798 17.953 -4.232)"><g stroke-width=".852"><text x="6289.34" y="294.478" opacity=".8"></text><text x="6532.781" y="-119.454" opacity=".8"></text><text x="-8407.936" y="-425.045" opacity=".8"></text><text x="-26936.396" y="7149.7" opacity=".8"></text><text x="-7244.72" y="-4339.866" opacity=".8"></text><text x="960.434" y="-8540.679" opacity=".8"></text><text x="1203.874" y="-8954.611" opacity=".8"></text><text x="-13949.235" y="-9027.862" opacity=".8"></text><text x="889.726" y="-11803.893" opacity=".8"></text><text x="15988.587" y="-5436.773" opacity=".8"></text><text x="16232.024" y="-5850.705" opacity=".8"></text><text x="1078.915" y="-5923.958" opacity=".8"></text><text x="15917.878" y="-8699.986" opacity=".8"></text><text x="-8449.199" y="-6412.56" opacity=".8"></text><text x="-26977.654" y="1162.186" opacity=".8"></text><text x="-9555.92" y="2105.757" opacity=".8"></text><text x="1711.651" y="285.285" opacity=".8"></text><text x="1955.092" y="-128.646" opacity=".8"></text><text x="-13198.018" y="-201.899" opacity=".8"></text><text x="1640.944" y="-2977.928" opacity=".8"></text><text x="-8800.732" y="-229.475" opacity=".8"></text><text x="-27329.191" y="7345.27" opacity=".8"></text><text x="-7265.643" y="-8982.535" opacity=".8"></text><text x="939.51" y="-13183.35" opacity=".8"></text><text x="1182.95" y="-13597.28" opacity=".8"></text><text x="-13970.158" y="-13670.532" opacity=".8"></text><text x="868.802" y="-16446.562" opacity=".8"></text><text x="15967.66" y="-10079.445" opacity=".8"></text><text x="16211.102" y="-10493.375" opacity=".8"></text><text x="1057.991" y="-10566.629" opacity=".8"></text><text x="15896.954" y="-13342.658" opacity=".8"></text><text x="-8470.124" y="-11055.23" opacity=".8"></text><text x="-26998.58" y="-3480.484" opacity=".8"></text><text x="-9576.845" y="-2536.913" opacity=".8"></text><text x="-1042.384" y="-89.25" opacity=".8"></text><text x="-798.944" y="-503.182" opacity=".8"></text><text x="-13700.147" y="-2474.492" opacity=".8"></text><text x="-5494.996" y="-6675.306" opacity=".8"></text><text x="-5251.555" y="-7089.237" opacity=".8"></text><text x="-20404.664" y="-7162.489" opacity=".8"></text><text x="-5565.704" y="-9938.52" opacity=".8"></text><text x="9533.154" y="-3571.4" opacity=".8"></text><text x="9776.594" y="-3985.332" opacity=".8"></text><text x="-5376.515" y="-4058.585" opacity=".8"></text><text x="9462.448" y="-6834.614" opacity=".8"></text><text x="-14904.63" y="-4547.187" opacity=".8"></text><text x="-33433.086" y="3027.56" opacity=".8"></text><text x="-16011.406" y="3971.125" opacity=".8"></text><text x="6289.34" y="368.015" opacity=".8"></text><text x="6532.781" y="-45.917" opacity=".8"></text><text x="-8407.936" y="-351.507" opacity=".8"></text><text x="-26936.396" y="7223.238" opacity=".8"></text><text x="-7244.72" y="-4266.328" opacity=".8"></text><text x="960.434" y="-8467.142" opacity=".8"></text><text x="1203.874" y="-8881.073" opacity=".8"></text><text x="-13949.235" y="-8954.325" opacity=".8"></text><text x="889.726" y="-11730.354" opacity=".8"></text><text x="15988.587" y="-5363.236" opacity=".8"></text><text x="16232.024" y="-5777.168" opacity=".8"></text><text x="1078.915" y="-5850.42" opacity=".8"></text><text x="15917.878" y="-8626.448" opacity=".8"></text><text x="-8449.199" y="-6339.023" opacity=".8"></text><text x="-26977.654" y="1235.724" opacity=".8"></text><text x="-9555.92" y="2179.295" opacity=".8"></text><text x="1711.651" y="358.823" opacity=".8"></text><text x="1955.092" y="-55.109" opacity=".8"></text><text x="-13198.018" y="-128.361" opacity=".8"></text><text x="1640.944" y="-2904.39" opacity=".8"></text><text x="-8800.732" y="-155.938" opacity=".8"></text><text x="-27329.191" y="7418.808" opacity=".8"></text><text x="-7265.643" y="-8908.998" opacity=".8"></text><text x="939.51" y="-13109.811" opacity=".8"></text><text x="1182.95" y="-13523.744" opacity=".8"></text><text x="-13970.158" y="-13596.995" opacity=".8"></text><text x="868.802" y="-16373.025" opacity=".8"></text><text x="15967.66" y="-10005.908" opacity=".8"></text><text x="16211.102" y="-10419.84" opacity=".8"></text><text x="1057.991" y="-10493.091" opacity=".8"></text><text x="15896.954" y="-13269.121" opacity=".8"></text><text x="-8470.124" y="-10981.693" opacity=".8"></text><text x="-26998.58" y="-3406.947" opacity=".8"></text><text x="-9576.845" y="-2463.375" opacity=".8"></text><text x="-1042.384" y="-15.713" opacity=".8"></text><text x="-798.944" y="-429.645" opacity=".8"></text><text x="-13700.147" y="-2400.955" opacity=".8"></text><text x="-5494.996" y="-6601.769" opacity=".8"></text><text x="-5251.555" y="-7015.7" opacity=".8"></text><text x="-20404.664" y="-7088.953" opacity=".8"></text><text x="-5565.704" y="-9864.982" opacity=".8"></text><text x="9533.154" y="-3497.863" opacity=".8"></text><text x="9776.594" y="-3911.795" opacity=".8"></text><text x="-5376.515" y="-3985.047" opacity=".8"></text><text x="9462.448" y="-6761.077" opacity=".8"></text><text x="-14904.63" y="-4473.65" opacity=".8"></text><text x="-33433.086" y="3101.097" opacity=".8"></text><text x="-16011.406" y="4044.682" opacity=".8"></text><text x="1805.556" y="-3485.39"> </text><text x="6531.776" y="-8382.913" opacity=".8"></text><text x="-11996.682" y="-808.167" opacity=".8"></text><text x="13918.828" y="-11278.44" opacity=".8"></text><text x="14162.268" y="-11692.372" opacity=".8"></text><text x="-990.842" y="-11765.625" opacity=".8"></text><text x="13848.12" y="-14541.655" opacity=".8"></text></g><text x="7015.248" y="311.396" opacity=".8" stroke-width=".852"></text><text x="7267.242" y="-117.081" opacity=".8" stroke-width=".852"></text><text x="-8198.475" y="-433.41" opacity=".8" stroke-width=".852"></text><text x="-27378.002" y="7407.503" opacity=".8" stroke-width=".852"></text><text x="-6994.384" y="-4485.792" opacity=".8" stroke-width=".852"></text><text x="1499.089" y="-8834.218" opacity=".8" stroke-width=".852"></text><text x="1751.084" y="-9262.694" opacity=".8" stroke-width=".852"></text><text x="-13934.487" y="-9338.521" opacity=".8" stroke-width=".852"></text><text x="1425.897" y="-12212.097" opacity=".8" stroke-width=".852"></text><text x="17055.311" y="-5621.245" opacity=".8" stroke-width=".852"></text><text x="17307.303" y="-6049.722" opacity=".8" stroke-width=".852"></text><text x="1621.734" y="-6125.547" opacity=".8" stroke-width=".852"></text><text x="16982.119" y="-8999.124" opacity=".8" stroke-width=".852"></text><text x="-8241.189" y="-6631.319" opacity=".8" stroke-width=".852"></text><text x="-27420.709" y="1209.595" opacity=".8" stroke-width=".852"></text><text x="-9386.796" y="2186.322" opacity=".8" stroke-width=".852"></text><text x="2276.703" y="301.881" opacity=".8" stroke-width=".852"></text><text x="2528.698" y="-126.596" opacity=".8" stroke-width=".852"></text><text x="-13156.873" y="-202.422" opacity=".8" stroke-width=".852"></text><text x="2203.511" y="-3075.998" opacity=".8" stroke-width=".852"></text><text x="-8605.073" y="-230.968" opacity=".8" stroke-width=".852"></text><text x="-27784.6" y="7609.944" opacity=".8" stroke-width=".852"></text><text x="-7016.043" y="-9291.6" opacity=".8" stroke-width=".852"></text><text x="1477.43" y="-13640.025" opacity=".8" stroke-width=".852"></text><text x="1729.424" y="-14068.502" opacity=".8" stroke-width=".852"></text><text x="-13956.146" y="-14144.328" opacity=".8" stroke-width=".852"></text><text x="1404.237" y="-17017.902" opacity=".8" stroke-width=".852"></text><text x="17033.65" y="-10427.055" opacity=".8" stroke-width=".852"></text><text x="17285.645" y="-10855.528" opacity=".8" stroke-width=".852"></text><text x="1600.074" y="-10931.355" opacity=".8" stroke-width=".852"></text><text x="16960.457" y="-13804.932" opacity=".8" stroke-width=".852"></text><text x="-8262.847" y="-11437.129" opacity=".8" stroke-width=".852"></text><text x="-27442.371" y="-3596.214" opacity=".8" stroke-width=".852"></text><text x="-9408.456" y="-2619.486" opacity=".8" stroke-width=".852"></text><text x="-574.106" y="-85.816" opacity=".8" stroke-width=".852"></text><text x="-322.111" y="-514.292" opacity=".8" stroke-width=".852"></text><text x="-13676.648" y="-2554.872" opacity=".8" stroke-width=".852"></text><text x="-5183.177" y="-6903.298" opacity=".8" stroke-width=".852"></text><text x="-4931.183" y="-7331.773" opacity=".8" stroke-width=".852"></text><text x="-20616.754" y="-7407.6" opacity=".8" stroke-width=".852"></text><text x="-5256.369" y="-10281.177" opacity=".8" stroke-width=".852"></text><text x="10373.045" y="-3690.325" opacity=".8" stroke-width=".852"></text><text x="10625.039" y="-4118.802" opacity=".8" stroke-width=".852"></text><text x="-5060.532" y="-4194.627" opacity=".8" stroke-width=".852"></text><text x="10299.854" y="-7068.204" opacity=".8" stroke-width=".852"></text><text x="-14923.454" y="-4700.399" opacity=".8" stroke-width=".852"></text><text x="-34102.977" y="3140.515" opacity=".8" stroke-width=".852"></text><text x="-16069.12" y="4117.236" opacity=".8" stroke-width=".852"></text><text x="7015.248" y="387.517" opacity=".8" stroke-width=".852"></text><text x="7267.242" y="-40.96" opacity=".8" stroke-width=".852"></text><text x="-8198.475" y="-357.288" opacity=".8" stroke-width=".852"></text><text x="-27378.002" y="7483.624" opacity=".8" stroke-width=".852"></text><text x="-6994.384" y="-4409.671" opacity=".8" stroke-width=".852"></text><text x="1499.089" y="-8758.096" opacity=".8" stroke-width=".852"></text><text x="1751.084" y="-9186.573" opacity=".8" stroke-width=".852"></text><text x="-13934.487" y="-9262.398" opacity=".8" stroke-width=".852"></text><text x="1425.897" y="-12135.976" opacity=".8" stroke-width=".852"></text><text x="17055.311" y="-5545.123" opacity=".8" stroke-width=".852"></text><text x="17307.303" y="-5973.601" opacity=".8" stroke-width=".852"></text><text x="1621.734" y="-6049.426" opacity=".8" stroke-width=".852"></text><text x="16982.119" y="-8923.001" opacity=".8" stroke-width=".852"></text><text x="-8241.189" y="-6555.198" opacity=".8" stroke-width=".852"></text><text x="-27420.709" y="1285.716" opacity=".8" stroke-width=".852"></text><text x="-9386.796" y="2262.444" opacity=".8" stroke-width=".852"></text><text x="2276.703" y="378.002" opacity=".8" stroke-width=".852"></text><text x="2528.698" y="-50.475" opacity=".8" stroke-width=".852"></text><text x="-13156.873" y="-126.301" opacity=".8" stroke-width=".852"></text><text x="2203.511" y="-2999.877" opacity=".8" stroke-width=".852"></text><text x="-8605.073" y="-154.846" opacity=".8" stroke-width=".852"></text><text x="-27784.6" y="7686.067" opacity=".8" stroke-width=".852"></text><text x="-7016.043" y="-9215.479" opacity=".8" stroke-width=".852"></text><text x="1477.43" y="-13563.904" opacity=".8" stroke-width=".852"></text><text x="1729.424" y="-13992.382" opacity=".8" stroke-width=".852"></text><text x="-13956.146" y="-14068.207" opacity=".8" stroke-width=".852"></text><text x="1404.237" y="-16941.783" opacity=".8" stroke-width=".852"></text><text x="17033.65" y="-10350.934" opacity=".8" stroke-width=".852"></text><text x="17285.645" y="-10779.409" opacity=".8" stroke-width=".852"></text><text x="1600.074" y="-10855.235" opacity=".8" stroke-width=".852"></text><text x="16960.457" y="-13728.812" opacity=".8" stroke-width=".852"></text><text x="-8262.847" y="-11361.006" opacity=".8" stroke-width=".852"></text><text x="-27442.371" y="-3520.092" opacity=".8" stroke-width=".852"></text><text x="-9408.456" y="-2543.365" opacity=".8" stroke-width=".852"></text><text x="-574.106" y="-9.695" opacity=".8" stroke-width=".852"></text><text x="-322.111" y="-438.171" opacity=".8" stroke-width=".852"></text><text x="-13676.648" y="-2478.751" opacity=".8" stroke-width=".852"></text><text x="-5183.177" y="-6827.177" opacity=".8" stroke-width=".852"></text><text x="-4931.183" y="-7255.653" opacity=".8" stroke-width=".852"></text><text x="-20616.754" y="-7331.48" opacity=".8" stroke-width=".852"></text><text x="-5256.369" y="-10205.056" opacity=".8" stroke-width=".852"></text><text x="10373.045" y="-3614.203" opacity=".8" stroke-width=".852"></text><text x="10625.039" y="-4042.68" opacity=".8" stroke-width=".852"></text><text x="-5060.532" y="-4118.506" opacity=".8" stroke-width=".852"></text><text x="10299.854" y="-6992.082" opacity=".8" stroke-width=".852"></text><text x="-14923.454" y="-4624.277" opacity=".8" stroke-width=".852"></text><text x="-34102.977" y="3216.636" opacity=".8" stroke-width=".852"></text><text x="-16069.12" y="4193.378" opacity=".8" stroke-width=".852"></text><text x="2373.907" y="-3601.292" stroke-width=".852"> </text><text x="7266.202" y="-8670.907" opacity=".8" stroke-width=".852"></text><text x="-11913.324" y="-829.995" opacity=".8" stroke-width=".852"></text><text x="14912.825" y="-11668.181" opacity=".8" stroke-width=".852"></text><text x="15164.819" y="-12096.658" opacity=".8" stroke-width=".852"></text><text x="-520.752" y="-12172.484" opacity=".8" stroke-width=".852"></text><text x="14839.634" y="-15046.06" opacity=".8" stroke-width=".852"></text><text x="10047.916" y="102.516" opacity=".8" stroke-width=".852"></text><text x="10327.145" y="-372.267" opacity=".8" stroke-width=".852"></text><text x="-6810.006" y="-722.783" opacity=".8" stroke-width=".852"></text><text x="-28062.33" y="7965.523" opacity=".8" stroke-width=".852"></text><text x="-5475.785" y="-5213.121" opacity=".8" stroke-width=".852"></text><text x="3935.606" y="-10031.494" opacity=".8" stroke-width=".852"></text><text x="4214.835" y="-10506.279" opacity=".8" stroke-width=".852"></text><text x="-13165.93" y="-10590.299" opacity=".8" stroke-width=".852"></text><text x="3854.504" y="-13774.434" opacity=".8" stroke-width=".852"></text><text x="21173.043" y="-6471.285" opacity=".8" stroke-width=".852"></text><text x="21452.27" y="-6946.069" opacity=".8" stroke-width=".852"></text><text x="4071.506" y="-7030.09" opacity=".8" stroke-width=".852"></text><text x="21091.941" y="-10214.222" opacity=".8" stroke-width=".852"></text><text x="-6857.336" y="-7590.522" opacity=".8" stroke-width=".852"></text><text x="-28109.654" y="1097.786" opacity=".8" stroke-width=".852"></text><text x="-8126.754" y="2180.072" opacity=".8" stroke-width=".852"></text><text x="4797.26" y="91.973" opacity=".8" stroke-width=".852"></text><text x="5076.489" y="-382.811" opacity=".8" stroke-width=".852"></text><text x="-12304.276" y="-466.832" opacity=".8" stroke-width=".852"></text><text x="4716.158" y="-3650.965" opacity=".8" stroke-width=".852"></text><text x="-7260.547" y="-498.463" opacity=".8" stroke-width=".852"></text><text x="-28512.871" y="8189.844" opacity=".8" stroke-width=".852"></text><text x="-5499.784" y="-10538.31" opacity=".8" stroke-width=".852"></text><text x="3911.607" y="-15356.685" opacity=".8" stroke-width=".852"></text><text x="4190.835" y="-15831.467" opacity=".8" stroke-width=".852"></text><text x="-13189.93" y="-15915.488" opacity=".8" stroke-width=".852"></text><text x="3830.505" y="-19099.621" opacity=".8" stroke-width=".852"></text><text x="21149.043" y="-11796.476" opacity=".8" stroke-width=".852"></text><text x="21428.27" y="-12271.258" opacity=".8" stroke-width=".852"></text><text x="4047.507" y="-12355.278" opacity=".8" stroke-width=".852"></text><text x="21067.943" y="-15539.411" opacity=".8" stroke-width=".852"></text><text x="-6881.336" y="-12915.711" opacity=".8" stroke-width=".852"></text><text x="-28133.656" y="-4227.402" opacity=".8" stroke-width=".852"></text><text x="-8150.753" y="-3145.117" opacity=".8" stroke-width=".852"></text><text x="1638.355" y="-337.624" opacity=".8" stroke-width=".852"></text><text x="1917.583" y="-812.407" opacity=".8" stroke-width=".852"></text><text x="-12880.224" y="-3073.519" opacity=".8" stroke-width=".852"></text><text x="-3468.834" y="-7891.894" opacity=".8" stroke-width=".852"></text><text x="-3189.606" y="-8366.678" opacity=".8" stroke-width=".852"></text><text x="-20570.369" y="-8450.698" opacity=".8" stroke-width=".852"></text><text x="-3549.936" y="-11634.833" opacity=".8" stroke-width=".852"></text><text x="13768.603" y="-4331.684" opacity=".8" stroke-width=".852"></text><text x="14047.83" y="-4806.468" opacity=".8" stroke-width=".852"></text><text x="-3332.935" y="-4890.489" opacity=".8" stroke-width=".852"></text><text x="13687.5" y="-8074.623" opacity=".8" stroke-width=".852"></text><text x="-14261.777" y="-5450.921" opacity=".8" stroke-width=".852"></text><text x="-35514.098" y="3237.388" opacity=".8" stroke-width=".852"></text><text x="-15531.258" y="4319.667" opacity=".8" stroke-width=".852"></text><text x="10047.916" y="186.864" opacity=".8" stroke-width=".852"></text><text x="10327.145" y="-287.92" opacity=".8" stroke-width=".852"></text><text x="-6810.006" y="-638.435" opacity=".8" stroke-width=".852"></text><text x="-28062.33" y="8049.871" opacity=".8" stroke-width=".852"></text><text x="-5475.785" y="-5128.773" opacity=".8" stroke-width=".852"></text><text x="3935.606" y="-9947.147" opacity=".8" stroke-width=".852"></text><text x="4214.835" y="-10421.93" opacity=".8" stroke-width=".852"></text><text x="-13165.93" y="-10505.951" opacity=".8" stroke-width=".852"></text><text x="3854.504" y="-13690.085" opacity=".8" stroke-width=".852"></text><text x="21173.043" y="-6386.937" opacity=".8" stroke-width=".852"></text><text x="21452.27" y="-6861.722" opacity=".8" stroke-width=".852"></text><text x="4071.506" y="-6945.742" opacity=".8" stroke-width=".852"></text><text x="21091.941" y="-10129.873" opacity=".8" stroke-width=".852"></text><text x="-6857.336" y="-7506.174" opacity=".8" stroke-width=".852"></text><text x="-28109.654" y="1182.134" opacity=".8" stroke-width=".852"></text><text x="-8126.754" y="2264.42" opacity=".8" stroke-width=".852"></text><text x="4797.26" y="176.32" opacity=".8" stroke-width=".852"></text><text x="5076.489" y="-298.463" opacity=".8" stroke-width=".852"></text><text x="-12304.276" y="-382.484" opacity=".8" stroke-width=".852"></text><text x="4716.158" y="-3566.617" opacity=".8" stroke-width=".852"></text><text x="-7260.547" y="-414.115" opacity=".8" stroke-width=".852"></text><text x="-28512.871" y="8274.192" opacity=".8" stroke-width=".852"></text><text x="-5499.784" y="-10453.96" opacity=".8" stroke-width=".852"></text><text x="3911.607" y="-15272.335" opacity=".8" stroke-width=".852"></text><text x="4190.835" y="-15747.119" opacity=".8" stroke-width=".852"></text><text x="-13189.93" y="-15831.14" opacity=".8" stroke-width=".852"></text><text x="3830.505" y="-19015.273" opacity=".8" stroke-width=".852"></text><text x="21149.043" y="-11712.127" opacity=".8" stroke-width=".852"></text><text x="21428.27" y="-12186.909" opacity=".8" stroke-width=".852"></text><text x="4047.507" y="-12270.93" opacity=".8" stroke-width=".852"></text><text x="21067.943" y="-15455.063" opacity=".8" stroke-width=".852"></text><text x="-6881.336" y="-12831.362" opacity=".8" stroke-width=".852"></text><text x="-28133.656" y="-4143.055" opacity=".8" stroke-width=".852"></text><text x="-8150.753" y="-3060.768" opacity=".8" stroke-width=".852"></text><text x="1638.355" y="-253.276" opacity=".8" stroke-width=".852"></text><text x="1917.583" y="-728.059" opacity=".8" stroke-width=".852"></text><text x="-12880.224" y="-2989.171" opacity=".8" stroke-width=".852"></text><text x="-3468.834" y="-7807.546" opacity=".8" stroke-width=".852"></text><text x="-3189.606" y="-8282.33" opacity=".8" stroke-width=".852"></text><text x="-20570.369" y="-8366.352" opacity=".8" stroke-width=".852"></text><text x="-3549.936" y="-11550.484" opacity=".8" stroke-width=".852"></text><text x="13768.603" y="-4247.336" opacity=".8" stroke-width=".852"></text><text x="14047.83" y="-4722.12" opacity=".8" stroke-width=".852"></text><text x="-3332.935" y="-4806.141" opacity=".8" stroke-width=".852"></text><text x="13687.5" y="-7990.275" opacity=".8" stroke-width=".852"></text><text x="-14261.777" y="-5366.572" opacity=".8" stroke-width=".852"></text><text x="-35514.098" y="3321.735" opacity=".8" stroke-width=".852"></text><text x="-15531.258" y="4404.038" opacity=".8" stroke-width=".852"></text><text x="4904.97" y="-4233.029" stroke-width=".852"> </text><text x="10325.991" y="-9850.534" opacity=".8" stroke-width=".852"></text><text x="-10926.333" y="-1162.228" opacity=".8" stroke-width=".852"></text><text x="18799.014" y="-13171.733" opacity=".8" stroke-width=".852"></text><text x="19078.24" y="-13646.519" opacity=".8" stroke-width=".852"></text><text x="1697.475" y="-13730.54" opacity=".8" stroke-width=".852"></text><text x="18717.912" y="-16914.674" opacity=".8" stroke-width=".852"></text><circle cx="-334.206" cy="468.247" r="229.937" fill="#2a55c4"/><path d="M-96.785 457.295c5.706-64.502-63.312-161.888-92.074-209.452-7.262 5.31-11.337 18.374-11.337 18.374-42.783-33.865-38.603-41.925-56.582-65.784-133.28 195.742 135.708 179.852 20.175 339.979-1.896 1.191-1.838-9.383-11.701-24.628-12.539 59.796-93.523 98.227-156.044 40.47 18.51 4.023 53.651-.625 69.206-12.18.02-.01.04-.03.059-.04 16.891-11.531 26.894-19.952 35.877-17.96 8.988 2.003 14.972-7.004 7.99-14.994-6.989-8.006-23.96-19.01-46.92-13.014-16.191 4.234-36.259 22.123-66.887 4.01-23.509-13.909-25.723-25.463-25.931-33.465.58-2.837 1.311-5.486 2.179-7.906 2.706-7.546 10.911-9.823 15.475-11.62 7.742 1.327 14.412 3.738 21.416 7.325a121.5 121.5 0 0 0-.01-8.92c.672-1.333.257-5.351-.82-10.263-.62-4.902-1.628-9.974-3.216-14.594.006-.001.01-.005.01-.007.03-.01.05-.02.08-.03a.28.28 0 0 0 .098-.089c.006-.01.01-.02.02-.02.04-.059.069-.129.099-.222.485-2.195 5.726-6.43 12.248-10.984 5.845-4.08 12.716-8.415 18.13-11.77 4.79-2.971 8.438-5.175 9.214-5.753.293-.223.646-.481 1.03-.778.07-.06.143-.11.216-.17.05-.039.09-.068.137-.106 2.576-2.049 6.422-5.919 7.228-14.065l.006-.059.06-.73c.01-.171.019-.345.039-.52.007-.136.02-.27.02-.407l.03-.982.001-.059c.01-.789-.003-1.61-.05-2.473-.029-.482-.059-.917-.14-1.313-.004-.02-.01-.04-.01-.07a2.767 2.767 0 0 0-.03-.115l-.06-.204c-.002-.01-.005-.02-.008-.02-.02-.079-.05-.15-.08-.221l-.002-.008c-.836-1.953-3.963-2.69-16.88-2.91h-.039c-5.27-.09-12.162-.09-21.194-.06-15.835.06-24.587-15.456-27.38-21.46 3.829-21.142 14.895-36.208 33.074-46.424.343-.194.276-.354-.13-.465 3.554-2.148-42.98-.06-64.383 27.122-18.996-4.714-35.553-4.397-49.822-1.053-2.74-.08-6.155-.418-10.208-1.261-9.49-8.586-23.076-24.443-23.804-43.372 0 0-.04.04-.12.1-.01-.183-.029-.362-.039-.544 0 0-28.915 22.19-24.588 82.685-.01.968-.03 1.895-.059 2.793-7.825 10.599-11.709 19.507-11.997 21.473-6.932 14.097-13.969 35.31-19.695 67.516 0 0 4.005-12.68 12.042-27.041-5.676 63.408-.627 105.018 31.488 161.987 74.01 115.05 190.802 136.302 286.27 101.508 95.469-34.793 169.612-125.63 158.322-234.757z" fill="#3bbfff"/><path d="M-553.67 366.699c12.388-22.87 24.028-37.875 49.292-42.351-14.21-13.548-18.256-21.078-24.799-44.238-25.273 27.338-25.106 55.74-24.493 86.589zM-396.159 423.88c14.73-19.37 60.78-29.855 47.258-56.557-31.717-8.083-51.594 6.958-64.2-22.81-10.884 41.95 3.772 62.16 16.942 79.367zM-422.635 451.274c-62.018 6.163-51.32 39.466-46.93 72.782l15.879-13.23c11.143 32.406 76.924 27.224 113.391 15.884 16.612-5.165 31.374-3.895 37.8-1.262 18.097 3.883 16.887-11.45 8.975-16.014-43.315-49.31-83.318 45.463-136.705-35.027-3.264-4.921-.05-12.986 7.59-23.133z" fill="#006ff2" fill-rule="evenodd" opacity=".5"/><path d="M-167.267 325.287c28.195 96.919-2.411 65.29.903 142.737-18.945-7.805-13.956-43.784-7.915-44.086-78.386 61.668-48.87 117.73-77.979 140.875-85.625 65.067-69.92 55.242-71.255 57.01 22.133 39.758 53.841 53.01 78.365 61.983 120.393-41.968 173.925-151.799 143.695-268.371-5.796-30.287-18.339-64.163-65.814-90.148z" fill="url(#g)"/></g></svg>