<svg width="64" height="64" image-rendering="optimizeSpeed" version="1.1" xmlns="http://www.w3.org/2000/svg">
 <path d="m16.715 56.511c-3.3864-3.773-5.3272-8.5555-8.0506-12.788-2.0343-3.5303-4.3302-6.9713-5.7347-10.814-0.33766-3.286 2.2453-5.8964 3.5452-8.6973 3.0995-5.0918 5.7782-10.436 8.9894-15.455 1.4204-2.7936 4.7703-2.6071 7.4379-2.6526 7.6138-0.097311 21.77-0.36079 22.779 0.18424 4.5263 3.1865 6.0949 8.2411 8.8892 12.594 2.1262 3.898 4.8833 7.4999 6.4116 11.692 0.67227 3.1758-1.6909 5.8973-2.9634 8.6032-3.2301 5.5097-6.1464 11.209-9.5666 16.604-1.5574 2.3419-4.5463 1.9925-6.9855 2.1307-7.705 0.22018-22.766 0.22084-23.371-0.39879z" fill="#2790f1" stroke-width=".47273"/>
 <path d="m36.766 5.9082c-1.8805 0.0040344-3.9084 0.026385-5.8965 0.048828l-21.986 38.082c2.6055 4.1424 4.5372 8.7591 7.8281 12.426l1.3809 1.002c0.42371 0.43423 7.9562 0.55272 15.072 0.51562l21.998-38.1c-0.20093-0.34784-0.40369-0.69486-0.5957-1.0469-2.7943-4.3534-4.3624-9.4092-8.8887-12.596-0.50488-0.27252-4.2952-0.34194-8.9121-0.33203z" fill="#6f52e0" stroke-width=".47273"/>
 <path d="m30.869 5.957c-2.893 0.032656-5.7144 0.070772-7.9707 0.099609-2.6676 0.045571-6.0171-0.1413-7.4375 2.6523-3.2113 5.0194-5.8907 10.363-8.9902 15.455-1.2999 2.8009-3.8826 5.4112-3.5449 8.6973 1.4045 3.8423 3.7001 7.2842 5.7344 10.814 0.076761 0.11931 0.14709 0.24314 0.22266 0.36328z" fill="#bb10ce" stroke-width=".47273"/>
 <path d="m20.056 50.555c-0.66858-0.715-2.0612-2.8084-3.0946-4.652-1.0334-1.8436-3.1066-5.4094-4.6071-7.9239-2.3654-3.9638-2.695-4.8067-2.4791-6.3388 0.13696-0.97198 1.6712-4.202 3.4094-7.1779 1.7382-2.9757 3.6522-6.3809 4.2533-7.5675 0.60112-1.1863 1.6763-2.7402 2.3894-3.4532l1.2964-1.2964h21.44l1.215 1.3c0.6682 0.715 2.172 3.0018 3.3417 5.0818 1.1697 2.08 3.2151 5.59 4.5453 7.8 1.4838 2.4651 2.4178 4.5663 2.4166 5.4364-9.45e-4 0.78-0.28414 1.95-0.62897 2.6-0.34483 0.65-1.9627 3.5218-3.5953 6.3819-1.6326 2.86-3.6163 6.2982-4.4083 7.6398-0.79196 1.3419-1.9483 2.6715-2.5695 2.9546-0.70394 0.32073-5.0072 0.51471-11.419 0.51471h-10.289zm17.111-1.1694c0.91-0.27217 2.3991-0.86963 3.3091-1.3278 0.91-0.45808 2.2515-1.3875 2.9812-2.0654 0.72966-0.6779 1.1957-1.4443 1.0358-1.7032-0.15998-0.25885-0.61162-0.47064-1.0036-0.47064-0.392 0-1.4335 0.54974-2.3144 1.2217-0.88093 0.67194-2.6024 1.5229-3.8254 1.8909-1.223 0.36808-3.6012 0.66924-5.2846 0.66924s-3.8998-0.25134-4.9249-0.55853c-1.1557-0.34625-2.4791-1.2769-3.4821-2.4487-0.88987-1.0396-1.618-2.0772-1.618-2.3057s0.20833-0.28678 0.46296-0.12941c0.25463 0.15737 0.91383 0.04481 1.4649-0.25009 0.94328-0.50483 0.98318-0.45077 0.6813 0.92362-0.20376 0.92773-0.13462 1.4598 0.18966 1.4598 0.28066 0 0.53688-0.21273 0.56936-0.47273 0.03248-0.26 0.08568-0.71548 0.11818-1.0121 0.03248-0.29667 0.42551-0.77055 0.87337-1.053 0.58633-0.36984 0.95837-0.36951 1.329 9.46e-4 0.28313 0.28313 0.55489 1.2673 0.60391 2.1871 0.04903 0.91974 0.24868 1.5749 0.44369 1.4558 0.195-0.11907 0.36414-0.8953 0.37587-1.725l0.02132-1.5085 1.2988 2.8364 0.03839-1.7184c0.03059-1.3681-0.22171-1.8888-1.2376-2.5544-0.70182-0.45984-1.8186-0.82444-2.4818-0.81026-0.66319 0.01418-1.7574 0.17164-2.4315 0.34989-1.0698 0.28286-1.3093 0.1235-1.8829-1.2532l-0.65719-1.5773-0.61327 2.8364-0.05593-1.3152c-0.03077-0.72337 0.25432-2.0577 0.63351-2.9653 0.3792-0.90755 1.3351-2.0175 2.1243-2.4667 0.78918-0.44914 1.4362-0.98361 1.4379-1.1877 0.0014-0.20415-0.3945-0.15846-0.88032 0.10155-0.48582 0.26-1.0004 0.35563-1.1435 0.21251-0.14312-0.14312-0.50648 0.19996-0.80752 0.76237-0.32849 0.61379-0.8261 0.91563-1.2447 0.755-0.39211-0.15047-0.57096-0.06304-0.40858 0.1997 0.15885 0.25702 0.05098 0.46732-0.23971 0.46732-0.29069 0-0.39706 0.21273-0.23636 0.47273 0.16069 0.26 0.0529 0.47273-0.23954 0.47273s-0.94319-0.22021-1.4461-0.48937c-0.50289-0.26916-0.9144-0.38231-0.9144-0.25146s0.585 0.55527 1.3 0.94319c0.715 0.38789 1.0216 0.71378 0.6812 0.72418-0.34035 0.0104-0.48734 0.23166-0.32665 0.49164 0.16068 0.25998-0.09267 0.48767-0.56302 0.50596-0.76336 0.02964-0.75367 0.07685 0.09028 0.4395 0.8268 0.35528 0.77594 0.41045-0.40512 0.43951-0.98701 0.0243-1.2805-0.14943-1.0902-0.64532 0.14321-0.37321 0.01759-0.75949-0.2792-0.85843-0.394-0.13133-0.37136-0.586 0.08391-1.6851 0.34292-0.82789 0.76786-1.5052 0.94432-1.5052 0.17646 0 0.62363 0.26591 0.99377 0.59091 0.37015 0.325 0.27331 0.11227-0.21509-0.47273-0.4884-0.585-0.68484-1.0636-0.43655-1.0636 0.2483 0 0.73528 0.26591 1.0822 0.59091 0.51991 0.48705 0.5443 0.42822 0.13884-0.33482-0.37889-0.71302-0.31565-1.0546 0.27527-1.4867 0.61275-0.44806 0.88457-0.40445 1.3504 0.21664 0.50365 0.67156 0.54402 0.62244 0.29588-0.35995-0.2005-0.79386-0.12197-1.0354 0.25988-0.79939 0.30096 0.186 0.54718 0.1129 0.54718-0.16244 0-0.27535 0.21273-0.50062 0.47273-0.50062 0.26 0 0.49741 0.37227 0.52757 0.82728 0.04472 0.67496 0.1 0.65317 0.30009-0.11818l0.24525-0.94546 0.37578 0.94546c0.35622 0.89625 0.37751 0.8901 0.40901-0.11818 0.01829-0.585 0.24595-1.0636 0.50596-1.0636s0.48951 0.26591 0.51008 0.59091c0.02988 0.47273 0.08501 0.47273 0.27576 0 0.13114-0.325 0.39715-0.59091 0.59115-0.59091s0.3358 0.47864 0.31515 1.0636c-0.02969 0.84174 0.25832 1.097 1.3807 1.2237 0.78 0.088 1.6957 0.3896 2.0349 0.67024s0.82983 0.95317 1.0904 1.4945c0.43724 0.90873 0.4022 0.90263-0.45613-0.07931-0.51135-0.585-1.2604-1.0636-1.6646-1.0636-0.40418 0-0.9551 0.41147-1.2242 0.9144s-0.48937 1.2474-0.48937 1.6546c0 0.49873 0.4398 0.74015 1.3483 0.74015 0.74157 0 2.0711 0.48658 2.9546 1.0813 0.88344 0.59469 1.9052 1.7115 2.2706 2.4818 0.36538 0.77031 0.84401 1.4715 1.0636 1.5581 0.21963 0.08667 0.39932 0.45895 0.39932 0.82728 0 0.36834 0.1428 0.66972 0.31732 0.66972 0.17453 0 0.70635-0.35206 1.1818-0.78237 0.47547-0.4303 0.86448-1.081 0.86448-1.4461 0-0.36505-0.21273-0.53225-0.47273-0.37157-0.26 0.16068-0.47273-0.05382-0.47273-0.4767 0-0.53636-0.26775-0.68385-0.88552-0.48781-0.67463 0.21412-1.0687-0.10487-1.6546-1.3396-0.42298-0.89138-0.76904-2.1735-0.76904-2.8492s0.20018-1.2286 0.44483-1.2286 0.5763 0.21273 0.73699 0.47273c0.16068 0.26 0.99117 0.47273 1.8455 0.47273 0.93378 0 1.8825 0.3636 2.3784 0.91157 0.56501 0.62433 0.71855 1.2574 0.48729 2.0091l-0.3377 1.0975 1.1528-1.0636c0.63407-0.585 1.4176-1.0636 1.7412-1.0636 0.3398 0 0.44238 0.24963 0.24282 0.59091-0.19004 0.325 0.08991 0.20973 0.62211-0.25615 0.5322-0.46589 0.96763-1.3536 0.96763-1.9727 0-0.82638-0.32988-1.2024-1.2409-1.4147-0.68253-0.15898-1.8259-0.52029-2.5409-0.80288-0.75457-0.29823-1.3-0.87521-1.3-1.3752 0-0.47377-0.6266-1.2316-1.3925-1.684-0.76587-0.4524-1.2971-0.97685-1.1805-1.1655 0.11656-0.1886-0.48001-0.92636-1.3257-1.6395s-2.2822-1.6078-3.1922-1.9881-2.2706-1.1293-3.0236-1.6642c-1.078-0.76596-1.2758-0.80615-0.93043-0.18901 0.24122 0.43103 1.4305 1.4128 2.6429 2.1816 1.2124 0.7689 2.5406 2.0483 2.9517 2.8431 0.42247 0.81697 0.53655 1.4451 0.26244 1.4451-0.26668 0-0.48488-0.28201-0.48488-0.6267 0-0.34468-0.47864-1.076-1.0636-1.6252-0.63034-0.59172-3.182-1.5736-6.2637-2.4102-4.4502-1.2082-5.3877-1.6358-6.5-2.9661-0.715-0.85488-1.3-1.2715-1.3-0.9257 0 0.34576 0.79773 1.422 1.7727 2.3916 1.2079 1.2012 2.7953 2.1014 4.9821 2.8254 2.0996 0.69515 3.4667 1.4553 3.9537 2.1986 0.70106 1.0699 0.67931 1.1892-0.3729 2.0468-0.68319 0.55683-1.1885 0.71103-1.3006 0.39683-0.10078-0.28262 0.16074-0.76535 0.58113-1.0728 0.68905-0.50384 0.65752-0.65932-0.31997-1.5776-0.5964-0.56028-1.4089-1.0187-1.8056-1.0187s-2.0219 0.64991-3.6114 1.4442c-1.8859 0.94239-3.3905 2.1246-4.3301 3.4022-0.79196 1.0769-1.4399 1.7518-1.4399 1.4999 0-0.25198 0.64126-1.2361 1.425-2.1869 0.78374-0.95085 2.7236-2.3777 4.3107-3.1708 2.6798-1.3391 2.8058-1.4719 1.7659-1.8613-0.61592-0.23059-1.6251-0.57682-2.2427-0.76942-0.71136-0.22183-1.0155-0.1765-0.82997 0.1237 0.16107 0.26061-0.0424 0.60249-0.45219 0.75972-0.40977 0.15724-1.2063 0.30085-1.77 0.31913-0.99226 0.03215-0.99481 0.04619-0.07952 0.4395 0.86798 0.37298 0.8486 0.40959-0.23636 0.44674-0.9413 0.03224-1.0375 0.13373-0.47273 0.49873 0.60122 0.38854 0.579 0.45935-0.14608 0.46549-0.47035 0.0038-0.7237 0.21997-0.56302 0.47996 0.16068 0.26 0.09169 0.47273-0.15333 0.47273-0.24502 0-0.5616-0.44396-0.70347-0.98659-0.16687-0.63814-0.56203-0.92882-1.1188-0.82307-0.63454 0.12055-0.92291 0.72148-1.0972 2.2866-0.13 1.1677-0.09103 3.2703 0.08659 4.6725 0.17762 1.4022 0.97534 3.8747 1.7727 5.4945 0.80998 1.6452 2.4042 3.8246 3.6125 4.9386 1.1895 1.0964 3.3395 2.5323 4.7779 3.1908 1.4383 0.65851 3.7092 1.3435 5.0464 1.5223 1.3372 0.17878 3.2822 0.24032 4.3222 0.13674s2.6355-0.41102 3.5455-0.68319zm-18.42-8.8448c-0.26915-0.50289-0.48937-1.0347-0.48937-1.1818 0-0.14711 0.27655-0.26744 0.61455-0.26744 0.34037 0 0.61455 0.52728 0.61455 1.1818 0 0.65-0.05633 1.1818-0.12518 1.1818-0.06885 0-0.3454-0.41147-0.61455-0.9144zm2.8197 0.44165c0-0.34667 0.14182-0.48847 0.31516-0.31515 0.17333 0.17334 0.17333 0.45697 0 0.63029-0.17334 0.17333-0.31516 0.03153-0.31516-0.31515zm18.909-6.8546c0-0.13 0.10636-0.23636 0.23636-0.23636 0.13 0 0.23636 0.10636 0.23636 0.23636 0 0.13-0.10636 0.23636-0.23636 0.23636-0.13 0-0.23636-0.10636-0.23636-0.23636zm-5.2605-2.0091c-0.60013-0.76526-0.57786-0.77528 0.29666-0.13377 0.52 0.38143 1.0341 0.75372 1.1424 0.82728 0.10835 0.07356-0.02515 0.13377-0.29667 0.13377-0.2715 0-0.78558-0.37227-1.1424-0.82728zm-3.7818-3.3091c-0.58803-0.7498-0.57129-0.76648 0.17848-0.17848 0.455 0.35684 0.82728 0.72914 0.82728 0.82728 0 0.09817-0.08032 0.17848-0.17848 0.17848-0.09817 0-0.47044-0.37227-0.82728-0.82728zm3.1052-0.81224c-0.50469-0.38173-0.67775-0.70082-0.3846-0.7091 0.29316-0.0083 0.79787 0.30406 1.1215 0.69406 0.32363 0.39 0.49674 0.7091 0.3846 0.7091-0.11215 0-0.61682-0.31233-1.1215-0.69406zm-6.8267 15.286c0-0.45496-0.1905-0.94494-0.42332-1.0888s-0.50563 0.60141-0.60623 1.6563c-0.15766 1.6532-0.09923 1.8035 0.42332 1.0888 0.33343-0.45599 0.60623-1.2013 0.60623-1.6563zm15.673-3.2467c0.78-0.78 1.7741-1.4429 2.2091-1.473 0.65412-0.04533 0.63974-0.09379-0.08311-0.28003-0.53229-0.13715-1.3982 0.27699-2.2147 1.0593-1.0254 0.98233-1.6245 1.2132-2.5475 0.98158-0.78043-0.19588-1.5546-0.98451-2.191-2.232-0.54128-1.061-1.1093-1.804-1.2623-1.6511-0.15294 0.15294-0.61195 0.01399-1.0201-0.30874-0.40808-0.32274 0.01187 0.47684 0.93326 1.7769 0.9214 1.3 2.193 2.6264 2.8257 2.9476 0.6328 0.32117 1.3264 0.58708 1.5414 0.59091 0.215 0.0038 1.0291-0.63124 1.8091-1.4112zm3.7091-1.1818c0-0.13-0.10636-0.23636-0.23636-0.23636s-0.23636 0.10636-0.23636 0.23636 0.10636 0.23636 0.23636 0.23636 0.23636-0.10636 0.23636-0.23636zm-28.364-2.3131c0-0.10218-0.33014-0.31247-0.73363-0.46732-0.4207-0.16143-0.61044-0.08218-0.44483 0.18579 0.15885 0.25702 0.48899 0.46732 0.73363 0.46732 0.24464 0 0.44483-0.0836 0.44483-0.18579zm30.943-5.0246c-0.01834-3.9149-0.18814-4.8266-1.345-7.221-0.72815-1.5073-2.3573-3.7739-3.6202-5.0369-1.2629-1.2629-3.5295-2.8835-5.0369-3.6012-2.0056-0.95492-3.711-1.3629-6.3587-1.5212-2.035-0.12167-4.6719 0.0365-6.0268 0.36153-1.3248 0.31782-3.6854 1.403-5.2459 2.4114-1.5603 1.0085-2.8369 2.0577-2.8369 2.3315 0 0.27383 0.34801 0.63143 0.77334 0.79466 0.42534 0.16322 1.1167 0.05208 1.5364-0.24698 0.41966-0.29906 1.8267-1.1138 3.1267-1.8105 1.8369-0.98446 3.2064-1.3116 6.1455-1.4683 3.1084-0.16561 4.2863-0.0113 6.6149 0.86666 2.0192 0.76133 3.5926 1.8279 5.4775 3.713 1.8596 1.8596 2.9483 3.456 3.6672 5.3773 0.6796 1.8165 1.0223 3.8094 1.0223 5.9451 0 1.7669 0.14918 3.3618 0.3315 3.5441 0.18232 0.18228 0.66097 0.26625 1.0636 0.1865 0.60117-0.11906 0.72838-0.9465 0.71113-4.6255zm-28.579 1.2202c0-0.11466-0.2456-0.36025-0.54577-0.54577-0.33814-0.20898-0.41745-0.12968-0.20847 0.20846 0.18552 0.30018 0.43112 0.54577 0.54577 0.54577 0.11465 0 0.20846-0.09381 0.20846-0.20846zm5.6728-0.47273c0-0.11466-0.21273-0.33994-0.47273-0.50062-0.26-0.16068-0.47273-0.06688-0.47273 0.20846 0 0.27535 0.21273 0.50062 0.47273 0.50062 0.26 0 0.47273-0.09381 0.47273-0.20846zm-3.7818-0.50062c0-0.13-0.10636-0.23636-0.23636-0.23636s-0.23636 0.10636-0.23636 0.23636c0 0.13 0.10636 0.23636 0.23636 0.23636s0.23636-0.10636 0.23636-0.23636zm-3.3091-5.6728c0-0.13-0.10636-0.23636-0.23636-0.23636s-0.23636 0.10636-0.23636 0.23636c0 0.13 0.10636 0.23636 0.23636 0.23636s0.23636-0.10636 0.23636-0.23636z" fill="#100b33" stroke-width=".47273"/>
</svg>
