<svg width="64" height="64" version="1.1" viewBox="0 0 16.933 16.933" xmlns="http://www.w3.org/2000/svg">
 <g transform="matrix(3.375 0 0 3.375 -62.97 -15.507)">
  <path d="m21.166 4.9866c1.1708 0 2.1166 0.94587 2.1166 2.1166 0 1.1708-0.94587 2.1166-2.1166 2.1166s-2.1166-0.94587-2.1166-2.1166c0-1.1708 0.94587-2.1166 2.1166-2.1166z" fill="#763983" stroke-width=".066145"/>
  <path d="m21.166 5.3002c0.99731 0 1.8031 0.80574 1.8031 1.8031 0 0.99731-0.80574 1.8031-1.8031 1.8031s-1.8031-0.80574-1.8031-1.8031c0-0.99731 0.80574-1.8031 1.8031-1.8031z" fill="#fff" opacity=".05" stroke-width=".056345"/>
  <g stroke-width=".26458">
   <path d="m21.172 6.7771c1.2686-0.24086 1.3174-0.78508 1.3174-0.78508s-0.09991 1.6866-1.027 1.7759c-1.1749 0.11308-1.1387 0.65826-1.1387 0.65826s-0.02403-0.175 0.05006-0.40338c0.1483-0.45712 0.30089-1.1512 0.79829-1.2457z" fill="#eb2273"/>
   <path d="m20.572 6.7029c0.98712-0.54268 0.93763-1.1871 0.93763-1.1871s0.56987 1.5014-0.28444 1.8514c-0.95434 0.39102-0.9052 1.0589-0.9052 1.0589s-0.47624-1.3229 0.252-1.7233z" fill="#ff812d"/>
   <path d="m19.946 7.1034c0.64189-0.77763 0.41827-1.323 0.41827-1.323s0.90165 0.94742 0.34203 1.5342c-0.62515 0.65552-0.39078 1.1116-0.39078 1.1116s-0.73768-0.87672-0.36952-1.3227z" fill="#ffdf55"/>
  </g>
 </g>
</svg>
