<?xml version="1.0" encoding="UTF-8"?>
<svg width="64" height="64" version="1.1" viewBox="0 0 16.933 16.933" xmlns="http://www.w3.org/2000/svg">
 <path d="m15.61 8.466c0 3.946-3.198 7.144-7.144 7.144-3.945-1e-3 -7.143-3.199-7.143-7.144 1e-3 -3.945 3.198-7.142 7.143-7.143 3.945 0 7.143 3.198 7.144 7.143z" fill="#998be7"/>
 <path d="m14.503 8.466a6.037 6.037 0 0 1-6.037 6.037 6.037 6.037 0 0 1-6.037-6.037 6.037 6.037 0 0 1 6.037-6.037 6.037 6.037 0 0 1 6.037 6.037z" fill="#303030">
  <title>Circle</title>
 </path>
 <path d="m8.59 6.204s-0.139-0.025 0.581-0.081c0.979-0.078 1.279-0.052 1.569 0 0.549 0.095 1.501 0.219 2.014 0.956 0.155 0.219 0.931 1.964-0.572 1.534l-1.475-1.059-1.421-0.75-0.696-0.6z" fill="#875ad4">
  <title>Shadow 2</title>
 </path>
 <path d="m13.114 8.468c0 2.568-2.08 4.648-4.648 4.648s-4.648-2.08-4.648-4.648 2.08-4.648 4.648-4.648h0.056v1e-3h9e-3c0 2e-3 5e-3 2e-3 6e-3 2e-3 0.209 0.196 0.583 0.637 0.956 1.487 0.12 0.272 0.182 0.527 0.208 0.757 0.24 0.271 0.514 0.532 0.817 0.777 0.84 0.678 1.758 1.107 2.583 1.256 9e-3 0.123 0.013 0.244 0.013 0.368z" fill="#80ffff"/>
 <path transform="matrix(.97747 -.21109 .21109 .97747 -1.9517 2.0832)" d="m11.699 10.183c0 1.182-1.307 2.141-2.918 2.141s-2.917-0.959-2.917-2.141c0-1.183 1.306-2.141 2.917-2.141s2.918 0.958 2.918 2.141z" fill="#295151">
  <title>Shadow 1</title>
 </path>
</svg>
