<svg xmlns="http://www.w3.org/2000/svg" width="64" height="64"><path fill="#8f4ddb" d="M21.279 6a4 4 0 0 0-3.44 1.964L4.842 29.96a4.02 4.02 0 0 0 0 4.079l12.997 21.997a4.01 4.01 0 0 0 3.44 1.963h21.996a4 4 0 0 0 3.438-1.963l13-21.997a4.02 4.02 0 0 0 0-4.078l-13-21.999A4.01 4.01 0 0 0 43.275 6z"/><path fill="#300eaa" d="M22.278 13.998v35.996h18.997a2 2 0 0 0 1.741-1.02l8.999-15.997a2 2 0 0 0 0-1.96l-8.999-15.996z"/><path fill="#fff" d="M22.278 12c-.728 0-1.397.393-1.749 1.031L10.53 31.028a2 2 0 0 0 0 1.94l10 17.998c1 1.807 3.758 1.095 3.758-.972v-9.999a2 2 0 0 1 2-1.998h23.997c.758 0 1.45-.43 1.79-1.107l1.998-4a2.005 2.005 0 0 0-1.789-2.898H26.287a2 2 0 0 1-1.999-2v-6a2 2 0 0 1 2-1.997h17.997c1.57-.003 2.519-1.728 1.695-3.061l-2.5-3.999a2 2 0 0 0-1.696-.943z"/></svg>