<svg width="64" height="64" version="1.1" viewBox="0 0 64 64" xmlns="http://www.w3.org/2000/svg">
 <rect x="6" y="6" width="52" height="52" rx="8" ry="8" fill="#c7bad6" stroke-width="0"/>
 <g transform="matrix(1.4613 0 0 1.4613 -3.0715 -3.0744)">
  <path d="m18.5 11c-0.708-2.7e-4 -1.36 0.373-1.72 0.982l-6.5 11c-0.371 0.628-0.371 1.41 0 2.04l6.5 11c0.36 0.609 1.02 0.983 1.72 0.982h11c0.708 2.7e-4 1.36-0.373 1.72-0.982l6.5-11c0.371-0.628 0.371-1.41 0-2.04l-6.5-11c-0.36-0.609-1.02-0.983-1.72-0.982z" fill="#8f4ddb"/>
  <path d="m19 15v18h9.5c0.361-2e-4 0.694-0.195 0.871-0.51l4.5-8c0.171-0.304 0.171-0.676 0-0.98l-4.5-8z" fill="#300eaa"/>
  <path d="m19 14c-0.364-3e-5 -0.699 0.197-0.875 0.516l-5 9c-0.168 0.302-0.168 0.669 0 0.971l5 9c0.501 0.904 1.88 0.547 1.88-0.486v-5a1 1 0 0 1 1-1h12c0.379 3e-5 0.725-0.214 0.895-0.553l1-2c0.332-0.665-0.151-1.45-0.895-1.45h-13a1 1 0 0 1-1-1v-3a1 1 0 0 1 1-1h9c0.785-7.5e-4 1.26-0.864 0.848-1.53l-1.25-2c-0.183-0.293-0.503-0.47-0.848-0.471z" fill="#ffffff"/>
 </g>
</svg>
