<svg width="64" height="64" version="1.1" xmlns="http://www.w3.org/2000/svg">
 <g transform="matrix(1.3684 0 0 1.3684 -11.512 -11.789)">
  <path d="m23.963 13a2.92 2.92 0 0 0-2.514 1.435l-9.498 16.074a2.94 2.94 0 0 0 0 2.981l9.498 16.075a2.93 2.93 0 0 0 2.514 1.435h16.074a2.92 2.92 0 0 0 2.513-1.435l9.5-16.075a2.94 2.94 0 0 0 0-2.98l-9.5-16.076a2.93 2.93 0 0 0-2.513-1.434z" fill="#8f4ddb"/>
  <path d="m24.693 18.845v26.305h13.883a1.46 1.46 0 0 0 1.272-0.746l6.576-11.69c0.25-0.444 0.25-0.988 0-1.432l-6.576-11.69z" fill="#300eaa"/>
  <path d="m24.693 17.384c-0.532 0-1.021 0.288-1.278 0.754l-7.307 13.152a1.46 1.46 0 0 0 0 1.418l7.307 13.152c0.732 1.321 2.747 0.8 2.747-0.71v-7.307a1.46 1.46 0 0 1 1.461-1.46h17.537c0.554 0 1.06-0.314 1.308-0.809l1.46-2.923a1.465 1.465 0 0 0-1.307-2.118h-18.998a1.46 1.46 0 0 1-1.461-1.462v-4.384a1.46 1.46 0 0 1 1.461-1.46h13.152c1.147-2e-3 1.841-1.263 1.239-2.237l-1.827-2.922a1.46 1.46 0 0 0-1.239-0.689z" fill="#ffffff"/>
 </g>
</svg>
