<svg width="64" height="64" version="1.1" xmlns="http://www.w3.org/2000/svg">
 <rect x="5" y="5" width="54" height="54" ry="27" fill="#f9f9f9" stroke-width=".9104"/>
 <path d="m25.04 13.739c1.7374 1.7478 1.727 3.1383 1.727 5.2435v4.3513c-6.0783 2.0387-10.424 7.5261-10.424 14.001 0 5.5539 3.2204 10.4 7.9787 12.947h15.352c4.7583-2.5474 7.9787-7.393 7.9787-12.947 0-6.4604-4.3617-11.943-10.435-14.001v-4.3513c0-2.0935-0.01043-3.4904 1.727-5.2435h-13.91" fill="#aad9ff"/>
 <path d="m17.978 30.696c-1.0448 1.9865-1.6304 4.2287-1.6304 6.6039 0 5.5487 3.2309 10.414 7.9891 12.963h15.326c4.7583-2.5474 7.9891-7.4139 7.9891-12.963 0-2.3739-0.58565-4.6161-1.6304-6.6039" fill="#46cde5"/>
 <path d="m35.913 47c0 0.3613-0.29087 0.65217-0.65217 0.65217s-0.65217-0.29609-0.65217-0.65217c0-0.3613 0.29087-0.65217 0.65217-0.65217s0.65217 0.29087 0.65217 0.65217" fill="#f9f9f9" opacity=".5"/>
 <path d="m33.957 44.065c0 0.54-0.43826 0.97826-0.97826 0.97826s-0.97826-0.43826-0.97826-0.97826 0.43826-0.97826 0.97826-0.97826 0.97826 0.43826 0.97826 0.97826" fill="#f9f9f9" opacity=".5"/>
 <path d="m35.913 39.826c0 0.7187-0.58565 1.3043-1.3043 1.3043s-1.3043-0.58565-1.3043-1.3043c0-0.72391 0.58565-1.3043 1.3043-1.3043s1.3043 0.58565 1.3043 1.3043" fill="#f9f9f9" opacity=".5"/>
 <path d="m35.913 30.043c0 1.08-0.87652 1.9565-1.9565 1.9565s-1.9565-0.88174-1.9565-1.9565c0-1.08 0.87652-1.9565 1.9565-1.9565s1.9565 0.87652 1.9565 1.9565" fill="#f9f9f9" opacity=".5"/>
 <path d="m32.652 35.587c0 0.9013-0.72913 1.6304-1.6304 1.6304-0.9013 0-1.6304-0.73435-1.6304-1.6304 0-0.9013 0.72913-1.6304 1.6304-1.6304 0.9013 0 1.6304 0.73435 1.6304 1.6304" fill="#f9f9f9" opacity=".5"/>
</svg>
