<svg xmlns="http://www.w3.org/2000/svg" width="64" height="64" image-rendering="optimizeSpeed"><defs><linearGradient id="a" x1="59.092" x2="46.289" y1="216.78" y2="169" gradientTransform="translate(6.26 -46.199) scale(.33929)" gradientUnits="userSpaceOnUse"><stop offset="0" stop-color="#0cc"/><stop offset="1" stop-color="#31e5d2"/></linearGradient></defs><path fill="#1ca8a8" d="M56.997 46.666v2.966a3.562 3.562 0 0 1-3.572 3.57h-9.82a10.712 10.712 0 0 0-9.74 6.25h-3.734a10.712 10.712 0 0 0-9.739-6.25h-9.82A3.562 3.562 0 0 1 7 49.633v-2.966z"/><path fill="#ccc" d="M33.038 28.66c-.072.441-.122.884-.147 1.33H32v28.124h1.867a10.712 10.712 0 0 1 9.739-6.25h9.82a3.562 3.562 0 0 0 3.572-3.571V32.38a3.562 3.562 0 0 0-3.571-3.571zM30.96 28.66c.07.441.12.884.145 1.33h.893v28.124H30.13a10.712 10.712 0 0 0-9.738-6.25H10.57A3.562 3.562 0 0 1 7 48.293V32.38a3.562 3.562 0 0 1 3.57-3.571z"/><path d="M56.998 45.463a3.333 3.333 0 0 1-3.344 3.278h-.224v.447h.224a3.79 3.79 0 0 0 3.344-2zm-14.285 3.278 10.714.447v-.447z" opacity=".25"/><path d="M56.998 47.187a3.333 3.333 0 0 1-3.344 3.278h-.224v.446h.224a3.793 3.793 0 0 0 3.332-1.975c.005-.086.012-.171.012-.257zm-11.606 3.278 8.035.446v-.446z" opacity=".25"/><path fill="#f9f9f9" d="M53.426 13.92a3.562 3.562 0 0 1 3.571 3.572v26.337a3.562 3.562 0 0 1-3.571 3.571H42.712C36.796 47.4 32 52.198 32 58.114V25.527c0-5.917 4.797-11.607 10.713-11.607z"/><path fill="#ececec" d="M10.57 13.92A3.562 3.562 0 0 0 7 17.492v26.337a3.562 3.562 0 0 0 3.57 3.571h10.715c5.916 0 10.713 4.798 10.713 10.714V25.527c0-5.917-4.797-11.607-10.713-11.607z"/><path fill="#0cc" d="M48.962 18.83v2.679h-5.357c-1.953.082-3.779.579-5.357 1.465v-2.478c1.577-1.043 3.404-1.665 5.357-1.665z"/><path fill="#dedcd9" d="M51.64 24.187v1.785h-8.035c-1.953.082-3.778.58-5.356 1.465v-1.585c1.576-1.043 3.403-1.665 5.356-1.665zM51.64 27.759v1.785h-8.035c-1.953.082-3.778.58-5.356 1.465v-1.585c1.576-1.043 3.403-1.665 5.356-1.665zM51.64 31.33v1.785h-8.035c-1.953.082-3.778.58-5.356 1.465v-1.585c1.576-1.043 3.403-1.665 5.356-1.665zM19.5 38.473h-7.143v1.785h7.142zM12.356 24.187v1.785h8.928c1.596.067 3.104.415 4.464 1.024v-1.667c-1.36-.722-2.868-1.142-4.464-1.142zM12.356 27.759v1.785h8.928c1.596.067 3.104.415 4.464 1.024v-1.667c-1.36-.722-2.868-1.142-4.464-1.142zM12.356 31.33v1.785h8.928c1.596.067 3.104.415 4.464 1.024v-1.667c-1.36-.722-2.868-1.142-4.464-1.142zM12.356 20.616v1.786h8.928c1.596.066 3.104.415 4.464 1.023v-1.667c-1.36-.722-2.868-1.142-4.464-1.142zM12.356 34.9v1.786h8.928c1.596.066 3.104.415 4.464 1.024v-1.667c-1.36-.722-2.868-1.143-4.464-1.143zM48.068 34.9v1.786h-4.464c-1.953.082-3.778.579-5.356 1.465v-1.585c1.576-1.043 3.403-1.665 5.356-1.665z"/><path fill="url(#a)" d="M21.969 11.134s-2.792 6.934-2.784 10.581c.005 2.714.373 5.777 2.107 7.866 1.332 1.604 5.642 2.702 5.642 2.702l1.31-.35s3.183-3.108 3.535-5.162c.458-2.676-.755-5.512-2.107-7.866-1.817-3.163-7.703-7.772-7.703-7.772z" transform="translate(-10.104 -10.103) scale(1.3157)"/><path fill="#1ca8a8" d="M27.184 39.284c-4.809-17.946-4.682-19.95-7.034-29.826 2.916 9.688 3.95 11.418 8.759 29.365z"/><path fill="#1ca8a8" d="M22.217 17.967c1.615-2.795 2.194-3.354 2.766-4.284-.518.96-.73 1.732-2.345 4.527zM23.337 22.305c2.24-3.881 3.045-4.659 3.838-5.951-.716 1.336-1.013 2.406-3.255 6.288zM24.57 26.96c2.372-4.106 3.22-4.93 4.061-6.295-.76 1.413-1.074 2.544-3.444 6.65z"/><path fill="#1ca8a8" d="M22.55 17.878c-2.797-1.613-3.576-1.808-4.537-2.328.928.574 1.498 1.135 4.293 2.748zM23.75 22.196c-3.881-2.242-4.966-2.514-6.3-3.235 1.29.797 2.08 1.577 5.964 3.818zM25.01 26.842c-4.107-2.372-5.254-2.66-6.665-3.421 1.363.844 2.202 1.667 6.309 4.038z"/></svg>