<svg width="64" height="64" version="1.1" viewBox="0 0 16.933 16.933" xmlns="http://www.w3.org/2000/svg">
 <g transform="translate(0 -280.07)">
  <rect x="1.588" y="281.65" width="13.758" height="13.758" rx="2.1171" ry="2.1171" fill="#ececec" paint-order="stroke markers fill"/>
  <path d="M5.82 284.787h4.435v.878h-3.39v2.274h3.059v.879h-3.06v3.684H5.822z" fill="#333" font-family="sans-serif" font-size="10.583" font-weight="400" letter-spacing="0" stroke-width=".265" word-spacing="0" aria-label="F"/>
  <path d="M11.377 289.77q-.408 0-.645.32-.237.317-.237.871t.234.874q.237.317.648.317.405 0 .642-.32t.237-.87q0-.549-.237-.869-.237-.322-.642-.322zm0-.43q.662 0 1.04.43.377.43.377 1.191 0 .758-.378 1.191-.377.43-1.039.43-.664 0-1.042-.43-.375-.433-.375-1.19 0-.761.375-1.191.378-.43 1.042-.43z" fill="#333" font-family="sans-serif" font-size="5.644" font-weight="400" letter-spacing="0" stroke-width=".265" word-spacing="0" aria-label="o"/>
 </g>
</svg>
