<svg width="64" height="64" version="1.1" viewBox="0 0 64 64" xmlns="http://www.w3.org/2000/svg">
 <rect x="6" y="6" width="52" height="52" rx="8" ry="8" fill="#3c3e40" fill-rule="evenodd" stroke-linecap="round" stroke-linejoin="round" stroke-width=".99227"/>
 <path d="m22.873 20.824a1.3707 1.6191 0 0 0-1.371 1.6229 1.3707 1.6191 0 0 0 1.371 1.6171 1.3707 1.6191 0 0 0 1.371-1.6171 1.3707 1.6191 0 0 0-1.371-1.6229zm2.5897 1.0839a0.8995 1.0794 0 0 0-0.86127 1.078 0.8995 1.0794 0 0 0 0.90228 1.078 0.8995 1.0794 0 0 0 0.90228-1.078 0.8995 1.0794 0 0 0-0.90228-1.078 0.8995 1.0794 0 0 0-0.04101 0zm1.9979 1.2362a0.7196 0.81894 0 0 0-0.69722 0.82026 0.7196 0.81894 0 0 0 0.72065 0.82025 0.7196 0.81894 0 0 0 0.72065-0.82025 0.7196 0.81894 0 0 0-0.72065-0.82026 0.7196 0.81894 0 0 0-0.0234 0zm1.5585 1.2773a0.58441 0.64278 0 0 0-0.54488 0.64448 0.58441 0.64278 0 0 0 0.58004 0.64449 0.58441 0.64278 0 0 0 0.5859-0.64449 0.58441 0.64278 0 0 0-0.5859-0.64448 0.58441 0.64278 0 0 0-0.03516 0zm-6.3042 0.58004c-0.87672 0.0132-1.4566 0.24967-2.0155 0.86712-1.0218 1.1287-0.81348 2.7334 0.5273 4.1071 2.907 2.9785 3.2558 4.9721 0.47458 7.2241-1.145 0.92706-1.9738 3.1064-1.6171 4.2477 0.44923 1.4375 2.1633 1.9888 3.656 1.1776 1.4002-0.76081 2.9843-3.3646 4.0661-6.4741 0.09018-0.25915 0.18092-0.51942 0.26365-0.7851 0.24829-0.79701 0.45909-1.619 0.62691-2.4432 0.50701-2.4895 0.38366-4.4249-0.3574-5.5894-0.46249-0.72686-2.1766-1.6647-3.6618-2.0799-0.34279-0.09584-0.67835-0.16766-0.97845-0.19922-0.36942-0.03882-0.69207-0.05712-0.9843-0.05274zm7.1479 0.86126a0.47948 0.5397 0 0 0-0.46286 0.53903 0.47948 0.5397 0 0 0 0.48043 0.53902 0.47948 0.5397 0 0 0 0.48044-0.53902 0.47948 0.5397 0 0 0-0.48044-0.53903 0.47948 0.5397 0 0 0-0.0177 0zm2.1385 14.735v2.4022h11.999v-2.4022z" fill="#f6e390" stroke-width="2.9998"/>
</svg>
