<svg width="64" height="64" version="1.1" xmlns="http://www.w3.org/2000/svg">
 <rect x="6" y="6" width="52" height="52" rx="10" ry="10" fill="#e4e4e4" style="paint-order:stroke fill markers"/>
 <path d="m30.471 16.466c-2.0529 4e-3 -4.3803 0.51244-7.0244 1.6539-3.1337 1.3526-5.1897 3.3973-6.3192 5.7552-1.1297 2.3579-1.3475 4.9789-1.0555 7.5276 0.58401 5.0978 3.1452 9.9751 5.2635 12.651a1.0999 1.0999 0 0 0 1.545 0.17951 1.0999 1.0999 0 0 0 0.17951-1.545c-1.8297-2.3114-4.2859-7.0249-4.8027-11.536-0.25841-2.2556-0.04836-4.4449 0.85341-6.3273 0.90178-1.8823 2.4805-3.5091 5.2068-4.686 3.7108-1.6018 6.4307-1.7536 8.5743-1.1624 2.1436 0.59119 3.8005 1.9621 5.2635 3.7138 1.4632 1.7518 2.6921 3.8619 3.9473 5.7738 1.2553 1.9119 2.5208 3.6757 4.3515 4.5908a1.0999 1.0999 0 0 0 1.4763-0.49244 1.0999 1.0999 0 0 0-0.49244-1.4753c-1.1289-0.56432-2.2906-1.9935-3.4961-3.8296s-2.4704-4.0289-4.0984-5.9777c-1.628-1.9489-3.66-3.6775-6.3675-4.4241-0.67682-0.18665-1.3899-0.30954-2.1424-0.36197-0.28218-0.01969-0.56995-0.02903-0.86326-0.02843zm-0.08828 4.2299c-1.6777-0.03109-3.5858 0.4631-5.7447 1.5754-3.7146 1.9141-5.1771 5.9837-4.3103 10.491 0.86708 4.5076 3.8775 9.6125 8.9932 14.47a1.0999 1.0999 0 0 0 1.5548-0.04023 1.0999 1.0999 0 0 0-0.04022-1.5558c-4.8666-4.6207-7.6035-9.4191-8.3478-13.29-0.74458-3.8709 0.31558-6.6547 3.1577-8.1193 2.9501-1.5202 4.8795-1.5959 6.3946-1.0114 1.5153 0.58456 2.7762 1.9706 3.9974 3.8218 2.4424 3.7023 4.5067 9.1489 9.3101 11.412a1.0999 1.0999 0 0 0 1.4645-0.5258 1.0999 1.0999 0 0 0-0.52676-1.4636c-3.7374-1.7611-5.7713-6.6321-8.4116-10.635-1.3201-2.0011-2.8454-3.815-5.042-4.6624-0.54915-0.21186-1.13-0.35446-1.7441-0.42278-0.23031-0.02561-0.46563-0.04068-0.7053-0.0451zm-0.79947 4.3387c-0.42726 0.0081-0.87396 0.06647-1.3351 0.18147-2.1873 0.54549-3.5745 2.0812-3.8493 3.9052-0.27475 1.824 0.30983 3.8103 1.288 5.8828 1.9563 4.1449 5.6422 8.6808 9.061 11.956a1.0999 1.0999 0 0 0 1.5558-0.03335 1.0999 1.0999 0 0 0-0.03335-1.5548c-3.2502-3.1137-6.834-7.5779-8.5939-11.307-0.87993-1.8643-1.2646-3.5342-1.1016-4.6163s0.62047-1.703 2.2052-2.0982c1.3549-0.33789 1.8691-0.13307 2.5083 0.46202 0.63926 0.59511 1.2978 1.7888 2.1002 3.3244 1.6047 3.0712 3.9333 7.4171 9.5888 10.713a1.0999 1.0999 0 0 0 1.5038-0.3963 1.0999 1.0999 0 0 0-0.3963-1.5048c-5.1666-3.0109-7.1479-6.7713-8.7461-9.8299-0.79917-1.5295-1.4651-2.9066-2.5504-3.9169-0.81399-0.75774-1.923-1.1916-3.2048-1.1673zm0.11967 4.5732a1.0999 1.0999 0 0 0-0.40611 0.07259 1.0999 1.0999 0 0 0-0.63564 1.4194c3.5565 9.3191 11.177 13.901 11.177 13.901a1.0999 1.0999 0 0 0 1.5097-0.37276 1.0999 1.0999 0 0 0-0.37374-1.5106s-6.9882-4.2342-10.258-12.801a1.0999 1.0999 0 0 0-1.0133-0.70826z" fill="#813d9c"/>
 <path d="m58 15c-20.27 5.5741-35.886 31.122-35.886 31.122l21.538 11.413s7.3848-9.9167 14.348-13.512z" fill="#ffffff" opacity=".75"/>
 <g transform="translate(3.3179 2.0666)">
  <path d="m16.682 43.933 3.5665-6.8617c1.4819-2.851 4.8797-3.9043 7.6184-2.3617 2.2264 1.2541 3.4732 4.1742 5.6994 5.4281 2.1678 1.2211 5.3148 0.77628 7.483 1.9974 2.7386 1.5427 3.7504 5.0799 2.2686 7.931l-3.5665 6.8617c-1.4819 2.851-4.8797 3.9043-7.6184 2.3617-2.189-1.233-3.5106-4.1952-5.6994-5.4281-2.2052-1.2422-5.2778-0.75522-7.483-1.9974-2.7386-1.5427-3.7504-5.0799-2.2686-7.931z" fill="#f5c211" style="paint-order:stroke fill markers"/>
  <ellipse cx="23.533" cy="41.729" rx="1.315" ry=".811" fill="#e5a50a"/>
  <ellipse cx="30.42" cy="40.93" rx="1.617" ry=".893" fill="#e5a50a"/>
  <ellipse cx="26.844" cy="47.62" rx="1.818" ry="1.072" fill="#e5a50a"/>
  <ellipse cx="34.872" cy="45.767" rx="1.817" ry="1.018" fill="#e5a50a"/>
  <ellipse cx="19.761" cy="46.484" rx="1.349" ry=".868" fill="#e5a50a"/>
  <ellipse cx="25.374" cy="38.36" rx="1.419" ry=".885" fill="#e5a50a"/>
  <ellipse cx="33.799" cy="53.213" rx="1.915" ry="1.323" fill="#e5a50a"/>
  <ellipse cx="31.407" cy="48.834" rx="1.056" ry=".732" fill="#e5a50a"/>
  <ellipse cx="40.189" cy="48.912" rx="1.379" ry=".836" fill="#e5a50a"/>
  <ellipse cx="23.906" cy="51.604" rx="1.261" ry=".678" fill="#e5a50a"/>
  <ellipse cx="40.094" cy="42.846" rx=".991" ry=".543" fill="#e5a50a"/>
  <ellipse cx="33.322" cy="58.474" rx="1.37" ry=".676" fill="#e5a50a"/>
 </g>
</svg>
