<svg width="64" height="64" version="1" xmlns="http://www.w3.org/2000/svg">
 <path d="m9.9 6c-2.1606 0-3.9 1.7394-3.9 3.9v44.2c0 2.1606 1.7394 3.9 3.9 3.9h32.5c8.6424 0 15.6-6.9576 15.6-15.6v-32.5c0-2.1606-1.7394-3.9-3.9-3.9h-32.5z" fill="#f2f2f2" stroke-width=".92857"/>
 <path d="m14.75 12c-1.5235 0-2.75 1.2743-2.75 2.8571v30c0 4.2857 5.5 7.1429 8.25 7.1429h2.75v-37.143c0-1.5829-1.2265-2.8571-2.75-2.8571z" fill="#f04242"/>
 <path d="m26 20.25c0 1.5235 1.2676 2.75 2.8421 2.75h17.053c4.2632 0 7.1053-5.5 7.1053-8.25v-2.75h-24.158c-1.5745 0-2.8421 1.2265-2.8421 2.75z" fill="#f04242"/>
 <path d="m27.321 26a1.2913 1.1415 0 0 0-1.3213 1.1426v14.718a1.2913 1.1415 0 0 0 1.9361 0.98692l14.419-7.3588a1.2913 1.1415 0 0 0 0-1.9762l-14.419-7.3588a1.2913 1.1415 0 0 0-0.61487-0.15331z" fill="#14a4df"/>
</svg>
