<svg width="64" height="64" version="1.1" viewBox="0 0 16.933 16.933" xmlns="http://www.w3.org/2000/svg">
 <g transform="matrix(1.04 0 0 1.04 -.339 -291.61)" stroke-width=".962" paint-order="markers stroke fill">
  <rect x="1.852" y="281.92" width="13.229" height="13.229" rx="2.0349" ry="2.0349" fill="#f68855"/>
 </g>
 <g transform="translate(-.18086 -.0051679)" fill="#fff" aria-label="S">
  <path d="m10.898 4.8621v1.018q-0.59427-0.28421-1.1214-0.42374-0.52709-0.13952-1.018-0.13952-0.85264 0-1.3177 0.33072-0.45991 0.33072-0.45991 0.94049 0 0.51159 0.30488 0.77513 0.31005 0.25838 1.1679 0.41857l0.63044 0.12919q1.1679 0.2222 1.7208 0.78547 0.55809 0.55809 0.55809 1.4986 0 1.1214-0.75446 1.7001-0.74929 0.57876-2.2014 0.57876-0.54776 0-1.1679-0.12402-0.61494-0.12402-1.2764-0.3669v-1.0748q0.63561 0.35656 1.2454 0.53742t1.1989 0.18086q0.89398 0 1.3797-0.35139 0.48575-0.35139 0.48575-1.0025 0-0.56843-0.35139-0.88882-0.34623-0.32039-1.142-0.48058l-0.63561-0.12402q-1.1679-0.23254-1.6898-0.72862t-0.52192-1.3797q0-1.0232 0.71829-1.6123 0.72346-0.5891 1.9895-0.5891 0.54259 0 1.1059 0.098183 0.56326 0.098183 1.1524 0.29455z" fill="#fff" stroke-width=".26458"/>
 </g>
</svg>
