<svg xmlns="http://www.w3.org/2000/svg" width="64" height="64" viewBox="0 0 16.933 16.933"><rect width="13.229" height="13.229" x="1.852" y="281.92" fill="#f68855" stroke-width=".962" paint-order="markers stroke fill" rx="2.035" ry="2.035" transform="matrix(1.04 0 0 1.04 -.339 -291.61)"/><path fill="#fff" d="M10.717 4.857v1.018q-.594-.284-1.121-.424t-1.018-.14q-.853 0-1.318.331-.46.331-.46.94 0 .512.305.776.31.258 1.168.419l.63.129q1.168.222 1.721.785.558.558.558 1.499 0 1.121-.754 1.7-.75.579-2.202.579-.547 0-1.168-.124-.614-.124-1.276-.367v-1.075q.636.357 1.245.537t1.2.181q.893 0 1.38-.351.485-.352.485-1.003 0-.568-.352-.888-.346-.32-1.142-.481l-.635-.124q-1.168-.233-1.69-.729t-.522-1.38q0-1.023.718-1.612.724-.589 1.99-.589.542 0 1.106.098.563.099 1.152.295z" aria-label="S"/></svg>