<svg width="64" height="64" version="1.1" xmlns="http://www.w3.org/2000/svg">
 <g transform="matrix(1 0 0 1 .00012208 .00033208)">
  <path d="m7.0064 5c-1.1123 0-2.0065 0.89699-2.0065 2.0118v24.988c0 2.254 0.68424 4.342 1.8562 6.0697 5.4902 8.1639 15.602 20.332 25.144 20.93h8.7381l1.2524-0.27158h15.543c0.27609 0 0.53705-0.08482 0.7752-0.2294 0.0015-0.0013 0.0038-0.0013 0.0052-0.0026 0.41838-0.36817 0.68562-0.90352 0.68562-1.5082v-24.988c0-2.254-0.68425-4.342-1.8562-6.0697-2.9034-4.3174-7.1051-9.742-11.826-13.996-2.721-2.3876-5.5655-4.3976-8.2978-5.6268-1.6731-0.72695-3.3544-1.2033-5.0203-1.3078h-16.2z" fill="#125072"/>
  <path d="m15.011 13c-1.1147 0-2.0109 0.89894-2.0109 2.0162v27.614c1.2477 8.1514 11.981 15.742 18.941 16.37h7.4227l0.42544-0.13478h17.2c1.1147 0 1.9927-1.1105 2.0109-2.2276v-24.696c0-2.2589-0.68574-4.3514-1.8603-6.083-4.107-6.4723-9.6818-12.532-17.081-12.858h-16.235z" fill="#f9f9f9"/>
  <path d="m23.017 21c-1.1182 0-2.0172 0.90173-2.0172 2.0225v9.9775h14v-6.5714l18 11.571-18 11.5v-6.5h-14v5.1429c0 6.0149 4.8423 10.857 10.857 10.857h25.126c1.1182 0 2.0172-0.90173 2.0172-2.0225v-25.12c0-6.0149-4.8423-10.857-10.857-10.857h-16.286z" fill="#00cae5"/>
 </g>
</svg>
