<svg xmlns="http://www.w3.org/2000/svg" width="64" height="64"><path fill="#125072" d="M7.007 5A2.004 2.004 0 0 0 5 7.012V32c0 2.254.684 4.342 1.856 6.07C12.346 46.234 22.458 58.402 32 59h8.738l1.253-.272h15.543c.276 0 .537-.085.775-.23.001 0 .004 0 .005-.002A2 2 0 0 0 59 56.988V32a10.77 10.77 0 0 0-1.856-6.07c-2.904-4.317-7.106-9.742-11.826-13.996-2.721-2.387-5.566-4.397-8.298-5.626C35.347 5.58 33.665 5.104 32 5H15.8z"/><path fill="#f9f9f9" d="M15.011 13c-1.115 0-2.01.9-2.01 2.017V42.63C14.247 50.78 24.98 58.373 31.94 59h7.423l.425-.135h17.2c1.115 0 1.993-1.11 2.011-2.228V31.942c0-2.259-.685-4.351-1.86-6.083-4.107-6.472-9.682-12.532-17.081-12.858H23.824z"/><path fill="#00cae5" d="M23.017 21A2.015 2.015 0 0 0 21 23.023V33h14V26.43l18 11.57-18 11.5V43H21v5.144A10.833 10.833 0 0 0 31.857 59h25.126A2.015 2.015 0 0 0 59 56.977v-25.12A10.833 10.833 0 0 0 48.143 21H31.857z"/></svg>