<svg width="64" height="64" version="1.1" viewBox="0 0 64 64" xmlns="http://www.w3.org/2000/svg">
 <g>
  <path d="m32 5c14.912 0 27 12.088 27 27s-12.088 27-27 27-27-12.088-27-27 12.088-27 27-27z" fill="#e9e9e9"/>
  <path d="m27.451 48h-6.1714v-32h21.44v5.8514h-15.269v6.72h9.6914v5.8514h-9.6914z" fill="#3b6dbb" style="isolation:isolate"/>
  <circle cx="48" cy="48" r="14" fill="#666" fill-rule="evenodd" style="paint-order:stroke fill markers"/>
 </g>
 <path d="m45.175 39.438c-0.09557 0.01841-0.13854 0.10785-0.13854 0.20517v2.9847a6.1377 6.1377 0 0 0-0.81894 0.5445l-2.7514-1.1662c-0.08944-0.0377-0.18939-0.03331-0.24375 0.04735l-1.274 1.8895c-0.05436 0.08066-0.02105 0.17536 0.04735 0.24375l2.1078 2.1096a6.1377 6.1377 0 0 0-0.18939 0.96449l-2.7725 1.1197c-0.09031 0.03682-0.15695 0.1096-0.13854 0.20517l0.4349 2.2394c0.01841 0.09557 0.10784 0.13854 0.20517 0.13854h2.9847a6.1377 6.1377 0 0 0 0.5445 0.81894l-1.1662 2.7514c-0.0377 0.08943-0.03332 0.18939 0.04735 0.24375l1.8895 1.274c0.08066 0.05436 0.17536 0.02104 0.24375-0.04735l2.1096-2.1078a6.1377 6.1377 0 0 0 0.96449 0.18939l1.1197 2.7725c0.03684 0.09032 0.1096 0.15695 0.20517 0.13854l2.2394-0.4349c0.09557-0.01841 0.13854-0.10784 0.13854-0.20517v-2.9847a6.1377 6.1377 0 0 0 0.81894-0.5445l2.7514 1.1662c0.08943 0.0377 0.18939 0.03332 0.24375-0.04735l1.274-1.8895c0.05436-0.08067 0.02104-0.17536-0.04735-0.24375l-2.1078-2.1096a6.1377 6.1377 0 0 0 0.18939-0.96449l2.7725-1.1197c0.09031-0.03682 0.15695-0.1096 0.13854-0.20517l-0.4349-2.2394c-0.01841-0.09557-0.10784-0.13854-0.20517-0.13854h-2.9847a6.1377 6.1377 0 0 0-0.5445-0.81894l1.1662-2.7514c0.0377-0.08944 0.03332-0.18939-0.04735-0.24375l-1.8895-1.274c-0.08066-0.05436-0.17536-0.02104-0.24375 0.04735l-2.1096 2.1078a6.1377 6.1377 0 0 0-0.96449-0.18939l-1.1197-2.7725c-0.03682-0.09031-0.1096-0.15695-0.20517-0.13853zm2.3244 5.979a2.6304 2.6304 0 0 1 3.0837 2.0798 2.6304 2.6304 0 0 1-2.0798 3.0837 2.6304 2.6304 0 0 1-3.0837-2.0798 2.6304 2.6304 0 0 1 2.0798-3.0837z" fill="#fff"/>
</svg>
