<svg xmlns="http://www.w3.org/2000/svg" width="64" height="64" viewBox="0 0 16.933 16.933"><circle cx="8.466" cy="8.46" r="7.144" fill="#f55" style="paint-order:stroke markers fill"/><path fill="#fff" d="M9.912 4.234a3.3 3.3 0 0 0-.678.05 1.7 1.7 0 0 0-.77.327c-.24.196-.42.53-.42.907v1.266H6.779a.423.423 0 1 0 0 .845h1.267v.88a2.12 2.12 0 0 0-1.695 2.074A2.117 2.117 0 0 0 8.466 12.7a2.117 2.117 0 0 0 2.117-2.117 2.12 2.12 0 0 0-1.693-2.07V7.63h1.267a.423.423 0 1 0 0-.846H8.89V5.518c0-.153.031-.188.107-.25a.95.95 0 0 1 .392-.154c.339-.063.715-.021.715-.021a.423.423 0 1 0 .106-.839s-.118-.015-.298-.02M8.377 9.316h.013a.4.4 0 0 0 .146 0 1.27 1.27 0 0 1 1.2 1.267 1.27 1.27 0 0 1-1.27 1.27 1.27 1.27 0 0 1-1.27-1.27 1.27 1.27 0 0 1 1.181-1.267"/></svg>