<svg width="64" height="64" version="1.1" viewBox="0 0 16.933 16.933" xmlns="http://www.w3.org/2000/svg">
 <circle cx="8.4665" cy="8.46" r="7.1436" fill="#f55" style="paint-order:stroke markers fill"/>
 <path d="m9.9118 4.2344c-0.18065-0.00448-0.42492 0.00241-0.67802 0.049603-0.2531 0.047203-0.52816 0.13153-0.76898 0.32743-0.24081 0.19592-0.42004 0.52913-0.42004 0.90624v1.2667h-1.2667a0.42255 0.42255 0 1 0 0 0.84505h1.2667v0.87977a2.1168 2.1168 0 0 0-1.6951 2.0738 2.1168 2.1168 0 0 0 2.1168 2.1168 2.1168 2.1168 0 0 0 2.1168-2.1168 2.1168 2.1168 0 0 0-1.6934-2.0704v-0.88308h1.2667a0.42255 0.42255 0 1 0 0-0.84505h-1.2667v-1.2667c0-0.15252 0.03158-0.18795 0.10749-0.24971 0.07592-0.061764 0.22272-0.12225 0.39193-0.1538 0.33842-0.063108 0.71441-0.021441 0.71441-0.021441a0.42255 0.42255 0 1 0 0.10583-0.83843s-0.11703-0.015361-0.29768-0.019841zm-1.5346 5.0819a1.2701 1.2701 0 0 1 0.01159 0 0.42255 0.42255 0 0 0 0.0017 0 0.42255 0.42255 0 0 0 0.14552 0 1.2701 1.2701 0 0 1 1.2006 1.2667 1.2701 1.2701 0 0 1-1.27 1.27 1.2701 1.2701 0 0 1-1.2701-1.27 1.2701 1.2701 0 0 1 1.1807-1.2667z" fill="#fff" stroke-width=".26458"/>
</svg>
