<svg width="64" height="64" version="1.1" xmlns="http://www.w3.org/2000/svg" xmlns:xlink="http://www.w3.org/1999/xlink">
 <g transform="matrix(1.35 0 0 1.35 -.42551 -22)" stroke-width=".74074">
  <path d="m24 20c-11.08 0-20 8.9194-20 19.999 0 11.08 8.9198 20.001 20 20.001 11.08 0 20-8.9213 20-20.001 0-11.08-8.9198-19.999-20-19.999z" fill="#3aa5ff" stroke-opacity=".55027" stroke-width="2.0741"/>
  <g shape-rendering="auto">
   <path d="m44.053 34.996a1.0001 1.0001 0 0 0-0.1289 8e-3s-1.4368 0.12964-3.1348 0.52148-3.6878 0.97295-4.9824 2.2676c-0.34661 0.3466-0.67897 0.63197-1.0117 0.91992-1.2171-0.86641-2.404-1.4361-3.5664-1.6914a1.0001 1.0001 0 0 0-0.21485-0.0234h-0.33008l-0.875 2h1.043c0.67604 0.15566 1.4367 0.4826 2.2617 1.002-0.82628 0.51981-1.5889 0.84471-2.2656 1h-1.916l-0.875 2h2.957a1.0001 1.0001 0 0 0 0.21485-0.0234c1.1628-0.25539 2.3508-0.8225 3.5684-1.6894 0.33228 0.28766 0.66365 0.57185 1.0098 0.91797 1.2946 1.2946 3.2844 1.8757 4.9824 2.2676 1.698 0.39185 3.1348 0.52148 3.1348 0.52148a1.0001 1.0001 0 0 0 0.17969-1.9922s-1.3132-0.12036-2.8652-0.47851c-1.552-0.35816-3.3122-1.027-4.0176-1.7324-0.27969-0.27969-0.55579-0.54095-0.83203-0.79102 0.27624-0.25007 0.55234-0.51328 0.83203-0.79297 0.70537-0.70537 2.4656-1.3762 4.0176-1.7344 1.552-0.35815 2.8652-0.47852 2.8652-0.47852a1.0001 1.0001 0 0 0-0.0508-1.998z" color="#000000" color-rendering="auto" fill="#b5ddff" image-rendering="auto" solid-color="#000000" style="isolation:auto;mix-blend-mode:normal;text-decoration-color:#000000;text-decoration-line:none;text-decoration-style:solid;text-indent:0;text-transform:none;white-space:normal"/>
   <path d="m3.9902 34.998a1.0001 1.0001 0 0 0-0.082 1.9961s1.3132 0.12037 2.8652 0.47852c1.552 0.35816 3.3142 1.029 4.0195 1.7344 0.27969 0.27969 0.55774 0.5429 0.83398 0.79297-0.27624 0.25007-0.55429 0.51133-0.83398 0.79102-0.70537 0.70538-2.4675 1.3743-4.0195 1.7324-1.552 0.35815-2.8652 0.47851-2.8652 0.47851a1.0002 1.0002 0 0 0 0.18164 1.9922s1.4368-0.12963 3.1348-0.52148c1.698-0.39184 3.6878-0.97296 4.9824-2.2676 0.34622-0.34622 0.67946-0.63024 1.0117-0.91797 1.2176 0.86695 2.4036 1.4341 3.5664 1.6894a1.0001 1.0001 0 0 0 0.21484 0.0234h0.31445l0.875-2h-1.0254c-0.67674-0.15529-1.4359-0.4802-2.2617-1 0.82451-0.51933 1.5818-0.84629 2.2578-1.002h1.9043l0.875-2h-2.9394a1.0001 1.0001 0 0 0-0.21484 0.0234c-1.1628 0.2554-2.3488 0.82446-3.5664 1.6914-0.33264-0.28795-0.66511-0.57332-1.0117-0.91992-1.2946-1.2946-3.2844-1.8757-4.9824-2.2676-1.698-0.39184-3.1348-0.52148-3.1348-0.52148a1.0001 1.0001 0 0 0-0.0996-6e-3z" color="#000000" color-rendering="auto" fill="#b5ddff" image-rendering="auto" solid-color="#000000" style="isolation:auto;mix-blend-mode:normal;text-decoration-color:#000000;text-decoration-line:none;text-decoration-style:solid;text-indent:0;text-transform:none;white-space:normal"/>
   <path d="m16.014 27.986a1.0001 1.0001 0 0 0-0.9082 1.4609l3.2754 6.5508h1.5586a1.0001 1.0001 0 0 1 0.40039 0.08594l0.15039-0.3418-3.5957-7.1895a1.0001 1.0001 0 0 0-0.88086-0.56641zm15.988 0a1.0001 1.0001 0 0 0-0.91992 0.61133l-7 16a1.001 1.001 0 0 0 1.834 0.80274l7-16a1.0001 1.0001 0 0 0-0.91406-1.4141zm-9 6a1.0001 1.0001 0 0 0-0.91992 0.61133l-7 16a1.001 1.001 0 0 0 1.834 0.80274l7-16a1.0001 1.0001 0 0 0-0.91406-1.4141zm2.9668 0a1.0001 1.0001 0 0 0-0.89844 0.64062l-4 10a1.0005 1.0005 0 1 0 1.8574 0.74414l4-10a1.0001 1.0001 0 0 0-0.95898-1.3848zm1.6875 9.9277-0.32422 0.74414 3.793 6.8262a1.0001 1.0001 0 1 0 1.748-0.9707l-3.6191-6.5137h-1.1973a1.0001 1.0001 0 0 1-0.40039-0.08594z" color="#000000" color-rendering="auto" fill="#fff" image-rendering="auto" solid-color="#000000" style="isolation:auto;mix-blend-mode:normal;text-decoration-color:#000000;text-decoration-line:none;text-decoration-style:solid;text-indent:0;text-transform:none;white-space:normal"/>
  </g>
 </g>
</svg>
