<svg width="64" height="64" version="1" xmlns="http://www.w3.org/2000/svg">
 <rect x="6" y="6" width="52" height="52" rx="8" ry="8" fill="#762276" fill-rule="evenodd" stop-color="#000000" style="paint-order:stroke fill markers"/>
 <g transform="translate(.20405 -.21814)">
  <path d="m43.363 18.218-14.33 23.002-3.4473-5.3181h-4.9158l6.6293 10.316 3.5141-0.01819 17.433-27.982z" fill="#ff8118" stroke-width=".73684"/>
  <path d="m37.173 18.218-14.33 23.002-3.4473-5.3181h-4.9158l6.6293 10.316 3.5141-0.01819 17.433-27.982z" fill="#abe619" stroke-width=".73684"/>
  <path d="m48.006 37.081s-2.9318-0.7521-2.9318 1.8635c0 2.6155 2.9318 1.4374 2.9318 4.053 0 2.6155-2.9318 2.0631-2.9318 2.0631" fill="none" stroke="#ffffff" stroke-linecap="round" stroke-linejoin="round" stroke-width="2.2105"/>
  <path d="m41.375 40.692h-2.1791m2.9159-3.6842c-3.4938 0-2.9159 0.83188-2.9159 8.0529" fill="none" stroke="#ffffff" stroke-linecap="round" stroke-linejoin="round" stroke-width="2.2105"/>
 </g>
</svg>
