<svg xmlns="http://www.w3.org/2000/svg" width="64" height="64"><path fill="#1c95f5" d="M51.036 14.036C45.945 9.892 39.184 7.61 32 7.61s-13.945 2.282-19.036 6.426C7.828 18.216 5 23.786 5 29.721c0 5.665 2.578 10.996 7.278 15.104q-.129.285-.195.602l-1.544 7.596c-.184.903.063 1.441.302 1.734.276.338.686.525 1.154.525.353 0 .733-.104 1.128-.31l8.983-4.666A32.4 32.4 0 0 0 32 51.832c7.184 0 13.944-2.282 19.036-6.426C56.172 41.226 59 35.656 59 29.721s-2.828-11.506-7.964-15.685"/><path d="M27.961 26.439C22.198 27.711 18 31.619 18 36.001c2.452.564 3.24.735 6 1.178v5.437S24.1 44 25.5 44h13c1.4 0 1.5-1.384 1.5-1.384v-5.437c2.81-.516 3.375-.614 6-1.178 0-4.382-4.198-8.29-9.96-9.562A6 6 0 0 0 38 22.001c0-3.313-2.69-6-6-6s-6.002 2.687-6.002 6c0 1.757.758 3.337 1.962 4.438z" opacity=".25" style="isolation:isolate"/><path fill="#d6ebfe" d="M35.608 33.935c2.546-2.256 5.926-3.498 9.518-3.498s6.972 1.242 9.518 3.498c2.568 2.276 3.982 5.308 3.982 8.54 0 3.083-1.289 5.986-3.639 8.222q.065.156.097.328l.773 4.136c.091.491-.032.784-.152.944a.7.7 0 0 1-.576.285q-.267 0-.565-.168l-4.49-2.54c-1.556.544-3.227.83-4.948.83-3.592 0-6.972-1.242-9.518-3.498-2.568-2.276-3.982-5.308-3.982-8.54 0-3.23 1.414-6.263 3.982-8.539"/><g fill="#1c95f5" stroke-width=".889" transform="translate(-423.01 -599.47)scale(1.1768)"><circle cx="393.04" cy="545.5" r="2.084" opacity=".837"/><circle cx="397.79" cy="545.5" r="2.084" opacity=".837"/><circle cx="402.78" cy="545.5" r="2.084" opacity=".837"/></g></svg>