<svg width="64" height="64" version="1.1" xmlns="http://www.w3.org/2000/svg">
 <path d="m51.036 14.036c-5.0915-4.1436-11.852-6.4255-19.036-6.4255-7.1841 0-13.945 2.282-19.036 6.4255-5.1358 4.1796-7.9642 9.7499-7.9642 15.685 0 5.6647 2.5782 10.996 7.2782 15.104-0.08476 0.19061-0.15201 0.39115-0.19494 0.60198l-1.5443 7.5964c-0.18363 0.90279 0.06316 1.4411 0.30225 1.7339 0.27645 0.33821 0.6862 0.52459 1.1539 0.52459 0.35312 0 0.73264-0.10416 1.1281-0.30975l8.9825-4.6665c3.1099 1.001 6.4532 1.5259 9.8944 1.5259 7.1841 0 13.944-2.282 19.036-6.4255 5.1356-4.1795 7.9641-9.7498 7.9641-15.685 0-5.9352-2.8283-11.506-7.9639-15.685z" fill="#1c95f5" stroke-width=".9746"/>
 <path d="m27.961 26.439c-5.7628 1.2722-9.961 5.18-9.961 9.562 2.4518 0.5635 3.2392 0.735 6.0008 1.1778v5.4372s0.09975 1.3843 1.4998 1.3843h12.999c1.4 0 1.4998-1.3843 1.4998-1.3843v-5.4372c2.8105-0.51625 3.3758-0.61425 6.0008-1.1778 0-4.382-4.1982-8.2898-9.961-9.562 1.204-1.1008 1.9618-2.681 1.9618-4.438 0-3.3128-2.6898-6.0007-6.0008-6.0007s-6.0008 2.688-6.0008 6.0007c0 1.757 0.75775 3.3372 1.9618 4.438z" opacity=".25" style="isolation:isolate"/>
 <path d="m35.608 33.935c2.5458-2.2559 5.926-3.4982 9.518-3.4982 3.592 0 6.9723 1.2424 9.518 3.4982 2.5679 2.2755 3.9821 5.3081 3.9821 8.5393 0 3.084-1.2891 5.9866-3.6391 8.223 0.04254 0.10384 0.0761 0.21296 0.09747 0.32773l0.77215 4.1357c0.09177 0.49152-0.03147 0.7846-0.15117 0.94402-0.1383 0.18412-0.34311 0.28561-0.57695 0.28561-0.17657 0-0.36632-0.05669-0.56404-0.16865l-4.4912-2.5405c-1.5549 0.54496-3.2266 0.83071-4.9472 0.83071-3.592 0-6.9722-1.2424-9.518-3.4982-2.5678-2.2754-3.982-5.308-3.982-8.5393 0-3.2313 1.4141-6.2639 3.982-8.5394z" fill="#d6ebfe" stroke-width=".9746"/>
 <g transform="matrix(1.1768 0 0 1.1768 -423.01 -599.47)" fill="#1c95f5" stroke-width=".88889">
  <circle cx="393.04" cy="545.5" r="2.0844" opacity=".837"/>
  <circle cx="397.79" cy="545.5" r="2.0844" opacity=".837"/>
  <circle cx="402.78" cy="545.5" r="2.0844" opacity=".837"/>
 </g>
</svg>
