<svg xmlns="http://www.w3.org/2000/svg" width="64" height="64" viewBox="0 0 16.933 16.933"><g transform="translate(0 -280.067)"><circle cx="8.467" cy="288.533" r="6.879" fill="#f39c12" paint-order="stroke markers fill"/><circle r="5.821" cy="288.533" cx="8.467" opacity=".15" fill="#fff" paint-order="stroke markers fill"/><g opacity=".75"><path d="M7.389 293.294l1.053-.615v-.55l-.47-.502.47-.416v-.157l-.474-.49.474-.507-.478-.514.478-.459v-1.017c-.247.11-.652.257-1.043.251-.001 0-.008 1.656-.01 4.976z" opacity=".6" fill="#fff" fill-rule="evenodd" stroke-width="1.112"/></g><path d="M7.412 283.77a2.281 2.281 0 0 0-2.283 2.284 2.29 2.29 0 0 0 1.235 2.037v4.588l1.026.617c.008-3.302.016-4.938.015-4.952h.007a2.287 2.287 0 0 0 0-4.573zm-.007.677c.374 0 .676.302.676.677a.675.675 0 0 1-.676.677.675.675 0 0 1-.677-.677c0-.375.302-.677.677-.677z" opacity=".75" fill="#fff" fill-rule="evenodd"/><g stroke-width="1.112" fill="#fff" fill-rule="evenodd"><path d="M9.521 283.77a2.281 2.281 0 0 0-2.282 2.284 2.29 2.29 0 0 0 1.234 2.037v4.588l1.026.617c.009-3.302.016-4.938.015-4.952h.007a2.287 2.287 0 0 0 0-4.573zm-.007.677c.375 0 .676.302.676.677a.675.675 0 0 1-.676.677.675.675 0 0 1-.677-.677c0-.375.302-.677.677-.677z"/><path d="M9.498 293.294l1.053-.615v-.55l-.47-.502.47-.416v-.157l-.474-.49.474-.507-.477-.514.477-.459v-1.017c-.247.11-.651.257-1.043.251-.001 0-.007 1.656-.01 4.976z" opacity=".6"/></g></g></svg>