<svg width="64" height="64" version="1.1" viewBox="0 0 64 64" xmlns="http://www.w3.org/2000/svg">
 <g transform="matrix(1.1739 0 0 1.1739 3.8261 3.8261)" stroke-width=".85185">
  <path d="m24 1c12.703 0 23 10.297 23 23s-10.297 23-23 23-23-10.297-23-23 10.297-23 23-23z" fill="#644b7d" stroke-width=".85185"/>
 </g>
 <path d="m34.347 19.087c-8.2174 0-10.565 3.8633-10.565 9.3913s2.3478 9.3913 10.565 9.3913c2.3478 0 4.3423-0.58696 4.3423-0.58696l2.7012-8.8043c0.55174-1.7973 0.837-2.3478-1.1739-2.3478h-7.6304c-0.97552 0-1.7609 0.78535-1.7609 1.7609 0 0.97552 0.78535 1.7609 1.7609 1.7609h3.7882l-1.2631 4.6358s-0.22656 0.05987-0.76304 0.05987c-5.2826 0-7.0435-1.9006-7.0435-5.8696s1.7609-5.8696 7.0435-5.8696h12.913l-1.1739-3.5217h-11.739zm-17.609 7.0435v3.5217c0 8.4287 5.8696 15.261 17.609 15.261 7.0435 0 10.565-2.3478 12.913-5.8696h-4.813c-1.7609 1.1739-3.4043 2.3478-8.1 2.3478-8.2174 0-14.087-5.2556-14.087-11.739v-3.5217z" fill="#78c2e0"/>
</svg>
