<svg width="64" height="64" version="1.1" viewBox="0 0 16.933 16.933" xmlns="http://www.w3.org/2000/svg">
 <circle cx="8.4665" cy="8.46" r="7.1436" fill="#ff8e03" style="paint-order:stroke markers fill"/>
 <g transform="translate(-.22944 .23812)" fill="#f95050" stroke-width=".26458">
  <path d="m14.461 0.55561c1.2927 1.2594 1.2927 5.0376-1.2927 6.297l-2.5855-2.5188c2.5855 0 3.8782-2.5188 3.8782-3.7782z"/>
  <path d="m2.9306 0.55561c-1.2927 1.2594-1.2927 5.0376 1.2927 6.297l2.5855-2.5188c-2.5855 0-3.8782-2.5188-3.8782-3.7782z"/>
 </g>
 <circle cx="8.4665" cy="8.46" r="5.5561" fill="#ffd059" style="paint-order:stroke markers fill"/>
 <g transform="translate(21.023 1.639)" stroke-width=".26458">
  <path d="m-12.556 5.7691s-0.45777-0.69619-0.58239-1.0134c-0.12462-0.31718-0.25991-0.64005-0.19413-0.8686 0.06578-0.22855 0.1713-0.34771 0.38826-0.4343 0.21696-0.086589 0.55956-0.08659 0.77652 0s0.32248 0.20575 0.38826 0.4343c0.06578 0.22855-0.06951 0.55142-0.19413 0.8686-0.12462 0.31718-0.58239 1.0134-0.58239 1.0134z" opacity=".4"/>
  <path d="m-12.556 7.8858s-0.45777 0.69619-0.58239 1.0134c-0.12462 0.31718-0.25991 0.64005-0.19413 0.8686 0.06578 0.22855 0.1713 0.34771 0.38826 0.4343 0.21696 0.08659 0.55956 0.08659 0.77652 0s0.32248-0.20575 0.38826-0.4343c0.06578-0.22855-0.06951-0.55142-0.19413-0.8686-0.12462-0.31718-0.58239-1.0134-0.58239-1.0134z" opacity=".4"/>
  <path d="m-11.498 6.8275s0.69618-0.45777 1.0134-0.58239c0.31718-0.12462 0.64004-0.25991 0.8686-0.19413 0.22855 0.065785 0.34771 0.1713 0.4343 0.38826 0.08659 0.21696 0.08659 0.55956 0 0.77652-0.08659 0.21696-0.20575 0.32248-0.4343 0.38826-0.22855 0.065782-0.55142-0.069506-0.8686-0.19413-0.31718-0.12462-1.0134-0.58239-1.0134-0.58239z" opacity=".4"/>
  <path d="m-13.615 6.8275s-0.69618-0.45777-1.0134-0.58239c-0.31718-0.12462-0.64005-0.25991-0.8686-0.19413-0.22855 0.065785-0.34771 0.1713-0.4343 0.38826-0.08659 0.21696-0.08659 0.55956 0 0.77652 0.08659 0.21696 0.20575 0.32248 0.4343 0.38826 0.22855 0.065782 0.55142-0.069506 0.8686-0.19413 0.31718-0.12462 1.0134-0.58239 1.0134-0.58239z" opacity=".4"/>
  <path d="m-11.808 7.5758s0.81597 0.16859 1.1284 0.30475c0.3124 0.13616 0.63637 0.26879 0.75146 0.47692 0.11509 0.20813 0.12474 0.36699 0.03255 0.58164-0.09219 0.21464-0.33444 0.4569-0.54908 0.54908-0.21464 0.092186-0.37351 0.082541-0.58164-0.032553-0.20812-0.1151-0.34076-0.43906-0.47692-0.75146-0.13616-0.3124-0.30474-1.1284-0.30474-1.1284z" opacity=".4"/>
  <path d="m-13.305 6.0791s-0.16858-0.81597-0.30474-1.1284c-0.13616-0.3124-0.2688-0.63637-0.47692-0.75146-0.20813-0.11509-0.36699-0.12474-0.58164-0.032552-0.21464 0.092186-0.4569 0.33444-0.54908 0.54908-0.09219 0.21464-0.08254 0.37351 0.03255 0.58164 0.1151 0.20813 0.43906 0.34076 0.75146 0.47692 0.3124 0.13616 1.1284 0.30474 1.1284 0.30474z" opacity=".4"/>
  <path d="m-13.305 7.5758s-0.81597 0.16859-1.1284 0.30475c-0.3124 0.13616-0.63637 0.26879-0.75146 0.47692-0.11509 0.20813-0.12474 0.36699-0.03255 0.58164 0.09219 0.21464 0.33444 0.4569 0.54908 0.54908 0.21464 0.09219 0.37351 0.08254 0.58164-0.03255 0.20813-0.1151 0.34076-0.43906 0.47692-0.75147 0.13616-0.3124 0.30474-1.1284 0.30474-1.1284z" opacity=".4"/>
  <path d="m-11.808 6.0791s0.16858-0.81597 0.30474-1.1284c0.13616-0.3124 0.2688-0.63637 0.47692-0.75146 0.20813-0.11509 0.36699-0.12474 0.58164-0.032552 0.21464 0.092186 0.4569 0.33444 0.54908 0.54908 0.09219 0.21464 0.08254 0.37351-0.03255 0.58164-0.1151 0.20813-0.43906 0.34076-0.75146 0.47692-0.3124 0.13616-1.1284 0.30474-1.1284 0.30474z" opacity=".4"/>
 </g>
</svg>
