<svg width="64" height="64" version="1" xmlns="http://www.w3.org/2000/svg">
 <g transform="matrix(.99999 0 0 .99999 .000456 .00055793)">
  <path d="m32.149 4v0.00273a6.3412 6.367 0 0 0-3.3203 0.84766l-18.658 10.817a6.3412 6.367 0 0 0-3.1711 5.5152v21.634a6.3412 6.367 0 0 0 3.1711 5.5125l18.658 10.817a6.3412 6.367 0 0 0 6.3422 0l18.658-10.817a6.3412 6.367 0 0 0 3.1711-5.5125v-21.634a6.3412 6.367 0 0 0-3.1711-5.5152l-18.658-10.817a6.3412 6.367 0 0 0-3.0219-0.85039z" fill="#365076"/>
  <path d="m22.525 20.004c-0.399 0.0087-0.7858 0.03435-1.0176 0.06836-1.1114 0.16334-2.0489 0.50063-2.8379 1.0215-1.4722 0.97188-2.3302 2.4889-2.6133 4.6191-0.07478 0.5628-0.07496 1.7119 0 2.25 0.34 2.4424 1.6612 4.5678 3.9434 6.3457 0.94974 0.73986 2.1005 1.4344 3.168 1.9102 0.67323 0.30007 0.68588 0.30499 0.72266 0.39844 0.01876 0.04773 0.03853 0.55205 0.04687 1.1875 0.01047 0.7741 0.02868 1.1893 0.0625 1.3906 0.21876 1.2981 0.59456 2.2631 1.2715 3.2637 1.1332 1.6751 2.8356 2.8524 4.8164 3.3301 0.20789 0.05006 0.54084 0.11399 0.73828 0.14063 0.19744 0.02665 0.40222 0.05142 0.45508 0.05859 0.23482 0.03207 1.6185-0.0089 1.9238-0.05664 2.2994-0.36472 4.2513-1.5951 5.5215-3.4727 0.67693-1.0006 1.0566-1.9656 1.2754-3.2637 0.03397-0.20129 0.05042-0.61652 0.06055-1.3906 0.0091-0.63545 0.03202-1.1397 0.05078-1.1875 0.0368-0.09341 0.05136-0.09835 0.72461-0.39844 0.79235-0.35315 1.7737-0.90956 2.5117-1.4238 2.2075-1.5383 3.6586-3.3907 4.3008-5.4844 0.25566-0.83356 0.3504-1.4993 0.34961-2.4648-0.0029-3.8392-1.9663-6.2532-5.5059-6.7734-0.46356-0.06807-1.5495-0.09495-2.1016-0.04883-2.8163 0.23533-5.6924 1.4697-7.918 3.3945-0.29866 0.25831-0.39658 0.32422-0.47266 0.32422-0.07611 0-0.17595-0.06585-0.47461-0.32422-2.2255-1.9249-5.1017-3.1592-7.918-3.3945-0.27603-0.02307-0.68499-0.02816-1.084-0.01953zm16.238 6.9844c0.12279-0.0047 0.25743 2.73e-4 0.39648 0.01758 0.27811 0.03462 0.5753 0.11325 0.83984 0.22266 0.40414 0.16719 0.79374 0.46942 0.92383 0.7168 0.07791 0.14823 0.08274 0.37816 0.01367 0.50781-0.15179 0.28454-0.48929 0.47248-1.3398 0.74023-0.96632 0.30421-1.4743 0.53123-2.1465 0.9668-0.39882 0.25843-0.81054 0.59828-1.1777 0.96484-0.24703 0.2466-0.28329 0.26758-0.39453 0.26758-0.08714 0-0.14711-0.02113-0.20312-0.07617-0.09473-0.0931-0.09705-0.21889-0.02734-0.70117 0.20582-1.423 0.75692-2.4063 1.6992-3.0312 0.33267-0.22063 0.86015-0.4847 1.0879-0.54883 0.09423-0.02653 0.20533-0.04213 0.32812-0.04687zm-13.74 0.0039c0.21012-0.0088 0.40802 0.0077 0.5332 0.04297 0.22776 0.06413 0.75522 0.3282 1.0879 0.54883 0.94229 0.62494 1.4934 1.6082 1.6992 3.0312 0.06972 0.48228 0.06155 0.60807-0.0332 0.70117-0.056 0.05504-0.11206 0.08008-0.19922 0.08008-0.11128 0-0.14757-0.0249-0.39453-0.27148-0.68928-0.68811-1.4686-1.2131-2.3438-1.582-0.19956-0.08418-0.64078-0.24271-0.98047-0.34961-0.67411-0.21215-0.98288-0.35192-1.1719-0.53125-0.16384-0.15545-0.22071-0.2735-0.22071-0.44922 0-0.43439 0.57941-0.89589 1.4199-1.1328 0.16888-0.04758 0.3934-0.07907 0.60352-0.08789zm4.9707 8.0156c0.18948 0 0.24649 0.06037 0.35156 0.36719 0.4105 1.1987 0.28102 2.3299-0.36523 3.1973-0.29521 0.39621-0.47392 0.49041-0.66602 0.35547-0.25584-0.17972-0.38714-1.0725-0.26367-1.8066 0.08907-0.52997 0.35831-1.3342 0.61133-1.8262 0.12736-0.24763 0.17291-0.28711 0.33203-0.28711zm4.0078 0.0039c0.06858-0.0018 0.13897 0.0084 0.17578 0.0332 0.11871 0.07982 0.48296 0.92904 0.64844 1.5117 0.22941 0.80778 0.23356 1.6295 0.01172 2.1602-0.11439 0.27325-0.31578 0.34253-0.52344 0.17969h-2e-3c-0.06256-0.04895-0.19544-0.19333-0.29297-0.32422-0.64626-0.86738-0.77378-1.9985-0.36328-3.1973 0.06494-0.1896 0.11969-0.29204 0.16797-0.32227 0.04261-0.02667 0.10916-0.03943 0.17773-0.04102z" fill="#ffffff"/>
 </g>
</svg>
