<svg width="64" height="64" version="1.1" viewBox="0 0 64 64" xmlns="http://www.w3.org/2000/svg">
 <path d="m32 5c14.912 0 27 12.088 27 27s-12.088 27-27 27-27-12.088-27-27 12.088-27 27-27z" fill="#f9f9f9" stroke-width="1.1739"/>
 <path d="m40.216 22.609c-5.1869 0-9.3913 4.2003-9.3913 9.3913 0 5.1869 4.2003 9.3913 9.3913 9.3913 5.1869 0 9.3937-4.2003 9.3937-9.3913 0-5.1869-4.2025-9.3913-9.3937-9.3913zm0 2.3455c3.8892 0 7.0435 3.1521 7.0435 7.0411 0 3.8891-3.1543 7.0435-7.0435 7.0435s-7.0411-3.1543-7.0411-7.0435c0-3.8892 3.1521-7.0411 7.0411-7.0411zm-18.785 1.1716c-3.8892 0-7.0411 3.1543-7.0411 7.0435s3.1521 7.0411 7.0411 7.0411c3.8891 0 7.0435-3.1521 7.0435-7.0411 0-3.8892-3.1543-7.0435-7.0435-7.0435zm0 2.3478c2.5914 0 4.698 2.1001 4.698 4.6957 0 2.5914-2.1024 4.6957-4.698 4.6957-2.5914 0-4.6957-2.1001-4.6957-4.6957 0-2.5914 2.1001-4.6957 4.6957-4.6957z" fill="#e72768" stroke-width="1.1739"/>
</svg>
