<svg width="64" height="64" version="1.1" viewBox="0 0 64 64" xmlns="http://www.w3.org/2000/svg">
 <g transform="translate(4 -4)">
  <path d="m28 9c14.912 0 27 12.088 27 27s-12.088 27-27 27-27-12.088-27-27 12.088-27 27-27z" fill="#e9e9e9"/>
  <g transform="matrix(1.1739 0 0 1.1739 1 9)" stroke-width=".85185"></g>
  <path d="m24.245 24.591c-7.5893 2.761-11.763 10.139-9.295 16.447 2.4711 6.3098 10.659 9.1941 18.246 6.433 7.5847-2.761 11.763-10.144 9.2903-16.458-2.4711-6.3098-10.659-9.1894-18.246-6.4295m0.85343 2.1694c6.1818-2.2516 12.785 0.07396 14.794 5.2051 2.0086 5.1265-1.3523 11.083-7.5389 13.334-6.1865 2.2516-12.793-0.07748-14.797-5.2098-2.0086-5.1265 1.357-11.079 7.5436-13.33" fill="#666"/>
  <g fill="#99f">
   <path d="m30.348 24.848c0 1.6188-1.316 2.9348-2.9348 2.9348s-2.9348-1.316-2.9348-2.9348c0-1.6188 1.316-2.9348 2.9348-2.9348s2.9348 1.316 2.9348 2.9348"/>
   <path d="m43.261 29.543c0 1.6188-1.316 2.9348-2.9348 2.9348s-2.9348-1.316-2.9348-2.9348c0-1.6188 1.316-2.9348 2.9348-2.9348s2.9348 1.316 2.9348 2.9348"/>
   <path d="m40.913 42.457c0 1.6188-1.316 2.9348-2.9348 2.9348s-2.9348-1.316-2.9348-2.9348c0-1.6188 1.316-2.9348 2.9348-2.9348s2.9348 1.316 2.9348 2.9348"/>
   <path d="m25.652 47.152c0 1.6188-1.316 2.9348-2.9348 2.9348s-2.9348-1.316-2.9348-2.9348c0-1.6188 1.316-2.9348 2.9348-2.9348s2.9348 1.316 2.9348 2.9348"/>
   <path d="m18.609 35.413c0 1.6188-1.316 2.9348-2.9348 2.9348s-2.9348-1.316-2.9348-2.9348c0-1.6188 1.316-2.9348 2.9348-2.9348s2.9348 1.316 2.9348 2.9348"/>
  </g>
 </g>
</svg>
