<svg width="64" height="64" version="1.1" viewBox="0 0 64 64" xmlns="http://www.w3.org/2000/svg">
 <circle cx="32" cy="32" r="27" fill="#445575"/>
 <path d="m32 5c-0.7577 0-1.5081 0.030587-2.25 0.091797v8.1621c-1.3303 0.632-2.25 1.9879-2.25 3.5586s0.9197 2.9266 2.25 3.5586v8.8164l6.1875 6.1875h1.6875v1.125h9v-1.125h12.166c0.1379-1.1056 0.20898-2.232 0.20898-3.375h-12.375v-1.125h-9v1.125h-0.5625l-3.9375-3.9375v-7.6914c1.3303-0.632 2.25-1.9879 2.25-3.5586s-0.9197-2.9266-2.25-3.5586v-8.2305c-0.3731-0.01529-0.7481-0.023438-1.125-0.023438zm-10.688 2.1973c-2.2348 0.9643-4.3135 2.2223-6.1875 3.7246v3.0781h9v-5.625h-2.8125v-1.1777zm16.312 1.1777v5.625h9v-1.125h4.4336c-1.2595-1.2552-2.6426-2.3868-4.1289-3.375-0.1012-0.0673-0.20249-0.13326-0.30469-0.19922-0.5032-0.3249-1.0175-0.63419-1.543-0.92578h-7.457zm-22.5 11.25v1.125h-7.6777c-0.49936 1.088-0.92807 2.215-1.2812 3.375h8.959v1.125h9v-5.625h-9zm22.5 0v5.625h9v-1.125h11.209c-0.3532-1.16-0.78185-2.287-1.2812-3.375h-9.9277v-1.125h-9zm-28.688 10.688c-1.864 0-3.375 1.511-3.375 3.375s1.511 3.375 3.375 3.375c1.2492 0 2.3402-0.6787 2.9238-1.6875h3.2637v1.125h9v-1.125h1.6875l3.9375 3.9375v19.596c0.7419 0.0612 1.4923 0.091797 2.25 0.091797 0.3769 0 0.7519-0.008138 1.125-0.023438v-20.789l-6.1875-6.1875h-2.8125v-1.125h-9v1.125h-3.2637c-0.5836-1.0088-1.6746-1.6875-2.9238-1.6875zm39.938 8.4375-1.125 1.125h-8.4375l-1.6875 1.6875v16.852c10.019-2.1233 17.986-9.8043 20.523-19.664h-9.2734zm-37.688 2.25-1.125 1.125h-3.0996c3.1815 7.8596 9.9561 13.879 18.287 16.023v-14.336l-1.6875-1.6875h-7.875l-1.125-1.125h-3.375z" fill="#ffffff" opacity=".5"/>
</svg>
