<svg xmlns="http://www.w3.org/2000/svg" width="64" height="64"><rect width="52" height="52" x="6" y="6" fill="#545454" rx="8" ry="8"/><path fill="#fff" d="M14 6c-4.432 0-8 3.568-8 8h18.125V8.375h-2.813V6zm15.75 0v7.254a3.938 3.938 0 0 0 0 7.117v8.816l6.188 6.188h1.687V36.5h9v-1.125H58V32H46.625v-1.125h-9V32h-.563l-3.937-3.938v-7.69a3.938 3.938 0 0 0 0-7.118V6zm7.875 0v8h9v-1.125h11.287A7.974 7.974 0 0 0 50 6zm-22.5 13.625v1.125H6v3.375h9.125v1.125h9v-5.625zm22.5 0v5.625h9v-1.125H58V20.75H46.625v-1.125zM9.846 30.313a3.375 3.375 0 1 0 2.924 5.063h3.264V36.5h9v-1.125h.779l3.937 3.937V58h3.375V38.189l-6.187-6.187h-1.905v-1.125h-9v1.125H12.77a3.37 3.37 0 0 0-2.924-1.688zm39.029 8.438-1.125 1.125h-8.438l-1.687 1.687v16.438H50c4.432 0 8-3.568 8-8v-11.25zM11.187 41l-1.125 1.125H5.999V50c0 4.431 3.569 8 8 8h11.25V43.813l-1.687-1.688h-7.875L14.562 41z" opacity=".5"/></svg>