<svg width="64" height="64" version="1.1" viewBox="0 0 64 64" xmlns="http://www.w3.org/2000/svg">
 <g transform="matrix(1.1739 0 0 1.1739 3.8261 3.8261)">
  <path d="m24 1c12.703 0 23 10.297 23 23s-10.297 23-23 23-23-10.297-23-23 10.297-23 23-23z" fill="#e85656"/>
  <path d="m24 11a13 13 0 0 0-10.275 5.0898 3 3 0 0 0-0.72461-0.089844 3 3 0 0 0-3 3 3 3 0 0 0 1.2852 2.4531 13 13 0 0 0-0.28516 2.5469 13 13 0 0 0 13 13c6 0 11.398-1 13-2-2.862-0.924-1.8501-4-0.99609-6l-0.03906 0.02539a13 13 0 0 0 1.0352-5.0254 13 13 0 0 0-0.25586-2.5684 3 3 0 0 0 1.2559-2.4316 3 3 0 0 0-3-3 3 3 0 0 0-0.68945 0.087891 13 13 0 0 0-10.311-5.0879z" fill="#ffffff"/>
  <ellipse transform="matrix(.95289 -.30331 .22003 .97549 0 0)" cx="22.999" cy="27.653" rx="3.01" ry="3.992" fill="#303030"/>
  <ellipse transform="matrix(-.95289 -.30331 -.22003 .97549 0 0)" cx="-24" cy="13.04" rx="3.01" ry="3.992" fill="#303030"/>
 </g>
</svg>
