<svg width="64" height="64" version="1.1" viewBox="0 0 16.933 16.933" xmlns="http://www.w3.org/2000/svg" xmlns:xlink="http://www.w3.org/1999/xlink">
 <defs>
  <linearGradient id="d" x1="34.601" x2="34.601" y1="50.4" y2="45.086" gradientUnits="userSpaceOnUse">
   <stop offset="0"/>
   <stop stop-opacity="0" offset="1"/>
  </linearGradient>
 </defs>
 <path d="M2.57 2.117s-.982 0-.982.977c0 0-.053 4.779.982 6.838.62 1.236 3.927 3.908 3.927 3.908h3.928s3.306-2.672 3.927-3.908c1.035-2.06.982-6.838.982-6.838.139-.968-.982-.977-.982-.977 0 1.954-1.964 1.954-1.964 1.954H4.533s-1.963 0-1.963-1.954z" fill="#5c4e3c"/>
 <g transform="matrix(.34395 0 0 .34223 -43.43 -80.23)">
  <circle cx="159.87" cy="259.33" r="4" fill="#fff"/>
  <path d="m159.74 257.33a3 3 0 0 0-2.874 2.995 3 3 0 0 0 3 3 3 3 0 0 0 3-3 3 3 0 0 0-2.85-2.992 1.5 1.5 0 0 1 1.35 1.492 1.5 1.5 0 0 1-1.5 1.5 1.5 1.5 0 0 1-1.5-1.5 1.5 1.5 0 0 1 1.374-1.495z" opacity=".8"/>
 </g>
 <g transform="matrix(.34395 0 0 .34223 -49.622 -80.23)">
  <circle cx="159.87" cy="259.33" r="4" fill="#fff"/>
  <path d="m159.74 257.33a3 3 0 0 0-2.874 2.995 3 3 0 0 0 3 3 3 3 0 0 0 3-3 3 3 0 0 0-2.85-2.992 1.5 1.5 0 0 1 1.35 1.492 1.5 1.5 0 0 1-1.5 1.5 1.5 1.5 0 0 1-1.5-1.5 1.5 1.5 0 0 1 1.374-1.495z" opacity=".8"/>
 </g>
 <path d="M6.497 13.84s.575.977 1.964.977c1.388 0 1.964-.977 1.964-.977s-.491-.977-1.964-.977c-1.473 0-1.964.977-1.964.977z" fill="#252525" fill-rule="evenodd"/>
 <path transform="matrix(.34395 0 0 .34223 -2.546 -2.432)" d="M34.537 45.086a5.5 5 0 0 1 .072.791 5.5 5 0 0 1-3.117 4.502c.167.01.332.021.508.021 4.037 0 5.709-2.855 5.709-2.855s-.846-1.677-3.172-2.46z" fill="url(#d)" fill-rule="evenodd" opacity=".25"/>
</svg>
