<svg width="64" height="64" data-name="Camada 1" version="1.1" viewBox="0 0 64 64" xmlns="http://www.w3.org/2000/svg">
 <defs>
  <style>.cls-7,.cls-8{fill-rule:evenodd}.cls-8{fill:#172525}.cls-7{fill:#fff}</style>
 </defs>
 <g transform="matrix(1.0323 0 0 1.0323 -3.0966 -5.1535)" stroke-width="1.069">
  <path d="m52.514 12.43a1.1759 1.1759 0 0 0-1.0369 0.42758 2.8434 2.8434 0 0 0-0.52379 1.0048 12.892 12.892 0 0 1-4.2759 5.9541c-3.1748 2.6083-8.6372 5.8365-18.108 6.0717-7.2048 0.08552-11.609-4.5538-13.437-10.807v3.6986l-0.03207 10.39 0.06414 0.13896a3.6131 3.6131 0 0 1-0.03207 2.5976c-0.54517 1.4965-2.6938 3.4314-7.5041 4.8317l-0.58793 0.16035 0.1069 0.59862a9.0221 9.0221 0 0 0 2.9076 4.4576 30.669 30.669 0 0 0 6.1145 4.4362 37.595 37.595 0 0 0 17.232 5.0776c6.0931 0.1069 12.037-1.9562 15.981-7.6431 3.9445-5.6869 5.8579-15.564 4.2759-29.717v-0.01069a2.8328 2.8328 0 0 0-0.28861-1.0155 1.1972 1.1972 0 0 0-0.85517-0.65207z" fill="#8f755a" fill-rule="evenodd"/>
  <path d="m23.214 42.041c8.851 1.8921 13.362 0.13896 15.992-2.031a12.421 12.421 0 0 1-1.1652-2.0203 8.9793 8.9793 0 0 1 3.4528 2.4159c1.0797 1.4965 0.40621 2.4159 0.11759 4.3293-0.63069-1.6783-1.8172-2.309-1.9669-2.9717-2.3731 3.4955-8.2845 3.3459-16.43 0.27793z" fill="#31271f" fill-rule="evenodd"/>
  <path d="m51.477 50.667 1.2507-2.4907c-4.65-3.3993-13.319-6.8414-13.319-6.8414l-1.3683 0.74827s7.8783 6.9803 13.437 8.5838z" fill="#f49d2b"/>
  <path d="m51.531 46.081-0.66276 0.42758a4.201 4.201 0 0 0-1.4965 1.5393 5.2593 5.2593 0 0 0-0.54517 2.7793l0.94069-0.16034s4.9279 1.411 7.269 2.1486l0.26724-0.52379 0.96207-1.86-6.7345-3.4528z" fill="#aeb6b6"/>
  <path d="m65 59.561c-1.6783-5.4624-2.2769-9.8024-6.6703-9.4069-3.5383 0.31-3.7841 5.1631-0.12828 6.4993q3.4634 1.2934 6.7986 2.9076z" fill="#172525"/>
  <path class="cls-7" d="m19.847 24.52a6.2427 6.2427 0 0 0-4.1583 1.5179 5.9327 5.9327 0 0 0-1.9028 4.5431 5.9434 5.9434 0 0 0 1.9028 4.5431 6.4458 6.4458 0 0 0 8.3165 0 5.9327 5.9327 0 0 0 1.9028-4.5431 5.9327 5.9327 0 0 0-1.9028-4.5431 6.2427 6.2427 0 0 0-4.1583-1.5179z" fill="#e6e6e6"/>
  <path class="cls-8" d="m8.5265 28.561a5.8365 5.8365 0 0 0-0.96207 0.06414 5.3021 5.3021 0 0 0-2.2769 0.93c-2.6724 1.9241-3.3779 6.2748-0.074827 10.839 3.3031 4.5645 7.6538 5.2593 10.326 3.3352 2.6724-1.9241 3.3779-6.2641 0.07483-10.829-2.1593-2.9931-4.789-4.3186-7.0872-4.34z"/>
  <path class="cls-7" d="m31.306 24.52a6.9483 6.9483 0 0 0-4.6179 1.6783 6.5848 6.5848 0 0 0-2.1272 5.0562 6.5848 6.5848 0 0 0 2.1272 5.0562 7.1727 7.1727 0 0 0 9.2358 0 6.5848 6.5848 0 0 0 2.1165-5.0562 6.5848 6.5848 0 0 0-2.1165-5.0562 6.9483 6.9483 0 0 0-4.6179-1.6783z" fill="#f2f2f2"/>
  <path class="cls-8" d="m33.326 28.561a3.4634 3.4634 0 0 0-2.309 0.84448 3.5276 3.5276 0 0 0 0 5.0455 3.5596 3.5596 0 0 0 4.6072 0 3.5276 3.5276 0 0 0 0-5.0455 3.4634 3.4634 0 0 0-2.2983-0.85517zm-11.459 0a2.7686 2.7686 0 0 0-1.8386 0.67345 2.8221 2.8221 0 0 0 0 4.0407 2.8541 2.8541 0 0 0 3.6879 0 2.8221 2.8221 0 0 0 0-4.0407 2.7686 2.7686 0 0 0-1.8493-0.67345z"/>
  <circle cx="22.804" cy="29.974" r=".73579" fill="#f2f2f2" fill-rule="evenodd" opacity=".5"/>
  <circle cx="34.507" cy="30.386" r="1.0155" fill="#f2f2f2" fill-rule="evenodd" opacity=".5"/>
 </g>
</svg>
