<svg id="Camada_1" data-name="Camada 1" xmlns="http://www.w3.org/2000/svg" viewBox="0 0 64 64"><defs><style>.cls-1{fill:#8f755a;}.cls-1,.cls-2,.cls-3,.cls-7,.cls-8{fill-rule:evenodd;}.cls-2{fill:#31271f;}.cls-3{fill:#5f4c3e;}.cls-4{fill:#f49d2b;}.cls-5{fill:#aeb6b6;}.cls-6,.cls-8{fill:#172525;}.cls-7{fill:#fff;}</style></defs><path class="cls-1" d="M49.3218,12.43a1.1,1.1,0,0,0-.9671.401,2.6638,2.6638,0,0,0-.4918.9368,12.0572,12.0572,0,0,1-4.0108,5.5744c-2.9643,2.441-8.0759,5.4558-16.9361,5.6764-6.7331.0769-10.8536-4.2542-12.5684-10.1084v3.4624L14.32,28.0939l.0554.1286a3.38,3.38,0,0,1-.0277,2.431c-.5107,1.3945-2.5217,3.21-7.0155,4.5139l-.55.1576.1047.5586a8.4428,8.4428,0,0,0,2.71,4.1621,28.6894,28.6894,0,0,0,5.7181,4.1571A35.172,35.172,0,0,0,31.4413,48.95c5.6916.0971,11.2609-1.8257,14.9464-7.15S51.87,27.2352,50.3973,14l-.0013-.005V13.99a2.6534,2.6534,0,0,0-.2774-.9456A1.1174,1.1174,0,0,0,49.3218,12.43Z"/><path class="cls-2" d="M21.9129,40.13c8.2751,1.7653,12.4889.1286,14.9539-1.9039a11.6171,11.6171,0,0,1-1.0843-1.8812A8.4082,8.4082,0,0,1,39.01,38.602c1.015,1.4.377,2.26.111,4.0475-.5914-1.57-1.6946-2.1587-1.8434-2.7828C35.0587,43.1374,29.5336,43.0012,21.9129,40.13Z"/><path class="cls-3" d="M50.9029,22.2787c-.1034,8.2437-1.79,14.3249-4.5139,18.26-3.6856,5.3247-9.2549,7.2476-14.9477,7.1517A35.18,35.18,0,0,1,15.3147,42.942a28.7,28.7,0,0,1-5.7168-4.1571,9.6623,9.6623,0,0,1-2.5394-3.538l-.2762.0781.1034.56a8.4527,8.4527,0,0,0,2.7109,4.1608,28.6869,28.6869,0,0,0,5.7193,4.1572,35.1707,35.1707,0,0,0,16.1254,4.7484c5.6928.0958,11.2634-1.827,14.9477-7.1517C49.2486,37.6665,50.9622,31.1641,50.9029,22.2787Zm-36.58,4.5644L14.32,28.0952l.0542.1286a3.4321,3.4321,0,0,1,.1425.527,3.2548,3.2548,0,0,0-.1425-1.7879l-.0517-.121Z"/><path class="cls-4" d="M48.3509,48.1973l1.1676-2.3263c-4.345-3.1787-12.4575-6.4053-12.4575-6.4053l-1.2785.7036S43.1485,46.7006,48.3509,48.1973Z"/><path class="cls-5" d="M48.3912,43.91l-.609.401a3.9338,3.9338,0,0,0-1.3932,1.44,4.9212,4.9212,0,0,0-.52,2.5974l.8826-.1513s4.6085,1.3227,6.79,2.0174l.2547-.4917.899-1.7388-6.3044-3.2291Z"/><path class="cls-6" d="M61,56.5191c-1.5723-5.1091-2.1309-9.1653-6.2388-8.8034-3.3111.29-3.5431,4.8316-.1211,6.0849Q57.8822,55.01,61,56.5191Z"/><path class="cls-7" d="M18.7607,23.7363a5.842,5.842,0,0,0-3.8861,1.42A5.5509,5.5509,0,0,0,13.0867,29.41a5.5557,5.5557,0,0,0,1.7879,4.2542,6.03,6.03,0,0,0,7.7733,0A5.55,5.55,0,0,0,24.4346,29.41a5.55,5.55,0,0,0-1.7867-4.2542A5.8424,5.8424,0,0,0,18.7607,23.7363Z"/><path class="cls-8" d="M8.1706,27.5189a5.4569,5.4569,0,0,0-.9028.0656,4.9614,4.9614,0,0,0-2.1309.8688C2.64,30.25,1.9822,34.3214,5.0663,38.5857s7.1668,4.9249,9.6646,3.1282,3.1572-5.8681.0719-10.1324C12.7791,28.7836,10.3241,27.5379,8.1706,27.5189Z"/><path class="cls-7" d="M29.4768,23.7363a6.4981,6.4981,0,0,0-4.321,1.5761,6.1639,6.1639,0,0,0-1.9821,4.7283,6.1639,6.1639,0,0,0,1.9821,4.7283,6.7114,6.7114,0,0,0,8.6421,0,6.1635,6.1635,0,0,0,1.9846-4.7283,6.1635,6.1635,0,0,0-1.9846-4.7283A6.4983,6.4983,0,0,0,29.4768,23.7363Z"/><path class="cls-8" d="M31.3694,27.5189a3.2355,3.2355,0,0,0-2.1548.7906,3.2947,3.2947,0,0,0,0,4.7233,3.3322,3.3322,0,0,0,4.31,0,3.2949,3.2949,0,0,0,0-4.7233A3.2361,3.2361,0,0,0,31.3694,27.5189Z"/><path class="cls-8" d="M20.652,27.5189a2.5879,2.5879,0,0,0-1.7236.6317,2.6369,2.6369,0,0,0,0,3.78,2.6676,2.6676,0,0,0,3.4472,0,2.6372,2.6372,0,0,0,0-3.78A2.59,2.59,0,0,0,20.652,27.5189Z"/></svg>