<svg xmlns="http://www.w3.org/2000/svg" xmlns:xlink="http://www.w3.org/1999/xlink" width="64" height="64" viewBox="0 0 16.933 16.933"><defs><linearGradient id="a"><stop offset="0"/><stop offset="1" stop-opacity="0"/></linearGradient><linearGradient xlink:href="#a" id="b" x1="42.246" y1="57" x2="42.246" y2="11.922" gradientUnits="userSpaceOnUse" gradientTransform="matrix(.27517 0 0 .27517 -.074 279.463)"/></defs><g transform="translate(0 -280.067)"><path d="M8.466 281.654c-.36 0-.72.134-.99.404l-5.485 5.485a1.414 1.414 0 0 0 .001 1.98l5.485 5.485c.539.539 1.441.54 1.98 0l5.485-5.485a1.415 1.415 0 0 0 0-1.98l-5.485-5.485c-.27-.27-.63-.404-.99-.404z" fill="#c2352a"/><path d="M10.671 282.744a7.567 7.567 0 0 1 1.637 4.7 7.567 7.567 0 0 1-4.817 7.049l.25.25c.539.539 1.441.54 1.98.001l5.485-5.485a1.415 1.415 0 0 0 0-1.98z" opacity=".25" fill="url(#b)" transform="translate(-.265 .265)"/><path d="M5.765 283.775l-.374.374 1.753 1.739v4.233h.529v-3.704l2.536 2.49.374-.374z" opacity=".5" fill-rule="evenodd"/><circle cx="7.408" cy="286.152" r="1.058" fill="#fff" paint-order="markers stroke fill"/><circle r="1.058" cy="288.533" cx="10.319" fill="#fff" paint-order="markers stroke fill"/><circle cx="7.673" cy="290.915" r="1.058" fill="#fff" paint-order="markers stroke fill"/></g></svg>