<svg xmlns="http://www.w3.org/2000/svg" width="64" height="64" viewBox="0 0 16.933 16.933"><path fill="#c2352a" d="M8.466 1.316c-.374 0-.748.14-1.028.42L1.742 7.43a1.47 1.47 0 0 0 .001 2.057l5.696 5.695c.56.56 1.496.56 2.056 0l5.696-5.695a1.47 1.47 0 0 0 0-2.057L9.495 1.736a1.45 1.45 0 0 0-1.028-.42z"/><path fill-rule="evenodd" d="m5.638 3.55-.374.374 1.88 1.898v4.233h.529V6.35l2.536 2.49.374-.374z" opacity=".5"/><g fill="#fff" paint-order="markers stroke fill" transform="translate(0 -280.07)"><circle cx="7.408" cy="286.15" r="1.058"/><circle cx="10.319" cy="288.53" r="1.058"/><circle cx="7.673" cy="290.92" r="1.058"/></g></svg>