<svg width="64" height="64" version="1.1" viewBox="0 0 16.933 16.933" xmlns="http://www.w3.org/2000/svg">
 <circle cx="8.4665" cy="8.46" r="7.1436" fill="#eee" style="paint-order:stroke markers fill"/>
 <path d="m8.4653 3.9412c-2.5729 0-4.6589 2.0859-4.6589 4.6589 9.32e-4 1.9766 1.2517 3.7364 3.1183 4.3918 0.16648-0.0066 0.2991-0.14008 0.2991-0.30811v-0.66622h-0.31059c-0.45968 0-1.0076-0.12206-1.1775-0.62118-0.22642-0.6656-0.87276-0.82835-0.6861-0.93178 0.03914-0.02174 0.07951-0.0351 0.12082-0.04131 0.03603-0.0056 0.07299-0.0053 0.10995-6.21e-4 0.25841 0.03231 0.53018 0.29196 0.70132 0.50782 0.30562 0.38576 0.47521 0.46589 0.80568 0.46589 0.3137 0 0.43669-0.07766 0.43669-0.07766 0-0.29662 0.13542-0.52428 0.34507-0.67088-1.1905-0.18635-2.0533-0.79201-2.0533-2.0468 0-0.60162 0.16648-1.0858 0.45005-1.4632-0.12734-0.43793-0.11336-0.88239 0.01584-1.3321 0.43576 0 0.92463 0.23698 1.2358 0.49136 0.37985-0.1202 0.80195-0.18076 1.2486-0.18076 0.4457 0 0.86872 0.060255 1.2517 0.17952 0.31059-0.25375 0.79884-0.49011 1.234-0.49011 0.12703 0.44197 0.14101 0.87897 0.0205 1.3098 0.2991 0.38047 0.47614 0.87183 0.47614 1.4856 0 1.2548-0.88394 1.8614-2.0838 2.0474 0.20934 0.1466 0.34445 0.37395 0.34445 0.67026v1.3651c0 0.16803 0.13262 0.30158 0.2991 0.30811 1.8667-0.65411 3.1152-2.4139 3.1183-4.3918 0.0013-2.5729-2.0859-4.6589-4.6589-4.6589z" fill="#333"/>
</svg>
