<svg xmlns="http://www.w3.org/2000/svg" width="64" height="64" viewBox="0 0 16.933 16.933"><g transform="translate(0 -280.067)"><rect width="13.758" height="11.113" x="1.587" y="282.977" ry=".265" fill="#e35c58" paint-order="stroke markers fill"/><rect width="4.233" height=".529" x="5.292" y="289.063" ry=".265" fill="#fff" paint-order="stroke markers fill"/><path d="M3.973 284.262a.264.264 0 0 0-.262.13.264.264 0 0 0 .097.362l2.842 1.64-2.842 1.641a.264.264 0 0 0-.097.361c.074.127.235.17.362.097l3.208-1.852a.26.26 0 0 0 .127-.224c.002-.008.001-.015.002-.023 0-.008 0-.014-.002-.022a.26.26 0 0 0-.127-.225l-3.208-1.852a.266.266 0 0 0-.1-.033z" fill="#fff" paint-order="stroke markers fill"/></g></svg>