<svg width="64" height="64" version="1.1" viewBox="0 0 16.933 16.933" xmlns="http://www.w3.org/2000/svg">
 <g transform="translate(0 -280.07)">
  <path d="m2.3802 282.98h12.172c0.43944 0 0.7932 0.35417 0.7932 0.7941v9.5248c0 0.43993-0.35377 0.7941-0.7932 0.7941h-12.172c-0.43943 0-0.7932-0.35417-0.7932-0.7941v-9.5248c0-0.43993 0.35377-0.7941 0.7932-0.7941z" fill="#e35c58" style="paint-order:stroke markers fill"/>
  <rect x="5.292" y="289.06" width="4.233" height=".529" ry=".265" fill="#fff" paint-order="stroke markers fill"/>
  <path d="M3.973 284.262a.264.264 0 0 0-.262.13.264.264 0 0 0 .097.362l2.842 1.64-2.842 1.641a.264.264 0 0 0-.097.361c.074.127.235.17.362.097l3.208-1.852a.26.26 0 0 0 .127-.224c.002-.008.001-.015.002-.023 0-.008 0-.014-.002-.022a.26.26 0 0 0-.127-.225l-3.208-1.852a.266.266 0 0 0-.1-.033z" fill="#fff" paint-order="stroke markers fill"/>
 </g>
</svg>
