<svg xmlns="http://www.w3.org/2000/svg" width="64" height="64" viewBox="0 0 16.933 16.933"><defs><linearGradient id="a" x1="47" x2="59.998" y1="41" y2="53.978" gradientTransform="translate(-.004 .27) scale(.26458)" gradientUnits="userSpaceOnUse"><stop offset="0"/><stop offset="1" stop-color="#242424" stop-opacity="0"/></linearGradient></defs><rect width="14.816" height="12.171" x="1.058" y="2.381" fill="#e35c58" rx="1.372" ry="1.323"/><path fill="url(#a)" d="m15.872 9.215-5.337 5.337h4.767c.316 0 .57-.238.57-.535z" opacity=".15"/><rect width="4.233" height=".529" x="5.292" y="8.99" fill="#fff" paint-order="stroke markers fill" ry=".265"/><path fill="#fff" d="M3.973 4.192a.264.264 0 0 0-.262.13.264.264 0 0 0 .097.362l2.842 1.64-2.842 1.641a.264.264 0 0 0-.097.361c.074.127.235.17.362.097l3.208-1.852a.26.26 0 0 0 .127-.224c.002-.008.001-.015.002-.023 0-.008 0-.014-.002-.022a.26.26 0 0 0-.127-.225L4.073 4.225a.266.266 0 0 0-.1-.033z" paint-order="stroke markers fill"/></svg>