<svg xmlns="http://www.w3.org/2000/svg" width="64" height="64"><path fill="#f2f2f2" d="M21 6 5 22v30c0 3.324 2.676 6 6 6h42c3.324 0 6-2.676 6-6V12c0-3.324-2.676-6-6-6z"/><circle cx="21.5" cy="31.5" r="2" fill="none" stroke="#c9caca" stroke-miterlimit="10"/><circle cx="21.5" cy="41.5" r="2" fill="none" stroke="#c9caca" stroke-miterlimit="10"/><path fill="#b3b3b3" d="M11 20h42v1H11zM11 24h42v1H11zM11 47h42v1H11zM11 51h42v1H11z" opacity=".5"/><path fill="#b3b3b3" d="M15 18v36h-1V18zM50 18v36h-1V18z" opacity=".5"/><path fill="#64cf00" d="M6 54h48V22zm41-7H29l18-12z" opacity=".7"/><path fill="#ccc" d="M21 6 5 22h10c3.324 0 6-2.676 6-6V6z"/></svg>