<svg width="64" height="64" version="1.1" xmlns="http://www.w3.org/2000/svg">
 <path d="m21 6-16 16v30c0 3.324 2.676 6 6 6h42c3.324 0 6-2.676 6-6v-40c0-3.324-2.676-6-6-6z" fill="#f2f2f2"/>
 <circle cx="21.5" cy="31.5" r="2" fill="none" stroke="#c9caca" stroke-miterlimit="10"/>
 <circle cx="21.5" cy="41.5" r="2" fill="none" stroke="#c9caca" stroke-miterlimit="10"/>
 <rect x="11" y="20" width="42" height="1" fill="#b3b3b3" opacity=".5"/>
 <rect x="11" y="24" width="42" height="1" fill="#b3b3b3" opacity=".5"/>
 <rect x="11" y="47" width="42" height="1" fill="#b3b3b3" opacity=".5"/>
 <rect x="11" y="51" width="42" height="1" fill="#b3b3b3" opacity=".5"/>
 <rect transform="rotate(90)" x="18" y="-15" width="36" height="1" fill="#b3b3b3" opacity=".5"/>
 <rect transform="rotate(90)" x="18" y="-50" width="36" height="1" fill="#b3b3b3" opacity=".5"/>
 <path d="m6 54h48v-32zm41-7h-18l18-12z" fill="#64cf00" opacity=".7" stroke-width="1.1606"/>
 <path d="m21 6-16 16h10c3.324 0 6-2.676 6-6v-10z" fill="#cccccc"/>
</svg>
