<svg width="64" height="64" version="1.1" viewBox="0 0 16.933 16.933" xmlns="http://www.w3.org/2000/svg">
 <rect x="1.5875" y="1.5875" width="13.758" height="13.758" rx="2.1166" ry="2.1166" fill="#d9cdbd" fill-rule="evenodd" stroke-width=".25015"/>
 <path id="head" d="m12.569 7.8609c0.35058-0.38063 0.56469-0.8889 0.56469-1.4472 0-1.1801-0.95664-2.1367-2.1367-2.1367-0.55828 0-1.0665 0.21411-1.4472 0.56469-0.34567-0.091006-0.7086-0.13948-1.0828-0.13948-0.37425 0-0.73718 0.04847-1.0828 0.13948-0.38063-0.35058-0.8889-0.56469-1.4472-0.56469-1.1801 0-2.1367 0.95664-2.1367 2.1367 0 0.55828 0.21411 1.0665 0.56469 1.4472-0.091005 0.34567-0.13948 0.7086-0.13948 1.0828 0 2.3425 1.899 4.2415 4.2415 4.2415s4.2415-1.899 4.2415-4.2415c0-0.37425-0.04847-0.73718-0.13948-1.0828z" fill="#907b62"/>
 <path id="rear" d="m12.407 7.3702c0.19011-0.27458 0.30149-0.60781 0.30149-0.96706 0-0.93936-0.7615-1.7009-1.7009-1.7009-0.35925 0-0.69248 0.11138-0.96706 0.30149 1.0768 0.43046 1.936 1.2896 2.3664 2.3664z" fill="#000000" fill-rule="evenodd" opacity=".15" stroke="#000" stroke-width=".19135"/>
 <path id="lear" d="m6.8866 5.0063c-0.26918-0.17868-0.59216-0.28277-0.93945-0.28277-0.93936 0-1.7009 0.7615-1.7009 1.7009 0 0.34729 0.10409 0.67028 0.28277 0.93945 0.43045-1.0718 1.2858-1.9271 2.3575-2.3575z" fill="#000000" fill-rule="evenodd" opacity=".15" stroke="#000" stroke-width=".19135"/>
 <path id="mouth" d="m8.4559 12.569c0.93936 0 1.7009-0.7615 1.7009-1.7009 0-0.93936-0.7615-1.7009-1.7009-1.7009s-1.7009 0.7615-1.7009 1.7009c0 0.93936 0.7615 1.7009 1.7009 1.7009z" fill="#d9cdbd" fill-rule="evenodd"/>
 <path id="eyes" d="m6.3798 8.7517c0.72588 0.1945 1.4252-0.061577 1.5619-0.57196 0.13676-0.51038-0.34082-1.0818-1.0667-1.2763s-1.4252 0.061577-1.5619 0.57196 0.34082 1.0818 1.0667 1.2763zm4.1733 0c0.72588-0.1945 1.2035-0.76592 1.0667-1.2763s-0.83606-0.76646-1.5619-0.57196c-0.72588 0.1945-1.2035 0.76592-1.0667 1.2763 0.13676 0.51038 0.83606 0.76646 1.5619 0.57196z" fill="#fff" fill-rule="evenodd"/>
 <path id="nose" d="m8.4771 11.251c-0.42521 0-1.2756-0.85043-0.85043-1.2756 0.42521-0.42521 1.2756-0.42521 1.7009 0 0.42521 0.42521-0.42521 1.2756-0.85043 1.2756z" fill="#4a4a4a" fill-rule="evenodd"/>
</svg>
