<svg xmlns="http://www.w3.org/2000/svg" width="64" height="64" viewBox="0 0 16.933 16.933"><g transform="translate(0 -280.067)" paint-order="markers stroke fill"><path d="M2.381 284.83h12.171c.44 0 .794.353.794.793v8.467c0 .44-.354.793-.794.793H2.382a.792.792 0 0 1-.795-.793v-8.467c0-.44.355-.794.794-.794z" fill="#4d4d4d"/><rect width="11.642" height="8.996" x="2.646" y="282.183" ry=".794" fill="#fff" stroke="#000" stroke-width=".265" stroke-opacity=".059"/><path d="M15.181 285.143a.788.788 0 0 1 .165.48v8.467c0 .44-.354.793-.794.793H2.382a.788.788 0 0 1-.531-.206z" fill="#6a6b6b"/><path d="M1.752 285.143a.788.788 0 0 0-.165.48v8.467c0 .44.355.793.794.793h12.171c.205 0 .39-.08.53-.206z" fill="gray"/></g></svg>