<?xml version="1.0" encoding="UTF-8" standalone="no"?>
<!-- Created with Inkscape (http://www.inkscape.org/) -->

<svg
   xmlns:dc="http://purl.org/dc/elements/1.1/"
   xmlns:cc="http://creativecommons.org/ns#"
   xmlns:rdf="http://www.w3.org/1999/02/22-rdf-syntax-ns#"
   xmlns:svg="http://www.w3.org/2000/svg"
   xmlns="http://www.w3.org/2000/svg"
   xmlns:xlink="http://www.w3.org/1999/xlink"
   xmlns:sodipodi="http://sodipodi.sourceforge.net/DTD/sodipodi-0.dtd"
   xmlns:inkscape="http://www.inkscape.org/namespaces/inkscape"
   width="64"
   height="64"
   viewBox="0 0 16.933333 16.933333"
   version="1.1"
   id="svg4572"
   inkscape:version="0.92.4 (5da689c313, 2019-01-14)"
   sodipodi:docname="gnome-boxes.svg">
  <title
     id="title4611">Canvas icon theme</title>
  <defs
     id="defs4566">
    <linearGradient
       inkscape:collect="always"
       id="linearGradient868">
      <stop
         style="stop-color:#000000;stop-opacity:1;"
         offset="0"
         id="stop864" />
      <stop
         style="stop-color:#000000;stop-opacity:0;"
         offset="1"
         id="stop866" />
    </linearGradient>
    <linearGradient
       gradientTransform="matrix(0.27516666,0,0,0.27516666,-0.07408333,279.4634)"
       inkscape:collect="always"
       xlink:href="#linearGradient868"
       id="linearGradient840"
       x1="46.167969"
       y1="57"
       x2="46.167969"
       y2="27.345703"
       gradientUnits="userSpaceOnUse" />
  </defs>
  <sodipodi:namedview
     id="base"
     pagecolor="#ffffff"
     bordercolor="#666666"
     borderopacity="1.0"
     inkscape:pageopacity="0.0"
     inkscape:pageshadow="2"
     inkscape:zoom="11.2"
     inkscape:cx="30.949917"
     inkscape:cy="40.222769"
     inkscape:document-units="px"
     inkscape:current-layer="layer1"
     showgrid="true"
     units="px"
     width="64px"
     showguides="true"
     inkscape:guide-bbox="true"
     inkscape:window-width="1366"
     inkscape:window-height="710"
     inkscape:window-x="0"
     inkscape:window-y="28"
     inkscape:window-maximized="1"
     inkscape:snap-bbox="true"
     inkscape:bbox-nodes="true"
     inkscape:snap-bbox-edge-midpoints="true">
    <inkscape:grid
       type="xygrid"
       id="grid4582" />
    <sodipodi:guide
       position="1.0583333,15.875"
       orientation="0,1"
       id="guide4584"
       inkscape:locked="false" />
    <sodipodi:guide
       position="1.0583333,1.0583333"
       orientation="1,0"
       id="guide4586"
       inkscape:locked="false" />
    <sodipodi:guide
       position="15.875,15.875"
       orientation="1,0"
       id="guide4588"
       inkscape:locked="false" />
    <sodipodi:guide
       position="1.0583333,1.0583333"
       orientation="0,1"
       id="guide4590"
       inkscape:locked="false" />
    <sodipodi:guide
       position="8.4666665,8.4666665"
       orientation="0,1"
       id="guide822"
       inkscape:locked="false" />
    <sodipodi:guide
       position="8.4666665,8.4666665"
       orientation="1,0"
       id="guide824"
       inkscape:locked="false" />
  </sodipodi:namedview>
  <metadata
     id="metadata4569">
    <rdf:RDF>
      <cc:Work
         rdf:about="">
        <dc:format>image/svg+xml</dc:format>
        <dc:type
           rdf:resource="http://purl.org/dc/dcmitype/StillImage" />
        <dc:title>Canvas icon theme</dc:title>
        <cc:license
           rdf:resource="http://creativecommons.org/licenses/by-nc-sa/4.0/" />
        <dc:creator>
          <cc:Agent>
            <dc:title>Vince Liuice</dc:title>
          </cc:Agent>
        </dc:creator>
      </cc:Work>
      <cc:License
         rdf:about="http://creativecommons.org/licenses/by-nc-sa/4.0/">
        <cc:permits
           rdf:resource="http://creativecommons.org/ns#Reproduction" />
        <cc:permits
           rdf:resource="http://creativecommons.org/ns#Distribution" />
        <cc:requires
           rdf:resource="http://creativecommons.org/ns#Notice" />
        <cc:requires
           rdf:resource="http://creativecommons.org/ns#Attribution" />
        <cc:prohibits
           rdf:resource="http://creativecommons.org/ns#CommercialUse" />
        <cc:permits
           rdf:resource="http://creativecommons.org/ns#DerivativeWorks" />
        <cc:requires
           rdf:resource="http://creativecommons.org/ns#ShareAlike" />
      </cc:License>
    </rdf:RDF>
  </metadata>
  <g
     inkscape:label="Layer 1"
     inkscape:groupmode="layer"
     id="layer1"
     transform="translate(0,-280.06667)">
    <g
       id="g831"
       transform="translate(-0.26458322,0.26458297)">
      <rect
         ry="0.82549071"
         rx="0.82549942"
         y="281.38959"
         x="1.8520834"
         height="13.758332"
         width="13.758332"
         id="rect841-3"
         style="opacity:1;fill:#4d4d4d;fill-opacity:1;stroke:none;stroke-width:0.2362351;stroke-linecap:round;stroke-linejoin:round;stroke-miterlimit:4;stroke-dasharray:none;stroke-opacity:0.09803922;paint-order:markers stroke fill" />
      <path
         id="rect829"
         d="m 15.610416,286.98802 a 12.3825,12.3825 0 0 1 -5.9612271,8.15988 h 5.1357271 c 0.457327,0 0.8255,-0.36818 0.8255,-0.8255 z"
         style="opacity:0.25;fill:url(#linearGradient840);fill-opacity:1;stroke:none;stroke-width:0.2362351;stroke-linecap:round;stroke-linejoin:round;stroke-miterlimit:4;stroke-dasharray:none;stroke-opacity:0.09803922;paint-order:markers stroke fill"
         inkscape:connector-curvature="0" />
    </g>
    <g
       id="g42"
       transform="matrix(0.8636364,0,0,0.8636364,-12.555682,45.193309)"
       style="stroke-width:1.15789473">
      <path
         id="path10"
         d="m 19.579166,276.99962 v 9.525 h 9.525 v -9.525 z m 1.432454,1.05834 h 6.660092 l -1.5875,1.5875 h -3.485039 l -1.5875,-1.5875 z m -0.37412,0.3757 1.5875,1.5875 v 3.48504 l -1.5875,1.5875 v -6.66009 z m 7.408333,0 v 6.6601 l -1.5875,-1.5875 v -3.48504 l 1.5875,-1.5875 z m -5.291667,1.74096 h 3.175 v 3.175 h -3.175 z m -0.15503,3.70417 h 3.485039 l 1.5875,1.5875 h -6.660092 l 1.5875,-1.5875 z"
         style="fill:#c4c4c4;stroke-width:0.30635965"
         inkscape:connector-curvature="0" />
      <path
         id="path14"
         style="fill:#ffffff;stroke-width:0.30635965;enable-background:new"
         d="m 20.108333,275.94129 a 1.5875,1.5875 0 0 0 -1.5875,1.5875 1.5875,1.5875 0 0 0 1.5875,1.5875 1.5875,1.5875 0 0 0 1.5875,-1.5875 1.5875,1.5875 0 0 0 -1.5875,-1.5875 z m 8.466666,0 a 1.5875,1.5875 0 0 0 -1.5875,1.5875 1.5875,1.5875 0 0 0 1.5875,1.5875 1.5875,1.5875 0 0 0 1.5875,-1.5875 1.5875,1.5875 0 0 0 -1.5875,-1.5875 z m -6.085416,3.175 a 0.79374998,0.79374998 0 0 0 -0.79375,0.79375 0.79374998,0.79374998 0 0 0 0.79375,0.79375 0.79374998,0.79374998 0 0 0 0.79375,-0.79375 0.79374998,0.79374998 0 0 0 -0.79375,-0.79375 z m 3.704167,0 a 0.79374998,0.79374998 0 0 0 -0.79375,0.79375 0.79374998,0.79374998 0 0 0 0.79375,0.79375 0.79374998,0.79374998 0 0 0 0.793749,-0.79375 0.79374998,0.79374998 0 0 0 -0.793749,-0.79375 z m -3.704167,3.70417 a 0.79374998,0.79374998 0 0 0 -0.79375,0.79375 0.79374998,0.79374998 0 0 0 0.79375,0.79375 0.79374998,0.79374998 0 0 0 0.79375,-0.79375 0.79374998,0.79374998 0 0 0 -0.79375,-0.79375 z m 3.704167,0 a 0.79374998,0.79374998 0 0 0 -0.79375,0.79375 0.79374998,0.79374998 0 0 0 0.79375,0.79375 0.79374998,0.79374998 0 0 0 0.793749,-0.79375 0.79374998,0.79374998 0 0 0 -0.793749,-0.79375 z m -6.085417,1.5875 a 1.5875,1.5875 0 0 0 -1.5875,1.5875 1.5875,1.5875 0 0 0 1.5875,1.5875 1.5875,1.5875 0 0 0 1.5875,-1.5875 1.5875,1.5875 0 0 0 -1.5875,-1.5875 z m 8.466666,0 a 1.5875,1.5875 0 0 0 -1.5875,1.5875 1.5875,1.5875 0 0 0 1.5875,1.5875 1.5875,1.5875 0 0 0 1.5875,-1.5875 1.5875,1.5875 0 0 0 -1.5875,-1.5875 z"
         inkscape:connector-curvature="0" />
    </g>
  </g>
</svg>
