<svg xmlns="http://www.w3.org/2000/svg" width="64" height="64" viewBox="0 0 16.933 16.933"><g transform="translate(0 -280.07)"><rect width="13.758" height="13.758" x="1.588" y="281.65" fill="#ac8fac" paint-order="markers stroke fill" rx="2.117" ry="2.117"/><rect width="11.642" height="11.642" x="2.646" y="282.71" fill="#fff" paint-order="markers stroke fill" rx="1.059" ry="1.059"/><path d="M10.451 282.71v3.681H6.482v-3.681zm4.101 3.981v3.681h-3.969v-3.681zm-4.101 3.957v3.681H6.482v-3.681zm-3.836-3.969v3.681H2.646v-3.681z" opacity=".05" paint-order="markers stroke fill"/><path fill="#e6dae6" d="M6.085 282.71h.529v11.642h-.529zm4.234 0h.529v11.642h-.529z" paint-order="markers stroke fill"/><path fill="#e6dae6" d="M14.288 286.15v.529H2.646v-.529zm0 4.233v.529H2.646v-.529z" paint-order="markers stroke fill"/><path fill="#666" stroke-width=".265" d="M4.222 285.62c.396 0 .766-.29.766-.804s-.316-.744-.705-.744a.68.68 0 0 0-.348.092l.057-.676h.884v-.252H3.737l-.073 1.098.156.095c.134-.089.233-.137.39-.137.293 0 .485.198.485.533 0 .342-.224.552-.498.552-.272 0-.44-.124-.575-.258l-.144.191c.157.157.38.31.744.31z" aria-label="5"/><rect width="4.233" height="4.233" x="286.42" y="-10.583" fill="#de8787" paint-order="markers stroke fill" rx=".47" ry=".47" transform="rotate(90)"/><g stroke-width=".265"><path fill="#fff" d="M7.738 289.59h1.47v-.252h-.647c-.118 0-.262.013-.383.022.549-.52.915-.994.915-1.46 0-.417-.261-.691-.679-.691-.296 0-.497.137-.688.344l.169.166c.127-.153.293-.271.484-.271.29 0 .43.194.43.462 0 .402-.337.867-1.07 1.508z" aria-label="2"/><path fill="#666" d="M8.466 293.82c.407 0 .736-.244.736-.655 0-.313-.216-.52-.485-.583v-.012c.241-.09.407-.276.407-.555 0-.363-.282-.576-.667-.576-.267 0-.47.116-.643.276l.154.181a.67.67 0 0 1 .476-.222c.238 0 .389.144.389.363 0 .248-.163.439-.636.439v.22c.53 0 .714.184.714.457 0 .266-.194.429-.467.429-.26 0-.435-.122-.57-.263l-.144.188a.95.95 0 0 0 .736.313z" aria-label="3"/><path fill="#666" d="M12.07 292.19c0-.313.17-.52.388-.52.295 0 .47.25.502.724-.147.216-.323.307-.48.307-.272 0-.41-.2-.41-.511zm.326 1.635c.432 0 .833-.357.833-1.287 0-.73-.329-1.094-.77-1.094-.358 0-.658.301-.658.746 0 .476.25.724.632.724.192 0 .389-.11.53-.282-.022.71-.279.955-.577.955a.507.507 0 0 1-.382-.175l-.16.178a.73.73 0 0 0 .552.235z" aria-label="9"/></g></g></svg>