<svg width="64" height="64" version="1.1" viewBox="0 0 64 64" xmlns="http://www.w3.org/2000/svg">
 <path d="m32 5c14.912 0 27 12.088 27 27s-12.088 27-27 27-27-12.088-27-27 12.088-27 27-27z" fill="#f0354c" stroke-width="1.1739"/>
 <g transform="translate(-3.2609 -3.3913)" stroke-width="1.5">
  <path d="m35.261 14.391a7.5 7.5 0 0 0-7.5 7.5v12h3v-12a4.5 4.5 0 0 1 4.5-4.5 4.5 4.5 0 0 1 4.5 4.5v12h3v-12a7.5 7.5 0 0 0-7.5-7.5z" fill="#acacac"/>
  <circle cx="35.261" cy="41.391" r="15" fill="#c8c8c8"/>
  <circle cx="35.261" cy="41.391" r="13.5" fill="#b4b4b4"/>
  <path d="m33.761 29.496c-2.1345 0.267-4.158 1.1025-5.859 2.4195l-2.109 2.121v0.0029c-1.317 1.6965-2.1555 3.717-2.4255 5.847l0.0029 3c0.267 2.1345 1.104 4.158 2.421 5.859v-0.0089c0 0.0089 2.124 2.1195 2.124 2.1195 1.6965 1.317 3.717 2.154 5.847 2.4255l3-0.0029c2.1345-0.2655 4.158-1.101 5.859-2.4165-0.0029-0.0015-6e-3 -0.0015-0.0089-0.0029l2.1195-2.124c1.317-1.6965 2.154-3.717 2.4255-5.847l-0.0029-3c-0.2671-2.1332-1.1026-4.1567-2.4181-5.8562l-0.0029 6e-3 -2.121-2.118c-1.698-1.3185-3.72-2.1555-5.853-2.4255z" fill="#3d3d3d"/>
  <path d="m35.261 29.391c-0.5025 0.0045-1.0035 0.0405-1.5 0.108v2.892h3v-2.895c-0.498-0.066-0.999-0.102-1.5-0.105m-7.35 2.529c-0.399 0.3045-0.777 0.6345-1.134 0.987-0.351 0.3585-0.681 0.738-0.984 1.137l2.0445 2.0445 2.121-2.121zm14.699 3e-3 -2.0445 2.0445 2.121 2.121 2.0475-2.0475c-0.3045-0.399-0.6345-0.777-0.987-1.134-0.3585-0.351-0.738-0.681-1.137-0.984zm-19.242 7.968c-0.066 0.498-0.102 0.999-0.105 1.5 0.0045 0.5025 0.04051 1.0035 0.108 1.5h2.892v-3zm20.895 0v3h2.895c0.066-0.498 0.102-0.999 0.105-1.5-0.0045-0.5025-0.0405-1.0035-0.108-1.5h-2.892m-16.424 6.8025-2.0475 2.0475c0.3045 0.399 0.6345 0.777 0.987 1.134 0.3585 0.351 0.738 0.681 1.137 0.984l2.0445-2.0445zm14.847 0-2.121 2.121 2.0475 2.0475c0.399-0.3045 0.777-0.6345 1.134-0.987 0.351-0.3585 0.681-0.738 0.984-1.137zm-8.9235 3.6975v2.895c0.498 0.066 0.999 0.102 1.5 0.105 0.5025-0.0045 1.0035-0.04051 1.5-0.108v-2.892z" fill="#f2f2f2"/>
  <path d="m35.261 30.891 3.75 8.25h-7.5z" fill="#f93d47"/>
  <circle cx="35.261" cy="41.391" r="4.5" fill="#b4b4b4"/>
 </g>
</svg>
