<svg id="SimpleNote" width="64" height="64" enable-background="new 0 0 1024 1024" image-rendering="optimizeSpeed" version="1.1" viewBox="0 0 64 64" xmlns="http://www.w3.org/2000/svg" xmlns:xlink="http://www.w3.org/1999/xlink">
 <path d="m58.182 25.136c-0.06292-0.24884-0.13443-0.51483-0.20879-0.77797-0.0572-0.19449-0.11441-0.39184-0.18019-0.60066-0.091531-0.2946-0.19449-0.60065-0.30318-0.9067-0.36896-1.0439-0.80941-2.0622-1.3243-3.069-0.21738-0.42331-0.45477-0.8552-0.7036-1.2813-1.1612-1.9735-2.6199-3.8441-4.3675-5.5916-4.153-4.153-8.9892-6.673-14.51-7.5539-0.92956-0.14873-1.8763-0.25169-2.8631-0.30604-0.55487-0.031462-1.1355-0.048622-1.7218-0.048622-0.53485 0-1.064 0.014301-1.596 0.042903-6.7702 0.34894-12.602 2.9717-17.495 7.8654q-7.9083 7.9083-7.9083 19.091c0 7.4567 2.6371 13.823 7.9083 19.094 3.2434 3.2406 6.896 5.4858 10.932 6.7245 2.1022 0.64353 4.2788 1.0211 6.5639 1.1412h0.02288c0.48623 0.02574 0.94957 0.04004 1.4015 0.04004h0.17161c0.58922 0 1.1727-0.01716 1.7218-0.04576 0.14301-0.0085 0.27172-0.01716 0.39756-0.02574 1.1555-0.08294 2.2824-0.23168 3.3578-0.44046 0.45477-0.08866 0.90384-0.18877 1.3386-0.2946 4.622-1.1612 8.7034-3.5237 12.279-7.0989 2.7801-2.7801 4.828-5.8631 6.1409-9.2556 1.0554-2.7258 1.6389-5.6517 1.7475-8.7806 0.011441-0.34608 0.017161-0.70074 0.017161-1.0583v-0.17161c-0.01144-2.3253-0.28316-4.5477-0.81798-6.6931z" fill="#fff" stroke="#000" stroke-opacity=".13725"/>
 <path d="m58.182 25.136c-0.06292-0.24884-0.13443-0.51483-0.20879-0.77797-0.0572-0.19449-0.11441-0.39184-0.18019-0.60066-0.091531-0.2946-0.19449-0.60065-0.30318-0.9067-0.36896-1.0439-0.80941-2.0622-1.3243-3.069-0.21738-0.42331-0.45477-0.8552-0.7036-1.2813-1.1612-1.9735-2.6199-3.8441-4.3675-5.5916-4.153-4.153-8.9892-6.673-14.51-7.5539-0.92956-0.14873-1.8763-0.25169-2.8631-0.30604-0.55487-0.031462-1.1355-0.048622-1.7218-0.048622-0.53485 0-1.064 0.014301-1.596 0.042903-6.7702 0.34894-12.602 2.9717-17.495 7.8654q-7.9083 7.9083-7.9083 19.091c0 7.4567 2.6371 13.823 7.9083 19.094 3.2434 3.2406 6.896 5.4858 10.932 6.7245 2.1022 0.64353 4.2788 1.0211 6.5639 1.1412h0.02288c0.48623 0.02574 0.94957 0.04004 1.4015 0.04004h0.17161c0.58922 0 1.1727-0.01716 1.7218-0.04576 0.14301-0.0085 0.27172-0.01716 0.39756-0.02574 1.1555-0.08294 2.2824-0.23168 3.3578-0.44046 0.45477-0.08866 0.90384-0.18877 1.3386-0.2946 4.622-1.1612 8.7034-3.5237 12.279-7.0989 2.7801-2.7801 4.828-5.8631 6.1409-9.2556 1.0554-2.7258 1.6389-5.6517 1.7475-8.7806 0.011441-0.34608 0.017161-0.70074 0.017161-1.0583v-0.17161c-0.01144-2.3253-0.28316-4.5477-0.81798-6.6931z" fill="#f9f9f9" stroke-width=".99684"/>
 <g transform="matrix(.63376 0 0 .63861 15.999 15.878)" fill="#333" stroke-width="15.939">
  <g fill="#333" stroke-width="15.939">
   <g fill="#333" stroke-width="15.939">
    <g fill="#333" stroke-width="15.939">
     <path transform="matrix(1.5466 0 0 1.5466 -24.588 -24.977)" d="m30.955 16.273c-8.4053 0.50367-15.057 7.5767-15.057 16.201 0 8.951 7.3836 16.197 16.334 16.197 8.6846 0 15.898-7.0673 16.312-15.473h-3.8984c-0.41186 6.4656-5.7693 11.596-12.312 11.596-6.8115-6.47e-4 -12.557-5.527-12.557-12.338 0-6.4837 5.3587-11.787 11.178-12.285zm1.9414 0v3.8965c3.2328 0.20561 5.1376 1.2338 7.0508 2.8359l2.8496-2.75c-2.6263-2.2966-6.021-3.7632-9.9004-3.9824zm11.49 5.3066-2.7559 2.7383c1.6591 1.9009 2.7517 4.3552 2.998 6.9414h3.8926c-0.26121-3.8794-1.778-7.0676-4.1348-9.6797zm-4.959 3.6211-8.2168 5.0391 0.0078 0.0078c-0.78169 0.44031-1.3164 1.2671-1.3164 2.2266 0 1.4153 1.1491 2.5645 2.5645 2.5645 0.99441 0 1.8474-0.57213 2.2734-1.3984l0.0059 0.0059z" fill="#333" stroke-width="10.306"/>
    </g>
   </g>
  </g>
 </g>
</svg>
