<?xml version="1.0" encoding="UTF-8" standalone="no"?>
<!-- Created with Inkscape (http://www.inkscape.org/) -->

<svg
   xmlns:dc="http://purl.org/dc/elements/1.1/"
   xmlns:cc="http://creativecommons.org/ns#"
   xmlns:rdf="http://www.w3.org/1999/02/22-rdf-syntax-ns#"
   xmlns:svg="http://www.w3.org/2000/svg"
   xmlns="http://www.w3.org/2000/svg"
   xmlns:sodipodi="http://sodipodi.sourceforge.net/DTD/sodipodi-0.dtd"
   xmlns:inkscape="http://www.inkscape.org/namespaces/inkscape"
   width="64"
   height="64"
   viewBox="0 0 16.933333 16.933333"
   version="1.1"
   id="svg4572"
   inkscape:version="0.92.4 5da689c313, 2019-01-14"
   sodipodi:docname="gnome-twitch.svg">
  <title
     id="title4611">Canvas icon theme</title>
  <defs
     id="defs4566" />
  <sodipodi:namedview
     id="base"
     pagecolor="#ffffff"
     bordercolor="#666666"
     borderopacity="1.0"
     inkscape:pageopacity="0.0"
     inkscape:pageshadow="2"
     inkscape:zoom="8"
     inkscape:cx="24.986249"
     inkscape:cy="36.804081"
     inkscape:document-units="px"
     inkscape:current-layer="layer1"
     showgrid="true"
     units="px"
     width="64px"
     showguides="true"
     inkscape:guide-bbox="true"
     inkscape:window-width="1155"
     inkscape:window-height="784"
     inkscape:window-x="955"
     inkscape:window-y="427"
     inkscape:window-maximized="0"
     inkscape:snap-bbox="true"
     inkscape:bbox-nodes="true"
     inkscape:snap-bbox-edge-midpoints="false"
     inkscape:snap-nodes="true"
     inkscape:snap-intersection-paths="true"
     inkscape:snap-smooth-nodes="true"
     inkscape:object-paths="true"
     inkscape:snap-object-midpoints="true"
     inkscape:snap-global="true">
    <inkscape:grid
       type="xygrid"
       id="grid4582" />
    <sodipodi:guide
       position="1.0583333,15.875"
       orientation="0,1"
       id="guide4584"
       inkscape:locked="false" />
    <sodipodi:guide
       position="1.0583333,1.0583333"
       orientation="1,0"
       id="guide4586"
       inkscape:locked="false" />
    <sodipodi:guide
       position="15.875,15.875"
       orientation="1,0"
       id="guide4588"
       inkscape:locked="false" />
    <sodipodi:guide
       position="1.0583333,1.0583333"
       orientation="0,1"
       id="guide4590"
       inkscape:locked="false" />
    <sodipodi:guide
       position="8.4666665,8.4666665"
       orientation="0,1"
       id="guide822"
       inkscape:locked="false" />
    <sodipodi:guide
       position="8.4666665,8.4666665"
       orientation="1,0"
       id="guide824"
       inkscape:locked="false" />
    <sodipodi:guide
       position="7.4083332,11.1125"
       orientation="1,0"
       id="guide843"
       inkscape:locked="false" />
  </sodipodi:namedview>
  <metadata
     id="metadata4569">
    <rdf:RDF>
      <cc:Work
         rdf:about="">
        <dc:format>image/svg+xml</dc:format>
        <dc:type
           rdf:resource="http://purl.org/dc/dcmitype/StillImage" />
        <dc:title>Canvas icon theme</dc:title>
        <cc:license
           rdf:resource="http://creativecommons.org/licenses/by-nc-sa/4.0/" />
        <dc:creator>
          <cc:Agent>
            <dc:title>Vince Liuice</dc:title>
          </cc:Agent>
        </dc:creator>
      </cc:Work>
      <cc:License
         rdf:about="http://creativecommons.org/licenses/by-nc-sa/4.0/">
        <cc:permits
           rdf:resource="http://creativecommons.org/ns#Reproduction" />
        <cc:permits
           rdf:resource="http://creativecommons.org/ns#Distribution" />
        <cc:requires
           rdf:resource="http://creativecommons.org/ns#Notice" />
        <cc:requires
           rdf:resource="http://creativecommons.org/ns#Attribution" />
        <cc:prohibits
           rdf:resource="http://creativecommons.org/ns#CommercialUse" />
        <cc:permits
           rdf:resource="http://creativecommons.org/ns#DerivativeWorks" />
        <cc:requires
           rdf:resource="http://creativecommons.org/ns#ShareAlike" />
      </cc:License>
    </rdf:RDF>
  </metadata>
  <g
     inkscape:label="Layer 1"
     inkscape:groupmode="layer"
     id="layer1"
     transform="translate(0,-280.06667)">
    <path
       style="opacity:1;fill:#4d4d4d;fill-opacity:1;stroke:none;stroke-width:0.52916664;stroke-miterlimit:4;stroke-dasharray:none;stroke-opacity:0.05882353;paint-order:markers stroke fill"
       d="m 6.0854166,281.91876 c -0.1465935,0 -0.2645833,0.11799 -0.2645833,0.26458 v 5.29167 c 0,0.14659 0.1179898,0.26458 0.2645833,0.26458 H 10.16217 l 1.479497,1.31516 c 0.190169,0.0393 0.264583,-0.0703 0.264583,-0.26458 v -1.05058 h 3.175 c 0.146593,0 0.264583,-0.11799 0.264583,-0.26458 v -5.29167 c 0,-0.14659 -0.11799,-0.26458 -0.264583,-0.26458 z"
       id="rect822"
       inkscape:connector-curvature="0" />
    <path
       d="m 10.296003,282.82282 c -0.24421,2.6e-4 -0.5199059,0.0661 -0.8138581,0.20717 -0.824442,0.39555 -0.844814,1.2147 -0.724958,2.96783 0.02831,0.37227 -0.180446,0.64876 -0.488421,1.05833 l 0.223837,0.26459 0.246063,-0.26459 c 0.03519,-0.0683 0.07461,-0.13467 0.119327,-0.19843 0.175419,-0.24713 0.177271,-0.26062 0.177271,-0.42466 0.0053,-0.30507 0.01455,-0.43498 0.118798,-0.54663 -0.05371,-0.0662 -0.118004,-0.13811 -0.120386,-0.21802 -0.0058,-0.14075 0.08705,-0.21219 0.210344,-0.30638 -0.100012,-0.11272 -0.22225,-0.24183 -0.22225,-0.50165 0,-0.32835 0.15875,-0.59532 0.360098,-0.59532 0.201348,0 0.4553482,0.22252 0.4553482,0.55087 0,0.0691 -0.01693,0.13784 -0.03731,0.20399 0.13626,-0.0275 0.2876019,-0.0439 0.4413249,-0.0156 -0.01455,-0.0571 -0.0217,-0.11589 -0.0217,-0.17515 -2.65e-4,-0.35799 0.259292,-0.68395 0.579173,-0.68342 0.319616,5.3e-4 0.578644,0.32596 0.578379,0.68342 0,0.1987 -0.08202,0.38576 -0.221721,0.50852 0.10795,0.0489 0.185738,0.11325 0.1778,0.21961 -0.0085,0.12435 -0.06509,0.26273 -0.108744,0.33496 0.08176,0.10054 0.116417,0.24712 0.288132,0.50006 0.155839,0.22437 0.203729,0.41011 0.295539,0.66411 l 0.547423,0.13229 0.360098,-0.65114 c -0.221192,-0.30612 -0.400315,-0.62733 -0.489479,-1.08056 -0.194998,-0.99192 0.104775,-1.26206 -0.534458,-2.09867 -0.338138,-0.44265 -0.970227,-0.53631 -1.395677,-0.53526 m 0.483129,1.75181 c -0.166159,2.7e-4 -0.300302,0.15399 -0.300302,0.34369 0,0.0746 0.02117,0.14711 0.06059,0.20664 0.05345,0.031 0.103981,0.0558 0.160602,0.0717 0.0553,0.0167 0.111125,0.0339 0.170127,0.0492 0.125412,-0.045 0.210608,-0.1778 0.210873,-0.32756 0,-0.18997 -0.135202,-0.34395 -0.30189,-0.34369 z m -1.3848291,0.0169 v 5.3e-4 c -0.0077,-2.6e-4 -0.01561,0 -0.02328,5.3e-4 -0.123825,0.0127 -0.207434,0.17648 -0.187061,0.36539 0.01561,0.14314 0.08758,0.26459 0.180975,0.3048 0.0725,-0.0611 0.165894,-0.14155 0.258498,-0.19023 0.01164,-0.0508 0.01482,-0.10637 0.0087,-0.16166 -0.01878,-0.17595 -0.121179,-0.3138 -0.237596,-0.31936 z"
       style="opacity:1;fill:#ffffff;fill-opacity:1;stroke:none;stroke-width:0.26458332"
       id="path29"
       inkscape:connector-curvature="0" />
    <rect
       style="opacity:1;fill:#7a59b5;fill-opacity:1;stroke:none;stroke-width:0.37177065;stroke-miterlimit:4;stroke-dasharray:none;stroke-opacity:0.05882353;paint-order:stroke markers fill"
       id="rect821"
       width="11.641666"
       height="7.4083204"
       x="1.5874999"
       y="285.88751"
       ry="0.2645784" />
    <path
       style="opacity:1;fill:#7a59b5;fill-opacity:1;stroke:none;stroke-width:0.52916664;stroke-miterlimit:4;stroke-dasharray:none;stroke-opacity:0.03921569;paint-order:markers stroke fill"
       d="m 4.2333425,290.64206 h 2.9103981 c 0.1465843,0 0.3035134,0.12327 0.2645926,0.2646 l -0.5086473,1.84699 c -0.038918,0.14132 -0.1755442,0.17229 -0.2851027,0.26967 l -2.38125,2.11667 c -0.1901692,0.0393 -0.2645833,-0.0703 -0.2645833,-0.2646 v -3.96873 c 0,-0.14659 0.1180083,-0.2646 0.2645926,-0.2646 z"
       id="rect824"
       inkscape:connector-curvature="0"
       sodipodi:nodetypes="ssssscsss" />
    <g
       id="g841"
       transform="translate(-0.26458309,-0.26459239)">
      <rect
         ry="0"
         rx="0"
         y="288.26877"
         x="5.8208332"
         height="3.175"
         width="1.0583333"
         id="rect835"
         style="opacity:1;fill:#ffffff;fill-opacity:1;stroke:none;stroke-width:3.76539731;stroke-linecap:round;stroke-linejoin:round;stroke-miterlimit:4;stroke-dasharray:none;stroke-opacity:0.09803922;paint-order:stroke fill markers" />
      <rect
         style="opacity:1;fill:#ffffff;fill-opacity:1;stroke:none;stroke-width:3.76539731;stroke-linecap:round;stroke-linejoin:round;stroke-miterlimit:4;stroke-dasharray:none;stroke-opacity:0.09803922;paint-order:stroke fill markers"
         id="rect837"
         width="1.0583333"
         height="3.175"
         x="8.4666662"
         y="288.26877"
         rx="0"
         ry="0" />
    </g>
  </g>
</svg>
