<svg xmlns="http://www.w3.org/2000/svg" width="64" height="64" viewBox="0 0 16.933 16.933"><path fill="#ebebeb" d="M14.658 2.138v9.906a.55.55 0 0 1-.55.55H6.265a.55.55 0 0 1-.55-.55V2.138a.55.55 0 0 1 .55-.55h7.843a.55.55 0 0 1 .55.55z"/><g fill="#3f3f3f" stroke-width=".769"><path d="M10.186 4.349A1.338 1.338 0 0 0 8.85 5.686a1.338 1.338 0 0 0 .183.672A1.338 1.338 0 0 0 7.78 7.693 1.338 1.338 0 0 0 9.116 9.03a1.338 1.338 0 0 0 1.07-.537 1.338 1.338 0 0 0 1.07.537 1.338 1.338 0 0 0 1.338-1.337 1.338 1.338 0 0 0-1.253-1.334 1.338 1.338 0 0 0 .183-.673 1.338 1.338 0 0 0-1.338-1.337z"/><path fill-rule="evenodd" d="M10.53 8.467h-.688s0 1.032-1.031 1.032v.344h2.751v-.344c-1.032 0-1.032-1.032-1.032-1.032z"/></g><path fill="#fff" stroke="#000" stroke-opacity=".098" stroke-width=".265" d="M11.218 4.89v9.906a.55.55 0 0 1-.55.55H2.826a.55.55 0 0 1-.55-.55V4.89a.55.55 0 0 1 .55-.55h7.842a.55.55 0 0 1 .55.55z" paint-order="stroke fill markers"/><path fill="#fff" d="M11.218 4.89v9.906a.55.55 0 0 1-.55.55H2.826a.55.55 0 0 1-.55-.55V4.89a.55.55 0 0 1 .55-.55h7.842a.55.55 0 0 1 .55.55z" paint-order="stroke fill markers"/><path fill="#f34235" d="M7.8 7.779c-.428 0-.805.202-1.053.512a1.346 1.346 0 0 0-1.053-.512c-.749 0-1.355.606-1.355 1.354 0 .015.004.03.005.044h-.005c0 1.389 2.408 3.417 2.408 3.417s2.408-2.028 2.408-3.417H9.15c0-.015.005-.029.005-.044 0-.748-.607-1.354-1.355-1.354z"/></svg>