<?xml version="1.0" encoding="UTF-8" standalone="no"?>
<!-- Created with Inkscape (http://www.inkscape.org/) -->

<svg
   xmlns:dc="http://purl.org/dc/elements/1.1/"
   xmlns:cc="http://creativecommons.org/ns#"
   xmlns:rdf="http://www.w3.org/1999/02/22-rdf-syntax-ns#"
   xmlns:svg="http://www.w3.org/2000/svg"
   xmlns="http://www.w3.org/2000/svg"
   xmlns:sodipodi="http://sodipodi.sourceforge.net/DTD/sodipodi-0.dtd"
   xmlns:inkscape="http://www.inkscape.org/namespaces/inkscape"
   width="64"
   height="64"
   viewBox="0 0 16.933333 16.933333"
   version="1.1"
   id="svg4572"
   inkscape:version="0.92.4 (5da689c313, 2019-01-14)"
   sodipodi:docname="gnome-freecell.svg">
  <title
     id="title4611">Canvas icon theme</title>
  <defs
     id="defs4566" />
  <sodipodi:namedview
     id="base"
     pagecolor="#ffffff"
     bordercolor="#666666"
     borderopacity="1.0"
     inkscape:pageopacity="0.0"
     inkscape:pageshadow="2"
     inkscape:zoom="5.6"
     inkscape:cx="15.566294"
     inkscape:cy="21.423546"
     inkscape:document-units="px"
     inkscape:current-layer="layer1"
     showgrid="false"
     units="px"
     width="64px"
     showguides="true"
     inkscape:guide-bbox="true"
     inkscape:window-width="1366"
     inkscape:window-height="712"
     inkscape:window-x="0"
     inkscape:window-y="30"
     inkscape:window-maximized="1"
     inkscape:snap-bbox="true"
     inkscape:bbox-nodes="true"
     inkscape:snap-bbox-edge-midpoints="true">
    <inkscape:grid
       type="xygrid"
       id="grid4582" />
    <sodipodi:guide
       position="1.0583333,15.875"
       orientation="0,1"
       id="guide4584"
       inkscape:locked="false" />
    <sodipodi:guide
       position="1.0583333,1.0583333"
       orientation="1,0"
       id="guide4586"
       inkscape:locked="false" />
    <sodipodi:guide
       position="15.875,15.875"
       orientation="1,0"
       id="guide4588"
       inkscape:locked="false" />
    <sodipodi:guide
       position="1.0583333,1.0583333"
       orientation="0,1"
       id="guide4590"
       inkscape:locked="false" />
  </sodipodi:namedview>
  <metadata
     id="metadata4569">
    <rdf:RDF>
      <cc:Work
         rdf:about="">
        <dc:format>image/svg+xml</dc:format>
        <dc:type
           rdf:resource="http://purl.org/dc/dcmitype/StillImage" />
        <dc:title>Canvas icon theme</dc:title>
        <cc:license
           rdf:resource="http://creativecommons.org/licenses/by-nc-sa/4.0/" />
        <dc:creator>
          <cc:Agent>
            <dc:title>Vince Liuice</dc:title>
          </cc:Agent>
        </dc:creator>
      </cc:Work>
      <cc:License
         rdf:about="http://creativecommons.org/licenses/by-nc-sa/4.0/">
        <cc:permits
           rdf:resource="http://creativecommons.org/ns#Reproduction" />
        <cc:permits
           rdf:resource="http://creativecommons.org/ns#Distribution" />
        <cc:requires
           rdf:resource="http://creativecommons.org/ns#Notice" />
        <cc:requires
           rdf:resource="http://creativecommons.org/ns#Attribution" />
        <cc:prohibits
           rdf:resource="http://creativecommons.org/ns#CommercialUse" />
        <cc:permits
           rdf:resource="http://creativecommons.org/ns#DerivativeWorks" />
        <cc:requires
           rdf:resource="http://creativecommons.org/ns#ShareAlike" />
      </cc:License>
    </rdf:RDF>
  </metadata>
  <g
     inkscape:label="Layer 1"
     inkscape:groupmode="layer"
     id="layer1"
     transform="translate(0,-280.06667)">
    <path
       style="display:inline;fill:#ebebeb;fill-opacity:1;stroke:none;stroke-width:0.26458332;enable-background:new"
       d="m 14.657919,282.2045 v 9.90598 c 0,0.30489 -0.245449,0.55033 -0.550335,0.55033 H 6.2653317 c -0.3048839,0 -0.5503331,-0.24544 -0.5503331,-0.55033 v -9.90598 c 0,-0.30488 0.2454492,-0.55033 0.5503331,-0.55033 h 7.8422523 c 0.304886,0 0.550335,0.24545 0.550335,0.55033 z"
       id="rect4203"
       inkscape:connector-curvature="0"
       sodipodi:nodetypes="sssssssss" />
    <g
       style="display:inline;stroke-width:0.76923054;enable-background:new"
       transform="matrix(0.0334404,0,0,0.0334404,-3.4572273,284.95043)"
       id="g4876">
      <path
         inkscape:connector-curvature="0"
         style="opacity:1;fill:#3f3f3f;fill-opacity:1;stroke:none;stroke-width:1.53846109;stroke-linecap:round;stroke-linejoin:round;stroke-miterlimit:4;stroke-dasharray:none;stroke-opacity:1"
         d="m 408,228 a 40,40 0 0 0 -40,40 40,40 0 0 0 5.46875,20.08984 A 40,40 0 0 0 336,328 40,40 0 0 0 376,368 40,40 0 0 0 407.99414,351.92578 40,40 0 0 0 440,368 40,40 0 0 0 480,328 40,40 0 0 0 442.52148,288.125 40,40 0 0 0 448,268 40,40 0 0 0 408,228 Z"
         id="path4878"
         transform="translate(0,-244)" />
      <path
         style="opacity:1;fill:#3f3f3f;fill-opacity:1;fill-rule:evenodd;stroke:none;stroke-width:0.76923054px;stroke-linecap:butt;stroke-linejoin:miter;stroke-opacity:1"
         d="m 418.28576,107.14331 h -20.57143 c 0,0 0,30.85714 -30.85714,30.85714 v 10.28571 h 82.28571 v -10.28571 c -30.85714,0 -30.85714,-30.85714 -30.85714,-30.85714 z"
         id="path4880"
         inkscape:connector-curvature="0"
         sodipodi:nodetypes="ccccccc" />
    </g>
    <path
       style="display:inline;fill:#ffffff;fill-opacity:1;stroke:#000000;stroke-width:0.52916664;stroke-miterlimit:4;stroke-dasharray:none;stroke-opacity:0.09803922;paint-order:stroke fill markers;enable-background:new"
       d="m 11.218333,284.9562 v 9.90597 c 0,0.30489 -0.245447,0.55033 -0.550333,0.55033 H 2.825748 c -0.3048848,0 -0.5503336,-0.24544 -0.5503336,-0.55033 v -9.90597 c 0,-0.30488 0.2454488,-0.55033 0.5503336,-0.55033 H 10.668 c 0.304886,0 0.550333,0.24545 0.550333,0.55033 z"
       id="rect3552"
       inkscape:connector-curvature="0"
       sodipodi:nodetypes="sssssssss" />
    <path
       sodipodi:nodetypes="sssssssss"
       inkscape:connector-curvature="0"
       id="path914"
       d="m 11.218333,284.9562 v 9.90597 c 0,0.30489 -0.245447,0.55033 -0.550333,0.55033 H 2.825748 c -0.3048848,0 -0.5503336,-0.24544 -0.5503336,-0.55033 v -9.90597 c 0,-0.30488 0.2454488,-0.55033 0.5503336,-0.55033 H 10.668 c 0.304886,0 0.550333,0.24545 0.550333,0.55033 z"
       style="display:inline;fill:#ffffff;fill-opacity:1;stroke:none;stroke-width:0.52916664;stroke-miterlimit:4;stroke-dasharray:none;stroke-opacity:0.09803922;paint-order:stroke fill markers;enable-background:new" />
    <path
       sodipodi:nodetypes="ccsscccccsc"
       id="path4834"
       d="m 7.8002473,287.84544 c -0.4280849,0 -0.8051526,0.20251 -1.0533734,0.51257 -0.2482208,-0.31006 -0.6252924,-0.51257 -1.0533721,-0.51257 -0.7480069,0 -1.3543368,0.60633 -1.3543368,1.35434 0,0.0149 0.00395,0.0291 0.00441,0.0441 h -0.00441 c 0,1.38841 2.4077089,3.41698 2.4077089,3.41698 0,0 2.4077086,-2.02857 2.4077086,-3.41698 h -0.00442 c 3.029e-4,-0.0151 0.00442,-0.0291 0.00442,-0.0441 0,-0.74801 -0.6063292,-1.35434 -1.3543352,-1.35434 z"
       style="display:inline;fill:#f34235;fill-opacity:1;stroke-width:0.26458332;enable-background:new"
       inkscape:connector-curvature="0" />
  </g>
</svg>
