<svg width="64" height="64" version="1.1" viewBox="0 0 16.933 16.933" xmlns="http://www.w3.org/2000/svg">
 <defs>
  <linearGradient id="h" x1=".639" x2=".639" y1=".99" y2=".033" gradientTransform="matrix(38.364 0 0 28.735 -6.1952 -5.6142)" gradientUnits="userSpaceOnUse">
   <stop stop-color="#fcfafb" offset=".02174"/>
   <stop stop-color="#f0dfe5" offset="1"/>
  </linearGradient>
 </defs>
 <circle cx="8.4665" cy="8.46" r="7.1436" fill="#f88e45" style="paint-order:stroke markers fill"/>
 <circle cx="8.4665" cy="8.46" r="6.0853" fill="#fff" opacity=".1" style="paint-order:stroke markers fill"/>
 <g transform="matrix(.22069 0 0 .22069 5.6005 6.5347)" stroke-width="1.1989">
  <path d="m32.169 15.448v-12.563c0-1.6846-0.31802-2.8966-0.93846-3.6353-0.59107-0.70933-1.743-1.0729-3.4572-1.0729h-4.0708l-5.3688-3.7901-5.3691 3.7901h-14.764c-1.7139 0-2.8659 0.36353-3.457 1.0729-0.6207 0.7387-0.93846 1.9507-0.93846 3.6353v12.563z" fill="#fff" opacity=".5" style="isolation:isolate"/>
  <path d="m27.773 23.12c1.7142 0.02143 2.8659-0.38311 3.457-1.0924 0.6207-0.73897 0.93872-1.951 0.93872-3.6356v-14.917l-8.4665-5.2995-5.3691-3.7898-5.3688 3.7898-19.159 14.548v5.6683c0 1.6846 0.31802 2.8966 0.93872 3.6356 0.59107 0.70933 1.7425 1.0924 3.4567 1.0924z" fill="url(#h)" style="isolation:isolate"/>
  <path d="m24.496 15.448v-1.9182h-23.018v1.9182zm0-5.7546v-1.9182h-11.509v1.9182z" fill="#e67f54" style="isolation:isolate"/>
  <path d="m27.773 23.12c1.7142 0.02143 2.8662-0.38337 3.4572-1.0927 0.62044-0.7387 0.93846-1.951 0.93846-3.6356v-0.47942c0 1.6846-0.31802 2.8966-0.93846 3.6356-0.59107 0.70907-1.743 1.1139-3.4572 1.0924h-29.573c-1.7139 0-2.8659-0.38337-3.457-1.0924-0.6207-0.73897-0.93846-1.951-0.93846-3.6356v0.47942c0 1.6848 0.31776 2.8969 0.93846 3.6356 0.59107 0.70933 1.743 1.0927 3.457 1.0927z" fill="#fff" style="isolation:isolate"/>
 </g>
</svg>
