<svg width="64" height="64" version="1.1" viewBox="0 0 16.933 16.933" xmlns="http://www.w3.org/2000/svg">
 <path d="m8.5145 3.1397-5.59 5.591 1.58 1.581 5.592-5.59z" fill="none" font-weight="400" overflow="visible" stroke="#f5ce17" stroke-width="1.058" style="font-feature-settings:normal;font-variant-alternates:normal;font-variant-caps:normal;font-variant-ligatures:normal;font-variant-numeric:normal;font-variant-position:normal;isolation:auto;mix-blend-mode:normal;shape-padding:0;text-decoration-color:#000000;text-decoration-line:none;text-decoration-style:solid;text-indent:0;text-orientation:mixed;text-transform:none;white-space:normal"/>
 <path d="m1.058 14.287h6.615v1.059h-6.615z" fill="#424048"/>
 <path d="m2.712 7.9815v4.41c0 0.609-0.494 1.102-1.102 1.102h-0.552v1.0585h6.615v-1.0585h-0.551c-0.60901 5.53e-4 -1.103-0.49299-1.103-1.102v-4.41z" fill="#808080" font-weight="400" overflow="visible" style="font-feature-settings:normal;font-variant-alternates:normal;font-variant-caps:normal;font-variant-ligatures:normal;font-variant-numeric:normal;font-variant-position:normal;isolation:auto;mix-blend-mode:normal;shape-padding:0;text-decoration-color:#000000;text-decoration-line:none;text-decoration-style:solid;text-indent:0;text-orientation:mixed;text-transform:none;white-space:normal"/>
 <path d="m1.058 13.493h6.615v1.059h-6.615z" fill="#68676b"/>
 <path d="m10.842 10.588 2.236-2.236 2.237 2.236" fill="none" stroke="#424048" stroke-width="1.0583"/>
 <path d="m15.035 9.471a0.84 0.84 0 0 1 0.839 0.839v1.677l-0.839 0.84h-0.838v-2.517c0-0.463 0.375-0.839 0.838-0.839z" fill="#7a8599"/>
 <path d="m8.654 3.088-5.59 5.592 1.58 1.58 5.592-5.59z" fill="none" font-weight="400" overflow="visible" style="font-feature-settings:normal;font-variant-alternates:normal;font-variant-caps:normal;font-variant-ligatures:normal;font-variant-numeric:normal;font-variant-position:normal;isolation:auto;mix-blend-mode:normal;shape-padding:0;text-decoration-color:#000000;text-decoration-line:none;text-decoration-style:solid;text-indent:0;text-orientation:mixed;text-transform:none;white-space:normal"/>
 <circle cx="4.498" cy="8.731" r="3.175" fill="#f9f06b"/>
 <path d="M 13.672,8.632 9.2,4.159" fill="#424048" stroke="#424048" stroke-width="1.058"/>
 <circle cx="9.128" cy="4.101" r="2.514" fill="#f9f06b"/>
 <circle cx="12.965" cy="8.202" r="1.587" fill="#f9f06b"/>
 <circle cx="9.128" cy="4.101" r="1.455" fill="#4a4850"/>
 <circle cx="4.498" cy="8.731" r="1.852" fill="#4a4850"/>
 <circle cx="4.498" cy="8.731" r="1.058" fill="#1a1723"/>
 <circle cx="9.128" cy="4.101" r=".661" fill="#1a1723"/>
 <circle cx="12.965" cy="8.202" r="1.058" fill="#4a4850"/>
 <circle cx="12.965" cy="8.202" r=".529" fill="#1a1723"/>
 <circle cx="15.035" cy="10.31" r=".28" fill="#2e3436"/>
 <path d="m11.121 9.471a0.839 0.839 0 0 0-0.838 0.839v1.677l0.838 0.84h0.84v-2.517a0.839 0.839 0 0 0-0.84-0.839z" fill="#7a8599"/>
 <circle transform="scale(-1,1)" cx="-11.121" cy="10.31" r=".28" fill="#2e3436"/>
</svg>
