<svg xmlns="http://www.w3.org/2000/svg" width="64" height="64" viewBox="0 0 16.933 16.933"><g transform="translate(0 -280.07)"><circle cx="8.466" cy="288.53" r="7.144" fill="#3a3a3a" style="paint-order:stroke markers fill"/><circle cx="8.467" cy="288.53" r="5.821" fill="#fff" opacity=".1" paint-order="stroke markers fill"/><path fill="#fff" d="M8.45 284.3c-.301 0-.493.221-.512.513v.595c.027.267.255.48.529.48a.5.5 0 0 0 .198-.034.54.54 0 0 0 .33-.446v-.579a.54.54 0 0 0-.545-.529m-1.025 1.24a3.3 3.3 0 0 0-.96.546 1 1 0 0 1 .298.33c.003.004-.002.013 0 .017a1 1 0 0 1 .083.199v.016a1 1 0 0 1 .017.43c-.013.064-.042.124-.066.182a.95.95 0 0 1-.877.595.9.9 0 0 1-.496-.149c-.021.06-.053.118-.066.182v.017c-.02.098-.04.196-.05.297v.017c-.01.102-.016.21-.016.314v.033c0 .099.007.202.016.298v.033q.018.142.05.281c.018.092.04.177.066.265a1.3 1.3 0 0 1 .562-.166c.192-.01.37.046.513.15a.9.9 0 0 1 .314.412 1 1 0 0 1 .066.38c0 .269-.22.622-.38.795.065.05.128.102.198.148.084.056.16.118.248.166.126.068.262.13.397.182.026.01.055.012.083.016a.6.6 0 0 1-.017-.116c0-.42.474-.76 1.059-.76.584 0 1.058.34 1.058.76 0 .038-.01.08-.017.116q.242-.082.463-.198c.113-.06.21-.127.315-.199.032-.022.068-.042.099-.066.025-.018.042-.046.066-.066a1 1 0 0 1-.182-.182.9.9 0 0 1-.182-.397 1 1 0 0 1-.016-.198c0-.129.029-.255.066-.364.001-.005-.002-.012 0-.017a1 1 0 0 1 .066-.148c.03-.05.062-.09.1-.133.039-.046.084-.079.132-.115a.8.8 0 0 1 .297-.15 1 1 0 0 1 .182-.032c.149-.009.4.051.595.165.024-.083.05-.162.067-.248q.03-.139.05-.281-.002-.017 0-.033a3.3 3.3 0 0 0 0-.662q-.018-.15-.05-.297v-.017c-.015-.07-.043-.133-.067-.198a.87.87 0 0 1-.496.149.94.94 0 0 1-.678-.281 1 1 0 0 1-.115-.15.95.95 0 0 1-.05-.992 1 1 0 0 1 .116-.181 1 1 0 0 1 .165-.15 3.2 3.2 0 0 0-.942-.545c.007.037.016.078.016.116 0 .42-.474.76-1.058.76-.366 0-.686-.128-.877-.33a1 1 0 0 1-.099-.132.6.6 0 0 1-.082-.298c0-.038.009-.08.016-.116m-2.299.364a.55.55 0 0 0-.33.248.54.54 0 0 0 .165.744l.43.265.165.099a.7.7 0 0 0 .215.05.63.63 0 0 0 .414-.166.52.52 0 0 0 .165-.38.55.55 0 0 0-.182-.414l-.198-.115-.447-.265a.5.5 0 0 0-.397-.066m6.483 0a.5.5 0 0 0-.199.066l-.446.265-.199.116-.016.016a.47.47 0 0 0-.166.38.52.52 0 0 0 .166.38.63.63 0 0 0 .628.132l.165-.098.43-.265a.54.54 0 0 0 .166-.744.525.525 0 0 0-.53-.248zm-3.142 1.571a1.058 1.058 0 1 1 0 2.117c-.293 0-.553-.123-.744-.315-.048-.047-.095-.092-.133-.148a1.07 1.07 0 0 1-.182-.596c0-.073.003-.146.017-.215.099-.482.53-.843 1.042-.843m0 .53c-.22 0-.4.14-.48.33a.5.5 0 0 0-.05.198.529.529 0 1 0 .53-.529zm-2.696 1.769c-.123.013-.156.044-.215.066l-.115.066-.43.264a.54.54 0 0 0-.166.745.545.545 0 0 0 .744.181l.43-.264.15-.1a.6.6 0 0 0 .164-.264.3.3 0 0 0 .017-.1.64.64 0 0 0-.165-.413.6.6 0 0 0-.182-.148.46.46 0 0 0-.232-.033m5.408.033a.564.564 0 0 0-.563.562c0 .145.041.25.133.347l.165.116.43.264a.545.545 0 0 0 .744-.181.54.54 0 0 0-.165-.745l-.43-.264c-.038-.022-.074-.047-.116-.066a.6.6 0 0 0-.198-.033m-2.712 1.372a.6.6 0 0 0-.199.033.7.7 0 0 0-.182.116.5.5 0 0 0-.181.33v.581c0 .292.244.529.545.529a.54.54 0 0 0 .546-.53v-.578a.537.537 0 0 0-.53-.48z"/></g></svg>