<svg width="64" height="64" version="1.1" viewBox="0 0 16.933 16.933" xmlns="http://www.w3.org/2000/svg">
 <defs>
  <linearGradient id="f" x1="32" x2="53.891" y1="43.543" y2="43.543" gradientUnits="userSpaceOnUse">
   <stop stop-color="#d1fffa" offset="0"/>
   <stop stop-color="#a1fff5" offset="1"/>
  </linearGradient>
  <linearGradient id="e" x1="10" x2="53.891" y1="32" y2="32" gradientUnits="userSpaceOnUse">
   <stop stop-color="#fff" offset="0"/>
   <stop stop-color="#fff" stop-opacity="0" offset="1"/>
  </linearGradient>
  <linearGradient id="g" x1="32" x2="32" y1="32" y2="6" gradientUnits="userSpaceOnUse">
   <stop stop-color="#fff" offset="0"/>
   <stop stop-color="#fff" offset="1"/>
  </linearGradient>
 </defs>
 <circle cx="8.4665" cy="8.46" r="7.1436" fill="#52cec0" fill-rule="evenodd"/>
 <path transform="scale(.26458)" d="m32.002 9.9746v1.0234h-3.002v-0.79297a22.001 22.001 0 0 0-1 0.14844v0.64453h-2.5527a22.001 22.001 0 0 0-2.6055 1.002h1.1582v3.0059h-2.9961v-2.0547a22.001 22.001 0 0 0-1.002 0.5918v1.4629h-1.9766a22.001 22.001 0 0 0-2.0254 1.9102v2.0566h-1.7148a22.001 22.001 0 0 0-0.70117 1.002h2.416v3.0059h-2.998v-2.0566a22.001 22.001 0 0 0-1.002 1.9414v0.11524h-0.054688a22.001 22.001 0 0 0-0.41602 1.002h0.4707v3.0039h-1.4023a22.001 22.001 0 0 0-0.2168 1.002h1.6191v3.0039h-1.9492a22.001 22.001 0 0 0-0.050781 0.98242 22.001 22.001 0 0 0 0 0.015625c0.006888 2.56e-4 0.012575 0.003907 0.019531 0.003907h1.9805v3.0059h-1.7656a22.001 22.001 0 0 0 0.15039 1h1.6152v2.9668h-0.83008a22.001 22.001 0 0 0 0.33594 1.002h0.49414v1.1055a22.001 22.001 0 0 0 1.5684 2.9023h2.4316v3.0039h-0.066406a22.001 22.001 0 0 0 1.0664 1.0508v-0.048828h3.002v2.4102a22.001 22.001 0 0 0 2.9102 1.5957h1.0879v0.45898a22.001 22.001 0 0 0 1.002 0.36523v-0.82422h2.998v1.6055a22.001 22.001 0 0 0 1 0.15039v-1.7559h3.002v1.9883a22.001 22.001 0 0 0 1.002-0.035156v-1.9531h2.9961v1.6094a22.001 22.001 0 0 0 1.002-0.22461v-1.3848h2.998v0.48047a22.001 22.001 0 0 0 1.002-0.44727v-0.033203h0.072266a22.001 22.001 0 0 0 1.9473-1.002h-2.0195v-3.0039h3v2.4258a22.001 22.001 0 0 0 1.002-0.7168v-1.709h2.0703a22.001 22.001 0 0 0 1.9277-2.0605v-1.9453h1.418a22.001 22.001 0 0 0 0.61328-1.002h-2.0312v-3.0059h2.998v1.125a22.001 22.001 0 0 0 1.002-2.5684v-2.5254h0.61524a22.001 22.001 0 0 0 0.15039-1h-0.76562v-3.0059h1a22.001 22.001 0 0 0 0.001953-0.019532 22.001 22.001 0 0 0-0.035156-0.98242h-0.9668v-3.0039h0.625a22.001 22.001 0 0 0-0.22461-1.002h-0.40039v-1.4961a22.001 22.001 0 0 0-1.002-2.6211v0.11133h-2.998v-3.0059h1.4336a22.001 22.001 0 0 0-0.7168-1.002h-0.7168v-0.94141a22.001 22.001 0 0 0-1.002-1.1406v2.082h-2.9961v-2.9668h2.0938a22.001 22.001 0 0 0-1.1094-1h-0.98438v-0.74805a22.001 22.001 0 0 0-1.002-0.69922v1.4473h-3v-3.0059h0.16602a22.001 22.001 0 0 0-2.5508-1.002h-1.6152v-0.42578a22.001 22.001 0 0 0-1.002-0.2168v0.64258h-2.9961v-0.97266a22.001 22.001 0 0 0-1.002-0.050782zm-7 2.0254h2.998v3.0059h-2.998v-3.0059zm3.998 0h3.002v3.0059h-3.002v-3.0059zm4.0039 0h2.9961v3.0059h-2.9961v-3.0059zm3.998 0h2.998v3.0059h-2.998v-3.0059zm-20.002 4.0059h3.002v2.9668h-3.002v-2.9668zm4.0039 0h2.9961v2.9668h-2.9961v-2.9668zm3.998 0h2.998v2.9668h-2.998v-2.9668zm3.998 0h3.002v2.9668h-3.002v-2.9668zm4.0039 0h2.9961v2.9668h-2.9961v-2.9668zm3.998 0h2.998v2.9668h-2.998v-2.9668zm4 0h3v2.9668h-3v-2.9668zm-24.002 3.9688h3.002v3.0059h-3.002v-3.0059zm4.0039 0h2.9961v3.0059h-2.9961v-3.0059zm3.998 0h2.998v3.0059h-2.998v-3.0059zm3.998 0h3.002v3.0059h-3.002v-3.0059zm4.0039 0h2.9961v3.0059h-2.9961v-3.0059zm3.998 0h2.998v3.0059h-2.998v-3.0059zm4 0h3v3.0059h-3v-3.0059zm4.002 0h2.9961v3.0059h-2.9961v-3.0059zm-32.002 4.0078h2.998v3.0039h-2.998v-3.0039zm3.998 0h3.002v3.0039h-3.002v-3.0039zm4.0039 0h2.9961v3.0039h-2.9961v-3.0039zm3.998 0h2.998v3.0039h-2.998v-3.0039zm3.998 0h3.002v3.0039h-3.002v-3.0039zm4.0039 0h2.9961v3.0039h-2.9961v-3.0039zm3.998 0h2.998v3.0039h-2.998v-3.0039zm4 0h3v3.0039h-3v-3.0039zm4.002 0h2.9961v3.0039h-2.9961v-3.0039zm3.998 0h2.998v3.0039h-2.998v-3.0039zm-36 4.0059h2.998v3.0039h-2.998v-3.0039zm3.998 0h3.002v3.0039h-3.002v-3.0039zm4.0039 0h2.9961v3.0039h-2.9961v-3.0039zm3.998 0h2.998v3.0039h-2.998v-3.0039zm3.998 0h3.002v3.0039h-3.002v-3.0039zm4.0039 0h2.9961v3.0039h-2.9961v-3.0039zm3.998 0h2.998v3.0039h-2.998v-3.0039zm4 0h3v3.0039h-3v-3.0039zm4.002 0h2.9961v3.0039h-2.9961v-3.0039zm3.998 0h2.998v3.0039h-2.998v-3.0039zm-36 4.0059h2.998v3.0059h-2.998v-3.0059zm3.998 0h3.002v3.0059h-3.002v-3.0059zm4.0039 0h2.9961v3.0059h-2.9961v-3.0059zm3.998 0h2.998v3.0059h-2.998v-3.0059zm3.998 0h3.002v3.0059h-3.002v-3.0059zm4.0039 0h2.9961v3.0059h-2.9961v-3.0059zm3.998 0h2.998v3.0059h-2.998v-3.0059zm4 0h3v3.0059h-3v-3.0059zm4.002 0h2.9961v3.0059h-2.9961v-3.0059zm3.998 0h2.998v3.0059h-2.998v-3.0059zm-36 4.0059h2.998v2.9668h-2.998v-2.9668zm3.998 0h3.002v2.9668h-3.002v-2.9668zm4.0039 0h2.9961v2.9668h-2.9961v-2.9668zm3.998 0h2.998v2.9668h-2.998v-2.9668zm3.998 0h3.002v2.9668h-3.002v-2.9668zm4.0039 0h2.9961v2.9668h-2.9961v-2.9668zm3.998 0h2.998v2.9668h-2.998v-2.9668zm4 0h3v2.9668h-3v-2.9668zm4.002 0h2.9961v2.9668h-2.9961v-2.9668zm3.998 0h2.998v2.9668h-2.998v-2.9668zm-36 3.9688h2.998v3.0059h-2.998v-3.0059zm3.998 0h3.002v3.0059h-3.002v-3.0059zm4.0039 0h2.9961v3.0059h-2.9961v-3.0059zm3.998 0h2.998v3.0059h-2.998v-3.0059zm3.998 0h3.002v3.0059h-3.002v-3.0059zm4.0039 0h2.9961v3.0059h-2.9961v-3.0059zm3.998 0h2.998v3.0059h-2.998v-3.0059zm4 0h3v3.0059h-3v-3.0059zm4.002 0h2.9961v3.0059h-2.9961v-3.0059zm-28.004 4.0078h3.002v3.0039h-3.002v-3.0039zm4.0039 0h2.9961v3.0039h-2.9961v-3.0039zm3.998 0h2.998v3.0039h-2.998v-3.0039zm3.998 0h3.002v3.0039h-3.002v-3.0039zm4.0039 0h2.9961v3.0039h-2.9961v-3.0039zm3.998 0h2.998v3.0039h-2.998v-3.0039zm4 0h3v3.0039h-3v-3.0039zm4.002 0h2.9961v3.0039h-2.9961v-3.0039zm-24 4.0059h2.9961v3.0039h-2.9961v-3.0039zm3.998 0h2.998v3.0039h-2.998v-3.0039zm3.998 0h3.002v3.0039h-3.002v-3.0039zm4.0039 0h2.9961v3.0039h-2.9961v-3.0039zm3.998 0h2.998v3.0039h-2.998v-3.0039z" opacity=".1" stroke-width="3.7796" style="paint-order:stroke markers fill"/>
 <circle cx="8.467" cy="8.46" r="5.821" fill-rule="evenodd" opacity=".25"/>
 <g transform="translate(0,-280.07)" fill-rule="evenodd">
  <path d="m8.467 282.71a5.82 5.82 0 0 0-5.821 5.82 5.82 5.82 0 0 0 5.82 5.821 5.82 5.82 0 0 0 5.821-5.82 5.82 5.82 0 0 0-5.82-5.821zm0 0.529a5.292 5.292 0 0 1 5.291 5.291 5.292 5.292 0 0 1-5.291 5.292 5.292 5.292 0 0 1-5.292-5.292 5.292 5.292 0 0 1 5.292-5.291z" fill="#a1fff5"/>
  <path d="m4.256 289.67c0.048 0.096 0.136 0.228 0.268 0.36 0.228 0.228 0.509 0.369 0.84 0.369 0.413 0 0.717-0.23 0.94-0.638 0.151-0.277 0.237-0.54 0.41-1.17 0.298-1.096 0.487-1.441 0.866-1.441 0.366 0 0.518 0.335 0.715 1.42 0.115 0.631 0.178 0.895 0.305 1.175 0.19 0.417 0.482 0.654 0.9 0.654 0.53 0 0.73-0.294 0.889-0.927l0.016-0.066c0.098-0.395 0.152-0.484 0.277-0.484 0.088 0 0.13 0.056 0.22 0.334l0.038 0.117 0.043 0.127c0.234 0.655 0.65 0.975 1.494 0.898a0.25 0.25 0 0 0-0.045-0.496c-0.598 0.054-0.817-0.114-0.98-0.57a3.564 3.564 0 0 1-0.076-0.23c-0.151-0.468-0.308-0.678-0.694-0.678-0.457 0-0.61 0.25-0.76 0.862l-0.017 0.065c-0.108 0.431-0.189 0.55-0.404 0.55-0.366 0-0.518-0.335-0.715-1.42-0.115-0.632-0.177-0.896-0.305-1.176-0.189-0.416-0.482-0.654-0.9-0.654-0.413 0-0.717 0.23-0.94 0.638-0.15 0.277-0.237 0.54-0.409 1.17-0.299 1.096-0.487 1.442-0.867 1.442a0.681 0.681 0 0 1-0.489-0.223 1.088 1.088 0 0 1-0.174-0.23 0.24932 0.24932 0 1 0-0.446 0.223z" fill="#fff"/>
  <path transform="matrix(.26458 0 0 .26458 0 280.07)" d="m32 10a22 22 0 0 0-22 22 22 22 0 0 0 22 22 22 22 0 0 0 21.89-20h-1.99a20 20 0 0 1-19.9 18 20 20 0 0 1-20-20 20 20 0 0 1 20-20z" fill="url(#e)"/>
  <path transform="matrix(.26458 0 0 .26458 0 280.07)" d="m52.887 33.086a1 1 0 0 0-1 1 1 1 0 0 0 0 4e-3 20 20 0 0 1-19.887 17.91v2a22 22 0 0 0 21.84-19.613 1 1 0 0 0 0.047-0.301 1 1 0 0 0-2e-3 -0.047 22 22 0 0 0 5e-3 -0.039h-8e-3a1 1 0 0 0-0.996-0.914z" fill="url(#f)"/>
  <path transform="matrix(.26458 0 0 .26458 0 280.07)" d="m32 10a1 1 0 0 0-0.094 4e-3 22 22 0 0 0-21.906 21.996h2a20 20 0 0 1 20-20 1 1 0 0 0 1-1 1 1 0 0 0-1-1z" fill="url(#g)"/>
 </g>
</svg>
