<svg width="64" height="64" version="1.1" viewBox="0 0 16.933 16.933" xmlns="http://www.w3.org/2000/svg">
 <g stroke-width=".962">
  <g paint-order="markers stroke fill">
   <path d="m2.206 2.206c-0.38258 0.38258-0.61855 0.91177-0.61855 1.4981v9.5248c0 0.58657 0.23619 1.116 0.61907 1.4986l6.2605-6.2605-6.261-6.261z" fill="#e41c1c"/>
   <path d="m14.727 2.2065-6.2605 6.2605 6.26 6.26c0.37782-0.37782 0.61225-0.89877 0.61804-1.4764v-9.5682c-0.005782-0.57733-0.24-1.0981-0.61752-1.4758z" fill="#84de2c"/>
   <path d="m8.467 8.467-6.2605 6.2605c0.37778 0.37752 0.89852 0.61174 1.4758 0.61752h9.5682c0.57759-0.005785 1.0985-0.24022 1.4764-0.61804l-6.26-6.26z" fill="#8c638e"/>
   <path d="m3.7041 1.5875c-0.5863 0-1.1155 0.23598-1.4981 0.61855l6.261 6.261 6.2605-6.2605c-0.38262-0.38288-0.91202-0.61907-1.4986-0.61907h-9.5248z" fill="#6f9ccd"/>
  </g>
  <path d="M8.539 6.032c-.338 0-.54-.304-.58-.862.176-.25.382-.345.55-.345.327 0 .485.231.485.594 0 .367-.198.613-.455.613zM9.26 3.78a.826.826 0 0 0-.627-.275c-.52 0-.994.404-.994 1.457 0 .888.381 1.332.899 1.332.418 0 .77-.353.77-.874 0-.561-.29-.843-.745-.843-.212 0-.447.124-.612.326.014-.836.326-1.119.693-1.119.165 0 .327.077.433.205z" fill="#fff" font-family="sans-serif" font-size="3.528" font-weight="400" letter-spacing="0" stroke-width=".254" word-spacing="0" aria-label="6"/>
  <path d="M3.473 9.813h1.692v-.29H4.42c-.136 0-.301.015-.44.026.63-.598 1.053-1.145 1.053-1.68 0-.481-.301-.797-.782-.797-.341 0-.572.158-.792.397l.194.19c.147-.176.338-.311.558-.311.334 0 .495.223.495.532 0 .462-.389.998-1.233 1.735z" fill="#fff" font-family="sans-serif" font-size="3.528" font-weight="400" letter-spacing="0" stroke-width=".254" word-spacing="0" aria-label="2"/>
  <path d="M12.552 9.86c.455 0 .88-.333.88-.924 0-.59-.363-.855-.81-.855a.772.772 0 0 0-.4.107l.066-.778h1.016v-.286h-1.31l-.084 1.258.18.11c.154-.102.268-.157.447-.157.338 0 .558.227.558.612 0 .393-.257.635-.572.635-.312 0-.507-.143-.66-.297l-.166.22c.18.18.437.356.855.356z" fill="#fff" font-family="sans-serif" font-size="3.528" font-weight="400" letter-spacing="0" stroke-width=".254" word-spacing="0" aria-label="5"/>
  <path d="M8.16 13.357h.35c.04-1.053.157-1.676.788-2.487v-.202H7.614v.286h1.303c-.525.734-.712 1.383-.756 2.403z" fill="#fff" font-family="sans-serif" font-size="3.528" font-weight="400" letter-spacing="0" stroke-width=".254" word-spacing="0" aria-label="7"/>
 </g>
</svg>
