<svg xmlns="http://www.w3.org/2000/svg" width="64" height="64" viewBox="0 0 16.933 16.933"><path d="M2.381 1.588h12.171c.147 0 .265.118.265.264v13.23a.264.264 0 0 1-.265.264H2.382a.264.264 0 0 1-.265-.265V1.852c0-.146.118-.264.264-.264z" fill="#638df5" paint-order="fill markers stroke"/><path d="M3.704 14.288v-1.059H2.91v-.264h.794v-1.059H2.91v-.264h.794v-1.059H2.91v-.264h.794V9.26H2.91v-.264h.794V7.938H2.91v-.265h.794V6.615H2.91V6.35h.794V5.292H2.91v-.265h.794V3.97H2.91v-.265h.794V2.646H2.91V2.38h.794v-.793h.265v.793h9.79v.265h-9.79v1.058h9.79v.265h-9.79v1.058h9.79v.265h-9.79V6.35h9.79v.265h-9.79v1.058h9.79v.265h-9.79v1.058h9.79v.264h-9.79v1.059h9.79v.264h-9.79v1.059h9.79v.264h-9.79v1.059h9.79v.264h-9.79v1.059h9.79v.264h-9.79v.794h-.265v-.794H2.91v-.264z" fill="#fff" fill-opacity=".3" fill-rule="evenodd"/></svg>