<svg xmlns="http://www.w3.org/2000/svg" xmlns:xlink="http://www.w3.org/1999/xlink" width="64" height="64" viewBox="0 0 16.933 16.933"><defs><linearGradient id="a"><stop offset="0"/><stop offset="1" stop-opacity="0"/></linearGradient><linearGradient gradientTransform="matrix(.26458 0 0 .26458 0 280.067)" xlink:href="#a" id="b" x1="46.168" y1="57" x2="46.168" y2="27.346" gradientUnits="userSpaceOnUse"/></defs><g paint-order="markers stroke fill"><g transform="matrix(1.04 0 0 1.04 -.339 -291.608)" stroke-width=".962"><rect ry=".794" rx=".794" y="281.919" x="1.852" height="13.229" width="13.229" fill="#ececec"/><path d="M15.081 287.302a11.906 11.906 0 0 1-5.732 7.846h4.938c.44 0 .794-.354.794-.794z" opacity=".25" fill="url(#b)"/></g><g transform="translate(.794 -280.331)"><circle r="1.058" cy="285.094" cx="6.615" fill="#e54c41"/><circle cx="11.377" cy="292.238" r="1.058" fill="#ffb401"/><circle r="1.058" cy="285.094" cx="4.233" fill="#1fbd7f"/><circle cx="6.615" cy="287.475" r="1.058" fill="#1eaaf7"/><circle r="1.058" cy="289.856" cx="6.615" fill="#1eaaf7"/><circle r="1.058" cy="292.238" cx="4.233" fill="#1eaaf7"/><circle r="1.058" cy="292.238" cx="8.996" fill="#1fbd7f"/><circle r="1.058" cy="289.856" cx="11.377" fill="#e54c41"/></g></g></svg>