<svg xmlns="http://www.w3.org/2000/svg" xmlns:xlink="http://www.w3.org/1999/xlink" width="64" height="64" viewBox="0 0 16.933 16.933"><defs><linearGradient id="a"><stop offset="0"/><stop offset="1" stop-opacity="0"/></linearGradient><linearGradient gradientTransform="matrix(.26458 0 0 .26458 0 280.067)" xlink:href="#a" id="b" x1="46.168" y1="57" x2="46.168" y2="27.346" gradientUnits="userSpaceOnUse"/></defs><g transform="translate(0 -280.067)"><g transform="matrix(1.04 0 0 1.04 -.339 -11.541)" stroke-width=".962" paint-order="markers stroke fill"><rect ry=".794" rx=".794" y="281.919" x="1.852" height="13.229" width="13.229" fill="#4d4d4d"/><path d="M15.081 287.302a11.906 11.906 0 0 1-5.732 7.846h4.938c.44 0 .794-.354.794-.794z" opacity=".25" fill="url(#b)"/></g><rect rx=".529" ry=".529" height="3.175" width="3.175" y="282.977" x="2.91" fill="#fff"/><rect x="6.879" y="282.977" width="3.175" height="3.175" ry=".529" rx=".529" fill="#999"/><rect rx=".529" ry=".529" height="3.175" width="3.175" y="282.977" x="10.848" fill="#fff"/><rect x="2.91" y="286.946" width="3.175" height="3.175" ry=".529" rx=".529" fill="#999"/><rect rx=".529" ry=".529" height="3.175" width="3.175" y="286.946" x="6.879" fill="#fff"/><rect x="10.848" y="286.946" width="3.175" height="3.175" ry=".529" rx=".529" fill="#999"/><rect rx=".529" ry=".529" height="3.175" width="3.175" y="290.915" x="2.91" fill="#fff"/><rect x="6.879" y="290.915" width="3.175" height="3.175" ry=".529" rx=".529" fill="#999"/><rect rx=".529" ry=".529" height="3.175" width="3.175" y="290.915" x="10.848" fill="#fff"/></g></svg>