<svg xmlns="http://www.w3.org/2000/svg" width="64" height="64" viewBox="0 0 16.933 16.933"><g fill-rule="evenodd"><path fill="#f7d83f" d="M83 9c-1.662 0-3 1.338-3 3v44c0 1.662 1.338 3 3 3h38c1.662 0 3-1.338 3-3V21L112 9z" style="paint-order:fill markers stroke" transform="translate(-17.991 -1.058) scale(.26458)"/><path fill="#ffec8c" d="m32.808 5.556-3.175-3.175v2.381c0 .44.354.794.794.794z" style="paint-order:fill markers stroke" transform="translate(-17.991 -1.058)"/></g><g fill-rule="evenodd"><path fill="#638df5" d="M83 9c-1.662 0-3 1.338-3 3v44c0 1.662 1.338 3 3 3h38c1.662 0 3-1.338 3-3V21L112 9z" style="paint-order:fill markers stroke" transform="translate(-19.05) scale(.26458)"/><path fill="#88aaf8" d="m32.808 5.556-3.175-3.175v2.381c0 .44.354.794.794.794z" style="paint-order:fill markers stroke" transform="translate(-19.05)"/></g><g fill="#fff" stroke-width=".265"><path d="M3.44 4.762v-.264H8.73v.264z" color="#000" opacity=".35" style="paint-order:normal"/><path d="M7.673 8.466V12.7h4.762v-.265H7.937V8.466z" opacity=".5"/><path d="M8.466 10.319h.794v1.587h-.794zM9.789 8.996h.794v2.91h-.794zM11.112 9.525h.794v2.381h-.794z" opacity=".5"/><path d="M3.44 6.614V6.35h8.995v.265zM3.44 7.408v-.264h8.995v.264zM3.44 8.202v-.265h3.439v.265zM3.44 8.996V8.73h3.439v.265zM3.44 9.79v-.265h3.439v.264zM3.44 10.583v-.265h3.439v.265zM3.44 11.377v-.265h3.439v.265zM3.44 12.171v-.265h2.116v.265zM3.44 13.493v-.265h8.995v.265zM3.44 14.287v-.265h6.878v.265zM3.44 5.556v-.264H8.73v.264z" color="#000" opacity=".35" style="paint-order:normal"/></g></svg>