<svg width="64" height="64" version="1.1" viewBox="0 0 16.933 16.933" xmlns="http://www.w3.org/2000/svg" xmlns:xlink="http://www.w3.org/1999/xlink">
 <g stroke-width=".962">
  <g paint-order="markers stroke fill">
   <path d="M1.829 1.829a.823.823 0 0 0-.242.584V14.52c0 .229.093.435.242.585l6.638-6.638z" fill="#e41c1c"/>
   <path d="M15.105 1.829c.149.149.24.355.24.584V14.52a.823.823 0 0 1-.24.585L8.467 8.467z" fill="#84de2c"/>
   <path d="M1.829 15.105c.149.149.355.24.584.24H14.52a.823.823 0 0 0 .585-.24L8.467 8.467z" fill="#8c638e"/>
   <path d="M1.829 1.829a.823.823 0 0 1 .584-.242H14.52c.229 0 .435.093.585.242L8.467 8.467z" fill="#6f9ccd"/>
  </g>
  <path d="M8.539 6.032c-.338 0-.54-.304-.58-.862.176-.25.382-.345.55-.345.327 0 .485.231.485.594 0 .367-.198.613-.455.613zM9.26 3.78a.826.826 0 0 0-.627-.275c-.52 0-.994.404-.994 1.457 0 .888.381 1.332.899 1.332.418 0 .77-.353.77-.874 0-.561-.29-.843-.745-.843-.212 0-.447.124-.612.326.014-.836.326-1.119.693-1.119.165 0 .327.077.433.205z" fill="#fff" font-family="sans-serif" font-size="3.528" font-weight="400" letter-spacing="0" stroke-width=".254" word-spacing="0" aria-label="6"/>
  <path d="M3.473 9.813h1.692v-.29H4.42c-.136 0-.301.015-.44.026.63-.598 1.053-1.145 1.053-1.68 0-.481-.301-.797-.782-.797-.341 0-.572.158-.792.397l.194.19c.147-.176.338-.311.558-.311.334 0 .495.223.495.532 0 .462-.389.998-1.233 1.735z" fill="#fff" font-family="sans-serif" font-size="3.528" font-weight="400" letter-spacing="0" stroke-width=".254" word-spacing="0" aria-label="2"/>
  <path d="M12.552 9.86c.455 0 .88-.333.88-.924 0-.59-.363-.855-.81-.855a.772.772 0 0 0-.4.107l.066-.778h1.016v-.286h-1.31l-.084 1.258.18.11c.154-.102.268-.157.447-.157.338 0 .558.227.558.612 0 .393-.257.635-.572.635-.312 0-.507-.143-.66-.297l-.166.22c.18.18.437.356.855.356z" fill="#fff" font-family="sans-serif" font-size="3.528" font-weight="400" letter-spacing="0" stroke-width=".254" word-spacing="0" aria-label="5"/>
  <path d="M8.16 13.357h.35c.04-1.053.157-1.676.788-2.487v-.202H7.614v.286h1.303c-.525.734-.712 1.383-.756 2.403z" fill="#fff" font-family="sans-serif" font-size="3.528" font-weight="400" letter-spacing="0" stroke-width=".254" word-spacing="0" aria-label="7"/>
 </g>
</svg>
