<svg xmlns="http://www.w3.org/2000/svg" width="64" height="64" viewBox="0 0 16.933 16.933"><g transform="translate(0 -280.07)"><rect width="13.229" height="13.229" x="1.852" y="281.92" fill="#4d4d4d" stroke-width=".962" paint-order="markers stroke fill" rx="1.78" ry="1.78" transform="matrix(1.04 0 0 1.04 -.339 -11.541)"/><rect width="3.175" height="3.175" x="2.91" y="282.98" fill="#fff" rx=".529" ry=".529"/><rect width="3.175" height="3.175" x="6.879" y="282.98" fill="#999" rx=".529" ry=".529"/><rect width="3.175" height="3.175" x="10.848" y="282.98" fill="#fff" rx=".529" ry=".529"/><rect width="3.175" height="3.175" x="2.91" y="286.95" fill="#999" rx=".529" ry=".529"/><rect width="3.175" height="3.175" x="6.879" y="286.95" fill="#fff" rx=".529" ry=".529"/><rect width="3.175" height="3.175" x="10.848" y="286.95" fill="#999" rx=".529" ry=".529"/><rect width="3.175" height="3.175" x="2.91" y="290.92" fill="#fff" rx=".529" ry=".529"/><rect width="3.175" height="3.175" x="6.879" y="290.92" fill="#999" rx=".529" ry=".529"/><rect width="3.175" height="3.175" x="10.848" y="290.92" fill="#fff" rx=".529" ry=".529"/></g></svg>