<svg xmlns="http://www.w3.org/2000/svg" width="64" height="64"><path fill="#f0354c" d="M32 5c14.912 0 27 12.088 27 27S46.912 59 32 59 5 46.912 5 32 17.088 5 32 5"/><g stroke-width="1.5" transform="translate(-3.26 -3.391)"><path fill="#acacac" d="M35.261 14.391a7.5 7.5 0 0 0-7.5 7.5v12h3v-12a4.5 4.5 0 0 1 4.5-4.5 4.5 4.5 0 0 1 4.5 4.5v12h3v-12a7.5 7.5 0 0 0-7.5-7.5"/><circle cx="35.261" cy="41.391" r="15" fill="#c8c8c8"/><circle cx="35.261" cy="41.391" r="13.5" fill="#b4b4b4"/><path fill="#3d3d3d" d="M33.761 29.496a12 12 0 0 0-5.859 2.42l-2.109 2.12v.003a12 12 0 0 0-2.425 5.847l.002 3a12 12 0 0 0 2.421 5.86v-.01c0 .01 2.124 2.12 2.124 2.12a12 12 0 0 0 5.847 2.425l3-.002a12 12 0 0 0 5.86-2.417q-.005 0-.01-.003l2.12-2.124a12 12 0 0 0 2.426-5.847l-.003-3a12 12 0 0 0-2.418-5.856l-.003.006-2.121-2.118a12 12 0 0 0-5.853-2.425z"/><path fill="#f2f2f2" d="M35.261 29.391q-.755.006-1.5.108v2.892h3v-2.895a12 12 0 0 0-1.5-.105m-7.35 2.529q-.599.457-1.134.987-.528.538-.984 1.137l2.045 2.045 2.12-2.122zm14.699.003-2.045 2.045 2.122 2.12 2.047-2.047a12 12 0 0 0-.987-1.134 12 12 0 0 0-1.137-.984m-19.242 7.968q-.1.748-.105 1.5.006.755.108 1.5h2.892v-3zm20.895 0v3h2.895q.1-.748.105-1.5a12 12 0 0 0-.108-1.5zm-16.424 6.803-2.047 2.047q.457.599.986 1.134.539.528 1.137.984l2.045-2.045zm14.847 0-2.121 2.12 2.047 2.048q.6-.457 1.134-.987.528-.538.984-1.137zm-8.924 3.697v2.895q.75.1 1.5.105a12 12 0 0 0 1.5-.108v-2.892z"/><path fill="#f93d47" d="m35.261 30.891 3.75 8.25h-7.5z"/><circle cx="35.261" cy="41.391" r="4.5" fill="#b4b4b4"/></g></svg>