<svg xmlns="http://www.w3.org/2000/svg" xmlns:xlink="http://www.w3.org/1999/xlink" width="64" height="64" viewBox="0 0 16.933 16.933"><defs><linearGradient id="a"><stop offset="0"/><stop offset="1" stop-opacity="0"/></linearGradient><linearGradient gradientTransform="matrix(.27517 0 0 .27517 -.339 279.728)" xlink:href="#a" id="b" x1="46.168" y1="57" x2="46.168" y2="27.346" gradientUnits="userSpaceOnUse"/></defs><g transform="translate(0 -280.067)"><rect width="13.758" height="13.758" x="1.588" y="281.654" rx=".825" ry=".825" fill="#ac8fac" paint-order="markers stroke fill"/><rect ry=".265" rx=".265" y="282.712" x="2.646" height="11.642" width="11.642" fill="#fff" paint-order="markers stroke fill"/><path opacity=".05" paint-order="markers stroke fill" d="M10.451 282.712v3.681H6.482v-3.681zM14.552 286.693v3.681h-3.969v-3.681zM10.451 290.65v3.681H6.482v-3.681zM6.615 286.681v3.681H2.646v-3.681z"/><path fill="#e6dae6" paint-order="markers stroke fill" d="M6.085 282.712h.529v11.642h-.529zM10.319 282.712h.529v11.642h-.529z"/><path fill="#e6dae6" paint-order="markers stroke fill" d="M14.288 286.152v.529H2.646v-.529zM14.288 290.385v.529H2.646v-.529z"/><path d="M15.346 287.253a12.383 12.383 0 0 1-5.961 8.16h5.135a.824.824 0 0 0 .826-.826z" opacity=".25" fill="url(#b)" paint-order="markers stroke fill"/><text style="line-height:1.25" x="3.389" y="285.581" font-weight="400" font-size="3.192" font-family="sans-serif" letter-spacing="0" word-spacing="0" fill="#666" stroke-width=".265"><tspan x="3.389" y="285.581">5</tspan></text><rect width="4.233" height="4.233" x="286.417" y="-10.583" transform="rotate(90)" ry=".47" rx=".47" fill="#de8787" paint-order="markers stroke fill"/><text y="289.592" x="7.598" style="line-height:1.25" font-weight="400" font-size="3.188" font-family="sans-serif" letter-spacing="0" word-spacing="0" fill="#fff" stroke-width=".265"><tspan y="289.592" x="7.598">2</tspan></text><text style="line-height:1.25" x="7.639" y="293.784" font-weight="400" font-size="3.133" font-family="sans-serif" letter-spacing="0" word-spacing="0" fill="#666" stroke-width=".265"><tspan x="7.639" y="293.784">3</tspan></text><text y="293.784" x="11.663" style="line-height:1.25" font-weight="400" font-size="3.133" font-family="sans-serif" letter-spacing="0" word-spacing="0" fill="#666" stroke-width=".265"><tspan y="293.784" x="11.663">9</tspan></text></g></svg>