<svg xmlns="http://www.w3.org/2000/svg" width="64" height="64" viewBox="0 0 16.933 16.933"><g transform="translate(0 -280.07)"><rect width="13.758" height="13.758" x="1.588" y="281.65" fill="#cb7148" paint-order="markers stroke fill" rx="2.117" ry="2.117"/><rect width="12.171" height="12.171" x="2.381" y="282.45" fill="#fff" paint-order="markers stroke fill" rx="1.323" ry="1.323"/><path fill="#dee642" d="M3.893 283.242a.717.717 0 0 0-.718.718v3.59c0 .399.32.719.718.719h3.59c.399 0 .72-.32.72-.718v-3.591a.717.717 0 0 0-.72-.718zm1.682.838c.824 0 1.205.43 1.205.987 0 .677-.662 1.29-1.309 1.95H6.85v.534H4.493v-.38c.183-.173.391-.351.648-.618.494-.518 1.031-1.012 1.031-1.446 0-.277-.163-.45-.597-.45-.346 0-.622.139-.908.262l-.178-.529c.237-.123.622-.31 1.086-.31z" overflow="visible" style="isolation:auto;mix-blend-mode:normal"/><path fill="#56c55c" d="M3.893 288.798a.717.717 0 0 0-.718.718v3.59c0 .399.32.719.718.719h3.59c.399 0 .72-.32.72-.718v-3.591a.717.717 0 0 0-.72-.718zm1.82.882h.82v2.153h.597v.543h-.597v.73h-.607v-.73H4.282v-.43zm.213.662-.07.148-.848 1.343h.918v-1.343z" overflow="visible" style="isolation:auto;mix-blend-mode:normal"/><path fill="#f19d1e" d="M9.45 288.798a.717.717 0 0 0-.719.718v3.59c0 .399.32.719.718.719h3.591c.398 0 .718-.32.718-.718v-3.591a.717.717 0 0 0-.718-.718zm1.75.837c.843 0 1.229.346 1.229.884 0 .271-.148.474-.4.672.41.222.592.543.592.888 0 .534-.468 1.077-1.392 1.077-.814 0-1.417-.42-1.417-1.032 0-.36.237-.706.588-.918a.846.846 0 0 1-.395-.697c0-.479.429-.874 1.194-.874zm0 .544c-.337 0-.563.192-.563.38 0 .281.41.405.695.484.326-.183.475-.297.475-.46 0-.271-.287-.404-.608-.404zm-.065 1.18c-.444.123-.7.405-.7.671 0 .287.3.563.819.563.469 0 .74-.252.74-.543 0-.395-.394-.573-.859-.692z" overflow="visible" style="isolation:auto;mix-blend-mode:normal"/></g></svg>