<svg width="64" height="64" version="1.1" viewBox="0 0 64 64" xmlns="http://www.w3.org/2000/svg">
 <g transform="matrix(1.7037 0 0 1.7037 -22.518 -24.518)">
  <path d="m32 36.696-4.6957 3.5217c0 4.1087-0.58696 4.1087-3.5217 5.8696l8.2174 0.58696 8.2174-0.58696c-2.9348-1.7609-3.5217-1.7609-3.5217-5.8696z" fill="#b3b3b3" stroke-width="1.1739"/>
  <path d="m23.783 46.087v1.1739h16.435v-1.1739z" fill="#cccccc" stroke-width="1.1739"/>
  <rect x="16.739" y="19.087" width="30.522" height="21.13" ry="1.1739" fill="#303030"/>
  <rect x="19.087" y="21.435" width="25.826" height="16.435" fill="#6a60cb" stroke-width="1.185" style="paint-order:normal"/>
  <circle cx="32" cy="33.174" r="2.3478" fill="#f9f9f9" stroke-width="1.1739" style="paint-order:normal"/>
  <path d="m32 23.783c-3.3538 0.0011-6.5433 1.7903-8.2174 4.6957l2.1231 1.1763c1.2567-2.1784 3.5796-3.5247 6.0943-3.5241s4.8363 1.3478 6.092 3.5263l2.1254-1.1785c-1.6755-2.9059-4.8636-4.6967-8.2174-4.6957zm0 3.5217c-2.0957 6.46e-4 -4.0302 1.1237-5.0762 2.9394l2.0291 1.1716c0.62802-1.0896 1.7895-1.7632 3.0471-1.7632s2.4191 0.67351 3.0471 1.7632l2.0315-1.1739c-1.0471-1.8155-2.9829-2.9377-5.0786-2.9371z" fill="#f9f9f9" stroke-width="1.1739" style="paint-order:normal"/>
 </g>
</svg>
