<svg xmlns="http://www.w3.org/2000/svg" width="64" height="64" viewBox="0 0 16.933 16.933"><g transform="translate(0 -280.067)"><circle cx="8.467" cy="288.533" r="6.879" fill="#f88c16" paint-order="stroke markers fill"/><circle r="5.821" cy="288.533" cx="8.467" opacity=".25" paint-order="stroke markers fill"/><path d="M6.842 284.513a1.918 1.918 0 0 0-.525.063c-.462.12-.904.4-1.219.78-.314.378-.502.859-.44 1.371.065.874.475 2.312.986 3.542.256.616.537 1.178.817 1.59.14.207.279.376.419.496.137.118.278.191.423.19a.856.856 0 0 0 .666-.193c.193-.151.358-.368.513-.607.3-.464.57-1.053.877-1.402.03.035.071.146.12.235.096.179.22.439.38.704.16.266.357.52.605.73.247.208.548.34.904.341.214.016.43.001.603-.086.175-.088.308-.229.316-.446v-.002a.426.426 0 0 0-.214-.371c-.121-.076-.269-.127-.425-.208-.311-.162-.664-.425-.876-1.19-.168-.607-.39-1.061-.624-1.367-.234-.305-.423-.577-.722-.543-.521.059-.766.806-1.014 1.202-.152.244-.295.487-.419.68-.1.157-.175.244-.234.304-.192-.206-.306-.428-.286-.69.024-.294.192-.63.347-.987.31-.713.705-1.515.624-2.308-.059-.58-.363-1.23-.789-1.564a1.403 1.403 0 0 0-.64-.25 1.524 1.524 0 0 0-.173-.014z" fill="#fff" fill-rule="evenodd"/><path d="M6.267 286.104c-.267.008-.516.05-.693.11-.111.135-.205.3-.255.506-.092-.268-.07-.522.071-.746.322-.059.672.025.877.13zM7.438 286.071a2.333 2.333 0 0 0-.64-.27 1.53 1.53 0 0 0-.531.307 1 1 0 0 1 .533-.612c.301.118.536.376.638.575z" fill="#ba6910"/><path d="M6.753 286.098c-.228.022-.408.314-.437.68-.097-.199-.242-.39-.391-.375-.228.023-.376.43-.33.828.026.23.113.426.225.548.16-.122.361-.258.592-.335.005-.027.01-.055.012-.083.012.024.028.044.042.066a2.595 2.595 0 0 1 .706-.113c.06-.141.093-.284.085-.471-.017-.436-.243-.77-.504-.745z" fill="#ba6910"/><path d="M6.217 287.122a.167.23 0 0 1-.335 0 .167.23 0 1 1 .335 0zM6.936 286.95a.167.23 0 0 1-.335 0 .167.23 0 1 1 .335 0z" fill="#fff"/><path d="M5.598 288.244c.602-.143 1.367-.482 1.84-.76-.007.628-.63 1.38-1.009 1.377-.533-.005-.715-.367-.831-.617z" fill="#ba6910"/><path d="M7.38 287.822c-.11.145-.343.255-.73.425.441-.093.433-.003.447.132a1.87 1.87 0 0 0 .283-.557zm-.93.502c-.41.12-.59.148-.762.097a.816.816 0 0 0 .388.37c-.067-.135-.067-.258.373-.467z" fill="#fff" opacity=".5"/></g></svg>