<svg xmlns="http://www.w3.org/2000/svg" width="64" height="64" viewBox="0 0 16.933 16.933"><g transform="matrix(1.2 0 0 1.2 -2.806 -337.774)"><path d="M10.054 284.83l-3.704 3.703" fill="none" stroke="#e8d51d" stroke-width="2.117"/><rect transform="scale(-1 1)" ry="0" y="288.533" x="-7.938" height="4.498" width="3.175" fill="#e8d51d"/><rect transform="scale(-1 1)" width="4.233" height="1.058" x="-8.467" y="292.237" ry=".529" fill="#efe958"/><path d="M8.467 292.767c.529 0 .529.529.529.529v.529H3.704v-.53c0-.528.53-.528.53-.528z" fill="#3f3f3f"/><rect transform="scale(-1 1)" y="286.417" x="-8.467" height="4.233" width="4.233" ry="2.117" fill="#efe958"/><rect transform="scale(-1 1)" ry="1.587" width="3.175" height="3.175" x="-7.938" y="286.946" fill="#3f3f3f"/><path d="M10.054 284.83l2.646 2.645" fill="none" stroke="#e8d51d" stroke-width="1.587"/><rect transform="scale(-1 1)" ry="1.587" width="3.175" height="3.175" x="-11.642" y="283.242" fill="#efe958"/><path d="M13.23 289.592l-1.06-.53v-1.058l1.06-1.058h1.057l.53 1.058" fill="none" stroke="#3f3f3f" stroke-width=".529" stroke-linecap="round" stroke-linejoin="round"/><rect transform="scale(-1 1)" y="283.771" x="-11.112" height="2.117" width="2.117" ry="1.058" fill="#3f3f3f"/><rect transform="scale(-1 1)" y="287.475" x="-7.408" height="2.117" width="2.117" ry="1.058" opacity=".1" fill="#fff"/><rect transform="scale(-1 1)" ry=".529" width="1.058" height="1.058" x="-10.583" y="284.3" opacity=".1" fill="#fff"/></g></svg>