<svg width="64" height="64" version="1.1" viewBox="0 0 16.933 16.933" xmlns="http://www.w3.org/2000/svg">
 <rect x="2.1166" y="1.5875" width="12.7" height="13.758" rx="1.5875" ry="1.5875" fill="#549bff" stroke-linecap="round" stroke-width=".55733"/>
 <path transform="scale(.26458)" d="m32 6-18.064 0.0019531c-3.294 0.034407-5.9355 2.6956-5.9355 5.998v15.916a34.999 36.399 0 0 0 32 21.764 34.999 36.399 0 0 0 16-4.0371v-33.643c0-3.324-2.676-6-6-6h-18z" fill="#0000ff" opacity=".1" stroke-width="3.8544" style="paint-order:stroke markers fill"/>
 <path transform="scale(.26458)" d="m32 6-18.064 0.0019531c-3.294 0.034407-5.9355 2.6956-5.9355 5.998v40c0 3.324 2.676 6 6 6h18.34a40 41.6 0 0 0 23.66-21.504v-24.496c0-3.324-2.676-6-6-6h-18z" fill="#0000ff" opacity=".1" stroke-width="3.8544" style="paint-order:stroke markers fill"/>
 <path d="m5.292 3.969a3.175 3.175 0 0 0 3.175 3.175 3.175 3.175 0 0 0 3.175-3.175h-0.794a2.381 2.381 0 0 1-2.381 2.381 2.381 2.381 0 0 1-2.382-2.381z" fill="#ffffff" style="paint-order:stroke markers fill"/>
</svg>
