<svg width="64" height="64"><path fill="#fff" d="M58.182 25.136a30 30 0 0 0-.209-.778c-.057-.194-.114-.392-.18-.6a25 25 0 0 0-2.331-5.257c-1.161-1.974-2.62-3.845-4.368-5.592q-6.229-6.231-14.51-7.554a28 28 0 0 0-2.863-.306 31 31 0 0 0-3.317-.006q-10.155.525-17.495 7.866Q5 20.817 5 31.999q0 11.187 7.909 19.095c3.243 3.24 6.896 5.485 10.932 6.724a27.2 27.2 0 0 0 6.563 1.141h.023c.487.026.95.04 1.402.04H32c.59 0 1.173-.017 1.722-.046l.398-.025a28 28 0 0 0 3.358-.44c.454-.09.903-.19 1.338-.295 4.622-1.162 8.704-3.524 12.28-7.1 2.78-2.78 4.827-5.862 6.14-9.255q1.584-4.088 1.748-8.78.017-.52.017-1.059v-.171a28 28 0 0 0-.818-6.693z"/><path fill="#f2f2f2" d="M58.182 25.136a30 30 0 0 0-.209-.778c-.057-.194-.114-.392-.18-.6a25 25 0 0 0-2.331-5.257c-1.161-1.974-2.62-3.845-4.368-5.592q-6.229-6.231-14.51-7.554a28 28 0 0 0-2.863-.306 31 31 0 0 0-3.317-.006q-10.155.525-17.495 7.866Q5 20.817 5 31.999q0 11.187 7.909 19.095c3.243 3.24 6.896 5.485 10.932 6.724a27.2 27.2 0 0 0 6.563 1.141h.023c.487.026.95.04 1.402.04H32c.59 0 1.173-.017 1.722-.046l.398-.025a28 28 0 0 0 3.358-.44c.454-.09.903-.19 1.338-.295 4.622-1.162 8.704-3.524 12.28-7.1 2.78-2.78 4.827-5.862 6.14-9.255q1.584-4.088 1.748-8.78.017-.52.017-1.059v-.171a28 28 0 0 0-.818-6.693z"/><path fill="#333" d="M30.757 16C22.52 16.497 16 23.483 16 32c0 8.84 7.237 15.998 16.01 15.998 8.512 0 15.583-6.98 15.989-15.283h-3.821c-.404 6.386-5.655 11.453-12.068 11.453-6.677 0-12.308-5.459-12.308-12.186 0-6.403 5.252-11.641 10.956-12.133zm1.903 0v3.848c3.169.203 5.036 1.219 6.911 2.801l2.793-2.716C39.79 17.665 36.463 16.216 32.66 16m11.262 5.241-2.7 2.705A12.34 12.34 0 0 1 44.16 30.8h3.815c-.256-3.831-1.743-6.98-4.053-9.56zm-4.86 3.577-8.054 4.977.008.007a2.53 2.53 0 0 0-1.29 2.2 2.525 2.525 0 0 0 2.513 2.532c.975 0 1.81-.565 2.228-1.38l.006.005z"/></svg>