<svg width="64" height="64" version="1.1" viewBox="0 0 16.933 16.933" xmlns="http://www.w3.org/2000/svg">
 <g transform="translate(0 -280.07)">
  <circle cx="8.4665" cy="288.53" r="7.1436" fill="#32a3d7" style="paint-order:markers stroke fill"/>
  <path d="M12.583 284.417a5.82 5.82 0 0 0-8.232 0 5.82 5.82 0 0 0 0 8.232 5.82 5.82 0 0 0 .154.144h1.304a5.027 5.027 0 0 0 5.318 0h1.297a5.82 5.82 0 0 0 .159-.144 5.82 5.82 0 0 0 0-8.232z" opacity=".15" paint-order="markers stroke fill"/>
  <g transform="matrix(.69638 0 0 .69638 2.685 87.888)" fill="#fff" paint-order="markers stroke fill">
   <rect transform="rotate(45)" x="206.25" y="199.1" width="5.292" height="1.587" ry=".794"/>
   <rect transform="rotate(-45)" x="-200.59" y="210.06" width="7.938" height="1.587" ry=".794"/>
  </g>
 </g>
</svg>
