<svg xmlns="http://www.w3.org/2000/svg" width="64" height="64"><rect width="52" height="52" x="6" y="6" fill="#685d8d" rx="8" ry="8"/><g transform="translate(1.143 1.143)scale(.96429)"><path fill="#34bae3" d="M28.62 51.821c-2.396-.456-4.948-1.562-7.085-3.072-2.4-1.696-4.881-4.679-6.074-7.304-1.199-2.638-1.684-5.829-1.365-8.974.24-2.38.515-3.484 1.334-5.38 2.274-5.257 6.722-8.88 12.614-10.277.964-.229 1.633-.498 2.046-.825.613-.484.615-.49.984-2.878.46-2.981.453-2.958.925-3.077.635-.158 3.599.264 5.049.72 2.333.734 3.999 1.69 5.987 3.432.613.537 2.196.977 2.296.977.6 0 2.268.783 2.941 1.437 2.01 1.949 2.28 4.405.749 6.788-.411.64-.958.353-.958 1.177 0 .551-.095 1.125-.21 1.276-.17.221-1.672.342-4.922.622-2.96.256-4.75 1.014-4.931 1.196-.541.54.707.653 6.46 1.106 5.378.424 5.863.572 5.454.98-.088.087-2.445.5-5.725 1.161l-5.965 1.203-3.748-1.446c-2.062-.795-3.813-1.245-3.892-1.245-.246 0-2.05 2.996-1.991 3.305.074.383.829.174 1.81.308.678.093.867.042 1.568-.421 1.562-1.032 2.96-1.034 3.829-.003.53.63.549 1.057.059 1.4s-.845.33-1.567-.057c-1.014-.542-1.657.166-1.29 1.138.238.628.103.97-.381.97-.27 0-.462-.168-.65-.563-.267-.56-.27-.842-1.742-.94-1.591-.108-2.344.442-3.339-.185-.786-.495-1.52-1.356-1.52-1.783 0-.409.779-1.96 1.578-3.144.743-1.1.766-1.367.117-1.367-.345 0-.626.161-.952.545-.574.676-1.92 3.468-1.92 3.983 0 .71.544 1.496 1.99 2.447 1.145.752 1.494.801 1.74 1.357.368.836 1.014 2.266 1.154 3.569.117 1.081.352.802.783.046.438-.769 1.65-.92 1.65-.206 0 .172-.188.413-.418.535-.758.406-.705 1.09.119 1.531.244.13.485.07 1.052-.26.404-.237.85-.43.99-.43.33 0 .777.642.777 1.119 0 1.063-.838 1.731-2.17 1.731-1.59 0-2.81-.854-3.47-2.432-.352-.842-1.728-2.361-2.297-2.971-.562-.603-.86-.707-1.33-.64-.525.076-.784.573-.787 1.852-.005 2.47.775 4.998 3.582 6.381 4.612 2.273 9.037 2.3 13.803.082 3.518-1.636 6.23-4.341 6.426-7.182.072-1.044.03-1.32-.307-1.969-.699-1.348-2.871-2.13-4.35-1.46-.481.219-.849.842-1.085 1.523-.689 2.126.324 3.001 1.489 3.508.478.208 1.321.06 1.47-.535.167-.663-.157-.93-1.063-.874-.685.043-.779.007-.825-.319-.07-.488.663-.961 1.454-.939.467.013.737.001 1.163.465.66.719.545 1.559.2 2.215-.416.795-1.193 1.328-2.345 1.324-1.64-.005-2.966-.917-3.353-2.307-.232-.833-.22-2.165.072-3.15.85-2.855 5.652-3.44 7.937-1.224 1.101 1.069 1.66 2.282 1.556 4.205-.223 4.17-4.426 8.189-9.224 10.541-2.843 1.394-4.439 1.767-7.897 1.847-1.97.046-3.23-.005-4.06-.163z"/><circle cx="35" cy="20" r="5" fill="#fff"/><circle cx="34" cy="19" r="2" fill="#5e5e5e"/><path fill="#fff" d="M47.945 19.439c.227 1.085-.276 2.2-1.123 2.492L46 18c.847-.291 1.718.353 1.945 1.438"/></g></svg>