<svg width="64" height="64" version="1.1" xmlns="http://www.w3.org/2000/svg">
 <rect x="6" y="6" width="52" height="52" rx="8" ry="8" fill="#685d8d" stroke-width="0"/>
 <g transform="matrix(.96429 0 0 .96429 1.1429 1.1429)">
  <path d="m28.62 51.821c-2.3963-0.45595-4.9481-1.5623-7.0855-3.0721-2.4002-1.6954-4.8809-4.6787-6.0736-7.3041-1.1985-2.6383-1.6839-5.8284-1.3653-8.9739 0.24098-2.3795 0.51505-3.4842 1.3346-5.3792 2.2737-5.2572 6.7215-8.8813 12.614-10.278 0.96414-0.22855 1.6325-0.49798 2.0458-0.82472 0.61266-0.48432 0.61459-0.48999 0.98352-2.8779 0.46059-2.9812 0.4537-2.9583 0.9258-3.0766 0.63427-0.15889 3.5986 0.26376 5.0482 0.71976 2.333 0.7339 3.9995 1.689 5.9873 3.4314 0.61306 0.53736 2.1966 0.97702 2.2963 0.97702 0.60026 0 2.2674 0.78338 2.9412 1.437 2.0092 1.9491 2.2801 4.4058 0.74844 6.7882-0.41104 0.63933-0.95781 0.35312-0.95781 1.1776 0 0.55079-0.09448 1.1248-0.21002 1.2756-0.16936 0.22108-1.6724 0.34154-4.9217 0.62209-2.9608 0.25563-4.7493 1.0138-4.9313 1.1955-0.54113 0.5401 0.7074 0.65346 6.4592 1.1068 5.3784 0.42393 5.8635 0.57178 5.4548 0.97898-0.08782 0.08746-2.4448 0.50048-5.7254 1.1619l-5.9648 1.2026-3.7481-1.4455c-2.0615-0.79503-3.8127-1.2458-3.8915-1.2458-0.24582 0-2.0507 2.9961-1.9911 3.3051 0.07392 0.38305 0.82895 0.17448 1.8102 0.30872 0.67776 0.09276 0.86683 0.04184 1.5676-0.42144 1.5617-1.0324 2.9604-1.0337 3.829-3e-3 0.53084 0.62968 0.54884 1.0574 0.0589 1.4-0.48953 0.34222-0.84434 0.32934-1.5663-0.05684-1.014-0.54246-1.6579 0.16556-1.2902 1.1378 0.23739 0.62774 0.10298 0.96929-0.38143 0.96929-0.26921 0-0.46227-0.16686-0.65008-0.56189-0.26663-0.56082-0.26996-0.84192-1.7414-0.94131-1.5918-0.10752-2.3444 0.44314-3.3393-0.18374-0.78622-0.49539-1.5201-1.3564-1.5201-1.7835 0-0.40869 0.77869-1.9597 1.5783-3.1437 0.74268-1.0997 0.76551-1.3667 0.11686-1.3667-0.34485 0-0.62572 0.16078-0.95215 0.54505-0.57396 0.67563-1.9192 3.4672-1.9192 3.9827 0 0.71069 0.54312 1.4962 1.9887 2.4464 1.1454 0.75289 1.4948 0.80158 1.7403 1.3577 0.36875 0.83532 1.0139 2.2659 1.1545 3.5686 0.11678 1.0816 0.35203 0.80206 0.78275 0.04646 0.43841-0.76907 1.6495-0.92053 1.6495-0.20627 0 0.1718-0.18778 0.41264-0.41728 0.53524-0.75857 0.4052-0.70557 1.0906 0.1184 1.5307 0.24396 0.13032 0.48586 0.07042 1.0519-0.26072 0.40428-0.23648 0.84961-0.42995 0.98964-0.42995 0.33131 0 0.77772 0.64261 0.77772 1.1195 0 1.0633-0.83739 1.7315-2.1701 1.7315-1.5903 0-2.8093-0.85449-3.4698-2.4322-0.35246-0.84196-1.7284-2.3613-2.2966-2.9711-0.5619-0.6031-0.8598-0.70741-1.33-0.63979-0.52568 0.07562-0.78414 0.57285-0.78695 1.8513-5e-3 2.4711 0.77454 4.9982 3.582 6.3818 4.6114 2.2728 9.037 2.299 13.803 0.08174 3.5177-1.6364 6.2294-4.3412 6.4259-7.1818 0.07218-1.044 0.02914-1.32-0.30713-1.9689-0.69884-1.3484-2.8713-2.1301-4.3506-1.4598-0.481 0.21794-0.84859 0.84104-1.0844 1.522-0.6888 2.1268 0.32389 3.0016 1.4888 3.5084 0.47823 0.20807 1.3211 0.05932 1.4704-0.53459 0.16682-0.66339-0.15752-0.92996-1.0635-0.87407-0.68442 0.04226-0.77875 0.0062-0.82508-0.31908-0.0696-0.48857 0.66272-0.96166 1.4541-0.93927 0.46699 0.0132 0.73746 0.0013 1.1629 0.46467 0.66026 0.71911 0.5455 1.5589 0.20095 2.2156-0.41716 0.79503-1.1936 1.3279-2.3456 1.3241-1.641-5e-3 -2.9664-0.91734-3.3531-2.3069-0.23177-0.83297-0.22058-2.1651 0.0724-3.1497 0.84954-2.8553 5.6518-3.4406 7.9364-1.2244 1.1016 1.0686 1.6594 2.2814 1.5563 4.2047-0.22353 4.1694-4.4258 8.1885-9.2245 10.541-2.8423 1.3935-4.4386 1.7668-7.8971 1.8469-1.9695 0.04562-3.2299-5e-3 -4.0592-0.16276z" fill="#34bae3"/>
  <circle cx="35" cy="20" r="5" fill="#ffffff"/>
  <circle cx="34" cy="19" r="2" fill="#5e5e5e"/>
  <path d="m47.945 19.439c0.22706 1.0853-0.27582 2.2008-1.1232 2.4916l-0.82226-3.9302c0.8474-0.2908 1.7184 0.35326 1.9455 1.4385z" fill="#ffffff"/>
 </g>
</svg>
