<svg width="64" height="64" version="1.1" viewBox="0 0 64 64" xmlns="http://www.w3.org/2000/svg">
 <path d="m42.564 19.086-15.26 10.564-7.043-8.2168-14.262 9.1699v19.396c0 4.432 3.568 8 8 8h36c4.432 0 8-3.568 8-8v-15.48l-15.436-15.434z" fill="#55649b" fill-rule="evenodd" stroke-width=".9293"/>
 <g transform="translate(0,16)">
  <g transform="translate(1,1)"></g>
 </g>
 <g transform="matrix(1.1739 0 0 1.1739 3.8267 -14.957)">
  <g>
   <path d="m32.999 28-12.999 8.9994-5.9996-6.9996-12.149 7.8098v2.0015l12.149-7.8098 5.9996 6.9996 12.999-8.9994 13.149 13.147v-1.9999l-13.149-13.147v-0.001664z" fill="#bac5e5"/>
   <path d="m8.6662 17.852c-3.7754 0-6.8149 3.0394-6.8149 6.8149v14.144l12.149-7.8115 5.9996 6.9996 12.999-8.9994 13.149 13.147v-17.48c0-3.7754-3.0394-6.8149-6.8149-6.8149h-30.667z" fill="#7e8cc0"/>
  </g>
  <g transform="translate(0,16)">
   <g fill="#ffcf67">
    <path d="m16 15c0 1.105-0.895 2-2 2s-2-0.895-2-2 0.895-2 2-2 2 0.895 2 2"/>
    <path d="m22 22c0 1.105-0.895 2-2 2s-2-0.895-2-2 0.895-2 2-2 2 0.895 2 2"/>
    <path d="m35 13c0 1.105-0.895 2-2 2s-2-0.895-2-2 0.895-2 2-2 2 0.895 2 2"/>
   </g>
  </g>
 </g>
</svg>
