<svg xmlns="http://www.w3.org/2000/svg" width="64" height="64"><path fill="#55649b" fill-rule="evenodd" d="M42.564 19.086 27.304 29.65l-7.043-8.217-14.262 9.17V50c0 4.432 3.568 8 8 8h36c4.432 0 8-3.568 8-8V34.52L42.563 19.085z"/><path fill="#bac5e5" d="m42.564 17.912-15.26 10.565-7.042-8.217L6 29.428v2.35l14.262-9.169 7.043 8.217 15.26-10.564L58 35.695v-2.348L42.564 17.914v-.002z"/><path fill="#7e8cc0" d="M14 6c-4.432 0-8 3.567-8 8v16.603l14.262-9.17 7.043 8.217 15.26-10.564L58 34.519v-20.52c0-4.432-3.568-8-8-8H14z"/><g fill="#ffcf67"><path d="M22.61 21.434a2.347 2.347 0 1 1-4.695.001 2.347 2.347 0 0 1 4.694-.001M29.652 29.651a2.347 2.347 0 1 1-4.694.001 2.347 2.347 0 0 1 4.694 0M44.913 19.086a2.347 2.347 0 1 1-4.694.001 2.347 2.347 0 0 1 4.694 0"/></g></svg>