<svg width="64" height="64" version="1.1" xmlns="http://www.w3.org/2000/svg">
 <path class="shp36" d="m32 59c14.911 0 27-12.089 27-27s-12.089-27-27-27-27 12.089-27 27 12.089 27 27 27z" fill="#474747" stroke-width=".96429"/>
 <circle cx="32" cy="32" r="10" fill="gray" style="paint-order:stroke fill markers"/>
 <g stroke-width="3.78">
  <path d="m32.706 31.99 15.558 15.558-.71.707-15.558-15.558z" fill="#5fd37d"/>
  <path d="M31.995 14.998A1.002 1.002 0 0 0 30.993 16a1.002 1.002 0 0 0 .004.07v15.916a1.002 1.002 0 0 0 1.002.99A1.002 1.002 0 0 0 33 31.976a1.002 1.002 0 0 0-.004-.07V16a1.002 1.002 0 0 0 0-.012 1.002 1.002 0 0 0-1.002-.99z" fill="#fff"/>
 </g>
</svg>
