<svg width="64" height="64" version="1.1" viewBox="0 0 16.933 16.933" xmlns="http://www.w3.org/2000/svg">
 <circle cx="8.4665" cy="8.4665" r="6.879" fill="#fff" fill-rule="evenodd" style="paint-order:normal"/>
 <g transform="matrix(1.0385 0 0 1.0385 -.32558 -.32614)" stroke-width=".17804">
  <path d="m5.08 5.718c-0.385 0-0.751 0.054-0.97 0.307-0.337 0.386-0.205 1.156-0.205 1.624 0 0.716-0.049 1.477 0.097 2.184 0.156 0.755 0.707 1.574 1.326 2.086 0.449 0.37 0.931 0.634 1.487 0.849 0.546 0.19 1.068 0.277 1.614 0.282 0.502 0 1.004-0.053 1.482-0.204 0.487-0.156 0.98-0.38 1.384-0.668 0.424-0.327 0.766-0.649 1.039-1.058 0.195-0.302 0.36-0.63 0.482-0.965 0.302-0.83 0.215-1.804 0.215-2.667 0-0.39 0.102-1.092-0.161-1.424-0.395-0.497-1.273-0.321-1.926-0.321h-5.016c-0.249 0-0.551-0.034-0.848-0.034zm5.557 2.126c0.107 0 0.215 0.029 0.332 0.097 0.263 0.156 0.346 0.537 0.16 0.77-0.17 0.22-0.424 0.395-0.638 0.576l-1.107 0.96c-0.243 0.22-0.497 0.527-0.858 0.56-0.36 0.035-0.6-0.233-0.833-0.443l-1.16-1.009c-0.24-0.195-0.576-0.414-0.742-0.668-0.234-0.356 0.04-0.785 0.464-0.838 0.273-0.034 0.463 0.117 0.653 0.273l1.082 0.936c0.112 0.097 0.297 0.35 0.453 0.37 0.176 0.025 0.444-0.322 0.556-0.42l0.804-0.691c0.234-0.21 0.507-0.478 0.83-0.478" fill="#ee4055"/>
  <path d="m4.877 3.545 0.995-0.57a6.128 6.128 0 0 1 2.568-0.56v-0.827c-0.94 0.074-1.83 0.193-2.706 0.57-0.223 0.097-0.7 0.239-0.828 0.456-0.122 0.206-0.029 0.693-0.029 0.931z" fill="#51bbb7"/>
  <path d="m8.44 1.588v0.827a5.96 5.96 0 0 1 2.485 0.532l1.077 0.598c0-0.238 0.102-0.778-0.028-0.978-0.128-0.197-0.588-0.333-0.8-0.424a7.028 7.028 0 0 0-2.734-0.555z" fill="#ef4155"/>
  <path d="m12.002 2.58c0 0.265-0.087 0.713 0.017 0.957 0.068 0.16 0.318 0.286 0.445 0.4 0.312 0.282 0.611 0.59 0.859 0.933 0.677 0.936 1.19 2.132 1.192 3.307 2e-3 1.307-0.268 2.532-0.997 3.64-0.263 0.4-0.583 0.768-0.933 1.095-0.153 0.142-0.484 0.32-0.566 0.512-0.101 0.238-0.017 0.671-0.017 0.93 0.778-0.295 1.5-1.12 1.986-1.765 1.81-2.411 1.81-5.834 0-8.244-0.486-0.646-1.208-1.471-1.986-1.765z" fill="#fbb74b"/>
  <path d="m4.85 2.608c-0.87 0.586-1.618 1.263-2.19 2.15-1.547 2.4-1.4 5.584 0.308 7.858 0.489 0.65 1.162 1.357 1.91 1.71 0-0.25 0.082-0.672-0.017-0.902-0.08-0.186-0.39-0.338-0.536-0.478a6.558 6.558 0 0 1-0.964-1.13 6.138 6.138 0 0 1-0.994-3.777 6.07 6.07 0 0 1 1.362-3.391l0.679-0.709 0.441-0.38c0.099-0.161 0.073-0.78 0-0.951z" fill="#83edb9"/>
  <path d="m4.877 13.416c0 0.232-0.09 0.702 0.029 0.904 0.128 0.217 0.605 0.359 0.828 0.455 0.876 0.377 1.765 0.497 2.706 0.57v-0.799a6.011 6.011 0 0 1-2.651-0.6c-0.272-0.133-0.64-0.288-0.829-0.53z" fill="#51bbb7"/>
  <path d="m8.44 14.546v0.8c0.928 0 1.88-0.19 2.734-0.556 0.212-0.09 0.672-0.226 0.8-0.424 0.127-0.195 0.028-0.718 0.028-0.95l-1.077 0.598a5.96 5.96 0 0 1-2.485 0.532m4.777-1.13 0.028 0.027z" fill="#ef4155"/>
 </g>
</svg>
