<?xml version="1.0" encoding="UTF-8" standalone="no"?>
<!-- Created with Inkscape (http://www.inkscape.org/) -->

<svg
   xmlns:dc="http://purl.org/dc/elements/1.1/"
   xmlns:cc="http://creativecommons.org/ns#"
   xmlns:rdf="http://www.w3.org/1999/02/22-rdf-syntax-ns#"
   xmlns:svg="http://www.w3.org/2000/svg"
   xmlns="http://www.w3.org/2000/svg"
   xmlns:sodipodi="http://sodipodi.sourceforge.net/DTD/sodipodi-0.dtd"
   xmlns:inkscape="http://www.inkscape.org/namespaces/inkscape"
   width="64"
   height="64"
   viewBox="0 0 16.933333 16.933333"
   version="1.1"
   id="svg4572"
   inkscape:version="0.92.4 (5da689c313, 2019-01-14)"
   sodipodi:docname="goa-account-lastfm.svg">
  <title
     id="title4611">Canvas icon theme</title>
  <defs
     id="defs4566">
    <linearGradient
       id="b"
       x1="1"
       x2="0"
       y1="48"
       gradientUnits="userSpaceOnUse"
       gradientTransform="rotate(-90,24,24)">
      <stop
         stop-color="#e2262b"
         id="stop2" />
      <stop
         offset="1"
         stop-color="#e4383e"
         id="stop4" />
    </linearGradient>
  </defs>
  <sodipodi:namedview
     id="base"
     pagecolor="#ffffff"
     bordercolor="#666666"
     borderopacity="1.0"
     inkscape:pageopacity="0.0"
     inkscape:pageshadow="2"
     inkscape:zoom="3.959798"
     inkscape:cx="30.051128"
     inkscape:cy="46.372592"
     inkscape:document-units="px"
     inkscape:current-layer="layer1"
     showgrid="true"
     units="px"
     width="64px"
     showguides="true"
     inkscape:guide-bbox="true"
     inkscape:window-width="1221"
     inkscape:window-height="715"
     inkscape:window-x="595"
     inkscape:window-y="434"
     inkscape:window-maximized="0"
     inkscape:snap-bbox="true"
     inkscape:bbox-nodes="true"
     inkscape:snap-bbox-edge-midpoints="true">
    <inkscape:grid
       type="xygrid"
       id="grid4582" />
    <sodipodi:guide
       position="1.0583333,15.875"
       orientation="0,1"
       id="guide4584"
       inkscape:locked="false" />
    <sodipodi:guide
       position="1.0583333,1.0583333"
       orientation="1,0"
       id="guide4586"
       inkscape:locked="false" />
    <sodipodi:guide
       position="15.875,15.875"
       orientation="1,0"
       id="guide4588"
       inkscape:locked="false" />
    <sodipodi:guide
       position="1.0583333,1.0583333"
       orientation="0,1"
       id="guide4590"
       inkscape:locked="false" />
    <sodipodi:guide
       position="8.4666665,8.4666665"
       orientation="0,1"
       id="guide822"
       inkscape:locked="false" />
    <sodipodi:guide
       position="8.4666665,8.4666665"
       orientation="1,0"
       id="guide824"
       inkscape:locked="false" />
  </sodipodi:namedview>
  <metadata
     id="metadata4569">
    <rdf:RDF>
      <cc:Work
         rdf:about="">
        <dc:format>image/svg+xml</dc:format>
        <dc:type
           rdf:resource="http://purl.org/dc/dcmitype/StillImage" />
        <dc:title>Canvas icon theme</dc:title>
        <cc:license
           rdf:resource="http://creativecommons.org/licenses/by-nc-sa/4.0/" />
        <dc:creator>
          <cc:Agent>
            <dc:title>Vince Liuice</dc:title>
          </cc:Agent>
        </dc:creator>
      </cc:Work>
      <cc:License
         rdf:about="http://creativecommons.org/licenses/by-nc-sa/4.0/">
        <cc:permits
           rdf:resource="http://creativecommons.org/ns#Reproduction" />
        <cc:permits
           rdf:resource="http://creativecommons.org/ns#Distribution" />
        <cc:requires
           rdf:resource="http://creativecommons.org/ns#Notice" />
        <cc:requires
           rdf:resource="http://creativecommons.org/ns#Attribution" />
        <cc:prohibits
           rdf:resource="http://creativecommons.org/ns#CommercialUse" />
        <cc:permits
           rdf:resource="http://creativecommons.org/ns#DerivativeWorks" />
        <cc:requires
           rdf:resource="http://creativecommons.org/ns#ShareAlike" />
      </cc:License>
    </rdf:RDF>
  </metadata>
  <g
     inkscape:label="Layer 1"
     inkscape:groupmode="layer"
     id="layer1"
     transform="translate(0,-280.06667)">
    <circle
       style="opacity:1;fill:#e33035;fill-opacity:1;stroke:none;stroke-width:0.49136901;stroke-miterlimit:4;stroke-dasharray:none;stroke-opacity:0.03921569;paint-order:stroke markers fill"
       id="path13"
       cx="8.4666662"
       cy="288.53333"
       r="6.8791666" />
    <g
       transform="matrix(0.23515861,0,0,0.23515861,2.8223237,282.88905)"
       id="g11"
       style="fill:#ffffff;stroke-width:0.37504235">
      <path
         style="fill:#ffffff;stroke-width:0.37504235"
         inkscape:connector-curvature="0"
         d="m 17.586,31.926 c -0.52,-0.07 -1.445,-0.37 -2.062,-0.668 -4.02,-1.926 -5.664,-6.777 -3.684,-10.863 2.262,-4.672 8.434,-5.863 12.148,-2.344 1.074,1.017 1.55,1.884 3.168,5.728 1.688,4.02 2,4.652 2.547,5.188 0.586,0.57 1.13,0.762 2.168,0.762 1.708,0 2.927,-1.055 2.927,-2.527 0,-1.245 -0.438,-1.644 -2.672,-2.437 -3.402,-1.227 -4.504,-2.336 -4.508,-4.563 0,-1.188 0.3,-1.98 1.066,-2.8 1.098,-1.173 2.992,-1.56 4.668,-0.978 0.716,0.254 2.212,1.578 2.212,1.957 0,0.183 -0.867,0.745 -1.348,0.878 -0.254,0.066 -0.473,-0.02 -0.766,-0.3 -0.594,-0.57 -0.996,-0.747 -1.707,-0.747 -1.226,0 -1.987,0.74 -1.987,1.93 0,1.19 0.484,1.59 2.902,2.407 3.332,1.125 4.316,2.14 4.336,4.492 0.02,2.03 -0.894,3.495 -2.714,4.362 -0.828,0.39 -1.11,0.44 -2.46,0.44 -1.93,-0.003 -2.798,-0.358 -3.88,-1.577 -0.727,-0.82 -1.465,-2.36 -3.828,-7.977 -0.98,-2.328 -2.238,-3.47 -4.336,-3.918 -1.063,-0.227 -2.543,-0.016 -3.508,0.492 -0.94,0.492 -1.992,1.602 -2.488,2.617 -0.41,0.823 -0.45,1.054 -0.45,2.487 0,1.367 0.056,1.69 0.4,2.44 0.52,1.146 1.542,2.204 2.667,2.774 0.813,0.41 1.066,0.462 2.363,0.462 1.246,0 1.566,-0.06 2.31,-0.414 0.847,-0.414 1.987,-1.43 2.452,-2.19 l 0.242,-0.396 0.477,1.09 c 0.266,0.602 0.48,1.168 0.48,1.27 0,0.3 -1.078,1.285 -2.066,1.898 -1.5,0.926 -3.222,1.273 -5.062,1.023 M 17.589,31.92"
         transform="matrix(1.38514,0,0,1.38514,-9.238,-9.25)"
         id="path9" />
    </g>
  </g>
</svg>
