<svg width="64" height="64" version="1.1" xmlns="http://www.w3.org/2000/svg">
 <path d="m32 5c-14.872 0-27 12.168-27 27v19.8c0 3.9888 3.2112 7.2001 7.2 7.2001h19.8c14.912 0 27-12.088 27-27s-12.128-27-27-27z" fill="#42a5e9" stroke-width="1.8"/>
 <path d="m37.4 14c4.9706 0 9 4.0294 9 9v0.90001c1e-5 1.4912-1.2088 2.7-2.7 2.7-1.4912-1e-6 -2.7-1.2088-2.7-2.7v-0.90001c-2.3e-5 -1.9882-1.6118-3.6-3.6-3.6-1.9882 0-3.6 1.6117-3.6 3.6v7.2001h4.5c1.4958 0 2.7 1.2041 2.7 2.7 0 1.4958-1.2042 2.7-2.7 2.7h-4.5v5.4c-3.3e-5 5.9647-4.8353 10.8-10.8 10.8s-10.8-4.8353-10.8-10.8c-5e-6 -5.9647 4.8353-10.8 10.8-10.8h3.6v5.4h-3.6c-2.9824 0-5.4 2.4177-5.4 5.4 1.7e-5 2.9823 2.4177 5.4 5.4 5.4s5.4-2.4176 5.4-5.4v-18c2e-6 -4.9706 4.0294-9 9-9z" fill="#ffffff" stroke-width="1.8"/>
</svg>
