<svg xmlns="http://www.w3.org/2000/svg" width="64" height="64" viewBox="0 0 16.933 16.933"><g stroke-width=".927" transform="matrix(1.0384 0 0 1.0385 -.325 -291.17)"><circle cx="8.467" cy="288.53" r="6.879" fill="#c2352a" style="paint-order:stroke markers fill"/><path fill="#fff" fill-rule="evenodd" d="M9.356 284.75a.45.45 0 0 0-.242.065l-5.135 2.995-2.144-1.071a7 7 0 0 0-.182.905l2.144 1.071a.45.45 0 0 0 .422-.013l5.344-3.118a.445.445 0 0 0-.207-.833zm0 1.782a.45.45 0 0 0-.242.064l-5.135 2.996-2.385-1.192-.007.137a7 7 0 0 0 .066.888l2.144 1.071a.45.45 0 0 0 .422-.013l5.344-3.118a.445.445 0 0 0-.207-.833m0 1.781a.45.45 0 0 0-.242.064l-5.134 2.997-2.16-1.08a7 7 0 0 0 .453 1.222l1.525.762a.45.45 0 0 0 .422-.013l5.344-3.117a.445.445 0 0 0-.207-.834z"/></g></svg>