<?xml version="1.0" encoding="UTF-8" standalone="no"?>
<!-- Created with Inkscape (http://www.inkscape.org/) -->

<svg
   xmlns:dc="http://purl.org/dc/elements/1.1/"
   xmlns:cc="http://creativecommons.org/ns#"
   xmlns:rdf="http://www.w3.org/1999/02/22-rdf-syntax-ns#"
   xmlns:svg="http://www.w3.org/2000/svg"
   xmlns="http://www.w3.org/2000/svg"
   xmlns:sodipodi="http://sodipodi.sourceforge.net/DTD/sodipodi-0.dtd"
   xmlns:inkscape="http://www.inkscape.org/namespaces/inkscape"
   width="64"
   height="64"
   viewBox="0 0 16.933333 16.933333"
   version="1.1"
   id="svg4572"
   inkscape:version="0.92.4 (5da689c313, 2019-01-14)"
   sodipodi:docname="goa-account-twitter.svg">
  <title
     id="title4611">Canvas icon theme</title>
  <defs
     id="defs4566">
    <linearGradient
       id="b"
       x1="1"
       x2="0"
       y1="48"
       gradientUnits="userSpaceOnUse"
       gradientTransform="rotate(-90,24,24)">
      <stop
         stop-color="#e2262b"
         id="stop2" />
      <stop
         offset="1"
         stop-color="#e4383e"
         id="stop4" />
    </linearGradient>
  </defs>
  <sodipodi:namedview
     id="base"
     pagecolor="#ffffff"
     bordercolor="#666666"
     borderopacity="1.0"
     inkscape:pageopacity="0.0"
     inkscape:pageshadow="2"
     inkscape:zoom="3.959798"
     inkscape:cx="-11.238857"
     inkscape:cy="46.372592"
     inkscape:document-units="px"
     inkscape:current-layer="layer1"
     showgrid="true"
     units="px"
     width="64px"
     showguides="true"
     inkscape:guide-bbox="true"
     inkscape:window-width="1221"
     inkscape:window-height="715"
     inkscape:window-x="462"
     inkscape:window-y="375"
     inkscape:window-maximized="0"
     inkscape:snap-bbox="true"
     inkscape:bbox-nodes="true"
     inkscape:snap-bbox-edge-midpoints="true">
    <inkscape:grid
       type="xygrid"
       id="grid4582" />
    <sodipodi:guide
       position="1.0583333,15.875"
       orientation="0,1"
       id="guide4584"
       inkscape:locked="false" />
    <sodipodi:guide
       position="1.0583333,1.0583333"
       orientation="1,0"
       id="guide4586"
       inkscape:locked="false" />
    <sodipodi:guide
       position="15.875,15.875"
       orientation="1,0"
       id="guide4588"
       inkscape:locked="false" />
    <sodipodi:guide
       position="1.0583333,1.0583333"
       orientation="0,1"
       id="guide4590"
       inkscape:locked="false" />
    <sodipodi:guide
       position="8.4666665,8.4666665"
       orientation="0,1"
       id="guide822"
       inkscape:locked="false" />
    <sodipodi:guide
       position="8.4666665,8.4666665"
       orientation="1,0"
       id="guide824"
       inkscape:locked="false" />
  </sodipodi:namedview>
  <metadata
     id="metadata4569">
    <rdf:RDF>
      <cc:Work
         rdf:about="">
        <dc:format>image/svg+xml</dc:format>
        <dc:type
           rdf:resource="http://purl.org/dc/dcmitype/StillImage" />
        <dc:title>Canvas icon theme</dc:title>
        <cc:license
           rdf:resource="http://creativecommons.org/licenses/by-nc-sa/4.0/" />
        <dc:creator>
          <cc:Agent>
            <dc:title>Vince Liuice</dc:title>
          </cc:Agent>
        </dc:creator>
      </cc:Work>
      <cc:License
         rdf:about="http://creativecommons.org/licenses/by-nc-sa/4.0/">
        <cc:permits
           rdf:resource="http://creativecommons.org/ns#Reproduction" />
        <cc:permits
           rdf:resource="http://creativecommons.org/ns#Distribution" />
        <cc:requires
           rdf:resource="http://creativecommons.org/ns#Notice" />
        <cc:requires
           rdf:resource="http://creativecommons.org/ns#Attribution" />
        <cc:prohibits
           rdf:resource="http://creativecommons.org/ns#CommercialUse" />
        <cc:permits
           rdf:resource="http://creativecommons.org/ns#DerivativeWorks" />
        <cc:requires
           rdf:resource="http://creativecommons.org/ns#ShareAlike" />
      </cc:License>
    </rdf:RDF>
  </metadata>
  <g
     inkscape:label="Layer 1"
     inkscape:groupmode="layer"
     id="layer1"
     transform="translate(0,-280.06667)">
    <circle
       style="opacity:1;fill:#00abec;fill-opacity:1;stroke:none;stroke-width:0.49136901;stroke-miterlimit:4;stroke-dasharray:none;stroke-opacity:0.03921569;paint-order:stroke markers fill"
       id="path13"
       cx="8.4666662"
       cy="288.53333"
       r="6.8791666" />
    <path
       inkscape:connector-curvature="0"
       d="m 9.4021333,285.47231 c -0.6691537,0.24949 -1.0913876,0.89056 -1.0436494,1.59344 l 0.016459,0.27158 -0.2674981,-0.033 C 7.133754,287.17681 6.2827025,286.7455 5.5600495,286.02121 l -0.3530956,-0.35967 -0.091361,0.26597 c -0.1925992,0.59177 -0.069137,1.21729 0.3316961,1.6379 0.2139985,0.23113 0.1654357,0.26504 -0.2041216,0.12662 -0.1283985,-0.0436 -0.2411589,-0.0774 -0.2518601,-0.06 -0.037037,0.0386 0.091361,0.5424 0.1925993,0.74159 0.1390995,0.27748 0.4230563,0.54815 0.7333525,0.70864 l 0.2625582,0.12692 -0.3102966,0.006 c -0.3004197,0 -0.3102965,0.006 -0.2790205,0.12194 0.1069992,0.35967 0.5300553,0.74159 1.0008498,0.90786 l 0.3316958,0.11603 -0.2888973,0.177 c -0.4279949,0.25416 -0.9317119,0.39837 -1.4329595,0.40905 -0.2411528,0.006 -0.4386889,0.028 -0.4386889,0.0438 0,0.055 0.6526923,0.36462 1.0329493,0.48643 1.1399478,0.35967 2.4938932,0.20501 3.5112042,-0.40907 0.7226534,-0.43703 1.4453064,-1.30538 1.7827634,-2.14655 0.181898,-0.44857 0.363796,-1.26668 0.363796,-1.66259 0,-0.25416 0.01565,-0.28806 0.316058,-0.59178 0.176957,-0.177 0.342395,-0.37121 0.374495,-0.42636 0.05432,-0.10546 0.04856,-0.10546 -0.224697,-0.009 -0.455156,0.1655 -0.519354,0.14403 -0.293834,-0.10545 0.165436,-0.17701 0.363796,-0.49798 0.363796,-0.5918 0,-0.0156 -0.08066,0.009 -0.171197,0.06 -0.0963,0.055 -0.310297,0.13812 -0.470794,0.18759 l -0.289719,0.0939 -0.262558,-0.1826 c -0.144037,-0.0995 -0.347335,-0.20998 -0.454333,-0.24357 -0.273259,-0.0774 -0.6905541,-0.066 -0.9366505,0.0218"
       style="fill:#ffffff;stroke-width:0.26458332"
       id="path2" />
  </g>
</svg>
