<svg width="64" height="64" version="1.1" xmlns="http://www.w3.org/2000/svg" xmlns:xlink="http://www.w3.org/1999/xlink">
 <rect x="5" y="5" width="54" height="54" rx="27" ry="27" color="#000000" fill="#4b69a4" stroke-width="1.9286"/>
 <g transform="matrix(.89781 0 0 .89477 4.1122 2.4414)">
  <path d="m21.382 30.132c-6.9216 0-12.596 5.6744-12.596 12.596 0 6.9216 5.6744 12.596 12.596 12.596 6.9218 0 12.596-5.6744 12.596-12.596v-12.596zm0 5.7857h6.8102v6.8102c0 3.7912-3.019 6.8102-6.8102 6.8102-3.7912 0-6.8104-3.0188-6.8104-6.8102 0-3.7912 3.0192-6.8102 6.8104-6.8102z" color="#000000" color-rendering="auto" dominant-baseline="auto" image-rendering="auto" opacity=".35" shape-rendering="auto" solid-color="#000000" stop-color="#000000" stroke-width="1.9286" style="font-feature-settings:normal;font-variant-alternates:normal;font-variant-caps:normal;font-variant-east-asian:normal;font-variant-ligatures:normal;font-variant-numeric:normal;font-variant-position:normal;font-variation-settings:normal;inline-size:0;isolation:auto;mix-blend-mode:normal;shape-margin:0;shape-padding:0;text-decoration-color:#000000;text-decoration-line:none;text-decoration-style:solid;text-indent:0;text-orientation:mixed;text-transform:none;white-space:normal"/>
  <path d="m40.743 10.746c-6.9218 0-12.6 5.6744-12.6 12.596v12.596h12.6c6.9216 0 12.596-5.6744 12.596-12.596 0-6.9216-5.6744-12.596-12.596-12.596zm0 5.7857c3.7912 0 6.8102 3.0188 6.8102 6.8102 0 3.7912-3.0192 6.8102-6.8102 6.8102h-6.814v-6.8102c0-3.7912 3.0226-6.8102 6.814-6.8102z" color="#000000" color-rendering="auto" dominant-baseline="auto" image-rendering="auto" opacity=".35" shape-rendering="auto" solid-color="#000000" stop-color="#000000" stroke-width="1.9286" style="font-feature-settings:normal;font-variant-alternates:normal;font-variant-caps:normal;font-variant-east-asian:normal;font-variant-ligatures:normal;font-variant-numeric:normal;font-variant-position:normal;font-variation-settings:normal;inline-size:0;isolation:auto;mix-blend-mode:normal;shape-margin:0;shape-padding:0;text-decoration-color:#000000;text-decoration-line:none;text-decoration-style:solid;text-indent:0;text-orientation:mixed;text-transform:none;white-space:normal"/>
  <path id="b" d="m34.052 30.071v12.644c0 6.998-5.6739 12.672-12.672 12.672-1.0617 0-1.8166-0.11967-2.7995-0.37663-1.4331-0.3752-2.6042-1.5501-2.6045-2.9168 0-1.6521 1.199-2.8537 2.9916-2.8537 0.85305 0 1.1627 0.16368 2.4124 0.16368 3.6894 0 6.6821-2.9885 6.6889-6.6779v-5.8123a0.9439 0.9439 0 0 0-0.94512-0.94269l-4.3941-8.18e-4c-1.6371 0-2.96-1.3059-2.96-2.9474-8.11e-4 -1.6517 1.3366-2.9523 2.9914-2.9523" fill="#ffffff" shape-rendering="auto" stroke-width=".20281"/>
  <use transform="rotate(180 31.061 33.035)" width="1" height="1" fill="#ffffff" xlink:href="#b"/>
 </g>
</svg>
