<svg xmlns="http://www.w3.org/2000/svg" width="64" height="64" viewBox="0 0 16.933 16.933"><g stroke-width=".192"><path d="M5.08 5.718c-.385 0-.751.054-.97.307-.337.386-.205 1.156-.205 1.624 0 .716-.049 1.477.097 2.184.156.755.707 1.574 1.326 2.086.449.37.931.634 1.487.849.546.19 1.068.277 1.614.282.502 0 1.004-.053 1.482-.204.487-.156.98-.38 1.384-.668.424-.327.766-.649 1.039-1.058.195-.302.36-.63.482-.965.302-.83.215-1.804.215-2.667 0-.39.102-1.092-.161-1.424-.395-.497-1.273-.321-1.926-.321H5.928c-.249 0-.551-.034-.848-.034zm5.557 2.126c.107 0 .215.029.332.097.263.156.346.537.16.77-.17.22-.424.395-.638.576l-1.107.96c-.243.22-.497.527-.858.56-.36.035-.6-.233-.833-.443l-1.16-1.009c-.24-.195-.576-.414-.742-.668-.234-.356.04-.785.464-.838.273-.034.463.117.653.273l1.082.936c.112.097.297.35.453.37.176.025.444-.322.556-.42l.804-.691c.234-.21.507-.478.83-.478" fill="#ee4055"/><path d="M4.877 3.545l.995-.57a6.128 6.128 0 0 1 2.568-.56v-.827c-.94.074-1.83.193-2.706.57-.223.097-.7.239-.828.456-.122.206-.029.693-.029.931z" fill="#51bbb7"/><path d="M8.44 1.588v.827a5.96 5.96 0 0 1 2.485.532l1.077.598c0-.238.102-.778-.028-.978-.128-.197-.588-.333-.8-.424a7.028 7.028 0 0 0-2.734-.555z" fill="#ef4155"/><path d="M12.002 2.58c0 .265-.087.713.017.957.068.16.318.286.445.4.312.282.611.59.859.933.677.936 1.19 2.132 1.192 3.307.002 1.307-.268 2.532-.997 3.64-.263.4-.583.768-.933 1.095-.153.142-.484.32-.566.512-.101.238-.017.671-.017.93.778-.295 1.5-1.12 1.986-1.765 1.81-2.411 1.81-5.834 0-8.244-.486-.646-1.208-1.471-1.986-1.765z" fill="#fbb74b"/><path d="M4.85 2.608c-.87.586-1.618 1.263-2.19 2.15-1.547 2.4-1.4 5.584.308 7.858.489.65 1.162 1.357 1.91 1.71 0-.25.082-.672-.017-.902-.08-.186-.39-.338-.536-.478a6.558 6.558 0 0 1-.964-1.13 6.138 6.138 0 0 1-.994-3.777 6.07 6.07 0 0 1 1.362-3.391l.679-.709.441-.38c.099-.161.073-.78 0-.951z" fill="#83edb9"/><path d="M4.877 13.416c0 .232-.09.702.029.904.128.217.605.359.828.455.876.377 1.765.497 2.706.57v-.799a6.011 6.011 0 0 1-2.651-.6c-.272-.133-.64-.288-.829-.53z" fill="#51bbb7"/><path d="M8.44 14.546v.8c.928 0 1.88-.19 2.734-.556.212-.09.672-.226.8-.424.127-.195.028-.718.028-.95l-1.077.598a5.96 5.96 0 0 1-2.485.532m4.777-1.13l.028.027z" fill="#ef4155"/></g></svg>