<svg width="64" height="64" version="1.1" viewBox="0 0 16.933 16.933" xmlns="http://www.w3.org/2000/svg">
 <g transform="translate(0 -280.07)">
  <circle cx="8.4665" cy="288.53" r="7.1436" fill="#1c2d44" style="paint-order:stroke markers fill"/>
  <g fill="#fff" stroke="#1c2d44" stroke-width=".265">
   <path d="M6.814 286.592a.884.884 0 1 1-1.766 0 .884.884 0 1 1 1.766 0zM5.93 289.668c0 .896-.725 1.622-1.619 1.622a1.62 1.62 0 0 1-1.617-1.622 1.619 1.619 0 1 1 3.236 0z"/>
   <path d="m7.886 288.59c0 0.967-0.783 1.753-1.75 1.753a1.752 1.752 0 0 1-1.748-1.754 1.75 1.75 0 0 1 1.749-1.752 1.75 1.75 0 0 1 1.749 1.752zm3.436-0.711a1.619 1.619 0 0 1-3.235 0 1.62 1.62 0 0 1 1.617-1.622 1.62 1.62 0 0 1 1.618 1.622z"/>
   <path d="M9.548 286.617a1.619 1.619 0 1 1-3.236 0 1.619 1.619 0 0 1 3.236 0zM14.24 290.295a.926.926 0 1 1-1.853 0 .926.926 0 0 1 1.853 0z"/>
   <path d="M13.097 289.581a1.75 1.75 0 0 1-1.75 1.753 1.75 1.75 0 0 1-1.749-1.753c0-.97.783-1.754 1.749-1.754.967 0 1.75.785 1.75 1.754zM6.955 290.384a.925.925 0 1 1-1.85 0 .925.925 0 1 1 1.85 0z"/>
   <path d="M10.693 289.063c0 1.234-1 2.234-2.23 2.234-1.232 0-2.23-1-2.23-2.235 0-1.234.998-2.234 2.23-2.234 1.23 0 2.23 1 2.23 2.235z"/>
  </g>
 </g>
</svg>
