<svg width="64" height="64" version="1.1" xmlns="http://www.w3.org/2000/svg" xmlns:xlink="http://www.w3.org/1999/xlink">
 <rect x="5" y="5" width="54" height="54" ry="27" fill="#f2f2f2" stroke-width=".9104"/>
 <g transform="matrix(1.3333 0 0 1.3333 -5.6045 -26.215)" stroke-width=".75">
  <path transform="matrix(.75 0 0 .75 4.2034 19.661)" d="m28.666 17.238-3.957 1.334 0.625 4-3.416 1.875-1.918-1.875-4 4 2.666 2.666v7.25l0.66797 0.042969v2.166l2.666 1.041v-2.291c1.98 0.43067 2.872 0.61636 4 0.70703v2.084l2.666 0.79297v-2.459h6.668v2.459l2.666-0.79297v-2.084c1.128-0.090667 2.02-0.27636 4-0.70703v2.291l2.666-1.041v-2.166l0.66797-0.042969v-7.25l2.666-2.666-4-4-1.918 1.875-3.416-1.875 0.625-4-3.959-1.334-1.5 2.666h-3.666l-1.5-2.666zm-3.998 12c1.8413 0 3.334 1.4927 3.334 3.334s-1.4927 3.332-3.334 3.332-3.334-1.4907-3.334-3.332 1.4927-3.334 3.334-3.334zm14.666 0c1.8413 0 3.334 1.4927 3.334 3.334s-1.4927 3.332-3.334 3.332-3.332-1.4907-3.332-3.332 1.4907-3.334 3.332-3.334zm-7.332 2.666c0.73867 0 1.332 0.59532 1.332 1.334v2.666c0 0.73867-0.59336 1.334-1.332 1.334s-1.334-0.59532-1.334-1.334v-2.666c0-0.73867 0.59532-1.334 1.334-1.334zm-15.584 4.668 0.042969 2.666c3.2213 4.9213 8.0797 7.8147 15.541 7.5 7.4653 0.31467 12.32-2.5787 15.541-7.5l0.041015-2.666-2.25 0.70703v1.959c-0.652 0.42-2.6667 0.97132-4 1.334v-2.168l-2.668 0.41797v1.75c-0.75467 0.63733-2.1613 1.058-4 1.334v-2.666h-5.332v2.666c-1.8387-0.276-3.2453-0.69665-4-1.334v-1.75l-2.668-0.41797v2.168c-1.3333-0.36267-3.348-0.91398-4-1.334v-1.959l-2.248-0.70703z" fill="#47a5bf"/>
  <path d="m24.204 44.09a1.5 1.5 0 1 1-3 0 1.5 1.5 0 1 1 3 0z" fill="#4d4d4d"/>
  <path d="m35.204 44.09a1.5 1.5 0 1 1-3 0 1.5 1.5 0 1 1 3 0z" fill="#4d4d4d"/>
 </g>
</svg>
