<svg width="64" height="64" version="1.1" viewBox="0 0 16.933 16.933" xmlns="http://www.w3.org/2000/svg">
 <path d="m15.61 8.4662a7.1435 7.1435 0 0 1-7.1435 7.1435 7.1435 7.1435 0 0 1-7.1435-7.1435 7.1435 7.1435 0 0 1 7.1435-7.1435 7.1435 7.1435 0 0 1 7.1435 7.1435z" fill="#9c80db" stroke-width=".26457"/>
 <rect x="4.4978" y="4.4978" width="7.9373" height="7.9373" rx="1.3229" ry="1.3229" fill="#303030" style="paint-order:markers stroke fill"/>
 <path d="m5.2916 11.02h3.1059v0.62118h-3.1059z" fill="#f9f9f9" stroke-width=".26457"/>
 <g fill="#fff" stroke-width=".1127" aria-label="GO">
  <path d="m6.8538 8.8866c0.46431 0 0.8565-0.18032 1.0819-0.4012v-1.5056h-1.1856v0.54545h0.59053v0.65815c-0.094666 0.081142-0.25695 0.12622-0.41473 0.12622-0.65815 0-0.99173-0.43726-0.99173-1.163 0-0.71675 0.38768-1.1495 0.94215-1.1495 0.30203 0 0.49136 0.12171 0.65815 0.27949l0.35162-0.42374c-0.21638-0.22089-0.54996-0.42825-1.0323-0.42825-0.88805 0-1.6003 0.64463-1.6003 1.7446 0 1.1134 0.69421 1.7175 1.6003 1.7175z"/>
  <path d="m9.9777 8.8866c0.88355 0 1.4921-0.66266 1.4921-1.7446 0-1.0819-0.60856-1.7175-1.4921-1.7175s-1.4921 0.6311-1.4921 1.7175c0 1.0819 0.60856 1.7446 1.4921 1.7446zm0-0.57701c-0.49587 0-0.81142-0.4553-0.81142-1.1675 0-0.71675 0.31555-1.145 0.81142-1.145s0.81142 0.42825 0.81142 1.145c0 0.71225-0.31555 1.1675-0.81142 1.1675z"/>
 </g>
</svg>
