<svg xmlns="http://www.w3.org/2000/svg" width="64" height="64"><rect width="52" height="52" x="6" y="6" fill="#ececec" rx="8" ry="8"/><path fill="#abb5b8" d="m16.28 22.122 23.182-6.211.258.966-23.182 6.211z"/><rect width="40" height="25" x="12" y="22" fill="#f9ae37" rx="3" ry="3"/><rect width="11" height="5" x="15" y="25" fill="#fff" rx="1" ry="1"/><path fill="#45443f" d="M16 26v2h1v-2zm2 0v2h1v-2zm2 0v2h1v-2zm4 0v2h1v-2z" style="font-variation-settings:normal"/><path fill="#e64b3b" d="M22 25h1v5h-1z" style="font-variation-settings:normal"/><path fill="#26ab5e" d="M48 31h4v2h-4z" style="font-variation-settings:normal"/><path fill="#bb382c" d="M48 35h4v2h-4z" style="font-variation-settings:normal"/><path fill="#a3adad" d="M24.423 42.563a5.655 5.655 0 0 1-7.996-.14 5.655 5.655 0 0 1 .14-7.996 5.655 5.655 0 0 1 7.996.14 5.655 5.655 0 0 1-.14 7.996" style="font-variation-settings:normal"/><path fill="#5d6768" d="M16.537 34.455a6 6 0 0 0-.376.406l2.22 2.22.707-.708-2.218-2.218a6 6 0 0 0-.333.3m-.956 1.24a5.66 5.66 0 0 0-.74 2.702 5.655 5.655 0 0 0 5.556 5.752 5.655 5.655 0 0 0 5.752-5.556 5.655 5.655 0 0 0-5.556-5.752 5.66 5.66 0 0 0-2.888.736l.74.739a4.66 4.66 0 0 1 2.132-.476 4.655 4.655 0 0 1 4.572 4.736 4.655 4.655 0 0 1-4.735 4.573 4.655 4.655 0 0 1-4.573-4.736 4.7 4.7 0 0 1 .48-1.979z" style="font-variation-settings:normal"/><circle cx="39.5" cy="34.5" r="9.9" fill="#9aa4a6" style="font-variation-settings:normal"/><circle cx="-3.535" cy="-52.326" r="6.5" fill="#afb7ba" style="font-variation-settings:normal" transform="rotate(135)"/><circle cx="-3.535" cy="-52.326" r="2.5" fill="#45443f" style="font-variation-settings:normal" transform="rotate(135)"/><path fill="#5d6768" d="M39.5 24.6a9.9 9.9 0 0 0-9.9 9.9 9.9 9.9 0 0 0 9.9 9.9 9.9 9.9 0 0 0 9.9-9.9 9.9 9.9 0 0 0-9.9-9.9m0 1a8.9 8.9 0 0 1 8.9 8.9 8.9 8.9 0 0 1-8.9 8.9 8.9 8.9 0 0 1-8.9-8.9 8.9 8.9 0 0 1 8.9-8.9" style="font-variation-settings:normal"/></svg>