<svg id="App-Store" width="64" height="64" enable-background="new 0 0 1024 1024" image-rendering="optimizeSpeed" version="1.1" viewBox="0 0 64 64" xmlns="http://www.w3.org/2000/svg">
 <path d="m58.182 25.136c-0.06292-0.24883-0.13442-0.51484-0.20879-0.77797-0.14301-0.50054-0.30604-1.0067-0.48337-1.5073-0.36896-1.044-0.80943-2.0622-1.3243-3.069-0.21738-0.42331-0.45477-0.8552-0.7036-1.2813h-0.0014q-1.7505-2.9751-4.3661-5.5916c-5.2713-5.2713-11.638-7.9084-19.094-7.9084s-13.82 2.6371-19.092 7.9084c-5.2713 5.2713-7.9084 11.635-7.9084 19.092 0 7.4565 2.6371 13.823 7.9084 19.094 3.8927 3.8927 8.3804 6.3467 13.437 7.3592 1.8276 0.3661 3.704 0.54629 5.6546 0.54629 7.4565 0 13.823-2.6342 19.094-7.9055 2.7801-2.7801 4.828-5.8633 6.1408-9.2556 0.97245-2.5141 1.5445-5.1941 1.7132-8.0514 0.03433-0.58348 0.05148-1.1813 0.05148-1.7876 0-2.3882-0.26886-4.6679-0.81801-6.8644z" fill="#4d4d4d" stroke-width=".89649"/>
 <g transform="matrix(1.3846 0 0 1.3846 -11.885 -10.034)" fill-rule="evenodd">
  <path d="m27.363 34.026h17.332l-4.332 7.332h-17.336" fill="#2c88fa"/>
  <path d="m44.695 34.026-8.668-14.668h-8.664l8.664 14.668" fill="#fbc549"/>
  <path d="m23.027 41.358 8.668-14.668-4.332-7.332-8.668 14.668" fill="#0bb36f"/>
 </g>
</svg>
