<svg xmlns="http://www.w3.org/2000/svg" width="64" height="64" viewBox="0 0 16.933 16.933"><defs><linearGradient id="a" gradientUnits="userSpaceOnUse" x1="409.652" x2="409.652" y1="546.115" y2="499.857"><stop offset="0" stop-color="#79a8ca"/><stop offset="1" stop-color="#9ecbda"/></linearGradient></defs><g transform="matrix(.28962 0 0 .28962 -109.85 -143.163)"><rect height="45.13" ry="22.565" width="45.13" x="385.959" y="500.986" fill="url(#a)"/><path d="M409.085 512.505a.56.56 0 1 0 0 1.122h20.255c.04 0 .078-.015.116-.023l.276-.742-1.018-.357z" opacity=".8" fill="#649cc1"/><g fill-rule="evenodd"><path d="M389.527 509.299a23.883 23.883 0 0 0-4.756 14.326c0 13.159 10.594 23.678 23.753 23.678l8.313-17.027-15.439-3.163z" fill="#0f9d58"/><path d="M409.712 512.862l7.125 17.34-8.313 17.101a23.7 23.7 0 0 0 23.753-23.752c0-3.855-.93-7.477-2.545-10.69z" fill="#ffcd40"/><path d="M408.52 499.798c-7.798 0-14.672 3.737-18.998 9.506l11.872 17.81 15.439 3.087-7.126-17.34h20.02c-3.9-7.754-11.903-13.063-21.208-13.063z" fill="#db4437"/></g><path d="M408.571 512.798c6.094 0 11 4.906 11 11s-4.906 11-11 11-11-4.906-11-11 4.906-11 11-11z" fill="#f2f6f7"/><path d="M408.571 515.298c4.71 0 8.5 3.791 8.5 8.5s-3.79 8.5-8.5 8.5a8.481 8.481 0 0 1-8.5-8.5c0-4.709 3.791-8.5 8.5-8.5z" fill="#2566d3"/></g></svg>