<svg xmlns="http://www.w3.org/2000/svg" width="64" height="64" image-rendering="optimizeSpeed"><path fill="#4d4d4d" d="M58.182 25.136a25.6 25.6 0 0 0-2.016-5.354 27 27 0 0 0-.704-1.282h-.001q-1.751-2.975-4.367-5.591C45.824 7.638 39.456 5 32 5s-13.82 2.638-19.092 7.91Q5.002 20.816 5 32q0 11.186 7.908 19.094c3.893 3.893 8.38 6.347 13.437 7.359A28.7 28.7 0 0 0 32 59q11.187 0 19.094-7.905 4.171-4.168 6.14-9.256c.973-2.514 1.545-5.194 1.714-8.051A31 31 0 0 0 59 32c0-2.388-.27-4.668-.818-6.864"/><g fill-rule="evenodd"><path fill="#2c88fa" d="M26.002 37.078H50L44.002 47.23H19.998"/><path fill="#fbc549" d="M50 37.078 37.998 16.77H26.002l11.996 20.31"/><path fill="#0bb36f" d="M19.998 47.23 32 26.921l-5.998-10.152L14 37.08"/></g></svg>