<svg width="64" height="64" version="1.1" xmlns="http://www.w3.org/2000/svg">
 <g transform="matrix(3.375 0 0 3.375 5 4.9999)">
  <path d="m5.5173 9.6664c-2.7273-3.6082-5.5273-0.86637-4.7964 1.6555 1.2555 2.7591 4.0573 4.6782 7.2764 4.6782 2.8546 0 5.3227-1.4882 6.7246-3.6546-2.1091 1.9736-5.9373 1.6436-9.2046-2.6791z" fill="#255fdb"/>
  <path d="m7.9555 7.1818c-3.7509-5.6891-7.9555-2.6573-7.9555 0.82 0 1.1927 0.26 2.3182 0.72637 3.3346-0.49818-2.3555 2.2082-4.1718 4.7282-0.79091 3.6591 4.9091 7.25 4.0455 9.2591 1.8118 0.54273-0.80909 1.0718-2.05 1.22-3.2836l-0.0028 0.015456c-0.85994 2.6746-4.6672 3.11-7.9754-1.9073z" fill="#4285f4"/>
  <path d="m10.526 4.6364c-2.7855-4.5955-6.3173-4.1818-8.7055-1.7191-1.1355 1.3809-1.8209 3.1509-1.8209 5.0827 0.25-3.3673 4.3182-5.7046 8 0 3.2773 5.0773 7.35 3.7546 7.93 1.1018l0.0036-0.025452c0.05818-0.36455 0.06455-0.71273 0.06455-1.0873 0-0.12091 0.0045-0.24091-9.2e-4 -0.36-1.42 1.0073-3.2836 0.61546-5.4709-2.9927z" fill="#91bfff"/>
  <path d="m10.545 5.4545c2.5509 4.1009 4.75 3.0518 5.4518 2.1746-0.027272-0.62546-0.12909-1.2309-0.29273-1.81-1.1891 0.024544-1.4664-0.17364-2.6318-1.9555-1.7927-2.7409-4.0455-4.5891-7.9782-3.3191-1.2873 0.50273-2.4127 1.3282-3.2764 2.3764 2.7046-2.4891 6.0227-1.8136 8.7273 2.5336z" fill="#c4e1ff"/>
  <path d="m12.894 4.2154c1.1655 1.7818 1.8755 1.8764 2.8109 1.6036-0.95182-3.3627-4.0373-5.8191-7.7073-5.8191-1.0245 0-2.0055 0.19546-2.9055 0.54546 3.5155-1.1091 6.0091 0.92909 7.8018 3.67z" fill="#f5f5f5"/>
 </g>
</svg>
