<svg width="64" height="64" version="1.1" viewBox="0 0 16.933 16.933" xmlns="http://www.w3.org/2000/svg">
 <rect x="1.587" y="1.587" width="13.758" height="13.758" ry=".529" fill="#fff" stroke="#000" stroke-opacity=".039" stroke-width=".496" style="paint-order:stroke markers fill"/>
 <rect x="1.587" y="1.587" width="13.758" height="13.758" ry=".529" fill="#fff" style="paint-order:stroke markers fill"/>
 <path d="m2.117 1.587a0.528 0.528 0 0 0-0.53 0.53v6.35h13.759v-6.35a0.528 0.528 0 0 0-0.53-0.53h-12.7z" opacity=".06" style="paint-order:stroke markers fill"/>
 <path d="m7.447 12.719 2.068-4.719h-2.767v-0.611h3.437v0.524l-2.039 4.806z" fill="#333" font-size="7.457" font-weight="400" letter-spacing="0" stroke-width=".186" word-spacing="0" aria-label="7"/>
 <g fill="#5f8fd3" stroke-width=".069252" aria-label="FRIDAY">
  <path d="m3.7041 3.1828h1.1605v0.22994h-0.88729v0.59513h0.80072v0.22994h-0.80072v0.96438h-0.27322z"/>
  <path d="m6.255 4.2554q0.087917 0.029757 0.17042 0.12714 0.083859 0.097385 0.16772 0.26781l0.27728 0.55185h-0.29351l-0.25834-0.51804q-0.10009-0.20289-0.19477-0.26916-0.093328-0.066276-0.25564-0.066276h-0.29757v0.85347h-0.27322v-2.0194h0.61677q0.34626 0 0.51668 0.14473 0.17042 0.14473 0.17042 0.43688 0 0.19071-0.08927 0.3165-0.087917 0.12579-0.25699 0.17448zm-0.6844-0.84806v0.71686h0.34355q0.19748 0 0.29757-0.090622 0.10144-0.091975 0.10144-0.26916 0-0.17719-0.10144-0.26646-0.10009-0.090623-0.29757-0.090623z"/>
  <path d="m7.2221 3.1828h0.27322v2.0194h-0.27322z"/>
  <path d="m8.3123 3.4073v1.5703h0.33003q0.41794 0 0.61136-0.18936 0.19477-0.18936 0.19477-0.59784 0-0.40577-0.19477-0.59378-0.19342-0.18936-0.61136-0.18936zm-0.27322-0.22453h0.56132q0.58702 0 0.86159 0.24482 0.27457 0.24346 0.27457 0.76285 0 0.52209-0.27592 0.76691-0.27592 0.24482-0.86024 0.24482h-0.56132z"/>
  <path d="m10.798 3.4519-0.3706 1.005h0.74256zm-0.15419-0.26916h0.30974l0.76961 2.0194h-0.28404l-0.18395-0.51804h-0.91028l-0.18395 0.51804h-0.2881z"/>
  <path d="m11.526 3.1828h0.29351l0.55996 0.83048 0.55591-0.83048h0.29351l-0.71416 1.0577v0.96168h-0.27457v-0.96168z"/>
 </g>
</svg>
