<svg width="64" height="64" version="1.1" viewBox="0 0 64 64" xmlns="http://www.w3.org/2000/svg">
 <rect x="6.0001" y="6.0001" width="52" height="52" rx="7.9999" ry="7.9999" fill="#c9e11c" stop-color="#000000" stroke-width="3.7796"/>
 <path d="m20.261 19.087c-1.3007 0-2.3478 1.0471-2.3478 2.3478v14.087c0 1.3007 1.0471 2.3478 2.3478 2.3478h16.435c1.3007 0 2.3478-1.0471 2.3478-2.3478v-14.087c0-1.3007-1.0471-2.3478-2.3478-2.3478zm19.957 3.5217v14.087c0 1.3007-1.0471 2.3478-2.3478 2.3478h-16.435c0 1.3007 1.0471 2.3478 2.3478 2.3478h16.435c1.3007 0 2.3478-1.0471 2.3478-2.3478v-14.087c0-1.3007-1.0471-2.3478-2.3478-2.3478zm3.5217 3.5217v14.087c0 1.3007-1.0471 2.3478-2.3478 2.3478h-16.435c0 1.3007 1.0471 2.3478 2.3478 2.3478h16.435c1.3007 0 2.3478-1.0471 2.3478-2.3478v-14.087c0-1.3007-1.0471-2.3478-2.3478-2.3478z" fill="#ffffff" stroke-width="1.1739" style="paint-order:normal"/>
 <rect x="20.261" y="21.435" width="16.435" height="14.087" fill="#4b4b4b" stroke-width="1.1739" style="paint-order:normal"/>
</svg>
