<svg xmlns="http://www.w3.org/2000/svg" xmlns:xlink="http://www.w3.org/1999/xlink" width="64" height="64"><defs><path id="a" d="M5 10A5 5 0 1 1 5 0a5 5 0 0 1 0 10"/><path id="b" d="M2.429 9.29A5 5 0 0 1 .507 7.196l8.979-4.408a5 5 0 0 0-1.399-1.722z"/><linearGradient id="c" x1="5" x2="5" y1="6" y2="4" gradientTransform="translate(27 22)" gradientUnits="userSpaceOnUse"><stop offset="0%" stop-color="#E2E096"/><stop offset="100%" stop-color="#F9F8D2"/></linearGradient></defs><path fill="#cacbcf" d="M54 53c0 2.991-2.121 5-5 5H15c-2.878 0-5-2.009-5-5V11c0-2.991 2.122-5 5-5h34c2.878 0 5 2.009 5 5z"/><g fill="none"><path fill="#85858a" d="M51 11a2 2 0 1 1-4 0 2 2 0 0 1 4 0"/><path fill="#fff" d="M50 11a1 1 0 1 0-2 0 1 1 0 0 0 2 0"/></g><g fill="none"><path fill="#85858a" d="M17 11a2 2 0 1 1-4 0 2 2 0 0 1 4 0"/><path fill="#fff" d="M16 11a1 1 0 1 0-2 0 1 1 0 0 0 2 0"/></g><path fill="#949496" d="M14 39h-4v14c0 2.873 2.169 5 5 5h18v-9c-7.752-.5-14.611-4.25-19-10"/><path fill="#49494c" fill-rule="evenodd" d="M48 27.122C48 35.837 40.837 43 32 43s-16-7.163-16-15.878C16 18.164 23.163 11 32 11s16 7.164 16 16.122"/><path fill="#fff" fill-rule="evenodd" d="M18.292 17.277 25 12l14.387 30.27 6.486-5.495z" opacity=".1"/><use xlink:href="#a" width="100%" height="100%" fill="#1a1a1a" fill-rule="evenodd" transform="translate(27 22)"/><use xlink:href="#b" width="100%" height="100%" fill="#fff" fill-rule="evenodd" opacity=".1" transform="translate(27.003 22.007)"/><path fill="#85858a" fill-rule="evenodd" d="M32 30a3 3 0 1 1 0-6 3 3 0 0 1 0 6"/><path fill="url(#c)" fill-rule="evenodd" d="M33 27a1 1 0 1 1-2 0 1 1 0 0 1 2 0"/><path fill="gray" d="M32 10c-9.388 0-17 7.61-17 17 0 9.388 7.612 17 17 17s17-7.612 17-17c0-9.39-7.612-17-17-17m10.417 27.418a14.7 14.7 0 0 1-4.683 3.159A14.65 14.65 0 0 1 32 41.732c-1.99 0-3.92-.388-5.734-1.155a14.7 14.7 0 0 1-4.683-3.16A14.67 14.67 0 0 1 17.266 27a14.68 14.68 0 0 1 4.316-10.417 14.7 14.7 0 0 1 4.684-3.16A14.6 14.6 0 0 1 32 12.268c1.99 0 3.92.39 5.734 1.157a14.7 14.7 0 0 1 4.683 3.158A14.68 14.68 0 0 1 46.734 27a14.67 14.67 0 0 1-4.316 10.418z"/><path fill="#fff" d="m25.298 50.578 12.326-15.323c.176-.205.282-.468.282-.755 0-.643-.533-1.165-1.191-1.165-.293 0-.562.102-.77.276L20.301 45.685a3.47 3.47 0 0 0-1.452 2.815c0 1.935 1.6 3.5 3.574 3.5a3.59 3.59 0 0 0 2.875-1.422"/><g fill="#949496" fill-rule="evenodd" transform="matrix(-1 0 0 1 44.75 49.25)"><rect width="1" height="7" rx=".5"/><rect width="1" height="7" x="2" rx=".5"/><rect width="1" height="7" x="4" rx=".5"/><rect width="1" height="7" x="6" rx=".5"/><rect width="1" height="7" x="8" rx=".5"/></g><g fill="none"><path fill="#85858a" d="M51 53a2 2 0 1 1-4 0 2 2 0 0 1 4 0"/><path fill="#fff" d="M50 53a1 1 0 1 0-2 0 1 1 0 0 0 2 0"/></g><g fill="none"><path fill="#6a6a6a" d="M17 53a2 2 0 1 1-4 0 2 2 0 0 1 4 0"/><path fill="#fff" d="M16 53a1 1 0 1 0-2 0 1 1 0 0 0 2 0"/></g></svg>