<?xml version="1.0" encoding="UTF-8" standalone="no"?>
<svg
   xmlns:dc="http://purl.org/dc/elements/1.1/"
   xmlns:cc="http://creativecommons.org/ns#"
   xmlns:rdf="http://www.w3.org/1999/02/22-rdf-syntax-ns#"
   xmlns:svg="http://www.w3.org/2000/svg"
   xmlns="http://www.w3.org/2000/svg"
   xmlns:xlink="http://www.w3.org/1999/xlink"
   xmlns:sodipodi="http://sodipodi.sourceforge.net/DTD/sodipodi-0.dtd"
   xmlns:inkscape="http://www.inkscape.org/namespaces/inkscape"
   width="64px"
   height="64px"
   viewBox="0 0 64 64"
   version="1.1"
   id="svg104"
   sodipodi:docname="drive-removable-media.svg"
   inkscape:version="0.92.2 2405546, 2018-03-11">
  <metadata
     id="metadata108">
    <rdf:RDF>
      <cc:Work
         rdf:about="">
        <dc:format>image/svg+xml</dc:format>
        <dc:type
           rdf:resource="http://purl.org/dc/dcmitype/StillImage" />
      </cc:Work>
    </rdf:RDF>
  </metadata>
  <sodipodi:namedview
     pagecolor="#ffffff"
     bordercolor="#666666"
     borderopacity="1"
     objecttolerance="10"
     gridtolerance="10"
     guidetolerance="10"
     inkscape:pageopacity="0"
     inkscape:pageshadow="2"
     inkscape:window-width="1920"
     inkscape:window-height="1021"
     id="namedview106"
     showgrid="true"
     inkscape:zoom="7.375"
     inkscape:cx="10.638156"
     inkscape:cy="44.240577"
     inkscape:window-x="0"
     inkscape:window-y="29"
     inkscape:window-maximized="1"
     inkscape:current-layer="svg104"
     inkscape:object-paths="true"
     inkscape:snap-bbox="true"
     inkscape:bbox-nodes="true"
     inkscape:snap-intersection-paths="true"
     inkscape:snap-smooth-nodes="true"
     inkscape:snap-bbox-midpoints="true"
     inkscape:snap-bbox-edge-midpoints="true"
     inkscape:snap-midpoints="true">
    <inkscape:grid
       type="xygrid"
       id="grid873" />
  </sodipodi:namedview>
  <!-- Generator: Sketch 46.2 (44496) - http://www.bohemiancoding.com/sketch -->
  <title
     id="title2">gparted</title>
  <desc
     id="desc4">Created with Sketch.</desc>
  <defs
     id="defs18">
    <linearGradient
       x1="5"
       y1="0"
       x2="5"
       y2="10"
       id="linearGradient-1"
       gradientUnits="userSpaceOnUse">
      <stop
         stop-color="#020300"
         offset="0%"
         id="stop6" />
      <stop
         stop-color="#000200"
         offset="100%"
         id="stop8" />
    </linearGradient>
    <path
       d="M5,10 C2.2385,10 0,7.76119403 0,4.999875 C0,2.23880597 2.2385,0 5,0 C7.7615,0 10,2.23880597 10,4.999875 C10,7.76119403 7.7615,10 5,10 Z"
       id="path-2" />
    <path
       d="M2.42889983,9.2891349 C1.60347183,8.79325041 0.93297511,8.06583581 0.507219493,7.19674243 L9.48604873,2.78947866 C9.15322599,2.11536029 8.67291835,1.52705476 8.08726075,1.06672259 L2.42889983,9.2891349 Z"
       id="path-4" />
    <linearGradient
       x1="5"
       y1="6"
       x2="5"
       y2="4"
       id="linearGradient-6"
       gradientUnits="userSpaceOnUse"
       gradientTransform="translate(27,22)">
      <stop
         stop-color="#E2E096"
         offset="0%"
         id="stop13" />
      <stop
         stop-color="#F9F8D2"
         offset="100%"
         id="stop15" />
    </linearGradient>
    <mask
       fill="white"
       id="mask-3">
      <use
         height="100%"
         width="100%"
         y="0"
         x="0"
         id="use53"
         xlink:href="#path-2" />
    </mask>
    <mask
       fill="white"
       id="mask-5">
      <use
         height="100%"
         width="100%"
         y="0"
         x="0"
         id="use57"
         xlink:href="#path-4" />
    </mask>
  </defs>
  <g
     style="fill:none;fill-rule:evenodd;stroke:none;stroke-width:1"
     id="阴影"
     transform="translate(6.5,3.5)" />
  <path
     d="m 54,53 c 0,2.991224 -2.121421,5 -5,5 H 15 c -2.878469,0 -5,-2.008666 -5,-5 V 11 c 0,-2.9913343 2.121531,-5 5,-5 h 34 c 2.878469,0 5,2.0086657 5,5 z"
     id="path27"
     inkscape:connector-curvature="0"
     style="fill:#cacbcf;fill-rule:nonzero;stroke:none;stroke-width:1"
     sodipodi:nodetypes="sssssssss" />
  <g
     style="fill:none;fill-rule:nonzero;stroke:none;stroke-width:1"
     transform="translate(47,9)"
     id="Group-7">
    <path
       style="fill:#85858a"
       inkscape:connector-curvature="0"
       id="path29"
       d="M 4,2.0007499 C 4,3.1051744 3.1040105,4 2,4 0.8959895,4 0,3.1051744 0,2.0007499 0,0.89632546 0.8959895,0 2,0 3.1040105,0 4,0.89632546 4,2.0007499 Z" />
    <g
       style="fill:#b3b3b3"
       transform="translate(1,0.5)"
       id="Group-8">
      <path
         transform="matrix(1,0,0,-1,0,3)"
         inkscape:connector-curvature="0"
         id="path31"
         d="M 2,1.500375 C 2,2.0525872 1.5520052,2.5 1,2.5 0.44799475,2.5 0,2.0525872 0,1.500375 0,0.94816273 0.44799475,0.5 1,0.5 c 0.5520052,0 1,0.44816273 1,1.000375 z"
         style="fill:#ffffff" />
    </g>
  </g>
  <g
     style="fill:none;fill-rule:nonzero;stroke:none;stroke-width:1"
     id="g43"
     transform="translate(14,8.999625)">
    <path
       style="fill:#85858a"
       inkscape:connector-curvature="0"
       id="path35"
       d="M 3,2.0007499 C 3,3.1051744 2.1040105,4 1,4 -0.1040105,4 -1,3.1051744 -1,2.0007499 -1,0.89632546 -0.1040105,0 1,0 2.1040105,0 3,0.89632546 3,2.0007499 Z" />
    <g
       transform="translate(1,0.5)"
       id="g41">
      <path
         style="fill:#ffffff"
         inkscape:connector-curvature="0"
         id="path39"
         d="M 1,1.499625 C 1,0.9474128 0.5520052,0.5 0,0.5 -0.55200525,0.5 -1,0.9474128 -1,1.499625 -1,2.0518373 -0.55200525,2.5 0,2.5 0.5520052,2.5 1,2.0518373 1,1.499625 Z" />
    </g>
  </g>
  <path
     d="M 14,39 H 9.9999998 v 14 c 0,2.872586 2.1685632,5 5.0000002,5 H 33 V 49 C 25.247691,48.50089 18.388953,44.750586 14,39 Z"
     id="path46"
     inkscape:connector-curvature="0"
     style="fill:#949496;fill-rule:nonzero;stroke:none;stroke-width:1" />
  <g
     id="record"
     transform="translate(16,11)"
     style="fill:#49494c;fill-rule:evenodd;stroke:none;stroke-width:1">
    <path
       d="M 32,16.122137 C 32,24.836533 24.8368,32 16,32 7.1632,32 0,24.836533 0,16.122137 0,7.1637333 7.1632,0 16,0 24.8368,0 32,7.1637333 32,16.122137"
       id="Fill-2"
       inkscape:connector-curvature="0" />
  </g>
  <polygon
     id="Path-4"
     transform="rotate(95,20.414591,28.802137)"
     points="9.1183714,31.921288 3.276747,25.69858 32.177207,8.7285987 26.137988,2.7453783 "
     style="fill:#ffffff;fill-rule:evenodd;stroke:none;stroke-width:1;opacity:0.1" />
  <use
     transform="translate(27,22)"
     height="100%"
     width="100%"
     y="0"
     x="0"
     style="fill:#1a1a1a;fill-rule:evenodd;stroke:none;stroke-width:1"
     xlink:href="#path-2"
     id="Mask" />
  <use
     height="100%"
     width="100%"
     y="0"
     x="0"
     style="opacity:0.1;fill:#ffffff;fill-rule:evenodd;stroke:none;stroke-width:1"
     xlink:href="#path-4"
     id="Combined-Shape"
     transform="translate(27.003366,22.006889)" />
  <path
     style="fill:#85858a;fill-rule:evenodd;stroke:none;stroke-width:1"
     inkscape:connector-curvature="0"
     id="Fill-27"
     d="M 32,30 C 30.3431,30 29,28.656716 29,26.999925 29,25.343284 30.3431,24 32,24 c 1.6569,0 3,1.343284 3,2.999925 C 35,28.656716 33.6569,30 32,30 Z" />
  <path
     inkscape:connector-curvature="0"
     style="fill:url(#linearGradient-6);fill-rule:evenodd;stroke:none;stroke-width:1"
     id="Fill-4"
     d="M 33,26.99975 C 33,27.552388 32.5525,28 32,28 31.448,28 31,27.552388 31,26.99975 31,26.447612 31.448,26 32,26 c 0.5525,0 1,0.447612 1,0.99975" />
  <path
     d="M 32,10 C 22.611856,10 15,17.610816 15,26.999575 15,36.388335 22.611856,44 32,44 41.388144,44 49,36.388335 49,26.999575 49,17.610816 41.388144,10 32,10 Z m 10.417494,27.417658 c -1.352988,1.352954 -2.928463,2.415427 -4.683288,3.159159 -1.814537,0.766999 -3.743719,1.155439 -5.734206,1.155439 -1.990487,0 -3.919669,-0.38844 -5.734206,-1.155439 -1.754826,-0.743732 -3.330301,-1.806205 -4.683288,-3.159159 -1.354688,-1.352847 -2.417187,-2.930089 -3.159238,-4.68402 C 17.65625,30.919146 17.2661,28.990119 17.2661,26.999575 c 0,-1.989694 0.39015,-3.918721 1.157168,-5.734063 0.74205,-1.753931 1.80455,-3.329367 3.159238,-4.68317 1.352987,-1.353804 2.928462,-2.417127 4.683288,-3.158415 1.814537,-0.767849 3.743612,-1.15714 5.734206,-1.15714 1.990487,0 3.919669,0.389291 5.734206,1.15714 1.754931,0.741288 3.3303,1.804505 4.683288,3.158415 1.354687,1.353803 2.417187,2.929239 3.159237,4.68317 0.767019,1.815342 1.157169,3.744369 1.157169,5.734063 0,1.990437 -0.39015,3.919571 -1.157169,5.734063 -0.74205,1.753825 -1.80455,3.33096 -3.159237,4.68402 z"
     id="path67"
     inkscape:connector-curvature="0"
     style="fill:#808080;fill-rule:nonzero;stroke:none;stroke-width:0.97142857" />
  <g
     style="fill:#ecf1f6;fill-rule:nonzero;stroke:none;stroke-width:1"
     transform="translate(18.5,33.25)"
     id="Group-9">
    <g
       transform="translate(0.333333)"
       id="Group-3">
      <path
         inkscape:connector-curvature="0"
         id="path70"
         d="M 6.4643744,17.328125 18.790463,2.0053438 C 18.96666,1.8002656 19.073071,1.5371094 19.073071,1.25 c 0,-0.64257813 -0.53384,-1.1655 -1.191619,-1.1655 -0.293104,0 -0.561754,0.10259375 -0.769439,0.27682813 L 1.4676585,12.435344 C 0.58656158,13.072781 0.01609852,14.096531 0.01609852,15.25 c 0,1.934625 1.59984238,3.5 3.57307058,3.5 1.1794483,0 2.2244598,-0.558797 2.8752053,-1.421875 z"
         style="fill:#ffffff" />
    </g>
  </g>
  <g
     style="fill:#949496;fill-rule:evenodd;stroke:none;stroke-width:1"
     transform="matrix(-1,0,0,1,44.75,48.5)"
     id="Group-2">
    <g
       transform="translate(0,0.75)"
       id="Group-6">
      <rect
         rx="0.5"
         height="7"
         width="1"
         y="0"
         x="0"
         id="Rectangle-4-Copy" />
      <rect
         rx="0.5"
         height="7"
         width="1"
         y="0"
         x="2"
         id="rect75" />
      <rect
         rx="0.5"
         height="7"
         width="1"
         y="0"
         x="4"
         id="rect77" />
      <rect
         rx="0.5"
         height="7"
         width="1"
         y="0"
         x="6"
         id="rect79" />
      <rect
         rx="0.5"
         height="7"
         width="1"
         y="0"
         x="8"
         id="rect81" />
    </g>
  </g>
  <g
     id="g92"
     transform="translate(47,51)"
     style="fill:none;fill-rule:nonzero;stroke:none;stroke-width:1">
    <path
       d="M 4,2.0007499 C 4,3.1051744 3.1040105,4 2,4 0.8959895,4 0,3.1051744 0,2.0007499 0,0.89632546 0.8959895,0 2,0 3.1040105,0 4,0.89632546 4,2.0007499 Z"
       id="path86"
       inkscape:connector-curvature="0"
       style="fill:#85858a" />
    <g
       id="g90"
       transform="translate(1,0.5)"
       style="fill:#b3b3b3">
      <path
         d="M 2,1.500375 C 2,2.0525872 1.5520052,2.5 1,2.5 0.44799475,2.5 0,2.0525872 0,1.500375 0,0.94816273 0.44799475,0.5 1,0.5 c 0.5520052,0 1,0.44816273 1,1.000375 z"
         id="path88"
         transform="matrix(1,0,0,-1,0,3)"
         inkscape:connector-curvature="0"
         style="fill:#ffffff" />
    </g>
  </g>
  <g
     id="g100"
     transform="translate(14,51)"
     style="fill:none;fill-rule:nonzero;stroke:none;stroke-width:1">
    <path
       d="M 3,2.0007499 C 3,3.1051744 2.1040105,4 1,4 -0.1040105,4 -1,3.1051744 -1,2.0007499 -1,0.89632546 -0.1040105,0 1,0 2.1040105,0 3,0.89632546 3,2.0007499 Z"
       id="path94"
       inkscape:connector-curvature="0"
       style="fill:#6a6a6a" />
    <g
       id="g98"
       transform="translate(1,0.5)"
       style="fill:#999999">
      <path
         d="M 1,1.499625 C 1,0.9474128 0.5520052,0.5 0,0.5 -0.55200525,0.5 -1,0.9474128 -1,1.499625 -1,2.0518373 -0.55200525,2.5 0,2.5 0.5520052,2.5 1,2.0518373 1,1.499625 Z"
         id="path96"
         inkscape:connector-curvature="0"
         style="fill:#ffffff" />
    </g>
  </g>
</svg>
