<svg width="64" height="64" version="1.1" viewBox="0 0 64 64" xmlns="http://www.w3.org/2000/svg">
 <rect x="6" y="6" width="52" height="52" rx="8" ry="8" fill="#f2f2f2" stroke-linecap="round" stroke-linejoin="round" stroke-width="13.255" style="paint-order:markers fill stroke"/>
 <path d="m19.087 20.261v2.3478h5.8696v-2.3478zm28.456 0.34163-31.652 21.616 0.68325 0.99966 31.65-21.616-0.68096-0.99966z" fill="#e56767" stroke-width="1.1739"/>
 <path d="m19.087 16.739v2.3478h5.8696v-2.3478zm26.248 2.0337-7.2109 11.436-3.3819-5.1221-7.541 12.182-3.3681-4.8126-7.917 12.34 1.018 0.65345 6.9426-10.82 3.3865 4.8378 7.5135-12.134 3.3727 5.1084 7.2636-11.528 2.756 3.7281 0.97214-0.71994-3.8061-5.1496z" fill="#8789e9" stroke-width="1.1739"/>
 <path d="m19.087 23.783v2.3478h5.8696v-2.3478zm23.478 8.2174v14.087h3.5217v-14.087zm-5.8696 4.6957v9.3913h3.5217v-9.3913zm-5.8696 3.5217v5.8696h3.5217v-5.8696z" fill="#52ad5f" stroke-width="1.1739"/>
 <path d="m26.13 16.739v2.3478h5.8696v-2.3478zm0 3.5217v2.3478h5.8696v-2.3478zm0 3.5217v2.3478h5.8696v-2.3478z" fill="#474747" stroke-width="1.1739"/>
</svg>
