<svg xmlns="http://www.w3.org/2000/svg" width="64" height="64"><rect width="52" height="52" x="6" y="6" fill="#f2f2f2" rx="8" ry="8" style="paint-order:markers fill stroke"/><path fill="#e56767" d="M19.087 20.261v2.348h5.87V20.26zm28.456.342L15.891 42.219l.683 1 31.65-21.617z"/><path fill="#8789e9" d="M19.087 16.739v2.348h5.87v-2.348zm26.248 2.034-7.21 11.436-3.383-5.122-7.54 12.182-3.369-4.813-7.917 12.34 1.018.653 6.943-10.82 3.386 4.838 7.514-12.134 3.372 5.109 7.264-11.528 2.756 3.728.972-.72z"/><path fill="#52ad5f" d="M19.087 23.783v2.348h5.87v-2.348zM42.565 32v14.087h3.522V32zm-5.87 4.696v9.391h3.522v-9.39zm-5.87 3.522v5.87h3.523v-5.87z"/><path fill="#474747" d="M26.13 16.739v2.348H32v-2.348zm0 3.522v2.348H32V20.26zm0 3.521v2.348H32v-2.348z"/></svg>