<svg width="64" height="64" version="1.1" viewBox="0 0 64 64" xmlns="http://www.w3.org/2000/svg">
 <g transform="matrix(1.1739 0 0 1.1739 3.8261 3.8261)">
  <g transform="rotate(-90,24,24)" fill="#fcaf3e">
   <path d="m24 1c12.703 0 23 10.297 23 23s-10.297 23-23 23-23-10.297-23-23 10.297-23 23-23z" fill="#f55872"/>
  </g>
  <path d="m31 10v1h1c2.216 0 4 1.769 4 4v1h1v-1c0-2.77-2.23-5-5-5zm-1 3v1h1c1.108 0 2 0.892 2 2v1h1v-1c0-1.662-1.338-3-3-3zm-2 3c-0.593 0-1 0.464-1 0.996v2h-14c-1 0-2 1-2 2v11c0 1 1 2 2 2h22c1 0 2-1 2-2v-11c0-1-1-2-2-2h-4v-2c0-0.554-0.446-0.996-1-0.996zm0.5 1h1c0.277 0 0.5 0.223 0.5 0.5v1.5h-2v-1.5c0-0.277 0.223-0.5 0.5-0.5zm-13.809 3.996 7.617 4e-3c0.846 0 1.691 0.709 1.691 1.424v8.145c0 0.714-0.845 1.432-1.691 1.432h-7.617c-0.106 0-0.212-0.012-0.316-0.033-0.729-0.146-1.375-0.771-1.375-1.396v-8.145c0-0.714 0.845-1.426 1.691-1.426v-4e-3zm11.309 4e-3h7.309c0.846 0 1.689 0.711 1.689 1.426v8.145c0 0.714-0.843 1.43-1.689 1.43h-7.309v-11zm2.5 0.998c-0.277 0-0.5 0.223-0.5 0.5s0.223 0.502 0.5 0.502h1c0.277 0 0.5-0.225 0.5-0.502s-0.223-0.5-0.5-0.5zm3 0c-0.277 0-0.5 0.223-0.5 0.5s0.223 0.502 0.5 0.502h1c0.277 0 0.5-0.225 0.5-0.502s-0.223-0.5-0.5-0.5zm-13 1c-1.933 0-3.5 1.567-3.5 3.5s1.567 3.5 3.5 3.5 3.5-1.567 3.5-3.5-1.567-3.5-3.5-3.5zm10 0.998c-0.277 0-0.5 0.223-0.5 0.5s0.223 0.502 0.5 0.502h1c0.277 0 0.5-0.225 0.5-0.502s-0.223-0.5-0.5-0.5zm3 0c-0.277 0-0.5 0.223-0.5 0.5s0.223 0.502 0.5 0.502h1c0.277 0 0.5-0.225 0.5-0.502s-0.223-0.5-0.5-0.5zm-13 1c0.828 0 1.5 0.672 1.5 1.5s-0.672 1.5-1.5 1.5-1.5-0.672-1.5-1.5 0.672-1.5 1.5-1.5zm13 0.998c-0.277 0-0.5 0.223-0.5 0.5s0.223 0.502 0.5 0.502h1c0.277 0 0.5-0.225 0.5-0.502s-0.223-0.5-0.5-0.5zm-3 2e-3c-0.277 0-0.5 0.221-0.5 0.498s0.223 0.502 0.5 0.502h1c0.277 0 0.5-0.225 0.5-0.502s-0.223-0.498-0.5-0.498zm4.5 3c-0.552 0-1 0.448-1 1s0.448 1 1 1 1-0.448 1-1-0.448-1-1-1z" fill="#ffffff"/>
 </g>
</svg>
