<svg xmlns="http://www.w3.org/2000/svg" xml:space="preserve" width="64" height="64"><rect width="52" height="52" x="6" y="6" fill="#3f3f3f" fill-rule="evenodd" rx="8" ry="8" style="paint-order:stroke fill markers;fill:#ead4bc;fill-opacity:1"/><path d="m27.54 23.708-2.21.015.105 16.711 2.037-.003m13.539-21.765-2.292-.003.047 8.4 2.111-.003" style="fill:none;fill-opacity:1;fill-rule:evenodd;stroke:#b39166;stroke-width:.786456;stroke-linecap:round;stroke-linejoin:round;stroke-dasharray:none;stroke-opacity:1" transform="translate(-7.465 -4.985)scale(1.17014)"/><path d="M35.767 23.67h2.805M35.73 40.434h2.842" style="font-size:12px;fill:none;fill-rule:evenodd;stroke:#b39166;stroke-width:.786456;stroke-linecap:round;stroke-linejoin:round;stroke-dasharray:none;stroke-opacity:1" transform="translate(-7.465 -4.985)scale(1.17014)"/><path d="m40.952 36.217-2.161-.006.034 8.388 2.146.012M22.272 32.158h2.9" style="fill:none;fill-opacity:1;fill-rule:evenodd;stroke:#b39166;stroke-width:.786456;stroke-linecap:round;stroke-linejoin:round;stroke-dasharray:none;stroke-opacity:1" transform="translate(-7.465 -4.985)scale(1.17014)"/><path d="m22.05 25.634 6.645 3.003" style="fill:#70d4bc;fill-opacity:1;fill-rule:evenodd;stroke:none;stroke-width:0;stroke-linecap:square;stroke-linejoin:miter;stroke-dasharray:none;stroke-opacity:1" transform="translate(-7.465 -4.985)scale(1.17014)"/><path d="m25.06 23.463 2.406-.018h0" style="font-size:12px;fill:#d7d7d7;fill-rule:evenodd;stroke:#b8b8b8;stroke-width:.117968;stroke-linecap:square;stroke-dasharray:none;stroke-opacity:1" transform="translate(-7.465 -4.985)scale(1.17014)"/><path d="M41.381 42.086h7.486v5.113h-7.486zm-.04-8.415h7.486v5.113h-7.486zm-.059-9.162h7.486v5.113h-7.486zm.128-8.494h7.486v5.113H41.41zm-13.517 5.112h7.486v5.113h-7.486zm-.021 16.83h7.486v5.113h-7.486zm-13.467-8.376h7.486v5.113h-7.486z" style="font-size:12px;fill:#fff;fill-opacity:1;fill-rule:evenodd;stroke:#b39166;stroke-width:.786456;stroke-dasharray:none;stroke-dashoffset:5" transform="translate(-7.465 -4.985)scale(1.17014)"/></svg>