<svg xmlns="http://www.w3.org/2000/svg" width="64" height="64" viewBox="0 0 16.933 16.933"><g paint-order="stroke markers fill"><path fill="#6cce86" d="M1.058 2.117h14.817v12.7H1.058z"/><path d="M1.058 2.117l14.817 9.358V2.117z" opacity=".08"/><path d="M15.875 5.459L1.058 14.817h14.817z" opacity=".15" fill="#fff"/></g><path d="M12.17 6.88l-1.587 1.058c-.05.342-.118.681 0 1.058l1.588 1.058z" fill="#f9f9f9"/><path d="M5.556 6.35a.264.264 0 0 0-.264.265v3.704c0 .146.118.264.264.264h4.763a.264.264 0 0 0 .264-.264V6.615a.264.264 0 0 0-.264-.265zm2.381.794A1.323 1.323 0 0 1 9.26 8.467 1.323 1.323 0 0 1 7.937 9.79a1.323 1.323 0 0 1-1.322-1.323 1.323 1.323 0 0 1 1.322-1.323z" fill="#f9f9f9"/></svg>