<svg xmlns="http://www.w3.org/2000/svg" width="64" height="64" viewBox="0 0 16.933 16.933"><rect width="13.758" height="11.112" x="1.587" y="2.91" fill="#6cce86" rx="1.588" ry="1.588"/><path fill="#fff" d="M15.346 5.293 2.162 13.658c.27.224.616.36.994.364h10.623a1.584 1.584 0 0 0 1.567-1.587z" opacity=".15" style="paint-order:stroke markers fill"/><path d="M3.175 2.91c-.386 0-.739.137-1.013.365l13.184 8.367V4.498c0-.88-.709-1.588-1.588-1.588z" opacity=".08" style="paint-order:stroke markers fill"/><path fill="#f9f9f9" d="m12.17 6.88-1.587 1.058c-.05.342-.118.681 0 1.058l1.588 1.058z"/><path fill="#f9f9f9" d="M5.556 6.35a.264.264 0 0 0-.264.265v3.704c0 .146.118.264.264.264h4.763a.264.264 0 0 0 .264-.264V6.615a.264.264 0 0 0-.264-.265zm2.381.794A1.323 1.323 0 0 1 9.26 8.467 1.323 1.323 0 0 1 7.937 9.79a1.323 1.323 0 0 1-1.322-1.323 1.323 1.323 0 0 1 1.322-1.323"/></svg>