<svg id="Activity-Monitor" width="64" height="64" enable-background="new 0 0 1024 1024" image-rendering="optimizeSpeed" version="1.1" viewBox="0 0 64 64" xmlns="http://www.w3.org/2000/svg">
 <defs>
  <linearGradient id="e" x1="7.9004" x2="56.17" y1="19.867" y2="19.867" gradientUnits="userSpaceOnUse">
   <stop stop-color="#fff" stop-opacity=".45395" offset="0"/>
   <stop stop-color="#fff" stop-opacity=".27632" offset="1"/>
  </linearGradient>
 </defs>
 <path d="m32 5c14.912 0 27 12.088 27 27s-12.088 27-27 27-27-12.088-27-27 12.088-27 27-27z" fill="#ef8d2f" stroke-width="1.1739"/>
 <g transform="matrix(.8701 0 0 .8701 4.1258 4.179)">
  <path d="m56.17 31.974v-0.07939h-7.685v0.07939c0 4.5412-1.6069 8.4186-4.8206 11.629h-0.0016l-0.0016 0.0016v0.0016c-3.2106 3.2106-7.0848 4.8174-11.626 4.8174-4.5443 0-8.4218-1.6069-11.632-4.8174l-0.0016-0.0016h0.0016v0.0016c-3.2105-3.2138-4.8174-7.0912-4.8174-11.632v-0.07939h-7.685v0.07939c0 6.6625 2.3563 12.35 7.0658 17.066v-0.0016h0.0016l0.0016 0.0016c4.7126 4.7126 10.4 7.069 17.066 7.069 6.6625 0 12.35-2.3563 17.063-7.069v-0.0016l-0.0016 0.0016h0.0016c4.7158-4.7158 7.0721-10.403 7.0721-17.066z" opacity=".35" stroke-width=".99607"/>
  <path d="m31.971 7.8399c-6.6371 0.015878-12.305 2.3696-17.002 7.0665h-2e-3v2e-3c-0.02223 0.01905-0.04149 0.04222-0.06055 0.06445-4.6523 4.6809-6.9869 10.32-7.006 16.922h7.6856c0.01905-4.4776 1.6037-8.3064 4.7539-11.488l0.0625-0.06445c3.1979-3.1979 7.0527-4.8005 11.568-4.8164v-7.6856zm2e-3 0v7.6856h0.0625c4.4799 0 8.3161 1.5647 11.504 4.6914l0.12305 0.12305v2e-3h2e-3c3.1947 3.1947 4.8013 7.0466 4.8203 11.553h7.6856c-0.01905-6.6307-2.3755-12.292-7.0724-16.988h-2e-3l-0.12305-0.12305c-4.6868-4.6288-10.333-6.9435-16.938-6.9435h-0.0625z" fill="url(#e)" stroke-width=".99608"/>
 </g>
 <path d="m40.408 7.3908-11.67 25.263 2.6803 3.2092 4.2617-0.68946z" fill="#e6e6e6" stroke-width=".99608"/>
 <path d="m31.926 26.908c-0.85108 0-1.64 0.1529-2.3672 0.46094-0.705 0.29533-1.3493 0.736-1.9336 1.3203-0.82567 0.82567-1.3644 1.7682-1.6152 2.832-0.11115 0.46682-0.16602 0.95748-0.16602 1.4688 0 0.80027 0.13632 1.5453 0.40625 2.2344 0.29533 0.75581 0.75576 1.4452 1.375 2.0645 1.1877 1.1877 2.6209 1.7813 4.3008 1.7812 1.6799 0 3.1111-0.59356 4.2988-1.7812 1.1877-1.1877 1.7812-2.6189 1.7812-4.2988 0-1.6291-0.55869-3.0306-1.6797-4.1992l-0.10156-0.10156c-0.42871-0.42871-0.89133-0.78037-1.3867-1.0566-0.13655-0.07304-0.27434-0.14352-0.41406-0.20703-0.75899-0.34614-1.5903-0.51758-2.4922-0.51758h-0.0059z" fill="#ffffff" stroke-width=".99608"/>
</svg>
