<svg xmlns="http://www.w3.org/2000/svg" width="64" height="64" image-rendering="optimizeSpeed"><defs><linearGradient id="a" x1="7.9" x2="56.17" y1="19.867" y2="19.867" gradientUnits="userSpaceOnUse"><stop offset="0" stop-color="#fff" stop-opacity=".454"/><stop offset="1" stop-color="#fff" stop-opacity=".276"/></linearGradient></defs><path fill="#ef8d2f" d="M32 5c14.912 0 27 12.088 27 27S46.912 59 32 59 5 46.912 5 32 17.088 5 32 5"/><path d="M53 32v-.07h-6.687V32q0 5.927-4.195 10.118h-.001l-.002.001v.002Q37.926 46.311 32 46.312q-5.931 0-10.121-4.191l-.002-.002h.002v.002Q17.688 37.926 17.687 32v-.07H11V32q0 8.694 6.148 14.849v-.002h.002l.001.002q6.15 6.15 14.85 6.15 8.694 0 14.846-6.15v-.002l-.002.002h.002q6.154-6.154 6.153-14.85z" opacity=".35"/><path fill="url(#a)" d="M31.971 7.84q-9.956.023-17.002 7.066h-.002v.002q-.032.031-.06.065-6.978 7.02-7.007 16.922h7.686q.03-6.717 4.754-11.488l.062-.065q4.796-4.794 11.568-4.816V7.84zm.002 0v7.686h.063q6.721 0 11.503 4.69l.124.124v.002h.002q4.79 4.793 4.82 11.553h7.685q-.028-9.944-7.072-16.988h-.002l-.123-.123Q41.943 7.84 32.035 7.84h-.063z" transform="translate(4.126 4.179)scale(.8701)"/><path fill="#e6e6e6" d="m40.408 7.39-11.67 25.264 2.68 3.209 4.262-.69z"/><path fill="#fff" d="M31.926 26.908q-1.277 0-2.367.46a6 6 0 0 0-1.934 1.321q-1.238 1.238-1.615 2.832a6.3 6.3 0 0 0-.166 1.469q0 1.2.406 2.234a6 6 0 0 0 1.375 2.065q1.781 1.782 4.301 1.781 2.518 0 4.299-1.781t1.781-4.299q0-2.444-1.68-4.2l-.101-.1a6.3 6.3 0 0 0-1.387-1.057 7 7 0 0 0-.414-.207q-1.139-.518-2.492-.518z"/></svg>