<?xml version="1.0" encoding="UTF-8"?>
<svg width="64" height="64" version="1.1" viewBox="0 0 16.933 16.933" xmlns="http://www.w3.org/2000/svg" xmlns:cc="http://creativecommons.org/ns#" xmlns:dc="http://purl.org/dc/elements/1.1/" xmlns:rdf="http://www.w3.org/1999/02/22-rdf-syntax-ns#">
 <metadata>
  <rdf:RDF>
   <cc:Work rdf:about="">
    <dc:format>image/svg+xml</dc:format>
    <dc:type rdf:resource="http://purl.org/dc/dcmitype/StillImage"/>
    <dc:title/>
   </cc:Work>
  </rdf:RDF>
 </metadata>
 <circle cx="8.467" cy="8.46" r="7.144" fill="#3f3f3f" style="paint-order:fill markers stroke"/>
 <path d="m8.4671 1.3229v2.174h-2.174v-1.8343c-0.10466 0.033542-0.20809 0.068638-0.31058 0.10684v1.7277h-2.174v-0.44661c-0.10746 0.092552-0.20902 0.19256-0.31058 0.29132v0.15529h-0.15529c-0.098768 0.10156-0.19877 0.20312-0.29132 0.31058h0.44661v2.174h-1.7277c-0.0382 0.10249-0.0733 0.20591-0.10683 0.31058h1.8343v2.174h-2.174c0 0.10373 0.0053 0.20778 0.0096 0.31058h2.1644v2.174h-1.7277c0.03944 0.10622 0.08199 0.20684 0.12609 0.31058h1.6013v2.174h-0.15529c0.14939 0.15405 0.30313 0.30623 0.46587 0.44661v-0.13603h2.174v1.4172c0.10249 0.0382 0.20591 0.0733 0.31058 0.10683v-1.5237h2.174v1.8635c0.10373 0 0.20778-0.0053 0.31058-0.0096v-1.8538h2.174v1.4172c0.10622-0.03944 0.20684-0.08199 0.31058-0.1261v-1.2908h2.0188c0.16215-0.14784 0.31806-0.30375 0.46589-0.46587v-2.0188h1.2908c0.0441-0.10373 0.08666-0.20436 0.1261-0.31058h-1.4172v-2.1741h1.8538c0.0043-0.1028 0.0096-0.20684 0.0096-0.31058h-1.8635v-2.174h1.5237c-0.033508-0.10467-0.068606-0.20809-0.10682-0.31058h-1.4172v-2.174h0.13603c-0.14007-0.16274-0.29225-0.31648-0.44661-0.46587v0.15529h-2.174v-1.6013c-0.10374-0.044102-0.20436-0.086651-0.31058-0.12609v1.7277h-2.174v-2.1644c-0.1028-0.00434-0.20685-0.00963-0.31058-0.00963zm-4.6587 2.4846h2.174v2.174h-2.174v-2.174m2.4846 0h2.174v2.174h-2.174v-2.174m2.4846 0h2.174v2.174h-2.174v-2.174m2.4846 0h2.174v2.174h-2.174v-2.174m-7.4539 2.4846h2.174v2.174h-2.174zm2.4846 0h2.174v2.174h-2.174zm2.4846 0h2.174v2.174h-2.174zm2.4846 0h2.174v2.174h-2.174zm-7.4539 2.4846h2.174v2.174h-2.174zm2.4846 0h2.174v2.174h-2.174zm2.4846 0h2.174v2.174h-2.174zm2.4846 0h2.174v2.174h-2.174zm-7.4539 2.4846h2.174v2.174h-2.174zm2.4846 0h2.174v2.174h-2.174zm2.4846 0h2.174v2.174h-2.174zm2.4846 0h2.174v2.174h-2.174z" fill="#427e49" stroke-width=".31058"/>
 <g transform="matrix(1.1739 0 0 1.1739 10.849 -.9291)" fill="#fff">
  <path d="m-2.0293 4.5641c-0.14049 0-0.21325 0.089427-0.24394 0.13493-0.030691 0.045507-0.043126 0.079638-0.055297 0.11536-0.024341 0.071172-0.040216 0.14711-0.056884 0.24077-0.033337 0.18732-0.063763 0.4392-0.093661 0.74003-0.11059 1.2628-0.18679 2.4161-0.28125 3.5858-0.10028-0.93661-0.16192-1.8856-0.27172-2.8101-0.030956-0.25796-0.062176-0.47412-0.0971-0.63816-0.017462-0.082019-0.034395-0.14949-0.061382-0.21642-0.013494-0.033601-0.028045-0.067467-0.062441-0.11059-0.034395-0.043126-0.11033-0.11536-0.23151-0.11536-0.093661 0-0.16642 0.046301-0.20558 0.083077-0.039422 0.036776-0.059265 0.069584-0.075934 0.099746-0.033337 0.060588-0.051857 0.11694-0.071436 0.18282-0.038893 0.13176-0.072494 0.29739-0.10636 0.4945-0.13044 0.83527-0.22145 1.6033-0.33548 2.3838-0.069055-0.44925-0.10795-0.92417-0.1643-1.3668-0.017991-0.13943-0.035454-0.25691-0.055297-0.35083-0.00979-0.047095-0.018785-0.086782-0.037306-0.13388-0.00926-0.023547-0.018785-0.048682-0.047624-0.086782-0.028839-0.038099-0.098423-0.1143-0.22383-0.1143-0.096571 0-0.15213 0.038628-0.18812 0.066145-0.035983 0.027516-0.057413 0.052386-0.077521 0.076992-0.039952 0.048947-0.070643 0.098687-0.10292 0.15451-0.064557 0.11192-0.13097 0.24632-0.19632 0.37835-0.065615 0.13202-0.13044 0.26193-0.18097 0.34766-0.010583 0.017727-0.014023 0.021431-0.022754 0.03466h-2.532c-0.0037 0.08784-0.00661 0.17594-0.00661 0.26458 0 0.088634 0.00291 0.17674 0.00661 0.26458h2.6392c0.18362 0 0.22383-0.089957 0.26458-0.13943 0.041539-0.049476 0.073288-0.10028 0.10636-0.15663 0.051857-0.088105 0.10371-0.19367 0.15557-0.29712 0.027252 0.23362 0.054238 0.47836 0.085723 0.75537 0.041539 0.36565 0.087311 0.73235 0.14155 1.0197 0.027252 0.14367 0.055297 0.26458 0.093925 0.37147 0.019314 0.052916 0.039422 0.10213 0.079638 0.15716 0.040216 0.055032 0.12409 0.14155 0.26193 0.14155 0.093661 0 0.16642-0.0463 0.20558-0.08308 0.039422-0.03678 0.059266-0.069584 0.075934-0.099746 0.033337-0.060588 0.051857-0.11694 0.071436-0.18282 0.038893-0.13176 0.072494-0.29739 0.10636-0.4945 0.11827-0.76992 0.20743-1.4681 0.30585-2.1725 0.12435 1.1131 0.186 2.1777 0.31617 3.2752 0.030956 0.25796 0.062176 0.47412 0.0971 0.63816 0.017462 0.08202 0.034395 0.14949 0.061382 0.21642 0.013494 0.0336 0.028045 0.06747 0.062441 0.11059 0.034395 0.04313 0.11086 0.11536 0.23204 0.11536 0.14049 0 0.21272-0.08943 0.24341-0.13493 0.030691-0.04551 0.043126-0.07964 0.055297-0.11536 0.024341-0.07117 0.040745-0.14711 0.057413-0.24077 0.033337-0.18732 0.063234-0.4392 0.093131-0.74002 0.10424-1.1975 0.17965-2.2807 0.26458-3.3765 0.099481 1.1295 0.15637 2.2595 0.26458 3.3765 0.029633 0.30083 0.059795 0.5527 0.093132 0.74002 0.016668 0.09366 0.032808 0.1696 0.057413 0.24077 0.012171 0.03572 0.024606 0.06985 0.055297 0.11536s0.10292 0.13493 0.24341 0.13493c0.12118 0 0.19764-0.07197 0.23204-0.11536 0.034395-0.04313 0.048947-0.07699 0.062441-0.11059 0.027251-0.06694 0.04392-0.13441 0.061382-0.21642 0.034924-0.16404 0.066145-0.3802 0.0971-0.63816 0.12541-1.1443 0.20452-2.1981 0.31617-3.2752 0.11297 0.72494 0.18468 1.4591 0.30585 2.1725 0.033866 0.19711 0.067467 0.36274 0.10636 0.4945 0.019314 0.06588 0.038099 0.1225 0.071436 0.18282 0.016668 0.030162 0.036512 0.062705 0.075934 0.099746 0.039422 0.03678 0.11192 0.08308 0.20558 0.08308 0.13785 0 0.22172-0.08652 0.26193-0.14155 0.040216-0.055032 0.060059-0.10424 0.079638-0.15716 0.038893-0.10583 0.066938-0.22807 0.093925-0.37147 0.054503-0.28733 0.10001-0.65377 0.14155-1.0197 0.032543-0.28548 0.060588-0.54027 0.088369-0.77812 0.052386 0.10954 0.10451 0.22119 0.15663 0.31458 0.03122 0.056091 0.061382 0.10583 0.10133 0.1561 0.039951 0.050005 0.079109 0.14525 0.26722 0.14525h2.6392c0.0037-0.08784 0.0066-0.17594 0.0066-0.26458 0-0.088634-0.0029-0.17674-0.0066-0.26458h-2.5265c-0.0074082-0.011906-0.010054-0.014287-0.01852-0.029368-0.047889-0.086252-0.10954-0.21642-0.17356-0.34977s-0.12991-0.26934-0.19896-0.38496c-0.03466-0.057678-0.068526-0.11006-0.11536-0.16166-0.04683-0.051593-0.10927-0.13229-0.26775-0.13229-0.12541 0-0.19499 0.075934-0.22383 0.1143-0.028839 0.038099-0.038364 0.063234-0.047624 0.086782-0.018256 0.047095-0.027252 0.086782-0.037306 0.13388-0.019843 0.093925-0.037306 0.2114-0.055297 0.35083-0.035982 0.27886-0.073023 0.64213-0.1143 1.0041-0.015081 0.13388-0.033866 0.23442-0.050005 0.36274-0.12779-0.80458-0.20081-1.5901-0.33549-2.3838-0.033866-0.19711-0.067467-0.36274-0.10636-0.4945-0.019314-0.06588-0.038099-0.1225-0.071436-0.18282-0.016668-0.030162-0.036512-0.062705-0.075934-0.099746-0.039422-0.036776-0.11192-0.083078-0.20558-0.083078-0.12118 0-0.19711 0.071965-0.23151 0.11536-0.034395 0.043126-0.048947 0.076992-0.062441 0.11059-0.027252 0.066938-0.04392 0.13441-0.061382 0.21642-0.034924 0.16404-0.066145 0.3802-0.0971 0.63816-0.10662 0.99931-0.18547 1.8997-0.27172 2.8101-0.10874-1.2089-0.16483-2.3891-0.28125-3.5858-0.029633-0.30083-0.060059-0.5527-0.093661-0.74002-0.016668-0.093661-0.032278-0.16959-0.056884-0.24077-0.012171-0.035718-0.024606-0.069849-0.055297-0.11536-0.030691-0.045508-0.10345-0.13493-0.24394-0.13493z" fill="#b2e567" stroke-width=".26458"/>
 </g>
 <path transform="scale(.26458)" d="m31.973 4.9746a27.001 27.001 0 0 0-26.973 27 27.001 27.001 0 0 0 27.002 27.002 27.001 27.001 0 0 0 27.002-27.002 27.001 27.001 0 0 0-27.002-27 27.001 27.001 0 0 0-0.029297 0zm-0.16211 3.0254a23.975 23.975 0 0 1 0.19141 0 23.975 23.975 0 0 1 23.975 23.975 23.975 23.975 0 0 1-23.975 23.977 23.975 23.975 0 0 1-23.975-23.977 23.975 23.975 0 0 1 23.783-23.975z" fill="#333" stroke-width="3.7796" style="paint-order:fill markers stroke"/>
</svg>
