<svg xmlns="http://www.w3.org/2000/svg" width="64" height="64" viewBox="0 0 16.933 16.933"><circle cx="8.467" cy="8.46" r="7.144" fill="#3f3f3f" style="paint-order:fill markers stroke"/><path fill="#427e49" d="M8.467 1.323v2.174H6.293V1.663a7 7 0 0 0-.31.106v1.728H3.809v-.446c-.108.092-.21.192-.311.29v.156h-.155c-.1.102-.2.203-.292.31h.447v2.175H1.77a7 7 0 0 0-.107.31h1.835v2.174H1.324q.001.156.01.31h2.164v2.175H1.77q.06.157.126.31h1.601v2.174h-.155c.15.155.303.307.466.447v-.136h2.174v1.417q.154.057.31.107v-1.524h2.175v1.864q.155-.001.31-.01v-1.854h2.174v1.418a8 8 0 0 0 .31-.126v-1.291h2.02q.244-.223.465-.466v-2.019h1.291c.044-.104.087-.204.126-.31h-1.417V8.777H15.6c.004-.102.01-.206.01-.31h-1.864V6.293h1.524a7 7 0 0 0-.107-.31h-1.417V3.807h.136a7 7 0 0 0-.447-.466v.156h-2.174V1.896a7 7 0 0 0-.31-.126v1.728H8.777V1.334a6 6 0 0 0-.311-.01zM3.808 3.807h2.174v2.175H3.808zm2.485 0h2.174v2.174H6.293zm2.485 0h2.174v2.174H8.778zm2.484 0h2.174v2.174h-2.174zM3.808 6.292h2.174v2.174H3.808zm2.485 0h2.174v2.174H6.293zm2.485 0h2.174v2.174H8.778zm2.484 0h2.174v2.174h-2.174zM3.808 8.777h2.174v2.174H3.808zm2.485 0h2.174v2.174H6.293zm2.484 0h2.174v2.174H8.777zm2.485 0h2.174v2.174h-2.174zM3.808 11.26h2.174v2.174H3.808zm2.485 0h2.174v2.174H6.293zm2.484 0h2.174v2.174H8.777zm2.485 0h2.174v2.174h-2.174z"/><path fill="#b2e567" d="M8.467 4.429a.34.34 0 0 0-.287.158.5.5 0 0 0-.064.136 2 2 0 0 0-.067.282c-.04.22-.075.516-.11.869-.13 1.482-.22 2.836-.33 4.21-.118-1.1-.19-2.214-.32-3.3a9 9 0 0 0-.113-.749 1.5 1.5 0 0 0-.072-.254.5.5 0 0 0-.074-.13.35.35 0 0 0-.271-.135.36.36 0 0 0-.242.098.4.4 0 0 0-.089.117 1 1 0 0 0-.084.214q-.066.234-.125.58c-.153.981-.26 1.883-.393 2.8-.082-.528-.127-1.086-.193-1.605a6 6 0 0 0-.065-.412 1 1 0 0 0-.044-.157.3.3 0 0 0-.056-.102.34.34 0 0 0-.484-.057.5.5 0 0 0-.09.09 1.3 1.3 0 0 0-.121.182c-.076.131-.154.29-.23.444a8 8 0 0 1-.213.408l-.027.04H1.331a7 7 0 0 0 0 .622h3.098c.215 0 .263-.106.31-.164.05-.058.087-.117.125-.183.061-.104.122-.228.183-.35l.1.887c.05.43.103.86.167 1.198.032.168.065.31.11.436.023.062.046.12.094.184a.38.38 0 0 0 .307.166.36.36 0 0 0 .241-.097.4.4 0 0 0 .09-.117 1 1 0 0 0 .083-.215q.067-.234.125-.58c.139-.904.244-1.724.36-2.55.145 1.306.218 2.556.37 3.844.037.303.073.557.114.75.02.095.04.175.072.253.016.04.033.08.074.13s.13.135.272.135c.165 0 .25-.105.286-.158a.5.5 0 0 0 .065-.135c.028-.084.048-.173.067-.283.04-.22.074-.516.11-.869.122-1.405.21-2.677.31-3.963.117 1.325.184 2.652.31 3.963.035.353.07.65.11.869.02.11.038.2.067.283.015.042.03.082.065.135s.121.158.286.158a.35.35 0 0 0 .272-.135c.04-.05.058-.09.074-.13a1.5 1.5 0 0 0 .072-.254c.04-.192.077-.446.114-.749.147-1.343.24-2.58.37-3.845.134.851.218 1.713.36 2.55q.059.348.125.581a1 1 0 0 0 .084.215c.02.035.043.073.089.117a.36.36 0 0 0 .241.097.38.38 0 0 0 .308-.166.7.7 0 0 0 .093-.184 3 3 0 0 0 .11-.436c.064-.338.118-.768.167-1.198.038-.335.07-.634.103-.913.062.129.123.26.184.37.037.065.072.124.12.183.046.058.092.17.313.17h3.098a7 7 0 0 0 0-.621h-2.966c-.009-.014-.012-.017-.022-.035-.056-.1-.128-.254-.203-.41s-.153-.316-.234-.452c-.04-.068-.08-.13-.135-.19s-.129-.155-.315-.155a.32.32 0 0 0-.262.134c-.034.045-.045.074-.056.102a1 1 0 0 0-.044.157 6 6 0 0 0-.065.412c-.042.327-.086.754-.134 1.179-.018.157-.04.275-.059.425-.15-.944-.236-1.866-.394-2.798a5 5 0 0 0-.125-.58 1 1 0 0 0-.083-.215.4.4 0 0 0-.09-.117.36.36 0 0 0-.241-.098.35.35 0 0 0-.272.136.5.5 0 0 0-.073.13 1.5 1.5 0 0 0-.072.254 9 9 0 0 0-.114.749c-.125 1.173-.218 2.23-.319 3.299-.128-1.42-.194-2.805-.33-4.21-.035-.353-.07-.649-.11-.868-.02-.11-.038-.2-.067-.283a.5.5 0 0 0-.065-.136.34.34 0 0 0-.286-.158z"/><path fill="#333" d="M31.973 4.975A27 27 0 0 0 5 31.975a27 27 0 0 0 27.002 27.002 27 27 0 0 0 27.002-27.002 27 27 0 0 0-27.002-27h-.03zM31.811 8h.191a23.975 23.975 0 0 1 23.975 23.975 23.975 23.975 0 0 1-23.975 23.977A23.975 23.975 0 0 1 8.027 31.975 23.975 23.975 0 0 1 31.81 8z" style="paint-order:fill markers stroke" transform="scale(.26458)"/></svg>