<svg xmlns="http://www.w3.org/2000/svg" width="64" height="64"><rect width="52" height="52" x="6" y="6" fill="#5bd79d" rx="8" ry="8"/><g stroke-width="1.13" transform="translate(-6.418 -5.06) scale(1.2005)"><path fill="#e6a042" d="m22.957 20.696-4.522 2.26v5.653l4.522 2.261 4.522-2.26v-5.653zM39.914 30.87l-4.522 2.26v5.653l4.522 2.261 4.522-2.26V33.13z"/><rect width="15.826" height="29.391" x="24.087" y="16.174" fill="#3d3d3d" ry="1.13"/><path fill="#495dae" d="m44.435 20.696-3.391 1.696v4.521l3.391 1.696 3.391-1.696v-4.521zm-24.87 13-3.391 1.696v4.521l3.391 1.696 3.391-1.696v-4.521z"/><path fill="#933bb9" d="M25.217 18.435h13.565v23.739H25.217z"/><rect width="4.522" height="1.13" x="29.739" y="43.304" fill="#666" ry=".565"/><path fill="#5be19b" d="M26.909 33.13a.564.564 0 0 0-.461.883l1.713 2.57a6.772 6.772 0 0 0-2.943 5.59h13.565a6.772 6.772 0 0 0-2.943-5.59l1.713-2.57a.564.564 0 0 0-.48-.883.564.564 0 0 0-.458.258l-1.76 2.639A6.745 6.745 0 0 0 32 35.39a6.745 6.745 0 0 0-2.855.636l-1.76-2.639a.564.564 0 0 0-.476-.258zm2.265 5.652a.565.565 0 0 1 .566.565.565.565 0 0 1-.566.566.565.565 0 0 1-.565-.566.565.565 0 0 1 .565-.565zm5.652 0a.565.565 0 0 1 .566.565.565.565 0 0 1-.566.566.565.565 0 0 1-.565-.566.565.565 0 0 1 .565-.565z"/><path fill="#666" d="M30.87 16.174v.565c0 .313.252.565.565.565h1.13a.564.564 0 0 0 .566-.565v-.565z"/></g></svg>