<svg width="64" height="64" version="1.1" viewBox="0 0 64 64" xmlns="http://www.w3.org/2000/svg">
 <rect x="6" y="6" width="52" height="52" rx="8" ry="8" fill="#5bd79d" stroke-width="1.1304"/>
 <g transform="matrix(1.2005 0 0 1.2005 -6.4176 -5.0604)" stroke-width="1.1304">
  <path d="m22.957 20.696-4.5217 2.2609v5.6522l4.5217 2.2609 4.5217-2.2609v-5.6522zm16.957 10.174-4.5217 2.2609v5.6522l4.5217 2.2609 4.5217-2.2609v-5.6522z" fill="#e6a042"/>
  <rect x="24.087" y="16.174" width="15.826" height="29.391" ry="1.1304" fill="#3d3d3d"/>
  <path d="m44.435 20.696-3.3913 1.6957v4.5217l3.3913 1.6957 3.3913-1.6957v-4.5217zm-24.87 13-3.3913 1.6957v4.5217l3.3913 1.6957 3.3913-1.6957v-4.5217z" fill="#495dae"/>
  <rect x="25.217" y="18.435" width="13.565" height="23.739" fill="#933bb9"/>
  <rect x="29.739" y="43.304" width="4.5217" height="1.1304" ry=".56522" fill="#666666"/>
  <path d="m26.909 33.13a0.56369 0.56369 0 0 0-0.46144 0.88315l1.7133 2.5699c-1.7776 1.2228-2.9431 3.2697-2.9431 5.5903h13.565c0-2.3207-1.1655-4.3675-2.9431-5.5903l1.7133-2.5699a0.56369 0.56369 0 0 0-0.47911-0.88315 0.56369 0.56369 0 0 0-0.45924 0.25833l-1.7596 2.6384c-0.86863-0.40421-1.8336-0.63587-2.8548-0.63587-1.0212 0-1.9862 0.23166-2.8548 0.63587l-1.7596-2.6384a0.56369 0.56369 0 0 0-0.47691-0.25833zm2.2653 5.6522a0.56522 0.56522 0 0 1 0.56522 0.56522 0.56522 0.56522 0 0 1-0.56522 0.56522 0.56522 0.56522 0 0 1-0.56522-0.56522 0.56522 0.56522 0 0 1 0.56522-0.56522zm5.6522 0a0.56522 0.56522 0 0 1 0.56522 0.56522 0.56522 0.56522 0 0 1-0.56522 0.56522 0.56522 0.56522 0 0 1-0.56522-0.56522 0.56522 0.56522 0 0 1 0.56522-0.56522z" fill="#5be19b"/>
  <path d="m30.87 16.174v0.56522c0 0.31313 0.25209 0.56522 0.56522 0.56522h1.1304c0.31313 0 0.56522-0.25209 0.56522-0.56522v-0.56522z" fill="#666666"/>
 </g>
</svg>
