<svg xmlns="http://www.w3.org/2000/svg" width="64" height="64" version="1"><g fill="#4f4f4f" transform="translate(2)"><rect width="52" height="32" x="4" y="25" rx="4" ry="4"/><rect width="52" height="18" x="4" y="7" rx="4" ry="4"/></g><path fill="#e4e4e4" d="M20 29A12 12 0 0 0 8 41a12 12 0 0 0 12 12 12 12 0 0 0 12-12 12 12 0 0 0-12-12m0 7a5 5 0 0 1 5 5 5 5 0 0 1-5 5 5 5 0 0 1-5-5 5 5 0 0 1 5-5"/><rect width="48" height="14" x="8" y="9" fill="#63a535" rx="2" ry="2"/><circle cx="15" cy="16" r="3" fill="#4f4f4f"/><rect width="6" height="6" x="46" y="13" fill="#983a0e" rx="3" ry="3"/><rect width="2" height="2" x="48" y="15" fill="#f7bf32" rx="1" ry="1"/><circle cx="23" cy="16" r="3" fill="#4f4f4f"/><circle cx="31" cy="16" r="3" fill="#4f4f4f"/><path fill="#e4e4e4" d="M44 29a12 12 0 0 0-12 12 12 12 0 0 0 12 12 12 12 0 0 0 12-12 12 12 0 0 0-12-12m0 7a5 5 0 0 1 5 5 5 5 0 0 1-5 5 5 5 0 0 1-5-5 5 5 0 0 1 5-5"/></svg>