<svg width="64" height="64" version="1.1" viewBox="0 0 16.933 16.933" xmlns="http://www.w3.org/2000/svg">
 <g>
  <path d="m5.1282 9.4568c0.95046 2.0656 2.3229 4.2303 3.3384 4.2303 1.0155 0 2.388-2.1647 3.3384-4.2303a8.7923 8.7923 0 0 1-0.0644 0.0263 8.7923 8.7923 0 0 1-0.12128 0.047798 8.7923 8.7923 0 0 1-0.12236 0.045596 8.7923 8.7923 0 0 1-0.12342 0.044001 8.7923 8.7923 0 0 1-0.12343 0.042399 8.7923 8.7923 0 0 1-0.1245 0.040804 8.7923 8.7923 0 0 1-0.1245 0.038602 8.7923 8.7923 0 0 1-0.12557 0.036501 8.7923 8.7923 0 0 1-0.12611 0.034897 8.7923 8.7923 0 0 1-0.12611 0.033303 8.7923 8.7923 0 0 1-0.12719 0.031101 8.7923 8.7923 0 0 1-0.12718 0.029 8.7923 8.7923 0 0 1-0.12826 0.027397 8.7923 8.7923 0 0 1-0.12772 0.025203 8.7923 8.7923 0 0 1-0.12879 0.0236 8.7923 8.7923 0 0 1-0.1288 0.0215 8.7923 8.7923 0 0 1-0.12933 0.0199 8.7923 8.7923 0 0 1-0.12933 0.0177 8.7923 8.7923 0 0 1-0.12986 0.0161 8.7923 8.7923 0 0 1-0.12987 0.0139 8.7923 8.7923 0 0 1-0.1304 0.0118 8.7923 8.7923 0 0 1-0.12987 0.0102 8.7923 8.7923 0 0 1-0.13094 8e-3 8.7923 8.7923 0 0 1-0.1304 6e-3 8.7923 8.7923 0 0 1-0.13041 4e-3 8.7923 8.7923 0 0 1-0.13094 2e-3 8.7923 8.7923 0 0 1-0.0875 5.29e-4 8.7923 8.7923 0 0 1-0.13094-1e-3 8.7923 8.7923 0 0 1-0.1304-3e-3 8.7923 8.7923 0 0 1-0.13041-5e-3 8.7923 8.7923 0 0 1-0.13094-7e-3 8.7923 8.7923 0 0 1-0.1304-9e-3 8.7923 8.7923 0 0 1-0.12987-0.0107 8.7923 8.7923 0 0 1-0.1304-0.0129 8.7923 8.7923 0 0 1-0.12987-0.01447 8.7923 8.7923 0 0 1-0.12933-0.0161 8.7923 8.7923 0 0 1-0.12986-0.0188 8.7923 8.7923 0 0 1-0.1288-0.020402 8.7923 8.7923 0 0 1-0.12879-0.021997 8.7923 8.7923 0 0 1-0.12826-0.024097 8.7923 8.7923 0 0 1-0.12826-0.0263 8.7923 8.7923 0 0 1-0.12772-0.027903 8.7923 8.7923 0 0 1-0.12718-0.029497 8.7923 8.7923 0 0 1-0.12665-0.0317 8.7923 8.7923 0 0 1-0.12664-0.033824 8.7923 8.7923 0 0 1-0.12558-0.035404 8.7923 8.7923 0 0 1-0.12557-0.037598 8.7923 8.7923 0 0 1-0.1245-0.039201 8.7923 8.7923 0 0 1-0.12397-0.040804 8.7923 8.7923 0 0 1-0.12342-0.042896 8.7923 8.7923 0 0 1-0.12289-0.045098 8.7923 8.7923 0 0 1-0.12236-0.046204 8.7923 8.7923 0 0 1-0.12128-0.048803 8.7923 8.7923 0 0 1-0.024199-0.01z" fill="#fff" stroke-width=".54002"/>
  <path d="m15.61 8.4667a7.1438 7.1437 0 0 1-7.1438 7.1438 7.1438 7.1437 0 0 1-7.1437-7.1438 7.1438 7.1437 0 0 1 7.1437-7.1437 7.1438 7.1437 0 0 1 7.1438 7.1437" fill="#3891ff" stroke-width=".26458"/>
  <path d="m14.552 8.4667a6.0854 6.0854 0 0 1-6.0854 6.0854 6.0854 6.0854 0 0 1-6.0854-6.0854 6.0854 6.0854 0 0 1 6.0854-6.0854 6.0854 6.0854 0 0 1 6.0854 6.0854" fill="#fff" opacity=".1" stroke-width=".22539"/>
  <path d="m5.1282 9.4568a8.7923 8.7923 0 0 0 0.024199 0.01 8.7923 8.7923 0 0 0 0.12128 0.048803 8.7923 8.7923 0 0 0 0.12236 0.046204 8.7923 8.7923 0 0 0 0.12289 0.045098 8.7923 8.7923 0 0 0 0.12342 0.042896 8.7923 8.7923 0 0 0 0.12397 0.040804 8.7923 8.7923 0 0 0 0.1245 0.039201 8.7923 8.7923 0 0 0 0.12557 0.037598 8.7923 8.7923 0 0 0 0.12558 0.035404 8.7923 8.7923 0 0 0 0.12664 0.033801 8.7923 8.7923 0 0 0 0.12665 0.0317 8.7923 8.7923 0 0 0 0.12718 0.029497 8.7923 8.7923 0 0 0 0.12772 0.027903 8.7923 8.7923 0 0 0 0.12826 0.0263 8.7923 8.7923 0 0 0 0.12826 0.024097 8.7923 8.7923 0 0 0 0.12879 0.021997 8.7923 8.7923 0 0 0 0.12879 0.020402 8.7923 8.7923 0 0 0 0.12987 0.0188 8.7923 8.7923 0 0 0 0.12933 0.0161 8.7923 8.7923 0 0 0 0.12987 0.0145 8.7923 8.7923 0 0 0 0.1304 0.0129 8.7923 8.7923 0 0 0 0.12987 0.0107 8.7923 8.7923 0 0 0 0.1304 9e-3 8.7923 8.7923 0 0 0 0.13094 7e-3 8.7923 8.7923 0 0 0 0.13041 5e-3 8.7923 8.7923 0 0 0 0.1304 3e-3 8.7923 8.7923 0 0 0 0.13094 1e-3 8.7923 8.7923 0 0 0 0.0875-5.56e-4 8.7923 8.7923 0 0 0 0.13094-2e-3 8.7923 8.7923 0 0 0 0.13041-4e-3 8.7923 8.7923 0 0 0 0.1304-6e-3 8.7923 8.7923 0 0 0 0.13094-8e-3 8.7923 8.7923 0 0 0 0.12987-0.0102 8.7923 8.7923 0 0 0 0.1304-0.0118 8.7923 8.7923 0 0 0 0.12987-0.014 8.7923 8.7923 0 0 0 0.12986-0.0161 8.7923 8.7923 0 0 0 0.12933-0.0177 8.7923 8.7923 0 0 0 0.12933-0.0199 8.7923 8.7923 0 0 0 0.1288-0.0215 8.7923 8.7923 0 0 0 0.12879-0.0236 8.7923 8.7923 0 0 0 0.12772-0.025203 8.7923 8.7923 0 0 0 0.12826-0.027397 8.7923 8.7923 0 0 0 0.12718-0.029 8.7923 8.7923 0 0 0 0.12719-0.031101 8.7923 8.7923 0 0 0 0.12611-0.033303 8.7923 8.7923 0 0 0 0.12611-0.034897 8.7923 8.7923 0 0 0 0.12557-0.036501 8.7923 8.7923 0 0 0 0.1245-0.038602 8.7923 8.7923 0 0 0 0.1245-0.040804 8.7923 8.7923 0 0 0 0.12343-0.042398 8.7923 8.7923 0 0 0 0.12343-0.044002 8.7923 8.7923 0 0 0 0.12235-0.045596 8.7923 8.7923 0 0 0 0.12128-0.047798 8.7923 8.7923 0 0 0 0.0644-0.0263c0.59249-1.2877 1.0577-2.5472 1.0577-3.1882 0-1.6692-1.9682-3.0223-4.3962-3.0223s-4.3962 1.3532-4.3962 3.0223c0 0.64098 0.46523 1.9005 1.0577 3.1882zm0 0c0.95046 2.0656 2.3229 4.2303 3.3384 4.2303 1.0155 0 2.388-2.1647 3.3384-4.2303a8.7923 8.7923 0 0 1-0.0644 0.0263 8.7923 8.7923 0 0 1-0.12128 0.047798 8.7923 8.7923 0 0 1-0.12236 0.045596 8.7923 8.7923 0 0 1-0.12342 0.044001 8.7923 8.7923 0 0 1-0.12343 0.042399 8.7923 8.7923 0 0 1-0.1245 0.040804 8.7923 8.7923 0 0 1-0.1245 0.038602 8.7923 8.7923 0 0 1-0.12557 0.036501 8.7923 8.7923 0 0 1-0.12611 0.034897 8.7923 8.7923 0 0 1-0.12611 0.033303 8.7923 8.7923 0 0 1-0.12719 0.031101 8.7923 8.7923 0 0 1-0.12718 0.029 8.7923 8.7923 0 0 1-0.12826 0.027397 8.7923 8.7923 0 0 1-0.12772 0.025203 8.7923 8.7923 0 0 1-0.12879 0.0236 8.7923 8.7923 0 0 1-0.1288 0.0215 8.7923 8.7923 0 0 1-0.12933 0.0199 8.7923 8.7923 0 0 1-0.12933 0.0177 8.7923 8.7923 0 0 1-0.12986 0.0161 8.7923 8.7923 0 0 1-0.12987 0.0139 8.7923 8.7923 0 0 1-0.1304 0.0118 8.7923 8.7923 0 0 1-0.12987 0.0102 8.7923 8.7923 0 0 1-0.13094 8e-3 8.7923 8.7923 0 0 1-0.1304 6e-3 8.7923 8.7923 0 0 1-0.13041 4e-3 8.7923 8.7923 0 0 1-0.13094 2e-3 8.7923 8.7923 0 0 1-0.0875 5.29e-4 8.7923 8.7923 0 0 1-0.13094-1e-3 8.7923 8.7923 0 0 1-0.1304-3e-3 8.7923 8.7923 0 0 1-0.13041-5e-3 8.7923 8.7923 0 0 1-0.13094-7e-3 8.7923 8.7923 0 0 1-0.1304-9e-3 8.7923 8.7923 0 0 1-0.12987-0.0107 8.7923 8.7923 0 0 1-0.1304-0.0129 8.7923 8.7923 0 0 1-0.12987-0.01447 8.7923 8.7923 0 0 1-0.12933-0.0161 8.7923 8.7923 0 0 1-0.12986-0.0188 8.7923 8.7923 0 0 1-0.1288-0.020402 8.7923 8.7923 0 0 1-0.12879-0.021997 8.7923 8.7923 0 0 1-0.12826-0.024097 8.7923 8.7923 0 0 1-0.12826-0.0263 8.7923 8.7923 0 0 1-0.12772-0.027903 8.7923 8.7923 0 0 1-0.12718-0.029497 8.7923 8.7923 0 0 1-0.12665-0.0317 8.7923 8.7923 0 0 1-0.12664-0.033824 8.7923 8.7923 0 0 1-0.12558-0.035404 8.7923 8.7923 0 0 1-0.12557-0.037598 8.7923 8.7923 0 0 1-0.1245-0.039201 8.7923 8.7923 0 0 1-0.12397-0.040804 8.7923 8.7923 0 0 1-0.12342-0.042896 8.7923 8.7923 0 0 1-0.12289-0.045098 8.7923 8.7923 0 0 1-0.12236-0.046204 8.7923 8.7923 0 0 1-0.12128-0.048803 8.7923 8.7923 0 0 1-0.024199-0.01z" fill="#fff" stroke-width=".54002"/>
  <g transform="matrix(.10841 0 0 .13987 .58407 .58407)" fill="#3292fe" stroke-width=".78972" aria-label="gp">
   <path d="m64.187 51.102q-1.1853 1.5697-2.6108 2.3065-1.4256 0.7368-3.2996 0.7368-3.2836 0-5.4299-2.5788-2.1463-2.5948-2.1463-6.5992 0-4.0204 2.1463-6.5832 2.1463-2.5788 5.4299-2.5788 1.874 0 3.2996 0.7368 1.4256 0.7368 2.6108 2.3225v-2.6589h5.7663v16.13q0 4.3247-2.739 6.5992-2.723 2.2905-7.9126 2.2905-1.6818 0-3.2515-0.25628t-3.1554-0.78486v-4.4689q1.5056 0.86494 2.9472 1.2814 1.4416 0.43247 2.8992 0.43247 2.8191 0 4.1325-1.2333 1.3134-1.2333 1.3134-3.8602zm-3.7801-11.164q-1.7779 0-2.771 1.3134-0.99308 1.3134-0.99308 3.7161 0 2.4667 0.96105 3.7481 0.96105 1.2654 2.8031 1.2654 1.794 0 2.787-1.3134 0.99308-1.3134 0.99308-3.7 0-2.4026-0.99308-3.7161-0.99308-1.3134-2.787-1.3134z"/>
   <path d="m81.197 51.55v9.4183h-5.7343v-24.763h5.7343v2.6269q1.1853-1.5697 2.6269-2.3065 1.4416-0.75282 3.3156-0.75282 3.3156 0 5.4459 2.6429 2.1303 2.6269 2.1303 6.7754 0 4.1485-2.1303 6.7914-2.1303 2.6269-5.4459 2.6269-1.874 0-3.3156-0.7368-1.4416-0.75282-2.6269-2.3225zm3.8122-11.613q-1.842 0-2.8351 1.3615-0.97707 1.3455-0.97707 3.8922 0 2.5468 0.97707 3.9083 0.99308 1.3455 2.8351 1.3455t2.8031-1.3455q0.97707-1.3455 0.97707-3.9083 0-2.5628-0.97707-3.9083-0.96105-1.3455-2.8031-1.3455z"/>
  </g>
 </g>
</svg>
