<svg xmlns="http://www.w3.org/2000/svg" width="64" height="64"><rect width="58" height="46" x="3" y="9" fill="#37474f" rx="6" ry="6"/><rect width="50" height="38" x="7" y="13" fill="#a341b4" rx="2" ry="2"/><path fill="#f4416b" fill-rule="evenodd" d="M9 13c-1.108 0-2 .892-2 2v34c0 .477.172.909.45 1.252L29.917 13H9z"/><path fill="#8a5cd8" fill-rule="evenodd" d="M57 18.211 7.717 50.525c.333.28.756.455 1.225.469h46.117A1.992 1.992 0 0 0 57 49V18.21z"/><path fill="#46a9d6" fill-rule="evenodd" d="M57 41.006 8.102 50.779c.271.137.573.221.898.221h46c1.108 0 2-.892 2-2v-7.994z"/></svg>