<svg width="64" height="64" version="1.1" xmlns="http://www.w3.org/2000/svg">
 <rect x="6" y="6" width="52" height="52" rx="8" ry="8" fill="#1a861c" fill-rule="evenodd" stop-color="#000000" style="paint-order:stroke fill markers"/>
 <path d="m20.571 16c-0.94674 9.5e-5 -1.7142 0.76755-1.7143 1.7143v28.571c9.5e-5 0.94673 0.76755 1.7142 1.7143 1.7143h5.1429c0.94674-9.5e-5 1.7142-0.76755 1.7143-1.7143v-9.1429h9.1429v9.1429c9.5e-5 0.94673 0.76755 1.7142 1.7143 1.7143h5.1429c0.94673-9.5e-5 1.7142-0.76755 1.7143-1.7143v-28.571c-9.5e-5 -0.94673-0.76755-1.7142-1.7143-1.7143h-5.1429c-0.94673 9.5e-5 -1.7142 0.76755-1.7143 1.7143v10.857h-9.1429v-10.857c-9.5e-5 -0.94673-0.76755-1.7142-1.7143-1.7143z" fill="#ffffff" stroke-width=".57143"/>
</svg>
