<svg xmlns="http://www.w3.org/2000/svg" width="64" height="64"><rect width="52" height="52" x="6" y="6" fill="#1a861c" fill-rule="evenodd" rx="8" ry="8" style="paint-order:stroke fill markers"/><path fill="#fff" d="M20.571 16c-.947 0-1.714.768-1.714 1.714v28.571c0 .947.767 1.715 1.714 1.715h5.143c.947 0 1.714-.768 1.714-1.715v-9.143h9.143v9.143c0 .947.768 1.715 1.714 1.715h5.143c.947 0 1.715-.768 1.715-1.715v-28.57c0-.947-.768-1.715-1.715-1.715h-5.143c-.946 0-1.714.768-1.714 1.714v10.857h-9.143V17.714c0-.946-.767-1.714-1.714-1.714z"/></svg>