<svg width="64" height="64" version="1.1" viewBox="0 0 64 64" xmlns="http://www.w3.org/2000/svg">
 <rect x="5" y="5" width="54" height="54" rx="27" ry="27" fill="#4d4d4d" stroke-width="3.6445"/>
 <path d="m35.367 12.347c-1.5626-0.01957-3.266 0.04565-4.9524 0.17869-3.3781 0.26608-6.6845 0.81519-8.6619 1.5078-3.9638 1.3813-4.6003 1.4673-4.2898 2.8329 1.3708 2.0386 2.0738 4.3342 3.3377 6.4406 0.37173 0.26999 0.80997 0.41738 1.4465 0.14739 5.2563-2.0425 10.694-3.0416 18.286-1.2991 2.1091-1.35 2.9503-4.8246 3.5464-7.021 0.33129-1.243-0.11217-1.6408-4.6055-2.4612-1.123-0.20608-2.5447-0.30651-4.1059-0.32608zm3.6168 3.3194 0.0052 0.0026c0.41216-0.03522 0.77475 0.26477 0.80475 0.6678 0.03 0.40303-0.26999 0.75388-0.68737 0.7891-0.41216 0.03-0.77997-0.2726-0.80997-0.67563-0.03-0.40303 0.28042-0.75389 0.68737-0.78519zm-16.49 1.2456c0.41216-0.03522 0.77214 0.26477 0.80736 0.6678 0.03 0.40303-0.27782 0.75388-0.68997 0.7891-0.40825 0.03-0.77476-0.26999-0.80475-0.67302-0.03522-0.40303 0.27521-0.75388 0.68737-0.78519" fill="#f1614b" stroke-width="1.3043"/>
 <path d="m32 16a16 16 0 0 0-16 16 16 16 0 0 0 16 16 16 16 0 0 0 16-16 16 16 0 0 0-16-16zm0 10.667a5.3334 5.3334 0 0 1 5.3334 5.3334 5.3334 5.3334 0 0 1-5.3334 5.3334 5.3334 5.3334 0 0 1-5.3334-5.3334 5.3334 5.3334 0 0 1 5.3334-5.3334zm0 1.3333a4 4 0 0 0-4 4 4 4 0 0 0 4 4 4 4 0 0 0 4-4 4 4 0 0 0-4-4zm0 1.3333a2.6667 2.6667 0 0 1 2.6667 2.6667 2.6667 2.6667 0 0 1-2.6667 2.6667 2.6667 2.6667 0 0 1-2.6667-2.6667 2.6667 2.6667 0 0 1 2.6667-2.6667z" fill="#52c8ff" stroke-width="1.0222"/>
</svg>
