<svg xmlns="http://www.w3.org/2000/svg" width="64" height="64"><path fill="#678bbb" fill-rule="evenodd" d="M24 6C14.028 6 6 14.028 6 24v26c0 4.432 3.568 8 8 8h26c9.948-.686 18-8.028 18-18V14c0-4.432-3.568-8-8-8z" style="paint-order:stroke fill markers"/><g transform="matrix(2 0 0 2 -16 -16)"><path fill="#c19a46" d="m24 12-3 5h3zM12 24l5 3v-3zm19 0v3l5-3zm-10 7 3 5v-5z"/><path fill="#e3c763" d="M24 12v5h3zm-7 9-5 3h5zm14 0v3h5zm-7 10v5l3-5z"/><path fill="#b7903d" d="M31 24s-2.582 8-7 8a8 8 0 0 1 0-16c4.418 0 7 8 7 8"/><path fill="#d2b865" d="M24 16a8 8 0 0 0-.984.07L25 17.08v13.84l-1.988 1.012A8 8 0 0 0 24 32a8 8 0 0 0 8-8 8 8 0 0 0-8-8"/><circle cx="24" cy="24" r="7" fill="#907e56"/><path fill="#91edfd" d="M23.5 24c-1.184.628-1.735-1.671-.875-2.36 2.378-1.902 5.094.531 4.016 2.688-1.292 2.583-4.12 2.553-6.36 3.922 1.484 1.507 5.736.934 7.14-.906.555-.726.84-1.671 1.204-2.547.987-2.374-1.007-4.425-2.266-5.39-.652-.5-3.77-.523-4.875.593-2.77 2.8-.337 7.481 3 5.813C26.735 24.686 24.312 21.6 23 23c.326.31.456.691.5 1"/><path fill="#c19a46" d="m16 16 1.395 3.486L19 19zm16 0-3 3 1.605.486zM19 29l-3 3 3.486-1.395zm10 0-.486 1.605L32 32z"/><path fill="#e4c764" d="m16 16 3 3 .486-1.605zm16 0-3.486 1.395L29 19zM17.395 28.514 16 32l3-3zm13.211 0L29.001 29l3 3z"/></g></svg>