<svg width="64" height="64" version="1.1" viewBox="0 0 16.933 16.933" xmlns="http://www.w3.org/2000/svg">
 <g transform="translate(0 -280.07)">
  <circle cx="8.4665" cy="288.53" r="7.1436" fill="#3fa7d7" style="paint-order:stroke markers fill"/>
  <circle cx="8.467" cy="288.53" r="5.594" opacity=".15" paint-order="stroke markers fill"/>
  <circle cx="8.467" cy="288.53" r="1.504" fill="#3fa7d7" paint-order="stroke markers fill"/>
  <path d="m8.467 284.56a3.969 3.969 0 1 0 0 7.937 3.969 3.969 0 0 0 0-7.937m0 1.587a2.382 2.382 0 1 1-1e-3 4.763 2.382 2.382 0 0 1 0-4.763" fill="#ff6e65"/>
  <path d="M4.862 286.888a3.948 3.948 0 0 0-.364 1.645c0 .587.134 1.144.364 1.646l1.389-.794a2.378 2.378 0 0 1-.166-.852c0-.3.064-.587.166-.851m-1.39-.794M12.072 286.888l-1.39.794c.102.264.166.55.166.851 0 .301-.064.587-.165.852l1.389.794c.229-.502.363-1.059.363-1.646s-.134-1.144-.363-1.645m0 0M7.615 290.75l-.794 1.388c.502.23 1.059.364 1.646.364s1.144-.134 1.645-.364l-.794-1.389c-.264.102-.55.166-.851.166-.301 0-.587-.064-.852-.166m0 0M8.467 284.565c-.587 0-1.144.134-1.646.363l.794 1.39c.265-.102.55-.166.852-.166.3 0 .587.064.851.165l.794-1.389a3.948 3.948 0 0 0-1.645-.363m0 0" fill="#fff"/>
 </g>
</svg>
