<svg width="64" height="64" version="1.1" xmlns="http://www.w3.org/2000/svg">
 <rect x="6" y="6" width="52" height="52" rx="8" ry="8" fill="#3584e4" stroke-width=".92858"/>
 <path d="m32 10-18 5.8035 9.1958 31.424 8.8042 6.773 8.8042-6.773 9.1958-31.424z" fill="#3d3846"/>
 <path d="m31.984 11-3.9844 5.1992 2.0039 24.238 1.9922 2.5625 1.9844-2.543 2.0195-24.25zm-7.1602 30-0.82422 1.9922 0.83984 2.0078 4.2852-0.75781 0.875-1.2461-0.875-1.25zm14.148 0-4.2969 0.74609-0.875 1.25 0.875 1.2461 4.2852 0.75781 0.83984-2.0078zm-6.9688 4-1.2461 0.875-0.75781 4.2891 2.0078 0.83594 1.9922-0.82422-0.75-4.3008z" fill="#ffc414"/>
</svg>
