<svg xmlns="http://www.w3.org/2000/svg" width="64" height="64"><g stroke-width=".892" color="#000" paint-order="fill markers stroke"><path fill="#262532" d="M61.14 32c0 2.04-12.804 24.215-14.57 25.236-1.767 1.019-27.373 1.019-29.14 0C15.663 56.216 2.86 34.039 2.86 32S15.664 7.785 17.43 6.764c1.767-1.019 27.373-1.019 29.14 0C48.337 7.784 61.14 29.961 61.14 32" display="block" overflow="visible" style="isolation:auto;mix-blend-mode:normal;marker:none"/><path fill="#f6f5f4" fill-opacity=".099" d="M54.415 32c0 1.569-9.848 18.627-11.207 19.412-1.36.784-21.057.784-22.415 0S9.585 33.569 9.585 32s9.85-18.627 11.208-19.412c1.359-.784 21.057-.784 22.415 0S54.415 30.431 54.415 32" display="block" overflow="visible" style="isolation:auto;mix-blend-mode:normal;marker:none"/><path fill="#ffab34" d="M32 15.89c-1.959 0-3.914.034-5.475.105a37 37 0 0 0-2.018.14c-.279.03-.527.064-.772.11-.244.046-.428.034-.918.31-.49.274-.574.436-.738.619a9 9 0 0 0-.483.595 33 33 0 0 0-1.133 1.625 117 117 0 0 0-2.833 4.55 117 117 0 0 0-2.64 4.657 33 33 0 0 0-.886 1.767 9 9 0 0 0-.289.703c-.081.229-.185.38-.185.929s.104.7.185.929c.08.229.176.453.289.703.227.5.527 1.093.885 1.767.716 1.348 1.662 3.01 2.641 4.656a134 134 0 0 0 1.847 3.008l-2.552 8.156 6.402-3.547c.156.046.275.057.41.083.243.047.492.08.771.11.56.059 1.237.103 2.018.139 1.56.072 3.515.107 5.474.107s3.913-.035 5.473-.106a35 35 0 0 0 2.019-.14 10 10 0 0 0 .772-.11c.245-.046.43-.034.92-.31.49-.274.573-.436.737-.619a9 9 0 0 0 .483-.595c.332-.44.711-.987 1.133-1.625a117 117 0 0 0 2.833-4.55 117 117 0 0 0 2.64-4.657 32 32 0 0 0 .884-1.767 9 9 0 0 0 .291-.703c.081-.229.185-.38.185-.929s-.104-.7-.185-.929a9 9 0 0 0-.29-.703 33 33 0 0 0-.884-1.767 117 117 0 0 0-2.641-4.656 117 117 0 0 0-2.833-4.55 33 33 0 0 0-1.133-1.626 9 9 0 0 0-.483-.595c-.164-.183-.247-.345-.738-.62-.49-.275-.674-.263-.918-.31a9 9 0 0 0-.773-.108 35 35 0 0 0-2.018-.14c-1.56-.072-3.515-.107-5.474-.107zm0 3.664c1.912 0 3.828.036 5.295.103.212.01.326.026.517.037l-5.845 8.701-5.917-8.693c.235-.015.386-.032.655-.045A123 123 0 0 1 32 19.555zm9.242 3.2a128 128 0 0 1 1.858 3.024 114 114 0 0 1 2.557 4.502c.336.635.61 1.182.783 1.564.032.071.04.097.065.156-.024.059-.033.084-.065.156-.173.382-.447.93-.783 1.564a114 114 0 0 1-2.557 4.502 123 123 0 0 1-2.113 3.422l-6.258-9.195zm-18.551.105 6.54 9.609-6.191 9.217a123 123 0 0 1-2.14-3.463 114 114 0 0 1-2.557-4.502 30 30 0 0 1-.783-1.564c-.032-.071-.04-.097-.065-.156.024-.059.033-.084.065-.156.173-.382.447-.93.783-1.564.674-1.267 1.6-2.895 2.557-4.502a129 129 0 0 1 1.791-2.919m9.302 13.662 5.323 7.82-.02.002c-1.468.067-3.384.102-5.296.102-1.899 0-3.799-.035-5.263-.1z" display="block" font-family="sans-serif" font-weight="400" overflow="visible" style="line-height:normal;font-variant-ligatures:normal;font-variant-position:normal;font-variant-caps:normal;font-variant-numeric:normal;font-variant-alternates:normal;font-feature-settings:normal;text-indent:0;text-align:start;text-decoration-line:none;text-decoration-style:solid;text-decoration-color:#000;text-transform:none;text-orientation:mixed;white-space:normal;shape-padding:0;isolation:auto;mix-blend-mode:normal;marker:none"/></g></svg>