<svg xmlns="http://www.w3.org/2000/svg" xmlns:xlink="http://www.w3.org/1999/xlink" width="64" height="64" viewBox="0 0 16.933 16.933"><defs><linearGradient id="a"><stop offset="0"/><stop offset="1" stop-opacity="0"/></linearGradient><linearGradient gradientTransform="matrix(.27517 0 0 .27517 -.339 279.728)" xlink:href="#a" id="b" x1="46.168" y1="57" x2="46.168" y2="27.346" gradientUnits="userSpaceOnUse"/></defs><g transform="translate(0 -280.067)"><rect width="13.758" height="13.758" x="1.588" y="281.654" rx=".825" ry=".825" fill="#4d4d4d" paint-order="markers stroke fill"/><rect rx=".265" ry=".265" height="2.646" width="2.646" y="282.448" x="2.381" fill="#999"/><rect x="5.556" y="282.448" width="2.646" height="2.646" ry=".265" rx=".265" fill="#fff"/><rect rx=".265" ry=".265" height="2.646" width="2.646" y="282.448" x="8.731" fill="#ff5757"/><rect x="11.906" y="282.448" width="2.646" height="2.646" ry=".265" rx=".265" fill="#fff"/><rect x="2.381" y="285.623" width="2.646" height="2.646" ry=".265" rx=".265" fill="#fff"/><rect rx=".265" ry=".265" height="2.646" width="2.646" y="285.623" x="5.556" fill="#fff"/><rect x="8.731" y="285.623" width="2.646" height="2.646" ry=".265" rx=".265" fill="#ff5757"/><rect rx=".265" ry=".265" height="2.646" width="2.646" y="285.623" x="11.906" fill="#fff"/><rect rx=".265" ry=".265" height="2.646" width="2.646" y="288.798" x="2.381" fill="#fff"/><rect x="5.556" y="288.798" width="2.646" height="2.646" ry=".265" rx=".265" fill="#999"/><rect rx=".265" ry=".265" height="2.646" width="2.646" y="288.798" x="8.731" fill="#fff"/><rect x="11.906" y="288.798" width="2.646" height="2.646" ry=".265" rx=".265" fill="#4ac73e"/><rect x="2.381" y="291.973" width="2.646" height="2.646" ry=".265" rx=".265" fill="#fff"/><rect rx=".265" ry=".265" height="2.646" width="2.646" y="291.973" x="5.556" fill="#fff"/><rect x="8.731" y="291.973" width="2.646" height="2.646" ry=".265" rx=".265" fill="#fff"/><rect rx=".265" ry=".265" height="2.646" width="2.646" y="291.973" x="11.906" fill="#fff"/><path d="M15.346 287.253a12.383 12.383 0 0 1-5.961 8.16h5.135a.824.824 0 0 0 .826-.826z" opacity=".25" fill="url(#b)" paint-order="markers stroke fill"/></g></svg>