<svg width="64" height="64" version="1.1" xmlns="http://www.w3.org/2000/svg" xmlns:xlink="http://www.w3.org/1999/xlink">
 <path d="m32 5c-14.958 0-27 12.041-27 26.999 0 14.958 12.042 27.001 27 27.001 14.958 0 27-12.044 27-27.001 0-14.958-12.042-26.999-27-26.999z" fill="#f8c04a" stroke-opacity=".55026" stroke-width="3.78"/>
 <path d="m32 9c-12.742 0-23 10.257-23 22.999 0 12.742 10.258 23.001 23 23.001 12.742 0 23-10.26 23-23.001 0-12.742-10.258-22.999-23-22.999z" fill="#fff" opacity=".2" stroke-opacity=".55026" stroke-width="3.22"/>
 <path d="m32 11.9-17.55 17.55h2.7v17.55h29.7v-17.55h2.7zm-1.35 10.8h2.7v2.7c1.5267 3e-5 3.4681 9.3e-5 4.05 0v2.7c-0.58193 9.3e-5 -2.5232 3e-5 -4.05 0v2.6789c0.63864 0.01592 1.2996 0.09299 1.9802 0.3876 0.59681 0.25836 1.187 0.73404 1.5557 1.3869 0.36864 0.65294 0.52207 1.4253 0.52207 2.2966v0.0027c-0.0023 0.78764-0.09114 1.4761-0.37441 2.1094-0.28328 0.63326-0.81317 1.169-1.3922 1.4581-0.74515 0.37198-1.5023 0.44575-2.2913 0.464v2.7158h-2.7v-2.7h-4.05v-2.7h4.05v-2.6789c-0.63014-0.01652-1.2825-0.09544-1.9538-0.38496-0.59629-0.25716-1.1882-0.7315-1.5557-1.3843-0.365-0.64833-0.51454-1.416-0.51416-2.2781-0.01282-0.69084-0.05264-1.8953 0.87276-2.8292 0.71929-0.72587 1.7292-1.0663 3.1509-1.1865zm0 5.487c-0.82474 0.11345-1.1782 0.30498-1.2313 0.35859-0.07629 0.07699-0.1072 0.21841-0.09492 0.89121v0.02905c-0.0016 0.54877 0.09905 0.83128 0.17139 0.95976 0.07233 0.12847 0.11084 0.16271 0.27158 0.23203 0.16606 0.07159 0.48307 0.11499 0.8833 0.13711zm2.7 5.3183v2.6446c0.55288-0.03765 0.97167-0.08776 1.0863-0.14502 0.097-0.04844 0.07534-0.01871 0.13184-0.14502 0.0562-0.12566 0.13732-0.45245 0.13974-1.0099 0-0.55102-0.09979-0.83884-0.17402-0.97031-0.074237-0.13148-0.1146-0.16443-0.27686-0.23467-0.17015-0.073668-0.49765-0.1169-0.90704-0.13975z" enable-background="new" fill="#fff3cc"/>
</svg>
