<svg width="64" height="64" version="1.1" xmlns="http://www.w3.org/2000/svg">
 <g transform="translate(5,5)">
  <circle cx="27" cy="27" r="27" fill="#f2f2f2" stroke-width="3.375"/>
  <circle cx="27" cy="27" r="23" fill="#f9f9f9" stroke-width="2.875"/>
 </g>
 <g transform="translate(-.66265)" stroke-width="2.7729">
  <path d="m30.747 12.408c-2.9695 3.3491-4.7245 6.9026-4.8093 10.312-0.09012 3.6189 1.0132 7.0146 2.2205 9.5915 0.15362 0.32998 0.02579 0.72262-0.29254 0.89898-1.2459 0.68352-2.3137 1.6527-3.114 2.8273-0.41871 0.61226-1.3768 0.22821-1.2567-0.50384l0.16249-0.98549c-5.54e-4 -0.1819-0.18274-0.2845-0.21102-0.43895-0.0244 0.10981-0.01968 0.27396-0.04353 0.37933-0.17747 0.7864-0.32055 1.4552-0.21656 2.3287 0.03439 0.28755 0.16249 0.53157 0.37379 0.83936 0.12145 0.18024 0.1514 0.40762 0.08125 0.61282-0.43091 1.27-0.57066 2.626-0.41178 3.9569v0.0056c0.05657 0.44089 0.14502 0.87347 0.26537 1.3005 0.20852 0.75146-0.78668 1.2229-1.2348 0.58508-0.1392-0.19965-0.33497-0.47417-0.50911-0.69877 0.24928 1.9937 0.80914 3.932 1.966 5.5126 1.8132 2.479 4.5581 4.1067 7.8909 3.9708h0.02718c5.6964 0.0056 8.8963-2.2322 10.632-5.5292 1.7303-3.2887 1.9244-7.7392 1.1591-12.018-0.45753-1.7907-1.392-3.7021-2.8062-5.4646-2.2588-2.8126-5.0234-4.4763-7.2576-6.4559-0.13393-0.11757-0.21712-0.28256-0.23292-0.4603-0.19494-2.2743-0.28256-4.4699-0.287-6.8078-0.01 0.02302-0.03355 0.04187-0.04326 0.06516-0.3358 0.80997-0.696 2.223-0.96941 3.3849-0.14863 0.65108-1.0418 0.73621-1.3108 0.1245-0.03439-0.07709-0.14364-0.22904-0.24346-0.50356-0.0111-0.02829-0.01996-0.0574-0.02718-0.08679-0.4628-2.0827-0.1234-4.3698 0.34661-6.2715 0.05685-0.23043 0.09095-0.25234 0.15168-0.47112zm-7.3601 32.805c0.02994 0.06655 0.06046 0.1331 0.09206 0.19965-0.04464 0.01387-0.06488 0.03605-0.11369 0.04991 0.02939-0.08318 0.01137-0.16638 0.02163-0.24956z" fill="#ff7d20"/>
  <path d="m32.507 9.2397s-4.1624 5.8048-3.7695 9.4956c0.31972 3.005 6.5114 12.224 8.4233 18.322l-6.9625 0.0111c-1.0548-1.2314-5.1277-7.3807-4.9538-14.368 0.11203-4.5032 2.2206-9.3544 7.2625-13.461z" fill="#ff7d20"/>
  <path d="m23.028 31.7c0.1331 2.0783-0.76616 3.216-0.53018 5.1995 0.10149 0.85128 0.73981 1.3781 1.1302 2.1046l0.26149-1.5944c0.02163-0.12478 0.04048-0.24679 0.06155-0.37434l0.40152-2.4477 0.0172-0.02107-0.01248-0.0047v-0.0017c0-1.2292-0.59091-1.9507-1.3293-2.8603z" fill="#d83b2f"/>
  <path d="m33.914 13.151c-0.58204 1.1061-1.2866 1.689-1.753 2.8134-0.62141 1.4982-1.3704 5.0589-1.3704 5.0589l1.4938 2.2741 1.6518 1.0934c-0.30779-3.211-0.49053-5.9598-0.44172-9.1875 0.0083-0.54349 0.32277-1.5137 0.41954-2.0522z" fill="#ff7d20"/>
  <circle transform="rotate(-7.0122)" cx="26.916" cy="44.747" r="9.7052" fill="#ffb832"/>
  <path d="m32.507 9.2397c-8.1391 8.5938-3.2842 12.681 0.08679 18.777 0.55652 1.0501 1.0997 2.4044 1.5326 3.6447 0.0039 8.32e-4 0.0072 0.0047 0.01077 0.0056 0.48166 0.09982 0.94778 0.23126 1.4028 0.40069 0.01055 0.0039 0.02191 0.0069 0.03244 0.01077 0.0183 0.0069 0.03605 0.0147 0.05407 0.02163 0.44949 0.1722 0.88373 0.3663 1.2999 0.60117 0.7437 0.42037 1.4167 0.94002 2.0256 1.5381 0.1148 0.11175 0.23736 0.21296 0.3455 0.33053 0.2052 0.22017 0.38266 0.45947 0.5629 0.6985 0.17192 0.22128 0.3383 0.44588 0.48803 0.68242 0.14419 0.22572 0.27729 0.45476 0.40207 0.69323 0.16083 0.30752 0.30225 0.62446 0.43257 0.95444 0.08042 0.2052 0.16638 0.40762 0.23292 0.62113 0.17469 0.55458 0.31611 1.123 0.39098 1.722 0.47417 3.8654-1.4059 7.4591-4.5015 9.3974-0.03992 0.02773-0.08401 0.04714-0.1245 0.07487-0.17358 0.10538-0.33386 0.22461-0.51465 0.32166-0.04242 0.02218-0.08707 0.02218-0.12977 0.04159-0.13254 0.06932-0.25206 0.15806-0.39015 0.21629-0.82522 0.36048-1.7505 0.56013-2.7837 0.57954-4.0119 0.07764-6.4689-1.5306-7.4511-4.6197-0.16998-1.0565 0.09705-2.4734 0.70959-2.8311-0.35382 0.12201-0.7839 0.25511-1.2997 0.73482-0.86931 0.80969-0.8194 1.2894-1.9552 1.6055 0.57649-1.6027-2.7391-3.3497-2.4047-5.5569-1.2151 6.6134 3.5213 13.981 10.675 13.69 11.771 0.0111 14.05-9.6165 12.472-18.392-0.48249-1.9017-1.4669-3.9043-2.9476-5.7463-3.7335-4.6496-8.6917-6.2147-10.235-10.458-0.84574-3.8055 1.2254-8.8217 1.5814-9.7593z" fill="#db3f2e"/>
  <path d="m40.144 31.845 1.5806 2.6972c0.02218 0.06266 0.06655 0.18967 0.06655 0.18967l0.80692 2.2588c0.59618 2.8228 0.51299 5.6401-0.35771 7.9444-1.2561 3.3247-3.9802 5.7288-6.8513 6.9156-5.0251 2.0769-10.729 0.43812-13.426-4.8138 0.03772 0.17192 0.09677 0.33552 0.14613 0.50467 0.27563 0.55458 0.57815 1.0925 0.9317 1.5972 0.10177 0.14696 0.21629 0.28561 0.32498 0.42703 1.9291 2.4956 4.8063 4.1705 8.2699 4.029 0.22987 0 0.43257-0.02496 0.65524-0.03328 0.0013 0 0.02052-0.02496 0.02163-0.02496 0.0067-0.0028 0.01 0.01941 0.01635 0.01941 8.1504-0.27452 11.508-5.3573 12.11-11.444 0-0.0056-0.02218-0.11369-0.02218-0.11646-0.0111-0.49912-0.0305-0.99825-0.09151-1.5029-0.19965-1.5917-0.66273-3.1251-1.3449-4.5534l0.0111-0.0052-0.11369-0.20048c-0.31334-0.63446-0.67104-1.2487-1.0703-1.836l-0.06101-0.10288z" fill="#ff7d20"/>
 </g>
</svg>
