<svg xmlns="http://www.w3.org/2000/svg" width="64" height="64" viewBox="0 0 16.933 16.933"><defs><linearGradient id="a" x1="1" x2="47" gradientTransform="matrix(0 -.2991 .2991 0 33.038 286.45)" gradientUnits="userSpaceOnUse"><stop offset="0" stop-color="#015093"/><stop offset="1" stop-color="#015ca7"/></linearGradient></defs><g stroke-width=".927"><path fill="url(#a)" d="M40.217 272.39a6.879 6.879 0 1 1 0 13.758 6.879 6.879 0 0 1 0-13.758" transform="translate(-33.299 -281.562)scale(1.0385)"/><path fill="#fff" d="M8.253 1.328a7 7 0 0 0-1.4.18l-3.358 9.754h1.328l1.695-4.97h.919l-1.672 4.97H7.1l1.58-4.627c.23-.666-.132-1.274-.804-1.274H6.842zm1.856 4.033L6.667 15.38a7.3 7.3 0 0 0 1.274.208l1.496-4.329h1.762c.314 0 .655-.252.762-.561l1.406-4.067c.23-.666-.132-1.274-.804-1.274m-1.452.931h1l-1.388 4.038h-1z"/></g></svg>