<svg xmlns="http://www.w3.org/2000/svg" xmlns:xlink="http://www.w3.org/1999/xlink" width="64" height="64" viewBox="0 0 16.933 16.933"><defs><linearGradient gradientTransform="matrix(.26458 0 0 .26458 0 280.067)" xlink:href="#a" id="c" x1="45.628" y1="57.955" x2="45.628" y2="12.461" gradientUnits="userSpaceOnUse"/><linearGradient id="a"><stop offset="0"/><stop offset="1" stop-opacity="0"/></linearGradient><linearGradient id="b" x1="1" x2="47" gradientUnits="userSpaceOnUse" gradientTransform="matrix(0 -.2991 .2991 0 33.038 286.451)"><stop stop-color="#015093"/><stop offset="1" stop-color="#015ca7"/></linearGradient></defs><path d="M40.217 272.394a6.879 6.879 0 1 1 0 13.758 6.879 6.879 0 0 1 0-13.758z" fill="url(#b)" transform="translate(-31.75 -270.806)"/><path d="M8.261 1.593a6.871 6.871 0 0 0-1.348.173L3.68 11.159h1.278L6.59 6.373h.885l-1.61 4.786h1.286l1.52-4.456c.222-.641-.127-1.227-.774-1.227h-.995zm1.787 3.883l-3.314 9.649c.396.102.807.169 1.227.2l1.44-4.168h1.697c.302 0 .631-.243.734-.541L13.186 6.7c.221-.641-.128-1.227-.775-1.227m-1.398.897h.964l-1.337 3.888h-.963z" fill="#fff"/><path d="M12.997 283.364a10.716 10.716 0 0 1 .497 3.185 10.716 10.716 0 0 1-4.695 8.852 6.88 6.88 0 0 0 6.547-6.868 6.88 6.88 0 0 0-2.349-5.17z" opacity=".25" fill="url(#c)" paint-order="stroke markers fill" transform="translate(0 -280.067)"/></svg>