<?xml version="1.0" encoding="UTF-8" standalone="no"?>
<!-- Created with Inkscape (http://www.inkscape.org/) -->

<svg
   xmlns:dc="http://purl.org/dc/elements/1.1/"
   xmlns:cc="http://creativecommons.org/ns#"
   xmlns:rdf="http://www.w3.org/1999/02/22-rdf-syntax-ns#"
   xmlns:svg="http://www.w3.org/2000/svg"
   xmlns="http://www.w3.org/2000/svg"
   xmlns:xlink="http://www.w3.org/1999/xlink"
   xmlns:sodipodi="http://sodipodi.sourceforge.net/DTD/sodipodi-0.dtd"
   xmlns:inkscape="http://www.inkscape.org/namespaces/inkscape"
   width="64"
   height="64"
   viewBox="0 0 16.933333 16.933333"
   version="1.1"
   id="svg4572"
   inkscape:version="0.92.3 (2405546, 2018-03-11)"
   sodipodi:docname="htop.svg">
  <title
     id="title4611">Canvas icon theme</title>
  <defs
     id="defs4566">
    <linearGradient
       id="linearGradient1367"
       inkscape:collect="always">
      <stop
         id="stop1363"
         offset="0"
         style="stop-color:#ffffff;stop-opacity:1;" />
      <stop
         id="stop1365"
         offset="1"
         style="stop-color:#ffffff;stop-opacity:1" />
    </linearGradient>
    <linearGradient
       inkscape:collect="always"
       id="linearGradient1352">
      <stop
         style="stop-color:#ffffff;stop-opacity:1;"
         offset="0"
         id="stop1348" />
      <stop
         style="stop-color:#ffffff;stop-opacity:0;"
         offset="1"
         id="stop1350" />
    </linearGradient>
    <linearGradient
       inkscape:collect="always"
       id="linearGradient1344">
      <stop
         style="stop-color:#b9c0ff;stop-opacity:1"
         offset="0"
         id="stop1340" />
      <stop
         style="stop-color:#7380ff;stop-opacity:1"
         offset="1"
         id="stop1342" />
    </linearGradient>
    <mask
       id="mask-5-1"
       fill="white">
      <circle
         r="5.8208332"
         cy="285.88751"
         cx="5.8208332"
         id="use38-2"
         style="stroke-width:0.26458332" />
    </mask>
    <clipPath
       clipPathUnits="userSpaceOnUse"
       id="clipPath1301">
      <circle
         r="5.8208218"
         cy="288.53333"
         cx="8.4666662"
         id="circle1303"
         style="opacity:0.35;fill:#000000;fill-opacity:1;fill-rule:evenodd;stroke:none;stroke-width:0.26458278" />
    </clipPath>
    <linearGradient
       inkscape:collect="always"
       xlink:href="#linearGradient1344"
       id="linearGradient1346"
       x1="32"
       y1="43.542969"
       x2="53.890625"
       y2="43.542969"
       gradientUnits="userSpaceOnUse" />
    <linearGradient
       inkscape:collect="always"
       xlink:href="#linearGradient1352"
       id="linearGradient1354"
       x1="10"
       y1="32"
       x2="53.890625"
       y2="32"
       gradientUnits="userSpaceOnUse" />
    <linearGradient
       inkscape:collect="always"
       xlink:href="#linearGradient1367"
       id="linearGradient1360"
       gradientUnits="userSpaceOnUse"
       x1="32"
       y1="32"
       x2="32"
       y2="6" />
  </defs>
  <sodipodi:namedview
     id="base"
     pagecolor="#ffffff"
     bordercolor="#666666"
     borderopacity="1.0"
     inkscape:pageopacity="0.0"
     inkscape:pageshadow="2"
     inkscape:zoom="4"
     inkscape:cx="26.58002"
     inkscape:cy="32.61034"
     inkscape:document-units="px"
     inkscape:current-layer="layer1"
     showgrid="true"
     units="px"
     width="64px"
     showguides="true"
     inkscape:guide-bbox="true"
     inkscape:window-width="730"
     inkscape:window-height="468"
     inkscape:window-x="682"
     inkscape:window-y="350"
     inkscape:window-maximized="0"
     inkscape:snap-bbox="true"
     inkscape:bbox-nodes="true"
     inkscape:snap-bbox-edge-midpoints="true"
     inkscape:snap-global="true">
    <inkscape:grid
       type="xygrid"
       id="grid4582" />
    <sodipodi:guide
       position="1.0583333,15.875"
       orientation="0,1"
       id="guide4584"
       inkscape:locked="false" />
    <sodipodi:guide
       position="1.0583333,1.0583333"
       orientation="1,0"
       id="guide4586"
       inkscape:locked="false" />
    <sodipodi:guide
       position="15.875,15.875"
       orientation="1,0"
       id="guide4588"
       inkscape:locked="false" />
    <sodipodi:guide
       position="1.0583333,1.0583333"
       orientation="0,1"
       id="guide4590"
       inkscape:locked="false" />
    <sodipodi:guide
       position="19.84375,7.9374998"
       orientation="0,1"
       id="guide822"
       inkscape:locked="false" />
    <sodipodi:guide
       position="8.4666665,8.4666665"
       orientation="1,0"
       id="guide824"
       inkscape:locked="false" />
  </sodipodi:namedview>
  <metadata
     id="metadata4569">
    <rdf:RDF>
      <cc:Work
         rdf:about="">
        <dc:format>image/svg+xml</dc:format>
        <dc:type
           rdf:resource="http://purl.org/dc/dcmitype/StillImage" />
        <dc:title>Canvas icon theme</dc:title>
        <cc:license
           rdf:resource="http://creativecommons.org/licenses/by-nc-sa/4.0/" />
        <dc:creator>
          <cc:Agent>
            <dc:title>Vince Liuice</dc:title>
          </cc:Agent>
        </dc:creator>
      </cc:Work>
      <cc:License
         rdf:about="http://creativecommons.org/licenses/by-nc-sa/4.0/">
        <cc:permits
           rdf:resource="http://creativecommons.org/ns#Reproduction" />
        <cc:permits
           rdf:resource="http://creativecommons.org/ns#Distribution" />
        <cc:requires
           rdf:resource="http://creativecommons.org/ns#Notice" />
        <cc:requires
           rdf:resource="http://creativecommons.org/ns#Attribution" />
        <cc:prohibits
           rdf:resource="http://creativecommons.org/ns#CommercialUse" />
        <cc:permits
           rdf:resource="http://creativecommons.org/ns#DerivativeWorks" />
        <cc:requires
           rdf:resource="http://creativecommons.org/ns#ShareAlike" />
      </cc:License>
    </rdf:RDF>
  </metadata>
  <g
     inkscape:label="Layer 1"
     inkscape:groupmode="layer"
     id="layer1"
     transform="translate(0,-280.06667)">
    <circle
       style="fill:#5b65cb;fill-opacity:1;fill-rule:evenodd;stroke:none;stroke-width:0.2456845"
       id="Oval-3"
       cx="8.4666662"
       cy="288.53333"
       r="6.8791666" />
    <circle
       style="opacity:0.25;fill:#000000;fill-opacity:1;fill-rule:evenodd;stroke:none;stroke-width:0.26458278"
       id="Mask"
       cx="8.4666662"
       cy="288.53333"
       r="5.8208218" />
    <g
       id="g1297"
       clip-path="url(#clipPath1301)">
      <rect
         rx="0"
         ry="0.13830507"
         y="282.44791"
         x="3.175"
         height="12.170847"
         width="0.26458332"
         id="rect1231"
         style="opacity:0.1;fill:#000000;fill-opacity:1;stroke:none;stroke-width:0.54105937;stroke-miterlimit:4;stroke-dasharray:none;stroke-opacity:1;paint-order:stroke markers fill" />
      <rect
         style="opacity:0.1;fill:#000000;fill-opacity:1;stroke:none;stroke-width:0.54105937;stroke-miterlimit:4;stroke-dasharray:none;stroke-opacity:1;paint-order:stroke markers fill"
         id="rect1233"
         width="0.26458332"
         height="12.170847"
         x="4.2333331"
         y="282.44791"
         ry="0.13830507"
         rx="0" />
      <rect
         rx="0"
         ry="0.13830507"
         y="282.44791"
         x="5.2916665"
         height="12.170847"
         width="0.26458332"
         id="rect1235"
         style="opacity:0.1;fill:#000000;fill-opacity:1;stroke:none;stroke-width:0.54105937;stroke-miterlimit:4;stroke-dasharray:none;stroke-opacity:1;paint-order:stroke markers fill" />
      <rect
         style="opacity:0.1;fill:#000000;fill-opacity:1;stroke:none;stroke-width:0.54105937;stroke-miterlimit:4;stroke-dasharray:none;stroke-opacity:1;paint-order:stroke markers fill"
         id="rect1237"
         width="0.26458332"
         height="12.170847"
         x="6.3499994"
         y="282.44791"
         ry="0.13830507"
         rx="0" />
      <rect
         rx="0"
         ry="0.13830507"
         y="282.44791"
         x="7.4083328"
         height="12.170847"
         width="0.26458332"
         id="rect1239"
         style="opacity:0.1;fill:#000000;fill-opacity:1;stroke:none;stroke-width:0.54105937;stroke-miterlimit:4;stroke-dasharray:none;stroke-opacity:1;paint-order:stroke markers fill" />
      <rect
         style="opacity:0.1;fill:#000000;fill-opacity:1;stroke:none;stroke-width:0.54105937;stroke-miterlimit:4;stroke-dasharray:none;stroke-opacity:1;paint-order:stroke markers fill"
         id="rect1241"
         width="0.26458332"
         height="12.170847"
         x="8.4666662"
         y="282.44791"
         ry="0.13830507"
         rx="0" />
      <rect
         rx="0"
         ry="0.13830507"
         y="282.44791"
         x="9.5249996"
         height="12.170847"
         width="0.26458332"
         id="rect1243"
         style="opacity:0.1;fill:#000000;fill-opacity:1;stroke:none;stroke-width:0.54105937;stroke-miterlimit:4;stroke-dasharray:none;stroke-opacity:1;paint-order:stroke markers fill" />
      <rect
         style="opacity:0.1;fill:#000000;fill-opacity:1;stroke:none;stroke-width:0.54105937;stroke-miterlimit:4;stroke-dasharray:none;stroke-opacity:1;paint-order:stroke markers fill"
         id="rect1245"
         width="0.26458332"
         height="12.170847"
         x="10.583333"
         y="282.44791"
         ry="0.13830507"
         rx="0" />
      <rect
         rx="0"
         ry="0.13830507"
         y="282.44791"
         x="11.641666"
         height="12.170847"
         width="0.26458332"
         id="rect1247"
         style="opacity:0.1;fill:#000000;fill-opacity:1;stroke:none;stroke-width:0.54105937;stroke-miterlimit:4;stroke-dasharray:none;stroke-opacity:1;paint-order:stroke markers fill" />
      <rect
         style="opacity:0.1;fill:#000000;fill-opacity:1;stroke:none;stroke-width:0.54105937;stroke-miterlimit:4;stroke-dasharray:none;stroke-opacity:1;paint-order:stroke markers fill"
         id="rect1249"
         width="0.26458332"
         height="12.170847"
         x="12.7"
         y="282.44791"
         ry="0.13830507"
         rx="0" />
      <rect
         rx="0"
         ry="0.13830507"
         y="282.44791"
         x="13.758333"
         height="12.170847"
         width="0.26458332"
         id="rect1251"
         style="opacity:0.1;fill:#000000;fill-opacity:1;stroke:none;stroke-width:0.54105937;stroke-miterlimit:4;stroke-dasharray:none;stroke-opacity:1;paint-order:stroke markers fill" />
      <rect
         transform="rotate(90)"
         style="opacity:0.1;fill:#000000;fill-opacity:1;stroke:none;stroke-width:0.54105937;stroke-miterlimit:4;stroke-dasharray:none;stroke-opacity:1;paint-order:stroke markers fill"
         id="rect1253"
         width="0.26458332"
         height="12.170847"
         x="282.97708"
         y="-14.684381"
         ry="0.13830507"
         rx="0" />
      <rect
         transform="rotate(90)"
         rx="0"
         ry="0.13830507"
         y="-14.684381"
         x="284.0354"
         height="12.170847"
         width="0.26458332"
         id="rect1255"
         style="opacity:0.1;fill:#000000;fill-opacity:1;stroke:none;stroke-width:0.54105937;stroke-miterlimit:4;stroke-dasharray:none;stroke-opacity:1;paint-order:stroke markers fill" />
      <rect
         transform="rotate(90)"
         style="opacity:0.1;fill:#000000;fill-opacity:1;stroke:none;stroke-width:0.54105937;stroke-miterlimit:4;stroke-dasharray:none;stroke-opacity:1;paint-order:stroke markers fill"
         id="rect1257"
         width="0.26458332"
         height="12.170847"
         x="285.09375"
         y="-14.684381"
         ry="0.13830507"
         rx="0" />
      <rect
         transform="rotate(90)"
         rx="0"
         ry="0.13830507"
         y="-14.684381"
         x="286.15207"
         height="12.170847"
         width="0.26458332"
         id="rect1259"
         style="opacity:0.1;fill:#000000;fill-opacity:1;stroke:none;stroke-width:0.54105937;stroke-miterlimit:4;stroke-dasharray:none;stroke-opacity:1;paint-order:stroke markers fill" />
      <rect
         transform="rotate(90)"
         style="opacity:0.1;fill:#000000;fill-opacity:1;stroke:none;stroke-width:0.54105937;stroke-miterlimit:4;stroke-dasharray:none;stroke-opacity:1;paint-order:stroke markers fill"
         id="rect1261"
         width="0.26458332"
         height="12.170847"
         x="287.21042"
         y="-14.684381"
         ry="0.13830507"
         rx="0" />
      <rect
         transform="rotate(90)"
         rx="0"
         ry="0.13830507"
         y="-14.684381"
         x="288.26874"
         height="12.170847"
         width="0.26458332"
         id="rect1263"
         style="opacity:0.1;fill:#000000;fill-opacity:1;stroke:none;stroke-width:0.54105937;stroke-miterlimit:4;stroke-dasharray:none;stroke-opacity:1;paint-order:stroke markers fill" />
      <rect
         transform="rotate(90)"
         style="opacity:0.1;fill:#000000;fill-opacity:1;stroke:none;stroke-width:0.54105937;stroke-miterlimit:4;stroke-dasharray:none;stroke-opacity:1;paint-order:stroke markers fill"
         id="rect1265"
         width="0.26458332"
         height="12.170847"
         x="289.32709"
         y="-14.684381"
         ry="0.13830507"
         rx="0" />
      <rect
         transform="rotate(90)"
         rx="0"
         ry="0.13830507"
         y="-14.684381"
         x="290.38541"
         height="12.170847"
         width="0.26458332"
         id="rect1267"
         style="opacity:0.1;fill:#000000;fill-opacity:1;stroke:none;stroke-width:0.54105937;stroke-miterlimit:4;stroke-dasharray:none;stroke-opacity:1;paint-order:stroke markers fill" />
      <rect
         transform="rotate(90)"
         style="opacity:0.1;fill:#000000;fill-opacity:1;stroke:none;stroke-width:0.54105937;stroke-miterlimit:4;stroke-dasharray:none;stroke-opacity:1;paint-order:stroke markers fill"
         id="rect1269"
         width="0.26458332"
         height="12.170847"
         x="291.44376"
         y="-14.684381"
         ry="0.13830507"
         rx="0" />
      <rect
         transform="rotate(90)"
         rx="0"
         ry="0.13830507"
         y="-14.684381"
         x="292.50208"
         height="12.170847"
         width="0.26458332"
         id="rect1271"
         style="opacity:0.1;fill:#000000;fill-opacity:1;stroke:none;stroke-width:0.54105937;stroke-miterlimit:4;stroke-dasharray:none;stroke-opacity:1;paint-order:stroke markers fill" />
      <rect
         transform="rotate(90)"
         style="opacity:0.1;fill:#000000;fill-opacity:1;stroke:none;stroke-width:0.54105937;stroke-miterlimit:4;stroke-dasharray:none;stroke-opacity:1;paint-order:stroke markers fill"
         id="rect1273"
         width="0.26458332"
         height="12.170847"
         x="293.56042"
         y="-14.684381"
         ry="0.13830507"
         rx="0" />
    </g>
    <path
       style="opacity:1;fill:#7380ff;fill-opacity:1;fill-rule:evenodd;stroke:none;stroke-width:0.99999791"
       d="M 32 10 A 21.999957 21.999957 0 0 0 10 32 A 21.999957 21.999957 0 0 0 32 54 A 21.999957 21.999957 0 0 0 54 32 A 21.999957 21.999957 0 0 0 32 10 z M 32 12 A 19.999957 19.999957 0 0 1 52 32 A 19.999957 19.999957 0 0 1 32 52 A 19.999957 19.999957 0 0 1 12 32 A 19.999957 19.999957 0 0 1 32 12 z "
       transform="matrix(0.26458333,0,0,0.26458333,0,280.06667)"
       id="circle1372" />
    <path
       style="opacity:1;fill:url(#linearGradient1354);fill-opacity:1;fill-rule:evenodd;stroke:none;stroke-width:0.99999791"
       d="M 32 10 A 21.999957 21.999957 0 0 0 10 32 A 21.999957 21.999957 0 0 0 32 54 A 21.999957 21.999957 0 0 0 53.890625 34 L 51.900391 34 A 19.999957 19.999957 0 0 1 32 52 A 19.999957 19.999957 0 0 1 12 32 A 19.999957 19.999957 0 0 1 32 12 L 32 10 z "
       id="circle1324"
       transform="matrix(0.26458333,0,0,0.26458333,0,280.06667)" />
    <path
       style="opacity:1;fill:url(#linearGradient1346);fill-opacity:1;fill-rule:evenodd;stroke:none;stroke-width:0.99999791"
       d="M 52.886719 33.085938 A 1.0000001 1.0000001 0 0 0 51.886719 34.085938 A 1.0000001 1.0000001 0 0 0 51.886719 34.089844 A 19.999957 19.999957 0 0 1 32 52 L 32 54 A 21.999957 21.999957 0 0 0 53.839844 34.386719 A 1.0000001 1.0000001 0 0 0 53.886719 34.085938 A 1.0000001 1.0000001 0 0 0 53.884766 34.039062 A 21.999957 21.999957 0 0 0 53.890625 34 L 53.882812 34 A 1.0000001 1.0000001 0 0 0 52.886719 33.085938 z "
       transform="matrix(0.26458333,0,0,0.26458333,0,280.06667)"
       id="path1332" />
    <path
       style="opacity:1;fill:url(#linearGradient1360);fill-opacity:1;fill-rule:evenodd;stroke:none;stroke-width:0.99999791"
       d="M 32 10 A 0.99999997 0.99999997 0 0 0 31.90625 10.003906 A 21.999957 21.999957 0 0 0 10 32 L 12 32 A 19.999957 19.999957 0 0 1 32 12 A 0.99999997 0.99999997 0 0 0 33 11 A 0.99999997 0.99999997 0 0 0 32 10 z "
       transform="matrix(0.26458333,0,0,0.26458333,0,280.06667)"
       id="path1356" />
    <path
       inkscape:connector-curvature="0"
       style="opacity:1;fill:#ffffff;fill-opacity:1;stroke:none;stroke-width:0.52916664;stroke-linecap:round;stroke-linejoin:round;stroke-miterlimit:4;stroke-dasharray:none;stroke-opacity:1"
       d="m 5.5562491,284.82917 v 2.11667 h 0.529167 v -2.11667 z m 1.058334,0 v 2.11667 h 0.529166 v -2.11667 z m 3.175,0 v 2.11667 h 0.5291659 v -2.11667 z m 1.0583329,0 v 2.11667 h 0.529167 v -2.11667 z M 5.5562491,287.475 v 2.11667 h 0.529167 V 287.475 Z m 1.058334,0 v 2.11667 h 0.529166 V 287.475 Z m 1.058333,0 v 2.11667 h 0.529167 V 287.475 Z m 1.058333,0 v 2.11667 h 0.529167 V 287.475 Z m 1.058334,0 v 2.11667 H 10.318749 V 287.475 Z m 1.0583329,0 v 2.11667 h 0.529167 V 287.475 Z m -5.2916669,2.64584 v 2.11666 h 0.529167 v -2.11666 z m 1.058334,0 v 2.11666 h 0.529166 v -2.11666 z m 3.175,0 v 2.11666 h 0.5291659 v -2.11666 z m 1.0583329,0 v 2.11666 h 0.529167 v -2.11666 z"
       id="rect4212" />
  </g>
</svg>
