<svg width="64" height="64" version="1.1" xmlns="http://www.w3.org/2000/svg" xmlns:xlink="http://www.w3.org/1999/xlink">
 <g transform="translate(0 -1061.5)">
  <path d="M27 1113.52v3c0 .554.446 1 1 1h24c.554 0 1-.446 1-1v-3H28zm-16 0v3c0 .554.446 1 1 1h11c.554 0 1-.446 1-1v-3H12z" fill="#fbc02d"/>
  <rect x="3" y="1070.5" width="58" height="44" ry="2.046" fill="#388e3c"/>
  <rect x="4" y="1071.5" width="56" height="42" ry="1.024" fill="#388e3c"/>
  <path d="m18 1098.5-10 8v3l6-4v2l-6 4h4l1 2h5v-5l6-5h3l-6 5v5h38c0.554 0 1-0.446 1-1v-3.092l-7-8.908h-2l-2-2z" fill="#43a047" fill-rule="evenodd"/>
  <circle cx="58.5" cy="1112" r="1.5" fill="#fbc02d"/>
  <circle cx="58.5" cy="1112" r=".5" fill="#263238"/>
  <circle cx="58.5" cy="1073" r="1.5" fill="#fbc02d"/>
  <circle cx="58.5" cy="1073" r=".5" fill="#263238"/>
  <circle cx="5.5" cy="1112" r="1.5" fill="#fbc02d"/>
  <circle cx="5.5" cy="1112" r=".5" fill="#263238"/>
  <circle cx="5.5" cy="1073" r="1.5" fill="#fbc02d"/>
  <circle cx="5.5" cy="1073" r=".5" fill="#263238"/>
  <path d="m10 1071.5v8l-2 2v2l3 3h38l7-8h4v-1h-4v-4l-8 9h-3l8-9-2-2z" fill="#43a047" fill-rule="evenodd"/>
  <rect x="18" y="1084.5" width="28" height="16" ry="1" fill="#263238"/>
  <rect x="10" y="1074.5" width="14" height="6" ry="1" fill="#263238"/>
  <rect x="11" y="1075.5" width="9" height="1" ry="0" fill="#90a4ae"/>
  <path d="m11 1077.5h5v1h-5zm6 0h2v1h-2z" fill="#90a4ae"/>
  <rect x="37" y="1104.5" width="17" height="6" ry="1" fill="#eceff1"/>
  <g fill="#37474f">
   <rect x="38" y="1105.5" width="9" height="1" ry="0"/>
   <path d="m38 1107.5h5v1h-5z"/>
   <path d="m49 1109.5 2-3 2 3z" fill-rule="evenodd"/>
  </g>
  <rect x="21" y="1077.5" width="2" height="2" ry="0" fill="#90a4ae"/>
  <path d="m21 1087.5h2v10h-2zm4 0h2v10h-2zm4 0h2v10h-2zm4 0h2v10h-2zm4 0h2v10h-2zm4 0h2v10h-2z" fill="#90a4ae" fill-rule="evenodd" opacity=".5" paint-order="fill markers stroke"/>
 </g>
</svg>
