<svg width="64" height="64" version="1" xmlns="http://www.w3.org/2000/svg">
 <rect x="6" y="6" width="52" height="52" rx="6" ry="6" fill="#b5c0df" stroke-width=".92857"/>
 <rect x="11" y="12" width="10" height="31" rx="1.429" ry="1.409" fill="#314277"/>
 <rect x="27" y="12" width="26" height="31" rx="1.368" ry="1.409" fill="#314277"/>
 <rect transform="rotate(90)" x="23" y="-40.4" width="10" height="29.4" rx="1.429" ry="1.4" fill="#314277"/>
 <rect x="12" y="47" width="5" height="5" rx="1.25" ry="1.25" fill="#314277" opacity=".3"/>
 <rect x="19" y="47" width="5" height="5" rx="1.25" ry="1.25" fill="#314277" opacity=".56"/>
 <rect x="26" y="47" width="5" height="5" rx="1.25" ry="1.25" fill="#314277" opacity=".82"/>
 <rect x="31" y="16" width="18" height="5" rx="1.385" ry="1.25" fill="#fff"/>
 <rect x="31" y="34" width="18" height="5" rx="1.385" ry="1.25" fill="#fff"/>
 <rect transform="rotate(90)" x="25" y="-36" width="14" height="5" rx="1.077" ry="1.25" fill="#fff"/>
 <rect transform="scale(-1)" x="-49" y="-30" width="17" height="5" rx="1.308" ry="1.25" fill="#fff"/>
 <rect transform="rotate(90)" x="16" y="-49" width="14" height="5" rx="1.077" ry="1.25" fill="#fff"/>
 <rect transform="scale(-1,1)" x="-52" y="47" width="5" height="5" rx="1.25" ry="1.25" fill="#314277" opacity=".3"/>
 <rect transform="scale(-1,1)" x="-45" y="47" width="5" height="5" rx="1.25" ry="1.25" fill="#314277" opacity=".56"/>
 <rect transform="scale(-1,1)" x="-38" y="47" width="5" height="5" rx="1.25" ry="1.25" fill="#314277" opacity=".82"/>
</svg>
