<svg width="64" height="64" version="1.1" viewBox="0 0 16.934 16.934" xmlns="http://www.w3.org/2000/svg">
 <circle cx="8.467" cy="8.467" r="7.144" fill="#333"/>
 <g transform="translate(-4.9374 .63659)">
  <path d="m12.08 11.677 0.38955 0.26213 0.01304-0.01075v1.2787l0.44081 0.28897v-2.2966z" fill="#444e63"/>
  <path d="m12.35 5.7941v0.11994l-0.47704 0.24236v1.6132l-0.4495 0.26556 3.98e-4 3.5402 0.40452 0.27488 3.5513-2.2393v-3.4111l-0.37204-0.1641-0.001085-1.1664-0.47311-0.25216z" fill="#931b1a"/>
  <path d="m14.173 10.825-9.69e-4 1.8604-0.45002-0.30046v-1.8527z" fill="#444e63"/>
  <path d="m11.827 8.7793v3.0736l3.5549-2.2487v-2.8915z" fill="#ec7676"/>
  <path d="m12.272 6.9316v1.0672l-0.44702 0.25832v0.52362l0.47289-0.25116v0.51157l2.6606-1.598v-0.47832l0.4273-0.25328-0.0069-0.51336-0.3709 0.22642v-1.0251l-0.46595 0.25702z" fill="#df8f8f"/>
  <path d="m12.726 5.5751v0.56377l-0.45436 0.24688v0.55102l0.47738-0.26691v0.53836l1.8322-1.0477v-0.52343l0.42562-0.2358v-0.53972l-0.41998 0.24242v-0.52844l-0.45025 0.25839v0.53444l-0.93224 0.51502v-0.54882z" fill="#e5292a"/>
  <path d="m12.258 4.7327v1.1163l2.7398-1.4712v-1.0653z" fill="#a3a6b4"/>
  <path d="m14.584 3.5271-0.44237 0.22945v0.54159l0.44237-0.23617zm-0.44237 0.77104-0.94003 0.50128v0.54262l0.94003-0.50438zm-0.94003 0.50128v-0.55554l-0.46614 0.24134v0.56278z" fill="#ec7676"/>
  <path d="m13.699 2.9497-0.82887 0.42582 0.14965 0.37036 1.1342-0.53311z" fill="#3a4455"/>
  <path d="m12.267 4.7349-0.47628-0.25891 2.7787-1.4029 0.42972 0.23911z" fill="#67759c"/>
  <path d="m13.671 2.3922v0.57645l0.45739 0.23576v-0.57924z" fill="#444e63"/>
  <path d="m12.74 3.3354 0.46175-0.23994-0.4685-0.24134-0.47578 0.2463z" fill="#67759c"/>
  <path d="m12.737 3.3317v1.1566l1.8515-0.96308v-1.1312l-0.45972 0.23286-3.95e-4 0.60489-0.92975 0.44862v-0.58359z" fill="#a3a6b4"/>
  <path d="m14.131 2.628 0.46-0.2329-0.45697-0.23501-0.46284 0.23717z" fill="#67759c"/>
  <path d="m12.736 4.4934v-0.62097l1.8533-0.89074 0.0014 0.54665z" fill="#7384aa"/>
  <path d="m12.735 4.4953-0.47404-0.25633-2e-3 -1.1364 0.47605 0.23028z" fill="#444e63"/>
  <path d="m11.791 4.477 0.47004 0.255-0.0028 1.1167-0.46606-0.26744z" fill="#444e63"/>
  <path d="m13.319 6.8868v1.6401l0.85975-0.49801v-1.6327z" fill="#67759c"/>
  <path d="m12.921 11.64 9.69e-4 1.8604 0.45002-0.30046v-1.8527z" fill="#67759c"/>
  <path d="m14.173 10.825 9.69e-4 1.8604 0.45002-0.30046v-1.8527z" fill="#67759c"/>
  <path d="m12.466 11.446v0.49594l2.5363-1.6454v-0.45172l-0.83504 0.52072 0.01149-2.4549-0.85738 0.52288-0.01149 2.4661z" fill="#a3a6b4"/>
 </g>
</svg>
