<svg xmlns="http://www.w3.org/2000/svg" xmlns:xlink="http://www.w3.org/1999/xlink" width="64" height="64" viewBox="0 0 16.933 16.933"><defs><linearGradient id="a"><stop offset="0"/><stop offset="1" stop-opacity="0"/></linearGradient><linearGradient gradientTransform="matrix(.26458 0 0 .26458 0 280.067)" xlink:href="#a" id="b" x1="46.168" y1="57" x2="46.168" y2="27.346" gradientUnits="userSpaceOnUse"/></defs><g transform="matrix(1.04 0 0 1.04 -.339 -291.608)"><rect ry=".794" rx=".794" y="281.919" x="1.852" height="13.229" width="13.229" fill="#4d4d4d" paint-order="markers stroke fill"/><circle cx="13.524" cy="13.526" r="9.5" fill="#fff" transform="matrix(.26458 0 0 .26458 2.11 282.176)"/><circle cx="34.523" cy="13.479" r="9.5" fill="#333" transform="matrix(.26458 0 0 .26458 2.11 282.189)"/><circle cx="13.524" cy="34.558" r="9.5" fill="#333" transform="matrix(.26458 0 0 .26458 2.11 282.168)"/><circle cx="34.476" cy="34.483" r="9.5" fill="#fff" transform="matrix(.26458 0 0 .26458 2.123 282.188)"/><path d="M15.081 287.302a11.906 11.906 0 0 1-5.732 7.846h4.938c.44 0 .794-.354.794-.794z" opacity=".25" fill="url(#b)" paint-order="markers stroke fill"/></g></svg>