<?xml version="1.0" encoding="UTF-8"?>
<svg width="64" height="64" version="1.1" viewBox="0 0 64 64" xmlns="http://www.w3.org/2000/svg" xmlns:cc="http://creativecommons.org/ns#" xmlns:dc="http://purl.org/dc/elements/1.1/" xmlns:rdf="http://www.w3.org/1999/02/22-rdf-syntax-ns#">
 <metadata>
  <rdf:RDF>
   <cc:Work rdf:about="">
    <dc:format>image/svg+xml</dc:format>
    <dc:type rdf:resource="http://purl.org/dc/dcmitype/StillImage"/>
    <dc:title/>
   </cc:Work>
  </rdf:RDF>
 </metadata>
 <rect x="6" y="6" width="52" height="52" rx="8" ry="8" fill="#ccc" stroke-width="2.1286"/>
 <g transform="translate(2.901 -.039189)">
  <g stroke-width=".39681">
   <path d="m12.407 42.827c-3.2459 3.2459-3.4205 9.1623-3.4205 9.1623s5.9124-0.1746 9.1623-3.4205c3.2498-3.2459 4.595-7.1624 3.0078-8.7456-1.5872-1.5872-5.5037-0.24205-8.7496 3.0038z" fill="#ff6d00"/>
   <path d="m13.391 43.97c-2.0436 2.0436-2.1547 5.7656-2.1547 5.7656s3.722-0.11111 5.7656-2.1547c2.0436-2.0436 2.8927-4.5117 1.8928-5.5077s-3.4562-0.15079-5.5037 1.8967z" fill="#c62828"/>
   <path d="m17.581 44.005c1.9444 2.0753 4.4958 1.8571 4.7061 1.5158l1.7777-2.8888c0.10714-0.1746 0.0079-0.45236-0.06746-0.52378l-4.7974-4.7974c-0.07539-0.07539-0.34125-0.16269-0.51585-0.05555l-2.8888 1.7777c-0.33729 0.21031-0.71822 2.2935 1.7856 4.972z" fill="#546e7a"/>
   <path d="m30.644 49.283c-0.39681 0.32141-0.92853 0.24999-0.99598-0.22618-0.1865-1.3174-0.06349-3.9641-1.7221-5.6227-1.619-1.619-4.2498-1.8571-4.2498-1.8571l9.9043-4.8807s1.865 2.8768 0.83726 6.9719c-0.8571 3.3848-2.3213 4.4284-3.7736 5.6148z" fill="#0288d1"/>
   <path d="m11.812 31.018c-0.38887 0.33332-0.24999 0.92853 0.22618 0.99598 1.3174 0.1865 3.9641 0.06349 5.6227 1.7221 1.619 1.619 1.9563 3.9125 1.9563 3.9125l4.7855-10.13s-2.5316-1.1865-6.214-0.23015c-2.5396 0.66267-5.0593 2.5951-6.3767 3.73z" fill="#0288d1"/>
   <path d="m36.969 14.288c1.6071 0.73806 3.7736 2.0078 5.841 4.0752 0.73012 0.73012 1.3531 1.4761 1.8928 2.2062 1.0436 1.4087 1.7579 2.7538 2.2261 3.8054-1.0436 2.7419-3.0118 5.9323-4.9363 7.8568-7.8607 7.8607-16.543 12.349-21.035 9.1702-0.26189-0.1865-0.51982-0.35713-0.75393-0.56743-3.853-3.4641 0.5595-13.38 8.575-21.396 2.0118-2.0118 5.3648-4.0673 8.1901-5.1505z" fill="#fff"/>
  </g>
  <circle transform="rotate(-45)" cx="6.5083" cy="42.815" r="3.5315" fill="#455a64" stroke-width=".3968"/>
  <circle transform="rotate(-45)" cx="-4.1106" cy="43.135" r="2.5554" fill="#455a64" stroke-width=".3968"/>
  <path d="m36.969 14.288c-0.73409 3.6228 5.6624 10.718 9.9598 10.087 1.3372-3.4562 1.8848-5.8013 2.2499-9.8368 0.1865-2.0436-0.41268-2.6269-2.3054-2.4046-5.0196 0.58727-7.0036 0.96821-9.9043 2.1547z" fill="#e53935" stroke-width=".39681"/>
 </g>
</svg>
