<svg xmlns="http://www.w3.org/2000/svg" width="64" height="64" viewBox="0 0 16.933 16.933"><g transform="translate(0 -280.067)"><circle cx="8.467" cy="288.533" r="6.879" fill="#498cd8" paint-order="markers stroke fill"/><circle r="5.821" cy="288.533" cx="8.467" opacity=".15" paint-order="markers stroke fill"/><path d="M10.44 285.358c-.165.44-.358.907-.577 1.292h-2.03v.534h.738v.95c0 .165-.01.357-.028.504h-.89v.537h.835c-.11.971-.485 1.644-1.127 2.12l.385.413c.752-.55 1.191-1.36 1.32-2.533h1.118v2.533h.55v-2.533h1.08v-.537h-1.08v-1.454h.9v-.534H10.44c.202-.312.403-.723.605-1.127zm-4.23.017v1.086H5.3v.543h.91v1.433c-.348.147-.688.293-1.09.44l.192.577c.33-.128.605-.256.898-.385v1.732c0 .22-.046.33-.138.33-.256 0-.467-.037-.705-.11l.11.577c.22.055.422.083.678.083.22 0 .376-.055.467-.165.092-.11.126-.303.126-.577v-2.144l.845-.44-.083-.495c-.238.11-.524.229-.762.357v-1.214h.905v-.542h-.905v-1.086zm2.58.066l-.549.165c.202.256.357.55.467.88l.577-.193a2.66 2.66 0 0 0-.494-.852zm.33 1.743h1.064v1.454h-1.09c.017-.128.027-.293.027-.42z" fill="#fff"/></g></svg>