<svg width="64" height="64" version="1.1" viewBox="0 0 16.933 16.933" xmlns="http://www.w3.org/2000/svg">
 <g>
  <rect x="1.5875" y="1.5875" width="13.758" height="13.758" rx=".79373" ry=".79373" fill="#498cd8" fill-rule="evenodd" style="paint-order:fill markers stroke"/>
  <rect x="1.852" y="13.493" width="13.229" height="1.5875" rx=".52916" ry=".52916" fill-rule="evenodd" opacity=".15" style="paint-order:fill markers stroke"/>
  <path d="m10.44 4.4808c-0.165 0.44-0.358 0.907-0.577 1.292h-2.03v0.534h0.738v0.95c0 0.165-0.01 0.357-0.028 0.504h-0.89v0.537h0.835c-0.11 0.971-0.485 1.644-1.127 2.12l0.385 0.413c0.752-0.55 1.191-1.36 1.32-2.533h1.118v2.533h0.55v-2.533h1.08v-0.537h-1.08v-1.454h0.9v-0.534h-1.194c0.202-0.312 0.403-0.723 0.605-1.127zm-4.23 0.017v1.086h-0.91v0.543h0.91v1.433c-0.348 0.147-0.688 0.293-1.09 0.44l0.192 0.577c0.33-0.128 0.605-0.256 0.898-0.385v1.732c0 0.22-0.046 0.33-0.138 0.33-0.256 0-0.467-0.037-0.705-0.11l0.11 0.577c0.22 0.055 0.422 0.083 0.678 0.083 0.22 0 0.376-0.055 0.467-0.165 0.092-0.11 0.126-0.303 0.126-0.577v-2.144l0.845-0.44-0.083-0.495c-0.238 0.11-0.524 0.229-0.762 0.357v-1.214h0.905v-0.542h-0.905v-1.086zm2.58 0.066-0.549 0.165c0.202 0.256 0.357 0.55 0.467 0.88l0.577-0.193a2.66 2.66 0 0 0-0.494-0.852zm0.33 1.743h1.064v1.454h-1.09c0.017-0.128 0.027-0.293 0.027-0.42z" fill="#f9f9f9"/>
 </g>
</svg>
