<svg xmlns="http://www.w3.org/2000/svg" width="64" height="64" viewBox="0 0 16.933 16.933"><g transform="translate(0 -280.067)"><circle cx="8.467" cy="288.533" r="6.879" fill="#498cd8" paint-order="markers stroke fill"/><circle r="5.821" cy="288.533" cx="8.467" opacity=".15" paint-order="markers stroke fill"/><path d="M7.053 285.358l-1.415 1.91.4.793h4.24c-.04 1.017-.047 1.263-.264 1.789-.128.31-.29.504-.614.656-.325.152-.845.244-1.635.193l-.064.992c.89.058 1.576-.03 2.12-.283a2.216 2.216 0 0 0 1.113-1.179c.402-.974.294-1.46.361-2.637l-.021-.526H7.025l.827-1.115z" fill="#fff" fill-rule="evenodd"/></g></svg>