<svg xmlns="http://www.w3.org/2000/svg" width="64" height="64" viewBox="0 0 16.933 16.933"><rect width="13.758" height="13.758" x="1.587" y="1.587" fill="#498cd8" fill-rule="evenodd" rx="1.587" ry="1.587" style="paint-order:fill markers stroke"/><rect width="12.171" height="1.587" x="2.381" y="13.493" fill-rule="evenodd" opacity=".15" rx=".794" ry=".794" style="paint-order:fill markers stroke"/><path fill="#fff" d="M11.032 4.894a20 20 0 0 1-3.099.398l.051-.254c.06-.28.102-.56.195-.856l-1.185-.05c.008.279 0 .482-.043.846-.008.102-.034.212-.05.339a12 12 0 0 1-1.643-.16v1.04c.423.043.914.077 1.448.085-.22.923-.56 2.04-.957 2.811l.99.356c.085-.144.144-.254.238-.364.5-.644 1.354-.991 2.32-.991.812 0 1.252.423 1.252.923 0 1.236-1.854 1.456-3.691 1.16l.296 1.083c2.71.288 4.521-.389 4.521-2.277 0-1.067-.897-1.795-2.252-1.795-.77 0-1.405.152-2.082.525.135-.406.27-.94.38-1.448a37 37 0 0 0 3.328-.355z"/></svg>