<svg xmlns="http://www.w3.org/2000/svg" width="64" height="64"><rect width="52" height="52" x="6" y="6" fill="#2b2e3b" fill-rule="evenodd" rx="11" ry="11" style="paint-order:stroke fill markers"/><path fill="#9feaf9" d="M32 11c-7.756 0-14 6.244-14 14v4.85c-1.054 1.254-3.561 4.911-3.953 11.842 0 0-.645 8.55 2.906.033L18 38.905V39c0 4.35 1.964 8.221 5.057 10.785a12.25 3.646 0 0 0-3.307 2.487 12.25 3.646 0 0 0 .262.728h23.99a12.25 3.646 0 0 0 .248-.728 12.25 3.646 0 0 0-3.301-2.49A13.96 13.96 0 0 0 45.999 39v-.095l1.048 2.82c3.55 8.517 2.906-.033 2.906-.033-.392-6.93-2.899-10.587-3.953-11.842V25c0-7.756-6.244-14-14-14" opacity=".25"/><path fill="#9feaf9" d="M32.001 21a1.57 1.57 0 0 0-1.573 1.573A1.57 1.57 0 0 0 32 24.141a1.57 1.57 0 0 0 1.436-.938c1.886 1.346 2.827 3.964 3.136 6.744.338 2.992-.062 6.138-.625 7.822a.394.394 0 0 0 .748.249c.616-1.851 1.009-5.04.659-8.16-.34-3.04-1.4-6.047-3.803-7.514a1.57 1.57 0 0 0-1.55-1.342zm0 .787a.787.787 0 0 1 .784.73.4.4 0 0 0-.002.097.787.787 0 0 1-.782.743.787.787 0 0 1-.787-.786.787.787 0 0 1 .787-.784m5.767 3.51a6 6 0 0 0-.7.024.394.394 0 1 0 .08.784c1.64-.168 2.912.471 3.377 1.617.464 1.144.157 2.946-1.754 5.204a.393.393 0 1 0 .601.507c2.017-2.384 2.495-4.493 1.882-6.008-.54-1.327-1.892-2.09-3.489-2.13zm-10.966.024c-1.914.034-3.221.628-3.938 1.598-.953 1.293-.729 3.112.32 4.746a.393.393 0 0 0 .662-.425c-.936-1.455-1.057-2.895-.35-3.856.71-.96 2.362-1.583 5.301-1.124a.393.393 0 1 0 .12-.777 12.4 12.4 0 0 0-2.115-.16zm7.894.234h-.048a.4.4 0 0 0-.065.015 20.9 20.9 0 0 0-8.392 4.176c-2.316 1.93-3.957 4.288-4.005 6.71a1.57 1.57 0 0 0-.4 1.045 1.57 1.57 0 0 0 1.572 1.57 1.57 1.57 0 0 0 1.569-1.57 1.57 1.57 0 0 0-1.569-1.573 1.6 1.6 0 0 0-.342.039c.244-1.921 1.64-3.921 3.677-5.62a20.2 20.2 0 0 1 8.068-4.015.393.393 0 0 0-.065-.777m-2.695 4.874a1.57 1.57 0 0 0-1.573 1.573 1.57 1.57 0 0 0 1.573 1.569 1.57 1.57 0 0 0 1.568-1.569 1.57 1.57 0 0 0-1.568-1.573m-7.07 2.59a.393.393 0 0 0-.284.67c2.403 2.485 5.395 4.319 8.208 5.274 2.756.936 5.362 1.048 7.101-.048a1.6 1.6 0 0 0 .688.16 1.57 1.57 0 0 0 1.57-1.574 1.57 1.57 0 0 0-1.57-1.57 1.57 1.57 0 0 0-1.573 1.57 1.57 1.57 0 0 0 .26.861c-1.435.763-3.718.707-6.225-.144-2.683-.91-5.583-2.688-7.894-5.074a.4.4 0 0 0-.28-.126zm-1.575 3.698a.787.787 0 0 1 .787.784.787.787 0 0 1-.787.787.787.787 0 0 1-.784-.787.787.787 0 0 1 .784-.784m17.288 0a.787.787 0 0 1 .784.784.787.787 0 0 1-.784.787.787.787 0 0 1-.786-.787.787.787 0 0 1 .786-.784m-13 1.17a.393.393 0 0 0-.345.502s.306 1.13 1.03 2.268C29.053 41.793 30.25 43 32.002 43c2.306 0 3.643-2.558 3.643-2.558a.393.393 0 1 0-.688-.381S33.691 42.216 32 42.216c-1.39 0-2.355-.956-3.006-1.979-.652-1.023-.936-2.053-.936-2.053a.39.39 0 0 0-.372-.297h-.04z"/></svg>