<svg xmlns="http://www.w3.org/2000/svg" width="64" height="64" viewBox="0 0 16.933 16.933"><rect width="13.758" height="13.758" x="1.587" y="1.587" fill="#865e3c" rx="2.117" ry="2.117"/><g fill="#f6f5f4"><g stroke-width=".132"><path d="M12.446 9.19v.358c.306.368.484.78.484 1.336 0 .557-.188.968-.484 1.336v.358h.335a2.6 2.6 0 0 0 .633-1.694c0-.681-.242-1.252-.625-1.694zm-1.342.242-.719.726h-.601v1.452h.601l.736.726h.115V9.432zm.858.242v.484c.147.19.242.426.242.726s-.095.537-.242.726v.484h.242c.296-.24.484-.695.484-1.21 0-.524-.178-.973-.484-1.21zm-.484.484v1.452h.242a1.08 1.08 0 0 0 .242-.726c0-.304-.075-.536-.242-.726z" color="#bebebe" overflow="visible"/><path d="M8.097 9.19a.234.234 0 0 1 .234.235v.015a2.904 2.904 0 0 1-2.904 2.897H5.42a.237.237 0 0 1-.235-.242v-.726c0-.134.108-.242.242-.242h.484c.134 0 .242.108.242.242v.113a2.17 2.17 0 0 0 1.324-1.323h-.114a.24.24 0 0 1-.242-.242v-.484c0-.134.108-.242.242-.242z"/><path d="M5.16 3.705a.661.661 0 0 0 0 1.323.65.65 0 0 0 .322-.09l.52.487-.52.488a.65.65 0 0 0-.323-.091.661.661 0 1 0 .662.661q-.001-.09-.025-.173l.562-.546L7.541 6.88h.396v-.264L5.796 4.54a.7.7 0 0 0 .025-.173.66.66 0 0 0-.662-.662zm0 .397a.265.265 0 1 1 0 .53.265.265 0 0 1 0-.53m2.38-.132-1.04.984.347.339 1.091-1.059V3.97zM5.16 6.219a.265.265 0 1 1 0 .529.265.265 0 0 1 0-.53z" color="#000" overflow="visible" style="isolation:auto;mix-blend-mode:normal" transform="translate(1.312 1.204)scale(.91479)"/></g><path d="M86.02 26.038a2 2 0 0 0-1.196.37l-13.98 9.986a2 2 0 0 0-.835 1.626h-.002v1.997h1.997a2 2 0 0 0 1.162-.37L74 39.05v10.953A1.997 1.997 0 0 0 75.998 52h19.971a1.997 1.997 0 0 0 1.997-1.997V39.048l.838.599a2 2 0 0 0 1.16.37h1.997v-1.97a2 2 0 0 0-.836-1.653l-13.98-9.986a2 2 0 0 0-1.123-.37zm-.038 4.45 7.989 5.707v11.81H87.98v-7.988h-5.992v7.989h-3.994v-11.81z" color="#000" font-family="sans-serif" font-weight="400" overflow="visible" style="font-feature-settings:normal;font-variant-alternates:normal;font-variant-caps:normal;font-variant-ligatures:normal;font-variant-numeric:normal;font-variant-position:normal;isolation:auto;mix-blend-mode:normal;shape-padding:0;text-decoration-color:#000;text-decoration-line:none;text-decoration-style:solid;text-indent:0;text-orientation:mixed;text-transform:none;white-space:normal" transform="translate(1.312 1.204)scale(.12102)"/></g><path fill="#454b55" d="M3.704 1.587a2.11 2.11 0 0 0-2.117 2.117v9.525c0 1.173.945 2.117 2.117 2.117h.265V1.587z"/><g fill="#fff" stroke-width=".09"><rect width=".265" height="2.117" x="3.175" y="2.117" opacity=".15" rx=".132" ry=".132"/><rect width=".265" height="2.117" x="3.175" y="4.762" opacity=".15" rx=".132" ry=".132"/><rect width=".265" height="2.117" x="3.175" y="7.408" opacity=".15" rx=".132" ry=".132"/><rect width=".265" height="2.117" x="3.175" y="10.054" opacity=".15" rx=".132" ry=".132"/><rect width=".265" height="2.117" x="3.175" y="12.7" opacity=".15" rx=".132" ry=".132"/></g></svg>