<svg width="64" height="64" version="1.1" xmlns="http://www.w3.org/2000/svg" xmlns:xlink="http://www.w3.org/1999/xlink">
 <g transform="matrix(1.35 0 0 1.35 -.4 -.4)" shape-rendering="auto" stroke-width=".74074">
  <rect transform="scale(-1,1)" x="-44" y="4" width="40" height="40" rx="20" color="#000000" color-rendering="auto" fill="#1dc979" image-rendering="auto" solid-color="#000000" stroke-width=".74074" style="isolation:auto;mix-blend-mode:normal"/>
  <g fill="#fff">
   <path d="m27.391 12.269a3.3635 3.3635 0 0 1-0.50279 1.7119l4.9477 2.8594a3.3506 3.3506 0 0 1 0.93155-1.4652zm-6.7213 0.05244-5.4042 3.1216a3.3506 3.3506 0 0 1 0.86369 1.4251l5.0279-2.9057a3.3635 3.3635 0 0 1-0.48736-1.641zm-6.7738 8.7201a3.3506 3.3506 0 0 1-0.97165 0.14498 3.3506 3.3506 0 0 1-0.59224-0.05243v6.0581a3.3506 3.3506 0 0 1 0.59224-0.05553 3.3506 3.3506 0 0 1 0.97165 0.14498v-6.2401zm20.22 0.01548v6.2093a3.3506 3.3506 0 0 1 0.91921-0.12955 3.3506 3.3506 0 0 1 0.78349 0.09871v-6.1445a3.3506 3.3506 0 0 1-0.78349 0.09563 3.3506 3.3506 0 0 1-0.91921-0.12955zm-17.909 10.108a3.3506 3.3506 0 0 1-0.65085 1.3912l5.1328 2.9643a3.3506 3.3506 0 0 1 0.51513-1.4683zm15.556 0.02776-4.923 2.844a3.3506 3.3506 0 0 1 0.52438 1.5423l5.1019-2.9458a3.3506 3.3506 0 0 1-0.70329-1.4405z" color="#000000" color-rendering="auto" image-rendering="auto" opacity=".5" solid-color="#000000" style="isolation:auto;mix-blend-mode:normal"/>
   <path d="m23.958 9.6875a2.369 2.369 0 0 0-2.369 2.369 2.369 2.369 0 0 0 2.369 2.369 2.369 2.369 0 0 0 2.369-2.369 2.369 2.369 0 0 0-2.369-2.369zm-0.05553 1.5793a0.78966 0.78966 0 0 1 0.05553 0 0.78966 0.78966 0 0 1 0.78966 0.78966 0.78966 0.78966 0 0 1-0.78966 0.78966 0.78966 0.78966 0 0 1-0.78966-0.78966 0.78966 0.78966 0 0 1 0.73413-0.78966z" color="#000000" color-rendering="auto" image-rendering="auto" opacity=".5" solid-color="#000000" style="isolation:auto;mix-blend-mode:normal"/>
   <path d="m35.055 28.044a2.369 2.369 0 0 0-2.369 2.369 2.369 2.369 0 0 0 2.369 2.369 2.369 2.369 0 0 0 2.369-2.369 2.369 2.369 0 0 0-2.369-2.369zm-0.05553 1.5793a0.78966 0.78966 0 0 1 0.05553 0 0.78966 0.78966 0 0 1 0.78966 0.78966 0.78966 0.78966 0 0 1-0.78966 0.78966 0.78966 0.78966 0 0 1-0.78966-0.78966 0.78966 0.78966 0 0 1 0.73413-0.78966z" color="#000000" color-rendering="auto" image-rendering="auto" opacity=".5" solid-color="#000000" style="isolation:auto;mix-blend-mode:normal"/>
   <path d="m35.055 15.393a2.369 2.369 0 0 0-2.369 2.369 2.369 2.369 0 0 0 2.369 2.369 2.369 2.369 0 0 0 2.369-2.369 2.369 2.369 0 0 0-2.369-2.369zm-0.05553 1.5793a0.78966 0.78966 0 0 1 0.05553 0 0.78966 0.78966 0 0 1 0.78966 0.78966 0.78966 0.78966 0 0 1-0.78966 0.78966 0.78966 0.78966 0 0 1-0.78966-0.78966 0.78966 0.78966 0 0 1 0.73413-0.78966z" color="#000000" color-rendering="auto" image-rendering="auto" solid-color="#000000" style="isolation:auto;mix-blend-mode:normal"/>
   <path d="m12.945 28.044a2.369 2.369 0 0 0-2.369 2.369 2.369 2.369 0 0 0 2.369 2.369 2.369 2.369 0 0 0 2.369-2.369 2.369 2.369 0 0 0-2.369-2.369zm-0.05553 1.5793a0.78966 0.78966 0 0 1 0.05553 0 0.78966 0.78966 0 0 1 0.78966 0.78966 0.78966 0.78966 0 0 1-0.78966 0.78966 0.78966 0.78966 0 0 1-0.78966-0.78966 0.78966 0.78966 0 0 1 0.73413-0.78966z" color="#000000" color-rendering="auto" image-rendering="auto" opacity=".5" solid-color="#000000" style="isolation:auto;mix-blend-mode:normal"/>
   <path d="m12.945 15.393a2.369 2.369 0 0 0-2.369 2.369 2.369 2.369 0 0 0 2.369 2.369 2.369 2.369 0 0 0 2.369-2.369 2.369 2.369 0 0 0-2.369-2.369zm-0.05553 1.5793a0.78966 0.78966 0 0 1 0.05553 0 0.78966 0.78966 0 0 1 0.78966 0.78966 0.78966 0.78966 0 0 1-0.78966 0.78966 0.78966 0.78966 0 0 1-0.78966-0.78966 0.78966 0.78966 0 0 1 0.73413-0.78966z" color="#000000" color-rendering="auto" image-rendering="auto" solid-color="#000000" style="isolation:auto;mix-blend-mode:normal"/>
   <path d="m23.958 33.575a2.369 2.369 0 0 0-2.369 2.369 2.369 2.369 0 0 0 2.369 2.369 2.369 2.369 0 0 0 2.369-2.369 2.369 2.369 0 0 0-2.369-2.369zm-0.05553 1.5793a0.78966 0.78966 0 0 1 0.05553 0 0.78966 0.78966 0 0 1 0.78966 0.78966 0.78966 0.78966 0 0 1-0.78966 0.78966 0.78966 0.78966 0 0 1-0.78966-0.78966 0.78966 0.78966 0 0 1 0.73413-0.78966z" color="#000000" color-rendering="auto" image-rendering="auto" solid-color="#000000" style="isolation:auto;mix-blend-mode:normal"/>
   <path d="m15.49 19.993a3.3506 3.3506 0 0 1-1.2832 0.93463l7.3259 12.69a3.3506 3.3506 0 0 1 1.3048-0.89453z" color="#000000" color-rendering="auto" image-rendering="auto" solid-color="#000000" style="isolation:auto;mix-blend-mode:normal"/>
   <path d="m32.523 20.052-7.3167 12.675a3.3506 3.3506 0 0 1 1.3079 0.89453l7.3105-12.665a3.3506 3.3506 0 0 1-1.3017-0.90379z" color="#000000" color-rendering="auto" image-rendering="auto" solid-color="#000000" style="isolation:auto;mix-blend-mode:normal"/>
  </g>
 </g>
</svg>
