<?xml version="1.0" encoding="UTF-8" standalone="no"?>
<!-- Created with Inkscape (http://www.inkscape.org/) -->

<svg
   xmlns:dc="http://purl.org/dc/elements/1.1/"
   xmlns:cc="http://creativecommons.org/ns#"
   xmlns:rdf="http://www.w3.org/1999/02/22-rdf-syntax-ns#"
   xmlns:svg="http://www.w3.org/2000/svg"
   xmlns="http://www.w3.org/2000/svg"
   xmlns:sodipodi="http://sodipodi.sourceforge.net/DTD/sodipodi-0.dtd"
   xmlns:inkscape="http://www.inkscape.org/namespaces/inkscape"
   width="64"
   height="64"
   viewBox="0 0 16.933333 16.933333"
   version="1.1"
   id="svg4572"
   inkscape:version="0.92.2 2405546, 2018-03-11"
   sodipodi:docname="imagemagick.svg">
  <title
     id="title4611">Canvas icon theme</title>
  <defs
     id="defs4566" />
  <sodipodi:namedview
     id="base"
     pagecolor="#ffffff"
     bordercolor="#666666"
     borderopacity="1.0"
     inkscape:pageopacity="0.0"
     inkscape:pageshadow="2"
     inkscape:zoom="7.919596"
     inkscape:cx="30.72112"
     inkscape:cy="28.642205"
     inkscape:document-units="px"
     inkscape:current-layer="layer1"
     showgrid="true"
     units="px"
     width="64px"
     showguides="true"
     inkscape:guide-bbox="true"
     inkscape:window-width="695"
     inkscape:window-height="455"
     inkscape:window-x="1101"
     inkscape:window-y="439"
     inkscape:window-maximized="0"
     inkscape:snap-bbox="true"
     inkscape:bbox-nodes="true"
     inkscape:snap-bbox-edge-midpoints="true">
    <inkscape:grid
       type="xygrid"
       id="grid4582" />
    <sodipodi:guide
       position="1.0583333,15.875"
       orientation="0,1"
       id="guide4584"
       inkscape:locked="false" />
    <sodipodi:guide
       position="1.0583333,1.0583333"
       orientation="1,0"
       id="guide4586"
       inkscape:locked="false" />
    <sodipodi:guide
       position="15.875,15.875"
       orientation="1,0"
       id="guide4588"
       inkscape:locked="false" />
    <sodipodi:guide
       position="1.0583333,1.0583333"
       orientation="0,1"
       id="guide4590"
       inkscape:locked="false" />
    <sodipodi:guide
       position="14.552083,8.4666665"
       orientation="0,1"
       id="guide822"
       inkscape:locked="false" />
    <sodipodi:guide
       position="8.4666665,8.4666665"
       orientation="1,0"
       id="guide824"
       inkscape:locked="false" />
  </sodipodi:namedview>
  <metadata
     id="metadata4569">
    <rdf:RDF>
      <cc:Work
         rdf:about="">
        <dc:format>image/svg+xml</dc:format>
        <dc:type
           rdf:resource="http://purl.org/dc/dcmitype/StillImage" />
        <dc:title>Canvas icon theme</dc:title>
        <cc:license
           rdf:resource="http://creativecommons.org/licenses/by-nc-sa/4.0/" />
        <dc:creator>
          <cc:Agent>
            <dc:title>Vince Liuice</dc:title>
          </cc:Agent>
        </dc:creator>
      </cc:Work>
      <cc:License
         rdf:about="http://creativecommons.org/licenses/by-nc-sa/4.0/">
        <cc:permits
           rdf:resource="http://creativecommons.org/ns#Reproduction" />
        <cc:permits
           rdf:resource="http://creativecommons.org/ns#Distribution" />
        <cc:requires
           rdf:resource="http://creativecommons.org/ns#Notice" />
        <cc:requires
           rdf:resource="http://creativecommons.org/ns#Attribution" />
        <cc:prohibits
           rdf:resource="http://creativecommons.org/ns#CommercialUse" />
        <cc:permits
           rdf:resource="http://creativecommons.org/ns#DerivativeWorks" />
        <cc:requires
           rdf:resource="http://creativecommons.org/ns#ShareAlike" />
      </cc:License>
    </rdf:RDF>
  </metadata>
  <g
     inkscape:label="Layer 1"
     inkscape:groupmode="layer"
     id="layer1"
     transform="translate(0,-280.06667)">
    <circle
       style="opacity:1;fill:#3a3a3a;fill-opacity:1;stroke:none;stroke-width:0.49136901;stroke-miterlimit:4;stroke-dasharray:none;stroke-opacity:0.03921569;paint-order:stroke markers fill"
       id="path13"
       cx="8.4666662"
       cy="288.53333"
       r="6.8791666" />
    <circle
       r="5.8208218"
       cy="288.53333"
       cx="8.4666662"
       id="circle864"
       style="opacity:0.1;fill:#ffffff;fill-opacity:1;stroke:none;stroke-width:0.41577297;stroke-miterlimit:4;stroke-dasharray:none;stroke-opacity:0.03921569;paint-order:stroke markers fill" />
    <path
       id="path24"
       d="m 9.0910302,285.3819 c -0.656167,0.0847 -1.361281,0.40402 -1.934898,1.34884 -1.311539,2.159 -1.218406,2.91042 -1.427427,3.15331 -0.209815,0.24183 -0.775229,0.37306 -0.693473,0.64796 0.08176,0.27385 0.164306,0.23866 0.164306,0.23866 0,0 0.825765,1.19591 3.220509,0.88582 2.3944788,-0.31009 2.7265308,-0.81544 2.7048348,-1.06627 -0.0217,-0.25109 -0.52705,-0.43418 -0.52705,-0.43418 0,0 -0.374121,-1.31868 -0.278077,-1.86002 0.09604,-0.5416 0.460904,-1.33085 0.821531,-1.50072 0.359569,-0.17145 0.539486,0.57362 0.725488,0.38973 0.184943,-0.18388 -0.312209,-1.60337 -0.862013,-1.61448 -0.307975,-0.006 -1.0739439,-0.2966 -1.9139958,-0.18706 m 0.0021,1.81186 0.182827,0.54055 0.555096,0.15716 -0.469106,0.3339 0.02064,0.56753 -0.469106,-0.3339 -0.552979,0.19315 0.1778,-0.53446 -0.356659,-0.44847 0.582878,-0.005 m -1.545167,1.11839 0.01958,0.39158 0.350308,0.20982 -0.378354,0.13652 -0.09498,0.38762 -0.25744,-0.30189 -0.40296,0.0259 0.2159,-0.3265 -0.153988,-0.36697 0.39079,0.10133 m 1.873779,-0.17568 0.375179,0.50218 0.633677,-0.0249 -0.368035,0.50852 0.2159,0.57891 -0.607748,-0.18812 -0.499269,0.3855 -0.0042,-0.62415 -0.525992,-0.34316 0.602456,-0.19738 m 0.1778,-0.59743"
       inkscape:connector-curvature="0"
       style="fill:#ffffff;stroke-width:0.26458332" />
  </g>
</svg>
