<svg xmlns="http://www.w3.org/2000/svg" width="64" height="64" viewBox="0 0 16.933 16.933"><g transform="translate(0 -280.07)"><circle cx="8.466" cy="288.53" r="7.144" fill="#3a3a3a" style="paint-order:stroke markers fill"/><circle cx="8.467" cy="288.53" r="5.821" fill="#fff" opacity=".1" paint-order="stroke markers fill"/><path fill="#fff" d="M9.091 285.382c-.656.085-1.361.404-1.935 1.349-1.311 2.159-1.218 2.91-1.427 3.153s-.776.373-.694.648c.082.274.165.239.165.239s.825 1.196 3.22.885 2.727-.815 2.705-1.066c-.022-.25-.527-.434-.527-.434s-.374-1.319-.278-1.86.46-1.33.821-1.5c.36-.172.54.573.726.389s-.312-1.603-.862-1.614c-.308-.006-1.074-.297-1.914-.188m.002 1.812.183.54.555.158-.47.334.021.567-.469-.333-.553.193.178-.535-.357-.448.583-.005m-1.545 1.118.02.392.35.21-.378.136-.095.388-.258-.302-.403.026.216-.327-.154-.367.39.102m1.875-.176.375.502.634-.025-.368.509.215.579-.607-.188-.5.385-.004-.624-.526-.343.603-.198m.177-.597"/></g></svg>