<svg xmlns="http://www.w3.org/2000/svg" width="64" height="64" viewBox="0 0 16.933 16.933"><g transform="translate(0 -280.067)"><circle cx="8.467" cy="288.533" r="6.879" fill="#4d4d4d" paint-order="stroke markers fill"/><g transform="matrix(.61538 0 0 .61538 5.699 111.015)" stroke-width="1.625" paint-order="markers stroke fill"><path d="M-1.587 284.565h12.17c.44 0 .794.354.794.793v8.467c0 .44-.354.794-.794.794h-12.17a.792.792 0 0 1-.794-.794v-8.467c0-.44.354-.793.794-.793z" fill="#2f8dac"/><rect width="11.113" height="8.731" x="-1.058" y="282.448" ry=".794" rx=".775" fill="#fff"/><path d="M11.212 284.878a.788.788 0 0 1 .165.48v8.467c0 .44-.354.794-.794.794h-12.17a.788.788 0 0 1-.53-.206z" fill="#26a4ca"/><path d="M-2.216 284.878a.788.788 0 0 0-.165.48v8.467c0 .44.354.794.794.794h12.17c.205 0 .39-.08.53-.206z" fill="#49bde3"/></g></g></svg>