<svg xmlns="http://www.w3.org/2000/svg" width="64" height="64"><rect width="42" height="51" x="15" y="9" fill="#c2352a" rx="5" ry="5" style="paint-order:stroke fill markers"/><rect width="42" height="51" x="7" y="5" fill="#f2f2f2" rx="5" ry="5" style="paint-order:stroke fill markers"/><path fill="#90caf9" d="m45 20-9 1v9h9z"/><path fill="#bdbdbd" d="M30 9v11l15-3v-7c0-.554-.446-1-1-1H30z"/><path fill="#ffcc80" d="M27 9H11v14l16-3z"/><rect width="9" height="9" x="40" y="47" fill="#f2f2f2" rx="0" ry="0" style="paint-order:stroke fill markers"/><path fill="#ff8a80" d="M11 39v12c0 .554.446 1 1 1h32c.554 0 1-.446 1-1v-6l-34-6z"/><path fill="#bdbdbd" d="m34 21-23 4v12l23 4zM45 32h-9v9l9 2z"/><path fill="#fafafa" d="m15 5-8 8h2.273c2.382-.287 4.85-.399 5.727-3.715z"/><path fill="#df574d" d="M53 5c-2.216 0-4 1.784-4 4v47a4 4 0 0 1 8 0V9c0-2.216-1.784-4-4-4z" style="paint-order:stroke fill markers"/></svg>