<svg xmlns="http://www.w3.org/2000/svg" width="64" height="64" viewBox="0 0 16.933 16.933"><g fill-rule="evenodd"><path d="M8.466 1.588c-.393 0-.776.147-1.078.458l-5.365 5.53a1.632 1.632 0 0 0-.458 1.107v.027c0 1.185 3.165.034 3.45 1.483.155.785-1.725.425-1.725 1.214 0 .926 2.662.29 3.424 1.052.313.764-1.019.64-.782 1.35.447.46 1.452.2 1.645.944.22.85 1.664.703 2.507.08.447-.46-.69-.671-.242-1.133.446-.46 2.653-.368 2.669-1.375-.211-.634-1.04-.736-1.052-1.484-.044-.634.678-.449 2.966-1.08.915-.428.947-.656.943-1.051v-.027c-.005-.399-.19-.801-.485-1.106l-5.338-5.53a1.479 1.479 0 0 0-1.078-.46zm6.255 9.469a1.066 1.066 0 0 0-.297.027c-.146.042-.839.066-.782.593.628.263 1.585.473 1.699-.054.086-.395-.293-.554-.62-.566zM4.018 12.81c-.061.007-.102.032-.162.054-.476.181-.795.562-.35.729.444.166.742-.01 1.132-.216.39-.207.379-.244.35-.324-.054.01-.408-.21-.781-.243a.986.986 0 0 0-.19 0z" fill="#4d4d4d"/><path d="M8.573 3.062c.404.003 1.51 1.371 2.496 2.396.277.372-.146.798-.146.798L8.958 5.027l-.983 1.229-.737-.983-.491 1.72-1.474-.862 2.602-2.773c.171-.174.302-.3.698-.296z" fill="#fff"/><path d="M8.72 1.61a9.213 9.213 0 0 1 2.45 6.242 9.213 9.213 0 0 1-3.448 7.183c.443.52 1.63.34 2.362-.202.447-.46-.689-.671-.242-1.133.446-.46 2.653-.367 2.669-1.375-.211-.633-1.039-.736-1.052-1.484-.044-.634.678-.448 2.966-1.08.915-.428.947-.656.943-1.051v-.027c-.005-.399-.19-.801-.485-1.106l-5.338-5.53a1.475 1.475 0 0 0-.826-.437zm6.001 9.447a1.066 1.066 0 0 0-.297.027c-.146.042-.838.066-.781.593.627.263 1.584.473 1.698-.054.086-.395-.293-.554-.62-.566z" opacity=".15"/></g></svg>