<svg width="64" height="64" version="1.1" viewBox="0 0 64 64" xmlns="http://www.w3.org/2000/svg">
 <circle cx="32" cy="32" r="27" fill="#5e4fc1" stroke-width="1.1739"/>
 <path d="m32 14c-9.9412 0-18 8.0588-18 18s8.0588 18 18 18 18-8.0588 18-18-8.0588-18-18-18zm-0.6 2.4c8.2843-0.0036 15 6.7157 15 15s-6.7157 15-15 15-15.006-6.7157-15-15c5.46e-4 -0.76006 0.07074-1.5185 0.19219-2.2687 1.5209 1.083 3.3408 1.668 5.2078 1.6687 4.9705 0.0024 9.0029-4.0295 9-9-0.0011-1.8704-0.59045-3.6931-1.6781-5.2148 0.75356-0.11952 1.5151-0.18485 2.2781-0.18516z" fill="#fff" stroke-width="1.2" style="paint-order:normal"/>
</svg>
