<svg xmlns="http://www.w3.org/2000/svg" width="64" height="64" viewBox="0 0 16.933 16.933"><g transform="translate(0 -280.07)"><rect width="13.758" height="12.7" x="1.587" y="282.18" fill="#f4782e" paint-order="stroke markers fill" rx="1.587" ry="1.587"/><path fill="#fff" d="M4.548 291.63q0-.365.253-.613a.84.84 0 0 1 .617-.253q.357 0 .604.253.253.248.253.614a.83.83 0 0 1-.253.609.82.82 0 0 1-.604.248.85.85 0 0 1-.617-.248.82.82 0 0 1-.253-.61m-.05-3.912v1.441a3.34 3.34 0 0 1 3.337 3.343h1.447a4.786 4.786 0 0 0-4.784-4.784m.002-3.153v1.593a6.34 6.34 0 0 1 6.336 6.342h1.6a7.94 7.94 0 0 0-7.936-7.935" font-family="Bitstream Vera Serif" font-size="13.59" font-weight="700" overflow="visible"/></g></svg>