<svg width="64" height="64" version="1.1" viewBox="0 0 16.933 16.933" xmlns="http://www.w3.org/2000/svg">
 <path d="m5.292 1.058h6.35l3.174 3.175v8.467a2.11 2.11 0 0 1-2.116 2.116h-7.408a2.11 2.11 0 0 1-2.117-2.116v-9.525c0-1.173 0.944-2.117 2.117-2.117" fill="#f2f2f2" style="paint-order:fill markers stroke"/>
 <path d="m6.0853 2.6458v1.0568h-1.3229v0.26509h1.3229v1.0604h-1.3229v0.26458h1.3229v1.0583h-1.3229v0.26509h1.3229v1.0578h-1.3229v0.26406h1.3229v1.0588h-1.3229v0.26406h1.3229v1.0593h-1.3229v0.26354h1.3229v1.0593h-1.3229v0.26406h1.3229v1.0593h-1.3229v0.26354h1.3229v0.52812h0.26458v-0.52812h6.879v-0.26354h-6.879v-1.0593h6.879v-0.26406h-6.879v-1.0593h6.879v-0.26354h-6.879v-1.0593h6.879v-0.26406h-6.879v-1.0588h6.879v-0.26406h-6.879v-1.0578h6.879v-0.26509h-6.879v-1.0583h6.879v-0.26458h-6.879v-1.0604h6.879v-0.26509h-6.879v-1.0568h-0.26458z" opacity=".06"/>
 <path d="m14.816 4.233-3.175-3.175v1.852c0 0.733 0.59 1.323 1.323 1.323z" fill="#cccccc" fill-rule="evenodd" style="paint-order:stroke fill markers"/>
 <g transform="translate(.34632 -4.7554)" fill="#999999" style="paint-order:markers stroke fill;shape-inside:url(#a);white-space:pre">
  <path transform="matrix(-.31582 0 0 .31582 14.39 7.614)" d="m8.614 18.406q-0.733-0.012-1.273-0.216-0.528-0.204-0.816-0.636-0.288-0.42-0.288-1.056v-1.764q0-0.408-0.168-0.648-0.168-0.252-0.492-0.36-0.324-0.12-0.804-0.12v-0.876q0.48-0.012 0.804-0.12t0.492-0.348q0.168-0.252 0.168-0.648v-1.776q0-0.636 0.3-1.056t0.84-0.624q0.54-0.216 1.236-0.216v0.864q-0.407 0.012-0.707 0.132t-0.468 0.36q-0.156 0.24-0.156 0.636v1.728q0 0.612-0.324 0.984-0.324 0.36-0.984 0.48v0.072q0.672 0.12 0.984 0.492 0.324 0.36 0.324 0.972v1.764q0 0.384 0.156 0.624 0.156 0.252 0.456 0.36 0.3 0.12 0.72 0.132z" fill="#ffccaa" style="paint-order:markers stroke fill" aria-label="{"/>
 </g>
 <g transform="translate(-1.058 -.53)">
  <circle cx="12.7" cy="12.171" r="4.233" fill="#e68900"/>
  <path d="m10.583 13.344v0.943h0.943l2.381-2.381-0.943-0.943zm4.158-2.27c0.1-0.1 0.1-0.256 0-0.356l-0.589-0.59a0.25 0.25 0 0 0-0.357 0l-0.492 0.496 0.943 0.943z" fill="#ffffff"/>
 </g>
 <g transform="translate(-.062002 -.78414)" fill="#999999" style="paint-order:markers stroke fill;shape-inside:url(#b);white-space:pre">
  <path transform="matrix(.31582 0 0 .31582 3.317 .997)" d="m8.614 18.406q-0.733-0.012-1.273-0.216-0.528-0.204-0.816-0.636-0.288-0.42-0.288-1.056v-1.764q0-0.408-0.168-0.648-0.168-0.252-0.492-0.36-0.324-0.12-0.804-0.12v-0.876q0.48-0.012 0.804-0.12t0.492-0.348q0.168-0.252 0.168-0.648v-1.776q0-0.636 0.3-1.056t0.84-0.624q0.54-0.216 1.236-0.216v0.864q-0.407 0.012-0.707 0.132t-0.468 0.36q-0.156 0.24-0.156 0.636v1.728q0 0.612-0.324 0.984-0.324 0.36-0.984 0.48v0.072q0.672 0.12 0.984 0.492 0.324 0.36 0.324 0.972v1.764q0 0.384 0.156 0.624 0.156 0.252 0.456 0.36 0.3 0.12 0.72 0.132z" fill="#ffccaa" style="paint-order:markers stroke fill" aria-label="{"/>
 </g>
</svg>
