<svg xmlns="http://www.w3.org/2000/svg" width="64" height="64"><rect width="52" height="52" x="6" y="6" fill="#d2d1ce" fill-rule="evenodd" rx="8" ry="8" style="paint-order:stroke fill markers"/><path fill="#5f5d65" d="M12.875 37.315h2.25v5.251h-2.25zm0-14.756h2.25v5.251h-2.25z"/><path fill="#3d3846" d="M35 25.001a7 7 0 1 0 0 14 7 7 0 0 0 0-14"/><g fill="#ababab" stroke-linecap="round" color="#000"><path d="m45.515 18.505-27.03 26.99m25.351-28.673-27.031 26.99a2.377 2.377 0 0 0-.002 3.361 2.377 2.377 0 0 0 3.361.004l27.031-26.99a2.377 2.377 0 0 0 .002-3.361 2.377 2.377 0 0 0-3.361-.004m-25.351 1.683 27.03 26.99" style="-inkscape-stroke:none" transform="translate(2.966)"/><path d="M18.482 16.129a2.38 2.38 0 0 0-1.68.697 2.377 2.377 0 0 0 .002 3.362l27.031 26.99a2.377 2.377 0 0 0 3.362-.004 2.377 2.377 0 0 0-.002-3.362l-27.031-26.99a2.38 2.38 0 0 0-1.682-.693" style="-inkscape-stroke:none" transform="translate(2.966)"/></g><path fill="#f6f5f4" d="M35 27c-2.763 0-5 2.238-5 5s2.237 5 5 5 5-2.238 5-5-2.237-5-5-5"/><path fill="#848385" fill-rule="evenodd" d="M14 6c-4.432 0-8 3.568-8 8v36c0 4.432 3.568 8 8 8z" style="paint-order:stroke fill markers"/><path fill="#a8a8a5" d="M14 36.19c-.621 0-1.125.169-1.125.375v5.251h2.25v-5.25c0-.208-.504-.376-1.125-.376"/><path fill="#5f5d65" d="M14 41.441c-.621 0-1.125.169-1.125.375 0 .207.504.375 1.125.375q.194 0 .375-.022v-.353h.75c0-.206-.504-.375-1.125-.375m0-3.001c-.621 0-1.125.169-1.125.375v.75c0-.206.504-.375 1.125-.375s1.125.169 1.125.375v-.75c0-.206-.504-.375-1.125-.375"/><path fill="#a8a8a5" d="M14 21.434c-.621 0-1.125.169-1.125.375v5.251h2.25v-5.25c0-.207-.504-.376-1.125-.376"/><path fill="#5f5d65" d="M14 26.685c-.621 0-1.125.169-1.125.375 0 .207.504.375 1.125.375q.194 0 .375-.022v-.353h.75c0-.207-.504-.375-1.125-.375m0-3.001c-.621 0-1.125.169-1.125.375v.75c0-.206.504-.375 1.125-.375s1.125.169 1.125.375v-.75c0-.207-.504-.375-1.125-.375"/></svg>