<svg xmlns="http://www.w3.org/2000/svg" width="64" height="64" version="1"><circle cx="32" cy="32" r="27" fill="#720000" style="paint-order:stroke fill markers"/><path fill="#fe4647" d="M52.121 14.002 14.017 52.104a27 27 0 0 0 17.982 6.897 27 27 0 0 0 27-27 27 27 0 0 0-6.879-17.998z" style="paint-order:stroke fill markers"/><path fill="#fff" d="M31.995 18.993c7.203 0 13.002 5.798 13.002 13s-5.799 13-13.002 13-13.002-5.798-13.002-13 5.799-13 13.002-13"/><path fill="#fff" d="M43.755-26.956v53.887a27 27 0 0 0 3 0v-53.887a27 27 0 0 0-3 0" style="paint-order:stroke fill markers" transform="rotate(45)"/><path fill="#c80000" d="M31.995 21.994a9.98 9.98 0 0 1 10.001 10c0 5.54-4.46 10-10.001 10a9.98 9.98 0 0 1-10.001-10c0-5.54 4.46-10 10.001-10"/></svg>