<svg width="64" height="64" data-name="Layer 1" version="1.1" viewBox="0 0 64 64" xmlns="http://www.w3.org/2000/svg">
 <defs>
  <style>.cls-1{fill:#fee75c}.cls-2{fill:#fff}.cls-3{fill:#5865f2}</style>
 </defs>
 <g transform="matrix(.12 0 0 .12 5 5)">
  <circle class="cls-3" cx="225" cy="225" r="225"/>
  <path d="m225 299.8v114" fill="none" stroke="#fff" stroke-miterlimit="10" stroke-width="25"/>
  <path class="cls-1" d="m188.8 97.4 12.3-0.6c5-0.2 9.6 0 6.8-6.5a1309 1309 0 0 1-17-38.6c-1.3-3.5-1.8-3.9-5.4-3.9l-21.9-0.2-3 0.3-1.1 0.2a2 2 0 0 0-1.6 0.8c-0.3 0.6-0.5 1.3-0.3 2a28 28 0 0 0 1.4 4.1c3 7.9 6.2 15.6 9 23.5l-8.5 0.1-9.2 0.3c-1.4 0-3 0.3-3.6 2-0.7 1.6 0.1 3 1.1 4.1l2 2.4 10 11.6c10.4 11.9 20.3 24.6 32.2 35.2l4.5 4.2c0.8 0.8 1.8 1.5 2.8 1.5a3 3 0 0 0 1.6-0.5c1.7-1.2 1.3-2.8 0.8-4.2l-2.8-7.6c-2.4-6.8-5-13.8-7.3-20.7-1-3-1.8-6.4-2.7-9.6z"/>
  <path class="cls-2" d="m231.5 309h-13a54.2 54.2 0 0 1-54.2-54.1v-54.2h121.4v54.1a54.2 54.2 0 0 1-54.2 54.2z"/>
  <rect class="cls-2" x="186.4" y="141" width="26" height="70.5" rx="13" ry="13"/>
  <rect class="cls-2" x="238.8" y="142.7" width="26" height="70.5" rx="13" ry="13"/>
  <path class="cls-1" d="m259.9 108-7.4 20.7-2.7 7.6c-0.5 1.4-1 3 0.8 4.2 0.4 0.3 1 0.5 1.5 0.5 1.1 0 2-0.7 2.8-1.5l4.6-4.2c11.8-10.6 21.7-23.3 32.1-35.2l10-11.6 2-2.4c1-1.2 1.9-2.5 1.2-4.2-0.7-1.6-2.2-1.9-3.7-2-3 0-6 0-9.1-0.2-3 0-5.7-0.2-8.6-0.1 2.9-8 6-15.6 9-23.5a28 28 0 0 0 1.3-4.3c0.2-0.6 0.1-1.3-0.2-1.9a2 2 0 0 0-1.6-0.8l-1.2-0.2-3-0.3-21.9 0.2c-3.6 0-4 0.4-5.3 3.9-5.4 12.8-11.2 25.9-17 38.6-2.9 6.4 1.8 6.2 6.8 6.5l12.3 0.6c-1 3.2-1.7 6.5-2.7 9.6z"/>
  <path class="cls-3" d="m450 225a225 225 0 1 1-450 0 225 225 0 0 1 450 0zm-225-184.4a186.6 186.6 0 1 0 0 373.2 186.6 186.6 0 0 0 0-373.2z"/>
  <circle cx="225" cy="227.2" r="186.6" fill="none" stroke="#fff" stroke-miterlimit="10" stroke-width="14"/>
 </g>
</svg>
