<svg width="64" height="64" version="1.1" viewBox="0 0 64 64" xmlns="http://www.w3.org/2000/svg">
 <rect transform="scale(-1,1)" x="-33.02" y="8.859" width="48.966" height="0" fill="#f2f2f2" stroke-width="0"/>
 <circle cx="32" cy="32" r="27" fill="#f2f2f2" stroke-width="1.0316"/>
 <g transform="matrix(.66964 0 0 .66964 4.5723 4.5714)">
  <circle cx="40.959" cy="69.8" r="6.9997" fill="#f9f06b" stroke-width=".14"/>
  <g transform="matrix(.14 0 0 .14 5.1186 5.12)" fill="#f6d32d">
   <path d="m306 462c0-27.612-22.384-49.996-49.996-49.996v99.992c27.612 0 49.996-22.384 49.996-49.996z"/>
   <path d="m425.13 169.13c0-93.409-75.723-169.13-169.13-169.13s-169.13 75.724-169.13 169.13c0 34.925 10.587 67.376 28.725 94.321 33.928 50.4 52.205 109.86 52.205 170.61v0.037c0 15.408 12.491 27.9 27.9 27.9h120.61c15.408 0 27.9-12.491 27.9-27.9v-0.037c0-61.042 18.116-119.98 52.205-170.61 18.136-26.945 28.722-59.396 28.722-94.321z"/>
  </g>
  <path d="m40.959 5.12v64.681h8.4426c2.1571 0 3.906-1.7487 3.906-3.906v-0.0052c0-8.5459 2.5362-16.797 7.3087-23.886 2.5395-3.7723 4.0215-8.3154 4.0215-13.205-1.4e-4 -13.077-10.601-23.678-23.679-23.678z" fill="#ffa348" stroke-width=".14"/>
  <path d="m27.277 55.331c0.87864 3.4336 1.3334 6.9801 1.3334 10.559v0.0052c0 2.1571 1.7487 3.906 3.906 3.906h16.885c2.1571 0 3.906-1.7487 3.906-3.906v-0.0052c0-3.5934 0.45026-7.1341 1.3247-10.559h-27.355z" fill="#9a9996" stroke-width=".14"/>
  <path d="m50.257 29.886c0.34891-0.47708 0.4003-1.1099 0.13276-1.6369-0.2675-0.52704-0.80853-0.85923-1.3995-0.85923h-6.1224l2.482-12.135c0.09218-0.45081-0.14194-0.90505-0.56287-1.0912-0.42083-0.18615-0.91448-0.05425-1.1861 0.3172l-11.939 16.324c-0.34889 0.47708-0.40028 1.1099-0.13276 1.6369 0.26752 0.52704 0.80855 0.85923 1.3995 0.85923h6.1224l-2.482 12.135c-0.09222 0.45081 0.14204 0.90505 0.56287 1.0912 0.42083 0.18614 0.91447 0.05424 1.1861-0.31719z" fill="#1fb772" stroke-width=".14275"/>
  <path d="m40.959 69.801h8.4426c2.1571 0 3.906-1.7487 3.906-3.906v-0.0052c0-3.5934 0.45024-7.1341 1.3247-10.559h-13.673z" fill="#77767b" stroke-width=".14"/>
 </g>
</svg>
