<svg xmlns="http://www.w3.org/2000/svg" width="64" height="64" version="1.0"><rect width="56" height="46" x="4" y="9" fill="#f13758" rx="7" ry="7"/><rect width="48" height="38" x="8" y="13" fill="#f9f9f9" opacity=".25" rx="3" ry="3"/><path fill="#fff" d="M11 16v5.5a.5.5 0 0 0 .5.5.5.5 0 0 0 .5-.5V17h4.5a.5.5 0 0 0 .5-.5.5.5 0 0 0-.5-.5zm36.5 0a.5.5 0 0 0-.5.5.5.5 0 0 0 .5.5H52v4.5a.5.5 0 0 0 .5.5.5.5 0 0 0 .5-.5V16zm5 26a.5.5 0 0 0-.5.5V47h-4.5a.5.5 0 0 0-.5.5.5.5 0 0 0 .5.5H53v-5.5a.5.5 0 0 0-.5-.5m-41 0a.5.5 0 0 0-.5.5V48h5.5a.5.5 0 0 0 .5-.5.5.5 0 0 0-.5-.5H12v-4.5a.5.5 0 0 0-.5-.5" color="#000" style="-inkscape-stroke:none"/><path fill="#fff" d="M30 27c-1.108 0-2 .892-2 2v6c0 1.108.892 2 2 2h8c1.108 0 2-.892 2-2v-6c0-1.108-.892-2-2-2zm-2 5-3-4h-1v8h1zm5.94-4H34a4 4 0 0 1 4 4 4 4 0 0 1-4 4 4 4 0 0 1-4-4 4 4 0 0 1 3.94-4m.011 2A2 2 0 0 0 32 32a2 2 0 0 0 2 2 2 2 0 0 0 2-2 2 2 0 0 0-2-2z"/></svg>