<svg xmlns="http://www.w3.org/2000/svg" xmlns:xlink="http://www.w3.org/1999/xlink" width="64" height="64" viewBox="0 0 16.933 16.933"><defs><linearGradient id="a" gradientUnits="userSpaceOnUse"><stop offset="0" stop-color="#4fd2fd"/><stop offset="1" stop-color="#4fd2fd"/></linearGradient><linearGradient xlink:href="#a" id="f" x1="93.539" x2="58.923" y1="240.42" y2="240.42" gradientTransform="matrix(.11977 0 0 .12154 .624 -21.077)"/><linearGradient xlink:href="#a" id="l" x1="36.418" x2="21.723" y1="218.4" y2="218.4" gradientTransform="matrix(.12539 0 0 .1143 -.018 -19.49)"/><linearGradient xlink:href="#a" id="o" x1="36.418" x2="21.723" y1="218.4" y2="218.4" gradientTransform="matrix(.12539 0 0 .1143 -.018 -17.525)"/><linearGradient xlink:href="#a" id="r" x1="36.418" x2="21.723" y1="218.4" y2="218.4" gradientTransform="matrix(.12539 0 0 .1143 -.018 -15.559)"/><linearGradient xlink:href="#a" id="u" x1="36.418" x2="21.723" y1="218.4" y2="218.4" gradientTransform="matrix(.12539 0 0 .1143 -.018 -13.594)"/><clipPath id="d"><path d="M0 0h192v152H0z"/></clipPath><clipPath id="h"><path d="M0 0h192v152H0z"/></clipPath><clipPath id="m"><path d="M0 0h192v152H0z"/></clipPath><clipPath id="p"><path d="M0 0h192v152H0z"/></clipPath><clipPath id="s"><path d="M0 0h192v152H0z"/></clipPath><mask id="e"><g filter="url(#b)"><path fill-opacity=".236" d="M0 0h128v128H0z"/></g></mask><mask id="j"><g filter="url(#b)"><path fill-opacity=".236" d="M0 0h128v128H0z"/></g></mask><mask id="n"><g filter="url(#b)"><path fill-opacity=".236" d="M0 0h128v128H0z"/></g></mask><mask id="q"><g filter="url(#b)"><path fill-opacity=".236" d="M0 0h128v128H0z"/></g></mask><mask id="t"><g filter="url(#b)"><path fill-opacity=".236" d="M0 0h128v128H0z"/></g></mask><filter id="b" width="1" height="1" x="0" y="0"><feColorMatrix in="SourceGraphic" values="0 0 0 0 1 0 0 0 0 1 0 0 0 0 1 0 0 0 1 0"/></filter></defs><rect width="13.229" height="13.229" x="1.852" y="281.92" fill="#e6e6e6" paint-order="markers stroke fill" rx="2.035" ry="2.035" transform="translate(-.339 -291.61)scale(1.04)"/><path fill="none" stroke="#241f31" stroke-linejoin="round" stroke-width=".983" d="M7.484 6.01h6.633v4.422H7.484z"/><path fill="#241f31" d="M7.484 6.01h6.633v4.422H7.484z"/><path fill="none" stroke="#241f31" stroke-linejoin="round" stroke-width=".983" d="M7.484 4.536h6.633zm-4.668 0h2.948v7.861H2.816z"/><path fill="#241f31" d="M2.816 4.536h2.948v7.861H2.816z"/><path fill="none" stroke="#241f31" stroke-linejoin="round" stroke-width=".491" d="M7.238 11.66h7.125zm0 .983h7.125z"/><g clip-path="url(#d)" mask="url(#e)" transform="translate(-.378 -2.098)scale(.12284)"><path fill="none" stroke="#4fd2fd" stroke-miterlimit="10" stroke-width="2.308" d="M54.308 243.08h20.769l5.77-13.27 3.46 22.5 4.616-9.23h20.77" transform="matrix(.975 0 0 .98939 11.05 -154.32)"/></g><path fill="none" stroke="url(#f)" stroke-linecap="round" stroke-miterlimit="10" stroke-width=".278" d="M7.316 8.466h2.3l.691-1.613.415 2.735.552-1.122h.415" transform="translate(.355 .022)"/><g clip-path="url(#h)" mask="url(#j)" transform="translate(-.378 -2.098)scale(.12284)"><path fill="none" stroke="#4fd2fd" stroke-miterlimit="10" stroke-width=".98" d="M19.764 219.53h8.817l2.449-5.634 1.47 9.55 1.959-3.916h8.816" transform="matrix(1.0208 0 0 .9305 5.825 -141.41)"/></g><path fill="none" stroke="url(#l)" stroke-linecap="round" stroke-miterlimit="10" stroke-width=".117" d="M2.712 5.603h.854l.307-.644.185 1.092.245-.448h.184" transform="translate(.355 .022)"/><g clip-path="url(#m)" mask="url(#n)" transform="translate(-.378 -2.098)scale(.12284)"><path fill="none" stroke="#4fd2fd" stroke-miterlimit="10" stroke-width=".98" d="M19.764 219.53h8.817l2.449-5.634 1.47 9.55 1.959-3.916h8.816" transform="matrix(1.0208 0 0 .9305 5.825 -125.41)"/></g><path fill="none" stroke="url(#o)" stroke-linecap="round" stroke-miterlimit="10" stroke-width=".117" d="M2.712 7.569h.854l.307-.644.185 1.091.245-.447h.184" transform="translate(.355 .022)"/><g clip-path="url(#p)" mask="url(#q)" transform="translate(-.378 -2.098)scale(.12284)"><path fill="none" stroke="#4fd2fd" stroke-miterlimit="10" stroke-width=".98" d="M19.764 219.53h8.817l2.449-5.634 1.47 9.55 1.959-3.916h8.816" transform="matrix(1.0208 0 0 .9305 5.825 -109.41)"/></g><path fill="none" stroke="url(#r)" stroke-linecap="round" stroke-miterlimit="10" stroke-width=".117" d="M2.712 9.534h.854l.307-.644.185 1.092.245-.448h.184" transform="translate(.355 .022)"/><g clip-path="url(#s)" mask="url(#t)" transform="translate(-.378 -2.098)scale(.12284)"><path fill="none" stroke="#4fd2fd" stroke-miterlimit="10" stroke-width=".98" d="M19.764 219.53h8.817l2.449-5.634 1.47 9.55 1.959-3.916h8.816" transform="matrix(1.0208 0 0 .9305 5.825 -93.406)"/></g><path fill="none" stroke="url(#u)" stroke-linecap="round" stroke-miterlimit="10" stroke-width=".117" d="M2.712 11.499h.854l.307-.644.185 1.092.245-.448h.184" transform="translate(.355 .022)"/></svg>