<svg xmlns="http://www.w3.org/2000/svg" width="64" height="64"><g transform="translate(1 1)"><path fill="#fbf5da" d="M9 10v44.198C9 56.849 11.043 59 13.563 59H37l16-15.955V10z"/><path fill="#4cd2bb" d="M13.562 3c-2.527 0-4.563 2.148-4.563 4.815V10h44V7.815C53 5.148 50.965 3 48.438 3z"/><path fill="#dcedc8" d="M53 43H41.424C38.981 43 37 45.054 37 47.586V59z"/><path fill-opacity=".996" d="M17 19v4h1v-1h2v-3zm4 0v4h1v-1h1v1h1v-4zm4 0v4h1v-1h2v-3zm4 0v4h3v-1h-2v-.5h1.5v-1H30V20h2v-1zm4 0v4h1v-1h1v-1h-1v-1h1v1h1v-2zm2 3v1h1v-1zm-17-2h1v1h-1zm4 0h1v1h-1zm4 0h1v1h-1z"/><circle cx="18" cy="42" r="1" fill="#a5d6a7"/><circle cx="18" cy="47" r="1" fill="#a5d6a7"/><rect width="13.182" height="2" x="22" y="41" fill="#00796b" rx="1"/><rect width="7.909" height="2" x="22" y="46" fill="#00796b" rx="1"/><rect width="10" height="2" x="17" y="36" fill="#00796b" rx="1"/><rect width="29" height="2" x="17" y="26" fill="#00796b" rx="1"/><rect width="29" height="2" x="17" y="31" fill="#00796b" rx="1"/></g></svg>