<svg width="64" height="64" version="1.1" xmlns="http://www.w3.org/2000/svg">
 <defs>
  <linearGradient id="b" x1="399.57" x2="399.57" y1="545.8" y2="517.8" gradientTransform="matrix(1.9285 0 0 1.9285 -743.5 -990.51)" gradientUnits="userSpaceOnUse">
   <stop stop-color="#3889e9" offset="0"/>
   <stop stop-color="#5ea5fb" offset="1"/>
  </linearGradient>
  <linearGradient id="a" x1="32.02" x2="32.02" y1="2.043" y2="62.045" gradientTransform="matrix(220.18 0 0 205.5 137.59 -96.075)" gradientUnits="userSpaceOnUse">
   <stop stop-color="#56606e" offset="0"/>
   <stop stop-color="#2e3842" offset="1"/>
  </linearGradient>
 </defs>
 <g transform="translate(2.981 -3.045)">
  <g stroke-width="1.4143">
   <circle cx="29.019" cy="35.045" r="27" fill="url(#a)"/>
   <circle cx="29.019" cy="35.045" r="27" fill-opacity="0"/>
   <circle cx="29.019" cy="35.045" r="0" fill="url(#b)"/>
  </g>
  <g transform="matrix(.9555 0 0 .9555 -2.1458 3.6267)" stroke-width=".94185">
   <path d="m19.628 42.982v-20.286h4.0572v-3.0429h-7.1001v26.372h7.1001v-3.0429z" fill="#05a5f9" style="isolation:isolate"/>
   <path d="m41.942 42.982v-20.286h-4.0572v-3.0429h7.1001v26.372h-7.1001v-3.0429z" fill="#05a5f9" style="isolation:isolate"/>
   <path transform="matrix(.94189 0 0 .94189 2.4571 2.6998)" d="m25.494 22.348-2.8965 1.4199 7.3887 15.096c-0.24625 0.4665-0.4979 0.93045-0.76562 1.3828-0.43073 0.76453-0.95944 1.4633-1.5625 2.0879-0.16154 0.16153-0.3335 0.29075-0.52734 0.39844-0.03231 0.02155-0.06535 0.0332-0.09766 0.0332h-1.2695v3.2305h1.334c0.5708-0.01078 1.1218-0.16142 1.6172-0.44141 0.46307-0.25845 0.88191-0.58208 1.248-0.95898 0.79691-0.81836 1.4859-1.7436 2.0566-2.7344 0.67853-1.1523 1.2926-2.3378 1.8418-3.5547 0.59232-1.3246 1.1628-2.649 1.6797-4.0059 0.94767-2.4445 1.8096-4.9215 2.5957-7.4199 0.36614-1.12 0.71014-2.2404 1.0332-3.3711l-3.1113-0.89258c-0.3123 1.0984-0.64658 2.1956-1.002 3.2832-0.76453 2.4446-1.6051 4.8564-2.5312 7.2363-0.25197 0.65724-0.51481 1.3126-0.78906 1.9629z" fill="#fff" stroke-width=".99996" style="isolation:isolate"/>
   <path d="m49.042 25.232c0 0.84027-0.68118 1.5215-1.5215 1.5215-0.84027 0-1.5214-0.68118-1.5214-1.5215s0.68118-1.5214 1.5214-1.5214c0.84027 0 1.5215 0.68118 1.5215 1.5214z" fill="#05a5f9" style="isolation:isolate"/>
   <path d="m49.042 40.446c0 0.84028-0.68118 1.5214-1.5215 1.5214-0.84027 0-1.5214-0.68118-1.5214-1.5214 0-0.84027 0.68118-1.5214 1.5214-1.5214 0.84027 0 1.5215 0.68118 1.5215 1.5214z" fill="#05a5f9" style="isolation:isolate"/>
  </g>
 </g>
</svg>
