<svg width="64" height="64" version="1.1" xmlns="http://www.w3.org/2000/svg">
 <path d="m32.625 32.855c-5.5557 0-10.059 3.3666-10.059 7.5209 0 4.1521 4.5037 7.5209 10.059 7.5209 5.5557 0 10.059-3.3688 10.059-7.5209 0-4.1543-4.5037-7.5209-10.059-7.5209z" fill="#4d4d4d"/>
 <path d="m60 42.753v-5.6376c-3.8519-1.0236-6.2869-1.3126-7.5117-3.5228v-0.0019c-1.2289-2.2163 0.23344-3.7223 1.9766-6.4658l-5.3307-3.9871c-3.6433 1.2945-5.6777 2.3996-8.6497 1.4777h-0.0019c-2.9619-0.91809-3.3502-2.7497-4.7113-5.6152h-7.5427c-1.357 2.8514-1.7473 4.6952-4.711 5.6152h-0.0019c-2.9659 0.92189-4.9735-0.17106-8.6498-1.4777l-5.3307 3.987c1.739 2.7354 3.2074 4.2455 1.9765 6.4659-1.231 2.2183-3.697 2.5094-7.5117 3.5248v5.6376c3.8085 1.0115 6.2807 1.3066 7.5117 3.523 1.2372 2.2366-0.26639 3.7772-1.9765 6.4658l5.3306 3.9888c3.6455-1.2963 5.6797-2.3995 8.6498-1.4775h0.0019c2.9637 0.91778 3.1235 1.8857 4.4824 4.7471h8.0001c1.3568-2.8533 1.5206-3.8251 4.5009-4.7532h2e-3c2.9431-0.9139 4.9466 0.17706 8.6269 1.4856l5.3328-3.9888c-1.737-2.7272-3.2075-4.2434-1.9785-6.4658 1.2288-2.2163 3.7051-2.5115 7.5158-3.5249zm-28 4.2472c-5.1551 0-9.3334-3.2133-9.3334-7.066 0-3.8547 4.1783-6.9787 9.3333-6.9787 5.1551 0 9.3333 3.124 9.3333 6.9787 0 3.8526-4.1783 7.066-9.3333 7.066z" fill="#6b6b6b"/>
 <path d="m22.988 4c-1.1012 0-1.9883 0.82084-1.9883 1.8398v13.16h22v-13.16c0-1.019-0.88704-1.8398-1.9883-1.8398zm-9.5469 14c-1.6225 0-2.4414 1.2822-2.4414 2.1055 0 4.8101 14.97 24.895 21.002 24.895 6.0318 0 20.998-20.084 20.998-24.895 0-0.82324-0.81693-2.1055-2.4395-2.1055h-7.5605v1h-22v-1z" fill="#bcbcc3" stop-color="#000000"/>
</svg>
