<svg xmlns="http://www.w3.org/2000/svg" width="64" height="64" viewBox="0 0 16.933 16.933"><defs><linearGradient id="a" x1="69.033" x2="64.443" y1="454.92" y2="449.57" gradientTransform="translate(-8.085 -395.13)" gradientUnits="userSpaceOnUse"><stop offset="0" stop-color="#2B3B6A"/><stop offset="1" stop-color="#2B3B6A"/></linearGradient></defs><path fill="url(#a)" d="m54.9 55.8 7.1-.2-3.6 6.6z" class="st0" transform="matrix(.12037 0 0 .12165 1.467 1.394)"/><g fill="#222856"><path d="M11.759 8.389c3.141.51 3.587 1.301 3.587 1.301v.146c0 .025-.012.05-.024.086s-.325.693-2.36 1.13z" class="st1"/><path d="M3.85 10.943c-.71 1.91-.349 2.506-.325 2.555.012.024.025.049.049.06.048 0 .096-.011.144-.023 0 0 1.288-.061 2.793-2.227z" class="st2"/><path d="M8.545 3.657c-1.721-1.91-2.564-1.8-2.612-1.789a.221.221 0 0 0-.084.025c-.06.024-.12.219-.12.219s-.362 1.058 1.095 3.88z" class="st3"/></g><g fill="#24426c"><path d="M10.037 10.98c2.336 2.7 3.154 2.555 3.154 2.555a.698.698 0 0 0 .157.024c.024-.012.036-.037.048-.06.036-.05.65-1.16-1.589-5.102z" class="st4"/><path d="M7.016 11.394C2.201 11.187 1.624 9.982 1.6 9.922c0-.025-.013-.05-.013-.073.013-.086.181-.244.181-.244s1.276-.79 3.406-1.216z" class="st5"/><path d="M10.35 5.7c1.252-3.004.77-3.698.77-3.698-.011-.036-.023-.085-.035-.121-.024-.013-.048-.013-.085-.025-.06-.012-1.376-.122-4.144 3.796z" class="st7"/></g><path fill="#2072ae" d="M8.487 13.23c-1.709 1.873-2.566 1.777-2.614 1.777a1.062 1.062 0 0 1-.205-.098l-2.094-1.35c.878-.195 2.011-1.257 3.143-2.608z" class="st8"/><path fill="#26b1ed" d="M3.959 6.017c-.759-1.971-.385-2.592-.361-2.628a.635.635 0 0 1 .168-.146L5.85 1.905c-.181.864.297 2.202 1.007 3.747z" class="st10"/><path fill="#26b1ed" d="M8.352 8.352a22.44 22.44 0 0 0-3.13.231c.037.061.518.876.867 1.424 3.347 5.206 4.911 5 4.984 4.987.072-.024.144-.06.204-.097l2.083-1.338c-1.42-.304-3.395-2.652-5.008-5.207z" class="st11"/><path fill="#0e88c8" d="M11.683 8.614c1.625.231 3.049.602 3.663 1.222V7.343c0-.073-.012-.159-.024-.232-.012-.036-.386-.7-2.348-1.126z" class="st13"/><path fill="#0e88c8" d="M10.278 5.664c-.36-.012-1.143-.049-1.817-.049-6.14 0-6.825 1.436-6.85 1.496-.024.073-.024.159-.024.232v2.506c.602-.609 1.914-.937 3.515-1.18a24.287 24.287 0 0 1 3.118-.244h.578c-.012 0 1.853-2.749 1.48-2.761z" class="st15"/><path fill="#2072ae" d="M8.473 8.547c1.673-2.543 2.913-5.207 2.6-6.654l2.082 1.338c.06.036.12.085.169.146.036.06.854 1.423-2.492 6.63-.24.389-.527.937-.612.973-.493-.486-1.458-1.995-1.711-2.348a.728.728 0 0 1-.036-.085z" class="st18"/></svg>