<svg width="64" height="64" version="1.1" viewBox="0 0 16.933 16.933" xmlns="http://www.w3.org/2000/svg">
 <defs>
  <linearGradient id="SVGID_1_" x1="69.033" x2="64.443" y1="454.92" y2="449.57" gradientTransform="translate(-8.0854,-395.13)" gradientUnits="userSpaceOnUse">
   <stop stop-color="#2B3B6A" offset="0"/>
   <stop stop-color="#2B3B6A" offset="1"/>
  </linearGradient>
 </defs>
 <g transform="matrix(.12037 0 0 .12165 1.4671 1.3939)">
  <polygon class="st0" points="54.9 55.8 62 55.6 58.4 62.2" fill="url(#SVGID_1_)"/>
  <g fill="#222856">
   <path class="st1" d="m85.5 57.5c26.1 4.2 29.8 10.7 29.8 10.7v1.2c0 0.2-0.1 0.4-0.2 0.7s-2.7 5.7-19.6 9.3z"/>
   <path class="st2" d="m19.8 78.5c-5.9 15.7-2.9 20.6-2.7 21 0.1 0.2 0.2 0.4 0.4 0.5 0.4 0 0.8-0.1 1.2-0.2 0 0 10.7-0.5 23.2-18.3z"/>
   <path class="st3" d="m58.8 18.6c-14.3-15.7-21.3-14.8-21.7-14.7-0.2 0-0.5 0.1-0.7 0.2-0.5 0.2-1 1.8-1 1.8s-3 8.7 9.1 31.9z"/>
  </g>
  <g fill="#24426c">
   <path class="st4" d="m71.2 78.8c19.4 22.2 26.2 21 26.2 21 0.4 0.1 0.9 0.2 1.3 0.2 0.2-0.1 0.3-0.3 0.4-0.5 0.3-0.4 5.4042-9.5345-13.196-41.934z"/>
   <path class="st5" d="m46.1 82.2c-40-1.7-44.8-11.6-45-12.1 0-0.2-0.1-0.4-0.1-0.6 0.1-0.7 1.5-2 1.5-2s10.6-6.5 28.3-10z"/>
   <path class="st7" d="m73.8 35.4c10.4-24.7 6.4-30.4 6.4-30.4-0.1-0.3-0.2-0.7-0.3-1-0.2-0.1-0.4-0.1-0.7-0.2-0.5-0.1-11.432-1.0008-34.432 31.199z"/>
  </g>
  <path class="st8" d="m58.323 97.297c-14.2 15.4-21.323 14.603-21.723 14.603-0.6-0.2-1.2-0.5-1.7-0.8l-17.4-11.1c7.3-1.6 16.714-10.334 26.114-21.434z" fill="#2072ae"/>
  <path class="st10" d="m20.7 38c-6.3-16.2-3.2-21.3-3-21.6 0.4-0.5 0.9-0.9 1.4-1.2l17.3-11c-1.5 7.1 2.4675 18.099 8.3675 30.799z" fill="#26b1ed"/>
  <path class="st11" d="m57.2 57.2c-8.7 0-17.4 0.7-26 1.9 0.3 0.5 4.3 7.2 7.2 11.7 27.8 42.8 40.8 41.1 41.4 41 0.6-0.2 1.2-0.5 1.7-0.8l17.3-11c-11.8-2.5-28.2-21.8-41.6-42.8z" fill="#26b1ed"/>
  <path class="st13" d="m84.873 59.351c13.5 1.9 25.327 4.9494 30.427 10.049v-20.5c0-0.6-0.1-1.3-0.2-1.9-0.1-0.3-3.2053-5.7559-19.505-9.2559z" fill="#0e88c8"/>
  <path class="st15" d="m73.2 35.1c-3-0.1-9.5-0.4-15.1-0.4-51 0-56.7 11.8-56.9 12.3-0.2 0.6-0.2 1.3-0.2 1.9v20.6c5-5 15.9-7.7 29.2-9.7 8.6-1.2 17.2-1.9 25.9-2h4.8c-0.1 0 15.4-22.6 12.3-22.7z" fill="#0e88c8"/>
  <path class="st18" d="m58.2 58.8c13.9-20.9 24.2-42.8 21.6-54.7l17.3 11c0.5 0.3 1 0.7 1.4 1.2 0.3 0.5 7.1 11.7-20.7 54.5-2 3.2-4.3798 7.7028-5.0798 8.0028-4.1-4-12.12-16.403-14.22-19.303-0.2-0.4-0.3-0.7-0.3-0.7z" fill="#2072ae"/>
 </g>
</svg>
