<svg xmlns="http://www.w3.org/2000/svg" width="64" height="64" viewBox="0 0 16.933 16.933"><rect width="13.758" height="13.758" x="1.587" y="1.58" fill="#f2f2f2" paint-order="markers stroke fill" rx="2.458" ry="2.458"/><g fill-rule="evenodd" stroke-width=".875"><path fill="#ff7f28" d="M8.692 8.244c.52.572-.14 1.088-.14 1.088s1.32-.654.717-1.47c-.57-.762-1.001-1.139 1.347-2.449 0 0-3.684.882-1.925 2.826"/><g fill="#3434c8"><path d="M11.478 12.122s.305.24-.335.426c-1.217.352-5.061.459-6.13.013-.382-.16.337-.38.563-.428.238-.05.371-.04.371-.04-.425-.29-2.76.567-1.184.81 4.295.668 7.83-.3 6.715-.781M6.977 8.986s-1.956.445-.693.608c.535.068 1.596.053 2.588-.026.81-.065 1.623-.205 1.623-.205s-.287.118-.493.253c-1.984.5-5.82.266-4.719-.245.935-.433 1.695-.383 1.695-.383M10.487 10.867c2.018-1.006 1.085-1.971.434-1.841-.16.032-.231.058-.231.058s.057-.088.17-.127c1.292-.434 2.28 1.282-.415 1.961 0 0 .031-.026.04-.051"/></g><path fill="#ff7f28" d="M9.268 3.308S10.386 4.38 8.206 6.03c-1.745 1.322-.397 2.077 0 2.937-1.018-.88-1.767-1.657-1.265-2.38.736-1.061 2.778-1.574 2.327-3.278"/><path fill="#3434c8" d="M7.176 13.593c1.937.12 4.914-.067 4.985-.944 0 0-.136.332-1.603.597-1.654.297-3.694.263-4.905.073 0 0 .248.195 1.523.274M7.264 10.772s-1.585.36-.561.492c.433.056 1.293.043 2.096-.02.657-.054 1.315-.167 1.315-.167s-.232.096-.399.205c-1.608.406-4.716.216-3.823-.198.757-.35 1.373-.31 1.373-.31"/></g></svg>