<svg width="64" height="64" version="1.1" viewBox="0 0 16.933 16.933" xmlns="http://www.w3.org/2000/svg" xmlns:xlink="http://www.w3.org/1999/xlink">
 <defs>
  <linearGradient id="b" x1="46.168" x2="46.168" y1="57" y2="27.346" gradientTransform="matrix(.27516 0 0 .27516 -.339 -.33832)" gradientUnits="userSpaceOnUse">
   <stop offset="0"/>
   <stop stop-opacity="0" offset="1"/>
  </linearGradient>
 </defs>
 <g transform="translate(0 -280.07)">
  <rect x="1.587" y="281.65" width="13.758" height="13.758" rx=".825" ry=".825" fill="#f2f2f2" paint-order="markers stroke fill"/>
 </g>
 <g transform="matrix(1.1429 0 0 1.1429 -1.1687 -.93461)" fill-rule="evenodd" stroke-width=".875">
  <path d="m8.8973 7.8632c0.48485 0.53374-0.13038 1.0156-0.13038 1.0156s1.2312-0.61041 0.66856-1.3716c-0.53115-0.7119-0.9345-1.0634 1.2575-2.2861 0 0-3.4391 0.82339-1.7972 2.6376" fill="#ff7f28"/>
  <g fill="#3434c8">
   <path d="m11.497 11.483s0.2852 0.22409-0.31261 0.3978c-1.1356 0.32854-4.724 0.42818-5.7207 0.01148-0.35743-0.1489 0.31409-0.35447 0.52522-0.39928 0.2215-0.0463 0.34595-0.03779 0.34595-0.03779-0.39632-0.27039-2.5753 0.52966-1.1053 0.75672 4.0091 0.62374 7.3079-0.28076 6.2678-0.7293"/>
   <path d="m7.2964 8.5562s-1.826 0.41521-0.64671 0.56707c0.49929 0.06371 1.489 0.04926 2.415-0.02444 0.75671-0.06074 1.5149-0.19112 1.5149-0.19112s-0.2678 0.11001-0.46003 0.23594c-1.852 0.46743-5.4329 0.2489-4.4044-0.22854 0.87228-0.40373 1.5816-0.35743 1.5816-0.35743"/>
   <path d="m10.572 10.312c1.8838-0.93895 1.0127-1.8405 0.40521-1.719-0.1489 0.030365-0.21557 0.054822-0.21557 0.054822s0.05371-0.082597 0.15927-0.11853c1.2053-0.40521 2.1283 1.1964-0.3878 1.8301 0 0 0.02889-0.02444 0.03778-0.04778"/>
  </g>
  <path d="m9.4347 3.2562s1.043 1.0012-0.99117 2.5405c-1.629 1.2342-0.37039 1.9386 0 2.7417-0.95043-0.8219-1.6494-1.5468-1.1808-2.2224 0.68708-0.98969 2.5928-1.4686 2.1716-3.0587" fill="#ff7f28"/>
  <path d="m7.4816 12.856c1.8086 0.11149 4.5866-0.06223 4.6533-0.88117 0 0-0.12742 0.30965-1.4964 0.55707-1.5438 0.2778-3.448 0.24594-4.5777 0.06815 0 0 0.2315 0.18223 1.4208 0.25594" fill="#3434c8"/>
  <path d="m7.5644 10.223s-1.4796 0.33643-0.524 0.45948c0.40455 0.05162 1.2065 0.03991 1.9567-0.0198 0.61313-0.04922 1.2275-0.15486 1.2275-0.15486s-0.21698 0.08913-0.37274 0.19117c-1.5006 0.37874-4.4021 0.20167-3.5686-0.18517 0.70677-0.32712 1.2815-0.28961 1.2815-0.28961" fill="#3434c8"/>
 </g>
 <path d="m15.345 7.1863a12.382 12.382 0 0 1-5.9611 8.1597h5.1356c0.45732 0 0.82549-0.36817 0.82549-0.82549z" fill="url(#b)" opacity=".15" stroke-width=".27516"/>
</svg>
