<svg width="64" height="64" version="1.1" xmlns="http://www.w3.org/2000/svg">
 <rect x="6" y="6" width="52" height="52" rx="8" ry="8" fill="#313c54" stroke-width=".92857"/>
 <path d="m32.001 28c-1.6396 0-6.9178 9.2681-6.1125 10.833 0.80537 1.5648 11.429 1.5477 12.225 0 0.79574-1.5477-4.4729-10.832-6.1125-10.833z" fill="#4287ea"/>
 <path d="m32.003 12c-5.2934 0-22.333 30.893-19.735 36.11 2.5981 5.2171 36.9 5.1569 39.47 0 2.5698-5.1569-14.442-36.11-19.735-36.11zm12.933 31.583c-1.6837 3.3804-24.158 3.4182-25.861 0-1.7034-3.4182 9.4626-23.66 12.931-23.66 3.4679 0 14.614 20.279 12.931 23.66z" fill="#a245e9"/>
</svg>
