<svg xmlns="http://www.w3.org/2000/svg" width="64" height="64"><rect width="52" height="52" x="6" y="6" fill="#313c54" rx="8" ry="8"/><path fill="#4287ea" d="M32.001 28c-1.64 0-6.918 9.268-6.112 10.833.805 1.565 11.428 1.548 12.224 0 .796-1.548-4.472-10.832-6.112-10.833z"/><path fill="#a245e9" d="M32.003 12C26.71 12 9.67 42.893 12.268 48.11c2.598 5.217 36.9 5.157 39.47 0C54.308 42.953 37.296 12 32.003 12zm12.933 31.583c-1.684 3.38-24.158 3.418-25.861 0-1.703-3.418 9.463-23.66 12.931-23.66s14.614 20.279 12.931 23.66z"/></svg>