<svg width="64" height="64" version="1.1" viewBox="0 0 64 64" xmlns="http://www.w3.org/2000/svg">
 <g transform="matrix(1.1739 0 0 1.1739 3.8261 3.8261)">
  <g fill="#f2f2f2">
   <path d="m24 1c12.703 0 23 10.297 23 23s-10.297 23-23 23-23-10.297-23-23 10.297-23 23-23z" fill="#f2f2f2"/>
  </g>
  <path d="m20.99 21c-1.875 2.475-3.562 5.219-4.924 8 2.072 0.664 5.092 0.38 8.207 0 1.179-0.732 2.295-1.689 3.391-2.998-3.667 0-5.967-0.614-5.967-1h6.602c0.917-0.957 1.855-2.055 2.566-3-3.203 0-5.869-0.406-5.869-1-0.996-1-1.506-0.687-4.01-2e-3" fill="#dd435f"/>
  <path d="m24.422 17c-1.185 1.214-2.339 2.558-3.432 4h10.607c0.662-0.982 1.216-2.038 1.674-2.998-2.859 0-4.775-0.646-4.775-1-0.496-1-2.496-1-4.074-2e-3" fill="#e57a55"/>
  <path d="m35 11c-3.28 0-7.07 2.402-10.578 6h9.328c0.865-2.133 1.254-4.171 1.246-5.998z" fill="#f5ad45"/>
  <path d="m16.07 29c-0.093 0.19-0.195 0.38-0.285 0.57-1.284 2.718-2.369 5.657-2.781 7.43l0.5-0.021c1.864-5.376 4.01-5.811 5.03-5.98 2.164-0.36 4.02-0.93 5.744-1.998h-8.207z" fill="#c056ba"/>
 </g>
</svg>
