<svg xmlns="http://www.w3.org/2000/svg" width="64" height="64" viewBox="0 0 16.933 16.933"><rect width="13.758" height="13.758" x="1.587" y="1.587" fill="#147add" rx="2.117" ry="2.117"/><path fill="#fff" d="M12.266 3.442h-3.74a.064.064 0 0 0-.063.064v1.188c0 .04.032.072.072.072h.513c.207 0 .375.16.393.362v5.618q.003.068-.005.133l-.002.02-.01.075-.01.042-.015.056a.9.9 0 0 1-.161.297l-.009.01a1 1 0 0 1-.156.142c-.21.148-.49.213-.805.183a1.96 1.96 0 0 1-1.121-.512c-.322-.293-.521-.655-.563-1.02-.037-.326.06-.613.275-.809h.002l.026-.022a1.04 1.04 0 0 1 .582-.228l.008-.001.073-.004.039-.002h.013l.023.001q.054 0 .11.005h.013l.01.002a1.9 1.9 0 0 1 .63.184c.06.033.071-.003.073-.026V7.485a.11.11 0 0 0-.086-.108c-1.06-.233-2.101.01-2.836.678a2.68 2.68 0 0 0-.851 2.31c.09.788.494 1.545 1.139 2.132.629.572 1.429.93 2.254 1.007a4 4 0 0 0 .34.016c.788 0 1.52-.27 2.06-.761a2.65 2.65 0 0 0 .862-1.8l.004-4.563v-1.22h.001v-.022a.397.397 0 0 1 .397-.388h.512c.04 0 .073-.032.073-.072V3.506a.064.064 0 0 0-.064-.063"/></svg>