<svg width="64" height="64" version="1.1" viewBox="0 0 64 64" xmlns="http://www.w3.org/2000/svg">
 <path d="m32 4.9993c14.912 0 27 12.088 27 27s-12.088 27-27 27-27-12.088-27-27 12.088-27 27-27z" fill="#f2f2f2" stroke-width=".99999"/>
 <g transform="matrix(.9 0 0 .9 -13.595 5.839)" stroke-width="1.3043">
  <circle cx="61.748" cy="14.068" r="1.9565" fill="#767677"/>
  <circle cx="41.531" cy="43.416" r="2.6087" fill="#9e9e9e"/>
  <circle cx="39.574" cy="15.372" r="1.9565" fill="#616262"/>
  <path d="m50.661 14.72c-6.5217 0-11.739 5.2174-13.043 9.1304 3.913-3.913 9.1304-5.2174 13.043-5.2174 3.913 0 9.1304 1.3043 13.043 5.2174-1.3043-3.913-6.5217-9.1304-13.043-9.1304zm-13.043 18.261c1.3043 3.913 6.5217 9.1304 13.043 9.1304 6.5217 0 11.739-5.2174 13.043-9.1304-3.913 3.913-9.1304 5.2174-13.043 5.2174-3.913 0-9.1304-1.3043-13.043-5.2174z" fill="#f37726"/>
 </g>
</svg>
