<svg width="64" height="64" version="1.1" viewBox="0 0 64 64" xmlns="http://www.w3.org/2000/svg">
 <path d="m32 5c14.912 0 27 12.088 27 27s-12.088 27-27 27-27-12.088-27-27 12.088-27 27-27z" fill="#414141" stroke-width="1.1739"/>
 <g transform="matrix(1.1739 0 0 1.1739 3.8261 3.8238)">
  <g transform="translate(1,1)">
   <g opacity=".1"></g>
  </g>
 </g>
 <g>
  <path d="m24.678 20.832c-5.3049 0-9.6174 4.2179-9.6174 9.3957 0 4.9788 3.9751 9.0047 8.9991 9.3082 0-5.6295 4.5045-10.223 10.102-10.72-0.69452-4.5158-4.671-7.9841-9.4847-7.9841m0 6.4412c1.6544 0 2.9997 1.3396 2.9997 2.9559 0 1.6163-1.3453 2.9122-2.9997 2.9122-1.6544 0-2.9997-1.2959-2.9997-2.9122 0-1.6163 1.3453-2.9559 2.9997-2.9559m0 0.61829c-1.3283 0-2.4266 1.0418-2.4266 2.3376 0 1.3015 1.0968 2.3376 2.4266 2.3376 1.3283 0 2.3828-1.0361 2.3828-2.3376 0-1.2959-1.0531-2.3376-2.3828-2.3376m0 0.88226c0.82721 0 1.5006 0.64511 1.5006 1.4554 0 0.81027-0.6677 1.4554-1.5006 1.4554-0.82721 0-1.5006-0.64511-1.5006-1.4554 0-0.81027 0.67334-1.4554 1.5006-1.4554" fill="#ff4d5b"/>
  <path d="m35.134 30.178c-5.3049 0-9.6061 4.1967-9.6061 9.3802 0 5.1835 4.3012 9.3802 9.6061 9.3802 5.3105 0 9.6117-4.1967 9.6117-9.3802 0-5.1835-4.3012-9.3802-9.6117-9.3802m0 6.4511c1.6601 0 3.0053 1.3128 3.0053 2.9277 0 1.6163-1.3453 2.9333-3.0053 2.9333-1.6544 0-2.9997-1.3185-2.9997-2.9333 0-1.6163 1.3453-2.9277 2.9997-2.9277m0 0.58441c-1.3283 0-2.3983 1.0418-2.3983 2.3433 0 1.3015 1.07 2.3489 2.3983 2.3489 1.334 0 2.404-1.0474 2.404-2.3489 0-1.3015-1.07-2.3433-2.404-2.3433m0 0.87662c0.83286 0 1.5048 0.6564 1.5048 1.4667 0 0.81027-0.67334 1.4667-1.5048 1.4667-0.82721 0-1.5006-0.6564-1.5006-1.4667 0-0.81027 0.67334-1.4667 1.5006-1.4667" fill="#4ca3e5"/>
  <path d="m29.143 15.058c-8.1408 0.0084-14.897 6.2831-15.494 14.389 0.58582-5.7665 5.4474-10.154 11.253-10.154 6.2464 0 11.335 5.0564 11.335 11.293v2.8232h-5.6747l9.8954 9.8813 9.8954-9.8813h-5.6465v-2.8232c0-8.5756-6.972-15.528-15.556-15.528" fill="#f2f2f2" fill-rule="evenodd"/>
 </g>
</svg>
