<svg xmlns="http://www.w3.org/2000/svg" width="64" height="64"><defs><linearGradient id="a" x2="0" y1="543.8" y2="503.8" gradientTransform="matrix(1.3125 0 0 1.2 -504.25 -596.56)" gradientUnits="userSpaceOnUse"><stop offset="0" stop-color="#e3dfd6"/><stop offset="1" stop-color="#f4f1e8"/></linearGradient><linearGradient id="c" x1="413.57" x2="418.57" y1="528.8" y2="533.8" gradientTransform="translate(-113.41 -144.5) scale(1.2698)" gradientUnits="userSpaceOnUse"><stop offset="0" stop-color="#bdb49e" stop-opacity=".259"/><stop offset="1" stop-color="#bdb49e" stop-opacity="0"/></linearGradient><linearGradient id="b" x1="43" x2="54" y1="46" y2="57" gradientUnits="userSpaceOnUse"><stop offset="0" stop-color="#383e51"/><stop offset="1" stop-color="#655c6f" stop-opacity="0"/></linearGradient></defs><rect width="48" height="54" x="8" y="5" fill="#5f6569" rx="6" ry="6"/><rect width="46" height="52" x="9" y="6" fill="#2a2c2f" opacity=".5" rx="5" ry="5"/><rect width="42" height="48" x="11" y="8" fill="url(#a)" rx="3" ry="3"/><path fill="#da4453" d="M14.45 7.952h1.35v48.043h-1.35z" opacity=".4"/><path fill="url(#b)" d="M53 44 41 56l3 3h6a5.981 5.981 0 0 0 5.93-5.12L56 47l-3-3z" opacity=".35"/><path fill="#007ad9" d="M11.011 11.75H52.99v1.35H11.011z" opacity=".4"/><path fill="#bdb49e" d="M21.2 18.5v2.7h.01l6.2 10.731-6.21 10.753V45.5h21.6v-5.4h-2.7v2.7H24.254l6.272-10.867v-.003L24.33 21.2H37.4v1.35h2.7V18.5H22.773z"/><g fill-rule="evenodd" stroke-width=".741"><path fill="#ebebeb" d="m53.001 44-12 12V44z"/><path fill="url(#c)" d="M415.57 530.8v8.889l8.889-8.889z" transform="matrix(1.35 0 0 1.35 -520.02 -672.58)"/></g></svg>