<svg xmlns="http://www.w3.org/2000/svg" width="64" height="64"><g transform="translate(0 16)"><rect width="52" height="52" x="-42" y="6" fill="#a7a7a7" rx="9" ry="9" transform="rotate(-90)"/><rect width="48" height="48" x="-40" y="8" fill="#646464" rx="7" ry="7" transform="rotate(-90)"/><g fill="#fff" stroke-width=".808"><path d="m16.294 19.715-3.265-5.616v5.616h-1.672v-8.123h1.716l3.22 5.526v-5.526h1.672v8.123h-1.671M24.167 7.877V16h-1.672V7.877h1.672M31.114 15.306v6.73h3.888v1.393h-5.56v-8.123h1.672M41.524 19.893a4.79 4.79 0 0 1-1.727 0 3.837 3.837 0 0 1-.859-.279c-.29-.133-.542-.304-.757-.512s-.394-.483-.535-.825c-.134-.349-.2-.743-.2-1.18v-5.505h1.67v5.504c0 .966.517 1.449 1.55 1.449 1.032 0 1.548-.483 1.548-1.449v-5.504h1.672v5.504c0 .438-.07.832-.212 1.181-.134.342-.308.617-.524.825s-.471.379-.768.512c-.29.134-.576.227-.858.279M51.475 11.855 54.083 16h-1.984l-1.56-2.819-1.548 2.82h-1.94l2.564-4.09-2.474-4.034h1.983l1.427 2.675 1.493-2.675h1.939l-2.508 3.978"/></g></g></svg>