<svg xmlns="http://www.w3.org/2000/svg" width="64" height="64"><g transform="translate(0 16)"><rect width="52" height="52" x="-42" y="6" fill="#a7a7a7" rx="9" ry="9" transform="rotate(-90)"/><rect width="48" height="48" x="-40" y="8" fill="#646464" rx="7" ry="7" transform="rotate(-90)"/><path fill="#fff" d="m16.294 19.715-3.265-5.616v5.616h-1.672v-8.123h1.716l3.22 5.526v-5.526h1.672v8.123zm7.873-11.838V16h-1.672V7.877zm6.947 7.429v6.73h3.888v1.393h-5.56v-8.123zm10.41 4.587a4.8 4.8 0 0 1-1.727 0 3.8 3.8 0 0 1-.859-.279q-.435-.2-.757-.512c-.322-.312-.394-.483-.535-.825a3.3 3.3 0 0 1-.2-1.18v-5.505h1.67v5.504q0 1.449 1.55 1.449 1.548 0 1.548-1.449v-5.504h1.672v5.504q0 .657-.212 1.181-.2.513-.524.825c-.324.312-.471.379-.768.512q-.435.201-.858.279m9.951-8.038L54.083 16h-1.984l-1.56-2.819-1.548 2.82h-1.94l2.564-4.09-2.474-4.034h1.983l1.427 2.675 1.493-2.675h1.939z"/></g></svg>