<svg width="64" height="64" version="1.1" xmlns="http://www.w3.org/2000/svg" xmlns:xlink="http://www.w3.org/1999/xlink">
 <g transform="translate(0,16)">
  <rect transform="rotate(-90)" x="-42" y="6" width="52" height="52" rx="3" ry="3" fill="#a7a7a7"/>
  <rect transform="rotate(-90)" x="-40" y="8" width="48" height="48" rx="2" ry="2" fill="#646464"/>
  <g fill="#fff">
   <g transform="matrix(1.2381 0 0 1.2381 2.2857 -13.714)">
    <path d="m11.314 27-2.637-4.536v4.536h-1.35v-6.561h1.386l2.601 4.464v-4.464h1.35v6.561h-1.35" fill="#fff" stroke-width=".80769"/>
   </g>
   <g transform="matrix(1.2381 0 0 1.2381 2.2857 -13.714)">
    <path d="m17.673 17.439v6.561h-1.35v-6.561h1.35" fill="#fff" stroke-width=".80769"/>
   </g>
   <g transform="matrix(1.2381 0 0 1.2381 2.2857 -13.714)">
    <path d="m23.284 23.439v5.436h3.141v1.125h-4.491v-6.561h1.35" fill="#fff" stroke-width=".80769"/>
   </g>
   <g transform="matrix(1.2381 0 0 1.2381 2.2857 -13.714)">
    <path d="m31.692 27.144c-0.222 0.042-0.453 0.063-0.693 0.063-0.24 0-0.474-0.021-0.702-0.063-0.222-0.042-0.453-0.117-0.693-0.225-0.234-0.108-0.438-0.246-0.612-0.414-0.174-0.168-0.318-0.39-0.432-0.666-0.108-0.282-0.162-0.6-0.162-0.954v-4.446h1.35v4.446c-2e-6 0.78 0.417 1.17 1.251 1.17 0.834 1e-6 1.251-0.39 1.251-1.17v-4.446h1.35v4.446c-6e-6 0.354-0.057 0.672-0.171 0.954-0.108 0.276-0.249 0.498-0.423 0.666-0.174 0.168-0.381 0.306-0.621 0.414-0.234 0.108-0.465 0.183-0.693 0.225" fill="#fff" stroke-width=".80769"/>
   </g>
   <g transform="matrix(1.2381 0 0 1.2381 2.2857 -13.714)">
    <path d="m39.73 20.652 2.106 3.348h-1.602l-1.26-2.277-1.251 2.277h-1.566l2.07-3.303-1.998-3.258h1.602l1.152 2.16 1.206-2.16h1.566l-2.025 3.213" fill="#fff" stroke-width=".80769"/>
   </g>
  </g>
 </g>
</svg>
