<?xml version="1.0" encoding="UTF-8"?>
<svg width="64" height="64" version="1.1" viewBox="0 0 64 64" xmlns="http://www.w3.org/2000/svg" xmlns:cc="http://creativecommons.org/ns#" xmlns:dc="http://purl.org/dc/elements/1.1/" xmlns:rdf="http://www.w3.org/1999/02/22-rdf-syntax-ns#">
 <metadata>
  <rdf:RDF>
   <cc:Work rdf:about="">
    <dc:format>image/svg+xml</dc:format>
    <dc:type rdf:resource="http://purl.org/dc/dcmitype/StillImage"/>
    <dc:title/>
   </cc:Work>
  </rdf:RDF>
 </metadata>
 <circle cx="32.002" cy="31.999" r="27" fill="#0cb6ff" stroke-width=".022297"/>
 <circle cx="32.002" cy="31.999" r="22.999" fill="#fff" opacity=".15" stroke-width=".018993"/>
 <g transform="matrix(1.9128 0 0 1.9554 -99.414 -190.46)" stroke-width=".26458">
  <path transform="matrix(.45455 0 0 .44463 53.98 99.36)" d="m30.084 10.961c-3.3567 0.11114-7.1453 1.1538-10.826 3.8203-3.8214 2.7684-5.4959 3.5271-7.3496 4.4473 1.6518 0.12595 11.531-1.2831 13.279 4.5215-7.0104 2.0012-10.512 6.418-7.5293 12.689 3.0158 6.3403 8.2265 6.4875 14.66 10.791 5.0228 3.3596 6.2512 5.0697 9.4922 9.7266-0.67386-6.4343-3.7865-14.727-5.2422-18.381 5.619 3.3612 8.472 4.115 16.307 4.9355-10.166-7.237-12.097-8.6511-17.916-13.611-3.9041 0.19679-3.4751 0.1629-5.7773 0.29492 3.0308 4.277 4.2269 10.558-1.3145 11.711-5.1869 1.0791-10.188-3.3979-8.7656-8.1934 1.5442-5.2072 8.2092-4.208 15.201-5.1113 6.992-0.90344 13.382-7.7605 17.225-12.836h-2e-3c-6.5572 2.2377-10.556 3.5384-20.273 6.2461-1.5717-3.063-3.6062-8.8776 7.0645-9.2832-1.9516-1.0589-4.8757-1.8787-8.2324-1.7676z" fill="#fff" stroke-width=".58853"/>
 </g>
</svg>
