<svg xmlns="http://www.w3.org/2000/svg" width="64" height="64"><g stroke-width=".769" transform="matrix(1.3 0 0 1.3 .8 .8)"><rect width="38.462" height="38.462" x="4.769" y="4.769" fill="#33393e" rx="1.241" ry="1.166"/><g stroke-width="0" transform="rotate(-90)"><rect width="12" height="12" x="-16" y="18" fill="#d64239" rx="1" ry="1"/><rect width="12" height="12" x="-16" y="32" fill="#ffb345" rx="1" ry="1"/><rect width="12" height="12" x="-16" y="4" fill="#467fab" rx="1" ry="1"/><rect width="12" height="12" x="-30" y="32" fill="#d64239" rx="1" ry="1"/><rect width="12" height="12" x="-30" y="4" fill="#467fab" rx="1" ry="1"/><rect width="12" height="12" x="-44" y="4" fill="#d64239" rx="1" ry="1"/><rect width="12" height="12" x="-44" y="32" fill="#ffb345" rx="1" ry="1"/><rect width="12" height="12" x="-44" y="18" fill="#467fab" rx="1" ry="1"/><rect width="12" height="12" x="-30" y="18" fill="#ffb345" rx="1" ry="1"/></g></g></svg>