<svg width="64" height="64" version="1.1" xmlns="http://www.w3.org/2000/svg" xmlns:xlink="http://www.w3.org/1999/xlink">
 <g transform="matrix(1.3 0 0 1.3 .8 .8)" stroke-width=".76923">
  <rect x="4.7692" y="4.7692" width="38.462" height="38.462" rx="1.2406" ry="1.1657" fill="#33393e"/>
  <g stroke-width="0">
   <rect transform="rotate(-90)" x="-16" y="18" width="12" height="12" rx="1" ry="1" fill="#d64239"/>
   <rect transform="rotate(-90)" x="-16" y="32" width="12" height="12" rx="1" ry="1" fill="#ffb345"/>
   <rect transform="rotate(-90)" x="-16" y="4" width="12" height="12" rx="1" ry="1" fill="#467fab"/>
   <rect transform="rotate(-90)" x="-30" y="32" width="12" height="12" rx="1" ry="1" fill="#d64239"/>
   <rect transform="rotate(-90)" x="-30" y="4" width="12" height="12" rx="1" ry="1" fill="#467fab"/>
   <rect transform="rotate(-90)" x="-44" y="4" width="12" height="12" rx="1" ry="1" fill="#d64239"/>
   <rect transform="rotate(-90)" x="-44" y="32" width="12" height="12" rx="1" ry="1" fill="#ffb345"/>
   <rect transform="rotate(-90)" x="-44" y="18" width="12" height="12" rx="1" ry="1" fill="#467fab"/>
   <rect transform="rotate(-90)" x="-30" y="18" width="12" height="12" rx="1" ry="1" fill="#ffb345"/>
  </g>
 </g>
</svg>
