<svg xmlns="http://www.w3.org/2000/svg" width="64" height="64" viewBox="0 0 16.933 16.933"><path fill="#2c9bff" d="M8.38 1.323a7.144 7.144 0 1 1 0 14.287 7.144 7.144 0 0 1 0-14.287"/><path fill="#fff" d="m9.273 4.233-1.613.244v5.834l1.613-.433V7.624l1.612 2.657 1.613-.605-2.016-2.419 2.017-2.62-1.565-.404-1.661 2.644zM5.989 5.815a.15.15 0 0 0-.106.044l-.633.634c-.059.059-.045.142 0 .212l.655 1.03q-.072.151-.125.311l-.006.013-1.19.265c-.08.018-.15.067-.15.15v.792c0 .082.07.131.15.15l1.19.264.01.023q.051.155.122.302l-.656 1.03c-.045.07-.059.153 0 .211l.633.634a.15.15 0 0 0 .212 0l1.028-.655q.152.075.312.128l.02.009.264 1.189c0 .082.067.15.15.15h.895c.083 0 .132-.07.15-.15l.263-1.226q.183-.068.352-.163l1.004.718a.15.15 0 0 0 .211 0l.634-.633c.059-.059.045-.142 0-.212l-.382-.58-.04.015a.2.2 0 0 1-.243-.084l-.402-.662a2.218 2.218 0 0 1-4.264-.854c0-.94.586-1.741 1.411-2.064v-.442l-.003.015-.026.01a3 3 0 0 0-.308.125L6.095 5.86a.15.15 0 0 0-.106-.045"/></svg>