<svg xmlns="http://www.w3.org/2000/svg" width="64" height="64"><g stroke-width=".741"><path fill="#1eaaf7" d="M12.372 5C8.288 5 5.124 8.241 5 12.263v39.632L5.001 59h46.626C55.711 59 59 55.76 59 51.737V5.001z"/><path fill="#fff" d="M20.132 19.333a.587.587 0 0 0-.459.174l-2.866 2.866a.673.673 0 0 0 0 .955l2.961 4.65c-.237.479-.442.972-.614 1.477l-5.379 1.195a.674.674 0 0 0-.675.675v4.05c0 .374.31.594.675.675l5.382 1.197c.166.5.365.989.596 1.463l-2.967 4.662c-.2.315-.264.69 0 .954l2.864 2.866c.264.265.69.265.954 0l4.662-2.968c.482.24.98.448 1.49.622l1.194 5.379c0 .374.301.675.675.675h4.05c.374 0 .594-.31.675-.675l1.197-5.382c.508-.169 1.004-.372 1.485-.606l4.64 2.956c.265.264.69.264.955 0l2.866-2.866c.264-.265.2-.64 0-.955l-1.266-1.988-.944.377-3.024-4.535a9.45 9.45 0 0 1-8.61 5.574 9.45 9.45 0 0 1-9.45-9.45 9.45 9.45 0 0 1 5.4-8.527v-2.906c-.453.156-.898.338-1.33.546l-4.641-2.956c-.158-.1-.33-.166-.496-.174z"/><path fill="#fff" d="m34.7 13.1-6.75.625V40.1l6.75-1.35v-10.8l8.1 12.15 6.75-2.7-8.775-11.36 8.78-11.59-7.069-1.35L34.7 24.575z"/></g></svg>