<svg width="64" height="64" version="1.1" xmlns="http://www.w3.org/2000/svg" xmlns:xlink="http://www.w3.org/1999/xlink">
 <g transform="matrix(1.35 0 0 1.35 -.4 -22)" stroke-width=".74074">
  <path d="m9.4611 20c-3.0253-5e-5 -5.3695 2.4011-5.4611 5.38v29.357c0 2.9158 7.629e-4 5.2632 7.629e-4 5.2632h34.538c3.0253 0 5.4611-2.4 5.4611-5.38v-29.357c0-2.9158-1.53e-4 -5.2626-1.53e-4 -5.2626z" fill="#1eaaf7" stroke-linejoin="bevel" stroke-width="1.4815"/>
  <path d="m15.209 30.617c-0.12306-0.0059-0.24191 0.03097-0.33984 0.12891l-2.123 2.123c-0.19587 0.19587-0.19587 0.51116 0 0.70703l2.1934 3.4453c-0.17555 0.35419-0.32757 0.71957-0.45508 1.0938l-3.9844 0.88477c-0.277 0-0.5 0.223-0.5 0.5v3c0 0.277 0.2296 0.43991 0.5 0.5l3.9863 0.88672c0.12346 0.37052 0.27091 0.73262 0.44141 1.084l-2.1973 3.4531c-0.14872 0.2337-0.19587 0.51116 0 0.70703l2.1211 2.123c0.19587 0.19587 0.51116 0.19587 0.70703 0l3.4531-2.1992c0.35721 0.17794 0.72586 0.33193 1.1035 0.46094l0.88477 3.9844c0 0.277 0.223 0.5 0.5 0.5h3c0.277 0 0.43991-0.2296 0.5-0.5l0.88672-3.9863c0.37603-0.12536 0.74336-0.27543 1.0996-0.44922l3.4375 2.1895c0.19587 0.19587 0.51116 0.19587 0.70703 0l2.123-2.123c0.19587-0.19587 0.14872-0.47334 0-0.70703l-0.9375-1.4727-0.69922 0.2793-2.2402-3.3594c-1.129 2.5104-3.6244 4.1261-6.377 4.1289-3.866 0-7-3.134-7-7 0.0031-2.7008 1.5598-5.1589 4-6.3164v-2.1523c-0.33648 0.11516-0.66583 0.25016-0.98633 0.4043l-3.4375-2.1895c-0.11685-0.07436-0.24412-0.12301-0.36719-0.12891z" fill="#fff"/>
  <path d="m26 26-5 0.46289v19.537l5-1v-8l6 9 5-2-6.5-8.4141 6.5039-8.5859-5.2363-1-5.7676 8.5z" fill="#fff"/>
 </g>
</svg>
