<svg width="64" height="64" version="1.1" viewBox="0 0 16.933 16.933" xmlns="http://www.w3.org/2000/svg" xmlns:xlink="http://www.w3.org/1999/xlink">
 <defs>
  <linearGradient id="b" x1="45.628" x2="45.628" y1="57.955" y2="12.461" gradientTransform="matrix(.26458 0 0 .26458 0 280.07)" gradientUnits="userSpaceOnUse">
   <stop offset="0"/>
   <stop stop-opacity="0" offset="1"/>
  </linearGradient>
 </defs>
 <g transform="matrix(1.0385 0 0 1.0385 -.41232 -.32567)" stroke-width=".92729">
  <path d="m8.467 1.588a6.879 6.879 0 1 1 0 13.757 6.879 6.879 0 0 1 0-13.757z" fill="#2c9bff"/>
  <path transform="translate(0 -280.07)" d="m12.997 283.36a10.716 10.716 0 0 1 0.497 3.185 10.716 10.716 0 0 1-4.695 8.852 6.88 6.88 0 0 0 6.547-6.868 6.88 6.88 0 0 0-2.349-5.17z" fill="url(#b)" opacity=".25" style="paint-order:stroke markers fill"/>
 </g>
 <path d="M9.273 4.233l-1.613.244v5.834l1.613-.433V7.624l1.612 2.657 1.613-.605-2.016-2.419 2.017-2.62-1.565-.404-1.661 2.644zM5.989 5.815a.15.15 0 0 0-.106.044l-.633.634c-.059.059-.045.142 0 .212l.655 1.03c-.048.1-.09.205-.125.311l-.006.013-1.19.265c-.08.018-.15.067-.15.15v.792c0 .082.07.131.15.15l1.19.264.01.023c.034.103.075.204.122.302l-.656 1.03c-.045.07-.059.153 0 .211l.633.634a.149.149 0 0 0 .212 0l1.028-.655c.101.05.205.092.312.128.007.002.013.006.02.009l.264 1.189c0 .082.067.15.15.15h.895c.083 0 .132-.07.15-.15l.263-1.226c.122-.045.24-.1.352-.163l1.004.718a.149.149 0 0 0 .211 0l.634-.633c.059-.059.045-.142 0-.212l-.382-.58-.04.015a.202.202 0 0 1-.243-.084l-.402-.662a2.218 2.218 0 0 1-4.264-.854c0-.94.586-1.741 1.411-2.064v-.442l-.003.015c-.009.003-.017.008-.026.01a2.622 2.622 0 0 0-.308.125L6.095 5.86a.149.149 0 0 0-.106-.045z" fill="#fff"/>
</svg>
