<svg xmlns="http://www.w3.org/2000/svg" width="64" height="64"><rect width="52" height="52" x="6" y="6" fill="#1eaaf7" paint-order="stroke markers fill" rx="8" ry="8"/><g fill="#fff" stroke-width=".741"><path d="M22.173 20.88a.52.52 0 0 0-.403.154l-2.516 2.515a.59.59 0 0 0 0 .839l2.6 4.081q-.313.631-.54 1.297l-4.722 1.049a.59.59 0 0 0-.592.592v3.555c0 .329.272.522.592.593l4.725 1.05q.218.66.523 1.285l-2.605 4.092c-.175.277-.231.606 0 .838l2.514 2.515a.59.59 0 0 0 .838 0l4.092-2.605q.635.316 1.308.546l1.048 4.722a.59.59 0 0 0 .593.592h3.555c.328 0 .521-.272.592-.592l1.05-4.725q.67-.222 1.304-.532l4.073 2.595a.59.59 0 0 0 .839 0l2.515-2.516c.232-.232.176-.561 0-.838l-1.11-1.745-.83.331-2.654-3.98a8.3 8.3 0 0 1-7.558 4.892 8.295 8.295 0 0 1-8.295-8.295 8.3 8.3 0 0 1 4.74-7.485v-2.55q-.597.204-1.167.478l-4.074-2.594a.9.9 0 0 0-.435-.153"/><path d="m34.96 15.41-5.925.548V39.11l5.925-1.185v-9.48l7.11 10.665 5.925-2.37-7.702-9.972L48 16.595l-6.205-1.185-6.835 10.072z"/></g></svg>