<svg width="64" height="64" version="1.1" xmlns="http://www.w3.org/2000/svg" xmlns:xlink="http://www.w3.org/1999/xlink">
 <g transform="matrix(1.3505 0 0 1.3505 -.41263 -22.021)">
  <g transform="translate(0,16)" color="#000000" stroke-linejoin="round" stroke-width="2.2214">
   <circle transform="rotate(15)" cx="29.394" cy="16.971" r="15" fill="#c0c7c7" stroke-linecap="round"/>
   <path d="m21.952 43.884a20 20 0 0 0 4.0971 0.0059l0.475-3.1a17 17 0 0 0 3.6873-0.98547l1.956 2.441a20 20 0 0 0 3.549-2.0538l-1.135-2.911a17 17 0 0 0 2.7098-2.6952l2.893 1.127a20 20 0 0 0 2.0501-3.5534l-2.422-1.941a17 17 0 0 0 0.60859-1.8185 17 17 0 0 0 0.36937-1.8765l3.094-0.475a20 20 0 0 0 0.0059-4.0971l-3.1-0.475a17 17 0 0 0-0.98547-3.6873l2.441-1.956a20 20 0 0 0-2.0538-3.549l-2.911 1.135a17 17 0 0 0-2.6949-2.7096l1.1271-2.8928a20 20 0 0 0-3.5535-2.0501l-1.9395 2.4221a17 17 0 0 0-1.8201-0.60874 17 17 0 0 0-1.8765-0.36937l-0.47338-3.0939a20 20 0 0 0-4.0971-0.00591l-0.47694 3.0999a17 17 0 0 0-3.687 0.98574l-1.956-2.4407a20 20 0 0 0-3.549 2.0538l1.135 2.911a17 17 0 0 0-2.7098 2.6952l-2.8932-1.128a20 20 0 0 0-2.0501 3.5534l2.422 1.941a17 17 0 0 0-0.60859 1.8185 17 17 0 0 0-0.36937 1.8765l-3.094 0.475a20 20 0 0 0-0.00591 4.0971l3.1 0.475a17 17 0 0 0 0.98548 3.6873l-2.441 1.956a20 20 0 0 0 2.0538 3.549l2.911-1.135a17 17 0 0 0 2.6952 2.7098l-1.127 2.893a20 20 0 0 0 3.5534 2.0501l1.941-2.422a17 17 0 0 0 1.8185 0.60859 17 17 0 0 0 1.8765 0.36937zm-1.5754-6.3608a14 14 0 0 1-9.8995-17.146 14 14 0 0 1 17.146-9.8995 14 14 0 0 1 9.8995 17.146 14 14 0 0 1-17.146 9.8995" fill="#d9dddd"/>
  </g>
  <g transform="translate(0,16)" color="#000000" stroke-linejoin="round" stroke-width="2.2214">
   <g stroke-linecap="round" stroke-width="2.2214">
    <circle transform="matrix(-.96593 -.25882 .25882 -.96593 0 0)" cx="-29.394" cy="-16.971" r="13" fill="#377b52"/>
    <circle transform="matrix(-.96593 -.25882 .25882 -.96593 0 0)" cx="-29.394" cy="-16.971" r="12" fill="#4abd7e"/>
   </g>
  </g>
  <path d="m15 44 4 4 2-6z" fill="#fff" fill-rule="evenodd" stroke-width=".74045"/>
 </g>
</svg>
