<svg width="64" height="64" version="1.1" viewBox="0 0 16.933 16.933" xmlns="http://www.w3.org/2000/svg">
 <circle cx="8.467" cy="8.466" r="7.144" fill="#51a7e3" style="paint-order:stroke markers fill"/>
 <g transform="matrix(1.25 0 0 1.25 -2.1166 -2.1166)" stroke-width=".21166">
  <path d="m5.2915 5.8207v0.72759l5.0942 5.0931h0.72656v-0.72759l-5.0931-5.0931z" fill="#4687b4"/>
  <path d="m9.9218 5.2916c-0.94981 0-1.7197 0.76995-1.7198 1.7198-1.8e-5 0.28961 0.07298 0.57453 0.21238 0.82837l-3.1228 3.1403v0.66144h0.79374l0.26458-0.26458v-0.39687l0.13229-0.13229h0.39687l0.26458-0.26458h0.26458v-0.52916l0.26458-0.26458h0.52916v-0.39687l0.89348-0.87485c0.25312 0.13944 0.53731 0.21328 0.82628 0.21342 0.94978 4.501e-4 1.7198-0.76995 1.7198-1.7198 0-0.94981-0.76995-1.7198-1.7198-1.7198zm0.39687 0.79373c0.29225 0 0.52916 0.23691 0.52916 0.52916s-0.23691 0.52916-0.52916 0.52916-0.52916-0.23691-0.52916-0.52916 0.23691-0.52916 0.52916-0.52916z" fill="#f9f9f9"/>
 </g>
</svg>
