<svg xmlns="http://www.w3.org/2000/svg" width="64" height="64"><g transform="translate(3.216 3.22)scale(.90004)"><rect width="59.997" height="59.997" x="1.983" y="1.978" fill="#f2f2f2" ry="29.998"/><path fill="#9ad14b" d="M52.268 15.989a5.254 5.254 0 0 1-2.985 6.803 5.255 5.255 0 0 1 2.985-6.803M42.842 7a5.253 5.253 0 0 1 .523 7.412 5.24 5.24 0 0 1-1.81-3.97c0-1.222.424-2.447 1.287-3.442m3.201 11.31a5.255 5.255 0 0 1-7.41-.538 5.24 5.24 0 0 1 3.433-1.279c1.473 0 2.938.616 3.977 1.818z"/><path fill="#b27214" d="m50.808 33.513-.043-.001a.64.64 0 0 1-.598-.683c.597-9.068-4.601-17.59-12.936-21.204a.642.642 0 1 1 .51-1.178c8.832 3.83 14.34 12.859 13.707 22.467a.64.64 0 0 1-.64.6z"/><path fill="#49bef8" d="m51.611 27.058-.13.054a6.046 6.046 0 0 0-3.582 6.342c.61 4.6-1.094 8.914-4.157 11.853a13.8 13.8 0 0 1-9.692 3.859 2.7 2.7 0 0 0-1.086.22 2.6 2.6 0 0 0-.6.366 11.9 11.9 0 0 0-4.009 6.246 1.34 1.34 0 0 1-1.4.999c-4.514-.33-6.76-3.031-7.759-4.802a1.338 1.338 0 0 1 .734-1.927c3.562-1.206 6.18-3.976 7.045-4.98l.151-.181.13-.158.027-.036a28 28 0 0 1-1.387-.218q-1.244-.226-2.354-.545a20 20 0 0 1-2.823-1.025 17 17 0 0 1-1.888-.998 15 15 0 0 1-2.952-2.34 15 15 0 0 1-1.307-1.538 15 15 0 0 1-1.531-2.59v-.001a16.5 16.5 0 0 1-.772-1.982 19 19 0 0 1-.67-2.912 20 20 0 0 1-.186-1.76c-.128-2.055.09-3.457.09-3.457 2.214 1.384 4.564 1.858 6.868 1.89 4.245.06 8.335-1.375 11.135-1.358 4.316.026 8.4 3.633 8.4 3.633l.012-.025c1.8-3.863 3.822-5.084 5.49-5.27a4.4 4.4 0 0 1 1.33.059h.002a5.15 5.15 0 0 1 2.143.973c2.145 2.172 4.728 1.609 4.728 1.609"/><path fill="#1aa3dc" d="M44.738 24.475c-.086.021-4.49 1.17-4.004 7.57l-2.817-2.36c1.8-3.862 3.821-5.083 5.49-5.269a4.4 4.4 0 0 1 1.33.059zM28.844 45.002c6.12-1.036 11.077-2.968 9.444-6.565-3.565-7.853-23.998-5.058-26.019-4.761 1.5 4.713 5.371 9.965 15.014 11.237l-.028.036q-.039.049-.13.158c-.664.803-3.396 3.878-7.205 5.164a1.336 1.336 0 0 0-.724 1.925c.998 1.77 3.244 4.47 7.759 4.8a1.34 1.34 0 0 0 1.4-.997 11.9 11.9 0 0 1 4.008-6.247 2.64 2.64 0 0 1 1.686-.586 13.8 13.8 0 0 0 9.692-3.859c-6.885 2.551-13.91.07-14.897-.305"/><path fill="#0569a0" d="M18.371 31.09a.787.787 0 0 1-.79.782c-2.424-.015-4.566-.598-5.982-1.108a20 20 0 0 1-.186-1.76c.332.136.75.294 1.238.454 1.273.415 3.023.83 4.94.842a.786.786 0 0 1 .78.79m.411 3.214a.786.786 0 0 1-.502.991c-1.374.449-3.533.453-5.24.363v-.001a17 17 0 0 1-.65-1.617c1.761.127 4.128.177 5.401-.24a.786.786 0 0 1 .991.504m.937 4.65a4 4 0 0 1-.29.14c-1.024.444-2.385.625-3.55.692a15 15 0 0 1-1.308-1.537c1.263.003 3.103-.108 4.218-.593q.105-.045.202-.095a.784.784 0 0 1 1.06.333.785.785 0 0 1-.332 1.06m3.247 3.032c-.408.307-.984.604-1.6.872q-.32.14-.647.267a17 17 0 0 1-1.888-.998c1.137-.376 2.537-.908 3.192-1.398a.786.786 0 1 1 .943 1.257m4.42 1.687c-.317.312-.892.682-1.49 1.021a24 24 0 0 1-2.354-.544c.965-.47 2.34-1.202 2.74-1.596a.786.786 0 1 1 1.104 1.119"/><circle cx="44.02" cy="28.484" r=".786" fill="#4d4d4d"/></g></svg>