<svg width="64" height="64" version="1.1" xmlns="http://www.w3.org/2000/svg">
 <rect x="4" y="9" width="56" height="46" rx="6" ry="6" fill="#d2d8db" stop-color="#000000" stroke-width="0"/>
 <rect x="7" y="12" width="50" height="40" rx="3" ry="3" fill="#35383b" stop-color="#000000" stroke-width="0"/>
 <g transform="matrix(1.2727 0 0 1.2727 -409.73 -712.93)">
  <g stroke-linejoin="bevel">
   <path d="m335.28 575.87h23.571v18.857h-23.571z" fill="#f73e59" stroke-width="1.0144"/>
   <path d="m337.08 577.3v1h20v-1zm-4e-3 3v10h1c3 0 4-1.998 4-4.984 0-3.01-1-5.02-4-5.02zm7 0v2e-3h-2e-3l2e-3 6e-3v9.992h1v-7.49l2.994 7.492h1v-2e-3h2e-3v-10h-1v7.504l-2.955-7.395-0.041-0.109zm12.998 0c-3 0-5.996 1-5.996 4.969 0 4.03 1.996 5.03 4.996 5.03h1v-5h-1.996v1h0.996v3c-3 0-3.996-1-3.996-3.969 0-3.03 1.996-4.03 4.996-4.03zm-18.998 1c3 0 3 3 3 4s0 4-3 4zm-0.996 11v1h20v-1z" fill="#ffffff"/>
  </g>
 </g>
</svg>
