<svg xmlns="http://www.w3.org/2000/svg" width="64" height="64"><rect width="56" height="46" x="4" y="9" fill="#d2d8db" rx="6" ry="6"/><rect width="50" height="40" x="7" y="12" fill="#35383b" rx="3" ry="3"/><g stroke-linejoin="bevel"><path fill="#f73e59" d="M16.98 19.98h30v24h-30z"/><path fill="#fff" d="M19.272 21.8v1.272h25.454V21.8zm-.005 3.818v12.727h1.272c3.818 0 5.091-2.543 5.091-6.343 0-3.831-1.273-6.39-5.09-6.39zm8.909 0v.002h-.003l.003.008v12.717h1.272v-9.533l3.81 9.535h1.273v-.002h.003V25.618H33.26v9.55l-3.76-9.411-.053-.14zm16.542 0c-3.818 0-7.631 1.273-7.631 6.324 0 5.129 2.54 6.402 6.358 6.402h1.273V31.98h-2.54v1.273h1.267v3.818c-3.818 0-5.085-1.273-5.085-5.052 0-3.856 2.54-5.128 6.358-5.128zM20.54 26.89c3.818 0 3.818 3.818 3.818 5.09s0 5.091-3.818 5.091zm-1.267 14v1.272h25.454V40.89z"/></g></svg>