<svg xmlns="http://www.w3.org/2000/svg" width="64" height="64"><g transform="matrix(1.3 0 0 1.3 .8 .8)"><rect width="40" height="40" x="4" y="4" fill="#e1443b" rx="6.154" ry="6.154"/><rect width="8" height="8" x="-16" y="8" fill="none" stroke="#000" stroke-width="2" opacity=".1" rx="4" ry="4" transform="rotate(-90)"/><rect width="8" height="8" x="-16" y="8" fill="#fff" rx="4" ry="4" transform="rotate(-90)"/><rect width="8" height="8" x="8" y="8" fill="none" opacity=".1" rx="4" ry="4" transform="matrix(0 1 1 0 0 0)"/><rect width="8" height="8" x="-28" y="20" fill="none" stroke="#000" stroke-width="2" opacity=".1" rx="4" ry="4" transform="rotate(-90)"/><rect width="8" height="8" x="-28" y="20" fill="#fff" rx="4" ry="4" transform="rotate(-90)"/><rect width="8" height="8" x="20" y="20" fill="none" opacity=".1" rx="4" ry="4" transform="matrix(0 1 1 0 0 0)"/><rect width="8" height="8" x="-40" y="32" fill="none" stroke="#000" stroke-width="2" opacity=".1" rx="4" ry="4" transform="rotate(-90)"/><rect width="8" height="8" x="-40" y="32" fill="#fff" rx="4" ry="4" transform="rotate(-90)"/><rect width="8" height="8" x="32" y="32" fill="none" opacity=".1" rx="4" ry="4" transform="matrix(0 1 1 0 0 0)"/></g></svg>