<svg width="64" height="64" version="1.1" xmlns="http://www.w3.org/2000/svg" xmlns:xlink="http://www.w3.org/1999/xlink">
 <g transform="matrix(1.3 0 0 1.3 .8 .8)">
  <rect x="4" y="4" width="40" height="40" rx="6.1538" ry="6.1538" fill="#e1443b"/>
  <rect transform="rotate(-90)" x="-16" y="8" width="8" height="8" rx="4" ry="4" fill="none" opacity=".1" stroke="#000" stroke-width="2"/>
  <rect transform="rotate(-90)" x="-16" y="8" width="8" height="8" rx="4" ry="4" fill="#ffffff"/>
  <rect transform="matrix(0,1,1,0,0,0)" x="8" y="8" width="8" height="8" rx="4" ry="4" fill="none" opacity=".1"/>
  <rect transform="rotate(-90)" x="-28" y="20" width="8" height="8" rx="4" ry="4" fill="none" opacity=".1" stroke="#000" stroke-width="2"/>
  <rect transform="rotate(-90)" x="-28" y="20" width="8" height="8" rx="4" ry="4" fill="#ffffff"/>
  <rect transform="matrix(0,1,1,0,0,0)" x="20" y="20" width="8" height="8" rx="4" ry="4" fill="none" opacity=".1"/>
  <rect transform="rotate(-90)" x="-40" y="32" width="8" height="8" rx="4" ry="4" fill="none" opacity=".1" stroke="#000" stroke-width="2"/>
  <rect transform="rotate(-90)" x="-40" y="32" width="8" height="8" rx="4" ry="4" fill="#ffffff"/>
  <rect transform="matrix(0,1,1,0,0,0)" x="32" y="32" width="8" height="8" rx="4" ry="4" fill="none" opacity=".1"/>
 </g>
</svg>
