<?xml version="1.0" encoding="UTF-8"?>
<svg width="64" height="64" version="1.1" viewBox="0 0 16.933 16.933" xmlns="http://www.w3.org/2000/svg" xmlns:cc="http://creativecommons.org/ns#" xmlns:dc="http://purl.org/dc/elements/1.1/" xmlns:rdf="http://www.w3.org/1999/02/22-rdf-syntax-ns#">
 <metadata>
  <rdf:RDF>
   <cc:Work rdf:about="">
    <dc:format>image/svg+xml</dc:format>
    <dc:type rdf:resource="http://purl.org/dc/dcmitype/StillImage"/>
    <dc:title/>
   </cc:Work>
  </rdf:RDF>
 </metadata>
 <g stroke-width="0">
  <g fill-rule="evenodd" stroke-linecap="round" stroke-linejoin="round">
   <rect x="5.0911" y="2.6139" width="7.1814" height="5.2893" ry="0" fill="#fff" stroke="#000"/>
   <path d="m6.7766 6.0484c0.13292 0 0.23926-0.25257 0.23926-0.57731s-0.10634-0.57731-0.23926-0.57731-0.23926 0.25257-0.23926 0.57731 0.10634 0.57731 0.23926 0.57731z" clip-rule="evenodd" fill="#c0c81f" stroke="#969c18"/>
   <path d="m13.634 1.7197c-0.32474-0.34278-1.8041 0.072163-2.7061 0.63143-0.70359-0.36082-1.5515-0.57731-2.4536-0.57731-0.92008 0-1.768 0.21649-2.4716 0.57731-0.90204-0.55927-2.3994-0.99225-2.7061-0.63143-0.32474 0.36082 0.23453 1.8582 0.90204 2.6881-0.054123 0.21649-0.090204 0.43298-0.090204 0.66751 0 0.72163 0.30669 1.3891 0.82988 1.9304h2.9767c-0.090204-0.18041 0.036082-0.28865 0.57731-0.28865 0.54123 0.018041 0.64947 0.10825 0.57731 0.28865h2.9767c0.52318-0.54123 0.82988-1.2268 0.82988-1.9304 0-0.23453-0.03608-0.45102-0.0902-0.66751 0.63143-0.82988 1.1727-2.3453 0.84792-2.6881zm-6.8555 4.7628c-0.63143 0-1.1546-0.52318-1.1546-1.1546 0-0.63143 0.52318-1.1546 1.1546-1.1546 0.63143 0 1.1546 0.52318 1.1546 1.1546 0 0.63143-0.52318 1.1546-1.1546 1.1546zm3.3917 0c-0.63143 0-1.1546-0.52318-1.1546-1.1546 0-0.63143 0.52318-1.1546 1.1546-1.1546 0.63143 0 1.1546 0.52318 1.1546 1.1546 0 0.63143-0.50514 1.1546-1.1546 1.1546z" clip-rule="evenodd" fill="#9b592d" stroke="#543117"/>
  </g>
  <path d="m4.7387 15.346h7.4556c0.27916 0 0.50546-0.2263 0.50546-0.50546v-7.4556c0-0.27916-0.2263-0.50546-0.50546-0.50546h-7.4556c-0.27916 1e-7 -0.50546 0.2263-0.50546 0.50546v7.4556c-7e-7 0.27916 0.2263 0.50546 0.50546 0.50546z" fill="#333" stroke="#000" stroke-linecap="round" stroke-linejoin="round"/>
  <g clip-rule="evenodd" fill-rule="evenodd">
   <path d="m2.0639 4.0711c-0.28903-5.821e-4 -0.57607 0.043775-0.85007 0.13849 1.5335 0.19845 2.7784 0.7939 3.897 1.8763-0.49839-1.1727-1.7944-2.0123-3.0469-2.0148zm12.805 0c-1.2524 0.0025135-2.5484 0.84218-3.0469 2.0148 1.1185-1.0824 2.3634-1.6779 3.897-1.8763-0.274-0.094714-0.56104-0.13907-0.85007-0.13849zm-13.065 0.83353c-0.54951 0.010065-1.0844 0.14815-1.5467 0.44132 1.7319-0.27061 3.3017 0.18052 4.781 1.0645-0.74418-0.93024-2.0255-1.528-3.2345-1.5058zm13.324 0c-1.2089-0.022143-2.4902 0.57559-3.2345 1.5058 1.4794-0.88401 3.049-1.3351 4.781-1.0645-0.4623-0.29315-0.99715-0.43124-1.5467-0.44132zm-12.625 0.89452c-0.73077-0.011993-1.3903 0.19431-1.7218 0.68367 1.5335-0.48712 2.868-0.27088 4.3476 0.30644-0.62917-0.59874-1.6861-0.97469-2.6256-0.99011zm11.927 0c-0.93958 0.01542-1.9965 0.39137-2.6256 0.99011 1.4793-0.57731 2.8141-0.79355 4.3476-0.30644-0.33149-0.48937-0.99106-0.69566-1.7218-0.68367z" fill="#793000" stroke="#461900"/>
   <path d="m3.7037 5.7248c-0.45102 0-0.82988 0.23453-1.0103 0.59535h-0.054123c-0.4871 0-0.90204 0.36082-0.90204 0.81184 0 0.63143 0.64947 0.9742 1.2448 0.75771 0.36082 0.52318 1.1366 0.55927 1.4252 0 0.43298-0.018041 1.1366-0.090204 1.2448-0.75771 0.072163-0.45102-0.3969-0.81184-0.90204-0.81184h-0.054123c-0.14433-0.36082-0.54122-0.59535-0.99225-0.59535zm9.5256 0c0.45102 0 0.82988 0.23453 1.0103 0.59535h0.05412c0.25257 0 0.90204 0.36082 0.90204 0.81184 0 0.63143-0.64947 0.9742-1.2448 0.75771-0.36082 0.52318-1.1366 0.55927-1.4252 0-0.43298-0.018041-1.1366-0.090204-1.2448-0.75771-0.07216-0.45102 0.64947-0.81184 0.90204-0.81184h0.05412c0.14433-0.36082 0.54123-0.59535 0.99225-0.59535z" fill="#695050" stroke="#3c2c2c"/>
   <path d="m10.13 6.0484c0.13292 0 0.23926-0.25257 0.23926-0.57731s-0.10634-0.57731-0.23926-0.57731-0.23926 0.25257-0.23926 0.57731 0.10634 0.57731 0.23926 0.57731z" fill="#c0c81f" stroke="#969c18"/>
  </g>
 </g>
 <path d="m8.7319 12.602h2.679c0.40385 5.19e-4 0.40385 0.60604 0 0.60656h-2.679c-0.40385-5.19e-4 -0.40385-0.60604 0-0.60656zm-3.2218-3.2703c-0.26612-0.28558 0.14305-0.69475 0.42863-0.42863l1.8945 1.8935c0.11826 0.11841 0.11826 0.31022 0 0.42863l-1.8945 1.8945c-0.28558 0.26608-0.69472-0.14305-0.42863-0.42863l1.6802-1.6802z" fill="#fff"/>
</svg>
