<svg xmlns="http://www.w3.org/2000/svg" width="64" height="64"><g transform="translate(0 -1058.5)"><rect width="48" height="56" x="8" y="1062.5" fill="#eceff1" rx="6" ry="6"/><path fill="#90a4ae" d="M16 1070.5v2h9v-2zm0 4v2h22v-2zm0 6v2h31v-2zm0 4v2h31v-2zm0 4v2h31v-2zm0 6v2h31v-2zm0 4v2h31v-2zm0 4v2h15v-2zm24 7v2h7v-2z"/><path fill="#546e7a" d="M47 1087.5a10 10 0 0 0-10 10 10 10 0 0 0 10 10h7c1.662 0 3-1.338 3-3v-7a10 10 0 0 0-10-10"/><circle cx="55" cy="1105.5" fill="#37474f"/><circle cx="-47" cy="1097.5" fill="#eceff1" transform="scale(-1 1)"/><circle cx="-47" cy="1097.5" fill="#d0eaf6" transform="scale(-1 1)"/><path fill="#8ab1c3" d="M42.111 1092.5a7 7 0 0 0-2.033 4H49v-4zm-2.031 6a7 7 0 0 0 2.023 4H49v-4z"/></g></svg>