<svg id="App-Store" width="64" height="64" enable-background="new 0 0 1024 1024" image-rendering="optimizeSpeed" version="1.1" viewBox="0 0 64 64" xmlns="http://www.w3.org/2000/svg" xmlns:xlink="http://www.w3.org/1999/xlink">
 <defs>
  <linearGradient id="linearGradient955" x1="399.57" x2="399.57" y1="545.8" y2="517.8" gradientUnits="userSpaceOnUse">
   <stop stop-color="#3889e9" offset="0"/>
   <stop stop-color="#5ea5fb" offset="1"/>
  </linearGradient>
  <linearGradient id="linearGradient1063" x1="399.57" x2="399.57" y1="545.8" y2="517.8" gradientTransform="matrix(1.94,0,0,1.9415,-745.24,-1000.7)" gradientUnits="userSpaceOnUse" xlink:href="#linearGradient955"/>
  <linearGradient id="linearGradient1065" x1="399.57" x2="399.57" y1="545.8" y2="517.8" gradientTransform="matrix(3.1769 0 0 3.1794 -1323.6 -1658.8)" gradientUnits="userSpaceOnUse" xlink:href="#linearGradient955"/>
 </defs>
 <circle cx="31.866" cy="31.79" r="0" fill="url(#linearGradient1063)" stroke-width="1.5517"/>
 <circle cx="32" cy="32" r="27" fill="#36bdf8" stroke-width="1.4676"/>
 <path d="m31.944 5.102c-3.4009 0-6.6381 0.64719-9.6296 1.7836-0.21755 0.19945-0.50042 0.35258-0.72415 0.33361-0.03156-0.00367-0.06109-0.021298-0.09338-0.034151-1.4747 0.61544-2.8736 1.3695-4.1998 2.2249 0.17227 0.2791 0.22355 0.58981-0.13081 0.74079-0.05944 0.02405-0.8097 0.10098-1.0717 0.09566-3.772 2.7342-6.7977 6.4113-8.7317 10.704 0.031189-0.0055 0.057974-0.0191 0.090631-0.02001 0.29352-0.0055 0.71595 0.07859 0.99786 0.13862 0.26017 0.05343 0.47003 0.22747 0.69522 0.24436 0.63898 0.04866 0.79263-0.44735 1.3139-0.72502 0.53872 0.07527 0.89613-0.09144 1.3825-0.03727 0.33156 0.03727 0.57108 0.38996 0.82946 0.40979 0.21733 0.0213 0.40855-0.20318 0.61884-0.17112 0.20432 0.03214 0.55661 0.47583 0.58985 0.72496 0.04311 0.31007-0.22867 0.58928-0.13925 0.92988 0.32567 0.33078 0.91728 0.3978 1.3824 0.5884 0.30301-0.24908 0.04073-0.71121 0-1.0717-0.0055-0.15919 0.02128-0.3003 0-0.44658-0.0266-0.24827-0.13393-0.47567-0.13558-0.68819-0.0055-0.98137 0.79366-1.4407 1.4535-1.8282 0.28563-0.16873 0.51054-0.46485 0.75833-0.58849 0.35008-0.17498 0.61077-0.21581 0.90057-0.37826 0.52377-0.29346 0.97292-0.52897 1.3825-0.86153 0.18898-0.44498 0.01908-1.0417 0.03504-1.4815 0.18919-0.11567 0.35214 0.04975 0.55296 0.03415 0.31596-0.06518 0.34229-0.51055 0.52137-0.68812 0.10366-0.10208 0.38938-0.17442 0.51865-0.2759 0.31499-0.24638 0.41754-0.61868 0.6927-0.72489 0.0987-0.0404 0.32624-0.02736 0.48187-0.06996 0.20465-0.05434 0.49601-0.29564 0.8294-0.40966 0.21729-0.07527 0.71498-0.0907 0.79786-0.17314 0.10219-0.10392-0.0014-0.39584 0.03504-0.55159 0.1675-0.77852 1.3432-0.94351 2.0381-1.2057 0.48708-0.18342 0.98678-0.52118 1.522-0.4177-0.10494 0.37004-0.6033 0.23892-0.51884 0.68824 0.11668 0.62352 0.95372-0.17791 1.1746-0.27054 0.42169-0.177 1.1449-0.28565 1.6984-0.48597 0.48532-0.177 1.3554-0.44708 0.89802-1.0008-0.3816-0.02129-0.56545 0.44657-0.89802 0.58837-0.2297 0.03764-0.18543-0.19174-0.3818-0.21003-0.18561-0.0213-0.29059 0.1713-0.48198 0.13807-0.19014-0.0314-0.45734-0.32968-0.48708-0.55159-0.0754-0.57568 0.48772-0.81304 0.72681-1.2425-0.15851-0.52067-0.88024-0.10631-1.3166-0.30989 0.04293-0.31005 0.36362-0.52386 0.72674-0.58311 0.29765-0.049757 0.96557-0.024052 1.1428 0.13275 0.10256 0.088314 0.0074 0.30455 0.17356 0.44913 0.17612 0.15919 0.3929 0.14211 0.62154 0.10539 0.08128-0.39295-0.51232-0.29439-0.44767-0.55425 0.46702-0.30475 1.2268-0.054898 1.7986-0.13881 0.32906-0.048839 0.67456-0.2802 0.9663-0.44387 0.27742-0.15735 0.63779-0.43131 0.93216-0.17332 0.07815 0.2816-0.25635 0.37477-0.41345 0.51483-0.52889 0.46942-1.0739 1.0072-1.485 1.5524 0.25215 0.24544 0.71059 0.12173 1.1375 0.17314 0.16677 0.021298 0.37639 0.070504 0.55285 0.10282 0.2066 0.037456 0.42585 0.025521 0.58721 0.068117 0.29051 0.07032 0.36812 0.38089 0.65572 0.38089 0.473-8.63e-4 0.47864-0.51123 0.21054-0.83008 0.084941-0.3255 0.2173-0.49436 0.10311-0.72238-0.21304-0.42506-0.9947-0.021298-1.0348-0.55159-0.024585-0.34389 0.28842-0.32852 0.4134-0.58572-0.056693-0.66445 0.54628-0.71259 0.48183-1.3081-0.026789-0.24913-0.23848-0.25259-0.41342-0.48597-0.0888-0.11384-0.13246-0.33466-0.23432-0.4334-0.80678-0.07032-1.6227-0.1153-2.4489-0.1153zm-13.914 5.4268h0.0037c0.16126 0.0213 0.35542 0.19534 0.5503 0.2103 0.18374 0.0055 0.33669-0.10172 0.45033-0.07014 0.28906 0.07546 0.41096 0.51152 0.13815 0.72496-0.22599 0.02717-0.31409-0.09915-0.48445-0.0683-0.46956 0.07877-0.6497 0.99707-1.0007 0.9667-0.33093-0.02662-0.51005-0.83224-0.17337-1.0717 0.02128-0.20918-0.15356-0.2426-0.142-0.44923 0.0998-0.12687 0.38331-0.26373 0.6583-0.24161zm-1.5562 0.10814c0.09614 0.0037 0.16805 0.02552 0.20537 0.06775-0.04605 0.36761-0.33423 0.34349-0.61882 0.51481-0.49161 0.29592-0.77574 0.74692-0.93216 1.3791-0.0455 0.18342-0.52968 0.67133-0.76361 0.62255-0.54826-0.11512 0.15228-1.1234 0.27648-1.2767 0.13907-0.16984 0.32411-0.31868 0.48713-0.51481 0.15778-0.18981 0.26107-0.44623 0.41342-0.55159 0.16677-0.11494 0.64335-0.25271 0.93216-0.24157zm4.092 1.2398c0.17539 0.0037 0.3335 0.03195 0.40555 0.10282-0.11265 0.45545-1.0964 0.33521-1.4561 0.17038 0.02128-0.17167 0.2924-0.21917 0.51869-0.24157 0.15961-0.0055 0.35665-0.03745 0.5319-0.03195zm-2.2382 0.84062c0.11668-0.0037 0.23527 0.0213 0.35808 0.0549-0.31816 0.26547-0.66228 0.41586-1.2087 0.58833-0.2627 0.08207-0.71641 0.18485-0.76095-0.10814-0.05449-0.35869 0.38419-0.27526 0.624-0.30734 0.30209-0.04223 0.63366-0.21719 0.98756-0.22859zm34.339 2.0435c-0.04165 0.09896-0.07008 0.19444-0.06586 0.28888 0.02128 0.16635 0.20414 0.32656 0.24483 0.55168 0.02128 0.11971-0.05613 0.37709 0 0.48595 0.16658 0.32201 0.60211 0.09125 0.91378 0.10814-0.35403-0.48628-0.70758-0.97347-1.0928-1.4341zm1.7669 2.372c-0.04972 0.23762-0.21144 0.54755-0.34232 0.74597-0.30136 0.45723-0.7107 0.47857-1.1428 0.72234-0.36034 0.20382-0.51551 0.54395-0.72677 0.89836-0.22898 0.38287-0.37078 0.61421-0.27644 1.169-0.30899 0.61126-0.77676 0.98576-1.4167 1.2766-0.18899 0.08519-0.44782 0.11714-0.62146 0.24157-0.13796 0.09951-0.2168 0.36554-0.41342 0.58572-0.24239 0.26918-0.49662 0.38276-0.62405 0.5884-0.0987 0.15919-0.13209 0.475-0.24219 0.68821-0.14824 0.28967-0.4619 0.43155-0.65581 0.725-0.08843 0.13532-0.14806 0.41069-0.24478 0.58844-0.21915 0.39699-0.59325 0.68303-0.55307 1.0323 0.04055 0.33754 0.42413 0.3966 0.45027 0.69081 0.0055 0.16635-0.11008 0.26805-0.10311 0.44919 0.0055 0.26468 0.18449 0.45046 0.20537 0.65409 0.05173 0.51204-0.17429 0.71639-0.2712 1.0664-0.04605 0.16708-0.0255 0.35542-0.07045 0.486-0.08605 0.25628-0.44312 0.48758-0.45031 0.7906-0.0037 0.21542 0.22164 0.38856 0.23977 0.69091 0.0055 0.20868-0.10311 0.4309-0.06531 0.62255 0.07321 0.37522 0.74506 0.81166 1.0375 1.1032 0.39107 0.3902 0.90312 0.69214 1.0717 1.1033 0.14163 0.34911 0.14035 0.80322 0.41343 1.0665 0.20163 0.19422 0.53692 0.31538 0.79522 0.51738 0.241 0.18838 0.50346 0.35153 0.76101 0.55159 0.42077 0.32849 1.057 0.98306 1.7274 0.9326 0.35012-0.02405 0.70888-0.31051 1.1061-0.38093 0.40846-0.07271 0.93867-0.1109 1.3507-0.06775 0.31568 0.0314 0.64087 0.21994 0.96903 0.20485 0.34651-0.0213 0.74387-0.27759 1.1376-0.4491 0.31679-0.13734 0.70554-0.29004 1.1323-0.40197 0.1958-1.312 0.3002-2.6562 0.3002-4.0243 0-5.5076-1.6509-10.613-4.4765-14.867zm-44.598 9.0387c-0.57435 0.03177-0.95058 0.05729-1.2771 0.20487-0.74805 0.33958-0.60359 1.348-1.351 1.5866-0.25828 0.08189-0.61323 0.08648-0.8977 0.13825-0.24575 0.04517-0.54492 0.1781-0.79792 0.17296-0.070266-8.63e-4 -0.1697-0.05362-0.25811-0.08023-0.065863 0.47278-0.12109 0.95093-0.16383 1.4315 0.71107 0.13513 1.078 1.0759 1.7065 1.3869 0.17227 0.08556 0.39705 0.0907 0.61869 0.13899 0.17814 0.0404 0.31484 0.11512 0.48708 0.17351 0.36577 0.12338 0.81355 0.10888 1.1061 0.23916 0.44061 0.19512 0.76385 1.0213 1.1428 1.2425 0.02128 0.22286-0.04421 0.52212 0.03504 0.68813 0.17833 0.24234 0.43171 0.18856 0.72666 0.34674 0.35295 0.18983 0.46095 0.68024 0.79531 0.83006 0.11522 0.05141 0.40474 0.04443 0.58721 0.10043 0.45825 0.13789 0.60781 0.66722 1.0007 0.55166 0.2576-0.07527 0.23726-0.34015 0.27907-0.58583 0.17025-0.18306 0.35607-0.47548 0.62143-0.48068 0.42956-0.0213 0.46785 0.44282 0.62405 0.85894 0.08861 0.23525 0.31897 0.44012 0.37922 0.68822 0.10733 0.42854 0.05394 1.7113-0.03761 1.9675-0.10843 0.31426-0.53489 0.4475-0.79786 0.79593-0.12366 0.16359-0.18273 0.40266-0.2765 0.51747-0.16915 0.20577-0.42098 0.25945-0.54764 0.44919-0.071 0.10704-0.14108 0.33618-0.21084 0.48066-0.20759 0.43887-0.48532 0.74981-0.31075 1.2766 0.07284 0.2168 0.41254 0.36211 0.41345 0.61726 9.9e-4 0.30029-0.64025 0.56914-0.68984 0.89834-0.03743 0.24497 0.19832 0.68211 0.27639 1.0008 0.05705 0.24087 0.51337 0.39143 0.65573 0.55162 0.24263 0.27175 0.4366 0.65681 0.65827 0.99819 0.43837 0.67143 0.78188 1.4902 1.2087 2.1408 0.2255 0.34073 0.54224 0.64708 0.6925 1.0008 0.07632 0.1781 0.06586 0.39124 0.13613 0.55164 0.24696 0.55627 1.3381 1.137 1.9012 1.4132 0.26351 0.12742 0.556 0.17332 0.7979 0.30726 0.36639 0.20386 1.0921 0.75128 1.2771 1.0718 0.16512 0.28806 0.26742 0.98923 0.3475 1.4473 0.10751 0.60538 0.0013 1.0702 0.03504 1.7258 0.02128 0.35458 0.13466 0.71105 0.13943 1.0665 0.0013 0.12412-0.06586 0.217-0.07082 0.34406-2.01e-4 0.02001 0.0074 0.04444 0.0074 0.06518 3.3959 1.5329 7.1587 2.406 11.141 2.406 0.7195 0 1.4305-0.03782 2.1355-0.09291 0.03174-0.05306 0.05908-0.10833 0.09834-0.15753 0.16273-0.21258 0.30653-0.3987 0.41358-0.58583 0.10219-0.62973-0.25182-1.0696-0.10329-1.6206 0.1653-0.61924 1.0233-0.99734 1.6249-1.2768 0.20671-0.09603 0.41863-0.25147 0.58706-0.30991 0.41635-0.14468 0.93612-0.06555 1.3166-0.20485 0.64779-0.23646 0.71543-0.92959 1.0348-1.5183 0.15136-0.27864 0.34972-0.55792 0.37924-0.75643 0.0255-0.1781-0.06549-0.34633-0.03743-0.55689 0.03101-0.20823 0.2185-0.3884 0.27644-0.61732 0.0754-0.29867 0.10843-0.73631 0.10843-1.069 0-0.27317-0.12769-0.51275-0.13796-0.75919-0.04513-0.89451 0.32394-0.99459 0.65573-1.4814 0.16658-0.24181 0.22876-0.51755 0.34493-0.69089 0.55705-0.8289 1.5234-1.2291 1.4535-2.4823-0.02128-0.41462-0.28398-1.3518-0.5898-1.484-0.17484-0.07546-0.57635-0.0055-0.82951-0.103-0.81714-0.304-1.2967-1.3145-2.1434-1.3791-0.18034-0.0213-0.34676 0.07381-0.5503 0.07014-0.33512-0.0213-0.84035-0.23408-1.2113-0.27581-0.23582-0.02405-0.5511 0.0694-0.69266 0-0.21566-0.10484-0.23773-0.50157-0.4134-0.61992-0.13815-0.09658-0.41017-0.12779-0.62144-0.21001-0.34042-0.12944-0.6104-0.2826-1.0032-0.30989-0.1209-0.0055-0.27222 0.05729-0.4134 0.03745-0.21733-0.03745-0.38931-0.29329-0.58978-0.41508-0.25133-0.15313-0.48344-0.2264-0.58728-0.44388 0.22698-0.74281-0.40035-0.94984-0.55303-1.379-0.07247-0.20116-0.03999-0.44315-0.10329-0.62253-0.09081-0.25705-0.34482-0.40551-0.62407-0.61989-0.50029-0.3841-0.94401-0.74474-1.6589-0.83272-0.31433-0.0404-0.62612 0.09474-1.0059 0.07014-0.40239-0.02405-0.90765-0.37657-1.2086-0.71975-0.29272-0.33506-0.43501-0.63575-0.68999-0.79591-0.24146-0.15496-0.56195-0.15129-0.72677-0.3073-0.07338-0.06812-0.06017-0.18504-0.13961-0.34681-0.12109-0.25079-0.32532-0.39027-0.17337-0.69078-0.27552-0.14138-0.2831 0.26222-0.58455 0.21001-0.26885-0.38043-0.49577-0.56067-1.106-0.44915-0.27942 0.05159-0.43541 0.40367-0.76099 0.41249-0.26703 0.0213-0.47682-0.29685-0.82942-0.34683-0.26624-0.03745-0.56897 0.07123-0.75844 0.03672-0.29504-0.05857-0.38612-0.30387-0.65568-0.48072-0.19768-0.12926-0.58169-0.3503-0.69252-0.34672-0.3475 0.0213-0.59512 0.73664-1.0743 0.48338-0.23292-0.29448 0.37933-0.44961 0.10311-0.72513-0.20937-0.20891-0.38542 0.09566-0.5529 0.2103-0.19201 0.13183-0.37245 0.26312-0.58464 0.34147-0.47491 0.177-0.7717 0.08501-1.1428 0.27583-0.34363 0.17718-0.35828 0.4746-0.55296 0.82742-0.15961 0.28899-0.52179 0.71009-0.76104 0.72755-0.28972 0.0213-0.56664-0.40404-0.82942-0.5174-0.79177-0.34215-1.1753 0.30378-1.8327 0.31255-0.61016 0.0213-1.4816-0.98282-1.451-1.555 0.0055-0.34907 0.2013-0.87877 0.24221-1.3108 0.03761-0.34351 0.27257-0.55048 0.27659-0.86417 0.0055-0.41886-0.55701-0.7409-0.82958-0.79062-0.64586-0.11842-1.5426 0.25927-2.2828-0.03745-0.1409-0.23369 0.16585-0.39523 0.24483-0.62253 0.045315-0.12889 0.01908-0.30174 0.06568-0.44394 0.081275-0.21966 0.31275-0.38988 0.41591-0.62253 0.076137-0.17718 0.096868-0.43377 0.17337-0.65404 0.091548-0.25084 0.257-0.41245 0.27655-0.58838 0.02403-0.23232-0.06238-0.50093-0.245-0.65406zm9.2427 7.2998c0.23438 0.0213 0.26367 0.50488 0.02367 0.54378-0.25854 0.04058-0.38993-0.40444-0.1387-0.52019 0.04275-0.0213 0.08274-0.0213 0.11558-0.02001v-0.0037z" fill="#0089dc" stroke-width="1.4674"/>
 <circle cx="-50.99" cy="31.967" r="0" fill="url(#linearGradient1065)" stroke-width="2.5411"/>
 <ellipse transform="matrix(.99641 .084662 -.084964 .99638 0 0)" cx="51.929" cy="43.781" rx="12" ry="12.001" fill="#f9f9f9"/>
 <path d="m50.964 53.398c-0.28522 0-0.56974-0.12232-0.77666-0.36256-0.53058-0.61753-1.2863-0.97048-2.0741-0.97048-0.80113 0-1.5372 0.34266-2.0727 0.96532-0.38867 0.4532-1.0514 0.48784-1.4813 0.07664-0.42922-0.41046-0.46209-1.109-0.07267-1.5608 0.9242-1.0751 2.2461-1.692 3.6268-1.692 1.3786 0 2.7005 0.61827 3.6274 1.6956 0.38937 0.45246 0.35652 1.1511-0.07267 1.5615-0.19993 0.19232-0.45229 0.28666-0.70395 0.28666zm2.3265-2.7656c-0.26774 0-0.53549-0.10759-0.73961-0.32203-1.187-1.2447-2.7627-1.9299-4.4377-1.9299-1.6784 0-3.2548 0.68384-4.4398 1.9256-0.41034 0.43035-1.0745 0.42814-1.4827-0.0044-0.40826-0.43256-0.40686-1.1326 0.0044-1.5629 1.5798-1.6565 3.682-2.5689 5.9183-2.5689 2.2328 0 4.3342 0.91376 5.9169 2.5732 0.41105 0.43036 0.41246 1.1304 0.0044 1.5637-0.20482 0.21592-0.47466 0.32572-0.7438 0.32572zm2.3216-2.7612c-0.26075 0-0.5222-0.10244-0.72562-0.30728-1.8309-1.8496-4.2356-2.8681-6.7733-2.8681-2.5425 0-4.9487 1.017-6.7747 2.8651-0.41734 0.42225-1.0815 0.40825-1.4827-0.0324-0.40127-0.44068-0.38728-1.1407 0.03-1.5629 2.2188-2.2446 5.1402-3.4804 8.2273-3.4804 3.0808 0 6.0015 1.2373 8.2249 3.4826 0.41805 0.42226 0.43203 1.1223 0.03151 1.5629-0.20622 0.22623-0.48166 0.34044-0.75709 0.34044zm-7.6303 8.2009c0.69958 0 1.2667-0.56717 1.2667-1.2668 0-0.69962-0.56713-1.2668-1.2667-1.2668-0.69958 0-1.2667 0.56717-1.2667 1.2668 0 0.69963 0.56713 1.2668 1.2667 1.2668z" fill="#33d4ff"/>
</svg>
