<?xml version="1.0" encoding="UTF-8"?>
<svg width="64" height="64" version="1.1" viewBox="0 0 64 64" xmlns="http://www.w3.org/2000/svg" xmlns:cc="http://creativecommons.org/ns#" xmlns:dc="http://purl.org/dc/elements/1.1/" xmlns:rdf="http://www.w3.org/1999/02/22-rdf-syntax-ns#">
 <metadata>
  <rdf:RDF>
   <cc:Work rdf:about="">
    <dc:format>image/svg+xml</dc:format>
    <dc:type rdf:resource="http://purl.org/dc/dcmitype/StillImage"/>
    <dc:title/>
   </cc:Work>
  </rdf:RDF>
 </metadata>
 <g transform="matrix(1.35 0 0 1.35 -519.39 -675.24)">
  <rect transform="scale(-1,1)" x="-428.43" y="503.88" width="40" height="40" rx="20" fill="#c87137" stroke-opacity=".55027" stroke-width="2.8"/>
  <path d="m405.18 508.8s3.1971 2.193 3.416 3.4375c0 0 6.7639-2.1381 12.707 3.5625h-3s7.8633 4.9141 8 8c-0.13672-0.0859-1.4453-0.76837-2-1 0 0 1.9099 4.3991 0.45704 8.6914-2.7144 5.14-7.7781 9.6316-15.189 10.306-1.9916 0.18113 1.4e-4 3e-3 -1.9999 3e-3v-6l2-1e-5v-3c3.205-0.15537 3.9829-7.8063-0.26822-10 0 0-2.6867 3.7708-5.8418 4.1367 0 0-0.36829 3.2324-4.1816 1.1797-1.0178-0.54548-1.3962-2.3501-0.36914-3.8145l0.8086-1.1699s2.6773-6.4296 4.584-8.332c0 0 1-3 0-5 0 0 1.133 0.84125 1.5 1.5 0 0-0.25516-2.1366-0.62304-2.5z" fill="#fff"/>
  <path d="m421.73 535.8c-4.7155 5e-3 -9.4467-5e-5 -14.162-5e-5l-0.0132 1.003 13.189 5e-3c0.80488-0.80099 0.45229-0.4403 0.98633-1.0078z" color="#000000" color-rendering="auto" dominant-baseline="auto" fill="#f2f2f2" fill-rule="evenodd" image-rendering="auto" shape-rendering="auto" solid-color="#000000" style="font-feature-settings:normal;font-variant-alternates:normal;font-variant-caps:normal;font-variant-ligatures:normal;font-variant-numeric:normal;font-variant-position:normal;isolation:auto;mix-blend-mode:normal;shape-padding:0;text-decoration-color:#000000;text-decoration-line:none;text-decoration-style:solid;text-indent:0;text-orientation:mixed;text-transform:none;white-space:normal"/>
  <path d="m424.02 532.79c-4.7155 5e-3 -9.7318 4e-3 -14.447 4e-3v1l13.77 4e-3c0.60567-0.91038 0.3351-0.48328 0.67774-1.0078z" color="#000000" color-rendering="auto" dominant-baseline="auto" fill="#f2f2f2" fill-rule="evenodd" image-rendering="auto" shape-rendering="auto" solid-color="#000000" style="font-feature-settings:normal;font-variant-alternates:normal;font-variant-caps:normal;font-variant-ligatures:normal;font-variant-numeric:normal;font-variant-position:normal;isolation:auto;mix-blend-mode:normal;shape-padding:0;text-decoration-color:#000000;text-decoration-line:none;text-decoration-style:solid;text-indent:0;text-orientation:mixed;text-transform:none;white-space:normal"/>
 </g>
</svg>
