<svg width="64" height="64" version="1.1" xmlns="http://www.w3.org/2000/svg">
 <g transform="matrix(.89997 0 0 .89997 3.183 3.1614)" fill="#1da7f7" stroke-width="1.5715">
  <circle cx="32.02" cy="32.044" r="30.001"/>
  <circle cx="32.02" cy="32.044" r="30.001"/>
  <circle cx="32.02" cy="32.044" r="0"/>
 </g>
 <path d="m32 14.153c-0.65068 0-1.3014 0.24846-1.7999 0.74705l-5.4684 5.4684v14.538l14.536-14.538-5.4684-5.4684c-0.49858-0.49858-1.1493-0.74705-1.7999-0.74705zm11.631 10.578-7.27 7.2683 7.27 7.2683 5.4684-5.4684c0.99717-0.99717 0.99717-2.6027 0-3.5999zm-24.716 1.4536-4.0147 4.0147c-0.99717 0.99717-0.99717 2.6027 0 3.5999l4.0147 4.0147v-11.629zm13.085 10.176-7.2683 7.27 5.4684 5.4684c0.99717 0.99717 2.6027 0.99717 3.5999 0l5.4684-5.4684z" fill="#fff" stroke-width="1.4538"/>
</svg>
