<svg xmlns="http://www.w3.org/2000/svg" width="64" height="64" viewBox="0 0 16.933 16.933"><rect width="12.171" height="14.023" x="2.117" y="1.587" fill="#b3bcbc" fill-rule="evenodd" rx=".794" ry=".794" style="paint-order:stroke fill markers"/><path fill="#edeeef" d="M2.646 2.117v8.73h11.112v-8.73z"/><path fill="#aeaeae" d="M3.175 4.762h.714v.357h-.714zm1.071 0h1.071v.357H4.246zm1.429 0h1.786v.357H5.675zm-2.5.715h1.429v.357H3.175zm1.786 0h.714v.357h-.714zM3.175 6.879h.714v.357h-.714zm1.071 0h1.071v.357H4.246zm-1.071.714h.714v.357h-.714zm1.071 0h1.786v.357H4.246zm2.143 0H7.46v.357H6.389zM3.175 8.996h2.143v.357H3.175zm2.5 0h1.071v.357H5.675zm-2.5.714h1.786v.357H3.175zm2.143 0h1.786v.357H5.318zm3.215-4.948h.714v.357h-.714zm1.071 0h1.071v.357H9.604zm1.429 0h1.786v.357h-1.786zm-2.5.715h1.429v.357H8.533zm1.786 0h.714v.357h-.714zM8.533 6.879h.714v.357h-.714zm0 .714h.714v.357h-.714zm1.071 0h1.786v.357H9.604zm2.144 0h1.071v.357h-1.071zM8.533 8.996h2.143v.357H8.533zm0 .714h1.786v.357H8.533zm2.143 0h1.786v.357h-1.786z"/><rect width="14.287" height="5.292" x="1.058" y="10.583" fill="#d6dadc" fill-rule="evenodd" rx=".794" ry=".794" style="paint-order:stroke fill markers"/><path fill="#286da8" d="M3.175 3.44v.529h4.498v-.53zm7.5 7.99-2.5 1.429 2.5 1.442v-.729h3.572v-1.428h-3.571z"/><path fill="#12b78c" d="M8.586 3.44v.529h4.643v-.53zm-2.858 8.704v.714H2.156v1.43h3.572v.728l2.5-1.443z"/></svg>