<svg xmlns="http://www.w3.org/2000/svg" width="64" height="64" viewBox="0 0 16.933 16.933"><rect width="12.171" height="14.023" x="2.117" y="1.587" fill="#b3bcbc" fill-rule="evenodd" rx=".794" ry=".794" style="paint-order:stroke fill markers"/><path fill="#edeeef" d="M2.646 2.117v8.73h11.112v-8.73z"/><path fill="#aeaeae" d="M3.175 4.762h.714v.357h-.714zM4.246 4.762h1.071v.357H4.246zM5.675 4.762h1.786v.357H5.675zM3.175 5.477h1.429v.357H3.175zM4.961 5.477h.714v.357h-.714zM3.175 6.879h.714v.357h-.714zM4.246 6.879h1.071v.357H4.246zM3.175 7.593h.714v.357h-.714zM4.246 7.593h1.786v.357H4.246zM6.389 7.593H7.46v.357H6.389zM3.175 8.996h2.143v.357H3.175zM5.675 8.996h1.071v.357H5.675zM3.175 9.71h1.786v.357H3.175zM5.318 9.71h1.786v.357H5.318zM8.533 4.762h.714v.357h-.714zM9.604 4.762h1.071v.357H9.604zM11.033 4.762h1.786v.357h-1.786zM8.533 5.477h1.429v.357H8.533zM10.319 5.477h.714v.357h-.714zM8.533 6.879h.714v.357h-.714zM8.533 7.593h.714v.357h-.714zM9.604 7.593h1.786v.357H9.604zM11.748 7.593h1.071v.357h-1.071zM8.533 8.996h2.143v.357H8.533zM8.533 9.71h1.786v.357H8.533zM10.676 9.71h1.786v.357h-1.786z"/><rect width="14.287" height="5.292" x="1.058" y="10.583" fill="#d6dadc" fill-rule="evenodd" rx=".794" ry=".794" style="paint-order:stroke fill markers"/><path fill="#286da8" d="M3.175 3.44v.529h4.498v-.53zm7.5 7.99-2.5 1.429 2.5 1.442v-.729h3.572v-1.428h-3.571z"/><path fill="#12b78c" d="M8.586 3.44v.529h4.643v-.53zm-2.858 8.704v.714H2.156v1.43h3.572v.728l2.5-1.443z"/></svg>