<?xml version="1.0" encoding="UTF-8" standalone="no"?>
<!-- Created with Inkscape (http://www.inkscape.org/) -->

<svg
   xmlns:dc="http://purl.org/dc/elements/1.1/"
   xmlns:cc="http://creativecommons.org/ns#"
   xmlns:rdf="http://www.w3.org/1999/02/22-rdf-syntax-ns#"
   xmlns:svg="http://www.w3.org/2000/svg"
   xmlns="http://www.w3.org/2000/svg"
   xmlns:sodipodi="http://sodipodi.sourceforge.net/DTD/sodipodi-0.dtd"
   xmlns:inkscape="http://www.inkscape.org/namespaces/inkscape"
   width="64"
   height="64"
   viewBox="0 0 16.933333 16.933333"
   version="1.1"
   id="svg4572"
   inkscape:version="0.92.4 (5da689c313, 2019-01-14)"
   sodipodi:docname="konqueror.svg">
  <title
     id="title4611">Canvas icon theme</title>
  <defs
     id="defs4566">
    <linearGradient
       id="linearGradient3764"
       x1="1"
       x2="47"
       gradientUnits="userSpaceOnUse"
       gradientTransform="matrix(0,-0.26458333,0.26458333,0,-14.552084,294.35417)">
      <stop
         style="stop-color:#319af3;stop-opacity:1"
         id="stop2" />
      <stop
         offset="1"
         style="stop-color:#43a2f4;stop-opacity:1"
         id="stop4" />
    </linearGradient>
  </defs>
  <sodipodi:namedview
     id="base"
     pagecolor="#ffffff"
     bordercolor="#666666"
     borderopacity="1.0"
     inkscape:pageopacity="0.0"
     inkscape:pageshadow="2"
     inkscape:zoom="5.6"
     inkscape:cx="40.05631"
     inkscape:cy="33.642499"
     inkscape:document-units="px"
     inkscape:current-layer="layer1"
     showgrid="true"
     units="px"
     width="64px"
     showguides="true"
     inkscape:guide-bbox="true"
     inkscape:window-width="1159"
     inkscape:window-height="718"
     inkscape:window-x="414"
     inkscape:window-y="116"
     inkscape:window-maximized="0"
     inkscape:snap-bbox="true"
     inkscape:bbox-nodes="true"
     inkscape:snap-bbox-edge-midpoints="true">
    <inkscape:grid
       type="xygrid"
       id="grid4582" />
    <sodipodi:guide
       position="1.0583333,15.875"
       orientation="0,1"
       id="guide4584"
       inkscape:locked="false" />
    <sodipodi:guide
       position="1.0583333,1.0583333"
       orientation="1,0"
       id="guide4586"
       inkscape:locked="false" />
    <sodipodi:guide
       position="15.875,15.875"
       orientation="1,0"
       id="guide4588"
       inkscape:locked="false" />
    <sodipodi:guide
       position="1.0583333,1.0583333"
       orientation="0,1"
       id="guide4590"
       inkscape:locked="false" />
    <sodipodi:guide
       position="8.4666665,8.4666665"
       orientation="0,1"
       id="guide822"
       inkscape:locked="false" />
    <sodipodi:guide
       position="8.4666665,8.4666665"
       orientation="1,0"
       id="guide824"
       inkscape:locked="false" />
  </sodipodi:namedview>
  <metadata
     id="metadata4569">
    <rdf:RDF>
      <cc:Work
         rdf:about="">
        <dc:format>image/svg+xml</dc:format>
        <dc:type
           rdf:resource="http://purl.org/dc/dcmitype/StillImage" />
        <dc:title>Canvas icon theme</dc:title>
        <cc:license
           rdf:resource="http://creativecommons.org/licenses/by-nc-sa/4.0/" />
        <dc:creator>
          <cc:Agent>
            <dc:title>Vince Liuice</dc:title>
          </cc:Agent>
        </dc:creator>
      </cc:Work>
      <cc:License
         rdf:about="http://creativecommons.org/licenses/by-nc-sa/4.0/">
        <cc:permits
           rdf:resource="http://creativecommons.org/ns#Reproduction" />
        <cc:permits
           rdf:resource="http://creativecommons.org/ns#Distribution" />
        <cc:requires
           rdf:resource="http://creativecommons.org/ns#Notice" />
        <cc:requires
           rdf:resource="http://creativecommons.org/ns#Attribution" />
        <cc:prohibits
           rdf:resource="http://creativecommons.org/ns#CommercialUse" />
        <cc:permits
           rdf:resource="http://creativecommons.org/ns#DerivativeWorks" />
        <cc:requires
           rdf:resource="http://creativecommons.org/ns#ShareAlike" />
      </cc:License>
    </rdf:RDF>
  </metadata>
  <g
     inkscape:label="Layer 1"
     inkscape:groupmode="layer"
     id="layer1"
     transform="translate(0,-280.06667)">
    <circle
       style="opacity:1;fill:#359cf3;fill-opacity:1;stroke:none;stroke-width:0.49136901;stroke-miterlimit:4;stroke-dasharray:none;stroke-opacity:0.03921569;paint-order:stroke markers fill"
       id="path13"
       cx="8.4666662"
       cy="288.53333"
       r="6.8791666" />
    <g
       id="g39"
       transform="matrix(0.3525721,0,0,0.3525721,0.0040106,280.06914)"
       style="fill:#ffffff;stroke-width:0.7504375">
      <g
         id="g37"
         style="fill:#ffffff;stroke-width:0.7504375">
        <!-- color: #43a2f4 -->
        <g
           id="g35"
           style="fill:#ffffff;stroke-width:0.7504375">
          <path
             d="m 15,12 c -0.031,0 -0.07,0.008 -0.094,0.031 l -0.875,0.875 c -0.047,0.047 -0.047,0.141 0,0.188 l 1.219,1.219 -0.344,0.344 c -0.078,0.078 -0.09,0.188 -0.031,0.281 l 2.156,3.563 c -0.363,0.621 -0.637,1.277 -0.844,1.969 l -4,0.844 c -0.109,0.023 -0.188,0.109 -0.188,0.219 v 2.605 c 0,0.102 0.082,0.188 0.188,0.219 l 3.875,0.938 c 0.199,0.805 0.508,1.574 0.906,2.281 l -2.25,3.406 c -0.063,0.09 -0.047,0.227 0.031,0.313 l 1.813,1.813 c 0.078,0.078 0.219,0.086 0.313,0.031 l 3.5,-2.125 c 0.66,0.383 1.371,0.695 2.125,0.906 l 0.813,3.906 c 0.023,0.109 0.109,0.188 0.219,0.188 h 2.594 c 0.109,0 0.195,-0.082 0.219,-0.188 l 0.969,-3.875 c 0.801,-0.211 1.543,-0.5 2.25,-0.906 l 3.406,2.188 c 0.094,0.059 0.203,0.047 0.281,-0.031 l 0.469,-0.469 1.188,1.188 c 0.047,0.047 0.148,0.047 0.191,0 l 0.875,-0.875 c 0.043,-0.047 0.043,-0.109 0,-0.156 l -1.191,-1.188 0.281,-0.313 c 0.078,-0.078 0.121,-0.191 0.066,-0.281 l -2.156,-3.5 c 0.234,-0.422 0.453,-0.883 0.625,-1.344 0.008,-0.031 0.012,-0.066 0,-0.094 -0.016,-0.031 -0.063,-0.055 -0.094,-0.063 l -1.098,-0.281 c -0.004,-0.004 -0.023,0 -0.027,0 0.309,-0.848 0.5,-1.766 0.5,-2.719 0,-4.316 -3.516,-7.844 -7.848,-7.844 -0.969,0 -1.918,0.172 -2.777,0.5 -0.066,-0.389 -0.165,-0.795 -0.25,-1.187 -0.008,-0.035 -0.035,-0.047 -0.066,-0.063 -0.027,-0.023 -0.059,-0.02 -0.094,0 -0.457,0.164 -0.891,0.352 -1.313,0.594 -1.097,-0.782 -2.34,-1.556 -3.5,-2.312 -0.094,-0.063 -0.23,-0.051 -0.313,0.031 l -0.406,0.438 -1.25,-1.219 C 15.04,12.022 15.032,12.014 15,12.014 m 10.406,3.809 c 1.359,0.09 2.625,0.551 3.688,1.281 -0.258,-0.031 -0.531,-0.074 -0.688,-0.219 h -0.063 c -0.137,0.113 -0.387,0.16 -0.563,0.188 l -0.313,0.438 -0.375,0.313 c -0.066,0.145 0.023,0.359 0.063,0.5 l 0.406,-0.188 c 0.055,0.195 0.199,0.238 0.344,0.344 0.23,-0.438 0.039,-0.859 0.594,-1.094 l -0.25,0.344 0.063,0.25 0.031,-0.313 c 0.102,0.352 -0.023,0.836 -0.406,0.969 l -0.375,-0.031 v -0.25 c -0.223,0.047 -0.215,0.184 -0.156,0.375 -0.148,-0.043 -0.234,-0.051 -0.344,0.063 -0.121,-0.121 -0.234,-0.199 -0.25,-0.375 -0.078,-0.074 -0.117,-0.141 -0.125,-0.25 l -0.25,-0.027 0.094,0.625 c -0.027,-0.055 -0.063,-0.063 -0.094,-0.098 l 0.063,0.441 0.344,-0.066 c -0.098,0.098 -0.176,0.098 -0.313,0.098 l 0.063,0.125 h -0.219 l 0.281,0.469 c -0.637,0.004 -0.648,0.316 -0.625,0.844 0.125,0.012 0.195,0.035 0.281,0.125 0.516,-0.27 0.637,-0.777 1.25,-0.938 0.098,0.309 0.406,0.313 0.313,0.688 0.301,-0.063 0.379,-0.332 0.188,-0.563 0.258,0.152 0.324,0.449 0.5,0.688 0.125,-0.164 0.086,-0.313 0.281,-0.438 v 0.094 c 0.332,0.293 0.551,0.355 0.969,0.5 -0.141,0.203 -0.293,0.422 -0.563,0.406 -0.328,-0.023 -0.773,-0.355 -1,0.027 l -0.625,-0.5 c -0.348,-0.145 -0.672,0.012 -1.031,-0.027 l -0.156,0.063 0.063,0.031 c -0.715,0.32 -1.113,1.172 -1.188,1.875 l -0.125,0.469 c 0.078,0.457 0.457,0.941 0.781,1.25 0.23,0.223 0.406,-0.219 0.625,0 0.289,-0.102 0.707,-0.305 0.969,0 0.176,0.199 0.004,0.379 0.063,0.598 0.105,0.363 0.344,0.813 0.344,1.223 l -0.094,0.969 c 0.086,0.594 0.434,1.098 0.438,1.719 0.48,-0.051 1.016,-0.309 1.281,-0.719 l 0.094,-0.344 0.191,-0.25 -0.066,-0.375 c 0.113,-0.273 0.559,-0.301 0.625,-0.598 0.094,-0.398 -0.141,-0.863 0,-1.277 0.223,-0.648 0.859,-1.09 0.875,-1.816 l -0.469,0.031 c 0.422,-0.52 1.301,-0.781 0.844,-1.566 l -0.188,0.227 h -0.094 c -0.148,-0.316 -0.375,-0.328 -0.375,-0.727 0.367,0.316 0.746,0.316 1.094,0.691 0.066,-0.039 0.102,-0.086 0.125,-0.156 0.086,0.449 0.125,0.934 0.125,1.406 -0.008,4.168 -3.355,7.539 -7.469,7.531 -2.828,-0.008 -5.305,-1.613 -6.563,-3.977 -0.226,-0.44 -0.44,-0.933 -0.626,-1.345 -0.414,-1.191 -0.313,-2.641 -0.313,-2.75 0,-0.059 0.047,-0.137 0.094,-0.219 0.027,-0.297 0.094,-0.586 0.156,-0.875 -0.016,-0.016 -0.031,-0.043 -0.031,-0.063 0,-0.012 0.059,-0.172 0.094,-0.281 -0.027,0.113 -0.047,0.227 -0.063,0.344 -0.035,0.207 -0.055,0.418 -0.063,0.625 -0.02,0.305 0.246,0.426 0.375,0.656 l 0.02,0.438 0.105,-0.406 0.844,0.344 0.594,0.563 0.5,0.066 c -0.184,0.406 -0.535,1.074 -0.469,1.527 0.039,0.266 0.313,0.629 0.469,0.848 0.215,0.301 0.609,0.492 0.719,0.875 l 0.031,0.625 0.125,0.469 c -0.023,0.195 -0.219,0.535 -0.094,0.719 0.133,0.199 0.641,0.438 0.875,0.5 0.219,0.063 0.246,-0.141 0.156,-0.277 l 0.27,-0.406 0.375,-0.281 0.25,-0.875 0.566,-0.375 c 0.227,-0.34 0.039,-0.621 0.125,-0.969 l 0.375,-1.031 c -0.422,-0.16 -1.016,-0.371 -1.316,-0.719 l -0.094,0.031 -0.063,-0.348 -0.469,-0.219 -0.094,0.066 -0.094,-0.531 -0.625,-0.066 -0.469,-0.25 c -0.203,-0.027 -0.488,0.313 -0.563,0.473 l -0.25,-0.066 0.063,-0.066 -0.219,-0.148 0.031,0.148 c -0.168,-0.172 -0.199,-0.391 -0.156,-0.625 l -0.281,-0.125 -0.031,0.125 c -0.047,-0.188 -0.02,-0.445 0.125,-0.594 -0.215,-0.145 -0.383,-0.008 -0.531,0.156 l -0.313,-0.625 c -0.086,0.191 -0.047,0.391 -0.031,0.594 H 18.36 c -0.016,-0.215 -0.078,-0.449 0.031,-0.656 0.207,-0.383 0.836,-0.547 1.219,-0.469 l -0.063,0.066 0.375,0.313 c 0,-0.598 0.23,-0.66 0.563,-1.094 l 0.219,-0.406 c 0.258,-0.277 0.656,-0.469 1,-0.594 l 0.438,-0.281 c -0.137,-0.238 -0.516,-0.172 -0.75,-0.152 0.422,-0.242 0.992,-0.102 1.281,-0.531 -0.316,-0.23 -0.309,-0.84 -0.813,-0.594 l 0.063,-0.223 -0.406,-0.219 -0.313,0.656 -0.438,0.527 -0.031,-0.277 c -0.164,-0.078 -0.617,-0.223 -0.625,-0.441 -0.012,-0.23 0.699,-0.574 0.875,-0.719 l -0.063,0.188 0.313,-0.023 c 0.063,-0.043 0.672,-0.883 0.75,-0.352 0.422,0.16 0.449,0.328 0.875,0.066 l -0.25,-0.125 c -0.043,-0.387 -0.398,-0.375 -0.719,-0.375 l 1.031,-0.469 c 0.113,0.273 0.449,0.336 0.563,0.594 0.082,0.18 -0.16,0.262 -0.156,0.441 0.008,0.211 0.215,0.5 0.313,0.688 l 0.594,-0.656 c 0.324,-0.172 0.836,-0.188 1.094,-0.469 0.301,-0.324 0.133,-0.844 0.688,-0.844 -0.113,-0.047 -0.277,-0.082 -0.375,0 l -0.125,-0.094 h 0.156 m 0.754,2.617 C 26.346,18.583 26.272,18.54 26.115,18.575 l 0.125,0.469 0.125,-0.063 -0.094,-0.031"
             style="fill:#ffffff;fill-opacity:1;fill-rule:nonzero;stroke:none;stroke-width:0.7504375"
             id="path33"
             inkscape:connector-curvature="0" />
        </g>
      </g>
    </g>
  </g>
</svg>
