<svg width="64" height="64" version="1.1" xmlns="http://www.w3.org/2000/svg">
 <rect x="6" y="6" width="52" height="52" rx="8" ry="8" fill="#3f3f3f" stroke-width=".92857"/>
 <path d="m50 48h-4" fill="none" stroke="#757575" stroke-linecap="round" stroke-linejoin="round" stroke-width="2"/>
 <path d="m42 48h-4" fill="none" stroke="#757575" stroke-linecap="round" stroke-linejoin="round" stroke-width="2"/>
 <path d="m34 48h-4" fill="none" stroke="#757575" stroke-linecap="round" stroke-linejoin="round" stroke-width="2"/>
 <path d="m26 48h-4" fill="none" stroke="#757575" stroke-linecap="round" stroke-linejoin="round" stroke-width="2"/>
 <path d="m18 48h-4" fill="none" stroke="#757575" stroke-linecap="round" stroke-linejoin="round" stroke-width="2"/>
 <path d="m50 38h-4" fill="none" stroke="#757575" stroke-linecap="round" stroke-linejoin="round" stroke-width="2"/>
 <path d="m42 38h-4" fill="none" stroke="#757575" stroke-linecap="round" stroke-linejoin="round" stroke-width="2"/>
 <path d="m34 38h-4" fill="none" stroke="#757575" stroke-linecap="round" stroke-linejoin="round" stroke-width="2"/>
 <path d="m26 38h-4" fill="none" stroke="#757575" stroke-linecap="round" stroke-linejoin="round" stroke-width="2"/>
 <path d="m18 38h-4" fill="none" stroke="#757575" stroke-linecap="round" stroke-linejoin="round" stroke-width="2"/>
 <path d="m18 38h-4" fill="none" stroke="#757575" stroke-linecap="round" stroke-linejoin="round" stroke-width="2"/>
 <path d="m50 27h-4" fill="none" stroke="#757575" stroke-linecap="round" stroke-linejoin="round" stroke-width="2"/>
 <path d="m42 27h-4" fill="none" stroke="#757575" stroke-linecap="round" stroke-linejoin="round" stroke-width="2"/>
 <path d="m34 27h-4" fill="none" stroke="#757575" stroke-linecap="round" stroke-linejoin="round" stroke-width="2"/>
 <path d="m26 27h-4" fill="none" stroke="#757575" stroke-linecap="round" stroke-linejoin="round" stroke-width="2"/>
 <path d="m18 27h-4" fill="none" stroke="#757575" stroke-linecap="round" stroke-linejoin="round" stroke-width="2"/>
 <path d="m50 16h-4" fill="none" stroke="#757575" stroke-linecap="round" stroke-linejoin="round" stroke-width="2"/>
 <path d="m42 16h-4" fill="none" stroke="#757575" stroke-linecap="round" stroke-linejoin="round" stroke-width="2"/>
 <path d="m34 16h-4" fill="none" stroke="#757575" stroke-linecap="round" stroke-linejoin="round" stroke-width="2"/>
 <path d="m26 16h-4" fill="none" stroke="#757575" stroke-linecap="round" stroke-linejoin="round" stroke-width="2"/>
 <path d="m18 16h-4" fill="none" stroke="#757575" stroke-linecap="round" stroke-linejoin="round" stroke-width="2"/>
 <path d="m33.004 6v17.497c-0.03149 0.38234 0.11298 0.67664 0.6038 0.38452l4.8921-4.3072 4.8921 4.3072c0.49082 0.29212 0.6353-0.0022 0.6038-0.38452v-17.497h-5.4959z" fill="#ffc540"/>
 <path d="m16 29v17" fill="none" stroke="#ffffff" stroke-linecap="round" stroke-linejoin="round" stroke-width="6"/>
 <path d="m27 29-10.023 7.9882" fill="none" stroke="#ffffff" stroke-linecap="round" stroke-linejoin="round" stroke-width="6"/>
 <path d="m27 46-10.023-7.7555" fill="none" stroke="#ffffff" stroke-linecap="round" stroke-linejoin="round" stroke-width="6"/>
 <circle cx="16" cy="21" r="3" fill="#ffc540"/>
</svg>
