<svg width="64" height="64" version="1.1" viewBox="0 0 16.933 16.933" xmlns="http://www.w3.org/2000/svg">
 <defs>
  <linearGradient id="linearGradient892-3" x1="-197.72" x2="-197.72" y1="263.86" y2="273.76" gradientTransform="matrix(.18709 -.18709 .18709 .18709 1.1192 -74.45)" gradientUnits="userSpaceOnUse">
   <stop offset="0"/>
   <stop stop-opacity="0" offset="1"/>
  </linearGradient>
 </defs>
 <path class="ColorScheme-Highlight" d="m7.1442 2.3771-3.7041 0.00103c-0.2936 0-0.39491 0.26797-0.52969 0.52863v0.00362h-0.26458c-0.58631 0-1.0583 0.47201-1.0583 1.0583v1.3229c-0.58631 0-1.0583 0.47201-1.0583 1.0583v7.4082c0 0.58631 0.47201 1.0583 1.0583 1.0583h13.758c0.58631 0 1.0583-0.47201 1.0583-1.0583v-8.4666c0-0.58631-0.47201-1.0583-1.0583-1.0583v-0.26458c0-0.58631-0.47201-1.0583-1.0583-1.0583h-4.4606c-0.012512-8.466e-4 -0.024471-0.00367-0.037205-0.00362h-2.1156c-0.155-0.249-0.23566-0.52969-0.52969-0.52969z" color="#5294e2" fill="currentColor" stroke-width=".26458"/>
 <path id="shadow" d="m7.1441 2.3771-3.7041 0.00103c-0.2936 0-0.39492 0.26798-0.52967 0.52864v0.00362h-0.26458c-0.58631 0-1.0583 0.472-1.0583 1.0583v1.3229h6.6145l0.79373-1.0583h6.3499v-0.26458c0-0.58631-0.472-1.0583-1.0583-1.0583l-6.6134-0.00362c-0.155-0.249-0.23566-0.52967-0.52967-0.52967z" fill="#000000" opacity=".2"/>
 <path d="m2.9146 3.6999c-0.29543 0-0.53329 0.23787-0.53329 0.53329v1.0583h5.8208l0.79374-1.0583h5.5562c0-0.29543-0.23787-0.53329-0.53329-0.53329h-11.104z" fill="#ffffff" stroke-width=".26458"/>
 <rect x="3.704" y="2.64" width="3.175" height=".529" rx=".2645" ry=".2645" opacity=".25"/>
 <path d="m16.404 10.583-4.2333 4.2333h3.175c0.58631 0 1.0583-0.47201 1.0583-1.0583z" fill="url(#linearGradient892-3)" opacity=".2" stroke-width=".26458"/>
 <rect x="10.318" y="4.762" width="4.2333" height=".52916" ry=".26508" opacity=".25"/>
 <path d="m8.2287 10.939c-0.30383 0.22536-0.76843 0.95881-0.91354 0.67199-0.072555-0.040972-0.18798-3.3313-0.029681-3.4583 0.1381-0.11063 3.1533 1.7332 3.0106 1.9258-0.01773 0.19668-0.70412 0.25814-1.0558 0.38926l0.75894 1.2579-0.94322 0.52448z" fill="#3d6fab" stroke="#f2f2f2" stroke-linejoin="round" stroke-width=".52916" style="paint-order:stroke fill markers"/>
</svg>
