<svg xmlns="http://www.w3.org/2000/svg" width="64" height="64" viewBox="0 0 16.933 16.933"><defs><linearGradient id="a" x1="-197.72" x2="-197.72" y1="263.86" y2="273.76" gradientTransform="matrix(.18709 -.18709 .18709 .18709 1.12 -74.45)" gradientUnits="userSpaceOnUse"><stop offset="0"/><stop offset="1" stop-opacity="0"/></linearGradient></defs><path fill="#f55" d="m7.144 2.377-3.704.001c-.294 0-.395.268-.53.529v.003h-.264c-.586 0-1.058.472-1.058 1.059v7.408c0 .586.472 1.058 1.058 1.058h11.642c.586 0 1.058-.472 1.058-1.058V3.969c0-.587-.472-1.059-1.058-1.059h-4.46l-.038-.003H7.674c-.155-.25-.235-.53-.53-.53" style="paint-order:stroke fill markers"/><path d="m7.144 2.377-3.704.001c-.294 0-.395.268-.53.529v.003h-.264c-.586 0-1.058.472-1.058 1.059v7.408c0 .586.472 1.058 1.058 1.058h11.642c.586 0 1.058-.472 1.058-1.058V3.969c0-.587-.472-1.059-1.058-1.059l-6.614-.003c-.155-.25-.235-.53-.53-.53" opacity=".18" style="paint-order:stroke fill markers"/><rect width="12.171" height="5.027" x="2.381" y="3.7" fill="#fff" paint-order="markers stroke fill" ry=".533"/><rect width="3.175" height=".529" x="3.704" y="2.64" opacity=".25" paint-order="stroke markers fill" ry=".265"/><path fill="#f55" d="m8.996 4.233-.794 1.059H1.587C1.001 5.292.53 5.764.53 6.35v7.408c0 .586.472 1.058 1.058 1.058h13.758c.587 0 1.059-.472 1.059-1.058V5.292c0-.587-.472-1.059-1.059-1.059z" style="paint-order:stroke fill markers"/><path fill="url(#a)" d="m16.404 10.583-4.233 4.233h3.175c.586 0 1.058-.472 1.058-1.058z" opacity=".2" style="paint-order:stroke fill markers"/><rect width="4.233" height=".529" x="10.318" y="4.762" opacity=".25" ry=".265" style="paint-order:stroke markers fill"/><path fill="#d14444" stroke="#f2f2f2" stroke-linejoin="round" stroke-width=".529" d="M8.229 10.939c-.304.225-.769.959-.914.672-.072-.041-.188-3.331-.03-3.458.139-.11 3.154 1.733 3.011 1.925-.018.197-.704.259-1.056.39l.76 1.258-.944.524z" style="paint-order:stroke fill markers"/></svg>