<svg width="64" height="64" version="1.1" xmlns="http://www.w3.org/2000/svg">
 <defs>
  <clipPath id="clipPath2826">
   <path d="m13.744 10.426v16.797h22.683v-16.797zm18.378 8.6439a6.6153 6.6153 0 0 1 1.1225 0.10807 6.6153 6.6153 0 0 1 1.5064 0.47551v4.9068h-4.3007a1.2296 1.2296 0 0 0-0.99802-1.3608 1.2296 1.2296 0 0 0-0.11418-0.01457v-3.5245a6.6153 6.6153 0 0 1 2.784-0.59063z" fill="#ff0000" opacity=".466" stroke="#000000" stroke-width=".19403"/>
  </clipPath>
 </defs>
 <rect x="6" y="6" width="52" height="52" rx="8" ry="8" fill="#ffe5aa" fill-rule="evenodd" stroke-width=".94546"/>
 <path d="m28.926 25.539c0.59561 0.3436 1.3601 0.13876 1.7038-0.45652 0.34376-0.59542 0.13893-1.3599-0.45641-1.7034-0.59578-0.34424-1.36-0.13949-1.7039 0.45599-0.3438 0.59531-0.13901 1.3596 0.45655 1.7039zm6.3764-5.4421c2.207 1.2742 3.4755 3.6478 3.3112 6.1949 8.4e-5 3.21e-4 0.0015 0.0056 0.0015 0.0056-0.01055 0.15292 0.06495 0.30464 0.19612 0.39624l13.358 7.7183c0.03179 0.01863 0.05962 0.04349 0.08154 0.07338 0.33197 0.45128 0.50005 0.89481 0.58271 1.1871 0.01936 0.06969 0.0099 0.14377-0.02564 0.20608l-0.08128 0.14047-0.50277 0.87034-0.15122 0.26192c-0.03422 0.05943-0.06227 0.0934-0.128 0.11251l-0.70542 0.20638c-0.0018-1.07e-4 -2e-3 8.68e-4 -0.0024 9.83e-4l-0.9905 0.12208c-6.41e-4 1.76e-4 -0.0011 6.41e-4 -0.0014 7.25e-4l-0.8406 0.0174-0.58059-0.09183c-0.10336-0.01704-0.18737-0.09276-0.21463-0.19449 0 0-0.0182-0.06793-0.03203-0.11954-0.08408 0.02276-0.17475 0.04705-0.17475 0.04705-0.06857 0.01837-0.14117 0.0088-0.2024-0.02651-0.06142-0.03564-0.10603-0.09396-0.12435-0.16232 0 0-0.0243-0.09068-0.04701-0.17545-0.10882 0.02916-0.21988 0.05892-0.21988 0.05892-0.06793 0.0182-0.14085 0.0088-0.20243-0.02661l-0.70137-0.40521c-0.0622-0.03555-0.10646-0.09385-0.12475-0.1621l-0.20185-0.75333-0.75275 0.20228c-0.06825 0.01829-0.14069 0.0089-0.20286-0.0265l-0.22669-0.13133c-0.08629-0.04946-0.13709-0.14246-0.13304-0.24154 0 0 0.01309-0.35638 0.02062-0.54932-0.21179-0.1221-1.0526-0.60715-1.1843-0.6832-0.15424 0.02534-0.88002 0.14702-0.88002 0.14702-0.06149 0.01003-0.12412-0.0014-0.17771-0.03266l-2.1492-1.2406c-0.08566-0.04928-0.13706-0.14236-0.13331-0.24124 0 0 0.01061-0.28061 0.01864-0.49059-0.21476 0.0733-0.61093 0.20787-0.61093 0.20787-0.0731 0.02465-0.15338 0.01649-0.21992-0.02193 0 0-0.14387-0.0828-0.23645-0.13642-0.16616 0.03233-1.1248 0.21936-1.1248 0.21936-0.06299 0.01216-0.12862 0.0016-0.18404-0.03097l-2.1376-1.2339c-0.17549-0.10595-0.37157-0.09297-0.51596 0.0176-2.115 1.4488-4.8967 1.5593-7.0992 0.28785-3.1777-1.8346-4.2702-5.9118-2.4356-9.0899 1.834-3.1771 5.9118-4.2698 9.0891-2.4353" fill="#d1d1d1"/>
 <path d="m28.155 24.752c0.2354 0.64607 0.95268 0.98058 1.5986 0.74545 0.64607-0.23515 0.98058-0.95245 0.74526-1.5982-0.23512-0.64667-0.95214-0.98104-1.5984-0.74596-0.64602 0.23505-0.98043 0.95214-0.7455 1.5987zm8.3831-0.07019c0.87163 2.3947 0.3177 5.0283-1.4454 6.8739-1.45e-4 3.05e-4 -0.0024 0.0052-0.0024 0.0052-0.10638 0.11036-0.14606 0.27512-0.10447 0.4296l5.2717 14.499c0.01238 0.0347 0.01771 0.07163 0.01529 0.10863-0.03577 0.55909-0.19212 1.0069-0.31661 1.2839-0.02996 0.06583-0.08485 0.11649-0.15211 0.14139l-0.15257 0.05536-0.9446 0.34356-0.28421 0.10344c-0.06442 0.02353-0.10774 0.03152-0.17038 0.0039l-0.67304-0.29533c-0.0013-0.0012-0.0021-5.88e-4 -0.0025-7.78e-4l-0.83724-0.54314c-6.03e-4 -2.82e-4 -0.0012-2.13e-4 -0.0016-3.58e-4l-0.65511-0.52699-0.38573-0.44355c-0.06823-0.0795-0.08392-0.1915-0.0394-0.28695 0 0 0.02972-0.06374 0.0523-0.11216-0.07904-0.03661-0.16412-0.07628-0.16412-0.07628-0.06434-0.03-0.11383-0.08397-0.13801-0.15041-0.02414-0.06679-0.02083-0.14014 0.0091-0.20428 0 0 0.03967-0.08508 0.07676-0.16463-0.1021-0.04761-0.20631-0.09621-0.20631-0.09621-0.06374-0.02972-0.11353-0.08383-0.13796-0.15051l-0.27681-0.76124c-0.0248-0.06722-0.02123-0.14033 0.0086-0.20437l0.3296-0.70683-0.70666-0.32891c-0.06404-0.02986-0.11352-0.08358-0.13836-0.1507l-0.08924-0.24632c-0.03431-0.09335-0.01344-0.19725 0.05334-0.27055 0 0 0.2391-0.26458 0.36889-0.40755-0.08376-0.22967-0.41604-1.1417-0.46806-1.2846-0.13444-0.07973-0.76862-0.45306-0.76862-0.45306-0.05355-0.03184-0.09421-0.08083-0.11514-0.13925l-0.84899-2.3318c-0.03395-0.09281-0.01349-0.19715 0.05295-0.27049 0 0 0.1885-0.20813 0.32963-0.36383-0.21163-0.08189-0.60162-0.23347-0.60162-0.23347-0.07184-0.02811-0.1281-0.08597-0.15437-0.15816 0 0-0.05699-0.1559-0.09344-0.2565-0.14807-0.08204-1.0026-0.55492-1.0026-0.55492-0.05607-0.03117-0.09954-0.08147-0.12108-0.14202l-0.84441-2.3193c-0.06633-0.19397-0.22488-0.31006-0.40656-0.31817-2.5515-0.24968-4.7534-1.9531-5.6233-4.3428-1.255-3.4479 0.52892-7.2735 3.9769-8.5287 3.4471-1.255 7.2733 0.52918 8.528 3.9766" fill="#e3e3e3"/>
 <rect transform="scale(-1,1)" x="-24.306" y="39.322" width="2.1929" height="2.1929" fill="#e5e5ed"/>
 <rect transform="matrix(-.70879 -.70542 -.70542 .70879 0 0)" x="-45.937" y="10.116" width="1.9873" height="1.6478" fill="#e5e5ed"/>
 <rect transform="matrix(-.7042 .71 .71 .7042 0 0)" x="9.8017" y="43.404" width=".76133" height="3.0433" fill="#e5e5ed" stroke="#737373" stroke-linejoin="round"/>
 <path d="m24.52 41.726-2.5632-2.6078-6.6235 6.5103 2.5632 2.6078zm-9.1838 3.9102c-0.5799 0.58271-0.37337 1.5391 0.3394 2.2571 0.71277 0.71799 1.6382 0.88854 2.2233 0.33731 0.58842-0.57228 0.58757-1.7327-0.1252-2.4507-0.71277-0.71799-1.859-0.72782-2.4374-0.14366z" fill="#717274"/>
 <path d="m29.931 27.354c-3.517 0-6.3724 2.8554-6.3724 6.3724s2.8554 6.3666 6.3724 6.3666 6.3666-2.8496 6.3666-6.3666-2.8496-6.3724-6.3666-6.3724z" fill="#303e73" fill-opacity=".4"/>
 <path d="m29.858 26.487c3.71 0 7.3068 2.9208 7.3068 7.1178s-3.8007 7.319-7.2337 7.3311c-3.3999 0.01206-7.2152-3.0124-7.2152-7.2094-0.03633-4.1623 3.6117-7.1747 7.1421-7.2397zm0.07306 0.86723c-3.517 0-6.3724 2.8554-6.3724 6.3724s2.8554 6.3666 6.3724 6.3666 6.3666-2.8496 6.3666-6.3666-2.8496-6.3724-6.3666-6.3724z" fill="#b3b3b3"/>
 <path d="m26.845 11.456a6.9135 6.9135 0 0 0-6.9135 6.9135 6.9135 6.9135 0 0 0 6.9135 6.9135 6.9135 6.9135 0 0 0 6.9135-6.9135 6.9135 6.9135 0 0 0-6.9135-6.9135zm0 1.3826a5.5308 5.5308 0 0 1 5.5308 5.5308 5.5308 5.5308 0 0 1-5.5308 5.5308 5.5308 5.5308 0 0 1-5.5308-5.5308 5.5308 5.5308 0 0 1 5.5308-5.5308z" clip-path="url(#clipPath2826)" fill="#b3b3b3"/>
</svg>
