<svg xmlns="http://www.w3.org/2000/svg" width="64" height="64"><defs><clipPath id="a"><path fill="red" stroke="#000" stroke-width=".194" d="M13.744 10.426v16.797h22.683V10.426zm18.378 8.644a6.615 6.615 0 0 1 1.123.108 6.615 6.615 0 0 1 1.506.475v4.907h-4.3a1.23 1.23 0 0 0-.999-1.36 1.23 1.23 0 0 0-.114-.015V19.66a6.615 6.615 0 0 1 2.784-.59z" opacity=".466"/></clipPath></defs><rect width="52" height="52" x="6" y="6" fill="#ffe5aa" fill-rule="evenodd" rx="8" ry="8"/><path fill="#d1d1d1" d="M28.926 25.539a1.25 1.25 0 0 0 1.704-.457 1.248 1.248 0 0 0-2.16-1.247 1.25 1.25 0 0 0 .456 1.704zm6.376-5.442a6.616 6.616 0 0 1 3.312 6.195l.001.005a.451.451 0 0 0 .196.397l13.358 7.718a.27.27 0 0 1 .082.073c.332.452.5.895.582 1.187a.27.27 0 0 1-.025.207l-.081.14-.503.87-.151.262c-.035.06-.063.094-.128.113l-.706.206-.002.001-.99.122h-.002l-.84.018-.581-.092a.267.267 0 0 1-.215-.194l-.032-.12-.175.047a.267.267 0 0 1-.327-.188l-.047-.176-.22.06a.268.268 0 0 1-.202-.027l-.701-.406a.265.265 0 0 1-.125-.162l-.202-.753-.753.202a.268.268 0 0 1-.202-.026l-.227-.132a.265.265 0 0 1-.133-.241l.02-.55-1.184-.683-.88.147a.267.267 0 0 1-.178-.032l-2.149-1.241a.267.267 0 0 1-.133-.241l.019-.49-.611.207a.269.269 0 0 1-.22-.022l-.237-.136-1.125.22a.264.264 0 0 1-.184-.032l-2.137-1.234a.449.449 0 0 0-.516.018c-2.115 1.449-4.897 1.56-7.1.288a6.662 6.662 0 0 1-2.435-9.09 6.661 6.661 0 0 1 9.09-2.436"/><path fill="#e3e3e3" d="M28.155 24.752a1.248 1.248 0 1 0 .745-1.599c-.646.235-.98.952-.745 1.599zm8.383-.07a6.616 6.616 0 0 1-1.448 6.879.451.451 0 0 0-.104.43l5.272 14.499a.27.27 0 0 1 .015.108 3.745 3.745 0 0 1-.317 1.284.27.27 0 0 1-.152.141l-.152.056-.945.343-.284.104c-.065.023-.108.031-.17.004l-.674-.296h-.002l-.837-.544h-.002l-.655-.527-.386-.443a.267.267 0 0 1-.04-.287l.053-.113-.164-.076a.266.266 0 0 1-.129-.355l.077-.164-.207-.096a.268.268 0 0 1-.138-.15l-.276-.762a.265.265 0 0 1 .008-.204l.33-.707-.707-.33a.268.268 0 0 1-.138-.15l-.09-.246a.265.265 0 0 1 .054-.27l.369-.408-.468-1.285-.769-.453a.267.267 0 0 1-.115-.14l-.849-2.331a.267.267 0 0 1 .053-.27s.188-.209.33-.364l-.602-.234a.269.269 0 0 1-.154-.158l-.094-.257-1.002-.554a.265.265 0 0 1-.121-.142l-.845-2.32a.449.449 0 0 0-.406-.318c-2.552-.25-4.754-1.953-5.624-4.343a6.662 6.662 0 0 1 3.977-8.528 6.661 6.661 0 0 1 8.528 3.976"/><path fill="#e5e5ed" d="M24.306 39.322h-2.193v2.193h2.193z"/><path fill="#e5e5ed" d="m25.424 39.575-1.409-1.402-1.162 1.168 1.408 1.402z"/><path fill="#e5e5ed" stroke="#737373" stroke-linejoin="round" d="m23.914 37.525-.536.54 2.16 2.143.537-.54z"/><path fill="#717274" d="m24.52 41.726-2.563-2.608-6.624 6.51 2.564 2.608zm-9.184 3.91c-.58.583-.373 1.54.34 2.257.712.718 1.638.889 2.223.338.588-.573.587-1.733-.125-2.451-.713-.718-1.86-.728-2.438-.144z"/><path fill="#303e73" fill-opacity=".4" d="M29.931 27.354c-3.517 0-6.372 2.855-6.372 6.372a6.37 6.37 0 0 0 12.739 0 6.37 6.37 0 0 0-6.367-6.372z"/><path fill="#b3b3b3" d="M29.858 26.487c3.71 0 7.307 2.92 7.307 7.118s-3.8 7.319-7.234 7.33c-3.4.013-7.215-3.012-7.215-7.209-.036-4.162 3.612-7.174 7.142-7.24zm.073.867c-3.517 0-6.372 2.856-6.372 6.373a6.37 6.37 0 0 0 12.739 0 6.37 6.37 0 0 0-6.367-6.373z"/><path fill="#b3b3b3" d="M26.845 11.456a6.913 6.913 0 0 0-6.913 6.913 6.913 6.913 0 0 0 6.913 6.914 6.913 6.913 0 0 0 6.913-6.914 6.913 6.913 0 0 0-6.913-6.913zm0 1.383a5.53 5.53 0 0 1 5.53 5.53 5.53 5.53 0 0 1-5.53 5.531 5.53 5.53 0 0 1-5.53-5.53 5.53 5.53 0 0 1 5.53-5.531z" clip-path="url(#a)"/></svg>