<svg width="64" height="64" version="1.1" viewBox="0 0 16.933 16.933" xmlns="http://www.w3.org/2000/svg">
 <path d="m8.3803 1.3234a7.1436 7.1436 0 1 1 0 14.286 7.1436 7.1436 0 0 1 0-14.286z" fill="#f55"/>
 <g fill="#fff" stroke-width=".938">
  <path d="m9.031 4.233h-1.129v4.234h1.13"/>
  <path d="m7.338 4.375a4.248 4.248 0 0 0-3.105 4.083c0 2.323 1.895 4.242 4.234 4.242 2.338 0 4.233-1.92 4.233-4.242a4.248 4.248 0 0 0-3.104-4.083v1.093a3.225 3.225 0 0 1 2.046 2.99c0 1.782-1.423 3.21-3.175 3.21-1.751 0-3.175-1.429-3.175-3.21a3.2 3.2 0 0 1 2.046-3.007"/>
 </g>
</svg>
