<svg width="64" height="64" version="1.1" viewBox="0 0 16.933 16.933" xmlns="http://www.w3.org/2000/svg">
 <path d="m8.38 1.323a7.144 7.144 0 1 1 0 14.286 7.144 7.144 0 0 1 0-14.286z" fill="#f55"/>
 <path d="m8.9947 4.233h-1.0574v4.2332h1.0583" fill="#ffffff"/>
 <path d="m10.054 4.5526v1.1622a3.225 3.225 0 0 1 1.588 2.7434c0 1.782-1.4229 3.2096-3.1749 3.2096-1.751 0-3.1749-1.4286-3.1749-3.2096a3.2 3.2 0 0 1 1.587-2.7646v-1.1405a4.248 4.248 0 0 0-2.6458 3.9051c0 2.323 1.8948 4.2415 4.2338 4.2415 2.338 0 4.2327-1.9195 4.2327-4.2415a4.248 4.248 0 0 0-2.6458-3.9056z" fill="#ffffff"/>
</svg>
