<svg xmlns="http://www.w3.org/2000/svg" width="64" height="64" viewBox="0 0 16.933 16.933"><g paint-order="markers stroke fill" transform="translate(0 -280.07)"><path fill="#2f8dac" d="M2.381 284.565h12.171c.44 0 .794.354.794.793v8.467c0 .44-.354.794-.794.794H2.382a.792.792 0 0 1-.795-.794v-8.467c0-.44.355-.793.794-.793z"/><rect width="11.113" height="8.731" x="2.91" y="282.45" fill="#fff" stroke="#000" stroke-opacity=".059" stroke-width=".265" rx=".775" ry=".794"/><rect width="11.113" height="8.731" x="2.91" y="282.45" fill="#fff" rx=".775" ry=".794"/><path fill="#26a4ca" d="M15.181 284.878a.788.788 0 0 1 .165.48v8.467c0 .44-.354.794-.794.794H2.382a.788.788 0 0 1-.531-.206z"/><path fill="#49bde3" d="M1.752 284.878a.788.788 0 0 0-.165.48v8.467c0 .44.355.794.794.794h12.171a.79.79 0 0 0 .53-.206z"/></g><path fill="#fff" d="M14.055 9.648c.31.31.31.811 0 1.122l-2.426 2.426a1.056 1.056 0 0 1-1.496 0 1.056 1.056 0 0 1 0-1.497l2.425-2.426.187.187-2.425 2.426a.792.792 0 0 0 0 1.123c.31.31.811.31 1.122 0l2.426-2.426a.528.528 0 1 0-.748-.748l-2.426 2.426a.264.264 0 0 0 0 .374c.104.103.27.103.374 0l2.239-2.239.187.187-2.239 2.239a.528.528 0 1 1-.748-.749l2.426-2.425a.792.792 0 0 1 1.122 0"/></svg>