<svg width="64" height="64" version="1.1" xmlns="http://www.w3.org/2000/svg">
 <path d="M22.265 6.032v33.795h20.798V6.032z" fill="#81bdf8"/>
 <path d="m34.599 19.007a1.9505 1.9505 0 1 0 1e-3 3.901 1.95 1.95 0 0 0-1e-3 -3.9m22.746 11.697a1.3005 1.3005 0 1 0 1e-3 2.601 1.3 1.3 0 0 0 0-2.6m-46.143-7.8a1.9505 1.9505 0 1 0 1e-3 3.901 1.95 1.95 0 0 0-1e-3 -3.9m15.305 1.43a0.88 0.88 0 0 0-0.254 0.07c-0.657 0.29-0.88 1.228-0.015 3.2s2.099 3.338 2.757 3.049 0.488-2.12-0.376-4.092c-0.757-1.726-1.499-2.302-2.112-2.226m-7.783 0.825c-0.514-0.044-1.218 0.467-0.579 1.193 0.851 0.97 1.3 2.696 0.54 3.042-0.762 0.346-0.706-1.287-0.774-2.155-0.066-0.868-2.18-1.391-2.96-0.315s6e-3 2.236 0.778 2.47c0.772 0.235 0.891 1.119 1.35 2.038 0.46 0.919 2.699 0.689 3.245 0s0.885-1.97-0.178-3.15-0.741-2.28-1.029-2.882c-0.071-0.151-0.222-0.227-0.393-0.242m25.338 0.101c-0.69-0.162-0.975 1.138-1.137 2.357s-0.773 2.477-0.245 2.721c0.732 0.325 1.105-1.674 1.932-2.421 0.826-0.749 0.139-2.493-0.551-2.656m-21.812 0.245a1.3 1.3 0 1 0 0 2.6 1.3 1.3 0 0 0 0-2.6m15.795 0.307c-0.845 0.062-1.686 1.503-2.1 2.503-0.473 1.141 0.1 3.366-1.015 4.201-1.113 0.836-1.928 0.86-2.485 0.525s0.477-0.291-0.144-1.564c-0.623-1.272-2.11-0.874-2.5 0.117s0.418 0.947 0.138 1.532c-0.278 0.584-2.646 1.216-3.175-0.539s-2.409-3.664-2.994-3.19 0.07 2.217 1.602 3.609-0.393 2.142-1.724 1.094c-1.33-1.049-2.896 0.797-4.107 2.032-1.213 1.234-2.296 1.318-3.159 0.578-0.861-0.738-0.104-2.747-1.1-4.767-0.994-2.02-2.97-1.014-3.249 0.35s2.496 2.284 1.958 3.042-2.69 0.586-3.324-0.842c-0.633-1.429-2.013-0.966-2.04 0.203-0.028 1.17 1.068 0.353 1.923 1.209l22.097 22.096 22.096-22.095c2.6-2.6-0.377-1.486-0.99-0.901-0.612 0.585-2.506 1.06-2.73 0.418-0.222-0.64 2.122-1.715 2.79-2.44s1.322-2.78 0.241-3.534-2.612 0.607-3.276 1.61c-0.669 1.002-0.089 3.556-0.98 4.336s-1.382 0.305-1.549-0.363 1.924-1.608 1.047-3.27c-0.879-1.663-2.501-0.909-3.252-0.13-0.752 0.78 0.452 1.98 0.732 3.206 0.278 1.226-2.573 1.195-3.687 0.75s-1.476-3.248-1.95-3.415-1.679 0.928-3.211 0.454c-1.531-0.473-0.26-1.416 0.213-2.53s1.22-3.798 0.264-4.22a0.737 0.737 0 0 0-0.36-0.063m13.45-1.607a1.9505 1.9505 0 1 0 2e-3 3.901 1.95 1.95 0 0 0-2e-3 -3.9m-44.843 5.198a1.3 1.3 0 1 0 0 2.6 1.3 1.3 0 0 0 0-2.6" fill="#1b92f4" fill-rule="evenodd" stroke-width=".769"/>
</svg>
