<svg width="64" height="64" version="1.1" viewBox="0 0 64 64" xmlns="http://www.w3.org/2000/svg" xmlns:xlink="http://www.w3.org/1999/xlink">
 <defs>
  <linearGradient id="a" x1="37.2" x2="36.985" y1="56.511" y2="34.977" gradientUnits="userSpaceOnUse">
   <stop offset="0"/>
   <stop stop-opacity="0" offset="1"/>
  </linearGradient>
 </defs>
 <g transform="matrix(1.2998 0 0 1.2998 -498.41 -648.83)">
  <path transform="matrix(2.1053 0 0 2.1053 -451.16 -571.57)" d="m404.57 510.8v12.35h7.6v-12.35z" fill="#81bdf8" stroke-opacity=".55" stroke-width="2.1542"/>
  <g fill-rule="evenodd" stroke-width=".76935">
   <path transform="translate(384.57,499.8)" d="m25.5 14c-0.828 0-1.5 0.672-1.5 1.5s0.672 1.5 1.5 1.5 1.5-0.672 1.5-1.5-0.672-1.5-1.5-1.5m17.5 9c-0.552 0-1 0.448-1 1s0.448 1 1 1 1-0.448 1-1-0.448-1-1-1m-35.5-6c-0.828 0-1.5 0.672-1.5 1.5s0.672 1.5 1.5 1.5 1.5-0.672 1.5-1.5-0.672-1.5-1.5-1.5m11.775 1.1c-0.067 8e-3 -0.132 0.027-0.195 0.055-0.506 0.222-0.677 0.944-0.012 2.461 0.666 1.517 1.615 2.568 2.121 2.346s0.376-1.631-0.289-3.148c-0.582-1.328-1.153-1.771-1.625-1.713m-5.988 0.635c-0.395-0.034-0.937 0.359-0.445 0.918 0.655 0.746 1 2.074 0.416 2.34-0.587 0.266-0.544-0.99-0.596-1.658-0.051-0.668-1.677-1.07-2.277-0.242s4e-3 1.72 0.598 1.9c0.594 0.181 0.686 0.861 1.039 1.568 0.354 0.707 2.076 0.53 2.496 0s0.681-1.515-0.137-2.424-0.57-1.753-0.791-2.217c-0.055-0.116-0.171-0.174-0.303-0.186m19.494 0.078c-0.531-0.125-0.75 0.875-0.875 1.813s-0.594 1.906-0.188 2.094c0.563 0.25 0.85-1.288 1.486-1.863 0.636-0.576 0.107-1.918-0.424-2.043m-16.781 0.188c-0.552 0-1 0.448-1 1s0.448 1 1 1 1-0.448 1-1-0.448-1-1-1m12.152 0.236c-0.65 0.048-1.297 1.157-1.615 1.926-0.364 0.878 0.076 2.59-0.781 3.232-0.857 0.643-1.484 0.661-1.912 0.404s0.367-0.224-0.111-1.203c-0.479-0.979-1.624-0.673-1.924 0.09s0.322 0.728 0.107 1.178c-0.214 0.45-2.036 0.936-2.443-0.414s-1.853-2.819-2.303-2.455 0.054 1.706 1.232 2.777-0.302 1.648-1.326 0.842c-1.024-0.807-2.228 0.613-3.16 1.563-0.933 0.949-1.766 1.014-2.43 0.445-0.663-0.568-0.08-2.114-0.846-3.668-0.765-1.554-2.286-0.78-2.5 0.27s1.92 1.757 1.506 2.34-2.069 0.451-2.557-0.648c-0.487-1.099-1.549-0.743-1.57 0.156-0.021 0.9 0.822 0.272 1.48 0.93l17 17 17-17c2-2-0.29-1.143-0.762-0.693-0.471 0.45-1.928 0.815-2.1 0.322-0.171-0.493 1.632-1.32 2.146-1.877s1.017-2.139 0.186-2.719-2.01 0.467-2.521 1.238c-0.514 0.771-0.068 2.736-0.754 3.336s-1.063 0.235-1.191-0.279c-0.129-0.514 1.48-1.237 0.805-2.516-0.676-1.279-1.924-0.699-2.502-0.1-0.578 0.6 0.348 1.524 0.563 2.467 0.214 0.943-1.979 0.919-2.836 0.576s-1.136-2.498-1.5-2.627-1.292 0.714-2.471 0.35c-1.178-0.364-0.2-1.09 0.164-1.947s0.939-2.922 0.203-3.246c-0.092-0.041-0.185-0.056-0.277-0.049m10.348-1.236c-0.828 0-1.5 0.672-1.5 1.5s0.672 1.5 1.5 1.5 1.5-0.672 1.5-1.5-0.672-1.5-1.5-1.5m-34.5 4c-0.552 0-1 0.448-1 1s0.448 1 1 1 1-0.448 1-1-0.448-1-1-1" fill="#1b92f4"/>
   <path transform="translate(384.57,483.8)" d="m38.498 34.004c-0.828 0-1.5 0.672-1.5 1.5s0.672 1.5 1.5 1.5 1.5-0.672 1.5-1.5-0.672-1.5-1.5-1.5zm-5.7168 0.80859c-0.531-0.125-0.75 0.87645-0.875 1.8145s-0.5935 1.9058-0.1875 2.0938c0.563 0.25 0.84838-1.2883 1.4844-1.8633 0.636-0.576 0.10717-1.918-0.42383-2.043zm7.0137 3.0645c-0.70612 0.08592-1.4644 0.81824-1.8477 1.3965-0.514 0.771-0.06791 2.7359-0.75391 3.3359-0.686 0.6-1.0634 0.2347-1.1914-0.2793-0.129-0.514 1.4797-1.2366 0.80469-2.5156-0.676-1.279-1.924-0.69861-2.502-0.09961-0.578 0.6 0.3475 1.5238 0.5625 2.4668 0.214 0.943-1.9789 0.91917-2.8359 0.57617-0.09162-0.03667-0.17274-0.10238-0.25195-0.17578a17.546 21.501 0 0 1-4.1113 13.752l13.33-13.33c2-2-0.28972-1.1434-0.76172-0.69336-0.471 0.45-1.9276 0.81527-2.0996 0.32226-0.171-0.493 1.6305-1.32 2.1445-1.877s1.0185-2.1407 0.1875-2.7207c-0.20775-0.145-0.43845-0.18684-0.67383-0.1582zm3.2051 1.123c-0.552 0-1 0.448-1 1s0.448 1 1 1 1-0.448 1-1-0.448-1-1-1z" fill="url(#a)" opacity=".15"/>
  </g>
 </g>
</svg>
