<svg xmlns="http://www.w3.org/2000/svg" width="64" height="64"><defs><linearGradient id="a" x1="37.2" x2="36.985" y1="56.511" y2="34.977" gradientUnits="userSpaceOnUse"><stop offset="0"/><stop offset="1" stop-opacity="0"/></linearGradient></defs><path fill="#81bdf8" d="M22.265 6.032v33.795h20.798V6.032z"/><g fill-rule="evenodd" stroke-width=".769"><path fill="#1b92f4" d="M34.599 19.007a1.95 1.95 0 1 0 .001 3.901 1.95 1.95 0 0 0-.001-3.9m22.746 11.697a1.3 1.3 0 1 0 .001 2.601 1.3 1.3 0 0 0 0-2.6m-46.143-7.8a1.95 1.95 0 1 0 .001 3.901 1.95 1.95 0 0 0-.001-3.9m15.305 1.43a.88.88 0 0 0-.254.07c-.657.29-.88 1.228-.015 3.2.865 1.972 2.099 3.338 2.757 3.049s.488-2.12-.376-4.092c-.757-1.726-1.499-2.302-2.112-2.226m-7.783.825c-.514-.044-1.218.467-.579 1.193.851.97 1.3 2.696.54 3.042-.762.346-.706-1.287-.774-2.155-.066-.868-2.18-1.391-2.96-.315s.006 2.236.778 2.47c.772.235.891 1.119 1.35 2.038.46.919 2.699.689 3.245 0s.885-1.97-.178-3.15-.741-2.28-1.029-2.882c-.071-.151-.222-.227-.393-.242m25.338.101c-.69-.162-.975 1.138-1.137 2.357s-.773 2.477-.245 2.721c.732.325 1.105-1.674 1.932-2.421.826-.749.139-2.493-.551-2.656m-21.812.245a1.3 1.3 0 1 0 0 2.6 1.3 1.3 0 0 0 0-2.6m15.795.307c-.845.062-1.686 1.503-2.1 2.503-.473 1.141.1 3.366-1.015 4.201-1.113.836-1.928.86-2.485.525s.477-.291-.144-1.564c-.623-1.272-2.11-.874-2.5.117s.418.947.138 1.532c-.278.584-2.646 1.216-3.175-.539s-2.409-3.664-2.994-3.19.07 2.217 1.602 3.609-.393 2.142-1.724 1.094c-1.33-1.049-2.896.797-4.107 2.032-1.213 1.234-2.296 1.318-3.159.578-.861-.738-.104-2.747-1.1-4.767-.994-2.02-2.97-1.014-3.249.35s2.496 2.284 1.958 3.042-2.69.586-3.324-.842c-.633-1.429-2.013-.966-2.04.203-.028 1.17 1.068.353 1.923 1.209l22.097 22.096L54.743 35.91c2.6-2.6-.377-1.486-.99-.901-.612.585-2.506 1.06-2.73.418-.222-.64 2.122-1.715 2.79-2.44s1.322-2.78.241-3.534-2.612.607-3.276 1.61c-.669 1.002-.089 3.556-.98 4.336s-1.382.305-1.549-.363c-.167-.668 1.924-1.608 1.047-3.27-.879-1.663-2.501-.909-3.252-.13-.752.78.452 1.98.732 3.206.278 1.226-2.573 1.195-3.687.75s-1.476-3.248-1.95-3.415-1.679.928-3.211.454c-1.531-.473-.26-1.416.213-2.53s1.22-3.798.264-4.22a.737.737 0 0 0-.36-.063m13.45-1.607a1.95 1.95 0 1 0 .002 3.901 1.95 1.95 0 0 0-.002-3.9M6.652 29.41a1.3 1.3 0 1 0 0 2.6 1.3 1.3 0 0 0 0-2.6"/><path fill="url(#a)" d="M38.498 34.004a1.5 1.5 0 1 0 .001 3.001 1.5 1.5 0 0 0-.001-3.001zm-5.717.809c-.53-.125-.75.876-.875 1.814s-.593 1.906-.187 2.094c.563.25.848-1.288 1.484-1.863.636-.576.107-1.918-.424-2.043zm7.014 3.064c-.706.086-1.465.818-1.848 1.397-.514.77-.068 2.735-.754 3.335-.686.6-1.063.235-1.191-.279-.13-.514 1.48-1.236.805-2.515-.676-1.28-1.924-.699-2.502-.1-.578.6.347 1.524.562 2.467.214.943-1.979.919-2.836.576a.852.852 0 0 1-.252-.176 17.546 21.501 0 0 1-4.111 13.752l13.33-13.33c2-2-.29-1.143-.762-.693-.47.45-1.927.815-2.1.322-.17-.493 1.631-1.32 2.145-1.877s1.019-2.14.188-2.72a.943.943 0 0 0-.674-.159zM43 39a1 1 0 1 0 0 2 1 1 0 0 0 0-2z" opacity=".15" transform="translate(1.454 -19.987) scale(1.2998)"/></g></svg>