<svg width="64" height="64" version="1.1" viewBox="0 0 16.933 16.933" xmlns="http://www.w3.org/2000/svg">
 <defs>
  <radialGradient id="a" cx="24" cy="24" r="15" gradientTransform="matrix(.31059 0 0 .28989 2.2141 1.3837)" gradientUnits="userSpaceOnUse">
   <stop stop-color="#f2bc4e" offset="0"/>
   <stop stop-color="#f1b741" offset="1"/>
  </radialGradient>
 </defs>
 <g transform="translate(-1.2018 .12556)">
  <path d="m9.6683 1.1973c3.9454 0 7.1436 3.1982 7.1436 7.1436 0 3.9454-3.1982 7.1436-7.1436 7.1436-3.9454 0-7.1436-3.1982-7.1436-7.1436 0-3.9454 3.1982-7.1436 7.1436-7.1436z" fill="#aed2fa" stroke-width=".26458"/>
  <ellipse cx="9.6683" cy="8.3409" rx="4.6589" ry="4.3483" fill="url(#a)"/>
  <path d="m8.338 7.6958c0.19754 0.93488 0.07268 1.7552-0.48328 1.8729-0.55627 0.11896-1.0007-0.57863-1.1983-1.5141-0.19754-0.93488-0.10653-1.748 0.48328-1.8729 0.58981-0.12641 1.0007 0.57863 1.1983 1.5141z" fill="#f2f2f2"/>
  <path d="m13.395 9.8939c-2.1741 2.9037-6.5224 2.1238-7.4542-0.31059 2.1741 1.553 5.2801 1.402 7.4542 0.31059z" fill="#ba6616"/>
  <path d="m10.998 7.6958c-0.19754 0.93488-0.07268 1.7552 0.48328 1.8729 0.55627 0.11896 1.0007-0.57863 1.1983-1.5141 0.19754-0.93488 0.10653-1.748-0.48328-1.8729-0.58981-0.12641-1.0007 0.57863-1.1983 1.5141z" fill="#f2f2f2"/>
  <path d="m8.134 8.0707c0.13169 0.5954 0.04845 1.1169-0.32208 1.1927-0.37085 0.075788-0.66715-0.36805-0.79884-0.96346-0.13169-0.5954-0.07113-1.1122 0.32208-1.1927 0.39321-0.080444 0.66715 0.36805 0.79884 0.96346z" fill="#4d8bd1"/>
  <path d="m11.202 8.0707c-0.13169 0.5954-0.04845 1.1169 0.32208 1.1927 0.37085 0.075788 0.66715-0.36805 0.79884-0.96346 0.13169-0.5954 0.07113-1.1122-0.32208-1.1927-0.39321-0.080444-0.66715 0.36805-0.79884 0.96346z" fill="#4d8bd1"/>
 </g>
</svg>
