<svg width="64" height="64" version="1.1" viewBox="0 0 16.933 16.933" xmlns="http://www.w3.org/2000/svg">
 <defs>
  <radialGradient id="c" cx="4.062" cy="291.63" r="7.276" gradientTransform="matrix(4.9649 0 0 4.9649 -6.927 -1394.3)" gradientUnits="userSpaceOnUse">
   <stop stop-color="#ca564d" stop-opacity=".019" offset="0"/>
   <stop stop-color="#fd5c4f" offset="1"/>
  </radialGradient>
  <radialGradient id="d" cx="4.062" cy="291.63" r="7.276" gradientTransform="matrix(4.9649 0 0 4.9649 41.073 -1387.6)" gradientUnits="userSpaceOnUse">
   <stop stop-color="#ca564d" stop-opacity=".019" offset="0"/>
   <stop stop-color="#f35e4d" offset="1"/>
  </radialGradient>
 </defs>
 <g transform="translate(0 -280.07)" paint-order="stroke markers fill">
  <path d="M1.587 282.977h13.758v11.113H1.587z" fill="#fff" stroke="#000" stroke-opacity=".13725" stroke-width=".265"/>
  <path d="M1.587 282.977h13.758v11.113H1.587z" fill="#fff"/>
  <path d="M2.381 283.771h12.171v9.525H2.381z" fill="#ef746d"/>
  <path transform="matrix(.26458 0 0 .26458 0 280.07)" d="M12.678 26.002A36.125 36.125 0 0 0 9 26.23V50h37.668a36.125 36.125 0 0 0-33.99-23.998z" fill="url(#c)"/>
  <path transform="matrix(.26458 0 0 .26458 0 280.07)" d="M55 33.22A36.125 36.125 0 0 0 29.932 50H55V33.22z" fill="url(#d)"/>
  <circle cx="12.171" cy="286.15" r="1.323" fill="#ffdb8a"/>
 </g>
</svg>
