<?xml version="1.0" encoding="UTF-8" standalone="no"?>
<!-- Created with Inkscape (http://www.inkscape.org/) -->

<svg
   xmlns:dc="http://purl.org/dc/elements/1.1/"
   xmlns:cc="http://creativecommons.org/ns#"
   xmlns:rdf="http://www.w3.org/1999/02/22-rdf-syntax-ns#"
   xmlns:svg="http://www.w3.org/2000/svg"
   xmlns="http://www.w3.org/2000/svg"
   xmlns:sodipodi="http://sodipodi.sourceforge.net/DTD/sodipodi-0.dtd"
   xmlns:inkscape="http://www.inkscape.org/namespaces/inkscape"
   width="64"
   height="64"
   viewBox="0 0 16.933333 16.933333"
   version="1.1"
   id="svg4572"
   inkscape:version="0.92.2 2405546, 2018-03-11"
   sodipodi:docname="kvantum.svg">
  <title
     id="title4611">Canvas icon theme</title>
  <defs
     id="defs4566">
    <clipPath
       clipPathUnits="userSpaceOnUse"
       id="clipPath875">
      <path
         sodipodi:nodetypes="cccccccccscc"
         inkscape:connector-curvature="0"
         id="path877"
         d="m 3.4007663,283.28047 -2.64583324,3.43958 2.64583324,2.11667 v 6.61458 h 9.5249997 v -6.61458 l 2.645834,-2.11667 -2.645834,-3.43958 h -1.587499 c -4e-6,0.87675 -1.4214983,1.5875 -3.1750007,1.5875 -1.753502,0 -3.1749968,-0.71075 -3.175,-1.5875 z"
         style="opacity:1;fill:#ffffff;fill-opacity:1;stroke:#000000;stroke-width:0.52916664;stroke-miterlimit:4;stroke-dasharray:none;stroke-opacity:0.03921569;paint-order:stroke markers fill" />
    </clipPath>
  </defs>
  <sodipodi:namedview
     id="base"
     pagecolor="#ffffff"
     bordercolor="#666666"
     borderopacity="1.0"
     inkscape:pageopacity="0.0"
     inkscape:pageshadow="2"
     inkscape:zoom="7.9195959"
     inkscape:cx="-14.609316"
     inkscape:cy="44.439867"
     inkscape:document-units="px"
     inkscape:current-layer="layer1"
     showgrid="true"
     units="px"
     width="64px"
     showguides="true"
     inkscape:guide-bbox="true"
     inkscape:window-width="1920"
     inkscape:window-height="1022"
     inkscape:window-x="0"
     inkscape:window-y="28"
     inkscape:window-maximized="1"
     inkscape:snap-bbox="true"
     inkscape:bbox-nodes="true"
     inkscape:snap-bbox-edge-midpoints="true">
    <inkscape:grid
       type="xygrid"
       id="grid4582" />
    <sodipodi:guide
       position="1.0583333,15.875"
       orientation="0,1"
       id="guide4584"
       inkscape:locked="false" />
    <sodipodi:guide
       position="1.0583333,1.0583333"
       orientation="1,0"
       id="guide4586"
       inkscape:locked="false" />
    <sodipodi:guide
       position="15.875,15.875"
       orientation="1,0"
       id="guide4588"
       inkscape:locked="false" />
    <sodipodi:guide
       position="1.0583333,1.0583333"
       orientation="0,1"
       id="guide4590"
       inkscape:locked="false" />
    <sodipodi:guide
       position="8.4666665,8.4666665"
       orientation="0,1"
       id="guide822"
       inkscape:locked="false" />
    <sodipodi:guide
       position="8.4666665,8.4666665"
       orientation="1,0"
       id="guide824"
       inkscape:locked="false" />
  </sodipodi:namedview>
  <metadata
     id="metadata4569">
    <rdf:RDF>
      <cc:Work
         rdf:about="">
        <dc:format>image/svg+xml</dc:format>
        <dc:type
           rdf:resource="http://purl.org/dc/dcmitype/StillImage" />
        <dc:title>Canvas icon theme</dc:title>
        <cc:license
           rdf:resource="http://creativecommons.org/licenses/by-nc-sa/4.0/" />
        <dc:creator>
          <cc:Agent>
            <dc:title>Vince Liuice</dc:title>
          </cc:Agent>
        </dc:creator>
      </cc:Work>
      <cc:License
         rdf:about="http://creativecommons.org/licenses/by-nc-sa/4.0/">
        <cc:permits
           rdf:resource="http://creativecommons.org/ns#Reproduction" />
        <cc:permits
           rdf:resource="http://creativecommons.org/ns#Distribution" />
        <cc:requires
           rdf:resource="http://creativecommons.org/ns#Notice" />
        <cc:requires
           rdf:resource="http://creativecommons.org/ns#Attribution" />
        <cc:prohibits
           rdf:resource="http://creativecommons.org/ns#CommercialUse" />
        <cc:permits
           rdf:resource="http://creativecommons.org/ns#DerivativeWorks" />
        <cc:requires
           rdf:resource="http://creativecommons.org/ns#ShareAlike" />
      </cc:License>
    </rdf:RDF>
  </metadata>
  <g
     inkscape:label="Layer 1"
     inkscape:groupmode="layer"
     id="layer1"
     transform="translate(0,-280.06667)">
    <g
       id="g859">
      <path
         sodipodi:nodetypes="cccccccccscc"
         inkscape:connector-curvature="0"
         id="rect821"
         d="m 3.7041667,282.44792 -2.6458334,3.43958 2.6458334,2.11667 v 6.61458 h 9.5249993 v -6.61458 L 15.875,285.8875 13.229166,282.44792 h -1.587499 c -4e-6,0.87675 -1.421498,1.5875 -3.1750004,1.5875 -1.753502,0 -3.1749968,-0.71075 -3.175,-1.5875 z"
         style="opacity:1;fill:#ffffff;fill-opacity:1;stroke:#000000;stroke-width:0.26458332;stroke-miterlimit:4;stroke-dasharray:none;stroke-opacity:0.09803922;paint-order:stroke markers fill" />
      <path
         style="opacity:1;fill:#f9f9f9;fill-opacity:1;stroke:none;stroke-width:0.52916664;stroke-miterlimit:4;stroke-dasharray:none;stroke-opacity:0.03921569;paint-order:stroke markers fill"
         d="m 3.7041667,282.44792 -2.6458334,3.43958 2.6458334,2.11667 v 6.61458 h 9.5249993 v -6.61458 L 15.875,285.8875 13.229166,282.44792 h -1.587499 c -4e-6,0.87675 -1.421498,1.5875 -3.1750004,1.5875 -1.753502,0 -3.1749968,-0.71075 -3.175,-1.5875 z"
         id="path829"
         inkscape:connector-curvature="0"
         sodipodi:nodetypes="cccccccccscc" />
      <path
         id="rect828"
         d="m 11.168827,292.17859 c -0.338163,0 -0.676226,0.12949 -0.935343,0.38861 l -2.0515546,2.05155 H 11.92382 l 0.180351,-0.18035 c 0.518235,-0.51823 0.518235,-1.35297 0,-1.8712 -0.259118,-0.25912 -0.597181,-0.38861 -0.935344,-0.38861 z"
         style="opacity:0.75;fill:#71ffb2;fill-opacity:1;stroke:none;stroke-width:0.68315119;stroke-miterlimit:4;stroke-dasharray:none;stroke-opacity:0.03921569;paint-order:stroke markers fill"
         inkscape:connector-curvature="0" />
      <path
         id="rect832"
         d="m 13.229167,293.03125 -1.5875,1.5875 h 1.5875 z"
         style="opacity:0.75;fill:#ff522c;fill-opacity:1;stroke:none;stroke-width:0.68315119;stroke-miterlimit:4;stroke-dasharray:none;stroke-opacity:0.03921569;paint-order:stroke markers fill"
         inkscape:connector-curvature="0" />
      <path
         id="rect826"
         d="m 10.621057,290.3079 c -0.338163,0 -0.6762256,0.12949 -0.9353434,0.38861 l -3.9222412,3.92224 H 9.504846 L 11.5564,292.5672 c 0.518236,-0.51824 0.518236,-1.35245 0,-1.87069 -0.259117,-0.25912 -0.59718,-0.38861 -0.935343,-0.38861 z"
         style="opacity:0.75;fill:#4997ff;fill-opacity:1;stroke:none;stroke-width:0.68315119;stroke-miterlimit:4;stroke-dasharray:none;stroke-opacity:0.03921569;paint-order:stroke markers fill"
         inkscape:connector-curvature="0" />
      <path
         id="rect830"
         d="m 6.9732178,291.63185 c -0.3381629,0 -0.6762258,0.12949 -0.9353436,0.38861 l -2.3337075,2.33371 v 0.26458 h 3.477307 l 0.7270874,-0.72709 c 0.5182357,-0.51823 0.5182357,-1.35296 0,-1.8712 -0.2591178,-0.25912 -0.5971807,-0.38861 -0.9353433,-0.38861 z"
         style="opacity:0.75;fill:#ff4b20;fill-opacity:1;stroke:none;stroke-width:0.68315119;stroke-miterlimit:4;stroke-dasharray:none;stroke-opacity:0.03921569;paint-order:stroke markers fill"
         inkscape:connector-curvature="0" />
      <path
         id="rect834"
         d="m 4.2710571,292.15999 c -0.1945571,0 -0.3873868,0.0481 -0.5668904,0.13384 v 2.32492 h 1.3027628 l 0.1994709,-0.19947 c 0.5182357,-0.51823 0.5182357,-1.35245 0,-1.87069 -0.2591178,-0.25911 -0.5971804,-0.3886 -0.9353433,-0.3886 z"
         style="opacity:0.75;fill:#ffef4d;fill-opacity:1;stroke:none;stroke-width:0.68315119;stroke-miterlimit:4;stroke-dasharray:none;stroke-opacity:0.03921569;paint-order:stroke markers fill"
         inkscape:connector-curvature="0" />
    </g>
    <path
       inkscape:connector-curvature="0"
       id="rect4491"
       d="m 5.8208331,285.35834 v 0.52917 h 0.529167 l -0.79375,3.70416 h -0.529167 v 0.52917 h 1.852084 v -0.52917 h -0.449792 l 0.291042,-1.5875 h 0.423333 l 0.79375,1.5875 c 0.134345,0.26869 0.370364,0.52917 0.79375,0.52917 h 0.7937502 l 1.8520827,-1.85208 0.529167,-0.79375 v -0.26459 l -0.264583,-0.26458 h -0.264584 l -0.264583,0.26458 v 0.79375 l -1.1906251,1.32292 0.3968751,-2.11667 -0.264583,-0.26458 -1.0583339,0.26458 v 0.26459 h 0.5291672 l -0.264583,2.11666 H 8.9958331 l -1.058333,-2.11666 1.5875002,-1.5875 h 0.5291667 v -0.52917 H 8.2020831 v 0.52917 h 0.608542 l -1.772708,1.85208 h -0.264584 l 0.370417,-1.85208 h 0.529167 v -0.52917 z"
       style="fill:#808080;stroke-width:0.26458332;fill-opacity:1" />
  </g>
</svg>
