<?xml version="1.0" encoding="UTF-8"?>
<svg width="64" height="64" version="1.1" viewBox="0 0 64 64" xmlns="http://www.w3.org/2000/svg" xmlns:cc="http://creativecommons.org/ns#" xmlns:dc="http://purl.org/dc/elements/1.1/" xmlns:rdf="http://www.w3.org/1999/02/22-rdf-syntax-ns#">
 <metadata>
  <rdf:RDF>
   <cc:Work rdf:about="">
    <dc:format>image/svg+xml</dc:format>
    <dc:type rdf:resource="http://purl.org/dc/dcmitype/StillImage"/>
    <dc:title/>
   </cc:Work>
  </rdf:RDF>
 </metadata>
 <g>
  <path d="m32 5c14.912 0 27 12.088 27 27s-12.088 27-27 27-27-12.088-27-27 12.088-27 27-27z" fill="#f9d546" stroke-width="1.1739"/>
  <path d="m29.652 15.565-1.1328 3.3985a13.5 13.5 0 0 0-3.2647 1.3617l-3.2142-1.6071-3.3222 3.3222 1.6047 3.2095a13.5 13.5 0 0 0-1.3477 3.2647l-3.409 1.1375v4.6957l3.3985 1.1328a13.5 13.5 0 0 0 1.3617 3.2647l-1.6071 3.2142 3.3222 3.3222 3.2095-1.6047a13.5 13.5 0 0 0 3.2647 1.3477l1.1375 3.409h4.6957l1.1328-3.3985a13.5 13.5 0 0 0 3.2647-1.3617l3.2142 1.6071 3.3222-3.3222-1.6047-3.2095a13.5 13.5 0 0 0 1.3477-3.2647l3.409-1.1375v-4.6957l-3.3985-1.1328a13.5 13.5 0 0 0-1.3617-3.2647l1.6071-3.2142-3.3222-3.3222-3.2095 1.6047a13.5 13.5 0 0 0-3.2647-1.3477l-1.1375-3.409zm2.3478 7.0435a9.3913 9.3913 0 0 1 9.3913 9.3913 9.3913 9.3913 0 0 1-9.3913 9.3913 9.3913 9.3913 0 0 1-9.3913-9.3913 9.3913 9.3913 0 0 1 9.3913-9.3913z" fill="#b545ab"/>
  <path d="m20.261 21.435h5.8696l5.8696 14.087 5.8696-14.087h5.8696l-8.2174 18.783h-7.0435z" fill="#e44040" fill-rule="evenodd"/>
 </g>
</svg>
