<svg width="64" height="64" version="1.1" viewBox="0 0 64 64" xmlns="http://www.w3.org/2000/svg">
 <g transform="translate(15.591 4.5263)" fill="#000000" opacity=".1"></g>
 <path d="m32 5c14.912 0 27 12.088 27 27s-12.088 27-27 27-27-12.088-27-27 12.088-27 27-27z" fill="#85d95c" stroke-width="1.1739"/>
 <path d="m32 9c12.703 0 23 10.297 23 23s-10.297 23-23 23-23-10.297-23-23 10.297-23 23-23z" fill="#ffffff" opacity=".1"/>
 <path d="m30.709 17.913c-1.8865 0-3.4043 1.5179-3.4043 3.4043v0.23361c0 0.432 0.0857 0.84052 0.23126 1.2197l-4.5677 3.8058a5.2826 5.2826 0 0 0-2.1213-0.44726 5.2826 5.2826 0 0 0-5.2826 5.2826 5.2826 5.2826 0 0 0 5.2826 5.2826 5.2826 5.2826 0 0 0 2.2375-0.50478l4.6522 3.8774c-0.26765 0.5353-0.43317 1.1328-0.43317 1.775v0.27c0 2.2011 1.7726 3.9737 3.9737 3.9737h9.6613c2.2011 0 3.9737-1.7726 3.9737-3.9737v-0.27c0-2.2011-1.7726-3.9737-3.9737-3.9737h-9.6613c-0.87457 0-1.6752 0.28644-2.329 0.7607l-3.6497-4.381a5.2826 5.2826 0 0 0 0.65387-1.4967l2.7153-0.2477c0.40265 1.0765 1.4298 1.843 2.6507 1.843h11.932c1.5719 0 2.8385-1.2667 2.8385-2.8385v-0.19252c0-1.5719-1.2667-2.8385-2.8385-2.8385h-11.932c-1.2197 0-2.248 0.76539-2.6507 1.8407l-2.7129-0.24535a5.2826 5.2826 0 0 0-0.71022-1.5871l3.4807-4.178c0.55996 0.40265 1.2408 0.64683 1.9851 0.64683h10.799c1.8865 0 3.4043-1.5179 3.4043-3.4043v-0.23361c0-1.8865-1.5179-3.4043-3.4043-3.4043h-10.799z" fill="#3c6bbb"/>
 <rect x="28.478" y="19.087" width="15.261" height="4.6957" rx="2.2703" fill="#ffffff"/>
 <rect x="29.652" y="29.652" width="15.261" height="3.5217" rx="1.7022" fill="#ffffff"/>
 <rect x="28.478" y="39.043" width="15.261" height="5.8696" rx="2.8373" fill="#ffffff"/>
 <circle cx="20.848" cy="31.413" r="4.1087" fill="#a2d5ec"/>
</svg>
