<svg xmlns="http://www.w3.org/2000/svg" width="64" height="64"><rect width="52" height="52" x="6" y="6" fill="#00d1e0" rx="8" ry="8"/><path fill="#005293" d="M18 12v40c3.51-2.048 7.488-4.092 11-6.135-.02-1.402.12-3.426 0-4.81-2.29 1.305-4.685 2.66-6.978 3.96-.046-10.503-.031-20.407-.043-30.911C20.777 13.403 19.2 12.7 18 12m7 4.049q-.026 11.67 0 23.34c1.195-.694 2.788-1.39 3.982-2.084.011-4.97.002-9.338.036-14.307 5.487 3.202 9.942 5.777 15.418 9C40.167 34.514 32 39.29 32 39.29l.01 5.025L52 31.998c-9.085-5.361-17.894-10.624-27-15.949m7 12.95v6.143l5.32-3.07-2.66-1.537z"/></svg>