<svg width="64" height="64" version="1.1" xmlns="http://www.w3.org/2000/svg">
 <rect x="6" y="6" width="52" height="52" rx="8" ry="8" fill="#00d1e0" stroke-width="1.41"/>
 <path d="m18 12v40c3.5091-2.0479 7.488-4.092 11-6.1348-0.0202-1.402 0.12009-3.4263 0-4.8105-2.2905 1.3048-4.6854 2.6607-6.9785 3.9609-0.04573-10.504-0.030538-20.408-0.042968-30.912-1.2016-0.70078-2.7771-1.4024-3.9785-2.1035zm7 4.0488c-0.01749 7.7797-0.01739 15.56 0 23.34 1.1947-0.69417 2.7879-1.3895 3.9824-2.084 0.0107-4.969 0.0013-9.3377 0.03516-14.307 5.4874 3.2027 9.9424 5.7773 15.418 9-4.2681 2.5163-12.436 7.293-12.436 7.293l0.0098 5.0254 19.99-12.318c-9.0845-5.3612-17.893-10.624-27-15.949zm7 12.951v6.1426l5.3203-3.0703-2.6602-1.5371z" fill="#005293" stroke-width="1.4286"/>
</svg>
