<svg width="64" height="64" version="1.1" xmlns="http://www.w3.org/2000/svg" xmlns:xlink="http://www.w3.org/1999/xlink">
 <g transform="matrix(1.35 0 0 1.35 -519.57 -675.13)" stroke-width=".74074">
  <rect x="388.57" y="503.8" width="40" height="40" rx="3" ry="3" fill="#e6e6e6"/>
  <path d="m408.7 510.8c-1.3207 0-2.3163 0.56972-2.3171 1.3245v0.95896c-0.0201 4.6e-4 -0.041 7e-3 -0.0602 0.016l-1.4968 0.76472c-0.0641 0.0329-0.11741 0.078-0.16143 0.12847-0.37923-0.15446-0.8465-0.24624-1.3694-0.24624-1.32 0-2.3155 0.5682-2.3155 1.323v0.81672c-0.0834 2e-3 -0.16683 0.0176-0.24407 0.0596l-2.8585 1.5371c-0.0989 0.0528-0.16529 0.13536-0.21394 0.22712-0.0139 0.0207-0.0225 0.0405-0.0332 0.0627-9e-3 0.026-0.0155 0.0512-0.0208 0.078-0.0155 0.0504-0.041 0.0979-0.041 0.15218v12.46c0 0.195 0.10658 0.37547 0.27882 0.47182l10.395 5.7936c7e-3 4e-3 0.0155 3e-3 0.0224 7e-3 0.0704 0.0352 0.14596 0.0551 0.2232 0.0581 4.7e-4 0 0.0147 7e-3 0.0224 7e-3 0.0687 0 0.13207-0.0291 0.19617-0.0535 0.0232-9e-3 0.0502-5e-3 0.0726-0.0175l3e-3 -2e-3c2e-3 -9e-5 3e-3 -9e-5 5e-3 -2e-3 2e-3 -8e-5 2e-3 -3e-3 3e-3 -3e-3l10.489-5.8311c0.17301-0.0956 0.27882-0.27684 0.27882-0.47184l0.0108-12.392c0-0.19195-0.10195-0.37089-0.27032-0.46724-0.0178-0.0107-0.0402-8e-3 -0.0587-0.0161-0.0247-0.0191-0.0425-0.0428-0.071-0.058l-2.86-1.5371c-0.0123-7e-3 -0.0255-6e-3 -0.0379-0.0122v-0.87408c0-0.75555-0.99557-1.3245-2.3155-1.3245-0.56073 0-1.0558 0.1063-1.4482 0.28219-0.027-0.0214-0.0494-0.0474-0.0811-0.0643l-1.3608-0.69629c-0.0155-4.5e-4 -0.0324-7e-3 -0.0486-0.0137v-1.1203c0-0.75555-0.99556-1.3245-2.3155-1.3245m-1.4968 2.3424c0.39931 0.18963 0.91216 0.30435 1.4968 0.30435 0.5839 0 1.096-0.11548 1.4953-0.30435v1.5012c0 0.15677-0.56458 0.51236-1.4953 0.51236s-1.4968-0.35559-1.4968-0.51236v-1.5012m-0.82101 1.1455v0.35561c0 0.75478 0.99634 1.323 2.3171 1.323 1.3215 0 2.3163-0.56819 2.3155-1.323v-0.19119l0.665 0.34031c-0.0286 0.0864-0.044 0.17588-0.044 0.26918v2.5182c0 0.75478 0.99634 1.323 2.3171 1.323 1.3207 0 2.3163-0.56819 2.3155-1.323v-0.42137l1.6219 0.87409-9.3787 5.1994-9.2992-5.2322 1.7695-0.95284v0.54219c0 0.75478 0.99557 1.3245 2.3155 1.3245 1.32 0 2.3155-0.56972 2.3155-1.3245v-2.5182c0-0.1216-0.034-0.2363-0.0826-0.34642l0.855-0.4359m6.0746 1.791c0.39854 0.18966 0.91215 0.30589 1.4968 0.30589 0.58389 0 1.096-0.117 1.4953-0.30589v1.5012c0 0.14835-0.52366 0.51084-1.4953 0.51084-0.9307 0-1.4968-0.35407-1.4968-0.51084v-1.5012m-10.659 9e-3c0.3993 0.18966 0.91215 0.3059 1.4968 0.3059 0.58313 0 1.096-0.11548 1.4953-0.30436v1.4996c0 0.14835-0.52366 0.51236-1.4953 0.51236-0.97161 0-1.4968-0.36401-1.4968-0.51236v-1.5012m6.867 0.55137c-1.32 0-2.3171 0.56972-2.3171 1.3245v2.5182c0 0.75478 0.99711 1.3245 2.3171 1.3245 1.32 0 2.314-0.56973 2.314-1.3245v-2.5182c0-0.75478-0.99403-1.3245-2.314-1.3245m-1.4968 2.3416c0.3993 0.18966 0.91215 0.30589 1.4968 0.30589 0.58313 0 1.0952-0.11547 1.4937-0.30436v1.4996c0 0.14836-0.52211 0.51237-1.4937 0.51237-0.93069 0-1.4968-0.35559-1.4968-0.51237v-1.5012" fill="#df3c3c"/>
 </g>
</svg>
