<svg xmlns="http://www.w3.org/2000/svg" width="64" height="64" viewBox="0 0 16.933 16.933"><g paint-order="markers stroke fill" transform="translate(0 -280.07)"><rect width="12.7" height="13.758" x="2.117" y="281.65" fill="#4caf50" rx="2.117" ry="2.117"/><path fill="#fff" d="M4.233 282.716c-.586 0-1.058.472-1.058 1.058v9.525c0 .586.472 1.058 1.058 1.058H12.7c.586 0 1.058-.472 1.058-1.058v-6.35l-4.233-4.233zm6.879 0 2.646 2.645v-1.587c0-.586-.472-1.058-1.058-1.058z"/></g><rect width="6.879" height="4.498" x="5.027" y="7.673" fill="#ccc" rx="0" ry="0" style="paint-order:markers stroke fill"/><rect width="1.587" height=".794" x="5.556" y="9.525" fill="#fff" rx="0" ry="0" style="paint-order:markers stroke fill"/><rect width="1.587" height=".794" x="7.673" y="9.525" fill="#fff" rx="0" ry="0" style="paint-order:markers stroke fill"/><rect width="1.587" height=".794" x="9.79" y="9.525" fill="#fff" rx="0" ry="0" style="paint-order:markers stroke fill"/><rect width="1.587" height=".794" x="5.556" y="10.848" fill="#fff" rx="0" ry="0" style="paint-order:markers stroke fill"/><rect width="1.587" height=".794" x="7.673" y="10.848" fill="#fff" rx="0" ry="0" style="paint-order:markers stroke fill"/><rect width="1.587" height=".794" x="9.79" y="10.848" fill="#fff" rx="0" ry="0" style="paint-order:markers stroke fill"/><rect width="1.587" height=".794" x="5.556" y="8.202" fill="#fff" rx="0" ry="0" style="paint-order:markers stroke fill"/><rect width="1.587" height=".794" x="7.673" y="8.202" fill="#fff" rx="0" ry="0" style="paint-order:markers stroke fill"/><rect width="1.587" height=".794" x="9.79" y="8.202" fill="#fff" rx="0" ry="0" style="paint-order:markers stroke fill"/></svg>