<svg width="64" height="64" fill="none" version="1.1" viewBox="0 0 64 64" xmlns="http://www.w3.org/2000/svg">
 <rect x="6" y="6" width="52" height="52" rx="8" ry="8" fill="#f2f2f2" fill-rule="evenodd" stop-color="#000000" stroke-linecap="round" stroke-linejoin="round" stroke-width="1.8909" style="paint-order:stroke fill markers"/>
 <rect x="22.182" y="29.546" width="27.818" height="4.9091" fill="#4D4D4D"/>
 <circle cx="32" cy="32" r="16.136" stroke="#8ED900" stroke-width="7"/>
 <rect x="12.364" y="27.091" width="9.8182" height="9.8182" fill="#4D4D4D"/>
 <rect x="9" y="9" width="8" height="8" rx="3" ry="3" fill="#8ed900" fill-rule="evenodd" stop-color="#000000" stroke-linecap="round" stroke-linejoin="round" stroke-width="2" style="paint-order:stroke fill markers"/>
 <rect x="11" y="11" width="4" height="4" rx="1" ry="1" fill="#4d4d4d" fill-rule="evenodd" stop-color="#000000" stroke-linecap="round" stroke-linejoin="round" style="paint-order:stroke fill markers"/>
 <rect x="47" y="9" width="8" height="8" rx="3" ry="3" fill="#8ed900" fill-rule="evenodd" stop-color="#000000" stroke-linecap="round" stroke-linejoin="round" stroke-width="2" style="paint-order:stroke fill markers"/>
 <rect x="49" y="11" width="4" height="4" rx="1" ry="1" fill="#4d4d4d" fill-rule="evenodd" stop-color="#000000" stroke-linecap="round" stroke-linejoin="round" style="paint-order:stroke fill markers"/>
 <rect x="9" y="47" width="8" height="8" rx="3" ry="3" fill="#8ed900" fill-rule="evenodd" stop-color="#000000" stroke-linecap="round" stroke-linejoin="round" stroke-width="2" style="paint-order:stroke fill markers"/>
 <rect x="11" y="49" width="4" height="4" rx="1" ry="1" fill="#4d4d4d" fill-rule="evenodd" stop-color="#000000" stroke-linecap="round" stroke-linejoin="round" style="paint-order:stroke fill markers"/>
 <rect x="47" y="47" width="8" height="8" rx="3" ry="3" fill="#8ed900" fill-rule="evenodd" stop-color="#000000" stroke-linecap="round" stroke-linejoin="round" stroke-width="2" style="paint-order:stroke fill markers"/>
 <rect x="49" y="49" width="4" height="4" rx="1" ry="1" fill="#4d4d4d" fill-rule="evenodd" stop-color="#000000" stroke-linecap="round" stroke-linejoin="round" style="paint-order:stroke fill markers"/>
</svg>
