<svg xmlns="http://www.w3.org/2000/svg" width="64" height="64" viewBox="0 0 16.933 16.933"><g paint-order="markers stroke fill" transform="translate(0 -280.07)"><rect width="12.7" height="13.758" x="2.117" y="281.65" fill="#009688" rx="2.117" ry="2.117"/><path fill="#fff" d="M4.233 282.716c-.586 0-1.058.472-1.058 1.058v9.525c0 .586.472 1.058 1.058 1.058H12.7c.586 0 1.058-.472 1.058-1.058v-6.35l-4.233-4.233zm6.879 0 2.646 2.645v-1.587c0-.586-.472-1.058-1.058-1.058z"/></g><g fill="#ccc" style="paint-order:markers stroke fill"><g transform="translate(-.265 -280.6)"><rect width="3.44" height=".529" x="5.292" y="290.39" rx="0" ry="0"/><circle cx="7.011" cy="289.59" r=".397"/><circle cx="7.011" cy="291.84" r=".397"/></g><g transform="translate(.132 -280.6)"><rect width="3.44" height=".529" x="211.25" y="197.81" rx="0" ry="0" transform="rotate(45)"/><rect width="3.44" height=".529" x="196.35" y="212.7" rx="0" ry="0" transform="scale(-1 1) rotate(45)"/></g></g></svg>