<svg xmlns="http://www.w3.org/2000/svg" xmlns:xlink="http://www.w3.org/1999/xlink" width="64" height="64" viewBox="0 0 16.933 16.933"><defs><linearGradient id="a"><stop offset="0"/><stop offset="1" stop-opacity="0"/></linearGradient><linearGradient xlink:href="#a" id="b" x1="46.829" y1="58" x2="46.829" y2="6" gradientUnits="userSpaceOnUse"/></defs><g transform="translate(0 -280.067)" paint-order="markers stroke fill"><rect width="12.7" height="13.758" x="2.117" y="281.654" rx=".529" ry=".529" fill="#009688"/><path d="M3.44 282.713a.264.264 0 0 0-.265.264v11.113c0 .146.118.264.265.264h10.054a.264.264 0 0 0 .264-.264v-7.144l-4.233-4.233H3.44zm7.672 0l2.646 2.645v-2.38a.264.264 0 0 0-.264-.265h-2.382z" fill="#fff"/><path d="M50.102 6A52.5 52.5 0 0 1 52.5 21.5 52.5 52.5 0 0 1 37.658 58H54c1.108 0 2-.892 2-2V8c0-1.108-.892-2-2-2h-3.898z" transform="matrix(.26458 0 0 .26458 0 280.067)" opacity=".25" fill="url(#b)"/><g fill="#ccc"><g transform="translate(-.265 -.53)"><rect width="3.44" height=".529" x="5.292" y="290.385" rx="0" ry="0"/><circle cx="7.011" cy="289.592" r=".397"/><circle r=".397" cy="291.841" cx="7.011"/></g><g transform="translate(.132 -.53)"><rect ry="0" rx="0" y="197.809" x="211.248" height=".529" width="3.44" transform="rotate(45)"/><rect transform="scale(-1 1) rotate(45)" width="3.44" height=".529" x="196.354" y="212.703" rx="0" ry="0"/></g></g></g></svg>