<svg width="64" height="64" version="1.1" viewBox="0 0 16.933 16.933" xmlns="http://www.w3.org/2000/svg" xmlns:xlink="http://www.w3.org/1999/xlink">
 <g transform="translate(-1.0589e-8 -280.07)" paint-order="markers stroke fill">
  <rect x="2.117" y="281.65" width="12.7" height="13.758" rx="2.1172" ry="2.1172" fill="#f9ce1d"/>
  <path transform="matrix(.26458 0 0 .26458 0 280.07)" d="m16 10c-2.216 0-4 1.784-4 4v36c0 2.216 1.784 4 4 4h32c2.216 0 4-1.784 4-4v-24l-16-16zm25.998 0 10.002 9.998v-5.998c0-2.216-1.784-4-4-4z" fill="#ffffff" stroke-width="3.7796"/>
 </g>
 <path d="m10.72 7.329c-0.136-0.046-0.302-0.07-0.457 0.017-0.26 0.145-0.353 0.432-0.353 0.694 0 0.261 0.066 0.534 0.126 0.795 0.06 0.262 0.112 0.513 0.11 0.69-1e-3 0.179-0.026 0.247-0.134 0.301-0.086 0.044-0.14 0.047-0.194 0.036a0.45 0.45 0 0 1-0.194-0.109c-0.15-0.129-0.322-0.373-0.517-0.636s-0.417-0.546-0.716-0.747a1.422 1.422 0 0 0-1.133-0.205h-9e-3c-0.29 0.078-0.507 0.298-0.658 0.569-0.15 0.27-0.244 0.598-0.29 0.947-6e-3 0.055 7e-3 0.113 3e-3 0.17-0.101-7e-3 -0.187-0.042-0.29-0.044l-0.498-0.012-0.215-5e-3 -0.01 0.43 0.215 5e-3 0.5 0.011c0.11 5e-3 0.194 0.037 0.302 0.046 0.013 0.517 0.093 1.033 0.34 1.43l4e-3 7e-3 5e-3 6e-3c0.382 0.524 1.034 0.676 1.519 0.488a0.818 0.818 0 0 0 0.514-0.567c0.064-0.274-0.013-0.594-0.237-0.94-0.213-0.33-0.58-0.542-1.007-0.682-0.214-0.07-0.474-0.073-0.715-0.109 4e-3 -0.06-0.01-0.121-3e-3 -0.18 0.04-0.306 0.124-0.587 0.239-0.792 0.113-0.204 0.248-0.321 0.391-0.361a0.943 0.943 0 0 1 0.793 0.143c0.223 0.15 0.423 0.392 0.611 0.646 0.188 0.253 0.36 0.516 0.582 0.706 0.11 0.095 0.238 0.174 0.389 0.204a0.73 0.73 0 0 0 0.472-0.074c0.266-0.133 0.368-0.42 0.371-0.679s-0.062-0.529-0.122-0.79c-0.06-0.263-0.115-0.516-0.115-0.7 0-0.183 0.029-0.261 0.133-0.32 2e-3 0 0.036-0.01 0.112 0.015 0.075 0.026 0.174 0.08 0.266 0.143 0.184 0.125 0.339 0.274 0.339 0.274l0.153 0.15 0.3-0.307-0.154-0.15s-0.174-0.17-0.397-0.322a1.547 1.547 0 0 0-0.37-0.195zm-3.983 3.02c0.192 0.03 0.412 0.032 0.575 0.085 0.372 0.122 0.646 0.3 0.78 0.508 0.183 0.282 0.209 0.483 0.18 0.61-0.03 0.126-0.112 0.209-0.252 0.263-0.277 0.107-0.746 0.02-1.01-0.338-0.175-0.284-0.249-0.7-0.273-1.129z" color="#000000" fill="#cccccc" fill-rule="evenodd" font-family="sans-serif" font-weight="400" overflow="visible" solid-color="#000000" style="isolation:auto;mix-blend-mode:normal;text-decoration-color:#000000;text-decoration-line:none;text-decoration-style:solid;text-indent:0;text-transform:none;white-space:normal"/>
</svg>
