<svg width="64" height="64" version="1.1" viewBox="0 0 64 64" xmlns="http://www.w3.org/2000/svg">
 <g transform="matrix(1.1739 0 0 1.1739 3.8261 3.8261)">
  <circle cx="24" cy="24" r="23" fill="#26a6e4"/>
  <path d="m24 9c-8.2843 0-15 6.7157-15 15s6.7157 15 15 15 15-6.7157 15-15-6.7157-15-15-15zm0 2c7.1797 0 13 5.8203 13 13-0.0074 6.0113-4.1353 11.234-9.9824 12.629-0.017578-3.6289 1.9824-5.6289 1.9824-6.6289v-3s3-5 5-7c0-2-1-1.3945-1-1.3945v-0.60547l-1 1s1-3-1-4c-2 1-4 3-4 3h-2l-3 2c-2 0-4 0-5 1s2 3 2 3l-4 7-1.4414 0.7207c-1.6567-2.2336-2.5535-4.9397-2.5586-7.7207 0-7.1797 5.8203-13 13-13zm1 8h2l-2 1h-1z" fill="#d8eff6"/>
 </g>
</svg>
