<svg xmlns="http://www.w3.org/2000/svg" xmlns:xlink="http://www.w3.org/1999/xlink" width="64" height="64" viewBox="0 0 16.933 16.933"><defs><linearGradient id="a"><stop offset="0"/><stop offset="1" stop-opacity="0"/></linearGradient><linearGradient xlink:href="#a" id="b" x1="46.829" y1="58" x2="46.829" y2="6" gradientUnits="userSpaceOnUse"/></defs><g transform="translate(0 -280.067)" paint-order="markers stroke fill"><rect width="12.7" height="13.758" x="2.117" y="281.654" rx=".529" ry=".529" fill="#e91e63"/><path d="M3.44 282.713a.264.264 0 0 0-.265.264v11.113c0 .146.118.264.265.264h10.054a.264.264 0 0 0 .264-.264v-7.144l-4.233-4.233H3.44zm7.672 0l2.646 2.645v-2.38a.264.264 0 0 0-.264-.265h-2.382z" fill="#fff"/><path d="M50.102 6A52.5 52.5 0 0 1 52.5 21.5 52.5 52.5 0 0 1 37.658 58H54c1.108 0 2-.892 2-2V8c0-1.108-.892-2-2-2h-3.898z" transform="matrix(.26458 0 0 .26458 0 280.067)" opacity=".25" fill="url(#b)"/><path d="M5.027 287.475v1.058h6.88v-1.058h-6.88zm.265.265h6.35v.529h-6.35v-.53zm-.265 1.323v1.058h6.88v-1.058h-6.88zm.265.264h6.35v.53h-6.35v-.53zm-.265 1.323v1.058h6.88v-1.058h-6.88zm.265.265h6.35v.529h-6.35v-.53z" fill="#ccc"/></g></svg>