<svg width="64" height="64" version="1.1" viewBox="0 0 16.933 16.933" xmlns="http://www.w3.org/2000/svg" xmlns:xlink="http://www.w3.org/1999/xlink">
 <g transform="translate(-1.0589e-8 -280.07)" paint-order="markers stroke fill">
  <rect x="2.117" y="281.65" width="12.7" height="13.758" rx="2.1172" ry="2.1172" fill="#e91e63"/>
  <path transform="matrix(.26458 0 0 .26458 0 280.07)" d="m16 10c-2.216 0-4 1.784-4 4v36c0 2.216 1.784 4 4 4h32c2.216 0 4-1.784 4-4v-24l-16-16zm25.998 0 10.002 9.998v-5.998c0-2.216-1.784-4-4-4z" fill="#ffffff" stroke-width="3.7796"/>
 </g>
 <path d="m5.027 7.408v1.058h6.88v-1.058zm0.265 0.265h6.35v0.529h-6.35v-0.53zm-0.265 1.323v1.058h6.88v-1.058zm0.265 0.264h6.35v0.53h-6.35zm-0.265 1.323v1.058h6.88v-1.058zm0.265 0.265h6.35v0.529h-6.35v-0.53z" fill="#cccccc" style="paint-order:markers stroke fill"/>
</svg>
