<svg width="64" height="64" version="1.1" viewBox="0 0 16.933 16.933" xmlns="http://www.w3.org/2000/svg" xmlns:xlink="http://www.w3.org/1999/xlink">
 <g transform="translate(-1.0589e-8 -280.07)" paint-order="markers stroke fill">
  <rect x="2.117" y="281.65" width="12.7" height="13.758" rx="2.1172" ry="2.1172" fill="#4caf50"/>
  <path transform="matrix(.26458 0 0 .26458 0 280.07)" d="m16 10c-2.216 0-4 1.784-4 4v36c0 2.216 1.784 4 4 4h32c2.216 0 4-1.784 4-4v-24l-16-16zm25.998 0 10.002 9.998v-5.998c0-2.216-1.784-4-4-4z" fill="#ffffff" stroke-width="3.7796"/>
 </g>
 <rect x="5.027" y="7.673" width="6.879" height="4.498" rx="0" ry="0" fill="#cccccc" style="paint-order:markers stroke fill"/>
 <rect x="5.556" y="9.525" width="1.587" height=".794" rx="0" ry="0" fill="#ffffff" style="paint-order:markers stroke fill"/>
 <rect x="7.673" y="9.525" width="1.587" height=".794" rx="0" ry="0" fill="#ffffff" style="paint-order:markers stroke fill"/>
 <rect x="9.79" y="9.525" width="1.587" height=".794" rx="0" ry="0" fill="#ffffff" style="paint-order:markers stroke fill"/>
 <rect x="5.556" y="10.848" width="1.587" height=".794" rx="0" ry="0" fill="#ffffff" style="paint-order:markers stroke fill"/>
 <rect x="7.673" y="10.848" width="1.587" height=".794" rx="0" ry="0" fill="#ffffff" style="paint-order:markers stroke fill"/>
 <rect x="9.79" y="10.848" width="1.587" height=".794" rx="0" ry="0" fill="#ffffff" style="paint-order:markers stroke fill"/>
 <rect x="5.556" y="8.202" width="1.587" height=".794" rx="0" ry="0" fill="#ffffff" style="paint-order:markers stroke fill"/>
 <rect x="7.673" y="8.202" width="1.587" height=".794" rx="0" ry="0" fill="#ffffff" style="paint-order:markers stroke fill"/>
 <rect x="9.79" y="8.202" width="1.587" height=".794" rx="0" ry="0" fill="#ffffff" style="paint-order:markers stroke fill"/>
</svg>
