<svg width="64" height="64" version="1.1" viewBox="0 0 16.933 16.933" xmlns="http://www.w3.org/2000/svg" xmlns:xlink="http://www.w3.org/1999/xlink">
 <g transform="translate(-1.0589e-8 -280.07)" paint-order="markers stroke fill">
  <rect x="2.117" y="281.65" width="12.7" height="13.758" rx="2.1172" ry="2.1172" fill="#009688"/>
  <path transform="matrix(.26458 0 0 .26458 0 280.07)" d="m16 10c-2.216 0-4 1.784-4 4v36c0 2.216 1.784 4 4 4h32c2.216 0 4-1.784 4-4v-24l-16-16zm25.998 0 10.002 9.998v-5.998c0-2.216-1.784-4-4-4z" fill="#ffffff" stroke-width="3.7796"/>
 </g>
 <g transform="translate(0 -280.07)" fill="#cccccc" style="paint-order:markers stroke fill">
  <g transform="translate(-.265 -.53)">
   <rect x="5.292" y="290.39" width="3.44" height=".529" rx="0" ry="0"/>
   <circle cx="7.011" cy="289.59" r=".397"/>
   <circle cx="7.011" cy="291.84" r=".397"/>
  </g>
  <g transform="translate(.132 -.53)">
   <rect transform="rotate(45)" x="211.25" y="197.81" width="3.44" height=".529" rx="0" ry="0"/>
   <rect transform="matrix(-.70711 .70711 .70711 .70711 0 0)" x="196.35" y="212.7" width="3.44" height=".529" rx="0" ry="0"/>
  </g>
 </g>
</svg>
