<svg width="64" height="64" version="1.1" viewBox="0 0 16.933 16.933" xmlns="http://www.w3.org/2000/svg" xmlns:xlink="http://www.w3.org/1999/xlink">
 <defs>
  <linearGradient id="b" x1="46.829" x2="46.829" y1="58" y2="6" gradientTransform="scale(.26458)" gradientUnits="userSpaceOnUse">
   <stop offset="0"/>
   <stop stop-opacity="0" offset="1"/>
  </linearGradient>
  <clipPath id="j">
   <circle transform="translate(-123,-1753.6)" cx="3231.5" cy="891.5" r="6.5" color="#000000" fill="#00a0fc"/>
  </clipPath>
 </defs>
 <rect x="2.117" y="1.587" width="12.7" height="13.758" rx=".529" ry=".529" fill="#4d4d4d" style="paint-order:markers stroke fill"/>
 <path d="m3.44 2.646a0.264 0.264 0 0 0-0.265 0.264v11.113c0 0.146 0.118 0.264 0.265 0.264h10.054a0.264 0.264 0 0 0 0.264-0.264v-7.144l-4.233-4.233zm7.672 0 2.646 2.645v-2.38a0.264 0.264 0 0 0-0.264-0.265z" fill="#fff" style="paint-order:markers stroke fill"/>
 <path d="m13.256 1.5875a13.89 13.89 0 0 1 0.63446 4.101 13.89 13.89 0 0 1-3.9269 9.6572h4.3238c0.29316 0 0.52916-0.236 0.52916-0.52916v-12.7c0-0.29315-0.236-0.52916-0.52916-0.52916z" fill="url(#b)" opacity=".25" stroke-width=".26458" style="paint-order:markers stroke fill"/>
 <circle cx="8.4665" cy="8.4665" r="2.6458" fill="#ccc"/>
 <g transform="matrix(.40347 0 0 .40347 -1245.7 356.3)" clip-path="url(#j)" fill="none" stroke="#fff" stroke-linecap="round">
  <path transform="matrix(.45376 0 0 .45376 1718.5 -369.97)" d="m3068.2-1099.5c-15.829 5.5755-16.196 20.815-12.408 27.526" clip-path="none" stroke-width="1.7906px"/>
  <g stroke-width=".8125px">
   <path d="m3116-861.64c-3.5797-6.7212-10.441-5.8475-13.194-3.6913" clip-path="none"/>
   <path d="m3104.6-857.04c1.6682-7.43 8.5163-8.4074 11.742-7.0587" clip-path="none"/>
   <path d="m3108-854.37c0.6679-5.7803 5.5626-7.045 8-6.2643" clip-path="none"/>
   <path d="m3111-855.64c1.9186-7.3693-3.7212-11.374-7.2069-11.652" clip-path="none"/>
   <path d="m3101.4-861.11c4.6342 6.0426 11.259 4.0548 13.621 1.476" clip-path="none"/>
  </g>
 </g>
</svg>
