<svg xmlns="http://www.w3.org/2000/svg" width="64" height="64" viewBox="0 0 16.933 16.933"><defs><clipPath id="a"><circle cx="3231.5" cy="891.5" r="6.5" fill="#00a0fc" color="#000" transform="translate(-123 -1753.6)"/></clipPath></defs><g paint-order="markers stroke fill" transform="translate(0 -280.07)"><rect width="12.7" height="13.758" x="2.117" y="281.65" fill="#4d4d4d" rx="2.117" ry="2.117"/><path fill="#fff" d="M4.233 282.716c-.586 0-1.058.472-1.058 1.058v9.525c0 .586.472 1.058 1.058 1.058H12.7c.586 0 1.058-.472 1.058-1.058v-6.35l-4.233-4.233zm6.879 0 2.646 2.645v-1.587c0-.586-.472-1.058-1.058-1.058z"/></g><circle cx="8.466" cy="8.466" r="2.646" fill="#ccc"/><g fill="none" stroke="#fff" stroke-linecap="round" stroke-width=".813" clip-path="url(#a)" transform="translate(-1245.7 356.3)scale(.40347)"><path d="M3110.726-868.88c-7.182 2.53-7.349 9.446-5.63 12.491" clip-path="none"/><path d="M3116-861.64c-3.58-6.721-10.441-5.848-13.194-3.691"/><path d="M3104.6-857.04c1.668-7.43 8.516-8.407 11.742-7.059M3108-854.37c.668-5.78 5.563-7.045 8-6.264"/><path d="M3111-855.64c1.919-7.37-3.721-11.374-7.207-11.652"/><path d="M3101.4-861.11c4.634 6.043 11.259 4.055 13.621 1.476"/></g></svg>