<svg xmlns="http://www.w3.org/2000/svg" width="64" height="64" viewBox="0 0 16.933 16.933"><g paint-order="markers stroke fill" transform="translate(0 -280.07)"><rect width="12.7" height="13.758" x="2.117" y="281.65" fill="#e91e63" rx="2.117" ry="2.117"/><path fill="#fff" d="M4.233 282.716c-.586 0-1.058.472-1.058 1.058v9.525c0 .586.472 1.058 1.058 1.058H12.7c.586 0 1.058-.472 1.058-1.058v-6.35l-4.233-4.233zm6.879 0 2.646 2.645v-1.587c0-.586-.472-1.058-1.058-1.058z"/></g><path fill="#ccc" d="M5.027 7.408v1.058h6.88V7.408zm.265.265h6.35v.529h-6.35v-.53zm-.265 1.323v1.058h6.88V8.996zm.265.264h6.35v.53h-6.35zm-.265 1.323v1.058h6.88v-1.058zm.265.265h6.35v.529h-6.35v-.53z" style="paint-order:markers stroke fill"/></svg>