<svg width="64" height="64" version="1.1" xmlns="http://www.w3.org/2000/svg">
 <rect x="6" y="9" width="56" height="44" rx="6.0269" ry="6.0269" fill="#ececec" stroke-width="1.9776"/>
 <rect x="42" y="15" width="15" height="6" rx="1" ry="1" opacity=".3" stroke-width=".89642"/>
 <rect x="2" y="26" width="31" height="31" rx="15.5" ry="15.5" fill="#2968b4"/>
 <path d="m17.5 31c-5.799 0-10.5 4.701-10.5 10.5s4.701 10.5 10.5 10.5 10.5-4.701 10.5-10.5-4.701-10.5-10.5-10.5zm-1.0518 2.0068c0.12242-0.0129 0.27786 0.0073 0.40137 0 0.0147 0.05855-0.0889 0.26638-0.22852 0.57129-0.88904 1.9422-0.93936 4.2188-0.11425 5.4346 0.14931 0.22042 0.28418 0.42976 0.28418 0.45703 0 0.02726-0.1607 0.05566-0.34278 0.05566-0.42741 0-0.83179-0.25966-1.6582-0.91406-0.36712-0.29071-0.84342-0.53433-1.0283-0.57129-0.29036-0.05801-0.36851-0.03289-0.74414 0.34277-0.34949 0.34943-0.45703 0.53851-0.45703 0.8584 0 1.2131 1.4393 2.1748 4.1162 2.7422 3.6353 0.77049 4.5316 1.4634 4.6318 3.375 0.1259 2.3971-1.151 4.2052-3.9463 5.6045-0.33364 0.16707-0.54557 0.2302-0.68555 0.28418-0.06203-0.0057-0.10807 0.0057-0.16992 0-0.02379-0.07411-0.05859-0.24551-0.05859-0.57129 0-1.2732-0.50066-2.5836-1.2568-3.3164-0.20298-0.19675-0.77306-0.61278-1.2598-0.91407-0.48668-0.30126-0.97749-0.65049-1.0869-0.7998-0.18134-0.24778-0.19498-0.40066-0.05566-0.8584 0.25391-0.836 0.55506-1.3028 1.1426-1.8311 0.30802-0.27693 0.61731-0.50714 0.68554-0.5127 0.06825-0.0057-0.3912-0.1454-1.084-0.28711-0.69273-0.14199-1.7085-0.44026-2.2324-0.62988-0.95807-0.34666-2.249-1.0729-2.7422-1.5996-0.020865-0.02232-0.04047-0.03882-0.05859-0.05859 0.70656-2.8145 2.6888-5.1198 5.3174-6.2314 0.54999-0.23263 1.1183-0.39321 1.7168-0.51562 0.29812-0.06093 0.60625-0.08297 0.91406-0.11426zm8.5781 4.2891c0.21491 0.13284 1.0252 1.8888 1.2568 2.7451 0.29907 1.1056 0.27742 3.0179 0 4.1162-0.10559 0.41801-0.23916 0.80972-0.28418 0.8584-0.04501 0.04868-0.20934-0.23099-0.40137-0.57129-0.19204-0.34024-0.80566-1.0647-1.3154-1.6025-1.4714-1.5527-1.7033-2.3614-1.0869-3.6006 0.31084-0.62487 1.6647-2.048 1.8311-1.9453z" fill="#ffffff"/>
 <path d="m34.264 15c-0.34332 0-0.65184 0.06029-0.92432 0.18018-0.26703 0.11444-0.4777 0.2834-0.63574 0.50684-0.15259 0.21798-0.23145 0.48332-0.23145 0.79394 0 0.45232 0.12391 0.81484 0.36914 1.0928 0.25068 0.27248 0.62991 0.51362 1.1367 0.7207 0.32153 0.13079 0.57309 0.25511 0.75293 0.375 0.18529 0.11989 0.31335 0.25089 0.38965 0.39258 0.08174 0.13624 0.12305 0.30667 0.12305 0.5083 0 0.33243-0.10346 0.58774-0.31055 0.76758-0.20708 0.17439-0.49181 0.26221-0.85693 0.26221-0.25613 0-0.46306-0.06029-0.62109-0.18018-0.15804-0.12534-0.27527-0.28575-0.35156-0.48193-0.07629-0.19618-0.11947-0.40979-0.13037-0.63867-0.18528 0-0.33005 0.05173-0.43359 0.15527-0.10354 0.09809-0.15674 0.22909-0.15674 0.39258 0 0.34332 0.13768 0.62243 0.41016 0.83496 0.27793 0.21253 0.68322 0.31787 1.2173 0.31787 0.6158 0 1.1022-0.14476 1.4619-0.43359 0.36512-0.28883 0.54932-0.69078 0.54932-1.2085 0-0.41962-0.13287-0.75754-0.3999-1.0137s-0.64251-0.4835-1.1221-0.67969c-0.31608-0.13079-0.56618-0.25324-0.75146-0.36768-0.18529-0.11989-0.31816-0.25276-0.3999-0.3999-0.07629-0.15259-0.11426-0.33866-0.11426-0.55664 0-0.28338 0.08782-0.50928 0.26221-0.67822 0.17439-0.16894 0.41781-0.25342 0.73389-0.25342 0.22888 0 0.40827 0.05173 0.53906 0.15527 0.13624 0.10354 0.23262 0.23454 0.28711 0.39258 0.05995 0.15804 0.09082 0.32178 0.09082 0.49072 0.19618 0 0.35138-0.04319 0.46582-0.13037 0.11989-0.09264 0.18018-0.22698 0.18018-0.40137 0-0.23978-0.13287-0.45338-0.3999-0.63867-0.26703-0.18529-0.64438-0.27686-1.1294-0.27686zm-21.92 0.08203v0.34424h0.10547c0.17984 0 0.33503 0.03128 0.46582 0.09668 0.13624 0.06539 0.20508 0.21725 0.20508 0.45703v4.0063c0 0.25613-0.0655 0.41988-0.19629 0.49072-0.13079 0.06539-0.28932 0.09668-0.47461 0.09668h-0.10547v0.34424h2.0522v-0.34424h-0.10693c-0.18529 0-0.34382-0.03128-0.47461-0.09668-0.13079-0.07084-0.19629-0.23459-0.19629-0.49072v-3.7778l3.0645 4.7095h0.58301v-4.9043c0-0.25613 0.06403-0.41654 0.19482-0.48193 0.13079-0.07085 0.28932-0.10547 0.47461-0.10547h0.10547v-0.34424h-2.0508v0.34424h0.10547c0.17984 0 0.3365 0.03128 0.46728 0.09668 0.13624 0.06539 0.20215 0.21725 0.20215 0.45703v3.6211l-2.9253-4.519zm6.4673 0v0.34424h0.10693c0.18529 0 0.34235 0.03462 0.47314 0.10547 0.13079 0.0654 0.19629 0.2258 0.19629 0.48193v4.0137c0 0.23978-0.06884 0.39164-0.20508 0.45703-0.13079 0.05995-0.28452 0.08936-0.46436 0.08936h-0.10693v0.34424h4.3799l0.0586-1.4297h-0.42481l-0.05713 0.35156c-0.02725 0.17984-0.1013 0.3369-0.22119 0.47314-0.11444 0.13079-0.30051 0.19629-0.55664 0.19629h-1.5762v-2.4448h1.9688v-0.39991h-1.9688v-2.1738h1.374c0.24523 0 0.41794 0.06884 0.52148 0.20508 0.10899 0.13079 0.17449 0.28452 0.19629 0.46436l0.04102 0.35156h0.4248l-0.03955-1.4297zm4.7725 0v0.34424h0.10547c0.15804 0 0.27902 0.02942 0.36621 0.08936 0.0872 0.05995 0.15938 0.17237 0.21387 0.34131l1.4956 5.061h0.75146l1.2524-4.5776 1.3315 4.5776h0.73535l1.3828-4.856c0.07629-0.27248 0.15597-0.44665 0.24316-0.52295 0.09264-0.07629 0.21989-0.11279 0.37793-0.11279h0.15381v-0.34424h-1.9937v0.34424h0.1875c0.35967 0 0.54053 0.13287 0.54053 0.3999 0 0.0436-0.0119 0.10763-0.03369 0.19482-0.0218 0.0872-0.03932 0.16312-0.05567 0.22852l-0.7207 2.5283c-0.07629 0.26158-0.13845 0.49979-0.1875 0.71777-0.04905 0.21798-0.09557 0.42491-0.13916 0.62109-0.03815-0.18529-0.08654-0.40264-0.14648-0.65332-0.05994-0.25068-0.12878-0.51268-0.20508-0.78516l-1.021-3.5391h-0.59033l-0.97266 3.5068c-0.07085 0.26158-0.13301 0.52024-0.1875 0.77637-0.0545 0.25068-0.10289 0.4818-0.14648 0.69434-0.04359-0.19619-0.09679-0.41354-0.15674-0.65332-0.05995-0.23978-0.12398-0.48133-0.19482-0.72656l-0.75146-2.6177c-0.01635-0.05995-0.03346-0.11355-0.04981-0.1626-0.0109-0.04904-0.01758-0.09409-0.01758-0.1377 0-0.26158 0.16375-0.39258 0.49072-0.39258h0.18896v-0.34424z" opacity=".7" stroke-width=".75"/>
 <rect x="35" y="26" width="22" height="2" rx="1" ry="1" fill="#000000" opacity=".35" stroke-width="2"/>
 <rect x="35" y="32" width="22" height="2" rx="1" ry="1" fill="#000000" opacity=".35" stroke-width="2"/>
 <rect x="35" y="38" width="22" height="2" rx="1" ry="1" fill="#000000" opacity=".35" stroke-width="2"/>
 <rect x="35" y="44" width="22" height="2" rx="1" ry="1" fill="#000000" opacity=".35" stroke-width="2"/>
</svg>
