<svg xmlns="http://www.w3.org/2000/svg" width="64" height="64"><rect width="56" height="44" x="6" y="9" fill="#ececec" rx="6.027" ry="6.027"/><rect width="15" height="6" x="42" y="15" opacity=".3" rx="1" ry="1"/><rect width="31" height="31" x="2" y="26" fill="#2968b4" rx="15.5" ry="15.5"/><path fill="#fff" d="M17.5 31C11.701 31 7 35.701 7 41.5S11.701 52 17.5 52 28 47.299 28 41.5 23.299 31 17.5 31zm-1.052 2.007c.123-.013.278.007.402 0 .014.058-.09.266-.229.571-.889 1.942-.94 4.219-.114 5.435.15.22.284.43.284.457 0 .027-.16.055-.343.055-.427 0-.832-.26-1.658-.914-.367-.29-.843-.534-1.028-.571-.29-.058-.369-.033-.744.343-.35.35-.457.538-.457.858 0 1.213 1.439 2.175 4.116 2.742 3.635.77 4.531 1.464 4.632 3.375.125 2.398-1.151 4.206-3.947 5.605-.333.167-.545.23-.685.284-.062-.006-.108.006-.17 0-.024-.074-.059-.245-.059-.571 0-1.273-.5-2.584-1.257-3.317-.203-.196-.773-.612-1.26-.914-.486-.3-.977-.65-1.086-.8-.182-.247-.195-.4-.056-.858.254-.836.555-1.303 1.143-1.831.308-.277.617-.507.685-.513.068-.005-.391-.145-1.084-.287a19.532 19.532 0 0 1-2.232-.63c-.958-.346-2.25-1.073-2.742-1.6l-.059-.058a9.194 9.194 0 0 1 5.317-6.231 8.984 8.984 0 0 1 1.717-.516c.298-.06.606-.083.914-.114zm8.578 4.289c.215.133 1.025 1.889 1.257 2.745.3 1.106.278 3.018 0 4.116-.105.418-.24.81-.284.859-.045.048-.21-.231-.401-.572-.192-.34-.806-1.064-1.316-1.602-1.471-1.553-1.703-2.362-1.087-3.6.311-.626 1.665-2.049 1.831-1.946z"/><path d="M34.264 15c-.343 0-.652.06-.924.18a1.467 1.467 0 0 0-.636.507 1.352 1.352 0 0 0-.232.794c0 .452.124.815.37 1.093.25.272.63.513 1.136.72.322.131.573.256.753.375.186.12.314.251.39.393a.975.975 0 0 1 .123.508c0 .333-.103.588-.31.768-.208.174-.492.262-.858.262-.256 0-.463-.06-.62-.18a1.12 1.12 0 0 1-.352-.482 2.018 2.018 0 0 1-.13-.639c-.186 0-.33.052-.434.156a.517.517 0 0 0-.157.392c0 .344.138.623.41.835.278.213.684.318 1.218.318.615 0 1.102-.145 1.461-.434.366-.288.55-.69.55-1.208 0-.42-.133-.758-.4-1.014s-.643-.483-1.122-.68a5.39 5.39 0 0 1-.752-.367 1.164 1.164 0 0 1-.4-.4 1.236 1.236 0 0 1-.114-.557c0-.283.088-.509.262-.678.175-.169.418-.253.734-.253.23 0 .409.051.54.155a.822.822 0 0 1 .286.393c.06.158.091.321.091.49.196 0 .352-.043.466-.13a.478.478 0 0 0 .18-.401c0-.24-.133-.454-.4-.64-.267-.184-.644-.276-1.129-.276zm-21.92.082v.344h.105c.18 0 .336.032.466.097.137.065.205.217.205.457v4.006c0 .256-.065.42-.196.491-.13.065-.29.097-.475.097h-.105v.344h2.052v-.344h-.107c-.185 0-.344-.032-.474-.097-.131-.07-.197-.235-.197-.49v-3.779l3.065 4.71h.583v-4.904c0-.256.064-.417.195-.482.13-.071.289-.106.474-.106h.106v-.344H15.99v.344h.105c.18 0 .337.032.468.097.136.065.202.217.202.457v3.621l-2.925-4.519zm6.467 0v.344h.107c.186 0 .343.035.473.106.131.065.197.226.197.482v4.013c0 .24-.07.392-.205.457-.131.06-.285.09-.465.09h-.107v.344h4.38l.059-1.43h-.425l-.057.352a.907.907 0 0 1-.221.473c-.115.13-.3.196-.557.196h-1.576v-2.445h1.969v-.4h-1.97v-2.173h1.375c.245 0 .418.069.521.205a.87.87 0 0 1 .197.464l.04.352h.425l-.04-1.43zm4.773 0v.344h.105c.158 0 .28.03.366.09.088.06.16.172.214.34l1.496 5.062h.751l1.253-4.578 1.331 4.578h.736l1.382-4.856c.077-.273.156-.447.244-.523a.579.579 0 0 1 .378-.113h.153v-.344H30v.344h.187c.36 0 .54.133.54.4a.902.902 0 0 1-.033.195l-.056.228-.72 2.529c-.077.261-.139.5-.188.718l-.139.62a21.356 21.356 0 0 0-.352-1.438l-1.02-3.539h-.59l-.974 3.507c-.07.261-.133.52-.187.776-.055.25-.103.482-.147.695a26.148 26.148 0 0 0-.351-1.38l-.752-2.618a3.014 3.014 0 0 0-.05-.163.635.635 0 0 1-.017-.137c0-.262.164-.393.49-.393h.19v-.344z" opacity=".7"/><rect width="22" height="2" x="35" y="26" opacity=".35" rx="1" ry="1"/><rect width="22" height="2" x="35" y="32" opacity=".35" rx="1" ry="1"/><rect width="22" height="2" x="35" y="38" opacity=".35" rx="1" ry="1"/><rect width="22" height="2" x="35" y="44" opacity=".35" rx="1" ry="1"/></svg>