<svg xmlns="http://www.w3.org/2000/svg" width="64" height="64"><rect width="56" height="44" x="6" y="9" fill="#ececec" rx="6.027" ry="6.027"/><rect width="15" height="6" x="42" y="15" opacity=".3" rx="1" ry="1"/><rect width="31" height="31" x="2" y="26" fill="#2968b4" rx="15.5" ry="15.5"/><path fill="#fff" d="M17.5 31C11.701 31 7 35.701 7 41.5S11.701 52 17.5 52 28 47.299 28 41.5 23.299 31 17.5 31m-1.052 2.007c.123-.013.278.007.402 0 .014.058-.09.266-.229.571-.889 1.942-.94 4.219-.114 5.435.15.22.284.43.284.457s-.16.055-.343.055c-.427 0-.832-.26-1.658-.914-.367-.29-.843-.534-1.028-.571-.29-.058-.369-.033-.744.343-.35.35-.457.538-.457.858 0 1.213 1.439 2.175 4.116 2.742 3.635.77 4.531 1.464 4.632 3.375.125 2.398-1.151 4.206-3.947 5.605-.333.167-.545.23-.685.284-.062-.006-.108.006-.17 0-.024-.074-.059-.245-.059-.571 0-1.273-.5-2.584-1.257-3.317-.203-.196-.773-.612-1.26-.914-.486-.3-.977-.65-1.086-.8-.182-.247-.195-.4-.056-.858.254-.836.555-1.303 1.143-1.831.308-.277.617-.507.685-.513.068-.005-.391-.145-1.084-.287a20 20 0 0 1-2.232-.63c-.958-.346-2.25-1.073-2.742-1.6l-.059-.058a9.2 9.2 0 0 1 5.317-6.231 9 9 0 0 1 1.717-.516c.298-.06.606-.083.914-.114m8.578 4.289c.215.133 1.025 1.889 1.257 2.745.3 1.106.278 3.018 0 4.116-.105.418-.24.81-.284.859-.045.048-.21-.231-.401-.572s-.806-1.064-1.316-1.602c-1.471-1.553-1.703-2.362-1.087-3.6.311-.626 1.665-2.049 1.831-1.946"/><path d="M34.264 15q-.515 0-.924.18a1.47 1.47 0 0 0-.636.507 1.35 1.35 0 0 0-.232.794q0 .677.37 1.093.376.409 1.136.72.483.197.753.375.278.18.39.393a1 1 0 0 1 .123.508q0 .499-.31.768-.31.262-.858.262-.384 0-.62-.18a1.1 1.1 0 0 1-.352-.482 2 2 0 0 1-.13-.639q-.279 0-.434.156a.52.52 0 0 0-.157.392q.001.517.41.835.417.319 1.218.318.922 0 1.461-.434.55-.431.55-1.208 0-.63-.4-1.014c-.4-.384-.643-.483-1.122-.68a5.4 5.4 0 0 1-.752-.367 1.16 1.16 0 0 1-.4-.4 1.24 1.24 0 0 1-.114-.557q0-.425.262-.678.261-.253.734-.253.344 0 .54.155a.8.8 0 0 1 .286.393q.09.237.091.49.294 0 .466-.13a.48.48 0 0 0 .18-.401q0-.36-.4-.64Q34.992 15 34.264 15m-21.92.082v.344h.105q.27 0 .466.097.205.097.205.457v4.006q0 .384-.196.491-.196.097-.475.097h-.105v.344h2.052v-.344h-.107q-.278 0-.474-.097-.197-.106-.197-.49v-3.779l3.065 4.71h.583v-4.904q0-.384.195-.482a1 1 0 0 1 .474-.106h.106v-.344H15.99v.344h.105q.27 0 .468.097.203.097.202.457v3.621l-2.925-4.519zm6.467 0v.344h.107q.279 0 .473.106.197.098.197.482v4.013q-.001.36-.205.457-.196.09-.465.09h-.107v.344h4.38l.059-1.43h-.425l-.057.352a.9.9 0 0 1-.221.473q-.172.196-.557.196h-1.576v-2.445h1.969v-.4h-1.97v-2.173h1.375q.367 0 .521.205a.87.87 0 0 1 .197.464l.04.352h.425l-.04-1.43zm4.773 0v.344h.105q.237 0 .366.09.133.089.214.34l1.496 5.062h.751l1.253-4.578 1.331 4.578h.736l1.382-4.856q.114-.41.244-.523a.58.58 0 0 1 .378-.113h.153v-.344H30v.344h.187q.54 0 .54.4a1 1 0 0 1-.033.195l-.056.228-.72 2.529q-.115.391-.188.718l-.139.62a21 21 0 0 0-.352-1.438l-1.02-3.539h-.59l-.974 3.507q-.106.392-.187.776-.082.375-.147.695a26 26 0 0 0-.351-1.38l-.752-2.618a3 3 0 0 0-.05-.163.6.6 0 0 1-.017-.137q0-.393.49-.393h.19v-.344z" opacity=".7"/><rect width="22" height="2" x="35" y="26" opacity=".35" rx="1" ry="1"/><rect width="22" height="2" x="35" y="32" opacity=".35" rx="1" ry="1"/><rect width="22" height="2" x="35" y="38" opacity=".35" rx="1" ry="1"/><rect width="22" height="2" x="35" y="44" opacity=".35" rx="1" ry="1"/></svg>