<svg xmlns="http://www.w3.org/2000/svg" width="64" height="64"><rect width="52" height="52" x="6" y="6" fill="#cd5050" rx="8" ry="8" style="paint-order:markers stroke fill"/><path fill="#fff" d="M43.107 21.689a26 26 0 0 0-6.602-2.075 19 19 0 0 0-.845 1.756 24.2 24.2 0 0 0-7.317 0 19 19 0 0 0-.856-1.756 26 26 0 0 0-6.607 2.08c-4.178 6.314-5.31 12.47-4.744 18.54 2.771 2.07 5.457 3.326 8.097 4.15a20 20 0 0 0 1.734-2.857 17 17 0 0 1-2.731-1.329q.344-.255.67-.53c5.265 2.463 10.985 2.463 16.188 0q.33.275.67.53c-.866.522-1.782.97-2.736 1.332.5 1.002 1.08 1.959 1.734 2.856 2.643-.823 5.331-2.08 8.102-4.152.665-7.036-1.135-13.136-4.757-18.545M26.684 36.501c-1.58 0-2.877-1.476-2.877-3.273s1.269-3.275 2.877-3.275 2.905 1.476 2.877 3.275c.002 1.797-1.269 3.273-2.877 3.273m10.631 0c-1.58 0-2.877-1.476-2.877-3.273s1.269-3.275 2.877-3.275 2.905 1.476 2.877 3.275c0 1.797-1.269 3.273-2.877 3.273"/></svg>