<svg xmlns="http://www.w3.org/2000/svg" width="64" height="64" viewBox="0 0 16.934 16.934"><circle cx="8.467" cy="8.467" r="7.144" fill="red" style="paint-order:markers stroke fill"/><path fill="#fff" d="M7.022 11.18c.188-.24.594-.408.633-.777.235-.15-.025-.177.103-.281.07-.145.288-.316-.02-.128.08-.141.474-.391.662-.594.342-.325.638-.702 1.028-.969-.28-.115-.823.257-1.167.054-.418-.407.112-.734.435-.925.497-.428.953-.925 1.508-1.281.144-.012.345-.248.405-.217.01-.014.188.009.283.054-.126.148-.328.388-.023.203-.193.19-.39.35-.596.526-.231.18-.342.409-.549.617-.232.167-.338.447.069.27.346-.17.85.185.554.53-.402.525-1.03.792-1.465 1.288-.404.418-.837.804-1.236 1.227-.195.14-.376.306-.595.407l-.028-.005zm3.639-4.748c.005-.042-.04.039 0 0M2.97 10.41c-.059-.198-.228.093-.313-.081.314-.56.654-1.104.935-1.68.124-.295.311-.551.487-.814.118-.241.203-.493.289-.745.285-.308.351-.787.724-1.012-.05-.06.196-.305.226-.293.006.062.059.029.069.053.041-.077.283-.103.241-.012-.06.102-.199.452-.022.195.1-.086-.106.253-.082.327-.195.172-.222.48-.373.695-.13.263-.32.493-.402.779-.18.34-.491.589-.661.937q-.336.51-.65 1.032c.123-.006.28-.017.382.006.348-.127.71.035 1.08.01.373-.01.752.025 1.116-.034.197.038.178.114.251.27.11.08-.39.128-.117.106.179.168-.277.061-.38.091-.291-.056-.68.103-.905-.012.089-.118-.369-.014-.494-.063-.234-.03-.481.107-.687.078-.14.01-.278-.028-.383.051-.087.012-.062.153-.192.023.002.076-.084.088-.139.093m-.048-.184c-.008-.018-.014.024 0 0m2.05-.018c-.006-.038-.043.017 0 0m1.192-.297c-.028-.031-.044.038 0 0M5.368 6.49c.03-.085-.052.025 0 0m.035-.069c-.014-.035-.022.056 0 0m.08-.116c.06-.137-.103.083 0 0m.009-.142c.007-.04-.03.038 0 0m-.196-.293c-.022-.029-.009.048 0 0m.863 4.391c-.012-.034.055.027 0 0m6.25-.132c.043-.194-.315.121-.174-.188.091-.031.07-.398.005-.129-.085.2-.085-.065-.054-.154.137-.09-.145.045.038-.144.192-.256-.383-.176-.478-.391-.29-.273-.53-.672-.478-1.083.135-.54.393-1.151.969-1.335.401-.264.974.063 1.138.294.028-.251.181-.421.338-.596.05.04.04.16.138-.042.068-.092.09.174.112.016.117-.025.397-.12.208.118 0 .131-.156.346.064.086.112-.083-.162.26-.08.311-.082.19-.22.348-.345.528-.354.463-.558 1.015-.83 1.527-.169.35-.23.75-.434 1.075-.005-.25-.056.153-.137.107m-.042-.085c-.022-.037-.022.037 0 0m.068-.045c.023-.057-.036.01 0 0m.133-.132c-.016-.01-.008.022 0 0m-.215-.27c.013-.037-.04.019 0 0m.203-.812c.196-.43.35-.881.541-1.313.258-.222.211-.448-.107-.478.099.31-.383.177-.615.354-.274.155-.427.474-.5.773-.03.363.325.65.654.701zm1.527-1.872c.066-.16-.085.052 0 0m.007-.163c-.012-.014-.013.029 0 0m-.213-.287c.015-.065-.048.063 0 0M6.228 9.94c-.003-.024.05.018 0 0m5.88-.19c.03-.01.002.02 0 0m-.008-.087c.031-.028.02.028 0 0m.022-.097c-.033-.15.088.002 0 0m-5.49-.124c.03-.23-.25-.411-.147-.624.11-.425.16-.883.459-1.23.102-.107.098-.27.185-.34-.071-.208.144-.418.205-.626.065-.2.266-.69.356-.328.033-.068.097.002.185-.042-.057.158-.07.403.022.172.13.06-.133.353.057.236-.1.11-.096.206-.144.423-.034.22-.198.372-.294.555-.126.549-.451 1.023-.69 1.526-.046.084-.077.304-.194.278m.52-1.938c-.008-.04-.018.026 0 0m.025-.068c.039-.118-.074.092 0 0m.007-.069c.076-.1-.088 0 0 0m-.045-.044c0-.094-.04.04 0 0m.82-.56c-.022-.145.078.028 0 0m-2.82-.927c.01-.136.056.07 0 0"/></svg>