<svg xmlns="http://www.w3.org/2000/svg" width="64" height="64" viewBox="0 0 16.933 16.933"><g transform="translate(0 -280.067)" paint-order="stroke markers fill"><circle cx="8.467" cy="288.533" r="6.879" fill="#fff" stroke="#000" stroke-width=".529" stroke-opacity=".059"/><circle r="6.879" cy="288.533" cx="8.467" fill="#fff"/><path d="M8.318 284.04a4.498 4.498 0 0 0-3.032 1.313 4.498 4.498 0 0 0-.367 5.935l.945-.945a3.175 3.175 0 0 1 .358-4.054 3.175 3.175 0 0 1 3.303-.744v1.136l.753-.753.37-.37.574-.574a4.498 4.498 0 0 0-2.904-.944z" fill="#f55"/><path d="M12.015 285.779l-.945.945a3.175 3.175 0 0 1-.359 4.054 3.175 3.175 0 0 1-3.303.744v-1.137l-1.122 1.123-.575.574a4.498 4.498 0 0 0 5.936-.368 4.498 4.498 0 0 0 .368-5.935z" fill="#ff8080"/></g></svg>