<svg xmlns="http://www.w3.org/2000/svg" width="64" height="64" viewBox="0 0 16.933 16.933"><g transform="translate(0 -280.067)"><circle cx="8.467" cy="288.533" r="6.879" fill="#0071c6" paint-order="stroke markers fill"/><g fill="#fff" stroke-width=".357"><path d="M9.393 286.373v1.476l.518.376h.056l2.203-1.544a.297.297 0 0 0-.308-.308z"/><path d="m9.4 288.39.466.317c.066.048.145 0 .145 0-.079.048 2.16-1.409 2.16-1.409v2.779c0 .188-.094.308-.309.308H9.393zm-2.42-.668a.43.43 0 0 0-.38.221q-.141.222-.141.587 0 .371.14.586.14.216.37.215.234 0 .372-.209.138-.21.138-.582 0-.388-.134-.603a.41.41 0 0 0-.366-.215z"/><path d="M4.762 285.755v5.557l4.322.926v-7.409zm2.918 3.702a.87.87 0 0 1-.72.36.86.86 0 0 1-.707-.349q-.272-.348-.273-.908 0-.592.277-.957a.88.88 0 0 1 .735-.365q.431 0 .698.35.267.349.267.921 0 .588-.277.948"/></g></g></svg>