<svg xmlns="http://www.w3.org/2000/svg" width="64" height="64"><rect width="52" height="52" x="6" y="6" fill="#424242" rx="8" ry="8"/><path fill="#20bd4d" d="m45.377 51.056-.002-7.634v7.635z"/><path fill="#00913a" d="m18.648 28.24 13.363-7.657.005-.002 13.36 7.655v7.552l-6.678 3.778.02 7.652 6.657 3.837v.002l6.681-3.819V24.365L32.03 12.888 11.966 24.33v22.909l6.682 3.848v-.008l6.682-3.845v-7.599l-6.682-3.828z"/><path fill="#3fb66c" d="M11.966 32.069v15.17l6.682 3.848v-.008l6.682-3.845v-7.599l-6.682-3.828V28.24l13.368-7.66 13.36 7.656v22.82l6.68-3.817V24.33h-.059L32.03 12.888l-.007-.013-.008.005-.007-.005-.008.013L12.035 24.33h-.068v.039z"/><path fill="#2fd36d" d="m38.696 39.566.02 7.652 6.656 3.837V35.788z"/><path fill="#2fd36d" d="m32.011 20.583.005-.002 13.36 7.655v15.186l6.68-3.834V24.33h-.059L32.03 12.888l-.007-.013-.008.005-.004-.004zM11.968 39.587l.02 7.653 6.66 3.84v-7.666z"/><path fill="none" stroke="#00913a" stroke-miterlimit="10" stroke-width=".096" d="M11.966 24.33v22.909"/><path fill="none" stroke="#00913a" stroke-linejoin="round" stroke-miterlimit="10" stroke-width=".096" d="m18.65 20.538 13.366-7.659M32.016 20.58l-13.368 7.66"/><path fill="none" stroke="#00913a" stroke-miterlimit="10" stroke-width=".096" d="m18.648 35.806 6.682 3.83M11.966 47.239l6.682 3.848M52.035 24.33v22.909"/><path fill="none" stroke="#00913a" stroke-linejoin="round" stroke-miterlimit="10" stroke-width=".096" d="m45.35 20.538-13.366-7.659M31.984 20.58l13.368 7.66"/><path fill="none" stroke="#00913a" stroke-miterlimit="10" stroke-width=".096" d="m45.352 35.806-6.681 3.83"/><g fill="none" stroke="#00913a" stroke-miterlimit="10" stroke-width=".096"><path d="m11.989 47.24 13.34-7.605"/><path stroke-linejoin="round" d="m25.33 47.234-13.39-7.639 6.693-3.785-6.666-3.842 6.678-3.726-6.68-3.912 6.686-3.792 6.682 3.872-.014-7.694 6.697 3.864-.008-7.705"/><path d="M25.33 39.602v7.637l-6.682 3.84.003-30.541M52.011 47.24l-13.34-7.605"/><path stroke-linejoin="round" d="m38.67 47.234 13.39-7.639-6.693-3.785 6.668-3.842-6.678-3.726 6.68-3.912-6.688-3.792-6.681 3.872.014-7.694-6.698 3.864.008-7.705"/><path d="M38.67 39.602v7.637l6.682 3.84-.002-30.541"/></g><path fill="none" stroke="#00913a" stroke-miterlimit="10" stroke-width=".096" d="m52.035 47.239-6.682 3.848"/></svg>