<svg xmlns="http://www.w3.org/2000/svg" width="64" height="64"><circle cx="32" cy="32" r="27" fill="#d6e6e6"/><path fill="#0b8484" d="M31.993 11.011a20.997 20.986 0 0 0-5.585.78 2.085 2.085 0 0 0 2.085 2.014h7a2.103 2.103 0 0 0 2.1-2.043 20.997 20.986 0 0 0-5.6-.762zm10.345 2.728a2.097 2.097 0 0 0 .041 2.924l4.955 4.953c.808.807 2.1.817 2.926.04a20.997 20.986 0 0 0-7.909-7.904zm-20.717.035a20.997 20.986 0 0 0-7.909 7.905 2.09 2.09 0 0 0 2.884-.071l4.955-4.953a2.086 2.086 0 0 0 .071-2.882zm10.317 7.023A11.199 11.193 0 0 0 20.739 31.99a11.199 11.193 0 0 0 11.199 11.193A11.199 11.193 0 0 0 43.137 31.99a11.199 11.193 0 0 0-11.199-11.193m20.297 5.597a2.09 2.09 0 0 0-2.03 2.098v6.996c0 1.136.895 2.042 2.016 2.084a20.997 20.986 0 0 0 .78-5.582 20.997 20.986 0 0 0-.766-5.596m-40.455 0A20.997 20.986 0 0 0 11 31.99a20.997 20.986 0 0 0 .78 5.582 2.084 2.084 0 0 0 2.016-2.084v-6.996a2.083 2.083 0 0 0-2.016-2.084zm3.388 15.39c-.503 0-1.001.184-1.4.544a20.997 20.986 0 0 0 7.909 7.905 2.09 2.09 0 0 0-.072-2.882l-4.955-4.953a2.1 2.1 0 0 0-1.484-.614zm33.596 0c-.537 0-1.074.204-1.484.614l-4.956 4.953a2.09 2.09 0 0 0-.07 2.882 20.997 20.986 0 0 0 7.908-7.905 2.1 2.1 0 0 0-1.4-.544zm-20.298 8.422a2.084 2.084 0 0 0-2.085 2.015 20.997 20.986 0 0 0 5.585.78 20.997 20.986 0 0 0 5.585-.78 2.085 2.085 0 0 0-2.085-2.015z"/></svg>