<?xml version="1.0" encoding="UTF-8" standalone="no"?>
<!-- Created with Inkscape (http://www.inkscape.org/) -->

<svg
   xmlns:dc="http://purl.org/dc/elements/1.1/"
   xmlns:cc="http://creativecommons.org/ns#"
   xmlns:rdf="http://www.w3.org/1999/02/22-rdf-syntax-ns#"
   xmlns:svg="http://www.w3.org/2000/svg"
   xmlns="http://www.w3.org/2000/svg"
   xmlns:sodipodi="http://sodipodi.sourceforge.net/DTD/sodipodi-0.dtd"
   xmlns:inkscape="http://www.inkscape.org/namespaces/inkscape"
   width="64"
   height="64"
   viewBox="0 0 16.933333 16.933333"
   version="1.1"
   id="svg4572"
   inkscape:version="0.92.2 2405546, 2018-03-11"
   sodipodi:docname="lock.svg">
  <title
     id="title4611">Canvas icon theme</title>
  <defs
     id="defs4566">
    <linearGradient
       id="linearGradient3764"
       x1="1"
       x2="47"
       gradientUnits="userSpaceOnUse"
       gradientTransform="rotate(-90,23.999998,24)">
      <stop
         style="stop-color:#5e9c34;stop-opacity:1"
         id="stop2" />
      <stop
         offset="1"
         style="stop-color:#68ac39;stop-opacity:1"
         id="stop4" />
    </linearGradient>
  </defs>
  <sodipodi:namedview
     id="base"
     pagecolor="#ffffff"
     bordercolor="#666666"
     borderopacity="1.0"
     inkscape:pageopacity="0.0"
     inkscape:pageshadow="2"
     inkscape:zoom="2.8284271"
     inkscape:cx="53.565596"
     inkscape:cy="49.264092"
     inkscape:document-units="px"
     inkscape:current-layer="layer1"
     showgrid="true"
     units="px"
     width="64px"
     showguides="true"
     inkscape:guide-bbox="true"
     inkscape:window-width="1356"
     inkscape:window-height="840"
     inkscape:window-x="561"
     inkscape:window-y="68"
     inkscape:window-maximized="0"
     inkscape:snap-bbox="true"
     inkscape:bbox-nodes="true"
     inkscape:snap-bbox-edge-midpoints="true">
    <inkscape:grid
       type="xygrid"
       id="grid4582" />
    <sodipodi:guide
       position="1.0583333,1.0583333"
       orientation="1,0"
       id="guide4586"
       inkscape:locked="false" />
    <sodipodi:guide
       position="15.875,15.875"
       orientation="1,0"
       id="guide4588"
       inkscape:locked="false" />
    <sodipodi:guide
       position="1.0583333,1.0583333"
       orientation="0,1"
       id="guide4590"
       inkscape:locked="false" />
    <sodipodi:guide
       position="8.4666665,8.4666665"
       orientation="0,1"
       id="guide822"
       inkscape:locked="false" />
    <sodipodi:guide
       position="8.4666665,8.4666665"
       orientation="1,0"
       id="guide824"
       inkscape:locked="false" />
  </sodipodi:namedview>
  <metadata
     id="metadata4569">
    <rdf:RDF>
      <cc:Work
         rdf:about="">
        <dc:format>image/svg+xml</dc:format>
        <dc:type
           rdf:resource="http://purl.org/dc/dcmitype/StillImage" />
        <dc:title>Canvas icon theme</dc:title>
        <cc:license
           rdf:resource="http://creativecommons.org/licenses/by-nc-sa/4.0/" />
        <dc:creator>
          <cc:Agent>
            <dc:title>Vince Liuice</dc:title>
          </cc:Agent>
        </dc:creator>
      </cc:Work>
      <cc:License
         rdf:about="http://creativecommons.org/licenses/by-nc-sa/4.0/">
        <cc:permits
           rdf:resource="http://creativecommons.org/ns#Reproduction" />
        <cc:permits
           rdf:resource="http://creativecommons.org/ns#Distribution" />
        <cc:requires
           rdf:resource="http://creativecommons.org/ns#Notice" />
        <cc:requires
           rdf:resource="http://creativecommons.org/ns#Attribution" />
        <cc:prohibits
           rdf:resource="http://creativecommons.org/ns#CommercialUse" />
        <cc:permits
           rdf:resource="http://creativecommons.org/ns#DerivativeWorks" />
        <cc:requires
           rdf:resource="http://creativecommons.org/ns#ShareAlike" />
      </cc:License>
    </rdf:RDF>
  </metadata>
  <g
     inkscape:label="Layer 1"
     inkscape:groupmode="layer"
     id="layer1"
     transform="translate(0,-280.06667)">
    <g
       transform="matrix(0.26458333,0,0,0.26458333,2.1166666,282.44792)"
       id="g15" />
    <g
       transform="matrix(0.2990942,0,0,0.2990942,1.2884057,281.35508)"
       id="g19">
      <path
         inkscape:connector-curvature="0"
         d="M 24,1 C 36.703,1 47,11.297 47,24 47,36.703 36.703,47 24,47 11.297,47 1,36.703 1,24 1,11.297 11.297,1 24,1 Z"
         style="fill:#feaf27;fill-opacity:1"
         id="path17" />
    </g>
    <g
       id="g1055"
       transform="matrix(0.23007265,0,0,0.23007265,2.944923,283.0116)"
       style="fill:#000000;opacity:0.15">
      <path
         id="path1053"
         style="fill:#000000;fill-opacity:1;stroke-width:1.10000038"
         d="M 24,-1.3000099 C 37.973305,-1.3000099 49.30001,10.026695 49.30001,24 49.30001,37.973305 37.973305,49.30001 24,49.30001 10.026695,49.30001 -1.3000099,37.973305 -1.3000099,24 -1.3000099,10.026695 10.026695,-1.3000099 24,-1.3000099 Z"
         inkscape:connector-curvature="0" />
    </g>
    <g
       transform="matrix(0.26458333,0,0,0.26458333,2.1166666,282.44792)"
       id="g33">
      <g
         id="g31">
        <g
           transform="translate(1,1)"
           id="g29">
          <g
             style="opacity:0.1"
             id="g27">
            <!-- color: #68ac39 -->
            <g
               id="g25" />
          </g>
        </g>
      </g>
    </g>
    <g
       transform="matrix(0.26458333,0,0,0.26458333,2.1166666,282.44792)"
       id="g47" />
    <g
       id="g844"
       transform="translate(-1.5e-7,-1.8e-6)">
      <path
         inkscape:connector-curvature="0"
         id="rect859"
         d="m 6.3499999,288.00417 c -0.293158,0 -0.5291666,0.23602 -0.5291666,0.52917 v 2.64583 c 0,0.29315 0.2360086,0.52917 0.5291666,0.52917 h 4.2333331 c 0.293158,0 0.529167,-0.23602 0.529167,-0.52917 v -2.64583 c 0,-0.29315 -0.236009,-0.52917 -0.529167,-0.52917 z m 2.1166667,0.79375 a 0.52917571,0.52917571 0 0 1 0.5291666,0.52917 0.52917571,0.52917571 0 0 1 -0.2645833,0.45733 V 290.65 c 0,0.14658 -0.1180042,0.26459 -0.2645833,0.26459 -0.1465792,0 -0.2645834,-0.11801 -0.2645834,-0.26459 v -0.86506 a 0.52917571,0.52917571 0 0 1 -0.2645833,-0.45785 0.52917571,0.52917571 0 0 1 0.5291667,-0.52917 z"
         style="opacity:1;fill:#ffffff;fill-opacity:1;stroke:none;stroke-width:5.49141073;stroke-linecap:round;stroke-linejoin:round;stroke-miterlimit:4;stroke-dasharray:none;stroke-opacity:0.19607843;paint-order:stroke fill markers" />
      <path
         id="rect861"
         transform="matrix(0.26458333,0,0,0.26458333,0,280.06667)"
         d="m 32,20 c -3.324,0 -6,2.676002 -6,6 v 12 c 0,3.323998 2.676,6 6,6 -2.216,0 -4,-1.784019 -4,-4 V 26 c 0,-2.215981 1.784,-4 4,-4 2.216,0 4,1.784019 4,4 v 14 c 0,2.215981 -1.784,4 -4,4 3.324,0 6,-2.676002 6,-6 V 26 c 0,-3.323998 -2.676,-6 -6,-6 z"
         style="opacity:1;fill:#ffffff;fill-opacity:1;stroke:none;stroke-width:21.0493927;stroke-linecap:round;stroke-linejoin:round;stroke-miterlimit:4;stroke-dasharray:none;stroke-opacity:0.19607843;paint-order:stroke fill markers"
         inkscape:connector-curvature="0" />
    </g>
  </g>
</svg>
