<svg xmlns="http://www.w3.org/2000/svg" width="64" height="64" viewBox="0 0 16.933 16.933"><rect width="13.758" height="13.758" x="1.587" y="1.587" fill="#2d96ee" rx="2.117" ry="2.117"/><path d="M3.704 2.646c-.586 0-1.058.472-1.058 1.058v9.525c0 .586.472 1.058 1.058 1.058h1.852c0-.44.354-.794.794-.794h4.233c.44 0 .794.354.794.794h1.852c.586 0 1.058-.472 1.058-1.058V3.704c0-.586-.472-1.058-1.058-1.058h-1.852c0 .44-.354.794-.794.794H6.35a.792.792 0 0 1-.794-.794H3.704z" opacity=".15"/><rect width="8.466" height="6.35" x="4.233" y="5.292" fill="#fff" fill-rule="evenodd" opacity=".35" rx=".794" ry=".794"/><rect width="6.35" height="1.323" x="5.292" y="7.937" fill="#fff" fill-rule="evenodd" rx=".265" ry=".265"/><path fill="#2d2d2d" d="M6.35 8.599a.397.397 0 1 1-.794 0 .397.397 0 0 1 .794 0m1.06 0a.397.397 0 1 1-.795 0 .397.397 0 0 1 .794 0m1.058 0a.397.397 0 1 1-.794 0 .397.397 0 0 1 .794 0"/><path fill="#f9f9f9" d="M5.356 7.144h1.99c.035 0 .064.028.064.063v.137a.064.064 0 0 1-.064.064h-1.99a.064.064 0 0 1-.064-.064v-.137c0-.035.029-.063.064-.063"/></svg>