<svg width="64" height="64" version="1.1" viewBox="0 0 16.933 16.933" xmlns="http://www.w3.org/2000/svg" xmlns:xlink="http://www.w3.org/1999/xlink">
 <defs>
  <linearGradient id="b" x1="34.539" x2="43.998" y1="36.888" y2="36.888" gradientUnits="userSpaceOnUse">
   <stop offset="0"/>
   <stop stop-opacity="0" offset="1"/>
  </linearGradient>
 </defs>
 <path d="m8.3803 1.3234a7.1436 7.1436 0 1 1 0 14.286 7.1436 7.1436 0 0 1 0-14.286z" fill="#2d96ee"/>
 <path d="M8.467 3.175a5.26 5.26 0 0 0-2.643.712h-.947a5.809 5.809 0 0 0-2.231 4.58c0 1.86.873 3.514 2.23 4.58h.948a5.26 5.26 0 0 0 5.285 0h.948a5.809 5.809 0 0 0 2.23-4.58c0-1.86-.873-3.515-2.23-4.58h-.948a5.26 5.26 0 0 0-2.642-.712z" opacity=".15"/>
 <path d="M6.086 5.821h4.761c.439 0 .794.356.794.794v3.703c0 .44-.355.794-.794.794H6.086a.793.793 0 0 1-.794-.794V6.615c0-.438.356-.794.794-.794m0 0" fill="#fff" fill-opacity=".987" opacity=".35"/>
 <g opacity=".1">
  <path d="M7.673 8.864a.397.397 0 1 1-.794 0 .397.397 0 0 1 .794 0m0 0M8.731 8.864a.397.397 0 1 1-.794 0 .397.397 0 0 1 .794 0m0 0M9.79 8.864a.397.397 0 1 1-.794 0 .397.397 0 0 1 .794 0m0 0"/>
 </g>
 <path d="M6.615 7.938h3.704c.146 0 .264.118.264.264v.794a.265.265 0 0 1-.264.264H6.615a.265.265 0 0 1-.265-.264v-.794c0-.146.119-.264.265-.264m0 0" fill="#f9f9f9"/>
 <path d="M7.408 8.599a.397.397 0 1 1-.794 0 .397.397 0 0 1 .794 0m0 0M8.467 8.599a.397.397 0 1 1-.794 0 .397.397 0 0 1 .794 0m0 0M9.525 8.599a.397.397 0 1 1-.794 0 .397.397 0 0 1 .794 0m0 0" fill="#2d2d2d"/>
 <path d="M6.414 7.144h1.99c.035 0 .064.028.064.063v.137a.064.064 0 0 1-.064.064h-1.99a.064.064 0 0 1-.064-.064v-.137c0-.035.029-.063.064-.063m0 0" fill="#f9f9f9"/>
 <path transform="scale(.26458)" d="m43.998 31.777a17.5 17.5 0 0 1-9.459 10.221h6.459c1.656 0 3-1.34 3-3v-7.22z" fill="url(#b)" opacity=".25"/>
</svg>
