<svg width="64" height="64" version="1.1" viewBox="0 0 16.933 16.933" xmlns="http://www.w3.org/2000/svg">
 <rect x="1.5875" y="1.5875" width="13.758" height="13.758" rx="2.1166" ry="2.1166" fill="#2d96ee" stroke-width=".24568"/>
 <path d="m3.7041 2.6458c-0.5863 1e-7 -1.0583 0.47201-1.0583 1.0583v9.5248c1e-7 0.5863 0.47201 1.0583 1.0583 1.0583h1.852c0-0.43973 0.35401-0.79374 0.79373-0.79374h4.2332c0.43973 0 0.79373 0.35401 0.79373 0.79374h1.852c0.5863 0 1.0583-0.47201 1.0583-1.0583v-9.5248c0-0.5863-0.47201-1.0583-1.0583-1.0583h-1.852c0 0.43973-0.354 0.79373-0.79373 0.79373h-4.2332c-0.43973 0-0.79373-0.35401-0.79373-0.79373h-1.852z" fill="#000000" opacity=".15"/>
 <rect x="4.2332" y="5.2916" width="8.4665" height="6.3499" rx=".79373" ry=".79373" fill="#ffffff" fill-rule="evenodd" opacity=".35" stroke-linecap="round" stroke-linejoin="round" stroke-width=".26458"/>
 <rect x="5.2916" y="7.9373" width="6.3499" height="1.3229" rx=".26458" ry=".26458" fill="#ffffff" fill-rule="evenodd" stroke-linecap="round" stroke-linejoin="round" stroke-width=".32404"/>
 <path d="m6.3501 8.599a0.397 0.397 0 1 1-0.794 0 0.397 0.397 0 0 1 0.794 0m1.059 0a0.397 0.397 0 1 1-0.794 0 0.397 0.397 0 0 1 0.794 0m1.058 0a0.397 0.397 0 1 1-0.794 0 0.397 0.397 0 0 1 0.794 0" fill="#2d2d2d"/>
 <path d="m5.3556 7.144h1.99c0.035 0 0.064 0.028 0.064 0.063v0.137a0.064 0.064 0 0 1-0.064 0.064h-1.99a0.064 0.064 0 0 1-0.064-0.064v-0.137c0-0.035 0.029-0.063 0.064-0.063" fill="#f9f9f9"/>
</svg>
