<svg width="64" height="64" version="1.1" viewBox="0 0 16.933 16.933" xmlns="http://www.w3.org/2000/svg">
 <defs>
  <linearGradient id="a" x2="0" y1="47" y2="1" gradientTransform="matrix(.26458 0 0 .26458 0 284.3)" gradientUnits="userSpaceOnUse">
   <stop stop-color="#ed4964" offset="0"/>
   <stop stop-color="#ef5b74" offset="1"/>
  </linearGradient>
 </defs>
 <g transform="matrix(1.0385 0 0 1.0385 -.32632 -.32557)" stroke-width=".92721">
  <path d="m9.786 1.716 1e-3 1e-3 -3.27 0.153a6.88 6.88 0 0 0-3.179 2.013l-1.613 3.213a6.918 6.918 0 0 0 0.21 3.533l1.893 2.918a6.858 6.858 0 0 0 3.317 1.671h-2e-3l3.371-0.181a6.88 6.88 0 0 0 3.097-2.004h-1e-3l1.584-3.135 2e-3 2e-3a6.91 6.91 0 0 0-0.201-3.602l-3e-3 3e-3 -2.003-3.012h3e-3a6.855 6.855 0 0 0-3.206-1.573z" fill="#f2f2f2"/>
  <path transform="matrix(1.1304 0 0 1.1305 1.289 -320.1)" d="m6.35 284.56c-0.6 0-1.178 0.088-1.725 0.25-0.393 0.835-0.378 2.274-0.186 2.949 0.188 0.659 0.453 1.292 0.725 1.917a5.122 5.122 0 0 1-1.328-0.501c-0.721-0.417-1.745-1.615-2.02-2.589a6.067 6.067 0 0 0-1.432 2.85c0.49 0.668 1.62 1.312 2.452 1.52 0.671 0.168 1.35 0.24 2.025 0.298-0.312 0.322-0.65 0.609-1.038 0.838-0.723 0.418-2.276 0.706-3.257 0.455a6.089 6.089 0 0 0 1.686 2.6c0.929-0.074 2.138-0.793 2.611-1.3 0.475-0.507 0.884-1.074 1.284-1.643 0.12 0.447 0.198 0.895 0.202 1.35 0 0.84-0.5 2.344-1.17 3.062a6.105 6.105 0 0 0 2.982-0.16c0.329-0.753 0.326-2.086 0.1-2.924-0.182-0.682-0.45-1.321-0.726-1.95 0.47 0.11 0.92 0.267 1.342 0.505 0.724 0.417 1.751 1.62 2.023 2.596a6.07 6.07 0 0 0 1.401-2.773c-0.532-0.763-1.751-1.445-2.425-1.603-0.671-0.156-1.36-0.228-2.048-0.289a5 5 0 0 1 1.036-0.836c0.723-0.417 2.278-0.705 3.258-0.454a6.088 6.088 0 0 0-1.771-2.664c-0.823 0.098-1.935 0.75-2.528 1.362-0.485 0.502-0.89 1.058-1.282 1.62a5.282 5.282 0 0 1-0.192-1.31c0-0.84 0.5-2.344 1.169-3.062a6.105 6.105 0 0 0-1.17-0.114z" fill="url(#a)"/>
  <path d="m12.056 8.467a3.59 3.59 0 0 1-7.178 0 3.59 3.59 0 1 1 7.178 0z" fill="#fff"/>
  <path d="m10.463 8.607-2.98 1.924c-0.117 0.074-0.213 0.01-0.213-0.177v-3.77c0-0.213 0.094-0.25 0.213-0.176l2.98 1.924c0.133 0.086 0.127 0.192 0 0.275z" fill="#ee526c"/>
 </g>
</svg>
