<svg xmlns="http://www.w3.org/2000/svg" width="64" height="64" viewBox="0 0 16.933 16.933"><defs><linearGradient gradientTransform="matrix(.26458 0 0 .26458 0 284.3)" id="a" x2="0" y1="47" y2="1" gradientUnits="userSpaceOnUse"><stop offset="0" stop-color="#ed4964"/><stop offset="1" stop-color="#ef5b74"/></linearGradient></defs><path d="M9.786 1.716l.001.001-3.27.153a6.88 6.88 0 0 0-3.179 2.013L1.725 7.096a6.918 6.918 0 0 0 .21 3.533l1.893 2.918a6.858 6.858 0 0 0 3.317 1.671h-.002l3.371-.181a6.88 6.88 0 0 0 3.097-2.004h-.001l1.584-3.135.002.002a6.91 6.91 0 0 0-.201-3.602l-.003.003-2.003-3.012h.003a6.855 6.855 0 0 0-3.206-1.573z" fill="#f2f2f2"/><path d="M6.35 284.565c-.6 0-1.178.088-1.725.25-.393.835-.378 2.274-.186 2.949.188.659.453 1.292.725 1.917a5.122 5.122 0 0 1-1.328-.501c-.721-.417-1.745-1.615-2.02-2.589a6.067 6.067 0 0 0-1.432 2.85c.49.668 1.62 1.312 2.452 1.52.671.168 1.35.24 2.025.298-.312.322-.65.609-1.038.838-.723.418-2.276.706-3.257.455a6.089 6.089 0 0 0 1.686 2.6c.929-.074 2.138-.793 2.611-1.3.475-.507.884-1.074 1.284-1.643.12.447.198.895.202 1.35 0 .84-.5 2.344-1.17 3.062a6.105 6.105 0 0 0 2.982-.16c.329-.753.326-2.086.1-2.924-.182-.682-.45-1.321-.726-1.95.47.11.92.267 1.342.505.724.417 1.751 1.62 2.023 2.596a6.07 6.07 0 0 0 1.401-2.773c-.532-.763-1.751-1.445-2.425-1.603-.671-.156-1.36-.228-2.048-.289a5 5 0 0 1 1.036-.836c.723-.417 2.278-.705 3.258-.454a6.088 6.088 0 0 0-1.771-2.664c-.823.098-1.935.75-2.528 1.362-.485.502-.89 1.058-1.282 1.62a5.282 5.282 0 0 1-.192-1.31c0-.84.5-2.344 1.169-3.062a6.105 6.105 0 0 0-1.17-.114z" fill="url(#a)" transform="matrix(1.13041 0 0 1.13046 1.289 -320.102)"/><path d="M12.056 8.467a3.59 3.59 0 0 1-7.178 0 3.59 3.59 0 1 1 7.178 0z" fill="#fff"/><path d="M10.463 8.607l-2.98 1.924c-.117.074-.213.01-.213-.177v-3.77c0-.213.094-.25.213-.176l2.98 1.924c.133.086.127.192 0 .275z" fill="#ee526c"/></svg>