<svg xmlns="http://www.w3.org/2000/svg" width="64" height="64"><rect width="52" height="52" x="6" y="6" fill="#52a8d8" rx="8" ry="8" style="paint-order:stroke fill markers"/><path fill="#474747" d="m41.46 16.62-3.617.768c.562 2.069 2.491 3.139 4.653 4.039l3.577-.77c.959-1.818-2.328-2.833-4.613-4.038zm-7.23 1.538-3.617.769c.325 1.601 2.383 2.842 4.653 4.038l3.618-.77c-1.009-1.52-1.912-3.075-4.654-4.037M27 19.696l-3.618.77c.558 2.055 2.066 3.432 4.654 4.037l3.617-.769c-.631-1.5-2.282-2.829-4.653-4.038m-7.192 1.538-2.615.577a2.1 2.1 0 0 0-.81.346c.89 1.43 1.385 2.951 4.425 3.885l3.615-.77c.141-1.667-1.344-3.023-4.615-4.038m1.115 5.846L16 32.003v13.573C16 46.91 17.014 48 18.27 48h27.459C46.983 48 48 46.91 48 45.576V32.003l-1.23-4.923h-3.692l-2.464 1.23-1.229-1.23h-3.692l-2.464 1.23-1.228-1.23H28.31l-2.464 1.23-1.228-1.23h-3.692z"/><path fill="#f9f9f9" d="M44.505 16.006q-.227 0-.456.048l-2.596.553v.003l4.639 4.043 1.204-.257-.522-2.447c-.243-1.141-1.21-1.937-2.269-1.943m-6.663 1.375-3.61.772 4.639 4.04 3.61-.769zm-7.22 1.543-3.611.77 4.64 4.043 3.61-.772zM23.4 20.465l-3.61.772 4.638 4.043 3.61-.772zm-7.022 1.69c-.72.526-1.109 1.495-.899 2.478l.017.077.507 2.368 4.815-1.027zM16 27.08v4.923h1.231l3.692-4.923zm8.615 0-3.692 4.923h3.692l3.693-4.923zm7.385 0-3.692 4.923H32l3.692-4.923zm7.384 0-3.692 4.923h3.692l3.692-4.923zm7.384 0-3.692 4.923h4.923V27.08z"/><path fill="#f7d36e" d="M18.461 34.464v11.077h27.076V34.464zm1.23 1.231h3.693v8.615h-3.692zm4.924 0h8.615v2.461h-8.615zm9.845 0h9.846v2.461H34.46zm-9.845 3.692h8.615v4.923h-8.615zm9.845 0h9.846v4.923H34.46z"/></svg>