<svg width="64" height="64" version="1.1" viewBox="0 0 64 64" xmlns="http://www.w3.org/2000/svg">
 <rect x="6" y="6" width="52" height="52" rx="8" ry="8" fill="#52a8d8" style="paint-order:stroke fill markers"/>
 <g transform="matrix(1.2307 0 0 1.2307 60.305 -12.205)">
  <path d="m-15.312 23.421-2.9395 0.625c0.45686 1.6806 2.0242 2.5502 3.7812 3.2812l2.9062-0.625c0.77922-1.4774-1.8914-2.3023-3.748-3.2812zm-5.875 1.25-2.9395 0.625c0.26454 1.3011 1.9365 2.3092 3.7812 3.2812l2.9395-0.625c-0.81944-1.236-1.5531-2.4996-3.7812-3.2812zm-5.875 1.25-2.9395 0.625c0.45296 1.6705 1.6785 2.7891 3.7812 3.2812l2.9395-0.625c-0.5133-1.2183-1.8547-2.2985-3.7812-3.2812zm-5.8438 1.25-2.125 0.46875c-0.249 0.053-0.4642 0.13925-0.6582 0.28125 0.72409 1.1615 1.1256 2.3975 3.5957 3.1562l2.9375-0.625c0.1146-1.3548-1.0924-2.4568-3.75-3.2812zm0.90625 4.75-4 4v11.029c0 1.083 0.82375 1.9688 1.8438 1.9688h22.312c1.019 0 1.8457-0.88575 1.8457-1.9688v-11.029l-1-4h-3l-2.002 1-0.99805-1h-3l-2.002 1-0.99805-1h-3l-2.002 1-0.99805-1h-3z" fill="#474747"/>
  <path d="m-12.838 22.923c-0.123-6.57e-4 -0.24641 0.01242-0.37109 0.03906l-2.1094 0.44922v2e-3l3.7695 3.2852 0.97852-0.20898-0.42383-1.9883c-0.19756-0.9268-0.98275-1.5735-1.8438-1.5781zm-5.4141 1.1172-2.9336 0.62695 3.7695 3.2832 2.9336-0.625zm-5.8672 1.2539-2.9336 0.625 3.7695 3.2852 2.9336-0.62695zm-5.8672 1.252-2.9336 0.62695 3.7695 3.2852 2.9336-0.62695zm-5.7051 1.373c-0.58457 0.42757-0.90117 1.2147-0.73047 2.0137l0.01367 0.0625 0.41211 1.9238 3.9121-0.83398s-3.606-3.1641-3.6074-3.166zm-0.30859 4.002v4h1l3-4zm7 0-3 4h3l3-4zm6 0-3 4h3l3-4zm6 0-3 4h3l3-4zm6 0-3 4h4v-4z" fill="#f9f9f9"/>
  <path d="m-34 37.921v9h22v-9zm1 1h3v7h-3zm4 0h7v2h-7zm8 0h8v2h-8zm-8 3h7v4h-7zm8 0h8v4h-8z" fill="#f7d36e"/>
 </g>
</svg>
