<svg width="64" height="64" version="1.1" xmlns="http://www.w3.org/2000/svg">
 <defs>
  <linearGradient id="b" x1="399.57" x2="399.57" y1="545.8" y2="517.8" gradientTransform="matrix(2.1429,0,0,2.1429,-826.36,-1107.5)" gradientUnits="userSpaceOnUse">
   <stop stop-color="#3889e9" offset="0"/>
   <stop stop-color="#5ea5fb" offset="1"/>
  </linearGradient>
 </defs>
 <rect x="6" y="6" width="52" height="52" rx="6" ry="6" fill="#e6e6e6" stroke-width="1.3"/>
 <g transform="matrix(.89997 0 0 .89997 3.183 3.1614)" stroke-width="1.5715">
  <circle cx="32.02" cy="32.044" r="30.001" fill-opacity="0"/>
  <circle cx="32.02" cy="32.044" r="0" fill="url(#b)"/>
 </g>
 <path d="m28.087 23c-0.72261 0-1.3043 0.58174-1.3043 1.3043 0 0 0 9.1304-2.6087 9.1304-0.72261 0-1.3043 0.58174-1.3043 1.3043v2.6087h18.261v-2.6087c0-0.72261-0.58174-1.3043-1.3043-1.3043-2.6087 0-2.6087-9.1304-2.6087-9.1304 0-0.72261-0.58174-1.3043-1.3043-1.3043z" fill="#3e3e3e" stroke-width="1.3044" style="paint-order:stroke fill markers"/>
 <path d="m28 13.739 8 3.9689v5.2919h-8z" fill="#2dc58d" stroke-width="1.3282" style="paint-order:stroke fill markers"/>
 <path d="m22.375 37h19.25c0.76175 0 1.375 0.61325 1.375 1.375v9.625h-22v-9.625c0-0.76175 0.61325-1.375 1.375-1.375z" fill="#2dc58d" stroke-width="1.375" style="paint-order:stroke fill markers"/>
</svg>
