<svg xmlns="http://www.w3.org/2000/svg" width="64" height="64"><defs><linearGradient id="a" x1="399.57" x2="399.57" y1="545.8" y2="517.8" gradientTransform="translate(-826.36 -1107.5) scale(2.1429)" gradientUnits="userSpaceOnUse"><stop offset="0" stop-color="#3889e9"/><stop offset="1" stop-color="#5ea5fb"/></linearGradient></defs><rect width="52" height="52" x="6" y="6" fill="#e6e6e6" rx="6" ry="6"/><circle cx="32.02" cy="32.044" r="30.001" fill="none" stroke-width="1.571" transform="translate(3.183 3.161) scale(.89997)"/><path fill="#3e3e3e" d="M28.087 23c-.723 0-1.304.582-1.304 1.304 0 0 0 9.13-2.609 9.13-.723 0-1.304.582-1.304 1.305v2.609h18.26v-2.609c0-.723-.581-1.304-1.304-1.304-2.608 0-2.608-9.13-2.608-9.13 0-.723-.582-1.305-1.305-1.305z" style="paint-order:stroke fill markers"/><path fill="#2dc58d" d="m28 13.739 8 3.969V23h-8zM22.375 37h19.25c.762 0 1.375.613 1.375 1.375V48H21v-9.625c0-.762.613-1.375 1.375-1.375z" style="paint-order:stroke fill markers"/></svg>