<svg width="64" height="64" version="1.1" xmlns="http://www.w3.org/2000/svg" xmlns:xlink="http://www.w3.org/1999/xlink">
 <g transform="scale(3.7796)" fill-rule="evenodd">
  <path d="m14.287 1.852c0.29315 0 0.52916 0.236 0.52916 0.52916v12.171c0 0.29315-0.236 0.52916-0.52916 0.52916h-6.6145v-13.229z" fill="#d04e4e" style="paint-order:fill markers stroke"/>
  <path d="m2.6458 1.852c-0.29315 0-0.52916 0.236-0.52916 0.52916v12.171c0 0.29315 0.236 0.52916 0.52916 0.52916h6.6145v-13.229z" fill="#ececec" style="paint-order:fill markers stroke"/>
  <path d="m12.7 1.3229c0.25899-0.028774 0.52916 0.070082 0.52916 0.52916v13.229c0 0.42768-0.26965 0.55275-0.52916 0.52916l-4.7627-0.52927v-13.229z" fill="#ccc" style="paint-order:fill markers stroke"/>
 </g>
 <g transform="matrix(-1 0 0 1 15.068 -2.5254)" fill-rule="evenodd">
  <path d="m-2.5103 14.932-2.33 1.1433c-2.3317 1.1442-4.7945 3.7502-4.7945 3.7502l0.36638 2.944c-0.13821 0.20059-0.28327 0.41489-0.42936 0.62925l-1.0362-1.8569-1.6859 2.0984 1.1908 2.0423c-7e-3 0.01055-0.016 0.02316-0.02289 0.03371l-1.4913-1.6939s-0.97074 1.1432-3.9501 5.402c-2.9793 4.2588-5.4414 9.2169-5.4414 9.2169l0.11451 3.3682c-0.1603 0.23725-0.3299 0.4943-0.48661 0.72476l-0.46943-2.7586-1.0362 1.7164-0.26047 1.6546-0.58107 0.69948s-0.96214 3.5989-0.77777 4.2494c0.18438 0.65051 2.624-0.62836 2.624-0.62836l0.12882-0.8568 1.975-0.63487-2.1983-0.43823c0.05297-0.08873 0.11795-0.19668 0.17173-0.28654 0.26303 0.08114 0.5727 0.17206 1.1535 0.27811 1.3925 0.25426 2.33-0.25282 2.33-0.25282l1.0047-1.2726s-0.77722 0.54057-1.6516 0.69948c-0.86138 0.15654-2.326-0.20534-2.3701-0.2163 0.07688-0.12742 0.15934-0.26407 0.23758-0.39328 0.36982-0.09422 3.7025-0.96362 5.6618-2.3457 2.0726-1.462 6.1856-5.9751 6.1856-5.9751 2e-6 0-0.99211-0.0089-3.1295-0.04066-2.014-0.02995-3.7941-0.01618-4 0 0.09296-0.1486 0-1 0-1l8.5864-1.3443s0.55199-1.0489 1.394-2.7333c0.84199-1.6844 3.0196-5.9223 3.0196-5.9223s-1.4625-0.04151-2.7677-0.2213c-1.2458-0.1716-2.4252-0.47171-2.5361-0.50003 0.01508-0.02315 0.03087-0.04715 0.0458-0.07024 0.18133-0.08387 1.3458-0.61988 2.2155-0.89051 0.93886-0.29215 3.8012-0.69667 3.8012-0.69667s0.02289-0.40452 0.22899-1.236c0.20609-0.83151 0.61828-2.7417 0.61828-2.7417l-4.9806 2.8064c0.20965-0.28847 0.40776-0.54504 0.61255-0.81747l4.5512-2.6631s0.0458-0.58431 0.13739-1.3484c0.09158-0.76408 0.07154-1.6209 0.07154-1.6209z" fill="#ec5b45"/>
  <path d="m-2.5085 14.932s-4.6206 4.9406-9.2221 11.275c-4.6015 6.3339-9.2677 13.499-13.934 21.68-4.0519 7.1039-2.5856 7.0455-2.5856 7.0455s0.45951-1.1837 3.6774-6.7614c3.0758-5.3314 6.9669-12.216 13.474-21.705 3.1015-4.5225 8.5901-11.534 8.5901-11.534z" fill="#31363b"/>
 </g>
</svg>
