<svg xmlns="http://www.w3.org/2000/svg" width="64" height="64"><g fill-rule="evenodd"><path fill="#d04e4e" d="M13.493 1.852H8.201v13.229h5.292a1.32 1.32 0 0 0 1.323-1.323V3.175a1.32 1.32 0 0 0-1.32-1.323z" style="paint-order:fill markers stroke" transform="scale(3.7796)"/><path fill="#ececec" d="M3.437 1.852a1.32 1.32 0 0 0-1.32 1.323v10.583c0 .733.59 1.323 1.323 1.323h5.82V1.853z" style="paint-order:fill markers stroke" transform="scale(3.7796)"/><path fill="#ccc" d="M12.171 1.323c.265 0 1.058.052 1.058.794v12.7c0 .793-.727.812-1.058.793l-4.233-.529V1.852z" style="paint-order:fill markers stroke" transform="scale(3.7796)"/></g><g fill-rule="evenodd"><path fill="#ec5b45" d="m17.578 12.407 2.33 1.143c2.332 1.144 4.795 3.75 4.795 3.75l-.367 2.944c.139.2.284.415.43.63l1.036-1.858 1.686 2.099-1.19 2.042.022.034 1.491-1.694s.971 1.143 3.95 5.402 5.442 9.217 5.442 9.217l-.115 3.368c.16.237.33.494.487.725l.47-2.759 1.035 1.717.261 1.654.581.7s.962 3.599.778 4.25c-.185.65-2.624-.63-2.624-.63l-.129-.856-1.975-.635 2.198-.438-.171-.287a9 9 0 0 1-1.154.278c-1.392.255-2.33-.252-2.33-.252l-1.005-1.273s.778.54 1.652.7c.861.156 2.326-.206 2.37-.217l-.238-.393c-.37-.094-3.702-.964-5.661-2.346-2.073-1.462-6.186-5.975-6.186-5.975s.992-.009 3.13-.04c2.014-.03 3.794-.017 4 0-.093-.15 0-1 0-1l-8.587-1.345s-.552-1.049-1.394-2.733-3.02-5.922-3.02-5.922 1.463-.042 2.768-.222a25 25 0 0 0 2.536-.5l-.045-.07c-.182-.084-1.346-.62-2.216-.89-.939-.293-3.801-.697-3.801-.697s-.023-.405-.23-1.236c-.205-.832-.617-2.742-.617-2.742l4.98 2.806c-.21-.288-.408-.545-.612-.817l-4.552-2.663s-.045-.584-.137-1.348-.071-1.621-.071-1.621z"/><path fill="#31363b" d="M17.576 12.407s4.621 4.94 9.223 11.275c4.601 6.334 9.267 13.499 13.934 21.68 4.052 7.104 2.585 7.045 2.585 7.045s-.46-1.184-3.677-6.761c-3.076-5.332-6.967-12.216-13.474-21.705-3.102-4.523-8.59-11.534-8.59-11.534z"/></g></svg>