<svg width="64" height="64" version="1.1" viewBox="0 0 16.933 16.933" xmlns="http://www.w3.org/2000/svg">
 <g transform="translate(0 -280.07)">
  <circle cx="8.4665" cy="288.53" r="7.1436" fill="#00abec" style="paint-order:stroke markers fill"/>
  <circle cx="8.467" cy="288.53" r="5.821" fill="#fff" opacity=".15" paint-order="stroke markers fill"/>
 </g>
 <g transform="matrix(1.0952 0 0 1.0952 -.62956 -1.5946)" fill="#fff" aria-label="e">
  <path d="m10.605 11.006q-0.27388 0.4134-0.77513 0.74929-0.50125 0.33072-1.3281 0.33072-1.1679 0-1.8707-0.75963-0.69762-0.75963-0.69762-1.943v-0.21704q0-0.91465 0.34623-1.5554 0.35139-0.64594 0.90949-0.98183 0.55809-0.34106 1.1885-0.34106 1.1989 0 1.7466 0.78547 0.55293 0.7803 0.55293 1.9533v0.42891h-3.7826q0.02067 0.76996 0.45474 1.3126 0.43924 0.53742 1.204 0.53742 0.50642 0 0.85781-0.2067 0.35139-0.2067 0.61494-0.55293zm-2.2272-3.9325q-0.56843 0-0.96116 0.4134-0.39273 0.4134-0.49092 1.1885h2.7956v-0.072346q-0.036173-0.55809-0.32556-1.0438-0.28421-0.48575-1.018-0.48575z" fill="#fff" stroke-width=".26458"/>
 </g>
</svg>
