<svg width="64" height="64" version="1.1" xmlns="http://www.w3.org/2000/svg" xmlns:xlink="http://www.w3.org/1999/xlink">
 <defs>
  <linearGradient id="a" x1="22.858" x2="22.274" y1="43.732" y2="36.825" gradientTransform="matrix(1.1197 0 0 1.1197 -2.8808 12.914)" gradientUnits="userSpaceOnUse">
   <stop stop-color="#fff80f" offset="0"/>
   <stop stop-color="#fff80f" stop-opacity="0" offset="1"/>
  </linearGradient>
 </defs>
 <circle cx="32" cy="32" r="27" fill="#e6e6e6" fill-rule="evenodd" style="paint-order:stroke fill markers"/>
 <g transform="translate(7.516 -7.9913)">
  <path d="m14.507 47.443c0.1756-2e-3 0.32786-1e-5 0.57248 0.061 0.63837 0.15942 0.83066 0.27979 1.4142 0.885 0.45239 0.46923 0.58275 0.64229 1.0597 1.412 0.59745 0.96417 0.8365 1.4148 1.0597 1.9945 0.0812 0.21092 0.29262 0.68567 0.46949 1.0548 0.17687 0.36908 0.40846 0.90249 0.51495 1.1854 0.10648 0.28296 0.28842 0.72609 0.40415 0.98444 0.11574 0.25835 0.34823 0.81385 0.51637 1.2345 0.16814 0.42061 0.37585 0.91823 0.46168 1.1066 0.11086 0.24336 0.17908 0.34253 0.23653 0.34235 0.10391-3.6e-4 0.76137-0.15732 1.1151-0.26635 0.26628-0.0821 1.0831-0.48059 1.7622-0.85944 0.18455-0.1029 0.53636-0.34593 0.78202-0.54053 0.51198-0.40555 1.9069-1.648 2.0513-1.8268 0.0533-0.0659 0.36888-0.42042 0.70105-0.78769 0.33217-0.36728 0.85516-0.95667 1.1627-1.3105s0.71093-0.81569 0.89638-1.0264c0.18543-0.21065 0.5406-0.62454 0.78911-0.9198 0.61687-0.73293 1.954-2.0404 2.4966-2.4412 0.98927-0.73077 1.6338-1.0497 2.4284-1.2018 0.59225-0.11336 1.0761-0.0689 1.7558 0.16123 0.55422 0.18764 0.72206 0.2685 1.1407 0.55117 0.17223 0.1163 0.36888 0.24544 0.43752 0.28696 0.32692 0.19766 1.3397 1.0632 2.0463 1.7487 1.5413 1.4953 3.073 2.7818 3.182 2.6728 0.0473-0.0473-0.11744-0.45942-0.61226-1.5321-0.16459-0.35677-0.38566-0.88047-0.49151-1.1634-0.10581-0.28296-0.33739-0.85666-0.51424-1.275s-0.40814-1.0017-0.51424-1.297c-0.10604-0.29526-0.33709-0.87938-0.51353-1.2977-0.17645-0.41828-0.42863-1.042-0.5597-1.3865-0.13108-0.34447-0.37831-0.98901-0.54975-1.4319-0.35827-0.92548-1.1647-3.2365-2.4036-6.8897-1.2341-3.6389-1.8349-5.332-2.5399-7.1575-0.60002-1.5535-1.7201-3.857-2.3205-4.7716-0.42197-0.64282-1.2386-1.4938-1.64-1.7089-0.34113-0.18278-0.82325-0.2124-1.2203-0.076-0.28649 0.0984-0.42065 0.16776-0.53767 0.27915-0.0342 0.0326-0.16855 0.14714-0.29904 0.25499-0.18833 0.15566-0.42821 0.44745-0.70032 0.82179-0.10996 0.41264-0.17094 0.82196-0.29052 1.2345-0.56123 1.9364-1.2293 3.8684-2.0051 5.7674-0.77582 1.8991-1.6597 3.7653-2.6529 5.5707-0.49661 0.90273-1.0204 1.7906-1.5718 2.6593-0.55149 0.86873-1.1306 1.7186-1.7373 2.5463s-1.2412 1.6332-1.9035 2.4128c-0.66231 0.77963-1.3522 1.5328-2.0705 2.2573-0.58001 0.58507-1.1917 1.137-1.8084 1.682z" fill="#d5600f"/>
  <path d="m14.507 47.443c0.61669-0.54497 1.2284-1.0969 1.8084-1.682 0.71824-0.72448 1.4082-1.4776 2.0705-2.2572 0.6623-0.77963 1.2968-1.5851 1.9035-2.4128 0.60672-0.82771 1.1858-1.6776 1.7373-2.5464 0.55148-0.86872 1.0752-1.7566 1.5718-2.6593 0.99322-1.8054 1.8771-3.6716 2.6529-5.5707 0.77583-1.8991 1.4439-3.8311 2.0051-5.7675 0.11958-0.4125 0.18061-0.82182 0.29052-1.2345-0.32141 0.44212-0.69293 1.0113-1.145 1.7778-0.25391 0.43059-0.60445 1.005-0.77917 1.2757-0.1747 0.27065-0.37529 0.59142-0.44605 0.71311-0.28651 0.49266-1.2365 1.7888-1.9852 2.709-0.63386 0.77902-1.8359 1.8947-2.2899 2.1252-0.0861 0.0437-0.23754 0.13342-0.33596 0.19959-0.22078 0.14842-0.62998 0.31091-1.1776 0.46736-0.46306 0.13229-1.331 0.56133-1.7032 0.84168-0.6369 0.47971-2.0614 2.0139-2.655 2.8596-0.0923 0.13154-0.23444 0.31115-0.31536 0.39917-0.0808 0.088-0.18618 0.213-0.23439 0.27701-0.0539 0.0716-0.23399 0.17543-0.46807 0.27061-0.20915 0.0851-0.56128 0.23454-0.78272 0.33242-0.22145 0.0979-0.83544 0.34441-1.3644 0.54762-0.52901 0.2032-1.1736 0.46654-1.4319 0.58527s-0.63063 0.27552-0.82748 0.34803c-0.54702 0.20153-1.7148 0.67191-1.8964 0.76426-0.089 0.0453-0.78562 0.32711-1.5484 0.62576-0.76275 0.29864-1.5379 0.61345-1.7224 0.69962-0.18454 0.0863-0.57697 0.25291-0.87222 0.37076-0.70909 0.28308-0.71483 0.31276-0.13424 0.69465 0.20216 0.13299 0.91087 0.64296 1.6052 1.1542 0.14496 0.10672 0.39709 0.28505 0.55969 0.39634 0.16263 0.1113 0.48647 0.34303 0.72024 0.51496 0.23374 0.17192 0.5099 0.36745 0.61367 0.43469 0.17146 0.11107 0.87621 0.61739 1.5512 1.1144 0.14495 0.10672 0.39709 0.28489 0.55969 0.39634 0.27552 0.18882 0.87905 0.62353 1.4994 1.0796 0.50346 0.37015 1.0151 0.70885 1.0711 0.70885 0.0575 0 0.7791-0.28215 0.91555-0.35798 0.16972-0.0942 0.54118-0.18819 0.836-0.21095 0.0478-4e-3 0.0994 0.0163 0.14348 0.0157z" fill="#6dd6cd"/>
 </g>
 <path d="m23.448 52.015c-1.2682-0.0367-2.7543 0.14897-4.4702 0.59923 0.0412 0.0891 0.0653 0.15355 0.10497 0.2362 0.17687 0.36909 0.40746 0.90239 0.51395 1.1854s0.28886 0.72579 0.4046 0.98416c0.11573 0.25834 0.34798 0.81284 0.51612 1.2334 0.16814 0.42062 0.37562 0.91825 0.46146 1.1066 0.11085 0.24336 0.18094 0.34354 0.23839 0.34336 0.10391-3.6e-4 0.75943-0.15777 1.1132-0.26682 0.26629-0.0821 1.0836-0.48063 1.7627-0.85948 0.18454-0.10291 0.53729-0.3456 0.78295-0.5402 0.51197-0.40554 1.907-1.6473 2.0514-1.8261 0.0532-0.0659 0.36767-0.42004 0.69984-0.78732 0.03-0.0331 0.0723-0.0817 0.10498-0.1181-1.0678-0.73837-2.4575-1.2375-4.2843-1.2903z" fill="url(#a)"/>
</svg>
