<?xml version="1.0" encoding="UTF-8"?>
<svg width="64" height="64" version="1.1" viewBox="0 0 16.933 16.933" xmlns="http://www.w3.org/2000/svg">
 <rect x="1.5875" y="1.5875" width="13.758" height="13.758" rx="2.6601" ry="2.6601" fill="#57dee3" stroke-linecap="round" stroke-linejoin="round" stroke-width=".28168" style="paint-order:stroke fill markers"/>
 <path d="m5.6622 10.459c-0.54836-0.11555-1.0616-0.52752-1.3413-1.0766-0.16971-0.33321-0.1791-0.38104-0.1791-0.91262 0-0.50629 0.01499-0.5935 0.15381-0.89451 0.19555-0.42403 0.50458-0.75306 0.90285-0.96125l0.31327-0.16376 3.3412-0.03386-0.07342 0.24132c-0.04038 0.13273-0.26719 0.88504-0.50403 1.6718l-0.43062 1.4305-0.27087 0.28848c-0.2021 0.21524-0.34352 0.31137-0.55705 0.37866-0.304 0.0958-0.97638 0.11162-1.3548 0.03187zm1.3271-0.49592c0.3745-0.18112 0.46476-0.35838 0.86868-1.7061 0.20536-0.6852 0.38314-1.2774 0.39506-1.3159 0.01694-0.05484-0.26221-0.07-1.2807-0.06958-1.2545 5.28e-4 -1.3121 0.0054-1.5659 0.13174-0.32454 0.16162-0.66413 0.54585-0.78824 0.89184-0.118 0.32897-0.09332 0.92745 0.05138 1.246 0.18747 0.41267 0.60529 0.75998 1.053 0.87529 0.32878 0.08467 1.0437 0.05462 1.2667-0.05325zm1.0911 0.45606c0.01399-0.05399 0.24793-0.84287 0.51987-1.7531 0.48803-1.6335 0.49759-1.6583 0.73868-1.9176 0.29803-0.32057 0.39435-0.34374 1.3213-0.31787 0.66828 0.01865 0.71974 0.02855 1.0504 0.20193 0.41218 0.21616 0.73603 0.56841 0.93221 1.014 0.19008 0.43171 0.1988 1.1813 0.01865 1.6042-0.25347 0.59497-0.72084 1.0193-1.2995 1.1797-0.24755 0.06865-0.62841 0.08694-1.8102 0.08694-1.4 0-1.4951-0.0063-1.4713-0.09817zm3.4164-0.49774c0.5112-0.25174 0.83787-0.762 0.87907-1.3731 0.04504-0.66804-0.2897-1.2381-0.90668-1.5439-0.23786-0.11792-0.34274-0.13238-0.9642-0.13287-0.9695-7.62e-4 -0.89891-0.08482-1.4366 1.7104-0.23102 0.77135-0.42038 1.423-0.42079 1.4481-4.16e-4 0.0251 0.58607 0.03772 1.3033 0.02805 1.1981-0.01615 1.3237-0.02725 1.5459-0.13666z" fill="#fff" stroke-width=".054367"/>
</svg>
