<svg width="64" height="64" version="1.1" viewBox="0 0 64 64" xmlns="http://www.w3.org/2000/svg">
 <g transform="translate(0,16)">
  <g transform="translate(1,1)"></g>
 </g>
 <g transform="matrix(1.1739 0 0 1.1739 3.8261 3.8261)" fill="#2d3542">
  <path d="m24 1c12.703 0 23 10.297 23 23s-10.297 23-23 23-23-10.297-23-23 10.297-23 23-23z" fill="#2d3542"/>
 </g>
 <path d="m46.87 37.478c0 6.9151-6.3078 12.522-14.087 12.522-7.7838 0-14.087-5.6066-14.087-12.522 0-6.9151 6.3078-12.522 14.087-12.522 7.7776 0 14.087 5.6066 14.087 12.522" fill="#ffffff"/>
 <path d="m29.683 14c-8.9937 0.34904-7.4833 4.4687-12.553 7.7588 5.051 0.15339 6.1012-3.2337 9.407-3.1054v23.283c5.0071 0.48365 16.912 1.0143 15.524-7.3487-1.0769-6.4143-12.387-1.9628-12.387-1.9628m5.4172 1.2287c1.3821 0 2.556 0.31148 2.7704 1.7421 0.648 4.3231-8.1814 3.24-8.1814 3.24v-3.1054s3.1179-1.8955 5.411-1.8767" fill="#3eacff" fill-rule="evenodd"/>
</svg>
