<svg xmlns="http://www.w3.org/2000/svg" width="64" height="64" viewBox="0 0 16.933 16.933"><rect width="13.229" height="13.229" x="1.852" y="281.92" fill="#e43f3f" paint-order="markers stroke fill" rx="2.035" ry="2.035" transform="matrix(1.04 0 0 1.04 -.339 -291.61)"/><path fill="#fff" d="M8.466 3.704a4.762 4.762 0 0 0-4.762 4.763 4.762 4.762 0 0 0 4.762 4.762 4.762 4.762 0 0 0 4.763-4.763 4.762 4.762 0 0 0-4.763-4.762zm-2.72 2.721h1.36l1.36 2.041 1.361-2.04h1.36v4.082h-1.36V8.807l-.68 1.02h-1.36l-.681-1.02v1.7h-1.36z" color="#bebebe"/></svg>