<svg width="64" height="64" version="1.1" viewBox="0 0 16.933 16.933" xmlns="http://www.w3.org/2000/svg">
 <rect transform="matrix(1.04 0 0 1.04 -.339 -291.61)" x="1.852" y="281.92" width="13.229" height="13.229" rx="2.0349" ry="2.0349" fill="#e43f3f" paint-order="markers stroke fill"/>
 <path d="m8.4665 3.7041a4.7624 4.7624 0 0 0-4.7624 4.7624 4.7624 4.7624 0 0 0 4.7624 4.7624 4.7624 4.7624 0 0 0 4.7624-4.7624 4.7624 4.7624 0 0 0-4.7624-4.7624zm-2.7214 2.7214h1.3607l1.3607 2.041 1.3607-2.041h1.3607v4.0821h-1.3607v-1.7009l-0.68034 1.0205h-1.3607l-0.68034-1.0205v1.7009h-1.3607z" color="#bebebe" fill="#fff" stroke-width=".26458"/>
</svg>
