<svg width="64" height="64" version="1.1" viewBox="0 0 16.933 16.933" xmlns="http://www.w3.org/2000/svg">
 <g transform="translate(-14.4 -259.75) scale(.92857)" stroke-width="1.077">
  <path transform="matrix(.28493 0 0 .28493 15.508 279.73)" d="m9.041 6a3.113 3.113 0 0 0-3.0391 2.9395v38.777a10.378 10.378 0 0 0 10.396 10.277h38.482a3.113 3.113 0 0 0 3.1211-3.123v-38.479a10.378 10.378 0 0 0-10.182-10.393h-38.779z" fill="#2f8ddd" stroke-width="3.7799"/>
  <path d="M17.958 281.443a.74.74 0 0 0-.741.741v11.12c.159.122.322.24.491.353 1.425.949 3.127 1.574 4.832 1.55 1.705-.026 3.413-.733 4.766-2.423.72-.899.827-1.976.596-2.913-.232-.937-.783-1.752-1.444-2.131h-.013a1.628 1.628 0 0 0-1.47.04c-.39.211-.655.538-.74.86l-.08.264c-.061-.003-.126-.015-.185-.026-.303-.053-.526-.179-.596-.41-.09-.713.096-1.296.463-1.735.373-.445.939-.746 1.616-.82 1.149-.126 2.165.382 2.938 1.205.774.822 1.284 1.965 1.377 3.058.2 2.326-1.125 4.675-3.002 6.084h4.527c.41 0 .74-.33.74-.741v-11.106a8.931 8.931 0 0 0-.49-.354c-1.426-.948-3.128-1.574-4.833-1.549-1.705.025-3.413.732-4.766 2.423-.72.898-.827 1.976-.595 2.912.231.937.782 1.739 1.443 2.118l.013.013c.539.25 1.078.173 1.47-.039.39-.212.656-.539.74-.86l.08-.278c.064 0 .123.005.186.013.151.02.294.056.397.119a.441.441 0 0 1 .198.225c.002.003-.001.01 0 .013.19 1.442-.734 2.474-2.078 2.621-1.15.126-2.166-.369-2.94-1.191-.772-.822-1.282-1.966-1.376-3.058-.2-2.333 1.126-4.69 3.01-6.098h-4.534z" fill="#ffba24" fill-rule="evenodd"/>
 </g>
</svg>
