<svg xmlns="http://www.w3.org/2000/svg" xml:space="preserve" width="64" height="64"><path d="M32 5A26.94 26.94 0 0 0 5 32a26.94 26.94 0 0 0 27 27 26.94 26.94 0 0 0 27-27A26.94 26.94 0 0 0 32 5Z" style="fill:#5c913b;fill-opacity:1;stroke:none;stroke-opacity:1"/><path d="M32 9.466A22.484 22.484 0 0 0 9.466 32 22.484 22.484 0 0 0 32 54.534 22.484 22.484 0 0 0 54.534 32 22.484 22.484 0 0 0 32 9.466Z" style="fill:#f8e2b1;fill-opacity:1;stroke:none;stroke-width:.834581;stroke-opacity:1"/><path d="M32 11.596A20.36 20.36 0 0 0 11.596 32 20.36 20.36 0 0 0 32 52.404 20.36 20.36 0 0 0 52.404 32 20.36 20.36 0 0 0 32 11.596Z" style="fill:#dc2d43;fill-opacity:1;stroke:none;stroke-width:.755721;stroke-opacity:1"/><g transform="rotate(-45 32.202 31.935)"><path d="M20.354 43.86v-9.863c0-.705 2.307-2.13 2.985-2.13h18.658c.835 0 2.456 1.621 2.456 1.918v9.887c0 1.163-1.935 2.274-2.452 2.274h-18.72c-1.179 0-2.927-1.405-2.927-2.085zm0-14.919v-9.863c0-.705 2.307-2.13 2.985-2.13h18.658c.835 0 2.456 1.621 2.456 1.917v9.888c0 1.163-1.935 2.274-2.452 2.274h-18.72c-1.179 0-2.927-1.406-2.927-2.086z" style="opacity:1;fill:#ff554d;fill-opacity:1;stroke:none;stroke-width:.436636;stroke-linecap:butt;stroke-linejoin:miter;stroke-dasharray:none;stroke-opacity:1"/><path d="M25.4 26.867v-5.733c0-.41 1.34-1.238 1.735-1.238H37.98c.485 0 1.427.942 1.427 1.114v5.748c0 .676-1.125 1.322-1.425 1.322H27.1c-.686 0-1.702-.817-1.702-1.213z" style="opacity:1;fill:#31352e;fill-opacity:1;stroke:none;stroke-width:.253818;stroke-linecap:butt;stroke-linejoin:miter;stroke-dasharray:none;stroke-opacity:1"/><rect width="3.812" height="3.892" x="22.252" y="37.242" ry=".881" style="opacity:1;fill:#31352e;fill-opacity:1;stroke:none;stroke-width:.436636;stroke-linecap:round;stroke-dasharray:none;stroke-opacity:1"/><rect width="3.812" height="3.892" x="38.7" y="37.242" ry=".881" style="opacity:1;fill:#31352e;fill-opacity:1;stroke:none;stroke-width:.436636;stroke-linecap:round;stroke-dasharray:none;stroke-opacity:1"/></g></svg>