<svg xmlns="http://www.w3.org/2000/svg" width="64" height="64"><g stroke-width=".769" transform="matrix(1.3 0 0 1.3 .761 -20.013)"><rect width="40" height="40" x="4.03" y="20.01" fill="#d8394b" rx="6.154" ry="6.154"/><path fill="#f5cdcd" d="M15.52 29.002c-1.306.04-2.567.63-3.533 1.524-.982.908-1.686 2.156-1.828 3.497a4.648 4.648 0 0 0 .217 1.996c.219.637.59 1.222 1.081 1.675.58.534 1.305.871 1.97 1.29.334.209.656.44.932.723.275.282.505.617.631.993.113.335.14.697.09 1.048-.05.35-.178.688-.364.987-.371.599-.97 1.035-1.628 1.268-.763.27-1.603.284-2.339.624a3.018 3.018 0 0 0-1.376 1.31 3.245 3.245 0 0 0-.352 1.885c.087.759.444 1.48.98 2.015a3.606 3.606 0 0 0 5.03.036c.396-.39.698-.876.866-1.409.169-.533.204-1.11.094-1.66-.084-.418-.248-.815-.4-1.213-.153-.399-.296-.807-.333-1.232-.065-.752.218-1.517.71-2.083.49-.566 1.177-.938 1.902-1.103a3.64 3.64 0 0 1 1.427-.047c.473.082.93.271 1.312.564.383.293.689.691.859 1.147.17.455.2.967.064 1.434-.139.479-.437.889-.739 1.282s-.618.788-.798 1.252a2.692 2.692 0 0 0-.082 1.621c.136.533.422 1.021.798 1.417.415.438.941.767 1.513.946.572.18 1.157.21 1.756.21s1.223-.03 1.795-.21a3.567 3.567 0 0 0 1.513-.946c.376-.396.662-.884.798-1.417a2.692 2.692 0 0 0-.082-1.621c-.18-.464-.496-.859-.798-1.252-.302-.393-.6-.803-.739-1.282a2.307 2.307 0 0 1 .065-1.434c.17-.456.475-.854.858-1.147.383-.293.84-.482 1.312-.564a3.64 3.64 0 0 1 1.427.047c.725.165 1.411.537 1.902 1.103.492.566.775 1.331.71 2.083-.037.426-.18.833-.332 1.232-.153.398-.317.795-.401 1.214a3.359 3.359 0 0 0 .094 1.66c.168.532.47 1.019.866 1.408.792.779 1.955 1.133 3.044.964a3.607 3.607 0 0 0 1.987-1 3.437 3.437 0 0 0 .98-2.015 3.245 3.245 0 0 0-.353-1.886 3.017 3.017 0 0 0-1.376-1.309c-.735-.34-1.576-.354-2.339-.624-.657-.233-1.257-.67-1.628-1.268a2.575 2.575 0 0 1-.364-.987c-.05-.35-.022-.713.09-1.048.126-.376.356-.711.632-.993.275-.282.597-.514.93-.724.666-.418 1.391-.755 1.971-1.29a4.092 4.092 0 0 0 1.081-1.674 4.649 4.649 0 0 0 .217-1.995c-.142-1.342-.846-2.59-1.828-3.498-.966-.894-2.227-1.483-3.533-1.524a4.507 4.507 0 0 0-1.912.354 4.102 4.102 0 0 0-1.562 1.17c-.478.587-.777 1.3-1.052 2.007-.275.708-.534 1.43-.95 2.063-.686 1.043-1.769 2.035-3.004 2.035s-2.317-.992-3.003-2.035c-.416-.633-.675-1.355-.95-2.063-.275-.708-.575-1.42-1.052-2.007a4.102 4.102 0 0 0-1.562-1.17 4.507 4.507 0 0 0-1.912-.354zM24 38.666a2.002 2.035 0 0 1 2.002 2.034A2.002 2.035 0 0 1 24 42.735a2.002 2.035 0 0 1-2.002-2.035A2.002 2.035 0 0 1 24 38.665z"/></g></svg>