<svg xmlns="http://www.w3.org/2000/svg" xmlns:xlink="http://www.w3.org/1999/xlink" width="64" height="64" viewBox="0 0 16.933 16.933"><defs><linearGradient id="a"><stop offset="0"/><stop offset="1" stop-opacity="0"/></linearGradient><linearGradient xlink:href="#a" id="b" x1="43.152" y1="56" x2="43.152" y2="8" gradientUnits="userSpaceOnUse"/></defs><g transform="translate(0 -280.067)"><rect width="13.758" height="12.7" x="1.587" y="282.183" ry=".794" rx=".794" fill="#6961b8" paint-order="stroke markers fill"/><path d="M48.533 8A42.5 42.5 0 0 1 50 19a42.5 42.5 0 0 1-21.695 37H55c1.662 0 3-1.338 3-3V11c0-1.662-1.338-3-3-3h-6.467z" transform="matrix(.26458 0 0 .26458 0 280.067)" opacity=".25" fill="url(#b)" paint-order="stroke markers fill"/><rect width="6.879" height="7.938" x="5.027" y="284.565" ry=".529" rx=".529" fill="#fff" stroke="#000" stroke-width=".529" stroke-linecap="round" stroke-linejoin="round" stroke-opacity=".196" paint-order="markers stroke fill"/><path d="M5.027 285.888h6.88v.264h-6.88zM5.027 287.475h6.88v.265h-6.88zM5.027 289.063h6.88v.264h-6.88zM5.027 290.65h6.88v.265h-6.88z" opacity=".1" paint-order="markers stroke fill"/><circle cx="5.821" cy="285.358" r=".265" fill="#6961b8" paint-order="markers stroke fill"/><circle r=".265" cy="286.946" cx="5.821" fill="#6961b8" paint-order="markers stroke fill"/><circle cx="5.821" cy="288.533" r=".265" fill="#6961b8" paint-order="markers stroke fill"/><circle r=".265" cy="290.121" cx="5.821" fill="#6961b8" paint-order="markers stroke fill"/><circle cx="5.821" cy="291.708" r=".265" fill="#6961b8" paint-order="markers stroke fill"/></g></svg>