<svg xmlns="http://www.w3.org/2000/svg" width="64" height="64"><path fill="#5ae2b5" d="M37.13 35.199c-.17.221-.696.527-.696 1.194 0 .55.359 1.08.996 1.524 3.033 2.11 8.75 1.831 8.766 1.831a12.565 12.565 0 0 0 6.385-1.76c3.966-2.317 6.409-5.365 6.418-9.958.055-4.726-1.687-7.869-2.392-9.26C52.137 10.027 42.49 5 31.999 5 17.235 5 5.208 16.855 5 31.615c.101-7.706 7.762-14.856 16.875-14.856.738 0 4.948.072 8.859 2.124 3.446 1.81 5.252 4.92 6.507 7.086 1.824 3.442 1.903 6.603-.11 9.23z" class="cls-5"/><path fill="#0b5ead" d="M53.738 45.184c-2.587 2.546-6.601 3.15-9.796 3.166-9.98 0-18.676-7.675-18.676-16.484a6.639 6.639 0 0 1 3.466-5.76c-9.028.38-11.348 9.786-11.348 15.297 0 15.581 14.363 17.161 17.456 17.161 1.668 0 4.185-.485 5.695-.962l.276-.092a27.063 27.063 0 0 0 14.047-11.136c.469-.739-.357-1.615-1.122-1.19z" class="cls-1"/><path fill="#008ef5" d="M26.491 55.914a16.706 16.706 0 0 1-4.796-4.5c-6.234-8.54-2.447-20.637 7.038-25.308.658-.31 1.782-.87 3.278-.843a6.825 6.825 0 0 1 5.419 2.742 6.723 6.723 0 0 1 1.341 3.935c0-.044 5.16-16.788-16.875-16.788-9.26 0-16.875 8.786-16.875 16.495a27.442 27.442 0 0 0 2.555 11.81c5.812 12.4 19.99 18.485 32.984 14.153-4.449 1.402-10.098.786-14.052-1.687z" class="cls-3"/></svg>