<?xml version="1.0" encoding="UTF-8"?>
<svg width="64" height="64" version="1.1" xmlns="http://www.w3.org/2000/svg" xmlns:cc="http://creativecommons.org/ns#" xmlns:dc="http://purl.org/dc/elements/1.1/" xmlns:rdf="http://www.w3.org/1999/02/22-rdf-syntax-ns#">
 <metadata>
  <rdf:RDF>
   <cc:Work rdf:about="">
    <dc:format>image/svg+xml</dc:format>
    <dc:type rdf:resource="http://purl.org/dc/dcmitype/StillImage"/>
    <dc:title/>
   </cc:Work>
  </rdf:RDF>
 </metadata>
 <path class="cls-5" d="m37.13 35.199c-0.17085 0.22144-0.69606 0.52725-0.69606 1.1937 0 0.55044 0.35858 1.0798 0.99558 1.5248 3.0331 2.109 8.7514 1.8306 8.7662 1.8306 2.2475-0.0054 4.4523-0.61353 6.3848-1.761 3.9666-2.3158 6.4091-5.3645 6.4185-9.9572 0.05484-4.7263-1.6875-7.8686-2.392-9.2606-4.4695-8.7417-14.117-13.769-24.608-13.769-14.764-0.0014214-26.791 11.855-26.999 26.615 0.10126-7.7062 7.7621-14.856 16.875-14.856 0.73825 0 4.9484 0.07171 8.8589 2.1237 3.4465 1.8096 5.2521 4.9205 6.5072 7.0865 1.8242 3.4415 1.9026 6.6023-0.10968 9.2295z" fill="#5ae2b5"/>
 <path class="cls-1" d="m53.738 45.184c-2.5875 2.5457-6.6011 3.15-9.7955 3.1657-9.9811 0-18.676-7.6747-18.676-16.484 0.02603-2.4059 1.3519-4.6095 3.4655-5.7596-9.0277 0.37962-11.348 9.7857-11.348 15.297 0 15.581 14.363 17.161 17.456 17.161 1.6685 0 4.1849-0.48507 5.695-0.96169l0.27632-0.09279c5.8116-2.0088 10.766-5.9362 14.047-11.136 0.46871-0.73837-0.35757-1.6142-1.1221-1.1895z" fill="#0b5ead"/>
 <path class="cls-3" d="m26.491 55.914c-1.8813-1.1675-3.5118-2.6974-4.7965-4.5005-6.2339-8.5396-2.4469-20.636 7.0385-25.307 0.6581-0.31002 1.7823-0.87101 3.2779-0.84359 2.1358 0.01562 4.1412 1.0302 5.4188 2.7416 0.85178 1.1371 1.3214 2.5148 1.3415 3.9353 0-0.04428 5.1593-16.788-16.875-16.788-9.2598 0-16.875 8.7861-16.875 16.495-0.036517 4.0776 0.83605 8.1122 2.5544 11.81 5.8126 12.4 19.991 18.485 32.984 14.153-4.4482 1.4023-10.098 0.78572-14.052-1.6872z" fill="#008ef5"/>
 <rect x="23" y="41" width="36" height="18" rx="4.1534" ry="3.857" fill="#50e6ff"/>
 <g opacity=".85" stroke-width=".27435" aria-label="BETA">
  <path d="m29.241 49.097q0.48761 0 0.73945-0.21433t0.25184-0.63228q0-0.41259-0.25184-0.62693-0.25184-0.21969-0.73945-0.21969h-1.1413v1.6932zm0.06966 3.499q0.62157 0 0.93235-0.26256 0.31614-0.26256 0.31614-0.79304 0-0.51976-0.31078-0.77696-0.31078-0.26256-0.93771-0.26256h-1.211v2.0951zm1.9183-2.8774q0.66444 0.1929 1.0288 0.71266 0.36437 0.51976 0.36437 1.2753 0 1.1574-0.78232 1.7254t-2.3791 0.56798h-3.424v-8h3.0971q1.6664 0 2.4113 0.50368 0.75017 0.50368 0.75017 1.6129 0 0.58406-0.27328 0.99665-0.27328 0.40723-0.79304 0.60549z"/>
  <path d="m34.401 46h5.5673v1.5593h-3.5044v1.4896h3.2954v1.5593h-3.2954v1.8326h3.6222v1.5593h-5.6852z"/>
  <path d="m40.944 46h7.3731v1.5593h-2.6524v6.4407h-2.063v-6.4407h-2.6577z"/>
  <path d="m53.386 52.543h-3.2257l-0.50904 1.4575h-2.0737l2.9632-8h2.4595l2.9632 8h-2.0737zm-2.7113-1.4843h2.1916l-1.0931-3.1829z"/>
 </g>
</svg>
