<svg xmlns="http://www.w3.org/2000/svg" width="64" height="64" viewBox="0 0 16.933 16.933"><rect width="13.229" height="13.229" x="1.852" y="281.92" fill="#34c47f" stroke-width=".962" paint-order="markers stroke fill" rx="2.035" ry="2.035" transform="matrix(1.04 0 0 1.04 -.339 -291.61)"/><g fill="#fff" fill-rule="evenodd" stroke-width=".265" clip-rule="evenodd"><path d="M11.012 5.92c.31.31.31.813 0 1.123l-3.969 3.969A.794.794 0 1 1 5.921 9.89L9.89 5.92a.794.794 0 0 1 1.122 0z" opacity=".4"/><path d="M5.292 6.414v4.105l.629-.63a.794.794 0 1 1 1.122 1.123l-1.306 1.307c-.75.75-2.033.219-2.033-.842V5.456c0-1.06 1.282-1.592 2.033-.842l5.905 5.905V6.414l-.63.63A.794.794 0 0 1 9.89 5.92l1.307-1.307c.75-.75 2.032-.219 2.032.842v6.021c0 1.06-1.282 1.592-2.032.842z"/></g></svg>