<svg width="64" height="64" version="1.1" xmlns="http://www.w3.org/2000/svg">
 <g transform="matrix(1.3 0 0 1.3 -499.18 -648.9)" stroke-width=".76923">
  <g stroke-width=".76923">
   <rect x="388.6" y="503.77" width="40" height="40" rx="3" ry="3" fill="#ccc"/>
   <circle cx="408.6" cy="523.77" r="17.045" fill="#333"/>
   <circle cx="408.6" cy="523.77" r="7.102" fill="#4d4d4d"/>
   <circle cx="408.6" cy="523.77" r="5.208" fill="#1abc9c"/>
   <circle cx="408.6" cy="523.77" r=".473" fill="#333"/>
   <g fill="none" stroke="#4d4d4d">
    <circle cx="408.6" cy="523.77" r="16.985" stroke-width=".07284"/>
    <g stroke-width=".3642">
     <circle cx="408.6" cy="523.77" r="13.672"/>
     <circle cx="408.6" cy="523.77" r="10.357"/>
     <circle cx="408.6" cy="523.77" r="16.808"/>
    </g>
   </g>
   <circle cx="393.32" cy="509.7" r="2.624" fill="#4aaee8" opacity=".98"/>
  </g>
  <path d="m393.44 510.05 2.7515 15.197s0.47776 2.9817 2.4524 4.0557 4.9404 2.3429 4.9404 2.3429" fill="none" stroke="#4aaee8" stroke-linecap="round" stroke-width=".9712"/>
  <rect transform="rotate(-64.35)" x="-305.85" y="589.21" width="2.537" height="3.7" rx="0" ry="0" fill="#2c99d8" fill-opacity=".99608" stroke-width="0"/>
  <path d="m391.6 508.77 0.83925 4.2648 1.4838 2.9277 1.1514-0.20996 0.30651-3.3422-0.83926-4.2648c-1.0052-0.27038-2.4448 0.17387-2.9417 0.62439z" fill="#2c99d8" fill-opacity=".99608" stroke-miterlimit="0" stroke-width="0"/>
 </g>
</svg>
