<svg xmlns="http://www.w3.org/2000/svg" width="64" height="64" image-rendering="optimizeSpeed"><path fill="#ececec" d="M55.9 19.278a25 25 0 0 0-.438-.778c-1.161-1.974-2.62-3.844-4.367-5.592q-6.23-6.23-14.51-7.553a28 28 0 0 0-2.863-.306 31 31 0 0 0-3.318-.006q-10.154.524-17.496 7.865a29 29 0 0 0-3.129 3.684 25.6 25.6 0 0 0-2.265 3.844l-.001-.001Q5 25.697 5 32q0 11.186 7.908 19.094c3.244 3.24 6.896 5.486 10.932 6.725a27.2 27.2 0 0 0 6.564 1.14h.023c.486.026.95.04 1.401.04H32a33 33 0 0 0 2.12-.07 28 28 0 0 0 3.357-.441c.455-.089.904-.189 1.339-.295 4.622-1.161 8.703-3.524 12.278-7.099q4.17-4.169 6.141-9.255 1.584-4.088 1.748-8.781Q59 32.538 59 32v-.172a28 28 0 0 0-.818-6.693 29 29 0 0 0-.209-.778c-.057-.194-.114-.391-.18-.6a25.4 25.4 0 0 0-1.893-4.479"/><path fill="none" stroke="#474747" stroke-width=".962" d="M42.312 26.262A15.066 11.179 59 1 1 23.15 37.777a15.066 11.179 59 1 1 19.163-11.515z"/><g stroke-width=".767"><path fill="#462aae" d="M32.708 23.784c-4.985 0-9.025 4.038-9.025 9.025s4.038 9.026 9.025 9.026 9.026-4.039 9.026-9.026-4.039-9.025-9.026-9.025m-1.614 4.77c3.39 0 6.164 2.736 6.164 6.126s-2.773 6.164-6.164 6.164-6.127-2.773-6.127-6.164 2.737-6.127 6.127-6.127z"/><path fill="#474747" d="M14.334 32.89s-3.523 3.364-3.248 5.465c.38 2.897 4.019 3.36 6.89 3.326 6.964-.08 31.762-8.217 31.68-17.978-.025-3.156-5.702-3.435-5.702-3.247 0 0 4.21 1.056 4.118 3.088-.342 7.577-21.055 16.083-30.254 16.315-1.93.049-4.618-.367-5.386-2.138-.688-1.589 1.9-4.831 1.9-4.831z"/><path fill="#c4303d" d="M42.214 23.817a4.396 4.396 0 1 1-8.792 0 4.396 4.396 0 1 1 8.792 0"/><path fill="#606060" d="M30.216 38.43a2.812 2.812 0 1 1-5.623 0 2.812 2.812 0 1 1 5.623 0"/></g></svg>