<svg width="64" height="64" version="1.1" xmlns="http://www.w3.org/2000/svg">
 <rect x="6" y="6" width="52" height="52" rx="12" ry="12" fill="#8d74de"/>
 <rect x="9" y="9" width="46" height="46" rx="9" ry="9" fill="#ffffff" opacity=".1"/>
 <rect x="15" y="15" width="34" height="34" rx="3" ry="3" fill="#ffffff"/>
 <path d="m34 42c-0.554 0-1 0.3345-1 0.75v2.25h1v-2h1v2h1v-2h1v2h1v-2.25c0-0.4155-0.446-0.75-1-0.75h-3zm8 0c-0.554 0-1 0.3345-1 0.75v1.5c0 0.4155 0.446 0.75 1 0.75h3c0.554 0 1-0.3345 1-0.75v-1.5c0-0.4155-0.446-0.75-1-0.75h-3zm-2.5 1c-0.277 0-0.5 0.223-0.5 0.5s0.223 0.5 0.5 0.5 0.5-0.223 0.5-0.5-0.223-0.5-0.5-0.5zm2.5 0h3v1h-3v-1z" fill="#9aa0aa"/>
 <path d="m22 15v5c0 1.662 1.338 3 3 3h14c1.662 0 3-1.338 3-3v-5h-20z" fill="#333333"/>
 <path d="m26 19v1h4v-1h-4zm8 0v1h4v-1h-4z" fill="#fbe604"/>
</svg>
