<svg xmlns="http://www.w3.org/2000/svg" width="64" height="64"><rect width="52" height="52" x="6" y="6" fill="#8d74de" rx="12" ry="12"/><rect width="46" height="46" x="9" y="9" fill="#fff" opacity=".1" rx="9" ry="9"/><rect width="34" height="34" x="15" y="15" fill="#fff" rx="3" ry="3"/><path fill="#9aa0aa" d="M34 42c-.554 0-1 .335-1 .75V45h1v-2h1v2h1v-2h1v2h1v-2.25c0-.415-.446-.75-1-.75zm8 0c-.554 0-1 .335-1 .75v1.5c0 .415.446.75 1 .75h3c.554 0 1-.335 1-.75v-1.5c0-.415-.446-.75-1-.75zm-2.5 1a.499.499 0 1 0 0 1 .499.499 0 1 0 0-1m2.5 0h3v1h-3z"/><path fill="#333" d="M22 15v5c0 1.662 1.338 3 3 3h14c1.662 0 3-1.338 3-3v-5z"/><path fill="#fbe604" d="M26 19v1h4v-1zm8 0v1h4v-1z"/></svg>