<svg width="64" height="64" version="1" xmlns="http://www.w3.org/2000/svg">
 <rect x="6" y="6" width="52" height="52" rx="8" ry="8" fill="#f2f2f2" stroke-width="0"/>
 <g transform="matrix(.67857 0 0 .67857 10.286 10.286)">
  <circle cx="49" cy="43" r="13" fill="#fcbd1e"/>
  <rect x="2" y="4" width="52" height="52" rx="26" ry="26" fill="#ff7000"/>
  <path d="m22.404 10.969c-0.08821 1.3847-0.19376 3.3171-0.27539 5.5547-2.6015 0.0052-5.1907-0.07395-7.748-0.25195l-0.38086 5.4609c2.6539 0.18472 5.3284 0.26791 8.0078 0.26562-0.01073 1.4702-0.0012 2.9879 0.0332 4.5273-3.0769 1.4303-5.9617 3.6446-7.9375 6.2578-1.1984 1.5851-2.1375 3.3863-2.1035 5.5215 0.03402 2.1352 1.4366 4.3046 3.5137 5.4766 2.8938 1.6328 6.1383 1.3547 8.9727 0.19141 0.18327 0.45432 0.3753 0.89788 0.58789 1.3184l4.8848-2.4707c-0.24066-0.476-0.46603-1.0771-0.67578-1.7715 1.8292-1.4479 3.5236-3.1482 5.082-4.8945 1.7989-2.0158 3.1186-3.9153 4.4453-5.7637 0.76147 0.31666 1.4276 0.70269 1.9355 1.1895 0.93325 0.8943 1.585 2.0877 1.7012 4.2988 0.05388 1.0251-0.34772 1.8675-1.4023 2.9043s-2.7288 2.0529-4.4883 2.8516c-3.519 1.5973-7.2031 2.3496-7.2031 2.3496l1.0723 5.3672s4.1658-0.81301 8.3945-2.7324c2.1144-0.9597 4.2886-2.1896 6.0625-3.9336s3.1803-4.2201 3.0293-7.0938c-0.1747-3.324-1.4271-6.0926-3.3789-7.9629-0.77338-0.7411-1.6744-1.2395-2.5801-1.7168 0.2305-0.37788 0.88672-1.3906 0.88672-1.3906l-4.7266-2.7598s-0.84954 1.3326-1.6133 2.5137c-3.1403-0.37488-6.2957-0.07423-9.0156 0.50391-0.01011-0.98486-0.0081-1.9511 0-2.9043 5.6825-0.2486 11.338-0.85824 16.812-1.7285l-0.85938-5.4043c-5.1705 0.82197-10.498 1.3966-15.826 1.6445 0.07754-2.0363 0.1746-3.7947 0.25586-5.0703zm8.916 18.76c0.36055 4.23e-4 0.71201 0.05088 1.0859 0.02539-0.75341 0.95974-1.2784 1.8071-2.125 2.7559-0.70968 0.79524-1.448 1.5605-2.1953 2.2812-0.17283-1.4101-0.30586-2.9072-0.4043-4.4316 1.0056-0.24748 2.1145-0.46487 3.2734-0.60938 0.12314-0.01535 0.24505-0.02163 0.36523-0.02148zm-9.0078 2.9648c0.14813 2.0571 0.36771 4.0568 0.70508 5.9375-2.0166 1.0336-3.4316 1.1631-4.8145 0.38281-0.86556-0.48839-0.72396-0.50867-0.72852-0.79492-0.0046-0.28625 0.24232-1.1378 0.99609-2.1348 0.86144-1.1393 2.2929-2.3705 3.8418-3.3906z" color="#000000" fill="#ffffff" style="-inkscape-stroke:none"/>
  <circle cx="45" cy="53" r="7" fill="#ffffff"/>
 </g>
</svg>
