<svg xmlns="http://www.w3.org/2000/svg" width="64" height="64" version="1"><rect width="52" height="52" x="6" y="6" fill="#f2f2f2" rx="8" ry="8"/><g transform="translate(10.286 10.286)scale(.67857)"><circle cx="49" cy="43" r="13" fill="#fcbd1e"/><rect width="52" height="52" x="2" y="4" fill="#ff7000" rx="26" ry="26"/><path fill="#fff" d="M22.404 10.969a209 209 0 0 0-.275 5.555c-2.602.005-5.191-.074-7.748-.252L14 21.732c2.654.185 5.328.269 8.008.266-.011 1.47-.002 2.988.033 4.528-3.077 1.43-5.962 3.644-7.938 6.257-1.198 1.585-2.137 3.387-2.103 5.522s1.436 4.304 3.513 5.476c2.894 1.633 6.139 1.355 8.973.192.183.454.375.898.588 1.318l4.885-2.47c-.24-.476-.466-1.078-.676-1.772 1.83-1.448 3.524-3.148 5.082-4.894 1.799-2.016 3.119-3.916 4.445-5.764.762.317 1.428.703 1.936 1.19.933.894 1.585 2.087 1.701 4.298.054 1.025-.348 1.868-1.402 2.904s-2.729 2.053-4.489 2.852c-3.519 1.597-7.203 2.35-7.203 2.35l1.073 5.367s4.165-.813 8.394-2.733c2.115-.96 4.289-2.19 6.063-3.933s3.18-4.22 3.029-7.094c-.175-3.324-1.427-6.093-3.379-7.963-.773-.74-1.674-1.24-2.58-1.717.23-.378.887-1.39.887-1.39l-4.727-2.76s-.85 1.333-1.613 2.514c-3.14-.375-6.296-.075-9.016.504q-.014-1.476 0-2.905c5.683-.248 11.338-.858 16.812-1.728l-.86-5.405a144 144 0 0 1-15.825 1.645c.077-2.036.174-3.795.256-5.07zm8.916 18.76c.36 0 .712.05 1.086.025-.754.96-1.278 1.807-2.125 2.756-.71.796-1.448 1.56-2.195 2.281a78 78 0 0 1-.405-4.431 29 29 0 0 1 3.274-.61q.185-.022.365-.021m-9.008 2.965c.148 2.057.368 4.057.705 5.937-2.016 1.034-3.431 1.163-4.814.383-.866-.488-.724-.509-.729-.795-.004-.286.243-1.138.996-2.135.862-1.139 2.293-2.37 3.842-3.39" color="#000" style="-inkscape-stroke:none"/><circle cx="45" cy="53" r="7" fill="#fff"/></g></svg>