<svg xmlns="http://www.w3.org/2000/svg" width="64" height="64"><defs><linearGradient id="a" x1="14.679" x2="2.293" y1="293.79" y2="282.98" gradientTransform="matrix(3.7795 0 0 3.9437 0 -1105.9)" gradientUnits="userSpaceOnUse"><stop offset="0" stop-color="#66bcff"/><stop offset="1" stop-color="#b29aff"/></linearGradient></defs><rect width="56" height="48" x="4" y="8" fill="url(#a)" rx="5" ry="5"/><rect width="50" height="4" x="6.999" y="10" opacity=".35" rx="2" ry="2"/><rect width="3.999" height="1.999" x="8" y="11" opacity=".35" ry="1.002" style="paint-order:stroke markers fill"/><rect width="10.001" height="1.999" x="27.001" y="11" opacity=".35" ry="1.002" style="paint-order:stroke markers fill"/><rect width="1.999" height="1.999" x="53.999" y="11" opacity=".35" ry="1.002" style="paint-order:stroke markers fill"/><rect width="3.001" height="1.999" x="50" y="11" opacity=".35" ry="1.002" style="paint-order:stroke markers fill"/><rect width="1.999" height="1.999" x="46.999" y="11" opacity=".35" ry="1.002" style="paint-order:stroke markers fill"/><rect width="37.996" height="5" x="13.002" y="48.001" fill="#fff" opacity=".35" paint-order="markers stroke fill" rx="1" ry="1"/><g fill="#ccdfff" transform="translate(0 6.51)scale(3.7796)"><rect width="1.323" height="1.323" x="4.233" y="10.448" rx=".264" ry=".264" style="paint-order:stroke markers fill"/><rect width="1.323" height="1.323" x="6.614" y="10.448" rx=".264" ry=".264" style="paint-order:stroke markers fill"/><rect width="1.323" height="1.323" x="8.996" y="10.448" rx=".264" ry=".264" style="paint-order:stroke markers fill"/><rect width="1.323" height="1.323" x="11.376" y="10.448" rx=".264" ry=".264" style="paint-order:stroke markers fill"/></g><g transform="translate(3.02 -.976)"><ellipse cx="51.929" cy="43.781" fill="#666" rx="12" ry="12.001" transform="rotate(4.856)skewX(-.017)"/><rect width="5" height="4" x="40.023" y="46.019" fill="#fff" fill-rule="evenodd" ry="1"/><path fill="#fff" d="m46.023 43.019-3 3v4l3 3z"/><path fill="#fff" fill-rule="evenodd" d="M53.162 41.447c-.545-.428-1.139.224-.684.732a8 8 0 0 1 2.545 5.84 8 8 0 0 1-2.554 5.852c-.446.471.18 1.148.677.728a9 9 0 0 0 2.877-6.58 9 9 0 0 0-2.861-6.572"/><path fill="#fff" fill-rule="evenodd" d="M50.798 42.908c-.587-.535-1.199.225-.684.732a6 6 0 0 1 1.909 4.379 6 6 0 0 1-1.916 4.389c-.469.446.173 1.146.68.728a7 7 0 0 0 2.236-5.117 7 7 0 0 0-2.225-5.111"/><path fill="#fff" fill-rule="evenodd" d="M48.433 44.369c-.52-.494-1.155.22-.683.73a4 4 0 0 1 1.273 2.92 4 4 0 0 1-1.277 2.926c-.473.43.14 1.152.68.73a5 5 0 0 0 1.597-3.656 5 5 0 0 0-1.59-3.65"/></g></svg>