<svg width="64" height="64" version="1.1" xmlns="http://www.w3.org/2000/svg">
 <defs>
  <linearGradient id="linearGradient9555" x1="14.679" x2="2.2933" y1="293.79" y2="282.98" gradientTransform="matrix(3.7795 0 0 3.9437 -.00086969 -1105.9)" gradientUnits="userSpaceOnUse">
   <stop stop-color="#66bcff" offset="0"/>
   <stop stop-color="#b29aff" offset="1"/>
  </linearGradient>
 </defs>
 <rect x="4" y="8" width="56" height="48" rx="5" ry="5" fill="url(#linearGradient9555)" stroke-width="3.7299"/>
 <rect x="6.9991" y="10" width="50" height="4" rx="2" ry="2" fill="#000000" opacity=".35" stop-color="#000000" stroke-width="0"/>
 <rect x="7.9999" y="11" width="3.9988" height="1.9994" ry="1.0016" opacity=".35" stroke-width="3.7796" style="paint-order:stroke markers fill"/>
 <rect x="27.001" y="11" width="10.001" height="1.9994" ry="1.0016" opacity=".35" stroke-width="3.7796" style="paint-order:stroke markers fill"/>
 <rect x="53.999" y="11" width="1.9994" height="1.9994" ry="1.0016" opacity=".35" stroke-width="3.7796" style="paint-order:stroke markers fill"/>
 <rect x="50" y="11" width="3.001" height="1.9994" ry="1.0016" opacity=".35" stroke-width="3.7796" style="paint-order:stroke markers fill"/>
 <rect x="46.999" y="11" width="1.9994" height="1.9994" ry="1.0016" opacity=".35" stroke-width="3.7796" style="paint-order:stroke markers fill"/>
 <rect x="13.002" y="48.001" width="37.996" height="5.0004" rx="1" ry="1" fill="#ffffff" opacity=".35" stroke-width="3.7796" paint-order="markers stroke fill"/>
 <g transform="matrix(3.7796 0 0 3.7796 0 6.5103)" fill="#ccdfff">
  <rect x="4.2333" y="10.448" width="1.323" height="1.323" rx=".26433" ry=".26433" style="paint-order:stroke markers fill"/>
  <rect x="6.6145" y="10.448" width="1.323" height="1.323" rx=".26433" ry=".26433" style="paint-order:stroke markers fill"/>
  <rect x="8.9956" y="10.448" width="1.323" height="1.323" rx=".26433" ry=".26433" style="paint-order:stroke markers fill"/>
  <rect x="11.376" y="10.448" width="1.323" height="1.323" rx=".26433" ry=".26433" style="paint-order:stroke markers fill"/>
 </g>
 <g transform="translate(3.0203 -.97648)">
  <ellipse transform="matrix(.99641 .084662 -.084964 .99638 0 0)" cx="51.929" cy="43.781" rx="12" ry="12.001" fill="#666666"/>
  <rect x="40.023" y="46.019" width="5" height="4" ry="1" fill="#ffffff" fill-rule="evenodd"/>
  <path d="m46.023 43.019-3 3v4l3 3z" fill="#ffffff"/>
  <path d="m53.162 41.447c-0.545-0.428-1.139 0.224-0.684 0.732a8 8 0 0 1 2.545 5.84 8 8 0 0 1-2.554 5.852c-0.446 0.471 0.18 1.148 0.677 0.728a9 9 0 0 0 2.877-6.58 9 9 0 0 0-2.861-6.572z" fill="#ffffff" fill-rule="evenodd"/>
  <path d="m50.798 42.908c-0.587-0.535-1.199 0.225-0.684 0.732a6 6 0 0 1 1.909 4.379 6 6 0 0 1-1.916 4.389c-0.469 0.446 0.173 1.146 0.68 0.728a7 7 0 0 0 2.236-5.117 7 7 0 0 0-2.225-5.111z" fill="#ffffff" fill-rule="evenodd"/>
  <path d="m48.433 44.369c-0.52-0.494-1.155 0.22-0.683 0.73a4 4 0 0 1 1.273 2.92 4 4 0 0 1-1.277 2.926c-0.473 0.43 0.14 1.152 0.68 0.73a5 5 0 0 0 1.597-3.656 5 5 0 0 0-1.59-3.65z" fill="#ffffff" fill-rule="evenodd"/>
 </g>
</svg>
