<svg xmlns="http://www.w3.org/2000/svg" width="64" height="64" viewBox="0 0 16.933 16.933"><rect width="13.758" height="13.758" x="1.587" y="1.587" fill="#f9f9f9" rx="1.587" ry="1.587" style="paint-order:stroke markers fill"/><path fill="#333" d="M7.447 12.719 9.515 8H6.748v-.611h3.437v.524l-2.039 4.806z" aria-label="7" font-size="7.457" font-weight="400" letter-spacing="0" word-spacing="0"/><path d="M3.174 1.587c-.88 0-1.587.708-1.587 1.587v5.293h13.758V3.174c0-.88-.708-1.587-1.587-1.587z" opacity=".06" style="paint-order:stroke markers fill"/><path fill="#915fd3" d="M3.704 3.183h1.16v.23h-.887v.595h.801v.23h-.8v.964h-.274zm2.551 1.072q.088.03.17.128.084.097.168.267l.277.552h-.293l-.258-.518q-.1-.203-.195-.269-.094-.066-.256-.066h-.297v.853h-.274v-2.02h.617q.346 0 .517.146t.17.436q0 .191-.089.317-.088.126-.257.174m-.684-.848v.717h.343q.198 0 .298-.09.101-.092.101-.27 0-.177-.101-.266-.1-.09-.298-.09zm1.651-.224h.273v2.02h-.273zm1.09.224v1.57h.33q.418 0 .612-.189.194-.19.194-.598 0-.405-.194-.593-.194-.19-.612-.19zm-.273-.224H8.6q.587 0 .862.245.275.243.275.762 0 .523-.276.767t-.86.245h-.562zm2.759.269-.37 1.005h.742zm-.154-.27h.31l.77 2.02h-.285l-.184-.518h-.91l-.184.518h-.288zm.882.001h.294l.56.83.555-.83h.294l-.714 1.058v.961h-.275v-.961z" aria-label="FRIDAY"/></svg>