<svg xmlns="http://www.w3.org/2000/svg" width="64" height="64" viewBox="0 0 16.933 16.933"><g transform="translate(0 -280.067)"><rect width="13.758" height="13.758" x="1.587" y="281.654" ry=".529" fill="#fff" stroke="#000" stroke-width=".496" stroke-opacity=".039" paint-order="stroke markers fill"/><rect ry=".529" y="281.654" x="1.587" height="13.758" width="13.758" fill="#fff" paint-order="stroke markers fill"/><path d="M2.117 281.654a.528.528 0 0 0-.53.53v6.35h13.759v-6.35a.528.528 0 0 0-.53-.53h-12.7z" opacity=".06" paint-order="stroke markers fill"/><path d="M7.447 292.786l2.068-4.719H6.748v-.611h3.437v.524l-2.039 4.806z" aria-label="7" font-weight="400" font-size="7.457" font-family="sans-serif" letter-spacing="0" word-spacing="0" fill="#333" stroke-width=".186"/><g aria-label="星期五" style="line-height:1.25" font-weight="400" font-size="2.932" font-family="sans-serif" letter-spacing="0" word-spacing="0" fill="#915fd3" stroke-width=".073"><path d="M4.555 283.31H6.56v1.054H5.7v.275h1.008v.206H5.701v.264h.916v.206H5.7v.275h1.11v.217h-2.52v-.217H5.46v-.275h-.893v-.206h.893v-.264h-.756q-.114.183-.263.32l-.207-.16q.298-.274.436-.618l.217.08-.068.172h.641v-.275h-.905zm.23.436H6.33v-.23H4.784zm0 .412H6.33v-.23H4.784zM9.698 283.333v2.21q0 .161-.069.241-.068.08-.206.08-.103 0-.275-.022l-.057-.24q.183.034.286.034.092 0 .092-.16v-.55h-.527q-.057.526-.286.95l-.207-.149q.275-.48.275-1.065v-1.329zm-.733.699h.504v-.481h-.504zm0 .687h.504v-.48h-.504zM7.2 283.585h.23v-.343h.228v.343h.481v-.343h.23v.343h.228v.206H8.37v1.249h.218v.206h-1.42v-.206h.263v-1.249h-.229zm.458.493h.481v-.287h-.48zm0 .48h.481v-.285h-.48zm0 .482h.481v-.286h-.48zm-.034.263l.195.126q-.195.287-.447.459l-.172-.195q.263-.172.424-.39zm.55 0q.148.172.24.367l-.183.103q-.092-.183-.24-.355zM10.248 283.402h2.336v.218h-1.19l-.161.687h1.1v1.225h.366v.218h-2.566v-.218h.607l.218-1.008h-.607v-.217h.653l.16-.687h-.916zm.721 2.13h1.134v-1.008h-.916z"/></g></g></svg>