<svg xmlns="http://www.w3.org/2000/svg" xmlns:xlink="http://www.w3.org/1999/xlink" width="64" height="64" viewBox="0 0 16.933 16.933"><defs><linearGradient xlink:href="#a" id="b" x1="41.088" x2="41.088" y1="56.971" y2="26.486" gradientTransform="translate(31.7 289.992)scale(.26458)" gradientUnits="userSpaceOnUse"/><linearGradient id="a"><stop offset="0"/><stop offset="1" stop-opacity="0"/></linearGradient></defs><g paint-order="markers stroke fill"><g transform="rotate(4.61 3483.044 -274.865)"><rect width="6.879" height="12.171" x="42.069" y="279.802" fill="#246541" rx=".529" ry=".529"/><rect width="5.821" height="11.112" x="42.598" y="280.331" fill="#fff" rx="0" ry="0"/><rect width="1.852" height="1.587" x="45.773" y="288.533" fill="#246541" rx="0" ry="0"/><rect width="1.852" height="1.587" x="45.773" y="286.24" fill="#246541" rx="0" ry="0"/><rect width="1.852" height="1.587" x="45.773" y="283.947" fill="#246541" rx="0" ry="0"/><rect width="1.852" height="1.587" x="45.773" y="281.654" fill="#246541" rx="0" ry="0"/><rect width="1.852" height="1.587" x="43.392" y="288.533" fill="#246541" rx="0" ry="0"/><rect width="1.852" height="1.587" x="43.392" y="286.24" fill="#246541" rx="0" ry="0"/><rect width="1.852" height="1.587" x="43.392" y="283.947" fill="#246541" rx="0" ry="0"/><rect width="1.852" height="1.587" x="43.392" y="281.654" fill="#246541" rx="0" ry="0"/></g><g transform="translate(-31.713 -289.992)"><rect width="8.996" height="13.758" x="-10.166" y="294.021" fill="#357e56" rx="0" ry="0" transform="rotate(-8.462)"/><path fill="url(#b)" d="M43.003 297a11.132 17.633 6.416 0 1-.06.665 11.132 17.633 6.416 0 1-1.933 7.4l3.124-.464z" opacity=".25"/></g><g fill="#fff"><path d="m4.249 6.468 1.308-.198 4.112 4.196-1.308.197z"/><path d="m8.958 5.756-1.308.198-2.69 5.223 1.308-.198z"/></g></g></svg>