<svg xmlns="http://www.w3.org/2000/svg" xmlns:xlink="http://www.w3.org/1999/xlink" width="64" height="64" viewBox="0 0 16.933 16.933"><defs><linearGradient xlink:href="#a" id="b" gradientUnits="userSpaceOnUse" x1="41.088" y1="56.971" x2="41.088" y2="26.486" gradientTransform="matrix(.26458 0 0 .26458 31.7 289.992)"/><linearGradient id="a"><stop offset="0"/><stop offset="1" stop-opacity="0"/></linearGradient></defs><g paint-order="markers stroke fill"><g transform="rotate(4.61 3483.044 -274.865)"><rect ry=".529" rx=".529" y="279.802" x="42.069" height="12.171" width="6.879" fill="#246541"/><rect width="5.821" height="11.112" x="42.598" y="280.331" rx="0" ry="0" fill="#fff"/><rect width="1.852" height="1.587" x="45.773" y="288.533" rx="0" ry="0" fill="#246541"/><rect ry="0" rx="0" y="286.24" x="45.773" height="1.587" width="1.852" fill="#246541"/><rect width="1.852" height="1.587" x="45.773" y="283.947" rx="0" ry="0" fill="#246541"/><rect ry="0" rx="0" y="281.654" x="45.773" height="1.587" width="1.852" fill="#246541"/><rect ry="0" rx="0" y="288.533" x="43.392" height="1.587" width="1.852" fill="#246541"/><rect width="1.852" height="1.587" x="43.392" y="286.24" rx="0" ry="0" fill="#246541"/><rect ry="0" rx="0" y="283.947" x="43.392" height="1.587" width="1.852" fill="#246541"/><rect width="1.852" height="1.587" x="43.392" y="281.654" rx="0" ry="0" fill="#246541"/></g><g transform="translate(-31.713 -289.992)"><rect width="8.996" height="13.758" x="-10.166" y="294.021" rx="0" ry="0" transform="rotate(-8.462)" fill="#357e56"/><path d="M43.003 297a11.132 17.633 6.416 0 1-.06.665 11.132 17.633 6.416 0 1-1.933 7.4l3.124-.464z" opacity=".25" fill="url(#b)"/></g><g fill="#fff"><path d="M4.249 6.468l1.308-.198 4.112 4.196-1.308.197z"/><path d="M8.958 5.756l-1.308.198-2.69 5.223 1.308-.198z"/></g></g></svg>