<svg xmlns="http://www.w3.org/2000/svg" xmlns:xlink="http://www.w3.org/1999/xlink" width="64" height="64" viewBox="0 0 16.933 16.933"><defs><linearGradient xlink:href="#a" id="b" x1="41.088" x2="41.088" y1="56.971" y2="26.486" gradientTransform="translate(-17.024 328.332) scale(.26458)" gradientUnits="userSpaceOnUse"/><linearGradient id="a"><stop offset="0"/><stop offset="1" stop-opacity="0"/></linearGradient></defs><g paint-order="markers stroke fill"><g transform="rotate(4.371 3694.454 -1081.184)"><rect width="3.175" height="6.879" x="105.569" y="280.331" fill="#673773" rx=".149" ry=".138"/><rect width="6.879" height="12.171" x="100.806" y="279.273" fill="#673773" rx=".529" ry=".529"/><rect width="5.821" height="11.112" x="101.335" y="279.802" fill="#fff" rx="0" ry="0"/><rect width="4.233" height=".529" x="102.129" y="281.125" fill="#673773" rx="0" ry="0"/><rect width="4.233" height=".529" x="102.129" y="289.062" fill="#673773" rx="0" ry="0"/><rect width="4.233" height=".529" x="102.129" y="287.475" fill="#673773" rx="0" ry="0"/><rect width="4.233" height=".529" x="102.129" y="285.887" fill="#673773" rx="0" ry="0"/><rect width="4.233" height=".529" x="102.129" y="284.3" fill="#673773" rx="0" ry="0"/><rect width="4.233" height=".529" x="102.129" y="282.712" fill="#673773" rx="0" ry="0"/><rect width="1.587" height="1.587" x="106.627" y="280.86" fill="#fff" rx="0" ry="0"/><rect width=".529" height="1.588" x="107.685" y="282.977" fill="#fff" rx="0" ry="0"/><rect width=".529" height="1.588" x="107.685" y="285.094" fill="#fff" rx="0" ry="0"/></g><g transform="translate(17.059 -328.332)"><rect width="8.996" height="13.758" x="-64.002" y="324.773" fill="#885195" rx="0" ry="0" transform="rotate(-8.462)"/><path fill="url(#b)" d="M-5.721 335.34a11.132 17.633 6.416 0 1-.06.665 11.132 17.633 6.416 0 1-1.933 7.4l3.123-.464z" opacity=".25"/><g fill="#fff" transform="matrix(.92652 -.14304 .15257 .9883 -134.56 84.683)"><rect width="1.058" height="4.762" x="88.106" y="265.779" rx="0" ry="0"/><rect width="1.058" height="4.762" x="91.281" y="265.779" rx="0" ry="0"/><path d="M88.106 265.78h1.059l3.175 4.762h-1.06z"/></g></g></g></svg>