<svg xmlns="http://www.w3.org/2000/svg" xmlns:xlink="http://www.w3.org/1999/xlink" width="64" height="64" viewBox="0 0 16.933 16.933"><defs><linearGradient xlink:href="#a" id="b" gradientUnits="userSpaceOnUse" gradientTransform="matrix(.26458 0 0 .26458 -17.024 328.332)" x1="41.088" y1="56.971" x2="41.088" y2="26.486"/><linearGradient id="a"><stop offset="0"/><stop offset="1" stop-opacity="0"/></linearGradient></defs><g paint-order="markers stroke fill"><g transform="rotate(4.371 3694.454 -1081.184)"><rect width="3.175" height="6.879" x="105.569" y="280.331" rx=".149" ry=".138" fill="#673773"/><rect ry=".529" rx=".529" y="279.273" x="100.806" height="12.171" width="6.879" fill="#673773"/><rect width="5.821" height="11.112" x="101.335" y="279.802" rx="0" ry="0" fill="#fff"/><rect ry="0" rx="0" y="281.125" x="102.129" height=".529" width="4.233" fill="#673773"/><rect width="4.233" height=".529" x="102.129" y="289.062" rx="0" ry="0" fill="#673773"/><rect ry="0" rx="0" y="287.475" x="102.129" height=".529" width="4.233" fill="#673773"/><rect width="4.233" height=".529" x="102.129" y="285.887" rx="0" ry="0" fill="#673773"/><rect ry="0" rx="0" y="284.3" x="102.129" height=".529" width="4.233" fill="#673773"/><rect width="4.233" height=".529" x="102.129" y="282.712" rx="0" ry="0" fill="#673773"/><rect width="1.587" height="1.587" x="106.627" y="280.86" rx="0" ry="0" fill="#fff"/><rect ry="0" rx="0" y="282.977" x="107.685" height="1.588" width=".529" fill="#fff"/><rect width=".529" height="1.588" x="107.685" y="285.094" rx="0" ry="0" fill="#fff"/></g><g transform="translate(17.059 -328.332)"><rect transform="rotate(-8.462)" ry="0" rx="0" y="324.773" x="-64.002" height="13.758" width="8.996" fill="#885195"/><path d="M-5.721 335.34a11.132 17.633 6.416 0 1-.06.665 11.132 17.633 6.416 0 1-1.933 7.4l3.123-.464z" opacity=".25" fill="url(#b)"/><g transform="matrix(.92652 -.14304 .15257 .9883 -134.56 84.683)" fill="#fff"><rect ry="0" rx="0" y="265.779" x="88.106" height="4.762" width="1.058"/><rect width="1.058" height="4.762" x="91.281" y="265.779" rx="0" ry="0"/><path d="M88.106 265.78h1.059l3.175 4.762H91.28z"/></g></g></g></svg>