<svg xmlns="http://www.w3.org/2000/svg" xmlns:xlink="http://www.w3.org/1999/xlink" width="64" height="64" viewBox="0 0 16.933 16.933"><defs><linearGradient xlink:href="#a" id="b" gradientUnits="userSpaceOnUse" gradientTransform="matrix(.26458 0 0 .26458 31.7 289.992)" x1="41.088" y1="56.971" x2="41.088" y2="26.486"/><linearGradient id="a"><stop offset="0"/><stop offset="1" stop-opacity="0"/></linearGradient></defs><g transform="rotate(4.372 3717.287 -1233.242)" paint-order="markers stroke fill"><rect ry=".529" rx=".529" y="280.596" x="113.506" height="12.171" width="6.879" fill="#0d68ab"/><rect width="5.821" height="11.112" x="114.035" y="281.125" rx="0" ry="0" fill="#fff"/><path d="M119.062 281.125l-1.852 5.556 1.852 5.556h.53l-1.852-5.556 1.852-5.556z" fill="#0d68ab"/></g><g transform="translate(-31.683 -289.992)" paint-order="markers stroke fill"><rect transform="rotate(-8.462)" ry="0" rx="0" y="294.021" x="-10.166" height="13.758" width="8.996" fill="#1e84d0"/><path d="M43.003 297a11.132 17.633 6.416 0 1-.06.665 11.132 17.633 6.416 0 1-1.933 7.4l3.124-.464z" opacity=".25" fill="url(#b)"/></g><g style="line-height:1.25;-inkscape-font-specification:'sans-serif Bold'"><path d="M6.727 6.88c-.35.058-.655.25-.801.56-.147.31-.259.73-.176 1.233.083.502.29.868.528 1.114.238.245.624.324.973.266.351-.058.704-.259.85-.568.147-.31.23-.723.147-1.225a2.058 2.058 0 0 0-.54-1.114c-.238-.246-.63-.324-.981-.266zm-.148-.893c.714-.118 1.31.01 1.786.382.477.373.78.947.908 1.722.128.772.026 1.412-.306 1.919-.332.506-.854.819-1.568.937-.712.117-1.307-.01-1.787-.383-.477-.372-.78-.945-.907-1.718-.128-.775-.026-1.416.306-1.922.333-.507.856-.82 1.568-.937z" style="-inkscape-font-specification:'sans-serif Bold'" fill="#fff" aria-label="O" font-weight="700" font-size="6.406" font-family="sans-serif" letter-spacing="0" word-spacing="0" stroke-width=".16"/></g></svg>