<svg xmlns="http://www.w3.org/2000/svg" xmlns:xlink="http://www.w3.org/1999/xlink" width="64" height="64" viewBox="0 0 16.933 16.933"><defs><linearGradient xlink:href="#a" id="b" x1="41.088" y1="56.971" x2="41.088" y2="26.486" gradientUnits="userSpaceOnUse"/><linearGradient id="a"><stop offset="0"/><stop offset="1" stop-opacity="0"/></linearGradient></defs><g transform="translate(0 -280.067)"><g paint-order="markers stroke fill" transform="rotate(4.405 19.271 318.07)"><rect width="6.879" height="12.171" x="5.821" y="282.448" rx=".504" ry=".575" fill="#355687"/><rect ry="0" rx="0" y="282.977" x="6.35" height="11.113" width="5.821" fill="#fff"/><rect ry="0" rx="0" y="284.3" x="6.615" height=".529" width="4.762" fill="#355687"/><rect width="4.762" height=".529" x="6.615" y="285.887" rx="0" ry="0" fill="#355687"/><rect ry="0" rx="0" y="287.475" x="6.615" height=".529" width="4.762" fill="#355687"/><rect width="4.762" height=".529" x="6.615" y="289.062" rx="0" ry="0" fill="#355687"/><rect ry="0" rx="0" y="290.65" x="6.615" height=".529" width="4.762" fill="#355687"/><rect width="4.762" height=".529" x="6.615" y="292.237" rx="0" ry="0" fill="#355687"/></g><rect transform="rotate(-8.462)" ry="0" rx="0" y="279.539" x="-40.062" height="13.758" width="8.996" fill="#4169a5" paint-order="markers stroke fill"/><g fill="#fff" paint-order="markers stroke fill"><path d="M3.48 286.645l1.047-.156 2.01 4.516-1.047.156z"/><path d="M7.144 286.1l-1.046.156-.608 4.905 1.047-.156z"/><path d="M6.098 286.256l1.046-.156 2.01 4.516-1.047.156z"/><path d="M9.761 285.71l-1.046.157-.608 4.905 1.047-.156z"/></g><path transform="matrix(.26458 0 0 .26458 0 280.067)" d="M42.717 26.486A42.073 66.645 6.416 0 1 42.49 29a42.073 66.645 6.416 0 1-7.304 27.97l11.804-1.755z" opacity=".25" fill="url(#b)" paint-order="markers stroke fill"/></g></svg>