<svg xmlns="http://www.w3.org/2000/svg" width="64" height="64" image-rendering="optimizeSpeed"><rect width="52" height="52" x="6" y="6" fill="#f2f2f2" rx="8" ry="8"/><g transform="translate(0 -1)"><rect width="8" height="36" x="19" y="15.001" fill="#eb6447" rx="2" ry="2" style="paint-order:stroke fill markers"/><rect width="8" height="36" x="37" y="15.001" fill="#68d65c" rx="2" ry="2" style="paint-order:stroke fill markers"/><rect width="8" height="18" x="19" y="25.001" opacity=".35" rx="0" ry="0" style="paint-order:stroke fill markers"/><rect width="8" height="18" x="37" y="25.001" opacity=".15" rx="0" ry="0" style="paint-order:stroke fill markers"/><rect width="8" height="18" x="37" y="25.001" opacity=".35" rx="0" ry="0" style="paint-order:stroke fill markers"/><rect width="2" height="36" x="13" y="15.001" opacity=".15" rx="1" ry="1" style="paint-order:stroke fill markers"/><rect width="2" height="36" x="31" y="15.001" opacity=".15" rx="1" ry="1" style="paint-order:stroke fill markers"/><rect width="2" height="36" x="49" y="15.001" opacity=".15" rx="1" ry="1" style="paint-order:stroke fill markers"/><rect width="4" height="8" x="12" y="34.001" fill="gray" rx="1" ry=".889" style="paint-order:stroke fill markers"/><rect width="4" height="8" x="30" y="23.001" fill="gray" rx="1" ry=".889" style="paint-order:stroke fill markers"/><rect width="4" height="8" x="48" y="30.001" fill="gray" rx="1" ry=".889" style="paint-order:stroke fill markers"/></g></svg>