<svg width="64" height="64" version="1.1" viewBox="0 0 16.933 16.933" xmlns="http://www.w3.org/2000/svg">
 <g transform="translate(0 -280.07)">
  <circle cx="8.4665" cy="288.53" r="7.1436" fill="#ffbd55" style="paint-order:stroke markers fill"/>
  <g stroke-width=".789">
   <path d="m4.445 284.51c-1.34 3.016-1.34 5.027 0 8.043 2.682 1.34 5.363 1.34 8.043 0 1.34-3.016 1.34-5.027 0-8.043-2.681-1.34-5.363-1.34-8.043 0z" fill="#fff"/>
   <path d="m12.823 288.53a4.357 4.357 0 1 1-8.713 0 4.357 4.357 0 1 1 8.713 0z" fill="#666"/>
   <path d="m11.818 288.53a3.351 3.351 0 1 1-6.703 0 3.351 3.351 0 1 1 6.703 0z" fill="#ffbd55"/>
   <path d="M5.45 284.847a.67.67 0 1 1-1.34 0 .67.67 0 1 1 1.34 0zM5.45 292.22a.67.67 0 1 1-1.34 0 .67.67 0 1 1 1.34 0zM12.823 292.22a.67.67 0 1 1-1.34 0 .67.67 0 1 1 1.34 0zM12.823 284.847a.67.67 0 1 1-1.34 0 .67.67 0 1 1 1.34 0z" fill="#fff"/>
   <path d="m10.812 288.53a2.346 2.346 0 1 1-4.691 0 2.346 2.346 0 1 1 4.691 0z" fill="#4d4d4d"/>
   <path d="M9.807 287.863a.67.67 0 1 1-1.34 0 .67.67 0 1 1 1.34 0z" fill="#fff"/>
   <path d="M5.115 284.847a.335.335 0 1 1-.67 0 .335.335 0 1 1 .67 0M12.488 284.847a.335.335 0 1 1-.67 0 .335.335 0 1 1 .67 0M12.488 292.22a.335.335 0 1 1-.67 0 .335.335 0 1 1 .67 0M5.115 292.22a.335.335 0 1 1-.67 0 .335.335 0 1 1 .67 0" fill="#ccc"/>
  </g>
 </g>
</svg>
