<svg xmlns="http://www.w3.org/2000/svg" width="64" height="64" viewBox="0 0 16.933 16.933"><g transform="translate(0 -280.07)"><circle cx="8.466" cy="288.53" r="7.144" fill="#ffbd55" style="paint-order:stroke markers fill"/><g stroke-width=".789"><path fill="#fff" d="M4.445 284.51c-1.34 3.016-1.34 5.027 0 8.043q4.023 2.01 8.043 0c1.34-3.016 1.34-5.027 0-8.043q-4.022-2.01-8.043 0"/><path fill="#666" d="M12.823 288.53a4.357 4.357 0 1 1-8.713 0 4.357 4.357 0 1 1 8.713 0"/><path fill="#ffbd55" d="M11.818 288.53a3.351 3.351 0 1 1-6.703 0 3.351 3.351 0 1 1 6.703 0"/><path fill="#fff" d="M5.45 284.847a.67.67 0 1 1-1.34 0 .67.67 0 1 1 1.34 0m0 7.373a.67.67 0 1 1-1.34 0 .67.67 0 1 1 1.34 0m7.373 0a.67.67 0 1 1-1.34 0 .67.67 0 1 1 1.34 0m0-7.373a.67.67 0 1 1-1.34 0 .67.67 0 1 1 1.34 0"/><path fill="#4d4d4d" d="M10.812 288.53a2.346 2.346 0 1 1-4.691 0 2.346 2.346 0 1 1 4.691 0"/><path fill="#fff" d="M9.807 287.863a.67.67 0 1 1-1.34 0 .67.67 0 1 1 1.34 0"/><path fill="#ccc" d="M5.115 284.847a.335.335 0 1 1-.67 0 .335.335 0 1 1 .67 0m7.373 0a.335.335 0 1 1-.67 0 .335.335 0 1 1 .67 0m0 7.373a.335.335 0 1 1-.67 0 .335.335 0 1 1 .67 0m-7.373 0a.335.335 0 1 1-.67 0 .335.335 0 1 1 .67 0"/></g></g></svg>