<svg xmlns="http://www.w3.org/2000/svg" width="64" height="64" viewBox="0 0 16.933 16.933"><rect width="12.7" height="13.758" x="2.117" y="1.587" fill="#549bff" rx="1.587" ry="1.587"/><path fill="#00f" d="m8.467 1.587-4.78.001c-.871.01-1.57.713-1.57 1.587v4.211a9.26 9.63 0 0 0 8.466 5.758 9.26 9.63 0 0 0 4.234-1.068V3.175c0-.88-.708-1.587-1.588-1.587H8.467z" opacity=".1" style="paint-order:stroke markers fill"/><path fill="#00f" d="m8.467 1.587-4.78.001c-.871.01-1.57.713-1.57 1.587v10.583c0 .88.708 1.588 1.587 1.588h4.853a10.583 11.007 0 0 0 6.26-5.69V3.175c0-.88-.708-1.588-1.588-1.588z" opacity=".1" style="paint-order:stroke markers fill"/><path fill="#fff" d="M5.292 3.969a3.175 3.175 0 0 0 3.175 3.175 3.175 3.175 0 0 0 3.175-3.175h-.794A2.38 2.38 0 0 1 8.467 6.35a2.38 2.38 0 0 1-2.382-2.381z" style="paint-order:stroke markers fill"/><circle cx="11.641" cy="12.171" r="4.233" fill="#7ba3f4"/><path fill="#fff" d="M10.451 9.79a.297.297 0 1 0 0 .595.297.297 0 1 0 0-.595m1.871 0-.68.68 1.02 1.02-1.02 1.021.68.68 1.7-1.7-.68-.681zm-2.615 1.786a.446.446 0 1 0 0 .893.446.446 0 1 0 0-.893m1.34 1.786a.594.594 0 1 0 0 1.19.594.594 0 1 0 0-1.19"/></svg>