<svg width="64" height="64" version="1.1" viewBox="0 0 16.933 16.933" xmlns="http://www.w3.org/2000/svg">
 <rect transform="scale(1,-1)" x="1.587" y="-15.346" width="13.758" height="13.758" rx="2.1161" ry="2.1161" color="#000000" fill="#26557c" overflow="visible"/>
 <path d="m12.539 12.485c-0.05459-0.03566-0.35414-0.20677-0.66562-0.38024-0.64835-0.36107-1.295-0.9139-1.295-1.1071 0-0.17142 0.21201-0.30845 0.53614-0.34658 0.15556-0.01829 0.35952-0.04821 0.45323-0.0665l0.17038-0.03326-0.25261-0.18454c-0.23897-0.17458-0.42399-0.26122-0.96639-0.45256-0.35118-0.12387-0.60602-0.41265-0.89315-1.012-0.74795-1.5613-0.8865-1.8179-1.1407-2.1124-0.28619-0.33164-0.69921-0.67717-1.2538-1.0489-0.54455-0.365-0.62936-0.39805-1.0221-0.39805-0.31278 0-0.37869-0.01732-0.57345-0.15069-0.30767-0.21066-0.61334-0.34093-0.80296-0.3422-0.24413-0.00167-0.21527 0.17272 0.091259 0.55138 0.29755 0.36757 0.36778 0.49369 0.51597 0.9266 0.060998 0.17819 0.22573 0.52311 0.36608 0.76649s0.25517 0.46399 0.25517 0.49027c0 0.026267-0.058833 0.21615-0.13074 0.42196-0.15807 0.45241-0.2018 0.93621-0.11705 1.2949 0.14707 0.62247 0.32765 0.70725 0.4304 0.20207 0.089183-0.43853 0.24323-0.7035 0.4083-0.70236 0.050787 3.326e-4 0.21263 0.24904 0.45144 0.69365 0.20475 0.3812 0.50055 0.86273 0.65733 1.0701 0.15678 0.20734 0.27494 0.38704 0.26258 0.39934-0.0293 0.029165-0.435-0.31281-0.73081-0.61597-0.12805-0.13124-0.31166-0.36959-0.40802-0.5297-0.1663-0.27624-0.17752-0.28505-0.22-0.17289-0.024614 0.064994-0.060327 0.18938-0.079343 0.2764-0.054844 0.25099-0.20792 0.40984-0.39493 0.40984-0.26181 0-0.4496-0.26256-0.60221-0.84196-0.10197-0.38713-0.076096-1.2107 0.050935-1.6214 0.081922-0.26486 0.081874-0.26533-0.040071-0.39517-0.15698-0.16716-0.24634-0.34631-0.43956-0.88118-0.12255-0.33926-0.23579-0.53496-0.51706-0.8937-0.25293-0.32257-0.36995-0.51712-0.39312-0.65346-0.071806-0.42302 0.091863-0.66864 0.44053-0.66111 0.26957 0.00583 0.82152 0.19037 1.0593 0.35417 0.14027 0.096633 0.28041 0.13876 0.55183 0.16587 0.66767 0.066691 1.3954 0.49196 2.1585 1.2613 0.73912 0.7452 1.2956 1.6238 1.5025 2.3721 0.13862 0.5014 0.35771 0.73801 0.95922 1.0358 0.44162 0.21867 0.57738 0.31792 0.97833 0.7153 0.25605 0.25376 0.46554 0.49901 0.46554 0.54497 0 0.10103-0.20781 0.1729-0.62044 0.21457-0.57856 0.05842-0.57412 0.04725-0.14101 0.35456 0.73831 0.52389 1.0037 0.77922 1.0823 1.0411 0.0375 0.12504-0.0018 0.13603-0.14709 0.04113zm-6.3544-6.2722c-0.040388-0.096201-0.11814-0.19873-0.17279-0.22783-0.11625-0.061918-0.12823-0.16169-0.02924-0.24345 0.10613-0.087662 0.41413 0.054721 0.45317 0.20948 0.092868 0.36823-0.11533 0.58528-0.25115 0.2618z" fill="#fff" stroke-width=".30237"/>
</svg>
