<svg width="64" height="64" version="1.1" viewBox="0 0 64 64" xmlns="http://www.w3.org/2000/svg">
 <g transform="matrix(1.1739 0 0 1.1739 3.8261 -14.957)" stroke-width=".85185">
  <g transform="translate(0,16)">
   <path d="m24 1c12.703 0 23 10.297 23 23s-10.297 23-23 23-23-10.297-23-23 10.297-23 23-23z" fill="#dcdcdc"/>
   <path d="m24 4.4074c10.821 0 19.593 8.7715 19.593 19.593 0 10.821-8.7715 19.593-19.593 19.593-10.821 0-19.593-8.7715-19.593-19.593 0-10.821 8.7715-19.593 19.593-19.593z" fill="#f2f2f2"/>
  </g>
  <path d="m35 32-6-5v26l6-5z" fill="#6ba63f"/>
  <path d="m13 32 6-5v26l-6-5z" fill="#42afe6"/>
  <path d="m19 27c-1.218 3.484-0.987 7.05 0 10.666l10 15.334c0.641-3.499 1.379-6.997 0-10.496z" fill="#96ca6b"/>
  <path d="m29 42.504v10.496l4.5-3.75z" fill="#569e41"/>
  <path d="m19 27-4.508 3.756 4.508 6.91z" fill="#70be63"/>
 </g>
</svg>
