<svg xmlns="http://www.w3.org/2000/svg" width="64" height="64" version="1"><path fill="#add439" d="M32.155 3.002c-.095-.003-.19.009-.285.01l.062 13.879L32 32l13.068-7.497 12.066-6.919c-.57-1.019-1.387-1.897-2.432-2.5L35.298 3.88a6.597 6.597 0 0 0-3.143-.878z"/><path fill="#ac1248" d="M6.982 17.349A6.585 6.585 0 0 0 6 20.796v22.408c0 1.241.359 2.424.99 3.444L19 39.613 32 32l-13-7.613z"/><path fill="#3471b9" d="M57.01 17.352 45 24.387 32 32l25.024 14.654a6.595 6.595 0 0 0 .976-3.45V20.796a6.595 6.595 0 0 0-.053-.784c-.01-.084-.024-.166-.037-.25a6.595 6.595 0 0 0-.099-.495 6.543 6.543 0 0 0-.087-.334 6.595 6.595 0 0 0-.124-.366c-.046-.127-.088-.255-.142-.379a6.595 6.595 0 0 0-.022-.051l-.003.003a6.704 6.704 0 0 0-.423-.787z"/><path fill="#86b02f" d="M32.13 3.002a6.59 6.59 0 0 0-3.428.877L9.298 15.083a6.582 6.582 0 0 0-2.451 2.49l12.086 6.93L32 32l.067-15.11z"/><path fill="#2e90e8" d="m32 32-.068 15.11-.062 13.889a6.595 6.595 0 0 0 3.428-.88l19.404-11.205a6.595 6.595 0 0 0 2.449-2.486l-12.083-6.93z"/><path fill="#eb2f6a" d="m32 32-13.068 7.497-12.066 6.919c.231.408.491.8.804 1.153a6.595 6.595 0 0 0 .124.144c.108.115.222.224.339.331a6.595 6.595 0 0 0 .225.199c.108.09.214.18.328.263a6.595 6.595 0 0 0 .612.408l19.404 11.204a6.595 6.595 0 0 0 3.428.872l-.063-13.88z"/><path fill="#fff" d="m32 13.515 16 9.24V41.16L32 50.4l-16-9.24V22.755z"/><path fill="#cedbe6" d="m32 13.515 16 9.24V41.16L32 50.4z"/><path fill="#dee5c0" d="m32 13.515-16 9.24 16 9.24 16-9.24z"/></svg>