<svg width="64" height="64" version="1" xmlns="http://www.w3.org/2000/svg">
 <path d="m32.155 3.0015c-0.09548-0.00231-0.18974 0.00952-0.28494 0.01132l0.062066 13.878 0.067708 15.11 13.068-7.4968 12.066-6.919c-0.56898-1.0187-1.3864-1.8973-2.4319-2.5008l-19.404-11.204c-0.95703-0.55175-2.0384-0.85248-3.1428-0.87797z" fill="#add439"/>
 <path d="m6.9818 17.349c-0.62679 1.0212-0.98185 2.2073-0.98177 3.4468v22.408c-6e-7 1.2413 0.35853 2.4245 0.99023 3.4439l12.01-7.0351 13-7.6129-13-7.6129z" fill="#ac1248"/>
 <path d="m57.01 17.352-12.01 7.0351-13 7.6129 25.024 14.654a6.5949 6.5948 0 0 0 0.97613-3.4496v-22.408a6.5949 6.5948 0 0 0-0.0536-0.78451c-0.01-0.08379-0.0235-0.16621-0.03668-0.24923a6.5949 6.5948 0 0 0-0.09874-0.49563c-0.02684-0.1125-0.05484-0.22363-0.08746-0.3342a6.5949 6.5948 0 0 0-0.12414-0.36535c-0.04584-0.12732-0.0876-0.25551-0.14106-0.37951a6.5949 6.5948 0 0 0-0.02258-0.05098l-0.0028 0.0029c-0.12055-0.27325-0.26766-0.5329-0.42326-0.78735z" fill="#3471b9"/>
 <path d="m32.13 3.0015c-1.2014-0.024447-2.3864 0.27755-3.4277 0.87797l-19.404 11.204c-1.0457 0.60363-1.8811 1.4713-2.4516 2.4895l12.086 6.9303 13.068 7.4968 0.067708-15.11z" fill="#86b02f"/>
 <path d="m32 32-0.0677 15.11-0.06206 13.889a6.5949 6.5948 0 0 0 3.4277-0.8808l19.404-11.204a6.5949 6.5948 0 0 0 2.4488-2.4866l-12.083-6.9303z" fill="#2e90e8"/>
 <path d="m32 32-13.068 7.4968-12.066 6.919c0.23102 0.40809 0.49142 0.79983 0.80403 1.1527a6.5949 6.5948 0 0 0 0.12413 0.14444c0.10794 0.11496 0.22209 0.22398 0.33854 0.33136a6.5949 6.5948 0 0 0 0.22569 0.19826c0.10716 0.09014 0.21387 0.17978 0.32726 0.26339a6.5949 6.5948 0 0 0 0.61219 0.40783l19.404 11.204a6.5949 6.5948 0 0 0 3.4277 0.87231l-0.06206-13.88z" fill="#eb2f6a"/>
 <path d="m32 13.515 16 9.2404v18.404l-16 9.2404-16-9.2404v-18.404z" fill="#fff"/>
 <path d="m32 13.515 16 9.2404v18.404l-16 9.2404z" fill="#cedbe6"/>
 <path d="m32 13.515-16 9.2404 16 9.2404 16-9.2404z" fill="#dee5c0"/>
</svg>
