<svg xmlns="http://www.w3.org/2000/svg" width="64" height="64"><rect width="52" height="52" x="6" y="6" fill="#f2f2f2" rx="8" ry="8" style="paint-order:stroke fill markers"/><path fill="#ffa834" d="M17.279 16c-.707 0-1.28.577-1.28 1.29v29.42c0 .712.573 1.29 1.28 1.29h3.752c.707 0 1.372-.578 1.369-1.29V22.4h1.28c.707 0 1.594-.027 2.282.127 1.332.3 2.4 1.12 2.697 2.463.153.694.14 1.858.14 2.57v19.15c0 .712.305 1.289 1.011 1.289h4.135c.707 0 1.255-.577 1.255-1.29v-3.83h5.12v3.83c0 .713.61 1.29 1.317 1.29h3.789c.707 0 1.296-.577 1.293-1.29v-3.83h3.848c.712 0 1.272-.586 1.272-1.293v-3.789c0-.706-.56-1.295-1.272-1.317h-3.848v-3.848c0-.713-.586-1.273-1.293-1.273h-3.789c-.707 0-1.317.56-1.317 1.273v3.848H35.2v-8.868c0-.712.033-1.87-.053-2.578-.517-4.263-3.93-8.229-7.993-8.926-.696-.12-1.488-.109-2.194-.109z"/></svg>