<svg width="64" height="64" image-rendering="optimizeSpeed" version="1.1" xmlns="http://www.w3.org/2000/svg">
 <rect x="4" y="4" width="56" height="56" rx="28" ry="28" fill="#338eff" fill-opacity=".99608"/>
 <path d="m22.147 6.4972c-0.34346 0.072799-0.70186 0.61039-1.1107 0.80359-0.25293 0.1176-0.61599 0.25386-0.87079 0.20533-0.1652-0.028-0.49746-0.2716-0.52266-0.59172-0.0028-0.028 0.0056-0.041999 0.0065-0.065332a27.983 27.983 0 0 0-11.559 10.536c0.029866 0.0075 0.058799 0.0028 0.089599 0.014-0.055999 0.0476-0.11573 0.0868-0.17546 0.12786a27.823 27.823 0 0 0-2.925 6.747c0.25853-0.22586 0.55346-0.41253 0.83439-0.57866 0.28746-0.16893 0.51799-0.46666 0.76719-0.59172 0.3528-0.17733 0.61226-0.2184 0.90532-0.38266 0.52733-0.2968 0.98092-0.53573 1.3934-0.87172 0.19133-0.44986 0.012133-1.0575 0.034533-1.5026 0.19133-0.11293 0.35746 0.05787 0.55999 0.02987 0.31826-0.07187 0.34066-0.51519 0.52173-0.69439 0.10266-0.09987 0.39199-0.17826 0.52266-0.28093 0.31733-0.24826 0.42093-0.62066 0.69812-0.72799 0.09987-0.03267 0.3304-0.028 0.48719-0.07747 0.2072-0.06067 0.50026-0.3024 0.83625-0.41813 0.2184-0.07933 0.71866-0.09053 0.80266-0.17453 0.10267-0.1008 0-0.40039 0.03453-0.55812 0.168-0.78679 1.3533-0.95479 2.0533-1.2189 0.49186-0.1876 0.99585-0.52453 1.5353-0.41999-0.10546 0.37426-0.61039 0.2436-0.52453 0.69812 0.11853 0.62999 0.96132-0.18573 1.1853-0.27813 0.42466-0.1792 1.1517-0.28933 1.7089-0.49093 0.48906-0.17733 1.3654-0.44986 0.90439-1.0099-0.38453-0.0168-0.56932 0.45079-0.90439 0.59452-0.23146 0.02893-0.18946-0.1932-0.38639-0.21186-0.18666-0.014-0.294 0.17453-0.48626 0.1428-0.19226-0.02987-0.45919-0.33413-0.48906-0.55813-0.07653-0.58146 0.49186-0.82132 0.73266-1.2544-0.15866-0.52639-0.88479-0.10453-1.3253-0.31546 0.04293-0.31266 0.3668-0.53199 0.73359-0.59172 0.2996-0.05507 0.97065-0.01493 1.1498 0.14 0.10453 0.08773 0.01307 0.308 0.17546 0.45359 0.17733 0.16146 0.39479 0.1456 0.62532 0.10266 0.084-0.39759-0.51799-0.2968-0.45266-0.55999 0.47133-0.308 1.2357-0.0588 1.8125-0.14 0.33133-0.05227 0.68226-0.28653 0.97625-0.45266 0.28-0.15866 0.64306-0.43493 0.93892-0.17453 0.0812 0.28466-0.25853 0.38079-0.41719 0.52266-0.53292 0.47506-1.0836 1.0192-1.498 1.5698 0.25386 0.24826 0.71959 0.12133 1.1498 0.17453 0.168 0.01587 0.37799 0.07653 0.55626 0.09893 0.2072 0.03173 0.42933 0.02333 0.59172 0.0728 0.29306 0.07747 0.37333 0.38639 0.66266 0.38639 0.47599 0 0.48066-0.51799 0.21093-0.83999 0.08493-0.32946 0.22026-0.49933 0.1036-0.72986-0.21466-0.42933-1.0033 0-1.0444-0.55719-0.0252-0.34813 0.28933-0.33226 0.41626-0.59266-0.05787-0.67199 0.55533-0.72239 0.48999-1.3253-0.028-0.252-0.24266-0.252-0.41999-0.48813-0.09053-0.11946-0.1316-0.36119-0.24266-0.45453-0.364-0.308-1.106-0.2464-1.1508-0.83439-0.0168-0.3472 0.084-0.63652 0.0364-1.0136-0.0448-0.35093-0.2856-1.3253-0.59266-1.3925a0.33693 0.33693 0 0 0-0.1456 0zm23.672 1.1321c-0.21933 0.16426-0.44799 0.39479-0.49186 0.49933-0.10546 0.24733 0.0252 0.52266 0 0.90439 0.1988 0.086799 0.32013 0.47693 0.65986 0.66266 0.12786 0.076532 0.30426 0.037333 0.41906 0.10267 0.1988 0.1064 0.3556 0.35933 0.31546 0.55813-0.0588 0.2856-0.43493 0.20533-0.62906 0.41719 0.0336 0.40599-0.28186 0.46293-0.38266 0.73452 0.06067 0.1708 0.3192 0.14 0.34533 0.34533-0.03733 0.2212-0.43213 0.2548-0.34533 0.48906 0.37333 0.2912 0.75879-0.06347 1.1116-0.09986 0.77932-0.0952 1.581 0.09333 2.0598-0.28-0.06533-0.37333 0.38733-0.50306 0.34626-0.83532-0.0308-0.25106-0.44519-0.28-0.62906-0.45453-0.09707-0.0924-0.12413-0.308-0.2436-0.48813-0.1372-0.20627-0.40506-0.35467-0.55812-0.55626-0.20533-0.2716-0.62532-0.66546-0.62532-0.87265 9.33e-4 -0.097999 0.054132-0.16613 0.11666-0.2352a27.921 27.921 0 0 0-1.469-0.89132zm-1.2105 1.764v0.00933c-0.1792 0-0.35746 0.040133-0.50306 0.126-0.26506 0.16146-0.35093 0.41159-0.55626 0.48999-0.28186 0.10266-0.48253 0.01307-0.52453 0.2772-0.03453 0.21466 0.18106 0.32013 0.17453 0.52173-0.10267 0.25666-0.40226 0.3192-0.45359 0.62906 0.3528 0.57586 1.2002 0.06627 1.6389-0.07466 0.19693-0.06347 0.48533-0.056 0.59266-0.20813 0.12133-0.18386 0.014-0.50213 0.10546-0.76906 0.1008-0.29306 0.3808-0.33133 0.34626-0.59266-0.0308-0.238-0.42559-0.41346-0.82039-0.40879zm6.1664 1.8032c-0.02987 0.042-0.05133 0.08306-0.08493 0.12413-0.19973 0.23986-0.57492 0.49933-0.87172 0.62719-0.14466 0.0672-0.3192 0.05693-0.45173 0.14186-0.196 0.126-0.26413 0.44426-0.48719 0.59452-0.1596 0.10266-0.77186 0.41346-0.94079 0.41719-0.19786 0-0.38266-0.1848-0.52453-0.14186-0.20906 0.07093-0.182 0.47599-0.41719 0.55999-0.46199 0.16333-1.2338-0.41159-1.3944 0.27626 0.19786 0.39946 0.69999 0.30333 1.0453 0.52266 0.2184 0.13626 0.67479 0.74386 0.73172 0.97812 0.04853 0.19693-0.02333 0.97532-0.1036 1.1844-0.2156 0.55626-0.71866 0.364-1.3589 0.35-0.17453 0-0.3612 0.04853-0.52266 0.028-1.0789-0.07933-2.1616-0.45546-2.6488 0.31266 0.0392 0.59172 0.16333 0.98745 0.03267 1.5026-0.09613 0.37706-0.43213 0.71679-0.41533 1.0444 0.0084 0.168 0.20346 0.32946 0.24453 0.55719 0.02053 0.11946-0.056 0.37893 0 0.48906 0.17733 0.34346 0.65799 0.056 0.97345 0.098 0.308 0.0504 0.66826 0.49559 0.66452 0.83999-0.0019 0.2408-0.23333 0.63839-0.38639 0.86985-0.30426 0.46199-0.71212 0.48626-1.148 0.73359-0.36399 0.20533-0.51799 0.54879-0.73079 0.90719-0.23053 0.38733-0.37613 0.62252-0.28093 1.1834-0.31173 0.61786-0.78212 0.99865-1.428 1.2926-0.1904 0.0868-0.45359 0.112-0.62812 0.2436-0.14 0.098-0.21746 0.36866-0.41626 0.59079-0.24266 0.27346-0.50026 0.38266-0.62812 0.59079-0.09987 0.1624-0.13533 0.48253-0.24453 0.69812-0.14933 0.29213-0.46666 0.43586-0.66266 0.73266-0.08866 0.13906-0.14186 0.41253-0.24173 0.59266-0.22026 0.40133-0.59732 0.69532-0.55719 1.0481 0.04013 0.3416 0.42559 0.39853 0.45173 0.69626 0.01587 0.168-0.112 0.27066-0.1036 0.45359 0.01027 0.26786 0.18853 0.45453 0.20906 0.65986 0.0532 0.51799-0.18293 0.72799-0.28 1.0817-0.04667 0.16893-0.02613 0.3556-0.07 0.48813-0.08493 0.25853-0.44519 0.49746-0.45173 0.80359-0.0037 0.21933 0.22586 0.39106 0.24453 0.69626 0.01213 0.21093-0.10826 0.43399-0.07186 0.62719 0.07466 0.37986 0.75039 0.82319 1.0453 1.1181 0.39386 0.39386 0.91092 0.69999 1.0808 1.1153 0.1428 0.3528 0.14466 0.81479 0.41906 1.0808 0.20346 0.196 0.54133 0.31826 0.80266 0.52266 0.24266 0.18946 0.50586 0.35466 0.76532 0.55626 0.42373 0.33226 1.0668 0.99212 1.7425 0.94079 0.3528-0.01867 0.71306-0.31173 1.1135-0.38266a5.6774 5.6774 0 0 1 1.3598-0.0728c0.3192 0.02893 0.64306 0.224 0.97345 0.2072 0.34906-0.014 0.75599-0.28 1.1526-0.45359 0.68692-0.29866 1.7136-0.70092 2.7178-0.55439 0.76439 0.1064 0.72612 0.98839 1.2553 1.3234 0.61599 0.056 1.1162-0.224 1.6025-0.09987 0.36773 0.09146 0.79986 0.65146 0.83532 0.94265 0.03547 0.3024-0.16426 0.75226-0.20813 0.93892-0.09613 0.40693-0.10266 0.89225-0.17453 1.1498-0.056 0.20066-0.21186 0.32573-0.20813 0.52546 0.0028 0.18293 0.23146 0.62906 0.41999 0.86892 0.22773 0.294 0.59079 0.51986 0.86799 0.83906 0.22773 0.25853 0.39199 0.54506 0.54039 0.84746a27.912 27.912 0 0 0 5.0745-16.107c0-2.3473-0.28933-4.6237-0.82879-6.7992-0.30053-0.09147-0.62159-0.3668-1.0248-0.45453-0.2072-0.04667-0.49839-0.01307-0.65986-0.07653-0.37986-0.13066-0.33413-0.50026-0.66172-0.73079a2.8634 2.8634 0 0 0-0.97719-0.35c-0.18666-0.01493-0.36026 0.06347-0.55812 0.0308-0.23333-0.02053-0.56746-0.19226-0.76532-0.3136-0.18946-0.11013-0.57679-0.28653-0.62532-0.45173-0.07467-0.25666 0.46853-0.55252 0.48719-0.77092 0.01213-0.1652-0.2044-0.26786-0.24453-0.52173-0.02333-0.154 0.06347-0.31266 0.03453-0.41533-0.05133-0.1792-0.34626-0.3808-0.62719-0.38453-0.24826 0-0.48439 0.20066-0.69626 0.2072-0.30613 0.014-0.80732-0.168-1.1862-0.14-0.23333 0.014-0.44519 0.15493-0.66266 0.17173-0.60666 0.0504-1.0976-0.0224-1.568 0-0.3416 0.01493-0.93332 0.13533-1.2506 0.28186-0.1624 0.0784-0.2828 0.2436-0.49093 0.34813-0.09427 0.04387-0.224 0.04293-0.34813 0.1008-0.19786 0.0896-0.40413 0.30053-0.59266 0.34813-0.27253 0.07093-0.69252-0.0588-1.1853-0.02893-0.35373 0.014-0.93332 0.01587-0.93892-0.41813-0.0084-0.64399 1.0957-0.41066 1.7052-0.52452 0.2296-0.04107 0.35466-0.2548 0.62906-0.41719 0.13066-0.0812 0.294-0.0896 0.41719-0.1736 0.21093-0.14746 0.52826-0.49466 0.55999-0.66172 0.02707-0.15586-0.0896-0.37333-0.07187-0.48813 0.02427-0.14933 0.19413-0.3024 0.38266-0.48906 0.294-0.28933 0.61599-0.68132 0.97719-0.87079 0.2464-0.12506 0.58146-0.11573 0.69439-0.31546 0.02613-0.224-0.0392-0.3528-0.03453-0.55626 0.1512-0.13906 0.25666-0.25013 0.38266-0.2772 0.37613-0.084 0.74946 0.25946 1.1872 0.2408 0.18946 0 0.35466-0.14653 0.55812-0.27906 0.1708-0.10733 0.35466-0.19133 0.52079-0.2772 0.18386-0.09333 0.3696-0.29866 0.59266-0.3136 0.54786-0.02893 0.76252 0.57586 1.0117 0.90625 0.20813 0.27533 0.80639 0.74946 1.148 0.94265 0.1932 0.10266 0.45173 0.10546 0.66359 0.2072 0.20533 0.09333 0.49653 0.2884 0.75879 0.50866a27.972 27.972 0 0 0-5.9359-7.5972zm-40.698 5.2882v0.0019c0.17733 0 0.33226 0.02427 0.40506 0.09427-0.11386 0.46106-1.1013 0.33973-1.4634 0.1736 0.023333-0.17266 0.29306-0.22026 0.52079-0.24453 0.16146-0.014 0.36119-0.028 0.53759-0.0252zm43.21 0.83812c-0.26226 0-0.42373 0.55999-0.0504 0.62532 0.1596-0.09333 0.28373-0.22866 0.24453-0.52266-0.0672-0.07747-0.13253-0.09893-0.19413-0.09893zm-0.06906 0.98092c-0.13253 0.014-0.2856 0.0896-0.43586 0.2464 0.0093 0.38919 0.04387 0.63746-0.03267 0.97532 0.224 0.42933 0.72239 0.04387 0.83719-0.24453 0.1232-0.66452-0.07653-0.99678-0.36866-0.97719zm4.0319 1.5372c-0.05693 0.12133-0.13253 0.23426-0.11106 0.36213a0.48066 0.48066 0 0 0 0.26133-0.0308c-0.05133-0.11013-0.09707-0.22213-0.14933-0.33133zm-1.3645 0.392v0.0019c-0.22213 0.014-0.42186 0.056-0.55812 0.16146 0.2548 0.41813 0.78679 0.55719 1.358 0.65986 0.20533-0.15493 0.21933-0.49839 0.3136-0.76532-0.31266 0-0.74386-0.07373-1.1135-0.05787zm-51.293 6.0078c-0.099865 0.47879-0.18946 0.96132-0.26506 1.4494 0.088665 0.028 0.182 0.04947 0.26506 0.084 0.3052-0.252 0.041066-0.71492 0-1.0799-0.018666-0.16053 0.0168-0.30613 0-0.45359zm3.9591 10.645c-0.14746 0-0.27813 0.196-0.40506 0.28466-0.19226 0.1344-0.37799 0.2688-0.59172 0.34813-0.47879 0.17733-0.77652 0.08587-1.1508 0.27906-0.34626 0.1792-0.35933 0.47879-0.55626 0.83626-0.16053 0.29213-0.52733 0.71306-0.76906 0.73079-0.036399 0.0019-0.070932-0.01867-0.10733-0.028 2.8513 10.596 11.732 18.672 22.773 20.343 0.56746-0.2688 0.65332-0.92399 0.95852-1.4896 0.15306-0.28186 0.35653-0.56932 0.3864-0.76906 0.028-0.18013-0.06907-0.3416-0.03733-0.55626 0.02987-0.20906 0.224-0.39759 0.28186-0.62812 0.0756-0.3024 0.1036-0.74292 0.1036-1.0799 0-0.27626-0.12973-0.51893-0.14186-0.76719-0.0448-0.90439 0.32946-1.008 0.66359-1.4998 0.16613-0.24453 0.23146-0.52266 0.34813-0.69812 0.56186-0.83812 1.5344-1.2413 1.4634-2.5088-0.0224-0.41999-0.2828-1.3645-0.59172-1.498-0.1764-0.08026-0.58146-0.01587-0.83719-0.10266-0.82319-0.30706-1.3066-1.329-2.1597-1.3944-0.18293-0.014-0.3528 0.07747-0.55813 0.07467-0.33786-0.014-0.84559-0.23613-1.2198-0.27906-0.23706-0.02053-0.55346 0.07467-0.69626 0-0.2184-0.1008-0.23986-0.50586-0.41719-0.62626-0.14186-0.09427-0.41439-0.1232-0.62719-0.21-0.34346-0.12786-0.61599-0.28653-1.0117-0.3136-0.12133-0.014-0.2772 0.0616-0.41906 0.0308-0.21933-0.0308-0.3864-0.29773-0.58799-0.41999-0.25386-0.15493-0.49093-0.23333-0.59546-0.45266 0.22866-0.75132-0.40319-0.96132-0.55719-1.3944-0.0728-0.20346-0.04107-0.44426-0.10453-0.62532-0.09053-0.2604-0.34533-0.41253-0.62626-0.62906-0.50399-0.38733-0.95199-0.74946-1.6716-0.83906-0.31733-0.03173-0.62906 0.09427-1.0117 0.07467-0.40599-0.01773-0.91839-0.3836-1.2226-0.73079-0.294-0.33973-0.43866-0.64399-0.69532-0.80546-0.2436-0.15493-0.56466-0.15213-0.73079-0.30986-0.07467-0.0756-0.05973-0.18666-0.13906-0.35-0.12133-0.25386-0.32946-0.39479-0.17733-0.69812-0.2772-0.1456-0.28653 0.26226-0.58986 0.21-0.27066-0.38453-0.50026-0.56746-1.1153-0.45453-0.28093 0.0588-0.43773 0.41066-0.76532 0.41999-0.27066 0-0.48346-0.29866-0.83999-0.34906-0.26786-0.03173-0.57399 0.07747-0.76532 0.02987-0.2968-0.06346-0.38919-0.308-0.66079-0.48719-0.1988-0.13066-0.58519-0.35373-0.69719-0.35-0.35 0.014-0.59732 0.74386-1.0808 0.48906-0.2352-0.29866 0.38453-0.45453 0.1064-0.73359-0.053199-0.0532-0.10453-0.07187-0.15306-0.07093zm0.0196 1.4373c0.23613 0.01307 0.2688 0.50866 0.028 0.54786-0.26133 0.03733-0.39199-0.40599-0.13906-0.52266a0.21746 0.21746 0 0 1 0.112-0.0168v-0.0093z" fill="#ffffff" opacity=".5" stroke-width=".93332"/>
 <rect transform="rotate(-45)" x="-22.736" y="44.685" width="22.4" height=".93332" rx=".46666" ry=".46666" fill="#ff5555" stroke-width=".93332"/>
 <path d="m32 3.9996c-0.31266 0-0.62252 0.014-0.93332 0.023333v27.043h-27.043c-0.00933 0.3108-0.023333 0.62066-0.023333 0.93332s0.013066 0.62346 0.023333 0.93332h27.043v27.043c0.3108 0.01027 0.62066 0.02427 0.93332 0.02427s0.62252-0.014 0.93332-0.02427v-27.043h27.043c0.0093-0.30986 0.02333-0.61972 0.02333-0.93332s-0.01307-0.62252-0.02333-0.93332h-27.043v-27.043c-0.3108-0.0093332-0.62066-0.023333-0.93332-0.023333z" opacity=".15" stroke-width=".93332"/>
</svg>
