<svg width="64" height="64" version="1.1" viewBox="0 0 16.933 16.933" xmlns="http://www.w3.org/2000/svg" xmlns:xlink="http://www.w3.org/1999/xlink">
 <circle cx="8.4665" cy="8.4665" r="7.1436" fill="#f9f9f9" style="paint-order:stroke markers fill"/>
 <path d="m6.0641 4.7624-0.14262 0.12195 0.00878 0.010334h-0.65731c-0.025373 0-0.050803 0.00292-0.07493 0.00827-0.024439 0.00547-0.048116 0.013557-0.069245 0.023254-0.022233 0.010205-0.043551 0.02251-0.063561 0.037206-0.10028 0.073712-0.17053 0.20288-0.17053 0.35449v4.9619l0.65266 1.0154 0.11989 0.18655 0.28576 0.44441 0.28576-0.44441 0.11989-0.18655 0.65266-1.0154v-1.5306a0.1323 0.1323 0 0 1 0.046508-0.10077l2.8065 3.2742 0.43562 0.24804h0.82216l-0.11317-0.13229h0.65111c0.0252 0 0.05043-3e-3 0.07441-0.0083-0.01168 0.0026-0.0054-1.3e-4 0.02067-0.0078 0.06977-0.02031 0.13203-0.06297 0.18086-0.12092l0.08836 0.10283c0.09027-0.10009 0.14624-0.23714 0.14624-0.38912v-0.6599l-0.13229-0.15451v-5.4827c0-0.24252-0.17286-0.42322-0.37826-0.42322h-1.3601c-0.2054 0-0.37826 0.1807-0.37826 0.42322v2.8592a0.1323 0.1323 0 0 1-0.046498 0.10025l-2.8861-3.3672c-0.049673-0.057953-0.29931-0.10573-0.35604-0.14779h-0.28318z" fill="#f09e19" stroke-width=".26458"/>
 <path d="m10.3 4.7624c-0.28268 0-0.51056 0.2477-0.51056 0.55551v6.2973c0 0.30781 0.22787 0.55551 0.51056 0.55551h1.3601c0.28268 0 0.51056-0.2477 0.51056-0.55551v-6.2973c0-0.30781-0.22787-0.55551-0.51056-0.55551h-1.0769z" fill="#ffb333" stroke-width=".26458"/>
 <path d="m5.273 4.7624c-0.035336 0-0.070075 0.00399-0.10335 0.011369-0.033172 0.00738-0.065659 0.01806-0.096116 0.032038-0.030544 0.01402-0.059677 0.031228-0.086815 0.051159-0.13559 0.099672-0.22427 0.26866-0.22427 0.46094v5.0006l0.79373 1.2345 0.39687 0.61752 0.39687-0.61752 0.79373-1.2345v-5.0006c0-0.19228-0.088677-0.36127-0.22427-0.46094h-5.291e-4c-0.054204-0.039802-0.11597-0.068424-0.18241-0.083197-0.033252-0.0073772-0.068003-0.011369-0.10334-0.011369h-1.0769z" fill="#ffb333" stroke-width=".26458"/>
 <rect x="9.7894" y="6.3499" width="2.3812" height=".79373" fill="#7d7d7c" stroke-width=".26458"/>
 <path d="m10.3 4.7624c-0.28268 0-0.51035 0.2478-0.51035 0.55561v1.0319h2.3812v-1.0319c0-0.30781-0.22766-0.55561-0.51035-0.55561z" fill="#ff5636" stroke-width=".26458"/>
 <path d="m4.7624 10.319 0.68057 1.0583h1.0201l0.68057-1.0583z" fill="#f7ddc1" stroke-width=".26458"/>
 <path d="m5.443 11.377 0.51004 0.79374 0.51004-0.79374z" fill="#775d53" stroke-width=".26458"/>
 <rect x="9.7894" y="6.3499" width="2.3812" height=".26458" fill="#000000" opacity=".2" stroke-width=".26458"/>
</svg>
