<svg xmlns="http://www.w3.org/2000/svg" width="64" height="64" viewBox="0 0 16.933 16.933"><rect width="13.758" height="13.758" x="-15.343" y="-15.346" fill="#333" rx="2.117" ry="2.117" transform="matrix(0 -1.0003 -1 0 0 -.002)"/><path fill="#4bd239" d="M13.284 1.585H7.673v4.122l.109-.003c2.397-.015 3.952 2.07 3.952 2.07s-1.842 2.29-3.762 2.29q-.155 0-.3-.015v.603q.107.008.217.007c1.786 0 3.08-.932 4.329-2.036.208.17 1.057.583 1.231.763-1.19 1.02-3.961 1.84-5.533 1.84q-.124 0-.243-.008v4.126h5.622a2.11 2.11 0 0 0 2.05-2.116V3.701a2.11 2.11 0 0 0-2.061-2.116m-5.611 9.067c-.066-.003-.114-.011-.178-.02-2.185-.281-2.933-2.746-2.933-2.746s.978-1.48 2.933-1.632c.063-.004.113-.009.178-.01v.657c.052-.003.124-.007.178-.007 1.134 0 1.807.904 1.807.904l-.923.795c-.37-.633-.538-.949-1.062-1.07v-.622c-.065.004-.114.01-.178.017-1.317.145-2.11 1.045-2.11 1.045s.458 1.758 2.11 2.058c.064.013.112.02.178.028v-.498c-.068-.013-.117-.03-.178-.051-.93-.32-1.234-1.434-1.234-1.434s.54-.662 1.231-.578h.003c.072.01.117.022.178.037V9.55c0 .104.229.034.346.034 1.344 0 2.6-1.783 2.6-1.783S9.441 6.19 7.673 6.243v-.534l-.178.01c-2.165.177-4.04 2.054-4.04 2.054s1.062 3.144 4.04 3.43c.065.007.112.011.178.014z"/></svg>