<svg width="64" height="64" version="1.1" viewBox="0 0 16.933 16.933" xmlns="http://www.w3.org/2000/svg" xmlns:xlink="http://www.w3.org/1999/xlink">
 <defs>
  <clipPath id="b">
   <rect x="-16.404" y="273.19" width="10.583" height="10.583" rx=".635" ry=".635" fill="#2196f3" stroke-linecap="round" stroke-linejoin="round" stroke-opacity=".098" stroke-width=".236" paint-order="markers stroke fill"/>
  </clipPath>
 </defs>
 <g transform="matrix(1.25 0 0 1.25 22.357 -339.63)" clip-path="url(#b)" stroke-width=".8">
  <rect transform="matrix(0 -1 -1 0 0 0)" x="-283.77" y="5.821" width="10.583" height="10.583" rx=".529" ry=".529" fill="#333"/>
  <path d="M-11.906 273.188v3.17l.084-.002c1.844-.012 3.04 1.592 3.04 1.592s-1.417 1.762-2.894 1.762c-.08 0-.156-.004-.23-.012v.464c.054.004.11.005.166.005 1.374 0 2.369-.717 3.33-1.566.16.13.813.448.947.587-.915.784-3.047 1.415-4.256 1.415-.064 0-.126-.002-.187-.006v3.174h5.556s.53 0 .53-.53v-9.524c0-.53-.53-.53-.53-.53zm0 7.409v-.435c-.051-.003-.088-.009-.137-.015-1.681-.217-2.256-2.113-2.256-2.113s.752-1.138 2.256-1.255c.048-.003.087-.007.137-.008.001 0-.001 0 0 0v-.412c-.05.002-.088.004-.137.008-1.666.136-3.108 1.58-3.108 1.58s.817 2.418 3.108 2.639c.05.005.086.008.137.01zm0-3.827v.506c.04-.002.095-.005.137-.005.872 0 1.39.695 1.39.695l-.71.612c-.285-.487-.414-.73-.817-.823v1.56c0 .08.176.026.266.026 1.034 0 2-1.372 2-1.372s-.906-1.24-2.266-1.199zm0 2.545c-.052-.01-.09-.024-.137-.04-.716-.246-.949-1.103-.949-1.103s.415-.509.947-.444h.002c.055.007.09.017.137.028v-.48c-.05.003-.088.008-.137.013-1.013.112-1.623.804-1.623.804s.352 1.352 1.623 1.583c.049.01.086.016.137.022z" color="#bebebe" fill="#4bd239" overflow="visible"/>
 </g>
</svg>
