<svg width="64" height="64" version="1.1" viewBox="0 0 64 64" xmlns="http://www.w3.org/2000/svg">
 <circle cx="32" cy="32" r="27" fill="#f2f2f2" stroke-linecap="round" stroke-linejoin="round" stroke-width="1.9926"/>
 <path d="m32 8c-13.296 0-24 10.704-24 24 0 7.3757 3.3048 13.944 8.5078 18.34v-25.635h9.9902v4.5762c1.5071-1.8234 3.1057-3.1637 4.7988-4.0195 1.6931-0.87444 3.5666-1.3066 5.6133-1.3066 3.6096 0 6.3425 1.1023 8.2031 3.3164 1.8792 2.2141 2.8184 5.4327 2.8184 9.6562v13.014c4.9433-4.39 8.0684-10.78 8.0684-17.941 0-13.296-10.704-24-24-24zm1.1953 23.49c-2.0839 0-3.7194 0.80708-4.9102 2.4258-1.1908 1.6001-1.7871 3.8212-1.7871 6.668v14.76c1.7679 0.41215 3.605 0.65628 5.502 0.65628 2.034 0 3.9991-0.27802 5.8828-0.75004v-13.857c0-2.6979-0.06348-4.5548-0.19332-5.5781-0.11112-1.0233-0.3176-1.778-0.61523-2.2617-0.39073-0.65118-0.91808-1.1523-1.5879-1.5059-0.66977-0.37213-1.4351-0.55661-2.291-0.55661z" fill="#ff8000"/>
</svg>
