<svg xmlns="http://www.w3.org/2000/svg" width="64" height="64" viewBox="0 0 16.933 16.933"><g transform="translate(0 -280.067)"><path fill="#2f8dac" d="M2.381 284.83h12.171c.44 0 .794.353.794.793v8.467c0 .44-.354.793-.794.793H2.382a.79.79 0 0 1-.795-.793v-8.467c0-.44.355-.794.794-.794z" paint-order="markers stroke fill"/><rect width="11.642" height="8.996" x="2.646" y="282.183" fill="#fff" stroke="#000" stroke-opacity=".059" stroke-width=".265" paint-order="markers stroke fill" ry=".794"/><path fill="#26a4ca" d="M15.181 285.143a.8.8 0 0 1 .165.48v8.467c0 .44-.354.793-.794.793H2.382a.8.8 0 0 1-.531-.206z" paint-order="markers stroke fill"/><path fill="#49bde3" d="M1.752 285.143a.8.8 0 0 0-.165.48v8.467c0 .44.355.793.794.793h12.171a.8.8 0 0 0 .53-.206z" paint-order="markers stroke fill"/><path fill="#fff" d="M2.739 289.37c-.197 0-.358.147-.358.33v.383l2.32 1.339v-.982l-1.778-1.023a.4.4 0 0 0-.184-.048m2.35 0v.982l2.32 1.338v-.981m-5.028-.313v.982l2.32 1.339v-.982zm2.707.268v.982l2.32 1.338v-.981zm-2.707 1.026v.982l2.32 1.339v-.982m.387-1.07v.98l1.779 1.024a.4.4 0 0 0 .184.048c.197 0 .357-.148.357-.33v-.384"/></g></svg>