<svg width="64" height="64" version="1.1" viewBox="0 0 16.933 16.933" xmlns="http://www.w3.org/2000/svg">
 <g stroke-width=".26458">
  <path d="m1.8947 2.3812a1.0982 1.1037 0 0 0-1.101 1.1064v9.9578c0 0.61323 0.49076 1.1064 1.101 1.1064h6.8129v-12.171z" fill="#1e88e5"/>
  <path d="m5.027 5.2918c0 0.73047-0.59223 1.3227-1.3231 1.3227-0.7306 0-1.3227-0.59222-1.3227-1.3227 0-0.73087 0.59223-1.3231 1.3227-1.3231a1.3228 1.3228 0 0 1 1.3231 1.3231z" fill="#ff3737"/>
  <path d="m6.6553 5.2918c0 0.73047-0.59263 1.3227-1.3231 1.3227-0.73046 0-1.3231-0.59222-1.3231-1.3227 0-0.73087 0.59249-1.3231 1.3231-1.3231 0.7306 0 1.3231 0.59222 1.3231 1.3231z" fill="#ffc025"/>
  <path d="m4.5168 4.2498a1.325 1.325 0 0 0-0.50768 1.0419 1.3242 1.3242 0 0 0 0.51022 1.0414 1.3232 1.3232 0 0 0 0.50754-1.0414 1.3228 1.3228 0 0 0-0.51022-1.0418z" fill="#ff872b"/>
  <path d="m2.3812 11.906h4.7624v1.0583h-4.7624z" fill="#9a9996"/>
  <path d="m2.3812 10.319h2.6458v0.79373h-2.6458z" fill="#deddda"/>
  <path d="m8.4668 2.3812v12.171h5.5559v-1.5875h2.1166v-8.9957h-2.1166v-1.5875z" fill="#2196f3"/>
 </g>
 <g transform="matrix(.5474 0 0 .5474 -.56565 -.27152)">
  <path d="m17.95 15.479h4.35v4.35h-4.35z" opacity=".15"/>
  <path d="m22.3 15.479h4.35v4.35h-4.35z" fill="#fff" opacity=".2"/>
  <path d="m17.95 19.829h4.35v4.35h-4.35z" fill="#fff" opacity=".2"/>
  <path d="m22.3 19.829h4.35v4.35h-4.35z" opacity=".15"/>
 </g>
 <path d="m8.4666 1.5875v13.758" fill="none" stroke="#e4e4e4" stroke-linecap="round" stroke-width="1.5875"/>
</svg>
