<svg xmlns="http://www.w3.org/2000/svg" width="64" height="64" version="1"><g stroke-width=".102" transform="translate(-6 -6)"><rect width="52" height="52" x="12" y="12" fill="#333" rx="10" ry="10"/><path fill="#6c31e3" d="M48.552 56.109c-.264 1.94-2.163 3.453-4.063 2.935-2.68-.741-5.789-1.899-8.602-2.112l-4.296-.325a2.83 2.83 0 0 1-1.828-.853l-7.414-7.618a2.83 2.83 0 0 1-.549-3.148s4.58-10.055 4.753-10.583c.173-.518.793-5.078 1.158-7.536a2.84 2.84 0 0 1 .914-1.686l8.755-7.87a2.844 2.844 0 0 1 4.123.355l7.364 9.343a3 3 0 0 1 .63 1.859c0 1.767.152 5.403 1.127 7.75a30.8 30.8 0 0 0 3.615 5.94 1.42 1.42 0 0 1 .112 1.595c-.65 1.097-1.92 3.19-3.727 5.88a14.55 14.55 0 0 0-2.072 6.074"/><path fill="#8962d9" d="M30.555 56.322c3.443-6.977 3.352-11.984 1.879-15.539-1.34-3.29-3.85-5.362-5.82-6.652q-.06.289-.182.548L21.8 44.988a2.83 2.83 0 0 0 .559 3.148l7.404 7.618c.233.233.508.426.792.568"/><path fill="#a683ee" d="M39.92 42.164a11 11 0 0 1 2.722.62c2.823 1.056 5.393 3.432 7.515 8.013.153-.264.305-.518.468-.762a124 124 0 0 0 3.727-5.88 1.42 1.42 0 0 0-.101-1.595 30.8 30.8 0 0 1-3.626-5.941c-.975-2.336-1.117-5.982-1.128-7.75a3 3 0 0 0-.63-1.858l-7.363-9.344-.121-.152c.538 1.777.507 3.199.172 4.489-.304 1.198-.873 2.285-1.472 3.433a31 31 0 0 0-.6 1.188 14.2 14.2 0 0 0-1.604 5.89c-.102 2.458.396 5.536 2.03 9.649z"/><path fill="#c9b4f5" d="M39.909 42.164c-1.635-4.113-2.133-7.19-2.031-9.648.101-2.438.812-4.266 1.605-5.891l.609-1.188c.589-1.148 1.148-2.235 1.462-3.433a7.97 7.97 0 0 0-.172-4.49 2.844 2.844 0 0 0-4.002-.202l-8.755 7.87a2.84 2.84 0 0 0-.914 1.687l-1.066 7.068c0 .072-.02.132-.03.204 1.97 1.28 4.468 3.351 5.819 6.632.264.65.487 1.33.65 2.071a20.3 20.3 0 0 1 6.825-.69z"/><path fill="#663db9" d="M44.5 59.044c1.89.518 3.788-.995 4.052-2.945a15.5 15.5 0 0 1 1.615-5.302c-2.133-4.58-4.702-6.957-7.515-8.013-2.996-1.117-6.257-.742-9.568.06.742 3.362.305 7.76-2.518 13.478.314.162.67.254 1.025.284l4.459.335c2.417.173 6.023 1.422 8.45 2.103"/></g></svg>