<svg width="64" height="64" version="1" xmlns="http://www.w3.org/2000/svg">
 <circle cx="32" cy="32" r="27" fill="#e7e2f6" stroke-width=".9474"/>
 <g transform="matrix(.75755 0 0 .75755 7.7585 7.7586)">
  <path d="m38.788 4.703c-0.17544 0.0089-0.3469 0.05946-0.503 0.15039l-16.748 9.7726c-0.21414 0.12472-0.3899 0.31909-0.49758 0.56054v0.0028l-0.0108 0.02187-6.2225 14.033c-0.14563 0.32872-0.15144 0.71176-0.01356 1.0445l9.73 23.477 0.1271 0.30898c0.14212 0.34372 0.41784 0.5925 0.74368 0.69453l14.587 4.4816c0.26642 0.08152 0.54941 0.0598 0.80317-0.06288 0.25508-0.1229 0.46438-0.34053 0.58412-0.6207l2.5745-6.0512v-0.0028c0.04102-0.0949 0.0714-0.19744 0.08924-0.30078l5.2571-32.339h0.0028c0.0128-0.07848 0.0174-0.15812 0.0162-0.23789-0.0043-0.25766-0.08233-0.50488-0.22175-0.71093l-9.2973-13.707c-0.18554-0.27347-0.45979-0.4517-0.7626-0.50312-0.07866-0.01314-0.15854-0.01514-0.23798-0.01094z" fill="#251c50"/>
  <path d="m23.465 24.281 0.41916 29.753 0.1271 0.30899a1.8623 1.9537 0 0 0 1.1818 1.0965l14.587 4.4817a1.8623 1.9537 0 0 0 1.3008-0.10118z" fill="#4a37a0"/>
  <path d="m39.161 12.447-15.696 11.835 17.616 35.539a1.8623 1.9537 0 0 0 0.92216-0.97619l2.5745-6.0513a1.8623 1.9537 0 0 0 0.13792-0.46758l5.2571-32.337a1.8623 1.9537 0 0 0 0.02704-0.36368z" fill="#6d55d2"/>
  <path d="m38.753 4.0028a1.8623 1.9537 0 0 0-0.81399 0.24336l-16.748 9.7729a1.8623 1.9537 0 0 0-0.78424 0.88322l-0.0108 0.02461 3.0693 9.3545 15.696-11.835-0.02164-8.422a1.8623 1.9537 0 0 0-0.38671-0.021876z" fill="#4a37a0"/>
  <path d="m20.396 14.927-6.2225 14.03a1.8623 1.9537 0 0 0-0.01892 1.6024l9.73 23.475-0.41916-29.753z" fill="#412e8b"/>
  <path d="m39.139 4.0247 0.02164 8.422 10.839 7.1779a1.8623 1.9537 0 0 0-0.34345-1.0965l-9.2973-13.708a1.8623 1.9537 0 0 0-1.2196-0.79572z" fill="#9782f1"/>
 </g>
</svg>
