<svg width="64" height="64" version="1" xmlns="http://www.w3.org/2000/svg">
 <defs>
  <filter id="a" x="80.1" y="37" width="351.1" height="443.2" color-interpolation-filters="sRGB" filterUnits="userSpaceOnUse">
   <feFlood flood-opacity="0" result="BackgroundImageFix"/>
   <feBlend in="SourceGraphic" in2="BackgroundImageFix" result="shape"/>
   <feGaussianBlur result="effect1_foregroundBlur_744_9191" stdDeviation="6.5"/>
  </filter>
 </defs>
 <g transform="translate(-6,-6)" stroke-width=".10156">
  <rect id="logo-bg" x="12" y="12" width="52" height="52" rx="10" ry="10" fill="#333333"/>
  <path id="arrow" d="m48.552 56.109c-0.26406 1.9398-2.1633 3.4531-4.0625 2.9352-2.6812-0.7414-5.7891-1.8992-8.6024-2.1125l-4.2961-0.325a2.8336 2.8336 0 0 1-1.8281-0.85312l-7.4141-7.6172a2.8336 2.8336 0 0 1-0.54843-3.1484s4.5805-10.055 4.7531-10.583c0.17266-0.51797 0.79219-5.0781 1.1578-7.5359a2.8438 2.8438 0 0 1 0.91407-1.6859l8.7547-7.8711a2.8438 2.8438 0 0 1 4.1234 0.35547l7.3633 9.3438a3.0164 3.0164 0 0 1 0.62969 1.8586c0 1.7672 0.15234 5.4031 1.1273 7.7492a30.773 30.773 0 0 0 3.6156 5.9414 1.4219 1.4219 0 0 1 0.11172 1.5945c-0.65 1.0969-1.9195 3.1891-3.7274 5.8805a14.554 14.554 0 0 0-2.0719 6.0734z" fill="#6c31e3"/>
  <path d="m30.555 56.322c3.443-6.9774 3.3516-11.984 1.8789-15.539-1.3406-3.2906-3.8492-5.3625-5.8195-6.6524-0.0406 0.19297-0.10156 0.37578-0.18281 0.54844l-4.6312 10.309a2.8336 2.8336 0 0 0 0.55859 3.1484l7.4039 7.6172c0.23359 0.23359 0.50781 0.42656 0.79218 0.56875z" fill="#8962d9"/>
  <path d="m39.92 42.164c0.92421 0.0914 1.8281 0.29453 2.7219 0.61953 2.8234 1.0562 5.393 3.4328 7.5156 8.0133 0.15234-0.26406 0.30468-0.51797 0.46718-0.76172a124.11 124.11 0 0 0 3.7274-5.8805 1.4219 1.4219 0 0 0-0.10157-1.5945 30.773 30.773 0 0 1-3.6258-5.9414c-0.975-2.3359-1.1172-5.982-1.1273-7.7492 0-0.67031-0.21328-1.3305-0.62969-1.8586l-7.3633-9.3438-0.12187-0.15234c0.53828 1.7773 0.50781 3.1992 0.17265 4.4891-0.30469 1.1984-0.87344 2.2852-1.4726 3.4328-0.20313 0.38594-0.40625 0.78203-0.59922 1.1883a14.219 14.219 0 0 0-1.6047 5.8906c-0.10156 2.4578 0.39609 5.5352 2.0312 9.6484z" fill="#a683ee"/>
  <path d="m39.909 42.164c-1.6352-4.1133-2.1328-7.1906-2.0312-9.6484 0.10156-2.4375 0.8125-4.2656 1.6047-5.8906l0.60937-1.1883c0.58906-1.1476 1.1477-2.2344 1.4625-3.4328a7.9727 7.9727 0 0 0-0.17265-4.4891 2.8438 2.8438 0 0 0-4.0016-0.20313l-8.7547 7.8711a2.8438 2.8438 0 0 0-0.91407 1.6859l-1.0664 7.0688c0 0.0711-0.0203 0.13203-0.0305 0.20313 1.9703 1.2797 4.4688 3.3516 5.8195 6.632 0.26406 0.65 0.4875 1.3305 0.65 2.0719a20.312 20.312 0 0 1 6.825-0.69062z" fill="#c9b4f5"/>
  <path d="m44.5 59.044c1.8891 0.51797 3.7883-0.99531 4.0524-2.9453a15.539 15.539 0 0 1 1.6148-5.3016c-2.1328-4.5805-4.7023-6.957-7.5156-8.0133-2.9961-1.1172-6.2562-0.74141-9.5672 0.0609 0.74141 3.3617 0.30469 7.7594-2.5188 13.477 0.31484 0.1625 0.67031 0.2539 1.0258 0.28437l4.4586 0.33516c2.4172 0.17266 6.0227 1.4219 8.45 2.1023z" fill="#663db9"/>
 </g>
</svg>
