<svg width="64" height="64" version="1.1" xmlns="http://www.w3.org/2000/svg">
 <rect x="6" y="6" width="52" height="52" rx="8" ry="8" fill="#496cdf" fill-rule="evenodd" style="paint-order:stroke fill markers"/>
 <path d="m20.874 28.983c3.5126 0 5.8487-2.437 5.8487-6.084 0-3.5294-2.2689-5.8992-5.6639-5.8992-3.479 0-5.7815 2.437-5.7815 6.084 0 3.5462 2.2353 5.8992 5.5966 5.8992zm0.18487-1.8992c-2.1176 0-3.5126-1.6639-3.5126-4.1849 0-2.4034 1.3277-3.9832 3.3277-3.9832 2.1681 0 3.5798 1.6471 3.5798 4.1681 0 2.4034-1.3445 4-3.395 4zm13.689 1.916c1.1933 0 2.5042-0.30252 3.5126-0.78992l-0.4874-1.563c-0.7563 0.28571-1.6975 0.45378-2.5042 0.45378-2.5546 0-4.1513-1.6807-4.1513-4.3025 0-2.4706 1.4454-3.8823 3.8992-3.8823 0.92437 0 1.9832 0.18487 2.7395 0.4874l0.60504-1.6807c-0.9916-0.47059-2.1345-0.72269-3.2941-0.72269-3.6807 0-6.2017 2.437-6.2017 6.1008 0 3.5294 2.3866 5.8992 5.8823 5.8992zm6.1092-0.16807h7.8655v-1.8992h-5.6975v-3.126h5.2269v-1.8992h-5.2269v-2.8403h5.6975v-1.8992h-7.8655z" fill="#ffe680" fill-rule="evenodd" stroke-linecap="round" stroke-linejoin="round" stroke-width="4.2017" style="paint-order:stroke fill markers" aria-label="OCE"/>
 <path d="m11.346 50h1.8329c1.8156 0 3.0519-1.1844 3.0519-3.1124 0-1.8156-1.0893-2.8876-2.9222-2.8876h-1.9625zm0.71758-0.62248v-4.755h1.1585c1.4611 0 2.2738 0.85591 2.2738 2.3775 0 1.513-0.80403 2.3775-2.2305 2.3775zm5.7536 0.62248h0.71758v-2.4294h1.1844c0.06052 0 0.12104 0 0.1902-0.0086l1.3919 2.438h0.85591l-1.5216-2.5937c0.72622-0.2853 1.1758-0.92507 1.1758-1.7291 0-1.0548-0.7781-1.6772-2.0058-1.6772h-1.9885zm0.71758-3.0346v-2.3429h1.1844c0.85591 0 1.3573 0.44092 1.3573 1.1844 0 0.73487-0.44957 1.1585-1.2709 1.1585zm4.232 3.0346h0.75216l0.63977-1.781h2.4986l0.59654 1.781h0.80403l-2.1095-6h-0.93372zm1.6081-2.4035 1.0634-2.9827 1.0029 2.9827zm5.9784 2.4035h0.71758l1.5908-5.0836 1.6772 5.0836h0.69164l1.781-6h-0.71758l-1.3919 5.0144-1.5994-4.9712h-0.80403l-1.5562 5.0231-1.366-5.0663h-0.82997zm7.6815 0h3.7695v-0.62248h-3.0519v-2.17h2.8184v-0.62248h-2.8184v-1.9625h3.0519v-0.62248h-3.7695zm8.8314 0h0.85591l-2.1787-3.147 1.9539-2.853h-0.81268l-1.513 2.2911-1.487-2.2911h-0.85591l1.9452 2.8876-2.1182 3.1124h0.81268l1.6772-2.5591zm2.0187 0h3.7695v-0.62248h-3.0519v-2.17h2.8184v-0.62248h-2.8184v-1.9625h3.0519v-0.62248h-3.7695z" fill="#ffffff" fill-rule="evenodd" stroke-linecap="round" stroke-linejoin="round" stroke-width="2.1614" style="paint-order:stroke fill markers" aria-label="DRAWEXE"/>
</svg>
