<svg xmlns="http://www.w3.org/2000/svg" width="64" height="64"><rect width="52" height="52" x="6" y="6" fill="#496cdf" fill-rule="evenodd" rx="8" ry="8" style="paint-order:stroke fill markers"/><path fill="#ffe680" fill-rule="evenodd" d="M20.874 28.983c3.513 0 5.849-2.437 5.849-6.084 0-3.53-2.27-5.9-5.664-5.9-3.48 0-5.782 2.438-5.782 6.085 0 3.546 2.236 5.899 5.597 5.899m.185-1.9c-2.118 0-3.513-1.663-3.513-4.184 0-2.403 1.328-3.983 3.328-3.983 2.168 0 3.58 1.647 3.58 4.168 0 2.403-1.345 4-3.395 4M34.748 29c1.193 0 2.504-.303 3.512-.79l-.487-1.563a7.5 7.5 0 0 1-2.504.454c-2.555 0-4.151-1.681-4.151-4.303 0-2.47 1.445-3.882 3.899-3.882.924 0 1.983.185 2.74.487l.604-1.68A7.7 7.7 0 0 0 35.067 17c-3.68 0-6.201 2.437-6.201 6.1 0 3.53 2.386 5.9 5.882 5.9m6.11-.168h7.865v-1.9h-5.698v-3.125h5.227v-1.9h-5.227v-2.84h5.698v-1.9h-7.866z" aria-label="OCE" style="paint-order:stroke fill markers"/><path fill="#fff" fill-rule="evenodd" d="M11.346 50h1.833c1.816 0 3.052-1.184 3.052-3.112 0-1.816-1.09-2.888-2.922-2.888h-1.963zm.718-.622v-4.755h1.158c1.461 0 2.274.855 2.274 2.377 0 1.513-.804 2.378-2.23 2.378zm5.753.622h.718v-2.43h1.184q.088.002.19-.008L21.301 50h.856l-1.521-2.594a1.8 1.8 0 0 0 1.175-1.729c0-1.055-.778-1.677-2.005-1.677h-1.989zm.718-3.035v-2.343h1.184c.856 0 1.357.441 1.357 1.185 0 .735-.45 1.158-1.27 1.158zM22.767 50h.752l.64-1.781h2.498L27.254 50h.804l-2.11-6h-.933zm1.608-2.403 1.063-2.983 1.003 2.983zM30.353 50h.718l1.59-5.084L34.34 50h.691l1.781-6h-.717l-1.392 5.014-1.6-4.97H32.3l-1.557 5.022L29.376 44h-.83zm7.682 0h3.77v-.622h-3.053v-2.17h2.819v-.623h-2.819v-1.962h3.052V44h-3.77zm8.831 0h.856l-2.179-3.147L47.497 44h-.812l-1.513 2.291L43.685 44h-.856l1.945 2.888L42.656 50h.812l1.678-2.56zm2.019 0h3.77v-.622h-3.053v-2.17h2.819v-.623h-2.819v-1.962h3.052V44h-3.77z" aria-label="DRAWEXE" style="paint-order:stroke fill markers"/></svg>