<svg width="64" height="64" version="1.1" viewBox="0 0 16.933 16.933" xmlns="http://www.w3.org/2000/svg">
 <rect x="1.5875" y="1.5875" width="13.758" height="13.758" rx="2.1166" ry="2.1166" fill="#3dae5a" stroke-linecap="round" stroke-linejoin="round" stroke-width=".26977"/>
 <rect x="2.3812" y="2.3812" width="12.171" height="12.171" rx="1.3229" ry="1.3229" fill="#fff" opacity=".1" stroke-linecap="round" stroke-linejoin="round" stroke-width=".23864"/>
 <path transform="translate(2.117 1.984)scale(.26458)" d="M26.29 4.004a4.8 4.8 0 0 0-1.466.312c-4.148 1.096-7.939 2.875-11.457 4.76l-.074.041c-.664.38-1.713.905-2.74 1.955s-1.978 3.24-1.354 5.233l-.076-.301c.57 2.815 1.246 5.796 2.441 8.736-.015.013-.056.02-.072.033-.405.339-.709.712-.98 1.147-.966 1.503-1.055 3.17-.94 4.357.117 1.198.362 2.108.424 2.625l.006.045c.087.642.167 1.671.707 2.893.53 1.2 1.973 2.697 3.81 3.012.573.143 1.422.154 2.405-.42 1.624 2.326 3.844 4.46 7.055 5.355l.011.004c.374.103.809.15 1.256.174 1.937.203 3.726-.498 4.967-1.457 1.268-.98 2.123-2.18 2.732-3.356l.014-.027c.47-.93.807-1.9 1.117-2.875l.06-.002c2.567-.145 4.368-1.718 4.688-4.367.24-1.982.217-3.954.041-5.863-.069-1.114-.373-1.98-.926-2.913-.3-.508-.707-1.095-1.31-1.576-1.386-4.305-3.507-8.435-4.81-12.742a3 3 0 0 0-.046-.16c-.274-.881-.69-1.802-1.466-2.723-.777-.92-2.178-1.977-4.018-1.9m-.02 5.238.101.024.154.1c1.278 1.421 2.08 3.173 2.897 4.864.268 1.048 1.727 2.513.488 3.354-.287 1.058-1.18 1.138-1.877.299-.984-1.119.24-2.85-.324-3.932-.305 1.14-1.295 3.477-2.623 1.567-.887-1.53-1.113-3.355-2.129-4.838-.013-1.16 2.354-.92 3.313-1.438m-4.163 1.225.131.043c1.065 1.613 1.91 4 .489 5.662-1.8.148-2.74-1.619-3.248-3.006-.596-1.494-.57.404-.395 1-.134.739 1.485 2.56.31 2.522-1.54-.216-2.828-1.055-3.769-2.221-.868 1.124.941 2.297 1.766 3.031.648 1.212-1.763.697-2.319.182-.945.443 1.42 1.216 1.635 1.896-.826 1.088-2.822-.134-2.428-1.508-.17-1.542-.522-3.57 1.018-4.6a43 43 0 0 1 6.81-3.001" fill="#4f4f4f"/>
 <path transform="translate(2.117 1.984)scale(.26458)" d="M24.805 40.87c-3.418-.955-5.64-3.992-7.047-6.97-1.645-3.553-2.38-7.795-.847-11.501 1.242-2.913 4.662-5.045 7.95-4.45 3.552.888 5.987 4.115 6.72 7.462.941 4.088.618 8.546-1.295 12.338-.89 1.719-2.584 3.498-4.768 3.223-.241 0-.481-.04-.713-.103m.659-1.236c1.612-.272 3.643-.522 4.357-2.182.749-2.013 1.287-4.13 1.189-6.285-.03-1.3.941-3.839-1.372-3.45-2.112-.184-3.943.948-5.72 1.86-1.31.654-2.762.502-4.157.319-1.026.014-1.827 1.164-2.067 2.032.122 1.477 1.42 2.604 2.235 3.809 1.158 1.461 1.954 3.707 4.14 3.927.463.058.933.003 1.395-.03m-.136-2.625c-2.18-.95 1.923-2.37 1.746-.536-.454.394-1.12.785-1.746.536m-6.446-8.188c1.924-.732 3.697-1.992 5.846-2.026 1.07-.237 3.245.11 3.686-.493-.693-.087-1.867-.46-.585-.836 1.525-.493-1.146-.54.109-1.103.714-.131 1.506-.765.224-.589-1.945.457-2.95 2.673-5.063 2.754-1.865.34-3.763-.848-5.568-.146.122.677 2.874-.423 2.282.796-.58.212-1.553.72-.38.788.05.188-1.457 1.139-.551.855m-3.808 7.076c-1.647-.244-1.886-2.076-2.06-3.373-.198-1.64-.927-3.502.062-5.017.437-.717 1.272-1.038.99.107a16 16 0 0 0 1.287 7.218c.084.38.61 1.312-.279 1.065m18.898-2.668c-.157-3.189.147-6.403-.26-9.586 1.193-.335 2.102 1.513 2.162 2.559.166 1.758.18 3.547-.031 5.3-.108.888-1.003 1.678-1.871 1.727m-19.517-9.41c-1.126-2.697-1.774-5.572-2.351-8.42-.574-1.83 1.358-2.903 2.717-3.682 3.503-1.878 7.156-3.601 11.044-4.593 1.565-.61 2.67 1.162 3.05 2.389.52 2.07 1.632 3.974 1.99 6.078-.7-.792-1.087-2.768-1.791-3.974-.841-1.16-1.202-3.523-3.015-3.414-3.258.316-6.228 1.827-9.115 3.22-1.38.826-3.167 1.463-3.85 2.993-.278 2.053.474 4.079.936 6.06.107.94 1.03 2.783.385 3.343" fill="#ffb925"/>
 <path transform="translate(2.117 1.984)scale(.26458)" d="M28.855 28.278c-2.634-.108-4.3 2.66-6.957 2.388-1.425-.242-3.557-.056-3.37 1.832-.419.83 1.785 3.282 1.71 1.45-.214-1.755 2.184-1.523 3.247-2.35 1.787-.716 3.728-.961 5.625-1.252.395.447 1.431 1.906 1.592.391-.187-.665.458-1.797-.34-2.188-.486-.166-.987-.284-1.507-.271" fill="#fff"/>
</svg>
