<svg xmlns="http://www.w3.org/2000/svg" width="64" height="64"><g fill-rule="evenodd"><path fill="#fbc02d" stroke-width=".769" d="M7.973 5.91C6.88 5.91 6 6.79 6 7.883v9.726l3.9 2.602-3.9 2.6v33.126c0 1.093.88 1.973 1.973 1.973h48.055c1.093 0 1.972-.88 1.972-1.973V7.882c0-1.092-.88-1.972-1.972-1.972H7.973z"/><path fill="#388e3c" d="M8 6c-1.108 0-2 .88-2 1.973v8.285l3.9 2.562L6 21.385v32.643C6 55.12 6.892 56 8 56h48c1.108 0 2-.88 2-1.973V7.973A1.982 1.982 0 0 0 56 6H8z" style="paint-order:normal"/><path fill="#e6ea97" d="m57 53-2 2h2z"/><rect width="40" height="40" x="12" y="11" fill="#263238" ry="2"/><path fill="#fff" d="M14 13v36h36V13z" opacity=".15"/><g fill="#bcbcbc" stroke-width=".769"><path d="M18 38.96h10v1H18zM30 38.96h8v1h-8zM18 40.91h9v1h-9zM29 40.91h4v1h-4zM18 42.99h5v1h-5zM25 42.99h10v1H25zM18 37.01h7v1h-7zM27 37.01h9v1h-9z"/></g><g fill="#959595" stroke-width=".769"><path d="M18 16.03h13v1H18zM33 16.03h6v1h-6zM18 17.98h9v1h-9zM29 17.98h5v1h-5z"/></g></g><g fill="#dee372" fill-rule="evenodd"><rect width="1" height="1" x="12" y="52" opacity=".6" ry="0" style="paint-order:normal"/><rect width="1" height="1" x="14" y="52" opacity=".6" ry="0" style="paint-order:normal"/><rect width="1" height="1" x="16" y="52" opacity=".6" ry="0" style="paint-order:normal"/><rect width="1" height="1" x="18" y="52" opacity=".6" ry="0" style="paint-order:normal"/><rect width="1" height="1" x="20" y="52" opacity=".6" ry="0" style="paint-order:normal"/><rect width="1" height="1" x="22" y="52" opacity=".6" ry="0" style="paint-order:normal"/><rect width="1" height="1" x="24" y="52" opacity=".6" ry="0" style="paint-order:normal"/><rect width="1" height="1" x="26" y="52" opacity=".6" ry="0" style="paint-order:normal"/><rect width="1" height="1" x="28" y="52" opacity=".6" ry="0" style="paint-order:normal"/><rect width="1" height="1" x="30" y="52" opacity=".6" ry="0" style="paint-order:normal"/><rect width="1" height="1" x="13" y="53" opacity=".6" ry="0" style="paint-order:normal"/><rect width="1" height="1" x="15" y="53" opacity=".6" ry="0" style="paint-order:normal"/><rect width="1" height="1" x="17" y="53" opacity=".6" ry="0" style="paint-order:normal"/><rect width="1" height="1" x="19" y="53" opacity=".6" ry="0" style="paint-order:normal"/><rect width="1" height="1" x="21" y="53" opacity=".6" ry="0" style="paint-order:normal"/><rect width="1" height="1" x="23" y="53" opacity=".6" ry="0" style="paint-order:normal"/><rect width="1" height="1" x="25" y="53" opacity=".6" ry="0" style="paint-order:normal"/><rect width="1" height="1" x="27" y="53" opacity=".6" ry="0" style="paint-order:normal"/><rect width="1" height="1" x="29" y="53" opacity=".6" ry="0" style="paint-order:normal"/><rect width="1" height="1" x="31" y="53" opacity=".6" ry="0" style="paint-order:normal"/></g><g fill="#dee372" fill-rule="evenodd" transform="translate(21)"><rect width="1" height="1" x="26" y="52" opacity=".6" ry="0" style="paint-order:normal"/><rect width="1" height="1" x="28" y="52" opacity=".6" ry="0" style="paint-order:normal"/><rect width="1" height="1" x="30" y="52" opacity=".6" ry="0" style="paint-order:normal"/><rect width="1" height="1" x="25" y="53" opacity=".6" ry="0" style="paint-order:normal"/><rect width="1" height="1" x="27" y="53" opacity=".6" ry="0" style="paint-order:normal"/><rect width="1" height="1" x="29" y="53" opacity=".6" ry="0" style="paint-order:normal"/><rect width="1" height="1" x="31" y="53" opacity=".6" ry="0" style="paint-order:normal"/></g><g fill="#dee372" fill-rule="evenodd" transform="rotate(90 53 55)"><rect width="1" height="1" x="12" y="52" opacity=".6" ry="0" style="paint-order:normal"/><rect width="1" height="1" x="14" y="52" opacity=".6" ry="0" style="paint-order:normal"/><rect width="1" height="1" x="16" y="52" opacity=".6" ry="0" style="paint-order:normal"/><rect width="1" height="1" x="18" y="52" opacity=".6" ry="0" style="paint-order:normal"/><rect width="1" height="1" x="20" y="52" opacity=".6" ry="0" style="paint-order:normal"/><rect width="1" height="1" x="22" y="52" opacity=".6" ry="0" style="paint-order:normal"/><rect width="1" height="1" x="24" y="52" opacity=".6" ry="0" style="paint-order:normal"/><rect width="1" height="1" x="26" y="52" opacity=".6" ry="0" style="paint-order:normal"/><rect width="1" height="1" x="28" y="52" opacity=".6" ry="0" style="paint-order:normal"/><rect width="1" height="1" x="30" y="52" opacity=".6" ry="0" style="paint-order:normal"/><rect width="1" height="1" x="13" y="53" opacity=".6" ry="0" style="paint-order:normal"/><rect width="1" height="1" x="15" y="53" opacity=".6" ry="0" style="paint-order:normal"/><rect width="1" height="1" x="17" y="53" opacity=".6" ry="0" style="paint-order:normal"/><rect width="1" height="1" x="19" y="53" opacity=".6" ry="0" style="paint-order:normal"/><rect width="1" height="1" x="21" y="53" opacity=".6" ry="0" style="paint-order:normal"/><rect width="1" height="1" x="23" y="53" opacity=".6" ry="0" style="paint-order:normal"/><rect width="1" height="1" x="25" y="53" opacity=".6" ry="0" style="paint-order:normal"/><rect width="1" height="1" x="27" y="53" opacity=".6" ry="0" style="paint-order:normal"/><rect width="1" height="1" x="29" y="53" opacity=".6" ry="0" style="paint-order:normal"/><rect width="1" height="1" x="31" y="53" opacity=".6" ry="0" style="paint-order:normal"/></g><g fill-rule="evenodd"><circle cx="9.5" cy="9.5" r="1.5" fill="#fbc02d" style="paint-order:normal"/><circle cx="9.5" cy="9.5" r=".5" fill="#263238" style="paint-order:normal"/><circle cx="54.5" cy="9.5" r="1.5" fill="#fbc02d" style="paint-order:normal"/><circle cx="54.5" cy="9.5" r=".5" fill="#263238" style="paint-order:normal"/><circle cx="9.5" cy="52.5" r="1.5" fill="#fbc02d" style="paint-order:normal"/><circle cx="9.5" cy="52.5" r=".5" fill="#263238" style="paint-order:normal"/></g></svg>