<svg xmlns="http://www.w3.org/2000/svg" width="64" height="64" viewBox="0 0 16.933 16.933"><defs><linearGradient id="a" x1="50" x2="50" y1="59" y2="39" gradientTransform="scale(.26458)" gradientUnits="userSpaceOnUse"><stop offset="0"/><stop offset="1" stop-opacity="0"/></linearGradient></defs><rect width="12.171" height="14.287" x="2.381" y="1.323" fill="#2f3234" fill-rule="evenodd" rx=".794" ry=".794" style="paint-order:fill markers stroke"/><path fill="#c83737" d="M4.498 1.323v6.349l1.059-1.06 1.057 1.059V1.32z"/><path fill="#222426" fill-rule="evenodd" d="M3.175 1.323a.79.79 0 0 0-.794.794v12.7c0 .44.354.793.794.793h.794V1.323z" style="paint-order:fill markers stroke"/><path fill="url(#a)" fill-rule="evenodd" d="M14.552 10.382a11.245 14.221 0 0 1-3.78 5.229h2.986c.44 0 .794-.354.794-.794z" opacity=".15" style="paint-order:fill markers stroke"/><path fill="#1c95f5" d="M14.552 4.88c-.332.12-.663.278-.995.484a8 8 0 0 0-1.584 1.31 10.4 10.4 0 0 0-1.32 1.754 8 8 0 0 0-.859 2.003q-.307 1.041-.264 1.907.067.848.418 1.426.353.578.968.829.617.249 1.453.096.814-.154 1.65-.674a8 8 0 0 0 .533-.37v-1.21q-.164.113-.334.212-.66.366-1.277.424-.637.057-1.078-.193a1.67 1.67 0 0 1-.682-.751q-.22-.5-.22-1.195 0-.713.264-1.541a6.6 6.6 0 0 1 .748-1.58 7.8 7.8 0 0 1 1.056-1.349 6 6 0 0 1 1.233-.963q.146-.083.29-.152z"/></svg>