<svg width="64" height="64" version="1.1" viewBox="0 0 16.933 16.933" xmlns="http://www.w3.org/2000/svg">
 <g transform="translate(0 -280.07)">
  <path d="M3.44 281.654c-.44 0-.794.329-.794.737v12.284c0 .409.354.738.794.738h10.054c.44 0 .793-.33.793-.738v-12.284c0-.408-.354-.737-.793-.737z" fill="#2f3234" paint-order="markers stroke fill"/>
  <path d="m4.4978 281.65v6.35l1.059-1.058 1.058 1.058v-6.35z" fill="#c83737"/>
  <path d="m3.44 281.65c-0.44 0-0.794 0.329-0.794 0.737v12.285c0 0.408 0.354 0.737 0.794 0.737h0.52867v-13.759z" opacity=".18"/>
 </g>
 <path d="m14.287 4.8807c-0.29023 0.11992-0.58051 0.27747-0.87073 0.48368-0.48805 0.34677-0.95029 0.78339-1.387 1.31-0.42383 0.51374-0.80921 1.0983-1.156 1.7533-0.33393 0.64217-0.5844 1.3099-0.75136 2.0035-0.17981 0.69354-0.25668 1.3294-0.23099 1.9073 0.038528 0.56511 0.16037 1.0404 0.36586 1.4257 0.2055 0.3853 0.48786 0.66139 0.84748 0.82836 0.35962 0.16696 0.78368 0.19886 1.2717 0.09612 0.4752-0.10275 0.95679-0.32707 1.4448-0.67385 0.15976-0.1147 0.3142-0.24014 0.46611-0.37052v-1.2092c-0.09579 0.07465-0.19328 0.14574-0.29248 0.21187-0.3853 0.24402-0.75812 0.38521-1.1177 0.42374-0.37246 0.03853-0.68672-0.0258-0.94359-0.19275-0.25687-0.16696-0.45609-0.41743-0.59737-0.75136-0.12843-0.33393-0.19275-0.73186-0.19275-1.1942 0-0.47521 0.07687-0.98921 0.23099-1.5415 0.15412-0.55226 0.37269-1.0788 0.65524-1.5797 0.28256-0.51374 0.59054-0.96342 0.92447-1.3487 0.34677-0.39815 0.70652-0.7192 1.079-0.96323 0.08507-0.056718 0.1698-0.10586 0.25424-0.15193z" fill="#1c95f5"/>
</svg>
