<svg width="64" height="64" version="1.1" xmlns="http://www.w3.org/2000/svg">
 <rect x="5" y="5" width="54" height="54" rx="27" ry="27" fill="#50e279" fill-opacity=".99608" stroke-width=".96429"/>
 <path d="m16.085 15.892 1.158 0.87c-3.673 1.691 5.757 9.421 5.757 9.421s1.836-1.652 4.525-1.826c2.667-2.733 13.768-0.653 13.352 1.59-3.732 0.058-4.914-0.418-4.914-0.418s0.185 0.212 0.26 0.941c-0.272 0.225-4.13-0.64-4.937-0.578-2.296 0.175-3.845 0.233-5.492 0.415 1.133 0.374 10.161 1.982 13.047 4.772-0.77 0.297-1.106 0.175-1.364 0.27-0.226 0.083-0.454 0.543-0.95 0.546-0.356 1e-3 -0.235-0.315-0.969-0.662-4.568 0.181-6.049-2.606-6.5-2.947-2.016-0.482-5.413-1.57-5.413-1.57s2.876 2.295 4.453 3.57c0.131 0.105 2.293 0.507 5.042 1.848 1.477-1.21 5.46 0.843 4.72 2.722-0.659 1.674-5.082-0.05-4.92-2.328-1.009-0.315-2.874-1.216-4.068-1.647 1.144 0.893 5.64 4.638 6.543 5.697 3.956-0.486 9.93 0.502 13.636 2.876-0.845 0.223-4.866 0.987-5.672 0.772-1.496-0.566-3.727-2.4-3.964-2.605-0.86-0.145-2.79-0.422-3.53-0.506 0.751 0.762 3.234 3.63 4.013 4.837 0.323-0.068 1.97 0.328 2.426 0.638 1.69-1.725 4.432 1.302 6.117 2.764-0.442 0.898-7.395-0.485-6.466-2.499-0.497-0.066-1.491-0.612-1.858-0.641 0.375 0.49 1.192 1.157 2.27 2.287 1.036-0.295 4.942 3.933 5.047 4.858-2.923-0.712-4.367-1.332-4.82-1.86-0.893-1.044-0.555-2.542-0.47-2.814-1.149-1.028-1.363-1.333-1.739-1.537-0.01 0.01 1e-3 0.317 0.019 0.465 1.888 1.392 0.976 5.245-0.11 5.382-0.472 0.06-1.561-5.436-0.201-5.64 0.03-0.11 0.049-0.434 0.05-0.447-0.717-0.781-4.697-5.013-4.956-5.191 0.129 0.334 0.34 0.883 0.534 1.56 2.35 1.537 2.74 3.994 2.562 6.881-0.563-0.986-6.085-5.481-3.67-7.474 0.017-0.307-0.074-1.005 0.129-1.397-0.766-0.765-3.15-3.119-3.364-3.117 0.266 0.546 0.431 0.858 0.563 1.448 1.818 0.907 1.29 3.25 0.462 3.3-0.872 0.052-2.805-2.637-0.987-3.207-0.147-0.677-0.414-1.597-0.522-1.997a356.84 356.84 0 0 1-3.993-3.17c0.74 1.23 1.462 3.145 1.823 4.243 2.178 2.468 1.575 6.284 1.355 10.221-2.555-1.897-4.142-8.37-2.516-9.983-0.543-1.872-1.363-5.039-1.363-5.039-3.513-2.727-5.457-4.77-5.457-4.77s2.34 3.035 2.607 4.662c2.05 0.397 3.763 3.968 2.133 4.578-2.382 0.89-4.94-2.89-2.907-4.297 0 0-1.8-3.315-3.193-6.223-5.495-6.031-4.967-7.842-3.319-8.044z" fill="#ffffff"/>
</svg>
