<svg xmlns="http://www.w3.org/2000/svg" width="64" height="64" viewBox="0 0 16.933 16.933"><rect width="10.054" height="10.054" x="1.323" y="1.323" fill="#f2f2f2" paint-order="stroke markers fill" rx="1.852" ry="1.852"/><path fill="#ccc" d="M6.35 9.525c1.537 0 2.615-1.228 2.615-3.192S7.887 3.175 6.35 3.175 3.735 4.37 3.735 6.333 4.813 9.525 6.35 9.525zm0-.677c-1.103 0-1.821-.986-1.821-2.515 0-1.537.718-2.481 1.82-2.481 1.095 0 1.822.944 1.822 2.481 0 1.53-.727 2.515-1.821 2.515z"/><rect width="10.054" height="10.054" x="5.821" y="5.821" fill="#5596ff" paint-order="stroke markers fill" rx="1.852" ry="1.852"/><path fill="#fff" d="M8.709 13.91h1.955c1.37 0 2.323-.593 2.323-1.796 0-.836-.518-1.32-1.254-1.462v-.042c.577-.184.903-.719.903-1.329 0-1.077-.86-1.495-2.106-1.495H8.71zm.777-3.518V8.396h.944c.952 0 1.445.267 1.445.986 0 .618-.426 1.01-1.478 1.01zm0 2.9v-2.306h1.07c1.069 0 1.67.342 1.67 1.103 0 .827-.618 1.203-1.67 1.203z"/></svg>