<svg width="64" height="64" version="1.1" viewBox="0 0 16.933 16.933" xmlns="http://www.w3.org/2000/svg">
 <g transform="translate(0 -280.07)">
  <rect x="2.117" y="282.71" width="8.996" height="8.996" rx=".529" ry=".529" fill="none" opacity=".15" stroke="#000" stroke-width=".265" paint-order="stroke markers fill"/>
  <rect x="2.117" y="282.71" width="8.996" height="8.996" rx=".529" ry=".529" fill="#fff" paint-order="stroke markers fill"/>
  <g fill="#ccc" stroke-width=".265" aria-label="O">
   <path d="m6.6147 290.39c1.5373 0 2.6151-1.2282 2.6151-3.1916 0-1.9634-1.0778-3.1582-2.6151-3.1582-1.5373 0-2.6151 1.1948-2.6151 3.1582 0 1.9634 1.0778 3.1916 2.6151 3.1916zm0-0.67675c-1.1029 0-1.8214-0.98589-1.8214-2.5149 0-1.5373 0.71853-2.4814 1.8214-2.4814 1.0945 0 1.8214 0.94411 1.8214 2.4814 0 1.529-0.72688 2.5149-1.8214 2.5149z" style=""/>
  </g>
  <rect x="6.35" y="286.42" width="8.996" height="8.996" rx=".529" ry=".529" fill="#5596ff" paint-order="stroke markers fill"/>
  <g fill="#fff" stroke-width=".265" aria-label="B">
   <path d="m8.7085 293.98h1.9551c1.3702 0 2.3227-0.59321 2.3227-1.7963 0-0.8355-0.51801-1.3201-1.2532-1.4621v-0.0418c0.5765-0.18381 0.90234-0.71853 0.90234-1.3284 0-1.0778-0.86056-1.4955-2.1055-1.4955h-1.8214zm0.77702-3.5175v-1.9968h0.94411c0.95247 0 1.4454 0.26736 1.4454 0.98589 0 0.61827-0.4261 1.011-1.4788 1.011zm0 2.8992v-2.306h1.0694c1.0694 0 1.671 0.34255 1.671 1.1029 0 0.82714-0.61827 1.2031-1.671 1.2031z" style=""/>
  </g>
 </g>
</svg>
