<svg width="64" height="64" version="1.1" viewBox="0 0 16.933 16.933" xmlns="http://www.w3.org/2000/svg">
 <rect x="1.587" y="1.587" width="13.758" height="13.758" rx="2.117" ry="2.117" fill="#00da00"/>
 <path d="m6.7543 5.3059h0.76618l0.36777 0.00135v2.2972h1.2259v-3.3712h-1.4404l-0.56524 5e-7 -0.35418 1.0727m1.4404 2.7407c-0.36381 0.052122-0.73826 0.17556-1.042 0.3865-1.618 1.1236-1.181 3.7365 0.76618 4.201 0.27502 0.06561 0.57708 0.08489 0.85813 0.04462 0.3537-0.05068 0.68067-0.16993 0.98071-0.36522 1.9904-1.2955 0.82885-4.6096-1.563-4.2669m0.15324 1.0378c0.95777-0.12409 1.6729 0.94298 1.3017 1.7993-0.1993 0.45987-0.6375 0.7113-1.1178 0.75698-0.74339 0.070697-1.4129-0.63748-1.3432-1.3699 0.059573-0.626 0.5398-1.1061 1.1593-1.1864z" fill="#010301"/>
</svg>
