<svg width="64" height="64" version="1.1" viewBox="0 0 16.933 16.933" xmlns="http://www.w3.org/2000/svg">
 <defs>
  <filter id="a" x="-.06" y="-.06" width="1.12" height="1.12" color-interpolation-filters="sRGB">
   <feGaussianBlur stdDeviation="0.14551797"/>
  </filter>
 </defs>
 <circle cx="8.4665" cy="8.4665" r="7.1436" fill="#404552" stroke-width=".8667" style="paint-order:stroke markers fill"/>
 <g transform="translate(.14597 .15844)" filter="url(#a)" opacity=".15" stroke-width=".26458">
  <path d="m8.3205 5.3977a2.9104 2.9104 0 0 0-2.9104 2.9104 2.9104 2.9104 0 0 0 2.9104 2.9104 2.9104 2.9104 0 0 0 2.9104-2.9104 2.9104 2.9104 0 0 0-2.9104-2.9104m0.03824 0.25166a2.6458 2.6458 0 0 1 2.6458 2.6458 2.6458 2.6458 0 0 1-2.6458 2.6458 2.6458 2.6458 0 0 1-2.6458-2.6458 2.6458 2.6458 0 0 1 2.6458-2.6458"/>
  <path d="m9.908 8.1657-2.6458 1.9944v-3.7041z"/>
 </g>
 <g transform="matrix(1.2 0 0 1.2 -1.6934 -1.6068)" stroke-width="1.2">
  <path transform="matrix(.22048 0 0 .22049 1.4111 1.339)" d="m32 14v0.001953a18 17.999 0 0 0-18 17.998 18 17.999 0 0 0 13.275 17.348c5.4411-3.5424 9.0844-6.3526 11.395-8.6191a11 11 0 0 1-6.6699 2.2715 11 11 0 0 1-11-11 11 11 0 0 1 7.0586-10.256c1.2488-1.91 3.6426-4.2984 7.6328-7.3535a18 17.999 0 0 0-3.6914-0.39062zm-4.7227 9.2305a10 10 0 0 0-5.1328 8.7207 10 10 0 0 0 10 10 10 10 0 0 0 9.7012-7.6211c-0.51898-1.4194-2.2281-2.3588-4.3008-3.1602l0.45508 0.29297-10 7.5371v-11.963c-0.9695-0.96117-1.3551-2.1705-0.72266-3.8066z" fill="#4484c2"/>
  <path transform="matrix(.22048 0 0 .22049 1.4111 1.339)" d="m35.691 14.391c-3.9901 3.0549-6.3839 5.4436-7.6328 7.3535a11 11 0 0 1 3.9414-0.74414 11 11 0 0 1 11 11 11 11 0 0 1-4.3301 8.7285c-2.3101 2.2666-5.9554 5.0767-11.396 8.6191a18 17.999 0 0 0 4.7266 0.65234 18 17.999 0 0 0 18-17.998 18 17.999 0 0 0-14.309-17.611zm-3.5469 7.5605a10 10 0 0 0-4.8672 1.2793c-0.63341 1.6375-0.24817 2.8471 0.72266 3.8086v-2.0391l9.5449 6.1699c2.0729 0.80122 3.7818 1.7407 4.3008 3.1602a10 10 0 0 0 0.29883-2.3789 10 10 0 0 0-10-10z" fill="#dedede"/>
 </g>
</svg>
