<svg xmlns="http://www.w3.org/2000/svg" width="64" height="64"><g transform="translate(-1.375 -1.338)scale(1.0425)"><path fill="#e3954f" d="M50.52 8.965a3.8 3.8 0 0 0-.925.19h-.003l-.013-.027-.198.098a4 4 0 0 0-.478.235L24.762 22.447l9.34 21.187c8.207-3.592 16.548-9.917 24.839-13.227a4 4 0 0 0 .51-.203c.065-.032.127-.07.19-.106q.156-.084.304-.185.229-.16.436-.356.201-.202.38-.44a6 6 0 0 0 .389-.58q.114-.206.211-.426.054-.111.103-.227c.067-.164.123-.335.177-.51q.04-.122.077-.249a8 8 0 0 0 .116-.51q.036-.16.066-.327.04-.261.066-.531.02-.169.035-.341.017-.274.02-.558a9 9 0 0 0 .006-.401c-.002-.162-.013-.327-.021-.492q-.01-.24-.026-.483l-.019-.172q-.09-.924-.301-1.89l-.018-.081a19 19 0 0 0-.571-2.003l-.008-.027-.013-.032q-.354-1.007-.82-1.987c-.018-.038-.031-.077-.05-.116a19.7 19.7 0 0 0-2.019-3.348l-.087-.121a18 18 0 0 0-.957-1.163c-.045-.05-.092-.096-.137-.146a16 16 0 0 0-.88-.885q-.077-.073-.156-.145-.51-.46-1.033-.84l-.082-.056a10 10 0 0 0-1.173-.724 8 8 0 0 0-.978-.441c-.03-.011-.061-.016-.092-.027a6 6 0 0 0-1.134-.27 4.7 4.7 0 0 0-.933-.044z"/><circle cx="31" cy="32" r="23" fill="#edd448"/><path fill="#e3954f" d="m42.945 12.637-16.25 8.02A13 6 0 0 0 31 21a13 6 0 0 0 13-6 13 6 0 0 0-1.055-2.363m5.223 16.371a7.366 11.862 28.506 0 0-9.57 6.656 7.366 11.862 28.506 0 0-2.352 6.055l16.629-8.5a7.366 11.862 28.506 0 0-2.113-3.328 7.366 11.862 28.506 0 0-2.594-.883"/><path d="M48.168 29.007a7.366 11.862 28.506 0 0-9.57 6.658 7.366 11.862 28.506 0 0-.157 14.447A7.366 11.862 28.506 0 0 46 49.336a23.65 23.378 0 0 0 6.51-9.245 7.366 11.862 28.506 0 0-1.75-10.2 7.366 11.862 28.506 0 0-2.592-.884M31 9a23 23 0 0 0-11.062 2.863A13 6 0 0 0 18.001 15a13 6 0 0 0 13 6 13 6 0 0 0 13-6 13 6 0 0 0-2.01-3.201A23 23 0 0 0 31 9" opacity=".3"/><path fill="#e3954f" d="M13.683 27.759a11.588 6.3 64.81 0 0-1.419.2l-7.402 3.645a11.588 6.3 64.81 0 0-.615.304l-.061.029.003.002a11.588 6.3 64.81 0 0-.582.466 11.588 6.3 64.81 0 0 1.28 14.417 11.588 6.3 64.81 0 0 9.663 5.8l7.42-3.652-.006-.01a11.588 6.3 64.81 0 0 .828-.606 11.588 6.3 64.81 0 0-1.28-14.417 11.588 6.3 64.81 0 0-7.829-6.178"/><ellipse cx="-14.123" cy="37.675" opacity=".2" rx="6.569" ry="11.438" transform="matrix(.70813 -.70609 .51863 .855 0 0)"/></g></svg>