<svg xmlns="http://www.w3.org/2000/svg" width="64" height="64" version="1"><rect width="52" height="52" x="6" y="6" fill="#ececec" fill-rule="evenodd" rx="10" ry="10" style="paint-order:stroke fill markers"/><path fill="#ffc107" d="M32 10a17.944 17.944 0 0 0-12.727 5.273l8.102 8.102A6.545 6.545 0 0 1 32 21.455z"/><path fill="#53dd22" d="M32 10v11.455a6.545 6.545 0 0 1 4.625 1.92l8.102-8.101A17.942 17.942 0 0 0 32 10z"/><path fill="#ab47bc" d="m27.375 32.625-8.102 8.102A17.942 17.942 0 0 0 32 46v-2h-6.545l3.89-10.023a6.546 6.546 0 0 1-1.97-1.352z"/><path fill="#3f51b5" d="M36.625 32.625a6.544 6.544 0 0 1-1.969 1.349L38.546 44H32v2c4.607 0 9.212-1.759 12.727-5.274z"/><path fill="#42fffd" d="m44.727 15.273-8.102 8.102A6.545 6.545 0 0 1 38.545 28h11.456c0-4.607-1.759-9.212-5.274-12.727z"/><path fill="#039af4" d="M38.545 28a6.545 6.545 0 0 1-1.92 4.625l8.101 8.102A17.942 17.942 0 0 0 50 28z"/><path fill="#ff8e13" d="M19.273 15.273A17.942 17.942 0 0 0 14 28h11.455a6.545 6.545 0 0 1 1.92-4.625z"/><path fill="#fd3b2d" d="M14 28c0 4.607 1.759 9.212 5.273 12.727l8.102-8.102a6.545 6.545 0 0 1-1.92-4.624z"/><path fill="#4f4f4f" d="M26 43c-.554 0-1 .446-1 1s.446 1 1 1c-.554 0-1 .446-1 1s.446 1 1 1c-.554 0-1 .446-1 1s.446 1 1 1c-.554 0-1 .446-1 1s.446 1 1 1h3v1c0 1.662 1.338 3 3 3s3-1.338 3-3v-1h3c.554 0 1-.446 1-1s-.446-1-1-1c.554 0 1-.446 1-1s-.446-1-1-1c.554 0 1-.446 1-1s-.446-1-1-1c.554 0 1-.446 1-1s-.446-1-1-1H26z"/></svg>