<svg width="64" height="64" version="1" xmlns="http://www.w3.org/2000/svg">
 <rect x="6" y="6" width="52" height="52" rx="10" ry="10" fill="#ececec" fill-rule="evenodd" stop-color="#000000" stroke-linecap="round" stroke-linejoin="round" stroke-width="1.8909" style="paint-order:stroke fill markers"/>
 <path d="m32 10c-4.6066 0-9.2118 1.7587-12.727 5.2734l8.1019 8.1019a6.5455 6.5455 0 0 1 4.6246-1.9208z" fill="#ffc107" stroke-width=".81818"/>
 <path d="m32 10v11.455a6.5455 6.5455 0 0 1 4.6246 1.9208l8.1019-8.1019c-3.5147-3.5147-8.12-5.2734-12.727-5.2734z" fill="#53dd22" stroke-width=".81818"/>
 <path d="m27.375 32.625-8.1019 8.1019c3.5147 3.5147 8.12 5.2734 12.727 5.2734v-2h-6.5455l3.8896-10.023c-0.7336-0.32609-1.401-0.78436-1.9688-1.3519z" fill="#ab47bc" stroke-width=".81818"/>
 <path d="m36.625 32.625c-0.56806 0.56642-1.2354 1.0236-1.9688 1.3487l3.8896 10.027h-6.5455v2c4.6066 0 9.2118-1.7587 12.727-5.2734z" fill="#3f51b5" stroke-width=".81818"/>
 <path d="m44.727 15.273-8.1019 8.1019a6.5455 6.5455 0 0 1 1.9208 4.6246h11.455c0-4.6066-1.7587-9.2118-5.2734-12.727z" fill="#42fffd" stroke-width=".81818"/>
 <path d="m38.545 28a6.5455 6.5455 0 0 1-1.9208 4.6246l8.1019 8.1019c3.5147-3.5147 5.2734-8.12 5.2734-12.727z" fill="#039af4" stroke-width=".81818"/>
 <path d="m19.273 15.273c-3.5147 3.5147-5.2734 8.12-5.2734 12.727h11.455a6.5455 6.5455 0 0 1 1.9208-4.6246z" fill="#ff8e13" stroke-width=".81818"/>
 <path d="m14 28c0 4.6066 1.7587 9.2118 5.2734 12.727l8.1019-8.1019a6.5455 6.5455 0 0 1-1.9208-4.6246z" fill="#fd3b2d" stroke-width=".81818"/>
 <path d="m26 43c-0.554 0-1 0.446-1 1s0.446 1 1 1c-0.554 0-1 0.446-1 1s0.446 1 1 1c-0.554 0-1 0.446-1 1s0.446 1 1 1c-0.554 0-1 0.446-1 1s0.446 1 1 1h3v1c0 1.662 1.338 3 3 3s3-1.338 3-3v-1h3c0.554 0 1-0.446 1-1s-0.446-1-1-1c0.554 0 1-0.446 1-1s-0.446-1-1-1c0.554 0 1-0.446 1-1s-0.446-1-1-1c0.554 0 1-0.446 1-1s-0.446-1-1-1h-12z" fill="#4f4f4f" stroke-width=".35355"/>
</svg>
