<svg width="64" height="64" version="1.1" xmlns="http://www.w3.org/2000/svg">
 <g transform="matrix(1.0425 0 0 1.0425 -1.3746 -1.3382)">
  <path d="m50.52 8.9646c-0.32255 0.026618-0.63163 0.090201-0.92485 0.19026h-0.0028l-0.0132-0.026424-0.19818 0.097771c-0.16514 0.066459-0.3247 0.14492-0.47818 0.23518l-24.141 12.986 9.341 21.187c8.2066-3.5922 16.547-9.9174 24.838-13.227 0.0544-0.017 0.1079-0.0361 0.1612-0.0555 0.1191-0.04326 0.23542-0.09262 0.3488-0.14798 0.06518-0.0319 0.12706-0.06986 0.19026-0.1057 0.10402-0.05644 0.20536-0.11812 0.30388-0.18496 0.15198-0.10726 0.2981-0.22458 0.436-0.35673 0.13448-0.1346 0.26143-0.28094 0.38051-0.43864 0.07742-0.09918 0.14912-0.20464 0.21932-0.31181 0.0586-0.08688 0.11498-0.17676 0.16912-0.26953 0.07668-0.13534 0.1449-0.27973 0.2114-0.42543 0.03564-0.07424 0.06998-0.15 0.10306-0.22725 0.06654-0.16378 0.12238-0.33517 0.17704-0.50999 0.02682-0.08148 0.05236-0.1643 0.07664-0.24839 0.04498-0.1649 0.08118-0.33677 0.11628-0.50999 0.02394-0.10748 0.04596-0.21672 0.06606-0.32766 0.028-0.1726 0.04728-0.35168 0.06606-0.53113 0.0132-0.11222 0.02472-0.22586 0.03436-0.34088 0.0128-0.18218 0.0172-0.36953 0.02114-0.55756 4e-3 -0.13242 0.0058-0.26633 0.0052-0.40165-2e-3 -0.16138-0.0128-0.32662-0.02114-0.49149-0.0058-0.15956-0.0146-0.32079-0.02642-0.48357-0.0048-0.05656-0.0128-0.11486-0.0184-0.17176-0.05926-0.61429-0.16008-1.2466-0.30124-1.8893-6e-3 -0.02702-0.0124-0.05486-0.0184-0.08192-0.149-0.66283-0.34008-1.3334-0.57077-2.003l-8e-3 -0.02642c-0.0036-0.01056-0.0094-0.02112-0.0132-0.03171-0.23598-0.66982-0.51021-1.3351-0.81931-1.9871-0.0182-0.03859-0.03172-0.07773-0.0502-0.11627-0.3359-0.70081-0.71035-1.3824-1.1178-2.0347-0.28595-0.45472-0.58704-0.89355-0.90107-1.3133-0.02962-0.03988-0.0574-0.08207-0.0872-0.12155-0.30815-0.40787-0.62775-0.79633-0.95657-1.1627-0.04518-0.05038-0.09194-0.09587-0.1374-0.14534-0.28762-0.31322-0.58145-0.60881-0.87984-0.8852-0.05208-0.04819-0.10361-0.09837-0.1559-0.14533-0.34047-0.30658-0.68565-0.58732-1.0332-0.8403-0.02736-0.01986-0.05454-0.03598-0.08192-0.05549-0.29815-0.21153-0.59725-0.4021-0.89579-0.57077-0.09268-0.05264-0.18488-0.10484-0.27746-0.15326-0.32842-0.17464-0.65499-0.32204-0.9777-0.44129-0.031-0.01118-0.06152-0.01576-0.09248-0.026424-0.30264-0.10299-0.60089-0.18064-0.89315-0.23254-0.08066-0.01464-0.1605-0.026268-0.24046-0.036994-0.32007-0.0466-0.63168-0.061607-0.93278-0.044922z" fill="#e3954f"/>
  <circle cx="31" cy="32" r="23" fill="#edd448"/>
  <path d="m42.945 12.637-16.25 8.0195a13 6 0 0 0 4.3047 0.34375 13 6 0 0 0 13-6 13 6 0 0 0-1.0547-2.3633zm5.2226 16.371a7.3662 11.862 28.506 0 0-9.5702 6.6562 7.3662 11.862 28.506 0 0-2.3515 6.0546l16.629-8.4999a7.3662 11.862 28.506 0 0-2.1133-3.3281 7.3662 11.862 28.506 0 0-2.5937-0.8828z" fill="#e3954f"/>
  <path d="m48.168 29.007a7.3662 11.862 28.506 0 0-9.5696 6.6582 7.3662 11.862 28.506 0 0-0.1576 14.447 7.3662 11.862 28.506 0 0 7.559-0.77621 23.65 23.378 0 0 0 6.5102-9.2447 7.3662 11.862 28.506 0 0-1.7498-10.201 7.3662 11.862 28.506 0 0-2.5921-0.88364z" opacity=".3"/>
  <path d="m31 9a23 23 0 0 0-11.062 2.8633 13 6 0 0 0-1.9375 3.1367 13 6 0 0 0 13 6 13 6 0 0 0 13-6 13 6 0 0 0-2.0098-3.2012 23 23 0 0 0-10.99-2.7988z" opacity=".3"/>
  <path d="m13.683 27.759a11.588 6.3002 64.81 0 0-1.419 0.20082l-7.4015 3.6439a11.588 6.3002 64.81 0 0-0.61569 0.30388l-0.060776 0.02906 0.00264 0.0028a11.588 6.3002 64.81 0 0-0.58134 0.46507 11.588 6.3002 64.81 0 0 1.2789 14.417 11.588 6.3002 64.81 0 0 9.6634 5.8002l7.42-3.6519-0.0052-0.0106a11.588 6.3002 64.81 0 0 0.82708-0.60512 11.588 6.3002 64.81 0 0-1.2789-14.417 11.588 6.3002 64.81 0 0-7.8296-6.178z" fill="#e3954f"/>
  <ellipse transform="matrix(.70813 -.70609 .51863 .855 0 0)" cx="-14.123" cy="37.675" rx="6.569" ry="11.438" opacity=".2"/>
 </g>
</svg>
