<svg id="Apps-Opera" width="64" height="64" enable-background="new 0 0 1024 1024" image-rendering="optimizeSpeed" version="1.1" viewBox="0 0 64 64" xmlns="http://www.w3.org/2000/svg">
 <g transform="scale(3.7796)" stroke-width="3.7796">
  <path transform="scale(.26458)" d="m32.002 4.9961c-14.913-2.629e-4 -27.002 12.089-27.002 27.002-2.629e-4 14.913 12.089 27.002 27.002 27.002 14.913 2.63e-4 27.002-12.089 27.002-27.002 2.63e-4 -14.913-12.089-27.002-27.002-27.002zm-0.001953 8.0039c7.732-1.85e-4 14 8.5065 14 19 1.29e-4 10.493-6.268 19-14 19-7.732 1.93e-4 -14-8.5065-14-19-1.35e-4 -10.493 6.268-19 14-19z" fill="#3ca9e7" style="paint-order:stroke markers fill"/>
  <path transform="scale(.26458)" d="m38.5 10c-5.4645-1.034e-4 -10.417 2.3086-14.092 6.0488 2.1881-1.922 4.7913-3.0489 7.5918-3.0488 7.732-1.85e-4 14 8.5065 14 19 1.29e-4 10.493-6.268 19-14 19-2.8005 7e-5 -5.4037-1.1268-7.5918-3.0488 3.6748 3.7402 8.6273 6.0489 14.092 6.0488 11.322 2.19e-4 20.5-9.8496 20.5-22 1.93e-4 -12.15-9.1781-22-20.5-22zm-20.367 19.523c-0.0091 0.08692-0.02117 0.17254-0.0293 0.25976 0.0075-0.08756 0.02091-0.17257 0.0293-0.25976zm-0.07422 0.89258c-0.03473 0.52354-0.0586 1.051-0.05859 1.584-7e-6 -0.53456 0.0267-1.0606 0.05859-1.584zm-0.05859 1.584c-9e-6 0.53303 0.02387 1.0604 0.05859 1.584-0.03189-0.52338-0.0586-1.0494-0.05859-1.584zm0.10352 2.2168c0.0081 0.08723 0.02022 0.17284 0.0293 0.25976-0.0084-0.0872-0.02179-0.1722-0.0293-0.25976z" fill="#1464a6" style="paint-order:stroke markers fill"/>
 </g>
</svg>
