<svg width="64" height="64" version="1.1" viewBox="0 0 16.933 16.933" xmlns="http://www.w3.org/2000/svg">
 <path d="m2.4218 11.214h12.089v0.54948l-6.0446 3.0222-6.0446-3.0222z" fill="#725136" stroke-width=".54951"/>
 <path d="m3.5209 7.3673h9.8911v1.6485l-0.5495 0.27475 0.5495 0.27475v5.4949h-9.8911v-5.4949l0.5495-0.27475-0.5495-0.27475z" fill="#e4bc71" stroke-width=".54951"/>
 <path d="m5.7189 1.3229c-0.30348 0-0.40213 0.2842-0.5495 0.54949l-2.7476 4.9454 6.0446 0.5495 6.0446-0.5495-2.7476-4.9454c-0.14738-0.26528-0.24602-0.54949-0.5495-0.54949-0.15174 0-0.28909 0.061538-0.38852 0.16098l-1.9705 1.8759c-0.09944 0.09944-0.23677 0.16098-0.38851 0.16098-0.15174 0-0.28909-0.061538-0.38851-0.16098l-1.9705-1.8759c-0.09944-0.09944-0.23677-0.16098-0.38851-0.16098z" fill="#a6744a" stroke-width=".54951"/>
 <path d="m1.8724 6.8177h13.188c0.30443 0 0.54952 0.24507 0.54952 0.5495 0 0.30442-0.24508 0.54948-0.54952 0.54948h-13.188c-0.30443 0-0.5495-0.24507-0.5495-0.54948s0.24508-0.5495 0.5495-0.5495z" fill="#bb8e67" stroke-width=".54951"/>
 <path d="m3.5209 9.0158v0.54948h1.099a1.6485 1.6485 0 0 0 1.6485 1.6485 1.6485 1.6485 0 0 0 1.6485-1.6485h1.099a1.6485 1.6485 0 0 0 1.6485 1.6485 1.6485 1.6485 0 0 0 1.6485-1.6485h1.099v-0.54948z" fill="#403e47" stroke-width=".54951"/>
 <path d="m14.51 11.764-5.495 1.6485-0.5495 1.099v0.54949l0.5495 0.5495h5.495z" fill="#ac784e" stroke-width=".54951"/>
 <path d="m2.4218 11.764 5.495 1.6485 1.099 2.1979h-6.5941z" fill="#bb8d68" stroke-width=".54951"/>
</svg>
