<svg xmlns="http://www.w3.org/2000/svg" width="64" height="64"><path fill="#77767b" d="M59 32c0 14.912-12.088 27-27 27S5 46.912 5 32 17.088 5 32 5s27 12.088 27 27"/><path fill="#deddda" d="M56 32c0 13.255-10.745 24-24 24S8 45.255 8 32 18.745 8 32 8s24 10.745 24 24"/><path fill="#3d3846" fill-rule="evenodd" stroke="#3d3846" stroke-linecap="round" stroke-width="2.003" d="M32.328 32.928 45.781 33"/><path fill="#d35f5f" d="M18.619 17.441a20.16 20.16 0 0 1 13.168-5.096l.227 20.154z"/><path fill="none" stroke="#fff" stroke-linecap="round" stroke-width="1.002" d="M31.5 32.457 19.008 18.002"/><path fill="#241f31" d="M34.754 31.277a3 3 0 1 1-5.479 2.446 3 3 0 0 1 5.479-2.446"/><path fill="#deddda" d="M33.014 32.5a1 1 0 1 1-1.999.001 1 1 0 0 1 1.999-.001"/></svg>