<svg width="64" height="64" version="1.1" xmlns="http://www.w3.org/2000/svg">
 <g transform="translate(5,5)">
  <circle cx="27" cy="27" r="27" fill="#f17d1e" stroke-width="3.375"/>
  <circle cx="27" cy="27" r="23" fill="#ffffff" opacity=".1" stroke-width="2.875"/>
  <path d="m24.688 10.125c-0.56646 0-1.0255 0.43517-1.0255 0.97507v3.9021c0 2.2156-1.9338 5.3087-3.8011 8.2375-1.9748 3.0931-5.9196 6.2928-6.3044 9.2668-0.04688 0.36294-0.06054 0.71686-0.05666 1.0654 12.316 0.40989 23.225-6.4896 23.342-6.5655l0.93759-0.6031c-0.61724-1.0581-2.4106-2.1163-3.0786-3.1636-1.8693-2.9288-4.2507-6.0219-4.2507-8.2375v-3.9021c0-0.5399-0.46098-0.97507-1.0274-0.97507zm14.238 17.967-0.74616 0.4749c-6.1783 3.9346-15.636 7.0548-24.438 6.8833 1.2462 4.525 6.2095 7.5802 6.4635 7.7301 0.16603 0.0975 1.3322 0.69519 6.6783 0.69519 5.3442 0 6.692-0.59768 6.8561-0.69519 0.30865-0.18056 7.5046-4.563 6.6959-10.738-0.18556-1.4102-0.75593-2.871-1.5099-4.3499z" fill="#ffffff" stroke-width="3.375"/>
 </g>
</svg>
