<svg width="64" height="64" version="1.1" viewBox="0 0 64 64" xmlns="http://www.w3.org/2000/svg" xmlns:xlink="http://www.w3.org/1999/xlink">
 <g transform="translate(0,-1)">
  <path d="m22.416 20.84c0.14712 6.2876-1.8894 11.756-7.6079 15.851l8.5274 4.0924c-0.53042-6.9787 2.4624-12.01 7.6079-15.849z" fill="#999994"/>
  <path d="m41.331 20.84c-0.14713 6.2876 1.8874 11.756 7.6079 15.851l-8.5274 4.0924c0.53042-6.9787-2.4624-12.01-7.6079-15.849z" fill="#999994"/>
  <path d="m39.745 43.381c-5.3894 2.8496-10.974 3.378-16.898-0.0097l-0.0058 9.4585c5.8288-3.4942 11.433-2.9715 16.898 0.0116z" fill="#999994"/>
  <path d="m44 16c0 6.627-5.373 12-12 12-6.627 0-12-5.373-12-12 0-6.627 5.373-12 12-12 6.627 0 12 5.373 12 12z" fill="#f9f9f9"/>
  <path d="m26 48c0 6.627-5.3711 12-12 12-6.627 0-12-5.373-12-12 1e-7 -6.627 5.373-12 12-12 6.6289 0 12 5.373 12 12z" fill="#f9f9f9"/>
  <path d="m62 48c0 6.627-5.3711 12-12 12-6.6269 0-12-5.373-12-12 0-6.627 5.373-12 12-12 6.6289 0 12 5.373 12 12z" fill="#f9f9f9"/>
 </g>
</svg>
