<svg xmlns="http://www.w3.org/2000/svg" width="64" height="64" version="1"><g stroke-linecap="round" stroke-linejoin="round"><path fill="#ececec" d="M12 30V9c0-1.662 1.338-3 3-3h34c1.662 0 3 1.338 3 3v21z" style="paint-order:stroke fill markers"/><rect width="56" height="28" x="4" y="18" fill="#4d4d4d" rx="6" ry="6" style="paint-order:stroke fill markers"/><rect width="46" height="4" x="9" y="30" fill="#fff" opacity=".35" rx="2" ry="2" style="paint-order:stroke fill markers"/><path fill="#ececec" d="M12 34v21c0 1.662 1.338 3 3 3h34c1.662 0 3-1.338 3-3V34z" style="paint-order:stroke fill markers"/><rect width="3" height="3" x="8" y="22" fill="#f2f2f2" rx="3" ry="3" style="paint-order:stroke fill markers"/><path fill="none" stroke="#000" d="M24.299 47.043s3.706 5.05 11.074-.283c5.168-3.74 10.786.979 10.786.979" opacity=".15"/></g><path fill="#666" d="M38.344 29.191c.65.517.798 1.406.332 1.993L26.882 46.006c-.466.586-2.467 1.494-2.858 1.183s.044-2.465.51-3.051l11.794-14.822c.467-.587 1.366-.643 2.016-.125"/></svg>