<?xml version="1.0" encoding="UTF-8"?>
<svg width="64" height="64" version="1" xmlns="http://www.w3.org/2000/svg" xmlns:cc="http://creativecommons.org/ns#" xmlns:dc="http://purl.org/dc/elements/1.1/" xmlns:rdf="http://www.w3.org/1999/02/22-rdf-syntax-ns#">
 <metadata>
  <rdf:RDF>
   <cc:Work rdf:about="">
    <dc:format>image/svg+xml</dc:format>
    <dc:type rdf:resource="http://purl.org/dc/dcmitype/StillImage"/>
    <dc:title/>
   </cc:Work>
  </rdf:RDF>
 </metadata>
 <g stroke-linecap="round" stroke-linejoin="round">
  <path d="m12 30v-21c0-1.662 1.338-3 3-3h34c1.662 0 3 1.338 3 3v21z" fill="#ececec" stroke-width="8.6066" style="paint-order:stroke fill markers"/>
  <rect x="4" y="18" width="56" height="28" rx="6" ry="6" fill="#4d4d4d" stroke-width="10.184" style="paint-order:stroke fill markers"/>
  <rect x="9" y="30" width="46" height="4" rx="2" ry="2" fill="#fff" opacity=".35" stroke-width="3.4884" style="paint-order:stroke fill markers"/>
  <path d="m12 34v21c0 1.662 1.338 3 3 3h34c1.662 0 3-1.338 3-3v-21z" fill="#ececec" stroke-width="8.6066" style="paint-order:stroke fill markers"/>
  <rect x="8" y="22" width="3" height="3" rx="3" ry="3" fill="#f2f2f2" stroke-width="10" style="paint-order:stroke fill markers"/>
  <path d="m24.299 47.043s3.7056 5.05 11.074-0.28316c5.1677-3.7403 10.786 0.97898 10.786 0.97898" fill="none" opacity=".15" stroke="#000" stroke-width="1px"/>
 </g>
 <path d="m38.344 29.191c0.65 0.517 0.798 1.406 0.332 1.993l-11.794 14.822c-0.466 0.586-2.467 1.494-2.858 1.183s0.044-2.465 0.51-3.051l11.794-14.822c0.467-0.587 1.366-0.643 2.016-0.125z" fill="#666"/>
</svg>
