<svg xmlns="http://www.w3.org/2000/svg" width="64" height="64"><g transform="translate(2.286 2.286)scale(.92857)"><rect width="56" height="56" x="4" y="4" fill="#4d4d4d" rx="8.615" ry="8.615"/><path fill="gray" d="M53.5 45h3c.83 0 1.5.67 1.5 1.5V49c0 .83-.67 1.5-1.5 1.5h-3c-.83 0-1.5-.67-1.5-1.5v-2.5c0-.83.67-1.5 1.5-1.5m-21 0h17c.83 0 1.5.67 1.5 1.5V49c0 .83-.67 1.5-1.5 1.5h-17c-.832 0-1.5-.67-1.5-1.5v-2.5c0-.83.668-1.5 1.5-1.5m-7 0h3c.83 0 1.5.67 1.5 1.5V49c0 .83-.67 1.5-1.5 1.5h-3c-.83 0-1.5-.67-1.5-1.5v-2.5c0-.83.67-1.5 1.5-1.5m-7 0h3c.83 0 1.5.67 1.5 1.5V49c0 .83-.67 1.5-1.5 1.5h-3c-.83 0-1.5-.67-1.5-1.5v-2.5c0-.83.67-1.5 1.5-1.5m-11 0h7c.83 0 1.5.67 1.5 1.5V49c0 .83-.67 1.5-1.5 1.5h-7c-.832 0-1.5-.67-1.5-1.5v-2.5c0-.83.668-1.5 1.5-1.5m48.98-11.922h.02c.83 0 1.5.67 1.5 1.5V42.5c0 .83-.67 1.5-1.5 1.5h-.02c-.831 0-1.5-.67-1.5-1.5v-7.922c0-.83.669-1.5 1.5-1.5M53.5 31h3c.83 0 1.5.67 1.5 1.5V35c0 .83-.67 1.5-1.5 1.5h-3c-.83 0-1.5-.67-1.5-1.5v-2.5c0-.83.67-1.5 1.5-1.5m-4 7h3c.83 0 1.5.67 1.5 1.5V42c0 .83-.67 1.5-1.5 1.5h-3c-.83 0-1.5-.67-1.5-1.5v-2.5c0-.83.67-1.5 1.5-1.5m-7 0h3c.83 0 1.5.67 1.5 1.5V42c0 .83-.67 1.5-1.5 1.5h-3c-.83 0-1.5-.67-1.5-1.5v-2.5c0-.83.67-1.5 1.5-1.5m-35 0h3c.83 0 1.5.67 1.5 1.5V42c0 .83-.67 1.5-1.5 1.5h-3c-.83 0-1.5-.67-1.5-1.5v-2.5c0-.83.67-1.5 1.5-1.5m28 0h3c.83 0 1.5.67 1.5 1.5V42c0 .83-.67 1.5-1.5 1.5h-3c-.83 0-1.5-.67-1.5-1.5v-2.5c0-.83.67-1.5 1.5-1.5m-7 0h3c.83 0 1.5.67 1.5 1.5V42c0 .83-.67 1.5-1.5 1.5h-3c-.83 0-1.5-.67-1.5-1.5v-2.5c0-.83.67-1.5 1.5-1.5m-7 0h3c.83 0 1.5.67 1.5 1.5V42c0 .83-.67 1.5-1.5 1.5h-3c-.83 0-1.5-.67-1.5-1.5v-2.5c0-.83.67-1.5 1.5-1.5m-7 0h3c.83 0 1.5.67 1.5 1.5V42c0 .83-.67 1.5-1.5 1.5h-3c-.83 0-1.5-.67-1.5-1.5v-2.5c0-.83.67-1.5 1.5-1.5m32-7h3c.83 0 1.5.67 1.5 1.5V35c0 .83-.67 1.5-1.5 1.5h-3c-.83 0-1.5-.67-1.5-1.5v-2.5c0-.83.67-1.5 1.5-1.5m-7 0h3c.83 0 1.5.67 1.5 1.5V35c0 .83-.67 1.5-1.5 1.5h-3c-.83 0-1.5-.67-1.5-1.5v-2.5c0-.83.67-1.5 1.5-1.5m-7 0h3c.83 0 1.5.67 1.5 1.5V35c0 .83-.67 1.5-1.5 1.5h-3c-.83 0-1.5-.67-1.5-1.5v-2.5c0-.83.67-1.5 1.5-1.5m-7 0h3c.83 0 1.5.67 1.5 1.5V35c0 .83-.67 1.5-1.5 1.5h-3c-.83 0-1.5-.67-1.5-1.5v-2.5c0-.83.67-1.5 1.5-1.5m-7 0h3c.83 0 1.5.67 1.5 1.5V35c0 .83-.67 1.5-1.5 1.5h-3c-.83 0-1.5-.67-1.5-1.5v-2.5c0-.83.67-1.5 1.5-1.5m-11 0h7c.83 0 1.5.67 1.5 1.5V35c0 .83-.67 1.5-1.5 1.5h-7c-.832 0-1.5-.67-1.5-1.5v-2.5c0-.83.668-1.5 1.5-1.5m42-7.03h7c.83 0 1.5.67 1.5 1.5v2.5c0 .83-.67 1.5-1.5 1.5h-7c-.83 0-1.5-.67-1.5-1.5v-2.5c0-.83.67-1.5 1.5-1.5m-7 0h3c.83 0 1.5.67 1.5 1.5v2.5c0 .83-.67 1.5-1.5 1.5h-3c-.83 0-1.5-.67-1.5-1.5v-2.5c0-.83.67-1.5 1.5-1.5m-35 0h3c.83 0 1.5.67 1.5 1.5v2.5c0 .83-.67 1.5-1.5 1.5h-3c-.83 0-1.5-.67-1.5-1.5v-2.5c0-.83.67-1.5 1.5-1.5m28 0h3c.83 0 1.5.67 1.5 1.5v2.5c0 .83-.67 1.5-1.5 1.5h-3c-.83 0-1.5-.67-1.5-1.5v-2.5c0-.83.67-1.5 1.5-1.5m-7 0h3c.83 0 1.5.67 1.5 1.5v2.5c0 .83-.67 1.5-1.5 1.5h-3c-.83 0-1.5-.67-1.5-1.5v-2.5c0-.83.67-1.5 1.5-1.5m-7 0h3c.83 0 1.5.67 1.5 1.5v2.5c0 .83-.67 1.5-1.5 1.5h-3c-.83 0-1.5-.67-1.5-1.5v-2.5c0-.83.67-1.5 1.5-1.5m-7 0h3c.83 0 1.5.67 1.5 1.5v2.5c0 .83-.67 1.5-1.5 1.5h-3c-.83 0-1.5-.67-1.5-1.5v-2.5c0-.83.67-1.5 1.5-1.5m39-4.97h3c.83 0 1.5.557 1.5 1.25s-.67 1.25-1.5 1.25h-3c-.83 0-1.5-.557-1.5-1.25S52.67 19 53.5 19m-7 0h3c.83 0 1.5.557 1.5 1.25s-.67 1.25-1.5 1.25h-3c-.83 0-1.5-.557-1.5-1.25S45.67 19 46.5 19m-11 0h3c.83 0 1.5.557 1.5 1.25s-.67 1.25-1.5 1.25h-3c-.83 0-1.5-.557-1.5-1.25S34.67 19 35.5 19m-7 0h3c.83 0 1.5.557 1.5 1.25s-.67 1.25-1.5 1.25h-3c-.83 0-1.5-.557-1.5-1.25S27.67 19 28.5 19m-7 0h3c.83 0 1.5.557 1.5 1.25s-.67 1.25-1.5 1.25h-3c-.83 0-1.5-.557-1.5-1.25S20.67 19 21.5 19m-7 0h3c.83 0 1.5.557 1.5 1.25s-.67 1.25-1.5 1.25h-3c-.83 0-1.5-.557-1.5-1.25S13.67 19 14.5 19m-7 0h3c.83 0 1.5.557 1.5 1.25s-.67 1.25-1.5 1.25h-3c-.83 0-1.5-.557-1.5-1.25S6.67 19 7.5 19"/><path fill="#f9f06b" d="M50.98 12.96a1.02 1.02 0 1 1-.002 2.04 1.02 1.02 0 0 1 .002-2.04M55 13a1 1 0 1 1 .001 2 1 1 0 0 1 0-2"/><g stroke="#deddda" stroke-linecap="round" stroke-linejoin="round" style="paint-order:normal"><path fill="none" d="M96.965 77.023V47.019a8.007 8.007 0 0 0-8-8.008L68.988 39c-2.121 0-4.152.84-5.652 2.34s-2.34 3.535-2.336 5.653l.012 12" style="paint-order:normal" transform="matrix(.5 0 0 .5 0 -3)"/><path fill="#666" stroke-width="2" d="M78.125 65.262h33.797c3.91 0 7.078 2.785 7.078 6.219v29.285c0 3.433-3.168 6.219-7.078 6.219H78.125c-3.91 0-7.082-2.786-7.082-6.22V71.482c0-3.434 3.172-6.219 7.082-6.219" style="paint-order:normal" transform="matrix(.5 0 0 .5 0 -3)"/><path fill="#666" fill-rule="evenodd" d="M56.797 53.348h6.406a2.384 2.384 0 0 1 2.387 2.387v5.379a2.384 2.384 0 0 1-2.387 2.386h-6.406a2.384 2.384 0 0 1-2.387-2.386v-5.38a2.384 2.384 0 0 1 2.387-2.386" style="paint-order:normal" transform="matrix(.5 0 0 .5 0 -3)"/></g><path fill="#fff" d="M47.502 46c2.504 0 4.059-1.459 4.135-3.666h-2.65c-.106.947-.674 1.465-1.451 1.465-.997 0-1.647-.844-1.647-2.43 0-1.574.656-2.416 1.647-2.416.812 0 1.34.55 1.45 1.463h2.651c-.064-2.195-1.664-3.625-4.14-3.625-2.803 0-4.497 1.871-4.497 4.607C43 44.123 44.682 46 47.502 46m-1.144-12.84H43.98v.076l2.512 2.602h2.035l2.506-2.602v-.076h-2.371l-1.155 1.348z"/></g></svg>