<svg xmlns="http://www.w3.org/2000/svg" width="64" height="64"><g stroke-width=".5"><path fill="#2fa871" d="M25.24 8.116h13.52c2.297 0 4.16 1.86 4.16 4.154v13.5a4.157 4.157 0 0 1-4.16 4.154H25.24a4.157 4.157 0 0 1-4.16-4.154v-13.5a4.157 4.157 0 0 1 4.16-4.154"/><path fill="#57e389" d="M25.24 5h13.52c2.297 0 4.16 1.86 4.16 4.154v13.501a4.157 4.157 0 0 1-4.16 4.154H25.24a4.157 4.157 0 0 1-4.16-4.154v-13.5A4.157 4.157 0 0 1 25.24 5"/><path fill="gray" d="M38.748 27.564a1.61 1.61 0 0 1 2.197.588l3.506 6.065c.445.769.181 1.75-.589 2.195-.77.442-1.753.18-2.198-.589l-3.506-6.064a1.605 1.605 0 0 1 .59-2.195m-12.566 0a1.61 1.61 0 0 0-2.198.588l-3.506 6.065c-.444.769-.18 1.75.59 2.195a1.61 1.61 0 0 0 2.197-.589l3.506-6.064c.445-.77.181-1.75-.589-2.195"/><path fill="#a568bd" d="M10.16 37.194h13.52c2.297 0 4.16 1.86 4.16 4.154v13.5a4.157 4.157 0 0 1-4.16 4.155H10.16A4.157 4.157 0 0 1 6 54.847v-13.5a4.157 4.157 0 0 1 4.16-4.154z"/><path fill="#dc8add" d="M10.16 34.078h13.52c2.297 0 4.16 1.86 4.16 4.154v13.501a4.157 4.157 0 0 1-4.16 4.154H10.16A4.157 4.157 0 0 1 6 51.733v-13.5a4.157 4.157 0 0 1 4.16-4.154z"/><path fill="#f37920" d="M40.32 37.194h13.52c2.297 0 4.16 1.86 4.16 4.154v13.5a4.157 4.157 0 0 1-4.16 4.155H40.32a4.157 4.157 0 0 1-4.16-4.155v-13.5a4.157 4.157 0 0 1 4.16-4.154"/><path fill="#ffa348" d="M40.32 34.078h13.52c2.297 0 4.16 1.86 4.16 4.154v13.501a4.157 4.157 0 0 1-4.16 4.154H40.32a4.157 4.157 0 0 1-4.16-4.154v-13.5a4.157 4.157 0 0 1 4.16-4.154z"/></g></svg>