<svg xmlns="http://www.w3.org/2000/svg" width="64" height="64"><rect width="48" height="36" x="4" y="10" fill="#f35a23" rx="3" ry="3" style="paint-order:stroke fill markers"/><rect width="44" height="32" x="6" y="12" opacity=".15" rx="1.048" ry="1.067" style="paint-order:stroke fill markers"/><rect width="48" height="36" x="8" y="14" fill="#8bc34a" rx="3" ry="3" style="paint-order:stroke fill markers"/><rect width="44" height="32" x="10" y="16" opacity=".15" rx="1.048" ry="1.067" style="paint-order:stroke fill markers"/><rect width="48" height="36" x="12" y="18" fill="#29b6f6" rx="3" ry="3" style="paint-order:stroke fill markers"/><path d="M15 20c-.58 0-1.047.475-1.047 1.066v29.867c0 .591.467 1.067 1.047 1.067h31.953l11-11V21.066c0-.591-.466-1.067-1.047-1.067z" opacity=".15" style="paint-order:stroke fill markers"/><path fill="#6fcdf9" d="m47 52 11-11h-9.953c-.58 0-1.047.475-1.047 1.066z" style="paint-order:stroke fill markers"/><path d="M58 41 47 52h9.953c.58 0 1.047-.475 1.047-1.066z" opacity=".05" style="paint-order:stroke fill markers"/></svg>