<svg width="64" height="64" version="1.1" viewBox="0 0 64 64" xmlns="http://www.w3.org/2000/svg">
 <g transform="matrix(1.2113 0 0 1.2113 -6.7607 -6.7607)">
  <circle cx="32" cy="32" r="22.291" fill="#7f7f7f" stroke-width=".96915"/>
  <path d="m32 16.739c-1.4674 0-2.3478 9.3913-3.2283 9.3913-1.1704-0.01925-1.4674-2.3478-1.4674-5.8696-1.1739 0-4.6957 5.8696-5.8696 5.8696-2.3478 0-3.2283-1.1739-4.4022-1.1739-0.17609 0-0.29348 0.11739-0.29348 0.29348 0 1.1739 3.5217 3.2283 4.6957 6.75-0.58696 0-1.1739 0-1.1739 0.58696 0 1.7609 5.8696 3.5217 5.8696 8.2174 0 0.58696-1.1739 0.58696-1.1739 1.7609s1.667 2.3361 3.5217 2.3478c0 1.1739 0.58696 2.3478 1.1739 2.3478 1.1739 0 1.1739-1.1739 2.3478-1.1739s1.1739 1.1739 2.3478 1.1739c0.58696 0 1.1739-1.1739 1.1739-2.3478 1.8548-0.0075 3.5217-1.1739 3.5217-2.3478s-1.1739-1.1739-1.1739-1.7609c0-4.6957 5.8696-6.4565 5.8696-8.2174 0-0.58696-0.58696-0.58696-1.1739-0.58696 1.1739-3.5217 4.6957-5.5761 4.6957-6.75 0-0.17609-0.11739-0.29348-0.29348-0.29348-1.1739 0-2.0543 1.1739-4.4022 1.1739-1.1739 0-4.6957-5.8696-5.8696-5.8696 0 3.5217-0.297 5.8461-1.4674 5.8696-0.88044 0-1.7609-9.3913-3.2283-9.3913z" fill="#f5f5f5" stroke-width="1.1739"/>
  <path d="m25.543 30.826c-0.58696 0-0.58696 0.58696-0.58696 1.7609s2.3478 1.7609 4.6957 2.9348c-1.1739-2.3478-2.9348-4.6957-4.1087-4.6957zm12.913 0c-1.1739 0-2.9348 2.3478-4.1087 4.6957 2.3478-1.1739 4.6957-1.7609 4.6957-2.9348s0-1.7609-0.58696-1.7609zm-6.4565 8.2174c-1.7257 0-2.2657 1.9487-3.193 2.4065-0.28996 0.14439-0.40735 0.49656-0.26413 0.78652 0.14439 0.28996 0.49656 0.40735 0.78652 0.26413 1.397-0.69848 1.5965-2.2891 2.6765-2.2891 0.78183 0 1.3617 1.6317 2.6765 2.2891 0.28996 0.14439 0.64213 0.02606 0.78652-0.26413 0.14439-0.28996 0.02606-0.64213-0.26413-0.78652-1.0201-0.50948-1.6552-2.4065-3.193-2.4065z" fill="#5c5c5c" stroke-width="1.1739"/>
 </g>
</svg>
