<svg xmlns="http://www.w3.org/2000/svg" width="64" height="64" viewBox="0 0 16.933 16.933"><defs><linearGradient id="a" x1="-197.72" x2="-197.72" y1="263.86" y2="273.76" gradientTransform="matrix(.18709 -.18709 .18709 .18709 1.12 -74.45)" gradientUnits="userSpaceOnUse"><stop offset="0"/><stop offset="1" stop-opacity="0"/></linearGradient></defs><path fill="currentColor" d="m7.144 2.377-3.704.001c-.294 0-.395.268-.53.529v.003h-.264c-.586 0-1.058.472-1.058 1.059v1.323C1 5.292.529 5.764.529 6.35v7.408c0 .586.472 1.058 1.059 1.058h13.758c.586 0 1.058-.472 1.058-1.058V5.291c0-.586-.472-1.058-1.058-1.058V3.97c0-.587-.472-1.059-1.059-1.059h-4.46l-.038-.003H7.674c-.155-.25-.236-.53-.53-.53z" class="ColorScheme-Highlight" color="#5294e2"/><path d="m7.144 2.377-3.704.001c-.294 0-.395.268-.53.529v.003h-.264c-.587 0-1.059.472-1.059 1.059v1.323h6.615l.794-1.059h6.35V3.97c0-.587-.472-1.059-1.059-1.059l-6.613-.003c-.155-.25-.236-.53-.53-.53z" opacity=".2"/><path fill="#fff" d="M2.915 3.7a.53.53 0 0 0-.534.533v1.058h5.821l.794-1.058h5.556a.53.53 0 0 0-.533-.533z"/><rect width="3.175" height=".529" x="3.704" y="2.64" opacity=".25" rx=".265" ry=".265"/><path fill="url(#a)" d="m16.404 10.583-4.233 4.233h3.175c.586 0 1.058-.472 1.058-1.058z" opacity=".2"/><rect width="4.233" height=".529" x="10.318" y="4.762" opacity=".25" ry=".265"/><path d="M21 23.004c-1.108 0-2 .892-2 2v3.002h26v-3.002c0-1.108-.892-2-2-2zM22.002 25a1 1 0 0 1 1 1.002 1 1 0 0 1-1 1.002A1 1 0 0 1 21 26.002 1 1 0 0 1 22.002 25M19 29.002v5.002h26v-5.002zm3.002 2a1 1 0 0 1 1 1.002 1 1 0 0 1-1 1.002A1 1 0 0 1 21 32.004a1 1 0 0 1 1.002-1.002M19 35.004v5.002h26v-5.002zM22.002 37a1 1 0 0 1 1 1.002 1 1 0 0 1-1 1.002A1 1 0 0 1 21 38.002 1 1 0 0 1 22.002 37M19 41.002v5.002h26v-5.002zm3.002 2a1 1 0 0 1 1 1.002 1 1 0 0 1-1 1.002A1 1 0 0 1 21 44.004a1 1 0 0 1 1.002-1.002M19 47.006v4.002c0 1.108.892 2 2 2h22c1.108 0 2-.892 2-2v-4.002zM22.002 49a1 1 0 0 1 1 1.002 1 1 0 0 1-1 1.002A1 1 0 0 1 21 50.002 1 1 0 0 1 22.002 49" opacity=".15" style="paint-order:markers stroke fill" transform="scale(.26458)"/></svg>