<svg width="64" height="64" version="1.1" xmlns="http://www.w3.org/2000/svg">
 <path d="m12.666 2.1438c-4.433 0.78824-7.6653 4.6727-7.6663 9.2131v30.859l4.426 5.4491c0.00106 7.2021 0.67624 9.0752 6.8603 5.475l34.133-12.829c6.1828-3.602 5.1454-8.7311-1.0373-12.333l-19.074-18.088-11.394-6.6355c-1.8886-1.0992-4.1006-1.4923-6.2479-1.1102z" fill="#4263e7"/>
 <path d="m30.17 9.8083c-9.5886 7.2905-15.171 18.678-15.17 30.764 1e-6 0.99005 0.03681 1.9775 0.11017 2.9603 0.4328 5.798 4.6968 4.7947 7.6248 9.8393l29.482-14.928c6.1818-3.6022 4.8678-10.113-1.314-13.715l-6.3779-6.5588z" fill="#cd5dd9"/>
 <path d="m44.075 17.908c-8.3101 4.4767-13.076 13.186-13.076 22.664-5.7e-5 1.0667 0.03715 2.1294 0.12521 3.1822 0.24895 2.9761 2.5641 1.101 3.9332 3.784l15.914-7.2966c4.9845-2.9045 9.3386-9.4571 6.2849-13.721-0.73351-1.0243-1.6989-1.9244-2.8962-2.6221z" fill="#fe8668"/>
 <path d="m57.075 26.295c-7.648 0.27197-14.076 6.5837-14.076 14.277-1.96e-4 1.0014 0.2149 1.9978 0.52104 2.9729 0.25265 0.80475 1.3972-0.27218 1.704 0.49456l5.0262-1.5427 4.1105-2.3935c4.8568-2.8289 6.1336-9.3242 2.7144-13.808z" fill="#ffb44f"/>
 <path d="m5 42.001v10.644a9.2768 9.3573 0 0 0 13.913 8.1025l32.189-18.747z" fill="#32c080"/>
 <path d="m5 30v1h20v8a1 1 0 0 1-1 1h-19v2h19a1 1 0 0 1 1 1v8a1 1 0 0 1-1 1h-19v0.64453a9.2768 9.3573 0 0 0 0.097656 1.3555h18.902a1 1 0 0 1 1 1v2.2031l1.5859-0.92383a0.5 0.5 0 0 1-0.085938-0.2793v-2a0.5 0.5 0 0 1 0.5-0.5h2.5a0.5 0.5 0 0 1 0.5 0.5v0.29102l1.5-0.87305v-21.918a1.5 1.5 0 0 0-1.5-1.5h-4-1-20zm22 1.5h2.5a0.5 0.5 0 0 1 0.5 0.5v2a0.5 0.5 0 0 1-0.5 0.5h-2.5a0.5 0.5 0 0 1-0.5-0.5v-2a0.5 0.5 0 0 1 0.5-0.5zm0 5.5h2.5a0.5 0.5 0 0 1 0.5 0.5v2a0.5 0.5 0 0 1-0.5 0.5h-2.5a0.5 0.5 0 0 1-0.5-0.5v-2a0.5 0.5 0 0 1 0.5-0.5zm0 5.5h2.5a0.5 0.5 0 0 1 0.5 0.5v2a0.5 0.5 0 0 1-0.5 0.5h-2.5a0.5 0.5 0 0 1-0.5-0.5v-2a0.5 0.5 0 0 1 0.5-0.5zm0 5.5h2.5a0.5 0.5 0 0 1 0.5 0.5v2a0.5 0.5 0 0 1-0.5 0.5h-2.5a0.5 0.5 0 0 1-0.5-0.5v-2a0.5 0.5 0 0 1 0.5-0.5z" fill="#4d4d4d"/>
</svg>
