<svg width="64" height="64" version="1.1" xmlns="http://www.w3.org/2000/svg">
 <path d="m31.992 4c-0.30787 0.00113-0.61132 0.07332-0.88672 0.21094l-24 12c-0.67756 0.33888-1.1055 1.0315-1.1055 1.7891v27c2.158e-4 0.73358 0.40198 1.4082 1.0469 1.7578l24 13c0.59456 0.32226 1.3117 0.32226 1.9062 0l24-13c0.6449-0.34963 1.0467-1.0242 1.0469-1.7578v-26c-2.16e-4 -0.73358-0.40198-1.4082-1.0469-1.7578l-24-13c-0.29493-0.16006-0.62538-0.24334-0.96094-0.24219z" fill="#3f3f3f"/>
 <path d="m31.975 13c-1.0946 0.014006-1.9746 0.90532-1.9746 2v16c8.9e-5 0.74086 0.40967 1.421 1.0645 1.7676l17 9c1.3319 0.70464 2.9352-0.26074 2.9355-1.7676v-16c-8.9e-5 -0.74086-0.40967-1.421-1.0645-1.7676l-17-9c-0.29582-0.15666-0.62622-0.23658-0.96094-0.23242z" fill="#5891d9"/>
 <path d="m22.975 18c-1.0946 0.014006-1.9746 0.90532-1.9746 2v16c8.9e-5 0.74086 0.40967 1.421 1.0645 1.7676l17 9c1.3319 0.70464 2.9352-0.26074 2.9355-1.7676v-16c-8.9e-5 -0.74086-0.40967-1.421-1.0645-1.7676l-17-9c-0.29582-0.15666-0.62622-0.23658-0.96094-0.23242z" fill="#8ed599"/>
 <path d="m38 34-17 1.0625v0.9375c8.9e-5 0.74086 0.40967 1.421 1.0645 1.7676l17 9c1.3319 0.70464 2.9352-0.26074 2.9355-1.7676v-7l-4-4z" fill="#ffffff"/>
 <path d="m14.975 22c-1.0946 0.014006-1.9746 0.90532-1.9746 2v16c8.9e-5 0.74086 0.40967 1.421 1.0645 1.7676l17 9c1.3319 0.70464 2.9352-0.26074 2.9355-1.7676v-16c-8.9e-5 -0.74086-0.40967-1.421-1.0645-1.7676l-17-9c-0.29582-0.15666-0.62622-0.23658-0.96094-0.23242z" fill="#d75a86"/>
 <path d="m44 27c0 1 1 3 2 3s2-1 2-1-1.5924-1.1498-2-2c-0.47939-1 0-3 0-3s-2 1-2 3z" fill="#ffffff"/>
 <path d="m18 34-5 0.33398v5.666c8.9e-5 0.74086 0.40967 1.421 1.0645 1.7676l15.252 8.0742-11.316-15.842z" fill="#ffffff"/>
</svg>
