<svg xmlns="http://www.w3.org/2000/svg" width="64" height="64"><g stroke-width=".265"><path fill="#df6277" d="M32 3.224 19.538 24.806 32 32l12.46-7.194.542-15.323C39.31 6.197 33.439 3.223 32 3.223z"/><path fill="#fb9168" d="M45.001 9.483 32.001 32l12.459 7.195 12.462-21.583c-.72-1.246-6.23-4.843-11.92-8.129z"/><path fill="#f3db6c" d="M56.922 17.612 32 32l12.46 7.195L58 32c0-6.57-.358-13.142-1.078-14.388z"/><path fill="#7ab392" d="M32 32V46.39h24.922C57.64 45.143 58 38.572 58 32z"/><path fill="#4b7cbc" d="M32 32V46.39l13.001 8.129c5.691-3.286 11.201-6.884 11.92-8.13z"/><path fill="#6f488c" d="m32 32-12.462 7.195L32 60.777c1.44 0 7.31-2.974 13.001-6.26z"/><path fill="#4d3f33" d="M19.538 24.806 7.078 46.39C8.519 48.88 29.124 60.777 32 60.777V32z"/><path fill="#7a573b" d="M7.08 17.612c-1.44 2.492-1.44 26.284 0 28.777L32 32V17.612z"/><path fill="#99cd61" d="M32 3.224c-2.877 0-23.482 11.896-24.92 14.388L32 32z"/></g><path fill="#fff" d="M32.003 17.612c-1.438 0-11.74 5.948-12.459 7.194l12.46 21.583 12.461-21.583c-.72-1.246-11.022-7.194-12.462-7.194z"/><path fill="#dfdfdf" d="m19.545 24.806 12.459 21.582c1.439 0 11.742-5.948 12.461-7.194.72-1.246.72-13.142 0-14.388L32.004 32z"/><path fill="#d6d2d2" d="M19.542 24.806c-.72 1.246-.72 13.143 0 14.389.72 1.246 11.02 7.194 12.46 7.194V32z"/></svg>