<svg width="64" height="64" version="1.1" xmlns="http://www.w3.org/2000/svg">
 <rect width="64" height="64" rx="0" ry="0" fill="none" stroke-linecap="round" stroke-linejoin="round" stroke-width="1.4464" style="paint-order:stroke fill markers"/>
 <rect x="5" y="5" width="54" height="54" rx="27" ry="27" fill="#f2f2f2" stroke-width="3.6445"/>
 <path d="m45.43 14.749c-4.2927 2.3964-21.094-0.07691-28.237 17.863-1.0035 4.7372-0.48456 11.267 4.0947 11.558 0.94753 0.06027 1.8024 0.70247 2.2495 1.4305 2.9251 4.7632 7.1418 4.3488 8.8864 2.0743 0.33447-0.43607 0.97126-0.31132 1.4236 0.03628 5.2744 4.0535 8.8109-2.3623 10.613-7.3944 0.71699-2.2006 4.3182-19.447 2.8972-21.291-0.42347-0.54948-2.2767 1.0393-3.8913 2.7342-12.903 13.546-21.465 3.4329 1.4864-6.6705l0.34898-0.41878 0.23828 0.09774" fill="#73d216"/>
 <path d="m46.652 14.486c-4.3866 0.81363-24.893 3.1218-29.455 18.36-1.3321 5.1567-0.58249 12.172 5.3527 11.913 0.4206-0.01813 0.46394 0.1204 0.61357 0.4744 2.4436 5.7812 8.4576 4.7293 9.81 2.4635 0.19262-0.32271-0.29192-0.19987 0 0 6.1239 4.1928 9.4617-1.6101 11.391-6.7818 2.3562-4.4871 3.7966-23.169 2.5356-21.961-21.482 20.586-21.441 2.4551-0.24814-4.4687" fill="none" stroke="#45a300" stroke-linejoin="round" stroke-width=".78171"/>
 <g transform="matrix(.90889 .25683 -.25683 .90889 17.489 .16784)" fill="none" stroke="#45a300" stroke-linecap="round" stroke-linejoin="bevel" stroke-width=".82767">
  <path d="m18.646 43.904c-3.594-6.7166-2.105-8.4976-1.9316-10.624"/>
  <path d="m29.35 43.829c-3.2627-3.744-3.9314-7.4057-3.2317-10.473"/>
 </g>
</svg>
