<svg xmlns="http://www.w3.org/2000/svg" width="64" height="64" viewBox="0 0 16.933 16.933"><g stroke-width=".96" transform="matrix(1.04 0 0 1.0427 -.339 -292.39)"><rect width="13.195" height="3.501" x="-15.047" y="-295.13" fill="#26a269" rx="1.015" ry="1.015" transform="scale(-1)"/><rect width="13.229" height="4.567" x="-15.081" y="-294.88" fill="#aaa" rx="1.018" ry="1.001" transform="scale(-1)"/><rect width="13.229" height="12.687" x="-15.081" y="-294.37" fill="#f2f2f2" rx="1.018" ry="1.03" transform="scale(-1)"/><text x="5.297" y="300.405" fill="#4d4d4d" stroke-width=".281" font-family="FreeSans" font-size="5.075" font-weight="700" style="line-height:0%" text-anchor="middle" transform="scale(1.0258 .97484)"><tspan x="5.297" y="300.405">A</tspan></text><text x="11.343" y="280.295" fill="#4d4d4d" stroke-width=".281" font-family="FreeSans" font-size="6.428" font-weight="700" style="line-height:0%" text-anchor="middle" transform="scale(.972 1.0288)"><tspan x="11.343" y="280.295" font-size="5.075">𝛀</tspan></text><path fill="#d5d3cf" d="M2.867 282.697a.254.254 0 1 0 0 .508.254.254 0 0 0 0-.508zm1.015 0a.254.254 0 1 0 0 .508.254.254 0 0 0 0-.508zm1.015 0a.254.254 0 1 0 0 .508.254.254 0 0 0 0-.508zm1.015 0a.254.254 0 1 0 0 .508.254.254 0 0 0 0-.508zm1.015 0a.254.254 0 1 0 0 .508.254.254 0 0 0 0-.508zm1.015 0a.254.254 0 1 0 0 .508.254.254 0 0 0 0-.508zm1.015 0a.254.254 0 1 0 0 .508.254.254 0 0 0 0-.508zm1.015 0a.254.254 0 1 0 0 .508.254.254 0 0 0 0-.508zm1.015 0a.254.254 0 1 0 0 .508.254.254 0 0 0 0-.508zm-9.135 0a.254.254 0 0 1 .254.254.254.254 0 0 1-.254.254v-.254zm13.195 0a.254.254 0 0 0-.254.254.254.254 0 0 0 .254.254v-.254z"/><path fill="#d5d3cf" d="M5.912 282.697a.254.254 0 1 0 0 .508.254.254 0 0 0 0-.508zm1.015 0a.254.254 0 1 0 0 .508.254.254 0 0 0 0-.508zm1.015 0a.254.254 0 1 0 0 .508.254.254 0 0 0 0-.508zm1.015 0a.254.254 0 1 0 0 .508.254.254 0 0 0 0-.508zm1.015 0a.254.254 0 1 0 0 .508.254.254 0 0 0 0-.508zm1.015 0a.254.254 0 1 0 0 .508.254.254 0 0 0 0-.508zm1.015 0a.254.254 0 1 0 0 .508.254.254 0 0 0 0-.508zm1.015 0a.254.254 0 1 0 0 .508.254.254 0 0 0 0-.508zm1.015 0a.254.254 0 1 0 0 .508.254.254 0 0 0 0-.508z"/><path fill="#33d17a" d="m7 286.029.2.613 1.399-1.54-2.033-.646.119.567c-2.005 1.01-2.215 1.895-2.49 2.785l1.082.191c.256-1.08.93-1.631 1.723-1.97zm2.432 5.106-.2-.613-1.399 1.54 2.033.646-.119-.567c2.005-1.01 2.215-1.895 2.49-2.785l-1.082-.191c-.256 1.08-.93 1.631-1.723 1.97z"/></g></svg>