<svg xmlns="http://www.w3.org/2000/svg" xmlns:xlink="http://www.w3.org/1999/xlink" width="64" height="64" viewBox="0 0 16.933 16.933"><defs><linearGradient id="a"><stop offset="0"/><stop offset="1" stop-opacity="0"/></linearGradient><linearGradient xlink:href="#a" id="b" x1="43.574" y1="54.311" x2="43.574" y2="7.064" gradientUnits="userSpaceOnUse" gradientTransform="matrix(.26458 0 0 .26458 .034 280)"/></defs><g transform="matrix(1.04 0 0 1.0427 -.339 -292.387)" stroke-width=".96"><rect ry="1.015" rx="1.015" height="3.501" width="13.195" y="-295.131" x="-15.047" transform="scale(-1)" fill="#26a269"/><rect ry="1.001" rx="1.018" height="4.567" width="13.229" y="-294.877" x="-15.081" transform="scale(-1)" fill="#aaa"/><rect ry="1.03" rx="1.018" height="12.687" width="13.229" y="-294.369" x="-15.081" transform="scale(-1)" fill="#f2f2f2"/><text style="line-height:0%;text-align:center" y="300.405" x="5.297" transform="scale(1.02581 .97484)" font-weight="700" font-size="5.075" font-family="FreeSans" text-anchor="middle" fill="#4d4d4d" stroke-width=".281"><tspan y="300.405" x="5.297">A</tspan></text><path d="M13.867 281.869a13.89 13.89 0 0 1 .058 1.173 13.89 13.89 0 0 1-5.88 11.327h6.021c.563 0 1.015-.452 1.015-1.014v-10.471c0-.562-.452-1.015-1.015-1.015z" opacity=".1" fill="url(#b)"/><text style="line-height:0%;text-align:center" y="280.295" x="11.343" transform="scale(.972 1.0288)" font-weight="700" font-size="6.428" font-family="FreeSans" text-anchor="middle" fill="#4d4d4d" stroke-width=".281"><tspan y="280.295" x="11.343" font-size="5.075">𝛀</tspan></text><path d="M2.867 282.697a.254.254 0 1 0 0 .508.254.254 0 0 0 0-.508zm1.015 0a.254.254 0 1 0 0 .508.254.254 0 0 0 0-.508zm1.015 0a.254.254 0 1 0 0 .508.254.254 0 0 0 0-.508zm1.015 0a.254.254 0 1 0 0 .508.254.254 0 0 0 0-.508zm1.015 0a.254.254 0 1 0 0 .508.254.254 0 0 0 0-.508zm1.015 0a.254.254 0 1 0 0 .508.254.254 0 0 0 0-.508zm1.015 0a.254.254 0 1 0 0 .508.254.254 0 0 0 0-.508zm1.015 0a.254.254 0 1 0 0 .508.254.254 0 0 0 0-.508zm1.015 0a.254.254 0 1 0 0 .508.254.254 0 0 0 0-.508zM1.852 282.697a.254.254 0 0 1 .254.254.254.254 0 0 1-.254.254v-.254zM15.047 282.697a.254.254 0 0 0-.254.254.254.254 0 0 0 .254.254v-.254z" fill="#d5d3cf"/><path d="M5.912 282.697a.254.254 0 1 0 0 .508.254.254 0 0 0 0-.508zm1.015 0a.254.254 0 1 0 0 .508.254.254 0 0 0 0-.508zm1.015 0a.254.254 0 1 0 0 .508.254.254 0 0 0 0-.508zm1.015 0a.254.254 0 1 0 0 .508.254.254 0 0 0 0-.508zm1.015 0a.254.254 0 1 0 0 .508.254.254 0 0 0 0-.508zm1.015 0a.254.254 0 1 0 0 .508.254.254 0 0 0 0-.508zm1.015 0a.254.254 0 1 0 0 .508.254.254 0 0 0 0-.508zm1.015 0a.254.254 0 1 0 0 .508.254.254 0 0 0 0-.508zm1.015 0a.254.254 0 1 0 0 .508.254.254 0 0 0 0-.508z" fill="#d5d3cf"/><path d="M7 286.029l.2.613 1.399-1.54-2.033-.646.119.567c-2.005 1.01-2.215 1.895-2.49 2.785l1.082.191c.256-1.08.93-1.631 1.723-1.97zM9.432 291.135l-.2-.613-1.399 1.54 2.033.646-.119-.567c2.005-1.01 2.215-1.895 2.49-2.785l-1.082-.191c-.256 1.08-.93 1.631-1.723 1.97z" fill="#33d17a"/></g></svg>