<svg width="64" height="64" version="1.1" viewBox="0 0 16.933 16.933" xmlns="http://www.w3.org/2000/svg" xmlns:xlink="http://www.w3.org/1999/xlink">
 <g transform="matrix(1.04 0 0 1.0427 -.339 -292.39)" stroke-width=".96">
  <rect transform="scale(-1)" x="-15.047" y="-295.13" width="13.195" height="3.501" rx="1.015" ry="1.015" fill="#26a269"/>
  <rect transform="scale(-1)" x="-15.081" y="-294.88" width="13.229" height="4.567" rx="1.018" ry="1.001" fill="#aaa"/>
  <rect transform="scale(-1)" x="-15.081" y="-294.37" width="13.229" height="12.687" rx="1.018" ry="1.03" fill="#f2f2f2"/>
  <text transform="scale(1.0258 .97484)" x="5.297" y="300.405" fill="#4d4d4d" font-family="FreeSans" font-size="5.075" font-weight="700" stroke-width=".281" text-align="center" text-anchor="middle" style="line-height:0%"><tspan x="5.297" y="300.405">A</tspan></text>
  <text transform="scale(.972 1.0288)" x="11.343" y="280.295" fill="#4d4d4d" font-family="FreeSans" font-size="6.428" font-weight="700" stroke-width=".281" text-align="center" text-anchor="middle" style="line-height:0%"><tspan x="11.343" y="280.295" font-size="5.075">𝛀</tspan></text>
  <path d="M2.867 282.697a.254.254 0 1 0 0 .508.254.254 0 0 0 0-.508zm1.015 0a.254.254 0 1 0 0 .508.254.254 0 0 0 0-.508zm1.015 0a.254.254 0 1 0 0 .508.254.254 0 0 0 0-.508zm1.015 0a.254.254 0 1 0 0 .508.254.254 0 0 0 0-.508zm1.015 0a.254.254 0 1 0 0 .508.254.254 0 0 0 0-.508zm1.015 0a.254.254 0 1 0 0 .508.254.254 0 0 0 0-.508zm1.015 0a.254.254 0 1 0 0 .508.254.254 0 0 0 0-.508zm1.015 0a.254.254 0 1 0 0 .508.254.254 0 0 0 0-.508zm1.015 0a.254.254 0 1 0 0 .508.254.254 0 0 0 0-.508zM1.852 282.697a.254.254 0 0 1 .254.254.254.254 0 0 1-.254.254v-.254zM15.047 282.697a.254.254 0 0 0-.254.254.254.254 0 0 0 .254.254v-.254z" fill="#d5d3cf"/>
  <path d="M5.912 282.697a.254.254 0 1 0 0 .508.254.254 0 0 0 0-.508zm1.015 0a.254.254 0 1 0 0 .508.254.254 0 0 0 0-.508zm1.015 0a.254.254 0 1 0 0 .508.254.254 0 0 0 0-.508zm1.015 0a.254.254 0 1 0 0 .508.254.254 0 0 0 0-.508zm1.015 0a.254.254 0 1 0 0 .508.254.254 0 0 0 0-.508zm1.015 0a.254.254 0 1 0 0 .508.254.254 0 0 0 0-.508zm1.015 0a.254.254 0 1 0 0 .508.254.254 0 0 0 0-.508zm1.015 0a.254.254 0 1 0 0 .508.254.254 0 0 0 0-.508zm1.015 0a.254.254 0 1 0 0 .508.254.254 0 0 0 0-.508z" fill="#d5d3cf"/>
  <path d="M7 286.029l.2.613 1.399-1.54-2.033-.646.119.567c-2.005 1.01-2.215 1.895-2.49 2.785l1.082.191c.256-1.08.93-1.631 1.723-1.97zM9.432 291.135l-.2-.613-1.399 1.54 2.033.646-.119-.567c2.005-1.01 2.215-1.895 2.49-2.785l-1.082-.191c-.256 1.08-.93 1.631-1.723 1.97z" fill="#33d17a"/>
 </g>
</svg>
