<svg width="64" height="64" version="1.1" xmlns="http://www.w3.org/2000/svg">
 <rect x="13" y="6" width="38" height="24" rx="4" ry="4" fill="#c6c6c6" style="paint-order:markers stroke fill"/>
 <rect x="6" y="23" width="52" height="35" rx="6" ry="6" fill="#4d4d4d"/>
 <circle cx="47" cy="47" r="16" fill="#51a2da"/>
 <rect x="18" y="14" width="9" height="5" rx="1" ry="1" opacity=".35" style="paint-order:stroke fill markers"/>
 <rect x="37" y="14" width="9" height="5" rx="1" ry="1" opacity=".35" style="paint-order:stroke fill markers"/>
 <path d="M50.878 38.002c2.317 0 4.505 1.777 4.505 4.223 0 .227-.003.453-.04.71a1.15 1.15 0 1 1-2.273-.324c.01-.072.015-.188.015-.386 0-1.387-1.133-1.923-2.207-1.923-1.073 0-2.041.9-2.045 1.92v3.532l1.992-.014c1.554-.033 1.57 2.31.016 2.3l-2.008.01-.014 3.296C48.579 53.93 46.377 56 43.732 56c-2.803 0-5.115-2.294-5.115-5.104.084-2.89 2.394-5.164 5.296-5.137l1.616-.01v2.296l-1.63.014c-1.595.048-2.959 1.13-2.985 2.837a2.803 2.803 0 0 0 2.82 2.804c1.558 0 2.803-1.134 2.803-2.8v-8.687c0-.161.008-.29.027-.468.262-2.126 2.162-3.745 4.314-3.745z" fill="#fff"/>
</svg>
