<svg xmlns="http://www.w3.org/2000/svg" width="64" height="64"><rect width="52" height="52" x="5.998" y="5.998" fill="#498cd8" fill-rule="evenodd" rx="5.998" ry="5.998" style="paint-order:fill markers stroke"/><rect width="46.002" height="5.998" x="8.999" y="50.998" fill-rule="evenodd" opacity=".15" rx="3.001" ry="3.001" style="paint-order:fill markers stroke"/><path fill="#fff" d="M22.854 37q-2.092 0-2.092-2.092V21.337q0-2.065 2.038-2.065h.966v-2.44h-2.897q-1.1 0-1.1-.94 0-.938 1.1-.938H30.98q1.1 0 1.1.939 0 .938-1.1.938h-2.87v2.44h1.047q2.092 0 2.092 2.066v13.571q0 1.02-.537 1.556-.536.536-1.555.536zm-.268-2.628q0 .75.697.75h5.39q.35 0 .537-.187.215-.215.215-.563v-2.334h-6.84zm6.839-4.184v-2.226q-2.119 0-2.468-.188-.429-.268-.429-1.127V21.15h-1.207v2.012q0 1.61-.214 2.601-.215.993-.724 1.476-.644.911-1.797 1.421v1.529zm-6.84-3.219q.832-.777 1.047-1.85t.214-3.111v-.859h-.617q-.643 0-.643.644zm3.916-7.697v-2.44h-1.126v2.44zm1.53 6.41q0 .241.133.402.134.161.376.161h.885v-4.452q0-.644-.697-.644h-.698zm3.7-.67q0-.94 1.154-.94h4.237v-4.237h-2.628q-.939 2.709-1.717 2.709-.482 0-.697-.215-.214-.241-.214-.724 0-.16.214-.67.215-.537.295-.724.697-1.77 1.153-3.863.295-1.26 1.046-1.26.456 0 .67.215.242.214.242.697 0 .456-.456 1.985h2.092V14.82q0-.617.242-.912.241-.295.75-.295.966 0 .966 1.207v3.165h3.245q1.127 0 1.127.911 0 .94-1.127.94H39.08v4.237h3.996q1.154 0 1.154.938 0 .912-1.154.912H32.884q-1.153 0-1.153-.912zm1.368 5.015q0-1.207.537-1.743.536-.537 1.69-.456h5.578q1.26 0 1.824.536.563.536.482 1.743v4.747q0 1.234-.563 1.797-.536.564-1.743.483h-5.579q-1.207 0-1.743-.536-.536-.51-.483-1.663zm1.958 4.345q0 .858.885.858h4.238q.51 0 .778-.215.268-.241.268-.67v-3.701q0-.43-.268-.67-.269-.242-.778-.242h-4.238q-.885 0-.885.885z"/><path fill="#fff" d="M22.98 47.904q-.526 0-.526-.438 0-.21.132-.307.131-.096.447-.105.613-.017.893-.158.29-.14.412-.429.29-.806.517-3.023.008-.131-.061-.201-.062-.079-.193-.079h-3.978q-.298 0-.464-.131-.167-.14-.167-.395 0-.14.053-.306.122-.386.201-.596.158-.473.254-.797.132-.456.43-.456.035 0 .122.018.307.078.307.376 0 .106-.044.263-.175.578-.35.99-.027.062-.027.123 0 .184.228.184h3.916q.35 0 .526.193.175.192.158.543-.088 1.27-.272 2.234-.184.955-.42 1.542-.386.955-2.094.955m6.09-.035q-.132.044-.237.044-.28 0-.386-.263-.017-.07-.017-.105 0-.132.087-.237.097-.114.254-.166.868-.298 1.498-.649.631-.35 1.218-.867l-.534-.43q-.508-.394-.885-.709-.22-.193-.22-.368 0-.131.088-.228.08-.105.237-.105.193 0 .394.15.473.332.798.586.324.245.718.56.771-.805 1.21-1.734.034-.07.034-.131 0-.08-.061-.123-.062-.053-.176-.053h-3.215q-.298 0-.473-.14-.166-.14-.166-.377 0-.14.052-.28l.456-1.393q.131-.43.438-.43.193 0 .298.106.105.105.105.28 0 .088-.027.193-.14.517-.333 1.008-.026.06-.026.113 0 .088.061.14.062.053.176.053h3.303q.298 0 .464.14.167.132.167.36 0 .149-.062.306-.56 1.393-1.594 2.48.324.254.832.71t.745.735q.184.21.184.386 0 .14-.15.271-.148.123-.297.123-.21 0-.394-.21-.404-.447-.71-.719-.298-.28-.832-.71-1.245 1.07-3.023 1.683zm8.883-.114q-.193 0-.298-.131-.105-.123-.105-.36v-5.563q0-.342.176-.517.184-.184.525-.184h5.056q.341 0 .516.184.184.175.184.517v5.563q0 .237-.114.36-.105.131-.306.131-.21 0-.324-.131-.105-.123-.105-.36v-5.239q0-.123-.07-.193t-.193-.07h-4.276q-.122 0-.193.07-.07.07-.07.193v5.24q0 .236-.105.359-.105.131-.297.131z" opacity=".5"/></svg>