<?xml version="1.0" encoding="UTF-8"?>
<svg width="64" height="64" version="1.1" xmlns="http://www.w3.org/2000/svg">
 <path d="m31.999 46.801c-14.44 0-17.246 8.9943-17.793 12.499 0.61228 0.43681 1.3467 0.69004 2.1011 0.69727 0.90111 0.0086 1.5104-0.0082 1.5104-0.0082h28.366s0.60932 0.0168 1.5104 0.0082c0.75315-0.0072 1.4867-0.25909 2.0984-0.69453-0.54497-3.5028-3.3466-12.502-17.793-12.502z" fill="#765338"/>
 <path d="m3.0552 25.629c-0.09753 0.57039-0.064152 1.1676 0.12137 1.7445l0.71745 2.234 8.1428 25.282 0.41267 1.2824 0.70397 1.9633c0.45373 0.8103 1.2003 1.3917 2.0499 1.6707l16.795-13.005z" fill="#b7835a"/>
 <path d="m60.802 25.066-28.803 21.736 16.798 13.005c0.79751-0.26194 1.5017-0.79138 1.9609-1.5258l1.6156-4.6649 7.7329-24.008 0.71745-2.234c0.2478-0.77055 0.22624-1.578-0.02158-2.3078z" fill="#5b422d"/>
 <path d="m33.329 47.83-1.3304 1.03-1.3315-1.03c0-1.03 1.331-1.03 1.331-1.03s1.331 0 1.331 1.03z" fill="#72b147"/>
 <path d="m59.925 23.655c-26.274 1.468-27.927 23.147-27.927 23.147l1.3324 1.0309 3.3553-0.53867 3.358-4.6594 3.3553-0.53867 3.358-4.6594 3.358-0.53867 3.3553-4.6594 3.358-0.53868 3.9487-4.1809 0.04584-0.14492c0.42612-1.325 0.062-2.7602-0.89816-3.7188z" fill="#5a9a30"/>
 <path d="m3.6701 24.133c-0.65011 0.92292-0.85351 2.121-0.49359 3.2402l0.31557 0.98164 3.6763 3.3414 3.358 0.53868 3.3553 4.6594 3.358 0.53867 3.358 4.6594 3.3553 0.53868 3.358 4.6594 3.3553 0.53867 1.3324-1.0309s-1.9423-21.276-28.329-22.665z" fill="#88b858"/>
 <path d="m31.999 4c-0.75932-6.4e-5 -1.5062 0.23996-2.1308 0.69727l-25.375 18.597c-0.78109 0.57222-1.2776 1.4174-1.4349 2.3324l28.941 21.172 28.803-21.736c-0.23599-0.69346-0.67674-1.3165-1.2947-1.7691l-25.378-18.597c-0.62455-0.45731-1.3715-0.69733-2.1308-0.69727z" fill="#6da843"/>
</svg>
