<svg width="64" height="64" version="1.1" xmlns="http://www.w3.org/2000/svg">
 <rect x="4" y="4" width="44" height="50" rx="8" ry="8" fill="#35383b" stroke-linecap="round" stroke-linejoin="round"/>
 <path d="m4 13h44v2h-44z" fill="#3daee9" stroke-width="1.7728"/>
 <rect x="40" y="7" width="4" height="4" rx="2" fill="#eff0f1" stroke-width="2"/>
 <g fill="#95a5a6" stroke-width="2">
  <path d="m27 20h4v2h-4zm6 0h6v2h-6z"/>
  <path d="m27 24h8v2h-8zm10 0h4v2h-4z"/>
  <path d="m27 36h4v2h-4zm6 0h6v2h-6z"/>
  <path d="m27 40h6v2h-6z"/>
  <rect x="7" y="20" width="6" height="2"/>
  <rect x="17" y="20" width="7.2713" height="2"/>
  <rect x="7" y="24" width="16" height="2"/>
  <rect x="7" y="36" width="6" height="2"/>
  <rect x="17" y="36" width="4.5545" height="1.8728"/>
  <rect x="7" y="40" width="16" height="2"/>
 </g>
 <path d="m44 22c-5.54 0-10 4.46-10 10v5h-2c-2.216 0-4 1.784-4 4v15c0 2.216 1.784 4 4 4h24c2.216 0 4-1.784 4-4v-15c0-2.216-1.784-4-4-4h-2v-5c0-5.54-4.46-10-10-10zm0 6c2.216 0 4 1.784 4 4v5h-8v-5c0-2.216 1.784-4 4-4z" fill="#3daee9" stroke-linecap="round" stroke-linejoin="round"/>
 <path d="m57.547 37.307c-5.0249 3.1115-11.606 3.9829-17.453 4.4961-5.9554 0.44635-9.7547 3.1581-12.094 6.4199v7.7773c0 2.216 1.784 4 4 4h0.61133c3.0192-1.7339 5.2597-1.5616 8.9922-1.4414 5.0762 0.17167 10.682-2.0269 13.436-4.9453 2.7538-2.9185-0.24847-0.68536-3.3672 0.13867-3.1187 0.82403-9.1574 0.90926-13.205-0.18945 12.707 0.17167 17.667-4.0682 20.471-7.8965 2.8035-3.8112-1.21-0.66954-3.8145 0.65234-2.6045 1.3219-7.1503 2.2472-12.16 1.5605 7.4957-0.017017 13.215-3.8603 16.918-7.8555-0.30694-1.2328-1.1818-2.2362-2.334-2.7168zm2.4336 3.293v15.801c0.012919-0.1314 0.019531-0.26548 0.019531-0.40039v-15c0-0.13491-0.006612-0.26899-0.019531-0.40039z" fill="#fff" stroke-width="2.0813"/>
</svg>
