<svg width="64" height="64" version="1.1" viewBox="0 0 16.933 16.933" xmlns="http://www.w3.org/2000/svg">
 <defs>
  <linearGradient id="a-3" x1="47" x2="59.998" y1="41" y2="53.978" gradientTransform="matrix(.26458 0 0 .26458 -.004 .27)" gradientUnits="userSpaceOnUse">
   <stop offset="0"/>
   <stop stop-color="#242424" stop-opacity="0" offset="1"/>
  </linearGradient>
 </defs>
 <rect x="1.058" y="2.381" width="14.816" height="12.171" rx="1.372" ry="1.323" fill="#72787e"/>
 <rect x="5.292" y="8.99" width="4.233" height=".529" ry=".265" fill="#ffffff" paint-order="stroke markers fill"/>
 <path d="m3.973 4.19a0.264 0.264 0 0 0-0.262 0.13 0.264 0.264 0 0 0 0.097 0.362l2.842 1.64-2.842 1.641a0.264 0.264 0 0 0-0.097 0.362c0.074 0.127 0.235 0.17 0.362 0.097l3.207-1.852a0.26 0.26 0 0 0 0.127-0.225c2e-3 -8e-3 1e-3 -0.015 2e-3 -0.022 0-8e-3 0-0.015-2e-3 -0.023a0.26 0.26 0 0 0-0.127-0.224l-3.207-1.853a0.266 0.266 0 0 0-0.1-0.033z" fill="#ffffff" paint-order="stroke markers fill"/>
 <path d="m15.872 9.215-5.337 5.337h4.767c0.316 0 0.57-0.238 0.57-0.535z" fill="url(#a-3)" opacity=".15"/>
 <g transform="translate(2.0401 -279.43)" paint-order="stroke markers fill">
  <circle cx="11.718" cy="291.87" r="3.175" fill="#cccccc"/>
  <circle cx="11.718" cy="291.87" r="1.588" opacity=".15"/>
  <g fill="#ffffff">
   <path d="m11.718 290.52a1.343 1.343 0 0 0-1.343 1.344 1.343 1.343 0 0 0 1.343 1.343 1.343 1.343 0 0 0 1.343-1.343 1.343 1.343 0 0 0-1.343-1.344zm0 0.61a0.733 0.733 0 0 1 0.733 0.734 0.733 0.733 0 0 1-0.733 0.732 0.733 0.733 0 0 1-0.733-0.732 0.733 0.733 0 0 1 0.733-0.733z"/>
   <path d="m11.474 289.97h0.488v0.854h-0.488zm0 2.93h0.488v0.855h-0.488zm2.137-1.282v0.489h-0.855v-0.489zm-2.931 0v0.489h-0.855v-0.489zm2.55 1.41-0.346 0.346-0.604-0.605 0.345-0.345zm-2.073-2.072-0.345 0.345-0.605-0.604 0.345-0.345zm-0.605 2.418-0.345-0.346 0.605-0.604 0.345 0.345zm2.073-2.073-0.345-0.345 0.604-0.604 0.345 0.345z"/>
  </g>
 </g>
</svg>
