<svg xmlns="http://www.w3.org/2000/svg" width="64" height="64" viewBox="0 0 16.933 16.933"><defs><linearGradient id="a" x1="47" x2="59.998" y1="41" y2="53.978" gradientTransform="translate(-.004 .27)scale(.26458)" gradientUnits="userSpaceOnUse"><stop offset="0"/><stop offset="1" stop-color="#242424" stop-opacity="0"/></linearGradient></defs><rect width="14.816" height="12.171" x="1.058" y="2.381" fill="#72787e" rx="1.372" ry="1.323"/><rect width="4.233" height=".529" x="5.292" y="8.99" fill="#fff" paint-order="stroke markers fill" ry=".265"/><path fill="#fff" d="M3.973 4.19a.26.26 0 0 0-.262.13.264.264 0 0 0 .097.362l2.842 1.64-2.842 1.641a.264.264 0 0 0-.097.362c.074.127.235.17.362.097L7.28 6.57a.26.26 0 0 0 .127-.225l.002-.022-.002-.023a.26.26 0 0 0-.127-.224L4.073 4.223a.3.3 0 0 0-.1-.033" paint-order="stroke markers fill"/><path fill="url(#a)" d="m15.872 9.215-5.337 5.337h4.767c.316 0 .57-.238.57-.535z" opacity=".15"/><g paint-order="stroke markers fill" transform="translate(2.04 -279.43)"><circle cx="11.718" cy="291.87" r="3.175" fill="#ccc"/><circle cx="11.718" cy="291.87" r="1.588" opacity=".15"/><g fill="#fff"><path d="M11.718 290.52a1.343 1.343 0 0 0-1.343 1.344 1.343 1.343 0 0 0 1.343 1.343 1.343 1.343 0 0 0 1.343-1.343 1.343 1.343 0 0 0-1.343-1.344m0 .61a.733.733 0 0 1 .733.734.733.733 0 0 1-.733.732.733.733 0 0 1-.733-.732.733.733 0 0 1 .733-.733z"/><path d="M11.474 289.97h.488v.854h-.488zm0 2.93h.488v.855h-.488zm2.137-1.282v.489h-.855v-.489zm-2.931 0v.489h-.855v-.489zm2.55 1.41-.346.346-.604-.605.345-.345zm-2.073-2.072-.345.345-.605-.604.345-.345zm-.605 2.418-.345-.346.605-.604.345.345zm2.073-2.073-.345-.345.604-.604.345.345z"/></g></g></svg>