<svg xmlns="http://www.w3.org/2000/svg" width="64" height="64"><path fill="#d3d3cf" d="m18.386 3.117 39.846 10.677a3.75 3.75 0 0 1 2.651 4.592L50.206 58.232a3.75 3.75 0 0 1-4.592 2.652L5.768 50.207a3.75 3.75 0 0 1-2.651-4.593L13.794 5.768a3.75 3.75 0 0 1 4.592-2.651"/><path fill="#f6f5f4" d="M11.375 7.625h41.25a3.75 3.75 0 0 1 3.75 3.75v41.25a3.75 3.75 0 0 1-3.75 3.75h-41.25a3.75 3.75 0 0 1-3.75-3.75v-41.25a3.75 3.75 0 0 1 3.75-3.75"/><path fill="#8467d0" d="M51.688 11.375H12.313a.937.937 0 0 0-.937.938v30c0 .518.419.937.937.937h39.375c.518 0 .938-.42.938-.938v-30a.937.937 0 0 0-.938-.937"/><path fill="#fff" d="M19.813 25.56c-.96 0-1.92.366-2.653 1.098l-5.785 5.785v9.87c0 .518.42.937.937.937h26.743l-16.59-16.592a3.74 3.74 0 0 0-2.653-1.098z" opacity=".2"/><path fill="#fff" d="M33.406 29.803c-.96 0-1.92.367-2.652 1.1L18.406 43.25h30L36.058 30.902a3.74 3.74 0 0 0-2.652-1.1z" opacity=".1"/><path fill="#fff" d="M41.844 25.906a4.687 4.687 0 1 1 0-9.374 4.687 4.687 0 0 1 0 9.374" opacity=".15"/><path fill="none" stroke="#fff" stroke-linecap="round" stroke-width="1.638" d="m11.891 268.55 15.457-15.457" clip-path="url(#clipPath552)" mask="url(#mask544)" transform="translate(-.813 -70.132)scale(.46875)"/><path fill="none" stroke="#3d3846" stroke-width="3" d="m16.062 46.117-3.75 3.75"/><path fill="none" stroke="#77767b" stroke-linecap="round" stroke-width="6" d="M12.312 49.867 5.749 56.43"/><path fill="#fff" d="M12.342 35.834c0 7.751 6.282 14.034 14.033 14.034s14.033-6.282 14.033-14.034c0-7.75-6.282-14.033-14.033-14.033s-14.033 6.282-14.033 14.033" opacity=".25"/><path fill="none" stroke="#5e5c64" stroke-linejoin="round" stroke-width="2" d="M40.492 35.805c0 7.797-6.32 14.117-14.117 14.117s-14.117-6.32-14.117-14.117 6.32-14.117 14.117-14.117 14.117 6.32 14.117 14.117z"/></svg>