<svg width="64" height="64" version="1.1" viewBox="0 0 16.933 16.933" xmlns="http://www.w3.org/2000/svg">
 <defs>
  <linearGradient id="linearGradient892" x1="-197.72" x2="-197.72" y1="263.86" y2="273.76" gradientTransform="matrix(.18709 -.18709 .18709 .18709 1.1192 -74.45)" gradientUnits="userSpaceOnUse">
   <stop offset="0"/>
   <stop stop-opacity="0" offset="1"/>
  </linearGradient>
 </defs>
 <path d="m7.1442 2.3771-3.7041 0.00103c-0.2936 0-0.39494 0.26797-0.52969 0.52863v0.00362h-0.26458c-0.58631 0-1.0583 0.47201-1.0583 1.0583v7.4082c0 0.58631 0.47201 1.0583 1.0583 1.0583h11.642c0.58631 0 1.0583-0.47201 1.0583-1.0583v-7.4082c0-0.58631-0.47201-1.0583-1.0583-1.0583h-4.4606c-0.012512-8.467e-4 -0.024471-0.00367-0.037205-0.00362h-2.1156c-0.155-0.249-0.23567-0.52969-0.52969-0.52969z" fill="#5294e2" stroke-linecap="round" stroke-linejoin="round" stroke-width=".49262" style="paint-order:stroke fill markers"/>
 <path d="m7.1442 2.3771-3.7041 0.00103c-0.2936 0-0.39494 0.26797-0.52969 0.52863v0.00362h-0.26458c-0.58631 0-1.0583 0.47201-1.0583 1.0583v7.4082c0 0.58631 0.47201 1.0583 1.0583 1.0583h11.642c0.58631 0 1.0583-0.47201 1.0583-1.0583v-7.4082c0-0.58631-0.47201-1.0583-1.0583-1.0583l-6.6134-0.00362c-0.155-0.249-0.23567-0.52969-0.52969-0.52969z" opacity=".18" stroke-linecap="round" stroke-linejoin="round" stroke-width=".49262" style="paint-order:stroke fill markers"/>
 <rect x="2.381" y="3.7" width="12.171" height="5.027" ry=".53326" fill="#ffffff" paint-order="markers stroke fill"/>
 <rect x="3.704" y="2.64" width="3.175" height=".529" ry=".265" opacity=".25" paint-order="stroke markers fill"/>
 <path d="m8.9957 4.2333-0.79374 1.0583h-6.6145c-0.58631 0-1.0583 0.47201-1.0583 1.0583v7.4082c0 0.58631 0.47201 1.0583 1.0583 1.0583h13.758c0.58631 0 1.0583-0.47201 1.0583-1.0583v-8.4666c0-0.58631-0.47201-1.0583-1.0583-1.0583z" fill="#5294e2" stroke-linecap="round" stroke-linejoin="round" stroke-width=".52916" style="paint-order:stroke fill markers"/>
 <path d="m16.404 10.583-4.2333 4.2333h3.175c0.58631 0 1.0583-0.47201 1.0583-1.0583z" fill="url(#linearGradient892)" opacity=".2" stroke-linecap="round" stroke-linejoin="round" stroke-width=".52916" style="paint-order:stroke fill markers"/>
 <rect x="10.318" y="4.762" width="4.2333" height=".52916" ry=".26508" opacity=".25" stroke-width="1.0329" style="paint-order:stroke markers fill"/>
 <path transform="scale(.26458)" d="m21 23.004c-1.1077 0-2 0.89233-2 2v3.002h26v-3.002c0-1.1077-0.89233-2-2-2h-22zm1.002 1.9961a1.0016 1.0016 0 0 1 1 1.002 1.0016 1.0016 0 0 1-1 1.002 1.0016 1.0016 0 0 1-1.002-1.002 1.0016 1.0016 0 0 1 1.002-1.002zm-3.002 4.002v5.002h26v-5.002h-26zm3.002 2a1.0016 1.0016 0 0 1 1 1.002 1.0016 1.0016 0 0 1-1 1.002 1.0016 1.0016 0 0 1-1.002-1.002 1.0016 1.0016 0 0 1 1.002-1.002zm-3.002 4.002v5.002h26v-5.002h-26zm3.002 1.9961a1.0016 1.0016 0 0 1 1 1.002 1.0016 1.0016 0 0 1-1 1.002 1.0016 1.0016 0 0 1-1.002-1.002 1.0016 1.0016 0 0 1 1.002-1.002zm-3.002 4.002v5.002h26v-5.002h-26zm3.002 2a1.0016 1.0016 0 0 1 1 1.002 1.0016 1.0016 0 0 1-1 1.002 1.0016 1.0016 0 0 1-1.002-1.002 1.0016 1.0016 0 0 1 1.002-1.002zm-3.002 4.0039v4.002c0 1.1077 0.89233 2 2 2h22c1.1077 0 2-0.89233 2-2v-4.002h-26zm3.002 1.9941a1.0016 1.0016 0 0 1 1 1.002 1.0016 1.0016 0 0 1-1 1.002 1.0016 1.0016 0 0 1-1.002-1.002 1.0016 1.0016 0 0 1 1.002-1.002z" fill="#000000" opacity=".15" style="paint-order:markers stroke fill"/>
</svg>
