<svg width="64" height="64" version="1.1" xmlns="http://www.w3.org/2000/svg">
 <circle cx="32" cy="32" r="27" fill="#ffe287" stroke-width=".9" style="paint-order:stroke markers fill"/>
 <rect x="18" y="11" width="28" height="42" ry="3" fill="#da8d25" style="paint-order:stroke fill markers"/>
 <path d="m29 40c-1.108 0-2 0.892-2 2v6c0 1.108 0.892 2 2 2h6c1.108 0 2-0.892 2-2v-6c0-1.108-0.892-2-2-2h-6zm5 1a1 1 0 0 1 1 1 1 1 0 0 1-1 1 1 1 0 0 1-1-1 1 1 0 0 1 1-1zm-3 2a2 2 0 0 1 2 2 2 2 0 0 1-2 2 2 2 0 0 1-2-2 2 2 0 0 1 2-2z" fill="#ffb22b" style="paint-order:stroke fill markers"/>
 <path d="m21 14v20h22v-20zm2 2h18v16h-18z" fill="#fff" stroke-width="1.8257"/>
 <path d="m31 14v18h-4v5h10v-5h-4v-18z" fill="#ccc" stroke-width="1.7303"/>
</svg>
