<svg width="64" height="64" version="1.1" viewBox="0 0 64 64" xmlns="http://www.w3.org/2000/svg">
 <path d="m18.386 3.1169 39.846 10.677c1.9995 0.5365 3.1879 2.5928 2.6514 4.5923l-10.677 39.846c-0.5365 1.9995-2.5928 3.1879-4.5923 2.6514l-39.846-10.677c-1.9995-0.5365-3.1879-2.5928-2.6514-4.5923l10.677-39.846c0.5365-1.9995 2.5928-3.186 4.5923-2.6514z" fill="#d3d3cf"/>
 <path d="m11.375 7.625h41.25c2.0709 0 3.75 1.6791 3.75 3.75v41.25c0 2.0709-1.6791 3.75-3.75 3.75h-41.25c-2.0709 0-3.75-1.6791-3.75-3.75v-41.25c0-2.0709 1.6791-3.75 3.75-3.75z" fill="#f6f5f4"/>
 <path d="m51.688 11.375h-39.375c-0.51819 0-0.9375 0.41931-0.9375 0.9375v30c0 0.51819 0.41931 0.9375 0.9375 0.9375h39.375c0.51819 0 0.9375-0.41931 0.9375-0.9375v-30c0-0.51819-0.41931-0.9375-0.9375-0.9375z" fill="#8467d0" stroke-width=".46875"/>
 <path transform="matrix(.46875 0 0 .46875 -1.75 -5.5)" d="m46 66.262c-2.0469 0-4.0958 0.77917-5.6583 2.3417l-12.342 12.342v21.054c0 1.1055 0.89453 2 2 2h57.05l-35.392-35.396c-1.5625-1.5625-3.6115-2.3417-5.6583-2.3417z" fill="#ffffff" opacity=".2"/>
 <path transform="matrix(.46875 0 0 .46875 -1.75 -5.5)" d="m75 75.312c-2.0469 0-4.0958 0.78334-5.6583 2.3458l-26.342 26.342h64l-26.342-26.342c-1.5625-1.5625-3.6115-2.3458-5.6583-2.3458z" fill="#ffffff" opacity=".1"/>
 <path transform="matrix(.46875 0 0 .46875 -1.75 -5.5)" d="m93 67c-5.5234 0-10-4.4766-10-10s4.4766-10 10-10 10 4.4766 10 10-4.4766 10-10 10z" fill="#ffffff" opacity=".15"/>
 <path transform="matrix(.46875 0 0 .46875 -.8125 -70.132)" d="m11.891 268.55 15.457-15.457" clip-path="url(#clipPath552)" fill="none" mask="url(#mask544)" stroke="#ffffff" stroke-linecap="round" stroke-width="1.6378"/>
 <path d="m16.062 46.117-3.75 3.75" fill="none" stroke="#3d3846" stroke-width="3"/>
 <path d="m12.312 49.867-6.5625 6.5625" fill="none" stroke="#77767b" stroke-linecap="round" stroke-width="6"/>
 <path transform="matrix(.46875 0 0 .46875 -1.75 -5.5)" d="m30.062 88.18c0 16.535 13.402 29.938 29.938 29.938s29.938-13.402 29.938-29.938c0-16.535-13.402-29.938-29.938-29.938s-29.938 13.402-29.938 29.938z" fill="#ffffff" opacity=".25"/>
 <path d="m40.492 35.805c0 7.7966-6.3208 14.117-14.117 14.117s-14.117-6.3208-14.117-14.117c0-7.7966 6.3208-14.117 14.117-14.117s14.117 6.3208 14.117 14.117z" fill="none" stroke="#5e5c64" stroke-linejoin="round" stroke-width="2"/>
</svg>
