<svg xmlns="http://www.w3.org/2000/svg" width="64" height="64"><path fill="#f6f5f4" d="m54.509 49.234-18.043 10.43a9.05 9.05 0 0 1-9.035.01L9.63 49.458a9.05 9.05 0 0 1-4.544-7.81L5 22.587a9.05 9.05 0 0 1 4.475-7.85L27.184 4.364a9.05 9.05 0 0 1 9.035-.064l18.132 10.27a8.99 8.99 0 0 1 4.56 7.784l.088 19.06a8.99 8.99 0 0 1-4.49 7.82"/><path fill="#ffa348" d="M31.997 17.949c-6.76 0-13.517 2.572-18.66 7.715a2.47 2.47 0 0 0 0 3.498 2.473 2.473 0 0 0 3.5 0 21.4 21.4 0 0 1 30.32 0 2.475 2.475 0 0 0 3.5-3.498c-5.142-5.143-11.9-7.715-18.66-7.715m0 9.897c-4.227 0-8.453 1.605-11.663 4.815a2.47 2.47 0 0 0 0 3.498 2.473 2.473 0 0 0 3.5 0 11.507 11.507 0 0 1 16.327 0 2.473 2.473 0 0 0 3.498 0 2.47 2.47 0 0 0 0-3.498c-3.21-3.21-7.436-4.815-11.662-4.815m.079 9.965a4.33 4.33 0 0 0 0 8.66 4.33 4.33 0 0 0 0-8.66"/></svg>