<svg width="64" height="64" version="1.1" viewBox="0 0 64 64" xmlns="http://www.w3.org/2000/svg">
 <rect x="12" y="10" width="46" height="44" rx="4" ry="4" fill="#407fdf"/>
 <rect x="7" y="8" width="46" height="48" rx="4" ry="4" fill="#af58b9"/>
 <rect x="6" y="6" width="42" height="52" rx="6" ry="6" fill="#f44040" stroke-width="3.7796" style="paint-order:stroke fill markers"/>
 <path d="m48 18-12-12v7.5029c0 2.4952 2.0066 4.4971 4.5007 4.4971z" fill="#f9f9f9" stroke-width="5.6698" style="paint-order:stroke fill markers"/>
 <path d="m12 17h16c0.83008 0 1.5 0.67187 1.5 1.5s-0.66992 1.5-1.5 1.5h-16c-0.82812 0-1.5-0.67187-1.5-1.5s0.67187-1.5 1.5-1.5z" fill="#fff" stroke-width=".5"/>
 <path d="m11.5 23h6.998c0.55273 0 1 0.44726 1 1 0 0.55273-0.44726 1-1 1h-6.998c-0.55078 0-1-0.44726-1-1 0-0.55273 0.44922-1 1-1z" fill="#fff" opacity=".5" stroke-width=".5"/>
 <path d="m11.498 32c-0.55274 0-1 0.44727-1 1 0 0.55274 0.44727 1 1 1h30c0.55274 0 1-0.44727 1-1 0-0.55274-0.44727-1-1-1zm0 5c-0.55274 0-1 0.44727-1 1 0 0.55274 0.44727 1 1 1h30c0.55274 0 1-0.44727 1-1 0-0.55274-0.44727-1-1-1zm0 5c-0.55274 0-1 0.44726-1 1s0.44727 1 1 1h6.5v-2zm0 5c-0.55274 0-1 0.44727-1 1 0 0.55274 0.44727 1 1 1h6.5v-2z" opacity=".2"/>
 <path d="m11.449 34.244c-0.5789-0.11587-1.2019-0.01162-1.7285 0.33984-1.057 0.70377-1.3628 2.1328-0.69141 3.209l6.5449 10.473 0.84766-0.53125-6.5449-10.471c-0.39111-0.62692-0.21647-1.4382 0.39844-1.8477 0.60308-0.40253 1.4038-0.24228 1.8066 0.36133l1 1.5 0.83203-0.55469-1-1.5c-0.35127-0.52631-0.88594-0.86265-1.4648-0.97852z" fill="#fff" stop-color="#000000"/>
 <path d="m26.887 40.5-0.46875 0.02344c-0.5664 0.34184-1.5195 0.78516-2.541 1.3184-0.4649 0.18359-1.1563 0.19336-1.9336 0.13086-0.791-0.10547-1.541-0.32226-2.125-0.66602-0.36524-0.25195-0.66993-0.45898-0.81055-0.61524-0.08789-0.09961-0.47461 0.05469-0.96094 0.32031-0.01665 9e-3 -0.03262 0.018-0.04883 0.02734v1.4258c0.24961 0.20239 0.53445 0.397 0.83789 0.58398 0.8418 0.48243 1.8398 0.78125 2.873 0.91016 1.0098 0.10157 1.9844 0.06446 2.7852-0.21484 1.0938-0.4785 2.1152-1.0313 2.7461-1.6504l6.3145-0.23633c0.7324 0.55855 1.7968 0.99023 2.9648 1.3691 0.9003 0.23047 1.8926 0.26758 2.877 0.14844 0.9648-0.14063 1.8633-0.39844 2.5566-0.83203 0.40624-0.27149 0.77148-0.56641 1.0078-0.86719 0.01759-0.02259 0.03001-0.04694 0.03711-0.07227v-0.11719c-0.04985-0.20636-0.3397-0.45448-0.7168-0.62695-0.35329-0.16221-0.64133-0.30454-0.79688-0.35938h-0.14062c-0.07489 0.06491-0.23705 0.17881-0.41992 0.32617-0.4042 0.27539-1.0449 0.44336-1.7812 0.56445-0.7578 0.08789-1.502 0.06445-2.1387-0.10352-0.75844-0.287-1.4522-0.54162-2.0156-0.78711h-8.1016zm6.1504 2.6504-5.1816 0.12109c-0.6757 0.8261-1.748 1.4629-2.8984 1.8984-1.0508 0.35157-2.2383 0.41016-3.4238 0.2793-1.2168-0.14839-2.4004-0.50781-3.4336-1.0938-0.03408-0.01996-0.06778-0.0402-0.10156-0.06055v2.2441c1.0469 0.46516 2.1658 0.76283 3.2988 0.89648 1.4199 0.16992 2.8925 0.08398 4.2773-0.36328 1.2246-0.3789 2.3633-1.127 3.1016-2.2305l3.6719 0.0332c0.9258 0.90034 2.1113 1.457 3.3242 1.748 1.3633 0.33985 2.7871 0.40039 4.1719 0.22266 1.0824-0.13819 2.1574-0.42849 3.1543-0.90039v-2.2969c-0.08942 0.06191-0.18073 0.12186-0.27344 0.17969-0.9101 0.55664-2.0019 0.88086-3.1367 1.0332-1.1562 0.14648-2.332 0.09765-3.4316-0.17969-1.1875-0.3417-2.3027-0.82617-3.1191-1.5312zm-3.5391 3.2617c-0.8007 1.3809-2.0078 2.2383-3.3066 2.5625-1.7187 0.54297-3.4746 0.65625-5.1289 0.44531-1.0373-0.118-2.0678-0.35877-3.0645-0.72461v2.3047h10.312c0.88081-0.49793 1.6693-1.34 2.2676-2.5234l0.17383 0.39062c1.0066 1.1513 2.1288 1.8459 3.2266 2.1328h8.666c0.11779-0.03318 0.23572-0.06708 0.35352-0.10352v-2.7812c-0.95226 0.3628-1.9297 0.59679-2.9004 0.71484-1.6132 0.21093-3.2832 0.13476-4.9102-0.26758-1.2402-0.2402-2.4922-0.86719-3.5293-1.9629l-2.1602-0.1875z" opacity=".2" stroke-width=".5"/>
 <path d="m45.498 34v13.5h-1v-13.5c0-0.27539-0.22461-0.5-0.5-0.5s-0.5 0.22461-0.5 0.5v2.5h-1v-2.5c0-0.82812 0.67187-1.5 1.5-1.5 0.82812 0 1.5 0.67187 1.5 1.5z" fill="#fff" stroke-width=".5"/>
 <path d="m22.998 52.324c-1.834 0-3.4961-0.76758-4.6797-2h-2.8203v-3h1.1777c-0.11523-0.48047-0.17773-0.98242-0.17773-1.5 0-3.5762 2.9219-6.5 6.5-6.5 3.834 0 6.207 3.0469 6.4707 6.0039 0.04883 0.54883 0.45508 0.99609 1.0059 0.99609h0.04687c0.55078 0 0.95703-0.44726 1.0059-0.99609 0.26367-2.957 2.6367-6.0039 6.4707-6.0039 3.5781 0 6.5 2.9238 6.5 6.5 0 0.51758-0.0625 1.0195-0.17774 1.5h1.1777v3h-2.8203c-1.1836 1.2324-2.8457 2-4.6797 2s-3.4961-0.76758-4.6797-2h-5.6406c-1.1836 1.2324-2.8457 2-4.6797 2zm0-2c2.498 0 4.5-2.002 4.5-4.5 0-2.4961-2.002-4.5-4.5-4.5s-4.5 2.0039-4.5 4.5c0 2.498 2.002 4.5 4.5 4.5zm15 0c2.498 0 4.5-2.002 4.5-4.5 0-2.4961-2.002-4.5-4.5-4.5s-4.5 2.0039-4.5 4.5c0 2.498 2.002 4.5 4.5 4.5z" fill="#fff" stroke-width=".5"/>
 <path d="m36 6 12 12v-6c0-3.3235-2.6748-5.9992-5.998-6h-0.001953-6z" fill="#ececec" opacity=".5" style="paint-order:stroke fill markers"/>
</svg>
