<svg xmlns="http://www.w3.org/2000/svg" width="64" height="64" version="1"><path fill="#22759b" d="M56.321 11.786A2.673 2.673 0 0 1 59 14.464v31.844A2.684 2.684 0 0 1 56.32 49h-7.554s-1.339-.013-1.339 1.326v6.51c.001 2.13-1.376 3.462-2.477 2.396l-6.718-6.4-3.127-3.023c-.672-.859-1.09-.809-2.115-.809H13.678a2.684 2.684 0 0 1-2.679-2.692V14.464a2.673 2.673 0 0 1 2.679-2.678z"/><path fill="#38e0e4" d="M7.679 6A2.673 2.673 0 0 0 5 8.678v31.63A2.684 2.684 0 0 0 7.679 43h7.553s1.34-.013 1.34 1.326v6.51c-.002 2.13 1.376 3.462 2.477 2.396l6.717-6.4 3.127-3.023c.673-.859 1.092-.809 2.117-.809h19.312A2.684 2.684 0 0 0 53 40.308V8.678A2.673 2.673 0 0 0 50.322 6z"/><rect width="36" height="4" x="11" y="15" fill="#fff" fill-rule="evenodd" rx="2" ry="2" style="paint-order:stroke fill markers"/><rect width="31" height="4" x="11" y="23" fill="#fff" fill-rule="evenodd" rx="2" ry="2" style="paint-order:stroke fill markers"/><rect width="26" height="4" x="11" y="31" fill="#fff" fill-rule="evenodd" rx="2" ry="2" style="paint-order:stroke fill markers"/></svg>