<svg width="64" height="64" version="1.1" viewBox="0 0 64 64" xmlns="http://www.w3.org/2000/svg">
 <defs>
  <linearGradient id="c" x1="72.839" x2="98.156" y1="52.81" y2="24.853" gradientTransform="matrix(.40211 -.40109 .36414 .40408 -16.475 55.144)" gradientUnits="userSpaceOnUse">
   <stop stop-color="#3f3f3f" offset="0"/>
   <stop stop-color="#232629" offset="1"/>
  </linearGradient>
 </defs>
 <rect x="6" y="6" width="52" height="52" rx="8" ry="8" fill="#379cd6" stroke-width="4.9134" paint-order="stroke fill markers"/>
 <path d="m52.871 39.496c-0.26775-1.5959-0.2841-3.3667-1.3242-5.7935-1.0403-2.4269-2.265-4.2512-3.8407-5.7969-1.5761-1.546-3.3742-2.7217-5.6352-3.536-2.2611-0.81445-4.9201-1.2269-6.4973-1.667-1.5769-0.44004-2.0633-0.90591-2.348-1.4736-0.28471-0.56757-0.36759-1.2381-0.27301-1.854 0.09438-0.61593 0.3672-1.1835 0.58083-1.5757 0.21383-0.39216 0.37159-0.61525 0.23986-0.76082-0.13173-0.14557-0.55236-0.21587-1.215 0.16693-0.66273 0.3828-1.5657 1.2182-2.1046 1.9024-0.53881 0.68428-0.71012 1.2133-1.0053 1.7535-0.29495 0.54017-0.71041 1.0845-1.1969 1.5211-0.48645 0.43643-1.0382 0.75887-2.2601 1.3891-1.222 0.63036-3.1084 1.5653-4.9976 2.6979-1.8889 1.1329-3.7787 2.4626-5.4771 3.8789-1.6984 1.4163-3.2047 2.9189-4.2536 4.2265-1.0488 1.3075-1.6395 2.4192-1.9973 3.4294-0.35784 1.0103-0.48206 1.9179-0.36203 2.4845 0.12012 0.5666 0.4844 0.79076 2.8137 0.30353 2.3293-0.48723 6.6273-1.6874 9.2663-2.3448 2.6392-0.65766 1.031-3.3758 1.7869-3.6308 0.75566-0.25497 3.8815 1.9516 4.7447 1.6128 0.86301-0.33873 2.0706-0.62617 3.2903-0.91264 1.2197-0.28637 2.46-0.57371 3.123-0.8283 0.66322-0.25448 0.75546-0.47748 2.2832-0.53091 1.5279-0.05353 4.4914 0.06084 6.5339 0.34312 2.0425 0.28218 3.1632 0.73226 3.9382 1.2494 0.77496 0.51716 1.2043 1.1017 1.616 1.5407 0.41186 0.43906 0.80558 0.73177 1.3914 1.2915 0.5858 0.55967 1.3618 1.3849 1.9555 2.6389 0.5937 1.254 1.0036 2.9349 1.258 3.2528 0.25439 0.31796-0.46814-1.958-0.26807-2.575 0.19988-0.6172 0.50195-0.80694 0.23401-2.4028z" fill="#eff0f1" stroke-width=".97504"/>
 <path d="m54.203 41.607c0.37886-0.52407 0.9045-1.2889 0.82352-1.5609-0.08103-0.27203-0.76744-0.05151-1.4146-1.1232-0.64717-1.0718-1.2525-3.4314-2.1739-5.5344-0.92134-2.1032-2.1539-3.9392-3.7298-5.4851-1.5761-1.546-3.3741-2.7216-5.6351-3.536-2.261-0.81444-4.9202-1.2269-6.4972-1.6669-1.5769-0.44001-2.0633-0.90588-2.348-1.4736-0.28473-0.56761-0.36753-1.2381-0.27308-1.854 0.09446-0.61598 0.36723-1.1836 0.58092-1.5758 0.21377-0.39216 0.37159-0.61518 0.23989-0.76081s-0.55239-0.21584-1.2151 0.16697c-0.66273 0.38276-1.5657 1.2182-2.1045 1.9024-0.53884 0.68427-0.71014 1.2133-1.0053 1.7535-0.29505 0.54006-0.71046 1.0845-1.197 1.521-0.48647 0.43644-1.0382 0.75891-2.2601 1.3892-1.222 0.63031-3.1085 1.5653-4.9976 2.698-1.8889 1.1328-3.7787 2.4625-5.4771 3.8788-1.6984 1.4163-3.2048 2.9189-4.2535 4.2264-1.0488 1.3074-1.6395 2.4192-1.9974 3.4294-0.35772 1.0103-0.48203 1.918-0.36194 2.4845 0.12005 0.5666 0.48439 0.79069 1.1865 0.45008 0.70209-0.34061 1.7391-1.2443 2.6553-1.995 0.91627-0.75061 1.7115-1.3478 2.5976-1.807 0.88607-0.45928 1.8643-0.78135 2.7212-0.96654 0.85693-0.18523 1.5936-0.23378 1.9941-0.07836 0.40042 0.1555 0.46498 0.5158 0.49735 0.69628 0.03237 0.18056 0.0033 0.79756 0.10616 0.95697 0.10285 0.15937 0.30775 0.47674 1.0707 0.46795 0.76297-0.0088 11.533-3.2702 12.196-3.5247 0.66312-0.25455 0.75568-0.47815 1.0325-1.1776 0.27684-0.69946 0.74268-1.8864 1.3054-2.7571 0.56267-0.87077 1.2283-1.4362 1.8268-1.7071 0.59864-0.27079 1.1382-0.25146 1.809-0.13743 0.67077 0.11394 1.4785 0.32333 2.0992 0.63398 0.62061 0.31069 1.0578 0.72375 1.2926 1.1104 0.2348 0.38654 0.26672 0.7464 0.04592 1.0976-0.22072 0.35123-0.68996 0.68961-1.064 0.80057-0.37406 0.11101-0.64435-0.0095-1.091-0.05426-0.44668-0.04482-1.0671-0.01302-1.7579 0.29958-0.69077 0.31251-1.5887 1.1052-1.4325 1.3851 6.4134-0.08005 12.125 3.6309 13.652 7.039 0.49059 1.0946 1.0036 2.9349 1.258 3.2528 0.25435 0.31792 0.35252-0.72708 0.51812-1.3916 0.16553-0.66447 0.39871-0.94908 0.77758-1.4732z" fill="url(#c)" stroke-width=".55546"/>
 <path d="m20.656 27.516 1.6991 3.5106 3.5106-1.6991-1.6992-3.5106zm5.2659-2.5488 1.6991 3.5107 3.5106-1.6992-1.6991-3.5105zm-3.9635 3.0017 1.7554-0.84955 0.84955 1.7553-1.7553 0.84955zm5.266-2.5488 1.7553-0.84955 0.84955 1.7554-1.7553 0.84955zm-4.0197 7.3617 1.6991 3.5106 3.5106-1.6992-1.6991-3.5105zm5.2659-2.5488 0.84955 1.7554 1.7553-0.84955-0.84955-1.7553zm-3.9635 3.0017 1.7554-0.84955 0.84955 1.7553-1.7553 0.84955z" color="#232629" fill="#eff0f1" stroke-width="1.9501"/>
 <path d="m14 10c-2.216 0-4 1.784-4 4v5h3v-5c0-0.554 0.446-1 1-1h5v-3h-5zm31 0v3h5c0.554 0 1 0.446 1 1v5h3v-5c0-2.216-1.784-4-4-4h-5zm-35 35v5c0 2.216 1.784 4 4 4h5v-3h-5c-0.554 0-1-0.446-1-1v-5h-3zm41 0v5c0 0.554-0.446 1-1 1h-5v3h5c2.216 0 4-1.784 4-4v-5h-3z" fill="#da4453"/>
</svg>
