<svg xmlns="http://www.w3.org/2000/svg" width="64" height="64" viewBox="0 0 16.933 16.933"><path fill="#725136" d="M2.422 11.214H14.51v.55l-6.045 3.022-6.044-3.023z"/><path fill="#e4bc71" d="M3.52 7.367h9.892v1.649l-.55.275.55.274v5.495H3.521V9.565l.55-.274-.55-.275z"/><path fill="#a6744a" d="M5.719 1.323c-.304 0-.402.284-.55.55L2.422 6.817l6.044.55 6.045-.55-2.748-4.946c-.147-.265-.246-.55-.55-.55a.548.548 0 0 0-.388.162L8.855 3.36a.548.548 0 0 1-.777 0l-1.97-1.876a.548.548 0 0 0-.39-.161z"/><path fill="#bb8e67" d="M1.872 6.818H15.06a.548.548 0 1 1 0 1.099H1.872a.548.548 0 1 1 0-1.1z"/><path fill="#403e47" d="M3.52 9.016v.55h1.1a1.649 1.649 0 0 0 1.648 1.648 1.649 1.649 0 0 0 1.649-1.649h1.099a1.649 1.649 0 0 0 1.648 1.649 1.649 1.649 0 0 0 1.649-1.649h1.099v-.55z"/><path fill="#ac784e" d="m14.51 11.764-5.495 1.649-.55 1.098v.55l.55.55h5.495z"/><path fill="#bb8d68" d="m2.422 11.764 5.495 1.649 1.099 2.197H2.422z"/></svg>