<svg xmlns="http://www.w3.org/2000/svg" width="64" height="64" version="1"><rect width="56" height="46" x="4" y="9" fill="#ececec" rx="3" ry="3.209"/><path fill="none" stroke="#000" stroke-linecap="round" stroke-linejoin="round" d="M27.889 39.707s3.706 5.05 11.074-.283c5.168-3.74 10.786.979 10.786.979" opacity=".15"/><path fill="#4c5263" d="M6.9 9H11v46H6.9C5.238 55 4 53.676 4 51.898V12.103C4 10.325 5.238 9 6.9 9z"/><circle cx="7.5" cy="48" r="1.5" fill="#82b2ea"/><path fill="#5e6476" d="M41.934 21.855c.65.517.798 1.406.332 1.993L30.472 38.67c-.466.586-2.467 1.494-2.858 1.183s.044-2.465.51-3.051L39.918 21.98c.467-.587 1.366-.643 2.016-.125z"/></svg>