<svg width="64" height="64" enable-background="new 0 0 1024 1024" image-rendering="optimizeSpeed" version="1.1" xmlns="http://www.w3.org/2000/svg">
 <circle cx="32" cy="32" r="27" fill="#f2f2f2" fill-rule="evenodd" stroke-width=".9" style="paint-order:normal"/>
 <path d="m22.323 42c5.8626 0 9.7612-4.0673 9.7612-10.155 0-5.8906-3.7868-9.8454-9.4529-9.8454-5.8064 0-9.6496 4.0673-9.6496 10.155 0 5.9187 3.7307 9.8454 9.3404 9.8454zm0.30855-3.1697c-3.5343 0-5.8626-2.777-5.8626-6.9845 0-4.0113 2.216-6.6479 5.554-6.6479 3.6185 0 5.9747 2.7489 5.9747 6.9565 0 4.0113-2.244 6.676-5.6662 6.676zm24.039 2.9172h4.3478l-7.1248-10.266 6.3674-9.2004h-4.1795l-4.0673 6.3674-4.0393-6.3674h-4.2917l6.3674 9.3404-6.8724 10.126h4.1795l4.5722-7.3211z" fill="#666666" stroke-width=".85888"/>
</svg>
