<svg xmlns="http://www.w3.org/2000/svg" xml:space="preserve" width="64" height="64"><path d="M32 5A26.94 26.94 0 0 0 5 32a26.94 26.94 0 0 0 27 27 26.94 26.94 0 0 0 27-27A26.94 26.94 0 0 0 32 5Z" style="fill:#00c5f9;fill-opacity:1;stroke:none;stroke-opacity:1"/><g style="stroke:#171717;stroke-opacity:1"><path d="M-82.143-107.758c-2.564 22.4-15.595 69.92 37.462 70.95C20.871-35.532-3.32-108.87-3.32-108.87s-49.712-11.028-78.822 1.112z" style="opacity:1;fill:#fff;fill-opacity:1;stroke:#fff;stroke-width:2.38787px;stroke-linecap:butt;stroke-linejoin:miter;stroke-opacity:1" transform="matrix(.2789 0 0 .29725 43.462 60.696)"/><path d="M-82.762-106.161c-2.87-12.549-4.164-22.413-2.739-29.302 1.222-5.904 23.817-21.557 46.442-20.798 14.302.48 34.037 14.41 35.444 18.575C1.673-122.031 2.56-94.8 25.908-103.585 15.206-84.435-8.142-83.17-11.104-87.592c-10.099-15.08-23.738-31.133-47.575-43.746 7.605 5.857 30.108 19.044 21.26 18.256-18.525 0-32.449-.783-45.343 6.92z" style="opacity:1;fill:#fff;fill-opacity:1;stroke:#fff;stroke-width:2.38787px;stroke-linecap:butt;stroke-linejoin:miter;stroke-opacity:1" transform="matrix(.2789 0 0 .29725 43.462 60.696)"/><path d="M-84.335-59.8c-1.91-9.454-2.3-14.202-2.25-17.96-4.444-.22-8.91.677-8.833 6.715.104 8.245 7.063 13.507 11.083 11.245zm84.047-.825C1.623-70.078 2.069-74.19 2.02-77.95c4.443-.22 7.83.656 7.755 6.694C9.67-63.01 3.733-58.362-.288-60.625z" style="fill:#fff;fill-opacity:1;stroke:#fff;stroke-width:2.38787px;stroke-linecap:butt;stroke-linejoin:miter;stroke-opacity:1" transform="matrix(.2789 0 0 .29725 43.462 60.696)"/></g></svg>