<?xml version="1.0" encoding="UTF-8"?>
<svg width="64" height="64" version="1.1" xmlns="http://www.w3.org/2000/svg">
 <path d="m8 8c-3.324 0-6 2.676-6 6v36c0 3.324 2.676 6 6 6h48c3.324 0 6-2.676 6-6v-36c0-3.324-2.676-6-6-6h-48zm0 1h48c2.77 0 5 2.23 5 5v36c0 2.77-2.23 5-5 5h-48c-2.77 0-5-2.23-5-5v-36c0-2.77 2.23-5 5-5z" fill-rule="evenodd" opacity=".1" stroke-linecap="round" stroke-linejoin="round" stroke-width="2"/>
 <rect x="3" y="9" width="58" height="46" rx="5" ry="5" fill="#fff" fill-rule="evenodd" stroke-linecap="round" stroke-linejoin="round" stroke-width="1.925"/>
 <g stroke-width="3.7796">
  <path d="m2 46.002v3.998c0 3.324 2.676 6 6 6h48c3.324 0 6-2.676 6-6v-3.998h-60z" fill="#666" style="paint-order:stroke markers fill"/>
 </g>
 <path d="m10 48a3 3 0 0 0-3 3 3 3 0 0 0 3 3 3 3 0 0 0 3-3 3 3 0 0 0-3-3zm0 1a2 2 0 0 1 2 2 2 2 0 0 1-2 2 2 2 0 0 1-2-2 2 2 0 0 1 2-2z" opacity=".35" style="paint-order:fill markers stroke"/>
 <rect x="40" y="49" width="16" height="4" rx="1" ry="1" opacity=".35" style="paint-order:fill markers stroke"/>
 <rect x="18" y="49" width="4" height="4" rx="1" ry="1" opacity=".35" style="paint-order:fill markers stroke"/>
 <rect x="24" y="49" width="4" height="4" rx="1" ry="1" opacity=".35" style="paint-order:fill markers stroke"/>
 <rect x="30" y="49" width="4" height="4" rx="1" ry="1" opacity=".35" style="paint-order:fill markers stroke"/>
 <path d="m32.002 14.502a13.002 13.002 0 0 0-13.002 13.002 13.002 13.002 0 0 0 13.002 12.998 13.002 13.002 0 0 0 13.002-13.002 13.002 13.002 0 0 0-13.002-13.002zm0 5.265a7.7331 7.7331 0 0 1 7.7331 7.7331 7.7331 7.7331 0 0 1-7.7331 7.7293 7.7331 7.7331 0 0 1-7.7331-7.7293 7.7331 7.7331 0 0 1 7.7331-7.7331z" fill="#ccc" opacity=".35" stroke-width="3.7796" style="paint-order:stroke markers fill"/>
 <g transform="matrix(3.7796 0 0 3.7796 -3.32e-7 -1067.6)" fill="#ccc" style="paint-order:stroke markers fill">
  <path d="m7.9379 285.64v1.2402a2.91 2.91 0 0 0-1.1208 0.46301l-0.8759-0.87641-0.74826 0.74774 0.87642 0.87642a2.91 2.91 0 0 0-0.46198 1.1208h-1.2412v1.0578h1.2412a2.91 2.91 0 0 0 0.4625 1.1203l-0.87693 0.87693 0.74826 0.74774 0.87693-0.87693a2.91 2.91 0 0 0 1.1198 0.4625v1.2418h1.0583v-1.2418a2.91 2.91 0 0 0 1.1198-0.4625l0.87693 0.87693 0.74723-0.74774-0.8759-0.87693a2.91 2.91 0 0 0 0.46198-1.1203h1.2418v-1.0578h-1.2397a2.91 2.91 0 0 0-0.46404-1.1203l0.87693-0.87694-0.74826-0.74774-0.87642 0.87641a2.91 2.91 0 0 0-1.1203-0.46352v-1.2397h-1.0583zm0.52916 2.513a1.587 1.587 0 0 1 1.587 1.588 1.587 1.587 0 0 1-1.587 1.587 1.587 1.587 0 0 1-1.588-1.587 1.587 1.587 0 0 1 1.588-1.588z"/>
 </g>
</svg>
