<svg width="64" height="64" version="1.1" xmlns="http://www.w3.org/2000/svg">
 <rect x="2" y="8" width="60" height="48" rx="7" ry="7" fill="#f2f2f2" fill-rule="evenodd"/>
 <path d="M2 46.002V50c0 3.324 2.676 6 6 6h48c3.324 0 6-2.676 6-6v-3.998H2z" fill="#666" stroke-width="3.78" style="paint-order:stroke markers fill"/>
 <path d="m10 48a3 3 0 0 0-3 3 3 3 0 0 0 3 3 3 3 0 0 0 3-3 3 3 0 0 0-3-3zm0 1a2 2 0 0 1 2 2 2 2 0 0 1-2 2 2 2 0 0 1-2-2 2 2 0 0 1 2-2z" opacity=".35" style="paint-order:fill markers stroke"/>
 <rect x="40" y="49" width="16" height="4" rx="1" ry="1" opacity=".35" style="paint-order:fill markers stroke"/>
 <rect x="18" y="49" width="4" height="4" rx="1" ry="1" opacity=".35" style="paint-order:fill markers stroke"/>
 <rect x="24" y="49" width="4" height="4" rx="1" ry="1" opacity=".35" style="paint-order:fill markers stroke"/>
 <rect x="30" y="49" width="4" height="4" rx="1" ry="1" opacity=".35" style="paint-order:fill markers stroke"/>
 <path d="M32.002 14.502A13.002 13.002 0 0 0 19 27.504a13.002 13.002 0 0 0 13.002 12.998A13.002 13.002 0 0 0 45.004 27.5a13.002 13.002 0 0 0-13.002-13.002zm0 5.265a7.733 7.733 0 0 1 7.733 7.733 7.733 7.733 0 0 1-7.733 7.73 7.733 7.733 0 0 1-7.733-7.73 7.733 7.733 0 0 1 7.733-7.733z" fill="#ccc" opacity=".35" style="paint-order:stroke markers fill"/>
 <path transform="translate(0 -1067.6) scale(3.7796)" d="M7.938 285.64v1.24a2.91 2.91 0 0 0-1.12.463l-.877-.876-.748.748.876.876a2.91 2.91 0 0 0-.462 1.12h-1.24v1.059h1.24a2.91 2.91 0 0 0 .463 1.12l-.877.877.748.748.877-.877a2.91 2.91 0 0 0 1.12.462v1.242h1.058V292.6a2.91 2.91 0 0 0 1.12-.462l.877.877.747-.748-.876-.877a2.91 2.91 0 0 0 .462-1.12h1.242v-1.058h-1.24a2.91 2.91 0 0 0-.464-1.12l.877-.877-.748-.748-.876.876a2.91 2.91 0 0 0-1.12-.463v-1.24H7.937zm.53 2.513a1.587 1.587 0 0 1 1.586 1.588 1.587 1.587 0 0 1-1.587 1.587 1.587 1.587 0 0 1-1.588-1.587 1.587 1.587 0 0 1 1.588-1.588z" fill="#ccc" style="paint-order:stroke markers fill"/>
</svg>
