<svg xmlns="http://www.w3.org/2000/svg" width="64" height="64"><rect width="60" height="48" x="2" y="8" fill="#f2f2f2" fill-rule="evenodd" rx="7" ry="7"/><path fill="#666" d="M2 46.002V50c0 3.324 2.676 6 6 6h48c3.324 0 6-2.676 6-6v-3.998z" style="paint-order:stroke markers fill"/><path d="M10 48a3 3 0 0 0-3 3 3 3 0 0 0 3 3 3 3 0 0 0 3-3 3 3 0 0 0-3-3m0 1a2 2 0 0 1 2 2 2 2 0 0 1-2 2 2 2 0 0 1-2-2 2 2 0 0 1 2-2" opacity=".35" style="paint-order:fill markers stroke"/><rect width="16" height="4" x="40" y="49" opacity=".35" rx="1" ry="1" style="paint-order:fill markers stroke"/><rect width="4" height="4" x="18" y="49" opacity=".35" rx="1" ry="1" style="paint-order:fill markers stroke"/><rect width="4" height="4" x="24" y="49" opacity=".35" rx="1" ry="1" style="paint-order:fill markers stroke"/><rect width="4" height="4" x="30" y="49" opacity=".35" rx="1" ry="1" style="paint-order:fill markers stroke"/><path fill="#ccc" d="M32.002 14.502A13 13 0 0 0 19 27.504a13 13 0 0 0 13.002 12.998A13 13 0 0 0 45.004 27.5a13 13 0 0 0-13.002-13.002zm0 5.265a7.733 7.733 0 0 1 7.733 7.733 7.733 7.733 0 0 1-7.733 7.73 7.733 7.733 0 0 1-7.733-7.73 7.733 7.733 0 0 1 7.733-7.733" opacity=".35" style="paint-order:stroke markers fill"/><path fill="#ccc" d="M7.938 285.64v1.24a2.9 2.9 0 0 0-1.12.463l-.877-.876-.748.748.876.876a2.9 2.9 0 0 0-.462 1.12h-1.24v1.059h1.24a2.9 2.9 0 0 0 .463 1.12l-.877.877.748.748.877-.877a2.9 2.9 0 0 0 1.12.462v1.242h1.058V292.6a2.9 2.9 0 0 0 1.12-.462l.877.877.747-.748-.876-.877a2.9 2.9 0 0 0 .462-1.12h1.242v-1.058h-1.24a2.9 2.9 0 0 0-.464-1.12l.877-.877-.748-.748-.876.876a2.9 2.9 0 0 0-1.12-.463v-1.24zm.53 2.513a1.587 1.587 0 0 1 1.586 1.588 1.587 1.587 0 0 1-1.587 1.587 1.587 1.587 0 0 1-1.588-1.587 1.587 1.587 0 0 1 1.588-1.588z" style="paint-order:stroke markers fill" transform="translate(0 -1067.6)scale(3.7796)"/></svg>