<svg xmlns="http://www.w3.org/2000/svg" width="64" height="64"><rect width="52" height="52" x="6" y="6" fill="#006442" fill-rule="evenodd" rx="8" ry="8" style="paint-order:stroke fill markers"/><path fill="#fff" d="M14 6c-.782 0-1.536.117-2.25.324v19.488l9 9v6.75l-9 6.75v9.364A8.045 8.045 0 0 0 14 58v-8.563l9-6.75v-9l-9-9zm2.25 0v17.562l9 9v11.25l-9 6.75V58h2.25v-6.313l9-6.75v-13.5l-9-9V5.999zm4.5 0v15.312l9 9v15.75l-9 6.75V58H23v-4.063l9-6.75v-18l-9-9V5.999zm6.75 0v12.5l9 9H50V23H38.75L32 16.25V6zm10.125 0v8L41 17.375h3.197C45.937 15.968 48.59 15 51 15h7v-1c0-4.432-3.568-8-8-8zM36.5 32l-1.125 1.125V47.75l-9 6.75V58H41v-3.5a2.25 2.25 0 0 1 2.25-2.25h14.426A8.045 8.045 0 0 0 58 50v-1.125h-7V44h7V32.109a10.09 10.09 0 0 1-7.437 3.266A10.1 10.1 0 0 1 43.016 32zM6 35.375v4.5h6.875v-4.5zm36.875 2.25H46.5v4.5h-5.625v-2.5a2 2 0 0 1 2-2zm8.125 0h3.625a2 2 0 0 1 2 2v2.5H51zm-10.125 6.75H46.5v4.5h-3.625a2 2 0 0 1-2-2z" opacity=".2"/><path fill="#ffd42a" fill-rule="evenodd" d="M50.562 29.75a4.5 4.5 0 1 0 0-9 4.5 4.5 0 0 0 0 9zM12.874 42.125a4.5 4.5 0 1 0 0-9 4.5 4.5 0 0 0 0 9z" clip-rule="evenodd"/><path fill="#fff" fill-rule="evenodd" d="M50.562 26.938a1.687 1.687 0 1 0 0-3.375 1.687 1.687 0 0 0 0 3.375zM12.874 39.313a1.687 1.687 0 1 0 0-3.375 1.687 1.687 0 0 0 0 3.375z" clip-rule="evenodd"/><path fill="#fff" fill-rule="evenodd" d="M50.562 26.938a1.687 1.687 0 1 0 0-3.375 1.687 1.687 0 0 0 0 3.375zM12.874 39.313a1.687 1.687 0 1 0 0-3.375 1.687 1.687 0 0 0 0 3.375z" clip-rule="evenodd"/><path fill="#fff" fill-rule="evenodd" d="M44 54c-.554 0-1 .446-1 1v3h7a7.974 7.974 0 0 0 6.928-4z" opacity=".2" style="paint-order:stroke fill markers"/><rect width="11" height="6" x="43" y="40" fill="#ffd42a" fill-rule="evenodd" rx="1" ry="1" style="paint-order:stroke fill markers"/><rect width="7" height="2" x="45" y="42" fill="#fff" fill-rule="evenodd" opacity=".35" rx="1" ry="1" style="paint-order:stroke fill markers"/></svg>