<svg xmlns="http://www.w3.org/2000/svg" width="64" height="64" viewBox="0 0 16.933 16.933"><g fill-rule="evenodd"><path fill="#ececec" d="M13.493 1.852H8.201v13.229h5.292a1.32 1.32 0 0 0 1.323-1.323V3.175a1.32 1.32 0 0 0-1.32-1.323z" style="paint-order:fill markers stroke"/><path fill="#f44040" d="M3.437 1.852a1.32 1.32 0 0 0-1.32 1.323v10.583c0 .733.59 1.323 1.323 1.323h5.82V1.853z" style="paint-order:fill markers stroke"/><path fill="#d62929" d="M12.171 1.323c.265 0 1.058.052 1.058.794v12.7c0 .793-.727.812-1.058.793l-4.233-.529V1.852z" style="paint-order:fill markers stroke"/></g><path fill="#fff" d="M7.885 4.5c-.08-.013-.158.04-.242.182-.134.227-.195.863-.085 1.475.037.21.117.513.225.845-.086.31-.181.64-.285.967-.412 1.292-1.296 2.646-1.762 3.375-.294.458-1.003.997-1.063.892-.058-.105.141-.34.39-.717.247-.375.881-.764.881-.764s-.27-.01-.964.6c-.693.614-.483.917-.318 1.01.164.096.624.46 2.188-2.256.572-.993.903-1.895 1.096-2.643.198.512.453 1.029.736 1.355.165.19.382.373.623.541-.19.035-.408.077-.703.13-1.08.197-1.618.622-1.63.631.008-.002 1.265-.4 2.6-.585.525.32 1.128.566 1.627.665.779.158.99-.128 1.016-.166-.03.025-.132.072-.453.045-.258-.021-.965-.221-1.68-.605 1.481-.137 1.993.014 2.125.12.132.105.132.223.132.223s.17-.164.058-.33c-.094-.173-.239-.316-1.427-.28-.59.017-.906.038-1.21.078a4.1 4.1 0 0 1-.98-.814c-.366-.434-.59-.933-.736-1.424.219-1.054.15-1.707.15-1.713 0 0-.111.505-.282 1.17-.099-.503-.132-.967-.16-1.297-.06-.756.278-.546.326-.45.077.062.115.27.115.27s-.027-.31-.162-.442a.3.3 0 0 0-.146-.088m-.913 5.624h-.004v.003z"/><circle cx="12.171" cy="12.171" r="4.233" fill="#3e97f2"/><path fill="#fff" d="M10.054 13.344v.943h.943l2.381-2.381-.943-.943zm4.158-2.27c.1-.1.1-.256 0-.356l-.589-.59a.25.25 0 0 0-.357 0l-.492.496.943.943z"/></svg>