<svg width="64" height="64" version="1.1" viewBox="0 0 16.933 16.933" xmlns="http://www.w3.org/2000/svg" xmlns:xlink="http://www.w3.org/1999/xlink">
 <g transform="translate(-1.2179e-8 -280.07)">
  <g transform="matrix(1,0,0,1.04,0,-11.541)">
   <rect transform="matrix(0,-1,-1,0,0,0)" x="-295.4" y="-15.081" width="13.738" height="13.229" rx="1.5875" ry="1.5875" fill="#60d87c" stroke-width="1.04"/>
  </g>
  <rect x="8.202" y="281.39" width=".529" height="5.4231" ry="0" opacity=".35" stroke-width="1.0253" paint-order="markers stroke fill"/>
  <path d="m8.467 286.42a1.06 1.06 0 0 0-1.059 1.058v2.117a1.06 1.06 0 0 0 1.059 1.058 1.06 1.06 0 0 0 1.058-1.058v-2.117a1.06 1.06 0 0 0-1.058-1.058zm0 0.529c0.292 0 0.529 0.211 0.529 0.529 0 0.265-0.237 0.53-0.53 0.53a0.548 0.548 0 0 1-0.529-0.53c0-0.318 0.238-0.53 0.53-0.53zm0 1.587a0.53 0.53 0 0 1 0.529 0.53v0.529a0.53 0.53 0 0 1-1.059 0v-0.53a0.53 0.53 0 0 1 0.53-0.529z" fill="#fff"/>
 </g>
</svg>
