<svg width="64" height="64" version="1.1" viewBox="0 0 64 64" xmlns="http://www.w3.org/2000/svg">
 <g transform="translate(1,1)">
  <g opacity=".1"></g>
 </g>
 <path d="m32 5c14.912 0 27 12.088 27 27s-12.088 27-27 27-27-12.088-27-27 12.088-27 27-27z" fill="#f2f2f2" stroke-width="1.1739"/>
 <g transform="matrix(1.3852 0 0 1.3852 -1.2436 -1.242)">
  <path d="m36.04 27.02c-3.254 0.645-3.477-0.418-3.477-0.418 3.434-4.906 4.867-11.137 3.629-12.664-3.379-4.156-9.227-2.191-9.328-2.137l-0.031 4e-3c-0.641-0.125-1.359-0.203-2.168-0.215-1.469-0.023-2.586 0.371-3.434 0.992 0 0-10.43-4.141-9.949 5.207 0.102 1.988 2.957 15.05 6.363 11.11 1.246-1.441 2.449-2.66 2.449-2.66 0.598 0.383 1.313 0.578 2.063 0.508l0.055-0.047c-0.016 0.18-8e-3 0.355 0.027 0.563-0.879 0.945-0.621 1.109-2.375 1.461-1.773 0.352-0.734 0.98-0.055 1.145 0.828 0.199 2.738 0.48 4.03-1.258l-0.055 0.199c0.344 0.266 0.586 1.723 0.547 3.051-0.039 1.324-0.066 2.23 0.203 2.941 0.27 0.711 0.539 2.309 2.844 1.832 1.93-0.395 2.926-1.426 3.066-3.148 0.098-1.223 0.32-1.043 0.336-2.137l0.176-0.516c0.207-1.66 0.031-2.195 1.219-1.941l0.289 0.023c0.875 0.039 2.02-0.137 2.688-0.438 1.445-0.645 2.305-1.723 0.879-1.441" fill="#33678e"/>
  <path transform="scale(3.5433)" d="m6.769 7.893c-0.025 0.87 7e-3 1.745 0.095 1.96 0.088 0.213 0.278 0.624 0.929 0.493 0.542-0.112 0.742-0.332 0.827-0.809 0.063-0.353 0.185-1.333 0.201-1.535" fill="none" stroke="#f9f9f9" stroke-linecap="round" stroke-linejoin="round" stroke-width=".141"/>
  <path transform="scale(3.5433)" d="m5.99 3.53s-2.947-1.16-2.809 1.478c0.03 0.561 0.836 4.248 1.797 3.133 0.351-0.408 0.668-0.729 0.668-0.729" fill="none" stroke="#f9f9f9" stroke-linecap="round" stroke-linejoin="round" stroke-width=".141"/>
  <path transform="scale(3.5433)" d="m7.581 3.318c-0.105 0.031 1.637-0.613 2.627 0.605 0.351 0.43-0.055 2.186-1.023 3.573" fill="none" stroke="#f9f9f9" stroke-linecap="round" stroke-linejoin="round" stroke-width=".141"/>
  <path transform="scale(3.5433)" d="m9.185 7.497s0.063 0.301 0.98 0.118c0.4-0.078 0.161 0.226-0.248 0.409-0.334 0.15-1.087 0.185-1.097-0.021-0.033-0.535 0.396-0.372 0.365-0.506-0.031-0.119-0.219-0.237-0.345-0.53-0.11-0.257-1.51-2.23 0.388-1.937 0.067-0.014-0.495-1.741-2.272-1.768-1.777-0.028-1.72 2.106-1.72 2.106" fill="none" stroke="#f9f9f9" stroke-linecap="round" stroke-linejoin="bevel" stroke-width=".141"/>
  <path transform="scale(3.5433)" d="m6.272 7.68c-0.248 0.269-0.174 0.312-0.67 0.411-0.501 0.099-0.204 0.278-0.012 0.323 0.233 0.056 0.772 0.137 1.136-0.356 0.111-0.15-1e-3 -0.388-0.152-0.449-0.075-0.029-0.172-0.066-0.299 0.071m0 0" fill="none" stroke="#f9f9f9" stroke-linecap="round" stroke-linejoin="round" stroke-width=".141"/>
  <path transform="scale(3.5433)" d="m6.256 7.675c-0.025-0.158 0.053-0.343 0.137-0.561 0.126-0.327 0.418-0.655 0.185-1.693-0.174-0.774-1.339-0.161-1.342-0.055 0 0.107 0.053 0.531-0.02 1.031-0.094 0.648 0.429 1.197 1.031 1.141" fill="none" stroke="#f9f9f9" stroke-linecap="round" stroke-linejoin="round" stroke-width=".141"/>
  <path transform="scale(3.5433)" d="m5.978 5.348c-8e-3 0.036 0.065 0.131 0.162 0.144 0.096 0.013 0.176-0.063 0.183-0.098 6e-3 -0.036-0.067-0.075-0.163-0.088s-0.177 6e-3 -0.182 0.042" fill="#fff" stroke="#f9f9f9" stroke-width=".141"/>
  <path transform="scale(3.5433)" d="m8.887 5.275c8e-3 0.036-0.066 0.131-0.163 0.144-0.097 0.01-0.175-0.065-0.183-0.098-6e-3 -0.036 0.067-0.075 0.163-0.088s0.177 6e-3 0.182 0.042" fill="#fff" stroke="#f9f9f9" stroke-width=".071"/>
  <path transform="scale(3.5433)" d="m9.228 5.03c0.013 0.281-0.064 0.473-0.075 0.772-0.013 0.434 0.215 0.933-0.129 1.431" fill="none" stroke="#f9f9f9" stroke-linecap="round" stroke-linejoin="round" stroke-width=".141"/>
 </g>
</svg>
