<svg width="64" height="64" version="1" xmlns="http://www.w3.org/2000/svg">
 <g stroke-width="1.3">
  <rect x="6" y="6" width="52" height="52" rx="6" ry="6" fill="#4f4f4f"/>
  <path d="m43.05 11.85-1.3787 2.5213-2.5213 1.3787 2.5213 1.3787 1.3787 2.5213 1.3787-2.5213 2.5213-1.3787-2.5213-1.3787zm-6.5 2.6-0.45957 0.84043-0.84043 0.45957 0.84043 0.45957 0.45957 0.84043 0.45957-0.84043 0.84043-0.45957-0.84043-0.45957zm-4.55 0.65c-9.3186 0-16.9 7.5812-16.9 16.9 0 9.3186 7.5814 16.9 16.9 16.9s16.9-7.5814 16.9-16.9h-1.4473c0 8.5208-6.9318 15.453-15.453 15.453-8.521 0-15.453-6.9318-15.453-15.453 0-8.5212 6.9318-15.453 15.453-15.453zm14.95 4.55-0.91914 1.6809-1.6809 0.91914 1.6809 0.91914 0.91914 1.6809 0.91914-1.6809 1.6809-0.91914-1.6809-0.91914zm1.95 6.4975-0.68809 1.2619-1.2619 0.69062 1.2619 0.68809 0.68809 1.2619 0.69062-1.2619 1.2594-0.68809-1.2594-0.69062z" fill="#fff"/>
  <path d="m31.916 31.912s-1.8508-0.34095-3.4824-0.58443c-1.6315-0.24348-3.4153 0.17652-3.8719 0.70627-0.45665 0.52956 0.60266 1.5342 0.8402 1.936 0.23734 0.40177 0.10955 0.45645-0.31044 0.84-0.35086 0.32035-1.7749 0.49627-2.2353 0.5456v0.01466s-0.02674-0.0026-0.07271-0.0072c-0.04597 0.0046-0.07251 0.0072-0.07251 0.0072v-0.01466c-0.46042-0.04933-1.8845-0.22526-2.2353-0.5456-0.42-0.38355-0.54798-0.43823-0.31044-0.84 0.23734-0.40177 1.2967-1.4064 0.8402-1.936-0.27914-0.32372-1.0548-0.60563-1.9875-0.72093-0.01183 0.22763-0.01823 0.45685-0.01823 0.68745 0 7.1798 5.8202 13 13 13 0.09411 0 0.18702-0.0052 0.28073-0.0072 0.38513-1.4397 0.88735-3.9086 0.0044-4.5198-1.2663-0.87665-2.7031 0.0731-2.7031 0.0731s-1.0229 0.56007-1.5342-0.02436c-0.51153-0.58443-0.6088-1.5098-0.56026-2.1428 0.04874-0.63317 0.58463-2.3623 1.5586-1.9241 0.97412 0.43862 2.918 0.77601 3.3362 0.24368 1.0716-1.3638-0.46596-4.7872-0.46596-4.7872" fill="#0092ee"/>
  <path d="m31.916 31.912s6.822-2.0315 7.2113-0.08341c0.38989 1.9482-2.0453 2.0457-0.58424 3.0198 1.1586 0.77205 2.1309 0.74827 2.4849 0.70548v-0.02378s0.02674 0.0064 0.07231 0.01368c0.04597-0.0073 0.07271-0.01368 0.07271-0.01368v0.02378c0.35403 0.04299 1.3264 0.06677 2.4849-0.70548 1.4611-0.97412-0.97412-1.0716-0.58443-3.0198 0.12541-0.62644 0.89567-0.84198 1.8827-0.84674-0.52025-6.7032-6.1203-11.981-12.957-11.981-0.20842 0-0.41525 6e-3 -0.62128 0.01565-0.28806 1.1225-0.52777 2.7157 0.12362 3.5448 0.41842 0.53253 2.3623 0.19475 3.3362-0.24368 0.97412-0.43823 1.5098 1.2907 1.5586 1.9239 0.04854 0.63317-0.04874 1.5586-0.56007 2.143-0.51133 0.58444-1.5342 0.02437-1.5342 0.02437s-1.4367-0.94976-2.7031-0.0731c-1.2663 0.87665 0.31658 5.5767 0.31658 5.5767" fill="#bee34a"/>
  <path d="m20.166 33.969c-0.23734 0.40177-0.10955 0.45665 0.31044 0.8402 0.35086 0.32015 1.7749 0.49608 2.2353 0.54541v0.01466s0.02674-0.0026 0.07271-0.0072c0.04576 0.0046 0.07251 0.0072 0.07251 0.0072v-0.01466c0.46042-0.04933 1.8845-0.22526 2.2353-0.54541 0.42-0.38355 0.54798-0.43842 0.31044-0.8402-0.23734-0.40177-1.2967-1.4064-0.8402-1.936 0.45665-0.52976 2.2405-0.94976 3.8721-0.70627 1.6315 0.24348 3.4822 0.58443 3.4822 0.58443s-1.5829-4.6998-0.31658-5.5767c1.2665-0.87665 2.7033 0.0731 2.7033 0.0731s1.0229 0.56007 1.5342-0.02436c0.51153-0.58443 0.6086-1.5098 0.56007-2.143-0.04854-0.63317-0.58444-2.3621-1.5584-1.9237-0.97412 0.43823-2.918 0.77581-3.3362 0.24348-0.6514-0.8291-0.41168-2.4221-0.12382-3.5446-6.6629 0.31361-12.014 5.6423-12.36 12.297 0.93272 0.1153 1.7083 0.39722 1.9875 0.72093 0.45645 0.52956-0.60306 1.5344-0.8404 1.936" fill="#f15976"/>
  <path d="m45 32c0-0.34313-0.01743-0.6821-0.04359-1.0185-0.9868 0.0048-1.7571 0.2203-1.8825 0.84674-0.38949 1.9482 2.0457 2.0455 0.58444 3.0196-1.1586 0.77244-2.1309 0.74847-2.4849 0.70568v-0.02358s-0.02695 6e-3 -0.07251 0.01347c-0.04576-0.0075-0.07251-0.01347-0.07251-0.01347v0.02358c-0.35403 0.04299-1.3264 0.06696-2.4849-0.70568-1.4611-0.97412 0.97412-1.0714 0.58443-3.0196-0.38969-1.948-7.2115 0.08341-7.2115 0.08341s1.5376 3.4234 0.46596 4.787c-0.41822 0.53253-2.3621 0.19494-3.3362-0.24348s-1.5098 1.2907-1.5586 1.9239c-0.04874 0.63317 0.04874 1.5586 0.56007 2.1428 0.51153 0.58443 1.5342 0.02436 1.5342 0.02436s1.4369-0.94976 2.7031-0.0729c0.88299 0.61138 0.38097 3.0801-0.0042 4.5196 7.0497-0.14977 12.719-5.9073 12.719-12.993" fill="#10e7c4"/>
 </g>
</svg>
