<svg width="64" height="64" version="1.1" viewBox="0 0 16.933 16.933" xmlns="http://www.w3.org/2000/svg">
 <g transform="matrix(1.1739 0 0 1.1739 1.0123 -3.9572)" stroke-width=".22538">
  <path d="m12.435 10.583a6.0853 6.0853 0 0 1-6.0853 6.0853 6.0853 6.0853 0 0 1-6.0853-6.0853 6.0853 6.0853 0 0 1 6.0853-6.0853 6.0853 6.0853 0 0 1 6.0853 6.0853z" fill="#c86fc3"/>
  <path d="m2.9692 7.2024h6.7614v6.7614h-6.7614z" fill="#303030"/>
  <path d="m3.4395 12.7h2.6458v0.52916h-2.6458z" fill="#f9f9f9"/>
  <path d="m3.9687 7.9368v2.9104h0.52916v-1.0583h0.52916c0.63695 0 1.0583-0.25972 1.0583-0.91259v-0.013435c0-0.58918-0.2873-0.92602-0.97201-0.92602zm3.7108 5.167e-4c-0.57325 0-1.0707 0.28789-1.0707 0.81337v0.01602c0 0.36873 0.36982 0.69641 0.94308 0.83973 0.47771 0.12739 0.65679 0.2428 0.65679 0.40203v0.01602c0 0.17516-0.27438 0.29403-0.52916 0.29403-0.31847 0-0.53896-0.11906-0.79373-0.32607l-0.34571 0.37465c0.3344 0.30255 0.7095 0.46466 1.1394 0.48058 0.6051 0 1.0469-0.37834 1.0469-0.87073v-0.01602c0-0.43605-0.3414-0.61796-0.91465-0.7772-0.47771-0.12739-0.66145-0.21664-0.66145-0.40772v-0.049608c0-0.14331 0.2903-0.25993 0.52916-0.25993s0.41803 0.017071 0.67281 0.19223l0.29455-0.40152c-0.3009-0.18178-0.55335-0.31987-0.96736-0.31987zm-3.1817 0.52864h0.52916c0.31847 0 0.52916 0.11024 0.52916 0.39687v0.013435c0 0.23886-0.21068 0.38343-0.52916 0.38343h-0.52916z" fill="#f9f9f9"/>
 </g>
</svg>
