<svg xmlns="http://www.w3.org/2000/svg" width="64" height="64"><path fill="#f68048" d="M32.684 3.046v57.908a6.6 6.6 0 0 0 2.614-.839l19.404-11.204a6.6 6.6 0 0 0 3.297-5.71V20.795a6.59 6.59 0 0 0-3.297-5.711L35.298 3.88a6.6 6.6 0 0 0-2.614-.835zm-1.368.222c-.78.506-1.417 1.6-2.204 2.055L11.56 17.87c-2.042 1.178-2.374 1.807-2.374 4.164l-.617 21.169c0 2.356.026 3.19 2.066 4.368l18.067 11.823c.816.472 1.706 1.193 2.614 1.478z"/><path fill="#8d259c" d="M31.316 3.094a6.6 6.6 0 0 0-2.614.786L9.298 15.085A6.6 6.6 0 0 0 6 20.795v22.408a6.6 6.6 0 0 0 3.298 5.71l19.404 11.202a6.6 6.6 0 0 0 2.614.789z"/><path fill="#b66bc2" d="m23.045 19.674-6.9 3.377L12.4 43.48l6.593-1.697 5.55 3.99 3.746-20.43zm-1.367 7.214a2.17 2.17 0 0 1-1.71-2.532 2.14 2.14 0 0 1 2.493-1.736c1.16.219 1.926 1.353 1.71 2.531a2.14 2.14 0 0 1-2.493 1.737"/><path fill="#fff" d="M42.588 14.118c-.793 0-1.521.402-1.943 1.074a2.3 2.3 0 0 0-.355 1.3v.003c.008.219.047.44.115.648v.003c.068.21.17.41.296.594a4.6 4.6 0 0 1-.533.516l-.003.003a5 5 0 0 1-.558.39l-.003.005c-1.134.673-2.29.912-2.638.906-1.04-.454-2.348-.684-3.227-.796a27 27 0 0 0-1.054-.104v1.491c.542.071 1.109.156 1.76.259.557.126 1.45.315 2.05.588l.005.006c.323.146.637.309.934.492q.444.28.847.613c.54.445 1.125 1.492 1.553 2.08a2.3 2.3 0 0 0-.468 1.058v.003a2.3 2.3 0 0 0-.03.44v.006a2.4 2.4 0 0 0 .195.858 2.3 2.3 0 0 0 2.101 1.38 2.29 2.29 0 0 0 2.272-1.93 2.33 2.33 0 0 0-.163-1.307 2.3 2.3 0 0 0-1.288-1.227 2.3 2.3 0 0 0-.438-.113h-.007a2.3 2.3 0 0 0-.9.033c-.578-.813-1.347-2.048-2.106-2.633.235-.072.482-.365.73-.476.122-.055.248-.131.374-.197.126-.067.25-.119.377-.198a6 6 0 0 0 1.436-1.254 2.33 2.33 0 0 0 1.247.03 2.29 2.29 0 0 0 1.568-1.405 2.3 2.3 0 0 0-.267-2.158 2.3 2.3 0 0 0-.651-.623 2.3 2.3 0 0 0-.588-.266h-.003a2.3 2.3 0 0 0-.637-.092m0 1.51a.8.8 0 0 1 .776.626v.008a.78.78 0 0 1-.599.935.8.8 0 0 1-.602-.099l-.034-.024a.79.79 0 0 1-.208-1.075.78.78 0 0 1 .667-.369zM29.65 18.505a31 31 0 0 0-1.508.013c-1.862.115-3.937.953-5.633 3.735a2.84 2.84 0 0 0-3.287 2.285 2.845 2.845 0 0 0 2.795 3.374 2.84 2.84 0 0 0 2.792-2.33 2.86 2.86 0 0 0-.937-2.675c1.325-2.094 2.873-2.77 4.335-2.875 1.248-.096 2.195-.095 3.111-.028v-1.436a43 43 0 0 0-1.67-.063zm20.663.46c-.794 0-1.519.402-1.94 1.074a2.3 2.3 0 0 0 .383 2.924c.01.005.019.019.027.025-.506 1.702-1.12 4.606-.702 6.15q-.083.07-.16.151a2.34 2.34 0 0 0-.506.906c-1.266.185-1.653.494-2.264.893-.763.499-1.487.967-3.618 1.002-.738-.086-2.203-.066-2.854-.042a19 19 0 0 1-1.82.002c-.502-.027-.79-.333-1.3-.914-.591-.677-1.388-1.512-2.874-1.805v1.55c.797.236 1.278.72 1.744 1.252.558.639 1.193 1.361 2.35 1.424a19 19 0 0 0 1.956 0c.935-.031 2.538-.059 3.817.26.978.242 4.242 3.745 5.246 5.497a2.307 2.307 0 0 0 .493 3.274c.026.022.054.039.102.073a2.29 2.29 0 0 0 3.17-.717 2.3 2.3 0 0 0 .305-1.738 2.296 2.296 0 0 0-2.825-1.728c-.962-1.578-2.949-4.042-4.652-5.3.68-.237 1.145-.542 1.582-.827.536-.348.684-.499 1.525-.64.16.39.426.739.791.999.028.022.058.038.107.073a2.28 2.28 0 0 0 3.17-.716 2.3 2.3 0 0 0 .302-1.738 2.295 2.295 0 0 0-2.242-1.805q-.072.002-.142.006c-.267-1.191.342-3.645.7-4.964.042.004.087.011.13.011.793 0 1.52-.4 1.942-1.071a2.3 2.3 0 0 0 .301-1.738 2.3 2.3 0 0 0-2.244-1.804zm0 1.51a.794.794 0 0 1 .775.625.8.8 0 0 1-.104.596.805.805 0 0 1-1.095.246l-.036-.022a.794.794 0 0 1-.21-1.074.79.79 0 0 1 .67-.37zM22.038 23.68c.05-.01.16.044.222.055a1.35 1.35 0 0 1 1.071 1.57 1.355 1.355 0 0 1-1.563 1.076 1.344 1.344 0 0 1-1.073-1.565 1.345 1.345 0 0 1 1.315-1.105q.001-.028.028-.031m19.595 1.15c.15 0 .301.042.425.121a.8.8 0 0 1 .35.5.8.8 0 0 1-.777.973.795.795 0 0 1-.78-.93.8.8 0 0 1 .11-.297.8.8 0 0 1 .252-.246.8.8 0 0 1 .42-.12zm7.992 5.208a.794.794 0 0 1 .668 1.217.8.8 0 0 1-1.094.247l-.034-.02a.795.795 0 0 1 .46-1.444m-9.938 5.975a2.308 2.308 0 0 0-1.362 4.167c-1.522 3.476-3.932 5.431-5.187 6.035a.7.7 0 0 0-.135.064c-.12.055-.212.08-.318.115v1.58c.264-.065.58-.161.951-.332 2.01-.51 2.569-.133 3.157.268.383.26.861.587 1.601.626h.118c.792 0 3.686-.917 4.38-1.181a2.29 2.29 0 0 0 3.104.1 2.3 2.3 0 0 0 .796-1.573 2.3 2.3 0 0 0-.547-1.679 2.29 2.29 0 0 0-3.243-.249 2.31 2.31 0 0 0-.783 2.034c-.732.264-3.343 1.053-3.744 1.04-.31-.017-.488-.133-.835-.37-.44-.298-.334-.57-.984-.698 1.103-1.04 2.149-3.072 3.115-5.337a2.3 2.3 0 0 0 1.892-1.119 2.32 2.32 0 0 0-.796-3.164 2.3 2.3 0 0 0-1.18-.327m0 1.514a.798.798 0 0 1 0 1.593.8.8 0 0 1-.406-.115.8.8 0 0 1 .406-1.478m9.938 2.392a.794.794 0 0 1 .668 1.218.805.805 0 0 1-1.095.246l-.036-.02a.794.794 0 0 1 .463-1.444m-5.126 4.989c.232 0 .449.101.602.278a.796.796 0 0 1-1.204 1.037.8.8 0 0 1 .602-1.314z"/></svg>