<svg xmlns="http://www.w3.org/2000/svg" width="64" height="64" viewBox="0 0 16.933 16.933"><path fill="#714f79" d="M13.503 3.713c-1.347-1.096-3.136-1.7-5.037-1.7s-3.689.604-5.036 1.7c-1.36 1.107-2.107 2.58-2.107 4.15 0 1.499.682 2.91 1.925 3.997a1 1 0 0 0-.051.159l-.409 2.01c-.049.238.017.38.08.458.073.09.182.14.305.14a.65.65 0 0 0 .299-.083l2.376-1.234a8.6 8.6 0 0 0 2.618.403c1.901 0 3.69-.604 5.037-1.7 1.359-1.106 2.107-2.58 2.107-4.15s-.748-3.044-2.107-4.15"/><path fill="#f4f0f4" d="M9.421 8.978c.674-.597 1.568-.925 2.518-.925s1.845.329 2.518.925c.68.602 1.054 1.405 1.054 2.26 0 .816-.341 1.584-.963 2.175a.4.4 0 0 1 .026.087l.204 1.094c.025.13-.008.208-.04.25a.19.19 0 0 1-.152.076.3.3 0 0 1-.15-.045l-1.188-.672c-.411.144-.854.22-1.309.22-.95 0-1.844-.33-2.518-.926-.68-.602-1.054-1.404-1.054-2.26 0-.854.375-1.657 1.054-2.259"/><g fill="#f95" stroke-width=".889" transform="translate(-111.92 -158.61)scale(.31134)"><circle cx="393.04" cy="545.5" r="2.084" opacity=".837"/><circle cx="397.79" cy="545.5" r="2.084" opacity=".837"/><circle cx="402.78" cy="545.5" r="2.084" opacity=".837"/></g><path fill="#f9f9f9" d="M9.212 5.965c-.215.633-.013 1.29.451 1.467s1.015-.193 1.23-.826c.214-.633.012-1.29-.452-1.467s-1.014.193-1.23.826"/><path fill-opacity=".302" d="M10.928 6.476c-.011.044-.02.086-.036.13-.215.633-.765 1.003-1.229.827-.464-.178-.667-.834-.452-1.468q.023-.065.051-.125c-.15.59.055 1.172.487 1.336.433.165.938-.147 1.179-.702"/><path fill="#754d78" d="M9.422 6.239a.531.531 0 0 0 .592.717.53.53 0 0 0 .404-.36.53.53 0 1 0-.996-.357"/><path fill="#2d2d2d" d="M9.67 6.328a.265.265 0 1 0 .499.179.266.266 0 1 0-.498-.18"/><path fill="#f9f9f9" d="M9.684 6.43a.132.132 0 1 0 .249.089.14.14 0 0 0-.02-.133.13.13 0 0 0-.129-.045.13.13 0 0 0-.1.09M4.992 5.99C4.78 6.477 4.918 7 5.3 7.164s.866-.098 1.078-.583c.213-.484.074-1.009-.308-1.172-.384-.162-.866.098-1.08.583"/><path fill-opacity=".302" d="M6.47 5.98c.027.187-.001.4-.091.603-.213.485-.7.741-1.083.579-.293-.125-.439-.466-.396-.836.036.26.173.476.396.571.383.164.87-.094 1.083-.579q.074-.17.09-.338"/><path fill="#754d78" d="M5.29 6.153a.4.4 0 0 0 .193.357.396.396 0 0 0 .6-.357.396.396 0 1 0-.793 0"/><path fill="#2d2d2d" d="M5.488 6.153a.198.198 0 1 0 .396 0 .198.198 0 1 0-.396 0"/><path fill="#f9f9f9" d="M5.523 6.221a.1.1 0 0 0 .048.09c.032.018.07.018.102 0a.1.1 0 0 0 .048-.09.1.1 0 0 0-.048-.089.1.1 0 0 0-.102 0 .1.1 0 0 0-.048.09"/><path fill="#de6e00" d="M6.692 8.852c.25.928.438 1.27 1.11 1.27.715 0 1.046-.389 1.11-1.27-.797-.232-1.408-.24-2.22 0"/><path fill="#ffc894" d="M9.126 8.795s-.03-.435-.547-.903c-.516-.468-.73-.421-.82-.409-.005.535.036 2.082.044 2.639.426-.221.858-1.092 1.323-1.326"/><path fill="#eb953e" d="M7.755 7.475c-.122.004-.34.066-.727.416-.516.469-.547.904-.547.904.432.217.897 1.105 1.323 1.325.012-.561.012-2.08.012-2.64q-.026-.004-.06-.006"/></svg>