<svg width="64" height="64" version="1.1" viewBox="0 0 16.933 16.933" xmlns="http://www.w3.org/2000/svg">
 <g transform="translate(-.12014 -.36005)">
  <path d="m13.623 4.0735c-1.3471-1.0963-3.1358-1.7-5.0365-1.7s-3.6894 0.60377-5.0365 1.7c-1.3588 1.1058-2.1072 2.5796-2.1072 4.1499 0 1.4987 0.68213 2.9093 1.9256 3.9962-0.022423 0.05043-0.040218 0.10349-0.051578 0.15927l-0.4086 2.0098c-0.048584 0.23886 0.01671 0.38129 0.079968 0.45876 0.073143 0.08948 0.18156 0.1388 0.3053 0.1388 0.093429 0 0.19384-0.02756 0.29847-0.08196l2.3766-1.2347c0.82281 0.26484 1.7074 0.40372 2.6178 0.40372 1.9008 0 3.6894-0.60376 5.0365-1.7 1.3588-1.1058 2.1071-2.5796 2.1071-4.1499s-0.7483-3.0441-2.1071-4.1499z" fill="#714f79" stroke-width=".25786"/>
  <path d="m9.5412 9.3384c0.67356-0.59686 1.5679-0.92555 2.5182-0.92555 0.95037 0 1.8447 0.32871 2.5182 0.92555 0.67941 0.60204 1.0536 1.4044 1.0536 2.2593 0 0.81596-0.34107 1.5839-0.96282 2.1756 0.01125 0.02747 0.02014 0.05634 0.02578 0.08671l0.2043 1.0942c0.02428 0.13004-0.0083 0.20759-0.03999 0.24977-0.0366 0.04871-0.09078 0.07557-0.15265 0.07557-0.04672 0-0.09692-0.015-0.14923-0.04462l-1.1883-0.67217c-0.4114 0.14418-0.85368 0.21979-1.3089 0.21979-0.95037 0-1.8447-0.3287-2.5182-0.92555-0.67939-0.60203-1.0536-1.4044-1.0536-2.2593 0-0.85493 0.37415-1.6573 1.0535-2.2593z" fill="#f4f0f4" stroke-width=".25786"/>
  <g transform="matrix(.31134 0 0 .31134 -111.8 -158.25)" fill="#f95" stroke-width=".88889">
   <circle cx="393.04" cy="545.5" r="2.0844" opacity=".837"/>
   <circle cx="397.79" cy="545.5" r="2.0844" opacity=".837"/>
   <circle cx="402.78" cy="545.5" r="2.0844" opacity=".837"/>
  </g>
 </g>
 <g transform="matrix(-.26458 0 0 .26458 14.153 1.9198)">
  <g>
   <path d="m18.676 15.289c0.813 2.391 0.047 4.875-1.707 5.543s-3.836-0.727-4.645-3.121c-0.813-2.391-0.047-4.875 1.707-5.543s3.832 0.727 4.645 3.121" fill="#f9f9f9"/>
   <path d="m12.188 17.219c0.043 0.168 0.078 0.328 0.137 0.496 0.813 2.391 2.891 3.789 4.645 3.121 1.754-0.672 2.52-3.152 1.707-5.547-0.055-0.168-0.121-0.316-0.191-0.473 0.566 2.234-0.207 4.43-1.84 5.05-1.637 0.625-3.547-0.555-4.457-2.652" fill-opacity=".302"/>
   <g>
    <path d="m17.883 16.324c0.273 0.676 0.152 1.453-0.313 2.02-0.469 0.563-1.207 0.828-1.926 0.691-0.719-0.141-1.305-0.66-1.527-1.359-0.273-0.68-0.152-1.453 0.313-2.02 0.465-0.566 1.203-0.832 1.926-0.691 0.719 0.137 1.305 0.66 1.527 1.359" fill="#754d78"/>
    <path d="m16.941 16.66c0.137 0.34 0.078 0.727-0.156 1.012-0.234 0.281-0.602 0.414-0.961 0.344-0.363-0.066-0.656-0.328-0.766-0.68-0.137-0.336-0.078-0.727 0.156-1.012 0.234-0.277 0.602-0.414 0.961-0.348 0.363 0.07 0.656 0.332 0.766 0.68" fill="#2d2d2d"/>
    <path d="m16.891 17.05c0.07 0.168 0.039 0.363-0.078 0.504s-0.301 0.207-0.48 0.172c-0.18-0.035-0.324-0.164-0.383-0.34-0.066-0.168-0.035-0.363 0.078-0.504 0.117-0.141 0.305-0.207 0.484-0.172 0.18 0.035 0.324 0.164 0.379 0.34" fill="#f9f9f9"/>
    <path d="m34.625 15.387c0.801 1.832 0.281 3.816-1.168 4.43-1.445 0.617-3.273-0.371-4.074-2.203-0.805-1.828-0.281-3.813 1.164-4.43 1.449-0.613 3.273 0.371 4.078 2.203" fill="#f9f9f9"/>
   </g>
   <path d="m29.04 15.344c-0.102 0.707 4e-3 1.516 0.344 2.281 0.805 1.832 2.641 2.801 4.09 2.188 1.109-0.473 1.66-1.762 1.5-3.16-0.137 0.984-0.656 1.801-1.5 2.16-1.445 0.617-3.285-0.355-4.09-2.188-0.188-0.43-0.297-0.855-0.344-1.281" fill-opacity=".302"/>
   <g>
    <path d="m33.5 16c0.02 0.547-0.262 1.066-0.73 1.348-0.473 0.277-1.063 0.277-1.535 0-0.473-0.281-0.754-0.801-0.73-1.348-0.023-0.551 0.258-1.066 0.73-1.348 0.473-0.281 1.063-0.281 1.535 0 0.469 0.281 0.75 0.797 0.73 1.348" fill="#754d78"/>
    <path d="m32.75 16c0.012 0.273-0.129 0.531-0.363 0.672-0.238 0.141-0.531 0.141-0.77 0-0.234-0.141-0.375-0.398-0.363-0.672-0.012-0.273 0.129-0.531 0.363-0.672 0.238-0.141 0.531-0.141 0.77 0 0.234 0.141 0.375 0.398 0.363 0.672" fill="#2d2d2d"/>
    <path d="m32.617 16.258c8e-3 0.137-0.063 0.266-0.18 0.336-0.121 0.07-0.266 0.07-0.387 0-0.117-0.07-0.188-0.199-0.18-0.336-8e-3 -0.137 0.063-0.266 0.18-0.336 0.121-0.07 0.266-0.07 0.387 0 0.117 0.07 0.188 0.199 0.18 0.336" fill="#f9f9f9"/>
    <path d="m28.2 26.2c-0.949 3.508-1.656 4.801-4.195 4.801-2.703 0-3.953-1.469-4.195-4.801 3.01-0.875 5.32-0.906 8.391 0" fill="#de6e00"/>
    <path d="m19 25.984s0.113-1.641 2.066-3.41c1.953-1.77 2.758-1.594 3.098-1.547 0.023 2.02-0.133 7.867-0.164 9.973-1.609-0.836-3.242-4.125-5-5.01" fill="#ffc894"/>
    <path d="m24.18 20.996c0.461 0.016 1.285 0.25 2.75 1.574 1.949 1.77 2.066 3.414 2.066 3.414-1.633 0.82-3.391 4.176-5 5.01-0.043-2.121-0.043-7.859-0.043-9.977 0.063-8e-3 0.137-0.023 0.227-0.023" fill="#eb953e"/>
   </g>
  </g>
 </g>
</svg>
