<svg xmlns="http://www.w3.org/2000/svg" width="64" height="64"><circle cx="32" cy="32" r="27" fill="#f2f2f2"/><path fill="#b55b10" d="m30.241 27.064 4.066 3.801C41.494 23.802 52.09 6.887 52.09 6.887c.429-1.224-1.087-1.996-1.846-1.17-.001 0-13.691 14.097-20.003 21.347z"/><path fill="#999" d="m22.639 37.291 2.246 1.934 8.493-7.367.275-.706 1.094-.018c-.438-1.563-2.942-4.383-4.817-4.383l.082 1.09-.67.38z"/><path fill="#ccc" d="m22.981 37.847 7.503-9.089s.884.373 1.187 1.182l-8.337 8.362z"/><path fill="#4d4d4d" d="M12.347 45.201c6.605 0 11.618.787 12.567-4.019.765-3.873-4.56-5.728-7.199-2.27-2.542 3.33-5.368 6.29-5.368 6.29z"/><path fill="#0376c5" d="M40.447 13.58c-3.058.087-5.484 1.056-5.484 2.224v3.57c0 1.226 2.671 2.224 5.941 2.224s5.916-.999 5.916-2.224v-3.57c0-1.226-2.646-2.224-5.916-2.224-.153 0-.307-.004-.457 0z"/><path fill="#e6e6e6" d="M32.092 44.86 34.1 23.654l2.666-3.627c2.012-.62 6.797-.598 8.561.042l2.417 3.718 1.578 21.661z"/><path fill="#fcfcfc" d="m34.1 23.654 2.666-3.627c2.012-.62 6.797-.598 8.561.042l2.417 3.718c-6.84-2.188-13.644-.133-13.644-.133z"/><path fill="#d6d7d7" d="M33.012 44.606s3.033-9.457 8.014-9.432c5.14.026 7.777 9.89 7.777 9.89z"/><path fill="#32a4ea" d="m33.734 27.527-.627 6.62c3.643-1.859 13.057-1.43 15.41.221l-.5-6.863c-3.134-1.636-11.528-1.447-14.283.022z"/><path fill="#c2c2c3" d="M31.788 43.66h18.207c.488 0 .884.395.884.883v2.16a.884.884 0 0 1-.884.884H31.788a.884.884 0 0 1-.884-.884v-2.16c0-.488.396-.884.884-.884z"/><path fill="#f3f4f3" d="M36.146 15.504v3.24s.611-.348.991-.36v-3.26c-.482.07-.99.38-.99.38z" opacity=".238"/><path fill="#f3f4f3" d="M38.146 14.883v3.24s.611-.083.991-.096v-3.315c-.512.026-.99.171-.99.171z" opacity=".578"/><path fill="#f3f4f3" d="M40.146 14.684v3.295s.556-.005.991.014v-3.336c-.5-.052-.99.027-.99.027z" opacity=".257"/></svg>