<svg width="64" height="64" version="1.1" xmlns="http://www.w3.org/2000/svg">
 <path class="shp1" d="m32 59c14.911 0 27-12.089 27-27s-12.089-27-27-27-27 12.089-27 27 12.089 27 27 27z" fill="#a14dc8" stroke-width="2.8229"/>
 <path id="Combined Shape" d="m32.59 16.024c-6.9102 0-12.513 5.6172-12.513 12.544v15.627c0.1458-0.0288 0.2952-0.04395 0.45-0.04395 1.242 1e-6 2.25 1.008 2.25 2.25 0 0.8928-0.51848 1.6632-1.2709 2.0268 0.6786 0.5616 1.551 0.89824 2.4995 0.89824 2.169 0 3.9269-1.7648 3.9269-3.9393l0.0018-16.82c0-2.5776 2.0842-4.6687 4.6564-4.6687h0.11425c2.5038 0 4.4786 1.984 4.4876 4.4789 0.0018-0.036 0.0035-0.07298 0.0035-0.10898l-0.0035 0.22148-0.0018-0.0018c0.0018-0.036 0.0018-0.07474 0.0018-0.11074-0.1098 2.5344-2.2327 4.6353-4.5457 4.6353-2.169 0-3.9269 1.7631-3.9269 3.9375s1.758 3.9357 3.9269 3.9357c6.5934 0 12.147-5.5093 12.397-12.242 0.0018-0.03543 0.0018-0.07184 0.0035-0.10898v-0.11078c0.018-6.8544-5.4745-12.399-12.343-12.399zm0.08438 18.452c1.3662 1e-6 2.475 1.1088 2.475 2.475s-1.1088 2.475-2.475 2.475c-1.3662 1e-6 -2.475-1.1088-2.475-2.475s1.1088-2.475 2.475-2.475z" fill="#fff" stroke-width="2.8229"/>
</svg>
