<svg width="64" height="64" version="1.1" viewBox="0 0 64 64" xmlns="http://www.w3.org/2000/svg">
 <g transform="matrix(1.1739 0 0 1.1739 3.8261 3.8261)">
  <circle cx="24" cy="24" r="23" fill="#22ad97"/>
  <rect x="12" y="12" width="24" height="24" ry="3" fill="#f6f3ef"/>
  <path d="m16 26v7h1v-3h1.0312c0.21302 1.7218 1.4776 2.9999 2.9688 3 1.6569 1.5e-4 3-1.567 3-3.5s-1.3431-3.5002-3-3.5c-1.4911 1.3e-4 -2.7557 1.2782-2.9688 3h-1.0312v-3zm5 1c1.1046 0 2 1.1193 2 2.5s-0.89543 2.5-2 2.5-2-1.1193-2-2.5 0.89543-2.5 2-2.5z" fill="#177eab"/>
  <path d="m28 24 1 1h1l-0.5-1zm1 2-2.5 7h1.1992l0.6582-2h2.2852l0.6582 2h1.1992l-2.5-7zm0.5 1.5215 0.81445 2.4785h-1.6289z" fill="#e26f36"/>
  <path d="m23 15s-2 1-4 1v1c0.73114 0 1.4021-0.0606 2-0.15039v1.1504h-2v1h1.7773l-1.7773 2 0.5 1 1.5-1.75v2.75h1v-3.5l1.5 1.5 0.5-1-1-1h1v4h1v-1h2v1h1v-7h-4v2h-2v-1.3398c1.2572-0.29001 2-0.66016 2-0.66016zm2 2h2v4h-2z" fill="#b753c6"/>
 </g>
</svg>
