<svg xmlns="http://www.w3.org/2000/svg" width="64" height="64" viewBox="0 0 16.933 16.933"><defs><linearGradient id="a" x1="10.583" x2="10.583" y1="283.51" y2="294.62" gradientTransform="translate(-.794 .265)" gradientUnits="userSpaceOnUse"><stop offset="0" stop-color="#69e17c"/><stop offset="1" stop-color="#5eda82"/></linearGradient></defs><g paint-order="stroke markers fill" transform="translate(0 -280.07)"><path fill="#f9f9f9" d="M7.144 282.18a5.556 5.556 0 0 0-5.557 5.557v5.556h5.557a5.556 5.556 0 0 0 5.556-5.556 5.556 5.556 0 0 0-5.556-5.557"/><path fill="url(#a)" d="M9.79 283.77a5.556 5.556 0 0 1 5.556 5.557v5.556H9.79a5.556 5.556 0 0 1-5.557-5.556 5.556 5.556 0 0 1 5.557-5.556z" opacity=".65"/><path fill="#70bd87" d="M9.79 283.774a5.556 5.556 0 0 0-5.557 5.556 5.56 5.56 0 0 0 1.677 3.97h1.235a5.556 5.556 0 0 0 5.556-5.556 5.56 5.56 0 0 0-1.491-3.778 5.6 5.6 0 0 0-1.42-.19z" opacity=".35"/><rect width="4.762" height=".529" x="7.673" y="288.53" fill="#fff" ry=".265"/><rect width="3.969" height=".529" x="7.673" y="290.12" fill="#fff" ry=".265"/></g></svg>