<svg width="64" height="64" version="1.1" viewBox="0 0 16.933 16.933" xmlns="http://www.w3.org/2000/svg" xmlns:xlink="http://www.w3.org/1999/xlink">
 <defs>
  <linearGradient id="c" x1="10.583" x2="10.583" y1="283.51" y2="294.62" gradientTransform="translate(-.794 .265)" gradientUnits="userSpaceOnUse">
   <stop stop-color="#69e17c" offset="0"/>
   <stop stop-color="#5eda82" offset="1"/>
  </linearGradient>
 </defs>
 <g transform="translate(0 -280.07)" paint-order="stroke markers fill">
  <path d="m7.144 282.18a5.556 5.556 0 0 0-5.557 5.557v5.556h5.557a5.556 5.556 0 0 0 5.556-5.556 5.556 5.556 0 0 0-5.556-5.557z" fill="#f9f9f9"/>
  <path d="M9.79 283.77a5.556 5.556 0 0 1 5.556 5.557v5.556H9.79a5.556 5.556 0 0 1-5.557-5.556 5.556 5.556 0 0 1 5.557-5.556z" fill="url(#c)" opacity=".65"/>
  <path transform="matrix(.26458 0 0 .26458 0 280.07)" d="M37 14a21 21 0 0 0-21 21 21 21 0 0 0 6.332 15H27a21 21 0 0 0 21-21 21 21 0 0 0-5.635-14.277A21 21 0 0 0 37 14z" fill="#70bd87" opacity=".35"/>
  <rect x="7.673" y="288.53" width="4.762" height=".529" ry=".265" fill="#fff"/>
  <rect x="7.673" y="290.12" width="3.969" height=".529" ry=".265" fill="#fff"/>
 </g>
</svg>
