<svg width="64" height="64" version="1.1" xmlns="http://www.w3.org/2000/svg">
 <circle cx="31.998" cy="31.998" r="27.001" fill="#38c5d7" stroke-width="3.7796"/>
 <g transform="matrix(.75 0 0 .75 8 8)">
  <path d="m18 39v13.521c0 0.81672 0.68524 1.4791 1.5293 1.4791h23.941c0.84413 0 1.5293-0.66235 1.5293-1.4791v-13.521z" fill="#ffffff"/>
  <path d="m18 36.479c0-0.81672 0.68425-1.4787 1.5283-1.4787h23.943c0.84413 0 1.5283 0.66195 1.5283 1.4787v2.5213h-27z" fill="#ffad00"/>
  <path d="m8 16v13.518c0 0.81774 0.68524 1.4817 1.5293 1.4817h23.941c0.84413 0 1.5293-0.66398 1.5293-1.4817v-13.518z" fill="#ffffff"/>
  <path d="m8 13.481c0-0.81767 0.68425-1.4805 1.5283-1.4805h23.943c0.84413 0 1.5283 0.66285 1.5283 1.4805v2.5195h-27z" fill="#ffad00"/>
  <path d="m39 18v8c0 0.55225 0.45497 1 1.0155 1h14.969c0.56049 0 1.0155-0.44775 1.0155-1v-8z" fill="#ffffff"/>
  <path d="m39 16c0-0.55227 0.45443-1 1.0149-1h14.97c0.56049 0 1.0149 0.44773 1.0149 1v2h-17z" fill="#ffad00"/>
 </g>
</svg>
