<svg width="64" height="64" version="1.1" xmlns="http://www.w3.org/2000/svg">
 <circle cx="31.998" cy="31.998" r="27.001" fill="#f9f9f9" stroke-width="3.7796"/>
 <g transform="matrix(.5 0 0 .5 16 16)">
  <rect x="4" y="36" width="24" height="24" rx="3.529" ry="3.529" fill="#38c5d7"/>
  <rect x="4" y="4" width="24" height="24" rx="3.529" ry="3.529" fill="#38c5d7"/>
  <rect x="36" y="4" width="24" height="24" rx="3.529" ry="3.529" fill="#38c5d7"/>
  <path d="m32.942 30.575-3.0844 2.8492 16.8 18.2 3.0844-2.8492z" fill="#ffffff"/>
  <circle cx="31" cy="33" r="15" fill="#ffffff"/>
  <circle cx="31" cy="33" r="11" fill="#38c5d7"/>
  <path d="m46.189 44.183c0.24565-0.24406 0.64306-0.2435 0.88787 0.0017l9.9169 9.9369c1.3459 1.3486 1.3417 3.5309-0.0098 4.8742-1.3512 1.343-3.5375 1.3388-4.8834-0.01l-9.9171-9.9368c-0.24453-0.24517-0.24397-0.6418 0.0017-0.88614z" fill="#ffad00"/>
  <path d="m31.093 24.001c0.22599-0.05612 0.52937 0.11 0.64741 0.36122 0.16282 0.34722-0.0196 0.72612-0.40822 0.84641-0.1711 0.053-1.0686 0.29811-2.2084 0.84263-0.40797 0.19488-0.84674 0.45691-1.2943 0.72186-1.1405 0.67514-2.3207 1.775-2.9769 2.7671-0.61415 0.92856-0.99219 1.7715-1.2943 3.0032-0.15892 0.64775-0.25886 1.8047-0.25886 1.925 0 0.48124-0.22459 0.71657-0.61933 0.72162-0.39831 0.0054-0.67498-0.24038-0.67498-0.72162 0-0.40978-0.0641-1.6766 0.25886-2.8875 0.24587-0.92182 0.76439-1.9488 1.4237-2.8829 1.0287-1.4572 2.5226-2.7048 4.4007-3.618 0.90653-0.44084 1.9091-0.80483 3.0046-1.0791z" fill="#ffffff"/>
 </g>
</svg>
