<svg width="64" height="64" version="1.1" viewBox="0 0 16.933 16.933" xmlns="http://www.w3.org/2000/svg" xmlns:xlink="http://www.w3.org/1999/xlink">
 <defs>
  <radialGradient id="radialGradient1022" cx="51.783" cy="-71.55" r="26.61" gradientTransform="matrix(.301 .0036858 -.0030125 .24602 -5.5452 21.865)" gradientUnits="userSpaceOnUse">
   <stop stop-color="#f9eee5" offset="0"/>
   <stop stop-color="#f4e7db" offset=".31739"/>
   <stop stop-color="#d3b28f" offset="1"/>
  </radialGradient>
  <radialGradient id="radialGradient1034" cx="51.067" cy="-67.575" r="26.61" gradientTransform="matrix(.19721 .12307 -.060453 .096869 -3.9354 5.1936)" gradientUnits="userSpaceOnUse">
   <stop stop-color="#ecded0" stop-opacity="0" offset="0"/>
   <stop stop-color="#ebddcf" stop-opacity="0" offset=".33654"/>
   <stop stop-color="#cca987" offset="1"/>
  </radialGradient>
 </defs>
 <g transform="matrix(1.2983 0 0 1.2983 -2.6498 -2.6951)">
  <path d="m4.7523 8.8932c0.028157-0.23386-0.039398-0.48366 0.20729-0.68108-0.38967 0.087618-1.2376-1.4787 0.41457-1.6139-2.5454-0.69548 0.69957-3.5017 1.5694-1.4362 1.7175-3.7324 6.9735-1.5618 4.7825 1.5694 0.76399-0.11365 1.6242 1.1432 0.37016 1.7028 0.54642 0.32861 0.50343 0.98748-0.26651 1.0661l-4.7529 0.72551z" fill="url(#radialGradient1022)" stroke-width=".15669"/>
  <path d="m9.789 3.1929c-0.71273 4.14e-5 -1.4621 0.25806-2.0726 0.85232a5.1821 4.8861 0 0 1 4.1979 2.3875c1.0217-1.8166-0.44968-3.2399-2.1253-3.2398z" fill="url(#radialGradient1034)" stroke-width=".041457"/>
  <path d="m8.0185 3.59c-0.14316-0.060001-0.30931-0.065155-0.46496-0.0014259-0.25437 0.10414-0.39917 0.35904-0.37424 0.61863 0.00315 0.070526 0.012703 0.10119 0.042226 0.1733l8.99e-5 2.194e-4 0.063508 0.15496 0.12691 0.30996 4.43e-5 1.086e-4 0.23001 0.56194 1.027-0.42048c0.066284-0.028978 0.11655-0.062121 0.17289-0.10806 0.18808-0.1662 0.25974-0.43806 0.15902-0.68408-0.11499-0.28085-0.41371-0.42801-0.69967-0.36068-0.067997-0.1119-0.16771-0.19614-0.28283-0.24441z" fill="#cc1e1f" stroke-width=".15669"/>
  <path d="m5.8833 3.3791c-0.077217 0.075449-0.13184 0.17382-0.14582 0.27745-0.022844 0.16935 0.070279 0.29849 0.2189 0.32706 0.039248 0.00992 0.058862 0.00935 0.1072 0.00379l1.509e-4 -1.61e-5 0.10389-0.011988 0.20777-0.023908 7.3e-5 -8.3e-6 0.37664-0.043304 0.078314-0.58058 0.013914-0.10315c0.00495-0.044437 0.00265-0.080004-0.00469-0.12135-0.031504-0.14015-0.15664-0.22845-0.32155-0.20948-0.18825 0.021662-0.36128 0.17543-0.41394 0.35749-0.081922 0.021879-0.15873 0.067319-0.22082 0.128z" fill="#cc1e1f" stroke-width=".15669"/>
  <path d="m4.7523 8.8932c0.028157-0.23386-0.039398-0.48366 0.20729-0.68108-0.38967 0.087618-1.2376-1.4787 0.41457-1.6139-2.5454-0.69548 0.69957-3.5017 1.5694-1.4362 1.7175-3.7324 6.9735-1.5618 4.7825 1.5694 0.76399-0.11365 1.6242 1.1432 0.37016 1.7028 0.54642 0.32861 0.50343 0.98748-0.26651 1.0661l-4.7529 0.72551z" fill="#ffdbb3" stroke-width=".15669"/>
  <path d="m6.9834 9.5359 0.22209 4.7675 0.67472-0.06768 0.67472-0.07651 0.67472-0.07121 0.67472-0.07244 0.67472-0.07105 0.67472-0.07347 0.67472-0.07105 0.5182-4.7231c0.035529-0.38686-0.51076-0.43751-0.78048 0.061664-0.030932-0.51279-0.79812-0.35293-0.78048 0.063543-0.023511-0.42078-0.78276-0.40046-0.78048 0.064996-0.011023-0.4738-0.81731-0.43793-0.78048 0.069583-0.039327-0.51878-0.80634-0.41531-0.78048 0.06325-0.022068-0.47097-0.80715-0.36122-0.78048 0.066743-0.024596-0.43232-0.79082-0.44491-0.78048 0.069212z" fill="#ffffff"/>
  <path d="m8.5443 9.3999c-0.022068-0.47097-0.80715-0.36122-0.78048 0.066743l0.11633 4.769 0.67472-0.07651zm1.561-0.13283c-0.011023-0.4738-0.81731-0.43793-0.78048 0.069583l-0.09518 4.7513 0.67472-0.07244zm1.561-0.12854c-0.030932-0.51279-0.79812-0.35293-0.78048 0.063543l-0.30669 4.7424 0.67472-0.07347z" fill="#d30d0e"/>
  <path d="m7.2054 14.303-1.8803-1.2881-0.68107-4.3751c-0.058136-0.36492 0.27149-0.17911 0.26951 0.1032-4.7e-4 -0.28851 0.22362-0.41699 0.33009 0.12639 0.0010185-0.37139 0.19048-0.35227 0.32212 0.12334-0.0019398-0.3641 0.20481-0.42303 0.32116 0.12298 0.031278-0.46583 0.26365-0.33253 0.34891 0.1336-0.0031744-0.30195 0.28494-0.51666 0.42144 0.16137-0.024234-0.52453 0.31443-0.3364 0.3261 0.12487z" fill="#e6e6e6"/>
  <path d="m6.8917 14.088-0.30294-0.20753-0.35299-4.6313c-0.0031744-0.30195 0.28494-0.51666 0.42144 0.16137zm-0.55352-0.37918-0.27113-0.18573-0.50136-4.5305c-0.0019398-0.3641 0.20481-0.42303 0.32116 0.12298zm-0.53693-0.36782-0.24407-0.1672-0.64369-4.4309c-4.7e-4 -0.28851 0.22362-0.41699 0.33009 0.12639" fill="#af090b"/>
  <circle cx="10.56" cy="6.7793" r=".59595" fill="#430201" stroke-width=".15669"/>
  <circle cx="10.686" cy="6.5869" r=".15917" fill="#ffffff" stroke-width=".15669"/>
  <circle cx="6.8287" cy="6.7794" r=".59595" fill="#430201" stroke-width=".15669"/>
  <circle cx="6.9546" cy="6.5869" r=".15917" fill="#ffffff" stroke-width=".15669"/>
  <g transform="matrix(.15669 0 0 .15669 15.656 7.3176)">
   <path d="m-48.635-0.44417h8.41c0.8376 0 1.5119 0.67431 1.5119 1.5119v1.8426c0 6.67-11.434 6.4808-11.434 0v-1.8426c0-0.8376 0.67431-1.5119 1.5119-1.5119z" fill="#330002"/>
   <path d="m-44.43 5.0835a3.4254 3.4254 0 0 0-3.1166 2.0128c1.8714 0.97368 4.3816 0.99623 6.2492 0.037207a3.4254 3.4254 0 0 0-3.1326-2.05z" fill="#8d161a"/>
  </g>
 </g>
</svg>
