<svg width="64" height="64" version="1.1" xmlns="http://www.w3.org/2000/svg">
 <path d="m31.312 5.0065c-13.104 0.30421-24.371 10.149-26.09 23.55-1.8971 14.787 8.5455 28.324 23.332 30.221 14.787 1.8971 28.31-8.5433 30.223-23.33 1.8971-14.787-8.5446-28.326-23.348-30.223-1.3863-0.17937-2.7621-0.24899-4.1177-0.21753z" fill="#ff7f23" stroke-width=".16213"/>
 <path d="m31.389 8.0059c-11.648 0.27041-21.663 9.0213-23.191 20.933-1.6863 13.144 7.596 25.177 20.74 26.863 13.144 1.6863 25.164-7.594 26.865-20.738 1.6863-13.144-7.5952-25.179-20.754-26.865-1.2323-0.15944-2.4552-0.22132-3.6602-0.19336z" fill="#fff" opacity=".1" stroke-width=".14412"/>
 <path d="m44.653 15.162c0.9627-0.04053 1.9396 0.26111 2.7422 0.90965l-3.632 3.6145c-0.09729 0.1135-0.09729 0.27541 0 0.38891l2.8212 2.8058c-1.5889 0.77826-3.5028 0.4539-4.7351-0.81078l0.01538 0.03296c-1.5727-1.6376-1.5079-4.2323 0.12964-5.8052 0.74583-0.71341 1.6959-1.0954 2.6587-1.136zm3.1311 1.281c1.4916 1.6051 1.4431 4.1036-0.12963 5.66-0.19457 0.17836-0.39043 0.35725-0.61743 0.50317l-2.7069-2.7092 3.454-3.454zm-0.13622 2.0852c-0.06688-0.01216-0.13949-9.83e-4 -0.20434 0.03955-0.14592 0.06486-0.22745 0.24299-0.16259 0.38891 0 0.01622 0.01538 0.01674 0.01538 0.03296 0.16213 0.32428 0.13115 0.72851-0.11206 1.0041-0.1135 0.1135-0.13107 0.30837-0.01758 0.42187l0.01758 0.01758c0.06486 0.01622 0.14608 0.01622 0.21094 0 0.08107 0 0.17767-0.0494 0.22631-0.11425 0.40534-0.4702 0.48521-1.134 0.19336-1.6852-0.04053-0.05674-0.10011-0.09331-0.16699-0.10547zm-8.1518 2.8323c0.5804 0.04687 1.0361 0.32141 1.4941 0.69433-0.50263 0.01622-0.97263 0.21018-1.3293 0.56689l-10.022 10.019-2.1401-2.1401c7.3935-7.3814 10.256-9.2811 11.997-9.1405zm1.5271 1.314c0.35671 0 0.71312 0.13237 0.98876 0.3999 0.27563 0.27563 0.42051 0.64879 0.4043 1.0217-0.01621 0.38913-0.17836 0.74691-0.47021 1.0063l-10.556 9.3075-1.3447-1.4106 9.9865-9.925c0.27563-0.26752 0.63424-0.3999 0.99096-0.3999zm1.5556 2.5093c-0.34049 3.0158-4.5878 7.296-8.9494 11.462l-1.8809-1.8809 10.553-9.2899c0.09729-0.08107 0.19578-0.17874 0.27685-0.29224zm-15.469 5.6425 1.9951 2.0434-4.5241 0.97118c-0.09729 0.01622-0.19472-0.04773-0.21094-0.14502-0.01621-0.06486-3.03e-4 -0.11395 0.04834-0.1626l0.04834-0.06372 2.6433-2.6433zm2.5619 2.6433 1.1184 1.0371-2.4807 0.6328c-0.04864 0.03244-0.09638 0.03244-0.14502 0-0.03242-0.04864-0.03242-0.11396 0-0.16259l1.5073-1.5073zm1.5886 1.5402 1.9621 1.96c-3.5022 2.9184-7.3601 5.4011-11.478 7.3629v0.03076h-0.01758c-0.21078 0.11349-0.3233 0.3421-0.27465 0.56908l0.45263 1.9445c0.03242 0.12971-0.03235 0.26033-0.12964 0.32519-0.09729 0.08107-0.24193 0.08107-0.323 0l-2.7576-2.8388 8.4637-8.4791 4.1023-0.8745zm-13.004 9.7602 2.7576 2.7399-4.7351-0.30762c-0.06485-0.01622-0.131-0.06561-0.14722-0.11425-0.01622-0.06486-0.01622-0.12933 0-0.17797l2.1248-2.1401z" fill="#fff" stroke-width=".16213"/>
</svg>
