<svg width="64" height="64" version="1.1" xmlns="http://www.w3.org/2000/svg">
 <rect x="5" y="5" width="54" height="54" ry="27" fill="#f9f9f9" stroke-width=".9104"/>
 <g transform="matrix(1.4999,0,0,1.4999,-580.81,-753.64)" font-size="12.666px" stroke-width=".66672">
  <text x="730.88" y="132.19" font-family="'Droid Sans'" stroke-width=".66672"/>
 </g>
 <g transform="matrix(1.4999 0 0 1.4999 -580.81 -753.64)" font-size="12.666px" stroke-width=".66672">
  <text x="730.88" y="132.19" font-family="'Droid Sans'" stroke-width=".66672"/>
 </g>
 <rect x="64.965" y="29.793" width=".067495" height="0" fill="#000cff" opacity=".40741"/>
 <path d="m34.252 13-12.629 2.8906 2.2871 10.084 7.7598 4.9707 4.8691-7.8633-2.2871-10.082zm13.869 8.6621-10.035 2.2988-4.9473 7.7949 7.8242 4.8926 10.037-2.2969-2.8789-12.689zm-25.086 5.6523-10.035 2.2988 2.8789 12.688 10.035-2.2988 4.9473-7.7949-7.8262-4.8926zm9.1348 5.7402-4.8691 7.8613 2.2871 10.084 12.629-2.8926-2.2871-10.082-7.7598-4.9707z" fill="#2f6693"/>
 <path d="m33.26 14.684-10.016 2.2949 1.752 7.7207 6.123 3.8086 3.8926-6.1016-1.752-7.7227zm13.779 8.6074-7.6836 1.7598-3.791 6.1523 6.0742 3.9102 7.6836-1.7598-2.2832-10.062zm-24.678 5.5586-7.6855 1.7598 2.2832 10.062 7.6855-1.7598 3.791-6.1523-6.0742-3.9102zm10.359 6.6426-3.8926 6.1016 1.752 7.7207 10.016-2.293-1.752-7.7207-6.123-3.8086z" fill="#46abd2"/>
</svg>
