<?xml version="1.0" encoding="UTF-8" standalone="no"?>
<!-- Created with Inkscape (http://www.inkscape.org/) -->

<svg
   xmlns:dc="http://purl.org/dc/elements/1.1/"
   xmlns:cc="http://creativecommons.org/ns#"
   xmlns:rdf="http://www.w3.org/1999/02/22-rdf-syntax-ns#"
   xmlns:svg="http://www.w3.org/2000/svg"
   xmlns="http://www.w3.org/2000/svg"
   xmlns:sodipodi="http://sodipodi.sourceforge.net/DTD/sodipodi-0.dtd"
   xmlns:inkscape="http://www.inkscape.org/namespaces/inkscape"
   width="64"
   height="64"
   viewBox="0 0 16.933333 16.933333"
   version="1.1"
   id="svg4572"
   inkscape:version="0.92.3 (2405546, 2018-03-11)"
   sodipodi:docname="preferences-system-parental-controls.svg">
  <title
     id="title4611">Canvas icon theme</title>
  <defs
     id="defs4566" />
  <sodipodi:namedview
     id="base"
     pagecolor="#ffffff"
     bordercolor="#666666"
     borderopacity="1.0"
     inkscape:pageopacity="0.0"
     inkscape:pageshadow="2"
     inkscape:zoom="4.0000002"
     inkscape:cx="11.4202"
     inkscape:cy="40.466301"
     inkscape:document-units="px"
     inkscape:current-layer="layer1"
     showgrid="true"
     units="px"
     width="64px"
     showguides="true"
     inkscape:guide-bbox="true"
     inkscape:window-width="654"
     inkscape:window-height="477"
     inkscape:window-x="803"
     inkscape:window-y="440"
     inkscape:window-maximized="0"
     inkscape:snap-bbox="true"
     inkscape:bbox-nodes="true"
     inkscape:snap-bbox-edge-midpoints="true"
     inkscape:snap-nodes="true">
    <inkscape:grid
       type="xygrid"
       id="grid4582" />
    <sodipodi:guide
       position="1.0583333,15.875"
       orientation="0,1"
       id="guide4584"
       inkscape:locked="false" />
    <sodipodi:guide
       position="1.0583333,1.0583333"
       orientation="1,0"
       id="guide4586"
       inkscape:locked="false" />
    <sodipodi:guide
       position="15.875,15.875"
       orientation="1,0"
       id="guide4588"
       inkscape:locked="false" />
    <sodipodi:guide
       position="1.0583333,1.0583333"
       orientation="0,1"
       id="guide4590"
       inkscape:locked="false" />
    <sodipodi:guide
       position="8.4666665,8.4666665"
       orientation="0,1"
       id="guide822"
       inkscape:locked="false" />
    <sodipodi:guide
       position="8.4666665,8.4666665"
       orientation="1,0"
       id="guide824"
       inkscape:locked="false" />
  </sodipodi:namedview>
  <metadata
     id="metadata4569">
    <rdf:RDF>
      <cc:Work
         rdf:about="">
        <dc:format>image/svg+xml</dc:format>
        <dc:type
           rdf:resource="http://purl.org/dc/dcmitype/StillImage" />
        <dc:title>Canvas icon theme</dc:title>
        <cc:license
           rdf:resource="http://creativecommons.org/licenses/by-nc-sa/4.0/" />
        <dc:creator>
          <cc:Agent>
            <dc:title>Vince Liuice</dc:title>
          </cc:Agent>
        </dc:creator>
      </cc:Work>
      <cc:License
         rdf:about="http://creativecommons.org/licenses/by-nc-sa/4.0/">
        <cc:permits
           rdf:resource="http://creativecommons.org/ns#Reproduction" />
        <cc:permits
           rdf:resource="http://creativecommons.org/ns#Distribution" />
        <cc:requires
           rdf:resource="http://creativecommons.org/ns#Notice" />
        <cc:requires
           rdf:resource="http://creativecommons.org/ns#Attribution" />
        <cc:prohibits
           rdf:resource="http://creativecommons.org/ns#CommercialUse" />
        <cc:permits
           rdf:resource="http://creativecommons.org/ns#DerivativeWorks" />
        <cc:requires
           rdf:resource="http://creativecommons.org/ns#ShareAlike" />
      </cc:License>
    </rdf:RDF>
  </metadata>
  <g
     inkscape:label="Layer 1"
     inkscape:groupmode="layer"
     id="layer1"
     transform="translate(0,-280.06667)">
    <rect
       style="fill:#fecd38;stroke-width:0.2456845;fill-opacity:1"
       width="13.758333"
       height="13.758333"
       x="-295.41251"
       y="-15.345833"
       rx="6.8791666"
       ry="6.8791666"
       transform="matrix(0,-1,-1,0,0,0)"
       id="rect2" />
    <rect
       id="rect903"
       transform="matrix(0,-1,-1,0,0,0)"
       ry="5.8208418"
       rx="5.8208418"
       y="-14.287508"
       x="-294.35419"
       height="11.641684"
       width="11.641684"
       style="opacity:0.15;fill:#000000;stroke-width:0.20788719" />
    <g
       id="g43"
       transform="translate(-14.022916,-2.1166535)"
       style="fill:#f9f9f9">
      <path
         id="path8"
         d="m 21.159737,286.94581 c -0.511439,0 -0.926041,0.4146 -0.926041,0.92604 0,0.51144 0.414602,0.92604 0.926041,0.92604 0.51144,0 0.926042,-0.4146 0.926042,-0.92604 0,-0.51144 -0.414602,-0.92604 -0.926042,-0.92604 z"
         style="fill:#f9f9f9;stroke-width:0.26458332"
         inkscape:connector-curvature="0" />
      <path
         id="path10"
         d="m 20.427635,289.06248 c -0.149489,0 -0.23151,0.0899 -0.289189,0.22807 l -0.926042,1.90492 c -0.204756,0.46175 0.499771,0.75549 0.683683,0.28506 0.107157,-0.27993 0.218811,-0.55854 0.345017,-0.83053 v 3.33375 c 0,0.20521 0.165206,0.37042 0.370417,0.37042 h 0.0015 c 0.20521,0 0.426561,-0.16523 0.423465,-0.37042 l -0.0015,-1.74625 h 0.256382 l 0.0015,1.74625 c 1.74e-4,0.20521 0.2262,0.37042 0.431403,0.37042 0.20521,0 0.370416,-0.16521 0.370416,-0.37042 l -0.0015,-3.33375 h -0.01374 l 0.413835,0.83034 c 0.08262,0.21078 0.333322,0.2988 0.52959,0.18594 l 0.672253,0.39303 c -0.0049,0.0242 -0.01448,0.0467 -0.01448,0.0723 v 2.03729 c 0,0.10261 0.154692,0.18521 0.257297,0.18521 0.102605,0 0.281146,-0.084 0.264583,-0.18521 v -0.87312 h 0.264584 v 0.87312 c 0,0.10261 0.161978,0.18521 0.264583,0.18521 0.102605,0 0.273394,-0.0826 0.273394,-0.18521 v -1.85208 l 0.476197,0.39552 c 0.174562,0.18179 0.44368,-0.0873 0.261901,-0.2619 l -0.792348,-0.68778 c -0.03475,-0.0347 -0.08183,-0.0543 -0.130945,-0.0543 h -0.902652 l -0.708449,-0.36269 c 3.4e-5,-0.0518 -0.01082,-0.1031 -0.03182,-0.15048 l -0.92657,-1.90412 c -0.05742,-0.13785 -0.192088,-0.2278 -0.341577,-0.22807 z"
         style="fill:#f9f9f9;stroke-width:0.26458332"
         inkscape:connector-curvature="0" />
      <path
         id="path12"
         d="m 24.334737,290.12081 c -0.364066,0 -0.661458,0.29739 -0.661458,0.66146 0,0.36406 0.297392,0.66146 0.661458,0.66146 0.364067,0 0.661459,-0.2974 0.661459,-0.66146 0,-0.36407 -0.297392,-0.66146 -0.661459,-0.66146 z"
         style="fill:#f9f9f9;stroke-width:0.26458332"
         inkscape:connector-curvature="0" />
    </g>
  </g>
</svg>
