<svg width="64" height="64" version="1.1" viewBox="0 0 16.933 16.933" xmlns="http://www.w3.org/2000/svg" xmlns:xlink="http://www.w3.org/1999/xlink">
 <defs>
  <linearGradient id="b" x1="13.229" x2="2.117" y1="297" y2="280.07" gradientTransform="matrix(1.0714 0 0 1 -.605 -280.07)" gradientUnits="userSpaceOnUse">
   <stop stop-color="#66bcff" offset="0"/>
   <stop stop-color="#b29aff" offset="1"/>
  </linearGradient>
 </defs>
 <path d="m0.794 2.381h15.346c0.146 0 0.264 0.118 0.264 0.264v11.642a0.264 0.264 0 0 1-0.264 0.265h-15.346a0.264 0.264 0 0 1-0.265-0.265v-11.642c0-0.146 0.118-0.264 0.265-0.264z" fill="url(#b)" style="paint-order:stroke markers fill"/>
 <path d="m3.9692 13.504c-0.29307 0-0.52916 0.23609-0.52916 0.52916v0.53174h10.054v-0.53174c0-0.29307-0.23609-0.52916-0.52916-0.52916z" fill="#fff" opacity=".35" style="paint-order:stroke markers fill"/>
 <rect x="1.587" y="2.645" width="1.058" height=".529" ry=".265" opacity=".35" style="paint-order:stroke markers fill"/>
 <rect x="7.144" y="2.645" width="2.646" height=".529" ry=".265" opacity=".35" style="paint-order:stroke markers fill"/>
 <rect x="15.081" y="2.645" width=".529" height=".529" ry=".265" opacity=".35" style="paint-order:stroke markers fill"/>
 <rect x="14.023" y="2.645" width=".794" height=".529" ry=".265" opacity=".35" style="paint-order:stroke markers fill"/>
 <rect x="13.229" y="2.645" width=".529" height=".529" ry=".265" opacity=".35" style="paint-order:stroke markers fill"/>
 <g fill="#ccdfff">
  <rect x="4.498" y="12.7" width="1.323" height="1.323" ry=".132" style="paint-order:stroke markers fill"/>
  <rect x="6.703" y="12.7" width="1.323" height="1.323" ry=".132" style="paint-order:stroke markers fill"/>
  <rect x="8.908" y="12.7" width="1.323" height="1.323" ry=".132" style="paint-order:stroke markers fill"/>
  <rect x="11.113" y="12.7" width="1.323" height="1.323" ry=".132" style="paint-order:stroke markers fill"/>
 </g>
 <path d="m0.794 2.381a0.264 0.264 0 0 0-0.265 0.265v0.793h15.875v-0.793a0.264 0.264 0 0 0-0.264-0.265z" opacity=".35" style="paint-order:stroke markers fill"/>
 <g transform="translate(0 -280.07)" style="paint-order:markers stroke fill">
  <path d="m0.53 283.51v4.498a4.233 4.233 0 0 0 4.232-4.233 4.233 4.233 0 0 0-0.01-0.265z" opacity=".15"/>
  <path d="m0.53 283.51v3.175a2.91 2.91 0 0 0 2.91-2.91 2.91 2.91 0 0 0-0.015-0.265z" opacity=".15"/>
  <path d="m0.53 283.51v1.852a1.587 1.587 0 0 0 1.587-1.587 1.587 1.587 0 0 0-0.023-0.265h-1.565z" opacity=".15"/>
 </g>
 <g transform="translate(0 -280.07)" style="paint-order:markers stroke fill">
  <path d="m16.404 283.51v4.498a4.233 4.233 0 0 1-4.233-4.233 4.233 4.233 0 0 1 0.01-0.265z" opacity=".15"/>
  <path d="m16.404 283.51v3.175a2.91 2.91 0 0 1-2.91-2.91 2.91 2.91 0 0 1 0.014-0.265z" opacity=".15"/>
  <path d="m16.404 283.51v1.852a1.587 1.587 0 0 1-1.587-1.587 1.587 1.587 0 0 1 0.022-0.265z" opacity=".15"/>
 </g>
</svg>
