<svg width="64" height="64" version="1.1" xmlns="http://www.w3.org/2000/svg">
 <rect x="8" y="5" width="48" height="54" rx="6" ry="6" fill="#ececec" stop-color="#000000" stroke-width="0"/>
 <path d="m12 10v10h10v-10zm1.9961 2h2v2h2v-2h2v2h-2v2h2v2h-2v-2h-2v2h-2zm12-2.001v2h26v-2zm0 6v2h26v-2zm-13.996 6v2h16v-2zm20 0v20h20v-20zm1.998 2h16v16h-16zm-21.998 4v2h16v-2zm0 6v2h16v-2zm0 6v2h16v-2zm0 6.001v2h40v-2zm0 6v2h40v-2z" fill="#b3b3b3" fill-rule="evenodd"/>
 <path d="m35.996 25.998h12.004v12.004h-12.004z" fill="#7cd1cc" fill-rule="evenodd"/>
</svg>
