<svg width="64" height="64" version="1.1" viewBox="0 0 16.933 16.933" xmlns="http://www.w3.org/2000/svg" xmlns:xlink="http://www.w3.org/1999/xlink">
 <g transform="translate(0 -280.07)">
  <rect x="1.587" y="282.18" width="13.758" height="12.7" rx="2.1161" ry="2.1161" fill="#8a61b8" paint-order="stroke markers fill"/>
  <path d="M13.131 288.238c-.1-.14-.209-.27-.32-.4-.593-.695-1.274-1.314-2.02-1.763-.476-.288-.987-.52-1.515-.63a3.997 3.997 0 0 0-.81-.087c-.268 0-.537.03-.806.086-.529.112-1.037.343-1.514.63-.746.45-1.428 1.07-2.024 1.764-.11.129-.216.26-.316.4a.48.48 0 0 0 0 .59c.303.426.665.803 1.03 1.15.792.742 1.699 1.364 2.698 1.616a3.808 3.808 0 0 0 1.863 0c.999-.252 1.907-.874 2.7-1.617a7.883 7.883 0 0 0 1.032-1.148.487.487 0 0 0 0-.591m0 0" fill="#ececeb"/>
  <path d="m10.85 288.53a2.382 2.382 0 1 1-4.763 0 2.382 2.382 0 0 1 4.763 0" fill="#4586f9"/>
  <path d="m9.792 288.53a1.322 1.322 0 1 1-2.645 0 1.322 1.322 0 0 1 2.645 0" fill="#141414"/>
  <path d="m9.527 288a0.529 0.529 0 1 1-1.058 0 0.529 0.529 0 0 1 1.058 0" fill="#f9f9f9"/>
  <path d="M10.317 285.813l-4.3 5.099c.196.127.396.24.602.342l4.297-5.1c-.191-.134-.414-.246-.6-.34m0 0" fill="#d5122d"/>
 </g>
</svg>
