<svg width="64" height="64" version="1.1" xmlns="http://www.w3.org/2000/svg">
 <g stroke-width="3.7796">
  <path d="m2.0032 18.002v35.997c0 0.5556 0.44221 1.0016 0.99781 1.0016h58.002a0.99781 0.99781 0 0 0 0.99782-1.0016v-36.001h-59.997z" fill="#fff" style="paint-order:markers stroke fill"/>
  <path d="m2.0032 18.002v35.997c0 0.5556 0.44221 1.0016 0.99781 1.0016h58.002a0.99781 0.99781 0 0 0 0.99782-1.0016v-36.001h-0.99782v35.044c0 0.52914-0.43465 0.95624-0.96758 0.95624h-56.067a0.96002 0.96002 0 0 1-0.96758-0.95624v-35.044h-1.0016z" opacity=".1" style="paint-order:markers stroke fill"/>
  <path d="m3.001 8.9992a0.99781 0.99781 0 0 0-1.0016 1.0016v7.9976h60.001v-7.9976a0.99781 0.99781 0 0 0-0.99782-1.0016z" fill="#666" style="paint-order:stroke markers fill"/>
  <rect x="56.002" y="12" width="3.001" height="3.001" ry="1.5005" opacity=".35" style="paint-order:stroke markers fill"/>
  <rect x="50" y="12" width="3.001" height="3.001" ry="1.5005" opacity=".35" style="paint-order:stroke markers fill"/>
  <rect x="44.002" y="12" width="3.001" height="3.001" ry="1.5005" opacity=".35" style="paint-order:stroke markers fill"/>
  <path d="m62.001 42.294a36.303 36.303 0 0 1-12.828 12.707h11.83a0.99781 0.99781 0 0 0 0.99782-1.0016z" opacity=".05" style="paint-order:markers stroke fill"/>
 </g>
 <g transform="translate(-.003401 .58592)" stroke-width=".57977">
  <path d="m12.003 26.414h3.5294l4.1177 11.429 4.1177-11.429h3.5294l-5.8824 16h-3.5294z" fill="#ef4a5b"/>
  <path d="m24.945 42.414 5.8824-16h3.5294l-5.8824 16zm11.765 0 5.8824-16h3.5294l-5.8824 16z" fill="#3e4143"/>
  <path d="m21.415 42.414 5.8824-16h3.5294l-5.8824 16zm11.765 0 5.8824-16h3.5294l-5.8824 16z" fill="#949b9d"/>
  <path d="m36.709 42.414h-3.5294l-5.8824-16h3.5294zm11.765 0h-3.5294l-5.8824-16h3.5294z" fill="#babfc2"/>
  <path d="m30.827 26.414 5.8824 16h3.5294l-5.8824-16zm11.765 0 5.8824 16h3.5294l-5.8824-16z" fill="#535353"/>
 </g>
 <path d="m45 48h12.172l-4.586 4.586 1.414 1.414 7-7-7-7-1.414 1.414 4.586 4.586h-12.172z" fill="#232629"/>
</svg>
