<svg xmlns="http://www.w3.org/2000/svg" width="64" height="64" viewBox="0 0 16.933 16.933"><g transform="translate(0 -280.07)"><rect width="13.758" height="8.467" x="1.587" y="284.3" fill="#666" paint-order="markers stroke fill" rx="1.322" ry="1.322"/><rect width="1.587" height="1.323" x="2.91" y="285.36" fill="#fff" paint-order="markers stroke fill" ry=".265"/><path fill="#ff8080" d="M5.556 285.09a.537.537 0 0 0-.531.531v.793c0 .289.242.53.531.53h1.057c.289 0 .529-.241.529-.53v-.793a.536.536 0 0 0-.53-.531zm0 .53h1.057v.794H5.554v-.793l.002-.002z" color="#000" style="font-feature-settings:normal;font-variant-alternates:normal;font-variant-caps:normal;font-variant-ligatures:normal;font-variant-numeric:normal;font-variant-position:normal;isolation:auto;mix-blend-mode:normal;paint-order:markers stroke fill;shape-padding:0;text-decoration-color:#000;text-decoration-line:none;text-decoration-style:solid;text-indent:0;text-orientation:mixed;text-transform:none;white-space:normal"/><g fill="#fff" paint-order="markers stroke fill"><rect width="1.587" height="1.323" x="5.292" y="285.36" ry=".265"/><rect width="1.587" height="1.323" x="7.673" y="285.36" ry=".265"/><rect width="1.587" height="1.323" x="10.319" y="285.36" ry=".265"/><rect width="1.587" height="1.323" x="12.7" y="285.36" ry=".265"/></g><path fill="#ff8080" d="M3.176 287.47a.537.537 0 0 0-.531.531v.793c0 .289.242.53.53.53h1.057c.29 0 .53-.241.53-.53v-.793a.536.536 0 0 0-.53-.531zm0 .53h1.056v.794H3.174v-.793l.002-.002z" color="#000" style="font-feature-settings:normal;font-variant-alternates:normal;font-variant-caps:normal;font-variant-ligatures:normal;font-variant-numeric:normal;font-variant-position:normal;isolation:auto;mix-blend-mode:normal;paint-order:markers stroke fill;shape-padding:0;text-decoration-color:#000;text-decoration-line:none;text-decoration-style:solid;text-indent:0;text-orientation:mixed;text-transform:none;white-space:normal"/><rect width="1.587" height="1.323" x="2.91" y="287.74" fill="#fff" paint-order="markers stroke fill" ry=".265"/><path fill="#ff8080" d="M5.556 287.47a.537.537 0 0 0-.531.531v.793c0 .289.242.53.531.53h1.057c.289 0 .529-.241.529-.53v-.793a.536.536 0 0 0-.53-.531zm0 .53h1.057v.794H5.554v-.793l.002-.002z" color="#000" style="font-feature-settings:normal;font-variant-alternates:normal;font-variant-caps:normal;font-variant-ligatures:normal;font-variant-numeric:normal;font-variant-position:normal;isolation:auto;mix-blend-mode:normal;paint-order:markers stroke fill;shape-padding:0;text-decoration-color:#000;text-decoration-line:none;text-decoration-style:solid;text-indent:0;text-orientation:mixed;text-transform:none;white-space:normal"/><g fill="#fff" paint-order="markers stroke fill"><rect width="1.587" height="1.323" x="5.292" y="287.74" ry=".265"/><rect width="1.587" height="1.323" x="7.673" y="287.74" ry=".265"/><rect width="1.587" height="1.323" x="10.319" y="287.74" ry=".265"/><rect width="1.587" height="1.323" x="12.965" y="287.74" ry=".265"/><rect width="6.35" height="1.323" x="5.292" y="290.11" ry=".271"/></g><circle cx="13.229" cy="290.65" r="3.175" fill="#999"/><path fill="#fff" d="m12.753 288.745-.042.502a1.497 1.497 0 0 0-.438.253l-.456-.215-.476.825.414.287a1.497 1.497 0 0 0-.023.253 1.497 1.497 0 0 0 .022.254l-.413.286.476.825.455-.214a1.497 1.497 0 0 0 .439.251l.042.503h.952l.042-.502a1.497 1.497 0 0 0 .438-.253l.456.215.476-.825-.414-.288a1.497 1.497 0 0 0 .023-.252 1.497 1.497 0 0 0-.022-.254l.413-.286-.476-.825-.455.214a1.497 1.497 0 0 0-.439-.251l-.042-.503zm.476 1.27a.635.635 0 0 1 .635.635.635.635 0 0 1-.635.635.635.635 0 0 1-.635-.635.635.635 0 0 1 .635-.635z"/></g></svg>