<svg width="64" height="64" version="1.1" xmlns="http://www.w3.org/2000/svg">
 <defs>
  <linearGradient id="linearGradient9555-3" x1="14.679" x2="2.2933" y1="293.79" y2="282.98" gradientTransform="matrix(3.7795 0 0 3.9436 -.00086969 -1105.9)" gradientUnits="userSpaceOnUse">
   <stop stop-color="#66bcff" offset="0"/>
   <stop stop-color="#b29aff" offset="1"/>
  </linearGradient>
 </defs>
 <rect x="4" y="7.9999" width="55.999" height="48.001" rx="5" ry="5" fill="url(#linearGradient9555-3)" stroke-width="3.7299"/>
 <rect x="6.9991" y="10" width="50" height="4" rx="2" ry="2" fill="#000000" opacity=".35" stop-color="#000000" stroke-width="0"/>
 <rect x="7.9999" y="11" width="3.9988" height="1.9994" ry="1.0016" opacity=".35" stroke-width="3.7796" style="paint-order:stroke markers fill"/>
 <rect x="27.001" y="11" width="10.001" height="1.9994" ry="1.0016" opacity=".35" stroke-width="3.7796" style="paint-order:stroke markers fill"/>
 <rect x="53.999" y="11" width="1.9994" height="1.9994" ry="1.0016" opacity=".35" stroke-width="3.7796" style="paint-order:stroke markers fill"/>
 <rect x="50" y="11" width="3.001" height="1.9994" ry="1.0016" opacity=".35" stroke-width="3.7796" style="paint-order:stroke markers fill"/>
 <rect x="46.999" y="11" width="1.9994" height="1.9994" ry="1.0016" opacity=".35" stroke-width="3.7796" style="paint-order:stroke markers fill"/>
 <rect x="13.002" y="48.001" width="37.996" height="5.0004" rx="1" ry="1" fill="#ffffff" opacity=".35" stroke-width="3.7796" paint-order="markers stroke fill"/>
 <g transform="matrix(3.7796 0 0 3.7796 0 6.5104)" fill="#ccdfff">
  <rect x="4.2333" y="10.448" width="1.323" height="1.323" rx=".26433" ry=".26433" style="paint-order:stroke markers fill"/>
  <rect x="6.6145" y="10.448" width="1.323" height="1.323" rx=".26433" ry=".26433" style="paint-order:stroke markers fill"/>
  <rect x="8.9956" y="10.448" width="1.323" height="1.323" rx=".26433" ry=".26433" style="paint-order:stroke markers fill"/>
  <rect x="11.376" y="10.448" width="1.323" height="1.323" rx=".26433" ry=".26433" style="paint-order:stroke markers fill"/>
 </g>
 <path d="m24.929 23-0.68304 1.2455-1.2455 0.68304 1.2455 0.68304 0.68304 1.2455 0.68304-1.2455 1.2455-0.68304-1.2455-0.68304zm5.1429 0-0.68304 1.2455-1.2455 0.68304 1.2455 0.68304 0.68304 1.2455 0.68304-1.2455 1.2455-0.68304-1.2455-0.68304zm7.2698 0-14.341 14.341 3.6588 3.6588 14.341-14.341zm0 1.8281 1.8281 1.8306-4.2765 4.2815-1.8306-1.8306zm-9.8412 2.029-0.68304 1.2455-1.2455 0.68304 1.2455 0.68304 0.68304 1.2455 0.68304-1.2455 1.2455-0.68304-1.2455-0.68304z" fill="#fff"/>
</svg>
