<svg xmlns="http://www.w3.org/2000/svg" width="64" height="64"><rect width="52" height="52" x="6" y="6" fill="#3e4245" rx="2" ry="2" style="paint-order:stroke markers fill"/><path fill="#fff" d="M12 15h24v2H12z"/><circle cx="43" cy="16" r="2" fill="#72d406"/><circle cx="51" cy="16" r="2" fill="#72d406"/><g fill="#fff"><path d="M12 31h24v2H12z"/><circle cx="43" cy="32" r="2"/><circle cx="51" cy="32" r="2"/><path d="M12 47h24v2H12z"/></g><g fill-rule="evenodd"><rect width="52" height="3" x="6" y="22" fill="#00000f" opacity=".5" rx="0" ry="0" style="paint-order:fill markers stroke"/><rect width="52" height="3" x="6" y="38" fill="#00000f" opacity=".5" rx="0" ry="0" style="paint-order:fill markers stroke"/><circle cx="46" cy="46" r="18" fill="#5687e3" style="paint-order:fill markers stroke"/></g><path fill="#fff" d="M36 34c-1.108 0-2 .892-2 2v20c0 1.108.892 2 2 2h20c1.108 0 2-.892 2-2V38h-9.984l-4-4-.016.016V34h-8zm1 2h6.184l2.003 2H44v.016L43.984 38l-4 4H36v-5c0-.554.446-1 1-1zm-1 8h20v11c0 .554-.446 1-1 1H37c-.554 0-1-.446-1-1V44z"/></svg>