<svg xmlns="http://www.w3.org/2000/svg" width="64" height="64" viewBox="0 0 16.934 16.934"><rect width="13.759" height="13.759" x="1.588" y="1.588" fill="#666" fill-rule="evenodd" rx="2.117" ry="2.117" style="paint-order:stroke fill markers"/><g stroke-linecap="round" stroke-linejoin="round"><g transform="translate(3.175 -2.117)"><rect width="2.117" height="1.058" x="5.821" y="10.848" fill="#b3b3b3" fill-opacity=".992" rx="0" ry="0" style="paint-order:stroke fill markers"/><path fill="#1a7ab7" d="M3.969 6.615H9.79v3.969H3.969z" style="paint-order:stroke fill markers"/><path fill="#e6e6e6" fill-opacity=".992" d="M4.498 6.086c-.586 0-1.058.472-1.058 1.058v2.91c0 .587.472 1.059 1.058 1.059h4.763c.586 0 1.058-.472 1.058-1.058v-2.91c0-.587-.472-1.06-1.058-1.06zm0 .529h4.763c.293 0 .529.236.529.53v2.91a.53.53 0 0 1-.53.529H4.499a.53.53 0 0 1-.53-.53v-2.91a.53.53 0 0 1 .53-.53m-.001 5.028c-.586 0-1.058.472-1.058 1.058v.265h.529V12.7c0-.293.236-.529.53-.529H9.26c.293 0 .529.236.529.53v.264h.53V12.7c0-.586-.473-1.058-1.06-1.058z" style="paint-order:stroke fill markers"/></g><rect width="2.117" height="1.058" x="5.821" y="10.848" fill="#ccc" fill-opacity=".992" rx="0" ry="0" style="paint-order:stroke fill markers"/><path fill="#1c98e3" d="M3.969 6.615H9.79v3.969H3.969z" style="paint-order:stroke fill markers"/><path fill="#fff" fill-opacity=".992" d="M4.498 6.086c-.586 0-1.058.472-1.058 1.058v2.91c0 .587.472 1.059 1.058 1.059h4.763c.586 0 1.058-.472 1.058-1.058v-2.91c0-.587-.472-1.06-1.058-1.06zm0 .529h4.763c.293 0 .529.236.529.53v2.91a.53.53 0 0 1-.53.529H4.499a.53.53 0 0 1-.53-.53v-2.91a.53.53 0 0 1 .53-.53m-.001 5.028c-.586 0-1.058.472-1.058 1.058v.265h.529V12.7c0-.293.236-.529.53-.529H9.26c.293 0 .529.236.529.53v.264h.53V12.7c0-.586-.473-1.058-1.06-1.058z" style="paint-order:stroke fill markers"/></g><g paint-order="stroke markers fill" transform="translate(.982 -279.19)scale(1.0001)"><circle cx="11.718" cy="291.87" r="3.175" fill="#1c98e3"/><circle cx="11.718" cy="291.87" r="1.588" fill="#fff" opacity=".15"/><g fill="#fff"><path d="M11.718 290.52a1.343 1.343 0 0 0-1.343 1.344 1.343 1.343 0 0 0 1.343 1.343 1.343 1.343 0 0 0 1.343-1.343 1.343 1.343 0 0 0-1.343-1.344m0 .61a.733.733 0 0 1 .733.734.733.733 0 0 1-.733.732.733.733 0 0 1-.733-.732.733.733 0 0 1 .733-.733z"/><path d="M11.474 289.97h.488v.854h-.488zm0 2.93h.488v.855h-.488zm2.137-1.282v.489h-.855v-.489zm-2.931 0v.489h-.855v-.489zm2.55 1.41-.346.346-.604-.605.345-.345zm-2.073-2.072-.345.345-.605-.604.345-.345zm-.605 2.418-.345-.346.605-.604.345.345zm2.073-2.073-.345-.345.604-.604.345.345z"/></g></g></svg>