<svg xmlns="http://www.w3.org/2000/svg" width="64" height="64"><rect width="52" height="52" x="6" y="6" fill="#388e3c" rx="3" ry="3"/><path fill="#43a047" fill-rule="evenodd" d="M16 37 6 45v3l6-4v2l-6 4h4v8h6V47l6-5h3l-6 5v11h36c1.662 0 3-1.338 3-3v-7.092L51 39h-2l-2-2z"/><g transform="translate(-5 3)"><circle cx="58.5" cy="50.5" r="1.5" fill="#fbc02d"/><circle cx="58.5" cy="50.5" r=".5" fill="#263238"/></g><g transform="translate(-5 -1)"><circle cx="58.5" cy="11.5" r="1.5" fill="#fbc02d"/><circle cx="58.5" cy="11.5" r=".5" fill="#263238"/></g><g transform="translate(5 3)"><circle cx="5.5" cy="50.5" r="1.5" fill="#fbc02d"/><circle cx="5.5" cy="50.5" r=".5" fill="#263238"/></g><path fill="#43a047" fill-rule="evenodd" d="M9 6c-.353 0-.686.07-1 .182V18l-2 2v2l3 3h38l7-8h4v-1h-4v-4l-8 9h-3l8-9V6z"/><path fill="#fbc02d" fill-rule="evenodd" d="M21 22h2v20h-2zm4 0h2v20h-2zm4 0h2v20h-2zm4 0h2v20h-2zm4 0h2v20h-2zm4 0h2v20h-2z" style="paint-order:fill markers stroke"/><rect width="28" height="16" x="18" y="24" fill="#263238" ry="1"/><rect width="17" height="6" x="10" y="13" fill="#263238" ry="1"/><rect width="17" height="6" x="37" y="44" fill="#eceff1" ry="1"/><rect width="9" height="1" x="38" y="45" fill="#37474f" ry="0"/><path fill="#37474f" d="M38 47h5v1h-5z"/><path fill="#37474f" fill-rule="evenodd" d="m49 49 2-3 2 3z"/><g transform="translate(.318 .049)"><circle cx="10.182" cy="10.451" r="1.5" fill="#fbc02d"/><circle cx="10.182" cy="10.451" r=".5" fill="#263238"/></g><path fill="#fff" d="M11 14h4v1h-4zm0 2h8v1h-8zm11 0h3v2h-3z" opacity=".5" style="paint-order:stroke fill markers"/><path fill="#fff" d="M30.286 34.571c-.95 0-1.714.765-1.714 1.714S29.336 38 30.286 38 32 37.235 32 36.285s-.764-1.714-1.714-1.714m-3-4.286A1.28 1.28 0 0 0 26 31.571a1.286 1.286 0 1 0 2.572 0 1.28 1.28 0 0 0-1.286-1.286M33.715 26 32 27.714l2.572 2.571L32 32.857l1.715 1.714L38 30.285l-1.714-1.714zm-4.286 0a.857.857 0 1 0 0 1.714.857.857 0 1 0 0-1.714" opacity=".5"/></svg>