<svg width="64" height="64" version="1.1" viewBox="0 0 64 64" xmlns="http://www.w3.org/2000/svg">
 <defs>
  <linearGradient id="a" x1="13.229" x2="2.117" y1="297" y2="280.07" gradientTransform="matrix(1.0714 0 0 1 -.605 -280.07)" gradientUnits="userSpaceOnUse">
   <stop stop-color="#66bcff" offset="0"/>
   <stop stop-color="#b29aff" offset="1"/>
  </linearGradient>
 </defs>
 <g transform="scale(3.7796)">
  <path d="m0.794 2.381h15.346c0.146 0 0.264 0.118 0.264 0.264v11.642a0.264 0.264 0 0 1-0.264 0.265h-15.346a0.264 0.264 0 0 1-0.265-0.265v-11.642c0-0.146 0.118-0.264 0.265-0.264z" fill="url(#a)" style="paint-order:stroke markers fill"/>
  <path d="m3.9692 13.504c-0.29307 0-0.52916 0.23609-0.52916 0.52916v0.53174h10.054v-0.53174c0-0.29307-0.23609-0.52916-0.52916-0.52916z" fill="#ffffff" opacity=".35" style="paint-order:stroke markers fill"/>
  <rect x="1.587" y="2.645" width="1.058" height=".529" ry=".265" opacity=".35" style="paint-order:stroke markers fill"/>
  <rect x="7.144" y="2.645" width="2.646" height=".529" ry=".265" opacity=".35" style="paint-order:stroke markers fill"/>
  <rect x="15.081" y="2.645" width=".529" height=".529" ry=".265" opacity=".35" style="paint-order:stroke markers fill"/>
  <rect x="14.023" y="2.645" width=".794" height=".529" ry=".265" opacity=".35" style="paint-order:stroke markers fill"/>
  <rect x="13.229" y="2.645" width=".529" height=".529" ry=".265" opacity=".35" style="paint-order:stroke markers fill"/>
  <g fill="#ccdfff">
   <rect x="4.498" y="12.7" width="1.323" height="1.323" ry=".132" style="paint-order:stroke markers fill"/>
   <rect x="6.703" y="12.7" width="1.323" height="1.323" ry=".132" style="paint-order:stroke markers fill"/>
   <rect x="8.908" y="12.7" width="1.323" height="1.323" ry=".132" style="paint-order:stroke markers fill"/>
   <rect x="11.113" y="12.7" width="1.323" height="1.323" ry=".132" style="paint-order:stroke markers fill"/>
  </g>
  <path d="m0.794 2.381a0.264 0.264 0 0 0-0.265 0.265v0.793h15.875v-0.793a0.264 0.264 0 0 0-0.264-0.265z" opacity=".35" style="paint-order:stroke markers fill"/>
 </g>
 <rect transform="skewX(-.000145)" x="13" y="18.001" width="37.991" height="27.819" ry="1.3092" fill="#ffffff" opacity=".35" stroke-width=".80826"/>
 <g transform="matrix(.46586 -.055566 .057258 .45209 -209.41 -153.63)" fill="#ffffff" opacity=".75">
  <ellipse transform="rotate(7.007)" cx="498.35" cy="384.49" rx="3.1958" ry="3.2932"/>
  <ellipse transform="rotate(7.007)" cx="489.83" cy="384.49" rx="3.1958" ry="3.2932"/>
  <ellipse transform="rotate(7.007)" cx="481.31" cy="384.49" rx="3.1958" ry="3.2932"/>
 </g>
 <path d="m49.691 18.002c0.72527-1e-6 1.3086 0.58332 1.3086 1.3086v25.201c2e-6 0.72527-0.58332 1.3086-1.3086 1.3086h-17.691v-27.818z" fill="#ffffff" opacity=".35" stroke-width=".80826"/>
</svg>
