<svg xmlns="http://www.w3.org/2000/svg" width="64" height="64"><path fill="#ececec" d="m62 17.998-59.996.004v31.154A5.985 5.985 0 0 0 8 55h48c3.324 0 6-2.676 6-6z"/><path fill="#666" d="M8 9c-3.324 0-6 2.676-6 6v2.998h60V15c0-3.324-2.676-6-6-6z"/><rect width="3.001" height="3.001" x="53.502" y="12" opacity=".35" paint-order="stroke markers fill" ry="1.5"/><rect width="3.001" height="3.001" x="47.5" y="12" opacity=".35" paint-order="stroke markers fill" ry="1.5"/><rect width="3.001" height="3.001" x="41.501" y="12" opacity=".35" paint-order="stroke markers fill" ry="1.5"/><g stroke-width=".58"><path fill="#ef4a5b" d="M12 27h3.529l4.118 11.429 4.117-11.43h3.53L21.41 43h-3.529z"/><path fill="#3e4143" d="m24.942 43 5.882-16h3.53L28.47 43zm11.765 0 5.882-16h3.53l-5.883 16z"/><path fill="#949b9d" d="m21.412 43 5.882-16h3.53L24.94 43zm11.765 0 5.882-16h3.53l-5.883 16z"/><path fill="#babfc2" d="M36.706 43h-3.53l-5.882-16h3.53zm11.765 0h-3.53L39.06 27h3.53z"/><path fill="#535353" d="m30.824 27 5.882 16h3.53l-5.883-16zm11.765 0 5.882 16h3.53l-5.883-16z"/></g></svg>