<svg xmlns="http://www.w3.org/2000/svg" width="64" height="64" viewBox="0 0 16.933 16.933"><g transform="translate(0 -280.067)"><path d="M.53 284.83v9.524c0 .147.117.265.264.265H16.14a.264.264 0 0 0 .264-.265v-9.525H.53z" fill="#fff" paint-order="markers stroke fill"/><path d="M.53 284.83v9.524c0 .147.117.265.264.265H16.14a.264.264 0 0 0 .264-.265v-9.525h-.264v9.272c0 .14-.115.253-.256.253H1.05a.254.254 0 0 1-.256-.253v-9.272H.529z" opacity=".1" paint-order="markers stroke fill"/><path d="M.794 282.448a.264.264 0 0 0-.265.265v2.116h15.875v-2.116a.264.264 0 0 0-.264-.265z" fill="#666" paint-order="stroke markers fill"/><rect width=".794" height=".794" x="14.817" y="283.242" ry=".397" opacity=".35" paint-order="stroke markers fill"/><rect ry=".397" y="283.242" x="13.229" height=".794" width=".794" opacity=".35" paint-order="stroke markers fill"/><rect width=".794" height=".794" x="11.642" y="283.242" ry=".397" opacity=".35" paint-order="stroke markers fill"/><path d="M8.467 286.305a3.44 3.44 0 0 0-3.44 3.44 3.44 3.44 0 0 0 3.44 3.439 3.44 3.44 0 0 0 3.44-3.44 3.44 3.44 0 0 0-3.44-3.44zm0 1.393a2.046 2.046 0 0 1 2.046 2.046 2.046 2.046 0 0 1-2.046 2.045 2.046 2.046 0 0 1-2.046-2.045 2.046 2.046 0 0 1 2.046-2.046z" opacity=".15" fill="#ccc" paint-order="stroke markers fill"/><g fill="#ccc" paint-order="stroke markers fill"><path d="M8.467 286.833a2.91 2.91 0 0 0-2.91 2.91 2.91 2.91 0 0 0 2.91 2.911 2.91 2.91 0 0 0 2.91-2.91 2.91 2.91 0 0 0-2.91-2.91zm0 1.323a1.587 1.587 0 0 1 1.587 1.588 1.587 1.587 0 0 1-1.587 1.587 1.587 1.587 0 0 1-1.588-1.587 1.587 1.587 0 0 1 1.588-1.588z"/><path d="M7.938 285.643h1.058v1.852H7.938zM7.938 291.993h1.058v1.852H7.938zM12.568 289.215v1.058h-1.852v-1.058zM6.218 289.215v1.058H4.366v-1.058zM11.74 292.27l-.747.748-1.31-1.31.748-.748zM7.25 287.78l-.747.748-1.31-1.31.748-.748zM5.941 293.018l-.748-.748 1.31-1.31.748.748zM10.431 288.528l-.748-.748 1.31-1.31.748.748z"/></g><path d="M16.404 291.257a9.605 9.605 0 0 1-3.394 3.362h3.13a.264.264 0 0 0 .264-.265v-3.097z" opacity=".05" paint-order="markers stroke fill"/></g></svg>