<svg width="64" height="64" version="1.1" xmlns="http://www.w3.org/2000/svg" xmlns:xlink="http://www.w3.org/1999/xlink">
 <linearGradient id="j" x1="32" x2="32" y1="54" y2="9" gradientUnits="userSpaceOnUse" xlink:href="#b"/>
 <linearGradient id="g" x1="28.385" x2="28.385" y1="27.846" y2="3.615" gradientUnits="userSpaceOnUse" xlink:href="#b"/>
 <linearGradient id="b">
  <stop stop-color="#eff0f1" offset="0"/>
  <stop stop-color="#fcfcfc" offset="1"/>
 </linearGradient>
 <g transform="matrix(2 0 0 2 -.001 -64)">
  <path d="m16 34c-3.41 1.806-6.82 2.544-10.23 3.23v13.463c0 3.77 5.526 8.918 10.23 11.307 4.704-2.389 10.23-7.537 10.23-11.307v-13.462c-3.41-0.687-6.82-1.425-10.23-3.231z" fill="#2a4f5d" stroke-width=".5"/>
  <g transform="translate(0,32)" stroke-width=".269">
   <path d="m20.752 5.419-9.487 18.974c1.473 1.373 3.127 2.636 4.735 3.453 3.98-2.021 8.615-6.503 8.615-9.692v-11.846a61.098 61.098 0 0 1-3.863-0.889z" fill="#d55443"/>
   <path d="m16 3.615c-2.886 1.529-5.73 2.112-8.615 2.693v11.846c0 1.9 1.707 4.215 3.88 6.24l9.487-18.975c-1.58-0.426-3.16-0.96-4.752-1.804z" fill="url(#g)"/>
  </g>
  <g transform="translate(0,32)" stroke-width=".9285">
   <path transform="matrix(.53846 0 0 .53846 -1.23 -1.23)" d="m24 14 16 32 8-16h-4l-1 2h-6l-9-18zm14 20h4l-2 4z" fill="url(#j)"/>
   <path transform="matrix(.53846 0 0 .53846 -1.23 -1.23)" d="m24 14-8 16h4l1-2h6l8.5 17h4zm0 8 2 4h-4z" fill="#d55443"/>
  </g>
 </g>
</svg>
