<svg xmlns="http://www.w3.org/2000/svg" width="64" height="64"><path fill="#ececec" d="m62 17.998-59.996.004v31.154A5.985 5.985 0 0 0 8 55h48c3.324 0 6-2.676 6-6z"/><path fill="#666" d="M8 9c-3.324 0-6 2.676-6 6v2.998h60V15c0-3.324-2.676-6-6-6z"/><rect width="3.001" height="3.001" x="53.502" y="12" opacity=".35" paint-order="stroke markers fill" ry="1.5"/><rect width="3.001" height="3.001" x="47.5" y="12" opacity=".35" paint-order="stroke markers fill" ry="1.5"/><rect width="3.001" height="3.001" x="41.501" y="12" opacity=".35" paint-order="stroke markers fill" ry="1.5"/><path fill="#ccc" d="M7 22v2h40v-2zm0 6v2h14v-2zm28 0v24h24V28zm2 2h20v20H37v-2zm0 18h4l4-4-2-2zm20 0-6-6-6 6zM42 32c-1.662 0-3 1.338-3 3s1.338 3 3 3 3-1.338 3-3-1.338-3-3-3M7 34v2h24v-2zm0 6v2h18v-2zm0 6v2h24v-2z" color="#000"/><path fill="#ff8080" d="M47 28c-6.627 0-12 5.373-12 12s5.373 12 12 12 12-5.373 12-12-5.373-12-12-12m0 2c5.523 0 10 4.477 10 10 0 2.41-.888 4.59-2.309 6.316L40.683 32.308C42.41 30.888 44.59 30 47 30m-7.691 3.684 14.008 14.008C51.59 49.112 49.41 50 47 50c-5.523 0-10-4.477-10-10 0-2.41.889-4.59 2.309-6.316" color="#000"/></svg>