<svg width="64" height="64" version="1.1" xmlns="http://www.w3.org/2000/svg">
 <defs>
  <linearGradient id="linearGradient9555" x1="14.679" x2="2.2933" y1="293.79" y2="282.98" gradientTransform="matrix(3.7795 0 0 3.9436 -.00086969 -1105.9)" gradientUnits="userSpaceOnUse">
   <stop stop-color="#66bcff" offset="0"/>
   <stop stop-color="#b29aff" offset="1"/>
  </linearGradient>
 </defs>
 <rect x="4" y="7.9999" width="55.999" height="48.001" rx="5" ry="5" fill="url(#linearGradient9555)" stroke-width="3.7299"/>
 <rect x="6.9991" y="10" width="50" height="4" rx="2" ry="2" fill="#000000" opacity=".35" stop-color="#000000" stroke-width="0"/>
 <rect x="7.9999" y="11" width="3.9988" height="1.9994" ry="1.0016" opacity=".35" stroke-width="3.7796" style="paint-order:stroke markers fill"/>
 <rect x="27.001" y="11" width="10.001" height="1.9994" ry="1.0016" opacity=".35" stroke-width="3.7796" style="paint-order:stroke markers fill"/>
 <rect x="53.999" y="11" width="1.9994" height="1.9994" ry="1.0016" opacity=".35" stroke-width="3.7796" style="paint-order:stroke markers fill"/>
 <rect x="50" y="11" width="3.001" height="1.9994" ry="1.0016" opacity=".35" stroke-width="3.7796" style="paint-order:stroke markers fill"/>
 <rect x="46.999" y="11" width="1.9994" height="1.9994" ry="1.0016" opacity=".35" stroke-width="3.7796" style="paint-order:stroke markers fill"/>
 <rect x="13.002" y="48.001" width="37.996" height="5.0004" rx="1" ry="1" fill="#ffffff" opacity=".35" stroke-width="3.7796" paint-order="markers stroke fill"/>
 <g transform="matrix(3.7796 0 0 3.7796 0 6.5104)" fill="#ccdfff">
  <rect x="4.2333" y="10.448" width="1.323" height="1.323" rx=".26433" ry=".26433" style="paint-order:stroke markers fill"/>
  <rect x="6.6145" y="10.448" width="1.323" height="1.323" rx=".26433" ry=".26433" style="paint-order:stroke markers fill"/>
  <rect x="8.9956" y="10.448" width="1.323" height="1.323" rx=".26433" ry=".26433" style="paint-order:stroke markers fill"/>
  <rect x="11.376" y="10.448" width="1.323" height="1.323" rx=".26433" ry=".26433" style="paint-order:stroke markers fill"/>
 </g>
 <g transform="matrix(1.5,0,0,1.5,-569.54,-769.77)" stroke-width=".66667">
  <path transform="translate(384.57,515.8)" d="m4 11v6h7v-5h-3l-1-1z" fill="#fff"/>
  <path d="m388.57 534.8v6h7v-5h-3l-1-1z" fill="#fff" opacity=".75"/>
  <path d="m398.57 526.8v6h5v-4l-2-2z" fill="#ffa86d"/>
  <path d="m401.57 526.8 2 2h-2z" fill="#ff7214" fill-rule="evenodd"/>
  <path d="m398.57 534.8v6h5v-4l-2-2z" fill="#94d669"/>
  <path d="m401.57 534.8 2 2h-2z" fill="#67b632" fill-rule="evenodd"/>
  <rect x="406.57" y="526.8" width="6" height="6" rx="2.6e-5" fill="#fff"/>
  <rect x="407.57" y="528.8" width="4" height="2" rx="1" opacity=".15"/>
  <rect x="409.57" y="528.8" width="2" height="2" rx="1" fill="#3daee9"/>
 </g>
</svg>
