<svg width="64" height="64" version="1.1" viewBox="0 0 16.933 16.933" xmlns="http://www.w3.org/2000/svg">
 <g transform="matrix(1.0382 0 0 1.0384 -.32156 -.32192)" stroke-width=".96313">
  <path d="m13.323 3.603c-0.048 0.049 2.02 4.86 2.02 4.86l-2.02 4.858s-4.86-2.568-4.86-4.859c0-2.29 4.86-4.859 4.86-4.859z" fill="#46a926" style="isolation:isolate"/>
  <path d="m3.604 13.321c0.049-0.049-2.02-4.859-2.02-4.859l2.02-4.859s4.86 2.569 4.86 4.86c0 2.29-4.86 4.858-4.86 4.858z" fill="#f22c42" style="isolation:isolate"/>
  <path d="m13.323 3.603c-0.048 0.049-4.86-2.019-4.86-2.019l-4.86 2.019 4.86 4.86z" fill="#ffda64" style="isolation:isolate"/>
  <path d="m3.604 13.321 4.86 2.013s4.81-2.062 4.86-2.013l-4.86-4.859z" fill="#2f5fdd" style="isolation:isolate"/>
  <path d="m8.464 1.587c-1e-3 1.758 0.672 3.516 2.019 4.862l2.845-2.844a6.88 6.88 0 0 0-4.861-2.018z" fill="#a6d74f" style="isolation:isolate"/>
  <path d="m13.328 3.605-2.845 2.844a6.84 6.84 0 0 0 4.863 2.012 6.88 6.88 0 0 0-2.018-4.856z" fill="#76c22b" style="isolation:isolate"/>
  <path d="m10.476 10.481a6.85 6.85 0 0 0-2.019 4.862h0.069a6.88 6.88 0 0 0 4.8-2.013z" fill="#1463a5" style="isolation:isolate"/>
  <path d="m15.346 8.469a6.84 6.84 0 0 0-4.87 2.012l2.85 2.85a6.88 6.88 0 0 0 2.02-4.862z" fill="#2b898f" style="isolation:isolate"/>
  <path d="m1.587 8.463a6.88 6.88 0 0 0 0 3e-3 6.88 6.88 0 0 0 2.014 4.857l2.85-2.848a6.839 6.839 0 0 0-4.864-2.011z" fill="#9b33ae" style="isolation:isolate"/>
  <path d="m6.45 10.475-2.85 2.848a6.88 6.88 0 0 0 4.826 2.02h0.043a6.85 6.85 0 0 0-2.019-4.868z" fill="#7839b7" style="isolation:isolate"/>
  <path d="m8.467 1.587a6.88 6.88 0 0 0-4.858 2.015l2.848 2.847a6.85 6.85 0 0 0 2.019-4.861 6.88 6.88 0 0 0-0.01 0z" fill="#fdc92b" style="isolation:isolate"/>
  <path d="m3.609 3.602a6.88 6.88 0 0 0-2.021 4.859 6.84 6.84 0 0 0 4.869-2.012z" fill="#f34f17" style="isolation:isolate"/>
 </g>
 <circle cx="8.4665" cy="8.4665" r="5.2916" fill="#fff" opacity=".35" style="paint-order:fill markers stroke"/>
 <g fill="#fff">
  <path d="m9.59 9.589a1.588 1.588 0 0 1-2.246 0 1.588 1.588 0 0 1 0-2.245 1.588 1.588 0 0 1 2.245 0 1.588 1.588 0 0 1 0 2.245z" color="#000000" opacity=".5" overflow="visible" style="isolation:auto;mix-blend-mode:normal;paint-order:fill markers stroke"/>
  <path d="m8.467 4.031a0.126 0.126 0 0 0-0.088 0.038l-2.102 2.102a3.175 3.175 0 0 0-0.056 0.05 3.175 3.175 0 0 0 0 4.49 3.175 3.175 0 0 0 4.49 0 3.175 3.175 0 0 0 1e-3 -4.49 3.175 3.175 0 0 0-0.076-0.07c-4e-3 -5e-3 -5e-3 -0.01-0.01-0.015l-2.067-2.067a0.126 0.126 0 0 0-0.092-0.038zm0.023 2.848a1.588 1.588 0 0 1 1.1 0.465 1.588 1.588 0 0 1 0 2.245 1.588 1.588 0 0 1-2.246 0 1.588 1.588 0 0 1 0-2.245 1.588 1.588 0 0 1 1.146-0.465z" color="#000000" overflow="visible" style="isolation:auto;mix-blend-mode:normal;paint-order:fill markers stroke"/>
  <path d="m9.022 7.718-0.561 0.561-0.561-0.561-0.188 0.187 0.562 0.561-0.55 0.573 0.176 0.176 0.56-0.562 0.562 0.562 0.199-0.176-0.573-0.573 0.561-0.56z" color="#000000" overflow="visible" style="isolation:auto;mix-blend-mode:normal;paint-order:fill markers stroke"/>
 </g>
</svg>
