<svg width="64" height="64" version="1.1" xmlns="http://www.w3.org/2000/svg">
 <defs>
  <linearGradient id="a" x1="40" x2="40" y1="59" y2="15" gradientUnits="userSpaceOnUse">
   <stop offset="0"/>
   <stop stop-opacity="0" offset="1"/>
  </linearGradient>
 </defs>
 <rect x="5" y="5" width="54" height="54" rx="27" fill="#4d4d4d"/>
 <path d="m31.953 5a27 27 0 0 0-25.185 17.357h0.11379l5.7857-1.9286 3.8571 3.8571v-3.8571l3.8571-1.9286v-1.9286l3.8571-1.9286 3.8571-3.8571v1.9286l1.9286-1.9286-1.9286-1.9286h3.8571v1.9286l3.8571-1.9286-1.9286-1.9286v-1.8321a27 27 0 0 0-1.9286-0.096429zm20.009 8.9196-0.72322 0.72321v1.9286h2.8331a27 27 0 0 0-2.1099-2.6518zm2.538 3.2477-7.1184 7.1184-1.9286 5.7857v1.9286l3.8571 3.8571 3.8571 1.9286 5.3826-1.3269a27 27 0 0 0 0.40307-4.4589 27 27 0 0 0-4.4531-14.833zm-45.69 9.0469-1.9286 1.9286h-1.6161c-0.096428 0.65571-0.16971 1.3134-0.21793 1.9729v0.0039l3.7626 1.8804 1.9286 1.9286 3.8571 1.9286 1.9286 1.9286-1.9286 1.9286v3.8571l1.9286 3.8571 3.8571 3.8571v5.0702a27 27 0 0 0 11.571 2.644c0.32786-0.0058 0.65571-0.01736 0.98357-0.03472l0.945-1.8939v-1.9286l3.8571-1.9286 1.9286-1.9286v-3.8571l1.9286-1.9286v-1.9286l-1.9286-1.9286-5.7857-1.9286-3.8571-3.8571h-1.9286l-1.9286-1.9286-5.7857-1.9286-3.8571 1.9286h-3.8571v-3.8571h-1.9286v-3.8571z" fill="#fff" opacity=".5"/>
 <path d="m52.631 14.553a48 48 0 0 1 0.36914 5.4453l-45.205 2e-3h45.205a48 48 0 0 1-20.09 38.977c14.532-0.47813 26.09-12.324 26.09-26.977 0-6.6651-2.3947-12.747-6.3691-17.447z" fill="url(#a)" opacity=".15"/>
 <path d="m18 18v10h10v-10zm14 0v2h2v-2zm4 0v10h10v-10zm-16 2h6v6h-6zm18 0h6v6h-6zm-16 2v2h2v-2zm8 0v4h2v-2h2v-2h-2zm2 4v2h-2v2h-2v2h2v2h4v-2h-2v-2h2v-4zm2 4v2h2v2h2v-2h2v-2h-4zm6-8v2h2v-2zm-20 8v2h2v-2zm2 2v2h4v-4h-2v2zm-2 0h-2v2h2zm22-2v2h2v-2zm0 4v2h2v-2zm2 2v2h2v-2zm-26 0v10h10v-10zm16 0v2h2v-2zm0 2h-2v2h-2v2h2v2h2v-4zm4-2v2h2v-2zm2 2v2h2v-2zm2 2v2h2v-2zm0 2h-2v4h2v-2zm-2 0v-2h-4v4h2v-2zm-20-4h6v6h-6zm2 2v2h2v-2zm22 4v2h2v-2z" fill="#ffdb4f"/>
</svg>
