<svg width="64" height="64" version="1.1" xmlns="http://www.w3.org/2000/svg">
 <rect x="40" y="10" width="15.999" height="17.001" ry="1.1792" fill="#5ad85d" stroke-width="3.7796"/>
 <rect x="40" y="23" width="15.999" height="17.001" ry="1.3266" fill="#ff584c" stroke-width="3.7796"/>
 <rect x="40" y="37.001" width="15.999" height="15.999" ry="1.251" fill="#ffce3d" stroke-width="3.7796"/>
 <rect transform="scale(1,-1)" x="8.0014" y="-58.032" width="46.002" height="52" rx="5.0317" ry="5.0317" fill="#387fe7" stroke-width="3.7796"/>
 <path d="m40.002 30.002a4 4 0 0 0-4 4v4h-2v8h12v-8h-2v-4a4 4 0 0 0-4-4zm0 2a2 2 0 0 1 2 2v4h-4v-4a2 2 0 0 1 2-2zm-10 0c-7.756 0-14 6.244-14 14h16v-2h-13.82a11.96 11.96 0 0 1 11.82-10c0.686 0 1.352 0.074 2 0.196v-2.024a13.308 13.308 0 0 0-2-0.172zm0-14c-3.324 0-6 2.676-6 6s2.676 6 6 6 6-2.676 6-6-2.676-6-6-6zm0 2c2.216 0 4 1.784 4 4s-1.784 4-4 4-4-1.784-4-4 1.784-4 4-4z" fill="#fff"/>
</svg>
