<svg xmlns="http://www.w3.org/2000/svg" width="64" height="64"><rect width="15.999" height="17.001" x="40" y="10" fill="#5ad85d" ry="1.179"/><rect width="15.999" height="17.001" x="40" y="23" fill="#ff584c" ry="1.327"/><rect width="15.999" height="15.999" x="40" y="37.001" fill="#ffce3d" ry="1.251"/><rect width="46.002" height="52" x="8.001" y="-58.032" fill="#387fe7" rx="5.032" ry="5.032" transform="scale(1 -1)"/><path fill="#fff" d="M40.002 30.002a4 4 0 0 0-4 4v4h-2v8h12v-8h-2v-4a4 4 0 0 0-4-4m0 2a2 2 0 0 1 2 2v4h-4v-4a2 2 0 0 1 2-2m-10 0c-7.756 0-14 6.244-14 14h16v-2h-13.82a11.96 11.96 0 0 1 11.82-10c.686 0 1.352.074 2 .196v-2.024a13 13 0 0 0-2-.172m0-14c-3.324 0-6 2.676-6 6s2.676 6 6 6 6-2.676 6-6-2.676-6-6-6m0 2c2.216 0 4 1.784 4 4s-1.784 4-4 4-4-1.784-4-4 1.784-4 4-4"/></svg>