<svg xmlns="http://www.w3.org/2000/svg" width="64" height="64"><defs><linearGradient id="a" x1="-22.977" x2="-15.685" y1="280.96" y2="296.25" gradientTransform="matrix(4.0495 0 0 3.7796 110.26 -1058.8)" gradientUnits="userSpaceOnUse"><stop offset="0" stop-color="#66bcff"/><stop offset="1" stop-color="#b29aff"/></linearGradient></defs><rect width="36" height="64" x="14" fill="#35373a" rx="6" ry="6"/><rect width="32" height="60" x="16" y="2" fill="url(#a)" opacity=".5" rx="4" ry="4"/><rect width="12" height="1" x="26" y="60" fill="#333" rx=".5" ry=".5"/><path fill="#fff" d="M29 24a1 1 0 1 0 0 2 1 1 0 0 0 0-2zm7 0-2 2 4 4-4 4 2 2 6-6-6-6zm-10 6a2 2 0 1 0 0 4 2 2 0 0 0 0-4zm5 6a3 3 0 1 0 0 6 3 3 0 0 0 0-6z" opacity=".5"/><circle cx="32" cy="4" r="1" fill="#333"/></svg>