<svg width="64" height="64" version="1.1" xmlns="http://www.w3.org/2000/svg">
 <path d="m32 5a27 27 0 0 0-27 27 27 27 0 0 0 27 27 27 27 0 0 0 27-27 27 27 0 0 0-27-27zm0 15.428a11.572 11.572 0 0 1 11.572 11.572 11.572 11.572 0 0 1-11.572 11.572 11.572 11.572 0 0 1-11.572-11.572 11.572 11.572 0 0 1 11.572-11.572z" fill="#c2c8cc"/>
 <path d="M 32,9 A 23,23 0 0 0 9,32 23,23 0 0 0 32,55 23,23 0 0 0 55,32 23,23 0 0 0 32,9 Z m 0,13.143 A 9.857,9.857 0 0 1 41.857,32 9.857,9.857 0 0 1 32,41.857 9.857,9.857 0 0 1 22.143,32 9.857,9.857 0 0 1 32,22.143 Z" fill="#fff" opacity=".15"/>
 <path d="m32 17a15 15 0 0 0-15 15 15 15 0 0 0 15 15 15 15 0 0 0 15-15 15 15 0 0 0-15-15zm0 9a6 6 0 0 1 6 6 6 6 0 0 1-6 6 6 6 0 0 1-6-6 6 6 0 0 1 6-6z" opacity=".35"/>
 <g transform="matrix(2 0 0 2 -43.625 -48.33)" stroke-width=".5">
  <path d="m46.813 44.165c-2.77 0-5 2.23-5 5s2.23 5 5 5 5-2.23 5-5-2.23-5-5-5z" fill="#2cc36c"/>
  <path d="m49.312 46.665 1 1-4.5 4.5-2.5-2.5 1-1 1.5 1.5z" fill="#fcfcfc"/>
 </g>
</svg>
