<svg xmlns="http://www.w3.org/2000/svg" xmlns:xlink="http://www.w3.org/1999/xlink" width="64" height="64" viewBox="0 0 16.933 16.933"><defs><linearGradient xlink:href="#a" id="b" x1="13.229" y1="297" x2="2.117" y2="280.067" gradientUnits="userSpaceOnUse" gradientTransform="matrix(1.07143 0 0 1 -.605 0)"/><linearGradient id="a"><stop offset="0" stop-color="#66bcff"/><stop offset="1" stop-color="#b29aff"/></linearGradient><clipPath clipPathUnits="userSpaceOnUse" id="c"><rect ry=".265" y="282.448" x="1.058" height="12.171" width="14.817" fill="url(#linearGradient866)" stroke-width=".535" stroke-opacity=".039" paint-order="stroke markers fill"/></clipPath></defs><g transform="translate(0 -280.067)"><path d="M.794 282.448H16.14c.146 0 .264.118.264.264v11.642a.264.264 0 0 1-.264.265H.794a.264.264 0 0 1-.265-.265v-11.642c0-.146.118-.264.265-.264z" fill="url(#b)" paint-order="stroke markers fill"/><g paint-order="markers stroke fill"><path d="M.53 283.506v4.498a4.233 4.233 0 0 0 4.232-4.233 4.233 4.233 0 0 0-.01-.265H.53z" opacity=".15"/><path d="M.53 283.506v3.175a2.91 2.91 0 0 0 2.91-2.91 2.91 2.91 0 0 0-.015-.265H.53z" opacity=".15"/><path d="M.53 283.506v1.852a1.587 1.587 0 0 0 1.587-1.587 1.587 1.587 0 0 0-.023-.265H.529z" opacity=".15"/></g><rect width="1.058" height=".529" x="1.587" y="282.712" ry=".265" opacity=".35" paint-order="stroke markers fill"/><rect ry=".265" y="282.712" x="7.144" height=".529" width="2.646" opacity=".35" paint-order="stroke markers fill"/><rect width=".529" height=".529" x="15.081" y="282.712" ry=".265" opacity=".35" paint-order="stroke markers fill"/><rect ry=".265" y="282.712" x="14.023" height=".529" width=".794" opacity=".35" paint-order="stroke markers fill"/><rect width=".529" height=".529" x="13.229" y="282.712" ry=".265" opacity=".35" paint-order="stroke markers fill"/><rect width="10.054" height="2.646" x="3.44" y="293.56" ry=".529" clip-path="url(#c)" opacity=".35" fill="#fff" paint-order="stroke markers fill"/><rect width="1.323" height="1.323" x="4.498" y="292.767" ry=".132" fill="#ccdfff" paint-order="stroke markers fill"/><rect ry=".132" y="292.767" x="6.703" height="1.323" width="1.323" fill="#ccdfff" paint-order="stroke markers fill"/><rect width="1.323" height="1.323" x="8.908" y="292.767" ry=".132" fill="#ccdfff" paint-order="stroke markers fill"/><rect ry=".132" y="292.767" x="11.112" height="1.323" width="1.323" fill="#ccdfff" paint-order="stroke markers fill"/><path d="M.794 282.448a.264.264 0 0 0-.265.265v.793h15.875v-.793a.264.264 0 0 0-.264-.265z" opacity=".35" paint-order="stroke markers fill"/><g paint-order="markers stroke fill"><path d="M16.404 283.506v4.498a4.233 4.233 0 0 1-4.233-4.233 4.233 4.233 0 0 1 .01-.265z" opacity=".15"/><path d="M16.404 283.506v3.175a2.91 2.91 0 0 1-2.91-2.91 2.91 2.91 0 0 1 .014-.265z" opacity=".15"/><path d="M16.404 283.506v1.852a1.587 1.587 0 0 1-1.587-1.587 1.587 1.587 0 0 1 .022-.265z" opacity=".15"/></g></g></svg>