<svg width="64" height="64" version="1.1" xmlns="http://www.w3.org/2000/svg" xmlns:xlink="http://www.w3.org/1999/xlink">
 <rect x="6" y="6" width="52" height="52" rx="2" ry="2" fill="#3e4245" style="paint-order:stroke markers fill"/>
 <path d="m12 15h24v2h-24z" fill="#fff"/>
 <circle cx="43" cy="16" r="2" fill="#72d406"/>
 <circle cx="51" cy="16" r="2" fill="#72d406"/>
 <g fill="#fff">
  <path d="m12 31h24v2h-24z"/>
  <circle cx="43" cy="32" r="2"/>
  <circle cx="51" cy="32" r="2"/>
  <path d="m12 47h24v2h-24z"/>
 </g>
 <g fill-rule="evenodd">
  <rect x="6" y="22" width="52" height="3" rx="0" ry="0" fill="#00000f" opacity=".5" style="paint-order:fill markers stroke"/>
  <rect x="6" y="38" width="52" height="3" rx="0" ry="0" fill="#00000f" opacity=".5" style="paint-order:fill markers stroke"/>
  <circle cx="46" cy="46" r="18" fill="#3f9cd3" style="paint-order:fill markers stroke"/>
 </g>
 <path d="m52 33-4 4-4 2-2 2-10 2v4l2 2v2l2 2v2l2 2h14l2 2 6-6-2-2-2-10-4 4-4 2-2 2-9.308 1.864-0.692-0.692v-1.532l8.988-1.8 2.2-2.2 4-2 3.284-3.284-0.472-2.356-4 4-4 2-2 2-9.308 1.864-0.692-0.692v-1.532l8.988-1.8 2.2-2.2 4-2 3.284-3.284z" fill="#fff"/>
</svg>
