<svg width="64" height="64" version="1.1" xmlns="http://www.w3.org/2000/svg">
 <defs>
  <linearGradient id="a" x1="40" x2="40" y1="59" y2="15" gradientUnits="userSpaceOnUse">
   <stop offset="0"/>
   <stop stop-opacity="0" offset="1"/>
  </linearGradient>
 </defs>
 <rect x="5" y="5" width="54" height="54" rx="27" fill="#4d4d4d"/>
 <path d="m31.953 5a27 27 0 0 0-25.185 17.357h0.11379l5.7857-1.9286 3.8571 3.8571v-3.8571l3.8571-1.9286v-1.9286l3.8571-1.9286 3.8571-3.8571v1.9286l1.9286-1.9286-1.9286-1.9286h3.8571v1.9286l3.8571-1.9286-1.9286-1.9286v-1.8321a27 27 0 0 0-1.9286-0.096429zm20.009 8.9196-0.72322 0.72321v1.9286h2.8331a27 27 0 0 0-2.1099-2.6518zm2.538 3.2477-7.1184 7.1184-1.9286 5.7857v1.9286l3.8571 3.8571 3.8571 1.9286 5.3826-1.3269a27 27 0 0 0 0.40307-4.4589 27 27 0 0 0-4.4531-14.833zm-45.69 9.0469-1.9286 1.9286h-1.6161c-0.096428 0.65571-0.16971 1.3134-0.21793 1.9729v0.0039l3.7626 1.8804 1.9286 1.9286 3.8571 1.9286 1.9286 1.9286-1.9286 1.9286v3.8571l1.9286 3.8571 3.8571 3.8571v5.0702a27 27 0 0 0 11.571 2.644c0.32786-0.0058 0.65571-0.01736 0.98357-0.03472l0.945-1.8939v-1.9286l3.8571-1.9286 1.9286-1.9286v-3.8571l1.9286-1.9286v-1.9286l-1.9286-1.9286-5.7857-1.9286-3.8571-3.8571h-1.9286l-1.9286-1.9286-5.7857-1.9286-3.8571 1.9286h-3.8571v-3.8571h-1.9286v-3.8571z" fill="#fff" opacity=".75"/>
 <path d="m32 22.508c-3.052 2.12-6.48 3.192-9.9199 3.92 1.63 9.2439 5.14 13.198 9.9199 15.674 4.78-2.476 8.2899-6.43 9.9199-15.674-3.44-0.72799-6.868-1.8-9.9199-3.92zm0-4.508s-3.5 4.648-14 5.814c0 0 0 16.34 14 22.186 14-5.848 14-22.186 14-22.186-10.5-1.166-14-5.814-14-5.814zm0 2.41c2.776 2.354 6.786 3.922 11.98 4.714-0.28 2.528-0.554 4.43-1.206 6.27-1.376 3.866-2.976 6.22-4.41 7.9099-2.23 2.622-4.252 3.68-6.364 4.736-2.112-1.054-4.134-2.114-6.364-4.736-1.434-1.69-3.034-4.044-4.41-7.9099-0.652-1.84-0.92599-3.74-1.208-6.27 5.196-0.792 9.2059-2.36 11.982-4.714z" fill="#ffdb4f"/>
 <path d="m52.631 14.553a48 48 0 0 1 0.36914 5.4453l-45.205 0.001953h45.205a48 48 0 0 1-20.09 38.977c14.532-0.47813 26.09-12.324 26.09-26.977 0-6.6651-2.3947-12.747-6.3691-17.447z" fill="url(#a)" opacity=".15"/>
</svg>
