<svg width="64" height="64" version="1.1" xmlns="http://www.w3.org/2000/svg" xmlns:xlink="http://www.w3.org/1999/xlink">
 <defs>
  <linearGradient id="a" x1="13.229" x2="2.117" y1="297" y2="280.07" gradientTransform="matrix(4.0496,0,0,3.7796,-2.2867,-1058.5)" gradientUnits="userSpaceOnUse">
   <stop stop-color="#66bcff" offset="0"/>
   <stop stop-color="#b29aff" offset="1"/>
  </linearGradient>
 </defs>
 <g stroke-width="3.7796">
  <path d="m3.001 8.9992h58.002c0.55182 0 0.99781 0.44599 0.99781 0.99781v44.002a0.99781 0.99781 0 0 1-0.99781 1.0016h-58.002a0.99781 0.99781 0 0 1-1.0016-1.0016v-44.002c0-0.55182 0.44599-0.99781 1.0016-0.99781z" fill="url(#a)" style="paint-order:stroke markers fill"/>
  <rect x="5.9982" y="9.9971" width="3.9988" height="1.9994" ry="1.0016" opacity=".35" style="paint-order:stroke markers fill"/>
  <rect x="27.001" y="9.9971" width="10.001" height="1.9994" ry="1.0016" opacity=".35" style="paint-order:stroke markers fill"/>
  <rect x="57" y="9.9971" width="1.9994" height="1.9994" ry="1.0016" opacity=".35" style="paint-order:stroke markers fill"/>
  <rect x="53.001" y="9.9971" width="3.001" height="1.9994" ry="1.0016" opacity=".35" style="paint-order:stroke markers fill"/>
  <rect x="50" y="9.9971" width="1.9994" height="1.9994" ry="1.0016" opacity=".35" style="paint-order:stroke markers fill"/>
  <path d="m15.002 51.039c-1.1077 0-2 0.89233-2 2v2.0098h38v-2.0098c0-1.1077-0.89233-2-2-2z" fill="#fff" opacity=".35" style="paint-order:stroke markers fill"/>
  <g fill="#ccdfff">
   <rect x="17.001" y="48.001" width="5.0004" height="5.0004" ry=".49891" style="paint-order:stroke markers fill"/>
   <rect x="25.335" y="48.001" width="5.0004" height="5.0004" ry=".49891" style="paint-order:stroke markers fill"/>
   <rect x="33.669" y="48.001" width="5.0004" height="5.0004" ry=".49891" style="paint-order:stroke markers fill"/>
   <rect x="42.003" y="48.001" width="5.0004" height="5.0004" ry=".49891" style="paint-order:stroke markers fill"/>
  </g>
  <path d="m3.001 8.9992a0.99781 0.99781 0 0 0-1.0016 1.0016v2.9972h60.001v-2.9972a0.99781 0.99781 0 0 0-0.99781-1.0016z" opacity=".35" style="paint-order:stroke markers fill"/>
 </g>
 <g transform="matrix(2,0,0,2,0,-4)" fill="#fff" stroke-width=".5">
  <path d="m16 12a9 9 0 0 0-7.877 4.668c0.129 0.364 0.357 0.677 0.656 0.908a8 8 0 0 1 7.221-4.576 4 4 0 0 0-4 4 4 4 0 0 0 4 4 4 4 0 0 0 4-4 4 4 0 0 0-3.65-3.982 8 8 0 0 1 6.87 4.558c0.302-0.234 0.533-0.55 0.66-0.918a9 9 0 0 0-7.88-4.658zm0 2a3 3 0 0 1 3 3 3 3 0 0 1-3 3 3 3 0 0 1-3-3 3 3 0 0 1 3-3zm0 1a2 2 0 0 0-2 2 2 2 0 0 0 2 2 2 2 0 0 0 2-2 2 2 0 0 0-0.09-0.588 1 1 0 0 1-0.91 0.588 1 1 0 0 1-1-1 1 1 0 0 1 0.59-0.91 2 2 0 0 0-0.59-0.09z"/>
  <path d="m8 11v11h7v2h-3v1h8v-1h-3v-2h7v-11h-15zm1 1h14v9h-14z"/>
 </g>
</svg>
