<svg width="64" height="64" version="1.1" viewBox="0 0 16.933 16.933" xmlns="http://www.w3.org/2000/svg">
 <defs>
  <linearGradient id="linearGradient9555" x1="14.679" x2="2.2933" y1="293.79" y2="282.98" gradientTransform="matrix(.99998 0 0 1.0434 -.0002301 -292.59)" gradientUnits="userSpaceOnUse">
   <stop stop-color="#66bcff" offset="0"/>
   <stop stop-color="#b29aff" offset="1"/>
  </linearGradient>
 </defs>
 <rect x="1.0583" y="2.1166" width="14.816" height="12.7" rx="1.3229" ry="1.3229" fill="url(#linearGradient9555)" stroke-width=".98684"/>
 <rect x="1.8518" y="2.6458" width="13.229" height="1.0583" rx=".52915" ry=".52915" fill="#000000" opacity=".35" stop-color="#000000" stroke-width="0"/>
 <rect x="2.1166" y="2.9104" width="1.058" height=".529" ry=".265" opacity=".35" style="paint-order:stroke markers fill"/>
 <rect x="7.144" y="2.9104" width="2.646" height=".529" ry=".265" opacity=".35" style="paint-order:stroke markers fill"/>
 <rect x="14.287" y="2.9104" width=".529" height=".529" ry=".265" opacity=".35" style="paint-order:stroke markers fill"/>
 <rect x="13.229" y="2.9104" width=".794" height=".529" ry=".265" opacity=".35" style="paint-order:stroke markers fill"/>
 <rect x="12.435" y="2.9104" width=".529" height=".529" ry=".265" opacity=".35" style="paint-order:stroke markers fill"/>
 <rect x="3.44" y="12.7" width="10.053" height="1.323" rx=".26458" ry=".26458" fill="#ffffff" opacity=".35" paint-order="markers stroke fill"/>
 <g transform="translate(0,1.7225)" fill="#ccdfff">
  <rect x="4.2333" y="10.448" width="1.323" height="1.323" rx=".26433" ry=".26433" style="paint-order:stroke markers fill"/>
  <rect x="6.6145" y="10.448" width="1.323" height="1.323" rx=".26433" ry=".26433" style="paint-order:stroke markers fill"/>
  <rect x="8.9956" y="10.448" width="1.323" height="1.323" rx=".26433" ry=".26433" style="paint-order:stroke markers fill"/>
  <rect x="11.376" y="10.448" width="1.323" height="1.323" rx=".26433" ry=".26433" style="paint-order:stroke markers fill"/>
 </g>
 <g transform="translate(.5283 -281.39)" style="paint-order:markers stroke fill">
  <g fill="#000000">
   <path d="m2.0942 283.51a1.587 1.587 0 0 1 0.022737 0.2651 1.587 1.587 0 0 1-1.587 1.587v2.6458a4.233 4.233 0 0 0 4.2322-4.2327 4.233 4.233 0 0 0-0.010335-0.2651h-2.6577z" opacity=".15"/>
   <path d="m2.0942 283.51a1.587 1.587 0 0 1 0.022737 0.2651 1.587 1.587 0 0 1-1.587 1.587v1.3229a2.91 2.91 0 0 0 2.9098-2.9098 2.91 2.91 0 0 0-0.014986-0.2651h-1.3306z" opacity=".2"/>
   <path d="m1.8529 283.51c-0.73289 0-1.3229 0.59001-1.3229 1.3229v0.52915a1.587 1.587 0 0 0 1.587-1.587 1.587 1.587 0 0 0-0.022737-0.2651h-0.24132z" opacity=".45"/>
  </g>
 </g>
 <g transform="matrix(-1 0 0 1 16.404 -281.39)" style="paint-order:markers stroke fill">
  <g fill="#000000">
   <path d="m2.0942 283.51a1.587 1.587 0 0 1 0.022737 0.2651 1.587 1.587 0 0 1-1.587 1.587v2.6458a4.233 4.233 0 0 0 4.2322-4.2327 4.233 4.233 0 0 0-0.010335-0.2651z" opacity=".15"/>
   <path d="m2.0942 283.51a1.587 1.587 0 0 1 0.022737 0.2651 1.587 1.587 0 0 1-1.587 1.587v1.3229a2.91 2.91 0 0 0 2.9098-2.9098 2.91 2.91 0 0 0-0.014986-0.2651z" opacity=".2"/>
   <path d="m1.8529 283.51c-0.73289 0-1.3229 0.59001-1.3229 1.3229v0.52915a1.587 1.587 0 0 0 1.587-1.587 1.587 1.587 0 0 0-0.022737-0.2651z" opacity=".45"/>
  </g>
 </g>
</svg>
