<svg xmlns="http://www.w3.org/2000/svg" xmlns:xlink="http://www.w3.org/1999/xlink" width="64" height="64" viewBox="0 0 16.933 16.933"><defs><linearGradient id="a"><stop offset="0" stop-color="#66bcff"/><stop offset="1" stop-color="#b29aff"/></linearGradient><linearGradient xlink:href="#a" id="h" x1="13.229" y1="297" x2="2.117" y2="280.067" gradientUnits="userSpaceOnUse" gradientTransform="matrix(1.07143 0 0 1 -.605 0)"/><clipPath clipPathUnits="userSpaceOnUse" id="n"><rect ry=".265" y="282.448" x="1.058" height="12.171" width="14.817" fill="url(#b)" stroke-width=".535" stroke-opacity=".039" paint-order="stroke markers fill"/></clipPath><linearGradient xlink:href="#a" id="b" gradientUnits="userSpaceOnUse" x1="13.229" y1="297" x2="2.117" y2="280.067"/><clipPath clipPathUnits="userSpaceOnUse" id="m"><rect ry=".265" y="282.448" x=".529" height="12.171" width="15.875" fill="url(#c)" stroke-width=".554" stroke-opacity=".039" paint-order="stroke markers fill"/></clipPath><linearGradient xlink:href="#a" id="c" gradientUnits="userSpaceOnUse" gradientTransform="matrix(1.07143 0 0 1 -.605 0)" x1="13.229" y1="297" x2="2.117" y2="280.067"/><clipPath clipPathUnits="userSpaceOnUse" id="l"><rect ry=".265" y="282.448" x=".529" height="12.171" width="15.875" fill="url(#d)" stroke-width=".554" stroke-opacity=".039" paint-order="stroke markers fill"/></clipPath><linearGradient xlink:href="#a" id="d" gradientUnits="userSpaceOnUse" gradientTransform="matrix(1.07143 0 0 1 -.605 0)" x1="13.229" y1="297" x2="2.117" y2="280.067"/><clipPath clipPathUnits="userSpaceOnUse" id="k"><rect ry=".265" y="282.448" x=".529" height="12.171" width="15.875" fill="url(#e)" stroke-width=".554" stroke-opacity=".039" paint-order="stroke markers fill"/></clipPath><linearGradient xlink:href="#a" id="e" gradientUnits="userSpaceOnUse" gradientTransform="matrix(1.07143 0 0 1 -.605 0)" x1="13.229" y1="297" x2="2.117" y2="280.067"/><clipPath clipPathUnits="userSpaceOnUse" id="j"><rect ry=".265" y="282.448" x=".529" height="12.171" width="15.875" fill="url(#f)" stroke-width=".554" stroke-opacity=".039" paint-order="stroke markers fill"/></clipPath><linearGradient xlink:href="#a" id="f" gradientUnits="userSpaceOnUse" gradientTransform="matrix(1.07143 0 0 1 -.605 0)" x1="13.229" y1="297" x2="2.117" y2="280.067"/><clipPath clipPathUnits="userSpaceOnUse" id="i"><rect ry=".265" y="282.448" x=".529" height="12.171" width="15.875" fill="url(#g)" stroke-width=".554" stroke-opacity=".039" paint-order="stroke markers fill"/></clipPath><linearGradient xlink:href="#a" id="g" gradientUnits="userSpaceOnUse" gradientTransform="matrix(1.07143 0 0 1 -.605 0)" x1="13.229" y1="297" x2="2.117" y2="280.067"/></defs><g transform="translate(0 -280.067)"><rect width="15.875" height="12.171" x=".529" y="282.448" ry=".265" fill="url(#h)" paint-order="stroke markers fill"/><path clip-path="url(#i)" d="M.553 283.506H3.44v11.113H.553m0-11.113" fill="#9ab9dd"/><path clip-path="url(#j)" d="M3.44 283.506h2.886v11.113H3.44m0-11.113" fill="#9add9c"/><path clip-path="url(#k)" d="M6.326 283.506h4.33v11.113h-4.33m0-11.113" fill="#f3f284"/><path clip-path="url(#l)" d="M10.655 283.506h2.887v11.113h-2.887m0-11.113" fill="#edb968"/><path clip-path="url(#m)" d="M13.542 283.506h2.886v11.113h-2.886m0-11.113" fill="#ed8e68"/><rect width="1.058" height=".529" x="1.587" y="282.712" ry=".265" opacity=".35" paint-order="stroke markers fill"/><rect ry=".265" y="282.712" x="7.144" height=".529" width="2.646" opacity=".35" paint-order="stroke markers fill"/><rect width=".529" height=".529" x="15.081" y="282.712" ry=".265" opacity=".35" paint-order="stroke markers fill"/><rect ry=".265" y="282.712" x="14.023" height=".529" width=".794" opacity=".35" paint-order="stroke markers fill"/><rect width=".529" height=".529" x="13.229" y="282.712" ry=".265" opacity=".35" paint-order="stroke markers fill"/><rect width="10.054" height="2.646" x="3.44" y="293.56" ry=".529" clip-path="url(#n)" opacity=".35" fill="#fff" paint-order="stroke markers fill"/><rect width="1.323" height="1.323" x="4.498" y="292.767" ry=".132" fill="#fff" paint-order="stroke markers fill"/><rect ry=".132" y="292.767" x="6.703" height="1.323" width="1.323" fill="#fff" paint-order="stroke markers fill"/><rect width="1.323" height="1.323" x="8.908" y="292.767" ry=".132" fill="#fff" paint-order="stroke markers fill"/><rect ry=".132" y="292.767" x="11.113" height="1.323" width="1.323" fill="#fff" paint-order="stroke markers fill"/><path d="M.794 282.448a.264.264 0 0 0-.265.265v.793h15.875v-.793a.264.264 0 0 0-.264-.265H.794z" opacity=".35" paint-order="stroke markers fill"/></g></svg>