<svg width="64" height="64" version="1.1" xmlns="http://www.w3.org/2000/svg" xmlns:xlink="http://www.w3.org/1999/xlink">
 <rect x="6" y="6" width="52" height="52" rx="2" ry="2" fill="#3e4245" style="paint-order:stroke markers fill"/>
 <path d="m12 15h24v2h-24z" fill="#fff"/>
 <circle cx="43" cy="16" r="2" fill="#72d406"/>
 <circle cx="51" cy="16" r="2" fill="#72d406"/>
 <g fill="#fff">
  <path d="m12 31h24v2h-24z"/>
  <circle cx="43" cy="32" r="2"/>
  <circle cx="51" cy="32" r="2"/>
  <path d="m12 47h24v2h-24z"/>
 </g>
 <g fill-rule="evenodd">
  <rect x="6" y="22" width="52" height="3" rx="0" ry="0" fill="#00000f" opacity=".5" style="paint-order:fill markers stroke"/>
  <rect x="6" y="38" width="52" height="3" rx="0" ry="0" fill="#00000f" opacity=".5" style="paint-order:fill markers stroke"/>
  <circle cx="46" cy="46" r="18" fill="#5687e3" style="paint-order:fill markers stroke"/>
  <path d="m48 32.156v1.8438 3 1h6v2h-6v4h8 2 1.8418a14 14 0 0 0-1.8418-5.1719v-0.009766a14 14 0 0 0-0.029297-0.042968 14 14 0 0 0-0.005859-0.011719 14 14 0 0 0-0.15625-0.23047 14 14 0 0 0-0.61524-0.91406 14 14 0 0 0-0.32226-0.38867 14 14 0 0 0-0.56445-0.67969 14 14 0 0 0-0.45703-0.45312 14 14 0 0 0-0.54102-0.53125 14 14 0 0 0-0.43555-0.35156 14 14 0 0 0-0.66016-0.53125 14 14 0 0 0-0.19922-0.13086 14 14 0 0 0-0.83398-0.55273h-0.015626a14 14 0 0 0-5.1641-1.8438zm-4 0.007812a14 14 0 0 0-5.1562 1.8359h-0.025391a14 14 0 0 0-4.8184 4.8203v0.027344a14 14 0 0 0-1.8379 5.1523h1.8379 3 1.1289a4 4 0 0 1-0.12891-1v-1a4 4 0 0 1 4-4h2v-1-3-1.8359zm-2 7.8359a2.014 2.014 0 0 0-0.58984 0.089844 1.994 1.994 0 0 0-0.69922 0.38086 2 2 0 0 0-0.49219 0.62305 1.994 1.994 0 0 0-0.21875 0.90625v1a2 2 0 0 0 0.27344 1h3.7266v-4h-2zm-9.8418 8a14 14 0 0 0 1.8418 5.1719v0.009766a14 14 0 0 0 0.029297 0.042968 14 14 0 0 0 0.16211 0.24219 14 14 0 0 0 0.61524 0.91406 14 14 0 0 0 0.32226 0.38867 14 14 0 0 0 0.56445 0.67969 14 14 0 0 0 0.45703 0.45312 14 14 0 0 0 0.54102 0.53125 14 14 0 0 0 0.43555 0.35156 14 14 0 0 0 0.66016 0.53125 14 14 0 0 0 0.19922 0.13086 14 14 0 0 0 0.83398 0.55273h0.015626a14 14 0 0 0 5.1641 1.8438v-1.8438-2-2h-6v-2h6v-4h-7-3-1.8418zm15.842 0v4h2a2.014 2.014 0 0 0 0.58984-0.089844 1.994 1.994 0 0 0 0.69922-0.38086 2 2 0 0 0 0.49219-0.62305 1.994 1.994 0 0 0 0.21875-0.90625v-1a2 2 0 0 0-0.27344-1h-3.7266zm5.8711 0a4 4 0 0 1 0.12891 1v1a4 4 0 0 1-4 4h-2v2 2 1.8359a14 14 0 0 0 5.1562-1.8359h0.025391a14 14 0 0 0 4.8184-4.8203v-0.027344a14 14 0 0 0 1.8379-5.1523h-1.8379-2-2-0.12891z" fill="#fff" style="paint-order:fill markers stroke"/>
 </g>
</svg>
