<svg xmlns="http://www.w3.org/2000/svg" width="64" height="64"><rect width="52" height="52" x="6" y="6" fill="#3e4245" rx="2" ry="2" style="paint-order:stroke markers fill"/><path fill="#fff" d="M12 15h24v2H12z"/><circle cx="43" cy="16" r="2" fill="#72d406"/><circle cx="51" cy="16" r="2" fill="#72d406"/><path fill="#fff" d="M12 31h24v2H12z"/><circle cx="43" cy="32" r="2" fill="#72d406"/><circle cx="51" cy="32" r="2" fill="#72d406"/><path fill="#fff" d="M12 47h24v2H12z"/><rect width="52" height="3" x="6" y="22" fill="#00000f" fill-rule="evenodd" opacity=".5" rx="0" ry="0" style="paint-order:fill markers stroke"/><rect width="52" height="3" x="6" y="38" fill="#00000f" fill-rule="evenodd" opacity=".5" rx="0" ry="0" style="paint-order:fill markers stroke"/><circle cx="43" cy="48" r="2" fill="#72d406"/><circle cx="51" cy="48" r="2" fill="#72d406"/><circle cx="46" cy="46" r="18" fill="#f55" fill-rule="evenodd" style="paint-order:fill markers stroke"/><path fill="#fff" d="M44 34h4v10h-4zm6 .7v2.14A10 10 0 0 1 56 46a10 10 0 0 1-10 10 10 10 0 0 1-10-10 10 10 0 0 1 6-9.152v-2.144A12 12 0 0 0 34 46a12 12 0 0 0 12 12 12 12 0 0 0 12-12 12 12 0 0 0-8-11.3"/></svg>