<svg width="64" height="64" version="1.1" xmlns="http://www.w3.org/2000/svg">
 <path d="m62 17.998-59.996 0.0038v31.154c0.082334 3.2512 2.7244 5.8438 5.9961 5.8438h48c3.324 0 6-2.676 6-6z" fill="#ececec" stroke-width="3.7796"/>
 <path d="m8 9c-3.324 0-6 2.676-6 6v2.9981h60v-2.9981c0-3.324-2.676-6-6-6z" fill="#666666" stroke-width="3.7796"/>
 <rect x="53.502" y="12" width="3.001" height="3.001" ry="1.5005" opacity=".35" stroke-width="3.7796" paint-order="stroke markers fill"/>
 <rect x="47.5" y="12" width="3.001" height="3.001" ry="1.5005" opacity=".35" stroke-width="3.7796" paint-order="stroke markers fill"/>
 <rect x="41.501" y="12" width="3.001" height="3.001" ry="1.5005" opacity=".35" stroke-width="3.7796" paint-order="stroke markers fill"/>
 <g transform="translate(-.003401 .58592)" stroke-width=".57977">
  <path d="m12.003 26.414h3.5294l4.1177 11.429 4.1177-11.429h3.5294l-5.8824 16h-3.5294z" fill="#ef4a5b"/>
  <path d="m24.945 42.414 5.8824-16h3.5294l-5.8824 16zm11.765 0 5.8824-16h3.5294l-5.8824 16z" fill="#3e4143"/>
  <path d="m21.415 42.414 5.8824-16h3.5294l-5.8824 16zm11.765 0 5.8824-16h3.5294l-5.8824 16z" fill="#949b9d"/>
  <path d="m36.709 42.414h-3.5294l-5.8824-16h3.5294zm11.765 0h-3.5294l-5.8824-16h3.5294z" fill="#babfc2"/>
  <path d="m30.827 26.414 5.8824 16h3.5294l-5.8824-16zm11.765 0 5.8824 16h3.5294l-5.8824-16z" fill="#535353"/>
 </g>
 <circle cx="53" cy="48" r="11" fill="#4d4d4d" stop-color="#000000" stroke-width="0"/>
 <path d="m52 40v12.172l-4.586-4.586-1.414 1.414 7 7 7-7-1.414-1.414-4.586 4.586v-12.172z" fill="#ffffff"/>
</svg>
