<svg width="64" height="64" version="1.1" xmlns="http://www.w3.org/2000/svg">
 <g transform="matrix(1.0385 0 0 1.0385 -1.2308 -1.2308)">
  <circle cx="32" cy="32" r="26" fill="#ba3c37" stroke-width=".9273" style="paint-order:markers stroke fill"/>
  <path d="m32 6a26 26 0 0 0-10 2.025v5.975h-8.72a26 26 0 0 0-1.737 2h1.457v6h-4.992a26 26 0 0 0-0.73 2h14.722v7h-15.95a26 26 0 0 0-0.05 1 26 26 0 0 0 0.035 1h6.965v7h-5.705a26 26 0 0 0 0.73 2h13.975v6h-10.482a26 26 0 0 0 3.482 3.654v-1.654h16v6h-8.98a26 26 0 0 0 9.98 2 26 26 0 0 0 9.941-2h-8.941v-6h16v1.63a26 26 0 0 0 3.457-3.63h-10.457v-6h13.992a26 26 0 0 0 0.73-2h-5.722v-7h6.95a26 26 0 0 0 0.05-1 26 26 0 0 0-0.035-1h-15.965v-7h14.705a26 26 0 0 0-0.73-2h-4.975v-6h1.482a26 26 0 0 0-1.73-2h-8.752v-5.992a26 26 0 0 0-10-2.008zm-8 2h16v6h-16zm-9 8h16v6h-16zm18 0h16v6h-16zm-9 8h16v7h-16zm-9 9h16v7h-16zm18 0h16v7h-16zm-9 9h16v6h-16z" opacity=".1" stroke-width=".9273" style="paint-order:markers stroke fill"/>
  <g color="#000000" stroke-width=".53541">
   <path d="m29.617 16.947c-0.125 5.221-1.775 9.796-4.95 13.723-0.125-1.546-0.603-3.092-1.439-4.638-0.083 1.17-0.555 2.727-1.41 4.67-0.857 1.941-1.39 3.349-1.598 4.226-0.46 2.213-0.199 4.156 0.783 5.827 0.981 1.67 2.913 3.32 5.795 4.95 4.36 1.698 6.043 1.78 9.65 0 2.047-1.17 3.676-2.455 4.887-3.855 1.212-1.399 1.983-2.756 2.317-4.072 0.334-1.315 0.427-2.673 0.281-4.072-0.146-1.4-0.478-2.663-1-3.791a23.692 23.692 0 0 0-1.787-3.195c-0.669-1.002-1.272-1.795-1.815-2.38s-0.982-1.002-1.317-1.253c0.293 0.794 0.396 1.65 0.313 2.57-0.084 0.918-0.29 1.754-0.625 2.506-0.125-1.253-0.493-2.507-1.099-3.76-0.605-1.253-1.252-2.288-1.941-3.103a19.505 19.505 0 0 0-2.38-2.348c-0.898-0.752-1.516-1.242-1.85-1.471a16.65 16.65 0 0 0-0.815-0.534z" fill="#ffd33f" overflow="visible" solid-color="#000000" style="isolation:auto;mix-blend-mode:normal"/>
   <path d="m36.448 45.705c1.378-2.757 1.65-5.733 0.814-8.928-0.835-3.196-2.485-5.65-4.95-7.362 0.21 0.919 0.094 2.433-0.344 4.542-0.439 2.11-1.138 3.707-2.1 4.793 0.168-1.336 0.21-2.422 0.126-3.258-0.083-0.835-0.209-1.461-0.376-1.88l-0.313-0.563c-0.25 1.504-0.898 3.007-1.942 4.511-0.543 0.794-0.95 1.525-1.222 2.193-0.271 0.668-0.376 1.524-0.313 2.569 0.062 1.044 0.386 2.172 0.97 3.383 0 0 1.652 1.348 3.493 1.348 4.462 0 4.665-0.496 6.157-1.348z" fill="#fff3cb" overflow="visible" solid-color="#000000" style="isolation:auto;mix-blend-mode:normal"/>
  </g>
 </g>
</svg>
