<svg width="64" height="64" version="1.1" xmlns="http://www.w3.org/2000/svg">
 <defs>
  <linearGradient id="linearGradient9555" x1="14.679" x2="2.2933" y1="293.79" y2="282.98" gradientTransform="matrix(3.7795 0 0 3.9436 -.00086969 -1105.9)" gradientUnits="userSpaceOnUse">
   <stop stop-color="#66bcff" offset="0"/>
   <stop stop-color="#b29aff" offset="1"/>
  </linearGradient>
 </defs>
 <rect x="4" y="7.9999" width="55.999" height="48.001" rx="5" ry="5" fill="url(#linearGradient9555)" stroke-width="3.7299"/>
 <rect x="6.9991" y="10" width="50" height="4" rx="2" ry="2" fill="#000000" opacity=".35" stop-color="#000000" stroke-width="0"/>
 <rect x="7.9999" y="11" width="3.9988" height="1.9994" ry="1.0016" opacity=".35" stroke-width="3.7796" style="paint-order:stroke markers fill"/>
 <rect x="27.001" y="11" width="10.001" height="1.9994" ry="1.0016" opacity=".35" stroke-width="3.7796" style="paint-order:stroke markers fill"/>
 <rect x="53.999" y="11" width="1.9994" height="1.9994" ry="1.0016" opacity=".35" stroke-width="3.7796" style="paint-order:stroke markers fill"/>
 <rect x="50" y="11" width="3.001" height="1.9994" ry="1.0016" opacity=".35" stroke-width="3.7796" style="paint-order:stroke markers fill"/>
 <rect x="46.999" y="11" width="1.9994" height="1.9994" ry="1.0016" opacity=".35" stroke-width="3.7796" style="paint-order:stroke markers fill"/>
 <g transform="matrix(2,0,0,2,0,-1)" fill="#ffffff" stroke-width=".5">
  <path d="m16 12a9 9 0 0 0-7.877 4.668c0.129 0.364 0.357 0.677 0.656 0.908a8 8 0 0 1 7.221-4.576 4 4 0 0 0-4 4 4 4 0 0 0 4 4 4 4 0 0 0 4-4 4 4 0 0 0-3.65-3.982 8 8 0 0 1 6.87 4.558c0.302-0.234 0.533-0.55 0.66-0.918a9 9 0 0 0-7.88-4.658zm0 2a3 3 0 0 1 3 3 3 3 0 0 1-3 3 3 3 0 0 1-3-3 3 3 0 0 1 3-3zm0 1a2 2 0 0 0-2 2 2 2 0 0 0 2 2 2 2 0 0 0 2-2 2 2 0 0 0-0.09-0.588 1 1 0 0 1-0.91 0.588 1 1 0 0 1-1-1 1 1 0 0 1 0.59-0.91 2 2 0 0 0-0.59-0.09z"/>
 </g>
 <path d="m26 47c-1.108 0-2 0.892-2 2h16c0-1.108-0.892-2-2-2h-12z" fill="#ffffff" stop-color="#000000" stroke-width="0"/>
 <rect x="31" y="42" width="2" height="5" rx="0" ry="0" fill="#ffffff" stop-color="#000000" stroke-width="0"/>
 <path d="m20 21c-2.216 0-4 1.784-4 4v14c0 2.216 1.784 4 4 4h24c2.216 0 4-1.784 4-4v-14c0-2.216-1.784-4-4-4h-24zm0 2h24c1.108 0 2 0.892 2 2v14c0 1.108-0.892 2-2 2h-24c-1.108 0-2-0.892-2-2v-14c0-1.108 0.892-2 2-2z" fill="#ffffff" stop-color="#000000" stroke-width="0"/>
</svg>
