<svg width="64" height="64" version="1.1" xmlns="http://www.w3.org/2000/svg" xmlns:xlink="http://www.w3.org/1999/xlink">
 <g transform="matrix(2,0,0,2,0,-64)" stroke-width=".5">
  <path d="m6 51a0.972 0.972 0 0 0-0.621 0.217 1 1 0 0 0-0.36 0.584 1.006 1.006 0 0 0-0.019 0.199 1.993 1.993 0 0 1-1.275 1.862 2.001 2.001 0 0 1-0.385 0.108 2.001 2.001 0 0 1-0.34 0.03 0.507 0.507 0 0 0-0.17 0.028 0.609 0.609 0 0 0-0.193 0.108 0.916 0.916 0 0 0-0.178 0.18 1.715 1.715 0 0 0-0.225 0.395 2.48 2.48 0 0 0-0.111 0.33 3.133 3.133 0 0 0-0.117 0.759 4.06 4.06 0 0 0-6e-3 0.2v1h28v-1a4 4 0 0 0-0.123-0.959 2.872 2.872 0 0 0-0.111-0.33 2.097 2.097 0 0 0-0.145-0.277 1.137 1.137 0 0 0-0.258-0.297 0.609 0.609 0 0 0-0.363-0.137 2 2 0 0 1-0.34-0.03 2.001 2.001 0 0 1-0.566-0.187 2 2 0 0 1-1.094-1.783 1.005 1.005 0 0 0-0.045-0.295 0.997 0.997 0 0 0-0.19-0.35 1 1 0 0 0-0.312-0.246 0.997 0.997 0 0 0-0.453-0.109h-10z" fill="#8b6c52"/>
  <path d="m22 51-1-1h-1l1 1zm-12 0 1-1h1l-1 1z" fill="#4d4d4d"/>
  <path d="m25.787 49h-19.584c-0.135 0.658-0.203 0.328-0.203 1h20c-4e-3 -0.672-0.075-0.342-0.213-1z" fill="#b3b3b3" opacity=".998"/>
  <path d="m15 39v3h2v-3z" fill="#ccc"/>
  <path d="m16 41a10 10 0 0 0-9.797 8h19.584a10 10 0 0 0-9.787-8z" fill="#e6e6e6" opacity=".998"/>
  <path d="m16 37a2 2 0 0 0-2 2 2 1 0 0 0 1 0.865 2 1 0 0 0 2 0 2 1 0 0 0 1-0.865 2 2 0 0 0-2-2z" fill="#ececec"/>
  <path d="m2 57h28v2h-28z" fill="#5c5049"/>
 </g>
</svg>
