<svg width="64" height="64" version="1.1" xmlns="http://www.w3.org/2000/svg">
 <path d="m25.9 43.834c-0.52 0-0.9 0.378-0.9 0.834v10.955l-4.078 0.377h-0.022c-0.52 0-0.9 0.378-0.9 0.834v1.166h24v-1.166c0-0.456-0.381-0.834-0.9-0.834h-0.024l-4.076-0.377v-10.955c0-0.456-0.38-0.834-0.9-0.834z" fill="#c4c7cc"/>
 <rect x="2" y="6" width="60" height="40" rx="6" ry="6" fill="#2f3337"/>
 <rect x="5" y="9" width="54" height="34" rx="3" ry="3" fill="#1a1c1f" stop-color="#000000" stroke-width="0"/>
 <g transform="translate(-2.9492 .71293)" opacity=".5">
  <path d="m18.948 10.286h20.001v2.0001h-20.001zm0 12.001h16.001v2.0001h-16.001zm0 4.0003h16.001v2.0001h-16.001zm0 4.0003h12.001v2.0001h-12.001zm0-16.001h16.001v2.0001h-16.001zm0 4.0003h12.001v2.0001h-12.001zm0 16.001h20.001v2.0001h-20.001zm0 4.0003h12.001v2.0001h-12.001z" fill="#fff" stroke-width="1.4142" style=""/>
  <path d="m10.949 10.286h6.0004v2.0001h-6.0004zm0 4.0003h6.0004v2.0001h-6.0004zm0 4.0003h6.0004v2.0001h-6.0004zm0 4.0003h6.0004v2.0001h-6.0004zm0 4.0003h6.0004v2.0001h-6.0004zm0 4.0003h6.0004v2.0001h-6.0004zm0 4.0003h6.0004v2.0001h-6.0004zm0 4.0003h6.0004v2.0001h-6.0004z" fill="#41f045" style=""/>
 </g>
</svg>
