<svg width="64" height="64" version="1.1" viewBox="0 0 16.933 16.933" xmlns="http://www.w3.org/2000/svg" xmlns:xlink="http://www.w3.org/1999/xlink">
 <defs>
  <linearGradient id="a">
   <stop stop-color="#66bcff" offset="0"/>
   <stop stop-color="#b29aff" offset="1"/>
  </linearGradient>
  <linearGradient id="h" x1="13.229" x2="2.117" y1="297" y2="280.07" gradientTransform="matrix(1.0714 0 0 1 -.605 -280.07)" gradientUnits="userSpaceOnUse" xlink:href="#a"/>
  <clipPath id="m">
   <rect x=".529" y="282.45" width="15.875" height="12.171" ry=".265" fill="url(#c)" stroke-opacity=".039" stroke-width=".554" paint-order="stroke markers fill"/>
  </clipPath>
  <linearGradient id="c" x1="13.229" x2="2.117" y1="297" y2="280.07" gradientTransform="matrix(1.0714 0 0 1 -.605 0)" gradientUnits="userSpaceOnUse" xlink:href="#a"/>
  <clipPath id="l">
   <rect x=".529" y="282.45" width="15.875" height="12.171" ry=".265" fill="url(#c)" stroke-opacity=".039" stroke-width=".554" paint-order="stroke markers fill"/>
  </clipPath>
  <clipPath id="k">
   <rect x=".529" y="282.45" width="15.875" height="12.171" ry=".265" fill="url(#c)" stroke-opacity=".039" stroke-width=".554" paint-order="stroke markers fill"/>
  </clipPath>
  <clipPath id="j">
   <rect x=".529" y="282.45" width="15.875" height="12.171" ry=".265" fill="url(#c)" stroke-opacity=".039" stroke-width=".554" paint-order="stroke markers fill"/>
  </clipPath>
  <clipPath id="i">
   <rect x=".529" y="282.45" width="15.875" height="12.171" ry=".265" fill="url(#c)" stroke-opacity=".039" stroke-width=".554" paint-order="stroke markers fill"/>
  </clipPath>
 </defs>
 <rect x=".529" y="2.381" width="15.875" height="12.171" ry=".265" fill="url(#h)" style="paint-order:stroke markers fill"/>
 <path transform="translate(0 -280.07)" d="m0.553 283.51h2.887v11.113h-2.887" clip-path="url(#i)" fill="#9ab9dd"/>
 <path transform="translate(0 -280.07)" d="m3.44 283.51h2.886v11.113h-2.886" clip-path="url(#j)" fill="#9add9c"/>
 <path transform="translate(0 -280.07)" d="m6.326 283.51h4.33v11.113h-4.33" clip-path="url(#k)" fill="#f3f284"/>
 <path transform="translate(0 -280.07)" d="m10.655 283.51h2.887v11.113h-2.887" clip-path="url(#l)" fill="#edb968"/>
 <path transform="translate(0 -280.07)" d="m13.542 283.51h2.886v11.113h-2.886" clip-path="url(#m)" fill="#ed8e68"/>
 <rect x="1.587" y="2.645" width="1.058" height=".529" ry=".265" opacity=".35" style="paint-order:stroke markers fill"/>
 <rect x="7.144" y="2.645" width="2.646" height=".529" ry=".265" opacity=".35" style="paint-order:stroke markers fill"/>
 <rect x="15.081" y="2.645" width=".529" height=".529" ry=".265" opacity=".35" style="paint-order:stroke markers fill"/>
 <rect x="14.023" y="2.645" width=".794" height=".529" ry=".265" opacity=".35" style="paint-order:stroke markers fill"/>
 <rect x="13.229" y="2.645" width=".529" height=".529" ry=".265" opacity=".35" style="paint-order:stroke markers fill"/>
 <g fill="#fff">
  <path transform="scale(.26458)" d="m15.002 50.998c-1.1077 0-2 0.89233-2 2v2.002h38v-2.002c0-1.1077-0.89233-2-2-2h-34z" opacity=".35" stroke-width="3.7796" style="paint-order:stroke markers fill"/>
  <rect x="4.498" y="12.7" width="1.323" height="1.323" ry=".132" style="paint-order:stroke markers fill"/>
  <rect x="6.703" y="12.7" width="1.323" height="1.323" ry=".132" style="paint-order:stroke markers fill"/>
  <rect x="8.908" y="12.7" width="1.323" height="1.323" ry=".132" style="paint-order:stroke markers fill"/>
  <rect x="11.113" y="12.7" width="1.323" height="1.323" ry=".132" style="paint-order:stroke markers fill"/>
 </g>
 <path d="m0.794 2.381a0.264 0.264 0 0 0-0.265 0.265v0.793h15.875v-0.793a0.264 0.264 0 0 0-0.264-0.265z" opacity=".35" style="paint-order:stroke markers fill"/>
</svg>
