<svg width="64" height="64" version="1.1" viewBox="0 0 16.933 16.933" xmlns="http://www.w3.org/2000/svg">
 <path d="m16.404 4.7619-15.874 0.00101v8.2427c0.021784 0.8602 0.72082 1.5461 1.5864 1.5461h12.7c0.87946 0 1.5875-0.70801 1.5875-1.5875z" fill="#ececec"/>
 <path d="m2.1166 2.3812c-0.87946 0-1.5875 0.70801-1.5875 1.5875v0.79323h15.875v-0.79323c0-0.87946-0.70801-1.5875-1.5875-1.5875z" fill="#666666"/>
 <rect x="14.155" y="3.1749" width=".794" height=".794" ry=".397" opacity=".35" paint-order="stroke markers fill"/>
 <rect x="12.567" y="3.1749" width=".794" height=".794" ry=".397" opacity=".35" paint-order="stroke markers fill"/>
 <rect x="10.98" y="3.1749" width=".794" height=".794" ry=".397" opacity=".35" paint-order="stroke markers fill"/>
 <path d="m8.467 6.238a3.44 3.44 0 0 0-3.44 3.44 3.44 3.44 0 0 0 3.44 3.439 3.44 3.44 0 0 0 3.44-3.44 3.44 3.44 0 0 0-3.44-3.44zm0 1.393a2.046 2.046 0 0 1 2.046 2.046 2.046 2.046 0 0 1-2.046 2.045 2.046 2.046 0 0 1-2.046-2.045 2.046 2.046 0 0 1 2.046-2.046z" fill="#cccccc" opacity=".15" paint-order="stroke markers fill"/>
 <g transform="translate(0 -280.07)" fill="#cccccc" paint-order="stroke markers fill">
  <path d="m8.467 286.83a2.91 2.91 0 0 0-2.91 2.91 2.91 2.91 0 0 0 2.91 2.911 2.91 2.91 0 0 0 2.91-2.91 2.91 2.91 0 0 0-2.91-2.91zm0 1.323a1.587 1.587 0 0 1 1.587 1.588 1.587 1.587 0 0 1-1.587 1.587 1.587 1.587 0 0 1-1.588-1.587 1.587 1.587 0 0 1 1.588-1.588z"/>
  <path d="m7.938 285.64h1.058v1.852h-1.058zm0 6.35h1.058v1.852h-1.058zm4.63-2.778v1.058h-1.852v-1.058zm-6.35 0v1.058h-1.852v-1.058zm5.522 3.055-0.747 0.748-1.31-1.31 0.748-0.748zm-4.49-4.49-0.747 0.748-1.31-1.31 0.748-0.748zm-1.309 5.238-0.748-0.748 1.31-1.31 0.748 0.748zm4.49-4.49-0.748-0.748 1.31-1.31 0.748 0.748z"/>
 </g>
</svg>
