<svg xmlns="http://www.w3.org/2000/svg" width="64" height="64" viewBox="0 0 16.933 16.933"><g transform="translate(0 -280.067)"><rect width="13.758" height="13.758" x="-295.413" y="-15.346" rx="6.879" ry="6.879" transform="matrix(0 -1 -1 0 0 0)" fill="#1e9fe0"/><rect transform="matrix(0 -1 -1 0 0 0)" ry="5.821" rx="5.821" y="-14.288" x="-294.354" height="11.642" width="11.642" opacity=".15"/><path d="M9.15 285.358c-1.372 0-2.505 1.123-2.505 2.495 0 .521.176 1 .453 1.403l-1.67 1.672a.455.456 0 0 0 .636.652l1.67-1.673c.403.277.894.44 1.416.44a2.499 2.499 0 0 0 2.492-2.494 2.499 2.499 0 0 0-2.492-2.495zm0 .907c.882 0 1.586.705 1.586 1.588 0 .882-.704 1.587-1.586 1.587a1.579 1.579 0 0 1-1.585-1.587c0-.883.703-1.588 1.585-1.588z" fill="#fff"/></g></svg>