<svg xmlns="http://www.w3.org/2000/svg" width="64" height="64"><rect width="52" height="52" x="6" y="6" fill="#343739" rx="1.857"/><path fill="#38aaeb" d="M10 34h20v20H10zm24 0h20v20H34zm0-24h20v20H34zm-24 0h20v20H10z"/><path fill="#fff" d="M44 14v2H20a3.98 3.98 0 0 0-3.132 1.512A3.996 3.996 0 0 0 16 20v10a4.004 4.004 0 0 0 .06.68 4.002 4.002 0 0 0 .374 1.132A4 4 0 0 0 20 34h22a2.006 2.006 0 0 1 .98.26 2.004 2.004 0 0 1 .388.284A1.992 1.992 0 0 1 44 36v6a2 2 0 0 1-2 2H20v-2l-6 4 6 4v-2h24a3.98 3.98 0 0 0 2.872-1.214 4.004 4.004 0 0 0 .984-1.716A4.002 4.002 0 0 0 48 44V34a4.004 4.004 0 0 0-.06-.68 4.002 4.002 0 0 0-.374-1.132A4 4 0 0 0 44 30H22a2.006 2.006 0 0 1-.98-.26 2.004 2.004 0 0 1-.388-.284A1.992 1.992 0 0 1 20 28v-6a2 2 0 0 1 2-2h22v2l6-4z"/></svg>