<svg width="64" height="64" version="1.1" xmlns="http://www.w3.org/2000/svg">
 <circle cx="32" cy="32" r="27" fill="#1b93f4" style="paint-order:markers stroke fill"/>
 <g color="#000000" fill="#fff" stroke-width=".857">
  <path d="m32 15.084-14 4.58c0 9.64-0.043 14.925 1.652 18.75 1.696 3.828 5.176 6.347 12.348 10.502 7.172-4.155 10.652-6.674 12.348-10.502 1.695-3.824 1.652-9.11 1.652-18.75zm0.292 10.5a3.208 3.208 0 0 1 3.208 3.208 3.191 3.191 0 0 1-1.948 2.95l1.948 6.675h-6.417l1.949-6.674a3.19 3.19 0 0 1-1.949-2.951 3.208 3.208 0 0 1 3.209-3.209z" opacity=".5" overflow="visible" solid-color="#000000" style="isolation:auto;mix-blend-mode:normal"/>
  <path d="m32 18-11.664 4.083c0 15.714-0.453 16.92 11.664 23.917 12.017-6.946 11.664-8.197 11.664-23.917zm0.292 7.583a3.208 3.208 0 0 1 3.208 3.209 3.191 3.191 0 0 1-1.948 2.95l1.948 6.675h-6.417l1.949-6.674a3.19 3.19 0 0 1-1.949-2.951 3.208 3.208 0 0 1 3.209-3.209z" overflow="visible" solid-color="#000000" style="isolation:auto;mix-blend-mode:normal"/>
 </g>
</svg>
