<svg xmlns="http://www.w3.org/2000/svg" width="64" height="64"><path fill="#3b83b2" d="M9.714 58h44.571v-3.714H9.715zm0-52h44.571v3.714H9.715z"/><path fill="#7bbbeb" d="M7.857 6a1.857 1.857 0 0 0-.186.011 1.857 1.857 0 0 0-.185.026 1.857 1.857 0 0 0-.177.047 1.857 1.857 0 0 0-.174.06 1.857 1.857 0 0 0-.168.084 1.857 1.857 0 0 0-.157.093 1.857 1.857 0 0 0-.149.114 1.857 1.857 0 0 0-.136.128 1.857 1.857 0 0 0-.122.14 1.857 1.857 0 0 0-.11.15 1.857 1.857 0 0 0-.09.163 1.857 1.857 0 0 0-.075.167 1.857 1.857 0 0 0-.06.176 1.857 1.857 0 0 0-.042.182 1.857 1.857 0 0 0-.022.186 1.857 1.857 0 0 0-.004.13v48.286a1.857 1.857 0 0 0 .004.13 1.857 1.857 0 0 0 .022.186 1.857 1.857 0 0 0 .043.182 1.857 1.857 0 0 0 .057.176 1.857 1.857 0 0 0 .076.167 1.857 1.857 0 0 0 .093.164 1.857 1.857 0 0 0 .108.148 1.857 1.857 0 0 0 .122.142 1.857 1.857 0 0 0 .134.128 1.857 1.857 0 0 0 .149.111 1.857 1.857 0 0 0 .16.095 1.857 1.857 0 0 0 .167.083 1.857 1.857 0 0 0 .174.062 1.857 1.857 0 0 0 .178.046 1.857 1.857 0 0 0 .186.026 1.857 1.857 0 0 0 .184.011h1.857a1.857 1.857 0 0 0 .186-.01 1.857 1.857 0 0 0 .186-.027 1.857 1.857 0 0 0 .176-.046 1.857 1.857 0 0 0 .175-.062 1.857 1.857 0 0 0 .167-.083 1.857 1.857 0 0 0 .158-.093 1.857 1.857 0 0 0 .148-.113 1.857 1.857 0 0 0 .136-.128 1.857 1.857 0 0 0 .122-.142 1.857 1.857 0 0 0 .11-.148 1.857 1.857 0 0 0 .09-.164 1.857 1.857 0 0 0 .075-.167 1.857 1.857 0 0 0 .06-.176 1.857 1.857 0 0 0 .042-.182 1.857 1.857 0 0 0 .023-.186 1.857 1.857 0 0 0 .003-.13v-1.857h40.857v1.857a1.857 1.857 0 0 0 .004.13 1.857 1.857 0 0 0 .022.186 1.857 1.857 0 0 0 .043.182 1.857 1.857 0 0 0 .058.176 1.857 1.857 0 0 0 .076.167 1.857 1.857 0 0 0 .093.164 1.857 1.857 0 0 0 .107.148 1.857 1.857 0 0 0 .123.142 1.857 1.857 0 0 0 .134.128 1.857 1.857 0 0 0 .148.111 1.857 1.857 0 0 0 .16.095 1.857 1.857 0 0 0 .167.083 1.857 1.857 0 0 0 .175.062 1.857 1.857 0 0 0 .178.046 1.857 1.857 0 0 0 .186.026 1.857 1.857 0 0 0 .184.011h1.857a1.857 1.857 0 0 0 .185-.01 1.857 1.857 0 0 0 .186-.027 1.857 1.857 0 0 0 .177-.046 1.857 1.857 0 0 0 .174-.062 1.857 1.857 0 0 0 .167-.083 1.857 1.857 0 0 0 .158-.093 1.857 1.857 0 0 0 .149-.113 1.857 1.857 0 0 0 .135-.128 1.857 1.857 0 0 0 .123-.142 1.857 1.857 0 0 0 .11-.148 1.857 1.857 0 0 0 .09-.164 1.857 1.857 0 0 0 .075-.167 1.857 1.857 0 0 0 .06-.176 1.857 1.857 0 0 0 .042-.182 1.857 1.857 0 0 0 .022-.186 1.857 1.857 0 0 0 .004-.13V7.857a1.857 1.857 0 0 0-.004-.13 1.857 1.857 0 0 0-.022-.186 1.857 1.857 0 0 0-.043-.182 1.857 1.857 0 0 0-.057-.176 1.857 1.857 0 0 0-.077-.167 1.857 1.857 0 0 0-.092-.163 1.857 1.857 0 0 0-.108-.15 1.857 1.857 0 0 0-.123-.14 1.857 1.857 0 0 0-.133-.128 1.857 1.857 0 0 0-.149-.112 1.857 1.857 0 0 0-.16-.094 1.857 1.857 0 0 0-.167-.084 1.857 1.857 0 0 0-.174-.061 1.857 1.857 0 0 0-.179-.047 1.857 1.857 0 0 0-.185-.026A1.857 1.857 0 0 0 56.143 6h-1.857a1.857 1.857 0 0 0-.186.011 1.857 1.857 0 0 0-.186.026 1.857 1.857 0 0 0-.176.047 1.857 1.857 0 0 0-.175.06 1.857 1.857 0 0 0-.167.085 1.857 1.857 0 0 0-.158.092 1.857 1.857 0 0 0-.148.114 1.857 1.857 0 0 0-.136.128 1.857 1.857 0 0 0-.123.14 1.857 1.857 0 0 0-.11.15 1.857 1.857 0 0 0-.09.163 1.857 1.857 0 0 0-.074.167 1.857 1.857 0 0 0-.06.176 1.857 1.857 0 0 0-.043.182 1.857 1.857 0 0 0-.022.186 1.857 1.857 0 0 0-.004.13v1.857H11.571V7.857a1.857 1.857 0 0 0-.003-.13 1.857 1.857 0 0 0-.023-.186 1.857 1.857 0 0 0-.042-.182 1.857 1.857 0 0 0-.058-.176 1.857 1.857 0 0 0-.076-.167 1.857 1.857 0 0 0-.093-.163 1.857 1.857 0 0 0-.108-.15 1.857 1.857 0 0 0-.122-.14 1.857 1.857 0 0 0-.134-.128 1.857 1.857 0 0 0-.149-.112 1.857 1.857 0 0 0-.16-.094 1.857 1.857 0 0 0-.167-.084 1.857 1.857 0 0 0-.174-.061 1.857 1.857 0 0 0-.178-.047 1.857 1.857 0 0 0-.186-.026A1.857 1.857 0 0 0 9.714 6z"/><path fill="#323940" d="M9.846 11C8.826 11 8 11.783 8 12.75v38.5c0 .967.827 1.75 1.846 1.75h44.308c1.02 0 1.846-.783 1.846-1.75v-38.5c0-.967-.826-1.75-1.846-1.75zM11 14h19v36H11zm23 0h19v36H34z" opacity=".8"/><g fill="#39719b"><path d="M36 38h15v4H36zM13 38h15v4H13zM13 22h15v4H13zM36 22h15v4H36zM36 30h15v4H36zM13 30h15v4H13z"/></g><path fill="#fff" d="M19 11a1 .875 0 0 0-1 .875v40.25a1 .875 0 0 0 2 0v-40.25A1 .875 0 0 0 19 11zm6 0a1 .875 0 0 0-1 .875v40.25a1 .875 0 0 0 2 0v-40.25A1 .875 0 0 0 25 11zm14 0a1 .875 0 0 0-1 .875v40.25a1 .875 0 0 0 2 0v-40.25A1 .875 0 0 0 39 11zm6 0a1 .875 0 0 0-1 .875v40.25a1 .875 0 0 0 2 0v-40.25A1 .875 0 0 0 45 11z"/></svg>