<svg xmlns="http://www.w3.org/2000/svg" width="64" height="64" viewBox="0 0 16.933 16.933"><g transform="translate(0 -280.067)"><path style="isolation:isolate" d="M13.323 283.67c-.048.049 2.02 4.86 2.02 4.86l-2.02 4.858s-4.86-2.568-4.86-4.859c0-2.29 4.86-4.859 4.86-4.859z" fill="#46a926"/><path style="isolation:isolate" d="M3.604 293.388c.049-.049-2.02-4.859-2.02-4.859l2.02-4.859s4.86 2.569 4.86 4.86c0 2.29-4.86 4.858-4.86 4.858z" fill="#f22c42"/><path style="isolation:isolate" d="M13.323 283.67c-.048.049-4.86-2.019-4.86-2.019l-4.86 2.019 4.86 4.86z" fill="#ffda64"/><path style="isolation:isolate" d="M3.604 293.388l4.86 2.013s4.81-2.062 4.86-2.013l-4.86-4.859z" fill="#2f5fdd"/><path style="isolation:isolate" d="M8.464 281.654c-.001 1.758.672 3.516 2.019 4.862l2.845-2.844a6.88 6.88 0 0 0-4.861-2.018h-.003z" fill="#a6d74f"/><path style="isolation:isolate" d="M13.328 283.672l-2.845 2.844a6.84 6.84 0 0 0 4.863 2.012 6.88 6.88 0 0 0-2.018-4.856z" fill="#76c22b"/><path style="isolation:isolate" d="M10.476 290.548a6.85 6.85 0 0 0-2.019 4.862h.069a6.88 6.88 0 0 0 4.8-2.013l-2.85-2.849z" fill="#1463a5"/><path style="isolation:isolate" d="M15.346 288.536a6.84 6.84 0 0 0-4.87 2.012l2.85 2.85a6.88 6.88 0 0 0 2.02-4.862z" fill="#2b898f"/><path style="isolation:isolate" d="M1.587 288.53a6.88 6.88 0 0 0 0 .003 6.88 6.88 0 0 0 2.014 4.857l2.85-2.848a6.839 6.839 0 0 0-4.864-2.011z" fill="#9b33ae"/><path style="isolation:isolate" d="M6.45 290.542L3.6 293.39a6.88 6.88 0 0 0 4.826 2.02h.043a6.85 6.85 0 0 0-2.019-4.868z" fill="#7839b7"/><path style="isolation:isolate" d="M8.467 281.654a6.88 6.88 0 0 0-4.858 2.015l2.848 2.847a6.85 6.85 0 0 0 2.019-4.861 6.88 6.88 0 0 0-.01 0z" fill="#fdc92b"/><path style="isolation:isolate" d="M3.609 283.669a6.88 6.88 0 0 0-2.021 4.859 6.84 6.84 0 0 0 4.869-2.012l-2.848-2.847z" fill="#f34f17"/><circle r="5.027" cy="288.533" cx="8.467" opacity=".35" fill="#fff" paint-order="fill markers stroke"/><path style="isolation:auto;mix-blend-mode:normal;marker:none" d="M8.467 284.098a.126.126 0 0 0-.088.038l-2.102 2.102a3.175 3.175 0 0 0-.056.05 3.175 3.175 0 0 0 0 4.49 3.175 3.175 0 0 0 4.49 0 3.175 3.175 0 0 0 .001-4.49 3.175 3.175 0 0 0-.076-.07c-.004-.005-.005-.01-.01-.015l-2.067-2.067a.126.126 0 0 0-.092-.038zm.023 2.848a1.588 1.588 0 0 1 1.1.465 1.588 1.588 0 0 1 0 2.245 1.588 1.588 0 0 1-2.246 0 1.588 1.588 0 0 1 0-2.245 1.588 1.588 0 0 1 1.146-.465z" color="#000" overflow="visible" fill="#fff" paint-order="fill markers stroke"/><path overflow="visible" style="isolation:auto;mix-blend-mode:normal;marker:none" d="M9.59 289.656a1.588 1.588 0 0 1-2.246 0 1.588 1.588 0 0 1 0-2.245 1.588 1.588 0 0 1 2.245 0 1.588 1.588 0 0 1 0 2.245z" color="#000" fill="#fff" paint-order="fill markers stroke" opacity=".5"/><path overflow="visible" style="isolation:auto;mix-blend-mode:normal;marker:none" d="M9.022 287.785l-.561.561-.561-.561-.188.187.562.561-.55.573.176.176.56-.562.562.562.199-.176-.573-.573.561-.56z" color="#000" fill="#fff" paint-order="fill markers stroke"/></g></svg>