<svg xmlns="http://www.w3.org/2000/svg" width="64" height="64"><defs><linearGradient id="a" x1="14.679" x2="2.293" y1="293.79" y2="282.98" gradientTransform="matrix(3.7795 0 0 3.9436 0 -1105.9)" gradientUnits="userSpaceOnUse"><stop offset="0" stop-color="#66bcff"/><stop offset="1" stop-color="#b29aff"/></linearGradient></defs><rect width="55.999" height="48.001" x="4" y="8" fill="url(#a)" rx="5" ry="5"/><rect width="50" height="4" x="6.999" y="10" opacity=".35" rx="2" ry="2"/><rect width="3.999" height="1.999" x="8" y="11" opacity=".35" ry="1.002" style="paint-order:stroke markers fill"/><rect width="10.001" height="1.999" x="27.001" y="11" opacity=".35" ry="1.002" style="paint-order:stroke markers fill"/><rect width="1.999" height="1.999" x="53.999" y="11" opacity=".35" ry="1.002" style="paint-order:stroke markers fill"/><rect width="3.001" height="1.999" x="50" y="11" opacity=".35" ry="1.002" style="paint-order:stroke markers fill"/><rect width="1.999" height="1.999" x="46.999" y="11" opacity=".35" ry="1.002" style="paint-order:stroke markers fill"/><rect width="37.996" height="5" x="13.002" y="48.001" fill="#fff" opacity=".35" paint-order="markers stroke fill" rx="1" ry="1"/><g fill="#ccdfff" transform="translate(0 6.51)scale(3.7796)"><rect width="1.323" height="1.323" x="4.233" y="10.448" rx=".264" ry=".264" style="paint-order:stroke markers fill"/><rect width="1.323" height="1.323" x="6.614" y="10.448" rx=".264" ry=".264" style="paint-order:stroke markers fill"/><rect width="1.323" height="1.323" x="8.996" y="10.448" rx=".264" ry=".264" style="paint-order:stroke markers fill"/><rect width="1.323" height="1.323" x="11.376" y="10.448" rx=".264" ry=".264" style="paint-order:stroke markers fill"/></g><g fill="#fff"><path d="M43 20h3v11.077h-3z"/><path d="M43 31.078h3v6.461h-3z" opacity=".75"/><path d="M43 37.538h3v1.494h-3z" opacity=".35"/><path fill-rule="evenodd" d="M43 39.032v.48l1.5 2.52 1.5-2.52v-.48z"/></g><path fill="#fff" d="m20.48 23.862-.51-.487c-.942.987-2.08 2.174-3.05 3.294a41 41 0 0 0-2.354 2.977 16 16 0 0 0-1.238 2.023c-.162.31-.343.673-.503 1.018a14 14 0 0 0-.219.492c-.063.151-.12.3-.164.43-.091.279-.137.58-.141.836a1.8 1.8 0 0 0 .033.393 1 1 0 0 0 .085.243.75.75 0 0 0 .335.335q.085.04.175.07a3.3 3.3 0 0 0 .67.142c.174.018.368.025.612.011.236-.013.515-.047.865-.109.343-.06.761-.15 1.19-.248.424-.098.862-.207 1.252-.31a29 29 0 0 0 1.827-.543c.24-.08.46-.157.768-.273.302-.113.687-.265 1.263-.497.57-.23 1.331-.54 2.144-.873l2.416-.99c1.489-.608 2.637-1.074 3.716-1.56a66 66 0 0 0 3.05-1.487 78 78 0 0 0 2.627-1.402 54 54 0 0 0 1.92-1.145s-.02.011-.042.02a.45.45 0 0 1-.224.034.482.482 0 0 1-.366-.734q.006-.007.004-.003a4 4 0 0 1-.291.312 37 37 0 0 1-.434.408 56 56 0 0 0-1.666 1.598c-.463.46-1.074 1.074-1.86 1.83-.786.755-1.741 1.646-2.907 2.746-1.159 1.093-2.517 2.384-3.584 3.384-1.063.997-1.85 1.718-2.711 2.543-.862.827-1.805 1.767-2.48 2.435-.338.335-.614.607-.835.829-.222.22-.39.393-.513.527a3 3 0 0 0-.181.215q-.082.106-.14.205a1 1 0 0 0-.052.102.5.5 0 0 0-.038.14.3.3 0 0 0 .013.134.31.31 0 0 0 .3.223.4.4 0 0 0 .107-.017c.075-.025.164-.053.337-.114.165-.06.394-.143.716-.269a126 126 0 0 0 2.587-1.058c.938-.394 1.775-.758 2.931-1.202a102 102 0 0 1 4.131-1.467c1.503-.5 3.013-.972 4.303-1.352 1.298-.382 2.403-.68 3.056-.861.334-.093.608-.173.796-.227l.218-.061.05-.014q.008-.002.001-.002h-.019a.15.15 0 0 1-.07-.025.16.16 0 0 1-.068-.11.14.14 0 0 1 .004-.054l.01-.024-.012.022q-.028.043-.086.12c-.077.102-.184.234-.288.36a6 6 0 0 1-.436.477c-.2.2-.47.441-.846.738-.768.604-2 1.458-3.513 2.45-.77.506-1.633 1.06-2.408 1.556l-1.942 1.24c-.228.146-.406.262-.543.355a4 4 0 0 0-.294.212 1 1 0 0 0-.073.068.2.2 0 0 0-.024.034.1.1 0 0 0-.012.061.09.09 0 0 0 .05.065.1.1 0 0 0 .044.009l.074-.01c.201-.042.607-.123 1.436-.283.86-.166 2.152-.413 3.152-.608 1.057-.206 1.794-.355 2.968-.523a92 92 0 0 1 4.263-.488c.735-.067 1.438-.121 2.018-.165.614-.047 1.101-.084 1.442-.117a7 7 0 0 0 .42-.053 2 2 0 0 0 .247-.055.4.4 0 0 0 .069-.028.1.1 0 0 0 .036-.028q.005-.007.007-.015c.002-.008 0-.01 0-.015a.1.1 0 0 0-.02-.027q-.217-.177-.405-.335.19.157.401.34.015.012.017.024v.011l-.006.012a.1.1 0 0 1-.035.025.4.4 0 0 1-.067.026 2 2 0 0 1-.247.051 7 7 0 0 1-.419.049c-.34.03-.827.064-1.442.108-.581.041-1.283.092-2.02.156a96 96 0 0 0-4.267.466c-1.176.16-1.917.3-2.976.498-1 .186-2.289.423-3.157.58a87 87 0 0 1-1.469.257h-.013c-.007-.002.007 0 .013.003l.02.016A.07.07 0 0 1 28 44q-.001.003.005-.005l.057-.047c.058-.044.15-.108.289-.198.136-.09.314-.203.544-.347.448-.281 1.165-.73 1.95-1.225a247 247 0 0 0 2.42-1.543c1.519-.984 2.764-1.832 3.548-2.434.386-.297.666-.54.879-.742.21-.2.351-.357.464-.483.11-.123.225-.254.31-.356.041-.05.079-.096.104-.13l.036-.053a.16.16 0 0 0 .005-.162.16.16 0 0 0-.128-.084h-.03a1 1 0 0 0-.106.017q-.083.017-.229.054l-.8.208c-.658.17-1.762.455-3.072.827-1.298.369-2.817.83-4.328 1.32-1.495.484-2.986.999-4.163 1.437-1.17.435-2.02.79-2.958 1.171-.465.189-.952.384-1.404.561-.45.177-.863.337-1.184.454-.32.118-.543.193-.702.243a5 5 0 0 1-.32.089.2.2 0 0 1 .064-.01.28.28 0 0 1 .269.295c-.003.042-.009.045-.006.042l.02-.033a3 3 0 0 1 .257-.305c.12-.12.285-.28.512-.497q.337-.32.85-.814c.687-.662 1.634-1.587 2.5-2.399.865-.811 1.654-1.515 2.732-2.508 1.08-.995 2.448-2.275 3.614-3.358 1.17-1.085 2.14-1.972 2.939-2.721s1.429-1.363 1.895-1.808c.472-.45.79-.742 1.143-1.056.178-.159.366-.324.54-.477.17-.15.335-.294.453-.4.125-.11.256-.237.344-.33a2 2 0 0 0 .1-.117.6.6 0 0 0 .075-.142.5.5 0 0 0-.097-.488.49.49 0 0 0-.494-.149.6.6 0 0 0-.156.066l-.243.14-.473.277c-.37.215-.815.47-1.19.676a83 83 0 0 1-2.61 1.35c-.965.481-1.967.969-3.018 1.43-1.06.465-2.194.911-3.695 1.513-.56.224-1.864.749-2.424.972-.815.327-1.574.63-2.143.854a43 43 0 0 1-1.24.47c-.29.104-.497.17-.727.24-.472.146-1.023.306-1.767.492-.38.095-.807.195-1.219.285-.42.092-.814.17-1.127.22-.315.05-.542.072-.714.078a2 2 0 0 1-.4-.02 2 2 0 0 1-.375-.094.6.6 0 0 1 .227.234.4.4 0 0 1 .034.087c.004.015-.002-.03 0-.088.006-.13.035-.299.085-.44q.043-.126.132-.33c.058-.134.127-.285.202-.442.154-.322.33-.665.485-.958.327-.612.63-1.12 1.159-1.857a41 41 0 0 1 2.28-2.862c.945-1.086 2.061-2.25 3.01-3.241z" opacity=".5"/></svg>