<svg width="64" height="64" version="1.1" viewBox="0 0 16.933 16.933" xmlns="http://www.w3.org/2000/svg">
 <circle cx="8.4665" cy="8.4665" r="7.1436" fill="#77767b" stroke-width=".96431" style="paint-order:stroke fill markers"/>
 <path d="m11.128 8.8251a3.087 3.087 0 0 0-2.838 1.888 3.087 3.087 0 0 0-0.01 0.026 2.47 2.47 0 0 0-0.032-7e-3 2.47 2.47 0 0 0-0.51-0.053 2.47 2.47 0 0 0-2.47 2.47 2.47 2.47 0 0 0 2.47 2.47 2.47 2.47 0 0 0 0.062-1e-3 2.47 2.47 0 0 0 0.073-3e-3 2.47 2.47 0 0 0 0.064-5e-3h6.423a1.851 1.851 0 0 0 0.042 4e-3 1.851 1.851 0 0 0 0.127 5e-3 1.851 1.851 0 0 0 1.852-1.852 1.851 1.851 0 0 0-1.852-1.851 1.851 1.851 0 0 0-0.308 0.025 3.087 3.087 0 0 0 0-0.028 3.087 3.087 0 0 0-3.087-3.088 3.087 3.087 0 0 0-6e-3 0z" fill="#f9f9f9" style="paint-order:stroke markers fill"/>
 <path transform="scale(.26458)" d="m32 5a27 27 0 0 0-27 27 27 27 0 0 0 27 27 27 27 0 0 0 7.5-1.0762 27 27 0 0 1-19.5-25.924 27 27 0 0 1 19.525-25.93 27 27 0 0 0-7.5254-1.0703z" fill="#ffffff" opacity=".15" stroke-width="3.6447" style="paint-order:stroke fill markers"/>
</svg>
