<svg xmlns="http://www.w3.org/2000/svg" width="64" height="64" viewBox="0 0 16.933 16.933"><rect width="14.287" height="10.583" x="1.323" y="3.175" fill="#666" paint-order="markers stroke fill" rx="1.587" ry="1.587"/><rect width="1.587" height="1.323" x="2.91" y="5.29" fill="#fff" paint-order="markers stroke fill" ry=".265"/><path fill="#ff8080" d="M5.556 5.02a.537.537 0 0 0-.531.531v.793c0 .289.242.53.531.53h1.057a.534.534 0 0 0 .529-.53v-.793a.536.536 0 0 0-.53-.531zm0 .53h1.057v.794H5.554v-.793l.002-.002z" color="#000" style="font-feature-settings:normal;font-variant-alternates:normal;font-variant-caps:normal;font-variant-ligatures:normal;font-variant-numeric:normal;font-variant-position:normal;isolation:auto;mix-blend-mode:normal;paint-order:markers stroke fill;shape-padding:0;text-decoration-color:#000;text-decoration-line:none;text-decoration-style:solid;text-indent:0;text-orientation:mixed;text-transform:none;white-space:normal"/><rect width="1.587" height="1.323" x="5.292" y="5.29" fill="#fff" paint-order="markers stroke fill" ry=".265"/><rect width="1.587" height="1.323" x="7.673" y="5.29" fill="#fff" paint-order="markers stroke fill" ry=".265"/><rect width="1.587" height="1.323" x="10.054" y="5.29" fill="#fff" paint-order="markers stroke fill" ry=".265"/><rect width="1.587" height="1.323" x="12.435" y="5.29" fill="#fff" paint-order="markers stroke fill" ry=".265"/><path fill="#ff8080" d="M3.176 7.4a.537.537 0 0 0-.531.531v.793c0 .289.242.53.53.53h1.057c.29 0 .53-.241.53-.53v-.793a.536.536 0 0 0-.53-.531zm0 .53h1.056v.794H3.174v-.793z" color="#000" style="font-feature-settings:normal;font-variant-alternates:normal;font-variant-caps:normal;font-variant-ligatures:normal;font-variant-numeric:normal;font-variant-position:normal;isolation:auto;mix-blend-mode:normal;paint-order:markers stroke fill;shape-padding:0;text-decoration-color:#000;text-decoration-line:none;text-decoration-style:solid;text-indent:0;text-orientation:mixed;text-transform:none;white-space:normal"/><rect width="1.587" height="1.323" x="2.91" y="7.67" fill="#fff" paint-order="markers stroke fill" ry=".265"/><path fill="#ff8080" d="M5.556 7.4a.537.537 0 0 0-.531.531v.793c0 .289.242.53.531.53h1.057a.534.534 0 0 0 .529-.53v-.793a.536.536 0 0 0-.53-.531zm0 .53h1.057v.794H5.554v-.793z" color="#000" style="font-feature-settings:normal;font-variant-alternates:normal;font-variant-caps:normal;font-variant-ligatures:normal;font-variant-numeric:normal;font-variant-position:normal;isolation:auto;mix-blend-mode:normal;paint-order:markers stroke fill;shape-padding:0;text-decoration-color:#000;text-decoration-line:none;text-decoration-style:solid;text-indent:0;text-orientation:mixed;text-transform:none;white-space:normal"/><rect width="1.587" height="1.323" x="5.292" y="7.67" fill="#fff" paint-order="markers stroke fill" ry=".265"/><rect width="1.587" height="1.323" x="7.673" y="7.67" fill="#fff" paint-order="markers stroke fill" ry=".265"/><rect width="1.587" height="1.323" x="10.054" y="7.67" fill="#fff" paint-order="markers stroke fill" ry=".265"/><rect width="6.35" height="1.323" x="5.292" y="10.04" fill="#fff" paint-order="markers stroke fill" ry=".271"/><rect width="1.587" height="1.323" x="12.435" y="7.673" fill="#fff" paint-order="markers stroke fill" ry=".265"/><circle cx="13.229" cy="11.377" r="3.175" fill="#999"/><path fill="#fff" d="m12.753 9.472-.042.502a1.5 1.5 0 0 0-.438.253l-.456-.215-.476.825.414.287a1.5 1.5 0 0 0-.023.253 1.5 1.5 0 0 0 .022.254l-.413.286.476.825.455-.214a1.5 1.5 0 0 0 .439.25l.042.504h.952l.042-.502a1.5 1.5 0 0 0 .438-.253l.456.215.476-.825-.414-.288a1.5 1.5 0 0 0 .023-.252 1.5 1.5 0 0 0-.022-.254l.413-.286-.476-.825-.455.214a1.5 1.5 0 0 0-.439-.251l-.042-.503zm.476 1.27a.635.635 0 0 1 .635.635.635.635 0 0 1-.635.635.635.635 0 0 1-.635-.635.635.635 0 0 1 .635-.635"/></svg>