<svg xmlns="http://www.w3.org/2000/svg" width="64" height="64" viewBox="0 0 16.933 16.933"><circle cx="8.466" cy="8.466" r="7.144" fill="#77767b" style="paint-order:stroke fill markers"/><path fill="#f9f9f9" d="M11.128 8.825a3.09 3.09 0 0 0-2.838 1.888l-.01.026-.032-.007a2.5 2.5 0 0 0-.51-.053 2.47 2.47 0 0 0-2.47 2.47 2.47 2.47 0 0 0 2.47 2.47H7.8l.073-.004.064-.005h6.423l.042.004a2 2 0 0 0 .127.005 1.85 1.85 0 0 0 1.852-1.852 1.85 1.85 0 0 0-1.852-1.85 2 2 0 0 0-.308.024v-.028a3.087 3.087 0 0 0-3.087-3.088z" style="paint-order:stroke markers fill"/><path fill="#fff" d="M32 5A27 27 0 0 0 5 32a27 27 0 0 0 27 27 27 27 0 0 0 7.5-1.076A27 27 0 0 1 20 32 27 27 0 0 1 39.525 6.07 27 27 0 0 0 32 5" opacity=".15" style="paint-order:stroke fill markers" transform="scale(.26458)"/></svg>