<svg xmlns="http://www.w3.org/2000/svg" width="64" height="64" viewBox="0 0 16.933 16.933"><g transform="translate(0 -280.07)"><rect width="13.758" height="12.7" x="1.587" y="282.18" fill="#8a61b8" paint-order="stroke markers fill" rx="2.116" ry="2.116"/><path fill="#ececeb" d="M13.131 288.238c-.1-.14-.209-.27-.32-.4-.593-.695-1.274-1.314-2.02-1.763-.476-.288-.987-.52-1.515-.63a4 4 0 0 0-.81-.087q-.402.001-.806.086c-.529.112-1.037.343-1.514.63-.746.45-1.428 1.07-2.024 1.764q-.166.192-.316.4a.48.48 0 0 0 0 .59c.303.426.665.803 1.03 1.15.792.742 1.699 1.364 2.698 1.616a3.8 3.8 0 0 0 1.863 0c.999-.252 1.907-.874 2.7-1.617a8 8 0 0 0 1.032-1.148.49.49 0 0 0 0-.591m0 0"/><path fill="#4586f9" d="M10.85 288.53a2.382 2.382 0 1 1-4.763 0 2.382 2.382 0 0 1 4.763 0"/><path fill="#141414" d="M9.792 288.53a1.322 1.322 0 1 1-2.645 0 1.322 1.322 0 0 1 2.645 0"/><path fill="#f9f9f9" d="M9.527 288a.529.529 0 1 1-1.058 0 .529.529 0 0 1 1.058 0"/><path fill="#d5122d" d="m10.317 285.813-4.3 5.099q.293.19.602.342l4.297-5.1c-.191-.134-.414-.246-.6-.34m0 0"/></g></svg>