<svg xmlns="http://www.w3.org/2000/svg" width="64" height="64" viewBox="0 0 16.933 16.933"><defs><linearGradient id="a" x1="14.679" x2="2.293" y1="293.79" y2="282.98" gradientTransform="matrix(.99998 0 0 1.0434 0 -292.59)" gradientUnits="userSpaceOnUse"><stop offset="0" stop-color="#66bcff"/><stop offset="1" stop-color="#b29aff"/></linearGradient></defs><rect width="14.816" height="12.7" x="1.058" y="2.117" fill="url(#a)" rx="1.323" ry="1.323"/><rect width="13.229" height="1.058" x="1.852" y="2.646" opacity=".35" rx=".529" ry=".529"/><rect width="1.058" height=".529" x="2.117" y="2.91" opacity=".35" ry=".265" style="paint-order:stroke markers fill"/><rect width="2.646" height=".529" x="7.144" y="2.91" opacity=".35" ry=".265" style="paint-order:stroke markers fill"/><rect width=".529" height=".529" x="14.287" y="2.91" opacity=".35" ry=".265" style="paint-order:stroke markers fill"/><rect width=".794" height=".529" x="13.229" y="2.91" opacity=".35" ry=".265" style="paint-order:stroke markers fill"/><rect width=".529" height=".529" x="12.435" y="2.91" opacity=".35" ry=".265" style="paint-order:stroke markers fill"/><rect width="10.053" height="1.323" x="3.44" y="12.7" fill="#fff" opacity=".35" paint-order="markers stroke fill" rx=".265" ry=".265"/><g fill="#ccdfff" transform="translate(0 1.722)"><rect width="1.323" height="1.323" x="4.233" y="10.448" rx=".264" ry=".264" style="paint-order:stroke markers fill"/><rect width="1.323" height="1.323" x="6.614" y="10.448" rx=".264" ry=".264" style="paint-order:stroke markers fill"/><rect width="1.323" height="1.323" x="8.996" y="10.448" rx=".264" ry=".264" style="paint-order:stroke markers fill"/><rect width="1.323" height="1.323" x="11.376" y="10.448" rx=".264" ry=".264" style="paint-order:stroke markers fill"/></g><path fill="#fff" d="M8.467 5.972c-.782 0-1.411.629-1.411 1.41v.53h.504v-.53c0-.488.418-.906.907-.906.488 0 .907.418.907.907v.529h.504v-.53c0-.781-.63-1.41-1.411-1.41z"/><rect width="3.225" height="4.233" x="-11.112" y="-10.583" fill="#fff" rx=".266" ry=".269" transform="matrix(0 -1 -1 0 0 0)"/></svg>