<svg xmlns="http://www.w3.org/2000/svg" width="64" height="64"><rect width="52" height="52" x="6" y="6" fill="#3e4245" rx="2" ry="2" style="paint-order:stroke markers fill"/><path fill="#fff" d="M12 15h24v2H12z"/><circle cx="43" cy="16" r="2" fill="#72d406"/><circle cx="51" cy="16" r="2" fill="#72d406"/><g fill="#fff"><path d="M12 31h24v2H12z"/><circle cx="43" cy="32" r="2"/><circle cx="51" cy="32" r="2"/><path d="M12 47h24v2H12z"/></g><g fill-rule="evenodd"><rect width="52" height="3" x="6" y="22" fill="#00000f" opacity=".5" rx="0" ry="0" style="paint-order:fill markers stroke"/><rect width="52" height="3" x="6" y="38" fill="#00000f" opacity=".5" rx="0" ry="0" style="paint-order:fill markers stroke"/><circle cx="46" cy="46" r="18" fill="#5687e3" style="paint-order:fill markers stroke"/><path fill="#fff" d="M33.975 34A17 17 0 0 0 32 36.36v19.25A17 17 0 0 0 33.973 58h24.053a17 17 0 0 0 1.975-2.36V36.389A17 17 0 0 0 58.028 34zm1.44 2h21.172L46 46.586zM34 37.414l7.868 7.867L34 54.461zm24 0v17.051l-7.867-9.184zM43.285 46.7 46 49.414l2.715-2.715L56.684 56H35.313l7.973-9.3z" style="paint-order:fill markers stroke"/></g></svg>