<svg xmlns="http://www.w3.org/2000/svg" width="64" height="64"><defs><linearGradient id="a" x1="14.679" x2="2.293" y1="293.79" y2="282.98" gradientTransform="matrix(3.7795 0 0 3.9436 0 -1105.9)" gradientUnits="userSpaceOnUse"><stop offset="0" stop-color="#66bcff"/><stop offset="1" stop-color="#b29aff"/></linearGradient></defs><rect width="55.999" height="48.001" x="4" y="8" fill="url(#a)" rx="5" ry="5"/><rect width="50" height="4" x="6.999" y="10" opacity=".35" rx="2" ry="2"/><rect width="3.999" height="1.999" x="8" y="11" opacity=".35" ry="1.002" style="paint-order:stroke markers fill"/><rect width="10.001" height="1.999" x="27.001" y="11" opacity=".35" ry="1.002" style="paint-order:stroke markers fill"/><rect width="1.999" height="1.999" x="53.999" y="11" opacity=".35" ry="1.002" style="paint-order:stroke markers fill"/><rect width="3.001" height="1.999" x="50" y="11" opacity=".35" ry="1.002" style="paint-order:stroke markers fill"/><rect width="1.999" height="1.999" x="46.999" y="11" opacity=".35" ry="1.002" style="paint-order:stroke markers fill"/><path fill="#fff" stroke-width=".5" d="M32 23a18 18 0 0 0-15.754 9.336 3.96 3.96 0 0 0 1.312 1.816A16 16 0 0 1 32 25a8 8 0 0 0-8 8 8 8 0 0 0 8 8 8 8 0 0 0 8-8 8 8 0 0 0-7.3-7.964 16 16 0 0 1 13.74 9.116 3.95 3.95 0 0 0 1.32-1.836A18 18 0 0 0 32 23zm0 4a6 6 0 0 1 6 6 6 6 0 0 1-6 6 6 6 0 0 1-6-6 6 6 0 0 1 6-6zm0 2a4 4 0 0 0-4 4 4 4 0 0 0 4 4 4 4 0 0 0 4-4 4 4 0 0 0-.18-1.176A2 2 0 0 1 34 33a2 2 0 0 1-2-2 2 2 0 0 1 1.18-1.82A4 4 0 0 0 32 29z"/><path fill="#fff" d="M26 47c-1.108 0-2 .892-2 2h16c0-1.108-.892-2-2-2H26z"/><rect width="2" height="5" x="31" y="42" fill="#fff" rx="0" ry="0"/><path fill="#fff" d="M20 21c-2.216 0-4 1.784-4 4v14c0 2.216 1.784 4 4 4h24c2.216 0 4-1.784 4-4V25c0-2.216-1.784-4-4-4H20zm0 2h24c1.108 0 2 .892 2 2v14c0 1.108-.892 2-2 2H20c-1.108 0-2-.892-2-2V25c0-1.108.892-2 2-2z"/></svg>