<svg width="64" height="64" version="1.1" viewBox="0 0 16.933 16.933" xmlns="http://www.w3.org/2000/svg">
 <rect x="1.3229" y="3.1749" width="14.287" height="10.583" rx="1.5875" ry="1.5875" fill="#666666" stroke-width=".30144" paint-order="markers stroke fill"/>
 <rect x="2.91" y="5.29" width="1.587" height="1.323" ry=".265" fill="#ffffff" paint-order="markers stroke fill"/>
 <rect x="5.292" y="5.29" width="1.587" height="1.323" ry=".265" fill="#ffffff" paint-order="markers stroke fill"/>
 <rect x="7.673" y="5.29" width="1.587" height="1.323" ry=".265" fill="#ffffff" paint-order="markers stroke fill"/>
 <rect x="10.054" y="5.29" width="1.587" height="1.323" ry=".265" fill="#ffffff" paint-order="markers stroke fill"/>
 <rect x="12.435" y="5.29" width="1.587" height="1.323" ry=".265" fill="#ffffff" paint-order="markers stroke fill"/>
 <rect x="2.91" y="7.67" width="1.587" height="1.323" ry=".265" fill="#ffffff" paint-order="markers stroke fill"/>
 <rect x="5.292" y="7.67" width="1.587" height="1.323" ry=".265" fill="#ffffff" paint-order="markers stroke fill"/>
 <rect x="7.673" y="7.67" width="1.587" height="1.323" ry=".265" fill="#ffffff" paint-order="markers stroke fill"/>
 <rect x="10.054" y="7.67" width="1.587" height="1.323" ry=".265" fill="#ffffff" paint-order="markers stroke fill"/>
 <rect x="5.292" y="10.04" width="6.35" height="1.323" ry=".271" fill="#ffffff" paint-order="markers stroke fill"/>
 <rect x="12.435" y="7.6728" width="1.587" height="1.323" ry=".265" fill="#ffffff" paint-order="markers stroke fill"/>
 <circle cx="13.229" cy="11.377" r="3.175" fill="#999999"/>
 <path d="m12.753 9.4719-0.042 0.502a1.497 1.497 0 0 0-0.438 0.253l-0.456-0.215-0.476 0.825 0.414 0.287a1.497 1.497 0 0 0-0.023 0.253 1.497 1.497 0 0 0 0.022 0.254l-0.413 0.286 0.476 0.825 0.455-0.214a1.497 1.497 0 0 0 0.439 0.251l0.042 0.503h0.952l0.042-0.502a1.497 1.497 0 0 0 0.438-0.253l0.456 0.215 0.476-0.825-0.414-0.288a1.497 1.497 0 0 0 0.023-0.252 1.497 1.497 0 0 0-0.022-0.254l0.413-0.286-0.476-0.825-0.455 0.214a1.497 1.497 0 0 0-0.439-0.251l-0.042-0.503zm0.476 1.27a0.635 0.635 0 0 1 0.635 0.635 0.635 0.635 0 0 1-0.635 0.635 0.635 0.635 0 0 1-0.635-0.635 0.635 0.635 0 0 1 0.635-0.635z" fill="#ffffff"/>
</svg>
