<svg xmlns="http://www.w3.org/2000/svg" width="64" height="64"><g stroke-width=".5"><path fill="#8b6c52" d="M12 38a1.944 1.944 0 0 0-1.242.434 2 2 0 0 0-.72 1.168A2.012 2.012 0 0 0 10 40a3.986 3.986 0 0 1-2.55 3.724 4.002 4.002 0 0 1-.77.216A4.002 4.002 0 0 1 6 44a1.014 1.014 0 0 0-.34.056 1.218 1.218 0 0 0-.386.216 1.832 1.832 0 0 0-.356.36 3.43 3.43 0 0 0-.45.79 4.96 4.96 0 0 0-.222.66 6.266 6.266 0 0 0-.234 1.518A8.12 8.12 0 0 0 4 48v2h56v-2a8 8 0 0 0-.246-1.918 5.744 5.744 0 0 0-.222-.66 4.194 4.194 0 0 0-.29-.554 2.274 2.274 0 0 0-.516-.594A1.218 1.218 0 0 0 58 44a4 4 0 0 1-.68-.06 4.002 4.002 0 0 1-1.132-.374A4 4 0 0 1 54 40a2.01 2.01 0 0 0-.09-.59 1.994 1.994 0 0 0-.38-.7 2 2 0 0 0-.624-.492A1.994 1.994 0 0 0 52 38H32z"/><path fill="#4d4d4d" d="m44 38-2-2h-2l2 2zm-24 0 2-2h2l-2 2z"/><path fill="#b3b3b3" d="M51.574 34H12.406c-.27 1.316-.406.656-.406 2h40c-.008-1.344-.15-.684-.426-2z" opacity=".998"/><path fill="#ccc" d="M30 14v6h4v-6z"/><path fill="#e6e6e6" d="M32 18a20 20 0 0 0-19.594 16h39.168A20 20 0 0 0 32 18z" opacity=".998"/><path fill="#ececec" d="M32 10a4 4 0 0 0-4 4 4 2 0 0 0 2 1.73 4 2 0 0 0 4 0A4 2 0 0 0 36 14a4 4 0 0 0-4-4z"/><path fill="#5c5049" d="M4 50h56v4H4z"/></g></svg>