<svg width="64" height="64" version="1.1" xmlns="http://www.w3.org/2000/svg">
 <defs>
  <linearGradient id="a" x1="40" x2="40" y1="59" y2="15" gradientUnits="userSpaceOnUse">
   <stop offset="0"/>
   <stop stop-opacity="0" offset="1"/>
  </linearGradient>
 </defs>
 <rect x="5" y="5" width="54" height="54" rx="27" fill="#4d4d4d"/>
 <path d="m31.953 5a27 27 0 0 0-25.185 17.357h0.11379l5.7857-1.9286 3.8571 3.8571v-3.8571l3.8571-1.9286v-1.9286l3.8571-1.9286 3.8571-3.8571v1.9286l1.9286-1.9286-1.9286-1.9286h3.8571v1.9286l3.8571-1.9286-1.9286-1.9286v-1.8321a27 27 0 0 0-1.9286-0.096429zm20.009 8.9196-0.72322 0.72321v1.9286h2.8331a27 27 0 0 0-2.1099-2.6518zm2.538 3.2477-7.1184 7.1184-1.9286 5.7857v1.9286l3.8571 3.8571 3.8571 1.9286 5.3826-1.3269a27 27 0 0 0 0.40307-4.4589 27 27 0 0 0-4.4531-14.833zm-45.69 9.0469-1.9286 1.9286h-1.6161c-0.096428 0.65571-0.16971 1.3134-0.21793 1.9729v0.0039l3.7626 1.8804 1.9286 1.9286 3.8571 1.9286 1.9286 1.9286-1.9286 1.9286v3.8571l1.9286 3.8571 3.8571 3.8571v5.0702a27 27 0 0 0 11.571 2.644c0.32786-0.0058 0.65571-0.01736 0.98357-0.03472l0.945-1.8939v-1.9286l3.8571-1.9286 1.9286-1.9286v-3.8571l1.9286-1.9286v-1.9286l-1.9286-1.9286-5.7857-1.9286-3.8571-3.8571h-1.9286l-1.9286-1.9286-5.7857-1.9286-3.8571 1.9286h-3.8571v-3.8571h-1.9286v-3.8571z" fill="#fff" opacity=".5"/>
 <path d="m52.631 14.553a48 48 0 0 1 0.36914 5.4453l-45.205 2e-3h45.205a48 48 0 0 1-20.09 38.977c14.532-0.47813 26.09-12.324 26.09-26.977 0-6.6651-2.3947-12.747-6.3691-17.447z" fill="url(#a)" opacity=".15"/>
 <path d="m30.09 18c-3.554 0-5.044 1.412-5.044 5.02v2.882c0 2.228-0.068 4.808-2.03 4.808h-1.016v2.58h1.016c1.962 0 2.03 2.58 2.03 4.808v2.882c0 3.608 1.49 5.02 5.044 5.02v-2.368c-2.37 0-2.402-0.956-2.402-4.42v-2.032c0-1.662-0.41-4.136-2.406-5.16 1.996-1.026 2.406-3.502 2.406-5.164v-2.068c0-3.464 0.032-4.42 2.4-4.42zm3.788 0v2.368c2.37 0 2.434 0.956 2.434 4.42v2.068c0 1.66 0.41 4.14 2.406 5.164-1.996 1.024-2.406 3.498-2.406 5.16v2.032c0 3.464-0.064 4.42-2.434 4.42v2.368c3.554 0 5.076-1.412 5.076-5.02v-2.88c0-2.228 0.136-4.808 2.066-4.808h0.98v-2.58h-0.98c-1.93 0-2.066-2.58-2.066-4.808v-2.884c0-3.608-1.52-5.02-5.076-5.02z" fill="#ffdb4e"/>
</svg>
