<svg width="64" height="64" version="1.1" xmlns="http://www.w3.org/2000/svg" xmlns:xlink="http://www.w3.org/1999/xlink">
 <defs>
  <linearGradient id="linearGradient9555" x1="14.679" x2="2.2933" y1="293.79" y2="282.98" gradientTransform="matrix(3.7795 0 0 3.9436 -.00086969 -1105.9)" gradientUnits="userSpaceOnUse">
   <stop stop-color="#66bcff" offset="0"/>
   <stop stop-color="#b29aff" offset="1"/>
  </linearGradient>
 </defs>
 <rect x="4" y="7.9999" width="55.999" height="48.001" rx="5" ry="5" fill="url(#linearGradient9555)" stroke-width="3.7299"/>
 <rect x="6.9991" y="10" width="50" height="4" rx="2" ry="2" fill="#000000" opacity=".35" stop-color="#000000" stroke-width="0"/>
 <rect x="7.9999" y="11" width="3.9988" height="1.9994" ry="1.0016" opacity=".35" stroke-width="3.7796" style="paint-order:stroke markers fill"/>
 <rect x="27.001" y="11" width="10.001" height="1.9994" ry="1.0016" opacity=".35" stroke-width="3.7796" style="paint-order:stroke markers fill"/>
 <rect x="53.999" y="11" width="1.9994" height="1.9994" ry="1.0016" opacity=".35" stroke-width="3.7796" style="paint-order:stroke markers fill"/>
 <rect x="50" y="11" width="3.001" height="1.9994" ry="1.0016" opacity=".35" stroke-width="3.7796" style="paint-order:stroke markers fill"/>
 <rect x="46.999" y="11" width="1.9994" height="1.9994" ry="1.0016" opacity=".35" stroke-width="3.7796" style="paint-order:stroke markers fill"/>
 <rect x="13.002" y="48.001" width="37.996" height="5.0004" rx="1" ry="1" fill="#ffffff" opacity=".35" stroke-width="3.7796" paint-order="markers stroke fill"/>
 <g transform="matrix(3.7796 0 0 3.7796 0 6.5104)" fill="#ccdfff">
  <rect x="4.2333" y="10.448" width="1.323" height="1.323" rx=".26433" ry=".26433" style="paint-order:stroke markers fill"/>
  <rect x="6.6145" y="10.448" width="1.323" height="1.323" rx=".26433" ry=".26433" style="paint-order:stroke markers fill"/>
  <rect x="8.9956" y="10.448" width="1.323" height="1.323" rx=".26433" ry=".26433" style="paint-order:stroke markers fill"/>
  <rect x="11.376" y="10.448" width="1.323" height="1.323" rx=".26433" ry=".26433" style="paint-order:stroke markers fill"/>
 </g>
 <path d="m40.452 23.008a2.25 10.125 44.998 0 0-8.3756 5.735 2.25 10.125 44.998 0 0-3.9857 4.6275c1.2105 0.38547 2.1545 1.3295 2.5399 2.5401a2.25 10.125 44.998 0 0 4.6272-3.986 2.25 10.125 44.998 0 0 5.5676-8.7497 2.25 10.125 44.998 0 0-0.37351-0.16701m-12.952 11.989c-4.4998 1.2058-1.125 4.0545-4.4998 6.0031 4.5036 0 6.7497-2.251 6.7497-3.753 0-0.74802 0.07599-2.1257-2.2499-2.2501z" fill="#fff"/>
</svg>
