<svg width="64" height="64" version="1.1" xmlns="http://www.w3.org/2000/svg">
 <defs>
  <linearGradient id="c" x1="13.229" x2="2.117" y1="297" y2="280.07" gradientTransform="matrix(4.0496,0,0,3.7796,382.28,-574.74)" gradientUnits="userSpaceOnUse">
   <stop stop-color="#66bcff" offset="0"/>
   <stop stop-color="#b29aff" offset="1"/>
  </linearGradient>
 </defs>
 <g stroke-width="3.7796">
  <g transform="translate(-384.57,-483.8)">
   <path d="m387.57 492.8h58.002c0.55182 0 0.99781 0.44599 0.99781 0.99781v44.002a0.99781 0.99781 0 0 1-0.99781 1.0016h-58.002a0.99781 0.99781 0 0 1-1.0016-1.0016v-44.002c0-0.55182 0.44599-0.99781 1.0016-0.99781z" fill="url(#c)" style="paint-order:stroke markers fill"/>
   <rect x="390.57" y="493.8" width="3.9988" height="1.9994" ry="1.0016" opacity=".35" style="paint-order:stroke markers fill"/>
   <rect x="411.57" y="493.8" width="10.001" height="1.9994" ry="1.0016" opacity=".35" style="paint-order:stroke markers fill"/>
   <rect x="441.57" y="493.8" width="1.9994" height="1.9994" ry="1.0016" opacity=".35" style="paint-order:stroke markers fill"/>
   <rect x="437.57" y="493.8" width="3.001" height="1.9994" ry="1.0016" opacity=".35" style="paint-order:stroke markers fill"/>
   <rect x="434.57" y="493.8" width="1.9994" height="1.9994" ry="1.0016" opacity=".35" style="paint-order:stroke markers fill"/>
  </g>
  <path d="m15.002 51c-1.1077 0-2 0.89038-2 1.998v2.0117h38v-2.0117c0-1.1077-0.89233-1.998-2-1.998h-34z" fill="#fff" opacity=".35" style="paint-order:stroke markers fill"/>
  <g transform="translate(-384.57,-483.8)" fill="#ccdfff">
   <rect x="401.57" y="531.8" width="5.0004" height="5.0004" ry=".49891" style="paint-order:stroke markers fill"/>
   <rect x="409.91" y="531.8" width="5.0004" height="5.0004" ry=".49891" style="paint-order:stroke markers fill"/>
   <rect x="418.24" y="531.8" width="5.0004" height="5.0004" ry=".49891" style="paint-order:stroke markers fill"/>
   <rect x="426.57" y="531.8" width="5.0004" height="5.0004" ry=".49891" style="paint-order:stroke markers fill"/>
  </g>
  <path d="m3 9a0.99781 0.99781 0 0 0-1.0016 1.0016v2.9972h60.001v-2.9972a0.99781 0.99781 0 0 0-0.99781-1.0016z" opacity=".35" style="paint-order:stroke markers fill"/>
 </g>
 <g transform="matrix(1.5,0,0,1.5,-569.54,-769.77)" stroke-width=".66667">
  <path transform="translate(384.57,515.8)" d="m4 11v6h7v-5h-3l-1-1z" fill="#fff"/>
  <path d="m388.57 534.8v6h7v-5h-3l-1-1z" fill="#fff" opacity=".75"/>
  <path d="m398.57 526.8v6h5v-4l-2-2z" fill="#ffa86d"/>
  <path d="m401.57 526.8 2 2h-2z" fill="#ff7214" fill-rule="evenodd"/>
  <path d="m398.57 534.8v6h5v-4l-2-2z" fill="#94d669"/>
  <path d="m401.57 534.8 2 2h-2z" fill="#67b632" fill-rule="evenodd"/>
  <rect x="406.57" y="526.8" width="6" height="6" rx="2.6e-5" fill="#fff"/>
  <rect x="407.57" y="528.8" width="4" height="2" rx="1" opacity=".15"/>
  <rect x="409.57" y="528.8" width="2" height="2" rx="1" fill="#3daee9"/>
 </g>
</svg>
