<svg width="64" height="64" version="1.1" viewBox="0 0 16.933 16.933" xmlns="http://www.w3.org/2000/svg">
 <g transform="translate(0 -280.07)">
  <rect transform="matrix(0,-1,-1,0,0,0)" x="-295.68" y="-15.61" width="14.287" height="14.287" rx="7.1436" ry="7.1436" fill="#3c8dd4"/>
  <path d="m9.2607 284.83c-1.6021 0-2.9251 1.3113-2.9251 2.9134 0 0.60838 0.20552 1.1677 0.52897 1.6383l-1.9501 1.9524a0.53131 0.53248 0 0 0 0.74266 0.76135l1.9501-1.9536c0.47059 0.32346 1.0439 0.51379 1.6535 0.51379a2.9181 2.9181 0 0 0 2.9099-2.9123 2.9181 2.9181 0 0 0-2.9099-2.9134zm0 1.0591c1.0299 0 1.852 0.82323 1.852 1.8543 0 1.0299-0.82207 1.8532-1.852 1.8532a1.8438 1.8438 0 0 1-1.8508-1.8532c0-1.0311 0.8209-1.8543 1.8508-1.8543z" fill="#fff"/>
 </g>
</svg>
