<svg xmlns="http://www.w3.org/2000/svg" width="64" height="64" viewBox="0 0 16.933 16.933"><g transform="translate(0 -280.067)"><rect width="9.525" height="9.525" x="1.852" y="285.094" fill="#fff" stroke="#000" stroke-opacity=".059" stroke-width=".265" paint-order="stroke markers fill" rx=".529" ry=".529"/><rect width="9.525" height="9.525" x="1.852" y="285.094" fill="#fff" paint-order="stroke markers fill" rx=".529" ry=".529"/><path fill="#ccc" d="M4.47 286.653q.474.557.78 1.17l-.53.306q-.278-.612-.751-1.17zm-1.058 2.061h1.504v3.231l.585-.64.362.334q-.39.529-1.059 1.058l-.417-.362v-3.12h-.975zm2.59-.529h.891l.167-.752H5.751v-.501h3.927v.501h-2.06l-.168.752h1.7v1.448h.668v.502H5.64v-.502h.919l.195-.946h-.752zm1.114 1.448h1.476v-.946H7.311zm2.367 1.003v2.423h-.557v-.362H6.615v.362h-.557v-2.423zm-2.868 1.56h2.311v-1.059H6.615z" aria-label="шпн" font-family="sans-serif" font-size="7.13" font-weight="400" letter-spacing="0" word-spacing="0"/><rect width="9.525" height="9.525" x="6.085" y="281.919" fill="#498cd8" paint-order="stroke markers fill" rx=".529" ry=".529"/><path fill="#fff" d="m10.848 284.775-.954 2.587h1.911zm-.397-.693h.797l1.981 5.198h-.73l-.474-1.333H9.682l-.474 1.333h-.741z" aria-label="A" font-family="sans-serif" font-size="7.13" font-weight="400" letter-spacing="0" word-spacing="0"/></g></svg>