<svg width="64" height="64" version="1.1" xmlns="http://www.w3.org/2000/svg">
 <defs>
  <linearGradient id="a" x1="39.154" x2="59" y1="26" y2="26" gradientUnits="userSpaceOnUse">
   <stop offset="0"/>
   <stop stop-opacity="0" offset="1"/>
  </linearGradient>
 </defs>
 <g transform="translate(270.4,69.763)">
  <path d="m-244.5-25.929c-0.52 0-0.9 0.378-0.9 0.834v10.955l-4.078 0.377h-0.022c-0.52 0-0.9 0.378-0.9 0.834v1.166h24v-1.166c0-0.456-0.381-0.834-0.9-0.834h-0.024l-4.076-0.377v-10.955c0-0.456-0.38-0.834-0.9-0.834z" fill="#c4c7cc"/>
  <rect x="-268.4" y="-63.763" width="60" height="40" rx="2" ry="2" fill="#2f3337"/>
  <path d="m-265.4-60.763h54v34h-54z" fill="#1a1c1f" fill-rule="evenodd"/>
  <path transform="translate(-270.4,-69.763)" d="m55.117 9a46.405 46.405 0 0 1-15.963 34h19.846v-34h-3.8828z" fill="url(#a)" opacity=".15"/>
 </g>
 <g transform="translate(-2.9492 .71293)" opacity=".5">
  <path d="m18.948 10.286h20.001v2.0001h-20.001zm0 12.001h16.001v2.0001h-16.001zm0 4.0003h16.001v2.0001h-16.001zm0 4.0003h12.001v2.0001h-12.001zm0-16.001h16.001v2.0001h-16.001zm0 4.0003h12.001v2.0001h-12.001zm0 16.001h20.001v2.0001h-20.001zm0 4.0003h12.001v2.0001h-12.001z" fill="#fff" stroke-width="1.4142" style=""/>
  <path d="m10.949 10.286h6.0004v2.0001h-6.0004zm0 4.0003h6.0004v2.0001h-6.0004zm0 4.0003h6.0004v2.0001h-6.0004zm0 4.0003h6.0004v2.0001h-6.0004zm0 4.0003h6.0004v2.0001h-6.0004zm0 4.0003h6.0004v2.0001h-6.0004zm0 4.0003h6.0004v2.0001h-6.0004zm0 4.0003h6.0004v2.0001h-6.0004z" fill="#41f045" style=""/>
 </g>
</svg>
