<svg width="64" height="64" version="1.1" xmlns="http://www.w3.org/2000/svg">
 <rect x="6" y="6" width="52" height="52" rx="2" ry="2" fill="#3e4245" style="paint-order:stroke markers fill"/>
 <path d="m12 15h24v2h-24z" fill="#fff"/>
 <circle cx="43" cy="16" r="2" fill="#72d406"/>
 <circle cx="51" cy="16" r="2" fill="#72d406"/>
 <path d="m12 31h24v2h-24z" fill="#fff"/>
 <circle cx="43" cy="32" r="2" fill="#72d406"/>
 <circle cx="51" cy="32" r="2" fill="#72d406"/>
 <path d="m12 47h24v2h-24z" fill="#fff"/>
 <rect x="6" y="22" width="52" height="3" rx="0" ry="0" fill="#00000f" fill-rule="evenodd" opacity=".5" style="paint-order:fill markers stroke"/>
 <rect x="6" y="38" width="52" height="3" rx="0" ry="0" fill="#00000f" fill-rule="evenodd" opacity=".5" style="paint-order:fill markers stroke"/>
 <circle cx="43" cy="48" r="2" fill="#72d406"/>
 <circle cx="51" cy="48" r="2" fill="#72d406"/>
 <circle cx="46" cy="46" r="18" fill="#f55" fill-rule="evenodd" style="paint-order:fill markers stroke"/>
 <path d="m44 34h4v10h-4zm6 0.7v2.14a10 10 0 0 1 6 9.16 10 10 0 0 1-10 10 10 10 0 0 1-10-10 10 10 0 0 1 6-9.152v-2.144a12 12 0 0 0-8 11.296 12 12 0 0 0 12 12 12 12 0 0 0 12-12 12 12 0 0 0-8-11.3z" fill="#fff"/>
</svg>
