<svg width="64" height="64" version="1.1" viewBox="0 0 64 64" xmlns="http://www.w3.org/2000/svg" xmlns:xlink="http://www.w3.org/1999/xlink">
 <defs>
  <linearGradient id="b">
   <stop stop-color="#814b13" offset="0"/>
   <stop stop-color="#9d5b17" offset="1"/>
  </linearGradient>
  <linearGradient id="c" x2="0" y1="538.8" y2="534.8" gradientUnits="userSpaceOnUse" xlink:href="#b"/>
  <linearGradient id="a" x2="0" y1="528.8" y2="524.8" gradientUnits="userSpaceOnUse" xlink:href="#b"/>
 </defs>
 <g transform="translate(-384.57 -483.8)">
  <g transform="matrix(2 0 0 2 -384.57 -547.8)">
   <rect x="387.07" y="518.3" width="27" height="27" rx="13.5" ry="13.5" fill="#fdcf71" stroke-width=".5"/>
   <ellipse cx="395.57" cy="526.8" rx="2" ry="2" fill="url(#a)" stroke-width="2.5197"/>
   <ellipse cx="405.57" cy="526.8" rx="2" ry="2" fill="url(#a)" stroke-width="2.5197"/>
   <path d="m395.25 535.1a6.1563 7.3876 0 0 0 5.3266 3.6938 6.1563 7.3876 0 0 0 5.3218-3.6938h-0.7479a6.1563 7.3876 0 0 1-4.5739 2.4625 6.1563 7.3876 0 0 1-4.5763-2.4625z" fill="url(#c)" stroke-width=".61563"/>
  </g>
 </g>
</svg>
