<svg xmlns="http://www.w3.org/2000/svg" width="64" height="64"><g transform="translate(-1.23 -1.23)scale(1.0385)"><circle cx="32" cy="32" r="26" fill="#ba3c37" style="paint-order:markers stroke fill"/><path d="M32 6a26 26 0 0 0-10 2.025V14h-8.72a26 26 0 0 0-1.737 2H13v6H8.008a26 26 0 0 0-.73 2H22v7H6.05A26 26 0 0 0 6 32a26 26 0 0 0 .035 1H13v7H7.295a26 26 0 0 0 .73 2H22v6H11.518A26 26 0 0 0 15 51.654V50h16v6h-8.98A26 26 0 0 0 32 58a26 26 0 0 0 9.941-2H33v-6h16v1.63A26 26 0 0 0 52.457 48H42v-6h13.992a26 26 0 0 0 .73-2H51v-7h6.95a26 26 0 0 0 .05-1 26 26 0 0 0-.035-1H42v-7h14.705a26 26 0 0 0-.73-2H51v-6h1.482a26 26 0 0 0-1.73-2H42V8.008A26 26 0 0 0 32 6m-8 2h16v6H24zm-9 8h16v6H15zm18 0h16v6H33zm-9 8h16v7H24zm-9 9h16v7H15zm18 0h16v7H33zm-9 9h16v6H24z" opacity=".1" style="paint-order:markers stroke fill"/><g stroke-width=".535" color="#000"><path fill="#ffd33f" d="M29.617 16.947q-.187 7.832-4.95 13.723-.186-2.319-1.439-4.638-.126 1.755-1.41 4.67-1.286 2.911-1.598 4.226-.69 3.32.783 5.827 1.472 2.505 5.795 4.95c4.36 1.698 6.043 1.78 9.65 0q3.07-1.755 4.887-3.855 1.817-2.098 2.317-4.072.5-1.973.281-4.072t-1-3.791a24 24 0 0 0-1.787-3.195q-1.002-1.503-1.815-2.38c-.813-.877-.982-1.002-1.317-1.253q.439 1.19.313 2.57-.124 1.378-.625 2.506-.189-1.88-1.099-3.76-.907-1.88-1.941-3.103a19.5 19.5 0 0 0-2.38-2.348q-1.348-1.128-1.85-1.471a17 17 0 0 0-.815-.534" overflow="visible" style="isolation:auto;mix-blend-mode:normal"/><path fill="#fff3cb" d="M36.448 45.705q2.068-4.135.814-8.928-1.252-4.794-4.95-7.362.314 1.378-.344 4.542t-2.1 4.793q.252-2.004.126-3.258-.125-1.252-.376-1.88l-.313-.563q-.375 2.255-1.942 4.511-.814 1.191-1.222 2.193-.407 1.002-.313 2.569t.97 3.383s1.652 1.348 3.493 1.348c4.462 0 4.665-.496 6.157-1.348" overflow="visible" style="isolation:auto;mix-blend-mode:normal"/></g></g></svg>