<svg width="64" height="64" version="1.1" xmlns="http://www.w3.org/2000/svg">
 <defs>
  <linearGradient id="linearGradient1059" x1="-22.977" x2="-15.685" y1="280.96" y2="296.25" gradientTransform="matrix(4.0495 0 0 3.7796 110.26 -1058.8)" gradientUnits="userSpaceOnUse">
   <stop stop-color="#66bcff" offset="0"/>
   <stop stop-color="#b29aff" offset="1"/>
  </linearGradient>
 </defs>
 <rect x="14" y="-3.7598e-6" width="36" height="64" rx="6" ry="6" fill="#35373a" stroke-width="1.1339"/>
 <rect x="16" y="2" width="32" height="60" rx="4" ry="4" fill="url(#linearGradient1059)" opacity=".5" stroke-width="1.2484"/>
 <rect x="26" y="60" width="12" height="1" rx=".50001" ry=".50001" fill="#333333" stroke-width=".70712"/>
 <path d="m29 24c-0.55228 0-1 0.44772-1 1s0.44772 1 1 1 1-0.44772 1-1-0.44772-1-1-1zm7 0-2 2 4 4-4 4 2 2 6-6-6-6zm-10 6c-1.1046 0-2 0.89544-2 2 0 1.1046 0.89544 2 2 2s2-0.89544 2-2c0-1.1046-0.89544-2-2-2zm5 6c-1.6569 0-3 1.3431-3 3s1.3431 3 3 3 3-1.3431 3-3-1.3431-3-3-3z" fill="#ffffff" opacity=".5"/>
 <circle cx="32" cy="4" r="1" fill="#333333" stop-color="#000000" stroke-width="0"/>
</svg>
