<svg width="64" height="64" version="1.1" xmlns="http://www.w3.org/2000/svg" xmlns:xlink="http://www.w3.org/1999/xlink">
 <g transform="matrix(3.9308 0 0 3.9308 -1.2813 -1102.2)" stroke-width=".962" style="paint-order:markers stroke fill">
  <rect x="1.852" y="281.92" width="13.229" height="13.229" rx=".763" ry=".763" fill="#2196f3"/>
 </g>
 <path d="m25 28v-16h9l5 5v11zm2-2h10v-9h-3v-3h-7z" fill="#fff"/>
 <g transform="matrix(3.9308 0 0 3.9308 -1.2813 -1102.2)" stroke-width=".962" style="paint-order:markers stroke fill">
  <path transform="matrix(.2544 0 0 .2544 .32596 280.39)" d="m5.998 32v23.002c0 1.6616 1.3384 3 3 3h46.002c1.6616 0 2.998-1.3384 2.998-3v-23.002h-52z" opacity=".15" stroke-width="3.7814"/>
 </g>
 <path d="m32 37a8 8 0 0 0-1.536 0.1504l-0.0544 0.0096c-0.2656 0.048-0.5264 0.1104-0.784 0.1904a7.888 7.888 0 0 0-1.5344 0.6752 7.0848 7.0848 0 0 0-0.736 0.4688c-0.1552 0.112-0.3088 0.224-0.4544 0.3456a6.368 6.368 0 0 0-0.1888 0.1664c-0.1536 0.136-0.3072 0.272-0.448 0.4192-0.3424 0.352-0.6448 0.7376-0.9168 1.1456a8.064 8.064 0 0 0-0.0912 0.128 7.9776 7.9776 0 0 0-0.4064 0.72 8.0128 8.0128 0 0 0-0.344 0.7936c-0.0512 0.1376-0.112 0.272-0.1552 0.4128-0.0224 0.0704-0.0336 0.144-0.0544 0.2144a7.2464 7.2464 0 0 0-0.152 0.672 8 8 0 0 0-0.0944 0.6624v0.0064a8 8 0 0 0-0.0496 0.8192 8 8 0 0 0 0.16 1.5904c0.048 0.2656 0.1104 0.5264 0.1904 0.784a7.8816 7.8816 0 0 0 0.6752 1.5344 7.0848 7.0848 0 0 0 0.4688 0.736 7.4048 7.4048 0 0 0 0.512 0.6432c0.136 0.1536 0.272 0.3072 0.4192 0.448 0.352 0.3424 0.7376 0.6448 1.1472 0.9168 0.0416 0.032 0.0848 0.0608 0.128 0.0912 0.1904 0.1216 0.3856 0.232 0.5872 0.336l0.1312 0.0704a8.0128 8.0128 0 0 0 0.7936 0.344c0.1376 0.0512 0.272 0.112 0.4128 0.1552 0.0704 0.0224 0.144 0.0336 0.216 0.0528a7.504 7.504 0 0 0 0.6704 0.1536 8 8 0 0 0 0.6448 0.0912l0.0176 0.0032h0.0064a8 8 0 0 0 0.8192 0.0496 8 8 0 0 0 1.536-0.1504l0.0544-0.0096c0.2656-0.048 0.5264-0.1104 0.784-0.1904a7.952 7.952 0 0 0 1.288-0.544l0.1632-0.08a8 8 0 0 0 1.2-0.8096c0.032-0.0272 0.0688-0.0512 0.1024-0.08a8 8 0 0 0 0.9184-0.9168c0.064-0.0752 0.1328-0.144 0.1936-0.2192a8 8 0 0 0 0.6752-1c0.0624-0.1056 0.1248-0.2096 0.1824-0.32a8 8 0 0 0 0.464-1.096c0.0256-0.072 0.0656-0.136 0.088-0.208s0.0336-0.144 0.0528-0.216l0.0064-0.0192 0.016-0.0656a8 8 0 0 0 0.2224-1.232l0.0032-0.0176v-0.0064a8 8 0 0 0 0.0496-0.8192 8 8 0 0 0-0.16-1.5904c-0.048-0.2656-0.112-0.528-0.1904-0.784-0.0192-0.0608-0.0544-0.1152-0.0752-0.176a8 8 0 0 0-1.272-2.3632c-0.0464-0.0576-0.08-0.128-0.128-0.1856-0.0832-0.1024-0.1808-0.192-0.272-0.2848a8 8 0 0 0-1.3456-1.1792c-0.064-0.0432-0.1216-0.088-0.1856-0.1312a8.032 8.032 0 0 0-0.144-0.0896 7.4496 7.4496 0 0 0-1.1024-0.592c-0.072-0.0288-0.1504-0.0512-0.224-0.08-0.176-0.0688-0.3504-0.1392-0.5264-0.1936-0.0704-0.0224-0.144-0.0336-0.2144-0.0528l-0.0192-0.0064a7.3424 7.3424 0 0 0-1.2976-0.2384l-0.0176-0.0032h-0.0064a8 8 0 0 0-0.8192-0.0496zm0 1.6a6.4 6.4 0 0 1 3.3872 0.9808c-0.0032 8e-3 -0.0096 8e-3 -0.0128 0.0192 0.0288 0.0592 0.104 0.064 0.1728 0.0784l0.1056 0.072c0.04 0.0544 0.072 0.112 0.096 0.176a0.592 0.592 0 0 1 0 0.224c-0.0448 0.1152-0.1648 0.1024-0.2992 0.0992-0.0368 0-0.0656 0.0032-0.0992 0-0.2256-0.0144-0.448-0.0864-0.5504 0.0752 0.0064 0.1232 0.0272 0.192 0 0.3008-0.0208 0.0784-0.104 0.1312-0.1008 0.2 0.0016 0.0336 0.0672 0.1008 0.0752 0.1488 0.0064 0.0272-0.0112 0.0768 0 0.1008 0.0384 0.0704 0.1328-0.0112 0.2 0 0.064 0.0096 0.1248 0.104 0.1248 0.176a0.432 0.432 0 0 1-0.048 0.1984c-0.064 0.096-0.184 0.0736-0.2768 0.1248-0.0752 0.0448-0.104 0.1504-0.1488 0.2256-0.048 0.08-0.096 0.1088-0.0752 0.224a0.5392 0.5392 0 0 1-0.2752 0.2768 0.6368 0.6368 0 0 0-0.224 0.176c-0.0528 0.0544-0.1232 0.08-0.1504 0.1232-0.0208 0.032-0.0032 0.1056-0.0256 0.1504-0.032 0.0608-0.0848 0.112-0.1248 0.176-0.0192 0.0272-0.0544 0.0608-0.0752 0.0992-0.048 0.0832-0.1088 0.1504-0.1008 0.224 0.0064 0.072 0.096 0.088 0.1008 0.1504 0.0032 0.0352-0.0272 0.0624-0.0256 0.1008 0.0016 0.0544 0.0208 0.08 0.0256 0.1248 0.0096 0.1072-0.0544 0.1504-0.0752 0.224-0.0096 0.0352 8e-3 0.0736 0 0.1008-0.016 0.0528-0.0992 0.0864-0.0992 0.1504-0.0016 0.0448 0.0704 0.0848 0.0736 0.1488 0.0032 0.0432-0.032 0.0848-0.024 0.1248 0.016 0.08 0.1632 0.1888 0.224 0.2512 0.0832 0.0816 0.1648 0.1376 0.2 0.224 0.032 0.0752 0.0432 0.1952 0.1008 0.2512 0.0416 0.04 0.1216 0.0576 0.176 0.0992 0.0496 0.04 0.12 0.0576 0.1744 0.1008 0.088 0.0688 0.208 0.208 0.3488 0.2 0.0752-0.0064 0.144-0.0368 0.2256-0.0512 0.0864-0.0144 0.1872-0.0576 0.2752-0.0496 0.0672 8e-3 0.1296 0.0544 0.2 0.0496a0.8352 0.8352 0 0 0 0.2496-0.0752c0.144-0.0624 0.3664-0.1792 0.576-0.1488 0.16 0.0224 0.1616 0.2032 0.2736 0.2752 0.128 0.0112 0.224-0.0256 0.3264 0 0.0768 0.0176 0.1664 0.1632 0.1744 0.224 8e-3 0.064-0.0416 0.112-0.0496 0.1504-0.0208 0.0848-0.0352 0.1968-0.0496 0.2496-0.0112 0.0432-0.0272 0.0832-0.0256 0.1248 0 0.0384 0.0608 0.1264 0.0992 0.176 0.048 0.0608 0.1168 0.1072 0.176 0.1744 0.1056 0.1216 0.1504 0.288 0.224 0.4496 0.0192 0.0416-0.016 0.0496 0 0.1008-0.032 0.2432-0.1136 0.4048-0.2736 0.6752-0.0768 0.0864-0.152 0.1904-0.1504 0.2992-0.0064 0.2624 0.136 0.3968 0.1248 0.6496v0.0096a6.4 6.4 0 0 1-7.0352 2.3344c0-8e-3 0.0096-0.0096 0.0096-0.0192-0.0032-0.0416-0.0416-0.0608-0.0752-0.0992-0.0272-0.032-0.0064-0.0704-0.024-0.1008-0.0352-0.0496-0.0864-0.0752-0.1008-0.1488 0.1056-0.0208 0.2496 0.1168 0.4 0.0752 0.072-0.0208 0.192-0.16 0.224-0.2256 0.0112-0.0208-0.0096-0.1008 0-0.1248 0.0144-0.0272 0.048-0.0352 0.0512-0.0496 0.0096-0.04-8e-3 -0.0512 0-0.0752 0.0256-0.0752 0.1072-0.1216 0.1504-0.176 0.032-0.04 0.0688-0.0816 0.0992-0.1248 0.0352-0.0448 0.0528-0.0608 0.0752-0.0992 0.0224-0.1328-0.0816-0.2336-0.0496-0.3504 0.0352-0.1312 0.224-0.216 0.3504-0.2752 0.0432-0.0208 0.088-0.0624 0.1248-0.0752 0.0864-0.0304 0.192-0.0208 0.2752-0.0496 0.136-0.048 0.1824-0.2 0.2496-0.3248 0.032-0.0576 0.0688-0.1088 0.0752-0.1504 0.0048-0.0368-8e-3 -0.08 0-0.1248 8e-3 -0.0432 0.0128-0.0768 0.024-0.1248a1.2672 1.2672 0 0 0 0.0256-0.2496c0-0.0592-0.024-0.0736-0.0256-0.1264-0.0096-0.1888 0.056-0.1968 0.1264-0.2992 0.0336-0.0512 0.0496-0.1392 0.0736-0.176 0.1184-0.1728 0.3152-0.2592 0.3008-0.5248-0.0064-0.0864-0.0368-0.272-0.1008-0.2992-0.0352-0.016-0.12-0.0048-0.1744-0.0256-0.1712-0.064-0.296-0.2592-0.4752-0.2752h-0.0992c-0.0704 0-0.1472-0.0656-0.224-0.0736-0.0512-0.0064-0.1472 0.0144-0.176 0-0.0448-0.0224-0.0384-0.1008-0.0752-0.1264-0.0288-0.0192-0.08-0.032-0.1248-0.048a0.5968 0.5968 0 0 0-0.2-0.0512c-0.0272-0.0016-0.096 0.0048-0.1248 0-0.0464-8e-3 -0.0832-0.048-0.1248-0.0752-0.0528-0.032-0.08-0.0544-0.1008-0.0992 0.048-0.1584-0.1184-0.184-0.1504-0.2752-0.0144-0.0432 0.016-0.112 0-0.1504-0.0176-0.0544-0.064-0.08-0.1248-0.1248a0.6832 0.6832 0 0 0-0.3504-0.176c-0.0656-8e-3 -0.144 0.0048-0.224 0a0.3936 0.3936 0 0 1-0.2496-0.1248c-0.0624-0.0704-0.072-0.1408-0.1264-0.1744-0.0496-0.032-0.1392-0.0416-0.1744-0.0752-0.016-0.0144-0.0112-0.0416-0.024-0.0752-0.0272-0.0528-0.0832-0.0608-0.0512-0.1248-0.0576-0.0288-0.0368 0.0368-0.0992 0.0256-0.0576-0.08-0.096-0.1248-0.224-0.1008-0.0592 0.0112-0.1088 0.0992-0.176 0.1008-0.0576 0-0.1008-0.0896-0.176-0.1008-0.056-8e-3 -0.1344 0.0592-0.1744 0.0496-0.0624-0.0112-0.0688-0.0864-0.1248-0.1248-0.0416-0.0272-0.128-0.1008-0.1504-0.0992-0.072 0-0.1248 0.1536-0.224 0.0992-0.0496-0.0624 0.0832-0.0656 0.024-0.1248-0.0432-0.0432-0.064 0.0016-0.0992 0.0256-0.0416 0.0272-0.08 0.0592-0.1248 0.0752-0.1008 0.0368-0.1728 0.0336-0.2512 0.0752-0.072 0.0368-0.0816 0.1008-0.1248 0.1744-0.032 0.0608-0.0992 0.1472-0.1488 0.1504-0.0624 0.0032-0.12-0.0768-0.176-0.1008-0.1664-0.072-0.2608 0.048-0.4 0.0496-0.128 0.0016-0.304-0.2032-0.2992-0.3248 0.0032-0.0736 0.0416-0.1824 0.048-0.2752 0.0096-0.072 0.0752-0.1328 0.0768-0.2 0-0.088-0.1424-0.1648-0.2-0.1744-0.0832-0.016-0.1792 0-0.2784 0.0096a6.4 6.4 0 0 1 0.608-1.8432c0.0064 0 0.016 8e-3 0.0208 0.0096 0.0464 0 0.056-0.0576 0.0992-0.0512 0.0432 8e-3 0.1184 0.0976 0.1248 0.1504 0.0064 0.064-0.0432 0.128-0.024 0.2 0.0672 0.0704 0.2016 0.1088 0.2992 0.1504 0.064-0.0528 0.0096-0.176 0-0.2496-0.0016-0.0336 0.0032-0.0704 0-0.1008-8e-3 -0.0528-0.0256-0.1056-0.0256-0.1504 0-0.208 0.16-0.2928 0.3008-0.3744 0.0592-0.0352 0.1232-0.0992 0.176-0.1248 0.0736-0.0368 0.112-0.04 0.1744-0.0752 0.1104-0.064 0.2144-0.128 0.2992-0.2 0.04-0.096-0.0032-0.208 0-0.3008 0.04-0.024 0.0576 0.0032 0.1008 0 0.0656-0.0144 0.0864-0.112 0.1248-0.1488 0.0208-0.0224 0.0976-0.0288 0.1248-0.0512 0.0672-0.0512 0.0672-0.1264 0.1248-0.1488 0.0208-8e-3 0.0672-0.016 0.0992-0.0256 0.0448-0.0112 0.1056-0.0512 0.176-0.0752 0.0448-0.016 0.1568-8e-3 0.176-0.024 0.0208-0.0224-8e-3 -0.1168 0-0.1504 0.0336-0.1648 0.2768-0.1696 0.424-0.224 0.1008-0.04 0.2112-0.1232 0.3248-0.1008-0.0224 0.0784-0.1184 0.0544-0.1008 0.1488 0.0256 0.1328 0.1792-0.032 0.2256-0.048 0.0896-0.0384 0.2592-0.0592 0.3744-0.1008 0.1024-0.0368 0.272-0.1072 0.176-0.2256-0.08-0.0048-0.1056 0.0704-0.176 0.1008-0.048 8e-3 -0.0592-0.0224-0.0992-0.0256-0.04-0.0016-0.0608 0.032-0.1008 0.0256-0.0384-8e-3 -0.0928-0.08-0.0992-0.1264-0.016-0.1216 0.1248-0.16 0.176-0.2496-0.0352-0.1104-0.1824-0.0064-0.2768-0.0496 0.0096-0.0656 0.048-0.1376 0.1264-0.1504a0.5024 0.5024 0 0 1 0.2496 0.0496c0.0208 0.0192-8e-3 0.0704 0.024 0.1008 0.0384 0.032 0.1008 8e-3 0.1504 0 0.0176-0.0832-0.1136-0.0464-0.0992-0.1008 0.0976-0.064 0.2784-0.032 0.4-0.048 0.0688-0.0112 0.1376-0.0672 0.2-0.1008 0.0576-0.0336 0.112-0.08 0.1744-0.0256 0.016 0.0592-0.0416 0.096-0.0752 0.1248-0.112 0.0992-0.2128 0.2096-0.2992 0.3248 0.0528 0.0528 0.1344 0.016 0.224 0.0256 0.0352 0.0048 0.0896 0.0192 0.1248 0.0256 0.0448 8e-3 0.0912-8e-3 0.1248 0 0.0624 0.0144 0.064 0.0992 0.1264 0.0992 0.0976 0 0.1056-0.0832 0.048-0.1504 0.0192-0.0688 0.0512-0.128 0.0256-0.176-0.0448-0.088-0.216 0.016-0.224-0.0992-0.0064-0.072 0.0736-0.0944 0.0992-0.1488-0.0112-0.1408 0.1152-0.1488 0.1008-0.2752-8e-3 -0.0528-0.064-0.0512-0.1008-0.1008-0.0192-0.0256-0.0288-0.08-0.0496-0.0992-0.0192-0.016-0.0448-0.0224-0.0688-0.032a6.4 6.4 0 0 1 1.1936-0.1184zm4.328 1.696a6.4 6.4 0 0 1 0.7216 0.7792c-0.0528 0-0.104 0.0256-0.1488 0.0256-0.064 0-0.1952-0.032-0.2752-0.0256-0.048 0.0032-0.08 0.0224-0.1248 0.0256-0.128 0.0096-0.2016-8e-3 -0.3008 0a1.0528 1.0528 0 0 0-0.2752 0.0736c-0.032 0.016-0.056 0.0544-0.0992 0.0752-0.0208 0.0096-0.048 0.0128-0.0752 0.0256-0.0416 0.0192-0.112 0.064-0.1504 0.0752-0.056 0.0144-0.1216-0.0048-0.224 0-0.0752 0.0032-0.2-0.0112-0.2016-0.1008 0-0.1344 0.248-0.0768 0.376-0.0992 0.048-0.0096 0.0672-0.0672 0.1248-0.1008 0.0272-0.016 0.048-0.032 0.0752-0.0496 0.0432-0.032 0.1168-0.0896 0.1248-0.1248 0.0048-0.032-0.0288-0.0768-0.0256-0.1008 0.0064-0.0304 0.0608-0.0608 0.1008-0.0992 0.0608-0.0608 0.0992-0.136 0.176-0.176 0.0496-0.0272 0.1504-0.0336 0.1744-0.0736 0.0064-0.048-0.0016-0.0592 0-0.1008l0.0272-0.0272zm-10.704 4.1664c0.04 0.056 0.0816 0.112 0.1264 0.1376 0.0032 0.048-0.016 0.0896 0 0.1248 0.0368 0.0512 0.112 0.0672 0.176 0.1008 0.072 0.04 0.104 0.1424 0.1728 0.1744 0.0256 0.0096 0.064-0.0112 0.1008 0 0.096 0.0288 0.1168 0.176 0.2 0.1504 0.0544-0.016 0.0656-0.0976 0.0752-0.1504 0.0368-0.0384 0.0672-0.0992 0.1248-0.0992 0.0896-0.0016 0.1168 0.112 0.1504 0.2 0.0176 0.048 0.0608 0.096 0.0752 0.1488a1.3136 1.3136 0 0 1 0 0.4c-0.024 0.0672-0.12 0.1024-0.176 0.176-0.0256 0.0336-0.0544 0.0768-0.0752 0.0992-0.0336 0.0432-0.0736 0.0608-0.0992 0.1008-0.016 0.0208-0.0112 0.0688-0.0256 0.0992-0.0432 0.0928-0.112 0.1632-0.0752 0.2752 0.016 0.0448 0.0752 0.096 0.0752 0.1504 0 0.064-0.1392 0.08-0.1488 0.1504-8e-3 0.0496 0.0576 0.1552 0.0736 0.224 0.0112 0.0512 0.096 0.0912 0.1248 0.1248 0.0512 0.0576 0.104 0.128 0.1504 0.2 0.0928 0.1408 0.136 0.312 0.224 0.4512 0.048 0.0704 0.144 0.1232 0.176 0.2 0.016 0.0368-0.0144 0.1152 0 0.1488 0.0528 0.1184 0.3072 0.2416 0.4256 0.3008 0.0544 0.0272 0.0992 0.0464 0.1504 0.0752 0.0768 0.0432 0.2352 0.1312 0.2736 0.2 0.0352 0.0608 0.0576 0.2016 0.0752 0.2992 0.0224 0.128-0.0064 0.2368 0 0.376 0.0032 0.0752 0.0256 0.1232 0.0256 0.2v0.0992c-0.0016 0.0896 8e-3 0.184 0 0.2752v0.112a6.4 6.4 0 0 1-2.3744-5.5248z" fill="#fff"/>
</svg>
