<svg width="64" height="64" version="1.1" xmlns="http://www.w3.org/2000/svg">
 <defs>
  <linearGradient id="a" x1="40" x2="40" y1="59" y2="15" gradientUnits="userSpaceOnUse">
   <stop offset="0"/>
   <stop stop-opacity="0" offset="1"/>
  </linearGradient>
 </defs>
 <rect x="5" y="5" width="54" height="54" rx="27" fill="#4d4d4d"/>
 <path d="m31.953 5a27 27 0 0 0-25.185 17.357h0.11379l5.7857-1.9286 3.8571 3.8571v-3.8571l3.8571-1.9286v-1.9286l3.8571-1.9286 3.8571-3.8571v1.9286l1.9286-1.9286-1.9286-1.9286h3.8571v1.9286l3.8571-1.9286-1.9286-1.9286v-1.8321a27 27 0 0 0-1.9286-0.096429zm20.009 8.9196-0.72322 0.72321v1.9286h2.8331a27 27 0 0 0-2.1099-2.6518zm2.538 3.2477-7.1184 7.1184-1.9286 5.7857v1.9286l3.8571 3.8571 3.8571 1.9286 5.3826-1.3269a27 27 0 0 0 0.40307-4.4589 27 27 0 0 0-4.4531-14.833zm-45.69 9.0469-1.9286 1.9286h-1.6161c-0.096428 0.65571-0.16971 1.3134-0.21793 1.9729v0.0039l3.7626 1.8804 1.9286 1.9286 3.8571 1.9286 1.9286 1.9286-1.9286 1.9286v3.8571l1.9286 3.8571 3.8571 3.8571v5.0702a27 27 0 0 0 11.571 2.644c0.32786-0.0058 0.65571-0.01736 0.98357-0.03472l0.945-1.8939v-1.9286l3.8571-1.9286 1.9286-1.9286v-3.8571l1.9286-1.9286v-1.9286l-1.9286-1.9286-5.7857-1.9286-3.8571-3.8571h-1.9286l-1.9286-1.9286-5.7857-1.9286-3.8571 1.9286h-3.8571v-3.8571h-1.9286v-3.8571z" fill="#fff" opacity=".75"/>
 <path d="m52.631 14.553a48 48 0 0 1 0.36914 5.4453l-45.205 0.001953h45.205a48 48 0 0 1-20.09 38.977c14.532-0.47813 26.09-12.324 26.09-26.977 0-6.6651-2.3947-12.747-6.3691-17.447z" fill="url(#a)" opacity=".15"/>
 <path d="m30 18v12h4v-12zm-2 0.59a14 14 0 0 0-10 13.41 14 14 0 0 0 14 14 14 14 0 0 0 14-14 14 14 0 0 0-10-13.402v2.106a12 12 0 0 1 8 11.296 12 12 0 0 1-12 12 12 12 0 0 1-12-12 12 12 0 0 1 8-11.3z" fill="#ffdc54" fill-rule="evenodd"/>
</svg>
