<svg xmlns="http://www.w3.org/2000/svg" width="64" height="64" viewBox="0 0 16.933 16.933"><rect width="14.287" height="10.583" x="1.323" y="3.175" fill="#666" paint-order="markers stroke fill" rx="1.587" ry="1.587"/><rect width="1.587" height="1.323" x="2.91" y="5.29" fill="#fff" paint-order="markers stroke fill" ry=".265"/><rect width="1.587" height="1.323" x="5.292" y="5.29" fill="#fff" paint-order="markers stroke fill" ry=".265"/><rect width="1.587" height="1.323" x="7.673" y="5.29" fill="#fff" paint-order="markers stroke fill" ry=".265"/><rect width="1.587" height="1.323" x="10.054" y="5.29" fill="#fff" paint-order="markers stroke fill" ry=".265"/><rect width="1.587" height="1.323" x="12.435" y="5.29" fill="#fff" paint-order="markers stroke fill" ry=".265"/><rect width="1.587" height="1.323" x="2.91" y="7.67" fill="#fff" paint-order="markers stroke fill" ry=".265"/><rect width="1.587" height="1.323" x="5.292" y="7.67" fill="#fff" paint-order="markers stroke fill" ry=".265"/><rect width="1.587" height="1.323" x="7.673" y="7.67" fill="#fff" paint-order="markers stroke fill" ry=".265"/><rect width="1.587" height="1.323" x="10.054" y="7.67" fill="#fff" paint-order="markers stroke fill" ry=".265"/><rect width="6.35" height="1.323" x="5.292" y="10.04" fill="#fff" paint-order="markers stroke fill" ry=".271"/><rect width="1.587" height="1.323" x="12.435" y="7.673" fill="#fff" paint-order="markers stroke fill" ry=".265"/><circle cx="13.229" cy="11.377" r="3.175" fill="#999"/><path fill="#fff" d="m12.753 9.472-.042.502a1.5 1.5 0 0 0-.438.253l-.456-.215-.476.825.414.287a1.5 1.5 0 0 0-.023.253 1.5 1.5 0 0 0 .022.254l-.413.286.476.825.455-.214a1.5 1.5 0 0 0 .439.25l.042.504h.952l.042-.502a1.5 1.5 0 0 0 .438-.253l.456.215.476-.825-.414-.288a1.5 1.5 0 0 0 .023-.252 1.5 1.5 0 0 0-.022-.254l.413-.286-.476-.825-.455.214a1.5 1.5 0 0 0-.439-.251l-.042-.503zm.476 1.27a.635.635 0 0 1 .635.635.635.635 0 0 1-.635.635.635.635 0 0 1-.635-.635.635.635 0 0 1 .635-.635"/></svg>