<svg xmlns="http://www.w3.org/2000/svg" width="64" height="64"><defs><linearGradient id="a" x1="14.679" x2="2.293" y1="293.79" y2="282.98" gradientTransform="matrix(3.7795 0 0 3.9436 0 -1105.9)" gradientUnits="userSpaceOnUse"><stop offset="0" stop-color="#66bcff"/><stop offset="1" stop-color="#b29aff"/></linearGradient></defs><rect width="55.999" height="48.001" x="4" y="8" fill="url(#a)" rx="5" ry="5"/><rect width="50" height="4" x="6.999" y="10" opacity=".35" rx="2" ry="2"/><rect width="3.999" height="1.999" x="8" y="11" opacity=".35" ry="1.002" style="paint-order:stroke markers fill"/><rect width="10.001" height="1.999" x="27.001" y="11" opacity=".35" ry="1.002" style="paint-order:stroke markers fill"/><rect width="1.999" height="1.999" x="53.999" y="11" opacity=".35" ry="1.002" style="paint-order:stroke markers fill"/><rect width="3.001" height="1.999" x="50" y="11" opacity=".35" ry="1.002" style="paint-order:stroke markers fill"/><rect width="1.999" height="1.999" x="46.999" y="11" opacity=".35" ry="1.002" style="paint-order:stroke markers fill"/><rect width="37.996" height="5" x="13.002" y="48.001" fill="#fff" opacity=".35" paint-order="markers stroke fill" rx="1" ry="1"/><g fill="#ccdfff" transform="translate(0 6.51) scale(3.7796)"><rect width="1.323" height="1.323" x="4.233" y="10.448" rx=".264" ry=".264" style="paint-order:stroke markers fill"/><rect width="1.323" height="1.323" x="6.614" y="10.448" rx=".264" ry=".264" style="paint-order:stroke markers fill"/><rect width="1.323" height="1.323" x="8.996" y="10.448" rx=".264" ry=".264" style="paint-order:stroke markers fill"/><rect width="1.323" height="1.323" x="11.376" y="10.448" rx=".264" ry=".264" style="paint-order:stroke markers fill"/></g><path fill="#fff" d="m24.929 23-.683 1.246-1.246.683 1.246.683.683 1.245.683-1.245 1.246-.683-1.246-.684zm5.143 0-.683 1.246-1.246.683 1.246.683.683 1.245.683-1.245L32 24.929l-1.245-.684zm7.27 0L23 37.341 26.66 41 41 26.659zm0 1.828 1.828 1.83-4.277 4.282-1.83-1.83zm-9.841 2.03-.684 1.245-1.245.683 1.245.683.684 1.245.683-1.245 1.245-.683-1.245-.683z"/></svg>