<svg width="64" height="64" version="1.1" xmlns="http://www.w3.org/2000/svg">
 <rect x="6" y="6" width="52" height="52" rx="8" ry="8" fill="#f2f2f2" style="paint-order:markers stroke fill"/>
 <path d="m31.376 15.22-10 8-0.376 0.78v11.52l-9.626 7.7 1.25 1.56 9.376-7.5 9.376 7.5 1.248-1.56-9.624-7.7v-11.04l9-7.2 9 7.2v11.52l0.376 0.78 10 8 1.25-1.56-9.626-7.7v-11.52l-0.376-0.78-10-8z" fill="#474f50"/>
 <rect x="26" y="9" width="12" height="12" rx="1.5" fill="#e16e7b"/>
 <rect x="16" y="23" width="12" height="12" rx="1.5" fill="#a779be"/>
 <rect x="36" y="23" width="12" height="12" rx="1.5" fill="#a779be"/>
 <g fill="#58b072">
  <rect x="42" y="42" width="12" height="12" rx="1.5"/>
  <rect x="26" y="42" width="12" height="12" rx="1.5"/>
  <rect x="10" y="42" width="12" height="12" rx="1.5"/>
 </g>
</svg>
