<svg width="64" height="64" version="1.1" xmlns="http://www.w3.org/2000/svg" xmlns:xlink="http://www.w3.org/1999/xlink">
 <defs>
  <linearGradient id="a" x1="13.229" x2="2.117" y1="297" y2="280.07" gradientTransform="matrix(1.0714 0 0 1 -.605 -280.07)" gradientUnits="userSpaceOnUse">
   <stop stop-color="#66bcff" offset="0"/>
   <stop stop-color="#b29aff" offset="1"/>
  </linearGradient>
 </defs>
 <linearGradient id="k" x1="15" x2="9" y1="9" y2="9" gradientTransform="matrix(2.6667 0 0 6 -6.6941 -25)" gradientUnits="userSpaceOnUse">
  <stop stop-color="#a1daff" offset="0"/>
  <stop stop-color="#abebf9" stop-opacity="0" offset="1"/>
 </linearGradient>
 <g transform="scale(3.7796)">
  <path d="m0.794 2.381h15.346c0.146 0 0.264 0.118 0.264 0.264v11.642a0.264 0.264 0 0 1-0.264 0.265h-15.346a0.264 0.264 0 0 1-0.265-0.265v-11.642c0-0.146 0.118-0.264 0.265-0.264z" fill="url(#a)" style="paint-order:stroke markers fill"/>
  <path d="m3.9692 13.504c-0.29307 0-0.52916 0.23609-0.52916 0.52916v0.53174h10.054v-0.53174c0-0.29307-0.23609-0.52916-0.52916-0.52916z" fill="#fff" opacity=".35" style="paint-order:stroke markers fill"/>
  <rect x="1.587" y="2.645" width="1.058" height=".529" ry=".265" opacity=".35" style="paint-order:stroke markers fill"/>
  <rect x="7.144" y="2.645" width="2.646" height=".529" ry=".265" opacity=".35" style="paint-order:stroke markers fill"/>
  <rect x="15.081" y="2.645" width=".529" height=".529" ry=".265" opacity=".35" style="paint-order:stroke markers fill"/>
  <rect x="14.023" y="2.645" width=".794" height=".529" ry=".265" opacity=".35" style="paint-order:stroke markers fill"/>
  <rect x="13.229" y="2.645" width=".529" height=".529" ry=".265" opacity=".35" style="paint-order:stroke markers fill"/>
  <g fill="#ccdfff">
   <rect x="4.498" y="12.7" width="1.323" height="1.323" ry=".132" style="paint-order:stroke markers fill"/>
   <rect x="6.703" y="12.7" width="1.323" height="1.323" ry=".132" style="paint-order:stroke markers fill"/>
   <rect x="8.908" y="12.7" width="1.323" height="1.323" ry=".132" style="paint-order:stroke markers fill"/>
   <rect x="11.113" y="12.7" width="1.323" height="1.323" ry=".132" style="paint-order:stroke markers fill"/>
  </g>
  <path d="m0.794 2.381a0.264 0.264 0 0 0-0.265 0.265v0.793h15.875v-0.793a0.264 0.264 0 0 0-0.264-0.265z" opacity=".35" style="paint-order:stroke markers fill"/>
 </g>
 <path d="m17.306 23h16v6h-16z" fill="url(#k)" fill-rule="evenodd"/>
 <path d="m33.628 41 8.2367-0.05272 0.93219-9.3232c0.19544-1.8901-2.1473-2.677-2.7966-0.93219 0.0077-2.0958-2.1473-2.3581-2.7979-0.93348 0.08229-1.7307-2.1177-2.4006-2.7966-0.93219v-3.7288c0-2.7966-2.7966-2.7966-2.7966 0v8.391c-4.6622-4.6622-5.8053-1.3115-5.8053-1.3115 3.1682 2.1383 5.1045 8.841 7.824 8.823z" fill="#fff"/>
</svg>
