<svg width="64" height="64" version="1.1" xmlns="http://www.w3.org/2000/svg">
 <path d="m62 17.998-59.996 0.0038v31.154c0.082334 3.2512 2.7244 5.8438 5.9961 5.8438h48c3.324 0 6-2.676 6-6z" fill="#ececec" stroke-width="3.7796"/>
 <path d="m8 9c-3.324 0-6 2.676-6 6v2.9981h60v-2.9981c0-3.324-2.676-6-6-6z" fill="#666666" stroke-width="3.7796"/>
 <rect x="53.502" y="12" width="3.001" height="3.001" ry="1.5005" opacity=".35" stroke-width="3.7796" paint-order="stroke markers fill"/>
 <rect x="47.5" y="12" width="3.001" height="3.001" ry="1.5005" opacity=".35" stroke-width="3.7796" paint-order="stroke markers fill"/>
 <rect x="41.501" y="12" width="3.001" height="3.001" ry="1.5005" opacity=".35" stroke-width="3.7796" paint-order="stroke markers fill"/>
 <path d="m7 22v2h40v-2zm0 6v2h14v-2zm28 0v24h24v-24zm2 2h20v20h-20v-2zm0 18h4l4-4-2-2zm20 0-6-6-6 6zm-15-16c-1.662 0-3 1.338-3 3s1.338 3 3 3 3-1.338 3-3-1.338-3-3-3zm-35 2v2h24v-2zm0 6v2h18v-2zm0 6v2h24v-2z" color="#000000" fill="#cccccc" stroke-width="2"/>
 <path d="m47 28c-6.6274 0-12 5.3726-12 12s5.3726 12 12 12 12-5.3726 12-12-5.3726-12-12-12zm0 2c5.5228 0 10 4.4772 10 10 0 2.4102-0.88842 4.5897-2.3086 6.3164l-14.008-14.008c1.7267-1.4202 3.9062-2.3086 6.3164-2.3086zm-7.6914 3.6836 14.008 14.008c-1.7267 1.4202-3.9062 2.3086-6.3164 2.3086-5.5228 0-10-4.4772-10-10 0-2.4102 0.88844-4.5897 2.3086-6.3164z" color="#000000" fill="#ff8080" stroke-width="2"/>
</svg>
