<svg width="64" height="64" version="1.1" viewBox="0 0 16.933 16.933" xmlns="http://www.w3.org/2000/svg">
 <defs>
  <linearGradient id="linearGradient9555" x1="14.679" x2="2.2933" y1="293.79" y2="282.98" gradientTransform="matrix(.99998 0 0 1.0434 -.0002301 -292.59)" gradientUnits="userSpaceOnUse">
   <stop stop-color="#66bcff" offset="0"/>
   <stop stop-color="#b29aff" offset="1"/>
  </linearGradient>
 </defs>
 <rect x="1.0583" y="2.1166" width="14.816" height="12.7" rx="1.3229" ry="1.3229" fill="url(#linearGradient9555)" stroke-width=".98684"/>
 <rect x="1.8518" y="2.6458" width="13.229" height="1.0583" rx=".52915" ry=".52915" fill="#000000" opacity=".35" stop-color="#000000" stroke-width="0"/>
 <rect x="2.1166" y="2.9104" width="1.058" height=".529" ry=".265" opacity=".35" style="paint-order:stroke markers fill"/>
 <rect x="7.144" y="2.9104" width="2.646" height=".529" ry=".265" opacity=".35" style="paint-order:stroke markers fill"/>
 <rect x="14.287" y="2.9104" width=".529" height=".529" ry=".265" opacity=".35" style="paint-order:stroke markers fill"/>
 <rect x="13.229" y="2.9104" width=".794" height=".529" ry=".265" opacity=".35" style="paint-order:stroke markers fill"/>
 <rect x="12.435" y="2.9104" width=".529" height=".529" ry=".265" opacity=".35" style="paint-order:stroke markers fill"/>
 <rect x="3.44" y="12.7" width="10.053" height="1.323" rx=".26458" ry=".26458" fill="#ffffff" opacity=".35" paint-order="markers stroke fill"/>
 <g transform="translate(0,1.7225)" fill="#ccdfff">
  <rect x="4.2333" y="10.448" width="1.323" height="1.323" rx=".26433" ry=".26433" style="paint-order:stroke markers fill"/>
  <rect x="6.6145" y="10.448" width="1.323" height="1.323" rx=".26433" ry=".26433" style="paint-order:stroke markers fill"/>
  <rect x="8.9956" y="10.448" width="1.323" height="1.323" rx=".26433" ry=".26433" style="paint-order:stroke markers fill"/>
  <rect x="11.376" y="10.448" width="1.323" height="1.323" rx=".26433" ry=".26433" style="paint-order:stroke markers fill"/>
 </g>
 <path d="m8.467 5.972c-0.782 0-1.411 0.629-1.411 1.41v0.53h0.504v-0.53c0-0.488 0.418-0.906 0.907-0.906 0.488 0 0.907 0.418 0.907 0.907v0.529h0.504v-0.53c0-0.781-0.63-1.41-1.411-1.41z" fill="#fff"/>
 <rect transform="matrix(0,-1,-1,0,0,0)" x="-11.112" y="-10.583" width="3.225" height="4.233" rx=".266" ry=".269" fill="#fff"/>
</svg>
