<svg xmlns="http://www.w3.org/2000/svg" width="64" height="64"><linearGradient id="b" x1="16" x2="16" y1="18" y2="6" gradientTransform="translate(44.967 1009.3)" gradientUnits="userSpaceOnUse"><stop offset="0" stop-color="#f0f0f0"/><stop offset="1" stop-color="#fcfcfc"/></linearGradient><linearGradient id="a" x1="19.514" x2="15" y1="15.555" y2="11" gradientTransform="translate(44.967 1009.3)" gradientUnits="userSpaceOnUse"><stop offset="0" stop-color="#f3f3f3"/><stop offset="1" stop-color="#fcfcfc" stop-opacity="0"/></linearGradient><path fill="#c4c7cc" d="M25.9 43.834c-.52 0-.9.378-.9.834v10.955L20.922 56H20.9c-.52 0-.9.378-.9.834V58h24v-1.166c0-.456-.381-.834-.9-.834h-.024L39 55.623V44.668c0-.456-.38-.834-.9-.834z"/><rect width="60" height="40" x="2" y="6" fill="#2f3337" rx="6" ry="6"/><rect width="54" height="34" x="5" y="9" fill="#5294e2" rx="3" ry="3"/><g stroke-width=".5"><path fill="url(#a)" d="M60.967 1015.3a6 6 0 0 0-6 6 6 6 0 0 0 6 6 6 6 0 0 0 6-6 6 6 0 0 0-6-6m0 1a5 5 0 0 1 5 5 5 5 0 0 1-5 5 5 5 0 0 1-5-5 5 5 0 0 1 5-5" transform="matrix(2 0 0 2 -89.934 -2016.7)"/><path fill="url(#b)" d="M60.967 1015.3a6 6 0 0 0-6 6 6 6 0 0 0 6 6 6 6 0 0 0 4.215-1.736l-.701-.71a5 5 0 0 1-3.514 1.446 5 5 0 0 1-5-5 5 5 0 0 1 5-5z" transform="matrix(2 0 0 2 -89.934 -2016.7)"/></g></svg>