<svg xmlns="http://www.w3.org/2000/svg" width="64" height="64"><defs><linearGradient id="a" x1="14.679" x2="2.293" y1="293.79" y2="282.98" gradientTransform="matrix(3.7795 0 0 3.9436 0 -1105.9)" gradientUnits="userSpaceOnUse"><stop offset="0" stop-color="#66bcff"/><stop offset="1" stop-color="#b29aff"/></linearGradient></defs><linearGradient id="b" x1="15" x2="9" y1="9" y2="9" gradientTransform="matrix(2.6667 0 0 6 -6.694 -25)" gradientUnits="userSpaceOnUse"><stop offset="0" stop-color="#a1daff"/><stop offset="1" stop-color="#abebf9" stop-opacity="0"/></linearGradient><rect width="55.999" height="48.001" x="4" y="8" fill="url(#a)" rx="5" ry="5"/><rect width="50" height="4" x="6.999" y="10" opacity=".35" rx="2" ry="2"/><rect width="3.999" height="1.999" x="8" y="11" opacity=".35" ry="1.002" style="paint-order:stroke markers fill"/><rect width="10.001" height="1.999" x="27.001" y="11" opacity=".35" ry="1.002" style="paint-order:stroke markers fill"/><rect width="1.999" height="1.999" x="53.999" y="11" opacity=".35" ry="1.002" style="paint-order:stroke markers fill"/><rect width="3.001" height="1.999" x="50" y="11" opacity=".35" ry="1.002" style="paint-order:stroke markers fill"/><rect width="1.999" height="1.999" x="46.999" y="11" opacity=".35" ry="1.002" style="paint-order:stroke markers fill"/><rect width="37.996" height="5" x="13.002" y="48.001" fill="#fff" opacity=".35" paint-order="markers stroke fill" rx="1" ry="1"/><g fill="#ccdfff" transform="translate(0 6.51)scale(3.7796)"><rect width="1.323" height="1.323" x="4.233" y="10.448" rx=".264" ry=".264" style="paint-order:stroke markers fill"/><rect width="1.323" height="1.323" x="6.614" y="10.448" rx=".264" ry=".264" style="paint-order:stroke markers fill"/><rect width="1.323" height="1.323" x="8.996" y="10.448" rx=".264" ry=".264" style="paint-order:stroke markers fill"/><rect width="1.323" height="1.323" x="11.376" y="10.448" rx=".264" ry=".264" style="paint-order:stroke markers fill"/></g><path fill="url(#b)" fill-rule="evenodd" d="M17.306 23h16v6h-16z"/><path fill="#fff" d="m33.628 41 8.237-.053.932-9.323c.195-1.89-2.147-2.677-2.797-.932.008-2.096-2.147-2.358-2.798-.934.083-1.73-2.117-2.4-2.796-.932v-3.729c0-2.796-2.797-2.796-2.797 0v8.391c-4.662-4.662-5.805-1.311-5.805-1.311 3.168 2.138 5.104 8.84 7.824 8.823"/></svg>