<svg width="64" height="64" version="1.1" viewBox="0 0 16.934 16.934" xmlns="http://www.w3.org/2000/svg">
 <circle cx="8.467" cy="8.467" r="7.144" fill="#2d3135" stroke-width=".26459" style="paint-order:markers stroke fill"/>
 <g fill="#fff" stroke-width=".26459">
  <path d="m4.559 4.7627c-0.18019 0-0.32545 0.15002-0.32545 0.33656v5.9417c0 0.18654 0.14526 0.33603 0.32545 0.33656h1.2621l0.69191 0.79378h3.908l0.69191-0.79378h1.2621c0.18019 0 0.32545-0.15002 0.32545-0.33656v-5.9417c0-0.18654-0.14526-0.33656-0.32545-0.33656zm0.73292 1.0584h6.3503v4.4981h-1.0584l-0.79378 0.79378h-2.6459l-0.52919-0.79378h-1.323z" style="paint-order:markers stroke fill"/>
  <path d="m7.144 11.113-0.52919-0.79378h-1.323v-4.4981h6.3503v4.4981h-1.0584l-0.79378 0.79378z" opacity=".35"/>
  <path d="m6.0857 6.6148h0.79378v-0.79378h-0.79378zm1.323 0h0.79378v-0.79378h-0.79378zm1.323 0h0.79378v-0.79378h-0.79378zm1.323 0h0.79378v-0.79378h-0.79378z" opacity=".5"/>
 </g>
</svg>
