<svg xmlns="http://www.w3.org/2000/svg" width="64" height="64"><rect width="52" height="52" x="6" y="6" fill="#f4f2f8" fill-rule="evenodd" rx="8" ry="8" style="paint-order:stroke fill markers"/><path fill="#6d4aff" d="m13.76 22.124 13.38 23.832.286.36c.565.516 1.507.423 2.023-.21l1.383-1.96 10.152-15.688c.498-.732.5-1.594.133-2.259l-.005-.007c-.314-.563-.89-.984-1.665-1.053l-25.534-2.864z"/><path fill="#21ffff" d="M50.624 21.65q.046.075.089.15c-.016-.029-.027-.06-.044-.088q-.021-.033-.045-.063zm.126.227L41.117 26.2c.366.664.365 1.526-.133 2.258L30.832 44.147l-1.384 1.96c-.615.754-1.846.754-2.307-.151l1.384 2.414c.307.452.616.754.923 1.056 1.692 1.358 4.46 1.206 5.844-.905L50.52 25.744c.86-1.228.838-2.687.23-3.867" opacity=".5"/><path fill="#917bff" d="M17.01 16.377c-2.91.126-4.837 3.2-3.251 5.745l.153.153 25.534 2.864c.78.07 1.358.494 1.67 1.06l9.64-4.325a4.01 4.01 0 0 0-3.16-2.165L17.605 16.39a4 4 0 0 0-.595-.014z" opacity=".5"/></svg>