<?xml version="1.0" encoding="UTF-8"?>
<svg width="64" height="64" version="1.1" xml:space="preserve" xmlns="http://www.w3.org/2000/svg"><rect x="6" y="6" width="52" height="52" rx="8" ry="8" fill="#f0f0f0" fill-rule="evenodd" style="paint-order:stroke fill markers"/><g transform="matrix(.57143 0 0 .57142 18.286 20.171)"><path d="m50.217-3.7936c-0.29172 0.027499-0.58074 0.14494-0.83008 0.37109l-25.387 21.623-25.387-21.623c-1.0407-0.88893-2.6133-0.089892-2.6133 1.2676v41.355c0 2.8034 3.004 6 5.8008 6h44.363c3.2236 0 5.8359-2.5814 5.8359-6v-41.355c0-0.99733-0.90804-1.7212-1.7832-1.6387z" fill="#b7a4f1"/><path d="m40.8 3.8917-20.7 17.633c-1.9 1.6886-4.1539 1.6312-6.0996 0l-18-15.324v33c0 2.8026 2.9983 6 5.8008 6h38.999z" fill="#6841df"/></g></svg>
