<svg xmlns="http://www.w3.org/2000/svg" width="64" height="64"><rect width="52" height="52" x="6" y="6" fill="#ececec" fill-rule="evenodd" rx="8" ry="8" style="paint-order:stroke fill markers"/><path fill="#41424e" d="M21.435 16.739v2.348a2.34 2.34 0 0 1 2.347 2.348v8.217h-2.347V32a2.34 2.34 0 0 1 2.347 2.347v1.174h3.522l-3.522 3.522v3.522a2.34 2.34 0 0 1-2.347 2.348v2.347h11.739v-2.347a2.34 2.34 0 0 1-2.348-2.348V35.52h3.522c5.2 0 9.39-4.19 9.39-9.39s-4.19-9.392-9.39-9.392zm9.39 5.87h2.349c1.948 0 3.521 1.573 3.521 3.521s-1.573 3.522-3.521 3.522h-2.348zm7.044 14.086v3.522h-3.522v3.522h3.522v3.521h3.522v-3.52h3.522v-3.522H41.39v-3.522z"/></svg>