<svg xmlns="http://www.w3.org/2000/svg" width="64" height="64"><rect width="52" height="52" x="6" y="6" fill="#41474e" fill-rule="evenodd" rx="8" ry="8" style="paint-order:stroke fill markers"/><g fill="#3b82d8"><path d="M32 26.13A5.87 5.87 0 0 0 26.13 32 5.87 5.87 0 0 0 32 37.87 5.87 5.87 0 0 0 37.87 32 5.87 5.87 0 0 0 32 26.13m-1.174 2.348h2.348v2.348h2.347v2.348h-2.347v2.347h-2.348v-2.347h-2.348v-2.348h2.348z"/><path d="M23.782 20.26c-1.854 0-3.85.453-5.435 1.41-1.585.951-2.782 2.476-2.782 4.46 0 4.45 3.804 8.793 8.71 12.091s10.988 5.53 15.965 5.53c1.855 0 3.85-.453 5.436-1.41 1.584-.951 2.782-2.476 2.782-4.46 0-4.45-3.804-8.793-8.71-12.091s-10.988-5.53-15.966-5.53m0 1.175c4.602 0 10.554 2.16 15.261 5.33 4.743 3.169 8.194 7.336 8.194 11.104 0 1.538-.862 2.653-2.207 3.463-1.35.809-3.17 1.233-4.836 1.233-4.602 0-10.554-2.16-15.261-5.33-4.743-3.17-8.194-7.337-8.194-11.105 0-1.538.862-2.653 2.207-3.463 1.35-.809 3.17-1.232 4.836-1.232"/><path d="M23.782 43.739c-1.854 0-3.85-.452-5.435-1.409-1.585-.952-2.782-2.477-2.782-4.46 0-4.45 3.804-8.793 8.71-12.092s10.988-5.529 15.965-5.529c1.855 0 3.85.452 5.436 1.409 1.584.952 2.782 2.477 2.782 4.46 0 4.45-3.804 8.793-8.71 12.092s-10.988 5.529-15.966 5.529m0-1.174c4.602 0 10.554-2.16 15.261-5.33 4.743-3.17 8.194-7.337 8.194-11.105 0-1.538-.862-2.653-2.207-3.463-1.35-.809-3.17-1.232-4.836-1.232-4.602 0-10.554 2.16-15.261 5.33-4.743 3.169-8.194 7.336-8.194 11.104 0 1.538.862 2.653 2.207 3.463 1.35.809 3.17 1.233 4.836 1.233"/><path d="M32 14.391A9.391 17.609 0 0 0 22.609 32a9.391 17.609 0 0 0 9.39 17.608A9.391 17.609 0 0 0 41.392 32 9.391 17.609 0 0 0 32 14.39m0 1.174A8.217 16.435 0 0 1 40.217 32 8.217 16.435 0 0 1 32 48.434 8.217 16.435 0 0 1 23.782 32 8.217 16.435 0 0 1 32 15.565"/></g></svg>