<svg width="64" height="64" version="1.1" xmlns="http://www.w3.org/2000/svg">
 <defs>
  <radialGradient id="paint0_radial_2219_330" cx="0" cy="0" r="1" gradientTransform="matrix(15.862 -25.524 39.915 24.804 24.865 50.702)" gradientUnits="userSpaceOnUse">
   <stop stop-color="#FFD580" offset="0"/>
   <stop stop-color="#F6C592" offset=".09375"/>
   <stop stop-color="#EBB6A2" offset=".205"/>
   <stop stop-color="#DFA5AF" offset=".32447"/>
   <stop stop-color="#D397BE" offset=".42875"/>
   <stop stop-color="#C486CB" offset=".53375"/>
   <stop stop-color="#B578D9" offset=".64875"/>
   <stop stop-color="#A166E5" offset=".77125"/>
   <stop stop-color="#8B57F2" offset=".89125"/>
   <stop stop-color="#704CFF" offset="1"/>
  </radialGradient>
 </defs>
 <rect x="6" y="6" width="52" height="52" rx="8" ry="8" fill="#f4f2f8" fill-rule="evenodd" style="paint-order:stroke fill markers"/>
 <path d="m24.826 18.548c2.5113-2.5113 3.767-3.767 5.2149-4.2374 1.2736-0.41383 2.6456-0.41383 3.9192 1e-6 1.448 0.47046 2.7036 1.7261 5.2149 4.2374l6.2777 6.2777c2.5113 2.5113 3.767 3.767 4.2374 5.2149 0.4139 1.2736 0.4139 2.6456 0 3.9192-0.4704 1.4479-1.7261 2.7036-4.2374 5.2149l-6.2777 6.2777c-2.5113 2.5113-3.7669 3.767-5.2149 4.2374-1.2736 0.4139-2.6456 0.4139-3.9192 0-1.4479-0.4704-2.7036-1.7261-5.2149-4.2374l-1.1803-1.3232c-0.71423-0.8007-1.0713-1.2011-1.326-1.6565-0.22583-0.4038-0.39151-0.8385-0.49181-1.2902-0.11309-0.5093-0.11309-1.0457-0.11309-2.1187l-1e-5 -14.127c-1e-5 -1.0729-1e-5 -1.6094 0.11309-2.1187 0.1003-0.45171 0.26598-0.88636 0.49181-1.2902 0.25462-0.45535 0.61174-0.85571 1.326-1.6564z" fill="url(#paint0_radial_2219_330)"/>
 <path d="m24.826 18.548c2.5113-2.5113 3.767-3.767 5.2149-4.2374 1.2736-0.41383 2.6456-0.41383 3.9192 1e-6 1.448 0.47046 2.7036 1.7261 5.2149 4.2374l6.2777 6.2777c2.5113 2.5113 3.767 3.767 4.2374 5.2149 0.4139 1.2736 0.4139 2.6456 0 3.9192-0.4704 1.4479-1.7261 2.7036-4.2374 5.2149l-6.2777 6.2777c-2.5113 2.5113-3.7669 3.767-5.2149 4.2374-1.2736 0.4139-2.6456 0.4139-3.9192 0-1.4479-0.4704-2.7036-1.7261-5.2149-4.2374l-1.1803-1.3232c-0.71423-0.8007-1.0713-1.2011-1.326-1.6565-0.22583-0.4038-0.39151-0.8385-0.49181-1.2902-0.11309-0.5093-0.11309-1.0457-0.11309-2.1187l-1e-5 -14.127c-1e-5 -1.0729-1e-5 -1.6094 0.11309-2.1187 0.1003-0.45171 0.26598-0.88636 0.49181-1.2902 0.25462-0.45535 0.61174-0.85571 1.326-1.6564z" fill="#dec2e4"/>
 <path d="m24.377 18.996c1.2556-1.2557 1.8835-1.8835 2.6074-2.1187 0.6369-0.20691 1.3228-0.20691 1.9596 0 0.724 0.23524 1.3518 0.86306 2.6075 2.1187l9.4165 9.4166c1.2557 1.2556 1.8835 1.8835 2.1188 2.6074 0.2069 0.6368 0.2069 1.3228 0 1.9596-0.2353 0.724-0.8631 1.3518-2.1188 2.6075l-9.4165 9.4165c-1.2557 1.2557-1.8835 1.8835-2.6075 2.1187-0.6368 0.2069-1.3227 0.2069-1.9596 0-0.7239-0.2352-1.3518-0.863-2.6074-2.1187l-5.8293-5.8293c-2.5113-2.5113-3.767-3.7669-4.2374-5.2149-0.41383-1.2736-0.41383-2.6455 1e-6 -3.9192 0.47046-1.4479 1.7261-2.7036 4.2374-5.2149z" fill="#c486cb"/>
 <path d="m32 14c-0.6614 0-1.3222 0.10363-1.959 0.31055-1.4479 0.47046-2.7035 1.725-5.2148 4.2363l-1.1816 1.3242c-0.71423 0.80073-1.0716 1.2009-1.3262 1.6562-0.22583 0.40386-0.38993 0.8393-0.49023 1.291-0.1131 0.5093-0.11329 1.0442-0.11328 2.1172v7.0645h28.285c0-0.6614-0.1036-1.3222-0.31055-1.959-0.4704-1.4479-1.725-2.7035-4.2363-5.2148l-6.2793-6.2793c-2.5113-2.5113-3.7668-3.7659-5.2148-4.2363-0.6368-0.20692-1.2976-0.31055-1.959-0.31055z" fill="#a188fc"/>
 <path d="m27.965 16.723c-0.33069 0-0.66202 0.050842-0.98047 0.1543-0.7239 0.23523-1.3518 0.86348-2.6074 2.1191l-5.8301 5.8281c-2.5113 2.5113-3.7659 3.7669-4.2363 5.2148-0.20695 0.63697-0.31058 1.2994-0.31055 1.9609h29.242c4.1e-5 -0.33083-0.052759-0.66194-0.15625-0.98047-0.2353-0.7239-0.86149-1.3518-2.1172-2.6074l-9.418-9.416c-1.2557-1.2557-1.8834-1.8839-2.6074-2.1191-0.3184-0.10346-0.64783-0.1543-0.97852-0.1543z" fill="#704cff"/>
</svg>
