<svg width="64" height="64" version="1.1" viewBox="0 0 64 64" xmlns="http://www.w3.org/2000/svg">
 <rect x="6" y="6" width="52" height="52" rx="8" ry="8" fill="#43435e" fill-rule="evenodd" stroke-linecap="round" stroke-linejoin="round" stroke-width="2.1437" style="paint-order:stroke fill markers"/>
 <path d="m32 15.565c-5.8531 0-10.565 4.7121-10.565 10.565v6.4565l10.565 7.6304 10.565-7.6304v-6.4565c0-5.8531-4.7121-10.565-10.565-10.565zm0 4.6957c3.2517 0 5.8696 2.6178 5.8696 5.8696v3.5217h-11.739v-3.5217c0-3.2517 2.6178-5.8696 5.8696-5.8696zm-10.565 15.261v9.3913c0 0.65035 0.52356 1.1739 1.1739 1.1739h18.783c0.65035 0 1.1739-0.52356 1.1739-1.1739v-9.3913l-9.5862 6.8234c-0.19978 0.14345-0.43962 0.22011-0.68554 0.22011h-0.58696c-0.24594 0-0.48578-0.07666-0.68554-0.22011z" fill="#d4d4e8" stroke-width="1.1739" style="paint-order:normal"/>
</svg>
