<svg xmlns="http://www.w3.org/2000/svg" width="64" height="64" viewBox="0 0 16.933 16.933"><g transform="translate(0 -280.07)"><rect width="13.229" height="13.229" x="1.852" y="281.92" fill="#b3b3b3" stroke-width=".962" paint-order="markers stroke fill" rx="2.035" ry="2.035" transform="matrix(1.04 0 0 1.04 -.339 -11.541)"/><path d="M8.467 283.506a1.32 1.32 0 0 0-1.323 1.323v3.798a2.646 2.646 0 0 0-1.323 2.288 2.646 2.646 0 0 0 2.646 2.645 2.646 2.646 0 0 0 2.645-2.645 2.646 2.646 0 0 0-1.322-2.29v-3.796a1.32 1.32 0 0 0-1.323-1.323zm0 .794c.307 0 .529.222.529.53v4.254l.397.23c.573.33.925.939.926 1.601a1.84 1.84 0 0 1-1.852 1.852 1.84 1.84 0 0 1-1.852-1.851c0-.663.353-1.27.926-1.601l.396-.23v-4.256c0-.307.223-.529.53-.529z" opacity=".5"/><path fill="#f55" d="M7.937 286.681v2.405l-.396.229c-.573.33-.925.938-.926 1.6a1.84 1.84 0 0 0 1.852 1.852 1.84 1.84 0 0 0 1.852-1.852 1.85 1.85 0 0 0-.926-1.602l-.397-.229v-2.403z"/><path d="M11.377 284.04h2.117v.529h-2.117zm0 1.059h2.117v.529h-2.117zm0 1.058h2.117v.529h-2.117zm0 1.058h2.117v.529h-2.117zm0 1.059h2.117v.529h-2.117z" opacity=".5" paint-order="stroke fill markers"/><circle cx="3.704" cy="283.77" r=".529" opacity=".5" paint-order="stroke fill markers"/><circle cx="3.704" cy="283.77" r=".265" fill="#f55" paint-order="stroke fill markers"/></g></svg>