<svg xmlns="http://www.w3.org/2000/svg" xmlns:xlink="http://www.w3.org/1999/xlink" width="64" height="64" viewBox="0 0 16.933 16.933"><defs><linearGradient id="a"><stop offset="0"/><stop offset="1" stop-opacity="0"/></linearGradient><linearGradient gradientTransform="matrix(.26458 0 0 .26458 0 280.067)" xlink:href="#a" id="b" x1="46.168" y1="57" x2="46.168" y2="27.346" gradientUnits="userSpaceOnUse"/></defs><g transform="translate(0 -280.067)"><g transform="matrix(1.04 0 0 1.04 -.339 -11.541)" stroke-width=".962" paint-order="markers stroke fill"><rect ry=".794" rx=".794" y="281.919" x="1.852" height="13.229" width="13.229" fill="#b3b3b3"/><path d="M15.081 287.302a11.906 11.906 0 0 1-5.732 7.846h4.938c.44 0 .794-.354.794-.794z" opacity=".25" fill="url(#b)"/></g><path d="M8.467 283.506a1.32 1.32 0 0 0-1.323 1.323v3.798a2.646 2.646 0 0 0-1.323 2.288 2.646 2.646 0 0 0 2.646 2.645 2.646 2.646 0 0 0 2.645-2.645 2.646 2.646 0 0 0-1.322-2.29v-3.796a1.32 1.32 0 0 0-1.323-1.323zm0 .794c.307 0 .529.222.529.53v4.254l.397.23c.573.33.925.939.926 1.601a1.84 1.84 0 0 1-1.852 1.852 1.84 1.84 0 0 1-1.852-1.851c0-.663.353-1.27.926-1.601l.396-.23v-4.256c0-.307.223-.529.53-.529z" opacity=".5"/><path d="M7.937 286.681v2.405l-.396.229c-.573.33-.925.938-.926 1.6a1.84 1.84 0 0 0 1.852 1.852 1.84 1.84 0 0 0 1.852-1.852 1.85 1.85 0 0 0-.926-1.602l-.397-.229v-2.403z" fill="#f55"/><path opacity=".5" paint-order="stroke fill markers" d="M11.377 284.035h2.117v.529h-2.117zM11.377 285.094h2.117v.529h-2.117zM11.377 286.152h2.117v.529h-2.117zM11.377 287.21h2.117v.529h-2.117zM11.377 288.269h2.117v.529h-2.117z"/><circle r=".529" cy="283.771" cx="3.704" opacity=".5" paint-order="stroke fill markers"/><circle cx="3.704" cy="283.771" r=".265" fill="#f55" paint-order="stroke fill markers"/></g></svg>