<svg width="64" height="64" version="1.1" xmlns="http://www.w3.org/2000/svg">
 <g transform="matrix(.89997 0 0 .89997 3.183 3.1614)" fill="#4e7aa2" stroke-width="1.5715">
  <circle cx="32.02" cy="32.044" r="30.001"/>
  <circle cx="32.02" cy="32.044" r="30.001"/>
  <circle cx="32.02" cy="32.044" r="0"/>
 </g>
 <path d="m29.938 21c-2.42 0.0014-4.8125 2.1065-4.8125 5.5h-1.375c-1.5194 0-2.75 1.5386-2.75 3.4375v2.0625h-2.0625c-2.6579 0-4.8125 2.1546-4.8125 4.8125s1.8164 4.8125 4.125 4.8125c1.375 0 2.3966-0.70675 2.75-1.375 1.0175 1.375 3.6204 2.75 5.5 2.75 2.0254 0 4.1937-1.2017 5.5-2.75 1.0395 1.5359 2.409 2.75 4.125 2.75 2.2674 0 4.125-0.80575 5.5-2.75 1.0065 0.90337 1.397 1.3736 2.75 1.375 3.0374 0.0014 5.5-2.4626 5.5-5.5s-2.4626-5.5014-5.5-5.5c-0.98175 0-2.0804 0.62975-2.75 1.375 0-3.5186-1.9113-5.5-5.5-5.5h-1.375c0-4.125-2.4736-5.5014-4.8125-5.5zm0.6875 6.875h5.5v1.375l-4.125 1.375c-0.0014 2.013-0.0041 4.3134 0 5.1838 0.0055 1.2911-1.1289 2.5108-2.7184 2.9233-1.8562 0.48262-3.6809-0.29425-4.0782-1.7339-0.39738-1.441 0.78237-3.0002 2.64-3.4801 0.97212-0.253 1.9869-0.16363 2.7816 0.24062z" fill="#ffffff" stroke-width="1.375"/>
</svg>
