<svg xmlns="http://www.w3.org/2000/svg" width="64" height="64"><g stroke-width="1.174"><path fill="#2ec27e" d="M23.783 17.913a5.857 5.857 0 0 0-5.87 5.87V37.87a5.857 5.857 0 0 0 5.87 5.87h10.565l5.87 4.695v-4.696a5.857 5.857 0 0 0 5.87-5.87V23.784a5.857 5.857 0 0 0-5.87-5.87z" style="paint-order:normal" transform="translate(-27.063 -27.062) scale(1.8457)"/><path fill="#f9f9f9" d="M29.065 24.957a1.76 1.76 0 1 0 0 3.522 1.76 1.76 0 0 0 0-3.522zm5.87 0a1.76 1.76 0 1 0 0 3.522 1.76 1.76 0 0 0 0-3.522zm-8.805 5.87a5.87 5.87 0 0 0 11.74 0h-2.348a3.522 3.522 0 1 1-7.044 0z" style="paint-order:normal" transform="translate(-27.063 -27.062) scale(1.8457)"/></g></svg>