<svg width="64" height="64" version="1.1" viewBox="0 0 64 64" xmlns="http://www.w3.org/2000/svg">
 <g transform="matrix(1.8457 0 0 1.8457 -27.063 -27.062)" stroke-width="1.1739">
  <path d="m23.783 17.913c-3.2517 0-5.8696 2.6178-5.8696 5.8696v14.087c0 3.2517 2.6178 5.8696 5.8696 5.8696h10.565l5.8696 4.6957v-4.6957c3.2517 0 5.8696-2.6178 5.8696-5.8696v-14.087c0-3.2517-2.6178-5.8696-5.8696-5.8696z" enable-background="new" fill="#2ec27e" style="paint-order:normal"/>
  <path d="m29.065 24.957c-0.9725 0-1.7609 0.78836-1.7609 1.7609 0 0.9725 0.78836 1.7609 1.7609 1.7609 0.9725 0 1.7609-0.78836 1.7609-1.7609 0-0.9725-0.78836-1.7609-1.7609-1.7609zm5.8696 0c-0.9725 0-1.7609 0.78836-1.7609 1.7609 0 0.9725 0.78836 1.7609 1.7609 1.7609 0.9725 0 1.7609-0.78836 1.7609-1.7609 0-0.9725-0.78836-1.7609-1.7609-1.7609zm-8.8043 5.8696c0 3.2416 2.6279 5.8696 5.8696 5.8696s5.8696-2.6279 5.8696-5.8696h-2.3478c0 1.9451-1.5767 3.5217-3.5217 3.5217s-3.5217-1.5767-3.5217-3.5217z" fill="#f9f9f9" style="paint-order:normal"/>
 </g>
</svg>
