<svg width="64" height="64" version="1.1" viewBox="0 0 16.933 16.933" xmlns="http://www.w3.org/2000/svg" xmlns:xlink="http://www.w3.org/1999/xlink">
 <g transform="matrix(1.2455 0 0 1.2455 -2.331 -351.86)">
  <path d="M8.306 283.776c-1.411 0-2.547.811-2.547 1.82v.793h-.794c-1.007 0-1.819 1.136-1.819 2.546v.728c0 1.41.812 2.547 1.82 2.547h6.614v-6.615c0-1.008-1.136-1.819-2.547-1.819z" fill="#3776ab" overflow="visible"/>
  <path d="M9.033 294.822c1.411 0 2.547-.81 2.547-1.819v-.793h.794c1.007 0 1.819-1.136 1.819-2.547v-.728c0-1.41-.812-2.546-1.82-2.546h-.793v1.455c0 .806-.65 1.455-1.455 1.455h-2.91s-1.456 0-1.456 1.456v2.248c0 1.008 1.136 1.82 2.547 1.82z" fill="#ffd343" overflow="visible"/>
  <circle cx="7.611" cy="285.33" r=".529" fill="#fff" overflow="visible"/>
  <circle cx="9.744" cy="293.52" r=".546" fill="#fff" overflow="visible"/>
 </g>
</svg>
