<svg xmlns="http://www.w3.org/2000/svg" xmlns:xlink="http://www.w3.org/1999/xlink" width="64" height="64" viewBox="0 0 16.933 16.933"><defs><linearGradient id="a"><stop offset="0"/><stop offset="1" stop-opacity="0"/></linearGradient><linearGradient xlink:href="#a" id="b" x1="42.165" y1="58" x2="42.165" y2="18.299" gradientUnits="userSpaceOnUse"/></defs><g transform="matrix(1.2455 0 0 1.2455 -2.331 -351.858)" color="#000"><path style="marker:none" d="M8.306 283.776c-1.411 0-2.547.811-2.547 1.82v.793h-.794c-1.007 0-1.819 1.136-1.819 2.546v.728c0 1.41.812 2.547 1.82 2.547h6.614v-6.615c0-1.008-1.136-1.819-2.547-1.819z" overflow="visible" fill="#3776ab"/><path d="M9.033 294.822c1.411 0 2.547-.81 2.547-1.819v-.793h.794c1.007 0 1.819-1.136 1.819-2.547v-.728c0-1.41-.812-2.546-1.82-2.546h-.793v1.455c0 .806-.65 1.455-1.455 1.455h-2.91s-1.456 0-1.456 1.456v2.248c0 1.008 1.136 1.82 2.547 1.82z" style="marker:none" overflow="visible" fill="#ffd343"/><path style="marker:none" d="M47.012 18.299a25.19 30.305 0 0 1 1.222 9.209 25.19 30.305 0 0 1-21.904 30.01c1.24.308 2.567.482 3.957.482h3.426c6.641 0 11.988-3.819 11.988-8.563v-3.736h3.736c4.744 0 8.563-5.347 8.563-11.988v-3.426c0-6.641-3.819-11.988-8.563-11.988h-2.425z" transform="matrix(.21243 0 0 .21243 1.872 282.502)" overflow="visible" fill="url(#b)" opacity=".25"/><circle r=".529" cy="285.331" cx="7.611" style="marker:none" overflow="visible" fill="#fff"/><circle r=".546" cy="293.516" cx="9.744" style="marker:none" overflow="visible" fill="#fff"/></g></svg>