<svg width="64" height="64" version="1.1" xmlns="http://www.w3.org/2000/svg" xmlns:xlink="http://www.w3.org/1999/xlink">
 <g transform="matrix(1.35 0 0 1.35 -.4 -22)" fill-rule="evenodd" stroke-width="1.4815">
  <path d="m44 40a20 20 0 0 1-20 20 20 20 0 0 1-20-20 20 20 0 0 1 20-20 20 20 0 0 1 20 20" color="#000000" fill="#d1e7fb"/>
  <path d="m24 22c-9.941 0-18 8.06-18 18 0 9.941 8.06 18 18 18 9.941 0 18-8.06 18-18 0-9.941-8.06-18-18-18m1 7h2v6.08a7 6 0 0 1 4-1.0801 7 6 0 0 1 7 6 7 6 0 0 1-7 6 7 6 0 0 1-4-1.0859v2.086h-2zm-4 4h2v18h-2v-6.08a7 6 0 0 1-4 1.0801 7 6 0 0 1-7-6 7 6 0 0 1 7-6 7 6 0 0 1 4 1.0859zm-4 3a5 4 0 0 0-5 4 5 4 0 0 0 5 4 5 4 0 0 0 4-1.6094v-4.783a5 4 0 0 0-4-1.6074m14 0a5 4 0 0 0-4 1.6094v4.783a5 4 0 0 0 4 1.6074 5 4 0 0 0 5-4 5 4 0 0 0-5-4" color="#000000" fill="#197cf1"/>
 </g>
</svg>
