<svg width="64" height="64" version="1.1" viewBox="0 0 64 64" xmlns="http://www.w3.org/2000/svg">
 <g transform="matrix(1.1739 0 0 1.1739 3.8261 3.8261)">
  <path d="m24 1c12.703 0 23 10.297 23 23s-10.297 23-23 23-23-10.297-23-23 10.297-23 23-23z" fill="#383838"/>
 </g>
 <path d="m32 14.495a17.609 17.609 0 0 0-17.609 17.609 17.609 17.609 0 0 0 12.054 16.693c-1.6294-4.5196-2.8796-11.501-3.6368-14.855-0.37683-1.4862-0.15261-2.9653 0.1033-4.455 0.51652-1.5472 0.68674-3.159 1.3934-4.6487 1.0788-0.92856 1.1047-2.619 2.1506-3.4302 0.15613 0.09274 0.26061 0.1303 0.33339 0.16552l0.10917 0.01174h0.01174c0.15026-0.1573-1.465-1.7984 0.0317-1.1504 0.0587-0.86165 1.411-0.20309 1.431-0.95791v-0.0023c0.65739 0.5447 0.53413 0.31696 1.4204 0.216 1.0037-0.63861 1.4721 1.5143 1.89 0.31344 1.235 0.15613 2.5462 0.54587 3.7131 0.93796 1.1751 0.25122 2.2833 0.91096 3.0698 1.8172h-0.02348l0.57639 0.7513c0.07161 0.12913 0.14204 0.26413 0.20074 0.39913 0.23244 1.9358 2.4417 1.9088 3.9209 2.6084 1.2655 0.4367 2.7904 1.1011 2.9465 2.5885-0.3193-0.06809-1.5543-1.4756-2.5263-1.6165-0.58461-0.03522-1.2162-0.19604-1.8055-0.4097l-3.4137-0.61161v-0.01174c-0.1667-0.02353-0.34278-0.047-0.50831-0.08222v0.01174l-4.8307-0.57874c0.07865 0.05283 0.16552 0.12444 0.24183 0.19487l4.9539 0.93796v-0.0094l0.34278 0.08452 1.3852 0.30287c0.2747 0.02465 0.54939 0.06809 0.77713 0.1127 1.4122 0.3733 3.0827 0.30522 4.2449 1.2678-0.30639 0.56465-1.9957 0.24417-2.8397 0.17139-0.1033-0.01878-0.216-0.03052-0.31813-0.054-0.02348 0-0.03522-0.01174-0.0587-0.01174-1.1504-0.17609-2.3243-0.18783-3.4337 0.14439-0.0023 0-0.0082-0.0012-0.01174 0-0.38152 0.11504-0.7513 0.27939-1.107 0.48365-1.5989 0.90391-3.5687 1.2338-4.8976 2.5357-1.2913 1.3559-1.2209 3.2318-0.9943 4.9715h0.054v0.44374c0.02113 0.15261 0.04578 0.30287 0.06691 0.45196 0.67383 3.5194 2.4746 6.7488 3.0334 10.301 0.03522 0.42496 0.09391 0.90274 0.14087 1.3688a17.609 17.609 0 0 0 15.026-17.402 17.609 17.609 0 0 0-17.609-17.609zm2.7188 8.4874c-0.53296 0.01409-0.94617 0.20778-1.0636 0.53883-0.18783 0.52944 0.45196 1.2138 1.431 1.539 0.97904 0.33456 1.9264 0.17609 2.1166-0.35335 0.18783-0.52944-0.44844-1.222-1.4345-1.5519-0.36391-0.12326-0.729-0.17961-1.0495-0.17256z" fill="#ff8b3c"/>
</svg>
