<svg xmlns="http://www.w3.org/2000/svg" xmlns:xlink="http://www.w3.org/1999/xlink" width="64" height="64" viewBox="0 0 16.933 16.933"><defs><linearGradient id="a"><stop offset="0"/><stop offset="1" stop-opacity="0"/></linearGradient><linearGradient gradientTransform="matrix(.27517 0 0 .27517 -.339 279.728)" xlink:href="#a" id="b" x1="46.168" y1="57" x2="46.168" y2="27.346" gradientUnits="userSpaceOnUse"/></defs><g transform="translate(0 -280.067)"><rect width="13.758" height="13.758" x="1.588" y="281.654" rx=".825" ry=".825" fill="#4d4d4d" paint-order="markers stroke fill"/><circle r="9.5" cy="13.526" cx="13.524" fill="#fff" transform="matrix(.26458 0 0 .26458 2.11 282.176)"/><circle r="9.5" cy="13.479" cx="34.523" fill="#333" transform="matrix(.26458 0 0 .26458 2.11 282.189)"/><circle r="9.5" cy="34.558" cx="13.524" fill="#333" transform="matrix(.26458 0 0 .26458 2.11 282.168)"/><circle r="9.5" cy="34.483" cx="34.476" fill="#fff" transform="matrix(.26458 0 0 .26458 2.123 282.188)"/><path d="M15.346 287.253a12.383 12.383 0 0 1-5.961 8.16h5.135a.824.824 0 0 0 .826-.826z" opacity=".25" fill="url(#b)" paint-order="markers stroke fill"/></g></svg>