<svg xmlns="http://www.w3.org/2000/svg" width="64" height="64" viewBox="0 0 16.933 16.933"><circle cx="8.467" cy="8.467" r="7.144" fill="#e6e6e6"/><circle cx="8.467" cy="8.467" r="6.085" fill="#f2f2f2"/><path fill="silver" fill-opacity=".812" d="m2.764 2.082-.667.68a.774.99 0 0 1 .015.01.774.99 0 0 1 .03.025.774.99 0 0 1 .029.027.774.99 0 0 1 .028.027.774.99 0 0 1 .027.03.774.99 0 0 1 .025.031.774.99 0 0 1 .025.033.774.99 0 0 1 .023.034l.674-.688a1.204 1.16 0 0 0-.008-.011 1.204 1.16 0 0 0-.03-.036 1.204 1.16 0 0 0-.032-.035 1.204 1.16 0 0 0-.032-.033 1.204 1.16 0 0 0-.035-.033 1.204 1.16 0 0 0-.035-.031 1.204 1.16 0 0 0-.037-.03zm-.465.897a.774.99 0 0 0-.023-.034.774.99 0 0 0-.025-.033.774.99 0 0 0-.025-.031.774.99 0 0 0-.027-.03.774.99 0 0 0-.028-.027.774.99 0 0 0-.03-.027.774.99 0 0 0-.03-.025.774.99 0 0 0-.014-.01l-.51.519.208.211zm.95-1.392-.485.495a1.204 1.16 0 0 1 .037.03 1.204 1.16 0 0 1 .035.031 1.204 1.16 0 0 1 .035.033 1.204 1.16 0 0 1 .032.033 1.204 1.16 0 0 1 .032.035 1.204 1.16 0 0 1 .03.036 1.204 1.16 0 0 1 .008.011l.483-.492z"/><path fill-opacity=".2" d="M2.3 2.979a.774.99 0 0 0-.024-.034.774.99 0 0 0-.024-.033.774.99 0 0 0-.026-.031.774.99 0 0 0-.027-.03.774.99 0 0 0-.028-.027.774.99 0 0 0-.029-.027.774.99 0 0 0-.03-.025.774.99 0 0 0-.015-.01l-.51.519.208.211.504-.513z"/><path fill-opacity=".1" d="m2.764 2.082-.667.68a.774.99 0 0 1 .015.01.774.99 0 0 1 .03.025.774.99 0 0 1 .029.027.774.99 0 0 1 .028.027.774.99 0 0 1 .027.03.774.99 0 0 1 .025.031.774.99 0 0 1 .025.033.774.99 0 0 1 .023.034l.674-.688a1.204 1.16 0 0 0-.008-.011 1.204 1.16 0 0 0-.03-.036 1.204 1.16 0 0 0-.032-.035 1.204 1.16 0 0 0-.032-.033 1.204 1.16 0 0 0-.035-.033 1.204 1.16 0 0 0-.035-.031 1.204 1.16 0 0 0-.037-.03z"/><path fill="#333" d="M3.662 1.698a.264.264 0 0 0-.186.08l-.684.698-1.017 1.037a.27.27 0 0 0-.004.378l.23.234.002.003-.02.02a.27.27 0 0 0-.004.378l4.823 4.918a.258.258 0 0 0 .37-.004l.02-.02.115.116.532.543a.258.258 0 0 0 .37-.004l1.112-1.133.591-.602a.27.27 0 0 0 .004-.378l-.647-.66.02-.02a.27.27 0 0 0 .004-.378L4.47 1.986a.258.258 0 0 0-.371.004l-.02.02-.232-.235a.253.253 0 0 0-.185-.077z"/><g fill="silver" fill-opacity=".753"><path d="M14.998 15.43a1.272.692 48.332 0 0-.012-.028 1.272.692 48.332 0 0-.022-.045 1.272.692 48.332 0 0-.023-.046 1.272.692 48.332 0 0-.024-.045 1.272.692 48.332 0 0-.026-.044 1.272.692 48.332 0 0-.027-.045 1.272.692 48.332 0 0-.03-.044 1.272.692 48.332 0 0-.03-.045 1.272.692 48.332 0 0-.03-.043A1.272.692 48.332 0 0 14.74 15a1.272.692 48.332 0 0-.033-.042 1.272.692 48.332 0 0-.035-.042 1.272.692 48.332 0 0-.036-.04 1.272.692 48.332 0 0-.027-.03 1.272.692 48.332 0 0-.037-.04 1.272.692 48.332 0 0-.038-.039 1.272.692 48.332 0 0-.04-.037 1.272.692 48.332 0 0-.039-.037 1.272.692 48.332 0 0-.04-.035 1.272.692 48.332 0 0-.04-.034 1.272.692 48.332 0 0-.042-.032 1.272.692 48.332 0 0-.041-.032 1.272.692 48.332 0 0-.042-.03 1.272.692 48.332 0 0-.042-.028 1.272.692 48.332 0 0-.042-.027 1.272.692 48.332 0 0-.043-.025 1.272.692 48.332 0 0-.042-.024 1.272.692 48.332 0 0-.043-.022 1.272.692 48.332 0 0-.041-.02 1.272.692 48.332 0 0-.042-.02 1.272.692 48.332 0 0-.042-.016 1.272.692 48.332 0 0-.041-.015 1.272.692 48.332 0 0-.04-.013 1.272.692 48.332 0 0-.041-.012 1.272.692 48.332 0 0-.04-.009 1.272.692 48.332 0 0-.039-.008 1.272.692 48.332 0 0-.038-.005 1.272.692 48.332 0 0-.038-.004 1.272.692 48.332 0 0-.036-.002 1.272.692 48.332 0 0-.035 0 1.272.692 48.332 0 0-.035.002 1.272.692 48.332 0 0-.034.004 1.272.692 48.332 0 0-.032.006 1.272.692 48.332 0 0-.031.008 1.272.692 48.332 0 0-.03.01 1.272.692 48.332 0 0-.029.01 1.272.692 48.332 0 0-.007.004.223.223 0 0 1 .156.068c.208.212-.104.529.104.74.208.212 1.246.424 1.35.318l.02-.02z"/><path d="m9.226 9.04-.788.802 4.567 4.657s.183-.182.363-.173a1.272.692 48.332 0 1 .007-.004 1.272.692 48.332 0 1 .029-.011 1.272.692 48.332 0 1 .03-.01 1.272.692 48.332 0 1 .03-.008 1.272.692 48.332 0 1 .033-.006 1.272.692 48.332 0 1 .034-.004 1.272.692 48.332 0 1 .034-.002 1.272.692 48.332 0 1 .036 0 1.272.692 48.332 0 1 .036.002 1.272.692 48.332 0 1 .038.004 1.272.692 48.332 0 1 .038.006 1.272.692 48.332 0 1 .039.007 1.272.692 48.332 0 1 .04.01 1.272.692 48.332 0 1 .04.011 1.272.692 48.332 0 1 .04.013 1.272.692 48.332 0 1 .042.015 1.272.692 48.332 0 1 .042.017 1.272.692 48.332 0 1 .041.019 1.272.692 48.332 0 1 .042.02 1.272.692 48.332 0 1 .043.022 1.272.692 48.332 0 1 .042.024 1.272.692 48.332 0 1 .042.025 1.272.692 48.332 0 1 .043.027 1.272.692 48.332 0 1 .042.028 1.272.692 48.332 0 1 .042.03 1.272.692 48.332 0 1 .041.032 1.272.692 48.332 0 1 .041.032 1.272.692 48.332 0 1 .041.034 1.272.692 48.332 0 1 .04.036 1.272.692 48.332 0 1 .04.036 1.272.692 48.332 0 1 .039.038 1.272.692 48.332 0 1 .038.038 1.272.692 48.332 0 1 .037.04 1.272.692 48.332 0 1 .027.03 1.272.692 48.332 0 1 .036.04 1.272.692 48.332 0 1 .034.042 1.272.692 48.332 0 1 .034.043 1.272.692 48.332 0 1 .033.043 1.272.692 48.332 0 1 .03.043 1.272.692 48.332 0 1 .03.045 1.272.692 48.332 0 1 .03.044 1.272.692 48.332 0 1 .027.045 1.272.692 48.332 0 1 .026.045 1.272.692 48.332 0 1 .024.045 1.272.692 48.332 0 1 .023.045 1.272.692 48.332 0 1 .021.045 1.272.692 48.332 0 1 .013.028l.083-.084.104-.106c.062-.064 0-.436-.095-.798a4.933 1.333 42.077 0 1-.05-.021 4.933 1.333 42.077 0 1-.069-.03 4.933 1.333 42.077 0 1-.07-.033 4.933 1.333 42.077 0 1-.071-.034 4.933 1.333 42.077 0 1-.072-.036 4.933 1.333 42.077 0 1-.074-.037 4.933 1.333 42.077 0 1-.074-.039 4.933 1.333 42.077 0 1-.075-.04 4.933 1.333 42.077 0 1-.076-.042 4.933 1.333 42.077 0 1-.077-.044 4.933 1.333 42.077 0 1-.078-.045 4.933 1.333 42.077 0 1-.079-.046 4.933 1.333 42.077 0 1-.08-.048 4.933 1.333 42.077 0 1-.08-.049 4.933 1.333 42.077 0 1-.08-.05 4.933 1.333 42.077 0 1-.082-.052 4.933 1.333 42.077 0 1-.082-.053 4.933 1.333 42.077 0 1-.082-.055 4.933 1.333 42.077 0 1-.083-.056 4.933 1.333 42.077 0 1-.084-.057 4.933 1.333 42.077 0 1-.084-.058 4.933 1.333 42.077 0 1-.084-.06 4.933 1.333 42.077 0 1-.085-.06 4.933 1.333 42.077 0 1-.085-.061 4.933 1.333 42.077 0 1-.085-.063 4.933 1.333 42.077 0 1-.085-.064 4.933 1.333 42.077 0 1-.086-.065 4.933 1.333 42.077 0 1-.085-.066 4.933 1.333 42.077 0 1-.086-.067 4.933 1.333 42.077 0 1-.086-.068 4.933 1.333 42.077 0 1-.086-.068 4.933 1.333 42.077 0 1-.086-.07 4.933 1.333 42.077 0 1-.085-.07 4.933 1.333 42.077 0 1-.085-.07 4.933 1.333 42.077 0 1-.085-.073 4.933 1.333 42.077 0 1-.086-.072 4.933 1.333 42.077 0 1-.084-.073 4.933 1.333 42.077 0 1-.085-.074 4.933 1.333 42.077 0 1-.083-.075 4.933 1.333 42.077 0 1-.084-.075 4.933 1.333 42.077 0 1-.003-.002 4.933 1.333 42.077 0 1-.082-.075 4.933 1.333 42.077 0 1-.083-.076 4.933 1.333 42.077 0 1-.082-.076 4.933 1.333 42.077 0 1-.081-.077 4.933 1.333 42.077 0 1-.081-.077 4.933 1.333 42.077 0 1-.08-.078 4.933 1.333 42.077 0 1-.08-.077 4.933 1.333 42.077 0 1-.079-.079 4.933 1.333 42.077 0 1-.077-.078 4.933 1.333 42.077 0 1-.077-.078 4.933 1.333 42.077 0 1-.077-.078 4.933 1.333 42.077 0 1-.075-.079 4.933 1.333 42.077 0 1-.074-.078 4.933 1.333 42.077 0 1-.073-.079 4.933 1.333 42.077 0 1-.072-.078 4.933 1.333 42.077 0 1-.071-.078 4.933 1.333 42.077 0 1-.07-.079 4.933 1.333 42.077 0 1-.07-.078 4.933 1.333 42.077 0 1-.067-.077 4.933 1.333 42.077 0 1-.067-.078 4.933 1.333 42.077 0 1-.065-.077 4.933 1.333 42.077 0 1-.064-.077 4.933 1.333 42.077 0 1-.063-.077 4.933 1.333 42.077 0 1-.061-.076 4.933 1.333 42.077 0 1-.06-.076 4.933 1.333 42.077 0 1-.058-.075 4.933 1.333 42.077 0 1-.058-.075 4.933 1.333 42.077 0 1-.055-.074 4.933 1.333 42.077 0 1-.054-.074 4.933 1.333 42.077 0 1-.053-.072 4.933 1.333 42.077 0 1-.051-.073 4.933 1.333 42.077 0 1-.05-.072 4.933 1.333 42.077 0 1-.047-.07 4.933 1.333 42.077 0 1-.046-.07 4.933 1.333 42.077 0 1-.045-.069 4.933 1.333 42.077 0 1-.043-.069 4.933 1.333 42.077 0 1-.041-.067 4.933 1.333 42.077 0 1-.04-.066 4.933 1.333 42.077 0 1-.037-.066 4.933 1.333 42.077 0 1-.036-.064 4.933 1.333 42.077 0 1-.034-.063 4.933 1.333 42.077 0 1-.033-.063 4.933 1.333 42.077 0 1-.03-.061 4.933 1.333 42.077 0 1-.001-.003z"/><path d="M9.226 9.04a4.933 1.333 42.077 0 0 0 .002 4.933 1.333 42.077 0 0 .031.061 4.933 1.333 42.077 0 0 .033.063 4.933 1.333 42.077 0 0 .034.063 4.933 1.333 42.077 0 0 .035.064 4.933 1.333 42.077 0 0 .038.066 4.933 1.333 42.077 0 0 .04.066 4.933 1.333 42.077 0 0 .04.067 4.933 1.333 42.077 0 0 .044.069 4.933 1.333 42.077 0 0 .045.069 4.933 1.333 42.077 0 0 .046.07 4.933 1.333 42.077 0 0 .048.07 4.933 1.333 42.077 0 0 .049.072 4.933 1.333 42.077 0 0 .051.072 4.933 1.333 42.077 0 0 .053.073 4.933 1.333 42.077 0 0 .054.074 4.933 1.333 42.077 0 0 .055.074 4.933 1.333 42.077 0 0 .058.075 4.933 1.333 42.077 0 0 .058.075 4.933 1.333 42.077 0 0 .06.075 4.933 1.333 42.077 0 0 .061.077 4.933 1.333 42.077 0 0 .063.076 4.933 1.333 42.077 0 0 .064.077 4.933 1.333 42.077 0 0 .065.077 4.933 1.333 42.077 0 0 .067.078 4.933 1.333 42.077 0 0 .067.078 4.933 1.333 42.077 0 0 .07.078 4.933 1.333 42.077 0 0 .07.079 4.933 1.333 42.077 0 0 .07.078 4.933 1.333 42.077 0 0 .073.078 4.933 1.333 42.077 0 0 .073.079 4.933 1.333 42.077 0 0 .074.078 4.933 1.333 42.077 0 0 .075.079 4.933 1.333 42.077 0 0 .077.078 4.933 1.333 42.077 0 0 .077.078 4.933 1.333 42.077 0 0 .077.078 4.933 1.333 42.077 0 0 .08.078 4.933 1.333 42.077 0 0 .078.078 4.933 1.333 42.077 0 0 .08.077 4.933 1.333 42.077 0 0 .082.078 4.933 1.333 42.077 0 0 .08.076 4.933 1.333 42.077 0 0 .083.077 4.933 1.333 42.077 0 0 .083.076 4.933 1.333 42.077 0 0 .082.075 4.933 1.333 42.077 0 0 .003.002 4.933 1.333 42.077 0 0 .084.075 4.933 1.333 42.077 0 0 .083.075 4.933 1.333 42.077 0 0 .085.074 4.933 1.333 42.077 0 0 .084.072 4.933 1.333 42.077 0 0 .086.073 4.933 1.333 42.077 0 0 .085.072 4.933 1.333 42.077 0 0 .085.071 4.933 1.333 42.077 0 0 .085.07 4.933 1.333 42.077 0 0 .086.07 4.933 1.333 42.077 0 0 .086.068 4.933 1.333 42.077 0 0 .086.068 4.933 1.333 42.077 0 0 .086.067 4.933 1.333 42.077 0 0 .085.066 4.933 1.333 42.077 0 0 .086.065 4.933 1.333 42.077 0 0 .085.063 4.933 1.333 42.077 0 0 .085.063 4.933 1.333 42.077 0 0 .085.062 4.933 1.333 42.077 0 0 .085.06 4.933 1.333 42.077 0 0 .084.06 4.933 1.333 42.077 0 0 .084.058 4.933 1.333 42.077 0 0 .084.057 4.933 1.333 42.077 0 0 .083.056 4.933 1.333 42.077 0 0 .082.055 4.933 1.333 42.077 0 0 .082.053 4.933 1.333 42.077 0 0 .082.052 4.933 1.333 42.077 0 0 .08.05 4.933 1.333 42.077 0 0 .08.05 4.933 1.333 42.077 0 0 .08.047 4.933 1.333 42.077 0 0 .079.046 4.933 1.333 42.077 0 0 .078.045 4.933 1.333 42.077 0 0 .077.044 4.933 1.333 42.077 0 0 .076.042 4.933 1.333 42.077 0 0 .075.04 4.933 1.333 42.077 0 0 .074.039 4.933 1.333 42.077 0 0 .074.037 4.933 1.333 42.077 0 0 .072.035 4.933 1.333 42.077 0 0 .071.035 4.933 1.333 42.077 0 0 .07.032 4.933 1.333 42.077 0 0 .069.03 4.933 1.333 42.077 0 0 .05.022c-.063-.238-.134-.494-.217-.578-.207-.212-.519.106-.726-.106-.208-.212.104-.529.104-.529L9.683 8.572l-.457.467z"/></g><path fill="#fff" fill-opacity=".326" d="M9.226 9.04a4.933 1.333 42.077 0 0 0 .002 4.933 1.333 42.077 0 0 .031.061 4.933 1.333 42.077 0 0 .033.063 4.933 1.333 42.077 0 0 .034.063 4.933 1.333 42.077 0 0 .035.064 4.933 1.333 42.077 0 0 .038.066 4.933 1.333 42.077 0 0 .04.066 4.933 1.333 42.077 0 0 .04.067 4.933 1.333 42.077 0 0 .044.069 4.933 1.333 42.077 0 0 .045.069 4.933 1.333 42.077 0 0 .046.07 4.933 1.333 42.077 0 0 .048.07 4.933 1.333 42.077 0 0 .049.072 4.933 1.333 42.077 0 0 .051.072 4.933 1.333 42.077 0 0 .053.073 4.933 1.333 42.077 0 0 .054.074 4.933 1.333 42.077 0 0 .055.074 4.933 1.333 42.077 0 0 .058.075 4.933 1.333 42.077 0 0 .058.075 4.933 1.333 42.077 0 0 .06.075 4.933 1.333 42.077 0 0 .061.077 4.933 1.333 42.077 0 0 .063.076 4.933 1.333 42.077 0 0 .064.077 4.933 1.333 42.077 0 0 .065.077 4.933 1.333 42.077 0 0 .067.078 4.933 1.333 42.077 0 0 .067.078 4.933 1.333 42.077 0 0 .07.078 4.933 1.333 42.077 0 0 .07.079 4.933 1.333 42.077 0 0 .07.078 4.933 1.333 42.077 0 0 .073.078 4.933 1.333 42.077 0 0 .073.079 4.933 1.333 42.077 0 0 .074.078 4.933 1.333 42.077 0 0 .075.079 4.933 1.333 42.077 0 0 .077.078 4.933 1.333 42.077 0 0 .077.078 4.933 1.333 42.077 0 0 .077.078 4.933 1.333 42.077 0 0 .08.078 4.933 1.333 42.077 0 0 .078.078 4.933 1.333 42.077 0 0 .08.077 4.933 1.333 42.077 0 0 .082.078 4.933 1.333 42.077 0 0 .08.076 4.933 1.333 42.077 0 0 .083.077 4.933 1.333 42.077 0 0 .083.076 4.933 1.333 42.077 0 0 .082.075 4.933 1.333 42.077 0 0 .003.002 4.933 1.333 42.077 0 0 .084.075 4.933 1.333 42.077 0 0 .083.075 4.933 1.333 42.077 0 0 .085.074 4.933 1.333 42.077 0 0 .084.072 4.933 1.333 42.077 0 0 .086.073 4.933 1.333 42.077 0 0 .085.072 4.933 1.333 42.077 0 0 .085.071 4.933 1.333 42.077 0 0 .085.07 4.933 1.333 42.077 0 0 .086.07 4.933 1.333 42.077 0 0 .086.068 4.933 1.333 42.077 0 0 .086.068 4.933 1.333 42.077 0 0 .086.067 4.933 1.333 42.077 0 0 .085.066 4.933 1.333 42.077 0 0 .086.065 4.933 1.333 42.077 0 0 .085.063 4.933 1.333 42.077 0 0 .085.063 4.933 1.333 42.077 0 0 .085.062 4.933 1.333 42.077 0 0 .085.06 4.933 1.333 42.077 0 0 .084.06 4.933 1.333 42.077 0 0 .084.058 4.933 1.333 42.077 0 0 .084.057 4.933 1.333 42.077 0 0 .083.056 4.933 1.333 42.077 0 0 .082.055 4.933 1.333 42.077 0 0 .082.053 4.933 1.333 42.077 0 0 .082.052 4.933 1.333 42.077 0 0 .08.05 4.933 1.333 42.077 0 0 .08.05 4.933 1.333 42.077 0 0 .08.047 4.933 1.333 42.077 0 0 .079.046 4.933 1.333 42.077 0 0 .078.045 4.933 1.333 42.077 0 0 .077.044 4.933 1.333 42.077 0 0 .076.042 4.933 1.333 42.077 0 0 .075.04 4.933 1.333 42.077 0 0 .074.039 4.933 1.333 42.077 0 0 .074.037 4.933 1.333 42.077 0 0 .072.035 4.933 1.333 42.077 0 0 .071.035 4.933 1.333 42.077 0 0 .07.032 4.933 1.333 42.077 0 0 .069.03 4.933 1.333 42.077 0 0 .05.022c-.063-.238-.134-.494-.217-.578-.207-.212-.519.106-.726-.106-.208-.212.104-.529.104-.529L9.683 8.572l-.457.467z"/><path fill="#333" d="m11.552 13.018 1.246-1.27.207.211-1.246 1.27zM12.59 14.076l1.245-1.27.208.211-1.246 1.27z"/><path fill-opacity=".074" d="M14.998 15.43a1.272.692 48.332 0 0-.012-.028 1.272.692 48.332 0 0-.022-.045 1.272.692 48.332 0 0-.023-.046 1.272.692 48.332 0 0-.024-.045 1.272.692 48.332 0 0-.026-.044 1.272.692 48.332 0 0-.027-.045 1.272.692 48.332 0 0-.03-.044 1.272.692 48.332 0 0-.03-.045 1.272.692 48.332 0 0-.03-.043A1.272.692 48.332 0 0 14.74 15a1.272.692 48.332 0 0-.033-.042 1.272.692 48.332 0 0-.035-.042 1.272.692 48.332 0 0-.036-.04 1.272.692 48.332 0 0-.027-.03 1.272.692 48.332 0 0-.037-.04 1.272.692 48.332 0 0-.038-.039 1.272.692 48.332 0 0-.04-.037 1.272.692 48.332 0 0-.039-.037 1.272.692 48.332 0 0-.04-.035 1.272.692 48.332 0 0-.04-.034 1.272.692 48.332 0 0-.042-.032 1.272.692 48.332 0 0-.041-.032 1.272.692 48.332 0 0-.042-.03 1.272.692 48.332 0 0-.042-.028 1.272.692 48.332 0 0-.042-.027 1.272.692 48.332 0 0-.043-.025 1.272.692 48.332 0 0-.042-.024 1.272.692 48.332 0 0-.043-.022 1.272.692 48.332 0 0-.041-.02 1.272.692 48.332 0 0-.042-.02 1.272.692 48.332 0 0-.042-.016 1.272.692 48.332 0 0-.041-.015 1.272.692 48.332 0 0-.04-.013 1.272.692 48.332 0 0-.041-.012 1.272.692 48.332 0 0-.04-.009 1.272.692 48.332 0 0-.039-.008 1.272.692 48.332 0 0-.038-.005 1.272.692 48.332 0 0-.038-.004 1.272.692 48.332 0 0-.036-.002 1.272.692 48.332 0 0-.035 0 1.272.692 48.332 0 0-.035.002 1.272.692 48.332 0 0-.034.004 1.272.692 48.332 0 0-.032.006 1.272.692 48.332 0 0-.031.008 1.272.692 48.332 0 0-.03.01 1.272.692 48.332 0 0-.029.01 1.272.692 48.332 0 0-.007.004.223.223 0 0 1 .156.068c.208.212-.104.529.104.74.208.212 1.246.424 1.35.318l.02-.02z"/><path fill="#fff" fill-opacity=".31" d="M3.662 1.698a.264.264 0 0 0-.186.08l-.684.698a6.96 2.274 45 0 1 .007.003 6.96 2.274 45 0 1 .09.05 6.96 2.274 45 0 1 .091.051 6.96 2.274 45 0 1 .092.053 6.96 2.274 45 0 1 .092.055 6.96 2.274 45 0 1 .093.056 6.96 2.274 45 0 1 .094.057 6.96 2.274 45 0 1 .094.06 6.96 2.274 45 0 1 .095.06 6.96 2.274 45 0 1 .095.062 6.96 2.274 45 0 1 .096.064 6.96 2.274 45 0 1 .096.064 6.96 2.274 45 0 1 .096.067 6.96 2.274 45 0 1 .097.068 6.96 2.274 45 0 1 .097.068 6.96 2.274 45 0 1 .098.07 6.96 2.274 45 0 1 .097.073 6.96 2.274 45 0 1 .098.072 6.96 2.274 45 0 1 .098.075 6.96 2.274 45 0 1 .098.075 6.96 2.274 45 0 1 .099.077 6.96 2.274 45 0 1 .098.077 6.96 2.274 45 0 1 .098.08A6.96 2.274 45 0 1 5 3.991a6.96 2.274 45 0 1 .098.081 6.96 2.274 45 0 1 .099.082 6.96 2.274 45 0 1 .098.083 6.96 2.274 45 0 1 .098.085 6.96 2.274 45 0 1 .098.084 6.96 2.274 45 0 1 .097.086 6.96 2.274 45 0 1 .098.088 6.96 2.274 45 0 1 .097.087 6.96 2.274 45 0 1 .097.089 6.96 2.274 45 0 1 .096.09 6.96 2.274 45 0 1 .096.089 6.96 2.274 45 0 1 .096.091 6.96 2.274 45 0 1 .095.091 6.96 2.274 45 0 1 .095.093 6.96 2.274 45 0 1 .094.092 6.96 2.274 45 0 1 .06.06 6.96 2.274 45 0 1 .093.093 6.96 2.274 45 0 1 .092.095 6.96 2.274 45 0 1 .092.095 6.96 2.274 45 0 1 .092.095 6.96 2.274 45 0 1 .09.096 6.96 2.274 45 0 1 .09.096 6.96 2.274 45 0 1 .09.097 6.96 2.274 45 0 1 .087.097 6.96 2.274 45 0 1 .088.097 6.96 2.274 45 0 1 .086.097 6.96 2.274 45 0 1 .086.099 6.96 2.274 45 0 1 .085.097 6.96 2.274 45 0 1 .084.099 6.96 2.274 45 0 1 .082.098 6.96 2.274 45 0 1 .082.098 6.96 2.274 45 0 1 .08.099 6.96 2.274 45 0 1 .08.098 6.96 2.274 45 0 1 .079.098 6.96 2.274 45 0 1 .077.099 6.96 2.274 45 0 1 .076.098 6.96 2.274 45 0 1 .075.098 6.96 2.274 45 0 1 .074.098 6.96 2.274 45 0 1 .072.098 6.96 2.274 45 0 1 .071.098 6.96 2.274 45 0 1 .07.097 6.96 2.274 45 0 1 .069.097 6.96 2.274 45 0 1 .067.097 6.96 2.274 45 0 1 .066.096 6.96 2.274 45 0 1 .064.096 6.96 2.274 45 0 1 .063.095 6.96 2.274 45 0 1 .062.095 6.96 2.274 45 0 1 .06.095 6.96 2.274 45 0 1 .058.094 6.96 2.274 45 0 1 .057.093 6.96 2.274 45 0 1 .056.093 6.96 2.274 45 0 1 .053.092 6.96 2.274 45 0 1 .053.092 6.96 2.274 45 0 1 .008.014l.591-.602a.27.27 0 0 0 .004-.378l-.647-.66.02-.02a.27.27 0 0 0 .003-.378L4.47 1.986a.258.258 0 0 0-.37.004l-.02.02-.232-.235a.253.253 0 0 0-.185-.077z"/><path fill-opacity=".4" d="M7.307 9.536a3.85 1.556 46.8 0 0 .01-.036 3.85 1.556 46.8 0 0 .011-.045 3.85 1.556 46.8 0 0 .01-.045 3.85 1.556 46.8 0 0 .006-.047 3.85 1.556 46.8 0 0 .006-.049 3.85 1.556 46.8 0 0 .003-.05 3.85 1.556 46.8 0 0 .002-.051 3.85 1.556 46.8 0 0 0-.053 3.85 1.556 46.8 0 0-.003-.054 3.85 1.556 46.8 0 0-.003-.056 3.85 1.556 46.8 0 0-.006-.057 3.85 1.556 46.8 0 0-.008-.058 3.85 1.556 46.8 0 0-.009-.059 3.85 1.556 46.8 0 0-.01-.06 3.85 1.556 46.8 0 0-.014-.062 3.85 1.556 46.8 0 0-.015-.063 3.85 1.556 46.8 0 0-.016-.063 3.85 1.556 46.8 0 0-.018-.065 3.85 1.556 46.8 0 0-.005-.016 3.85 1.556 46.8 0 0-.02-.065 3.85 1.556 46.8 0 0-.022-.067 3.85 1.556 46.8 0 0-.025-.068 3.85 1.556 46.8 0 0-.025-.068 3.85 1.556 46.8 0 0-.027-.07 3.85 1.556 46.8 0 0-.03-.07 3.85 1.556 46.8 0 0-.03-.07 3.85 1.556 46.8 0 0-.032-.072 3.85 1.556 46.8 0 0-.034-.072 3.85 1.556 46.8 0 0-.036-.073 3.85 1.556 46.8 0 0-.037-.073 3.85 1.556 46.8 0 0-.039-.074 3.85 1.556 46.8 0 0-.04-.074 3.85 1.556 46.8 0 0-.042-.074 3.85 1.556 46.8 0 0-.043-.075 3.85 1.556 46.8 0 0-.045-.075 3.85 1.556 46.8 0 0-.046-.075 3.85 1.556 46.8 0 0-.048-.076 3.85 1.556 46.8 0 0-.048-.075 3.85 1.556 46.8 0 0-.05-.076 3.85 1.556 46.8 0 0-.052-.076 3.85 1.556 46.8 0 0-.053-.076 3.85 1.556 46.8 0 0-.054-.076 3.85 1.556 46.8 0 0-.055-.075 3.85 1.556 46.8 0 0-.057-.076 3.85 1.556 46.8 0 0-.057-.075 3.85 1.556 46.8 0 0-.058-.075 3.85 1.556 46.8 0 0-.06-.074 3.85 1.556 46.8 0 0-.06-.075 3.85 1.556 46.8 0 0-.062-.074 3.85 1.556 46.8 0 0-.063-.074 3.85 1.556 46.8 0 0-.063-.072 3.85 1.556 46.8 0 0-.065-.073 3.85 1.556 46.8 0 0-.065-.072 3.85 1.556 46.8 0 0-.066-.071 3.85 1.556 46.8 0 0-.067-.071 3.85 1.556 46.8 0 0-.067-.07 3.85 1.556 46.8 0 0-.068-.07 3.85 1.556 46.8 0 0-.068-.068 3.85 1.556 46.8 0 0-.07-.067 3.85 1.556 46.8 0 0-.07-.067 3.85 1.556 46.8 0 0-.07-.066 3.85 1.556 46.8 0 0-.07-.065 3.85 1.556 46.8 0 0-.071-.064 3.85 1.556 46.8 0 0-.072-.062 3.85 1.556 46.8 0 0-.071-.062 3.85 1.556 46.8 0 0-.072-.06 3.85 1.556 46.8 0 0-.072-.06 3.85 1.556 46.8 0 0-.072-.058 3.85 1.556 46.8 0 0-.073-.057 3.85 1.556 46.8 0 0-.072-.055 3.85 1.556 46.8 0 0-.072-.054 3.85 1.556 46.8 0 0-.073-.054 3.85 1.556 46.8 0 0-.072-.051 3.85 1.556 46.8 0 0-.072-.05 3.85 1.556 46.8 0 0-.072-.049 3.85 1.556 46.8 0 0-.072-.047 3.85 1.556 46.8 0 0-.072-.046 3.85 1.556 46.8 0 0-.071-.044 3.85 1.556 46.8 0 0-.071-.042 3.85 1.556 46.8 0 0-.07-.042 3.85 1.556 46.8 0 0-.07-.039 3.85 1.556 46.8 0 0-.017-.009 3.85 1.556 46.8 0 0-.07-.037 3.85 1.556 46.8 0 0-.068-.036 3.85 1.556 46.8 0 0-.068-.034 3.85 1.556 46.8 0 0-.068-.032 3.85 1.556 46.8 0 0-.067-.03 3.85 1.556 46.8 0 0-.067-.03 3.85 1.556 46.8 0 0-.065-.026 3.85 1.556 46.8 0 0-.065-.025 3.85 1.556 46.8 0 0-.064-.024 3.85 1.556 46.8 0 0-.063-.021 3.85 1.556 46.8 0 0-.062-.02 3.85 1.556 46.8 0 0-.061-.018 3.85 1.556 46.8 0 0-.06-.016 3.85 1.556 46.8 0 0-.06-.013 3.85 1.556 46.8 0 0-.058-.013 3.85 1.556 46.8 0 0-.057-.01 3.85 1.556 46.8 0 0-.056-.009 3.85 1.556 46.8 0 0-.054-.006 3.85 1.556 46.8 0 0-.054-.005 3.85 1.556 46.8 0 0-.052-.002 3.85 1.556 46.8 0 0-.051-.001 3.85 1.556 46.8 0 0-.05.001 3.85 1.556 46.8 0 0-.048.003 3.85 1.556 46.8 0 0-.047.005 3.85 1.556 46.8 0 0-.045.007 3.85 1.556 46.8 0 0-.044.008 3.85 1.556 46.8 0 0-.043.011 3.85 1.556 46.8 0 0-.04.013 3.85 1.556 46.8 0 0-.04.014 3.85 1.556 46.8 0 0-.038.017A3.85 1.556 46.8 0 0 2 4.124l.003.003-.02.02a.27.27 0 0 0-.004.378l4.823 4.918a.258.258 0 0 0 .37-.004l.02-.02z"/></svg>