<svg width="64" height="64" version="1.1" xmlns="http://www.w3.org/2000/svg">
 <rect x="6" y="6" width="52" height="52" rx="6.7407" ry="6.7407" fill="#373738" stroke-width=".86669"/>
 <rect transform="rotate(90)" x="12" y="-11" width="4" height="3" fill="#fff" opacity=".5" stroke-width=".94282"/>
 <path d="m41.999 32-15 11v-22z" fill="#fff" opacity=".35" stroke-width="1.2369"/>
 <g fill="#fff" stroke-width=".28471" aria-label="X Jadeo">
  <path d="m11.378 26.884h1.2067l2.063 3.0862 2.0741-3.0862h1.2067l-2.6691 3.987 2.8471 4.3151h-1.2067l-2.3355-3.531-2.3522 3.531h-1.2122l2.9638-4.4319z"/>
  <path d="m23.2 26.884h1.1233v7.7238q0 1.5014-0.57275 2.1798-0.56719 0.6784-1.8295 0.6784h-0.42817v-0.94532h0.35032q0.74513 0 1.051-0.41705 0.30584-0.41705 0.30584-1.4958z"/>
  <path d="m29.345 32.056q-1.24 0-1.7183 0.2836-0.47822 0.2836-0.47822 0.96756 0 0.54495 0.35588 0.86747 0.36144 0.31696 0.97868 0.31696 0.85079 0 1.3624-0.60056 0.51714-0.60612 0.51714-1.607v-0.22799zm2.0408-0.42261v3.5533h-1.0232v-0.94532q-0.35032 0.56719-0.87303 0.83966-0.5227 0.26691-1.279 0.26691-0.95644 0-1.5236-0.53383-0.56163-0.53939-0.56163-1.4402 0-1.051 0.70065-1.5848 0.70621-0.53383 2.1019-0.53383h1.4347v-0.10009q0-0.70621-0.4671-1.0899-0.46154-0.38925-1.3012-0.38925-0.53383 0-1.0398 0.1279t-0.97312 0.38369v-0.94532q0.56163-0.21687 1.0899-0.32252 0.52827-0.11121 1.0287-0.11121 1.3512 0 2.0185 0.70065 0.66728 0.70065 0.66728 2.1242z"/>
  <path d="m37.591 29.904v-3.3698h1.0232v8.6524h-1.0232v-0.9342q-0.32252 0.55607-0.81742 0.82854-0.48934 0.26691-1.1789 0.26691-1.1288 0-1.8406-0.90083-0.70621-0.90083-0.70621-2.3689t0.70621-2.3689q0.71177-0.90083 1.8406-0.90083 0.68953 0 1.1789 0.27247 0.4949 0.26691 0.81742 0.82298zm-3.4866 2.1742q0 1.1288 0.46154 1.7739 0.4671 0.63948 1.279 0.63948 0.81186 0 1.279-0.63948 0.4671-0.64504 0.4671-1.7739t-0.4671-1.7683q-0.4671-0.64504-1.279-0.64504-0.81186 0-1.279 0.64504-0.46154 0.63948-0.46154 1.7683z"/>
  <path d="m46.049 31.816v0.50046h-4.7043q0.06673 1.0565 0.63392 1.6126 0.57275 0.55051 1.5904 0.55051 0.58943 0 1.1399-0.14458 0.55607-0.14458 1.101-0.43373v0.96756q-0.55051 0.23355-1.1288 0.35588-0.57831 0.12234-1.1733 0.12234-1.4903 0-2.3633-0.86747-0.86747-0.86747-0.86747-2.3466 0-1.5292 0.82298-2.4245 0.82854-0.90083 2.2298-0.90083 1.2567 0 1.9852 0.81186 0.73401 0.8063 0.73401 2.1965zm-1.0232-0.30028q-0.01112-0.83966-0.47266-1.3401-0.45598-0.50046-1.2122-0.50046-0.85635 0-1.3735 0.48378-0.51158 0.48378-0.58943 1.3624z"/>
  <path d="m50.142 29.676q-0.82298 0-1.3012 0.64504-0.47822 0.63948-0.47822 1.7572t0.47266 1.7627q0.47822 0.63948 1.3068 0.63948 0.81742 0 1.2956-0.64504t0.47822-1.7572q0-1.1066-0.47822-1.7516-0.47822-0.6506-1.2956-0.6506zm0-0.86747q1.3346 0 2.0964 0.86747 0.76182 0.86747 0.76182 2.4022 0 1.5292-0.76182 2.4022-0.76182 0.86747-2.0964 0.86747-1.3401 0-2.1019-0.86747-0.75625-0.87303-0.75625-2.4022 0-1.5348 0.75625-2.4022 0.76182-0.86747 2.1019-0.86747z"/>
 </g>
 <rect transform="rotate(90)" x="12" y="-16" width="4" height="3" fill="#fff" opacity=".5" stroke-width=".94282"/>
 <rect transform="rotate(90)" x="12" y="-21" width="4" height="3" fill="#fff" opacity=".5" stroke-width=".94282"/>
 <rect transform="rotate(90)" x="12" y="-26" width="4" height="3" fill="#fff" opacity=".5" stroke-width=".94282"/>
 <rect transform="rotate(90)" x="12" y="-31" width="4" height="3" fill="#fff" opacity=".5" stroke-width=".94282"/>
 <rect transform="rotate(90)" x="12" y="-36" width="4" height="3" fill="#fff" opacity=".5" stroke-width=".94282"/>
 <rect transform="rotate(90)" x="12" y="-41" width="4" height="3" fill="#fff" opacity=".5" stroke-width=".94282"/>
 <rect transform="rotate(90)" x="12" y="-46" width="4" height="3" fill="#fff" opacity=".5" stroke-width=".94282"/>
 <rect transform="rotate(90)" x="12" y="-51" width="4" height="3" fill="#fff" opacity=".5" stroke-width=".94282"/>
 <rect transform="rotate(90)" x="12" y="-56" width="4" height="3" fill="#fff" opacity=".5" stroke-width=".94282"/>
 <rect transform="rotate(90)" x="48" y="-11" width="4" height="3" fill="#fff" opacity=".5" stroke-width=".94282"/>
 <rect transform="rotate(90)" x="48" y="-16" width="4" height="3" fill="#fff" opacity=".5" stroke-width=".94282"/>
 <rect transform="rotate(90)" x="48" y="-21" width="4" height="3" fill="#fff" opacity=".5" stroke-width=".94282"/>
 <rect transform="rotate(90)" x="48" y="-26" width="4" height="3" fill="#fff" opacity=".5" stroke-width=".94282"/>
 <rect transform="rotate(90)" x="48" y="-31" width="4" height="3" fill="#fff" opacity=".5" stroke-width=".94282"/>
 <rect transform="rotate(90)" x="48" y="-36" width="4" height="3" fill="#fff" opacity=".5" stroke-width=".94282"/>
 <rect transform="rotate(90)" x="48" y="-41" width="4" height="3" fill="#fff" opacity=".5" stroke-width=".94282"/>
 <rect transform="rotate(90)" x="48" y="-46" width="4" height="3" fill="#fff" opacity=".5" stroke-width=".94282"/>
 <rect transform="rotate(90)" x="48" y="-51" width="4" height="3" fill="#fff" opacity=".5" stroke-width=".94282"/>
 <rect transform="rotate(90)" x="48" y="-56" width="4" height="3" fill="#fff" opacity=".5" stroke-width=".94282"/>
</svg>
