<svg width="64" height="64" version="1.1" viewBox="0 0 64 64" xmlns="http://www.w3.org/2000/svg">
 <g transform="matrix(1.1739 0 0 1.1739 3.8261 3.8261)" stroke-width=".85185">
  <path d="m24 1c12.703 0 23 10.297 23 23s-10.297 23-23 23-23-10.297-23-23 10.297-23 23-23z" fill="#ececec" stroke-width=".85185"/>
 </g>
 <g transform="matrix(1.0222 0 0 1.0222 -.71111 -.71111)" stroke-width=".97826">
  <path d="m32 14.391c-9.7247 0-17.609 7.884-17.609 17.609 0.0023 6.6549 3.7553 12.74 9.7012 15.728l1.1187-9.2446c-1.6693-1.7468-2.6014-4.0688-2.6026-6.4835 0-5.1863 4.205-9.3913 9.3913-9.3913s9.3913 4.205 9.3913 9.3913c-0.0047 2.4124-0.93678 4.7309-2.6049 6.4753l1.1187 9.2375c5.9412-2.9853 9.6953-9.0626 9.7036-15.713 0-9.7247-7.884-17.609-17.609-17.609" fill="#4d4d4d"/>
  <path d="m32 26.13a5.8696 5.8696 0 0 0-5.8696 5.8696 5.8696 5.8696 0 0 0 2.8092 5.0009l-1.4592 11.997a17.609 17.609 0 0 0 4.5196 0.61044 17.609 17.609 0 0 0 4.5172-0.5987l-1.4568-12.009a5.8696 5.8696 0 0 0 2.8092-5.0009 5.8696 5.8696 0 0 0-5.8696-5.8696" fill="#808080"/>
 </g>
</svg>
