<svg xmlns="http://www.w3.org/2000/svg" xmlns:xlink="http://www.w3.org/1999/xlink" width="64" height="64" viewBox="0 0 16.933 16.933"><defs><linearGradient id="a"><stop offset="0"/><stop offset="1" stop-opacity="0"/></linearGradient><linearGradient xlink:href="#a" id="b" x1="41.387" y1="58" x2="41.387" y2="6" gradientUnits="userSpaceOnUse"/></defs><g transform="translate(0 -280.067)"><rect width="11.113" height="13.758" x="2.91" y="281.654" ry=".529" rx=".529" fill="#b20404" paint-order="markers stroke fill"/><g fill="#fff"><path d="M8.213 285.61s.206 1.92-1.254 4.456c-1.461 2.535-1.89 2.195-2.043 2.106-.154-.087-.35-.37.297-.943.647-.57.9-.56.9-.56s-.592.363-.824.713c-.23.352-.417.572-.362.67.055.098.717-.405.991-.833.436-.68 1.26-1.944 1.644-3.15.385-1.206.65-2.457.65-2.457m.001-.001"/><path d="M11.976 289.986s-.033.089-.433.055c-.4-.034-1.95-.515-2.783-1.501-.833-.986-.9-2.34-.96-3.047-.056-.705.26-.51.305-.42.072.059.107.252.107.252s-.025-.288-.151-.412c-.125-.123-.237-.125-.362.088-.125.212-.184.806-.08 1.377.102.572.524 1.882 1.049 2.486.524.606 1.574 1.135 2.35 1.29.775.157.958-.167.958-.167m0 0"/><path d="M7.069 290.081s1.48-.472 2.882-.602c1.402-.132 1.884.01 2.008.109.123.099.123.208.123.208s.157-.153.053-.308c-.087-.161-.222-.295-1.332-.261-1.11.033-1.189.076-2.21.263-1.02.186-1.525.593-1.525.593m.001-.001"/></g><path d="M46.5 6a57.5 57.5 0 0 1 1 10.5A57.5 57.5 0 0 1 29.773 58H51c1.108 0 2-.892 2-2V8c0-1.108-.892-2-2-2h-4.5z" transform="matrix(.26458 0 0 .26458 0 280.067)" opacity=".25" fill="url(#b)" paint-order="markers stroke fill"/></g></svg>