<svg xmlns="http://www.w3.org/2000/svg" width="64" height="64" viewBox="0 0 16.933 16.933"><rect width="13.758" height="13.758" x="1.587" y="1.587" fill="#df3c3c" rx="2.117" ry="2.117" style="paint-order:markers stroke fill"/><g fill="#fff" stroke-width=".875"><path d="M8.176 5.114s.236 2.194-1.433 5.092-2.16 2.51-2.335 2.407c-.176-.1-.4-.422.34-1.077.739-.652 1.028-.64 1.028-.64s-.676.414-.942.814c-.262.403-.476.654-.413.766s.82-.463 1.132-.952c.499-.777 1.44-2.222 1.88-3.6s.742-2.808.742-2.808"/><path d="M12.477 10.12s-.038.101-.495.062-2.229-.588-3.18-1.715-1.03-2.674-1.098-3.482c-.064-.806.297-.583.349-.48.082.067.122.288.122.288s-.028-.33-.172-.471c-.143-.14-.271-.143-.414.1s-.21.921-.092 1.574c.117.654.6 2.15 1.2 2.841.598.693 1.798 1.297 2.685 1.475.886.179 1.095-.191 1.095-.191"/><path d="M6.869 10.222s1.691-.539 3.294-.688c1.602-.15 2.153.012 2.295.125.14.113.14.238.14.238s.18-.175.06-.352c-.099-.184-.253-.337-1.522-.299-1.268.038-1.359.087-2.525.301-1.166.213-1.743.678-1.743.678"/></g></svg>