<svg width="64" height="64" version="1.1" viewBox="0 0 16.933 16.933" xmlns="http://www.w3.org/2000/svg">
 <defs>
  <linearGradient id="b" x1="41.387" x2="41.387" y1="58" y2="6" gradientTransform="matrix(.26458 0 0 .26458 1.3385 -.00010875)" gradientUnits="userSpaceOnUse">
   <stop offset="0"/>
   <stop stop-opacity="0" offset="1"/>
  </linearGradient>
 </defs>
 <rect x="1.5875" y="1.5875" width="13.758" height="13.758" rx=".52916" ry=".52911" fill="#df3c3c" style="paint-order:markers stroke fill"/>
 <g transform="matrix(1.1429 0 0 1.1429 -1.2104 -321.31)" fill="#fff" stroke-width=".87494">
  <path d="m8.213 285.61s0.206 1.92-1.254 4.456c-1.461 2.535-1.89 2.195-2.043 2.106-0.154-0.087-0.35-0.37 0.297-0.943 0.647-0.57 0.9-0.56 0.9-0.56s-0.592 0.363-0.824 0.713c-0.23 0.352-0.417 0.572-0.362 0.67s0.717-0.405 0.991-0.833c0.436-0.68 1.26-1.944 1.644-3.15 0.385-1.206 0.65-2.457 0.65-2.457"/>
  <path d="m11.976 289.99s-0.033 0.089-0.433 0.055-1.95-0.515-2.783-1.501-0.9-2.34-0.96-3.047c-0.056-0.705 0.26-0.51 0.305-0.42 0.072 0.059 0.107 0.252 0.107 0.252s-0.025-0.288-0.151-0.412c-0.125-0.123-0.237-0.125-0.362 0.088-0.125 0.212-0.184 0.806-0.08 1.377 0.102 0.572 0.524 1.882 1.049 2.486 0.524 0.606 1.574 1.135 2.35 1.29 0.775 0.157 0.958-0.167 0.958-0.167"/>
  <path d="m7.069 290.08s1.48-0.472 2.882-0.602c1.402-0.132 1.884 0.01 2.008 0.109 0.123 0.099 0.123 0.208 0.123 0.208s0.157-0.153 0.053-0.308c-0.087-0.161-0.222-0.295-1.332-0.261-1.11 0.033-1.189 0.076-2.21 0.263-1.02 0.186-1.525 0.593-1.525 0.593"/>
 </g>
 <path d="m13.641 1.5874a15.213 15.213 0 0 1 0.26458 2.7781 15.213 15.213 0 0 1-4.6902 10.98h5.6162c0.29316 0 0.52916-0.23601 0.52916-0.52916v-12.7c0-0.29315-0.236-0.52916-0.52916-0.52916z" fill="url(#b)" opacity=".15" stroke-width=".26458" style="paint-order:markers stroke fill"/>
</svg>
