<svg xmlns="http://www.w3.org/2000/svg" width="64" height="64"><rect width="52" height="52" x="6" y="6" fill="#3f3f3f" fill-rule="evenodd" rx="8" ry="8" style="paint-order:stroke fill markers"/><path fill="#fff" d="M19.084 18.379c-1.352 0-2.465 1.113-2.465 2.465s1.113 2.463 2.465 2.463 2.463-1.11 2.463-2.463-1.11-2.465-2.463-2.465m25.811 0a2.476 2.476 0 0 0-2.465 2.465 2.475 2.475 0 0 0 2.465 2.463c1.352 0 2.463-1.11 2.463-2.463s-1.11-2.465-2.463-2.465m-22.965.705c.327.517.52 1.124.52 1.772 0 .638-.188 1.236-.506 1.748h2.42c5.28 7.039 4.105 7.625 4.105 7.625H21.93c.327.516.52 1.123.52 1.771 0 .638-.187 1.237-.504 1.748h6.523s1.174.588-4.106 7.627H21.93c.326.517.52 1.124.52 1.772 0 .638-.187 1.236-.504 1.748h3.59c11.145-12.905 1.76-12.905 12.905 0h3.614a3.3 3.3 0 0 1-.504-1.748c0-.648.193-1.255.52-1.772h-2.456c-5.28-7.04-4.107-7.627-4.107-7.627h6.547A3.3 3.3 0 0 1 41.55 32c0-.648.193-1.255.52-1.771h-6.563s-1.172-.586 4.107-7.625h2.442a3.3 3.3 0 0 1-.506-1.748c0-.648.193-1.255.52-1.772h-3.63c-11.146 12.905-1.76 12.905-12.906 0zm-2.846.703c.592 0 1.055.465 1.055 1.057s-.463 1.054-1.055 1.054-1.056-.463-1.056-1.054.465-1.057 1.056-1.057m25.811 0c.592 0 1.055.465 1.055 1.057s-.463 1.054-1.055 1.054-1.056-.463-1.056-1.054.465-1.057 1.056-1.057m-25.81 9.739a2.475 2.475 0 0 0-2.466 2.462 2.476 2.476 0 0 0 2.465 2.465 2.475 2.475 0 0 0 2.463-2.465 2.473 2.473 0 0 0-2.463-2.462m25.81 0a2.475 2.475 0 0 0-2.465 2.462 2.476 2.476 0 0 0 2.465 2.465 2.475 2.475 0 0 0 2.463-2.465 2.473 2.473 0 0 0-2.463-2.462m-25.81 1.408c.59 0 1.054.463 1.054 1.054s-.463 1.057-1.055 1.057-1.056-.465-1.056-1.057.465-1.054 1.056-1.054m25.81 0c.592 0 1.055.463 1.055 1.054s-.463 1.057-1.055 1.057-1.056-.465-1.056-1.057.465-1.054 1.056-1.054m-25.81 9.736a2.476 2.476 0 0 0-2.466 2.465 2.475 2.475 0 0 0 2.465 2.463 2.473 2.473 0 0 0 2.463-2.463 2.475 2.475 0 0 0-2.463-2.465m25.81 0a2.476 2.476 0 0 0-2.465 2.465 2.475 2.475 0 0 0 2.465 2.463 2.473 2.473 0 0 0 2.463-2.463 2.475 2.475 0 0 0-2.463-2.465m-25.81 1.408c.59 0 1.054.465 1.054 1.057s-.463 1.055-1.055 1.055a1.045 1.045 0 0 1-1.056-1.055c0-.592.465-1.057 1.056-1.057m25.81 0c.592 0 1.055.465 1.055 1.057s-.463 1.055-1.055 1.055-1.056-.464-1.056-1.055c0-.592.465-1.057 1.056-1.057"/></svg>