<svg width="64" height="64" enable-background="new 0 0 48 48" version="1.1" viewBox="0 0 64 64" xmlns="http://www.w3.org/2000/svg">
 <defs>
  <linearGradient id="a" x1="23.876" x2="23.876" y1="16.35" y2="31.354" gradientTransform="translate(.066857 -.0013136)" gradientUnits="userSpaceOnUse">
   <stop stop-color="#f62f09" offset="0"/>
   <stop stop-color="#ff0034" offset="1"/>
  </linearGradient>
 </defs>
 <circle cx="32.001" cy="32" r="27" fill="#e6e6e6" stroke-width=".9" style="paint-order:normal"/>
 <circle cx="32" cy="32" r="21" fill="#1c1c1c" stroke-width=".70002" style="paint-order:normal"/>
 <g transform="matrix(.79618 0 0 .79618 -69.81 9.2983)">
  <ellipse cx="127.88" cy="24.638" rx="11.079" ry="3.3859" fill="#242424" opacity=".41" stroke-width="1.2307"/>
  <g transform="matrix(1.2308 0 0 1.2308 98.129 .039389)">
   <ellipse cx="20.264" cy="12.583" rx="2.649" ry="4.161" fill="#fdfdfd"/>
  </g>
  <g transform="matrix(1.2308 0 0 1.2308 98.129 .039389)">
   <ellipse cx="27.55" cy="12.583" rx="2.649" ry="4.161" fill="#fdfdfd"/>
  </g>
  <ellipse cx="123.88" cy="15.364" rx="1.3871" ry="2.0615" stroke-width="1.2307"/>
  <path d="m131.14 14.417c0.60553 0 1.1175 0.57477 1.3071 1.376 0.0246 0.10462 0.08 0.10831 0.08-0.0037 0-1.1385-0.62153-2.0615-1.3871-2.0615s-1.3871 0.92304-1.3871 2.0615c0 0.112 0.0529 0.1157 0.0776 0.01477 0.18707-0.80616 0.70153-1.3871 1.3095-1.3871z" stroke-width="1.2307"/>
  <g transform="matrix(1.2308 0 0 1.2308 98.129 .039389)">
   <ellipse cx="21.26" cy="12.431" rx=".462" ry=".633" fill="#fefefe"/>
  </g>
  <g transform="matrix(1.2308 0 0 1.2308 98.129 .039389)" opacity=".6">
   <ellipse transform="matrix(.9988 -.0483 .0483 .9988 -.6089 1.0283)" cx="20.954" cy="13.103" rx=".272" ry=".285" fill="#fefefe"/>
  </g>
  <g transform="matrix(1.2308 0 0 1.2308 98.129 .039389)">
   <path transform="matrix(.73126 0 0 .73126 .77199 2.568)" d="m32 20.027c-6.9319 0-12.553 2.5531-12.553 3.6348 0 0.80091 2.1194 1.9787 5.3418 2.7754-1.3028-1.1338-2.0488-2.1674-2.0781-2.1406l0.17187-2e-3c0.88383 0.80548 8.2874 8.2451 18.195-0.17578l0.14453-2e-3c-0.91166 1.0028-1.8 1.8236-2.668 2.5039 3.5855-0.75652 5.998-2.0003 5.998-2.959 0-1.3415-5.6209-3.6348-12.553-3.6348z" fill="#fcc431" stroke-width="1.3675"/>
  </g>
 </g>
 <g transform="translate(-95.879)" fill="#1c1c1c" stroke-width=".78563">
  <path d="m110.19 31.048s-5.2355 0.52931-7.2956 5.5768c0 0-2.1946 4.8417 3.4119 1.2082l4.2907-3.1614z"/>
  <path d="m145.74 31.048s5.2355 0.52931 7.2956 5.5768c0 0 2.1946 4.8417-3.4119 1.2082l-4.2907-3.1614z"/>
 </g>
 <path d="m46.485 34c-2.6566 3.0509-8.3146 2.662-14.418 2.6666-6.0978-0.0029-11.047 0.39131-13.71-2.6548-1.0539 1.9202-2.2152 1.6979-2.222 3.8342 0 7.817 7.1331 14.154 15.932 14.154s15.932-6.337 15.932-14.154c-4e-3 -2.1401 0.0554-1.9222-1-3.846z" fill="#fff" stroke-width=".6257" style="paint-order:normal"/>
 <g transform="matrix(1.1747,0,0,1.1747,1.155,3.6021)">
  <path d="m16.6 27.523s-2.0359 8.0209 0.96615 9.6168c0 0 1.5155 1.043 3.7542 0.49811 0 0 1.949-0.40116 1.6102-3.3006 0 0-0.29084-3.8099 0.039-5.5092z" fill="#d4001b" stroke-width="1.1143"/>
 </g>
 <g transform="matrix(1.5284 .020752 -.014341 1.0562 -4.294 8.8649)">
  <path d="m37.317 16.887c-2.448 5.1287-7.2208 8.1376-13.251 8.1376-5.885 0-10.571-2.6118-13.09-7.541-1.07-2.0938-3.067 3.7267-1.664 6.0139 2.815 4.59 8.109 7.7368 14.213 7.8523 6.681 0.12524 12.484-3.4167 15.17-8.6244 0.991-1.9211-0.56317-7.5454-1.3782-5.8383z" fill="url(#a)" stroke-width="1.1027"/>
 </g>
</svg>
