<svg width="64" height="64" version="1.1" viewBox="0 0 64 64" xmlns="http://www.w3.org/2000/svg">
 <path d="m32 5c14.912 0 27 12.088 27 27s-12.088 27-27 27-27-12.088-27-27 12.088-27 27-27z" fill="#61544c" stroke-width="1.1739"/>
 <path d="m31.78 14.543c-3.9977 5.456-17.578 20.845-11.797 29.731 4.4798 6.8821 19.697 6.9184 24.119 0 5.7595-8.9958-8.9179-24.279-12.322-29.731" fill="#f48e51" stroke-width="1.3428"/>
 <path d="m30.416 25.831c-7.8423 0.50357-10.517 11.896-7.5173 17.085 3.3155 5.0935 12.878 6.1476 18.8 3.1839-1.038-1.1065-2.4816-2.2399-4.3643-2.722-4.2273-1.0917-10.554-7.6382-7.3803-12.002 3.1732-4.3643 8.4345 0 8.4345 0s-1.0541-4.3643-6.3369-5.4601c-0.33034-0.06311-0.70768-0.06849-1.0488-0.0846-0.21486-0.0108-0.37197-0.0108-0.5828 0" fill="#ffc675" stroke-width="1.3428"/>
</svg>
