<svg xmlns="http://www.w3.org/2000/svg" width="64" height="64" viewBox="0 0 16.933 16.933"><g stroke-width=".265"><path fill="#38d23a" d="M3.175 2.91a.265.265 0 0 0-.187.078L1.136 4.84a.265.265 0 0 0-.078.187v8.202c0 .44.354.794.794.794h11.377a.265.265 0 0 0 .187-.078l2.381-2.381a.265.265 0 0 0 .078-.187V3.704a.792.792 0 0 0-.794-.794z"/><path fill="#fafafa" d="M5.819 5.556c-.88 0-1.588.708-1.588 1.588V9.79c0 .879.708 1.587 1.588 1.587h.778l.742 1.091.876-.595-.503-.738c.451-.28.753-.774.753-1.345V7.144c0-.88-.708-1.588-1.588-1.588zm4.233 0v1.059h-.529v1.058h.53v2.116c0 .88.707 1.588 1.587 1.588l1.058-.265v-.793H11.64a.528.528 0 0 1-.53-.53V7.673h1.588V6.615h-1.587V5.556zM5.82 6.615h1.058c.293 0 .53.236.53.529v2.645c0 .294-.237.53-.53.53H5.82a.528.528 0 0 1-.53-.53V7.144c0-.293.237-.53.53-.53z"/></g></svg>