<svg xmlns="http://www.w3.org/2000/svg" width="64" height="64" viewBox="0 0 16.933 16.933"><defs><linearGradient id="a" x1="1" x2="47" gradientUnits="userSpaceOnUse" gradientTransform="rotate(-90 24 24)"><stop stop-color="#48a113"/><stop offset="1" stop-color="#4fb215"/></linearGradient></defs><path d="M24 1c12.703 0 23 10.297 23 23S36.703 47 24 47 1 36.703 1 24 11.297 1 24 1z" fill="url(#a)" transform="matrix(.2991 0 0 .2991 1.288 1.288)"/><path d="M8.467 2.646a5.82 5.82 0 1 1 0 11.641 5.82 5.82 0 0 1 0-11.641z" opacity=".15"/><g aria-label="Qt" style="line-height:1.25" font-weight="400" font-size="6.972" font-family="sans-serif" letter-spacing="0" word-spacing="0" fill="#fff" stroke-width=".174"><path d="M7.244 6.413q-.62 0-.988.463-.363.462-.363 1.26 0 .796.363 1.259.367.463.988.463.62 0 .981-.463.364-.463.364-1.258 0-.799-.364-1.261-.36-.463-.981-.463zm.798 3.75l.75.82h-.688l-.623-.674-.144.008q-.048.003-.093.003-.889 0-1.422-.593-.53-.595-.53-1.59 0-1 .53-1.592.533-.595 1.422-.595.886 0 1.416.595.53.593.53 1.591 0 .734-.296 1.256-.293.522-.852.77zM10.573 6.927v.897h1.069v.403h-1.07v1.715q0 .387.105.497.107.11.432.11h.533v.434h-.533q-.601 0-.83-.223-.228-.225-.228-.818V8.227H9.67v-.403h.38v-.897z"/></g></svg>