<svg width="64" height="64" version="1.1" viewBox="0 0 16.933 16.933" xmlns="http://www.w3.org/2000/svg">
 <g transform="translate(0 -1.5927)" stroke-width=".26458">
  <path d="m3.1749 4.5031a0.26458 0.26458 0 0 0-0.18706 0.077521l-1.852 1.852a0.26458 0.26458 0 0 0-0.077521 0.18706v8.2019c0 0.43973 0.35401 0.79374 0.79373 0.79374h11.377a0.26458 0.26458 0 0 0 0.18706-0.07752l2.3812-2.3812a0.26458 0.26458 0 0 0 0.07752-0.18706v-7.6728c0-0.43973-0.354-0.79373-0.79373-0.79373z" fill="#38d23a"/>
  <path d="m5.8189 7.1489c-0.87946 0-1.5875 0.70801-1.5875 1.5875v2.6458c0 0.87946 0.70801 1.5875 1.5875 1.5875h0.77812l0.74214 1.0914 0.87549-0.5953-0.50243-0.73817c0.45084-0.27939 0.75246-0.77389 0.75246-1.3454v-2.6458c0-0.87946-0.70801-1.5875-1.5875-1.5875zm4.2333 0v1.0583h-0.52916v1.0583h0.52916v2.1166c0 0.87946 0.70801 1.5875 1.5875 1.5875l1.0583-0.26458v-0.79373h-1.0583c-0.29315 0-0.52916-0.236-0.52916-0.52916v-2.1166h1.5875v-1.0583h-1.5875v-1.0583zm-4.2333 1.0583h1.0583c0.29315 0 0.52916 0.236 0.52916 0.52916v2.6458c0 0.29315-0.236 0.52916-0.52916 0.52916h-1.0583c-0.29315 0-0.52916-0.236-0.52916-0.52916v-2.6458c0-0.29315 0.236-0.52916 0.52916-0.52916z" fill="#fafafa"/>
 </g>
</svg>
