<svg xmlns="http://www.w3.org/2000/svg" width="64" height="64"><g transform="translate(0 -1061.5)"><path fill="#38d23a" d="M12 1075.5a1 1 0 0 0-.707.293l-7 7a1 1 0 0 0-.293.707v31c0 1.662 1.338 3 3 3h43a1 1 0 0 0 .707-.293l9-9a1 1 0 0 0 .293-.707v-29c0-1.662-1.338-3-3-3z"/><path fill="#fafafa" d="M21.993 1085.5c-3.324 0-6 2.676-6 6v10c0 3.324 2.676 6 6 6h2.941l2.805 4.125 3.309-2.25-1.899-2.79c1.704-1.056 2.844-2.925 2.844-5.085v-10c0-3.324-2.676-6-6-6zm16 0v4h-2v4h2v8c0 3.324 2.676 6 6 6l4-1v-3h-4c-1.108 0-2-.892-2-2v-8h6v-4h-6v-4zm-16 4h4c1.108 0 2 .892 2 2v10c0 1.108-.892 2-2 2h-4c-1.108 0-2-.892-2-2v-10c0-1.108.892-2 2-2"/><circle cx="54" cy="1077.5" r="9" fill="#37474f"/><path fill="#78909c" d="M49 1071.5h6v1h-6z"/><path fill="#ff7043" d="M57 1071.5h2v1h-2z"/><path fill="#26c6da" d="M51 1073.5h6v1h-6z"/><path fill="#78909c" d="M49 1075.5h7v1h-7z"/><path fill="#9ccc65" d="M51 1077.5h7v1h-7zm1 2h8v1h-8z"/><path fill="#26c6da" d="M51 1081.5h6v1h-6z"/><path fill="#ff7043" d="M53 1083.5h4v1h-4z"/></g></svg>