<svg xmlns="http://www.w3.org/2000/svg" width="64" height="64"><path fill="#ccc" d="M22.463 13.2c-1.488 0-2.97 1.277-2.687 2.8l4.164 22.4-7.462 15.553c-.531 1.067-.63 1.719-.241 2.647.371.886 1.331 1.4 2.33 1.4h26.868c.998 0 1.958-.514 2.33-1.4.389-.928.29-1.58-.242-2.647L40.061 38.4 44.225 16c.283-1.523-1.198-2.8-2.687-2.8h-9.537z"/><path fill="#e4e4e4" d="M4 44v3.2C4 48.751 5.249 50 6.8 50h50.4c1.551 0 2.8-1.249 2.8-2.8V44z"/><path fill="#077063" d="M6.8 6A2.794 2.794 0 0 0 4 8.8V44h56V8.8C60 7.249 58.751 6 57.2 6z"/><path fill="none" stroke="#30dd81" stroke-linecap="round" stroke-width="4.2" d="m19.68 27.6-5.58-7.5m30.22 7.5 5.58-7.5"/><path fill="#30dd81" d="M32.003 22c-11.489 0-20.93 8.727-22 19.884C9.902 44.001 12.137 44 12.137 44h39.671s2.3 0 2.188-2.223C52.876 30.67 43.456 22 32.003 22"/><path fill="#fff" d="M21 32a3 3 0 0 1 3 3 3 3 0 0 1-3 3 3 3 0 0 1-3-3 3 3 0 0 1 3-3m22 0a3 3 0 0 1 3 3 3 3 0 0 1-3 3 3 3 0 0 1-3-3 3 3 0 0 1 3-3"/></svg>