<svg xmlns="http://www.w3.org/2000/svg" xmlns:xlink="http://www.w3.org/1999/xlink" width="64" height="64" viewBox="0 0 16.933 16.933"><defs><linearGradient id="a"><stop offset="0"/><stop offset="1" stop-opacity="0"/></linearGradient><linearGradient gradientTransform="matrix(.26458 0 0 .26458 0 280.067)" xlink:href="#a" id="b" x1="46.168" y1="57" x2="46.168" y2="27.346" gradientUnits="userSpaceOnUse"/></defs><g paint-order="markers stroke fill"><g transform="matrix(1.04 0 0 1.04 -.339 -291.608)" stroke-width=".962"><rect ry=".794" rx=".794" y="281.919" x="1.852" height="13.229" width="13.229" fill="#4d4d4d"/><path d="M15.081 287.302a11.906 11.906 0 0 1-5.732 7.846h4.938c.44 0 .794-.354.794-.794z" opacity=".25" fill="url(#b)"/></g><g transform="matrix(1.2 0 0 1.2 -1.693 -336.186)" stroke-width=".833"><rect rx=".265" ry=".265" y="283.242" x="7.673" height="1.587" width="1.587" fill="#ff3b53"/><rect width="1.587" height="1.587" x="9.26" y="283.242" ry=".265" rx=".265" fill="#ff3b53"/><rect rx=".265" ry=".265" y="283.242" x="10.848" height="1.587" width="1.587" fill="#ff3b53"/><rect width="1.587" height="1.587" x="10.848" y="284.829" ry=".265" rx=".265" fill="#ff3b53"/><rect width="1.587" height="1.587" x="7.673" y="286.417" ry=".265" rx=".265" fill="#1cbedd"/><rect rx=".265" ry=".265" y="288.004" x="7.673" height="1.587" width="1.587" fill="#1cbedd"/><rect width="1.587" height="1.587" x="9.26" y="288.004" ry=".265" rx=".265" fill="#1cbedd"/><rect rx=".265" ry=".265" y="289.592" x="9.26" height="1.587" width="1.587" fill="#1cbedd"/><rect width="1.587" height="1.587" x="7.673" y="289.592" ry=".265" rx=".265" fill="#f5ab00"/><rect rx=".265" ry=".265" y="289.592" x="6.085" height="1.587" width="1.587" fill="#f5ab00"/><rect width="1.587" height="1.587" x="6.085" y="288.004" ry=".265" rx=".265" fill="#f5ab00"/><rect width="1.587" height="1.587" x="4.498" y="289.592" ry=".265" rx=".265" fill="#f5ab00"/></g></g></svg>