<svg xmlns="http://www.w3.org/2000/svg" width="64" height="64" viewBox="0 0 16.933 16.933"><g paint-order="markers stroke fill"><rect width="13.229" height="13.229" x="1.852" y="281.92" fill="#4d4d4d" stroke-width=".962" rx="1.526" ry="1.526" transform="matrix(1.04 0 0 1.04 -.339 -291.61)"/><g stroke-width=".833" transform="matrix(1.2 0 0 1.2 -1.693 -336.19)"><rect width="1.587" height="1.587" x="7.673" y="283.24" fill="#ff3b53" rx=".265" ry=".265"/><rect width="1.587" height="1.587" x="9.26" y="283.24" fill="#ff3b53" rx=".265" ry=".265"/><rect width="1.587" height="1.587" x="10.848" y="283.24" fill="#ff3b53" rx=".265" ry=".265"/><rect width="1.587" height="1.587" x="10.848" y="284.83" fill="#ff3b53" rx=".265" ry=".265"/><rect width="1.587" height="1.587" x="7.673" y="286.42" fill="#1cbedd" rx=".265" ry=".265"/><rect width="1.587" height="1.587" x="7.673" y="288" fill="#1cbedd" rx=".265" ry=".265"/><rect width="1.587" height="1.587" x="9.26" y="288" fill="#1cbedd" rx=".265" ry=".265"/><rect width="1.587" height="1.587" x="9.26" y="289.59" fill="#1cbedd" rx=".265" ry=".265"/><rect width="1.587" height="1.587" x="7.673" y="289.59" fill="#f5ab00" rx=".265" ry=".265"/><rect width="1.587" height="1.587" x="6.085" y="289.59" fill="#f5ab00" rx=".265" ry=".265"/><rect width="1.587" height="1.587" x="6.085" y="288" fill="#f5ab00" rx=".265" ry=".265"/><rect width="1.587" height="1.587" x="4.498" y="289.59" fill="#f5ab00" rx=".265" ry=".265"/></g></g></svg>