<svg width="64" height="64" version="1.1" viewBox="0 0 16.933 16.933" xmlns="http://www.w3.org/2000/svg" xmlns:xlink="http://www.w3.org/1999/xlink">
 <g paint-order="markers stroke fill">
  <g transform="matrix(1.04 0 0 1.04 -.339 -291.61)" stroke-width=".962">
   <rect x="1.852" y="281.92" width="13.229" height="13.229" rx="1.5261" ry="1.5261" fill="#4d4d4d"/>
  </g>
  <g transform="matrix(1.2 0 0 1.2 -1.693 -336.19)" stroke-width=".833">
   <rect x="7.673" y="283.24" width="1.587" height="1.587" rx=".265" ry=".265" fill="#ff3b53"/>
   <rect x="9.26" y="283.24" width="1.587" height="1.587" rx=".265" ry=".265" fill="#ff3b53"/>
   <rect x="10.848" y="283.24" width="1.587" height="1.587" rx=".265" ry=".265" fill="#ff3b53"/>
   <rect x="10.848" y="284.83" width="1.587" height="1.587" rx=".265" ry=".265" fill="#ff3b53"/>
   <rect x="7.673" y="286.42" width="1.587" height="1.587" rx=".265" ry=".265" fill="#1cbedd"/>
   <rect x="7.673" y="288" width="1.587" height="1.587" rx=".265" ry=".265" fill="#1cbedd"/>
   <rect x="9.26" y="288" width="1.587" height="1.587" rx=".265" ry=".265" fill="#1cbedd"/>
   <rect x="9.26" y="289.59" width="1.587" height="1.587" rx=".265" ry=".265" fill="#1cbedd"/>
   <rect x="7.673" y="289.59" width="1.587" height="1.587" rx=".265" ry=".265" fill="#f5ab00"/>
   <rect x="6.085" y="289.59" width="1.587" height="1.587" rx=".265" ry=".265" fill="#f5ab00"/>
   <rect x="6.085" y="288" width="1.587" height="1.587" rx=".265" ry=".265" fill="#f5ab00"/>
   <rect x="4.498" y="289.59" width="1.587" height="1.587" rx=".265" ry=".265" fill="#f5ab00"/>
  </g>
 </g>
</svg>
