<svg width="64" height="64" version="1.1" xmlns="http://www.w3.org/2000/svg" xmlns:xlink="http://www.w3.org/1999/xlink">
 <defs>
  <linearGradient id="linearGradient865" x1="8.8152" x2="8.7827" y1="24.071" y2="-4.8501" gradientTransform="scale(3.7796)" gradientUnits="userSpaceOnUse">
   <stop stop-color="#4d7280" offset="0"/>
   <stop stop-color="#adbdc2" offset="1"/>
  </linearGradient>
 </defs>
 <rect x="4" y="3.9686" width="56.002" height="56.002" rx="13.002" ry="13.002" display="none" fill="url(#linearGradient865)" stroke-width="3.7796"/>
 <rect x="6" y="4" width="52" height="56" rx="8" ry="8" fill="#175261" stroke-width="3.642"/>
 <path d="m12.834 10.071h3.8013m0.54304 0h3.5298m0.56819 0h3.1496m0.5179 0h1.3576m0.54304 0h3.041m0.59735 0h7.9827m0.54305 0h6.0821m0.54304 0h1.8463m-34.646 3.754h5.8941m0.68573 0h2.8163m0.52062 0h1.3898m0.56546 0h2.5942m0.54304 0h2.6605m0.50222 0h4.1777m0.54305 0h5.5113m-28.404 3.7373h4.9887m0.52407 0h8.216m0.50355 0h3.9846m0.51071 0h3.7275m0.53455 0h3.1753m0.51071 0 4.994 0.03333m-31.67 3.7373h6.9362m0.54468 0h7.4968m0.5179 0h2.946m0.54304 0h7.012m0.47195 0h4.806m0.54304 0h1.9021m0.54304 0h1.0522m-35.315 3.754h2.5891m0.79547 0h9.5867m-12.971 16.267h5.8941m0.68573 0h2.8163m0.52062 0h1.3898m0.56546 0h2.5942m0.54304 0h2.6605m0.50222 0h4.1777m-22.35 4.9541h4.9887m0.52407 0h8.216m0.50355 0h3.9846m14.081 0.10236h8.1384m-40.436-8.8104h6.9362m0.54468 0h7.4968m0.5179 0h2.946m0.54304 0h7.012m-25.997-7.5079h3.8013m0.54304 0h3.5298m0.56819 0h3.1496m0.5179 0h1.3576m0.54304 0h3.041m0.59735 0h7.9827m0.54305 0h6.0821m-32.257 3.754h6.4019m0.50357 0h6.798m0.5179 0h2.6582m0.50194 0h6.3954m0.51306 0h6.9846m-31.274 16.268h5.9824m0.64218 0h2.6375m0.61776 0h1.3155m0.41875 0h2.5969m0.34476 0h13.748m0.64692 0h3.67m0.49347 0h0.92666m-27.226 3.7534h1.9515m-8.7669 0h6.2442m3.0219 0h4.5405m0.4803 0h6.6651m0.5179 0h4.5216m0.45516 0h0.93174m0.50946 0h5.7416m0.58699 0h3.006" fill="none" opacity=".15" stroke="#f1f3f4" stroke-width="1.2327px"/>
 <path d="m26.844 10.071h3.041m5.8412 3.754h5.5113m-10.232 27.529h4.1777m3.8249-11.262h6.0821" fill="none" stroke="#268bd2" stroke-width="1.2327px"/>
 <path d="m12.834 10.071h3.8013m15.183 11.262h7.012m-14.125 20.021h2.5942m4.5183-3.754h7.012m-25.997-7.5079h3.8013m0.54304 0h3.5298" fill="none" stroke="#859900" stroke-width="1.2327px"/>
 <path d="m12.834 17.563h4.9887m29.274 3.7706h1.0522m-35.315 20.021h5.8941m-5.8941-11.262h3.8013m10.42 3.754h2.6582m-2.5927 20.021h6.6651" fill="none" stroke="#d33682" stroke-width="1.2327px"/>
 <g transform="matrix(1.2194 0 0 1.2194 -4.7738 -2.8651)" fill="none" shape-rendering="auto" stroke="#ffffff" stroke-width="4">
  <path d="m31.974 38.279h0.94727c4.432 0 8.0264-3.568 8.0264-8v-4c0-4.432-3.5944-8-8.0264-8h-0.94727" color="#000000" color-rendering="auto" image-rendering="auto" solid-color="#000000" style="isolation:auto;mix-blend-mode:normal"/>
  <path d="m27.949 18.279h-7.002v20h6.998" color="#000000" color-rendering="auto" image-rendering="auto" solid-color="#000000" style="isolation:auto;mix-blend-mode:normal"/>
 </g>
</svg>
