<svg width="64" height="64" version="1.1" viewBox="0 0 64 64" xmlns="http://www.w3.org/2000/svg">
 <g transform="translate(4 4)">
  <g transform="matrix(1.1739 0 0 1.1739 -.17391 -.17391)" fill="#1c394a">
   <path d="m24 1c12.703 0 23 10.297 23 23s-10.297 23-23 23-23-10.297-23-23 10.297-23 23-23z" fill="#1c394a"/>
  </g>
  <g transform="matrix(1.1739 0 0 1.1739 -.17391 -.17391)">
   <path d="m36 34s-2-3-5-3c-2.797 0.539-3.906 0.082-4 0v-12.11c-0.133-2.547-2.223-5.102-5.336-6.277-3.949-1.492-8.125-0.195-9.332 2.906-1.211 3.098 1 6.848 4.953 8.34 3.059 1.156 5.867 0.867 7.715-0.863v12c4 2.66 7.719-0.961 11-1" fill="#f9f9f9"/>
  </g>
 </g>
</svg>
