<svg xmlns="http://www.w3.org/2000/svg" width="64" height="64"><g fill-rule="evenodd"><path fill="#c8c8c8" d="M38.747 9.09A28.47 22.63 17.344 0 0 4.826 22.204a28.47 22.63 17.344 0 0 20.43 30.088 28.47 22.63 17.344 0 0 33.92-13.114A28.47 22.63 17.344 0 0 38.746 9.09m1.366 8.757a21.235 16.87 17.344 0 1 15.24 22.435 21.235 16.87 17.344 0 1-25.3 9.771 21.235 16.87 17.344 0 1-15.238-22.432 21.235 16.87 17.344 0 1 25.296-9.775" color="#000"/><path fill="#4f61eb" d="m55.586 56.513-9.13.005-6.223-9.197s-1.002-1.723-1.618-2.223c-.513-.416-.733-.565-1.241-.565h-1.155l.003 11.973-7.927.004v-30.6h17.258s6.994 1.291 7.136 8.219c.159 7.723-6.76 9.995-6.76 9.995.95.389 8.58 10.6 9.658 12.383m-13.683-23.96-5.604-.004-.002 5.203 5.606-.001s2.597-.008 2.597-2.646c0-2.692-2.597-2.55-2.597-2.55"/></g></svg>