<svg xmlns="http://www.w3.org/2000/svg" xml:space="preserve" width="64" height="64"><path d="M32 5A26.94 26.94 0 0 0 5 32a26.94 26.94 0 0 0 27 27 26.94 26.94 0 0 0 27-27A26.94 26.94 0 0 0 32 5" style="fill:#2d2d2d;fill-opacity:1;stroke:none;stroke-opacity:1"/><path d="M32 5A26.94 26.94 0 0 0 5 32c0 5.68 1.74 10.938 4.713 15.277l47.994-23.576A26.94 26.94 0 0 0 32 5" style="fill:#00577f;fill-opacity:1;stroke:none;stroke-opacity:1"/><path d="M22.5 16.533v30.705h5.036V34.75h3.45l8.204 12.488h5.926l-9.73-14.1c10-4.244 5.836-16.605-1.298-16.605Zm5.09 4.225c3.457 0 8.328-.122 8.328 4.416 0 3.293-2.128 5.278-8.328 5.278z" style="fill:#fff;fill-opacity:1;stroke:none;stroke-width:.428284px;stroke-linecap:butt;stroke-linejoin:miter;stroke-opacity:1"/></svg>