<svg width="64" height="64" version="1.1" xmlns="http://www.w3.org/2000/svg">
 <rect x="6" y="6" width="52" height="52" rx="8" ry="8" fill="#f2f2f2"/>
 <g>
  <path d="m21.5 28a10.5 10.5 0 0 0-10.5 10.5 10.5 10.5 0 0 0 10.5 10.5h0.003906 10.496v-10.5a10.5 10.5 0 0 0-10.5-10.5z" fill="#2cd4ed" stroke-width="1.05"/>
  <path d="m42.5 28c-5.799 0-10.5 4.701-10.5 10.5v10.5h10.5c5.799 0 10.5-4.701 10.5-10.5s-4.701-10.5-10.5-10.5z" fill="#3169ff" stroke-width="1.05"/>
  <path d="m41.899 19.302a14 14 0 0 0-19.799 0 14 14 0 0 0 0 19.799l9.8995 9.8995 9.8995-9.8995a14 14 0 0 0 0-19.799z" fill="#1988e0"/>
  <path d="m42.5 28c-5.799 0-10.5 4.701-10.5 10.5v10.5l9.9004-9.9004c2.7734-2.7742 4.2557-6.5848 4.0859-10.504-1.1201-0.39427-2.2989-0.5957-3.4863-0.5957z" fill="#3153ff" stroke-width="1.05"/>
  <path d="m21.5 28c5.799 0 10.5 4.701 10.5 10.5v10.5l-9.9004-9.9004c-2.7734-2.7742-4.2557-6.5848-4.0859-10.504 1.1201-0.39427 2.2989-0.5957 3.4863-0.5957z" fill="#0db4e2" stroke-width="1.05"/>
 </g>
</svg>
