<svg xmlns="http://www.w3.org/2000/svg" width="64" height="64" version="1"><g stroke-width=".741" transform="matrix(1.3501 0 0 1.35 -.403 -.4)"><rect width="40" height="39.996" x="-44" y="-44" fill="#2777a7" rx="20" ry="19.998" transform="matrix(0 -1 -1 0 0 0)"/><path fill="#f2f8fa" d="M24 11c-2.117 1.108-3.042 3.112-4 5-.609-.823-.764-1.977-1-3-1.871 2.464-2.696 6.558-3.449 9.021-1.067 3.502-2.425 5.651-4.365 6.903-1.153.744-2.187 1.125-4.42 1.631-.565.168-1.267.325-1.512.381a19.977 19.977 0 0 0 3.758 6.302c.035.04.072.078.107.117a19.913 19.913 0 0 0 2.926 2.67c.127.095.25.194.379.286a20.403 20.403 0 0 0 1.43.919c.3.178.601.352.912.514.205.107.417.201.627.301.485.232.981.444 1.488.637.29.11.58.221.877.318.268.088.541.164.814.24.297.083.595.159.897.229.361.083.721.169 1.09.232 1.011.175 2.048.274 3.107.291h.008c.109.002.216.008.326.008.298 0 .594-.009.889-.021 1.163-1.808 1.313-4.632.923-6.29-.237-.938-.853-2.623-.812-2.689s1.045.035 1.9.035c1.01 0 1.751.037 2.286-.125.452-.137.993-.36 1.314-.344 1.427.072 3.234-.576 3.711-1.845.148-.395.404-.903.568-1.129.269-.371.278-.476.106-1.059-.244-.824-.741-1.508-1.793-2.469-.797-.727-1.052-.802-1.092-1.582-.029-.572.125-.973-.186-1.265-.351-.332-1.387-.119-1.445-.125-.369-.43-.721-.878-.041-1.498.514-.47.608-.646.608-1.16 0-.506-.092-.686-.538-1.077-.294-.258-.611-.468-.705-.468-.093 0-.567-.378-1.05-.838C27.705 19.159 26.98 19 26.25 19c-.591 0-1.25-.146-1.25-1 .786-2.845 3.821-4.343 5-5-2.986-.423-5.019.202-7 2-.093-1.045.889-3.325 1-4z"/></g></svg>