<svg width="64" height="64" version="1.1" viewBox="0 0 16.933 16.933" xmlns="http://www.w3.org/2000/svg">
 <rect x="1.5875" y="1.5875" width="13.758" height="13.758" rx="2.1166" ry="2.1166" fill="#123547" stroke-linecap="round" stroke-linejoin="round" stroke-width=".26977"/>
 <path d="M12.625 8.902c-.644.797-1.34 1.708-2.733 1.708-1.244 0-1.707-1.076-1.74-1.95.273.565.805 1.022 1.637 1.001 1.599-.05 2.695-1.467 2.695-2.757 0-1.543-1.174-2.656-3.211-2.656-1.457 0-3.262.544-4.449 1.404-.012.885.49 2.036.671 1.91C6.523 6.837 7.339 6.37 8.13 6.136c-1.171 1.28-3.98 4.254-4.324 4.777.039.48.645 1.77.941 1.77.09 0 .168-.05.258-.138a38 38 0 0 0 2.151-2.577c.087 1.182.68 2.627 2.336 2.627 1.483 0 2.953-1.05 3.623-3.414.078-.291-.283-.519-.49-.279m-1.689-1.91c0 .747-.748 1.114-1.43 1.114-.366 0-.647-.095-.869-.217.409-.606.813-1.228 1.247-1.894.766.127 1.052.545 1.052.998" fill="#ff4438"/>
</svg>
