<svg width="64" height="64" version="1.1" xmlns="http://www.w3.org/2000/svg">
 <g transform="matrix(.89997 0 0 .89997 3.183 3.1614)" fill="#1f8ff8" stroke-width="1.5715">
  <circle cx="32.02" cy="32.044" r="30.001"/>
  <circle cx="32.02" cy="32.044" r="30.001"/>
  <circle cx="32.02" cy="32.044" r="0"/>
 </g>
 <path d="m18.306 48.145c-4.3419-9.3744-5.5345-19.879-2.9636-26.103 0.4722-1.1432 0.28135-1.0535 5.0558-2.3774 0.26847-0.07445 1.3064-0.88668 2.3065-1.805 5.6619-5.1986 13.241-5.1409 19.184 0.14604 1.674 1.4891 2.1617 1.7574 4.0884 2.2494 1.9872 0.50738 2.2324 0.64821 2.6747 1.5361 0.26785 0.53765 0.70615 2.0378 0.97398 3.3336 0.63808 3.087 0.43161 9.6435-0.41546 13.192-1.1891 4.9824-3.9719 11.844-4.7149 11.626-0.20187-0.05929-0.82114-0.96138-1.3762-2.0046-0.96354-2.0589-2.6636-3.9009-4.3941-4.532-2.948-1.0752-10.071-0.68177-13.056-0.03922-3.4195 0.73606-3.4997 2.2051-4.5949 4.5329-0.62987 1.3389-1.1549 2.0999-1.4488 2.0999-0.28986 0-0.77982-0.68847-1.3201-1.8551z" fill="#2b2b2c" stroke-width=".9"/>
</svg>
