<svg xmlns="http://www.w3.org/2000/svg" width="64" height="64" version="1"><circle cx="32" cy="32" r="27" fill="#e06150" style="paint-order:stroke markers fill"/><g stroke-width=".813"><path fill="#ffde75" d="M31.999 16c-5.539 0-11.077 3.692-11.077 9.23 0 5.54 4.923 6.77 5.848 11.693l2.77 2.462h4.92l2.731-2.462c.962-4.66 5.885-6.154 5.887-11.692.003-5.539-5.54-9.231-11.08-9.231z"/><path fill="#e6e6e6" d="M26.778 36.923c-.68.393-1.022.998-1.022 1.748 0 .514.175.954.541 1.329q-.538.561-.54 1.332.001 1.092.978 1.687a1.9 1.9 0 0 0-.28.981q-.001.96.683 1.483.675.519 1.676.52.431.914 1.3 1.456c.572.358 1.2.541 1.885.541.676 0 1.292-.179 1.872-.54a3.37 3.37 0 0 0 1.306-1.458c.663 0 1.212-.174 1.666-.519.457-.353.69-.842.69-1.483q-.002-.497-.284-.98c.65-.402.97-.96.97-1.688q.002-.771-.54-1.332c.362-.375.54-.815.54-1.33 0-.754-.34-1.359-1.011-1.747z"/><path fill="#fff" d="M25.845 38.154a2 2 0 0 0-.077.5c0 .257.026.51.115.73h12.193c.09-.22.153-.473.153-.73 0-.187-.036-.335-.079-.5zm.074 2.461a1.9 1.9 0 0 0-.153.731c0 .182.035.339.077.5H38.15a2 2 0 0 0 .077-.5c0-.257-.064-.51-.154-.73zm.772 2.462c-.162.298-.23.618-.23.923 0 .107.025.21.038.308h11c.001-.099.038-.2.038-.308 0-.305-.072-.625-.23-.923zM28.306 24l-1.783 1.23 4.245 5.54v6.153h2.462V30.77l4.245-5.538L35.69 24 32 29.077z"/></g></svg>