<svg xmlns="http://www.w3.org/2000/svg" width="64" height="64" viewBox="0 0 16.933 16.933"><rect width="13.758" height="13.758" x="1.587" y="1.587" fill="#84d45e" rx="2.117" ry="2.117"/><path fill="#2a2a2a" d="M5.22 5.863 4.178 9.685h.695l1.042-3.822zm4.517 0L8.694 9.685h.695l1.043-3.822zm1.914 1.042a1.7 1.7 0 0 0-.659.126 1.4 1.4 0 0 0-.497.34 1.45 1.45 0 0 0-.305.514q-.105.295-.106.654 0 .408.112.703t.305.496q.193.195.448.29c.442.153.833.08 1.22-.114v.138c0 .302 0 .549-.107.66q-.225.207-.74.207-.274 0-.529-.056a2.5 2.5 0 0 1-.422-.12l-.106.51a3.3 3.3 0 0 0 1.044.169q.783 0 1.17-.34.385-.339.385-1.093V7.075c-.397-.087-.787-.173-1.213-.17m.518.585v1.909c-.346.252-.587.265-.94.157-.264-.08-.377-.315-.473-.528-.058-.129-.069-.295-.069-.483 0-.34.062-.63.249-.817.382-.383.775-.318 1.233-.239z"/><path fill="#f9f9f9" d="m5.915 5.863 1.042 3.822h.695L6.61 5.863zm1.737 3.822h.695V8.99h-.695z"/></svg>