<svg xmlns="http://www.w3.org/2000/svg" width="64" height="64" viewBox="0 0 16.933 16.933"><rect width="13.758" height="13.758" x="1.587" y="1.587" fill="#2196f3" rx="2.117" ry="2.117" style="paint-order:stroke fill markers"/><path fill="#fff" d="M6.35 3.968H3.175l-.008.53H6.35zM3.175 5.556v.53h1.058v-.53zm1.586 0v.53h6.35v-.53zm0 1.058v.53h9.526v-.53zm-1.586 0v.53h1.058v-.53zm10.054 1.058H4.762v.53h8.467zm-10.054 0v.53h1.058v-.53zM4.762 8.73v.53h5.292v-.53zm-1.587.001v.53h1.058v-.53zm0 1.058v.53h1.058v-.53zm1.587.001v.53h7.41v-.53zm-1.587 1.058v.529h1.058v-.53zm7.937 0-6.35.001v.529h6.35zm-7.937 1.058v.53h1.058v-.53zm1.587 0v.53h7.41v-.53zm0 1.058v.53h6.35v-.53zm-1.587 0v.53h1.058v-.53z" opacity=".5" style="paint-order:stroke markers fill"/><g paint-order="stroke markers fill" transform="translate(.982 -279.17)"><circle cx="11.718" cy="291.87" r="3.175" fill="#f55"/><circle cx="11.718" cy="291.87" r="1.588" opacity=".15"/><g fill="#fff"><path d="M11.718 290.522a1.343 1.343 0 0 0-1.343 1.344 1.343 1.343 0 0 0 1.343 1.343 1.343 1.343 0 0 0 1.343-1.343 1.343 1.343 0 0 0-1.343-1.344m0 .61a.733.733 0 0 1 .733.734.733.733 0 0 1-.733.732.733.733 0 0 1-.733-.732.733.733 0 0 1 .733-.733z"/><path d="M11.474 289.973h.488v.854h-.488zm0 2.93h.488v.855h-.488zm2.137-1.282v.489h-.855v-.489zm-2.931 0v.489h-.855v-.489zm2.55 1.41-.346.346-.604-.605.345-.345zm-2.073-2.072-.345.345-.605-.604.345-.345zm-.605 2.418-.345-.346.605-.604.345.345zm2.073-2.073-.345-.345.604-.604.345.345z"/></g></g></svg>