<svg width="64" height="64" version="1.1" viewBox="0 0 16.933 16.933" xmlns="http://www.w3.org/2000/svg">
 <rect x="1.5875" y="1.5875" width="13.758" height="13.758" rx="2.1166" ry="2.1166" fill="#84d45e" stroke-width=".92856"/>
 <path d="m5.2204 5.863-1.0423 3.8216h0.69483l1.0423-3.8216zm4.5164 0-1.0423 3.8216h0.69483l1.0423-3.8216zm1.9142 1.0423c-0.24456 0.00211-0.46404 0.041776-0.65888 0.12553-0.19482 0.079566-0.36058 0.19271-0.49736 0.33927-0.13264 0.14238-0.2342 0.31401-0.30467 0.51501-0.07047 0.19682-0.10585 0.41475-0.10585 0.65346 0 0.2722 0.03734 0.50685 0.11197 0.70366 0.07461 0.19682 0.17617 0.36201 0.30467 0.49601 0.1285 0.12982 0.27789 0.22625 0.44786 0.28906 0.44202 0.15352 0.8337 0.08043 1.22-0.11332v0.13843c0 0.30151 0 0.54822-0.10722 0.65954-0.14923 0.1382-0.39626 0.20696-0.74031 0.20696-0.18239 0-0.35794-0.01863-0.5279-0.05632-0.16581-0.0335-0.30667-0.07336-0.42274-0.11943l-0.10585 0.5089c0.13264 0.04606 0.28792 0.08592 0.46616 0.11943 0.18239 0.0335 0.375 0.05021 0.57814 0.05021 0.52231 0 0.91214-0.11314 1.1691-0.33927 0.257-0.22613 0.38542-0.59061 0.38542-1.0931v-2.9144c-0.39652-0.08684-0.78632-0.17332-1.2126-0.16964zm0.51772 0.58422v1.9094c-0.34579 0.25235-0.58682 0.26522-0.94046 0.15742-0.26347-0.080316-0.3765-0.31498-0.47228-0.5279-0.05806-0.12909-0.06853-0.29536-0.06853-0.48381 0-0.3392 0.06185-0.62969 0.24835-0.81629 0.38268-0.38285 0.7754-0.31845 1.2329-0.23885z" fill="#2a2a2a" stroke-width=".34742"/>
 <path d="m5.9152 5.863 1.0423 3.8216h0.69483l-1.0423-3.8216zm1.7371 3.8216h0.69483v-0.69483h-0.69483z" fill="#f9f9f9" stroke-width=".34742"/>
</svg>
