<svg width="64" height="64" version="1.1" viewBox="0 0 16.933 16.933" xmlns="http://www.w3.org/2000/svg">
 <g transform="translate(0 -280.07)" paint-order="stroke markers fill">
  <circle cx="8.4665" cy="288.53" r="7.1437" fill="#fff" stroke="#000" stroke-opacity=".13725" stroke-width=".529"/>
  <circle cx="8.4665" cy="288.53" r="7.1436" fill="#fff"/>
  <path d="m8.318 284.04a4.498 4.498 0 0 0-3.032 1.313 4.498 4.498 0 0 0-0.367 5.935l0.945-0.945a3.175 3.175 0 0 1 0.358-4.054 3.175 3.175 0 0 1 3.303-0.744v1.136l1.697-1.697a4.498 4.498 0 0 0-2.904-0.944z" fill="#4c8fd8"/>
  <path d="M12.015 285.779l-.945.945a3.175 3.175 0 0 1-.359 4.054 3.175 3.175 0 0 1-3.303.744v-1.137l-1.122 1.123-.575.574a4.498 4.498 0 0 0 5.936-.368 4.498 4.498 0 0 0 .368-5.935z" fill="#6ddce7"/>
 </g>
</svg>
