<svg xmlns="http://www.w3.org/2000/svg" width="64" height="64"><g transform="translate(3.31 -237.234) scale(.89655)"><circle cx="32" cy="300.3" r="26.1" fill="#fff" stroke="#000" stroke-opacity=".059" stroke-width="1.115"/><path class="st1" fill="#20aa73" d="M25.846 294.502l-6.844 4.56v7.036L36.4 294.502l-17.398-11.604v7.036z"/><path class="st2" fill="#3989da" d="M45.002 310.663l-6.845-4.56 6.845-4.568v-7.036l-17.398 11.604 17.398 11.595z"/><path d="M57.372 286.301l-4.877 3.246A23.2 23.2 0 0 1 55.2 300.3 23.2 23.2 0 0 1 32 323.5a23.2 23.2 0 0 1-17.85-8.442l-4.86 3.234C14.606 324.99 22.804 329.3 32 329.3c15.99 0 29-13.009 29-29 0-5.077-1.325-9.844-3.628-13.999z" fill="#20aa73"/><path d="M32 271.3c-15.991 0-29 13.009-29 29a28.8 28.8 0 0 0 3.146 13.118l4.9-3.26A23.2 23.2 0 0 1 8.8 300.3 23.2 23.2 0 0 1 32 277.1a23.2 23.2 0 0 1 17.19 7.678l4.889-3.252C48.756 275.276 40.834 271.3 32 271.3z" fill="#3989da"/></g></svg>