<svg xmlns="http://www.w3.org/2000/svg" width="64" height="64"><linearGradient id="a" x1="82.547" x2="75.456" y1="85.636" y2="52.909" gradientTransform="translate(5.333 2)scale(.41667)" gradientUnits="userSpaceOnUse"><stop offset="0" stop-color="#b0b0b0"/><stop offset="1" stop-color="#e4e4e4"/></linearGradient><radialGradient id="b" cx="0" cy="0" r="1" gradientTransform="matrix(-113.26 -15.909 4.31 -30.682 52.909 28.819)" gradientUnits="userSpaceOnUse"><stop offset="0" stop-color="#fff" stop-opacity=".102"/><stop offset="1" stop-color="#fff" stop-opacity=".008"/></radialGradient><rect width="52" height="52" x="6" y="6" fill="#ccc" rx="8" ry="8" style="paint-order:markers fill stroke"/><rect width="48" height="40" x="8" y="8" fill="#f9f9f9" rx="6" ry="6" style="paint-order:markers fill stroke"/><path fill="#303030" fill-rule="evenodd" d="M52.638 40.182a.815.815 0 0 0 .77-.535A22.7 22.7 0 0 0 54.726 32C54.726 19.448 44.552 9.272 32 9.272S9.272 19.448 9.272 32c0 2.682.466 5.257 1.319 7.647a.81.81 0 0 0 .77.535z"/><path fill="#241f31" fill-rule="evenodd" d="M52.638 40.182a.815.815 0 0 0 .77-.535A22.7 22.7 0 0 0 54.726 32C54.726 19.448 44.552 9.272 32 9.272S9.272 19.448 9.272 32c0 2.682.466 5.257 1.319 7.647a.81.81 0 0 0 .77.535z"/><path fill="#3584e4" d="M49.084 35.013a.805.805 0 0 0 .947-.679A18.18 18.18 0 0 0 39.523 15.45a18.186 18.186 0 0 0-21.675 5.135 18.2 18.2 0 0 0-3.512 7.108 18.2 18.2 0 0 0-.302 7.107c.07.454.511.745.964.654l5.493-1.117c.451-.09.74-.53.682-.988a10.92 10.92 0 0 1 2.336-8.196 10.906 10.906 0 0 1 16.802-.217 10.9 10.9 0 0 1 2.545 8.135c-.045.458.254.89.707.97z"/><path fill="#ed333b" d="M49.084 35.013a.805.805 0 0 0 .947-.679 18.2 18.2 0 0 0-4.798-14.803.804.804 0 0 0-1.165.006l-3.9 4.027c-.32.33-.31.856-.003 1.201a10.92 10.92 0 0 1 2.692 8.304c-.046.458.254.89.706.97z"/><path fill="#fff" d="M19.464 19.464a.455.455 0 0 1 .643 0l1.286 1.286a.455.455 0 0 1-.643.643l-1.286-1.286a.455.455 0 0 1 0-.643m23.143 1.929a.455.455 0 0 1 0-.643l1.286-1.286a.455.455 0 0 1 .643.643l-1.286 1.286a.455.455 0 0 1-.643 0m-17.389-5.772a.453.453 0 0 1 .592.247l.697 1.68a.454.454 0 1 1-.84.347l-.696-1.68a.455.455 0 0 1 .247-.594M45.859 26.26a.456.456 0 0 1 .246-.594l1.68-.695a.454.454 0 1 1 .348.84l-1.68.695a.454.454 0 0 1-.594-.246m-7.073-10.639a.456.456 0 0 1 .246.594l-.697 1.68a.454.454 0 1 1-.84-.347l.697-1.68a.454.454 0 0 1 .594-.247m-23.163 9.595a.454.454 0 0 1 .594-.246l1.68.695a.454.454 0 0 1-.347.84l-1.68-.695a.455.455 0 0 1-.247-.594M32 14.272c.252 0 .456.203.456.456v1.818a.455.455 0 0 1-.91 0v-1.818c0-.253.203-.456.454-.456"/><path fill="url(#a)" fill-rule="evenodd" d="M33.906 33.241a2.272 2.272 0 1 1-3.278-3.052q.106-.122.234-.234l14.386-12.373a.68.68 0 0 1 .964.95l-12.17 14.56a2 2 0 0 1-.137.15z"/><path fill="#fff" d="M46.999 32c0-.25.205-.454.456-.454h1.818a.454.454 0 0 1 0 .908h-1.818a.456.456 0 0 1-.456-.454m-32.727 0c0-.25.203-.454.454-.454h1.818a.455.455 0 1 1 0 .908h-1.818a.454.454 0 0 1-.454-.454"/><path fill="url(#b)" fill-rule="evenodd" d="M50.95 38.364a.81.81 0 0 0 .765-.526 19.3 19.3 0 0 0 1.195-6.694C52.91 20.07 43.547 11.09 32 11.09s-20.91 8.98-20.91 20.054c0 2.349.42 4.601 1.194 6.694a.81.81 0 0 0 .765.526z"/><path fill="#d5d3cf" d="M22 43.501a1.5 1.5 0 1 1-3 0 1.5 1.5 0 0 1 3 0"/><path fill="#68676b" d="M32 31.09a.91.91 0 0 0 0 1.82.91.91 0 0 0 0-1.82"/><path fill="#d5d3cf" d="M17 43.501a1.5 1.5 0 1 1-3 0 1.5 1.5 0 0 1 3 0"/></svg>