<svg width="64" height="64" version="1" xmlns="http://www.w3.org/2000/svg">
 <rect x="6" y="6" width="52" height="52" rx="8" ry="8" fill="#e4e4e4" stroke-width="1.3"/>
 <rect x="9" y="9" width="46" height="46" rx="5" ry="5" fill="#ffffff" opacity=".5" stroke-width="1.15"/>
 <g transform="matrix(.94017 0 0 .94017 1.9145 1.9145)" stroke-width="1.3">
  <path d="m22.9 20.3 3.9 5.2h-7.8l-0.80996 3.9h-4.39l1.3-5.2h-2.6l-2.6 10.4h7.31l-0.80996 3.9h5.2l-3.9 5.2h5.2l3.9-5.2h10.4l3.9 5.2h5.2l-3.9-5.2h5.2l-0.80996-3.9h7.31l-2.6-10.4h-2.6l1.3 5.2h-4.39l-0.80996-3.9h-7.8l3.9-5.2h-2.6l-3.9 5.2h-5.2l-3.9-5.2z" fill="#565656"/>
  <path d="m21.6 29.4v5.2h5.2v-5.2zm15.6 0v5.2h5.2v-5.2z" opacity=".2"/>
  <path d="m21.6 28.1v5.2h5.2v-5.2zm15.6 0v5.2h5.2v-5.2z" fill="#ffffff"/>
 </g>
</svg>
