<svg width="64" height="64" version="1.1" xmlns="http://www.w3.org/2000/svg">
 <rect x="6" y="6" width="52" height="52" rx="8" ry="8" fill="#212e3f" stroke-width=".92857"/>
 <path d="m26.788 16c-5.3437 0-9.7142 0.04619-9.7115 0.10096l4.9231 6.4712v25.428h7.3269v-9.8462h2.7115l6.524 9.8462 7.9712-0.076923-7.0144-10.601c0.06026-0.05233 0.80386-0.22462 1.2308-0.38462 1.9615-0.73522 3.9143-2.5722 4.8942-4.6058 0.70194-1.4567 0.96811-3.7196 0.97115-5.3702 0.0034-1.73-0.2884-3.8932-1.0048-5.3846-0.51906-1.0805-0.77597-1.4318-1.8029-2.4567-1.2704-1.268-2.0647-1.7697-3.7452-2.375-2.0029-0.72138-2.729-0.74519-13.274-0.74519zm2.5962 7.3846h3.1538c3.6115 0 4.3146 0.10036 5.375 0.75481 0.35047 0.2163 0.75437 0.62706 0.96154 0.98558 0.3073 0.53178 0.35577 0.80786 0.35577 1.9615 0 1.2344-0.03079 1.3879-0.41346 1.9423-0.49746 0.72097-1.1207 1.1412-2.1298 1.4423-0.59324 0.17701-1.4251 0.23746-3.976 0.28366-1.7711 0.03207-3.1498 0.01575-3.2115-0.03847-0.061711-0.05417-0.052689-1.7287-0.11538-3.7163z" fill="#ff4654" stroke-width="1.2308"/>
</svg>
