<svg xmlns="http://www.w3.org/2000/svg" width="64" height="64"><rect width="52" height="52" x="6" y="6" fill="#212e3f" rx="8" ry="8"/><path fill="#ff4654" d="M26.788 16c-5.344 0-9.714.046-9.711.101L22 22.572V48h7.327v-9.846h2.711L38.562 48l7.971-.077-7.014-10.6c.06-.053.804-.225 1.23-.385 1.962-.736 3.915-2.573 4.895-4.606.702-1.457.968-3.72.971-5.37.003-1.73-.288-3.894-1.005-5.385-.519-1.08-.776-1.432-1.803-2.457-1.27-1.268-2.064-1.77-3.745-2.375C38.06 16.024 37.333 16 26.788 16m2.596 7.385h3.154c3.612 0 4.315.1 5.375.754.35.217.754.627.962.986.307.532.355.808.355 1.961 0 1.235-.03 1.388-.413 1.943-.498.72-1.12 1.141-2.13 1.442-.593.177-1.425.238-3.976.284-1.771.032-3.15.015-3.211-.039-.062-.054-.053-1.728-.116-3.716z"/></svg>