<svg xmlns="http://www.w3.org/2000/svg" width="64" height="64" viewBox="0 0 16.933 16.933"><g transform="translate(0 -280.067)"><circle cx="8.467" cy="288.533" r="6.879" fill="#ebeeef" paint-order="markers stroke fill"/><path d="M12.7 290.12a4.233 4.23 0 1 1-8.467 0 4.233 4.23 0 1 1 8.467 0z" fill="#334d5c"/><path d="M11.642 290.12a3.175 3.174 0 1 1-6.35 0 3.175 3.174 0 1 1 6.35 0z" fill="#efc84a"/><path d="M10.054 290.12a1.587 1.586 0 1 1-3.175 0 1.587 1.586 0 1 1 3.175 0z" fill="#334d5c"/><path d="M9.26 290.12a.794.794 NaN 1 1-1.587 0 .794.794 NaN 1 1 1.587 0z" fill="#f0f0f0"/><path d="M10.054 283.77a1.587 1.587 0 1 1-3.175 0 1.587 1.587 0 1 1 3.175 0z" fill="#fff"/><path d="M9.525 283.77a1.058 1.058 0 1 1-2.117 0 1.058 1.058 0 1 1 2.117 0z" fill="#334d5c"/><path d="M8.996 283.771a.53.529 0 1 1-1.059 0 .53.529 0 1 1 1.059 0z" fill="#efc84a"/><path d="M5.82 284.035a.265.264 0 1 1-.528 0 .265.264 0 1 1 .529 0zM11.642 284.035a.265.264 0 1 1-.53 0 .265.264 0 1 1 .53 0zM14.287 290.386a.265.264 0 1 1-.529 0 .265.264 0 1 1 .53 0zM3.44 290.386a.265.264 0 1 1-.53 0 .265.264 0 1 1 .53 0z" fill="#334d5c"/><path d="M3.606 283.671a6.88 6.88 0 0 0-2.019 4.862 6.88 6.88 0 0 0 .113 1.226 4.233 4.23 0 0 0 2.533-3.871 4.233 4.23 0 0 0-.627-2.217zM13.33 283.674a4.233 4.23 0 0 0-.63 2.214 4.233 4.23 0 0 0 2.53 3.873 6.88 6.88 0 0 0 .116-1.228 6.88 6.88 0 0 0-2.016-4.86z" opacity=".25" fill="#334d5c"/></g></svg>