<svg width="64" height="64" version="1.1" viewBox="0 0 16.933 16.933" xmlns="http://www.w3.org/2000/svg">
 <rect x="1.852" y="1.3229" width="13.229" height="14.287" rx="2.9104" ry="2.9104" fill="#ebeeef" fill-rule="evenodd" stop-color="#000000" stroke-linecap="round" stroke-linejoin="round" stroke-width=".49992" style="paint-order:stroke fill markers"/>
 <path d="m12.7 10.053a4.2335 4.2305 0 1 1-8.467 0 4.2335 4.2305 0 1 1 8.467 0z" fill="#334d5c"/>
 <path d="m11.642 10.053a3.175 3.174 0 1 1-6.35 0 3.175 3.174 0 1 1 6.35 0z" fill="#efc84a"/>
 <path d="m10.054 10.053a1.5875 1.5865 0 1 1-3.175 0 1.5875 1.5865 0 1 1 3.175 0z" fill="#334d5c"/>
 <path d="m9.26 10.053" fill="#f0f0f0"/>
 <path d="m10.054 3.703a1.5875 1.5875 0 1 1-3.175 0 1.5875 1.5875 0 1 1 3.175 0z" fill="#fff"/>
 <path d="m9.525 3.703a1.0585 1.0585 0 1 1-2.117 0 1.0585 1.0585 0 1 1 2.117 0z" fill="#334d5c"/>
 <path d="m8.996 3.704a0.53 0.529 0 1 1-1.059 0 0.53 0.529 0 1 1 1.059 0z" fill="#efc84a"/>
 <path d="m2.2303 2.7951c-0.24038 0.42381-0.37826 0.91418-0.37826 1.4381v5.3071a3.7041 3.7041 0 0 0 2.3812-3.455 3.7041 3.7041 0 0 0-2.0029-3.2902zm12.476 0.0056843a3.7041 3.7041 0 0 0-2.0066 3.2845 3.7041 3.7041 0 0 0 2.3812 3.455v-5.3071c0-0.52153-0.13632-1.01-0.37465-1.4324z" fill="#344c5c" fill-rule="evenodd" opacity=".25" stop-color="#000000" stroke-linecap="round" stroke-linejoin="round" stroke-width=".70554" style="paint-order:stroke fill markers"/>
 <circle cx="13.493" cy="13.758" r=".26458" fill="#334d5c" fill-rule="evenodd" stop-color="#000000" stroke-linecap="round" stroke-linejoin="round" stroke-width=".52916" style="paint-order:stroke fill markers"/>
 <circle cx="3.7041" cy="13.758" r=".26458" fill="#334d5c" fill-rule="evenodd" stop-color="#000000" stroke-linecap="round" stroke-linejoin="round" stroke-width=".52916" style="paint-order:stroke fill markers"/>
 <circle cx="5.5561" cy="3.7041" r=".26458" fill="#334d5c" fill-rule="evenodd" stop-color="#000000" stroke-linecap="round" stroke-linejoin="round" stroke-width=".52916" style="paint-order:stroke fill markers"/>
 <circle cx="11.377" cy="3.7041" r=".26458" fill="#334d5c" fill-rule="evenodd" stop-color="#000000" stroke-linecap="round" stroke-linejoin="round" stroke-width=".52916" style="paint-order:stroke fill markers"/>
</svg>
