<svg width="64" height="64" version="1.1" viewBox="0 0 16.933 16.933" xmlns="http://www.w3.org/2000/svg">
 <g transform="matrix(1.0384 0 0 1.0385 -.32504 -.32514)" stroke-width=".96299">
  <circle cx="8.467" cy="8.466" r="6.879" fill="#ebeeef" style="paint-order:markers stroke fill"/>
  <path d="m3.606 3.604a6.88 6.88 0 0 0-2.019 4.862 6.88 6.88 0 0 0 0.113 1.226 4.233 4.23 0 0 0 2.533-3.871 4.233 4.23 0 0 0-0.627-2.217zm9.724 3e-3a4.233 4.23 0 0 0-0.63 2.214 4.233 4.23 0 0 0 2.53 3.873 6.88 6.88 0 0 0 0.116-1.228 6.88 6.88 0 0 0-2.016-4.86z" fill="#334d5c" opacity=".25"/>
 </g>
 <path d="m12.7 10.053a4.2335 4.2305 0 1 1-8.467 0 4.2335 4.2305 0 1 1 8.467 0z" fill="#334d5c"/>
 <path d="m11.642 10.053a3.175 3.174 0 1 1-6.35 0 3.175 3.174 0 1 1 6.35 0z" fill="#efc84a"/>
 <path d="m10.054 10.053a1.5875 1.5865 0 1 1-3.175 0 1.5875 1.5865 0 1 1 3.175 0z" fill="#334d5c"/>
 <path d="m9.26 10.053" fill="#f0f0f0"/>
 <path d="m10.054 3.703a1.5875 1.5875 0 1 1-3.175 0 1.5875 1.5875 0 1 1 3.175 0z" fill="#fff"/>
 <path d="m9.525 3.703a1.0585 1.0585 0 1 1-2.117 0 1.0585 1.0585 0 1 1 2.117 0z" fill="#334d5c"/>
 <path d="m8.996 3.704a0.53 0.529 0 1 1-1.059 0 0.53 0.529 0 1 1 1.059 0z" fill="#efc84a"/>
 <path d="m5.82 3.968a0.265 0.264 0 1 1-0.528 0 0.265 0.264 0 1 1 0.529 0zm5.822 0a0.265 0.264 0 1 1-0.53 0 0.265 0.264 0 1 1 0.53 0zm2.645 6.351a0.265 0.264 0 1 1-0.529 0 0.265 0.264 0 1 1 0.53 0zm-10.847 0a0.265 0.264 0 1 1-0.53 0 0.265 0.264 0 1 1 0.53 0z" fill="#334d5c"/>
</svg>
