<svg width="64" height="64" version="1.1" viewBox="0 0 16.933 16.933" xmlns="http://www.w3.org/2000/svg">
 <g transform="translate(1.0583 -1.0583)" stroke-width=".26458">
  <path d="m14.552 9.5248a7.1436 7.1436 0 0 1-7.1436 7.1436 7.1436 7.1436 0 0 1-7.1436-7.1436 7.1436 7.1436 0 0 1 7.1436-7.1436 7.1436 7.1436 0 0 1 7.1436 7.1436z" fill="#e1415c"/>
  <path d="m3.4395 5.5561h7.9373v7.9373h-7.9373z" fill="#303030"/>
  <path d="m3.9917 12.01h3.1059v0.62118h-3.1059z" fill="#f9f9f9"/>
  <path d="m4.6129 6.4189v3.4165h0.62118v-1.2424l0.49683-6.212e-4 0.74554 1.243h0.62118l-0.77648-1.2945c0.4791-0.11339 0.77648-0.42761 0.77648-1.0197v-0.015166c0-0.69164-0.33726-1.0871-1.1411-1.0871zm2.7953 0v3.4165h0.93178l0.48287-0.0054c0.60143-0.0071609 1.3807-0.61035 1.3807-1.6949v-0.01583c0-1.074-0.64815-1.7004-1.4517-1.7004zm-2.1741 0.62118h0.62118c0.37386 0 0.62118 0.12153 0.62118 0.458v0.015771c0 0.2804-0.24732 0.45837-0.62118 0.458l-0.62118-7.1e-6zm2.7953 1.46e-5h0.62118c0.37395 0 0.93178 0.31575 0.93178 1.0792v0.015772c0 0.77394-0.55792 1.0792-0.93178 1.0792h-0.62118z" fill="#f9f9f9"/>
 </g>
</svg>
