<svg width="64" height="64" version="1.1" xmlns="http://www.w3.org/2000/svg">
 <rect x="6.0001" y="6.0001" width="52" height="52" rx="7.9999" ry="7.9999" fill="#5476f7" stroke-linecap="round" stroke-linejoin="round" stroke-width="1.0196"/>
 <g fill="#fff" stroke-width=".857">
  <path d="m32 15.084-14 4.58c0 9.64-.043 14.925 1.652 18.75 1.696 3.828 5.176 6.347 12.348 10.502 7.172-4.155 10.652-6.674 12.348-10.502C46.043 34.59 46 29.304 46 19.664Z" fill="#fff" opacity=".5" overflow="visible" style="isolation:auto;mix-blend-mode:normal"/>
  <path d="m32 18-11.664 4.083c0 15.714-.453 16.92 11.664 23.917 12.017-6.946 11.664-8.197 11.664-23.917Z" overflow="visible" style="isolation:auto;mix-blend-mode:normal"/>
  <path d="M32.626 26.18s-.272-.522-.29-.594a64 64 0 0 1-.163-.808l.181-.324.399-.592.579-.45.144-.054 1.394-.52.126-.126-.145-.216-.199-.108-.365-.093-.915-.093-.71.006-.489.108-.434-.162-.543-.071-.796-.018-.398-.018-.67.251-1.013 1.168-.126.45-.073.394-.343.737-.218.7-.108.755v.162l-.525.79-.29.593v.845l.091 1.742.163.63.326.574.416.377.18.737.688 1.51.815.97.054.053.29 1.455-.996 1.797-.312.24-.234.188-.402-.011-.224.114-.272.012-.164.162-.352-.052-.347-.017-.269.21-.038.311.178-.2.3-.086.031.285.474-.16.272-.01.48.056s.415-.027.487-.034.514.035.514.035l.323-.035.172.072.23-.061.25.117.36-.039.046-.24-.014-.124.246.081.2.16.129.185-.008-.235-.157-.272s-.108-.15-.18-.143-.351-.053-.351-.053l-.192.075-.21-.086-.206.113-.19-.07-.091-.17-.132-.04.142-.367.325-.45.435-.719.38-.449.144-.18s.181-.269.181-.34c0-.073.036-.827.036-.827l-.235-.485-.108-.396 2.099.503h.126l1.792 1.276.253.323.09 1.276-.036.287-.126.234-.091.144-.078.201-.054.135-.332.102-.338-.06-.205-.025-.376.054-.158.168-.061.208.049.211.079-.211.107-.142.105-.034.008.18.14.09.292-.133.144-.02.046.192.438-.008.296-.097.243.037.354.04.122-.035.097-.087.157.323.002-.364-.152-.413-.22-.132.037-.108-.163-.306.018-1.167.905 1.06 1.194.934s.815.287.887.287.633-.072.633-.072l.362-.592-.271-.809.108-.27-.579-.754-1.226-1.237-.294-.973.019-.665-.272-.7-.307-.557.18-.557-.144-.808-.617-1.377.228-.038-.383-.656.249-.078-.437-.706.183-.098-.327-.533.107-.06-.397-.317.145-.075-1.031-.716z" fill="#5476f7"/>
 </g>
</svg>
