<svg width="64" height="64" version="1.1" xmlns="http://www.w3.org/2000/svg">
 <path d="m7 56.4v-46.8h37.227c4.9351 1.3365 4.4765 2.9367 4.7727 4.5v42.3c-0.87721 3.2141-3.3461 3.3214-5.7273 3.6h-31.5c-1.961-0.08862-4.1641-0.86435-4.7727-3.6z" fill="#263238"/>
 <path d="m15 7.7143v48.286h37.227c4.9351-1.3789 4.4765-3.0299 4.7727-4.6429v-43.643c-0.87721-3.3162-3.3461-3.4268-5.7273-3.7143h-31.5c-1.961 0.09151-4.1641 0.89179-4.7727 3.7143z" fill="#e4e4e4"/>
 <path d="m15 14v0.5h42v-0.5h-42zm0 8v0.5h42v-0.5h-42zm0 8v0.5h42v-0.5h-42zm0 8v0.5h42v-0.5h-42zm0 8v0.5h42v-0.5h-42z" fill="#cccccc"/>
 <rect x="19" y="4" width="1" height="52" fill="#df574d"/>
 <path d="m15 7.7333v48.533c0-1.8221-0.70872-4.2667-4-4.2667-3.2913 0-4 2.3555-4 4.2667v-48.533c0-3.7333 4-3.7333 4-3.7333s4 0 4 3.7333z" fill="#37474f"/>
 <path d="m46.912 18.832c-0.06784-0.55223 0.35573-1.4261 0.29888-2.6158-0.05868-1.1916-0.63627-2.8522-3.0072-4.0574-0.04217-0.02132-0.08435-0.04263-0.12836-0.06394-1.5421-0.7518-3.7901-1.2905-6.4122-1.0269-2.0372 0.20539-4.1532 0.8855-6.1482 2.0849-1.7951 1.0754-3.4491 2.548-4.7913 4.3694-0.78846 1.1451-1.4761 2.4414-1.9675 3.8404-0.2127 0.60454-0.38873 1.2304-0.52075 1.8698-0.17053 0.83125-0.26404 1.74-0.22737 2.6991 0.09718 1.521 0.52625 3.1835 1.4852 4.6794 0.45291 0.70918 1.0158 1.3525 1.6668 1.8892 0.64727 0.53672 1.3881 0.97076 2.1967 1.2556 1.2964 0.44759 2.5708 0.44759 3.6251 0.27902 0.55926-0.08913 1.0727-0.2267 1.5256-0.37978 0.55926-0.18795 1.0727-0.40497 1.4779-0.58904 0.88381-0.40884 1.7126-0.89906 2.3727-1.2943 0.66011-0.39528 1.3074-0.79249 1.929-1.1141 0.37039-0.18601 0.81047-0.39334 1.245-0.55029 0.11552-0.04068 0.23104-0.07944 0.34656-0.11238 0.43274-0.12595 0.85998-0.18214 1.2395-0.14145 0.32455 0.03294 0.5996 0.14532 0.7848 0.28289 0.07885 0.05231 0.14669 0.12595 0.20353 0.20345 0.04951 0.0717 0.08252 0.13951 0.10085 0.17632 0.02017 0.0465 0.03118 0.14145-0.0036 0.27902-0.03301 0.13951-0.10452 0.30033-0.21454 0.46116-0.11368 0.1647-0.27138 0.33521-0.48408 0.51154-0.20903 0.17051-0.45841 0.33715-0.74812 0.49797-0.63627 0.32358-1.2689 0.5406-2.1582 0.89131-0.8068 0.31777-1.7695 0.72855-2.6716 1.3796-0.47308 0.35265-0.94616 0.79249-1.3532 1.3253-0.40523 0.53285-0.75729 1.1761-0.95349 1.9299-0.17603 0.75374-0.1852 1.5908 0.05134 2.3949 0.11919 0.40884 0.30255 0.79637 0.53726 1.1413 0.23837 0.34878 0.53726 0.66461 0.89115 0.9165 0.62894 0.44178 1.3221 0.60454 1.9216 0.62198h0.20353c0.50792-0.01356 0.992-0.12401 1.4339-0.28096 0.46208-0.1492 0.88014-0.35071 1.2395-0.52898 0.36673-0.18408 0.64911-0.33327 0.94432-0.45728 0.26954-0.12595 0.50425-0.20733 0.71695-0.2422 0.2017-0.03295 0.36673-0.01744 0.48591 0.01744 0.05318 0.01551 0.10085 0.04069 0.13936 0.06588 0.03667 0.02519 0.06235 0.04844 0.07518 0.06007 0.02017 0.0097 0.03851 0.02519 0.05134 0.02906 0.01467 0 0.0275 0.0077 0.04584 0.0039 0.0165-0.0039 0 0.05813-0.06601 0.13951-0.07701 0.09494-0.18886 0.18989-0.36123 0.33134-0.16686 0.1337-0.39423 0.31002-0.60143 0.52704-0.2292 0.23833-0.45291 0.5406-0.59043 0.91456-0.13752 0.37784-0.15953 0.76537-0.10268 1.1064 0.06601 0.39722 0.24021 0.72274 0.44191 0.95332 0.27138 0.3139 0.58676 0.44759 0.81964 0.48441 0.05684 0.0077 0.11002 0.01163 0.15953 0.0097 0.4144-0.01551 0.58126-0.35071 0.65461-0.44953-0.10268-0.1027-0.2072-0.36621-0.28971-0.59098-0.0091-0.02519-0.01833-0.04844-0.02567-0.07363-0.03301-0.09882-0.06235-0.20733-0.05501-0.30421 0.0036-0.06975 0.02017-0.14338 0.05134-0.18989 0.02567-0.04069 0.06235-0.07751 0.09535-0.09107 0.03301-0.01551 0.08802-0.062 0.18703-0.12595 0.12285-0.07751 0.20903-0.12207 0.42724-0.24608 0.17053-0.09494 0.42357-0.2422 0.66561-0.44178 0.24204-0.19958 0.52075-0.49022 0.71878-0.89519 0.17603-0.36234 0.26221-0.76343 0.26221-1.1587 0.0019-0.39528-0.08251-0.77893-0.2292-1.1219-0.15402-0.3449-0.36673-0.63942-0.60877-0.88162-0.24387-0.24414-0.52075-0.4379-0.81047-0.58323-0.58126-0.28871-1.1937-0.37009-1.731-0.34877-0.55559 0.02131-1.0653 0.15307-1.4852 0.29258-0.4144 0.14726-0.84347 0.34102-1.1479 0.47084-0.35022 0.1492-0.61977 0.25189-0.87464 0.3139-0.24021 0.04456-0.42174 0.04069-0.55376 0.0097-0.0165-0.0039-0.03301-0.0077-0.04951-0.01356-0.13386-0.04456-0.2072-0.12207-0.18703-0.16082 0.01101-0.01551 0.01284-0.03488 0.0165-0.06782 0.0036-0.031 0.0074-0.06588 0.02201-0.09689 0.022-0.06588 0.05868-0.1802 0.13386-0.28677 0.05501-0.1182 0.14669-0.25189 0.29705-0.40303 0.15402-0.15501 0.35572-0.31196 0.59776-0.45147 0.48775-0.31002 1.069-0.5406 1.8226-0.79056 0.69678-0.23252 1.6521-0.51735 2.5304-0.90294 0.47308-0.19764 0.96449-0.43984 1.4412-0.74599 0.48775-0.31196 0.96999-0.69561 1.4101-1.1703 0.45658-0.49604 0.85264-1.0812 1.1442-1.7361 0.29888-0.6743 0.49325-1.4397 0.51158-2.2593 0.01835-0.80806-0.13752-1.5715-0.3979-2.2458-0.26771-0.69949-0.65827-1.3273-1.124-1.8524-0.9865-1.1122-2.2352-1.7167-3.3574-1.9783-1.3-0.30421-2.5194-0.19183-3.4564 0.01744-0.26038 0.06007-0.50608 0.12595-0.73529 0.19764-0.86548 0.26933-1.5843 0.63167-2.0885 0.91263-0.81964 0.44759-1.6356 0.99207-2.1912 1.3505-0.64544 0.41659-1.223 0.77699-1.8025 1.0541-0.25855 0.12595-0.54093 0.23833-0.83432 0.31584-0.2347 0.06007-0.46391 0.10076-0.68945 0.11238-0.4309 0.02324-0.79396-0.05813-1.0397-0.20733-0.14302-0.08138-0.28971-0.19958-0.42357-0.35459-0.13386-0.15695-0.24754-0.33909-0.32455-0.53285-0.17603-0.43016-0.23104-0.95138-0.15403-1.4455 0.02017-0.30808 0.08435-0.6181 0.1852-0.92619 0.07885-0.23833 0.18703-0.48053 0.32455-0.72468 0.32272-0.57354 0.7903-1.1161 1.3386-1.583 0.85264-0.83125 1.8501-1.4319 2.8623-1.8214 1.1259-0.43403 2.204-0.58323 3.1502-0.59098 1.2102-0.0077 2.2939 0.2112 3.1428 0.31584 0.02384 2e-3 0.04767 0.0059 0.07151 0.0077 1.3422 0.15695 2.3709-0.17439 3.284-0.63554 0.88565-0.44566 1.6778-1.0483 2.1729-1.0521z" fill="#3f3f3f"/>
</svg>
