<?xml version="1.0" encoding="UTF-8" standalone="no"?>
<!-- Created with Inkscape (http://www.inkscape.org/) -->

<svg
   xmlns:dc="http://purl.org/dc/elements/1.1/"
   xmlns:cc="http://creativecommons.org/ns#"
   xmlns:rdf="http://www.w3.org/1999/02/22-rdf-syntax-ns#"
   xmlns:svg="http://www.w3.org/2000/svg"
   xmlns="http://www.w3.org/2000/svg"
   xmlns:sodipodi="http://sodipodi.sourceforge.net/DTD/sodipodi-0.dtd"
   xmlns:inkscape="http://www.inkscape.org/namespaces/inkscape"
   width="64"
   height="64"
   viewBox="0 0 16.933333 16.933333"
   version="1.1"
   id="svg4572"
   inkscape:version="0.92.4 (5da689c313, 2019-01-14)"
   sodipodi:docname="rstudio.svg">
  <title
     id="title4611">Canvas icon theme</title>
  <defs
     id="defs4566">
    <linearGradient
       id="linearGradient3764"
       x1="1"
       x2="47"
       gradientUnits="userSpaceOnUse"
       gradientTransform="matrix(0,-0.26458333,0.26458333,0,20.10648,297.52786)">
      <stop
         style="stop-color:#4694c6;stop-opacity:1"
         id="stop2" />
      <stop
         offset="1"
         style="stop-color:#569dcb;stop-opacity:1"
         id="stop4" />
    </linearGradient>
  </defs>
  <sodipodi:namedview
     id="base"
     pagecolor="#ffffff"
     bordercolor="#666666"
     borderopacity="1.0"
     inkscape:pageopacity="0.0"
     inkscape:pageshadow="2"
     inkscape:zoom="5.6568545"
     inkscape:cx="73.171892"
     inkscape:cy="27.82134"
     inkscape:document-units="px"
     inkscape:current-layer="layer1"
     showgrid="true"
     units="px"
     width="64px"
     showguides="true"
     inkscape:guide-bbox="true"
     inkscape:window-width="1366"
     inkscape:window-height="717"
     inkscape:window-x="0"
     inkscape:window-y="25"
     inkscape:window-maximized="1"
     inkscape:snap-bbox="true"
     inkscape:bbox-nodes="true"
     inkscape:snap-bbox-edge-midpoints="true"
     inkscape:snap-nodes="true">
    <inkscape:grid
       type="xygrid"
       id="grid4582" />
    <sodipodi:guide
       position="1.0583333,15.875"
       orientation="0,1"
       id="guide4584"
       inkscape:locked="false" />
    <sodipodi:guide
       position="1.0583333,1.0583333"
       orientation="1,0"
       id="guide4586"
       inkscape:locked="false" />
    <sodipodi:guide
       position="15.875,15.875"
       orientation="1,0"
       id="guide4588"
       inkscape:locked="false" />
    <sodipodi:guide
       position="1.0583333,1.0583333"
       orientation="0,1"
       id="guide4590"
       inkscape:locked="false" />
    <sodipodi:guide
       position="8.4666665,8.4666665"
       orientation="0,1"
       id="guide822"
       inkscape:locked="false" />
    <sodipodi:guide
       position="8.4666665,8.4666665"
       orientation="1,0"
       id="guide824"
       inkscape:locked="false" />
  </sodipodi:namedview>
  <metadata
     id="metadata4569">
    <rdf:RDF>
      <cc:Work
         rdf:about="">
        <dc:format>image/svg+xml</dc:format>
        <dc:type
           rdf:resource="http://purl.org/dc/dcmitype/StillImage" />
        <dc:title>Canvas icon theme</dc:title>
        <cc:license
           rdf:resource="http://creativecommons.org/licenses/by-nc-sa/4.0/" />
        <dc:creator>
          <cc:Agent>
            <dc:title>Vince Liuice</dc:title>
          </cc:Agent>
        </dc:creator>
      </cc:Work>
      <cc:License
         rdf:about="http://creativecommons.org/licenses/by-nc-sa/4.0/">
        <cc:permits
           rdf:resource="http://creativecommons.org/ns#Reproduction" />
        <cc:permits
           rdf:resource="http://creativecommons.org/ns#Distribution" />
        <cc:requires
           rdf:resource="http://creativecommons.org/ns#Notice" />
        <cc:requires
           rdf:resource="http://creativecommons.org/ns#Attribution" />
        <cc:prohibits
           rdf:resource="http://creativecommons.org/ns#CommercialUse" />
        <cc:permits
           rdf:resource="http://creativecommons.org/ns#DerivativeWorks" />
        <cc:requires
           rdf:resource="http://creativecommons.org/ns#ShareAlike" />
      </cc:License>
    </rdf:RDF>
  </metadata>
  <g
     inkscape:label="Layer 1"
     inkscape:groupmode="layer"
     id="layer1"
     transform="translate(0,-280.06667)">
    <rect
       style="fill:#3680b2;stroke-width:0.2456845;fill-opacity:1"
       width="13.758333"
       height="13.758333"
       x="-295.41251"
       y="-15.345833"
       rx="6.8791666"
       ry="6.8791666"
       transform="matrix(0,-1,-1,0,0,0)"
       id="rect2" />
    <rect
       id="rect903"
       transform="matrix(0,-1,-1,0,0,0)"
       ry="5.8208418"
       rx="5.8208418"
       y="-14.287508"
       x="-294.35419"
       height="11.641684"
       width="11.641684"
       style="opacity:0.15;fill:#ffffff;stroke-width:0.20788719" />
    <path
       inkscape:connector-curvature="0"
       d="m 7.1948127,285.58762 c 0.333904,-0.0796 0.628385,-0.1188 0.962289,-0.1188 1.0199685,0 1.5901455,0.47546 1.5901455,1.31683 0,0.91043 -0.716227,1.48405 -1.8547285,1.48405 -0.06826,0 -0.157163,0 -0.284163,-0.009 -0.01958,0.0392 -0.03916,0.0786 -0.059,0.1188 0.906463,1.19777 1.8626675,2.39448 2.7699223,3.59251 0.460905,-0.0299 0.50853,-0.0299 0.61595,-0.0299 0.0889,0 0.0889,0 0.706967,0.0299 0,-0.0992 0,-0.16536 0,-0.26458 -0.314325,-0.0299 -0.471223,-0.12092 -0.598487,-0.28946 -0.743215,-0.97657 -1.4851068,-1.95342 -2.2283208,-2.92894 0.549804,-0.13837 0.804069,-0.24712 1.128712,-0.47545 0.5106458,-0.36592 0.7855478,-0.86096 0.7855478,-1.43457 0,-0.95091 -0.687387,-1.48511 -1.9047348,-1.48511 -1.2752915,0 -1.4324535,0.0299 -1.7663585,0.0299 -0.324643,0 -0.392641,0 -1.767416,-0.0299 0,0.0992 0,0.16537 0,0.26458 0.134408,0.0103 0.410369,0.0527 0.543719,0.0619 0.451643,0.0299 0.514614,0.1188 0.514614,0.89085 0,1.48114 0,2.96307 0,4.44421 0,0.78237 -0.135467,0.90857 -0.58711,0.93847 -0.157163,0.0103 -0.314325,0.0196 -0.470165,0.0299 0,0.0982 0,0.15081 0,0.24897 0.578908,-0.0196 0.921808,-0.0288 1.432454,-0.0288 0.510646,0 0.898261,0.009 1.4779631,0.0288 0,-0.0982 -0.03519,-0.15081 -0.03519,-0.24897 -0.157163,-0.0103 -0.3143251,-0.0196 -0.4712231,-0.0299 -0.451644,-0.0299 -0.551921,-0.1561 -0.551921,-0.93847 0,-1.72191 0.05159,-3.44488 0.05159,-5.16652"
       style="fill:#f9f9f9;fill-opacity:1;fill-rule:nonzero;stroke:none;stroke-width:0.26458332"
       id="path33" />
  </g>
</svg>
