<svg xmlns="http://www.w3.org/2000/svg" width="64" height="64" viewBox="0 0 16.933 16.933"><g transform="translate(0 -280.067)"><circle cx="8.467" cy="288.533" r="6.879" fill="#e53935" paint-order="markers stroke fill"/><circle r="5.821" cy="288.533" cx="8.467" opacity=".25" paint-order="markers stroke fill"/><path d="M5.82 285.094a.792.792 0 0 0-.793.794v5.291c0 .44.354.794.794.794h5.291c.44 0 .794-.354.794-.794v-5.291a.792.792 0 0 0-.794-.794H5.821zm0 .794h1.06c.528 0 1.057.412 1.057.926 0 .396-.249.637-.583.827l.583 1.157h-.529l-.529-1.058H6.35v1.058h-.53v-2.91zm2.647 0h.529l.794 1.322.793-1.322h.53v2.91h-.53v-1.852l-.793 1.323-.794-1.323v1.852h-.53v-2.91zm-2.117.529v.793h.53c.412 0 .528-.188.536-.396-.008-.185-.117-.397-.537-.397H6.35zm-.794 4.233h2.646v.53H5.556v-.53z" fill="#fff" paint-order="stroke fill markers"/></g></svg>