<svg width="64" height="64" version="1.1" viewBox="0 0 16.933 16.933" xmlns="http://www.w3.org/2000/svg">
 <path d="m15.61 8.4662a7.1435 7.1435 0 0 1-7.1435 7.1435 7.1435 7.1435 0 0 1-7.1435-7.1435 7.1435 7.1435 0 0 1 7.1435-7.1435 7.1435 7.1435 0 0 1 7.1435 7.1435z" fill="#e87778" stroke-width=".26457"/>
 <rect x="4.4978" y="4.4978" width="7.9373" height="7.9373" rx="1.3229" ry="1.3229" fill="#303030" style="paint-order:markers stroke fill"/>
 <path d="m8.4664 5.3605h0.62117l0.93176 1.553 0.93176-1.553h0.62117v3.4165h-0.62117v-2.1741l-0.93176 1.553-0.93176-1.553v2.1741h-0.62117m-1.8636-3.4165c0.62117 0 1.2423 0.48368 1.2423 1.0871 0 0.46589-0.29258 0.74855-0.68514 0.97105l0.68514 1.3583h-0.62117l-0.62117-1.2423h-0.62117v1.2423h-0.62117v-3.4165zm0 1.553c0.48459 0 0.62117-0.22126 0.6298-0.46589-0.008625-0.21671-0.13728-0.46589-0.6298-0.46589h-0.62117v0.93176z" fill="#f9f9f9" stroke-width=".26457"/>
 <path d="m5.0499 10.951h3.1059v0.62118h-3.1059z" fill="#f9f9f9" stroke-width=".26457"/>
</svg>
