<svg width="64" height="64" version="1.1" viewBox="0 0 16.933 16.933" xmlns="http://www.w3.org/2000/svg">
 <g transform="matrix(1.1739 0 0 1.1739 1.0123 -3.9572)" stroke-width=".22538">
  <path d="m12.435 10.583a6.0853 6.0853 0 0 1-6.0853 6.0853 6.0853 6.0853 0 0 1-6.0853-6.0853 6.0853 6.0853 0 0 1 6.0853-6.0853 6.0853 6.0853 0 0 1 6.0853 6.0853z" fill="#e87778"/>
  <path d="m2.9104 7.1436h6.879v6.879h-6.879z" fill="#303030"/>
  <path d="m6.3499 7.9374h0.52915l0.79373 1.3229 0.79373-1.3229h0.52915v2.9104h-0.52915v-1.852l-0.79373 1.3229-0.79373-1.3229v1.852h-0.52915m-1.5875-2.9104c0.52915 0 1.0583 0.41203 1.0583 0.92602 0 0.39687-0.24924 0.63766-0.58364 0.8272l0.58364 1.1571h-0.52915l-0.52915-1.0583h-0.52915v1.0583h-0.52915v-2.9104zm0 1.3229c0.4128 0 0.52915-0.18848 0.5365-0.39687-0.0073473-0.18461-0.11694-0.39687-0.5365-0.39687h-0.52915v0.79373z" fill="#f9f9f9"/>
  <path d="m3.4395 12.7h2.6458v0.52916h-2.6458z" fill="#f9f9f9"/>
 </g>
</svg>
