<svg xmlns="http://www.w3.org/2000/svg" width="64" height="64" fill="none"><path fill="#E88E3C" d="M59 31.998A27 27 0 0 1 31.998 59 27 27 0 0 1 5 32 27 27 0 0 1 31.998 5 27 27 0 0 1 59 31.998"/><path fill="#303030" d="M41.999 17H22a5 5 0 0 0-5 5.001v19.998a5 5 0 0 0 5 5h19.998a5 5 0 0 0 5-5V22a5 5 0 0 0-5-5"/><path fill="#F0F0F0" d="M26.198 20.262c2.347 0 4.694 1.826 4.694 4.109 0 1.757-1.103 2.827-2.589 3.666l2.59 5.137h-2.348l-2.347-4.695h-2.347v4.695H21.5V20.259zm0 5.87c1.83 0 2.347-.839 2.381-1.761-.034-.82-.521-1.761-2.381-1.761h-2.347v3.518zM19.087 41.39h11.74v2.348h-11.74z"/><path fill="#F0F0F0" fill-rule="evenodd" d="M37.94 20.262c2.347 0 4.694 1.826 4.694 4.109 0 1.757-1.104 2.827-2.59 3.666l2.59 5.137h-2.347l-2.347-4.695h-2.348v4.695h-2.35V20.259zm2.38 4.109c-.033.922-.551 1.761-2.38 1.761l-2.348-.004V22.61h2.348c1.859 0 2.347.94 2.38 1.76" clip-rule="evenodd"/></svg>