<svg xmlns="http://www.w3.org/2000/svg" width="64" height="64"><rect width="52" height="52" x="6" y="6" fill="#8e0404" rx="8" ry="8"/><path fill="#f9f9f9" d="m23.535 6 3.373 12.598c.277 1.035.435 1.602-.775 3.045a5.5 5.5 0 0 0-.567.767 4.995 4.995 0 0 0 5.617 7.32 4.994 4.994 0 0 0 1.203-9.148 5.4 5.4 0 0 0-.873-.38c-1.77-.645-1.916-1.216-2.193-2.25L26.117 6zM58 23.84l-12.625 3.383c-1.035.277-1.6.435-3.043-.776a5.5 5.5 0 0 0-.77-.568 4.993 4.993 0 1 0 1.826 6.822c.16-.277.274-.574.383-.875.645-1.77 1.214-1.914 2.248-2.191L58 26.424zm-33.699 5.256a4.97 4.97 0 0 0-4.031 2.488c-.16.277-.274.577-.383.877-.644 1.77-1.213 1.914-2.248 2.192L6 37.772v2.586l12.285-3.293c1.035-.278 1.6-.436 3.043.775.245.206.49.409.768.568a4.98 4.98 0 0 0 3.789.496 4.993 4.993 0 0 0-1.584-9.808m9.174 5.295q-.498.03-1 .164a4.993 4.993 0 0 0-1.203 9.148c.276.16.572.272.873.381 1.77.645 1.918 1.217 2.195 2.252L37.465 58h2.586l-3.299-12.312c-.277-1.035-.435-1.602.776-3.045a5.5 5.5 0 0 0 .566-.767 4.996 4.996 0 0 0-4.62-7.484z" style="paint-order:normal"/></svg>