<?xml version="1.0" encoding="UTF-8"?>
<svg width="64" height="64" version="1.1" viewBox="0 0 64 64" xmlns="http://www.w3.org/2000/svg" xmlns:cc="http://creativecommons.org/ns#" xmlns:dc="http://purl.org/dc/elements/1.1/" xmlns:rdf="http://www.w3.org/1999/02/22-rdf-syntax-ns#">
 <metadata>
  <rdf:RDF>
   <cc:Work rdf:about="">
    <dc:format>image/svg+xml</dc:format>
    <dc:type rdf:resource="http://purl.org/dc/dcmitype/StillImage"/>
    <dc:title/>
   </cc:Work>
  </rdf:RDF>
 </metadata>
 <rect x="6" y="6" width="52" height="52" rx="8" ry="8" fill="#8e0404" stroke-width="2.5172"/>
 <path d="m23.535 6 3.373 12.598c0.27723 1.0347 0.43523 1.6018-0.77539 3.0449-0.20559 0.24507-0.40665 0.49087-0.56641 0.76758-0.63904 1.1069-0.85692 2.4569-0.5 3.7891 0.71386 2.6642 3.4531 4.2451 6.1172 3.5312 2.6642-0.71386 4.247-3.4512 3.5332-6.1152-0.35692-1.332-1.2233-2.3941-2.3301-3.0332-0.27672-0.15976-0.57246-0.27142-0.87305-0.38086-1.77-0.64442-1.9162-1.2154-2.1934-2.25l-3.2031-11.951h-2.582zm34.465 17.84-12.625 3.3828c-1.0347 0.27723-1.5999 0.43523-3.043-0.77539-0.24507-0.20559-0.49282-0.4086-0.76953-0.56836-1.1069-0.63904-2.4569-0.85497-3.7891-0.49805-2.6642 0.71386-4.2451 3.4512-3.5312 6.1152 0.71386 2.6642 3.4512 4.2451 6.1152 3.5312 1.332-0.35692 2.3923-1.2193 3.0312-2.3262 0.15976-0.27672 0.27337-0.57442 0.38281-0.875 0.64442-1.77 1.2134-1.9141 2.248-2.1914l11.98-3.2109v-2.584zm-33.699 5.2559c-0.33124 0.01989-0.66698 0.07288-1 0.16211-1.332 0.35693-2.3923 1.2193-3.0312 2.3262-0.15976 0.27672-0.27337 0.57636-0.38281 0.87695-0.64442 1.77-1.2134 1.9141-2.248 2.1914l-11.639 3.1191v2.5859l12.285-3.293c1.0347-0.27723 1.5999-0.43523 3.043 0.77539 0.24507 0.20559 0.49086 0.4086 0.76758 0.56836 1.1069 0.63905 2.4569 0.85302 3.7891 0.49609 2.6642-0.71386 4.2451-3.4512 3.5312-6.1152-0.62463-2.3311-2.7965-3.8326-5.1152-3.6934zm9.1738 5.2949c-0.33124 0.01989-0.66698 0.074832-1 0.16406-2.6642 0.71386-4.2451 3.4512-3.5312 6.1152 0.35692 1.332 1.2213 2.3941 2.3281 3.0332 0.27672 0.15976 0.57246 0.27142 0.87305 0.38086 1.77 0.64442 1.9181 1.2173 2.1953 2.252l3.125 11.664h2.5859l-3.2988-12.312c-0.27723-1.0347-0.43523-1.6018 0.77539-3.0449 0.20559-0.24507 0.40665-0.49086 0.56641-0.76758 0.63904-1.1069 0.85498-2.4569 0.49805-3.7891-0.62463-2.3311-2.7985-3.8345-5.1172-3.6953z" fill="#f9f9f9" stroke-width="1.2485" style="paint-order:normal"/>
</svg>
