<svg xmlns="http://www.w3.org/2000/svg" width="64" height="64" viewBox="0 0 16.933 16.933"><rect width="13.758" height="13.758" x="1.587" y="1.587" fill="#c83737" fill-rule="evenodd" rx="2.117" ry="2.117" style="paint-order:stroke fill markers"/><path fill="#fff" d="M6.565 12.48a2.311 2.311 0 0 0-.472-.225c-.314-.105-.58-.147-.998-.157a2.764 2.764 0 0 0-.484.015c-.333.045-.705.14-.95.243-.164.068-.22.079-.278.05-.096-.048-.09.113-.09-2.28V7.965l.1-.064c.18-.116.432-.218.698-.282.635-.152 1.457-.122 2.026.076.128.044.382.168.464.227l.06.043v3.972l.177-.085c.399-.191.946-.327 1.404-.347.319-.014.802.04 1.065.118l.09.027v-1.99c0-1.093.003-1.988.007-1.988.017 0 .264.097.335.132.043.02.12.065.174.098l.096.06-.004 2.173c-.004 2.365.002 2.206-.083 2.255-.058.033-.096.028-.235-.035-.58-.26-1.338-.332-2.014-.19a3.83 3.83 0 0 0-.882.296.795.795 0 0 1-.135.06.259.259 0 0 1-.07-.04zm.689-2.903V7.955l1.51-1.465v3.392l-.716.624c-.394.343-.734.64-.755.66l-.04.034zm3.323-.603-.07-.08.017-.31.057-1.07.04-.758.229.009c.126.005.268.013.317.017l.088.008-.006.085c-.004.047-.02.333-.036.637a192.397 192.397 0 0 1-.056 1.08c0 .024-.064.088-.245.247-.135.118-.25.214-.255.214a.48.48 0 0 1-.08-.08zm2.091-1.878a.913.913 0 0 1-.598-.462l-.059-.12-.167-.008-.723-.037-1.784-.089-1.229-.061-.07-.074a.372.372 0 0 1-.07-.087c0-.012.35-.326.452-.404l.04-.032.42.021c1.354.069 1.784.09 1.787.087.005-.005.034-.557.034-.642v-.08l-.088-.048a.863.863 0 0 1-.435-.793c.024-.412.322-.736.743-.81a.905.905 0 0 1 .945.47c.074.15.094.238.092.4a.8.8 0 0 1-.26.595.767.767 0 0 1-.227.163 2.278 2.278 0 0 0-.126.064c-.007.007-.045.704-.039.71.004.003.647.042.72.043.012 0 .04-.035.064-.079.095-.178.33-.355.548-.412.125-.033.349-.033.463 0a.94.94 0 0 1 .567.453.844.844 0 0 1-.221 1.045.924.924 0 0 1-.779.187zm.287-.42a.44.44 0 0 0 .359-.428c0-.16-.093-.31-.24-.384-.064-.033-.088-.037-.208-.037-.123 0-.142.003-.211.04a.506.506 0 0 0-.196.201.552.552 0 0 0 .005.37c.07.127.185.211.322.238a.295.295 0 0 0 .169 0zm-1.912-.441c.062-.061.043-.151-.038-.181-.045-.017-.082-.007-.12.032-.089.093.065.239.158.149zm.227-1.536a.426.426 0 0 0 .12-.683.454.454 0 0 0-.617-.026.398.398 0 0 0-.15.323c.001.122.032.202.115.29.092.099.183.136.335.138a.337.337 0 0 0 .197-.042z"/></svg>