<svg xmlns="http://www.w3.org/2000/svg" xmlns:xlink="http://www.w3.org/1999/xlink" width="64" height="64" version="1"><defs><linearGradient id="b"><stop offset="0"/><stop offset="1" stop-opacity="0"/></linearGradient><linearGradient id="a"><stop offset="0" stop-color="#388dd4"/><stop offset="1" stop-color="#388dd4" stop-opacity="0"/></linearGradient><linearGradient xlink:href="#a" id="d" x1="-55" y1="-32" x2="-22" y2="-32" gradientUnits="userSpaceOnUse" gradientTransform="translate(77)"/><linearGradient xlink:href="#b" id="c" x1="39.635" y1="58" x2="39.635" y2="6" gradientUnits="userSpaceOnUse"/></defs><rect width="52" height="42" x="-58" y="-53" rx="2.786" ry="2.8" transform="matrix(0 -1 -1 0 0 0)" fill="#4f4f4f"/><rect width="46" height="36" x="-55" y="-50" rx="0" ry="0" transform="matrix(0 -1 -1 0 0 0)" fill="#fff"/><path d="M43.262 6A50 50 0 0 1 45 19a50 50 0 0 1-18.73 39H50.2c1.55 0 2.8-1.242 2.8-2.785V8.785A2.787 2.787 0 0 0 50.2 6h-6.938z" fill="url(#c)" opacity=".25"/><rect transform="rotate(90)" ry="0" rx="0" y="-50" x="22" height="36" width="33" fill="url(#d)" opacity=".5"/><rect width="57" height="3" x="3.5" y="21" rx="1" ry="1.006" fill="#388dd4" fill-rule="evenodd"/></svg>