<svg width="64" height="64" version="1.1" viewBox="0 0 16.933 16.933" xmlns="http://www.w3.org/2000/svg">
 <rect x="1.5875" y="1.5875" width="13.758" height="13.758" rx="2.1166" ry="2.1166" fill="#c83737" fill-rule="evenodd" stop-color="#000000" stroke-linecap="round" stroke-linejoin="round" stroke-width=".50029" style="paint-order:stroke fill markers"/>
 <path d="m6.5653 12.48c-0.085594-0.06248-0.31668-0.17235-0.47264-0.22472-0.31357-0.1053-0.58051-0.14747-0.99718-0.15753-0.2476-0.0059-0.34929-0.0027-0.48435 0.01537-0.33355 0.04476-0.70476 0.13958-0.95049 0.2428-0.16316 0.06853-0.22058 0.07894-0.27767 0.0503-0.09588-0.0481-0.089543 0.11322-0.089543-2.2797v-2.1629l0.099102-0.063909c0.1796-0.11582 0.43277-0.21787 0.69864-0.28162 0.6353-0.15233 1.4569-0.12166 2.0259 0.075621 0.1279 0.044352 0.38198 0.16876 0.46352 0.22696l0.060545 0.043215v3.9723l0.17643-0.08478c0.39921-0.19186 0.94648-0.32722 1.4048-0.34745 0.31852-0.01407 0.80142 0.03946 1.0648 0.11801l0.089034 0.02656v-1.9886c0-1.0937 0.00347-1.9886 0.00766-1.9886 0.017572 0 0.26375 0.096615 0.3352 0.13156 0.042553 0.020812 0.12073 0.064941 0.17371 0.098065l0.09634 0.060229-0.0038 2.1731c-0.0041 2.3651 0.0018 2.2058-0.08312 2.2544-0.0584 0.03347-0.09663 0.02786-0.23559-0.03449-0.5801-0.26033-1.3372-0.33172-2.0136-0.18988-0.31547 0.06615-0.66032 0.18188-0.88183 0.29592-0.065523 0.03373-0.12642 0.06091-0.13533 0.06039-0.00891-5.26e-4 -0.040699-0.01881-0.070634-0.04068zm0.68836-2.9026v-1.6228l1.51-1.4646v3.3917l-0.71583 0.62426c-0.39371 0.34335-0.73346 0.64002-0.75501 0.65928l-0.039176 0.03502zm3.3233-0.60364-0.06995-0.079455 0.01708-0.31092c0.0094-0.171 0.03511-0.65211 0.05712-1.0691l0.04004-0.7582 0.22866 0.00894c0.12576 0.00494 0.26841 0.012568 0.317 0.016998l0.08835 0.00805-0.0067 0.084826c-0.0037 0.046654-0.01945 0.33356-0.03506 0.63756-0.0156 0.304-0.03472 0.66421-0.0425 0.80045-0.0078 0.13624-0.01412 0.26194-0.01412 0.27933 0 0.023403-0.06371 0.087382-0.24524 0.24629-0.13489 0.11808-0.24964 0.21468-0.25501 0.21468-0.0055 0-0.04124-0.035759-0.0797-0.079455zm2.0912-1.8773c-0.2457-0.052119-0.48586-0.2381-0.59772-0.46288l-0.05915-0.11885-0.16719-0.00902c-0.09196-0.00494-0.4172-0.021409-0.72276-0.036543-0.30557-0.015137-1.1085-0.055152-1.7843-0.088912l-1.2288-0.061389-0.070583-0.073402c-0.038823-0.04037-0.070326-0.079623-0.070011-0.087223 5.548e-4 -0.012382 0.35129-0.32589 0.4527-0.40459l0.040581-0.031495 0.41851 0.021173c1.3541 0.068506 1.7845 0.089334 1.7872 0.086475 0.0049-0.0053 0.03445-0.55672 0.03429-0.6423l-1.39e-4 -0.079461-0.08763-0.048366c-0.27947-0.15424-0.45442-0.47292-0.4353-0.79291 0.0246-0.41172 0.32199-0.73552 0.7431-0.80908 0.37629-0.065729 0.78108 0.13553 0.94521 0.46995 0.07357 0.1499 0.09384 0.23782 0.09218 0.39967-0.0024 0.23464-0.08541 0.42462-0.25999 0.59509-0.08115 0.079249-0.13621 0.1187-0.22761 0.16307-0.06631 0.032192-0.12307 0.060964-0.12613 0.063931-0.0071 0.00682-0.04463 0.70312-0.03829 0.70926 0.0038 0.00374 0.64658 0.042654 0.71958 0.043599 0.01177 1.343e-4 0.04046-0.035465 0.0638-0.079147 0.095-0.17783 0.33083-0.35503 0.54876-0.41233 0.12414-0.032647 0.34834-0.032639 0.46212 1.2e-5 0.2435 0.069871 0.4657 0.24713 0.56784 0.453 0.18201 0.36685 0.09332 0.78521-0.22156 1.045-0.21438 0.17688-0.50239 0.24629-0.77871 0.18768zm0.28657-0.4214c0.2092-0.042099 0.35898-0.22025 0.35898-0.427 0-0.16026-0.09279-0.30937-0.239-0.38405-0.06439-0.032892-0.08893-0.037291-0.20832-0.037345-0.1235-5.37e-5 -0.14201 0.00348-0.21175 0.040991-0.07776 0.041774-0.14794 0.11366-0.19604 0.20077-0.04122 0.074662-0.03804 0.29019 0.0056 0.36926 0.06993 0.1271 0.1844 0.21181 0.32189 0.23821 0.08349 0.016027 0.08503 0.016021 0.16875-7.834e-4zm-1.9121-0.44047c0.06267-0.060797 0.04383-0.15083-0.03787-0.18096-0.04471-0.016487-0.08177-0.00643-0.11894 0.03229-0.08953 0.093223 0.06396 0.23874 0.15682 0.14867zm0.22692-1.5357c0.26472-0.12832 0.32673-0.47788 0.12117-0.68305-0.16902-0.1687-0.44018-0.17988-0.61724-0.025457-0.10369 0.090437-0.15048 0.19131-0.14983 0.32302 5.53e-4 0.12206 0.03174 0.20112 0.11395 0.2894 0.09201 0.098798 0.18365 0.13653 0.33517 0.138 0.09374 9.641e-4 0.11993-0.00464 0.19678-0.041925z" fill="#ffffff" stroke-width=".01403"/>
</svg>
