<svg xmlns="http://www.w3.org/2000/svg" xmlns:xlink="http://www.w3.org/1999/xlink" width="64" height="64" viewBox="0 0 16.933 16.933"><defs><linearGradient id="a"><stop offset="0" stop-color="#66bcff"/><stop offset="1" stop-color="#b29aff"/></linearGradient><linearGradient xlink:href="#a" id="c" x1="13.229" y1="297" x2="2.117" y2="280.067" gradientUnits="userSpaceOnUse" gradientTransform="matrix(1.07143 0 0 1 -.605 0)"/><clipPath clipPathUnits="userSpaceOnUse" id="d"><rect ry=".265" y="282.448" x="1.058" height="12.171" width="14.817" fill="url(#b)" stroke-width=".535" stroke-opacity=".039" paint-order="stroke markers fill"/></clipPath><linearGradient xlink:href="#a" id="b" gradientUnits="userSpaceOnUse" x1="13.229" y1="297" x2="2.117" y2="280.067"/></defs><g transform="translate(0 -280.067)"><path d="M.794 282.448H16.14c.146 0 .264.118.264.264v11.642a.264.264 0 0 1-.264.265H.794a.264.264 0 0 1-.265-.265v-11.642c0-.146.118-.264.265-.264z" fill="url(#c)" paint-order="stroke markers fill"/><rect width="1.058" height=".529" x="1.587" y="282.712" ry=".265" opacity=".35" paint-order="stroke markers fill"/><rect ry=".265" y="282.712" x="7.144" height=".529" width="2.646" opacity=".35" paint-order="stroke markers fill"/><rect width=".529" height=".529" x="15.081" y="282.712" ry=".265" opacity=".35" paint-order="stroke markers fill"/><rect ry=".265" y="282.712" x="14.023" height=".529" width=".794" opacity=".35" paint-order="stroke markers fill"/><rect width=".529" height=".529" x="13.229" y="282.712" ry=".265" opacity=".35" paint-order="stroke markers fill"/><rect width="10.054" height="2.646" x="3.44" y="293.56" ry=".529" clip-path="url(#d)" opacity=".35" fill="#fff" paint-order="stroke markers fill"/><rect width="1.323" height="1.323" x="4.498" y="292.767" ry=".132" fill="#ccdfff" paint-order="stroke markers fill"/><rect ry=".132" y="292.767" x="6.703" height="1.323" width="1.323" fill="#ccdfff" paint-order="stroke markers fill"/><rect width="1.323" height="1.323" x="8.908" y="292.767" ry=".132" fill="#ccdfff" paint-order="stroke markers fill"/><rect ry=".132" y="292.767" x="11.113" height="1.323" width="1.323" fill="#ccdfff" paint-order="stroke markers fill"/><path d="M.794 282.448a.264.264 0 0 0-.265.265v.793h15.875v-.793a.264.264 0 0 0-.264-.265H.794z" opacity=".35" paint-order="stroke markers fill"/><path d="M12.17 286.946l-1.587 1.058c-.05.343-.118.682 0 1.059l1.588 1.058z" fill="#f9f9f9"/><path d="M5.556 286.417a.264.264 0 0 0-.264.264v3.704c0 .147.118.265.264.265h4.763a.264.264 0 0 0 .264-.265v-3.704a.264.264 0 0 0-.264-.264H5.556zm2.381.793a1.323 1.323 0 0 1 1.323 1.323 1.323 1.323 0 0 1-1.323 1.323 1.323 1.323 0 0 1-1.322-1.323 1.323 1.323 0 0 1 1.322-1.323z" fill="#f9f9f9"/></g></svg>