<svg width="64" height="64" version="1.1" viewBox="0 0 16.933 16.933" xmlns="http://www.w3.org/2000/svg">
 <defs>
  <linearGradient id="linearGradient9555-3" x1="14.679" x2="2.2933" y1="293.79" y2="282.98" gradientTransform="matrix(.99997 0 0 1.0434 -.0002301 -292.6)" gradientUnits="userSpaceOnUse">
   <stop stop-color="#66bcff" offset="0"/>
   <stop stop-color="#b29aff" offset="1"/>
  </linearGradient>
 </defs>
 <rect x="1.0583" y="2.1166" width="14.816" height="12.7" rx="1.3229" ry="1.3229" fill="url(#linearGradient9555-3)" stroke-width=".98685"/>
 <rect x="1.8518" y="2.6458" width="13.229" height="1.0583" rx=".52916" ry=".52916" fill="#000000" opacity=".35" stop-color="#000000" stroke-width="0"/>
 <rect x="2.1166" y="2.9104" width="1.058" height=".529" ry=".265" opacity=".35" style="paint-order:stroke markers fill"/>
 <rect x="7.1439" y="2.9104" width="2.646" height=".529" ry=".265" opacity=".35" style="paint-order:stroke markers fill"/>
 <rect x="14.287" y="2.9104" width=".529" height=".529" ry=".265" opacity=".35" style="paint-order:stroke markers fill"/>
 <rect x="13.229" y="2.9104" width=".794" height=".529" ry=".265" opacity=".35" style="paint-order:stroke markers fill"/>
 <rect x="12.435" y="2.9104" width=".529" height=".529" ry=".265" opacity=".35" style="paint-order:stroke markers fill"/>
 <rect x="3.44" y="12.7" width="10.053" height="1.323" rx=".26458" ry=".26458" fill="#ffffff" opacity=".35" paint-order="markers stroke fill"/>
 <g transform="translate(0 1.7225)" fill="#ccdfff">
  <rect x="4.2333" y="10.448" width="1.323" height="1.323" rx=".26433" ry=".26433" style="paint-order:stroke markers fill"/>
  <rect x="6.6145" y="10.448" width="1.323" height="1.323" rx=".26433" ry=".26433" style="paint-order:stroke markers fill"/>
  <rect x="8.9956" y="10.448" width="1.323" height="1.323" rx=".26433" ry=".26433" style="paint-order:stroke markers fill"/>
  <rect x="11.376" y="10.448" width="1.323" height="1.323" rx=".26433" ry=".26433" style="paint-order:stroke markers fill"/>
 </g>
 <path d="m12.17 6.879-1.587 1.058c-0.05 0.343-0.118 0.682 0 1.059l1.588 1.058z" fill="#f9f9f9"/>
 <path d="m5.556 6.35a0.264 0.264 0 0 0-0.264 0.264v3.704c0 0.147 0.118 0.265 0.264 0.265h4.763a0.264 0.264 0 0 0 0.264-0.265v-3.704a0.264 0.264 0 0 0-0.264-0.264zm2.381 0.793a1.323 1.323 0 0 1 1.323 1.323 1.323 1.323 0 0 1-1.323 1.323 1.323 1.323 0 0 1-1.322-1.323 1.323 1.323 0 0 1 1.322-1.323z" fill="#f9f9f9"/>
</svg>
