<svg xmlns="http://www.w3.org/2000/svg" width="64" height="64" image-rendering="optimizeSpeed"><rect width="55.999" height="46.002" x="3.999" y="8.999" fill="#72787e" rx="5.186" ry="5"/><rect width="15.999" height="1.999" x="20.002" y="33.979" fill="#fff" paint-order="stroke markers fill" ry="1.002"/><path fill="#fff" d="M15.016 15.837a.998.998 0 0 0-.99.491.998.998 0 0 0 .366 1.369l10.742 6.198-10.742 6.202a.998.998 0 0 0-.366 1.369c.28.48.888.642 1.368.366l12.12-7a.983.983 0 0 0 .481-.85c.008-.03.004-.057.008-.083 0-.03 0-.057-.008-.087a.983.983 0 0 0-.48-.847l-12.121-7.003a1.005 1.005 0 0 0-.378-.125z" paint-order="stroke markers fill"/><circle cx="52" cy="47.002" r="12" fill="#32a8ff"/><path fill="#fff" d="M46 41v1c0 .55.454 1 1 1a9 9 0 0 1 9 9c0 .55.454 1 1 1h1v-1c0-6.075-4.925-11-11-11zm0 4v1c0 .55.454 1 1 1a5 5 0 0 1 5 5c0 .55.454 1 1 1h1v-1a7 7 0 0 0-7-7zm2 4.002a2 2 0 1 0 0 4 2 2 0 0 0 0-4z"/></svg>