<svg width="64" height="64" version="1.1" viewBox="0 0 16.933 16.933" xmlns="http://www.w3.org/2000/svg">
 <path d="m7.1442 2.3771-3.7041 0.00103c-0.2936 0-0.39494 0.26797-0.52969 0.52863v0.00362h-0.26458c-0.58631 0-1.0583 0.47201-1.0583 1.0583v7.4082c0 0.58631 0.47201 1.0583 1.0583 1.0583h11.642c0.58631 0 1.0583-0.47201 1.0583-1.0583v-7.4082c0-0.58631-0.47201-1.0583-1.0583-1.0583h-4.4606c-0.012512-8.466e-4 -0.024471-0.00367-0.037205-0.003617h-2.1156c-0.155-0.249-0.23567-0.52969-0.52969-0.52969z" fill="#5294e2" stroke-linecap="round" stroke-linejoin="round" stroke-width=".49262" style="paint-order:stroke fill markers"/>
 <path d="m7.1442 2.3771-3.7041 0.00103c-0.2936 0-0.39494 0.26797-0.52969 0.52863v0.00362h-0.26458c-0.58631 0-1.0583 0.47201-1.0583 1.0583v7.4082c0 0.58631 0.47201 1.0583 1.0583 1.0583h11.642c0.58631 0 1.0583-0.47201 1.0583-1.0583v-7.4082c0-0.58631-0.47201-1.0583-1.0583-1.0583l-6.6134-0.00362c-0.155-0.249-0.23567-0.52969-0.52969-0.52969z" opacity=".18" stroke-linecap="round" stroke-linejoin="round" stroke-width=".49262" style="paint-order:stroke fill markers"/>
 <rect x="2.381" y="3.7" width="12.171" height="5.027" ry=".53326" fill="#ffffff" paint-order="markers stroke fill"/>
 <rect x="3.704" y="2.64" width="3.175" height=".529" ry=".265" opacity=".25" paint-order="stroke markers fill"/>
 <path d="m8.9957 4.2333-0.79374 1.0583h-6.6145c-0.58631 0-1.0583 0.47201-1.0583 1.0583v7.4082c0 0.58631 0.47201 1.0583 1.0583 1.0583h13.758c0.58631 0 1.0583-0.47201 1.0583-1.0583v-8.4666c0-0.58631-0.47201-1.0583-1.0583-1.0583z" fill="#5294e2" stroke-linecap="round" stroke-linejoin="round" stroke-width=".52916" style="paint-order:stroke fill markers"/>
 <path d="m6.3499 6.3499v1.0583c2.3381 0 4.2332 1.8952 4.2332 4.2332h1.0583c0-2.9235-2.3691-5.2916-5.2916-5.2916m0 2.1167v1.0583c1.1689 0 2.1167 0.94772 2.1167 2.1167h1.0583c0-1.7534-1.4216-3.1749-3.1749-3.1749m0 2.1167c-0.58445 0-1.0583 0.47386-1.0583 1.0583 0 0.58445 0.47386 1.0583 1.0583 1.0583 0.58445 0 1.0583-0.47386 1.0583-1.0583 0-0.58445-0.47386-1.0583-1.0583-1.0583" opacity=".15" stroke-width=".19843"/>
 <rect x="10.318" y="4.762" width="4.2333" height=".52916" ry=".26508" opacity=".25" stroke-width="1.0329" style="paint-order:stroke markers fill"/>
 <circle cx="13.493" cy="12.435" r="3.4395" fill="#4d4d4d" style="paint-order:stroke fill markers"/>
 <path d="m13.493 10.451a1.3229 1.3229 0 0 0-1.3229 1.3229h-0.22014c-0.17106 0-0.30903 0.13796-0.30903 0.30903v2.0283c0 0.17106 0.13796 0.3085 0.30903 0.3085h3.0866c0.17106 0 0.3085-0.13745 0.3085-0.3085v-2.0283c0-0.17106-0.13745-0.30903-0.3085-0.30903h-0.22066a1.3229 1.3229 0 0 0-1.3229-1.3229zm0 0.26458a0.92603 0.92603 0 0 1 0.92603 0.92603 0.92603 0.92603 0 0 1-0.01085 0.13229h-1.8309a0.92603 0.92603 0 0 1-0.01033-0.13229 0.92603 0.92603 0 0 1 0.92603-0.92603z" fill="#ffffff" stroke-width=".26458"/>
 <circle cx="13.493" cy="13.097" r="1.0583" fill="#808080" stroke-width=".26458"/>
 <rect x="13.229" y="13.097" width=".52916" height=".79374" fill="#1a1a1a" stroke-width=".26458"/>
 <circle cx="13.493" cy="12.832" r=".52916" fill="#1a1a1a" stroke-width=".26458"/>
</svg>
