<svg id="SimpleNote" width="64" height="64" enable-background="new 0 0 1024 1024" image-rendering="optimizeSpeed" version="1.1" viewBox="0 0 64 64" xmlns="http://www.w3.org/2000/svg">
 <g transform="translate(74.01)" font-size="4.3416px">
  <g font-family="'Bitstream Vera Sans'">
   <g stroke-width=".34276">
    <text x="328.7485" y="21.576719" opacity=".8" style="line-height:0%" xml:space="preserve"><tspan x="328.7485" y="21.576719" stroke-width=".34276"/></text>
    <text x="336.9614" y="7.6120324" opacity=".8" style="line-height:0%" xml:space="preserve"><tspan x="336.9614" y="7.6120324" stroke-width=".34276"/></text>
    <text x="-167.08931" y="-2.6975942" opacity=".8" style="line-height:0%" xml:space="preserve"><tspan x="-167.08931" y="-2.6975942" stroke-width=".34276"/></text>
    <text x="-792.17859" y="252.84938" opacity=".8" style="line-height:0%" xml:space="preserve"><tspan x="-792.17859" y="252.84938" stroke-width=".34276"/></text>
    <text x="-127.84618" y="-134.77075" opacity=".8" style="line-height:0%" xml:space="preserve"><tspan x="-127.84618" y="-134.77075" stroke-width=".34276"/></text>
    <text x="148.96869" y="-276.49237" opacity=".8" style="line-height:0%" xml:space="preserve"><tspan x="148.96869" y="-276.49237" stroke-width=".34276"/></text>
    <text x="157.18158" y="-290.45706" opacity=".8" style="line-height:0%" xml:space="preserve"><tspan x="157.18158" y="-290.45706" stroke-width=".34276"/></text>
    <text x="-354.03452" y="-292.92834" opacity=".8" style="line-height:0%" xml:space="preserve"><tspan x="-354.03452" y="-292.92834" stroke-width=".34276"/></text>
    <text x="146.58325" y="-386.58249" opacity=".8" style="line-height:0%" xml:space="preserve"><tspan x="146.58325" y="-386.58249" stroke-width=".34276"/></text>
    <text x="655.96906" y="-171.77682" opacity=".8" style="line-height:0%" xml:space="preserve"><tspan x="655.96906" y="-171.77682" stroke-width=".34276"/></text>
    <text x="664.18188" y="-185.74153" opacity=".8" style="line-height:0%" xml:space="preserve"><tspan x="664.18188" y="-185.74153" stroke-width=".34276"/></text>
    <text x="152.96587" y="-188.21281" opacity=".8" style="line-height:0%" xml:space="preserve"><tspan x="152.96587" y="-188.21281" stroke-width=".34276"/></text>
    <text x="653.58362" y="-281.86688" opacity=".8" style="line-height:0%" xml:space="preserve"><tspan x="653.58362" y="-281.86688" stroke-width=".34276"/></text>
    <text x="-168.48141" y="-204.69666" opacity=".8" style="line-height:0%" xml:space="preserve"><tspan x="-168.48141" y="-204.69666" stroke-width=".34276"/></text>
    <text x="-793.57056" y="50.850349" opacity=".8" style="line-height:0%" xml:space="preserve"><tspan x="-793.57056" y="50.850349" stroke-width=".34276"/></text>
    <text x="-205.8185" y="82.683334" opacity=".8" style="line-height:0%" xml:space="preserve"><tspan x="-205.8185" y="82.683334" stroke-width=".34276"/></text>
    <text x="174.31229" y="21.266605" opacity=".8" style="line-height:0%" xml:space="preserve"><tspan x="174.31229" y="21.266605" stroke-width=".34276"/></text>
    <text x="182.52516" y="7.3019199" opacity=".8" style="line-height:0%" xml:space="preserve"><tspan x="182.52516" y="7.3019199" stroke-width=".34276"/></text>
    <text x="-328.69092" y="4.8306184" opacity=".8" style="line-height:0%" xml:space="preserve"><tspan x="-328.69092" y="4.8306184" stroke-width=".34276"/></text>
    <text x="171.92685" y="-88.823479" opacity=".8" style="line-height:0%" xml:space="preserve"><tspan x="171.92685" y="-88.823479" stroke-width=".34276"/></text>
    <text x="-180.34094" y="3.900281" opacity=".8" style="line-height:0%" xml:space="preserve"><tspan x="-180.34094" y="3.900281" stroke-width=".34276"/></text>
    <text x="-805.43018" y="259.44727" opacity=".8" style="line-height:0%" xml:space="preserve"><tspan x="-805.43018" y="259.44727" stroke-width=".34276"/></text>
    <text x="-128.55208" y="-291.39914" opacity=".8" style="line-height:0%" xml:space="preserve"><tspan x="-128.55208" y="-291.39914" stroke-width=".34276"/></text>
    <text x="148.2628" y="-433.12082" opacity=".8" style="line-height:0%" xml:space="preserve"><tspan x="148.2628" y="-433.12082" stroke-width=".34276"/></text>
    <text x="156.47568" y="-447.08551" opacity=".8" style="line-height:0%" xml:space="preserve"><tspan x="156.47568" y="-447.08551" stroke-width=".34276"/></text>
    <text x="-354.74036" y="-449.55679" opacity=".8" style="line-height:0%" xml:space="preserve"><tspan x="-354.74036" y="-449.55679" stroke-width=".34276"/></text>
    <text x="145.87735" y="-543.21094" opacity=".8" style="line-height:0%" xml:space="preserve"><tspan x="145.87735" y="-543.21094" stroke-width=".34276"/></text>
    <text x="655.26312" y="-328.40527" opacity=".8" style="line-height:0%" xml:space="preserve"><tspan x="655.26312" y="-328.40527" stroke-width=".34276"/></text>
    <text x="663.47595" y="-342.36996" opacity=".8" style="line-height:0%" xml:space="preserve"><tspan x="663.47595" y="-342.36996" stroke-width=".34276"/></text>
    <text x="152.25996" y="-344.84125" opacity=".8" style="line-height:0%" xml:space="preserve"><tspan x="152.25996" y="-344.84125" stroke-width=".34276"/></text>
    <text x="652.87769" y="-438.49536" opacity=".8" style="line-height:0%" xml:space="preserve"><tspan x="652.87769" y="-438.49536" stroke-width=".34276"/></text>
    <text x="-169.1873" y="-361.3251" opacity=".8" style="line-height:0%" xml:space="preserve"><tspan x="-169.1873" y="-361.3251" stroke-width=".34276"/></text>
    <text x="-794.27649" y="-105.77808" opacity=".8" style="line-height:0%" xml:space="preserve"><tspan x="-794.27649" y="-105.77808" stroke-width=".34276"/></text>
    <text x="-206.5244" y="-73.945084" opacity=".8" style="line-height:0%" xml:space="preserve"><tspan x="-206.5244" y="-73.945084" stroke-width=".34276"/></text>
    <text x="81.400192" y="8.6310043" opacity=".8" style="line-height:0%" xml:space="preserve"><tspan x="81.400192" y="8.6310043" stroke-width=".34276"/></text>
    <text x="89.613075" y="-5.3336868" opacity=".8" style="line-height:0%" xml:space="preserve"><tspan x="89.613075" y="-5.3336868" stroke-width=".34276"/></text>
    <text x="-345.63113" y="-71.839211" opacity=".8" style="line-height:0%" xml:space="preserve"><tspan x="-345.63113" y="-71.839211" stroke-width=".34276"/></text>
    <text x="-68.816277" y="-213.56084" opacity=".8" style="line-height:0%" xml:space="preserve"><tspan x="-68.816277" y="-213.56084" stroke-width=".34276"/></text>
    <text x="-60.60339" y="-227.52553" opacity=".8" style="line-height:0%" xml:space="preserve"><tspan x="-60.60339" y="-227.52553" stroke-width=".34276"/></text>
    <text x="-571.81946" y="-229.9968" opacity=".8" style="line-height:0%" xml:space="preserve"><tspan x="-571.81946" y="-229.9968" stroke-width=".34276"/></text>
    <text x="-71.201706" y="-323.65091" opacity=".8" style="line-height:0%" xml:space="preserve"><tspan x="-71.201706" y="-323.65091" stroke-width=".34276"/></text>
    <text x="438.18408" y="-108.84528" opacity=".8" style="line-height:0%" xml:space="preserve"><tspan x="438.18408" y="-108.84528" stroke-width=".34276"/></text>
    <text x="446.39691" y="-122.80997" opacity=".8" style="line-height:0%" xml:space="preserve"><tspan x="446.39691" y="-122.80997" stroke-width=".34276"/></text>
    <text x="-64.819099" y="-125.28127" opacity=".8" style="line-height:0%" xml:space="preserve"><tspan x="-64.819099" y="-125.28127" stroke-width=".34276"/></text>
    <text x="435.79865" y="-218.93538" opacity=".8" style="line-height:0%" xml:space="preserve"><tspan x="435.79865" y="-218.93538" stroke-width=".34276"/></text>
    <text x="-386.26639" y="-141.76511" opacity=".8" style="line-height:0%" xml:space="preserve"><tspan x="-386.26639" y="-141.76511" stroke-width=".34276"/></text>
    <text x="-1011.3555" y="113.7819" opacity=".8" style="line-height:0%" xml:space="preserve"><tspan x="-1011.3555" y="113.7819" stroke-width=".34276"/></text>
   </g>
   <text x="-423.60345" y="145.61487" opacity=".8" stroke-width=".31011" style="line-height:0%" xml:space="preserve"><tspan x="-423.60345" y="145.61487" stroke-width=".31011"/></text>
   <g stroke-width=".34276">
    <text x="328.7485" y="24.057621" opacity=".8" style="line-height:0%" xml:space="preserve"><tspan x="328.7485" y="24.057621" stroke-width=".34276"/></text>
    <text x="336.9614" y="10.092937" opacity=".8" style="line-height:0%" xml:space="preserve"><tspan x="336.9614" y="10.092937" stroke-width=".34276"/></text>
    <text x="-167.08931" y="-0.21669252" opacity=".8" style="line-height:0%" xml:space="preserve"><tspan x="-167.08931" y="-0.21669252" stroke-width=".34276"/></text>
    <text x="-792.17859" y="255.33029" opacity=".8" style="line-height:0%" xml:space="preserve"><tspan x="-792.17859" y="255.33029" stroke-width=".34276"/></text>
    <text x="-127.84618" y="-132.28986" opacity=".8" style="line-height:0%" xml:space="preserve"><tspan x="-127.84618" y="-132.28986" stroke-width=".34276"/></text>
    <text x="148.96869" y="-274.01144" opacity=".8" style="line-height:0%" xml:space="preserve"><tspan x="148.96869" y="-274.01144" stroke-width=".34276"/></text>
    <text x="157.18158" y="-287.97617" opacity=".8" style="line-height:0%" xml:space="preserve"><tspan x="157.18158" y="-287.97617" stroke-width=".34276"/></text>
    <text x="-354.03452" y="-290.44745" opacity=".8" style="line-height:0%" xml:space="preserve"><tspan x="-354.03452" y="-290.44745" stroke-width=".34276"/></text>
    <text x="146.58325" y="-384.10159" opacity=".8" style="line-height:0%" xml:space="preserve"><tspan x="146.58325" y="-384.10159" stroke-width=".34276"/></text>
    <text x="655.96906" y="-169.29593" opacity=".8" style="line-height:0%" xml:space="preserve"><tspan x="655.96906" y="-169.29593" stroke-width=".34276"/></text>
    <text x="664.18188" y="-183.26064" opacity=".8" style="line-height:0%" xml:space="preserve"><tspan x="664.18188" y="-183.26064" stroke-width=".34276"/></text>
    <text x="152.96587" y="-185.7319" opacity=".8" style="line-height:0%" xml:space="preserve"><tspan x="152.96587" y="-185.7319" stroke-width=".34276"/></text>
    <text x="653.58362" y="-279.38599" opacity=".8" style="line-height:0%" xml:space="preserve"><tspan x="653.58362" y="-279.38599" stroke-width=".34276"/></text>
    <text x="-168.48141" y="-202.21576" opacity=".8" style="line-height:0%" xml:space="preserve"><tspan x="-168.48141" y="-202.21576" stroke-width=".34276"/></text>
    <text x="-793.57056" y="53.331253" opacity=".8" style="line-height:0%" xml:space="preserve"><tspan x="-793.57056" y="53.331253" stroke-width=".34276"/></text>
    <text x="-205.8185" y="85.164238" opacity=".8" style="line-height:0%" xml:space="preserve"><tspan x="-205.8185" y="85.164238" stroke-width=".34276"/></text>
    <text x="174.31229" y="23.747509" opacity=".8" style="line-height:0%" xml:space="preserve"><tspan x="174.31229" y="23.747509" stroke-width=".34276"/></text>
    <text x="182.52516" y="9.7828245" opacity=".8" style="line-height:0%" xml:space="preserve"><tspan x="182.52516" y="9.7828245" stroke-width=".34276"/></text>
    <text x="-328.69092" y="7.3115225" opacity=".8" style="line-height:0%" xml:space="preserve"><tspan x="-328.69092" y="7.3115225" stroke-width=".34276"/></text>
    <text x="171.92685" y="-86.342567" opacity=".8" style="line-height:0%" xml:space="preserve"><tspan x="171.92685" y="-86.342567" stroke-width=".34276"/></text>
    <text x="-180.34094" y="6.3811855" opacity=".8" style="line-height:0%" xml:space="preserve"><tspan x="-180.34094" y="6.3811855" stroke-width=".34276"/></text>
    <text x="-805.43018" y="261.92819" opacity=".8" style="line-height:0%" xml:space="preserve"><tspan x="-805.43018" y="261.92819" stroke-width=".34276"/></text>
    <text x="-128.55208" y="-288.91824" opacity=".8" style="line-height:0%" xml:space="preserve"><tspan x="-128.55208" y="-288.91824" stroke-width=".34276"/></text>
    <text x="148.2628" y="-430.63989" opacity=".8" style="line-height:0%" xml:space="preserve"><tspan x="148.2628" y="-430.63989" stroke-width=".34276"/></text>
    <text x="156.47568" y="-444.60461" opacity=".8" style="line-height:0%" xml:space="preserve"><tspan x="156.47568" y="-444.60461" stroke-width=".34276"/></text>
    <text x="-354.74036" y="-447.07587" opacity=".8" style="line-height:0%" xml:space="preserve"><tspan x="-354.74036" y="-447.07587" stroke-width=".34276"/></text>
    <text x="145.87735" y="-540.72998" opacity=".8" style="line-height:0%" xml:space="preserve"><tspan x="145.87735" y="-540.72998" stroke-width=".34276"/></text>
    <text x="655.26312" y="-325.92435" opacity=".8" style="line-height:0%" xml:space="preserve"><tspan x="655.26312" y="-325.92435" stroke-width=".34276"/></text>
    <text x="663.47595" y="-339.88907" opacity=".8" style="line-height:0%" xml:space="preserve"><tspan x="663.47595" y="-339.88907" stroke-width=".34276"/></text>
    <text x="152.25996" y="-342.36032" opacity=".8" style="line-height:0%" xml:space="preserve"><tspan x="152.25996" y="-342.36032" stroke-width=".34276"/></text>
    <text x="652.87769" y="-436.01447" opacity=".8" style="line-height:0%" xml:space="preserve"><tspan x="652.87769" y="-436.01447" stroke-width=".34276"/></text>
    <text x="-169.1873" y="-358.84418" opacity=".8" style="line-height:0%" xml:space="preserve"><tspan x="-169.1873" y="-358.84418" stroke-width=".34276"/></text>
    <text x="-794.27649" y="-103.29716" opacity=".8" style="line-height:0%" xml:space="preserve"><tspan x="-794.27649" y="-103.29716" stroke-width=".34276"/></text>
    <text x="-206.5244" y="-71.464172" opacity=".8" style="line-height:0%" xml:space="preserve"><tspan x="-206.5244" y="-71.464172" stroke-width=".34276"/></text>
    <text x="81.400192" y="11.111906" opacity=".8" style="line-height:0%" xml:space="preserve"><tspan x="81.400192" y="11.111906" stroke-width=".34276"/></text>
    <text x="89.613075" y="-2.8527877" opacity=".8" style="line-height:0%" xml:space="preserve"><tspan x="89.613075" y="-2.8527877" stroke-width=".34276"/></text>
    <text x="-345.63113" y="-69.358307" opacity=".8" style="line-height:0%" xml:space="preserve"><tspan x="-345.63113" y="-69.358307" stroke-width=".34276"/></text>
    <text x="-68.816277" y="-211.07994" opacity=".8" style="line-height:0%" xml:space="preserve"><tspan x="-68.816277" y="-211.07994" stroke-width=".34276"/></text>
    <text x="-60.60339" y="-225.04462" opacity=".8" style="line-height:0%" xml:space="preserve"><tspan x="-60.60339" y="-225.04462" stroke-width=".34276"/></text>
    <text x="-571.81946" y="-227.51591" opacity=".8" style="line-height:0%" xml:space="preserve"><tspan x="-571.81946" y="-227.51591" stroke-width=".34276"/></text>
    <text x="-71.201706" y="-321.17001" opacity=".8" style="line-height:0%" xml:space="preserve"><tspan x="-71.201706" y="-321.17001" stroke-width=".34276"/></text>
    <text x="438.18408" y="-106.36439" opacity=".8" style="line-height:0%" xml:space="preserve"><tspan x="438.18408" y="-106.36439" stroke-width=".34276"/></text>
    <text x="446.39691" y="-120.32908" opacity=".8" style="line-height:0%" xml:space="preserve"><tspan x="446.39691" y="-120.32908" stroke-width=".34276"/></text>
    <text x="-64.819099" y="-122.80036" opacity=".8" style="line-height:0%" xml:space="preserve"><tspan x="-64.819099" y="-122.80036" stroke-width=".34276"/></text>
    <text x="435.79865" y="-216.45448" opacity=".8" style="line-height:0%" xml:space="preserve"><tspan x="435.79865" y="-216.45448" stroke-width=".34276"/></text>
    <text x="-386.26639" y="-139.28419" opacity=".8" style="line-height:0%" xml:space="preserve"><tspan x="-386.26639" y="-139.28419" stroke-width=".34276"/></text>
    <text x="-1011.3555" y="116.26279" opacity=".8" style="line-height:0%" xml:space="preserve"><tspan x="-1011.3555" y="116.26279" stroke-width=".34276"/></text>
   </g>
   <text x="-423.60345" y="148.09576" opacity=".8" stroke-width=".31011" style="line-height:0%" xml:space="preserve"><tspan x="-423.60345" y="148.09576" stroke-width=".31011"/></text>
  </g>
  <text x="177.48033" y="-105.94358" font-family="'Droid Sans'" stroke-width=".34276" style="line-height:0%" xml:space="preserve"><tspan x="177.48033" y="-105.94358"/><tspan x="177.48033" y="-100.51661"/></text>
  <g font-family="'Bitstream Vera Sans'" stroke-width=".34276">
   <text x="336.92746" y="-271.16986" opacity=".8" style="line-height:0%" xml:space="preserve"><tspan x="336.92746" y="-271.16986" stroke-width=".34276"/></text>
   <text x="-288.16177" y="-15.62289" opacity=".8" style="line-height:0%" xml:space="preserve"><tspan x="-288.16177" y="-15.62289" stroke-width=".34276"/></text>
   <text x="586.14227" y="-368.85547" opacity=".8" style="line-height:0%" xml:space="preserve"><tspan x="586.14227" y="-368.85547" stroke-width=".34276"/></text>
   <text x="594.3551" y="-382.82016" opacity=".8" style="line-height:0%" xml:space="preserve"><tspan x="594.3551" y="-382.82016" stroke-width=".34276"/></text>
   <text x="83.139061" y="-385.29144" opacity=".8" style="line-height:0%" xml:space="preserve"><tspan x="83.139061" y="-385.29144" stroke-width=".34276"/></text>
   <text x="583.75684" y="-478.94559" opacity=".8" style="line-height:0%" xml:space="preserve"><tspan x="583.75684" y="-478.94559" stroke-width=".34276"/></text>
  </g>
 </g>
 <rect x="6" y="6" width="52" height="52" rx="2" ry="2" fill="#ececec" style="paint-order:stroke markers fill"/>
 <path d="m12 15h24v2h-24z" opacity=".35"/>
 <circle cx="43" cy="16" r="2" fill="#3db8ff"/>
 <circle cx="51" cy="16" r="2" fill="#60b305"/>
 <path d="m12 31h24v2h-24z" opacity=".35"/>
 <path d="m12 47h24v2h-24z" opacity=".35"/>
 <rect x="6" y="23" width="52" height="1" rx="0" ry="0" fill="#00000f" fill-rule="evenodd" opacity=".15" stroke-width=".57735" style="paint-order:fill markers stroke"/>
 <rect x="6" y="39" width="52" height="1" rx="0" ry="0" fill="#00000f" fill-rule="evenodd" opacity=".15" stroke-width=".57735" style="paint-order:fill markers stroke"/>
 <circle cx="43" cy="32" r="2" fill="#3db8ff"/>
 <circle cx="51" cy="32" r="2" fill="#60b305"/>
 <circle cx="43" cy="48" r="2" fill="#3db8ff"/>
 <circle cx="51" cy="48" r="2" fill="#60b305"/>
</svg>
