<svg xmlns="http://www.w3.org/2000/svg" width="64" height="64" image-rendering="optimizeSpeed"><g font-size="4.342"><g font-family="'Bitstream Vera Sans'"><g stroke-width=".343"><text xml:space="preserve" x="328.748" y="21.577" opacity=".8" style="line-height:0%" transform="translate(74.01)"/><text xml:space="preserve" x="336.961" y="7.612" opacity=".8" style="line-height:0%" transform="translate(74.01)"/><text xml:space="preserve" x="-167.089" y="-2.698" opacity=".8" style="line-height:0%" transform="translate(74.01)"/><text xml:space="preserve" x="-792.179" y="252.849" opacity=".8" style="line-height:0%" transform="translate(74.01)"/><text xml:space="preserve" x="-127.846" y="-134.771" opacity=".8" style="line-height:0%" transform="translate(74.01)"/><text xml:space="preserve" x="148.969" y="-276.492" opacity=".8" style="line-height:0%" transform="translate(74.01)"/><text xml:space="preserve" x="157.182" y="-290.457" opacity=".8" style="line-height:0%" transform="translate(74.01)"/><text xml:space="preserve" x="-354.035" y="-292.928" opacity=".8" style="line-height:0%" transform="translate(74.01)"/><text xml:space="preserve" x="146.583" y="-386.582" opacity=".8" style="line-height:0%" transform="translate(74.01)"/><text xml:space="preserve" x="655.969" y="-171.777" opacity=".8" style="line-height:0%" transform="translate(74.01)"/><text xml:space="preserve" x="664.182" y="-185.742" opacity=".8" style="line-height:0%" transform="translate(74.01)"/><text xml:space="preserve" x="152.966" y="-188.213" opacity=".8" style="line-height:0%" transform="translate(74.01)"/><text xml:space="preserve" x="653.584" y="-281.867" opacity=".8" style="line-height:0%" transform="translate(74.01)"/><text xml:space="preserve" x="-168.481" y="-204.697" opacity=".8" style="line-height:0%" transform="translate(74.01)"/><text xml:space="preserve" x="-793.571" y="50.85" opacity=".8" style="line-height:0%" transform="translate(74.01)"/><text xml:space="preserve" x="-205.819" y="82.683" opacity=".8" style="line-height:0%" transform="translate(74.01)"/><text xml:space="preserve" x="174.312" y="21.267" opacity=".8" style="line-height:0%" transform="translate(74.01)"/><text xml:space="preserve" x="182.525" y="7.302" opacity=".8" style="line-height:0%" transform="translate(74.01)"/><text xml:space="preserve" x="-328.691" y="4.831" opacity=".8" style="line-height:0%" transform="translate(74.01)"/><text xml:space="preserve" x="171.927" y="-88.823" opacity=".8" style="line-height:0%" transform="translate(74.01)"/><text xml:space="preserve" x="-180.341" y="3.9" opacity=".8" style="line-height:0%" transform="translate(74.01)"/><text xml:space="preserve" x="-805.43" y="259.447" opacity=".8" style="line-height:0%" transform="translate(74.01)"/><text xml:space="preserve" x="-128.552" y="-291.399" opacity=".8" style="line-height:0%" transform="translate(74.01)"/><text xml:space="preserve" x="148.263" y="-433.121" opacity=".8" style="line-height:0%" transform="translate(74.01)"/><text xml:space="preserve" x="156.476" y="-447.086" opacity=".8" style="line-height:0%" transform="translate(74.01)"/><text xml:space="preserve" x="-354.74" y="-449.557" opacity=".8" style="line-height:0%" transform="translate(74.01)"/><text xml:space="preserve" x="145.877" y="-543.211" opacity=".8" style="line-height:0%" transform="translate(74.01)"/><text xml:space="preserve" x="655.263" y="-328.405" opacity=".8" style="line-height:0%" transform="translate(74.01)"/><text xml:space="preserve" x="663.476" y="-342.37" opacity=".8" style="line-height:0%" transform="translate(74.01)"/><text xml:space="preserve" x="152.26" y="-344.841" opacity=".8" style="line-height:0%" transform="translate(74.01)"/><text xml:space="preserve" x="652.878" y="-438.495" opacity=".8" style="line-height:0%" transform="translate(74.01)"/><text xml:space="preserve" x="-169.187" y="-361.325" opacity=".8" style="line-height:0%" transform="translate(74.01)"/><text xml:space="preserve" x="-794.276" y="-105.778" opacity=".8" style="line-height:0%" transform="translate(74.01)"/><text xml:space="preserve" x="-206.524" y="-73.945" opacity=".8" style="line-height:0%" transform="translate(74.01)"/><text xml:space="preserve" x="81.4" y="8.631" opacity=".8" style="line-height:0%" transform="translate(74.01)"/><text xml:space="preserve" x="89.613" y="-5.334" opacity=".8" style="line-height:0%" transform="translate(74.01)"/><text xml:space="preserve" x="-345.631" y="-71.839" opacity=".8" style="line-height:0%" transform="translate(74.01)"/><text xml:space="preserve" x="-68.816" y="-213.561" opacity=".8" style="line-height:0%" transform="translate(74.01)"/><text xml:space="preserve" x="-60.603" y="-227.526" opacity=".8" style="line-height:0%" transform="translate(74.01)"/><text xml:space="preserve" x="-571.819" y="-229.997" opacity=".8" style="line-height:0%" transform="translate(74.01)"/><text xml:space="preserve" x="-71.202" y="-323.651" opacity=".8" style="line-height:0%" transform="translate(74.01)"/><text xml:space="preserve" x="438.184" y="-108.845" opacity=".8" style="line-height:0%" transform="translate(74.01)"/><text xml:space="preserve" x="446.397" y="-122.81" opacity=".8" style="line-height:0%" transform="translate(74.01)"/><text xml:space="preserve" x="-64.819" y="-125.281" opacity=".8" style="line-height:0%" transform="translate(74.01)"/><text xml:space="preserve" x="435.799" y="-218.935" opacity=".8" style="line-height:0%" transform="translate(74.01)"/><text xml:space="preserve" x="-386.266" y="-141.765" opacity=".8" style="line-height:0%" transform="translate(74.01)"/><text xml:space="preserve" x="-1011.356" y="113.782" opacity=".8" style="line-height:0%" transform="translate(74.01)"/></g><text xml:space="preserve" x="-423.603" y="145.615" stroke-width=".31" opacity=".8" style="line-height:0%" transform="translate(74.01)"/><g stroke-width=".343"><text xml:space="preserve" x="328.748" y="24.058" opacity=".8" style="line-height:0%" transform="translate(74.01)"/><text xml:space="preserve" x="336.961" y="10.093" opacity=".8" style="line-height:0%" transform="translate(74.01)"/><text xml:space="preserve" x="-167.089" y="-.217" opacity=".8" style="line-height:0%" transform="translate(74.01)"/><text xml:space="preserve" x="-792.179" y="255.33" opacity=".8" style="line-height:0%" transform="translate(74.01)"/><text xml:space="preserve" x="-127.846" y="-132.29" opacity=".8" style="line-height:0%" transform="translate(74.01)"/><text xml:space="preserve" x="148.969" y="-274.011" opacity=".8" style="line-height:0%" transform="translate(74.01)"/><text xml:space="preserve" x="157.182" y="-287.976" opacity=".8" style="line-height:0%" transform="translate(74.01)"/><text xml:space="preserve" x="-354.035" y="-290.447" opacity=".8" style="line-height:0%" transform="translate(74.01)"/><text xml:space="preserve" x="146.583" y="-384.102" opacity=".8" style="line-height:0%" transform="translate(74.01)"/><text xml:space="preserve" x="655.969" y="-169.296" opacity=".8" style="line-height:0%" transform="translate(74.01)"/><text xml:space="preserve" x="664.182" y="-183.261" opacity=".8" style="line-height:0%" transform="translate(74.01)"/><text xml:space="preserve" x="152.966" y="-185.732" opacity=".8" style="line-height:0%" transform="translate(74.01)"/><text xml:space="preserve" x="653.584" y="-279.386" opacity=".8" style="line-height:0%" transform="translate(74.01)"/><text xml:space="preserve" x="-168.481" y="-202.216" opacity=".8" style="line-height:0%" transform="translate(74.01)"/><text xml:space="preserve" x="-793.571" y="53.331" opacity=".8" style="line-height:0%" transform="translate(74.01)"/><text xml:space="preserve" x="-205.819" y="85.164" opacity=".8" style="line-height:0%" transform="translate(74.01)"/><text xml:space="preserve" x="174.312" y="23.748" opacity=".8" style="line-height:0%" transform="translate(74.01)"/><text xml:space="preserve" x="182.525" y="9.783" opacity=".8" style="line-height:0%" transform="translate(74.01)"/><text xml:space="preserve" x="-328.691" y="7.312" opacity=".8" style="line-height:0%" transform="translate(74.01)"/><text xml:space="preserve" x="171.927" y="-86.343" opacity=".8" style="line-height:0%" transform="translate(74.01)"/><text xml:space="preserve" x="-180.341" y="6.381" opacity=".8" style="line-height:0%" transform="translate(74.01)"/><text xml:space="preserve" x="-805.43" y="261.928" opacity=".8" style="line-height:0%" transform="translate(74.01)"/><text xml:space="preserve" x="-128.552" y="-288.918" opacity=".8" style="line-height:0%" transform="translate(74.01)"/><text xml:space="preserve" x="148.263" y="-430.64" opacity=".8" style="line-height:0%" transform="translate(74.01)"/><text xml:space="preserve" x="156.476" y="-444.605" opacity=".8" style="line-height:0%" transform="translate(74.01)"/><text xml:space="preserve" x="-354.74" y="-447.076" opacity=".8" style="line-height:0%" transform="translate(74.01)"/><text xml:space="preserve" x="145.877" y="-540.73" opacity=".8" style="line-height:0%" transform="translate(74.01)"/><text xml:space="preserve" x="655.263" y="-325.924" opacity=".8" style="line-height:0%" transform="translate(74.01)"/><text xml:space="preserve" x="663.476" y="-339.889" opacity=".8" style="line-height:0%" transform="translate(74.01)"/><text xml:space="preserve" x="152.26" y="-342.36" opacity=".8" style="line-height:0%" transform="translate(74.01)"/><text xml:space="preserve" x="652.878" y="-436.014" opacity=".8" style="line-height:0%" transform="translate(74.01)"/><text xml:space="preserve" x="-169.187" y="-358.844" opacity=".8" style="line-height:0%" transform="translate(74.01)"/><text xml:space="preserve" x="-794.276" y="-103.297" opacity=".8" style="line-height:0%" transform="translate(74.01)"/><text xml:space="preserve" x="-206.524" y="-71.464" opacity=".8" style="line-height:0%" transform="translate(74.01)"/><text xml:space="preserve" x="81.4" y="11.112" opacity=".8" style="line-height:0%" transform="translate(74.01)"/><text xml:space="preserve" x="89.613" y="-2.853" opacity=".8" style="line-height:0%" transform="translate(74.01)"/><text xml:space="preserve" x="-345.631" y="-69.358" opacity=".8" style="line-height:0%" transform="translate(74.01)"/><text xml:space="preserve" x="-68.816" y="-211.08" opacity=".8" style="line-height:0%" transform="translate(74.01)"/><text xml:space="preserve" x="-60.603" y="-225.045" opacity=".8" style="line-height:0%" transform="translate(74.01)"/><text xml:space="preserve" x="-571.819" y="-227.516" opacity=".8" style="line-height:0%" transform="translate(74.01)"/><text xml:space="preserve" x="-71.202" y="-321.17" opacity=".8" style="line-height:0%" transform="translate(74.01)"/><text xml:space="preserve" x="438.184" y="-106.364" opacity=".8" style="line-height:0%" transform="translate(74.01)"/><text xml:space="preserve" x="446.397" y="-120.329" opacity=".8" style="line-height:0%" transform="translate(74.01)"/><text xml:space="preserve" x="-64.819" y="-122.8" opacity=".8" style="line-height:0%" transform="translate(74.01)"/><text xml:space="preserve" x="435.799" y="-216.454" opacity=".8" style="line-height:0%" transform="translate(74.01)"/><text xml:space="preserve" x="-386.266" y="-139.284" opacity=".8" style="line-height:0%" transform="translate(74.01)"/><text xml:space="preserve" x="-1011.356" y="116.263" opacity=".8" style="line-height:0%" transform="translate(74.01)"/></g><text xml:space="preserve" x="-423.603" y="148.096" stroke-width=".31" opacity=".8" style="line-height:0%" transform="translate(74.01)"/></g><text xml:space="preserve" x="177.48" y="-105.944" stroke-width=".343" font-family="'Droid Sans'" style="line-height:0%" transform="translate(74.01)"/><g stroke-width=".343" font-family="'Bitstream Vera Sans'"><text xml:space="preserve" x="336.927" y="-271.17" opacity=".8" style="line-height:0%" transform="translate(74.01)"/><text xml:space="preserve" x="-288.162" y="-15.623" opacity=".8" style="line-height:0%" transform="translate(74.01)"/><text xml:space="preserve" x="586.142" y="-368.855" opacity=".8" style="line-height:0%" transform="translate(74.01)"/><text xml:space="preserve" x="594.355" y="-382.82" opacity=".8" style="line-height:0%" transform="translate(74.01)"/><text xml:space="preserve" x="83.139" y="-385.291" opacity=".8" style="line-height:0%" transform="translate(74.01)"/><text xml:space="preserve" x="583.757" y="-478.946" opacity=".8" style="line-height:0%" transform="translate(74.01)"/></g></g><rect width="52" height="52" x="6" y="6" fill="#ececec" rx="6" ry="6" style="paint-order:stroke markers fill"/><path d="M12 15h24v2H12z" opacity=".35"/><circle cx="43" cy="16" r="2" fill="#3db8ff"/><circle cx="51" cy="16" r="2" fill="#60b305"/><path d="M12 31h24v2H12zM12 47h24v2H12z" opacity=".35"/><rect width="52" height="1" x="6" y="23" fill="#00000f" fill-rule="evenodd" opacity=".15" rx="0" ry="0" style="paint-order:fill markers stroke"/><rect width="52" height="1" x="6" y="39" fill="#00000f" fill-rule="evenodd" opacity=".15" rx="0" ry="0" style="paint-order:fill markers stroke"/><circle cx="43" cy="32" r="2" fill="#3db8ff"/><circle cx="51" cy="32" r="2" fill="#60b305"/><circle cx="43" cy="48" r="2" fill="#3db8ff"/><circle cx="51" cy="48" r="2" fill="#60b305"/></svg>