<svg xmlns="http://www.w3.org/2000/svg" width="64" height="64" viewBox="0 0 16.933 16.933"><defs><linearGradient id="a" x1="1" x2="47" gradientUnits="userSpaceOnUse" gradientTransform="rotate(-90 24 24)"><stop stop-color="#5e9c34"/><stop offset="1" stop-color="#68ac39"/></linearGradient></defs><path d="M24 1c12.703 0 23 10.297 23 23S36.703 47 24 47 1 36.703 1 24 11.297 1 24 1z" fill="url(#a)" transform="matrix(.2991 0 0 .2991 1.288 1.288)"/><g fill="#fff" stroke-width=".938"><path d="M9.031 4.233H7.902v4.234h1.13m0-4.234"/><path d="M7.338 4.375a4.248 4.248 0 0 0-3.105 4.083c0 2.323 1.895 4.242 4.234 4.242 2.338 0 4.233-1.92 4.233-4.242a4.248 4.248 0 0 0-3.104-4.083v1.093a3.225 3.225 0 0 1 2.046 2.99c0 1.782-1.423 3.21-3.175 3.21-1.751 0-3.175-1.429-3.175-3.21a3.2 3.2 0 0 1 2.046-3.007m0-1.076"/></g></svg>