<svg width="64" height="64" version="1.1" xmlns="http://www.w3.org/2000/svg">
 <circle cx="32" cy="32" r="27" fill="#3f3f3f" stroke-width=".96429"/>
 <path d="m24.808 15c-2.6621 0-4.8496 1.1759-6.2933 2.8121-1.4437 1.6362-2.2067 3.7046-2.2067 5.6879 0 3.618 1.5627 6.8204 4.6458 8.362l5.5066 2.7533h-2.9602c-3.9666 0-7.1923 3.2257-7.1923 7.1923s3.0512 7.1923 6.5385 7.1923h16.346c2.6621 0 4.8496-1.1759 6.2933-2.8121 1.4437-1.6362 2.2067-3.7046 2.2067-5.6879 0-3.618-1.5627-6.8204-4.6458-8.362l-5.5066-2.7533h2.9602c3.9666 0 7.1923-3.2257 7.1923-7.1923 0-1.8916-0.79149-3.6407-1.9693-4.9524-1.1777-1.3116-2.7859-2.2399-4.5692-2.2399zm0 2.6154h16.346c0.83206 0 1.8393 0.49858 2.6231 1.3715 0.78383 0.87296 1.3 2.0662 1.3 3.2054 0 2.5718-2.0051 4.5769-4.5769 4.5769h-8.5c-0.72219 0-1.3077 0.58551-1.3077 1.3077v5.7314l-8.5689-4.2857c-2.1475-1.0738-3.2003-3.102-3.2003-6.0226 0-1.2859 0.54463-2.8136 1.5529-3.9563 1.0083-1.1427 2.4169-1.9283 4.3317-1.9283zm8.5 12.576 8.5689 4.2857c2.1475 1.0738 3.2003 3.102 3.2003 6.0226 0 1.2859-0.54463 2.8136-1.5529 3.9563-1.0083 1.1427-2.4169 1.9283-4.3317 1.9283h-16.346c-1.7435 0-3.9231-2.0051-3.9231-4.5769 0-2.5718 2.0051-4.5769 4.5769-4.5769h8.5c0.72219 0 1.3077-0.58551 1.3077-1.3077z" fill="#00f782" stroke-width="1.3077"/>
</svg>
