<svg width="64" height="64" version="1.1" viewBox="0 0 64 64" xmlns="http://www.w3.org/2000/svg">
 <circle cx="32" cy="32" r="27" fill="#3584e4" stroke-linecap="square" stroke-width=".49757"/>
 <path d="m13.379 26.413v11.173" fill="none" stroke="#ffffff" stroke-linecap="round" stroke-width="2.7931"/>
 <path d="m13.379 32.465h5.5372" fill="none" stroke="#ffffff" stroke-linecap="round" stroke-width="2.7931"/>
 <path d="m18.965 28.275v10.241h4.6552l2.6877 4.6552h9.4159l3.7242-3.7242h2.7931v2.7931h4.2097l1.7475-6.5173-1.7475-6.5173h-4.2097v3.1368h-1.9712v-3.1368h-2.7531l-3.6551-3.6551h-11.173l-1.573 2.724zm0 0" fill="none" stroke="#ffffff" stroke-linecap="round" stroke-linejoin="round" stroke-width="3.7242"/>
 <path d="m36.597 19.43h-11.173" fill="none" stroke="#ffffff" stroke-linecap="round" stroke-width="2.7931"/>
 <path d="m38.27 17.457c-0.90376 0-1.7402 0.47825-2.1967 1.2565l-4.1679 7.0919 0.20367-0.30004c-0.2364 0.29822-0.56372 0.74738-0.73647 1.4075-0.17275 0.66191-0.0891 1.3093 0 1.693 0.08365 0.36369 0.30186 0.64009 0.50189 0.92377l-0.08001 0.14911c-0.06728 0.0018-0.12002-0.0018-0.2073 0.0055-0.17275 0.01091-0.28186-0.10001-1.0383 0.2564-0.70192 0.32914-1.2165 0.96014-1.3947 1.7166l-0.93286 3.9169c-0.24003 1.0074 0.15275 2.0603 0.99469 2.6622 0.84194 0.60372 1.9657 0.63646 2.8422 0.08547l6.2282-3.9169c1.0383-0.71283 1.4002-2.0785 0.85285-3.2114l3.4441-3.5296c0.87831-0.98014 0.8674-2.4694-0.02728-3.435l2.5513-2.3476c0.77102-0.71283 1.0292-1.8239 0.64737-2.8022-0.38187-0.97832-1.3238-1.6221-2.3731-1.6221z" fill="#3584e4" stroke-width=".46552"/>
 <path d="m30.545 19.43v5.5372" fill="none" stroke="#ffffff" stroke-linecap="round" stroke-width="2.7931"/>
 <path d="m38.71 20.007-4.166 7.0901c-0.2855 0.35641-0.33641 0.55099-0.24549 0.94013 0.0691 0.30914 0.41642 0.32914 0.41642 0.32914l1.1002 0.02727-2.0621 3.8533c-0.11092 0.08183-1.5039-0.08183-1.6784 0l-0.93286 3.9169 6.23-3.9169h-2.3785l6.2063-6.3627-3.7551-0.0055 6.3773-5.8736z" fill="#ffffff" stroke-width=".46552"/>
</svg>
