<svg xmlns="http://www.w3.org/2000/svg" width="64" height="64"><rect width="52" height="52" x="6" y="6" fill="#eaeaea" rx="8" ry="8" style="paint-order:fill markers stroke"/><path fill="#525252" d="M48 17.231c0-.682-.549-1.23-1.23-1.23h-8.616L32 17.23l-6.154-1.23h-8.615c-.682 0-1.231.548-1.231 1.23v29.538c0 .682.549 1.23 1.23 1.23h8.616L32 46.77l6.154 1.23h8.615c.682 0 1.231-.548 1.231-1.23zm-2.462 1.23v4.924h-4.923v-4.923zm0 7.385v4.923h-4.923v-4.923zm0 7.385v4.923h-4.923v-4.923zm0 7.385v4.923h-4.923v-4.923zM23.386 18.462v4.923H18.46v-4.923zm0 7.384v4.923H18.46v-4.923zm0 7.385v4.923H18.46V33.23zm0 7.384v4.923H18.46v-4.923z"/><path fill="#1d7596" d="M25.846 16v7.385h12.308V16zm0 9.846v12.308h12.308V25.846zm0 14.77V48h12.308v-7.385z"/></svg>