<svg id="App-Store" width="64" height="64" enable-background="new 0 0 1024 1024" image-rendering="optimizeSpeed" version="1.1" viewBox="0 0 64 64" xmlns="http://www.w3.org/2000/svg">
 <g transform="translate(3.0002 -3)">
  <path d="m55.182 28.136c-0.06292-0.24883-0.13442-0.51484-0.20879-0.77797-0.14301-0.50054-0.30604-1.0067-0.48337-1.5073-0.36896-1.044-0.80943-2.0622-1.3243-3.069-0.21738-0.42331-0.45477-0.8552-0.7036-1.2813h-0.0014q-1.7505-2.9751-4.3661-5.5916c-5.2713-5.2713-11.638-7.9084-19.094-7.9084s-13.82 2.6371-19.092 7.9084-7.9084 11.635-7.9084 19.092 2.6371 13.823 7.9084 19.094c3.8927 3.8927 8.3804 6.3467 13.437 7.3592 1.8276 0.3661 3.704 0.54629 5.6546 0.54629 7.4565 0 13.823-2.6342 19.094-7.9055 2.7801-2.7801 4.828-5.8633 6.1408-9.2556 0.97245-2.5141 1.5445-5.1941 1.7132-8.0514 0.03433-0.58348 0.05148-1.1813 0.05148-1.7876 0-2.3882-0.26886-4.6679-0.81801-6.8644z" fill="#1694f5" stroke-width=".89649"/>
  <path d="m39.667 18.361c-0.32213 0.0025-0.65842 0.01139-1.0071 0.02678-4.8618 0.2145-9.5004 1.3451-11.839 2.886-1.049 0.69108-1.4196 1.1597-1.819 2.2993-0.67465 1.9251-1.0936 5.1107-1.106 8.41-0.0043 1.1327 0.0151 2.1155 0.04319 2.1839 0.02809 0.06836 0.08079 0.12426 0.11718 0.12426s0.35158-0.34354 0.70031-0.76344c3.4686-4.1765 10.648-9.5679 17.028-12.788 1.6889-0.85244 2.0524-1.1628 1.8832-1.6079-0.18954-0.49852-1.7459-0.78851-4.0008-0.77078zm-17.267 5.7296c-0.39632-0.0014-1.4433 0.63078-2.268 1.4009-1.9802 1.8493-2.9565 4.5343-2.5947 7.1353 0.0964 0.69312 0.29135 1.1283 0.8251 1.842 1.0604 1.4179 3.6334 3.4844 5.6519 4.5392 0.63559 0.33214 0.79168 0.37844 0.86671 0.25706 0.02328-0.03771-0.10141-0.55706-0.27714-1.1541-1.4449-4.9087-1.9602-8.0455-1.9834-12.072-0.0073-1.2775-0.03525-1.8499-0.0929-1.9076-0.02749-0.0275-0.07094-0.04061-0.12755-0.04081zm13.03 2.3299c-0.19524 0.0023-0.37692 0.044-0.72197 0.12729-1.3263 0.3201-2.9141 1.216-4.7908 2.703-0.62238 0.49316-1.7666 1.563-2.1147 1.9772-0.41696 0.49612-0.3841 0.64404 0.14303 0.6435 4.6454-0.0048 6.7594 0.13099 9.5265 0.61161 1.4107 0.24501 2.5616 0.52151 4.1653 1.0004 0.58133 0.1736 1.1088 0.30092 1.1721 0.28304 0.06359-0.01796 0.13221-0.14457 0.15327-0.28304 0.06302-0.41451-0.48109-2.0543-0.94032-2.8338-1.2893-2.1885-3.3665-3.6667-5.7893-4.1197-0.3992-0.07462-0.60796-0.11183-0.80319-0.10957zm-3.0284 5.9356c-0.36304 0.0049-0.38617 0.14418-0.1446 0.49784 2.6201 3.8359 3.6985 5.6592 4.8598 8.2166 0.59201 1.3037 1.0118 2.4105 1.5193 4.0054 0.18394 0.57814 0.37565 1.0858 0.42607 1.128 0.05067 0.04244 0.19402 0.02778 0.3203-0.03281 0.37802-0.18137 1.4265-1.5545 1.812-2.3729 1.0823-2.298 1.134-4.8469 0.14382-7.104-0.32631-0.7438-0.34737-0.77394-0.87366-1.2504-1.0115-0.91575-2.6459-1.7232-4.9316-2.4365-0.75803-0.23656-2.2866-0.57954-2.8249-0.63392-0.1209-0.01222-0.22275-0.01832-0.30652-0.01719zm-17.531 0.79899c-0.45503 0-0.74134 2.3325-0.47068 3.8349 0.37553 2.0844 1.5294 3.9476 3.2314 5.2179 0.66574 0.49688 0.98325 0.64901 1.6137 0.77301 1.6406 0.32269 4.6697-0.07009 7.3421-0.95202 0.8868-0.29264 1.3415-0.51725 1.2999-0.64205-0.01337-0.04016-0.70767-0.38997-1.5429-0.77734-4.4957-2.0851-7.6687-4.1147-10.676-6.8293-0.38094-0.34383-0.73969-0.62513-0.79728-0.62513zm18.786 3.1249c-0.1012-0.0058-0.17478 0.11895-0.24617 0.37266-1.2583 4.4717-1.9636 6.4693-3.1784 9.0018-0.61928 1.291-1.1982 2.3234-2.095 3.7364-0.32511 0.51224-0.59114 0.98514-0.59114 1.0509 0 0.06609 0.10328 0.16648 0.23081 0.22439 0.38177 0.17334 2.1077 0.09551 2.9828-0.1345 2.4566-0.64575 4.4438-2.2428 5.5382-4.4512 0.36068-0.72775 0.37027-0.76316 0.39759-1.4726 0.05251-1.3634-0.37796-3.135-1.2988-5.3452-0.30539-0.73301-1.0238-2.125-1.3278-2.5726-0.18204-0.26807-0.31082-0.40434-0.41203-0.41006zm-1.8365 3.9059c-0.0815 0-0.57319 0.1956-1.0927 0.43459-5.0656 2.3306-8.0137 3.2259-13.124 3.9854l-0.60374 0.08962 0.01035 0.22911c0.02146 0.47848 0.96552 1.5442 2.0399 2.3027 1.1593 0.81851 2.429 1.3199 3.8442 1.5182 1.0629 0.14893 2.4914 0.02917 3.5282-0.29577 1.1446-0.3587 2.307-1.5602 3.5892-3.7103 0.9252-1.5512 1.8145-3.5159 1.9113-4.2228 0.04152-0.30264 0.03267-0.33093-0.10287-0.33093z" fill="#fff" stroke-width=".2048"/>
 </g>
</svg>
