<svg width="64" height="64" version="1.1" viewBox="0 0 16.933 16.933" xmlns="http://www.w3.org/2000/svg">
 <g transform="translate(0 -280.07)" paint-order="markers stroke fill">
  <path d="M2.381 284.565h12.171c.44 0 .794.354.794.793v8.467c0 .44-.354.794-.794.794H2.382a.79.79 0 0 1-.795-.794v-8.467c0-.44.355-.793.794-.793" fill="#0b80cb"/>
  <rect x="2.91" y="282.45" width="11.113" height="8.731" rx=".775" ry=".794" fill="#fff" stroke="#000" stroke-opacity=".059" stroke-width=".265"/>
  <rect x="2.91" y="282.45" width="11.113" height="8.731" rx=".775" ry=".794" fill="#fff"/>
  <path d="M15.181 284.878a.8.8 0 0 1 .165.48v8.467c0 .44-.354.794-.794.794H2.382a.8.8 0 0 1-.531-.206z" fill="#1da1f6"/>
  <path d="M1.752 284.878a.8.8 0 0 0-.165.48v8.467c0 .44.355.794.794.794h12.171a.8.8 0 0 0 .53-.206z" fill="#20c1fa"/>
 </g>
 <path d="m7.81 3.572c-0.14658 0-0.26458 0.118-0.26458 0.26458 0 0.14658 0.118 0.26458 0.26458 0.26458s0.26458-0.118 0.26458-0.26458c0-0.14658-0.118-0.26458-0.26458-0.26458m1.852 0-0.52916 0.52916 0.79373 0.79373-0.79373 0.79373 0.52916 0.52916 1.3229-1.3229zm-2.5135 1.5875c-0.21986 0-0.39687 0.177-0.39687 0.39687s0.177 0.39687 0.39687 0.39687c0.21986 0 0.39687-0.177 0.39687-0.39687s-0.177-0.39687-0.39687-0.39687m1.1906 1.5875c-0.29315 0-0.52916 0.236-0.52916 0.52916 0 0.29315 0.236 0.52916 0.52916 0.52916 0.29315 0 0.52916-0.236 0.52916-0.52916 0-0.29315-0.236-0.52916-0.52916-0.52916" fill="#1ea9f7" stroke-width=".26458"/>
</svg>
