<svg width="64" height="64" version="1.1" viewBox="0 0 16.933 16.933" xmlns="http://www.w3.org/2000/svg">
 <circle cx="8.467" cy="8.46" r="7.144" fill="#de4f4f" paint-order="stroke markers fill"/>
 <g transform="matrix(1.1739 0 0 1.1739 14.252 2.9037)">
  <path d="m-6.6036 1.945c0.44952-0.50534 1.3396-0.73288 2.0018-0.61594 0.42174 0.069319 0.54477 0.079638 0.9157 0.3421 0.23574-0.10345 0.45878-0.12515 0.70695-0.13943-0.060853 0.50323-0.035189 0.45772 0.050534 0.74002 0.069319 0.2233 0.094984 0.46619-0.00609 0.69875-0.074346 0.17674-0.12409 0.23256-0.2368 0.36062-0.094984 0.10742-0.21299 0.1643-0.47016 0.20981 0.017462-0.11668 0.044449-0.19526 0.070378-0.558 0.041279-0.56329-0.11482-0.61805-0.28521-0.82257-0.50429-0.59848-1.389-0.71304-2.0597-0.27913-0.32252 0.20664-0.36988 0.45058-0.35242 0.83713 0.011377 0.25426 0.25426 0.49714 0.37623 0.58604 0.35348 0.26034 0.78659 0.43708 1.1813 0.61594 0.14578 0.054768 0.77521 0.29157 0.91994 0.35559 0.19023 0.083607 0.40507 0.20055 0.50958 0.28019 0.3122 0.23759 0.49714 0.48153 0.6035 0.7649 0.19314 0.51778 0.22013 1.5285-0.23759 2.0391-0.52492 0.58498-1.4189 0.83395-2.2098 0.81649-0.73685 0.0060853-0.88872-0.20161-1.973-0.17065-0.035189-0.15293-0.057943-0.52916-0.037306-0.60668-0.093925-0.16113-0.1479-0.38232-0.16854-0.74426-0.013494-0.23045-0.00212-0.41645 0.11774-0.76992 0.14049-0.41962 0.62943-0.7432 1.0789-0.78553 0.38655 0.00529 0.77416 0.059001 1.0903 0.30188 0.27172 0.20981 0.33284 0.61382 0.28945 0.8567-0.067203 0.37941-0.30374 0.69558-0.69875 0.70589-0.20055 0.00609-0.5064-0.23362-0.50138-0.41539 0.016668-0.57969 0.60139-0.48682 0.70695-0.40613 0.085723 0.065086 0.17065 0.16113 0.13652 0.33787 0.14472-0.15293 0.24394-0.49503 0.050534-0.71621-0.48259-0.55614-1.234-0.43814-1.5772-0.067203-0.21299 0.23045-0.13652 0.63049-0.092073 0.94666 0.050534 0.36379 0.33284 0.65615 0.62414 0.89904 0.27807 0.23151 0.60668 0.29977 0.69346 0.30585 0.56011 0.03413 0.79373 0.089956 1.416-0.19632 0.38549-0.1778 0.59848-0.3794 0.77521-0.89824 0.047624-0.14049 0.035189-0.41962-0.026987-0.63763-0.062969-0.22119-0.19738-0.42571-0.37729-0.5871-0.40004-0.37729-0.88766-0.5064-1.3943-0.71833-0.45587-0.19129-0.80167-0.32861-1.2247-0.57572-0.29553-0.19235-0.38126-0.25743-0.58181-0.53524-0.13123-0.18203-0.22119-0.66568-0.1942-0.86808 0.065086-0.33178 0.12911-0.61091 0.38972-0.88263" fill="#fff"/>
 </g>
</svg>
