<svg width="64" height="64" version="1.1" viewBox="0 0 64 64" xmlns="http://www.w3.org/2000/svg">
 <g transform="translate(4,4)" stroke-width="1.1739">
  <circle cx="28" cy="28" r="27" fill="#f2f2f2"/>
  <path d="m13.913 19.783-2.3478 2.3478 5.8696 5.8696-5.8696 5.8696 2.3478 2.3478 5.8696-5.8696 7.0435 7.0435 2.3478-2.3478-7.0435-7.0435 7.0435-7.0435-2.3478-2.3478-7.0435 7.0435z" fill="#2952a3"/>
  <path d="m22.13 11.565-2.3478 2.3478 14.087 14.087-14.087 14.087 2.3478 2.3478 5.8696-5.8696 5.8696 5.8696 2.3478-2.3478-5.8696-5.8696 5.8696-5.8696 5.8696 5.8696 2.3478-2.3478-5.8696-5.8696 5.8696-5.8696-2.3478-2.3478-5.8696 5.8696-5.8696-5.8696 5.8696-5.8696-2.3478-2.3478-5.8696 5.8696z" fill="#1aa2e6"/>
 </g>
</svg>
