<svg width="64" height="64" version="1.1" xmlns="http://www.w3.org/2000/svg">
 <rect x="6" y="6" width="52" height="52" rx="8" ry="8" fill="#ad5bdb"/>
 <g transform="translate(-.38983 -.96612)" fill-opacity=".49804">
  <path d="m32.39 16.871c-8.8892 0-16.095 7.2061-16.095 16.095s7.2061 16.095 16.095 16.095c8.8892 0 16.095-7.2061 16.095-16.095s-7.2061-16.095-16.095-16.095zm0 1.7798c7.8977 0 14.315 6.4178 14.315 14.315s-6.4178 14.315-14.315 14.315c-7.8977 0-14.315-6.4178-14.315-14.315s6.4178-14.315 14.315-14.315z"/>
  <path d="m32.39 21.127c0.47437 0 0.94554 0.04931 1.3928 0.11607-0.45975-0.05431-0.91849-0.11607-1.3928-0.11607zm0 0c-0.47436 0-0.9331 0.06176-1.3929 0.11607 0.44731-0.06676 0.91848-0.11607 1.3929-0.11607zm-1.3929 0.11607c-5.8693 0.69337-10.446 5.6675-10.446 11.723 0 6.5301 5.3092 11.839 11.839 11.839 6.5301 0 11.839-5.3092 11.839-11.839 0-6.0558-4.5771-11.03-10.446-11.723 3.1312 0.4673 5.494 2.4919 5.494 4.9137 0 2.7677-3.0919 4.9911-6.8869 4.9911s-6.8869-2.2233-6.8869-4.9911c0-2.4218 2.3628-4.4464 5.494-4.9137z"/>
  <ellipse cx="32.39" cy="24.835" rx="5.2464" ry="3.7085"/>
 </g>
 <path d="m51 11c-1.1046 0-2 0.89551-2 2 0 1.1046 0.89543 2 2 2 1.1046 0 2-0.89538 2-2 0-1.1045-0.89543-2-2-2z" fill-opacity=".49804"/>
</svg>
