<svg width="64" height="64" version="1.1" viewBox="0 0 64 64" xmlns="http://www.w3.org/2000/svg" xmlns:xlink="http://www.w3.org/1999/xlink">
 <defs>
  <linearGradient id="f" x1="3" x2="-1" y1="507.8" y2="503.8" gradientTransform="matrix(0,1.35,-1.35,0,50.9,53.6)" gradientUnits="userSpaceOnUse">
   <stop stop-color="#2f3943" offset="0"/>
   <stop stop-color="#4d5662" offset="1"/>
  </linearGradient>
 </defs>
 <rect x="8" y="5" width="48" height="54" rx="6" ry="6" fill="#d0d5d7" stroke-width="0" style="paint-order:stroke fill markers"/>
 <g transform="translate(-.1 -.65)" stroke-linejoin="round">
  <path d="m51.1 53.65h-38v1.3c0 0.7479 0.30105 1.4229 0.78908 1.9109s1.163 0.78908 1.9109 0.78908h32.6c1.4958 0 2.7-1.2042 2.7-2.7z" fill="url(#f)" stroke-width="2.7"/>
  <circle transform="matrix(0,-1,-1,0,0,0)" cx="-55.408" cy="-47.342" r=".7575" fill="#11d116" stroke-linecap="round" stroke-width="3.03"/>
 </g>
 <rect x="9" y="11" width="46" height="42" fill="#eff0f1" stroke-linecap="round" stroke-linejoin="bevel" stroke-width="8.3219"/>
 <rect x="10" y="12" width="44" height="40" fill="#237cc7" stroke-linecap="round" stroke-linejoin="bevel" stroke-width="8.6895"/>
 <path d="m29.908 14.508 13.523 1.4e-5 6.7616 6.7587 1e-5 20.276h-20.285z" fill="#eff0f1" stroke="#808080" stroke-linecap="round" stroke-width="1.3151"/>
 <path d="m13.708 21.258 13.523 1.3e-5 6.7616 6.7587 1.3e-5 20.276h-20.285z" fill="#eff0f1" stroke="#808080" stroke-linecap="round" stroke-width="1.3151"/>
 <rect x="10" y="31" width="44" height="2" fill="#84cbfe" stroke-linecap="round" stroke-linejoin="bevel" stroke-width="10.282"/>
</svg>
