<svg xmlns="http://www.w3.org/2000/svg" width="64" height="64"><defs><linearGradient id="a" x1="3" x2="-1" y1="507.8" y2="503.8" gradientTransform="matrix(0 1.35 -1.35 0 50.9 53.6)" gradientUnits="userSpaceOnUse"><stop offset="0" stop-color="#2f3943"/><stop offset="1" stop-color="#4d5662"/></linearGradient></defs><rect width="48" height="54" x="8" y="5" fill="#d0d5d7" rx="6" ry="6" style="paint-order:stroke fill markers"/><g stroke-linejoin="round" transform="translate(-.1 -.65)"><path fill="url(#a)" d="M51.1 53.65h-38v1.3a2.69 2.69 0 0 0 2.7 2.7h32.6c1.496 0 2.7-1.204 2.7-2.7z"/><circle cx="-55.408" cy="-47.342" r=".757" fill="#11d116" transform="scale(1 -1)rotate(90)"/></g><path fill="#eff0f1" d="M9 11h46v42H9z"/><path fill="#237cc7" d="M10 12h44v40H10z"/><path fill="#eff0f1" stroke="gray" stroke-linecap="round" stroke-width="1.315" d="M29.908 14.508h13.523l6.762 6.759v20.276H29.908z"/><path fill="#eff0f1" stroke="gray" stroke-linecap="round" stroke-width="1.315" d="M13.708 21.258h13.523l6.762 6.759v20.276H13.708z"/><path fill="#84cbfe" d="M10 31h44v2H10z"/></svg>