<svg xmlns="http://www.w3.org/2000/svg" xmlns:xlink="http://www.w3.org/1999/xlink" width="64" height="64" viewBox="0 0 16.933 16.933"><defs><linearGradient gradientTransform="matrix(.26458 0 0 .26458 0 280.067)" xlink:href="#a" id="b" x1="45.628" y1="57.955" x2="45.628" y2="12.461" gradientUnits="userSpaceOnUse"/><linearGradient id="a"><stop offset="0"/><stop offset="1" stop-opacity="0"/></linearGradient></defs><g transform="translate(0 -280.067)"><circle cx="8.467" cy="288.533" r="6.879" fill="#2d9cf2" paint-order="stroke markers fill"/><path d="M12.997 283.364a10.716 10.716 0 0 1 .497 3.185 10.716 10.716 0 0 1-4.695 8.852 6.88 6.88 0 0 0 6.547-6.868 6.88 6.88 0 0 0-2.349-5.17z" opacity=".25" fill="url(#b)" paint-order="stroke markers fill"/><path d="M6.53 284.3a2.295 2.295 0 0 0-2.297 2.296c0 .392.1.771.273 1.094a4.05 4.05 0 0 0 4.804 4.803c.325.176.699.274 1.093.274a2.295 2.295 0 0 0 2.297-2.297c0-.394-.1-.77-.274-1.095a4.05 4.05 0 0 0-4.804-4.802 2.333 2.333 0 0 0-1.094-.273" fill="#fff"/><path d="M8.543 286.115c1.194 0 1.81.63 1.81 1 0 .371-.178.427-.47.427-.57 0-.337-.686-1.403-.686-.353 0-.794.161-.794.574 0 .331.39.453 1.08.623 1.038.278 1.817.556 1.817 1.51 0 .925-.754 1.39-1.947 1.39-1.194 0-1.956-.714-1.956-1.084 0-.37.14-.463.433-.463.57 0 .494.778 1.56.778.354 0 .877-.161.877-.575 0-.33-.028-.444-.785-.648-.808-.11-2.113-.373-2.113-1.381 0-.926.7-1.465 1.893-1.465" fill="#2d9cf2"/></g></svg>