<svg width="64" height="64" version="1.1" xmlns="http://www.w3.org/2000/svg">
 <rect x="5" y="5" width="54" height="54" ry="27" fill="#f2f2f2" stroke-width=".9104"/>
 <g stroke-width="1.3043">
  <path d="m36.565 15.043a3.2609 3.2609 0 0 0-3.2609 3.2609v9.1304a3.2609 3.2609 0 0 0 3.2609 3.2609 3.2609 3.2609 0 0 0 3.2609-3.2609v-9.1304a3.2609 3.2609 0 0 0-3.2609-3.2609zm9.1304 9.1304a3.2609 3.2609 0 0 0-3.2609 3.2609v3.2609h3.2609a3.2609 3.2609 0 0 0 3.2609-3.2609 3.2609 3.2609 0 0 0-3.2609-3.2609z" fill="#2eb67d"/>
  <path d="m48.957 36.565a3.2609 3.2609 0 0 0-3.2609-3.2609h-9.1304a3.2609 3.2609 0 0 0-3.2609 3.2609 3.2609 3.2609 0 0 0 3.2609 3.2609h9.1304a3.2609 3.2609 0 0 0 3.2609-3.2609zm-9.1304 9.1304a3.2609 3.2609 0 0 0-3.2609-3.2609h-3.2609v3.2609a3.2609 3.2609 0 0 0 3.2609 3.2609 3.2609 3.2609 0 0 0 3.2609-3.2609z" fill="#ecb22e"/>
  <path d="m27.435 48.957a3.2609 3.2609 0 0 0 3.2609-3.2609v-9.1304a3.2609 3.2609 0 0 0-3.2609-3.2609 3.2609 3.2609 0 0 0-3.2609 3.2609v9.1304a3.2609 3.2609 0 0 0 3.2609 3.2609zm-9.1304-9.1304a3.2609 3.2609 0 0 0 3.2609-3.2609v-3.2609h-3.2609a3.2609 3.2609 0 0 0-3.2609 3.2609 3.2609 3.2609 0 0 0 3.2609 3.2609z" fill="#d6285e"/>
  <path d="m15.043 27.435a3.2609 3.2609 0 0 0 3.2609 3.2609h9.1304a3.2609 3.2609 0 0 0 3.2609-3.2609 3.2609 3.2609 0 0 0-3.2609-3.2609h-9.1304a3.2609 3.2609 0 0 0-3.2609 3.2609zm9.1304-9.1304a3.2609 3.2609 0 0 0 3.2609 3.2609h3.2609v-3.2609a3.2609 3.2609 0 0 0-3.2609-3.2609 3.2609 3.2609 0 0 0-3.2609 3.2609z" fill="#36c5f0"/>
 </g>
</svg>
