<svg xmlns="http://www.w3.org/2000/svg" width="64" height="64"><rect width="52" height="52" x="6" y="6" fill="#e5e5c9" rx="8" ry="8"/><path fill="#4d4d4d" d="M33.607 13c-4.166 0-8.33 1.593-11.502 4.764-6.358 6.358-6.358 16.661 0 22.946L45.05 17.764A16.22 16.22 0 0 0 33.548 13zm0 1.452q.64 0 1.273.066v2.864h-2.923v-2.835a15 15 0 0 1 1.651-.097zm2.733.3c.998.216 1.973.548 2.923.982v1.652H36.34v-2.631zm-5.846.034v2.602H27.57V15.75a14.6 14.6 0 0 1 2.923-.953zm-4.385 1.71v.89h-1.333a15 15 0 0 1 1.333-.89m14.615.003c.458.27.905.57 1.342.887h-1.342zm-17.538 2.353h2.923v2.923h-2.923zm4.385 0h2.923v2.923H27.57zm4.384 0h2.923v2.923h-2.923zm4.385 0h2.923v2.704l-.225.225h-2.704v-2.923zm4.384 0h1.237l-1.237 1.236zm-19 1.593v1.333h-.876c.266-.456.555-.902.877-1.333m-1.622 2.791h1.623v2.923h-2.543q.297-1.496.916-2.923zm3.084 0h2.923v2.923h-2.923zm4.385 0h2.923v2.923H27.57zm4.384 0h2.923v2.704l-.225.225H31.95v-2.923zm4.385 0h1.236l-1.236 1.237zm-17.392 4.385h2.748v2.923h-2.733a14.7 14.7 0 0 1-.015-2.923m4.209 0h2.923v2.923h-2.923zm4.385 0h2.923v2.704l-.226.225h-2.703v-2.923zm4.384 0h1.236l-1.236 1.236zm-12.744 4.384h2.514v2.923h-1.579a15 15 0 0 1-.925-2.923zm3.975 0h2.923v2.704l-.225.225h-2.704v-2.923zm4.385 0h1.236l-1.236 1.237zm-6.694 4.385h.85v1.333q-.463-.65-.85-1.333m2.309 0h1.236l-1.236 1.236z"/><path fill="#ee7630" d="M30.391 50.999a16.22 16.22 0 0 0 11.502-4.765c6.358-6.357 6.358-16.661 0-22.945L18.948 46.234A16.22 16.22 0 0 0 30.45 51zm0-1.453q-.639 0-1.273-.066v-2.864h2.923v2.835c-.548.061-1.099.097-1.651.097zm-2.733-.3a14.3 14.3 0 0 1-2.923-.982v-1.651h2.923zm5.846-.034v-2.601h2.923v1.636a14.6 14.6 0 0 1-2.923.953zm4.385-1.71v-.89h1.333a15 15 0 0 1-1.333.89M23.274 47.5c-.458-.27-.905-.57-1.342-.887h1.342zm17.538-2.353h-2.923v-2.923h2.923zm-4.385 0h-2.923v-2.923h2.923zm-4.384 0H29.12v-2.923h2.923zm-4.385 0h-2.923v-2.704l.226-.225h2.703zm-4.384 0h-1.236l1.236-1.236zm19-1.593V42.22h.876a14 14 0 0 1-.877 1.333m1.622-2.791h-1.623v-2.923h2.543a14.3 14.3 0 0 1-.916 2.923zm-3.084 0h-2.923v-2.923h2.923zm-4.385 0h-2.923v-2.923h2.923zm-4.384 0H29.12v-2.704l.225-.225h2.704zm-4.385 0h-1.236l1.236-1.237zm17.392-4.385h-2.747v-2.923h2.733c.102.972.106 1.959.014 2.923m-4.209 0h-2.923v-2.923h2.923zm-4.384 0h-2.923v-2.704l.225-.225h2.704zm-4.385 0h-1.236l1.236-1.236zm12.744-4.384h-2.513V29.07h1.578c.41.948.72 1.929.925 2.923zm-3.975 0h-2.923v-2.704l.225-.225h2.704zm-4.384 0H35.22l1.237-1.237zm6.693-4.385h-.85v-1.333q.464.65.85 1.333m-2.309 0h-1.236l1.236-1.236z"/></svg>