<svg width="64" height="64" version="1.1" xmlns="http://www.w3.org/2000/svg">
 <g transform="translate(0 -988.36)">
  <g transform="matrix(.058824 0 0 .058824 1.8824 988.58)" stroke-width="17">
   <circle cx="512" cy="540.36" r="459" color="#000000" fill="#e6e6e6"/>
   <path d="m785.45 251.25c-218.22 0-370.92 201.29-370.92 201.29-157.66 20.882-252.32 129.47-252.32 129.47 43.854-1.0448 87.49-9.4501 156.4-9.4501s11.34 63.788 11.34 63.788c20.882 41.764 80.799 88.831 80.799 88.831 28.187-30.279 60.481-19.845 60.481-19.845v158.76c110.68-95.013 113.87-236.25 113.87-236.25 202.56-132.6 200.34-376.59 200.34-376.59zm-178.61 125.21c35.176 0 63.787 28.613 63.787 63.788s-28.612 63.788-63.787 63.788c-35.176 0-63.787-28.613-63.787-63.788s28.612-63.788 63.787-63.788zm-307.13 302.88s-67.567 64.656-67.569 125.21c61.603 0 88.572-8.5272 126.16-68.041 0 0-21.651 17.955-62.371 17.955 0 0-10.838-23.967 3.78-75.128z" fill="#44494c"/>
  </g>
 </g>
</svg>
