<svg width="64" height="64" version="1.1" viewBox="0 0 16.933 16.933" xmlns="http://www.w3.org/2000/svg">
 <rect x="2.1166" y="1.5875" width="12.7" height="13.758" rx="1.5875" ry="1.5875" fill="#549bff" stroke-linecap="round" stroke-width=".55733"/>
 <path d="m8.4666 1.5875-4.7794 5.159e-4c-0.87153 0.0091-1.5704 0.7132-1.5704 1.587v4.2111a9.26 9.6304 0 0 0 8.4666 5.7583 9.26 9.6304 0 0 0 4.2333-1.0681v-8.9013c0-0.87946-0.70802-1.5875-1.5875-1.5875h-4.7624z" fill="#0000ff" opacity=".1" stroke-width="1.0198" style="paint-order:stroke markers fill"/>
 <path d="m8.4666 1.5875-4.7794 5.159e-4c-0.87153 0.0091034-1.5704 0.7132-1.5704 1.587v10.583c0 0.87946 0.70802 1.5875 1.5875 1.5875h4.8524a10.583 11.007 0 0 0 6.26-5.6895v-6.4812c0-0.87946-0.70802-1.5875-1.5875-1.5875h-4.7624z" fill="#0000ff" opacity=".1" stroke-width="1.0198" style="paint-order:stroke markers fill"/>
 <path d="m5.292 3.969a3.175 3.175 0 0 0 3.175 3.175 3.175 3.175 0 0 0 3.175-3.175h-0.794a2.381 2.381 0 0 1-2.381 2.381 2.381 2.381 0 0 1-2.382-2.381z" fill="#ffffff" style="paint-order:stroke markers fill"/>
 <circle cx="11.641" cy="12.171" r="4.2333" fill="#7ba3f4" stroke-width=".26458"/>
 <path d="m9.7894 12.7 1.852 2.1166 1.852-2.1166h-1.0583v-2.6458h-1.5875v2.6458z" fill="#ffffff" stroke-width=".26458"/>
</svg>
