<svg xmlns="http://www.w3.org/2000/svg" width="64" height="64" viewBox="0 0 16.933 16.933"><g transform="translate(0 -280.067)" paint-order="stroke markers fill"><g transform="matrix(1 0 0 1.04 0 -11.541)"><rect ry=".529" y="281.919" x="2.117" height="13.229" width="12.7" fill="#549bff"/><path d="M2.646 281.919a.528.528 0 0 0-.53.529v5.045a9.26 9.26 0 0 0 8.467 5.538 9.26 9.26 0 0 0 4.234-1.027v-9.556a.528.528 0 0 0-.53-.53z" opacity=".1" fill="#00f"/><path d="M2.646 281.919a.528.528 0 0 0-.53.529v12.17c0 .294.237.53.53.53h5.909a10.583 10.583 0 0 0 6.262-5.472v-7.228a.528.528 0 0 0-.53-.53z" opacity=".1" fill="#00f"/></g><path d="M5.292 284.035a3.175 3.175 0 0 0 3.175 3.175 3.175 3.175 0 0 0 3.175-3.175h-.794a2.381 2.381 0 0 1-2.381 2.382 2.381 2.381 0 0 1-2.382-2.382h-.793z" fill="#fff"/><rect width="1.587" height="2.646" x="7.673" y="288.798" ry="0" fill="#fff"/><path d="M6.35 291.444h4.233l-2.116 2.116z" fill="#fff"/></g></svg>