<svg xmlns="http://www.w3.org/2000/svg" width="64" height="64" version="1"><rect width="52" height="52" x="6" y="6" fill="#029499" rx="12" ry="12"/><path fill="#fff" d="m25.338 15.062-4.676 2.7 4.244 7.348a9.9 9.9 0 0 0-2.42 4.19H14v5.4h8.478a9.9 9.9 0 0 0 2.422 4.2l-4.238 7.339 4.676 2.7 4.245-7.352A9.9 9.9 0 0 0 32 41.9a9.9 9.9 0 0 0 2.42-.31l4.242 7.349 4.676-2.7-4.243-7.348a9.9 9.9 0 0 0 2.42-4.19H50v-5.4h-8.478a9.9 9.9 0 0 0-2.422-4.2l4.238-7.339-4.676-2.7-4.245 7.351A9.9 9.9 0 0 0 32 22.1a9.9 9.9 0 0 0-2.42.31zM32 25.7a6.3 6.3 0 0 1 6.3 6.3 6.3 6.3 0 0 1-6.3 6.3 6.3 6.3 0 0 1-6.3-6.3 6.3 6.3 0 0 1 6.3-6.3z"/></svg>