<svg width="64" height="64" version="1" xmlns="http://www.w3.org/2000/svg">
 <rect x="6" y="6" width="52" height="52" rx="12" ry="12" fill="#029499" stroke-width=".92857"/>
 <path d="m25.338 15.062-4.6758 2.7 4.2434 7.3477a9.9 9.9 0 0 0-2.4205 4.1906h-8.485v5.4h8.4779a9.9 9.9 0 0 0 2.4223 4.1994l-4.2381 7.3389 4.6758 2.7 4.2451-7.3512a9.9 9.9 0 0 0 2.417 0.31289 9.9 9.9 0 0 0 2.4205-0.30938l4.2416 7.3477 4.6758-2.7-4.2434-7.3477a9.9 9.9 0 0 0 2.4205-4.1906h8.485v-5.4h-8.4779a9.9 9.9 0 0 0-2.4223-4.1994l4.2381-7.3389-4.6758-2.7-4.2451 7.3512a9.9 9.9 0 0 0-2.417-0.31289 9.9 9.9 0 0 0-2.4205 0.30938zm6.6621 10.638a6.3 6.3 0 0 1 6.3 6.3 6.3 6.3 0 0 1-6.3 6.3 6.3 6.3 0 0 1-6.3-6.3 6.3 6.3 0 0 1 6.3-6.3z" fill="#fff" stroke-width=".9"/>
</svg>
