<svg width="64" height="64" version="1.1" xmlns="http://www.w3.org/2000/svg">
 <rect x="5" y="5" width="54" height="54" ry="27" fill="#f2f2f2" stroke-width=".9104"/>
 <rect x="9" y="9" width="46" height="46" ry="23" opacity=".05" stroke-width=".77553"/>
 <g transform="translate(8.1536 8.3038)">
  <polygon points="39 25 44.625 25 34.721 15.096 24.817 25 30 25 30 33 39 33" fill="#5fa1e9"/>
  <polygon points="19 34 14.141 34 24.045 43.904 33.949 34 29 34 29 26 19 26" fill="#1964c2"/>
  <path d="m33.518 7.957v-3.282c0-0.705-0.61-1.254-1.311-1.18l-13.048 1.381c-0.603 0.064-1.061 0.573-1.061 1.18v23.298c-1.839-0.31-4.054-0.236-6.359 0.305-5.419 1.272-9.267 4.623-8.595 7.486s5.634 4.466 11.028 3.092c8.429-2.147 8.67-6.948 8.67-6.948v-22.6c0-0.303 0.229-0.558 0.531-0.59l9.084-0.963c0.603-0.064 1.061-0.573 1.061-1.179z" fill="#b4d100"/>
 </g>
</svg>
