<svg xmlns="http://www.w3.org/2000/svg" width="64" height="64" viewBox="0 0 16.933 16.933"><g transform="translate(0 -280.067)"><g paint-order="stroke markers fill"><circle r="6.879" cy="288.533" cx="8.467" fill="#cecece"/><circle r="4.762" cy="288.533" cx="8.467" opacity=".5" fill="#fff"/><circle cx="8.467" cy="288.533" r="3.969" fill="#4d4d4d"/><circle r="1.588" cy="288.533" cx="8.467" fill="#fff"/></g><circle cx="12.7" cy="292.767" r="3.175" fill="#fff"/><g stroke-width="7.085" fill="#ff7920" stroke="#fff" paint-order="stroke markers fill" stroke-linejoin="round"><path transform="matrix(.01867 .03236 -.03233 .01868 13.73 290.075)" d="M64 59.82a4.18 4.18 0 0 0-2.09 7.8l44.375 25.624a4.18 4.18 0 0 0 5.707-1.525 55.41 55.41 0 0 0 7.438-27.725 4.18 4.18 0 0 0-4.18-4.174z"/><path d="M64 59.82a4.18 4.18 0 0 0-2.09 7.8l44.375 25.624a4.18 4.18 0 0 0 5.707-1.525 55.41 55.41 0 0 0 7.438-27.725 4.18 4.18 0 0 0-4.18-4.174z" transform="matrix(.03233 .01868 -.01867 .03236 12.248 289.921)"/><path transform="matrix(.03733 0 0 .03736 10.888 290.53)" d="M64 59.82a4.18 4.18 0 0 0-2.09 7.8l44.375 25.624a4.18 4.18 0 0 0 5.707-1.525 55.41 55.41 0 0 0 7.438-27.725 4.18 4.18 0 0 0-4.18-4.174z"/><path d="M64 59.82a4.18 4.18 0 0 0-2.09 7.8l44.375 25.624a4.18 4.18 0 0 0 5.707-1.525 55.41 55.41 0 0 0 7.438-27.725 4.18 4.18 0 0 0-4.18-4.174z" transform="matrix(.03233 -.01868 .01867 .03236 10.013 291.738)"/><path transform="matrix(.01867 -.03236 .03233 .01868 9.86 293.221)" d="M64 59.82a4.18 4.18 0 0 0-2.09 7.8l44.375 25.624a4.18 4.18 0 0 0 5.707-1.525 55.41 55.41 0 0 0 7.438-27.725 4.18 4.18 0 0 0-4.18-4.174z"/><path d="M64 59.82a4.18 4.18 0 0 0-2.09 7.8l44.375 25.624a4.18 4.18 0 0 0 5.707-1.525 55.41 55.41 0 0 0 7.438-27.725 4.18 4.18 0 0 0-4.18-4.174z" transform="matrix(0 -.03736 .03733 0 10.467 294.583)"/><path d="M64 59.82a4.18 4.18 0 0 0-2.09 7.8l44.375 25.624a4.18 4.18 0 0 0 5.707-1.525 55.41 55.41 0 0 0 7.438-27.725 4.18 4.18 0 0 0-4.18-4.174z" transform="matrix(-.01867 .03236 .03233 .01868 11.67 290.075)"/><path transform="matrix(-.03233 .01868 .01867 .03236 13.152 289.921)" d="M64 59.82a4.18 4.18 0 0 0-2.09 7.8l44.375 25.624a4.18 4.18 0 0 0 5.707-1.525 55.41 55.41 0 0 0 7.438-27.725 4.18 4.18 0 0 0-4.18-4.174z"/><path d="M64 59.82a4.18 4.18 0 0 0-2.09 7.8l44.375 25.624a4.18 4.18 0 0 0 5.707-1.525 55.41 55.41 0 0 0 7.438-27.725 4.18 4.18 0 0 0-4.18-4.174z" transform="matrix(-.03733 0 0 .03736 14.512 290.53)"/><path transform="matrix(-.03233 -.01868 -.01867 .03236 15.387 291.738)" d="M64 59.82a4.18 4.18 0 0 0-2.09 7.8l44.375 25.624a4.18 4.18 0 0 0 5.707-1.525 55.41 55.41 0 0 0 7.438-27.725 4.18 4.18 0 0 0-4.18-4.174z"/><path d="M64 59.82a4.18 4.18 0 0 0-2.09 7.8l44.375 25.624a4.18 4.18 0 0 0 5.707-1.525 55.41 55.41 0 0 0 7.438-27.725 4.18 4.18 0 0 0-4.18-4.174z" transform="matrix(-.01867 -.03236 -.03233 .01868 15.54 293.221)"/><path transform="matrix(0 -.03736 -.03733 0 14.933 294.583)" d="M64 59.82a4.18 4.18 0 0 0-2.09 7.8l44.375 25.624a4.18 4.18 0 0 0 5.707-1.525 55.41 55.41 0 0 0 7.438-27.725 4.18 4.18 0 0 0-4.18-4.174z"/></g></g></svg>