<svg width="64" height="64" version="1.1" viewBox="0 0 16.933 16.933" xmlns="http://www.w3.org/2000/svg">
 <g transform="translate(0 -280.07)">
  <g paint-order="stroke markers fill">
   <circle cx="8.4665" cy="288.53" r="7.1436" fill="#cecece"/>
   <circle cx="8.467" cy="288.53" r="4.762" fill="#fff" opacity=".5"/>
   <circle cx="8.467" cy="288.53" r="3.969" fill="#4d4d4d"/>
   <circle cx="8.467" cy="288.53" r="1.588" fill="#fff"/>
  </g>
  <circle cx="12.7" cy="292.77" r="3.175" fill="#fff"/>
  <g fill="#ff7920" stroke="#fff" stroke-linejoin="round" stroke-width="7.085" paint-order="stroke markers fill">
   <path transform="matrix(.01867 .03236 -.03233 .01868 13.73 290.08)" d="m64 59.82a4.18 4.18 0 0 0-2.09 7.8l44.375 25.624a4.18 4.18 0 0 0 5.707-1.525 55.41 55.41 0 0 0 7.438-27.725 4.18 4.18 0 0 0-4.18-4.174z"/>
   <path transform="matrix(.03233 .01868 -.01867 .03236 12.248 289.92)" d="m64 59.82a4.18 4.18 0 0 0-2.09 7.8l44.375 25.624a4.18 4.18 0 0 0 5.707-1.525 55.41 55.41 0 0 0 7.438-27.725 4.18 4.18 0 0 0-4.18-4.174z"/>
   <path transform="matrix(.03733 0 0 .03736 10.888 290.53)" d="m64 59.82a4.18 4.18 0 0 0-2.09 7.8l44.375 25.624a4.18 4.18 0 0 0 5.707-1.525 55.41 55.41 0 0 0 7.438-27.725 4.18 4.18 0 0 0-4.18-4.174z"/>
   <path transform="matrix(.03233 -.01868 .01867 .03236 10.013 291.74)" d="m64 59.82a4.18 4.18 0 0 0-2.09 7.8l44.375 25.624a4.18 4.18 0 0 0 5.707-1.525 55.41 55.41 0 0 0 7.438-27.725 4.18 4.18 0 0 0-4.18-4.174z"/>
   <path transform="matrix(.01867 -.03236 .03233 .01868 9.86 293.22)" d="m64 59.82a4.18 4.18 0 0 0-2.09 7.8l44.375 25.624a4.18 4.18 0 0 0 5.707-1.525 55.41 55.41 0 0 0 7.438-27.725 4.18 4.18 0 0 0-4.18-4.174z"/>
   <path transform="matrix(0 -.03736 .03733 0 10.467 294.58)" d="m64 59.82a4.18 4.18 0 0 0-2.09 7.8l44.375 25.624a4.18 4.18 0 0 0 5.707-1.525 55.41 55.41 0 0 0 7.438-27.725 4.18 4.18 0 0 0-4.18-4.174z"/>
   <path transform="matrix(-.01867 .03236 .03233 .01868 11.67 290.08)" d="m64 59.82a4.18 4.18 0 0 0-2.09 7.8l44.375 25.624a4.18 4.18 0 0 0 5.707-1.525 55.41 55.41 0 0 0 7.438-27.725 4.18 4.18 0 0 0-4.18-4.174z"/>
   <path transform="matrix(-.03233 .01868 .01867 .03236 13.152 289.92)" d="m64 59.82a4.18 4.18 0 0 0-2.09 7.8l44.375 25.624a4.18 4.18 0 0 0 5.707-1.525 55.41 55.41 0 0 0 7.438-27.725 4.18 4.18 0 0 0-4.18-4.174z"/>
   <path transform="matrix(-.03733 0 0 .03736 14.512 290.53)" d="m64 59.82a4.18 4.18 0 0 0-2.09 7.8l44.375 25.624a4.18 4.18 0 0 0 5.707-1.525 55.41 55.41 0 0 0 7.438-27.725 4.18 4.18 0 0 0-4.18-4.174z"/>
   <path transform="matrix(-.03233 -.01868 -.01867 .03236 15.387 291.74)" d="m64 59.82a4.18 4.18 0 0 0-2.09 7.8l44.375 25.624a4.18 4.18 0 0 0 5.707-1.525 55.41 55.41 0 0 0 7.438-27.725 4.18 4.18 0 0 0-4.18-4.174z"/>
   <path transform="matrix(-.01867 -.03236 -.03233 .01868 15.54 293.22)" d="m64 59.82a4.18 4.18 0 0 0-2.09 7.8l44.375 25.624a4.18 4.18 0 0 0 5.707-1.525 55.41 55.41 0 0 0 7.438-27.725 4.18 4.18 0 0 0-4.18-4.174z"/>
   <path transform="matrix(0 -.03736 -.03733 0 14.933 294.58)" d="m64 59.82a4.18 4.18 0 0 0-2.09 7.8l44.375 25.624a4.18 4.18 0 0 0 5.707-1.525 55.41 55.41 0 0 0 7.438-27.725 4.18 4.18 0 0 0-4.18-4.174z"/>
  </g>
 </g>
</svg>
