<?xml version="1.0" encoding="UTF-8" standalone="no"?>
<!-- Created with Inkscape (http://www.inkscape.org/) -->

<svg
   xmlns:dc="http://purl.org/dc/elements/1.1/"
   xmlns:cc="http://creativecommons.org/ns#"
   xmlns:rdf="http://www.w3.org/1999/02/22-rdf-syntax-ns#"
   xmlns:svg="http://www.w3.org/2000/svg"
   xmlns="http://www.w3.org/2000/svg"
   xmlns:sodipodi="http://sodipodi.sourceforge.net/DTD/sodipodi-0.dtd"
   xmlns:inkscape="http://www.inkscape.org/namespaces/inkscape"
   width="64"
   height="64"
   viewBox="0 0 16.933333 16.933333"
   version="1.1"
   id="svg4572"
   inkscape:version="0.92.4 (5da689c313, 2019-01-14)"
   sodipodi:docname="sound-juicer.svg">
  <title
     id="title4611">Canvas icon theme</title>
  <defs
     id="defs4566" />
  <sodipodi:namedview
     id="base"
     pagecolor="#ffffff"
     bordercolor="#666666"
     borderopacity="1.0"
     inkscape:pageopacity="0.0"
     inkscape:pageshadow="2"
     inkscape:zoom="5.6"
     inkscape:cx="20.457949"
     inkscape:cy="22.405048"
     inkscape:document-units="px"
     inkscape:current-layer="layer1"
     showgrid="true"
     units="px"
     width="64px"
     showguides="true"
     inkscape:guide-bbox="true"
     inkscape:window-width="1366"
     inkscape:window-height="714"
     inkscape:window-x="0"
     inkscape:window-y="28"
     inkscape:window-maximized="1"
     inkscape:snap-bbox="true"
     inkscape:bbox-nodes="true"
     inkscape:snap-nodes="false">
    <inkscape:grid
       type="xygrid"
       id="grid4582" />
    <sodipodi:guide
       position="1.0583333,15.875"
       orientation="0,1"
       id="guide4584"
       inkscape:locked="false" />
    <sodipodi:guide
       position="1.0583333,1.0583333"
       orientation="1,0"
       id="guide4586"
       inkscape:locked="false" />
    <sodipodi:guide
       position="15.875,15.875"
       orientation="1,0"
       id="guide4588"
       inkscape:locked="false" />
    <sodipodi:guide
       position="1.0583333,1.0583333"
       orientation="0,1"
       id="guide4590"
       inkscape:locked="false" />
  </sodipodi:namedview>
  <metadata
     id="metadata4569">
    <rdf:RDF>
      <cc:Work
         rdf:about="">
        <dc:format>image/svg+xml</dc:format>
        <dc:type
           rdf:resource="http://purl.org/dc/dcmitype/StillImage" />
        <dc:title>Canvas icon theme</dc:title>
        <cc:license
           rdf:resource="http://creativecommons.org/licenses/by-nc-sa/4.0/" />
        <dc:creator>
          <cc:Agent>
            <dc:title>Vince Liuice</dc:title>
          </cc:Agent>
        </dc:creator>
      </cc:Work>
      <cc:License
         rdf:about="http://creativecommons.org/licenses/by-nc-sa/4.0/">
        <cc:permits
           rdf:resource="http://creativecommons.org/ns#Reproduction" />
        <cc:permits
           rdf:resource="http://creativecommons.org/ns#Distribution" />
        <cc:requires
           rdf:resource="http://creativecommons.org/ns#Notice" />
        <cc:requires
           rdf:resource="http://creativecommons.org/ns#Attribution" />
        <cc:prohibits
           rdf:resource="http://creativecommons.org/ns#CommercialUse" />
        <cc:permits
           rdf:resource="http://creativecommons.org/ns#DerivativeWorks" />
        <cc:requires
           rdf:resource="http://creativecommons.org/ns#ShareAlike" />
      </cc:License>
    </rdf:RDF>
  </metadata>
  <g
     inkscape:label="Layer 1"
     inkscape:groupmode="layer"
     id="layer1"
     transform="translate(0,-280.06667)">
    <g
       transform="translate(2.7838135e-7,1.1304687e-5)"
       id="g868">
      <circle
         r="6.8791666"
         cy="288.53333"
         cx="8.4666662"
         id="path13"
         style="opacity:1;fill:#cecece;fill-opacity:1;stroke:none;stroke-width:0.49136901;stroke-miterlimit:4;stroke-dasharray:none;stroke-opacity:0.03821656;paint-order:stroke markers fill" />
      <circle
         r="4.7624888"
         cy="288.53333"
         cx="8.4666662"
         id="circle822"
         style="opacity:0.5;fill:#ffffff;fill-opacity:1;stroke:none;stroke-width:0.2267857;stroke-miterlimit:4;stroke-dasharray:none;stroke-opacity:0.03821656;paint-order:stroke markers fill" />
      <circle
         style="opacity:1;fill:#4d4d4d;fill-opacity:1;stroke:none;stroke-width:0.18898806;stroke-miterlimit:4;stroke-dasharray:none;stroke-opacity:0.03821656;paint-order:stroke markers fill"
         id="circle824"
         cx="8.4666662"
         cy="288.53333"
         r="3.9687386" />
      <circle
         r="1.5875002"
         cy="288.53333"
         cx="8.4666662"
         id="circle845"
         style="opacity:1;fill:#ffffff;fill-opacity:1;stroke:none;stroke-width:0.18898806;stroke-miterlimit:4;stroke-dasharray:none;stroke-opacity:0.03821656;paint-order:stroke markers fill" />
    </g>
    <circle
       style="fill:#ffffff;stroke-width:0.26458332;enable-background:new"
       cx="12.700001"
       cy="292.76669"
       r="3.175"
       id="circle10" />
    <g
       id="g870"
       transform="matrix(1.0951527,0,0,1.0248827,-1.208438,-7.3537145)"
       style="stroke-width:0.24973997;fill:#ff7920;fill-opacity:1;stroke:#ffffff;stroke-opacity:1;stroke-miterlimit:4;stroke-dasharray:none;paint-order:stroke markers fill">
      <path
         inkscape:transform-center-x="-1.6560205"
         inkscape:transform-center-y="3.8323582"
         transform="matrix(0.01704335,0.03157077,-0.02951995,0.0182274,13.640997,290.20803)"
         d="m 64,59.820312 a 4.1806682,4.1806682 0 0 0 -2.089844,7.798829 l 44.375004,25.625 a 4.1806682,4.1806682 0 0 0 5.70703,-1.525391 c 4.85754,-8.389313 7.44964,-18.025334 7.4375,-27.724609 A 4.1806682,4.1806682 0 0 0 115.25,59.820312 Z"
         id="path3764"
         style="fill:#ff7920;fill-opacity:1;stroke:#ffffff;stroke-width:7.08464791;stroke-linejoin:round;stroke-miterlimit:4;stroke-dasharray:none;stroke-opacity:1;paint-order:stroke markers fill"
         inkscape:original="M 64 64 L 108.375 89.625 C 112.85836 81.881923 115.2612 72.947383 115.25 64 L 64 64 z "
         inkscape:radius="4.1802502"
         sodipodi:type="inkscape:offset" />
      <path
         inkscape:transform-center-x="-3.9127037"
         sodipodi:type="inkscape:offset"
         inkscape:radius="4.1802502"
         inkscape:original="M 64 64 L 108.375 89.625 C 112.85836 81.881923 115.2612 72.947383 115.25 64 L 64 64 z "
         style="fill:#ff7920;fill-opacity:1;stroke:#ffffff;stroke-width:7.08464791;stroke-linejoin:round;stroke-miterlimit:4;stroke-dasharray:none;stroke-opacity:1;paint-order:stroke markers fill"
         id="path3772"
         d="m 64,59.820312 a 4.1806682,4.1806682 0 0 0 -2.089844,7.798829 l 44.375004,25.625 a 4.1806682,4.1806682 0 0 0 5.70703,-1.525391 c 4.85754,-8.389313 7.44964,-18.025334 7.4375,-27.724609 A 4.1806682,4.1806682 0 0 0 115.25,59.820312 Z"
         transform="matrix(0.02951995,0.0182274,-0.01704335,0.03157077,12.287463,290.05769)"
         inkscape:transform-center-y="4.184021" />
      <path
         inkscape:transform-center-y="2.1183863"
         transform="matrix(0.03408671,0,0,0.0364548,11.044982,290.65128)"
         d="m 64,59.820312 a 4.1806682,4.1806682 0 0 0 -2.089844,7.798829 l 44.375004,25.625 a 4.1806682,4.1806682 0 0 0 5.70703,-1.525391 c 4.85754,-8.389313 7.44964,-18.025334 7.4375,-27.724609 A 4.1806682,4.1806682 0 0 0 115.25,59.820312 Z"
         id="path3774"
         style="fill:#ff7920;fill-opacity:1;stroke:#ffffff;stroke-width:7.08464596;stroke-linejoin:round;stroke-miterlimit:4;stroke-dasharray:none;stroke-opacity:1;paint-order:stroke markers fill"
         inkscape:original="M 64 64 L 108.375 89.625 C 112.85836 81.881923 115.2612 72.947383 115.25 64 L 64 64 z "
         inkscape:radius="4.1802502"
         sodipodi:type="inkscape:offset"
         inkscape:transform-center-x="-4.7959757" />
      <path
         inkscape:transform-center-y="-2.1183798"
         inkscape:transform-center-x="-4.795412"
         sodipodi:type="inkscape:offset"
         inkscape:radius="4.1802502"
         inkscape:original="M 64 64 L 108.375 89.625 C 112.85836 81.881923 115.2612 72.947383 115.25 64 L 64 64 z "
         style="fill:#ff7920;fill-opacity:1;stroke:#ffffff;stroke-width:7.08464791;stroke-linejoin:round;stroke-miterlimit:4;stroke-dasharray:none;stroke-opacity:1;paint-order:stroke markers fill"
         id="path3776"
         d="m 64,59.820312 a 4.1806682,4.1806682 0 0 0 -2.089844,7.798829 l 44.375004,25.625 a 4.1806682,4.1806682 0 0 0 5.70703,-1.525391 c 4.85754,-8.389313 7.44964,-18.025334 7.4375,-27.724609 A 4.1806682,4.1806682 0 0 0 115.25,59.820312 Z"
         transform="matrix(0.02951995,-0.0182274,0.01704335,0.03157077,10.246473,291.82974)" />
      <path
         inkscape:transform-center-y="-4.1845201"
         transform="matrix(0.01704335,-0.03157077,0.02951995,0.0182274,10.105898,293.27731)"
         d="m 64,59.820312 a 4.1806682,4.1806682 0 0 0 -2.089844,7.798829 l 44.375004,25.625 a 4.1806682,4.1806682 0 0 0 5.70703,-1.525391 c 4.85754,-8.389313 7.44964,-18.025334 7.4375,-27.724609 A 4.1806682,4.1806682 0 0 0 115.25,59.820312 Z"
         id="path3778"
         style="fill:#ff7920;fill-opacity:1;stroke:#ffffff;stroke-width:7.08464791;stroke-linejoin:round;stroke-miterlimit:4;stroke-dasharray:none;stroke-opacity:1;paint-order:stroke markers fill"
         inkscape:original="M 64 64 L 108.375 89.625 C 112.85836 81.881923 115.2612 72.947383 115.25 64 L 64 64 z "
         inkscape:radius="4.1802502"
         sodipodi:type="inkscape:offset"
         inkscape:transform-center-x="-3.9122296" />
      <path
         inkscape:transform-center-x="-1.9807716"
         sodipodi:type="inkscape:offset"
         inkscape:radius="4.1802502"
         inkscape:original="M 64 64 L 108.375 89.625 C 112.85836 81.881923 115.2612 72.947383 115.25 64 L 64 64 z "
         style="fill:#ff7920;fill-opacity:1;stroke:#ffffff;stroke-width:7.08464596;stroke-linejoin:round;stroke-miterlimit:4;stroke-dasharray:none;stroke-opacity:1;paint-order:stroke markers fill"
         id="path3780"
         d="m 64,59.820312 a 4.1806682,4.1806682 0 0 0 -2.089844,7.798829 l 44.375004,25.625 a 4.1806682,4.1806682 0 0 0 5.70703,-1.525391 c 4.85754,-8.389313 7.44964,-18.025334 7.4375,-27.724609 A 4.1806682,4.1806682 0 0 0 115.25,59.820312 Z"
         transform="matrix(0,-0.0364548,0.03408671,0,10.660922,294.6061)"
         inkscape:transform-center-y="-5.1291658" />
      <path
         sodipodi:type="inkscape:offset"
         inkscape:radius="4.1802502"
         inkscape:original="M 64 64 L 108.375 89.625 C 112.85836 81.881923 115.2612 72.947383 115.25 64 L 64 64 z "
         style="fill:#ff7920;fill-opacity:1;stroke:#ffffff;stroke-width:7.08464791;stroke-linejoin:round;stroke-miterlimit:4;stroke-dasharray:none;stroke-opacity:1;paint-order:stroke markers fill"
         id="path846"
         d="m 64,59.820312 a 4.1806682,4.1806682 0 0 0 -2.089844,7.798829 l 44.375004,25.625 a 4.1806682,4.1806682 0 0 0 5.70703,-1.525391 c 4.85754,-8.389313 7.44964,-18.025334 7.4375,-27.724609 A 4.1806682,4.1806682 0 0 0 115.25,59.820312 Z"
         transform="matrix(-0.01704335,0.03157077,0.02951995,0.0182274,11.759002,290.20803)"
         inkscape:transform-center-y="3.8323582"
         inkscape:transform-center-x="1.656021" />
      <path
         inkscape:transform-center-y="4.184021"
         transform="matrix(-0.02951995,0.0182274,0.01704335,0.03157077,13.112536,290.05769)"
         d="m 64,59.820312 a 4.1806682,4.1806682 0 0 0 -2.089844,7.798829 l 44.375004,25.625 a 4.1806682,4.1806682 0 0 0 5.70703,-1.525391 c 4.85754,-8.389313 7.44964,-18.025334 7.4375,-27.724609 A 4.1806682,4.1806682 0 0 0 115.25,59.820312 Z"
         id="path848"
         style="fill:#ff7920;fill-opacity:1;stroke:#ffffff;stroke-width:7.08464791;stroke-linejoin:round;stroke-miterlimit:4;stroke-dasharray:none;stroke-opacity:1;paint-order:stroke markers fill"
         inkscape:original="M 64 64 L 108.375 89.625 C 112.85836 81.881923 115.2612 72.947383 115.25 64 L 64 64 z "
         inkscape:radius="4.1802502"
         sodipodi:type="inkscape:offset"
         inkscape:transform-center-x="3.9127042" />
      <path
         inkscape:transform-center-x="4.7959762"
         sodipodi:type="inkscape:offset"
         inkscape:radius="4.1802502"
         inkscape:original="M 64 64 L 108.375 89.625 C 112.85836 81.881923 115.2612 72.947383 115.25 64 L 64 64 z "
         style="fill:#ff7920;fill-opacity:1;stroke:#ffffff;stroke-width:7.08464596;stroke-linejoin:round;stroke-miterlimit:4;stroke-dasharray:none;stroke-opacity:1;paint-order:stroke markers fill"
         id="path850"
         d="m 64,59.820312 a 4.1806682,4.1806682 0 0 0 -2.089844,7.798829 l 44.375004,25.625 a 4.1806682,4.1806682 0 0 0 5.70703,-1.525391 c 4.85754,-8.389313 7.44964,-18.025334 7.4375,-27.724609 A 4.1806682,4.1806682 0 0 0 115.25,59.820312 Z"
         transform="matrix(-0.03408671,0,0,0.0364548,14.355017,290.65128)"
         inkscape:transform-center-y="2.1183863" />
      <path
         transform="matrix(-0.02951995,-0.0182274,-0.01704335,0.03157077,15.153526,291.82974)"
         d="m 64,59.820312 a 4.1806682,4.1806682 0 0 0 -2.089844,7.798829 l 44.375004,25.625 a 4.1806682,4.1806682 0 0 0 5.70703,-1.525391 c 4.85754,-8.389313 7.44964,-18.025334 7.4375,-27.724609 A 4.1806682,4.1806682 0 0 0 115.25,59.820312 Z"
         id="path852"
         style="fill:#ff7920;fill-opacity:1;stroke:#ffffff;stroke-width:7.08464791;stroke-linejoin:round;stroke-miterlimit:4;stroke-dasharray:none;stroke-opacity:1;paint-order:stroke markers fill"
         inkscape:original="M 64 64 L 108.375 89.625 C 112.85836 81.881923 115.2612 72.947383 115.25 64 L 64 64 z "
         inkscape:radius="4.1802502"
         sodipodi:type="inkscape:offset"
         inkscape:transform-center-x="4.7954125"
         inkscape:transform-center-y="-2.1183798" />
      <path
         inkscape:transform-center-x="3.9122301"
         sodipodi:type="inkscape:offset"
         inkscape:radius="4.1802502"
         inkscape:original="M 64 64 L 108.375 89.625 C 112.85836 81.881923 115.2612 72.947383 115.25 64 L 64 64 z "
         style="fill:#ff7920;fill-opacity:1;stroke:#ffffff;stroke-width:7.08464791;stroke-linejoin:round;stroke-miterlimit:4;stroke-dasharray:none;stroke-opacity:1;paint-order:stroke markers fill"
         id="path854"
         d="m 64,59.820312 a 4.1806682,4.1806682 0 0 0 -2.089844,7.798829 l 44.375004,25.625 a 4.1806682,4.1806682 0 0 0 5.70703,-1.525391 c 4.85754,-8.389313 7.44964,-18.025334 7.4375,-27.724609 A 4.1806682,4.1806682 0 0 0 115.25,59.820312 Z"
         transform="matrix(-0.01704335,-0.03157077,-0.02951995,0.0182274,15.294102,293.27731)"
         inkscape:transform-center-y="-4.1845201" />
      <path
         inkscape:transform-center-y="-5.1291658"
         transform="matrix(0,-0.0364548,-0.03408671,0,14.739077,294.6061)"
         d="m 64,59.820312 a 4.1806682,4.1806682 0 0 0 -2.089844,7.798829 l 44.375004,25.625 a 4.1806682,4.1806682 0 0 0 5.70703,-1.525391 c 4.85754,-8.389313 7.44964,-18.025334 7.4375,-27.724609 A 4.1806682,4.1806682 0 0 0 115.25,59.820312 Z"
         id="path856"
         style="fill:#ff7920;fill-opacity:1;stroke:#ffffff;stroke-width:7.08464596;stroke-linejoin:round;stroke-miterlimit:4;stroke-dasharray:none;stroke-opacity:1;paint-order:stroke markers fill"
         inkscape:original="M 64 64 L 108.375 89.625 C 112.85836 81.881923 115.2612 72.947383 115.25 64 L 64 64 z "
         inkscape:radius="4.1802502"
         sodipodi:type="inkscape:offset"
         inkscape:transform-center-x="1.9807721" />
    </g>
  </g>
</svg>
