<svg xmlns="http://www.w3.org/2000/svg" width="64" height="64"><rect width="52" height="52" x="6" y="6" fill="#f9f9f9" fill-rule="evenodd" rx="8" ry="8" style="paint-order:stroke fill markers"/><path fill="#ffc344" d="M30.32 11.35s3.223-.05 6.535 2.207c3.311 2.258 5.236 4.415 5.862 5.82.627 1.404 2.685 3.862 2.64 8.377-.044 4.514-.984 7.524-2.595 10.033a9.89 9.89 0 0 1-8.01 4.514c-3.491.1-5.729-2.408-6.49-3.812-.76-1.405-1.074-4.415-.134-6.572s2.417-2.157 2.909-1.956c.492.2.627.502.895 1.053.268.552.448.452.85.151.403-.301.537-.652.448-1.104-.09-.451-.627-1.003-1.074-1.153s-1.074-.602-1.97-.452c-.894.15-2.64.652-4.117 2.86s-1.297 5.618-.402 7.223 2.595 4.615 6.355 5.668c3.759 1.054 9.845-2.056 11.949-6.872s2.148-7.073 2.058-11.036-3.267-9.882-6.802-12.039c-3.536-2.157-6.176-3.411-8.906-2.91z"/><path fill="#f06767" d="M32.19 31.39s-.885-.923-1.676.709c-.791 1.631-1.171 3.086-.38 4.86.791 1.773 2.437 2.837 4.968 2.801 2.532-.035 4.399-.71 5.506-2.73 1.108-2.023 1.962-3.513 2.057-4.257.095-.745.601.106.443.744-.158.639-.126 1.88.317 1.632s.79-.638.854-.461-.506 1.277-.775 1.827c-.27.55-1.108 1.88-1.598 2.394s-1.171 1.241-1.978 1.773-2.057 1.153-2.753 1.295-2.089.443-2.88.408a6.5 6.5 0 0 1-2.927-.816c-1.123-.62-2.342-1.578-2.816-2.536-.475-.958-1.203-1.827-1.045-4.239s.87-3.653 1.409-4.22c.538-.568 1.329-.816 1.85-.692.523.124.855.46.982.71.127.247.332.709.443.797"/><path fill="#3f62eb" d="M40.229 44.16s3.797-2.448 5.57-6.315c1.771-3.866 2.53-6.349 2.31-10.145-.222-3.795-.76-1.915-.159-3.547.602-1.631-.38-4.86.032-5.072.411-.213 1.297 1.419 1.55 2.731.254 1.313 1.361 5.356.475 10.5-.886 5.142-2.974 7.2-4.367 8.583s-4.556 3.796-5.031 3.76-.538-.036-.38-.497z"/><path fill="#fce102" d="M33.394 36.71s2.025.497 3.576-.567c1.55-1.064 2.753-2.802 2.943-3.476s.221.603.443-.036c.221-.638 1.107-1.915.664-4.895s-.474-3.121-1.297-4.717c-.823-1.597-2.785-3.796-3.987-4.505-1.203-.71-2.88-1.774-5.19-1.703s-1.55-.106-3.766.32-4.209 1.596-4.873 2.234c-.665.639-2.437 2.377-3.07 3.334-.632.958-2.373 3.122-3.29 6.137-.918 3.015-1.298 3.334-1.361 5.32-.064 1.987.158 2.519-.222 2.696s-.316-1.49-.285-2.66.032-4.221 1.424-7.626c1.393-3.406 3.861-6.243 5.253-7.272s3.007-2.412 5.507-3.086 5-.567 6.55-.248c1.55.32 3.956 1.419 5.253 2.518 1.297 1.1 2.721 2.448 3.797 4.647s1.361 5.001 1.33 6.172c-.032 1.17-.57 3.866-1.393 5.179-.823 1.312-1.93 2.873-3.07 3.44-1.139.568-2.531.745-3.67.178-1.14-.568-1.076-.78-1.266-1.384"/><path fill="#5ed938" d="M33.394 36.71s1.604.5 2.957-.178c1.354-.677 1.858-1.33 2.182-1.718.324-.389.94-1.116 1.108-1.455.167-.338.346-.539.346-.664 0-.126-.313-.427-.01-1.154.301-.727.57-2.395.435-3.148-.134-.752-.447-4.928-3.132-7.712s-5.348-3.11-5.348-3.11 4.251 1.48 6.243 5.969 1.342 7.374.067 9.13c-1.275 1.755-3.088 1.956-3.58 1.505s-1.507 2.061-1.268 2.535"/><path fill="#8fdbe9" d="M28.218 20.605s-2.864-.025-5.035 1.555c-2.17 1.58-3.222 2.86-3.826 3.863s-1.298 2.383-1.208 2.358c.09-.026 2.618-3.913 4.587-4.916s3.938-2.408 6.645-1.38c2.708 1.028 3.983 2.458 4.565 2.107s.694-.777.358-1.254-2.707-2.81-6.086-2.333"/><path fill="#fd7aff" d="M23.932 40.647c.19.107 1.614 2.838 2.753 3.299s1.899.497 2.025.71c.127.212.095 1.276 1.108 1.738 1.012.46 5.76 1.915 7.12 2.057s.221 1.029 1.044 1.348 4.335.496 5.19.106c.854-.39.854.355-.633.993-1.487.639-5.411 2.164-7.974 1.81s-5.602-.958-7.31-2.306c-1.71-1.348-2.437-1.951-1.804-2.058s2.31 1.88 3.038 2.093 1.329.213.886-.284c-.443-.496-3.323-2.695-3.608-2.589-.284.106-.886.177-1.392-.568s-3.165-4.86-3.006-7.058c.158-2.2.664-1.632 1.265-.816a16 16 0 0 0 1.298 1.525"/></svg>