<svg xmlns="http://www.w3.org/2000/svg" width="64" height="64" viewBox="0 0 16.934 16.934"><circle cx="8.467" cy="8.467" r="7.144" fill="#333" style="paint-order:markers stroke fill"/><path d="M8.69 13.514a23 23 0 0 1-.129-.762.5.5 0 0 1 .007-.116c.039-.206.207-.34.478-.382.22-.034.4.028.5.172.063.089.072.122.145.538.037.206.065.377.063.38a1.5 1.5 0 0 1-.221.036 10 10 0 0 1-.066-.355 9 9 0 0 0-.075-.394c-.045-.146-.193-.215-.365-.17q-.2.05-.23.216c-.01.057-.01.063.06.463.033.187.059.343.057.347a.4.4 0 0 1-.1.024l-.11.02q-.01.003-.015-.016zm-1.87-.225a7 7 0 0 1-.287-.113.7.7 0 0 1-.18-.136.52.52 0 0 1-.157-.385.6.6 0 0 1 .178-.437.52.52 0 0 1 .327-.157.6.6 0 0 1 .242.018c.08.02.554.195.552.204 0 .005-.387 1.044-.405 1.091q-.005.011-.01.012zm.257-.54c.079-.21.142-.382.14-.383a4 4 0 0 0-.31-.109.5.5 0 0 0-.21.013q-.175.065-.25.278a.4.4 0 0 0-.016.141v.092l.03.062a.4.4 0 0 0 .17.175c.058.03.278.116.294.114.006-.001.06-.135.152-.383m3.836-.623a34 34 0 0 1-.573-.29c0-.002.149-.126.174-.144.01-.007.034.003.149.061.074.038.138.069.142.068s.095-.076.203-.166l.198-.165-.047-.147a1 1 0 0 1-.043-.152 3 3 0 0 1 .18-.145c.002.001.084.262.183.58l.189.609.01.03-.089.073a1 1 0 0 1-.096.073c-.004 0-.265-.129-.58-.285m.505.004-.15-.453a1 1 0 0 0-.147.112c-.08.066-.142.122-.139.125.008.008.425.224.433.224q.005-.001.003-.008m-6.638-.086-.08-.08.413-.418c.228-.23.417-.417.42-.417.01 0 .158.148.158.158 0 .003-.187.194-.415.422l-.416.415Zm-.732-1.43c-.227-.044-.406-.216-.487-.467a.63.63 0 0 1 .066-.558.6.6 0 0 1 .563-.262.58.58 0 0 1 .359.175c.084.084.15.203.187.334a.5.5 0 0 1 .02.178c0 .083-.004.12-.014.158a.8.8 0 0 1-.114.23.64.64 0 0 1-.31.201.7.7 0 0 1-.27.01zm.174-.232a.42.42 0 0 0 .323-.299.45.45 0 0 0-.123-.413.39.39 0 0 0-.466-.069c-.216.107-.285.336-.173.567a.5.5 0 0 0 .177.185q.122.06.262.029m9-.961-.075-.011.028-.265.03-.265a7 7 0 0 0-.305-.034l-.03.254-.03.253a3 3 0 0 1-.177-.021c0-.001.011-.114.027-.252s.027-.252.026-.254a5 5 0 0 0-.327-.037 7 7 0 0 0-.033.267 5 5 0 0 1-.035.269.4.4 0 0 1-.088-.005c-.074-.008-.085-.01-.085-.022 0-.015.085-.76.087-.76a156 156 0 0 1 1.174.133l-.03.282c-.06.533-.053.48-.07.478zm-1.094-1.89c-.043-.12-.043-.12-.03-.136.008-.01.06-.07.118-.133.213-.238.238-.29.195-.417-.015-.046-.02-.056-.03-.052-.058.022-.459.165-.46.163a2 2 0 0 1-.073-.213 91 91 0 0 1 1.11-.4c.008.01.16.446.166.474a.5.5 0 0 1 .004.107.23.23 0 0 1-.032.127.3.3 0 0 1-.137.141.304.304 0 0 1-.361-.05l-.027-.024-.008.033c-.02.078-.062.137-.223.312a5 5 0 0 0-.167.188zm.71-.546c.1-.038.12-.117.067-.271a1 1 0 0 0-.035-.089 3 3 0 0 0-.308.105l.031.088c.04.108.063.14.12.167a.15.15 0 0 0 .124 0zm-8.463.447a1 1 0 0 1-.1-.04.3.3 0 0 1 .047-.035 1 1 0 0 0 .108-.091.38.38 0 0 0 .123-.225c.009-.097-.041-.16-.127-.16-.045 0-.089.03-.204.14-.132.126-.164.151-.236.185a.31.31 0 0 1-.295-.012c-.213-.113-.197-.462.033-.705l.044-.046.096.035a1 1 0 0 1 .095.037.3.3 0 0 1-.039.036.6.6 0 0 0-.178.251c-.035.112.005.197.092.197.055 0 .095-.026.216-.144.13-.127.159-.15.228-.183a.33.33 0 0 1 .37.066c.098.094.123.243.067.406a.6.6 0 0 1-.157.253 1 1 0 0 1-.077.071zm.543-1.861L4.5 5.15l.191-.189c.203-.2.226-.219.317-.245a.3.3 0 0 1 .107-.009.23.23 0 0 1 .12.03.35.35 0 0 1 .196.274.34.34 0 0 1-.042.194.6.6 0 0 1-.134.165l-.105.108.175.175.174.174-.08.081-.08.08zm.19-.312c.07-.072.085-.092.096-.124a.2.2 0 0 0 .008-.065.2.2 0 0 0-.078-.117c-.03-.022-.04-.025-.077-.025-.061 0-.096.02-.19.11l-.081.078.114.114c.063.063.116.115.119.115s.042-.039.088-.086zm6.09.583a1 1 0 0 1-.07-.086c0-.008.817-.764.851-.788.017-.012.017-.011.05.024l.075.085.044.048-.431.396a23 23 0 0 1-.44.397.4.4 0 0 1-.079-.076M6.488 4.4a22 22 0 0 1-.228-.545 2 2 0 0 1 .206-.093l.36.845c.094.217.103.241.092.247-.019.01-.191.084-.196.084-.002 0-.107-.242-.234-.538m3.359.482-.096-.052.36-.737c.077-.154.143-.29.149-.303l.01-.022.32.158.324.16a1 1 0 0 1-.075.156 2 2 0 0 1-.223-.103 4 4 0 0 0-.218-.103l-.068.136-.066.133.218.108.22.108a1 1 0 0 1-.036.083l-.038.081-.072-.034-.222-.108-.15-.075-.113.231a3 3 0 0 1-.12.231c-.004 0-.05-.022-.104-.048m-1.625-.796v-.5l-.208-.003-.209-.002-.002-.089-.002-.09h1.073v.176h-.42v1.01h-.232Z" style="fill:#fff;fill-opacity:1;stroke-width:.00701095"/></svg>