<svg xmlns="http://www.w3.org/2000/svg" width="64" height="64"><rect width="52" height="52" x="6" y="6" fill="#79e4ba" rx="8" ry="8" style="paint-order:markers fill stroke"/><path fill="#20a239" d="M32 15.565a11.713 11.713 0 0 0-11.739 11.739v3.522l1.76 1.172 1.762-1.172v-3.522c0-4.555 3.662-8.217 8.217-8.217s8.217 3.662 8.217 8.217v3.522l1.761 1.172 1.76-1.172v-3.522A11.713 11.713 0 0 0 32 15.565"/><path fill="#13867f" d="M20.261 30.826a3.517 3.517 0 0 0-3.522 3.522v5.87a3.517 3.517 0 0 0 3.522 3.52l3.522-.001V30.824zm5.87 0c-.65 0-1.174.524-1.174 1.174v10.565c0 .65.523 1.174 1.173 1.174s1.174-.524 1.174-1.174V32c0-.65-.523-1.174-1.174-1.174m11.738 0c-.65 0-1.173.524-1.173 1.174v10.565c0 .65.523 1.174 1.174 1.174s1.173-.524 1.173-1.174V32c0-.65-.523-1.174-1.173-1.174m2.348 0v12.913l3.522.002a3.517 3.517 0 0 0 3.522-3.521v-5.87a3.517 3.517 0 0 0-3.522-3.522z"/></svg>