<svg xmlns="http://www.w3.org/2000/svg" width="64" height="64"><rect width="52" height="52" x="6" y="6" rx="8" ry="8" style="fill:#8c0000;fill-opacity:1;stroke-width:4.72727;stroke-linecap:round;stroke-linejoin:round;paint-order:stroke fill markers"/><path d="M45.198 17.343a5.34 5.34 0 0 0-3.378-1.201H21.395a5.3 5.3 0 0 0-2.5.62 5.4 5.4 0 0 0-2.17 2.102 5 5 0 0 0-.266.53c-.045.123-.1.242-.142.362a5 5 0 0 0-.193.752 5 5 0 0 0-.097 1.005v20.425a5.3 5.3 0 0 0 .53 2.326A5.37 5.37 0 0 0 21.4 47.3h10.894a.287.287 0 0 0 .29-.288V45.72a.29.29 0 0 0-.29-.29H30.88l-4.22-8.566 9.64-12.767a1.1 1.1 0 0 0 .178-.375l8.827 1.35v1.986a.294.294 0 0 0 .29.291h1.312a.29.29 0 0 0 .287-.29v-5.55a5.34 5.34 0 0 0-1.996-4.166m-11.117.685.456 3.637-7.135-1.092-.323-2.545zm-12.686 0h3.924l.28 2.26-5.202-.78-1.648-.256a3.46 3.46 0 0 1 2.646-1.224m3.972 3.998-3.64 4.845-2.868-5.846zm-7.454 1.03 2.332 4.726-2.332.287zm0 6.783 3.142-.397 3.256 6.592-6.398.804zm11.03 15.59h-7.258a3.78 3.78 0 0 1-3.772-3.798v-3.065l7.206-.904zM25.8 35.134l-3.23-6.518 4.732-6.266 7.293 1.118zm19.498-11.808L36.32 21.93l-.487-3.912h5.697A3.78 3.78 0 0 1 45.3 21.8z" class="a" style="fill:#e6e6e6;stroke-width:.322979"/><path d="M46.765 29.846a.48.48 0 0 1 .452.517v1.388a.43.43 0 0 1-.485.485h-6.01c-1.49 0-2.361.517-2.361 1.68v.422c0 .905.42 1.68 2.005 2.261l4.296 1.712c2.975 1.13 3.23 2.78 3.23 4.557v.356c0 3.62-2.167 4.33-6.528 4.33-2.813 0-5.364-.225-5.913-.29-.388-.032-.485-.226-.485-.484v-1.425a.43.43 0 0 1 .485-.484h5.978c2.584 0 3.391-.29 3.391-1.68v-.387c0-.937-.387-1.55-1.873-2.164l-4.59-1.748c-2.486-.969-3.1-2.842-3.1-4.618v-.682c0-3.552 3.1-4.037 6.56-4.037a41 41 0 0 1 4.948.29" class="b" style="fill:#e6e6e6;stroke-width:.322979"/></svg>