<svg id="svg14" width="64" height="64" version="1.1" viewBox="0 0 16.933 16.933" xmlns="http://www.w3.org/2000/svg">
 <g id="g4563" transform="translate(.26458 .52916)">
  <path id="path4551" d="m1.3229 10.319v3.1749a6.879 1.5875 0 0 0 6.879 1.5875 6.879 1.5875 0 0 0 6.879-1.5875v-3.1749z" fill="#e6e6e6"/>
  <ellipse id="ellipse4555" cx="8.2019" cy="10.319" rx="6.879" ry="1.5875" fill="#ccc"/>
  <path id="path4549" d="m1.3229 6.3499v3.1749a6.879 1.5875 0 0 0 6.879 1.5875 6.879 1.5875 0 0 0 6.879-1.5875v-3.1749z" fill="#e6e6e6"/>
  <ellipse id="ellipse4553" cx="8.2019" cy="6.3499" rx="6.879" ry="1.5875" fill="#ccc"/>
  <path id="rect4532" transform="scale(.26458)" d="m5 9v12a26 6 0 0 0 26 6 26 6 0 0 0 26-6v-12z" fill="#e6e6e6"/>
  <ellipse id="path4534" cx="8.2019" cy="2.3812" rx="6.879" ry="1.5875" fill="#ccc"/>
  <path id="path4575" transform="matrix(.26458 0 0 .26458 -.26458 -.52916)" d="m8 13.293v12.01a26 6 0 0 0 2 0.88281v-11.992a26 6 0 0 1-2-0.90039zm0 15v12.01a26 6 0 0 0 2 0.88281v-11.992a26 6 0 0 1-2-0.90039zm0 15v12.01a26 6 0 0 0 2 0.88281v-11.992a26 6 0 0 1-2-0.90039z" fill="#fff" opacity=".35"/>
  <path id="path4583" transform="matrix(.26458 0 0 .26458 -.26458 -.52916)" d="m11 14.525v12.002a26 6 0 0 0 5 1.1992v-12.006a26 6 0 0 1-5-1.1953zm0 15v12.002a26 6 0 0 0 5 1.1992v-12.006a26 6 0 0 1-5-1.1953zm0 15v12.002a26 6 0 0 0 5 1.1992v-12.006a26 6 0 0 1-5-1.1953z" fill="#fff" opacity=".35"/>
 </g>
 <path id="path37" d="m10.145 1.5906c-3.8526-0.0042333-4.889 4.3839-4.7382 6.8999 0.40578 0.34129 0.71422 0.75243 0.99091 1.126-0.27564-0.33177-0.65285-0.5847-1.0253-0.86038-0.029627 0.24711-0.051318 0.47728-0.064544 0.68417 0.5481 0.41167 1.0719 1.1895 1.0719 1.1895s-0.03915-0.04974-0.19998-0.218c-0.14284-0.14922-0.74385-0.58417-0.88563-0.68576-0.013757 0.46247 0.024337 0.76672 0.1111 0.82757 0.16771 0.11748 0.36557 0.33653 0.55921 0.58258 0.43647 0.55453 0.85124 1.2503 0.85124 1.2503 0.36134 1.0726 0.71739 2.0986 1.5395 2.9589l0.29468-0.06614c-0.46133-0.51485-0.89515-1.2302-1.1533-2.0843-0.39573-1.3054-0.65444-2.9388-0.44546-4.7014 0.45816-2.6854 1.6104-4.9755 2.9754-6.2099-1.2031 1.2392-2.4125 4.5802-2.6368 6.1242-0.2349 1.425-0.10317 2.6272 0.017996 3.8511 0.12327-1.1884 1.6951-1.9504 1.6951-1.9504s0.56979-0.84503 1.1703-2.0155c-0.7867 0.26245-1.5369 0.55559-2.2448 0.94133 0 0 1.284-0.90006 2.4791-1.4133 1.0851-2.2568 2.0347-5.3612-0.36135-6.2338" fill="#24abeb" stroke-width=".52909"/>
</svg>
