<svg xmlns="http://www.w3.org/2000/svg" width="64" height="64"><path fill="currentColor" d="m27.002 8.985-14 .003c-1.11 0-1.493 1.013-2.002 1.998V11h-1c-2.216 0-4 1.784-4 4v5c-2.216 0-4 1.784-4 4v28c0 2.216 1.784 4 4 4h52c2.216 0 4-1.784 4-4V20c0-2.216-1.784-4-4-4v-1c0-2.216-1.784-4-4-4H37.141c-.047-.003-.092-.014-.14-.014h-7.997c-.586-.94-.89-2.002-2.002-2.002z" class="ColorScheme-Highlight" color="#5294e2"/><path d="m27.002 8.985-14 .003c-1.11 0-1.493 1.013-2.002 1.998V11h-1c-2.216 0-4 1.784-4 4v5h25l3-4h24v-1c0-2.216-1.784-4-4-4l-24.996-.014c-.586-.94-.89-2.002-2.002-2.002z" opacity=".2"/><path fill="#fff" d="M11.016 13.984A2.01 2.01 0 0 0 9 16v4h22l3-4h21a2.01 2.01 0 0 0-2.015-2.016z"/><rect width="12" height="1.999" x="14" y="9.978" opacity=".25" rx="1" ry="1"/><rect width="16" height="2" x="38.998" y="17.998" opacity=".25" ry="1.002"/><path fill="#fefefe" d="M28.07 45.294c-2.131-.54-3.92-1.01-3.973-1.043-.134-.083-.124-1.91.01-1.91.06 0 1.752.419 3.761.931s3.86.932 4.112.932 2.116-.419 4.143-.93c2.027-.51 3.729-.902 3.781-.87.13.08.123 1.77-.007 1.85-.074.046-7.951 2.053-7.951 2.027 0-.002-1.744-.446-3.876-.987m-.128-4.69c-2.02-.521-3.734-.988-3.808-1.037-.087-.057-.134-.394-.134-.959 0-.774.023-.87.203-.87.112 0 1.863.42 3.89.932 2.029.512 3.81.931 3.958.931s1.924-.419 3.946-.931c2.022-.513 3.751-.932 3.844-.932.14 0 .162.157.136.955l-.032.955-3.836.962c-2.11.528-3.983.956-4.164.951s-1.982-.435-4.003-.957m.021-4.62c-2.07-.528-3.81-1.008-3.867-1.065s-.09-.517-.073-1.02l.032-.916L32.005 31l3.423.857c1.882.47 3.68.928 3.997 1.015l.575.16v.925c0 .769-.032.941-.192 1.025-.249.13-7.717 1.993-7.924 1.976-.086-.007-1.85-.445-3.92-.974z"/></svg>