<?xml version="1.0" encoding="UTF-8"?>
<svg width="64" height="64" version="1.1" viewBox="0 0 64 64" xmlns="http://www.w3.org/2000/svg">
 <rect x="6" y="6" width="52" height="52" rx="8" ry="8" fill="#f9f9f9" stroke-width="1.16"/>
 <g id="b" transform="matrix(.29636 0 0 .29636 1.1194 6.7967)">
  <path d="m175.06 102.55-64.73 37.4-12.22-7.05-0.05-0.05-52.45-30.3c-3.59-2.34-6.51-5.53-8.57-9.12-2.4-4.14-3.7-8.9-3.7-13.83 0-4.44 2.23-8.11 5.47-10.29 0.44-0.27 0.87-0.52 1.33-0.76 3.48-1.77 7.84-1.91 11.73 0.35l14.13 7.84 9.5 5.59 2.46 1.54 32.36 18.67 32.28-18.65 32.45 18.65z"/>
  <path class="cls-1" d="m117.1 31.81c-8.25-4.76-18.56 1.2-18.56 10.72s4.6 17.77 12.14 22.86l31.93 18.51 0.08-0.03 32.36-18.7z" fill="#b3b3b3"/>
  <path class="cls-2" d="m110.68 65.39c-7.54-5.09-12.14-13.66-12.14-22.86 0-4.53 2.37-8.31 5.74-10.45-0.16 0.09 0.16-0.09 0 0l-50.51 28.38-8.11 4.9-5.53 3.18c3.48-1.77 7.84-1.91 11.73 0.35l13.91 7.92 12.19 7.05 32.36 18.67 32.28-18.65-31.93-18.51v0.02z" fill="#666"/>
 </g>
</svg>
