<svg width="64" height="64" version="1.1" xmlns="http://www.w3.org/2000/svg">
 <path class="ColorScheme-Highlight" d="m27.002 8.9845-14 0.00389c-1.1097 0-1.4926 1.0128-2.002 1.998v0.01368h-1c-2.216 0-4 1.784-4 4v5c-2.216 0-4 1.784-4 4v28c0 2.216 1.784 4 4 4h52c2.216 0 4-1.784 4-4v-32c0-2.216-1.784-4-4-4v-1c0-2.216-1.784-4-4-4h-16.859c-0.04729-0.0032-0.09249-0.01387-0.14062-0.01368h-7.9961c-0.58584-0.94112-0.8907-2.002-2.002-2.002z" color="#5294e2" fill="currentColor"/>
 <path id="shadow" d="m27.002 8.9845-14 0.00389c-1.1097 0-1.4926 1.0129-2.0019 1.998v0.01368h-1c-2.216 0-4 1.784-4 4v5h25l3-4h24v-1c0-2.216-1.784-4-4-4l-24.996-0.01368c-0.58584-0.94112-0.8907-2.0019-2.0019-2.0019z" fill="#000000" opacity=".2" stroke-width="3.7796"/>
 <path d="m11.016 13.984c-1.1166 0-2.0156 0.89905-2.0156 2.0156v4h22l3-4h21c0-1.1166-0.89905-2.0156-2.0156-2.0156h-41.969z" fill="#ffffff"/>
 <rect x="14" y="9.9781" width="12" height="1.9994" rx=".9997" ry=".9997" opacity=".25" stroke-width="3.7796"/>
 <rect x="38.998" y="17.998" width="16" height="2" ry="1.0019" opacity=".25" stroke-width="3.7796"/>
 <path d="m28.07 45.294c-2.1315-0.5407-3.9191-1.0102-3.9726-1.0432-0.1341-0.08288-0.12463-1.9102 0.0099-1.9102 0.05892 0 1.7513 0.41914 3.761 0.93147 2.0097 0.51229 3.8599 0.93147 4.1117 0.93147s2.1163-0.41816 4.1433-0.92931c2.027-0.51111 3.7284-0.90269 3.781-0.87021 0.12916 0.07983 0.12245 1.77-0.0072 1.8502-0.07367 0.04555-7.9516 2.0531-7.9516 2.0263 0-0.0019-1.7439-0.44588-3.8754-0.98658zm-0.12751-4.6898c-2.0207-0.52151-3.7344-0.98807-3.8082-1.0369-0.08705-0.05755-0.13411-0.39402-0.13411-0.95886 0-0.77417 0.02242-0.87022 0.20308-0.87022 0.1117 0 1.8624 0.41916 3.8904 0.93147 2.0281 0.51229 3.8088 0.93147 3.9572 0.93147 0.14836 0 1.9241-0.41916 3.9459-0.93147 2.0219-0.51229 3.7517-0.93147 3.8439-0.93147 0.14015 0 0.16253 0.15693 0.13608 0.95513l-0.03185 0.95513-3.8356 0.96107c-2.1096 0.5286-3.9836 0.95695-4.1643 0.95194-0.18082-0.0051-1.9821-0.43582-4.0029-0.95733zm0.02089-4.6198c-2.0696-0.52839-3.81-1.0079-3.8677-1.0656s-0.09044-0.51692-0.07278-1.0205l0.0321-0.91564 7.9508-1.9822 3.4219 0.85607c1.882 0.47086 3.6807 0.92799 3.9972 1.0159l0.57535 0.15984v0.92455c0 0.76912-0.03227 0.94149-0.19178 1.0252-0.2494 0.13089-7.7173 1.9932-7.9241 1.9761-0.08682-0.0072-1.8511-0.44538-3.9207-0.97377z" fill="#fefefe" stroke-width="1.1234"/>
</svg>
