<svg xmlns="http://www.w3.org/2000/svg" width="64" height="64" image-rendering="optimizeSpeed"><path fill="#374651" d="M58.181 25.135a30 30 0 0 0-.209-.778c-.057-.194-.114-.392-.18-.6a25 25 0 0 0-2.331-5.257c-1.161-1.974-2.62-3.845-4.368-5.592q-6.229-6.232-14.51-7.554a28 28 0 0 0-2.863-.307 31 31 0 0 0-3.317-.005q-10.155.524-17.495 7.865-7.909 7.909-7.909 19.091 0 11.186 7.909 19.094c3.243 3.241 6.895 5.486 10.932 6.725a27.2 27.2 0 0 0 6.563 1.141h.023c.486.026.95.04 1.402.04h.171c.59 0 1.173-.017 1.722-.046l.398-.025a28 28 0 0 0 3.357-.44q.684-.136 1.34-.295c4.621-1.162 8.702-3.524 12.278-7.1q4.171-4.168 6.14-9.255 1.585-4.088 1.748-8.781.018-.52.018-1.058v-.172a28 28 0 0 0-.818-6.693z"/><path fill="#fff" d="M30.757 16C22.52 16.497 16 23.483 16 32c0 8.84 7.237 15.998 16.01 15.998 8.512 0 15.583-6.98 15.989-15.283h-3.821c-.404 6.386-5.655 11.453-12.068 11.453-6.677 0-12.308-5.459-12.308-12.186 0-6.403 5.252-11.641 10.956-12.133zm1.903 0v3.848c3.169.203 5.036 1.219 6.911 2.801l2.793-2.716C39.79 17.665 36.463 16.216 32.66 16m11.262 5.241-2.7 2.705A12.34 12.34 0 0 1 44.16 30.8h3.815c-.256-3.831-1.743-6.98-4.053-9.56zm-4.86 3.577-8.054 4.977.008.007a2.53 2.53 0 0 0-1.29 2.2 2.525 2.525 0 0 0 2.513 2.532c.975 0 1.81-.565 2.228-1.38l.006.005z"/></svg>