<svg width="64" height="64" version="1.1" xmlns="http://www.w3.org/2000/svg">
 <defs>
  <linearGradient id="a" x1="-197.1" x2="-196.91" y1="217.68" y2="219.37" gradientTransform="matrix(2.6726 -2.6726 2.6726 2.6726 -.0084962 -1058.5)" gradientUnits="userSpaceOnUse">
   <stop offset="0"/>
   <stop stop-opacity="0" offset="1"/>
  </linearGradient>
 </defs>
 <g transform="matrix(3.7796 0 0 3.7796 0 -1058.6)">
  <path d="m3.44 282.45c-0.294 0-0.395 0.269-0.53 0.53h-0.793a0.528 0.528 0 0 0-0.53 0.528v5.292c0 0.293 0.237 0.53 0.53 0.53h12.7c0.293 0 0.529-0.237 0.529-0.53v-5.292a0.528 0.528 0 0 0-0.53-0.529h-7.142c-0.155-0.249-0.236-0.53-0.53-0.53z" fill="#5677fc" paint-order="markers stroke fill"/>
  <path d="m3.44 282.45c-0.294 0-0.395 0.269-0.53 0.53h-0.793a0.528 0.528 0 0 0-0.53 0.528v5.292c0 0.293 0.237 0.53 0.53 0.53h12.7c0.293 0 0.529-0.237 0.529-0.53v-5.292a0.528 0.528 0 0 0-0.53-0.529h-7.142c-0.155-0.249-0.236-0.53-0.53-0.53z" opacity=".18" paint-order="markers stroke fill"/>
  <rect x="2.381" y="283.77" width="12.171" height="5.027" ry=".265" fill="#ffffff" paint-order="markers stroke fill"/>
  <path transform="matrix(.26458 0 0 .26458 0 280.07)" d="m32.002 15.988c-1.1074 0-1.4444 1.0418-2 1.998l-1.1719 2.0078h-24.832c-1.1077 0-1.998 0.89233-1.998 2v32.002c0 1.1077 0.89037 1.998 1.998 1.998h56.004c1.1077 0 1.998-0.88647 1.998-1.9941v-36c0-1.1112-0.89062-2.0117-1.998-2.0117z" fill="#5677fc" stroke-width="3.7796" style="paint-order:markers stroke fill"/>
  <rect x="3.704" y="282.71" width="3.175" height=".529" ry=".265" opacity=".25" paint-order="stroke markers fill"/>
 </g>
 <path d="m62.001 43.998-11.998 12h10c1.1077 0 1.998-0.89036 1.998-1.998z" fill="url(#a)" opacity=".1" stroke-width="3.7796" style="paint-order:stroke markers fill"/>
 <path d="m28.07 45.294c-2.1315-0.5407-3.9191-1.0102-3.9726-1.0432-0.1341-0.08288-0.12463-1.9102 0.0099-1.9102 0.05892 0 1.7513 0.41914 3.761 0.93147 2.0097 0.51229 3.8599 0.93147 4.1117 0.93147s2.1163-0.41816 4.1433-0.92931c2.027-0.51111 3.7284-0.90269 3.781-0.87021 0.12916 0.07983 0.12245 1.77-0.0072 1.8502-0.07367 0.04555-7.9516 2.0531-7.9516 2.0263 0-0.0019-1.7439-0.44588-3.8754-0.98658zm-0.12751-4.6898c-2.0207-0.52151-3.7344-0.98807-3.8082-1.0369-0.08705-0.05755-0.13411-0.39402-0.13411-0.95886 0-0.77417 0.02242-0.87022 0.20308-0.87022 0.1117 0 1.8624 0.41916 3.8904 0.93147 2.0281 0.51229 3.8088 0.93147 3.9572 0.93147 0.14836 0 1.9241-0.41916 3.9459-0.93147 2.0219-0.51229 3.7517-0.93147 3.8439-0.93147 0.14015 0 0.16253 0.15693 0.13608 0.95513l-0.03185 0.95513-3.8356 0.96107c-2.1096 0.5286-3.9836 0.95695-4.1643 0.95194-0.18082-0.0051-1.9821-0.43582-4.0029-0.95733zm0.02089-4.6198c-2.0696-0.52839-3.81-1.0079-3.8677-1.0656-0.0577-0.0577-0.09044-0.51692-0.07278-1.0205l0.0321-0.91564 7.9508-1.9822 3.4219 0.85607c1.882 0.47086 3.6807 0.92799 3.9972 1.0159l0.57535 0.15984v0.92455c0 0.76912-0.03227 0.94149-0.19178 1.0252-0.2494 0.13089-7.7173 1.9932-7.9241 1.9761-0.08682-0.0072-1.8511-0.44538-3.9207-0.97377z" fill="#fefefe" stroke-width="1.1234"/>
</svg>
