<svg xmlns="http://www.w3.org/2000/svg" width="64" height="64"><rect width="34" height="11" x="15" y="10" fill="#d34148" fill-rule="evenodd" rx="2" ry="2" style="paint-order:stroke fill markers"/><rect width="40" height="11" x="12" y="12" fill="#884ca1" fill-rule="evenodd" rx="2" ry="2" style="paint-order:stroke fill markers"/><rect width="46" height="11" x="9" y="14" fill="#15bb91" fill-rule="evenodd" rx="2" ry="2" style="paint-order:stroke fill markers"/><path fill="#1ea5f7" d="M10 16c-2.216 0-4 1.784-4 4v30c0 2.216 1.784 4 4 4h44c2.216 0 4-1.784 4-4V20c0-2.216-1.784-4-4-4z"/><path fill="#0a87e2" d="M6.5 18.057A4 4 0 0 0 6 20v30q.002.457.1.883l31.81-16.518z"/><path fill="#1392f5" d="M58 23.934 6.1 50.883A3.99 3.99 0 0 0 10 54h44c2.216 0 4-1.784 4-4z"/><path fill="#c5eafd" d="m25.636 27.998 12.273 6.367-12.273 6.365z"/></svg>