<svg xmlns="http://www.w3.org/2000/svg" width="64" height="64"><rect width="52" height="52" x="6" y="6" fill="#2f598c" fill-rule="evenodd" rx="8" ry="8" style="paint-order:stroke fill markers"/><path fill="#fdd71f" d="M19.607 50.574v-1.238h4.953v2.476h-4.953zm12.382 0v-1.238h4.953v2.476H31.99zM17.131 28.286v-1.238h7.43v1.238l-.008 1.307-3.707-.069H17.13z"/><path fill="#b34719" d="M24.56 48.097V46.86h7.43v2.477h-7.43zm12.382 0V46.86h2.477v2.477h-2.477zm-17.335-2.476v-1.238h-2.476v-2.477h2.476v2.477h2.477v2.476h-2.477zm22.288 0v-1.238h2.476v2.476h-2.476zm2.476-4.953V39.43h2.477v2.476H44.37zm-24.764-9.905v-1.239h2.477v2.477h-2.477zM24.56 18.38v-1.239h2.477v-2.476h7.429v2.476h-4.953l.05 1.22-.028 1.354h-2.477l-2.503-.06z"/><path fill="#69350f" d="M17.131 50.574v-1.238h2.476v-2.477h-2.476v-2.476h-2.476v-2.477h-2.477v-7.429h2.477v-2.476h2.476v-2.477h-2.476v-2.476h2.476v-4.953h2.476V19.62h2.477v-2.477h2.476v-2.476h2.477V12.19h9.905v4.952h-2.476v4.953h2.476v2.477h2.477v-2.477h9.905v2.477h2.477v4.952h-2.477v2.477h2.477v4.953h-2.477v4.952h-2.476v4.953H44.37v2.477h-4.95v2.476h-2.477v-2.476H31.99v-2.477h4.953v2.477h2.477v-2.477h4.952v-4.953h2.477v-4.952h2.476V32h-2.476v-2.477h2.476v-4.952H39.42v2.476h-2.477v2.476h-2.476v-7.429H31.99v7.43h-2.476v-7.43h2.476v-2.407h-2.477l.001-1.307v-1.239h4.953v-2.476h-7.43v2.476H24.56v1.239l.012 1.305-1.245-.022-1.214.01-.03 1.183v1.238h2.477v4.953h-2.476v-4.953h-2.477v4.953h-2.476v2.476h2.476V32h-2.476v2.476h-2.476v7.43h2.476v2.476h2.476v2.476h4.953v2.477h-4.953v2.476h-2.476zm9.906 0v-1.238h2.476v2.476h-2.476zm9.905-12.382v-1.238h-2.476v-2.477h2.476v2.477h4.953v-2.477h2.476v2.477h-2.476v2.476h-4.953z"/><g fill="#fee1af" stroke="#fee1af" stroke-linecap="square"><path stroke-width=".144" d="M44.474 35.65v-3.72h-2.627v2.517H39.33v2.408h-2.298v-2.408h-2.518v-2.408h2.518v-2.517h2.407v-2.407h2.517v-2.517h7.333v2.407h-4.925v2.517h2.408l-.001 1.286c0 .708.009 2.074.021 3.037.012.963.013 2.601.001 3.64l-.021 1.887h-2.299z"/><path stroke-width=".102" d="M24.565 45.593v-1.238h-2.476v-2.4h2.476V39.48h2.399v2.477h2.554v-2.554H27.04v-2.48l-2.515.042-.042 2.438h-2.396v-2.477h-2.476v-2.399h2.476V32.05h2.477v-2.476h2.476V27.02h-2.476v-3.676l.01-3.656 1.19-.02h1.199v2.476h2.476v7.43h2.554v-2.477h2.399v4.876H29.44v2.553h2.477v2.477h2.476v2.476h9.906v2.4h-2.477v2.476H36.87v2.476h-2.4v-2.476h-2.553v2.476h-2.4v-2.476h-2.553v2.476h-2.4z"/><path stroke-width=".036" d="M19.617 40.67v-1.218h2.462v2.435h-2.462z"/></g><path fill="#dca059" stroke="#dca059" stroke-linecap="square" stroke-width=".17" d="M14.678 38.195V34.5h2.462v-2.463h4.87v2.408h-2.462v2.572h2.462v2.408h-2.462v2.462h-4.87zm7.442-7.415v-1.204h2.353v2.407h-2.354zm2.462-2.463v-1.204h2.408v2.408h-2.408zm-4.925-3.749v-2.435h2.408v4.87h-2.408zm2.463-3.693V19.67h1.176l1.208.003v2.408l-1.208-.003h-1.177zm4.924 0V19.67h4.925v2.408h-4.925zm4.981 3.693v-2.435h2.408v4.87h-2.408zm7.442 1.232v-1.204h2.407v2.408h-2.407zm-2.519 2.435v-1.177h2.408v2.353h-2.408zm-2.46 2.517v-1.177h2.462v2.353h-2.462zm-2.518 4.924v-1.23h-2.463v-2.408h4.925v4.87h-2.463zm-7.388 2.545v-1.204h2.408v2.408h-2.408zm-2.462 2.462V39.48h2.353v2.407h-2.354zm4.924 0V39.48h2.408v2.407h-2.408zm-7.387 2.463v-1.204h2.353v2.408h-2.353zm2.463 2.462v-1.204h2.353v2.408h-2.354zm4.924 0v-1.204h2.408v2.408h-2.408zm4.926 0v-1.204h2.407v2.408h-2.408zm4.978 0v-1.204h4.925v2.408h-4.925zm4.925-2.462v-1.204h2.463v2.408h-2.463zm.057-4.951v-1.232h2.462v2.463h-2.463zm-7.442 0v-1.232h2.407v2.463h-2.407zm4.922-2.463v-1.176h2.463v2.353h-2.462zm2.52-2.49v-1.204h2.462v2.408h-2.463zm4.978 2.01c0-.91-.016-2.006-.036-2.435l-.035-.78h2.48v4.87h-2.409zm-.054-5.787c0-.034-.438-.054-1.204-.054h-1.204v-2.299h4.87v2.408h-1.23c-.785 0-1.232-.02-1.232-.055z"/><path fill="#fff" d="m40.316 16.88-.689.236-.31.658-.236-.689-.658-.31.688-.236.311-.658.236.688zm-26.082 8.454-1.183-.121-.912.764.122-1.183-.764-.912 1.183.122.911-.764-.121 1.183zM47.69 45.9l.66-.872-.164-1.082.871.661 1.082-.165-.661.872.165 1.082-.872-.661z"/></svg>