<svg width="64" height="64" version="1.1" viewBox="0 0 16.933 16.933" xmlns="http://www.w3.org/2000/svg">
 <rect x="1.5875" y="1.5875" width="13.758" height="13.758" rx="2.1166" ry="2.1166" fill="#5c9cfa" stroke-width=".92853"/>
 <path d="m8.4723 4.2333c-0.20415-0.0023606-0.3915 0.11275-0.48165 0.29593l-1.0789 2.1878-2.4147 0.35106c-0.43513 0.063234-0.60846 0.59829-0.29306 0.90465l1.7477 1.7018-0.41173 2.4053c-0.073416 0.43231 0.37998 0.76168 0.76842 0.55822l2.1595-1.1362 2.1597 1.1352c0.38936 0.20495 0.84446-0.12638 0.76901-0.55987l-0.41342-2.4036 1.7464-1.7032c0.31459-0.3067 0.14085-0.84099-0.29396-0.904l-2.4149-0.35086-1.0797-2.1873c-0.088374-0.17862-0.26948-0.29257-0.46876-0.29493z" color="#000000" color-rendering="auto" dominant-baseline="auto" fill="#fff" image-rendering="auto" shape-rendering="auto" solid-color="#000000" style="font-feature-settings:normal;font-variant-alternates:normal;font-variant-caps:normal;font-variant-ligatures:normal;font-variant-numeric:normal;font-variant-position:normal;isolation:auto;mix-blend-mode:normal;shape-padding:0;text-decoration-color:#000000;text-decoration-line:none;text-decoration-style:solid;text-indent:0;text-orientation:mixed;text-transform:none;white-space:normal"/>
</svg>
