<svg id="Camada_1" data-name="Camada 1" xmlns="http://www.w3.org/2000/svg" xmlns:xlink="http://www.w3.org/1999/xlink" viewBox="0 0 32 32"><defs><style>.cls-1{fill:none;}.cls-2{fill:#144477;}.cls-3{fill:#122d60;}.cls-4{clip-path:url(#clip-path);}.cls-5{fill:#fff;}</style><clipPath id="clip-path"><path class="cls-1" d="M16.0009,5.4993A10.5007,10.5007,0,1,1,5.5,16,10.5007,10.5007,0,0,1,16.0009,5.4993Z"/></clipPath></defs><path class="cls-2" d="M16,2.5A13.5,13.5,0,1,1,2.5,16,13.5,13.5,0,0,1,16,2.5Z"/><path class="cls-3" d="M16,5.4993A10.5007,10.5007,0,1,1,5.4993,16,10.5007,10.5007,0,0,1,16,5.4993Z"/><g class="cls-4"><path class="cls-5" d="M15.9672,12.7812,17.51,16.0666,21.69,17.2481,15.7255,20.82l-.6537-2.7611-2.6795-.286Z"/><path class="cls-5" d="M20.0275,9a4.4674,4.4674,0,1,0,4.4674,4.4674A4.4674,4.4674,0,0,0,20.0275,9ZM20,10.4674a3,3,0,1,1,0,6h0a3,3,0,1,1,0-6Z"/><path class="cls-5" d="M13.1233,17.1225a3.2491,3.2491,0,1,0,3.249,3.2491A3.2491,3.2491,0,0,0,13.1233,17.1225Zm0,.8123A2.4368,2.4368,0,0,1,15.56,20.3716h0a2.4367,2.4367,0,0,1-2.4368,2.4367h0a2.4366,2.4366,0,0,1-2.4367-2.4367h0a2.4367,2.4367,0,0,1,2.4367-2.4368Z"/><circle class="cls-5" cx="20" cy="13.4674" r="2"/><path class="cls-5" d="M5.0325,14.8619q-.0248.3176-.0317.6361a11.37,11.37,0,0,0,.4426,3.1285l7.0009,3.2205a1.6247,1.6247,0,0,0,1.4343-2.9157q-.0377-.0186-.0763-.0351Z"/></g></svg>