<svg width="64" height="64" version="1.1" viewBox="0 0 16.933 16.933" xmlns="http://www.w3.org/2000/svg">
 <path d="m8.4665 1.3229c3.9454 0 7.1436 3.1982 7.1436 7.1436s-3.1982 7.1436-7.1436 7.1436-7.1436-3.1982-7.1436-7.1436 3.1982-7.1436 7.1436-7.1436z" fill="#393939" stroke-width=".2876"/>
 <path d="m8.467 2.91a5.556 5.556 0 1 1 0 11.113 5.556 5.556 0 0 1 0-11.113z" fill="#fff" opacity=".15"/>
 <g transform="matrix(.26458 0 0 .26458 2.117 2.381)" fill="#fff">
  <path d="M26 18v9.625l3.684.957 4.287-6.742h-3.625L26 18"/>
  <path d="m31 11a6 6 0 0 0-6 6 6 6 0 0 0 6 6 6 6 0 0 0 6-6 6 6 0 0 0-6-6zm0 2a4 4 0 0 1 4 4 4 4 0 0 1-4 4 4 4 0 0 1-4-4 4 4 0 0 1 4-4zm0 2a2 2 0 0 0-2 2 2 2 0 0 0 2 2 2 2 0 0 0 2-2 2 2 0 0 0-2-2zm-16 6a4 4 0 0 0-4 4 4 4 0 0 0 4 4 4 4 0 0 0 4-4 4 4 0 0 0-4-4zm0 1a3 3 0 0 1 3 3 3 3 0 0 1-3 3 3 3 0 0 1-3-3 3 3 0 0 1 3-3z"/>
  <rect transform="matrix(.8931 .44985 -.45815 .88887 0 0)" x="22.784" y="13.579" width="17.423" height="3.964" rx="1.982"/>
  <path d="m27 27a4 4 0 0 0-4 4 4 4 0 0 0 4 4 4 4 0 0 0 4-4 4 4 0 0 0-4-4zm0 1a3 3 0 0 1 3 3 3 3 0 0 1-3 3 3 3 0 0 1-3-3 3 3 0 0 1 3-3z"/>
 </g>
</svg>
