<svg xmlns="http://www.w3.org/2000/svg" width="64" height="64" viewBox="0 0 16.933 16.933"><defs><linearGradient id="a" x1="1" x2="47" gradientUnits="userSpaceOnUse" gradientTransform="rotate(-90 24 24.96) scale(1.04)"><stop stop-color="#333"/><stop offset="1" stop-color="#3d3d3d"/></linearGradient></defs><path d="M24 .08C37.211.08 47.92 10.789 47.92 24c0 13.211-10.709 23.92-23.92 23.92C10.789 47.92.08 37.211.08 24 .08 10.789 10.789.08 24 .08z" fill="url(#a)" transform="matrix(.2876 0 0 .2876 1.564 1.564)"/><path d="M8.467 2.91a5.556 5.556 0 1 1 0 11.113 5.556 5.556 0 0 1 0-11.113z" opacity=".15" fill="#fff"/><g transform="matrix(.26458 0 0 .26458 2.117 2.381)" fill="#fff"><path d="M26 18v9.625l3.684.957 4.287-6.742h-3.625L26 18"/><path d="M31 11a6 6 0 0 0-6 6 6 6 0 0 0 6 6 6 6 0 0 0 6-6 6 6 0 0 0-6-6zm0 2a4 4 0 0 1 4 4 4 4 0 0 1-4 4 4 4 0 0 1-4-4 4 4 0 0 1 4-4zm0 2a2 2 0 0 0-2 2 2 2 0 0 0 2 2 2 2 0 0 0 2-2 2 2 0 0 0-2-2zM15 21a4 4 0 0 0-4 4 4 4 0 0 0 4 4 4 4 0 0 0 4-4 4 4 0 0 0-4-4zm0 1a3 3 0 0 1 3 3 3 3 0 0 1-3 3 3 3 0 0 1-3-3 3 3 0 0 1 3-3z"/><rect transform="matrix(.8931 .44985 -.45815 .88887 0 0)" y="13.579" x="22.784" height="3.964" width="17.423" rx="1.982"/><path d="M27 27a4 4 0 0 0-4 4 4 4 0 0 0 4 4 4 4 0 0 0 4-4 4 4 0 0 0-4-4zm0 1a3 3 0 0 1 3 3 3 3 0 0 1-3 3 3 3 0 0 1-3-3 3 3 0 0 1 3-3z"/></g></svg>