<svg xmlns="http://www.w3.org/2000/svg" width="64" height="64" viewBox="0 0 16.933 16.933"><rect width="5.027" height="1.587" x=".529" y="7.673" fill="#477dc1" fill-rule="evenodd" ry=".794" style="paint-order:stroke fill markers"/><path fill="#477dc1" d="M8.122 4.762A4.762 4.762 0 0 0 6.35 8.467a4.762 4.762 0 0 0 1.772 3.704h5.977a4.762 4.762 0 0 0 1.776-3.704 4.762 4.762 0 0 0-1.776-3.705z" style="paint-order:stroke markers fill"/><path d="M8.386 4.762a4.762 4.762 0 0 0-1.772 3.705 4.762 4.762 0 0 0 1.772 3.704h2.98A5.82 5.82 0 0 0 12.7 8.467a5.82 5.82 0 0 0-1.337-3.705H8.387z" opacity=".1" style="paint-order:stroke markers fill"/><circle cx="6.614" cy="8.466" r="5.292" fill="#5da3ee" style="paint-order:stroke markers fill"/><path fill="#3e74b7" d="M6.614 4.233a4.233 4.233 0 0 0-2.694.972v6.524a4.233 4.233 0 0 0 2.694.97 4.233 4.233 0 0 0 4.233-4.232 4.233 4.233 0 0 0-4.232-4.234z" style="paint-order:stroke markers fill"/><circle cx="6.614" cy="8.466" r="3.704" fill="#3e74b7" style="paint-order:stroke markers fill"/><path fill="#fff" d="M7.82 6.532v.546q-.318-.152-.6-.227t-.546-.075q-.457 0-.706.177-.247.177-.247.504 0 .274.164.416.166.138.626.224l.337.07q.626.118.923.42.299.3.299.803 0 .6-.405.911-.401.31-1.18.31-.293 0-.625-.066-.33-.067-.684-.197v-.576q.34.191.667.288t.643.097q.479 0 .739-.188t.26-.537q0-.305-.188-.477-.186-.171-.612-.257l-.34-.067q-.626-.124-.906-.39t-.28-.74q0-.548.385-.863.388-.316 1.066-.316.291 0 .593.052.302.053.617.158z" aria-label="S"/></svg>