<svg width="64" height="64" version="1.1" viewBox="0 0 16.933 16.933" xmlns="http://www.w3.org/2000/svg">
 <g transform="translate(-.07175 -.1435)">
  <path d="m8.5383 0.93723c-0.40192 0-0.80422 0.14985-1.1047 0.45029l-6.1178 6.1185c-0.30063 0.30062-0.45068 0.70211-0.45029 1.104h15.346c0-0.40183-0.15055-0.80352-0.451-1.104l-6.1171-6.1185c-0.30045-0.30044-0.70275-0.45029-1.1047-0.45029zm7.6728 7.6728c0 0.20092-0.03756 0.40195-0.11275 0.59016 0.07511-0.18824 0.11275-0.38924 0.11275-0.59016zm-0.11275 0.59016c-0.07519 0.18821-0.18803 0.36358-0.33825 0.5138 0.15022-0.15022 0.26314-0.32556 0.33825-0.5138z" fill="#8d49bc" stroke-width=".26458"/>
  <path d="m0.86549 8.61c3.9422e-4 0.40138 0.15072 0.80298 0.451 1.1032l6.1178 6.1185c0.6009 0.60088 1.6077 0.60157 2.2086 7.41e-4l6.1171-6.1185c0.30045-0.30044 0.451-0.70213 0.451-1.104z" fill="#3a497d" stroke-width=".26458"/>
  <path d="m11.184 8.61-3.9687 2.9104v-5.8207z" fill="#fff" stroke-width=".32726"/>
 </g>
</svg>
