<?xml version="1.0" encoding="UTF-8" standalone="no"?>
<svg
   viewBox="26.6 26.6 5.71904 5.720048"
   width="32"
   height="32"
   version="1.1"
   id="svg15"
   sodipodi:docname="sublime-text3.svg"
   inkscape:version="1.2.1 (9c6d41e410, 2022-07-14)"
   xmlns:inkscape="http://www.inkscape.org/namespaces/inkscape"
   xmlns:sodipodi="http://sodipodi.sourceforge.net/DTD/sodipodi-0.dtd"
   xmlns="http://www.w3.org/2000/svg"
   xmlns:svg="http://www.w3.org/2000/svg">
  <defs
     id="defs19">
    <linearGradient
       id="linearGradient14128"
       gradientUnits="userSpaceOnUse"
       x1="136.17799"
       x2="372.681"
       y1="369.638"
       y2="287.81"
       gradientTransform="matrix(0.0108019,0,0,0.01080432,26.312669,26.312605)">
      <stop
         offset=".233"
         stop-color="#f89822"
         id="stop2-3" />
      <stop
         offset="1"
         stop-color="#c27818"
         id="stop4-6" />
    </linearGradient>
  </defs>
  <sodipodi:namedview
     id="namedview17"
     pagecolor="#ffffff"
     bordercolor="#000000"
     borderopacity="0.25"
     inkscape:showpageshadow="2"
     inkscape:pageopacity="0.0"
     inkscape:pagecheckerboard="0"
     inkscape:deskcolor="#d1d1d1"
     showgrid="false"
     inkscape:zoom="5"
     inkscape:cx="92.4"
     inkscape:cy="-0.4"
     inkscape:window-width="1920"
     inkscape:window-height="1017"
     inkscape:window-x="0"
     inkscape:window-y="0"
     inkscape:window-maximized="1"
     inkscape:current-layer="svg15" />
  <linearGradient
     id="a"
     gradientUnits="userSpaceOnUse"
     x1="136.17799"
     x2="372.681"
     y1="369.638"
     y2="287.81"
     gradientTransform="matrix(0.0108019,0,0,0.01080432,26.759044,26.759484)">
    <stop
       offset=".233"
       stop-color="#f89822"
       id="stop2" />
    <stop
       offset="1"
       stop-color="#c27818"
       id="stop4" />
  </linearGradient>
  <path
     d="m 31.685793,31.87317 h -4.452545 c -0.102618,0 -0.186873,-0.08427 -0.186873,-0.186915 v -4.452461 c 0,-0.102641 0.08425,-0.186915 0.186873,-0.186915 h 4.452545 c 0.102618,0 0.186873,0.08427 0.186873,0.186915 v 4.453541 c -0.0011,0.102641 -0.08425,0.185835 -0.186873,0.185835 z"
     fill="#4d4d4e"
     id="path7"
     style="stroke-width:0.0108031" />
  <path
     d="m 28.158971,28.504382 2.525485,-0.801681 c 0,0 0.179312,-0.094 0.136104,0.07995 l 0.0065,0.772509 c 0,0 0.03133,0.113446 -0.124222,0.141537 l -1.02618,0.320888 z"
     fill="#f89820"
     id="path9"
     style="stroke-width:0.0108031" />
  <path
     d="m 28.158971,28.504382 c 0,0 -0.09938,0.02377 -0.07021,0.193397 l -0.0054,0.744418 c 0,0 -0.0086,0.094 0.16959,0.131813 l 2.502801,0.806002 c 0,0 0.08426,0.03349 0.07453,-0.07023 l 0.0011,-0.829772 c 0,0 0.02376,-0.08535 -0.131783,-0.141536 l -1.02296,-0.320889 z"
     fill="#f89820"
     id="path11"
     style="stroke-width:0.0108031" />
  <path
     d="m 29.261845,29.89814 -1.065067,0.32521 c 0,0 -0.128543,0.0043 -0.11342,0.245258 0.01512,0.240936 -0.0011,0.72605 -0.0011,0.72605 0,0 0.0108,0.08968 0.133943,0.03781 l 2.525485,-0.806002 c 0,0 0.08966,-0.02269 0.01404,-0.04754 -0.07561,-0.02377 -1.493904,-0.480792 -1.493904,-0.480792 z"
     fill="url(#a)"
     id="path13"
     style="fill:url(#a);stroke-width:0.0108031" />
</svg>
