<svg xmlns="http://www.w3.org/2000/svg" height="64" width="64"><circle overflow="visible" style="isolation:auto;mix-blend-mode:normal;marker:none" cx="32" cy="32" r="26" color="#000" fill="#21252d"/><circle r="22" cy="32" cx="32" style="isolation:auto;mix-blend-mode:normal;marker:none" overflow="visible" color="#000" opacity=".1" fill="#fff"/><g color="#000" opacity=".5"><path d="M23.545 19.211h5.96v2.546h-5.96z" overflow="visible" display="block" style="isolation:auto;mix-blend-mode:normal;marker:none" fill="#869eb6"/><path d="M29.684 19.5h3.467v2.311h-3.467z" overflow="visible" display="block" style="isolation:auto;mix-blend-mode:normal;marker:none" fill="#8e9f81"/><path d="M23.545 23.454h5.96V26h-5.96z" overflow="visible" display="block" style="isolation:auto;mix-blend-mode:normal;marker:none" fill="#9e9e86"/><path d="M30.334 23.454h3.394V26h-3.394z" overflow="visible" display="block" style="isolation:auto;mix-blend-mode:normal;marker:none" fill="#86b1d6" fill-opacity=".357"/><path d="M34.577 23.454h3.395V26h-3.395z" overflow="visible" display="block" style="isolation:auto;mix-blend-mode:normal;marker:none" fill="#88885e" fill-opacity=".495"/><path d="M23.545 27.697h5.96v2.546h-5.96z" overflow="visible" display="block" style="isolation:auto;mix-blend-mode:normal;marker:none" fill="#987f95"/><path d="M30.334 27.697h4.243v2.546h-4.243z" overflow="visible" display="block" style="isolation:auto;mix-blend-mode:normal;marker:none" fill="#9d875f" fill-opacity=".687"/><path d="M23.545 36.183h5.94v2.546h-5.94z" overflow="visible" display="block" style="isolation:auto;mix-blend-mode:normal;marker:none" fill="#987f95" fill-opacity=".676"/><path d="M30.334 36.183h5.78v2.546h-5.78z" overflow="visible" display="block" style="isolation:auto;mix-blend-mode:normal;marker:none" fill="#68798d" fill-opacity=".764"/><path d="M37.123 36.183h5.94v2.546h-5.94z" overflow="visible" display="block" style="isolation:auto;mix-blend-mode:normal;marker:none" fill="#606d78"/><path d="M43.912 36.183h4.243v2.546h-4.243z" overflow="visible" display="block" style="isolation:auto;mix-blend-mode:normal;marker:none" fill="#8f6094"/><path d="M23.545 40.427h5.96v2.545h-5.96z" overflow="visible" display="block" style="isolation:auto;mix-blend-mode:normal;marker:none" fill="#b36b75"/><path d="M30.334 40.427h3.394v2.26h-3.394z" overflow="visible" display="block" style="isolation:auto;mix-blend-mode:normal;marker:none" fill="#b47f70"/><path d="M23.545 46.367h6.789v2.546h-6.789z" overflow="visible" display="block" style="isolation:auto;mix-blend-mode:normal;marker:none" fill="#53c290"/><path d="M31.183 46.367h4.243v2.546h-4.243z" overflow="visible" display="block" style="isolation:auto;mix-blend-mode:normal;marker:none" fill="#e675d2"/><path d="M34.577 40.427h3.395v2.545h-3.395z" overflow="visible" display="block" style="isolation:auto;mix-blend-mode:normal;marker:none" fill="#5e6974"/><path d="M37.773 42.034h5.2v2.31h-5.2z" overflow="visible" display="block" style="isolation:auto;mix-blend-mode:normal;marker:none" fill="#4d854d"/><path d="M33.728 19.5h5.779v2.311h-5.78z" overflow="visible" display="block" style="isolation:auto;mix-blend-mode:normal;marker:none" fill="#b36b75"/><path d="M40.085 19.5h5.778v2.311h-5.78z" overflow="visible" display="block" style="isolation:auto;mix-blend-mode:normal;marker:none" fill="#8f6094"/><path d="M18.453 19.211H21v2.546h-2.546zm0 4.243H21V26h-2.546zm0 4.243H21v2.546h-2.546zm0 4.243H21v2.546h-2.546zm0 4.243H21v2.546h-2.546zm0 4.244H21v2.545h-2.546zm0 5.94H21v2.546h-2.546z" overflow="visible" display="block" style="isolation:auto;mix-blend-mode:normal;marker:none" fill="#575f70"/><path d="M23.545 14.968h5.94v2.546h-5.94z" overflow="visible" display="block" style="isolation:auto;mix-blend-mode:normal;marker:none" fill="#9176e2"/><path d="M30.334 14.968h3.394v2.546h-3.394z" overflow="visible" display="block" style="isolation:auto;mix-blend-mode:normal;marker:none" fill="#57bdff" fill-opacity=".824"/><path d="M18.453 14.968H21v2.546h-2.546z" overflow="visible" display="block" style="isolation:auto;mix-blend-mode:normal;marker:none" fill="#575f70"/></g><path word-spacing="0" letter-spacing="0" font-size="83.863" font-weight="400" d="M37.992 38.211q0-1.835-1.395-2.837-1.368-1.027-4.817-1.76-3.424-.735-5.453-1.762-2.006-1.026-2.984-2.445-.953-1.418-.953-3.374 0-3.253 2.738-5.503 2.763-2.25 7.044-2.25 4.5 0 7.287 2.323 2.812 2.324 2.812 5.943h-4.548q0-1.859-1.59-3.204-1.565-1.345-3.961-1.345-2.47 0-3.865 1.076-1.393 1.076-1.393 2.813 0 1.638 1.296 2.47 1.295.83 4.67 1.589 3.4.758 5.503 1.81 2.103 1.051 3.106 2.543 1.027 1.467 1.027 3.595 0 3.545-2.837 5.697-2.836 2.13-7.361 2.13-3.18 0-5.625-1.126-2.445-1.125-3.839-3.13-1.37-2.03-1.37-4.377h4.525q.122 2.274 1.81 3.619 1.711 1.32 4.499 1.32 2.568 0 4.109-1.026 1.565-1.053 1.565-2.788z" style="line-height:10;-inkscape-font-specification:Roboto" font-family="Roboto" fill="#fff"/></svg>