<?xml version="1.0" encoding="UTF-8"?>
<svg width="64" height="64" version="1.1" xml:space="preserve" xmlns="http://www.w3.org/2000/svg"><rect x="6" y="6" width="52" height="52" rx="8" ry="8" fill="#333" stroke-width="1.15"/><g transform="matrix(1.1195 0 0 1.1195 -5.2824 -3.756)" opacity=".5"><path d="m23.545 19.238h5.96v2.546h-5.96z" display="block" fill="#869eb6" overflow="visible" style="isolation:auto;mix-blend-mode:normal"/><path d="m30.458 19.356h3.467v2.311h-3.467z" display="block" fill="#8e9f81" overflow="visible" style="isolation:auto;mix-blend-mode:normal"/><path d="m23.545 23.454h5.96v2.546h-5.96z" display="block" fill="#9e9e86" overflow="visible" style="isolation:auto;mix-blend-mode:normal"/><path d="m30.334 23.454h3.394v2.546h-3.394z" display="block" fill="#86b1d6" fill-opacity=".357" overflow="visible" style="isolation:auto;mix-blend-mode:normal"/><path d="m34.577 23.454h3.395v2.546h-3.395z" display="block" fill="#88885e" fill-opacity=".495" overflow="visible" style="isolation:auto;mix-blend-mode:normal"/><path d="m23.545 27.697h5.96v2.546h-5.96z" display="block" fill="#987f95" overflow="visible" style="isolation:auto;mix-blend-mode:normal"/><path d="m30.334 27.697h4.243v2.546h-4.243z" display="block" fill="#9d875f" fill-opacity=".687" overflow="visible" style="isolation:auto;mix-blend-mode:normal"/><path d="m23.545 36.183h5.94v2.546h-5.94z" display="block" fill="#987f95" fill-opacity=".676" overflow="visible" style="isolation:auto;mix-blend-mode:normal"/><path d="m30.334 36.183h5.78v2.546h-5.78z" display="block" fill="#68798d" fill-opacity=".764" overflow="visible" style="isolation:auto;mix-blend-mode:normal"/><path d="m37.123 36.183h5.94v2.546h-5.94z" display="block" fill="#606d78" overflow="visible" style="isolation:auto;mix-blend-mode:normal"/><path d="m43.912 36.183h4.243v2.546h-4.243z" display="block" fill="#8f6094" overflow="visible" style="isolation:auto;mix-blend-mode:normal"/><path d="m23.545 40.427h5.96v2.545h-5.96z" display="block" fill="#b36b75" overflow="visible" style="isolation:auto;mix-blend-mode:normal"/><path d="m30.334 40.427h3.394v2.26h-3.394z" display="block" fill="#b47f70" overflow="visible" style="isolation:auto;mix-blend-mode:normal"/><path d="m23.545 46.367h6.789v2.546h-6.789z" display="block" fill="#53c290" overflow="visible" style="isolation:auto;mix-blend-mode:normal"/><path d="m31.183 46.367h4.243v2.546h-4.243z" display="block" fill="#e675d2" overflow="visible" style="isolation:auto;mix-blend-mode:normal"/><path d="m34.577 40.427h3.395v2.545h-3.395z" display="block" fill="#5e6974" overflow="visible" style="isolation:auto;mix-blend-mode:normal"/><path d="m38.821 40.544h5.2v2.31h-5.2z" display="block" fill="#4d854d" overflow="visible" style="isolation:auto;mix-blend-mode:normal"/><path d="m34.578 19.356h5.779v2.311h-5.78z" display="block" fill="#b36b75" overflow="visible" style="isolation:auto;mix-blend-mode:normal"/><path d="m40.085 19.5h5.778v2.311h-5.78z" display="block" fill="#8f6094" overflow="visible" style="isolation:auto;mix-blend-mode:normal"/><path d="m18.453 19.211h2.547v2.546h-2.546zm0 4.243h2.547v2.546h-2.546zm0 4.243h2.547v2.546h-2.546zm0 4.243h2.547v2.546h-2.546zm0 4.243h2.547v2.546h-2.546zm0 4.244h2.547v2.545h-2.546zm0 5.94h2.547v2.546h-2.546z" display="block" fill="#575f70" overflow="visible" style="isolation:auto;mix-blend-mode:normal"/><path d="m23.545 14.968h5.94v2.546h-5.94z" display="block" fill="#9176e2" overflow="visible" style="isolation:auto;mix-blend-mode:normal"/><path d="m30.334 14.968h3.394v2.546h-3.394z" display="block" fill="#57bdff" fill-opacity=".824" overflow="visible" style="isolation:auto;mix-blend-mode:normal"/><path d="m18.453 14.968h2.547v2.546h-2.546z" display="block" fill="#575f70" overflow="visible" style="isolation:auto;mix-blend-mode:normal"/></g><g transform="matrix(1.2 0 0 1.2 -4.9825 -8.0724)"><path d="m40.333 33.018c0-0.30471-0.225-0.48042-0.50111-0.39312l-18.995 6.0286c-0.27667 0.08785-0.50111 0.40646-0.50111 0.71062v6.1615c0 0.30471 0.22444 0.48097 0.50111 0.39312l18.995-6.028c0.27611-0.08785 0.50111-0.40646 0.50111-0.71118z" fill="#d17500"/><path d="m20.336 32.821c0 0.30471 0.22444 0.62332 0.50111 0.71118l18.998 6.0291c0.27667 0.08785 0.50111-0.08841 0.50111-0.39256v-6.162c0-0.30415-0.22444-0.62276-0.50111-0.71062l-18.998-6.0291c-0.27667-0.08785-0.50111 0.08786-0.50111 0.39256z" fill="#e58500"/><path d="m40.333 20.357c0-0.30471-0.225-0.48097-0.50111-0.39312l-18.995 6.028c-0.27667 0.08785-0.50111 0.40646-0.50111 0.71118v6.1615c0 0.30471 0.22444 0.48042 0.50111 0.39312l18.995-6.0286c0.27611-0.08785 0.50111-0.40646 0.50111-0.71062z" fill="#ff9c0a"/></g></svg>
