<svg xmlns="http://www.w3.org/2000/svg" xml:space="preserve" width="64" height="64"><rect width="52" height="52" x="6" y="6" fill="#333" rx="8" ry="8"/><g opacity=".5"><path fill="#869eb6" d="M23.545 19.238h5.96v2.546h-5.96z" display="block" overflow="visible" style="isolation:auto;mix-blend-mode:normal" transform="translate(-5.282 -3.756) scale(1.1195)"/><path fill="#8e9f81" d="M30.458 19.356h3.467v2.311h-3.467z" display="block" overflow="visible" style="isolation:auto;mix-blend-mode:normal" transform="translate(-5.282 -3.756) scale(1.1195)"/><path fill="#9e9e86" d="M23.545 23.454h5.96V26h-5.96z" display="block" overflow="visible" style="isolation:auto;mix-blend-mode:normal" transform="translate(-5.282 -3.756) scale(1.1195)"/><path fill="#86b1d6" fill-opacity=".357" d="M30.334 23.454h3.394V26h-3.394z" display="block" overflow="visible" style="isolation:auto;mix-blend-mode:normal" transform="translate(-5.282 -3.756) scale(1.1195)"/><path fill="#88885e" fill-opacity=".495" d="M34.577 23.454h3.395V26h-3.395z" display="block" overflow="visible" style="isolation:auto;mix-blend-mode:normal" transform="translate(-5.282 -3.756) scale(1.1195)"/><path fill="#987f95" d="M23.545 27.697h5.96v2.546h-5.96z" display="block" overflow="visible" style="isolation:auto;mix-blend-mode:normal" transform="translate(-5.282 -3.756) scale(1.1195)"/><path fill="#9d875f" fill-opacity=".687" d="M30.334 27.697h4.243v2.546h-4.243z" display="block" overflow="visible" style="isolation:auto;mix-blend-mode:normal" transform="translate(-5.282 -3.756) scale(1.1195)"/><path fill="#987f95" fill-opacity=".676" d="M23.545 36.183h5.94v2.546h-5.94z" display="block" overflow="visible" style="isolation:auto;mix-blend-mode:normal" transform="translate(-5.282 -3.756) scale(1.1195)"/><path fill="#68798d" fill-opacity=".764" d="M30.334 36.183h5.78v2.546h-5.78z" display="block" overflow="visible" style="isolation:auto;mix-blend-mode:normal" transform="translate(-5.282 -3.756) scale(1.1195)"/><path fill="#606d78" d="M37.123 36.183h5.94v2.546h-5.94z" display="block" overflow="visible" style="isolation:auto;mix-blend-mode:normal" transform="translate(-5.282 -3.756) scale(1.1195)"/><path fill="#8f6094" d="M43.912 36.183h4.243v2.546h-4.243z" display="block" overflow="visible" style="isolation:auto;mix-blend-mode:normal" transform="translate(-5.282 -3.756) scale(1.1195)"/><path fill="#b36b75" d="M23.545 40.427h5.96v2.545h-5.96z" display="block" overflow="visible" style="isolation:auto;mix-blend-mode:normal" transform="translate(-5.282 -3.756) scale(1.1195)"/><path fill="#b47f70" d="M30.334 40.427h3.394v2.26h-3.394z" display="block" overflow="visible" style="isolation:auto;mix-blend-mode:normal" transform="translate(-5.282 -3.756) scale(1.1195)"/><path fill="#53c290" d="M23.545 46.367h6.789v2.546h-6.789z" display="block" overflow="visible" style="isolation:auto;mix-blend-mode:normal" transform="translate(-5.282 -3.756) scale(1.1195)"/><path fill="#e675d2" d="M31.183 46.367h4.243v2.546h-4.243z" display="block" overflow="visible" style="isolation:auto;mix-blend-mode:normal" transform="translate(-5.282 -3.756) scale(1.1195)"/><path fill="#5e6974" d="M34.577 40.427h3.395v2.545h-3.395z" display="block" overflow="visible" style="isolation:auto;mix-blend-mode:normal" transform="translate(-5.282 -3.756) scale(1.1195)"/><path fill="#4d854d" d="M38.821 40.544h5.2v2.31h-5.2z" display="block" overflow="visible" style="isolation:auto;mix-blend-mode:normal" transform="translate(-5.282 -3.756) scale(1.1195)"/><path fill="#b36b75" d="M34.578 19.356h5.779v2.311h-5.78z" display="block" overflow="visible" style="isolation:auto;mix-blend-mode:normal" transform="translate(-5.282 -3.756) scale(1.1195)"/><path fill="#8f6094" d="M40.085 19.5h5.778v2.311h-5.78z" display="block" overflow="visible" style="isolation:auto;mix-blend-mode:normal" transform="translate(-5.282 -3.756) scale(1.1195)"/><path fill="#575f70" d="M18.453 19.211H21v2.546h-2.546zm0 4.243H21V26h-2.546zm0 4.243H21v2.546h-2.546zm0 4.243H21v2.546h-2.546zm0 4.243H21v2.546h-2.546zm0 4.244H21v2.545h-2.546zm0 5.94H21v2.546h-2.546z" display="block" overflow="visible" style="isolation:auto;mix-blend-mode:normal" transform="translate(-5.282 -3.756) scale(1.1195)"/><path fill="#9176e2" d="M23.545 14.968h5.94v2.546h-5.94z" display="block" overflow="visible" style="isolation:auto;mix-blend-mode:normal" transform="translate(-5.282 -3.756) scale(1.1195)"/><path fill="#57bdff" fill-opacity=".824" d="M30.334 14.968h3.394v2.546h-3.394z" display="block" overflow="visible" style="isolation:auto;mix-blend-mode:normal" transform="translate(-5.282 -3.756) scale(1.1195)"/><path fill="#575f70" d="M18.453 14.968H21v2.546h-2.546z" display="block" overflow="visible" style="isolation:auto;mix-blend-mode:normal" transform="translate(-5.282 -3.756) scale(1.1195)"/></g><path fill="#d17500" d="M43.417 31.55c0-.366-.27-.577-.601-.473l-22.794 7.235c-.332.105-.602.488-.602.853v7.393c0 .366.27.577.602.472l22.794-7.234c.331-.105.601-.487.601-.853z"/><path fill="#e58500" d="M19.42 31.313c0 .365.27.748.602.853l22.798 7.235c.332.106.601-.106.601-.47v-7.395c0-.365-.27-.748-.601-.853l-22.798-7.235c-.332-.105-.601.105-.601.471z"/><path fill="#ff9c0a" d="M43.417 16.356c0-.366-.27-.577-.601-.472l-22.794 7.234c-.332.105-.602.488-.602.853v7.394c0 .366.27.577.602.472l22.794-7.235c.331-.105.601-.487.601-.852z"/></svg>