<svg xmlns="http://www.w3.org/2000/svg" width="64" height="64"><defs><style id="current-color-scheme" type="text/css">.ColorScheme-Text{color:#f2f2f2}</style></defs><g stroke-width="1.038" transform="translate(2.148 .222) scale(.96296)"><rect width="54" height="54" x="4" y="6" fill="#0c96df" stroke-linejoin="round" stroke-width=".519" color="#000" rx="1.35" ry="1.35" style="isolation:auto;mix-blend-mode:normal"/><path stroke-linejoin="round" stroke-width=".519" d="M5.35 6C4.602 6 4 6.602 4 7.35v51.3c0 .748.602 1.35 1.35 1.35h6.75V49.2h37.8V60h6.75c.748 0 1.35-.602 1.35-1.35V7.35C58 6.602 57.398 6 56.65 6H55.3v2.7h-2.7V6h-2.7v10.8H12.1V6H9.4v2.7H6.7V6zm1.35 5.4h2.7v2.7H6.7zm45.9 0h2.7v2.7h-2.7zM6.7 16.8h2.7v2.7H6.7zm45.9 0h2.7v2.7h-2.7zM6.7 22.2h2.7v2.7H6.7zm5.4-2.7h37.8v27H12.1V22.2zm40.5 2.7h2.7v2.7h-2.7zM6.7 27.6h2.7v2.7H6.7zm45.9 0h2.7v2.7h-2.7zM6.7 33h2.7v2.7H6.7zm45.9 0h2.7v2.7h-2.7zM6.7 38.4h2.7v2.7H6.7zm45.9 0h2.7v2.7h-2.7zM6.7 43.8h2.7v2.7H6.7zm45.9 0h2.7v2.7h-2.7zM6.7 49.2h2.7v2.7H6.7zm45.9 0h2.7v2.7h-2.7zM6.7 54.6h2.7v2.7H6.7zm45.9 0h2.7v2.7h-2.7z" opacity=".5"/><path fill="#fff" fill-rule="evenodd" d="M36.4 19.5 20.211 35.689h-.005v5.413h5.413v-.005l16.19-16.189-.004-.003.003-.002-5.4-5.4-.003.002zm-2.697 4.606 3.496 3.497-10.244 10.244V35.7h-2.7v-2.146zM22.906 34.903v2.147h2.7v2.146l-.554.554h-2.146l-1.35-1.35v-2.147zm6.75 4.847-1.35 1.35h13.5v-1.35z" color="#000" style="isolation:auto;mix-blend-mode:normal"/><rect width="16.2" height="1.35" x="22.9" y="42.45" fill="#fff" fill-rule="evenodd" stroke-width="1.078" color="#000" rx="0" ry="1.35" style="isolation:auto;mix-blend-mode:normal"/></g></svg>