<svg width="64" height="64" version="1.1" xmlns="http://www.w3.org/2000/svg">
 <defs>
  <linearGradient id="b" x1="399.57" x2="399.57" y1="545.8" y2="517.8" gradientTransform="matrix(2.1429,0,0,2.1429,-826.36,-1107.5)" gradientUnits="userSpaceOnUse">
   <stop stop-color="#3889e9" offset="0"/>
   <stop stop-color="#5ea5fb" offset="1"/>
  </linearGradient>
 </defs>
 <rect x="6" y="6" width="52" height="52" rx="8" ry="8" fill="#1897ec" stroke-width="3.5095"/>
 <circle cx="32.02" cy="32.044" r="30.001" fill-opacity="0" stroke-width="1.5715"/>
 <circle cx="32.02" cy="32.044" r="0" fill="url(#b)" stroke-width="1.5715"/>
 <path d="m35.692 16-3.6923 7.3846h-8.6154l-1.2308 3.6923h18.462l1.2308-3.6923h-6.1538l3.0769-6.1538c0.62038-1.2407-1.5849-1.2308-3.0769-1.2308zm-13.538 12.308c-1.7489 5.0139-3.6923 8.6154-3.6923 14.769 0 2.4615 1.2308 4.9231 3.6923 4.9231h13.538c-0.57007-3.2391-0.93874-5.3383-1.2308-8.6154 1.1691 3.3089 1.686 5.2447 3.6923 8.6154h3.6923c1.883 0 3.723-2.0891 3.6923-4.9231-0.01311-1.2111-0.12283-2.5018-2.8822-5.0409-2.0098-1.8462-3.2716-3.9551-3.2716-6.0361 0-1.553 0.19692-2.5957 0.61538-3.6923h-2.4615c-0.92044 0-1.8462 0.27658-1.8462 1.2308 0 2.9575 0.08615 6.1108 2.4615 8.6154-3.1564-2.8167-3.6923-3.6923-3.6923-9.8462z" fill="#ffffff" stroke-width="1.2308"/>
</svg>
