<svg xmlns="http://www.w3.org/2000/svg" width="64" height="64" viewBox="0 0 16.933 16.933"><g stroke-width=".962" transform="translate(-.339 -291.61)scale(1.04)"><rect width="13.229" height="13.229" x="1.852" y="281.92" fill="#4d4d4d" paint-order="markers stroke fill" rx="2.035" ry="2.035"/><path fill="#1f8fd7" d="M8.467 281.917v6.614h6.614v-4.58a2.03 2.03 0 0 0-2.035-2.034h-4.58zm-6.615 6.615v4.579a2.03 2.03 0 0 0 2.035 2.035h4.58v-6.614z"/><path fill="#fff" d="m5.16 283.29.55 1.173 1.23.188-.89.912.21 1.29-1.1-.61-1.101.61.21-1.29-.89-.912 1.23-.188z"/><circle cx="11.774" cy="285.23" r="1.526" fill="#fff"/><path fill="#fff" d="M10.248 290.31h3.053v3.053h-3.053z"/><circle cx="5.159" cy="291.84" r="1.526" fill="#fff"/></g></svg>