<svg width="64" height="64" version="1.1" viewBox="0 0 16.933 16.933" xmlns="http://www.w3.org/2000/svg" xmlns:xlink="http://www.w3.org/1999/xlink">
 <g transform="matrix(1.04 0 0 1.04 -.339 -291.61)" stroke-width=".962">
  <rect x="1.852" y="281.92" width="13.229" height="13.229" rx="2.0349" ry="2.0349" fill="#4d4d4d" paint-order="markers stroke fill"/>
  <path transform="matrix(.2544 0 0 .2544 .32596 280.39)" d="m32 6.002v25.998h25.998v-18c0-4.4314-3.5667-7.998-7.998-7.998h-18zm-26.002 26.002v17.998c0 4.4314 3.5686 8 8 8h18.002v-25.998h-26.002z" fill="#1f8fd7" stroke-width="3.7814"/>
  <path d="M5.16 283.29l.55 1.173 1.23.188-.89.912.21 1.29-1.1-.61-1.101.61.21-1.29-.89-.912 1.23-.188z" fill="#fff"/>
  <circle cx="11.774" cy="285.23" r="1.526" fill="#fff"/>
  <path d="m10.248 290.31h3.053v3.053h-3.053z" fill="#fff"/>
  <circle cx="5.159" cy="291.84" r="1.526" fill="#fff"/>
 </g>
</svg>
