<svg xmlns="http://www.w3.org/2000/svg" xmlns:xlink="http://www.w3.org/1999/xlink" width="64" height="64" viewBox="0 0 16.933 16.933"><defs><linearGradient id="a"><stop offset="0"/><stop offset="1" stop-opacity="0"/></linearGradient><linearGradient gradientTransform="matrix(.26458 0 0 .26458 0 280.067)" xlink:href="#a" id="b" x1="46.168" y1="57" x2="46.168" y2="27.346" gradientUnits="userSpaceOnUse"/></defs><g transform="matrix(1.04 0 0 1.04 -.339 -291.608)" stroke-width=".962"><rect ry=".794" rx=".794" y="281.919" x="1.852" height="13.229" width="13.229" fill="#4d4d4d" paint-order="markers stroke fill"/><path d="M15.081 287.302a11.906 11.906 0 0 1-5.732 7.846h4.938c.44 0 .794-.354.794-.794z" opacity=".25" fill="url(#b)" paint-order="markers stroke fill"/><path d="M14.287 281.919c.44 0 .794.354.794.794v5.82H8.467v-6.614zM2.646 295.148a.792.792 0 0 1-.794-.794v-5.82h6.615v6.614z" fill="#1f8fd7" paint-order="markers stroke fill"/><path d="M5.16 283.29l.55 1.173 1.23.188-.89.912.21 1.29-1.1-.61-1.101.61.21-1.29-.89-.912 1.23-.188z" fill="#fff"/><circle r="1.526" cx="11.774" cy="285.226" fill="#fff"/><path fill="#fff" d="M10.248 290.314h3.053v3.053h-3.053z"/><circle cy="291.841" cx="5.159" r="1.526" fill="#fff"/></g></svg>