<svg width="64" height="64" version="1" xmlns="http://www.w3.org/2000/svg">
 <circle cx="32" cy="32" r="27" fill="#1ca4d4" stroke-width=".96429"/>
 <path d="m32 12c-11.046 0-20 8.955-20 20 0 11.046 8.954 20 20 20 11.045 0 20-8.954 20-20-9e-3 -2.33-0.426-4.641-1.231-6.827l0.042-0.032-0.104-0.148c-2.92-7.806-10.374-12.983-18.707-12.993zm0 2c6.723 3e-3 12.884 3.753 15.975 9.723l-12.479 8.917-21.292 1.934c-0.13-0.852-0.198-1.712-0.204-2.574 0-9.941 8.059-18 18-18zm17.077 12.379c0.604 1.813 0.916 3.71 0.923 5.621-5e-3 4.74-1.879 9.286-5.215 12.652l-6.867-10.3zm-13.781 9.089 7.347 11.02c-3.083 2.274-6.812 3.504-10.643 3.512-7.88-9e-3 -14.838-5.142-17.172-12.668l20.468-1.864z" fill="#fff"/>
 <circle cx="14" cy="36" r="4" fill="#fff"/>
 <circle cx="44" cy="46" r="4" fill="#fff"/>
 <circle cx="50" cy="24" r="4" fill="#fff"/>
 <circle cx="36" cy="34" r="4" fill="#fff"/>
</svg>
