<svg width="64" height="64" version="1.1" viewBox="0 0 64 64" xmlns="http://www.w3.org/2000/svg">
 <g transform="matrix(1.1739 0 0 1.1739 3.8261 3.8261)">
  <path d="m24 1c12.703 0 23 10.297 23 23s-10.297 23-23 23-23-10.297-23-23 10.297-23 23-23z" fill="#ececec"/>
  <g>
   <path d="m24 9c-8.219 0-15 6.703-15 15h3.969c0-6.02 4.863-10.906 11.03-10.906" fill="#4578c8"/>
   <path d="m24 9v4.094c6.168 0 11.03 4.887 11.03 10.906h3.969c0-8.297-6.781-15-15-15" fill="#116f4d"/>
   <path d="m35.03 24c0 6.02-4.863 10.906-11.03 10.906v4.09c8.215 0 14.996-6.703 14.996-14.996" fill="#007895"/>
   <path d="m9 24c0 8.297 6.781 15 15 15v-4.094c-6.168 0-11.03-4.887-11.03-10.906" fill="#70aa12"/>
  </g>
 </g>
</svg>
