<svg width="64" height="64" version="1.1" viewBox="0 0 16.933 16.933" xmlns="http://www.w3.org/2000/svg">
 <path d="m8.466 1.323a7.143 7.143 0 1 1 0 14.287 7.143 7.143 0 0 1 0-14.287z" fill="#63a437"/>
 <path d="m8.4665 4.2333a4.2332 4.2332 0 0 0-4.2333 4.2332 4.2332 4.2332 0 0 0 4.2333 4.2333 4.2332 4.2332 0 0 0 4.2332-4.2333 4.2332 4.2332 0 0 0-4.2332-4.2332zm0 1.0583a3.1749 3.1749 0 0 1 3.1749 3.1749 3.1749 3.1749 0 0 1-3.1749 3.1749 3.1749 3.1749 0 0 1-3.1749-3.1749 3.1749 3.1749 0 0 1 3.1749-3.1749z" fill="#ffffff"/>
 <path d="m8.0228 6.2217-0.74828 0.74828 1.4965 1.4965-1.4965 1.4965 0.74828 0.74828 2.2448-2.2448-0.74828-0.74828z" fill="#ffffff"/>
</svg>
