<svg width="64" height="64" version="1.1" viewBox="0 0 16.933 16.933" xmlns="http://www.w3.org/2000/svg">
 <rect x="2.117" y="1.587" width="12.7" height="13.758" rx="1.587" ry="1.587" fill="#549bff"/>
 <path d="m8.467 1.587-4.78.001c-.871.01-1.57.713-1.57 1.587v4.211a9.26 9.63 0 0 0 8.466 5.758 9.26 9.63 0 0 0 4.234-1.068V3.175c0-.88-.708-1.587-1.588-1.587H8.467z" fill="#00f" opacity=".1" style="paint-order:stroke markers fill"/>
 <path d="m8.467 1.587-4.78.001c-.871.01-1.57.713-1.57 1.587v10.583c0 .88.708 1.588 1.587 1.588h4.853a10.583 11.007 0 0 0 6.26-5.69V3.175c0-.88-.708-1.588-1.588-1.588H8.467z" fill="#00f" opacity=".1" style="paint-order:stroke markers fill"/>
 <path d="m5.292 3.969c0 1.7535 1.4215 3.175 3.175 3.175 1.7535 0 3.175-1.4215 3.175-3.175h-0.794c0 1.315-1.066 2.381-2.381 2.381-1.3154 5.524e-4 -2.382-1.0656-2.382-2.381z" fill="#ffffff"/>
 <path d="m7.673 8.731v2.646h-1.323l2.117 2.116 2.116-2.116h-1.323v-2.646h-1.587z" fill="#ffffff"/>
</svg>
