<svg xmlns="http://www.w3.org/2000/svg" width="64" height="64" viewBox="0 0 16.933 16.933"><path fill="#63a437" d="M8.466 1.323a7.143 7.143 0 1 1 0 14.287 7.143 7.143 0 0 1 0-14.287"/><path fill="#fff" d="M8.467 4.233a4.233 4.233 0 0 0-4.234 4.234A4.233 4.233 0 0 0 8.467 12.7 4.233 4.233 0 0 0 12.7 8.467a4.233 4.233 0 0 0-4.233-4.234m0 1.059a3.175 3.175 0 0 1 3.174 3.175 3.175 3.175 0 0 1-3.174 3.174 3.175 3.175 0 0 1-3.175-3.174 3.175 3.175 0 0 1 3.175-3.175"/><path fill="#fff" d="m8.023 6.222-.748.748L8.77 8.466 7.275 9.963l.748.748 2.245-2.245-.749-.748z"/></svg>