<svg xmlns="http://www.w3.org/2000/svg" width="64" height="64" viewBox="0 0 16.933 16.933"><g transform="translate(0 -280.067)"><rect width="12.7" height="13.229" x="2.117" y="281.919" ry=".529" fill="#549bff" paint-order="stroke markers fill"/><path d="M2.646 281.919a.528.528 0 0 0-.53.529v5.045a9.26 9.26 0 0 0 8.467 5.538 9.26 9.26 0 0 0 4.234-1.027v-9.556a.528.528 0 0 0-.53-.53H2.646z" opacity=".1" fill="#00f" paint-order="stroke markers fill"/><path d="M2.646 281.919a.528.528 0 0 0-.53.529v12.17c0 .294.237.53.53.53h5.909a10.583 10.583 0 0 0 6.262-5.472v-7.228a.528.528 0 0 0-.53-.53H2.646z" opacity=".1" fill="#00f" paint-order="stroke markers fill"/><path d="M5.292 284.035a3.175 3.175 0 0 0 3.175 3.175 3.175 3.175 0 0 0 3.175-3.175h-.794a2.381 2.381 0 0 1-2.381 2.382 2.381 2.381 0 0 1-2.382-2.382h-.793z" fill="#fff" paint-order="stroke markers fill"/><path d="M7.408 288.798h2.117l-.265 2.646h1.323l-2.116 1.852-2.117-1.852h1.323" fill="#fff"/></g></svg>