<svg xmlns="http://www.w3.org/2000/svg" width="64" height="64" viewBox="0 0 16.933 16.933"><defs><linearGradient id="a" x1="1" x2="47" gradientUnits="userSpaceOnUse" gradientTransform="rotate(-90 24 24)"><stop stop-color="#5e9c34"/><stop offset="1" stop-color="#68ac39"/></linearGradient></defs><path d="M24 1c12.703 0 23 10.297 23 23S36.703 47 24 47 1 36.703 1 24 11.297 1 24 1z" fill="url(#a)" transform="matrix(.2991 0 0 .2991 1.288 1.288)"/><g fill="#fff" stroke-width=".938"><path d="M4.233 7.902v1.13h4.234v-1.13m-4.234 0"/><path d="M4.375 9.596A4.248 4.248 0 0 0 8.458 12.7c2.323 0 4.242-1.895 4.242-4.233 0-2.339-1.92-4.234-4.242-4.234a4.248 4.248 0 0 0-4.083 3.105h1.093a3.225 3.225 0 0 1 2.99-2.046c1.782 0 3.21 1.422 3.21 3.175 0 1.75-1.429 3.175-3.21 3.175a3.2 3.2 0 0 1-3.007-2.046m-1.076 0"/></g></svg>