<svg width="64" height="64" version="1.1" viewBox="0 0 16.933 16.933" xmlns="http://www.w3.org/2000/svg">
 <path d="m8.4665 1.3229c3.9454 0 7.1436 3.1982 7.1436 7.1436 0 3.9454-3.1982 7.1436-7.1436 7.1436-3.9454 0-7.1436-3.1982-7.1436-7.1436 0-3.9454 3.1982-7.1436 7.1436-7.1436z" fill="#63a437" stroke-width=".2991"/>
 <g fill="#fff" stroke-width=".938">
  <path d="m4.233 7.902v1.13h4.234v-1.13"/>
  <path d="m4.375 9.596a4.248 4.248 0 0 0 4.083 3.104c2.323 0 4.242-1.895 4.242-4.233 0-2.339-1.92-4.234-4.242-4.234a4.248 4.248 0 0 0-4.083 3.105h1.093a3.225 3.225 0 0 1 2.99-2.046c1.782 0 3.21 1.422 3.21 3.175 0 1.75-1.429 3.175-3.21 3.175a3.2 3.2 0 0 1-3.007-2.046"/>
 </g>
</svg>
