<svg xmlns="http://www.w3.org/2000/svg" width="64" height="64" viewBox="0 0 16.933 16.933"><rect width="13.758" height="13.758" x="1.587" y="1.587" fill="#000d15" fill-rule="evenodd" rx="2.117" ry="2.117" style="paint-order:stroke fill markers"/><g fill="#7bc6d5"><rect width="4.233" height=".529" x="5.821" y="9.525" ry=".265" style="paint-order:stroke markers fill"/><path d="M4.502 4.725a.26.26 0 0 0-.262.13.264.264 0 0 0 .097.362l2.842 1.64-2.842 1.641a.264.264 0 0 0-.097.362c.074.127.235.17.362.097l3.207-1.852a.26.26 0 0 0 .127-.225l.002-.022-.002-.023a.26.26 0 0 0-.127-.224L4.602 4.758a.3.3 0 0 0-.1-.033" style="paint-order:stroke markers fill"/></g></svg>