<svg width="64" height="64" version="1.1" xmlns="http://www.w3.org/2000/svg">
 <g transform="matrix(1.0833 0 0 1.0833 .58335 .58465)" stroke-width="1.304">
  <path d="m8.69 5a3.68 3.68 0 0 0-2.612 1.079l28.92 44.92 16.92-44.92a3.68 3.68 0 0 0-2.613-1.08z" fill="#33d17a"/>
  <path d="m6.08 6.08a3.68 3.68 0 0 0-1.08 2.615v40.615a3.68 3.68 0 0 0 1.08 2.614l44.92-2.921-22-20z" fill="#5799e9"/>
  <path d="m51.919 6.08-10.921 10.923 4 8 8 4v-20.31a3.68 3.68 0 0 0-1.079-2.613z" fill="#837f8a"/>
  <path transform="matrix(1.5334,0,0,1.5334,-20.068,-20.067)" d="m31.999 31.999 7.826-7.826 7.825 7.827-6.522 11.739z" fill="#f8db51" style="paint-order:normal"/>
  <path d="m52.999 29-24.001 24.001h20.308a3.684 3.684 0 0 0 3.694-3.692z" fill="#b78860"/>
  <path d="m41 41h-24.001l12-12z" fill="#ff9536"/>
  <path d="m16.999 41-10.921 10.923a3.68 3.68 0 0 0 2.612 1.077h20.31l12-12z" fill="#f65960"/>
 </g>
</svg>
