<svg xmlns="http://www.w3.org/2000/svg" width="64" height="64"><g stroke-width="1.304"><path fill="#33d17a" d="m50 6-36.035.002a7.97 7.97 0 0 0-5.87 2.605l30.402 47.225 17.677-46.93A7.98 7.98 0 0 0 50.004 6z"/><path fill="#5799e9" d="M8.338 8.34A7.97 7.97 0 0 0 6 14v36a7.98 7.98 0 0 0 3.588 6.678l46.244-3.008L32 32.004 8.338 8.341z"/><path fill="#837f8a" d="M55.662 8.338 44.996 19.004l4.333 8.666 8.666 4.334V13.92a7.97 7.97 0 0 0-2.334-5.583z"/><path fill="#f8db51" d="m31.999 31.999 7.826-7.826L47.65 32l-6.522 11.739z" style="paint-order:normal" transform="translate(-21.156 -21.154)scale(1.6611)"/><path fill="#b78860" d="M57.998 32 31.996 58H50a7.98 7.98 0 0 0 7.998-7.96z"/><path fill="#ff9536" d="M44.999 45h-26l12.999-13z"/><path fill="#f65960" d="M18.998 45 8.338 55.662A7.98 7.98 0 0 0 14 58h18l13-13H19z"/></g></svg>