<svg width="64" height="64" version="1.1" xmlns="http://www.w3.org/2000/svg" xmlns:xlink="http://www.w3.org/1999/xlink">
 <g transform="matrix(1.35 0 0 1.35 -.4 -22)">
  <rect x="4" y="20" width="40" height="40" rx="20" fill="#3384ba" stroke-opacity=".55027" stroke-width="2.0741"/>
  <path d="m24 27c-7.1868 0-13 5.8139-13 13 0 7.186 5.8132 13 13 13 7.1868 0 13-5.814 13-13 0-7.1861-5.8132-13-13-13zm-3 9v2h6v-2l3.5723 2 3.4277 2-3.4277 2-3.5723 2v-2h-6v2l-3.5723-2-3.4277-2 3.4277-2z" fill="#ebf3fc" stroke-width=".74074"/>
 </g>
</svg>
