<svg width="64" height="64" version="1.1" xmlns="http://www.w3.org/2000/svg">
 <rect x="6" y="6" width="52" height="52" rx="8" ry="8" fill="#f2f2f2" paint-order="markers stroke fill"/>
 <g transform="matrix(.61538 0 0 .61538 12.308 12.308)">
  <path d="m55.2 54.491c-5e-3 4.109-1.0214 5.4792-13.941 5.4792-3.6728 0-8.1437 0.32254-10.497-1.1536-2.2225-1.3938-1.4209-3.4393-1.4209-5.5211 0-4.2864 4.1997-7.2955 11.34-7.2955 7.1408 0 14.524 4.2 14.519 8.491z" fill="#d48003"/>
  <path d="m32 4a26 26 0 0 0-26 26 26 26 0 0 0 26 26 26 26 0 0 0 26-26 26 26 0 0 0-26-26z" fill="#fdc33b"/>
  <path d="m34 54.491c-5e-3 4.109-1.0214 5.4792-13.941 5.4792-3.6728 0-8.1437 0.32254-10.497-1.1536-2.2225-1.3938-1.4209-3.4393-1.4209-5.5211-6e-7 -4.2864 4.1997-7.2955 11.34-7.2955 7.1408 0 14.524 4.2 14.519 8.491z" fill="#d48003"/>
  <ellipse cx="28" cy="26" rx="4" ry="6" fill="#414141"/>
  <ellipse cx="40" cy="26" rx="4" ry="6" fill="#414141"/>
 </g>
</svg>
