<svg xmlns="http://www.w3.org/2000/svg" width="64" height="64"><rect width="52" height="52" x="6" y="6" fill="#f2f2f2" paint-order="markers stroke fill" rx="8" ry="8"/><g transform="translate(12.308 12.308) scale(.61538)"><path fill="#d48003" d="M55.2 54.491c-.005 4.109-1.021 5.48-13.941 5.48-3.673 0-8.144.322-10.497-1.154-2.223-1.394-1.42-3.44-1.42-5.521 0-4.287 4.199-7.296 11.34-7.296 7.14 0 14.523 4.2 14.518 8.491z"/><path fill="#fdc33b" d="M32 4A26 26 0 0 0 6 30a26 26 0 0 0 26 26 26 26 0 0 0 26-26A26 26 0 0 0 32 4z"/><path fill="#d48003" d="M34 54.491c-.005 4.109-1.021 5.48-13.941 5.48-3.673 0-8.144.322-10.497-1.154-2.223-1.394-1.42-3.44-1.42-5.521 0-4.287 4.199-7.296 11.34-7.296 7.14 0 14.523 4.2 14.518 8.491z"/><ellipse cx="28" cy="26" fill="#414141" rx="4" ry="6"/><ellipse cx="40" cy="26" fill="#414141" rx="4" ry="6"/></g></svg>