<svg xmlns="http://www.w3.org/2000/svg" width="64" height="64"><defs><linearGradient id="a" x1="135" x2="160" y1="120" y2="160" gradientTransform="translate(.072 -.053) scale(.05623)" gradientUnits="userSpaceOnUse"><stop offset="0" stop-color="#eff7fc"/><stop offset="1" stop-color="#fff"/></linearGradient></defs><g stroke-width=".852"><path fill="#3db0e3" d="M32 5c14.912 0 27 12.088 27 27S46.911 59 32 59 5 46.911 5 32 17.088 5 32 5z"/><path fill="#c8daea" d="M28.218 43.231c-.911 0-.753-.345-1.07-1.21l-2.674-8.802 16.56-10.344 1.933.507-1.605 4.4z"/><path fill="#a7c2d1" d="M28.218 43.231c.703 0 1.01-.32 1.401-.703.604-.59 8.42-8.186 8.42-8.186l-4.788-1.16-4.443 2.808-.59 7.004z"/><path fill="url(#a)" d="m5.697 8.07 2.719 2.01c.31.171.534.083.612-.288l1.107-5.216c.113-.454-.173-.66-.47-.526l-6.5 2.507c-.444.178-.441.425-.081.536l1.668.521 3.861-2.436c.182-.111.35-.051.212.071z" transform="matrix(4.1595 0 0 4.1595 5 2.522)"/></g></svg>