<svg width="64" height="64" version="1.1" viewBox="0 0 64 64" xmlns="http://www.w3.org/2000/svg">
 <g transform="matrix(2.1663 0 0 2.1667 -17.829 -20)">
  <path d="m17 28c-1.105 0-2 0.895-2 2v4c0 1.105 0.895 2 2 2h18.004v-8z" fill="#de4b28"/>
  <path d="m31.465 29c-1.371 0-2.469 1.098-2.469 2.469v1.063c0 1.371 1.098 2.469 2.469 2.469h3.531v-6" fill="#ebddb7"/>
  <path d="m31.465 29c-0.809 0-1.52 0.402-1.969 1h5.5v-1m-5.938 2c-0.027 0.148-0.063 0.305-0.063 0.469v0.531h6v-1m-5.938 2c0.074 0.375 0.219 0.703 0.438 1h5.5v-1" fill="#e3cc92"/>
  <path d="m13 20c-1.105 0-2 0.895-2 2v4c0 1.105 0.895 2 2 2h17.998v-8z" fill="#dd7f2d"/>
  <path d="m27.465 21c-1.371 0-2.469 1.098-2.469 2.469v1.063c0 1.371 1.098 2.469 2.469 2.469h3.531v-6" fill="#ebddb7"/>
  <path d="m27.465 21c-0.809 0-1.52 0.402-1.969 1h5.5v-1m-5.938 2c-0.027 0.148-0.063 0.305-0.063 0.469v0.531h6v-1m-5.938 2c0.074 0.375 0.219 0.703 0.438 1h5.5v-1" fill="#e3cc92"/>
  <path d="m17 12c-1.105 0-2 0.895-2 2v4c0 1.105 0.895 2 2 2h18.004v-8z" fill="#537f95"/>
  <path d="m31.465 13c-1.371 0-2.469 1.098-2.469 2.469v1.063c0 1.371 1.098 2.469 2.469 2.469h3.531v-6" fill="#ebddb7"/>
  <path d="m31.465 13c-0.809 0-1.52 0.402-1.969 1h5.5v-1m-5.938 2c-0.027 0.148-0.063 0.305-0.063 0.469v0.531h6v-1m-5.938 2c0.074 0.375 0.219 0.703 0.438 1h5.5v-1" fill="#e3cc92"/>
 </g>
</svg>
