<svg xmlns="http://www.w3.org/2000/svg" width="64" height="64"><path fill="#de4b28" d="M18.998 40.668A4.332 4.332 0 0 0 14.665 45v8.667A4.332 4.332 0 0 0 18.998 58H58V40.668z"/><path fill="#ebddb7" d="M50.334 42.834a5.329 5.329 0 0 0-5.349 5.35v2.303c0 2.97 2.379 5.35 5.349 5.35h7.649v-13"/><path fill="#e3cc92" d="M50.334 42.834c-1.753 0-3.293.871-4.266 2.167h11.915v-2.167m-12.864 4.334c-.058.32-.136.66-.136 1.016v1.15H57.98v-2.166M45.117 51.5c.16.813.475 1.523.949 2.167h11.915V51.5"/><path fill="#dd7f2d" d="M10.333 23.334A4.332 4.332 0 0 0 6 27.667v8.667a4.332 4.332 0 0 0 4.333 4.334h38.989V23.334z"/><path fill="#ebddb7" d="M41.668 25.5a5.329 5.329 0 0 0-5.348 5.35v2.303c0 2.971 2.378 5.35 5.348 5.35h7.65v-13"/><path fill="#e3cc92" d="M41.668 25.5c-1.752 0-3.292.872-4.265 2.167h11.915v-2.166m-12.864 4.333c-.058.32-.136.66-.136 1.016V32h12.997v-2.166m-12.863 4.334c.16.812.474 1.523.949 2.166h11.914v-2.167"/><path fill="#537f95" d="M18.998 6a4.332 4.332 0 0 0-4.333 4.334V19a4.332 4.332 0 0 0 4.333 4.333H58V6z"/><path fill="#ebddb7" d="M50.334 8.167a5.329 5.329 0 0 0-5.349 5.35v2.303c0 2.97 2.379 5.35 5.349 5.35h7.649v-13"/><path fill="#e3cc92" d="M50.334 8.167c-1.753 0-3.293.871-4.266 2.167h11.915V8.167m-12.864 4.334c-.058.32-.136.66-.136 1.016v1.15H57.98v-2.166m-12.864 4.333c.16.812.475 1.523.949 2.167h11.915v-2.167"/></svg>