<?xml version="1.0" encoding="UTF-8"?>
<svg width="64" height="64" version="1.1" viewBox="0 0 16.933 16.933" xmlns="http://www.w3.org/2000/svg">
 <rect x="1.058" y="1.581" width="14.817" height="12.7" rx="1.8524" ry="1.8524" fill="#333"/>
 <g fill="#fff">
  <rect x="2.117" y="2.645" width="12.699" height="10.583" rx=".79452" ry=".79452" opacity=".1"/>
  <g paint-order="stroke markers fill">
   <g transform="translate(-.222 -138.93) scale(.50244)">
    <rect transform="translate(4.082 .6)" x="5.292" y="289.06" width="4.233" height=".529" ry=".265"/>
    <path d="M8.055 284.86a.264.264 0 0 0-.262.13.264.264 0 0 0 .097.362l2.842 1.64-2.842 1.641a.264.264 0 0 0-.097.362c.074.127.235.17.362.097l3.208-1.852a.26.26 0 0 0 .127-.225c.002-.008.001-.015.002-.022 0-.008 0-.015-.002-.023a.26.26 0 0 0-.127-.224l-3.208-1.852a.266.266 0 0 0-.1-.034z"/>
    <rect transform="translate(4.082 .6)" x="5.292" y="289.06" width="4.233" height=".529" ry=".265"/>
    <path d="M8.055 284.86a.264.264 0 0 0-.262.13.264.264 0 0 0 .097.362l2.842 1.64-2.842 1.641a.264.264 0 0 0-.097.362c.074.127.235.17.362.097l3.208-1.852a.26.26 0 0 0 .127-.225c.002-.008.001-.015.002-.022 0-.008 0-.015-.002-.023a.26.26 0 0 0-.127-.224l-3.208-1.852a.266.266 0 0 0-.1-.034z"/>
   </g>
   <g transform="translate(6.514 -138.93) scale(.50244)">
    <rect transform="translate(4.082 .6)" x="5.292" y="289.06" width="4.233" height=".529" ry=".265"/>
    <path d="M8.055 284.86a.264.264 0 0 0-.262.13.264.264 0 0 0 .097.362l2.842 1.64-2.842 1.641a.264.264 0 0 0-.097.362c.074.127.235.17.362.097l3.208-1.852a.26.26 0 0 0 .127-.225c.002-.008.001-.015.002-.022 0-.008 0-.015-.002-.023a.26.26 0 0 0-.127-.224l-3.208-1.852a.266.266 0 0 0-.1-.034z"/>
    <rect transform="translate(4.082 .6)" x="5.292" y="289.06" width="4.233" height=".529" ry=".265"/>
    <path d="M8.055 284.86a.264.264 0 0 0-.262.13.264.264 0 0 0 .097.362l2.842 1.64-2.842 1.641a.264.264 0 0 0-.097.362c.074.127.235.17.362.097l3.208-1.852a.26.26 0 0 0 .127-.225c.002-.008.001-.015.002-.022 0-.008 0-.015-.002-.023a.26.26 0 0 0-.127-.224l-3.208-1.852a.266.266 0 0 0-.1-.034z"/>
   </g>
  </g>
  <path d="m8.466 2.6447v10.583h5.5556c0.43333 0 0.78245-0.34346 0.79322-0.7741v-9.0349c-0.01097-0.43046-0.36002-0.7741-0.79322-0.7741h-5.5556z" opacity=".1"/>
 </g>
</svg>
