<svg width="64" height="64" viewBox="0 0 16.933 16.933" xmlns="http://www.w3.org/2000/svg"><rect x="1.058" y="1.581" width="14.817" height="12.7" rx=".57" ry=".535" fill="#333"/><g fill="#fff"><rect x="2.117" y="2.645" width="12.699" height="10.583" rx="0" ry="0" opacity=".1"/><g paint-order="stroke markers fill"><g transform="translate(-.222 -138.93) scale(.50244)"><rect transform="translate(4.082 .6)" x="5.292" y="289.06" width="4.233" height=".529" ry=".265"/><path d="M8.055 284.86a.264.264 0 0 0-.262.13.264.264 0 0 0 .097.362l2.842 1.64-2.842 1.641a.264.264 0 0 0-.097.362c.074.127.235.17.362.097l3.208-1.852a.26.26 0 0 0 .127-.225c.002-.008.001-.015.002-.022 0-.008 0-.015-.002-.023a.26.26 0 0 0-.127-.224l-3.208-1.852a.266.266 0 0 0-.1-.034z"/></g><g transform="translate(-.222 -138.93) scale(.50244)"><rect transform="translate(4.082 .6)" x="5.292" y="289.06" width="4.233" height=".529" ry=".265"/><path d="M8.055 284.86a.264.264 0 0 0-.262.13.264.264 0 0 0 .097.362l2.842 1.64-2.842 1.641a.264.264 0 0 0-.097.362c.074.127.235.17.362.097l3.208-1.852a.26.26 0 0 0 .127-.225c.002-.008.001-.015.002-.022 0-.008 0-.015-.002-.023a.26.26 0 0 0-.127-.224l-3.208-1.852a.266.266 0 0 0-.1-.034z"/></g></g><g paint-order="stroke markers fill"><g transform="translate(6.514 -138.93) scale(.50244)"><rect transform="translate(4.082 .6)" x="5.292" y="289.06" width="4.233" height=".529" ry=".265"/><path d="M8.055 284.86a.264.264 0 0 0-.262.13.264.264 0 0 0 .097.362l2.842 1.64-2.842 1.641a.264.264 0 0 0-.097.362c.074.127.235.17.362.097l3.208-1.852a.26.26 0 0 0 .127-.225c.002-.008.001-.015.002-.022 0-.008 0-.015-.002-.023a.26.26 0 0 0-.127-.224l-3.208-1.852a.266.266 0 0 0-.1-.034z"/></g><g transform="translate(6.514 -138.93) scale(.50244)"><rect transform="translate(4.082 .6)" x="5.292" y="289.06" width="4.233" height=".529" ry=".265"/><path d="M8.055 284.86a.264.264 0 0 0-.262.13.264.264 0 0 0 .097.362l2.842 1.64-2.842 1.641a.264.264 0 0 0-.097.362c.074.127.235.17.362.097l3.208-1.852a.26.26 0 0 0 .127-.225c.002-.008.001-.015.002-.022 0-.008 0-.015-.002-.023a.26.26 0 0 0-.127-.224l-3.208-1.852a.266.266 0 0 0-.1-.034z"/></g></g><rect x="8.466" y="2.645" width="6.349" height="10.583" rx="0" ry="0" opacity=".1"/></g></svg>