<svg width="64" height="64" version="1.1" xmlns="http://www.w3.org/2000/svg">
 <rect x="6" y="6" width="52" height="52" rx="10" ry="10" fill="#31345e" style="paint-order:stroke fill markers"/>
 <path d="m27.854 15.369c-5.7757-6.39e-4 -10.416 4.4727-11.053 10.088-2.3557 2.1201-3.7927 5.1007-3.8008 8.3125a3.0003 3.0003 0 0 0 0 0.007813c-6.87e-4 6.2042 5.0927 11.298 11.297 11.297a3.0003 3.0003 0 0 0 0.027344 0c0.04716-4.39e-4 0.09348-0.012642 0.14062-0.013672 2.1099 2.2194 5.0078 3.5664 8.123 3.5703a3.0003 3.0003 0 0 0 0.011718 0c3.2141-0.0066 6.197-1.445 8.3184-3.8027 5.6133-0.63882 10.083-5.2767 10.082-11.051-1.68e-4 -2.547-1.0082-4.9178-2.5703-6.9004-0.52399-5.7289-5.2366-10.32-11.094-10.32a3.0003 3.0003 0 0 0-0.017579 0c-1.2364 0.0065-2.4343 0.28736-3.5957 0.6875-1.731-1.077-3.6436-1.812-5.7051-1.8438a3.0003 3.0003 0 0 0-0.042969-0.027344v0.019531c-0.04177-4.8e-4 -0.07928-0.023417-0.12109-0.023437zm-0.001954 3a8.2963 8.2963 0 0 1 5.5977 2.1777 8.2963 8.2963 0 0 1 3.8848-0.99023 8.2963 8.2963 0 0 1 8.2949 8.2949 8.2963 8.2963 0 0 1-0.005859 0.11328 8.2963 8.2963 0 0 1 2.377 5.8125 8.2963 8.2963 0 0 1-8.2949 8.2969 8.2963 8.2963 0 0 1-0.30664-0.021485 8.2963 8.2963 0 0 1-6.8066 3.5781 8.2963 8.2963 0 0 1-6.8887-3.6895 8.2963 8.2963 0 0 1-1.4062 0.13281 8.2963 8.2963 0 0 1-8.2969-8.2969 8.2963 8.2963 0 0 1 3.5762-6.8027 8.2963 8.2963 0 0 1-0.021484-0.30664 8.2963 8.2963 0 0 1 8.2969-8.2988zm-1.1348 9.0488a1 1 0 0 0-0.25586 0.052734 1 1 0 0 0-0.57227 0.50781 1 1 0 0 0 0.46289 1.3379l2.2891 1.1113-2.2891 1.1113a1 1 0 0 0-0.46289 1.3359 1 1 0 0 0 1.3359 0.46289l4.1406-2.0117a1.0001 1.0001 0 0 0 0-1.7988l-4.1406-2.0117a1 1 0 0 0-0.50781-0.097656zm5.4336 6.875a1 1 0 0 0-0.80078 0.33398 1 1 0 0 0 0.080079 1.4121s0.36566 0.31132 0.91797 0.55274 1.3569 0.4668 2.3926 0.4668 1.8403-0.22538 2.3926-0.4668c0.55231-0.24142 0.91797-0.55274 0.91797-0.55274a1 1 0 0 0 0.082031-1.4121 1 1 0 0 0-1.4121-0.082031s-0.06474 0.0713-0.38867 0.21289-0.84219 0.30078-1.5918 0.30078-1.2659-0.15919-1.5898-0.30078c-0.32393-0.14159-0.38867-0.21289-0.38867-0.21289a1 1 0 0 0-0.61133-0.25195z" color="#000000" fill="#ffffff" stroke-linecap="round" stroke-linejoin="round" style="-inkscape-stroke:none"/>
</svg>
