<svg width="64" height="64" version="1" xmlns="http://www.w3.org/2000/svg">
 <rect x="6" y="6" width="52" height="52" rx="8" ry="8" fill="#e6e6e6"/>
 <rect x="10" y="10" width="44" height="44" rx="4" ry="4" fill="#f2f2f2"/>
 <path d="M31.42 29.814c-.702.4-1.502.613-2.315.615-.084 0-.165-.018-.248-.022v8.76l-2-2.23a2.095 2.095 0 0 1-1.668.824 2.095 2.095 0 0 1-.052.451l3.72 4.067v6.646c-2.583.828-3.143 2.787-3.143 5.076h12.572c0-2.289-.56-4.248-3.143-5.076v-2.167l3.797-3.668a2.095 2.245 0 0 1-.13-.762 2.095 2.245 0 0 1 .284-1.127 2.095 2.245 0 0 1-.013-.017 2.095 2.245 0 0 1-.27.02 2.095 2.245 0 0 1-.885-.21l-2.783 2.65v-13.45a4.68 4.68 0 0 1-1.407.235 4.701 4.701 0 0 1-2.316-.615z" fill="#a57959"/>
 <path d="M31.42 10a4.68 4.68 0 0 0-3.275 1.335c-.44-.132-.897-.2-1.356-.2-2.558 0-4.632 2.033-4.632 4.54a4.484 4.484 0 0 0 1.093 2.922A4.522 4.522 0 0 0 21 22.486c.002 2.115 1.494 3.947 3.597 4.42.482 2.06 2.352 3.52 4.508 3.523a4.696 4.696 0 0 0 2.315-.614c.704.4 1.503.612 2.317.614a4.649 4.649 0 0 0 4.03-2.308c2.324-.275 4.073-2.208 4.077-4.503a4.56 4.56 0 0 0-.022-.386A4.485 4.485 0 0 0 43 20.215c-.003-2.115-1.494-3.948-3.597-4.42-.437-1.862-2.02-3.258-3.957-3.489a4.649 4.649 0 0 0-4.026-2.305zm-8.324 23.572A2.095 2.095 0 0 0 21 35.668a2.095 2.095 0 0 0 .282 1.047A2.095 2.095 0 0 0 21 37.76a2.095 2.095 0 0 0 2.096 2.097 2.095 2.095 0 0 0 2.093-2.097 2.095 2.095 0 0 0 2.097-2.093 2.095 2.095 0 0 0-2.097-2.096 2.095 2.095 0 0 0-1.046.283 2.095 2.095 0 0 0-1.047-.283zm15.715 3.143a2.095 2.245 0 0 0-2.096 2.244 2.095 2.245 0 0 0 2.096 2.245 2.095 2.245 0 0 0 .27-.02 2.095 2.245 0 0 0 .013.017 2.095 2.245 0 0 0-.283 1.127 2.095 2.245 0 0 0 2.093 2.244 2.095 2.245 0 0 0 2.097-2.244 2.095 2.245 0 0 0-.283-1.124A2.095 2.245 0 0 0 43 40.082a2.095 2.245 0 0 0-2.097-2.244 2.095 2.245 0 0 0-.27.022 2.095 2.245 0 0 0-1.823-1.145z" fill="#1c8d43"/>
</svg>
