<svg xmlns="http://www.w3.org/2000/svg" width="64" height="64" viewBox="0 0 16.933 16.933"><path fill="#f2f2f2" d="M5.292 1.058h6.35l3.174 3.175V12.7a2.11 2.11 0 0 1-2.116 2.116H5.292A2.11 2.11 0 0 1 3.175 12.7V3.175c0-1.173.944-2.117 2.117-2.117" style="paint-order:fill markers stroke"/><path fill="#ccc" fill-rule="evenodd" d="m14.816 4.233-3.175-3.175V2.91c0 .733.59 1.323 1.323 1.323z" style="paint-order:stroke fill markers"/><g transform="translate(-1.058 -.53)"><circle cx="12.7" cy="12.171" r="4.233" fill="#32a3d7"/><path fill="#fff" d="M10.583 13.344v.943h.943l2.381-2.381-.943-.943zm4.158-2.27c.1-.1.1-.256 0-.356l-.589-.59a.25.25 0 0 0-.357 0l-.492.496.943.943z"/></g><path fill="#b3b3b3" d="M8.76 6.404h.476l.24-.498c.054-.115.106-.233.164-.37h.012c.067.137.118.255.176.37l.252.498h.498l-.632-1.138.592-1.109h-.473l-.213.462a7 7 0 0 0-.149.355h-.015c-.067-.14-.115-.249-.167-.355l-.224-.462h-.498l.592 1.087zm-3.079-.371h.45V4.16h.637v-.373H5.05v.373h.631zm1.223 1.113h1.412v-.377h-.962v-.6h.79v-.377h-.79v-.52h.929V4.9H6.904z"/></svg>