<svg width="64" height="64" version="1.1" viewBox="0 0 16.933 16.933" xmlns="http://www.w3.org/2000/svg">
 <path d="M2.381 1.588h12.171c.147 0 .265.118.265.264v13.23a.264.264 0 0 1-.265.264H2.382a.264.264 0 0 1-.265-.265V1.852c0-.146.118-.264.264-.264z" fill="#32a3d7" paint-order="fill markers stroke"/>
 <g fill="#fff">
  <path d="M3.704 14.288v-1.059H2.91v-.264h.794v-1.059H2.91v-.264h.794v-1.059H2.91v-.264h.794V9.26H2.91v-.264h.794V7.938H2.91v-.265h.794V6.615H2.91V6.35h.794V5.292H2.91v-.265h.794V3.97H2.91v-.265h.794V2.646H2.91V2.38h.794v-.793h.265v.793h9.79v.265h-9.79v1.058h9.79v.265h-9.79v1.058h9.79v.265h-9.79V6.35h9.79v.265h-9.79v1.058h9.79v.265h-9.79v1.058h9.79v.264h-9.79v1.059h9.79v.264h-9.79v1.059h9.79v.264h-9.79v1.059h9.79v.264h-9.79v1.059h9.79v.264h-9.79v.794h-.265v-.794H2.91v-.264z" fill-opacity=".3" fill-rule="evenodd"/>
  <path d="m13.493 11.906c0 0.388-0.08 0.697-0.24 0.928s-0.407 0.38-0.74 0.45v-0.42c0.13008-0.06632 0.22125-0.19011 0.246-0.334h-0.245v-1.146h0.98zm-1.309 0c0 0.388-0.08 0.697-0.24 0.928-0.161 0.231-0.408 0.38-0.74 0.45v-0.42c0.06797-0.03273 0.12828-0.07941 0.177-0.137 0.03878-0.05895 0.06216-0.12668 0.068-0.197h-0.245v-1.146h0.98z" fill-rule="evenodd" stroke="#32a3d7" stroke-width=".52916" style="paint-order:stroke markers fill"/>
  <g stroke="#32a3d7" stroke-width=".52916">
   <g aria-label="T">
    <path d="m5.3988 8.4968h0.64105v-2.6725h0.9096v-0.53277h-2.4516v0.53277h0.90094z" fill="#fff" stroke="#32a3d7" stroke-width=".52916"/>
   </g>
   <g aria-label="E">
    <path d="m7.1436 10.084h2.0141v-0.5371h-1.3731v-0.85762h1.1262v-0.5371h-1.1262v-0.74067h1.3254v-0.53277h-1.9665z" fill="#fff" stroke="#32a3d7" stroke-width=".52916"/>
   </g>
   <g aria-label="X">
    <path d="m9.7894 9.026h0.68003l0.34218-0.71035c0.07797-0.16459 0.1516-0.33352 0.2339-0.52843h0.01733c0.09529 0.19491 0.16892 0.36384 0.25122 0.52843l0.35951 0.71035h0.71036l-0.90094-1.6243 0.84463-1.581h-0.6757l-0.3032 0.65838c-0.0693 0.1516-0.13427 0.30753-0.21224 0.50678h-0.02166c-0.095289-0.19925-0.16459-0.35518-0.23823-0.50678l-0.32053-0.65838h-0.71035l0.84463 1.5507z" stroke="#32a3d7" stroke-width=".52916"/>
    <path d="m9.7894 9.026h0.68003l0.34218-0.71035c0.07797-0.16459 0.1516-0.33352 0.2339-0.52843h0.01733c0.09529 0.19491 0.16892 0.36384 0.25122 0.52843l0.35951 0.71035h0.71036l-0.90094-1.6243 0.84463-1.581h-0.6757l-0.3032 0.65838c-0.0693 0.1516-0.13427 0.30753-0.21224 0.50678h-0.02166c-0.095289-0.19925-0.16459-0.35518-0.23823-0.50678l-0.32053-0.65838h-0.71035l0.84463 1.5507z" stroke="none"/>
   </g>
  </g>
  <path d="m13.493 11.906c0 0.388-0.08 0.697-0.24 0.928s-0.407 0.38-0.74 0.45v-0.42c0.13008-0.06632 0.22125-0.19011 0.246-0.334h-0.245v-1.146h0.98zm-1.309 0c0 0.388-0.08 0.697-0.24 0.928-0.161 0.231-0.408 0.38-0.74 0.45v-0.42c0.06797-0.03273 0.12828-0.07941 0.177-0.137 0.03878-0.05895 0.06216-0.12668 0.068-0.197h-0.245v-1.146h0.98z" fill-rule="evenodd" style="paint-order:stroke markers fill"/>
  <g aria-label="T">
   <path d="m5.3988 8.4968h0.64105v-2.6725h0.9096v-0.53277h-2.4516v0.53277h0.90094z" fill="#fff"/>
  </g>
  <g aria-label="E">
   <path d="m7.1436 10.084h2.0141v-0.5371h-1.3731v-0.85762h1.1262v-0.5371h-1.1262v-0.74067h1.3254v-0.53277h-1.9665z" fill="#fff"/>
  </g>
 </g>
</svg>
