<svg width="64" height="64" version="1.1" viewBox="0 0 16.933 16.933" xmlns="http://www.w3.org/2000/svg">
 <path d="m5.2916 1.0583h6.3499l3.1749 3.1749v8.4665c0 1.1726-0.94402 2.1166-2.1166 2.1166h-7.4082c-1.1726 0-2.1166-0.94402-2.1166-2.1166v-9.5248c0-1.1726 0.94401-2.1166 2.1166-2.1166z" fill="#f2f2f2" stroke-linecap="square" stroke-width=".5336" style="paint-order:fill markers stroke"/>
 <path d="m14.816 4.2332-3.1749-3.1749v1.852c0 0.73288 0.59001 1.3229 1.3229 1.3229z" fill="#cccccc" fill-rule="evenodd" style="paint-order:stroke fill markers"/>
 <g transform="translate(-1.0583 -.52916)">
  <circle cx="12.7" cy="12.171" r="4.2333" fill="#32a3d7" stroke-width=".52916"/>
  <path d="m10.583 13.344v0.94296h0.9429l2.3814-2.3814-0.9429-0.9429zm4.1584-2.2696c0.09973-0.09973 0.09973-0.25688 0-0.35661l-0.58932-0.58932c-0.09974-0.09973-0.25688-0.09973-0.35662 0l-0.49264 0.49582 0.94296 0.94296z" fill="#ffffff" stroke-width=".26458"/>
 </g>
 <path d="m8.7591 6.4044h0.4767l0.23987-0.49796c0.054657-0.11538 0.10627-0.2338 0.16397-0.37043h0.012148c0.066799 0.13663 0.11841 0.25505 0.17611 0.37043l0.25202 0.49796h0.49797l-0.63156-1.1386 0.59209-1.1083h-0.47367l-0.21255 0.46153c-0.04858 0.10627-0.094124 0.21558-0.14878 0.35526h-0.015184c-0.066799-0.13968-0.11538-0.24898-0.167-0.35526l-0.22469-0.46153h-0.49796l0.59209 1.087z" fill="#b3b3b3" stroke-width=".37094"/>
 <path d="m5.6813 6.0334h0.44938v-1.8734h0.63763v-0.37347h-1.7186v0.37347h0.63156z" fill="#b3b3b3" stroke-width=".701"/>
 <path d="m6.9044 7.146h1.4119v-0.37651h-0.96255v-0.6012h0.78947v-0.37651h-0.78947v-0.51921h0.92911v-0.37347h-1.3785z" fill="#b3b3b3" stroke-width=".701"/>
</svg>
