<svg xmlns="http://www.w3.org/2000/svg" width="64" height="64" viewBox="0 0 16.933 16.933"><path d="M2.381 1.588h12.171c.147 0 .265.118.265.264v13.23a.264.264 0 0 1-.265.264H2.382a.264.264 0 0 1-.265-.265V1.852c0-.146.118-.264.264-.264z" fill="#32a3d7" paint-order="fill markers stroke"/><path d="M3.704 14.288v-1.059H2.91v-.264h.794v-1.059H2.91v-.264h.794v-1.059H2.91v-.264h.794V9.26H2.91v-.264h.794V7.938H2.91v-.265h.794V6.615H2.91V6.35h.794V5.292H2.91v-.265h.794V3.97H2.91v-.265h.794V2.646H2.91V2.38h.794v-.793h.265v.793h9.79v.265h-9.79v1.058h9.79v.265h-9.79v1.058h9.79v.265h-9.79V6.35h9.79v.265h-9.79v1.058h9.79v.265h-9.79v1.058h9.79v.264h-9.79v1.059h9.79v.264h-9.79v1.059h9.79v.264h-9.79v1.059h9.79v.264h-9.79v1.059h9.79v.264h-9.79v.794h-.265v-.794H2.91v-.264z" fill="#fff" fill-opacity=".3" fill-rule="evenodd"/><path d="M12.17 10.529c0 .388-.08.697-.24.928-.16.231-.407.38-.74.45v-.42a.463.463 0 0 0 .246-.334h-.245v-1.146h.98zm-1.309 0c0 .388-.08.697-.24.928-.161.231-.408.38-.74.45v-.42a.537.537 0 0 0 .177-.137.422.422 0 0 0 .068-.197h-.245v-1.146h.98zm-6.099-5.51V3.97h1.984v2.308H6.25a.933.933 0 0 0 .496.672v.844c-.672-.138-1.171-.44-1.496-.905-.325-.465-.488-1.088-.488-1.868zm2.651 0V3.97h1.984v2.308H8.9a.848.848 0 0 0 .137.396c.068.092.188.184.359.276v.844c-.673-.138-1.172-.44-1.497-.905-.325-.465-.487-1.088-.487-1.868z" fill="#fff" fill-rule="evenodd" stroke="#32a3d7" stroke-width=".529" paint-order="stroke markers fill"/><path d="M12.17 10.529c0 .388-.08.697-.24.928-.16.231-.407.38-.74.45v-.42a.463.463 0 0 0 .246-.334h-.245v-1.146h.98zm-1.309 0c0 .388-.08.697-.24.928-.161.231-.408.38-.74.45v-.42a.537.537 0 0 0 .177-.137.422.422 0 0 0 .068-.197h-.245v-1.146h.98zm-6.099-5.51V3.97h1.984v2.308H6.25a.933.933 0 0 0 .496.672v.844c-.672-.138-1.171-.44-1.496-.905-.325-.465-.488-1.088-.488-1.868zm2.651 0V3.97h1.984v2.308H8.9a.848.848 0 0 0 .137.396c.068.092.188.184.359.276v.844c-.673-.138-1.172-.44-1.497-.905-.325-.465-.487-1.088-.487-1.868z" fill="#fff" fill-rule="evenodd" paint-order="stroke markers fill"/></svg>