<svg xmlns="http://www.w3.org/2000/svg" width="64" height="64"><path fill="#e6e6e6" d="M9 26v2c0 4.432 3.568 8 8 8h2v-6h6c1.108 0 2 .892 2 2s-.892 2-2 2h-2v2h22c2.77 0 5-2.23 5-5a4.99 4.99 0 0 0-3.25-4.688L47 26H9z"/><path fill="#f9f9f9" d="M15.428 3c0 10.357 4.144 16.571 12.43 22.785l.389.258c.156.133.32.258.494.377l12.617 8.617a5.863 5.863 0 0 0 8.166-1.54 5.86 5.86 0 0 0-.955-7.708l.004-.004-.037-.025a5.985 5.985 0 0 0-.551-.428l-11.207-7.654L15.428 3z"/><path fill="#e74b52" d="M47.536 21.643c-1.92.002-3.824.71-5.179 2.071L17.5 48.571c-1.36 1.355-2.069 3.259-2.071 5.179a7.244 7.244 0 0 0 7.25 7.25c1.92-.002 3.824-.71 5.179-2.071l24.857-24.857c1.36-1.355 2.069-3.259 2.071-5.179a7.244 7.244 0 0 0-7.25-7.25z"/><path fill="#f9f9f9" d="m23.714 46.5-1.036 1.036 1.554 1.553-1.036 1.036-1.553-1.554-1.036 1.036 1.554 1.554-1.554 1.553 1.036 1.036 1.553-1.554 1.036 1.036-1.554 1.554 1.036 1.035 1.554-1.553 1.553 1.553 1.036-1.035-1.554-1.554 1.036-1.036 1.554 1.554 1.035-1.036-1.553-1.553 1.553-1.554-1.035-1.036-1.554 1.554-1.036-1.036 1.554-1.553L26.82 46.5l-1.553 1.554zm1.554 3.625 1.035 1.036-1.035 1.035-1.036-1.035z"/><path fill="#878787" d="M21.643 9.343v2.071l12.429 8.545v-2.072z"/></svg>