<?xml version="1.0" encoding="UTF-8" standalone="no"?>
<!-- Created with Inkscape (http://www.inkscape.org/) -->

<svg
   xmlns:dc="http://purl.org/dc/elements/1.1/"
   xmlns:cc="http://creativecommons.org/ns#"
   xmlns:rdf="http://www.w3.org/1999/02/22-rdf-syntax-ns#"
   xmlns:svg="http://www.w3.org/2000/svg"
   xmlns="http://www.w3.org/2000/svg"
   xmlns:sodipodi="http://sodipodi.sourceforge.net/DTD/sodipodi-0.dtd"
   xmlns:inkscape="http://www.inkscape.org/namespaces/inkscape"
   width="64"
   height="64"
   viewBox="0 0 16.933333 16.933333"
   version="1.1"
   id="svg4572"
   inkscape:version="0.92.2 2405546, 2018-03-11"
   sodipodi:docname="theme-config.svg">
  <title
     id="title4611">Canvas icon theme</title>
  <defs
     id="defs4566" />
  <sodipodi:namedview
     id="base"
     pagecolor="#ffffff"
     bordercolor="#666666"
     borderopacity="1.0"
     inkscape:pageopacity="0.0"
     inkscape:pageshadow="2"
     inkscape:zoom="3.959798"
     inkscape:cx="-85.041314"
     inkscape:cy="19.266255"
     inkscape:document-units="px"
     inkscape:current-layer="layer1"
     showgrid="true"
     units="px"
     width="64px"
     showguides="true"
     inkscape:guide-bbox="true"
     inkscape:window-width="1920"
     inkscape:window-height="1023"
     inkscape:window-x="0"
     inkscape:window-y="27"
     inkscape:window-maximized="1"
     inkscape:snap-bbox="true"
     inkscape:bbox-nodes="true"
     inkscape:snap-bbox-edge-midpoints="true">
    <inkscape:grid
       type="xygrid"
       id="grid4582" />
    <sodipodi:guide
       position="1.0583333,15.875"
       orientation="0,1"
       id="guide4584"
       inkscape:locked="false" />
    <sodipodi:guide
       position="1.0583333,1.0583333"
       orientation="1,0"
       id="guide4586"
       inkscape:locked="false" />
    <sodipodi:guide
       position="15.875,15.875"
       orientation="1,0"
       id="guide4588"
       inkscape:locked="false" />
    <sodipodi:guide
       position="1.0583333,1.0583333"
       orientation="0,1"
       id="guide4590"
       inkscape:locked="false" />
    <sodipodi:guide
       position="8.4666665,8.4666665"
       orientation="0,1"
       id="guide822"
       inkscape:locked="false" />
    <sodipodi:guide
       position="8.4666665,8.4666665"
       orientation="1,0"
       id="guide824"
       inkscape:locked="false" />
  </sodipodi:namedview>
  <metadata
     id="metadata4569">
    <rdf:RDF>
      <cc:Work
         rdf:about="">
        <dc:format>image/svg+xml</dc:format>
        <dc:type
           rdf:resource="http://purl.org/dc/dcmitype/StillImage" />
        <dc:title>Canvas icon theme</dc:title>
        <cc:license
           rdf:resource="http://creativecommons.org/licenses/by-nc-sa/4.0/" />
        <dc:creator>
          <cc:Agent>
            <dc:title>Vince Liuice</dc:title>
          </cc:Agent>
        </dc:creator>
      </cc:Work>
      <cc:License
         rdf:about="http://creativecommons.org/licenses/by-nc-sa/4.0/">
        <cc:permits
           rdf:resource="http://creativecommons.org/ns#Reproduction" />
        <cc:permits
           rdf:resource="http://creativecommons.org/ns#Distribution" />
        <cc:requires
           rdf:resource="http://creativecommons.org/ns#Notice" />
        <cc:requires
           rdf:resource="http://creativecommons.org/ns#Attribution" />
        <cc:prohibits
           rdf:resource="http://creativecommons.org/ns#CommercialUse" />
        <cc:permits
           rdf:resource="http://creativecommons.org/ns#DerivativeWorks" />
        <cc:requires
           rdf:resource="http://creativecommons.org/ns#ShareAlike" />
      </cc:License>
    </rdf:RDF>
  </metadata>
  <g
     inkscape:label="Layer 1"
     inkscape:groupmode="layer"
     id="layer1"
     transform="translate(0,-280.06667)">
    <g
       id="g834">
      <path
         sodipodi:nodetypes="cccccccccscc"
         inkscape:connector-curvature="0"
         id="rect821"
         d="m 3.7041666,282.44792 -2.6458333,3.43958 2.6458333,2.11667 v 6.61458 h 9.5249994 v -6.61458 L 15.875,285.8875 13.229166,282.44792 h -1.587499 c -4e-6,0.87675 -1.421498,1.5875 -3.1750004,1.5875 -1.753502,0 -3.1749968,-0.71075 -3.175,-1.5875 z"
         style="opacity:1;fill:#ffffff;fill-opacity:1;stroke:#000000;stroke-width:0.26458333;stroke-miterlimit:4;stroke-dasharray:none;stroke-opacity:0.09803922;paint-order:stroke markers fill" />
      <path
         style="opacity:1;fill:#ffffff;fill-opacity:1;stroke:none;stroke-width:0.52916666;stroke-miterlimit:4;stroke-dasharray:none;stroke-opacity:0.03921569;paint-order:stroke markers fill"
         d="m 3.7041666,282.44792 -2.6458333,3.43958 2.6458333,2.11667 v 6.61458 h 9.5249994 v -6.61458 L 15.875,285.8875 13.229166,282.44792 h -1.587499 c -4e-6,0.87675 -1.421498,1.5875 -3.1750004,1.5875 -1.753502,0 -3.1749968,-0.71075 -3.175,-1.5875 z"
         id="path829"
         inkscape:connector-curvature="0"
         sodipodi:nodetypes="cccccccccscc" />
      <path
         id="rect828"
         transform="matrix(0.26458333,0,0,0.26458333,0,280.06667)"
         d="M 42.212891 45.777344 C 40.934795 45.777344 39.657077 46.266751 38.677734 47.246094 L 30.923828 55 L 45.066406 55 L 45.748047 54.318359 C 47.706733 52.359674 47.706733 49.20478 45.748047 47.246094 C 44.768704 46.266751 43.490986 45.777344 42.212891 45.777344 z "
         style="opacity:0.75;fill:#71ffb2;fill-opacity:1;stroke:none;stroke-width:2.58198881;stroke-miterlimit:4;stroke-dasharray:none;stroke-opacity:0.03921569;paint-order:stroke markers fill" />
      <path
         id="rect832"
         transform="matrix(0.26458333,0,0,0.26458333,0,280.06667)"
         d="M 50 49 L 44 55 L 50 55 L 50 49 z "
         style="opacity:0.75;fill:#ff522c;fill-opacity:1;stroke:none;stroke-width:2.58198881;stroke-miterlimit:4;stroke-dasharray:none;stroke-opacity:0.03921569;paint-order:stroke markers fill" />
      <path
         id="rect826"
         transform="matrix(0.26458333,0,0,0.26458333,0,280.06667)"
         d="M 40.142578 38.707031 C 38.864483 38.707031 37.586765 39.196438 36.607422 40.175781 L 21.783203 55 L 35.923828 55 L 43.677734 47.246094 C 45.63642 45.287408 45.63642 42.134467 43.677734 40.175781 C 42.698391 39.196438 41.420674 38.707031 40.142578 38.707031 z "
         style="opacity:0.75;fill:#4997ff;fill-opacity:1;stroke:none;stroke-width:2.58198881;stroke-miterlimit:4;stroke-dasharray:none;stroke-opacity:0.03921569;paint-order:stroke markers fill" />
      <path
         id="rect830"
         transform="matrix(0.26458333,0,0,0.26458333,0,280.06667)"
         d="M 26.355469 43.710938 C 25.077373 43.710938 23.799655 44.200345 22.820312 45.179688 L 14 54 L 14 55 L 27.142578 55 L 29.890625 52.251953 C 31.849311 50.293267 31.849311 47.138373 29.890625 45.179688 C 28.911282 44.200345 27.633564 43.710938 26.355469 43.710938 z "
         style="opacity:0.75;fill:#ff4b20;fill-opacity:1;stroke:none;stroke-width:2.58198881;stroke-miterlimit:4;stroke-dasharray:none;stroke-opacity:0.03921569;paint-order:stroke markers fill" />
      <path
         id="rect834"
         transform="matrix(0.26458333,0,0,0.26458333,0,280.06667)"
         d="M 16.142578 45.707031 C 15.407244 45.707031 14.678439 45.888717 14 46.212891 L 14 55 L 18.923828 55 L 19.677734 54.246094 C 21.63642 52.287408 21.63642 49.134467 19.677734 47.175781 C 18.698391 46.196438 17.420674 45.707031 16.142578 45.707031 z "
         style="opacity:0.75;fill:#ffef4d;fill-opacity:1;stroke:none;stroke-width:2.58198881;stroke-miterlimit:4;stroke-dasharray:none;stroke-opacity:0.03921569;paint-order:stroke markers fill" />
    </g>
  </g>
</svg>
