<svg xmlns="http://www.w3.org/2000/svg" width="64" height="64" viewBox="0 0 16.933 16.933"><g paint-order="stroke markers fill"><path d="M3.704 2.381l-2.646 3.44 2.646 2.117v6.614h9.525V7.938l2.646-2.117-2.646-3.44h-1.587c0 .877-1.422 1.588-3.175 1.588-1.754 0-3.175-.711-3.175-1.588z" fill="#fff" stroke="#000" stroke-width=".265" stroke-opacity=".098"/><path d="M3.704 2.381l-2.646 3.44 2.646 2.117v6.614h9.525V7.938l2.646-2.117-2.646-3.44h-1.587c0 .877-1.422 1.588-3.175 1.588-1.754 0-3.175-.711-3.175-1.588z" fill="#fff"/><path d="M11.169 12.112c-.338 0-.676.13-.936.389l-2.051 2.051h3.742l.18-.18a1.32 1.32 0 0 0 0-1.871 1.318 1.318 0 0 0-.935-.39z" opacity=".75" fill="#71ffb2"/><path d="M13.23 12.965l-1.588 1.587h1.587v-1.587z" opacity=".75" fill="#ff522c"/><path d="M10.621 10.241c-.338 0-.676.13-.935.389l-3.923 3.922h3.742l2.051-2.051a1.32 1.32 0 0 0 0-1.871 1.318 1.318 0 0 0-.935-.389z" opacity=".75" fill="#4997ff"/><path d="M6.973 11.565c-.338 0-.676.13-.935.389l-2.334 2.333v.265h3.477l.728-.727a1.32 1.32 0 0 0 0-1.871 1.318 1.318 0 0 0-.936-.389z" opacity=".75" fill="#ff4b20"/><path d="M4.271 12.093c-.195 0-.387.048-.567.134v2.325h1.303l.2-.2a1.32 1.32 0 0 0 0-1.87 1.318 1.318 0 0 0-.936-.389z" opacity=".75" fill="#ffef4d"/></g></svg>