<svg xmlns="http://www.w3.org/2000/svg" width="64" height="64" viewBox="0 0 16.933 16.933"><defs><linearGradient id="a" x1="-197.72" x2="-197.72" y1="263.86" y2="273.76" gradientTransform="matrix(.18709 -.18709 .18709 .18709 1.12 -74.45)" gradientUnits="userSpaceOnUse"><stop offset="0"/><stop offset="1" stop-opacity="0"/></linearGradient></defs><path fill="#7252e2" d="m7.144 2.377-3.704.001c-.294 0-.395.268-.53.529v.003h-.264c-.586 0-1.058.472-1.058 1.059v7.408c0 .586.472 1.058 1.058 1.058h11.642c.586 0 1.058-.472 1.058-1.058V3.969c0-.587-.472-1.059-1.058-1.059h-4.46c-.013 0-.025-.003-.038-.003H7.674c-.155-.25-.235-.53-.53-.53z" style="paint-order:stroke fill markers"/><path d="m7.144 2.377-3.704.001c-.294 0-.395.268-.53.529v.003h-.264c-.586 0-1.058.472-1.058 1.059v7.408c0 .586.472 1.058 1.058 1.058h11.642c.586 0 1.058-.472 1.058-1.058V3.969c0-.587-.472-1.059-1.058-1.059l-6.614-.003c-.155-.25-.235-.53-.53-.53z" opacity=".18" style="paint-order:stroke fill markers"/><rect width="12.171" height="5.027" x="2.381" y="3.7" fill="#fff" paint-order="markers stroke fill" ry=".533"/><rect width="3.175" height=".529" x="3.704" y="2.64" opacity=".25" paint-order="stroke markers fill" ry=".265"/><path fill="#7252e2" d="m8.996 4.233-.794 1.059H1.587C1.001 5.292.53 5.764.53 6.35v7.408c0 .586.472 1.058 1.058 1.058h13.758c.587 0 1.059-.472 1.059-1.058V5.292c0-.587-.472-1.059-1.059-1.059z" style="paint-order:stroke fill markers"/><path fill="url(#a)" d="m16.404 10.583-4.233 4.233h3.175c.586 0 1.058-.472 1.058-1.058z" opacity=".2" style="paint-order:stroke fill markers"/><rect width="4.233" height=".529" x="10.318" y="4.762" opacity=".25" ry=".265" style="paint-order:stroke markers fill"/><path d="M8.467 7.782a.263.263 0 0 0-.187.078l-2.433 2.432a.265.265 0 1 0 .375.374l.128-.128V12.7h.53v-2.69L8.466 8.42l1.587 1.588v2.69h.53v-2.16l.127.127a.265.265 0 1 0 .375-.374L8.654 7.86a.263.263 0 0 0-.187-.078zm0 3.066a.528.528 0 0 0-.53.529V12.7h1.059v-1.323a.528.528 0 0 0-.53-.53z" opacity=".15" style="paint-order:stroke fill markers"/></svg>