<svg xmlns="http://www.w3.org/2000/svg" width="64" height="64"><path fill="#248afd" d="M27 13c1.54-5.71 9.51-9 17-9 5.41 0 10.67 2.16 14 5-1.99.1-4.38 1-6 2 3 .34 5.29 1.01 7 3a11.7 11.7 0 0 0-4 0c3.22 4.88 5.01 12.08 5 18 0 16.15-12 28-28 28S4 48 4 32c0-2.52.41-6.31 1.15-8.8.16-.51.39-.97.69-1.15.05-.04.11-.05.16-.05.31 0 .55.52.6.71.41 1.6.71 3.79 1.4 5.29 0-3.32 1.36-7.04 3.24-9.67 1.25-1.75 3.61-3.2 4.15-7.89 0 0 .05-.44.61-.44 4.08 1.39 4 10 4 16 2.25.34 2.36-3.71 2.36-3.71C22.05 21.47 22 21 22 20c0-2 1.54-5.49 5-7"/><path fill="#0271ef" d="M58.53 22c.11.33.47 1.85.47 3 0 15.4-12.11 29-27 29-5.82 0-10.34-1.38-15-5C9.82 43.41 5 36.8 5 28c0-2 .45-4.66.71-5.67.07-.27.16-.33.29-.33-.05 0-.12.02-.16.05-.31.2-.5.61-.69 1.15-.32.81-.76 3.49-.8 3.8-.14 1.02-.35 3.31-.35 5 0 16 12 28 28 28s28-11.85 28-28c0-4-.67-7.48-1.47-10"/><path fill="#0259bb" d="M5.71 22.33C5.29 24.1 5 26.01 5 28c0 6.25 2.41 12.33 8.5 18.01C11.88 44 10 40.32 10 36c0-3.25.75-6.78 3.44-9.79.15-.16.3-.21.56-.21.31 0 .65.32.66.74C15.18 41.29 26 49 40 49c-4.48 0-17.37-5.71-7.49-7.64C37.67 40.36 46 38 46 32c0-12.3-7-16-14-16-4.29 0-8.8 3.18-9.64 6.29.39 1.34-1.3 3.87-2.36 3.71 0-6 .08-14.61-4-16-.54 0-.61.44-.61.44-.54 4.69-2.9 6.13-4.15 7.89C9.36 20.96 8 24.33 8 28c-.69-1.5-.99-3.69-1.4-5.29-.05-.18-.3-.71-.6-.71-.17 0-.25.15-.29.33"/><path fill="#e6e6e6" d="M32 43c7 0 14-5 14-11 0-2.51-.64-4.98-2-7-2.43-3.61-6.87-6-12-6-5.22 0-9.6 2.28-12 6-1.28 1.98-2 4.57-2 7 0 11.59 10 17 22 17-.75-.09-5.33-.26-8.49-4-.29-.34-.51-.63-.51-1 0-.59.55-1 1-1"/><path fill="#f9f9f9" d="M34 35c-.64.64-1.24 1.01-2 1-.74-.01-1.39-.39-2-1L20 25c3-4.65 8-6 12-6s9 1.58 12 6z"/><path fill="#fff" d="M34.57 13.86c1.56-.54 1.42-2.24 1.42-2.24s-.78-1.01-2.33-.45c-1.45.53-1.67 1.66-1.67 1.66s.79 1.65 2.57 1.03z"/></svg>