<svg width="64" height="64" version="1.1" xmlns="http://www.w3.org/2000/svg" xmlns:xlink="http://www.w3.org/1999/xlink">
 <defs>
  <linearGradient id="b">
   <stop stop-color="#2f5da4" offset="0"/>
   <stop stop-color="#5584cd" offset="1"/>
  </linearGradient>
  <linearGradient id="a">
   <stop stop-color="#4a7ae1" offset="0"/>
   <stop stop-color="#7fa1ea" offset="1"/>
  </linearGradient>
  <linearGradient id="g" x1="49.575" x2="53.666" y1="23.917" y2="41.292" gradientUnits="userSpaceOnUse" xlink:href="#a"/>
  <linearGradient id="f" x1="53.666" x2="45.945" y1="41.292" y2="56.736" gradientUnits="userSpaceOnUse" xlink:href="#a"/>
  <linearGradient id="e" x1="46.554" x2="50.811" y1="17.29" y2="34.689" gradientUnits="userSpaceOnUse" xlink:href="#a"/>
  <linearGradient id="d" x1="8.9795" x2="7.3794" y1="23.31" y2="35.295" gradientUnits="userSpaceOnUse" xlink:href="#b"/>
  <linearGradient id="c" x1="6.1017" x2="9.3559" y1="35.525" y2="55.051" gradientUnits="userSpaceOnUse" xlink:href="#b"/>
 </defs>
 <g stroke-linecap="round" stroke-linejoin="round" stroke-opacity=".196">
  <path d="M12.849 49.816c2.429 3.494 5.564 7.61 9.144 8.162-1.4-.81-4.901-3.98-5.998-9.996 1.164 2.28 6.42 5.303 7.997 5.997-.784-.731-3.792-5.12-3.999-7.696l-10.084-3.1c.063.095.286 2.9 2.94 6.633z" fill="#304776"/>
  <path d="M48.757 24.98l-18.182-6.377-19.486 1.299-4.973 6.206c.885 5.737.335 11.947 3.417 16.959l34.45 10.912 4.745-13.243z" fill="#dcdcdc"/>
  <path d="M11.556 19.529l3.282.469.902-4.394-1.803.879z" fill="#3f7da7" fill-rule="evenodd"/>
  <path d="M47.278 28.476l-2.698-8.861-32.994-.331-.188.23-.309.388L24 38z" fill="#f7f7f7"/>
  <path d="M30.504 8.335c-.004.001-4.149.02-5.958.601-3.015.696-5.72 1.979-8.4 3.464-3.48 2.34-6.33 5.579-8.531 9.124-1.937 3.418-3.11 7.22-3.546 11.115-.26 3.95.193 7.975 1.68 11.67 2.816 6.347 9.786 13.748 16.244 13.669-.82-.127-1.445-.958-2.216-1.408-2.592-1.515-5.056-4.061-6.928-6.754-2.654-3.732-2.877-6.537-2.94-6.632l.036.01c-.887-2.804-1.414-5.704-1.737-8.67-.042-.663-.124-1.381.114-1.205.893 1.416 2.124 1.864 3.675 2.668-1.47-2.313-2.141-4.964-1.9-7.713.243-2.758 1.8-5.432 3.508-7.414 4.478-5.126 11.012-9.273 16.899-12.525z" fill="#2f5da4"/>
  <path d="M25.99 4c-4.736.126-7.397 4.978-9.264 8.722-.672 1.19-1.37 2.603-1.957 3.727-1.124 1.771-.464 3.899-.231 5.837-.025.53.3 1.646.046 1.758-.514 1.553-1.004 3.557.225 4.913.39-1.755 2.305-2.6 3.815-3.34 1.706-.74 3.087-2.362 4.777-3.141 2.227-1.277 4.376.524 7.237.524 2.734 0 5.623-1 8.329-2.216.63.651 1.756 1.71 2.248 2.482h-.007c1.41 2.256 2.388 4.878 2.71 7.451.4 3.366.064 6.718-1.926 9.266l-.016.004h.014c.041.005 3.61.259 5.992-2.001-1.699 13.135-9.753 20.157-13.994 21.99 5.646.38 9.995-3.998 9.995-3.998.822-1.169-1.984 2.796-3.998 3.999 3.69-1.033 6.16-1.409 8.488-3.107-.001 0 1.891-1.03 3.865-3.282.263-.3.714-.715.984-1.056.168-.212.324-.43.488-.642.029-.035.062-.069.09-.104 4.154-5.082 6.177-11.4 6.027-17.126.029-6.94-2.788-12.965-7.52-17.946-3.422-3.602-7.309-6.006-10.81-7.199-4.534-1.302-10.13-1.857-14.131-1.1-.38.127.056-2.083.524-2.416-1.122.105-2.338 2.593-3.248 3.146.747-1.236.351-1.977 1.249-3.146-3.337.623-2.927 3.407-4.979 5.352.676-3.614 2.167-5.025 4.979-7.351z" fill="#4a7ae1"/>
  <path d="M16.615 23.992c6.665-.192 2.48-4.323 11.375-11.995-7.246 3.752-14.144 3.746-11.366 11.995h-.008z" fill="#fff" opacity=".1"/>
 </g>
 <path d="M20.61 20.64c-.638 1.167-2.13 1.637-2.954 1.198-.843-.44-.839-1.909-.186-3.076.63-1.167 3.413-.643 3.426-.643.013 0 .354 1.358-.285 2.52z" fill="#fff" opacity=".25"/>
 <path d="M17.815 25.96s.36-.347.172-.98c-2.237.74-3.336-1.402-3.328-1.402.008 0-1.676 4.412.334 6.411.174-1.646 2.74-3.944 2.747-3.944" fill="#5c5f60" stroke="#000" stroke-linecap="round" stroke-linejoin="round" stroke-opacity=".196"/>
 <circle cx="19" cy="20" r="1" fill="#212a3c" opacity=".75"/>
 <circle cx="19.219" cy="19.669" r=".5" fill="#fff" opacity=".5"/>
 <path d="m49.288 41.288c-0.85019 3.7751-0.99616 5.4278-4.1356 10.847 2.4611-0.5246 4.4869-1.8141 4.4869-1.8141s-0.0355 0.92441-1.1053 2.5797c2.5782-0.55457 3.3291-1.3695 4.5506-2.5622 1.2966-1.266 2.2923-3.0705 3.1211-4.6821 0.79933-1.5545 1.3039-3.0882 1.7603-4.7755 0.34551-1.2772 0.54237-3.9322 0.54237-3.9322l-8.8136-0.81356s-0.02826 3.4718-0.40678 5.1525z" fill="url(#f)"/>
 <path d="m44.645 27.525c0.54301 2.0278 1.0838 4.678 0.67697 7.2881-0.413 2.65-0.77966 3.1525-0.77966 3.1525s2.9153-0.74576 3.7288-1.6271c0.81356-0.88136 1.017-1.0169 1.017-1.0169s0.54237 1.5932 0.40678 3.1864c-0.09774 1.1484-0.20339 1.8983-0.20339 1.8983s2.4407-1.4915 2.9831-2.7797c0.54237-1.2881 0.67797-2.1695 0.67797-2.1695s0.80534 2.1893 0.87313 3.4097c0.0678 1.2203-0.35955 2.4249-0.35955 2.4249s2.0039-0.81328 2.7961-2.1058c0.84575-1.3799 1.131-2.5085 1.131-2.5085s0.16949 2.4746-0.1017 3.0847c0.51382-0.33064 1.1203-1.1899 1.2943-1.773 0.38802-1.3 0.40118-2.5331 0.33281-3.888-0.11694-2.3178-0.83365-5.5185-1.8983-8.0678-0.6065-1.4523-2.1356-4.1695-2.1356-4.1695l-11.814 2.2533s1.0484 2.1887 1.3748 3.4077z" fill="url(#g)"/>
 <path d="m41.593 21.085c2.2303 2.4508 3.2546 4.1501 4.0678 7.1186 0.7249-2.1338 1.1186-5.0508 1.1186-5.0508s1.9773 1.8275 3.7627 5.6949c0.94198-2.5661 0.91525-5.1186 0.91525-5.1186s1.9777 2.079 3.017 4.5763c0.70853-2.5001 0.1356-4.7797 0.1356-4.7797s1.2419 1.213 1.8644 2.7119c0.46792-2.7808-0.69516-4.1117-1.7288-5.4237-1.3566-1.7219-2.7882-2.9788-4.3051-4.339-1.2692-1.1381-2.6063-2.2048-4-3.1864-1.8083-1.2736-4.339-2-4.339-2l-6.6102 6.1017s2.4019 1.0261 3.2881 1.4915c0.851 0.44694 2.3238 1.6652 2.8136 2.2034z" fill="url(#e)"/>
 <path d="m9.422 25.766c-0.5186 2.1168-0.81537 3.8958-0.18013 6.8738-1.7027-1.9709-1.6487-3.4535-1.6487-3.4535s-1.03 1.1867-1.3915 5.4659c-0.89462-1.3787-0.84807-2.2958-0.88958-3.4898-0.050356-1.4485 0.38663-2.855 0.78959-4.2472 0.33428-1.1549 0.7929-2.2763 1.322-3.3559 0.39913-0.81436 1.3898-2.339 1.3898-2.339l2.1852 1.1683s-1.2557 2.0669-1.5768 3.3775z" fill="url(#d)"/>
 <path d="m5.5085 38.661c0.54768 2.0975 0.15764 3.313 4.2203 8.9661-3.0287-6.8031-2.7458-12.169-2.7458-12.169l-1.8305-0.0678s0.079378 2.2121 0.35593 3.2712z" fill="url(#c)"/>
</svg>
