<svg xmlns="http://www.w3.org/2000/svg" width="64" height="64"><rect width="49.954" height="49.954" x="7.023" y="7.023" fill="#ff7f2a" rx="13.321"/><path fill="#fff" d="M45.842 15.781c-.573.008-1.147.048-1.715.13-3.45.504-6.702 2.393-8.68 2.378-2.548 1.282-5.107 2.533-10.29 1.201-4.88-1.254-8.248.71-10.008 2.506a24.143 24.143 0 0 0-.366 4.293c0 .66.012 1.273.041 1.842.646.84 1.482 1.068 2.504.681 2.238-.846 4.197-1.426 4.15-1.525-.783-1.681 0-4.416 0-5.018 0-.65 1.1-.87.778 0-.322.87-.318 2.523 1.105 3.953s3.39-1.738 6.735-3.28c3.24-1.495 13.078-1.542 15.135-1.544h.176c1.589 0 3.875-1.893 4.658 0 .782 1.893-4.09 4.287-7.594 7.414s-4.817 6.426-8.424 7.155c-3.607.729-7.897-.728-10.688-2.358-1.738-1.015-4.205-1.324-7.402-.924.763 1.13 1.981 1.772 3.88 2.088 4.16.694 7.308 5.196 8.798 5.196s6.138 1.045 7.525 1.738c.863.431.642.585.36.646.854.022 2.073-.166 4.025-.753 6.364-1.917 8.587-11.01 10.328-13.354 1.115-1.502 3.157-2.727 6.103-3.68v-4.223a13.4 13.4 0 0 0-.386-3.154 15.193 15.193 0 0 0-1.475-.6.878.878 0 0 1-.28.196c-1.03.466-4.98-1.06-8.993-1.004z"/><path d="M20.84 7.023c.32 4.252 1.08 6.567 2.283 6.942.346-1.17.054-3.486-.869-6.942H20.84zm10.352 0c-.15 1.638-.883 3.599-2.197 5.883-1.971 3.426-3.059 4.963-1.53 5.602 1.53.639 4.121-4.407 5.157-7.205.69-1.866 1.16-3.293 1.414-4.28h-2.844zM12.573 9.527a13.311 13.311 0 0 0-2.174 1.957c2.615 4.524 3.589 7.975 2.881 10.324-1.138 3.777-3.76 9.499 1.094 12.965 4.853 3.467 6.64 3.467 8.547 5.547s4.998 2.774 6.8 2.08c1.803-.693 6.44 0 6.44 0h.012c.136-.002 1.296-.04-.012-.693-1.387-.693-6.036-1.738-7.525-1.738s-4.637-4.502-8.797-5.196c-1.9-.316-3.118-.957-3.881-2.088 3.197-.4 5.664-.091 7.402.924 2.79 1.63 7.08 3.086 10.686 2.358 3.607-.73 4.92-4.027 8.424-7.155s8.376-5.52 7.594-7.414c-.783-1.893-3.07 0-4.658 0h-.176c-2.057.002-11.895.049-15.135 1.543-3.345 1.543-5.311 4.712-6.735 3.281s-1.427-3.083-1.105-3.953c.322-.87-.777-.65-.777 0 0 .602-.784 3.337 0 5.018.046.1-1.913.679-4.15 1.525-1.023.387-1.857.16-2.503-.681a36.07 36.07 0 0 1-.04-1.842c0-5.547 1.549-6.682.548-10.125-.62-2.132-1.547-4.347-2.76-6.637zm33.74 2.885c-.406.013-.836.045-1.295.098-3.67.423-12.428 3.046-11.033 5.092 1.395 2.045 5.6-1.027 10.141-1.69 4.54-.663 9.532 1.407 10.71.873 1.176-.534-.054-2.145-2.17-2.953-1.853-.707-3.509-1.513-6.352-1.42zm10.664 26.533C52.707 44.66 45.525 50.391 36.038 51.7c-9.49 1.309-18.757-7.105-21.061-5.601-2.304 1.503 9.177 10.792 21.061 9.496 11.793-1.286 18.523-6.191 20.885-10.83.03-.367.055-.734.055-1.108v-4.71z" opacity=".65"/><path fill="#91ed98" d="M25.856 28.359c-.474.884.016 4.713 1.48 5.212 1.466.498 4.639 1.067 6.082.516 1.442-.55 4.99-3.96 4.99-4.844 0-.884-1.242-5.503-4.306-5.503s-7.772 3.735-8.246 4.619z"/><circle cx="32.347" cy="29.573" r="1.733" opacity=".65"/></svg>