<svg width="64" height="64" version="1.1" viewBox="0 0 64 64" xmlns="http://www.w3.org/2000/svg">
 <rect x="7.0231" y="7.0231" width="49.954" height="49.954" rx="13.321" fill="#ff7f2a"/>
 <path d="m45.842 15.781c-0.57334 0.007882-1.1472 0.048017-1.7148 0.13086-3.4494 0.50346-6.7025 2.3921-8.6797 2.377-2.5488 1.2826-5.1078 2.5336-10.291 1.2012-4.8793-1.2544-8.2475 0.71078-10.008 2.5059-0.19186 1.1158-0.36524 2.449-0.36524 4.293 0 0.6597 0.011696 1.2726 0.041016 1.8418 0.6462 0.84052 1.482 1.0682 2.5039 0.68164 2.2379-0.84653 4.1967-1.426 4.1504-1.5254-0.78364-1.6811 0-4.4164 0-5.0176 0-0.65085 1.0995-0.87002 0.77734 0-0.3221 0.87-0.31793 2.5228 1.1055 3.9531s3.39-1.7384 6.7344-3.2812c3.24-1.4946 13.078-1.5415 15.135-1.543h0.17578c1.5892 0 3.8759-1.8932 4.6582 0 0.7823 1.8932-4.09 4.2866-7.5938 7.4141s-4.8174 6.4256-8.4238 7.1543c-3.6068 0.7288-7.8975-0.72732-10.688-2.3574-1.7377-1.0153-4.205-1.3242-7.4023-0.92383 0.7632 1.1304 1.9813 1.7713 3.8809 2.0879 4.16 0.6933 7.3074 5.1953 8.7969 5.1953s6.1387 1.045 7.5254 1.7383c0.86261 0.43131 0.64209 0.58484 0.35938 0.64648 0.85497 0.021362 2.0738-0.16621 4.0254-0.75391 6.3644-1.9165 8.5875-11.01 10.328-13.354 1.1156-1.502 3.1568-2.7262 6.1035-3.6797v-4.2227c0-1.0895-0.14221-2.142-0.38672-3.1543-0.4777-0.22755-0.97308-0.42243-1.4746-0.59961-0.071545 0.074679-0.15947 0.14099-0.2793 0.19531-1.0301 0.46694-4.9808-1.0591-8.9941-1.0039z" fill="#ffffff"/>
 <path d="m20.84 7.0234c0.32016 4.2517 1.0809 6.5671 2.2832 6.9414 0.34558-1.169 0.053972-3.4856-0.86914-6.9414h-1.4141zm10.352 0c-0.14999 1.6378-0.88316 3.5986-2.1973 5.8828-1.9712 3.4263-3.0586 4.9624-1.5293 5.6016 1.5293 0.63916 4.1208-4.4064 5.1562-7.2051 0.6903-1.8658 1.1613-3.2926 1.4141-4.2793h-2.8438zm-18.619 2.5039c-0.79551 0.57146-1.5238 1.2274-2.1738 1.957 2.6143 4.5238 3.5887 7.9751 2.8809 10.324-1.138 3.777-3.7596 9.4982 1.0938 12.965 4.8533 3.4667 6.6409 3.4669 8.5469 5.5469s4.9982 2.7734 6.8008 2.0801c1.8026-0.69333 6.4395 0 6.4395 0h0.011719c0.13661-0.002134 1.2957-0.039646-0.011719-0.69336-1.3867-0.69333-6.0359-1.7383-7.5254-1.7383s-4.6369-4.502-8.7969-5.1953c-1.8996-0.3166-3.1177-0.9575-3.8809-2.0879 3.1973-0.40039 5.6646-0.091462 7.4023 0.92383 2.79 1.6301 7.0792 3.0862 10.686 2.3574 3.6064-0.72873 4.9201-4.0268 8.4238-7.1543s8.3761-5.5209 7.5938-7.4141c-0.78234-1.8932-3.069 0-4.6582 0h-0.17578c-2.0567 0.001459-11.895 0.048352-15.135 1.543-3.3444 1.5428-5.311 4.7115-6.7344 3.2812s-1.4276-3.0831-1.1055-3.9531c0.32212-0.87002-0.77734-0.65085-0.77734 0 0 0.60121-0.78364 3.3365 0 5.0176 0.046347 0.099424-1.9125 0.67887-4.1504 1.5254-1.0219 0.38656-1.8558 0.15888-2.502-0.68164-0.02932-0.56922-0.041016-1.1821-0.041016-1.8418 0-5.5467 1.5494-6.682 0.54883-10.125-0.61962-2.1321-1.5474-4.3465-2.7598-6.6367zm33.74 2.8848c-0.40622 0.013317-0.83618 0.044766-1.2949 0.097657-3.6699 0.42313-12.428 3.0461-11.033 5.0918 1.3946 2.0457 5.5998-1.0267 10.141-1.6895 4.5408-0.66274 9.5318 1.4067 10.709 0.87305 1.1772-0.5337-0.052936-2.1454-2.1699-2.9531-1.8524-0.70679-3.508-1.5131-6.3516-1.4199zm10.664 26.533c-4.2702 5.7137-11.452 11.446-20.939 12.754-9.4905 1.3086-18.757-7.1054-21.061-5.6016-2.3039 1.5038 9.1773 10.792 21.061 9.4961 11.793-1.2858 18.523-6.1911 20.885-10.83 0.029952-0.36614 0.054687-0.7333 0.054687-1.1074v-4.7109z" fill="#000000" opacity=".65"/>
 <path d="m25.856 28.359c-0.47431 0.88438 0.01555 4.7132 1.4809 5.2118 1.4653 0.49859 4.638 1.0676 6.0808 0.51649 1.4428-0.55109 4.9904-3.9595 4.9904-4.8439 0-0.88438-1.2423-5.5036-4.3061-5.5036s-7.7717 3.7348-8.246 4.6192z" fill="#91ed98"/>
 <circle cx="32.347" cy="29.573" r="1.7333" fill="#000000" opacity=".65"/>
</svg>
