<svg xmlns="http://www.w3.org/2000/svg" width="64" height="64" viewBox="0 0 16.933 16.933"><g transform="translate(0 -280.067)"><circle cx="8.467" cy="288.533" r="6.879" fill="#ee4c4c" paint-order="stroke markers fill"/><circle r="5.821" cy="288.533" cx="8.467" opacity=".15" paint-order="stroke markers fill"/><g fill="#fff"><path d="M3.704 288.533a4.763 4.763 0 0 0 4.763 4.763c.158-.199.158-.41 0-.635a4.127 4.127 0 0 1-4.128-4.128z" opacity=".5"/><path d="M8.467 283.77a4.762 4.762 0 0 0-4.763 4.763h.635a4.127 4.127 0 0 1 4.128-4.127 4.127 4.127 0 0 1 4.127 4.127 4.127 4.127 0 0 1-4.127 4.128v.635a4.762 4.762 0 0 0 4.762-4.763 4.762 4.762 0 0 0-4.762-4.762"/><path d="M3.882 287.263a4.762 4.762 0 0 0-.178 1.27 4.762 4.762 0 0 0 .291 1.63l1.932-2.9H3.882"/></g><rect width=".529" height="3.175" x="8.202" y="285.358" ry=".265" opacity=".9" fill="#fff" paint-order="stroke markers fill"/><rect ry="0" y="-213.318" x="-198.169" height="3.175" width=".265" transform="scale(1 -1) rotate(45)" opacity=".5" fill="#fff" paint-order="stroke markers fill"/><circle cx="8.467" cy="288.533" r=".529" fill="#fff" paint-order="stroke fill markers"/></g></svg>