<svg width="64" height="64" version="1.1" viewBox="0 0 16.933 16.933" xmlns="http://www.w3.org/2000/svg" xmlns:xlink="http://www.w3.org/1999/xlink">
 <defs>
  <linearGradient id="b" x1="46.168" x2="46.168" y1="57" y2="27.346" gradientTransform="scale(.26458)" gradientUnits="userSpaceOnUse">
   <stop offset="0"/>
   <stop stop-opacity="0" offset="1"/>
  </linearGradient>
 </defs>
 <rect x="1.852" y="1.852" width="13.229" height="13.229" rx=".794" ry=".794" fill="#e6e6e6" style="paint-order:markers stroke fill"/>
 <g transform="translate(-.022421 -.39919)" stroke-width=".26458">
  <path d="m4.3626 13.013 3.2872-8.323h1.6757l3.5738 8.2472-0.67278 0.22747-3.3199-7.6368h-0.83783l-2.9575 7.7131z" fill="#c9371b"/>
  <path d="m4.2101 13.354 0.53831 0.45536 8.3486-9.1198h-1.2567z" fill="#4dcb32"/>
  <path d="m12.554 13.715 0.51904-0.47421-7.9359-8.5509h-1.2567z" fill="#4dcb32"/>
  <path d="m3.4619 3.8387v0.85082h4.6081v9.2161h0.83783v-9.2161h4.6081v-0.85082z" fill="#1d8af3"/>
 </g>
 <path d="m15.081 7.235a11.906 11.906 0 0 1-5.732 7.846h4.938c0.44 0 0.794-0.354 0.794-0.794z" fill="url(#b)" opacity=".15" style="paint-order:markers stroke fill"/>
</svg>
