<svg xmlns="http://www.w3.org/2000/svg" width="64" height="64" style="isolation:isolate"><rect width="52" height="52" x="6" y="6" fill="#f35852" rx="8" ry="8" style="paint-order:stroke fill markers"/><path fill="#fff" d="m6 20.01 9.891 5.699c.526.303 1.38.304 1.907.002l19.233-11.014c.432-.247 1.13-.244 1.559.006l1.812 1.053c.787.458.786 1.199-.003 1.654L17.97 30.35c-.622.359-1.63.357-2.25-.003L6 24.697z"/><path fill="#fff" d="m6 29.414 9.891 5.699c.526.303 1.38.304 1.907.002l19.233-11.014c.432-.247 1.13-.244 1.559.005l1.812 1.054c.787.458.786 1.199-.003 1.654L17.97 39.754c-.622.359-1.63.357-2.25-.003L6 34.101z"/><path fill="#fff" d="m6 38.789 9.891 5.699c.526.303 1.38.304 1.907.002l19.233-11.014c.432-.247 1.13-.244 1.559.005l1.812 1.054c.787.458.786 1.199-.003 1.654L17.97 49.129c-.622.359-1.63.357-2.25-.003L6 43.476z"/></svg>