<svg width="64" height="64" style="isolation:isolate" version="1.1" viewBox="0 0 64 64" xmlns="http://www.w3.org/2000/svg" xmlns:xlink="http://www.w3.org/1999/xlink">
 <rect x="6" y="6" width="52" height="52" rx="8" ry="8" fill="#f35852" stroke-width="0" style="paint-order:stroke fill markers"/>
 <path d="m6 20.01 9.891 5.699c0.526 0.303 1.38 0.304 1.907 2e-3l19.233-11.014c0.432-0.247 1.13-0.244 1.559 6e-3l1.812 1.053c0.787 0.458 0.786 1.199-3e-3 1.654l-22.429 12.94c-0.622 0.359-1.63 0.357-2.25-3e-3l-9.72-5.65z" fill="#ffffff"/>
 <path d="m6 29.414 9.891 5.699c0.526 0.303 1.38 0.304 1.907 2e-3l19.233-11.014c0.432-0.247 1.13-0.244 1.559 5e-3l1.812 1.054c0.787 0.458 0.786 1.199-3e-3 1.654l-22.429 12.94c-0.622 0.359-1.63 0.357-2.25-3e-3l-9.72-5.65z" fill="#ffffff"/>
 <path d="m6 38.789 9.891 5.699c0.526 0.303 1.38 0.304 1.907 2e-3l19.233-11.014c0.432-0.247 1.13-0.244 1.559 5e-3l1.812 1.054c0.787 0.458 0.786 1.199-3e-3 1.654l-22.429 12.94c-0.622 0.359-1.63 0.357-2.25-3e-3l-9.72-5.65z" fill="#ffffff"/>
</svg>
