<svg xmlns="http://www.w3.org/2000/svg" width="64" height="64"><rect width="52" height="52" x="6" y="6" fill="#9ad1ea" rx="8" ry="8" style="paint-order:markers fill stroke"/><path fill="#f4f4e1" d="m27.304 28.478-3.522 1.174c-1.174 3.522-2.477 5.787-7.043 8.217 5.67 0 7.043-1.174 9.391-4.695zm7.043 0 1.174 4.696c2.348 3.521 3.722 4.695 9.392 4.695-4.567-2.43-5.87-4.695-7.044-8.217z"/><path fill="#545454" d="M19.087 17.913a2.34 2.34 0 0 0-2.348 2.348v3.522c.068 3.58 2.665 5.869 5.87 5.869h3.521v8.217c0 5.87 4.696 10.565 9.392 10.565 3.521 0 5.282-2.347 6.456-2.347.587 0 .822 1.173 1.76 1.173.588 0 1.175-.234 1.175-1.173 0-.587-1.174-1.115-1.174-1.41 0-1.173 0-2.112-1.174-2.112s0 2.348-2.348 2.348c-2.935 0-4.695-2.149-4.695-5.87v-9.391h7.043a2.34 2.34 0 0 0 2.348-2.348v-3.522c.076-3.533-2.665-5.87-5.87-5.87z"/><path fill="#f6f6ee" d="M26.13 21.435c-.587 0-1.186.464-1.174 1.76.009 1.55 1.374 2.936 2.348 2.936.587 0 1.174-.464 1.174-1.761 0-1.761-1.374-2.935-2.348-2.935m9.391 0c-.972 0-2.348 1.174-2.348 2.935 0 1.291.587 1.76 1.174 1.76.972 0 2.336-1.385 2.348-2.934.007-1.292-.587-1.761-1.174-1.761"/></svg>