<svg width="64" height="64" version="1.1" viewBox="0 0 64 64" xmlns="http://www.w3.org/2000/svg">
 <rect x="6" y="6" width="52" height="52" rx="8" ry="8" fill="#9ad1ea" stroke-linecap="round" stroke-linejoin="round" stroke-width="13.255" style="paint-order:markers fill stroke"/>
 <path d="m27.304 28.478-3.5217 1.1739c-1.1739 3.5217-2.4769 5.7873-7.0434 8.2173 5.6699 0 7.0434-1.1739 9.3912-4.6956zm7.0434 0 1.1739 4.6956c2.3478 3.5217 3.7213 4.6956 9.3912 4.6956-4.5665-2.43-5.8695-4.6956-7.0434-8.2173z" fill="#f4f4e1" stroke-width="1.1739"/>
 <path d="m19.087 17.913c-1.303 0-2.3478 1.0471-2.3478 2.3478v3.5217c0.06738 3.5804 2.6648 5.8695 5.8695 5.8695h3.5217v8.2173c0 5.8695 4.6956 10.565 9.3912 10.565 3.5217 0 5.2826-2.3478 6.4564-2.3478 0.58695 4.84e-4 0.82173 1.1739 1.7608 1.1739 0.58695-3.02e-4 1.1739-0.23478 1.1739-1.1739 0-0.58695-1.1739-1.114-1.1739-1.4087 0-1.1739 0-2.113-1.1739-2.113-1.1739 4.84e-4 0 2.3478-2.3478 2.3478-2.9348 0-4.6956-2.1482-4.6956-5.8695v-9.3912h7.0434c1.303 0 2.3478-1.0471 2.3478-2.3478v-3.5217c0.0763-3.5334-2.6648-5.8695-5.8695-5.8695z" fill="#545454" stroke-width="1.1739"/>
 <path d="m26.13 21.435c-0.58695 0-1.1856 0.46369-1.1739 1.7608 0.0089 1.5495 1.3735 2.9348 2.3478 2.9348 0.58695 0 1.1739-0.46369 1.1739-1.7608 0-1.7608-1.3735-2.9348-2.3478-2.9348zm9.3912 0c-0.97199 4e-6 -2.3478 1.1739-2.3478 2.9348 0 1.2913 0.58695 1.7608 1.1739 1.7608 0.97199 0 2.3361-1.3852 2.3478-2.9348 7e-3 -1.2913-0.58695-1.7608-1.1739-1.7608z" fill="#f6f6ee" stroke-width="1.1739"/>
</svg>
