<svg width="64" height="64" version="1.1" xmlns="http://www.w3.org/2000/svg">
 <rect x="6" y="6" width="52" height="52" rx="8.0002" ry="8.0002" fill="#222" fill-opacity=".99608" stroke-width=".9997"/>
 <g transform="translate(-99.809 2.2127)">
  <path d="m140.82 33.851c4.9108-7.6485 8.9472-13.962 8.9699-14.03 0.0309-0.0928-16.49-7.5428-17.751-8.0043-0.15259-0.05588-3.1764 1.2245-9.2156 3.9022-4.9437 2.1919-8.9899 4.0234-8.9916 4.0699-2e-3 0.04649 1.8031 2.8871 4.0107 6.3125s6.2435 9.7001 8.9688 13.944 4.983 7.7152 5.0174 7.7143c0.0344-8.92e-4 4.0804-6.2595 8.9911-13.908z" fill="#fff"/>
  <path d="m122.8 33.823c-4.8874-7.6022-8.8379-13.804-8.7789-13.781 0.059 0.0225 4.0799 1.8078 8.9352 3.9674l8.8278 3.9265v9.8547c0 5.4201-0.0221 9.8547-0.049 9.8547s-4.0478-6.22-8.9352-13.822z" fill="#c8c8c8"/>
  <path d="m131.78 37.875v-9.937l17.947-7.9805-0.4551 0.68769c-0.25031 0.37823-4.2675 6.6221-8.927 13.875s-8.4928 13.211-8.5184 13.24c-0.0256 0.02864-0.0464-4.4196-0.0464-9.8849z" fill="#8f8f8f"/>
 </g>
</svg>
