<svg xmlns="http://www.w3.org/2000/svg" width="64" height="64" viewBox="0 0 16.933 16.933"><g paint-order="stroke markers fill"><path d="M1.587 5.292v9.26c0 .147.119.265.265.265h13.23a.264.264 0 0 0 .264-.265v-9.26H1.587z" fill="#74c9d0"/><path d="M1.852 2.117a.264.264 0 0 0-.265.264v2.91h13.759v-2.91a.264.264 0 0 0-.265-.264z" fill="#333"/><path d="M4.895 2.117h1.852l1.058 1.587H5.953zM4.895 5.292h1.852l1.058-1.588H5.953zM10.054 2.117h1.852l1.059 1.587h-1.852zM10.054 5.292h1.852l1.059-1.588h-1.852z" fill="#fff"/><path d="M15.346 10.2a11.906 11.906 0 0 1-4.47 4.617h4.205a.264.264 0 0 0 .265-.265V10.2z" opacity=".1"/></g></svg>