<svg width="64" height="64" fill="none" version="1.1" viewBox="0 0 64 64" xmlns="http://www.w3.org/2000/svg">
 <rect x="6" y="6" width="52" height="52" rx="8" fill="#000"/>
 <path d="m38.238 26.944c0 2.1274-1.7244 3.8519-3.8517 3.8519s-3.8519-1.7245-3.8519-3.8519c0-2.1273 1.7246-3.8518 3.8519-3.8518s3.8517 1.7245 3.8517 3.8518zm-9.5492-2.6753c0-0.5522-0.4478-1-1-1h-13.407c-0.5523 0-1 0.4478-1 1l-1e-4 5.7037c0 0.5523 0.4478 1 1 1h5.7037c0.5523 0 1 0.4477 1 1v9.2989c0 0.5523 0.4478 1 1 1h5.7038c0.5522 0 1-0.4477 1-1zm13.25-0.3874c0.1559-0.3711 0.5193-0.6126 0.9219-0.6126h6.666c0.7144 0 1.1984 0.7275 0.9224 1.3864l-7.1225 17.003c-0.1558 0.3717-0.5194 0.6136-0.9224 0.6136h-6.6891c-0.7149 0-1.1988-0.7283-0.9219-1.3874z" clip-path="url(#clipPath9)" clip-rule="evenodd" fill="#fff" fill-rule="evenodd" mask="url(#mask7)"/>
 <defs>
  <mask id="mask7" maskUnits="userSpaceOnUse">
   <path d="m54.111 8.8889h-46.222v46.222h46.222z" fill="#fff"/>
  </mask>
  <clipPath id="clipPath9">
   <rect x="6" y="6" width="52" height="52" rx="8" fill="#fff"/>
  </clipPath>
 </defs>
</svg>
