<svg xmlns="http://www.w3.org/2000/svg" width="64" height="64"><g stroke-width=".741"><path fill="#1c9bf5" d="M32 5C17.042 5 5 17.042 5 32s12.042 27 27 27 27-12.042 27-27S46.958 5 32 5"/><path fill="#fff" d="M25.772 10.777a2.2 2.2 0 0 0-1.608.661 2.2 2.2 0 0 0-.664 1.609c0 .626.221 1.163.664 1.603a2.2 2.2 0 0 0 1.608.67c.629 0 1.16-.224 1.604-.67.443-.44.67-.977.67-1.603q0-.649-.317-1.163a2.4 2.4 0 0 0-.353-.446 2.18 2.18 0 0 0-1.604-.661m5.81 0a2.2 2.2 0 0 0-1.61.661 2.2 2.2 0 0 0-.664 1.609c0 .626.22 1.163.665 1.603a2.2 2.2 0 0 0 1.608.67 2.18 2.18 0 0 0 1.603-.67 2.18 2.18 0 0 0 .665-1.603 2.2 2.2 0 0 0-.665-1.609 2.2 2.2 0 0 0-1.603-.661zm5.808 0q-.945-.002-1.611.661a2.2 2.2 0 0 0-.665 1.609c0 .626.222 1.163.665 1.603a2.2 2.2 0 0 0 1.611.67 2.17 2.17 0 0 0 1.6-.67 2.17 2.17 0 0 0 .667-1.603q0-.648-.316-1.166a2.4 2.4 0 0 0-.35-.443 2.18 2.18 0 0 0-1.601-.661m-17.423 6.122a2.2 2.2 0 0 0-1.611.665q-.663.666-.662 1.605-.001.94.662 1.606a2.2 2.2 0 0 0 1.611.667q.939-.001 1.603-.667.669-.666.67-1.606 0-.648-.322-1.165a2.3 2.3 0 0 0-.348-.44 2.17 2.17 0 0 0-1.603-.665m23.226 0q-.941-.002-1.605.665a2.18 2.18 0 0 0-.665 1.605q-.002.94.665 1.606a2.2 2.2 0 0 0 1.606.667q.938-.001 1.605-.667a2.2 2.2 0 0 0 .665-1.606 2.2 2.2 0 0 0-.665-1.605 2.18 2.18 0 0 0-1.606-.665m-17.42 6.123q-.943-.002-1.608.664a2.2 2.2 0 0 0-.665 1.606q0 .941.665 1.608.204.207.44.351.518.314 1.168.314a2.2 2.2 0 0 0 1.603-.665 2.2 2.2 0 0 0 .67-1.608 2.18 2.18 0 0 0-.67-1.606 2.17 2.17 0 0 0-1.603-.664m5.809 0q-.944-.002-1.609.664a2.18 2.18 0 0 0-.664 1.606q-.002.941.664 1.608.205.207.44.351.52.314 1.169.314c.626 0 1.157-.224 1.603-.665q.664-.667.664-1.608 0-.649-.314-1.165a2.4 2.4 0 0 0-.35-.44 2.18 2.18 0 0 0-1.603-.665m5.808 0q-.944-.002-1.61.664a2.2 2.2 0 0 0-.665 1.606q0 .941.664 1.608.209.207.443.351.518.314 1.168.314.938-.002 1.6-.665.668-.667.668-1.608a2.2 2.2 0 0 0-.667-1.606 2.17 2.17 0 0 0-1.6-.664zm-5.808 6.122q-.944 0-1.609.665a2.18 2.18 0 0 0-.664 1.605q-.002.944.664 1.609a2.2 2.2 0 0 0 1.608.667 2.2 2.2 0 0 0 1.604-.667q.664-.665.664-1.608a2.2 2.2 0 0 0-.664-1.606 2.2 2.2 0 0 0-1.603-.665m0 6.123q-.944.002-1.609.664a2.2 2.2 0 0 0-.664 1.609q-.002.939.664 1.605a2.2 2.2 0 0 0 1.608.667 2.2 2.2 0 0 0 1.604-.667 2.2 2.2 0 0 0 .664-1.605 2.2 2.2 0 0 0-.664-1.609 2.2 2.2 0 0 0-1.603-.664m0 6.125a2.2 2.2 0 0 0-1.609.662q-.666.667-.664 1.608-.002.94.664 1.606a2.2 2.2 0 0 0 1.608.667 2.2 2.2 0 0 0 1.604-.667 2.2 2.2 0 0 0 .664-1.606 2.2 2.2 0 0 0-.664-1.608 2.2 2.2 0 0 0-1.603-.662m-5.809 6.122a2.2 2.2 0 0 0-1.608.662 2.2 2.2 0 0 0-.665 1.609q0 .939.665 1.605a2.2 2.2 0 0 0 1.608.667q.94-.001 1.603-.667c.663-.666.67-.98.67-1.605a2.2 2.2 0 0 0-.67-1.609 2.2 2.2 0 0 0-1.603-.662m5.809 0a2.2 2.2 0 0 0-1.609.662 2.2 2.2 0 0 0-.664 1.609q-.002.939.664 1.605a2.2 2.2 0 0 0 1.608.667 2.2 2.2 0 0 0 1.604-.667 2.2 2.2 0 0 0 .664-1.605 2.2 2.2 0 0 0-.664-1.609 2.2 2.2 0 0 0-1.603-.662"/><path fill="#fff" d="M25.772 16.899q-.943-.002-1.608.664a2.2 2.2 0 0 0-.664 1.606q0 .94.664 1.606.209.209.443.35.519.318 1.165.317c.629 0 1.16-.224 1.604-.667s.67-.98.67-1.606q0-.648-.32-1.165a2.3 2.3 0 0 0-.35-.44 2.17 2.17 0 0 0-1.604-.665m5.81 0q-.944-.002-1.61.664a2.18 2.18 0 0 0-.664 1.606q-.001.94.665 1.606a2.2 2.2 0 0 0 1.608.667 2.2 2.2 0 0 0 1.603-.667 2.2 2.2 0 0 0 .665-1.606q0-.648-.317-1.165a2.3 2.3 0 0 0-.348-.44 2.18 2.18 0 0 0-1.603-.665zm5.808 0q-.945-.002-1.611.664a2.2 2.2 0 0 0-.665 1.606q0 .94.665 1.606a2.2 2.2 0 0 0 1.611.667 2.18 2.18 0 0 0 1.6-.667q.668-.666.667-1.606.001-.648-.319-1.168a2.4 2.4 0 0 0-.348-.438 2.17 2.17 0 0 0-1.6-.664M14.158 23.02q-.943-.001-1.606.665-.668.666-.667 1.606-.001.94.667 1.608a2.2 2.2 0 0 0 1.606.664 2.2 2.2 0 0 0 1.605-.664 2.2 2.2 0 0 0 .667-1.608 2.2 2.2 0 0 0-.667-1.606 2.18 2.18 0 0 0-1.605-.665m5.808 0q-.942-.001-1.61.665-.664.666-.663 1.606 0 .94.662 1.608.209.206.443.35.518.315 1.168.315.939-.002 1.603-.665.67-.668.67-1.608a2.2 2.2 0 0 0-.67-1.606 2.17 2.17 0 0 0-1.603-.665m23.227 0a2.18 2.18 0 0 0-1.606.665 2.18 2.18 0 0 0-.664 1.606q-.002.94.664 1.608a2.2 2.2 0 0 0 1.606.664q.938-.001 1.606-.664.664-.668.664-1.608 0-.648-.316-1.166a2.3 2.3 0 0 0-.348-.44 2.18 2.18 0 0 0-1.606-.665m5.809 0c-.631 0-1.163.22-1.609.665q-.663.666-.662 1.606 0 .94.662 1.608a2.2 2.2 0 0 0 1.608.664q.94-.001 1.604-.664.667-.668.667-1.608a2.2 2.2 0 0 0-.667-1.606 2.17 2.17 0 0 0-1.603-.665m-34.845 6.123q-.943 0-1.606.664-.668.666-.667 1.606-.001.944.667 1.609a2.2 2.2 0 0 0 1.606.667c.628 0 1.16-.227 1.606-.667q.666-.665.667-1.609a2.2 2.2 0 0 0-.667-1.606 2.2 2.2 0 0 0-1.606-.664m5.808 0a2.2 2.2 0 0 0-1.61.664q-.664.666-.662 1.606-.002.944.661 1.609a2.2 2.2 0 0 0 1.611.667c.626 0 1.16-.227 1.603-.667q.67-.665.67-1.609 0-.644-.321-1.165a2.3 2.3 0 0 0-.349-.44 2.18 2.18 0 0 0-1.603-.665m5.807 0q-.944 0-1.609.664c-.665.664-.664.98-.664 1.606q0 .944.664 1.609.209.208.443.35.518.318 1.166.317c.628 0 1.16-.227 1.603-.667.443-.443.67-.98.67-1.609a2.18 2.18 0 0 0-.67-1.606 2.18 2.18 0 0 0-1.604-.664zm11.617 0c-.631 0-1.165.221-1.611.664a2.2 2.2 0 0 0-.665 1.606q0 .944.665 1.609a2.2 2.2 0 0 0 1.611.667 2.2 2.2 0 0 0 1.6-.667q.668-.665.667-1.609.001-.648-.319-1.165a2.3 2.3 0 0 0-.348-.44 2.18 2.18 0 0 0-1.6-.665m5.803 0q-.941 0-1.606.664a2.18 2.18 0 0 0-.664 1.606q-.002.944.664 1.609a2.2 2.2 0 0 0 1.606.667 2.2 2.2 0 0 0 1.606-.667q.665-.665.665-1.609 0-.648-.317-1.165a2.3 2.3 0 0 0-.348-.44 2.2 2.2 0 0 0-1.606-.665m5.809 0a2.2 2.2 0 0 0-1.608.664q-.663.666-.662 1.606-.001.944.662 1.609A2.2 2.2 0 0 0 49 33.69c.626 0 1.16-.227 1.603-.667q.668-.665.667-1.609.001-.648-.319-1.165a2.3 2.3 0 0 0-.348-.44A2.18 2.18 0 0 0 49 29.144zm-34.845 6.122q-.942.002-1.606.665-.667.667-.667 1.608 0 .94.667 1.606a2.2 2.2 0 0 0 1.606.667c.629 0 1.16-.224 1.606-.667q.666-.666.667-1.606 0-.648-.316-1.165a2.5 2.5 0 0 0-.351-.443 2.2 2.2 0 0 0-1.606-.665m5.809 0q-.944.002-1.611.665-.663.667-.662 1.608-.001.94.662 1.606.208.21.443.353.518.314 1.168.314.939-.001 1.603-.667.669-.666.67-1.606-.001-.648-.32-1.165a2.4 2.4 0 0 0-.35-.443 2.2 2.2 0 0 0-1.603-.665m5.806 0a2.2 2.2 0 0 0-1.609.665q-.664.667-.664 1.608 0 .94.664 1.606a2.2 2.2 0 0 0 1.608.667c.63 0 1.16-.224 1.604-.667s.67-.98.67-1.606a2.2 2.2 0 0 0-.67-1.608 2.2 2.2 0 0 0-1.603-.665m11.617 0q-.944.002-1.61.665-.666.667-.665 1.608 0 .94.664 1.606.209.21.443.353.518.314 1.168.314a2.18 2.18 0 0 0 1.6-.667q.668-.666.668-1.606 0-.647-.317-1.168a2.5 2.5 0 0 0-.35-.44 2.2 2.2 0 0 0-1.6-.665zm5.804 0q-.942.002-1.606.665-.667.667-.665 1.608-.001.94.665 1.606a2.2 2.2 0 0 0 1.606.667q.938-.001 1.605-.667a2.2 2.2 0 0 0 .665-1.606 2.2 2.2 0 0 0-.665-1.608 2.2 2.2 0 0 0-1.605-.665m5.808 0a2.2 2.2 0 0 0-1.608.665q-.663.667-.662 1.608-.001.94.662 1.606.208.21.443.353.517.314 1.165.314.939-.001 1.603-.667.668-.666.667-1.606a2.2 2.2 0 0 0-.316-1.168 2.5 2.5 0 0 0-.35-.44A2.2 2.2 0 0 0 49 35.266zm-29.036 6.126a2.2 2.2 0 0 0-1.61.661c-.444.446-.662.98-.662 1.609q-.002.94.661 1.606.209.21.443.353.52.314 1.168.314a2.2 2.2 0 0 0 1.604-.667q.669-.666.67-1.606-.002-.648-.32-1.166a2.3 2.3 0 0 0-.35-.443 2.2 2.2 0 0 0-1.604-.661m5.807 0a2.2 2.2 0 0 0-1.609.661q-.664.667-.664 1.609 0 .94.664 1.606a2.2 2.2 0 0 0 1.608.667c.629 0 1.16-.224 1.604-.667s.67-.98.67-1.606a2.2 2.2 0 0 0-.67-1.609 2.2 2.2 0 0 0-1.603-.661m11.617 0c-.631 0-1.165.22-1.611.661q-.665.667-.665 1.609 0 .94.665 1.606.208.21.443.353.518.314 1.168.314a2.18 2.18 0 0 0 1.6-.667q.668-.666.667-1.606 0-.648-.316-1.168a2.5 2.5 0 0 0-.35-.44 2.2 2.2 0 0 0-1.601-.662m5.803 0a2.2 2.2 0 0 0-1.605.661q-.667.667-.665 1.609-.002.94.665 1.606a2.2 2.2 0 0 0 1.606.667q.938-.001 1.605-.667a2.2 2.2 0 0 0 .665-1.606 2.2 2.2 0 0 0-.665-1.609 2.2 2.2 0 0 0-1.606-.661m-5.803 6.122c-.631 0-1.165.221-1.611.662a2.2 2.2 0 0 0-.665 1.608q0 .94.665 1.606.208.21.443.353.518.315 1.168.314a2.18 2.18 0 0 0 1.6-.667q.668-.666.667-1.606 0-.647-.316-1.168a2.5 2.5 0 0 0-.35-.44 2.2 2.2 0 0 0-1.601-.662" opacity=".35"/></g></svg>