<svg width="64" height="64" version="1.1" xmlns="http://www.w3.org/2000/svg" xmlns:xlink="http://www.w3.org/1999/xlink">
 <g transform="matrix(1.35 0 0 1.35 -.4 -22)" stroke-width=".74074">
  <path d="m24 20c-11.08 0-20 8.92-20 20s8.92 20 20 20 20-8.92 20-20-8.92-20-20-20z" fill="#1c9bf5"/>
  <path d="m19.387 24.279c-0.46554 0-0.86324 0.16206-1.1914 0.49023-0.32817 0.33008-0.49219 0.72777-0.49219 1.1914 0 0.46364 0.16402 0.86124 0.49219 1.1875 0.10112 0.10303 0.20979 0.19112 0.32617 0.26172 0.25567 0.15645 0.5447 0.23438 0.86523 0.23438 0.46554 0 0.85933-0.16602 1.1875-0.49609 0.32817-0.32626 0.49609-0.72386 0.49609-1.1875 0-0.32054-0.07792-0.60757-0.23438-0.86133-0.0706-0.11639-0.15869-0.22705-0.26172-0.33008-0.32817-0.32817-0.72196-0.49023-1.1875-0.49023zm4.3027 0c-0.46554 0-0.86324 0.16206-1.1914 0.49023-0.33008 0.33008-0.49219 0.72777-0.49219 1.1914 0 0.46364 0.16211 0.86124 0.49219 1.1875 0.10112 0.10303 0.20979 0.19112 0.32617 0.26172 0.25567 0.15645 0.5447 0.23438 0.86524 0.23438 0.46364 0 0.85742-0.16602 1.1875-0.49609 0.32817-0.32626 0.49219-0.72386 0.49219-1.1875 0-0.32054-0.07788-0.60761-0.23242-0.86328-0.0706-0.11639-0.15864-0.22509-0.25976-0.32812-0.33008-0.32817-0.72386-0.49023-1.1875-0.49023zm4.3027 0c-0.46745 0-0.86328 0.16206-1.1934 0.49023-0.32817 0.33008-0.49219 0.72777-0.49219 1.1914 0 0.46364 0.16402 0.86124 0.49219 1.1875 0.10303 0.10303 0.21174 0.19112 0.32812 0.26172 0.25567 0.15645 0.5447 0.23438 0.86523 0.23438 0.46364 0 0.85738-0.16602 1.1855-0.49609 0.33008-0.32626 0.49414-0.72386 0.49414-1.1875 0-0.32054-0.07792-0.60761-0.23437-0.86328-0.0706-0.11639-0.15674-0.22509-0.25977-0.32812-0.32817-0.32817-0.72191-0.49023-1.1855-0.49023zm-12.906 4.5352c-0.46554 0-0.86328 0.16211-1.1934 0.49219-0.32817 0.32817-0.49024 0.72582-0.49024 1.1895 0 0.46364 0.16206 0.86128 0.49024 1.1895 0.10303 0.10303 0.21369 0.19112 0.33008 0.26172 0.25376 0.15454 0.54274 0.23242 0.86328 0.23242 0.46364 0 0.85933-0.16597 1.1875-0.49414 0.33008-0.32817 0.49609-0.72582 0.49609-1.1895 0-0.32054-0.07992-0.60761-0.23828-0.86328-0.07059-0.11639-0.15669-0.22505-0.25781-0.32617-0.32817-0.33008-0.72386-0.49219-1.1875-0.49219zm17.205 0c-0.46554 0-0.86128 0.16211-1.1895 0.49219-0.33008 0.32817-0.49219 0.72582-0.49219 1.1895 0 0.46364 0.16211 0.86128 0.49219 1.1895 0.10303 0.10303 0.21174 0.19112 0.32812 0.26172 0.25376 0.15454 0.54079 0.23242 0.86133 0.23242 0.46364 0 0.85938-0.16597 1.1895-0.49414 0.32817-0.32817 0.49219-0.72582 0.49219-1.1895 0-0.32054-0.07792-0.60766-0.23438-0.86524-0.07059-0.11448-0.15669-0.2231-0.25781-0.32422-0.33008-0.33008-0.72582-0.49219-1.1895-0.49219zm-12.904 4.5352c-0.46554 0-0.86324 0.16211-1.1914 0.49219-0.32817 0.32817-0.49219 0.72582-0.49219 1.1895 0 0.46554 0.16402 0.86133 0.49219 1.1914 0.10112 0.10112 0.20979 0.18917 0.32617 0.25977 0.25567 0.15454 0.5447 0.23242 0.86523 0.23242 0.46554 0 0.85933-0.16592 1.1875-0.49219 0.32817-0.33008 0.49609-0.72586 0.49609-1.1914 0-0.31863-0.07792-0.60566-0.23438-0.86133-0.0706-0.11639-0.15869-0.2251-0.26172-0.32812-0.32817-0.33008-0.72196-0.49219-1.1875-0.49219zm4.3027 0c-0.46554 0-0.86324 0.16211-1.1914 0.49219-0.33008 0.32817-0.49219 0.72582-0.49219 1.1895 0 0.46554 0.16211 0.86133 0.49219 1.1914 0.10112 0.10112 0.20979 0.18917 0.32617 0.25977 0.25567 0.15454 0.5447 0.23242 0.86524 0.23242 0.46364 0 0.85742-0.16592 1.1875-0.49219 0.32817-0.33008 0.49219-0.72586 0.49219-1.1914 0-0.32054-0.07788-0.60761-0.23242-0.86328-0.0706-0.11639-0.15864-0.22505-0.25976-0.32617-0.33008-0.33008-0.72386-0.49219-1.1875-0.49219zm4.3027 0c-0.46745 0-0.86328 0.16211-1.1934 0.49219-0.32817 0.32817-0.49219 0.72582-0.49219 1.1895 0 0.46554 0.16402 0.86133 0.49219 1.1914 0.10303 0.10112 0.21174 0.18917 0.32812 0.25977 0.25567 0.15454 0.5447 0.23242 0.86523 0.23242 0.46364 0 0.85738-0.16592 1.1855-0.49219 0.33008-0.33008 0.49414-0.72586 0.49414-1.1914 0-0.32054-0.07792-0.60761-0.23437-0.86328-0.07059-0.11639-0.15864-0.22505-0.25977-0.32617-0.32817-0.33008-0.72191-0.49219-1.1855-0.49219zm-4.3027 4.5352c-0.46554 0-0.86324 0.16402-1.1914 0.49219-0.33008 0.32817-0.49219 0.72582-0.49219 1.1895 0 0.46554 0.16211 0.86324 0.49219 1.1914 0.10112 0.10303 0.20979 0.18917 0.32617 0.25977 0.25567 0.15645 0.5447 0.23438 0.86524 0.23438 0.46364 0 0.85742-0.16788 1.1875-0.49414 0.32817-0.32817 0.49219-0.72586 0.49219-1.1914 0-0.31863-0.07792-0.6057-0.23438-0.86328-0.0706-0.11639-0.15669-0.22505-0.25781-0.32617-0.33008-0.32817-0.72386-0.49219-1.1875-0.49219zm0 4.5352c-0.46554 0-0.86324 0.16592-1.1914 0.49219-0.33008 0.33008-0.49219 0.72586-0.49219 1.1914 0 0.46364 0.16211 0.86128 0.49219 1.1895 0.10112 0.10112 0.20979 0.18917 0.32617 0.25976 0.25567 0.15645 0.5447 0.23438 0.86524 0.23438 0.46364 0 0.85742-0.16597 1.1875-0.49414 0.32817-0.32817 0.49219-0.72582 0.49219-1.1895 0-0.32054-0.07788-0.60761-0.23242-0.86328-0.0706-0.11639-0.15864-0.22509-0.25976-0.32812-0.33008-0.32626-0.72386-0.49219-1.1875-0.49219zm0 4.5371c-0.46554 0-0.86324 0.16397-1.1914 0.49024-0.33008 0.33008-0.49219 0.72586-0.49219 1.1914 0 0.46364 0.16211 0.86128 0.49219 1.1895 0.10112 0.10112 0.20979 0.18917 0.32617 0.25977 0.25567 0.15645 0.5447 0.23438 0.86524 0.23438 0.46364 0 0.85742-0.16597 1.1875-0.49414 0.32817-0.32817 0.49219-0.72582 0.49219-1.1895 0-0.32054-0.07788-0.60761-0.23242-0.86328-0.0706-0.11639-0.15864-0.2251-0.25976-0.32812-0.33008-0.32626-0.72386-0.49024-1.1875-0.49024zm-4.3027 4.5352c-0.46554 0-0.86324 0.16397-1.1914 0.49023-0.32817 0.33008-0.49219 0.72777-0.49219 1.1914 0 0.46364 0.16402 0.86128 0.49219 1.1895 0.10112 0.10112 0.20979 0.18917 0.32617 0.25977 0.25567 0.15645 0.5447 0.23438 0.86523 0.23438 0.46554 0 0.85933-0.16597 1.1875-0.49414s0.49609-0.72582 0.49609-1.1895c0-0.31863-0.07792-0.6057-0.23438-0.86328-0.0706-0.11639-0.15869-0.2251-0.26172-0.32812-0.32817-0.32626-0.72196-0.49023-1.1875-0.49023zm4.3027 0c-0.46554 0-0.86324 0.16397-1.1914 0.49023-0.33008 0.33008-0.49219 0.72777-0.49219 1.1914 0 0.46364 0.16211 0.86128 0.49219 1.1895 0.10112 0.10112 0.20979 0.18917 0.32617 0.25977 0.25567 0.15645 0.5447 0.23438 0.86524 0.23438 0.46364 0 0.85742-0.16597 1.1875-0.49414 0.32817-0.32817 0.49219-0.72582 0.49219-1.1895 0-0.32054-0.07788-0.60761-0.23242-0.86328-0.0706-0.11639-0.15864-0.2251-0.25976-0.32812-0.33008-0.32626-0.72386-0.49023-1.1875-0.49023z" fill="#fff"/>
  <path d="m19.387 28.814c-0.46554 0-0.86324 0.16211-1.1914 0.49219-0.32817 0.32817-0.49219 0.72582-0.49219 1.1895 0 0.46364 0.16402 0.86128 0.49219 1.1895 0.10303 0.10303 0.21174 0.18917 0.32812 0.25976 0.25567 0.15645 0.54465 0.23438 0.86328 0.23438 0.46554 0 0.85933-0.16597 1.1875-0.49414s0.49609-0.72582 0.49609-1.1895c0-0.32054-0.07797-0.60761-0.23633-0.86328-0.0706-0.11639-0.15674-0.22505-0.25977-0.32617-0.32817-0.33008-0.72196-0.49219-1.1875-0.49219zm4.3027 0c-0.46554 0-0.86324 0.16211-1.1914 0.49219-0.33008 0.32817-0.49219 0.72582-0.49219 1.1895 0 0.46364 0.16211 0.86128 0.49219 1.1895 0.10112 0.10303 0.20979 0.18917 0.32617 0.25976 0.25567 0.15645 0.5447 0.23438 0.86524 0.23438 0.46364 0 0.85742-0.16597 1.1875-0.49414 0.32817-0.32817 0.49219-0.72582 0.49219-1.1895 0-0.32054-0.07792-0.60761-0.23438-0.86328-0.0706-0.11639-0.15669-0.22505-0.25781-0.32617-0.33008-0.33008-0.72386-0.49219-1.1875-0.49219zm4.3027 0c-0.46745 0-0.86328 0.16211-1.1934 0.49219-0.32817 0.32817-0.49219 0.72582-0.49219 1.1895 0 0.46364 0.16402 0.86128 0.49219 1.1895 0.10303 0.10303 0.21369 0.19112 0.33008 0.26172 0.25376 0.15454 0.54274 0.23242 0.86328 0.23242 0.46364 0 0.85738-0.16597 1.1855-0.49414 0.33008-0.32817 0.49414-0.72582 0.49414-1.1895 0-0.32054-0.07797-0.60766-0.23633-0.86524-0.07059-0.11448-0.15669-0.2231-0.25781-0.32422-0.32817-0.33008-0.72191-0.49219-1.1855-0.49219zm-17.209 4.5352c-0.46554 0-0.86128 0.16211-1.1895 0.49219-0.33008 0.32817-0.49414 0.72582-0.49414 1.1895 0 0.46554 0.16406 0.86133 0.49414 1.1914 0.10112 0.10112 0.21174 0.18917 0.32812 0.25977 0.25376 0.15454 0.54079 0.23242 0.86133 0.23242 0.46554 0 0.85937-0.16592 1.1895-0.49219 0.32817-0.33008 0.49414-0.72586 0.49414-1.1914 0-0.32054-0.07792-0.60761-0.23438-0.86328-0.07059-0.11639-0.15864-0.22505-0.25976-0.32617-0.33008-0.33008-0.72391-0.49219-1.1895-0.49219zm4.3027 0c-0.46554 0-0.86328 0.16211-1.1934 0.49219-0.32817 0.32817-0.49024 0.72582-0.49024 1.1895 0 0.46554 0.16206 0.86133 0.49024 1.1914 0.10303 0.10112 0.21174 0.18917 0.32812 0.25977 0.25567 0.15454 0.5447 0.23242 0.86523 0.23242 0.46364 0 0.85933-0.16592 1.1875-0.49219 0.33008-0.33008 0.49609-0.72586 0.49609-1.1914 0-0.32054-0.07987-0.60761-0.23633-0.86328-0.07059-0.11639-0.15674-0.22505-0.25977-0.32617-0.32817-0.33008-0.72386-0.49219-1.1875-0.49219zm17.205 0c-0.46554 0-0.86128 0.16211-1.1895 0.49219-0.33008 0.32817-0.49219 0.72582-0.49219 1.1895 0 0.46554 0.16211 0.86133 0.49219 1.1914 0.10112 0.10112 0.21174 0.18917 0.32812 0.25977 0.25376 0.15454 0.54079 0.23242 0.86133 0.23242 0.46364 0 0.85938-0.16592 1.1895-0.49219 0.32817-0.33008 0.49219-0.72586 0.49219-1.1914 0-0.32054-0.07792-0.60761-0.23438-0.86328-0.07059-0.11639-0.15669-0.22505-0.25781-0.32617-0.33008-0.33008-0.72582-0.49219-1.1895-0.49219zm4.3027 0c-0.46745 0-0.86133 0.16211-1.1914 0.49219-0.32817 0.32817-0.49023 0.72582-0.49023 1.1895 0 0.46554 0.16206 0.86133 0.49023 1.1914 0.10303 0.10112 0.21174 0.18917 0.32812 0.25977 0.25567 0.15454 0.54274 0.23242 0.86328 0.23242 0.46364 0 0.85933-0.16592 1.1875-0.49219 0.33008-0.33008 0.49414-0.72586 0.49414-1.1914 0-0.32054-0.07792-0.60761-0.23438-0.86328-0.07059-0.11639-0.15864-0.22505-0.25976-0.32617-0.32817-0.33008-0.72386-0.49219-1.1875-0.49219zm-25.811 4.5352c-0.46554 0-0.86128 0.16402-1.1895 0.49219-0.33008 0.32817-0.49414 0.72582-0.49414 1.1895 0 0.46554 0.16406 0.86324 0.49414 1.1914 0.10303 0.10303 0.21174 0.19112 0.32812 0.26172 0.25376 0.15455 0.54079 0.23242 0.86133 0.23242 0.46554 0 0.85937-0.16788 1.1895-0.49414 0.32817-0.32817 0.49414-0.72586 0.49414-1.1914 0-0.31863-0.07792-0.6057-0.23438-0.86328-0.07059-0.11639-0.15864-0.22505-0.25976-0.32617-0.33008-0.32817-0.72391-0.49219-1.1895-0.49219zm4.3027 0c-0.46554 0-0.86328 0.16402-1.1934 0.49219-0.32817 0.32817-0.49024 0.72582-0.49024 1.1895 0 0.46554 0.16206 0.86324 0.49024 1.1914 0.10303 0.10303 0.21369 0.19112 0.33008 0.26172 0.25376 0.15455 0.54274 0.23242 0.86328 0.23242 0.46364 0 0.85933-0.16788 1.1875-0.49414 0.33008-0.32817 0.49609-0.72586 0.49609-1.1914 0-0.31863-0.07992-0.6057-0.23828-0.86328-0.07059-0.11639-0.15669-0.22505-0.25781-0.32617-0.32817-0.32817-0.72386-0.49219-1.1875-0.49219zm4.3008 0c-0.46554 0-0.86324 0.16402-1.1914 0.49219s-0.49219 0.72582-0.49219 1.1895c0 0.46554 0.16402 0.86324 0.49219 1.1914 0.10303 0.10303 0.21174 0.18917 0.32812 0.25977 0.25567 0.15645 0.54465 0.23438 0.86328 0.23438 0.46554 0 0.85933-0.16788 1.1875-0.49414 0.32817-0.32817 0.49609-0.72586 0.49609-1.1914 0-0.31863-0.07792-0.60566-0.23438-0.86133-0.0706-0.11639-0.15869-0.2251-0.26172-0.32812-0.32817-0.32817-0.72196-0.49219-1.1875-0.49219zm8.6055 0c-0.46745 0-0.86328 0.16402-1.1934 0.49219-0.32817 0.32817-0.49219 0.72582-0.49219 1.1895 0 0.46554 0.16402 0.86324 0.49219 1.1914 0.10303 0.10303 0.21369 0.19112 0.33008 0.26172 0.25376 0.15455 0.54274 0.23242 0.86328 0.23242 0.46364 0 0.85738-0.16788 1.1855-0.49414 0.33008-0.32817 0.49414-0.72586 0.49414-1.1914 0-0.32054-0.07797-0.60761-0.23633-0.86328-0.07059-0.11639-0.15669-0.22505-0.25781-0.32617-0.32817-0.32817-0.72191-0.49219-1.1855-0.49219zm4.2988 0c-0.46554 0-0.86128 0.16402-1.1895 0.49219-0.33008 0.32817-0.49219 0.72582-0.49219 1.1895 0 0.46554 0.16211 0.86324 0.49219 1.1914 0.10303 0.10303 0.21174 0.19112 0.32812 0.26172 0.25376 0.15455 0.54079 0.23242 0.86133 0.23242 0.46364 0 0.85938-0.16788 1.1895-0.49414 0.32817-0.32817 0.49219-0.72586 0.49219-1.1914 0-0.32054-0.07792-0.60761-0.23438-0.86328-0.07059-0.11639-0.15669-0.22505-0.25781-0.32617-0.33008-0.32817-0.72582-0.49219-1.1895-0.49219zm4.3027 0c-0.46745 0-0.86133 0.16402-1.1914 0.49219-0.32817 0.32817-0.49023 0.72582-0.49023 1.1895 0 0.46554 0.16206 0.86324 0.49023 1.1914 0.10303 0.10303 0.21369 0.19112 0.33008 0.26172 0.25376 0.15455 0.54079 0.23242 0.86133 0.23242 0.46364 0 0.85933-0.16788 1.1875-0.49414 0.33008-0.32817 0.49414-0.72586 0.49414-1.1914 0-0.32054-0.07797-0.60761-0.23633-0.86328-0.07059-0.11639-0.15669-0.22505-0.25781-0.32617-0.32817-0.32817-0.72386-0.49219-1.1875-0.49219zm-25.811 4.5352c-0.46554 0-0.86128 0.16592-1.1895 0.49219-0.33008 0.33008-0.49414 0.72586-0.49414 1.1914 0 0.46364 0.16406 0.86128 0.49414 1.1895 0.10112 0.10303 0.21174 0.19112 0.32812 0.26172 0.25376 0.15454 0.54079 0.23242 0.86133 0.23242 0.46554 0 0.85937-0.16597 1.1895-0.49414 0.32817-0.32817 0.49414-0.72582 0.49414-1.1895 0-0.32054-0.07792-0.60761-0.23438-0.86328-0.07059-0.11639-0.15864-0.22509-0.25976-0.32812-0.33008-0.32626-0.72391-0.49219-1.1895-0.49219zm4.3027 0c-0.46554 0-0.86328 0.16592-1.1934 0.49219-0.32817 0.33008-0.49024 0.72586-0.49024 1.1914 0 0.46364 0.16206 0.86128 0.49024 1.1895 0.10303 0.10303 0.21174 0.19112 0.32812 0.26172 0.25567 0.15454 0.5447 0.23242 0.86523 0.23242 0.46364 0 0.85933-0.16597 1.1875-0.49414 0.33008-0.32817 0.49609-0.72582 0.49609-1.1895 0-0.32054-0.07987-0.60761-0.23633-0.86328-0.07059-0.11639-0.15674-0.22509-0.25977-0.32812-0.32817-0.32626-0.72386-0.49219-1.1875-0.49219zm4.3008 0c-0.46554 0-0.86324 0.16592-1.1914 0.49219-0.32817 0.33008-0.49219 0.72586-0.49219 1.1914 0 0.46364 0.16402 0.86128 0.49219 1.1895 0.10112 0.10112 0.20979 0.18917 0.32617 0.25976 0.25567 0.15645 0.5447 0.23438 0.86523 0.23438 0.46554 0 0.85933-0.16597 1.1875-0.49414s0.49609-0.72582 0.49609-1.1895c0-0.31863-0.07792-0.60571-0.23438-0.86328-0.0706-0.11639-0.15869-0.22509-0.26172-0.32812-0.32817-0.32626-0.72196-0.49219-1.1875-0.49219zm8.6055 0c-0.46745 0-0.86328 0.16592-1.1934 0.49219-0.32817 0.33008-0.49219 0.72586-0.49219 1.1914 0 0.46364 0.16402 0.86128 0.49219 1.1895 0.10303 0.10303 0.21174 0.19112 0.32812 0.26172 0.25567 0.15454 0.5447 0.23242 0.86523 0.23242 0.46364 0 0.85738-0.16597 1.1855-0.49414 0.33008-0.32817 0.49414-0.72582 0.49414-1.1895 0-0.32054-0.07792-0.60766-0.23437-0.86524-0.07059-0.11448-0.15864-0.22314-0.25977-0.32617-0.32817-0.32626-0.72191-0.49219-1.1855-0.49219zm4.2988 0c-0.46554 0-0.86128 0.16592-1.1895 0.49219-0.33008 0.33008-0.49219 0.72586-0.49219 1.1914 0 0.46364 0.16211 0.86128 0.49219 1.1895 0.10112 0.10303 0.21174 0.19112 0.32812 0.26172 0.25376 0.15454 0.54079 0.23242 0.86133 0.23242 0.46364 0 0.85938-0.16597 1.1895-0.49414 0.32817-0.32817 0.49219-0.72582 0.49219-1.1895 0-0.32054-0.07792-0.60766-0.23438-0.86524-0.07059-0.11448-0.15669-0.22314-0.25781-0.32617-0.33008-0.32626-0.72582-0.49219-1.1895-0.49219zm4.3027 0c-0.46745 0-0.86133 0.16592-1.1914 0.49219-0.32817 0.33008-0.49023 0.72586-0.49023 1.1914 0 0.46364 0.16206 0.86128 0.49023 1.1895 0.10303 0.10303 0.21174 0.19112 0.32812 0.26172 0.25567 0.15454 0.54274 0.23242 0.86328 0.23242 0.46364 0 0.85933-0.16597 1.1875-0.49414 0.33008-0.32817 0.49414-0.72582 0.49414-1.1895 0-0.32054-0.07792-0.60766-0.23438-0.86524-0.07059-0.11448-0.15864-0.22314-0.25976-0.32617-0.32817-0.32626-0.72386-0.49219-1.1875-0.49219zm-21.508 4.5371c-0.46554 0-0.86328 0.16397-1.1934 0.49024-0.32817 0.33008-0.49024 0.72586-0.49024 1.1914 0 0.46364 0.16206 0.86128 0.49024 1.1895 0.10303 0.10303 0.21174 0.19112 0.32812 0.26172 0.25567 0.15454 0.5447 0.23242 0.86523 0.23242 0.46364 0 0.85933-0.16597 1.1875-0.49414 0.33008-0.32817 0.49609-0.72582 0.49609-1.1895 0-0.32054-0.07987-0.60761-0.23633-0.86328-0.07059-0.11639-0.15674-0.2251-0.25977-0.32812-0.32817-0.32626-0.72386-0.49024-1.1875-0.49024zm4.3008 0c-0.46554 0-0.86324 0.16397-1.1914 0.49024-0.32817 0.33008-0.49219 0.72586-0.49219 1.1914 0 0.46364 0.16402 0.86128 0.49219 1.1895 0.10112 0.10112 0.20979 0.18917 0.32617 0.25977 0.25567 0.15645 0.5447 0.23438 0.86523 0.23438 0.46554 0 0.85933-0.16597 1.1875-0.49414s0.49609-0.72582 0.49609-1.1895c0-0.31863-0.07792-0.6057-0.23438-0.86328-0.0706-0.11639-0.15869-0.2251-0.26172-0.32812-0.32817-0.32626-0.72196-0.49024-1.1875-0.49024zm8.6055 0c-0.46745 0-0.86328 0.16397-1.1934 0.49024-0.32817 0.33008-0.49219 0.72586-0.49219 1.1914 0 0.46364 0.16402 0.86128 0.49219 1.1895 0.10303 0.10303 0.21174 0.19112 0.32812 0.26172 0.25567 0.15454 0.5447 0.23242 0.86523 0.23242 0.46364 0 0.85738-0.16597 1.1855-0.49414 0.33008-0.32817 0.49414-0.72582 0.49414-1.1895 0-0.32054-0.07792-0.60766-0.23437-0.86523-0.07059-0.11448-0.15864-0.22314-0.25977-0.32617-0.32817-0.32626-0.72191-0.49024-1.1855-0.49024zm4.2988 0c-0.46554 0-0.86128 0.16397-1.1895 0.49024-0.33008 0.33008-0.49219 0.72586-0.49219 1.1914 0 0.46364 0.16211 0.86128 0.49219 1.1895 0.10112 0.10303 0.21174 0.19112 0.32812 0.26172 0.25376 0.15454 0.54079 0.23242 0.86133 0.23242 0.46364 0 0.85938-0.16597 1.1895-0.49414 0.32817-0.32817 0.49219-0.72582 0.49219-1.1895 0-0.32054-0.07792-0.60766-0.23438-0.86523-0.07059-0.11448-0.15669-0.22314-0.25781-0.32617-0.33008-0.32626-0.72582-0.49024-1.1895-0.49024zm-4.2988 4.5352c-0.46745 0-0.86328 0.16397-1.1934 0.49023-0.32817 0.33008-0.49219 0.72777-0.49219 1.1914 0 0.46364 0.16402 0.86128 0.49219 1.1895 0.10303 0.10303 0.21174 0.19112 0.32812 0.26172 0.25567 0.15455 0.5447 0.23242 0.86523 0.23242 0.46364 0 0.85738-0.16597 1.1855-0.49414 0.33008-0.32817 0.49414-0.72582 0.49414-1.1895 0-0.32054-0.07792-0.60766-0.23437-0.86523-0.07059-0.11448-0.15864-0.22314-0.25977-0.32617-0.32817-0.32626-0.72191-0.49023-1.1855-0.49023z" fill="#fff" opacity=".35"/>
 </g>
</svg>
