<svg xmlns="http://www.w3.org/2000/svg" width="64" height="64" viewBox="0 0 16.933 16.933"><rect width="13.758" height="13.758" x="1.587" y="1.587" fill="#ff4c4c" fill-rule="evenodd" rx="2.117" ry="2.117" style="paint-order:stroke fill markers"/><path fill="none" stroke="#fff" stroke-width="3.226" d="M10.835 6.408q-.068.299-.102.647a1 1 0 0 0 .017.239q.026.17.026.238 0 .222-.29.222-.187 0-.247-.111a6 6 0 0 1 .009-.511q.017-.383.017-.51-.008 0-.026-.018-.791.035-1.49.102a1 1 0 0 0 0 .273l.034.306a7 7 0 0 0-.034.784q.026.22.026 1.898v.622q0 .145.042.204h.528q.324-.042.324.273 0 .188-.179.264-.11.042-.392.017a3 3 0 0 0-.4-.009q-.315.043-.766.069-.46.025-.562-.128-.069-.103 0-.213.12-.187.621-.187.264 0 .264-.145 0-.077-.008-.145 0-.213.008-.375.025-.46 0-1.294a24 24 0 0 1 .026-2.171l-.026-.026q-.264.018-.987-.008-.034 0-.52.034.12.818.136 1.166l-.017.23q-.008.128-.212.128-.163 0-.273-.613l-.102-.74q0-.06-.06-.205c-.034-.102-.109-.272-.109-.323 0-.18.166-.137.382-.171q.025 0 .085.008t.085.009h2.112a16 16 0 0 0 1.515-.136 1 1 0 0 1 .154-.051.4.4 0 0 1 .306.085q.128.093.085.272z"/><path fill="none" stroke="#ff4c4c" stroke-width="1.613" d="M10.83 6.41q-.069.297-.103.646-.008.094.017.239.026.17.026.238 0 .222-.29.222-.187 0-.246-.111-.009-.187.008-.511.017-.383.017-.51-.008 0-.025-.018-.792.034-1.49.102-.018.11 0 .273l.034.306q-.035.264-.035.784.026.221.026 1.898v.622q0 .145.043.204h.528q.323-.042.323.273 0 .187-.179.264-.11.042-.391.017-.17-.017-.4-.009-.316.043-.767.068-.46.026-.562-.127-.068-.102 0-.213.12-.187.622-.187.264 0 .264-.145 0-.077-.009-.145 0-.213.009-.375.025-.46 0-1.294-.034-1.209.025-2.171l-.025-.026q-.264.017-.988-.008-.034 0-.52.034.12.817.137 1.166l-.017.23q-.009.128-.213.128-.162 0-.273-.613l-.102-.74q0-.06-.06-.205-.05-.154-.05-.23 0-.213.323-.264.026 0 .085.008t.085.009H8.77q.783-.034 1.516-.136.05-.026.153-.051.179-.017.306.085.128.093.086.272z"/><path fill="#fff" d="M10.823 6.41q-.068.298-.102.647-.009.094.017.239.026.17.026.238 0 .221-.29.221-.187 0-.247-.11-.008-.188.009-.511.017-.383.017-.511-.009 0-.026-.017-.792.034-1.49.102-.017.11 0 .272l.034.307q-.034.264-.034.783.026.222.026 1.9v.62q0 .145.042.205h.528q.324-.043.324.272 0 .188-.18.264-.11.043-.39.017-.171-.017-.401-.008-.315.043-.766.068-.46.026-.562-.128-.068-.102 0-.213.119-.187.621-.187.264 0 .264-.145 0-.076-.008-.144 0-.213.008-.375.026-.46 0-1.294-.034-1.21.026-2.171l-.026-.026q-.264.017-.987-.008-.034 0-.52.034.12.817.136 1.166l-.017.23q-.008.128-.212.128-.162 0-.273-.613l-.102-.741q0-.06-.06-.204-.05-.154-.05-.23 0-.213.323-.264.025 0 .085.008t.085.009h2.112q.783-.034 1.515-.137.051-.025.153-.05.18-.018.307.085.128.093.085.272"/></svg>