<svg width="64" height="64" version="1.1" viewBox="0 0 64 64" xmlns="http://www.w3.org/2000/svg" xmlns:xlink="http://www.w3.org/1999/xlink">
 <rect x="6" y="6" width="52" height="52" rx="8" ry="8" fill="#e2434b" stroke-width="0" style="paint-order:stroke fill markers"/>
 <path d="m35.986 24.188s3.7083 0.6022 3.6973 2.125c0 0.0548 0.001134 0.099497-0.009766 0.1543-0.2172 1.3599-3.9332 1.5632-6.5098 1.7051-0.537 0.0295-1.0238 0.057797-1.4199 0.091797-0.3341 0.0286-0.75111 0.049619-1.2246 0.074219h-0.003906c-2.7819 0.1448-7.5119 0.39103-8.8574 2.7402-0.0765 0.1424-0.11914 0.28452-0.11914 0.41602-0.0045 1.0303 2.1976 1.9252 4.8457 3 3.8001 1.5423 8.5187 3.4573 8.957 6.6855 0.0219 0.1753 0.033203 0.36181 0.033203 0.53711-0.010573 5.339-10.957 10.087-24.645 15.584 0.99812 0.44572 2.1021 0.69922 3.2695 0.69922h36c4.432 0 8-3.568 8-8v-3.459c-1.4397-3.2895-3.7969-6.2691-7.5977-8.2422-4.965-2.5851-11.5-3.9849-16.379-5.0293-3.8056-0.8146-6.6045-1.4137-6.8633-2.1914-0.0219-0.0767-0.033203-0.15305-0.033203-0.21875 0.0109-1.2161 3.7859-1.5006 6.2578-1.6211 2.6141-0.1314 6.5735-0.48279 7.0547-2.3672 0.0148-0.0592 0.024497-0.11854 0.029297-0.17774 0.0023-0.0284 0.001953-0.055584 0.001953-0.083984 0.011-1.7529-4.4844-2.4219-4.4844-2.4219z" fill="#ffffff"/>
</svg>
