<svg xmlns="http://www.w3.org/2000/svg" width="64" height="64"><path fill="#e2434b" d="M14 6c-4.432 0-8 3.568-8 8v36a7.977 7.977 0 0 0 4.73 7.3c13.688-5.496 24.634-10.244 24.645-15.583a4.42 4.42 0 0 0-.033-.537c-.438-3.229-5.157-5.144-8.957-6.686-2.648-1.075-4.85-1.97-4.845-3 0-.131.042-.273.119-.416 1.345-2.349 6.075-2.595 8.857-2.74h.004c.474-.025.89-.046 1.225-.074.396-.034.883-.063 1.42-.092 2.576-.142 6.292-.345 6.51-1.705.01-.055.01-.1.01-.154.01-1.51-3.61-2.11-3.677-2.122.074.011 4.474.68 4.463 2.418 0 .029 0 .056-.002.084-.005.06-.014.119-.03.178-.48 1.885-4.442 2.236-7.056 2.367-2.472.12-6.245.405-6.256 1.621 0 .066.012.143.034.22.258.777 3.057 1.376 6.863 2.19 4.879 1.045 11.414 2.445 16.379 5.03 3.8 1.973 6.158 4.953 7.598 8.242v-32.54c0-4.433-3.568-8-8-8zm-3.27 51.301c-7.153-38.201-3.576-19.1 0 0z" style="paint-order:stroke fill markers"/><path fill="#f2f2f2" d="M35.986 24.188s3.708.602 3.697 2.125c0 .055.001.1-.01.154-.217 1.36-3.933 1.563-6.51 1.705-.536.03-1.023.058-1.42.092-.333.029-.75.05-1.224.074h-.004c-2.782.145-7.512.391-8.857 2.74a.896.896 0 0 0-.12.417c-.004 1.03 2.198 1.925 4.846 3 3.8 1.542 8.52 3.457 8.957 6.685.022.175.034.362.034.537-.01 5.34-10.957 10.087-24.645 15.584.998.446 2.102.7 3.27.7h36c4.431 0 8-3.569 8-8v-3.46c-1.44-3.289-3.798-6.269-7.599-8.242-4.965-2.585-11.5-3.985-16.379-5.029-3.805-.815-6.604-1.414-6.863-2.191a.818.818 0 0 1-.033-.22c.01-1.215 3.786-1.5 6.258-1.62 2.614-.132 6.573-.483 7.054-2.367.015-.06.025-.119.03-.178.002-.029.002-.056.002-.084.01-1.753-4.485-2.422-4.485-2.422z"/></svg>