<svg width="64" height="64" version="1.1" viewBox="0 0 64 64" xmlns="http://www.w3.org/2000/svg">
 <rect x="6" y="6" width="52" height="52" rx="8" ry="8" fill="#333333"/>
 <path d="m18.764 42.311 0.03146-0.89312 0.32598 0.86604c0.28453 0.75592 0.3595 0.86604 0.58959 0.86604 0.22808 0 0.31086-0.11682 0.61416-0.86667l0.35055-0.86667 0.03486 0.86667c0.0339 0.84293 0.04228 0.86667 0.30569 0.86667h0.27083v-2.7083l-0.75833-0.0617-0.3771 0.91553c-0.2074 0.50354-0.40828 0.89626-0.4464 0.8727-0.03811-0.02356-0.23074-0.43385-0.42806-0.91177-0.34668-0.83967-0.37086-0.86894-0.71819-0.86894h-0.35943v2.8167h0.26645c0.25896 0 0.26734-0.02513 0.29792-0.89312zm5.4041 0.72536c1.2644-0.65384 0.79292-2.6489-0.62599-2.6489-0.91449 0-1.4425 0.51551-1.4425 1.4083 0 1.126 1.0604 1.7619 2.0685 1.2406zm-1.2609-0.63982c-0.53521-0.53521-0.1567-1.4674 0.59583-1.4674 0.46837 0 0.76326 0.33484 0.76326 0.86667 0 0.81203-0.79598 1.1639-1.3591 0.60076zm4.4543-0.47404c0.55712-1.4254 0.57264-1.535 0.21732-1.535-0.2077 0-0.28981 0.08473-0.3937 0.40625-0.0722 0.22344-0.22959 0.6725-0.34976 0.99791l-0.21849 0.59166-0.33573-0.97083c-0.30456-0.8807-0.36339-0.97401-0.63364-1.0051-0.3675-0.04228-0.37189-0.11352 0.07088 1.1492 0.60517 1.7259 0.57268 1.6661 0.88484 1.6277 0.24652-0.03033 0.33368-0.17537 0.75828-1.2617zm1.7797-0.12671v-1.4083h-0.54166v2.8167h0.54166zm2.7083 1.1375c0-0.25606-0.0325-0.27083-0.59584-0.27083-0.58981 0-0.59583-0.0033-0.59583-0.325 0-0.31778 0.012-0.325 0.54167-0.325 0.46944 0 0.54166-0.02889 0.54166-0.21667s-0.0722-0.21667-0.54166-0.21667c-0.52963 0-0.54167-0.0072-0.54167-0.325 0-0.32172 6e-3 -0.325 0.59583-0.325 0.56334 0 0.59584-0.01477 0.59584-0.27083 0-0.26632-0.0144-0.27083-0.86667-0.27083h-0.86667v2.8167h0.86667c0.85222 0 0.86667-0.0045 0.86667-0.27083zm2.4259 0.02708c0.59232-0.53216 0.3949-1.0878-0.48887-1.3759-0.43341-0.14129-0.58286-0.24272-0.58286-0.39559 0-0.26971 0.54258-0.34153 0.80257-0.10624 0.1628 0.14733 0.21518 0.14956 0.39667 0.01685 0.35312-0.25821-0.15989-0.71203-0.80489-0.71203-1.28 0-1.3704 1.4685-0.1035 1.6825 0.49038 0.08285 0.65342 0.33651 0.35605 0.55395-0.27545 0.20141-0.3448 0.18795-0.6611-0.12835-0.42882-0.42882-0.9225-0.16603-0.55455 0.29518 0.37637 0.47175 1.2084 0.55777 1.6405 0.16959zm3.6051 0.08324c0.20243-0.14179 0.24469-0.14179 0.36237 0 0.0733 0.08828 0.28261 0.16051 0.46521 0.16051h0.332l-0.30958-0.32313c-0.29174-0.30451-0.29915-0.33466-0.1286-0.52311 0.18519-0.20464 0.25267-0.77875 0.0915-0.77875-0.0492 0-0.20388 0.1218-0.34373 0.27067-0.23377 0.24883-0.26954 0.25686-0.4434 0.09952-0.17962-0.16255-0.17868-0.1816 0.0187-0.37901 0.49833-0.49833 0.11315-1.2235-0.6177-1.1629-0.58999 0.04888-0.83347 0.47795-0.55167 0.97216 0.18831 0.33023 0.18756 0.34599-0.0271 0.57447-0.66564 0.70854 0.3391 1.6589 1.1519 1.0896zm-0.75873-0.34505c-0.11236-0.11236-0.085-0.44876 0.0429-0.52783 0.19263-0.11906 0.55643 0.281 0.41286 0.454-0.13027 0.15697-0.33888 0.19076-0.4558 0.07383zm0.0725-1.5059c-0.0903-0.2353 0.13893-0.45657 0.303-0.2925 0.13868 0.13867 0.0528 0.46228-0.12271 0.46228-0.0633 0-0.14445-0.0764-0.18029-0.16978zm4.8386 0.87395v-1.1375h0.44087c0.39523 0 0.43728-0.02523 0.40625-0.24375-0.0533-0.37519-2.29-0.38145-2.3434-0.0066-0.0297 0.20849 0.0228 0.24127 0.43333 0.27083l0.4671 0.03364 0.0309 1.1104c0.0306 1.0997 0.0335 1.1104 0.29792 1.1104 0.26688 0 0.26704-6.93e-4 0.26704-1.1375zm3.3119-0.14412c0.55711-1.4254 0.57264-1.535 0.21731-1.535-0.20769 0-0.28981 0.08473-0.3937 0.40625-0.0722 0.22344-0.22959 0.6725-0.34975 0.99791l-0.21849 0.59166-0.33573-0.97083c-0.30456-0.8807-0.36338-0.97401-0.63364-1.0051-0.3752-0.04317-0.37397-0.02211 0.0702 1.1935 0.62281 1.7046 0.57631 1.6214 0.88554 1.5834 0.24651-0.03033 0.33368-0.17537 0.75828-1.2617z" fill="#fdb613" stroke-width=".10833"/>
 <g transform="translate(.73002)" stroke-width=".10833">
  <path d="m13.933 39.036c1.1566-0.34349 1.5772-1.1387 1.6461-3.1125l0.04802-1.3762 0.3936 0.315c2.1596 1.7284 5.8697 0.8254 7.3288-1.7837 1.2013-2.1481 0.95202-5.3357-0.55826-7.1385-1.6767-2.0016-4.9061-2.4229-6.8915-0.89923l-0.51458 0.39492v-0.97357h-3.1432l0.02785 7.2844 0.02784 7.2844 0.325 0.06949c0.53208 0.11376 0.74577 0.10326 1.3104-0.06441zm3.1242-6.3286c-1.5313-0.69552-2.3004-2.6123-1.5934-3.9709 1.4954-2.8735 5.6145-2.0019 5.6546 1.1965 0.02637 2.1013-2.1978 3.6207-4.0613 2.7744zm11.646 2.8626c0.30813-0.15934 1.1987-1.0949 1.1987-1.2593 0-0.04821-0.15385-0.31561-0.34189-0.59424s-0.49273-0.87825-0.67709-1.3325l-0.33519-0.82593-0.0318-5.3896-0.0318-5.3896h-3.2472l0.06084 12.621 0.25885 0.57283c0.59966 1.327 2.1487 2.1135 3.1466 1.5975zm8.1766-0.0057c0.94145-0.24522 1.9202-0.8429 2.6228-1.6017 0.69293-0.7483 1.256-1.5751 1.1687-1.7163-0.0314-0.05087-0.80821-0.09249-1.7262-0.09249h-1.669l-0.37056 0.32536c-0.95497 0.83848-2.1957 0.8629-3.2434 0.06383-0.41085-0.31337-0.83526-1.0514-0.83526-1.4526v-0.23663h8.3417v-0.89807c0-4.6636-5.0581-7.4362-8.8793-4.8673-2.0368 1.3694-2.9356 3.8318-2.3324 6.3903 0.6954 2.9495 3.9378 4.863 6.9229 4.0855zm-3.9445-6.9489c0-0.35208 0.54458-1.1014 1.0379-1.4282 1.2066-0.79923 2.8391-0.46931 3.7243 0.75266 0.63246 0.87308 0.67766 0.85562-2.2164 0.85562-2.3011 0-2.5458-0.01731-2.5458-0.18007zm17.527 6.9062c0.22107-0.11395 0.56757-0.37962 0.77-0.5904l0.36806-0.38322-0.64555-0.73669c-0.81896-0.93457-1.5141-1.8651-1.9866-2.6596-0.44746-0.75224-0.446-0.75205-0.81905-0.10833-0.16402 0.28302-0.5892 0.91744-0.94484 1.4098l-0.64662 0.89523 0.31163 0.45001c1.2044 1.7392 2.4256 2.3249 3.593 1.7232zm-1.2972-7.0241c0.29887-0.46177 0.9918-1.4977 1.5398-2.3021s1.0205-1.5234 1.0499-1.5979c0.0415-0.10522-0.37062-0.13542-1.8482-0.13542h-1.9016l-0.3864 0.56875c-0.21252 0.31281-0.53571 0.76904-0.71821 1.0138l-0.33181 0.44508 0.95584 1.4237c0.52572 0.78302 0.98767 1.4237 1.0266 1.4237 0.0389 0 0.31526-0.37781 0.61412-0.83958z" fill="#ffffff"/>
  <path d="m45.675 32.723c0.99588-1.4747 1.8113-2.7312 1.812-2.7924 7.6e-4 -0.06111-0.46149-0.79236-1.0271-1.625-0.56563-0.83264-1.3837-2.038-1.8179-2.6785l-0.78953-1.1646h-1.8898c-1.4814 0-1.8729 0.02926-1.8115 0.13542 0.0431 0.07448 0.8565 1.2908 1.8076 2.7029 1.0877 1.6149 1.7056 2.6291 1.6655 2.7336-0.0351 0.0914-0.82123 1.2863-1.747 2.6554-0.92578 1.3691-1.6832 2.5399-1.6832 2.6018 0 0.07347 0.63771 0.11259 1.8352 0.11259h1.8352z" fill="#ebaf00"/>
 </g>
</svg>
