<svg width="64" height="64" version="1.1" viewBox="0 0 16.933 16.933" xmlns="http://www.w3.org/2000/svg">
 <rect x="1.5875" y="1.5875" width="13.758" height="13.758" rx="2.1166" ry="2.1166" fill="#f2f2f2" stroke-width=".92853"/>
 <rect x="2.9104" y="2.9104" width="11.112" height="11.112" rx=".79373" ry=".79373" fill="#000000" opacity=".1" stroke-width=".74997"/>
 <path d="m11.853 4.2332h-6.7732l-0.21166 3.3867h0.63498c0.084793-0.58632 0.17504-1.1586 0.30831-1.5338 0.31499-0.85617 0.5612-0.98705 1.385-0.98705 0.39977 0 0.63498 0.12899 0.63498 0.42216v5.8044c0 0.49234 0 0.52748-0.91609 0.52748h-0.3539v0.84665h3.8099v-0.84665h-0.354c-0.96945 0-0.91609-0.03514-0.91609-0.52748v-5.8044c0-0.29317 0.23522-0.42216 0.63498-0.42216 0.73895 0 1.0096 0.083985 1.3124 0.78757 0.18202 0.43384 0.28405 1.0646 0.38099 1.7331h0.63498z" fill="#4d4d4d" stroke-width=".21167"/>
</svg>
