<svg width="64" height="64" version="1.1" viewBox="0 0 64 64" xmlns="http://www.w3.org/2000/svg">
 <rect x="5" y="5" width="54" height="54" ry="27" fill="#f2f2f2" stroke-width=".9104"/>
 <path d="m16.498 21.5v14.022c0 1.6995 0.177 3.2475 0.522 4.6605 0.3465 1.3755 0.8745 2.6025 1.6995 3.6 2.0625 2.493 5.0955 3.2145 7.881 3.2175 3.399 0.0045 6.399-0.3675 9.399-1.5v-23.994h-4.5v20.994c-1.5 0.3885-3 0.5475-4.4235 0.561-2.2335 0.021-3.8205-0.6555-4.77-1.9665-0.9435-1.311-1.3065-3.489-1.3065-6.528v-13.065" fill="#ff7700" stroke-width="1.5"/>
 <path d="m42 14h3v36h-3" fill="#333333" stroke-width="1.4412"/>
</svg>
