<svg xmlns="http://www.w3.org/2000/svg" width="64" height="64"><path fill="#e4e4e4" d="M7.143 10C4.848 10 3 12.017 3 14.522V49.91C3 52.176 4.848 54 7.143 54h49.714C59.152 54 61 52.176 61 49.91V14.521C61 12.018 59.152 10 56.857 10z"/><path fill="#3d3846" d="M9.003 14h2.994c1.106 0 1.886.897 1.996 2l.499 5c.11 1.103-.89 2-1.996 2H8.504c-1.106 0-2.106-.897-1.996-2l.5-5c.11-1.103.89-2 1.995-2"/><path fill="#625f67" d="M14 15.667v1.667c0 .923-.892 1.666-2 1.666H9c-1.108 0-2-.743-2-1.666v-1.667C7 14.744 7.892 14 9 14h3c1.108 0 2 .744 2 1.667"/><path fill="#76757a" d="M22.111 37h19.778c1.153 0 1.967.897 2.082 2l.52 5c.115 1.103-.928 2-2.082 2H21.59c-1.153 0-2.196-.897-2.081-2l.52-5c.115-1.103.929-2 2.082-2"/><path fill="#aeadad" d="M44 38.667v1.667c0 .923-.93 1.666-2.087 1.666H22.087C20.931 42 20 41.257 20 40.334v-1.667c0-.923.93-1.667 2.087-1.667h19.826c1.156 0 2.087.744 2.087 1.667"/><path fill="#c64600" d="M47.003 26h2.994c1.106 0 1.886.897 1.996 2l.499 5c.11 1.103-.89 2-1.996 2h-3.992c-1.106 0-2.106-.897-1.996-2l.5-5c.11-1.103.89-2 1.995-2"/><path fill="#ff7402" d="M52 27.667v1.667c0 .923-.892 1.666-2 1.666h-3c-1.108 0-2-.743-2-1.666v-1.667c0-.923.892-1.667 2-1.667h3c1.108 0 2 .744 2 1.667"/><path fill="#3d3846" d="M12.003 37h2.994c1.106 0 1.886.897 1.996 2l.499 5c.11 1.103-.89 2-1.996 2h-3.992c-1.106 0-2.106-.897-1.996-2l.5-5c.11-1.103.89-2 1.995-2"/><path d="M3 45.937v3.97C3 52.175 4.847 54 7.143 54h49.715C59.153 54 61 52.174 61 49.908v-3.971c0 2.266-1.847 4.092-4.143 4.092H7.142C4.847 50.03 3 48.203 3 45.937" opacity=".2"/><path fill="#3d3846" d="M20.003 14h2.994c1.106 0 1.886.897 1.996 2l.499 5c.11 1.103-.89 2-1.996 2h-3.992c-1.106 0-2.106-.897-1.996-2l.5-5c.11-1.103.89-2 1.995-2"/><path fill="#625f67" d="M25 15.667v1.667c0 .923-.892 1.666-2 1.666h-3c-1.108 0-2-.743-2-1.666v-1.667c0-.923.892-1.667 2-1.667h3c1.108 0 2 .744 2 1.667"/><path fill="#3d3846" d="M31.003 14h2.994c1.106 0 1.886.897 1.996 2l.499 5c.11 1.103-.89 2-1.996 2h-3.992c-1.106 0-2.106-.897-1.996-2l.5-5c.11-1.103.89-2 1.995-2"/><path fill="#625f67" d="M36 15.667v1.667c0 .923-.892 1.666-2 1.666h-3c-1.108 0-2-.743-2-1.666v-1.667c0-.923.892-1.667 2-1.667h3c1.108 0 2 .744 2 1.667"/><path fill="#3d3846" d="M42.003 14h2.994c1.106 0 1.886.897 1.996 2l.499 5c.11 1.103-.89 2-1.996 2h-3.992c-1.106 0-2.106-.897-1.996-2l.5-5c.11-1.103.89-2 1.995-2"/><path fill="#625f67" d="M47 15.667v1.667c0 .923-.892 1.666-2 1.666h-3c-1.108 0-2-.743-2-1.666v-1.667c0-.923.892-1.667 2-1.667h3c1.108 0 2 .744 2 1.667"/><path fill="#3d3846" d="M53.003 14h2.994c1.106 0 1.886.897 1.996 2l.499 5c.11 1.103-.89 2-1.996 2h-3.992c-1.106 0-2.106-.897-1.996-2l.5-5c.11-1.103.89-2 1.995-2"/><path fill="#625f67" d="M58 15.667v1.667c0 .923-.892 1.666-2 1.666h-3c-1.108 0-2-.743-2-1.666v-1.667c0-.923.892-1.667 2-1.667h3c1.108 0 2 .744 2 1.667"/><path fill="#3d3846" d="M14.003 26h2.994c1.106 0 1.886.897 1.996 2l.499 5c.11 1.103-.89 2-1.996 2h-3.992c-1.106 0-2.106-.897-1.996-2l.5-5c.11-1.103.89-2 1.995-2"/><path fill="#625f67" d="M19 27.667v1.667c0 .923-.892 1.666-2 1.666h-3c-1.108 0-2-.743-2-1.666v-1.667c0-.923.892-1.667 2-1.667h3c1.108 0 2 .744 2 1.667"/><path fill="#3d3846" d="M25.003 26h2.994c1.106 0 1.886.897 1.996 2l.499 5c.11 1.103-.89 2-1.996 2h-3.992c-1.106 0-2.106-.897-1.996-2l.5-5c.11-1.103.89-2 1.995-2"/><path fill="#625f67" d="M30 27.667v1.667c0 .923-.892 1.666-2 1.666h-3c-1.108 0-2-.743-2-1.666v-1.667c0-.923.892-1.667 2-1.667h3c1.108 0 2 .744 2 1.667"/><path fill="#3d3846" d="M36.003 26h2.994c1.106 0 1.886.897 1.996 2l.499 5c.11 1.103-.89 2-1.996 2h-3.992c-1.106 0-2.106-.897-1.996-2l.5-5c.11-1.103.89-2 1.995-2"/><path fill="#625f67" d="M41 27.667v1.667c0 .923-.892 1.666-2 1.666h-3c-1.108 0-2-.743-2-1.666v-1.667c0-.923.892-1.667 2-1.667h3c1.108 0 2 .744 2 1.667m-24 11v1.667c0 .923-.892 1.666-2 1.666h-3c-1.108 0-2-.743-2-1.666v-1.667c0-.923.892-1.667 2-1.667h3c1.108 0 2 .744 2 1.667"/><path fill="#3d3846" d="M49.003 37h2.994c1.106 0 1.886.897 1.996 2l.499 5c.11 1.103-.89 2-1.996 2h-3.992c-1.106 0-2.106-.897-1.996-2l.5-5c.11-1.103.89-2 1.995-2"/><path fill="#625f67" d="M54 38.667v1.667c0 .923-.892 1.666-2 1.666h-3c-1.108 0-2-.743-2-1.666v-1.667c0-.923.892-1.667 2-1.667h3c1.108 0 2 .744 2 1.667"/></svg>