<svg width="64" height="64" version="1.1" viewBox="0 0 64 64" xmlns="http://www.w3.org/2000/svg">
 <path d="m7.1429 10c-2.2951 0-4.1429 2.0174-4.1429 4.5224v35.387c0 2.2664 1.8477 4.0909 4.1429 4.0909h49.714c2.2951 0 4.1429-1.8245 4.1429-4.0909v-35.387c0-2.5049-1.8477-4.5224-4.1429-4.5224z" enable-background="new" fill="#e4e4e4"/>
 <path d="m9.0031 14h2.9938c1.1057 0 1.8858 0.8975 1.9958 2l0.49896 5c0.11003 1.1025-0.89015 2-1.9958 2h-3.9917c-1.1057 0-2.1059-0.8975-1.9958-2l0.49896-5c0.11002-1.1025 0.89015-2 1.9958-2z" enable-background="new" fill="#3d3846"/>
 <path d="m14 15.667v1.6667c0 0.92333-0.892 1.6667-2 1.6667h-3c-1.108 0-2-0.74333-2-1.6667v-1.6667c0-0.92333 0.892-1.6667 2-1.6667h3c1.108 0 2 0.74333 2 1.6667z" enable-background="new" fill="#625f67"/>
 <path d="m22.111 37h19.778c1.1534 0 1.9671 0.8975 2.0819 2l0.52047 5c0.11476 1.1025-0.92852 2-2.0819 2h-20.819c-1.1534 0-2.1967-0.89749-2.0819-2l0.52047-5c0.11476-1.1025 0.92852-2 2.0819-2z" enable-background="new" fill="#76757a"/>
 <path d="m44 38.667v1.6667c0 0.92333-0.93078 1.6667-2.087 1.6667h-19.826c-1.1562 0-2.087-0.74333-2.087-1.6667v-1.6667c0-0.92333 0.93078-1.6667 2.087-1.6667h19.826c1.1562 0 2.087 0.74333 2.087 1.6667z" enable-background="new" fill="#aeadad"/>
 <path d="m47.003 26h2.9938c1.1057 0 1.8858 0.89749 1.9958 2l0.49896 5c0.11003 1.1025-0.89015 2-1.9958 2h-3.9917c-1.1057 0-2.1059-0.89749-1.9958-2l0.49896-5c0.11002-1.1025 0.89015-2 1.9958-2z" enable-background="new" fill="#c64600"/>
 <path d="m52 27.667v1.6667c0 0.92333-0.892 1.6667-2 1.6667h-3c-1.108 0-2-0.74333-2-1.6667v-1.6667c0-0.92333 0.892-1.6667 2-1.6667h3c1.108 0 2 0.74333 2 1.6667z" enable-background="new" fill="#ff7402"/>
 <path d="m12.003 37h2.9938c1.1057 0 1.8858 0.8975 1.9958 2l0.49896 5c0.11003 1.1025-0.89015 2-1.9958 2h-3.9917c-1.1057 0-2.1059-0.8975-1.9958-2l0.49896-5c0.11002-1.1025 0.89015-2 1.9958-2z" enable-background="new" fill="#3d3846"/>
 <path d="m3 45.937v3.9706c0 2.2664 1.8473 4.0921 4.1425 4.0921h49.715c2.2951 0 4.1425-1.8257 4.1425-4.0921v-3.9706c0 2.2664-1.8473 4.0921-4.1425 4.0921h-49.715c-2.2951 0-4.1425-1.8257-4.1425-4.0921z" enable-background="new" opacity=".2"/>
 <path d="m20.003 14h2.9938c1.1057 0 1.8858 0.8975 1.9958 2l0.49896 5c0.11003 1.1025-0.89015 2-1.9958 2h-3.9917c-1.1057 0-2.1059-0.8975-1.9958-2l0.49896-5c0.11002-1.1025 0.89015-2 1.9958-2z" enable-background="new" fill="#3d3846"/>
 <path d="m25 15.667v1.6667c0 0.92333-0.892 1.6667-2 1.6667h-3c-1.108 0-2-0.74333-2-1.6667v-1.6667c0-0.92333 0.892-1.6667 2-1.6667h3c1.108 0 2 0.74333 2 1.6667z" enable-background="new" fill="#625f67"/>
 <path d="m31.003 14h2.9938c1.1057 0 1.8858 0.8975 1.9958 2l0.49896 5c0.11003 1.1025-0.89015 2-1.9958 2h-3.9917c-1.1057 0-2.1059-0.8975-1.9958-2l0.49896-5c0.11002-1.1025 0.89015-2 1.9958-2z" enable-background="new" fill="#3d3846"/>
 <path d="m36 15.667v1.6667c0 0.92333-0.892 1.6667-2 1.6667h-3c-1.108 0-2-0.74333-2-1.6667v-1.6667c0-0.92333 0.892-1.6667 2-1.6667h3c1.108 0 2 0.74333 2 1.6667z" enable-background="new" fill="#625f67"/>
 <path d="m42.003 14h2.9938c1.1057 0 1.8858 0.8975 1.9958 2l0.49896 5c0.11003 1.1025-0.89015 2-1.9958 2h-3.9917c-1.1057 0-2.1059-0.8975-1.9958-2l0.49896-5c0.11002-1.1025 0.89015-2 1.9958-2z" enable-background="new" fill="#3d3846"/>
 <path d="m47 15.667v1.6667c0 0.92333-0.892 1.6667-2 1.6667h-3c-1.108 0-2-0.74333-2-1.6667v-1.6667c0-0.92333 0.892-1.6667 2-1.6667h3c1.108 0 2 0.74333 2 1.6667z" enable-background="new" fill="#625f67"/>
 <path d="m53.003 14h2.9938c1.1057 0 1.8858 0.8975 1.9958 2l0.49896 5c0.11003 1.1025-0.89015 2-1.9958 2h-3.9917c-1.1057 0-2.1059-0.8975-1.9958-2l0.49896-5c0.11002-1.1025 0.89015-2 1.9958-2z" enable-background="new" fill="#3d3846"/>
 <path d="m58 15.667v1.6667c0 0.92333-0.892 1.6667-2 1.6667h-3c-1.108 0-2-0.74333-2-1.6667v-1.6667c0-0.92333 0.892-1.6667 2-1.6667h3c1.108 0 2 0.74333 2 1.6667z" enable-background="new" fill="#625f67"/>
 <path d="m14.003 26h2.9938c1.1057 0 1.8858 0.8975 1.9958 2l0.49896 5c0.11003 1.1025-0.89015 2-1.9958 2h-3.9917c-1.1057 0-2.1059-0.8975-1.9958-2l0.49896-5c0.11002-1.1025 0.89015-2 1.9958-2z" enable-background="new" fill="#3d3846"/>
 <path d="m19 27.667v1.6667c0 0.92333-0.892 1.6667-2 1.6667h-3c-1.108 0-2-0.74333-2-1.6667v-1.6667c0-0.92333 0.892-1.6667 2-1.6667h3c1.108 0 2 0.74333 2 1.6667z" enable-background="new" fill="#625f67"/>
 <path d="m25.003 26h2.9938c1.1057 0 1.8858 0.8975 1.9958 2l0.49896 5c0.11003 1.1025-0.89015 2-1.9958 2h-3.9917c-1.1057 0-2.1059-0.8975-1.9958-2l0.49896-5c0.11002-1.1025 0.89015-2 1.9958-2z" enable-background="new" fill="#3d3846"/>
 <path d="m30 27.667v1.6667c0 0.92333-0.892 1.6667-2 1.6667h-3c-1.108 0-2-0.74333-2-1.6667v-1.6667c0-0.92333 0.892-1.6667 2-1.6667h3c1.108 0 2 0.74333 2 1.6667z" enable-background="new" fill="#625f67"/>
 <path d="m36.003 26h2.9938c1.1057 0 1.8858 0.8975 1.9958 2l0.49896 5c0.11003 1.1025-0.89015 2-1.9958 2h-3.9917c-1.1057 0-2.1059-0.8975-1.9958-2l0.49896-5c0.11002-1.1025 0.89015-2 1.9958-2z" enable-background="new" fill="#3d3846"/>
 <path d="m41 27.667v1.6667c0 0.92333-0.892 1.6667-2 1.6667h-3c-1.108 0-2-0.74333-2-1.6667v-1.6667c0-0.92333 0.892-1.6667 2-1.6667h3c1.108 0 2 0.74333 2 1.6667z" enable-background="new" fill="#625f67"/>
 <path d="m17 38.667v1.6667c0 0.92333-0.892 1.6667-2 1.6667h-3c-1.108 0-2-0.74333-2-1.6667v-1.6667c0-0.92333 0.892-1.6667 2-1.6667h3c1.108 0 2 0.74333 2 1.6667z" enable-background="new" fill="#625f67"/>
 <path d="m49.003 37h2.9938c1.1057 0 1.8858 0.8975 1.9958 2l0.49896 5c0.11003 1.1025-0.89015 2-1.9958 2h-3.9917c-1.1057 0-2.1059-0.8975-1.9958-2l0.49896-5c0.11002-1.1025 0.89015-2 1.9958-2z" enable-background="new" fill="#3d3846"/>
 <path d="m54 38.667v1.6667c0 0.92333-0.892 1.6667-2 1.6667h-3c-1.108 0-2-0.74333-2-1.6667v-1.6667c0-0.92333 0.892-1.6667 2-1.6667h3c1.108 0 2 0.74333 2 1.6667z" enable-background="new" fill="#625f67"/>
</svg>
