<svg xmlns="http://www.w3.org/2000/svg" width="64" height="64"><rect width="52" height="52" x="6" y="6" fill="#20a5a7" rx="8" ry="8"/><path fill="#fff" fill-rule="evenodd" d="M6 41v9c0 4.432 3.568 8 8 8h36c4.432 0 8-3.568 8-8v-9z" opacity=".5"/><path fill="#232629" d="M32 45c-1.662 0-3 1.338-3 3s1.338 3 3 3a2.993 2.993 0 0 0 2.813-2h8.375A2.99 2.99 0 0 0 49 48c0-1.662-1.338-3-3-3a2.993 2.993 0 0 0-2.813 2h-8.375A2.99 2.99 0 0 0 32 45" opacity=".2"/><path d="M34.81 49h8.375a2.99 2.99 0 0 0 5.813-1c0-1.662-1.338-3-3-3a2.993 2.993 0 0 0-2.813 2H34.81c.188 1 .188 1 0 2" opacity=".5"/><path fill="#20a5a7" d="M18 45c-1.662 0-3 1.338-3 3s1.338 3 3 3a2.993 2.993 0 0 0 2.813-2h8.375A2.99 2.99 0 0 0 35 48c0-1.662-1.338-3-3-3a2.993 2.993 0 0 0-2.813 2h-8.375A2.99 2.99 0 0 0 18 45"/><path fill="#fcfcfc" d="M30.286 14v17.143l-7.714-7.714L20 26l12 12 12-12-2.571-2.571-7.714 7.714V14z"/></svg>