<svg width="64" height="64" version="1.1" xmlns="http://www.w3.org/2000/svg">
 <rect x="5" y="5" width="54" height="54" ry="27" fill="#f2f2f2" stroke-width=".9104"/>
 <path id="Shape" d="m38.952 31.996v-14.974l9.0009-3.8102v19.4c0 2.34-9.0009 2.6114-9.0009-0.61996z" fill="#599ccd"/>
 <path d="m31.377 48.897c-2.8162 0-5.2534-0.39384-7.3025-1.1791s-2.6288-2.2628-3.9067-3.6153c-0.6858-0.72191 5.7087 0.42262 9.9695-0.50649 4.09-0.84442 6.0628-3.6416 6.7436-4.3076 1.3807-1.3484 2.0657-3.6375 2.0657-6.8688v-13.83c3.7118 1.4356 8.3972 6.336 9.0017 11.658v2.7882c0 2.3392-0.32756 4.486-0.98351 6.4372s-1.6627 3.6285-3.0127 5.0221c-1.3559 1.3986-3.0716 2.4798-5.1597 3.2437-2.0873 0.7696-4.5577 1.1478-7.4211 1.1478z" fill="#7ec183"/>
 <path d="m36.528 40.132c-0.85083 1.605-4.7708 6.4216-12.269 7.1805l-1.0822 0.02796c-1.6486-0.74658-3.0418-1.7094-4.1712-2.8959-1.3335-1.3978-2.3178-3.0628-2.9522-4.9975-0.63937-1.9347-0.95863-4.0725-0.95863-6.4076v-5.4365l9.0017-3.9664v8.7863c0 1.6181 0.18327 2.9954 0.55395 4.1284 0.36571 1.1355 0.87322 2.0556 1.5167 2.7692 0.64351 0.71533 1.4189 1.2251 2.3302 1.5293 0.9122 0.30833 1.9131 0.46127 2.9995 0.46127 2.2117 0 4.0087-0.67669 5.3902-2.0235l-0.35493 0.84442z" fill="#4675ab"/>
</svg>
