<svg xmlns="http://www.w3.org/2000/svg" width="64" height="64"><rect width="54" height="54" x="5" y="5" fill="#f2f2f2" ry="27"/><path fill="#599ccd" d="M38.952 31.996V17.022l9-3.81v19.4c0 2.34-9 2.611-9-.62z"/><path fill="#7ec183" d="M31.377 48.897q-4.226 0-7.303-1.18c-3.077-1.18-2.628-2.262-3.906-3.614-.686-.722 5.709.422 9.97-.507 4.09-.844 6.062-3.641 6.743-4.307 1.38-1.349 2.066-3.638 2.066-6.87V18.59c3.711 1.436 8.397 6.337 9.001 11.659v2.788q0 3.51-.983 6.437c-.983 2.927-1.663 3.629-3.013 5.022-1.356 1.399-3.072 2.48-5.16 3.244-2.087.77-4.557 1.148-7.42 1.148z"/><path fill="#4675ab" d="M36.528 40.132c-.85 1.605-4.77 6.422-12.269 7.18l-1.082.028c-1.649-.746-3.042-1.709-4.171-2.895q-2-2.096-2.953-4.998-.958-2.903-.958-6.408v-5.436l9.001-3.966v8.786q0 2.428.554 4.128c.366 1.136.874 2.056 1.517 2.77a5.37 5.37 0 0 0 2.33 1.529q1.37.462 3 .461 3.318-.002 5.39-2.023l-.355.844z"/></svg>