<svg xmlns="http://www.w3.org/2000/svg" xmlns:xlink="http://www.w3.org/1999/xlink" width="64" height="64" viewBox="0 0 16.933 16.933"><defs><linearGradient xlink:href="#c" id="g" x1="11.5" x2="87.433" y1="58.159" y2="58.159" gradientTransform="translate(0 -5.469)" gradientUnits="userSpaceOnUse"/><linearGradient id="c"><stop offset="0" style="stop-color:#48a6b7;stop-opacity:.40000001"/><stop offset=".6" style="stop-color:#48a6b7;stop-opacity:.40000001"/><stop offset="1" style="stop-color:#e6e6e6;stop-opacity:0"/></linearGradient><linearGradient xlink:href="#e" id="h" x1="57.225" x2="75.912" y1="58.159" y2="58.159" gradientTransform="matrix(1.38685 0 0 1 -25.768 -3.629)" gradientUnits="userSpaceOnUse"/><linearGradient id="e"><stop offset="0" style="stop-color:#f8fcfc;stop-opacity:0"/><stop offset=".496" style="stop-color:#fff;stop-opacity:.28729364"/><stop offset="1" style="stop-color:#fff;stop-opacity:0"/></linearGradient><clipPath id="f" clipPathUnits="userSpaceOnUse"><ellipse cx="64" cy="52.672" fill="#f0f0f0" rx="52.5" ry="50.641" style="fill:#2a273f;fill-opacity:1;stroke-width:7.21756;paint-order:stroke fill markers"/></clipPath></defs><circle cx="8.466" cy="8.466" r="7.144" fill="#f0f0f0" style="paint-order:stroke fill markers;fill:#2a273f;fill-opacity:1"/><g clip-path="url(#f)" transform="matrix(.13608 0 0 .14107 -.243 1.036)"><rect width="105" height="105" x="11.5" y="2.03" rx="8" ry="8" style="fill:url(#g);fill-opacity:1"/><g transform="translate(0 1.092)"><circle cx="49.706" cy="67.495" r="5.926" style="fill:#f6c177;fill-opacity:1;stroke-width:.542636" transform="rotate(-15)"/><path d="M62.855 66.488a11.807 8.77 75 0 0 4.322 16.129l8.151 6.46 3.83-9.67a11.807 8.77 75 0 0-4.323-16.127 11.807 8.77 75 0 0-11.98 3.208M78.06 59.34a11.807 8.77 3.621 0 0 16.664 1.054l8.724-5.661-7.94-6.717a11.807 8.77 3.621 0 0-16.663-1.053 11.807 8.77 3.621 0 0-.786 12.376Zm-2.712-17.497a8.77 11.807 17.744 0 0 5.089-15.904l-3.362-9.842-8.451 6.062a8.77 11.807 17.744 0 0-5.088 15.902 8.77 11.807 17.744 0 0 11.811 3.782zM58.514 39.73a11.807 8.77 35.551 0 0-13.586-9.71l-10.398.192 3.187 9.9A11.807 8.77 35.551 0 0 51.3 49.818a11.807 8.77 35.551 0 0 7.212-10.088ZM51.39 55.29a8.77 11.807 52.628 0 0-13.27 10.136l-2.871 9.996 10.4-.14a8.77 11.807 52.628 0 0 13.267-10.134 8.77 11.807 52.628 0 0-7.526-9.857Z" style="fill:#eb6f92;fill-opacity:1;stroke-width:1.16141"/><path d="M226.936 18.156v7.658h7.66v-7.658zm0 15.319v7.634h-7.659v7.66h7.659v.022h22.978v7.637h7.658V48.77h-7.658v-7.637h-15.318v-7.658zm22.978 22.953h-7.66v7.658h7.66zm-30.637-.024v7.66h7.659v-7.66zm7.659 7.66v15.319h-7.659v7.658h15.319V64.064Z" style="fill:#8c4257;fill-opacity:1;stroke-width:.983178" transform="translate(-164.695 -3.108)scale(1.0591)"/><path d="M219.277 18.133v22.976h7.659v-7.634h7.66v-7.66h-7.66v-7.682zm7.659 30.637v15.294h-7.659v15.319h7.659V64.086h15.318v-7.658h7.66V48.77h-15.318z" style="fill:#eb6f92;fill-opacity:1;stroke-width:.983178" transform="translate(-164.695 -3.108)scale(1.0591)"/><path d="M219.277 48.769h7.659v7.659h-7.659z" style="fill:#f6c177;fill-opacity:1;stroke-width:.983178" transform="translate(-164.695 -3.108)scale(1.0591)"/></g><path d="M53.595 2.03H79.51v105H53.595Z" style="opacity:1;fill:url(#h);fill-opacity:1;stroke-width:13.522"/><path d="M65.58 2.03h1.943v105H65.58Z" style="opacity:1;fill:#fff;fill-opacity:1;stroke-width:3.70295"/></g></svg>