<svg xmlns="http://www.w3.org/2000/svg" xmlns:xlink="http://www.w3.org/1999/xlink" width="64" height="64" version="1"><defs><linearGradient id="a"><stop offset="0"/><stop offset="1" stop-opacity="0"/></linearGradient><linearGradient xlink:href="#a" id="b" x1="29.928" y1="41" x2="60" y2="41" gradientUnits="userSpaceOnUse" gradientTransform="matrix(1 0 0 1.01357 0 -.787)"/></defs><g transform="translate(2.286 3.143) scale(.92857)" stroke-width="1.077"><path fill="#b7b7b7" d="M11.538 5.231h40.923V26H11.538z"/><rect ry="2.534" rx="2.5" y="23.538" x="4" height="34.462" width="56" fill="#4d4d4d"/><rect ry="2" rx="2" y="32" x="16" height="4" width="32" opacity=".4"/><rect ry="2" rx="2" y="40" x="20" height="4" width="24" opacity=".4"/><rect ry="2" rx="2" y="48" x="24" height="4" width="16" opacity=".4"/><path opacity=".5" d="M15.846 13.846h9.692v5.385h-9.692z"/><path d="M49.813 23.538a34.983 35.458 0 0 1 .085 2.475A34.983 35.458 0 0 1 29.928 58H57.5c1.385 0 2.5-1.13 2.5-2.534V26.072c0-1.403-1.115-2.534-2.5-2.534z" opacity=".25" fill="url(#b)"/><path opacity=".5" d="M38.462 13.846h9.692v5.385h-9.692z"/></g><circle cx="48" r="14" cy="48" fill="#45d157"/><path d="M41 49l7 8 7-8h-4V39h-6v10z" fill="#fff"/></svg>