<svg xmlns="http://www.w3.org/2000/svg" width="64" height="64" viewBox="0 0 16.933 16.933"><g transform="translate(0 -280.07)"><circle cx="8.466" cy="288.53" r="7.144" fill="#71a5e8" style="paint-order:stroke markers fill"/><path fill="#fff" d="M8.467 282.713a5.82 5.82 0 0 0-5.821 5.82 5.82 5.82 0 0 0 2.131 4.498h.915a5.3 5.3 0 0 0 2.775.794 5.3 5.3 0 0 0 2.78-.794h.908a5.82 5.82 0 0 0 2.132-4.498 5.82 5.82 0 0 0-5.82-5.82" opacity=".15" paint-order="stroke markers fill"/><path fill="#fff" d="M7.937 287.475v4.233h1.059v-4.233zm1.059-1.323a.529.529 0 1 1-1.057.001.529.529 0 0 1 1.057 0z"/></g></svg>