<svg width="64" height="64" version="1.1" viewBox="0 0 16.933 16.933" xmlns="http://www.w3.org/2000/svg">
 <g transform="translate(0 -280.07)">
  <rect transform="matrix(0,-1,-1,0,0,0)" x="-295.68" y="-15.61" width="14.287" height="14.287" rx="7.1436" ry="7.1436" fill="#46d177"/>
  <path d="m12.583 284.42c-0.24172-0.24172-0.50022-0.45592-0.7699-0.64639h-1.0465c-1.4511-0.70371-3.1486-0.70371-4.5997 0h-1.0472c-0.26951 0.19039-0.52758 0.40481-0.76917 0.64639-2.2803 2.2803-2.2803 5.9522 0 8.2325 0.24159 0.24158 0.49966 0.456 0.76917 0.64639h1.0472c1.451 0.70371 3.1486 0.70371 4.5997 0h1.0465c0.26968-0.19047 0.52818-0.40467 0.7699-0.64639 2.2803-2.2803 2.2803-5.9522 0-8.2325z" opacity=".15"/>
  <path d="M9.15 285.358c-1.372 0-2.505 1.123-2.505 2.495 0 .521.176 1 .453 1.403l-1.67 1.672a.455.456 0 0 0 .636.652l1.67-1.673c.403.277.894.44 1.416.44a2.499 2.499 0 0 0 2.492-2.494 2.499 2.499 0 0 0-2.492-2.495zm0 .907c.882 0 1.586.705 1.586 1.588 0 .882-.704 1.587-1.586 1.587a1.579 1.579 0 0 1-1.585-1.587c0-.883.703-1.588 1.585-1.588z" fill="#fff"/>
 </g>
</svg>
