<svg xmlns="http://www.w3.org/2000/svg" width="64" height="64" viewBox="0 0 16.933 16.933"><g transform="translate(0 -280.07)"><rect width="14.287" height="14.287" x="-295.68" y="-15.61" fill="#46d177" rx="7.144" ry="7.144" transform="scale(1 -1)rotate(90)"/><path d="M12.583 284.42a6 6 0 0 0-.77-.646h-1.046a5.28 5.28 0 0 0-4.6 0H5.12a5.81 5.81 0 0 0 0 9.525h1.047a5.28 5.28 0 0 0 4.6 0h1.046a5.81 5.81 0 0 0 .77-8.879" opacity=".15"/><path fill="#fff" d="M9.15 285.358a2.51 2.51 0 0 0-2.505 2.495c0 .521.176 1 .453 1.403l-1.67 1.672a.455.456 0 0 0 .636.652l1.67-1.673a2.5 2.5 0 0 0 1.416.44 2.5 2.5 0 0 0 2.492-2.494 2.5 2.5 0 0 0-2.492-2.495m0 .907a1.58 1.58 0 0 1 1.586 1.588 1.58 1.58 0 0 1-1.586 1.587 1.58 1.58 0 0 1-1.585-1.587c0-.883.703-1.588 1.585-1.588"/></g></svg>