<svg xmlns="http://www.w3.org/2000/svg" width="64" height="64"><path fill="#c4c7cc" d="M25.9 43.834c-.52 0-.9.378-.9.834v10.955L20.922 56H20.9c-.52 0-.9.378-.9.834V58h24v-1.166c0-.456-.381-.834-.9-.834h-.024L39 55.623V44.668c0-.456-.38-.834-.9-.834z"/><rect width="60" height="40" x="2" y="6" fill="#2f3337" rx="6" ry="6"/><rect width="54" height="34" x="5" y="9" fill="#5294e2" rx="3" ry="3"/><path fill="#fff" d="M9.477 20A44 44 0 0 0 5 20.277V40c0 1.662 1.338 3 3 3h40.08A43.98 43.98 0 0 0 9.478 20z" opacity=".15" style="paint-order:stroke markers fill"/><path fill="#fff" d="M59 28.787A43.98 43.98 0 0 0 33.092 43H56c1.662 0 3-1.338 3-3z" opacity=".15" style="paint-order:stroke markers fill"/><circle cx="50.501" cy="17.499" r="5.499" fill="#ffdb8a" style="paint-order:stroke markers fill"/></svg>