<svg width="64" height="64" version="1.1" viewBox="0 0 64 64" xmlns="http://www.w3.org/2000/svg">
 <g transform="matrix(1.2143 0 0 1.2143 -6.8572 -6.8569)">
  <path d="m57.542 46h-8.5141v-4.8466l4.257-2.149z" fill="#2bac8f"/>
  <path d="m53.284 39.004h-8.5135l0.85191 3.7644 3.4051 3.2307z" fill="#2e997c"/>
  <path d="m49.029 46h-8.5141l1.7032-4.8466 2.5538-2.149z" fill="#278768"/>
  <path d="m40.513 32.005-3.4051-2.1646-5.109 2.1646 4.257 6.9951z" fill="#21674f"/>
  <path d="m44.773 39.004-4.2564-1.0823-4.257 1.0823 4.257 6.9951z" fill="#2a8d70"/>
  <path d="m44.773 38.998h-8.5135l2.0923-3.4383 2.1642-3.5568z" fill="#2f9f81"/>
  <path d="m57.542 18h-8.5135v3.7494l4.2564 3.2457z" fill="#96cfba"/>
  <path d="m53.284 24.995h-8.5141l0.85128-4.8616 3.4051-2.1335z" fill="#85c8b1"/>
  <path d="m49.029 18h-8.5135v3.7494l4.2564 3.2457z" fill="#6bbfa4"/>
  <path d="m44.773 24.996-4.2564 1.6004-4.257-1.6004 4.257-6.9951z" fill="#52b99b"/>
  <path d="m44.773 25.002h-8.5135l0.85192 3.2157 3.4051 3.7793z" fill="#44b799"/>
  <path d="m40.513 31.999h-8.5135l4.257-6.9951z" fill="#33b394"/>
  <path d="m36.256 38.999-4.2564 2.149-4.2577-2.149 4.257-6.9951z" fill="#2da4ad"/>
  <path d="m36.257 39.004h-8.5141l0.1362 4.5511 4.1208 2.4446z" fill="#2f98af"/>
  <path d="m31.997 46h-8.5141l6.3e-4 -4.8466 4.2564-2.149 2.0986 3.4479z" fill="#0d657a"/>
  <path d="m27.742 39.004-4.2564-1.0823-4.2577 1.0823 4.257 6.9951" fill="#2a69b1"/>
  <path d="m27.742 38.998h-8.5135l0.85191-4.313 3.4051-2.6821z" fill="#2077bc"/>
  <path d="m23.485 32.005-5.1077-2.1646-3.4064 2.1646 4.257 6.9951" fill="#2886c7"/>
  <path d="m23.486 31.999h-8.5141l6.3e-4 -5.3965 4.2564-1.5998z" fill="#238dcd"/>
  <path d="m19.253 24.981-4.2816-1.6309-4.2577 1.6309 4.2697 7.016" fill="#1a9cd1"/>
  <path d="m19.228 24.995h-8.5135l0.85191-3.2463 3.4051-3.7488z" fill="#0ea6d3"/>
  <path d="m14.972 18h-8.5135l4.257 6.9951z" fill="#08abd8"/>
 </g>
</svg>
