<svg xmlns="http://www.w3.org/2000/svg" width="64" height="64"><circle cx="32" cy="32" r="28" fill="#fafafa" color="#5294e2"/><g stroke-width="0"><path fill="#ed945e" d="M164.95 12a28 28 0 0 0-6.582 10h52.223a28 28 0 0 0-6.557-10z" style="paint-order:stroke fill markers" transform="translate(-152.44)"/><path fill="#e0c269" d="M158.37 22a28 28 0 0 0-1.922 10h56a28 28 0 0 0-1.855-10z" style="paint-order:stroke fill markers" transform="translate(-152.44)"/><path fill="#7fbf92" d="M156.44 32a28 28 0 0 0 1.922 10h52.156a28 28 0 0 0 1.922-10z" style="paint-order:stroke fill markers" transform="translate(-152.44)"/><path fill="#729ad6" d="M158.37 42a28 28 0 0 0 6.582 10h38.992a28 28 0 0 0 6.582-10z" style="paint-order:stroke fill markers" transform="translate(-152.44)"/><path fill="#a85cd1" d="M164.95 52a28 28 0 0 0 19.496 8 28 28 0 0 0 19.496-8z" style="paint-order:stroke fill markers" transform="translate(-152.44)"/><path fill="#db606e" d="M184.44 4a28 28 0 0 0-19.496 8h39.084a28 28 0 0 0-19.588-8" style="paint-order:stroke fill markers" transform="translate(-152.44)"/></g><path fill="#eeb9c4" d="M31.218 27.182h12.8L44.8 29.6l2.418.782v3.2h-6.4v-3.2h-6.4v12.8h6.4v-3.2h6.4v3.2h-3.2v3.2h-12.8v-3.2h-3.2v-12.8h3.2z" style="paint-order:stroke fill markers"/><path fill="#fafafa" d="M16.818 17.582h3.2v11.2h.782L24 32l1.6-.018 3.2-3.2.818-11.2h3.2V26.4l-1.6.782L30.4 29.6h-1.6l-.782.782L27.2 36l-.782.782h-3.2l-6.4-6.4zm17.6 6.827.391-.427.391-.782.818-.391 1.209-.427.391-.39.391-.392h.391l.427.782h1.6V21.6l.782-.818h.391l.427 1.6h.391l.391.427.818 2.773v1.21l-.427.39h-5.973l-.605-.39H34.81l-.39-.392z" style="paint-order:stroke fill markers"/><path d="M31.218 46.791v-.409H30.4V44h-2.382v-.818H27.2v-6.4h-.782v.818h-3.2v-.818H22.4V36h-.782v-.818H20.8V34.4h-.782v-.818H19.2V32.8h-.782v-.818H17.6V31.2h-.782v-.818H16v-12.8h.818V16.8h3.2v.782h.782v11.2h.818v.818h.782v.782h.818v.818H24v.782h1.6V31.2h.818v-.818h.782V29.6h.818v-.818h.782v-11.2h.818V16.8h3.2v.782h.782V26.4h.427v-1.991h.391v-.427h.391V23.2h.391v-.391h.818v-.427h1.209v-.391h.391V21.6h.391v-.391h.391v.39h.427v.392H40V21.6h.427v-.391h.391v-.427h.391v-.391h.391v.391h.427v1.21h.391v.39h.391v.427h.391v1.173h.427v1.209h.391v1.991h.782V29.6h2.418v.782H48v3.2h-.782v.818h-6.4v-.818H40V31.2h-4.8v11.2H40v-2.418h.818V39.2h6.4v.782H48v3.2h-.782V44H44.8v2.382h-.782v.818h-12.8zm12.8-2.009v-1.6h3.2v-3.2h-6.4v3.2h-6.4v-12.8h6.4v3.2h6.4v-3.2h-3.2v-3.2h-.391v.427h-2.809v-.427H40v.427h-3.2v-.427h-5.582V26.4h1.6v-8.818h-3.2v11.2H28.8v.818h1.6v-2.418h.818v3.2h-3.2v12.8h3.2v3.2h12.8zm-17.6-8.391V36h.782v-4.8h-.782v.782H25.6v.818H24v-.818h-.782V31.2H22.4v-.818h-.782V29.6H20.8v-.818h-.782v-11.2h-3.2v12.8h.782v.818h.818v.782h.782v.818h.818v.782h.782v.818h.818v.782h.782V36h.818v.782h3.2zm13.191-9.404v-.196h-1.6V26.4h2.418v-.391h.39v.39h.392v.783h.818V26.4h.39v-.391h.392v-.427h.391v.818h-.391v.391h-.391v.391h.782v-.391h.427v-1.209H43.2V24.41h-.391v1.173h-.391V24.8h-.391v-.391h.39v-1.21h.392v-.39h-.391v-.427h-.391v.427H41.6v-2.027h-.391v.427h-.391v.39h-.391v.783H40v.818h-.782v-.391h.391v-.427h-.391v.427h-.391v-.427H38.4V21.6h-.391v.391h-.391v.391h-.391v.818H36.8v-.391h-.782v.39H35.2v.783h-.391v.427h-.391v1.99h.391v.392h2.418v.391h2.382zm-1.991-.783v-.195h-.391v-.427H36.8V24.8h-.391v-1.6h.391v1.6h.427v.782h.39v.427h.392v.39h-.391zm3.591 0v-.195h.818v-.427h.39v.427h-.39v.39h-.818zm-1.6-.409v-.213H38.4v-.391h-.782V24.8h.782v.391h1.209v.391H40v.427h-.391zm1.209-.408v-.196h.391V24.8h.818v.391h-.818v.391h-.391zm1.209-2.383v-.195h.39v.39h-.39zm-4.018-3.2v-.195h.818v-.427h.39v-.39H38.01V18.4H40v.391h-.391v.391h-.391v.427H40v.39h-1.99zm-3.982-.408v-.214h.39v-.39h.392V18.4h.391v-.391h-.391v-.427h.391v.427h.427v-.427h.39v-.39h-1.99V16.8H36.8v.391h-.391v.391h-.391v.427h-.391v.391h.39v.391h-.39V18.4H35.2v.391h-.391v.391H36.8v.427h-2.773z"/></svg>