<svg width="64" height="64" version="1.1" viewBox="0 0 64 64" xmlns="http://www.w3.org/2000/svg">
 <g transform="matrix(1.3084 0 0 1.3084 -11.174 -10.023)">
  <rect transform="rotate(-20.21,13.427,35.141)" x="13.427" y="35.141" width="1.526" height="8.393" rx=".763" fill="#d9d9d9"/>
  <path d="m9.0762 26.917 2.0296 6.8644c0.0134 0.0455 0.0571 0.0753 0.1044 0.0712l40.204-3.4321c0.0891-0.0076 0.1768-0.0272 0.2608-0.0581l2.2876-0.8433c0.1289-0.0475 0.1954-0.1902 0.1487-0.3194l-2.3163-6.4151c-0.0411-0.1136-0.1319-0.2022-0.2465-0.2403l-12.898-6.2101c-0.2393-0.1153-0.5147-0.1305-0.7653-0.0425l-28.495 10.012c-0.25129 0.0883-0.38926 0.3581-0.31374 0.6135z" color="#000000" fill="#6b6767" style="-inkscape-stroke:none"/>
  <path d="m37.719 15.82-28.494 10.012c-0.49782 0.17493-0.77658 0.72055-0.62695 1.2266l2.0293 6.8633c0.07991 0.27134 0.3456 0.45212 0.62695 0.42773l-2e-3 2e-3 40.205-3.4336c0.13395-0.01143 0.26509-0.03976 0.39062-0.08594l2.2871-0.84375c0.38141-0.14055 0.58556-0.57639 0.44726-0.95898l-2.3164-6.4141c-0.09296-0.25693-0.30077-0.45856-0.56055-0.54492l0.06055 0.02344-12.898-6.2109c-0.35896-0.17296-0.77281-0.1944-1.1484-0.0625zm0.33203 0.94336c0.12557-0.04409 0.26317-0.03616 0.38281 0.02148l12.906 6.2129 2.2168 6.1367-2.0547 0.75781c-0.04247 0.01562-0.08661 0.02552-0.13086 0.0293l-39.879 3.4043-1.9355-6.5508z" color="#000000" fill="#6b6767" style="-inkscape-stroke:none"/>
  <path d="m11.052 34.424c-0.7177-0.4307-0.6245-1.4992 0.1583-1.7957 9.8854-3.7435 23.022-8.9645 27.742-10.847 1.1293-0.4506 2.398-0.363 3.4559 0.2364l11.275 6.3891c0.7274 0.4121 0.6579 1.4818-0.1166 1.7964l-27.694 11.251c-1.1652 0.4733-2.4851 0.3711-3.5635-0.2759l-11.257-6.7539z" fill="#6b6767"/>
  <path d="m9.0072 27.552c-0.69771-0.4419-0.5937-1.4903 0.17867-1.7827 9.8497-3.7291 22.959-8.9383 27.739-10.845 1.1619-0.4634 2.4732-0.3584 3.5458 0.2851l11.327 6.796c0.707 0.4243 0.6257 1.4737-0.1382 1.784l-27.697 11.252c-1.1967 0.4862-2.5545 0.3645-3.6457-0.3266l-11.309-7.1626z" fill="#928e8e"/>
  <path d="m17.67 35.971c0.9146-0.8635 1.4209-1.9404 1.4358-3.0541 0.015-1.1138-0.4623-2.1984-1.3535-3.0763-0.8913-0.8778-2.1437-1.4968-3.552-1.7555-1.4084-0.2587-2.8893-0.1418-4.2 0.3316l2.1639 3.5453c0.2664-0.0962 0.5673-0.12 0.8535-0.0674s0.5407 0.1783 0.7218 0.3567 0.2781 0.3988 0.275 0.6251c-3e-3 0.2264-0.1059 0.4452-0.2917 0.6207z" fill="#6b6767"/>
  <path d="m30.63 28.404c-0.3518-0.2128-0.3106-0.7357 0.0702-0.8908l5.3803-2.192c0.2927-0.1193 0.6245-0.0932 0.8949 0.0705l1.7513 1.0596c0.3518 0.2129 0.3106 0.7357-0.0702 0.8908l-5.3802 2.1921c-0.2927 0.1192-0.6246 0.0931-0.895-0.0705z" fill="#f29292"/>
  <path d="m40.878 24.032c-0.1636-0.1938-0.266-0.4105-0.3014-0.6378s-0.0031-0.4608 0.0951-0.687c0.0982-0.2263 0.2603-0.4409 0.4772-0.6317 0.2168-0.1908 0.4841-0.354 0.7865-0.4802 0.3024-0.1263 0.6341-0.2131 0.9762-0.2556 0.342-0.0425 0.6876-0.0398 1.0172 8e-3 0.3295 0.0477 0.6365 0.1395 0.9033 0.2702 0.2669 0.1307 0.4884 0.2977 0.652 0.4915z" fill="#b7b6b6"/>
  <path d="m40.878 24.032c-0.1636-0.1938-0.266-0.4105-0.3014-0.6378s-0.0031-0.4608 0.0951-0.687c0.0982-0.2263 0.2603-0.4409 0.4772-0.6317 0.2168-0.1908 0.4841-0.354 0.7865-0.4802 0.3024-0.1263 0.6341-0.2131 0.9762-0.2556 0.342-0.0425 0.6876-0.0398 1.0172 8e-3 0.3295 0.0477 0.6365 0.1395 0.9033 0.2702 0.2669 0.1307 0.4884 0.2977 0.652 0.4915z" fill="#b7b6b6"/>
  <ellipse transform="rotate(-5.665,23.858,29.952)" cx="23.858" cy="29.952" rx="2.6255" ry="1.7503" fill="#b7b6b6"/>
  <ellipse transform="rotate(-5.665,23.858,29.952)" cx="23.858" cy="29.952" rx="2.6255" ry="1.7503" fill="#b7b6b6"/>
  <path d="m38.235 34.067 1.8706 4.8354c0.1973 0.5098-0.0514 1.0835-0.5584 1.2881l-1.8386 0.742c-0.5223 0.2108-1.1156-0.0512-1.3117-0.5793l-1.6628-4.4783c-0.1288-0.3468-0.3648-0.6435-0.6738-0.8469-0.585-0.385-0.4976-1.2685 0.1515-1.5314l1.7238-0.6983c0.6103-0.2472 1.3099-0.09 1.7557 0.3947 0.2344 0.2547 0.4188 0.5512 0.5437 0.874z" fill="#d9d9d9"/>
  <path d="m45.76 31.011 1.8707 4.8353c0.1972 0.5098-0.0515 1.0835-0.5584 1.2881l-1.8387 0.742c-0.5223 0.2108-1.1156-0.0512-1.3117-0.5792l-1.6628-4.4784c-0.1288-0.3468-0.3648-0.6435-0.6738-0.8469-0.585-0.385-0.4976-1.2684 0.1516-1.5314l1.7237-0.6983c0.6103-0.2472 1.31-0.09 1.7558 0.3947 0.2343 0.2547 0.4187 0.5512 0.5436 0.8741z" fill="#d9d9d9"/>
  <path d="m30.762 37.083 1.8707 4.8353c0.1973 0.5098-0.0515 1.0836-0.5584 1.2881l-1.8386 0.742c-0.5224 0.2108-1.1157-0.0512-1.3117-0.5792l-1.6629-4.4784c-0.1287-0.3468-0.3648-0.6434-0.6737-0.8468-0.585-0.3851-0.4976-1.2685 0.1515-1.5315l1.7237-0.6983c0.6103-0.2472 1.31-0.0899 1.7558 0.3947 0.2343 0.2548 0.4187 0.5513 0.5436 0.8741z" fill="#d9d9d9"/>
  <path d="m53.404 27.923 1.8707 4.8353c0.1972 0.5098-0.0515 1.0836-0.5584 1.2882l-1.8386 0.742c-0.5224 0.2108-1.1157-0.0513-1.3117-0.5793l-1.6629-4.4784c-0.1287-0.3468-0.3648-0.6434-0.6738-0.8468-0.585-0.3851-0.4975-1.2685 0.1516-1.5315l1.7237-0.6982c0.6103-0.2473 1.31-0.09 1.7558 0.3946 0.2343 0.2548 0.4187 0.5513 0.5436 0.8741z" fill="#d9d9d9"/>
  <rect transform="rotate(-20.21,28.375,41.936)" x="28.375" y="41.936" width="1.526" height="8.393" rx=".763" fill="#d9d9d9"/>
  <rect transform="rotate(-20.21,37.143,38.413)" x="37.143" y="38.413" width="1.526" height="8.393" rx=".763" fill="#d9d9d9"/>
  <rect transform="rotate(-20.21,44.652,35.351)" x="44.652" y="35.351" width="1.526" height="8.393" rx=".763" fill="#d9d9d9"/>
  <rect transform="rotate(-20.64,53.287,31.857)" x="53.287" y="31.857" width="1.526" height="8.393" rx=".763" fill="#d9d9d9"/>
 </g>
</svg>
