<svg xmlns="http://www.w3.org/2000/svg" width="64" height="64"><g transform="translate(-11.174 -10.023)scale(1.3084)"><rect width="1.526" height="8.393" x="13.427" y="35.141" fill="#d9d9d9" rx=".763" transform="rotate(-20.21 13.427 35.141)"/><path fill="#6b6767" d="m9.076 26.917 2.03 6.864a.1.1 0 0 0 .104.072l40.204-3.432a1 1 0 0 0 .261-.059l2.288-.843a.25.25 0 0 0 .148-.32l-2.316-6.414a.4.4 0 0 0-.246-.24l-12.898-6.21a1 1 0 0 0-.766-.043L9.39 26.304a.5.5 0 0 0-.314.613" color="#000" style="-inkscape-stroke:none"/><path fill="#6b6767" d="M37.719 15.82 9.225 25.832c-.498.175-.777.72-.627 1.227l2.03 6.863c.08.271.345.452.626.428l-.002.002 40.205-3.434q.202-.017.39-.086l2.288-.844a.76.76 0 0 0 .447-.959l-2.316-6.414a.9.9 0 0 0-.56-.545l.06.024-12.898-6.211a1.5 1.5 0 0 0-1.149-.063m.332.943a.5.5 0 0 1 .383.022l12.906 6.213 2.217 6.136-2.055.758a.5.5 0 0 1-.13.03l-39.88 3.404-1.935-6.55z" color="#000" style="-inkscape-stroke:none"/><path fill="#6b6767" d="M11.052 34.424c-.718-.43-.625-1.5.158-1.796 9.886-3.743 23.022-8.964 27.742-10.847a4 4 0 0 1 3.456.237l11.275 6.389a1 1 0 0 1-.116 1.796L25.873 41.454a4 4 0 0 1-3.564-.276z"/><path fill="#928e8e" d="M9.007 27.552a1.001 1.001 0 0 1 .179-1.783c9.85-3.729 22.959-8.938 27.739-10.845a4 4 0 0 1 3.546.285l11.327 6.796a1 1 0 0 1-.139 1.784L23.962 35.041a4 4 0 0 1-3.645-.326z"/><path fill="#6b6767" d="M17.67 35.971c.915-.864 1.42-1.94 1.436-3.054.015-1.114-.462-2.199-1.354-3.076-.891-.878-2.143-1.497-3.552-1.756a8.16 8.16 0 0 0-4.2.332l2.164 3.545c.267-.096.568-.12.854-.067s.54.178.722.356.278.4.275.625a.87.87 0 0 1-.292.621z"/><path fill="#f29292" d="M30.63 28.404a.5.5 0 0 1 .07-.89l5.38-2.193a1 1 0 0 1 .895.07l1.752 1.06a.5.5 0 0 1-.07.891l-5.38 2.192a1 1 0 0 1-.896-.07z"/><path fill="#b7b6b6" d="M40.878 24.032c-.164-.194-.266-.41-.301-.638s-.003-.46.095-.687c.098-.226.26-.44.477-.632.217-.19.484-.353.786-.48a3.83 3.83 0 0 1 1.993-.248c.33.048.637.14.904.27.267.132.489.299.652.492z"/><path fill="#b7b6b6" d="M40.878 24.032c-.164-.194-.266-.41-.301-.638s-.003-.46.095-.687c.098-.226.26-.44.477-.632.217-.19.484-.353.786-.48a3.83 3.83 0 0 1 1.993-.248c.33.048.637.14.904.27.267.132.489.299.652.492z"/><ellipse cx="23.858" cy="29.952" fill="#b7b6b6" rx="2.626" ry="1.75" transform="rotate(-5.665 23.858 29.952)"/><ellipse cx="23.858" cy="29.952" fill="#b7b6b6" rx="2.626" ry="1.75" transform="rotate(-5.665 23.858 29.952)"/><path fill="#d9d9d9" d="m38.235 34.067 1.87 4.835a1 1 0 0 1-.558 1.288l-1.838.743a1 1 0 0 1-1.312-.58l-1.663-4.478a1.74 1.74 0 0 0-.674-.847.87.87 0 0 1 .152-1.531l1.724-.699a1.58 1.58 0 0 1 1.755.395c.235.255.42.551.544.874m7.525-3.056 1.87 4.835a1 1 0 0 1-.558 1.288l-1.838.742a1 1 0 0 1-1.312-.579l-1.663-4.478a1.74 1.74 0 0 0-.674-.847.869.869 0 0 1 .152-1.532l1.724-.698a1.58 1.58 0 0 1 1.755.395c.235.255.42.551.544.874m-14.998 6.072 1.87 4.835a1 1 0 0 1-.558 1.288l-1.838.742a1 1 0 0 1-1.312-.579l-1.663-4.478a1.74 1.74 0 0 0-.674-.847.87.87 0 0 1 .152-1.532l1.724-.698a1.58 1.58 0 0 1 1.755.395c.235.255.42.551.544.874m22.642-9.16 1.87 4.835a1 1 0 0 1-.558 1.288l-1.838.743a1 1 0 0 1-1.312-.58l-1.663-4.478a1.74 1.74 0 0 0-.674-.847.87.87 0 0 1 .152-1.532l1.724-.698a1.58 1.58 0 0 1 1.755.395c.235.255.42.551.544.874"/><rect width="1.526" height="8.393" x="28.375" y="41.936" fill="#d9d9d9" rx=".763" transform="rotate(-20.21 28.375 41.936)"/><rect width="1.526" height="8.393" x="37.143" y="38.413" fill="#d9d9d9" rx=".763" transform="rotate(-20.21 37.143 38.413)"/><rect width="1.526" height="8.393" x="44.652" y="35.351" fill="#d9d9d9" rx=".763" transform="rotate(-20.21 44.652 35.351)"/><rect width="1.526" height="8.393" x="53.287" y="31.857" fill="#d9d9d9" rx=".763" transform="rotate(-20.64 53.287 31.857)"/></g></svg>