<svg width="64" height="64" version="1.1" viewBox="0 0 16.933 16.933" xmlns="http://www.w3.org/2000/svg" xmlns:xlink="http://www.w3.org/1999/xlink">
 <rect x="1.5875" y="1.5875" width="13.758" height="13.758" rx="2.1166" ry="2.1166" fill="#6d89f9" stroke-width=".92853"/>
 <g transform="translate(-.52919)" fill="#ffffff">
  <path d="m13.206 5.577c-0.06102 0.00267-0.12173 0.016484-0.17977 0.042732-0.10627 0.048056-1.3692 1.1172-1.6946 1.4344-0.11431 0.11146-0.21458 0.18816-0.21513 0.37132l-0.0038 1.041 0.0038 1.041c5.45e-4 0.18317 0.10081 0.25987 0.21513 0.37132 0.32536 0.31721 1.5882 1.3863 1.6946 1.4344 0.05804 0.02625 0.11874 0.04002 0.17977 0.04272 0.18307 0.0081 0.36755-0.0859 0.48183-0.2586 0 0 0.07073-0.10118 0.07073-0.21144v-4.8389c0-0.11026-0.07073-0.21144-0.07073-0.21144-0.11428-0.17271-0.29876-0.26669-0.48183-0.2586z" stroke-width=".025608"/>
  <path d="m5.5032 5.5561h3.81c0.70354 0 1.2699 0.5711 1.2699 1.2805v3.2597c0 0.7094-0.56639 1.2805-1.2699 1.2805h-3.81c-0.70354 0-1.2699-0.5711-1.2699-1.2805v-3.2597c0-0.7094 0.56639-1.2805 1.2699-1.2805z" stroke-width="1.0954"/>
 </g>
 <circle cx="12.171" cy="12.171" r="4.2333" fill="#4d4d4d"/>
 <path d="m10.868 10.054c-0.44925 0-0.81384 0.36459-0.81384 0.81384 0 0.44961 0.36448 0.81411 0.81411 0.81411 0.14526 0 0.2788-0.04527 0.39687-0.11194l0.64134 0.60059-0.64107 0.60038c-0.11807-0.06667-0.25161-0.11194-0.39687-0.11194-0.44925 0-0.81384 0.36459-0.81384 0.81437 0 0.44925 0.36459 0.81384 0.81384 0.81384 0.44961 0 0.81411-0.36448 0.81411-0.81411 0-0.07462-0.01172-0.14504-0.03051-0.2137l0.69198-0.6716 1.4552 1.3738h0.48845v-0.32563l-2.6356-2.5542c0.01882-0.06866 0.03051-0.13907 0.03051-0.2137 0-0.44978-0.36459-0.81437-0.81437-0.81437zm0 0.48845c0.17984 0 0.32563 0.14579 0.32563 0.32563s-0.14579 0.32563-0.32563 0.32563-0.32563-0.14579-0.32563-0.32563 0.14579-0.32563 0.32563-0.32563zm2.9307-0.16282-1.2822 1.211 0.42739 0.41722 1.3433-1.3025v-0.32563zm-2.9307 2.7679c0.17984 0 0.32563 0.14579 0.32563 0.32563s-0.14579 0.32563-0.32563 0.32563-0.32563-0.14579-0.32563-0.32563 0.14579-0.32563 0.32563-0.32563z" fill="#fff" stroke-width=".26458"/>
</svg>
