<svg xmlns="http://www.w3.org/2000/svg" width="64" height="64"><circle cx="32" cy="32" r="27" fill="#4f4f4f"/><rect width="54" height="38" x="5" y="13" fill="#5397e9" rx="3.121" ry="3.121"/><path fill="#4f4f4f" d="M16 15v5h5v-5zm9 0v5h5v-5zm9 0v5h5v-5zm9 0v5h5v-5zM16 43v5h5v-5zm9 0v5h5v-5zm9 0v5h5v-5zm9 0v5h5v-5z"/><path fill="#fff" d="M5 22v19h13c.554 0 1-.446 1-1V23c0-.554-.446-1-1-1zm20 0c-.554 0-1 .446-1 1v17c0 .554.446 1 1 1h14c.554 0 1-.446 1-1V23c0-.554-.446-1-1-1zm21 0c-.554 0-1 .446-1 1v17c0 .554.446 1 1 1h13V22z"/><path fill="#f9e37d" d="M18 7c-2.77 0-5 2.23-5 5v40c0 2.77 2.23 5 5 5h4v-4h-4c-.554 0-1-.446-1-1V12c0-.554.446-1 1-1h4V7h-4zm24 0v4h4c.554 0 1 .446 1 1v40c0 .554-.446 1-1 1h-4v4h4c2.77 0 5-2.23 5-5V12c0-2.77-2.23-5-5-5h-4z"/></svg>