<svg xmlns="http://www.w3.org/2000/svg" xmlns:xlink="http://www.w3.org/1999/xlink" width="64" height="64" viewBox="0 0 16.933 16.933"><defs><linearGradient id="a"><stop offset="0"/><stop offset="1" stop-opacity="0"/></linearGradient><linearGradient xlink:href="#a" id="b" x1="44.804" y1="57.98" x2="44.804" y2="16.43" gradientUnits="userSpaceOnUse"/></defs><path style="line-height:normal;text-indent:0;text-align:start;text-decoration-line:none;text-decoration-style:solid;text-decoration-color:#000;text-transform:none;white-space:normal;isolation:auto;mix-blend-mode:normal;solid-color:#000;solid-opacity:1" d="M8.448 1.588a1.251 1.251 0 0 0-.866.366L1.954 7.583a1.25 1.25 0 0 0 0 1.768l5.628 5.629a1.25 1.25 0 0 0 1.769 0l5.628-5.629a1.25 1.25 0 0 0 0-1.768L9.351 1.954a1.25 1.25 0 0 0-.903-.366z" color="#000" font-weight="400" font-family="sans-serif" overflow="visible" fill="#4caf50" fill-rule="evenodd"/><path style="line-height:normal;text-indent:0;text-align:start;text-decoration-line:none;text-decoration-style:solid;text-decoration-color:#000;text-transform:none;white-space:normal;isolation:auto;mix-blend-mode:normal;solid-color:#000;solid-opacity:1" d="M44.387 16.43A50 50 0 0 1 45 24a50 50 0 0 1-13.39 33.963c1.336.11 2.709-.325 3.732-1.348l21.273-21.271a4.729 4.729 0 0 0 0-6.686L44.387 16.43z" transform="scale(.26458)" color="#000" font-weight="400" font-family="sans-serif" overflow="visible" opacity=".25" fill="url(#b)" fill-rule="evenodd"/><path d="M3.464 3.464c-.313 0-.313.312-.313.312v1.251s0 .315.313.313l.312-.002v7.505c0 .346.28.625.626.625h.957c.033-.012 6.946-7.055 7.994-8.13l.117.002c.312.006.312-.313.312-.313v-1.25c0-.313-.312-.313-.312-.313H9.717s-.312 0-.312.312v1.251c0 .313.312.313.312.313s.313 0 .294-.002L6.903 8.467v-3.13l.313.003c.313.002.313-.313.313-.313v-1.25c0-.347-.313-.313-.313-.313z" fill="#fff" fill-rule="evenodd" stroke="#000" stroke-width=".265" stroke-opacity=".098" paint-order="markers stroke fill"/><g aria-label="im" style="line-height:1.25;-inkscape-font-specification:'sans-serif Bold Italic'" font-style="italic" font-weight="700" font-size="4.304" font-family="sans-serif" letter-spacing="0" word-spacing="0" fill="#fff" stroke="#000" stroke-width=".265" stroke-opacity=".098" paint-order="markers stroke fill"><path d="M8.607 13.517h.629l.482-2.41h-.629zm.878-2.797a.446.446 0 0 0 .444-.345c.043-.206-.09-.344-.306-.344a.443.443 0 0 0-.448.344c-.038.198.09.345.31.345zM9.919 13.517h.628l.332-1.657c.206-.18.383-.27.52-.27.228 0 .306.133.233.503l-.284 1.424h.632l.332-1.657c.206-.18.383-.27.52-.27.229 0 .306.133.233.503l-.284 1.424h.633l.301-1.502c.12-.607-.043-.968-.555-.968-.314 0-.586.19-.852.422-.06-.267-.233-.422-.577-.422-.314 0-.573.172-.818.383h-.017l.021-.323h-.516z" style="-inkscape-font-specification:'sans-serif Bold Italic'"/></g></svg>