<svg width="64" height="64" version="1.1" viewBox="0 0 16.933 16.933" xmlns="http://www.w3.org/2000/svg">
 <rect x="1.3229" y="2.9104" width="14.287" height="11.112" rx=".31761" ry=".33706" fill="#2e2e2e"/>
 <path d="m2.1166 3.7041h12.7v9.5248h-12.7z" fill="#585858" stroke-width=".95618"/>
 <circle cx="13.229" cy="12.171" r="3.1749" fill="#64cc5f" stroke-width=".52915"/>
 <g transform="matrix(2 0 0 2 -15.628 -15.101)" fill="#ffffff" stroke-width=".26458">
  <path d="m13.767 12.841h0.13229c0.80368 0 1.4552 0.6515 1.4552 1.4552v0.13229h-0.13229c-0.07223 0-0.13229-0.05953-0.13229-0.13229 0-0.65748-0.53312-1.1906-1.1906-1.1906-0.07223 0-0.13229-0.05953-0.13229-0.13229z"/>
  <path d="m13.767 13.371h0.13229c0.51143 0 0.92602 0.41459 0.92602 0.92602v0.13229h-0.13229c-0.07223 0-0.13229-0.05953-0.13229-0.13229 0-0.36538-0.29606-0.66144-0.66144-0.66144-0.07223 0-0.13229-0.05953-0.13229-0.13229z"/>
  <path d="m14.032 13.9c0.14613 0 0.26458 0.11846 0.26458 0.26458s-0.11846 0.26458-0.26458 0.26458-0.26458-0.11846-0.26458-0.26458 0.11846-0.26458 0.26458-0.26458z"/>
 </g>
</svg>
