<svg xmlns="http://www.w3.org/2000/svg" width="64" height="64" viewBox="0 0 16.933 16.933"><rect width="14.287" height="11.112" x="1.323" y="2.91" fill="#4d4d4d" rx="1.587" ry="1.587"/><rect width="12.7" height="9.525" x="2.117" y="3.704" fill="#666" fill-rule="evenodd" rx=".794" ry=".794"/><circle cx="13.229" cy="12.171" r="3.175" fill="#64cc5f"/><g fill="#fff" stroke-width=".265"><path d="M11.906 10.581h.265a2.91 2.91 0 0 1 2.91 2.91v.265h-.265a.266.266 0 0 1-.264-.265 2.381 2.381 0 0 0-2.381-2.38.266.266 0 0 1-.265-.265z"/><path d="M11.906 11.641h.265c1.022 0 1.852.83 1.852 1.852v.265h-.265a.266.266 0 0 1-.265-.265c0-.73-.592-1.323-1.322-1.323a.266.266 0 0 1-.265-.264z"/><path d="M12.436 12.699a.53.53 0 1 1 0 1.058.53.53 0 0 1 0-1.058z"/></g></svg>