<svg xmlns="http://www.w3.org/2000/svg" width="64" height="64" viewBox="0 0 16.933 16.933"><g fill-rule="evenodd" stroke-width=".015"><path fill="#3585f3" d="m8.466 15.96 6.88-3.889-.047-7.314L8.466 8.5z"/><path fill="#1c69d0" d="m8.467 15.975-6.88-3.888.047-7.315 6.833 3.744z"/><path fill="#5997f3" d="M1.614 4.792 8.5.958l6.824 3.836-6.861 3.759z"/></g><path fill="#fff" d="M9.524 5.163a.2.2 0 0 1-.217.012l-.732-.443c-.06-.036-.075-.097-.034-.144l.626-.733L6.96 5.383a.2.2 0 0 1-.195.008l-.01-.006c-.053-.032-.072-.085-.044-.13l.738-1.213-.977.282a.2.2 0 0 1-.171-.028c-.045-.034-.056-.083-.029-.125l.42-.639-.9-.544c-.066-.04-.076-.11-.022-.157.053-.047.15-.052.216-.012l.994.6c.055.034.073.09.042.135l-.3.456.96-.277a.2.2 0 0 1 .17.027c.044.033.057.081.033.123l-.575.945 2.524-1.747a.2.2 0 0 1 .203-.005c.063.045.076.099.036.146l-1.2 1.404.627.38c.066.04.076.11.023.157zm.73.298-.379-.229a.2.2 0 0 0-.217.012c-.053.047-.043.117.023.157l.378.228c.065.04.163.035.217-.012.053-.046.043-.117-.023-.156zm.814.492-.403-.243c-.065-.04-.163-.035-.217.012-.053.046-.043.117.023.156l.402.244c.066.04.163.034.217-.012.053-.047.043-.117-.022-.157"/></svg>