<svg xmlns="http://www.w3.org/2000/svg" xmlns:xlink="http://www.w3.org/1999/xlink" width="64" height="64" viewBox="0 0 16.933 16.933"><defs><linearGradient id="a"><stop offset="0"/><stop offset="1" stop-opacity="0"/></linearGradient><linearGradient gradientTransform="matrix(.26458 0 0 .26458 0 280.067)" xlink:href="#a" id="b" x1="46.168" y1="57" x2="46.168" y2="27.346" gradientUnits="userSpaceOnUse"/></defs><g transform="translate(0 -280.067)"><rect width="13.229" height="13.229" x="1.852" y="281.919" rx=".794" ry=".794" fill="#217bf3" paint-order="markers stroke fill"/><path d="M15.081 287.302a11.906 11.906 0 0 1-5.732 7.846h4.938c.44 0 .794-.354.794-.794z" opacity=".25" fill="url(#b)" paint-order="markers stroke fill"/><path d="M8.202 283.77l-1.852 6.086-1.058-3.44H3.175v1.059h1.587l1.588 5.82 1.852-6.35 1.058 3.176 1.323-3.704 1.059 3.704h2.116v-1.058h-1.323c-.577-1.78-1.852-5.028-1.852-5.028l-1.323 3.44z" fill="#fff"/></g></svg>