<svg width="64" height="64" version="1.1" viewBox="0 0 16.933 16.933" xmlns="http://www.w3.org/2000/svg" xmlns:xlink="http://www.w3.org/1999/xlink">
 <g transform="matrix(1.6292 0 0 1.6292 -22.765 -2.6481)" fill-rule="evenodd" stroke-width=".26458">
  <path d="m21.068 2.6024c-0.09052 0.010102-0.17861 0.04111-0.26664 0.099217 0.13772 0.17144-0.1403 1.7855 0.20785 2.004l0.2717 0.17053v3.8922l-0.42679 0.31977c-0.32895 0.24647 0.02978 1.6662-0.05651 1.8488 0.09533 0.05818 0.23775 0.12029 0.36237 0.10514 0.03992-0.0049 0.08033-0.01602 0.1204-0.03566l1.7368-0.85162c0.18929-0.09277 0.38033-0.16953 0.38033-0.38033v-5.9043c0-0.2108-0.19104-0.28757-0.38033-0.38033l-1.7368-0.85162c-0.04007-0.01964-0.08048-0.030802-0.1204-0.035657-0.03116-0.00379-0.06181-0.00337-0.09198 0z" fill="#35a0f3" style="paint-order:stroke fill markers"/>
  <path d="m15.041 8.0035 5.6511-5.2228c0.25656-0.23712 0.58887-0.15304 0.58887 0.33742v1.7579l-5.2244 3.9957c-0.09136 0.07175-0.32943 0.24313-0.53715 0.04563l-0.52855-0.50252c-0.1387-0.13186-0.05988-0.30961 0.0501-0.41126z" fill="#115fb7" style="paint-order:stroke fill markers"/>
  <path d="m15.041 5.6381 5.6511 5.2228c0.25656 0.23712 0.58887 0.15304 0.58887-0.33742v-1.7579l-5.2244-3.9957c-0.09136-0.071751-0.32943-0.24313-0.53715-0.045627l-0.52855 0.50251c-0.1387 0.13187-0.05988 0.30961 0.0501 0.41126z" fill="#1a81da" style="paint-order:stroke fill markers"/>
 </g>
</svg>
