<svg xmlns="http://www.w3.org/2000/svg" width="64" height="64" viewBox="0 0 16.933 16.933"><g fill-rule="evenodd" stroke-width=".265"><path fill="#35a0f3" d="M21.068 2.602a.6.6 0 0 0-.267.1c.138.171-.14 1.785.208 2.004l.272.17v3.892l-.427.32c-.329.247.03 1.666-.056 1.849.095.058.237.12.362.105a.4.4 0 0 0 .12-.036l1.737-.851c.19-.093.38-.17.38-.38V3.87c0-.21-.19-.287-.38-.38l-1.737-.852a.37.37 0 0 0-.212-.035z" style="paint-order:stroke fill markers" transform="translate(-22.765 -2.648)scale(1.6292)"/><path fill="#115fb7" d="m15.041 8.004 5.651-5.223c.257-.237.589-.153.589.337v1.758l-5.224 3.996c-.092.071-.33.243-.538.045l-.528-.502c-.139-.132-.06-.31.05-.411" style="paint-order:stroke fill markers" transform="translate(-22.765 -2.648)scale(1.6292)"/><path fill="#1a81da" d="m15.041 5.638 5.651 5.223c.257.237.589.153.589-.338V8.766L16.057 4.77c-.092-.072-.33-.243-.538-.046l-.528.503c-.139.132-.06.31.05.411" style="paint-order:stroke fill markers" transform="translate(-22.765 -2.648)scale(1.6292)"/></g></svg>