<svg width="64" height="64" version="1.1" viewBox="0 0 16.933 16.933" xmlns="http://www.w3.org/2000/svg" xmlns:xlink="http://www.w3.org/1999/xlink">
 <defs>
  <linearGradient id="b" x1="44.852" x2="44.852" y1="58" y2="15.445" gradientUnits="userSpaceOnUse">
   <stop offset="0"/>
   <stop stop-opacity="0" offset="1"/>
  </linearGradient>
 </defs>
 <g transform="translate(0 -280.07)">
  <g transform="matrix(1.0385 0 0 1.0385 -.32619 -11.099)" stroke-width=".92729">
   <circle cx="8.467" cy="288.53" r="6.879" fill="#fc5555" style="paint-order:stroke markers fill"/>
   <path transform="matrix(.26458 0 0 .26458 0 280.07)" d="M 52.023,15.445 A 42.5,42.5 0 0 1 52.5,21.5 42.5,42.5 0 0 1 31.703,57.984 26,26 0 0 0 32,58 26,26 0 0 0 58,32 26,26 0 0 0 52.023,15.445 Z" fill="url(#b)" opacity=".15" style="paint-order:stroke markers fill"/>
  </g>
  <path d="M5.155 286.559l2.767 4.888s.15.262.527.262c.376 0 .526-.262.526-.262s1.923-2.945 2.708-4.516c.079-.158.164-.318.2-.49a.835.835 0 0 0 .007-.36.772.772 0 0 0-.207-.388.823.823 0 0 0-.464-.202.963.963 0 0 0-.535.108.7.7 0 0 0-.277.268.85.85 0 0 0-.087.372 1.014 1.014 0 0 0 .057.348c.026.071.06.14.087.21.021.06.052.117.058.18a.64.64 0 0 1-.028.301c-.18.458-.491.897-.902 1.166-.17.111-.388.139-.59.148-.232.01-.5-.008-.687-.111-.188-.102-.276-.28-.394-.436-.54-.717-1.423-2.287-1.423-2.287s-.384-.679-1.075-.268c-.69.412-.269 1.07-.269 1.07z" fill="#fff" fill-rule="evenodd"/>
 </g>
</svg>
