<svg xmlns="http://www.w3.org/2000/svg" width="64" height="64" viewBox="0 0 16.933 16.933"><circle cx="8.467" cy="8.469" r="7.144" fill="#fc5555" style="paint-order:stroke markers fill"/><path fill="#fff" fill-rule="evenodd" d="m4.9 6.835 2.98 5.294s.162.284.568.284.566-.284.566-.284 2.07-3.19 2.916-4.891c.085-.171.177-.345.216-.531a.9.904 0 0 0 .007-.39.831.836 0 0 0-.223-.42.886.891 0 0 0-.5-.219 1.037 1.043 0 0 0-.576.117.754.758 0 0 0-.298.29.915.92 0 0 0-.094.403 1.092 1.098 0 0 0 .062.377c.028.077.064.152.093.228.023.065.056.126.063.195a.69.693 0 0 1-.03.326c-.194.496-.529.971-.972 1.262-.183.12-.417.151-.635.16-.25.012-.538-.008-.74-.12-.202-.11-.297-.303-.424-.472-.581-.776-1.532-2.477-1.532-2.477s-.414-.735-1.158-.29c-.743.446-.29 1.159-.29 1.159z"/></svg>