<svg xmlns="http://www.w3.org/2000/svg" width="64" height="64" image-rendering="optimizeSpeed"><path fill="#16baf7" d="M58.182 25.136a25.6 25.6 0 0 0-2.016-5.354 27 27 0 0 0-.704-1.282h-.001q-1.751-2.975-4.367-5.591C45.824 7.638 39.456 5 32 5s-13.82 2.638-19.092 7.91Q5.002 20.816 5 32q0 11.186 7.908 19.094c3.893 3.893 8.38 6.347 13.437 7.359A28.7 28.7 0 0 0 32 59q11.187 0 19.094-7.905 4.171-4.168 6.14-9.256c.973-2.514 1.545-5.194 1.714-8.051A31 31 0 0 0 59 32c0-2.388-.27-4.668-.818-6.864"/><g stroke-width="1.167"><path fill="#ffc62e" d="M38.3 46c1.163 0 2.1-.937 2.1-2.1V25.7c0-1.163-.937-2.1-2.1-2.1H20.1c-1.164 0-2.1.937-2.1 2.1v18.2c0 1.163.937 2.1 2.1 2.1zm-3.5-5.6H23.6V29.2h11.2z"/><path fill="#fff" d="M43.9 40.4c1.163 0 2.1-.937 2.1-2.1V20.1c0-1.164-.937-2.1-2.1-2.1H25.7c-1.163 0-2.1.937-2.1 2.1v3.5h16.8v11.2H29.2v-5.6h-5.6v9.1c0 1.163.937 2.1 2.1 2.1z"/></g></svg>