<svg width="64" height="64" enable-background="new 0 0 1024 1024" image-rendering="optimizeSpeed" version="1.1" viewBox="0 0 64 64" xmlns="http://www.w3.org/2000/svg">
 <circle cx="32" cy="32" r="27" fill="#ffbc01" stroke-width=".9"/>
 <path d="m19.283 16.74c-1.2717 0-2.5434 1.2717-2.5434 2.5434v8.9019c0 1.2717 1.2717 2.5434 2.5434 2.5434s2.5434-1.2717 2.5434-2.5434v-3.8151l2.5434 2.5434v3.8151h3.8151v-1.2717c-0.03942-0.84441 0.38278-1.2666 1.2717-1.2717h1.2717v-3.8151h-3.8151l-2.5434-2.5434h3.8151c1.2717 0 2.5434-1.2717 2.5434-2.5434s-1.2717-2.5434-2.5434-2.5434m7.6302 0c-1.2717 0-2.5434 1.2717-2.5434 2.5434s1.2717 2.5434 2.5434 2.5434h3.8151l-2.5434 2.5434h-3.8151v3.8151h1.2717c0.84441-0.03942 1.2666 0.38278 1.2717 1.2717v1.2717h3.8151v-3.8151l2.5434-2.5434v3.8151c0 1.2717 1.2717 2.5434 2.5434 2.5434s2.5434-1.2717 2.5434-2.5434v-8.9019c0-1.2717-1.2717-2.5434-2.5434-2.5434m-20.347 16.532v3.8151c0 1.2717 1.2717 2.5434 2.5434 2.5434h3.8151v-3.8151h-1.2717c-0.84441 0.03942-1.2666-0.38278-1.2717-1.2717v-1.2717m7.6302 0v1.2717c0.03942 0.84441-0.38278 1.2666-1.2717 1.2717h-1.2717v3.8151h3.8151l2.5434 2.5434h-3.8151c-1.2717 0-2.5434 1.2717-2.5434 2.5434s1.2717 2.5434 2.5434 2.5434h8.9019c1.2717 0 2.5434-1.2717 2.5434-2.5434v-8.9019c0-1.2717-1.2717-2.5434-2.5434-2.5434s-2.5434 1.2717-2.5434 2.5434v3.8151l-2.5434-2.5434v-3.8151" fill-opacity=".70161" stroke-width=".97497"/>
</svg>
