<svg width="64" height="64" version="1.1" viewBox="0 0 64 64" xmlns="http://www.w3.org/2000/svg">
 <path d="m32 5c14.912 0 27 12.088 27 27s-12.088 27-27 27-27-12.088-27-27 12.088-27 27-27z" fill="#c569c7" stroke-width="1.1739"/>
 <g transform="matrix(1.1927 0 0 1.1927 -6.1671 -6.1643)" fill="#f9f9f9">
  <path d="m30.824 24.957v11.584a4.6961 4.6961 0 0 1-3.519-4.5381v-2.9366c0-0.32444-0.26205-0.5865-0.58649-0.5865s-0.58649 0.26205-0.58649 0.5865v2.9366a5.8691 5.8691 0 0 0 4.692 5.7443v1.2978h-3.519v1.173h9.3922v-1.173h-3.5273v-1.2895a5.8691 5.8691 0 0 0 4.7003-5.7526v-2.9366c0-0.32444-0.26205-0.5865-0.58649-0.5865s-0.58649 0.26205-0.58649 0.5865v2.9366a4.6961 4.6961 0 0 1-3.5273 4.5464v-11.588h-2.346z"/>
  <path d="m32.001 14.391c-9.725 0-17.607 7.8823-17.607 17.607s7.8823 17.607 17.607 17.607 17.607-7.8823 17.607-17.607-7.8823-17.607-17.607-17.607zm-0.0042 1.173c9.0761 0 16.438 7.3582 16.438 16.434 0 9.0761-7.3624 16.434-16.438 16.434s-16.434-7.3582-16.434-16.434c0-9.0761 7.3582-16.434 16.434-16.434z"/>
  <path d="m31.997 17.914c-7.7783 0-14.088 6.3059-14.088 14.088 0 7.7783 6.3059 14.088 14.088 14.088 7.7783 0 14.088-6.3059 14.088-14.088 0-7.7783-6.3059-14.088-14.088-14.088zm0 1.173c7.1336 0 12.911 5.7818 12.911 12.911 0 7.1336-5.7818 12.911-12.911 12.911-7.1336 0-12.911-5.7818-12.911-12.911 0-7.1336 5.7818-12.911 12.911-12.911z"/>
  <path d="m32 22.609c-1.9452 0-3.5217 1.1739-3.5217 2.9348v0.58696h7.0435v-0.58696c0-1.7609-1.5766-2.9348-3.5217-2.9348zm-3.5217 4.6957v1.1739h7.0435v-1.1739zm0 2.3478v1.1739h7.0435v-1.1739zm0 2.3478v0.58696c0 1.7609 1.5766 2.9348 3.5217 2.9348s3.5217-1.1739 3.5217-2.9348v-0.58696z"/>
 </g>
</svg>
