<svg width="64" height="64" version="1" xmlns="http://www.w3.org/2000/svg">
 <rect x="5" y="5" width="54" height="54" rx="27" ry="27" fill="#e4e4e4" stroke-width=".96429"/>
 <rect x="9" y="9" width="46" height="46" rx="23" ry="23" fill="#f2f2f2" stroke-width=".82143"/>
 <path d="m32.39 51.911c-0.42225-0.11586-0.78984-0.38683-1.047-0.772-0.37951-0.56837-0.50592-0.98039-0.96867-3.1577-0.19298-0.90799-0.47733-1.5122-0.95676-2.0329-0.83651-0.90873-1.8025-1.2313-4.0905-1.3662-2.5596-0.15091-3.468-0.37717-4.3231-1.0768-0.97217-0.79536-1.3779-1.6942-1.9584-4.3398-0.35891-1.6352-0.56394-2.295-0.98689-3.1752-0.77611-1.6156-1.8429-2.8712-3.3877-3.9878-0.99571-0.71966-1.2925-1.1573-1.1286-1.6639 0.13314-0.4102 0.55735-0.67427 1.0839-0.67427 0.42379 0 0.68179 0.10514 1.0183 0.41516 0.32261 0.29706 0.51334 0.5781 0.959 1.4133 0.40726 0.76294 0.79826 1.3188 0.92803 1.3188 0.07849 0 0.09109-0.32184 0.09109-2.3132 0-1.3836 0.02523-2.4064 0.06308-2.5452 0.07568-0.2788 0.37698-0.5549 0.60472-0.55457 0.37824 5.72e-4 0.70226 0.36479 0.86776 0.9754 0.03784 0.13843 0.1962 1.5264 0.35246 3.0843 0.1564 1.5579 0.30748 2.8575 0.33578 2.888 0.08689 0.094 0.48405-0.406 0.7429-0.93669 0.25408-0.52079 0.42576-1.1852 0.42758-1.6549 7e-4 -0.14859-0.07008-0.62133-0.15668-1.0505-0.12893-0.63764-0.14589-0.82533-0.0925-1.026 0.16831-0.63742 0.86356-0.74234 1.3197-0.19916 0.33018 0.39327 0.44411 0.83853 0.44159 1.7275 0 0.96317-0.08268 1.3216-0.78045 3.4876-0.60275 1.8715-0.79265 2.701-0.79097 3.4542 0 2.7013 2.2241 4.4603 5.9422 4.7124 0.33116 0.02243 0.60205 0.02 0.60205-0.0057 0-0.02543-0.20727-0.43339-0.46065-0.90642-0.87281-1.6297-1.2269-2.7681-1.2269-3.9444 0-0.8853 0.12754-1.4259 0.68866-2.901 0.76658-2.018 0.8417-2.3458 0.8424-3.6767 5.61e-4 -0.69304-0.03084-1.1244-0.10791-1.4892-0.41749-1.9861-1.4452-3.6915-2.8955-4.8056-0.57487-0.44159-0.74668-0.53676-2.2168-1.2286-1.4142-0.6655-1.7823-0.89703-2.348-1.4767-0.60752-0.6225-0.86524-1.1315-0.90672-1.7904-0.02523-0.40712-0.01541-0.47134 0.08689-0.52589 0.2339-0.12557 0.73028-0.14843 1.1737-0.05414 0.82292 0.17489 1.5602 0.65081 2.7395 1.7682 1.2565 1.1905 1.9642 1.6301 2.8289 1.7571 0.42099 0.06186 0.46373 0.05771 0.54305-0.05286 0.12893-0.17941 0.10931-0.84727-0.03643-1.2423-0.26851-0.72786-0.84422-1.2684-2.1312-2.0008-0.82698-0.47069-1.3846-0.87343-1.6338-1.18-0.60906-0.7495-0.73281-1.8483-0.27104-2.4077 0.43739-0.52979 1.1785-0.58964 2.0329-0.1642 0.41552 0.20696 0.60149 0.3588 1.232 1.0065 1.8397 1.8894 2.9473 4.3682 3.4349 7.6866 0.13034 0.88587 0.11352 4.2233-0.02803 5.3817-0.13454 1.1046-0.34728 2.4155-0.59799 3.6763-0.21708 1.0919-0.23404 1.5927-0.06727 1.9688 0.12332 0.2759 0.37811 0.46051 0.63667 0.46051 0.29206 0 0.80961-0.3399 1.4059-0.92326 0.97385-0.95289 1.5196-1.8759 1.8317-3.0977 0.13593-0.53262 0.16004-0.7954 0.19984-2.184 0.04204-1.4677 0.05466-1.5996 0.18765-1.8783 0.19298-0.40649 0.54922-0.66602 0.91429-0.66602 0.2367 0 0.30887 0.03371 0.50886 0.23746 0.52119 0.5313 0.50325 1.2287-0.09528 3.7093-0.42688 1.7681-0.99684 3.1305-1.7197 4.1101-0.21722 0.29427-0.85529 0.98256-1.418 1.5296-0.67563 0.65676-1.1266 1.1522-1.3277 1.4587-1.1769 1.7937-0.5495 3.5512 1.3838 3.8767 0.80876 0.13614 1.7048-0.12814 2.3171-0.6836 0.85291-0.77356 1.6498-2.4974 2.2081-4.7774 0.82965-3.3876 1.0959-7.0726 0.6633-9.182-0.39128-1.9077-1.1769-3.5071-2.2805-4.6423-0.30117-0.3097-0.95353-0.84773-1.6156-1.3323-1.8453-1.3506-2.5873-2.223-2.8441-3.3439-0.12754-0.55626-0.0953-1.1224 0.07008-1.2492 0.21358-0.16334 0.75117-0.24364 1.1224-0.16764 0.91948 0.18824 1.7264 0.91989 2.5771 2.3367 0.66862 1.1135 0.97456 1.5288 1.4334 1.9457 0.34027 0.30917 0.5132 0.39426 0.5132 0.25257 0-0.03729-0.16341-0.38424-0.36297-0.77107-1.4513-2.8125-2.4934-4.9333-2.6336-5.3596-0.31616-0.96174-0.13593-1.6434 0.5139-1.9361 0.73729-0.33244 1.5574 0.20626 1.9512 1.2816 0.08409 0.22941 0.62798 2.0989 1.2089 4.1543 1.2541 4.4377 1.1691 4.1587 1.2581 4.1292 0.10931-0.03628 0.51727-1.052 0.72342-1.8003 0.27034-0.98166 0.3875-2.0052 0.34629-3.0292-0.04064-1.0034-0.14491-1.6522-0.51124-3.166-0.19704-0.81457-0.27104-1.2477-0.27104-1.5871 0-0.80089 0.31266-1.4532 0.85095-1.7758 0.59687-0.35761 1.4977-0.17791 2.1013 0.41912 0.5928 0.58654 0.78494 1.2222 0.73337 2.4276-0.05466 1.2891-0.26319 2.0713-1.4318 5.3818-1.0418 2.9514-1.3546 4.0516-1.5426 5.4249-0.12332 0.90003-0.12052 2.3208 0 3.0772 0.10931 0.66082 0.33018 1.393 0.42842 1.4243 0.03504 0.01143 0.33788-0.76597 0.67227-1.7271 0.81885-2.353 0.92929-2.6181 1.1849-2.8469 0.50676-0.45361 1.2588-0.06543 1.2588 0.6499 0 0.59763-1.2642 4.3749-4.4858 13.403-0.8993 2.5202-1.6265 4.6262-1.6157 4.6799 0.01395 0.06343 1.3002-1.0909 3.6625-3.2829 5.0484-4.6846 5.1243-4.7642 5.4509-5.721 0.13034-0.38391 0.14813-0.52259 0.12052-0.98207-0.04344-0.73456-0.28337-1.3691-1.0118-2.6788-0.86202-1.5496-1.1366-2.2081-1.2264-2.9408-0.18261-1.4899 1.1252-2.4591 2.0483-1.518 0.5125 0.5224 1.2225 2.3209 1.5326 3.8827 0.08549 0.43146 0.15584 0.84297 0.15584 0.91447 0 0.36179 0.19116 0.06143 0.96236-1.5121 1.1157-2.2764 1.322-2.5882 1.9214-2.9042 0.52596-0.27724 1.1688 0.01143 1.5193 0.68263 0.18947 0.36281 0.18373 1.0466-0.01395 1.6581-0.52189 1.6155-2.5792 5.0564-4.7948 8.0196-0.12332 0.16444-0.19087 0.29899-0.15093 0.29899 0.04064 0 0.23025-0.09329 0.42281-0.20734 1.1925-0.70644 2.0364-0.7524 2.8682-0.15617 0.25436 0.18234 0.53731 0.72282 0.53647 1.0244-0.0011 0.34094-0.18779 0.73617-0.43907 0.92956-0.45967 0.35371-0.94148 0.46816-2.3062 0.54776-2.2463 0.131-3.9522 0.74701-5.5889 2.0181-1.29 1.0018-2.0443 2.0122-3.3346 4.4671-1.0504 1.9985-1.5428 2.7228-2.5248 3.7141-0.71122 0.71797-1.2421 1.0596-1.8468 1.1887-0.39478 0.08429-0.3924 0.08429-0.80526-0.02886z" fill="#3099ec"/>
</svg>
