<svg width="64" height="64" version="1" xmlns="http://www.w3.org/2000/svg" xmlns:xlink="http://www.w3.org/1999/xlink">
 <defs>
  <linearGradient id="linearGradient864" x1="22.856" x2="16.436" y1="38.187" y2="30.314" gradientTransform="matrix(1.4 0 0 1.4 -1.5996 -1.5999)" gradientUnits="userSpaceOnUse">
   <stop stop-color="#000000" offset="0"/>
   <stop stop-color="#000000" stop-opacity="0" offset="1"/>
  </linearGradient>
 </defs>
 <rect x="5" y="5" width="54" height="54" rx="27" ry="27" fill="#e4e4e4" stroke-width=".96429"/>
 <rect x="9" y="9" width="46" height="46" rx="23" ry="23" fill="#f2f2f2" stroke-width=".82143"/>
 <g transform="matrix(.64286 0 0 .64286 11.429 11.429)">
  <path d="m32 4.0001c-4.6575-0.019192-9.3067 1.4185-13.073 4.2301-9.0421 6.5629-13.456 17.793-14.59 28.61-0.086695 3.0598-0.97856 6.4316 0.55234 9.2695 2.4109 3.8077 7.358 3.9572 11.276 5.0613 6.0643 1.0242 10.025 6.2968 15.408 8.7801l0.42656 0.04922 0.42656-0.04922c5.3829-2.4833 9.3437-7.7559 15.408-8.7801 3.9184-1.1041 8.8655-1.2536 11.276-5.0613 1.5309-2.838 0.63904-6.2097 0.55234-9.2695-1.1341-10.817-5.5483-22.047-14.59-28.61-3.7662-2.8116-8.4154-4.2493-13.073-4.2301zm0 15c4.7604-0.02548 9.5136 2.3739 12.302 6.3465 2.5549 3.5097 4.0619 8.1918 4.3421 12.519-6.308 1.8611-11.207 6.3603-16.384 10.169 0 0-0.17408 0.12851-0.25976 0.15312-0.08568-0.02461-0.25976-0.15312-0.25976-0.15312-5.1769-3.8088-10.076-8.308-16.384-10.169 0.28022-4.3273 1.7872-9.0094 4.3421-12.519 2.7882-3.9726 7.5414-6.372 12.302-6.3465z" fill="#80d955"/>
  <path d="m21.107 40.419c-4.3633 1.9435-8.7173 4.344-13.087 6.2645-1.1486 0.18317-1.5535 0.67444-1.534 1.2086 2.6299 2.1131 6.4948 2.3811 9.6797 3.2785 1.5194 0.25662 2.9056 0.78082 4.2164 1.4602 4.0515 0.22952 8.6301-1.913 11.618-4.4434-0.08568-0.02461-0.25977-0.15312-0.25977-0.15312-0.33557-0.24689-0.66709-0.50838-1.0008-0.76016-0.04029-0.03076-0.08009-0.06201-0.12032-0.09297-3.0995-2.3442-6.1574-4.8199-9.5129-6.7621z" fill="url(#linearGradient864)" opacity=".1"/>
 </g>
</svg>
