<svg width="64" height="64" version="1.1" viewBox="0 0 16.933 16.933" xmlns="http://www.w3.org/2000/svg">
 <rect x="1.5871" y="1.5878" width="13.758" height="13.758" rx="2.1162" ry="2.1162" fill="#b52cc1" stroke-width="1.04"/>
 <g transform="matrix(.41233 0 0 .41233 4.9875 1.5933)" fill="#fff">
  <path d="m14.795 5.1191-8.3417 2.5042 1.285 4.2811a4.8196 4.8196 0 0 1 5.1313 2.8854l4.4295-1.3298zm-9.6838 2.9065-8.3417 2.5042 2.5051 8.3417 4.4243-1.3281a4.8196 4.8196 0 0 1 0.34256-2.8423l1.7629 1.047a2.7926 2.7926 0 0 0-0.14054 1.2051l1.9517-0.58586-0.62539-2.0826a2.7926 2.7926 0 0 0-0.46904 0.35837l-1.7795-1.0575a4.8196 4.8196 0 0 1 1.6548-1.2798zm3.2253 5.8525a2.7926 2.7926 0 0 0-0.00527 8.78e-4l0.62626 2.0852 1.9535-0.58674a2.7926 2.7926 0 0 0-2.5745-1.4993zm9.2649 0.5885-4.426 1.3289a4.8196 4.8196 0 0 1-2.6957 5.2385l1.2842 4.2785 8.3417-2.5042zm-6.3891 1.9183-1.9526 0.58586 0.62539 2.0826a2.7926 2.7926 0 0 0 1.3272-2.6684zm-3.2947 0.98903-1.9526 0.58674a2.7926 2.7926 0 0 0 2.5788 1.4985zm-3.9122 1.1744-4.4287 1.3298 2.5042 8.3408 8.3408-2.5042-1.285-4.2811a4.8196 4.8196 0 0 1-5.1313-2.8854z" fill="#fff"/>
 </g>
</svg>
