<svg xmlns="http://www.w3.org/2000/svg" xmlns:xlink="http://www.w3.org/1999/xlink" width="64" height="64" viewBox="0 0 16.933 16.933"><defs><linearGradient id="a"><stop offset="0"/><stop offset="1" stop-opacity="0"/></linearGradient><linearGradient xlink:href="#a" id="b" x1="45" y1="60" x2="45" y2="9" gradientUnits="userSpaceOnUse"/></defs><circle cx="128" cy="138.357" r="54.375" vector-effect="non-scaling-stroke" fill="#242424" transform="matrix(.10218 0 0 .10218 -4.613 -4.613)" stroke-width="2.589"/><path style="isolation:isolate" d="M9.204 1.058a3.16 3.16 0 0 0-.638.073c-.536.149-1.036.846-1.22 1.354a.438.438 0 0 1-.08.154c-.017.008-.081.024-.143.037a7.315 7.315 0 0 0-1.94.727A6.638 6.638 0 0 0 2.48 6.268a6.56 6.56 0 0 0-.637 2.098c-.047.334-.047 1.344 0 1.678.211 1.505.842 2.794 1.878 3.844 1.18 1.196 2.696 1.877 4.41 1.983.214.013.859-.008 1.11-.036.7-.08 1.444-.293 2.085-.597a6.681 6.681 0 0 0 3.774-5.278c.013-.113.024-.422.024-.689.04-.764-.273-1.521-.587-2.08-.325-.672-.388-1.256-.436-1.973a.235.235 0 0 0 0-.1c-.861.264-1.598.96-2.051 1.603-.307.489-.507.989-.508 1.428.043 1.123 1.003 1.93 1.024 2.944 0 1.076-.648 2.116-1.417 2.86-.155.15-.193.177-.21.16a.5.5 0 0 1 .053-.147c.536-1.176.423-2.585-.4-3.572-.115-.138-.568-.586-.632-.626a2.562 2.562 0 1 1-2.035-2.043l.025.001c.024-.02.039-.039.039-.045 0-.04-.631-.671-.806-.807-.355-.275-.76-.607-1.228-.728-.125-.032-.19-.058-.19-.075 0-.048.444-.18.937-.28.6-.12.988-.15 2.15-.161.486-.005.967-.018 1.067-.028 1.252-.202 2.259-1.022 2.707-1.938.013-.042.011-.043-.183-.043-.411 0-.825-.085-1.22-.259-.51-.29-.959-.625-1.505-.742-.141-.03-.524-.036-.738-.065-.05-.43.14-1.053.324-1.33a.441.441 0 0 0 .076-.139c-.006-.02-.076-.028-.175-.028z" fill="#23c0af"/><path style="isolation:isolate" d="M34.787 4c-.413.003-1.033.062-1.61.143a35 35 0 0 1 1.678 1.04 5.02 5.02 0 0 1 .307-.552c.172-.247.3-.485.287-.526-.026-.077-.289-.107-.662-.105zm8.084 8.88a35 35 0 0 1 2.637 4.054c.914-.956 1.676-1.999 2.209-3.088.047-.158.043-.159-.692-.159-1.398 0-2.801-.276-4.154-.806zm10.418 6.462c-1.97.606-3.765 1.813-5.258 3.209A35 35 0 0 1 50 34a35 35 0 0 1-10.328 24.799c1.08-.344 2.143-.737 3.13-1.207a25.25 25.25 0 0 0 14.264-19.946c.05-.427.092-1.597.092-2.607.154-2.886-1.032-5.75-2.22-7.857-1.228-2.545-1.464-4.75-1.645-7.461.025-.166.021-.338-.004-.38z" transform="scale(.26458)" fill="url(#b)" opacity=".15"/></svg>