<svg xmlns="http://www.w3.org/2000/svg" width="64" height="64"><g stroke-width=".741" transform="translate(-519.39 -675.24)scale(1.35)"><rect width="40" height="40" x="388.44" y="503.88" fill="#f9b02d" fill-opacity=".902" opacity=".9" rx="20"/><path fill="#fff" d="M421.26 507.8q.988 0 1.105 1.49l-.553 4.681h.204l.436-.346h.116v.104q-.9.658-1.744 3.605-.32 2.531-1.076 4.68-.669 2.22-.669 4.092l-.843 2.461q0 .312.96.624-.175.728-.524.728v.139h.204v.104q0 .381-.989.381l.117.139v.485h-.204q.204.728.872.728v.243h-.872v.139q.436 0 .436.624l-1.221.485.116.139v.104q0 .243-.436.242v.14q.553 0 .553.242-.786.312-2.065 3.085-1.308 2.462-2.268 2.462h-.232q-.727-.555-1.192-3.675-1.861-4.75-1.861-5.582 0-2.15-1.192-4.576-.32-1.075-.437-2.704l-.523-.14q-1.977 3.572-2.064 5.583-.554 1.178-.873 2.843 1.193.38 1.193.728v.138q-.93-.139-1.309-.52-.407.936-1.076 5.2-.524 1.977-1.308 1.977-2.21-.867-3.693-2.843-.232 0-.756-1.976-.32 0-.436-1.976-1.104-2.809-1.512-6.414v-3.606h-.116l-.523.139v-.139q0-.243.523-.243l-.116-2.08v-1.63l-.844-5.2v-2.219q.553-2.08 1.92-2.08s.08-.005.348.347l-.348-.104q2.122 2.774 2.5 4.68h.989v.243h-.756v.277q.436 1.595.64 1.595h.232l.523-.139.117.14.116-.14.116.14v.103q-.581.417-.785 1.144h-.087v.243h.203q.408 5.79 1.512 8.771l.437.347h.232q.435 0 1.832-4.056.9-1.838 1.308-3.224l-.116-.382q.9-1.352 1.86-1.352h.204q.61 0 .873.763.813 1.144 1.308 3.432l1.628 3.606q.32.381.32.866.902 2.046 1.628 2.705h.35q.61 0 1.628-5.062.174 0 .959-2.704v-.139l-1.832-.243-.436.139h-.552v-.277l1.105-.104h2.151q1.251-4.473 2.297-6.934.35-5.062.96-5.062zm-11.078 2.981h.32v.104q0 .243-.32.243l-.116.139v.138l-.32-.138v-.243zm-1.628 1.353v.138q0 .278-1.396.59v-.243l.64-.347.116.104h.087zm-3.14 1.248v.104q-.61.555-1.978 1.005v-.243q.233 0 .233-.381zm5.524 1.213.116.139v.104l-.203.277h-.116l-.233-.277v-.104zm4.013.139h.116v.104l-.204.277h-.116v-.139zm-1.832 1.733.436.347q-.116.381-.64.381l-.232-.381q0-.173.436-.347m2.617 1.595.087.139v.104l-.087.138h-.233v-.138zm-4.13 1.248v.104l-.552.52h-.32v-.139q0-.312.873-.485m-3.81 10.609h.117v.243l-.872.52-.116-.139v-.243zm-.32 3.224h.087l.35.382-.117.104h-.116l-.204-.347z"/></g></svg>