<svg width="64" height="64" version="1.1" xmlns="http://www.w3.org/2000/svg" xmlns:xlink="http://www.w3.org/1999/xlink">
 <g transform="matrix(1.35 0 0 1.35 -519.39 -675.24)" stroke-width=".74074">
  <rect x="388.44" y="503.88" width="40" height="40" rx="20" fill="#f9b02d" fill-opacity=".90196" opacity=".9" stroke-opacity=".55027" stroke-width="2.0741"/>
  <path d="m421.26 507.8c0.65902 3e-5 1.0273 0.49696 1.1049 1.4908l-0.55245 4.6804h0.20353l0.43614-0.34669h0.11631v0.104c-0.60092 0.43918-1.1824 1.6411-1.7445 3.6056-0.21326 1.6873-0.57185 3.2474-1.0758 4.6804-0.44585 1.4792-0.66876 2.8429-0.66873 4.091l-0.84321 2.4615c-2e-5 0.20802 0.31981 0.41605 0.95951 0.62405-0.11633 0.48538-0.29078 0.72806-0.52337 0.72806v0.13868h0.20353v0.104c-2e-5 0.25425-0.32955 0.38137-0.98857 0.38136l0.11629 0.13869v0.48535h-0.20352c0.13566 0.4854 0.42642 0.72809 0.87227 0.72807v0.24269h-0.87227v0.13867c0.29073 0 0.43611 0.20803 0.43613 0.62406l-1.2212 0.48537 0.1163 0.13868v0.104c-3e-5 0.1618-0.1454 0.2427-0.43614 0.2427v0.13867c0.36826 0 0.55241 0.081 0.55244 0.24269-0.52338 0.20803-1.2115 1.2366-2.0644 3.0856-0.87228 1.641-1.6282 2.4615-2.2679 2.4615h-0.2326c-0.48462-0.36982-0.88198-1.5948-1.1921-3.675-1.2406-3.1665-1.8609-5.0271-1.8609-5.5818-1e-5 -1.433-0.39738-2.9584-1.1921-4.5764-0.21323-0.71647-0.35861-1.6179-0.43613-2.7042l-0.52337-0.13867c-1.3181 2.3807-2.0063 4.2413-2.0644 5.5818-0.36832 0.78586-0.65906 1.7335-0.87228 2.8429 0.79473 0.25426 1.1921 0.49693 1.1921 0.72805v0.13868c-0.62029-0.0925-1.0564-0.26579-1.3084-0.52004-0.27138 0.62406-0.62999 2.3575-1.0758 5.2004-0.34892 1.3174-0.78506 1.9762-1.3084 1.9762-1.4732-0.57783-2.7041-1.5254-3.6926-2.8429-0.15507 0-0.40707-0.65874-0.75597-1.9762-0.21323 0-0.35861-0.65873-0.43614-1.9762-0.73658-1.8722-1.2406-4.0101-1.5119-6.4139v-3.6056h-0.1163l-0.52338 0.13866v-0.13866c0-0.1618 0.17446-0.24268 0.52338-0.24269l-0.11631-2.0802v-1.6294l-0.8432-5.2004v-2.2189c0.3683-1.3867 1.008-2.0801 1.919-2.0802 0 0 0.081-5e-3 0.34893 0.34669l-0.34889-0.104c1.415 1.8491 2.2485 3.4092 2.5005 4.6804h0.98859v0.24269h-0.75598v0.27737c0.29076 1.0632 0.50398 1.5948 0.63966 1.5948h0.23261l0.52337-0.13869 0.1163 0.13869 0.1163-0.13869 0.11631 0.13869v0.104c-0.38768 0.27737-0.64936 0.65873-0.78505 1.1441h-0.0872v0.24268h0.20354c0.27137 3.8599 0.77534 6.7837 1.5119 8.7714l0.43615 0.34669h0.23259c0.29076 1e-5 0.90136-1.3521 1.8318-4.0563 0.6009-1.225 1.037-2.2997 1.3084-3.2242l-0.11631-0.38138c0.60089-0.90138 1.2212-1.3521 1.8608-1.3521h0.20353c0.40705 3e-5 0.69781 0.25427 0.87228 0.76272 0.54274 0.76276 0.97887 1.9069 1.3084 3.4323l1.6283 3.6056c0.21321 0.25427 0.31981 0.54318 0.31983 0.86675 0.60089 1.3637 1.1436 2.2651 1.6282 2.7042h0.34889c0.40705 0 0.94981-1.6872 1.6283-5.0618 0.11628 2e-5 0.4361-0.90139 0.95949-2.7042v-0.13868l-1.8318-0.2427-0.43614 0.13869h-0.55242v-0.27737l1.1049-0.104h2.1516c0.83348-2.9816 1.5991-5.2929 2.297-6.9339 0.23258-3.3745 0.55241-5.0617 0.95951-5.0618l1.3084-0.62405m-11.078 2.9816h0.31984v0.104c-2e-5 0.16182-0.10662 0.24272-0.31984 0.2427l-0.11629 0.13866v0.13869l-0.31985-0.13869v-0.24268l0.43614-0.24268m-1.6282 1.3521v0.13866c-1e-5 0.18494-0.46521 0.38141-1.3956 0.5894v-0.24269l0.63968-0.34671 0.11629 0.104h0.0872l0.55243-0.24269m-3.1402 1.2481v0.104c-0.40708 0.36984-1.0661 0.70498-1.9772 1.0054v-0.24269c0.15507 2e-5 0.23259-0.1271 0.2326-0.38136l1.7446-0.48538m5.5244 1.2134 0.11631 0.13868v0.104l-0.20353 0.27735h-0.1163l-0.23261-0.27735v-0.104l0.43613-0.13868m4.0125 0.13868h0.1163v0.104l-0.20353 0.27735h-0.1163v-0.13868l0.20353-0.24268m-1.8318 1.7335 0.43615 0.34669c-0.0775 0.25426-0.29079 0.38138-0.63968 0.38136l-0.2326-0.38136c-2e-5 -0.11554 0.14536-0.23111 0.43613-0.34669m2.6168 1.5948 0.0872 0.13868v0.104l-0.0872 0.13867h-0.23259v-0.13867l0.23259-0.24269m-4.1288 1.2481v0.104l-0.55244 0.52004h-0.31983v-0.13868c-2e-5 -0.208 0.29073-0.36978 0.87227-0.48537m-3.8089 10.609h0.11629v0.24269l-0.87227 0.52005-0.1163-0.13868v-0.24269l0.87228-0.38137m-0.31985 3.2243h0.0872l0.34891 0.38135-0.11629 0.104h-0.11631l-0.20354-0.34669v-0.13867" fill="#fff"/>
 </g>
</svg>
