<svg xmlns="http://www.w3.org/2000/svg" width="64" height="64" image-rendering="optimizeSpeed"><defs><linearGradient id="a" x1="-925.303" x2="-925.303" y1="1069.467" y2="1089.969" gradientTransform="matrix(.88036 0 0 -.88036 836.476 971.86)" gradientUnits="userSpaceOnUse"><stop offset="0" stop-color="#ffef3f"/><stop offset="1" stop-color="#ffc001"/></linearGradient><linearGradient id="b" x1="-1149.195" x2="-1149.195" y1="2328.906" y2="2348.648" gradientTransform="matrix(.7906 0 0 -.7906 946.545 2865.39)" gradientUnits="userSpaceOnUse"><stop offset="0" stop-color="#fff"/><stop offset="1" stop-color="#fff" stop-opacity=".755" style="stop-color:#fff;stop-opacity:.91963083"/></linearGradient></defs><path fill="#16baf7" d="M58.182 25.136a25.6 25.6 0 0 0-2.016-5.354 27 27 0 0 0-.704-1.282h-.001q-1.751-2.975-4.367-5.591C45.824 7.638 39.456 5 32 5s-13.82 2.638-19.092 7.91Q5.002 20.816 5 32q0 11.186 7.908 19.094c3.893 3.893 8.38 6.347 13.437 7.359A28.7 28.7 0 0 0 32 59q11.187 0 19.094-7.905 4.171-4.168 6.14-9.256c.973-2.514 1.545-5.194 1.714-8.051A31 31 0 0 0 59 32c0-2.388-.27-4.668-.818-6.864"/><g opacity=".95" style="opacity:1;stroke-width:.99959;stroke-dasharray:none"><path fill="url(#a)" d="M31.127 25.95a9.243 9.243 0 1 1-9.244-9.243 9.243 9.243 0 0 1 9.244 9.243" style="fill:url(#a);stroke-width:1.11353" transform="matrix(-1 0 0 1 64.89 1.097)"/><path fill="url(#b)" d="M35 1004.362c-6.628 0-12 5.372-12 12v.156c-3.418.699-6 3.719-6 7.345a7.5 7.5 0 0 0 7.5 7.499c.166 0 .337-.021.5-.031v.031h24v-.031c5.562-.266 9.999-4.841 9.999-10.47 0-5.798-4.7-10.5-10.499-10.5-.996 0-1.962.147-2.874.406A12.02 12.02 0 0 0 35 1004.362" style="fill:url(#b);stroke-width:.99959;stroke-dasharray:none" transform="matrix(-.88036 0 0 .88036 63.695 -862.867)"/></g></svg>