<svg width="64" height="64" version="1.1" viewBox="0 0 64 64" xmlns="http://www.w3.org/2000/svg">
 <rect x="6.0001" y="6.0001" width="52" height="52" rx="7.9999" ry="7.9999" fill="#4b576c" stop-color="#000000" stroke-width="3.7796"/>
 <path d="m37.869 26.13c-6.4832 0-11.739 4.2046-11.739 9.3912s5.2558 9.3912 11.739 9.3912c1.9078-0.0019 3.7863-0.37566 5.4728-1.0891l3.9184 2.2629-1.0593-3.955c2.1808-1.7578 3.4052-4.1335 3.407-6.6101 0-5.1866-5.2558-9.3912-11.739-9.3912zm-7.0434 7.0434c1.2967 0 2.3478 1.0511 2.3478 2.3478s-1.0511 2.3478-2.3478 2.3478-2.3478-1.0511-2.3478-2.3478 1.0511-2.3478 2.3478-2.3478zm7.0434 0c1.2967 0 2.3478 1.0511 2.3478 2.3478s-1.0511 2.3478-2.3478 2.3478-2.3478-1.0511-2.3478-2.3478 1.0511-2.3478 2.3478-2.3478zm7.0434 0c1.2967 0 2.3478 1.0511 2.3478 2.3478s-1.0511 2.3478-2.3478 2.3478-2.3478-1.0511-2.3478-2.3478 1.0511-2.3478 2.3478-2.3478z" fill="#ffffff" stroke-width="1.1739"/>
 <path d="m27.891 17.913c-7.3911 0-13.5 4.9294-13.5 11.152 0.0024 3.1881 1.6968 6.169 4.5145 8.2609l-2.2102 3.8243 6.3807-1.7104c1.0219 0.32428 2.083 0.5496 3.1618 0.67178-0.23708-0.40267-0.4495-0.8162-0.62363-1.2473-0.82-0.12634-1.6239-0.31673-2.3983-0.57548l-0.16738-0.05502-3.9184 1.0501 1.3091-2.2653-0.45168-0.30723c-2.8253-1.9132-4.4206-4.7139-4.4228-7.6464 0-5.4472 5.4539-9.9782 12.326-9.9782 5.0545 0 9.3318 2.4559 11.246 5.92 0.47508 0.03806 0.94059 0.1018 1.4009 0.18113-1.9152-4.271-6.8832-7.275-12.646-7.275z" fill="#ffffff" opacity=".5" stroke-width="1.1739"/>
</svg>
