<svg width="64" height="64" version="1.1" viewBox="0 0 16.933 16.933" xmlns="http://www.w3.org/2000/svg">
 <g transform="translate(0 -280.07)">
  <circle cx="8.7316" cy="288.53" r="7.1436" fill="#375295" style="paint-order:stroke markers fill"/>
  <path d="M6.085 286.831h1.021v-.68c0-.53.076-.896.2-1.157.128-.26.36-.472.696-.635.34-.165.77-.249 1.287-.249.53 0 1.087.137 1.559.34l-.34 1.021a3.255 3.255 0 0 0-.768-.08c-.27 0-.464.058-.584.173-.115.11-.35.267-.35.589v.68h1.702v1.02H8.807v5.103H7.119l-.013-5.102h-1.02" fill="#f9f9f9"/>
 </g>
</svg>
