<svg width="64" height="64" version="1.1" xmlns="http://www.w3.org/2000/svg">
 <circle cx="32" cy="32" r="27" fill="#6ab1e6" stroke-width=".96429"/>
 <path d="m26.842 18.002c-2.5712 0.45189-5.0322 1.2426-7.3281 2.3184-0.01987 0.008801-0.033622 0.022076-0.044922 0.041016-4.667 7.1151-5.9475 14.056-5.3203 20.91 0.0029 0.03353 0.021325 0.065548 0.046874 0.085938 3.0792 2.3075 6.061 3.7082 8.9883 4.6367 0.04686 0.01459 0.097148-0.001786 0.12695-0.041016 0.69245-0.96497 1.3106-1.762 1.8398-2.832 0.03123-0.06266 0.0014-0.13732-0.0625-0.16211-0.97908-0.379-1.9099-0.84048-2.8066-1.3652-0.07093-0.04228-0.078842-0.14574-0.013672-0.19531 0.18872-0.14431 0.3784-0.29566 0.55859-0.44727 0.03261-0.02768 0.078859-0.033105 0.11719-0.015625 5.8915 2.7449 12.27 2.7449 18.092 0 0.03832-0.01893 0.081207-0.014168 0.11524 0.013672 0.18025 0.1516 0.37041 0.30491 0.56055 0.44922 0.065249 0.049559 0.059211 0.15304-0.011719 0.19531-0.89679 0.53495-1.8281 0.98768-2.8086 1.3652-0.06383 0.02479-0.091777 0.099446-0.060547 0.16211 0.5406 1.0685 1.1563 1.8651 1.8359 2.8301 0.02839 0.04082 0.080098 0.057569 0.12695 0.042969 2.9415-0.92854 5.9247-2.3292 9.0039-4.6367 0.02697-0.02039 0.045988-0.052408 0.048828-0.085938 0.75061-7.9242-1.2608-14.804-5.3262-20.906-0.01-0.02039-0.025042-0.036181-0.044922-0.044922-2.2945-1.0743-4.7536-1.865-7.3262-2.3184-0.046861-0.0088-0.095009 0.011078-0.11914 0.054688-0.31644 0.57433-0.6647 0.64351-0.91016 1.2324-2.767-0.42272-5.5222-0.42272-8.2324 0-0.2455-0.602-0.60792-0.65809-0.92578-1.2324-0.02413-0.04228-0.072289-0.061988-0.11914-0.054688zm-1.3457 12.998c1.9644 0 3.5346 1.5845 3.5039 3.5 0 1.9293-1.5549 3.5-3.5039 3.5-1.9184 0-3.4961-1.5707-3.4961-3.5 0-1.9293 1.547-3.5 3.4961-3.5zm13.004 0c1.9644 0 3.5307 1.5845 3.5 3.5 1e-6 1.9293-1.5356 3.5-3.5 3.5-1.9184 0-3.5-1.5707-3.5-3.5 0-1.9293 1.5509-3.5 3.5-3.5z" fill="#ffffff"/>
</svg>
