<svg width="64" height="64" version="1.1" viewBox="0 0 16.933 16.933" xmlns="http://www.w3.org/2000/svg">
 <g transform="matrix(1.1739 0 0 1.1739 1.0123 -3.9572)" stroke-width=".22538">
  <path d="m12.435 10.583a6.0853 6.0853 0 0 1-6.0853 6.0853 6.0853 6.0853 0 0 1-6.0853-6.0853 6.0853 6.0853 0 0 1 6.0853-6.0853 6.0853 6.0853 0 0 1 6.0853 6.0853z" fill="#63c8e3"/>
  <path d="m2.9692 7.2024h6.7614v6.7614h-6.7614z" fill="#303030"/>
  <path d="m7.4082 9.9925c0.25478 0.20701 0.47526 0.32602 0.79373 0.32602 0.25478 0 0.52916-0.11883 0.52916-0.29399v-0.01593c0-0.15924-0.17898-0.27498-0.65669-0.40237-0.57325-0.14331-0.94301-0.47095-0.94301-0.83968v-0.015925c0-0.52548 0.49729-0.81331 1.0705-0.81331 0.41402 0 0.66679 0.1379 0.96769 0.31968l-0.29469 0.40161c-0.25478-0.17516-0.43414-0.19214-0.67299-0.19214-0.23886 0-0.52916 0.11686-0.52916 0.26017v0.049218c0 0.19108 0.18374 0.28026 0.66145 0.40765 0.57325 0.15924 0.91501 0.34128 0.91501 0.77732v0.015925c0 0.49239-0.4422 0.87092-1.0473 0.87092-0.42994-0.015923-0.80481-0.17813-1.1392-0.48068m-0.44826-2.4297-0.52916 1.852-0.52916-1.852h-0.52916l-0.52916 1.852-0.52916-1.852h-0.52916l0.79373 2.9104h0.52916l0.52916-1.852 0.52916 1.852h0.52916l0.79373-2.9104" fill="#f9f9f9"/>
  <path d="m3.4395 12.7h2.6458v0.52916h-2.6458z" fill="#f9f9f9"/>
 </g>
</svg>
