<svg width="64" height="64" version="1.1" viewBox="0 0 16.933 16.933" xmlns="http://www.w3.org/2000/svg">
 <circle cx="-330.35" cy="-328.38" r="0" fill="#5e4aa6" stroke-width=".26458"/>
 <circle cx="8.4665" cy="8.4665" r="7.1436" fill="#14bd59" stroke-width=".12629"/>
 <g fill-rule="evenodd">
  <circle cx="-39.434" cy="6.44" r="0" fill="#5e4aa6" stroke-width=".26458"/>
  <path d="m7.0826 4.1592a3.715 3.4282 0 0 1 3.715 3.4282 3.715 3.4282 0 0 1-3.715 3.4282 3.715 3.4282 0 0 1-1.5835-0.33032c-0.64938 0.55282-1.3391 0.60597-1.3391 0.60597 0.372-0.42465 0.61918-0.99769 0.62493-1.011a3.715 3.4282 0 0 1-1.4173-2.6928 3.715 3.4282 0 0 1 3.715-3.4282z" fill="#b4ea6e" stroke-width=".5948"/>
  <path d="m10.65 7.0602a2.9706 2.7413 0 0 0-2.9706 2.7413 2.9706 2.7413 0 0 0 2.9706 2.7413 2.9706 2.7413 0 0 0 1.2662-0.26413c0.51927 0.44204 1.0708 0.48454 1.0708 0.48454-0.29748-0.33956-0.49512-0.79778-0.49972-0.80845a2.9706 2.7413 0 0 0 1.1333-2.1533 2.9706 2.7413 0 0 0-2.9706-2.7413z" fill="#fff" stroke-width=".47561"/>
 </g>
 <g fill="#4d4d4d" fill-rule="evenodd">
  <circle cx="5.7115" cy="6.4386" r=".57136" stroke-width=".57136"/>
  <circle cx="8.376" cy="6.4386" r=".57136" stroke-width=".57136"/>
  <circle cx="9.5536" cy="8.8906" r=".45688" stroke-width=".45688"/>
  <circle cx="11.685" cy="8.8906" r=".45688" stroke-width=".45688"/>
 </g>
</svg>
