<svg xmlns="http://www.w3.org/2000/svg" width="64" height="64"><g transform="translate(4.87 4.87)scale(1.1304)"><rect width="46" height="46" x="1" y="1" fill="#3b3a58" rx="7.077" ry="7.077"/><path fill="#7c7ce4" d="M16.379 13.113c-.603 0-1.089.486-1.089 1.089v1.133c-1.546.13-2.79.55-3.725 1.27-1.146.88-1.718 2.224-1.718 3.585 0 1.443.671 2.788 1.843 3.64.943.685 2.16 1.079 3.6 1.208v5.437c-1.146-.12-1.947-.426-2.443-.77-.641-.443-.823-.896-.823-1.35a1.089 1.089 0 0 0-2.177 0c0 1.18.635 2.36 1.763 3.141.92.637 2.144 1.037 3.68 1.165V33.8c0 .603.486 1.089 1.09 1.089.602 0 1.088-.486 1.088-1.089v-1.133c1.547-.13 2.79-.55 3.725-1.27 1.146-.881 1.719-2.224 1.719-3.585a4.47 4.47 0 0 0-1.844-3.64c-.943-.686-2.16-1.079-3.6-1.208v-5.438c1.146.122 1.947.426 2.443.77.641.444.823.897.823 1.35a1.089 1.089 0 0 0 2.177 0c0-1.179-.634-2.36-1.762-3.14-.92-.637-2.145-1.038-3.681-1.166v-1.137c0-.603-.486-1.089-1.089-1.089zm9.646 2.188a1.09 1.09 0 0 0-.925 1.231l2.177 15.242c.153 1.092 1.647 1.29 2.08.277l2.264-5.285 2.265 5.285c.433 1.014 1.927.815 2.08-.277l2.177-15.242a1.089 1.089 0 1 0-2.156-.306l-1.629 11.396-1.735-4.051c-.376-.882-1.627-.882-2.003 0l-1.735 4.05-1.63-11.395a1.09 1.09 0 0 0-1.23-.925M15.29 17.527v5.323c-1.045-.122-1.817-.415-2.32-.78-.665-.484-.947-1.044-.947-1.88 0-.817.244-1.379.868-1.859.482-.37 1.262-.68 2.399-.803zm2.177 7.624c1.044.121 1.817.414 2.32.78.665.484.946 1.043.946 1.88 0 .817-.244 1.379-.867 1.859-.483.37-1.263.68-2.399.803z"/></g></svg>