<svg width="64" height="64" version="1.1" viewBox="0 0 64 64" xmlns="http://www.w3.org/2000/svg">
 <g transform="matrix(1.1304 0 0 1.1304 4.8696 4.8696)">
  <rect x="1" y="1" width="46" height="46" rx="7.0769" ry="7.0769" fill="#3b3a58"/>
  <path d="m16.379 13.113c-0.60316 0-1.0887 0.48558-1.0887 1.0887v1.1334c-1.5468 0.13014-2.7901 0.54996-3.7256 1.2695-1.1456 0.88117-1.7181 2.2243-1.7181 3.5852 0 1.4431 0.67138 2.7885 1.8437 3.6405 0.94252 0.68504 2.1597 1.0784 3.6 1.2078v5.4373c-1.146-0.1213-1.947-0.42616-2.4432-0.76977-0.64111-0.44385-0.82293-0.89665-0.82293-1.3503 0-0.60129-0.48745-1.0887-1.0887-1.0887s-1.0887 0.48745-1.0887 1.0887c0 1.1794 0.63473 2.3597 1.7628 3.1408 0.91954 0.6366 2.1449 1.0371 3.6809 1.1653v1.1376c0 0.60316 0.48558 1.0887 1.0887 1.0887 0.60316 0 1.0887-0.48558 1.0887-1.0887v-1.1334c1.5468-0.13014 2.7901-0.54996 3.7256-1.2695 1.1456-0.88117 1.7181-2.2243 1.7181-3.5852 0-1.4431-0.67138-2.7885-1.8437-3.6405-0.94252-0.68504-2.1597-1.0784-3.6-1.2078v-5.4373c1.146 0.1213 1.947 0.42616 2.4432 0.76977 0.64111 0.44385 0.82293 0.89665 0.82293 1.3503 0 0.60129 0.48745 1.0887 1.0887 1.0887s1.0887-0.48745 1.0887-1.0887c0-1.1794-0.63473-2.3597-1.7628-3.1408-0.91954-0.6366-2.1449-1.0371-3.6809-1.1653v-1.1376c0-0.60316-0.48558-1.0887-1.0887-1.0887zm9.6456 2.1879c-0.59547 0.08446-1.0097 0.63576-0.925 1.2313l2.1775 15.242c0.15314 1.0922 1.6465 1.2907 2.0797 0.27644l2.2647-5.2842 2.2647 5.2842c0.43315 1.0143 1.9265 0.81579 2.0797-0.27644l2.1775-15.242c0.08466-0.59545-0.32953-1.1468-0.925-1.2313-0.59545-0.08466-1.1468 0.32953-1.2313 0.925l-1.6289 11.396-1.7352-4.0509c-0.37628-0.88222-1.6268-0.88222-2.0031 0l-1.7352 4.0509-1.6289-11.396c-0.08446-0.59547-0.63576-1.0097-1.2313-0.925zm-10.734 2.2266v5.3225c-1.0441-0.12154-1.8166-0.41455-2.32-0.78041-0.665-0.48334-0.94626-1.0432-0.94626-1.8798 0-0.81655 0.24391-1.3788 0.86759-1.8585 0.48234-0.37103 1.2625-0.68076 2.3986-0.80379zm2.1775 7.6233c1.0441 0.12154 1.8166 0.41455 2.32 0.78041 0.665 0.48334 0.94626 1.0432 0.94626 1.8798 0 0.81655-0.24391 1.3788-0.86759 1.8585-0.48234 0.37103-1.2625 0.68076-2.3986 0.80379z" fill="#7c7ce4" stroke-width="1.0887"/>
 </g>
</svg>
