<svg width="64" height="64" version="1.1" viewBox="0 0 64 64" xmlns="http://www.w3.org/2000/svg">
 <g transform="matrix(1.1739 0 0 1.1739 3.8261 3.8261)">
  <circle cx="24" cy="24" r="23" fill="#74b1f2"/>
  <path d="m37 26c0 4.9706-2.6863 9-6 9-2.283 0-3-1-4-2.5-0.59924 0.74495-0.68839 1.5-5 1.5 0 0 2-2 2-4 0-3-1-4-2-4-4 0-5 1-6 2-0.18557-0.15635 2 0 2 2s-1 3-1 3 0-2-2-2c-2.7187 0-3 3-3 3s-1 0-1-2c0-4 3-5 3-5 0-8 5-11 8-12 0-2.3197-0.37942-2.6404-1-3.5 0.59085-0.32812 1.1644-0.5 2-0.5 4 0 5.5 2 6.5 4 5.5 2.6884 7.5 7 7.5 11z" fill="#acf5ec" style="paint-order:normal"/>
 </g>
</svg>
