<svg xmlns="http://www.w3.org/2000/svg" width="64" height="64" viewBox="0 0 16.933 16.933"><rect width="13.229" height="13.229" x="1.852" y="281.92" fill="#4d4d4d" paint-order="markers stroke fill" rx="1.526" ry="1.526" transform="translate(-.339 -291.611)scale(1.04)"/><g fill="#fff" transform="translate(0 -280.07)"><rect width="3.175" height="3.175" x="2.91" y="282.98" opacity=".75" rx=".529" ry=".529"/><rect width="3.175" height="3.175" x="6.879" y="282.98" opacity=".75" rx=".529" ry=".529"/><rect width="3.175" height="3.175" x="10.848" y="282.98" opacity=".75" rx=".529" ry=".529"/><rect width="3.175" height="3.175" x="2.91" y="286.95" opacity=".75" rx=".529" ry=".529"/><rect width="3.175" height="3.175" x="6.879" y="286.95" opacity=".75" rx=".529" ry=".529"/><rect width="3.175" height="3.175" x="10.848" y="286.95" opacity=".75" rx=".529" ry=".529"/><rect width="3.175" height="3.175" x="2.91" y="290.92" opacity=".75" rx=".529" ry=".529"/><rect width="3.175" height="3.175" x="6.879" y="290.92" opacity=".75" rx=".529" ry=".529"/><rect width="3.175" height="3.175" x="10.848" y="290.92" opacity=".75" rx=".529" ry=".529"/></g></svg>