<svg width="64" height="64" version="1.1" xmlns="http://www.w3.org/2000/svg">
 <path d="m31.273 4.7015a2.3619 2.3609 0 0 0-0.89876 0.20261l-17.45 7.7604a2.3619 2.3609 0 0 0-1.2455 1.3116l-6.8513 17.821a2.3619 2.3609 0 0 0-0.03467 0.20261 2.3619 2.3609 0 0 0 0.082676 1.6049l7.7608 17.443a2.3619 2.3609 0 0 0 1.3121 1.245l17.828 6.8486a2.3619 2.3609 0 0 0 1.8082-0.04532l17.452-7.7604a2.3619 2.3609 0 0 0 1.2428-1.3116l6.8513-17.821a2.3619 2.3609 0 0 0 0.06668-0.20261 2.3619 2.3609 0 0 0-0.112-1.6049l-7.7635-17.445a2.3619 2.3609 0 0 0-1.3121-1.2423l-17.828-6.8486a2.3619 2.3609 0 0 0-0.90942-0.15729z" fill="#3f3f3f"/>
 <path d="m4.1052 32a2.4225 2.4215 0 0 0 0.084798 1.646l7.96 17.891a2.4225 2.4215 0 0 0 1.3458 1.2769l18.286 7.0244a2.4225 2.4215 0 0 0 1.8546-0.04648l17.9-7.9596a2.4225 2.4215 0 0 0 1.2747-1.3453l7.0272-18.279a2.4225 2.4215 0 0 0 0.06838-0.20781z" fill="#3f3f3f"/>
 <path d="m31.265 4.0008a2.4225 2.4215 0 0 0-0.92182 0.20781l-17.898 7.9596a2.4225 2.4215 0 0 0-1.2774 1.3453l-7.0272 18.279a2.4225 2.4215 0 0 0-0.03556 0.20781h55.802a2.4225 2.4215 0 0 0-0.11488-1.646l-7.9627-17.893a2.4225 2.4215 0 0 0-1.3458-1.2742l-18.286-7.0244a2.4225 2.4215 0 0 0-0.93277-0.16132z" fill="#6a7081"/>
 <path d="m18 20v24h5.6v-0.04396c0.42954-0.09982 1.6166-0.43109 2.3461-1.207l6.0539-6.4394 6.0539 6.4394c0.7295 0.77594 1.9166 1.1072 2.3461 1.207v0.04396h5.6v-24h-6v16.392l-8-8.9326-8 8.9326v-16.392z" fill="#ffffff"/>
 <g transform="matrix(2.0168 0 0 2.0168 -.25817 -.26839)">
  <path d="m15.683 4.1003a1.0295 1.0291 0 0 0-0.39253 0.088865l-7.6057 3.3823a1.0295 1.0291 0 0 0-0.54297 0.57147l-2.987 7.7682a1.0295 1.0291 0 0 0-0.015045 0.08887h1.395a0.90842 0.90805 0 0 1 0.013676-0.07793l2.6342-6.8549a0.90842 0.90805 0 0 1 0.48006-0.50448l6.7113-2.9845a0.90842 0.90805 0 0 1 0.34466-0.077928 0.90842 0.90805 0 0 1 0.35013 0.060154l6.8576 2.6345a0.90842 0.90805 0 0 1 0.50468 0.4785l2.9857 6.71a0.90842 0.90805 0 0 1 0.0424 0.61659h1.3964a1.0295 1.0291 0 0 0-0.04923-0.69998l-3.3837-7.6041a1.0295 1.0291 0 0 0-0.57306-0.54139l-7.7712-2.9859a1.0295 1.0291 0 0 0-0.39526-0.068357z" fill="#3f3f3f"/>
  <path d="m4.1397 16a1.0295 1.0291 0 0 0 0.03556 0.69998l3.3837 7.6027a1.0295 1.0291 0 0 0 0.57169 0.54276l7.7712 2.9859a1.0295 1.0291 0 0 0 0.78779-0.02051l7.6085-3.3823a1.0295 1.0291 0 0 0 0.5416-0.57147l2.9857-7.7682a1.0295 1.0291 0 0 0 0.03009-0.08886h-1.3964a0.90842 0.90805 0 0 1-0.02462 0.07793l-2.6355 6.8549a0.90842 0.90805 0 0 1-0.47732 0.50448l-6.7126 2.9845a0.90842 0.90805 0 0 1-0.69615 0.01777l-6.8562-2.6345a0.90842 0.90805 0 0 1-0.50468-0.4785l-2.9857-6.7086a0.90842 0.90805 0 0 1-0.031457-0.61795z" fill="#6a7081"/>
 </g>
</svg>
