<svg xmlns="http://www.w3.org/2000/svg" width="64" height="64"><path fill="#ececec" d="m62 17.998-59.996.004v31.154A5.985 5.985 0 0 0 8 55h48c3.324 0 6-2.676 6-6z"/><path fill="#666" d="M8 9c-3.324 0-6 2.676-6 6v2.998h60V15c0-3.324-2.676-6-6-6z"/><rect width="3.001" height="3.001" x="53.502" y="12" opacity=".35" paint-order="stroke markers fill" ry="1.5"/><rect width="3.001" height="3.001" x="47.5" y="12" opacity=".35" paint-order="stroke markers fill" ry="1.5"/><rect width="3.001" height="3.001" x="41.501" y="12" opacity=".35" paint-order="stroke markers fill" ry="1.5"/><rect width="30" height="27" x="20" y="22" fill="#fff" rx="4" ry="4"/><path fill="gray" d="M24 22c-2.216 0-4 1.784-4 4v5h29.998v-5.037A3.99 3.99 0 0 0 46 22z" style="paint-order:stroke markers fill"/><rect width="3.001" height="3.001" x="44" y="25" opacity=".35" ry="1.5" style="paint-order:stroke markers fill"/><rect width="3.001" height="3.001" x="38" y="25" opacity=".35" ry="1.5" style="paint-order:stroke markers fill"/><rect width="3.001" height="3.001" x="32" y="25" opacity=".35" ry="1.5" style="paint-order:stroke markers fill"/></svg>