<svg width="64" height="64" version="1.1" viewBox="0 0 64 64" xmlns="http://www.w3.org/2000/svg">
 <path d="m62 17.998-59.996 0.0038v31.154c0.082334 3.2512 2.7244 5.8438 5.9961 5.8438h48c3.324 0 6-2.676 6-6z" fill="#ececec" stroke-width="3.7796"/>
 <path d="m8 9c-3.324 0-6 2.676-6 6v2.9981h60v-2.9981c0-3.324-2.676-6-6-6z" fill="#666666" stroke-width="3.7796"/>
 <rect x="53.502" y="12" width="3.001" height="3.001" ry="1.5005" opacity=".35" stroke-width="3.7796" paint-order="stroke markers fill"/>
 <rect x="47.5" y="12" width="3.001" height="3.001" ry="1.5005" opacity=".35" stroke-width="3.7796" paint-order="stroke markers fill"/>
 <rect x="41.501" y="12" width="3.001" height="3.001" ry="1.5005" opacity=".35" stroke-width="3.7796" paint-order="stroke markers fill"/>
 <rect x="20" y="22" width="30" height="27" rx="4" ry="4" fill="#ffffff" stop-color="#000000" stroke-width="0"/>
 <path d="m24 22c-2.216 0-4 1.784-4 4v5h29.998v-5.0371c-0.020019-2.1986-1.7946-3.9629-3.998-3.9629z" fill="#808080" stroke-width="3.7796" style="paint-order:stroke markers fill"/>
 <rect x="44" y="25" width="3.001" height="3.001" ry="1.5005" opacity=".35" stroke-width="3.7796" style="paint-order:stroke markers fill"/>
 <rect x="38" y="25" width="3.001" height="3.001" ry="1.5005" opacity=".35" stroke-width="3.7796" style="paint-order:stroke markers fill"/>
 <rect x="32" y="25" width="3.001" height="3.001" ry="1.5005" opacity=".35" stroke-width="3.7796" style="paint-order:stroke markers fill"/>
</svg>
