<svg xmlns="http://www.w3.org/2000/svg" xmlns:xlink="http://www.w3.org/1999/xlink" width="64" height="64" viewBox="0 0 16.933 16.933"><defs><linearGradient id="a"><stop offset="0"/><stop offset="1" stop-opacity="0"/></linearGradient><linearGradient gradientTransform="matrix(.26458 0 0 .26458 0 280.067)" xlink:href="#a" id="b" x1="46.168" y1="57" x2="46.168" y2="27.346" gradientUnits="userSpaceOnUse"/></defs><g transform="translate(0 -280.067)"><g><rect ry=".794" rx=".794" y="281.919" x="1.852" height="13.229" width="13.229" fill="#2196f3" paint-order="markers stroke fill"/><path d="M15.081 287.302a11.906 11.906 0 0 1-5.732 7.846h4.938c.44 0 .794-.354.794-.794z" opacity=".25" fill="url(#b)" paint-order="markers stroke fill"/><path d="M4.852 288.269l-.003-2.58 2.894-.432v3.012zm3.374-3.089l3.857-.615v3.704H8.226zm3.858 3.618l-.001 3.704-3.857-.595v-3.11zm-4.34 3.041l-2.892-.435v-2.606h2.891v3.041z" fill="#fff"/></g><circle cx="12.7" cy="292.767" r="3.175" fill="#f55" paint-order="stroke markers fill"/><rect width="4.233" height=".529" x="213.881" y="197.772" rx="0" ry="0" transform="rotate(45)" fill="#fff" paint-order="markers stroke fill"/><rect transform="scale(-1 1) rotate(45)" ry="0" rx="0" y="215.733" x="195.92" height=".529" width="4.233" fill="#fff" paint-order="markers stroke fill"/></g></svg>