<svg xmlns="http://www.w3.org/2000/svg" xmlns:xlink="http://www.w3.org/1999/xlink" width="64" height="64" viewBox="0 0 16.933 16.933"><defs><linearGradient id="a"><stop offset="0"/><stop offset="1" stop-opacity="0"/></linearGradient><linearGradient gradientTransform="matrix(.26458 0 0 .26458 0 280.067)" xlink:href="#a" id="b" x1="46.168" y1="57" x2="46.168" y2="27.346" gradientUnits="userSpaceOnUse"/></defs><g transform="translate(0 -280.067)"><rect ry=".794" rx=".794" y="281.919" x="1.852" height="13.229" width="13.229" fill="#2196f3" paint-order="markers stroke fill"/><path d="M15.081 287.302a11.906 11.906 0 0 1-5.732 7.846h4.938c.44 0 .794-.354.794-.794z" opacity=".25" fill="url(#b)" paint-order="markers stroke fill"/><path d="M4.852 288.269l-.003-2.58 2.894-.432v3.012zm3.374-3.089l3.857-.615v3.704H8.226zm3.858 3.618l-.001 3.704-3.857-.595v-3.11zm-4.34 3.041l-2.892-.435v-2.606h2.891v3.041z" fill="#fff"/></g><g transform="translate(.982 -279.166)" paint-order="stroke markers fill"><circle r="3.175" cy="291.866" cx="11.718" fill="#f55"/><circle cx="11.718" cy="291.866" r="1.588" opacity=".15"/><g fill="#fff"><path d="M11.718 290.522a1.343 1.343 0 0 0-1.343 1.344 1.343 1.343 0 0 0 1.343 1.343 1.343 1.343 0 0 0 1.343-1.343 1.343 1.343 0 0 0-1.343-1.344zm0 .61a.733.733 0 0 1 .733.734.733.733 0 0 1-.733.732.733.733 0 0 1-.733-.732.733.733 0 0 1 .733-.733z"/><path d="M11.474 289.973h.488v.854h-.488zM11.474 292.903h.488v.855h-.488zM13.611 291.621v.489h-.855v-.489zM10.68 291.621v.489h-.855v-.489zM13.23 293.031l-.346.346-.604-.605.345-.345zM11.157 290.959l-.345.345-.605-.604.345-.345zM10.552 293.377l-.345-.346.605-.604.345.345zM12.625 291.304l-.345-.345.604-.604.345.345z"/></g></g></svg>