<svg xmlns="http://www.w3.org/2000/svg" width="64" height="64" viewBox="0 0 16.933 16.933"><rect width="13.229" height="13.229" x="1.852" y="281.92" fill="#2196f3" stroke-width=".962" paint-order="markers stroke fill" rx="2.035" ry="2.035" transform="matrix(1.04 0 0 1.04 -.339 -291.61)"/><path fill="#fff" d="m12.17 4.498-3.968.616v3.088h3.968zm-4.497.7-2.91.424.003 2.58h2.907zM4.766 8.73v2.608l2.907.427V8.73zm3.436.001v3.109l3.968.595V8.731z"/><g paint-order="stroke markers fill" transform="translate(.982 -279.17)"><circle cx="11.718" cy="291.87" r="3.175" fill="#f55"/><circle cx="11.718" cy="291.87" r="1.588" opacity=".15"/><g fill="#fff"><path d="M11.718 290.522a1.343 1.343 0 0 0-1.343 1.344 1.343 1.343 0 0 0 1.343 1.343 1.343 1.343 0 0 0 1.343-1.343 1.343 1.343 0 0 0-1.343-1.344zm0 .61a.733.733 0 0 1 .733.734.733.733 0 0 1-.733.732.733.733 0 0 1-.733-.732.733.733 0 0 1 .733-.733z"/><path d="M11.474 289.973h.488v.854h-.488zm0 2.93h.488v.855h-.488zm2.137-1.282v.489h-.855v-.489zm-2.931 0v.489h-.855v-.489zm2.55 1.41-.346.346-.604-.605.345-.345zm-2.073-2.072-.345.345-.605-.604.345-.345zm-.605 2.418-.345-.346.605-.604.345.345zm2.073-2.073-.345-.345.604-.604.345.345z"/></g></g></svg>