<svg xmlns="http://www.w3.org/2000/svg" xmlns:xlink="http://www.w3.org/1999/xlink" width="64" height="64" viewBox="0 0 16.933 16.933"><defs><linearGradient id="a"><stop offset="0"/><stop offset="1" stop-opacity="0"/></linearGradient><linearGradient gradientTransform="matrix(.26458 0 0 .26458 0 280.067)" xlink:href="#a" id="b" x1="46.168" y1="57" x2="46.168" y2="27.346" gradientUnits="userSpaceOnUse"/></defs><g transform="matrix(1.04 0 0 1.04 -.339 -291.608)" stroke-width=".962" paint-order="markers stroke fill"><rect ry=".763" rx=".763" y="281.919" x="1.852" height="13.229" width="13.229" fill="#2196f3"/><path d="M15.081 287.302a11.906 11.906 0 0 1-5.732 7.846h4.938c.44 0 .794-.354.794-.794z" opacity=".25" fill="url(#b)"/></g><path d="M4.852 8.202l-.003-2.58 2.894-.431v3.011zm3.374-3.088l3.857-.616v3.704H8.226zm3.858 3.617l-.001 3.704-3.857-.595V8.731zm-4.34 3.042l-2.892-.435V8.73h2.891v3.042z" fill="#fff"/></svg>