<svg width="64" height="64" version="1.1" viewBox="0 0 16.933 16.933" xmlns="http://www.w3.org/2000/svg" xmlns:xlink="http://www.w3.org/1999/xlink">
 <g transform="matrix(1.04 0 0 1.04 -.339 -291.61)" stroke-width=".962" paint-order="markers stroke fill">
  <rect x="1.852" y="281.92" width="13.229" height="13.229" rx="2.0349" ry="2.0349" fill="#2196f3"/>
 </g>
 <path d="m12.17 4.4978-3.9676 0.61597v3.0881h3.9676zm-4.4968 0.70072-2.9104 0.42322 0.0031 2.5802h2.9073zm-2.9073 3.5315v2.6081l2.9073 0.42736v-3.0354zm3.4364 0.00103v3.1088l3.9676 0.5953 1e-3 -3.7041z" fill="#fff" stroke-width="1.0119"/>
 <g transform="translate(.982 -279.17)" paint-order="stroke markers fill">
  <circle cx="11.718" cy="291.87" r="3.175" fill="#f55"/>
  <circle cx="11.718" cy="291.87" r="1.588" opacity=".15"/>
  <g fill="#fff">
   <path d="M11.718 290.522a1.343 1.343 0 0 0-1.343 1.344 1.343 1.343 0 0 0 1.343 1.343 1.343 1.343 0 0 0 1.343-1.343 1.343 1.343 0 0 0-1.343-1.344zm0 .61a.733.733 0 0 1 .733.734.733.733 0 0 1-.733.732.733.733 0 0 1-.733-.732.733.733 0 0 1 .733-.733z"/>
   <path d="M11.474 289.973h.488v.854h-.488zM11.474 292.903h.488v.855h-.488zM13.611 291.621v.489h-.855v-.489zM10.68 291.621v.489h-.855v-.489zM13.23 293.031l-.346.346-.604-.605.345-.345zM11.157 290.959l-.345.345-.605-.604.345-.345zM10.552 293.377l-.345-.346.605-.604.345.345zM12.625 291.304l-.345-.345.604-.604.345.345z"/>
  </g>
 </g>
</svg>
