<svg width="64" height="64" version="1.1" viewBox="0 0 64 64" xmlns="http://www.w3.org/2000/svg">
 <g transform="matrix(1.1739 0 0 1.1739 3.8261 3.8261)">
  <path d="m24 1c12.703 0 23 10.297 23 23s-10.297 23-23 23-23-10.297-23-23 10.297-23 23-23z" fill="#298fc4"/>
  <path d="m33.656 11.969c-9.316 0.141-14.531 5.453-17.281 10.625-2.516 4.734-2.895 8.648-2.969 9.406h-10.975c0.253 0.683 0.537 1.35 0.852 2h10.904c0.285 0 0.563-0.129 0.75-0.344 0.105-0.125 0.184-0.276 0.219-0.438 4e-3 -0.043 4e-3 -0.086 0-0.125 0 0 0.469-4.738 3-9.5 2.363-4.441 6.564-8.734 14.06-9.406-4.461 8.93 0.223 19.25 0.223 19.25 0.035 0.043 0.078 0.086 0.125 0.125 0.172 0.254 0.469 0.422 0.777 0.438h11.375c0.315-0.65 0.598-1.317 0.852-2h-11.477c-0.383-0.855-4.695-10.719 0.473-18.5 0.133-0.234 0.168-0.523 0.094-0.781-0.035-0.16-0.113-0.313-0.219-0.438-0.199-0.211-0.492-0.328-0.781-0.313h-2e-3z" fill="#19536f"/>
  <g transform="translate(1,1)"></g>
 </g>
</svg>
