<svg width="64" height="64" version="1.1" viewBox="0 0 64 64" xmlns="http://www.w3.org/2000/svg">
 <circle cx="32" cy="32" r="27" fill="#5793f7" stroke-width="1.1739"/>
 <path d="m20.198 39.906-4.3344-13.054c-0.43304-1.3054-0.46807-1.2966 0.86738-1.6317l2.6009-0.65271c1.3004-0.32635 1.2997-0.32611 1.7335 0.97906l2.1451 6.4545 4.357 10.516s-0.43304 1.3054-1.7335 0.78324l-3.9012-1.5665c-1.3004-0.52216-1.3004-0.52216-1.7348-1.8276z" fill="#ffffff" stroke-width="1.2691"/>
 <path d="m40.319 45.27 0.19059-0.5784 5.4832-22.166c0.32452-1.3119-0.65044-3.0597-1.9507-3.4971l-2.601-0.87492c-1.3006-0.43753-3.0819 0.4219-3.4683 1.7485l-3.3394 11.463 2.5383 13.326z" fill="#cee0fd" stroke-width="1.2691"/>
 <path d="m25.401 24.385-2.1894 7.6149 3.4899 10.516c0.06819 0.20549 0.2535 0.32806 0.43435 0.32793 0.18051-1.31e-4 0.38559-0.13751 0.43306-0.32793l1.9884-7.9773-2.5383-11.422s-1.2691 0.36705-1.618 1.2691z" fill="#cee0fd" stroke-width="1.2691"/>
 <path d="m31.904 42.099-5.6349-17.713c-0.27501-0.77343-0.86758 0-0.86758 0s0.34902-1.3269 1.6182-1.5844l4.0182-0.81541c1.302-0.26422 1.2977-0.27091 1.7335 1.0872l6.9397 21.625c0.17221 0.54441 0.64716 0.61427 0.79956 0-0.32512 1.359-0.36952 1.4782-1.6699 1.0257l-5.2018-1.8116c-1.3005-0.45391-1.3005-0.45391-1.7348-1.813z" fill="#ffffff" stroke-width="1.2691"/>
</svg>
