<svg xmlns="http://www.w3.org/2000/svg" width="64" height="64" viewBox="0 0 16.933 16.933"><path fill="#f2f2f2" d="M16.404 4.762H.53v8.244c.022.86.72 1.546 1.586 1.546h12.7c.88 0 1.588-.708 1.588-1.588z"/><path fill="#666" d="M2.117 2.381c-.88 0-1.588.708-1.588 1.588v.793h15.875v-.793c0-.88-.708-1.588-1.587-1.588z"/><rect width="8.467" height=".529" x="4.233" y="6.879" opacity=".35" paint-order="stroke markers fill" ry=".265"/><circle cx="10.054" cy="7.143" r="1.058" fill="#308fcf" paint-order="stroke markers fill"/><rect width="8.467" height=".529" x="4.233" y="11.112" opacity=".35" paint-order="stroke markers fill" ry=".265"/><circle cx="6.615" cy="11.377" r="1.587" opacity=".15" paint-order="markers stroke fill"/><circle cx="6.615" cy="11.377" r="1.058" fill="#308fcf" paint-order="markers stroke fill"/><rect width=".794" height=".794" x="14.155" y="3.175" opacity=".35" paint-order="stroke markers fill" ry=".397"/><rect width=".794" height=".794" x="12.567" y="3.175" opacity=".35" paint-order="stroke markers fill" ry=".397"/><rect width=".794" height=".794" x="10.98" y="3.175" opacity=".35" paint-order="stroke markers fill" ry=".397"/></svg>