<svg xmlns="http://www.w3.org/2000/svg" xmlns:xlink="http://www.w3.org/1999/xlink" width="64" height="64" viewBox="0 0 16.933 16.933"><defs><linearGradient id="b"><stop offset="0" stop-color="#66bcff"/><stop offset="1" stop-color="#b29aff"/></linearGradient><linearGradient xlink:href="#b" id="a" gradientUnits="userSpaceOnUse" x1="13.229" y1="297" x2="2.117" y2="280.067"/></defs><g transform="translate(0 -280.067)"><path d="M.53 284.83v9.524c0 .147.117.265.264.265H16.14a.264.264 0 0 0 .264-.265v-9.525z" fill="#fff" paint-order="markers stroke fill"/><path d="M.53 284.83v9.524c0 .147.117.265.264.265H16.14a.264.264 0 0 0 .264-.265v-9.525h-.264v9.272c0 .14-.115.253-.256.253H1.05a.254.254 0 0 1-.256-.253v-9.272z" opacity=".1" paint-order="markers stroke fill"/><path d="M.794 282.448a.264.264 0 0 0-.265.265v2.116h15.875v-2.116a.264.264 0 0 0-.264-.265z" fill="#666" paint-order="stroke markers fill"/><rect width=".794" height=".794" x="14.817" y="283.242" ry=".397" opacity=".35" paint-order="stroke markers fill"/><rect ry=".397" y="283.242" x="13.229" height=".794" width=".794" opacity=".35" paint-order="stroke markers fill"/><rect width=".794" height=".794" x="11.642" y="283.242" ry=".397" opacity=".35" paint-order="stroke markers fill"/><path d="M16.404 291.257a9.605 9.605 0 0 1-3.394 3.362h3.13a.264.264 0 0 0 .264-.265z" opacity=".05" paint-order="markers stroke fill"/><rect width="8.467" height=".529" x="4.233" y="286.946" ry=".265" opacity=".35" paint-order="stroke markers fill"/><circle cx="10.054" cy="287.21" r="1.058" fill="#308fcf" paint-order="stroke markers fill"/><rect ry=".265" y="291.179" x="4.233" height=".529" width="8.467" opacity=".35" paint-order="stroke markers fill"/><circle cx="6.615" cy="291.444" r="1.587" opacity=".15" paint-order="markers stroke fill"/><circle r="1.058" cy="291.444" cx="6.615" fill="#308fcf" paint-order="markers stroke fill"/></g></svg>