<svg xmlns="http://www.w3.org/2000/svg" xmlns:xlink="http://www.w3.org/1999/xlink" width="64" height="64" viewBox="0 0 16.933 16.933"><defs><linearGradient id="a"><stop offset="0"/><stop offset="1" stop-opacity="0"/></linearGradient><linearGradient xlink:href="#a" id="b" x1="46.168" y1="57" x2="46.168" y2="27.346" gradientUnits="userSpaceOnUse"/></defs><g transform="matrix(1.04 0 0 1.04 -.339 -291.608)" stroke-width=".962" paint-order="markers stroke fill"><rect ry=".763" rx=".763" y="281.919" x="1.852" height="13.229" width="13.229" fill="#4caf50"/><path transform="matrix(.26458 0 0 .26458 0 280.067)" d="M57 27.346A45 45 0 0 1 35.336 57H54c1.662 0 3-1.338 3-3z" opacity=".25" fill="url(#b)"/></g><g fill="none" stroke="#fff" stroke-width="2" stroke-linecap="round" stroke-linejoin="round"><path d="M8.463 8.467h-2.35s-1.41 0-1.41-1.41 1.41-1.41 1.41-1.41h5.64M8.47 8.467h2.35s1.41 0 1.41 1.41-1.41 1.41-1.41 1.41H5.18" stroke-width=".9399"/></g></svg>