<?xml version="1.0" encoding="UTF-8" standalone="no"?>
<!-- Created with Inkscape (http://www.inkscape.org/) -->

<svg
   xmlns:dc="http://purl.org/dc/elements/1.1/"
   xmlns:cc="http://creativecommons.org/ns#"
   xmlns:rdf="http://www.w3.org/1999/02/22-rdf-syntax-ns#"
   xmlns:svg="http://www.w3.org/2000/svg"
   xmlns="http://www.w3.org/2000/svg"
   xmlns:sodipodi="http://sodipodi.sourceforge.net/DTD/sodipodi-0.dtd"
   xmlns:inkscape="http://www.inkscape.org/namespaces/inkscape"
   width="64"
   height="64"
   viewBox="0 0 16.933333 16.933333"
   version="1.1"
   id="svg4572"
   inkscape:version="0.92.4 (5da689c313, 2019-01-14)"
   sodipodi:docname="wps-office-kingsoft.svg">
  <title
     id="title4611">Canvas icon theme</title>
  <defs
     id="defs4566" />
  <sodipodi:namedview
     id="base"
     pagecolor="#ffffff"
     bordercolor="#666666"
     borderopacity="1.0"
     inkscape:pageopacity="0.0"
     inkscape:pageshadow="2"
     inkscape:zoom="2"
     inkscape:cx="28.369419"
     inkscape:cy="41.791459"
     inkscape:document-units="px"
     inkscape:current-layer="layer1"
     showgrid="true"
     units="px"
     width="64px"
     showguides="true"
     inkscape:guide-bbox="true"
     inkscape:window-width="1366"
     inkscape:window-height="674"
     inkscape:window-x="0"
     inkscape:window-y="33"
     inkscape:window-maximized="1"
     inkscape:snap-bbox="true"
     inkscape:bbox-nodes="true"
     inkscape:snap-bbox-edge-midpoints="true"
     inkscape:snap-global="false">
    <inkscape:grid
       type="xygrid"
       id="grid4582" />
    <sodipodi:guide
       position="1.0583333,15.875"
       orientation="0,1"
       id="guide4584"
       inkscape:locked="false" />
    <sodipodi:guide
       position="1.0583333,1.0583333"
       orientation="1,0"
       id="guide4586"
       inkscape:locked="false" />
    <sodipodi:guide
       position="15.875,15.875"
       orientation="1,0"
       id="guide4588"
       inkscape:locked="false" />
    <sodipodi:guide
       position="1.0583333,1.0583333"
       orientation="0,1"
       id="guide4590"
       inkscape:locked="false" />
    <sodipodi:guide
       position="8.4666665,8.4666665"
       orientation="0,1"
       id="guide822"
       inkscape:locked="false" />
    <sodipodi:guide
       position="8.4666665,8.4666665"
       orientation="1,0"
       id="guide824"
       inkscape:locked="false" />
  </sodipodi:namedview>
  <metadata
     id="metadata4569">
    <rdf:RDF>
      <cc:Work
         rdf:about="">
        <dc:format>image/svg+xml</dc:format>
        <dc:type
           rdf:resource="http://purl.org/dc/dcmitype/StillImage" />
        <dc:title>Canvas icon theme</dc:title>
        <cc:license
           rdf:resource="http://creativecommons.org/licenses/by-nc-sa/4.0/" />
        <dc:creator>
          <cc:Agent>
            <dc:title>Vince Liuice</dc:title>
          </cc:Agent>
        </dc:creator>
      </cc:Work>
      <cc:License
         rdf:about="http://creativecommons.org/licenses/by-nc-sa/4.0/">
        <cc:permits
           rdf:resource="http://creativecommons.org/ns#Reproduction" />
        <cc:permits
           rdf:resource="http://creativecommons.org/ns#Distribution" />
        <cc:requires
           rdf:resource="http://creativecommons.org/ns#Notice" />
        <cc:requires
           rdf:resource="http://creativecommons.org/ns#Attribution" />
        <cc:prohibits
           rdf:resource="http://creativecommons.org/ns#CommercialUse" />
        <cc:permits
           rdf:resource="http://creativecommons.org/ns#DerivativeWorks" />
        <cc:requires
           rdf:resource="http://creativecommons.org/ns#ShareAlike" />
      </cc:License>
    </rdf:RDF>
  </metadata>
  <g
     inkscape:label="Layer 1"
     inkscape:groupmode="layer"
     id="layer1"
     transform="translate(0,-280.06667)">
    <circle
       style="opacity:1;fill:#5984eb;fill-opacity:1;stroke:none;stroke-width:0.49136898;stroke-miterlimit:4;stroke-dasharray:none;stroke-opacity:0.03921569;paint-order:stroke markers fill"
       id="path13"
       cx="8.4666662"
       cy="288.53333"
       r="6.8791666" />
    <path
       style="opacity:1;fill:#ffffff;fill-opacity:1;stroke:none;stroke-width:0.26458332;stroke-linecap:round;stroke-linejoin:miter;stroke-miterlimit:4;stroke-dasharray:none;stroke-opacity:1;paint-order:stroke markers fill"
       d="m 3.6959979,285.64603 c -0.2736322,0 -0.4485249,0.24549 -0.3337841,0.49391 l 2.7209181,5.89139 0.24455,0.52962 c 0.1136887,0.24614 0.3067035,0.48851 0.5764043,0.49295 0.2697015,-0.005 0.4627158,-0.24681 0.5764043,-0.49295 l 1.3809591,-2.99007 h 4.825e-4 l 1.0905868,-2.36061 c 0.076492,-0.16561 0.2536171,-0.32944 0.4360411,-0.32944 h 0.125411 1.02354 c 0.0027,10e-6 0.005,8.8e-4 0.0077,9.3e-4 0.02083,5.8e-4 0.04108,0.003 0.05981,0.007 0.0049,9.3e-4 0.0091,0.004 0.01399,0.006 0.01587,0.005 0.03126,0.0107 0.04534,0.0183 0.102229,0.0554 0.151316,0.17572 0.09502,0.29761 l -0.864848,1.87198 -0.108528,0.23443 -0.108046,0.23393 -0.108046,0.23394 -0.108045,0.23394 -0.108045,0.23394 -0.108528,0.23442 -0.05547,0.12059 -0.05258,0.11335 c -0.01951,0.0506 -0.04169,0.11079 -0.108047,0.11046 -0.067746,3.9e-4 -0.089914,-0.0666 -0.1080461,-0.11046 l -0.1079885,-0.23388 -0.1085281,-0.23442 -0.1080455,-0.23394 -0.1080455,-0.23394 -0.1080464,-0.23394 -0.052093,-0.11286 -0.6603324,1.42389 0.7847786,1.6993 c 0.1136879,0.24615 0.3067024,0.48829 0.5764049,0.49296 0.269702,-0.005 0.462716,-0.24681 0.576405,-0.49296 l 0.244549,-0.52962 2.720919,-5.89138 c 0.11474,-0.24842 -0.06015,-0.49392 -0.333784,-0.49392 H 11.667295 11.08655 9.7808363 c -0.2736349,0 -0.539322,0.2455 -0.6540628,0.49392 l -1.5845093,3.43094 h 0.00145 l -0.098881,0.21367 -0.1080457,0.23394 -0.1080457,0.23394 -0.108528,0.23442 -0.1080457,0.23394 c -0.018129,0.0438 -0.040304,0.11085 -0.1080457,0.11046 -0.066365,3.3e-4 -0.088537,-0.0598 -0.1080456,-0.11046 l -0.052576,-0.11335 -0.05547,-0.12059 -0.108528,-0.23442 -0.1080457,-0.23394 -0.1080456,-0.23394 -0.1080458,-0.23394 -0.1080457,-0.23393 -0.1085279,-0.23443 -0.8648478,-1.87198 c -0.076492,-0.16561 0.040426,-0.32944 0.222844,-0.32944 h 0.5194876 0.6294625 c 0.1824244,0 0.3595477,0.16383 0.4360415,0.32944 l 0.6670856,1.44463 0.6612978,-1.4263 -0.5026387,-1.08912 c -0.1147437,-0.24842 -0.3804312,-0.49391 -0.654065,-0.49391 H 5.91624 Z"
       id="rect838"
       inkscape:connector-curvature="0" />
  </g>
</svg>
