<svg xmlns="http://www.w3.org/2000/svg" width="64" height="64" viewBox="0 0 16.933 16.933"><path fill="#46b246" fill-rule="evenodd" d="M3.44 1.058a1.32 1.32 0 0 0-1.323 1.323v12.171c0 .733.59 1.323 1.323 1.323h10.053a1.32 1.32 0 0 0 1.323-1.323V4.233l-3.175-3.175z" style="paint-order:stroke fill markers"/><path fill="#7eca7e" fill-rule="evenodd" d="m14.816 4.233-3.175-3.175V2.91c0 .733.59 1.323 1.323 1.323z" style="paint-order:stroke fill markers"/><path fill="none" stroke="#fff" stroke-linecap="round" stroke-linejoin="round" stroke-width=".94" d="M8.463 9.35h-2.35s-1.41 0-1.41-1.41 1.41-1.41 1.41-1.41h5.64M8.47 9.35h2.35s1.41 0 1.41 1.41-1.41 1.41-1.41 1.41H5.18"/></svg>