<svg xmlns="http://www.w3.org/2000/svg" width="64" height="64" viewBox="0 0 16.933 16.933"><path fill="#2975e6" d="M7.66.26 1.526 3.764c-.266.152-.54.24-.54.54v7.547c0 .299.28.391.54.54l6.132 3.504c.337.194.65.169.944 0l6.133-3.505c.27-.154.539-.24.539-.539V4.303c0-.299-.28-.39-.54-.539L8.604.26c-.337-.195-.607-.195-.944 0z" style="paint-order:stroke markers fill" transform="translate(.335 .394)"/><path fill="#fff" d="M3.977 5.53a.674.674 0 0 0-.603.975l2.768 5.52c.1.216.644.225.754 0l2.92-5.822h2.47l-2.543 5.07-1.041-2.077-.377.752 1.04 2.077c.104.209.65.243.755 0l2.768-5.52a.674.674 0 0 0-.602-.976h-2.47a.674.674 0 0 0-.602.371l-2.695 5.373-2.542-5.07h2.47L7.56 8.424l.377-.751-.89-1.773a.674.674 0 0 0-.602-.37z" color="#000" style="font-feature-settings:normal;font-variant-alternates:normal;font-variant-caps:normal;font-variant-ligatures:normal;font-variant-numeric:normal;font-variant-position:normal;isolation:auto;mix-blend-mode:normal;paint-order:stroke markers fill;shape-padding:0;text-decoration-color:#000;text-decoration-line:none;text-decoration-style:solid;text-indent:0;text-orientation:mixed;text-transform:none;white-space:normal" transform="translate(.335 .394)"/></svg>