<svg width="64" height="64" version="1.1" viewBox="0 0 16.933 16.933" xmlns="http://www.w3.org/2000/svg">
 <g>
  <rect x="1.5871" y="1.5868" width="13.758" height="13.758" rx="1.5871" ry="1.5871" fill="#eb2f3b" stroke-width="1.04" paint-order="markers stroke fill"/>
  <path d="m1.587 12.171v1.587c0 0.8793 0.70817 1.5875 1.5875 1.5875h10.584c0.21935 0 0.42835-0.04373 0.61804-0.1235 2.13e-4 -8.9e-5 3.05e-4 -4.27e-4 5.17e-4 -5.17e-4 0.18985-0.07993 0.36043-0.19583 0.50384-0.33899 0.03585-0.03579 0.07002-0.07305 0.10232-0.11214 0.0645-0.07807 0.12177-0.16251 0.17053-0.25218 7.3e-5 -1.36e-4 -7.4e-5 -3.81e-4 0-5.17e-4 0.12237-0.22518 0.19163-0.48384 0.19172-0.75911v-5.16e-4c-2.8e-4 -0.87922-0.70818-1.587-1.5875-1.587z" fill="#ce1e29" style="mix-blend-mode:normal"/>
  <path d="m12.171 1.587v12.171c0 0.87925 0.70778 1.5871 1.587 1.5875h5.16e-4c0.4946 0 0.93509-0.22422 1.2257-0.5767 0.06459-0.07833 0.12178-0.16272 0.17053-0.25269 0.02438-0.04499 0.04664-0.0915 0.06666-0.13901 0.01997-0.04736 0.03784-0.09612 0.05323-0.14572 4.9e-5 -1.59e-4 -4.9e-5 -3.59e-4 0-5.17e-4 0.0031-0.01014 0.0048-0.02078 0.0078-0.031 0.02588-0.09003 0.04561-0.18311 0.05529-0.27905 0.0054-0.05349 0.0078-0.10782 0.0078-0.16278v-10.584c0-0.8793-0.70766-1.587-1.587-1.587h-1.5875z" fill="#ff4f5a"/>
  <path d="m12.171 12.171v1.587c0 0.87925 0.70778 1.5871 1.587 1.5875h5.16e-4c0.05816-2e-6 0.11558-0.0038 0.17208-0.0098 0.02141-0.0023 0.04241-0.0062 0.06356-0.0093 0.03515-0.0052 0.07004-0.01063 0.10438-0.01809 0.02237-0.0048 0.04414-0.01078 0.06614-0.01654 0.03286-0.0086 0.06569-0.01777 0.09767-0.02842 0.01973-0.0065 0.03902-0.01389 0.05839-0.02119 0.03272-0.01235 0.065-0.02539 0.09663-0.03979 0.02046-0.0093 0.04049-0.01931 0.06046-0.02946 0.02864-0.01454 0.05663-0.03031 0.08423-0.04651 0.01961-0.01152 0.03934-0.02281 0.05839-0.03514 0.02882-0.01862 0.05675-0.03851 0.08423-0.05891 0.01572-0.01169 0.03176-0.02289 0.04703-0.03514 0.02845-0.0228 0.05538-0.04715 0.08216-0.07183 0.01352-0.01246 0.02774-0.02429 0.04082-0.03721 0.03799-0.03752 0.07447-0.07663 0.10852-0.11782 3.94e-4 -4.77e-4 6.39e-4 -0.0011 1e-3 -0.0015 0.01545-0.01874 0.02882-0.03896 0.04341-0.05839 0.01565-0.02086 0.03239-0.04089 0.04702-0.06253 0.02837-0.04194 0.05474-0.08546 0.07906-0.13022 2.92e-4 -5.38e-4 7.41e-4 -1e-3 1e-3 -0.0015 0.02438-0.04499 0.04664-0.0915 0.06666-0.13901 2.11e-4 -5e-4 3.07e-4 -1e-3 5.17e-4 -0.0015 0.01975-0.04704 0.03749-0.09544 0.05271-0.14469 5.33e-4 -0.0017 1e-3 -0.0034 0.0015-0.0052 0.0023-0.0086 0.0037-0.01728 0.0062-0.02584 0.01791-0.06229 0.03268-0.12605 0.04341-0.1912 0.01273-0.08114 0.01956-0.16428 0.01964-0.24908v-0.0015c-2.8e-4 -0.87922-0.70818-1.587-1.5875-1.587z" fill="#eb2f3b" style="mix-blend-mode:normal"/>
 </g>
 <path d="m6.5509 3.5134v0.0015502h-0.5643v2.9109h-0.84748c-1.026 0-1.852 0.82601-1.852 1.852 0 1.026 0.82601 1.852 1.852 1.852h1.08v-5.17e-4h0.82577v-2.6473h1.14c1.0993 0 1.9843-0.88501 1.9843-1.9843s-0.88501-1.9843-1.9843-1.9843h-1.634zm0.49402 1.0583h1.14c0.51302 0 0.92602 0.41301 0.92602 0.92602s-0.41301 0.92602-0.92602 0.92602h-1.14v-1.852zm-1.9058 2.9124h0.84748v1.5875h-0.84748c-0.43973 0-0.79373-0.35401-0.79373-0.79373 0-0.43973 0.35401-0.79373 0.79373-0.79373z" fill="#fff" stroke-width="0"/>
</svg>
