<svg width="64" height="64" version="1.1" viewBox="0 0 16.933 16.933" xmlns="http://www.w3.org/2000/svg">
 <rect transform="matrix(1.04 0 0 1.04 -.339 -291.61)" x="1.852" y="281.92" width="13.229" height="13.229" rx="1.5261" ry="1.5261" fill="#069e61" paint-order="markers stroke fill"/>
 <path transform="rotate(90)" d="m12.171-1.587h1.587c0.8793 0 1.5875-0.70817 1.5875-1.5875v-10.584c0-0.21935-0.04373-0.42835-0.1235-0.61804-8.9e-5 -2.13e-4 -4.27e-4 -3.05e-4 -5.17e-4 -5.17e-4 -0.07993-0.18985-0.19583-0.36043-0.33899-0.50384-0.03579-0.03585-0.07305-0.07002-0.11214-0.10232-0.07807-0.0645-0.16251-0.12177-0.25218-0.17053-1.36e-4 -7.3e-5 -3.81e-4 7.4e-5 -5.17e-4 0-0.22518-0.12237-0.48384-0.19163-0.75911-0.19172h-5.16e-4c-0.87922 2.8e-4 -1.587 0.70818-1.587 1.5875z" fill="#008852" style="mix-blend-mode:normal"/>
 <path d="m12.171 1.587v12.171c0 0.87925 0.70778 1.5871 1.587 1.5875h5.16e-4c0.4946 0 0.93509-0.22422 1.2257-0.5767 0.064589-0.078328 0.12178-0.16272 0.17053-0.25269 0.024377-0.044986 0.046636-0.091503 0.066661-0.13901 0.019967-0.047364 0.037844-0.096118 0.053226-0.14572 4.9e-5 -1.59e-4 -4.9e-5 -3.59e-4 0-5.17e-4 0.00314-0.010136 0.00481-0.020782 0.007751-0.031005 0.025878-0.090028 0.045609-0.18311 0.055293-0.27905 0.0054-0.053486 0.007751-0.10782 0.007751-0.16278v-10.584c0-0.8793-0.70766-1.587-1.587-1.587h-1.5875z" fill="#07b670"/>
 <path transform="rotate(90)" d="m12.171-12.171h1.587c0.87925 0 1.5871-0.70778 1.5875-1.587v-5.16e-4c-2e-6 -0.05816-0.0038-0.11558-0.0098-0.17208-0.0023-0.02141-0.0062-0.04241-0.0093-0.06356-0.0052-0.03515-0.01063-0.07004-0.01809-0.10438-0.0048-0.02237-0.01078-0.04414-0.01654-0.06614-0.0086-0.03286-0.01777-0.06569-0.02842-0.09767-0.0065-0.01973-0.01389-0.03902-0.02119-0.05839-0.01235-0.03272-0.02539-0.065-0.03979-0.09663-0.0093-0.02046-0.01931-0.04049-0.02946-0.06046-0.01454-0.02864-0.03031-0.05663-0.04651-0.08423-0.01152-0.01961-0.02281-0.03934-0.03514-0.05839-0.01862-0.02882-0.03851-0.05675-0.05891-0.08423-0.01169-0.01572-0.02289-0.03176-0.03514-0.04703-0.0228-0.02845-0.04715-0.05538-0.07183-0.08216-0.01246-0.01352-0.02429-0.02774-0.03721-0.04082-0.03752-0.03799-0.07663-0.07447-0.11782-0.10852-4.77e-4 -3.94e-4 -0.0011-6.39e-4 -0.0015-1e-3 -0.01874-0.01545-0.03896-0.02882-0.05839-0.04341-0.02086-0.01565-0.04089-0.03239-0.06253-0.04702-0.04194-0.02837-0.08546-0.05474-0.13022-0.07906-5.38e-4 -2.92e-4 -1e-3 -7.41e-4 -0.0015-1e-3 -0.04499-0.02438-0.0915-0.04664-0.13901-0.06666-5e-4 -2.11e-4 -1e-3 -3.07e-4 -0.0015-5.17e-4 -0.04704-0.01975-0.09544-0.03749-0.14469-0.05271-0.0017-5.33e-4 -0.0034-1e-3 -0.0052-0.0015-0.0086-0.0023-0.01728-0.0037-0.02584-0.0062-0.06229-0.01791-0.12605-0.03268-0.1912-0.04341-0.08114-0.01273-0.16428-0.01956-0.24908-0.01964h-0.001516c-0.87922 2.8e-4 -1.587 0.70818-1.587 1.5875z" fill="#069e61" style="mix-blend-mode:normal"/>
 <path d="m6.4665 10.054q-0.78857 0-1.3459-0.24772-0.55737-0.25185-0.85463-0.72664-0.29726-0.4748-0.29726-1.1436h1.2262q0.00826 0.33855 0.16102 0.57801 0.15689 0.23946 0.44177 0.36745t0.6771 0.12799q0.35506 0 0.61517-0.094959 0.26423-0.099088 0.40874-0.27662 0.14863-0.17753 0.14863-0.41699 0-0.19818-0.1156-0.34268-0.11147-0.14863-0.35506-0.26011-0.23946-0.11147-0.63169-0.19405l-0.6482-0.14037q-0.91656-0.19818-1.3625-0.62343t-0.4459-1.0858q0-0.5615 0.29314-0.97849 0.29314-0.42112 0.81748-0.65646 0.52847-0.23533 1.2262-0.23533 0.706 0 1.2221 0.23946 0.51608 0.23946 0.80096 0.68536 0.28901 0.44177 0.30965 1.0611h-1.1891q-0.033029-0.43764-0.33855-0.68949t-0.80096-0.25185q-0.30965 0-0.55324 0.099088-0.23946 0.094959-0.37984 0.26836-0.13625 0.1734-0.13625 0.39635 0 0.18992 0.10735 0.33029 0.10735 0.13625 0.34268 0.23946 0.23533 0.10322 0.61104 0.18579l0.5904 0.12799q0.49131 0.10735 0.8505 0.26423 0.35919 0.15276 0.5904 0.36745 0.23121 0.21056 0.34268 0.48718 0.11147 0.27662 0.11147 0.62343 0 0.5904-0.29726 1.0239-0.29314 0.42938-0.84225 0.66059-0.54498 0.23121-1.3005 0.23121z" fill="#fff" stroke-width="0" aria-label="S"/>
</svg>
