<svg width="64" height="64" version="1.1" viewBox="0 0 16.933 16.933" xmlns="http://www.w3.org/2000/svg" xmlns:xlink="http://www.w3.org/1999/xlink">
 <path d="m3.4395 1.0583c-0.73289 0-1.3229 0.59001-1.3229 1.3229v12.171c0 0.73289 0.59001 1.3229 1.3229 1.3229h10.054c0.73289 0 1.3229-0.59001 1.3229-1.3229v-10.319l-3.175-3.175z" fill="#46b246" fill-rule="evenodd" stroke-width=".26458" style="paint-order:stroke fill markers"/>
 <path d="m14.816 4.2332-3.1749-3.1749v1.852c0 0.73288 0.59001 1.3229 1.3229 1.3229z" fill="#7eca7e" fill-rule="evenodd" style="paint-order:stroke fill markers"/>
 <g fill="none" stroke="#fff" stroke-linecap="round" stroke-linejoin="round" stroke-width="2">
  <path d="m8.463 9.3506h-2.35s-1.41 0-1.41-1.41 1.41-1.41 1.41-1.41h5.64m-3.283 2.82h2.35s1.41 0 1.41 1.41c0 1.41-1.41 1.41-1.41 1.41h-5.64" stroke-width=".9399"/>
 </g>
</svg>
