<svg xmlns="http://www.w3.org/2000/svg" width="64" height="64" viewBox="0 0 16.933 16.933"><circle cx="8.466" cy="8.46" r="7.144" fill="#e0cef9" style="paint-order:stroke markers fill"/><circle cx="8.466" cy="8.46" r="6.079" fill="#fff" opacity=".15" style="paint-order:stroke markers fill"/><path fill="#9191ff" d="M6.331 10.978q-1.04-.05-1.628-.526-.585-.476-.585-1.4 0-.461.177-.844.178-.382.496-.708c.318-.326.461-.413.746-.587q.432-.264.937-.48H4.869v-.762h3.008v.762a7.6 7.6 0 0 0-1.367.533 4 4 0 0 0-.903.631 2.1 2.1 0 0 0-.5.704 1.9 1.9 0 0 0-.153.75q0 1.115 1.475 1.2.706.042 1.04.343a.98.98 0 0 1 .34.774q0 .207-.073.407a1 1 0 0 1-.23.362 1.2 1.2 0 0 1-.4.257 1.5 1.5 0 0 1-.56.11l-.097-.725q.286-.036.408-.139a.33.33 0 0 0 .12-.272.3.3 0 0 0-.177-.29 1.3 1.3 0 0 0-.467-.101m5.861.009H8.807v-.758l1.19-1.894-1.19-1.902v-.761h3.387v1.795h-.754V6.432H9.823l1.157 1.901-1.157 1.895h1.617V9.186h.754z"/><path fill="#c83737" d="M8.246 10.64h-.167L6.574 6.705v3.59l.547.093v.254h-1.45v-.254l.523-.094V6.326l-.523-.09v-.254h1.602l1.165 3.064 1.189-3.064h1.635v.254l-.523.09v3.967l.523.094v.254H9.235v-.254l.547-.094V6.704z"/></svg>