<svg xmlns="http://www.w3.org/2000/svg" width="64" height="64" version="1"><rect width="52" height="52" x="6" y="6" fill="#ef7829" rx="8" ry="8"/><path fill="#fff" d="M24 16a8 8 0 0 0-8 8 8 8 0 0 0 8 8 8 8 0 0 0-8 8 8 8 0 0 0 8 8 8 8 0 0 0 8-8 8 8 0 0 0-.028-.547l.028.003h.019a8 8 0 0 0-.02.544 8 8 0 0 0 8 8 8 8 0 0 0 8-8 8 8 0 0 0-8-8l-.028.003V32H40a8 8 0 0 0 8-8 8 8 0 0 0-8-8 8 8 0 0 0-7.982 7.457h-.047A8 8 0 0 0 24.001 16zm15.984 4.76a3.2 3.2 0 0 1 2.956 4.5c-.937 2.186-1.748 4.409-3.366 6.418C37.958 33.686 35.187 35.2 32 35.2c-1.913 0-1.893.086-2.41.694-.516.607-1.37 2.441-2.66 5.387a3.2 3.2 0 1 1-5.862-2.563c1.252-2.86 1.995-5.027 3.643-6.968 1.65-1.94 4.4-2.95 7.288-2.95 1.613 0 1.886-.258 2.591-1.135.706-.876 1.495-2.653 2.469-4.925a3.2 3.2 0 0 1 2.925-1.981zM24 20.8a3.2 3.2 0 0 1 3.2 3.2 3.2 3.2 0 0 1-3.2 3.2 3.2 3.2 0 0 1-3.2-3.2 3.2 3.2 0 0 1 3.2-3.2m16 16a3.2 3.2 0 0 1 3.2 3.2 3.2 3.2 0 0 1-3.2 3.2 3.2 3.2 0 0 1-3.2-3.2 3.2 3.2 0 0 1 3.2-3.2"/></svg>