<svg width="64" height="64" version="1" xmlns="http://www.w3.org/2000/svg">
 <rect x="6" y="6" width="52" height="52" rx="8" ry="8" fill="#ef7829" stroke-width=".92857"/>
 <path d="m24 16a8 7.9999 0 0 0-8 7.9999 8 7.9999 0 0 0 8 7.9999 8 7.9999 0 0 0-8 7.9999 8 7.9999 0 0 0 8 7.9999 8 7.9999 0 0 0 8-7.9999 8 7.9999 0 0 0-0.02813-0.54688 8 7.9999 0 0 0 0.02813 0.0032 8 7.9999 0 0 0 0.01875 0 8 7.9999 0 0 0-0.0192 0.544 8 7.9999 0 0 0 8 7.9999 8 7.9999 0 0 0 8-7.9999 8 7.9999 0 0 0-8-7.9999 8 7.9999 0 0 0-0.02813 0.0032 8 7.9999 0 0 0 0-0.0032 8 7.9999 0 0 0 0.02813 0 8 7.9999 0 0 0 8-7.9999 8 7.9999 0 0 0-8-7.9999 8 7.9999 0 0 0-7.9813 7.4562 8 7.9999 0 0 0-0.01875 0 8 7.9999 0 0 0-0.02813 0 8 7.9999 0 0 0-7.9712-7.4559zm15.984 4.7593a3.2003 3.2003 0 0 1 2.9563 4.5c-0.9376 2.1872-1.7488 4.4096-3.3664 6.4191-1.616 2.008-4.3872 3.5216-7.5744 3.5216-1.9126 0-1.893 0.086-2.4094 0.69374-0.51634 0.60774-1.3709 2.4417-2.6594 5.3875a3.2003 3.2003 0 1 1-5.8624-2.5632c1.2515-2.8608 1.9952-5.0272 3.6432-6.9679 1.6496-1.9408 4.4-2.9504 7.288-2.9504 1.613 0 1.8851-0.25776 2.5906-1.1344 0.70556-0.8766 1.4951-2.6533 2.4688-4.9249a3.2003 3.2003 0 0 1 2.9248-1.9814zm-15.984 0.04064a3.2 3.2 0 0 1 3.2 3.2 3.2 3.2 0 0 1-3.2 3.2 3.2 3.2 0 0 1-3.2-3.2 3.2 3.2 0 0 1 3.2-3.2zm16 16a3.2 3.2 0 0 1 3.2 3.2 3.2 3.2 0 0 1-3.2 3.2 3.2 3.2 0 0 1-3.2-3.2 3.2 3.2 0 0 1 3.2-3.2z" fill="#ffffff" stroke-width=".79999"/>
</svg>
