<svg width="64" height="64" version="1.1" xmlns="http://www.w3.org/2000/svg">
 <path d="m2.0032 45.998v-35.997c0-0.5556 0.44221-1.0016 0.99781-1.0016h58.002a0.99781 0.99781 0 0 1 0.99782 1.0016v36.001h-59.997z" fill="#ffffff" stroke-width="3.7796" style="paint-order:markers stroke fill"/>
 <path d="m3.001 56c-0.55403 0.0021-1.0037-0.44756-1.0016-1.0016v-8.9969h60.001v8.9969c0.002093 0.55255-0.44526 1.0016-0.99782 1.0016z" fill="#666666" stroke-width="3.7796" style="paint-order:stroke markers fill"/>
 <path d="m2.0032 45.996v-36.995c0-0.5556 0.44221-1.0016 0.99781-1.0016h58.002c0.55256-4e-6 0.99991 0.44904 0.99782 1.0016v36.998h-0.99782v-36.042c0-0.52914-0.43465-0.95624-0.96758-0.95624h-56.067c-0.53168-0.0041906-0.9655 0.42455-0.96758 0.95624v36.042h-1.0016z" opacity=".1" stroke-width="3.7796" style="paint-order:markers stroke fill"/>
 <path d="m10 48a3 3 0 0 0-3 3 3 3 0 0 0 3 3 3 3 0 0 0 3-3 3 3 0 0 0-3-3zm0 1a2 2 0 0 1 2 2 2 2 0 0 1-2 2 2 2 0 0 1-2-2 2 2 0 0 1 2-2z" opacity=".35" style="paint-order:fill markers stroke"/>
 <rect x="40" y="49" width="16" height="4" rx="1" ry="1" opacity=".35" style="paint-order:fill markers stroke"/>
 <rect x="19" y="49" width="16" height="4" rx="1" ry="1" opacity=".35" style="paint-order:fill markers stroke"/>
</svg>
