<svg width="64" height="64" version="1.1" xmlns="http://www.w3.org/2000/svg">
 <rect x="2" y="8" width="60" height="48" rx="7" ry="7" fill="#f2f2f2" fill-rule="evenodd" stroke-linecap="round" stroke-linejoin="round" stroke-width="2"/>
 <g stroke-width="3.7796">
  <path d="m2 46.002v3.998c0 3.324 2.676 6 6 6h48c3.324 0 6-2.676 6-6v-3.998z" fill="#666" style="paint-order:stroke markers fill"/>
 </g>
 <path d="m10 48a3 3 0 0 0-3 3 3 3 0 0 0 3 3 3 3 0 0 0 3-3 3 3 0 0 0-3-3zm0 1a2 2 0 0 1 2 2 2 2 0 0 1-2 2 2 2 0 0 1-2-2 2 2 0 0 1 2-2z" opacity=".35" style="paint-order:fill markers stroke"/>
 <rect x="40" y="49" width="16" height="4" rx="1" ry="1" opacity=".35" style="paint-order:fill markers stroke"/>
 <rect x="18" y="49" width="4" height="4" rx="1" ry="1" opacity=".35" style="paint-order:fill markers stroke"/>
 <rect x="24" y="49" width="4" height="4" rx="1" ry="1" opacity=".35" style="paint-order:fill markers stroke"/>
 <rect x="30" y="49" width="4" height="4" rx="1" ry="1" opacity=".35" style="paint-order:fill markers stroke"/>
</svg>
