<svg xmlns="http://www.w3.org/2000/svg" width="64" height="64"><rect width="60" height="48" x="2" y="8" fill="#f2f2f2" fill-rule="evenodd" rx="7" ry="7"/><path fill="#666" stroke-width="3.78" d="M2 46.002V50c0 3.324 2.676 6 6 6h48c3.324 0 6-2.676 6-6v-3.998z" style="paint-order:stroke markers fill"/><path d="M10 48a3 3 0 0 0-3 3 3 3 0 0 0 3 3 3 3 0 0 0 3-3 3 3 0 0 0-3-3zm0 1a2 2 0 0 1 2 2 2 2 0 0 1-2 2 2 2 0 0 1-2-2 2 2 0 0 1 2-2z" opacity=".35" style="paint-order:fill markers stroke"/><rect width="16" height="4" x="40" y="49" opacity=".35" rx="1" ry="1" style="paint-order:fill markers stroke"/><rect width="4" height="4" x="18" y="49" opacity=".35" rx="1" ry="1" style="paint-order:fill markers stroke"/><rect width="4" height="4" x="24" y="49" opacity=".35" rx="1" ry="1" style="paint-order:fill markers stroke"/><rect width="4" height="4" x="30" y="49" opacity=".35" rx="1" ry="1" style="paint-order:fill markers stroke"/></svg>