<svg width="64" height="64" version="1.1" xmlns="http://www.w3.org/2000/svg">
 <g transform="matrix(.89997 0 0 .89997 3.183 3.1614)" fill="#b375c4" stroke-width="1.5715">
  <circle cx="32.02" cy="32.044" r="30.001" stroke-width="1.5715"/>
  <circle cx="32.02" cy="32.044" r="30.001"/>
  <circle cx="32.02" cy="32.044" r="0"/>
 </g>
 <path d="m32.002 16c-2.2088 0-4.002 1.7921-4.002 4.002 0 2.2087 1.7932 3.998 4.002 3.998 2.2066 0 3.998-1.7893 3.998-3.998 0-2.2098-1.7914-4.002-3.998-4.002zm0 11c-2.3418 0-4.002 1.8263-4.002 4.0742v13.854c0 2.2502 1.6601 4.0723 4.002 4.0723 2.3406 0 3.998-1.8221 3.998-4.0723v-13.854c0-2.2502-1.6574-4.0742-3.998-4.0742z" fill="#ffffff" fill-opacity=".97238"/>
</svg>
