<?xml version="1.0" encoding="UTF-8"?>
<svg width="64" height="64" version="1.1" xmlns="http://www.w3.org/2000/svg">
 <path d="m8 8c-3.324 0-6 2.676-6 6v36c0 3.324 2.676 6 6 6h48c3.324 0 6-2.676 6-6v-36c0-3.324-2.676-6-6-6zm0 1h48c2.77 0 5 2.23 5 5v36c0 2.77-2.23 5-5 5h-48c-2.77 0-5-2.23-5-5v-36c0-2.77 2.23-5 5-5z" fill-rule="evenodd" opacity=".1" stroke-linecap="round" stroke-linejoin="round" stroke-width="2"/>
 <rect x="3" y="9" width="58" height="46" rx="5" ry="5" fill="#fff" fill-rule="evenodd" stroke-linecap="round" stroke-linejoin="round" stroke-width="1.925"/>
 <g stroke-width="3.7796">
  <path d="m2 46.002v3.998c0 3.324 2.676 6 6 6h48c3.324 0 6-2.676 6-6v-3.998z" fill="#666" style="paint-order:stroke markers fill"/>
 </g>
 <path d="m10 48a3 3 0 0 0-3 3 3 3 0 0 0 3 3 3 3 0 0 0 3-3 3 3 0 0 0-3-3zm0 1a2 2 0 0 1 2 2 2 2 0 0 1-2 2 2 2 0 0 1-2-2 2 2 0 0 1 2-2z" opacity=".35" style="paint-order:fill markers stroke"/>
 <rect x="40" y="49" width="16" height="4" rx="1" ry="1" opacity=".35" style="paint-order:fill markers stroke"/>
 <rect x="18" y="49" width="4" height="4" rx="1" ry="1" opacity=".35" style="paint-order:fill markers stroke"/>
 <rect x="24" y="49" width="4" height="4" rx="1" ry="1" opacity=".35" style="paint-order:fill markers stroke"/>
 <rect x="30" y="49" width="4" height="4" rx="1" ry="1" opacity=".35" style="paint-order:fill markers stroke"/>
</svg>
