<svg width="64" height="64" version="1.1" xmlns="http://www.w3.org/2000/svg" xmlns:xlink="http://www.w3.org/1999/xlink">
 <g transform="matrix(1.35 0 0 1.35 -.4 -22)">
  <rect x="4" y="20" width="40" height="40" rx="20" fill="#da4446" stroke-width=".74074"/>
  <path d="m17.93 31.001c-0.066 1e-3 -0.14042 0.0063-0.2259 0.01191-0.32397 0.02068-6.4375 1.1653-6.8266 1.2783-0.41135 0.11931-0.76264 0.37137-0.84835 0.6105-0.14615 0.40637 0.27742 1.7271 0.83656 2.6138 2.2306 2.6489 4.7072 3.3219 7.1343 4.7493 0.27856 0.32654 0.38857 0.48417-1.7482 1.4303-3.3396 1.4788-4.4206 2.7366-5.0602 4.5973-0.18889 0.54982-0.27666 2.0038-0.14348 2.3697 0.17285 0.47428 0.27704 0.56976 3.5038-0.04233 3.2414-0.6149 2.9734-0.65089 3.2437-0.907 0.22018-0.2086 0.23277-0.25891 0.32893-1.2459 0.0554-0.56557 0.16981-1.6699 0.25375-1.9625 0.19462-0.67941 0.68413-1.3889 1.2172-1.7642 2.0218-1.423 5.8272-0.71337 7.8864 1.4702 0.77593 0.82274 1.2632 1.9971 1.652 3.2731 0.22437 0.73624 0.45222 1.0559 0.80606 1.1263 0.32551 0.06466 0.33352-0.03713 4.4578-0.82024 2.2942-0.43561 3.249-0.64747 3.384-0.7525 0.29-0.22587 0.29114-0.7786 2e-3 -1.6919-0.49578-1.5693-1.3559-2.6124-2.9491-3.8194-0.78818-0.59709-1.7834-1.1616-3.4685-1.9685-1.6028-0.76749-2.3661-0.97513-2.3661-1.2135 0-0.19708 0.62949-0.28489 1.9009-0.6653 2.7858-0.8337 4.1282-2.0032 4.1282-4.1687 0-0.95031-0.17934-1.7172-0.45824-1.966-0.37091-0.33094-1.0222-0.34142-2.5797-0.05975-4.9923 0.90274-4.6486 0.86755-4.8808 1.2434-0.12287 0.19875-0.11752 0.2454 0.10837 1.1487 0.12936 0.51787 0.23354 1.1657 0.23277 1.316-2e-3 0.31965-0.41728 0.85364-0.6204 1.044-0.49701 0.46563-1.6236 0.78241-2.7776 0.78241-1.3958 0-2.4474-0.4798-3.492-1.5922-0.75482-0.80381-1.1402-1.5817-1.6544-3.0129-0.45157-1.257-0.5135-1.4209-0.97759-1.4128z" enable-background="new" fill="#fce3e0" stroke-width=".75709"/>
 </g>
</svg>
