<svg width="64" height="64" version="1.1" viewBox="0 0 16.933 16.933" xmlns="http://www.w3.org/2000/svg">
 <circle cx="8.4665" cy="8.46" r="7.1436" fill="#df4139" style="paint-order:stroke markers fill"/>
 <path d="m6.6303 5.8611c-0.019217 0-0.042017 0.00258-0.067426 0.00394-0.098044 0.00653-1.9468 0.33712-2.065 0.37034-0.12475 0.035501-0.23028 0.10813-0.25569 0.17686-0.044626 0.11823 0.084033 0.49998 0.25178 0.75697 0.29152 0.44265 0.71495 0.72407 1.6058 1.0674 0.48988 0.18826 0.5915 0.2368 0.65469 0.3078 0.087949 0.095433 0.015303 0.14006-0.63124 0.41464-1.0091 0.42864-1.4644 0.7928-1.6566 1.3309-0.058624 0.15895-0.084033 0.5801-0.044626 0.68563 0.052112 0.13745 0.084033 0.13615 1.0599-0.04201 0.98041-0.17817 1.0254-0.18826 1.1081-0.2635 0.066121-0.06221 0.070024-0.07492 0.099349-0.36122 0.015302-0.16286 0.052111-0.36774 0.076215-0.45177 0.058624-0.19706 0.20618-0.40193 0.36773-0.51138 0.61202-0.41236 1.7621-0.20618 2.3855 0.42636 0.23419 0.2368 0.38174 0.49118 0.49997 0.86022 0.06743 0.21367 0.13745 0.3065 0.24299 0.32572 0.09805 0.01922 0.10065 0.01922 1.3488-0.20878 0.69345-0.12604 0.98041-0.18696 1.0231-0.21888 0.08794-0.06481 0.08794-0.22409 0.0014-0.48858-0.1502-0.45535-0.4098-0.78498-0.89186-1.1348-0.23908-0.17296-0.53939-0.33581-1.0498-0.57-0.48466-0.22279-0.58401-0.2824-0.58401-0.35112 0-0.056026 0.05993-0.081424 0.44395-0.19217 0.8423-0.24168 1.1706-0.5801 1.1706-1.2074 0-0.27491-0.05342-0.49737-0.13876-0.5687-0.11206-0.096738-0.23158-0.099349-0.70224-0.017912-1.509 0.2609-1.467 0.25178-1.5358 0.35992-0.036809 0.058624-0.035504 0.071329 0.031922 0.33223 0.039407 0.15016 0.070024 0.30911 0.070024 0.35243 0 0.092823-0.064816 0.24689-0.12605 0.30292-0.15016 0.13485-0.49118 0.22637-0.841 0.22637-0.42245 0-0.73938-0.13876-1.056-0.46056-0.22768-0.23419-0.34493-0.42995-0.49997-0.84361-0.13615-0.36383-0.15634-0.41105-0.2964-0.40975" fill="#f9f9f9"/>
</svg>
