<svg width="64" height="64" version="1.1" viewBox="0 0 64 64" xmlns="http://www.w3.org/2000/svg">
 <path d="m32 5c14.912 0 27 12.088 27 27s-12.088 27-27 27-27-12.088-27-27 12.088-27 27-27z" fill="#454545" stroke-width="1.1739"/>
 <path d="m36.292 22.797c-5.4023 1.4404-9.5568 6.2687-14.344 9.612 2.0403-0.83465 4.6041-2.1459 5.65-2.2375l-3.375 3.7424 2.6049-1.1375c-1.1645 3.4619-2.545 6.6948-5.9048 7.9603l11.077 8.5203 11.598-9.1072c-4.5301 0.12326-8.5567-0.40852-8.9875-5.6125-0.11035-0.62335 0.05048-4.9527 6.2734-6.9331-0.62804-0.43083-2.7329-0.14204-4.219-0.14674-0.064565-0.58696 0.29817-3.1273 5.0995-3.4114-1.2056-1.2385-2.7235-1.3347-4.8788-0.66091-0.22891-0.2207-0.36274-0.19722-0.58696-0.58696m-1.2479 1.8712c0.30756 0.13265 0.34865 0.33456 0.40383 0.55056-0.53648 0.11035-1.2937 0.36744-1.5038 0.07396-0.09626-0.10096 0.55996-0.47191 1.1047-0.61396" fill="#fab268"/>
 <path d="m24.59 16.042c-6.021 2.7927-10.199 8.8818-10.199 15.958 0 9.7212 7.8828 17.604 17.609 17.604 9.7212 0 17.604-7.8828 17.604-17.604 0-6.9883-4.077-13.019-9.9783-15.848l-0.18313 0.18313c4.6593 2.6143 7.8183 7.5893 7.8183 13.312 0 7.6856-5.6723 14.014-13.06 15.078l-2.2011 3.7096-2.2011-3.7096c-7.3874-1.0636-13.06-7.3921-13.06-15.078 0-5.7827 3.2236-10.799 7.9603-13.39-0.0317-0.06926-0.07748-0.14674-0.11035-0.2207" fill="#7799b9"/>
</svg>
