<svg xmlns="http://www.w3.org/2000/svg" width="64" height="64"><g stroke-width=".769" transform="matrix(1.3 0 0 1.3 .8 -20)"><rect width="40" height="40" x="4" y="20" fill="#dae0e2" rx="6.154" ry="6.154"/><path fill="#373a3d" d="m11.29 53.991 9.817-12.85L11 27.012l6.496.005 8.053 11.11-12.041 15.864zm19.214.01-7.998-11.13 12.141-15.87h2.164l-9.857 12.91L37 54.001z"/><path fill="#ec6e28" d="M23.999 31.929c-.781 0-1.615.06-2.366.131 1.338 1.724 2.448 3.184 3.726 4.843-.717-1.525-2.191-2.988-1.682-3.74.505-.744 1.434-.619 1.505-.619 1.49 0 2.925.167 4.266.474l.314-.427c-1.789-.455-3.731-.662-5.763-.662m8.071 1.392-.29.408c4.132 1.599 6.927 4.652 6.927 8.15 0 5.153-6.059 9.334-13.525 9.334s-13.528-4.18-13.528-9.333c0-2.806 1.798-5.325 4.641-7.037l-.874-1.315C10.96 35.396 8 38.675 8 42.408c0 5.809 7.168 10.522 16 10.522 8.831 0 16-4.712 16-10.52 0-3.874-3.187-7.262-7.93-9.089"/></g></svg>