<svg width="64" height="64" version="1.1" viewBox="0 0 16.933 16.933" xmlns="http://www.w3.org/2000/svg">
 <rect x="1.587" y="1.587" width="13.758" height="13.758" rx="2.117" ry="2.117" fill="#3b7cce" overflow="visible"/>
 <g fill="#fff">
  <rect x="5.292" y="8.996" width="4.233" height=".529" ry=".265" style="paint-order:stroke markers fill"/>
  <path d="M3.973 4.195a.264.264 0 0 0-.262.13.264.264 0 0 0 .097.362l2.842 1.64-2.842 1.641a.264.264 0 0 0-.097.361c.074.127.235.17.362.097l3.208-1.852a.26.26 0 0 0 .127-.224c.002-.008.001-.015.002-.023 0-.008 0-.014-.002-.022a.26.26 0 0 0-.127-.225L4.073 4.228a.266.266 0 0 0-.1-.033z" style="paint-order:stroke markers fill"/>
 </g>
</svg>
