<svg xmlns="http://www.w3.org/2000/svg" width="64" height="64"><g style="paint-order:stroke markers fill"><g transform="matrix(3.78 0 0 3.93 0 -1102.17)"><rect width="12.7" height="13.229" x="2.117" y="281.92" fill="#7fbc34" ry=".529"/><path fill="green" d="M2.646 281.92a.528.528 0 0 0-.53.529v5.045a9.26 9.26 0 0 0 8.467 5.538 9.26 9.26 0 0 0 4.234-1.027v-9.556a.528.528 0 0 0-.53-.53z" opacity=".1"/><path fill="#fff" d="M2.646 281.92a.528.528 0 0 0-.53.529v12.17c0 .294.237.53.53.53h5.909a10.583 10.583 0 0 0 6.262-5.472v-7.228a.528.528 0 0 0-.53-.53z" opacity=".1"/></g><path fill="#fff" d="M20.002 15.001a12 12 0 0 0 12 12 12 12 0 0 0 12-12h-3a9 9 0 0 1-9 9 9 9 0 0 1-9.003-9z"/></g><path fill="#fff" d="M32 30a11.92 11.92 0 0 0-6.062 1.688l5.374 5.374 1.438-1.436-3.25-3.25c.39-.104.78-.196 1.188-.25.104-.016.206-.052.312-.064A9.69 9.69 0 0 1 32 32a10 10 0 0 1 10 10c0 .486-.056.972-.126 1.438-.04.272-.062.548-.124.812a9.474 9.474 0 0 1-.562 1.626c-.028.06-.036.126-.064.186-.08.184-.216.328-.312.5-.008.016.01.046 0 .064l1.5 1.436A11.92 11.92 0 0 0 44 42a12 12 0 0 0-12-12zm-10.312 5.938A11.92 11.92 0 0 0 20 42a12 12 0 0 0 12 12 11.92 11.92 0 0 0 6.062-1.688l-1.5-1.5L32.688 47l-1.376 1.376 3.188 3.25c-.39.1-.78.194-1.188.25-.104.014-.206.05-.312.06-.336.036-.654.064-1 .064s-.664-.028-1-.062-.674-.06-1-.126A10.034 10.034 0 0 1 22 42c0-.496.056-.96.126-1.438.04-.272.062-.548.124-.812.134-.574.334-1.096.562-1.626.026-.06.036-.126.064-.186.08-.18.216-.33.312-.5v-.064z"/></svg>