<svg width="64" height="64" version="1.1" xmlns="http://www.w3.org/2000/svg">
 <rect x="8.0014" y="5.9982" width="48.001" height="52" rx="5.9982" ry="5.9982" fill="#7fbc34" stroke-width="3.7796"/>
 <path d="m32 6-18.064 2e-3a5.985 5.985 0 0 0-5.936 5.998v15.916a34.999 36.399 0 0 0 32 21.764 34.999 36.399 0 0 0 16-4.037v-33.643c0-3.324-2.675-6-6-6z" fill="#008000" opacity=".1" style="paint-order:stroke markers fill"/>
 <path d="m32 6-18.064 2e-3a5.985 5.985 0 0 0-5.936 5.998v40c0 3.324 2.676 6 6 6h18.34a40 41.6 0 0 0 23.66-21.504v-24.496c0-3.324-2.675-6-6-6z" fill="#ffffff" opacity=".1" style="paint-order:stroke markers fill"/>
 <path d="m20.002 15.001a12 12 0 0 0 12 12 12 12 0 0 0 12-12h-3.001a8.9992 8.9992 0 0 1-8.9992 8.9992 8.9992 8.9992 0 0 1-9.003-8.9992z" fill="#ffffff" stroke-width="3.7796" style="paint-order:stroke markers fill"/>
 <path d="M32 30a11.92 11.92 0 0 0-6.062 1.688l5.374 5.374 1.438-1.436-3.25-3.25c.39-.104.78-.196 1.188-.25.104-.016.206-.052.312-.064A9.69 9.69 0 0 1 32 32a10 10 0 0 1 10 10c0 .486-.056.972-.126 1.438-.04.272-.062.548-.124.812a9.474 9.474 0 0 1-.562 1.626c-.028.06-.036.126-.064.186-.08.184-.216.328-.312.5-.008.016.01.046 0 .064l1.5 1.436A11.92 11.92 0 0 0 44 42a12 12 0 0 0-12-12zm-10.312 5.938A11.92 11.92 0 0 0 20 42a12 12 0 0 0 12 12 11.92 11.92 0 0 0 6.062-1.688l-1.5-1.5L32.688 47l-1.376 1.376 3.188 3.25c-.39.1-.78.194-1.188.25-.104.014-.206.05-.312.06-.336.036-.654.064-1 .064s-.664-.028-1-.062-.674-.06-1-.126A10.034 10.034 0 0 1 22 42c0-.496.056-.96.126-1.438.04-.272.062-.548.124-.812.134-.574.334-1.096.562-1.626.026-.06.036-.126.064-.186.08-.18.216-.33.312-.5v-.064z" fill="#fff"/>
</svg>
