<svg xmlns="http://www.w3.org/2000/svg" width="64" height="64"><rect width="48.001" height="52" x="8.001" y="5.998" fill="#7fbc34" rx="5.998" ry="5.998"/><path fill="green" d="m32 6-18.064.002A5.985 5.985 0 0 0 8 12v15.916A34.999 36.399 0 0 0 40 49.68a34.999 36.399 0 0 0 16-4.037V12c0-3.324-2.675-6-6-6z" opacity=".1" style="paint-order:stroke markers fill"/><path fill="#fff" d="m32 6-18.064.002A5.985 5.985 0 0 0 8 12v40c0 3.324 2.676 6 6 6h18.34A40 41.6 0 0 0 56 36.496V12c0-3.324-2.675-6-6-6z" opacity=".1" style="paint-order:stroke markers fill"/><path fill="#fff" d="M20.002 15.001a12 12 0 0 0 12 12 12 12 0 0 0 12-12h-3.001a9 9 0 0 1-9 9A9 9 0 0 1 23 15z" style="paint-order:stroke markers fill"/><path fill="#fff" d="M13 44c-.554 0-1 .446-1 1v8c0 .554.446 1 1 1h8c.554 0 1-.446 1-1v-8c0-.554-.446-1-1-1zm1 2h2v2h2v-2h2v4h-2v2h-2v-2h-2z"/></svg>