<svg width="64" height="64" version="1.1" xmlns="http://www.w3.org/2000/svg" xmlns:xlink="http://www.w3.org/1999/xlink">
 <g transform="scale(3.7796)" style="paint-order:stroke markers fill">
  <g transform="matrix(1,0,0,1.04,0,-291.61)">
   <rect x="2.117" y="281.92" width="12.7" height="13.229" ry=".529" fill="#7fbc34"/>
   <path d="m2.646 281.92a0.528 0.528 0 0 0-0.53 0.529v5.045a9.26 9.26 0 0 0 8.467 5.538 9.26 9.26 0 0 0 4.234-1.027v-9.556a0.528 0.528 0 0 0-0.53-0.53z" fill="#008000" opacity=".1"/>
   <path d="m2.646 281.92a0.528 0.528 0 0 0-0.53 0.529v12.17c0 0.294 0.237 0.53 0.53 0.53h5.909a10.583 10.583 0 0 0 6.262-5.472v-7.228a0.528 0.528 0 0 0-0.53-0.53z" fill="#fff" opacity=".1"/>
  </g>
  <path d="m5.292 3.969a3.175 3.175 0 0 0 3.175 3.175 3.175 3.175 0 0 0 3.175-3.175h-0.794a2.381 2.381 0 0 1-2.381 2.381 2.381 2.381 0 0 1-2.382-2.381z" fill="#fff"/>
 </g>
 <path d="m30 31v2.204a10 10 0 0 0-3.508 1.46l-1.562-1.562-2.828 2.828 1.562 1.562a10 10 0 0 0-1.454 3.508h-2.21v4h2.204a10 10 0 0 0 1.46 3.508l-1.562 1.562 2.828 2.828 1.562-1.562a10 10 0 0 0 3.508 1.454v2.21h4v-2.204a10 10 0 0 0 3.508-1.46l1.562 1.562 2.828-2.828-1.562-1.562a10 10 0 0 0 1.454-3.508h2.21v-4h-2.204a10 10 0 0 0-1.46-3.508l1.562-1.562-2.828-2.828-1.562 1.562a10 10 0 0 0-3.508-1.454v-2.21zm2 4a8 8 0 0 1 5.74 2.426 8 8 0 0 1 2.26 5.574 8 8 0 0 1-2.426 5.74 8 8 0 0 1-5.574 2.26 8 8 0 0 1-5.74-2.426 8 8 0 0 1-2.26-5.574 8 8 0 0 1 2.426-5.74 8 8 0 0 1 5.574-2.26zm-2 4v8l6-4z" fill="#fff"/>
</svg>
