<svg width="64" height="64" version="1.1" xmlns="http://www.w3.org/2000/svg">
 <circle cx="32" cy="32" r="27" fill="#8cc64c" fill-rule="evenodd" style="paint-order:stroke fill markers"/>
 <path d="m6.5742 41a27 27 0 0 0 25.426 18 27 27 0 0 0 25.422-18z" fill="#fff" fill-rule="evenodd" opacity=".5" style="paint-order:stroke fill markers"/>
 <g transform="translate(1.9596,-3.1304)">
  <path d="m30.04 48.13c-1.662 0-3 1.338-3 3s1.338 3 3 3a2.993 2.993 0 0 0 2.813-2h8.375a2.99 2.99 0 0 0 5.813-1c0-1.662-1.338-3-3-3a2.993 2.993 0 0 0-2.813 2h-8.375a2.99 2.99 0 0 0-2.813-2" fill="#232629" opacity=".2"/>
  <path d="m32.85 52.13h8.375a2.99 2.99 0 0 0 5.813-1c0-1.662-1.338-3-3-3a2.993 2.993 0 0 0-2.813 2h-8.375c0.188 1 0.188 1 0 2" opacity=".5"/>
  <path d="m16.04 48.13c-1.662 0-3 1.338-3 3s1.338 3 3 3a2.993 2.993 0 0 0 2.813-2h8.375a2.99 2.99 0 0 0 5.813-1c0-1.662-1.338-3-3-3a2.993 2.993 0 0 0-2.813 2h-8.375a2.99 2.99 0 0 0-2.813-2" fill="#8cc64c"/>
 </g>
 <path d="m30.286 38v-17.143l-7.7143 7.7143-2.5714-2.5714 12-12 12 12-2.5714 2.5714-7.7143-7.7143v17.143z" fill="#fcfcfc"/>
</svg>
