<svg xmlns="http://www.w3.org/2000/svg" width="64" height="64"><rect width="48.001" height="52" x="8.001" y="5.998" fill="#7fbc34" rx="5.998" ry="5.998"/><path fill="green" d="m32 6-18.064.002A5.985 5.985 0 0 0 8 12v15.916A34.999 36.399 0 0 0 40 49.68a34.999 36.399 0 0 0 16-4.037V12c0-3.324-2.675-6-6-6z" opacity=".1" style="paint-order:stroke markers fill"/><path fill="#fff" d="m32 6-18.064.002A5.985 5.985 0 0 0 8 12v40c0 3.324 2.676 6 6 6h18.34A40 41.6 0 0 0 56 36.496V12c0-3.324-2.675-6-6-6z" opacity=".1" style="paint-order:stroke markers fill"/><path fill="#fff" d="M20.002 15.001a12 12 0 0 0 12 12 12 12 0 0 0 12-12h-3.001a9 9 0 0 1-9 9A9 9 0 0 1 23 15z" style="paint-order:stroke markers fill"/><path fill="#fff" d="M32 30a11.9 11.9 0 0 0-6.062 1.688l5.374 5.374 1.438-1.436-3.25-3.25c.39-.104.78-.196 1.188-.25.104-.016.206-.052.312-.064A10 10 0 0 1 32 32a10 10 0 0 1 10 10c0 .486-.056.972-.126 1.438-.04.272-.062.548-.124.812a9.5 9.5 0 0 1-.562 1.626c-.028.06-.036.126-.064.186-.08.184-.216.328-.312.5-.008.016.01.046 0 .064l1.5 1.436A11.9 11.9 0 0 0 44 42a12 12 0 0 0-12-12m-10.312 5.938A11.9 11.9 0 0 0 20 42a12 12 0 0 0 12 12 11.9 11.9 0 0 0 6.062-1.688l-1.5-1.5L32.688 47l-1.376 1.376 3.188 3.25c-.39.1-.78.194-1.188.25-.104.014-.206.05-.312.06-.336.036-.654.064-1 .064s-.664-.028-1-.062-.674-.06-1-.126A10.034 10.034 0 0 1 22 42c0-.496.056-.96.126-1.438.04-.272.062-.548.124-.812.134-.574.334-1.096.562-1.626.026-.06.036-.126.064-.186.08-.18.216-.33.312-.5v-.064z"/></svg>