<svg width="64" height="64" version="1.1" xmlns="http://www.w3.org/2000/svg">
 <rect x="8.0014" y="5.9982" width="48.001" height="52" rx="5.9982" ry="5.9982" fill="#7fbc34" stroke-width="3.7796"/>
 <path d="m32 6-18.064 2e-3a5.985 5.985 0 0 0-5.936 5.998v15.916a34.999 36.399 0 0 0 32 21.764 34.999 36.399 0 0 0 16-4.037v-33.643c0-3.324-2.675-6-6-6z" fill="#008000" opacity=".1" style="paint-order:stroke markers fill"/>
 <path d="m32 6-18.064 2e-3a5.985 5.985 0 0 0-5.936 5.998v40c0 3.324 2.676 6 6 6h18.34a40 41.6 0 0 0 23.66-21.504v-24.496c0-3.324-2.675-6-6-6z" fill="#ffffff" opacity=".1" style="paint-order:stroke markers fill"/>
 <path d="m20.002 15.001a12 12 0 0 0 12 12 12 12 0 0 0 12-12h-3.001a8.9992 8.9992 0 0 1-8.9992 8.9992 8.9992 8.9992 0 0 1-9.003-8.9992z" fill="#ffffff" stroke-width="3.7796" style="paint-order:stroke markers fill"/>
 <path d="M30 31v2.204a10 10 0 0 0-3.508 1.46l-1.562-1.562-2.828 2.828 1.562 1.562A10 10 0 0 0 22.21 41H20v4h2.204a10 10 0 0 0 1.46 3.508l-1.562 1.562 2.828 2.828 1.562-1.562A10 10 0 0 0 30 52.79V55h4v-2.204a10 10 0 0 0 3.508-1.46l1.562 1.562 2.828-2.828-1.562-1.562A10 10 0 0 0 41.79 45H44v-4h-2.204a10 10 0 0 0-1.46-3.508l1.562-1.562-2.828-2.828-1.562 1.562A10 10 0 0 0 34 33.21V31zm2 4a8 8 0 0 1 5.74 2.426A8 8 0 0 1 40 43a8 8 0 0 1-2.426 5.74A8 8 0 0 1 32 51a8 8 0 0 1-5.74-2.426A8 8 0 0 1 24 43a8 8 0 0 1 2.426-5.74A8 8 0 0 1 32 35zm-2 4v8l6-4z" fill="#fff"/>
</svg>
