<svg xmlns="http://www.w3.org/2000/svg" width="64" height="64"><rect width="48.001" height="52" x="8.001" y="5.998" fill="#7fbc34" rx="5.998" ry="5.998"/><path fill="green" d="m32 6-18.064.002A5.985 5.985 0 0 0 8 12v15.916A34.999 36.399 0 0 0 40 49.68a34.999 36.399 0 0 0 16-4.037V12c0-3.324-2.675-6-6-6z" opacity=".1" style="paint-order:stroke markers fill"/><path fill="#fff" d="m32 6-18.064.002A5.985 5.985 0 0 0 8 12v40c0 3.324 2.676 6 6 6h18.34A40 41.6 0 0 0 56 36.496V12c0-3.324-2.675-6-6-6z" opacity=".1" style="paint-order:stroke markers fill"/><path fill="#fff" d="M20.002 15.001a12 12 0 0 0 12 12 12 12 0 0 0 12-12h-3.001a9 9 0 0 1-9 9A9 9 0 0 1 23 15z" style="paint-order:stroke markers fill"/><path fill="#fff" d="M30 31v2.204a10 10 0 0 0-3.508 1.46l-1.562-1.562-2.828 2.828 1.562 1.562A10 10 0 0 0 22.21 41H20v4h2.204a10 10 0 0 0 1.46 3.508l-1.562 1.562 2.828 2.828 1.562-1.562A10 10 0 0 0 30 52.79V55h4v-2.204a10 10 0 0 0 3.508-1.46l1.562 1.562 2.828-2.828-1.562-1.562A10 10 0 0 0 41.79 45H44v-4h-2.204a10 10 0 0 0-1.46-3.508l1.562-1.562-2.828-2.828-1.562 1.562A10 10 0 0 0 34 33.21V31zm2 4a8 8 0 0 1 5.74 2.426A8 8 0 0 1 40 43a8 8 0 0 1-2.426 5.74A8 8 0 0 1 32 51a8 8 0 0 1-5.74-2.426A8 8 0 0 1 24 43a8 8 0 0 1 2.426-5.74A8 8 0 0 1 32 35m-2 4v8l6-4z"/></svg>