<svg width="64" height="64" version="1.1" xmlns="http://www.w3.org/2000/svg" xmlns:xlink="http://www.w3.org/1999/xlink">
 <g transform="scale(3.7796)" style="paint-order:stroke markers fill">
  <g transform="matrix(1,0,0,1.04,0,-291.61)">
   <rect x="2.117" y="281.92" width="12.7" height="13.229" ry=".529" fill="#7fbc34"/>
   <path d="m2.646 281.92a0.528 0.528 0 0 0-0.53 0.529v5.045a9.26 9.26 0 0 0 8.467 5.538 9.26 9.26 0 0 0 4.234-1.027v-9.556a0.528 0.528 0 0 0-0.53-0.53z" fill="#008000" opacity=".1"/>
   <path d="m2.646 281.92a0.528 0.528 0 0 0-0.53 0.529v12.17c0 0.294 0.237 0.53 0.53 0.53h5.909a10.583 10.583 0 0 0 6.262-5.472v-7.228a0.528 0.528 0 0 0-0.53-0.53z" fill="#fff" opacity=".1"/>
  </g>
  <path d="m5.292 3.969a3.175 3.175 0 0 0 3.175 3.175 3.175 3.175 0 0 0 3.175-3.175h-0.794a2.381 2.381 0 0 1-2.381 2.381 2.381 2.381 0 0 1-2.382-2.381z" fill="#fff"/>
 </g>
 <path d="m32 29.876a12 12 0 1 0 0 24 12 12 0 0 0 0-24zm0 2c0.346 0 0.664 0.028 1 0.062 0.08 8e-3 0.17-0.01 0.25 0 0.106 0.014 0.208 0.046 0.312 0.064 0.288 0.044 0.534 0.118 0.814 0.186 0.512 0.128 1.02 0.298 1.5 0.5 0.262 0.112 0.498 0.242 0.75 0.376v0.062c0.056 0.026 0.088 0.134 0.186 0.188 0.036 0.02 0.03 0.044 0.064 0.062 0.056 0.032 0.136 0.068 0.124 0.126-0.016 0.08-0.132 0.062-0.188 0.124 8e-3 0.116-0.094 0.11-0.124 0.188 0.018 0.05 0.116 0.064 0.124 0.124-0.01 0.064-0.148 0.06-0.124 0.126 0.108 0.084 0.21 0.02 0.312 0 0.224-0.028 0.424-0.012 0.562-0.126-0.018-0.106 0.2-0.09 0.188-0.186 0.058 0.04 0.13 0.08 0.188 0.124-0.022 0.02-0.04 0.052-0.064 0.062-0.04 0.02-0.086 0.04-0.124 0.064l-0.188 0.124c-0.046 0.032-0.14 0.188-0.186 0.188-0.06 0-0.146-0.076-0.188-0.064-0.06 0.02-0.058 0.102-0.126 0.126-0.132 0.048-0.392-0.072-0.436 0.126 0.056 0.114 0.274 0.06 0.374 0.124a0.62 0.62 0 0 1 0.188 0.25 1.18 1.18 0 0 1 0 0.376c-0.062 0.16-0.254 0.126-0.438 0.124h-0.126c-0.308-0.02-0.61-0.16-0.75 0.062 0.01 0.17 0.04 0.29 0 0.438-0.026 0.108-0.192 0.22-0.186 0.312 0 0.048 0.112 0.12 0.124 0.188 8e-3 0.036-0.016 0.09 0 0.126 0.052 0.098 0.16-0.02 0.25 0 0.088 0.02 0.188 0.15 0.188 0.25a0.52 0.52 0 0 1-0.062 0.25c-0.088 0.132-0.25 0.114-0.376 0.186-0.104 0.06-0.124 0.21-0.186 0.314-0.066 0.112-0.152 0.152-0.126 0.312a0.73 0.73 0 0 1-0.376 0.374c-0.054 0.024-0.136 0.028-0.186 0.064-0.04 0.028-0.07 0.122-0.126 0.186-0.07 0.08-0.148 0.128-0.186 0.188-0.03 0.046-0.034 0.124-0.064 0.188-0.044 0.084-0.132 0.102-0.186 0.186-0.026 0.04-0.036 0.136-0.064 0.188-0.064 0.116-0.136 0.212-0.124 0.314 0.01 0.096 0.12 0.1 0.124 0.186 6e-3 0.048-0.064 0.072-0.062 0.126 2e-3 0.076 0.056 0.126 0.062 0.186 0.014 0.148-0.096 0.212-0.124 0.314-0.014 0.048 0.012 0.084 0 0.124-0.024 0.074-0.124 0.162-0.126 0.25 0 0.062 0.12 0.1 0.126 0.188 4e-3 0.058-0.074 0.132-0.064 0.188 0.022 0.108 0.23 0.228 0.314 0.312 0.114 0.114 0.262 0.192 0.312 0.312 0.042 0.102 0.048 0.3 0.126 0.376 0.056 0.056 0.176 0.064 0.25 0.124 0.068 0.054 0.112 0.066 0.186 0.126 0.122 0.096 0.306 0.326 0.5 0.312 0.102-0.02 0.2-0.104 0.314-0.126 0.118-0.02 0.254-0.072 0.374-0.06 0.092 0.02 0.216 0.066 0.312 0.06 0.1-0.02 0.2-0.012 0.314-0.06 0.198-0.088 0.524-0.23 0.812-0.19 0.22 0.032 0.22 0.278 0.374 0.376 0.176 0.02 0.298-0.034 0.438 0 0.106 0.026 0.24 0.166 0.25 0.25 0.01 0.086-0.114 0.196-0.126 0.25-0.026 0.116 0.02 0.24 0 0.312-0.016 0.06-0.064 0.13-0.06 0.188 0 0.052 0.07 0.18 0.124 0.25 0.066 0.084 0.17 0.16 0.25 0.25 0.146 0.168 0.21 0.34 0.312 0.562 0.026 0.056-0.024 0.116 0 0.188-0.044 0.336-0.156 0.566-0.376 0.938-0.102 0.12-0.252 0.224-0.25 0.374-6e-3 0.36 0.204 0.59 0.188 0.938-0.036 0.468 0.036 0.5 0 0.75 0.16 0.08 0.046 0.334 0 0.5-0.068 0.198-0.148 0.242-0.186 0.376 0.106 0.046 0.256 0.026 0.374 0l-0.188 0.186a10.406 10.406 0 0 1-1.5 1.25 9.88 9.88 0 0 1-3.436 1.5 9.97 9.97 0 0 1-2.126 0.188c-0.38 0-0.756-0.02-1.126-0.062-0.292-0.034-0.588-0.068-0.874-0.126-0.566-0.116-1.098-0.354-1.626-0.562-0.018-0.034-0.066-0.084-0.06-0.126 0.102-0.044 0.298 0.148 0.374 0 0.038-0.07-0.05-0.24 0-0.312 0.036-0.048 0.238-0.048 0.312-0.062 0.106-0.02 0.252-0.034 0.312-0.062 0.066-0.042 0.138-0.19 0.126-0.314-6e-3 -0.058-0.08-0.072-0.126-0.124-0.038-0.044 0.026-0.084 0-0.126-0.048-0.07-0.166-0.084-0.186-0.186 0.144-0.028 0.354 0.12 0.56 0.062 0.1-0.028 0.268-0.22 0.314-0.312 0.014-0.028-0.016-0.09 0-0.126 0.018-0.036 0.056-0.104 0.062-0.124 0.014-0.054-0.012-0.028 0-0.064 0.036-0.1 0.128-0.176 0.188-0.25 0.046-0.056 0.146-0.128 0.188-0.186 0.048-0.062 0.03-0.07 0.062-0.126 0.03-0.18-0.106-0.34-0.062-0.5 0.048-0.18 0.326-0.292 0.5-0.374 0.06-0.028 0.136-0.046 0.186-0.064 0.12-0.04 0.264-0.084 0.376-0.124 0.188-0.068 0.22-0.204 0.312-0.376 0.044-0.08 0.118-0.19 0.126-0.25 8e-3 -0.052-0.01-0.062 0-0.124 0.01-0.058-0.016-0.12 0-0.188 0.02-0.086 0.062-0.28 0.062-0.374 0-0.08-0.06-0.116-0.062-0.188-0.014-0.26 0.092-0.234 0.186-0.376 0.048-0.07 0.092-0.2 0.126-0.25 0.162-0.24 0.458-0.322 0.438-0.686-8e-3 -0.12-0.1-0.4-0.188-0.438-0.05-0.022-0.114-0.036-0.188-0.062-0.236-0.088-0.44-0.356-0.686-0.376h-0.126c-0.096 0-0.204-0.048-0.312-0.062-0.068-0.02-0.21 0.02-0.25 0-0.062-0.03-0.076-0.154-0.126-0.188-0.04-0.028-0.126-0.04-0.186-0.062-0.1-0.036-0.136-0.118-0.25-0.126-0.036 0-0.086 0.02-0.126 0-0.062-0.02-0.13-0.026-0.188-0.06-0.072-0.046-0.156-0.064-0.186-0.126 0.066-0.216-0.144-0.25-0.188-0.376-0.02-0.058 0.02-0.198 0-0.25-0.026-0.074-0.106-0.124-0.188-0.186a0.748 0.748 0 0 0-0.438-0.188c-0.092-0.02-0.202 0.02-0.312 0a0.712 0.712 0 0 1-0.376-0.188c-0.084-0.098-0.112-0.204-0.186-0.25-0.07-0.044-0.14-0.08-0.188-0.126-0.022-0.02-0.042-0.016-0.062-0.06-0.036-0.076-0.108-0.1-0.064-0.19-0.08-0.04-0.038 0.078-0.124 0.064-0.078-0.11-0.136-0.22-0.312-0.188-0.08 0.02-0.156 0.186-0.25 0.188-0.08 0-0.148-0.172-0.25-0.188-0.08-0.02-0.196 0.072-0.25 0.062-0.086-0.02-0.11-0.072-0.188-0.124-0.058-0.04-0.156-0.128-0.188-0.126-0.1 0-0.174 0.2-0.312 0.126-0.068-0.086 0.142-0.108 0.062-0.188-0.06-0.058-0.076 0.034-0.124 0.062-0.056 0.036-0.126 0.04-0.188 0.064-0.138 0.052-0.268 0.066-0.376 0.124a0.37 0.37 0 0 0-0.186 0.188c-0.046 0.084-0.118 0.246-0.188 0.25-0.084 0-0.112-0.092-0.188-0.126-0.23-0.1-0.372 0.06-0.562 0.064-0.176 0-0.446-0.272-0.438-0.44 6e-3 -0.1 0.052-0.248 0.064-0.374 0.01-0.1 0.122-0.22 0.124-0.312 2e-3 -0.124-0.232-0.174-0.312-0.188-0.188-0.034-0.412 0.084-0.626 0-0.04-0.068 0.04-0.12 0.064-0.186 0.014-0.036-0.014-0.084 0-0.126 0.022-0.064 0.156-0.12 0.186-0.188 0.022-0.052-0.02-0.12 0-0.186 0.026-0.072 0.12-0.136 0.126-0.188 8e-3 -0.068-0.072-0.144-0.126-0.188-0.166 0.02-0.28 0.014-0.374 0.062-0.216 0.1-0.158 0.37-0.376 0.438a1.828 1.828 0 0 1-0.25 0.062c-0.036 0.02-0.084-4e-3 -0.124 0 4e-3 -0.02-4e-3 -0.04 0-0.062 8e-3 -0.046 0.052-0.08 0.062-0.126a9.82 9.82 0 0 1 0.626-1.874h0.06c0.078 0.02 0.124 0.12 0.19 0.126 0.182 0.02 0.222-0.17 0.374-0.25 0.156 0.02 0.234-0.02 0.376 0 0.096 0.02 0.236 0.116 0.312 0.124 0.064 0 0.064-0.07 0.124-0.062 0.06 0.02 0.178 0.114 0.188 0.186 0.01 0.09-0.088 0.214-0.062 0.314 0.094 0.096 0.304 0.13 0.436 0.186 0.088-0.074 0.014-0.208 0-0.312 0-0.046 6e-3 -0.144 0-0.186-8e-3 -0.072-0.06-0.126-0.06-0.188 0-0.286 0.244-0.388 0.436-0.5 0.082-0.048 0.178-0.152 0.25-0.188 0.102-0.05 0.166-0.014 0.25-0.062 0.152-0.086 0.258-0.216 0.376-0.314 0.054-0.13-6e-3 -0.308 0-0.436 0.054-0.034 0.128 0 0.186 0 0.092-0.02 0.136-0.136 0.188-0.188 0.03-0.03 0.088-0.032 0.126-0.062 0.09-0.072 0.106-0.156 0.186-0.188a0.52 0.52 0 0 1 0.126-0.062c0.06-0.02 0.154-0.028 0.25-0.064 0.06-0.02 0.226-0.036 0.25-0.06 0.03-0.032-8e-3 -0.144 0-0.19 0.048-0.224 0.36-0.236 0.562-0.312 0.14-0.052 0.28-0.214 0.438-0.186-0.03 0.108-0.152 0.12-0.126 0.25 0.034 0.18 0.25-0.038 0.314-0.064 0.12-0.052 0.34-0.126 0.5-0.186 0.14-0.05 0.38-0.09 0.25-0.25-0.11-0.02-0.156 0.084-0.25 0.124-0.066 0.02-0.07-0.056-0.126-0.062-0.054 0-0.07 0.072-0.126 0.062-0.054-0.02-0.116-0.12-0.124-0.188-0.022-0.168 0.12-0.188 0.188-0.312-0.046-0.152-0.248-0.066-0.376-0.126a0.226 0.226 0 0 1 0.188-0.186c0.086-0.02 0.324 0.016 0.376 0.062 0.03 0.026-0.046 0.084 0 0.126 0.052 0.046 0.12 0.02 0.186 0 0.024-0.114-0.144-0.052-0.124-0.126 0.136-0.088 0.396-0.04 0.562-0.062a1.36 1.36 0 0 0 0.312-0.126c0.08-0.046 0.104-0.138 0.188-0.062 0.024 0.082-0.016 0.144-0.062 0.188-0.154 0.136-0.318 0.28-0.438 0.436 0.074 0.072 0.188 0.05 0.312 0.064 0.048 0.02 0.138-0.01 0.188 0 0.06 0.02 0.14-0.02 0.188 0 0.084 0.02 0.104 0.186 0.186 0.186 0.136 0 0.08-0.16 0-0.25 0.024-0.094 0.098-0.182 0.064-0.25-0.062-0.124-0.3 0.038-0.314-0.124-6e-3 -0.1 0.09-0.112 0.126-0.188-0.016-0.192 0.144-0.2 0.126-0.374-0.01-0.072-0.076-0.058-0.126-0.126-0.026-0.036-0.032-0.16-0.062-0.186-0.104-0.088-0.3-0.02-0.314-0.188-4e-3 -0.1 0.014-0.206 0-0.314-0.014-0.1-0.1-0.416-0.186-0.436-0.112-0.024-0.18 0.186-0.314 0.25a0.752 0.752 0 0 1-0.312 0.062c-0.048-0.02-0.12-0.03-0.124-0.126-8e-3 -0.084 0.094-0.12 0.124-0.186 8e-3 -0.016-4e-3 -0.04 0-0.064 0.146-0.04 0.29-0.09 0.438-0.124 0.084-0.02 0.166-0.046 0.25-0.062 0.06-0.012 0.128 0.01 0.188 0a10.02 10.02 0 0 1 1.812-0.188zm-4.062 0.938c-0.064 0.364-0.406 0.51-0.814 0.5-0.09 0.088-0.012 0.252-0.06 0.374-0.044 0.102-0.212 0.196-0.314 0.188-0.074 0-0.188-0.118-0.188-0.188 0-0.086 0.138-0.088 0.064-0.186 2e-3 -0.02 0.04-0.044 0.06-0.064 0.042-0.024 0.086-0.038 0.126-0.062 0.362-0.224 0.734-0.386 1.126-0.562zm8.374 0.374c-0.036 0.02-0.03 0.044-0.062 0.064-0.076 0.046-0.13 0.102-0.188 0.124-0.08 0.03-0.174 0.05-0.186 0.126-0.01 0.06 0.064 0.066 0.06 0.124-0.028 0.074-0.044 0.098-0.06 0.188 0.1 0.166 0.31-0.038 0.436-0.064 0.056-0.02 0.096-0.014 0.126-0.06 0.034-0.056 0.036-0.112 0.062-0.19 0.028-0.084 0.136-0.112 0.126-0.186-8e-3 -0.074-0.19-0.136-0.314-0.126zm-10.936 1.25c0.094 0.076 0.228 0.24 0.06 0.314a1.032 1.032 0 0 1-0.31 0.06c-0.02 0-0.046-0.046-0.064-0.06 0.104-0.1 0.206-0.218 0.314-0.314zm0.374 0.376c0.048 0 0.068 0.12 0.126 0.124 0.054 0 0.092-0.07 0.124-0.062 0.084 0.022 0.142 0.188 0.062 0.25-0.066 0.02-0.076-0.07-0.124-0.062-0.136 0.024-0.212 0.32-0.314 0.312-0.096-0.02-0.16-0.242-0.06-0.312 0-0.06-6e-3 -0.064 0-0.126 0.028-0.036 0.106-0.13 0.186-0.124zm-0.5 0.062c0.028 0 0.052-0.02 0.062 0-0.014 0.106-0.042 0.138-0.124 0.188-0.142 0.086-0.266 0.192-0.314 0.374-0.014 0.054-0.18 0.2-0.25 0.188-0.158-0.034 0.09-0.33 0.126-0.376 0.04-0.05 0.08-0.066 0.126-0.124 0.044-0.056 0.08-0.156 0.124-0.188a0.492 0.492 0 0 1 0.25-0.062zm13.562 0.312c0.16-0.02 0.24 0.156 0.314 0.25 0.06 0.08 0.214 0.196 0.312 0.25 0.056 0.03 0.124 0.098 0.186 0.126 0.13 0.058 0.37 0.246 0.376 0.374 2e-3 0.064-0.072 0.128-0.062 0.188 0.098 0.02 0.184-0.152 0.186-0.25 0.184 0.26 0.342 0.536 0.5 0.812 0.076 0.132 0.18 0.24 0.25 0.376-0.088 0.026-0.11 0.04-0.124 0.124-0.02 0.112 0.042 0.294-0.126 0.314-0.104 0.02-0.228-0.092-0.374-0.126-0.06-0.02-0.14 0.02-0.188 0-0.11-0.036-0.092-0.184-0.186-0.25a1.002 1.002 0 0 0-0.314-0.126c-0.054 0-0.068 0.02-0.124 0-0.068-0.02-0.194 0.028-0.25 0a0.642 0.642 0 0 1-0.188-0.186c-0.022-0.074 0.184-0.126 0.188-0.188 4e-3 -0.048-0.054-0.114-0.064-0.188-6e-3 -0.044 0.01-0.094 0-0.124-0.014-0.052-0.104-0.06-0.186-0.064h-0.188c-0.088 0-0.266-8e-3 -0.376 0-0.066 0-0.124-6e-3 -0.186 0-0.174 0.02-0.302-0.02-0.438 0a1.256 1.256 0 0 0-0.376 0.126l-0.124 0.062a0.822 0.822 0 0 1-0.126 0.064c-0.054 0.026-0.132 0.108-0.186 0.124-0.08 0.02-0.172-0.02-0.314 0-0.1 0-0.246-0.066-0.25-0.188 0-0.186 0.326-0.09 0.5-0.124 0.066-0.02 0.108-0.078 0.188-0.126 0.04-0.02 0.028-0.038 0.064-0.062 0.06-0.042 0.176-0.14 0.186-0.188 8e-3 -0.044-6e-3 -0.09 0-0.124 8e-3 -0.042 0.072-0.07 0.126-0.126 0.084-0.084 0.146-0.196 0.25-0.25 0.07-0.036 0.154-0.066 0.186-0.124 8e-3 -0.064 0-0.066 0-0.126a0.26 0.26 0 0 1 0.126-0.062c0.108-0.024 0.186 6e-3 0.312 0 0.054 0 0.13 0.026 0.188 0 0.048-0.032 0.076-0.1 0.126-0.126a0.494 0.494 0 0 1 0.186-0.06zm1.126 1.188h-0.25c-0.088 0-0.2-0.046-0.25 0 0.074 0.12 0.208 0.158 0.374 0.188a0.386 0.386 0 0 0 0.126-0.188zm-13.688-1.126h0.188c0.05 0 0.104-0.02 0.124 0-0.032 0.132-0.334 0.112-0.436 0.064 4e-3 -0.05 0.06-0.056 0.124-0.064zm-0.438 0.25c-0.086 0.064-0.174 0.146-0.312 0.188-0.076 0.024-0.174 0.022-0.188-0.062-0.016-0.104 0.12-0.052 0.188-0.062 0.088-0.02 0.21-0.06 0.312-0.064zm13 0c-0.066 0.022-0.098 0.168 0 0.188 0.046-0.028 0.076-0.1 0.064-0.186-0.026-0.028-0.044-0.02-0.064 0zm-0.124 0.314c0 0.112 0.02 0.214 0 0.312 0.064 0.124 0.218 0.02 0.25-0.062 0.038-0.208-0.03-0.276-0.126-0.25-0.032 0.02-0.09-0.026-0.124 0zm-16.564 4.686c0.114 0.102 0.18 0.246 0.314 0.314a0.938 0.938 0 0 0 0.186 0.062c0.054 0.02 0.076-0.016 0.126 0 0.106 0.036 0.228 0.086 0.312 0.126 0.128 0.056 0.266 0.248 0.376 0.312 6e-3 0.064-0.02 0.14 0 0.186 0.052 0.07 0.102 0.14 0.186 0.188 0.102 0.056 0.156 0.144 0.25 0.188 0.034 0.02 0.074-0.02 0.126 0 0.132 0.04 0.2 0.22 0.312 0.188 0.074-0.022 0.052-0.116 0.064-0.188 0.05-0.054 0.108-0.126 0.186-0.126 0.124 0 0.142 0.192 0.188 0.314 0.026 0.068 0.108 0.114 0.126 0.186a1.886 1.886 0 0 1 0 0.564c-0.032 0.092-0.174 0.086-0.25 0.186-0.036 0.048-0.036 0.154-0.064 0.188-0.048 0.06-0.088 0.07-0.124 0.126a0.898 0.898 0 0 0-0.064 0.124c-0.06 0.128-0.174 0.22-0.124 0.376 0.02 0.06 0.126 0.112 0.126 0.186 0 0.088-0.174 0.154-0.188 0.25-0.01 0.07 0.04 0.158 0.062 0.25 0.016 0.07 0.146 0.142 0.188 0.188 0.07 0.08 0.122 0.214 0.186 0.314 0.126 0.194 0.19 0.434 0.314 0.624 0.066 0.098 0.206 0.146 0.25 0.25 0.02 0.052-0.02 0.14 0 0.188 0.072 0.16 0.4 0.358 0.562 0.436 0.076 0.04 0.18 0.024 0.25 0.064 0.106 0.06 0.32 0.22 0.376 0.312 0.046 0.084 0.038 0.304 0.06 0.438 0.032 0.176-6e-3 0.31 0 0.5 8e-3 0.104 0.064 0.146 0.064 0.25v0.186c-2e-3 0.124 0.01 0.25 0 0.376a1.196 1.196 0 0 0 0 0.188c6e-3 0.06 0.06 0.068 0.062 0.124 4e-3 0.06-0.068 0.142-0.062 0.188 0.014 0.126 0.1 0.196 0.126 0.312 0.02 0.092 0.074 0.328 0.06 0.438-6e-3 0.058-0.052 0.12-0.06 0.188-6e-3 0.052 6e-3 0.076 0 0.124-6e-3 0.046 0.01 0.088 0 0.126-0.064-0.04-0.126-0.084-0.188-0.126a10.406 10.406 0 0 1-1.5-1.25l-0.188-0.186a10.4 10.4 0 0 1-1-1.25c-0.028-0.04-0.036-0.086-0.062-0.126a9.648 9.648 0 0 1-0.876-1.626c-0.018-0.04-0.044-0.08-0.062-0.124a10.038 10.038 0 0 1-0.562-1.938 10.02 10.02 0 0 1-0.188-1.812c0-0.476 0.06-0.918 0.126-1.376zm3.876 1.064c0.096-0.044 0.078 0.11 0 0.124-0.074 0.02-0.072-0.088 0-0.124z" fill="#fff"/>
</svg>
