<svg width="64" height="64" version="1.1" xmlns="http://www.w3.org/2000/svg" xmlns:xlink="http://www.w3.org/1999/xlink">
 <g transform="scale(3.7796)" style="paint-order:stroke markers fill">
  <g transform="matrix(1,0,0,1.04,0,-291.61)">
   <rect x="2.117" y="281.92" width="12.7" height="13.229" ry=".529" fill="#7fbc34"/>
   <path d="m2.646 281.92a0.528 0.528 0 0 0-0.53 0.529v5.045a9.26 9.26 0 0 0 8.467 5.538 9.26 9.26 0 0 0 4.234-1.027v-9.556a0.528 0.528 0 0 0-0.53-0.53z" fill="#008000" opacity=".1"/>
   <path d="m2.646 281.92a0.528 0.528 0 0 0-0.53 0.529v12.17c0 0.294 0.237 0.53 0.53 0.53h5.909a10.583 10.583 0 0 0 6.262-5.472v-7.228a0.528 0.528 0 0 0-0.53-0.53z" fill="#fff" opacity=".1"/>
  </g>
  <path d="m5.292 3.969a3.175 3.175 0 0 0 3.175 3.175 3.175 3.175 0 0 0 3.175-3.175h-0.794a2.381 2.381 0 0 1-2.381 2.381 2.381 2.381 0 0 1-2.382-2.381z" fill="#fff"/>
 </g>
 <path d="m32 30a11.92 11.92 0 0 0-6.062 1.688l5.374 5.374 1.438-1.436-3.25-3.25c0.39-0.104 0.78-0.196 1.188-0.25 0.104-0.016 0.206-0.052 0.312-0.064 0.336-0.034 0.654-0.062 1-0.062a10 10 0 0 1 10 10c0 0.486-0.056 0.972-0.126 1.438-0.04 0.272-0.062 0.548-0.124 0.812a9.474 9.474 0 0 1-0.562 1.626c-0.028 0.06-0.036 0.126-0.064 0.186-0.08 0.184-0.216 0.328-0.312 0.5-8e-3 0.016 0.01 0.046 0 0.064l1.5 1.436a11.92 11.92 0 0 0 1.688-6.062 12 12 0 0 0-12-12zm-10.312 5.938a11.92 11.92 0 0 0-1.688 6.062 12 12 0 0 0 12 12 11.92 11.92 0 0 0 6.062-1.688l-1.5-1.5-3.874-3.812-1.376 1.376 3.188 3.25c-0.39 0.1-0.78 0.194-1.188 0.25-0.104 0.014-0.206 0.05-0.312 0.06-0.336 0.036-0.654 0.064-1 0.064s-0.664-0.028-1-0.062-0.674-0.06-1-0.126a10.034 10.034 0 0 1-8-9.812c0-0.496 0.056-0.96 0.126-1.438 0.04-0.272 0.062-0.548 0.124-0.812 0.134-0.574 0.334-1.096 0.562-1.626 0.026-0.06 0.036-0.126 0.064-0.186 0.08-0.18 0.216-0.33 0.312-0.5v-0.064z" fill="#fff"/>
</svg>
