<svg width="64" height="64" version="1.1" viewBox="0 0 64 64" xmlns="http://www.w3.org/2000/svg">
 <rect x="6" y="6" width="52" height="52" rx="8" ry="8" fill="#ec5056" stroke-width="3.5095"/>
 <path d="m31.91 14a18 18 0 0 0-17.91 18 18 18 0 0 0 18 18 18 18 0 0 0 18-18 18 18 0 0 0-18-18 18 18 0 0 0-0.08984 0zm-4.1699 8.6603c0.34816 0.01806 0.67356 0.13305 0.97657 0.34375l11.213 7.7267c0.3532 0.2488 0.59793 0.57707 0.73438 0.98243 0.13644 0.4054 0.13644 0.81524 0 1.2246-0.13642 0.40535-0.38111 0.73371-0.73828 0.97853l-11.209 7.7267c-0.40534 0.27693-0.84642 0.38833-1.332 0.32812-0.48561-0.06021-0.88782-0.27345-1.2129-0.63868s-0.49023-0.79358-0.49023-1.2832v-15.451c0-0.48963 0.16515-0.91995 0.49023-1.2852 0.32512-0.36522 0.72728-0.57847 1.2129-0.63867 0.12107-0.01539 0.23942-0.01969 0.35547-0.01367z" fill="#ffffff" stroke-linecap="round" stroke-linejoin="round" stroke-width="3.9543"/>
</svg>
