<svg xmlns="http://www.w3.org/2000/svg" width="64" height="64" viewBox="0 0 16.933 16.933"><path fill="#e82e34" d="M15.784 5.655c-.083-.99-.674-2.24-1.888-2.285-3.391-.228-7.408-.29-10.861 0-1.071.12-1.805 1.425-1.885 2.416-.17 2.081-.17 3.266 0 5.348.08.99.796 2.303 1.887 2.44 3.493.229 7.491.261 10.86 0 1.058-.183 1.807-1.45 1.888-2.44.168-2.083.168-3.397 0-5.478z"/><path fill="#fff" d="M6.614 10.848V6.086l4.234 2.381z"/><circle cx="13.229" cy="11.906" r="3.704" fill="#33a5ff"/><path fill="#fff" d="m11.377 12.17 1.852 2.117 1.852-2.117h-1.058V9.524h-1.588v2.646z"/></svg>