<svg width="64" height="64" version="1.1" viewBox="0 0 16.933 16.933" xmlns="http://www.w3.org/2000/svg">
 <path d="m15.784 5.6554c-0.08284-0.99104-0.67376-2.2408-1.8881-2.2854-3.391-0.228-7.4082-0.29034-10.861 0-1.0711 0.12005-1.8053 1.4247-1.8853 2.4158-0.16935 2.0816-0.16935 3.2664 0 5.348 0.080962 0.99104 0.79658 2.3032 1.8872 2.4408 3.4934 0.228 7.4912 0.26056 10.861 0 1.0571-0.18332 1.8062-1.4498 1.8872-2.4408 0.16842-2.0826 0.16842-3.3966-9.15e-4 -5.4782z" fill="#e82e34" stroke-width=".038478"/>
 <path d="m6.6145 10.848v-4.7624l4.2332 2.3816z" fill="#ffffff" stroke-width=".034671"/>
 <circle cx="13.229" cy="11.906" r="3.7041" fill="#33a5ff" stroke-width=".26458"/>
 <path d="m11.377 12.17 1.852 2.1166 1.852-2.1166h-1.0583v-2.6458h-1.5875v2.6458z" fill="#ffffff" stroke-width=".26458"/>
</svg>
