<svg xmlns="http://www.w3.org/2000/svg" width="64" height="64"><rect width="46" height="54" x="9" y="5" fill="#3d4144" fill-rule="evenodd" rx="3" ry="3" style="paint-order:fill markers stroke"/><path fill="#24a9f7" d="M17 5v23.996l4.002-4.002L25 28.992V4.996z"/><path fill="#282a2c" fill-rule="evenodd" d="M12 5c-1.662 0-3 1.338-3 3v48c0 1.662 1.338 3 3 3h3V5z" style="paint-order:fill markers stroke"/><path fill="#fff" fill-rule="evenodd" d="M39 37c-2.326.024-4.67.592-6.695 1.816-.808.562-1.778 1.286-2.508 2.016-1.15 1.2-2.133 2.6-2.797 4.168 1.822 4.288 5.827 7.434 10.234 7.898 2.891.35 5.92-.185 8.46-1.71.808-.562 1.778-1.286 2.509-2.016C49.353 47.97 50.335 46.567 51 45c-1.823-4.288-5.827-7.43-10.234-7.894A14 14 0 0 0 39 37m.004 4c2.14-.047 4.036 1.867 3.996 3.996.069 2.353-2.277 4.385-4.594 3.945-2.34-.274-3.984-2.9-3.215-5.125.492-1.637 2.099-2.836 3.813-2.816M39 43a2 2 0 0 0-2 2 2 2 0 0 0 2 2 2 2 0 0 0 2-2 2 2 0 0 0-2-1.996z"/></svg>