<svg width="64" height="64" version="1.1" xmlns="http://www.w3.org/2000/svg">
 <rect x="9" y="5" width="46" height="54" rx="3" ry="3" fill="#3d4144" fill-rule="evenodd" style="paint-order:fill markers stroke"/>
 <path d="m17 5v23.996l4.0019-4.002 3.9981 3.9982v-23.996z" fill="#24a9f7" stroke-width="3.7796"/>
 <path d="m12 5c-1.662 0-3 1.338-3 3v48c0 1.662 1.338 3 3 3h3v-54h-3z" fill="#282a2c" fill-rule="evenodd" style="paint-order:fill markers stroke"/>
 <path d="m39 37c-2.3262 0.02416-4.6691 0.59151-6.6953 1.8164-0.80761 0.56112-1.7772 1.2855-2.5078 2.0156-1.1497 1.2009-2.1328 2.6005-2.7969 4.168 1.8224 4.2881 5.8269 7.4343 10.234 7.8984 2.8911 0.34907 5.9195-0.18496 8.4609-1.7109 0.80758-0.56112 1.7772-1.2855 2.5078-2.0156 1.1498-1.2009 2.1328-2.6045 2.7969-4.1719-1.8225-4.288-5.8268-7.4307-10.234-7.8945-0.58482-0.0728-1.1769-0.10546-1.7656-0.10546zm4e-3 4c2.1397-0.0474 4.0364 1.8675 3.9961 3.9961 0.06856 2.3525-2.2767 4.3847-4.5938 3.9453-2.3402-0.27479-3.9844-2.901-3.2148-5.125 0.49154-1.6372 2.0982-2.8366 3.8125-2.8164zm-4e-3 2a2 2 0 0 0-2 2 2 2 0 0 0 2 2 2 2 0 0 0 2-2 2 2 0 0 0-2-1.9961z" fill="#fff" fill-rule="evenodd" stroke-width="2"/>
</svg>
