<svg xmlns="http://www.w3.org/2000/svg" width="64" height="64" viewBox="0 0 16.933 16.933"><rect width="12.171" height="14.287" x="2.381" y="1.323" fill="#b53517" fill-rule="evenodd" rx=".794" ry=".794" style="paint-order:fill markers stroke"/><path fill="#fff" d="M4.498 1.323v6.349l1.059-1.059 1.057 1.058V1.32z"/><path fill="#392e28" fill-rule="evenodd" d="M3.175 1.323a.79.79 0 0 0-.794.794v12.7c0 .44.354.793.794.793h.794V1.323z" style="paint-order:fill markers stroke"/><path fill="#f1f2f2" d="M10.555 8.542c-.883 0-1.452.015-1.817.068a1.2 1.2 0 0 0-.418.122.34.34 0 0 0-.185.29c0 .08.039.139.102.173a.25.25 0 0 0 .132.027.8.8 0 0 0 .257-.065 2 2 0 0 1 .178-.037 6 6 0 0 1 .357-.048c.278-.03.626-.056.972-.071l.854-.038-.168.16c-.258.242-1.108.892-1.945 1.504-.42.306-.835.605-1.18.843-.347.238-.629.42-.742.48q-.22.112-.439.227c.024.084.042.177.06.252q.273.01.547.017c.108.003.417.038.798.095.38.058.841.135 1.289.218.95.177 1.665.281 2.202.31s.902-.012 1.16-.15c.195-.104.382-.31.538-.53.155-.22.288-.446.287-.66a.2.2 0 0 0-.023-.095.16.16 0 0 0-.06-.062.15.15 0 0 0-.082-.027.2.2 0 0 0-.102.027c-.1.074-.16.197-.218.276-.15.253-.29.39-.534.483-.242.092-.6.129-1.147.129-.486 0-1.24-.068-1.89-.156a13 13 0 0 1-.846-.14h-.004a4 4 0 0 1-.269-.065c.075-.082.23-.21.44-.384a122 122 0 0 1 4.23-3.173z" color="#000"/></svg>