<svg width="64" height="64" version="1.1" viewBox="0 0 16.933 16.933" xmlns="http://www.w3.org/2000/svg">
 <defs>
  <linearGradient id="a" x1="50" x2="50" y1="59" y2="39" gradientTransform="scale(.26458)" gradientUnits="userSpaceOnUse">
   <stop offset="0"/>
   <stop stop-opacity="0" offset="1"/>
  </linearGradient>
 </defs>
 <rect x="2.3812" y="1.3229" width="12.171" height="14.287" rx=".79373" ry=".79373" fill="#b53517" fill-rule="evenodd" style="paint-order:fill markers stroke"/>
 <path d="m4.4978 1.3229v6.3489l1.0588-1.0588 1.0578 1.0578v-6.3489z" fill="#fff"/>
 <path d="m3.1749 1.3229c-0.43973 0-0.79373 0.35401-0.79373 0.79373v12.7c0 0.43973 0.35401 0.79373 0.79373 0.79373h0.79373v-14.287z" fill="#392e28" fill-rule="evenodd" style="paint-order:fill markers stroke"/>
 <path d="m14.552 10.382a11.245 14.221 0 0 1-3.7795 5.2285h2.9858c0.43973 0 0.79374-0.35401 0.79374-0.79373z" fill="url(#a)" fill-rule="evenodd" opacity=".15" style="paint-order:fill markers stroke"/>
 <path d="m10.555 8.5419c-0.88263 0-1.4519 0.015345-1.8166 0.068017-0.18263 0.026336-0.31577 0.0641-0.41874 0.12243-0.10793 0.061161-0.18463 0.16553-0.18463 0.28905 0 0.080533 0.038611 0.13963 0.10224 0.17347 0.045364 0.024159 0.091259 0.028731 0.13188 0.027208 0.079024-0.00284 0.1629-0.027642 0.25722-0.064644 0.010787-0.00424 0.083029-0.021656 0.17809-0.037436 0.094953-0.01578 0.21723-0.032648 0.35607-0.047667 0.27821-0.029928 0.62679-0.056591 0.97263-0.071392l0.85394-0.037438-0.16817 0.15987c-0.25816 0.2416-1.1077 0.89119-1.9453 1.5032-0.41874 0.30602-0.83442 0.60497-1.1804 0.84342-0.34584 0.23844-0.62827 0.42084-0.74168 0.4795-0.14697 0.07433-0.29256 0.1516-0.43847 0.22789 0.024159 0.08369 0.041773 0.17706 0.059401 0.25172 0.18231 0.0082 0.36483 0.01175 0.54735 0.01698 0.10782 0.0029 0.41737 0.03798 0.79792 0.09522 0.38065 0.05724 0.84128 0.13429 1.2891 0.21766 0.95058 0.17685 1.6651 0.28132 2.2024 0.30951 0.5369 0.02808 0.90194-0.01164 1.1605-0.14964 0.19444-0.10371 0.38139-0.31027 0.53743-0.53054 0.1553-0.21983 0.28739-0.44576 0.28686-0.6595 0-0.01513-0.0028-0.05811-0.02311-0.09522-0.0173-0.03178-0.03756-0.04723-0.0594-0.06127-0.02184-0.01393-0.04536-0.02623-0.08239-0.02721-0.0365-9.78e-4 -0.07617 0.01022-0.10224 0.02721-0.10012 0.074-0.15973 0.19632-0.21765 0.27544-0.1496 0.25313-0.29087 0.39058-0.53416 0.48298-0.24213 0.09185-0.6002 0.12929-1.1473 0.12929-0.48531 0-1.2403-0.06813-1.8891-0.15649-0.32421-0.04408-0.62341-0.0924-0.84718-0.13941h-0.00325c-0.1053-0.0222-0.20583-0.0456-0.26913-0.06465 0.074798-0.0826 0.22989-0.20971 0.44058-0.38427 1.4855-1.1672 2.7319-2.0923 4.2296-3.1734h-2.3337z" color="#000000" fill="#f1f2f2"/>
</svg>
