<svg xmlns="http://www.w3.org/2000/svg" width="64" height="64" viewBox="0 0 16.933 16.933"><rect width="12.171" height="14.287" x="2.381" y="1.323" fill="#b53517" fill-rule="evenodd" rx=".794" ry=".794" style="paint-order:fill markers stroke"/><path fill="#fff" d="M4.498 1.323v6.349l1.059-1.059 1.057 1.058V1.32z"/><path fill="#392e28" fill-rule="evenodd" d="M3.175 1.323a.792.792 0 0 0-.794.794v12.7c0 .44.354.793.794.793h.794V1.323z" style="paint-order:fill markers stroke"/><path fill="#f1f2f2" d="M10.555 8.542c-.883 0-1.452.015-1.817.068a1.19 1.19 0 0 0-.418.122.338.338 0 0 0-.185.29c0 .08.039.139.102.173a.254.254 0 0 0 .132.027.8.8 0 0 0 .257-.065c.011-.004.083-.021.178-.037.095-.016.218-.033.357-.048.278-.03.626-.056.972-.071l.854-.038-.168.16c-.258.242-1.108.892-1.945 1.504-.42.306-.835.605-1.18.843-.347.238-.629.42-.742.48-.147.074-.293.151-.439.227.024.084.042.177.06.252.182.008.364.012.547.017.108.003.417.038.798.095.38.058.841.135 1.289.218.95.177 1.665.281 2.202.31.537.028.902-.012 1.16-.15.195-.104.382-.31.538-.53.155-.22.288-.446.287-.66a.214.214 0 0 0-.023-.095.157.157 0 0 0-.06-.062.15.15 0 0 0-.082-.027.19.19 0 0 0-.102.027c-.1.074-.16.197-.218.276-.15.253-.29.39-.534.483-.242.092-.6.129-1.147.129-.486 0-1.24-.068-1.89-.156a12.706 12.706 0 0 1-.846-.14h-.004a3.738 3.738 0 0 1-.269-.065c.075-.082.23-.21.44-.384a122.332 122.332 0 0 1 4.23-3.173h-2.333z" color="#000"/></svg>