<svg xmlns="http://www.w3.org/2000/svg" width="64" height="64" viewBox="0 0 16.933 16.933"><rect width="13.758" height="13.758" x="1.587" y="1.587" fill="#3f3f3f" fill-rule="evenodd" rx="2.117" ry="2.117" style="paint-order:stroke fill markers"/><path fill="#fff" d="M5.03 4.557c-.328 0-.6.272-.6.6v5.394h.53V5.157q.002-.069.07-.07h6.72c.044 0 .071.026.071.07v.11l.084-.09-.012.09.379-.405a.61.61 0 0 0-.522-.305zm1.379 1.51c-.25 0-.462.21-.462.461V9.33h.53V6.594h3.887v.223l.472-.502a.46.46 0 0 0-.404-.249zm5.942.24-.53.001.003 1.221h-.003v4.35c0 .041-.027.069-.07.069h-6.72c-.043 0-.07-.028-.07-.07v-.203l-.459.486a.6.6 0 0 0 .528.317h6.721c.329 0 .601-.273.6-.602v-5.57M7.558 7.332c-.19 0-.35.161-.35.351v.575h.53V7.86H9.13v.154l.497-.476a.36.36 0 0 0-.318-.206zm3.334.199h-.528v2.877H6.477v-.265l-.488.518c.073.16.234.275.42.275h4.023c.252 0 .46-.21.46-.462zM9.66 8.606l-.53.002v.615H7.737v-.306l-.528.504c.01.182.167.332.353.33h1.744a.354.354 0 0 0 .354-.35z"/><path fill="#fff" d="m12.033 4.709-.149.045-.073.073.035-.043-7.374 7.133.03.244.346.138 7.451-7.207v-.227l-.077-.077a1 1 0 0 0-.062-.047z"/></svg>