<svg width="64" height="64" version="1.1" viewBox="0 0 16.933 16.933" xmlns="http://www.w3.org/2000/svg">
 <rect x="1.5875" y="1.5875" width="13.758" height="13.758" rx="2.1166" ry="2.1166" fill="#24a575" stroke-linecap="round" stroke-linejoin="round" stroke-width=".26977"/>
 <path d="M8.816 13.455c0-.02.109-.16.241-.308.328-.367.467-.654.49-1.009.023-.345-.068-.543-.312-.682-.142-.08-.257-.095-.935-.117-1.13-.036-1.556-.174-1.99-.643-.392-.423-.534-.91-.498-1.703C5.87 7.7 6.56 6.55 8.094 5.189c.277-.246.504-.465.504-.486 0-.023-.512-.04-1.18-.04h-1.18V3.44h4.72v1.114l-.483.32c-1.418.941-2.376 2.055-2.708 3.148-.13.425-.113 1.154.033 1.432.103.198.362.384.54.456.064.026.46.112.895.128.744.027.805.036 1.036.149.654.32.996 1.136.8 1.908-.093.37-.316.833-.551 1.147l-.188.251h-.758c-.417 0-.758-.017-.758-.038" fill="#f0f0f0"/>
</svg>
