<svg width="64" height="64" version="1.1" viewBox="0 0 16.933 16.933" xmlns="http://www.w3.org/2000/svg" xmlns:xlink="http://www.w3.org/1999/xlink">
 <defs>
  <linearGradient id="b" x1="46.168" x2="46.168" y1="57" y2="27.346" gradientTransform="matrix(.26458 0 0 .26458 0 280.07)" gradientUnits="userSpaceOnUse">
   <stop offset="0"/>
   <stop stop-opacity="0" offset="1"/>
  </linearGradient>
 </defs>
 <g transform="matrix(1.04 0 0 1.04 -.339 -291.61)" stroke-width=".962" paint-order="markers stroke fill">
  <rect x="1.852" y="281.92" width="13.229" height="13.229" rx=".763" ry=".763" fill="#2196f3"/>
  <path d="M15.081 287.302a11.906 11.906 0 0 1-5.732 7.846h4.938c.44 0 .794-.354.794-.794z" fill="url(#b)" opacity=".25"/>
 </g>
 <g transform="matrix(.79373 0 0 .79373 2.1166 -820.48)" fill="#fff" fill-opacity=".9">
  <path transform="translate(0 1036.4)" d="m3 3v4h1v-3h3v-1zm6 0v1h3v3h1v-4zm-6 6v4h4v-1h-3v-3zm9 0v3h-3v1h4v-4z" color="#000000"/>
  <path transform="translate(0 1036.4)" d="m5 5v6h6v-6zm1 1h4v4h-4z"/>
 </g>
</svg>
