<svg xmlns="http://www.w3.org/2000/svg" width="64" height="64"><path fill="#423c50" d="M57.236 46.57C56.216 48.336 34.04 61.139 32 61.14c-2.04-.001-24.215-12.804-25.236-14.57-1.02-1.767-1.02-27.374 0-29.14C7.784 15.664 29.96 2.861 32 2.86c2.04.001 24.215 12.804 25.236 14.57 1.02 1.767 1.02 27.374 0 29.14z" color="#000" display="block" overflow="visible" paint-order="fill markers stroke" style="isolation:auto;mix-blend-mode:normal;marker:none"/><path fill="#fff" d="M51.412 43.208c-.784 1.358-17.842 11.207-19.411 11.207-1.57 0-18.629-9.849-19.413-11.208-.783-1.357-.784-21.056 0-22.415C13.372 19.434 30.431 9.586 32 9.585c1.57 0 18.628 9.85 19.412 11.208.784 1.358.784 21.056 0 22.415z" color="#000" display="block" opacity=".15" overflow="visible" paint-order="fill markers stroke" style="isolation:auto;mix-blend-mode:normal;marker:none"/><path fill="#f55" d="M20.95 46h22.1v-5.8H30.1l12.55-18.25V18h-20.3v5.8h11.1l-12.5 18.25z" aria-label="z" font-family="sans-serif" font-size="50" font-weight="700" letter-spacing="0" word-spacing="0"/></svg>