<svg xmlns="http://www.w3.org/2000/svg" width="64" height="64" viewBox="0 0 16.933 16.933"><rect width="13.758" height="13.758" x="1.587" y="1.587" rx="2.117" ry="2.117" style="fill:#7b71ff;fill-opacity:1;stroke-width:1.25073;stroke-linecap:round;stroke-linejoin:round;paint-order:stroke fill markers"/><path fill="#fff" d="m8.031 7.924-2.56 2.287c-.265.208-.438.55-.438.936 0 .63.462 1.145 1.026 1.145h4.814c.565 0 1.027-.515 1.027-1.145s-.463-1.143-1.027-1.143H7.23c-.055 0-.09-.064-.063-.117l.94-1.881c.035-.055-.027-.12-.075-.08m2.841-3.285H6.06c-.564 0-1.026.515-1.026 1.145S5.496 6.93 6.06 6.93h3.644c.053 0 .087.065.061.118l-.94 1.88c-.033.056.029.121.076.08l2.561-2.287c.264-.208.437-.55.437-.936 0-.63-.462-1.144-1.026-1.144"/></svg>