<svg xmlns="http://www.w3.org/2000/svg" xmlns:xlink="http://www.w3.org/1999/xlink" width="64" height="64" version="1"><defs><linearGradient id="a"><stop offset="0"/><stop offset="1" stop-opacity="0"/></linearGradient><linearGradient xlink:href="#a" id="b" x1="35.814" y1="32" x2="60" y2="32" gradientUnits="userSpaceOnUse"/></defs><path d="M14.667 14.001c-1.478 0-2.667 1.235-2.667 2.769v30.46c0 1.534 1.189 2.77 2.667 2.77H20v-6h12v6h25.334C58.81 50 60 48.764 60 47.23V16.77c0-1.535-1.19-2.77-2.666-2.77z" fill="#419d45"/><rect width="12" height="12" x="30" y="24" rx="2.4" ry="2.4" fill="#4e4e4e"/><path d="M6.023 10.024h3.982v41.981" fill="none" stroke="#b7b7b7" stroke-width="4" stroke-linecap="round" stroke-linejoin="round"/><g fill="#f8c44e"><path d="M34 44h4v8h-4zM40 44h4v8h-4zM46 44h4v8h-4zM52 44h4v8h-4z"/></g><g fill="#fff"><path d="M32 21h2v4h-2zM38 21h2v4h-2zM32 35h2v4h-2zM38 35h2v4h-2zM45 26v2h-4v-2zM45 32v2h-4v-2zM31 26v2h-4v-2zM31 32v2h-4v-2z"/></g><path d="M51.332 14a37.201 37.201 0 0 1 .443 5.512A37.201 37.201 0 0 1 35.815 50h21.519C58.81 50 60 48.764 60 47.23V16.77c0-1.535-1.19-2.77-2.666-2.77h-6.002z" fill="url(#b)" opacity=".25"/></svg>