<svg width="64" height="64" version="1.1" viewBox="0 0 16.933 16.933" xmlns="http://www.w3.org/2000/svg">
 <defs>
  <clipPath id="a">
   <circle cx="8.467" cy="288.53" r="6.879" fill="#d86eb0" stroke-opacity=".039" stroke-width=".491" style="paint-order:stroke markers fill"/>
  </clipPath>
 </defs>
 <circle cx="8.4665" cy="8.4665" r="7.1436" fill="#d86eb0" style="paint-order:stroke markers fill"/>
 <rect x="6.879" y="5.291" width="3.175" height="5.292" rx="1.587" ry="1.587" fill="#fff" style="paint-order:stroke markers fill"/>
 <path d="m6.218 8.863a0.132 0.132 0 0 0-0.133 0.133 0.132 0.132 0 0 0 2e-3 0.016 2.381 2.381 0 0 0 2.38 2.365 2.381 2.381 0 0 0 2.38-2.368 0.132 0.132 0 0 0 0-0.01 2.381 2.381 0 0 0 0-3e-3 0.132 0.132 0 0 1 0-1e-3 0.132 0.132 0 0 0-0.132-0.132 0.132 0.132 0 0 0-0.132 0.132 2.116 2.116 0 0 1-2.116 2.117 2.116 2.116 0 0 1-2.116-2.117h-2e-3a0.132 0.132 0 0 0-0.131-0.132z" fill="#fff" style="paint-order:stroke markers fill"/>
 <rect x="1.588" y="7.2369" width="13.758" height="4.7618" fill="none"/>
 <g transform="matrix(1.0385 0 0 1.0385 -.32619 -291.29)" clip-path="url(#a)" fill="none" stroke="#fff" stroke-opacity=".937" stroke-width=".127">
  <path d="m1.4854 287.74c0.719 0.15538 1.3906 0.6252 1.9826 1.9807 0.674 1.544 1.623 2.229 2.772 2.283 1.48 0.07 2.673-1.226 3.459-2.385 1.602-2.362 4.5188-2.1357 5.8165-1.2509" opacity=".35"/>
  <path d="m1.4927 288.13c0.89388-0.34988 2.0828-0.42377 2.8723 0.82673 0.722 1.143 1.576 2.867 4.049 2.709 1.478-0.095 2.956-0.71 3.718-2.15 0.52913-0.93299 1.2601-1.8714 2.2929-2.1036 0.38219-0.0816 0.65524-0.0703 0.97604 0.0566" opacity=".35"/>
  <path d="m1.7748 290.25c0.94712-0.44412 2.7457-0.95337 4.1972-0.52987 1.297 0.379 2.937 1.847 6.056 1.504 0.824-0.09 1.522-0.563 2.183-1.464 0.4785-0.6525 0.75018-1.0197 1.3056-1.1669" opacity=".35"/>
 </g>
</svg>
