<?xml version="1.0" encoding="UTF-8" standalone="no"?>
<svg
   xmlns:dc="http://purl.org/dc/elements/1.1/"
   xmlns:cc="http://creativecommons.org/ns#"
   xmlns:rdf="http://www.w3.org/1999/02/22-rdf-syntax-ns#"
   xmlns:svg="http://www.w3.org/2000/svg"
   xmlns="http://www.w3.org/2000/svg"
   xmlns:xlink="http://www.w3.org/1999/xlink"
   xmlns:sodipodi="http://sodipodi.sourceforge.net/DTD/sodipodi-0.dtd"
   xmlns:inkscape="http://www.inkscape.org/namespaces/inkscape"
   width="64"
   height="64"
   version="1"
   id="svg20"
   sodipodi:docname="audio-speakers.svg"
   inkscape:version="0.92.2 2405546, 2018-03-11">
  <metadata
     id="metadata26">
    <rdf:RDF>
      <cc:Work
         rdf:about="">
        <dc:format>image/svg+xml</dc:format>
        <dc:type
           rdf:resource="http://purl.org/dc/dcmitype/StillImage" />
      </cc:Work>
    </rdf:RDF>
  </metadata>
  <defs
     id="defs24">
    <linearGradient
       inkscape:collect="always"
       id="linearGradient910">
      <stop
         style="stop-color:#000000;stop-opacity:1;"
         offset="0"
         id="stop906" />
      <stop
         style="stop-color:#000000;stop-opacity:0;"
         offset="1"
         id="stop908" />
    </linearGradient>
    <linearGradient
       inkscape:collect="always"
       xlink:href="#linearGradient910"
       id="linearGradient912"
       x1="26.099609"
       y1="34.496094"
       x2="58"
       y2="34.496094"
       gradientUnits="userSpaceOnUse" />
  </defs>
  <sodipodi:namedview
     pagecolor="#ffffff"
     bordercolor="#666666"
     borderopacity="1"
     objecttolerance="10"
     gridtolerance="10"
     guidetolerance="10"
     inkscape:pageopacity="0"
     inkscape:pageshadow="2"
     inkscape:window-width="1920"
     inkscape:window-height="1022"
     id="namedview22"
     showgrid="false"
     inkscape:zoom="10.429825"
     inkscape:cx="40.068976"
     inkscape:cy="18.642816"
     inkscape:window-x="0"
     inkscape:window-y="28"
     inkscape:window-maximized="1"
     inkscape:current-layer="svg20" />
  <circle
     style="opacity:1;fill:#ebeeef;fill-opacity:1;stroke:none;stroke-width:0.94545454;stroke-linecap:round;stroke-linejoin:round;stroke-miterlimit:4;stroke-dasharray:none;stroke-opacity:0.03921569;paint-order:markers stroke fill"
     id="path833"
     cx="31.999998"
     cy="31.999956"
     r="26" />
  <g
     id="g839"
     transform="matrix(3.7795276,0,0,3.7795276,1e-7,-1052.5197)">
    <path
       id="path33"
       style="fill:#334d5c;stroke-width:0.84630466"
       d="m 12.699998,288.53334 a 4.2333332,4.2297137 0 1 1 -8.4666631,0 4.2333332,4.2297137 0 1 1 8.4666631,0 z"
       inkscape:connector-curvature="0" />
    <path
       id="path35"
       style="fill:#efc84a;stroke-width:0.79357791"
       d="m 11.641666,288.53323 a 3.1749999,3.1736252 0 1 1 -6.349999,0 3.1749998,3.1736251 0 1 1 6.349999,0 z"
       inkscape:connector-curvature="0" />
    <path
       id="path37"
       style="fill:#334d5c;stroke-width:0.79340512"
       d="m 10.054166,288.53334 a 1.5875,1.586121 0 1 1 -3.1749989,0 1.5875,1.586121 0 1 1 3.1749989,0 z"
       inkscape:connector-curvature="0" />
    <path
       id="path39"
       style="fill:#f0f0f0;stroke-width:0.79374939"
       d="m 9.2604165,288.53334 a 0.79375,0.79374997 0 1 1 -1.5875,0 0.79375,0.79374997 0 1 1 1.5875,0 z"
       inkscape:connector-curvature="0" />
  </g>
  <path
     inkscape:connector-curvature="0"
     d="m 37.999998,14.000013 a 6.0000001,5.9978711 0 1 1 -11.999996,0 6.0000001,5.9978711 0 1 1 11.999996,0 z"
     style="fill:#ffffff;stroke-width:1.99964488"
     id="path41" />
  <path
     inkscape:connector-curvature="0"
     d="m 36.000001,14.000013 a 3.9999999,3.9969903 0 1 1 -7.999998,0 3.9999999,3.9969903 0 1 1 7.999998,0 z"
     style="fill:#334d5c;stroke-width:1.99924731"
     id="path43" />
  <path
     inkscape:connector-curvature="0"
     d="m 33.999999,14.001185 a 2,1.9984459 0 1 1 -3.999998,0 2,1.9984459 0 1 1 3.999998,0 z"
     style="fill:#efc84a;stroke-width:1.99922132"
     id="path45" />
  <path
     id="path841"
     style="fill:#334d5c;fill-opacity:1;stroke-width:0.99961042"
     d="M 22,15 A 0.99999981,0.99922274 0 1 1 20.000001,15 0.99999981,0.99922274 0 1 1 22,15 Z"
     inkscape:connector-curvature="0" />
  <path
     inkscape:connector-curvature="0"
     d="m 44.000002,15 a 1.0000006,0.99922357 0 1 1 -2.000001,0 1.0000006,0.99922357 0 1 1 2.000001,0 z"
     style="fill:#334d5c;fill-opacity:1;stroke-width:0.99961042"
     id="path843" />
  <path
     id="path845"
     style="fill:#334d5c;fill-opacity:1;stroke-width:0.99961042"
     d="m 54.000001,39.000794 a 1.0000006,0.99922357 0 1 1 -2.000001,0 1.0000006,0.99922357 0 1 1 2.000001,0 z"
     inkscape:connector-curvature="0" />
  <path
     inkscape:connector-curvature="0"
     d="m 13.000001,39.000794 a 1.0000006,0.99922372 0 1 1 -2.000001,0 1.0000007,0.99922362 0 1 1 2.000001,0 z"
     style="fill:#334d5c;fill-opacity:1;stroke-width:0.99961042"
     id="path847" />
  <path
     inkscape:connector-curvature="0"
     style="opacity:0.25;fill:#334d5c;stroke-width:3.19863176"
     d="M 13.628906,13.623038 A 26,26 0 0 0 6.0000001,31.999991 26,26 0 0 0 6.4257813,36.632803 16,15.98632 0 0 0 16,21.999991 16,15.98632 0 0 0 13.628906,13.623038 Z"
     id="path849" />
  <path
     inkscape:connector-curvature="0"
     style="opacity:0.25;fill:#334d5c;stroke-width:3.19863176"
     d="M 50.380859,13.632803 A 16,15.98632 0 0 0 48,21.999991 16,15.98632 0 0 0 57.5625,36.638663 26,26 0 0 0 58,31.999991 26,26 0 0 0 50.380859,13.632803 Z"
     id="path863" />
  <path
     style="opacity:0.25;fill:url(#linearGradient912);fill-opacity:1;stroke:none;stroke-width:0.94545454;stroke-linecap:round;stroke-linejoin:round;stroke-miterlimit:4;stroke-dasharray:none;stroke-opacity:0.03921569;paint-order:markers stroke fill"
     d="M 47.275391 10.992188 A 31.656855 31.656855 0 0 1 51.289062 26.34375 A 31.656855 31.656855 0 0 1 26.099609 57.294922 A 26 26 0 0 0 32 58 A 26 26 0 0 0 58 32 A 26 26 0 0 0 47.275391 10.992188 z "
     id="circle901" />
</svg>
