<svg
   width="64"
   height="64">
  <circle
     cx="32"
     cy="32"
     r="26"
     fill="#ebeeef"
     paint-order="markers stroke fill"
     id="circle10" />
  <path
     d="M48 38a16 15.986 0 1 1-32 0 16 15.986 0 1 1 32 0z"
     fill="#334d5c"
     id="path12" />
  <path
     d="M44 38a12 11.995 0 1 1-24 0 12 11.995 0 1 1 24 0z"
     fill="#efc84a"
     id="path14" />
  <path
     d="M38 38a6 5.995 0 1 1-12 0 6 5.995 0 1 1 12 0z"
     fill="#334d5c"
     id="path16" />
  <path
     d="M35 38a3 3 NaN 1 1-6 0 3 3 NaN 1 1 6 0z"
     fill="#f0f0f0"
     id="path18" />
  <path
     d="M38 14a6 5.998 0 1 1-12 0 6 5.998 0 1 1 12 0z"
     fill="#fff"
     id="path20" />
  <path
     d="M36 14a4 3.997 0 1 1-8 0 4 3.997 0 1 1 8 0z"
     fill="#334d5c"
     id="path22" />
  <path
     d="M34 14.001a2 1.998 0 1 1-4 0 2 1.998 0 1 1 4 0z"
     fill="#efc84a"
     id="path24" />
  <path
     d="M22 15a1 1 0 1 1-2 0 1 1 0 1 1 2 0zM44 15a1 1 0 1 1-2 0 1 1 0 1 1 2 0zM54 39a1 1 0 1 1-2 0 1 1 0 1 1 2 0zM13 39a1 1 0 1 1-2 0 1 1 0 1 1 2 0z"
     fill="#334d5c"
     id="path26" />
  <path
     d="M13.629 13.623A26 26 0 0 0 6 32a26 26 0 0 0 .426 4.633A16 15.986 0 0 0 16 22a16 15.986 0 0 0-2.371-8.377zM50.38 13.633A16 15.986 0 0 0 48 22a16 15.986 0 0 0 9.563 14.639A26 26 0 0 0 58 32a26 26 0 0 0-7.62-18.367z"
     opacity=".25"
     fill="#334d5c"
     id="path28" />
</svg>
