<svg xmlns="http://www.w3.org/2000/svg" xmlns:xlink="http://www.w3.org/1999/xlink" width="64" height="64" version="1"><defs><linearGradient id="a"><stop offset="0"/><stop offset="1" stop-opacity="0"/></linearGradient><linearGradient xlink:href="#a" id="b" x1="36.006" y1="32.065" x2="58" y2="32.065" gradientUnits="userSpaceOnUse"/></defs><rect width="8" height="8" x="10" y="10" rx="2" ry="2" fill="#4f4f4f"/><rect width="52" height="40" x="6" y="12" rx="2.5" ry="2.5" fill="#4f4f4f"/><circle cx="52" cy="18" r="2" fill="#333"/><circle cx="32" cy="32" r="16" fill="#fff"/><circle cx="32" cy="-32" r="12" transform="scale(1 -1)" fill="#009587"/><circle cx="32" cy="32" r="8" fill="#66bfb7"/><circle r="1.119" cy="18" cx="52" fill="#fff"/><path d="M56.264 12.13a45 45 0 0 1 .078 2.253A45 45 0 0 1 36.006 52H55.5c1.385 0 2.5-1.115 2.5-2.5v-35c0-1.117-.73-2.046-1.736-2.37z" fill="url(#b)" opacity=".25"/></svg>