<svg xmlns="http://www.w3.org/2000/svg" xmlns:xlink="http://www.w3.org/1999/xlink" width="64" height="64" version="1"><defs><linearGradient id="a"><stop offset="0"/><stop offset="1" stop-opacity="0"/></linearGradient><linearGradient xlink:href="#a" id="b" x1="28.41" y1="32.275" x2="58" y2="32.275" gradientUnits="userSpaceOnUse"/></defs><rect width="45" height="56" x="13" y="4" rx="8.438" ry="8.4" fill="#4f4f4f"/><circle cx="-11.5" cy="-50.5" r="2.5" transform="matrix(0 -1 -1 0 0 0)" fill="#fff"/><circle cx="-30.5" cy="-35.5" r="11.5" transform="matrix(0 -1 -1 0 0 0)" fill="#fff"/><circle cx="-30.5" cy="35.5" r="8.5" transform="rotate(-90)" fill="#007095"/><circle cx="-30.5" cy="-35.5" r="4.5" transform="matrix(0 -1 -1 0 0 0)" fill="#49acdc"/><rect width="6" height="36" x="7" y="14" rx="1.5" ry="1.385" fill="#3f3f3f"/><circle cx="18.5" cy="50.5" r="1.5" opacity=".5"/><circle cx="24.5" cy="50.5" r="1.5" opacity=".5"/><circle cx="30.5" cy="50.5" r="1.5" opacity=".5"/><circle cx="36.5" cy="50.5" r="1.5" opacity=".5"/><circle cx="21.5" cy="54.5" r="1.5" opacity=".5"/><circle cx="27.5" cy="54.5" r="1.5" opacity=".5"/><circle cx="33.5" cy="54.5" r="1.5" opacity=".5"/><circle transform="matrix(0 -1 -1 0 0 0)" r="1.5" cy="-50.5" cx="-11.5" fill="#ff4d4d"/><path d="M52.559 4.55A45 45 0 0 1 55 19a45 45 0 0 1-26.59 41h21.152C54.237 60 58 56.253 58 51.6V12.4c0-3.6-2.257-6.65-5.441-7.85z" fill="url(#b)" opacity=".25"/></svg>