<svg width="64" height="64" version="1.1" xmlns="http://www.w3.org/2000/svg">
 <defs>
  <linearGradient id="a" x1="39.154" x2="59" y1="26" y2="26" gradientUnits="userSpaceOnUse">
   <stop offset="0"/>
   <stop stop-opacity="0" offset="1"/>
  </linearGradient>
 </defs>
 <g transform="translate(270.4 69.763)">
  <path d="M-244.5-25.929c-.52 0-.9.378-.9.834v10.955l-4.078.377h-.022c-.52 0-.9.378-.9.834v1.166h24v-1.166c0-.456-.381-.834-.9-.834h-.024l-4.076-.377v-10.955c0-.456-.38-.834-.9-.834z" fill="#c4c7cc"/>
  <rect x="-268.4" y="-63.763" width="60" height="40" rx="2" ry="2" fill="#2f3337"/>
  <path d="m-265.4-60.763h54v34h-54z" fill="#5294e2" fill-rule="evenodd"/>
  <path transform="translate(-270.4,-69.763)" d="m55.117 9a46.405 46.405 0 0 1-15.963 34h19.846v-34h-3.8828z" fill="url(#a)" opacity=".15"/>
 </g>
</svg>
