<svg width="64" height="64" version="1" xmlns="http://www.w3.org/2000/svg" xmlns:xlink="http://www.w3.org/1999/xlink">
 <g fill="#8e8e8e">
  <path d="M58 40v2H6v-2zM58 46v2H6v-2zM58 52v2H6v-2zM58 22v2H6v-2zM58 28v2H6v-2zM58 34v2H6v-2zM58 16v2H6v-2zM58 10v2H6v-2z"/>
  <path d="M24 58h-2V6h2zM18 58h-2V6h2zM12 58h-2V6h2zM42 58h-2V6h2zM36 58h-2V6h2zM30 58h-2V6h2zM48 58h-2V6h2zM54 58h-2V6h2z"/>
 </g>
 <rect transform="matrix(0 -1 -1 0 0 0)" x="-56" y="-56" width="48" height="48" rx="2.5" ry="2.5" fill="#4d4d4d"/>
 <g fill="#0ff">
  <path d="m14 23h12v2h-12zm14 0h6v2h-6zm8 0h14v2h-14zm-22 8h16v2h-16zm18 0h16v2h-16zm-18 8h6v2h-6zm8 0h6v2h-6zm8 0h12v2h-12z" opacity=".5"/>
 </g>
</svg>
