<svg xmlns="http://www.w3.org/2000/svg" xmlns:xlink="http://www.w3.org/1999/xlink" width="64" height="64" version="1"><defs><linearGradient id="a"><stop offset="0"/><stop offset="1" stop-opacity="0"/></linearGradient><linearGradient xlink:href="#a" id="b" x1="30.227" y1="44.169" x2="58" y2="44.169" gradientUnits="userSpaceOnUse"/></defs><rect width="52" height="52" x="-58" y="-58" rx="2.321" ry="2.321" transform="matrix(0 -1 -1 0 0 0)" fill="#666"/><path d="M32 14a18 18 0 0 0-18 18 18 18 0 0 0 18 18 18 18 0 0 0 18-18 18 18 0 0 0-18-18zm0 10.8a7.2 7.2 0 0 1 7.2 7.2 7.2 7.2 0 0 1-7.2 7.2 7.2 7.2 0 0 1-7.2-7.2 7.2 7.2 0 0 1 7.2-7.2z" fill="#4d4d4d"/><circle cx="32" cy="32" r="13" fill="#fff" paint-order="markers stroke fill"/><circle r="8" cy="32" cx="32" fill="#ed5f6c" paint-order="markers stroke fill"/><path d="M58 30.338A42.5 42.5 0 0 1 30.227 58h25.45A2.318 2.318 0 0 0 58 55.678v-25.34z" fill="url(#b)" opacity=".25"/></svg>