<svg width="64" height="64" version="1" xmlns="http://www.w3.org/2000/svg" xmlns:xlink="http://www.w3.org/1999/xlink">
 <rect transform="matrix(0 -1 -1 0 0 0)" x="-58" y="-53" width="52" height="42" rx="3" ry="3" fill="#666"/>
 <circle cx="32" cy="31" r="16" fill="#fff" paint-order="markers stroke fill"/>
 <circle cx="32" cy="31" r="14" fill="#7eba72" paint-order="markers stroke fill"/>
 <path d="M32 22.429a8 8 0 0 0-8 8v8h8a8 8 0 1 0 0-16zM32 27a3.429 3.429 0 0 1 3.429 3.429A3.429 3.429 0 0 1 32 33.857a3.429 3.429 0 0 1-3.429-3.428A3.429 3.429 0 0 1 32 27z" fill="#fff"/>
</svg>
