<svg xmlns="http://www.w3.org/2000/svg" xmlns:xlink="http://www.w3.org/1999/xlink" width="64" height="64" version="1"><defs><linearGradient id="a"><stop offset="0"/><stop offset="1" stop-opacity="0"/></linearGradient><linearGradient xlink:href="#a" id="b" x1="30.656" y1="48.703" x2="53" y2="48.703" gradientUnits="userSpaceOnUse"/></defs><rect width="52" height="42" x="-58" y="-53" rx="3" ry="3" transform="matrix(0 -1 -1 0 0 0)" fill="#666"/><circle cx="32" cy="31" r="16" fill="#fff" paint-order="markers stroke fill"/><circle r="14" cy="31" cx="32" fill="#7eba72" paint-order="markers stroke fill"/><path d="M53 39.406A37.5 37.5 0 0 1 30.656 58H50c1.662 0 3-1.338 3-3V39.406z" fill="url(#b)" opacity=".25"/><path d="M32 22.429a8 8 0 0 0-8 8v8h8a8 8 0 1 0 0-16zM32 27a3.429 3.429 0 0 1 3.429 3.429A3.429 3.429 0 0 1 32 33.857a3.429 3.429 0 0 1-3.429-3.428A3.429 3.429 0 0 1 32 27z" fill="#fff"/></svg>