<svg width="64" height="64" version="1" xmlns="http://www.w3.org/2000/svg" xmlns:xlink="http://www.w3.org/1999/xlink">
 <rect transform="matrix(0 -1 -1 0 0 0)" x="-58" y="-58" width="52" height="52" rx="2.321" ry="2.321" fill="#666"/>
 <path d="m32 14a18 18 0 0 0-18 18 18 18 0 0 0 18 18 18 18 0 0 0 18-18 18 18 0 0 0-18-18zm0 10.8a7.2 7.2 0 0 1 7.2 7.2 7.2 7.2 0 0 1-7.2 7.2 7.2 7.2 0 0 1-7.2-7.2 7.2 7.2 0 0 1 7.2-7.2z" fill="#4d4d4d"/>
 <circle cx="32" cy="32" r="13" fill="#fff" paint-order="markers stroke fill"/>
 <circle cx="32" cy="32" r="8" fill="#ed5f6c" paint-order="markers stroke fill"/>
</svg>
