<svg width="64" height="64" version="1" xmlns="http://www.w3.org/2000/svg" xmlns:xlink="http://www.w3.org/1999/xlink">
 <rect transform="matrix(0 -1 -1 0 0 0)" x="-58" y="-53" width="52" height="42" rx="3" ry="3" fill="#666"/>
 <circle cx="32" cy="31" r="16" fill="#fff" paint-order="markers stroke fill"/>
 <circle cx="32" cy="31" r="14" fill="#537bbc" paint-order="markers stroke fill"/>
 <g fill="#fff">
  <path d="m29.309 37.485h5.387v2.02h-5.387zm0 3.367h5.387v2.02h-5.387zm2.693-14.142a4.714 4.714 0 0 0-4.714 4.714 4.714 4.714 0 0 0 4.714 4.714 4.714 4.714 0 0 0 4.714-4.714 4.714 4.714 0 0 0-4.714-4.714zm0 2.02a2.694 2.694 0 0 1 2.694 2.694 2.694 2.694 0 0 1-2.694 2.694 2.694 2.694 0 0 1-2.693-2.694 2.694 2.694 0 0 1 2.693-2.694zm6.188 0.27-3.809-3.81 3.81-3.809 3.809 3.81zm-8.571-3.81-3.81 3.81-1.428-1.429 3.81-3.81zm-2.381-2.38-3.81 3.809-1.428-1.429 3.81-3.809z"/>
 </g>
</svg>
