<?xml version="1.0" encoding="UTF-8"?>
<svg width="64" height="64" version="1.1" xmlns="http://www.w3.org/2000/svg">
 <rect x="4" y="30" width="32" height="32" rx="5" ry="5" fill="#cdd5d6" stroke-linecap="round" stroke-linejoin="round" stroke-width="2.1333"/>
 <g transform="translate(-24,8)">
  <path d="m56 38a12 11.99 0 1 1-24 0 12 11.99 0 1 1 24 0z" fill="#334d5c" stroke-width=".75"/>
  <path d="m54 38a10 9.9958 0 1 1-20 0 10 9.9958 0 1 1 20 0z" fill="#efc84a" stroke-width=".83333"/>
  <path d="m50 38a6 5.995 0 1 1-12 0 6 5.995 0 1 1 12 0z" fill="#334d5c"/>
  <path d="m47 38" fill="#f0f0f0"/>
  <path d="m56 38a12 11.99 0 1 1-24 0 12 11.99 0 1 1 24 0z" fill="#334d5c" stroke-width=".75"/>
  <path d="m54 38a10 9.9958 0 1 1-20 0 10 9.9958 0 1 1 20 0z" fill="#efc84a" stroke-width=".83333"/>
  <path d="m50 38a6 5.995 0 1 1-12 0 6 5.995 0 1 1 12 0z" fill="#334d5c"/>
  <path d="m47 38" fill="#f0f0f0"/>
 </g>
 <rect x="28" y="2" width="32" height="60" rx="5" ry="5" fill="#ebeeef" stroke-linecap="round" stroke-linejoin="round" stroke-width="1.8096"/>
 <path d="m50 14a6 5.998 0 1 1-12 0 6 5.998 0 1 1 12 0z" fill="#fff"/>
 <path d="m48 14a4 3.997 0 1 1-8 0 4 3.997 0 1 1 8 0z" fill="#334d5c"/>
 <path d="m46 14.001a2 1.998 0 1 1-4 0 2 1.998 0 1 1 4 0z" fill="#efc84a"/>
 <g transform="translate(0,2)">
  <path d="m56 38a12 11.99 0 1 1-24 0 12 11.99 0 1 1 24 0z" fill="#334d5c" stroke-width=".75"/>
  <path d="m54 38a10 9.9958 0 1 1-20 0 10 9.9958 0 1 1 20 0z" fill="#efc84a" stroke-width=".83333"/>
  <path d="m50 38a6 5.995 0 1 1-12 0 6 5.995 0 1 1 12 0z" fill="#334d5c"/>
  <path d="m47 38" fill="#f0f0f0"/>
  <path d="m56 38a12 11.99 0 1 1-24 0 12 11.99 0 1 1 24 0z" fill="#334d5c" stroke-width=".75"/>
  <path d="m54 38a10 9.9958 0 1 1-20 0 10 9.9958 0 1 1 20 0z" fill="#efc84a" stroke-width=".83333"/>
  <path d="m50 38a6 5.995 0 1 1-12 0 6 5.995 0 1 1 12 0z" fill="#334d5c"/>
  <path d="m47 38" fill="#f0f0f0"/>
 </g>
 <g fill="#cdd5d6" stroke-linecap="round" stroke-linejoin="round" stroke-width="2">
  <circle cx="33" cy="8" r="1"/>
  <circle cx="54" cy="8" r="1"/>
  <circle cx="33" cy="56" r="1"/>
  <circle cx="54" cy="56" r="1"/>
 </g>
 <circle cx="9" cy="36" r="1" opacity=".15" stroke-linecap="round" stroke-linejoin="round" stroke-width="2"/>
 <circle cx="9" cy="56" r="1" opacity=".15" stroke-linecap="round" stroke-linejoin="round" stroke-width="2"/>
</svg>
