<svg xmlns="http://www.w3.org/2000/svg" xmlns:xlink="http://www.w3.org/1999/xlink" width="64" height="64" version="1"><defs><linearGradient id="a"><stop offset="0"/><stop offset="1" stop-opacity="0"/></linearGradient><linearGradient xlink:href="#a" id="b" x1="18.662" y1="32" x2="58" y2="32" gradientUnits="userSpaceOnUse"/></defs><rect width="52" height="32" x="6" y="16" ry="2" fill="#4d4d4d" paint-order="markers stroke fill"/><rect width="6" height="5" x="11" y="20" ry="1" fill="#fff" paint-order="markers stroke fill"/><rect ry="1" y="20" x="20" height="5" width="6" fill="#fff" paint-order="markers stroke fill"/><rect width="6" height="5" x="29" y="20" ry="1" fill="#fff" paint-order="markers stroke fill"/><rect ry="1" y="20" x="39" height="5" width="6" fill="#fff" paint-order="markers stroke fill"/><rect width="6" height="5" x="48" y="20" ry="1" fill="#fff" paint-order="markers stroke fill"/><rect ry="1" y="29" x="11" height="5" width="6" fill="#fff" paint-order="markers stroke fill"/><rect width="6" height="5" x="20" y="29" ry="1" fill="#fff" paint-order="markers stroke fill"/><rect ry="1" y="29" x="29" height="5" width="6" fill="#fff" paint-order="markers stroke fill"/><rect width="6" height="5" x="39" y="29" ry="1" fill="#fff" paint-order="markers stroke fill"/><rect ry="1" y="29" x="48" height="5" width="6" fill="#fff" paint-order="markers stroke fill"/><rect width="24" height="5" x="20" y="37.975" ry="1.025" fill="#fff" paint-order="markers stroke fill"/><path d="M49.346 16a40 40 0 0 1-30.684 32H56c1.108 0 2-.892 2-2V18c0-1.108-.892-2-2-2z" opacity=".25" fill="url(#b)" paint-order="markers stroke fill"/></svg>