<svg xmlns="http://www.w3.org/2000/svg" xmlns:xlink="http://www.w3.org/1999/xlink" width="64" height="64" version="1"><defs><linearGradient id="a"><stop offset="0"/><stop offset="1" stop-opacity="0"/></linearGradient><linearGradient xlink:href="#a" id="b" x1="21.27" y1="32" x2="53" y2="32" gradientUnits="userSpaceOnUse"/></defs><rect width="42" height="52" x="11" y="6" rx="2" ry="2" fill="#4f4f4f"/><rect width="8" height="8" x="39" y="44" rx="1" ry="1" fill="#ff5a5a"/><rect width="8" height="8" x="17" y="44" rx="1" ry="1" fill="#64c90e"/><g fill="#fff"><rect width="8" height="8" x="28" y="22" rx="1" ry="1"/><rect width="8" height="8" x="39" y="22" rx="1" ry="1"/><rect width="8" height="8" x="17" y="22" rx="1" ry="1"/><rect width="8" height="8" x="28" y="33" rx="1" ry="1"/><rect width="8" height="8" x="39" y="33" rx="1" ry="1"/><rect width="8" height="8" x="17" y="33" rx="1" ry="1"/><rect width="8" height="8" x="28" y="11" rx="1" ry="1"/><rect width="8" height="8" x="39" y="11" rx="1" ry="1"/><rect width="8" height="8" x="17" y="11" rx="1" ry="1"/><rect width="8" height="8" x="28" y="44" rx="1" ry="1"/></g><path d="M44.838 6a57.223 57.223 0 0 1 .328 5.57A57.223 57.223 0 0 1 21.27 58H51c1.108 0 2-.892 2-2V8c0-1.108-.892-2-2-2h-6.162z" fill="url(#b)" opacity=".25"/></svg>