<?xml version="1.0" encoding="UTF-8" standalone="no"?>
<svg
   xmlns:dc="http://purl.org/dc/elements/1.1/"
   xmlns:cc="http://creativecommons.org/ns#"
   xmlns:rdf="http://www.w3.org/1999/02/22-rdf-syntax-ns#"
   xmlns:svg="http://www.w3.org/2000/svg"
   xmlns="http://www.w3.org/2000/svg"
   xmlns:sodipodi="http://sodipodi.sourceforge.net/DTD/sodipodi-0.dtd"
   xmlns:inkscape="http://www.inkscape.org/namespaces/inkscape"
   width="64"
   height="64"
   version="1"
   id="svg16"
   sodipodi:docname="blueman-mouse.svg"
   inkscape:version="0.92.2 2405546, 2018-03-11">
  <metadata
     id="metadata22">
    <rdf:RDF>
      <cc:Work
         rdf:about="">
        <dc:format>image/svg+xml</dc:format>
        <dc:type
           rdf:resource="http://purl.org/dc/dcmitype/StillImage" />
      </cc:Work>
    </rdf:RDF>
  </metadata>
  <defs
     id="defs20" />
  <sodipodi:namedview
     pagecolor="#ffffff"
     bordercolor="#666666"
     borderopacity="1"
     objecttolerance="10"
     gridtolerance="10"
     guidetolerance="10"
     inkscape:pageopacity="0"
     inkscape:pageshadow="2"
     inkscape:window-width="1920"
     inkscape:window-height="1022"
     id="namedview18"
     showgrid="true"
     inkscape:zoom="3.6875"
     inkscape:cx="89.045663"
     inkscape:cy="-1.7399011"
     inkscape:window-x="0"
     inkscape:window-y="28"
     inkscape:window-maximized="1"
     inkscape:current-layer="svg16">
    <inkscape:grid
       type="xygrid"
       id="grid829" />
  </sodipodi:namedview>
  <path
     style="fill:#4f4f4f"
     d="m 32.00001,4.0000313 c -0.024,0 -0.05,0.004 -0.074,0.004 h -0.0082 c -8.971795,0.056 -17.91779,9.3539957 -17.91779,16.3319917 V 43.40601 c 0,9.481995 6.749996,16.593991 17.99999,16.593991 11.249992,0.002 17.999988,-7.107996 17.999988,-16.589991 V 20.972022 c 0,-7.251996 -8.987995,-16.9059907 -17.999988,-16.9639907 z"
     id="path4" />
  <path
     style="opacity:0.1"
     d="m 32.00001,4.0000313 c -0.024,0 -0.04902,0.00274 -0.073,0.00274 h -0.0082 C 22.946889,4.0587713 14,13.357194 14,20.335189 V 32.000016 H 50 V 20.972288 C 50,13.720292 41.012003,4.0662345 32.00001,4.0082343 Z"
     id="path6" />
  <path
     style="opacity:0.1;fill:#000000;fill-opacity:1"
     d="m 32.00001,4.0000313 c -0.024,0 -0.04902,0.00274 -0.073,0.00274 h -0.0082 C 22.946889,4.0587713 14,13.357194 14,20.335189 v 11.664827 h 18.00001 c 0,0 0,-27.9999847 0,-27.9917817 z"
     id="path8" />
  <path
     style="fill:#1dd0d0;fill-opacity:1"
     d="m 32,11.000669 c 1.653001,0 3,1.248085 3,2.78587 v 7.429131 c 0,1.536266 -1.346999,2.78435 -3,2.78435 -1.652999,0 -3,-1.248084 -3,-2.786517 v -7.429132 c 0,-1.536268 1.347001,-2.784351 3,-2.784351"
     id="path12" />
  <circle
     style="opacity:1;fill:#1dd0d0;fill-opacity:1;stroke:none;stroke-width:2;stroke-linecap:round;stroke-linejoin:round;stroke-miterlimit:4;stroke-dasharray:none;stroke-opacity:1;paint-order:markers stroke fill"
     id="path831"
     cx="32"
     cy="55"
     r="1" />
</svg>
