<svg xmlns="http://www.w3.org/2000/svg" xmlns:xlink="http://www.w3.org/1999/xlink" width="64" height="64" version="1"><defs><linearGradient id="a"><stop offset="0"/><stop offset="1" stop-opacity="0"/></linearGradient><linearGradient xlink:href="#a" id="b" x1="29.928" y1="41" x2="60" y2="41" gradientUnits="userSpaceOnUse"/></defs><path fill="#b7b7b7" d="M12 6h40v20H12z"/><rect width="56" height="34" x="4" y="24" rx="2.5" ry="2.5" fill="#3e92ce"/><rect width="32" height="4" x="16" y="32" rx="2" ry="2" opacity=".4"/><rect width="24" height="4" x="20" y="40" rx="2" ry="2" opacity=".4"/><rect width="16" height="4" x="24" y="48" rx="2" ry="2" opacity=".4"/><path opacity=".5" d="M16 14h10v6H16zM38 14h10v6H38z"/><path d="M49.813 24a34.983 34.983 0 0 1 .085 2.441A34.983 34.983 0 0 1 29.928 58H57.5c1.385 0 2.5-1.115 2.5-2.5v-29c0-1.385-1.115-2.5-2.5-2.5h-7.688z" fill="url(#b)" opacity=".25"/></svg>