<?xml version="1.0" encoding="UTF-8" standalone="no"?>
<svg
   xmlns:dc="http://purl.org/dc/elements/1.1/"
   xmlns:cc="http://creativecommons.org/ns#"
   xmlns:rdf="http://www.w3.org/1999/02/22-rdf-syntax-ns#"
   xmlns:svg="http://www.w3.org/2000/svg"
   xmlns="http://www.w3.org/2000/svg"
   xmlns:xlink="http://www.w3.org/1999/xlink"
   xmlns:sodipodi="http://sodipodi.sourceforge.net/DTD/sodipodi-0.dtd"
   xmlns:inkscape="http://www.inkscape.org/namespaces/inkscape"
   width="64"
   height="64"
   version="1"
   id="svg54"
   sodipodi:docname="media-memory.svg"
   inkscape:version="0.92.2 2405546, 2018-03-11">
  <metadata
     id="metadata60">
    <rdf:RDF>
      <cc:Work
         rdf:about="">
        <dc:format>image/svg+xml</dc:format>
        <dc:type
           rdf:resource="http://purl.org/dc/dcmitype/StillImage" />
      </cc:Work>
    </rdf:RDF>
  </metadata>
  <defs
     id="defs58">
    <linearGradient
       inkscape:collect="always"
       id="linearGradient876">
      <stop
         style="stop-color:#000000;stop-opacity:1;"
         offset="0"
         id="stop872" />
      <stop
         style="stop-color:#000000;stop-opacity:0;"
         offset="1"
         id="stop874" />
    </linearGradient>
    <linearGradient
       inkscape:collect="always"
       xlink:href="#linearGradient876"
       id="linearGradient878"
       x1="36.834179"
       y1="56.065601"
       x2="36.576958"
       y2="8.1261578"
       gradientUnits="userSpaceOnUse" />
  </defs>
  <sodipodi:namedview
     pagecolor="#ffffff"
     bordercolor="#666666"
     borderopacity="1"
     objecttolerance="10"
     gridtolerance="10"
     guidetolerance="10"
     inkscape:pageopacity="0"
     inkscape:pageshadow="2"
     inkscape:window-width="1920"
     inkscape:window-height="1022"
     id="namedview56"
     showgrid="false"
     inkscape:zoom="2.6074563"
     inkscape:cx="-72.92561"
     inkscape:cy="11.016648"
     inkscape:window-x="0"
     inkscape:window-y="28"
     inkscape:window-maximized="1"
     inkscape:current-layer="svg54" />
  <g
     style="fill:#8e8e8e"
     id="g30">
    <rect
       style="fill:#8e8e8e"
       width="2"
       height="52"
       x="-24"
       y="-58"
       transform="scale(-1)"
       id="rect2" />
    <rect
       style="fill:#8e8e8e"
       width="2"
       height="52"
       x="-18"
       y="-58"
       transform="scale(-1)"
       id="rect4" />
    <rect
       style="fill:#8e8e8e"
       width="2"
       height="52"
       x="-42"
       y="-58"
       transform="scale(-1)"
       id="rect6" />
    <rect
       style="fill:#8e8e8e"
       width="2"
       height="52"
       x="-36"
       y="-58"
       transform="scale(-1)"
       id="rect8" />
    <rect
       style="fill:#8e8e8e"
       width="2"
       height="52"
       x="-30"
       y="-58"
       transform="scale(-1)"
       id="rect10" />
    <rect
       style="fill:#8e8e8e"
       width="2"
       height="52"
       x="-48"
       y="-58"
       transform="scale(-1)"
       id="rect12" />
    <rect
       style="fill:#8e8e8e"
       width="2"
       height="40"
       x="-24"
       y="12"
       transform="rotate(-90)"
       id="rect14" />
    <rect
       style="fill:#8e8e8e"
       width="2"
       height="40"
       x="-18"
       y="12"
       transform="rotate(-90)"
       id="rect16" />
    <rect
       style="fill:#8e8e8e"
       width="2"
       height="40"
       x="-12"
       y="12"
       transform="rotate(-90)"
       id="rect18" />
    <rect
       style="fill:#8e8e8e"
       width="2"
       height="40"
       x="-42"
       y="12"
       transform="rotate(-90)"
       id="rect20" />
    <rect
       style="fill:#8e8e8e"
       width="2"
       height="40"
       x="-36"
       y="12"
       transform="rotate(-90)"
       id="rect22" />
    <rect
       style="fill:#8e8e8e"
       width="2"
       height="40"
       x="-30"
       y="12"
       transform="rotate(-90)"
       id="rect24" />
    <rect
       style="fill:#8e8e8e"
       width="2"
       height="40"
       x="-48"
       y="12"
       transform="rotate(-90)"
       id="rect26" />
    <rect
       style="fill:#8e8e8e"
       width="2"
       height="40"
       x="-54"
       y="12"
       transform="rotate(-90)"
       id="rect28" />
  </g>
  <rect
     style="fill:#4f4f4f"
     width="48"
     height="36"
     x="-56"
     y="-50"
     rx="2.5"
     ry="2.5"
     transform="matrix(0,-1,-1,0,0,0)"
     id="rect34" />
  <rect
     style="opacity:0.4;fill:#40d85c;fill-opacity:1"
     width="12"
     height="2"
     x="14"
     y="-41"
     transform="rotate(90)"
     id="rect38" />
  <rect
     style="opacity:0.4;fill:#40d85c;fill-opacity:1"
     width="6"
     height="2"
     x="28"
     y="-41"
     transform="rotate(90)"
     id="rect40" />
  <rect
     style="opacity:0.4;fill:#40d85c;fill-opacity:1"
     width="14"
     height="2"
     x="36"
     y="-41"
     transform="rotate(90)"
     id="rect42" />
  <rect
     style="opacity:0.4;fill:#40d85c;fill-opacity:1"
     width="16"
     height="2"
     x="14"
     y="-33"
     transform="rotate(90)"
     id="rect44" />
  <rect
     style="opacity:0.4;fill:#40d85c;fill-opacity:1"
     width="16"
     height="2"
     x="32"
     y="-33"
     transform="rotate(90)"
     id="rect46" />
  <rect
     style="opacity:0.4;fill:#40d85c;fill-opacity:1"
     width="6"
     height="2"
     x="14"
     y="-25"
     transform="rotate(90)"
     id="rect48" />
  <rect
     style="opacity:0.4;fill:#40d85c;fill-opacity:1"
     width="6"
     height="2"
     x="22"
     y="-25"
     transform="rotate(90)"
     id="rect50" />
  <rect
     style="opacity:0.4;fill:#40d85c;fill-opacity:1"
     width="12"
     height="2"
     x="30"
     y="-25"
     transform="rotate(90)"
     id="rect52" />
  <path
     style="fill:url(#linearGradient878);opacity:0.25;fill-opacity:1"
     d="M 43.855469 8 A 38.303013 39.008408 0 0 1 46.691406 22.662109 A 38.303013 39.008408 0 0 1 28.205078 56 L 47.5 56 C 48.885 56 50 54.885 50 53.5 L 50 10.5 C 50 9.115 48.885 8 47.5 8 L 43.855469 8 z "
     id="rect867" />
</svg>
