<svg xmlns="http://www.w3.org/2000/svg" xmlns:xlink="http://www.w3.org/1999/xlink" width="64" height="64" version="1"><defs><linearGradient id="a"><stop offset="0"/><stop offset="1" stop-opacity="0"/></linearGradient><linearGradient xlink:href="#a" id="b" x1="40.619" y1="57.898" x2="40.644" y2="6.237" gradientUnits="userSpaceOnUse"/></defs><rect width="52" height="52" x="-58" y="-58" rx="2.5" ry="2.5" transform="matrix(0 -1 -1 0 0 0)" fill="#4f4f4f"/><rect width="40" height="24" x="12" y="30" rx="2.5" ry="2.5" fill="#fff"/><path d="M12 48v3.5c0 1.384 1.115 2.5 2.5 2.5h35c1.384 0 2.5-1.116 2.5-2.5V48z" fill="#ffae3f"/><path d="M20 6v17.5c0 1.386 1.114 2.5 2.5 2.5h27c1.384 0 2.5-1.114 2.5-2.5V6zm20 4h6c1.108 0 2 .892 2 2v8c0 1.108-.892 2-2 2h-6c-1.108 0-2-.892-2-2v-8c0-1.108.892-2 2-2z" fill="#fff" opacity=".75"/><path d="M47.896 6a37.56 37.56 0 0 1 4.172 17.186A37.56 37.56 0 0 1 28.551 58H55.5c1.385 0 2.5-1.115 2.5-2.5v-47C58 7.115 56.885 6 55.5 6h-7.604z" fill="url(#b)" opacity=".25"/></svg>