<?xml version="1.0" encoding="UTF-8" standalone="no"?>
<svg
   xmlns:dc="http://purl.org/dc/elements/1.1/"
   xmlns:cc="http://creativecommons.org/ns#"
   xmlns:rdf="http://www.w3.org/1999/02/22-rdf-syntax-ns#"
   xmlns:svg="http://www.w3.org/2000/svg"
   xmlns="http://www.w3.org/2000/svg"
   xmlns:xlink="http://www.w3.org/1999/xlink"
   xmlns:sodipodi="http://sodipodi.sourceforge.net/DTD/sodipodi-0.dtd"
   xmlns:inkscape="http://www.inkscape.org/namespaces/inkscape"
   width="64"
   height="64"
   version="1"
   id="svg24"
   sodipodi:docname="network-wired.svg"
   inkscape:version="0.92.2 2405546, 2018-03-11">
  <metadata
     id="metadata30">
    <rdf:RDF>
      <cc:Work
         rdf:about="">
        <dc:format>image/svg+xml</dc:format>
        <dc:type
           rdf:resource="http://purl.org/dc/dcmitype/StillImage" />
      </cc:Work>
    </rdf:RDF>
  </metadata>
  <defs
     id="defs28">
    <linearGradient
       inkscape:collect="always"
       id="linearGradient868">
      <stop
         style="stop-color:#000000;stop-opacity:1;"
         offset="0"
         id="stop864" />
      <stop
         style="stop-color:#000000;stop-opacity:0;"
         offset="1"
         id="stop866" />
    </linearGradient>
    <linearGradient
       inkscape:collect="always"
       xlink:href="#linearGradient868"
       id="linearGradient870"
       x1="24.332031"
       y1="32"
       x2="58"
       y2="32"
       gradientUnits="userSpaceOnUse" />
  </defs>
  <sodipodi:namedview
     pagecolor="#ffffff"
     bordercolor="#666666"
     borderopacity="1"
     objecttolerance="10"
     gridtolerance="10"
     guidetolerance="10"
     inkscape:pageopacity="0"
     inkscape:pageshadow="2"
     inkscape:window-width="1920"
     inkscape:window-height="1022"
     id="namedview26"
     showgrid="true"
     inkscape:snap-bbox="true"
     inkscape:bbox-nodes="true"
     inkscape:snap-bbox-edge-midpoints="true"
     inkscape:object-paths="true"
     inkscape:snap-intersection-paths="true"
     inkscape:snap-smooth-nodes="true"
     inkscape:snap-midpoints="true"
     inkscape:snap-object-midpoints="true"
     inkscape:zoom="3.6875"
     inkscape:cx="23.040575"
     inkscape:cy="26.095876"
     inkscape:window-x="0"
     inkscape:window-y="28"
     inkscape:window-maximized="1"
     inkscape:current-layer="svg24">
    <inkscape:grid
       type="xygrid"
       id="grid840" />
  </sodipodi:namedview>
  <g
     id="g862">
    <path
       sodipodi:nodetypes="ssssccccccsssss"
       inkscape:connector-curvature="0"
       id="path4"
       d="m 8,10 c -1.108,0 -2,0.892 -2,2 v 36 c 0,1.108 0.8920045,1.996829 2,2 h 6 2 l 4,4 h 24 l 4,-4 h 3 5 c 1.108,0 2,-0.892 2,-2 V 12 c 0,-1.108 -0.892,-2 -2,-2 z"
       style="fill:#ffffff;stroke:#000000;stroke-opacity:0.05882353;paint-order:markers stroke fill" />
    <path
       id="path6"
       d="M 24,48 20,44 H 12 V 16 H 52 V 44 H 44 L 40,48 Z"
       style="opacity:1;fill:#648bc0;fill-opacity:1" />
    <g
       id="g18"
       transform="scale(1,-1)"
       style="fill:#f8c44e">
      <rect
         id="rect8"
         y="-20"
         x="18"
         height="4"
         width="4"
         style="fill:#ffd96c;fill-opacity:1" />
      <rect
         id="rect10"
         y="-20"
         x="24"
         height="4"
         width="4"
         style="fill:#ffd96c;fill-opacity:1" />
      <rect
         id="rect12"
         y="-20"
         x="30"
         height="4"
         width="4"
         style="fill:#ffd96c;fill-opacity:1" />
      <rect
         id="rect14"
         y="-20"
         x="36"
         height="4"
         width="4"
         style="fill:#ffd96c;fill-opacity:1" />
      <rect
         id="rect16"
         y="-20"
         x="42"
         height="4"
         width="4"
         style="fill:#ffd96c;fill-opacity:1" />
    </g>
    <path
       id="path850"
       d="M 51.515625 10 A 40 40 0 0 1 52 16 A 40 40 0 0 1 24.332031 54 L 44 54 L 48 50 L 51 50 L 56 50 C 57.108 50 58 49.108 58 48 L 58 12 C 58 10.892 57.108 10 56 10 L 51.515625 10 z "
       style="fill:url(#linearGradient870);opacity:0.25;fill-opacity:1" />
  </g>
</svg>
