<svg width="64" height="64" version="1" xmlns="http://www.w3.org/2000/svg" xmlns:xlink="http://www.w3.org/1999/xlink">
 <defs>
  <linearGradient id="d" x1="26.984" x2="50" y1="27" y2="27" gradientUnits="userSpaceOnUse">
   <stop offset="0"/>
   <stop stop-opacity="0" offset="1"/>
  </linearGradient>
 </defs>
 <rect transform="matrix(0 -1 -1 0 0 0)" x="-53" y="-53" width="48" height="42" rx="3" ry="3" fill="#333"/>
 <rect transform="matrix(0 -1 -1 0 0 0)" x="-59" y="-53" width="48" height="42" rx="8" ry="11" fill="#333"/>
 <rect x="14" y="8" width="36" height="38" rx="2" ry="2" fill="#5294e2"/>
 <g fill="#fff">
  <circle cx="20" cy="51" r="2" opacity=".5"/>
  <circle cx="44" cy="51" r="2" opacity=".5"/>
  <circle cx="32" cy="52" r="3" opacity=".75"/>
 </g>
 <path d="M44.5 8a37.5 37.5 0 0 1 .5 6 37.5 37.5 0 0 1-18.016 32H48c1.108 0 2-.892 2-2V10c0-1.108-.892-2-2-2h-3.5z" fill="url(#d)" opacity=".25"/>
</svg>
