<svg xmlns="http://www.w3.org/2000/svg" xmlns:xlink="http://www.w3.org/1999/xlink" width="64" height="64" version="1"><defs><linearGradient id="b"><stop offset="0"/><stop offset="1" stop-opacity="0"/></linearGradient><linearGradient id="a"><stop offset="0" stop-color="#7332a6"/><stop offset="1" stop-color="#4a79d3"/></linearGradient><linearGradient xlink:href="#a" id="c" x1="12" y1="18" x2="52" y2="45" gradientUnits="userSpaceOnUse" gradientTransform="matrix(.8 0 0 1 6.4 0)"/><linearGradient xlink:href="#b" id="d" x1="27.922" y1="30" x2="48" y2="30" gradientUnits="userSpaceOnUse"/></defs><rect width="36" height="52" x="14" y="6" rx="3" ry="3" fill="#333"/><rect width="32" height="42" x="16" y="9" rx="1.6" ry="1.909" fill="url(#c)"/><rect width="14" height="1" x="25" y="7" rx=".441" ry=".5" opacity=".5" fill="#fff"/><circle cx="32" cy="54.5" r="2.5" opacity=".5" fill="#f9f9f9"/><path d="M44.826 9A51 51 0 0 1 45 13a51 51 0 0 1-17.078 38H46.4c.887 0 1.6-.85 1.6-1.908V10.908C48 9.851 47.287 9 46.4 9h-1.574z" opacity=".25" fill="url(#d)"/></svg>