<svg xmlns="http://www.w3.org/2000/svg" xmlns:xlink="http://www.w3.org/1999/xlink" width="64" height="64" version="1"><defs><linearGradient id="a"><stop offset="0"/><stop offset="1" stop-opacity="0"/></linearGradient><linearGradient xlink:href="#a" id="b" x1="46.186" y1="49" x2="60" y2="49" gradientUnits="userSpaceOnUse"/></defs><path d="M12.75 4C11.226 4 10 5.274 10 6.857V24h44V6.857C54 5.274 52.773 4 51.25 4h-38.5z" fill="#e4e4e4"/><path d="M12.75 4C11.226 4 10 5.275 10 6.857v1C10 6.275 11.226 5 12.75 5h38.5C52.773 5 54 6.275 54 7.857v-1C54 5.275 52.773 4 51.25 4h-38.5z" fill="#fff" opacity=".2"/><g transform="translate(0 -1)"><rect width="18" height="56" x="-59" y="-60" rx="2.5" ry="2.5" transform="matrix(0 -1 -1 0 0 0)" fill="#8e8e8e"/><path d="M24 47l-4 6M18 47l-4 6M12 47l-4 6M30 47l-4 6" opacity=".5" fill="none" stroke="#000" stroke-width="3" stroke-linecap="round"/><circle cx="40.5" cy="46.5" r="2.5" fill="#76ff03"/><circle cx="47.5" cy="46.5" r="2.5" fill="#ff0"/><circle cx="54.5" cy="46.5" r="2.5" fill="#ffcd40"/><path d="M53.893 40a30 30 0 0 1-7.707 18H57.5c1.385 0 2.5-1.115 2.5-2.5v-13c0-1.385-1.115-2.5-2.5-2.5h-3.607z" transform="translate(0 1)" fill="url(#b)" opacity=".25"/></g><rect width="24" height="56" x="-40" y="-60" rx="2.824" ry="2.8" transform="matrix(0 -1 -1 0 0 0)" fill="#4f4f4f"/><path opacity=".2" d="M7 29h50v6H7z"/><path d="M11.615 22.462a1.615 1.615 0 1 1-3.23 0 1.615 1.615 0 0 1 3.23 0z" style="isolation:auto;mix-blend-mode:normal;marker:none" display="block" overflow="visible" color="#000" fill="#31a6da" paint-order="fill markers stroke"/><rect ry="1.077" y="21.846" x="47.73" height="2.154" width="6.462" opacity=".5" fill="#31a6da" paint-order="markers stroke fill"/><circle r="2.154" cy="22.923" cx="52.821" fill="#31a6da" paint-order="markers stroke fill"/><path overflow="visible" display="block" style="isolation:auto;mix-blend-mode:normal;marker:none" d="M10.538 22.462a.538.538 0 1 1-1.076 0 .538.538 0 0 1 1.076 0z" color="#000" fill="#fff" fill-opacity=".924" paint-order="fill markers stroke"/><circle overflow="visible" display="block" r=".538" style="isolation:auto;mix-blend-mode:normal;marker:none" cx="6.462" cy="18.271" color="#000" fill="#fff" paint-order="fill markers stroke"/><circle cy="37.52" cx="6.462" style="isolation:auto;mix-blend-mode:normal;marker:none" r=".538" display="block" overflow="visible" color="#000" fill="#fff" paint-order="fill markers stroke"/><circle cy="18.271" cx="57.277" style="isolation:auto;mix-blend-mode:normal;marker:none" r=".538" display="block" overflow="visible" color="#000" fill="#fff" paint-order="fill markers stroke"/><circle overflow="visible" display="block" r=".538" style="isolation:auto;mix-blend-mode:normal;marker:none" cx="57.277" cy="37.52" color="#000" fill="#fff" paint-order="fill markers stroke"/></svg>