<svg width="64" height="64" version="1" xmlns="http://www.w3.org/2000/svg" xmlns:xlink="http://www.w3.org/1999/xlink">
 <defs>
  <linearGradient id="d" x1="27.922" x2="48" y1="30" y2="30" gradientUnits="userSpaceOnUse">
   <stop offset="0"/>
   <stop stop-opacity="0" offset="1"/>
  </linearGradient>
 </defs>
 <rect x="14" y="6" width="36" height="52" rx="3" ry="3" fill="#333"/>
 <rect x="16" y="9" width="32" height="42" rx="1.6" ry="1.909" fill="#5294e2"/>
 <rect x="25" y="7" width="14" height="1" rx=".441" ry=".5" fill="#fff" opacity=".5"/>
 <circle cx="32" cy="54.5" r="2.5" fill="#f9f9f9" opacity=".5"/>
 <path d="M44.826 9A51 51 0 0 1 45 13a51 51 0 0 1-17.078 38H46.4c.887 0 1.6-.85 1.6-1.908V10.908C48 9.851 47.287 9 46.4 9z" fill="url(#d)" opacity=".25"/>
 <path d="M27.86 15.418l-1.36.786 1.881 3.26C24.943 21.123 24.929 25 24.929 25H39.07s-.015-3.876-3.452-5.537l1.881-3.26-1.36-.785-2.034 3.523a9.502 9.502 0 0 0-2.103-.227c-.792 0-1.483.088-2.109.227zm1 6.44a.78.78 0 0 1 .783.782.79.79 0 0 1-.783.789.786.786 0 0 1 0-1.571zm6.286 0a.78.78 0 0 1 .783.782.79.79 0 0 1-.783.789.786.786 0 0 1 0-1.571zm6.352 3.925c-.904 0-1.64.833-1.64 1.86v7.276c0 1.026.736 1.864 1.64 1.864.903 0 1.502-.838 1.502-1.864v-7.277c0-1.027-.597-1.86-1.502-1.86m-16.57.001v13.358c0 .37.416.785.786.785h2.357v2.947c0 .978.623 1.768 1.572 1.768.943 0 1.603-.792 1.571-1.768v-2.946h1.572v2.946c0 .978.622 1.768 1.571 1.768.943 0 1.572-.803 1.572-1.768v-2.946h2.357c.37 0 .785-.415.785-.786V25.784zm-2.287 0c-.904 0-1.641.833-1.641 1.86v7.276c0 1.026.737 1.864 1.64 1.864.905 0 1.503-.838 1.503-1.864v-7.277c0-1.027-.597-1.86-1.502-1.86M21.918 25.059" fill="#fff"/>
</svg>
