<svg xmlns="http://www.w3.org/2000/svg" xmlns:xlink="http://www.w3.org/1999/xlink" width="64" height="64" version="1"><defs><linearGradient id="a"><stop offset="0"/><stop offset="1" stop-opacity="0"/></linearGradient><linearGradient xlink:href="#a" id="b" x1="27.426" y1="32" x2="53" y2="32" gradientUnits="userSpaceOnUse"/></defs><rect width="52" height="42" x="-58" y="-53" rx="3.714" ry="3.818" transform="matrix(0 -1 -1 0 0 0)" fill="#8e8e8e"/><path d="M46 6v28c0 7.756-6.244 14-14 14s-14-6.244-14-14V6z" opacity=".5"/><circle cx="32" cy="34" r="6" fill="#3697c4"/><circle cx="32" cy="21" r="3" fill="#ff6e40"/><circle cx="32" cy="13" r="3" fill="#76ff03"/><path d="M17 56c-1.108 0-2 .892-2 2h34c0-1.108-.892-2-2-2H17zM51 32c-.554 0-1 .446-1 1s.446 1 1 1h2v-2zm0 4c-.554 0-1 .446-1 1s.446 1 1 1h2v-2zm0 4c-.554 0-1 .446-1 1s.446 1 1 1h2v-2zM13 32c.554 0 1 .446 1 1s-.446 1-1 1h-2v-2zm0 4c.554 0 1 .446 1 1s-.446 1-1 1h-2v-2zm0 4c.554 0 1 .446 1 1s-.446 1-1 1h-2v-2z" opacity=".5"/><path d="M48.887 6A50 50 0 0 1 50 16.22 50 50 0 0 1 27.426 58h21.756C51.297 58 53 56.343 53 54.285V9.715C53 7.657 51.297 6 49.182 6h-.295z" fill="url(#b)" opacity=".25"/></svg>