<svg width="64" height="64" version="1" xmlns="http://www.w3.org/2000/svg" xmlns:xlink="http://www.w3.org/1999/xlink">
 <rect transform="rotate(90)" x="4" y="-45" width="56" height="26" rx="2.8" ry="2.6" fill="#e4e4e4"/>
 <path d="M39 15.6c0-.776-.624-1.6-1.4-1.6H35v-2.6c0-.776-.824-1.4-1.6-1.4h-2.8c-.776 0-1.6.624-1.6 1.4V14h-2.6c-.776 0-1.4.825-1.4 1.6v2.8c0 .776.624 1.6 1.4 1.6H29v2.6c0 .776.824 1.4 1.6 1.4h2.8c.776 0 1.6-.624 1.6-1.4l-.002-2.6h2.599c.776 0 1.401-.824 1.401-1.6v-2.8z" fill="#4f4f4f"/>
 <circle transform="rotate(90)" cx="51" cy="-36" r="3" fill="#ff7f2a"/>
 <circle transform="rotate(90)" cx="43" cy="-36" r="3" fill="#729fcf"/>
 <circle transform="rotate(90)" cx="51" cy="-28" r="3" fill="#8ccb4d"/>
 <circle transform="rotate(90)" cx="43" cy="-28" r="3" fill="#d35f5f"/>
</svg>
