<svg xmlns="http://www.w3.org/2000/svg" width="16" height="16"><defs><style id="current-color-scheme" type="text/css"></style></defs><path d="M9 3a3.997 3.997 0 0 0-3.56 2.186A2.5 2.5 0 0 0 4.5 5c-1.25 0-2.308.927-2.475 2.166A3 3 0 0 0 0 10a3 3 0 0 0 3 3h9a2.999 2.999 0 1 0 .992-5.828A3.28 3.28 0 0 0 13 7a4 4 0 0 0-4-4zm0 1.998V5c1.127 0 1.996.87 1.998 1.996-.001.014 0 .03-.002.043a2 2 0 0 0 1.334 2.022c.407.142.67.51.67.941A.971.971 0 0 1 12 11H3c-.575 0-.997-.423-.998-.998a.987.987 0 0 1 .674-.943 2 2 0 0 0 1.332-1.625A.478.478 0 0 1 4.5 7c.063 0 .125.011.184.035a2 2 0 0 0 2.539-.941C7.727 5.42 8.247 4.998 9 4.998z" fill="currentColor" color="#727272"/></svg>