<svg xmlns="http://www.w3.org/2000/svg" width="16" height="16"><defs><style id="current-color-scheme" type="text/css"></style></defs><path d="M8 0C3.568 0 0 3.568 0 8c0 3.573 2.32 6.58 5.541 7.613v-1.662c-2.025.447-2.451-.89-2.451-.89-.331-.855-.809-1.083-.809-1.083-.66-.458.05-.45.05-.45.73.051 1.114.763 1.114.763.65 1.13 1.705.804 2.12.615.066-.478.255-.805.462-.99-1.616-.187-3.017-1.22-3.017-4.055 0-.808.586-1.868 1.052-2.385-.075-.187-.326-1.339.07-2.357 0 0 .039-.012.118-.016.236-.01.77.439 1.812 1.157A8.098 8.098 0 0 1 8 3.99a6.42 6.42 0 0 1 1.816.27c1.043-.718 1.709-1.17 1.945-1.159h.002c.079.004.117.016.117.016.397 1.018.147 2.172.072 2.36C12.42 5.992 13 7.052 13 7.86c0 2.842-1.7 3.866-3.322 4.049.26.228.326.681.326 1.371 0 .833-.002 1.375-.004 1.719v.74c3.457-.885 6-4 6-7.74 0-4.432-3.568-8-8-8z" fill="currentColor" color="#727272"/></svg>