<svg xmlns="http://www.w3.org/2000/svg" width="16" height="16"><defs><style id="current-color-scheme" type="text/css"></style></defs><path d="M12.238 1.992c-.241.001-.464.08-.674.23-.53.382-1.628.78-3.558.78-1.94 0-3.04-.398-3.57-.78-.21-.15-.41-.22-.65-.22-.24 0-.521.07-.811.22-1.03.552-1.99 2.334-2.51 4.659-.44 1.984-.6 4.679-.34 5.764.23.942.63 1.355 1.34 1.355 1.04-.02 2.35-1.186 3.19-2.76.6-.872 2-1.263 3.35-1.222 1.34-.05 2.741.35 3.341 1.222.84 1.574 2.149 2.74 3.199 2.76.7 0 1.1-.413 1.33-1.355.26-1.085.1-3.78-.34-5.764-.52-2.325-1.48-4.107-2.51-4.658-.285-.156-.545-.232-.787-.23zM4 5h1v1h1v1H5v1H4V7H3V6h1V5zm7.5 0a.5.5 0 0 1 .5.5.5.5 0 0 1-.5.5.5.5 0 0 1-.5-.5.5.5 0 0 1 .5-.5zm-1 1a.5.5 0 0 1 .5.5.5.5 0 0 1-.5.5.5.5 0 0 1-.5-.5.5.5 0 0 1 .5-.5zm2 0a.5.5 0 0 1 .5.5.5.5 0 0 1-.5.5.5.5 0 0 1-.5-.5.5.5 0 0 1 .5-.5zm-1 1a.5.5 0 0 1 .5.5.5.5 0 0 1-.5.5.5.5 0 0 1-.5-.5.5.5 0 0 1 .5-.5z" fill="currentColor" color="#727272"/></svg>