<svg xmlns="http://www.w3.org/2000/svg" width="16" height="16"><defs><style id="current-color-scheme" type="text/css"></style></defs><path d="M2.707.016l-.705.707L3.408 2.13a2.5 2.5 0 0 0-.41 1.369 2.5 2.5 0 0 0 2 2.45v4.105a2.5 2.5 0 0 0-2 2.445 2.5 2.5 0 0 0 2.5 2.5 2.5 2.5 0 0 0 2.5-2.5 2.5 2.5 0 0 0-2-2.45V5.946a2.5 2.5 0 0 0 .87-.353l1.54 1.54A2.5 2.5 0 0 0 8 8.503a2.5 2.5 0 0 0 2.5 2.5 2.5 2.5 0 0 0 2.5-2.5 2.5 2.5 0 0 0-2.5-2.5 2.5 2.5 0 0 0-1.387.422L7.58 4.889A2.5 2.5 0 0 0 8 3.502a2.5 2.5 0 0 0-2.5-2.5 2.5 2.5 0 0 0-1.385.422L2.71.018 2.707.016z" fill="currentColor" color="#727272"/></svg>