<svg width="16" height="16" version="1.1" viewBox="0 0 16 16" xmlns="http://www.w3.org/2000/svg">
 <defs>
  <style id="current-color-scheme" type="text/css">.ColorScheme-Text { color:#727272; } .ColorScheme-Highlight { color:#5294e2; }</style>
 </defs>
 <path class="ColorScheme-Text" d="m8 0c-2.216 0-4 1.8215-4 4.0625v0.9375h2v-1c0-1.109 0.892-2 2-2s2 0.891 2 2v4h-7c-0.554 0-1 0.446-1 1v6c0 0.554 0.446 1 1 1h10c0.554 0 1-0.446 1-1v-6c0-0.554-0.446-1-1-1h-1v-3.9375c0-2.24-1.784-4.0625-4-4.0625zm-4 10h8v4h-8v-4z" fill="currentColor"/>
</svg>
