<svg xmlns="http://www.w3.org/2000/svg" width="16" height="16"><defs><style id="current-color-scheme" type="text/css"></style></defs><path d="M6.252.999l-.154 1.844a5.5 5.5 0 0 0-1.608.93l-1.675-.79-1.75 3.032L2.586 7.07A5.5 5.5 0 0 0 2.502 8a5.5 5.5 0 0 0 .08.931L1.065 9.983l1.75 3.031 1.672-.787a5.5 5.5 0 0 0 1.61.924l.15 1.85h3.5l.155-1.844a5.5 5.5 0 0 0 1.608-.93l1.675.79 1.75-3.032-1.521-1.056A5.5 5.5 0 0 0 13.498 8a5.5 5.5 0 0 0-.08-.931l1.517-1.053-1.75-3.031-1.672.787a5.5 5.5 0 0 0-1.61-.924l-.15-1.85h-3.5zm1.75 5a2 2 0 0 1 2 2 2 2 0 0 1-2 2 2 2 0 0 1-2-2 2 2 0 0 1 2-2z" fill="currentColor" color="#727272"/></svg>