<svg xmlns="http://www.w3.org/2000/svg" width="16" height="16"><defs><style id="current-color-scheme" type="text/css"></style></defs><path d="M8.12 1.016a8.67 8.67 0 0 0-1.161.02c-6.53.525-4.797 7.423-4.895 9.734-.086 1.222-.49 2.716-1.064 4.236h1.764c.181-.644.315-1.281.373-1.889.106.074.22.144.342.213.197.117.367.272.546.436.42.383.897.818 1.829.873.062.004.125.004.187.004.942 0 1.586-.413 2.104-.745.248-.158.462-.295.664-.36.573-.18 1.073-.47 1.447-.839.058-.057.113-.115.164-.176.208.764.494 1.623.81 2.48H15c-.905-1.397-1.837-2.765-1.818-4.513h-.002c.035-3.239.35-9.18-5.06-9.474zm.333 5.115c1.014-.028 1.858 1.008 1.885 2.312a2.79 2.79 0 0 1-.416 1.555 2.813 2.813 0 0 0-.188-.086c-.302-.13-.545-.217-.746-.287.111-.217.181-.487.188-.781v-.002c.015-.716-.346-1.298-.807-1.299-.46-.001-.848.579-.863 1.295v.07a4.01 4.01 0 0 0-.836-.283c-.001-.027-.004-.055-.004-.082-.026-1.305.773-2.385 1.787-2.412zM3.9 6.492c.73-.042 1.375.838 1.44 1.965.003.06.006.122.006.182-.232.058-.44.142-.627.24l-.002-.025c-.063-.64-.405-1.124-.764-1.08-.36.043-.6.598-.537 1.238v.002c.027.279.107.528.219.716-.028.022-.107.079-.197.145l-.25.184c-.272-.357-.46-.87-.493-1.448C2.63 7.484 3.17 6.535 3.9 6.492zM6.025 9.35c.525 0 1.106.203 1.725.601.292.19.546.276.867.387.221.076.472.163.807.307l.004.001c.313.129.683.365.666.752-.026.596-.805 1.156-1.526 1.381l-.004.002c-.299.097-.565.267-.847.448-.475.303-.967.619-1.676.619-.046 0-.094-.001-.14-.004-.65-.038-.956-.316-1.34-.666-.203-.185-.412-.377-.682-.535l-.006-.002c-.584-.33-.947-.741-.97-1.098-.012-.177.066-.33.234-.455.364-.273.608-.452.77-.57.178-.132.233-.171.273-.21l.093-.09c.335-.324.894-.868 1.752-.868zM3.8 10.996a.398.398 0 0 0-.148.719c.474.32 1.313.56 2.189.623.148.01.312.017.488.017.763 0 1.731-.072 2.768-.554a.397.397 0 1 0-.336-.72c-1.12.52-2.162.514-2.862.464-.834-.06-1.505-.289-1.8-.488a.398.398 0 0 0-.3-.06z" fill="currentColor" color="#727272"/></svg>