<svg width="64" height="64" version="1.1" viewBox="0 0 64 64" xmlns="http://www.w3.org/2000/svg">
 <defs>
  <style id="current-color-scheme" type="text/css">.ColorScheme-Text {
        color:#333333;
      }
      .ColorScheme-Highlight {
        color:#5294e2;
      }</style>
 </defs>
 <g transform="matrix(3.7795 0 0 3.7795 2.9999 -2.9997)" fill-rule="evenodd">
  <circle class="ColorScheme-Highlight" fill="currentColor" cx="7.673" cy="9.2604" r="7.1438"/>
  <path d="m11.642 12.7c0-1.2998-2.2056-1.9629-3.0854-2.1986 0 0 0.036457-0.72877 0.12149-0.99604 0.085036-0.26726 0.097155-0.57093 0.13361-0.65595 0.036464-0.085 0.46592-0.47375 0.49025-0.83813-0.0058875-0.2175-0.048846-0.26894-0.15616-0.26894v-1.1295c0-0.60979-0.88904-1.1423-1.4725-1.1423-0.58358 0-1.4725 0.5325-1.4725 1.1423v1.1295c-0.10741 0-0.15038 0.0515-0.15616 0.26894 0.024335 0.36436 0.4537 0.7531 0.49025 0.83813 0.036367 0.085 0.048491 0.38864 0.13353 0.65595 0.085037 0.26723 0.12149 0.99604 0.12149 0.99604-0.87978 0.23576-3.0854 0.89887-3.0854 2.1986z" fill="#ffffff"/>
 </g>
</svg>
