<?xml version="1.0" encoding="UTF-8" standalone="no"?>
<svg
   width="32"
   height="32"
   version="1.1"
   id="svg4"
   sodipodi:docname="applications-accessories.svg"
   inkscape:version="1.3.2 (091e20ef0f, 2023-11-25)"
   xmlns:inkscape="http://www.inkscape.org/namespaces/inkscape"
   xmlns:sodipodi="http://sodipodi.sourceforge.net/DTD/sodipodi-0.dtd"
   xmlns="http://www.w3.org/2000/svg"
   xmlns:svg="http://www.w3.org/2000/svg">
  <defs
     id="defs4" />
  <sodipodi:namedview
     id="namedview4"
     pagecolor="#ffffff"
     bordercolor="#000000"
     borderopacity="0.25"
     inkscape:showpageshadow="2"
     inkscape:pageopacity="0.0"
     inkscape:pagecheckerboard="0"
     inkscape:deskcolor="#d1d1d1"
     inkscape:zoom="7.375"
     inkscape:cx="18.847458"
     inkscape:cy="28.745763"
     inkscape:window-width="1920"
     inkscape:window-height="950"
     inkscape:window-x="0"
     inkscape:window-y="0"
     inkscape:window-maximized="1"
     inkscape:current-layer="svg4" />
  <rect
     x="1"
     y="1"
     width="30"
     height="30"
     rx="8"
     ry="8"
     fill="#f2f2f2"
     id="rect1-6"
     style="fill:#4d4d4d;fill-opacity:1" />
  <path
     d="m 6,6.1429 v 17.286 c 0,1.5714 1.5714,1.5714 1.5714,1.5714 h 20.429 z m 3.9286,8.5416 7.4505,6.387 H 9.9286 Z"
     fill="#ffffff"
     opacity="0.35"
     id="path1"
     style="stroke-width:0.39286" />
  <path
     d="m 15.472,13.607 c 0.41247,0.01493 0.78704,0.24462 0.98752,0.60539 l 5.8929,10.607 0.14732,2.9303 -2.2098,-1.784 -4.8616,-8.7518 v -3.6025 c 0.01493,0 0.02876,-0.0047 0.04376,-0.0047 z"
     fill="#e6e6e6"
     fill-rule="evenodd"
     id="path2"
     style="stroke-width:0.39286" />
  <path
     d="m 15.385,13.607 c -0.41247,0.01493 -0.78704,0.24462 -0.98752,0.6054 l -5.8929,10.607 -0.14732,2.9303 2.2098,-1.784 0.82868,-1.4893 a 9.4286,9.4286 0 0 0 4.0329,0.91615 9.4286,9.4286 0 0 0 9.4286,-9.4286 h -2.3571 a 7.0714,7.0714 0 0 1 -7.0714,7.0714 7.0714,7.0714 0 0 1 -2.8843,-0.62841 l 2.8843,-5.1931 v -3.6025 c -0.01493,0 -0.02876,-0.0047 -0.04376,-0.0047 z"
     fill="#ffffff"
     id="path3"
     style="stroke-width:0.39286" />
  <path
     d="m 13.857,8.8928 v 2.3571 h -0.78572 c -1.5714,0 -1.5714,1.5714 -1.5714,1.5714 v 3.9286 c 0,0 1.9643,1.9643 2.75,2.75 0.70651,0.54994 1.8796,0.59407 2.4868,-0.1296 l 2.6204,-2.6204 v -3.9286 c 0,0 0,-1.5714 -1.5714,-1.5714 H 16.99997 V 8.8928 Z"
     fill="#cccccc"
     id="path4"
     style="stroke-width:0.39286" />
  <circle
     cx="15.429"
     cy="14.393"
     r="1.5714"
     fill="#ffffff"
     id="circle4"
     style="stroke-width:0.39286" />
</svg>
