<svg width="32" height="32" xmlns="http://www.w3.org/2000/svg"><defs><linearGradient id="a" x1="399.57" x2="399.57" y1="545.8" y2="517.8" gradientTransform="translate(-384.57 -515.8)" gradientUnits="userSpaceOnUse"><stop stop-color="#3889e9" offset="0"/><stop stop-color="#5ea5fb" offset="1"/></linearGradient><linearGradient id="b" x1="41.165" x2="54.039" y1="89.364" y2="20.836" gradientUnits="userSpaceOnUse"><stop stop-color="#e3e3e3" offset="0"/><stop stop-color="#fffcff" offset="1"/></linearGradient></defs><rect x="1" y="1" width="30" height="30" rx="8" ry="8" fill="#47515b"/><circle cx="16.075" cy="16.058" r="15.646" fill="none"/><path d="M19.71 20.805c-2.13-1.665-.627-8.513-.627-8.513h2.603c.271 0 1.336-.17 1.336-1.446 0-1.568-1.301-1.472-1.301-1.472H12.14c-1.573 0-2.993 1.801-3.808 3.089-.433.688-.188.88.557.556 2.611-1.143 3.347-.731 3.347-.731.184.88.245 4.854-.425 6.422-.679 1.477-1.932 3.348-.092 4.447 1.437.815 2.944-.858 2.795-3.706-.07-1.507-.188-7.159-.188-7.159h2.4c-.074.88-.481 5.376-.056 8.04.442 4.446 5.275 3.583 6.177 1.064.223-.696.171-1.23.004-1.634-.306-.75-.819-.788-.762-.438.035.223.013.442-.022.64-.105.609-1.35 1.563-2.357.84z" fill="#fff" opacity=".9"/></svg>