<?xml version="1.0" encoding="UTF-8" standalone="no"?>
<svg
   width="32"
   height="32"
   version="1.1"
   id="svg1"
   sodipodi:docname="applications-webapps.svg"
   inkscape:version="1.3.2 (091e20ef0f, 2023-11-25)"
   xmlns:inkscape="http://www.inkscape.org/namespaces/inkscape"
   xmlns:sodipodi="http://sodipodi.sourceforge.net/DTD/sodipodi-0.dtd"
   xmlns="http://www.w3.org/2000/svg"
   xmlns:svg="http://www.w3.org/2000/svg">
  <defs
     id="defs1" />
  <sodipodi:namedview
     id="namedview1"
     pagecolor="#ffffff"
     bordercolor="#000000"
     borderopacity="0.25"
     inkscape:showpageshadow="2"
     inkscape:pageopacity="0.0"
     inkscape:pagecheckerboard="0"
     inkscape:deskcolor="#d1d1d1"
     inkscape:zoom="7.375"
     inkscape:cx="16"
     inkscape:cy="16"
     inkscape:window-width="1920"
     inkscape:window-height="950"
     inkscape:window-x="0"
     inkscape:window-y="0"
     inkscape:window-maximized="1"
     inkscape:current-layer="svg1" />
  <rect
     x="1"
     y="1"
     width="30"
     height="30"
     rx="8"
     ry="8"
     fill="#4386f5"
     id="rect1" />
  <path
     d="M 5.8946667,11.012 A 15.494667,15.494667 0 0 0 17.248,15.882667 15.122667,15.122667 0 0 0 26.6,12.634667 L 25.930667,11.317333 A 13.561333,13.561333 0 0 1 17.248,14.458667 13.942667,13.942667 0 0 1 6.5546667,9.552 Z M 4.636,17.729333 c 6.117333,5.224 14.870667,6.2 21.929333,2.506667 l -0.03467,-1.613333 C 19.670667,22.588 10.906667,21.6 4.9893333,16.129333 Z M 10.470667,25.812 12.153333,26.2 A 16.144,16.144 0 0 1 10.906667,20.246667 C 10.577333,14.4 13.094667,8.824 17.589333,5.14 L 16.082667,4.5533333 a 19.6,19.6 0 0 0 -6.6,15.7173337 c 0.024,1.882666 0.365333,3.741333 0.988,5.541333 z m 7.753333,1.164 1.329333,-0.586667 a 18.338667,18.338667 0 0 1 -3.4,-10.636 C 16.153333,12.105333 17.212,8.624 19.2,5.66 L 17.813333,5.1653333 A 19.644,19.644 0 0 0 14.730667,15.752 c 0,4.06 1.222666,7.930667 3.493333,11.224 z M 25.153333,22.6 26.106667,21.517333 A 12.869333,12.869333 0 0 1 19.624,10.482667 12.697333,12.697333 0 0 1 20.482667,5.6946667 l -1.376,-0.3893334 A 14.056,14.056 0 0 0 18.2,10.494667 14.288,14.288 0 0 0 25.153333,22.6 Z M 10.894667,15.741333 c 1,0 1.824,-0.836 1.824,-1.846666 a 1.836,1.836 0 1 0 -3.670667,0 c 0,1.010666 0.822667,1.846666 1.846667,1.846666 z m 9.012,0.976 a 1.8133333,1.8133333 0 0 0 0,-3.622666 1.8133333,1.8133333 0 0 0 -1.824,1.8 c 0,1.010666 0.812,1.822666 1.824,1.822666 z m -3.506667,6.8 c 1.013333,0 1.824,-0.812 1.824,-1.834666 a 1.8266667,1.8266667 0 0 0 -1.824,-1.836 1.84,1.84 0 0 0 -1.846667,1.836 c 0,1.022666 0.824,1.834666 1.846667,1.834666 z M 16,28 C 22.565333,28 28,22.553333 28,16 28,9.434667 22.553333,4 15.989333,4 9.436,4 4,9.434667 4,16 4,22.553333 9.448,28 16,28 Z m 0,-1.6 C 10.318667,26.4 5.6,21.682667 5.6,16 5.6,10.317333 10.306667,5.6 15.989333,5.6 21.670667,5.6 26.4,10.317333 26.4,16 26.4,21.682667 21.682667,26.4 16,26.4 Z"
     fill="#ffffff"
     stroke-width="0.75294"
     id="path1" />
</svg>
