<svg width="32" height="32" xmlns="http://www.w3.org/2000/svg"><rect x="1" y="1" width="30" height="30" rx="8" ry="8" fill="#ae2fdd"/><path d="M25.529 9.272a1.379 1.379 0 1 0-2.082 1.507c-.067 1.013-.369 2.246-1.26 3.324-2.512-2.866-3.572-4.035-4.063-4.509.262-.166.483-.27.63-.328a1.378 1.378 0 0 0 2.217-1.408 1.38 1.38 0 0 0-2.7.153c-1.039.441-4.584 2.404-4.055 8.518-3.883.113-5.925 1.14-6.853 1.812a1.366 1.366 0 0 0-.761-.02 1.381 1.381 0 0 0-.983 1.687 1.377 1.377 0 0 0 2.711-.316l4.059 4.26a4.575 4.575 0 0 1-.28.161 1.384 1.384 0 0 0-1.164-.221 1.38 1.38 0 0 0 .703 2.668c.574-.15.966-.644 1.02-1.203 1.899-.943 3.471-3.26 3.061-7.485 1.218-.005 2.342-.143 3.35-.408 1.51-.397 2.764-1.076 3.714-2.025 1.198-1.198 1.882-2.768 1.999-4.572a1.38 1.38 0 0 0 .737-1.595zM12.93 23.538l-4.235-4.445a7.625 7.625 0 0 1 1.024-.457l3.967 3.952c-.227.391-.488.702-.756.95zm1.067-1.592-3.554-3.542a13.38 13.38 0 0 1 1.95-.383l2.033 1.94c-.06.79-.214 1.445-.43 1.985zm-.72-4.018c.346-.027.712-.045 1.098-.054.046.418.07.809.076 1.174zm2.295-1.404a11.431 11.431 0 0 1 .012-2.458l1.985 2.328c-.625.09-1.292.134-1.997.13zm2.766-.267-2.605-3.054a6.71 6.71 0 0 1 .56-1.563c.846.914 2.417 2.687 3.66 4.102a8.67 8.67 0 0 1-1.615.515zm2.24-.826c-2.205-2.515-3.33-3.77-3.93-4.394.3-.44.625-.784.935-1.045.531.525 2.593 2.845 4.14 4.606-.335.315-.72.593-1.145.833z" fill="#fff" opacity=".9"/></svg>