<svg width="32" height="32" version="1.1" viewBox="0 0 32 32" xmlns="http://www.w3.org/2000/svg" xmlns:xlink="http://www.w3.org/1999/xlink">
 <rect x="1" y="1" width="30" height="30" rx="8" ry="8" fill="#f2f2f2"/>
 <g transform="matrix(.2 0 0 .2 3.2 3.2)">
  <path d="m124 64c0 33.137-26.863 60-60 60s-60-26.863-60-60 26.863-60 60-60 60 26.863 60 60z" fill="#f6d031"/>
  <path d="m71.633 64.992c0 2.5039-1.457 4.8164-3.8164 6.0664-2.3633 1.2539-5.2695 1.2539-7.6328 0-2.3594-1.25-3.8164-3.5625-3.8164-6.0664" fill="none" stroke="#3d3846" stroke-linecap="round" stroke-linejoin="round" stroke-width="4"/>
  <path d="m51.91 31.996c-2.082 0.05859-4.0625 0.92969-5.5156 2.4258l-2.3438 2.3438-2.3438-2.3438c-1.5078-1.5469-3.5781-2.4219-5.7383-2.4219-3.2578 0-6.1875 1.9766-7.4141 4.9922-1.2227 3.0195-0.49609 6.4766 1.8398 8.7461l10.832 10.832v-0.0078c1.5625 1.5625 4.0938 1.5625 5.6562 0l10.824-10.824c2.3711-2.2969 3.0859-5.8125 1.8047-8.8555-1.2852-3.0391-4.3008-4.9805-7.6016-4.8867z" fill="#e93336"/>
  <path d="m91.914 31.996c-2.0859 0.05859-4.0664 0.92969-5.5195 2.4258l-2.3438 2.3438-2.3438-2.3438c-1.5078-1.5469-3.5781-2.4219-5.7383-2.4219-3.2578 0-6.1875 1.9766-7.4102 4.9922-1.2266 3.0195-0.5 6.4766 1.8359 8.7461l10.832 10.832v-0.0078c1.5625 1.5625 4.0938 1.5625 5.6562 0l10.824-10.824c2.3711-2.2969 3.0859-5.8125 1.8047-8.8555-1.2852-3.0391-4.3008-4.9805-7.5977-4.8867z" fill="#e93336"/>
 </g>
</svg>
