<svg width="32" height="32" version="1.1" viewBox="0 0 32 32" xmlns="http://www.w3.org/2000/svg">
 <rect x="1" y="1" width="30" height="30" rx="8" ry="8" fill="#999999"/>
 <g stroke-width=".2">
  <path d="m8 27.8v0.2h3.2v-0.2zm12.8 0v0.2h3.2v-0.2z" fill="#9a9996"/>
  <path d="m16 4c-0.58124 7.82e-4 -1.0836 0.40546-1.2078 0.97344l-7.8e-4 -7.82e-4 -6.7914 22.828h3.2l4.8-20.2 4.8 20.2h3.2l-6.7984-22.858-0.0016 0.00234c-0.13438-0.55468-0.62968-0.94454-1.2-0.94532zm0 1c0.33124 0 0.6 0.26876 0.6 0.6s-0.26876 0.6-0.6 0.6-0.6-0.26876-0.6-0.6 0.26876-0.6 0.6-0.6z" fill="#c0bfbc"/>
  <path d="m7.2 7.2h17.6c0.8836 0 1.6 0.7164 1.6 1.6v14.4c0 0.8836-0.7164 1.6-1.6 1.6h-17.6c-0.8836 0-1.6-0.7164-1.6-1.6v-14.4c0-0.8836 0.7164-1.6 1.6-1.6z" fill="#f6f5f4"/>
  <path d="m28.8 10.4-9.7812 9.782c-0.43984 0.45704-1.1688 0.46484-1.6172 0.01641-0.44844-0.44844-0.44062-1.1773 0.01641-1.6172l8.2266-8.2266c0.97968-0.84062 2.3554-0.75468 3.1554 0.04531z" fill="#e4aa50"/>
  <path d="m21.337 15.117c1.0297 7.8e-4 1.5375 1.2516 0.79922 1.9695l-3.8132 4.2118c-0.55704 0.56562-1.468 0.56954-2.029 0.0078-0.56094-0.56094-0.55704-1.4719 0.0086-2.0282l4.2118-3.8132c0.21562-0.22266 0.5125-0.34766 0.82266-0.34766z" fill="#cfcecb"/>
 </g>
 <path d="m17.6 16.8c1.7672 0 3.2 1.4328 3.2 3.2s-1.4328 3.2-3.2 3.2h-3.2v-3.2c0-1.7672 1.4328-3.2 3.2-3.2z" fill="#2d343e"/>
 <path d="m16.001 19c0-0.33124 0.26796-0.59922 0.59922-0.59922s0.59922 0.26796 0.59922 0.59922-0.26796 0.59922-0.59922 0.59922-0.59922-0.26796-0.59922-0.59922z" fill="#ffffff"/>
 <path d="m5.6 11.173v4.8c0.40078-0.225 0.88516-0.29766 1.3344-0.20078s0.86094 0.3625 1.1336 0.73282c0.35234 0.47812 0.4625 1.0922 0.4914 1.6859 0.028906 0.59296-0.013282 1.1914 0.078906 1.7789 0.12578 0.79922 0.50782 1.5586 1.082 2.1296 0.57344 0.5711 1.3375 0.95078 2.1406 1.0539 0.52188 0.06719 1.0508 0.04062 1.5773 0.04219l0.96172 0.0039v-0.4c-0.40704-0.09531-0.81718-0.17266-1.2312-0.23204-0.26796-0.03828-0.53906-0.06875-0.79922-0.14688-0.26016-0.07734-0.5125-0.20468-0.69218-0.40782-0.15156-0.17109-0.24532-0.38828-0.28594-0.61328-0.04141-0.22422-0.03047-0.45624 0.0094-0.68046 0.08125-0.44922 0.27812-0.86796 0.42656-1.3 0.47968-1.3977 0.4336-2.9594-0.075-4.346-0.56094-1.5289-1.7094-2.8624-3.2024-3.5124-0.9211-0.40156-1.9562-0.5375-2.95-0.3875z" fill="#a475c0" stroke-width=".2"/>
 <path d="m12.581 22.475 0.85704 0.7211 3.7618 0.0039-0.4-0.6c-0.6289-0.94296-1.8266-1.8-2.4-1.8 0 1.2-1.1125 1.8195-1.8188 1.675z" fill="#a475c0" stroke-width=".2"/>
</svg>
