<svg width="64" height="64" viewBox="0 0 16.933 16.933" xmlns="http://www.w3.org/2000/svg"><defs><linearGradient id="a" x1="-197.72" x2="-197.72" y1="263.86" y2="273.76" gradientTransform="rotate(-45 -337.55 -145.8)" gradientUnits="userSpaceOnUse"><stop offset="0"/><stop stop-opacity="0" offset="1"/></linearGradient></defs><path transform="scale(.26458)" d="m27.002 8.984-14 .004c-1.11 0-1.493 1.013-2.002 1.998V11h-1c-2.216 0-4 1.784-4 4v28c0 2.216 1.784 4 4 4h44c2.216 0 4-1.784 4-4V15c0-2.216-1.784-4-4-4H37.141c-.047-.003-.092-.014-.14-.014h-7.997c-.586-.94-.89-2.002-2.002-2.002z" fill="#5677fc" style="paint-order:stroke fill markers"/><path transform="scale(.26458)" d="m27.002 8.984-14 .004c-1.11 0-1.493 1.013-2.002 1.998V11h-1c-2.216 0-4 1.784-4 4v28c0 2.216 1.784 4 4 4h44c2.216 0 4-1.784 4-4V15c0-2.216-1.784-4-4-4l-24.996-.014c-.586-.94-.89-2.002-2.002-2.002z" opacity=".18" style="paint-order:stroke fill markers"/><rect x="2.381" y="3.7" width="12.171" height="5.027" ry=".533" fill="#fff" paint-order="markers stroke fill"/><rect x="3.704" y="2.64" width="3.175" height=".529" ry=".265" opacity=".25" paint-order="stroke markers fill"/><path transform="scale(.26458)" d="m34 16-3 4H6c-2.216 0-4 1.784-4 4v28c0 2.216 1.784 4 4 4h52c2.216 0 4-1.784 4-4V20c0-2.216-1.784-4-4-4z" fill="#5677fc" style="paint-order:stroke fill markers"/><path transform="scale(.26458)" d="M62 40 46 56h12c2.216 0 4-1.784 4-4V40z" fill="url(#a)" opacity=".2" style="paint-order:stroke fill markers"/><path d="M9.868 7.67a.38.38 0 0 0-.223.076c-.175.127-.538.258-1.177.258-.641 0-1.005-.131-1.18-.258a.351.351 0 0 0-.215-.073.596.596 0 0 0-.268.073c-.341.183-.658.772-.83 1.541-.146.656-.199 1.547-.113 1.906.076.312.208.448.443.448.344-.006.777-.392 1.055-.912.199-.289.662-.418 1.108-.405.443-.016.907.116 1.105.405.278.52.71.906 1.058.912.232 0 .364-.136.44-.448.086-.359.033-1.25-.113-1.906-.172-.769-.489-1.358-.83-1.54a.536.536 0 0 0-.26-.077Zm-2.724.995h.33v.33h.331v.331h-.33v.331h-.331v-.33h-.331v-.331h.33zm2.48 0a.165.165 0 0 1 .165.165.165.165 0 0 1-.165.166.165.165 0 0 1-.165-.166.165.165 0 0 1 .165-.165zm-.33.33a.165.165 0 0 1 .165.166.165.165 0 0 1-.166.165.165.165 0 0 1-.165-.165.165.165 0 0 1 .165-.165zm.66 0a.165.165 0 0 1 .166.166.165.165 0 0 1-.165.165.165.165 0 0 1-.166-.165.165.165 0 0 1 .166-.165zm-.33.331a.165.165 0 0 1 .165.166.165.165 0 0 1-.165.165.165.165 0 0 1-.165-.165.165.165 0 0 1 .165-.166z" color="#727272" fill="#fff" style="stroke-width:.264578"/></svg>