<svg width="64" height="64" viewBox="0 0 16.933 16.933" xmlns="http://www.w3.org/2000/svg"><defs><linearGradient id="a" x1="-197.72" x2="-197.72" y1="263.86" y2="273.76" gradientTransform="rotate(-45 -337.55 -145.8)" gradientUnits="userSpaceOnUse"><stop offset="0"/><stop stop-opacity="0" offset="1"/></linearGradient></defs><path transform="scale(.26458)" d="m27.002 8.984-14 .004c-1.11 0-1.493 1.013-2.002 1.998V11h-1c-2.216 0-4 1.784-4 4v28c0 2.216 1.784 4 4 4h44c2.216 0 4-1.784 4-4V15c0-2.216-1.784-4-4-4H37.141c-.047-.003-.092-.014-.14-.014h-7.997c-.586-.94-.89-2.002-2.002-2.002z" fill="#5677fc" style="paint-order:stroke fill markers"/><path transform="scale(.26458)" d="m27.002 8.984-14 .004c-1.11 0-1.493 1.013-2.002 1.998V11h-1c-2.216 0-4 1.784-4 4v28c0 2.216 1.784 4 4 4h44c2.216 0 4-1.784 4-4V15c0-2.216-1.784-4-4-4l-24.996-.014c-.586-.94-.89-2.002-2.002-2.002z" opacity=".18" style="paint-order:stroke fill markers"/><rect x="2.381" y="3.7" width="12.171" height="5.027" ry=".533" fill="#fff" paint-order="markers stroke fill"/><rect x="3.704" y="2.64" width="3.175" height=".529" ry=".265" opacity=".25" paint-order="stroke markers fill"/><path d="m8.996 4.233-.794 1.059H1.587C1.001 5.292.53 5.764.53 6.35v7.408c0 .586.472 1.058 1.058 1.058h13.758c.587 0 1.059-.472 1.059-1.058V5.291c0-.586-.472-1.058-1.059-1.058z" fill="#5677fc" style="paint-order:stroke fill markers"/><path transform="scale(.26458)" d="M62 40 46 56h12c2.216 0 4-1.784 4-4z" fill="url(#a)" opacity=".2" style="paint-order:stroke fill markers"/><path d="M6.35 7.67a.528.528 0 0 0-.53.53v3.176c0 .293.236.529.53.529h4.233c.293 0 .53-.236.53-.53V8.2a.528.528 0 0 0-.53-.529H6.35zm0 .267h4.233c.147 0 .265.118.265.265v2.96l-1.81-1.81-1.95 1.95a.08.08 0 0 1 .008-.102l.56-.562-.808-.81-.763.762V8.202c0-.147.118-.265.264-.265zm3.704.526h.001a.265.265 0 0 0-.265.265.265.265 0 0 0 .264.264.265.265 0 0 0 .265-.264.265.265 0 0 0-.265-.265z" fill="#fff"/></svg>