<svg width="64" height="64" viewBox="0 0 16.933 16.933" xmlns="http://www.w3.org/2000/svg"><defs><linearGradient id="a" x1="-197.72" x2="-197.72" y1="263.86" y2="273.76" gradientTransform="rotate(-45 -337.55 -145.8)" gradientUnits="userSpaceOnUse"><stop offset="0"/><stop stop-opacity="0" offset="1"/></linearGradient></defs><path transform="scale(.26458)" d="m27.002 8.984-14 .004c-1.11 0-1.493 1.013-2.002 1.998V11h-1c-2.216 0-4 1.784-4 4v28c0 2.216 1.784 4 4 4h44c2.216 0 4-1.784 4-4V15c0-2.216-1.784-4-4-4H37.141c-.047-.003-.092-.014-.14-.014h-7.997c-.586-.94-.89-2.002-2.002-2.002z" fill="#5677fc" style="paint-order:stroke fill markers"/><path transform="scale(.26458)" d="m27.002 8.984-14 .004c-1.11 0-1.493 1.013-2.002 1.998V11h-1c-2.216 0-4 1.784-4 4v28c0 2.216 1.784 4 4 4h44c2.216 0 4-1.784 4-4V15c0-2.216-1.784-4-4-4l-24.996-.014c-.586-.94-.89-2.002-2.002-2.002z" opacity=".18" style="paint-order:stroke fill markers"/><rect x="2.381" y="3.7" width="12.171" height="5.027" ry=".533" fill="#fff" paint-order="markers stroke fill"/><rect x="3.704" y="2.64" width="3.175" height=".529" ry=".265" opacity=".25" paint-order="stroke markers fill"/><path transform="scale(.26458)" d="m34 16-3 4H6c-2.216 0-4 1.784-4 4v28c0 2.216 1.784 4 4 4h52c2.216 0 4-1.784 4-4V20c0-2.216-1.784-4-4-4z" fill="#5677fc" style="paint-order:stroke fill markers"/><path transform="scale(.26458)" d="M62 40 46 56h12c2.216 0 4-1.784 4-4V40z" fill="url(#a)" opacity=".2" style="paint-order:stroke fill markers"/><path style="fill:#fff;stroke-width:.000905939" d="M4.932 12.286a.114.114 0 0 1-.095-.077 3.956 3.956 0 0 1-.032-1.43c.07-.42.214-.806.425-1.145a2.714 2.714 0 0 1 .732-.78l.232.4.24.414a.617.617 0 0 0 .796.219l.125-.07c.095-.052.113-.062.116-.062a5.116 5.116 0 0 0 .725-.537.11.11 0 0 0 .03-.077.11.11 0 0 0-.048-.092.121.121 0 0 0-.094-.022.13.13 0 0 0-.044.018 4.905 4.905 0 0 1-.621.472 1.914 1.914 0 0 1-.132.079 294.985 294.985 0 0 0-.16.087.385.385 0 0 1-.503-.129c-.01-.017-.498-.86-.505-.875a.389.389 0 0 1-.038-.213.386.386 0 0 1 .21-.302 3.74 3.74 0 0 1 1.436-.393c.112-.007.226-.007.337-.001.339.017.675.09 1.032.223.195.073.393.162.656.295l.213.108c.153.078.264.131.353.17.184.08.328.122.455.133a.63.63 0 0 0 .5-.168.695.695 0 0 0 .184-.253.674.674 0 0 0-1.01-.811c-.036.026-.048.031-.075.034a.113.113 0 0 1-.084-.027l-.157-.163a.112.112 0 0 1-.006-.14 1.17 1.17 0 0 1 .914-.328c.298.025.574.16.775.383.134.148.24.338.3.538.085.278.084.572-.001.868-.118.408-.39.814-.812 1.212-.139.131-.289.257-.465.39-.04.03-.062.048-.085.068a1.716 1.716 0 0 0-.462.678 3.406 3.406 0 0 0-.217 1.16.345.345 0 0 1-.003.058.112.112 0 0 1-.087.087c-.006.002-.02.002-.268.002h-.27a.106.106 0 0 1-.037-.012.105.105 0 0 1-.05-.048.13.13 0 0 1-.013-.05.765.765 0 0 0-1.358-.365.765.765 0 0 0-.164.398.11.11 0 0 1-.072.072c-.017.005.003.005-.29.005-.256 0-.268 0-.275-.002a.112.112 0 0 1-.079-.06.116.116 0 0 1-.011-.04.764.764 0 0 0-1.517-.001.11.11 0 0 1-.08.099c-.017.004-.003.004-.294.004h-.272zm4.933-2.979a.227.227 0 0 0 .064-.24.226.226 0 0 0-.44.06v.012l.041.021.317.16c.001.001.006-.003.018-.013z"/></svg>