<svg width="64" height="64" version="1.1" xmlns="http://www.w3.org/2000/svg" xmlns:xlink="http://www.w3.org/1999/xlink">
 <defs>
  <style id="current-color-scheme" type="text/css"/>
  <linearGradient id="c" x1="-197.1" x2="-196.91" y1="217.68" y2="219.37" gradientUnits="userSpaceOnUse">
   <stop offset="0"/>
   <stop stop-opacity="0" offset="1"/>
  </linearGradient>
  <clipPath id="b">
   <rect transform="rotate(45)" x=".529" y="285.36" width="15.875" height="9.525" ry=".529" fill="#5294e2" stroke-opacity=".196" stroke-width=".251" style="paint-order:markers stroke fill"/>
  </clipPath>
 </defs>
 <g transform="matrix(3.7796 0 0 3.7796 0 -1058.5)">
  <path d="m3.44 282.45c-0.294 0-0.395 0.269-0.53 0.53h-0.793a0.528 0.528 0 0 0-0.53 0.528v5.292c0 0.293 0.237 0.53 0.53 0.53h12.7c0.293 0 0.529-0.237 0.529-0.53v-5.292a0.528 0.528 0 0 0-0.53-0.529h-7.142c-0.155-0.249-0.236-0.53-0.53-0.53z" fill="#5294e2" style="paint-order:markers stroke fill"/>
  <path d="m3.44 282.45c-0.294 0-0.395 0.269-0.53 0.53h-0.793a0.528 0.528 0 0 0-0.53 0.528v5.292c0 0.293 0.237 0.53 0.53 0.53h12.7c0.293 0 0.529-0.237 0.529-0.53v-5.292a0.528 0.528 0 0 0-0.53-0.529h-7.142c-0.155-0.249-0.236-0.53-0.53-0.53z" opacity=".18" style="paint-order:markers stroke fill"/>
  <rect x="2.381" y="283.77" width="12.171" height="5.027" ry=".265" fill="#fff" style="paint-order:markers stroke fill"/>
  <rect x=".529" y="285.36" width="15.875" height="9.525" ry=".529" fill="#5294e2" style="paint-order:markers stroke fill"/>
  <path d="m8.467 284.3h7.408c0.293 0 0.53 0.236 0.53 0.53v3.968c0 0.293-0.237 0.529-0.53 0.529h-9.723c-0.294 0-0.677-0.276-0.53-0.53l2.316-3.968c0.147-0.253 0.236-0.529 0.529-0.529z" fill="#5294e2" style="paint-order:markers stroke fill"/>
  <rect x="3.704" y="282.71" width="3.175" height=".529" ry=".265" opacity=".25" style="paint-order:stroke markers fill"/>
  <rect transform="rotate(-45)" x="-199.59" y="217.87" width="5.292" height="4.762" ry=".132" clip-path="url(#b)" fill="url(#c)" opacity=".1" style="paint-order:stroke markers fill"/>
 </g>
 <g transform="matrix(1.125 0 0 1.125 23 -26.626)" fill="#fff" stroke-width=".88889">
  <path d="m8 48.39-2.12 5.5-5.88 0.31 4.57 3.72-1.51 5.69 4.94-3.2 4 2.59v-2.932l-0.57-2.148 0.57-0.465v-1.455a1 1 0 0 1 1-1h2a1 1 0 0 1 0.016 0l0.984-0.8-5.88-0.31z" opacity=".3"/>
  <path class="warning" d="m13 56v5h2v-5zm0 6v2h2v-2z"/>
 </g>
</svg>
