<svg xmlns="http://www.w3.org/2000/svg" xmlns:xlink="http://www.w3.org/1999/xlink" width="64" height="64" viewBox="0 0 16.933 16.933"><defs><linearGradient id="a"><stop offset="0"/><stop offset="1" stop-opacity="0"/></linearGradient><clipPath clipPathUnits="userSpaceOnUse" id="b"><rect ry=".529" y="285.358" x=".529" height="9.525" width="15.875" transform="rotate(45)" fill="#795548" stroke-width=".251" stroke-opacity=".196" paint-order="markers stroke fill"/></clipPath><linearGradient xlink:href="#a" id="c" x1="-197.102" y1="217.681" x2="-196.914" y2="219.365" gradientUnits="userSpaceOnUse"/><linearGradient xlink:href="#a" id="d" gradientUnits="userSpaceOnUse" x1="-197.102" y1="217.681" x2="-196.914" y2="219.365"/></defs><g opacity=".5" transform="translate(0 -280.067)"><path d="M3.07 287.157c-.177 0-.237.162-.318.318h-.477a.317.317 0 0 0-.317.317v3.175c0 .176.142.318.317.318h7.62a.317.317 0 0 0 .318-.318v-3.175a.317.317 0 0 0-.318-.317H5.61c-.093-.15-.141-.318-.317-.318z" fill="#795548" paint-order="markers stroke fill"/><path d="M3.07 287.157c-.177 0-.237.162-.318.318h-.477a.317.317 0 0 0-.317.317v3.175c0 .176.142.318.317.318h7.62a.317.317 0 0 0 .318-.318v-3.175a.317.317 0 0 0-.318-.317H5.61c-.093-.15-.141-.318-.317-.318z" opacity=".18" paint-order="markers stroke fill"/><rect ry=".159" y="287.951" x="2.434" height="3.016" width="7.303" fill="#f2f2f2" paint-order="markers stroke fill"/><rect ry=".317" y="288.904" x="1.323" height="5.715" width="9.525" fill="#795548" paint-order="markers stroke fill"/><path d="M6.085 288.269h4.445c.176 0 .318.141.318.317v2.381a.317.317 0 0 1-.318.318H4.696c-.176 0-.406-.166-.317-.318l1.389-2.38c.089-.153.142-.318.317-.318z" fill="#795548" paint-order="markers stroke fill"/><rect ry=".159" y="287.316" x="3.228" height=".317" width="1.905" opacity=".25" paint-order="stroke markers fill"/><rect clip-path="url(#b)" transform="rotate(-45 142.566 57.63) scale(.6)" ry=".132" y="217.868" x="-199.587" height="4.762" width="5.292" opacity=".1" fill="url(#c)" paint-order="stroke markers fill"/></g><g transform="translate(0 -280.067)"><path d="M8.096 283.189c-.176 0-.236.161-.317.317h-.477a.317.317 0 0 0-.317.318v3.175c0 .176.142.317.317.317h7.62a.317.317 0 0 0 .318-.317v-3.175a.317.317 0 0 0-.318-.318h-4.286c-.093-.149-.141-.317-.317-.317z" fill="#795548" paint-order="markers stroke fill"/><path d="M8.096 283.189c-.176 0-.236.161-.317.317h-.477a.317.317 0 0 0-.317.318v3.175c0 .176.142.317.317.317h7.62a.317.317 0 0 0 .318-.317v-3.175a.317.317 0 0 0-.318-.318h-4.286c-.093-.149-.141-.317-.317-.317z" opacity=".18" paint-order="markers stroke fill"/><rect width="7.303" height="3.016" x="7.461" y="283.982" ry=".159" fill="#fff" paint-order="markers stroke fill"/><rect width="9.525" height="5.715" x="6.35" y="284.935" ry=".317" fill="#795548" paint-order="markers stroke fill"/><path d="M11.113 284.3h4.444c.176 0 .318.142.318.317V287a.317.317 0 0 1-.318.317H9.723c-.175 0-.406-.165-.317-.317l1.389-2.382c.089-.151.142-.317.318-.317z" fill="#795548" paint-order="markers stroke fill"/><rect width="1.905" height=".317" x="8.255" y="283.347" ry=".159" opacity=".25" paint-order="stroke markers fill"/><rect width="5.292" height="4.762" x="-199.587" y="217.868" ry=".132" transform="rotate(-45 140.288 49.578) scale(.6)" clip-path="url(#b)" opacity=".1" fill="url(#d)" paint-order="stroke markers fill"/></g></svg>