<svg width="64" height="64" version="1.1" viewBox="0 0 16.933 16.933" xmlns="http://www.w3.org/2000/svg">
 <defs>
  <linearGradient id="a" x1="-197.72" x2="-197.72" y1="263.86" y2="273.76" gradientTransform="rotate(-45 -337.55 -145.8)" gradientUnits="userSpaceOnUse">
   <stop offset="0"/>
   <stop stop-opacity="0" offset="1"/>
  </linearGradient>
 </defs>
 <path transform="scale(.26458)" d="m27.002 8.984-14 .004c-1.11 0-1.493 1.013-2.002 1.998V11h-1c-2.216 0-4 1.784-4 4v28c0 2.216 1.784 4 4 4h44c2.216 0 4-1.784 4-4V15c0-2.216-1.784-4-4-4H37.141c-.047-.003-.092-.014-.14-.014h-7.997c-.586-.94-.89-2.002-2.002-2.002z" fill="#795548" style="paint-order:stroke fill markers"/>
 <path transform="scale(.26458)" d="m27.002 8.984-14 .004c-1.11 0-1.493 1.013-2.002 1.998V11h-1c-2.216 0-4 1.784-4 4v28c0 2.216 1.784 4 4 4h44c2.216 0 4-1.784 4-4V15c0-2.216-1.784-4-4-4l-24.996-.014c-.586-.94-.89-2.002-2.002-2.002z" opacity=".18" style="paint-order:stroke fill markers"/>
 <rect x="2.381" y="3.7" width="12.171" height="5.027" ry=".533" fill="#fff" paint-order="markers stroke fill"/>
 <rect x="3.704" y="2.64" width="3.175" height=".529" ry=".265" opacity=".25" paint-order="stroke markers fill"/>
 <path transform="scale(.26458)" d="m34 16-3 4H6c-2.216 0-4 1.784-4 4v28c0 2.216 1.784 4 4 4h52c2.216 0 4-1.784 4-4V20c0-2.216-1.784-4-4-4z" fill="#795548" style="paint-order:stroke fill markers"/>
 <path transform="scale(.26458)" d="M62 40 46 56h12c2.216 0 4-1.784 4-4V40z" fill="url(#a)" opacity=".2" style="paint-order:stroke fill markers"/>
 <path d="M8.26 7.276 5.904 8.63l2.575 1.488L11.03 8.63 8.696 7.276v1.04l.92.532c.036.012.036.073 0 .097l-1.089.628c-.036.013-.073.013-.097 0l-1.088-.628c-.037-.012-.037-.073 0-.097l.919-.532Zm2.77 1.354-2.552 1.488L5.903 8.63v2.697l.895-.52V9.755c0-.036.048-.06.072-.049l1.089.63c.036.011.048.047.048.096v1.258c.024.036-.024.06-.06.048l-.92-.532-.894.52 2.345 1.354 2.334-1.354-.895-.52-.919.544c-.036.024-.072-.012-.072-.048v-1.258c0-.036.024-.072.048-.097l1.088-.628c.037-.025.073.012.073.048v1.052l.895.52z" fill="#fff"/>
</svg>
