<svg width="64" height="64" viewBox="0 0 16.933 16.933" xmlns="http://www.w3.org/2000/svg"><defs><linearGradient id="a" x1="-197.72" x2="-197.72" y1="263.86" y2="273.76" gradientTransform="rotate(-45 -337.55 -145.8)" gradientUnits="userSpaceOnUse"><stop offset="0"/><stop stop-opacity="0" offset="1"/></linearGradient></defs><path transform="scale(.26458)" d="m27.002 8.984-14 .004c-1.11 0-1.493 1.013-2.002 1.998V11h-1c-2.216 0-4 1.784-4 4v28c0 2.216 1.784 4 4 4h44c2.216 0 4-1.784 4-4V15c0-2.216-1.784-4-4-4H37.141c-.047-.003-.092-.014-.14-.014h-7.997c-.586-.94-.89-2.002-2.002-2.002z" fill="#4d4d4d" style="paint-order:stroke fill markers"/><path transform="scale(.26458)" d="m27.002 8.984-14 .004c-1.11 0-1.493 1.013-2.002 1.998V11h-1c-2.216 0-4 1.784-4 4v28c0 2.216 1.784 4 4 4h44c2.216 0 4-1.784 4-4V15c0-2.216-1.784-4-4-4l-24.996-.014c-.586-.94-.89-2.002-2.002-2.002z" opacity=".18" style="paint-order:stroke fill markers"/><rect x="2.381" y="3.7" width="12.171" height="5.027" ry=".533" fill="#fff" paint-order="markers stroke fill"/><rect x="3.704" y="2.64" width="3.175" height=".529" ry=".265" opacity=".25" paint-order="stroke markers fill"/><path transform="scale(.26458)" d="m34 16-3 4H6c-2.216 0-4 1.784-4 4v28c0 2.216 1.784 4 4 4h52c2.216 0 4-1.784 4-4V20c0-2.216-1.784-4-4-4z" fill="#4d4d4d" style="paint-order:stroke fill markers"/><path transform="scale(.26458)" d="M62 40 46 56h12c2.216 0 4-1.784 4-4V40z" fill="url(#a)" opacity=".2" style="paint-order:stroke fill markers"/><path style="fill:#fff;fill-opacity:1;stroke-width:.00185693" d="M7.312 13.333a.274.274 0 0 0 .167-.08.27.27 0 0 0 .075-.139c.006-.03.007-.063.006-.36v-.293l-.198-.002a11.003 11.003 0 0 1-.242-.005 1.806 1.806 0 0 1-.196-.025c-.226-.043-.403-.127-.53-.251a.705.705 0 0 1-.172-.281 1.226 1.226 0 0 0-.304-.474 2.141 2.141 0 0 0-.21-.183c-.104-.083-.13-.112-.13-.138 0-.017.012-.03.047-.046a.312.312 0 0 1 .154-.031.5.5 0 0 1 .216.061c.092.047.187.119.287.217.061.06.105.109.174.195.21.26.343.358.534.39.056.01.08.012.178.012a1.1 1.1 0 0 0 .173-.009.722.722 0 0 0 .202-.05l.017-.008.001-.034a.704.704 0 0 1 .308-.569s-.004-.002-.01-.002a4.544 4.544 0 0 1-.155-.028 2.656 2.656 0 0 1-.928-.355 1.675 1.675 0 0 1-.393-.348 1.608 1.608 0 0 1-.341-.836 2.553 2.553 0 0 1-.004-.53c.038-.403.167-.75.388-1.05.004-.005.004-.005-.006-.043a2.122 2.122 0 0 1 .02-1.142l.004-.015h.036c.15.001.345.046.532.121a2.177 2.177 0 0 1 .543.318 3.589 3.589 0 0 1 .778-.148c.118-.01.204-.013.344-.013a3.75 3.75 0 0 1 1.09.15l.033.01.03-.022c.041-.033.07-.054.122-.088.296-.198.638-.32.92-.329l.038-.001.003.011.011.043a2.162 2.162 0 0 1 .005 1.121 1.943 1.943 0 0 1 .337.667c.054.187.082.375.089.598.006.224-.019.436-.074.626a1.531 1.531 0 0 1-.46.729c-.25.22-.569.378-.973.482a3.984 3.984 0 0 1-.36.074c-.001.001.007.008.018.017a.74.74 0 0 1 .19.21c.04.07.072.155.085.237.011.064.01.007.012.732 0 .62 0 .665.004.68a.284.284 0 0 0 .044.108.285.285 0 0 0 .205.12c.008.001-.608.002-1.37.002-1.135 0-1.38 0-1.364-.003z"/></svg>