<svg width="64" height="64" version="1.1" viewBox="0 0 64 64" xmlns="http://www.w3.org/2000/svg">
 <defs>
  <style id="current-color-scheme" type="text/css">.ColorScheme-Text {
        color:#333333;
      }
      .ColorScheme-Highlight {
        color:#5294e2;
      }</style>
  <linearGradient id="a" x1="-197.1" x2="-196.91" y1="217.68" y2="219.37" gradientTransform="rotate(-45,-338.07,-140.03)" gradientUnits="userSpaceOnUse">
   <stop offset="0"/>
   <stop stop-opacity="0" offset="1"/>
  </linearGradient>
 </defs>
 <g transform="matrix(3.7794 0 0 3.7794 .00012977 -.0022192)">
  <path class="ColorScheme-Highlight" transform="scale(.26458)" d="m27.002 8.9844-14 0.00391c-1.1112 0-1.4937 1.0155-2.0039 2.002h-2.9961a1.9956 1.9956 0 0 0-2.0039 1.9961v15.021h-2c-1.1077-3e-6 -1.998 0.89037-1.998 1.998v24c0 1.1077 0.89037 2 1.998 2h56.004c1.1077 0 1.998-0.89233 1.998-2v-11.936c0.0011-0.02741 0.0039-0.05434 0.0039-0.08203v-14.998c0-1.1112-0.89453-2.0039-2.002-2.0039h-2v-12a1.9956 1.9956 0 0 0-2.0039-2h-26.994c-0.58584-0.94112-0.89075-2.002-2.002-2.002z" fill="currentColor"/>
  <path d="m7.1441 2.3771-3.7041 0.00103c-0.294 0-0.39519 0.26867-0.53019 0.52967h-0.7927a0.528 0.528 0 0 0-0.53019 0.52812v3.9744h6.1933l0.15761-0.27026c0.147-0.253 0.23616-0.52916 0.52916-0.52916h6.879v-3.1749a0.528 0.528 0 0 0-0.53019-0.52916h-7.1421c-0.155-0.249-0.23567-0.52967-0.52967-0.52967z" fill="#000000" opacity=".2"/>
  <path transform="scale(.26458)" d="m32.002 12.986-9.0039 9h5.002v6.0215h1.4062l0.5957-1.0215c0.5556-0.95624 0.89258-2 2-2h3.998v-3h5.002l-9-8.9961z" fill="#ffffff"/>
  <path d="m16.404 11.641-3.1744 3.1749h2.6458c0.29307 0 0.52864-0.23557 0.52864-0.52864z" fill="url(#a)" opacity=".1"/>
 </g>
</svg>
