<svg width="64" height="64" version="1.1" viewBox="0 0 64 64" xmlns="http://www.w3.org/2000/svg">
 <defs>
  <style id="current-color-scheme" type="text/css">.ColorScheme-Text {
        color:#333333;
      }
      .ColorScheme-Background{
        color:#ffffff;
      }
      .ColorScheme-Highlight {
        color:#5294e2;
      }</style>
  <linearGradient id="linearGradient892" x1="-197.72" x2="-197.72" y1="263.86" y2="273.76" gradientTransform="rotate(-45,-337.55,-145.8)" gradientUnits="userSpaceOnUse">
   <stop offset="0"/>
   <stop stop-opacity="0" offset="1"/>
  </linearGradient>
 </defs>
 <g transform="scale(3.7796)">
  <path class="ColorScheme-Highlight" transform="scale(.26458)" d="m27.002 8.9844-14 0.00391c-1.1097 0-1.4926 1.0128-2.002 1.998v0.01367h-1c-2.216 0-4 1.784-4 4v5c-2.216 0-4 1.784-4 4v28c0 2.216 1.784 4 4 4h52c2.216 0 4-1.784 4-4v-32c0-2.216-1.784-4-4-4v-1c0-2.216-1.784-4-4-4h-16.859c-0.04729-0.0032-0.09249-0.01387-0.14062-0.01367h-7.9961c-0.58584-0.94113-0.8907-2.002-2.002-2.002z" fill="currentColor"/>
  <path id="shadow" d="m7.1441 2.3771-3.7041 0.00103c-0.2936 0-0.39492 0.26798-0.52967 0.52864v0.00362h-0.26458c-0.58631 0-1.0583 0.472-1.0583 1.0583v1.3229h6.6145l0.79373-1.0583h6.3499v-0.26458c0-0.58631-0.472-1.0583-1.0583-1.0583l-6.6134-0.00362c-0.155-0.249-0.23566-0.52967-0.52967-0.52967z" fill="#000000" opacity=".2"/>
  <path transform="scale(.26458)" d="m11.016 13.984c-1.1166 0-2.0156 0.89903-2.0156 2.0156v4h22l3-4h21c0-1.1166-0.89903-2.0156-2.0156-2.0156h-41.969z" fill="#ffffff"/>
  <rect x="3.704" y="2.64" width="3.175" height=".529" rx=".2645" ry=".2645" opacity=".25"/>
  <path transform="scale(.26458)" d="m62 40-16 16h12c2.216 0 4-1.784 4-4z" fill="url(#linearGradient892)" opacity=".2" style="fill:url(#linearGradient892)"/>
 </g>
 <path class="ColorScheme-Background" d="m27.041 46.665c-2.6893-0.68226-4.9449-1.2746-5.0123-1.3163-0.16918-0.10458-0.15723-2.4101 0.01247-2.4101 0.07434 0 2.2098 0.52886 4.7454 1.1753 2.5357 0.64642 4.8702 1.1753 5.188 1.1753 0.31775 0 2.6702-0.52763 5.2278-1.1726 2.5576-0.6449 4.7044-1.139 4.7707-1.098 0.16298 0.10073 0.15451 2.2333-0.0091 2.3345-0.09294 0.05749-10.033 2.5905-10.033 2.5567 0-0.0024-2.2003-0.5626-4.8897-1.2449zm-0.16086-5.9177c-2.5497-0.65803-4.7119-1.2467-4.8049-1.3083-0.10984-0.07257-0.16918-0.49715-0.16918-1.2099 0-0.97682 0.02835-1.098 0.25622-1.098 0.14094 0 2.3499 0.52891 4.9088 1.1753 2.5589 0.64642 4.8057 1.1753 4.9929 1.1753 0.18717 0 2.4276-0.52886 4.9788-1.1753 2.5512-0.64642 4.7337-1.1753 4.8501-1.1753 0.17685 0 0.20508 0.19801 0.17171 1.2052l-0.04018 1.2052-4.8395 1.2127c-2.6617 0.66697-5.0262 1.2075-5.2543 1.2011-0.22817-0.0064-2.5009-0.54992-5.0505-1.2079zm0.02608-5.8292c-2.6112-0.66671-4.8072-1.2718-4.88-1.3446-0.07279-0.07279-0.11411-0.65225-0.09181-1.2877l0.04071-1.1553 10.032-2.5011 4.3174 1.0802c2.3746 0.59409 4.6441 1.1709 5.0434 1.2819l0.72593 0.20172v1.1666c0 0.97046-0.04071 1.1879-0.24197 1.2936-0.31469 0.16517-9.7372 2.515-9.9983 2.4934-0.10957-0.0091-2.3356-0.56195-4.9469-1.2287z" fill="currentColor"/>
</svg>
