<svg width="64" height="64" version="1.1" viewBox="0 0 64 64" xmlns="http://www.w3.org/2000/svg">
 <defs>
  <style id="current-color-scheme" type="text/css">.ColorScheme-Text {
        color:#333333;
      }
      .ColorScheme-Background{
        color:#ffffff;
      }
      .ColorScheme-Highlight {
        color:#5294e2;
      }</style>
  <linearGradient id="linearGradient892" x1="-197.72" x2="-197.72" y1="263.86" y2="273.76" gradientTransform="matrix(.70711 -.70711 .70711 .70711 4.2301 -281.39)" gradientUnits="userSpaceOnUse">
   <stop offset="0"/>
   <stop stop-opacity="0" offset="1"/>
  </linearGradient>
 </defs>
 <g transform="scale(3.7796)">
  <path class="ColorScheme-Highlight" transform="scale(.26458)" d="m27.002 8.9844-14 0.00391c-1.1097 0-1.4926 1.0128-2.002 1.998v0.01367h-1c-2.216 0-4 1.784-4 4v5c-2.216 0-4 1.784-4 4v28c0 2.216 1.784 4 4 4h52c2.216 0 4-1.784 4-4v-32c0-2.216-1.784-4-4-4v-1c0-2.216-1.784-4-4-4h-16.859c-0.04729-0.0032-0.09249-0.01387-0.14062-0.01367h-7.9961c-0.58584-0.94113-0.8907-2.002-2.002-2.002z" fill="currentColor"/>
  <path id="shadow" d="m7.1441 2.3771-3.7041 0.00103c-0.2936 0-0.39492 0.26798-0.52967 0.52864v0.00362h-0.26458c-0.58631 0-1.0583 0.472-1.0583 1.0583v1.3229h6.6145l0.79373-1.0583h6.3499v-0.26458c0-0.58631-0.472-1.0583-1.0583-1.0583l-6.6134-0.00362c-0.155-0.249-0.23566-0.52967-0.52967-0.52967z" fill="#000000" opacity=".2"/>
  <path transform="scale(.26458)" d="m11.016 13.984c-1.1166 0-2.0156 0.89903-2.0156 2.0156v4h22l3-4h21c0-1.1166-0.89903-2.0156-2.0156-2.0156h-41.969z" fill="#ffffff"/>
  <rect x="3.704" y="2.64" width="3.175" height=".529" rx=".2645" ry=".2645" opacity=".25"/>
  <path transform="scale(.26458)" d="m62 40-16 16h12c2.216 0 4-1.784 4-4z" fill="url(#linearGradient892)" opacity=".2"/>
 </g>
 <path d="m27.43 49c0.22726-0.02794 0.41249-0.11714 0.56968-0.27477 0.13337-0.13377 0.21928-0.29204 0.25585-0.47135 0.02075-0.10171 0.02269-0.21534 0.02092-1.2248l-0.0018-1.0028-0.67385-0.0041c-0.37062-0.0023-0.68666-0.0058-0.70232-0.0078-0.01574-0.0021-0.07119-0.0069-0.12339-0.01057-0.2132-0.01499-0.46-0.04695-0.66752-0.08596-0.77018-0.14461-1.3734-0.43094-1.8017-0.85508-0.26818-0.26555-0.44877-0.55836-0.5901-0.95677-0.2201-0.62051-0.54279-1.1249-1.0343-1.6168-0.20547-0.20563-0.33732-0.32046-0.71594-0.62351-0.35273-0.28233-0.44521-0.37951-0.44521-0.46778 0-0.05779 0.04382-0.10065 0.16102-0.15756 0.16484-0.08004 0.32559-0.11264 0.52444-0.10641 0.23758 0.0075 0.46808 0.07305 0.73646 0.20965 0.31582 0.16072 0.63689 0.40281 0.97831 0.73772 0.20906 0.20506 0.35745 0.37107 0.5942 0.6648 0.71518 0.88729 1.1686 1.2195 1.8173 1.3312 0.1926 0.03305 0.27347 0.03827 0.60741 0.03827 0.31713 0 0.39256-0.0038 0.59158-0.02862 0.27572-0.03472 0.52818-0.09841 0.68705-0.17333l0.0575-0.02726 0.0041-0.11319c0.02389-0.66464 0.28047-1.2446 0.74824-1.691 0.07573-0.0723 0.19599-0.17238 0.26344-0.21923 0.01983-0.01397 0.03626-0.02692 0.03638-0.02896 1.35e-4 -0.0023-0.01431-0.0058-0.03213-0.0082-0.06698-0.0088-0.39373-0.0676-0.53074-0.09533-1.2619-0.25538-2.3039-0.65354-3.1601-1.2076-0.52284-0.33828-0.97705-0.74133-1.338-1.1875-0.64093-0.79197-1.0269-1.7361-1.1639-2.8473-0.06649-0.53914-0.07117-1.1965-0.01288-1.8064 0.13118-1.3725 0.56844-2.555 1.3233-3.5785 0.01206-0.01625 0.01206-0.01645-0.0232-0.14552-0.33397-1.2258-0.31121-2.5288 0.06796-3.8907l0.01493-0.05378 0.12288 9.91e-4c0.50968 0.0041 1.1753 0.15604 1.8122 0.41352 0.6323 0.25559 1.2999 0.64223 1.7823 1.0323 0.03373 0.02726 0.06485 0.04957 0.06916 0.04957 0.0043 0 0.06432-0.01717 0.13332-0.03818 0.76044-0.2314 1.6335-0.39262 2.517-0.46476 0.40205-0.03285 0.69486-0.04379 1.1705-0.04379 0.48961 0 0.79624 0.01193 1.2085 0.04703 0.89161 0.07592 1.7114 0.22781 2.5047 0.4641l0.11628 0.03463 0.09886-0.07712c0.14193-0.11074 0.24254-0.18304 0.41647-0.29932 1.0079-0.67377 2.1737-1.0904 3.1344-1.12l0.13026-0.0041 0.0095 0.03736c0.0054 0.02055 0.02283 0.08576 0.03864 0.14492 0.27416 1.0185 0.3376 2.0663 0.18413 3.0402-0.03452 0.219-0.09251 0.49682-0.14178 0.67917-0.01397 0.05165-0.02521 0.09823-0.02521 0.1035 0 0.0053 0.02931 0.04843 0.06521 0.0959 0.49046 0.64905 0.85179 1.3751 1.0825 2.1751 0.18369 0.63692 0.27872 1.278 0.30217 2.0378 0.02351 0.76229-0.06164 1.4866-0.25082 2.134-0.22053 0.75468-0.57751 1.4093-1.0903 1.9994-0.09677 0.11132-0.36601 0.38215-0.47891 0.48168-0.84986 0.74929-1.9368 1.2887-3.3123 1.6436-0.33857 0.08736-0.85396 0.19401-1.1516 0.23824-0.04002 0.0058-0.07493 0.0126-0.07756 0.01499-0.0026 0.0024 0.02583 0.02726 0.06328 0.05533 0.25724 0.19286 0.48806 0.44972 0.64635 0.71926 0.13955 0.23766 0.24423 0.52672 0.29129 0.80453 0.0372 0.2195 0.03419 0.02522 0.0384 2.4959 0.0037 2.1091 0.0045 2.2656 0.01472 2.3158 0.02961 0.14559 0.07184 0.24979 0.14878 0.36698 0.04637 0.07063 0.17608 0.20056 0.2477 0.24806 0.14058 0.09329 0.28983 0.1472 0.45057 0.16273 0.02896 0.0029-2.0702 0.0051-4.6645 0.0054-3.8694 1.47e-4 -4.7049-0.0013-4.6505-0.0078z" class="ColorScheme-Background" fill="currentColor"/>
</svg>
