<svg width="64" height="64" version="1.1" xmlns="http://www.w3.org/2000/svg">
 <defs>
  <style id="current-color-scheme" type="text/css">.ColorScheme-Text {
        color:#333333;
      }
      .ColorScheme-Background{
        color:#ffffff;
      }
      .ColorScheme-Highlight {
        color:#5294e2;
      }</style>
  <linearGradient id="linearGradient892" x1="-197.72" x2="-197.72" y1="263.86" y2="273.76" gradientTransform="rotate(-45,-337.55,-145.8)" gradientUnits="userSpaceOnUse">
   <stop offset="0"/>
   <stop stop-opacity="0" offset="1"/>
  </linearGradient>
 </defs>
 <g transform="scale(3.7796)">
  <path class="ColorScheme-Highlight" transform="scale(.26458)" d="m27.002 8.9844-14 0.00391c-1.1097 0-1.4926 1.0128-2.002 1.998v0.01367h-1c-2.216 0-4 1.784-4 4v5c-2.216 0-4 1.784-4 4v28c0 2.216 1.784 4 4 4h52c2.216 0 4-1.784 4-4v-32c0-2.216-1.784-4-4-4v-1c0-2.216-1.784-4-4-4h-16.859c-0.04729-0.0032-0.09249-0.01387-0.14062-0.01367h-7.9961c-0.58584-0.94113-0.8907-2.002-2.002-2.002z" fill="currentColor"/>
  <path id="shadow" d="m7.1441 2.3771-3.7041 0.00103c-0.2936 0-0.39492 0.26798-0.52967 0.52864v0.00362h-0.26458c-0.58631 0-1.0583 0.472-1.0583 1.0583v1.3229h6.6145l0.79373-1.0583h6.3499v-0.26458c0-0.58631-0.472-1.0583-1.0583-1.0583l-6.6134-0.00362c-0.155-0.249-0.23566-0.52967-0.52967-0.52967z" fill="#000000" opacity=".2"/>
  <path transform="scale(.26458)" d="m11.016 13.984c-1.1166 0-2.0156 0.89903-2.0156 2.0156v4h22l3-4h21c0-1.1166-0.89903-2.0156-2.0156-2.0156h-41.969z" fill="#ffffff"/>
  <rect x="3.704" y="2.64" width="3.175" height=".529" rx=".2645" ry=".2645" opacity=".25"/>
  <path transform="scale(.26458)" d="m62 40-16 16h12c2.216 0 4-1.784 4-4z" fill="url(#linearGradient892)" opacity=".2" style="fill:url(#linearGradient892)"/>
 </g>
 <path class="ColorScheme-Background" d="m37.297 28.99c-0.30124 0.0012-0.57998 0.1-0.84248 0.28749-0.66248 0.47749-2.0349 0.97497-4.4474 0.97497-2.4249 0-3.7999-0.49749-4.4624-0.97497-0.26249-0.1875-0.51248-0.27499-0.81248-0.27499-0.29999 0-0.65123 0.0875-1.0137 0.27499-1.2875 0.68998-2.4874 2.9174-3.1374 5.8236-0.54998 2.4799-0.74998 5.8486-0.42499 7.2048 0.28749 1.1775 0.78748 1.6937 1.675 1.6937 1.3-0.025 2.9374-1.4825 3.9874-3.4499 0.74998-1.09 2.4999-1.5787 4.1874-1.5275 1.675-0.0625 3.4262 0.43749 4.1761 1.5275 1.05 1.9674 2.6862 3.4249 3.9986 3.4499 0.87498 0 1.375-0.51624 1.6625-1.6937 0.32499-1.3562 0.125-4.7249-0.42499-7.2048-0.64998-2.9062-1.8499-5.1336-3.1374-5.8223-0.35624-0.195-0.68123-0.28999-0.98372-0.28749zm-10.297 3.7599h1.25v1.25h1.25v1.25h-1.25v1.25h-1.25v-1.25h-1.25v-1.25h1.25zm9.3747 0a0.62498 0.62498 0 0 1 0.62498 0.62498 0.62498 0.62498 0 0 1-0.62498 0.62498 0.62498 0.62498 0 0 1-0.62498-0.62498 0.62498 0.62498 0 0 1 0.62498-0.62498zm-1.25 1.25a0.62498 0.62498 0 0 1 0.62498 0.62498 0.62498 0.62498 0 0 1-0.62498 0.62498 0.62498 0.62498 0 0 1-0.62498-0.62498 0.62498 0.62498 0 0 1 0.62498-0.62498zm2.4999 0a0.62498 0.62498 0 0 1 0.62498 0.62498 0.62498 0.62498 0 0 1-0.62498 0.62498 0.62498 0.62498 0 0 1-0.62498-0.62498 0.62498 0.62498 0 0 1 0.62498-0.62498zm-1.25 1.25a0.62498 0.62498 0 0 1 0.62498 0.62498 0.62498 0.62498 0 0 1-0.62498 0.62498 0.62498 0.62498 0 0 1-0.62498-0.62498 0.62498 0.62498 0 0 1 0.62498-0.62498z" fill="currentColor"/>
</svg>
