<svg width="64" height="64" version="1.1" viewBox="0 0 64 64" xmlns="http://www.w3.org/2000/svg">
 <defs>
  <style id="current-color-scheme" type="text/css">.ColorScheme-Text {
        color:#333333;
      }
      .ColorScheme-Background{
        color:#ffffff;
      }
      .ColorScheme-Highlight {
        color:#5294e2;
      }</style>
  <linearGradient id="linearGradient892" x1="-197.72" x2="-197.72" y1="263.86" y2="273.76" gradientTransform="rotate(-45,-337.55,-145.8)" gradientUnits="userSpaceOnUse">
   <stop offset="0"/>
   <stop stop-opacity="0" offset="1"/>
  </linearGradient>
 </defs>
 <g transform="scale(3.7796)">
  <path class="ColorScheme-Highlight" transform="scale(.26458)" d="m27.002 8.9844-14 0.00391c-1.1097 0-1.4926 1.0128-2.002 1.998v0.01367h-1c-2.216 0-4 1.784-4 4v5c-2.216 0-4 1.784-4 4v28c0 2.216 1.784 4 4 4h52c2.216 0 4-1.784 4-4v-32c0-2.216-1.784-4-4-4v-1c0-2.216-1.784-4-4-4h-16.859c-0.04729-0.0032-0.09249-0.01387-0.14062-0.01367h-7.9961c-0.58584-0.94113-0.8907-2.002-2.002-2.002z" fill="currentColor"/>
  <path id="shadow" d="m7.1441 2.3771-3.7041 0.00103c-0.2936 0-0.39492 0.26798-0.52967 0.52864v0.00362h-0.26458c-0.58631 0-1.0583 0.472-1.0583 1.0583v1.3229h6.6145l0.79373-1.0583h6.3499v-0.26458c0-0.58631-0.472-1.0583-1.0583-1.0583l-6.6134-0.00362c-0.155-0.249-0.23566-0.52967-0.52967-0.52967z" fill="#000000" opacity=".2"/>
  <path transform="scale(.26458)" d="m11.016 13.984c-1.1166 0-2.0156 0.89903-2.0156 2.0156v4h22l3-4h21c0-1.1166-0.89903-2.0156-2.0156-2.0156h-41.969z" fill="#ffffff"/>
  <rect x="3.704" y="2.64" width="3.175" height=".529" rx=".2645" ry=".2645" opacity=".25"/>
  <path transform="scale(.26458)" d="m62 40-16 16h12c2.216 0 4-1.784 4-4z" fill="url(#linearGradient892)" opacity=".2" style="fill:url(#linearGradient892)"/>
 </g>
 <path class="ColorScheme-Background" d="m28 27c-0.554 0-1 0.446-1 1v3h10v-3c0-0.554-0.446-1-1-1zm-4 5c-1.108 0-2 0.892-2 2v4c0 1.108 0.892 2 2 2h2v-2c0-0.554 0.446-1 1-1h10c0.554 0 1 0.446 1 1v2h2c1.108 0 2-0.892 2-2v-4c0-1.108-0.892-2-2-2zm1.5 2c0.27614 0 0.5 0.22386 0.5 0.5s-0.22386 0.5-0.5 0.5-0.5-0.22386-0.5-0.5 0.22386-0.5 0.5-0.5zm1.5 4v6c0 0.554 0.446 1 1 1h8c0.554 0 1-0.446 1-1v-6z" fill="currentColor"/>
</svg>
