<svg width="64" height="64" version="1.1" viewBox="0 0 64 64" xmlns="http://www.w3.org/2000/svg">
 <defs>
  <style id="current-color-scheme" type="text/css">.ColorScheme-Text {
        color:#333333;
      }
      .ColorScheme-Highlight {
        color:#5294e2;
      }</style>
  <linearGradient id="linearGradient1120" x1="12.494" x2="2.8856" y1="291.67" y2="284.49" gradientTransform="matrix(4.0493 0 0 3.7795 -2.2855 -1058.5)" gradientUnits="userSpaceOnUse">
   <stop stop-color="#f9f7ff" offset="0"/>
   <stop stop-color="#000000" offset="1"/>
  </linearGradient>
 </defs>
 <rect class="ColorScheme-Highlight" x="2.0004" y="9" width="59.999" height="46" rx="1.9996" ry="1.9996" fill="currentColor" stroke-width="3.7795"/>
 <rect x="2" y="9" width="60" height="46" rx="2" ry="2" fill="url(#linearGradient1120)" opacity=".15" style="mix-blend-mode:overlay"/>
 <path d="m4 9c-1.1078 0-2 0.89223-2 2v1.998h60v-1.998c0-1.1078-0.89223-2-2-2h-56z" fill="#000000" opacity=".15"/>
 <rect x="5.9991" y="9.9978" width="3.9987" height="1.9993" ry="1.0016" fill="#000000" opacity=".35"/>
 <rect x="27.002" y="9.9978" width="10" height="1.9993" ry="1.0016" fill="#000000" opacity=".35"/>
 <rect x="56.999" y="9.9978" width="1.9993" height="1.9993" ry="1.0016" fill="#000000" opacity=".35"/>
 <rect x="53.001" y="9.9978" width="3.0009" height="1.9993" ry="1.0016" fill="#000000" opacity=".35"/>
 <rect x="50" y="9.9978" width="1.9993" height="1.9993" ry="1.0016" fill="#000000" opacity=".35"/>
 <path d="m15.003 50.998c-1.1077 0-1.9999 0.89231-1.9999 1.9999v2.0019h37.999v-2.0019c0-1.1077-0.89231-1.9999-1.9999-1.9999z" fill="#ffffff" opacity=".35"/>
 <path class="ColorScheme-Highlight" d="m18.002 47c-0.554 0-1 0.446-1 1v4c0 0.554 0.446 1 1 1h4c0.554 0 1-0.446 1-1v-4c0-0.554-0.446-1-1-1h-4zm7.9961 0c-0.554 0-1 0.446-1 1v4c0 0.554 0.446 1 1 1h4c0.554 0 1-0.446 1-1v-4c0-0.554-0.446-1-1-1h-4zm8 0c-0.554 0-1 0.446-1 1v4c0 0.554 0.446 1 1 1h4c0.554 0 1-0.446 1-1v-4c0-0.554-0.446-1-1-1h-4zm8 0c-0.554 0-1 0.446-1 1v4c0 0.554 0.446 1 1 1h4c0.554 0 1-0.446 1-1v-4c0-0.554-0.446-1-1-1h-4z" fill="currentColor"/>
 <path class="ColorScheme-Highlight" d="m18.002 47c-0.554 0-1 0.446-1 1v4c0 0.554 0.446 1 1 1h4c0.554 0 1-0.446 1-1v-4c0-0.554-0.446-1-1-1h-4zm7.9961 0c-0.554 0-1 0.446-1 1v4c0 0.554 0.446 1 1 1h4c0.554 0 1-0.446 1-1v-4c0-0.554-0.446-1-1-1h-4zm8 0c-0.554 0-1 0.446-1 1v4c0 0.554 0.446 1 1 1h4c0.554 0 1-0.446 1-1v-4c0-0.554-0.446-1-1-1h-4zm8 0c-0.554 0-1 0.446-1 1v4c0 0.554 0.446 1 1 1h4c0.554 0 1-0.446 1-1v-4c0-0.554-0.446-1-1-1h-4z" fill="#ffffff" opacity=".65"/>
</svg>
