<svg width="64" height="64" version="1.1" viewBox="0 0 64 64" xmlns="http://www.w3.org/2000/svg">
 <defs>
  <style id="current-color-scheme" type="text/css">.ColorScheme-Text {
        color:#333333;
      }
      .ColorScheme-Highlight {
        color:#5294e2;
      }</style>
  <linearGradient id="a-3" x1="-197.1" x2="-196.91" y1="217.68" y2="219.37" gradientTransform="matrix(2.6726 -2.6726 2.6726 2.6726 -.0085892 -1059.5)" gradientUnits="userSpaceOnUse">
   <stop offset="0"/>
   <stop stop-opacity="0" offset="1"/>
  </linearGradient>
 </defs>
 <path class="ColorScheme-Highlight" d="m26.996 8-13.998 0.00391c-1.1111 0-1.4917 1.0158-2.002 2.002h-2.998a1.9955 1.9951 0 0 0-2.002 1.9961v7.0039h-1.998c-1.1077 0-1.998 0.89249-1.998 2v31.996c0 1.1075 0.89042 1.998 1.998 1.998h56.004c1.1077 0 1.998-0.88667 1.998-1.9941v-35.994c0-1.111-0.89067-2.0117-1.998-2.0117h-2.0059v-2.998a1.9955 1.9951 0 0 0-2.0039-2h-26.992c-0.5858-0.94085-0.89278-2.002-2.0039-2.002z" fill="currentColor"/>
 <path d="m27.002 7.9961-13.998 0.00391c-1.1111 0-1.4937 1.0158-2.0039 2.002h-2.9961a1.9955 1.9951 0 0 0-2.0039 1.9961v7.0078h22.83l1.1719-2.0078c0.5556-0.9562 0.8926-1.998 2-1.998h25.998v-3.002a1.9955 1.9951 0 0 0-2.0039-2h-26.992c-0.5858-0.94085-0.89083-2.002-2.002-2.002z" fill="#000000" opacity=".2"/>
 <path d="m10 12.986c-0.55488 0-1 0.44708-1 1.002v5.0176h19.83l1.1719-2.0078c0.5556-0.95606 0.8926-1.998 2-1.998h22.998v-1.0117c0-0.55488-0.44708-1.002-1.002-1.002h-43.998z" fill="#ffffff"/>
 <rect x="13.999" y="8.9804" width="12" height="2" rx="1" ry="1" opacity=".25" stroke-width="1.0002"/>
 <path d="m62 43-11.998 12h10c1.1077 0 1.998-0.89035 1.998-1.998z" fill="url(#a-3)" opacity=".1"/>
 <path d="m32.004 27a9 9 0 0 0-9.0038 9 9 9 0 0 0 9.0038 9 9 9 0 0 0 8.9962-8.9962 9 9 0 0 0-8.9962-9.0038zm0.80134 0.9601c0.87694 0.07938 1.7236 0.27972 2.4948 0.61613a0.75598 0.75598 0 0 0-0.14742 0.2646c-0.23814 0.71062-0.58967 0.37043-0.17388 1.2625 0.41579 0.88828 0.75976 1.1189 0.88072 0.70307 0.11718-0.41579-0.30239-1.0017 0.17388-0.76354 0.47627 0.23814 0.82402-0.06426 0.46871 0.46871-0.35531 0.53675-0.34775 0.82402-0.76354 0.70685-0.41579-0.12096-0.40445 0.70307-0.82024 0.82024-0.41579 0.11718-0.55943-0.17766-0.55943 0.11718 0 0.29861 0.23814 0.02268 0.17766 0.49895-0.0189 0.14742-0.01512 0.17388-0.03024 0.23436-0.38933-0.1134-0.56321-0.1701-0.85048-0.0567-0.29483 0.11718-0.64259 0.87694-0.64259 0.87694 0.36665 0.37043 0.54053 0.63881 0.67283 0.76354-0.08316 0.04158-0.18144 0.06048-0.2646 0.11718-0.59345 0.41579-1.0546 0.49139-1.2323 1.0886-0.17766 0.59345-0.11718 0.04914-0.11718 0.75976 0 0.71441-0.18144 0.23058 0.17388 0.8845 0.35531 0.65015 1.2285 0.96388 1.6443 1.323 0.41579 0.35153 0.84292-0.77866 1.6745 0.29105 0.83158 1.0659 0.8845 0.63881 0.58589 1.2323-0.29483 0.59345-0.58589 0.79-0.70306 1.0244-0.12096 0.23814 0.2268 1.0584 0.64259 1.2323h0.03024l-0.0567 0.1512c-0.53675 0.24192-1.1982 0.57833-1.323 0.61613-0.29105 0.08316-1.3268 0.25704-2.079 0.46871-0.09828 0.02646-0.17388 0.02646-0.2079 0.03024 0.09072-0.10206 0.83536-0.49139 1.202-0.70685 0.50273-0.29105-0.03024-0.2646-0.03024-0.2646s-0.79756-0.08694-2.4343-0.08694c-0.81646 0-1.1718 0.0378-1.3494 0.08694a0.46115 0.46115 0 0 0-0.17766 0.09072c-0.04536 0.0378-0.0756 0.0756-0.14742 0.11718-0.29483 0.16632 0.17388 0.34019-0.20412 0.46871-0.28349 0.0945-0.31751 0-0.55943-0.17766 0.17388-0.1701 0.41201-0.37799 0.70685-0.7333 0.52919-0.64259 0.70306-0.52919 0.88072-1.1151 0.17766-0.58589-1.4968-0.41201-1.4968-0.76354s-0.29105-0.58589-0.82402-0.82024c-0.53297-0.23436-0.1701-0.35153-0.76354-0.52919-0.59345-0.17388-1.2587 0.88072-1.4364 0.52919-0.17766-0.35153 0.55565-0.35153 0.55565-0.76354 0-0.40067-0.84292 0.30239-0.9979-0.20412 0-0.0189-0.02646-0.0189-0.02646-0.03024-0.01512-0.0756-0.0076-0.12096 0-0.17766 0.0378-0.42335 0.52541-0.58589 0.7333-0.9979 0.23436-0.46871 0.1134 0.35153 0.41201 0.76354 0.29483 0.41201 0.17766-0.52919 0-1.0584-0.18144-0.52919 0.1134-0.52919 0.52919-1.2323 0.41201-0.70306 0.40823-1.1151 0.40823-1.6405 0-0.52919 0.28727-0.58967 0.88072-1.1189 0.27216-0.24192 0.48383-0.45359 0.64259-0.64259 0.04158-0.0189 0.07938-0.0189 0.12096-0.03024 0.62747-0.25326 0.89206-0.63125 1.4364-1.7614 0.54431-1.134-0.21168-0.0756-0.37799-0.11718-0.1701-0.04158-0.41579-0.34019-1.0017-0.67661a0.93364 0.93364 0 0 0-0.32129-0.1134l1.0848-1.7955c0.34775-0.09072 0.71818-0.15498 1.0848-0.20412 0.13608 0.75976 0.06048 1.4704 0.06048 1.4704s-0.2079 0.24192-0.2079 0.40823c0 0.1701 1.1264-1.3835 1.2927-1.4666 0.1701-0.08316 0.59345 0.44225 0.67661-0.35153zm1.4855 3.1676a0.66527 0.66527 0 0 0-0.10584 0.03402c0 0.20412-0.08316 0.35531-0.11718 0.43847-0.02268-0.0378-0.08694-0.09072-0.08694-0.09072-0.09072 0.16632-0.28349 0.30995-0.09072 0.2646 0.19278-0.0378 0.34019 0.0756 0.2079-0.08694l-0.03024-0.03024c0.02268 0.0189 0.0756 0.03024 0.17766 0.03024h0.26459c-0.14742 0.10584-0.30239 0.1512-0.09072 0.2079 0.28349 0.0756 0.41201 0.08694 0.41201 0.03024a1.3683 1.3683 0 0 0-0.09072-0.2646c0.0567-0.02268 0.10584-0.05292 0.06048-0.1512-0.09072-0.17388-0.2268-0.35153-0.41201-0.37799a0.26459 0.26459 0 0 0-0.09828-0.0076zm4.5888 0.49895c0.14742 0.2268 0.28727 0.46115 0.41201 0.70685-0.08316 0.47249-0.29105 0.79378 0.0567 0.79378 0.09828 0 0.189-0.02268 0.2646-0.03402l0.03024 0.08694c-0.59345 0-0.87694 0.17766-1.1718 0.12096-0.29861-0.06048-1.1226-0.1134-0.58967-0.64637 0.31373-0.31373 0.70307-0.8089 0.9979-1.0281zm-3.6968 1.0848c0.05292 0.02268 0.10206 0.0756 0.14742 0.17766 0.17766 0.41579 0.47249 0.76354 0.23436 0.82024a1.7992 1.7992 0 0 0-0.35153 0.12096s0.82024 0.53297 0.88072-0.06048c0.0567-0.59345-0.23436-0.93742-0.23436-0.93742s0.40823 0.40823 0.52919 0.64259c0.1134 0.23814 0.1134 0 0.40823 0.29483 0.29484 0.29861 0.2268-1.1756 0.64259-0.76354 0.41579 0.41579 0.68039 0.40823 0.55943 0.70307-0.11718 0.29861 0.76354-0.35531 0.76354 0.23814 0 0.57077 0.36665 0.80134-0.35153 1.0848-0.27215-0.0189-0.48761-0.06426-0.52919-0.14742-0.11718-0.23814-0.79378-0.0567-0.79378-0.0567-1.7728-0.44225-2.5439-0.58589-3.0504-0.49895 0.0076-0.0189 0.0189-0.0189 0.03024-0.03024 0.25704-0.46871 0.74464-1.1151 0.58589-1.3494 0.2268-0.1323 0.40445-0.27215 0.52919-0.23436zm4.9895 2.9672v0.35153c0 0.33641-0.0189 0.67283-0.0567 0.9979-0.53675-0.47627-1.2927-0.46871-1.2927-0.46871s0.46115-0.52919 1.1151-0.76354a1.0281 1.0281 0 0 0 0.23436-0.11718z" fill="#ffffff" stroke-width="3.7799"/>
</svg>
