<svg width="64" height="64" version="1.1" viewBox="0 0 64 64" xmlns="http://www.w3.org/2000/svg">
 <defs>
  <style id="current-color-scheme" type="text/css">.ColorScheme-Text {
        color:#333333;
      }
      .ColorScheme-Background{
        color:#ffffff;
      }
      .ColorScheme-Highlight {
        color:#5294e2;
      }</style>
  <linearGradient id="linearGradient892" x1="-197.72" x2="-197.72" y1="263.86" y2="273.76" gradientTransform="rotate(-45,-337.55,-145.8)" gradientUnits="userSpaceOnUse">
   <stop offset="0"/>
   <stop stop-opacity="0" offset="1"/>
  </linearGradient>
 </defs>
 <g transform="scale(3.7796)">
  <path class="ColorScheme-Highlight" transform="scale(.26458)" d="m27.002 8.9844-14 0.00391c-1.1097 0-1.4926 1.0128-2.002 1.998v0.01367h-1c-2.216 0-4 1.784-4 4v5c-2.216 0-4 1.784-4 4v28c0 2.216 1.784 4 4 4h52c2.216 0 4-1.784 4-4v-32c0-2.216-1.784-4-4-4v-1c0-2.216-1.784-4-4-4h-16.859c-0.04729-0.0032-0.09249-0.01387-0.14062-0.01367h-7.9961c-0.58584-0.94113-0.8907-2.002-2.002-2.002z" fill="currentColor"/>
  <path id="shadow" d="m7.1441 2.3771-3.7041 0.00103c-0.2936 0-0.39492 0.26798-0.52967 0.52864v0.00362h-0.26458c-0.58631 0-1.0583 0.472-1.0583 1.0583v1.3229h6.6145l0.79373-1.0583h6.3499v-0.26458c0-0.58631-0.472-1.0583-1.0583-1.0583l-6.6134-0.00362c-0.155-0.249-0.23566-0.52967-0.52967-0.52967z" fill="#000000" opacity=".2"/>
  <path transform="scale(.26458)" d="m11.016 13.984c-1.1166 0-2.0156 0.89903-2.0156 2.0156v4h22l3-4h21c0-1.1166-0.89903-2.0156-2.0156-2.0156h-41.969z" fill="#ffffff"/>
  <rect x="3.704" y="2.64" width="3.175" height=".529" rx=".2645" ry=".2645" opacity=".25"/>
  <path transform="scale(.26458)" d="m62 40-16 16h12c2.216 0 4-1.784 4-4z" fill="url(#linearGradient892)" opacity=".2" style="fill:url(#linearGradient892)"/>
 </g>
 <path d="m31.223 27.5-8.9119 5.1195 9.7336 5.621 9.644-5.621-8.8208-5.1195v3.9312l3.4741 2.0101c0.13739 0.0456 0.13739 0.27478 0 0.36657l-4.113 2.3755c-0.13739 0.04618-0.27536 0.04618-0.36657 0l-4.113-2.3755c-0.13739-0.04618-0.13739-0.27536 0-0.36657l3.4741-2.0107zm10.466 5.1195-9.644 5.6222-9.7336-5.6222v10.192l3.3811-1.9656v-3.9758c0-0.13682 0.18242-0.22919 0.2742-0.18356l4.1141 2.3766c0.1374 0.04619 0.18242 0.1824 0.18242 0.36541v4.754c0.09179 0.13682-0.09179 0.22802-0.2286 0.18244l-3.4741-2.0101-3.3811 1.9639 8.8654 5.1195 8.8208-5.1195-3.3817-1.9639-3.4741 2.0563c-0.13681 0.09181-0.27363-0.04619-0.27363-0.18354v-4.7528c0-0.13682 0.09121-0.27364 0.18242-0.36541l4.113-2.3766c0.13739-0.09122 0.27534 0.04559 0.27534 0.18242v3.9758l3.3811 1.9656z" class="ColorScheme-Background" fill="currentColor"/>
</svg>
