<svg width="64" height="64" version="1.1" viewBox="0 0 64 64" xmlns="http://www.w3.org/2000/svg">
 <defs>
  <style id="current-color-scheme" type="text/css">.ColorScheme-Text {
        color:#333333;
      }
      .ColorScheme-Background{
        color:#ffffff;
      }
      .ColorScheme-Highlight {
        color:#5294e2;
      }</style>
  <linearGradient id="linearGradient892" x1="-197.72" x2="-197.72" y1="263.86" y2="273.76" gradientTransform="rotate(-45,-337.55,-145.8)" gradientUnits="userSpaceOnUse">
   <stop offset="0"/>
   <stop stop-opacity="0" offset="1"/>
  </linearGradient>
 </defs>
 <g transform="scale(3.7796)">
  <path class="ColorScheme-Highlight" transform="scale(.26458)" d="m27.002 8.9844-14 0.00391c-1.1097 0-1.4926 1.0128-2.002 1.998v0.01367h-1c-2.216 0-4 1.784-4 4v5c-2.216 0-4 1.784-4 4v28c0 2.216 1.784 4 4 4h52c2.216 0 4-1.784 4-4v-32c0-2.216-1.784-4-4-4v-1c0-2.216-1.784-4-4-4h-16.859c-0.04729-0.0032-0.09249-0.01387-0.14062-0.01367h-7.9961c-0.58584-0.94113-0.8907-2.002-2.002-2.002z" fill="currentColor"/>
  <path id="shadow" d="m7.1441 2.3771-3.7041 0.00103c-0.2936 0-0.39492 0.26798-0.52967 0.52864v0.00362h-0.26458c-0.58631 0-1.0583 0.472-1.0583 1.0583v1.3229h6.6145l0.79373-1.0583h6.3499v-0.26458c0-0.58631-0.472-1.0583-1.0583-1.0583l-6.6134-0.00362c-0.155-0.249-0.23566-0.52967-0.52967-0.52967z" fill="#000000" opacity=".2"/>
  <path transform="scale(.26458)" d="m11.016 13.984c-1.1166 0-2.0156 0.89903-2.0156 2.0156v4h22l3-4h21c0-1.1166-0.89903-2.0156-2.0156-2.0156h-41.969z" fill="#ffffff"/>
  <rect x="3.704" y="2.64" width="3.175" height=".529" rx=".2645" ry=".2645" opacity=".25"/>
  <path transform="scale(.26458)" d="m62 40-16 16h12c2.216 0 4-1.784 4-4z" fill="url(#linearGradient892)" opacity=".2" style="fill:url(#linearGradient892)"/>
 </g>
 <path class="ColorScheme-Background" d="m42.321 37.549-9.3665-9.2336c-0.53918-0.53191-1.4141-0.53191-1.9539 0l-1.9448 1.9176 2.4671 2.4323c0.57347-0.19089 1.231-0.06277 1.6879 0.38776 0.45965 0.45333 0.58841 1.1071 0.38987 1.6744l2.378 2.3441c0.57545-0.19553 1.2389-0.06914 1.6986 0.38463 0.64204 0.63277 0.64204 1.6585 0 2.2918-0.6425 0.63331-1.6828 0.63331-2.3256 0-0.48288-0.47651-0.60235-1.1761-0.35749-1.7626l-2.2179-2.1864v5.7534c0.15642 0.07639 0.30414 0.17817 0.43456 0.30641 0.64204 0.63288 0.64204 1.6585 0 2.2924-0.64204 0.63268-1.6831 0.63268-2.3246 0-0.64204-0.63385-0.64204-1.6595 0-2.2924 0.1587-0.15625 0.34245-0.27447 0.53852-0.35362v-5.8066c-0.19605-0.07912-0.37939-0.19636-0.53852-0.35369-0.48627-0.47923-0.60328-1.1829-0.35385-1.7717l-2.4323-2.3982-6.4227 6.3312c-0.53944 0.53235-0.53944 1.3948 0 1.9267l9.367 9.2336c0.53926 0.5318 1.4139 0.5318 1.9539 0l9.3228-9.1909c0.53962-0.53198 0.53962-1.3949 0-1.9267" fill="currentColor"/>
</svg>
