<svg width="64" height="64" version="1.1" viewBox="0 0 64 64" xmlns="http://www.w3.org/2000/svg">
 <defs>
  <linearGradient id="linearGradient892" x1="-197.72" x2="-197.72" y1="263.86" y2="273.76" gradientTransform="matrix(.70711 -.70711 .70711 .70711 4.2301 -281.39)" gradientUnits="userSpaceOnUse">
   <stop offset="0"/>
   <stop stop-opacity="0" offset="1"/>
  </linearGradient>
 </defs>
 <path d="m27.002 8.9845-14 0.00391c-1.1097 0-1.4926 1.0128-2.002 1.998v0.01367h-1c-2.216 0-4 1.784-4 4v5c-2.216 0-4 1.784-4 4v28c0 2.216 1.784 4 4 4h52c2.216 0 4-1.784 4-4v-32c0-2.216-1.784-4-4-4v-1c0-2.216-1.784-4-4-4h-16.859c-0.04729-0.0032-0.09249-0.01387-0.14062-0.01367h-7.9962c-0.58584-0.94114-0.8907-2.002-2.002-2.002z" fill="#5294e2"/>
 <path id="shadow" d="m27.002 8.9845-14 0.00389c-1.1097 0-1.4926 1.0129-2.0019 1.998v0.01368h-1c-2.216 0-4 1.784-4 4v5h25l3-4h24v-1c0-2.216-1.784-4-4-4l-24.996-0.013678c-0.58584-0.94112-0.8907-2.0019-2.0019-2.0019z" fill="#000000" opacity=".2"/>
 <path d="m11.016 13.984c-1.1166 0-2.0156 0.89904-2.0156 2.0156v4h22l3-4h21c0-1.1166-0.89904-2.0156-2.0156-2.0156h-41.969z" fill="#ffffff"/>
 <rect x="14" y="10" width="12" height="2" rx="1" ry="1" opacity=".25"/>
 <path d="m62 40-16 16h12c2.216 0 4-1.784 4-4z" fill="url(#linearGradient892)" opacity=".2"/>
 <path 
     style="fill:#ffffff"  
     d="m 30,26 v 4 H 28 L 32,34.367188 36,30 h -2 v -4 z m 1,10 v 1.101562 c -0.626,0.129 -1.220906,0.377469 -1.753906,0.730469 l -0.78125,-0.78125 -1.414063,1.414063 0.78125,0.78125 C 27.480031,39.779094 27.233469,40.374 27.105469,41 H 26 v 2 h 1.101562 c 0.129001,0.626 0.377469,1.220906 0.730469,1.753906 l -0.78125,0.78125 1.414063,1.414063 0.78125,-0.78125 c 0.533,0.352 1.127906,0.598562 1.753906,0.726562 V 48 h 2 v -1.101562 c 0.626,-0.129 1.220906,-0.377469 1.753906,-0.730469 l 0.78125,0.78125 1.414063,-1.414063 -0.78125,-0.78125 C 36.519969,44.220906 36.766531,43.626 36.894531,43 H 38 v -2 h -1.101562 c -0.129,-0.626 -0.377469,-1.220906 -0.730469,-1.753906 l 0.78125,-0.78125 -1.414063,-1.414063 -0.78125,0.78125 C 34.220906,37.480031 33.626,37.233469 33,37.105469 V 36 Z m 1,3 c 1.656854,0 3,1.343146 3,3 0,1.656854 -1.343146,3 -3,3 -1.656854,0 -3,-1.343146 -3,-3 0,-1.656854 1.343146,-3 3,-3 z"
     class="ColorScheme-Text"
     />
</svg>
