<svg width="64" height="64" version="1.1" viewBox="0 0 64 64" xmlns="http://www.w3.org/2000/svg">
 <defs>
  <linearGradient id="linearGradient892" x1="-197.72" x2="-197.72" y1="263.86" y2="273.76" gradientTransform="matrix(.70711 -.70711 .70711 .70711 4.2301 -281.39)" gradientUnits="userSpaceOnUse">
   <stop offset="0"/>
   <stop stop-opacity="0" offset="1"/>
  </linearGradient>
 </defs>
 <path d="m27.002 8.9845-14 0.00391c-1.1097 0-1.4926 1.0128-2.002 1.998v0.01367h-1c-2.216 0-4 1.784-4 4v5c-2.216 0-4 1.784-4 4v28c0 2.216 1.784 4 4 4h52c2.216 0 4-1.784 4-4v-32c0-2.216-1.784-4-4-4v-1c0-2.216-1.784-4-4-4h-16.859c-0.04729-0.0032-0.09249-0.01387-0.14062-0.01367h-7.9962c-0.58584-0.94114-0.8907-2.002-2.002-2.002z" fill="#5294e2"/>
 <path id="shadow" d="m27.002 8.9845-14 0.00389c-1.1097 0-1.4926 1.0129-2.0019 1.998v0.01368h-1c-2.216 0-4 1.784-4 4v5h25l3-4h24v-1c0-2.216-1.784-4-4-4l-24.996-0.013678c-0.58584-0.94112-0.8907-2.0019-2.0019-2.0019z" fill="#000000" opacity=".2"/>
 <path d="m11.016 13.984c-1.1166 0-2.0156 0.89904-2.0156 2.0156v4h22l3-4h21c0-1.1166-0.89904-2.0156-2.0156-2.0156h-41.969z" fill="#ffffff"/>
 <rect x="14" y="10" width="12" height="2" rx="1" ry="1" opacity=".25"/>
 <path d="m62 40-16 16h12c2.216 0 4-1.784 4-4z" fill="url(#linearGradient892)" opacity=".2"/>
 <path 
     style="fill:#ffffff"  
     d="M 19 26 L 19 48 L 45 48 L 45 26 L 19 26 z M 37 27 C 37.552 27 38 27.448 38 28 C 38 28.552 37.552 29 37 29 C 36.448 29 36 28.552 36 28 C 36 27.448 36.448 27 37 27 z M 40 27 C 40.552 27 41 27.448 41 28 C 41 28.552 40.552 29 40 29 C 39.448 29 39 28.552 39 28 C 39 27.448 39.448 27 40 27 z M 43 27 C 43.552 27 44 27.448 44 28 C 44 28.552 43.552 29 43 29 C 42.448 29 42 28.552 42 28 C 42 27.448 42.448 27 43 27 z M 20 30 L 44 30 L 44 47 L 20 47 L 20 30 z M 26 33 L 26 38 L 31 38 L 31 33 L 26 33 z M 32 33 L 32 38 L 37 38 L 37 33 L 32 33 z M 26 39 L 26 44 L 31 44 L 31 39 L 26 39 z M 32 39 L 32 44 L 37 44 L 37 39 L 32 39 z "
     class="ColorScheme-Text"
     />
</svg>
