<svg width="64" height="64" version="1.1" viewBox="0 0 64 64" xmlns="http://www.w3.org/2000/svg">
 <defs>
  <linearGradient id="linearGradient892" x1="-197.72" x2="-197.72" y1="263.86" y2="273.76" gradientTransform="matrix(.70711 -.70711 .70711 .70711 4.2301 -281.39)" gradientUnits="userSpaceOnUse">
   <stop offset="0"/>
   <stop stop-opacity="0" offset="1"/>
  </linearGradient>
 </defs>
 <path d="m27.002 8.9845-14 0.00391c-1.1097 0-1.4926 1.0128-2.002 1.998v0.01367h-1c-2.216 0-4 1.784-4 4v5c-2.216 0-4 1.784-4 4v28c0 2.216 1.784 4 4 4h52c2.216 0 4-1.784 4-4v-32c0-2.216-1.784-4-4-4v-1c0-2.216-1.784-4-4-4h-16.859c-0.04729-0.0032-0.09249-0.01387-0.14062-0.01367h-7.9962c-0.58584-0.94114-0.8907-2.002-2.002-2.002z" fill="#5294e2"/>
 <path id="shadow" d="m27.002 8.9845-14 0.00389c-1.1097 0-1.4926 1.0129-2.0019 1.998v0.01368h-1c-2.216 0-4 1.784-4 4v5h25l3-4h24v-1c0-2.216-1.784-4-4-4l-24.996-0.013678c-0.58584-0.94112-0.8907-2.0019-2.0019-2.0019z" fill="#000000" opacity=".2"/>
 <path d="m11.016 13.984c-1.1166 0-2.0156 0.89904-2.0156 2.0156v4h22l3-4h21c0-1.1166-0.89904-2.0156-2.0156-2.0156h-41.969z" fill="#ffffff"/>
 <rect x="14" y="10" width="12" height="2" rx="1" ry="1" opacity=".25"/>
 <path d="m62 40-16 16h12c2.216 0 4-1.784 4-4z" fill="url(#linearGradient892)" opacity=".2"/>
 <path 
     style="fill:#ffffff"  
     d="M 40 30 L 32 30 L 27.56 37.7 L 26 35 L 24 35 L 24 36 L 25.431641 36 L 27.6 39.7 L 32.6 31 L 39 31 L 39 32 L 40 32 L 40 30 z M 35 33 C 33.338 33 32 34.3 32 36 C 32 37.7 33.338 39 35 39 C 35.773 39 36.5 38.7 37 38.2 L 37 39 L 38 39 L 38 33 L 37 33 L 37 33.8 C 36.469 33.3 35.773 33 35 33 z M 35 34 C 36.108 34 37 34.9 37 36 C 37 37.1 36.108 38 35 38 C 33.892 38 33 37.1 33 36 C 33 34.9 33.892 34 35 34 z M 23 41 C 23 41 23 41.223 23 41.5 C 23 41.777 23 42 23 42 L 41 42 C 41 42 41 41.777 41 41.5 C 41 41.223 41 41 41 41 L 23 41 z M 31 44 C 31 44 31 44.223 31 44.5 C 31 44.777 31 45 31 45 L 33 45 C 33 45 33 44.777 33 44.5 C 33 44.223 33 44 33 44 L 31 44 z "
     class="ColorScheme-Text"
     />
</svg>
