<svg width="64" height="64" version="1.1" viewBox="0 0 64 64" xmlns="http://www.w3.org/2000/svg">
 <defs>
  <linearGradient id="a-3" x1="-197.1" x2="-196.91" y1="217.68" y2="219.37" gradientTransform="matrix(2.6726 -2.6726 2.6726 2.6726 -.0085892 -1059.5)" gradientUnits="userSpaceOnUse">
   <stop offset="0"/>
   <stop stop-opacity="0" offset="1"/>
  </linearGradient>
 </defs>
 <path fill="#5294e2" d="m26.996 8-13.998 0.00391c-1.1111 0-1.4917 1.0158-2.002 2.002h-2.998a1.9955 1.9951 0 0 0-2.002 1.9961v7.0039h-1.998c-1.1077 0-1.998 0.89249-1.998 2v31.996c0 1.1075 0.89042 1.998 1.998 1.998h56.004c1.1077 0 1.998-0.88667 1.998-1.9941v-35.994c0-1.111-0.89067-2.0117-1.998-2.0117h-2.0059v-2.998a1.9955 1.9951 0 0 0-2.0039-2h-26.992c-0.5858-0.94085-0.89278-2.002-2.0039-2.002z"/>
 <path d="m27.002 7.9961-13.998 0.00391c-1.1111 0-1.4937 1.0158-2.0039 2.002h-2.9961a1.9955 1.9951 0 0 0-2.0039 1.9961v7.0078h22.83l1.1719-2.0078c0.5556-0.9562 0.8926-1.998 2-1.998h25.998v-3.002a1.9955 1.9951 0 0 0-2.0039-2h-26.992c-0.5858-0.94085-0.89083-2.002-2.002-2.002z" fill="#000000" opacity=".2"/>
 <path d="m10 12.986c-0.55488 0-1 0.44708-1 1.002v5.0176h19.83l1.1719-2.0078c0.5556-0.95606 0.8926-1.998 2-1.998h22.998v-1.0117c0-0.55488-0.44708-1.002-1.002-1.002h-43.998z" fill="#ffffff"/>
 <rect x="13.999" y="8.9804" width="12" height="2" rx="1" ry="1" opacity=".25" stroke-width="1.0002"/>
 <path d="m62 43-11.998 12h10c1.1077 0 1.998-0.89035 1.998-1.998z" fill="url(#a-3)" opacity=".1"/>
 <path d="m23.75 28c-1.5235 0-2.75 1.1894-2.75 2.6667v10.667c0 1.4773 1.2265 2.6667 2.75 2.6667h16.5c1.5235 0 2.75-1.1894 2.75-2.6667v-10.667c0-1.4773-1.2265-2.6667-2.75-2.6667zm0 2.6667 8.25 4 8.25-4v2.6667l-8.25 4-8.25-4z" fill="#ffffff" stroke-width="3.7796"/>
</svg>
