<svg width="64" height="64" version="1.1" viewBox="0 0 64 64" xmlns="http://www.w3.org/2000/svg">
 <defs>
  <linearGradient id="linearGradient892" x1="-197.72" x2="-197.72" y1="263.86" y2="273.76" gradientTransform="matrix(.70711 -.70711 .70711 .70711 4.2301 -281.39)" gradientUnits="userSpaceOnUse">
   <stop offset="0"/>
   <stop stop-opacity="0" offset="1"/>
  </linearGradient>
 </defs>
 <path d="m27.002 8.9845-14 0.00391c-1.1097 0-1.4926 1.0128-2.002 1.998v0.01367h-1c-2.216 0-4 1.784-4 4v5c-2.216 0-4 1.784-4 4v28c0 2.216 1.784 4 4 4h52c2.216 0 4-1.784 4-4v-32c0-2.216-1.784-4-4-4v-1c0-2.216-1.784-4-4-4h-16.859c-0.04729-0.0032-0.09249-0.01387-0.14062-0.01367h-7.9962c-0.58584-0.94114-0.8907-2.002-2.002-2.002z" fill="#5294e2"/>
 <path id="shadow" d="m27.002 8.9845-14 0.00389c-1.1097 0-1.4926 1.0129-2.0019 1.998v0.01368h-1c-2.216 0-4 1.784-4 4v5h25l3-4h24v-1c0-2.216-1.784-4-4-4l-24.996-0.013678c-0.58584-0.94112-0.8907-2.0019-2.0019-2.0019z" fill="#000000" opacity=".2"/>
 <path d="m11.016 13.984c-1.1166 0-2.0156 0.89904-2.0156 2.0156v4h22l3-4h21c0-1.1166-0.89904-2.0156-2.0156-2.0156h-41.969z" fill="#ffffff"/>
 <rect x="14" y="10" width="12" height="2" rx="1" ry="1" opacity=".25"/>
 <path d="m62 40-16 16h12c2.216 0 4-1.784 4-4z" fill="url(#linearGradient892)" opacity=".2"/>
 <path 
     style="fill:#ffffff"  
     d="M 31.1 28 L 28 28 L 28 31 L 31 31 L 31.1 28 z M 32 28 L 32 31 L 35 31 L 35 28 L 32 28 z M 40.5 30.5 C 39.5 31.3 39 32.6 39.3 33.8 C 39.7 35 40.7 35.9 42 36 C 42.4 37.2 43.5 38 44.8 38 C 46.1 38 47.2 37.2 47.6 36 C 47.2 34.8 46.1 34 44.8 34 C 44.2 34 43.6 34.2 43.1 34.5 C 43.331478 34 43.3 33.3 43.2 32.7 C 42.9 31.5 41.8 30.6 40.5 30.5 z M 42 36 L 18 36 C 18 42.6 23.4 46 30 46 C 36.6 46 42 42.6 42 36 z M 26 32 L 23 32 L 23 35 L 26 35 L 26 32 z M 30 32 L 27 32 L 27 35 L 30 35 L 30 32 z M 34 32 L 31 32 L 31 35 L 34 35 L 34 32 z M 38 32 L 35 32 L 35 35 L 38 35 L 38 32 z M 23 38 C 23.5 38 24 38.4 24 39 C 24 39.5 23.5 40 23 40 C 22.4 40 22 39.5 22 39 C 22 38.4 22.4 38 23 38 z "
     class="ColorScheme-Text"
     />
</svg>
