<svg width="64" height="64" version="1.1" viewBox="0 0 64 64" xmlns="http://www.w3.org/2000/svg">
 <defs>
  <linearGradient id="linearGradient892" x1="-197.72" x2="-197.72" y1="263.86" y2="273.76" gradientTransform="matrix(.70711 -.70711 .70711 .70711 4.2301 -281.39)" gradientUnits="userSpaceOnUse">
   <stop offset="0"/>
   <stop stop-opacity="0" offset="1"/>
  </linearGradient>
 </defs>
 <path d="m27.002 8.9845-14 0.00391c-1.1097 0-1.4926 1.0128-2.002 1.998v0.01367h-1c-2.216 0-4 1.784-4 4v5c-2.216 0-4 1.784-4 4v28c0 2.216 1.784 4 4 4h52c2.216 0 4-1.784 4-4v-32c0-2.216-1.784-4-4-4v-1c0-2.216-1.784-4-4-4h-16.859c-0.04729-0.0032-0.09249-0.01387-0.14062-0.01367h-7.9962c-0.58584-0.94114-0.8907-2.002-2.002-2.002z" fill="#5294e2"/>
 <path id="shadow" d="m27.002 8.9845-14 0.00389c-1.1097 0-1.4926 1.0129-2.0019 1.998v0.01368h-1c-2.216 0-4 1.784-4 4v5h25l3-4h24v-1c0-2.216-1.784-4-4-4l-24.996-0.013678c-0.58584-0.94112-0.8907-2.0019-2.0019-2.0019z" fill="#000000" opacity=".2"/>
 <path d="m11.016 13.984c-1.1166 0-2.0156 0.89904-2.0156 2.0156v4h22l3-4h21c0-1.1166-0.89904-2.0156-2.0156-2.0156h-41.969z" fill="#ffffff"/>
 <rect x="14" y="10" width="12" height="2" rx="1" ry="1" opacity=".25"/>
 <path d="m62 40-16 16h12c2.216 0 4-1.784 4-4z" fill="url(#linearGradient892)" opacity=".2"/>
 <path 
     style="fill:#ffffff"  
     d="M 22 26 C 21.446 26 21 26.446 21 27 L 21 47 C 21 47.554 21.446 48 22 48 L 42 48 C 42.554 48 43 47.554 43 47 L 43 27 C 43 26.446 42.554 26 42 26 L 22 26 z M 22 27 L 42 27 L 42 47 L 22 47 L 22 27 z M 34 29 L 34 33 L 38 33 C 38 30.8 36.2 29 34 29 z M 32 30 A 5 5 0 0 0 27 35 A 5 5 0 0 0 32 40 A 5 5 0 0 0 37 35 A 5 5 0 0 0 36.9 34 L 33 34 L 33 30.1 A 5 5 0 0 0 32 30 z M 32 31 L 32 35 L 36 35 A 4 4 0 0 1 32 39 A 4 4 0 0 1 28 35 A 4 4 0 0 1 32 31 z M 24 42 L 24 43 L 40 43 L 40 42 L 24 42 z M 24 44 L 24 45 L 40 45 L 40 44 L 24 44 z "
     class="ColorScheme-Text"
     />
</svg>
