<svg width="64" height="64" version="1.1" xmlns="http://www.w3.org/2000/svg">
 <defs>
  <style id="current-color-scheme" type="text/css">.ColorScheme-Text {
        color:#333333;
      }
      .ColorScheme-Highlight {
        color:#5294e2;
      }</style>
  <style type="text/css"/>
  <linearGradient id="a-3" x1="-197.1" x2="-196.91" y1="217.68" y2="219.37" gradientTransform="matrix(2.6726 -2.6726 2.6726 2.6726 -.0085892 -1059.5)" gradientUnits="userSpaceOnUse">
   <stop offset="0"/>
   <stop stop-opacity="0" offset="1"/>
  </linearGradient>
 </defs>
 <path class="ColorScheme-Highlight" d="m26.996 8-13.998 0.00391c-1.1111 0-1.4917 1.0158-2.002 2.002h-2.998a1.9955 1.9951 0 0 0-2.002 1.9961v7.0039h-1.998c-1.1077 0-1.998 0.89249-1.998 2v31.996c0 1.1075 0.89042 1.998 1.998 1.998h56.004c1.1077 0 1.998-0.88667 1.998-1.9941v-35.994c0-1.111-0.89067-2.0117-1.998-2.0117h-2.0059v-2.998a1.9955 1.9951 0 0 0-2.0039-2h-26.992c-0.5858-0.94085-0.89278-2.002-2.0039-2.002z" fill="currentColor"/>
 <path d="m27.002 7.9961-13.998 0.00391c-1.1111 0-1.4937 1.0158-2.0039 2.002h-2.9961a1.9955 1.9951 0 0 0-2.0039 1.9961v7.0078h22.83l1.1719-2.0078c0.5556-0.9562 0.8926-1.998 2-1.998h25.998v-3.002a1.9955 1.9951 0 0 0-2.0039-2h-26.992c-0.5858-0.94085-0.89083-2.002-2.002-2.002z" fill="#000000" opacity=".2"/>
 <path d="m10 12.986c-0.55488 0-1 0.44708-1 1.002v5.0176h19.83l1.1719-2.0078c0.5556-0.95606 0.8926-1.998 2-1.998h22.998v-1.0117c0-0.55488-0.44708-1.002-1.002-1.002h-43.998z" fill="#ffffff"/>
 <rect x="13.999" y="8.9804" width="12" height="2" rx="1" ry="1" opacity=".25" stroke-width="1.0002"/>
 <path d="m62 43-11.998 12h10c1.1077 0 1.998-0.89035 1.998-1.998z" fill="url(#a-3)" opacity=".1"/>
 <path d="m37.297 28.99c-0.30124 0.0012-0.57998 0.1-0.84248 0.28749-0.66248 0.47749-2.0349 0.97497-4.4474 0.97497-2.4249 0-3.7999-0.49749-4.4624-0.97497-0.26249-0.1875-0.51248-0.27499-0.81248-0.27499-0.29999 0-0.65123 0.0875-1.0137 0.27499-1.2875 0.68998-2.4874 2.9174-3.1374 5.8236-0.54998 2.4799-0.74998 5.8486-0.42499 7.2048 0.28749 1.1775 0.78748 1.6937 1.675 1.6937 1.3-0.025 2.9374-1.4825 3.9874-3.4499 0.74998-1.09 2.4999-1.5787 4.1874-1.5275 1.675-0.0625 3.4262 0.43749 4.1761 1.5275 1.05 1.9674 2.6862 3.4249 3.9986 3.4499 0.87498 0 1.375-0.51624 1.6625-1.6937 0.32499-1.3562 0.125-4.7249-0.42499-7.2048-0.64998-2.9062-1.8499-5.1336-3.1374-5.8223-0.35624-0.195-0.68123-0.28999-0.98372-0.28749zm-10.297 3.7599h1.25v1.25h1.25v1.25h-1.25v1.25h-1.25v-1.25h-1.25v-1.25h1.25zm9.3747 0a0.62498 0.62498 0 0 1 0.62498 0.62498 0.62498 0.62498 0 0 1-0.62498 0.62498 0.62498 0.62498 0 0 1-0.62498-0.62498 0.62498 0.62498 0 0 1 0.62498-0.62498zm-1.25 1.25a0.62498 0.62498 0 0 1 0.62498 0.62498 0.62498 0.62498 0 0 1-0.62498 0.62498 0.62498 0.62498 0 0 1-0.62498-0.62498 0.62498 0.62498 0 0 1 0.62498-0.62498zm2.4999 0a0.62498 0.62498 0 0 1 0.62498 0.62498 0.62498 0.62498 0 0 1-0.62498 0.62498 0.62498 0.62498 0 0 1-0.62498-0.62498 0.62498 0.62498 0 0 1 0.62498-0.62498zm-1.25 1.25a0.62498 0.62498 0 0 1 0.62498 0.62498 0.62498 0.62498 0 0 1-0.62498 0.62498 0.62498 0.62498 0 0 1-0.62498-0.62498 0.62498 0.62498 0 0 1 0.62498-0.62498z" color="#727272" fill="#ffffff"/>
</svg>
