<svg width="64" height="64" version="1.1" viewBox="0 0 64 64" xmlns="http://www.w3.org/2000/svg">
 <defs>
  <linearGradient id="linearGradient892" x1="-197.72" x2="-197.72" y1="263.86" y2="273.76" gradientTransform="matrix(.70711 -.70711 .70711 .70711 4.2301 -281.39)" gradientUnits="userSpaceOnUse">
   <stop offset="0"/>
   <stop stop-opacity="0" offset="1"/>
  </linearGradient>
 </defs>
 <path d="m27.002 8.9845-14 0.00391c-1.1097 0-1.4926 1.0128-2.002 1.998v0.01367h-1c-2.216 0-4 1.784-4 4v5c-2.216 0-4 1.784-4 4v28c0 2.216 1.784 4 4 4h52c2.216 0 4-1.784 4-4v-32c0-2.216-1.784-4-4-4v-1c0-2.216-1.784-4-4-4h-16.859c-0.04729-0.0032-0.09249-0.01387-0.14062-0.01367h-7.9962c-0.58584-0.94114-0.8907-2.002-2.002-2.002z" fill="#5294e2"/>
 <path id="shadow" d="m27.002 8.9845-14 0.00389c-1.1097 0-1.4926 1.0129-2.0019 1.998v0.01368h-1c-2.216 0-4 1.784-4 4v5h25l3-4h24v-1c0-2.216-1.784-4-4-4l-24.996-0.013678c-0.58584-0.94112-0.8907-2.0019-2.0019-2.0019z" fill="#000000" opacity=".2"/>
 <path d="m11.016 13.984c-1.1166 0-2.0156 0.89904-2.0156 2.0156v4h22l3-4h21c0-1.1166-0.89904-2.0156-2.0156-2.0156h-41.969z" fill="#ffffff"/>
 <rect x="14" y="10" width="12" height="2" rx="1" ry="1" opacity=".25"/>
 <path d="m62 40-16 16h12c2.216 0 4-1.784 4-4z" fill="url(#linearGradient892)" opacity=".2"/>
 <path 
     style="fill:#ffffff"  
     d="M 45.7 20.8 C 43.9 21 29.5 36.1 29.5 36.1 L 24.9 41.2 C 24.3 41.4 23.152 41.222 22.5 41.5 C 20.9 42.1 19.9 42.779 19.1 45 C 18.4 46.9 20.4 50.16 22.1 49.6 C 21.3 49.6 20.3 48.5 20.8 47.7 C 21.8 45.8 25.75 46.217 25.6 42 L 30.6 37.3 C 30.6 37.3 46.9 22 45.9 21 L 45.8 21 L 45.7 20.8 z M 40.4 36.1 C 39.8 36.1 38.8 37.1 36.8 40.1 C 34.9 43.3 29.9 45.5 30.2 42.4 C 30.3 41.6 28.4 41.9 26.6 41.9 C 26.6 47.3 23.531172 45.9 21.7 48.2 C 21.5 50 29.9 51.077 34.4 48 C 39.8 44.3 40.9 39.3 41 37.6 C 41 36.7 40.8 36.1 40.4 36.1 z M 33.3 40 C 33.3 40.3 32.6 40.1 32.3 40.3 C 31.6 40.7 31.276 41.299219 31.5 41.7 C 31.7 42.1 32.4 42.1 33.1 41.7 C 33.8 41.3 34.124391 40.7 33.9 40.3 C 33.8 40.1 33.6 40 33.3 40 z "
     class="ColorScheme-Text"
     />
</svg>
