<svg width="64" height="64" version="1.1" viewBox="0 0 16.933 16.933" xmlns="http://www.w3.org/2000/svg">
 <defs>
  <linearGradient id="a" x1="-197.1" x2="-196.91" y1="217.68" y2="219.37" gradientTransform="rotate(-45 -338.07 -140.03)" gradientUnits="userSpaceOnUse">
   <stop offset="0"/>
   <stop stop-opacity="0" offset="1"/>
  </linearGradient>
 </defs>
 <g transform="translate(0 -280.07)">
  <path d="M3.44 282.448c-.294 0-.395.269-.53.53h-.793a.528.528 0 0 0-.53.528v5.292c0 .293.237.53.53.53h12.7c.293 0 .529-.237.529-.53v-5.292a.528.528 0 0 0-.53-.529H7.674c-.155-.249-.236-.53-.53-.53z" fill="#5294e2" paint-order="markers stroke fill"/>
  <path d="M3.44 282.448c-.294 0-.395.269-.53.53h-.793a.528.528 0 0 0-.53.528v5.292c0 .293.237.53.53.53h12.7c.293 0 .529-.237.529-.53v-5.292a.528.528 0 0 0-.53-.529H7.674c-.155-.249-.236-.53-.53-.53z" opacity=".18" paint-order="markers stroke fill"/>
  <rect x="2.381" y="283.77" width="12.171" height="5.027" ry=".265" fill="#fff" paint-order="markers stroke fill"/>
  <path transform="matrix(.26458 0 0 .26458 0 280.07)" d="m32.002 15.988c-1.1074 0-1.4444 1.0418-2 1.998l-1.1719 2.0078h-24.832c-1.1077 0-1.998 0.89233-1.998 2v32.002c0 1.1077 0.89037 1.998 1.998 1.998h56.004c1.1077 0 1.9988-0.88631 1.9988-1.994l-7.42e-4 -36c0-1.1112-0.89062-2.0117-1.998-2.0117z" fill="#5294e2" stroke-width="3.7796" style="paint-order:markers stroke fill"/>
  <rect x="3.704" y="282.71" width="3.175" height=".529" ry=".265" opacity=".25" paint-order="stroke markers fill"/>
 </g>
 <path d="m16.404 11.641-3.1742 3.1745h2.6458c0.29307 0 0.52864-0.23557 0.52864-0.52864z" fill="url(#a)" opacity=".1" style="paint-order:stroke markers fill"/>
 <path d="m6.7525 7.6728-0.40268 0.18706 1.665 1.665-1.665 1.665 0.40268 0.18706 1.1358-1.1358-0.00206-0.0021 0.71622-0.71622-0.71416-0.71416zm1.714 3.7041v0.52922h2.6458v-0.52922z" color="#000000" fill="#fff" stroke-width=".026458"/>
</svg>
