<svg width="64" height="64" version="1.1" viewBox="0 0 64 64" xmlns="http://www.w3.org/2000/svg">
 <defs>
  <linearGradient id="linearGradient892" x1="-197.72" x2="-197.72" y1="263.86" y2="273.76" gradientTransform="matrix(.70711 -.70711 .70711 .70711 4.2301 -281.39)" gradientUnits="userSpaceOnUse">
   <stop offset="0"/>
   <stop stop-opacity="0" offset="1"/>
  </linearGradient>
 </defs>
 <path 
     style="fill:#cf000f" 
     d="m27.002 8.9845-14 0.00391c-1.1097 0-1.4926 1.0128-2.002 1.998v0.01367h-1c-2.216 0-4 1.784-4 4v5c-2.216 0-4 1.784-4 4v28c0 2.216 1.784 4 4 4h52c2.216 0 4-1.784 4-4v-32c0-2.216-1.784-4-4-4v-1c0-2.216-1.784-4-4-4h-16.859c-0.04729-0.0032-0.09249-0.01387-0.14062-0.01367h-7.9962c-0.58584-0.94114-0.8907-2.002-2.002-2.002z"
     />
 <path id="shadow" d="m27.002 8.9845-14 0.00389c-1.1097 0-1.4926 1.0129-2.0019 1.998v0.01368h-1c-2.216 0-4 1.784-4 4v5h25l3-4h24v-1c0-2.216-1.784-4-4-4l-24.996-0.013678c-0.58584-0.94112-0.8907-2.0019-2.0019-2.0019z" fill="#000000" opacity=".2"/>
 <path d="m11.016 13.984c-1.1166 0-2.0156 0.89904-2.0156 2.0156v4h22l3-4h21c0-1.1166-0.89904-2.0156-2.0156-2.0156h-41.969z" fill="#ffffff"/>
 <rect x="14" y="10" width="12" height="2" rx="1" ry="1" opacity=".25"/>
 <path d="m62 40-16 16h12c2.216 0 4-1.784 4-4z" fill="url(#linearGradient892)" opacity=".2"/>
 <path 
     style="fill:#ffffff"  
     d="m 31.522358,30.009969 c -5.56998,0.238889 -10.16697,4.734583 -10.5,10.5 -0.08829,1.518649 0.13041,2.98508 0.593705,4.337338 l 0.941337,-0.337613 c -0.420649,-1.228726 -0.615351,-2.560383 -0.535117,-3.940146 0.325956,-5.605908 5.058668,-9.881957 10.571477,-9.550485 5.512809,0.33146 9.717833,5.146083 9.391877,10.75199 -0.0327,0.562094 -0.120612,1.106362 -0.238263,1.638418 l 0.972583,0.230372 c 0.130191,-0.587219 0.227575,-1.188691 0.263653,-1.80921 0.358553,-6.166496 -4.267183,-11.461789 -10.33126,-11.826397 -0.379006,-0.02279 -0.755538,-0.02586 -1.126869,-0.01 z m 1.009689,2.04157 c -0.807629,-0.04555 -1.617662,0.01976 -2.408023,0.194624 l 0.18358,1.000924 c 0.710037,-0.160524 1.437595,-0.220338 2.163901,-0.180723 4.410251,0.265175 7.773882,4.114501 7.513111,8.59921 -0.0217,0.339402 -0.06509,0.676984 -0.128896,1.010854 l 1.001878,0.06157 c 0.0602,-0.334389 0.103725,-0.671726 0.126944,-1.010854 0.293368,-5.045318 -3.490965,-9.377278 -8.452495,-9.6756 z m -5.001579,1.203491 c -1.60688,0.933881 -2.890079,2.348109 -3.67746,4.051361 l 0.869075,0.526279 c 0.686019,-1.536707 1.82525,-2.81898 3.259523,-3.668069 z m 4.59536,6.118747 c -0.953356,0.03492 -1.909269,0.700153 -2.003757,1.771475 -0.06519,1.121188 0.776208,2.082514 1.878766,2.14881 0.738435,0.04403 1.439402,-0.328672 1.824083,-0.971135 -0.008,0.01362 -0.01574,0.02629 -0.02344,0.03972 L 41.601681,45 l 0.31443,-0.965177 -7.802153,-2.637356 v -0.01192 c -0.08482,-1.451082 -1.034775,-2.046698 -1.988132,-2.011777 z m -8.999329,0.345556 c -0.0523,0.306711 -0.08806,0.616919 -0.109367,0.927444 -0.0177,0.33933 -0.0186,0.677542 0,1.016812 l 1.009691,0.06157 c -0.0254,-0.339179 -0.02832,-0.679052 -0.01172,-1.018799 0.0149,-0.239561 0.04017,-0.479689 0.07616,-0.716931 z m 9.050106,0.530251 c 0.55129,0.03315 0.971981,0.513816 0.939384,1.074405 -0.0326,0.560568 -0.505284,0.988395 -1.056562,0.955247 -0.551289,-0.03315 -0.971981,-0.513816 -0.939383,-1.074404 0.0326,-0.560599 0.505282,-0.988396 1.056561,-0.955248 z"
     class="ColorScheme-Text"
     />
</svg>
