<svg width="64" height="64" version="1.1" viewBox="0 0 64 64" xmlns="http://www.w3.org/2000/svg">
 <defs>
  <linearGradient id="linearGradient892" x1="-197.72" x2="-197.72" y1="263.86" y2="273.76" gradientTransform="matrix(.70711 -.70711 .70711 .70711 4.2301 -281.39)" gradientUnits="userSpaceOnUse">
   <stop offset="0"/>
   <stop stop-opacity="0" offset="1"/>
  </linearGradient>
 </defs>
 <path
     style="fill:#5294e2"
     d="m27.002 8.9845-14 0.00391c-1.1097 0-1.4926 1.0128-2.002 1.998v0.01367h-1c-2.216 0-4 1.784-4 4v5c-2.216 0-4 1.784-4 4v28c0 2.216 1.784 4 4 4h52c2.216 0 4-1.784 4-4v-32c0-2.216-1.784-4-4-4v-1c0-2.216-1.784-4-4-4h-16.859c-0.04729-0.0032-0.09249-0.01387-0.14062-0.01367h-7.9962c-0.58584-0.94114-0.8907-2.002-2.002-2.002z"
     class="ColorScheme-Accent"
     />
 <path id="shadow" d="m27.002 8.9845-14 0.00389c-1.1097 0-1.4926 1.0129-2.0019 1.998v0.01368h-1c-2.216 0-4 1.784-4 4v5h25l3-4h24v-1c0-2.216-1.784-4-4-4l-24.996-0.013678c-0.58584-0.94112-0.8907-2.0019-2.0019-2.0019z" fill="#000000" opacity=".2"/>
 <path d="m11.016 13.984c-1.1166 0-2.0156 0.89904-2.0156 2.0156v4h22l3-4h21c0-1.1166-0.89904-2.0156-2.0156-2.0156h-41.969z" fill="#ffffff"/>
 <rect x="14" y="10" width="12" height="2" rx="1" ry="1" opacity=".25"/>
 <path d="m62 40-16 16h12c2.216 0 4-1.784 4-4z" fill="url(#linearGradient892)" opacity=".2"/>
 <path
     style="fill:#ffffff"
     d="M 32 27 L 22 33.6 L 22 34 L 22 35 L 23 35 L 23 46 L 22 46 L 22 47 L 42 47 L 42 46 L 41 46 L 41 35 L 42 35 L 42 34 L 42 33.6 L 32 27 z M 32 28.1 L 40.7 34 L 23.3 34 L 32 28.1 z M 24 35 L 26 35 L 26 46 L 24 46 L 24 35 z M 27 35 L 37 35 L 37 46 L 34 46 L 34 40 L 30 40 L 30 46 L 27 46 L 27 35 z M 38 35 L 40 35 L 40 46 L 38 46 L 38 35 z "
     class="ColorScheme-Text"
     />
</svg>
