<svg width="64" height="64" version="1.1" viewBox="0 0 64 64" xmlns="http://www.w3.org/2000/svg">
 <defs>
  <linearGradient id="linearGradient892" x1="-197.72" x2="-197.72" y1="263.86" y2="273.76" gradientTransform="matrix(.70711 -.70711 .70711 .70711 4.2301 -281.39)" gradientUnits="userSpaceOnUse">
   <stop offset="0"/>
   <stop stop-opacity="0" offset="1"/>
  </linearGradient>
 </defs>
 <path 
     style="fill:#3bad7e" 
     d="m27.002 8.9845-14 0.00391c-1.1097 0-1.4926 1.0128-2.002 1.998v0.01367h-1c-2.216 0-4 1.784-4 4v5c-2.216 0-4 1.784-4 4v28c0 2.216 1.784 4 4 4h52c2.216 0 4-1.784 4-4v-32c0-2.216-1.784-4-4-4v-1c0-2.216-1.784-4-4-4h-16.859c-0.04729-0.0032-0.09249-0.01387-0.14062-0.01367h-7.9962c-0.58584-0.94114-0.8907-2.002-2.002-2.002z"
     />
 <path id="shadow" d="m27.002 8.9845-14 0.00389c-1.1097 0-1.4926 1.0129-2.0019 1.998v0.01368h-1c-2.216 0-4 1.784-4 4v5h25l3-4h24v-1c0-2.216-1.784-4-4-4l-24.996-0.013678c-0.58584-0.94112-0.8907-2.0019-2.0019-2.0019z" fill="#000000" opacity=".2"/>
 <path d="m11.016 13.984c-1.1166 0-2.0156 0.89904-2.0156 2.0156v4h22l3-4h21c0-1.1166-0.89904-2.0156-2.0156-2.0156h-41.969z" fill="#ffffff"/>
 <rect x="14" y="10" width="12" height="2" rx="1" ry="1" opacity=".25"/>
 <path d="m62 40-16 16h12c2.216 0 4-1.784 4-4z" fill="url(#linearGradient892)" opacity=".2"/>
 <path 
     style="fill:#ffffff"  
     d="M 30.009766 25.875 C 30.614328 26.126965 31.118789 26.582608 31.496094 27.236328 L 34.189453 31.919922 L 32.503906 32.875 L 37.966797 32.953125 L 40.636719 28.166016 L 38.976562 29.150391 L 37.439453 26.53125 C 37.186715 26.102729 36.759196 25.875 36.205078 25.875 L 30.009766 25.875 z M 28.576172 26.101562 C 27.620042 26.101563 26.837311 26.5549 26.359375 27.386719 L 24.068359 31.339844 L 28.876953 34.134766 L 31.849609 28.998047 L 30.992188 27.5625 C 30.413619 26.581663 29.608225 26.101562 28.576172 26.101562 z M 41.164062 33 L 36.355469 35.744141 L 39.326172 40.882812 L 40.988281 40.882812 C 41.515632 40.882813 42.045494 40.755284 42.423828 40.552734 C 43.228624 40.10002 43.808594 39.143043 43.808594 38.236328 C 43.808594 37.8 43.682336 37.356167 43.455078 36.953125 L 41.164062 33 z M 25.681641 34.160156 L 20.191406 34.263672 L 21.878906 35.21875 L 20.367188 37.863281 C 20.266553 38.039322 20.191406 38.315712 20.191406 38.542969 C 20.191406 38.76997 20.266299 39.021739 20.367188 39.197266 L 23.515625 44.609375 C 23.490915 44.433848 23.490234 44.308584 23.490234 44.208984 C 23.490234 43.780206 23.691651 43.098683 23.943359 42.646484 L 23.941406 42.646484 L 26.636719 37.988281 L 28.349609 38.970703 L 25.681641 34.160156 z M 35.648438 39.521484 L 32.830078 44.230469 L 35.648438 48.939453 L 35.648438 47 L 38.595703 47 C 39.124341 47 39.576418 46.748061 39.828125 46.320312 L 42.951172 40.882812 C 42.422791 41.284824 41.793672 41.486328 41.039062 41.486328 L 35.648438 41.486328 L 35.648438 39.521484 z M 25.326172 41.4375 L 24.521484 42.871094 C 24.269776 43.298843 24.09375 43.979771 24.09375 44.4 C 24.09375 45.817907 25.275842 47.001953 26.710938 47.001953 L 31.294922 47.001953 L 31.294922 41.4375 L 25.326172 41.4375 z "
     class="ColorScheme-Text"
     />
</svg>
