<svg width="64" height="64" version="1.1" viewBox="0 0 64 64" xmlns="http://www.w3.org/2000/svg">
 <defs>
  <linearGradient id="linearGradient892" x1="-197.72" x2="-197.72" y1="263.86" y2="273.76" gradientTransform="matrix(.70711 -.70711 .70711 .70711 4.2301 -281.39)" gradientUnits="userSpaceOnUse">
   <stop offset="0"/>
   <stop stop-opacity="0" offset="1"/>
  </linearGradient>
 </defs>
 <path d="m27.002 8.9845-14 0.00391c-1.1097 0-1.4926 1.0128-2.002 1.998v0.01367h-1c-2.216 0-4 1.784-4 4v5c-2.216 0-4 1.784-4 4v28c0 2.216 1.784 4 4 4h52c2.216 0 4-1.784 4-4v-32c0-2.216-1.784-4-4-4v-1c0-2.216-1.784-4-4-4h-16.859c-0.04729-0.0032-0.09249-0.01387-0.14062-0.01367h-7.9962c-0.58584-0.94114-0.8907-2.002-2.002-2.002z" fill="#5294e2"/>
 <path id="shadow" d="m27.002 8.9845-14 0.00389c-1.1097 0-1.4926 1.0129-2.0019 1.998v0.01368h-1c-2.216 0-4 1.784-4 4v5h25l3-4h24v-1c0-2.216-1.784-4-4-4l-24.996-0.013678c-0.58584-0.94112-0.8907-2.0019-2.0019-2.0019z" fill="#000000" opacity=".2"/>
 <path d="m11.016 13.984c-1.1166 0-2.0156 0.89904-2.0156 2.0156v4h22l3-4h21c0-1.1166-0.89904-2.0156-2.0156-2.0156h-41.969z" fill="#ffffff"/>
 <rect x="14" y="10" width="12" height="2" rx="1" ry="1" opacity=".25"/>
 <path d="m62 40-16 16h12c2.216 0 4-1.784 4-4z" fill="url(#linearGradient892)" opacity=".2"/>
 <path 
     style="fill:#ffffff"  
     d="m 32.9,40 -2.5,-2.516 0.03,-0.03 C 32.129,35.6 33.269,33.4 34,31 l 3.04,-0 v -2 h -7.02 v -2 L 28,27 v 2 h -7 v 2 h 11 c -0.7,1.9 -1.5,3.7 -3,5.3 -0.9,-1 -1.7,-2.2 -2.3,-3.4 h -2 c 0.732,1.6 1.734,3.2 3,4.57 l -5.1,5.03 1.4,1.4 5.01,-5.01 3.1,3.1 z m 5.7,-5.1 h -2 L 32.034,47 h 2 l 1.123,-3.01 h 4.8 L 41,47 h 2 z m -2.6,7.02 1.6,-4.34 1.6,4.34 z"
     class="ColorScheme-Text"
     />
</svg>
