<svg width="64" height="64" version="1.1" viewBox="0 0 64 64" xmlns="http://www.w3.org/2000/svg">
 <defs>
  <linearGradient id="linearGradient892" x1="-197.72" x2="-197.72" y1="263.86" y2="273.76" gradientTransform="matrix(.70711 -.70711 .70711 .70711 4.2301 -281.39)" gradientUnits="userSpaceOnUse">
   <stop offset="0"/>
   <stop stop-opacity="0" offset="1"/>
  </linearGradient>
 </defs>
 <path d="m27.002 8.9845-14 0.00391c-1.1097 0-1.4926 1.0128-2.002 1.998v0.01367h-1c-2.216 0-4 1.784-4 4v5c-2.216 0-4 1.784-4 4v28c0 2.216 1.784 4 4 4h52c2.216 0 4-1.784 4-4v-32c0-2.216-1.784-4-4-4v-1c0-2.216-1.784-4-4-4h-16.859c-0.04729-0.0032-0.09249-0.01387-0.14062-0.01367h-7.9962c-0.58584-0.94114-0.8907-2.002-2.002-2.002z" fill="#5294e2"/>
 <path id="shadow" d="m27.002 8.9845-14 0.00389c-1.1097 0-1.4926 1.0129-2.0019 1.998v0.01368h-1c-2.216 0-4 1.784-4 4v5h25l3-4h24v-1c0-2.216-1.784-4-4-4l-24.996-0.013678c-0.58584-0.94112-0.8907-2.0019-2.0019-2.0019z" fill="#000000" opacity=".2"/>
 <path d="m11.016 13.984c-1.1166 0-2.0156 0.89904-2.0156 2.0156v4h22l3-4h21c0-1.1166-0.89904-2.0156-2.0156-2.0156h-41.969z" fill="#ffffff"/>
 <rect x="14" y="10" width="12" height="2" rx="1" ry="1" opacity=".25"/>
 <path d="m62 40-16 16h12c2.216 0 4-1.784 4-4z" fill="url(#linearGradient892)" opacity=".2"/>
 <path 
     style="fill:#ffffff"  
     d="M 22 26 C 21.446 26 21 26.446 21 27 L 21 47 C 21 47.554 21.446 48 22 48 L 40 48 C 40.554 48 41 47.554 41 47 L 41 46 L 42 46 C 42.554 46 43 45.554 43 45 L 43 41 C 43 40.814 42.935656 40.649 42.847656 40.5 C 42.935656 40.351 43 40.186 43 40 L 43 36 C 43 35.814 42.935656 35.649 42.847656 35.5 C 42.935656 35.351 43 35.186 43 35 L 43 31 C 43 30.446 42.554 30 42 30 L 41 30 L 41 27 C 41 26.446 40.554 26 40 26 L 22 26 z M 22 27 L 40 27 L 40 47 L 22 47 L 22 27 z M 23 29 L 23 30 L 30 30 L 30 29 L 23 29 z M 32 29 L 32 30 L 39 30 L 39 29 L 32 29 z M 41 31 L 42 31 L 42 35 L 41 35 L 41 31 z M 23 32 L 23 33 L 30 33 L 30 32 L 23 32 z M 32 32 L 32 33 L 39 33 L 39 32 L 32 32 z M 23 35 L 23 36 L 30 36 L 30 35 L 23 35 z M 32 35 L 32 36 L 39 36 L 39 35 L 32 35 z M 41 36 L 42 36 L 42 40 L 41 40 L 41 36 z M 23 38 L 23 39 L 30 39 L 30 38 L 23 38 z M 32 38 L 32 39 L 39 39 L 39 38 L 32 38 z M 23 41 L 23 42 L 30 42 L 30 41 L 23 41 z M 32 41 L 32 42 L 39 42 L 39 41 L 32 41 z M 41 41 L 42 41 L 42 45 L 41 45 L 41 41 z M 23 44 L 23 45 L 30 45 L 30 44 L 23 44 z M 32 44 L 32 45 L 39 45 L 39 44 L 32 44 z "
     class="ColorScheme-Text"
     />
</svg>
