<svg width="64" height="64" viewBox="0 0 16.933 16.933" xmlns="http://www.w3.org/2000/svg"><defs><linearGradient id="a" x1="13.229" x2="2.117" y1="297" y2="280.07" gradientTransform="matrix(4.0495 0 0 3.7796 -2.286 -1058.6)" gradientUnits="userSpaceOnUse"><stop stop-color="#71e4f7" offset="0"/><stop stop-color="#a5ec77" offset="1"/></linearGradient></defs><path transform="scale(.26458)" d="M6 9a3.99 3.99 0 0 0-4 4v38a3.988 3.988 0 0 0 3.96 3.996h52.08A3.988 3.988 0 0 0 61.999 51V13c0-2.216-1.783-4-4-4H6z" fill="url(#a)" style="paint-order:stroke markers fill"/><rect x="1.587" y="2.645" width="1.058" height=".529" ry=".265" opacity=".35" style="paint-order:stroke markers fill"/><rect x="7.144" y="2.645" width="2.646" height=".529" ry=".265" opacity=".35" style="paint-order:stroke markers fill"/><rect x="15.081" y="2.645" width=".529" height=".529" ry=".265" opacity=".35" style="paint-order:stroke markers fill"/><rect x="14.023" y="2.645" width=".794" height=".529" ry=".265" opacity=".35" style="paint-order:stroke markers fill"/><rect x="13.229" y="2.645" width=".529" height=".529" ry=".265" opacity=".35" style="paint-order:stroke markers fill"/><path transform="scale(.26458)" d="M6 9a3.99 3.99 0 0 0-4 3.998h60A3.99 3.99 0 0 0 58 9H6z" opacity=".25" style="paint-order:stroke markers fill"/><path d="M3.969 13.494a.528.528 0 0 0-.53.53v.528h10.055v-.529a.528.528 0 0 0-.53-.529z" fill="#fff" opacity=".35" style="paint-order:stroke markers fill"/><g fill="#d8f6ed"><rect x="4.498" y="12.7" width="1.323" height="1.323" ry=".132" style="paint-order:stroke markers fill"/><rect x="6.703" y="12.7" width="1.323" height="1.323" ry=".132" style="paint-order:stroke markers fill"/><rect x="8.908" y="12.7" width="1.323" height="1.323" ry=".132" style="paint-order:stroke markers fill"/><rect x="11.112" y="12.7" width="1.323" height="1.323" ry=".132" style="paint-order:stroke markers fill"/></g></svg>