<svg xmlns="http://www.w3.org/2000/svg" xmlns:xlink="http://www.w3.org/1999/xlink" width="64" height="64" viewBox="0 0 16.933 16.933"><defs><linearGradient id="a"><stop offset="0"/><stop offset="1" stop-opacity="0"/></linearGradient><clipPath clipPathUnits="userSpaceOnUse" id="b"><rect ry=".529" y="285.358" x=".529" height="9.525" width="15.875" transform="rotate(45)" fill="#66bb6a" stroke-width=".251" stroke-opacity=".196" paint-order="markers stroke fill"/></clipPath><linearGradient xlink:href="#a" id="c" x1="-197.102" y1="217.681" x2="-196.914" y2="219.365" gradientUnits="userSpaceOnUse"/><linearGradient xlink:href="#a" id="d" gradientUnits="userSpaceOnUse" x1="-197.102" y1="217.681" x2="-196.914" y2="219.365"/></defs><g transform="translate(0 -280.067)"><path d="M3.07 287.157c-.177 0-.237.162-.318.318h-.477a.317.317 0 0 0-.317.317v3.175c0 .176.142.318.317.318h7.62a.317.317 0 0 0 .318-.318v-3.175a.317.317 0 0 0-.318-.317H5.61c-.093-.15-.141-.318-.317-.318z" fill="#66bb6a" paint-order="markers stroke fill"/><path d="M3.07 287.157c-.177 0-.237.162-.318.318h-.477a.317.317 0 0 0-.317.317v3.175c0 .176.142.318.317.318h7.62a.317.317 0 0 0 .318-.318v-3.175a.317.317 0 0 0-.318-.317H5.61c-.093-.15-.141-.318-.317-.318z" opacity=".18" paint-order="markers stroke fill"/><rect width="7.303" height="3.016" x="2.434" y="287.951" ry=".159" fill="#f2f2f2" paint-order="markers stroke fill"/><path d="M6.085 288.269c-.175 0-.228.165-.317.317l-.185.318H1.64a.316.316 0 0 0-.317.317v5.08c0 .176.141.318.317.318h8.89a.316.316 0 0 0 .318-.318v-5.715a.316.316 0 0 0-.317-.317H6.085z" fill="#66bb6a" paint-order="markers stroke fill"/><rect width="1.905" height=".317" x="3.228" y="287.316" ry=".159" opacity=".25" paint-order="stroke markers fill"/><rect width="5.292" height="4.762" x="-199.587" y="217.868" ry=".132" transform="rotate(-45 142.566 57.63) scale(.6)" clip-path="url(#b)" opacity=".1" fill="url(#c)" paint-order="stroke markers fill"/><path d="M8.096 283.189c-.176 0-.236.161-.317.317h-.477a.317.317 0 0 0-.317.318v3.175c0 .176.142.317.317.317h7.62a.317.317 0 0 0 .318-.317v-3.175a.317.317 0 0 0-.318-.318h-4.286c-.093-.149-.141-.317-.317-.317z" fill="#66bb6a" paint-order="markers stroke fill"/><path d="M8.096 283.189c-.176 0-.236.161-.317.317h-.477a.317.317 0 0 0-.317.318v3.175c0 .176.142.317.317.317h7.62a.317.317 0 0 0 .318-.317v-3.175a.317.317 0 0 0-.318-.318h-4.286c-.093-.149-.141-.317-.317-.317z" opacity=".1" paint-order="markers stroke fill"/><rect ry=".159" y="283.982" x="7.461" height="3.016" width="7.303" fill="#fff" paint-order="markers stroke fill"/><path d="M11.112 284.3c-.175 0-.228.165-.317.317l-.185.318H6.667a.316.316 0 0 0-.317.317v5.08c0 .177.141.318.317.318h8.89a.316.316 0 0 0 .318-.317v-5.716a.316.316 0 0 0-.317-.317h-4.446z" fill="#66bb6a" paint-order="markers stroke fill"/><path d="M11.113 284.3c-.176 0-.23.165-.318.317l-.185.318H6.667a.316.316 0 0 0-.317.317v5.08c0 .177.141.318.317.318h8.89a.316.316 0 0 0 .318-.317v-5.716a.316.316 0 0 0-.317-.317z" opacity=".15" fill="#fff" paint-order="markers stroke fill"/><rect ry=".159" y="283.347" x="8.255" height=".317" width="1.905" opacity=".25" paint-order="stroke markers fill"/><rect clip-path="url(#b)" transform="rotate(-45 140.288 49.578) scale(.6)" ry=".132" y="217.868" x="-199.587" height="4.762" width="5.292" opacity=".1" fill="url(#d)" paint-order="stroke markers fill"/></g></svg>