<svg width="64" height="64" viewBox="0 0 16.933 16.933" xmlns="http://www.w3.org/2000/svg"><path transform="scale(.26458)" d="M6 9a3.99 3.99 0 0 0-4 4v38c0 2.216 1.784 4 4 4h52c2.216 0 4-1.784 4-4V13c0-2.216-1.784-4-4-4H6z" fill="#e6e6e6" style="paint-order:stroke markers fill"/><rect x="1.587" y="2.64" width="1.058" height=".529" ry=".265" opacity=".25" style="paint-order:stroke markers fill"/><rect x="7.144" y="2.64" width="2.646" height=".529" ry=".265" opacity=".25" style="paint-order:stroke markers fill"/><rect x="15.081" y="2.64" width=".529" height=".529" ry=".265" opacity=".25" style="paint-order:stroke markers fill"/><rect x="14.023" y="2.64" width=".794" height=".529" ry=".265" opacity=".25" style="paint-order:stroke markers fill"/><rect x="13.229" y="2.64" width=".529" height=".529" ry=".265" opacity=".25" style="paint-order:stroke markers fill"/><g fill="#666"><path d="M3.969 13.494a.528.528 0 0 0-.53.53v.528h10.055v-.529a.528.528 0 0 0-.53-.529z" opacity=".5" style="paint-order:stroke markers fill"/><rect x="4.498" y="12.7" width="1.323" height="1.323" ry=".132" style="paint-order:stroke markers fill"/><rect x="6.703" y="12.7" width="1.323" height="1.323" ry=".132" style="paint-order:stroke markers fill"/><rect x="8.908" y="12.7" width="1.323" height="1.323" ry=".132" style="paint-order:stroke markers fill"/><rect x="11.112" y="12.7" width="1.323" height="1.323" ry=".132" style="paint-order:stroke markers fill"/></g><path d="M1.587 2.381C1.002 2.381.53 2.853.53 3.44h15.875c0-.587-.472-1.059-1.058-1.059z" opacity=".35" style="paint-order:stroke markers fill"/><rect x="1.587" y="2.645" width="1.058" height=".529" ry=".265" opacity=".25" style="paint-order:stroke markers fill"/><rect x="7.144" y="2.645" width="2.646" height=".529" ry=".265" opacity=".25" style="paint-order:stroke markers fill"/><rect x="15.081" y="2.645" width=".529" height=".529" ry=".265" opacity=".25" style="paint-order:stroke markers fill"/><rect x="14.023" y="2.645" width=".794" height=".529" ry=".265" opacity=".25" style="paint-order:stroke markers fill"/><rect x="13.229" y="2.645" width=".529" height=".529" ry=".265" opacity=".25" style="paint-order:stroke markers fill"/></svg>