<svg width="64" height="64" version="1.1" viewBox="0 0 16.933 16.933" xmlns="http://www.w3.org/2000/svg">
 <defs>
  <linearGradient id="a" x1="-197.1" x2="-196.91" y1="217.68" y2="219.37" gradientTransform="rotate(-45 -338.07 -140.03)" gradientUnits="userSpaceOnUse">
   <stop offset="0"/>
   <stop stop-opacity="0" offset="1"/>
  </linearGradient>
 </defs>
 <g transform="translate(0 -280.07)">
  <path d="M3.44 282.448c-.294 0-.395.269-.53.53h-.793a.528.528 0 0 0-.53.528v5.292c0 .293.237.53.53.53h12.7c.293 0 .529-.237.529-.53v-5.292a.528.528 0 0 0-.53-.529H7.674c-.155-.249-.236-.53-.53-.53z" fill="#bdbdbd" paint-order="markers stroke fill"/>
  <path d="M3.44 282.448c-.294 0-.395.269-.53.53h-.793a.528.528 0 0 0-.53.528v5.292c0 .293.237.53.53.53h12.7c.293 0 .529-.237.529-.53v-5.292a.528.528 0 0 0-.53-.529H7.674c-.155-.249-.236-.53-.53-.53z" opacity=".18" paint-order="markers stroke fill"/>
  <rect x="2.381" y="283.77" width="12.171" height="5.027" ry=".265" fill="#fff" paint-order="markers stroke fill"/>
  <rect x=".529" y="285.36" width="15.875" height="9.525" ry=".529" fill="#bdbdbd" paint-order="markers stroke fill"/>
  <path d="M8.467 284.3h7.408c.293 0 .53.236.53.53v3.968c0 .293-.237.529-.53.529H6.152c-.294 0-.677-.276-.53-.53l2.316-3.968c.147-.253.236-.529.529-.529z" fill="#bdbdbd" paint-order="markers stroke fill"/>
  <rect x="3.704" y="282.71" width="3.175" height=".529" ry=".265" opacity=".25" paint-order="stroke markers fill"/>
  <path d="M8.467 287.475a2.381 2.381 0 0 0-2.382 2.381 2.381 2.381 0 0 0 2.382 2.381 2.381 2.381 0 0 0 2.38-2.38 2.381 2.381 0 0 0-2.38-2.382zm.212.254c.232.021.456.074.66.163a.2.2 0 0 0-.039.07c-.063.188-.156.098-.046.334.11.235.201.296.233.186.031-.11-.08-.265.046-.202s.218-.017.124.124c-.094.142-.092.218-.202.187-.11-.032-.107.186-.217.217s-.148-.047-.148.031c0 .079.063.006.047.132-.005.039-.004.046-.008.062-.103-.03-.149-.045-.225-.015-.078.031-.17.232-.17.232.097.098.143.169.178.202-.022.011-.048.016-.07.031-.157.11-.279.13-.326.288-.047.157-.031.013-.031.201 0 .189-.048.061.046.234.094.172.325.255.435.35.11.093.223-.206.443.077.22.282.234.169.155.326-.078.157-.155.209-.186.271-.032.063.06.28.17.326h.008l-.015.04c-.142.064-.317.153-.35.163-.077.022-.351.068-.55.124-.026.007-.046.007-.055.008.024-.027.221-.13.318-.187.133-.077-.008-.07-.008-.07s-.211-.023-.644-.023c-.216 0-.31.01-.357.023a.122.122 0 0 0-.047.024c-.012.01-.02.02-.039.031-.078.044.046.09-.054.124-.075.025-.084 0-.148-.047.046-.045.109-.1.187-.194.14-.17.186-.14.233-.295.047-.155-.396-.109-.396-.202 0-.093-.077-.155-.218-.217-.141-.062-.045-.093-.202-.14-.157-.046-.333.233-.38.14-.047-.093.147-.093.147-.202 0-.106-.223.08-.264-.054 0-.005-.007-.005-.007-.008-.004-.02-.002-.032 0-.047.01-.112.139-.155.194-.264.062-.124.03.093.109.202.078.109.047-.14 0-.28-.048-.14.03-.14.14-.326.109-.186.108-.295.108-.434 0-.14.076-.156.233-.296.072-.064.128-.12.17-.17.011-.005.021-.005.032-.008.166-.067.236-.167.38-.466.144-.3-.056-.02-.1-.031-.045-.011-.11-.09-.265-.179a.247.247 0 0 0-.085-.03l.287-.475c.092-.024.19-.041.287-.054.036.201.016.389.016.389s-.055.064-.055.108c0 .045.298-.366.342-.388.045-.022.157.117.179-.093v-.023zm.393.838a.176.176 0 0 0-.028.009c0 .054-.022.094-.031.116-.006-.01-.023-.024-.023-.024-.024.044-.075.082-.024.07.051-.01.09.02.055-.023l-.008-.008c.006.005.02.008.047.008h.07c-.039.028-.08.04-.024.055.075.02.109.023.109.008a.362.362 0 0 0-.024-.07c.015-.006.028-.014.016-.04-.024-.046-.06-.093-.109-.1a.07.07 0 0 0-.026-.002zm1.214.132c.039.06.076.122.109.187-.022.125-.077.21.015.21.026 0 .05-.006.07-.009l.008.023c-.157 0-.232.047-.31.032-.079-.016-.297-.03-.156-.171.083-.083.186-.214.264-.272zm-.978.287c.014.006.027.02.039.047.047.11.125.202.062.217a.476.476 0 0 0-.093.032s.217.141.233-.016c.015-.157-.062-.248-.062-.248s.108.108.14.17c.03.063.03 0 .108.078.078.079.06-.311.17-.202.11.11.18.108.148.186-.031.079.202-.094.202.063 0 .151.097.212-.093.287-.072-.005-.129-.017-.14-.039-.031-.063-.21-.015-.21-.015-.469-.117-.673-.155-.807-.132.002-.005.005-.005.008-.008.068-.124.197-.295.155-.357.06-.035.107-.072.14-.062zm1.32.785v.093c0 .089-.005.178-.015.264-.142-.126-.342-.124-.342-.124s.122-.14.295-.202a.272.272 0 0 0 .062-.031z" fill="#666666"/>
 </g>
 <path d="m16.404 11.641-3.1744 3.1749h2.6458c0.29307 0 0.52864-0.23557 0.52864-0.52864z" fill="url(#a)" opacity=".1" style="paint-order:stroke markers fill"/>
</svg>
