<svg width="64" height="64" version="1.1" viewBox="0 0 16.933 16.933" xmlns="http://www.w3.org/2000/svg">
 <defs>
  <linearGradient id="a" x1="-197.1" x2="-196.91" y1="217.68" y2="219.37" gradientTransform="matrix(.70712 -.70712 .70712 .70712 -.0022482 -.0043142)" gradientUnits="userSpaceOnUse">
   <stop offset="0"/>
   <stop stop-opacity="0" offset="1"/>
  </linearGradient>
 </defs>
 <g transform="translate(0 -280.07)">
  <path d="m3.4396 282.45c-0.29315 0-0.39439 0.26884-0.52917 0.52917h-0.79375c-0.29316 0-0.52917 0.236-0.52917 0.52916v5.2917c0 0.29316 0.23601 0.52917 0.52917 0.52917h12.7c0.29316 0 0.52917-0.23601 0.52917-0.52917v-5.2917c0-0.29316-0.23601-0.52916-0.52917-0.52916h-7.1437c-0.15537-0.24859-0.23601-0.52917-0.52917-0.52917z" fill="#bdbdbd" style="paint-order:markers stroke fill"/>
  <path d="m3.4396 282.45c-0.29315 0-0.39439 0.26884-0.52917 0.52917h-0.79375c-0.29316 0-0.52917 0.236-0.52917 0.52916v5.2917c0 0.29316 0.23601 0.52917 0.52917 0.52917h12.7c0.29316 0 0.52917-0.23601 0.52917-0.52917v-5.2917c0-0.29316-0.23601-0.52916-0.52917-0.52916h-7.1437c-0.15537-0.24859-0.23601-0.52917-0.52917-0.52917z" fill="#000000" opacity=".35" style="paint-order:markers stroke fill"/>
  <rect x="2.3812" y="283.77" width="12.171" height="5.0271" ry=".2646" fill="#ffffff" style="paint-order:markers stroke fill"/>
  <rect x=".52917" y="285.36" width="15.875" height="9.525" ry=".52916" fill="#bdbdbd" style="paint-order:markers stroke fill"/>
  <path d="m8.4667 284.3h7.4083c0.29316 0 0.52917 0.23601 0.52917 0.52917v3.9687c0 0.29316-0.23601 0.52917-0.52917 0.52917h-9.7234c-0.29316 0-0.67689-0.27594-0.52917-0.52917l2.3151-3.9687c0.14772-0.25323 0.23601-0.52917 0.52917-0.52917z" fill="#bdbdbd" style="paint-order:markers stroke fill"/>
  <rect x="3.7042" y="282.71" width="3.175" height=".52916" ry=".26458" fill="#000000" opacity=".25" style="paint-order:stroke markers fill"/>
  <path transform="matrix(.26458 0 0 .26458 0 280.07)" d="m32 28a10 10 0 0 0-10 10 10 10 0 0 0 10 10 10 10 0 0 0 10-10 10 10 0 0 0-10-10zm0 1a9 9 0 0 1 9 9 9 9 0 0 1-9 9 9 9 0 0 1-9-9 9 9 0 0 1 9-9z" fill="#666666" style="paint-order:stroke markers fill"/>
  <rect x="8.2021" y="288.53" width=".52917" height="1.5875" ry=".26458" fill="#666666" style="paint-order:stroke markers fill"/>
  <rect transform="rotate(135)" x="199.03" y="-213.04" width=".26458" height="1.8521" ry=".13229" fill="#666666" style="paint-order:stroke markers fill"/>
  <circle cx="8.4667" cy="290.12" r=".52916" fill="#666666" style="paint-order:stroke markers fill"/>
  <path d="m16.404 291.71-3.1745 3.175h2.6459c0.29308 0 0.52865-0.23557 0.52865-0.52865z" fill="url(#a)" opacity=".1" style="paint-order:stroke markers fill"/>
 </g>
</svg>
