<svg width="64" height="64" version="1.1" xmlns="http://www.w3.org/2000/svg">
 <path fill="#5294e2" d="m8 11c-1.108 0-2 0.892-2 2v6c0 1.108 0.892 2 2 2h19v6h-19c-1.108 0-2 0.892-2 2v6c0 1.108 0.892 2 2 2h19v6h-19c-1.108 0-2 0.892-2 2v6c0 1.108 0.892 2 2 2h48c1.108 0 2-0.892 2-2v-6c0-1.108-0.892-2-2-2h-19v-6h19c1.108 0 2-0.892 2-2v-6c0-1.108-0.892-2-2-2h-19v-6h19c1.108 0 2-0.892 2-2v-6c0-1.108-0.892-2-2-2h-48z"/>
 <path d="M12 15h24v2H12z" fill="#ffffff"/>
 <ellipse cx="43" cy="16" rx="2" ry="2" fill="#ffffff"/>
 <ellipse cx="51" cy="16" rx="2" ry="2" fill="#ffffff"/>
 <path d="M12 31h24v2H12z" fill="#ffffff"/>
 <ellipse cx="43" cy="32" rx="2" ry="2" fill="#ffffff"/>
 <ellipse cx="51" cy="32" rx="2" ry="2" fill="#ffffff"/>
 <path d="M12 47h24v2H12z" fill="#ffffff"/>
 <ellipse cx="43" cy="48" rx="2" ry="2" fill="#ffffff"/>
 <ellipse cx="51" cy="48" rx="2" ry="2" fill="#ffffff"/>
 <path d="m27 21v6h10v-6zm0 16v6h10v-6z" fill="#000000" opacity=".15"/>
</svg>
