<svg xmlns="http://www.w3.org/2000/svg" width="64" height="64"><rect width="38" height="10" x="13" y="-37" ry="2" transform="rotate(90)" fill="#416dc0" paint-order="stroke markers fill"/><rect ry="2" y="27" x="6" height="10" width="52" fill="#5687e3" paint-order="stroke markers fill"/><rect width="52" height="10" x="6" y="43" ry="2" fill="#5687e3" paint-order="stroke markers fill"/><rect width="52" height="10" x="6" y="11" ry="2" fill="#5687e3" paint-order="stroke markers fill"/><path fill="#fff" d="M12 15h24v2H12z"/><ellipse cy="16" cx="43" rx="2" ry="2" fill="#fff"/><ellipse ry="2" rx="2" cx="51" cy="16" fill="#fff"/><path fill="#fff" d="M12 31h24v2H12z"/><ellipse ry="2" rx="2" cx="43" cy="32" fill="#fff"/><ellipse cy="32" cx="51" rx="2" ry="2" fill="#fff"/><path fill="#fff" d="M12 47h24v2H12z"/><ellipse ry="2" rx="2" cx="43" cy="48" fill="#fff"/><ellipse cy="48" cx="51" rx="2" ry="2" fill="#fff"/></svg>