<svg width="64" height="64" viewBox="0 0 16.933 16.933" xmlns="http://www.w3.org/2000/svg"><defs><linearGradient id="a" x1="-197.72" x2="-197.72" y1="263.86" y2="273.76" gradientTransform="matrix(.18709 -.18709 .18709 .18709 1.12 -74.45)" gradientUnits="userSpaceOnUse"><stop offset="0"/><stop stop-opacity="0" offset="1"/></linearGradient></defs><path d="m7.144 2.377-3.704.001c-.294 0-.395.268-.53.529v.003h-.264c-.586 0-1.058.472-1.058 1.059v7.408c0 .586.472 1.058 1.058 1.058h11.642c.586 0 1.058-.472 1.058-1.058V3.969c0-.587-.472-1.059-1.058-1.059h-4.46c-.013 0-.025-.003-.038-.003H7.674c-.155-.25-.235-.53-.53-.53z" fill="#ff9800" style="paint-order:stroke fill markers"/><path d="m7.144 2.377-3.704.001c-.294 0-.395.268-.53.529v.003h-.264c-.586 0-1.058.472-1.058 1.059v7.408c0 .586.472 1.058 1.058 1.058h11.642c.586 0 1.058-.472 1.058-1.058V3.969c0-.587-.472-1.059-1.058-1.059l-6.614-.003c-.155-.25-.235-.53-.53-.53z" opacity=".18" style="paint-order:stroke fill markers"/><rect x="2.381" y="3.7" width="12.171" height="5.027" ry=".533" fill="#fff" paint-order="markers stroke fill"/><rect x="3.704" y="2.64" width="3.175" height=".529" ry=".265" opacity=".25" paint-order="stroke markers fill"/><rect x="2.381" y="1.323" width="12.171" height="7.408" ry=".529" fill="#fff" stroke="#000" stroke-opacity=".039" stroke-width=".265" style="paint-order:markers stroke fill"/><rect x="2.381" y="1.323" width="12.171" height="7.408" ry=".529" fill="#fff" style="paint-order:markers stroke fill"/><rect x="4.233" y="5.556" width="8.467" height=".529" ry=".265" opacity=".15" style="paint-order:stroke markers fill"/><rect x="4.233" y="2.381" width="8.467" height=".529" ry=".265" opacity=".15" style="paint-order:stroke markers fill"/><rect x="4.233" y="3.439" width="8.467" height=".529" ry=".265" opacity=".15" style="paint-order:stroke markers fill"/><rect x="4.233" y="4.498" width="8.467" height=".529" ry=".265" opacity=".15" style="paint-order:stroke markers fill"/><path d="M8.996 5.292 8.202 6.35H1.587C1.001 6.35.53 6.822.53 7.408v6.35c0 .587.472 1.058 1.058 1.058h13.758c.587 0 1.059-.472 1.059-1.058V6.35c0-.586-.472-1.056-1.059-1.058z" fill="#ff9800" style="paint-order:stroke fill markers"/><path d="m16.404 10.583-4.233 4.233h3.175c.586 0 1.058-.472 1.058-1.058z" fill="url(#a)" opacity=".2" style="paint-order:stroke fill markers"/></svg>