<svg xmlns="http://www.w3.org/2000/svg" xmlns:xlink="http://www.w3.org/1999/xlink" width="64" height="64" viewBox="0 0 16.933 16.933"><defs><linearGradient id="a"><stop offset="0"/><stop offset="1" stop-opacity="0"/></linearGradient><clipPath clipPathUnits="userSpaceOnUse" id="b"><rect ry=".529" y="285.358" x=".529" height="9.525" width="15.875" transform="rotate(45)" fill="#ff9800" stroke-width=".251" stroke-opacity=".196" paint-order="markers stroke fill"/></clipPath><linearGradient xlink:href="#a" id="c" x1="-197.102" y1="217.681" x2="-196.914" y2="219.365" gradientUnits="userSpaceOnUse"/></defs><g transform="translate(0 -280.067)"><path d="M3.44 282.448c-.294 0-.395.269-.53.53h-.793a.528.528 0 0 0-.53.528v5.292c0 .293.237.53.53.53h12.7c.293 0 .529-.237.529-.53v-5.292a.528.528 0 0 0-.53-.529H7.674c-.155-.249-.236-.53-.53-.53z" fill="#ff9800" paint-order="markers stroke fill"/><path d="M3.44 282.448c-.294 0-.395.269-.53.53h-.793a.528.528 0 0 0-.53.528v5.292c0 .293.237.53.53.53h12.7c.293 0 .529-.237.529-.53v-5.292a.528.528 0 0 0-.53-.529H7.674c-.155-.249-.236-.53-.53-.53z" opacity=".18" paint-order="markers stroke fill"/><rect width="12.171" height="5.027" x="2.381" y="283.771" ry=".265" fill="#fff" paint-order="markers stroke fill"/><rect width="15.875" height="9.525" x=".529" y="285.358" ry=".529" fill="#ff9800" paint-order="markers stroke fill"/><path d="M8.467 284.3h7.408c.293 0 .53.236.53.53v3.968c0 .293-.237.529-.53.529H6.152c-.294 0-.677-.276-.53-.53l2.316-3.968c.147-.253.236-.529.529-.529z" fill="#ff9800" paint-order="markers stroke fill"/><rect width="3.175" height=".529" x="3.704" y="282.712" ry=".265" opacity=".25" paint-order="stroke markers fill"/><rect width="5.292" height="4.762" x="-199.587" y="217.868" ry=".132" transform="rotate(-45)" clip-path="url(#b)" opacity=".1" fill="url(#c)" paint-order="stroke markers fill"/><path d="M5.82 287.74v4.233h5.292v-4.233H5.821zm.265.264h4.763v3.228l-1.81-1.81-1.95 1.95a.08.08 0 0 1 .008-.102l.56-.562-.808-.81-.763.762v-2.656zm3.97.53a.265.265 0 0 0-.265.264.265.265 0 0 0 .264.264.265.265 0 0 0 .265-.264.265.265 0 0 0-.265-.265z" fill="#fff" paint-order="stroke markers fill"/></g></svg>