<svg width="64" height="64" viewBox="0 0 16.933 16.933" xmlns="http://www.w3.org/2000/svg"><defs><linearGradient id="a" x1="-197.72" x2="-197.72" y1="263.86" y2="273.76" gradientTransform="rotate(-45 -337.55 -145.8)" gradientUnits="userSpaceOnUse"><stop offset="0"/><stop stop-opacity="0" offset="1"/></linearGradient></defs><path transform="scale(.26458)" d="m27.002 8.984-14 .004c-1.11 0-1.493 1.013-2.002 1.998V11h-1c-2.216 0-4 1.784-4 4v28c0 2.216 1.784 4 4 4h44c2.216 0 4-1.784 4-4V15c0-2.216-1.784-4-4-4H37.141c-.047-.003-.092-.014-.14-.014h-7.997c-.586-.94-.89-2.002-2.002-2.002z" fill="#ff9800" style="paint-order:stroke fill markers"/><path transform="scale(.26458)" d="m27.002 8.984-14 .004c-1.11 0-1.493 1.013-2.002 1.998V11h-1c-2.216 0-4 1.784-4 4v28c0 2.216 1.784 4 4 4h44c2.216 0 4-1.784 4-4V15c0-2.216-1.784-4-4-4l-24.996-.014c-.586-.94-.89-2.002-2.002-2.002z" opacity=".18" style="paint-order:stroke fill markers"/><rect x="2.381" y="3.7" width="12.171" height="5.027" ry=".533" fill="#fff" paint-order="markers stroke fill"/><rect x="3.704" y="2.64" width="3.175" height=".529" ry=".265" opacity=".25" paint-order="stroke markers fill"/><path transform="scale(.26458)" d="m34 16-3 4H6c-2.216 0-4 1.784-4 4v28c0 2.216 1.784 4 4 4h52c2.216 0 4-1.784 4-4V20c0-2.216-1.784-4-4-4z" fill="#ff9800" style="paint-order:stroke fill markers"/><path transform="scale(.26458)" d="M62 40 46 56h12c2.216 0 4-1.784 4-4V40z" fill="url(#a)" opacity=".2" style="paint-order:stroke fill markers"/><path style="fill:#fefefe;fill-opacity:1;stroke-width:.0365836" d="M7.154 12.347a43.272 43.272 0 0 1-1.326-.349c-.044-.027-.041-.637.004-.637.02 0 .584.14 1.255.31.671.172 1.289.312 1.373.312.084 0 .706-.14 1.383-.31.677-.171 1.245-.302 1.262-.291.043.027.041.59-.002.618a146.4 146.4 0 0 1-2.655.676l-1.294-.33zm-.042-1.566a26.66 26.66 0 0 1-1.271-.346c-.03-.02-.045-.132-.045-.32 0-.259.007-.29.068-.29.037 0 .621.14 1.298.31.677.171 1.272.311 1.321.311.05 0 .643-.14 1.318-.31a34.326 34.326 0 0 1 1.283-.312c.047 0 .054.053.045.32l-.01.318-1.28.32c-.705.177-1.33.32-1.39.319-.061-.002-.663-.146-1.337-.32zm.007-1.542c-.691-.177-1.272-.337-1.291-.356-.02-.02-.03-.173-.025-.34l.011-.306 1.327-.331 1.327-.331 1.143.286c.628.157 1.228.31 1.334.339l.192.053v.309c0 .257-.01.314-.064.342-.083.044-2.576.665-2.645.66a55.622 55.622 0 0 1-1.31-.325z"/></svg>