<svg xmlns="http://www.w3.org/2000/svg" xmlns:xlink="http://www.w3.org/1999/xlink" width="64" height="64" viewBox="0 0 16.933 16.933"><defs><linearGradient id="a"><stop offset="0"/><stop offset="1" stop-opacity="0"/></linearGradient><clipPath clipPathUnits="userSpaceOnUse" id="b"><rect ry=".529" y="285.358" x=".529" height="9.525" width="15.875" transform="rotate(45)" fill="#7e57c2" stroke-width=".251" stroke-opacity=".196" paint-order="markers stroke fill"/></clipPath><linearGradient xlink:href="#a" id="c" x1="-197.102" y1="217.681" x2="-196.914" y2="219.365" gradientUnits="userSpaceOnUse"/></defs><g transform="translate(0 -280.067)"><path d="M3.44 282.448c-.294 0-.395.269-.53.53h-.793a.528.528 0 0 0-.53.528v5.292c0 .293.237.53.53.53h12.7c.293 0 .529-.237.529-.53v-5.292a.528.528 0 0 0-.53-.529H7.674c-.155-.249-.236-.53-.53-.53z" fill="#7e57c2" paint-order="markers stroke fill"/><path d="M3.44 282.448c-.294 0-.395.269-.53.53h-.793a.528.528 0 0 0-.53.528v5.292c0 .293.237.53.53.53h12.7c.293 0 .529-.237.529-.53v-5.292a.528.528 0 0 0-.53-.529H7.674c-.155-.249-.236-.53-.53-.53z" opacity=".18" paint-order="markers stroke fill"/><rect width="12.171" height="7.408" x="2.381" y="281.39" ry=".529" fill="#fff" stroke="#000" stroke-width=".265" stroke-opacity=".039" paint-order="markers stroke fill"/><rect ry=".529" y="281.39" x="2.381" height="7.408" width="12.171" fill="#fff" paint-order="markers stroke fill"/><rect width="15.875" height="8.467" x=".529" y="286.417" ry=".529" fill="#7e57c2" paint-order="markers stroke fill"/><rect ry=".265" y="285.623" x="4.233" height=".529" width="8.467" opacity=".15" paint-order="stroke markers fill"/><path d="M8.467 285.094h7.408c.293 0 .53.236.53.529v3.969c0 .293-.237.529-.53.529H6.152c-.294 0-.677-.276-.53-.53l2.316-3.968c.147-.253.236-.53.529-.53z" fill="#7e57c2" paint-order="markers stroke fill"/><rect width="5.292" height="4.762" x="-199.587" y="217.868" ry=".132" transform="rotate(-45)" clip-path="url(#b)" opacity=".1" fill="url(#c)" paint-order="stroke markers fill"/><rect width="8.467" height=".529" x="4.233" y="282.448" ry=".265" opacity=".15" paint-order="stroke markers fill"/><rect ry=".265" y="283.506" x="4.233" height=".529" width="8.467" opacity=".15" paint-order="stroke markers fill"/><rect width="8.467" height=".529" x="4.233" y="284.565" ry=".265" opacity=".15" paint-order="stroke markers fill"/></g></svg>