<svg width="64" height="64" version="1.1" viewBox="0 0 16.933 16.933" xmlns="http://www.w3.org/2000/svg" xmlns:xlink="http://www.w3.org/1999/xlink">
 <defs>
  <linearGradient id="c" x1="-197.1" x2="-196.91" y1="217.68" y2="219.36" gradientTransform="matrix(2.6726 -2.6726 2.6726 2.6726 5.4095e-6 -1058.5)" gradientUnits="userSpaceOnUse">
   <stop offset="0"/>
   <stop stop-opacity="0" offset="1"/>
  </linearGradient>
 </defs>
 <path d="m3.44 2.381c-0.294 0-0.395 0.269-0.53 0.53h-0.793a0.528 0.528 0 0 0-0.53 0.528v5.292c0 0.293 0.237 0.53 0.53 0.53h12.7c0.293 0 0.529-0.237 0.529-0.53v-5.292a0.528 0.528 0 0 0-0.53-0.529h-7.142c-0.155-0.249-0.236-0.53-0.53-0.53z" fill="#ef5350" style="paint-order:markers stroke fill"/>
 <path d="m3.44 2.381c-0.294 0-0.395 0.269-0.53 0.53h-0.793a0.528 0.528 0 0 0-0.53 0.528v5.292c0 0.293 0.237 0.53 0.53 0.53h12.7c0.293 0 0.529-0.237 0.529-0.53v-5.292a0.528 0.528 0 0 0-0.53-0.529h-7.142c-0.155-0.249-0.236-0.53-0.53-0.53z" opacity=".18" style="paint-order:markers stroke fill"/>
 <rect x="2.381" y="1.323" width="12.171" height="7.408" ry=".529" fill="#fff" stroke="#000" stroke-opacity=".039" stroke-width=".265" style="paint-order:markers stroke fill"/>
 <rect x="2.381" y="1.323" width="12.171" height="7.408" ry=".529" fill="#fff" style="paint-order:markers stroke fill"/>
 <rect x=".529" y="6.35" width="15.875" height="8.467" ry=".529" fill="#ef5350" style="paint-order:markers stroke fill"/>
 <rect x="4.233" y="5.556" width="8.467" height=".529" ry=".265" opacity=".15" style="paint-order:stroke markers fill"/>
 <path d="m8.467 5.027h7.408c0.293 0 0.53 0.236 0.53 0.529v3.969c0 0.293-0.237 0.529-0.53 0.529h-9.723c-0.294 0-0.677-0.276-0.53-0.53l2.316-3.968c0.147-0.253 0.236-0.53 0.529-0.53z" fill="#ef5350" style="paint-order:markers stroke fill"/>
 <path transform="scale(.26458)" d="m62 43.998-11.998 12h10c1.1077 0 1.998-0.89037 1.998-1.998v-10.002z" fill="url(#c)" opacity=".1" stroke-width="3.7796" style="paint-order:stroke markers fill"/>
 <rect x="4.233" y="2.381" width="8.467" height=".529" ry=".265" opacity=".15" style="paint-order:stroke markers fill"/>
 <rect x="4.233" y="3.439" width="8.467" height=".529" ry=".265" opacity=".15" style="paint-order:stroke markers fill"/>
 <rect x="4.233" y="4.498" width="8.467" height=".529" ry=".265" opacity=".15" style="paint-order:stroke markers fill"/>
</svg>
