<svg width="64" height="64" version="1.1" viewBox="0 0 16.933 16.933" xmlns="http://www.w3.org/2000/svg" xmlns:xlink="http://www.w3.org/1999/xlink">
 <title>Canvas icon theme</title>
 <defs>
  <linearGradient id="a" x1="13.229" x2="2.1167" y1="297" y2="280.07" gradientTransform="matrix(1.0714 0 0 1 -.60476 0)" gradientUnits="userSpaceOnUse">
   <stop stop-color="#ffa566" offset="0"/>
   <stop stop-color="#ff7494" offset="1"/>
  </linearGradient>
 </defs>
 <g transform="translate(0 -280.07)">
  <rect x=".52917" y="282.45" width="15.875" height="12.171" ry=".2646" fill="url(#a)" style="paint-order:stroke markers fill"/>
  <g>
   <rect x="1.5875" y="282.71" width="1.0583" height=".52918" ry=".26459" opacity=".35" style="paint-order:stroke markers fill"/>
   <rect x="7.1437" y="282.71" width="2.6458" height=".52918" ry=".26459" opacity=".35" style="paint-order:stroke markers fill"/>
   <rect x="15.081" y="282.71" width=".52917" height=".52918" ry=".26459" opacity=".35" style="paint-order:stroke markers fill"/>
   <rect x="14.023" y="282.71" width=".79375" height=".52918" ry=".26459" opacity=".35" style="paint-order:stroke markers fill"/>
   <rect x="13.229" y="282.71" width=".52917" height=".52918" ry=".26459" opacity=".35" style="paint-order:stroke markers fill"/>
  </g>
  <path transform="matrix(.26458 0 0 .26458 0 280.07)" d="m15 51c-1.108 0-2 0.89201-2 2v2h38v-2c0-1.108-0.89201-2-2-2h-34z" fill="#fff" opacity=".35" style="paint-order:stroke markers fill"/>
  <g fill="#ffd9cd">
   <rect x="4.4979" y="292.77" width="1.3229" height="1.3229" ry=".13229" style="paint-order:stroke markers fill"/>
   <rect x="6.7028" y="292.77" width="1.3229" height="1.3229" ry=".13229" style="paint-order:stroke markers fill"/>
   <rect x="8.9076" y="292.77" width="1.3229" height="1.3229" ry=".13229" style="paint-order:stroke markers fill"/>
   <rect x="11.112" y="292.77" width="1.3229" height="1.3229" ry=".13229" style="paint-order:stroke markers fill"/>
  </g>
  <path transform="matrix(.26458 0 0 .26458 0 280.07)" d="m3 9c-0.55403 0-1 0.44597-1 1v3h60v-3c0-0.55403-0.44597-1-1-1h-58z" opacity=".35" style="paint-order:stroke markers fill"/>
 </g>
</svg>
