<svg xmlns="http://www.w3.org/2000/svg" width="64" height="64"><path d="m33.755 12.34-8.774 5.582h5.264z" fill="none"/><path d="M53.828 56.682 56.556 4.84H7.444l2.728 51.84c.08 1.51 1.217 2.73 2.729 2.73h38.198a2.722 2.722 0 0 0 2.729-2.73z" fill="#fff" stroke="#000" stroke-opacity=".039" paint-order="markers stroke fill"/><path d="m29.599 43.43-.009-8.103h-5.554l-6.63-1.2 4.37 7.839c.215.38 1.499 1.465 3.667 1.465z" fill="#888"/><path d="m24.036 35.327 1.424-2.558 1.821 1.085-1.291-3.734-1.292-3.725-3.774.704-3.767.703 1.523.911-1.241 2.218c-.588 1.06-.696 2.012-.033 3.196l4.37 7.839c.108.19.489.554 1.11.877-2.12-1.531-.895-3.915 1.15-7.516z" fill="#bebebe"/><path d="m21.644 23.266 6.788 4.056a1452.98 1452.98 0 0 0 2.773-4.991L35.534 17h-8.75c-.43 0-1.978.604-3.062 2.541z" fill="#888"/><path d="m31.205 22.34 1.432 2.557-1.821 1.093 3.774.703 3.767.704 1.3-3.725 1.29-3.733-1.523.91-1.241-2.227C37.595 17.562 36.85 17 35.533 17h-8.749c-.215 0-.712.149-1.291.546 2.334-1.125 3.725 1.16 5.712 4.793z" fill="#bebebe"/><path d="m44.2 26.346-7.027 4.056a910.902 910.902 0 0 0 2.79 4.81l2.268 6.34 4.602-7.707c.224-.372.522-2.028-.555-3.907z" fill="#888"/><path d="m39.963 35.211-2.94.041.034-2.119-5.165 5.977 2.491 2.905 2.5 2.914.025-1.771 2.55-.042c1.208-.016 2.077-.397 2.773-1.564l4.602-7.707c.116-.19.248-.695.207-1.399-.265 2.6-2.939 2.732-7.077 2.765z" fill="#bebebe"/></svg>