<svg xmlns="http://www.w3.org/2000/svg" width="16" height="16"><path d="M4.5 0A3.5 3.5 0 0 0 1 3.5a3.5 3.5 0 0 0 .234 1.256 8.01 8.01 0 0 1 5.782-3.69A3.5 3.5 0 0 0 4.5 0zm7 0a3.5 3.5 0 0 0-2.512 1.066 8.01 8.01 0 0 1 5.776 3.688A3.5 3.5 0 0 0 15 3.5 3.5 3.5 0 0 0 11.5 0zM8 2a7 7 0 0 0-7 7 7 7 0 0 0 1.647 4.51 7 7 0 0 0 .46.496 1 1 0 0 0-.814.287 1 1 0 0 0 0 1.414 1 1 0 0 0 1.414 0 1 1 0 0 0 .246-1.006 7 7 0 0 0 .59.375 7 7 0 0 0 .596.303 7 7 0 0 0 .056.025 7 7 0 0 0 .537.209 7 7 0 0 0 .17.057 7 7 0 0 0 .489.135 7 7 0 0 0 .193.043 7 7 0 0 0 .484.082 7 7 0 0 0 .225.027 7 7 0 0 0 .521.037A7 7 0 0 0 8 16a7 7 0 0 0 .7-.035 7 7 0 0 0 3.323-1.242 7 7 0 0 0 .022-.014 1 1 0 0 0 .248.998 1 1 0 0 0 1.414 0 1 1 0 0 0 0-1.414 1 1 0 0 0-.826-.285 7 7 0 0 0 .445-.479 7 7 0 0 0 .031-.033 7 7 0 0 0 .012-.016 7 7 0 0 0 .369-.486 7 7 0 0 0 .059-.08 7 7 0 0 0 .295-.482 7 7 0 0 0 .072-.127 7 7 0 0 0 .236-.493 7 7 0 0 0 .065-.142 7 7 0 0 0 .168-.463 7 7 0 0 0 .072-.219 7 7 0 0 0 .113-.441 7 7 0 0 0 .053-.235 7 7 0 0 0 .067-.449 7 7 0 0 0 .031-.254A7 7 0 0 0 15 9a7 7 0 0 0-7-7zm0 2a5 5 0 0 1 5 5 5 5 0 0 1-5 5 5 5 0 0 1-5-5 5 5 0 0 1 .025-.5A5 5 0 0 1 8 4zm2.49 1.996a.5.5 0 0 0-.344.15L8 8.293 6.354 6.647a.5.5 0 1 0-.708.707l2 2a.5.5 0 0 0 .708 0l2.5-2.5a.5.5 0 0 0-.364-.858z" fill="#555555"/></svg>