<svg xmlns="http://www.w3.org/2000/svg" width="16" height="16"><path d="M11 11v1c0 .28.1.54.28.72l.78.78-.78.78c-.18.18-.28.44-.28.72v1h1c.28 0 .54-.1.72-.28l.78-.78.78.78c.18.18.44.28.72.28h1v-1c0-.28-.1-.54-.28-.72l-.78-.78.78-.78c.18-.18.28-.44.28-.72v-1h-1c-.28 0-.54.1-.72.28l-.78.78-.78-.78c-.18-.18-.44-.28-.72-.28z" fill="#555555"/><path d="M8 1a7 7 0 0 0-7 7 7 7 0 0 0 7 7 7 7 0 0 0 2-.295v-2.129A5 5 0 0 1 8 13a5 5 0 0 1-5-5 5 5 0 0 1 5-5 5 5 0 0 1 5 5 5 5 0 0 1-.42 2h2.121A7 7 0 0 0 15 8a7 7 0 0 0-7-7z" fill="#555555" opacity=".3"/><path d="M10.49 4.996a.5.5 0 0 0-.344.15L8 7.293 6.354 5.646a.5.5 0 1 0-.708.708l2 2a.5.5 0 0 0 .708 0l2.5-2.5a.5.5 0 0 0-.364-.858z" opacity=".3" fill="#555555"/></svg>