<svg width="16" height="16" version="1.1" xmlns="http://www.w3.org/2000/svg">
 <path d="m8 0.5-6 2v7c0 2.07 1.5795 3.4895 2.9395 4.4395s3.0605 1.5605 3.0605 1.5605 1.7005-0.61055 3.0605-1.5605c1.36-0.96 2.9395-2.3995 2.9395-4.4395v-7l-6-2zm0 3.5c0.55228 0 1 0.44772 1 1s-0.44772 1-1 1-1-0.44772-1-1 0.44772-1 1-1zm-2 3h3v5h-2v-4h-1v-1z" fill="#555555"/>
 <path class="warning" d="m16 13.5a1.5 1.5 0 0 1-1.5 1.5 1.5 1.5 0 0 1-1.5-1.5 1.5 1.5 0 0 1 1.5-1.5 1.5 1.5 0 0 1 1.5 1.5z" fill="#3c7ee7"/>
</svg>
