<svg width="16" height="16" enable-background="new" version="1.1" xmlns="http://www.w3.org/2000/svg">
 <path d="m6 1v1h-3v1 11c0 0.554 0.446 1 1 1h4.7129c-1.0343-0.82662-1.7129-2.0821-1.7129-3.5 0-2.4734 2.0266-4.5 4.5-4.5 0.52807 0 1.028 0.10993 1.5 0.2793v-4.2793-1h-3v-1h-4zm4 8.6172c-0.57873 0.45573-1 1.0799-1 1.8828s0.42127 1.4271 1 1.8828v-0.38281-1-2.3828z" enable-background="new" fill="#e74c3c" opacity=".35"/>
 <path d="m3 13v1c0 0.554 0.446 1 1 1h4.7129c-0.6491-0.51876-1.1482-1.2047-1.4336-2h-4.2793zm6.5918 0c0.12301 0.13878 0.26017 0.26624 0.4082 0.38281v-0.38281h-0.4082z" enable-background="new" fill="#e74c3c"/>
 <path d="m11.5 8a3.5 3.5 0 0 0-3.5 3.5 3.5 3.5 0 0 0 3.5 3.5 3.5 3.5 0 0 0 3.5-3.5 3.5 3.5 0 0 0-3.5-3.5zm-0.5 1h1v3h-1v-3zm0 4h1v1h-1v-1z" fill="#ff7f2a"/>
</svg>
