<svg width="16" height="16.021" version="1.1" viewBox="0 0 16 16.021" xmlns="http://www.w3.org/2000/svg">
 <path d="m6 0v1h-2c-0.554 0-1 0.446-1 1v12c0 0.554 0.446 1 1 1h8c0.554 0 1-0.446 1-1v-12c0-0.554-0.446-1-1-1h-2v-1zm-1 3h6v10h-6z" fill="#565656"/>
 <rect x="5" y="7" width="6" height="6" fill="#565656"/>
 <path class="success" d="m6.5 5c-0.277 0-0.5 0.223-0.5 0.5v1.5h-1v1.5c0 0.831 0.669 1.5 1.5 1.5h0.5v1c0 0.554 0.446 1 1 1s1-0.446 1-1v-1h0.5c0.831 0 1.5-0.669 1.5-1.5v-1.5h-1v-1.5c0-0.66667-1-0.66667-1 0v1.5h-2v-1.5c0-0.277-0.223-0.5-0.5-0.5" fill="#8fd68f"/>
</svg>
