<svg xmlns="http://www.w3.org/2000/svg" height="16.02" width="16"><path d="M8.5.02C5.453.02 3 2.696 3 6.02v4c0 3.324 2.453 6 5.5 6 .169 0 .335-.011.5-.027v-2.317l-.031.032c-.025.06-.08.11-.125.156a.484.484 0 0 1-.344.156H8V9.083l-2.156 1.78a.485.485 0 0 1-.344.157H5v-.5c0-.153.079-.283.188-.375L7.75 8.02 5.313 5.99c-.047-.02-.087-.062-.125-.094A.494.494 0 0 1 5 5.52v-.5h.5c.123 0 .225.052.313.125l.03.031L8 6.958V2.02h.5c.208 0 .393.133.469.313l2.875 2.843.406.375-.437.344L9.25 8.02l1.412 1.172c.546-.706 1.383-1.174 2.338-1.174.353 0 .687.073 1 .188V6.02c0-3.324-2.453-6-5.5-6zM9 3.708v3.25l1.781-1.47L9 3.709zm4 5.31c-1.108 0-2 .911-2 2.031v.97h-1v4h6v-4h-1v-.97c0-1.12-.892-2.03-2-2.03zm-4 .065v1.935h1.014a3.03 3.03 0 0 1 .177-.953L9 9.083zm4 .935c.554 0 1 .443 1 1v1h-2v-1c0-.557.446-1 1-1z" fill="#555"/></svg>