<svg width="16" height="16" version="1.1" xmlns="http://www.w3.org/2000/svg">
 <path d="m8.5 0c-3.05 0-5.5 2.68-5.5 6h2.3691l-0.43945-0.36914 0.64062-0.76172 1.3457 1.1309h1.084v-4.7109l4.2402 4.2402-0.56055 0.4707h2.3203c0-3.32-2.45-6-5.5-6zm0.5 3.7109v2.2891h1.1289l0.63086-0.5293zm-6 6.2891c0 3.32 2.45 6 5.5 6s5.5-2.68 5.5-6h-2.3203l0.56055 0.4707-4.2402 4.2402v-4.7109h-1.084l-1.3457 1.1309-0.64062-0.76172 0.43945-0.36914zm6 0v2.2891l1.7598-1.7598-0.63086-0.5293z" fill="#555555" opacity=".35"/>
 <g transform="matrix(.9375 0 0 .66667 1 1.6667)" fill="#555555">
  <path transform="translate(-192,-248)" d="m192 256h16v3h-16z"/>
 </g>
</svg>
