<svg width="16" height="16" version="1.1" xmlns="http://www.w3.org/2000/svg">
 <path d="m5.001 2c0.554 0 1 0.446 1 1v3c0 0.554-0.446 1-1 1h-0.711a6.972 6.972 0 0 0 4.71 4.71v-0.71c0-0.554 0.447-1 1-1h3c0.555 0 1 0.446 1 1v1.5a2.5 2.5 0 0 1-2.5 2.5h-0.5c-5.504 0-10-4.495-10-10v-0.5a2.5 2.5 0 0 1 2.5-2.5z" fill="#565656"/>
 <path d="m12.974 8.004h0.99577v-0.82848a0.99577 0.99577 0 0 0-0.99577-1.1631h-1.5793l4.2748-4.2748c0.97785-0.93802-0.47-2.3859-1.408-1.408l-4.2748 4.2748v-1.5793a0.99577 0.99577 0 0 0-1.1531-0.99577h-0.83844v0.99577l0.00498 4.9749z" fill="#565656"/>
</svg>
