<svg width="16" height="16" version="1.1" xmlns="http://www.w3.org/2000/svg">
 <path d="m1.604 4.0825a1.003 1.003 0 0 0-0.605 0.918v8c0 0.55 0.448 1 1 1h9.523l-1.533-1.533a4 4 0 0 1-1.99 0.533c-3.073-2e-3 -4.996-3.324-3.467-5.99zm4.452 4.451a2 2 0 0 0 2.41 2.41zm-4.526-8.064-1.061 1.061 14 14 1.062-1.062z" fill="#555555"/>
 <path d="m5.999 2.0005c-0.55 0-1 0.45-1 1v1h-1l1.72 1.72a3.973 3.973 0 0 1 2.28-0.72 4 4 0 0 1 4 4c0 0.849-0.27 1.632-0.72 2.28l2.72 2.72c0.552 0 1-0.45 1-1v-8c0-0.55-0.448-1-1-1h-3v-1c0-0.55-0.45-1-1-1zm2 5c-0.293 0-0.57 0.067-0.82 0.18l2.64 2.64c0.114-0.25 0.18-0.527 0.18-0.82a2 2 0 0 0-2-2z" color="#bebebe" fill="#555555" overflow="visible"/>
</svg>
