<svg xmlns="http://www.w3.org/2000/svg" width="16" height="16">
    <g fill="#555555">
        <path d="m 238,249.99999 c -0.54996,0 -1,0.45004 -1,1 v 1 h -3 c -0.55201,0 -1,0.45004 -1,1 v 2 h 3.55469 c 0.6929,-1.1906 1.96849,-2 3.44531,-2 1.47682,0 2.75241,0.8094 3.44531,2 H 247 v -2 c 0,-0.54996 -0.44799,-1 -1,-1 h -3 v -1 c 0,-0.54996 -0.45004,-1 -1,-1 z m -5,10 v 1 c 0,0.54996 0.44799,1 1,1 h 12 c 0.55201,0 1,-0.45004 1,-1 v -1 h -4.38086 c -0.70322,0.61442 -1.61196,1 -2.61914,1 -1.00718,0 -1.91592,-0.38558 -2.61914,-1 z" style="marker:none" color="#bebebe" overflow="visible" fill-opacity=".349" transform="translate(-232 -248)"/>
        <path d="m 232,255.99999 h 16 v 3 h -16 z" transform="translate(-232 -248)"/>
    </g>
</svg>
