<svg width="15.974" height="16" version="1.1" xmlns="http://www.w3.org/2000/svg">
 <path d="m7.9863 2c-2.7398 0-5 2.2081-5 4.9277 0 0.18358 0.015263 0.33927 0.029297 0.47656 4.009e-4 0.0047 0.00154 0.00898 0.00195 0.013672 1.143e-4 0.00111-1.141e-4 0.0028 0 0.00391 0.01389 0.15636 0.034057 0.31069 0.058594 0.45703 0.51748 3.1164 2.5927 5.245 4.2109 6.834l0.69922 0.6875 0.70117-0.6875c1.6181-1.5889 3.6935-3.7168 4.2109-6.834v-0.00195c0.02349-0.14031 0.04494-0.2942 0.05859-0.45508 6.89e-4 -0.00668 0.0013-0.016649 2e-3 -0.023437 0.01387-0.13614 0.02734-0.28937 0.02734-0.4707 0-2.7196-2.2602-4.9277-5-4.9277zm0 2c1.6785 0 3 1.3089 3 2.9277 0 0.079849-0.0068 0.16581-0.01953 0.28906v0.011719l-2e-3 0.011719c-0.0073 0.091538-0.02068 0.19698-0.03906 0.30664v0.00195c-0.33663 2.031-1.6093 3.5669-2.9394 4.9473-1.3298-1.3804-2.6009-2.9174-2.9375-4.9473v-0.00195c-0.017721-0.10569-0.032504-0.21281-0.041016-0.3125v-0.00781l-0.00195-0.00977c-0.012704-0.12325-0.019534-0.20922-0.019534-0.28906 0-1.6188 1.3215-2.9277 3-2.9277z" color="#000000" fill="#555555" style="-inkscape-stroke:none"/>
 <circle cx="8" cy="7" r="1" fill="#555555" style="paint-order:fill markers stroke"/>
</svg>
