<svg width="16" height="16" version="1.1" xmlns="http://www.w3.org/2000/svg">
 <path d="m7.9863 0c-0.044152 0-0.081054 0.024432-0.125 0.025391-2.3753 0.051811-4.4442 1.4841-5.3652 3.5293l8.8203 8.8203c1.143-1.3853 2.2017-3.1232 2.5684-5.332l0.013672-0.082031v-0.025391c0.019799-0.12825 0.039604-0.26183 0.052734-0.41016l0.001953-0.011719c3.02e-4 -0.00393 0.0017-0.028366 0-0.011719v-0.0019531c0.01492-0.14646 0.033203-0.34141 0.033203-0.57227-7.6e-5 -3.2736-2.7229-5.9277-6-5.9277zm0.013672 4a2 2 0 0 1 2 2 2 2 0 0 1-2 2 2 2 0 0 1-2-2 2 2 0 0 1 2-2zm-5.9688 1.2148c-0.028841 0.23369-0.044922 0.47139-0.044922 0.71289 0 0.23901 0.020804 0.43772 0.035156 0.57812v0.0058594l0.0019531 0.0078124c7.7e-6 2.179e-4 -1.5e-6 0.0038863 0 0.0039063 0.016243 0.17864 0.038421 0.35458 0.066406 0.52148 0.57673 3.4689 2.8646 5.7788 4.4961 7.3809l1.3984 1.377 1.4043-1.377c0.29148-0.28622 0.60393-0.59571 0.92383-0.92969l-8.2812-8.2813z" color="#000000" fill="#555555"/>
 <path d="m1.531 0.469-1.061 1.061 14 14 1.062-1.062z" fill="#555555"/>
</svg>
