<svg width="16" height="16" version="1.1" xmlns="http://www.w3.org/2000/svg">
 <path d="m1.531 0.469-1.061 1.061 14 14 1.062-1.062z" fill="#555555"/>
 <path d="M 3.025,5.498 A 5.067,5.067 0 0 0 3,6 C 3,6.173 3.014,6.332 3.031,6.5 3.045,6.667 3.067,6.836 3.094,7 3.666,10.514 6,13.004 8,15.004 8.714,14.29 9.47,13.51 10.174,12.646 Z M 8,1 C 6.103,1 4.472,2.069 3.625,3.625 L 6,6 a 2,2 0 1 1 2,2 l 3.213,3.213 C 12.008,9.985 12.645,8.603 12.906,7 12.933,6.836 12.955,6.667 12.969,6.5 12.986,6.332 13,6.173 13,6 A 5,5 0 0 0 8,1 Z" color="#000000" fill="#555555" overflow="visible" solid-color="#000000" style="isolation:auto;mix-blend-mode:normal"/>
</svg>
