<svg xmlns="http://www.w3.org/2000/svg" width="16" height="16">
    <g fill="#555555">
        <path d="m 213.531,228.469 -1.061,1.061 14,14 1.062,-1.062 z" transform="translate(-212 -228)"/>
        <path d="m 220,228 c -1.662,0 -3,1.338 -3,3 v 1.64453 l 5.2832,5.2832 C 222.72383,237.4058 223,236.73965 223,236 v -5 c 0,-1.662 -1.338,-3 -3,-3 z m -6,6 v 2.00977 c 0,2.96574 2.16538,5.4238 5,5.90039 V 244 h 2 v -2.08984 c 0.64598,-0.10861 1.24984,-0.33194 1.80859,-0.62891 l -1.11132,-1.11133 C 221.17391,240.38 220.60353,240.5 220,240.5 c -2.50669,0 -4.5,-1.99014 -4.5,-4.49023 V 234 Z m 10.5,0 v 2.00977 c 0,1.15729 -0.44099,2.19439 -1.14844,2.98632 l 1.05274,1.05274 C 225.38802,238.9836 226,237.57264 226,236.00977 V 234 Z m -7.5,1.47266 V 236 c 0,1.662 1.338,3 3,3 0.16422,0 0.3216,-0.0237 0.47852,-0.0488 z" style="line-height:normal;font-variant-ligatures:normal;font-variant-position:normal;font-variant-caps:normal;font-variant-numeric:normal;font-variant-alternates:normal;font-feature-settings:normal;text-indent:0;text-align:start;text-decoration-line:none;text-decoration-style:solid;text-decoration-color:#000;text-transform:none;text-orientation:mixed;white-space:normal;shape-padding:0;isolation:auto;mix-blend-mode:normal;solid-color:#000;solid-opacity:1" color="#000" font-weight="400" font-family="sans-serif" overflow="visible" transform="translate(-212 -228)"/>
    </g>
</svg>
