<svg width="16" height="16" version="1.1" xmlns="http://www.w3.org/2000/svg">
 <path d="m8 0c-1.66 0-3 1.34-3 3v3.0586l2.0039 2.0039c-0.001301-0.020975-0.0039062-0.041186-0.0039062-0.0625v-5c0-0.554 0.446-1 1-1s1 0.446 1 1v5c0 0.554-0.446 1-1 1-0.021314 0-0.041525-0.0026052-0.0625-0.0039062l1.5859 1.5859c0.88357-0.52132 1.4766-1.4794 1.4766-2.582v-5c0-1.66-1.34-3-3-3zm-6 8c0 2.97 2.16 5.4302 5 5.9102v2.0898h2v-2.0898c0.46602-0.078764 0.91307-0.21172 1.3359-0.39062l-1.5879-1.5879c-0.24206 0.044733-0.49186 0.068359-0.74805 0.068359-2.23 0-4-1.77-4-4h-2zm10 0c0 1.3892-0.68705 2.599-1.7441 3.3145l1.4199 1.4199c1.4139-1.0962 2.3242-2.8078 2.3242-4.7344h-2zm-6.9902 0.19336c0.095834 1.5045 1.2924 2.701 2.7969 2.7969l-2.7969-2.7969z" fill="#555555"/>
 <path d="m1.531 0.469-1.061 1.061 14 14 1.062-1.062z" fill="#555555"/>
</svg>
