<svg xmlns="http://www.w3.org/2000/svg" width="16" height="16"><path d="M8 0C6.64 0 5.512.906 5.144 2.144L11 8V3c0-1.66-1.34-3-3-3zM5 5.5V8c0 1.66 1.34 3 3 3 .702 0 1.34-.249 1.85-.65zM2 7v1c0 2.97 2.16 5.43 5 5.91V16h2v-2.09a5.98 5.98 0 0 0 2.973-1.437l-1.411-1.411A3.963 3.963 0 0 1 8 12c-2.23 0-4-1.77-4-4V7zm10 0v1c0 .307-.051.597-.119.88l1.568 1.569A5.854 5.854 0 0 0 14 8V7z" fill="#555555"/><path d="M2.5 1L15 13.5 13.5 15 1 2.5z" fill="#555555"/><path d="M2.5 1L15 13.5 13.5 15 1 2.5z" fill="#555555"/></svg>