<svg width="16" height="16" version="1.1" xmlns="http://www.w3.org/2000/svg">
 <path d="m6 0c-1.66 0-3 1.34-3 3v1.0586l2 2v-3.0586c0-0.554 0.446-1 1-1s1 0.446 1 1v5c0 0.018659-0.0029073 0.036286-0.0039062 0.054688l1.543 1.543c0.29092-0.46236 0.46094-1.0097 0.46094-1.5977v-5c0-1.66-1.34-3-3-3zm-3 6.1836v1.8164c0 1.66 1.34 3 3 3 0.52474 0 1.0167-0.13551 1.4453-0.37109l-1.6465-1.6484c-6.136e-4 -1.25e-4 -0.0013399 1.26e-4 -0.0019531 0-0.3898-0.080124-0.69722-0.38755-0.77734-0.77734v-0.0019531l-2.0195-2.0176zm-3 0.81641v1c0 2.97 2.16 5.4302 5 5.9102v2.0898h2v-2.0898c0.96713-0.16346 1.8545-0.55643 2.6055-1.1211l-1.4258-1.4258c-0.62492 0.40246-1.3717 0.63672-2.1797 0.63672-2.23 0-4-1.77-4-4v-1h-2zm10 0v1c0 0.87141-0.27198 1.6715-0.73438 2.3242l1.418 1.418c0.82272-1.0253 1.3164-2.3251 1.3164-3.7422v-1h-2z" fill="#555555"/>
 <circle cx="14" cy="4" r="1" fill="#555555" fill-rule="evenodd" opacity=".35" stop-color="#000000" stroke-linecap="round" stroke-linejoin="round" stroke-width="2" style="paint-order:stroke fill markers"/>
 <circle cx="14" cy="8" r="1" fill="#555555" fill-rule="evenodd" opacity=".35" stop-color="#000000" stroke-linecap="round" stroke-linejoin="round" stroke-width="2" style="paint-order:stroke fill markers"/>
 <circle cx="14" cy="12" r="1" fill="#555555" fill-rule="evenodd" opacity=".35" stop-color="#000000" stroke-linecap="round" stroke-linejoin="round" stroke-width="2" style="paint-order:stroke fill markers"/>
 <path d="m1.531 0.469-1.061 1.061 14 14 1.062-1.062z" fill="#555555"/>
</svg>
