<svg xmlns="http://www.w3.org/2000/svg" width="16" height="16"><path d="M7.193 0c-1.098 1.38-1.427 1.57-1.03 2.45.358.8 1.286.7.82 2.55.766-.9 1.375-1.54.773-2.46-.612-.94-.948-1.01-.563-2.54zm3 0c-1.098 1.38-1.427 1.57-1.03 2.45.358.8 1.286.7.82 2.55.766-.9 1.375-1.54.773-2.46-.612-.94-.948-1.01-.563-2.54zm3 0c-1.098 1.38-1.427 1.57-1.031 2.45.359.8 1.287.7.82 2.55.767-.9 1.376-1.54.774-2.46-.612-.94-.948-1.01-.563-2.54zM4 6a4 4 0 1 0 0 8c.242 0 .484-.02.723-.07C5.462 15.48 6.958 16 10 16c6 0 6-2 6-10zm0 2h.008c.011 1.6.052 2.94.195 3.99-.067 0-.135.01-.203.01-1.105 0-2-.9-2-2s.895-2 2-2z" fill="#555555"/></svg>