<svg width="16" height="16" version="1.1" xmlns="http://www.w3.org/2000/svg">
 <path d="m8 1c-2.2875 0.009378-4.5152 0.7317-6.373 2.0664-0.54386 0.38859-1.0512 0.82599-1.5156 1.3066l7.8887 9.627 3.0273-3.6934c-0.016857-0.10015-0.026479-0.2038-0.025391-0.3125 0.002073-0.79564 0.33613-1.4279 0.68359-1.8652a1.0001 1.0001 0 0 1 0.003906-0.0039062c0.036823-0.045716 0.088523-0.0768 0.12695-0.12109h-1.4922l-2.3242 2.8398-5.1094-6.2363c1.5005-1.0419 3.2826-1.6026 5.1094-1.6074 1.0279 2.197e-4 2.0418 0.1766 3 0.51562 0.52627-0.29297 1.1241-0.47434 1.7559-0.50977 0.068243-0.0038248 0.13542-0.0055085 0.20312-0.0058594 0.77848-0.0040344 1.5175 0.22043 2.1465 0.61133-0.2317-0.19646-0.46939-0.38573-0.7168-0.5625-1.8642-1.3316-4.0977-2.0478-6.3887-2.0488z" fill="#565656" opacity=".35"/>
 <path d="m12.812 4.0047c1.6407-0.091957 3.0936 1.1694 3.1855 2.8107 0 1.4013-0.3777 1.9211-1.5927 2.8427-0.19085 0.14393-0.32574 0.24988-0.3747 0.31285-0.04996 0.06197-0.03098 0.03298-0.03098 0.02999 7e-3 0.52875-0.47163 0.99953-0.99921 0.99953-0.52858 0-1.0062-0.47078-0.99921-0.99953 0-0.50176 0.22382-0.94255 0.46763-1.2494 0.20886-0.2593 0.45072-0.49015 0.71943-0.68668 0.20284-0.15992 0.45964-0.38382 0.68646-0.65569 0.09293-0.11195 0.1289-0.30785 0.1249-0.43779v-0.029986c-0.02651-0.55617-0.50719-0.98046-1.0622-0.93756-0.56256 0.030985-0.96824 0.43679-0.93626 0.99953h-1.9984c-0.091928-1.6422 1.1691-2.9066 2.8098-2.9986zm0.18785 7.9962c1.3323 0 1.3323 1.9991 0 1.9991s-1.3323-1.9991 0-1.9991z" fill="#565656"/>
</svg>
