<svg width="16" height="16" version="1.1" xmlns="http://www.w3.org/2000/svg">
 <path d="m2 2s-1 1e-6 -1 1v9c0 1 1 1 1 1h2l1 1h6c0-0.47204 0.15413-0.95795 0.50391-1.3516 0.07168-0.08067 0.21864-0.06482 0.30664-0.13281-0.4699-0.36053-0.81236-0.85884-0.80859-1.5156h-0.001953l-1 1h-4l-1-1h-2v-7h10c0.71976 0.00358 1.4062 0.20078 2 0.54492v-1.5449c0-1-1-1-1-1zm13 9.4609c-0.17268 0.13229-0.32102 0.30467-0.19141 0.13672-0.01699 0.02106-0.03001 0.03646-0.05469 0.06445-0.0084 0.0095-0.02626 0.02775-0.04297 0.04492-0.13195 0.32059-0.25228 0.60218-0.52148 0.80859 0.088 0.06798 0.23496 0.05214 0.30664 0.13281 0.0545 0.06133 0.10328 0.126 0.14844 0.19141 0.19325-0.13732 0.35547-0.38564 0.35547-0.83984z" fill="#565656" opacity=".45"/>
 <path d="m12.812 5.0038c1.6407-0.091957 3.0936 1.1694 3.1855 2.8107 0 1.4013-0.3777 1.9211-1.5927 2.8427-0.19085 0.14393-0.32574 0.24988-0.3747 0.31285-0.04996 0.06197-0.03098 0.03298-0.03098 0.02999 7e-3 0.52875-0.47163 0.99953-0.99921 0.99953-0.52858 0-1.0062-0.47078-0.99921-0.99953 0-0.50176 0.22382-0.94255 0.46763-1.2494 0.20886-0.2593 0.45072-0.49015 0.71943-0.68668 0.20284-0.15992 0.45964-0.38382 0.68646-0.65569 0.09293-0.11195 0.1289-0.30785 0.1249-0.43779v-0.029986c-0.02651-0.55617-0.50719-0.98046-1.0622-0.93756-0.56256 0.030985-0.96824 0.43679-0.93626 0.99953h-1.9984c-0.091928-1.6422 1.1691-2.9066 2.8098-2.9986zm0.18785 7.9962c1.3323 0 1.3323 1.9991 0 1.9991s-1.3323-1.9991 0-1.9991z" color="#bebebe" color-rendering="auto" dominant-baseline="auto" fill="#565656" image-rendering="auto" shape-rendering="auto" solid-color="#000000" stop-color="#000000" stroke-width=".99937" style="font-feature-settings:normal;font-variant-alternates:normal;font-variant-caps:normal;font-variant-east-asian:normal;font-variant-ligatures:normal;font-variant-numeric:normal;font-variant-position:normal;font-variation-settings:normal;inline-size:0;isolation:auto;mix-blend-mode:normal;shape-margin:0;shape-padding:0;text-decoration-color:#000000;text-decoration-line:none;text-decoration-style:solid;text-indent:0;text-orientation:mixed;text-transform:none;white-space:normal"/>
</svg>
