<svg width="16" height="16" version="1.1" xmlns="http://www.w3.org/2000/svg">
 <path d="m8 1a3 3 0 0 0-3 3v0.361c0.396-0.45 0.893-0.818 1.469-1.056a3.925 3.925 0 0 1 1.271-0.27 0.988 0.988 0 0 1 0.26-0.035c0.035 0 0.069 0.01 0.104 0.014 0.033 0 0.066-8e-3 0.1-6e-3 0.968 0.05 1.91 0.45 2.624 1.164 0.063 0.063 0.114 0.133 0.172 0.199v-0.371a3.003 3.003 0 0 0-3-3zm-4 4v2c0-0.72 0.204-1.402 0.55-2zm7.453 0a4.002 4.002 0 0 1 0.242 3.531c-0.337 0.815-0.97 1.397-1.695 1.826v0.643h2v-6zm-3.351 4e-3a1.993 1.993 0 0 0-0.868 0.148c0.317-0.13 0.656-0.133 0.987-0.095-0.044-5e-3 -0.075-0.05-0.12-0.053zm-1.405 0.498a2.227 2.227 0 0 0-0.392 0.498h2e-3c0.108-0.184 0.238-0.353 0.392-0.498zm3.069 0.56m-5.766 1.938v3h2v-2c0-0.387 0.222-0.691 0.418-1zm4.793 0.756c-0.254 0.114-0.506 0.244-0.793 0.244v0.115l0.664-0.236c0.058-0.02 0.073-0.098 0.129-0.123zm-6.793 4.244v2h6c-1.093 0-2-0.907-2-2zm6 2h6v-2h-4c0 1.093-0.907 2-2 2z" color="#bebebe" fill="#555555" opacity=".35" overflow="visible" solid-color="#000000" style="font-feature-settings:normal;font-variant-alternates:normal;font-variant-caps:normal;font-variant-ligatures:normal;font-variant-numeric:normal;font-variant-position:normal;isolation:auto;mix-blend-mode:normal;shape-padding:0;text-decoration-color:#000000;text-decoration-line:none;text-decoration-style:solid;text-indent:0;text-orientation:mixed;text-transform:none;white-space:normal"/>
 <path d="m8.152 4.006a2.992 2.992 0 0 0-3.152 2.994h2c0-0.408 0.24-0.768 0.617-0.924a0.994 0.994 0 0 1 1.09 0.217 0.994 0.994 0 0 1 0.217 1.09 0.994 0.994 0 0 1-0.924 0.617 1 1 0 0 0-1 1v2h2v-1.18a2.998 2.998 0 0 0 1.771-1.672 3.006 3.006 0 0 0-0.65-3.27 3.001 3.001 0 0 0-1.969-0.872zm-0.152 7.994a1 1 0 0 0-1 1 1 1 0 0 0 1 1 1 1 0 0 0 1-1 1 1 0 0 0-1-1z" color="#000000" fill="#555555" overflow="visible" solid-color="#000000" style="font-feature-settings:normal;font-variant-alternates:normal;font-variant-caps:normal;font-variant-ligatures:normal;font-variant-numeric:normal;font-variant-position:normal;isolation:auto;mix-blend-mode:normal;shape-padding:0;text-decoration-color:#000000;text-decoration-line:none;text-decoration-style:solid;text-indent:0;text-orientation:mixed;text-transform:none;white-space:normal"/>
</svg>
