<svg width="16" height="16" version="1.1" xmlns="http://www.w3.org/2000/svg">
 <path d="m8 1c-0.6687 0.0027414-1.3317 0.067376-1.9824 0.18945l1.8145 1.8145c0.056018-0.0011941 0.11186-0.0037588 0.16797-0.0039062 1.827 3.906e-4 3.6101 0.55726 5.1133 1.5957l-1.6602 2.0293 1.4238 1.4238 3.0273-3.6934c-0.46446-0.48069-0.9718-0.91809-1.5156-1.3066-1.8642-1.3316-4.0977-2.0478-6.3887-2.0488zm-4.1621 0.83789c-0.77706 0.32177-1.5202 0.73227-2.2109 1.2285-0.54386 0.38859-1.0512 0.82599-1.5156 1.3066l7.8887 9.627 3.6035-4.3965-1.4238-1.4238-2.1797 2.6641-5.1094-6.2363c0.77093-0.53531 1.6164-0.94176 2.5039-1.2129l-1.5566-1.5566z" fill="#565656"/>
 <path d="m2 0 12 12-1.4142 1.4142-12-12z" fill="#565656"/>
</svg>
