<svg width="16px" height="16px" version="1.1" viewBox="0 0 16 16" xmlns="http://www.w3.org/2000/svg">
 <path d="m8 1c-1.662 0-3 1.338-3 3v2h-0.41406l2 2h4.4141v2h-2.4141l2 2h2.4141v-6h-2v-2c0-1.662-1.338-3-3-3zm0 2c0.554 0 1 0.446 1 1v1 1h-2v-1-1c0-0.554 0.446-1 1-1zm-5 4.2441v4.7559h4.7578l-2.002-2h-0.75586v-0.75586l-2-2zm-1 5.7559v2h4v1h4v-1h0.75781l-2-2h-6.7578zm9.5859 0 2 2h0.41406v-2h-2.4141z" fill="#555555" fill-rule="evenodd" stop-color="#000000" stroke-linecap="round" stroke-width="1.8516" style="paint-order:stroke fill markers"/>
 <rect transform="rotate(45)" x="1.3137" y="-1" width="20" height="2" fill="#555555" fill-rule="evenodd" stop-color="#000000" style="paint-order:stroke fill markers"/>
</svg>
