<svg width="16px" height="16px" version="1.1" viewBox="0 0 16 16" xmlns="http://www.w3.org/2000/svg">
 <path d="m5.8789 0.22266-1.8496 0.75977 0.76172 1.8496 1.8496-0.76172-0.76172-1.8477zm4.2754 0.0078125-0.76953 1.8457 1.8457 0.76953 0.76953-1.8457-1.8457-0.76953zm-2.1543 2.7695a5 5 0 0 0-4.1582 2.2559l1.459 1.459a3 3 0 0 1 1.832-1.5762 3 3 0 0 0-0.13281 0.86133 3 3 0 0 0 3 3 3 3 0 0 0 0.86133-0.13281 3 3 0 0 1-1.5762 1.832l1.4707 1.4707a5 5 0 0 0 2.2441-4.1699 5 5 0 0 0-5-5zm7.0176 1.0293-1.8496 0.76172 0.76172 1.8496 1.8477-0.76172-0.75977-1.8496zm-14.383 0.84961-0.4043 0.9668 1.8457 0.76953 0.085938-0.20898-1.5273-1.5273zm2.4258 2.4258a5 5 0 0 0-0.060547 0.69531 5 5 0 0 0 5 5 5 5 0 0 0 0.70312-0.052734l-5.6426-5.6426zm-0.99023 2.0547-1.8477 0.76172 0.75977 1.8496 1.8496-0.76172-0.76172-1.8496zm11.854 0.025391-0.76953 1.8457 1.8457 0.76953 0.76953-1.8457-1.8457-0.76953zm-9.1543 3.7695-0.76953 1.8457 1.8457 0.76953 0.76953-1.8457-1.8457-0.76953zm4.8203 0.67969-0.23047 0.095704 0.76172 1.8477 1-0.41211-1.5313-1.5312z" fill="#555555" style="paint-order:fill markers stroke"/>
 <rect transform="rotate(45)" x="1.3137" y="-1" width="20" height="2" fill="#555555" fill-rule="evenodd" stop-color="#000000" style="paint-order:stroke fill markers"/>
</svg>
