<svg xmlns="http://www.w3.org/2000/svg" width="16" height="16"><path d="M11.09 1.701a4.988 4.988 0 0 0-5.92 2.24L2.92 7.838.187 8.57l-.25.434 1.732 1 8.661 5 1.733 1 .25-.434-.733-2.732 1.25-2.164 1-1.733a4.962 4.962 0 0 0 .633-2.986c-.152.024-.305.049-.463.049-1.645 0-3-1.355-3-3 0-.436.099-.849.273-1.222l-.183-.08zM4.002 12.504A2 2 0 0 0 5 14.236a2 2 0 0 0 1.998-.002z" fill="#555555"/><path class="warning" d="M16 3a2 2 0 0 1-2 2 2 2 0 0 1-2-2 2 2 0 0 1 2-2 2 2 0 0 1 2 2z" fill="#e74c3c"/></svg>