<svg xmlns="http://www.w3.org/2000/svg" width="16" height="16"><path d="M11 9c-1.31 0-2.4.86-2.81 2.03C6.96 11.19 6 12.23 6 13.5A2.5 2.5 0 0 0 8.5 16h5a2.5 2.5 0 0 0 2.5-2.5c0-1.27-.96-2.31-2.19-2.47C13.41 9.86 12.31 9 11 9z" fill="#555555"/><path d="M7 0l-.5 1.03c.16-.01.33-.03.5-.03h.5zm0 2C4.24 2 2 4.24 2 7c0 2.25 1.51 4.12 3.56 4.75.22-.32.49-.6.81-.84l.1-.07c.07-.05.15-.1.23-.14.26-.16.54-.3.83-.39.07-.14.15-.28.23-.41.47-.75 1.15-1.34 1.97-1.66h.01c.16-.07.34-.12.51-.15.04-.01.09-.03.13-.03.2-.04.41-.06.62-.06.15 0 .3.01.44.04.15.01.3.04.44.08.08-.36.12-.73.12-1.12 0-2.76-2.24-5-5-5zm-4.94.06l.35 1.07c.22-.26.46-.5.72-.72zm9.88 0l-1.1.38h-.06c.14.11.28.22.41.34.13.12.26.24.37.38zM1 6.5L0 7l1.03.5C1.02 7.33 1 7.17 1 7v-.16l.03-.34zm11.97 0c.01.17.03.33.03.5v.16l-.03.34H13l1-.5zM2.44 10.84l-.38 1.1 1.1-.38h.06c-.14-.11-.28-.22-.41-.34-.13-.12-.26-.24-.37-.38z" fill="#555555"/></svg>