<svg xmlns="http://www.w3.org/2000/svg" width="16" height="16"><path d="M10 8c-1.31 0-2.4.86-2.81 2.03C5.96 10.19 5 11.23 5 12.5A2.5 2.5 0 0 0 7.5 15h5a2.5 2.5 0 0 0 2.5-2.5c0-1.27-.96-2.31-2.19-2.47C12.41 8.86 11.31 8 10 8z" fill="#555555"/><path d="M8 0C5.93 0 4.17 1.27 3.41 3.06 1.48 3.35 0 4.99 0 7c0 2.21 1.79 4 4 4h.394c.445-.796 1.223-1.387 2.13-1.678C7.17 8.002 8.422 7 10 7c1.573 0 2.83.997 3.473 2.32.51.163.98.424 1.375.76A3.482 3.482 0 0 0 16 7.5c0-1.8-1.35-3.27-3.09-3.47C12.45 1.74 10.43 0 8 0z" fill="#555555"/></svg>