<svg width="16" height="16" version="1.1" xmlns="http://www.w3.org/2000/svg">
 <path d="m7 0a3 3 0 0 0-3 3h1.9922a1.0078 1.0078 0 0 1 1.0078-1.0078 1.0078 1.0078 0 0 1 1.0078 1.0078 1.0078 1.0078 0 0 1-1.0078 1.0078v-0.0078125h-7v2h7a3 3 0 0 0 3-3 3 3 0 0 0-3-3zm6 3a3 3 0 0 0-3 3h1.9922a1.0078 1.0078 0 0 1 1.0078-1.0078 1.0078 1.0078 0 0 1 1.0078 1.0078 1.0078 1.0078 0 0 1-1.0078 1.0078v-0.0078125h-13v2h13a3 3 0 0 0 3-3 3 3 0 0 0-3-3zm-13 7v2h8.1797 2.752 0.068359v-0.007812a1.0078 1.0078 0 0 1 1.0078 1.0078 1.0078 1.0078 0 0 1-1.0078 1.0078 1.0078 1.0078 0 0 1-1.0078-1.0078h-1.9922a3 3 0 0 0 3 3 3 3 0 0 0 3-3 3 3 0 0 0-3-3h-11z" fill="#565656"/>
</svg>
