<svg width="16" height="16" version="1.1" xmlns="http://www.w3.org/2000/svg">
 <path d="m8 0c-2.07 0-3.8298 1.2705-4.5898 3.0605-1.93 0.29-3.4102 1.9295-3.4102 3.9395 0 2.21 1.79 4 4 4h8.5c1.93 0 3.5-1.57 3.5-3.5 0-1.8-1.3498-3.2707-3.0898-3.4707-0.46-2.29-2.4802-4.0293-4.9102-4.0293zm-3 4.8672h1v1.1328l0.98242-0.56641 0.5 0.86719-0.98047 0.56641 0.98047 0.56641-0.5 0.86719-0.98242-0.56641v1.1328h-1v-1.1328l-0.98242 0.56641-0.5-0.86719 0.98047-0.56641-0.98047-0.56641 0.5-0.86719 0.98242 0.56641v-1.1328zm5 0h1v1.1328l0.98242-0.56641 0.5 0.86719-0.98047 0.56641 0.98047 0.56641-0.5 0.86719-0.98242-0.56641v1.1328h-1v-1.1328l-0.98242 0.56641-0.5-0.86719 0.98047-0.56641-0.98047-0.56641 0.5-0.86719 0.98242 0.56641v-1.1328zm-7.0234 7.127a0.5 0.5 0 0 0-0.42383 0.2832l-1 2a0.5 0.5 0 1 0 0.89453 0.44531l1-2a0.5 0.5 0 0 0-0.4707-0.72852zm2.5 0a0.5 0.5 0 0 0-0.42383 0.2832l-1 2a0.5 0.5 0 1 0 0.89453 0.44531l1-2a0.5 0.5 0 0 0-0.4707-0.72852zm2.5 0a0.5 0.5 0 0 0-0.42383 0.2832l-1 2a0.5 0.5 0 1 0 0.89453 0.44531l1-2a0.5 0.5 0 0 0-0.4707-0.72852zm2.5 0a0.5 0.5 0 0 0-0.42383 0.2832l-1 2a0.5 0.5 0 1 0 0.89453 0.44531l1-2a0.5 0.5 0 0 0-0.4707-0.72852zm2.5 0a0.5 0.5 0 0 0-0.42383 0.2832l-1 2a0.5 0.5 0 1 0 0.89453 0.44531l1-2a0.5 0.5 0 0 0-0.4707-0.72852z" fill="#555"/>
</svg>
