<svg xmlns="http://www.w3.org/2000/svg" width="16" height="16"><path d="M8 0C5.93 0 4.17 1.27 3.41 3.06 1.48 3.35 0 4.99 0 7c0 .73.2 1.41.54 2H.52c.56.97 1.52 1.68 2.65 1.91L5.5 8.58l1.75 1.75c.18-.49.44-.94.79-1.29l2.46-2.46 2.46 2.46c.44.44.77 1.01.93 1.65h.02l.01-.01h.01l.01-.01A3.463 3.463 0 0 0 16 7.5c0-1.8-1.35-3.27-3.09-3.47C12.45 1.74 10.43 0 8 0z" fill="#555555"/><path d="M10.5 8L8.75 9.75C8.3 10.2 8 10.81 8 11.5c0 1.37 1.13 2.5 2.5 2.5s2.5-1.13 2.5-2.5c0-.69-.3-1.3-.75-1.75zm-5 2l-1.75 1.75C3.3 12.2 3 12.81 3 13.5 3 14.87 4.13 16 5.5 16S8 14.87 8 13.5c0-.69-.3-1.3-.75-1.75z" fill="#555555"/></svg>