<svg width="16" height="16" version="1.1" xmlns="http://www.w3.org/2000/svg">
 <g transform="translate(-525 395)" fill="#555">
  <path d="m533-395c-2.0711 0-3.8347 1.2679-4.5938 3.0625-1.9278 0.2866-3.4062 1.9299-3.4062 3.9375 0 2.2091 1.7909 4 4 4h8.5c1.933 0 3.5-1.567 3.5-3.5 0-1.7965-1.3508-3.2687-3.0938-3.4688-0.45457-2.2934-2.4794-4.0312-4.9062-4.0312z"/>
  <path d="m528-383v1.1328l-0.98242-0.5664-0.5 0.86718 0.98047 0.56641-0.98047 0.56641 0.5 0.86718 0.98242-0.5664v1.1328h1v-1.1328l0.98242 0.5664 0.5-0.86718-0.98047-0.56641 0.98047-0.56641-0.5-0.86718-0.98242 0.5664v-1.1328h-1z" opacity=".35"/>
  <path d="m533-383v1.1328l-0.98242-0.5664-0.5 0.86718 0.98047 0.56641-0.98047 0.56641 0.5 0.86718 0.98242-0.5664v1.1328h1v-1.1328l0.98242 0.5664 0.5-0.86718-0.98047-0.56641 0.98047-0.56641-0.5-0.86718-0.98242 0.5664v-1.1328h-1z" opacity=".35"/>
  <path d="m538-383v1.1328l-0.98242-0.5664-0.5 0.86718 0.98047 0.56641-0.98047 0.56641 0.5 0.86718 0.98242-0.5664v1.1328h1v-1.1328l0.98242 0.5664 0.5-0.86718-0.98047-0.56641 0.98047-0.56641-0.5-0.86718-0.98242 0.5664v-1.1328h-1z" opacity=".35"/>
 </g>
</svg>
