<svg width="16" height="16" version="1.1" xmlns="http://www.w3.org/2000/svg">
 <path d="m8 0c-2.07 0-3.8298 1.2705-4.5898 3.0605-1.93 0.29-3.4102 1.9295-3.4102 3.9395 0 2.21 1.79 4 4 4h2.1523c0.022485-0.47299 0.086749-0.91146 0.28516-1.3184 0.24821-0.54714 0.64694-0.96969 1.1836-1.4297 0.43384-0.37186 0.67154-0.66419 0.69727-0.70117 0.047013-0.1018 0.097656-0.27242 0.097656-0.5625 0-0.1934-0.012211-0.18036-0.076172-0.23633a1.0001 1.0001 0 0 1-0.046875-0.044922c-0.006742-0.006742-0.066544-0.070312-0.38477-0.070312-0.2973-1e-7 -0.82574 0.11877-1.5098 0.42969a1.0001 1.0001 0 0 1-1.3242-0.50391l-0.41797-0.93555a1.0001 1.0001 0 0 1 0.48242-1.3086c0.95966-0.46064 1.8768-0.7207 2.7695-0.7207 0.99684 0 1.9237 0.3078 2.5898 0.95508 0.68243 0.60348 1.0605 1.5009 1.0605 2.4355 0 0.60394-0.10858 1.1801-0.36524 1.6934-0.2805 0.56101-0.72401 1.0221-1.3281 1.5508l0.025391-0.019531c-0.45705 0.42658-0.70478 0.71274-0.76562 0.78711h3.375c1.93 0 3.5-1.57 3.5-3.5 0-1.8-1.3498-3.2707-3.0898-3.4707-0.46-2.29-2.4802-4.0293-4.9102-4.0293zm1.6582 5.248c0.0086967 0.0076017 0.0051178 0.023494 0.013672 0.03125 0.0098372 0.009438 0.025476 0.0039914 0.035156 0.013672l-0.048828-0.044922z" fill="#555"/>
 <g transform="matrix(1.4257 0 0 1.4257 -3.2407 -5.7481)" fill="#f55" aria-label="?">
  <path d="m7.274 12.103v-0.14576q0-0.5466 0.14576-0.83812 0.14576-0.32796 0.65592-0.76524 0.51016-0.43728 0.65592-0.69236 0.14576-0.29152 0.14576-0.7288 0-0.43728-0.29152-0.69236-0.25508-0.25508-0.76524-0.25508-0.5466 0-1.3483 0.3644l-0.29152-0.65592q0.91101-0.43728 1.6398-0.43728 0.87457 0 1.3483 0.47372 0.51016 0.43728 0.51016 1.2025 0 0.51016-0.1822 0.87457-0.1822 0.3644-0.76524 0.87457-0.5466 0.51016-0.69236 0.7288-0.10932 0.21864-0.10932 0.61948v0.07288zm0.94745 1.3847q0 0.32796-0.14576 0.51016-0.14576 0.14576-0.43728 0.14576-0.29152 0-0.43728-0.14576-0.14576-0.1822-0.14576-0.51016t0.14576-0.47372q0.14576-0.14576 0.43728-0.14576 0.29152 0 0.43728 0.14576 0.14576 0.14576 0.14576 0.47372z" fill="#f55"/>
 </g>
</svg>
