<svg width="16" height="16" version="1.1" xmlns="http://www.w3.org/2000/svg">
 <path d="m8.8571 6c-1.8714 0-3.4286 1.2286-4.0143 2.9-1.7571 0.22857-3.1286 1.7143-3.1286 3.5286a3.5714 3.5714 0 0 0 3.5714 3.5714h7.1429a3.5714 3.5714 0 0 0 3.5714-3.5714c0-1.8143-1.3714-3.3-3.1286-3.5286-0.57143-1.6714-2.1429-2.9-4.0143-2.9z" fill="#555" stroke-width="1.4286"/>
 <path d="m7 0-0.5 1.0293c0.16-0.01 0.33-0.029297 0.5-0.029297h0.5l-0.5-1zm0 2c-2.76 0-5 2.24-5 5 0 0.70016 0.16062 1.3564 0.42383 1.957 0.53795-0.42654 1.1674-0.74818 1.8594-0.91016 0.85937-1.7335 2.501-3.0469 4.5742-3.0469 1.1847 0 2.224 0.43847 3.0625 1.1309-0.41217-2.3457-2.4567-4.1309-4.9199-4.1309zm-4.9395 0.060547 0.34961 1.0703c0.22-0.26 0.4607-0.5007 0.7207-0.7207l-1.0703-0.34961zm9.8789 0-1.0996 0.37891h-0.060547c0.14 0.11 0.28016 0.21984 0.41016 0.33984s0.26109 0.24086 0.37109 0.38086l0.37891-1.0996zm-10.939 4.4395-1 0.5 1.0293 0.5c-0.01-0.17-0.029297-0.33-0.029297-0.5v-0.16016l0.029297-0.33984h-0.029297zm11.971 0c0.01 0.17 0.029297 0.33 0.029297 0.5v0.16016l-0.011719 0.14258c0.03436 0.050414 0.070655 0.098879 0.10352 0.15039l0.9082-0.45312-1.0293-0.5zm-4.1133 0.5c-1.4338 0-2.617 0.93674-3.0703 2.2305l-0.20508 0.58203-0.60938 0.080078c-0.55399 0.072064-1.0463 0.32036-1.4336 0.67773 0.56462 0.53685 1.2554 0.94427 2.0215 1.1797 0.22-0.32 0.48859-0.59984 0.80859-0.83984l0.10156-0.070312c0.07-0.05 0.14852-0.10062 0.22852-0.14062 0.26-0.16 0.54008-0.29867 0.83008-0.38867 0.07-0.14 0.15047-0.28016 0.23047-0.41016 0.47-0.75 1.1507-1.3402 1.9707-1.6602h0.0097656c0.16-0.07 0.33977-0.12039 0.50977-0.15039 0.04-0.01 0.090859-0.029297 0.13086-0.029297 0.2-0.04 0.40914-0.060547 0.61914-0.060547 0.066012 0 0.1282 0.012852 0.19336 0.017578-0.5876-0.62277-1.4104-1.0176-2.3359-1.0176zm-5.8926 4.3496c-0.04892 0.10339-0.090278 0.20971-0.125 0.32031l0.32031-0.10938h0.060547c-0.087156-0.068479-0.17112-0.14005-0.25586-0.21094z" fill="#555"/>
</svg>
