<svg width="16" height="16" version="1.1" xmlns="http://www.w3.org/2000/svg">
 <path d="m8 0c-2.07 0-3.83 1.27-4.59 3.06-1.93 0.29-3.41 1.93-3.41 3.94 0 0.73 0.2 1.41 0.54 2h-0.02c0.56 0.97 1.52 1.68 2.65 1.91l2.33-2.33 1.75 1.75c0.18-0.49 0.44-0.94 0.79-1.29l2.46-2.46 2.46 2.46c0.44 0.44 0.77 1.01 0.93 1.65h0.02l0.01-0.01h0.01l0.01-0.01a3.463 3.463 0 0 0 2.06-3.17c0-1.8-1.35-3.27-3.09-3.47-0.46-2.29-2.48-4.03-4.91-4.03z" fill="#555"/>
 <path d="m10.5 8-1.75 1.75c-0.45 0.45-0.75 1.06-0.75 1.75 0 1.37 1.13 2.5 2.5 2.5s2.5-1.13 2.5-2.5c0-0.69-0.3-1.3-0.75-1.75zm-5 2-1.75 1.75c-0.45 0.45-0.75 1.06-0.75 1.75 0 1.37 1.13 2.5 2.5 2.5s2.5-1.13 2.5-2.5c0-0.69-0.3-1.3-0.75-1.75z" fill="#5294e2"/>
</svg>
