<svg xmlns="http://www.w3.org/2000/svg" width="16" height="16"><path d="M12.236 1.994a1.15 1.15 0 0 0-.672.225c-.527.376-1.625.78-3.564.78s-3.037-.404-3.564-.78a1.06 1.06 0 0 0-.65-.22 1.737 1.737 0 0 0-.808.22C1.942 2.765.988 4.555.469 6.875c-.441 1.97-.605 4.666-.341 5.75.23.932.626 1.344 1.332 1.344 1.046-.018 2.36-1.183 3.193-2.75.603-.868 2-1.263 3.348-1.22 1.347-.046 2.745.352 3.348 1.22.833 1.567 2.147 2.732 3.193 2.75.706 0 1.102-.412 1.332-1.344.264-1.084.1-3.78-.342-5.75-.518-2.32-1.472-4.11-2.51-4.656-.284-.153-.544-.226-.785-.225zM4.033 5h.992v1h.99v1h-.99v1h-.992V7h-.992V6h.992zm7.438 0c.274 0 .496.224.496.5s-.222.5-.496.5a.496.496 0 0 1-.494-.5c0-.276.22-.5.494-.5zm-.991 1c.274 0 .497.224.497.5s-.223.5-.497.5a.498.498 0 0 1-.496-.5c0-.276.223-.5.496-.5zm1.983 0c.274 0 .496.224.496.5s-.222.5-.496.5a.498.498 0 0 1-.496-.5c0-.276.222-.5.496-.5zm-.992 1c.274 0 .496.224.496.5s-.222.5-.496.5a.496.496 0 0 1-.494-.5c0-.276.22-.5.494-.5z" fill="#555555"/></svg>