<svg version="1.1" viewBox="0 0 16 16" xmlns="http://www.w3.org/2000/svg" xmlns:osb="http://www.openswatchbook.org/uri/2009/osb">
 <g transform="translate(-512,-484)">
  <path d="m515.8 487c-0.53643 0-0.80469 1.5e-4 -0.80469 0.625v0.75c0 0.62485 0.26826 0.625 0.80469 0.625h0.39062c0.53643 0 0.80469-1.5e-4 0.80469-0.625v-0.75c0-0.60253-0.26826-0.625-0.80469-0.625zm4 0c-0.53643 0-0.80469 1.5e-4 -0.80469 0.625v0.75c0 0.62485 0.26826 0.625 0.80469 0.625h0.39062c0.53643 0 0.80469-1.5e-4 0.80469-0.625v-0.75c0-0.60253-0.26826-0.625-0.80469-0.625zm4 0c-0.53643 0-0.80469 1.5e-4 -0.80469 0.625v0.75c0 0.62485 0.26826 0.625 0.80469 0.625h0.39062c0.53643 0 0.80469-1.5e-4 0.80469-0.625v-0.75c0-0.60253-0.26826-0.625-0.80469-0.625zm-8 4c-0.53643 0-0.80469 1.5e-4 -0.80469 0.625v0.75c0 0.62485 0.26826 0.625 0.80469 0.625h0.39062c0.53643 0 0.80469-1.5e-4 0.80469-0.625v-0.75c0-0.60253-0.26826-0.625-0.80469-0.625zm4 0c-0.53643 0-0.80469 1.5e-4 -0.80469 0.625v0.75c0 0.62485 0.26826 0.625 0.80469 0.625h0.39062c0.53643 0 0.80469-1.5e-4 0.80469-0.625v-0.75c0-0.60253-0.26826-0.625-0.80469-0.625zm4 0c-0.53643 0-0.80469 1.5e-4 -0.80469 0.625v0.75c0 0.62485 0.26826 0.625 0.80469 0.625h0.39062c0.53643 0 0.80469-1.5e-4 0.80469-0.625v-0.75c0-0.60253-0.26826-0.625-0.80469-0.625zm-8 4c-0.53643 0-0.80469 1.5e-4 -0.80469 0.625v0.75c0 0.62485 0.26826 0.625 0.80469 0.625h0.39062c0.53643 0 0.80469-1.5e-4 0.80469-0.625v-0.75c0-0.60253-0.26826-0.625-0.80469-0.625zm4 0c-0.53643 0-0.80469 1.5e-4 -0.80469 0.625v0.75c0 0.62485 0.26826 0.625 0.80469 0.625h0.39062c0.53643 0 0.80469-1.5e-4 0.80469-0.625v-0.75c0-0.60253-0.26826-0.625-0.80469-0.625zm4 0c-0.53643 0-0.80469 1.5e-4 -0.80469 0.625v0.75c0 0.62485 0.26826 0.625 0.80469 0.625h0.39062c0.53643 0 0.80469-1.5e-4 0.80469-0.625v-0.75c0-0.60253-0.26826-0.625-0.80469-0.625z" fill="#555555"/>
 </g>
</svg>
