<?xml version="1.0" encoding="UTF-8"?>
<svg width="16" height="16" version="1.1" xmlns="http://www.w3.org/2000/svg">
 <path d="m4.033 6h0.992v1h0.99v1h-0.99v1h-0.992v-1h-0.992v-1h0.992zm7.438 0c0.274 0 0.496 0.224 0.496 0.5s-0.222 0.5-0.496 0.5c-0.27472-0.0011-0.49622-0.22529-0.494-0.5 0-0.276 0.22-0.5 0.494-0.5zm-0.991 1c0.274 0 0.497 0.224 0.497 0.5s-0.223 0.5-0.497 0.5c-0.27504-0.0011024-0.49711-0.22496-0.496-0.5 0-0.276 0.223-0.5 0.496-0.5zm1.983 0c0.274 0 0.496 0.224 0.496 0.5s-0.222 0.5-0.496 0.5c-0.27504-0.0011-0.49711-0.22496-0.496-0.5 0-0.276 0.222-0.5 0.496-0.5zm-0.992 1c0.274 0 0.496 0.224 0.496 0.5s-0.222 0.5-0.496 0.5c-0.27472-0.0011-0.49622-0.22529-0.494-0.5 0-0.276 0.22-0.5 0.494-0.5z" fill="#555"/>
 <path d="m3 2c-1.662 0-3 1.338-3 3v6c0 1.662 1.338 3 3 3h10c1.662 0 3-1.338 3-3v-6c0-1.662-1.338-3-3-3h-10zm0 2h10c0.554 0 1 0.446 1 1v6c0 0.554-0.446 1-1 1h-10c-0.554 0-1-0.446-1-1v-6c0-0.554 0.446-1 1-1z" fill="#555" stroke-width="2"/>
</svg>
