<?xml version="1.0" encoding="UTF-8"?>
<svg width="16px" height="16px" version="1.1" viewBox="0 0 16 16" xmlns="http://www.w3.org/2000/svg">
 <g transform="translate(.5 .5)">
  <path d="m1.5 0.5v9.2676a2 2 0 0 0-1 1.7324 2 2 0 0 0 1 1.7324v1.2676h2v-1.2676a2 2 0 0 0 1-1.7324 2 2 0 0 0-1-1.7324v-9.2676h-2zm5 0v2.2676a2 2 0 0 0-1 1.7324 2 2 0 0 0 1 1.7324v8.2676h2v-8.2676a2 2 0 0 0 1-1.7324 2 2 0 0 0-1-1.7324v-2.2676h-2zm5 0v9.2676a2 2 0 0 0-1 1.7324 2 2 0 0 0 1 1.7324v1.2676h2v-1.2676a2 2 0 0 0 1-1.7324 2 2 0 0 0-1-1.7324v-9.2676h-2zm-4 3a1 1 0 0 1 1 1 1 1 0 0 1-1 1 1 1 0 0 1-1-1 1 1 0 0 1 1-1zm-5 7a1 1 0 0 1 1 1 1 1 0 0 1-1 1 1 1 0 0 1-1-1 1 1 0 0 1 1-1zm10 0a1 1 0 0 1 1 1 1 1 0 0 1-1 1 1 1 0 0 1-1-1 1 1 0 0 1 1-1z" fill="#555"/>
 </g>
</svg>
