<svg version="1.1" viewBox="0 0 16 16" xmlns="http://www.w3.org/2000/svg">
<style type="text/css" id="current-color-scheme">
  .ColorScheme-Text {
    color:#565656;
  }
</style>
 <path d="m3 2c-0.554 0-1 0.446-1 1v4c0 0.554 0.446 1 1 1h4c0.554 0 1-0.446 1-1v-4c0-0.554-0.446-1-1-1z" class="ColorScheme-Text" style="fill:currentColor"/>
 <path d="m10 2c-0.554 0-1 0.446-1 1v4c0 0.554 0.446 1 1 1h4c0.554 0 1-0.446 1-1v-4c0-0.554-0.446-1-1-1h-4zm1 2h2v2h-2v-2zm-8 5c-0.554 0-1 0.446-1 1v4c0 0.554 0.446 1 1 1h4c0.554 0 1-0.446 1-1v-4c0-0.554-0.446-1-1-1h-4zm7 0c-0.554 0-1 0.446-1 1v4c0 0.554 0.446 1 1 1h4c0.554 0 1-0.446 1-1v-4c0-0.554-0.446-1-1-1h-4zm-6 2h2v2h-2v-2zm7 0h2v2h-2v-2z" opacity=".45" class="ColorScheme-Text" style="fill:currentColor"/>
</svg>
