<svg width="16" height="16" version="1.1" xmlns="http://www.w3.org/2000/svg">
 <path d="m8 0a8 8 0 0 0-8 8 8 8 0 0 0 8 8 8 8 0 0 0 8-8 8 8 0 0 0-8-8zm0 2c2.21 0 4 1.79 4 4 0 0.88-0.35969 1.68-0.92969 2.25l-0.90039 0.91992c-0.53362 0.54103-0.91635 1.0126-1.0801 1.8301h-2.0391c0.11463-0.89895 0.51125-1.7137 1.1191-2.3301l1.2402-1.2598c0.37-0.36 0.58984-0.86016 0.58984-1.4102 0-1.1-0.9-2-2-2s-2 0.9-2 2h-2c0-2.21 1.79-4 4-4zm-1 10h2v2h-2v-2z" fill="#555555" stroke-linecap="round" stroke-linejoin="round" stroke-opacity=".25" stroke-width="1.0016" style="paint-order:markers stroke fill"/>
</svg>
