<svg width="32" height="32" xmlns="http://www.w3.org/2000/svg"><defs><linearGradient id="b" x1="400.4" x2="400.4" y1="545.62" y2="517.62" gradientTransform="translate(-490.1 -549.5) scale(1.0922)" gradientUnits="userSpaceOnUse"><stop stop-color="#8d3aff" offset="0"/><stop stop-color="#ff3680" offset="1"/></linearGradient><linearGradient id="a" x1="400.4" x2="400.4" y1="545.62" y2="517.62" gradientTransform="translate(-440.35 -545.83) scale(1.0575)" gradientUnits="userSpaceOnUse"><stop stop-color="#d3d3d3" offset="0"/><stop stop-color="#fcf9f9" offset="1"/></linearGradient></defs><rect x="1" y="1" width="30" height="30" rx="8" ry="8" fill="#ff4962"/><path d="M13.943 10.156c-.516.145-.932.721-.932 1.281v8.876a2.54 2.54 0 0 0-1.894-.214c-1.258.343-2.046 1.449-1.776 2.47.27 1.023 1.509 1.594 2.767 1.251 1.004-.273 1.696-1.045 1.806-1.86l.03-8.388 6.524-1.83v6.619a2.541 2.541 0 0 0-1.893-.214c-1.258.343-2.047 1.449-1.777 2.47.27 1.023 1.51 1.594 2.767 1.251 1.004-.273 1.696-1.045 1.806-1.86l.03-10.92c0-.419-.248-.733-.583-.792l-6.874 1.86z" fill="#fff"/></svg>