<svg version="1.1" viewBox="0 0 22 22" xmlns="http://www.w3.org/2000/svg">
 <style id="current-color-scheme" type="text/css">.ColorScheme-Text {
          color:#363636;
      }</style>
 <path d="m4 3v13h2v-1h1v1h2.1797a3 3 0 0 1 1.8203-1.8203v-2.1797h-2v-3h2v-1h7v-5h-2v1h-1v-1h-2v2h-4v-2h-2v1h-1v-1zm2 3h1v1h-1zm9 0h1v1h-1zm-9 3h1v1h-1zm6 0v6c-0.09097 0-0.17946 0.0068-0.26562 0.01758a2 2 0 0 0-0.01953 2e-3c-0.0039 5.22e-4 -0.0079 0.0014-0.01172 2e-3 -0.504 0.07105-0.91917 0.32175-1.2148 0.66797-0.06191 0.07249-0.11896 0.14836-0.16992 0.22852-0.05145 0.08093-0.09707 0.16477-0.13672 0.25195-0.03548 0.07802-0.06627 0.1584-0.0918 0.24023a2 2 0 0 0-0.01563 0.05078c-0.02329 0.08207-0.04179 0.16549-0.05469 0.25a2 2 0 0 0 0 0.0059c-0.080018 0.53472 0.05194 1.1064 0.45508 1.5762 0.0012 0.0014 0.0027 0.0025 0.0039 0.0039a2 2 0 0 0 0.04101 0.04492c0.022 0.02409 0.04292 0.04879 0.06641 0.07226 0.02349 0.02349 0.04816 0.0444 0.07226 0.06641a2 2 0 0 0 0.04492 0.04101c0.0014 0.0012 0.0025 0.0027 0.0039 0.0039 0.46976 0.40314 1.0415 0.5351 1.5762 0.45508h2e-3a2 2 0 0 0 0.0039 0c0.08451-0.0129 0.16793-0.0314 0.25-0.05469a2 2 0 0 0 0.05078-0.01563c0.08184-0.02553 0.16222-0.05632 0.24023-0.0918 0.08718-0.03965 0.17103-0.08527 0.25195-0.13672 0.08016-0.05096 0.15603-0.10801 0.22852-0.16992 0.34622-0.29571 0.59692-0.71088 0.66797-1.2148 0.0014-0.01022 0.0026-0.02095 0.0039-0.03125 0.010819-0.086263 0.017577-0.17477 0.017577-0.26573v-6h3v4c-0.09097 0-0.17946 0.0068-0.26562 0.01758a2 2 0 0 0-0.01953 2e-3c-0.0039 5.22e-4 -0.0079 0.0014-0.01172 2e-3 -0.504 0.07105-0.91918 0.32175-1.2148 0.66797-0.06191 0.07249-0.11896 0.14836-0.16992 0.22852-0.05145 0.08093-0.09707 0.16477-0.13672 0.25195-0.03548 0.07802-0.06627 0.1584-0.0918 0.24023a2 2 0 0 0-0.01563 0.05078c-0.02329 0.08207-0.04179 0.16549-0.05469 0.25a2 2 0 0 0 0 0.0059c-0.08002 0.53472 0.05194 1.1064 0.45508 1.5762 0.0012 0.0014 0.0027 0.0025 0.0039 0.0039a2 2 0 0 0 0.04101 0.04492c0.022 0.02409 0.04292 0.04878 0.06641 0.07226 0.02349 0.02349 0.04817 0.0444 0.07226 0.06641a2 2 0 0 0 0.04492 0.04101c0.0014 0.0012 0.0025 0.0027 0.0039 0.0039 0.46976 0.40314 1.0415 0.5351 1.5762 0.45508h2e-3a2 2 0 0 0 0.0039 0c0.08451-0.0129 0.16794-0.0314 0.25-0.05469a2 2 0 0 0 0.05078-0.01563c0.08184-0.02553 0.16222-0.05632 0.24023-0.0918 0.08718-0.03965 0.17103-0.08527 0.25195-0.13672 0.08016-0.05096 0.15603-0.10801 0.22852-0.16992 0.34622-0.29571 0.59692-0.71088 0.66797-1.2148 0.0014-0.01022 0.0026-0.02096 0.0039-0.03125 0.010819-0.086263 0.017577-0.17477 0.017577-0.26573v-8h-5zm-6 3h1v1h-1z" class="ColorScheme-Text" fill="currentColor"/>
</svg>
