<svg version="1.1" viewBox="0 0 22 22" xmlns="http://www.w3.org/2000/svg">
 <defs>
  <style id="current-color-scheme" type="text/css">.ColorScheme-Text { color: #363636; }</style>
 </defs>
 <path class="ColorScheme-Text" fill="currentColor" d="m11.965 2.7266-3.2813 1.3633 3.1582 3.1543-3.7559 3.7559h-1.4902l-5.0117 4.8359 3.5781 3.5937 4.8379-5.0273v-1.4883l3.752-3.752 0.24805 0.25v1.002l2 2 4.4141-4.4141-2-2h-1l-1.8184-1.8184-2.791-1.4219a1 1 0 0 0-0.03125 0.00977 1 1 0 0 0-0.80859-0.042969zm0.34375 2.0234 2.0957 1.0684 2.1816 2.1816h1l-1.5859 1.5859v-0.99805l-1.3301-1.3438-0.08984-0.089844-0.82031-0.82812-0.0039 0.00391-1.541-1.541zm-4.9043 8.25h0.5957v0.59766l-2.8613 2.9727-0.70508-0.70508z"/>
</svg>
