<svg version="1.1" viewBox="0 0 22 22" xmlns="http://www.w3.org/2000/svg">
 <defs>
  <style id="current-color-scheme" type="text/css">.ColorScheme-Text { color: #363636; }</style>
 </defs>
 <path class="ColorScheme-Text" fill="currentColor" d="m5 3c-1.662 0-3 1.338-3 3v10c0 1.662 1.338 3 3 3h12c1.662 0 3-1.338 3-3v-10c0-1.662-1.338-3-3-3h-12zm0 2h12c0.554 0 1 0.446 1 1v10c0 0.554-0.446 1-1 1h-12c-0.554 0-1-0.446-1-1v-10c0-0.554 0.446-1 1-1zm5.3379 1-1.8027 4.3164-0.035156 0.09375v-1.4102h-3.5v2h1.5v4h2.3887l2.7813-7h5.3301v-2h-6.6621zm4.1621 3c-0.58333 0-1.1707 0.13787-1.6523 0.45898s-0.84766 0.87435-0.84766 1.541v0.5h2v-0.5c0-0.014937-0.00203-0.02323-0.003906-0.029297 0.005702 6.71e-4 0.013469 6.26e-4 0.027344-0.005859 0.066228-0.03091 0.2599-0.064453 0.47656-0.064453s0.41033 0.033543 0.47656 0.064453c0.013874 0.006475 0.021643 0.006533 0.027344 0.005859-0.001875 0.006069-0.003906 0.01436-0.003906 0.029297 0 0.18317-0.0818 0.3337-0.35352 0.56641-0.27171 0.2327-0.70878 0.49067-1.2188 0.78516-0.37316 0.2151-0.78588 0.45296-1.2051 0.73242l-0.22266 0.14844v1.7676h5v-1.9004h-1.291c0.66236-0.48969 1.291-1.135 1.291-2.0996 0-0.70152-0.3663-1.2729-0.85742-1.584s-1.0759-0.41602-1.6426-0.41602z"/>
</svg>
