<?xml version="1.0" encoding="UTF-8" standalone="no"?>
<svg
   width="32"
   height="32"
   version="1.1"
   id="svg5"
   sodipodi:docname="applications-internet.svg"
   inkscape:version="1.3.2 (091e20ef0f, 2023-11-25)"
   xmlns:inkscape="http://www.inkscape.org/namespaces/inkscape"
   xmlns:sodipodi="http://sodipodi.sourceforge.net/DTD/sodipodi-0.dtd"
   xmlns="http://www.w3.org/2000/svg"
   xmlns:svg="http://www.w3.org/2000/svg">
  <defs
     id="defs5" />
  <sodipodi:namedview
     id="namedview5"
     pagecolor="#ffffff"
     bordercolor="#000000"
     borderopacity="0.25"
     inkscape:showpageshadow="2"
     inkscape:pageopacity="0.0"
     inkscape:pagecheckerboard="0"
     inkscape:deskcolor="#d1d1d1"
     showgrid="true"
     inkscape:zoom="7.375"
     inkscape:cx="12.881356"
     inkscape:cy="27.79661"
     inkscape:window-width="1920"
     inkscape:window-height="950"
     inkscape:window-x="0"
     inkscape:window-y="0"
     inkscape:window-maximized="1"
     inkscape:current-layer="svg5">
    <inkscape:grid
       id="grid5"
       units="px"
       originx="0"
       originy="0"
       spacingx="1"
       spacingy="1"
       empcolor="#0099e5"
       empopacity="0.30196078"
       color="#0099e5"
       opacity="0.14901961"
       empspacing="5"
       dotted="false"
       gridanglex="30"
       gridanglez="30"
       visible="true" />
  </sodipodi:namedview>
  <rect
     x="1"
     y="1"
     width="30"
     height="30"
     rx="8"
     ry="8"
     fill="#f2f2f2"
     id="rect1"
     style="fill:#5294e2;fill-opacity:1" />
  <path
     id="path5"
     style="opacity:0.15;fill:#000000;fill-opacity:1;stroke-width:2.25;stroke-linecap:round;stroke-linejoin:round;paint-order:stroke fill markers"
     d="M 16 7 A 9 9 0 0 0 7 16 A 9 9 0 0 0 16 25 A 9 9 0 0 0 25 16 A 9 9 0 0 0 16 7 z M 16 10 A 6 6 0 0 1 22 16 A 6 6 0 0 1 16 22 A 6 6 0 0 1 10 16 A 6 6 0 0 1 16 10 z " />
  <g
     id="g5"
     transform="matrix(1.222203,0,0,1.222203,-3.5556923,-3.554783)">
    <path
       fill="#ffffff"
       d="M 7.0002221,6.999478 17.20142,14.78912 14.799308,17.187343 Z"
       style="stroke-width:2.26745;paint-order:stroke markers fill"
       id="path2" />
    <path
       fill="#e6e6e6"
       d="M 25.000505,24.999761 14.799308,17.201231 17.20142,14.798008 Z"
       style="stroke-width:2.26745;paint-order:stroke markers fill"
       id="path3" />
  </g>
</svg>
