<svg fill="none" version="1.1" viewBox="0 0 22 22" xmlns="http://www.w3.org/2000/svg">
 <style id="current-color-scheme" type="text/css">.ColorScheme-Text {
          color:#363636;
      }</style>
 <path class="ColorScheme-Text" d="m11 11c-4 0-6 3-6 6h-1.75c-0.25 0-0.25 0.25-0.25 0.25v1.5c0 0.25 0.25 0.25 0.25 0.25h15.5s0.25 0 0.25-0.25v-1.5s0-0.25-0.25-0.25h-1.75c0-3-2-6-6-6zm0 3c2.35 0 3 1.76 3 3h-6c0-1.2 0.7-3 3-3zm3-11c-0.35 0.13-0.71 0.3-1 0.54-1.38 1.11-1.3 3.02 0.051 4.16 0.28 0.24 0.609 0.4 0.949 0.55v2.346a6.399 6.399 0 0 1 2.248 1.615c0.304 0.342 0.543 0.72 0.752 1.111v-5.072c0.34-0.13 0.659-0.32 0.949-0.55 1.38-1.12 1.391-2.95 0.051-4.1-0.29-0.24-0.65-0.46-1-0.6v2.25c0 0.46-0.45 0.75-1 0.75h-1c-0.56 0-1-0.29-1-0.75z" fill="currentColor"/>
</svg>
