<svg version="1.1" viewBox="0 0 22 22" xmlns="http://www.w3.org/2000/svg">
 <defs>
  <style id="current-color-scheme" type="text/css">.ColorScheme-Text { color: #363636; }</style>
 </defs>
 <path d="m9.9766 3c-0.58823 0.00371-1.1865 0.070549-1.7676 0.19922-0.77481 0.17156-1.5226 0.4616-2.1367 0.98047-0.61414 0.51887-1.0668 1.3293-1.0742 2.2422-0.00856 1.0554 0.46392 1.9468 1.0938 2.4473 0.62978 0.5005 1.3128 0.69227 1.8574 0.87109 0.10305 0.03384 0.19581 0.066269 0.28711 0.099609 0.30808-0.36908 0.6197-0.7326 0.93359-1.0801l0.50781-0.49805c-0.33768-0.14073-0.6301-0.26576-1.1055-0.42188-0.55127-0.18102-1.0058-0.35391-1.2363-0.53711-0.23053-0.1832-0.34252-0.29259-0.33789-0.86328 0.0027-0.33675 0.099431-0.50755 0.36328-0.73047s0.72427-0.4357 1.2793-0.55859c1.1101-0.24579 2.5855-0.10492 3.2832 0.19141 0.14973 0.063592 0.29066 0.1277 0.43359 0.19141 0.54522-0.49679 1.0953-0.97352 1.6367-1.4238-0.42254-0.22237-0.854-0.42266-1.2891-0.60742-0.63671-0.27042-1.3734-0.43342-2.1445-0.48438-0.19279-0.012738-0.38791-0.018816-0.58398-0.017578zm7.0645 0c-1.8 1.3-4.2091 3.2998-6.1191 5.3398l-1.0098 1.0898c-1.2973 1.4361-2.5801 3.1284-3.6445 4.6836-0.31229-0.15651-0.70227-0.17486-1.1152 0.095703-0.76 0.5-0.60039 2.291-2.1504 2.291 0.15 0.6 1.7405 0.59031 2.8105 0.32031 1.01-0.25 1.3189-1.1409 1.1289-1.8809-0.02688-0.10573-0.074963-0.21493-0.13867-0.32031 1.9777-1.6385 3.3797-3.0067 4.3398-4.0293 0.24-0.24 0.52961-0.55992 0.84961-0.91992 1.21-1.33 2.9288-3.4399 5.0488-6.6699zm-0.68945 2.7871c-0.41739 0.58733-0.81016 1.1181-1.1875 1.6133 0.3864 0.41771 0.74778 0.91571 1.0938 1.5332 0.73574 1.3133 0.86012 2.654 0.6543 3.8242-0.20582 1.1702-0.77905 2.155-1.2793 2.6133-0.54245 0.49693-2.0036 1.2091-3.3164 1.4844-0.65643 0.13763-1.2826 0.17637-1.7188 0.11328-0.43619-0.06309-0.61187-0.19303-0.68359-0.30273-0.80118-1.2255-0.66068-1.7031-0.32812-2.4414 0.19668-0.43667 0.55104-0.92311 0.86914-1.5215-0.82174 0.79378-1.3308 1.3982-2.5488 2.4062-0.27589 0.78372-0.19982 1.8339 0.33398 2.6504 0.48254 0.73811 1.2912 1.0748 2.0703 1.1875 0.77911 0.11269 1.5988 0.036585 2.416-0.13477 1.6345-0.34269 3.2337-1.0304 4.2559-1.9668 0.92819-0.8503 1.6222-2.1696 1.8984-3.7402 0.27625-1.5706 0.096654-3.407-0.87891-5.1484-0.49186-0.878-1.0478-1.5838-1.6504-2.1699z" class="ColorScheme-Text" fill="currentColor"/>
 <path d="m9.8457 5.5879a1 1 0 0 0-1 1 1 1 0 0 0 1 1 1 1 0 0 0 1-1 1 1 0 0 0-1-1zm5.0176 2.9434a1 1 0 0 0-1 1 1 1 0 0 0 1 1 1 1 0 0 0 1-1 1 1 0 0 0-1-1zm0.19727 2.6523a1 1 0 0 0-1 1 1 1 0 0 0 1 1 1 1 0 0 0 1-1 1 1 0 0 0-1-1zm-1.248 2.3398a1 1 0 0 0-1 1 1 1 0 0 0 1 1 1 1 0 0 0 1-1 1 1 0 0 0-1-1zm-2.8105 0.47656a1 1 0 0 0-1 1 1 1 0 0 0 1 1 1 1 0 0 0 1-1 1 1 0 0 0-1-1z" opacity=".35" class="ColorScheme-Text" fill="currentColor"/>
</svg>
