<svg width="32" height="32" version="1.1" xmlns="http://www.w3.org/2000/svg">
 <rect x="1" y="1" width="30" height="30" rx="8" ry="8" fill="#333333"/>
 <path d="m10.454 16.992 1.998-5.656 1.804 5.655h-3.802zm5.573 4.842h1.43L13.281 9.971h-1.69l-4.42 11.863h1.43l1.414-3.754h4.712zm4.935-.845c-.829 0-1.446-.406-1.446-1.381 0-1.22.731-1.61 3.201-1.934.016 0 .796-.114.796-.114v2.145c-.568.78-1.722 1.284-2.55 1.284zm2.584-.114.195.959h1.089v-6.403c0-1.95-1.35-2.518-3.072-2.518-1.235 0-2.388.308-3.055.666l.374 1.04c.715-.341 1.755-.585 2.714-.585 1.202 0 1.722.552 1.722 1.609v.99l-.877.098c-2.243.325-4.453.634-4.453 2.925 0 1.625 1.22 2.373 2.65 2.373.91 0 1.95-.293 2.713-1.154z" fill="#ffffff"/>
</svg>
