<svg version="1.1" viewBox="0 0 22 22" xmlns="http://www.w3.org/2000/svg">
 <defs>
  <style id="current-color-scheme" type="text/css">.ColorScheme-Text { color: #363636; }</style>
 </defs>
 <path d="m9.22 12-2.22 4h8l-2.22-4z" class="ColorScheme-Text" fill="currentColor"/>
 <path class="ColorScheme-Text" d="m7 3v2h1v2.7402c-0.118 0.207-0.93981 1.6461-1.8828 3.4141a64.852 64.852 0 0 0-1.3965 2.748c-0.194 0.412-0.35742 0.78433-0.48242 1.1113-0.124 0.326-0.23828 0.52833-0.23828 0.98633 0 0-0.013531 0.70927 0.35547 1.4473 0.37 0.739 1.3115 1.5527 2.6445 1.5527h8c1.333 0 2.2745-0.81373 2.6445-1.5527 0.369-0.738 0.35547-1.4473 0.35547-1.4473 0-0.458-0.11428-0.66033-0.23828-0.98633-0.125-0.327-0.28842-0.69933-0.48242-1.1113a65.41 65.41 0 0 0-1.3965-2.748c-0.944-1.768-1.7648-3.2071-1.8828-3.4141v-2.7402h1v-2h-8zm3 2h2v3a1 1 0 0 0 0.13086 0.49609s0.99533 1.7406 1.9863 3.5996c0.496 0.929 0.99152 1.8882 1.3535 2.6582 0.181 0.385 0.32883 0.7227 0.42383 0.9707 0.062755 0.1649 0.087464 0.31359 0.097657 0.33984-0.006918 0.077709-0.029439 0.27372-0.13672 0.48828-0.13 0.261-0.18847 0.44727-0.85547 0.44727h-8c-0.667 0-0.72447-0.18627-0.85547-0.44727-0.10646-0.21456-0.12983-0.41057-0.13672-0.48828 0.010267-0.026256 0.034234-0.17495 0.097656-0.33984 0.094-0.248 0.24283-0.5857 0.42383-0.9707 0.362-0.77 0.85752-1.7292 1.3535-2.6582 0.991-1.859 1.9863-3.5996 1.9863-3.5996a1 1 0 0 0 0.13086-0.49609v-3z" fill="currentColor"/>
</svg>
