<svg width="22" height="22" version="1.1" xmlns="http://www.w3.org/2000/svg">
 <defs>
  <style id="current-color-scheme" type="text/css">.ColorScheme-Text { color: #363636; }</style>
 </defs>
 <path class="ColorScheme-Text" d="m11 3c-4.3745 0-7.9384 3.5134-8 7.8867 0.029926-2.2832 2.2998-4.4023 5-4.4023 0.21866 0 1.4662 0.020909 2.625 0.62891 1.021 0.53629 1.5558 1.4579 1.9277 2.0996 0.54044 1.0198 0.56324 1.956-0.0332 2.7344-0.05037 0.06548-0.20508 0.15589-0.20508 0.35352 0 0.16296 0.10618 0.32158 0.29492 0.45312 0.89866 0.62518 2.593 0.54102 2.5977 0.54102 0.66549-0.0017 1.3184-0.1818 1.8906-0.52148 1.1751-0.68651 1.8996-1.5883 1.9023-2.9492 0.0163-1.4003-0.5001-2.3319-0.70898-2.7441-1.3244-2.5905-4.1826-4.0801-7.291-4.0801zm0 2c2.4673 0 4.5697 1.1605 5.5059 2.9863 0.26008 0.51309 0.50459 0.91673 0.49414 1.8145-3.2e-5 0.00651-3.2e-5 0.013021 0 0.019531-0.0013 0.65352-0.08583 0.74498-0.91016 1.2266-0.0046 0.0026-0.0091 0.0052-0.01367 0.0078-0.26509 0.15735-0.56672 0.23953-0.875 0.24023-0.0051 1.41e-4 -0.2685-0.0097-0.47266-0.01563 0.14794-1.0473 0.06122-2.1162-0.4082-3.002-0.01195-0.022369-0.02432-0.044508-0.03711-0.066406-0.37271-0.64309-1.1272-2.0261-2.7285-2.8672v-0.00195c-0.31202-0.16372-0.55529-0.17598-0.85156-0.28321 0.1041-0.00526 0.19138-0.058594 0.29688-0.058594zm3.0039 8.2168c-6.07e-4 0.0011-0.0013 0.0028-2e-3 0.0039l-0.0059 2e-3c0.0026-2e-3 0.0052-0.0039 0.0078-0.0059z" fill="currentColor"/>
 <path class="ColorScheme-Text" d="m8.0057 6.0078c-2.7437 0-5 2.6025-5 4.8867-0.010646 1.2085 0.24824 2.4041 0.75781 3.5 1.7221 3.674 5.9233 5.477 9.7734 4.1934-1.3182 0.4154-2.9926 0.23274-4.1641-0.5l-0.00586-2e-3c-0.55701-0.34616-1.0397-0.7996-1.4199-1.3339-1.8471-2.5303-0.72635-6.114 2.084-7.498 0.19496-0.091851 0.52941-0.258 0.97266-0.25 0.63281 0.00471 1.2269 0.30538 1.6055 0.8125 0.25201 0.33703 0.39081 0.74522 0.39648 1.166 0-0.01304 1.5289-4.9746-5-4.9746zm3.3036 1.3525c0.13189 0.15012-0.97568-0.34796-2.9403 0.71777-1.5247 1.0386-2.6355 2.5078-3.0625 4.2207-0.2547-0.73192-0.31078-1.1616-0.34403-1.697-0.068123-1.3783 0.38558-2.1747 1.2615-3.2284 1.0501-0.99368 3.6516-1.6451 5.0854-0.013127z" fill="currentColor" opacity=".75"/>
 <path class="ColorScheme-Text" d="m10.031 9.2539c-1.4182 0.69844-2.4055 1.9567-2.7988 3.3574 0.53201 1.8769 1.947 3.3716 3.7285 4.2754-0.08025 8.21e-4 -0.14676 0.01923-0.22461 0.01758-0.65118-0.01379-0.89725-0.06986-1.2012-0.13477-0.91892-0.245-2.0587-1.0172-2.2441-1.2754 0.14864 0.43708 0.36596 0.86014 0.65625 1.2578 0.38026 0.53434 0.86292 0.98782 1.4199 1.334l0.00586 2e-3c0.94228 0.58937 2.2095 0.82314 3.3555 0.67578 0.0507-0.0078 0.10429-0.0153 0.15234-0.02344 0.04179-0.0067 0.08362-0.01376 0.125-0.02148 0.0072-0.0014 0.01424-0.0025 0.02149-0.0039 0.0402-0.0077 0.07937-0.01671 0.11914-0.02539 0.0057-0.0014 0.01-0.0025 0.01563-0.0039 0.13405-0.03211 0.25988-0.0657 0.36719-0.09961l0.08203-0.02734c1.7218-0.5949 3.1897-1.7584 4.1621-3.2988 0.13863-0.21845-0.10778-0.47734-0.33398-0.35352-0.76655 0.7535-1.9542 0.93276-2.9004 0.9375-2.957 0-5.5352-2.2728-5.5352-4.8828 0.00767-0.71316 0.40078-1.3663 1.0273-1.707z" fill="currentColor" opacity=".5"/>
</svg>
