<svg width="32" height="32" viewBox="0 0 8.466 8.466" xmlns="http://www.w3.org/2000/svg"><rect x=".265" y=".265" width="7.937" height="7.937" rx="2.117" ry="2.117" fill="#4785f1"/><path d="M1.583 2.636c-.152 0-.25.136-.186.274L2.91 6.183l.136.294c.063.137.17.272.32.274.15-.002.257-.137.32-.274l.767-1.66.607-1.312c.042-.092.14-.183.242-.183h.643a.21.21 0 0 1 .033.004c.003 0 .005.003.008.004a.123.123 0 0 1 .077.175l-.48 1.04-.06.13-.24.52-.06.13-.031.067-.03.063c-.01.028-.022.062-.06.061-.037 0-.05-.036-.06-.06l-.24-.52-.06-.13-.03-.064-.366.792.436.944c.064.137.17.271.32.273.15-.002.258-.136.32-.274l.136-.294L7.07 2.911c.064-.139-.033-.275-.185-.275h-1.92c-.153 0-.3.136-.364.274l-.88 1.906-.055.12-.06.13-.06.13-.06.13-.06.13c-.01.024-.022.06-.06.06-.036 0-.049-.033-.06-.06l-.029-.064-.03-.066-.06-.13-.061-.13-.24-.52-.48-1.04c-.044-.093.021-.184.123-.184h.638c.102 0 .2.091.243.183l.37.802.367-.792-.278-.605c-.064-.138-.212-.274-.364-.274h-.688z" fill="#fff" style="paint-order:stroke markers fill"/></svg>