<svg width="64" height="64" version="1.1" viewBox="0 0 16.933 16.933" xmlns="http://www.w3.org/2000/svg" xmlns:xlink="http://www.w3.org/1999/xlink">
 <defs>
  <linearGradient id="a">
   <stop offset="0"/>
   <stop stop-opacity="0" offset="1"/>
  </linearGradient>
  <clipPath id="b">
   <rect transform="rotate(45)" x=".529" y="285.36" width="15.875" height="9.525" ry=".529" fill="#ff9800" stroke-opacity=".196" stroke-width=".251" paint-order="markers stroke fill"/>
  </clipPath>
  <linearGradient id="c" x1="-197.1" x2="-196.91" y1="217.68" y2="219.36" gradientUnits="userSpaceOnUse" xlink:href="#a"/>
 </defs>
 <path d="m3.07 7.09c-0.177 0-0.237 0.162-0.318 0.318h-0.477a0.317 0.317 0 0 0-0.317 0.317v3.175c0 0.176 0.142 0.318 0.317 0.318h7.62a0.317 0.317 0 0 0 0.318-0.318v-3.175a0.317 0.317 0 0 0-0.318-0.317h-4.285c-0.093-0.15-0.141-0.318-0.317-0.318z" fill="#ff9800" style="paint-order:markers stroke fill"/>
 <path d="m3.07 7.09c-0.177 0-0.237 0.162-0.318 0.318h-0.477a0.317 0.317 0 0 0-0.317 0.317v3.175c0 0.176 0.142 0.318 0.317 0.318h7.62a0.317 0.317 0 0 0 0.318-0.318v-3.175a0.317 0.317 0 0 0-0.318-0.317h-4.285c-0.093-0.15-0.141-0.318-0.317-0.318z" opacity=".18" style="paint-order:markers stroke fill"/>
 <rect x="2.434" y="7.884" width="7.303" height="3.016" ry=".159" fill="#f2f2f2" style="paint-order:markers stroke fill"/>
 <path d="m6.085 8.202c-0.175 0-0.228 0.165-0.317 0.317l-0.185 0.318h-3.943a0.316 0.316 0 0 0-0.317 0.317v5.08c0 0.176 0.141 0.318 0.317 0.318h8.89a0.316 0.316 0 0 0 0.318-0.318v-5.715a0.316 0.316 0 0 0-0.317-0.317z" fill="#ff9800" style="paint-order:markers stroke fill"/>
 <rect x="3.228" y="7.249" width="1.905" height=".317" ry=".159" opacity=".25" style="paint-order:stroke markers fill"/>
 <rect transform="matrix(.42426 -.42426 .42426 .42426 1.0061 -162.38)" x="-199.59" y="217.87" width="5.292" height="4.762" ry=".132" clip-path="url(#b)" fill="url(#c)" opacity=".1" style="paint-order:stroke markers fill"/>
 <path d="m8.096 3.122c-0.176 0-0.236 0.161-0.317 0.317h-0.477a0.317 0.317 0 0 0-0.317 0.318v3.175c0 0.176 0.142 0.317 0.317 0.317h7.62a0.317 0.317 0 0 0 0.318-0.317v-3.175a0.317 0.317 0 0 0-0.318-0.318h-4.286c-0.093-0.149-0.141-0.317-0.317-0.317z" fill="#ff9800" style="paint-order:markers stroke fill"/>
 <path d="m8.096 3.122c-0.176 0-0.236 0.161-0.317 0.317h-0.477a0.317 0.317 0 0 0-0.317 0.318v3.175c0 0.176 0.142 0.317 0.317 0.317h7.62a0.317 0.317 0 0 0 0.318-0.317v-3.175a0.317 0.317 0 0 0-0.318-0.318h-4.286c-0.093-0.149-0.141-0.317-0.317-0.317z" opacity=".1" style="paint-order:markers stroke fill"/>
 <rect x="7.461" y="3.915" width="7.303" height="3.016" ry=".159" fill="#ffffff" style="paint-order:markers stroke fill"/>
 <path transform="scale(.26458)" d="m11.604 26.797c-0.66899 0-0.89502 0.61351-1.2012 1.2031h-1.8047a1.1981 1.1981 0 0 0-1.1973 1.1973v4.2031h-1.2012a1.1944 1.1944 0 0 0-1.1992 1.1973v19.201c0 0.66521 0.53401 1.2012 1.1992 1.2012h33.6a1.1944 1.1944 0 0 0 1.2031-1.2012v-21.6a1.1944 1.1944 0 0 0-1.1992-1.1992h-1.2012v-1.8027a1.1981 1.1981 0 0 0-1.2031-1.1973h-16.195c-0.3515-0.56694-0.53206-1.2031-1.1973-1.2031h-8.4023z" opacity=".18" stroke-width="3.7796" style="paint-order:markers stroke fill"/>
 <path d="m11.112 4.233c-0.175 0-0.228 0.165-0.317 0.317l-0.185 0.318h-3.943a0.316 0.316 0 0 0-0.317 0.317v5.08c0 0.177 0.141 0.318 0.317 0.318h8.89a0.316 0.316 0 0 0 0.318-0.317v-5.716a0.316 0.316 0 0 0-0.317-0.317z" fill="#ff9800" style="paint-order:markers stroke fill"/>
 <path d="m11.113 4.233c-0.176 0-0.23 0.165-0.318 0.317l-0.185 0.318h-3.943a0.316 0.316 0 0 0-0.317 0.317v5.08c0 0.177 0.141 0.318 0.317 0.318h8.89a0.316 0.316 0 0 0 0.318-0.317v-5.716a0.316 0.316 0 0 0-0.317-0.317z" fill="#ff9800" opacity=".15" style="paint-order:markers stroke fill"/>
 <rect x="8.255" y="3.28" width="1.905" height=".317" ry=".159" opacity=".25" style="paint-order:stroke markers fill"/>
 <rect transform="matrix(.42426 -.42426 .42426 .42426 6.0325 -166.35)" x="-199.59" y="217.87" width="5.292" height="4.762" ry=".132" clip-path="url(#b)" fill="url(#c)" opacity=".1" style="paint-order:stroke markers fill"/>
</svg>
