<svg xmlns="http://www.w3.org/2000/svg" width="16" height="16"><path d="M6 7V2.202c0-.45.17-.71.44-.91.26-.2.66-.3 1.06-.28.4.02.78.15 1.06.41.28.25.47.58.47 1.12 0 2.17 1.47 3.51 3 3.47.86-.02 1.69-.48 2.25-1.31l-.56-1c-.38.91-1.07 1.29-1.72 1.31-.96.03-1.97-.73-1.97-2.47 0-.79-.34-1.44-.81-1.87-.48-.43-1.08-.63-1.69-.66a2.46 2.46 0 0 0-.47 0c-.45.05-.88.22-1.25.5-.49.37-.81.95-.81 1.69V7m9-4.989v.12l.78 1.38c.01-.04.02-.08.03-.13zm0 .34l-.03.32.72 1.21.06-.18zm-.06.5c-.02.09-.05.17-.06.25l.65 1.13c.03-.06.07-.12.1-.19zm-.1.44c-.02.09-.06.17-.09.25l.59 1.03c.04-.06.09-.12.13-.19z" fill="#555555"/><path d="M2.8 6h5.4c.443 0 .8.357.8.8v6.4c0 .443-.357.8-.8.8H2.8a.798.798 0 0 1-.8-.8V6.8c0-.443.357-.8.8-.8z" fill="#555555"/></svg>