<svg width="16" height="16" version="1.1" xmlns="http://www.w3.org/2000/svg">
 <g fill="#555">
  <path d="m9 6c-1.09 0-2 0.91-2 2v3c0 1.09 0.91 2 2 2h5c1.09 0 2-0.91 2-2v-3c0-1.09-0.91-2-2-2zm0 2h5v3h-5z" color="#bebebe" font-family="sans-serif" font-weight="400" overflow="visible" style="font-feature-settings:normal;font-variant-alternates:normal;font-variant-caps:normal;font-variant-ligatures:normal;font-variant-numeric:normal;font-variant-position:normal;isolation:auto;mix-blend-mode:normal;shape-padding:0;text-decoration-color:#000000;text-decoration-line:none;text-decoration-style:solid;text-indent:0;text-orientation:mixed;text-transform:none"/>
  <g stroke-linecap="round" stroke-width="4">
   <rect x="9" y="14" width="5" height="2"/>
   <path d="m2 3c-0.554 0-1 0.446-1 1v4c0 0.554 0.446 1 1 1h4v-1c0-0.35096 0.06014-0.68748 0.16992-1h-3.1699v-2h6 2v-1c0-0.554-0.446-1-1-1h-8z"/>
   <rect x="3" y="10" width="3" height="2"/>
   <rect x="3" width="6" height="2"/>
  </g>
 </g>
</svg>
