<svg width="16px" height="16px" version="1.1" viewBox="0 0 16 16" xmlns="http://www.w3.org/2000/svg">
 <g transform="matrix(.88239 0 0 .88239 .094881 1.7452)">
  <g transform="matrix(.9333 0 0 .9333 17.119 3.3378)" fill="#bebebe" fill-opacity=".44314">
   <g transform="matrix(.8681 0 0 .8681 -2.2743 -.44319)">
    <path d="m-6.34-6.0504c-0.61462 0-1.1119 0.49739-1.1119 1.1119v7.3326c0 1.1432 1.2965 1.8034 2.2211 1.131l2.4123-1.7539c1.7243-1.254 2.1845-3.6287 1.0545-5.4366-0.92752-1.484-2.5556-2.385-4.3056-2.385h-0.27047zm-5.8929 1.8632c-1.7489 0.061238-3.3432 1.017-4.2182 2.5325l-0.1366 0.23495c-0.30727 0.5322-0.12514 1.2144 0.40706 1.5217l6.3491 3.6636c0.98991 0.57154 2.21-0.22101 2.09-1.3578l-0.31144-2.9642c-0.22394-2.1202-2.0493-3.7054-4.1799-3.6308zm7.5785 1.5135c0.1836 0.15281 0.3857 0.28273 0.51634 0.49176 0.36406 0.58439 0.22862 1.2837-0.32784 1.6884l-0.18851 0.13933v-2.3194zm-7.4801 1.284c0.68969-0.024152 1.2252 0.44245 1.2977 1.1283l0.027319 0.23222-2.0107-1.1611c0.22415-0.082182 0.43833-0.19077 0.68572-0.19943zm13.936 1.3414c-0.17937 0.0046588-0.35822 0.054237-0.52454 0.15026l-6.3491 3.6636c-0.99005 0.57168-0.91347 2.027 0.13113 2.4916l2.7238 1.2103c1.9481 0.86626 4.2338 0.076631 5.2345-1.8058 0.8215-1.5452 0.78751-3.4048-0.087423-4.9203l-0.13387-0.23222c-0.21128-0.36589-0.59983-0.56757-0.99444-0.55732zm-15.985 2.5134c-1.5117-0.05561-2.9868 0.74095-3.7373 2.1528-0.82143 1.5452-0.78756 3.4047 0.087423 4.9203l0.13387 0.23222c0.30727 0.53223 0.98677 0.71423 1.519 0.40706l6.3491-3.6636c0.99005-0.57168 0.91347-2.027-0.13113-2.4916l-2.7238-1.2103c-0.48701-0.21657-0.99321-0.32842-1.4971-0.34696zm14.897 1.1939c-0.040733 0.23385-0.051561 0.47198-0.16665 0.68846-0.32412 0.60974-0.99925 0.84522-1.6283 0.56552v-0.002732l-0.21309-0.092887 2.008-1.1584zm-15.001 1.6037c0.15954 0.00587 0.30825 0.037093 0.46444 0.10655l0.21309 0.095619-2.008 1.1584c0.04064-0.23461 0.051194-0.47399 0.16665-0.69119 0.24215-0.45551 0.69959-0.68641 1.1638-0.66933zm8.4527 1.0627c-0.7553 0.035196-1.4178 0.69361-1.3277 1.5463l0.31144 2.9642c0.2238 2.1201 2.0492 3.7054 4.1799 3.6308 1.7489-0.061266 3.3431-1.0197 4.2182-2.5353l0.1366-0.23222c0.30731-0.53223 0.12517-1.2144-0.40706-1.5217l-6.3491-3.6636c-0.24751-0.14288-0.51045-0.20024-0.76222-0.18851zm-3.1008 0.16119c-0.25161 0.01477-0.50649 0.099636-0.73763 0.26773l-2.4123 1.7539c-1.7242 1.254-2.1845 3.6287-1.0545 5.4366 0.92748 1.484 2.5556 2.385 4.3056 2.385h0.27047c0.61448 0 1.1119-0.49743 1.1119-1.1119v-7.3326c0-0.85741-0.72864-1.4431-1.4835-1.3988zm4.8411 3.8248 2.0107 1.1584c-0.22409 0.08245-0.43915 0.19353-0.68573 0.20217-0.68994 0.02414-1.2253-0.44268-1.2977-1.1283l-0.02732-0.23222zm-6.1551 0.32237v2.3222c-0.18387-0.15291-0.3883-0.28251-0.51908-0.49176-0.36545-0.58472-0.22922-1.2887 0.32784-1.6938l0.19124-0.1366z" fill="#555" fill-opacity="1"/>
   </g>
  </g>
 </g>
</svg>
