<svg height="16" width="16" xmlns="http://www.w3.org/2000/svg" enable-background="new"><defs><filter id="a" color-interpolation-filters="sRGB"><feBlend in2="BackgroundImage" mode="darken"/></filter></defs><g transform="translate(-405.002 139.002)" filter="url(#a)"><path d="M420-135c0-2-2-2-2-2h-10c-2 0-2 2-2 2v8s0 2 2 2h10l2-2zM416-129.002V-128c0 1-1 1-1 1l-1-.002v-2zm0-4.998l-.004.998h-2v-2L415-135s1 0 1 1zm-.004 1.998v2h-2v-2zm-2.996-3v8h-2v-8zm-2.996 6v2L409-127c-1 0-1-1-1-1l.002-1.002zm-.004-6v2h-2L408-134c0-1 1-1 1-1zm0 3v2h-2v-2z" fill="#555555"/></g></svg>