<svg width="16px" height="16px" version="1.1" viewBox="0 0 16 16" xmlns="http://www.w3.org/2000/svg">
 <g fill="#555" stroke-linecap="round">
  <g stroke-linejoin="round" stroke-miterlimit="3.9" stroke-width=".56935">
   <rect x="3" width="2" height="1" style="font-variation-settings:'wght' 700"/>
   <rect x="11" width="2" height="1" style="font-variation-settings:'wght' 700"/>
   <rect x="7" width="2" height="1" style="font-variation-settings:'wght' 700"/>
  </g>
  <g transform="matrix(1 0 0 .5 0 7.5)" stroke-linejoin="round" stroke-miterlimit="3.9" stroke-width=".80518">
   <rect x="3" y="13" width="2" height="2" style="font-variation-settings:'wght' 700"/>
   <rect x="11" y="13" width="2" height="2" style="font-variation-settings:'wght' 700"/>
   <rect x="7" y="13" width="2" height="2" style="font-variation-settings:'wght' 700"/>
  </g>
  <g transform="matrix(0 1 -.5 0 22.5 0)" stroke-linejoin="round" stroke-miterlimit="3.9" stroke-width=".80518">
   <rect x="3" y="13" width="2" height="2" style="font-variation-settings:'wght' 700"/>
   <rect x="11" y="13" width="2" height="2" style="font-variation-settings:'wght' 700"/>
   <rect x="7" y="13" width="2" height="2" style="font-variation-settings:'wght' 700"/>
  </g>
  <g transform="matrix(0 1 -.5 0 7.5 0)" stroke-linejoin="round" stroke-miterlimit="3.9" stroke-width=".80518">
   <rect x="3" y="13" width="2" height="2" style="font-variation-settings:'wght' 700"/>
   <rect x="11" y="13" width="2" height="2" style="font-variation-settings:'wght' 700"/>
   <rect x="7" y="13" width="2" height="2" style="font-variation-settings:'wght' 700"/>
  </g>
  <g stroke-linejoin="round" stroke-miterlimit="3.9">
   <rect x="2" y="1" width="12" height="2" stroke-width=".704" style="font-variation-settings:'wght' 700"/>
   <rect x="2" y="12" width="12" height="2" stroke-width=".704" style="font-variation-settings:'wght' 700"/>
   <rect transform="rotate(90)" x="1" y="-3" width="13" height="2" stroke-width=".73275" style="font-variation-settings:'wght' 700"/>
   <rect transform="rotate(90)" x="1" y="-15" width="13" height="2" stroke-width=".73275" style="font-variation-settings:'wght' 700"/>
  </g>
  <g stroke-width="4">
   <rect x="4" y="5" width="2" height="1" rx="0" ry="0"/>
   <rect x="7" y="5" width="2" height="1" rx="0" ry="0"/>
   <rect x="10" y="5" width="2" height="1" rx="0" ry="0"/>
   <rect x="4" y="7" width="2" height="1" rx="0" ry="0"/>
   <rect x="7" y="7" width="2" height="1" rx="0" ry="0"/>
   <rect x="10" y="7" width="2" height="1" rx="0" ry="0"/>
   <rect x="4" y="9" width="2" height="1" rx="0" ry="0"/>
   <rect x="7" y="9" width="2" height="1" rx="0" ry="0"/>
   <rect x="10" y="9" width="2" height="1" rx="0" ry="0"/>
  </g>
 </g>
</svg>
