<svg width="16px" height="16px" version="1.1" viewBox="0 0 16 16" xmlns="http://www.w3.org/2000/svg">
 <path d="m13 9c-1.0977 0-2 0.90234-2 2v1h-1v4h6v-4h-1v-1c0-1.0977-0.90234-2-2-2zm0 1c0.5625 0 1 0.4375 1 1v1h-2v-1c0-0.5625 0.4375-1 1-1z" fill="#555"/>
 <path d="m4 0c-2 0-2 2-2 2v12c0 2 2 2 2 2h5v-5h-5v-2h6.668c0.55859-0.67969 1.3984-1.125 2.332-1.125 0.35156 0 0.6875 0.074219 1 0.1875v-5.0625l-3-3zm1 6 1 0.00781v2h-2v-1.0078s0-1 1-1zm6 0c1 0 1 1 1 1l-0.0039 1h-2v-2zm-4 0.00781h2v2h-2zm-3 5.9961h2v2l-1-0.003904c-1 0-1-1-1-1zm3 0h2v2h-2z" fill="#555" opacity=".35"/>
</svg>
