<svg height="16.003" width="16" xmlns="http://www.w3.org/2000/svg" enable-background="new"><defs><filter id="a" color-interpolation-filters="sRGB"><feBlend in2="BackgroundImage" mode="darken"/></filter></defs><g transform="translate(-425 475.003)" filter="url(#a)" fill="#4d4d4d"><path d="M431-468v5h1v4l3-5h-1l1.5-4z" enable-background="new"/><path d="M433-475c-2.07 0-3.835 1.268-4.594 3.063A3.981 3.981 0 0 0 425-468a4 4 0 0 0 4 4h1v-5h6.944l-1.5 4h1.322l-.6 1h1.334a3.5 3.5 0 0 0 3.5-3.5 3.49 3.49 0 0 0-3.094-3.469A5.011 5.011 0 0 0 433-475zm-1 8v3h.932l1.125-3H432z" enable-background="new"/></g></svg>