<svg xmlns="http://www.w3.org/2000/svg" width="24" height="24"><defs><style id="current-color-scheme" type="text/css"></style></defs><path d="M10.5 5c-.794.001-.78.033-.531 1.031L11.594 11h-4.5l-1.22-1.781C5.737 9.01 5.753 9 5.532 9h-.219c-.427 0-.292.438-.292.438L5.312 12l-.292 2.563s-.129.437.261.437h.25c.212 0 .204-.009.344-.219l1.219-1.78h4.5l-1.625 4.937C9.707 18.985 9.704 19 10.5 19c.432 0 .434-.012.719-.5l3.687-5.5H18c.554 0 1-.446 1-1s-.446-1-1-1h-3.094L11.22 5.5c-.267-.457-.284-.498-.656-.5H10.5z" fill="currentColor" color="#dfdfdf"/></svg>