<svg xmlns="http://www.w3.org/2000/svg" width="24" height="24"><defs><style id="current-color-scheme" type="text/css">.ColorScheme-Text{color:#dfdfdf}</style></defs><path class="ColorScheme-Text" d="M12.041 4a1.75 1.75 0 0 0-.93.244L5.89 7.334A1.83 1.83 0 0 0 5 8.91v6.18c0 .403.143.778.373 1.09l13.463-7.998a1.792 1.792 0 0 0-.725-.848L12.89 4.242A1.75 1.75 0 0 0 12.043 4zm6.889 4.41a1.776 1.82 0 0 1 .013.053 1.98 1.98 0 0 0-.013-.053zM5.502 16.352l.039.039a1.776 1.82 0 0 1-.039-.04z" fill="currentColor"/><path class="ColorScheme-Text" d="M18.848 8.176l-13.487 8.01a1.776 1.82 0 0 0 .527.48l5.224 3.09a1.776 1.82 0 0 0 1.776 0l5.224-3.09A1.776 1.82 0 0 0 19 15.09V8.909a1.776 1.82 0 0 0-.152-.733z" opacity=".3" fill="currentColor"/></svg>