<svg xmlns="http://www.w3.org/2000/svg" width="24" height="24"><defs><style id="current-color-scheme" type="text/css">.ColorScheme-Text{color:#dfdfdf}</style></defs><path class="ColorScheme-Text" d="M7 11a1 1 0 0 0-1 1 1 1 0 0 0 .006.111c.064 2.435 2.193 4.426 4.994 4.815V18H8a1 1 0 0 0-1 1 1 1 0 0 0 1 1h8a1 1 0 0 0 1-1 1 1 0 0 0-1-1h-3v-1.074c2.805-.39 4.936-2.387 4.994-4.826A1 1 0 0 0 18 12a1 1 0 0 0-1-1 1 1 0 0 0-1 1h-.016c-.083 2.068-1.41 3-3.984 3s-3.9-.932-3.984-3H8a1 1 0 0 0-1-1z" fill="currentColor"/><path class="ColorScheme-Text" d="M12 4C9.784 4 8 5.86 8 8.168v1.664C8 12.141 9.784 14 12 14s4-1.86 4-4.168V8.168C16 5.859 14.216 4 12 4zm-2 3h1v4h-1zm3 0h1v4h-1z" opacity=".3" fill="currentColor"/></svg>