<svg xmlns="http://www.w3.org/2000/svg" width="24" height="24"><defs><style id="current-color-scheme" type="text/css"></style></defs><path d="M4 17.203v.547C4 18.962 5.038 20 6.25 20h11.5c1.212 0 2.25-1.038 2.25-2.25v-.547A2.96 2.96 0 0 1 18 18H6a2.96 2.96 0 0 1-2-.797zM7 4A2 2 0 0 0 5.01 5.78l-1 8.999A2 2 0 0 0 6 17h12a2 2 0 0 0 1.988-2.221l-1-9A2 2 0 0 0 17 4H7zm4.986 2a.5.5 0 0 1 .496.348l.87 2.714h2.85a.5.5 0 0 1 .294.907l-2.314 1.666.88 2.711a.5.5 0 0 1-.77.556l-2.3-1.683-2.305 1.676a.5.5 0 0 1-.77-.563l.891-2.707-2.305-1.676a.5.5 0 0 1 .295-.904l2.852.014.88-2.713A.5.5 0 0 1 11.987 6z" fill="currentColor" color="#dfdfdf"/></svg>