<svg xmlns="http://www.w3.org/2000/svg" width="24" height="24"><defs><style id="current-color-scheme" type="text/css"></style></defs><path d="M4 17.203v.547C4 18.962 5.038 20 6.25 20h11.5c1.212 0 2.25-1.038 2.25-2.25v-.547A2.96 2.96 0 0 1 18 18H6a2.96 2.96 0 0 1-2-.797zM12 6a.52.52 0 0 1 .496.35l.87 2.65h2.851c.487 0 .688.686.293.97l-2.314 1.666.88 2.702c.144.459-.379.844-.769.563L12 13.22 9.702 14.9a.5.5 0 0 1-.77-.563l.89-2.712L7.52 9.951c-.392-.285-.191-.952.293-.951h2.851l.881-2.65c.064-.2.238-.35.455-.35zM7 4c-1.02 0-1.886.987-2 2l-.988 8.779A2 2 0 0 0 6 17h12a2 2 0 0 0 1.989-2.221L19 6c-.114-1.013-.98-2-2-2z" fill="currentColor" color="#5294e2"/></svg>