<svg xmlns="http://www.w3.org/2000/svg" width="24" height="24"><defs><style id="current-color-scheme" type="text/css"></style></defs><path d="M12 4a8 8 0 0 0-8 8 8 8 0 0 0 8 8 8 8 0 0 0 8-8 8 8 0 0 0-8-8zm-2 2h1v2c.303-.011.701 0 1 0V6h1v2h1c.567 0 1 1 1 1.75 0 1.25-.433 1.693-1.184 1.75C15 11.501 16 12 16 13.5c0 2.134-1.108 2.362-3.016 2.5l.032 2h-1l-.032-2H11v1.982L10 18v-2c-.266 0-.598-.01-.873 0H8v-1s.69.013.676 0c.321-.01.306-.36.324-.5V9.549c-.048-.223-.194-.556-.654-.549C8.359 8.985 8 9 8 9V8h1.066c.236 0 .688.01.934 0V6zm1 3v2c1.27 0 2 0 2-1s-.59-1-2-1zm0 3v3c2 0 3 0 3-1.5S13 12 11 12z" fill="currentColor" color="#dfdfdf"/></svg>