<svg xmlns="http://www.w3.org/2000/svg" width="24" height="24"><defs><style id="current-color-scheme" type="text/css"></style></defs><path d="M12 4c-6.34 0-6.503.003-6.668.1C4.982 4.304 5 4.052 5 8.814c0 4.833-.006 4.737.377 5.674.44 1.078 1.149 1.989 2.312 2.979.977.83 2.135 1.584 3.426 2.222.437.216.663.315.885.311.222.003.448-.095.885-.31 1.291-.64 2.449-1.392 3.426-2.223 1.163-.99 1.872-1.9 2.312-2.979.383-.937.377-.84.377-5.674 0-4.762.019-4.51-.332-4.714C18.503 4.003 18.34 4 12 4zm0 2c2.808 0 4.082.003 4.979.012.01.615.021 1.1.021 2.802 0 2.418-.005 3.622-.041 4.166-.036.545.011.265-.188.752-.305.748-.748 1.354-1.755 2.211-.835.71-1.858 1.379-3.016 1.951z" fill="currentColor" color="#dfdfdf"/></svg>