<svg xmlns="http://www.w3.org/2000/svg" width="24" height="24"><defs><style id="current-color-scheme" type="text/css"></style></defs><path d="M18.927 8.001a7.998 7.998 0 1 0-13.854 7.998 7.998 7.998 0 0 0 13.854-7.998zm-2.165 1.25c1.152 1.995 1.055 4.433-.228 6.228l1.015.821-3.503.869-.06-3.79 1.074.86c.824-1.193.863-2.755.106-4.067-.787-1.361-2.312-2.124-3.81-1.913l-.296-1.885c2.243-.32 4.522.835 5.702 2.877zM9.927 6.847l.113 3.759-1.073-.86c-.823 1.184-.885 2.78-.133 4.082.788 1.364 2.277 2.124 3.783 1.929l.295 1.886c-2.259.292-4.492-.846-5.674-2.893-1.146-1.985-1.034-4.468.255-6.245l-.988-.836 3.422-.822z" fill="currentColor" color="#dfdfdf"/></svg>