<svg xmlns="http://www.w3.org/2000/svg" width="24" height="24"><defs><style id="current-color-scheme" type="text/css"></style></defs><path d="M18.927 16A7.998 7.998 0 1 0 5.073 8a7.998 7.998 0 0 0 13.854 8zm-2.165-1.25c-1.152 1.995-3.312 3.13-5.508 2.917l-.204 1.29-2.503-2.6 3.252-1.947-.208 1.36c1.445.117 2.817-.63 3.574-1.942.787-1.362.685-3.064-.248-4.256l1.485-1.2c1.4 1.784 1.539 4.335.36 6.378zm-1.337-7.122l-3.198 1.978.208-1.36c-1.436-.12-2.849.624-3.601 1.927-.788 1.364-.701 3.034.221 4.24L7.57 15.612c-1.382-1.81-1.514-4.314-.332-6.361 1.146-1.985 3.353-3.13 5.536-2.901l.23-1.275 2.423 2.554z" fill="currentColor" color="#dfdfdf"/></svg>