<svg xmlns="http://www.w3.org/2000/svg" width="24" height="24"><defs><style id="current-color-scheme" type="text/css"></style></defs><path d="M12 4a8 8 0 1 0 0 16 8 8 0 0 0 0-16zm0 2.5c2.305 0 4.368 1.303 5.282 3.313l1.219-.47-1 3.47-3.313-1.844 1.281-.5c-.62-1.31-1.954-2.125-3.469-2.125-1.572 0-2.996.94-3.562 2.344L6.657 10C7.502 7.897 9.642 6.5 12 6.5zM6.5 11.22L9.813 13l-1.281.5c.613 1.305 1.964 2.156 3.469 2.156 1.575 0 2.978-.91 3.562-2.312l1.781.687c-.876 2.103-2.979 3.47-5.344 3.47-2.292 0-4.387-1.34-5.28-3.345l-1.22.438 1-3.375z" fill="currentColor" color="#dfdfdf" opacity=".3"/></svg>