<svg xmlns="http://www.w3.org/2000/svg" width="24" height="24"><defs><style id="current-color-scheme" type="text/css"></style></defs><path d="M12 4a8 8 0 1 0 0 16 8 8 0 0 0 0-16zM8.25 6h3a1 1 0 0 1 .75.342A1 1 0 0 1 12.75 6h3a1 1 0 0 1 1 1v1.914c.201.282.385.578.531.898l1.219-.468-1 3.469-.75-.418v1.408l.594.228a5.43 5.43 0 0 1-.594 1.043V17a1 1 0 0 1-1 1h-3a1 1 0 0 1-.75-.34 1 1 0 0 1-.75.34h-3a1 1 0 0 1-1-1v-1.94a5.346 5.346 0 0 1-.531-.904l-1.219.44 1-3.375.75.402v-1.394L6.656 10c.153-.382.362-.73.594-1.06V7a1 1 0 0 1 1-1zM9 7c-.554 0-1 .446-1 1v8c0 .554.446 1 1 1h1c.554 0 1-.446 1-1V8c0-.554-.446-1-1-1zm5 0c-.554 0-1 .446-1 1v8c0 .554.446 1 1 1h1c.554 0 1-.446 1-1V8c0-.554-.446-1-1-1z" fill="currentColor" color="#dfdfdf"/></svg>