<svg xmlns="http://www.w3.org/2000/svg" width="24" height="24"><defs><style id="current-color-scheme" type="text/css"></style></defs><path d="M20 12a8 8 0 1 0-16 0 8 8 0 0 0 16 0zm-2.5 0c0 2.305-1.303 4.368-3.313 5.282l.469 1.219-3.47-1 1.845-3.313.5 1.281c1.31-.62 2.125-1.954 2.125-3.469 0-1.572-.94-2.996-2.344-3.562l.687-1.781c2.103.845 3.5 2.985 3.5 5.344zm-4.72-5.5L11 9.813l-.5-1.281C9.194 9.145 8.342 10.496 8.342 12c0 1.575.91 2.978 2.313 3.562l-.688 1.781C7.865 16.468 6.5 14.365 6.5 12c0-2.292 1.34-4.387 3.344-5.28L9.406 5.5l3.375 1z" fill="currentColor" color="#dfdfdf"/></svg>