<svg xmlns="http://www.w3.org/2000/svg" width="24" height="24"><defs><style id="current-color-scheme" type="text/css"></style></defs><path d="M17.656 17.658A8 8 0 1 0 6.343 6.344a8 8 0 0 0 11.313 11.314zm-1.768-1.768c-1.629 1.629-4.01 2.167-6.076 1.392l-.53 1.193-1.746-3.16 3.646-1.038-.553 1.26c1.366.487 2.885.12 3.956-.951 1.112-1.112 1.454-2.783.862-4.176l1.745-.774c.89 2.085.364 4.585-1.304 6.253zm.553-7.226l-3.602 1.083.552-1.26c-1.356-.489-2.913-.136-3.977.928-1.114 1.115-1.462 2.75-.884 4.155l-1.746.773c-.867-2.107-.346-4.56 1.326-6.231 1.621-1.621 4.05-2.156 6.1-1.37l.552-1.172 1.679 3.094z" fill="currentColor" color="#dfdfdf"/></svg>