<svg xmlns="http://www.w3.org/2000/svg" width="24" height="24"><defs><style id="current-color-scheme" type="text/css"></style></defs><path d="M19.725 14.07a7.998 7.998 0 1 0-15.45-4.14 7.998 7.998 0 0 0 15.45 4.14zm-2.414-.646c-.596 2.224-2.388 3.88-4.565 4.242l.137 1.299-3.09-1.864 2.637-2.721.151 1.366c1.426-.26 2.558-1.337 2.95-2.8.407-1.518-.132-3.136-1.342-4.046l1.124-1.542c1.813 1.36 2.608 3.788 1.998 6.066zM14.177 6.89L11.6 9.63l-.151-1.366c-1.419.254-2.59 1.338-2.98 2.791-.408 1.522.109 3.112 1.311 4.039l-1.124 1.542c-1.804-1.39-2.58-3.774-1.967-6.058.593-2.214 2.428-3.89 4.595-4.235l-.107-1.29 3 1.84z" fill="currentColor" color="#dfdfdf"/></svg>