<svg xmlns="http://www.w3.org/2000/svg" width="24" height="24"><defs><style id="current-color-scheme" type="text/css"></style></defs><path d="M15.999 18.927A7.998 7.998 0 1 0 8.001 5.073a7.998 7.998 0 0 0 7.998 13.854zm-1.25-2.165c-1.995 1.152-4.433 1.055-6.229-.228l-.82 1.015-.869-3.503 3.79-.06-.86 1.074c1.193.824 2.755.863 4.067.106 1.361-.787 2.124-2.312 1.913-3.81l1.885-.296c.32 2.243-.835 4.522-2.877 5.702zm2.404-6.835l-3.76.113.86-1.073c-1.183-.823-2.778-.885-4.081-.133-1.364.788-2.124 2.277-1.929 3.783l-1.886.295c-.292-2.259.846-4.492 2.893-5.674 1.985-1.146 4.468-1.034 6.245.255l.836-.988.822 3.422z" fill="currentColor" color="#dfdfdf"/></svg>