<svg xmlns="http://www.w3.org/2000/svg" width="24" height="24"><defs><style id="current-color-scheme" type="text/css"></style></defs><path d="M17.658 6.344A8 8 0 1 0 6.344 17.657 8 8 0 0 0 17.658 6.344zM15.89 8.11c1.629 1.63 2.167 4.01 1.392 6.077l1.193.53-3.16 1.746-1.038-3.646 1.26.552c.487-1.365.12-2.884-.951-3.955-1.112-1.112-2.783-1.454-4.176-.862l-.774-1.745c2.085-.89 4.585-.364 6.253 1.304zM8.664 7.56l1.083 3.602-1.26-.553c-.489 1.357-.136 2.914.928 3.978 1.115 1.114 2.75 1.462 4.155.884l.773 1.745c-2.107.867-4.56.346-6.231-1.325-1.621-1.622-2.156-4.05-1.37-6.1L5.57 9.239l3.094-1.68z" fill="currentColor" color="#dfdfdf"/></svg>