<svg xmlns="http://www.w3.org/2000/svg" width="24" height="24"><defs><style id="current-color-scheme" type="text/css"></style></defs><path d="M19.725 9.93a7.998 7.998 0 1 0-15.45 4.14 7.998 7.998 0 0 0 15.45-4.14zm-2.414.647c.596 2.225-.128 4.555-1.832 5.957l.768 1.056-3.609-.068.923-3.676.815 1.108c1.104-.939 1.546-2.437 1.154-3.9-.407-1.518-1.682-2.65-3.185-2.834l.203-1.897c2.25.271 4.152 1.976 4.762 4.255zm-5.98-4.09l-.863 3.66-.814-1.108c-1.102.93-1.574 2.454-1.185 3.907.408 1.522 1.65 2.641 3.155 2.842l-.203 1.898c-2.258-.302-4.12-1.98-4.733-4.263-.593-2.213.158-4.582 1.863-5.965l-.738-1.063 3.518.092z" fill="currentColor" color="#dfdfdf"/></svg>