<svg width="24" height="24" version="1.1" xmlns="http://www.w3.org/2000/svg">
 <defs>
  <style id="current-color-scheme" type="text/css">.ColorScheme-Text { color:#dfdfdf; } .ColorScheme-Highlight { color:#4285f4; }</style>
 </defs>
 <path class="ColorScheme-Text" d="m12 4a7 7 0 0 0-7 7 7 7 0 0 0 3 5.7285v1.2715h-1c-1.108 0-2 0.892-2 2h5c0-1.108 0.892-2 2-2s2 0.892 2 2h5c0-1.108-0.892-2-2-2h-1v-1.2715a7 7 0 0 0 3-5.7285 7 7 0 0 0-7-7zm0 2a5 5 0 0 1 5 5 5 5 0 0 1-5 5 5 5 0 0 1-5-5 5 5 0 0 1 5-5z" fill="currentColor" opacity=".35"/>
 <circle class="ColorScheme-Text" cx="12" cy="11" r="3" fill="currentColor" opacity=".35"/>
</svg>
