<svg xmlns="http://www.w3.org/2000/svg" width="24" height="24"><defs><style id="current-color-scheme" type="text/css"></style></defs><path d="M11.81 3.98A8 8 0 0 0 4 12.025a8 8 0 0 0 16 0 8 8 0 0 0-8.19-8.043zM12 5.98c3.308 0 6 2.691 6 6 0 3.308-2.692 6-6 6s-6-2.692-6-6c0-3.309 2.692-6 6-6zm.4 1c-.4 0-.4.418-.4.418v4.789c-.385-.136-.67-.206-1.1-.207-1.546 0-2.9.895-2.9 2 0 1.104 1.454 2 3 2s3-.896 3-2v-5s2.267 1.159 1.324 2.023c-.259.149-.344.379-.299.578.07.304.44.54.954.32.77-.401 1.021-1.122 1.021-1.722 0-1.8-3-3.2-4.6-3.2z" fill="currentColor" color="#dfdfdf"/></svg>