<svg width="24" height="24" version="1.1" xmlns="http://www.w3.org/2000/svg">
 <defs>
  <style id="current-color-scheme" type="text/css">.ColorScheme-Text { color:#dfdfdf; } .ColorScheme-Highlight { color:#4285f4; }</style>
 </defs>
 <path class="ColorScheme-Text" d="m8 3.999c-1.662 0-3 1.338-3 3v7c0 2 1 3.0002 3 4l4.0059 2.002 3.9941-2.002c1.9955-1 3-2 3-4v-7c0-1.662-1.338-3-3-3zm0 2h8c0.554 0 1 0.446 1 1v7c0 0.554-0.446 1-1 1h-8c-0.554 0-1-0.446-1-1v-7c0-0.554 0.446-1 1-1z" fill="currentColor"/>
 <path class="ColorScheme-Text" d="m11.443 7.001-2.4375 6h1.0742l0.40625-1h3.0391l0.40625 1h1.0742l-2.4395-6h-0.53711l-0.02344 0.01-0.02344-0.01zm0.5625 1.2578 1.1133 2.7422h-2.2266z" fill="currentColor" opacity=".45"/>
</svg>
