<svg xmlns="http://www.w3.org/2000/svg" width="24" height="24"><defs><style id="current-color-scheme" type="text/css"></style></defs><path d="M4 17.203v.547C4 18.962 5.04 20 6.25 20h11.5c1.212 0 2.25-1.038 2.25-2.25v-.547A2.96 2.96 0 0 1 18 18H6a2.96 2.96 0 0 1-2-.797zm8.08-9.906L11 11.289h2.18zM10.899 6h2.314l2.91 9h-1.91l-.609-2h-3.076l-.617 2H8zM7 4a2 2 0 0 0-1.988 1.78l-1 8.999A2 2 0 0 0 6 17h12a2 2 0 0 0 1.988-2.221l-1-9A2 2 0 0 0 17 4z" opacity=".3" fill="currentColor" fill-rule="evenodd" color="#dfdfdf"/></svg>