<svg xmlns="http://www.w3.org/2000/svg" width="24" height="24"><defs><style id="current-color-scheme" type="text/css"></style></defs><path d="M12 4a7.975 7.975 0 0 0-6.955 4.045 7.981 7.981 0 0 1 5.488-.897l.006-.013a7.904 7.904 0 0 1 .83-1.59c.03-.045.057-.09.088-.135.152-.216.314-.423.486-.623l.082-.1c.205-.229.42-.45.649-.654A8.134 8.134 0 0 0 12 4zm3.227.678c-.29.15-.56.329-.819.523-.064.048-.123.102-.185.153-.215.175-.42.361-.608.564l-.09.096a6.036 6.036 0 0 0-1.09 1.765 7.984 7.984 0 0 1 4.116 4.62A2.9 2.9 0 0 1 18 12c.75 0 1.426.293 1.95.758.023-.25.05-.5.05-.758a7.98 7.98 0 0 0-4.773-7.322zM9 9a5.986 5.986 0 0 0-4.982 2.645C4.012 11.763 4 11.88 4 12c0 4.432 3.568 8 8 8 .12 0 .235-.012.354-.018h.002A5.972 5.972 0 0 0 14 18.297v-1.393c-.12-.07-.246-.128-.361-.203-.033-.02-.064-.043-.096-.064a7.98 7.98 0 0 1-.818-.623l-.01-.008a7.998 7.998 0 0 1-.735-.74l-.091-.108a7.955 7.955 0 0 1-.586-.78l-.04-.058a7.96 7.96 0 0 1-.486-.884l-.08-.178a7.91 7.91 0 0 1-.345-.908c-.007-.022-.016-.042-.022-.063a7.996 7.996 0 0 1-.254-1.232A8.108 8.108 0 0 1 10 10c0-.306.018-.606.05-.902A6.065 6.065 0 0 0 9 9zm3.014.813c-.002.063-.014.123-.014.187 0 .249.02.492.049.732.009.074.022.146.033.22.028.175.063.349.105.519.018.07.035.141.055.21.066.227.142.45.233.665.096.227.209.446.332.658l.05.084c.116.192.242.377.377.555l.04.052c.306.391.659.743 1.052 1.047l.049.037c.105.08.22.148.33.221H15a5.98 5.98 0 0 0-2.986-5.188zM18 13c-1.108 0-2 .91-2 2.031V16h-1v4h6v-4h-1v-.969c0-1.12-.892-2.031-2-2.031zm0 1c.554 0 1 .442 1 1v1h-2v-1c0-.558.446-1 1-1z" fill="currentColor" color="#dfdfdf"/></svg>