<svg xmlns="http://www.w3.org/2000/svg" width="24" height="24"><defs><style id="current-color-scheme" type="text/css"></style></defs><path d="M7.5 5A3.5 3.5 0 0 0 4 8.5 3.5 3.5 0 0 0 7.5 12a3.5 3.5 0 0 0 1.477-.33L10.5 13.5 5 20l7-5 7 5-5.5-6.5 1.523-1.832A3.5 3.5 0 0 0 16.5 12 3.5 3.5 0 0 0 20 8.5a3.5 3.5 0 0 0-.002-.025l-.002-.059a3.5 3.5 0 0 0-.045-.47 3.582 3.582 0 0 0-.076-.354 3.5 3.5 0 0 0-.059-.205 3.438 3.438 0 0 0-.244-.565 3.412 3.412 0 0 0-.576-.808 3.389 3.389 0 0 0-1.9-.963 3.5 3.5 0 0 0-.027-.004 3.5 3.5 0 0 0-.46-.043c-.013 0-.025-.004-.037-.004l-.017.002A3.5 3.5 0 0 0 16.5 5 3.5 3.5 0 0 0 13 8.5a3.5 3.5 0 0 0 .383 1.584L12 12l-1.381-1.912A3.5 3.5 0 0 0 11 8.5 3.5 3.5 0 0 0 7.5 5zm0 2A1.5 1.5 0 0 1 9 8.5 1.5 1.5 0 0 1 7.5 10 1.5 1.5 0 0 1 6 8.5 1.5 1.5 0 0 1 7.5 7zm9 0A1.5 1.5 0 0 1 18 8.5a1.5 1.5 0 0 1-1.5 1.5A1.5 1.5 0 0 1 15 8.5 1.5 1.5 0 0 1 16.5 7z" fill="currentColor" color="#dfdfdf"/></svg>