<svg xmlns="http://www.w3.org/2000/svg" width="24" height="24"><defs><style id="current-color-scheme" type="text/css">.ColorScheme-Text{color:#dfdfdf}</style></defs><path opacity=".3" class="ColorScheme-Text" d="M20.635 3.025l-5.617 6.819L17 11l4-7.648-.365-.327zM6 7.5L2 11l4.375-.625L8 20l3.393-2.301.607.178v-2.856l-1.252 1.071L7.5 8 6 7.5zm7 2.529L10 11l1 3 1-.75V13h.334L15 11l-2-.971zm3 1.571L14.363 13H18l-2-1.4z" fill="currentColor"/><path fill-rule="evenodd" class="ColorScheme-Text" d="M13 14v6h3v-6h-3zm4 0v6h3v-6h-3z" clip-rule="evenodd" fill="currentColor"/></svg>