<svg xmlns="http://www.w3.org/2000/svg" width="24" height="24"><defs><style id="current-color-scheme" type="text/css"></style></defs><path d="M14.5 4A5.5 5.5 0 0 0 9 9.5a5.5 5.5 0 0 0 5.5 5.5A5.5 5.5 0 0 0 20 9.5 5.5 5.5 0 0 0 14.5 4zm.322 2.473a2.5 2 45 0 1 1.856.85 2.5 2 45 0 1 .353 3.18 2.5 2 45 0 1-3.181-.353 2.5 2 45 0 1-.354-3.181 2.5 2 45 0 1 1.326-.496zM8.266 11.32l-3.973 3.973A1 1 0 0 0 4 16v3a1 1 0 0 0 1 1h3a1 1 0 0 0 1-1v-2h2a1 1 0 0 0 1-1v-.504a6.521 6.521 0 0 1-2.059-1.375l-3.41 3.41a.75.75 0 0 1-1.062-1.06l3.529-3.53a6.457 6.457 0 0 1-.732-1.621z" fill="currentColor" color="#dfdfdf"/></svg>