<svg xmlns="http://www.w3.org/2000/svg" width="24" height="24"><defs><style id="current-color-scheme" type="text/css">.ColorScheme-Text{color:#dfdfdf}</style></defs><path class="ColorScheme-Text" d="M11.903 4c-1.001 1.401-3.346 4.23-4.76 7.166C8.361 9.617 9.65 9 10.809 9c3.164-.003 5.642 4.453 4.5 4.887-.91-1.943-2.189-2.857-3.31-2.887-1.473-.04-2.943 1.362-2.999 3.162-.128 4.164 6.02 3.668 6.793 4.94l.002.001c.67-.374 1.233-.863 1.614-1.474 2.572-4.124-3.986-11.129-5.506-13.63zm-4.764 7.174zm-.42.949zm-.338.951zm-.238.938zm-.121.925c-.007.112-.007.222-.008.332 0-.11.003-.22.008-.332zm.01.74zm.138.835c.04.148.071.3.127.443-.054-.143-.088-.294-.127-.443zm.147.488c.087.216.186.427.314.629.014.021.033.04.047.06-.014-.02-.031-.039-.045-.06-.126-.2-.23-.411-.316-.63zm.705 1.133c.05.056.106.106.16.16-.053-.053-.11-.105-.16-.16zm.488.459zm.584.41c.06.035.117.072.178.105-.061-.033-.12-.07-.178-.105zm7.123.385c-.078.033-.161.06-.242.091.08-.03.164-.058.242-.091zm-.68.246c-.093.028-.189.052-.285.078.096-.026.192-.05.286-.078zm-4.96.015c.063.02.129.034.193.051-.064-.017-.13-.032-.193-.05zm4.265.16zm-3.556.014zm2.996.082zm-2.389.014z" fill="currentColor"/><path class="ColorScheme-Text" d="M10.809 9c-1.16.001-2.45.617-3.668 2.168-.611 1.27-1.04 2.558-1.12 3.76-.005.12-.008.237-.007.355 0 .133.008.264.018.395.012.162.027.323.054.48.02.117.053.232.082.346.04.152.074.305.13.451l.013.035c.087.222.194.436.322.639.015.024.035.045.051.068.102.153.214.298.338.436.05.055.107.107.16.16a4.407 4.407 0 0 0 .506.437c.124.092.253.179.387.26a6.136 6.136 0 0 0 .793.408l.013.006h.002c.223.093.456.173.694.244.063.02.129.034.193.051a8.028 8.028 0 0 0 .781.172c.113.019.228.032.342.047.387.05.78.081 1.172.08.033 0 .066-.003.1-.004a8.944 8.944 0 0 0 1.117-.09c.08-.01.16-.02.238-.033a8.353 8.353 0 0 0 .732-.16c.098-.026.196-.05.291-.08a7.05 7.05 0 0 0 .432-.153c.08-.03.164-.058.242-.091.2-.086.394-.18.578-.284l-.002-.002c-.772-1.271-6.921-.775-6.793-4.939.056-1.8 1.526-3.202 2.999-3.162 1.121.03 2.4.944 3.31 2.887 1.142-.434-1.336-4.89-4.5-4.887z" opacity=".3" fill="currentColor" fill-rule="evenodd"/></svg>