<svg xmlns="http://www.w3.org/2000/svg" width="24" height="24"><defs><style id="current-color-scheme" type="text/css"></style></defs><path d="M12 4a8 8 0 0 0-8 8 8 8 0 0 0 8 8 8 8 0 0 0 8-8 8 8 0 0 0-8-8zM9 8a2 2 0 0 1 2 2 2 2 0 0 1-2 2 2 2 0 0 1-2-2 2 2 0 0 1 2-2zm6 0a2 2 0 0 1 2 2 2 2 0 0 1-2 2 2 2 0 0 1-2-2 2 2 0 0 1 2-2zm-7.063 4.986a1 1 0 0 1 .1 0 1 1 0 0 1 .953.868s.075.506.479 1.05C9.872 15.45 10.502 16 12 16c1.498 0 2.128-.55 2.531-1.096.404-.544.479-1.05.479-1.05a1.001 1.001 0 1 1 1.98.292s-.144.994-.851 1.95C15.43 17.05 14.06 18 12 18s-3.431-.95-4.139-1.904c-.707-.956-.851-1.95-.851-1.95a1 1 0 0 1 .928-1.16z" fill="currentColor" color="#dfdfdf"/></svg>