<svg xmlns="http://www.w3.org/2000/svg" width="24" height="24"><defs><style id="current-color-scheme" type="text/css"></style></defs><path d="M10.176 6s-1.98-.043-4.078 1.498C4 9.039 3 12.229 3 16.824c0 0 2.224 2.075 5.443 2.176 0 0 .54-.634.977-1.182-1.85-.547-2.55-2.185-2.55-2.185 1.704.953 2.862 1.35 4.63 1.367 1.768-.017 3.926-.414 5.63-1.367 0 0-.7 1.638-2.55 2.185.437.548.977 1.182.977 1.182C18.776 18.9 21 16.824 21 16.824c0-4.595-1-7.785-3.098-9.326C15.805 5.957 13.824 6 13.824 6l-.146.172c2.622.735 3.816 2.373 3.816 2.373s-.32-.172-.86-.402C15 7.358 13 7 11.5 7 10 7 9 7.358 7.365 8.143c-.539.23-.86.402-.86.402S7.7 6.907 10.323 6.172zM9.5 12c.838 0 1.515.668 1.5 1.5A1.501 1.501 0 1 1 9.5 12zm5 0a1.501 1.501 0 1 1-1.5 1.5 1.483 1.483 0 0 1 1.5-1.5z" fill="currentColor" color="#dfdfdf"/></svg>