<svg xmlns="http://www.w3.org/2000/svg" width="24" height="24"><defs><style id="current-color-scheme" type="text/css"></style></defs><path d="M5.637 4.223L4.223 5.637l2.176 2.175A6.952 6.952 0 0 0 5 12v4.666S5.001 19 7.334 19H10v-6H7v-1c0-.962.352-1.885.907-2.68L14 15.414V19h2.666c1.189-.134 1.661-.75 2.198-1.55l-3.407-3.407L14.414 13zM12 5a6.93 6.93 0 0 0-2.927.656l1.578 1.578A4.26 4.26 0 0 1 12 7c2.59 0 5 2.41 5 5v1h-.587L19 15.586V12c0-3.873-3.126-7-7-7z" fill="currentColor" color="#dfdfdf"/></svg>