<svg xmlns="http://www.w3.org/2000/svg" width="24" height="24"><defs><style id="current-color-scheme" type="text/css"></style></defs><path d="M8.01 4l-5 3 4 2.984L3 12.992 8.01 16l4-3-5-3 5-3 5 3.016-5 2.984 1.777 1.334a5 5 0 0 1 4.223-2.33 5 5 0 0 1 2.98.994l.03-.017-4.01-2.97 4-3-5-3-4 2.984-4-2.984zm10 9a4 4 0 0 0-4 4 4 4 0 0 0 4 4 4 4 0 0 0 4-4 4 4 0 0 0-4-4zm0 .492a3.5 3.5 0 0 1 .543.047 3.46 3.46 0 0 0-.6-.045 3.5 3.5 0 0 1 .057-.01zm-.069.002c-.16.003-.32.02-.48.045a3.5 3.5 0 0 1 .48-.045zm-.505.049a3.483 3.483 0 0 0-.49.12 3.5 3.5 0 0 1 .49-.12zm1.271.025a3.5 3.5 0 0 1 .402.108 3.48 3.48 0 0 0-.402-.108zm-1.77.096c-.153.05-.303.113-.45.186a3.5 3.5 0 0 1 .45-.186zm2.325.066a3.5 3.5 0 0 1 .369.17 3.459 3.459 0 0 0-.37-.17zm-2.819.141a3.552 3.552 0 0 0-.979.727 3.467 3.467 0 0 0-.403.52 3.5 3.5 0 0 1 .404-.52 3.5 3.5 0 0 1 .978-.727zm3.342.115a3.5 3.5 0 0 1 .422.29 3.471 3.471 0 0 0-.422-.29zm-7.776 0l-4 3-1-.6v.6l5 3 1.477-.884a5 5 0 0 1-.477-2.12 5 5 0 0 1 .396-1.95l-1.396-1.05zm8.2.276a3.5 3.5 0 0 1 .433.422 3.5 3.5 0 0 1 .002.002 3.5 3.5 0 0 1 .713 1.295 3.5 3.5 0 0 1 .105.437 3.5 3.5 0 0 1 .043.461 3.579 3.579 0 0 0-.044-.46 2.994 2.994 0 0 0-.105-.437 4.072 4.072 0 0 0-.158-.415l-3.181 3.635-.344.406-.393-.375-1.502-1.502a.53.53 0 0 1 0-.72.53.53 0 0 1 .721 0l1.127 1.126 3.016-3.453a3.527 3.527 0 0 0-.434-.422zm-5.182.894c-.109.177-.199.36-.274.551a3.5 3.5 0 0 1 .274-.55zm-.291.598a3.445 3.445 0 0 0-.164.588 3.5 3.5 0 0 1 .164-.588zm-.176.654c-.034.203-.051.41-.049.615a3.5 3.5 0 0 1-.002-.044 3.5 3.5 0 0 1 .05-.57zm6.947.508a3.5 3.5 0 0 1 .002.063 3.5 3.5 0 0 1-.021.38c.016-.147.022-.294.02-.443zm-6.992.176c.006.186.027.371.063.556a3.5 3.5 0 0 1-.063-.556zm.092.69c.042.177.097.354.168.527a3.5 3.5 0 0 1-.168-.528zm.224.654c.081.175.175.348.288.513a3.5 3.5 0 0 1-.288-.513zm6.325.064l-.01.021a3.5 3.5 0 0 1-.074.15l-.012.02c.035-.062.065-.127.096-.191zm-.194.35c-.007.01-.012.022-.02.033a3.5 3.5 0 0 1-.1.146 3.47 3.47 0 0 0 .12-.18zm-5.771.197c.11.15.23.287.357.414a3.5 3.5 0 0 1-.357-.414zm5.515.16l-.011.016a3.5 3.5 0 0 1-.168.181c.062-.064.123-.129.18-.197zm-5.037.371c.126.114.259.214.397.307a3.5 3.5 0 0 1-.398-.306zm4.282.31a3.5 3.5 0 0 1-.463.26 3.519 3.519 0 0 0 .463-.26zM16.247 20c.126.073.257.137.39.193a3.5 3.5 0 0 1-.39-.193zm3.082.219l-.013.006a3.5 3.5 0 0 1-.457.146c.158-.04.316-.089.47-.152zm-2.423.076c.134.045.269.087.408.115a3.5 3.5 0 0 1-.408-.115zm1.71.127a3.5 3.5 0 0 1-.431.05h-.014c.15-.006.297-.024.446-.05zm-1.093.021c.137.02.277.029.416.032h-.018a3.5 3.5 0 0 1-.383-.03c-.005 0-.01 0-.015-.002z" fill="currentColor" color="#dfdfdf"/></svg>