<svg xmlns="http://www.w3.org/2000/svg" width="24" height="24"><defs><style id="current-color-scheme" type="text/css"></style></defs><path d="M8.01 4l-5 3 4 2.984L3 12.992 8.01 16l4-3-5-3 5-3 5 3.016-5 2.984 1.777 1.334A5 5 0 0 1 18.01 12a5.003 5.003 0 0 1 2.98.994l.03-.017L17.01 10l4-3-5-3-4 2.984L8.01 4zm10 9a4 4 0 1 0 0 8 4 4 0 0 0 0-8zm-6 1l-4 3-1-.6v.6l5 3 1.476-.885A5 5 0 0 1 13.01 17a5 5 0 0 1 .396-1.953l-1.4-1.05zm6 0v1a2 2 0 0 0-2 2h-1a3 3 0 0 1 3-3zm2 3h1a3 3 0 0 1-3 3v-1a2 2 0 0 0 2-2z" fill="currentColor" color="#dfdfdf"/></svg>