<svg xmlns="http://www.w3.org/2000/svg" width="24" height="24"><defs><style id="current-color-scheme" type="text/css"></style></defs><path d="M6 4c-1.108 0-2 .892-2 2v12c0 1.108.892 2 2 2h12c1.108 0 2-.892 2-2V6c0-1.108-.892-2-2-2zm0 4h1v4.293L9.293 10H10V8h1v4.293L13.293 10h1.414l-3 3 3 3h-1.414L11 13.707V16H9.293L7 13.707V16H6zm10 2c.583 0 1.111.154 1.479.521.367.368.521.896.521 1.479h-1c0-.417-.096-.64-.229-.771-.132-.133-.354-.229-.771-.229-.417 0-.639.096-.771.229-.133.132-.229.354-.229.771v2c0 .417.096.639.229.771.132.133.354.229.771.229.417 0 .639-.096.771-.229.133-.132.229-.354.229-.771h1c0 .583-.154 1.111-.521 1.479-.368.367-.896.521-1.479.521-.583 0-1.111-.154-1.479-.521C14.154 15.111 14 14.583 14 14v-2c0-.583.154-1.11.521-1.479.368-.367.896-.521 1.479-.521zm-6 .707L7.707 13 10 15.293z" fill="currentColor" color="#dfdfdf"/></svg>