<svg xmlns="http://www.w3.org/2000/svg" width="24" height="24"><defs><style id="current-color-scheme" type="text/css"></style></defs><path d="M6 4c-1.108 0-2 .892-2 2v12c0 1.108.892 2 2 2h12c1.108 0 2-.892 2-2V6c0-1.108-.892-2-2-2zm5 2h1v6.982c1.811-.081 2.721-.606 3.262-1.492.59-.965.738-2.51.738-4.49h1c0 2.02-.102 3.725-.887 5.01-.726 1.189-2.063 1.874-4.113 1.97V17h5v1H6v-1h5v-3.02c-2.05-.096-3.387-.781-4.113-1.97C6.102 10.725 6 9.02 6 7h1c0 1.98.148 3.525.738 4.49.541.886 1.451 1.41 3.262 1.492z" fill="currentColor" color="#dfdfdf"/></svg>