<svg xmlns="http://www.w3.org/2000/svg" width="24" height="24"><defs><style id="current-color-scheme" type="text/css"></style></defs><path d="M6 4c-1.108 0-2 .892-2 2v12c0 1.108.892 2 2 2h12c1.108 0 2-.892 2-2V6c0-1.108-.892-2-2-2zm4.334 2h1.277c-.074.556-.203 1.125-.388 1.977 2.507-.102 4.386-.237 5.777-.4v1.279c-1.168.132-3.095.066-6.055.199-.296 1.185-.686 3.217-1.168 4.29l.112.055c1.37-.925 2.336-1.388 3.299-1.388 1.222 0 2.167.296 2.833.888.667.593.979 1.352.979 2.278 0 1.074-.404 1.489-1.256 2.045-.815.518-2.038.777-3.668.777-1.022 0-1.957.006-3.076-.055v-1.447c.944.191 1.838.225 2.965.225 1.185 0 2.075-.149 2.668-.446.629-.333.943-.433.943-1.099 0-.593-.204-1.056-.611-1.389-.408-.37-1-.555-1.777-.555-1.519 0-2.743.647-4.077 1.944l-1-.778c.593-.962 1.11-3.425 1.555-5.388H7V7.98c.96-.004 1.932-.015 2.945-.046z" fill="currentColor" color="#dfdfdf"/></svg>