<svg xmlns="http://www.w3.org/2000/svg" width="24" height="24"><defs><style id="current-color-scheme" type="text/css"></style></defs><path d="M6 4c-1.108 0-2 .892-2 2v12c0 1.108.892 2 2 2h12c1.108 0 2-.892 2-2V6c0-1.108-.892-2-2-2zm5.898 2.502a5.495 5.495 0 0 1 3.649 1.293l-1.291 1.53a3.488 3.488 0 0 0-4.61.081 3.49 3.49 0 0 0-.527 4.582 3.488 3.488 0 0 0 4.47 1.129 3.457 3.457 0 0 0 1.747-2.111H12v-2L17.398 11c.434 2.355-.709 4.781-2.898 5.898a5.51 5.51 0 0 1-7.025-1.771A5.516 5.516 0 0 1 8.3 7.926a5.49 5.49 0 0 1 3.597-1.424z" fill="currentColor" color="#dfdfdf"/></svg>