<svg xmlns="http://www.w3.org/2000/svg" width="24" height="24"><defs><style id="current-color-scheme" type="text/css"></style></defs><path d="M6 4c-1.108 0-2 .892-2 2v12c0 1.108.892 2 2 2h12c1.108 0 2-.892 2-2V6c0-1.108-.892-2-2-2zm5.584 1.723h.832c1.844 2.765 5.647 3.28 5.647 3.28l-.125.993s-.834-.124-1.938-.535V14H8.945a5.328 5.328 0 0 1-.22 1H16v3H8v-1.377l-.066.125c-.52.911-1.043 1.565-1.043 1.565l-.782-.625s.478-.597.957-1.436c.48-.839.934-1.919.934-2.752V9.46a10.628 10.628 0 0 1-1.938.536l-.125-.992s3.803-.516 5.647-3.281zm.416.98C11.141 7.773 10.066 8.502 9.066 9h2.532l-.875-.584.554-.832 1.5 1L12.5 9h2.434c-1-.498-2.075-1.227-2.934-2.297zM9 10v1h5v1H9v1h6v-3zm0 6v1h6v-1z" fill="currentColor" color="#dfdfdf"/></svg>