<svg xmlns="http://www.w3.org/2000/svg" width="24" height="24"><defs><style id="current-color-scheme" type="text/css"></style></defs><path d="M12 4a8 8 0 0 0-8 8 8 8 0 0 0 2 5.277V17h2v-3.94l-1.777.89-.446-.9L8 11.94V9H6V8h2V6h1v2h1v1H9v2.44l.777-.39.446.9-.106.05H12V9h-1V8h1.375L11.1 6.3l.8-.6 1.5 2-.398.3h1.996l-.398-.3 1.5-2 .8.6L15.625 8H18v1h-2v3h2v1h-2v5h-1v-5h-2.041c-.096 1.12-.477 2.031-.926 2.811-.62 1.07-1.691 2.054-1.691 2.054l-.684-.728s1.013-.966 1.51-1.826c.401-.7.704-1.411.793-2.311H10v-.94l-1 .5V18H6.719A8 8 0 0 0 12 20a8 8 0 0 0 8-8 8 8 0 0 0-8-8zm1 5v3h2V9h-2z" fill="currentColor" color="#dfdfdf"/></svg>