<svg xmlns="http://www.w3.org/2000/svg" width="24" height="24" version="1"><defs><style id="current-color-scheme" type="text/css"></style></defs><path d="M11.924 4.012l-6.77 1.986c-.092.032-.154.474-.154.57 0 2.373.64 5.117 1.754 7.526.904 1.954 2.53 4.56 5.14 5.881a.233.233 0 0 0 .21 0c2.612-1.32 4.238-3.927 5.142-5.881C18.36 11.684 19 8.94 19 6.568c0-.096-.062-.538-.154-.57l-6.77-1.987a.23.23 0 0 0-.152 0zm.031 2.996c.029-.01.06-.01.088 0l3.87 1.318a.126.126 0 0 1 .087.12c0 1.334-.365 2.877-1.002 4.232-.517 1.1-1.446 2.566-2.937 3.309-.018.01-.04.014-.06.014s-.042-.004-.061-.014c-1.492-.742-2.42-2.21-2.937-3.308C8.366 11.324 8 9.78 8 8.446c0-.054.035-.101.088-.12l3.867-1.318zM11 8v4h2V8h-2zm0 5v2h2v-2h-2z" fill="currentColor" color="#5294e2"/></svg>