<svg xmlns="http://www.w3.org/2000/svg" width="24" height="24" version="1"><defs><style id="current-color-scheme" type="text/css"></style></defs><path d="M11.924 4.013l-6.77 1.986c-.092.032-.154.475-.154.57 0 2.373.64 5.116 1.754 7.525.904 1.954 2.53 4.56 5.14 5.881.034.016.07.025.106.025s.072-.009.105-.025c2.61-1.32 4.237-3.927 5.14-5.881C18.362 11.684 19 8.942 19 6.57c0-.096-.062-.539-.154-.57l-6.77-1.987a.23.23 0 0 0-.152 0zm.031 2.994c.028-.01.06-.01.088 0l3.869 1.319a.126.126 0 0 1 .088.119c0 1.334-.365 2.877-1.002 4.233-.517 1.099-1.446 2.565-2.938 3.308-.018.01-.04.014-.06.014s-.042-.004-.06-.014c-1.492-.742-2.421-2.21-2.938-3.308C8.365 11.323 8 9.779 8 8.445c0-.054.035-.101.088-.12l3.867-1.318z" fill="currentColor" color="#dfdfdf"/></svg>