<svg xmlns="http://www.w3.org/2000/svg" width="24" height="24"><path fill-rule="evenodd" d="M9.586 10c-.588 0-1.266 1.103-1.984 2.27-.135.217-.265.428-.391.625-.405.706-.951 1.812-1.479 2.107-.441.243-.92.402-1.3.402-.258 0-.36-.078-.385-.101C3.87 15.137 3.66 15 3.5 15c-.227 0-.5 0-.5.5 0 1.5 3.066 2.393 4.426 2.484.19.01.384.016.582.016h.049c1.463-.025 2.78-.701 3.529-1.809.154-.226.375-.191.414-.191.039 0 .26-.035.414.191.75 1.108 2.066 1.784 3.53 1.809h.048c.198 0 .392-.006.582-.016C17.934 17.893 21 17 21 15.5c0-.5-.273-.5-.5-.5-.16 0-.371.137-.547.303-.025.023-.127.101-.384.101-.381 0-.86-.159-1.301-.402-.528-.295-1.074-1.401-1.479-2.107a44.78 44.78 0 0 1-.39-.625C15.68 11.103 15.003 10 14.415 10c-.417 0-.9.298-1.365.586-.388.24-.788.414-1.05.414s-.66-.174-1.048-.414c-.465-.288-.948-.586-1.365-.586z" fill="currentColor" color="#dfdfdf"/><circle cx="12" cy="8" r="2" fill="currentColor" color="#5294e2"/></svg>