<svg xmlns="http://www.w3.org/2000/svg" width="24" height="24"><defs><style id="current-color-scheme" type="text/css">.ColorScheme-Text{color:#dfdfdf}</style></defs><path class="ColorScheme-Text" d="M4.8 5c-.442 0-.8.311-.8.7v13.6c0 .389.358.7.8.7h14.4c.442 0 .8-.311.8-.7V5.7c0-.389-.358-.7-.8-.7H13v4h2v1h-2v1h2v1h-2v-1h-3v1H6v-1h3V8H6V7h3V5zM14 7h4v1h-4zM6 9h2v1H6zm10 0h2v1h-2zm1 2h1v1h-1zM6 13h3v1H6zm7 0h3v1h-3zm4 0h1v1h-1zM6 15h3v1H6zm4 0h1v1h-1zm3 0h1v1h-1zm3 0h2v1h-2zM6 17h1v1H6zm2 0h3v1H8zm5 0h4v1h-4z" fill="currentColor"/><path class="ColorScheme-Text" d="M10 4.5V10h2V4.5s-.081-.5-1-.5-1 .5-1 .5z" opacity=".3" fill="currentColor"/></svg>