<svg width="24" height="24" version="1.1" xmlns="http://www.w3.org/2000/svg">
 <g fill="#dedede">
  <path d="M12 4a8 8 0 0 0-5.604 2.293l2.756 4.773A3 3 0 0 1 12 9h7.412A8 8 0 0 0 12 4zM5.7 7.086A8 8 0 0 0 4 12a8 8 0 0 0 5.865 7.701l2.752-4.767A3 3 0 0 1 12 15a3 3 0 0 1-2.594-1.502l-.004.002L5.7 7.086zM14.23 10a3 3 0 0 1 .77 2 3 3 0 0 1-.404 1.498l.002.002-3.704 6.414A8 8 0 0 0 12 20a8 8 0 0 0 8-8 8 8 0 0 0-.26-2h-5.51z" color="#dfdfdf" opacity=".3"/>
  <path d="m12 10a2 2 0 0 0-2 2 2 2 0 0 0 2 2 2 2 0 0 0 2-2 2 2 0 0 0-2-2z" color="#5294e2"/>
 </g>
</svg>
