<svg xmlns="http://www.w3.org/2000/svg" width="24" height="24"><defs><style id="current-color-scheme" type="text/css"></style></defs><path d="M4.02 4.987c-1.35-.026-1.364 2.007-.014 2v11c-.02 1.347 2.001 1.35 1.998.013H6V5.957a.997.997 0 0 0-.994-.97zm2.98 1v11h1.006v1.273c0 .727.726.727.726.727h1.274v-2h2v1.996h2v-1.996h2v1.998H17.279s.727 0 .727-.727v-1.271h.3c.388 0 .7-.307.7-.688V6.674a.691.691 0 0 0-.7-.687zm2.006 2h4a1 1 0 0 1 .78 1.625l-2.698 3.375h1.918c1.352-.02 1.352 2.019 0 2h-4a1 1 0 0 1-.782-1.625l2.7-3.375H9.006c-1.353.019-1.353-2.02 0-2zm6.507 0h1.993a.5.5 0 0 1 .416.777l-1.477 2.223h1.06c.677-.01.677 1.01 0 1h-1.992a.5.5 0 0 1-.418-.778l1.477-2.222h-1.059c-.676.01-.676-1.01 0-1z" fill="currentColor" color="#dfdfdf"/></svg>