<svg xmlns="http://www.w3.org/2000/svg" width="24" height="24"><path d="M4.02 4.986c-1.35-.026-1.364 2.008-.014 2v11c-.02 1.347 2.001 1.35 1.998.014H6V5.957a.997.997 0 0 0-.994-.97zm2.98 1v11h1.006v1.274c0 .727.726.726.726.726h1.274v-2h2v1.996h2v-1.996H16v-5h-.487a.5.5 0 0 1-.418-.777l1.477-2.223h-1.059c-.676.01-.676-1.01 0-1h1.993a.5.5 0 0 1 .416.778l-1.477 2.222h1.06c.029 0 .049.011.075.014h1.426V6.674a.691.691 0 0 0-.7-.688zm2.006 2h4a1 1 0 0 1 .78 1.625l-2.698 3.375h1.918c1.352-.019 1.352 2.02 0 2h-4a1 1 0 0 1-.782-1.625l2.7-3.375H9.006c-1.353.02-1.353-2.019 0-2z" opacity=".3" fill="currentColor" color="#dfdfdf"/><path d="M17 12v4h2v-4zm0 5v2h2v-2z" fill="currentColor" color="#5294e2"/></svg>