<svg xmlns="http://www.w3.org/2000/svg" width="24" height="24"><defs><style id="current-color-scheme" type="text/css"></style></defs><path d="M22 18l-2.5 1.5L17 21v-6l2.5 1.5zM5.832 4a.76.76 0 0 0-.531.217c-.195.191-.301.5-.301.9v13.76c0 .4.115.71.3.9.285.283.728.309 1.233.008l3.588-2.091 7.764-4.524.476-.277c.851-.491.851-1.291 0-1.791l-.478-.28a6 6 0 0 0-7.756-4.521L6.533 4.207c-.252-.145-.49-.211-.701-.207zM9.49 6.557c-.063.03-.125.062-.187.094.062-.032.124-.065.187-.094zm-.607.328zM12 7c2.774 0 5 2.227 5 5 0 .189-.034.374-.055.56l-6.896 4.016c-.128-.055-.262-.1-.385-.166l-.021-.011-.024-.012c-.019-.009-.015-.003-.033-.01a1.38 1.38 0 0 0-.154-.1H9.43a5.047 5.047 0 0 1-.221-.138l-.008-.006a4.928 4.928 0 0 1-.24-.174l-.002-.002a4.834 4.834 0 0 1-.229-.19h-.002c-.1-.088-.17-.146-.207-.18l-.002-.003-.001-.002-.01-.011-.014-.014a4.92 4.92 0 0 1-.338-.367A5.466 5.466 0 0 1 8 14.985l-.002-.004-.002-.002a4.955 4.955 0 0 1-.184-.26l-.002-.004a5.376 5.376 0 0 1-.146-.236l-.004-.008a4.937 4.937 0 0 1-.143-.275l-.002-.004-.001-.004c-.057-.116-.098-.193-.116-.235v-.001a5.002 5.002 0 0 1-.183-.514v-.006a6.76 6.76 0 0 1-.137-.606c-.016-.094-.029-.166-.035-.218v-.01A4.975 4.975 0 0 1 7 12a5 5 0 0 1 .017-.35v-.007l.002-.006a5.03 5.03 0 0 1 .034-.322v-.002h.002c.006-.047.012-.095.02-.141v-.004a4.982 4.982 0 0 1 .097-.447l.002-.006.002-.006c.037-.14.079-.276.127-.408v-.002l.002-.004.013-.033v-.004l.002-.002c.053-.14.11-.278.174-.412l.004-.006v-.002l.018-.033.002-.004.001-.004c.064-.129.134-.257.21-.38a5.008 5.008 0 0 1 .305-.45c.101-.133.206-.256.314-.371l.004-.004.01-.01A4.967 4.967 0 0 1 12 7zm-3.691.285c-.062.049-.124.096-.184.147.06-.05.122-.098.184-.147zm9.66 4.106zM6 12zm.256 1.718zm2.935 3.572zM15 12.001a3 3 0 1 1-6 0 3 3 0 0 1 6 0z" fill="currentColor" color="#dfdfdf"/></svg>