<svg xmlns="http://www.w3.org/2000/svg" width="24" height="24"><defs><style id="current-color-scheme" type="text/css"></style></defs><path d="M11.505 4c-.01.022-.032.014-.05.016-.238.02-.475.045-.71.088-1.72.313-3.132 1.126-4.225 2.438a6.42 6.42 0 0 0-1.5 3.696c-.052.669-.002 1.63.15 2.284.113.486.283.957.51 1.406.02.038.038.077.059.116a6.851 6.851 0 0 0 2.479 2.65c.97.592 2.02 1.175 3.144 1.292l.246.025c.082.001.393.022.393.102-.004.686-.002 1.115-.002 1.801 0 .027.002.053.004.086 0 0 .274-.125.508-.235a14.538 14.538 0 0 0 3.209-2.114c.218-.19.426-.39.627-.598l.258-.27c.133-.137.247-.29.373-.434.145-.166.276-.342.404-.52.284-.393.537-.803.75-1.236.108-.219.21-.44.3-.665.004-.004.007-.007.009-.012a7.813 7.813 0 0 0 .49-1.914c.03-.229.048-.46.06-.69.026-.495-.006-1.287-.1-1.774a6.582 6.582 0 0 0-1.773-3.403 7.105 7.105 0 0 0-4.295-2.094c-.13-.015-.264-.011-.393-.041h-.925zm-.832 4.989c.208 0 .379.203.312.402.016.038.014.078.014.118v2.567c0 .765-.495 1.48-1.223 1.774l-.055.027-.029.008-.018.008a3.69 3.69 0 0 1-.46.1c-.12.017-.157-.05-.159-.167l-.002-.244.004-.44-.002-.098c0-.112.114-.16.258-.191.183-.041.233-.099.375-.227.171-.154.273-.415.313-.632-.494 0-1.005 0-1.499-.002-.053 0-.106 0-.16-.002-.201-.003-.34-.401-.34-.598l.002-1.99-.002-.024c-.015-.145.028-.264.16-.345a.315.315 0 0 1 .169-.043c.78 0 1.56 0 2.342-.002zm4 0c.208 0 .379.203.312.402.016.038.014.078.014.118v2.567c0 .765-.497 1.48-1.225 1.774-.018.008-.034.018-.052.027l-.03.008-.017.008a3.72 3.72 0 0 1-.463.1c-.12.017-.155-.05-.156-.167-.002-.081-.002-.162-.002-.244l.003-.44-.002-.098c0-.112.112-.16.256-.191.183-.041.233-.099.375-.227.171-.154.274-.415.313-.632-.494 0-1.002 0-1.496-.002-.054 0-.109 0-.162-.002-.202-.003-.34-.401-.34-.598l.002-1.99v-.024c-.016-.145.027-.264.16-.345a.309.309 0 0 1 .166-.043c.78 0 1.563 0 2.344-.002z" fill="currentColor" color="#dfdfdf"/></svg>