<?xml version="1.0" encoding="UTF-8"?>
<svg width="24" height="24" version="1.1" xmlns="http://www.w3.org/2000/svg" xmlns:cc="http://creativecommons.org/ns#" xmlns:dc="http://purl.org/dc/elements/1.1/" xmlns:rdf="http://www.w3.org/1999/02/22-rdf-syntax-ns#">
 <metadata>
  <rdf:RDF>
   <cc:Work rdf:about="">
    <dc:format>image/svg+xml</dc:format>
    <dc:type rdf:resource="http://purl.org/dc/dcmitype/StillImage"/>
    <dc:title/>
   </cc:Work>
  </rdf:RDF>
 </metadata>
 <g transform="translate(1 1.003)" fill="#dfdfdf">
  <path d="M11 2.943c-4.368 0-8 3.329-8 7.5s3.632 7.5 8 7.5a1 1 0 0 0 .002 0c.612 0 1.213-.118 1.809-.25 1.228.809 2.664 1.54 4.367 1.233a1 1 0 0 0 .549-1.67c-.583-.615-.891-1-.91-1.82 1.332-1.367 2.18-3.11 2.183-4.992 0-4.172-3.632-7.5-8-7.5zm0 2c3.363 0 5.999 2.492 6 5.498-.002 1.5-.667 2.939-1.873 3.987a1 1 0 0 0-.342.703c-.032.629.162 1.107.344 1.586-.5-.204-1.006-.495-1.553-.873a1 1 0 0 0-.84-.141 6.46 6.46 0 0 1-1.736.24c-3.364 0-6-2.493-6-5.5 0-3.008 2.636-5.5 6-5.5zm3.016 6.842a.75.75 0 0 0-.467.158c-.905.683-1.74.985-2.551.987-.81.001-1.64-.297-2.543-.985a.75.75 0 1 0-.91 1.194c1.097.835 2.267 1.293 3.457 1.29s2.354-.463 3.449-1.288a.75.75 0 0 0-.436-1.356z" color="#dfdfdf"/>
  <circle cx="11" cy="9" r="2" color="#5294e2"/>
 </g>
</svg>
