<svg xmlns="http://www.w3.org/2000/svg" width="24" height="24"><defs><style id="current-color-scheme" type="text/css"></style></defs><path d="M12 3.946c-4.368 0-8 3.328-8 7.5s3.632 7.5 8 7.5a1 1 0 0 0 .002 0c.612-.001 1.213-.118 1.809-.25 1.228.809 2.664 1.54 4.367 1.232a1 1 0 0 0 .549-1.67c-.583-.615-.891-.998-.91-1.82 1.332-1.366 2.18-3.108 2.183-4.991 0-4.172-3.632-7.5-8-7.5zm0 2c3.363 0 5.999 2.491 6 5.498-.002 1.5-.667 2.938-1.873 3.986a1 1 0 0 0-.342.704c-.032.628.162 1.106.344 1.585-.5-.203-1.006-.494-1.553-.873a1 1 0 0 0-.84-.14 6.5 6.5 0 0 1-1.736.24c-3.364 0-6-2.492-6-5.5 0-3.007 2.636-5.5 6-5.5zm3.016 6.842a.75.75 0 0 0-.467.158c-.905.682-1.74.985-2.551.986-.81.002-1.64-.296-2.543-.984a.75.75 0 1 0-.91 1.193c1.097.836 2.267 1.294 3.457 1.291s2.354-.463 3.449-1.289a.75.75 0 0 0-.436-1.355z" fill="currentColor" color="#dfdfdf"/></svg>