<svg xmlns="http://www.w3.org/2000/svg" width="24" height="24" version="1"><defs><style id="current-color-scheme" type="text/css"></style></defs><path d="M12 4c-.16 0-.317.014-.475.023-.47 1.344-.95 2.717-1.414 4.03.656.024 1.67.123 2.127.715.215.278.197.715.07 1.054-.593 1.665-1.202 3.326-1.792 4.99-.522.008-1.041-.004-1.563 0-.073-.001-.143.012-.213-.015.665-1.826 1.316-3.67 1.969-5.502-.311-.005-.62.006-.932 0-.047.1-.087.212-.123.316-.602 1.69-1.21 3.37-1.808 5.06-.029.044-.02.141-.088.141-.499.002-.997-.003-1.494 0-.09 0-.177.01-.264-.017 1.188-3.29 2.382-7.01 3.572-10.42A7.98 7.98 0 0 0 4 12a7.974 7.974 0 0 0 5.83 7.696c1.305-3.629 2.81-7.72 4.078-11.28.013-.026.023-.093.035-.12v-.002c.837.008 1.695.016 2.532.017.273.006.542-.03.808.053.307.083.59.322.684.635.07.244.017.501-.07.736-.533 1.556-1.083 3.09-1.633 4.639-.138.404-.764.653-1.178.668-.653.013-1.301.004-1.953.017-.542 1.51-1.336 3.332-1.924 4.903A7.982 7.982 0 0 0 20 12c0-4.432-3.568-8-8-8zM9.83 19.695zm-.258-15.32zm.955-.234zm4.988 5.134a.19.19 0 0 0-.078.004v-.002a.127.127 0 0 0-.053.035c-.57 1.597-1.133 3.189-1.705 4.782.314.001.636.021.95 0 .553-1.608 1.126-3.212 1.687-4.815-.24-.006-.479.005-.72 0-.026.004-.054 0-.08-.004zM10.57 19.867z" fill="currentColor" color="#dfdfdf"/></svg>