<svg xmlns="http://www.w3.org/2000/svg" viewBox="0 0 24 24"><path d="M4 2c-1.108 0-2 .892-2 2v16c0 1.108.892 2 2 2h16c1.108 0 2-.892 2-2V4c0-1.108-.892-2-2-2H4zm5 5.637c.4 0 .754.03 1.062.088.317.05.588.109.813.176.225.067.409.138.551.213.15.075.254.129.313.162l-.475 1.287a3.663 3.663 0 0 0-.938-.375 4.094 4.094 0 0 0-1.162-.162c-.892 0-1.576.28-2.051.838-.467.55-.699 1.315-.699 2.299 0 .467.054.895.162 1.287.117.383.283.713.5.988.225.275.499.492.824.65.333.15.72.225 1.162.225.275 0 .513-.009.713-.025.2-.025.358-.055.475-.088v-3.111h1.576v4.162c-.217.083-.583.175-1.1.275-.517.1-1.114.15-1.789.15a4.7 4.7 0 0 1-1.711-.301A3.61 3.61 0 0 1 5.9 15.5a4.029 4.029 0 0 1-.838-1.412c-.2-.558-.299-1.201-.299-1.926 0-.725.108-1.365.324-1.924a4.185 4.185 0 0 1 .912-1.414 3.768 3.768 0 0 1 1.352-.887 4.523 4.523 0 0 1 1.648-.301zm4.508 2.326h1.514v3.424c0 .7.099 1.2.299 1.5.208.3.568.451 1.076.451.183 0 .374-.009.574-.025.208-.017.363-.037.463-.063V9.963h1.512v6.338c-.292.075-.67.15-1.137.225a8.8 8.8 0 0 1-1.537.125c-.525 0-.968-.075-1.326-.225a2.175 2.175 0 0 1-.85-.625 2.516 2.516 0 0 1-.449-.951 5.132 5.132 0 0 1-.139-1.225V9.963z" fill="#ececec"/></svg>