<svg viewBox="0 0 24 24" xmlns="http://www.w3.org/2000/svg"><path d="M4 2c-1.108 0-2 .892-2 2v16c0 1.108.892 2 2 2h16c1.108 0 2-.892 2-2V4c0-1.108-.892-2-2-2H4zm8.736 4.551v3.236c.167-.058.358-.109.574-.15.225-.042.445-.063.662-.063.525 0 .959.077 1.301.227.35.142.63.345.838.611.208.258.354.571.438.938.092.367.137.775.137 1.225v3.676h-1.512v-3.438c0-.35-.026-.645-.076-.887-.042-.25-.116-.452-.225-.602a.821.821 0 0 0-.412-.336 1.653 1.653 0 0 0-.65-.113c-.2 0-.405.021-.613.063-.208.042-.361.08-.461.113v5.199h-1.514V6.801l1.514-.25zM3.5 7.588h6.199V8.75c-.275.3-.608.692-1 1.176-.392.475-.796.996-1.213 1.562a47.768 47.768 0 0 0-1.236 1.736c-.4.592-.754 1.154-1.063 1.688h4.648v1.338H3.286v-.988c.167-.308.358-.642.574-1 .225-.367.463-.742.713-1.125.25-.383.509-.77.775-1.162.275-.392.546-.767.813-1.125.267-.367.525-.712.775-1.037.258-.333.5-.628.725-.887H3.499V7.588zm16.16 6.83h.719v2.676h.488v.619h-.488v1.037h-.736v-1.037h-1.9v-.537c.083-.183.195-.395.332-.633a14.007 14.007 0 0 1 1.012-1.468c.192-.242.383-.46.574-.656zm-.018.932a8.61 8.61 0 0 0-1.157 1.745h1.156v-1.744z" fill="#ececec"/></svg>