<svg xmlns="http://www.w3.org/2000/svg" viewBox="0 0 24 24"><path d="M4 2c-1.108 0-2 .892-2 2v16c0 1.108.892 2 2 2h16c1.108 0 2-.892 2-2V4c0-1.108-.892-2-2-2H4zm10.293 4.863c.25 0 .467.083.65.25.183.167.273.396.273.688 0 .283-.09.507-.273.674a.932.932 0 0 1-.65.25.948.948 0 0 1-.662-.25c-.183-.167-.275-.39-.275-.674 0-.292.092-.521.275-.688a.948.948 0 0 1 .662-.25zm-8.818.725h1.576v3.574c.275-.275.561-.567.861-.875.3-.317.597-.633.889-.949.3-.325.583-.637.85-.938l.725-.813h1.889a92.63 92.63 0 0 1-1.826 2.025c-.325.342-.653.682-.986 1.023-.325.342-.646.668-.963.977.35.267.704.579 1.063.938.367.35.724.728 1.074 1.137.35.4.683.82 1 1.262.325.433.622.867.889 1.301h-1.863a16.339 16.339 0 0 0-1.65-2.114c-.308-.342-.63-.666-.963-.975a9.031 9.031 0 0 0-.986-.799v3.887H5.478V7.587zm8.07 2.125h1.512v6.537h-1.512V9.713zm4.404 4.705h.531v4.332h-.756v-3.318a2.405 2.405 0 0 1-.426.256 4.378 4.378 0 0 1-.492.207l-.232-.576a4.59 4.59 0 0 0 .725-.369c.246-.15.463-.327.65-.531z" fill="#ececec"/></svg>