<svg xmlns="http://www.w3.org/2000/svg" width="24" height="24"><defs><style id="current-color-scheme" type="text/css"></style></defs><path d="M6 4c-1.108 0-2 .892-2 2v12c0 1.108.892 2 2 2h12c1.108 0 2-.892 2-2V6c0-1.108-.892-2-2-2zm4.992 2a1 1 0 0 1 .969.725l1.111 3.892.979-2.933a1 1 0 0 1 1.898 0L17.721 13H19v2h-2a1 1 0 0 1-.95-.684L15 11.164l-1.05 3.152a1 1 0 0 1-1.91-.04l-.868-3.036-1.192 5.955a1 1 0 0 1-1.94.08L6.245 11H5V9h2a1 1 0 0 1 .96.725l.868 3.035 1.192-5.955A1 1 0 0 1 10.992 6z" fill="currentColor" color="#dfdfdf"/></svg>