<svg viewBox="0 0 24 24" xmlns="http://www.w3.org/2000/svg"><path d="M4 2c-1.108 0-2 .892-2 2v16c0 1.108.892 2 2 2h16c1.108 0 2-.892 2-2V4c0-1.108-.892-2-2-2H4zm.289 5.588h1.588v5.262c0 .392.042.73.125 1.014.092.275.217.499.375.674.167.175.36.305.576.389.225.083.475.125.75.125s.525-.042.75-.125a1.43 1.43 0 0 0 .574-.389c.167-.175.292-.399.375-.674.092-.283.137-.622.137-1.014V7.588h1.588V13c0 .5-.071.958-.213 1.375a2.88 2.88 0 0 1-.625 1.088c-.275.308-.629.55-1.063.725-.433.167-.945.25-1.537.25s-1.1-.083-1.525-.25a2.936 2.936 0 0 1-1.063-.725 2.962 2.962 0 0 1-.611-1.088A4.504 4.504 0 0 1 4.289 13V7.588zm11.328 1.986c.1 0 .216.009.35.025.133.008.267.026.4.051.133.017.262.041.387.074.125.025.226.051.301.076l-.264 1.273a4.12 4.12 0 0 0-.525-.125 3.421 3.421 0 0 0-1.299-.023 3.277 3.277 0 0 0-.389.086v5.238h-1.512v-6.225a7.961 7.961 0 0 1 1.088-.301c.442-.1.93-.15 1.463-.15zm3.084 4.744c.242 0 .45.03.625.088.175.058.319.142.432.25a.922.922 0 0 1 .256.375c.058.142.088.298.088.469a.9.9 0 0 1-.168.537c-.108.158-.251.28-.426.363.225.079.411.209.557.393.15.183.225.42.225.707 0 .192-.033.37-.1.537a1.134 1.134 0 0 1-.307.426c-.137.117-.313.21-.525.281-.208.067-.458.1-.75.1-.113 0-.229-.009-.35-.025a2.738 2.738 0 0 1-.338-.057 3.708 3.708 0 0 1-.287-.068 1.3 1.3 0 0 1-.199-.08l.15-.645c.087.042.214.09.381.145.167.05.373.074.619.074.329 0 .565-.063.711-.188a.649.649 0 0 0 .219-.512.634.634 0 0 0-.086-.344.584.584 0 0 0-.232-.219.94.94 0 0 0-.338-.119 2.023 2.023 0 0 0-.398-.037h-.258v-.613h.313c.096 0 .193-.009.289-.025a.902.902 0 0 0 .268-.1.613.613 0 0 0 .193-.193.567.567 0 0 0 .076-.307c0-.1-.019-.185-.057-.256a.553.553 0 0 0-.355-.276.973.973 0 0 0-.25-.031c-.188 0-.354.03-.5.088a2.1 2.1 0 0 0-.389.188l-.275-.563a2.522 2.522 0 0 1 .488-.238c.104-.037.215-.067.332-.088.117-.025.238-.037.367-.037z" fill="#ececec"/></svg>