<svg viewBox="0 0 24 24" xmlns="http://www.w3.org/2000/svg"><path d="M4 2c-1.108 0-2 .892-2 2v16c0 1.108.892 2 2 2h16c1.108 0 2-.892 2-2V4c0-1.108-.892-2-2-2H4zm2.574 5.588h1.574v8.662H6.574V7.588zm5.688 1.963c.383 0 .75.036 1.1.111.35.067.612.135.787.201l-.275 1.225a3.367 3.367 0 0 0-.637-.201 3.608 3.608 0 0 0-.9-.1c-.308 0-.558.054-.75.162a.502.502 0 0 0-.287.477c0 .108.015.204.049.287.042.083.11.161.201.236.092.067.211.138.361.213.15.067.334.138.551.213.358.133.662.267.912.4.25.125.455.271.613.438.167.158.286.34.361.549.075.208.113.458.113.75 0 .625-.233 1.101-.699 1.426-.458.317-1.118.475-1.977.475-.575 0-1.037-.05-1.387-.15a6.479 6.479 0 0 1-.738-.225l.264-1.262c.225.092.49.178.799.262.317.083.676.125 1.076.125s.692-.045.875-.137c.183-.1.275-.267.275-.5 0-.217-.101-.395-.301-.537-.192-.142-.513-.296-.963-.463a9.458 9.458 0 0 1-.762-.313 2.823 2.823 0 0 1-.588-.4c-.167-.15-.3-.329-.4-.537a2.013 2.013 0 0 1-.137-.787c0-.6.22-1.072.662-1.414.442-.35 1.042-.523 1.801-.523zm4.588 4.867h.531v4.332h-.758v-3.318a2.381 2.381 0 0 1-.424.256 4.402 4.402 0 0 1-.494.207l-.23-.576a4.59 4.59 0 0 0 .725-.369c.246-.15.463-.327.65-.531z" fill="#ececec"/></svg>