<svg xmlns="http://www.w3.org/2000/svg" viewBox="0 0 24 24"><path d="M4 2c-1.108 0-2 .892-2 2v16c0 1.108.892 2 2 2h16c1.108 0 2-.892 2-2V4c0-1.108-.892-2-2-2H4zm.742 5.588h5.563v1.338H6.319v2.137h3.549v1.313H6.319v2.537h4.287v1.338H4.743V7.589zm9.35 1.963c.383 0 .75.036 1.1.111.35.067.614.135.789.201l-.275 1.225a3.392 3.392 0 0 0-.639-.201 3.592 3.592 0 0 0-.898-.1c-.308 0-.558.054-.75.162a.503.503 0 0 0-.289.477c0 .108.017.204.051.287a.75.75 0 0 0 .199.236c.092.067.213.138.363.213.15.067.334.138.551.213.358.133.662.267.912.4.25.125.453.271.611.438.167.158.288.34.363.549.075.208.113.458.113.75 0 .625-.235 1.101-.701 1.426-.458.317-1.116.475-1.975.475-.575 0-1.037-.05-1.387-.15a6.479 6.479 0 0 1-.738-.225l.262-1.262c.225.092.492.178.801.262a4.24 4.24 0 0 0 1.074.125c.4 0 .692-.045.875-.137.183-.1.275-.267.275-.5 0-.217-.099-.395-.299-.537-.192-.142-.513-.296-.963-.463-.275-.1-.53-.204-.764-.313a2.807 2.807 0 0 1-.586-.4c-.167-.15-.3-.329-.4-.537a2.011 2.011 0 0 1-.139-.787c0-.6.222-1.072.664-1.414.442-.35 1.04-.523 1.799-.523zm4.307 4.768c.462 0 .803.111 1.02.332.221.217.33.513.33.893 0 .15-.031.299-.094.445a2.29 2.29 0 0 1-.242.418 3.68 3.68 0 0 1-.332.395c-.125.125-.25.246-.375.367a6.134 6.134 0 0 0-.225.227 6.334 6.334 0 0 0-.238.262 2.385 2.385 0 0 0-.193.256.446.446 0 0 0-.088.201h1.926v.637h-2.756a.97.97 0 0 1-.008-.119v-.111c0-.2.031-.384.094-.551a2.2 2.2 0 0 1 .258-.475c.104-.146.22-.283.35-.412.129-.129.258-.258.387-.383.1-.096.195-.19.287-.281a2.55 2.55 0 0 0 .238-.268c.071-.092.126-.184.168-.275a.722.722 0 0 0 .063-.293c0-.217-.063-.371-.188-.463a.746.746 0 0 0-.455-.139c-.117 0-.226.017-.326.051-.1.033-.188.073-.268.119a1.547 1.547 0 0 0-.201.143 1.611 1.611 0 0 0-.131.113l-.375-.531c.175-.167.38-.3.613-.4.238-.104.491-.156.762-.156z" fill="#ececec"/></svg>