<svg viewBox="0 0 24 24" xmlns="http://www.w3.org/2000/svg"><path d="M4 2c-1.108 0-2 .892-2 2v16c0 1.108.892 2 2 2h16c1.108 0 2-.892 2-2V4c0-1.108-.892-2-2-2H4zm-.783 5.588h1.287c.333.35.691.767 1.074 1.25.383.475.767.97 1.15 1.486.392.517.767 1.037 1.125 1.563.367.517.691 1 .975 1.451v-5.75h1.563v8.662H9.055a49.034 49.034 0 0 0-.951-1.525c-.35-.55-.713-1.1-1.088-1.65a34.877 34.877 0 0 0-1.148-1.611 26.405 26.405 0 0 0-1.102-1.412v6.199H3.217V7.589zm11.252 1.963c.458 0 .88.083 1.264.25.392.158.725.387 1 .688.275.3.487.661.637 1.086.158.417.238.884.238 1.4 0 .517-.077.987-.227 1.412-.15.425-.362.788-.637 1.088-.275.3-.608.535-1 .701a3.16 3.16 0 0 1-1.275.25c-.467 0-.892-.083-1.275-.25a2.885 2.885 0 0 1-.986-.701 3.282 3.282 0 0 1-.65-1.088 4.216 4.216 0 0 1-.225-1.412c0-.517.075-.984.225-1.4.158-.425.375-.786.65-1.086.283-.3.617-.529 1-.688.383-.167.803-.25 1.262-.25zm0 1.313c-.5 0-.89.191-1.174.574-.275.375-.414.887-.414 1.537 0 .658.139 1.179.414 1.563.283.383.674.576 1.174.576.5 0 .887-.193 1.162-.576.283-.383.426-.904.426-1.563 0-.65-.142-1.162-.426-1.537-.275-.383-.662-.574-1.162-.574zm5.984 3.531l.043.625a2.99 2.99 0 0 0-.631.074 1.74 1.74 0 0 0-.525.199 1.432 1.432 0 0 0-.4.357 1.608 1.608 0 0 0-.25.537c.204-.096.428-.145.67-.145.258 0 .477.038.656.113.183.071.331.168.443.293.113.125.194.271.244.438a1.55 1.55 0 0 1-.008 1.014 1.338 1.338 0 0 1-.262.469 1.438 1.438 0 0 1-.443.344 1.451 1.451 0 0 1-.639.131c-.496 0-.874-.163-1.137-.488-.258-.329-.387-.78-.387-1.355 0-.417.059-.785.18-1.105.125-.325.3-.599.525-.82.229-.221.505-.387.826-.5.325-.117.69-.176 1.094-.18zm-1.188 2.25c-.121 0-.239.01-.352.031a1.297 1.297 0 0 0-.305.094l-.014.111v.113c0 .167.01.325.031.475.025.146.065.274.119.387a.755.755 0 0 0 .23.264c.1.063.223.094.369.094a.59.59 0 0 0 .307-.076.639.639 0 0 0 .213-.193.842.842 0 0 0 .119-.256c.025-.096.037-.188.037-.275 0-.25-.061-.439-.182-.568-.121-.133-.312-.199-.574-.199z" fill="#ececec"/></svg>