<svg xmlns="http://www.w3.org/2000/svg" viewBox="0 0 24 24"><path d="M4 2c-1.108 0-2 .892-2 2v16c0 1.108.892 2 2 2h16c1.108 0 2-.892 2-2V4c0-1.108-.892-2-2-2H4zm2.818 5.588h1.574v8.662H6.818V7.588zm5.02.15v1.975h2.326v1.262h-2.326v2.662c0 .525.083.9.25 1.125.167.225.452.338.852.338.275 0 .516-.03.725-.088.217-.058.387-.112.512-.162l.25 1.201c-.175.075-.404.15-.688.225a3.575 3.575 0 0 1-1 .125c-.467 0-.857-.063-1.174-.188a1.755 1.755 0 0 1-.738-.537 2.22 2.22 0 0 1-.387-.863 5.444 5.444 0 0 1-.113-1.162V7.989l1.512-.25zm4.395 6.58c.242 0 .45.03.625.088.175.058.319.142.432.25a.922.922 0 0 1 .256.375c.058.142.088.298.088.469a.9.9 0 0 1-.17.537c-.108.158-.249.28-.424.363.225.079.409.209.555.393.15.183.227.42.227.707 0 .192-.035.37-.102.537a1.129 1.129 0 0 1-.305.426c-.137.117-.313.21-.525.281-.208.067-.458.1-.75.1-.113 0-.229-.009-.35-.025a2.738 2.738 0 0 1-.338-.057 3.708 3.708 0 0 1-.287-.068 1.297 1.297 0 0 1-.201-.08l.15-.645c.088.042.214.09.381.145.167.05.373.074.619.074.329 0 .567-.063.713-.188a.649.649 0 0 0 .219-.512.634.634 0 0 0-.088-.344.578.578 0 0 0-.23-.219.94.94 0 0 0-.338-.119 2.044 2.044 0 0 0-.4-.037h-.256v-.613h.313c.096 0 .191-.009.287-.025.1-.021.19-.054.27-.1a.613.613 0 0 0 .193-.193.568.568 0 0 0 .074-.307.518.518 0 0 0-.205-.432.562.562 0 0 0-.207-.1.973.973 0 0 0-.25-.031c-.188 0-.354.03-.5.088a2.08 2.08 0 0 0-.387.188l-.275-.563a2.598 2.598 0 0 1 .486-.238c.104-.037.215-.067.332-.088.117-.025.24-.037.369-.037z" fill="#ececec"/></svg>