<svg viewBox="0 0 24 24" xmlns="http://www.w3.org/2000/svg"><path d="M4 2c-1.108 0-2 .892-2 2v16c0 1.108.892 2 2 2h16c1.108 0 2-.892 2-2V4c0-1.108-.892-2-2-2H4zm2.574 5.588h1.574v8.662H6.574V7.588zm5.688 1.963c.383 0 .75.036 1.1.111.35.067.612.135.787.201l-.275 1.225a3.367 3.367 0 0 0-.637-.201 3.608 3.608 0 0 0-.9-.1c-.308 0-.558.054-.75.162a.502.502 0 0 0-.287.477c0 .108.015.204.049.287.042.083.11.161.201.236.092.067.211.138.361.213.15.067.334.138.551.213.358.133.662.267.912.4.25.125.455.271.613.438.167.158.286.34.361.549.075.208.113.458.113.75 0 .625-.233 1.101-.699 1.426-.458.317-1.118.475-1.977.475-.575 0-1.037-.05-1.387-.15a6.479 6.479 0 0 1-.738-.225l.264-1.262c.225.092.49.178.799.262.317.083.676.125 1.076.125s.692-.045.875-.137c.183-.1.275-.267.275-.5 0-.217-.101-.395-.301-.537-.192-.142-.513-.296-.963-.463a9.458 9.458 0 0 1-.762-.313 2.823 2.823 0 0 1-.588-.4c-.167-.15-.3-.329-.4-.537a2.013 2.013 0 0 1-.137-.787c0-.6.22-1.072.662-1.414.442-.35 1.042-.523 1.801-.523zm4.219 4.768c.242 0 .45.03.625.088.175.058.319.142.432.25a.922.922 0 0 1 .256.375c.058.142.088.298.088.469a.9.9 0 0 1-.17.537c-.108.158-.249.28-.424.363.225.079.409.209.555.393.15.183.227.42.227.707 0 .192-.035.37-.102.537a1.129 1.129 0 0 1-.305.426c-.137.117-.313.21-.525.281-.208.067-.458.1-.75.1-.113 0-.229-.009-.35-.025a2.738 2.738 0 0 1-.338-.057 3.708 3.708 0 0 1-.287-.068 1.297 1.297 0 0 1-.201-.08l.15-.645c.088.042.214.09.381.145.167.05.373.074.619.074.329 0 .567-.063.713-.188a.649.649 0 0 0 .219-.512.634.634 0 0 0-.088-.344.578.578 0 0 0-.23-.219.94.94 0 0 0-.338-.119 2.044 2.044 0 0 0-.4-.037h-.256v-.613h.312c.096 0 .191-.009.287-.025.1-.021.19-.054.27-.1a.613.613 0 0 0 .193-.193.568.568 0 0 0 .074-.307.518.518 0 0 0-.205-.432.562.562 0 0 0-.207-.1.973.973 0 0 0-.25-.031c-.188 0-.354.03-.5.088a2.08 2.08 0 0 0-.387.188l-.275-.563a2.598 2.598 0 0 1 .486-.238c.104-.037.215-.067.332-.088.117-.025.24-.037.369-.037z" fill="#ececec"/></svg>