<svg xmlns="http://www.w3.org/2000/svg" viewBox="0 0 24 24"><path d="M4 2c-1.108 0-2 .892-2 2v16c0 1.108.892 2 2 2h16c1.108 0 2-.892 2-2V4c0-1.108-.892-2-2-2H4zm.271 5.838h1.461c.183.317.388.704.613 1.162.225.458.454.941.688 1.449.233.5.463 1.014.688 1.539.233.517.445.996.637 1.438l.625-1.438c.225-.525.454-1.039.688-1.539.233-.508.463-.991.688-1.449.225-.458.43-.845.613-1.162h1.426c.075.633.144 1.309.211 2.025.067.708.126 1.437.176 2.187.058.742.109 1.492.15 2.25.05.75.092 1.483.125 2.199h-1.551c-.033-1.01-.075-2.047-.125-3.113a60.467 60.467 0 0 0-.199-3.1 50.1 50.1 0 0 0-.724 1.563c-.142.308-.287.63-.438.963-.142.333-.284.658-.426.975l-.375.875-.301.688H7.747c-.083-.192-.184-.424-.301-.699a32.037 32.037 0 0 0-.387-.875 43.012 43.012 0 0 0-.426-.975 36.626 36.626 0 0 0-.424-.963c-.142-.308-.275-.597-.4-.863a23.233 23.233 0 0 0-.326-.688 69.27 69.27 0 0 0-.211 3.1c-.042 1.067-.08 2.105-.113 3.113H3.608c.033-.717.072-1.458.113-2.225L3.871 12c.058-.758.121-1.491.187-2.199.067-.708.138-1.363.213-1.963zm13.246 1.986c.533 0 .98.077 1.338.227.358.142.641.345.85.611.217.258.366.576.449.951.092.367.139.769.139 1.211V16.5h-1.514v-3.438c0-.35-.024-.645-.074-.887-.042-.25-.116-.452-.225-.602a.818.818 0 0 0-.426-.336 1.653 1.653 0 0 0-.65-.113 5.04 5.04 0 0 0-.6.037c-.208.025-.363.046-.463.063v5.275h-1.512v-6.324a10.181 10.181 0 0 1 2.688-.351z" fill="#ececec"/></svg>