<svg viewBox="0 0 24 24" xmlns="http://www.w3.org/2000/svg"><path d="M4 2c-1.108 0-2 .892-2 2v16c0 1.108.892 2 2 2h16c1.108 0 2-.892 2-2V4c0-1.108-.892-2-2-2H4zm1.994 5.5c1.25 0 2.205.229 2.863.688.667.458 1 1.158 1 2.1 0 1.175-.58 1.972-1.738 2.389.158.192.339.424.539.699.2.275.403.575.611.9.208.317.408.645.6.986.192.333.364.663.514.988H8.619c-.158-.3-.328-.6-.512-.9a17.984 17.984 0 0 0-.563-.887 13.178 13.178 0 0 0-.551-.813 15.905 15.905 0 0 0-.512-.688 4.499 4.499 0 0 1-.301.012h-1v3.275H3.606V7.712a7.936 7.936 0 0 1 1.225-.162c.433-.033.82-.051 1.162-.051zm.113 1.363c-.333 0-.642.012-.926.037v2.799h.688c.383 0 .722-.021 1.014-.063.292-.042.533-.116.725-.225.2-.108.349-.254.449-.438.1-.183.15-.416.15-.699 0-.267-.05-.492-.15-.676a1.111 1.111 0 0 0-.438-.438 1.892 1.892 0 0 0-.662-.225 4.477 4.477 0 0 0-.85-.074zm5.357.85h1.514v3.424c0 .7.099 1.2.299 1.5.208.3.568.451 1.076.451.183 0 .374-.009.574-.025.208-.017.363-.037.463-.063V9.713h1.512v6.338c-.292.075-.67.15-1.137.225a8.8 8.8 0 0 1-1.537.125c-.525 0-.968-.075-1.326-.225a2.175 2.175 0 0 1-.85-.625 2.516 2.516 0 0 1-.449-.951 5.132 5.132 0 0 1-.139-1.225V9.713zm8.07 4.605c.462 0 .803.111 1.02.332.221.217.332.513.332.893 0 .15-.031.299-.094.445-.063.142-.144.28-.244.418a3.68 3.68 0 0 1-.332.395c-.125.125-.25.246-.375.367a6.134 6.134 0 0 0-.225.227 6.334 6.334 0 0 0-.238.262 2.385 2.385 0 0 0-.193.256.446.446 0 0 0-.088.201h1.926v.637h-2.756a1.012 1.012 0 0 1-.006-.119v-.111c0-.2.031-.384.094-.551.067-.171.152-.329.256-.475.104-.146.22-.283.35-.412a34.758 34.758 0 0 1 .676-.664c.092-.092.17-.18.236-.268.071-.092.128-.184.17-.275a.722.722 0 0 0 .063-.293c0-.217-.063-.371-.188-.463a.752.752 0 0 0-.457-.139.996.996 0 0 0-.324.051c-.1.033-.19.073-.27.119a1.52 1.52 0 0 0-.199.143 1.71 1.71 0 0 0-.133.113l-.375-.531c.175-.167.38-.3.613-.4.238-.104.491-.156.762-.156z" fill="#ececec"/></svg>