<svg xmlns="http://www.w3.org/2000/svg" viewBox="0 0 24 24"><path d="M4 2c-1.108 0-2 .892-2 2v16c0 1.108.892 2 2 2h16c1.108 0 2-.892 2-2V4c0-1.108-.892-2-2-2H4zm3.545 5.838h1.574V16.5H7.545V7.838zm6.461 1.986c.492 0 .959.038 1.4.113.442.075.817.155 1.125.238v5.662c0 1.042-.267 1.804-.801 2.287-.525.483-1.332.725-2.424.725a6.83 6.83 0 0 1-2.201-.362l.275-1.289c.258.108.55.197.875.264.333.067.693.1 1.076.1.608 0 1.04-.125 1.299-.375.258-.25.389-.622.389-1.113v-.25a3.87 3.87 0 0 1-.602.227 2.822 2.822 0 0 1-.836.111c-.417 0-.8-.066-1.15-.199a2.472 2.472 0 0 1-.889-.588 2.803 2.803 0 0 1-.574-.963 4.192 4.192 0 0 1-.199-1.35c0-.475.069-.912.211-1.313.15-.4.364-.742.639-1.025a2.976 2.976 0 0 1 1.025-.662c.4-.158.853-.238 1.361-.238zm.014 1.264c-.55 0-.972.182-1.264.549-.292.358-.438.834-.438 1.426 0 .642.137 1.112.412 1.412.283.292.646.438 1.088.438.242 0 .467-.033.676-.1.217-.067.392-.147.525-.238v-3.387a3.46 3.46 0 0 0-.4-.063 3.962 3.962 0 0 0-.6-.037z" fill="#ececec"/></svg>