<svg viewBox="0 0 24 24" xmlns="http://www.w3.org/2000/svg"><path d="M4 2c-1.108 0-2 .892-2 2v16c0 1.108.892 2 2 2h16c1.108 0 2-.892 2-2V4c0-1.108-.892-2-2-2H4zm-.881 5.588h1.574v3.463h3.764V7.588h1.574v8.662H8.457v-3.838H4.693v3.838H3.119V7.588zm8.834 2.125h1.514v3.424c0 .7.099 1.2.299 1.5.208.3.568.451 1.076.451.183 0 .374-.009.574-.025.208-.017.363-.037.463-.063V9.713h1.512v6.338c-.292.075-.67.15-1.137.225a8.8 8.8 0 0 1-1.537.125c-.525 0-.968-.075-1.326-.225a2.175 2.175 0 0 1-.85-.625 2.516 2.516 0 0 1-.449-.951 5.132 5.132 0 0 1-.139-1.225V9.713zm9.363 4.682l.043.625a2.99 2.99 0 0 0-.631.074 1.74 1.74 0 0 0-.525.199 1.432 1.432 0 0 0-.4.357 1.608 1.608 0 0 0-.25.537c.204-.096.428-.145.67-.145.258 0 .477.038.656.113.183.071.331.168.443.293.113.125.194.271.244.438.054.163.08.335.08.514 0 .163-.028.329-.086.5a1.343 1.343 0 0 1-.264.469 1.438 1.438 0 0 1-.443.344 1.442 1.442 0 0 1-.637.131c-.496 0-.876-.163-1.139-.488-.258-.329-.387-.78-.387-1.355 0-.417.061-.785.182-1.105.125-.325.298-.599.523-.82.229-.221.505-.387.826-.5.325-.117.69-.176 1.094-.18zm-1.188 2.25c-.121 0-.237.01-.35.031a1.314 1.314 0 0 0-.307.094l-.014.111v.113c0 .167.01.325.031.475.025.146.065.274.119.387a.76.76 0 0 0 .232.264c.1.063.221.094.367.094a.59.59 0 0 0 .307-.076.639.639 0 0 0 .213-.193.842.842 0 0 0 .119-.256c.025-.096.037-.188.037-.275 0-.25-.061-.439-.182-.568-.121-.133-.312-.199-.574-.199z" fill="#ececec"/></svg>