<svg xmlns="http://www.w3.org/2000/svg" viewBox="0 0 24 24"><path d="M4 2c-1.108 0-2 .892-2 2v16c0 1.108.892 2 2 2h16c1.108 0 2-.892 2-2V4c0-1.108-.892-2-2-2H4zm-.455 5.588h1.461c.183.317.388.704.613 1.162.225.458.454.941.688 1.449.233.5.463 1.014.688 1.539.233.517.445.996.637 1.438l.625-1.438c.225-.525.454-1.039.688-1.539.233-.508.463-.991.688-1.449.225-.458.43-.845.613-1.162h1.426c.075.633.144 1.309.211 2.025.067.708.126 1.437.176 2.187.058.742.109 1.492.15 2.25.05.75.092 1.483.125 2.199h-1.551c-.033-1.01-.075-2.047-.125-3.113a60.467 60.467 0 0 0-.199-3.1 50.1 50.1 0 0 0-.724 1.563c-.142.308-.287.63-.438.963-.142.333-.284.658-.426.975l-.375.875-.301.688H7.021c-.083-.192-.184-.424-.301-.699a32.037 32.037 0 0 0-.387-.875 43.012 43.012 0 0 0-.426-.975 36.626 36.626 0 0 0-.424-.963c-.142-.308-.275-.597-.4-.863a23.233 23.233 0 0 0-.326-.688 69.27 69.27 0 0 0-.211 3.1c-.042 1.067-.08 2.105-.113 3.113H2.882c.033-.717.072-1.458.113-2.225l.15-2.275c.058-.758.121-1.491.188-2.199.067-.708.138-1.363.213-1.963zm11.996.15v1.975h2.326v1.262h-2.326v2.662c0 .525.083.9.25 1.125.167.225.45.338.85.338.275 0 .518-.03.727-.088.217-.058.387-.112.512-.162l.25 1.201c-.175.075-.404.15-.688.225a3.575 3.575 0 0 1-1 .125c-.467 0-.859-.063-1.176-.188a1.748 1.748 0 0 1-.736-.537 2.222 2.222 0 0 1-.389-.863 5.452 5.452 0 0 1-.111-1.162V7.989l1.512-.25zm4.48 6.58c.462 0 .803.111 1.02.332.221.217.332.513.332.893 0 .15-.031.299-.094.445-.063.142-.144.28-.244.418a3.68 3.68 0 0 1-.332.395c-.125.125-.25.246-.375.367a6.134 6.134 0 0 0-.225.227 6.334 6.334 0 0 0-.238.262 2.385 2.385 0 0 0-.193.256.446.446 0 0 0-.088.201h1.926v.637h-2.756a1.012 1.012 0 0 1-.006-.119v-.111c0-.2.031-.384.094-.551.067-.171.152-.329.256-.475.104-.146.22-.283.35-.412a34.758 34.758 0 0 1 .676-.664c.092-.092.17-.18.236-.268.071-.092.128-.184.17-.275a.722.722 0 0 0 .063-.293c0-.217-.063-.371-.188-.463a.752.752 0 0 0-.457-.139.996.996 0 0 0-.324.051c-.1.033-.19.073-.27.119a1.52 1.52 0 0 0-.199.143 1.71 1.71 0 0 0-.133.113l-.375-.531c.175-.167.38-.3.613-.4.238-.104.491-.156.762-.156z" fill="#ececec"/></svg>