<svg xmlns="http://www.w3.org/2000/svg" viewBox="0 0 24 24"><path d="M4 2c-1.108 0-2 .892-2 2v16c0 1.108.892 2 2 2h16c1.108 0 2-.892 2-2V4c0-1.108-.892-2-2-2H4zm-.063 5.588H9.5v1.338H5.512v2.137h3.551v1.313H5.512v2.537h4.287v1.338H3.938V7.589zm9.936 1.986c.533 0 .98.077 1.338.227.358.142.641.345.85.611.217.258.368.576.451.951.092.367.137.769.137 1.211v3.676h-1.512v-3.438c0-.35-.026-.645-.076-.887-.042-.25-.116-.452-.225-.602a.813.813 0 0 0-.424-.336 1.653 1.653 0 0 0-.65-.113 5.04 5.04 0 0 0-.6.037c-.208.025-.363.046-.463.063v5.275h-1.514V9.925a10.23 10.23 0 0 1 2.688-.351zm5.449 4.744c.246 0 .454.037.625.107.175.071.317.161.426.273.113.113.194.238.244.375.05.137.074.271.074.4 0 .229-.063.434-.188.613a1.569 1.569 0 0 1-.432.418c.246.133.428.288.545.463.121.175.182.382.182.619 0 .179-.031.346-.094.5a1.078 1.078 0 0 1-.281.4 1.305 1.305 0 0 1-.469.262 1.968 1.968 0 0 1-.639.094 1.82 1.82 0 0 1-.705-.119 1.278 1.278 0 0 1-.451-.299 1.137 1.137 0 0 1-.244-.389 1.297 1.297 0 0 1-.068-.4c0-.125.017-.24.051-.344a1.19 1.19 0 0 1 .15-.293c.063-.092.132-.175.211-.25.079-.075.163-.141.25-.199a1.492 1.492 0 0 1-.43-.432 1.13 1.13 0 0 1-.139-.576 1.149 1.149 0 0 1 .375-.856 1.36 1.36 0 0 1 .438-.27c.171-.067.36-.1.568-.1zm0 .619a.696.696 0 0 0-.293.057.498.498 0 0 0-.193.137.55.55 0 0 0-.15.37c0 .158.059.308.176.449.121.142.32.255.6.338.154-.096.274-.203.361-.324a.813.813 0 0 0 .133-.475.485.485 0 0 0-.039-.176.446.446 0 0 0-.111-.182.63.63 0 0 0-.482-.194zm-.23 1.855a1.21 1.21 0 0 0-.363.352.822.822 0 0 0-.137.48c0 .063.012.128.037.199a.52.52 0 0 0 .125.195.74.74 0 0 0 .225.148.903.903 0 0 0 .344.057.94.94 0 0 0 .326-.049.658.658 0 0 0 .225-.133.596.596 0 0 0 .176-.418.653.653 0 0 0-.07-.307.654.654 0 0 0-.199-.225 1.14 1.14 0 0 0-.301-.168 2.866 2.866 0 0 0-.387-.133z" fill="#ececec"/></svg>