<svg viewBox="0 0 24 24" xmlns="http://www.w3.org/2000/svg"><path d="M4 2c-1.108 0-2 .892-2 2v16c0 1.108.892 2 2 2h16c1.108 0 2-.892 2-2V4c0-1.108-.892-2-2-2H4zm.914 5.588h1.574v7.299h3.9v1.363H4.913V7.588zm5.252 2.125h1.613c.092.367.196.763.313 1.188.125.417.253.837.387 1.262.142.417.284.825.426 1.225.15.392.287.746.412 1.063.125-.317.259-.671.4-1.063.142-.4.279-.808.412-1.225.142-.425.275-.845.4-1.262.125-.425.233-.821.324-1.188h1.563a37.04 37.04 0 0 1-1.199 3.588 41.044 41.044 0 0 1-1.275 2.949h-1.299a44.588 44.588 0 0 1-1.289-2.949 39.707 39.707 0 0 1-1.188-3.588zm7.199 4.705h2.213v.639H18.01a6.088 6.088 0 0 1-.02.244 5.135 5.135 0 0 1-.02.268 4.218 4.218 0 0 1-.043.475c.617.033 1.072.176 1.363.426.296.246.443.583.443 1.012 0 .196-.033.378-.1.545a1.124 1.124 0 0 1-.307.432 1.508 1.508 0 0 1-.52.287c-.208.067-.451.1-.73.1-.113 0-.227-.009-.344-.025a4.143 4.143 0 0 1-.338-.063 3.15 3.15 0 0 1-.281-.068 1.41 1.41 0 0 1-.188-.068l.145-.639c.087.042.212.089.375.139.167.046.368.068.605.068.163 0 .301-.017.418-.051a.792.792 0 0 0 .281-.148.567.567 0 0 0 .164-.213.808.808 0 0 0-.031-.631.666.666 0 0 0-.289-.275 1.68 1.68 0 0 0-.543-.17 5.315 5.315 0 0 0-.855-.055c.046-.4.08-.78.105-1.139.025-.363.046-.725.063-1.088z" fill="#ececec"/></svg>