<svg xmlns="http://www.w3.org/2000/svg" viewBox="0 0 24 24"><path d="M4 2c-1.108 0-2 .892-2 2v16c0 1.108.892 2 2 2h16c1.108 0 2-.892 2-2V4c0-1.108-.892-2-2-2H4zm3.531 5.588h1.588v5.813c0 .425-.047.821-.139 1.188a2.349 2.349 0 0 1-.486.963c-.225.275-.534.49-.926.648-.383.158-.871.238-1.463.238-.55 0-1.029-.075-1.438-.225-.4-.158-.707-.325-.924-.5l.563-1.238c.208.142.462.279.762.412.308.125.621.188.938.188.533 0 .92-.132 1.162-.398.242-.267.363-.725.363-1.375V7.589zm5.709 1.963c.5 0 .92.063 1.262.188.342.125.613.298.813.523.208.225.354.501.438.826.092.317.137.665.137 1.049V16.1c-.233.05-.588.109-1.063.176a10.07 10.07 0 0 1-1.586.111c-.392 0-.751-.036-1.076-.111a2.334 2.334 0 0 1-.838-.363 1.793 1.793 0 0 1-.537-.65c-.125-.267-.188-.595-.188-.986 0-.375.071-.693.213-.951.15-.258.35-.467.6-.625.25-.167.538-.283.863-.35a4.708 4.708 0 0 1 1.037-.111c.167 0 .342.012.525.037.183.017.38.05.588.1v-.25a1.94 1.94 0 0 0-.063-.5.955.955 0 0 0-.227-.412.944.944 0 0 0-.412-.287 1.72 1.72 0 0 0-.637-.102c-.35 0-.671.026-.963.076-.292.05-.53.107-.713.174l-.188-1.225a5.85 5.85 0 0 1 .838-.199c.367-.067.759-.1 1.176-.1zm.299 3.773c-.167 0-.337.014-.512.039-.167.025-.321.07-.463.137a.83.83 0 0 0-.324.287.763.763 0 0 0-.125.451c0 .358.111.608.336.75.225.133.531.199.914.199.467 0 .821-.024 1.063-.074v-1.676a2.99 2.99 0 0 0-.363-.074 3.373 3.373 0 0 0-.525-.039zm4.02 1.094h2.213v.639h-1.568a6.088 6.088 0 0 1-.02.244 5.135 5.135 0 0 1-.02.268 4.218 4.218 0 0 1-.043.475c.617.033 1.072.176 1.363.426.296.246.443.583.443 1.012 0 .196-.033.378-.1.545a1.124 1.124 0 0 1-.307.432 1.517 1.517 0 0 1-.52.287c-.208.067-.451.1-.73.1-.113 0-.227-.009-.344-.025a4.143 4.143 0 0 1-.338-.063 3.15 3.15 0 0 1-.281-.068 1.41 1.41 0 0 1-.188-.068l.145-.639c.087.042.212.089.375.139.167.046.368.068.605.068.163 0 .301-.017.418-.051a.792.792 0 0 0 .281-.148.567.567 0 0 0 .164-.213.808.808 0 0 0-.031-.631.666.666 0 0 0-.289-.275 1.68 1.68 0 0 0-.543-.17 5.315 5.315 0 0 0-.855-.055c.046-.4.08-.78.105-1.139.025-.363.046-.725.063-1.088z" fill="#ececec"/></svg>