<svg viewBox="0 0 24 24" xmlns="http://www.w3.org/2000/svg"><path d="M4 2c-1.108 0-2 .892-2 2v16c0 1.108.892 2 2 2h16c1.108 0 2-.892 2-2V4c0-1.108-.892-2-2-2H4zm2.961 5.588h1.488a63.958 63.958 0 0 1 1.676 3.875c.283.7.57 1.441.861 2.225.3.783.613 1.637.938 2.563h-1.699a37.66 37.66 0 0 0-.363-1.012 27.847 27.847 0 0 1-.361-1.025h-3.65c-.117.35-.238.695-.363 1.037l-.35 1H3.501a137.543 137.543 0 0 1 1.774-4.788c.283-.7.563-1.367.838-2s.558-1.258.85-1.875zm.713 1.674c-.192.442-.412.98-.662 1.613-.242.633-.495 1.321-.762 2.063H9.1a84.01 84.01 0 0 0-.775-2.074 50.599 50.599 0 0 0-.65-1.602zm7.82.313c.1 0 .216.009.35.025.133.008.267.026.4.051.133.017.262.041.387.074.125.025.226.051.301.076l-.262 1.273a4.12 4.12 0 0 0-.525-.125 3.44 3.44 0 0 0-1.301-.023 3.22 3.22 0 0 0-.387.086v5.238h-1.514v-6.225a7.961 7.961 0 0 1 1.088-.301c.442-.1.93-.15 1.463-.15zm2.311 4.844h2.213v.639H18.45a6.088 6.088 0 0 1-.02.244 5.135 5.135 0 0 1-.02.268 4.218 4.218 0 0 1-.043.475c.617.033 1.072.176 1.363.426.296.246.443.583.443 1.012 0 .196-.033.378-.1.545a1.124 1.124 0 0 1-.307.432 1.508 1.508 0 0 1-.52.287c-.208.067-.451.1-.73.1-.113 0-.227-.009-.344-.025a4.143 4.143 0 0 1-.338-.063 3.15 3.15 0 0 1-.281-.068 1.41 1.41 0 0 1-.188-.068l.145-.639c.087.042.212.089.375.139.167.046.368.068.605.068.163 0 .301-.017.418-.051a.792.792 0 0 0 .281-.148.567.567 0 0 0 .164-.213.808.808 0 0 0-.031-.631.666.666 0 0 0-.289-.275 1.68 1.68 0 0 0-.543-.17 5.315 5.315 0 0 0-.855-.055c.046-.4.08-.78.105-1.139.025-.363.046-.725.063-1.088z" fill="#ececec"/></svg>