<svg viewBox="0 0 24 24" xmlns="http://www.w3.org/2000/svg"><path d="M4 2c-1.108 0-2 .892-2 2v16c0 1.108.892 2 2 2h16c1.108 0 2-.892 2-2V4c0-1.108-.892-2-2-2H4zm-.137 5.588h1.576v3.574c.275-.275.561-.567.861-.875.3-.317.597-.633.889-.949.3-.325.583-.637.85-.938l.725-.813h1.889a92.63 92.63 0 0 1-1.826 2.025c-.325.342-.653.682-.986 1.023-.325.342-.646.668-.963.977.35.267.704.579 1.063.938.367.35.724.728 1.074 1.137.35.4.683.82 1 1.262.325.433.622.867.889 1.301H9.041a16.339 16.339 0 0 0-1.65-2.114c-.308-.342-.63-.666-.963-.975a9.031 9.031 0 0 0-.986-.799v3.887H3.866V7.587zm10.23 1.963c.5 0 .92.063 1.262.188.342.125.613.298.813.523.208.225.354.501.438.826.092.317.139.665.139 1.049V16.1c-.233.05-.587.109-1.063.176-.467.075-.996.111-1.588.111-.392 0-.749-.036-1.074-.111a2.334 2.334 0 0 1-.838-.363 1.793 1.793 0 0 1-.537-.65c-.125-.267-.188-.595-.188-.986 0-.375.069-.693.211-.951.15-.258.352-.467.602-.625.25-.167.536-.283.861-.35a4.708 4.708 0 0 1 1.037-.111c.167 0 .342.012.525.037.183.017.38.05.588.1v-.25a1.94 1.94 0 0 0-.063-.5.951.951 0 0 0-.225-.412.944.944 0 0 0-.412-.287 1.73 1.73 0 0 0-.639-.102c-.35 0-.671.026-.963.076-.292.05-.528.107-.711.174l-.188-1.225a5.81 5.81 0 0 1 .836-.199c.367-.067.759-.1 1.176-.1zm.301 3.773c-.167 0-.339.014-.514.039-.167.025-.321.07-.463.137a.83.83 0 0 0-.324.287.763.763 0 0 0-.125.451c0 .358.113.608.338.75.225.133.529.199.912.199.467 0 .821-.024 1.063-.074v-1.676a2.99 2.99 0 0 0-.363-.074 3.347 3.347 0 0 0-.523-.039zm4.795.994c.242 0 .45.03.625.088.175.058.319.142.432.25a.922.922 0 0 1 .256.375c.058.142.088.298.088.469a.9.9 0 0 1-.168.537c-.108.158-.251.28-.426.363.225.079.411.209.557.393.15.183.225.42.225.707 0 .192-.033.37-.1.537a1.134 1.134 0 0 1-.307.426c-.137.117-.313.21-.525.281-.208.067-.458.1-.75.1-.113 0-.229-.009-.35-.025a2.738 2.738 0 0 1-.338-.057 3.708 3.708 0 0 1-.287-.068 1.3 1.3 0 0 1-.199-.08l.15-.645c.087.042.214.09.381.145.167.05.373.074.619.074.329 0 .565-.063.711-.188a.649.649 0 0 0 .219-.512.634.634 0 0 0-.086-.344.584.584 0 0 0-.232-.219.94.94 0 0 0-.338-.119 2.023 2.023 0 0 0-.398-.037h-.258v-.613h.313c.096 0 .193-.009.289-.025a.902.902 0 0 0 .268-.1.613.613 0 0 0 .193-.193.567.567 0 0 0 .076-.307c0-.1-.019-.185-.057-.256a.553.553 0 0 0-.355-.276.973.973 0 0 0-.25-.031c-.188 0-.354.03-.5.088a2.1 2.1 0 0 0-.389.188l-.275-.563a2.522 2.522 0 0 1 .488-.238c.104-.037.215-.067.332-.088.117-.025.238-.037.367-.037z" fill="#ececec"/></svg>