<svg viewBox="0 0 24 24" xmlns="http://www.w3.org/2000/svg"><path d="M4 2c-1.108 0-2 .892-2 2v16c0 1.108.892 2 2 2h16c1.108 0 2-.892 2-2V4c0-1.108-.892-2-2-2H4zm12.275 5.113c.25 0 .467.083.65.25.183.167.275.396.275.687 0 .283-.092.507-.275.674a.932.932 0 0 1-.65.25.948.948 0 0 1-.662-.25c-.183-.167-.275-.39-.275-.674 0-.292.092-.521.275-.688a.948.948 0 0 1 .662-.25zm-10.182.725h1.738l.611 1.787a95.87 95.87 0 0 0 1.25 3.5c.208.55.413 1.053.613 1.512a56.363 56.363 0 0 0 1.225-3.211 92.08 92.08 0 0 0 .637-1.801c.208-.608.41-1.204.602-1.787h1.688a117.739 117.739 0 0 1-1.625 4.424 74.474 74.474 0 0 1-1.801 4.238H9.519a81.535 81.535 0 0 1-1.813-4.238 104.907 104.907 0 0 1-1.613-4.424zm9.432 2.125h1.514V16.5h-1.514V9.963z" fill="#ececec"/></svg>