<svg xmlns="http://www.w3.org/2000/svg" viewBox="0 0 24 24"><path d="M4 2c-1.108 0-2 .892-2 2v16c0 1.108.892 2 2 2h16c1.108 0 2-.892 2-2V4c0-1.108-.892-2-2-2H4zm2.693 5.387c.358 0 .683.03.975.088.292.05.545.109.762.176.217.067.395.138.537.213.142.075.242.129.301.162l-.463 1.287c-.2-.125-.486-.241-.861-.35a3.939 3.939 0 0 0-1.201-.176c-.375 0-.724.068-1.049.201-.325.125-.61.316-.852.574a2.768 2.768 0 0 0-.549.975 4.242 4.242 0 0 0-.201 1.363c0 .458.05.878.15 1.262.108.383.272.717.488 1 .217.275.491.492.824.65.333.15.735.225 1.201.225.558 0 1.011-.054 1.361-.162.35-.117.621-.224.813-.324l.426 1.287c-.1.067-.237.133-.412.199a6.027 6.027 0 0 1-.602.201 6.29 6.29 0 0 1-.787.137 6.59 6.59 0 0 1-.938.063c-.65 0-1.233-.101-1.75-.301a3.503 3.503 0 0 1-1.313-.875 3.994 3.994 0 0 1-.824-1.424c-.192-.558-.287-1.201-.287-1.926 0-.725.108-1.365.324-1.924a4.185 4.185 0 0 1 .912-1.414 3.76 3.76 0 0 1 1.35-.887 4.574 4.574 0 0 1 1.664-.301zm5.9 2.188c.45 0 .816.059 1.1.176.292.117.533.271.725.463a3.137 3.137 0 0 1 .827-.412c.175-.067.357-.122.549-.164.2-.042.4-.063.6-.063.508 0 .925.077 1.25.227.333.142.592.345.775.611.192.258.322.576.389.951.075.367.111.769.111 1.211v3.676h-1.512v-3.438c0-.683-.083-1.175-.25-1.475-.167-.308-.488-.463-.963-.463-.242 0-.471.042-.688.125-.217.075-.38.15-.488.225.067.208.114.429.139.662.025.233.037.483.037.75v3.613h-1.512v-3.438c0-.683-.089-1.175-.264-1.475-.167-.308-.483-.463-.949-.463-.167 0-.351.012-.551.037-.2.025-.349.046-.449.063v5.275H9.955V9.925a10.23 10.23 0 0 1 2.639-.351zm8.432 4.844h.531v4.332H20.8v-3.318a2.381 2.381 0 0 1-.424.256 4.402 4.402 0 0 1-.494.207l-.232-.576c.242-.096.485-.219.727-.369a2.97 2.97 0 0 0 .648-.531z" fill="#ececec"/></svg>