<svg xmlns="http://www.w3.org/2000/svg" viewBox="0 0 24 24"><path d="M4 2c-1.108 0-2 .892-2 2v16c0 1.108.892 2 2 2h16c1.108 0 2-.892 2-2V4c0-1.108-.892-2-2-2H4zm4.738 5.838h1.486a61.085 61.085 0 0 1 1.676 3.875c.283.7.572 1.441.863 2.225.3.783.613 1.637.938 2.563H12a37.645 37.645 0 0 0-.361-1.012 27.837 27.837 0 0 1-.363-1.025h-3.65c-.117.35-.236.695-.361 1.037l-.352 1H5.276a146.468 146.468 0 0 1 1.776-4.788c.283-.7.563-1.367.838-2s.558-1.258.85-1.875zm.713 1.674c-.192.442-.414.98-.664 1.613-.242.633-.495 1.321-.762 2.063h2.85a84.01 84.01 0 0 0-.775-2.074 51.191 51.191 0 0 0-.648-1.602zm7.818.313c.1 0 .218.009.352.025.133.008.265.026.398.051.133.017.264.041.389.074.125.025.224.051.299.076l-.262 1.273a4.12 4.12 0 0 0-.525-.125 3.421 3.421 0 0 0-1.299-.023 3.277 3.277 0 0 0-.389.086V16.5H14.72v-6.225a7.961 7.961 0 0 1 1.088-.301c.442-.1.928-.15 1.461-.15z" fill="#ececec"/></svg>