<svg viewBox="0 0 24 24" xmlns="http://www.w3.org/2000/svg"><path d="M4 2c-1.108 0-2 .892-2 2v16c0 1.108.892 2 2 2h16c1.108 0 2-.892 2-2V4c0-1.108-.892-2-2-2H4zm3.771 5.75c1.25 0 2.203.229 2.861.688.667.458 1 1.158 1 2.1 0 1.175-.578 1.972-1.736 2.389.158.192.337.424.537.699.2.275.405.575.613.9a16.989 16.989 0 0 1 1.112 1.974h-1.762c-.158-.3-.33-.6-.514-.9a17.984 17.984 0 0 0-.563-.887 13.179 13.179 0 0 0-.549-.813 15.833 15.833 0 0 0-.514-.688 4.445 4.445 0 0 1-.299.012h-1v3.275H5.381V7.962A7.963 7.963 0 0 1 6.608 7.8c.433-.033.82-.051 1.162-.051zm.111 1.363c-.333 0-.64.012-.924.037v2.799h.688c.383 0 .72-.021 1.012-.063.292-.042.533-.116.725-.225.2-.108.351-.254.451-.438.1-.183.15-.416.15-.699 0-.267-.05-.492-.15-.676a1.111 1.111 0 0 0-.438-.438 1.892 1.892 0 0 0-.662-.225 4.499 4.499 0 0 0-.852-.074zm5.359.85h1.512v3.424c0 .7.101 1.2.301 1.5.208.3.566.451 1.074.451.183 0 .374-.009.574-.025.208-.017.363-.037.463-.063V9.963h1.514v6.338c-.292.075-.672.15-1.139.225a8.8 8.8 0 0 1-1.537.125c-.525 0-.966-.075-1.324-.225a2.182 2.182 0 0 1-.852-.625 2.516 2.516 0 0 1-.449-.951 5.135 5.135 0 0 1-.137-1.225V9.963z" fill="#ececec"/></svg>