<svg viewBox="0 0 24 24" xmlns="http://www.w3.org/2000/svg"><path d="M4 2c-1.108 0-2 .892-2 2v16c0 1.108.892 2 2 2h16c1.108 0 2-.892 2-2V4c0-1.108-.892-2-2-2H4zm3.205 5.5c1.258 0 2.22.229 2.887.688.675.458 1.014 1.175 1.014 2.15 0 .508-.092.946-.275 1.313a2.277 2.277 0 0 1-.775.887c-.342.225-.758.392-1.25.5a7.913 7.913 0 0 1-1.688.162h-.787v3.051H4.757V7.714a7.38 7.38 0 0 1 1.211-.162c.45-.033.863-.051 1.238-.051zm6.701.238v1.975h2.324v1.262h-2.324v2.662c0 .525.083.9.25 1.125.167.225.45.338.85.338.275 0 .516-.03.725-.088.217-.058.387-.112.512-.162l.25 1.201c-.175.075-.404.15-.688.225a3.575 3.575 0 0 1-1 .125c-.467 0-.857-.063-1.174-.188a1.755 1.755 0 0 1-.738-.537 2.22 2.22 0 0 1-.387-.863 5.444 5.444 0 0 1-.113-1.162V7.989l1.514-.25zM7.318 8.863c-.4 0-.73.012-.988.037v2.949h.762c.758 0 1.342-.104 1.75-.313.408-.217.613-.621.613-1.213a1.43 1.43 0 0 0-.162-.711 1.17 1.17 0 0 0-.451-.451 2.04 2.04 0 0 0-.688-.225 4.393 4.393 0 0 0-.836-.074zm11.187 5.455c.246 0 .454.037.625.107.175.071.315.161.424.273.112.113.194.238.244.375.05.137.074.271.074.4 0 .229-.063.434-.188.613a1.562 1.562 0 0 1-.43.418c.246.133.426.288.543.463.121.175.182.382.182.619 0 .179-.031.346-.094.5a1.078 1.078 0 0 1-.281.4 1.305 1.305 0 0 1-.469.262 1.968 1.968 0 0 1-.639.094 1.82 1.82 0 0 1-.705-.119 1.278 1.278 0 0 1-.451-.299 1.13 1.13 0 0 1-.312-.789c0-.125.017-.24.051-.344.037-.108.088-.205.15-.293.063-.092.134-.175.213-.25.079-.075.163-.141.25-.199a1.5 1.5 0 0 1-.432-.432 1.13 1.13 0 0 1-.139-.576 1.149 1.149 0 0 1 .375-.856 1.36 1.36 0 0 1 .438-.27c.171-.067.362-.1.57-.1zm0 .619a.706.706 0 0 0-.295.057.498.498 0 0 0-.193.137.55.55 0 0 0-.15.37c0 .158.059.308.176.449.121.142.32.255.6.338.154-.096.276-.203.363-.324a.812.812 0 0 0 .131-.475.48.48 0 0 0-.037-.176.451.451 0 0 0-.113-.182.63.63 0 0 0-.48-.194zm-.232 1.855c-.15.096-.27.214-.361.352a.823.823 0 0 0-.139.48c0 .063.012.128.037.199a.52.52 0 0 0 .125.195.75.75 0 0 0 .227.148.903.903 0 0 0 .344.057.928.928 0 0 0 .324-.049.658.658 0 0 0 .225-.133.596.596 0 0 0 .176-.418.665.665 0 0 0-.068-.307.66.66 0 0 0-.201-.225 1.126 1.126 0 0 0-.299-.168 2.897 2.897 0 0 0-.389-.133z" fill="#ececec"/></svg>