<svg viewBox="0 0 24 24" xmlns="http://www.w3.org/2000/svg"><path d="M4 2c-1.108 0-2 .892-2 2v16c0 1.108.892 2 2 2h16c1.108 0 2-.892 2-2V4c0-1.108-.892-2-2-2H4zm9.65 4.551v5.711l.613-.637.637-.688c.208-.233.405-.454.588-.662.192-.217.355-.404.488-.563h1.787c-.417.467-.858.949-1.324 1.449-.458.5-.922.988-1.389 1.463.25.208.512.462.787.762.275.292.542.604.801.938.258.333.5.667.725 1 .225.333.413.642.563.926h-1.75a11.18 11.18 0 0 0-.525-.813 9.757 9.757 0 0 0-.625-.824 11.662 11.662 0 0 0-.688-.75 5.502 5.502 0 0 0-.688-.613v3h-1.512V6.801l1.512-.25zM3.361 7.588h1.588v5.262c0 .392.042.73.125 1.014.092.275.217.499.375.674.167.175.36.305.576.389.225.083.475.125.75.125s.525-.042.75-.125a1.43 1.43 0 0 0 .574-.389c.167-.175.292-.399.375-.674.092-.283.137-.622.137-1.014V7.588h1.588V13c0 .5-.071.958-.213 1.375a2.88 2.88 0 0 1-.625 1.088c-.275.308-.629.55-1.063.725-.433.167-.945.25-1.537.25s-1.1-.083-1.525-.25a2.936 2.936 0 0 1-1.063-.725 2.962 2.962 0 0 1-.611-1.088A4.504 4.504 0 0 1 3.361 13V7.588zm16.475 6.73c.246 0 .454.037.625.107.175.071.317.161.426.273.113.113.192.238.242.375.05.137.076.271.076.4 0 .229-.063.434-.188.613a1.569 1.569 0 0 1-.432.418c.246.133.426.288.543.463.121.175.182.382.182.619 0 .179-.031.346-.094.5a1.078 1.078 0 0 1-.281.4 1.305 1.305 0 0 1-.469.262 1.955 1.955 0 0 1-.637.094c-.283 0-.52-.04-.707-.119a1.269 1.269 0 0 1-.449-.299 1.137 1.137 0 0 1-.244-.389 1.297 1.297 0 0 1-.068-.4c0-.125.015-.24.049-.344a1.19 1.19 0 0 1 .15-.293c.063-.092.134-.175.213-.25.079-.075.163-.141.25-.199a1.5 1.5 0 0 1-.432-.432 1.13 1.13 0 0 1-.137-.576 1.149 1.149 0 0 1 .375-.856 1.36 1.36 0 0 1 .438-.27c.171-.067.36-.1.568-.1zm0 .619a.696.696 0 0 0-.293.057.544.544 0 0 0-.306.319.503.503 0 0 0-.037.188c0 .158.057.308.174.449.121.142.32.255.6.338.154-.096.276-.203.363-.324a.812.812 0 0 0 .131-.475.48.48 0 0 0-.037-.176.451.451 0 0 0-.113-.182.63.63 0 0 0-.48-.194zm-.23 1.855a1.21 1.21 0 0 0-.363.352.822.822 0 0 0-.137.48c0 .063.012.128.037.199a.52.52 0 0 0 .125.195.74.74 0 0 0 .225.148.903.903 0 0 0 .344.057.928.928 0 0 0 .324-.049.668.668 0 0 0 .227-.133.596.596 0 0 0 .131-.193.665.665 0 0 0-.025-.532.654.654 0 0 0-.199-.225 1.14 1.14 0 0 0-.301-.168 2.866 2.866 0 0 0-.387-.133z" fill="#ececec"/></svg>