<svg xmlns="http://www.w3.org/2000/svg" viewBox="0 0 24 24"><path d="M4 2c-1.108 0-2 .892-2 2v16c0 1.108.892 2 2 2h16c1.108 0 2-.892 2-2V4c0-1.108-.892-2-2-2H4zm.742 5.588h5.563v1.338H6.319v2.137h3.549v1.313H6.319v2.537h4.287v1.338H4.743V7.589zm9.35 1.963c.383 0 .75.036 1.1.111.35.067.614.135.789.201l-.275 1.225a3.392 3.392 0 0 0-.639-.201 3.592 3.592 0 0 0-.898-.1c-.308 0-.558.054-.75.162a.503.503 0 0 0-.289.477c0 .108.017.204.051.287a.75.75 0 0 0 .199.236c.092.067.213.138.363.213.15.067.334.138.551.213.358.133.662.267.912.4.25.125.453.271.611.438.167.158.288.34.363.549.075.208.113.458.113.75 0 .625-.235 1.101-.701 1.426-.458.317-1.116.475-1.975.475-.575 0-1.037-.05-1.387-.15a6.479 6.479 0 0 1-.738-.225l.262-1.262c.225.092.492.178.801.262a4.24 4.24 0 0 0 1.074.125c.4 0 .692-.045.875-.137.183-.1.275-.267.275-.5 0-.217-.099-.395-.299-.537-.192-.142-.513-.296-.963-.463-.275-.1-.53-.204-.764-.313a2.807 2.807 0 0 1-.586-.4c-.167-.15-.3-.329-.4-.537a2.011 2.011 0 0 1-.139-.787c0-.6.222-1.072.664-1.414.442-.35 1.04-.523 1.799-.523zm4.219 4.768c.242 0 .45.03.625.088.175.058.319.142.432.25a.922.922 0 0 1 .256.375c.058.142.088.298.088.469a.9.9 0 0 1-.168.537c-.108.158-.251.28-.426.363.225.079.411.209.557.393.15.183.225.42.225.707 0 .192-.033.37-.1.537a1.134 1.134 0 0 1-.307.426c-.137.117-.313.21-.525.281-.208.067-.458.1-.75.1-.113 0-.229-.009-.35-.025a2.738 2.738 0 0 1-.338-.057 3.708 3.708 0 0 1-.287-.068 1.3 1.3 0 0 1-.199-.08l.15-.645c.087.042.214.09.381.145.167.05.373.074.619.074.329 0 .565-.063.711-.188a.649.649 0 0 0 .219-.512.634.634 0 0 0-.086-.344.584.584 0 0 0-.232-.219.94.94 0 0 0-.338-.119 2.023 2.023 0 0 0-.398-.037h-.258v-.613h.313c.096 0 .193-.009.289-.025a.902.902 0 0 0 .268-.1.613.613 0 0 0 .193-.193.567.567 0 0 0 .076-.307c0-.1-.019-.185-.057-.256a.553.553 0 0 0-.355-.276.973.973 0 0 0-.25-.031c-.188 0-.354.03-.5.088a2.1 2.1 0 0 0-.389.188l-.275-.563a2.522 2.522 0 0 1 .488-.238c.104-.037.215-.067.332-.088.117-.025.238-.037.367-.037z" fill="#ececec"/></svg>