<svg viewBox="0 0 24 24" xmlns="http://www.w3.org/2000/svg"><path d="M4 2c-1.108 0-2 .892-2 2v16c0 1.108.892 2 2 2h16c1.108 0 2-.892 2-2V4c0-1.108-.892-2-2-2H4zm3.531 5.588h1.588v5.813c0 .425-.047.821-.139 1.188a2.349 2.349 0 0 1-.486.963c-.225.275-.534.49-.926.648-.383.158-.871.238-1.463.238-.55 0-1.029-.075-1.438-.225-.4-.158-.707-.325-.924-.5l.563-1.238c.208.142.462.279.762.412.308.125.621.188.938.188.533 0 .92-.132 1.162-.398.242-.267.363-.725.363-1.375V7.589zm5.709 1.963c.5 0 .92.063 1.262.188.342.125.613.298.813.523.208.225.354.501.438.826.092.317.137.665.137 1.049V16.1c-.233.05-.588.109-1.063.176a10.07 10.07 0 0 1-1.586.111c-.392 0-.751-.036-1.076-.111a2.334 2.334 0 0 1-.838-.363 1.793 1.793 0 0 1-.537-.65c-.125-.267-.188-.595-.188-.986 0-.375.071-.693.213-.951.15-.258.35-.467.6-.625.25-.167.538-.283.863-.35a4.708 4.708 0 0 1 1.037-.111c.167 0 .342.012.525.037.183.017.38.05.588.1v-.25a1.94 1.94 0 0 0-.063-.5.955.955 0 0 0-.227-.412.944.944 0 0 0-.412-.287 1.72 1.72 0 0 0-.637-.102c-.35 0-.671.026-.963.076-.292.05-.53.107-.713.174l-.188-1.225a5.85 5.85 0 0 1 .838-.199c.367-.067.759-.1 1.176-.1zm.299 3.773c-.167 0-.337.014-.512.039-.167.025-.321.07-.463.137a.83.83 0 0 0-.324.287.763.763 0 0 0-.125.451c0 .358.111.608.336.75.225.133.531.199.914.199.467 0 .821-.024 1.063-.074v-1.676a2.99 2.99 0 0 0-.363-.074 3.373 3.373 0 0 0-.525-.039zm4.885.994c.462 0 .801.111 1.018.332.221.217.332.513.332.893 0 .15-.031.299-.094.445-.063.142-.144.28-.244.418a3.68 3.68 0 0 1-.332.395c-.125.125-.25.246-.375.367a6.134 6.134 0 0 0-.461.489 2.416 2.416 0 0 0-.195.256.439.439 0 0 0-.086.201h1.924v.637h-2.756a1.012 1.012 0 0 1-.006-.119v-.111c0-.2.031-.384.094-.551.067-.171.152-.329.256-.475.104-.146.22-.283.35-.412.129-.129.26-.258.389-.383.1-.096.195-.19.287-.281.092-.092.17-.18.236-.268.071-.092.128-.184.17-.275a.722.722 0 0 0 .063-.293c0-.217-.063-.371-.188-.463a.752.752 0 0 0-.457-.139.996.996 0 0 0-.324.051c-.1.033-.19.073-.27.119a1.52 1.52 0 0 0-.199.143 1.611 1.611 0 0 0-.131.113l-.375-.531c.175-.167.378-.3.611-.4.238-.104.493-.156.764-.156z" fill="#ececec"/></svg>