<svg xmlns="http://www.w3.org/2000/svg" viewBox="0 0 24 24"><path d="M4 2c-1.108 0-2 .892-2 2v16c0 1.108.892 2 2 2h16c1.108 0 2-.892 2-2V4c0-1.108-.892-2-2-2H4zm2.389 5.5c.525 0 1.01.042 1.461.125.45.075.839.203 1.164.387.333.183.59.427.773.727.183.3.275.67.275 1.111 0 .408-.099.759-.299 1.051a2.033 2.033 0 0 1-.813.699c.525.175.912.434 1.162.775.25.342.375.776.375 1.301 0 .892-.325 1.562-.975 2.01-.65.442-1.647.662-2.988.662-.458 0-.92-.015-1.387-.049a6.166 6.166 0 0 1-1.227-.176V7.711c.183-.033.38-.063.588-.088.208-.033.422-.058.639-.074a15.983 15.983 0 0 1 1.25-.051zm.199 1.287c-.242 0-.459.005-.65.014a5.89 5.89 0 0 0-.475.037v2.275h1.113c.6 0 1.07-.083 1.412-.25.342-.175.512-.484.512-.926 0-.417-.179-.712-.537-.887-.35-.175-.808-.264-1.375-.264zm4.604.926h1.611c.083.35.184.728.301 1.137.125.408.259.825.4 1.25.142.417.291.833.449 1.25.158.417.316.804.475 1.162.267-.742.517-1.528.75-2.361.233-.842.447-1.654.639-2.438h1.563c-.675 2.483-1.458 4.733-2.35 6.75a6.842 6.842 0 0 1-.514.963 2.84 2.84 0 0 1-.588.662c-.217.175-.458.3-.725.375a3.111 3.111 0 0 1-.924.125c-.233 0-.468-.026-.701-.076a2.352 2.352 0 0 1-.512-.162l.275-1.213c.3.117.595.176.887.176.392 0 .695-.095.912-.287.225-.183.421-.472.588-.863a36.591 36.591 0 0 1-1.375-3 34.317 34.317 0 0 1-1.162-3.449zM5.463 12.35v2.639a13.882 13.882 0 0 0 1.114.049c.325 0 .623-.021.898-.063.283-.042.527-.113.727-.213a1.27 1.27 0 0 0 .486-.424c.125-.175.188-.401.188-.676 0-.492-.179-.834-.537-1.025-.358-.192-.855-.287-1.488-.287H5.464zm13.766 1.969c.462 0 .803.111 1.02.332.221.217.33.513.33.893 0 .15-.031.299-.094.445a2.29 2.29 0 0 1-.242.418 3.68 3.68 0 0 1-.332.395c-.125.125-.25.246-.375.367a6.134 6.134 0 0 0-.225.227 6.334 6.334 0 0 0-.238.262 2.385 2.385 0 0 0-.193.256.446.446 0 0 0-.088.201h1.926v.637h-2.756a.97.97 0 0 1-.008-.119v-.111c0-.2.031-.384.094-.551a2.2 2.2 0 0 1 .258-.475c.104-.146.22-.283.35-.412.129-.129.258-.258.387-.383.1-.096.195-.19.287-.281a2.55 2.55 0 0 0 .238-.268c.071-.092.126-.184.168-.275a.722.722 0 0 0 .063-.293c0-.217-.063-.371-.188-.463a.746.746 0 0 0-.455-.139c-.117 0-.226.017-.326.051-.1.033-.188.073-.268.119a1.547 1.547 0 0 0-.201.143 1.611 1.611 0 0 0-.131.113l-.375-.531c.175-.167.38-.3.613-.4.238-.104.491-.156.762-.156z" fill="#ececec"/></svg>