<svg xmlns="http://www.w3.org/2000/svg" width="24" height="24" version="1"><defs><style id="current-color-scheme" type="text/css">.ColorScheme-Text{color:#dfdfdf}</style></defs><path d="M6.223 15.557A2.221 2.221 0 1 0 6.219 20a2.221 2.221 0 0 0 .004-4.443z" fill="currentColor" color="#5294e2"/><path class="ColorScheme-Text" d="M4 4v2.651c7.19.145 12.994 6.034 12.994 13.26l-.002.089h2.654l.002-.09C19.648 11.224 12.652 4.144 4 4z" fill="currentColor"/><path class="ColorScheme-Text" d="M4 9.314v2.652c4.259.142 7.68 3.649 7.68 7.945 0 .03 0 .06-.003.089h2.654l.002-.09C14.333 14.154 9.722 9.459 4 9.315z" fill="currentColor"/></svg>