<svg xmlns="http://www.w3.org/2000/svg" viewBox="0 0 24 24"><path d="M4 2c-1.108 0-2 .892-2 2v16c0 1.108.892 2 2 2h16c1.108 0 2-.892 2-2V4c0-1.108-.892-2-2-2H4zm1.994 5.5c1.25 0 2.205.229 2.863.688.667.458 1 1.158 1 2.1 0 1.175-.58 1.972-1.738 2.389.158.192.339.424.539.699.2.275.403.575.611.9.208.317.408.645.6.986.192.333.364.663.514.988H8.619c-.158-.3-.328-.6-.512-.9a17.984 17.984 0 0 0-.563-.887 13.178 13.178 0 0 0-.551-.813 15.905 15.905 0 0 0-.512-.688 4.499 4.499 0 0 1-.301.012h-1v3.275H3.606V7.712a7.936 7.936 0 0 1 1.225-.162c.433-.033.82-.051 1.162-.051zm.113 1.363c-.333 0-.642.012-.926.037v2.799h.688c.383 0 .722-.021 1.014-.063.292-.042.533-.116.725-.225.2-.108.349-.254.449-.438.1-.183.15-.416.15-.699 0-.267-.05-.492-.15-.676a1.111 1.111 0 0 0-.438-.438 1.892 1.892 0 0 0-.662-.225 4.477 4.477 0 0 0-.85-.074zm5.357.85h1.514v3.424c0 .7.099 1.2.299 1.5.208.3.568.451 1.076.451.183 0 .374-.009.574-.025.208-.017.363-.037.463-.063V9.713h1.512v6.338c-.292.075-.67.15-1.137.225a8.8 8.8 0 0 1-1.537.125c-.525 0-.968-.075-1.326-.225a2.175 2.175 0 0 1-.85-.625 2.516 2.516 0 0 1-.449-.951 5.132 5.132 0 0 1-.139-1.225V9.713zm9.363 4.682l.043.625a2.99 2.99 0 0 0-.631.074 1.74 1.74 0 0 0-.525.199 1.432 1.432 0 0 0-.4.357 1.608 1.608 0 0 0-.25.537c.204-.096.428-.145.67-.145.258 0 .477.038.656.113.183.071.331.168.443.293.113.125.194.271.244.438.054.163.08.335.08.514 0 .163-.028.329-.086.5a1.343 1.343 0 0 1-.264.469 1.438 1.438 0 0 1-.443.344 1.442 1.442 0 0 1-.637.131c-.496 0-.876-.163-1.139-.488-.258-.329-.387-.78-.387-1.355 0-.417.061-.785.182-1.105.125-.325.298-.599.523-.82.229-.221.505-.387.826-.5.325-.117.69-.176 1.094-.18zm-1.188 2.25c-.121 0-.237.01-.35.031a1.314 1.314 0 0 0-.307.094l-.014.111v.113c0 .167.01.325.031.475.025.146.065.274.119.387a.76.76 0 0 0 .232.264c.1.063.221.094.367.094a.59.59 0 0 0 .307-.076.639.639 0 0 0 .213-.193.842.842 0 0 0 .119-.256c.025-.096.037-.188.037-.275 0-.25-.061-.439-.182-.568-.121-.133-.312-.199-.574-.199z" fill="#ececec"/></svg>