<svg viewBox="0 0 24 24" xmlns="http://www.w3.org/2000/svg"><path d="M4 2c-1.108 0-2 .892-2 2v16c0 1.108.892 2 2 2h16c1.108 0 2-.892 2-2V4c0-1.108-.892-2-2-2H4zm-.809 5.588h1.287c.333.35.693.767 1.076 1.25.383.475.765.97 1.148 1.486.392.517.767 1.037 1.125 1.563.367.517.693 1 .977 1.451v-5.75h1.563v8.662H9.029a49.034 49.034 0 0 0-.951-1.525c-.35-.55-.711-1.1-1.086-1.65a34.9 34.9 0 0 0-1.15-1.611c-.383-.525-.75-.995-1.1-1.412v6.199H3.191V7.589zm11.252 1.963c.458 0 .88.083 1.264.25.392.158.725.387 1 .688.275.3.487.661.637 1.086.158.417.238.884.238 1.4 0 .517-.075.987-.225 1.412-.15.425-.364.788-.639 1.088-.275.3-.608.535-1 .701a3.16 3.16 0 0 1-1.275.25c-.467 0-.89-.083-1.273-.25a2.893 2.893 0 0 1-.988-.701 3.282 3.282 0 0 1-.65-1.088 4.216 4.216 0 0 1-.225-1.412c0-.517.075-.984.225-1.4.158-.425.375-.786.65-1.086.283-.3.617-.529 1-.688.383-.167.803-.25 1.262-.25zm0 1.313c-.5 0-.89.191-1.174.574-.275.375-.412.887-.412 1.537 0 .658.137 1.179.412 1.563.283.383.674.576 1.174.576.5 0 .889-.193 1.164-.576.283-.383.424-.904.424-1.563 0-.65-.14-1.162-.424-1.537-.275-.383-.664-.574-1.164-.574zm5.158 3.555h.719v2.676h.488v.619h-.488v1.037h-.736v-1.037h-1.9v-.537c.083-.183.195-.395.332-.633a14.007 14.007 0 0 1 1.012-1.468c.192-.242.383-.46.574-.656zm-.018.932a8.61 8.61 0 0 0-1.157 1.745h1.156v-1.744z" fill="#ececec"/></svg>