<svg viewBox="0 0 24 24" xmlns="http://www.w3.org/2000/svg"><path d="M4 2c-1.108 0-2 .892-2 2v16c0 1.108.892 2 2 2h16c1.108 0 2-.892 2-2V4c0-1.108-.892-2-2-2H4zm3.643 5.838h1.574V16.5H7.643V7.838zm6.262 1.963c.9 0 1.6.278 2.1.836.508.558.762 1.392.762 2.5 0 .083-.003.181-.012.289 0 .1-.003.19-.012.273H12.43c.042.525.224.935.549 1.227.333.283.813.424 1.438.424.367 0 .7-.033 1-.1.308-.067.55-.138.725-.213l.201 1.238a2.73 2.73 0 0 1-.35.137c-.142.042-.308.08-.5.113a5.772 5.772 0 0 1-1.264.137c-.575 0-1.075-.083-1.5-.25a2.89 2.89 0 0 1-1.049-.713 2.98 2.98 0 0 1-.613-1.074 4.468 4.468 0 0 1-.199-1.363c0-.575.083-1.078.25-1.512.175-.433.404-.791.688-1.074a2.69 2.69 0 0 1 .975-.65c.367-.15.742-.225 1.125-.225zm.012 1.262c-.233 0-.436.045-.611.137a1.386 1.386 0 0 0-.451.338 1.632 1.632 0 0 0-.275.488 2.614 2.614 0 0 0-.137.563h2.813c0-.208-.03-.405-.088-.588a1.294 1.294 0 0 0-.262-.488 1.044 1.044 0 0 0-.412-.324 1.228 1.228 0 0 0-.576-.125z" fill="#ececec"/></svg>