<svg viewBox="0 0 24 24" xmlns="http://www.w3.org/2000/svg"><path d="M4 2c-1.108 0-2 .892-2 2v16c0 1.108.892 2 2 2h16c1.108 0 2-.892 2-2V4c0-1.108-.892-2-2-2H4zm-.479 5.588h1.576v3.463h3.762V7.588h1.576v8.662H8.859v-3.838H5.097v3.838H3.521V7.588zm8.06 2.125h1.611c.083.35.184.728.301 1.137.125.408.259.825.4 1.25.142.417.291.833.449 1.25.158.417.316.804.475 1.162.267-.742.517-1.528.75-2.361.233-.842.447-1.654.639-2.438h1.563c-.675 2.483-1.458 4.733-2.35 6.75a6.842 6.842 0 0 1-.514.963 2.84 2.84 0 0 1-.588.662c-.217.175-.458.3-.725.375a3.111 3.111 0 0 1-.924.125c-.233 0-.468-.026-.701-.076a2.352 2.352 0 0 1-.512-.162l.275-1.213c.3.117.595.176.887.176.392 0 .695-.095.912-.287.225-.183.421-.472.588-.863a36.591 36.591 0 0 1-1.375-3 34.317 34.317 0 0 1-1.162-3.449zm9.332 4.682l.043.625a2.99 2.99 0 0 0-.631.074 1.74 1.74 0 0 0-.525.199 1.432 1.432 0 0 0-.4.357 1.608 1.608 0 0 0-.25.537c.204-.096.428-.145.67-.145.258 0 .477.038.656.113.183.071.331.168.443.293.113.125.194.271.244.438a1.55 1.55 0 0 1-.008 1.014 1.338 1.338 0 0 1-.262.469 1.438 1.438 0 0 1-.443.344 1.451 1.451 0 0 1-.639.131c-.496 0-.874-.163-1.137-.488-.258-.329-.387-.78-.387-1.355 0-.417.059-.785.18-1.105.125-.325.3-.599.525-.82.229-.221.505-.387.826-.5.325-.117.69-.176 1.094-.18zm-1.188 2.25c-.121 0-.239.01-.352.031a1.297 1.297 0 0 0-.305.094l-.014.111v.113c0 .167.01.325.031.475.025.146.065.274.119.387a.755.755 0 0 0 .23.264c.1.063.223.094.369.094a.59.59 0 0 0 .307-.076.639.639 0 0 0 .213-.193.842.842 0 0 0 .119-.256c.025-.096.037-.188.037-.275 0-.25-.061-.439-.182-.568-.121-.133-.312-.199-.574-.199z" fill="#ececec"/></svg>