<svg viewBox="0 0 24 24" xmlns="http://www.w3.org/2000/svg"><path d="M4 2c-1.108 0-2 .892-2 2v16c0 1.108.892 2 2 2h16c1.108 0 2-.892 2-2V4c0-1.108-.892-2-2-2H4zm2.961 5.588h1.488a63.958 63.958 0 0 1 1.676 3.875c.283.7.57 1.441.861 2.225.3.783.613 1.637.938 2.563h-1.699a37.66 37.66 0 0 0-.363-1.012 27.847 27.847 0 0 1-.361-1.025h-3.65c-.117.35-.238.695-.363 1.037l-.35 1H3.501a137.543 137.543 0 0 1 1.774-4.788c.283-.7.563-1.367.838-2s.558-1.258.85-1.875zm.713 1.674c-.192.442-.412.98-.662 1.613-.242.633-.495 1.321-.762 2.063H9.1a84.01 84.01 0 0 0-.775-2.074 50.599 50.599 0 0 0-.65-1.602zm7.82.313c.1 0 .216.009.35.025.133.008.267.026.4.051.133.017.262.041.387.074.125.025.226.051.301.076l-.262 1.273a4.12 4.12 0 0 0-.525-.125 3.44 3.44 0 0 0-1.301-.023 3.22 3.22 0 0 0-.387.086v5.238h-1.514v-6.225a7.961 7.961 0 0 1 1.088-.301c.442-.1.93-.15 1.463-.15zm3.291 4.744c.246 0 .454.037.625.107.175.071.317.161.426.273.112.113.194.238.244.375.05.137.074.271.074.4 0 .229-.063.434-.188.613a1.569 1.569 0 0 1-.432.418c.246.133.428.288.545.463.121.175.182.382.182.619 0 .179-.031.346-.094.5a1.078 1.078 0 0 1-.281.4 1.305 1.305 0 0 1-.469.262 1.968 1.968 0 0 1-.639.094 1.82 1.82 0 0 1-.705-.119 1.278 1.278 0 0 1-.451-.299 1.137 1.137 0 0 1-.244-.389 1.297 1.297 0 0 1-.068-.4c0-.125.017-.24.051-.344a1.19 1.19 0 0 1 .15-.293c.063-.092.132-.175.211-.25.079-.075.163-.141.25-.199a1.492 1.492 0 0 1-.43-.432 1.13 1.13 0 0 1-.139-.576 1.149 1.149 0 0 1 .375-.856 1.36 1.36 0 0 1 .438-.27c.171-.067.36-.1.568-.1zm0 .619a.696.696 0 0 0-.293.057.498.498 0 0 0-.193.137.55.55 0 0 0-.15.37c0 .158.059.308.176.449.121.142.32.255.6.338.154-.096.274-.203.361-.324a.813.813 0 0 0 .133-.475.485.485 0 0 0-.039-.176.446.446 0 0 0-.111-.182.63.63 0 0 0-.482-.194zm-.23 1.855a1.21 1.21 0 0 0-.363.352.822.822 0 0 0-.137.48c0 .063.012.128.037.199a.52.52 0 0 0 .125.195.74.74 0 0 0 .225.148.903.903 0 0 0 .344.057.94.94 0 0 0 .326-.049.658.658 0 0 0 .225-.133.596.596 0 0 0 .176-.418.653.653 0 0 0-.07-.307.654.654 0 0 0-.199-.225 1.14 1.14 0 0 0-.301-.168 2.866 2.866 0 0 0-.387-.133z" fill="#ececec"/></svg>