<svg xmlns="http://www.w3.org/2000/svg" viewBox="0 0 24 24"><path d="M4 2c-1.108 0-2 .892-2 2v16c0 1.108.892 2 2 2h16c1.108 0 2-.892 2-2V4c0-1.108-.892-2-2-2H4zm-.063 5.588H9.5v1.338H5.512v2.137h3.551v1.313H5.512v2.537h4.287v1.338H3.938V7.589zm9.936 1.986c.533 0 .98.077 1.338.227.358.142.641.345.85.611.217.258.368.576.451.951.092.367.137.769.137 1.211v3.676h-1.512v-3.438c0-.35-.026-.645-.076-.887-.042-.25-.116-.452-.225-.602a.813.813 0 0 0-.424-.336 1.653 1.653 0 0 0-.65-.113 5.04 5.04 0 0 0-.6.037c-.208.025-.363.046-.463.063v5.275h-1.514V9.925a10.23 10.23 0 0 1 2.688-.351zm4.469 4.844h2.213v.639h-1.568a6.088 6.088 0 0 1-.02.244 5.135 5.135 0 0 1-.02.268 4.218 4.218 0 0 1-.043.475c.617.033 1.072.176 1.363.426.296.246.443.583.443 1.012 0 .196-.033.378-.1.545a1.124 1.124 0 0 1-.307.432 1.517 1.517 0 0 1-.52.287c-.208.067-.451.1-.73.1-.113 0-.227-.009-.344-.025a4.143 4.143 0 0 1-.338-.063 3.15 3.15 0 0 1-.281-.068 1.41 1.41 0 0 1-.188-.068l.145-.639c.087.042.212.089.375.139.167.046.368.068.605.068.163 0 .301-.017.418-.051a.792.792 0 0 0 .281-.148.567.567 0 0 0 .164-.213.808.808 0 0 0-.031-.631.666.666 0 0 0-.289-.275 1.68 1.68 0 0 0-.543-.17 5.315 5.315 0 0 0-.855-.055c.046-.4.08-.78.105-1.139.025-.363.046-.725.063-1.088z" fill="#ececec"/></svg>