<svg xmlns="http://www.w3.org/2000/svg" viewBox="0 0 24 24"><path d="M4 2c-1.108 0-2 .892-2 2v16c0 1.108.892 2 2 2h16c1.108 0 2-.892 2-2V4c0-1.108-.892-2-2-2H4zm1.973 5.5c.525 0 1.013.042 1.463.125.45.075.837.203 1.162.387.333.183.592.427.775.727.183.3.275.67.275 1.111 0 .408-.101.759-.301 1.051a2.026 2.026 0 0 1-.813.699c.525.175.912.434 1.162.775.25.342.375.776.375 1.301 0 .892-.325 1.562-.975 2.01-.65.442-1.647.662-2.988.662-.458 0-.92-.015-1.387-.049a6.144 6.144 0 0 1-1.225-.176V7.711c.183-.033.38-.063.588-.088a7.65 7.65 0 0 1 .637-.074 15.983 15.983 0 0 1 1.25-.051zm.199 1.287c-.242 0-.457.005-.648.014-.183.008-.343.02-.477.037v2.275H6.16c.6 0 1.07-.083 1.412-.25.342-.175.514-.484.514-.926 0-.417-.181-.712-.539-.887-.35-.175-.808-.264-1.375-.264zm8.328.787c.492 0 .959.038 1.4.113.442.075.817.155 1.125.238v5.662c0 1.042-.265 1.804-.799 2.287-.525.483-1.334.725-2.426.725a6.83 6.83 0 0 1-2.199-.362l.273-1.289c.258.108.55.197.875.264.333.067.693.1 1.076.1.608 0 1.04-.125 1.299-.375.258-.25.389-.622.389-1.113v-.25c-.15.075-.35.152-.6.227a2.836 2.836 0 0 1-.838.111c-.417 0-.8-.066-1.15-.199a2.464 2.464 0 0 1-.887-.588 2.807 2.807 0 0 1-.576-.963 4.192 4.192 0 0 1-.199-1.35c0-.475.071-.912.213-1.313.15-.4.362-.742.637-1.025a2.976 2.976 0 0 1 1.025-.662c.4-.158.853-.238 1.361-.238zm.014 1.264c-.55 0-.972.182-1.264.549-.292.358-.438.834-.438 1.426 0 .642.139 1.112.414 1.412.283.292.644.438 1.086.438.242 0 .467-.033.676-.1.217-.067.392-.147.525-.238v-3.387a3.46 3.46 0 0 0-.4-.063 3.962 3.962 0 0 0-.6-.037zM5.047 12.35v2.639a13.882 13.882 0 0 0 1.114.049c.325 0 .625-.021.9-.063.283-.042.525-.113.725-.213.208-.108.372-.249.488-.424.125-.175.188-.401.188-.676 0-.492-.181-.834-.539-1.025-.358-.192-.853-.287-1.486-.287H5.048zm14.598 1.969c.462 0 .801.111 1.018.332.221.217.332.513.332.893 0 .15-.031.299-.094.445-.063.142-.144.28-.244.418a3.68 3.68 0 0 1-.332.395c-.125.125-.25.246-.375.367a6.134 6.134 0 0 0-.461.489 2.416 2.416 0 0 0-.195.256.439.439 0 0 0-.086.201h1.924v.637h-2.756a1.012 1.012 0 0 1-.006-.119v-.111c0-.2.031-.384.094-.551.067-.171.152-.329.256-.475.104-.146.22-.283.35-.412.129-.129.26-.258.389-.383.1-.096.195-.19.287-.281.092-.092.17-.18.236-.268.071-.092.128-.184.17-.275a.722.722 0 0 0 .063-.293c0-.217-.063-.371-.188-.463a.752.752 0 0 0-.457-.139.996.996 0 0 0-.324.051c-.1.033-.19.073-.27.119a1.52 1.52 0 0 0-.199.143 1.611 1.611 0 0 0-.131.113l-.375-.531c.175-.167.378-.3.611-.4.238-.104.493-.156.764-.156z" fill="#ececec"/></svg>