<svg viewBox="0 0 24 24" xmlns="http://www.w3.org/2000/svg"><path d="M4 2c-1.108 0-2 .892-2 2v16c0 1.108.892 2 2 2h16c1.108 0 2-.892 2-2V4c0-1.108-.892-2-2-2H4zm1.559 5.387c.542 0 1.021.063 1.438.188.425.117.758.247 1 .389l-.486 1.275a3.711 3.711 0 0 0-.938-.363 4.29 4.29 0 0 0-1.039-.125c-.425 0-.758.087-1 .262-.233.175-.35.422-.35.738 0 .192.038.358.113.5.083.133.196.255.338.363.15.108.32.207.512.299.2.092.417.18.65.264.408.15.771.303 1.088.461.325.15.596.334.813.551.225.208.395.458.512.75.117.283.176.629.176 1.037 0 .783-.28 1.393-.838 1.826-.55.425-1.359.637-2.426.637-.358 0-.686-.024-.986-.074a5.926 5.926 0 0 1-1.375-.363 4.494 4.494 0 0 1-.4-.199l.463-1.289c.225.125.529.25.912.375s.845.188 1.387.188c.567 0 .98-.095 1.238-.287.258-.192.387-.463.387-.813 0-.208-.045-.387-.137-.537a1.199 1.199 0 0 0-.375-.4 2.599 2.599 0 0 0-.588-.338 7.729 7.729 0 0 0-.801-.313 13.4 13.4 0 0 1-.875-.35 3.22 3.22 0 0 1-.736-.486 2.38 2.38 0 0 1-.514-.688c-.125-.267-.188-.588-.188-.963 0-.783.271-1.396.813-1.838.542-.45 1.28-.676 2.213-.676zm3.352 2.326h1.6c.075.35.162.728.262 1.137.1.4.204.813.313 1.238.108.417.221.825.338 1.225.117.4.233.766.35 1.1.125-.383.247-.779.363-1.188.125-.408.241-.816.35-1.225.108-.408.209-.804.301-1.188.1-.392.187-.758.262-1.1h1.162c.075.342.158.708.25 1.1.092.383.189.779.289 1.188.108.408.219.816.336 1.225.125.408.25.804.375 1.188a39.78 39.78 0 0 0 .676-2.325c.117-.425.224-.838.324-1.238.1-.408.189-.787.264-1.137h1.563c-.175.642-.354 1.27-.537 1.887a62.361 62.361 0 0 1-.551 1.764 40.136 40.136 0 0 1-.551 1.574c-.183.492-.362.929-.537 1.313h-1.225c-.217-.617-.442-1.271-.676-1.963-.225-.7-.433-1.417-.625-2.15-.192.733-.4 1.45-.625 2.15a63.1 63.1 0 0 1-.648 1.963h-1.238a25.945 25.945 0 0 1-.525-1.313 44.52 44.52 0 0 1-.549-1.574 68.397 68.397 0 0 1-.551-1.764 88.256 88.256 0 0 1-.537-1.887zm11.49 4.705h.531v4.332h-.756v-3.318a2.381 2.381 0 0 1-.424.256 4.402 4.402 0 0 1-.494.207l-.232-.576c.242-.096.485-.219.727-.369a2.97 2.97 0 0 0 .648-.531z" fill="#ececec"/></svg>