<svg viewBox="0 0 24 24" xmlns="http://www.w3.org/2000/svg"><path d="M4 2c-1.108 0-2 .892-2 2v16c0 1.108.892 2 2 2h16c1.108 0 2-.892 2-2V4c0-1.108-.892-2-2-2H4zm1.865 5.588h1.576v8.662H5.865V7.588zm6.264 1.963c.9 0 1.6.278 2.1.836.508.558.762 1.392.762 2.5 0 .083-.003.181-.012.289 0 .1-.005.19-.014.273h-4.313c.042.525.226.935.551 1.227.333.283.813.424 1.438.424.367 0 .7-.033 1-.1.308-.067.55-.138.725-.213l.201 1.238a2.779 2.779 0 0 1-.352.137c-.142.042-.308.08-.5.113a5.772 5.772 0 0 1-1.262.137c-.575 0-1.075-.083-1.5-.25a2.898 2.898 0 0 1-1.051-.713 2.976 2.976 0 0 1-.611-1.074 4.467 4.467 0 0 1-.201-1.363c0-.575.083-1.078.25-1.512.175-.433.404-.791.688-1.074.283-.292.61-.509.977-.65.367-.15.742-.225 1.125-.225zm.012 1.262a1.3 1.3 0 0 0-.613.137 1.378 1.378 0 0 0-.449.338 1.632 1.632 0 0 0-.275.488 2.614 2.614 0 0 0-.137.563h2.813c0-.208-.03-.405-.088-.588a1.294 1.294 0 0 0-.262-.488 1.05 1.05 0 0 0-.414-.324 1.22 1.22 0 0 0-.574-.125zm4.273 3.605h2.211v.639h-1.568a5.774 5.774 0 0 1-.018.244 5.135 5.135 0 0 1-.02.268c-.004.092-.011.18-.02.264a5.5 5.5 0 0 1-.023.211c.617.033 1.07.176 1.361.426.296.246.443.583.443 1.012 0 .196-.033.378-.1.545a1.124 1.124 0 0 1-.307.432 1.498 1.498 0 0 1-.518.287 2.4 2.4 0 0 1-.732.1c-.113 0-.227-.009-.344-.025a4.092 4.092 0 0 1-.336-.063 3.15 3.15 0 0 1-.281-.068 1.41 1.41 0 0 1-.188-.068l.143-.639c.087.042.212.089.375.139.167.046.37.068.607.068.163 0 .301-.017.418-.051a.792.792 0 0 0 .281-.148.561.561 0 0 0 .162-.213.809.809 0 0 0-.031-.631.66.66 0 0 0-.287-.275 1.68 1.68 0 0 0-.543-.17 5.342 5.342 0 0 0-.857-.055c.046-.4.082-.78.107-1.139.025-.363.046-.725.063-1.088z" fill="#ececec"/></svg>