<svg viewBox="0 0 24 24" xmlns="http://www.w3.org/2000/svg"><path d="M4 2c-1.108 0-2 .892-2 2v16c0 1.108.892 2 2 2h16c1.108 0 2-.892 2-2V4c0-1.108-.892-2-2-2H4zm8.625 4.551v5.711l.613-.637.637-.688c.208-.233.405-.454.588-.662.192-.217.355-.404.488-.563h1.787c-.417.467-.858.949-1.324 1.449-.458.5-.922.988-1.389 1.463.25.208.512.462.787.762.275.292.542.604.801.938.258.333.5.667.725 1 .225.333.413.642.563.926h-1.75a11.18 11.18 0 0 0-.525-.813 9.757 9.757 0 0 0-.625-.824 11.662 11.662 0 0 0-.688-.75 5.502 5.502 0 0 0-.688-.613v3h-1.512V6.801l1.512-.25zm-5.637.836c.542 0 1.021.063 1.437.188.425.117.758.247 1 .389l-.488 1.275a3.711 3.711 0 0 0-.938-.363 4.274 4.274 0 0 0-1.037-.125c-.425 0-.758.087-1 .262-.233.175-.35.422-.35.738 0 .192.036.358.111.5.083.133.196.255.338.363.15.108.32.207.512.299.2.092.417.18.65.264.408.15.771.303 1.088.461.325.15.596.334.813.551.225.208.395.458.512.75.117.283.176.629.176 1.037 0 .783-.28 1.393-.838 1.826-.55.425-1.357.637-2.424.637-.358 0-.688-.024-.988-.074a5.893 5.893 0 0 1-1.375-.363 4.494 4.494 0 0 1-.4-.199l.463-1.289c.225.125.529.25.912.375s.847.188 1.389.188c.567 0 .978-.095 1.236-.287.258-.192.389-.463.389-.813 0-.208-.047-.387-.139-.537a1.199 1.199 0 0 0-.375-.4 2.599 2.599 0 0 0-.588-.338 7.683 7.683 0 0 0-.799-.313 13.4 13.4 0 0 1-.875-.35 3.232 3.232 0 0 1-.738-.486 2.373 2.373 0 0 1-.512-.688c-.125-.267-.188-.588-.188-.963 0-.783.271-1.396.813-1.838.542-.45 1.28-.676 2.213-.676zm11.984 7.03h.531v4.332h-.756v-3.318a2.405 2.405 0 0 1-.426.256 4.378 4.378 0 0 1-.492.207l-.232-.576a4.59 4.59 0 0 0 .725-.369c.246-.15.463-.327.65-.531z" fill="#ececec"/></svg>