<svg viewBox="0 0 24 24" xmlns="http://www.w3.org/2000/svg"><path d="M4 2c-1.108 0-2 .892-2 2v16c0 1.108.892 2 2 2h16c1.108 0 2-.892 2-2V4c0-1.108-.892-2-2-2H4zm1.91 5.5c1.25 0 2.203.229 2.861.688.667.458 1 1.158 1 2.1 0 1.175-.578 1.972-1.736 2.389.158.192.337.424.537.699.2.275.405.575.613.9a16.989 16.989 0 0 1 1.112 1.974H8.535c-.158-.3-.33-.6-.514-.9a17.984 17.984 0 0 0-.563-.887 13.179 13.179 0 0 0-.549-.813 15.833 15.833 0 0 0-.514-.688 4.445 4.445 0 0 1-.299.012h-1v3.275H3.52V7.712a7.963 7.963 0 0 1 1.227-.162c.433-.033.82-.051 1.162-.051zm.111 1.363c-.333 0-.64.012-.924.037v2.799h.688c.383 0 .72-.021 1.012-.063.292-.042.533-.116.725-.225.2-.108.351-.254.451-.438.1-.183.15-.416.15-.699 0-.267-.05-.492-.15-.676a1.111 1.111 0 0 0-.438-.438 1.892 1.892 0 0 0-.662-.225 4.499 4.499 0 0 0-.852-.074zm8.209.688c.458 0 .878.083 1.262.25.392.158.725.387 1 .687.275.3.489.661.639 1.086.158.417.236.884.236 1.4 0 .517-.075.987-.225 1.412-.15.425-.362.788-.637 1.088-.275.3-.608.535-1 .701a3.16 3.16 0 0 1-1.275.25c-.467 0-.892-.083-1.275-.25a2.893 2.893 0 0 1-.988-.701c-.275-.3-.49-.663-.648-1.088a4.216 4.216 0 0 1-.227-1.412c0-.517.077-.984.227-1.4.158-.425.373-.786.648-1.086.283-.3.617-.529 1-.687a3.13 3.13 0 0 1 1.264-.25zm0 1.312c-.5 0-.892.191-1.176.574-.275.375-.412.887-.412 1.537 0 .658.137 1.179.412 1.563.283.383.676.576 1.176.576.5 0 .887-.193 1.162-.576.283-.383.426-.904.426-1.563 0-.65-.142-1.162-.426-1.537-.275-.383-.662-.574-1.162-.574zm5.301 3.455c.242 0 .45.03.625.088.175.058.319.142.432.25a.922.922 0 0 1 .256.375c.058.142.088.298.088.469a.9.9 0 0 1-.168.537c-.108.158-.251.28-.426.363.225.079.411.209.557.393.15.183.225.42.225.707 0 .192-.033.37-.1.537a1.134 1.134 0 0 1-.307.426c-.137.117-.313.21-.525.281-.208.067-.458.1-.75.1-.113 0-.229-.009-.35-.025a2.738 2.738 0 0 1-.338-.057 3.708 3.708 0 0 1-.287-.068 1.3 1.3 0 0 1-.199-.08l.15-.645c.087.042.214.09.381.145.167.05.373.074.619.074.329 0 .565-.063.711-.188a.649.649 0 0 0 .219-.512.634.634 0 0 0-.086-.344.584.584 0 0 0-.232-.219.94.94 0 0 0-.338-.119 2.023 2.023 0 0 0-.398-.037h-.258v-.613h.313c.096 0 .193-.009.289-.025a.902.902 0 0 0 .268-.1.613.613 0 0 0 .193-.193.567.567 0 0 0 .076-.307c0-.1-.019-.185-.057-.256a.553.553 0 0 0-.355-.276.968.968 0 0 0-.25-.031c-.188 0-.354.03-.5.088a2.1 2.1 0 0 0-.389.188l-.275-.563a2.522 2.522 0 0 1 .488-.238c.104-.037.215-.067.332-.088.117-.025.238-.037.367-.037z" fill="#ececec"/></svg>