<svg xmlns="http://www.w3.org/2000/svg" viewBox="0 0 24 24"><path d="M4 2c-1.108 0-2 .892-2 2v16c0 1.108.892 2 2 2h16c1.108 0 2-.892 2-2V4c0-1.108-.892-2-2-2H4zm12.564 4.801c.35 0 .659.033.926.1.267.058.466.112.6.162l-.287 1.25a2.35 2.35 0 0 0-.5-.162 2.682 2.682 0 0 0-.6-.063 1.49 1.49 0 0 0-.613.111.956.956 0 0 0-.4.289 1.13 1.13 0 0 0-.213.461 2.474 2.474 0 0 0-.063.576v.438h2.375v1.262h-2.375V16.5h-1.512v-7c0-.842.22-1.5.662-1.975.442-.483 1.108-.725 2-.725zM7.091 7.838h5.477v1.338h-3.9v2.211h3.463v1.338H8.668V16.5H7.092V7.838z" fill="#ececec"/></svg>