<svg xmlns="http://www.w3.org/2000/svg" viewBox="0 0 24 24"><path d="M4 2c-1.108 0-2 .892-2 2v16c0 1.108.892 2 2 2h16c1.108 0 2-.892 2-2V4c0-1.108-.892-2-2-2H4zm.254 5.588H5.83v3.463h3.762V7.588h1.576v8.662H9.592v-3.838H5.83v3.838H4.254V7.588zm11.461 1.986c.1 0 .216.009.35.025.133.008.267.026.4.051.133.017.262.041.387.074.125.025.226.051.301.076l-.264 1.273a4.12 4.12 0 0 0-.525-.125 3.421 3.421 0 0 0-1.299-.023 3.277 3.277 0 0 0-.389.086v5.238h-1.512v-6.225a7.961 7.961 0 0 1 1.088-.301c.442-.1.93-.15 1.463-.15zm3.641 4.844h.719v2.676h.488v.619h-.488v1.037h-.736v-1.037h-1.9v-.537c.083-.183.193-.395.33-.633a14.007 14.007 0 0 1 1.014-1.468c.192-.242.383-.46.574-.656zm-.018.932a8.61 8.61 0 0 0-1.157 1.745h1.156v-1.744z" fill="#ececec"/></svg>