<svg xmlns="http://www.w3.org/2000/svg" viewBox="0 0 24 24"><path d="M4 2c-1.108 0-2 .892-2 2v16c0 1.108.892 2 2 2h16c1.108 0 2-.892 2-2V4c0-1.108-.892-2-2-2H4zm1.299 5.838h1.574v3.463h3.764V7.838h1.574V16.5h-1.574v-3.838H6.873V16.5H5.299V7.838zm8.06 2.125h1.613c.083.35.182.728.299 1.137.125.408.259.825.4 1.25.142.417.293.833.451 1.25.158.417.316.804.475 1.162.267-.742.517-1.528.75-2.361.233-.842.445-1.654.637-2.438h1.563c-.675 2.483-1.458 4.733-2.35 6.75a6.848 6.848 0 0 1-.512.963 2.84 2.84 0 0 1-.588.662c-.217.175-.458.3-.725.375a3.125 3.125 0 0 1-.926.125c-.233 0-.466-.026-.699-.076a2.375 2.375 0 0 1-.514-.162l.275-1.213c.3.117.595.176.887.176.392 0 .697-.095.914-.287.225-.183.419-.472.586-.863a36.591 36.591 0 0 1-1.375-3 34.317 34.317 0 0 1-1.162-3.449z" fill="#ececec"/></svg>