<svg viewBox="0 0 24 24" xmlns="http://www.w3.org/2000/svg"><path d="M4 2c-1.108 0-2 .892-2 2v16c0 1.108.892 2 2 2h16c1.108 0 2-.892 2-2V4c0-1.108-.892-2-2-2H4zm-.881 5.588h1.574v3.463h3.764V7.588h1.574v8.662H8.457v-3.838H4.693v3.838H3.119V7.588zm8.834 2.125h1.514v3.424c0 .7.099 1.2.299 1.5.208.3.568.451 1.076.451.183 0 .374-.009.574-.025.208-.017.363-.037.463-.063V9.713h1.512v6.338c-.292.075-.67.15-1.137.225a8.8 8.8 0 0 1-1.537.125c-.525 0-.968-.075-1.326-.225a2.175 2.175 0 0 1-.85-.625 2.516 2.516 0 0 1-.449-.951 5.132 5.132 0 0 1-.139-1.225V9.713zm8.1 4.605c.508 0 .892.165 1.15.494.262.325.395.785.395 1.381 0 .842-.217 1.479-.65 1.912-.433.433-1.098.652-1.994.656l-.031-.631c.25 0 .476-.021.676-.063.204-.042.381-.108.531-.199.154-.092.283-.212.387-.357.104-.15.184-.332.238-.549a1.723 1.723 0 0 1-.682.142c-.258 0-.479-.033-.662-.1a1.231 1.231 0 0 1-.443-.287 1.198 1.198 0 0 1-.25-.432 1.66 1.66 0 0 1-.082-.525c0-.162.028-.326.082-.492.054-.171.139-.327.256-.469a1.376 1.376 0 0 1 1.08-.483zm.02.625a.623.623 0 0 0-.313.076.66.66 0 0 0-.207.193.837.837 0 0 0-.117.256 1.03 1.03 0 0 0-.039.27c0 .254.061.445.182.574.125.129.32.193.582.193.121 0 .239-.01.355-.031a1.14 1.14 0 0 0 .301-.105c.004-.046.006-.086.006-.119v-.088c0-.167-.012-.323-.037-.469a1.158 1.158 0 0 0-.119-.387.618.618 0 0 0-.23-.264.62.62 0 0 0-.363-.1z" fill="#ececec"/></svg>