<svg xmlns="http://www.w3.org/2000/svg" viewBox="0 0 24 24"><path d="M4 2c-1.108 0-2 .892-2 2v16c0 1.108.892 2 2 2h16c1.108 0 2-.892 2-2V4c0-1.108-.892-2-2-2H4zm3.846 5.75c.525 0 1.013.042 1.463.125.45.075.837.203 1.162.387.333.183.592.427.775.727.183.3.275.67.275 1.111 0 .408-.101.759-.301 1.051a2.033 2.033 0 0 1-.813.699c.525.175.914.434 1.164.775.25.342.375.776.375 1.301 0 .892-.327 1.562-.977 2.01-.65.442-1.645.662-2.986.662-.458 0-.922-.015-1.389-.049a6.144 6.144 0 0 1-1.225-.176V7.961c.183-.033.38-.063.588-.088a7.65 7.65 0 0 1 .637-.074 16.08 16.08 0 0 1 1.25-.051zm.201 1.287c-.242 0-.459.005-.65.014a5.89 5.89 0 0 0-.475.037v2.275h1.111c.6 0 1.072-.083 1.414-.25.342-.175.512-.484.512-.926 0-.417-.179-.712-.537-.887-.35-.175-.808-.264-1.375-.264zm8.127.764c.9 0 1.602.278 2.102.836.508.558.762 1.392.762 2.5 0 .083-.003.181-.012.289 0 .1-.005.19-.014.273h-4.313c.042.525.226.935.551 1.227.333.283.813.424 1.438.424.367 0 .7-.033 1-.1.308-.067.55-.138.725-.213l.199 1.238a2.73 2.73 0 0 1-.35.137c-.142.042-.308.08-.5.113a5.772 5.772 0 0 1-1.262.137c-.575 0-1.075-.083-1.5-.25a2.898 2.898 0 0 1-1.051-.713 2.976 2.976 0 0 1-.611-1.074 4.467 4.467 0 0 1-.201-1.363c0-.575.083-1.078.25-1.512.175-.433.404-.791.688-1.074a2.69 2.69 0 0 1 .975-.65c.367-.15.742-.225 1.125-.225zm.014 1.262a1.3 1.3 0 0 0-.613.137 1.378 1.378 0 0 0-.449.338 1.632 1.632 0 0 0-.275.488 2.614 2.614 0 0 0-.137.563h2.813c0-.208-.03-.405-.088-.588a1.297 1.297 0 0 0-.264-.488 1.044 1.044 0 0 0-.412-.324 1.22 1.22 0 0 0-.574-.125zM6.922 12.6v2.639a13.786 13.786 0 0 0 1.112.049c.325 0 .625-.021.9-.063.283-.042.525-.113.725-.213.208-.108.372-.249.488-.424.125-.175.188-.401.188-.676 0-.492-.179-.834-.537-1.025-.358-.192-.855-.287-1.488-.287H6.923z" fill="#ececec"/></svg>