<svg viewBox="0 0 24 24" xmlns="http://www.w3.org/2000/svg"><path d="M4 2c-1.108 0-2 .892-2 2v16c0 1.108.892 2 2 2h16c1.108 0 2-.892 2-2V4c0-1.108-.892-2-2-2H4zm-.377 5.588H4.91c.333.35.691.767 1.074 1.25.383.475.767.97 1.15 1.486.392.517.767 1.037 1.125 1.563.367.517.691 1 .975 1.451v-5.75h1.563v8.662H9.461a49.034 49.034 0 0 0-.951-1.525c-.35-.55-.713-1.1-1.088-1.65a34.877 34.877 0 0 0-1.148-1.611 26.405 26.405 0 0 0-1.102-1.412v6.199H3.623V7.589zm11.252 1.963c.458 0 .88.083 1.264.25.392.158.725.387 1 .688.275.3.487.661.637 1.086.158.417.238.884.238 1.4 0 .517-.077.987-.227 1.412-.15.425-.362.788-.637 1.088-.275.3-.608.535-1 .701a3.16 3.16 0 0 1-1.275.25c-.467 0-.892-.083-1.275-.25a2.885 2.885 0 0 1-.986-.701 3.282 3.282 0 0 1-.65-1.088 4.216 4.216 0 0 1-.225-1.412c0-.517.075-.984.225-1.4.158-.425.375-.786.65-1.086.283-.3.617-.529 1-.688.383-.167.803-.25 1.262-.25zm0 1.313c-.5 0-.89.191-1.174.574-.275.375-.414.887-.414 1.537 0 .658.139 1.179.414 1.563.283.383.674.576 1.174.576.5 0 .887-.193 1.162-.576.283-.383.426-.904.426-1.563 0-.65-.142-1.162-.426-1.537-.275-.383-.662-.574-1.162-.574zm4.971 3.555h.531v4.332h-.756v-3.318a2.405 2.405 0 0 1-.426.256 4.378 4.378 0 0 1-.492.207l-.232-.576a4.59 4.59 0 0 0 .725-.369c.246-.15.463-.327.65-.531z" fill="#ececec"/></svg>