<svg viewBox="0 0 24 24" xmlns="http://www.w3.org/2000/svg"><path d="M4 2c-1.108 0-2 .892-2 2v16c0 1.108.892 2 2 2h16c1.108 0 2-.892 2-2V4c0-1.108-.892-2-2-2H4zm1.316 5.588H6.89v7.299h3.9v1.363H5.315V7.588zm8.03.15v1.975h2.326v1.262h-2.326v2.662c0 .525.083.9.25 1.125.167.225.45.338.85.338.275 0 .518-.03.727-.088.217-.058.387-.112.512-.162l.25 1.201c-.175.075-.404.15-.688.225a3.575 3.575 0 0 1-1 .125c-.467 0-.859-.063-1.176-.188a1.748 1.748 0 0 1-.736-.537 2.222 2.222 0 0 1-.389-.863 5.452 5.452 0 0 1-.111-1.162V7.989l1.512-.25zm4.949 6.68h.719v2.676h.488v.619h-.488v1.037h-.736v-1.037h-1.9v-.537c.083-.183.195-.395.332-.633a14.007 14.007 0 0 1 1.012-1.468c.192-.242.383-.46.574-.656zm-.018.932a8.61 8.61 0 0 0-1.157 1.745h1.156v-1.744z" fill="#ececec"/></svg>