<svg viewBox="0 0 24 24" xmlns="http://www.w3.org/2000/svg"><path d="M4 2c-1.108 0-2 .892-2 2v16c0 1.108.892 2 2 2h16c1.108 0 2-.892 2-2V4c0-1.108-.892-2-2-2H4zm-.881 5.588h1.574v3.463h3.764V7.588h1.574v8.662H8.457v-3.838H4.693v3.838H3.119V7.588zm8.834 2.125h1.514v3.424c0 .7.099 1.2.299 1.5.208.3.568.451 1.076.451.183 0 .374-.009.574-.025.208-.017.363-.037.463-.063V9.713h1.512v6.338c-.292.075-.67.15-1.137.225a8.8 8.8 0 0 1-1.537.125c-.525 0-.968-.075-1.326-.225a2.175 2.175 0 0 1-.85-.625 2.516 2.516 0 0 1-.449-.951 5.132 5.132 0 0 1-.139-1.225V9.713zm7.207 4.705h2.213v.639h-1.57a5.774 5.774 0 0 1-.018.244 5.135 5.135 0 0 1-.02.268 4.218 4.218 0 0 1-.043.475c.617.033 1.07.176 1.361.426.296.246.445.583.445 1.012 0 .196-.035.378-.102.545a1.119 1.119 0 0 1-.305.432 1.508 1.508 0 0 1-.52.287c-.208.067-.451.1-.73.1-.113 0-.227-.009-.344-.025a4.143 4.143 0 0 1-.338-.063 3.15 3.15 0 0 1-.281-.068 1.41 1.41 0 0 1-.188-.068l.143-.639c.087.042.212.089.375.139.167.046.37.068.607.068.163 0 .301-.017.418-.051a.792.792 0 0 0 .281-.148.561.561 0 0 0 .162-.213.809.809 0 0 0-.031-.631.66.66 0 0 0-.287-.275 1.68 1.68 0 0 0-.543-.17 5.342 5.342 0 0 0-.857-.055c.046-.4.082-.78.107-1.139.025-.363.046-.725.063-1.088z" fill="#ececec"/></svg>