<svg xmlns="http://www.w3.org/2000/svg" viewBox="0 0 24 24"><path d="M4 2c-1.108 0-2 .892-2 2v16c0 1.108.892 2 2 2h16c1.108 0 2-.892 2-2V4c0-1.108-.892-2-2-2H4zm2.363 5.588h1.488a61.085 61.085 0 0 1 1.674 3.875c.283.7.572 1.441.863 2.225.3.783.613 1.637.938 2.563H9.627a37.66 37.66 0 0 0-.363-1.012 27.837 27.837 0 0 1-.363-1.025H5.253c-.117.35-.238.695-.363 1.037l-.35 1H2.901a146.468 146.468 0 0 1 1.776-4.788c.283-.7.563-1.367.838-2s.558-1.258.85-1.875zm.713 1.674c-.192.442-.412.98-.662 1.613-.242.633-.497 1.321-.764 2.063h2.852a84.01 84.01 0 0 0-.775-2.074 50.599 50.599 0 0 0-.65-1.602zm5.05.451h4.963v1.063c-.167.175-.387.42-.662.736-.267.317-.555.671-.863 1.063-.308.383-.621.788-.938 1.213-.308.417-.588.818-.838 1.201h3.375v1.262h-5.199v-.938c.183-.333.412-.696.688-1.088.275-.392.558-.782.85-1.174.292-.4.58-.78.863-1.139.292-.358.55-.671.775-.938h-3.01V9.712zm7.418 4.705h.531v4.332h-.756v-3.318a2.405 2.405 0 0 1-.426.256 4.402 4.402 0 0 1-.494.207l-.23-.576a4.59 4.59 0 0 0 .725-.369c.246-.15.463-.327.65-.531z" fill="#ececec"/></svg>