<svg viewBox="0 0 24 24" xmlns="http://www.w3.org/2000/svg"><path d="M4 2c-1.108 0-2 .892-2 2v16c0 1.108.892 2 2 2h16c1.108 0 2-.892 2-2V4c0-1.108-.892-2-2-2H4zm10.451 4.801v3.236c.167-.058.358-.109.574-.15.225-.042.445-.063.662-.063.525 0 .959.077 1.301.227.35.142.63.345.838.611.208.258.354.571.438.938.092.367.137.775.137 1.225v3.676h-1.512v-3.438c0-.35-.026-.645-.076-.887-.042-.25-.116-.452-.225-.602a.821.821 0 0 0-.412-.336 1.653 1.653 0 0 0-.65-.113c-.2 0-.403.021-.611.063-.208.042-.363.08-.463.113V16.5h-1.514V7.051l1.514-.25zM4.912 7.838h6.912v1.361H9.162V16.5H7.574V9.199H4.912V7.838z" fill="#ececec"/></svg>