<svg xmlns="http://www.w3.org/2000/svg" viewBox="0 0 24 24"><path d="M4 2c-1.108 0-2 .892-2 2v16c0 1.108.892 2 2 2h16c1.108 0 2-.892 2-2V4c0-1.108-.892-2-2-2H4zm1.631 5.5c.725 0 1.388.087 1.988.262.6.167 1.112.434 1.537.801a3.5 3.5 0 0 1 1 1.375c.233.55.35 1.208.35 1.975 0 .75-.116 1.405-.35 1.963a3.733 3.733 0 0 1-1 1.387 4.178 4.178 0 0 1-1.551.826c-.6.175-1.267.262-2 .262-.35 0-.746-.015-1.188-.049a7.511 7.511 0 0 1-1.262-.176V7.714c.4-.092.825-.151 1.275-.176.45-.025.849-.037 1.199-.037zm.1 1.363c-.467 0-.8.012-1 .037v6.05c.092.008.213.017.363.025h.611c1.058 0 1.847-.265 2.363-.799.525-.542.787-1.297.787-2.264 0-.983-.253-1.737-.762-2.262-.508-.525-1.297-.787-2.363-.787zm9.107.688c.9 0 1.6.278 2.1.836.508.558.764 1.392.764 2.5 0 .083-.005.181-.014.289 0 .1-.003.19-.012.273h-4.313c.042.525.224.935.549 1.227.333.283.813.424 1.438.424.367 0 .7-.033 1-.1.308-.067.552-.138.727-.213l.199 1.238a2.73 2.73 0 0 1-.35.137c-.142.042-.308.08-.5.113a5.807 5.807 0 0 1-1.264.137c-.575 0-1.075-.083-1.5-.25a2.89 2.89 0 0 1-1.049-.713A2.98 2.98 0 0 1 12 14.375a4.468 4.468 0 0 1-.199-1.363c0-.575.083-1.078.25-1.512.175-.433.404-.791.688-1.074a2.69 2.69 0 0 1 .975-.65c.367-.15.742-.225 1.125-.225zm.012 1.262c-.233 0-.436.045-.611.137a1.386 1.386 0 0 0-.451.338 1.627 1.627 0 0 0-.273.488 2.619 2.619 0 0 0-.139.563h2.813c0-.208-.03-.405-.088-.588a1.294 1.294 0 0 0-.262-.488 1.044 1.044 0 0 0-.412-.324 1.228 1.228 0 0 0-.576-.125zm3.811 3.605h2.895v.576a4.305 4.305 0 0 0-.451.631 7.342 7.342 0 0 0-.461.906 8.397 8.397 0 0 0-.383 1.074 5.82 5.82 0 0 0-.193 1.145h-.775c.025-.317.082-.65.17-1 .087-.35.193-.69.318-1.02.129-.333.268-.642.418-.93.154-.292.307-.537.457-.732h-1.994v-.65z" fill="#ececec"/></svg>