<svg xmlns="http://www.w3.org/2000/svg" viewBox="0 0 24 24"><path d="M4 2c-1.108 0-2 .892-2 2v16c0 1.108.892 2 2 2h16c1.108 0 2-.892 2-2V4c0-1.108-.892-2-2-2H4zm3.205 5.5c1.258 0 2.22.229 2.887.688.675.458 1.014 1.175 1.014 2.15 0 .508-.092.946-.275 1.313a2.277 2.277 0 0 1-.775.887c-.342.225-.758.392-1.25.5a7.913 7.913 0 0 1-1.688.162h-.787v3.051H4.757V7.714a7.38 7.38 0 0 1 1.211-.162c.45-.033.863-.051 1.238-.051zm6.701.238v1.975h2.324v1.262h-2.324v2.662c0 .525.083.9.25 1.125.167.225.45.338.85.338.275 0 .516-.03.725-.088.217-.058.387-.112.512-.162l.25 1.201c-.175.075-.404.15-.688.225a3.575 3.575 0 0 1-1 .125c-.467 0-.857-.063-1.174-.188a1.755 1.755 0 0 1-.738-.537 2.22 2.22 0 0 1-.387-.863 5.444 5.444 0 0 1-.113-1.162V7.989l1.514-.25zM7.318 8.863c-.4 0-.73.012-.988.037v2.949h.762c.758 0 1.342-.104 1.75-.313.408-.217.613-.621.613-1.213a1.43 1.43 0 0 0-.162-.711 1.17 1.17 0 0 0-.451-.451 2.04 2.04 0 0 0-.688-.225 4.393 4.393 0 0 0-.836-.074zm11.1 5.455c.508 0 .892.165 1.15.494.262.325.393.785.393 1.381 0 .842-.217 1.479-.65 1.912-.433.433-1.096.652-1.992.656l-.031-.631c.25 0 .474-.021.674-.063.204-.042.381-.108.531-.199a1.29 1.29 0 0 0 .389-.357c.104-.15.182-.332.236-.549a1.742 1.742 0 0 1-.682.142c-.258 0-.479-.033-.662-.1a1.231 1.231 0 0 1-.443-.287 1.198 1.198 0 0 1-.25-.432 1.66 1.66 0 0 1-.082-.525c0-.162.028-.326.082-.492.054-.171.139-.327.256-.469a1.385 1.385 0 0 1 1.082-.483zm.018.625a.623.623 0 0 0-.313.076.652.652 0 0 0-.205.193.842.842 0 0 0-.119.256 1.026 1.026 0 0 0-.037.27c0 .254.061.445.182.574.125.129.318.193.58.193.121 0 .241-.01.357-.031.117-.025.215-.06.299-.105.004-.046.006-.086.006-.119v-.088c0-.167-.012-.323-.037-.469a1.158 1.158 0 0 0-.119-.387.618.618 0 0 0-.23-.264.62.62 0 0 0-.363-.1z" fill="#ececec"/></svg>