<svg xmlns="http://www.w3.org/2000/svg" viewBox="0 0 24 24"><path d="M4 2c-1.108 0-2 .892-2 2v16c0 1.108.892 2 2 2h16c1.108 0 2-.892 2-2V4c0-1.108-.892-2-2-2H4zm1.463 5.588h5.475v1.338h-3.9v2.211h3.463v1.338H7.038v3.775H5.464V7.588zm9.04 1.986c.1 0 .216.009.35.025.133.008.267.026.4.051.133.017.262.041.387.074.125.025.226.051.301.076l-.264 1.273a4.075 4.075 0 0 0-.523-.125 3.44 3.44 0 0 0-1.301-.023 3.22 3.22 0 0 0-.387.086v5.238h-1.514v-6.225a7.961 7.961 0 0 1 1.088-.301c.442-.1.93-.15 1.463-.15zm3.291 4.744c.246 0 .454.037.625.107.175.071.317.161.426.273.113.113.194.238.244.375.05.137.074.271.074.4 0 .229-.063.434-.188.613a1.569 1.569 0 0 1-.432.418c.246.133.428.288.545.463.121.175.18.382.18.619 0 .179-.031.346-.094.5a1.078 1.078 0 0 1-.281.4 1.305 1.305 0 0 1-.469.262 1.955 1.955 0 0 1-.637.094c-.283 0-.52-.04-.707-.119a1.269 1.269 0 0 1-.449-.299 1.137 1.137 0 0 1-.244-.389 1.297 1.297 0 0 1-.068-.4c0-.125.017-.24.051-.344.038-.108.086-.205.148-.293.063-.092.134-.175.213-.25.079-.075.163-.141.25-.199a1.5 1.5 0 0 1-.432-.432 1.13 1.13 0 0 1-.137-.576 1.149 1.149 0 0 1 .375-.856 1.36 1.36 0 0 1 .438-.27c.171-.067.36-.1.568-.1zm0 .619a.696.696 0 0 0-.293.057.498.498 0 0 0-.193.137.55.55 0 0 0-.15.37c0 .158.057.308.174.449.121.142.322.255.602.338.154-.096.274-.203.361-.324a.812.812 0 0 0 .131-.475.48.48 0 0 0-.037-.176.446.446 0 0 0-.111-.182.64.64 0 0 0-.482-.194zm-.23 1.855a1.21 1.21 0 0 0-.363.352.822.822 0 0 0-.137.48c0 .063.012.128.037.199a.52.52 0 0 0 .125.195.74.74 0 0 0 .225.148.903.903 0 0 0 .344.057.94.94 0 0 0 .326-.049.658.658 0 0 0 .225-.133.596.596 0 0 0 .131-.193.665.665 0 0 0-.025-.532.654.654 0 0 0-.199-.225 1.14 1.14 0 0 0-.301-.168 2.866 2.866 0 0 0-.387-.133z" fill="#ececec"/></svg>