<svg viewBox="0 0 24 24" xmlns="http://www.w3.org/2000/svg"><path d="M4 2c-1.108 0-2 .892-2 2v16c0 1.108.892 2 2 2h16c1.108 0 2-.892 2-2V4c0-1.108-.892-2-2-2H4zm.768 5.588h5.475v1.338h-3.9v2.211h3.463v1.338H6.343v3.775H4.769V7.588zm8.424 1.963c.5 0 .92.063 1.262.188.342.125.613.298.813.523.208.225.354.501.438.826.092.317.137.665.137 1.049V16.1c-.233.05-.588.109-1.063.176a10.07 10.07 0 0 1-1.586.111c-.392 0-.751-.036-1.076-.111a2.334 2.334 0 0 1-.838-.363 1.793 1.793 0 0 1-.537-.65c-.125-.267-.188-.595-.188-.986 0-.375.071-.693.213-.951.15-.258.35-.467.6-.625.25-.167.538-.283.863-.35a4.708 4.708 0 0 1 1.037-.111c.167 0 .342.012.525.037.183.017.38.05.588.1v-.25a1.94 1.94 0 0 0-.063-.5.955.955 0 0 0-.227-.412.944.944 0 0 0-.412-.287 1.72 1.72 0 0 0-.637-.102c-.35 0-.671.026-.963.076-.292.05-.53.107-.713.174l-.188-1.225a5.85 5.85 0 0 1 .838-.199c.367-.067.759-.1 1.176-.1zm.299 3.773c-.167 0-.337.014-.512.039-.167.025-.321.07-.463.137a.83.83 0 0 0-.324.287.763.763 0 0 0-.125.451c0 .358.111.608.336.75.225.133.531.199.914.199.467 0 .821-.024 1.063-.074v-1.676a2.99 2.99 0 0 0-.363-.074 3.373 3.373 0 0 0-.525-.039zm5.354 1.094h.719v2.676h.486v.619h-.486v1.037h-.738v-1.037h-1.9v-.537c.083-.183.195-.395.332-.633a14.007 14.007 0 0 1 1.012-1.468 8.58 8.58 0 0 1 .576-.656zm-.02.932a8.61 8.61 0 0 0-1.157 1.745h1.156v-1.744z" fill="#ececec"/></svg>