<svg viewBox="0 0 24 24" xmlns="http://www.w3.org/2000/svg"><path d="M4 2c-1.108 0-2 .892-2 2v16c0 1.108.892 2 2 2h16c1.108 0 2-.892 2-2V4c0-1.108-.892-2-2-2H4zm9.65 4.551v5.711l.613-.637.637-.688c.208-.233.405-.454.588-.662.192-.217.355-.404.488-.563h1.787c-.417.467-.858.949-1.324 1.449-.458.5-.922.988-1.389 1.463.25.208.512.462.787.762.275.292.542.604.801.938.258.333.5.667.725 1 .225.333.413.642.563.926h-1.75a11.18 11.18 0 0 0-.525-.813 9.757 9.757 0 0 0-.625-.824 11.662 11.662 0 0 0-.688-.75 5.502 5.502 0 0 0-.688-.613v3h-1.512V6.801l1.512-.25zM3.361 7.588h1.588v5.262c0 .392.042.73.125 1.014.092.275.217.499.375.674.167.175.36.305.576.389.225.083.475.125.75.125s.525-.042.75-.125a1.43 1.43 0 0 0 .574-.389c.167-.175.292-.399.375-.674.092-.283.137-.622.137-1.014V7.588h1.588V13c0 .5-.071.958-.213 1.375a2.88 2.88 0 0 1-.625 1.088c-.275.308-.629.55-1.063.725-.433.167-.945.25-1.537.25s-1.1-.083-1.525-.25a2.936 2.936 0 0 1-1.063-.725 2.962 2.962 0 0 1-.611-1.088A4.504 4.504 0 0 1 3.361 13V7.588zm16.824 6.83h.719v2.676h.488v.619h-.488v1.037h-.736v-1.037h-1.9v-.537c.083-.183.193-.395.33-.633a14.007 14.007 0 0 1 1.014-1.468c.192-.242.383-.46.574-.656zm-.018.932a8.61 8.61 0 0 0-1.157 1.745h1.156v-1.744z" fill="#ececec"/></svg>