<svg viewBox="0 0 24 24" xmlns="http://www.w3.org/2000/svg"><path d="M4 2c-1.108 0-2 .892-2 2v16c0 1.108.892 2 2 2h16c1.108 0 2-.892 2-2V4c0-1.108-.892-2-2-2H4zm8.869 4.551v5.711l.613-.637.637-.688c.208-.233.405-.454.588-.662.192-.217.355-.404.488-.563h1.787c-.417.467-.858.949-1.324 1.449-.458.5-.922.988-1.389 1.463.25.208.512.462.787.762.275.292.542.604.801.938.258.333.5.667.725 1 .225.333.413.642.563.926h-1.75a11.18 11.18 0 0 0-.525-.813 9.757 9.757 0 0 0-.625-.824 11.662 11.662 0 0 0-.688-.75 5.502 5.502 0 0 0-.688-.613v3h-1.512V6.801l1.512-.25zM3.33 7.588h6.914v1.361H7.58v7.301H5.994V8.949H3.33V7.588zm15.887 6.83h.531v4.332h-.756v-3.318a2.405 2.405 0 0 1-.426.256 4.378 4.378 0 0 1-.492.207l-.232-.576a4.59 4.59 0 0 0 .725-.369c.246-.15.463-.327.65-.531z" fill="#ececec"/></svg>