<svg xmlns="http://www.w3.org/2000/svg" width="24" height="24"><defs><style id="current-color-scheme" type="text/css">.ColorScheme-Text{color:#dfdfdf}</style></defs><g transform="translate(0 -1028.4)"><path class="ColorScheme-Text" d="M13.007 1035.1l-6.035 6.035c.937.367 1.813.941 2.557 1.685a1 1 0 0 0 .002 0 7.515 7.515 0 0 1 1.682 2.558l6.037-6.037-4.243-4.242zM7.408 1032.2l-1.414 1.414 1.414 1.414 1.414-1.414-1.414-1.414zm2.122 2.121l-1.415 1.415 1.415 1.414 1.414-1.414-1.414-1.415zm-4.243 0l-1.414 1.415 1.414 1.414 1.414-1.414-1.414-1.415zm2.121 2.122l-1.414 1.414 1.414 1.414 1.415-1.414-1.415-1.414zM16.601 1041.4l-1.414 1.414 1.414 1.414 1.414-1.414-1.414-1.414zm2.121 2.121l-1.414 1.415 1.414 1.414 1.414-1.414-1.414-1.415zm-4.242 0l-1.414 1.415 1.414 1.414 1.414-1.414-1.414-1.415zm2.121 2.122l-1.414 1.414 1.414 1.414 1.414-1.414-1.414-1.414zM8.822 1043.5c-1.362-1.363-3.209-2.06-4.906-1.786a.5.5 0 0 0-.274.848l6.116 6.116a.5.5 0 0 0 .848-.274c.274-1.696-.424-3.54-1.783-4.904z" fill="currentColor"/><path fill-rule="evenodd" class="ColorScheme-Text" d="M16.295 1035.045l-.826.826 1.062 1.06.826-.826a2.53 2.53 0 0 1-1.062-1.06z" fill="currentColor"/><circle class="ColorScheme-Text" cx="18.5" cy="1033.9" r="1.5" fill="currentColor"/></g></svg>