<svg viewBox="0 0 24 24" xmlns="http://www.w3.org/2000/svg"><path d="M4 2c-1.108 0-2 .892-2 2v16c0 1.108.892 2 2 2h16c1.108 0 2-.892 2-2V4c0-1.108-.892-2-2-2H4zm-.479 5.588h1.576v3.463h3.762V7.588h1.576v8.662H8.859v-3.838H5.097v3.838H3.521V7.588zm8.06 2.125h1.611c.083.35.184.728.301 1.137.125.408.259.825.4 1.25.142.417.291.833.449 1.25.158.417.316.804.475 1.162.267-.742.517-1.528.75-2.361.233-.842.447-1.654.639-2.438h1.563c-.675 2.483-1.458 4.733-2.35 6.75a6.842 6.842 0 0 1-.514.963 2.84 2.84 0 0 1-.588.662c-.217.175-.458.3-.725.375a3.111 3.111 0 0 1-.924.125c-.233 0-.468-.026-.701-.076a2.352 2.352 0 0 1-.512-.162l.275-1.213c.3.117.595.176.887.176.392 0 .695-.095.912-.287.225-.183.421-.472.588-.863a36.591 36.591 0 0 1-1.375-3 34.317 34.317 0 0 1-1.162-3.449zm8.318 4.705h.531v4.332h-.756v-3.318a2.405 2.405 0 0 1-.426.256 4.378 4.378 0 0 1-.492.207l-.232-.576a4.59 4.59 0 0 0 .725-.369c.246-.15.463-.327.65-.531z" fill="#ececec"/></svg>