<svg viewBox="0 0 24 24" xmlns="http://www.w3.org/2000/svg"><path d="M4 2c-1.108 0-2 .892-2 2v16c0 1.108.892 2 2 2h16c1.108 0 2-.892 2-2V4c0-1.108-.892-2-2-2H4zm2.818 5.588h1.574v8.662H6.818V7.588zm5.02.15v1.975h2.326v1.262h-2.326v2.662c0 .525.083.9.25 1.125.167.225.452.338.852.338.275 0 .516-.03.725-.088.217-.058.387-.112.512-.162l.25 1.201c-.175.075-.404.15-.688.225a3.575 3.575 0 0 1-1 .125c-.467 0-.857-.063-1.174-.188a1.755 1.755 0 0 1-.738-.537 2.22 2.22 0 0 1-.387-.863 5.444 5.444 0 0 1-.113-1.162V7.989l1.512-.25zm5.775 6.656l.043.625a2.99 2.99 0 0 0-.631.074 1.74 1.74 0 0 0-.525.199 1.424 1.424 0 0 0-.398.357 1.608 1.608 0 0 0-.25.537c.204-.096.426-.145.668-.145.258 0 .477.038.656.113.183.071.331.168.443.293.113.125.194.271.244.438a1.55 1.55 0 0 1-.006 1.014 1.343 1.343 0 0 1-.264.469 1.438 1.438 0 0 1-.443.344 1.442 1.442 0 0 1-.637.131c-.496 0-.876-.163-1.139-.488-.258-.329-.387-.78-.387-1.355 0-.417.061-.785.182-1.105.125-.325.3-.599.525-.82.229-.221.503-.387.824-.5.325-.117.69-.176 1.094-.18zm-1.188 2.25c-.121 0-.237.01-.35.031a1.314 1.314 0 0 0-.307.094l-.012.111v.113c0 .167.01.325.031.475.025.146.063.274.117.387a.76.76 0 0 0 .232.264c.1.063.223.094.369.094a.582.582 0 0 0 .305-.076.639.639 0 0 0 .213-.193.842.842 0 0 0 .119-.256c.025-.096.037-.188.037-.275 0-.25-.061-.439-.182-.568-.121-.133-.312-.199-.574-.199z" fill="#ececec"/></svg>