<svg xmlns="http://www.w3.org/2000/svg" width="24" height="24"><defs><style id="current-color-scheme" type="text/css">.ColorScheme-Text{color:#dfdfdf}</style></defs><g class="ColorScheme-Text" transform="translate(4 -1029.4)" fill="currentColor"><rect width="9" height="9" x="5" y="1038.4" rx=".25" ry=".25"/><rect width="1" height="2" x="13" y="1033.4" rx=".25" ry=".25"/><rect width="1" height="2" x="9" y="1033.4" rx=".25" ry=".25"/><rect width="1" height="2" x="5" y="1033.4" rx=".25" ry=".25"/><g class="ColorScheme-Text" transform="rotate(90 2 1031.4)"><rect width="1" height="2" x="17" y="1031.4" rx=".25" ry=".25"/><rect width="1" height="2" x="13" y="1031.4" rx=".25" ry=".25"/><rect width="1" height="2" x="9" y="1031.4" rx=".25" ry=".25"/></g><path class="ColorScheme-Text" d="M3.25 1035.4c-.693 0-1.25.557-1.25 1.25v.775c.572.116 1 .618 1 1.225v.5c0 .607-.428 1.11-1 1.225v1.05c.572.116 1 .618 1 1.225v.5c0 .607-.428 1.109-1 1.225v1.05c.572.116 1 .618 1 1.225v.5c0 .599-.418 1.095-.979 1.219a1.245 1.245 0 0 0 1.229 1.031h11.5c.692 0 1.25-.558 1.25-1.25v-11.5c0-.609-.431-1.111-1.006-1.225a.994.994 0 0 1-.994.975h-1c-.554 0-1-.446-1-1h-1c0 .554-.446 1-1 1H9c-.554 0-1-.446-1-1H7c0 .554-.446 1-1 1H5c-.554 0-1-.446-1-1h-.75zm1.75 2h9c.554 0 1 .446 1 1v9c0 .554-.446 1-1 1H5c-.554 0-1-.446-1-1v-9c0-.554.446-1 1-1z"/></g></svg>