<svg viewBox="0 0 24 24" xmlns="http://www.w3.org/2000/svg"><path d="M4 2c-1.108 0-2 .892-2 2v16c0 1.108.892 2 2 2h16c1.108 0 2-.892 2-2V4c0-1.108-.892-2-2-2H4zm4.361 5.387c.4 0 .754.03 1.063.088.317.05.587.109.812.176.225.067.409.138.551.213.15.075.254.129.313.162l-.475 1.287a3.663 3.663 0 0 0-.938-.375 4.108 4.108 0 0 0-1.164-.162c-.892 0-1.574.28-2.049.838-.467.55-.701 1.315-.701 2.299 0 .467.056.895.164 1.287.117.383.283.713.5.988.225.275.499.492.824.65.333.15.72.225 1.162.225.275 0 .513-.009.713-.025.2-.025.358-.055.475-.088v-3.111h1.576v4.162c-.217.083-.585.175-1.102.275-.517.1-1.112.15-1.787.15a4.711 4.711 0 0 1-1.713-.301 3.602 3.602 0 0 1-1.324-.875 4.029 4.029 0 0 1-.838-1.412c-.2-.558-.299-1.201-.299-1.926 0-.725.108-1.365.324-1.924a4.185 4.185 0 0 1 .912-1.414 3.76 3.76 0 0 1 1.35-.887 4.534 4.534 0 0 1 1.65-.301zm7.133 2.188c.1 0 .216.009.35.025.133.008.267.026.4.051.133.017.262.041.387.074.125.025.226.051.301.076l-.262 1.273a4.12 4.12 0 0 0-.525-.125 3.44 3.44 0 0 0-1.301-.023 3.22 3.22 0 0 0-.387.086v5.238h-1.514v-6.225a7.961 7.961 0 0 1 1.088-.301c.442-.1.93-.15 1.463-.15zm3.174 4.744c.462 0 .801.111 1.018.332.221.217.332.513.332.893 0 .15-.031.299-.094.445-.063.142-.144.28-.244.418a3.68 3.68 0 0 1-.332.395c-.125.125-.25.246-.375.367a6.134 6.134 0 0 0-.461.489 2.416 2.416 0 0 0-.195.256.439.439 0 0 0-.086.201h1.924v.637h-2.756a1.012 1.012 0 0 1-.006-.119v-.111c0-.2.031-.384.094-.551.067-.171.152-.329.256-.475.104-.146.22-.283.35-.412.129-.129.26-.258.389-.383.1-.096.195-.19.287-.281.092-.092.17-.18.236-.268.071-.092.128-.184.17-.275a.722.722 0 0 0 .063-.293c0-.217-.063-.371-.188-.463a.752.752 0 0 0-.457-.139.996.996 0 0 0-.324.051c-.1.033-.19.073-.27.119a1.52 1.52 0 0 0-.199.143 1.611 1.611 0 0 0-.131.113l-.375-.531c.175-.167.378-.3.611-.4.238-.104.493-.156.764-.156z" fill="#ececec"/></svg>