<svg viewBox="0 0 24 24" xmlns="http://www.w3.org/2000/svg"><path d="M4 2c-1.108 0-2 .892-2 2v16c0 1.108.892 2 2 2h16c1.108 0 2-.892 2-2V4c0-1.108-.892-2-2-2H4zm1.631 5.5c.725 0 1.388.087 1.988.262.6.167 1.112.434 1.537.801a3.5 3.5 0 0 1 1 1.375c.233.55.35 1.208.35 1.975 0 .75-.116 1.405-.35 1.963a3.733 3.733 0 0 1-1 1.387 4.178 4.178 0 0 1-1.551.826c-.6.175-1.267.262-2 .262-.35 0-.746-.015-1.188-.049a7.511 7.511 0 0 1-1.262-.176V7.714c.4-.092.825-.151 1.275-.176.45-.025.849-.037 1.199-.037zm.1 1.363c-.467 0-.8.012-1 .037v6.05c.092.008.213.017.363.025h.611c1.058 0 1.847-.265 2.363-.799.525-.542.787-1.297.787-2.264 0-.983-.253-1.737-.762-2.262-.508-.525-1.297-.787-2.363-.787zm9.107.688c.9 0 1.6.278 2.1.836.508.558.764 1.392.764 2.5 0 .083-.005.181-.014.289 0 .1-.003.19-.012.273h-4.313c.042.525.224.935.549 1.227.333.283.813.424 1.438.424.367 0 .7-.033 1-.1.308-.067.552-.138.727-.213l.199 1.238a2.73 2.73 0 0 1-.35.137c-.142.042-.308.08-.5.113a5.807 5.807 0 0 1-1.264.137c-.575 0-1.075-.083-1.5-.25a2.89 2.89 0 0 1-1.049-.713A2.98 2.98 0 0 1 12 14.375a4.468 4.468 0 0 1-.199-1.363c0-.575.083-1.078.25-1.512.175-.433.404-.791.688-1.074a2.69 2.69 0 0 1 .975-.65c.367-.15.742-.225 1.125-.225zm.012 1.262c-.233 0-.436.045-.611.137a1.386 1.386 0 0 0-.451.338 1.627 1.627 0 0 0-.273.488 2.619 2.619 0 0 0-.139.563h2.813c0-.208-.03-.405-.088-.588a1.294 1.294 0 0 0-.262-.488 1.044 1.044 0 0 0-.412-.324 1.228 1.228 0 0 0-.576-.125zm4.273 3.605h2.213v.639h-1.568a6.088 6.088 0 0 1-.02.244 5.135 5.135 0 0 1-.02.268 4.218 4.218 0 0 1-.043.475c.617.033 1.072.176 1.363.426.296.246.443.583.443 1.012 0 .196-.033.378-.1.545a1.124 1.124 0 0 1-.307.432 1.517 1.517 0 0 1-.52.287c-.208.067-.451.1-.73.1-.113 0-.227-.009-.344-.025a4.143 4.143 0 0 1-.338-.063 3.15 3.15 0 0 1-.281-.068 1.41 1.41 0 0 1-.188-.068l.145-.639c.087.042.212.089.375.139.167.046.368.068.605.068.163 0 .301-.017.418-.051a.792.792 0 0 0 .281-.148.567.567 0 0 0 .164-.213.808.808 0 0 0-.031-.631.666.666 0 0 0-.289-.275 1.68 1.68 0 0 0-.543-.17 5.315 5.315 0 0 0-.855-.055c.046-.4.08-.78.105-1.139.025-.363.046-.725.063-1.088z" fill="#ececec"/></svg>