<svg xmlns="http://www.w3.org/2000/svg" viewBox="0 0 24 24"><path d="M4 2c-1.108 0-2 .892-2 2v16c0 1.108.892 2 2 2h16c1.108 0 2-.892 2-2V4c0-1.108-.892-2-2-2H4zm5.502 5.637c.567 0 1.105.097 1.613.289.508.192.949.478 1.324.861.383.383.687.859.912 1.426.225.558.338 1.208.338 1.949 0 .742-.113 1.396-.338 1.963a4.019 4.019 0 0 1-.898 1.426 3.704 3.704 0 0 1-1.326.85 4.559 4.559 0 0 1-1.625.287 4.66 4.66 0 0 1-1.637-.287 3.823 3.823 0 0 1-1.338-.85 4.25 4.25 0 0 1-.9-1.426c-.225-.567-.338-1.221-.338-1.963s.113-1.391.338-1.949a4.162 4.162 0 0 1 .912-1.426c.392-.383.843-.67 1.352-.861a4.519 4.519 0 0 1 1.611-.289zM9.49 9.026c-.4 0-.76.075-1.076.225-.317.15-.588.362-.813.637a2.984 2.984 0 0 0-.5.988 4.399 4.399 0 0 0-.174 1.287c0 .475.057.909.174 1.301.117.383.283.711.5.986a2.383 2.383 0 0 0 1.889.852c.392 0 .746-.077 1.062-.227a2.26 2.26 0 0 0 .799-.625c.225-.275.397-.603.514-.986a4.54 4.54 0 0 0 .174-1.301c0-.475-.057-.904-.174-1.287a2.71 2.71 0 0 0-.514-.988 2.204 2.204 0 0 0-.799-.637 2.452 2.452 0 0 0-1.062-.225zm8.391.799c.1 0 .216.009.35.025.133.008.267.026.4.051.133.017.262.041.387.074.125.025.226.051.301.076l-.264 1.273a4.075 4.075 0 0 0-.523-.125 3.44 3.44 0 0 0-1.301-.023 3.22 3.22 0 0 0-.387.086V16.5H15.33v-6.225a7.961 7.961 0 0 1 1.088-.301c.442-.1.93-.15 1.463-.15z" fill="#ececec"/></svg>