<svg xmlns="http://www.w3.org/2000/svg" viewBox="0 0 24 24"><path d="M4 2c-1.108 0-2 .892-2 2v16c0 1.108.892 2 2 2h16c1.108 0 2-.892 2-2V4c0-1.108-.892-2-2-2H4zm10.188 4.551v7.486c0 .183.012.338.037.463a.838.838 0 0 0 .162.324.8.8 0 0 0 .301.201c.133.042.3.075.5.1l-.213 1.25c-.45-.008-.825-.059-1.125-.15a1.757 1.757 0 0 1-.699-.387 1.496 1.496 0 0 1-.375-.639 3.49 3.49 0 0 1-.1-.875V6.801l1.512-.25zm-5.613.836c.542 0 1.021.063 1.438.188.425.117.758.247 1 .389l-.488 1.275a3.711 3.711 0 0 0-.938-.363 4.274 4.274 0 0 0-1.037-.125c-.425 0-.758.087-1 .262-.233.175-.35.422-.35.738 0 .192.038.358.113.5.083.133.194.255.336.363.15.108.322.207.514.299.2.092.417.18.65.264.408.15.769.303 1.086.461.325.15.596.334.813.551.225.208.397.458.514.75.117.283.174.629.174 1.037 0 .783-.278 1.393-.836 1.826-.55.425-1.359.637-2.426.637-.358 0-.688-.024-.988-.074a5.893 5.893 0 0 1-1.375-.363 4.417 4.417 0 0 1-.398-.199l.461-1.289c.225.125.531.25.914.375s.845.188 1.387.188c.567 0 .98-.095 1.238-.287.258-.192.387-.463.387-.813 0-.208-.045-.387-.137-.537a1.199 1.199 0 0 0-.375-.4 2.599 2.599 0 0 0-.588-.338 7.729 7.729 0 0 0-.801-.313 13.4 13.4 0 0 1-.875-.35 3.22 3.22 0 0 1-.736-.486 2.38 2.38 0 0 1-.514-.688c-.125-.267-.188-.588-.188-.963 0-.783.271-1.396.813-1.838.542-.45 1.28-.676 2.213-.676zm8.813 7.03h.531v4.332h-.758v-3.318a2.381 2.381 0 0 1-.424.256 4.402 4.402 0 0 1-.494.207l-.23-.576a4.59 4.59 0 0 0 .725-.369c.246-.15.463-.327.65-.531z" fill="#ececec"/></svg>