<svg viewBox="0 0 24 24" xmlns="http://www.w3.org/2000/svg"><path d="M4 2c-1.108 0-2 .892-2 2v16c0 1.108.892 2 2 2h16c1.108 0 2-.892 2-2V4c0-1.108-.892-2-2-2H4zm2.07 5.5c.525 0 1.013.042 1.463.125.45.075.837.203 1.162.387.333.183.592.427.775.727.183.3.275.67.275 1.111 0 .408-.101.759-.301 1.051a2.033 2.033 0 0 1-.813.699c.525.175.912.434 1.162.775.25.342.375.776.375 1.301 0 .892-.325 1.562-.975 2.01-.65.442-1.647.662-2.988.662-.458 0-.92-.015-1.387-.049a6.144 6.144 0 0 1-1.225-.176V7.711c.183-.033.38-.063.588-.088a7.65 7.65 0 0 1 .637-.074 15.983 15.983 0 0 1 1.25-.051zm.199 1.287c-.242 0-.457.005-.648.014-.183.008-.343.02-.477.037v2.275h1.113c.6 0 1.07-.083 1.412-.25.342-.175.514-.484.514-.926 0-.417-.181-.712-.539-.887-.35-.175-.808-.264-1.375-.264zm8.129.764c.9 0 1.6.278 2.1.836.508.558.764 1.392.764 2.5 0 .083-.005.181-.014.289 0 .1-.003.19-.012.273h-4.313c.042.525.224.935.549 1.227.333.283.813.424 1.438.424.367 0 .7-.033 1-.1.308-.067.552-.138.727-.213l.199 1.238a2.73 2.73 0 0 1-.35.137c-.142.042-.308.08-.5.113a5.807 5.807 0 0 1-1.264.137c-.575 0-1.075-.083-1.5-.25a2.89 2.89 0 0 1-1.049-.713 2.98 2.98 0 0 1-.613-1.074 4.468 4.468 0 0 1-.199-1.363c0-.575.083-1.078.25-1.512.175-.433.404-.791.688-1.074a2.69 2.69 0 0 1 .975-.65c.367-.15.742-.225 1.125-.225zm.012 1.262c-.233 0-.436.045-.611.137a1.386 1.386 0 0 0-.451.338 1.627 1.627 0 0 0-.273.488 2.619 2.619 0 0 0-.139.563h2.813c0-.208-.03-.405-.088-.588a1.294 1.294 0 0 0-.262-.488 1.044 1.044 0 0 0-.412-.324 1.228 1.228 0 0 0-.576-.125zM5.144 12.35v2.639a13.882 13.882 0 0 0 1.114.049c.325 0 .625-.021.9-.063.283-.042.525-.113.725-.213.208-.108.372-.249.488-.424.125-.175.188-.401.188-.676 0-.492-.181-.834-.539-1.025-.358-.192-.853-.287-1.486-.287H5.145zm14.871 2.068h.719v2.676h.486v.619h-.486v1.037h-.738v-1.037h-1.9v-.537c.083-.183.195-.395.332-.633a14.007 14.007 0 0 1 1.012-1.468 8.58 8.58 0 0 1 .576-.656zm-.02.932a8.61 8.61 0 0 0-1.157 1.745h1.156v-1.744z" fill="#ececec"/></svg>