<svg viewBox="0 0 24 24" xmlns="http://www.w3.org/2000/svg"><path d="M4 2c-1.108 0-2 .892-2 2v16c0 1.108.892 2 2 2h16c1.108 0 2-.892 2-2V4c0-1.108-.892-2-2-2H4zm12.348 4.551v7.486c0 .183.012.338.037.463a.842.842 0 0 0 .164.324.791.791 0 0 0 .299.201c.133.042.3.075.5.1l-.213 1.25c-.45-.008-.825-.059-1.125-.15a1.757 1.757 0 0 1-.699-.387 1.496 1.496 0 0 1-.375-.639 3.49 3.49 0 0 1-.1-.875V6.801l1.512-.25zM4.298 7.588h1.463c.183.317.388.704.613 1.162.225.458.454.941.688 1.449.233.5.463 1.014.688 1.539.233.517.445.996.637 1.438l.625-1.438c.225-.525.454-1.039.688-1.539.233-.508.463-.991.688-1.449.225-.458.43-.845.613-1.162h1.424a82.988 82.988 0 0 1 .389 4.212c.058.742.107 1.492.148 2.25.05.75.092 1.483.125 2.199h-1.549c-.033-1.01-.075-2.047-.125-3.113-.042-1.067-.11-2.1-.201-3.1-.092.192-.199.421-.324.688-.125.267-.259.558-.4.875-.142.308-.287.63-.438.963-.142.333-.282.658-.424.975l-.375.875-.301.688H7.774a138.28 138.28 0 0 1-.299-.699 32.353 32.353 0 0 0-.389-.875 42.76 42.76 0 0 0-.424-.975 36.538 36.538 0 0 0-.426-.963c-.142-.308-.275-.597-.4-.863a23.846 23.846 0 0 0-.324-.688c-.092 1-.163 2.033-.213 3.1a469.208 469.208 0 0 0-.111 3.113H3.637c.033-.717.072-1.458.113-2.225.05-.767.098-1.525.148-2.275.058-.758.121-1.491.187-2.199.067-.708.138-1.363.213-1.963zm15.246 6.83h.531v4.332h-.756v-3.318a2.405 2.405 0 0 1-.426.256 4.402 4.402 0 0 1-.494.207l-.23-.576a4.59 4.59 0 0 0 .725-.369c.246-.15.463-.327.65-.531z" fill="#ececec"/></svg>