<svg viewBox="0 0 24 24" xmlns="http://www.w3.org/2000/svg"><path d="M4 2c-1.108 0-2 .892-2 2v16c0 1.108.892 2 2 2h16c1.108 0 2-.892 2-2V4c0-1.108-.892-2-2-2H4zm1.768 5.588h1.576v8.662H5.768V7.588zm6.275 1.986c.533 0 .98.077 1.338.227.358.142.641.345.85.611.217.258.366.576.449.951.092.367.139.769.139 1.211v3.676h-1.514v-3.438c0-.35-.024-.645-.074-.887-.042-.25-.116-.452-.225-.602a.818.818 0 0 0-.426-.336 1.653 1.653 0 0 0-.65-.113 5.04 5.04 0 0 0-.6.037c-.208.025-.363.046-.463.063v5.275H9.355V9.925a10.181 10.181 0 0 1 2.688-.351zm5.33 4.744c.462 0 .803.111 1.02.332.221.217.33.513.33.893 0 .15-.031.299-.094.445a2.29 2.29 0 0 1-.242.418 3.68 3.68 0 0 1-.332.395c-.125.125-.25.246-.375.367a6.134 6.134 0 0 0-.225.227 6.334 6.334 0 0 0-.238.262 2.385 2.385 0 0 0-.193.256.446.446 0 0 0-.088.201h1.926v.637h-2.756a.97.97 0 0 1-.008-.119v-.111c0-.2.031-.384.094-.551a2.2 2.2 0 0 1 .258-.475c.104-.146.22-.283.35-.412.129-.129.258-.258.387-.383.1-.096.195-.19.287-.281a2.55 2.55 0 0 0 .238-.268c.071-.092.126-.184.168-.275a.722.722 0 0 0 .063-.293c0-.217-.063-.371-.188-.463a.746.746 0 0 0-.455-.139c-.117 0-.226.017-.326.051-.1.033-.188.073-.268.119a1.547 1.547 0 0 0-.201.143 1.611 1.611 0 0 0-.131.113l-.375-.531c.175-.167.38-.3.613-.4.238-.104.491-.156.762-.156z" fill="#ececec"/></svg>