<svg viewBox="0 0 24 24" xmlns="http://www.w3.org/2000/svg"><path d="M4 2c-1.108 0-2 .892-2 2v16c0 1.108.892 2 2 2h16c1.108 0 2-.892 2-2V4c0-1.108-.892-2-2-2H4zm1.631 5.5c.725 0 1.388.087 1.988.262.6.167 1.112.434 1.537.801a3.5 3.5 0 0 1 1 1.375c.233.55.35 1.208.35 1.975 0 .75-.116 1.405-.35 1.963a3.733 3.733 0 0 1-1 1.387 4.178 4.178 0 0 1-1.551.826c-.6.175-1.267.262-2 .262-.35 0-.746-.015-1.188-.049a7.511 7.511 0 0 1-1.262-.176V7.714c.4-.092.825-.151 1.275-.176.45-.025.849-.037 1.199-.037zm.1 1.363c-.467 0-.8.012-1 .037v6.05c.092.008.213.017.363.025h.611c1.058 0 1.847-.265 2.363-.799.525-.542.787-1.297.787-2.264 0-.983-.253-1.737-.762-2.262-.508-.525-1.297-.787-2.363-.787zm9.107.688c.9 0 1.6.278 2.1.836.508.558.764 1.392.764 2.5 0 .083-.005.181-.014.289 0 .1-.003.19-.012.273h-4.313c.042.525.224.935.549 1.227.333.283.813.424 1.438.424.367 0 .7-.033 1-.1.308-.067.552-.138.727-.213l.199 1.238a2.73 2.73 0 0 1-.35.137c-.142.042-.308.08-.5.113a5.807 5.807 0 0 1-1.264.137c-.575 0-1.075-.083-1.5-.25a2.89 2.89 0 0 1-1.049-.713A2.98 2.98 0 0 1 12 14.375a4.468 4.468 0 0 1-.199-1.363c0-.575.083-1.078.25-1.512.175-.433.404-.791.688-1.074a2.69 2.69 0 0 1 .975-.65c.367-.15.742-.225 1.125-.225zm.012 1.262c-.233 0-.436.045-.611.137a1.386 1.386 0 0 0-.451.338 1.627 1.627 0 0 0-.273.488 2.619 2.619 0 0 0-.139.563h2.813c0-.208-.03-.405-.088-.588a1.294 1.294 0 0 0-.262-.488 1.044 1.044 0 0 0-.412-.324 1.228 1.228 0 0 0-.576-.125zm5.254 3.506c.246 0 .454.037.625.107.175.071.317.161.426.273.113.113.194.238.244.375.05.137.074.271.074.4 0 .229-.063.434-.188.613a1.569 1.569 0 0 1-.432.418c.246.133.428.288.545.463.121.175.182.382.182.619 0 .179-.031.346-.094.5a1.078 1.078 0 0 1-.281.4 1.305 1.305 0 0 1-.469.262 1.968 1.968 0 0 1-.639.094 1.82 1.82 0 0 1-.705-.119 1.278 1.278 0 0 1-.451-.299 1.137 1.137 0 0 1-.244-.389 1.297 1.297 0 0 1-.068-.4c0-.125.017-.24.051-.344.037-.108.088-.205.15-.293.063-.092.132-.175.211-.25.079-.075.163-.141.25-.199a1.492 1.492 0 0 1-.43-.432 1.13 1.13 0 0 1-.139-.576 1.149 1.149 0 0 1 .375-.856 1.36 1.36 0 0 1 .438-.27c.171-.067.36-.1.568-.1zm0 .619a.696.696 0 0 0-.293.057.498.498 0 0 0-.193.137.55.55 0 0 0-.15.37c0 .158.059.308.176.449.121.142.32.255.6.338.154-.096.274-.203.361-.324a.813.813 0 0 0 .133-.475.485.485 0 0 0-.039-.176.446.446 0 0 0-.111-.182.63.63 0 0 0-.482-.194zm-.23 1.855a1.21 1.21 0 0 0-.363.352.822.822 0 0 0-.137.48c0 .063.012.128.037.199a.52.52 0 0 0 .125.195.74.74 0 0 0 .225.148.903.903 0 0 0 .344.057.94.94 0 0 0 .326-.049.658.658 0 0 0 .225-.133.596.596 0 0 0 .176-.418.653.653 0 0 0-.07-.307.654.654 0 0 0-.199-.225 1.14 1.14 0 0 0-.301-.168 2.866 2.866 0 0 0-.387-.133z" fill="#ececec"/></svg>