<svg xmlns="http://www.w3.org/2000/svg" viewBox="0 0 24 24"><path d="M4 2c-1.108 0-2 .892-2 2v16c0 1.108.892 2 2 2h16c1.108 0 2-.892 2-2V4c0-1.108-.892-2-2-2H4zm1.316 5.588H6.89v7.299h3.9v1.363H5.315V7.588zm8.03.15v1.975h2.326v1.262h-2.326v2.662c0 .525.083.9.25 1.125.167.225.45.338.85.338.275 0 .518-.03.727-.088.217-.058.387-.112.512-.162l.25 1.201c-.175.075-.404.15-.688.225a3.575 3.575 0 0 1-1 .125c-.467 0-.859-.063-1.176-.188a1.748 1.748 0 0 1-.736-.537 2.222 2.222 0 0 1-.389-.863 5.452 5.452 0 0 1-.111-1.162V7.989l1.512-.25zm4.395 6.58c.242 0 .45.03.625.088.175.058.317.142.43.25a.926.926 0 0 1 .258.375c.058.142.086.298.086.469a.9.9 0 0 1-.168.537c-.108.158-.251.28-.426.363.225.079.411.209.557.393.15.183.225.42.225.707 0 .192-.033.37-.1.537a1.134 1.134 0 0 1-.307.426c-.137.117-.311.21-.523.281-.208.067-.458.1-.75.1-.113 0-.231-.009-.352-.025a2.705 2.705 0 0 1-.336-.057 3.769 3.769 0 0 1-.289-.068 1.3 1.3 0 0 1-.199-.08l.15-.645c.087.042.214.09.381.145.167.05.373.074.619.074.329 0 .567-.063.713-.188a.649.649 0 0 0 .219-.512.634.634 0 0 0-.088-.344.584.584 0 0 0-.232-.219.93.93 0 0 0-.336-.119 2.044 2.044 0 0 0-.4-.037h-.256v-.613h.313c.096 0 .191-.009.287-.025a.902.902 0 0 0 .268-.1.62.62 0 0 0 .195-.193.568.568 0 0 0 .074-.307c0-.1-.019-.185-.057-.256a.553.553 0 0 0-.355-.276.973.973 0 0 0-.25-.031c-.188 0-.354.03-.5.088a2.1 2.1 0 0 0-.389.188l-.273-.563a2.456 2.456 0 0 1 .486-.238c.104-.037.215-.067.332-.088.117-.025.24-.037.369-.037z" fill="#ececec"/></svg>