<svg viewBox="0 0 24 24" xmlns="http://www.w3.org/2000/svg"><path d="M4 2c-1.108 0-2 .892-2 2v16c0 1.108.892 2 2 2h16c1.108 0 2-.892 2-2V4c0-1.108-.892-2-2-2H4zm2.961 5.588h1.488a63.958 63.958 0 0 1 1.676 3.875c.283.7.57 1.441.861 2.225.3.783.613 1.637.938 2.563h-1.699a37.66 37.66 0 0 0-.363-1.012 27.847 27.847 0 0 1-.361-1.025h-3.65c-.117.35-.238.695-.363 1.037l-.35 1H3.501a137.543 137.543 0 0 1 1.774-4.788c.283-.7.563-1.367.838-2s.558-1.258.85-1.875zm.713 1.674c-.192.442-.412.98-.662 1.613-.242.633-.495 1.321-.762 2.063H9.1a84.01 84.01 0 0 0-.775-2.074 50.599 50.599 0 0 0-.65-1.602zm7.82.313c.1 0 .216.009.35.025.133.008.267.026.4.051.133.017.262.041.387.074.125.025.226.051.301.076l-.262 1.273a4.12 4.12 0 0 0-.525-.125 3.44 3.44 0 0 0-1.301-.023 3.22 3.22 0 0 0-.387.086v5.238h-1.514v-6.225a7.961 7.961 0 0 1 1.088-.301c.442-.1.93-.15 1.463-.15zm3.205 4.744c.508 0 .89.165 1.148.494.262.325.395.785.395 1.381 0 .842-.217 1.479-.65 1.912-.433.433-1.098.652-1.994.656l-.031-.631c.25 0 .476-.021.676-.063.204-.042.381-.108.531-.199.154-.092.283-.212.387-.357.104-.15.184-.332.238-.549a1.723 1.723 0 0 1-.682.142c-.258 0-.479-.033-.662-.1a1.231 1.231 0 0 1-.443-.287 1.198 1.198 0 0 1-.25-.432 1.66 1.66 0 0 1-.082-.525c0-.162.028-.326.082-.492.054-.171.139-.327.256-.469a1.385 1.385 0 0 1 1.082-.483zm.018.625a.623.623 0 0 0-.313.076.652.652 0 0 0-.205.193.842.842 0 0 0-.119.256 1.026 1.026 0 0 0-.037.27c0 .254.059.445.18.574.125.129.32.193.582.193.121 0 .239-.01.355-.031a1.14 1.14 0 0 0 .301-.105c.004-.046.006-.086.006-.119v-.088c0-.167-.012-.323-.037-.469a1.158 1.158 0 0 0-.119-.387.618.618 0 0 0-.23-.264.62.62 0 0 0-.363-.1z" fill="#ececec"/></svg>