<svg viewBox="0 0 24 24" xmlns="http://www.w3.org/2000/svg"><path d="M4 2c-1.108 0-2 .892-2 2v16c0 1.108.892 2 2 2h16c1.108 0 2-.892 2-2V4c0-1.108-.892-2-2-2H4zm2.779 5.5c.525 0 1.01.042 1.461.125.45.075.839.203 1.164.387.333.183.59.427.773.727.183.3.275.67.275 1.111 0 .408-.099.759-.299 1.051a2.033 2.033 0 0 1-.813.699c.525.175.912.434 1.162.775.25.342.375.776.375 1.301 0 .892-.325 1.562-.975 2.01-.65.442-1.647.662-2.988.662-.458 0-.92-.015-1.387-.049a6.166 6.166 0 0 1-1.227-.176V7.711c.183-.033.38-.063.588-.088.208-.033.422-.058.639-.074a15.983 15.983 0 0 1 1.25-.051zm.199 1.287c-.242 0-.459.005-.65.014a5.89 5.89 0 0 0-.475.037v2.275h1.113c.6 0 1.07-.083 1.412-.25.342-.175.512-.484.512-.926 0-.417-.179-.712-.537-.887-.35-.175-.808-.264-1.375-.264zm7.553.764c.383 0 .75.036 1.1.111.35.067.614.135.789.201l-.275 1.225a3.392 3.392 0 0 0-.639-.201 3.592 3.592 0 0 0-.898-.1c-.308 0-.558.054-.75.162a.503.503 0 0 0-.289.477c0 .108.017.204.051.287a.75.75 0 0 0 .199.236c.092.067.213.138.363.213.15.067.334.138.551.213.358.133.662.267.912.4.25.125.453.271.611.438.167.158.288.34.363.549.075.208.113.458.113.75 0 .625-.235 1.101-.701 1.426-.458.317-1.116.475-1.975.475-.575 0-1.037-.05-1.387-.15a6.479 6.479 0 0 1-.738-.225l.262-1.262c.225.092.492.178.801.262a4.24 4.24 0 0 0 1.074.125c.4 0 .692-.045.875-.137.183-.1.275-.267.275-.5 0-.217-.099-.395-.299-.537-.192-.142-.513-.296-.963-.463-.275-.1-.53-.204-.764-.313a2.807 2.807 0 0 1-.586-.4c-.167-.15-.3-.329-.4-.537a2.011 2.011 0 0 1-.139-.787c0-.6.222-1.072.664-1.414.442-.35 1.04-.523 1.799-.523zM5.853 12.35v2.639a13.882 13.882 0 0 0 1.114.049c.325 0 .623-.021.898-.063.283-.042.527-.113.727-.213a1.27 1.27 0 0 0 .486-.424c.125-.175.188-.401.188-.676 0-.492-.179-.834-.537-1.025-.358-.192-.855-.287-1.488-.287H5.854zm13.453 2.068h.719v2.676h.488v.619h-.488v1.037h-.736v-1.037h-1.9v-.537c.083-.183.193-.395.33-.633a14.007 14.007 0 0 1 1.014-1.468c.192-.242.383-.46.574-.656zm-.018.932a8.61 8.61 0 0 0-1.157 1.745h1.156v-1.744z" fill="#ececec"/></svg>