<svg viewBox="0 0 24 24" xmlns="http://www.w3.org/2000/svg"><path d="M4 2c-1.108 0-2 .892-2 2v16c0 1.108.892 2 2 2h16c1.108 0 2-.892 2-2V4c0-1.108-.892-2-2-2H4zm2.574 5.588h1.574v8.662H6.574V7.588zm5.688 1.963c.383 0 .75.036 1.1.111.35.067.612.135.787.201l-.275 1.225a3.367 3.367 0 0 0-.637-.201 3.608 3.608 0 0 0-.9-.1c-.308 0-.558.054-.75.162a.502.502 0 0 0-.287.477c0 .108.015.204.049.287.042.083.11.161.201.236.092.067.211.138.361.213.15.067.334.138.551.213.358.133.662.267.912.4.25.125.455.271.613.438.167.158.286.34.361.549.075.208.113.458.113.75 0 .625-.233 1.101-.699 1.426-.458.317-1.118.475-1.977.475-.575 0-1.037-.05-1.387-.15a6.479 6.479 0 0 1-.738-.225l.264-1.262c.225.092.49.178.799.262.317.083.676.125 1.076.125s.692-.045.875-.137c.183-.1.275-.267.275-.5 0-.217-.101-.395-.301-.537-.192-.142-.513-.296-.963-.463a9.458 9.458 0 0 1-.762-.313 2.823 2.823 0 0 1-.588-.4c-.167-.15-.3-.329-.4-.537a2.013 2.013 0 0 1-.137-.787c0-.6.22-1.072.662-1.414.442-.35 1.042-.523 1.801-.523zm4.307 4.768c.462 0 .801.111 1.018.332.221.217.332.513.332.893 0 .15-.031.299-.094.445-.063.142-.144.28-.244.418a3.68 3.68 0 0 1-.332.395c-.125.125-.25.246-.375.367a6.134 6.134 0 0 0-.461.489 2.416 2.416 0 0 0-.195.256.439.439 0 0 0-.086.201h1.924v.637H15.3a1.012 1.012 0 0 1-.006-.119v-.111c0-.2.031-.384.094-.551.067-.171.152-.329.256-.475.104-.146.22-.283.35-.412.129-.129.26-.258.389-.383.1-.096.195-.19.287-.281.092-.092.17-.18.236-.268.071-.092.128-.184.17-.275a.722.722 0 0 0 .063-.293c0-.217-.063-.371-.188-.463a.752.752 0 0 0-.457-.139.996.996 0 0 0-.324.051c-.1.033-.19.073-.27.119a1.52 1.52 0 0 0-.199.143 1.611 1.611 0 0 0-.131.113l-.375-.531c.175-.167.378-.3.611-.4.237-.104.493-.156.764-.156z" fill="#ececec"/></svg>