<svg viewBox="0 0 24 24" xmlns="http://www.w3.org/2000/svg"><path d="M4 2c-1.108 0-2 .892-2 2v16c0 1.108.892 2 2 2h16c1.108 0 2-.892 2-2V4c0-1.108-.892-2-2-2H4zm16.295 4.801v9.5c-.3.092-.68.175-1.139.25-.45.075-.924.111-1.424.111-.517 0-.98-.078-1.389-.236a2.99 2.99 0 0 1-1.049-.676 3.206 3.206 0 0 1-.664-1.074 4.267 4.267 0 0 1-.225-1.426c0-.517.063-.984.188-1.4.133-.425.326-.788.576-1.088.25-.3.554-.529.912-.688.358-.167.77-.25 1.236-.25.317 0 .596.038.838.113.242.075.45.158.625.25V7.05l1.514-.25zM4.205 7.838h1.463c.183.317.388.704.613 1.162.225.458.454.941.688 1.449.233.5.463 1.014.688 1.539.233.517.445.996.637 1.438l.625-1.438c.225-.525.454-1.039.688-1.539.233-.508.463-.991.688-1.449.225-.458.43-.845.613-1.162h1.424a82.988 82.988 0 0 1 .389 4.212c.058.742.107 1.492.148 2.25.05.75.092 1.483.125 2.199h-1.549c-.033-1.01-.075-2.047-.125-3.113-.042-1.067-.11-2.1-.201-3.1-.092.192-.199.421-.324.688-.125.267-.259.558-.4.875-.142.308-.287.63-.437.963-.142.333-.282.658-.424.975l-.375.875-.301.688H7.682a138.28 138.28 0 0 1-.299-.699 32.353 32.353 0 0 0-.389-.875 42.76 42.76 0 0 0-.424-.975 36.538 36.538 0 0 0-.426-.963c-.142-.308-.275-.597-.4-.863a23.846 23.846 0 0 0-.324-.688c-.092 1-.163 2.033-.213 3.1a469.208 469.208 0 0 0-.111 3.113H3.545c.033-.717.072-1.458.113-2.225.05-.767.098-1.525.148-2.275.058-.758.121-1.491.188-2.199.067-.708.138-1.363.213-1.963zm13.336 3.287c-.55 0-.955.188-1.213.563-.25.375-.375.884-.375 1.525 0 .667.158 1.191.475 1.574.317.375.754.563 1.313.563.242 0 .447-.009.613-.025.175-.025.315-.049.424-.074v-3.75a2.147 2.147 0 0 0-.537-.25 1.936 1.936 0 0 0-.699-.125z" fill="#ececec"/></svg>