<svg viewBox="0 0 24 24" xmlns="http://www.w3.org/2000/svg"><path d="M4 2c-1.108 0-2 .892-2 2v16c0 1.108.892 2 2 2h16c1.108 0 2-.892 2-2V4c0-1.108-.892-2-2-2H4zm12.348 4.551v7.486c0 .183.012.338.037.463a.842.842 0 0 0 .164.324.791.791 0 0 0 .299.201c.133.042.3.075.5.1l-.213 1.25c-.45-.008-.825-.059-1.125-.15a1.757 1.757 0 0 1-.699-.387 1.496 1.496 0 0 1-.375-.639 3.49 3.49 0 0 1-.1-.875V6.801l1.512-.25zM4.298 7.588h1.463c.183.317.388.704.613 1.162.225.458.454.941.688 1.449.233.5.463 1.014.688 1.539.233.517.445.996.637 1.438l.625-1.438c.225-.525.454-1.039.688-1.539.233-.508.463-.991.688-1.449.225-.458.43-.845.613-1.162h1.424a82.988 82.988 0 0 1 .389 4.212c.058.742.107 1.492.148 2.25.05.75.092 1.483.125 2.199h-1.549c-.033-1.01-.075-2.047-.125-3.113-.042-1.067-.11-2.1-.201-3.1-.092.192-.199.421-.324.688-.125.267-.259.558-.4.875-.142.308-.287.63-.438.963-.142.333-.282.658-.424.975l-.375.875-.301.688H7.774a138.28 138.28 0 0 1-.299-.699 32.353 32.353 0 0 0-.389-.875 42.76 42.76 0 0 0-.424-.975 36.538 36.538 0 0 0-.426-.963c-.142-.308-.275-.597-.4-.863a23.846 23.846 0 0 0-.324-.688c-.092 1-.163 2.033-.213 3.1a469.208 469.208 0 0 0-.111 3.113H3.637c.033-.717.072-1.458.113-2.225.05-.767.098-1.525.148-2.275.058-.758.121-1.491.187-2.199.067-.708.138-1.363.213-1.963zm14.877 6.73c.242 0 .45.03.625.088.175.058.319.142.432.25a.922.922 0 0 1 .256.375c.058.142.088.298.088.469a.9.9 0 0 1-.17.537c-.108.158-.249.28-.424.363.225.079.411.209.557.393.15.183.225.42.225.707 0 .192-.033.37-.1.537a1.134 1.134 0 0 1-.307.426c-.137.117-.313.21-.525.281-.208.067-.458.1-.75.1-.113 0-.229-.009-.35-.025a2.738 2.738 0 0 1-.338-.057 3.708 3.708 0 0 1-.287-.068 1.34 1.34 0 0 1-.201-.08l.15-.645c.087.042.214.09.381.145.167.05.373.074.619.074.329 0 .567-.063.713-.188a.649.649 0 0 0 .219-.512.634.634 0 0 0-.088-.344.578.578 0 0 0-.23-.219.94.94 0 0 0-.338-.119 2.044 2.044 0 0 0-.4-.037h-.256v-.613h.313c.096 0 .191-.009.287-.025.1-.021.19-.054.27-.1a.613.613 0 0 0 .193-.193.568.568 0 0 0 .074-.307c0-.1-.017-.185-.055-.256a.562.562 0 0 0-.357-.276.973.973 0 0 0-.25-.031c-.188 0-.354.03-.5.088a2.08 2.08 0 0 0-.387.188l-.275-.563a2.522 2.522 0 0 1 .488-.238 2.07 2.07 0 0 1 .33-.088c.117-.025.24-.037.369-.037z" fill="#ececec"/></svg>