<svg viewBox="0 0 24 24" xmlns="http://www.w3.org/2000/svg"><path d="M4 2c-1.108 0-2 .892-2 2v16c0 1.108.892 2 2 2h16c1.108 0 2-.892 2-2V4c0-1.108-.892-2-2-2H4zm-.314 5.588h6.912v1.361H7.936v7.301H6.348V8.949H3.686V7.588zm9.713 1.963c.5 0 .92.063 1.262.188.342.125.613.298.813.523.208.225.354.501.438.826.092.317.139.665.139 1.049V16.1c-.233.05-.588.109-1.063.176-.467.075-.996.111-1.588.111-.392 0-.751-.036-1.076-.111a2.324 2.324 0 0 1-.836-.363 1.798 1.798 0 0 1-.539-.65c-.125-.267-.188-.595-.188-.986 0-.375.071-.693.213-.951.15-.258.35-.467.6-.625.25-.167.538-.283.863-.35a4.708 4.708 0 0 1 1.037-.111c.167 0 .342.012.525.037.183.017.38.05.588.1v-.25a1.94 1.94 0 0 0-.063-.5.951.951 0 0 0-.225-.412.951.951 0 0 0-.414-.287 1.72 1.72 0 0 0-.637-.102c-.35 0-.671.026-.963.076-.292.05-.53.107-.713.174l-.188-1.225a5.85 5.85 0 0 1 .838-.199c.367-.067.759-.1 1.176-.1zm.299 3.773c-.167 0-.337.014-.512.039-.167.025-.321.07-.463.137a.83.83 0 0 0-.324.287.763.763 0 0 0-.125.451c0 .358.113.608.338.75.225.133.529.199.912.199.467 0 .821-.024 1.063-.074v-1.676a2.99 2.99 0 0 0-.363-.074 3.373 3.373 0 0 0-.525-.039zm6.178 1.07l.045.625a3.01 3.01 0 0 0-.633.074 1.729 1.729 0 0 0-.523.199 1.432 1.432 0 0 0-.4.357 1.608 1.608 0 0 0-.25.537c.204-.096.426-.145.668-.145.258 0 .477.038.656.113.183.071.331.168.443.293.113.125.194.271.244.438a1.55 1.55 0 0 1-.006 1.014 1.338 1.338 0 0 1-.262.469 1.447 1.447 0 0 1-.445.344 1.442 1.442 0 0 1-.637.131c-.496 0-.874-.163-1.137-.488-.258-.329-.389-.78-.389-1.355 0-.417.061-.785.182-1.105.125-.325.3-.599.525-.82.229-.221.503-.387.824-.5.325-.117.69-.176 1.094-.18zm-1.188 2.25c-.121 0-.237.01-.35.031a1.314 1.314 0 0 0-.307.094l-.012.111v.113c0 .167.01.325.031.475.025.146.065.274.119.387a.755.755 0 0 0 .23.264c.1.063.223.094.369.094a.59.59 0 0 0 .307-.076.632.632 0 0 0 .211-.193.842.842 0 0 0 .119-.256c.025-.096.037-.188.037-.275 0-.25-.059-.439-.18-.568-.121-.133-.314-.199-.576-.199z" fill="#ececec"/></svg>