<svg viewBox="0 0 24 24" xmlns="http://www.w3.org/2000/svg"><path d="M4 2c-1.108 0-2 .892-2 2v16c0 1.108.892 2 2 2h16c1.108 0 2-.892 2-2V4c0-1.108-.892-2-2-2H4zm3.543 5.387c.4 0 .754.03 1.063.088.317.05.587.109.813.176.225.067.409.138.551.213.15.075.254.129.313.162l-.475 1.287a3.663 3.663 0 0 0-.938-.375 4.094 4.094 0 0 0-1.162-.162c-.892 0-1.576.28-2.051.838-.467.55-.699 1.315-.699 2.299 0 .467.054.895.162 1.287.117.383.283.713.5.988.225.275.499.492.824.65.333.15.72.225 1.162.225.275 0 .513-.009.713-.025.2-.025.358-.055.475-.088v-3.111h1.576v4.162c-.217.083-.583.175-1.1.275-.517.1-1.114.15-1.789.15a4.7 4.7 0 0 1-1.711-.301 3.61 3.61 0 0 1-1.326-.875 4.029 4.029 0 0 1-.838-1.412c-.2-.558-.299-1.201-.299-1.926 0-.725.108-1.365.324-1.924a4.185 4.185 0 0 1 .912-1.414 3.768 3.768 0 0 1 1.352-.887 4.523 4.523 0 0 1 1.648-.301zm6.758 2.164c.5 0 .922.063 1.264.188.342.125.613.298.813.523.208.225.354.501.438.826.092.317.137.665.137 1.049V16.1c-.233.05-.587.109-1.063.176-.467.075-.996.111-1.588.111-.392 0-.749-.036-1.074-.111a2.334 2.334 0 0 1-.838-.363 1.793 1.793 0 0 1-.537-.65c-.125-.267-.188-.595-.188-.986 0-.375.071-.693.213-.951.15-.258.35-.467.6-.625.25-.167.536-.283.861-.35a4.726 4.726 0 0 1 1.039-.111c.167 0 .34.012.523.037.183.017.38.05.588.1v-.25a1.94 1.94 0 0 0-.063-.5.951.951 0 0 0-.225-.412.944.944 0 0 0-.412-.287 1.73 1.73 0 0 0-.639-.102c-.35 0-.669.026-.961.076-.292.05-.53.107-.713.174l-.188-1.225a5.85 5.85 0 0 1 .838-.199c.367-.067.757-.1 1.174-.1zm.301 3.773c-.167 0-.339.014-.514.039-.167.025-.319.07-.461.137a.836.836 0 0 0-.326.287.763.763 0 0 0-.125.451c0 .358.113.608.338.75.225.133.529.199.912.199.467 0 .821-.024 1.063-.074v-1.676a2.941 2.941 0 0 0-.361-.074 3.373 3.373 0 0 0-.525-.039zm5.164 1.094h.531v4.332h-.756v-3.318a2.381 2.381 0 0 1-.424.256 4.402 4.402 0 0 1-.494.207l-.232-.576c.242-.096.485-.219.727-.369a2.97 2.97 0 0 0 .648-.531z" fill="#ececec"/></svg>