<svg xmlns="http://www.w3.org/2000/svg" viewBox="0 0 22 22"><path d="M3 1c-1.108 0-2 .892-2 2v16c0 1.108.892 2 2 2h16c1.108 0 2-.892 2-2V3c0-1.108-.892-2-2-2H3zm2.525 5.387c.358 0 .683.03.975.088.292.05.547.109.764.176.217.067.395.138.537.213.142.075.24.129.299.162l-.461 1.287c-.2-.125-.488-.241-.863-.35a3.925 3.925 0 0 0-1.199-.176c-.375 0-.726.068-1.051.201a2.268 2.268 0 0 0-.85.574 2.771 2.771 0 0 0-.551.975c-.133.392-.199.847-.199 1.363 0 .458.05.878.15 1.262.108.383.27.717.486 1 .217.275.493.492.826.65.333.15.733.225 1.199.225.558 0 1.013-.054 1.363-.162.35-.117.621-.224.813-.324l.424 1.287c-.1.067-.237.133-.412.199a5.974 5.974 0 0 1-.6.201 6.29 6.29 0 0 1-.787.137 6.59 6.59 0 0 1-.938.063c-.65 0-1.233-.101-1.75-.301a3.503 3.503 0 0 1-1.313-.875 3.998 3.998 0 0 1-.826-1.424c-.192-.558-.287-1.201-.287-1.926 0-.725.108-1.365.324-1.924a4.19 4.19 0 0 1 .914-1.414 3.76 3.76 0 0 1 1.35-.887c.517-.2 1.07-.301 1.662-.301zm5.721 2.188c.45 0 .816.059 1.1.176.292.117.535.271.727.463a3.111 3.111 0 0 1 .825-.412c.175-.067.359-.122.551-.164.2-.042.4-.063.6-.063.508 0 .925.077 1.25.227.333.142.592.345.775.611.192.258.32.576.387.951.075.367.113.769.113 1.211v3.676H16.06v-3.438c0-.683-.083-1.175-.25-1.475-.167-.308-.488-.463-.963-.463-.242 0-.471.042-.688.125-.217.075-.378.15-.486.225.067.208.112.429.137.662.025.233.037.483.037.75v3.613h-1.512v-3.438c0-.683-.087-1.175-.262-1.475-.167-.308-.485-.463-.951-.463-.167 0-.349.012-.549.037-.2.025-.351.046-.451.063v5.275H8.61V8.925a10.181 10.181 0 0 1 2.637-.351zm7.109 4.844h2.213v.639H19a6.088 6.088 0 0 1-.02.244 5.168 5.168 0 0 1-.018.268 5.077 5.077 0 0 1-.045.475c.617.033 1.072.176 1.363.426.296.246.443.583.443 1.012 0 .196-.033.378-.1.545a1.124 1.124 0 0 1-.307.432 1.508 1.508 0 0 1-.52.287c-.208.067-.451.1-.73.1-.113 0-.227-.009-.344-.025a4.143 4.143 0 0 1-.338-.063 3.15 3.15 0 0 1-.281-.068 1.41 1.41 0 0 1-.188-.068l.145-.639c.087.042.212.089.375.139.167.046.368.068.605.068.163 0 .303-.017.42-.051a.777.777 0 0 0 .281-.148.561.561 0 0 0 .162-.213.808.808 0 0 0-.031-.631.66.66 0 0 0-.287-.275 1.693 1.693 0 0 0-.545-.17 5.434 5.434 0 0 0-.855-.055c.046-.4.08-.78.105-1.139.025-.362.046-.725.063-1.088z" fill="#ececec"/></svg>