<svg viewBox="0 0 24 24" xmlns="http://www.w3.org/2000/svg"><path d="M4 2c-1.108 0-2 .892-2 2v16c0 1.108.892 2 2 2h16c1.108 0 2-.892 2-2V4c0-1.108-.892-2-2-2H4zm2.43 5.387c.358 0 .683.03.975.088.292.05.545.109.762.176.217.067.395.138.537.213.142.075.242.129.301.162l-.463 1.287c-.2-.125-.486-.241-.861-.35a3.939 3.939 0 0 0-1.201-.176c-.375 0-.724.068-1.049.201-.325.125-.61.316-.852.574a2.768 2.768 0 0 0-.549.975 4.242 4.242 0 0 0-.201 1.363c0 .458.05.878.15 1.262.108.383.272.717.488 1 .217.275.491.492.824.65.333.15.735.225 1.201.225.558 0 1.011-.054 1.361-.162.35-.117.621-.224.813-.324l.426 1.287c-.1.067-.237.133-.412.199a6.027 6.027 0 0 1-.602.201 6.29 6.29 0 0 1-.787.137 6.59 6.59 0 0 1-.938.063c-.65 0-1.233-.101-1.75-.301a3.503 3.503 0 0 1-1.313-.875 3.994 3.994 0 0 1-.824-1.424c-.192-.558-.287-1.201-.287-1.926 0-.725.108-1.365.324-1.924a4.185 4.185 0 0 1 .912-1.414 3.76 3.76 0 0 1 1.35-.887 4.574 4.574 0 0 1 1.664-.301zm5.82 2.188c.45 0 .816.059 1.1.176.292.117.533.271.725.463a3.137 3.137 0 0 1 .827-.412c.175-.067.357-.122.549-.164.2-.042.4-.063.6-.063.508 0 .925.077 1.25.227.333.142.592.345.775.611.192.258.322.576.389.951.075.367.111.769.111 1.211v3.676h-1.512v-3.438c0-.683-.083-1.175-.25-1.475-.167-.308-.488-.463-.963-.463-.242 0-.471.042-.688.125-.217.075-.38.15-.488.225.067.208.114.429.139.662.025.233.037.483.037.75v3.613h-1.512v-3.438c0-.683-.089-1.175-.264-1.475-.167-.308-.483-.463-.949-.463-.167 0-.351.012-.551.037-.2.025-.349.046-.449.063v5.275H9.612V9.925a10.23 10.23 0 0 1 2.639-.351zm7.984 4.744c.242 0 .45.03.625.088.175.058.317.142.43.25a.926.926 0 0 1 .258.375c.058.142.086.298.086.469a.9.9 0 0 1-.168.537c-.108.158-.251.28-.426.363.225.079.411.209.557.393.15.183.225.42.225.707 0 .192-.033.37-.1.537a1.134 1.134 0 0 1-.307.426c-.137.117-.311.21-.523.281-.208.067-.458.1-.75.1-.113 0-.231-.009-.352-.025a2.705 2.705 0 0 1-.336-.057 3.769 3.769 0 0 1-.289-.068 1.3 1.3 0 0 1-.199-.08l.15-.645c.087.042.214.09.381.145.167.05.373.074.619.074.329 0 .567-.063.713-.188a.649.649 0 0 0 .219-.512.634.634 0 0 0-.088-.344.584.584 0 0 0-.232-.219.93.93 0 0 0-.336-.119 2.044 2.044 0 0 0-.4-.037h-.256v-.613h.313c.096 0 .191-.009.287-.025a.902.902 0 0 0 .268-.1.62.62 0 0 0 .195-.193.568.568 0 0 0 .074-.307c0-.1-.019-.185-.057-.256A.553.553 0 0 0 20.46 15a.973.973 0 0 0-.25-.031c-.188 0-.354.03-.5.088a2.1 2.1 0 0 0-.389.188l-.273-.563a2.456 2.456 0 0 1 .486-.238c.104-.037.215-.067.332-.088.117-.025.24-.037.369-.037z" fill="#ececec"/></svg>