<svg xmlns="http://www.w3.org/2000/svg" viewBox="0 0 24 24"><path d="M4 2c-1.108 0-2 .892-2 2v16c0 1.108.892 2 2 2h16c1.108 0 2-.892 2-2V4c0-1.108-.892-2-2-2H4zm9.322 4.551v5.711l.611-.637.639-.688c.208-.233.403-.454.586-.662.192-.217.355-.404.488-.563h1.787c-.417.467-.858.949-1.324 1.449-.458.5-.922.988-1.389 1.463a8.2 8.2 0 0 1 .789.762c.275.292.54.604.799.938.258.333.5.667.725 1 .225.333.413.642.563.926h-1.75a11.12 11.12 0 0 0-.523-.813 9.757 9.757 0 0 0-.625-.824 11.662 11.662 0 0 0-.688-.75 5.502 5.502 0 0 0-.688-.613v3h-1.514V6.801l1.514-.25zM3.754 7.588h1.574v3.574c.275-.275.563-.567.863-.875.3-.317.595-.633.887-.949.3-.325.585-.637.852-.938l.725-.813h1.887a92.217 92.217 0 0 1-1.824 2.025c-.325.342-.655.682-.988 1.023-.325.342-.646.668-.963.977.35.267.704.579 1.063.938.367.35.726.728 1.076 1.137.35.4.683.82 1 1.262.325.433.62.867.887 1.301H8.932a16.339 16.339 0 0 0-1.65-2.114c-.308-.342-.63-.666-.963-.975a9.044 9.044 0 0 0-.988-.799v3.887H3.757V7.587zm15.633 6.73c.462 0 .803.111 1.02.332.221.217.332.513.332.893 0 .15-.031.299-.094.445-.063.142-.144.28-.244.418a3.68 3.68 0 0 1-.332.395c-.125.125-.25.246-.375.367a6.134 6.134 0 0 0-.225.227 6.334 6.334 0 0 0-.238.262 2.385 2.385 0 0 0-.193.256.446.446 0 0 0-.088.201h1.926v.637H18.12a1.012 1.012 0 0 1-.006-.119v-.111c0-.2.031-.384.094-.551.067-.171.152-.329.256-.475.104-.146.22-.283.35-.412a34.758 34.758 0 0 1 .676-.664c.092-.092.17-.18.236-.268.071-.092.128-.184.17-.275a.722.722 0 0 0 .063-.293c0-.217-.063-.371-.188-.463a.752.752 0 0 0-.457-.139.996.996 0 0 0-.324.051c-.1.033-.19.073-.27.119a1.52 1.52 0 0 0-.199.143 1.71 1.71 0 0 0-.133.113l-.375-.531c.175-.167.38-.3.613-.4.238-.104.491-.156.762-.156z" fill="#ececec"/></svg>