<svg viewBox="0 0 24 24" xmlns="http://www.w3.org/2000/svg"><path d="M4 2c-1.108 0-2 .892-2 2v16c0 1.108.892 2 2 2h16c1.108 0 2-.892 2-2V4c0-1.108-.892-2-2-2H4zm.254 5.588H5.83v3.463h3.762V7.588h1.576v8.662H9.592v-3.838H5.83v3.838H4.254V7.588zm11.461 1.986c.1 0 .216.009.35.025.133.008.267.026.4.051.133.017.262.041.387.074.125.025.226.051.301.076l-.264 1.273a4.12 4.12 0 0 0-.525-.125 3.421 3.421 0 0 0-1.299-.023 3.277 3.277 0 0 0-.389.086v5.238h-1.512v-6.225a7.961 7.961 0 0 1 1.088-.301c.442-.1.93-.15 1.463-.15zm2.311 4.844h2.211v.639h-1.568a5.774 5.774 0 0 1-.018.244 5.135 5.135 0 0 1-.02.268c-.004.092-.011.18-.02.264a5.5 5.5 0 0 1-.023.211c.617.033 1.07.176 1.361.426.296.246.443.583.443 1.012 0 .196-.033.378-.1.545a1.124 1.124 0 0 1-.307.432 1.498 1.498 0 0 1-.518.287 2.4 2.4 0 0 1-.732.1c-.113 0-.227-.009-.344-.025a4.092 4.092 0 0 1-.336-.063 3.15 3.15 0 0 1-.281-.068 1.41 1.41 0 0 1-.188-.068l.143-.639c.087.042.212.089.375.139.167.046.37.068.607.068.163 0 .301-.017.418-.051a.792.792 0 0 0 .281-.148.561.561 0 0 0 .162-.213.809.809 0 0 0-.031-.631.66.66 0 0 0-.287-.275 1.68 1.68 0 0 0-.543-.17 5.342 5.342 0 0 0-.857-.055c.046-.4.082-.78.107-1.139.025-.363.046-.725.063-1.088z" fill="#ececec"/></svg>