<svg viewBox="0 0 24 24" xmlns="http://www.w3.org/2000/svg"><path d="M4 2c-1.108 0-2 .892-2 2v16c0 1.108.892 2 2 2h16c1.108 0 2-.892 2-2V4c0-1.108-.892-2-2-2H4zm1.061 5.588h5.563v1.338H6.636v2.137h3.551v1.313H6.636v2.537h4.287v1.338H5.062V7.589zm8.539.15v1.975h2.326v1.262H13.6v2.662c0 .525.083.9.25 1.125.167.225.452.338.852.338.275 0 .516-.03.725-.088.217-.058.387-.112.512-.162l.25 1.201c-.175.075-.404.15-.688.225a3.575 3.575 0 0 1-1 .125c-.467 0-.857-.063-1.174-.188a1.755 1.755 0 0 1-.738-.537 2.22 2.22 0 0 1-.387-.863 5.444 5.444 0 0 1-.113-1.162V7.989l1.512-.25zm4.951 6.68h.719v2.676h.486v.619h-.486v1.037h-.738v-1.037h-1.9v-.537c.083-.183.195-.395.332-.633a14.007 14.007 0 0 1 1.012-1.468 8.58 8.58 0 0 1 .576-.656zm-.02.932a8.61 8.61 0 0 0-1.157 1.745h1.156v-1.744z" fill="#ececec"/></svg>