<svg viewBox="0 0 24 24" xmlns="http://www.w3.org/2000/svg"><path d="M4 2c-1.108 0-2 .892-2 2v16c0 1.108.892 2 2 2h16c1.108 0 2-.892 2-2V4c0-1.108-.892-2-2-2H4zm-.465 5.588h1.574v3.574c.275-.275.563-.567.863-.875.3-.317.595-.633.887-.949.3-.325.583-.637.85-.938l.725-.813h1.889a92.63 92.63 0 0 1-1.826 2.025c-.325.342-.653.682-.986 1.023-.325.342-.646.668-.963.977.35.267.704.579 1.063.938.367.35.724.728 1.074 1.137.35.4.683.82 1 1.262.325.433.622.867.889 1.301H8.711a16.339 16.339 0 0 0-1.65-2.114 15.256 15.256 0 0 0-.961-.975 9.044 9.044 0 0 0-.988-.799v3.887H3.538V7.587zm10.742 1.986c.533 0 .978.077 1.336.227.358.142.643.345.852.611.217.258.366.576.449.951.092.367.137.769.137 1.211v3.676h-1.512v-3.438c0-.35-.024-.645-.074-.887a1.418 1.418 0 0 0-.227-.602.813.813 0 0 0-.424-.336 1.653 1.653 0 0 0-.65-.113 5.04 5.04 0 0 0-.6.037c-.208.025-.363.046-.463.063v5.275h-1.512V9.925a10.181 10.181 0 0 1 2.688-.351zm5.611 4.844h.531v4.332h-.756v-3.318a2.405 2.405 0 0 1-.426.256 4.402 4.402 0 0 1-.494.207l-.23-.576a4.59 4.59 0 0 0 .725-.369c.246-.15.463-.327.65-.531z" fill="#ececec"/></svg>