<svg xmlns="http://www.w3.org/2000/svg" width="24" height="24"><defs><style id="current-color-scheme" type="text/css"></style></defs><path d="M10.639 4.232c-3.365.973-5.74 3.592-5.445 7.232.34 4.201 6.427 8.448 8.811 8.536 1.04-.246.437-3.572-.174-6.082a61.084 61.084 0 0 0-.541-2.033l-.161-.56a185.86 185.86 0 0 0-1.365-4.323.559.559 0 0 1 1.062-.35c1.117 3.439 1.56 4.95 2.016 6.725 1.795 2.25 4.406 5.328 5.249 5.136 1.3-.297 1.772-8.955-.6-11.625s-5.514-3.298-8.852-2.656z" fill="currentColor" color="#dfdfdf"/></svg>