<svg xmlns="http://www.w3.org/2000/svg" viewBox="0 0 24 24"><path d="M4 2c-1.108 0-2 .892-2 2v16c0 1.108.892 2 2 2h16c1.108 0 2-.892 2-2V4c0-1.108-.892-2-2-2H4zm3.916 5.387c.542 0 1.021.063 1.438.188.425.117.758.247 1 .389l-.488 1.275a3.711 3.711 0 0 0-.938-.363 4.274 4.274 0 0 0-1.037-.125c-.425 0-.758.087-1 .262-.233.175-.35.422-.35.738 0 .192.036.358.111.5.083.133.196.255.338.363.15.108.32.207.512.299.2.092.417.18.65.264.408.15.771.303 1.088.461.325.15.596.334.812.551.225.208.395.458.512.75.117.283.176.629.176 1.037 0 .783-.28 1.393-.838 1.826-.55.425-1.357.637-2.424.637-.358 0-.688-.024-.988-.074a5.893 5.893 0 0 1-1.375-.363 4.494 4.494 0 0 1-.4-.199l.463-1.289c.225.125.529.25.912.375s.847.188 1.389.188c.567 0 .978-.095 1.236-.287.258-.192.389-.463.389-.813 0-.208-.047-.387-.139-.537a1.199 1.199 0 0 0-.375-.4 2.599 2.599 0 0 0-.588-.338 7.683 7.683 0 0 0-.799-.313 13.4 13.4 0 0 1-.875-.35 3.232 3.232 0 0 1-.738-.486 2.373 2.373 0 0 1-.512-.688c-.125-.267-.188-.588-.188-.963 0-.783.271-1.396.813-1.838.542-.45 1.28-.676 2.213-.676zm6.676 2.188c.1 0 .216.009.35.025.133.008.267.026.4.051.133.017.262.041.387.074.125.025.226.051.301.076l-.264 1.273a4.12 4.12 0 0 0-.525-.125 3.421 3.421 0 0 0-1.299-.023 3.277 3.277 0 0 0-.389.086v5.238h-1.512v-6.225a7.961 7.961 0 0 1 1.088-.301c.442-.1.93-.15 1.463-.15zm2.311 4.844h2.211v.639h-1.568a5.774 5.774 0 0 1-.018.244 5.135 5.135 0 0 1-.02.268c-.004.092-.011.18-.02.264a5.5 5.5 0 0 1-.023.211c.617.033 1.07.176 1.361.426.296.246.443.583.443 1.012 0 .196-.033.378-.1.545a1.124 1.124 0 0 1-.307.432 1.498 1.498 0 0 1-.518.287 2.4 2.4 0 0 1-.732.1c-.113 0-.227-.009-.344-.025a4.092 4.092 0 0 1-.336-.063 3.15 3.15 0 0 1-.281-.068 1.41 1.41 0 0 1-.188-.068l.143-.639c.087.042.212.089.375.139.167.046.37.068.607.068.163 0 .301-.017.418-.051a.792.792 0 0 0 .281-.148.561.561 0 0 0 .162-.213.809.809 0 0 0-.031-.631.66.66 0 0 0-.287-.275 1.68 1.68 0 0 0-.543-.17 5.342 5.342 0 0 0-.857-.055c.046-.4.082-.78.107-1.139.025-.363.046-.725.063-1.088z" fill="#ececec"/></svg>