<svg xmlns="http://www.w3.org/2000/svg" viewBox="0 0 24 24"><path d="M4 2c-1.108 0-2 .892-2 2v16c0 1.108.892 2 2 2h16c1.108 0 2-.892 2-2V4c0-1.108-.892-2-2-2H4zm10.721 4.863c.25 0 .465.083.648.25.183.167.275.396.275.688 0 .283-.092.507-.275.674a.927.927 0 0 1-.648.25.952.952 0 0 1-.664-.25c-.183-.167-.273-.39-.273-.674 0-.292.09-.521.273-.688a.952.952 0 0 1 .664-.25zm-9.672.725h1.574v3.463h3.762V7.588h1.576v8.662h-1.576v-3.838H6.623v3.838H5.049V7.588zm8.922 2.125h1.512v6.537h-1.512V9.713zm4.04 4.605c.242 0 .45.03.625.088.175.058.319.142.432.25a.922.922 0 0 1 .256.375c.058.142.088.298.088.469a.9.9 0 0 1-.17.537c-.108.158-.249.28-.424.363.225.079.411.209.557.393.15.183.225.42.225.707 0 .192-.033.37-.1.537a1.134 1.134 0 0 1-.307.426c-.137.117-.313.21-.525.281-.208.067-.458.1-.75.1-.113 0-.229-.009-.35-.025a2.738 2.738 0 0 1-.338-.057 3.708 3.708 0 0 1-.287-.068 1.34 1.34 0 0 1-.201-.08l.15-.645c.087.042.214.09.381.145.167.05.373.074.619.074.329 0 .567-.063.713-.188a.649.649 0 0 0 .219-.512.634.634 0 0 0-.088-.344.578.578 0 0 0-.23-.219.94.94 0 0 0-.338-.119 2.044 2.044 0 0 0-.4-.037h-.256v-.613h.313c.096 0 .191-.009.287-.025.1-.021.19-.054.27-.1a.613.613 0 0 0 .193-.193.568.568 0 0 0 .074-.307c0-.1-.017-.185-.055-.256a.562.562 0 0 0-.357-.276.973.973 0 0 0-.25-.031c-.188 0-.354.03-.5.088a2.08 2.08 0 0 0-.387.188l-.275-.563a2.522 2.522 0 0 1 .488-.238 2.07 2.07 0 0 1 .33-.088c.117-.025.24-.037.369-.037z" fill="#ececec"/></svg>