<svg xmlns="http://www.w3.org/2000/svg" viewBox="0 0 24 24"><path d="M4 2c-1.108 0-2 .892-2 2v16c0 1.108.892 2 2 2h16c1.108 0 2-.892 2-2V4c0-1.108-.892-2-2-2H4zm6.115 5.637c.358 0 .683.03.975.088.292.05.545.109.762.176.217.067.395.138.537.213.142.075.242.129.301.162l-.463 1.287c-.2-.125-.486-.241-.861-.35a3.939 3.939 0 0 0-1.201-.176c-.375 0-.724.068-1.049.201-.325.125-.61.316-.852.574a2.768 2.768 0 0 0-.549.975 4.242 4.242 0 0 0-.201 1.363c0 .458.05.878.15 1.262.108.383.272.717.488 1 .217.275.491.492.824.65.333.15.735.225 1.201.225.558 0 1.01-.054 1.361-.162.35-.117.621-.224.813-.324l.426 1.287c-.1.067-.237.133-.412.199a6.027 6.027 0 0 1-.602.201 6.29 6.29 0 0 1-.787.137 6.59 6.59 0 0 1-.938.063c-.65 0-1.233-.101-1.75-.301a3.503 3.503 0 0 1-1.313-.875 3.994 3.994 0 0 1-.824-1.424c-.192-.558-.287-1.201-.287-1.926 0-.725.108-1.365.324-1.924A4.185 4.185 0 0 1 7.1 8.824a3.76 3.76 0 0 1 1.35-.887 4.574 4.574 0 0 1 1.664-.301zm6.082 2.164c.383 0 .75.036 1.1.111.35.067.614.135.789.201l-.275 1.225a3.392 3.392 0 0 0-.639-.201 3.592 3.592 0 0 0-.898-.1c-.308 0-.558.054-.75.162a.503.503 0 0 0-.289.477c0 .108.017.204.051.287a.75.75 0 0 0 .199.236c.092.067.213.138.363.213.15.067.334.138.551.213.358.133.662.267.912.4.25.125.453.271.611.438.167.158.288.34.363.549.075.208.113.458.113.75 0 .625-.235 1.101-.701 1.426-.458.317-1.116.475-1.975.475-.575 0-1.037-.05-1.387-.15a6.479 6.479 0 0 1-.738-.225l.262-1.262c.225.092.492.178.801.262a4.24 4.24 0 0 0 1.074.125c.4 0 .692-.045.875-.137.183-.1.275-.267.275-.5 0-.217-.099-.395-.299-.537-.192-.142-.513-.296-.963-.463-.275-.1-.53-.204-.764-.313a2.807 2.807 0 0 1-.586-.4c-.167-.15-.3-.329-.4-.537a2.011 2.011 0 0 1-.139-.787c0-.6.222-1.072.664-1.414.442-.35 1.04-.523 1.799-.523z" fill="#ececec"/></svg>