<svg viewBox="0 0 24 24" xmlns="http://www.w3.org/2000/svg"><path d="M4 2c-1.108 0-2 .892-2 2v16c0 1.108.892 2 2 2h16c1.108 0 2-.892 2-2V4c0-1.108-.892-2-2-2H4zm3.205 5.5c1.258 0 2.22.229 2.887.688.675.458 1.014 1.175 1.014 2.15 0 .508-.092.946-.275 1.313a2.277 2.277 0 0 1-.775.887c-.342.225-.758.392-1.25.5a7.913 7.913 0 0 1-1.688.162h-.787v3.051H4.757V7.714a7.38 7.38 0 0 1 1.211-.162c.45-.033.863-.051 1.238-.051zm6.701.238v1.975h2.324v1.262h-2.324v2.662c0 .525.083.9.25 1.125.167.225.45.338.85.338.275 0 .516-.03.725-.088.217-.058.387-.112.512-.162l.25 1.201c-.175.075-.404.15-.688.225a3.575 3.575 0 0 1-1 .125c-.467 0-.857-.063-1.174-.188a1.755 1.755 0 0 1-.738-.537 2.22 2.22 0 0 1-.387-.863 5.444 5.444 0 0 1-.113-1.162V7.989l1.514-.25zM7.318 8.863c-.4 0-.73.012-.988.037v2.949h.762c.758 0 1.342-.104 1.75-.313.408-.217.613-.621.613-1.213a1.43 1.43 0 0 0-.162-.711 1.17 1.17 0 0 0-.451-.451 2.04 2.04 0 0 0-.688-.225 4.393 4.393 0 0 0-.836-.074zm11.07 5.455c.462 0 .801.111 1.018.332.221.217.332.513.332.893 0 .15-.031.299-.094.445-.063.142-.144.28-.244.418a3.655 3.655 0 0 1-.33.395c-.125.125-.25.246-.375.367a6.045 6.045 0 0 0-.463.489 2.385 2.385 0 0 0-.193.256.446.446 0 0 0-.088.201h1.924v.637h-2.756a1.012 1.012 0 0 1-.006-.119v-.111c0-.2.031-.384.094-.551.067-.171.152-.329.256-.475.104-.146.22-.283.35-.412.129-.129.26-.258.389-.383.1-.096.195-.19.287-.281a2.55 2.55 0 0 0 .238-.268c.071-.092.126-.184.168-.275a.722.722 0 0 0 .063-.293c0-.217-.063-.371-.188-.463a.752.752 0 0 0-.457-.139.996.996 0 0 0-.324.051c-.1.033-.19.073-.27.119a1.52 1.52 0 0 0-.199.143 1.611 1.611 0 0 0-.131.113l-.375-.531c.175-.167.378-.3.611-.4.238-.104.493-.156.764-.156z" fill="#ececec"/></svg>