<svg viewBox="0 0 24 24" xmlns="http://www.w3.org/2000/svg"><path d="M4 2c-1.108 0-2 .892-2 2v16c0 1.108.892 2 2 2h16c1.108 0 2-.892 2-2V4c0-1.108-.892-2-2-2H4zm1.316 5.588H6.89v7.299h3.9v1.363H5.315V7.588zm8.03.15v1.975h2.326v1.262h-2.326v2.662c0 .525.083.9.25 1.125.167.225.45.338.85.338.275 0 .518-.03.727-.088.217-.058.387-.112.512-.162l.25 1.201c-.175.075-.404.15-.688.225a3.575 3.575 0 0 1-1 .125c-.467 0-.859-.063-1.176-.188a1.748 1.748 0 0 1-.736-.537 2.222 2.222 0 0 1-.389-.863 5.452 5.452 0 0 1-.111-1.162V7.989l1.512-.25zm4.48 6.58c.462 0 .803.111 1.02.332.221.217.332.513.332.893 0 .15-.031.299-.094.445-.063.142-.144.28-.244.418a3.68 3.68 0 0 1-.332.395c-.125.125-.25.246-.375.367a6.134 6.134 0 0 0-.225.227 6.334 6.334 0 0 0-.238.262 2.385 2.385 0 0 0-.193.256.446.446 0 0 0-.088.201h1.926v.637h-2.756a1.012 1.012 0 0 1-.006-.119v-.111c0-.2.031-.384.094-.551.067-.171.152-.329.256-.475.104-.146.22-.283.35-.412a34.758 34.758 0 0 1 .676-.664c.092-.092.17-.18.236-.268.071-.092.128-.184.17-.275a.722.722 0 0 0 .063-.293c0-.217-.063-.371-.188-.463a.752.752 0 0 0-.457-.139.996.996 0 0 0-.324.051c-.1.033-.19.073-.27.119a1.52 1.52 0 0 0-.199.143 1.71 1.71 0 0 0-.133.113l-.375-.531c.175-.167.38-.3.613-.4.238-.104.491-.156.762-.156z" fill="#ececec"/></svg>