<svg viewBox="0 0 24 24" xmlns="http://www.w3.org/2000/svg"><path d="M4 2c-1.108 0-2 .892-2 2v16c0 1.108.892 2 2 2h16c1.108 0 2-.892 2-2V4c0-1.108-.892-2-2-2H4zm-.314 5.588h6.912v1.361H7.936v7.301H6.348V8.949H3.686V7.588zm9.713 1.963c.5 0 .92.063 1.262.188.342.125.613.298.813.523.208.225.354.501.438.826.092.317.139.665.139 1.049V16.1c-.233.05-.588.109-1.063.176-.467.075-.996.111-1.588.111-.392 0-.751-.036-1.076-.111a2.324 2.324 0 0 1-.836-.363 1.798 1.798 0 0 1-.539-.65c-.125-.267-.188-.595-.188-.986 0-.375.071-.693.213-.951.15-.258.35-.467.6-.625.25-.167.538-.283.863-.35a4.708 4.708 0 0 1 1.037-.111c.167 0 .342.012.525.037.183.017.38.05.588.1v-.25a1.94 1.94 0 0 0-.063-.5.951.951 0 0 0-.225-.412.951.951 0 0 0-.414-.287 1.72 1.72 0 0 0-.637-.102c-.35 0-.671.026-.963.076-.292.05-.53.107-.713.174l-.188-1.225a5.85 5.85 0 0 1 .838-.199c.367-.067.759-.1 1.176-.1zm.299 3.773c-.167 0-.337.014-.512.039-.167.025-.321.07-.463.137a.83.83 0 0 0-.324.287.763.763 0 0 0-.125.451c0 .358.113.608.338.75.225.133.529.199.912.199.467 0 .821-.024 1.063-.074v-1.676a2.99 2.99 0 0 0-.363-.074 3.373 3.373 0 0 0-.525-.039zm4.797.994c.242 0 .45.03.625.088.175.058.319.142.432.25a.922.922 0 0 1 .256.375c.058.142.088.298.088.469a.9.9 0 0 1-.17.537c-.108.158-.249.28-.424.363.225.079.411.209.557.393.15.183.225.42.225.707 0 .192-.033.37-.1.537a1.134 1.134 0 0 1-.307.426c-.137.117-.313.21-.525.281-.208.067-.458.1-.75.1-.113 0-.229-.009-.35-.025a2.738 2.738 0 0 1-.338-.057 3.708 3.708 0 0 1-.287-.068 1.34 1.34 0 0 1-.201-.08l.15-.645c.087.042.214.09.381.145.167.05.373.074.619.074.329 0 .567-.063.713-.188a.649.649 0 0 0 .219-.512.634.634 0 0 0-.088-.344.578.578 0 0 0-.23-.219.94.94 0 0 0-.338-.119 2.044 2.044 0 0 0-.4-.037h-.256v-.613h.313c.096 0 .191-.009.287-.025.1-.021.19-.054.27-.1a.613.613 0 0 0 .193-.193.568.568 0 0 0 .074-.307c0-.1-.017-.185-.055-.256a.562.562 0 0 0-.357-.276.973.973 0 0 0-.25-.031c-.188 0-.354.03-.5.088a2.08 2.08 0 0 0-.387.188l-.275-.563a2.522 2.522 0 0 1 .488-.238 2.07 2.07 0 0 1 .33-.088c.117-.025.24-.037.369-.037z" fill="#ececec"/></svg>