<svg viewBox="0 0 24 24" xmlns="http://www.w3.org/2000/svg"><path d="M4 2c-1.108 0-2 .892-2 2v16c0 1.108.892 2 2 2h16c1.108 0 2-.892 2-2V4c0-1.108-.892-2-2-2H4zm6.139 5.637c.4 0 .754.03 1.063.088.317.05.588.109.813.176.225.067.407.138.549.213.15.075.254.129.313.162l-.475 1.287a3.663 3.663 0 0 0-.938-.375 4.094 4.094 0 0 0-1.162-.162c-.892 0-1.576.28-2.051.838-.467.55-.699 1.315-.699 2.299 0 .467.054.895.162 1.287.117.383.283.713.5.988.225.275.499.492.824.65.333.15.722.225 1.164.225.275 0 .511-.009.711-.025.2-.025.36-.055.477-.088v-3.111h1.574v4.162c-.217.083-.583.175-1.1.275-.517.1-1.112.15-1.787.15a4.711 4.711 0 0 1-1.713-.301 3.61 3.61 0 0 1-1.326-.875 4.025 4.025 0 0 1-.836-1.412c-.2-.558-.301-1.201-.301-1.926 0-.725.108-1.365.324-1.924a4.19 4.19 0 0 1 .914-1.414 3.76 3.76 0 0 1 1.35-.887 4.534 4.534 0 0 1 1.65-.301zm7.131 2.188c.1 0 .218.009.352.025.133.008.265.026.398.051.133.017.264.041.389.074.125.025.224.051.299.076l-.262 1.273a4.12 4.12 0 0 0-.525-.125 3.421 3.421 0 0 0-1.299-.023 3.277 3.277 0 0 0-.389.086V16.5h-1.512v-6.225a7.961 7.961 0 0 1 1.088-.301c.442-.1.928-.15 1.461-.15z" fill="#ececec"/></svg>