<svg xmlns="http://www.w3.org/2000/svg" viewBox="0 0 24 24"><path d="M4 2c-1.108 0-2 .892-2 2v16c0 1.108.892 2 2 2h16c1.108 0 2-.892 2-2V4c0-1.108-.892-2-2-2H4zm3.916 5.387c.542 0 1.021.063 1.438.188.425.117.758.247 1 .389l-.488 1.275a3.711 3.711 0 0 0-.938-.363 4.274 4.274 0 0 0-1.037-.125c-.425 0-.758.087-1 .262-.233.175-.35.422-.35.738 0 .192.036.358.111.5.083.133.196.255.338.363.15.108.32.207.512.299.2.092.417.18.65.264.408.15.771.303 1.088.461.325.15.596.334.812.551.225.208.395.458.512.75.117.283.176.629.176 1.037 0 .783-.28 1.393-.838 1.826-.55.425-1.357.637-2.424.637-.358 0-.688-.024-.988-.074a5.893 5.893 0 0 1-1.375-.363 4.494 4.494 0 0 1-.4-.199l.463-1.289c.225.125.529.25.912.375s.847.188 1.389.188c.567 0 .978-.095 1.236-.287.258-.192.389-.463.389-.813 0-.208-.047-.387-.139-.537a1.199 1.199 0 0 0-.375-.4 2.599 2.599 0 0 0-.588-.338 7.683 7.683 0 0 0-.799-.313 13.4 13.4 0 0 1-.875-.35 3.232 3.232 0 0 1-.738-.486 2.373 2.373 0 0 1-.512-.688c-.125-.267-.188-.588-.188-.963 0-.783.271-1.396.813-1.838.542-.45 1.28-.676 2.213-.676zm6.676 2.188c.1 0 .216.009.35.025.133.008.267.026.4.051.133.017.262.041.387.074.125.025.226.051.301.076l-.264 1.273a4.12 4.12 0 0 0-.525-.125 3.421 3.421 0 0 0-1.299-.023 3.277 3.277 0 0 0-.389.086v5.238h-1.512v-6.225a7.961 7.961 0 0 1 1.088-.301c.442-.1.93-.15 1.463-.15zm4.467 4.82l.043.625a2.99 2.99 0 0 0-.631.074 1.74 1.74 0 0 0-.525.199 1.432 1.432 0 0 0-.4.357 1.608 1.608 0 0 0-.25.537c.204-.096.428-.145.67-.145.258 0 .477.038.656.113.183.071.331.168.443.293.113.125.194.271.244.438a1.55 1.55 0 0 1-.008 1.014 1.338 1.338 0 0 1-.262.469 1.438 1.438 0 0 1-.443.344 1.451 1.451 0 0 1-.639.131c-.496 0-.874-.163-1.137-.488-.258-.329-.387-.78-.387-1.355 0-.417.059-.785.18-1.105.125-.325.3-.599.525-.82.229-.221.505-.387.826-.5.325-.117.69-.176 1.094-.18zm-1.188 2.25c-.121 0-.239.01-.352.031a1.297 1.297 0 0 0-.305.094l-.014.111v.113c0 .167.01.325.031.475.025.146.065.274.119.387a.755.755 0 0 0 .23.264c.1.063.223.094.369.094a.59.59 0 0 0 .307-.076.639.639 0 0 0 .213-.193.842.842 0 0 0 .119-.256c.025-.096.037-.188.037-.275 0-.25-.061-.439-.182-.568-.121-.133-.312-.199-.574-.199z" fill="#ececec"/></svg>