<svg viewBox="0 0 24 24" xmlns="http://www.w3.org/2000/svg"><path d="M4 2c-1.108 0-2 .892-2 2v16c0 1.108.892 2 2 2h16c1.108 0 2-.892 2-2V4c0-1.108-.892-2-2-2H4zm.742 5.588h5.563v1.338H6.319v2.137h3.549v1.313H6.319v2.537h4.287v1.338H4.743V7.589zm9.35 1.963c.383 0 .75.036 1.1.111.35.067.614.135.789.201l-.275 1.225a3.392 3.392 0 0 0-.639-.201 3.592 3.592 0 0 0-.898-.1c-.308 0-.558.054-.75.162a.503.503 0 0 0-.289.477c0 .108.017.204.051.287a.75.75 0 0 0 .199.236c.092.067.213.138.363.213.15.067.334.138.551.213.358.133.662.267.912.4.25.125.453.271.611.438.167.158.288.34.363.549.075.208.113.458.113.75 0 .625-.235 1.101-.701 1.426-.458.317-1.116.475-1.975.475-.575 0-1.037-.05-1.387-.15a6.479 6.479 0 0 1-.738-.225l.262-1.262c.225.092.492.178.801.262a4.24 4.24 0 0 0 1.074.125c.4 0 .692-.045.875-.137.183-.1.275-.267.275-.5 0-.217-.099-.395-.299-.537-.192-.142-.513-.296-.963-.463-.275-.1-.53-.204-.764-.313a2.807 2.807 0 0 1-.586-.4c-.167-.15-.3-.329-.4-.537a2.011 2.011 0 0 1-.139-.787c0-.6.222-1.072.664-1.414.442-.35 1.04-.523 1.799-.523zm4.338 4.768c.508 0 .892.165 1.15.494.262.325.395.785.395 1.381 0 .842-.217 1.479-.65 1.912-.433.433-1.098.652-1.994.656l-.031-.631c.25 0 .476-.021.676-.063.204-.042.381-.108.531-.199.154-.092.283-.212.387-.357.104-.15.184-.332.238-.549a1.723 1.723 0 0 1-.682.142c-.258 0-.479-.033-.662-.1a1.24 1.24 0 0 1-.445-.287 1.198 1.198 0 0 1-.25-.432 1.66 1.66 0 0 1 0-1.017c.054-.171.141-.327.258-.469a1.376 1.376 0 0 1 1.08-.483zm.02.625a.623.623 0 0 0-.313.076.66.66 0 0 0-.207.193.842.842 0 0 0-.119.256 1.026 1.026 0 0 0-.037.27c0 .254.061.445.182.574.125.129.32.193.582.193.121 0 .239-.01.355-.031a1.14 1.14 0 0 0 .301-.105c.004-.046.006-.086.006-.119v-.088c0-.167-.012-.323-.037-.469a1.158 1.158 0 0 0-.119-.387.622.622 0 0 0-.232-.264.613.613 0 0 0-.361-.1z" fill="#ececec"/></svg>