<svg xmlns="http://www.w3.org/2000/svg" viewBox="0 0 24 24"><path d="M4 2c-1.108 0-2 .892-2 2v16c0 1.108.892 2 2 2h16c1.108 0 2-.892 2-2V4c0-1.108-.892-2-2-2H4zm-.721 5.588h1.287c.333.35.691.767 1.074 1.25.383.475.767.97 1.15 1.486.392.517.767 1.037 1.125 1.563.367.517.691 1 .975 1.451v-5.75h1.563v8.662H9.117a49.034 49.034 0 0 0-.951-1.525c-.35-.55-.713-1.1-1.088-1.65a34.877 34.877 0 0 0-1.148-1.611 26.405 26.405 0 0 0-1.102-1.412v6.199H3.279V7.589zm11.252 1.963c.458 0 .88.083 1.264.25.392.158.725.387 1 .688.275.3.487.661.637 1.086.158.417.238.884.238 1.4 0 .517-.077.987-.227 1.412-.15.425-.362.788-.637 1.088-.275.3-.608.535-1 .701a3.16 3.16 0 0 1-1.275.25c-.467 0-.892-.083-1.275-.25a2.885 2.885 0 0 1-.986-.701 3.282 3.282 0 0 1-.65-1.088 4.216 4.216 0 0 1-.225-1.412c0-.517.075-.984.225-1.4.158-.425.375-.786.65-1.086.283-.3.617-.529 1-.688.383-.167.803-.25 1.262-.25zm0 1.313c-.5 0-.89.191-1.174.574-.275.375-.414.887-.414 1.537 0 .658.139 1.179.414 1.563.283.383.674.576 1.174.576.5 0 .887-.193 1.162-.576.283-.383.426-.904.426-1.563 0-.65-.142-1.162-.426-1.537-.275-.383-.662-.574-1.162-.574zm4.602 3.455c.242 0 .45.03.625.088.175.058.319.142.432.25a.922.922 0 0 1 .256.375c.058.142.088.298.088.469a.9.9 0 0 1-.168.537c-.108.158-.251.28-.426.363.225.079.411.209.557.393.15.183.225.42.225.707 0 .192-.033.37-.1.537a1.134 1.134 0 0 1-.307.426c-.137.117-.313.21-.525.281-.208.067-.458.1-.75.1a2.68 2.68 0 0 1-.35-.025 2.738 2.738 0 0 1-.338-.057 3.708 3.708 0 0 1-.287-.068 1.3 1.3 0 0 1-.199-.08l.15-.645c.087.042.214.09.381.145.167.05.373.074.619.074.329 0 .565-.063.711-.188a.649.649 0 0 0 .219-.512.634.634 0 0 0-.086-.344.584.584 0 0 0-.232-.219.94.94 0 0 0-.338-.119 2.023 2.023 0 0 0-.398-.037h-.258v-.613h.313c.096 0 .193-.009.289-.025a.902.902 0 0 0 .268-.1.613.613 0 0 0 .193-.193.567.567 0 0 0 .076-.307c0-.1-.019-.185-.057-.256a.553.553 0 0 0-.355-.276.973.973 0 0 0-.25-.031c-.188 0-.354.03-.5.088a2.1 2.1 0 0 0-.389.188l-.275-.563a2.522 2.522 0 0 1 .488-.238c.104-.037.215-.067.332-.088.117-.025.238-.037.367-.037z" fill="#ececec"/></svg>