<svg xmlns="http://www.w3.org/2000/svg" viewBox="0 0 24 24"><path d="M4 2c-1.108 0-2 .892-2 2v16c0 1.108.892 2 2 2h16c1.108 0 2-.892 2-2V4c0-1.108-.892-2-2-2H4zm.914 5.588h1.574v7.299h3.9v1.363H4.913V7.588zm5.252 2.125h1.613c.092.367.196.763.313 1.188.125.417.253.837.387 1.262.142.417.284.825.426 1.225.15.392.287.746.412 1.063.125-.317.259-.671.4-1.063.142-.4.279-.808.412-1.225.142-.425.275-.845.4-1.262.125-.425.233-.821.324-1.188h1.563a37.04 37.04 0 0 1-1.199 3.588 41.044 41.044 0 0 1-1.275 2.949h-1.299a44.588 44.588 0 0 1-1.289-2.949 39.707 39.707 0 0 1-1.188-3.588zm6.736 4.705h2.895v.576a4.382 4.382 0 0 0-.451.631 7.342 7.342 0 0 0-.461.906 8.397 8.397 0 0 0-.383 1.074 5.82 5.82 0 0 0-.193 1.145h-.775c.025-.317.082-.65.17-1 .087-.35.193-.69.318-1.02.129-.333.268-.642.418-.93.154-.292.307-.537.457-.732h-1.994v-.65z" fill="#ececec"/></svg>