<svg viewBox="0 0 24 24" xmlns="http://www.w3.org/2000/svg"><path d="M4 2c-1.108 0-2 .892-2 2v16c0 1.108.892 2 2 2h16c1.108 0 2-.892 2-2V4c0-1.108-.892-2-2-2H4zm2.363 5.588h1.488a61.085 61.085 0 0 1 1.674 3.875c.283.7.572 1.441.863 2.225.3.783.613 1.637.938 2.563H9.627a37.66 37.66 0 0 0-.363-1.012 27.837 27.837 0 0 1-.363-1.025H5.253c-.117.35-.238.695-.363 1.037l-.35 1H2.901a146.468 146.468 0 0 1 1.776-4.788c.283-.7.563-1.367.838-2s.558-1.258.85-1.875zm.713 1.674c-.192.442-.412.98-.662 1.613-.242.633-.497 1.321-.764 2.063h2.852a84.01 84.01 0 0 0-.775-2.074 50.599 50.599 0 0 0-.65-1.602zm5.05.451h4.963v1.063c-.167.175-.387.42-.662.736-.267.317-.555.671-.863 1.063-.308.383-.621.788-.938 1.213-.308.417-.588.818-.838 1.201h3.375v1.262h-5.199v-.938c.183-.333.412-.696.688-1.088.275-.392.558-.782.85-1.174.292-.4.58-.78.863-1.139.292-.358.55-.671.775-.938h-3.01V9.712zm7.137 4.605c.462 0 .801.111 1.018.332.221.217.332.513.332.893 0 .15-.031.299-.094.445-.063.142-.144.28-.244.418a3.655 3.655 0 0 1-.33.395c-.125.125-.25.246-.375.367a6.045 6.045 0 0 0-.463.489 2.385 2.385 0 0 0-.193.256.446.446 0 0 0-.088.201h1.924v.637h-2.756a1.012 1.012 0 0 1-.006-.119v-.111c0-.2.031-.384.094-.551.067-.171.152-.329.256-.475.104-.146.22-.283.35-.412.129-.129.26-.258.389-.383.1-.096.195-.19.287-.281a2.55 2.55 0 0 0 .238-.268c.071-.092.126-.184.168-.275a.722.722 0 0 0 .063-.293c0-.217-.063-.371-.188-.463a.752.752 0 0 0-.457-.139.996.996 0 0 0-.324.051c-.1.033-.19.073-.27.119a1.52 1.52 0 0 0-.199.143 1.611 1.611 0 0 0-.131.113l-.375-.531c.175-.167.378-.3.611-.4.238-.104.493-.156.764-.156z" fill="#ececec"/></svg>