<svg xmlns="http://www.w3.org/2000/svg" viewBox="0 0 24 24"><path d="M4 2c-1.108 0-2 .892-2 2v16c0 1.108.892 2 2 2h16c1.108 0 2-.892 2-2V4c0-1.108-.892-2-2-2H4zm1.316 5.588H6.89v7.299h3.9v1.363H5.315V7.588zm8.03.15v1.975h2.326v1.262h-2.326v2.662c0 .525.083.9.25 1.125.167.225.45.338.85.338.275 0 .518-.03.727-.088.217-.058.387-.112.512-.162l.25 1.201c-.175.075-.404.15-.688.225a3.575 3.575 0 0 1-1 .125c-.467 0-.859-.063-1.176-.188a1.748 1.748 0 0 1-.736-.537 2.222 2.222 0 0 1-.389-.863 5.452 5.452 0 0 1-.111-1.162V7.989l1.512-.25zm3.619 6.68h2.213v.639h-1.57a5.774 5.774 0 0 1-.018.244 5.135 5.135 0 0 1-.02.268 4.218 4.218 0 0 1-.043.475c.617.033 1.07.176 1.361.426.296.246.445.583.445 1.012 0 .196-.035.378-.102.545a1.119 1.119 0 0 1-.305.432 1.508 1.508 0 0 1-.52.287c-.208.067-.451.1-.73.1-.113 0-.227-.009-.344-.025a4.143 4.143 0 0 1-.338-.063 3.15 3.15 0 0 1-.281-.068 1.41 1.41 0 0 1-.188-.068l.143-.639c.087.042.212.089.375.139.167.046.37.068.607.068.163 0 .301-.017.418-.051a.792.792 0 0 0 .281-.148.561.561 0 0 0 .162-.213.809.809 0 0 0-.031-.631.66.66 0 0 0-.287-.275 1.68 1.68 0 0 0-.543-.17 5.342 5.342 0 0 0-.857-.055c.046-.4.082-.78.107-1.139.025-.363.046-.725.063-1.088z" fill="#ececec"/></svg>