<svg viewBox="0 0 24 24" xmlns="http://www.w3.org/2000/svg"><path d="M4 2c-1.108 0-2 .892-2 2v16c0 1.108.892 2 2 2h16c1.108 0 2-.892 2-2V4c0-1.108-.892-2-2-2H4zm11.1 4.801v5.711l.613-.637.637-.688c.208-.233.405-.454.588-.662.192-.217.353-.404.486-.563h1.789c-.417.467-.86.949-1.326 1.449-.458.5-.92.988-1.387 1.463.25.208.512.462.787.762.275.292.542.604.801.938.258.333.5.667.725 1 .225.333.413.642.563.926h-1.75a11.18 11.18 0 0 0-.525-.813 9.757 9.757 0 0 0-.625-.824 11.662 11.662 0 0 0-.688-.75 5.502 5.502 0 0 0-.688-.613v3h-1.512V7.051l1.512-.25zM5.532 7.838h1.576v3.574c.275-.275.561-.567.861-.875.3-.317.597-.633.889-.949.3-.325.583-.637.85-.938l.725-.813h1.889a92.63 92.63 0 0 1-1.826 2.025c-.325.342-.653.682-.986 1.023-.325.342-.646.668-.963.977.35.267.704.579 1.063.938.367.35.724.728 1.074 1.137.35.4.683.82 1 1.262.325.433.622.867.889 1.301H10.71a16.339 16.339 0 0 0-1.65-2.114c-.308-.342-.63-.666-.963-.975a9.031 9.031 0 0 0-.986-.799v3.887H5.535V7.837z" fill="#ececec"/></svg>