<svg viewBox="0 0 24 24" xmlns="http://www.w3.org/2000/svg"><path d="M4 2c-1.108 0-2 .892-2 2v16c0 1.108.892 2 2 2h16c1.108 0 2-.892 2-2V4c0-1.108-.892-2-2-2H4zm-.344 5.588H5.23v3.574c.275-.275.563-.567.863-.875.3-.317.595-.633.887-.949.3-.325.585-.637.852-.938l.725-.813h1.887A92.217 92.217 0 0 1 8.62 9.612c-.325.342-.655.682-.988 1.023-.325.342-.646.668-.963.977.35.267.704.579 1.063.938.367.35.726.728 1.076 1.137.35.4.683.82 1 1.262.325.433.62.867.887 1.301H8.834a16.339 16.339 0 0 0-1.65-2.114c-.308-.342-.63-.666-.963-.975a9.044 9.044 0 0 0-.988-.799v3.887H3.659V7.587zm7.76 2.125h1.514v3.424c0 .7.099 1.2.299 1.5.208.3.568.451 1.076.451.183 0 .374-.009.574-.025.208-.017.363-.038.463-.063V9.713h1.512v6.338c-.292.075-.67.15-1.137.225a8.8 8.8 0 0 1-1.537.125c-.525 0-.968-.075-1.326-.225a2.175 2.175 0 0 1-.85-.625 2.516 2.516 0 0 1-.449-.951 5.132 5.132 0 0 1-.139-1.225V9.713zm7.982 4.605c.242 0 .45.03.625.088.175.058.317.142.43.25a.926.926 0 0 1 .258.375c.058.142.086.298.086.469a.9.9 0 0 1-.168.537c-.108.158-.251.28-.426.363.225.079.411.209.557.393.15.183.225.42.225.707 0 .192-.033.37-.1.537a1.134 1.134 0 0 1-.307.426c-.137.117-.311.21-.523.281-.208.067-.458.1-.75.1-.113 0-.231-.009-.352-.025a2.705 2.705 0 0 1-.336-.057 3.769 3.769 0 0 1-.289-.068 1.3 1.3 0 0 1-.199-.08l.15-.645c.087.042.214.09.381.145.167.05.373.074.619.074.329 0 .567-.063.713-.188a.649.649 0 0 0 .219-.512.634.634 0 0 0-.088-.344.584.584 0 0 0-.232-.219.93.93 0 0 0-.336-.119 2.044 2.044 0 0 0-.4-.037h-.256v-.613h.313c.096 0 .191-.009.287-.025a.902.902 0 0 0 .268-.1.62.62 0 0 0 .195-.193.568.568 0 0 0 .074-.307c0-.1-.019-.185-.057-.256a.553.553 0 0 0-.355-.276.973.973 0 0 0-.25-.031c-.188 0-.354.03-.5.088a2.1 2.1 0 0 0-.389.188l-.273-.563a2.456 2.456 0 0 1 .486-.238c.104-.037.215-.067.332-.088.117-.025.24-.037.369-.037z" fill="#ececec"/></svg>