<svg xmlns="http://www.w3.org/2000/svg" viewBox="0 0 24 24"><path d="M4 2c-1.108 0-2 .892-2 2v16c0 1.108.892 2 2 2h16c1.108 0 2-.892 2-2V4c0-1.108-.892-2-2-2H4zm10.721 4.863c.25 0 .465.083.648.25.183.167.275.396.275.688 0 .283-.092.507-.275.674a.927.927 0 0 1-.648.25.952.952 0 0 1-.664-.25c-.183-.167-.273-.39-.273-.674 0-.292.09-.521.273-.688a.952.952 0 0 1 .664-.25zm-9.672.725h1.574v3.463h3.762V7.588h1.576v8.662h-1.576v-3.838H6.623v3.838H5.049V7.588zm8.922 2.125h1.512v6.537h-1.512V9.713zm4.404 4.705h.531v4.332h-.756v-3.318a2.405 2.405 0 0 1-.426.256 4.402 4.402 0 0 1-.494.207l-.23-.576a4.59 4.59 0 0 0 .725-.369c.246-.15.463-.327.65-.531z" fill="#ececec"/></svg>