<svg xmlns="http://www.w3.org/2000/svg" width="24" height="24"><defs><style id="current-color-scheme" type="text/css"></style></defs><path d="M7.353 3.994a.258.258 0 0 0-.254.262v1.569a1.536 1.536 0 0 0-1.263 1.263H4.267a.259.259 0 1 0 0 .518h1.541v2.582h-1.54a.258.258 0 1 0 0 .515h1.54v2.582h-1.54a.258.258 0 1 0 0 .516h1.54v2.582h-1.54a.259.259 0 1 0 0 .518h1.568c.108.649.614 1.154 1.263 1.263v1.569a.259.259 0 1 0 .518 0v-1.541h2.582v1.54a.258.258 0 1 0 .516 0v-1.54h2.582v1.54a.258.258 0 1 0 .515 0v-1.54h2.582v1.54a.259.259 0 0 0 .518 0v-1.568a1.536 1.536 0 0 0 1.263-1.263h1.569a.258.258 0 0 0 .262-.262.258.258 0 0 0-.262-.256h-1.541v-2.582h1.54a.258.258 0 0 0 .263-.262.258.258 0 0 0-.262-.254h-1.541v-2.582h1.54a.258.258 0 0 0 .263-.261.258.258 0 0 0-.262-.254h-1.541V7.606h1.54a.258.258 0 0 0 .262-.264.258.258 0 0 0-.262-.254h-1.569a1.537 1.537 0 0 0-1.264-1.264V4.256a.258.258 0 0 0-.264-.262.258.258 0 0 0-.254.262v1.541H13.81V4.256a.258.258 0 0 0-.262-.262.258.258 0 0 0-.253.262v1.541h-2.582V4.256a.258.258 0 0 0-.262-.262.258.258 0 0 0-.254.262v1.541H7.615V4.256a.258.258 0 0 0-.263-.262zm.153 3h9a.499.499 0 1 1 0 1h-9a.499.499 0 1 1 0-1zm0 3h9a.499.499 0 1 1 0 1h-9a.499.499 0 1 1 0-1zm0 3h9a.499.499 0 1 1 0 1h-9a.499.499 0 1 1 0-1zm0 3h9a.499.499 0 1 1 0 1h-9a.499.499 0 1 1 0-1z" fill="currentColor" color="#5294e2"/></svg>