<svg xmlns="http://www.w3.org/2000/svg" viewBox="0 0 24 24"><path d="M4 2c-1.108 0-2 .892-2 2v16c0 1.108.892 2 2 2h16c1.108 0 2-.892 2-2V4c0-1.108-.892-2-2-2H4zm-.125 5.588h1.588v5.262c0 .392.042.73.125 1.014.092.275.217.499.375.674.167.175.358.305.574.389.225.083.475.125.75.125s.525-.042.75-.125a1.43 1.43 0 0 0 .574-.389c.167-.175.292-.399.375-.674a3.3 3.3 0 0 0 .139-1.014V7.588h1.588V13c0 .5-.071.958-.213 1.375a2.88 2.88 0 0 1-.625 1.088c-.275.308-.629.55-1.062.725-.433.167-.945.25-1.537.25s-1.1-.083-1.525-.25a2.936 2.936 0 0 1-1.063-.725 2.966 2.966 0 0 1-.613-1.088A4.505 4.505 0 0 1 3.876 13V7.588zm8.193 2.125h4.963v1.063c-.167.175-.387.42-.662.736-.267.317-.555.671-.863 1.063-.308.383-.621.788-.938 1.213-.308.417-.588.818-.838 1.201h3.375v1.262h-5.199v-.938c.183-.333.412-.696.688-1.088.275-.392.558-.782.85-1.174.292-.4.58-.78.863-1.139.292-.358.548-.671.773-.938h-3.01V9.712zm7.605 4.705h.719v2.676h.486v.619h-.486v1.037h-.738v-1.037h-1.9v-.537c.083-.183.195-.395.332-.633a14.007 14.007 0 0 1 1.012-1.468 8.58 8.58 0 0 1 .576-.656zm-.02.932a8.61 8.61 0 0 0-1.157 1.745h1.156v-1.744z" fill="#ececec"/></svg>