<svg xmlns="http://www.w3.org/2000/svg" viewBox="0 0 24 24"><path d="M4 2c-1.108 0-2 .892-2 2v16c0 1.108.892 2 2 2h16c1.108 0 2-.892 2-2V4c0-1.108-.892-2-2-2H4zm8.955 4.551v3.236c.167-.058.358-.109.574-.15.225-.042.447-.063.664-.063.525 0 .957.077 1.299.227.35.142.63.345.838.611.208.258.354.571.438.938.092.367.137.775.137 1.225v3.676h-1.512v-3.438c0-.35-.024-.645-.074-.887a1.418 1.418 0 0 0-.227-.602.821.821 0 0 0-.412-.336 1.653 1.653 0 0 0-.65-.113c-.2 0-.403.021-.611.063-.208.042-.363.08-.463.113v5.199h-1.512V6.801l1.512-.25zM6.18 7.5c1.258 0 2.22.229 2.887.688.675.458 1.014 1.175 1.014 2.15 0 .508-.092.946-.275 1.313a2.277 2.277 0 0 1-.775.887c-.342.225-.758.392-1.25.5a7.913 7.913 0 0 1-1.688.162h-.787v3.051H3.732V7.714a7.38 7.38 0 0 1 1.211-.162c.45-.033.863-.051 1.238-.051zm.113 1.363c-.4 0-.73.012-.988.037v2.949h.762c.758 0 1.342-.104 1.75-.313.408-.217.613-.621.613-1.213a1.43 1.43 0 0 0-.162-.711 1.17 1.17 0 0 0-.451-.451 2.04 2.04 0 0 0-.688-.225 4.393 4.393 0 0 0-.836-.074zm13.03 5.455c.242 0 .45.03.625.088.175.058.319.142.432.25a.922.922 0 0 1 .256.375c.058.142.088.298.088.469a.9.9 0 0 1-.17.537c-.108.158-.249.28-.424.363.225.079.411.209.557.393.15.183.225.42.225.707 0 .192-.033.37-.1.537a1.134 1.134 0 0 1-.307.426c-.137.117-.313.21-.525.281-.208.067-.458.1-.75.1-.113 0-.229-.009-.35-.025a2.738 2.738 0 0 1-.338-.057 3.708 3.708 0 0 1-.287-.068 1.34 1.34 0 0 1-.201-.08l.15-.645c.087.042.214.09.381.145.167.05.373.074.619.074.329 0 .567-.063.713-.188a.649.649 0 0 0 .219-.512.634.634 0 0 0-.088-.344.578.578 0 0 0-.23-.219.94.94 0 0 0-.338-.119 2.044 2.044 0 0 0-.4-.037h-.256v-.613h.313c.096 0 .191-.009.287-.025.1-.021.19-.054.27-.1a.613.613 0 0 0 .193-.193.568.568 0 0 0 .074-.307c0-.1-.017-.185-.055-.256a.562.562 0 0 0-.357-.276.973.973 0 0 0-.25-.031c-.188 0-.354.03-.5.088a2.08 2.08 0 0 0-.387.188l-.275-.563a2.522 2.522 0 0 1 .488-.238 2.07 2.07 0 0 1 .33-.088c.117-.025.24-.037.369-.037z" fill="#ececec"/></svg>