<svg viewBox="0 0 24 24" xmlns="http://www.w3.org/2000/svg"><path d="M4 2c-1.108 0-2 .892-2 2v16c0 1.108.892 2 2 2h16c1.108 0 2-.892 2-2V4c0-1.108-.892-2-2-2H4zm3.184 5.387c.542 0 1.021.063 1.438.188.425.117.758.247 1 .389l-.488 1.275a3.711 3.711 0 0 0-.938-.363 4.274 4.274 0 0 0-1.037-.125c-.425 0-.758.087-1 .262-.233.175-.35.422-.35.738 0 .192.036.358.111.5.083.133.196.255.338.363.15.108.32.207.512.299.2.092.417.18.65.264.408.15.771.303 1.088.461.325.15.596.334.813.551.225.208.395.458.512.75.117.283.176.629.176 1.037 0 .783-.28 1.393-.838 1.826-.55.425-1.357.637-2.424.637-.358 0-.688-.024-.988-.074a5.893 5.893 0 0 1-1.375-.363 4.494 4.494 0 0 1-.4-.199l.463-1.289c.225.125.529.25.912.375s.847.188 1.389.188c.567 0 .978-.095 1.236-.287.258-.192.389-.463.389-.813 0-.208-.047-.387-.139-.537a1.199 1.199 0 0 0-.375-.4 2.599 2.599 0 0 0-.588-.338 7.683 7.683 0 0 0-.799-.313 13.4 13.4 0 0 1-.875-.35 3.232 3.232 0 0 1-.738-.486 2.373 2.373 0 0 1-.512-.688c-.125-.267-.188-.588-.188-.963 0-.783.271-1.396.813-1.838.542-.45 1.28-.676 2.213-.676zm3.275 2.326h1.611c.083.35.184.728.301 1.137.125.408.259.825.4 1.25.142.417.291.833.449 1.25.158.417.316.804.475 1.162.267-.742.517-1.528.75-2.361.233-.842.447-1.654.639-2.438h1.563c-.675 2.483-1.458 4.733-2.35 6.75a6.842 6.842 0 0 1-.514.963 2.84 2.84 0 0 1-.588.662c-.217.175-.458.3-.725.375a3.111 3.111 0 0 1-.924.125c-.233 0-.468-.026-.701-.076a2.352 2.352 0 0 1-.512-.162l.275-1.213c.3.117.595.176.887.176.392 0 .695-.095.912-.287.225-.183.421-.472.588-.863a36.591 36.591 0 0 1-1.375-3 34.317 34.317 0 0 1-1.162-3.449zm8.04 4.605c.462 0 .803.111 1.02.332.221.217.33.513.33.893 0 .15-.031.299-.094.445a2.29 2.29 0 0 1-.242.418 3.68 3.68 0 0 1-.332.395c-.125.125-.25.246-.375.367a6.134 6.134 0 0 0-.225.227 6.334 6.334 0 0 0-.238.262 2.385 2.385 0 0 0-.193.256.446.446 0 0 0-.088.201h1.926v.637h-2.756a.97.97 0 0 1-.008-.119v-.111c0-.2.031-.384.094-.551a2.2 2.2 0 0 1 .258-.475c.104-.146.22-.283.35-.412.129-.129.258-.258.387-.383.1-.096.195-.19.287-.281a2.55 2.55 0 0 0 .238-.268c.071-.092.126-.184.168-.275a.722.722 0 0 0 .063-.293c0-.217-.063-.371-.188-.463a.746.746 0 0 0-.455-.139c-.117 0-.226.017-.326.051-.1.033-.188.073-.268.119a1.547 1.547 0 0 0-.201.143 1.611 1.611 0 0 0-.131.113l-.375-.531c.175-.167.38-.3.613-.4.238-.104.491-.156.762-.156z" fill="#ececec"/></svg>