<svg xmlns="http://www.w3.org/2000/svg" viewBox="0 0 24 24"><path d="M4 2c-1.108 0-2 .892-2 2v16c0 1.108.892 2 2 2h16c1.108 0 2-.892 2-2V4c0-1.108-.892-2-2-2H4zm2.689 5.838h1.576v7.299h3.898V16.5H6.688V7.838zm5.254 2.125h1.611c.092.367.196.763.313 1.188.125.417.255.837.389 1.262.142.417.282.825.424 1.225.15.392.289.746.414 1.063a37.865 37.865 0 0 0 .812-2.288c.142-.425.273-.845.398-1.262.125-.425.235-.821.326-1.188h1.563a37.035 37.035 0 0 1-1.201 3.588 41.09 41.09 0 0 1-1.273 2.949h-1.301a44.645 44.645 0 0 1-1.287-2.949 39.707 39.707 0 0 1-1.188-3.588z" fill="#ececec"/></svg>