<svg viewBox="0 0 24 24" xmlns="http://www.w3.org/2000/svg"><path d="M4 2c-1.108 0-2 .892-2 2v16c0 1.108.892 2 2 2h16c1.108 0 2-.892 2-2V4c0-1.108-.892-2-2-2H4zm1.973 5.5c.525 0 1.013.042 1.463.125.45.075.837.203 1.162.387.333.183.592.427.775.727.183.3.275.67.275 1.111 0 .408-.101.759-.301 1.051a2.026 2.026 0 0 1-.813.699c.525.175.912.434 1.162.775.25.342.375.776.375 1.301 0 .892-.325 1.562-.975 2.01-.65.442-1.647.662-2.988.662-.458 0-.92-.015-1.387-.049a6.144 6.144 0 0 1-1.225-.176V7.711c.183-.033.38-.063.588-.088a7.65 7.65 0 0 1 .637-.074 15.983 15.983 0 0 1 1.25-.051zm.199 1.287c-.242 0-.457.005-.648.014-.183.008-.343.02-.477.037v2.275H6.16c.6 0 1.07-.083 1.412-.25.342-.175.514-.484.514-.926 0-.417-.181-.712-.539-.887-.35-.175-.808-.264-1.375-.264zm8.328.787c.492 0 .959.038 1.4.113.442.075.817.155 1.125.238v5.662c0 1.042-.265 1.804-.799 2.287-.525.483-1.334.725-2.426.725a6.83 6.83 0 0 1-2.199-.362l.273-1.289c.258.108.55.197.875.264.333.067.693.1 1.076.1.608 0 1.04-.125 1.299-.375.258-.25.389-.622.389-1.113v-.25c-.15.075-.35.152-.6.227a2.836 2.836 0 0 1-.838.111c-.417 0-.8-.066-1.15-.199a2.464 2.464 0 0 1-.887-.588 2.807 2.807 0 0 1-.576-.963 4.192 4.192 0 0 1-.199-1.35c0-.475.071-.912.213-1.313.15-.4.362-.742.637-1.025a2.976 2.976 0 0 1 1.025-.662c.4-.158.853-.238 1.361-.238zm.014 1.264c-.55 0-.972.182-1.264.549-.292.358-.438.834-.438 1.426 0 .642.139 1.112.414 1.412.283.292.644.438 1.086.438.242 0 .467-.033.676-.1.217-.067.392-.147.525-.238v-3.387a3.46 3.46 0 0 0-.4-.063 3.962 3.962 0 0 0-.6-.037zM5.047 12.35v2.639a13.882 13.882 0 0 0 1.114.049c.325 0 .625-.021.9-.063.283-.042.525-.113.725-.213.208-.108.372-.249.488-.424.125-.175.188-.401.188-.676 0-.492-.181-.834-.539-1.025-.358-.192-.853-.287-1.486-.287H5.048zm14.51 1.969c.242 0 .45.03.625.088.175.058.319.142.432.25a.922.922 0 0 1 .256.375c.058.142.088.298.088.469a.9.9 0 0 1-.17.537c-.108.158-.249.28-.424.363.225.079.409.209.555.393.15.183.227.42.227.707 0 .192-.035.37-.102.537a1.129 1.129 0 0 1-.305.426c-.137.117-.313.21-.525.281-.208.067-.458.1-.75.1-.113 0-.229-.009-.35-.025a2.738 2.738 0 0 1-.338-.057 3.708 3.708 0 0 1-.287-.068 1.34 1.34 0 0 1-.201-.08l.15-.645c.087.042.214.09.381.145.167.05.373.074.619.074.329 0 .567-.063.713-.188a.649.649 0 0 0 .219-.512.634.634 0 0 0-.088-.344.578.578 0 0 0-.23-.219.94.94 0 0 0-.338-.119 2.044 2.044 0 0 0-.4-.037h-.256v-.613h.313c.096 0 .191-.009.287-.025.1-.021.19-.054.27-.1a.613.613 0 0 0 .193-.193.568.568 0 0 0 .074-.307.518.518 0 0 0-.205-.432.562.562 0 0 0-.207-.1.973.973 0 0 0-.25-.031c-.188 0-.354.03-.5.088a2.08 2.08 0 0 0-.387.188l-.275-.563a2.598 2.598 0 0 1 .486-.238c.104-.037.215-.067.332-.088.117-.025.24-.037.369-.037z" fill="#ececec"/></svg>