<svg xmlns="http://www.w3.org/2000/svg" viewBox="0 0 24 24"><path d="M4 2c-1.108 0-2 .892-2 2v16c0 1.108.892 2 2 2h16c1.108 0 2-.892 2-2V4c0-1.108-.892-2-2-2H4zm10.713 4.551v7.486c0 .183.012.338.037.463a.838.838 0 0 0 .162.324.8.8 0 0 0 .301.201c.133.042.3.075.5.1l-.213 1.25c-.45-.008-.825-.059-1.125-.15a1.757 1.757 0 0 1-.699-.387 1.496 1.496 0 0 1-.375-.639 3.486 3.486 0 0 1-.102-.875V6.801l1.514-.25zM7.961 7.5c1.258 0 2.222.229 2.889.688.675.458 1.012 1.175 1.012 2.15 0 .508-.092.946-.275 1.313a2.272 2.272 0 0 1-.773.887c-.342.225-.758.392-1.25.5a7.913 7.913 0 0 1-1.688.162h-.789v3.051H5.513V7.714a7.405 7.405 0 0 1 1.213-.162c.45-.033.861-.051 1.236-.051zm.113 1.363c-.4 0-.73.012-.988.037v2.949h.764c.758 0 1.342-.104 1.75-.313.408-.217.611-.621.611-1.213a1.43 1.43 0 0 0-.162-.711 1.165 1.165 0 0 0-.449-.451 2.04 2.04 0 0 0-.688-.225 4.415 4.415 0 0 0-.838-.074zm9.586 5.455c.508 0 .892.165 1.15.494.262.325.395.785.395 1.381 0 .842-.217 1.479-.65 1.912-.433.433-1.098.652-1.994.656l-.031-.631c.25 0 .476-.021.676-.063.204-.042.381-.108.531-.199.154-.092.283-.212.387-.357.104-.15.184-.332.238-.549a1.723 1.723 0 0 1-.682.142c-.258 0-.479-.033-.662-.1a1.231 1.231 0 0 1-.443-.287 1.198 1.198 0 0 1-.25-.432 1.66 1.66 0 0 1-.082-.525c0-.162.028-.326.082-.492.054-.171.139-.327.256-.469a1.376 1.376 0 0 1 1.08-.483zm.02.625a.623.623 0 0 0-.313.076.66.66 0 0 0-.207.193.837.837 0 0 0-.117.256 1.03 1.03 0 0 0-.039.27c0 .254.061.445.182.574.125.129.32.193.582.193.121 0 .239-.01.355-.031a1.14 1.14 0 0 0 .301-.105c.004-.046.006-.086.006-.119v-.088c0-.167-.012-.323-.037-.469a1.158 1.158 0 0 0-.119-.387.618.618 0 0 0-.23-.264.62.62 0 0 0-.363-.1z" fill="#ececec"/></svg>