<svg xmlns="http://www.w3.org/2000/svg" viewBox="0 0 24 24"><path d="M4 2c-1.108 0-2 .892-2 2v16c0 1.108.892 2 2 2h16c1.108 0 2-.892 2-2V4c0-1.108-.892-2-2-2H4zm1.91 5.5c1.25 0 2.203.229 2.861.688.667.458 1 1.158 1 2.1 0 1.175-.578 1.972-1.736 2.389.158.192.337.424.537.699.2.275.405.575.613.9a16.989 16.989 0 0 1 1.112 1.974H8.535c-.158-.3-.33-.6-.514-.9a17.984 17.984 0 0 0-.563-.887 13.179 13.179 0 0 0-.549-.813 15.833 15.833 0 0 0-.514-.688 4.445 4.445 0 0 1-.299.012h-1v3.275H3.52V7.712a7.963 7.963 0 0 1 1.227-.162c.433-.033.82-.051 1.162-.051zm.111 1.363c-.333 0-.64.012-.924.037v2.799h.688c.383 0 .72-.021 1.012-.063.292-.042.533-.116.725-.225.2-.108.351-.254.451-.438.1-.183.15-.416.15-.699 0-.267-.05-.492-.15-.676a1.111 1.111 0 0 0-.438-.438 1.892 1.892 0 0 0-.662-.225 4.499 4.499 0 0 0-.852-.074zm8.209.688c.458 0 .878.083 1.262.25.392.158.725.387 1 .687.275.3.489.661.639 1.086.158.417.236.884.236 1.4 0 .517-.075.987-.225 1.412-.15.425-.362.788-.637 1.088-.275.3-.608.535-1 .701a3.16 3.16 0 0 1-1.275.25c-.467 0-.892-.083-1.275-.25a2.893 2.893 0 0 1-.988-.701c-.275-.3-.49-.663-.648-1.088a4.216 4.216 0 0 1-.227-1.412c0-.517.077-.984.227-1.4.158-.425.373-.786.648-1.086.283-.3.617-.529 1-.687a3.13 3.13 0 0 1 1.264-.25zm0 1.312c-.5 0-.892.191-1.176.574-.275.375-.412.887-.412 1.537 0 .658.137 1.179.412 1.563.283.383.676.576 1.176.576.5 0 .887-.193 1.162-.576.283-.383.426-.904.426-1.563 0-.65-.142-1.162-.426-1.537-.275-.383-.662-.574-1.162-.574zm4.527 3.555h2.211v.639H19.4a5.774 5.774 0 0 1-.018.244 5.135 5.135 0 0 1-.02.268c-.004.092-.011.18-.02.264a5.5 5.5 0 0 1-.023.211c.617.033 1.07.176 1.361.426.296.246.443.583.443 1.012 0 .196-.033.378-.1.545a1.124 1.124 0 0 1-.307.432 1.498 1.498 0 0 1-.518.287 2.4 2.4 0 0 1-.732.1c-.113 0-.227-.009-.344-.025a4.092 4.092 0 0 1-.336-.063 3.15 3.15 0 0 1-.281-.068 1.41 1.41 0 0 1-.188-.068l.143-.639c.087.042.212.089.375.139.167.046.37.068.607.068.163 0 .301-.017.418-.051a.792.792 0 0 0 .281-.148.561.561 0 0 0 .162-.213.809.809 0 0 0-.031-.631.66.66 0 0 0-.287-.275 1.68 1.68 0 0 0-.543-.17 5.342 5.342 0 0 0-.857-.055c.046-.4.082-.78.107-1.139.025-.363.046-.725.063-1.088z" fill="#ececec"/></svg>