<svg xmlns="http://www.w3.org/2000/svg" viewBox="0 0 24 24"><path d="M4 2c-1.108 0-2 .892-2 2v16c0 1.108.892 2 2 2h16c1.108 0 2-.892 2-2V4c0-1.108-.892-2-2-2H4zm8.955 4.551v3.236c.167-.058.358-.109.574-.15.225-.042.447-.063.664-.063.525 0 .957.077 1.299.227.35.142.63.345.838.611.208.258.354.571.438.938.092.367.137.775.137 1.225v3.676h-1.512v-3.438c0-.35-.024-.645-.074-.887a1.418 1.418 0 0 0-.227-.602.821.821 0 0 0-.412-.336 1.653 1.653 0 0 0-.65-.113c-.2 0-.403.021-.611.063-.208.042-.363.08-.463.113v5.199h-1.512V6.801l1.512-.25zM6.18 7.5c1.258 0 2.22.229 2.887.688.675.458 1.014 1.175 1.014 2.15 0 .508-.092.946-.275 1.313a2.277 2.277 0 0 1-.775.887c-.342.225-.758.392-1.25.5a7.913 7.913 0 0 1-1.688.162h-.787v3.051H3.732V7.714a7.38 7.38 0 0 1 1.211-.162c.45-.033.863-.051 1.238-.051zm.113 1.363c-.4 0-.73.012-.988.037v2.949h.762c.758 0 1.342-.104 1.75-.313.408-.217.613-.621.613-1.213a1.43 1.43 0 0 0-.162-.711 1.17 1.17 0 0 0-.451-.451 2.04 2.04 0 0 0-.688-.225 4.393 4.393 0 0 0-.836-.074zm13.12 5.455c.462 0 .801.111 1.018.332.221.217.332.513.332.893 0 .15-.031.299-.094.445-.063.142-.144.28-.244.418a3.655 3.655 0 0 1-.33.395c-.125.125-.25.246-.375.367a6.045 6.045 0 0 0-.463.489 2.385 2.385 0 0 0-.193.256.446.446 0 0 0-.088.201H20.9v.637h-2.756a1.012 1.012 0 0 1-.006-.119v-.111c0-.2.031-.384.094-.551.067-.171.152-.329.256-.475.104-.146.22-.283.35-.412.129-.129.26-.258.389-.383.1-.096.195-.19.287-.281a2.55 2.55 0 0 0 .238-.268c.071-.092.126-.184.168-.275a.722.722 0 0 0 .063-.293c0-.217-.063-.371-.188-.463a.752.752 0 0 0-.457-.139.996.996 0 0 0-.324.051c-.1.033-.19.073-.27.119a1.52 1.52 0 0 0-.199.143 1.611 1.611 0 0 0-.131.113l-.375-.531c.175-.167.378-.3.611-.4.237-.104.493-.156.764-.156z" fill="#ececec"/></svg>