<svg xmlns="http://www.w3.org/2000/svg" viewBox="0 0 24 24"><path d="M4 2c-1.108 0-2 .892-2 2v16c0 1.108.892 2 2 2h16c1.108 0 2-.892 2-2V4c0-1.108-.892-2-2-2H4zm2.961 5.588h1.488a63.958 63.958 0 0 1 1.676 3.875c.283.7.57 1.441.861 2.225.3.783.613 1.637.938 2.563h-1.699a37.66 37.66 0 0 0-.363-1.012 27.847 27.847 0 0 1-.361-1.025h-3.65c-.117.35-.238.695-.363 1.037l-.35 1H3.501a137.543 137.543 0 0 1 1.774-4.788c.283-.7.563-1.367.838-2s.558-1.258.85-1.875zm.713 1.674c-.192.442-.412.98-.662 1.613-.242.633-.495 1.321-.762 2.063H9.1a84.01 84.01 0 0 0-.775-2.074 50.599 50.599 0 0 0-.65-1.602zm7.82.313c.1 0 .216.009.35.025.133.008.267.026.4.051.133.017.262.041.387.074.125.025.226.051.301.076l-.262 1.273a4.12 4.12 0 0 0-.525-.125 3.44 3.44 0 0 0-1.301-.023 3.22 3.22 0 0 0-.387.086v5.238h-1.514v-6.225a7.961 7.961 0 0 1 1.088-.301c.442-.1.93-.15 1.463-.15zm3.643 4.844h.719v2.676h.486v.619h-.486v1.037h-.738v-1.037h-1.9v-.537c.083-.183.195-.395.332-.633a14.007 14.007 0 0 1 1.012-1.468 8.58 8.58 0 0 1 .576-.656zm-.02.932a8.61 8.61 0 0 0-1.157 1.745h1.156v-1.744z" fill="#ececec"/></svg>