<svg viewBox="0 0 24 24" xmlns="http://www.w3.org/2000/svg"><path d="M4 2c-1.108 0-2 .892-2 2v16c0 1.108.892 2 2 2h16c1.108 0 2-.892 2-2V4c0-1.108-.892-2-2-2H4zm1.418 5.838h1.463c.183.317.386.704.611 1.162.225.458.454.941.688 1.449.233.5.463 1.014.688 1.539.233.517.447.996.639 1.438l.625-1.438c.225-.525.454-1.039.688-1.539.233-.508.463-.991.688-1.449.225-.458.428-.845.611-1.162h1.426a82.988 82.988 0 0 1 .387 4.212c.058.742.109 1.492.15 2.25.05.75.092 1.483.125 2.199h-1.549c-.033-1.01-.075-2.047-.125-3.113-.042-1.067-.11-2.1-.201-3.1-.092.192-.199.421-.324.688-.125.267-.259.558-.4.875-.142.308-.287.63-.438.963-.142.333-.284.658-.426.975l-.375.875-.299.688H8.894a138.28 138.28 0 0 1-.299-.699 32.353 32.353 0 0 0-.389-.875 42.76 42.76 0 0 0-.424-.975 36.538 36.538 0 0 0-.426-.963c-.142-.308-.275-.597-.4-.863a23.846 23.846 0 0 0-.324-.688c-.092 1-.163 2.033-.213 3.1-.042 1.067-.08 2.105-.113 3.113H4.757c.033-.717.07-1.458.111-2.225L5.018 12c.058-.758.121-1.491.188-2.199.067-.708.138-1.363.213-1.963zm13.11 1.986c.1 0 .216.009.35.025.133.008.267.026.4.051.133.017.264.041.389.074.125.025.224.051.299.076l-.262 1.273a4.12 4.12 0 0 0-.525-.125 3.421 3.421 0 0 0-1.301-.023 3.22 3.22 0 0 0-.387.086v5.238h-1.512v-6.225a7.924 7.924 0 0 1 1.086-.301c.442-.1.93-.15 1.463-.15z" fill="#ececec"/></svg>