<svg viewBox="0 0 24 24" xmlns="http://www.w3.org/2000/svg"><path d="M4 2c-1.108 0-2 .892-2 2v16c0 1.108.892 2 2 2h16c1.108 0 2-.892 2-2V4c0-1.108-.892-2-2-2H4zm10.721 4.863c.25 0 .465.083.648.25.183.167.275.396.275.688 0 .283-.092.507-.275.674a.927.927 0 0 1-.648.25.952.952 0 0 1-.664-.25c-.183-.167-.273-.39-.273-.674 0-.292.09-.521.273-.688a.952.952 0 0 1 .664-.25zm-9.672.725h1.574v3.463h3.762V7.588h1.576v8.662h-1.576v-3.838H6.623v3.838H5.049V7.588zm8.922 2.125h1.512v6.537h-1.512V9.713zm4.123 4.605c.462 0 .801.111 1.018.332.221.217.332.513.332.893 0 .15-.031.299-.094.445-.063.142-.144.28-.244.418a3.655 3.655 0 0 1-.33.395c-.125.125-.25.246-.375.367a6.045 6.045 0 0 0-.463.489 2.385 2.385 0 0 0-.193.256.446.446 0 0 0-.088.201h1.924v.637h-2.756a1.012 1.012 0 0 1-.006-.119v-.111c0-.2.031-.384.094-.551.067-.171.152-.329.256-.475.104-.146.22-.283.35-.412.129-.129.26-.258.389-.383.1-.096.195-.19.287-.281a2.55 2.55 0 0 0 .238-.268c.071-.092.126-.184.168-.275a.722.722 0 0 0 .063-.293c0-.217-.063-.371-.188-.463a.752.752 0 0 0-.457-.139.996.996 0 0 0-.324.051c-.1.033-.19.073-.27.119a1.52 1.52 0 0 0-.199.143 1.611 1.611 0 0 0-.131.113l-.375-.531c.175-.167.378-.3.611-.4.238-.104.493-.156.764-.156z" fill="#ececec"/></svg>