<svg viewBox="0 0 24 24" xmlns="http://www.w3.org/2000/svg"><path d="M4 2c-1.108 0-2 .892-2 2v16c0 1.108.892 2 2 2h16c1.108 0 2-.892 2-2V4c0-1.108-.892-2-2-2H4zm10.713 4.551v7.486c0 .183.012.338.037.463a.838.838 0 0 0 .162.324.8.8 0 0 0 .301.201c.133.042.3.075.5.1l-.213 1.25c-.45-.008-.825-.059-1.125-.15a1.757 1.757 0 0 1-.699-.387 1.496 1.496 0 0 1-.375-.639 3.486 3.486 0 0 1-.102-.875V6.801l1.514-.25zM7.961 7.5c1.258 0 2.222.229 2.889.688.675.458 1.012 1.175 1.012 2.15 0 .508-.092.946-.275 1.313a2.272 2.272 0 0 1-.773.887c-.342.225-.758.392-1.25.5a7.913 7.913 0 0 1-1.688.162h-.789v3.051H5.513V7.714a7.405 7.405 0 0 1 1.213-.162c.45-.033.861-.051 1.236-.051zm.113 1.363c-.4 0-.73.012-.988.037v2.949h.764c.758 0 1.342-.104 1.75-.313.408-.217.611-.621.611-1.213a1.43 1.43 0 0 0-.162-.711 1.165 1.165 0 0 0-.449-.451 2.04 2.04 0 0 0-.688-.225 4.415 4.415 0 0 0-.838-.074zm9.469 5.455c.242 0 .45.03.625.088.175.058.317.142.43.25a.926.926 0 0 1 .258.375c.058.142.086.298.086.469a.9.9 0 0 1-.168.537c-.108.158-.251.28-.426.363.225.079.411.209.557.393.15.183.225.42.225.707 0 .192-.033.37-.1.537a1.134 1.134 0 0 1-.307.426c-.137.117-.311.21-.523.281-.208.067-.458.1-.75.1-.113 0-.231-.009-.352-.025a2.705 2.705 0 0 1-.336-.057 3.769 3.769 0 0 1-.289-.068 1.3 1.3 0 0 1-.199-.08l.15-.645c.087.042.214.09.381.145.167.05.373.074.619.074.329 0 .567-.063.713-.188a.649.649 0 0 0 .219-.512.634.634 0 0 0-.088-.344.584.584 0 0 0-.232-.219.93.93 0 0 0-.336-.119 2.044 2.044 0 0 0-.4-.037h-.256v-.613h.313c.096 0 .191-.009.287-.025a.902.902 0 0 0 .268-.1.62.62 0 0 0 .195-.193.568.568 0 0 0 .074-.307c0-.1-.019-.185-.057-.256a.553.553 0 0 0-.355-.276.973.973 0 0 0-.25-.031c-.188 0-.354.03-.5.088a2.1 2.1 0 0 0-.389.188l-.273-.563a2.456 2.456 0 0 1 .486-.238c.104-.037.215-.067.332-.088.117-.025.24-.037.369-.037z" fill="#ececec"/></svg>