<svg xmlns="http://www.w3.org/2000/svg" viewBox="0 0 24 24"><path d="M4 2c-1.108 0-2 .892-2 2v16c0 1.108.892 2 2 2h16c1.108 0 2-.892 2-2V4c0-1.108-.892-2-2-2H4zm2.07 5.5c.525 0 1.013.042 1.463.125.45.075.837.203 1.162.387.333.183.592.427.775.727.183.3.275.67.275 1.111 0 .408-.101.759-.301 1.051a2.033 2.033 0 0 1-.813.699c.525.175.912.434 1.162.775.25.342.375.776.375 1.301 0 .892-.325 1.562-.975 2.01-.65.442-1.647.662-2.988.662-.458 0-.92-.015-1.387-.049a6.144 6.144 0 0 1-1.225-.176V7.711c.183-.033.38-.063.588-.088a7.65 7.65 0 0 1 .637-.074 15.983 15.983 0 0 1 1.25-.051zm.199 1.287c-.242 0-.457.005-.648.014-.183.008-.343.02-.477.037v2.275h1.113c.6 0 1.07-.083 1.412-.25.342-.175.514-.484.514-.926 0-.417-.181-.712-.539-.887-.35-.175-.808-.264-1.375-.264zm8.129.764c.9 0 1.6.278 2.1.836.508.558.764 1.392.764 2.5 0 .083-.005.181-.014.289 0 .1-.003.19-.012.273h-4.313c.042.525.224.935.549 1.227.333.283.813.424 1.438.424.367 0 .7-.033 1-.1.308-.067.552-.138.727-.213l.199 1.238a2.73 2.73 0 0 1-.35.137c-.142.042-.308.08-.5.113a5.807 5.807 0 0 1-1.264.137c-.575 0-1.075-.083-1.5-.25a2.89 2.89 0 0 1-1.049-.713 2.98 2.98 0 0 1-.613-1.074 4.468 4.468 0 0 1-.199-1.363c0-.575.083-1.078.25-1.512.175-.433.404-.791.688-1.074a2.69 2.69 0 0 1 .975-.65c.367-.15.742-.225 1.125-.225zm.012 1.262c-.233 0-.436.045-.611.137a1.386 1.386 0 0 0-.451.338 1.627 1.627 0 0 0-.273.488 2.619 2.619 0 0 0-.139.563h2.813c0-.208-.03-.405-.088-.588a1.294 1.294 0 0 0-.262-.488 1.044 1.044 0 0 0-.412-.324 1.228 1.228 0 0 0-.576-.125zM5.144 12.35v2.639a13.882 13.882 0 0 0 1.114.049c.325 0 .625-.021.9-.063.283-.042.525-.113.725-.213.208-.108.372-.249.488-.424.125-.175.188-.401.188-.676 0-.492-.181-.834-.539-1.025-.358-.192-.853-.287-1.486-.287H5.145zm14.434 1.969c.508 0 .89.165 1.148.494.263.325.395.785.395 1.381 0 .842-.217 1.479-.65 1.912-.433.433-1.098.652-1.994.656l-.031-.631c.25 0 .476-.021.676-.063.204-.042.381-.108.531-.199.154-.092.283-.212.387-.357.104-.15.184-.332.238-.549a1.723 1.723 0 0 1-.682.142c-.258 0-.479-.033-.662-.1a1.231 1.231 0 0 1-.443-.287 1.198 1.198 0 0 1-.25-.432 1.66 1.66 0 0 1-.082-.525c0-.162.028-.326.082-.492.054-.171.139-.327.256-.469a1.385 1.385 0 0 1 1.082-.483zm.018.625a.623.623 0 0 0-.313.076.652.652 0 0 0-.205.193.842.842 0 0 0-.119.256 1.026 1.026 0 0 0-.037.27c0 .254.059.445.18.574.125.129.32.193.582.193.121 0 .239-.01.355-.031a1.14 1.14 0 0 0 .301-.105c.004-.046.006-.086.006-.119v-.088c0-.167-.012-.323-.037-.469a1.158 1.158 0 0 0-.119-.387.618.618 0 0 0-.23-.264.62.62 0 0 0-.363-.1z" fill="#ececec"/></svg>