<svg viewBox="0 0 24 24" xmlns="http://www.w3.org/2000/svg"><path d="M4 2c-1.108 0-2 .892-2 2v16c0 1.108.892 2 2 2h16c1.108 0 2-.892 2-2V4c0-1.108-.892-2-2-2H4zm3.238 5.838h5.477v1.338h-3.9v2.211h3.463v1.338H8.815V16.5H7.239V7.838zm9.04 1.986c.1 0 .216.009.35.025.133.008.267.026.4.051.133.017.264.041.389.074.125.025.224.051.299.076l-.262 1.273a4.12 4.12 0 0 0-.525-.125 3.421 3.421 0 0 0-1.301-.023 3.22 3.22 0 0 0-.387.086v5.238h-1.512v-6.225a7.924 7.924 0 0 1 1.086-.301c.442-.1.93-.15 1.463-.15z" fill="#ececec"/></svg>