<svg xmlns="http://www.w3.org/2000/svg" viewBox="0 0 24 24"><path d="M4 2c-1.108 0-2 .892-2 2v16c0 1.108.892 2 2 2h16c1.108 0 2-.892 2-2V4c0-1.108-.892-2-2-2H4zm-.344 5.588H5.23v3.574c.275-.275.563-.567.863-.875.3-.317.595-.633.887-.949.3-.325.585-.637.852-.938l.725-.813h1.887A92.217 92.217 0 0 1 8.62 9.612c-.325.342-.655.682-.988 1.023-.325.342-.646.668-.963.977.35.267.704.579 1.063.938.367.35.726.728 1.076 1.137.35.4.683.82 1 1.262.325.433.62.867.887 1.301H8.834a16.339 16.339 0 0 0-1.65-2.114c-.308-.342-.63-.666-.963-.975a9.044 9.044 0 0 0-.988-.799v3.887H3.659V7.587zm7.76 2.125h1.514v3.424c0 .7.099 1.2.299 1.5.208.3.568.451 1.076.451.183 0 .374-.009.574-.025.208-.017.363-.038.463-.063V9.713h1.512v6.338c-.292.075-.67.15-1.137.225a8.8 8.8 0 0 1-1.537.125c-.525 0-.968-.075-1.326-.225a2.175 2.175 0 0 1-.85-.625 2.516 2.516 0 0 1-.449-.951 5.132 5.132 0 0 1-.139-1.225V9.713zm8.188 4.605c.246 0 .454.037.625.107.175.071.317.161.426.273.113.113.194.238.244.375.05.137.074.271.074.4 0 .229-.063.434-.188.613a1.569 1.569 0 0 1-.432.418c.246.133.428.288.545.463.121.175.18.382.18.619 0 .179-.031.346-.094.5a1.078 1.078 0 0 1-.281.4 1.305 1.305 0 0 1-.469.262 1.955 1.955 0 0 1-.637.094c-.283 0-.52-.04-.707-.119a1.269 1.269 0 0 1-.449-.299 1.137 1.137 0 0 1-.244-.389 1.297 1.297 0 0 1-.068-.4c0-.125.017-.24.051-.344.038-.108.086-.205.148-.293.063-.092.134-.175.213-.25.079-.075.163-.141.25-.199a1.5 1.5 0 0 1-.432-.432 1.13 1.13 0 0 1-.137-.576 1.149 1.149 0 0 1 .375-.856 1.36 1.36 0 0 1 .438-.27c.171-.067.36-.1.568-.1zm0 .619a.696.696 0 0 0-.293.057.498.498 0 0 0-.193.137.55.55 0 0 0-.15.37c0 .158.057.308.174.449.121.142.322.255.602.338.154-.096.274-.203.361-.324a.812.812 0 0 0 .131-.475.48.48 0 0 0-.037-.176.446.446 0 0 0-.111-.182.64.64 0 0 0-.482-.194zm-.23 1.855a1.21 1.21 0 0 0-.363.352.822.822 0 0 0-.137.48c0 .063.012.128.037.199a.52.52 0 0 0 .125.195.74.74 0 0 0 .225.148.903.903 0 0 0 .344.057.94.94 0 0 0 .326-.049.658.658 0 0 0 .225-.133.596.596 0 0 0 .131-.193.665.665 0 0 0-.025-.532.654.654 0 0 0-.199-.225 1.14 1.14 0 0 0-.301-.168 2.866 2.866 0 0 0-.387-.133z" fill="#ececec"/></svg>