<svg xmlns="http://www.w3.org/2000/svg" viewBox="0 0 24 24"><path d="M4 2c-1.108 0-2 .892-2 2v16c0 1.108.892 2 2 2h16c1.108 0 2-.892 2-2V4c0-1.108-.892-2-2-2H4zm.713 5.838h1.85c.292.65.613 1.296.963 1.938.35.642.716 1.275 1.1 1.9.375-.625.743-1.259 1.102-1.9a24.91 24.91 0 0 0 .975-1.938h1.75a76.3 76.3 0 0 1-1.463 2.637c-.5.867-1.038 1.742-1.613 2.625v3.4H7.803v-3.375a66.785 66.785 0 0 1-1.625-2.65 75.38 75.38 0 0 1-1.463-2.637zm10.879 1.963c.458 0 .878.083 1.262.25.392.158.725.387 1 .688.275.3.487.661.637 1.086.158.417.238.884.238 1.4 0 .517-.075.987-.225 1.412-.15.425-.364.788-.639 1.088-.275.3-.608.535-1 .701a3.15 3.15 0 0 1-1.273.25c-.467 0-.892-.083-1.275-.25a2.893 2.893 0 0 1-.988-.701 3.282 3.282 0 0 1-.65-1.088 4.216 4.216 0 0 1-.225-1.412c0-.517.075-.984.225-1.4.158-.425.375-.786.65-1.086.283-.3.617-.529 1-.688a3.13 3.13 0 0 1 1.264-.25zm0 1.312c-.5 0-.892.191-1.176.574-.275.375-.412.887-.412 1.537 0 .658.137 1.179.412 1.563.283.383.676.576 1.176.576.5 0 .887-.193 1.162-.576.283-.383.424-.904.424-1.563 0-.65-.14-1.162-.424-1.537-.275-.383-.662-.574-1.162-.574z" fill="#ececec"/></svg>