<svg xmlns="http://www.w3.org/2000/svg" viewBox="0 0 24 24"><path d="M4 2c-1.108 0-2 .892-2 2v16c0 1.108.892 2 2 2h16c1.108 0 2-.892 2-2V4c0-1.108-.892-2-2-2H4zm-.881 5.588h1.574v3.463h3.764V7.588h1.574v8.662H8.457v-3.838H4.693v3.838H3.119V7.588zm8.834 2.125h1.514v3.424c0 .7.099 1.2.299 1.5.208.3.568.451 1.076.451.183 0 .374-.009.574-.025.208-.017.363-.037.463-.063V9.713h1.512v6.338c-.292.075-.67.15-1.137.225a8.8 8.8 0 0 1-1.537.125c-.525 0-.968-.075-1.326-.225a2.175 2.175 0 0 1-.85-.625 2.516 2.516 0 0 1-.449-.951 5.132 5.132 0 0 1-.139-1.225V9.713zm8.35 4.705h.531v4.332h-.756v-3.318a2.381 2.381 0 0 1-.424.256 4.402 4.402 0 0 1-.494.207l-.232-.576c.242-.096.485-.219.727-.369a2.97 2.97 0 0 0 .648-.531z" fill="#ececec"/></svg>