<svg viewBox="0 0 24 24" xmlns="http://www.w3.org/2000/svg"><path d="M4 2c-1.108 0-2 .892-2 2v16c0 1.108.892 2 2 2h16c1.108 0 2-.892 2-2V4c0-1.108-.892-2-2-2H4zm4.68 5.387c.358 0 .683.03.975.088.292.05.547.109.764.176.217.067.395.138.537.213.142.075.242.129.301.162l-.463 1.287c-.2-.125-.488-.241-.863-.35a3.925 3.925 0 0 0-1.199-.176c-.375 0-.726.068-1.051.201a2.268 2.268 0 0 0-.85.574 2.771 2.771 0 0 0-.551.975c-.133.392-.199.847-.199 1.363 0 .458.05.878.15 1.262.108.383.27.717.486 1 .217.275.493.492.826.65.333.15.733.225 1.199.225.558 0 1.013-.054 1.363-.162.35-.117.621-.224.813-.324l.424 1.287c-.1.067-.237.133-.412.199a5.974 5.974 0 0 1-.6.201 6.29 6.29 0 0 1-.787.137 6.59 6.59 0 0 1-.938.063c-.65 0-1.233-.101-1.75-.301a3.503 3.503 0 0 1-1.313-.875 3.998 3.998 0 0 1-.826-1.424c-.192-.558-.287-1.201-.287-1.926 0-.725.11-1.365.326-1.924a4.185 4.185 0 0 1 .912-1.414 3.76 3.76 0 0 1 1.35-.887c.517-.2 1.07-.301 1.662-.301zm6.533 2.188c.1 0 .216.009.35.025.133.008.267.026.4.051.133.017.264.041.389.074.125.025.224.051.299.076l-.262 1.273a4.12 4.12 0 0 0-.525-.125 3.421 3.421 0 0 0-1.301-.023 3.22 3.22 0 0 0-.387.086v5.238h-1.512v-6.225a7.924 7.924 0 0 1 1.086-.301c.442-.1.93-.15 1.463-.15zm3.086 4.744c.242 0 .45.03.625.088.175.058.319.142.432.25a.922.922 0 0 1 .256.375c.058.142.088.298.088.469a.9.9 0 0 1-.17.537c-.108.158-.249.28-.424.363.225.079.411.209.557.393.15.183.225.42.225.707 0 .192-.033.37-.1.537a1.134 1.134 0 0 1-.307.426c-.137.117-.313.21-.525.281-.208.067-.458.1-.75.1-.113 0-.229-.009-.35-.025a2.738 2.738 0 0 1-.338-.057 3.708 3.708 0 0 1-.287-.068 1.34 1.34 0 0 1-.201-.08l.15-.645c.087.042.214.09.381.145.167.05.373.074.619.074.329 0 .567-.063.713-.188a.649.649 0 0 0 .219-.512.634.634 0 0 0-.088-.344.578.578 0 0 0-.23-.219.94.94 0 0 0-.338-.119 2.044 2.044 0 0 0-.4-.037H17.8v-.613h.313c.096 0 .191-.009.287-.025.1-.021.19-.054.27-.1a.613.613 0 0 0 .193-.193.568.568 0 0 0 .074-.307c0-.1-.017-.185-.055-.256a.562.562 0 0 0-.357-.276.973.973 0 0 0-.25-.031c-.188 0-.354.03-.5.088a2.08 2.08 0 0 0-.387.188l-.275-.563a2.522 2.522 0 0 1 .488-.238 2.07 2.07 0 0 1 .33-.088c.117-.025.24-.037.369-.037z" fill="#ececec"/></svg>