<svg xmlns="http://www.w3.org/2000/svg" viewBox="0 0 24 24"><path d="M4 2c-1.108 0-2 .892-2 2v16c0 1.108.892 2 2 2h16c1.108 0 2-.892 2-2V4c0-1.108-.892-2-2-2H4zm10.188 4.551v7.486c0 .183.012.338.037.463a.838.838 0 0 0 .162.324.8.8 0 0 0 .301.201c.133.042.3.075.5.1l-.213 1.25c-.45-.008-.825-.059-1.125-.15a1.757 1.757 0 0 1-.699-.387 1.496 1.496 0 0 1-.375-.639 3.49 3.49 0 0 1-.1-.875V6.801l1.512-.25zm-5.613.836c.542 0 1.021.063 1.438.188.425.117.758.247 1 .389l-.488 1.275a3.711 3.711 0 0 0-.938-.363 4.274 4.274 0 0 0-1.037-.125c-.425 0-.758.087-1 .262-.233.175-.35.422-.35.738 0 .192.038.358.113.5.083.133.194.255.336.363.15.108.322.207.514.299.2.092.417.18.65.264.408.15.769.303 1.086.461.325.15.596.334.813.551.225.208.397.458.514.75.117.283.174.629.174 1.037 0 .783-.278 1.393-.836 1.826-.55.425-1.359.637-2.426.637-.358 0-.688-.024-.988-.074a5.893 5.893 0 0 1-1.375-.363 4.417 4.417 0 0 1-.398-.199l.461-1.289c.225.125.531.25.914.375s.845.188 1.387.188c.567 0 .98-.095 1.238-.287.258-.192.387-.463.387-.813 0-.208-.045-.387-.137-.537a1.199 1.199 0 0 0-.375-.4 2.599 2.599 0 0 0-.588-.338 7.729 7.729 0 0 0-.801-.313 13.4 13.4 0 0 1-.875-.35 3.22 3.22 0 0 1-.736-.486 2.38 2.38 0 0 1-.514-.688c-.125-.267-.188-.588-.188-.963 0-.783.271-1.396.813-1.838.542-.45 1.28-.676 2.213-.676zm8.443 6.932c.242 0 .45.03.625.088.175.058.319.142.432.25a.922.922 0 0 1 .256.375c.058.142.088.298.088.469a.9.9 0 0 1-.17.537c-.108.158-.249.28-.424.363.225.079.409.209.555.393.15.183.227.42.227.707 0 .192-.035.37-.102.537a1.129 1.129 0 0 1-.305.426c-.137.117-.313.21-.525.281-.208.067-.458.1-.75.1-.113 0-.229-.009-.35-.025a2.738 2.738 0 0 1-.338-.057 3.708 3.708 0 0 1-.287-.068 1.297 1.297 0 0 1-.201-.08l.15-.645c.088.042.214.09.381.145.167.05.373.074.619.074.329 0 .567-.063.713-.188a.649.649 0 0 0 .219-.512.634.634 0 0 0-.088-.344.578.578 0 0 0-.23-.219.94.94 0 0 0-.338-.119 2.044 2.044 0 0 0-.4-.037h-.256v-.613h.313c.096 0 .191-.009.287-.025.1-.021.19-.054.27-.1a.613.613 0 0 0 .193-.193.568.568 0 0 0 .074-.307.518.518 0 0 0-.205-.432.562.562 0 0 0-.207-.1.973.973 0 0 0-.25-.031c-.188 0-.354.03-.5.088a2.08 2.08 0 0 0-.387.188l-.275-.563a2.598 2.598 0 0 1 .486-.238c.104-.037.215-.067.332-.088.117-.025.24-.037.369-.037z" fill="#ececec"/></svg>