<svg viewBox="0 0 24 24" xmlns="http://www.w3.org/2000/svg"><path d="M4 2c-1.108 0-2 .892-2 2v16c0 1.108.892 2 2 2h16c1.108 0 2-.892 2-2V4c0-1.108-.892-2-2-2H4zm8.736 4.551v3.236c.167-.058.358-.109.574-.15.225-.042.445-.063.662-.063.525 0 .959.077 1.301.227.35.142.63.345.838.611.208.258.354.571.438.938.092.367.137.775.137 1.225v3.676h-1.512v-3.438c0-.35-.026-.645-.076-.887-.042-.25-.116-.452-.225-.602a.821.821 0 0 0-.412-.336 1.653 1.653 0 0 0-.65-.113c-.2 0-.405.021-.613.063-.208.042-.361.08-.461.113v5.199h-1.514V6.801l1.514-.25zM3.5 7.588h6.199V8.75c-.275.3-.608.692-1 1.176-.392.475-.796.996-1.213 1.562a47.768 47.768 0 0 0-1.236 1.736c-.4.592-.754 1.154-1.063 1.688h4.648v1.338H3.286v-.988c.167-.308.358-.642.574-1 .225-.367.463-.742.713-1.125.25-.383.509-.77.775-1.162.275-.392.546-.767.813-1.125.267-.367.525-.712.775-1.037.258-.333.5-.628.725-.887H3.499V7.588zm15.691 6.73c.462 0 .803.111 1.02.332.221.217.332.513.332.893 0 .15-.031.299-.094.445-.063.142-.144.28-.244.418a3.68 3.68 0 0 1-.332.395c-.125.125-.25.246-.375.367a6.134 6.134 0 0 0-.225.227 6.334 6.334 0 0 0-.238.262 2.385 2.385 0 0 0-.193.256.446.446 0 0 0-.088.201h1.926v.637h-2.756a1.012 1.012 0 0 1-.006-.119v-.111c0-.2.031-.384.094-.551.067-.171.152-.329.256-.475.104-.146.22-.283.35-.412a34.758 34.758 0 0 1 .676-.664c.092-.092.17-.18.236-.268.071-.092.128-.184.17-.275a.722.722 0 0 0 .063-.293c0-.217-.063-.371-.188-.463a.752.752 0 0 0-.457-.139.996.996 0 0 0-.324.051c-.1.033-.19.073-.27.119a1.52 1.52 0 0 0-.199.143 1.71 1.71 0 0 0-.133.113l-.375-.531c.175-.167.38-.3.613-.4.237-.104.491-.156.762-.156z" fill="#ececec"/></svg>