<svg viewBox="0 0 24 24" xmlns="http://www.w3.org/2000/svg"><path d="M4 2c-1.108 0-2 .892-2 2v16c0 1.108.892 2 2 2h16c1.108 0 2-.892 2-2V4c0-1.108-.892-2-2-2H4zm10.713 4.551v7.486c0 .183.012.338.037.463a.838.838 0 0 0 .162.324.8.8 0 0 0 .301.201c.133.042.3.075.5.1l-.213 1.25c-.45-.008-.825-.059-1.125-.15a1.757 1.757 0 0 1-.699-.387 1.496 1.496 0 0 1-.375-.639 3.486 3.486 0 0 1-.102-.875V6.801l1.514-.25zM7.961 7.5c1.258 0 2.222.229 2.889.688.675.458 1.012 1.175 1.012 2.15 0 .508-.092.946-.275 1.313a2.272 2.272 0 0 1-.773.887c-.342.225-.758.392-1.25.5a7.913 7.913 0 0 1-1.688.162h-.789v3.051H5.513V7.714a7.405 7.405 0 0 1 1.213-.162c.45-.033.861-.051 1.236-.051zm.113 1.363c-.4 0-.73.012-.988.037v2.949h.764c.758 0 1.342-.104 1.75-.313.408-.217.611-.621.611-1.213a1.43 1.43 0 0 0-.162-.711 1.165 1.165 0 0 0-.449-.451 2.04 2.04 0 0 0-.688-.225 4.415 4.415 0 0 0-.838-.074zm9.836 5.555h.531v4.332h-.756v-3.318a2.381 2.381 0 0 1-.424.256 4.402 4.402 0 0 1-.494.207l-.232-.576c.242-.096.485-.219.727-.369a2.97 2.97 0 0 0 .648-.531z" fill="#ececec"/></svg>