<svg viewBox="0 0 24 24" xmlns="http://www.w3.org/2000/svg"><path d="M4 2c-1.108 0-2 .892-2 2v16c0 1.108.892 2 2 2h16c1.108 0 2-.892 2-2V4c0-1.108-.892-2-2-2H4zm.914 5.588h1.574v7.299h3.9v1.363H4.913V7.588zm5.252 2.125h1.613c.092.367.196.763.313 1.188.125.417.253.837.387 1.262.142.417.284.825.426 1.225.15.392.287.746.412 1.063.125-.317.259-.671.4-1.063.142-.4.279-.808.412-1.225.142-.425.275-.845.4-1.262.125-.425.233-.821.324-1.188h1.563a37.04 37.04 0 0 1-1.199 3.588 41.044 41.044 0 0 1-1.275 2.949h-1.299a44.588 44.588 0 0 1-1.289-2.949 39.707 39.707 0 0 1-1.188-3.588zm8.344 4.705h.531v4.332h-.758v-3.318a2.381 2.381 0 0 1-.424.256 4.402 4.402 0 0 1-.494.207l-.23-.576a4.59 4.59 0 0 0 .725-.369c.246-.15.463-.327.65-.531z" fill="#ececec"/></svg>