<svg viewBox="0 0 24 24" xmlns="http://www.w3.org/2000/svg"><path d="M4 2c-1.108 0-2 .892-2 2v16c0 1.108.892 2 2 2h16c1.108 0 2-.892 2-2V4c0-1.108-.892-2-2-2H4zm3.916 5.387c.542 0 1.021.063 1.438.188.425.117.758.247 1 .389l-.488 1.275a3.711 3.711 0 0 0-.938-.363 4.274 4.274 0 0 0-1.037-.125c-.425 0-.758.087-1 .262-.233.175-.35.422-.35.738 0 .192.036.358.111.5.083.133.196.255.338.363.15.108.32.207.512.299.2.092.417.18.65.264.408.15.771.303 1.088.461.325.15.596.334.812.551.225.208.395.458.512.75.117.283.176.629.176 1.037 0 .783-.28 1.393-.838 1.826-.55.425-1.357.637-2.424.637-.358 0-.688-.024-.988-.074a5.893 5.893 0 0 1-1.375-.363 4.494 4.494 0 0 1-.4-.199l.463-1.289c.225.125.529.25.912.375s.847.188 1.389.188c.567 0 .978-.095 1.236-.287.258-.192.389-.463.389-.813 0-.208-.047-.387-.139-.537a1.199 1.199 0 0 0-.375-.4 2.599 2.599 0 0 0-.588-.338 7.683 7.683 0 0 0-.799-.313 13.4 13.4 0 0 1-.875-.35 3.232 3.232 0 0 1-.738-.486 2.373 2.373 0 0 1-.512-.688c-.125-.267-.188-.588-.188-.963 0-.783.271-1.396.813-1.838.542-.45 1.28-.676 2.213-.676zm6.676 2.188c.1 0 .216.009.35.025.133.008.267.026.4.051.133.017.262.041.387.074.125.025.226.051.301.076l-.264 1.273a4.12 4.12 0 0 0-.525-.125 3.421 3.421 0 0 0-1.299-.023 3.277 3.277 0 0 0-.389.086v5.238h-1.512v-6.225a7.961 7.961 0 0 1 1.088-.301c.442-.1.93-.15 1.463-.15zm3.291 4.744c.246 0 .454.037.625.107.175.071.317.161.426.273.113.113.192.238.242.375.05.137.076.271.076.4 0 .229-.063.434-.188.613a1.569 1.569 0 0 1-.432.418c.246.133.426.288.543.463.121.175.182.382.182.619 0 .179-.031.346-.094.5a1.078 1.078 0 0 1-.281.4 1.305 1.305 0 0 1-.469.262 1.955 1.955 0 0 1-.637.094c-.283 0-.52-.04-.707-.119a1.269 1.269 0 0 1-.449-.299 1.137 1.137 0 0 1-.244-.389 1.297 1.297 0 0 1-.068-.4c0-.125.015-.24.049-.344.037-.108.088-.205.15-.293.063-.092.134-.175.213-.25.079-.075.163-.141.25-.199a1.5 1.5 0 0 1-.432-.432 1.13 1.13 0 0 1-.137-.576 1.149 1.149 0 0 1 .375-.856 1.36 1.36 0 0 1 .438-.27c.171-.067.36-.1.568-.1zm0 .619a.696.696 0 0 0-.293.057.544.544 0 0 0-.306.319.503.503 0 0 0-.037.188c0 .158.057.308.174.449.121.142.32.255.6.338.154-.096.276-.203.363-.324a.812.812 0 0 0 .131-.475.48.48 0 0 0-.037-.176.451.451 0 0 0-.113-.182.63.63 0 0 0-.48-.194zm-.23 1.855a1.21 1.21 0 0 0-.363.352.822.822 0 0 0-.137.48c0 .063.012.128.037.199a.52.52 0 0 0 .125.195.74.74 0 0 0 .225.148.903.903 0 0 0 .344.057.928.928 0 0 0 .324-.049.668.668 0 0 0 .227-.133.596.596 0 0 0 .131-.193.665.665 0 0 0-.025-.532.654.654 0 0 0-.199-.225 1.14 1.14 0 0 0-.301-.168 2.866 2.866 0 0 0-.387-.133z" fill="#ececec"/></svg>