<svg xmlns="http://www.w3.org/2000/svg" viewBox="0 0 24 24"><path d="M4 2c-1.108 0-2 .892-2 2v16c0 1.108.892 2 2 2h16c1.108 0 2-.892 2-2V4c0-1.108-.892-2-2-2H4zm-.393 5.588h1.574v3.574c.275-.275.563-.567.863-.875.3-.317.595-.633.887-.949.3-.325.585-.637.852-.938l.725-.813h1.887a92.217 92.217 0 0 1-1.824 2.025c-.325.342-.655.682-.988 1.023-.325.342-.646.668-.963.977.35.267.704.579 1.063.938.367.35.726.728 1.076 1.137.35.4.683.82 1 1.262.325.433.62.867.887 1.301H8.785a16.339 16.339 0 0 0-1.65-2.114c-.308-.342-.63-.666-.963-.975a9.044 9.044 0 0 0-.988-.799v3.887H3.61V7.587zm10.537 1.963c.458 0 .878.083 1.262.25.392.158.725.387 1 .687.275.3.489.661.639 1.086.158.417.236.884.236 1.4 0 .517-.075.987-.225 1.412-.15.425-.362.788-.637 1.088-.275.3-.608.535-1 .701a3.16 3.16 0 0 1-1.275.25c-.467 0-.892-.083-1.275-.25a2.885 2.885 0 0 1-.986-.701 3.282 3.282 0 0 1-.65-1.088 4.216 4.216 0 0 1-.225-1.412c0-.517.075-.984.225-1.4.158-.425.375-.786.65-1.086.283-.3.617-.529 1-.687.383-.167.803-.25 1.262-.25zm0 1.312c-.5 0-.892.191-1.176.574-.275.375-.412.887-.412 1.537 0 .658.137 1.179.412 1.563.283.383.676.576 1.176.576.5 0 .887-.193 1.162-.576.283-.383.426-.904.426-1.563 0-.65-.142-1.162-.426-1.537-.275-.383-.662-.574-1.162-.574zm5.67 3.555h.531v4.332h-.756v-3.318a2.381 2.381 0 0 1-.424.256 4.402 4.402 0 0 1-.494.207l-.232-.576c.242-.096.485-.219.727-.369a2.97 2.97 0 0 0 .648-.531z" fill="#ececec"/></svg>