<svg xmlns="http://www.w3.org/2000/svg" width="24" height="24"><defs><style id="current-color-scheme" type="text/css"></style></defs><path d="M6 6c-1.108 0-2 .892-2 2v8c0 1.108.892 2 2 2h11c1.108 0 2-.892 2-2V8c0-1.108-.892-2-2-2zm.25 2h1.5a.25.25 0 0 1 .25.25v1.5a.25.25 0 0 1-.25.25h-1.5A.25.25 0 0 1 6 9.75v-1.5A.25.25 0 0 1 6.25 8zm3 0h1.5a.25.25 0 0 1 .25.25v1.5a.25.25 0 0 1-.25.25h-1.5A.25.25 0 0 1 9 9.75v-1.5A.25.25 0 0 1 9.25 8zm3 0h1.5a.25.25 0 0 1 .25.25v1.5a.25.25 0 0 1-.25.25h-1.5a.25.25 0 0 1-.25-.25v-1.5a.25.25 0 0 1 .25-.25zm3 0h1.5a.25.25 0 0 1 .25.25v1.5a.25.25 0 0 1-.25.25h-1.5a.25.25 0 0 1-.25-.25v-1.5a.25.25 0 0 1 .25-.25zm-9 3h1.5a.25.25 0 0 1 .25.25v1.5a.25.25 0 0 1-.25.25h-1.5a.25.25 0 0 1-.25-.25v-1.5a.25.25 0 0 1 .25-.25zm3 0h1.5a.25.25 0 0 1 .25.25v1.5a.25.25 0 0 1-.25.25h-1.5a.25.25 0 0 1-.25-.25v-1.5a.25.25 0 0 1 .25-.25zm3 0h1.5c.139 0 .25.111.25.25v1.5c0 .139-.111.25-.25.25h-1.5a.249.249 0 0 1-.25-.25v-1.5c0-.139.111-.25.25-.25zm3 0h1.5c.139 0 .25.111.25.25v1.5c0 .139-.111.25-.25.25h-1.5a.249.249 0 0 1-.25-.25v-1.5c0-.139.111-.25.25-.25zm-7 3h6.5c.139 0 .25.111.25.25v1.5c0 .139-.111.25-.25.25h-6.5a.25.25 0 0 1-.25-.25v-1.5a.25.25 0 0 1 .25-.25z" fill="currentColor" color="#dfdfdf"/></svg>