<svg xmlns="http://www.w3.org/2000/svg" width="24" height="24" version="1"><defs><style id="current-color-scheme" type="text/css"></style></defs><path d="M16 4a4 4 0 0 0-4 4 4 4 0 0 0 .559 2.027L9.95 12.634 5.71 8.392a1 1 0 0 0-1.416 1.414l4.242 4.242-4.242 4.243a1 1 0 0 0 0 1.416 1 1 0 0 0 1.416 0L6.416 19H8v-1.584L8.416 17H10v-1.487l4.193 4.194a1 1 0 1 0 1.414-1.416l-4.242-4.243 2.608-2.607A4 4 0 0 0 16 12a4 4 0 0 0 0-8zm1 2a1 1 0 1 1 0 2 1 1 0 0 1 0-2z" fill="currentColor" color="#dfdfdf"/></svg>