<svg xmlns="http://www.w3.org/2000/svg" width="24" height="24"><defs><style id="current-color-scheme" type="text/css">.ColorScheme-Text{color:#dfdfdf}</style></defs><path class="ColorScheme-Text" d="M12 4a5 5 0 0 0-5 5 5 5 0 0 0 3 4.576V19l2 2 1-1v-5h1.014c.003-.28.056-.546.13-.805L14 14.051v-.47a5 5 0 0 0 .582-.308 3.022 3.022 0 0 1 1.18-.99A5 5 0 0 0 17 9a5 5 0 0 0-5-5zm0 1a2 2 0 0 1 2 2 2 2 0 0 1-2 2 2 2 0 0 1-2-2 2 2 0 0 1 2-2zm-1 9h1v4h-1z" fill="currentColor"/><path class="ColorScheme-Text" d="M17 13c-1.108 0-2 .91-2 2.031V16h-1v4h6v-4h-1v-.969c0-1.12-.892-2.031-2-2.031zm0 1c.554 0 1 .442 1 1v1h-2v-1c0-.558.446-1 1-1z" fill="currentColor"/></svg>