<svg xmlns="http://www.w3.org/2000/svg" width="24" height="24" version="1"><defs><style id="current-color-scheme" type="text/css">.ColorScheme-Text{color:#dfdfdf}</style></defs><path class="ColorScheme-Text" d="M16 3.999a4 4 0 0 0-4 4 4 4 0 0 0 .56 2.027l-2.608 2.607-1.416 1.415-4.242 4.242a1 1 0 0 0 0 1.416 1 1 0 0 0 1.416 0l.707-.707H8v-1.584l.416-.416H10v-1.487l1.365-1.464 2.607-2.608a4 4 0 0 0 2.028.559 4 4 0 0 0 0-8zm1 2a1 1 0 1 1 0 2 1 1 0 0 1 0-2z" fill="currentColor"/><path opacity=".3" class="ColorScheme-Text" d="M5 8.099a.998.998 0 0 0-.707 1.707l4.243 4.242 1.416-1.414L5.71 8.392A1 1 0 0 0 5 8.099zm6.366 5.95L10 15.512l4.193 4.194a1 1 0 1 0 1.414-1.416l-4.242-4.243z" fill="currentColor"/></svg>