<svg xmlns="http://www.w3.org/2000/svg" width="24" height="24"><path opacity=".35" d="M6.5 4c-.277 0-.5.223-.5.5V5l-2-.002V19.5c0 .277.223.5.5.5h6c.277 0 .5-.223.5-.5V4.999L10.5 5H9v-.5c0-.277-.223-.5-.5-.5z" fill="currentColor" color="#5294e2"/><path d="M14 5c-.554 0-1 .446-1 1v13c0 .554.446 1 1 1h5c.554 0 1-.446 1-1V6c0-.554-.446-1-1-1h-5zm0 3h1v1h-1V8zm2 0h1v1h-1V8zm2 1h1v7h-1V9zm-4 1h1v1h-1v-1zm2 0h1v1h-1v-1zm-2 2h1v1h-1v-1zm2 0h1v1h-1v-1zm-2 2h1v1h-1v-1zm2 0h1v1h-1v-1zm-2 2h1v1h-1v-1zm2 0h1v1h-1v-1z" fill="currentColor" color="#dfdfdf"/></svg>