<svg xmlns="http://www.w3.org/2000/svg" width="24" height="24"><defs><style id="current-color-scheme" type="text/css">.ColorScheme-Text{color:#dfdfdf}</style></defs><path class="ColorScheme-Text" d="M6.5 4c-.277 0-.5.223-.5.5V5H4v14.502c0 .277.223.5.5.5h6c.277 0 .5-.223.5-.5v-14.5l-.5.002H9v-.5c0-.277-.223-.5-.5-.5z" fill="currentColor"/><path fill-rule="evenodd" class="ColorScheme-Text" d="M14 5c-.554 0-1 .446-1 1v13c0 .554.446 1 1 1h5c.554 0 1-.446 1-1V6c0-.554-.446-1-1-1h-5zm0 3h1v1h-1V8zm2 0h1v1h-1V8zm2 1h1v7h-1V9zm-4 1h1v1h-1v-1zm2 0h1v1h-1v-1zm-2 2h1v1h-1v-1zm2 0h1v1h-1v-1zm-2 2h1v1h-1v-1zm2 0h1v1h-1v-1zm-2 2h1v1h-1v-1zm2 0h1v1h-1v-1z" fill="currentColor"/></svg>