<?xml version="1.0" encoding="UTF-8"?>
<svg width="24" height="24" version="1.1" xmlns="http://www.w3.org/2000/svg" xmlns:cc="http://creativecommons.org/ns#" xmlns:dc="http://purl.org/dc/elements/1.1/" xmlns:rdf="http://www.w3.org/1999/02/22-rdf-syntax-ns#">
 <metadata>
  <rdf:RDF>
   <cc:Work rdf:about="">
    <dc:format>image/svg+xml</dc:format>
    <dc:type rdf:resource="http://purl.org/dc/dcmitype/StillImage"/>
    <dc:title/>
   </cc:Work>
  </rdf:RDF>
 </metadata>
 <g fill="#dfdfdf">
  <path d="M4.143 5C3.509 5 3 5.534 3 6.2V17.8c0 .665.51 1.2 1.143 1.2h15.714C20.49 19 21 18.465 21 17.8V6.2C21 5.535 20.49 5 19.857 5H4.143zM9 8a4 4 0 1 1 0 8 4 4 0 0 1 0-8zm5 0h5v1h-5V8zm0 3h5v1h-5v-1zm0 3h5v1h-5v-1z" color="#dfdfdf"/>
  <path d="m9.1 9a3 3 0 1 0 0 6 3 3 0 0 0 0-6z" color="#5294e2"/>
 </g>
</svg>
