<svg xmlns="http://www.w3.org/2000/svg" width="24" height="24" version="1"><defs><style id="current-color-scheme" type="text/css"></style></defs><path d="M4.8 5c-.442 0-.8.362-.8.813v11.375c0 .45.358.812.8.812H7v1.188c0 .45.372.812.834.812h8.332a.822.822 0 0 0 .834-.813V18h2.2c.442 0 .8-.362.8-.813V5.813A.805.805 0 0 0 19.2 5H4.8zM5 6h14v11H5V6zm6 1a1 1 0 0 0-1 1 1 1 0 0 0 1 1 1 1 0 0 0 1-1 1 1 0 0 0-1-1zm5 0a2 2 0 0 0-2 2 2 2 0 0 0 2 2 2 2 0 0 0 2-2 2 2 0 0 0-2-2zm-8.5 3A1.5 1.5 0 0 0 6 11.5 1.5 1.5 0 0 0 7.5 13 1.5 1.5 0 0 0 9 11.5 1.5 1.5 0 0 0 7.5 10zm8.965 2.4a.5.5 0 0 0-.465.5.5.5 0 0 0 .5.5.5.5 0 0 0 .5-.5.5.5 0 0 0-.5-.5.5.5 0 0 0-.035 0zM13 13a1 1 0 0 0-1 1 1 1 0 0 0 1 1 1 1 0 0 0 1-1 1 1 0 0 0-1-1z" fill="currentColor" color="#dfdfdf"/></svg>