<svg xmlns="http://www.w3.org/2000/svg" width="24" height="24"><defs><style id="current-color-scheme" type="text/css">.ColorScheme-Text{color:#dfdfdf}</style></defs><path class="ColorScheme-Text" d="M12 4c-4.406 0-8 3.594-8 8 0 2.968 1.634 5.561 4.045 6.941a2.199 2.199 0 0 1 .576-1.976A5.984 5.984 0 0 1 6 12c0-3.325 2.674-6 6-6a5.985 5.985 0 0 1 5.799 7.527c.442.51.782 1.117.971 1.793.144.044.284.099.421.159A7.926 7.926 0 0 0 20 12c0-4.406-3.594-8-8-8zm0 3c-2.756 0-5 2.244-5 5 0 1.866 1.042 3.479 2.563 4.338.161-.065.327-.121.501-.156a4.66 4.66 0 0 1 .108-.641A3.978 3.978 0 0 1 8 12c0-2.215 1.785-4 4-4s4 1.785 4 4c0 .089-.02.172-.025.26.344.125.661.304.961.508.039-.251.064-.506.064-.768 0-2.756-2.244-5-5-5z" fill="currentColor"/><path class="ColorScheme-Text" d="M14.5 13a3.5 3.5 0 0 0-3.5 3.5 3.5 3.5 0 0 0 .053.607A1.5 1.5 0 0 0 10.5 17 1.5 1.5 0 0 0 9 18.5a1.5 1.5 0 0 0 1.5 1.5H18a2 2 0 0 0 2-2 2 2 0 0 0-2-2 2 2 0 0 0-.04 0 3.5 3.5 0 0 0-3.46-3.002z" fill="currentColor"/></svg>