<svg xmlns="http://www.w3.org/2000/svg" width="24" height="24"><defs><style id="current-color-scheme" type="text/css">.ColorScheme-Text{color:#dfdfdf}</style></defs><g class="ColorScheme-Text" fill="currentColor"><path class="ColorScheme-Text" d="M12 4C7.582 4 4 7.58 4 12c0 4.418 3.579 8 8 8 .326 0 .647-.024.963-.062A5 5 0 0 1 12 17a5 5 0 0 1 2-3.992V12.5L13 14h-2l-1-1.5V15H8V9h2l2 3 2-3h2v3.106A5 5 0 0 1 17 12a5 5 0 0 1 2.938.961c.037-.315.062-.635.062-.96 0-4.418-3.579-8-8-8z"/></g><path d="M17.28 13.008a4 4 0 1 0 0 0zm-1.694 1.871L17 16.293l1.414-1.414.707.707L17.707 17l1.414 1.414-.707.707L17 17.707l-1.414 1.414-.707-.707L16.293 17l-1.414-1.414.707-.707z" fill="currentColor" color="#5294e2"/></svg>