<svg xmlns="http://www.w3.org/2000/svg" width="24" height="24"><defs><style id="current-color-scheme" type="text/css">.ColorScheme-Text{color:#dfdfdf}</style></defs><path class="ColorScheme-Text" d="M12 4c-1.662 0-3 1.338-3 3v5.002A2.992 2.992 0 0 0 12 15c1.662 0 3-1.336 3-2.998V7c0-1.662-1.338-3-3-3z" opacity=".3" fill="currentColor"/><path class="ColorScheme-Text" d="M6 11v.998C6 14.965 8 18 11 18v2h2v-2c3 0 5-3.035 5-6.002v-.997h-2v.998a3.97 3.97 0 0 1-4 4.002 3.97 3.97 0 0 1-4-4.002v-.998H6z" fill="currentColor"/></svg>