<svg width="24" height="24" version="1.1" xmlns="http://www.w3.org/2000/svg">
 <defs>
  <style id="current-color-scheme" type="text/css">.ColorScheme-Text{color:#dfdfdf;}.ColorScheme-Highlight{color:#5294e2;}</style>
 </defs>
 <defs>
  <style type="text/css"/>
 </defs>
 <path class="ColorScheme-Text" d="m12 0.75-9 3v10.5c0 3.105 2.3692 5.2342 4.4092 6.6592s4.5908 2.3408 4.5908 2.3408 2.5508-0.91582 4.5908-2.3408c2.04-1.44 4.4092-3.5992 4.4092-6.6592v-10.5zm0 6.75c0.92688 2e-3 1.83 0.29126 2.5869 0.82617l0.41308-0.82617 1.5 3h-3l0.4043-0.80859c-0.53577-0.44396-1.2085-0.68928-1.9042-0.69141-1.6569 0-3 1.3431-3 3h-1.5c0-2.4854 2.0146-4.5 4.5-4.5zm3 4.5h1.5c0 2.4854-2.0146 4.5-4.5 4.5-0.92703-0.0025-1.8302-0.2908-2.5869-0.82617l-0.41308 0.82617-1.5-3h3l-0.4043 0.80859c0.53577 0.44396 1.2085 0.68928 1.9042 0.69141 1.6569 0 3-1.3431 3-3z" fill="currentColor" stroke-width="1.5"/>
</svg>
