<svg width="24" height="24" version="1.1" xmlns="http://www.w3.org/2000/svg">
 <defs>
  <style id="current-color-scheme" type="text/css">.ColorScheme-Text{color:#dfdfdf;}.ColorScheme-Highlight{color:#5294e2;}</style>
 </defs>
 <path d="m12 0.75-9 3v10.5c0 3.105 2.3702 5.2352 4.4102 6.6602s4.5898 2.3398 4.5898 2.3398 1.6158-0.58493 3.3027-1.5391a5 5 0 0 1-0.30273-1.7109 5 5 0 0 1 5-5 5 5 0 0 1 0.93359 0.087891c0.039784-0.27239 0.066406-0.54967 0.066406-0.83789v-10.5l-9-3zm0 5.25c0.82842 0 1.5 0.67158 1.5 1.5s-0.67158 1.5-1.5 1.5-1.5-0.67158-1.5-1.5 0.67158-1.5 1.5-1.5zm-3 4.5h4.5v7.5h-3v-6h-1.5v-1.5z" fill="#dfdfdf" stroke-width="1.5"/>
 <path class="ColorScheme-Highlight" d="m23 20a3 3 0 0 1-3 3 3 3 0 0 1-3-3 3 3 0 0 1 3-3 3 3 0 0 1 3 3z" fill="currentColor" stroke-width="2"/>
 <path class="ColorScheme-Highlight" d="m24 20a4 4 0 0 1-4 4 4 4 0 0 1-4-4 4 4 0 0 1 4-4 4 4 0 0 1 4 4z" fill="currentColor" stroke-width="2.6667"/>
</svg>
