<svg xmlns="http://www.w3.org/2000/svg" width="24" height="24"><defs><style id="current-color-scheme" type="text/css"></style></defs><path d="M9.666 4C7.081 4 5 6.102 5 8.713v2.574l.002.01c.002 1.723.164 5.563 1.521 7.11C7.747 19.8 10.6 20 11.752 20c2.049 0 3.248-.803 3.248-.803V17.5s-1.521.526-2.98.5c-1.05-.029-2.695-.44-2.92-1.6-.03-.143-.043-.309-.065-.464.209.028.414.064.631.064h4.668C16.919 16 19 13.898 19 11.287V8.713C19 6.102 16.92 4 14.334 4zM9 8a1 1 0 0 1 1 1 1 1 0 0 1-1 1 1 1 0 0 1-1-1 1 1 0 0 1 1-1z" fill="currentColor" color="#dfdfdf"/></svg>