<svg width="24" height="24" version="1.1" xmlns="http://www.w3.org/2000/svg">
 <defs>
  <style id="current-color-scheme" type="text/css">.ColorScheme-Text{color:#dfdfdf}</style>
 </defs>
 <g transform="translate(4,3.998)" color="#000000" fill="#dfdfdf">
  <path d="m8.031 2.002c-3.034 0-5.766 1.078-8.031 2.75l0.232 0.254h15.51l0.258-0.286c-2.257-1.653-4.958-2.718-7.969-2.718zm-2.29 9.004 2.29 2.496 2.266-2.496h-4.557z" opacity=".35" overflow="visible"/>
  <path d="m3.029 6.002c-1.108 0-2 0.892-2 2s0.892 2 2 2 2-0.892 2-2-0.892-2-2-2zm5 0c-1.108 0-2 0.892-2 2s0.892 2 2 2 2-0.892 2-2-0.892-2-2-2zm5 0c-1.108 0-2 0.892-2 2s0.892 2 2 2 2-0.892 2-2-0.892-2-2-2z" overflow="visible"/>
 </g>
</svg>
