<svg xmlns="http://www.w3.org/2000/svg" width="24" height="24"><defs><style id="current-color-scheme" type="text/css">.ColorScheme-Text{color:#dfdfdf}</style></defs><path class="ColorScheme-Text" d="M9 12a2 2 0 0 1-2 2 2 2 0 0 1-2-2 2 2 0 0 1 2-2 2 2 0 0 1 2 2zM14 12a2 2 0 0 1-2 2 2 2 0 0 1-2-2 2 2 0 0 1 2-2 2 2 0 0 1 2 2zM19 12a2 2 0 0 1-2 2 2 2 0 0 1-2-2 2 2 0 0 1 2-2 2 2 0 0 1 2 2z" fill="currentColor"/><path class="ColorScheme-Text" d="M12 5C8.95 5 6.08 6.073 4 8l.727 1h14.546L20 8c-2.081-1.927-4.949-3-8-3zM9.092 15L12 19l2.908-4z" opacity=".3" fill="currentColor"/></svg>