<svg width="24" height="24" version="1.1" viewBox="0 0 24 24" xmlns="http://www.w3.org/2000/svg">
 <defs>
  <style id="current-color-scheme" type="text/css">.ColorScheme-Text { color:#dfdfdf; } .ColorScheme-Highlight { color:#5294e2; }</style>
 </defs>
 <path d="m12.01 6c0.82639 0.0053089 1.4902 0.67232 1.4902 1.5v2c0 0.831-0.669 1.5-1.5 1.5 0.27614 0 0.5 0.22386 0.5 0.5s-0.22386 0.5-0.5 0.5c0.831 0 1.5 0.669 1.5 1.5v2c0 0.16672-0.034225 0.32307-0.083984 0.47266l6.584-7.2539c-2.257-1.653-4.9578-2.7188-7.9688-2.7188-0.007242 0-0.014246-1.23e-5 -0.021484 0zm-0.009766 6c-0.27614 0-0.5-0.22386-0.5-0.5s0.22386-0.5 0.5-0.5c-0.831 0-1.5-0.669-1.5-1.5v-2c0-0.82297 0.65673-1.4853 1.4766-1.498-3.0119 0.013021-5.7253 1.0862-7.9766 2.748l6.5605 7.1465c-0.034852-0.12721-0.060547-0.25792-0.060547-0.39648v-2c0-0.831 0.669-1.5 1.5-1.5zm0-5c-0.277 0-0.5 0.223-0.5 0.5v2c0 0.277 0.223 0.5 0.5 0.5s0.5-0.223 0.5-0.5v-2c0-0.277-0.223-0.5-0.5-0.5zm0 6c-0.277 0-0.5 0.223-0.5 0.5v2c0 0.277 0.223 0.5 0.5 0.5s0.5-0.223 0.5-0.5v-2c0-0.277-0.223-0.5-0.5-0.5zm0.59766 3.875c-0.18343 0.079628-0.38429 0.125-0.59766 0.125-0.18244 0-0.35417-0.036577-0.51562-0.095703l0.54688 0.5957 0.56641-0.625z" color="#000000" fill="#dfdfdf"/>
</svg>
