<svg width="24" height="24" version="1.1" xmlns="http://www.w3.org/2000/svg">
 <defs>
  <style id="current-color-scheme" type="text/css"/>
 </defs>
 <path d="m12.031 6c-3.034 0-5.766 1.077-8.031 2.75l8.031 8.75 7.969-8.783c-2.257-1.652-4.958-2.717-7.969-2.717zm-0.031 2.002a2 2 0 1 1 0 4v1h-1v-2h1a1 1 0 1 0-1-1h-1a2 2 0 0 1 2-2zm-0.5 5.75a0.75 0.75 0 0 1 0.75 0.75 0.75 0.75 0 0 1-0.75 0.75 0.75 0.75 0 0 1-0.75-0.75 0.75 0.75 0 0 1 0.75-0.75z" color="#000000" fill="#dfdfdf" overflow="visible"/>
</svg>
