<svg xmlns="http://www.w3.org/2000/svg" width="24" height="24"><defs><style id="current-color-scheme" type="text/css">.ColorScheme-Text{color:#dfdfdf}</style></defs><path class="ColorScheme-Text" d="M6 6S5 6 5 7v9c0 1 1 1 1 1h2l1 1h4v-2h-3l-1-1H7V8h10v4c.774 0 1.47.31 2 .8V7c0-1-1-1-1-1H6z" fill="currentColor"/><path class="ColorScheme-Text" d="M17 13c-1.108 0-2 .91-2 2.031V16h-1v4h6v-4h-1v-.969c0-1.12-.892-2.031-2-2.031zm0 1c.554 0 1 .442 1 1v1h-2v-1c0-.558.446-1 1-1z" fill="currentColor"/></svg>