<svg width="24" height="24" version="1.1" xmlns="http://www.w3.org/2000/svg">
 <defs>
  <style id="current-color-scheme" type="text/css">.ColorScheme-Text {
        color:#dfdfdf;
      }</style>
 </defs>
 <path class="ColorScheme-Text" d="m2 10.926c-0.55228 0-1 0.44772-1 1s0.44772 1 1 1 1-0.44772 1-1-0.44772-1-1-1zm4 0c-0.55228 0-1 0.44772-1 1s0.44772 1 1 1 1-0.44772 1-1-0.44772-1-1-1zm14 3c-1.108 0-2 0.892-2 2v2h-1v3h6v-3h-1v-2c0-1.108-0.892-2-2-2zm0 1c0.554 0 1 0.446 1 1v2h-2v-2c0-0.554 0.446-1 1-1z" fill="currentColor"/>
 <path class="ColorScheme-Text" d="m11.928 3.0765c-0.52238 0.037851-0.92705 0.47234-0.92773 0.99609v5.7617l-3.2441-2.6133c-1.0359-0.80812-2.2651 0.71976-1.2539 1.5586l3.9043 3.1465-3.9043 3.1465c-0.97484 0.84216 0.22347 2.3298 1.2539 1.5566l3.2441-2.6133v5.7617c5.51e-4 0.55206 0.44794 0.99945 1 1 0.22806 2.29e-4 0.44932-0.07766 0.62695-0.2207l4.8711-3.9258c0.49457-0.40101 0.49457-1.1556 0-1.5566l-3.9023-3.1484 3.9023-3.1465c0.49622-0.40105 0.49622-1.1576 0-1.5586l-4.8711-3.9258c-0.19701-0.15874-0.44687-0.23691-0.69922-0.21875zm1.0723 3.0879 2.2773 1.8359-2.2773 1.8359v-3.6719zm0 7.8535 2.2773 1.8359-2.2773 1.8359v-3.6719z" fill="currentColor"/>
</svg>
