<svg xmlns="http://www.w3.org/2000/svg" width="24" height="24"><defs><style id="current-color-scheme" type="text/css"></style></defs><path d="M4 7.06v9.937c0 2 2 2 2 2h12c2 0 2-2 2-2v-10s0-2-2-2H6s-2 0-2 2.063zm2-.063h4c.666.017 1.167.839.875 1.438L9.5 11.216c.355.116.75.196.969.438.332.366.531.81.531 1.343v2c0 1.113-.907 2-2 2H6v-2h3v-2H8c-.666-.016-1.166-.838-.875-1.437l1.25-2.563H6zm10 0c2 0 2 2 2 2v1h-2v-1h-2v6h2v-2h-1V11.03l2-.032 1 .032v3.937s0 2.031-2 2.031h-2s-2 0-2-2v-6c0-2 2-2 2-2z" fill="currentColor" color="#dfdfdf"/></svg>