<svg xmlns="http://www.w3.org/2000/svg" width="24" height="24"><defs><style id="current-color-scheme" type="text/css">.ColorScheme-Text{color:#dfdfdf}</style></defs><path opacity=".35" class="ColorScheme-Text" d="M6 6S5 6 5 7v2h2V8h10v1h2V7c0-1-1-1-1-1H6zm-1 9v1c0 1 1 1 1 1h2l1 1h6l1-1h2s1 .13 1-1v-1h-4l-1 1h-4l-1-1H5z" fill="currentColor"/><path class="ColorScheme-Text" d="M7 10c-1.108 0-2 .892-2 2s.892 2 2 2 2-.892 2-2-.892-2-2-2zm5 0c-1.108 0-2 .892-2 2s.892 2 2 2 2-.892 2-2-.892-2-2-2zm5 0c-1.108 0-2 .892-2 2s.892 2 2 2 2-.892 2-2-.892-2-2-2z" fill="currentColor"/></svg>