<svg width="24" height="24" version="1.1" xmlns="http://www.w3.org/2000/svg">
 <defs>
  <style id="current-color-scheme" type="text/css">.ColorScheme-Text{color:#dfdfdf}</style>
 </defs>
 <g transform="translate(3.9845,4.998)" color="#000000" fill="#dfdfdf">
  <path d="m8.031 2.002c-3.034 0-5.766 1.078-8.031 2.75l8.031 8.75 1-1.102v-1.398h1.014c0.02-1.632 1.337-2.993 2.976-2.998l2.979-3.284c-2.257-1.653-4.958-2.718-7.969-2.718z" opacity=".35" overflow="visible"/>
  <path d="m13.016 9.002c-1.108 0-2 0.91-2 2.03v0.97h-1v4h6v-4h-1v-0.97c0-1.119-0.892-2.03-2-2.03zm0 1c0.554 0 1 0.442 1 1v1h-2v-1c0-0.558 0.446-1 1-1z" overflow="visible"/>
 </g>
</svg>
