<svg xmlns="http://www.w3.org/2000/svg" width="24" height="24"><defs><style id="current-color-scheme" type="text/css">.ColorScheme-Text{color:#dfdfdf}</style></defs><path opacity=".35" class="ColorScheme-Text" d="M6 6S5 6 5 7v9c0 1 1 1 1 1h2l1 1h5v-2h-4l-1-1H7V8h10v6h2V7c0-1-1-1-1-1H6z" fill="currentColor"/><path class="ColorScheme-Text" d="M15 15v1c0 .276.1.538.281.719l.781.781-.78.781A1.015 1.015 0 0 0 15 19v1h1c.276 0 .538-.1.719-.281l.781-.782.781.782c.181.18.443.281.719.281h1v-1c0-.276-.1-.538-.281-.719l-.782-.781.782-.781c.18-.181.281-.443.281-.719v-1h-1c-.276 0-.538.1-.719.281l-.781.781-.781-.78A1.015 1.015 0 0 0 16 15h-1z" fill="currentColor"/></svg>