<svg xmlns="http://www.w3.org/2000/svg" width="24" height="24"><defs><style id="current-color-scheme" type="text/css"></style></defs><path d="M12.5 5a6.5 6.5 0 0 0-6.01 4.031A5 5 0 0 0 2 14a5 5 0 0 0 5 5h11.75A3.25 3.25 0 0 0 22 15.75a3.237 3.237 0 0 0-1.691-2.836A3 3 0 0 0 21 11a3 3 0 0 0-3-3 3 3 0 0 0-.023 0A6.5 6.5 0 0 0 12.5 5zm0 2a4.5 4.5 0 0 1 4.5 4.5 4.5 4.5 0 0 1-4.5 4.5A4.5 4.5 0 0 1 8 11.5 4.5 4.5 0 0 1 12.5 7zm0 1A3.5 3.5 0 0 0 9 11.5a3.5 3.5 0 0 0 3.5 3.5 3.5 3.5 0 0 0 3.5-3.5A3.5 3.5 0 0 0 12.5 8zM11 9h2.5a1.5 1.5 0 0 1 1.5 1.5 1.5 1.5 0 0 1-1.5 1.5H12v2h-1v-2zm1 1v1h1.5a.5.5 0 0 0 .5-.5.5.5 0 0 0-.5-.5z" fill="currentColor" color="#5294e2"/></svg>