<svg xmlns="http://www.w3.org/2000/svg" width="24" height="24"><defs><style id="current-color-scheme" type="text/css">.ColorScheme-Text{color:#dfdfdf}</style></defs><path class="ColorScheme-Text" d="M13 4c-1 0-1 1-1 1v14s0 1 1 1h8c1 0 1-1 1-1V5s0-1-1-1zm1 2.003h6v11h-6z" fill="currentColor"/><path opacity=".35" class="ColorScheme-Text" d="M5.5 4c-.277 0-.5.223-.5.5V5H3v14.502c0 .277.223.5.5.5h6c.277 0 .5-.223.5-.5v-14.5l-.5.002H8v-.5c0-.277-.223-.5-.5-.5z" fill="currentColor"/><path class="ColorScheme-Text" d="M3 9v10.502c0 .277.223.5.5.5h6c.277 0 .5-.223.5-.5v-10.5z" fill="currentColor"/></svg>