<svg xmlns="http://www.w3.org/2000/svg" width="24" height="24"><defs><style id="current-color-scheme" type="text/css"></style></defs><path d="M12.5 4C9.463 4 7 6.328 7 9.2c.002.133.009.266.021.4H7v.4H5.834c-.462 0-.834.346-.834.777v5.446c0 .43.372.777.834.777H7v2.2c0 .442.377.8.846.8h2.963l1.267-2h.848l1.267 2h2.963c.47 0 .846-.358.846-.8V17h1.166c.462 0 .834-.346.834-.777v-5.446c0-.43-.372-.777-.834-.777H18v-.4h-.018A4.92 4.92 0 0 0 18 9.2C18 6.327 15.537 4 12.5 4zm0 2C14.433 6 16 7 16 9.978l-.002.044H9v-.044C9 7 10.567 6 12.5 6zM10 8v1h1V8zm4 0v1h1V8zm-1.5 3c.923 0 1.467.782 1.467 1.742V13h.617c.227-.04.416.263.416.5v2.072a.42.42 0 0 1-.416.428h-4.168a.42.42 0 0 1-.416-.428V13.5c0-.237.295-.696.416-.5h.617v-.258c0-.96.544-1.742 1.467-1.742zm0 .857c-.462 0-.633.383-.633.858V13h1.266v-.285c0-.475-.171-.858-.633-.858z" fill="currentColor" color="#dfdfdf"/></svg>