<svg xmlns="http://www.w3.org/2000/svg" width="24" height="24"><defs><style id="current-color-scheme" type="text/css">.ColorScheme-Text{color:#dfdfdf}</style></defs><path class="ColorScheme-Text" d="M12.5 4C9.463 4 7 6.328 7 9.2c.002.133.009.266.021.4H7v.4H5.834c-.462 0-.834.346-.834.777v5.446c0 .43.372.777.834.777H7v2.2c0 .442.377.8.846.8h2.963l1.267-2h.848l1.267 2h2.963c.47 0 .846-.358.846-.8V17h1.166c.462 0 .834-.346.834-.777v-5.446c0-.43-.372-.777-.834-.777H18v-.4h-.018A4.92 4.92 0 0 0 18 9.2C18 6.327 15.537 4 12.5 4zm0 2c1.933 0 3.5.999 3.5 3.977l-.002.046L9 10.021v-.044C9 6.999 10.567 6 12.5 6zM10 8v1h1V8h-1zm4 0v1h1V8h-1zm-5.5 4a1.5 1.5 0 0 1 1.5 1.5A1.5 1.5 0 0 1 8.5 15 1.5 1.5 0 0 1 7 13.5 1.5 1.5 0 0 1 8.5 12zm4 0a1.5 1.5 0 0 1 1.5 1.5 1.5 1.5 0 0 1-1.5 1.5 1.5 1.5 0 0 1-1.5-1.5 1.5 1.5 0 0 1 1.5-1.5zm4 0a1.5 1.5 0 0 1 1.5 1.5 1.5 1.5 0 0 1-1.5 1.5 1.5 1.5 0 0 1-1.5-1.5 1.5 1.5 0 0 1 1.5-1.5z" opacity=".3" fill="currentColor"/><path class="ColorScheme-Text" d="M8 13v1h1v-1H8zm4 0v1h1v-1h-1zm4 0v1h1v-1h-1z" fill="currentColor"/></svg>