<svg xmlns="http://www.w3.org/2000/svg" width="24" height="24"><defs><style id="current-color-scheme" type="text/css"></style></defs><path d="M12 3a8.963 8.963 0 0 0-5.625 1.969L4.562 3.156 3.157 4.563 4.97 6.375A8.964 8.964 0 0 0 3 12a9 9 0 1 0 18 0 8.963 8.963 0 0 0-1.969-5.625l1.813-1.813-1.406-1.406-1.813 1.813A8.963 8.963 0 0 0 12 3zm0 2a7 7 0 1 1 0 14 7 7 0 0 1 0-14zm0 1v6l-.627-5.967a6 6 0 0 0-5.355 6.438 6 6 0 0 0 6.296 5.521 6 6 0 0 0 5.684-6.148A6 6 0 0 0 12 6.044z" fill="currentColor" color="#dfdfdf"/></svg>