<svg xmlns="http://www.w3.org/2000/svg" width="24" height="24"><defs><style id="current-color-scheme" type="text/css"></style></defs><path d="M12 4a8 8 0 1 0 0 16 8 8 0 0 0 0-16zM9.5 8h5c.831 0 1.5.669 1.5 1.5v5c0 .831-.669 1.5-1.5 1.5h-5c-.831 0-1.5-.669-1.5-1.5v-5C8 8.669 8.669 8 9.5 8zm1.086 1.379a.498.498 0 0 0-.354.146l-.707.707a.499.499 0 0 0 0 .707L10.585 12l-1.06 1.06a.499.499 0 0 0 0 .708l.707.707a.499.499 0 0 0 .707 0L12 13.415l1.06 1.06a.499.499 0 0 0 .708 0l.707-.707a.499.499 0 0 0 0-.707L13.415 12l1.06-1.06a.499.499 0 0 0 0-.708l-.707-.707a.499.499 0 0 0-.707 0L12 10.585l-1.06-1.06a.498.498 0 0 0-.354-.146z" fill="currentColor" color="#dfdfdf"/></svg>