<svg xmlns="http://www.w3.org/2000/svg" width="24" height="24"><defs><style id="current-color-scheme" type="text/css">.ColorScheme-Text{color:#dfdfdf}</style></defs><path class="ColorScheme-Text" d="M4.857 4A.856.856 0 0 0 4 4.857V12h16V4.857A.856.856 0 0 0 19.143 4H4.857zM8 6a1 1 0 0 1 1 1 1 1 0 0 1-1 1 1 1 0 0 1-1-1 1 1 0 0 1 1-1zm8 0a1 1 0 0 1 1 1 1 1 0 0 1-1 1 1 1 0 0 1-1-1 1 1 0 0 1 1-1zm-6 3c2.054.317 4 0 4 0a2 2 0 1 1-4 0z" opacity=".3" fill="currentColor"/><path class="ColorScheme-Text" d="M4 12v7.143c0 .475.383.857.857.857h14.286a.856.856 0 0 0 .857-.857V12H4zm3.902 1h.196c.5 0 .902.357.902.8v4.4c0 .443-.403.8-.902.8h-.196c-.5 0-.902-.357-.902-.8v-4.4c0-.443.403-.8.902-.8zm4 0h.196c.5 0 .902.357.902.8v4.4c0 .443-.403.8-.902.8h-.196c-.5 0-.902-.357-.902-.8v-4.4c0-.443.403-.8.902-.8zm4 0h.196c.5 0 .902.357.902.8v4.4c0 .443-.403.8-.902.8h-.196c-.5 0-.902-.357-.902-.8v-4.4c0-.443.403-.8.902-.8z" fill="currentColor"/></svg>