<svg xmlns="http://www.w3.org/2000/svg" width="24" height="24" version="1"><defs><style id="current-color-scheme" type="text/css"></style></defs><path d="M3.146 11.027s1.898-2.822 5.689-3.114V6.889C4.636 7.229 1 10.81 1 10.81s2.06 5.998 7.835 6.547V16.27c-4.238-.537-5.69-5.243-5.69-5.243zm5.689 3.079v.997c-3.203-.576-4.092-3.931-4.092-3.931S6.28 9.455 8.835 9.177v1.093h-.004c-1.34-.162-2.388 1.1-2.388 1.1s.587 2.124 2.393 2.735m0-9.106v1.889c.123-.01.246-.018.37-.022 4.774-.162 7.885 3.945 7.885 3.945s-3.573 4.376-7.295 4.376c-.34 0-.66-.031-.96-.085v1.168c.256.033.522.052.8.052 3.463 0 5.968-1.782 8.393-3.891.402.324 2.048 1.114 2.387 1.459-2.306 1.945-7.68 3.513-10.727 3.513a8.76 8.76 0 0 1-.853-.045V19H22V5H8.836zm0 4.178V7.912c.122-.007.245-.015.37-.02 3.433-.108 5.685 2.973 5.685 2.973s-2.432 3.404-5.04 3.404c-.376 0-.712-.061-1.015-.164V10.27c1.336.163 1.605.758 2.409 2.107l1.786-1.518s-1.304-1.723-3.503-1.723c-.239 0-.468.017-.692.04" fill="currentColor" color="#dfdfdf"/></svg>