<svg xmlns="http://www.w3.org/2000/svg" width="24" height="24"><defs><style id="current-color-scheme" type="text/css"></style></defs><path d="M5 5c-.554 0-1 .446-1 1v2.283A1.958 1.958 0 0 1 5 8H8.586l1.707-1.707A1 1 0 0 1 11 6h1c0-.554-.446-1-1-1H5zm6 2L9 9H5c-.554 0-1 .446-1 1v8c0 1.108.892 2 2 2h12c1.108 0 2-.892 2-2V8c0-.554-.446-1-1-1h-8zm.98 2.32a.444.444 0 0 1 .045 0 .444.444 0 0 1 .401.305l.797 2.391 2.519.025a.444.444 0 0 1 .26.801l-2.025 1.498.753 2.404a.444.444 0 0 1-.683.494l-2.049-1.465-2.053 1.461a.444.444 0 0 1-.681-.498l.759-2.402L8 12.834a.444.444 0 0 1 .262-.803l2.519-.019.801-2.387a.444.444 0 0 1 .398-.305z" fill="currentColor" color="#5294e2"/></svg>