<svg xmlns="http://www.w3.org/2000/svg" width="24" height="24"><defs><style id="current-color-scheme" type="text/css"></style></defs><path d="M12 4a7.62 7.62 0 0 0-.994.053c-2.893.431-4.603 1.893-4.945 4.226-.038.258-.049.716-.055 2.469L6 12.83l.084.139c.207.343.493.583 1.855 1.562 2.278 1.636 3.213 2.234 3.79 2.416.09.029.216.052.279.053.382.005 1.501-.644 3.195-1.856 2.112-1.511 2.503-1.825 2.71-2.168L18 12.83v-1.719c0-2.24-.014-2.637-.115-3.117-.18-.856-.51-1.532-1.033-2.121-.84-.946-2.155-1.566-3.86-1.82A7.59 7.59 0 0 0 12 4zm0 3c2 0 2.545 1.179 2.932 2.623.068.254.068.265.068 1.299 0 .573-.008 1.053-.018 1.064-.01.012-1.346.016-2.982.012-1.636.004-2.973 0-2.982-.012-.01-.011-.018-.49-.018-1.064 0-1.034 0-1.045.068-1.299C9.455 8.179 10 7 12 7zm-5.998 7s-.006.588.002 2.775l.01 2.688.09.168c.069.129.125.187.238.254l.148.088 2.391.013c1.315.008 3.775.015 5.469.014l3.08-.002.148-.063c.192-.082.248-.132.336-.298l.072-.135.004-2.451L18 14h-.039l-.049.08c-.206.334-.597.639-2.709 2.111-1.694 1.181-2.813 1.814-3.195 1.809-.063 0-.188-.025-.28-.053-.576-.177-1.511-.757-3.788-2.351-1.363-.954-1.649-1.19-1.856-1.524L6.04 14h-.037z" fill="currentColor" color="#dfdfdf"/></svg>