<svg xmlns="http://www.w3.org/2000/svg" width="24" height="24"><defs><style id="current-color-scheme" type="text/css"></style></defs><path d="M12 4c-1.662 0-3 1.338-3 3v4.008A5 5 0 0 0 7 15a5 5 0 0 0 4.652 4.982A4 4 0 0 0 12 20a5 5 0 0 0 5-5 5 5 0 0 0-2-3.992V7c0-1.662-1.338-3-3-3zm0 2c.589 0 1 .411 1 1v5.008l.8.6a2.997 2.997 0 0 1 1.2 2.394 2.97 2.97 0 0 1-3.16 2.99l-.024-.004-.025-.002A2.973 2.973 0 0 1 9 15a2.997 2.997 0 0 1 1.2-2.393l.8-.6V7c0-.589.411-1 1-1z" fill="currentColor" color="#5294e2"/></svg>