<svg xmlns="http://www.w3.org/2000/svg" width="24" height="24"><defs><style id="current-color-scheme" type="text/css"></style></defs><path d="M4 6v12h2V6H4zm4 0v12l4.252-.033c2.931-.033 3.208-.072 4.447-.676 2.702-1.316 3.98-4.505 2.941-7.344-.685-1.875-2.247-3.263-4.236-3.767-.625-.16-1.021-.18-3.45-.18H8zm6.264 1.918c.797.038 1.68.37 2.564 1.254 1.048 1.048 1.312 2.101 1.238 3.006l.882-.885.707.707-1.414 1.414-.707.707-.707-.707L15.413 12l.707-.707.928.928c.086-.702-.1-1.515-.928-2.342-2.121-2.122-4.242 0-4.242 0l-.707-.708s1.337-1.337 3.092-1.253zm-3.8 1.96l.708.708L12.586 12l-.707.707-.928-.928c-.086.702.1 1.514.927 2.342 2.122 2.121 4.242 0 4.242 0l.707.707s-2.827 2.828-5.656 0c-1.048-1.049-1.312-2.102-1.238-3.006l-.883.885L8.343 12l1.414-1.414.707-.707z" fill="currentColor" color="#dfdfdf"/></svg>