<svg xmlns="http://www.w3.org/2000/svg" width="24" height="24"><defs><style id="current-color-scheme" type="text/css"></style></defs><path d="M4 6v12h2V6H4zm4 0v12l4.252-.033c2.931-.033 3.208-.072 4.447-.676 2.702-1.316 3.98-4.505 2.941-7.344-.685-1.875-2.247-3.263-4.236-3.767-.625-.16-1.021-.18-3.45-.18H8zm6 .344l1.414 1.414.707.707-.707.707L14 10.586l-.707-.707.928-.928c-.702-.086-1.515.1-2.342.928-2.122 2.121 0 4.242 0 4.242l-.708.707s-2.828-2.828 0-5.656c1.049-1.048 2.102-1.312 3.006-1.238l-.885-.883.707-.707zm2.828 2.828s2.828 2.828 0 5.656c-1.048 1.048-2.102 1.312-3.006 1.238l.885.883-.707.707-1.414-1.414-.707-.707.707-.707L14 13.414l.707.707-.928.928c.701.086 1.515-.1 2.342-.928 2.121-2.121 0-4.242 0-4.242l.707-.707z" fill="currentColor" color="#dfdfdf"/></svg>