<svg xmlns="http://www.w3.org/2000/svg" width="24" height="24"><defs><style id="current-color-scheme" type="text/css"></style></defs><path d="M4 6v12h2V6H4zm4 0v12l4.252-.033c2.931-.033 3.208-.072 4.447-.676 2.702-1.316 3.98-4.505 2.941-7.344-.685-1.875-2.247-3.263-4.236-3.767-.625-.16-1.021-.18-3.45-.18H8zm6 2c1.482 0 2.413.558 3 1.25V8h1v3h-3v-1h1.312C15.877 9.443 15.17 9 14 9c-3 0-3 3-3 3h-1s0-4 4-4zm3 4h1s0 4-4 4c-1.483 0-2.413-.558-3-1.25V16h-1v-3h3v1h-1.313c.436.557 1.143 1 2.313 1 3 0 3-3 3-3z" fill="currentColor" color="#dfdfdf"/></svg>