<svg xmlns="http://www.w3.org/2000/svg" width="24" height="24"><defs><style id="current-color-scheme" type="text/css"></style></defs><path d="M12 11a4 4 0 1 1 0 8 4 4 0 0 1 0-8zm0-5a2 2 0 0 1 2 2c0 .471-.102.842-.236 1.107-.133.266-.426.62-.764.893-.33.267-1 .6-1 .6s.303-.364.428-.65c-.141.031-.283.05-.428.05a2 2 0 1 1 0-4zm0-2a4 4 0 0 0-4 4v2H6a1 1 0 0 0-1 1v8a1 1 0 0 0 1 1h12a1 1 0 0 0 1-1v-8a1 1 0 0 0-1-1h-2V8a4 4 0 0 0-4-4zm1 8.175v5.65a3 3 0 0 0 2-2.826 3 3 0 0 0-2-2.824zm-2 0A3 3 0 0 0 9 15a3 3 0 0 0 2 2.824v-5.65z" fill="currentColor" color="#dfdfdf"/></svg>