<svg xmlns="http://www.w3.org/2000/svg" width="24" height="24"><defs><style id="current-color-scheme" type="text/css">.ColorScheme-Text{color:#dfdfdf}</style></defs><path class="ColorScheme-Text" d="M12 4c-1.267 0-2.356.557-3.03 1.4-.676.844-.97 1.915-.97 3V15h2V8.4c0-.715.206-1.344.53-1.75.326-.407.737-.65 1.47-.65s1.144.243 1.47.65c.324.406.53 1.035.53 1.75V15h2V8.4c0-1.085-.294-2.156-.97-3C14.357 4.557 13.268 4 12 4z" opacity=".3" fill="currentColor"/><path class="ColorScheme-Text" d="M9.359 9.004c-1.926-.088-3.258 1.482-3.354 3.182-.049.882.235 1.8.943 2.539L12 20l5.052-5.275c.708-.74.992-1.657.943-2.54-.096-1.7-1.428-3.269-3.354-3.181-1.096.05-2.092.68-2.641 1.672-.55-.992-1.545-1.623-2.641-1.672zM11 12H13v2h-.478l.977 2h-2.996l.977-2h-.478v-2z" fill="currentColor"/></svg>