<svg xmlns="http://www.w3.org/2000/svg" width="24" height="24"><defs><style id="current-color-scheme" type="text/css">.ColorScheme-Text{color:#dfdfdf}</style></defs><path class="ColorScheme-Text" d="M4.143 5C3.509 5 3 5.534 3 6.2V17.8c0 .665.51 1.2 1.143 1.2h15.714C20.49 19 21 18.465 21 17.8V6.2C21 5.535 20.49 5 19.857 5H4.143zM9 8a4 4 0 1 1 0 8 4 4 0 0 1 0-8zm5 0h5v1h-5V8zm0 3h5v1h-5v-1zm0 3h5v1h-5v-1z" fill="currentColor"/><path opacity=".3" class="ColorScheme-Text" d="M9 9a3 3 0 1 0 0 6 3 3 0 0 0 0-6z" fill="currentColor"/></svg>