<svg xmlns="http://www.w3.org/2000/svg" width="24" height="24"><defs><style id="current-color-scheme" type="text/css"></style></defs><path d="M12 4a8 8 0 0 0-8 8 8 8 0 0 0 .992 3.857l1.674-1.113A6 6 0 0 1 6 12a6 6 0 0 1 6-6 6 6 0 0 1 4.594 2.15l1.672-1.113A8 8 0 0 0 12 4zM9 7.6V9.54l1.29.86L9 11.26v1.94l4.2-2.8zm10.012.55l-1.674 1.114A6 6 0 0 1 18 12a6 6 0 0 1-6 6 6 6 0 0 1-4.588-2.143L5.74 16.97A8 8 0 0 0 12 20a8 8 0 0 0 8-8 8 8 0 0 0-.988-3.85zM15 10.8l-4.2 2.8 4.2 2.8V14.46l-1.29-.86L15 12.74z" fill="currentColor" color="#dfdfdf"/></svg>