<svg xmlns="http://www.w3.org/2000/svg" width="24" height="24"><defs><style id="current-color-scheme" type="text/css"></style></defs><path d="M8 4a2 2 0 0 0-2 2 2 2 0 0 0 2 2 2 2 0 0 0 2-2 2 2 0 0 0-2-2zm2.213 0c.483.533.787 1.231.787 2 0 1.645-1.355 3-3 3a2.975 2.975 0 0 1-2-.787V18c0 1.116.884 2 2 2s2-.884 2-2v-3h.408l-.77-1.158-.007-.012C9.343 13.382 9 12.782 9 12.002V12c0-1.645 1.355-3 3-3h.002a3.003 3.003 0 0 1 2.432 1.248l.02.03 2.009 3.015A5.465 5.465 0 0 0 18 9.5C18 6.462 15.5 4 12.5 4zM12 10a2 2 0 0 0-2 2c0 .472.219.895.473 1.29l3.845 5.794A2 2 0 0 0 18 18a2 2 0 0 0-.367-1.15l-4.012-6.018A2 2 0 0 0 12 10z" fill="currentColor" color="#dfdfdf"/></svg>