<svg xmlns="http://www.w3.org/2000/svg" width="24" height="24"><defs><style id="current-color-scheme" type="text/css"></style></defs><path d="M4 4c.625.92 1.081 2.662 1.338 4.682C4.466 9.665 4 10.819 4 12c.003 1.214.496 2.4 1.416 3.398C5.196 17.384 4.74 19.093 4 20c2.101 0 4.003-.894 5.38-2.338.843.221 1.728.336 2.62.338 4.418 0 8-2.686 8-6s-3.582-6-8-6c-.892.002-1.777.117-2.62.338C8.004 4.894 6.102 4 4 4zm8 4a6 4 0 0 1 .652.025h.014a6 4 0 0 1 .057.006 6 4 0 0 1 5.175 3.248c.004.011.01.022.012.034A6 4 0 0 1 18 12a6 4 0 0 1-.084.643c-.007.027-.012.054-.02.082a6 4 0 0 1-.271.65 6 4 0 0 1-4.3 2.521.774.774 0 0 0-.012.002 6 4 0 0 1-.032.004 6 4 0 0 1-.482.057 8.471 8.471 0 0 1-.235.02 6 4 0 0 1-.548.021h-.01A6 4 0 0 1 12 16a6 4 0 0 1-2.584-.396l-.668-.176-.814.853c-.215.225-.498.343-.74.528.06-.403.164-.769.21-1.19l.1-.906-.246-.268a6 4 0 0 1-1.197-1.912c-.005-.023-.008-.047-.012-.07A6 4 0 0 1 6 12a6 4 0 0 1 .047-.477c.003-.018.01-.037.014-.056A6 4 0 0 1 12 8zm-3 3a1 1 0 1 0 0 2 1 1 0 0 0 0-2zm3 0a1 1 0 1 0 0 2 1 1 0 0 0 0-2zm3 0a1 1 0 1 0 0 2 1 1 0 0 0 0-2zm5 6a2 2 0 0 0-2 2 2 2 0 0 0 2 2 2 2 0 0 0 2-2 2 2 0 0 0-2-2z" fill="currentColor" color="#dfdfdf"/></svg>