<svg xmlns="http://www.w3.org/2000/svg" width="24" height="24" version="1"><defs><style id="current-color-scheme" type="text/css"></style></defs><path d="M12 4c-4.432 0-8 3.568-8 8s3.568 8 8 8a7.983 7.983 0 0 0 8-7.988V12c0-4.432-3.568-8-8-8zm.088 2a6 6 0 0 1 4.154 1.758 6 6 0 0 1 0 8.484 6 6 0 0 1-8.484 0 6 6 0 0 1 0-8.484A6 6 0 0 1 12.088 6zM12 7v5l5 .008V12c0-2.773-2.227-5-5-5zm-4 4a1 1 0 0 0-1 1 1 1 0 0 0 1 1 1 1 0 0 0 1-1 1 1 0 0 0-1-1zm4 4a1 1 0 0 0-1 1 1 1 0 0 0 1 1 1 1 0 0 0 1-1 1 1 0 0 0-1-1z" fill="currentColor" color="#dfdfdf"/></svg>