<svg xmlns="http://www.w3.org/2000/svg" width="24" height="24"><defs><style id="current-color-scheme" type="text/css"></style></defs><path d="M9.5 6A5.5 5.5 0 0 0 4 11.5a5.5 5.5 0 0 0 .047.658A3 3 0 0 0 2 15a3 3 0 0 0 3 3h14a3 3 0 0 0 3-3 3 3 0 0 0-2.008-2.828A4 4 0 0 0 20 12a4 4 0 0 0-4-4 4 4 0 0 0-1.902.486A5.5 5.5 0 0 0 9.5 6zM6.984 8C7.537 8 8 8.448 8 9s-.463 1-1.016 1A.987.987 0 0 1 6 9c0-.552.432-1 .984-1zM12 9a4 4 0 1 1 0 8 4 4 0 0 1 0-8zm0 2a2 2 0 1 0 0 4 2 2 0 0 0 0-4z" fill="currentColor" color="#dfdfdf"/></svg>