<?xml version="1.0" encoding="UTF-8"?>
<svg width="24" height="24" version="1.1" xmlns="http://www.w3.org/2000/svg" xmlns:cc="http://creativecommons.org/ns#" xmlns:dc="http://purl.org/dc/elements/1.1/" xmlns:rdf="http://www.w3.org/1999/02/22-rdf-syntax-ns#">
 <metadata>
  <rdf:RDF>
   <cc:Work rdf:about="">
    <dc:format>image/svg+xml</dc:format>
    <dc:type rdf:resource="http://purl.org/dc/dcmitype/StillImage"/>
    <dc:title/>
   </cc:Work>
  </rdf:RDF>
 </metadata>
 <g fill="#dfdfdf">
  <path d="M11.5 4C8.535 4 6.132 6.384 6.035 9.326 4.274 9.951 3.003 11.57 3 13.5c0 2.104 1.496 3.804 3.457 4.29-.078.608-.13 1.216-.383 1.831a1 1 0 0 0 1.16 1.352c2.11-.51 3.784-1.588 5.139-2.973H16c2.75 0 5-2.25 5-5 0-1.737-.925-3.217-2.29-4.087a3 3 0 0 1-.71.087 3 3 0 0 1-3-3 3 3 0 0 1 .06-.6c-.95-.862-2.183-1.398-3.558-1.4a1 1 0 0 0-.002 0zm1.5 9h3c.554 0 1 .445 1 1s-.446 1-1 1h-3c-.554 0-1-.447-1-1s.446-1 1-1z" color="#dfdfdf"/>
  <path d="m20 5.999a2 2 0 0 1-4 0 2 2 0 1 1 4 0z" color="#5294e2"/>
 </g>
</svg>
