<svg xmlns="http://www.w3.org/2000/svg" width="24" height="24"><defs><style id="current-color-scheme" type="text/css"></style></defs><path d="M9 6v.018a3 2.997 0 0 0-3 2.996v.271a2 1.998 0 0 0-1-.271 2 1.998 0 0 0-2 1.998h-.5a.5.5 0 0 0-.5.5.5.5 0 0 0 .5.498h3.061c.696-1.186 1.972-1.998 3.44-1.998h.001c.533 0 1.05.118 1.533.32a5.7 5.7 0 0 1 1.399-1.935A3 2.997 0 0 0 9 6zm6.5 2.012v.004a4.494 4.494 0 0 0-4.441 3.816A2.998 2.998 0 0 0 6 14.008c.001.343.061.683.178 1.006-.06-.01-.119-.01-.178-.01A2 2 0 1 0 6 19h1.045c.371-.102.649-.204.967-.479.34-.293 3.497-5.498 6.377-5.498 1.527.001 3.007.748 3.525 2.797.046.192.108.564.086.682a1.5 1.5 0 0 1-3 0c0-.82.659-1.486 1.479-1.498-.469-.297-1.04-.47-1.475-.475-1.181-.01-1.917 1.021-2.022 1.944-.103.913.196 1.975 2.01 2.527H19.5a2.496 2.496 0 1 0 .232-4.982c.176-.485.266-.995.268-1.51a4.498 4.498 0 0 0-4.5-4.496z" fill="currentColor" color="#5294e2"/></svg>