<svg xmlns="http://www.w3.org/2000/svg" width="24" height="24"><defs><style id="current-color-scheme" type="text/css"></style></defs><path d="M8 5.072A8 8 0 0 0 5.072 16 8 8 0 0 0 16 18.928 8 8 0 0 0 18.928 8 8 8 0 0 0 8 5.072zm1 1.732a6 6 0 0 1 4.897-.49 1.5 1.5 0 0 1 .217-.153 1.5 1.5 0 0 1 2.049.549 1.5 1.5 0 0 1 .15 1.128A6 6 0 0 1 17.196 9a6 6 0 0 1 .76 3.664 1.5 1.5 0 0 1 .5.517 1.5 1.5 0 0 1-.55 2.049 1.5 1.5 0 0 1-.98.182A6 6 0 0 1 15 17.196a6 6 0 0 1-5.996-.004 1.5 1.5 0 0 1-.05.03 1.5 1.5 0 0 1-2.05-.548 1.5 1.5 0 0 1 .008-1.507A6 6 0 0 1 6.804 15 6 6 0 0 1 9 6.803zm.5.866a5 5 0 0 0-1.83 6.83 5 5 0 0 0 .01.019 1.5 1.5 0 0 1 1.303.127l2.721-2.21a1.5 1.5 0 0 1 .662-1.802 1.5 1.5 0 0 1 .798-.2l.72-1.84a1.5 1.5 0 0 1-.319-.384 1.5 1.5 0 0 1-.178-1.012A5 5 0 0 0 9.5 7.67zm5.315 1.288l-.719 1.841a1.5 1.5 0 0 1 .319.384 1.5 1.5 0 0 1 .189.929l1.507.744a1.5 1.5 0 0 1 .294-.224 1.5 1.5 0 0 1 .571-.19A5 5 0 0 0 16.33 9.5a5 5 0 0 0-.597-.82 1.5 1.5 0 0 1-.119.079 1.5 1.5 0 0 1-.799.2zm-2.48 4.253l-2.72 2.21a1.5 1.5 0 0 1 .01.974 5 5 0 0 0 4.875-.065 5 5 0 0 0 1.54-1.397 1.5 1.5 0 0 1-.183-.252 1.5 1.5 0 0 1-.189-.929l-1.507-.744a1.5 1.5 0 0 1-.295.224 1.5 1.5 0 0 1-1.53-.02z" fill="currentColor" color="#dfdfdf"/></svg>