<svg xmlns="http://www.w3.org/2000/svg" width="24" height="24"><defs><style id="current-color-scheme" type="text/css"></style></defs><path d="M5.072 16A8 8 0 0 0 16 18.928 8 8 0 0 0 18.928 8 8 8 0 0 0 8 5.072 8 8 0 0 0 5.072 16zm1.732-1a6 6 0 0 1-.491-4.897 1.5 1.5 0 0 1-.152-.217 1.5 1.5 0 0 1 .549-2.049 1.5 1.5 0 0 1 1.128-.15A6 6 0 0 1 9 6.803a6 6 0 0 1 3.664-.76 1.5 1.5 0 0 1 .517-.5 1.5 1.5 0 0 1 2.049.55 1.5 1.5 0 0 1 .182.98A6 6 0 0 1 17.196 9a6 6 0 0 1-.004 5.997 1.5 1.5 0 0 1 .031.05 1.5 1.5 0 0 1-.549 2.049 1.5 1.5 0 0 1-1.506-.008 6 6 0 0 1-.168.108A6 6 0 0 1 6.804 15zm.866-.5a5 5 0 0 0 6.83 1.83 5 5 0 0 0 .019-.01 1.5 1.5 0 0 1 .127-1.303l-2.21-2.721a1.5 1.5 0 0 1-1.802-.662 1.5 1.5 0 0 1-.2-.798l-1.84-.72a1.5 1.5 0 0 1-.384.319 1.5 1.5 0 0 1-1.012.178A5 5 0 0 0 7.67 14.5zm1.288-5.315l1.841.719a1.5 1.5 0 0 1 .384-.32 1.5 1.5 0 0 1 .928-.188l.745-1.508a1.5 1.5 0 0 1-.224-.294 1.5 1.5 0 0 1-.19-.572A5 5 0 0 0 9.5 7.67a5 5 0 0 0-.82.597 1.5 1.5 0 0 1 .079.12 1.5 1.5 0 0 1 .2.798zm4.253 2.479l2.21 2.72a1.5 1.5 0 0 1 .974-.01A5 5 0 0 0 16.33 9.5a5 5 0 0 0-1.397-1.541 1.5 1.5 0 0 1-.252.184 1.5 1.5 0 0 1-.929.189l-.744 1.507a1.5 1.5 0 0 1 .224.295 1.5 1.5 0 0 1-.021 1.53z" fill="currentColor" color="#dfdfdf"/></svg>