<svg xmlns="http://www.w3.org/2000/svg" width="24" height="24"><defs><style id="current-color-scheme" type="text/css"></style></defs><path d="M20 12a8 8 0 0 0-8-8 8 8 0 0 0-8 8 8 8 0 0 0 8 8 8 8 0 0 0 8-8zm-2 0a6 6 0 0 1-2.023 4.486 1.5 1.5 0 0 1 .023.264 1.5 1.5 0 0 1-1.5 1.5 1.5 1.5 0 0 1-1.053-.434A6 6 0 0 1 12 18a6 6 0 0 1-3.553-1.174A1.5 1.5 0 0 1 7.75 17a1.5 1.5 0 0 1-1.5-1.5 1.5 1.5 0 0 1 .332-.939A6 6 0 0 1 6 12a6 6 0 0 1 3.002-5.191A1.5 1.5 0 0 1 9 6.75a1.5 1.5 0 0 1 1.5-1.5 1.5 1.5 0 0 1 1.3.76A6 6 0 0 1 12 6a6 6 0 0 1 6 6zm-1 0a5 5 0 0 0-5-5 5 5 0 0 0-.021 0 1.5 1.5 0 0 1-.762 1.065l.553 3.46A1.5 1.5 0 0 1 13 13a1.5 1.5 0 0 1-.227.791l1.235 1.543a1.5 1.5 0 0 1 .492-.084 1.5 1.5 0 0 1 .965.352A5 5 0 0 0 17 12zm-3.773 3.959l-1.235-1.543a1.5 1.5 0 0 1-.492.084 1.5 1.5 0 0 1-.898-.301l-1.399.934a1.5 1.5 0 0 1 .047.367 1.5 1.5 0 0 1-.121.59A5 5 0 0 0 12 17a5 5 0 0 0 1.008-.107A1.5 1.5 0 0 1 13 16.75a1.5 1.5 0 0 1 .227-.791zm-2.444-4.273l-.554-3.461a1.5 1.5 0 0 1-.848-.479A5 5 0 0 0 7 12a5 5 0 0 0 .44 2.033A1.5 1.5 0 0 1 7.75 14a1.5 1.5 0 0 1 .898.3l1.399-.933A1.5 1.5 0 0 1 10 13a1.5 1.5 0 0 1 .783-1.315z" fill="currentColor" color="#dfdfdf"/></svg>