<svg xmlns="http://www.w3.org/2000/svg" width="24" height="24"><defs><style id="current-color-scheme" type="text/css"></style></defs><path d="M5.072 8A8 8 0 0 0 8 18.928 8 8 0 0 0 18.928 16 8 8 0 0 0 16 5.072 8 8 0 0 0 5.072 8zm1.732 1a6 6 0 0 1 3.995-2.874 1.5 1.5 0 0 1 .112-.24 1.5 1.5 0 0 1 2.049-.549 1.5 1.5 0 0 1 .695.902A6 6 0 0 1 15 6.804a6 6 0 0 1 2.49 2.793 1.5 1.5 0 0 1 .691.198 1.5 1.5 0 0 1 .549 2.049 1.5 1.5 0 0 1-.758.647A6 6 0 0 1 17.196 15a6 6 0 0 1-5.195 2.995 1.5 1.5 0 0 1-.028.052 1.5 1.5 0 0 1-2.049.549 1.5 1.5 0 0 1-.747-1.309A6 6 0 0 1 9 17.196 6 6 0 0 1 6.804 9zm.866.5a5 5 0 0 0 1.83 6.83 5 5 0 0 0 .019.01 1.5 1.5 0 0 1 1.192-.54l1.251-3.274a1.5 1.5 0 0 1-.328-1.892 1.5 1.5 0 0 1 .592-.572l-.297-1.953a1.5 1.5 0 0 1-.468-.174 1.5 1.5 0 0 1-.66-.786A5 5 0 0 0 7.67 9.5zm5.247-1.542l.298 1.953a1.5 1.5 0 0 1 .468.174 1.5 1.5 0 0 1 .628.71l1.678-.11a1.5 1.5 0 0 1 .143-.342 1.5 1.5 0 0 1 .399-.45A5 5 0 0 0 14.5 7.669a5 5 0 0 0-.927-.41 1.5 1.5 0 0 1-.065.127 1.5 1.5 0 0 1-.592.571zm-.02 4.923l-1.25 3.274a1.5 1.5 0 0 1 .494.839 5 5 0 0 0 4.19-2.494 5 5 0 0 0 .635-1.98 1.5 1.5 0 0 1-.285-.127 1.5 1.5 0 0 1-.628-.71l-1.678.11a1.5 1.5 0 0 1-.143.341 1.5 1.5 0 0 1-1.335.747z" fill="currentColor" color="#dfdfdf"/></svg>