<svg xmlns="http://www.w3.org/2000/svg" width="24" height="24"><path d="M12.018 4c-3.893 0-7.13 2.595-7.834 6.027A7.981 7.5 0 0 0 4 11.604a7.981 7.5 0 0 0 1.232 3.976A3 3 0 0 1 7 15a3 3 0 0 1 .47.041l-.372-.41-.024-.027-.021-.03-.274-.412-.013-.021-.012-.024-.01-.015.598-.319.267-.178.018.028.232.35.616.68.351.265-.347.465a3 3 0 0 1 .796.656l.315-.645.472.233.942.27.328.044-.137.992-.351-.048-.033-.006-.034-.01-1.03-.291-.044-.012-.04-.021-.052-.026A3 3 0 0 1 10 18a3 3 0 0 1-.12.826 7.981 7.5 0 0 0 2.102.278 7.981 7.5 0 0 0 7.836-6.108c.117-.506.182-1.03.182-1.568C20 7.325 16.425 4 12.018 4zm-.022 2h.045l.563.025.021.002.023.004.545.074.034.006.033.01.156.043-.271.963-.114-.033-.5-.07-.513-.022-.514.021-.139.02-.136-.99.16-.022.023-.004.022-.002zm-1.805.287l.27.961-.399.115-.851.42-.36.27-.597-.801.396-.299.037-.027.042-.02.933-.46.041-.022.043-.012zm4.264.197l.854.422.04.02.036.027.814.611.035.03.034.035.02.021-.483.44-.205.275-.774-.582-.812-.402zm-7.008 1.5l.739.672-.327.36-.236.359-.207.393-.174.427-.926-.373.184-.455.01-.025.011-.022.233-.437.012-.024.013-.021.274-.412.021-.03.024-.027zm9.555.47l.256.384.013.021.012.024.233.437.011.022.01.025.186.46.01.025.007.025.135.478.008.028.004.027.008.047-.924.156-.057.016-.002-.006h-.002l-.004-.02-.12-.431-.163-.404-.209-.393-.242-.367zM6.068 10.9l.536.09.453.026-.026.484.024.453.074.44.121.43-.96.27-.128-.448-.008-.028-.004-.027-.082-.496-.004-.028-.002-.027-.029-.512v-.054l.03-.512.001-.027.004-.028zm10.94.573l.996.054-.03.512-.001.027-.004.028-.084.496-.004.027-.008.028-.133.478-.008.025-.01.026-.181.451-.926-.373.17-.424.123-.435.074-.44zm-.809 2.488l.739.672-.67.738-.034.035-.035.03-.803.601-.597-.799.763-.576zm-2.18 1.664l.055.195.352.711-.051.024-.041.021-.043.012-1.031.29-.033.01-.034.007-.545.074-.023.004-.021.002-.323.013-.045-1 .295-.011.502-.07.946-.27.003-.002z" fill="currentColor" color="#dfdfdf"/><circle cx="7" cy="18" r="2" fill="currentColor" color="#5294e2"/></svg>