<svg xmlns="http://www.w3.org/2000/svg" width="24" height="24" version="1"><defs><style id="current-color-scheme" type="text/css"></style></defs><path d="M8 4a4 4 0 0 0-4 4 4 4 0 0 0 1.115 2.77A7 7 0 0 0 5 12a7 7 0 0 0 7 7 7 7 0 0 0 1.238-.113A4 4 0 0 0 16 20a4 4 0 0 0 4-4 4 4 0 0 0-1.115-2.77A7 7 0 0 0 19 12a7 7 0 0 0-7-7 7 7 0 0 0-1.238.113A4 4 0 0 0 8 4zm1.707 4.383L12 10.676l2.293-2.293 1.414 1.414-2.293 2.293 2.293 2.293-1.414 1.414L12 13.504l-2.293 2.293-1.414-1.414 2.293-2.293-2.293-2.293 1.414-1.414z" fill="currentColor" color="#dfdfdf"/></svg>