<?xml version="1.0" encoding="UTF-8"?>
<svg width="24" height="24" version="1.1" xmlns="http://www.w3.org/2000/svg" xmlns:cc="http://creativecommons.org/ns#" xmlns:dc="http://purl.org/dc/elements/1.1/" xmlns:rdf="http://www.w3.org/1999/02/22-rdf-syntax-ns#">
 <metadata>
  <rdf:RDF>
   <cc:Work rdf:about="">
    <dc:format>image/svg+xml</dc:format>
    <dc:type rdf:resource="http://purl.org/dc/dcmitype/StillImage"/>
    <dc:title/>
   </cc:Work>
  </rdf:RDF>
 </metadata>
 <g fill="#dfdfdf">
  <path d="M6 4c-1.108 0-2 .892-2 2v12c0 1.108.892 2 2 2h12c1.108 0 2-.892 2-2V6c0-1.108-.892-2-2-2H6zm3.865 2.305l1.586 2.748A3 3 0 0 1 12 9a3 3 0 0 1 .547.053l1.588-2.748 1.73 1-1.586 2.75a3 3 0 0 1 .546.945H18v2h-3.175a3 3 0 0 1-.543.95l1.584 2.745-1.73 1-1.587-2.748A3 3 0 0 1 12 15a3 3 0 0 1-.547-.053l-1.588 2.748-1.73-1 1.586-2.75A3 3 0 0 1 9.173 13H6v-2h3.176a3 3 0 0 1 .543-.949L8.134 7.305l1.73-1z" color="#dfdfdf"/>
  <path d="m12 10a2 2 0 0 0-2 2 2 2 0 0 0 2 2 2 2 0 0 0 2-2 2 2 0 0 0-2-2z" color="#5294e2"/>
 </g>
</svg>
