<svg xmlns="http://www.w3.org/2000/svg" width="24" height="24"><defs><style id="current-color-scheme" type="text/css"></style></defs><path d="M6 4c-1.108 0-2 .892-2 2v12c0 1.108.892 2 2 2h12c1.108 0 2-.892 2-2V6c0-1.108-.892-2-2-2H6zm3.865 2.305l1.586 2.748A3 3 0 0 1 12 9a3 3 0 0 1 .547.053l1.588-2.748 1.73 1-1.586 2.75a3 3 0 0 1 .547.945H18v2h-3.176a3 3 0 0 1-.543.949l1.584 2.746-1.73 1-1.586-2.748A3 3 0 0 1 12 15a3 3 0 0 1-.547-.053l-1.588 2.748-1.73-1 1.586-2.75A3 3 0 0 1 9.174 13H6v-2h3.176a3 3 0 0 1 .543-.949L8.135 7.305l1.73-1zM12 10a2 2 0 0 0-2 2 2 2 0 0 0 2 2 2 2 0 0 0 2-2 2 2 0 0 0-2-2z" fill="currentColor" color="#dfdfdf"/></svg>