<svg xmlns="http://www.w3.org/2000/svg" width="24" height="24"><defs><style id="current-color-scheme" type="text/css"></style></defs><path d="M12 4a8 8 0 0 0-7.928 6.986L8.2 13.37A2.5 2.5 0 0 1 9.5 13a2.5 2.5 0 0 1 .412.035l2.098-3.27A3 3 0 0 1 15 7a3 3 0 0 1 3 3 3 3 0 0 1-3 3 3 3 0 0 1-.424-.033l-2.597 2.219A2.5 2.5 0 0 1 12 15.5 2.5 2.5 0 0 1 9.5 18 2.5 2.5 0 0 1 7 15.5a2.5 2.5 0 0 1 .05-.484L4.114 13.32A8 8 0 0 0 12 20a8 8 0 0 0 8-8 8 8 0 0 0-8-8zm-7.928 6.986a8 8 0 0 0-.052.616 8 8 0 0 1 .052-.616zM15 8a2 2 0 0 0-2 2 2 2 0 0 0 2 2 2 2 0 0 0 2-2 2 2 0 0 0-2-2zm0 1a1 1 0 0 1 1 1 1 1 0 0 1-1 1 1 1 0 0 1-1-1 1 1 0 0 1 1-1zM4 12a8 8 0 0 0 .04.725A8 8 0 0 1 4 12zm5.46 2a1.5 1.5 0 0 0-.148.014l.188.107c.496.286.672.903.395 1.383s-.9.636-1.395.35l-.498-.288A1.5 1.5 0 0 0 9.5 17a1.5 1.5 0 0 0 1.5-1.5A1.5 1.5 0 0 0 9.5 14a1.5 1.5 0 0 0-.04 0z" fill="currentColor" color="#dfdfdf"/></svg>