<svg xmlns="http://www.w3.org/2000/svg" width="24" height="24"><defs><style id="current-color-scheme" type="text/css"></style></defs><path d="M13.5 4.12c-1.539 0-2.97.788-3.795 2.087A2.993 2.993 0 0 0 9 6.12a3 3 0 0 0-3 3 3 3 0 0 0 .246 1.182A4.5 4.5 0 0 0 3 14.619a4.5 4.5 0 0 0 4.5 4.5h6.445l-3.814-4.162a.5.5 0 0 1 .369-.8H13v-4.5a.5.5 0 0 1 .5-.5h5a.5.5 0 0 1 .21.047 5.49 5.49 0 0 0-.716-.441L18 8.657a4.5 4.5 0 0 0-4.5-4.5zm5.402 5.2a.5.5 0 0 1 .098.3v4.5h1.957c.015-.167.043-.33.043-.5a5.491 5.491 0 0 0-2.098-4.3zm-4.902.8v4.5a.5.5 0 0 1-.5.5h-1.863L16 19.88l4.364-4.76H18.5a.5.5 0 0 1-.5-.5v-4.5h-4z" fill="currentColor" color="#dfdfdf"/></svg>