<svg xmlns="http://www.w3.org/2000/svg" width="24" height="24"><path d="M13.5 5c-1.539 0-2.97.789-3.795 2.088A2.993 2.993 0 0 0 9 7a3 3 0 0 0-3 3 3 3 0 0 0 .246 1.182A4.5 4.5 0 0 0 3 15.5 4.5 4.5 0 0 0 7.5 20h6.445l-3.814-4.162a.5.5 0 0 1 .369-.8H13v-4.5a.5.5 0 0 1 .5-.5h5a.5.5 0 0 1 .21.046 5.466 5.466 0 0 0-.716-.441A4.5 4.5 0 0 0 18 9.537a4.5 4.5 0 0 0-4.5-4.5V5zm5.402 5.201A.5.5 0 0 1 19 10.5V15h1.957c.015-.166.043-.33.043-.5a5.491 5.491 0 0 0-2.098-4.299z" fill="currentColor" color="#dfdfdf"/><path d="M14 11.001v4.5a.5.5 0 0 1-.5.5h-1.863L16 20.761l4.364-4.76H18.5a.5.5 0 0 1-.5-.5v-4.5h-4z" fill="currentColor" color="#5294e2"/></svg>