<svg xmlns="http://www.w3.org/2000/svg" width="24" height="24"><defs><style id="current-color-scheme" type="text/css"></style></defs><path d="M10 3v2.19A6.5 6.5 0 0 0 5.18 10h2.086A4.5 4.5 0 0 1 11.5 7a4.5 4.5 0 0 1 4.232 3h2.077A6.5 6.5 0 0 0 13 5.19V3h-3zm1.5 5A3.5 3.5 0 0 0 8 11.5a3.5 3.5 0 0 0 .041.5h5.908a2.5 2.5 0 0 1-2.449 2 2.5 2.5 0 0 1-1.998-1h-1.16a3.5 3.5 0 0 0 3.158 2 3.5 3.5 0 0 0 3.5-3.5 3.5 3.5 0 0 0-.041-.5H9.051A2.5 2.5 0 0 1 11.5 9a2.5 2.5 0 0 1 1.998 1h1.16A3.5 3.5 0 0 0 11.5 8zm-6.316 5A6.5 6.5 0 0 0 10 17.814V20h3v-2.191A6.5 6.5 0 0 0 17.816 13h-2.08a4.5 4.5 0 0 1-4.236 3 4.5 4.5 0 0 1-4.236-3h-2.08z" fill="currentColor" color="#dfdfdf"/></svg>