<svg xmlns="http://www.w3.org/2000/svg" width="24" height="24"><defs><style id="current-color-scheme" type="text/css">.ColorScheme-Text{color:#dfdfdf}</style></defs><path class="ColorScheme-Text" d="M12 4a8 8 0 0 0-8 8l1.5 2L7 12a5 5 0 0 1 5-5l-2-1.5z" opacity=".3" fill="currentColor"/><path class="ColorScheme-Text" d="M12 4l-2 1.5L12 7a5 5 0 0 1 5 5l1.5-2 1.5 2a8 8 0 0 0-8-8zm-8 8a8 8 0 0 0 8 8l2-1.5-2-1.5a5 5 0 0 1-5-5l-1.5 2zM17.766 12.005a4 4 0 1 0 0 0zm1.711 1.989a.5.5 0 0 1 .47.728l-1.5 3a.5.5 0 0 1-.724.193l-1.5-1a.5.5 0 1 1 .555-.832l1.03.686 1.245-2.492a.5.5 0 0 1 .424-.283z" fill="currentColor"/></svg>