<svg xmlns="http://www.w3.org/2000/svg" width="24" height="24"><defs><style id="current-color-scheme" type="text/css"></style></defs><path d="M12 5c-.554 0-1 .446-1 1v5.004c0 .554.446 1 1 1s1-.446 1-1V6c0-.554-.446-1-1-1zm3.037 1.988a1 1 0 0 0-.193.012 1 1 0 0 0-.438 1.813 3.98 3.98 0 0 1 .813 5.593c-1.33 1.779-3.847 2.112-5.625.781-1.779-1.33-2.112-3.815-.781-5.593.216-.29.463-.53.75-.75a1.003 1.003 0 1 0-1.22-1.594c-.428.332-.83.722-1.155 1.156-1.978 2.644-1.426 6.429 1.218 8.406 2.644 1.978 6.429 1.426 8.406-1.218 1.978-2.644 1.426-6.429-1.218-8.406a1 1 0 0 0-.557-.2z" fill="currentColor" color="#dfdfdf"/></svg>