<svg xmlns="http://www.w3.org/2000/svg" width="24" height="24" version="1"><defs><style id="current-color-scheme" type="text/css"></style></defs><path d="M7 4c-.554 0-1 .446-1 1v2c0-.554.446-1 1-1h10c.554 0 1 .446 1 1V5c0-.554-.446-1-1-1zm0 3c-.554 0-1 .446-1 1v1h12V8c0-.554-.446-1-1-1zm-2 3c-.554 0-1 .446-1 1v8c0 .554.446 1 1 1h14c.554 0 1-.446 1-1v-8c0-.554-.446-1-1-1zm5.25 4h3.5c.139 0 .25.111.25.25v.5a.25.25 0 0 1-.25.25h-3.5a.249.249 0 0 1-.25-.25v-.5a.25.25 0 0 1 .25-.25z" fill="currentColor" color="#dfdfdf"/></svg>