<?xml version="1.0" encoding="UTF-8"?>
<svg width="24" height="24" version="1" xmlns="http://www.w3.org/2000/svg" xmlns:cc="http://creativecommons.org/ns#" xmlns:dc="http://purl.org/dc/elements/1.1/" xmlns:rdf="http://www.w3.org/1999/02/22-rdf-syntax-ns#">
 <metadata>
  <rdf:RDF>
   <cc:Work rdf:about="">
    <dc:format>image/svg+xml</dc:format>
    <dc:type rdf:resource="http://purl.org/dc/dcmitype/StillImage"/>
    <dc:title/>
   </cc:Work>
  </rdf:RDF>
 </metadata>
 <g transform="translate(1 1)" fill="#dfdfdf">
  <path d="M12.473 18.859c-.446-.27-.73-.738-1.968-3.24-.684-1.386-1.337-2.617-1.449-2.735-.125-.133-1.158-.682-2.7-1.435C3.31 9.962 3 9.726 3 8.883c0-.393.192-.77.493-.965.103-.068 3.289-1.208 7.079-2.533 6.66-2.33 6.907-2.41 7.362-2.382.394.024.508.064.697.245.284.27.411.645.356 1.046-.06.43-4.84 13.937-5.019 14.176-.379.51-1.022.678-1.496.39z" color="#dfdfdf"/>
  <circle cx="6" cy="16" r="2" color="#5294e2"/>
 </g>
</svg>
