<svg xmlns="http://www.w3.org/2000/svg" width="24" height="24"><defs><style id="current-color-scheme" type="text/css"></style></defs><path d="M10.027 6.002c-.392.01-.79.084-1.185.218-1.693.575-2.97 2.242-3.348 4.313-1.111.268-2.049 1.248-2.377 2.656-.466 2 .503 4.061 2.158 4.623.027.008.034.024.063.031.228.1.492.157.75.157h11.98c.429 0 .822-.148 1.158-.407 1.341-.774 2.072-2.617 1.656-4.404-.307-1.32-1.168-2.29-2.19-2.625-.009-.044.01-.081 0-.125-.465-2-2.193-3.156-3.847-2.594a2.816 2.816 0 0 0-.875.47c-.912-1.481-2.395-2.354-3.942-2.313h-.002zM9.341 10h1.342c.183 0 .317.216.317.468v5.063c0 .252-.134.469-.317.469H9.341C9.16 16 9 15.783 9 15.53v-5.062c0-.252.159-.468.341-.468zm3 0h1.342c.183 0 .317.216.317.468v5.063c0 .252-.134.469-.317.469h-1.342c-.182 0-.341-.217-.341-.47v-5.062c0-.252.159-.468.341-.468z" fill="currentColor" color="#dfdfdf"/></svg>