<svg xmlns="http://www.w3.org/2000/svg" width="24" height="24"><defs><style id="current-color-scheme" type="text/css"></style></defs><path d="M10.03 6.001a4.04 4.04 0 0 0-1.189.22c-1.693.574-2.969 2.241-3.347 4.312-1.111.268-2.049 1.248-2.377 2.656-.466 2 .503 4.062 2.158 4.624.027.008.035.024.063.031.228.1.493.156.75.156h11.98c.43 0 .822-.147 1.158-.406 1.34-.774 2.074-2.618 1.657-4.405-.307-1.321-1.168-2.29-2.19-2.625-.009-.044.01-.08 0-.125-.465-2-2.193-3.156-3.847-2.594-.318.108-.61.255-.876.47C13.058 6.832 11.576 5.96 10.028 6zm-1.032 4h.782a.76.76 0 0 1 .5.25L12 11.939l1.752-1.688c.2-.172.32-.243.5-.25h.752v.75c0 .215-.026.413-.189.563l-1.72 1.719 1.69 1.687c.14.142.219.33.219.531v.75h-.751c-.2 0-.39-.078-.532-.219l-1.719-1.689-1.72 1.688a.747.747 0 0 1-.532.22H9v-.75a.75.75 0 0 1 .219-.532l1.72-1.687-1.72-1.719a.69.69 0 0 1-.22-.563V10z" fill="currentColor" color="#5294e2"/></svg>