<svg width="24" height="24" version="1.1" xmlns="http://www.w3.org/2000/svg">
 <defs>
  <style id="current-color-scheme" type="text/css">.ColorScheme-Text { color:#dfdfdf; } .ColorScheme-Highlight { color:#4285f4; }</style>
 </defs>
 <path class="ColorScheme-Text" d="m11.576 4.0112a8.0066 8.011 0 0 0-5.2328 2.3242 8.0066 8.011 0 0 0-1.2345 9.7305 8.0066 8.011 0 0 0 1.2345 1.5977l4.2464-4.248-0.41605-0.41602h-2.0001l-1.588 1.5898a6.0049 6.0082 0 0 1 1.1739-6.8379 6.0049 6.0082 0 0 1 6.8267-1.166l1.4747-1.4766a8.0066 8.011 0 0 0-4.4847-1.0977zm6.0903 2.3242-4.2464 4.248 0.41605 0.41602h2.0001l1.5802-1.582a6.0049 6.0082 0 0 1-1.1661 6.8301 6.0049 6.0082 0 0 1-6.8267 1.166l-1.4747 1.4766a8.0066 8.011 0 0 0 9.7175-1.2266 8.0066 8.011 0 0 0 1.2247-9.7207 8.0066 8.011 0 0 0-1.2247-1.6074z" fill="currentColor" opacity=".35"/>
</svg>
