<svg width="24" height="24" version="1.1" xmlns="http://www.w3.org/2000/svg">
 <g fill="#dfdfdf">
  <path d="M6.89 4.27a1.16 1.16 0 0 0-.322.007h-.002c-.251.052-.566.235-1.248.73-.41.3-.972.839-1.104 1.055-.306.514-.289.951.084 1.955.64 1.723 1.575 3.383 2.805 4.985 2.353 3.065 5.317 5.294 9.029 6.789.473.19.627.223.998.205.449-.021.79-.157 1.27-.514.533-.394 1.294-1.32 1.49-1.812.185-.468.136-.892-.14-1.223-.155-.183-1.308-1.103-1.847-1.472a15.947 15.947 0 0 0-1.334-.811c-.383-.191-.765-.224-1.138-.1-.294.099-.39.183-.819.709-.222.269-.427.513-.453.536a1.348 1.348 0 0 1-.209.113c-.346.158-.82.063-1.594-.315-.603-.291-1.137-.66-1.742-1.203-.515-.46-1.035-1.06-1.326-1.527-.375-.602-.661-1.383-.664-1.815 0-.186.077-.45.172-.584.037-.054.272-.258.524-.457.626-.493.766-.647.851-.941.082-.274-.006-.644-.267-1.143-.458-.873-1.855-2.62-2.358-2.945a1.802 1.802 0 0 0-.318-.154 1.463 1.463 0 0 0-.338-.069z" color="#dfdfdf"/>
  <path d="M13.34 7.824a.392.392 0 0 0-.138.043.475.475 0 0 0-.148.723c.105.12.204.157.53.195.692.083 1.1.336 1.333.824.108.23.173.479.207.832.029.266.069.364.195.457.175.132.462.126.618-.013.166-.15.196-.33.124-.79-.105-.704-.345-1.196-.785-1.601-.341-.313-.741-.507-1.26-.615a3.622 3.622 0 0 0-.449-.053h-.002a1.429 1.429 0 0 0-.226-.002zm-.562-1.932a.4.4 0 0 0-.304.188h-.002a.462.462 0 0 0 .04.584c.096.111.24.163.5.184.716.056 1.501.285 2.034.595a3.96 3.96 0 0 1 1.474 1.5c.307.548.485 1.253.485 1.922 0 .434.06.593.264.694.12.062.342.067.445.015a.585.585 0 0 0 .24-.254c.037-.093.036-.654.002-.96a5.059 5.059 0 0 0-.84-2.29c-.814-1.183-2.057-1.91-3.662-2.14-.316-.047-.527-.06-.676-.038zm-.246-1.888c-.43-.013-.518.002-.642.113-.204.178-.194.56.017.723.114.085.201.104.703.133 1.486.084 2.622.477 3.719 1.283 1.316.963 2.14 2.305 2.453 3.986.08.429.12.787.147 1.342.016.362.028.442.076.535.15.282.592.323.793.072.106-.13.118-.23.099-.681-.05-1.325-.344-2.529-.86-3.541-.37-.726-.716-1.194-1.345-1.81-.671-.654-1.179-1.012-1.972-1.391a7.512 7.512 0 0 0-2.45-.711 10.96 10.96 0 0 0-.738-.053z" color="#5294e2" fill="#5294e2"/>
 </g>
</svg>
