<svg xmlns="http://www.w3.org/2000/svg" width="24" height="24"><defs><style id="current-color-scheme" type="text/css"></style></defs><path d="M18 4a2 2 0 0 0-2 2 2 2 0 0 0 .16.778c.017.057.029.125.048.173.418 1.613-.008 2.874-.96 4.022-1.334 1.343-3.25 1.367-4.574.055L6.631 4.635c-.41-.442-.98-.6-1.502-.604-1.122-.018-1.9.878-2.084 1.838-.136.77-.198.636 3.426 7.221 2.288 4.157 3.375 6.073 3.553 6.262.631.667 1.533.832 2.375.435a2.13 2.13 0 0 0 .63-.472c.314-.355 6.698-12.09 6.804-12.494.125-.27.152-.553.167-.82a2 2 0 0 0-2-2z" fill="currentColor" color="#dfdfdf"/></svg>