<svg xmlns="http://www.w3.org/2000/svg" width="24" height="24"><path d="M12 4.003c-2.071 0-3.835 1.268-4.594 3.063A3.981 3.981 0 0 0 4 11.003a3.982 3.982 0 0 0 3.188 3.907c.764-.779 1.52-1.562 2.312-2.313.573.538 1.133 1.1 1.688 1.656.242-.069.382-.846.718-1.093.855-.868 1.71-1.725 2.594-2.563.666.625 1.291 1.261 1.938 1.906.597.572 1.227 1.204 1.437 2.032.016.05.018.104.031.156A3.468 3.468 0 0 0 20 11.503a3.49 3.49 0 0 0-3.094-3.468A5.011 5.011 0 0 0 12 4.003zm2.5 9.438c-.085.083-.165.167-.25.25-.397.416-.9.783-1.125 1.312h2.781a1.308 1.308 0 0 0-.093-.187c-.374-.513-.88-.913-1.313-1.375z" fill="currentColor" color="#dfdfdf"/><path d="M14.5 12l-.344.344-1.406 1.406c-.453.453-.75 1.063-.75 1.75 0 1.375 1.125 2.5 2.5 2.5s2.5-1.125 2.5-2.5c0-.687-.297-1.297-.75-1.75l-1.406-1.406zm-5 2l-.344.344L7.75 15.75c-.453.453-.75 1.063-.75 1.75C7 18.875 8.125 20 9.5 20s2.5-1.125 2.5-2.5c0-.687-.297-1.297-.75-1.75l-1.406-1.406z" fill="currentColor" color="#5294e2"/></svg>