<svg xmlns="http://www.w3.org/2000/svg" width="24" height="24"><defs><style id="current-color-scheme" type="text/css"></style></defs><path d="M12 5C9.929 5 8.165 6.268 7.406 8.063A3.981 3.981 0 0 0 4 12a4 4 0 0 0 4 4h.406a3.68 3.68 0 0 1 2.125-1.688C11.151 12.99 12.506 11.974 14 12c1.908-.03 3.582 1.485 3.875 3.344.143.045.27.09.406.156a3.471 3.471 0 0 0 1.719-3 3.49 3.49 0 0 0-3.094-3.469A5.011 5.011 0 0 0 12 5zm2 8c-1.312 0-2.405.858-2.813 2.031A2.494 2.494 0 0 0 11.5 20H17a2 2 0 1 0 0-4 3 3 0 0 0-3-3z" fill="currentColor" color="#dfdfdf"/></svg>