<svg xmlns="http://www.w3.org/2000/svg" width="24" height="24"><defs><style id="current-color-scheme" type="text/css"></style></defs><path d="M11 4.004l-.5 1.031c.162-.013.335-.031.5-.031h.5l-.5-1zm0 2a5 5 0 0 0-5 5c0 2.254 1.513 4.126 3.563 4.75a3.715 3.715 0 0 1 1.968-1.438c.62-1.322 1.975-2.338 3.469-2.312.304-.005.587.056.875.125.085-.364.125-.735.125-1.125a5 5 0 0 0-5-5zm-4.938.062l.344 1.063c.22-.26.46-.5.719-.719l-1.063-.344zm9.875 0l-1.093.375h-.063c.14.111.275.226.406.344.132.119.258.242.376.375l.374-1.094zM5 10.504l-1 .5 1.031.5c-.015-.17-.031-.326-.031-.5 0-.028-.002-.084 0-.156.006-.116.022-.232.031-.344H5zm11.969 0c.015.17.031.326.031.5 0 .027.002.084 0 .156-.006.116-.022.232-.031.344H17l1-.5-1.031-.5zM15 13.004c-1.312 0-2.405.858-2.813 2.031a2.494 2.494 0 0 0 .313 4.969H18a2 2 0 1 0 0-4 3 3 0 0 0-3-3zm-8.563 1.844l-.375 1.093 1.094-.375h.063a8.605 8.605 0 0 1-.407-.343 4.596 4.596 0 0 1-.375-.375z" fill="currentColor" color="#dfdfdf"/></svg>