<svg xmlns="http://www.w3.org/2000/svg" width="24" height="24"><defs><style id="current-color-scheme" type="text/css"></style></defs><path d="M11 4.002l-.5 1.031c.162-.013.335-.031.5-.031h.5l-.5-1zm0 2a5 5 0 0 0-5 5c0 .47.079.917.201 1.345a4.094 4.094 0 0 1 1.914-1.123c.824-1.405 2.24-2.441 3.983-2.441 1.642 0 3.059.862 3.898 2.146A4.998 4.998 0 0 0 11 6.002zm-4.938.062l.344 1.063c.22-.26.46-.5.719-.719l-1.063-.344zm9.875 0l-1.093.375h-.063c.14.111.275.225.406.344.132.119.258.242.376.375l.374-1.094zm-3.84 3.719c-1.553 0-2.875.95-3.445 2.297a2.986 2.986 0 0 0-2.554 2.953 3 3 0 0 0 3 3h6.375a2.625 2.625 0 0 0 2.625-2.625 2.618 2.618 0 0 0-2.32-2.602 3.759 3.759 0 0 0-3.68-3.023zM5 10.502l-1 .5 1.031.5c-.015-.17-.031-.327-.031-.5 0-.028-.002-.084 0-.156.006-.116.022-.233.031-.344H5zm11.969 0c.015.17.031.326.031.5 0 .027.002.083 0 .156-.006.116-.022.232-.031.344H17l1-.5-1.031-.5z" fill="currentColor" color="#dfdfdf"/></svg>