<svg xmlns="http://www.w3.org/2000/svg" width="24" height="24"><path d="M12 4.003c-2.071 0-3.835 1.268-4.594 3.063A3.981 3.981 0 0 0 4 11.003a4 4 0 0 0 4 4h2v-2.5c0-.83.669-1.5 1.5-1.5s1.5.67 1.5 1.5v2.5h3.5a3.5 3.5 0 0 0 3.5-3.5 3.49 3.49 0 0 0-3.094-3.469A5.011 5.011 0 0 0 12 4.004z" fill="currentColor" color="#dfdfdf"/><path d="M11.344 12a.515.515 0 0 0-.344.5v3.781a.505.505 0 0 0-.031.094l-.625.625H8.282l-.125.156-1 1c-.257.157-.306.567-.093.78.213.213.623.164.78-.093L8.688 18H10v1.5a.52.52 0 0 0 .5.507.52.52 0 0 0 .5-.507v-1.813l.688-.687h2.125l.75.75-1.407 1.406c-.257.157-.305.567-.092.78.213.213.623.164.78-.093l1.406-1.406 1.406 1.406c.158.257.568.306.78.093.214-.213.165-.623-.092-.78l-3-3-.125-.156H12v-3.5c.005-.296-.303-.555-.594-.5a.651.651 0 0 0-.062 0z" fill="currentColor" color="#5294e2"/></svg>