<svg xmlns="http://www.w3.org/2000/svg" width="24" height="24"><defs><style id="current-color-scheme" type="text/css"></style></defs><path d="M11.75 5.031c-2.763.102-5.309 1.805-6.312 4.563a7.026 7.026 0 0 0-.159 4.316c.404-1.318 1.485-2.334 2.838-2.684.17-.29.372-.56.59-.812.01-.71.13-1.429.387-2.133.514-1.413 1.474-2.508 2.656-3.25zm.35 4.754c-1.554 0-2.876.95-3.446 2.297A2.986 2.986 0 0 0 6.1 15.035a3 3 0 0 0 3 3h6.375A2.625 2.625 0 0 0 18.1 15.41a2.618 2.618 0 0 0-2.32-2.602 3.759 3.759 0 0 0-3.68-3.023z" fill="currentColor" color="#dfdfdf"/></svg>