<svg xmlns="http://www.w3.org/2000/svg" width="24" height="24"><defs><style id="current-color-scheme" type="text/css"></style></defs><path d="M11 4a7 6.5 0 0 0-7 6.5 7 6.5 0 0 0 2 4.547V18l1.32-1.98a7 6.5 0 0 0 2.262.834A5.081 5.081 0 0 1 9 14.5c0-2.44 1.723-4.455 4.049-5.193A1 1 0 0 1 13 9a1 1 0 0 1 1-1 1 1 0 0 1 1 1c1.061 0 2.067.262 2.943.717A7 6.5 0 0 0 11 4zM8 8a1 1 0 0 1 1 1 1 1 0 0 1-1 1 1 1 0 0 1-1-1 1 1 0 0 1 1-1zm7 2a5 4.5 0 0 0-5 4.5 5 4.5 0 0 0 5 4.5 5 4.5 0 0 0 2.81-.783L19 20v-2.809a5 4.5 0 0 0 1-2.691 5 4.5 0 0 0-5-4.5zm-2 2a1 1 0 0 1 1 1 1 1 0 0 1-1 1 1 1 0 0 1-1-1 1 1 0 0 1 1-1zm4 0a1 1 0 0 1 1 1 1 1 0 0 1-1 1 1 1 0 0 1-1-1 1 1 0 0 1 1-1z" fill="currentColor" color="#dfdfdf"/></svg>