<?xml version="1.0" encoding="UTF-8"?>
<svg width="24" height="24" version="1" xmlns="http://www.w3.org/2000/svg" xmlns:cc="http://creativecommons.org/ns#" xmlns:dc="http://purl.org/dc/elements/1.1/" xmlns:rdf="http://www.w3.org/1999/02/22-rdf-syntax-ns#">
 <metadata>
  <rdf:RDF>
   <cc:Work rdf:about="">
    <dc:format>image/svg+xml</dc:format>
    <dc:type rdf:resource="http://purl.org/dc/dcmitype/StillImage"/>
    <dc:title/>
   </cc:Work>
  </rdf:RDF>
 </metadata>
 <g transform="translate(1 1)" fill="#dfdfdf">
  <path d="M11 3c-.193 0-.383.01-.572.023l-.07.004a7.975 7.975 0 0 0-6.502 4.375c-.08.158-.16.316-.229.479a7.273 7.273 0 0 0-.615 2.681l-.004.092c-.002.09-.006.179-.006.27L3 11c0 .93.166 1.82.456 2.649.067.215.157.434.238.652a3 3 0 0 1 1.306-.3 3 3 0 0 1 3 3 3 3 0 0 1-.375 1.45c.32.013.628.094 1.157.26.524.164 1.121.253 1.797.277l.085.004c.093.003.182.008.278.008H11c.224 0 .444-.012.663-.03 1.977-.14 3.566-.87 4.996-2.298a7.935 7.935 0 0 0 2.263-4.568c.012-.087.025-.173.034-.26.019-.187.03-.376.037-.567l.004-.144c.002-.045.005-.088.005-.133a7.98 7.98 0 0 0-7.78-7.994l-.101-.002c-.04 0-.08-.004-.12-.004zM6 9a2 2 0 0 1 2 2 2 2 0 0 1-2 2 2 2 0 0 1-2-2 2 2 0 0 1 2-2zm5 0a2 2 0 0 1 2 2 2 2 0 0 1-2 2 2 2 0 0 1-2-2 2 2 0 0 1 2-2zm5 0a2 2 0 0 1 2 2 2 2 0 0 1-2 2 2 2 0 0 1-2-2 2 2 0 0 1 2-2z" color="#dfdfdf"/>
  <circle cx="5" cy="17" r="2" color="#5294e2"/>
 </g>
</svg>
