<svg xmlns="http://www.w3.org/2000/svg" width="24" height="24" version="1"><defs><style id="current-color-scheme" type="text/css"></style></defs><path d="M12 4c-.193 0-.383.01-.572.023l-.07.004a7.976 7.976 0 0 0-6.503 4.375c-.079.158-.16.316-.228.479a7.274 7.274 0 0 0-.615 2.681l-.004.092c-.003.09-.007.18-.006.27L4 12c0 .93.166 1.82.455 2.648.117.372.25.747.412 1.127.403.948.454 1.205.39 1.996-.043.552-.193 1.115-.38 1.432-.17.287-.305.585-.305.66 0 .233 1.348.151 2.541-.154 1.399-.358 1.522-.358 2.668.002.525.164 1.122.253 1.797.277l.086.004c.093.003.182.008.277.008H12c.223 0 .443-.012.662-.03 1.978-.14 3.567-.871 4.996-2.298a7.935 7.935 0 0 0 2.264-4.569c.012-.086.024-.172.033-.26.02-.186.03-.375.037-.566.002-.048.004-.096.004-.144.002-.045.005-.088.005-.133a7.98 7.98 0 0 0-7.779-7.995l-.102-.001c-.04-.001-.079-.004-.119-.004zm-5 6a2 2 0 0 1 2 2 2 2 0 0 1-2 2 2 2 0 0 1-2-2 2 2 0 0 1 2-2zm5 0a2 2 0 0 1 2 2 2 2 0 0 1-2 2 2 2 0 0 1-2-2 2 2 0 0 1 2-2zm5 0a2 2 0 0 1 2 2 2 2 0 0 1-2 2 2 2 0 0 1-2-2 2 2 0 0 1 2-2z" fill="currentColor" color="#dfdfdf"/></svg>