<svg xmlns="http://www.w3.org/2000/svg" width="24" height="24"><defs><style id="current-color-scheme" type="text/css"></style></defs><path d="M12 4c-.193 0-.383.01-.572.023l-.07.004a7.975 7.975 0 0 0-6.503 4.375c-.079.158-.16.316-.228.479a7.274 7.274 0 0 0-.615 2.681l-.004.092c-.003.09-.007.18-.006.27L4 12c0 .93.166 1.82.455 2.648.117.372.25.747.412 1.127.403.948.454 1.205.39 1.996-.043.552-.193 1.115-.38 1.432-.17.287-.305.585-.305.66 0 .234 1.348.152 2.541-.154 1.399-.358 1.522-.358 2.668.002.525.165 1.122.253 1.797.277l.086.004c.092.003.182.008.277.008H12c.223 0 .443-.012.662-.03 1.978-.14 3.567-.87 4.996-2.298a7.93 7.93 0 0 0 2.264-4.569c.012-.086.024-.172.033-.26.02-.186.03-.375.037-.566.002-.048.004-.094.004-.142 0-.045.004-.09.004-.135a7.98 7.98 0 0 0-7.78-7.994c-.033-.002-.067-.002-.1-.002-.04 0-.08-.004-.12-.004zM9.5 8A1.5 1.5 0 0 1 11 9.5c0 .5 0 1.5-1 1.5 0 1 2.032 2.946 3 3 0-1 1-1 1.5-1a1.5 1.5 0 0 1 0 3h-.56c-.297-.007-.642-.116-1.128-.293-1.622-.592-2.75-1.543-3.904-3.293-.672-1.02-.904-1.633-.908-2.396V9.5A1.5 1.5 0 0 1 9.5 8z" fill="currentColor" color="#5294e2"/></svg>