<svg xmlns="http://www.w3.org/2000/svg" width="24" height="24" version="1"><defs><style id="current-color-scheme" type="text/css"></style></defs><path d="M12 4c-4.432 0-8 3.568-8 8s3.568 8 8 8 8-3.568 8-8-3.568-8-8-8zM7 8h1v5.412s-.002.358.281.752c.283.394.835.836 2.219.836.106 0 .136-.036.232-.041-.07-.077-.206-.132-.263-.21a2.534 2.534 0 0 1-.47-1.337v-4.34l.005-.029s.024-.145.084-.264c.06-.119.163-.258.32-.38.315-.245.815-.41 1.6-.399.78.011 1.265.175 1.576.408.155.117.26.251.322.368s.09.261.09.261L14 9.07v4.342s-.002.686-.469 1.336c-.057.08-.192.134-.264.211.096.005.126.041.232.041 1.384 0 1.936-.442 2.22-.836s.28-.752.28-.752V8h1v5.412s-.001.686-.468 1.336S15.116 16 13.5 16c-.622 0-1.065-.148-1.5-.295-.435.147-.878.295-1.5.295-1.616 0-2.564-.602-3.031-1.252-.468-.65-.47-1.336-.47-1.336V8zm4.992 1c-.639-.01-.889.126-.969.188-.021.016-.018.016-.023.023v4.201s-.002.358.281.752c.144.2.364.41.719.57.355-.16.575-.37.719-.57.283-.394.28-.752.28-.752v-4.19l-.015-.013c-.083-.063-.348-.2-.992-.209z" fill="currentColor" color="#dfdfdf"/></svg>