<svg xmlns="http://www.w3.org/2000/svg" width="24" height="24" version="1"><defs><style id="current-color-scheme" type="text/css">.ColorScheme-Text{color:#dfdfdf}</style></defs><path class="ColorScheme-Text" d="M12 4a4 4 0 0 0-4 4 4 4 0 0 0 4 4 4 4 0 0 0 4-4 4 4 0 0 0-4-4zm-1 2h2v1h1v2h-1v1h-2V9h-1V7h1V6zm1 8c-8 .004-8 5.145-8 5.145V20h10.174l1.535-1.535-2.123-2.121 1.92-1.92c-.955-.261-2.101-.425-3.506-.424zm4.414.93L15 16.344l2.123 2.121L15 20.588 16.414 22l2.121-2.121L20.658 22l1.412-1.412-2.121-2.123 2.121-2.121-1.412-1.414-2.123 2.123-2.121-2.123zM-8.984 13.025l1.414 1.414-1.793 1.793h5.172v2h-5.172l1.793 1.793-1.414 1.414-4.207-4.207z" fill="currentColor"/></svg>