<svg xmlns="http://www.w3.org/2000/svg" width="24" height="24"><defs><style id="current-color-scheme" type="text/css"></style></defs><path fill-rule="evenodd" d="M7.406 4.987a1.01 1.01 0 0 0-.719.282L5.281 6.675a1.026 1.026 0 0 0 0 1.437l.875.875h5.688L8.124 5.27a1.01 1.01 0 0 0-.718-.282zm9.188 0c-.262 0-.523.086-.72.282l-3.718 3.718h5.688l.875-.875a1.026 1.026 0 0 0 0-1.437l-1.407-1.406a1.001 1.001 0 0 0-.718-.282zM8.478 9.495A.5.5 0 0 0 8 9.987v3.5a.5.5 0 1 0 1 0v-1.5h1v1.5a.5.5 0 1 0 1 0v-2a.5.5 0 0 0-.5-.5H9v-1a.5.5 0 0 0-.522-.491zm11 0a.5.5 0 0 0-.478.492v1h-.5a.5.5 0 0 0 0 1h.5v1.5a.5.5 0 0 0 .5.5H21a.5.5 0 1 0 0-1h-1v-1h1a.5.5 0 1 0 0-1h-1v-1a.5.5 0 0 0-.52-.491zM3.5 10.987a.5.5 0 0 0-.5.5v2a.5.5 0 0 0 .5.5h2a.5.5 0 1 0 0-1H4v-1h1.5a.5.5 0 1 0 0-1h-2zm10 0a.5.5 0 0 0-.5.5v2a.5.5 0 0 0 .5.5h.75a.5.5 0 1 0 0-1H14v-1h1v1.5a.5.5 0 1 0 1 0v-2a.5.5 0 0 0-.5-.5h-2zm-7.344 4l-.875.875a1.026 1.026 0 0 0 0 1.438l1.407 1.406a1.026 1.026 0 0 0 1.437 0l3.719-3.719H6.156zm6 0l3.72 3.719a1.026 1.026 0 0 0 1.437 0l1.406-1.406a1.026 1.026 0 0 0 0-1.438l-.875-.875h-5.688z" fill="currentColor" color="#dfdfdf"/></svg>