<svg xmlns="http://www.w3.org/2000/svg" width="24" height="24"><path d="M6 4c-.554 0-1 .446-1 1v14c0 .554.446 1 1 1h7.006c0-.023-.006-.045-.006-.068.007-.321.085-.638.234-.926l1.793-3.477 1.793-3.478c.3-.581.886-1.008 1.57-1.049h.005c.066-.004.134-.004.2 0 .141.007.274.042.405.08V5c0-.554-.446-1-1-1H6zm6 3a4 4 0 1 1 0 8H8v-4a4 4 0 0 1 4-4zm0 2a2 2 0 1 0 0 4 2 2 0 0 0 0-4z" fill="currentColor" color="#dfdfdf"/><path d="M18.451 12a.914 1.023 0 0 0-.742.51l-1.793 3.478-1.793 3.477a.914 1.023 0 0 0-.123.488.914 1.023 0 0 0 .914 1.047h7.172a.914 1.023 0 0 0 .791-1.535l-1.793-3.477-1.793-3.478a.914 1.023 0 0 0-.748-.51.914 1.023 0 0 0-.092 0zM18 14h1v4h-1v-4zm0 5h1v1h-1v-1z" fill="currentColor" color="#5294e2"/></svg>