<svg xmlns="http://www.w3.org/2000/svg" width="24" height="24"><defs><style id="current-color-scheme" type="text/css">.ColorScheme-Text{color:#dfdfdf}</style></defs><path class="ColorScheme-Text" d="M11.998 5s-3.779 0-6.297.19c-.352.043-1.118.047-1.803.79-.54.567-.714 1.852-.714 1.852s-.178 1.511-.18 3.022L3 13.14c-.003 1.51.18 3.021.18 3.021s.175 1.286.714 1.852c.685.744 1.584.721 1.985.799 1.44.143 6.119.187 6.119.187s1.211-.015 2.408-.04A4.942 4.942 0 0 1 14 17c0-2.75 2.25-5 5-5 .71 0 1.385.154 1.998.424l.002-1.57c.003-1.511-.18-3.022-.18-3.022s-.175-1.286-.714-1.852c-.684-.743-1.452-.747-1.804-.79C15.784 5 12.007 5 12.007 5h-.008zM9 8l6 4.014L9 16V8z" fill="currentColor"/><path class="ColorScheme-Text" d="M20.035 13.1a4 4 0 1 0-2.07 7.728 4 4 0 0 0 2.07-7.728zm-.259.966a3 3 0 0 1 2.121 3.674l-.965-.259a2 2 0 0 0-1.415-2.45l.26-.965zm-3.674 2.121l.966.26a2 2 0 0 0 1.414 2.449l-.259.965a3 3 0 0 1-2.121-3.674z" fill="currentColor"/></svg>