<svg xmlns="http://www.w3.org/2000/svg" width="24" height="24"><defs><style id="current-color-scheme" type="text/css">.ColorScheme-Text{color:#dfdfdf}</style></defs><path class="ColorScheme-Text" d="M11.998 5s-3.779 0-6.297.19c-.352.043-1.118.047-1.803.79-.54.567-.714 1.852-.714 1.852s-.178 1.511-.18 3.022L3 13.14c-.003 1.51.18 3.021.18 3.021s.175 1.285.714 1.852c.685.743 1.584.72 1.985.799 1.44.143 6.119.187 6.119.187s1.211-.015 2.408-.04A4.94 4.94 0 0 1 14 17c0-2.75 2.25-5 5-5 .71 0 1.385.153 1.998.423l.002-1.57c.003-1.51-.18-3.021-.18-3.021s-.175-1.286-.715-1.852c-.684-.744-1.452-.748-1.804-.791-2.519-.19-6.295-.19-6.295-.19H12zM9 8l6 4.014L9 16V8z" fill="currentColor"/><path class="ColorScheme-Text" d="M19 13a4 4 0 1 0 0 8 4 4 0 0 0 0-8zm0 1a3 3 0 0 1 3 3h-1a2 2 0 0 0-2-2v-1zm-3 3h1a2 2 0 0 0 2 2v1a3 3 0 0 1-3-3z" fill="currentColor"/></svg>