<svg xmlns="http://www.w3.org/2000/svg" width="24" height="24"><defs><style id="current-color-scheme" type="text/css">.ColorScheme-Text{color:#dfdfdf}</style></defs><path class="ColorScheme-Text" d="M11.998 5s-3.779 0-6.297.19c-.352.043-1.118.047-1.803.79-.54.567-.714 1.852-.714 1.852s-.178 1.511-.18 3.022L3 13.14c-.003 1.51.18 3.021.18 3.021s.175 1.286.714 1.852c.685.744 1.584.721 1.985.799 1.44.143 6.119.187 6.119.187s2.766-.015 5.15-.135L16.2 17.6A1 1 0 0 1 17 16h1v-3.119c0-.407.087-.79.301-1.143.213-.353.642-.738 1.232-.738h.934c.199 0 .373.053.533.125v-.271c.002-1.51-.18-3.022-.18-3.022s-.175-1.285-.715-1.851c-.684-.744-1.452-.748-1.804-.791-2.518-.189-6.295-.19-6.295-.19zM9 8l6 4.014L9 16z" fill="currentColor"/><path class="ColorScheme-Text" d="M19.533 12c-.295 0-.533.392-.533.881V17h-2l1.5 2 1.5 2 1.5-2 1.5-2h-2v-4.12c0-.488-.238-.88-.533-.88h-.934z" fill="currentColor"/></svg>