<svg xmlns="http://www.w3.org/2000/svg" width="24" height="24"><defs><style id="current-color-scheme" type="text/css"></style></defs><path opacity=".3" d="M11.998 5s-3.779 0-6.297.19c-.352.043-1.118.047-1.803.79-.54.567-.714 1.852-.714 1.852s-.178 1.511-.18 3.022L3 13.14c-.003 1.51.18 3.021.18 3.021s.175 1.285.714 1.852c.685.743 1.584.72 1.985.799 1.44.143 6.119.187 6.119.187s3.78-.01 6.299-.196c.352-.044 1.12-.048 1.805-.79.54-.567.714-1.852.714-1.852s.177-1.511.18-3.022L21 10.853c.003-1.511-.18-3.022-.18-3.022s-.175-1.285-.715-1.851c-.684-.744-1.452-.748-1.804-.791-2.518-.19-6.295-.19-6.295-.19h-.008zM9 8l6 4.014L9 16V8z" fill="currentColor" color="#dfdfdf"/></svg>