<svg xmlns="http://www.w3.org/2000/svg" width="24" height="24"><defs><style id="current-color-scheme" type="text/css">.ColorScheme-Text{color:#dfdfdf}</style></defs><path class="ColorScheme-Text" d="M5.885 4C5.395 4 5 4.357 5 4.8v14.4c0 .443.395.8.885.8H8V4z" opacity=".3" fill="currentColor"/><path class="ColorScheme-Text" d="M8 4v16h10.125c.485 0 .875-.358.875-.8V4.8c0-.442-.39-.8-.875-.8H8zm2.5 3h6a.5.5 0 0 1 .416.777L11.434 16H16.5a.5.5 0 1 1 0 1h-6a.5.5 0 0 1-.416-.777L15.566 8H10.5a.5.5 0 1 1 0-1z" fill="currentColor"/></svg>