<svg xmlns="http://www.w3.org/2000/svg" width="24" height="24"><defs><style id="current-color-scheme" type="text/css">.ColorScheme-Text{color:#dfdfdf}</style></defs><path class="ColorScheme-Text" d="M12.001 4c-4.432 0-8 3.568-8 8 0 .837.129 1.643.365 2.4l.01-.052c.145-.565.424-1.15.924-1.614.587-.544 1.27-.691 1.978-.703.117-.247.211-.51.446-.683.098-.073.205-.043.31-.09.013-.027.006-.025.022-.055.283-.537.653-.943 1.172-1.527.707-.797 1.804-1.536 2.822-2.197 1.018-.662 1.808-1.127 2.133-1.293-.105.053.313-.18.714-.405.334-.187.768-.42 1.202-.648A7.972 7.972 0 0 0 12 4zm7.365 4.865a57.051 57.051 0 0 1-1.326 1.725v.002c-.214.288-.8.987-1.615 1.877-.814.888-1.722 1.846-2.627 2.414-.596.374-1.047.493-1.526.676-.075.423-.263.823-.634 1.097-.23.17-.509.154-.776.196a2.942 2.942 0 0 1-.736 1.308l-.02.02-.02.02c-.541.496-1.204.72-1.821.79l-.055.006h-.097A7.988 7.988 0 0 0 12 20c4.432 0 8-3.568 8-8a8.006 8.006 0 0 0-.635-3.135z" opacity=".3" fill="currentColor"/><path class="ColorScheme-Text" d="M19.175 5.008c-.309-.035-.603.082-.885.181v.004c-.442.173-.968.427-1.484.694-.517.266-1.023.543-1.418.765-.396.222-.692.394-.746.422a34.14 34.14 0 0 0-2.047 1.242c-.993.646-2.075 1.41-2.62 2.024-.269.303-.48.543-.652.762.338.11.647.317.87.619l1.818 2.467c.1.136.171.286.226.439.29-.146.604-.325 1.03-.592.699-.439 1.627-1.375 2.421-2.242a33.536 33.536 0 0 0 1.55-1.799c.039-.053.245-.31.517-.658.272-.348.615-.795.951-1.254.336-.459.663-.929.904-1.33.121-.2.22-.383.29-.543.068-.16.116-.29.097-.434a.771.771 0 0 0-.223-.45l-.01-.013a.809.809 0 0 0-.275-.212.965.965 0 0 0-.314-.092zM8.885 12.01a.762.762 0 0 0-.568.142.763.763 0 0 0-.162 1.07l1.817 2.467a.766.766 0 1 0 1.234-.908l-1.818-2.467a.765.765 0 0 0-.502-.304zm-1.847 1.023c-.416.062-.823.217-1.059.436-.323.3-.526.704-.634 1.127-.178.693-.19 1.69-.326 2.427-.068.366-.377.936-.954 1.674-.147.248 0 .28 0 .28.083.058.234 0 .309-.034 1.334-1.096 2.214-.94 3.775-.947.46-.053.914-.216 1.262-.535.227-.231.351-.434.442-.635a1.722 1.722 0 0 1-.686-.543l-1.818-2.467a1.72 1.72 0 0 1-.31-.783z" fill="currentColor" fill-rule="evenodd"/></svg>