<svg xmlns="http://www.w3.org/2000/svg" width="22" height="22"><defs><style id="current-color-scheme" type="text/css"></style></defs><path d="M11 4.004a7 7 0 0 0-7 7 7 7 0 0 0 7 7 7 7 0 0 0 7-7 7 7 0 0 0-7-7zm0 2c.173 0 .332.014.5.031.013.003.026 0 .04 0a5 5 0 0 1 .306.047c.116.022.224.05.341.078.257.063.511.149.75.25.132.056.25.121.376.188v.03c.028.014.044.068.093.095.018.01.014.024.031.033.028.016.069.032.063.06-.008.04-.066.032-.094.063.004.058-.047.055-.062.094.009.024.058.032.062.062-.005.032-.074.03-.062.063.054.042.105.01.156 0 .112-.015.212-.008.281-.063-.009-.053.1-.046.094-.094.029.021.065.042.094.063-.011.01-.02.025-.031.031-.022.01-.044.02-.063.031l-.094.063c-.023.016-.07.094-.094.094-.028 0-.072-.038-.093-.032-.03.01-.029.05-.063.063-.066.024-.196-.037-.219.062.028.057.138.031.188.063a.31.31 0 0 1 .094.125.59.59 0 0 1 0 .187c-.031.08-.127.064-.219.063h-.063c-.153-.01-.305-.08-.374.031.004.085.018.145 0 .219-.014.054-.097.11-.094.156 0 .024.056.06.062.094.004.018-.008.046 0 .062.026.05.08-.01.125 0 .044.01.094.074.094.123a.26.26 0 0 1-.031.125c-.044.066-.125.058-.188.094-.052.03-.063.105-.094.156-.032.057-.075.079-.062.159a.365.365 0 0 1-.188.187c-.026.012-.068.013-.093.031-.02.015-.035.062-.063.094-.035.04-.075.064-.094.094-.013.023-.016.061-.03.094-.023.042-.067.051-.095.093-.012.02-.017.068-.03.094-.033.058-.07.105-.063.156.005.048.06.05.062.094.003.024-.032.036-.031.063.001.038.028.063.031.093.007.075-.048.106-.062.157-.007.024.006.04 0 .06-.012.037-.062.081-.063.125 0 .03.06.05.063.094.002.03-.037.066-.031.094.01.054.114.114.156.156.057.057.131.096.156.156.021.051.024.15.063.188.028.027.088.032.124.062.035.027.057.033.094.063.061.048.153.163.25.156.051-.01.1-.053.156-.063.06-.01.128-.035.188-.03.046.009.108.033.156.03.05-.01.1-.007.156-.03.1-.044.263-.115.407-.095.11.016.11.14.187.188.088.01.149-.017.219 0 .053.013.12.083.125.125.005.043-.057.098-.063.125-.013.058.01.12 0 .156-.008.03-.032.065-.03.094 0 .026.035.09.062.125.033.042.085.08.125.125.073.084.105.17.156.281.013.028-.012.058 0 .094-.022.168-.078.283-.188.469-.05.06-.127.112-.124.187-.005.18.101.295.093.469-.018.234.018.25 0 .375.08.04.023.167 0 .25-.034.099-.075.123-.094.19.053.022.129.012.188 0a5 5 0 0 1-.01.007 5.18 5.18 0 0 1-.795.676 5 5 0 0 1-.068.049 5.515 5.515 0 0 1-.62.347 5 5 0 0 1-.312.14 5 5 0 0 1-.008.003c-.165.067-.338.12-.513.168a5 5 0 0 1-.926.158 4.898 4.898 0 0 1-.918-.02 5 5 0 0 1-.58-.099c-.236-.063-.464-.156-.688-.244-.009-.017-.033-.04-.03-.06.051-.023.149.073.187 0 .019-.037-.025-.124 0-.159.018-.024.119-.023.156-.031.053-.01.126-.017.156-.031.033-.021.069-.094.063-.155-.003-.03-.04-.038-.063-.064-.019-.022.013-.04 0-.06-.024-.037-.084-.045-.094-.096.072-.014.178.06.282.031.049-.014.133-.11.156-.156.007-.014-.008-.043 0-.06.009-.019.028-.054.031-.063.007-.027-.006-.012 0-.03.018-.052.064-.09.094-.127.023-.028.073-.066.094-.095.024-.031.015-.033.031-.06.015-.092-.053-.17-.031-.25.024-.09.163-.147.25-.188.03-.015.069-.023.094-.032l.187-.062c.094-.034.11-.1.156-.186.022-.04.059-.097.063-.127.004-.026-.005-.031 0-.062.005-.03-.008-.06 0-.094a1.02 1.02 0 0 0 .031-.187c0-.04-.03-.058-.031-.094-.007-.13.046-.116.094-.188.023-.035.045-.1.062-.125.081-.12.229-.161.219-.343-.004-.06-.05-.2-.094-.22-.025-.01-.057-.017-.094-.03-.118-.045-.22-.178-.344-.188h-.062c-.048 0-.102-.024-.156-.031-.034-.01-.105.01-.125 0-.031-.015-.038-.077-.063-.094-.02-.014-.063-.022-.094-.033-.048-.018-.068-.057-.124-.06-.018 0-.043.01-.063 0-.031-.01-.065-.016-.094-.034-.036-.022-.079-.03-.094-.06.033-.108-.071-.125-.093-.188-.01-.029.01-.099 0-.125-.013-.037-.053-.063-.094-.094a.372.372 0 0 0-.219-.093c-.046-.01-.101.01-.156 0a.353.353 0 0 1-.188-.094c-.041-.049-.056-.102-.093-.125-.035-.022-.07-.04-.094-.063-.011-.01-.021-.008-.031-.03-.018-.038-.053-.05-.031-.095-.04-.02-.02.038-.063.032-.039-.055-.068-.11-.156-.094-.04.01-.078.093-.125.094-.04 0-.074-.086-.125-.094-.04-.01-.098.036-.125.031-.043-.01-.055-.037-.094-.062-.029-.02-.078-.064-.094-.063-.05 0-.087.1-.156.063-.034-.043.071-.054.031-.094-.03-.03-.038.017-.062.031-.028.018-.063.02-.094.031-.069.027-.134.034-.188.063a.187.187 0 0 0-.093.094c-.023.042-.059.123-.094.125-.042 0-.056-.046-.094-.063-.115-.05-.186.03-.281.031-.088 0-.223-.135-.219-.218.003-.051.026-.125.032-.188.004-.05.061-.11.062-.156.001-.062-.116-.087-.156-.094-.094-.017-.206.042-.313 0-.02-.034.02-.06.032-.094.006-.018-.007-.041 0-.062.011-.032.078-.06.093-.094.011-.026-.01-.06 0-.094.013-.036.06-.067.063-.093.004-.034-.036-.072-.063-.094-.083.01-.14.01-.187.033-.108.049-.079.185-.188.219a.993.993 0 0 1-.125.031c-.017.01-.04 0-.06 0a5 5 0 0 1 .011-.058.11.11 0 0 0 .018-.036c.071-.325.181-.64.313-.937h.03c.039.01.062.06.095.062.091.01.111-.084.187-.125.078.012.117-.01.188 0 .047.01.118.057.156.06.032 0 .032-.034.062-.03.03.01.089.057.094.093.005.045-.044.107-.031.157.047.048.152.066.218.093.044-.036.007-.104 0-.156 0-.023.003-.073 0-.094-.004-.036-.03-.063-.03-.093 0-.143.122-.194.218-.25.041-.024.089-.076.125-.094.051-.025.083-.007.125-.031.076-.043.129-.108.188-.157.026-.065-.003-.154 0-.218.026-.018.064 0 .093 0 .046-.01.068-.068.094-.094.015-.015.045-.016.063-.031.045-.036.053-.078.093-.094a.284.284 0 0 1 .063-.031c.03-.01.077-.014.125-.032.03-.01.113-.017.125-.03.015-.016-.004-.071 0-.095.024-.112.18-.118.281-.156.07-.026.14-.107.219-.094-.015.054-.076.06-.063.125.017.091.125-.02.156-.033.061-.026.17-.064.25-.094.07-.024.191-.042.126-.123-.055-.01-.078.041-.126.061-.032.01-.034-.028-.062-.031-.027 0-.036.035-.063.031-.026-.01-.058-.06-.062-.094-.011-.084.06-.094.094-.156-.023-.076-.124-.03-.188-.06a.113.113 0 0 1 .094-.094c.043-.01.162.008.188.03.014.014-.023.042 0 .063.025.024.06.01.093 0 .012-.057-.072-.025-.062-.062.068-.044.198-.02.281-.031a.692.692 0 0 0 .156-.063c.04-.023.052-.069.094-.031.012.041-.008.072-.031.094-.077.068-.159.14-.219.218.037.036.094.024.156.032.024.01.069-.008.094 0 .03.01.07-.01.094 0 .042.01.052.093.094.093.067 0 .038-.08 0-.125.011-.047.048-.091.03-.125-.03-.062-.15.019-.155-.062-.004-.05.044-.056.062-.094-.008-.096.072-.1.063-.187-.005-.036-.038-.029-.063-.063-.013-.018-.016-.08-.031-.094-.052-.044-.15-.01-.156-.093-.003-.05.006-.103 0-.157-.007-.05-.05-.208-.094-.218-.056-.012-.09.093-.156.125a.373.373 0 0 1-.157.03c-.024-.009-.06-.015-.062-.062-.004-.042.047-.061.062-.093.004-.009-.002-.02 0-.032.025-.006.05-.014.074-.021a5 5 0 0 1 .325-.072c.013.001.026.003.039 0A4.85 4.85 0 0 1 11 6.004zm-2.031.469c-.032.182-.203.255-.406.25-.046.044-.007.126-.032.187-.02.051-.105.098-.156.094-.037 0-.094-.059-.094-.094 0-.043.068-.044.031-.094.002-.01.021-.02.032-.03.02-.014.042-.02.062-.032.182-.112.367-.193.563-.281zm4.187.187c-.018.01-.015.02-.031.031-.038.024-.065.052-.094.063-.04.015-.088.026-.094.062-.004.031.033.034.032.063-.015.037-.024.049-.031.094.05.083.155-.018.218-.032.028-.01.048-.009.063-.033.017-.027.018-.055.031-.094.014-.042.069-.057.063-.093-.004-.037-.095-.066-.157-.06zm-5.469.625c.048.038.115.12.032.156a.535.535 0 0 1-.157.032c-.01 0-.022-.024-.03-.032.05-.05.102-.108.155-.156zm.188.188c.024 0 .035.06.063.062.026 0 .046-.035.062-.031.042.011.071.094.031.125-.033.01-.038-.035-.062-.031-.068.012-.106.16-.157.156-.047-.01-.08-.121-.03-.156 0-.03-.003-.032 0-.063.014-.018.053-.065.093-.062zm-.25.03c.014 0 .026-.009.031 0-.007.054-.021.07-.062.095-.071.042-.134.096-.157.187-.006.027-.09.1-.125.094-.078-.017.045-.165.063-.188.02-.024.04-.034.063-.062.022-.028.04-.078.062-.094a.249.249 0 0 1 .125-.031zm6.781.157c.08-.01.122.078.156.125.03.04.108.098.157.125.028.015.064.05.094.063.064.029.184.123.187.187.001.032-.036.064-.031.094.049.01.094-.076.094-.125.091.13.17.268.25.406.037.065.09.12.124.188-.044.012-.055.02-.062.062-.01.056.021.147-.063.156-.051.01-.114-.046-.187-.062-.03-.01-.07.01-.094 0-.055-.018-.047-.092-.094-.125a.504.504 0 0 0-.156-.063c-.027 0-.034.01-.062 0-.034-.01-.097.015-.125 0a.322.322 0 0 1-.094-.093c-.011-.037.092-.063.094-.094.002-.024-.025-.057-.031-.094-.004-.022.005-.047 0-.062-.007-.027-.053-.03-.094-.032h-.094c-.044 0-.134-.007-.188 0h-.093c-.087.01-.151-.01-.219 0a.618.618 0 0 0-.188.063l-.062.031a.455.455 0 0 1-.063.031c-.026.013-.066.055-.093.063-.04.01-.086-.01-.156 0-.05 0-.125-.033-.126-.094-.002-.093.163-.046.25-.062.032-.01.054-.039.094-.063.02-.011.014-.02.031-.031.03-.021.09-.07.094-.094.004-.022-.003-.046 0-.062.004-.021.036-.035.063-.063.042-.042.073-.098.125-.125.035-.018.078-.032.094-.06.002-.033-.003-.033 0-.063A.13.13 0 0 1 14 7.756c.054-.012.093 0 .156 0 .027 0 .065.013.094 0 .024-.016.039-.05.063-.063a.253.253 0 0 1 .093-.03V7.66zm.563.594h-.125c-.044 0-.1-.023-.125 0 .037.06.104.079.187.094a.193.193 0 0 0 .063-.094zM8.125 7.69h.094c.025 0 .052-.01.062 0-.016.066-.167.056-.219.032.003-.025.031-.027.063-.032zm-.219.125c-.043.032-.087.072-.156.094-.038.012-.087.01-.094-.031-.008-.052.06-.026.094-.031.044-.01.105-.03.156-.032zm6.5 0c-.033.012-.049.084 0 .094.023-.014.037-.05.031-.094-.012-.014-.02-.01-.03 0zm-.062.157c0 .056.01.107 0 .156.032.062.109.01.125-.031.019-.104-.015-.138-.063-.125-.016.01-.045-.013-.062 0zm-8.281 2.343c.056.051.088.123.156.157a.503.503 0 0 0 .093.03c.026.01.038-.007.063 0 .053.019.114.045.156.063.064.028.133.125.188.157.002.032-.01.07 0 .093.026.036.052.07.093.094.051.028.078.071.125.094.017.01.037-.01.063 0 .066.02.1.11.156.094.037-.012.026-.058.032-.094.024-.027.054-.063.093-.063.062 0 .071.096.094.157.013.033.054.057.063.093a.943.943 0 0 1 0 .282c-.016.045-.088.043-.125.093-.018.024-.018.077-.032.094-.024.03-.044.035-.062.063a.449.449 0 0 0-.032.062c-.03.064-.087.11-.062.188.01.03.063.057.063.093 0 .045-.087.077-.094.125-.005.036.02.079.031.125.008.036.073.071.094.094.035.04.062.107.093.156.063.097.095.218.157.313.033.049.103.073.125.125.01.026-.01.07 0 .094.036.08.2.18.281.218.038.02.09.012.125.032.053.03.16.109.188.156.023.042.019.152.03.219.016.088-.003.155 0 .25.003.05.032.073.032.125v.095c-.001.062.005.123 0 .186a.586.586 0 0 0 0 .094c.003.03.03.035.031.062.002.03-.034.07-.031.094.007.063.05.098.063.156.01.046.037.164.03.219-.003.029-.027.06-.03.094-.003.026.003.038 0 .062-.003.02.001.037 0 .053a5 5 0 0 1-.114-.067 5.196 5.196 0 0 1-.73-.61c-.03-.032-.064-.062-.094-.093-.18-.19-.35-.41-.5-.627-.013-.019-.018-.042-.031-.062a4.811 4.811 0 0 1-.438-.813c-.009-.02-.022-.041-.031-.062a5.02 5.02 0 0 1-.281-.969A5.02 5.02 0 0 1 6 11.004c0-.238.03-.459.063-.688zM8 10.848c.048-.022.039.055 0 .062-.037.01-.036-.044 0-.062z" fill="currentColor" color="#565656"/></svg>