<svg width="22" height="22" version="1.1" xmlns="http://www.w3.org/2000/svg">
 <defs>
  <style id="current-color-scheme" type="text/css">.ColorScheme-Text { color:#565656; } .ColorScheme-Highlight { color:#4285f4; }</style>
 </defs>
 <path class="ColorScheme-Text" d="m10.492 5.1377a1.0001 1.0001 0 0 0-1.0059 0.01172l-3.0977 1.8574h-2.3887c-1.0907 0-2 0.9093-2 2v4c0 1.0907 0.9093 2 2 2h2.3887l3.0977 1.8574a1.0001 1.0001 0 0 0 1.5137-0.85742v-10a1.0001 1.0001 0 0 0-0.50781-0.86914zm-1.4922 2.6348v6.4688l-1.8203-1.0918a1.0001 1.0001 0 0 0-0.51367-0.14258h-2.666v-4h2.666a1.0001 1.0001 0 0 0 0.51367-0.14258z" fill="currentColor" opacity=".35"/>
 <path class="ColorScheme-Text" d="m13.619 5.2295a1 1 0 0 0-0.15625 1.4062c0.99368 1.2407 1.5361 2.7816 1.5371 4.3711-0.0058 1.5868-0.55046 3.1247-1.5449 4.3613a1 1 0 0 0 0.15234 1.4062 1 1 0 0 0 1.4062-0.15234c1.2794-1.591 1.9799-3.5697 1.9863-5.6113a1.0001 1.0001 0 0 0 0-2e-3 1.0001 1.0001 0 0 0 0-2e-3c-0.0012-2.0433-0.69729-4.0263-1.9746-5.6211a1 1 0 0 0-1.4062-0.15625z" fill="currentColor" opacity=".35"/>
 <path class="ColorScheme-Text" d="m17.479 2.5185a1 1 0 0 0-0.73438 0.21289 1 1 0 0 0-0.15625 1.4062c1.5605 1.9499 2.4113 4.3717 2.4121 6.8691-0.0091 2.4937-0.86499 4.9101-2.4277 6.8535a1 1 0 0 0 0.15234 1.4062 1 1 0 0 0 1.4062-0.15234c1.8476-2.2976 2.8594-5.1552 2.8691-8.1035a1.0001 1.0001 0 0 0 0-2e-3 1.0001 1.0001 0 0 0 0-2e-3c-9.36e-4 -2.9511-1.0057-5.815-2.8496-8.1191a1 1 0 0 0-0.67188-0.36914z" fill="currentColor" opacity=".35"/>
</svg>
