<svg xmlns="http://www.w3.org/2000/svg" width="22" height="22"><defs><style id="current-color-scheme" type="text/css"></style></defs><path d="M14 4l-.574 1.613-1.547-.734.734 1.547L11 7l1.613.574-.734 1.547 1.547-.734L14 10l.574-1.613 1.547.734-.734-1.547L17 7l-1.613-.574.734-1.547-1.547.734L14 4zM9 5a14.968 14.968 0 0 1-.79 1.95c-1.54 3.15-3.95 5.304-4.183 7.292-.006.03-.022.062-.027.092l.02.006c-.005.068-.02.137-.02.205C4 17.005 6.239 19 9 19s5-1.995 5-4.455c0-.068-.015-.137-.02-.205l.02-.006c-.005-.03-.021-.062-.027-.092-.233-1.988-2.643-4.145-4.184-7.295A14.94 14.94 0 0 1 9 5z" fill="currentColor" color="#565656"/></svg>