<svg xmlns="http://www.w3.org/2000/svg" width="22" height="22"><defs><style id="current-color-scheme" type="text/css"></style></defs><path d="M7 3v6.105l-.006.002a5 5 0 0 0-1.574.618c-.012.007-.025.012-.037.02a5 5 0 0 0-.635.466l-.066.059a5 5 0 0 0-.55.566l-.01.016a5 5 0 0 0-.448.65l-.028.045c-.126.225-.234.46-.324.703l-.037.1a5 5 0 0 0-.197.732c-.008.043-.013.086-.02.129A5.006 5.006 0 0 0 3 14a5 5 0 0 0 .021.434c.008.087.02.172.032.257.01.077.021.153.035.229.01.053.023.105.035.158a5 5 0 0 0 .254.817c.018.044.04.085.059.128a5 5 0 0 0 .396.735c.023.034.049.064.072.097a5 5 0 0 0 .55.665l.044.043a5 5 0 0 0 .693.574c.017.01.035.018.051.029a5 5 0 0 0 .795.432l.016.007c.007.004.016.005.023.008a5 5 0 0 0 .889.278l.04.01a4.985 4.985 0 0 0 1.858.023l.041-.008a5 5 0 0 0 .71-.19c.044-.015.088-.028.132-.044a5 5 0 0 0 .652-.301l.14-.08a5 5 0 0 0 .599-.41c.027-.022.051-.046.078-.069a5 5 0 0 0 .5-.484c.023-.026.048-.048.07-.074a5 5 0 0 0 .518-.729 5 5 0 0 0 .332-.668l.03-.08c.099-.255.177-.519.233-.787H19v-2h-6.105l-.002-.008a4.986 4.986 0 0 0-.196-.695l-.004-.012c0-.002 0-.004-.002-.006a5.003 5.003 0 0 0-.29-.64l-.03-.055a5.009 5.009 0 0 0-.336-.523l-.055-.077a5.006 5.006 0 0 0-.447-.517 5 5 0 0 0-.498-.432l-.088-.068a5.004 5.004 0 0 0-1.18-.639c-.036-.014-.072-.026-.109-.039A4.998 4.998 0 0 0 9 9.102V3H7z" fill="currentColor" color="#565656"/></svg>