<svg xmlns="http://www.w3.org/2000/svg" width="22" height="22"><defs><style id="current-color-scheme" type="text/css"></style></defs><path d="M10.5 3v1.813h1V3h-1zM5.687 4.969l-.718.718L6.25 7l.719-.75-1.282-1.281zm10.625 0l-1.28 1.281.718.75 1.281-1.313-.718-.718zM11 6a5 5 0 1 0 0 10 5 5 0 0 0 0-10zm-8 4.5v1h1.813v-1H3zm14.188 0v1H19v-1h-1.813zM6.25 15.031l-1.281 1.281.718.72L6.97 15.75l-.719-.719zm9.5 0l-.719.719 1.281 1.281.72-.718-1.282-1.282zm-5.25 2.156V19h1v-1.813h-1z" fill="currentColor" color="#565656"/></svg>