<svg xmlns="http://www.w3.org/2000/svg" width="22" height="22"><defs><style id="current-color-scheme" type="text/css"></style></defs><path d="M9.25 4l-.154 1.844a5.5 5.5 0 0 0-1.608.93l-1.676-.79-1.75 3.032 1.522 1.056A5.5 5.5 0 0 0 5.5 11a5.5 5.5 0 0 0 .08.932l-1.518 1.052 1.75 3.032 1.672-.787a5.5 5.5 0 0 0 1.612.923l.15 1.85h3.5l.154-1.844a5.5 5.5 0 0 0 1.608-.93l1.676.79 1.75-3.032-1.522-1.056a5.5 5.5 0 0 0 .084-.928 5.5 5.5 0 0 0-.08-.932l1.518-1.052-1.75-3.032-1.672.787A5.5 5.5 0 0 0 12.9 5.85L12.75 4h-3.5zM11 9a2 2 0 0 1 2 2 2 2 0 0 1-2 2 2 2 0 0 1-2-2 2 2 0 0 1 2-2z" fill="currentColor" color="#565656"/></svg>