<svg width="22" height="22" version="1.1" viewBox="0 0 22 22" xmlns="http://www.w3.org/2000/svg">
 <defs>
  <style id="current-color-scheme" type="text/css">.ColorScheme-Text { color:#565656; } .ColorScheme-Highlight { color:#5294e2; }</style>
 </defs>
 <path class="ColorScheme-Text" d="m10.543 3c-0.63458-1.2e-5 -1.2457 0.25327-1.6934 0.70312-0.44766 0.44979-0.6964 1.0607-0.69336 1.6953v-0.01953c-0.0032 0.22522-0.16796 0.38514-0.39258 0.38672-0.05569-0.0019-0.10997-0.0163-0.1582-0.04492l-0.0059-0.0039-0.0078-0.0039c-1.1334-0.64945-2.6057-0.25123-3.2598 0.87891l-0.48438 0.79102-0.0059 0.01172c-0.65214 1.1318-0.25803 2.6069 0.87109 3.2637h2e-3v2e-3c0.12302 0.07102 0.19726 0.19768 0.19726 0.33984 0 0.14204-0.07424 0.26883-0.19726 0.33984v2e-3c-1.1299 0.65361-1.5254 2.1272-0.87305 3.2578l2e-3 2e-3 0.45117 0.77734c4.61e-4 8.33e-4 0.0015 0.0011 2e-3 2e-3 0.30864 0.55538 0.82428 0.965 1.4355 1.1387 0.61218 0.17405 1.2711 0.09636 1.8262-0.21484l0.0078-0.0039 0.0059-0.0039c0.08778-0.05122 0.19261-0.06539 0.29102-0.03906 0.09826 0.02629 0.17994 0.09134 0.23047 0.17969l0.0039 0.0059 0.0039 0.0078c0.02999 0.05053 0.04626 0.1072 0.04687 0.16602v-0.0098c-8.3e-5 1.3097 1.0845 2.3924 2.3944 2.3924h0.91211c1.3058 1.24e-4 2.3883-1.0772 2.3945-2.3828v-0.0078c-4.77e-4 -0.10388 0.04005-0.20214 0.11328-0.27539 0.0712-0.0712 0.16692-0.10967 0.26758-0.11133 0.06369 0.0042 0.12606 0.02098 0.18164 0.05273l-2e-3 -2e-3c1.1309 0.65157 2.6042 0.25804 3.2617-0.86914l0.47852-0.79492 2e-3 -0.0059c0.31951-0.54847 0.4078-1.2029 0.24414-1.8164-0.16361-0.61347-0.56509-1.1366-1.1152-1.4531-0.08951-0.05149-0.15496-0.1363-0.18164-0.23633-0.0266-0.09974-0.01289-0.20576 0.03906-0.29492l2e-3 -2e-3 2e-3 -0.0039c0.03239-0.05655 0.07994-0.1042 0.13672-0.13672l0.0078-4e-3c1.1225-0.65655 1.5157-2.1225 0.87109-3.252l0.13086 0.49609v-0.27518l-0.13289-0.23047-0.45508-0.78711c-0.65291-1.1331-2.1289-1.531-3.2637-0.88086l-0.0039 2e-3 -0.0059 0.0039c-0.08877 0.0523-0.19316 0.06693-0.29297 0.04102-0.09979-0.02591-0.18412-0.09068-0.23633-0.17969l-2e-3 -2e-3v-2e-3c-0.02999-0.05053-0.04625-0.1091-0.04687-0.16797l-2e-3 0.04102c0.018751-0.64619-0.22507-1.2747-0.67566-1.7382-0.45057-0.46348-1.0704-0.72488-1.7168-0.72461zm0 2h0.91211c0.10667-4.5e-5 0.20879 0.04259 0.2832 0.11914 0.0744 0.07653 0.1144 0.17856 0.11133 0.28516v0.03906c0.0043 0.40923 0.11601 0.80973 0.32422 1.1621 2.73e-4 4.65e-4 0.0017-4.65e-4 2e-3 0 0.32049 0.54559 0.84444 0.94446 1.457 1.1035 0.61308 0.15917 1.2648 0.06761 1.8105-0.25391l-0.0098 0.0059c0.19841-0.11369 0.42099-0.05361 0.53516 0.14453l0.32031 0.55664v0.0039l0.13086 0.23047c0.11254 0.19718 0.05339 0.41858-0.14258 0.5332l0.0078-0.0039c-0.36304 0.20797-0.6639 0.50838-0.87305 0.87109-3.37e-4 5.79e-4 3.37e-4 0.0014 0 2e-3 -0.3188 0.54821-0.4076 1.2017-0.24414 1.8145 0.16356 0.6133 0.56483 1.1365 1.1152 1.4531 0.08962 0.05157 0.15501 0.13646 0.18164 0.23633 0.02658 0.09963 0.01107 0.20552-0.04102 0.29492l-0.47656 0.79297-2e-3 0.0059c-0.11478 0.19731-0.33923 0.25854-0.53711 0.14453l-2e-3 -2e-3h-2e-3c-0.3464-0.1981-0.73557-0.30771-1.1346-0.31844h-0.02344c-0.63642-3e-3 -1.247 0.24899-1.6973 0.69922h-2e-3c-0.45 0.45013-0.70019 1.0609-0.69727 1.6973v-0.0078c-0.001033 0.22807-0.16637 0.39064-0.39448 0.39061h-0.91211c-0.22915 0-0.39453-0.16353-0.39453-0.39258v-0.0118c-0.0042-0.40745-0.11784-0.80509-0.32422-1.1562-0.31537-0.54746-0.83484-0.94996-1.4453-1.1133-0.61267-0.16391-1.2665-0.07565-1.8145 0.24414l0.01563-0.0098c-0.09163 0.05137-0.19979 0.06387-0.30078 0.03516-0.10099-0.02869-0.18542-0.09563-0.23633-0.1875l-0.0039-0.0078-0.46484-0.80078v-2e-3c-0.11102-0.19463-0.05164-0.41304 0.14258-0.52539 0.73847-0.4269 1.1953-1.2193 1.1953-2.0723 0-0.85204-0.45634-1.6431-1.1934-2.0703-0.19732-0.11478-0.25655-0.3393-0.14258-0.53711l-0.01367 0.01953 0.49414-0.80859 0.0059-0.01172c0.11414-0.1981 0.33679-0.2582 0.53516-0.14453l-0.01172-0.0078c0.35323 0.20965 0.75499 0.32392 1.166 0.32812h0.0098c1.2972 1.35e-4 2.3759-1.0623 2.3945-2.3594v-0.0196c-4.95e-4 -0.10327 0.03848-0.2022 0.11133-0.27539 0.07279-0.07315 0.17217-0.11328 0.27539-0.11328z" fill="currentColor"/>
 <circle class="ColorScheme-Text" cx="11" cy="11" r="2" fill="currentColor" opacity=".45"/>
</svg>
