<svg xmlns="http://www.w3.org/2000/svg" width="22" height="22"><defs><style id="current-color-scheme" type="text/css"></style></defs><path d="M10.5 3.04v1.812h1V3.039h-1zM5.687 5.01l-.718.717L6.25 7.039l.719-.75-1.282-1.28zm10.625 0l-1.28 1.28.718.75 1.281-1.313-.718-.717zM11 6.04a5 5 0 1 0 0 10 5 5 0 0 0 0-10zm0 1v8a4 4 0 0 1 0-8zm-8 3.5v1h1.813v-1H3zm14.19 0v1h1.812v-1h-1.813zM6.25 15.07l-1.281 1.282.718.718 1.282-1.28-.719-.72zm9.5 0l-.719.72 1.281 1.28.72-.718-1.282-1.282zm-5.25 2.157v1.812h1v-1.812h-1z" fill="currentColor" color="#565656"/></svg>