<svg xmlns="http://www.w3.org/2000/svg" width="22" height="22"><defs><style id="current-color-scheme" type="text/css"></style></defs><path d="M6.01 4c-2.249 0-2 2-2 2v12h13.992V8h-1.998v8H6.01V8h6.992V4H6.01zm7.992 0l2 3 2-3h-4zM12.59 8.994L12.578 9v.592c.71 0 .719.239.719 1.105.007.08.002.199.025.303.053.376.224.801.698 1.004-.6.256-.723.875-.723 1.29-.014.192-.017.59-.05.706-.064.29-.22.408-.669.408V15c.957 0 1.411-.288 1.494-1 .004-.108.023-.303.018-.477 0-.556.02-1.2.61-1.2h.304v-.645h-.305c-.403 0-.532-.31-.578-.678l-.031-.746c.01-.91-.44-1.26-1.5-1.26zM9.436 9c-1.066 0-1.514.352-1.514 1.254L7.89 11c-.047.369-.176.678-.579.678h-.304v.644h.304c.589 0 .61.644.61 1.201-.005.174.013.369.017.477.084.712.54 1 1.497 1v-.592c-.45 0-.607-.118-.67-.408-.034-.116-.038-.514-.051-.705 0-.416-.124-1.035-.723-1.291.473-.203.644-.628.697-1.004.024-.104.019-.222.026-.303 0-.866.01-1.105.72-1.105V9z" fill="currentColor" color="#565656"/></svg>