<svg xmlns="http://www.w3.org/2000/svg" width="22" height="22"><defs><style id="current-color-scheme" type="text/css"></style></defs><path d="M6.008 4c-2.249 0-2 2-2 2v12H18V8h-1.998v8H6.008V8H14V4H6.008zM15 4v4l3-2-3-2zM9.434 9c-1.066 0-1.514.352-1.514 1.254L7.889 11c-.047.369-.176.678-.579.678h-.304v.644h.305c.588 0 .609.645.609 1.201-.005.174.014.369.018.477.083.712.538 1 1.496 1v-.592c-.45 0-.607-.118-.67-.408-.034-.116-.037-.514-.051-.705 0-.415-.124-1.035-.723-1.291.473-.203.644-.628.697-1.004.024-.104.02-.222.026-.303 0-.866.01-1.105.72-1.105V9zm3.142 0v.592c.71 0 .719.239.719 1.105.007.08.002.199.025.303.054.376.225.801.698 1.004-.599.256-.723.875-.723 1.291-.014.191-.017.589-.051.705-.063.29-.218.408-.668.408V15c.957 0 1.411-.288 1.494-1 .004-.108.023-.303.018-.477 0-.557.021-1.2.609-1.2h.305v-.645h-.305c-.402 0-.532-.31-.578-.678l-.031-.746c0-.902-.446-1.254-1.512-1.254z" fill="currentColor" color="#565656"/></svg>