<svg xmlns="http://www.w3.org/2000/svg" width="22" height="22"><defs><style id="current-color-scheme" type="text/css"></style></defs><path d="M6.01 4C3.76 4 4.012 6 4.012 6v12h13.992V6c0-2-2-2-2-2h-1.998v4h1.998v8H6.01V8h2V4h-2zm2.998 0l2 3 1.998-3H9.008zm.428 5c-1.066 0-1.512.352-1.512 1.254L7.893 11c-.047.369-.176.678-.579.678H7.01v.644h.304c.589 0 .61.644.61 1.201-.005.174.013.369.017.477.084.712.537 1 1.495 1v-.592c-.45 0-.607-.118-.67-.408-.034-.116-.038-.514-.051-.705 0-.416-.122-1.035-.72-1.291.472-.203.641-.628.694-1.004.024-.104.019-.222.026-.303 0-.866.01-1.105.72-1.105V9zm1.072 0v1h.998V9h-.998zm2.07 0v.592c.71 0 .72.239.72 1.105.008.08.003.199.026.303.053.376.224.801.697 1.004-.598.256-.722.875-.722 1.29-.014.192-.017.59-.051.706-.063.29-.22.408-.67.408V15c.957 0 1.413-.288 1.496-1 .004-.108.023-.303.018-.477 0-.556.019-1.2.607-1.2h.305v-.645h-.305c-.403 0-.53-.31-.576-.678l-.031-.746c0-.902-.448-1.254-1.514-1.254zm-2.07 2v4h.998v-4h-.998z" fill="currentColor" color="#565656"/></svg>