<svg xmlns="http://www.w3.org/2000/svg" width="22" height="22"><defs><style id="current-color-scheme" type="text/css"></style></defs><path d="M4 3.73v1h1v6h1v-7H4zm5 0a2 2 0 0 0-2 2v3a2 2 0 0 0 2 2 2 2 0 0 0 2-2 2 2 0 0 0-2-2A2 2 0 0 0 8 7V5.73a1 1 0 0 1 1-1 1 1 0 0 1 1 1h1a2 2 0 0 0-2-2zM11 4v1a7 7 0 0 1 6.309 4h-3.61v1h5V5h-1v2.656A8 8 0 0 0 11 4zM9 7.73a1 1 0 0 1 1 1 1 1 0 0 1-1 1 1 1 0 0 1-1-1 1 1 0 0 1 1-1zM17 11a2 2 0 0 0-2 2 2 2 0 0 0 .68 1.5A2 2 0 0 0 15 16a2 2 0 0 0 2 2 2 2 0 0 0 2-2 2 2 0 0 0-.68-1.5A2 2 0 0 0 19 13a2 2 0 0 0-2-2zM4 12v5h1v-2.656A8 8 0 0 0 11.7 18v-1a7 7 0 0 1-6.31-4H9v-1H4zm13 0a1 1 0 0 1 1 1 1 1 0 0 1-1 1 1 1 0 0 1-1-1 1 1 0 0 1 1-1zm0 3a1 1 0 0 1 1 1 1 1 0 0 1-1 1 1 1 0 0 1-1-1 1 1 0 0 1 1-1z" fill="currentColor" color="#565656"/></svg>