<svg xmlns="http://www.w3.org/2000/svg" width="22" height="22"><defs><style id="current-color-scheme" type="text/css"></style></defs><path d="M17.996 4.006c-.184-.217-6.636 5.243-8.465 7.502-.266.33-.332.568-.681 1.19.225.177.658.585.959 1.29.6-.388.88-.446 1.199-.748 2.077-1.97 7.163-9.03 6.988-9.234zm-10.082 9.21c-.783.025-1.53.692-2.05 2.097C5.267 16.916 4.205 17.56 4 17.52c1.109.452 4.492 1.607 5.332-2.792-.357-1.056-1.082-1.485-1.082-1.485a1.472 1.472 0 0 0-.336-.027z" fill="currentColor" color="#565656"/></svg>