<svg xmlns="http://www.w3.org/2000/svg" width="22" height="22"><defs><style id="current-color-scheme" type="text/css"></style></defs><path d="M10.492 2.996L10.5 3A1.5 1.5 0 0 0 9 4.5a1.5 1.5 0 0 0 .113.57L5.221 8.186A1.5 1.5 0 0 0 4.5 8 1.5 1.5 0 0 0 3 9.5a1.5 1.5 0 0 0 1 1.412v5.176A1.5 1.5 0 0 0 3 17.5 1.5 1.5 0 0 0 4.5 19a1.5 1.5 0 0 0 1.412-1h4.176a1.5 1.5 0 0 0 1.412 1 1.5 1.5 0 0 0 1.5-1.5 1.5 1.5 0 0 0-.186-.717l3.118-3.896A1.5 1.5 0 0 0 16.5 13a1.5 1.5 0 0 0 1.5-1.5 1.5 1.5 0 0 0-1.5-1.5 1.5 1.5 0 0 0-.584.12l-4.094-4.913a1.5 1.5 0 0 0 .17-.71 1.5 1.5 0 0 0-1.5-1.5zm-.71 2.82A1.5 1.5 0 0 0 10.5 6a1.5 1.5 0 0 0 .582-.12l4.096 4.915a1.5 1.5 0 0 0-.18.71 1.5 1.5 0 0 0 .186.72l-3.116 3.894a1.5 1.5 0 0 0-.57-.111 1.5 1.5 0 0 0-1.412 1H5.91a1.5 1.5 0 0 0-.91-.91v-5.176A1.5 1.5 0 0 0 6 9.51a1.5 1.5 0 0 0-.113-.569L9.78 5.826v-.01z" fill="currentColor" color="#565656"/></svg>