<svg width="22" height="22" version="1.1" viewBox="0 0 22 22" xmlns="http://www.w3.org/2000/svg">
 <defs>
  <style id="current-color-scheme" type="text/css">.ColorScheme-Text { color:#565656; } .ColorScheme-Highlight { color:#5294e2; }</style>
 </defs>
 <path class="ColorScheme-Text" transform="translate(3,3)" d="m6.9961 4v4.4141l2.4141 2.4141 1.4141-1.4141-1.8242-1.8281v-3.5859z" fill="currentColor"/>
 <path class="ColorScheme-Text" d="m11 2a9 9 0 0 0-9 9 9 9 0 0 0 9 9 9 9 0 0 0 9-9 9 9 0 0 0-9-9zm0 2a6.9995 6.9995 0 0 1 7 7 6.9995 6.9995 0 0 1-7 7 6.9995 6.9995 0 0 1-7-7 6.9995 6.9995 0 0 1 7-7z" fill="currentColor"/>
</svg>
