<svg xmlns="http://www.w3.org/2000/svg" width="22" height="22" version="1.1" id="svg7"><defs id="defs3"><style id="current-color-scheme" type="text/css"></style></defs><path d="M11 4a7 7 0 0 0-7 7 7 7 0 0 0 7 7 7 7 0 0 0 7-7 7 7 0 0 0-7-7zm0 2a5 5 0 0 1 5 5 5 5 0 0 1-5 5 5 5 0 0 1-5-5 5 5 0 0 1 5-5z" id="path2" fill="#565656" fill-opacity="1"/><path d="M13.242 9.248a.5.5 0 0 0-.344.15l-2.146 2.147L9.105 9.9a.5.5 0 1 0-.707.707l2 2a.5.5 0 0 0 .707 0l2.5-2.5a.5.5 0 0 0-.363-.858z" id="path4" fill="#565656" fill-opacity="1"/></svg>