<svg xmlns="http://www.w3.org/2000/svg" width="22" height="22"><defs><style id="current-color-scheme" type="text/css"></style></defs><path d="M5.844 3.004v.002C5.563 3.05 5 3.24 5 3.939v12.125c0 .933 1 .934 1 .934h7.5a3.5 3.5 0 1 1 3.49-3.764c.002-2.201.004-4.843 0-6.498l-3.996-3.732H6s-.063-.015-.156 0zm7.676 7.785a2.728 2.728 0 0 0-2.72 2.72 2.726 2.726 0 0 0 2.72 2.72c.487 0 .947-.149 1.343-.375a.75.75 0 0 0 .157.218l1.843 1.813a.751.751 0 1 0 1.063-1.063l-1.844-1.812a.75.75 0 0 0-.219-.156c.227-.397.375-.857.375-1.344a2.728 2.728 0 0 0-2.718-2.72zm0 1c.955 0 1.718.766 1.718 1.72 0 .956-.763 1.72-1.718 1.72a1.711 1.711 0 0 1-1.72-1.72c0-.954.764-1.72 1.72-1.72z" fill="currentColor" color="#565656"/></svg>