<svg xmlns="http://www.w3.org/2000/svg" width="22" height="22"><defs><style id="current-color-scheme" type="text/css"></style></defs><path d="M5.84 4.006c-.281.044-.844.234-.844.933v12.127c0 .933 1 .934 1 .934h9.99c1 0 1-.934 1-.934.02-.043.005-6.952 0-9.328L12.99 4.006H5.996s-.062-.015-.156 0zM10.996 7l.766 2.152 2.062-.98-.98 2.062 2.152.766-2.152.766.98 2.062-2.062-.98L10.996 15l-.766-2.152-2.062.98.98-2.062L6.996 11l2.152-.766-.98-2.062 2.062.98L10.996 7z" fill="currentColor" color="#565656"/></svg>