<svg xmlns="http://www.w3.org/2000/svg" width="22" height="22"><defs><style id="current-color-scheme" type="text/css"></style></defs><path d="M18 4c-.989.204-1.907.782-2.45 1.617A1.204 1.204 0 0 0 15 5.5c-.156 0-.304.03-.445.074a7.912 7.912 0 0 0-.756.332A6.5 6.5 0 0 0 10.5 5 6.5 6.5 0 0 0 4 11.5a6.5 6.5 0 0 0 6.5 6.5 6.5 6.5 0 0 0 6.5-6.5 6.5 6.5 0 0 0-.793-3.1c.088-.288.164-.6.219-.955A1.49 1.49 0 0 0 16.5 7c0-.336-.01-.471-.195-.72.4-.655.937-1.083 1.695-1.28V4z" fill="currentColor" color="#565656"/></svg>