<svg xmlns="http://www.w3.org/2000/svg" width="22" height="22"><defs><style id="current-color-scheme" type="text/css">.ColorScheme-Text{color:#565656}</style></defs><path class="ColorScheme-Text" d="M9.5 4A5.5 5.5 0 0 0 4 9.5a5.5 5.5 0 0 0 1.148 3.352l1.43-1.43A3.5 3.5 0 0 1 6 9.5 3.5 3.5 0 0 1 9.5 6a3.5 3.5 0 0 1 1.922.578l1.431-1.432A5.5 5.5 0 0 0 9.5 4zm5.18 7.32l-3.365 3.366a5.5 5.5 0 0 0 1.302-.655l3.662 3.662A1 1 0 0 0 17 18a1 1 0 0 0 1-1 1 1 0 0 0-.303-.717l-3.67-3.67a5.5 5.5 0 0 0 .653-1.293zM5 14.32V17h2.67l6.75-6.75-2.67-2.68zm11.79-6.43c.28-.28.28-.73 0-1.01l-1.67-1.67a.712.712 0 0 0-1.01 0l-1.4 1.4 2.67 2.68z" fill="currentColor"/></svg>