<svg xmlns="http://www.w3.org/2000/svg" width="22" height="22"><defs><style id="current-color-scheme" type="text/css"></style></defs><path d="M10.994 5C9.124 5 7.6 6.534 7.544 8.451a.603.603 0 0 0-.134.053c-.43.227-.54.936-.246 1.592.237.527.658.854 1.04.844.286 1.752 1.43 3.06 2.79 3.06h.012c1.36 0 2.504-1.308 2.791-3.06.381.01.802-.317 1.039-.844.294-.656.184-1.365-.246-1.592a.6.6 0 0 0-.135-.053C14.4 6.534 12.875 5 11.005 5h-.01zM15 13v3h2v-3h-2zm-6.494 1.012c-2.47.258-4.268.889-4.484 1.636-.003.008.002.017 0 .024-.007.027-.007.051-.01.078-.001.012-.012.021-.012.033v1.86c0 .197.156.357.35.357H12v-2.934a3.575 3.575 0 0 1-1.055.161c-1.17 0-2.145-.52-2.44-1.215zM15 17v1h2v-1h-2z" fill="currentColor" color="#565656"/></svg>