<svg xmlns="http://www.w3.org/2000/svg" width="22" height="22"><defs><style id="current-color-scheme" type="text/css"></style></defs><path d="M11.03 4.063a6.963 6.963 0 0 0-6.97 6.968A6.963 6.963 0 0 0 11.03 18a6.963 6.963 0 0 0 6.968-6.969 6.963 6.963 0 0 0-6.969-6.969zM8 8.002h1c.276 0 .538.101.719.282L11 9.562l1.281-1.277c.18-.18.441-.281.721-.281h1v1c0 .276-.1.538-.281.719L12.439 11l1.282 1.285c.18.181.282.443.281.719v1h-1c-.276 0-.538-.1-.719-.281l-1.281-1.286-1.281 1.286c-.18.18-.441.279-.721.279H8v-1c0-.276.1-.538.281-.719l1.281-1.285-1.28-1.277c-.18-.18-.28-.443-.28-.719L8 8.004z" fill="currentColor" color="#565656"/></svg>