<svg xmlns="http://www.w3.org/2000/svg" width="22" height="22"><defs><style id="current-color-scheme" type="text/css"></style></defs><path d="M8 5.004l-5 6 5 6h11v-12H8zm2 3h1c.277 0 .526.112.707.293L13 9.59l1.293-1.293a.953.953 0 0 1 .7-.293h1v1a.996.996 0 0 1-.294.707L14.4 11.004l1.293 1.293c.181.18.293.43.293.707v1h-1a.996.996 0 0 1-.707-.293l-1.293-1.293-1.293 1.293a.915.915 0 0 1-.69.293h-1v-1c0-.277.113-.526.294-.707l1.299-1.293-1.3-1.293a.998.998 0 0 1-.29-.707l-.006-1z" fill="currentColor" color="#565656"/></svg>