<svg xmlns="http://www.w3.org/2000/svg" width="22" height="22"><defs><style id="current-color-scheme" type="text/css"></style></defs><path d="M4 4v14h14V4H4zm2 2h4v3.277c-.293.17-.537.409-.71.7-.01.015-.017.03-.026.046a1.987 1.987 0 0 0-.198.495C9.028 10.673 9 10.832 9 11a1.976 1.976 0 0 0 .1.598c.042.133.096.26.164.379l.025.046c.174.291.418.53.711.7V16H6V6zm6 0h4v10h-4v-3.277c.293-.17.537-.409.71-.7.01-.015.017-.03.026-.046a1.987 1.987 0 0 0 .198-.495c.038-.155.066-.314.066-.482a1.976 1.976 0 0 0-.1-.598 1.987 1.987 0 0 0-.164-.379l-.025-.046a1.993 1.993 0 0 0-.711-.7V6z" fill="currentColor" color="#565656"/></svg>