<svg xmlns="http://www.w3.org/2000/svg" width="22" height="22"><defs><style id="current-color-scheme" type="text/css"></style></defs><path d="M5 3c-1.108 0-2 .892-2 2v12c0 1.108.892 2 2 2h12c1.108 0 2-.892 2-2V5c0-1.108-.892-2-2-2zm5 .5h1V4h3v-.5h1V4h2v1h-2v2h-2v1h3v3h-3v1h3v1h-3v1h4v1h-3.662c.257.394.639.782 1.113 1.115.876.616 1.998.998 2.539.987l.02 1c-.944.019-2.111-.451-3.133-1.168-.531-.374-1.027-.826-1.377-1.346-.35.52-.846.972-1.377 1.346-1.022.717-2.189 1.187-3.133 1.168l.02-1c.54.011 1.663-.371 2.539-.987A4.237 4.237 0 0 0 11.662 15H8v-1h4v-1H9v-1h3v-1H9V8h3V7h-2V5H8V4h2zM5.352 5.377c.845.461 1.614 1.02 2.306 1.674l-.75.98a14.628 14.628 0 0 0-2.365-1.846zM11 5v1h3V5zM4.775 8.653c.77.423 1.48.903 2.133 1.441l-.806.98A9.467 9.467 0 0 0 3.967 9.46zM10 9v1h2V9zm3 0v1h2V9zm-6.898 2.986l.98.694a24.247 24.247 0 0 1-2.02 5.248l-1.152-.809a24.29 24.29 0 0 0 2.192-5.133z" fill="currentColor" color="#565656"/></svg>