<svg xmlns="http://www.w3.org/2000/svg" width="22" height="22"><defs><style id="current-color-scheme" type="text/css"></style></defs><path d="M11 3C8.238 3 6 5.31 6 8.16c0 1.68.77 3.16 1.985 4.1.555.43.99.99.99 1.76L9 15h4l.029-.98c.039-.77.431-1.33.986-1.76C15.231 11.32 16 9.84 16 8.16 16 5.31 13.762 3 11 3zm0 2.06c1.653 0 3.005 1.39 3.005 3.1 0 .97-.438 1.87-1.197 2.45-1.128.88-1.556 1.86-1.711 2.679h-.194c-.156-.82-.583-1.8-1.712-2.68A3.064 3.064 0 0 1 7.995 8.16c0-1.71 1.351-3.1 3.005-3.1zM9 16v2c0 1 1.027 1 1.027 1h1.946s1.056 0 1.027-1v-2z" fill="currentColor" opacity=".3" color="#565656"/></svg>