<svg xmlns="http://www.w3.org/2000/svg" width="22" height="22" version="1.1" id="svg11"><defs id="defs3"><style id="current-color-scheme" type="text/css"></style></defs><g id="g841" transform="translate(3.5 -3.251)"><path id="path7" d="M12 13v4.25c0 .415-.335.75-.75.75H5v2.25c0 .415.335.75.75.75h8.5c.415 0 .75-.335.75-.75v-6.5a.749.749 0 0 0-.75-.75z" color="#565656" opacity=".3" fill="currentColor"/><g transform="matrix(.71429 0 0 .71429 -16.9 6.933)" id="g830" stroke-width="1.4" fill="#565656" fill-opacity="1" stroke="none"><rect id="rect23" width="14" height="5" x="24.661" y=".797" rx="1" ry="1" display="inline" opacity=".5" stroke-linecap="round" stroke-linejoin="miter" stroke-miterlimit="4" stroke-dasharray="none" stroke-opacity="1" paint-order="stroke markers fill"/><path d="M31.661 2.797l-1 2h-6c-.554 0-1 .446-1 1v8c0 .554.446 1 1 1h14c.554 0 1-.446 1-1v-10c0-.5-.5-1-1-1z" id="path4-3" display="inline"/></g></g></svg>