<svg xmlns="http://www.w3.org/2000/svg" width="22" height="22"><defs><style id="current-color-scheme" type="text/css"></style></defs><path d="M5.34 3.938L3.934 5.343l4.693 4.693c-.765.089-1.438.428-1.88.932A3.017 3.017 0 0 0 5.996 13c.005.72.268 1.453.78 2.031.513.579 1.31.969 2.22.969h5.593l2.062 2.063 1.407-1.407L5.339 3.938zM9.402 6l2 2h1.594c.428 0 1 .614 1 1v1h-.594l2.594 2.594V9a3 3 0 0 0-3-3H9.402zm-.406 6h1.594l2 2H8.996c-.398 0-.567-.11-.719-.281a1.144 1.144 0 0 1-.28-.719c-.003-.28.104-.554.25-.719.144-.165.327-.281.75-.281z" fill="currentColor" color="#565656"/></svg>