<svg xmlns="http://www.w3.org/2000/svg" width="22" height="22"><defs><style id="current-color-scheme" type="text/css"></style></defs><path d="M7.5 4A3.515 3.515 0 0 0 4 7.5C4 9.421 5.579 11 7.5 11c.898 0 1.702-.368 2.324-.932L5.95 15.883a1 1 0 0 0 .264 1.377l.812.562a1 1 0 0 0 1.4-.267l2.813-4.22c-.133.369-.238.753-.238 1.165 0 1.921 1.579 3.5 3.5 3.5s3.5-1.579 3.5-3.5-1.579-3.5-3.5-3.5c-.898 0-1.702.368-2.324.932l3.875-5.815a1 1 0 0 0-.264-1.377l-.812-.562a1 1 0 0 0-1.4.267l-2.813 4.22c.133-.37.238-.753.238-1.165C11 5.579 9.421 4 7.5 4zm0 2C8.364 6 9 6.636 9 7.5S8.364 9 7.5 9 6 8.364 6 7.5 6.636 6 7.5 6zm7 7c.864 0 1.5.636 1.5 1.5s-.636 1.5-1.5 1.5-1.5-.636-1.5-1.5.636-1.5 1.5-1.5z" fill="currentColor" color="#565656"/></svg>