<svg xmlns="http://www.w3.org/2000/svg" width="22" height="22"><defs><style id="current-color-scheme" type="text/css"></style></defs><path d="M7 5v2h6c.428 0 1 .614 1 1v1H9c-.92 0-1.736.384-2.25.969A3.017 3.017 0 0 0 6 12c.006.72.269 1.453.781 2.031C7.294 14.61 8.091 15 9 15h7v-.844c.016-.094 0-.156 0-.156V8a3 3 0 0 0-3-3H7zm2 6h5v2H9c-.398 0-.567-.11-.719-.281A1.144 1.144 0 0 1 8 12c-.002-.28.105-.554.25-.719.145-.165.328-.281.75-.281zm-4 5v2h12v-2H5z" fill="currentColor" color="#565656"/></svg>