<svg xmlns="http://www.w3.org/2000/svg" width="22" height="22"><defs><style id="current-color-scheme" type="text/css"></style></defs><path d="M9 3.04v1.132c-.977.142-1.81.397-2.463.799-1.01.615-1.516 1.558-1.516 2.83C5.017 9.996 6.58 10.72 9 11.387v4.99c-1.173-.099-2.245-.32-3.377-.805L5 16.93c.565.301 1.327.562 2.29.785.543.122 1.11.2 1.71.254v1.072h1v-1.023c.17.004.314.021.494.021.164 0 .336-.013.506-.021v1.021h1v-1.12c1.997-.284 3.98-1.201 3.959-3.687-.07-1.83-1.203-2.507-3.959-3.476V5.803c.903.12 2.002.372 3.225.982L16 5.242c-.551-.295-1.831-.766-2.646-.941A11.717 11.717 0 0 0 12 4.1V3.04h-1v1.014c-.092-.002-.178-.014-.271-.014-.257 0-.488.02-.729.033V3.04H9zm1.438 2.647c.15.001.362.01.562.018v4.701c-.157-.053-.255-.091-.422-.146-.179-.044-.385-.108-.578-.16V5.703c.146-.006.292-.014.438-.014v-.002zM9 5.8v3.998c-1.227-.435-2.357-1.093-2.324-2.192C6.616 6.565 7.68 6.015 9 5.8zm1 5.853c.184.047.33.092.521.141.161.046.318.097.479.145v4.492c-.15.003-.311.018-.451.017-.192-.002-.365-.014-.549-.02v-4.775zm2 .598c1.281.449 2.32 1.037 2.297 2.066-.04 1.395-1.132 1.881-2.297 2.047V12.25z" fill="currentColor" color="#565656"/></svg>