<svg xmlns="http://www.w3.org/2000/svg" width="22" height="22"><defs><style id="current-color-scheme" type="text/css"></style></defs><path d="M7.5 3C5.567 3 4 4.79 4 7v3c0 2.21 1.567 4 3.5 4s3.5-1.79 3.5-4V7c0-2.21-1.567-4-3.5-4zm8 0C13.567 3 12 4.79 12 7v3c0 2.21 1.567 4 3.5 4s3.5-1.79 3.5-4V7c0-2.21-1.567-4-3.5-4zm-8 2C8.328 5 9 6.045 9 7.334v2.332C9 10.955 8.328 12 7.5 12S6 10.955 6 9.666V7.334C6 6.045 6.672 5 7.5 5zm8 0c.828 0 1.5 1.045 1.5 2.334v2.332C17 10.955 16.328 12 15.5 12S14 10.955 14 9.666V7.334C14 6.045 14.672 5 15.5 5zM3 13v1h1v-1H3zm11.707 1.758l-.707.707 1.414 1.414L14 18.293l.707.707 1.414-1.414L17.535 19l.707-.707-1.414-1.414 1.414-1.414-.707-.707-1.414 1.414-1.414-1.414z" fill="currentColor" color="#565656"/></svg>