<svg xmlns="http://www.w3.org/2000/svg" width="22" height="22"><defs><style id="current-color-scheme" type="text/css"></style></defs><path d="M3 5v12h10l5.293-5.293L19 11l-.707-.707L13 5H3zm4 2h1v1H7a1 1 0 0 0-1 1v1a1.5 1.5 0 0 1-.375 1A1.5 1.5 0 0 1 6 12v1a1 1 0 0 0 1 1h1v1H7a2 2 0 0 1-2-2v-1a.5.5 0 0 0-.5-.5H4v-1h.5A.5.5 0 0 0 5 10V9a2 2 0 0 1 2-2zm2 0h1a2 2 0 0 1 2 2v1a.5.5 0 0 0 .5.5h.5v1h-.5a.5.5 0 0 0-.5.5v1a2 2 0 0 1-2 2H9v-1h1a1 1 0 0 0 1-1v-1c0-.383.14-.735.375-1A1.5 1.5 0 0 1 11 10V9a1 1 0 0 0-1-1H9V7z" fill="currentColor" color="#565656"/></svg>