<svg xmlns="http://www.w3.org/2000/svg" width="22" height="22"><defs><style id="current-color-scheme" type="text/css"></style></defs><path d="M15.95 4.637l-1.876 1.875a7.985 7.985 0 0 0-1.898-.442c-.39-.045-.784-.066-1.176-.066-1.55.015-3.112.37-4.463 1.135-.538.35-1.185.803-1.672 1.26-.766.75-1.422 1.625-1.865 2.605.653 1.44 1.734 2.661 3.043 3.539l-1.406 1.406 1.414 1.414 1.869-1.869c.614.22 1.25.379 1.904.444 1.928.217 3.945-.115 5.639-1.069.538-.35 1.185-.803 1.672-1.26.766-.75 1.422-1.626 1.865-2.605-.654-1.441-1.736-2.665-3.047-3.543l1.41-1.41-1.414-1.414zM11 8.004c.453-.01.886.106 1.281.3l-3.969 3.97c-.321-.667-.425-1.436-.175-2.157C8.506 8.887 9.713 7.99 11 8.004zm2.695 1.715c.196.397.314.832.305 1.285.052 1.766-1.709 3.29-3.45 2.96a2.622 2.622 0 0 1-.837-.263l1.932-1.933a1 1 0 0 0 .035-.034l.037-.035a1 1 0 0 0 .017-.02l1.961-1.96z" fill="currentColor" color="#565656"/></svg>