<svg xmlns="http://www.w3.org/2000/svg" width="22" height="22"><defs><style id="current-color-scheme" type="text/css">.ColorScheme-Text{color:#565656}</style></defs><g id="layer12"><path class="ColorScheme-Text" d="M8 1.004c-.95 0-1.736.984-1.943 2.31-1.085-.79-2.335-.932-3.006-.261-.671.67-.531 1.923.26 3.007C1.983 6.268 1 7.055 1 8.004s.984 1.736 2.31 1.943c-.79 1.084-.93 2.335-.26 3.006.672.671 1.922.529 3.007-.262A4.433 4.433 0 0 1 6 12.004c.167-.665.56-1.551 1.098-2.219a2 2 0 0 1-.512-.367 2 2 0 0 1 0-2.828 2 2 0 0 1 2.828 0 2 2 0 0 1 0 2.828 2 2 0 0 1-.512.37c.538.667.93 1.549 1.098 2.214v.002c0 .238-.022.466-.057.688 1.084.79 2.335.932 3.006.261.671-.67.53-1.921-.262-3.006 1.327-.207 2.311-.994 2.311-1.943 0-.95-.984-1.736-2.31-1.943.79-1.085.932-2.337.261-3.008-.67-.671-1.922-.53-3.006.261C9.736 1.988 8.95 1.004 8 1.004zm1.717 12.52c-.013.033-.024.069-.037.1.001-.004.004-.007.006-.011.011-.028.02-.06.03-.088zm-2.772 1.02l.014.014c.051.047.106.089.16.129l.018.012a1.924 1.924 0 0 1-.192-.155zm2.094.014a1.92 1.92 0 0 1-.176.14l.018-.011c.054-.04.107-.082.158-.129zm-1.771.231l.013.01c.063.036.128.061.194.088a1.542 1.542 0 0 1-.207-.098zm1.464 0c-.067.04-.136.07-.207.098.066-.027.131-.052.194-.088l.013-.01z" transform="rotate(30 3.451 14.838)" fill="currentColor"/><path opacity=".3" class="ColorScheme-Text" d="M7.1 9.783c-.54.668-.933 1.555-1.1 2.221 0 1.662.892 3 2 3s2-1.338 2-3v-.002c-.167-.665-.56-1.549-1.098-2.217A2 2 0 0 1 8 10a2 2 0 0 1-.9-.217z" transform="rotate(30 3.451 14.838)" fill="currentColor"/></g></svg>