<svg xmlns="http://www.w3.org/2000/svg" width="22" height="22"><defs><style id="current-color-scheme" type="text/css">.ColorScheme-Text{color:#565656}</style></defs><path class="ColorScheme-Text" d="M8.404 9s-1.406 0-1.406 1.4v4.2c0 .775.638 1.4 1.43 1.4h3.57l1.5 2 1.5-2h.572s1.428 0 1.428-1.4v-4.2C16.998 9 15.57 9 15.57 9H8.404z" fill="currentColor"/><path class="ColorScheme-Text" d="M6.406 5S5 5 5 6.4v4.2c0 .628.42 1.151 1 1.33V9.4C6 8 7.406 8 7.406 8h7.166s.196.024.428.086V6.4C15 5 13.572 5 13.572 5H6.406z" fill="currentColor" opacity=".3"/></svg>