<svg xmlns="http://www.w3.org/2000/svg" width="22" height="22"><defs><style id="current-color-scheme" type="text/css"></style></defs><path d="M11 3a4 4 0 1 0 0 8 4 4 0 0 0 0-8zm0 8.986c-4.028.005-7.497 3.018-8 7.014h9.713C11.679 18.173 11 16.918 11 15.5c0-1.403.665-2.66 1.682-3.486-.739-.015-1.495-.026-1.682-.028zm4.5.014a3.5 3.5 0 0 0-3.5 3.5 3.5 3.5 0 0 0 3.5 3.5 3.5 3.5 0 0 0 3.5-3.5l-1.5 1.25L16 18v-2h-3v-1h3v-2l1.5 1.25L19 15.5a3.5 3.5 0 0 0-3.5-3.5z" fill="currentColor" color="#565656"/></svg>