<svg xmlns="http://www.w3.org/2000/svg" width="22" height="22"><defs><style id="current-color-scheme" type="text/css"></style></defs><path d="M11 4.004a7 7 0 1 0 0 14 7 7 0 0 0 0-14zM9.697 7.006a15.7 15.7 0 0 1 1.051.037l-.05.445c-.21.066-1.213.09-1.473.178.678 1.271 1.75 2.907 2.097 3.543.192-.35 1.872-1.808 1.924-2.313-.26-.066-1.124-.222-1.264-.222L11.9 8.1c.237-.047 1.481 0 2.1 0 .534 0 1.676 0 2 .033l-.297.54c-.174.023-.897.226-1.141.292-.26.087-2.644 2.407-2.8 2.976a5.12 5.12 0 0 0-.051.788l-.018.459c0 .328.073.857.108 1.142.156.044 1.289.007 1.498.051l-.026.588c-.203-.019-1.644-.014-2.466-.014-.418 0-1.758.059-2.17.043l.078-.56c.226-.023 1.161.051 1.367-.223.102-.136.07-.282.07-1.07v-.373c0-.176 0-.504-.035-.811-.087-.329-2.186-3.63-2.724-4.156-.157-.066-1.138-.19-1.381-.256L6 7.045c.121-.077 1.211.018 2.27-.031.347-.017.92-.016 1.427-.008z" fill="currentColor" color="#565656"/></svg>