<svg xmlns="http://www.w3.org/2000/svg" width="22" height="22"><defs><style id="current-color-scheme" type="text/css"></style></defs><path d="M16.03 4.031c-.096.001-.157.032-.157.032L4.063 6.124c-.985.174-.813 1.156-.813 1.156L3.719 10h3.094l1.125-1.938L10.374 10h2.313l.906-1.219L15.344 10h2.594l-.907-5.125c-.13-.739-.715-.846-1-.844h-.002zM4 11v1h1v-1H4zm2 0v1h1v-1H6zm2 0v1h1v-1H8zm2 0v1h1v-1h-1zm2 0v1h1v-1h-1zm2 0v1h1v-1h-1zm2 0v1h1v-1h-1zm2 0v1h1v-1h-1zM4.25 13l.719 4.156c.173.985 1.156.813 1.156.813l11.81-2.094s.987-.171.813-1.156L18.438 13h-2l.187 1.063-9.844 1.75-.5-2.813H4.25z" fill="currentColor" color="#565656"/></svg>