<svg xmlns="http://www.w3.org/2000/svg" width="22" height="22"><defs><style id="current-color-scheme" type="text/css"></style></defs><path d="M11 4.98c-.917.001-1.81.293-2.355.97-.546.675-.7 1.503-.768 2.462-.034.473-.044.995-.04 1.568H7c-.554 0-1 .446-1 1s.446 1 1 1h.889c.047 1.399.11 3.043.111 5a1 1 0 1 0 2 0c0-1.961-.056-3.619-.102-5H11c.554 0 1-.446 1-1s-.446-1-1-1H9.846a17.605 17.605 0 0 1 .027-1.425c.057-.79.217-1.212.328-1.35.111-.138.218-.224.801-.225a1 1 0 1 0-.002-2zm.707 8.758l-.707.707 1.414 1.414L11 17.273l.707.707 1.414-1.414 1.414 1.414.707-.707-1.414-1.414 1.414-1.414-.707-.707-1.414 1.414-1.414-1.414z" fill="currentColor" color="#565656"/></svg>