<svg xmlns="http://www.w3.org/2000/svg" width="22" height="22"><defs><style id="current-color-scheme" type="text/css"></style></defs><path d="M16.18 3a.354.354 0 0 0-.149.031L4.78 5.105c-.938.175-.773 1.163-.773 1.163L4.457 9h2.945l1.073-1.947L10.797 9h2.201l.863-1.225L15.53 9h2.469l-.863-5.15c-.124-.743-.68-.85-.951-.848L16.18 3zM4 10v1h1v-1H4zm2 0v1h1v-1H6zm2 0v1h1v-1H8zm2 0v1h1v-1h-1zm2 0v1h1v-1h-1zm2 0v1h1v-1h-1zm2 0v1h1v-1h-1zm2 0v1h1v-1h-1zM4.002 12v2.908h2.816L10.91 19v-7H4.002zm8.908 0v3c1.07-.58 1.79-1.7 1.79-3h-1.79zm4 0c0 2.57-1.68 4.76-4 5.5V19c3.15-.78 5.5-3.6 5.5-7h-1.5z" fill="currentColor" color="#565656"/></svg>