<svg xmlns="http://www.w3.org/2000/svg" width="22" height="22"><defs><style id="current-color-scheme" type="text/css"></style></defs><path d="M4 4.016v14h14v-14H4zM7.434 9.85h2.324c.056 0 .089.024.101.074l2.045 6.086a.101.101 0 0 1-.01.094c-.018.03-.05.046-.093.046H9.906a.155.155 0 0 1-.066-.02.136.136 0 0 1-.037-.064l-.438-1.4H7.777c-.056.236-.117.473-.185.709-.062.23-.122.461-.178.691-.012.056-.049.084-.111.084H5.51c-.044 0-.075-.015-.094-.046a.1.1 0 0 1-.008-.094l1.924-6.086c.012-.05.046-.074.102-.074zm1.091 1.625a1.4 1.4 0 0 1-.027.11 2 2 0 0 1-.02.112c-.024.106-.05.21-.076.309-.025.093-.05.182-.082.27h.008c-.043.18-.084.336-.121.466-.037.13-.081.287-.13.467h.98c-.05-.156-.097-.311-.141-.467a8.318 8.318 0 0 0-.252-.783 9.5 9.5 0 0 1-.102-.326l.01.01a.26.26 0 0 0-.029-.077c0-.012.004-.017.01-.017l-.01-.01a.2.2 0 0 0-.018-.064zm5.155 3.275a.7.7 0 0 1 .7.7.7.7 0 0 1-.7.7.7.7 0 0 1-.7-.7.7.7 0 0 1 .7-.7zm2.22 0a.7.7 0 0 1 .7.7.7.7 0 0 1-.7.7.7.7 0 0 1-.7-.7.7.7 0 0 1 .7-.7z" fill="currentColor" color="#565656"/></svg>