<svg xmlns="http://www.w3.org/2000/svg" width="22" height="22"><defs><style id="current-color-scheme" type="text/css"></style></defs><path d="M5 3c-1.108 0-2 .892-2 2v12c0 1.108.892 2 2 2h12c1.108 0 2-.892 2-2V5c0-1.108-.892-2-2-2H5zm1.715 2h8.57C16.235 5 17 5.765 17 6.715v8.57c0 .95-.765 1.715-1.715 1.715h-8.57C5.765 17 5 16.235 5 15.285v-8.57C5 5.765 5.765 5 6.715 5zM9.74 6L9.63 7.316a3.964 3.929 0 0 0-1.158.664l-1.21-.562-1.259 2.164 1.096.756a3.964 3.929 0 0 0-.06.662 3.964 3.929 0 0 0 .058.666l-1.094.752 1.26 2.164 1.205-.562a3.964 3.929 0 0 0 1.162.66L9.74 16h2.522l.111-1.316a3.964 3.929 0 0 0 1.158-.664l1.21.562 1.261-2.164-1.098-.756a3.964 3.929 0 0 0 .06-.662 3.964 3.929 0 0 0-.056-.666l1.094-.752-1.262-2.164-1.205.562a3.964 3.929 0 0 0-1.162-.66L12.262 6H9.74zm1.262 3.572A1.441 1.429 0 0 1 12.443 11a1.441 1.429 0 0 1-1.441 1.428A1.441 1.429 0 0 1 9.561 11a1.441 1.429 0 0 1 1.441-1.428z" fill="currentColor" color="#565656"/></svg>