<svg xmlns="http://www.w3.org/2000/svg" width="22" height="22"><defs><style id="current-color-scheme" type="text/css"></style></defs><path d="M11 2.904V3a7 6 0 0 0-.92.059 7 6 0 0 0-.162.017h-.004A7 6 0 0 0 4 8.976v8a7 2 0 0 0 7 2 7 2 0 0 0 7-2v-8a7 6 0 0 0-4.314-5.535h-.002a7 6 0 0 0-.053-.017 7 6 0 0 0-.39-.12 7 6 0 0 0-.282-.08 7 6 0 0 0-.38-.081 7 6 0 0 0-.304-.059 7 6 0 0 0-.37-.045 7 6 0 0 0-.329-.035 7 6 0 0 0-.576-.1zm2.115 1.422A6 5 0 0 1 17 9.026a6 2 0 0 1-6 2 6 2 0 0 1-6-2 6 5 0 0 1 3.752-4.633C7.728 5.878 7.191 7.819 7.041 9.525a6 2 0 0 0 3.959.5c.299-2.495 1.193-4.244 2.115-5.673v-.026zM5 10.526a7 3 0 0 0 6 1.462 7 3 0 0 0 6-1.46v6.46a6 1 0 0 1-6 1 6 1 0 0 1-6-1v-6.463z" fill="currentColor" color="#565656"/></svg>