<svg xmlns="http://www.w3.org/2000/svg" width="22" height="22"><defs><style id="current-color-scheme" type="text/css">.ColorScheme-Text{color:#565656}</style></defs><path class="ColorScheme-Text" d="M11 3a8 8 0 0 0-8 8 8 8 0 0 0 8 8 8 8 0 0 0 8-8 8 8 0 0 0-8-8zm0 1a7 7 0 0 1 7 7 7 7 0 0 1-7 7 7 7 0 0 1-7-7 7 7 0 0 1 7-7z" fill="currentColor"/><path class="ColorScheme-Text" d="M3.035 10.264l-.004.07a8 8 0 0 1 .008-.059c0-.004-.003-.007-.004-.011zm.98 1.18A7 7 0 0 0 11 18a7 7 0 0 0 6.977-6.547C16.603 12.378 13.987 13 11 13c-2.997-.001-5.616-.627-6.984-1.557zm14.95.243a8 8 0 0 1-.055.454c.022-.15.042-.3.055-.454zm-15.924.131a8 8 0 0 0 .186 1.034c-.08-.338-.15-.68-.186-1.034zm.186 1.034c.022.093.044.186.07.279a8 8 0 0 1-.07-.28zm.07.279a8 8 0 0 0 .332.982 7.999 7.999 0 0 1-.332-.982zm15.564-.68a8 8 0 0 1-.105.483c.04-.16.075-.32.105-.483zm-.183.783a8 8 0 0 1-.153.46c.055-.152.108-.304.153-.46zm-.26.75a8 8 0 0 1-.209.467c.074-.153.145-.308.209-.467zm-14.787.131c.104.246.219.485.346.717a8 8 0 0 1-.346-.717zm14.463.574a8 8 0 0 1-.24.422c.083-.138.165-.278.24-.422zM4.08 15c.095.164.19.33.297.486A8 8 0 0 1 4.08 15zm13.598.398a8 8 0 0 1-.233.327c.08-.108.159-.215.233-.327zm-13.063.407a8 8 0 0 0 .239.31c-.084-.1-.158-.206-.237-.31h-.002zm12.602.226a8 8 0 0 1-.27.305c.09-.1.184-.2.27-.305zm-12.096.381c.086.093.17.189.26.277a8 8 0 0 1-.26-.277zm11.568.207a8 8 0 0 1-.277.26c.093-.086.189-.17.277-.26zm-11.025.328c.1.09.2.184.305.27a8 8 0 0 1-.305-.27zm10.451.201a8 8 0 0 1-.31.237c.104-.079.21-.153.31-.237zm-9.84.297c.108.08.215.159.327.233a8 8 0 0 1-.327-.233zm9.211.178a8 8 0 0 1-.486.297c.164-.095.33-.19.486-.297zm-8.597.23c.138.084.278.166.422.24a8 8 0 0 1-.422-.24zm.66.356c.153.074.308.145.467.209a8 8 0 0 1-.467-.209zm6.564.162a7.975 7.975 0 0 1-.976.33 8 8 0 0 0 .976-.33zm-.976.33a8 8 0 0 1-.285.074 7.9 7.9 0 0 0 .285-.074zm-.285.074c-.338.08-.681.148-1.034.184a8 8 0 0 0 1.034-.184zm-4.545-.25c.151.055.303.108.459.153a8 8 0 0 1-.46-.153zm.76.23v.003a8 8 0 0 0 .482.103 7.925 7.925 0 0 1-.483-.105zm.792.155c.15.022.3.042.454.055a8 8 0 0 1-.454-.055z" fill="currentColor" opacity=".3"/></svg>