<svg xmlns="http://www.w3.org/2000/svg" width="22" height="22"><defs><style id="current-color-scheme" type="text/css"></style></defs><path d="M3 3v16h16V3H3zm1 1h12.719l-.469.469-.813.812-1.312 1.313L12 4.469 10.469 6 10 6.469l-.844.812L7.47 9H4V4zm14 .125v13.719l-.281-.282-.75-.75-.844-.812-1.281-1.313-.719-.687L12 16.094l-1.313-1.282L9.876 14l-2-2H4v-2h3.875l2-2 .813-.844L12 5.875 14.125 8l2-2 .844-.844L18 4.125zM4 13h3.469l1.687 1.688.844.843.469.469L12 17.531l.531-.531 1.594-1.594 1.313 1.281.5.532.312.312.031.032.438.437H4v-5z" fill="currentColor" color="#565656"/></svg>