<svg xmlns="http://www.w3.org/2000/svg" width="22" height="22"><defs><style id="current-color-scheme" type="text/css"></style></defs><path d="M4 3v14H3v1h1v1h1v-1h14v-1h-.844l-.187-.188-.844-.812-1.281-1.313-.719-.687L13 16.094l-1.313-1.282-.812-.812-2-2H5v-2h3.875l2-2 .813-.844L13 5.875 15.125 8l2-2 .844-.844L19 4.125v-.219h-.219l-.5-.469L17.25 4.47l-.813.812-1.312 1.313L13 4.469 11.469 6 11 6.469l-.844.812L8.47 9H5V3H4zm1 10h3.469l1.687 1.688.844.843.469.469 1 1H5v-4zm10.125 2.406l1.313 1.281.294.313h-3.2l1.593-1.594z" fill="currentColor" color="#565656"/></svg>