<svg xmlns="http://www.w3.org/2000/svg" width="22" height="22" version="1.1" id="svg9"><defs id="defs3"><style id="current-color-scheme" type="text/css"></style></defs><g id="g830" transform="translate(3 -3)" fill="#565656" fill-opacity="1" stroke="none"><path id="rect23" d="M2 7c-.554 0-1 .446-1 1v3c0 .554.446 1 1 1h4.88A3.957 3.957 0 0 1 8 11.822c.391 0 .762.073 1.12.178H14c.554 0 1-.446 1-1V8c0-.554-.446-1-1-1z" display="inline" opacity=".5" stroke-width="1" stroke-linecap="round" stroke-linejoin="miter" stroke-miterlimit="4" stroke-dasharray="none" stroke-opacity="1" paint-order="stroke markers fill"/><path id="path4-3" d="M8 9l-1 2H1c-.554 0-1 .446-1 1v8c0 .554.446 1 1 1h14c.554 0 1-.446 1-1V10c0-.5-.5-1-1-1zm0 2.822a4 4 0 0 1 4 4v.5a1.5 1.5 0 0 1-2.648.965A1.986 1.986 0 0 1 8 17.822a2 2 0 1 1 2-2v.5a.5.5 0 1 0 1 0v-.5a3 3 0 1 0-3 3h2.5s.5 0 .5.5c-.031.5-.5.5-.5.5H8a4 4 0 0 1 0-8zm0 3a1 1 0 1 0 0 2 1 1 0 0 0 0-2z" display="inline"/></g></svg>