<?xml version="1.0" encoding="UTF-8" standalone="no"?>
<svg
   xmlns:dc="http://purl.org/dc/elements/1.1/"
   xmlns:cc="http://creativecommons.org/ns#"
   xmlns:rdf="http://www.w3.org/1999/02/22-rdf-syntax-ns#"
   xmlns:svg="http://www.w3.org/2000/svg"
   xmlns="http://www.w3.org/2000/svg"
   xmlns:sodipodi="http://sodipodi.sourceforge.net/DTD/sodipodi-0.dtd"
   xmlns:inkscape="http://www.inkscape.org/namespaces/inkscape"
   width="22"
   height="22"
   version="1.1"
   id="svg9"
   sodipodi:docname="mail-folder-sent.svg"
   inkscape:version="0.92.4 (5da689c313, 2019-01-14)">
  <metadata
     id="metadata13">
    <rdf:RDF>
      <cc:Work
         rdf:about="">
        <dc:format>image/svg+xml</dc:format>
        <dc:type
           rdf:resource="http://purl.org/dc/dcmitype/StillImage" />
      </cc:Work>
    </rdf:RDF>
  </metadata>
  <sodipodi:namedview
     pagecolor="#ffffff"
     bordercolor="#666666"
     borderopacity="1"
     objecttolerance="10"
     gridtolerance="10"
     guidetolerance="10"
     inkscape:pageopacity="0"
     inkscape:pageshadow="2"
     inkscape:window-width="1366"
     inkscape:window-height="710"
     id="namedview11"
     showgrid="false"
     inkscape:zoom="10.727273"
     inkscape:cx="11"
     inkscape:cy="11"
     inkscape:window-x="0"
     inkscape:window-y="28"
     inkscape:window-maximized="1"
     inkscape:current-layer="svg9" />
  <defs
     id="defs3">
    <style
       id="current-color-scheme"
       type="text/css">
   .ColorScheme-Text { color:#565656; } .ColorScheme-Highlight { color:#5294e2; }
  </style>
  </defs>
  <g
     id="g830"
     transform="translate(3,-3)">
    <path
       id="rect23"
       d="M 2,7 C 1.446,7 1,7.446 1,8 v 3 c 0,0.554 0.446,1 1,1 H 6.8808594 C 7.2382032,11.895298 7.6088052,11.822266 8,11.822266 c 0.3911771,0 0.7618036,0.07303 1.1191406,0.177734 H 14 c 0.554,0 1,-0.446 1,-1 V 8 C 15,7.446 14.554,7 14,7 Z"
       style="display:inline;opacity:0.5;fill:#565656;fill-opacity:1;stroke:none;stroke-width:1;stroke-linecap:round;stroke-linejoin:miter;stroke-miterlimit:4;stroke-dasharray:none;stroke-opacity:1;paint-order:stroke markers fill;enable-background:new"
       inkscape:connector-curvature="0" />
    <path
       id="path4-3"
       d="M 8,9 7,11 H 1 c -0.554,0 -1,0.446 -1,1 v 8 c 0,0.554 0.446,1 1,1 h 14 c 0.554,0 1,-0.446 1,-1 V 14 12 10 C 16,9.5 15.5,9 15,9 Z m 0,2.822266 c 2.209,0 4,1.791 4,4 v 0.5 c 0,0.829 -0.672,1.5 -1.5,1.5 -0.443,0 -0.8633375,-0.196157 -1.1484375,-0.535157 C 8.9951625,17.616109 8.5231,17.822266 8,17.822266 c -1.1046,0 -2,-0.895 -2,-2 0,-1.1044 0.8954,-2 2,-2 1.1046,0 2,0.8956 2,2 v 0.5 c 0,0.2763 0.224,0.5 0.5,0.5 0.276,0 0.5,-0.2237 0.5,-0.5 v -0.5 c 0,-1.6568 -1.3431,-3 -3,-3 -1.6569,0 -3,1.3432 -3,3 0,1.657 1.3431,3 3,3 h 2.5 c 0,0 0.5,0 0.5,0.5 -0.031,0.5 -0.5,0.5 -0.5,0.5 H 8 c -2.2091,0 -4,-1.791 -4,-4 0,-2.209 1.7909,-4 4,-4 z m 0,3 c -0.5523,0 -1,0.4479 -1,1 0,0.5524 0.4477,1 1,1 0.5523,0 1,-0.4476 1,-1 0,-0.5521 -0.4477,-1 -1,-1 z"
       style="display:inline;fill:#565656;fill-opacity:1;stroke:none;enable-background:new"
       inkscape:connector-curvature="0" />
  </g>
</svg>
