<svg xmlns="http://www.w3.org/2000/svg" width="22" height="22"><defs><style id="current-color-scheme" type="text/css"></style></defs><path d="M3 3v16h16V3H3zm1 1h4v4.707A7 3 0 0 1 4 6V4zm5 0h4v4.873A7 3 0 0 1 11 9a7 3 0 0 1-2-.127V4zm5 0h4v2a7 3 0 0 1-4 2.707V4zM4 7.928a8 4 0 0 0 4 1.777v2.59a8 4 0 0 0-4 1.777V7.928zm14 .008v6.128a8 4 0 0 0-4-1.77V9.706a8 4 0 0 0 4-1.77zM9 9.867A8 4 0 0 0 11 10a8 4 0 0 0 2-.13v2.26a8 4 0 0 0-2-.13 8 4 0 0 0-2 .133V9.867zM11 13a7 3 0 0 1 2 .127V18H9v-4.873A7 3 0 0 1 11 13zm-3 .293V18H4v-2a7 3 0 0 1 4-2.707zm6 0A7 3 0 0 1 18 16v2h-4v-4.707z" fill="currentColor" color="#565656"/></svg>