<svg width="22" height="22" version="1.1" xmlns="http://www.w3.org/2000/svg">
 <defs>
  <style id="current-color-scheme" type="text/css">.ColorScheme-Text { color:#565656; } .ColorScheme-Highlight { color:#4285f4; }</style>
 </defs>
 <path class="ColorScheme-Text" d="m10.99 2.0001c-4.9667 0.0054099-8.9901 4.0332-8.9901 8.9999 0 4.9705 4.0294 8.9999 8.9999 8.9999 4.9705 0 8.9999-4.0294 8.9999-8.9999 0-4.9705-4.0294-8.9999-8.9999-8.9999zm-0.08594 2h2e-3c0.03124-2.091e-4 0.06247-2.091e-4 0.09371 0 3.8659 0 6.9999 3.134 6.9999 6.9999 0 3.8659-3.134 6.9999-6.9999 6.9999-3.8659 0-6.9999-3.134-6.9999-6.9999-3.58e-4 -3.8289 3.0757-6.9475 6.9042-6.9999z" fill="currentColor" opacity=".45"/>
 <path class="ColorScheme-Text" d="m8.9998 8c-0.55399 0-0.99998 0.44599-0.99998 0.99998v3.9999c0 0.55399 0.44599 0.99998 0.99998 0.99998h3.9999c0.55399 0 0.99998-0.44599 0.99998-0.99998v-3.9999c0-0.55399-0.44599-0.99998-0.99998-0.99998z" fill="currentColor"/>
</svg>
