<svg xmlns="http://www.w3.org/2000/svg" width="22" height="22"><defs><style id="current-color-scheme" type="text/css"></style></defs><path d="M8 5v2H5.932C4.862 7 4 7.94 4 9.105v5.79C4 16.06 4.862 17 5.932 17h10.136c1.07 0 1.932-.94 1.932-2.105v-5.79C18 7.94 17.138 7 16.068 7H14v2h1.998c-.002.009.002.026.002.105v5.79c0 .079-.004.096-.002.105H6.004c0-.009-.004-.026-.004-.105v-5.79c0-.079.005-.096.004-.105H8v2l4-3-4-3zm4 5v4h1v-1h1v1h1v-4h-3zm1 1h1v1h-1v-1z" fill="currentColor" color="#565656"/></svg>