<svg xmlns="http://www.w3.org/2000/svg" width="22" height="22"><defs><style id="current-color-scheme" type="text/css"></style></defs><path d="M3 4v14c3.474-.001 6.948 0 10.422.002l-.129-.129a1 1 0 0 1 0-1.414l.459-.459H4v-1h9.752l-.459-.459a1 1 0 0 1 0-1.414L13.42 13H12v-1h6v.016a1 1 0 0 1 .873.277l.127.127V4.004C13.667 4.006 8.333 3.998 3 4zm6 2v6.996L4 13V6.004L9 6zm3 0h6v1h-6V6zm0 3h6v1h-6V9zm2.834 4l-.834.834 1.666 1.666L14 17.166l.834.834 1.666-1.666L18.166 18l.834-.834-1.666-1.666L19 13.834 18.166 13 16.5 14.666 14.834 13z" fill="currentColor" color="#565656"/></svg>