<svg xmlns="http://www.w3.org/2000/svg" width="22" height="22"><defs><style id="current-color-scheme" type="text/css"></style></defs><path d="M18.42 5a.498.502 0 0 0-.48.588c.217 1.6-.144 3.87-1.256 5.676-.573.93-1.335 1.74-2.319 2.31a3.488 3.512 0 0 0-3.367-2.6 3.488 3.512 0 0 0-3.375 2.647c-1.017-.572-1.795-1.396-2.371-2.351-1.088-1.805-1.418-4.074-1.176-5.674a.498.502 0 0 0-.523-.584.498.502 0 0 0-.461.433c-.283 1.865.077 4.305 1.306 6.344a7.472 7.472 0 0 0 3.12 2.883A3.488 3.512 0 0 0 10.998 18a3.488 3.512 0 0 0 3.482-3.377 7.621 7.621 0 0 0 3.051-2.83c1.255-2.037 1.65-4.476 1.397-6.34A.498.502 0 0 0 18.42 5z" fill="currentColor" color="#565656"/></svg>