<svg xmlns="http://www.w3.org/2000/svg" width="22" height="22"><defs><style id="current-color-scheme" type="text/css"></style></defs><path d="M15.037 4.207c-.095 0-.156.012-.156.012l-9.844 1.75c-.985.173-.812 1.156-.812 1.156l.5 2.875h12.187l-.875-4.969c-.13-.738-.715-.826-1-.824zM4 11v1h1v-1H4zm2 0v1h1v-1H6zm2 0v1h1v-1H8zm2 0v1h1v-1h-1zm2 0v1h1v-1h-1zm2 0v1h1v-1h-1zm2 0v1h1v-1h-1zm2 0v1h1v-1h-1zM5.25 13l.719 3.969c.173.985 1.156.812 1.156.812l9.844-1.75s.986-.171.812-1.156L17.441 13H5.25z" fill="currentColor" color="#565656"/></svg>