<svg xmlns="http://www.w3.org/2000/svg" width="22" height="22"><defs><style id="current-color-scheme" type="text/css"></style></defs><path d="M11 5a6 6 0 0 0-.867.07 6 6 0 0 0-.559.11 6 6 0 0 0-.1.021l-.076.022a6 6 0 0 0-.396.127 6 6 0 0 0-.145.048 2.577 2.577 0 0 0-.1.041 6 6 0 0 0-.28.125 6 6 0 0 0-.182.082l-.07.04a6 6 0 0 0-.29.164 6 6 0 0 0-.177.101 6 6 0 0 0-.076.055 6 6 0 0 0-.243.172 6 6 0 0 0-.17.123 6 6 0 0 0-.062.054 6 6 0 0 0-.262.233c-.05.045-.103.089-.152.137a6 6 0 0 0-.033.035 6 6 0 0 0-.283.31c-.036.04-.074.078-.108.12a6 6 0 0 0-.012.015A6 6 0 0 0 5 11a6 6 0 0 0 6 6 6 6 0 0 0 6-6 6 6 0 0 0-.441-2.242A6 6 0 0 0 11 5zm0 1a5 5 0 0 1 2.646.766l-1.587 2.54c.52.326.87.882.923 1.528l2.998-.25A5 5 0 0 1 16 11a5 5 0 0 1-5 5v-3a1.994 1.994 0 0 1-1.416-.584l-2.117 2.117A5 5 0 0 1 6 11a5 5 0 0 1 1.1-3.121l2.343 1.875A1.988 1.988 0 0 1 11 9V6zm-3.436 8.625c.182.172.373.333.579.477a5 5 0 0 1-.579-.477zm.735.576c.214.137.437.261.672.365a5 5 0 0 1-.672-.365zm.83.432c.265.106.539.193.824.254a5 5 0 0 1-.824-.254z" fill="currentColor" color="#565656"/></svg>