<svg xmlns="http://www.w3.org/2000/svg" width="22" height="22"><defs><style id="current-color-scheme" type="text/css"></style></defs><path d="M5 5v2.992H4V8h1v9h12v-1H6v-1h3v-.008l.008.008 2-2H12.6l2 2H17v-1h-1.986l-2-2h-2.42l-2 2H6v-2h1.875l2-2H8.461l-1 1H6V8h1v-.008H6V5H5zm2 0v1h1v3h1V5H7zm4.5 0c-.831 0-1.5.669-1.5 1.5v1c0 .831.669 1.5 1.5 1.5S13 8.331 13 7.5v-1c0-.831-.669-1.5-1.5-1.5zm4 0c-.831 0-1.5.669-1.5 1.5v1c0 .831.669 1.5 1.5 1.5S17 8.331 17 7.5v-1c0-.831-.669-1.5-1.5-1.5zm-4 1c.277 0 .5.223.5.5v1a.499.499 0 1 1-1 0v-1c0-.277.223-.5.5-.5zm4 0c.277 0 .5.223.5.5v1a.499.499 0 1 1-1 0v-1c0-.277.223-.5.5-.5z" fill="currentColor" color="#565656"/></svg>