<svg xmlns="http://www.w3.org/2000/svg" width="22" height="22"><defs><style id="current-color-scheme" type="text/css">.ColorScheme-Text{color:#565656}</style></defs><path class="ColorScheme-Text" d="M5 5v2.996h-.992v.01H5V17h12v-1H6V8.006h4.469l-3 3H6.008v1h1.875l4.123-4.123 2.123 2.123.006-.004.004.004 2.828-2.828c.003.005-.707-.707-.707-.707l-2.125 2.125-2.127-2.125-.002.002-.002-.002-1.527 1.525H6V5H5zm5.6 7l-2 2H6.006v1h3v-.008l.008.008 2-2h1.591l2 2h2.4v-1H15.02l-2-2H10.6z" fill="currentColor"/><path class="ColorScheme-Text" d="M16.46 6.67l-2.32 2.331-.004-.004-.006.004-2.123-2.123-4.123 4.123H6.009v5h11V7.223z" fill="currentColor" opacity=".5"/></svg>