<svg xmlns="http://www.w3.org/2000/svg" width="22" height="22"><defs><style id="current-color-scheme" type="text/css"></style></defs><path d="M17.5 4a1.5 1.5 0 0 0-1.44 1.084C10.73 6.186 6.018 9.742 5.067 16.066A1.5 1.5 0 0 0 4 17.5 1.5 1.5 0 0 0 5.5 19 1.5 1.5 0 0 0 7 17.5a1.5 1.5 0 0 0-.93-1.387c.91-5.788 5.113-8.96 10.055-10.02A1.5 1.5 0 0 0 17.5 7 1.5 1.5 0 0 0 19 5.5 1.5 1.5 0 0 0 17.5 4zM12 10v9l3.5-2.25 2.5-1.607V19h1v-9h-1v3.857l-2.5-1.607L12 10z" fill="currentColor" color="#565656"/></svg>