<svg xmlns="http://www.w3.org/2000/svg" width="22" height="22"><defs><style id="current-color-scheme" type="text/css"></style></defs><path d="M17.502 3.947c-.682 0-1.25.458-1.432 1.082-5.326 1.1-10.036 4.658-10.984 10.989a1.497 1.497 0 1 0 1.932 1.43c0-.627-.384-1.163-.928-1.387.373-2.376 1.299-4.31 2.603-5.838 1.4 1.425 2.284 2.925 2.504 4.136.225 1.236-.089 2.285-.984 3.182l.705.707c1.101-1.103 1.537-2.554 1.262-4.068-.27-1.489-1.308-3.156-2.813-4.684.171-.168.353-.324.533-.48 1.47 1.41 2.959 2.287 4.393 2.548 1.512.276 2.959-.16 4.06-1.263l-.705-.707c-.895.897-1.943 1.21-3.177.986-1.141-.208-2.445-.941-3.78-2.193 1.583-1.146 3.448-1.92 5.436-2.346A1.497 1.497 0 0 0 19 5.447a1.5 1.5 0 0 0-1.498-1.5z" fill="currentColor" color="#565656"/></svg>