<svg xmlns="http://www.w3.org/2000/svg" width="22" height="22"><defs><style id="current-color-scheme" type="text/css">.ColorScheme-Text{color:#565656}</style></defs><path class="ColorScheme-Text" d="M17.502 3.947a1.5 1.5 0 1 0 .002 2.999 1.5 1.5 0 0 0-.002-2.999zm-6.81 4.44c-.274.198-.538.406-.794.627 1.47 1.41 2.96 2.29 4.395 2.55 1.512.276 2.96-.16 4.06-1.263l-.705-.707c-.895.897-1.941 1.21-3.175.986-1.141-.208-2.447-.941-3.782-2.193zM9.364 9.494c-.235.23-.456.476-.672.729 1.4 1.425 2.284 2.924 2.504 4.136.225 1.236-.089 2.285-.984 3.182l.705.707c1.101-1.103 1.536-2.554 1.262-4.068-.27-1.49-1.31-3.157-2.815-4.686zM5.52 15.947a1.5 1.5 0 1 0 .002 2.999 1.5 1.5 0 0 0-.002-2.999z" fill="currentColor"/><path class="ColorScheme-Text" d="M16.07 5.03C10.743 6.13 6.033 9.686 5.086 16.017c.138-.043.281-.073.434-.073.201 0 .394.041.57.114.429-2.732 1.588-4.881 3.215-6.5.02-.022.039-.046.06-.067l.002.002c1.813-1.774 4.186-2.9 6.76-3.453a1.505 1.505 0 0 1-.123-.594c0-.146.027-.284.066-.418z" fill="currentColor" opacity=".3"/></svg>