<svg xmlns="http://www.w3.org/2000/svg" width="22" height="22"><defs><style id="current-color-scheme" type="text/css"></style></defs><path d="M9.5 4C8.698 4 8 4.647 8 5.45V7H4.965C4.43 7 4 7.326 4 7.861V11h1.45c.802 0 1.55.698 1.55 1.5S6.252 14 5.45 14H4v3.033c0 .535.43.967.965.967H8v-.967c0-.802.018-1.992 1.5-2.033 1.482-.041 1.5 1.291 1.5 2.033V18h3.139c.535 0 .861-.432.861-.967V14h1.553c.802 0 1.447-.698 1.447-1.5s-.654-1.377-1.447-1.5H15V7.861c0-.535-.326-.861-.861-.861H11V5.45C11 4.646 10.302 4 9.5 4z" fill="currentColor" color="#565656"/></svg>