<svg xmlns="http://www.w3.org/2000/svg" width="22" height="22"><defs><style id="current-color-scheme" type="text/css"></style></defs><path d="M9.234 4l-.156 1.844a5.55 5.5 0 0 0-1.621.93l-1.691-.79L4 9.016l1.535 1.056a5.55 5.5 0 0 0-.084.928 5.55 5.5 0 0 0 .08.932L4 12.984l1.766 3.032 1.687-.787a5.55 5.5 0 0 0 1.625.923L9.234 18h3.532l.156-1.844a5.55 5.5 0 0 0 1.621-.93l1.691.79L18 12.984l-1.535-1.056a5.55 5.5 0 0 0 .084-.928 5.55 5.5 0 0 0-.08-.932L18 9.016l-1.766-3.032-1.687.787a5.55 5.5 0 0 0-1.625-.923L12.766 4H9.234zM12 8l-.7 2.1 2.7.9-4 3 .7-2.1L8 11l4-3z" fill="currentColor" color="#565656"/></svg>