<svg xmlns="http://www.w3.org/2000/svg" width="22" height="22"><defs><style id="current-color-scheme" type="text/css"></style></defs><path d="M11 3c-.486 1.702-1.663 3.172-2.188 4.344-.183.348-.312.733-.312 1.156C8.5 9.885 9.615 11 11 11s2.5-1.115 2.5-2.5c0-.423-.098-.808-.281-1.156C12.694 6.172 11.487 4.703 11 3zm-4.5 8c-.486 1.703-1.663 3.172-2.188 4.344C4.13 15.692 4 16.077 4 16.5 4 17.885 5.115 19 6.5 19S9 17.885 9 16.5c0-.423-.098-.808-.281-1.156C8.194 14.172 6.987 12.703 6.5 11zm9 0c-.486 1.703-1.663 3.172-2.188 4.344-.183.348-.312.733-.312 1.156 0 1.385 1.115 2.5 2.5 2.5s2.5-1.115 2.5-2.5c0-.423-.098-.808-.281-1.156-.525-1.172-1.733-2.641-2.219-4.344z" fill="currentColor" color="#565656"/></svg>