<svg xmlns="http://www.w3.org/2000/svg" width="22" height="22"><defs><style id="current-color-scheme" type="text/css"></style></defs><path d="M10 4v1.086a6 6 0 0 0-2.47 1.03l-.772-.772-1.414 1.414.77.77A6 6 0 0 0 5.09 10H4v2h1.086a6 6 0 0 0 1.03 2.47l-.772.772 1.414 1.414.77-.77A6 6 0 0 0 10 16.91V18h2v-1.086a6 6 0 0 0 2.47-1.03l.772.772 1.414-1.414-.77-.77A6 6 0 0 0 16.91 12H18v-2h-1.086a6 6 0 0 0-1.03-2.47l.772-.772-1.414-1.414-.77.77A6 6 0 0 0 12 5.09V4h-2zm0 3.336h2v3.5l.414-.414 1.414 1.414-1.414 1.414L11 14.664 9.586 13.25l-1.414-1.414 1.414-1.414.414.414v-3.5z" fill="currentColor" color="#565656"/></svg>