<svg xmlns="http://www.w3.org/2000/svg" width="22" height="22"><defs><style id="current-color-scheme" type="text/css"></style></defs><path d="M15.613 3.205a.5.5 0 0 0-.47.574l.283 2.086-1.037 1.037-.303-2.23a.5.5 0 0 0-.522-.44.5.5 0 0 0-.468.575L13.5 7.79 11.791 9.5H9.5v1.406l-1.23.352-.26-1.922a.5.5 0 0 0-.522-.44.5.5 0 0 0-.47.573l.28 2.066-1.687.483-.24-1.766a.5.5 0 0 0-.521-.44.5.5 0 0 0-.471.575l.26 1.91-.776.22a.5.5 0 1 0 .274.962l.636-.182.387 2.834-1.514 1.514a.5.5 0 1 0 .708.707l.974-.975.098.713a.5.5 0 1 0 .99-.133l-.2-1.469 1.546-1.545.302 2.23a.5.5 0 1 0 .99-.134l-.404-2.984 1.555-1.555H12.5v-1.41l1.395-.399.246 1.819a.5.5 0 0 0 .992-.133l-.268-1.963L16 10.09l.19 1.394a.5.5 0 1 0 .99-.134l-.21-1.537 1.167-.334a.5.5 0 0 0-.14-.983.5.5 0 0 0-.134.022l-1.027.293-.352-2.59 1.87-1.87a.5.5 0 0 0-.364-.857.5.5 0 0 0-.344.15l-1.332 1.333-.18-1.332a.5.5 0 0 0-.52-.44zm-.017 3.904l.267 1.98-1.133.323-.171-1.266 1.037-1.037zM13.67 9.035l.088.656-1.041.297.953-.953zm-4.387 2.973l-.803.803-.074-.553.877-.25zm-1.85.53l.159 1.161-1.543 1.543-.303-2.224 1.688-.48z" fill="currentColor" color="#565656"/></svg>