<svg xmlns="http://www.w3.org/2000/svg" width="22" height="22"><defs><style id="current-color-scheme" type="text/css"></style></defs><path d="M6.5 4A2.5 2.5 0 0 0 6 8.95v4.003a2.5 2.5 0 1 0 1-.002V8.945a2.5 2.5 0 0 0 1.066-.496l1.213.908A2.5 2.5 0 0 0 9 10.5a2.5 2.5 0 0 0 2.5 2.5 2.48 2.48 0 0 0 1.5-.512V15h-2l3.281 2.812.219.188.219-.188L18 15h-2v-3h-2.512A2.48 2.48 0 0 0 14 10.5 2.5 2.5 0 0 0 11.5 8a2.5 2.5 0 0 0-1.615.596L8.69 7.703A2.5 2.5 0 0 0 6.5 4z" fill="currentColor" color="#565656"/></svg>