<svg width="22" height="22" version="1.1" xmlns="http://www.w3.org/2000/svg">
 <defs>
  <style id="current-color-scheme" type="text/css">.ColorScheme-Text { color:#565656; } .ColorScheme-Highlight { color:#4285f4; }</style>
 </defs>
 <g id="22-22-system-suspend" transform="translate(32,-7)">
  <rect x="-32" y="7" width="22" height="22" rx="0" ry="0" fill="none" style="paint-order:stroke fill markers"/>
  <path class="ColorScheme-Text" d="m-21 11a1 1 0 0 0-1 1 1 1 0 0 0 1 1h5.5859l-6.293 6.293a1.0001 1.0001 0 0 0 0.70703 1.707h8a1 1 0 0 0 1-1 1 1 0 0 0-1-1h-5.5859l6.293-6.293a1.0001 1.0001 0 0 0-0.70703-1.707z" fill="currentColor"/>
  <path class="ColorScheme-Text" d="m-29 18a1 1 0 0 0-1 1 1 1 0 0 0 1 1h2.5859l-3.293 3.293a1.0001 1.0001 0 0 0 0.70703 1.707h5a1 1 0 0 0 1-1 1 1 0 0 0-1-1h-2.5859l3.293-3.293a1.0001 1.0001 0 0 0-0.70703-1.707z" fill="currentColor" opacity=".45"/>
 </g>
</svg>
