<svg width="22" height="22" version="1.1" xmlns="http://www.w3.org/2000/svg">
 <defs>
  <style id="current-color-scheme" type="text/css">.ColorScheme-Text { color:#565656; } .ColorScheme-Highlight { color:#5294e2; }</style>
 </defs>
 <g id="22-22-system-suspend-hibernate" transform="translate(-32,-68)">
  <rect x="32" y="68" width="22" height="22" rx="0" ry="0" fill="none" style="paint-order:stroke fill markers"/>
  <path class="ColorScheme-Text" d="m43 70a9 9 0 0 0-9 9 9 9 0 0 0 9 9 9 9 0 0 0 9-9 9 9 0 0 0-9-9zm0 2a7 7 0 0 1 7 7 7 7 0 0 1-7 7 7 7 0 0 1-7-7 7 7 0 0 1 7-7z" fill="currentColor"/>
  <rect class="ColorScheme-Text" x="39" y="78" width="8" height="2" rx="1" ry="1" fill="currentColor" opacity=".45"/>
 </g>
</svg>
