<svg width="22" height="22" version="1.1" xmlns="http://www.w3.org/2000/svg">
 <defs>
  <style id="current-color-scheme" type="text/css">.ColorScheme-Text { color:#565656; } .ColorScheme-Highlight { color:#5294e2; }</style>
 </defs>
 <path class="ColorScheme-Text" d="m11 2c-2.77 0-5 2.23-5 5v1h2v-1c0-1.662 1.338-3 3-3s3 1.338 3 3v1h2v-1c0-2.77-2.23-5-5-5zm0 9c-0.554 0-1 0.446-1 1v3c0 0.554 0.446 1 1 1s1-0.446 1-1v-3c0-0.554-0.446-1-1-1z" fill="currentColor" opacity=".45"/>
 <path class="ColorScheme-Text" d="m7 7c-2.216 0-4 1.784-4 4v5c0 2.216 1.784 4 4 4h8c2.216 0 4-1.784 4-4v-5c0-2.216-1.784-4-4-4zm0 2h8c1.108 0 2 0.892 2 2v5c0 1.108-0.892 2-2 2h-8c-1.108 0-2-0.892-2-2v-5c0-1.108 0.892-2 2-2z" fill="currentColor"/>
</svg>
