<svg xmlns="http://www.w3.org/2000/svg" width="22" height="22"><defs><style id="current-color-scheme" type="text/css"></style></defs><path d="M4 4v5h2.5A1.5 1.5 0 0 0 8 7.5c0-.533-.268-1.015-.688-1.281.116-.213.188-.46.188-.719A1.5 1.5 0 0 0 6 4H4zm10 0v5h2.5A1.5 1.5 0 0 0 18 7.5v-2A1.5 1.5 0 0 0 16.5 4H14zM5 5h1a.5.5 0 0 1 0 1H5V5zm10 0h1.5a.5.5 0 0 1 .5.5v2a.5.5 0 0 1-.5.5H15V5zM9 6v1h3V6H9zM5 7h1.5a.5.5 0 0 1 0 1H5V7zm-1 4v2h4v-2H4zm6 0v2h2v-2h-2zm4 0v2h4v-2h-4zm-5 4l-4 1.5L9 18v-3zm4 0v3l4-1.5-4-1.5zm-2 1a.5.5 0 1 0 0 1 .5.5 0 0 0 0-1z" fill="currentColor" color="#565656"/></svg>