<svg width="22" height="22" version="1.1" xmlns="http://www.w3.org/2000/svg">
 <defs>
  <style id="current-color-scheme" type="text/css">.ColorScheme-Text { color:#565656; } .ColorScheme-Highlight { color:#5294e2; }</style>
 </defs>
 <path class="ColorScheme-Text" d="m12.035 1.8335c-0.15235 0.00276-0.30241 0.049775-0.43098 0.13671-0.17142 0.11592-0.28677 0.30004-0.32291 0.49738-0.03742 0.19425 9e-3 0.3906 0.125 0.54947 0.11602 0.15887 0.28881 0.26092 0.48957 0.29036l0.46875 0.072265 0.58332 1.5657c0.14764 0.39321 0.58716 0.60707 0.97916 0.47656 0.392-0.13051 0.58512-0.56056 0.4375-0.95377l-0.90624-2.4154-1.2709-0.20702c-0.05062-9e-3 -0.10156-0.013289-0.15234-0.012375zm-2.2494 0.2539c-0.23695 0.020541-0.45989 0.15886-0.58463 0.38997l-1.53 2.834c-0.1001 0.17881-0.12596 0.39209-0.071613 0.59113 0.054341 0.19905 0.18429 0.36725 0.36002 0.46549 0.17237 0.09844 0.3751 0.12127 0.5638 0.063801 0.1887-0.057472 0.34745-0.19044 0.44075-0.36979l1.53-2.8346c0.1996-0.36979 0.071955-0.83775-0.28515-1.0449-0.13391-0.07769-0.28101-0.10738-0.42317-0.095051zm7.8971 1.6412c-0.04895-0.00233-0.0983 4.033e-4 -0.14714 0.00846-0.19534 0.032246-0.36722 0.1466-0.47656 0.3164-0.10922 0.1663-0.14869 0.37361-0.11002 0.57551 0.03866 0.2019 0.1521 0.38139 0.31575 0.49935l2.582 1.9219c0.3368 0.25068 0.79535 0.17488 1.0247-0.16927 0.22937-0.34414 0.14279-0.8268-0.19401-1.0775l-2.582-1.9212c-0.12191-0.09369-0.26591-0.14669-0.41276-0.15365zm-1.7155 1.1348c-0.1462 0.011312-0.28885 0.066808-0.4082 0.16081l-2.5651 1.9584c-0.33469 0.25544-0.4112 0.73405-0.17122 1.069 0.23997 0.33495 0.70567 0.39932 1.0404 0.14387l2.5651-1.9584c0.16511-0.12206 0.27722-0.30542 0.3099-0.50911 0.03267-0.20369-0.01644-0.41015-0.13606-0.57161-0.11648-0.16025-0.29252-0.26425-0.48827-0.28906-0.04894-0.0062-0.09775-0.00767-0.14649-0.00391zm-9.8235 0.67057-3.2194 0.29687c-0.20506 0.01575-0.39781 0.11252-0.5345 0.26757-0.13669 0.15505-0.20556 0.35526-0.19075 0.55533 0.012787 0.19737 0.10607 0.37846 0.25846 0.50325 0.15239 0.12479 0.35162 0.18314 0.55338 0.16146l3.2187-0.29687c0.41997-0.038714 0.74123-0.40309 0.71745-0.8138-0.023786-0.4107-0.38341-0.71253-0.80338-0.67382zm13.371 1.8125c-0.20614 0.012337-0.39992 0.10159-0.53841 0.24805l-2.2447 2.3021c-0.29287 0.30037-0.2765 0.76341 0.03711 1.0338 0.3136 0.27044 0.80542 0.24634 1.0983-0.05404l2.2447-2.3027c0.14527-0.14447 0.2233-0.33691 0.21615-0.53385-0.007125-0.19694-0.098675-0.38142-0.2539-0.51106-0.15175-0.12909-0.3531-0.19462-0.55923-0.18229zm-17.759 0.14909c-0.04997-0.00196-0.10002 9.334e-4 -0.14974 0.00911-0.19635 0.03054-0.36939 0.1391-0.48046 0.30144-0.11108 0.16234-0.15129 0.36514-0.11133 0.56315l0.58853 3.1634c0.076748 0.41276 0.47009 0.69811 0.8789 0.63736 0.40881-0.06075 0.67831-0.44466 0.60156-0.85741l-0.58853-3.1634c-0.03432-0.20182-0.14822-0.38441-0.31575-0.50586-0.12564-0.091083-0.27326-0.14185-0.42317-0.14779zm4.483 2.5611-2.2291 1.0364c-0.382 0.17794-0.55792 0.62742-0.39584 1.0058 0.1621 0.37844 0.59716 0.54057 0.97916 0.36262l1.0417-0.48762 0.30209 0.49805c0.10189 0.17781 0.2695 0.30584 0.46875 0.36262 0.19924 0.05679 0.40789 0.03693 0.58332-0.06185 0.17386-0.0958 0.29545-0.25552 0.34375-0.44596 0.048296-0.19042 0.022534-0.398-0.083332-0.57031zm10.176 1.7656c-0.05057 0.0029-0.1016 0.01037-0.15169 0.02279-0.20037 0.04976-0.37392 0.1732-0.48307 0.34245l-1.7825 2.6731c-0.23255 0.34875-0.13091 0.80052 0.22721 1.0091 0.35812 0.20859 0.83711 0.09485 1.0696-0.2539l1.7825-2.6731c0.11619-0.16855 0.15726-0.37216 0.11394-0.56445-0.04332-0.19229-0.16791-0.35662-0.3444-0.45572-0.12972-0.07439-0.27994-0.10879-0.43164-0.10026zm-8.6333 1.36c-0.097995-6.67e-4 -0.19749 0.01729-0.29296 0.05664-0.38191 0.15737-0.5498 0.59258-0.375 0.9746l0.71875 1.5859-0.33334 0.48762c-0.11856 0.16726-0.15786 0.37706-0.125 0.58072 0.032866 0.20366 0.13777 0.38119 0.30209 0.4974 0.16094 0.11605 0.35832 0.16162 0.55207 0.12435 0.13852-0.02665 0.24104-0.13042 0.34375-0.22786l0.97916-1.3066-1.0625-2.3119c-0.1311-0.28651-0.41305-0.45888-0.70702-0.46094zm5.4492 3.0852c-0.0973 0.0085-0.19516 0.0363-0.28841 0.08529l-2.8587 1.5026c-0.18334 0.09277-0.32474 0.25516-0.39127 0.45052-0.066536 0.19535-0.052965 0.4068 0.03776 0.58594 0.087822 0.17742 0.24349 0.3094 0.43229 0.36654 0.1888 0.05712 0.39556 0.03449 0.57356-0.0625l2.8587-1.502c0.37299-0.19595 0.52974-0.65512 0.34961-1.0254-0.1351-0.2777-0.42162-0.42661-0.71353-0.40104zm-5.0742 1.9024c-0.050313-0.0023-0.10221 3.34e-4 -0.1543 0.0085l-3.194 0.49805c-0.20366 0.02859-0.38969 0.1368-0.51627 0.30012-0.12659 0.16332-0.1824 0.36766-0.15495 0.5664 0.025266 0.19619 0.12907 0.37135 0.28906 0.48632 0.15999 0.11498 0.36251 0.1606 0.5625 0.1263l3.194-0.49805c0.41669-0.06499 0.71447-0.44902 0.66471-0.85741-0.04354-0.35735-0.33855-0.61487-0.69075-0.6302z" fill="currentColor" stroke-width="1.25"/>
</svg>
