<svg xmlns="http://www.w3.org/2000/svg" width="22" height="22"><defs><style id="current-color-scheme" type="text/css"></style></defs><path d="M14 3v1.555c-.363.021-.723.04-1.115.078-1.28.123-2.662.329-3.885.73V5H5v4h.127c-.57 1.354-.92 2.931-1.162 4.39-.036.214-.056.403-.086.61H3v4h1l.5.012V18H7v-4H4.889c.023-.154.036-.291.062-.447.26-1.57.698-3.257 1.305-4.553H9V6.45c1.163-.425 2.628-.693 3.98-.823.358-.034.686-.052 1.02-.072V7h4V3h-4zm-4 6l4.8 9 3.2-3.375L10 9z" fill="currentColor" color="#565656"/></svg>