<svg xmlns="http://www.w3.org/2000/svg" width="22" height="22"><defs><style id="current-color-scheme" type="text/css"></style></defs><path d="M11.81 4.068A2 2 0 0 0 9.85 5.74a2 2 0 0 0 1.644 2.301 2 2 0 0 0 2.3-1.646 2 2 0 0 0-1.644-2.301 2 2 0 0 0-.34-.026zM7.587 5.414a1 1 0 0 0-1 1 1 1 0 0 0 1 1 1 1 0 0 0 1-1 1 1 0 0 0-1-1zm8.318.973a1 1 0 0 0-1 1 1 1 0 0 0 1 1 1 1 0 0 0 1-1 1 1 0 0 0-1-1zM6.06 8.182a2 2 0 0 0-1.961 1.672 2 2 0 0 0 1.646 2.3 2 2 0 0 0 2.3-1.644 2 2 0 0 0-1.646-2.301 2 2 0 0 0-.34-.027zm5.185 1.425a1 1 0 0 0-1 1 1 1 0 0 0 1 1 1 1 0 0 0 1-1 1 1 0 0 0-1-1zm4.68.211a2 2 0 0 0-1.961 1.672 2 2 0 0 0 1.644 2.301 2 2 0 0 0 2.303-1.645 2 2 0 0 0-1.646-2.3 2 2 0 0 0-.34-.028zM5.996 13.4a1 1 0 0 0-1 1 1 1 0 0 0 1 1 1 1 0 0 0 1-1 1 1 0 0 0-1-1zm4.176.532a2 2 0 0 0-1.96 1.673 2 2 0 0 0 1.645 2.301 2 2 0 0 0 2.301-1.646 2 2 0 0 0-1.644-2.301 2 2 0 0 0-.342-.027zM14.762 15a1 1 0 0 0-1 1 1 1 0 0 0 1 1 1 1 0 0 0 1-1 1 1 0 0 0-1-1z" fill="currentColor" color="#565656"/></svg>