<svg xmlns="http://www.w3.org/2000/svg" width="22" height="22"><defs><style id="current-color-scheme" type="text/css"></style></defs><path d="M9.95 5.043c-.232.041-.518.285-.725.645l-5 8.66c-.277.48-.307.978-.067 1.117l4.33 2.5c.24.138.657-.138.934-.617l5-8.66c.277-.48.306-.977.066-1.116l-4.33-2.5a.304.304 0 0 0-.209-.029zm4.546 6.955a5.932 5.932 0 0 1-.394.836c-.77 1.35-1.976 2.273-2.092 3.125-.003.013-.011.026-.014.039l.012.004c-.002.03-.012.059-.012.088 0 1.054 1.12 1.908 2.5 1.908s2.5-.854 2.5-1.908c0-.03-.007-.059-.01-.088l.01-.004c-.002-.013-.01-.026-.014-.039-.116-.852-1.321-1.777-2.091-3.127a5.91 5.91 0 0 1-.395-.834z" fill="currentColor" color="#565656"/></svg>