<svg xmlns="http://www.w3.org/2000/svg" width="22" height="22"><defs><style id="current-color-scheme" type="text/css"></style></defs><path d="M5.059 6.002l2.144 1.63L5 9.31v.033l2.18 1.66h.047l2.18-1.66-2.204-1.676 2.192-1.664H5.059zm4.406 0l2.146 1.63 2.143-1.63h-4.29zm4.453 0L16 7.586V6.002h-2.082zm-2.262 1.664L9.453 9.342l2.18 1.66 2.203-1.676-2.18-1.66zm2.18 1.66L16 10.971V7.68l-2.164 1.646zm.172 2.688v1.994h-2.002v.996h2.002V17l3.004-2.494-3.004-2.492zM7 13.992v1.03h1v-1.03H7zm2.018 0v1.03h1.97v-1.03h-1.97z" fill="currentColor" color="#565656"/></svg>