<svg width="22" height="22" version="1.1" xmlns="http://www.w3.org/2000/svg">
 <defs>
  <style id="current-color-scheme" type="text/css">.ColorScheme-Text { color:#565656; } .ColorScheme-Highlight { color:#5294e2; }</style>
 </defs>
 <path class="ColorScheme-Text" d="m5.25 6c-0.1385 0-0.25 0.1115-0.25 0.25v3.5c0 0.1385 0.1115 0.25 0.25 0.25h3.5c0.1385 0 0.25-0.1115 0.25-0.25v-3.5c0-0.1385-0.1115-0.25-0.25-0.25zm5.75 1v2h6v-2zm-5.75 5c-0.1385 0-0.25 0.1115-0.25 0.25v3.5c0 0.139 0.1115 0.25 0.25 0.25h3.5c0.1385 0 0.25-0.111 0.25-0.25v-3.5c0-0.1385-0.1115-0.25-0.25-0.25zm5.75 1v2h6v-2z" fill="currentColor"/>
</svg>
