<svg xmlns="http://www.w3.org/2000/svg" width="22" height="22"><defs><style id="current-color-scheme" type="text/css"></style></defs><path d="M13.03 4c-.148.003-.3.015-.46.037-.567.079-1.251.354-2.015.762-1.54-.853-2.741-.905-3.748-.645-1.07.277-1.938.728-3.291.688L3 4.826V19h15V4.844l-.518.017c-1.516.056-2.27-.396-3.25-.69A3.86 3.86 0 0 0 13.03 4zm-4.811.994c.499.039 1.063.22 1.781.615v8.725c-1.104-.642-2.21-.69-3.184-.447-.653.163-1.247.35-1.816.502V5.662c.802-.148 1.474-.379 2.055-.53.23-.059.454-.108.683-.132.155-.016.314-.019.48-.006zm5.119.008c.206.026.405.077.611.139.535.16 1.194.412 2.051.56v8.684c-.57-.153-1.163-.342-1.81-.504a4.063 4.063 0 0 0-3.19.486V5.668c.703-.386 1.245-.596 1.68-.66.239-.035.452-.032.658-.006z" fill="currentColor" color="#565656"/></svg>