<svg xmlns="http://www.w3.org/2000/svg" width="22" height="22"><defs><style id="current-color-scheme" type="text/css"></style></defs><path d="M9.004 5a6 6 0 0 0-6 6 6 6 0 0 0 6 6 6 6 0 0 0 1.998-.352 6 6 0 0 0 2.002.352 6 6 0 0 0 6-6 6 6 0 0 0-6-6 6 6 0 0 0-2 .35 6 6 0 0 0-2-.35zM8.51 7.035A6 6 0 0 0 7.004 11a6 6 0 0 0 1.504 3.965A4 4 0 0 1 5.004 11 4 4 0 0 1 8.51 7.035zm4.988 0A4 4 0 0 1 17.004 11a4 4 0 0 1-3.508 3.965A6 6 0 0 0 15.004 11a6 6 0 0 0-1.506-3.965zm-2.492.506A4 4 0 0 1 13.004 11a4 4 0 0 1-2.002 3.459A4 4 0 0 1 9.004 11a4 4 0 0 1 2.002-3.459z" fill="currentColor" color="#565656"/></svg>