<svg xmlns="http://www.w3.org/2000/svg" width="22" height="22"><defs><style id="current-color-scheme" type="text/css"></style></defs><path d="M5 4s-.076.004-.182.023a.9.9 0 0 0-.472.204.86.86 0 0 0-.065.054.86.86 0 0 0-.054.065.9.9 0 0 0-.204.472C4.004 4.924 4 5 4 5v12c0 1 1 1 1 1h12s1 0 1-1V5s-.004-.076-.023-.182a.904.904 0 0 0-.204-.472 1.065 1.065 0 0 0-.054-.065.88.88 0 0 0-.065-.054.9.9 0 0 0-.472-.204C17.076 4.004 17 4 17 4H5zm1 5h10v7H6V9zm5 1v2H8v1h3v2l3-2.5-3-2.5z" fill="currentColor" color="#565656"/></svg>