<svg xmlns="http://www.w3.org/2000/svg" width="64" height="64" viewBox="0 0 16.933 16.933"><defs><linearGradient id="a" x1="-197.72" x2="-197.72" y1="263.86" y2="273.76" gradientTransform="matrix(.18709 -.18709 .18709 .18709 1.12 -74.45)" gradientUnits="userSpaceOnUse"><stop offset="0"/><stop offset="1" stop-opacity="0"/></linearGradient></defs><path fill="#5294e2" d="m7.144 2.377-3.704.001c-.294 0-.395.268-.53.529v.003h-.264c-.586 0-1.058.472-1.058 1.059v7.408c0 .586.472 1.058 1.058 1.058h11.642c.586 0 1.058-.472 1.058-1.058V3.969c0-.587-.472-1.059-1.058-1.059h-4.46l-.038-.003H7.674c-.155-.25-.235-.53-.53-.53" style="paint-order:stroke fill markers"/><path d="m7.144 2.377-3.704.001c-.294 0-.395.268-.53.529v.003h-.264c-.586 0-1.058.472-1.058 1.059v7.408c0 .586.472 1.058 1.058 1.058h11.642c.586 0 1.058-.472 1.058-1.058V3.969c0-.587-.472-1.059-1.058-1.059l-6.614-.003c-.155-.25-.235-.53-.53-.53" opacity=".18" style="paint-order:stroke fill markers"/><rect width="12.171" height="5.027" x="2.381" y="3.7" fill="#fff" paint-order="markers stroke fill" ry=".533"/><rect width="3.175" height=".529" x="3.704" y="2.64" opacity=".25" paint-order="stroke markers fill" ry=".265"/><path fill="#5294e2" d="m8.996 4.233-.794 1.059H1.587C1.001 5.292.53 5.764.53 6.35v7.408c0 .586.472 1.058 1.058 1.058h13.758c.587 0 1.059-.472 1.059-1.058V5.292c0-.587-.472-1.059-1.059-1.059z" style="paint-order:stroke fill markers"/><path fill="url(#a)" d="m16.404 10.583-4.233 4.233h3.175c.586 0 1.058-.472 1.058-1.058z" opacity=".2" style="paint-order:stroke fill markers"/><rect width="4.233" height=".529" x="10.318" y="4.762" opacity=".25" ry=".265" style="paint-order:stroke markers fill"/><path d="M32.002 28a10 10 0 0 0-10 10 10 10 0 0 0 10 10 10 10 0 0 0 9.996-10 10 10 0 0 0-9.996-10m-.014 1h.014a9 9 0 0 1 8.996 8.996A9 9 0 0 1 32.002 47a9 9 0 0 1-9.004-9 9 9 0 0 1 8.99-9M32 31.998c-.554 0-1 .447-1 1.002v3.272A2 2 0 0 0 30.002 38a2 2 0 0 0 2 2 2 2 0 0 0 1.014-.277l3.375 3.375c.195.195.51.195.705 0l.004-.004a.497.497 0 0 0 0-.705l-3.375-3.375A2 2 0 0 0 34.002 38 2 2 0 0 0 33 36.27V33a1 1 0 0 0-1-1.002" opacity=".15" style="paint-order:stroke markers fill" transform="scale(.26458)"/></svg>