<svg xmlns="http://www.w3.org/2000/svg" width="64" height="64" viewBox="0 0 16.933 16.933"><rect width="12.7" height="13.758" x="2.117" y="1.587" fill="#549bff" rx="1.587" ry="1.587"/><path fill="#00f" d="m8.467 1.587-4.78.001c-.871.01-1.57.713-1.57 1.587v4.211a9.26 9.63 0 0 0 8.466 5.758 9.26 9.63 0 0 0 4.234-1.068V3.175c0-.88-.708-1.587-1.588-1.587H8.467z" opacity=".1" style="paint-order:stroke markers fill"/><path fill="#00f" d="m8.467 1.587-4.78.001c-.871.01-1.57.713-1.57 1.587v10.583c0 .88.708 1.588 1.587 1.588h4.853a10.583 11.007 0 0 0 6.26-5.69V3.175c0-.88-.708-1.588-1.588-1.588z" opacity=".1" style="paint-order:stroke markers fill"/><path fill="#fff" d="M5.292 3.969a3.175 3.175 0 0 0 3.175 3.175 3.175 3.175 0 0 0 3.175-3.175h-.794A2.38 2.38 0 0 1 8.467 6.35a2.38 2.38 0 0 1-2.382-2.381zm2.381 4.762v2.646H6.35l2.117 2.116 2.116-2.116H9.26V8.73z" style="paint-order:stroke markers fill"/></svg>