<svg width="16" height="16" enable-background="new" version="1.1" xmlns="http://www.w3.org/2000/svg">
 <title>Paper Symbolic Icon Theme</title>
 <defs>
  <filter color-interpolation-filters="sRGB">
   <feBlend in2="BackgroundImage" mode="darken"/>
  </filter>
 </defs>
 <g transform="translate(-545 -81)" fill="#555555">
  <path d="m548 82c-1.108-2e-5 -2 0.892-2 2v2.9943l2 6e-3v-3.0001l10 1.4e-4v10h-10v-3l-2-6e-3v3.0059c0 1.108 0.892 2 2 2h10c1.108 0 2-0.892 2-2v-10c0-1.108-0.892-2-2-2z"/>
  <path d="m552.21 85-1.3851 1.3859 1.6349 1.6348-7.4614-0.0211v2l7.4614 0.0211-1.6349 1.6344 1.3851 1.3851 4.0009-4.0406z"/>
 </g>
</svg>
