<svg width="16" height="16" version="1.1" xmlns="http://www.w3.org/2000/svg">
 <path d="m4 4c-0.277 0-0.52628 0.11222-0.70703 0.29297l-3.707 3.707 3.6738 3.6738c0.010489 0.011502 0.022192 0.022205 0.033203 0.033203 0.18072 0.1805 0.43025 0.29297 0.70703 0.29297h1v-1c0-0.277-0.11222-0.52628-0.29297-0.70703l-2.293-2.293 2.2598-2.2598c0.011502-0.010489 0.022205-0.022192 0.033203-0.033203 0.1805-0.18072 0.29297-0.43025 0.29297-0.70703v-1h-1zm7 0v1c0 0.29364 0.1259 0.55761 0.32617 0.74023l2.2598 2.2598-2.293 2.293c-0.1805 0.18072-0.29297 0.43025-0.29297 0.70703v1h1c0.27678 0 0.52632-0.11247 0.70703-0.29297l3.707-3.707-3.707-3.707c-0.18075-0.18075-0.43003-0.29297-0.70703-0.29297h-1zm-5 3c-0.554 0-1 0.446-1 1s0.446 1 1 1 1-0.446 1-1-0.446-1-1-1zm4 0c-0.554 0-1 0.446-1 1s0.446 1 1 1 1-0.446 1-1-0.446-1-1-1z" fill="#565656"/>
</svg>
