<svg width="16px" height="16px" version="1.1" xmlns="http://www.w3.org/2000/svg">
 <path d="m8.0059 0c-0.62264-0.0026247-1.1846 0.38521-1.4062 0.96094v0.0019531l-1.5664 4.0703-4.0723 1.5664c-0.5963 0.22982-0.96094 0.83782-0.96094 1.4004 0 0.56256 0.36464 1.1706 0.96094 1.4004l4.0723 1.5664 1.5664 4.0723c0.22983 0.59632 0.83783 0.96094 1.4004 0.96094 0.56302 0 1.171-0.36568 1.4004-0.96289l1.5664-4.0703 4.0703-1.5664c0.59718-0.22938 0.96289-0.83735 0.96289-1.4004 0-0.56257-0.36464-1.1706-0.96094-1.4004h-0.001953l-4.0703-1.5664-1.5664-4.0703v-0.0019531c-0.22073-0.57307-0.77604-0.95873-1.3945-0.96094zm-0.0058594 6a2 2 0 0 1 2 2 2 2 0 0 1-2 2 2 2 0 0 1-2-2 2 2 0 0 1 2-2z" color="#000000" fill="#555555" stroke-width="4" style="-inkscape-stroke:none"/>
 <path d="m12.648 1.9062c-0.22376-0.00828-0.45066 0.033077-0.66211 0.12695l-0.02734 0.011719 0.55469 1.4414 1.4414 0.55469 0.01172-0.027344c0.24914-0.5613 0.12913-1.2271-0.30665-1.666-0.27401-0.27633-0.63878-0.42761-1.0117-0.44141zm-9.3164 0.00586c-0.37907 0.022112-0.73966 0.18302-0.98828 0.43164-0.39779 0.39779-0.5697 1.0858-0.31055 1.6699l0.011719 0.025391 1.4414-0.55273 0.55469-1.4414-0.027344-0.011719c-0.21906-0.097178-0.4542-0.13436-0.68164-0.12109zm10.623 10.047-1.4414 0.55469-0.55469 1.4414 0.02734 0.01172c0.58447 0.26007 1.2718 0.08758 1.6699-0.31055 0.3978-0.3978 0.5697-1.0858 0.31055-1.6699zm-11.91 2e-3 -0.011719 0.02539c-0.25915 0.58418-0.087243 1.2721 0.31055 1.6699 0.39812 0.39812 1.0854 0.57063 1.6699 0.31055l0.025391-0.01172-0.55273-1.4414z" fill="#555555"/>
</svg>
