<svg width="16px" height="16px" version="1.1" viewBox="0 0 16 16" xmlns="http://www.w3.org/2000/svg">
 <path d="m6.8711 1c-2.6487 0.074102-4.7989 2.2114-4.8633 4.8906-0.003906 0.03125-0.0078125 0.066406-0.0078125 0.097656v0.00781c9.4e-6 0.0013225-1.44e-5 0.0025888 0 0.0039088v1h2v-1c1.44e-5 -0.00132-9.4e-6 -0.00259 0-0.00391v-0.00781c0-1.4766 1.0781-2.7305 2.5352-2.9531 1.4609-0.23437 2.8711 0.63282 3.3203 2.043 0.45448 1.3984-0.17322 2.9198-1.4824 3.5859-1.0021 0.42827-1.5813 1.2387-1.8691 1.9219-0.29297 0.6914-0.42188 1.2461-0.64062 1.5898-0.35937 0.55859-0.86328 0.68359-1.2461 0.60938-0.38281-0.074218-0.61719-0.21485-0.61719-0.78906v-1.9961h-0.85547c-0.047397-0.006941-0.09526-0.011719-0.14453-0.011719s-0.097134 0.0047778-0.14453 0.011719h-0.85547v1.9961c0 1.4297 1.0547 2.5273 2.2383 2.7539 1.1836 0.22656 2.5313-0.28906 3.3047-1.4961 0.47656-0.74218 0.61328-1.4414 0.80469-1.8906 0.1875-0.45312 0.29688-0.65234 0.83203-0.86719l0.039063-0.01563 0.035156-0.01953c2.1953-1.1133 3.2578-3.6563 2.5078-5.9961-0.65625-2.0195-2.5117-3.4102-4.6328-3.4648-0.086426-0.0019531-0.17237-0.0023904-0.25781 0zm6.4414 0.089844-1.5859 1.2344a6.001 6.001 0 0 1 1.2734 3.6758 6.001 6.001 0 0 1-1.2734 3.6758l1.5742 1.2246a8 8 0 0 0 1.6992-4.9004 8 8 0 0 0-1.6875-4.9102zm-6.3125 2.9062c-1.1055 0-2 0.89453-2 2 0 1.1055 0.89453 2 2 2s2-0.89453 2-2c0-1.1055-0.89453-2-2-2z" fill="#565656"/>
</svg>
