<svg width="16" height="16" version="1.1" xmlns="http://www.w3.org/2000/svg">
 <g fill="#565656">
  <path d="m8.5 16 3-3h-6z"/>
  <g fill-rule="evenodd" stroke-linecap="round" stroke-linejoin="round">
   <g stroke-width="2">
    <path d="m2 0c-1.108 0-2 0.892-2 2v8c0 1.108 0.892 2 2 2h12c1.108 0 2-0.892 2-2v-8c0-1.108-0.892-2-2-2zm0 2h12v8h-12z" stop-color="#000000" style="paint-order:stroke fill markers"/>
    <rect x="3" y="3" width="2" height="2" rx="0" ry="0" stop-color="#000000" style="paint-order:stroke fill markers"/>
    <rect x="6" y="3" width="2" height="2" rx="0" ry="0" stop-color="#000000" style="paint-order:stroke fill markers"/>
    <rect x="9" y="3" width="2" height="2" rx="0" ry="0" stop-color="#000000" style="paint-order:stroke fill markers"/>
   </g>
   <rect x="12" y="3" width="1" height="2" rx="0" ry="0" stop-color="#000000" stroke-width="1.4142" style="paint-order:stroke fill markers"/>
   <rect x="3" y="6" width="1" height="2" rx="0" ry="0" stop-color="#000000" stroke-width="1.4142" style="paint-order:stroke fill markers"/>
   <g stroke-width="2">
    <rect x="5" y="6" width="2" height="2" rx="0" ry="0" stop-color="#000000" style="paint-order:stroke fill markers"/>
    <rect x="8" y="6" width="2" height="2" rx="0" ry="0" stop-color="#000000" style="paint-order:stroke fill markers"/>
    <rect x="11" y="6" width="2" height="2" rx="0" ry="0" stop-color="#000000" style="paint-order:stroke fill markers"/>
   </g>
  </g>
 </g>
</svg>
