<svg width="16" height="16" version="1.1" viewBox="0 0 16 16" xmlns="http://www.w3.org/2000/svg">
 <path d="m4.654 2.2899c-3.5731 0-4.654 1.3962-4.654 1.3962v10.024s1.0809-1.074 4.654-1.074c2.9087 0 4.4609 1.074 7.1598 1.074 2.084 0 3.1862-1.3962 3.1862-1.3962v-10.024s-1.1381 1.0382-3.222 1.0382c-3.3649 0-3.9661-1.0382-7.1244-1.0382zm2.924 2.7645c1.3254 0 2.369 1.0776 2.369 2.4313 0 1.3537-1.0436 2.4625-2.369 2.4625-1.3254 0-2.4002-1.1088-2.4002-2.4625 0-1.3537 1.0748-2.4313 2.4002-2.4313zm-4.5509 0.9663 0.9663 1.0286-0.93512-0.03112 0.93512 0.99747-0.9663-0.03112 0.9663 1.0286-0.99747-0.03112 0.031121-0.99747h-0.031121l0.031121-0.96635h-0.031121zm4.5509 0c-0.79199 0-1.465 0.65613-1.465 1.465s0.67304 1.465 1.465 1.465c0.79199 0 1.4339-0.65613 1.4339-1.465s-0.64187-1.465-1.4339-1.465zm4.3639 0v0.99747l0.03112 0.9663h-0.03112l0.03112 0.99747-0.99747 0.03112 0.9663-1.0286-0.9663 0.03112 0.93512-0.99747-0.93512 0.03112zm-7.9174 2.9612 0.9663 1.0286-0.99747-0.03112zm6.9199 0 0.03112 0.99747-0.99747 0.03112zm-5.9225 0.99747 0.9663 1.0286-0.99747-0.03112zm4.925 0 0.03112 0.99747-0.99747 0.03112z" fill="#555555"/>
</svg>
