<svg height="16px" viewBox="0 0 16 16" width="16px" xmlns="http://www.w3.org/2000/svg">
    <path d="m 8 0 c -3.855469 0 -7 3.148438 -7 7 c 0 0.875 0.164062 1.714844 0.457031 2.484375 c 0.136719 0.390625 0.328125 0.769531 0.558594 1.148437 c 0.058594 0.09375 0.113281 0.183594 0.171875 0.273438 h 0.003906 c 0.730469 1.109375 1.996094 2.253906 3.117188 3.210938 c 1.121094 0.957031 2.09375 1.683593 2.09375 1.683593 c 0.351562 0.265625 0.84375 0.265625 1.199218 0 c 0 0 0.960938 -0.722656 2.078126 -1.675781 c 1.113281 -0.949219 2.375 -2.082031 3.109374 -3.1875 l 0.003907 -0.003906 c -0.023438 0.03125 0 0 0.011719 -0.019532 l 0.011718 -0.015624 c 0.027344 -0.039063 0.046875 -0.070313 0.054688 -0.082032 c 0 -0.003906 0 -0.003906 0.003906 -0.007812 c 0.023438 -0.035156 0.027344 -0.046875 0.03125 -0.046875 l 0.003906 -0.007813 c 0.023438 -0.042968 0.058594 -0.09375 0.101563 -0.164062 c 0 -0.003906 0.003906 -0.007813 0.007812 -0.015625 l 0.003907 -0.007813 c 0 -0.003906 0.003906 -0.003906 0.007812 -0.007812 c 0.210938 -0.355469 0.382812 -0.710938 0.511719 -1.074219 c 0.289062 -0.769531 0.457031 -1.609375 0.457031 -2.484375 c 0 -3.851562 -3.144531 -7 -7 -7 z m 0 2 c 2.773438 0 5 2.226562 5 5 c 0 0.632812 -0.117188 1.226562 -0.328125 1.78125 c -0.003906 0.011719 -0.007813 0.023438 -0.011719 0.03125 c -0.070312 0.207031 -0.191406 0.457031 -0.355468 0.734375 c -0.003907 0.003906 -0.007813 0.011719 -0.011719 0.015625 c -0.015625 0.03125 -0.039063 0.070312 -0.074219 0.121094 c -0.003906 0.003906 -0.003906 0.007812 -0.007812 0.011718 c -0.019532 0.035157 -0.027344 0.042969 -0.023438 0.035157 c -0.023438 0.039062 -0.039062 0.0625 -0.042969 0.066406 c -0.007812 0.011719 -0.003906 0.007813 -0.015625 0.023437 c 0 0.003907 -0.003906 0.003907 -0.003906 0.007813 c -0.460938 0.699219 -1.679688 1.871094 -2.742188 2.777344 c -0.742187 0.632812 -1.042968 0.851562 -1.382812 1.113281 c -0.339844 -0.261719 -0.644531 -0.484375 -1.394531 -1.121094 c -1.066407 -0.914062 -2.289063 -2.09375 -2.746094 -2.789062 c -0.050781 -0.078125 -0.097656 -0.152344 -0.136719 -0.214844 c -0.179687 -0.296875 -0.308594 -0.5625 -0.382812 -0.777344 c -0.003906 -0.011718 -0.007813 -0.023437 -0.011719 -0.03125 c -0.210937 -0.558594 -0.328125 -1.152344 -0.328125 -1.785156 c 0 -2.773438 2.226562 -5 5 -5 z m 0 2 c -1.648438 0 -3 1.359375 -3 3 c 0 1.648438 1.355469 3 3 3 c 1.644531 0.003906 3 -1.351562 3 -3 c 0 -1.644531 -1.355469 -3 -3 -3 z m 0 2 c 0.5625 0 1 0.433594 1 1 c 0 0.5625 -0.4375 1 -1 1 s -1 -0.4375 -1 -1 s 0.433594 -1 1 -1 z m 0 0" fill="#565656"/>
</svg>
