<svg width="16" height="16" version="1.1" xmlns="http://www.w3.org/2000/svg">
 <path d="M 11.994,6 V 8 H 7 C 7,8 6.209,8.014 5.447,8.395 4.686,8.775 4,9.333 4,11 v 2 H 2 V 11 C 2,8.667 3.314,7.225 4.553,6.605 5.791,5.986 7,6 7,6 Z" color="#000000" fill="#555555" overflow="visible" style="font-feature-settings:normal;font-variant-alternates:normal;font-variant-caps:normal;font-variant-ligatures:normal;font-variant-numeric:normal;font-variant-position:normal;isolation:auto;mix-blend-mode:normal;shape-padding:0;text-decoration-color:#000000;text-decoration-line:none;text-decoration-style:solid;text-indent:0;text-orientation:mixed;text-transform:none;white-space:normal"/>
 <path d="m8.994 3.022v1c0 0.257 0.13 0.529 0.313 0.719l2.28 2.281-2.28 2.281c-0.183 0.19-0.313 0.462-0.313 0.72v1h1c0.31 0 0.552-0.091 0.75-0.282l3.656-3.719-3.656-3.719c-0.198-0.19-0.44-0.28-0.75-0.28z" color="#bebebe" fill="#555555" overflow="visible" style="text-decoration-line:none;text-indent:0;text-transform:none"/>
</svg>
