<svg width="16" height="16" version="1.1" xmlns="http://www.w3.org/2000/svg">
 <path d="m6 1v2h-2c-1.662 0-3 1.338-3 3v4c0 1.662 1.338 3 3 3h8c1.662 0 3-1.338 3-3v-4c0-1.662-1.338-3-3-3h-1v2h1c0.554 0 1 0.446 1 1v4c0 0.554-0.446 1-1 1h-8c-0.554 0-1-0.446-1-1v-4c0-0.554 0.446-1 1-1h2v2l4-3z" fill="#555555" opacity=".35"/>
 <rect transform="rotate(45)" x="1.3137" y="-1" width="20" height="2" rx="0" ry="0" fill="#555555" stroke-linecap="round" stroke-linejoin="round" stroke-width="2.6876" style="paint-order:stroke fill markers"/>
</svg>
