<svg width="16" height="16" enable-background="new" version="1.1" xmlns="http://www.w3.org/2000/svg">
 <path d="m1 1v7.2363a2.9453 2.9453 0 0 1 1-0.18164 2.9453 2.9453 0 0 1 1 0.17578v-7.2305h-2zm6 0v1.2363a2.9453 2.9453 0 0 1 1-0.18164 2.9453 2.9453 0 0 1 1 0.18164v-1.2363h-2zm6 0v7.2363a2.9453 2.9453 0 0 1 1-0.18164 2.9453 2.9453 0 0 1 1 0.17578v-7.2305h-2zm-5 2a2 2 0 0 0-2 2 2 2 0 0 0 2 2 2 2 0 0 0 2-2 2 2 0 0 0-2-2zm-1 4.7637v7.2363h2v-7.2305a2.9453 2.9453 0 0 1-1 0.17578 2.9453 2.9453 0 0 1-1-0.18164zm-5 1.2363a2 2 0 0 0-2 2 2 2 0 0 0 2 2 2 2 0 0 0 2-2 2 2 0 0 0-2-2zm12 0a2 2 0 0 0-2 2 2 2 0 0 0 2 2 2 2 0 0 0 2-2 2 2 0 0 0-2-2zm-13 4.7637v1.2363h2v-1.2363a2.9453 2.9453 0 0 1-1 0.18164 2.9453 2.9453 0 0 1-1-0.18164zm12 0v1.2363h2v-1.2363a2.9453 2.9453 0 0 1-1 0.18164 2.9453 2.9453 0 0 1-1-0.18164z" fill="#565656"/>
</svg>
