<svg width="16px" height="16px" version="1.1" viewBox="0 0 16 16" xmlns="http://www.w3.org/2000/svg">
 <path d="m3.6191 0.074219a1.0001 1.0001 0 0 0-0.61914 0.92383v13.014a1.0001 1.0001 0 0 0 1.6992 0.71484l1.9902-1.9473 1.082 2.2051c0.25521 0.5737 0.83166 0.90528 1.3223 0.98633 0.49061 0.08105 0.94867-0.0044 1.3711-0.19141 0.42243-0.187 0.82948-0.48907 1.0879-0.97852 0.25841-0.48945 0.27565-1.1801 2e-3 -1.7383l-1.0195-2.1797 2.3418-0.01367a1.0001 1.0001 0 0 0 0.70112-1.707l-8.8711-8.8711a1.0001 1.0001 0 0 0-1.0879-0.2168zm1.3809 3.3379 5.4707 5.4707-1.5078 0.0097656a1.0001 1.0001 0 0 0-0.90039 1.4238l1.6738 3.5801c-0.018187 0.01646-0.021085 0.02771-0.082031 0.05469-0.059391 0.02629-0.097926 0.02226-0.14648 0.02734l-1.6289-3.3203a1.0001 1.0001 0 0 0-1.5977-0.27539l-1.2812 1.252z" fill="#565656"/>
</svg>
