<?xml version="1.0" encoding="UTF-8"?>
<svg xmlns="http://www.w3.org/2000/svg" height="16px" viewBox="0 0 16 16" width="16px"><path d="m 1 1 v 5 h 5 v -5 z m 7 0 v 1 h 1 v -1 z m 0 1 h -1 v 1 h 1 z m 0 1 v 1 h -1 v 2 h 2 v -3 z m 2 -2 v 5 h 5 v -5 z m -7 2 h 1 v 1 h -1 z m 9 0 h 1 v 1 h -1 z m -11 4 v 1 h 1 v -1 z m 1 1 v 1 h 1 v -1 z m 1 0 h 1 v 1 h 2 v -2 h -3 z m 4 -1 v 4 h 1 v -1 h 2 v -3 z m 3 3 v 1 h 1 v -1 z m 1 0 h 1 v -1 h -1 z m 1 -1 h 1 v 1 h 1 v -2 h 1 v -1 h -3 z m 1 1 h -1 v 1 h 1 z m -3 1 h -1 v 1 h 1 z m 0 1 v 1 h 1 v -1 z m -1 0 h -2 v 3 h 1 v -1 h 1 z m 0 2 v 1 h 1 v -1 z m -1 -6 h 1 v 1 h -1 z m -7 2 v 5 h 5 v -5 z m 13 1 v 1 h -2 v 3 h 1 v -1 h 1 v -1 h 1 v -2 z m 0 3 v 1 h 1 v -1 z m -11 -2 h 1 v 1 h -1 z m 0 0" fill="#565656"/></svg>
