<svg width="16" height="16" version="1.1" xmlns="http://www.w3.org/2000/svg">
 <path d="m13.289 9.69c-0.49379 0.47964-1.0774 0.69712-1.7883 0.69712-0.71086 0-1.2972-0.22349-1.791-0.70313-0.77657 0.27945-1.7052 0.99058-1.7063 2.2326l-0.0027 2.3167c0 0.42 0.313 0.76 0.7 0.76h5.6c0.3878 0 0.7-0.34309 0.7-0.76924v-2.3077c0-1.0667-0.77162-1.966-1.7117-2.2356z" fill="#555555"/>
 <path d="m13.808 7.3015a2.3077 2.3077 0 1 1-4.6154 0 2.3077 2.3077 0 1 1 4.6154 0z" fill="#555555"/>
 <path d="m6.289 5.69c-0.49379 0.47964-1.0774 0.69712-1.7883 0.69712-0.71086 0-1.2972-0.22349-1.791-0.70313-0.77657 0.27945-1.7052 0.99058-1.7063 2.2326l-0.0027 2.3167c0 0.42 0.313 0.76 0.7 0.76h5.7354c0.06219-0.3952 0.26162-0.72266 0.56465-1v-2.0769c0-1.0667-0.77162-1.966-1.7117-2.2356z" fill="#555555"/>
 <path d="m6.8078 3.3015a2.3077 2.3077 0 1 1-4.6154 0 2.3077 2.3077 0 1 1 4.6154 0z" fill="#555555"/>
</svg>
