<svg width="16" height="16" version="1.1" xmlns="http://www.w3.org/2000/svg">
 <path d="m7 1c-1.6447 0-3 1.3553-3 3v0.013672h2v-0.013672c0-0.5713 0.4287-1 1-1h2c0.5713 0 1 0.4287 1 1v1.7812h-4v-0.0039062h-2v0.0039062h-1v-0.0019531c-0.554 0-1 0.58045-1 1.3008v0.69141 7.1094h12v-7.1094-0.68945c0-0.72034-0.446-1.3008-1-1.3008h-1v-1.7812c0-1.6447-1.3553-3-3-3h-2zm1 6.873a1.5 1.5 0 0 1 1.5 1.5 1.5 1.5 0 0 1-1 1.4121v1.7148h-1v-1.7129a1.5 1.5 0 0 1-1-1.4141 1.5 1.5 0 0 1 1.5-1.5z" fill="#555555"/>
</svg>
