<svg width="16px" height="16px" version="1.1" viewBox="0 0 16 16" xmlns="http://www.w3.org/2000/svg">
 <path d="m2.4043 0.23828a1.0001 1.0001 0 0 0-0.43555 1.0156l2.418 13.211a1.0001 1.0001 0 0 0 1.5801 0.62305l2.4512-1.8164 1.4336 1.8477c0.40546 0.56365 1.0317 0.91372 1.6406 0.96289 0.60891 0.04917 1.1677-0.15566 1.6035-0.49414 0.43578-0.33848 0.77446-0.82916 0.87695-1.4316 0.10239-0.60188-0.0853-1.295-0.53125-1.8262l-1.3594-1.75 2.1523-1.5684a1.0001 1.0001 0 0 0-0.035156-1.6406l-10.691-7.1289a1.0001 1.0001 0 0 0-1.1035-0.0039062zm1.959 2.9766 7.5332 5.0234-1.8262 1.332a1.0001 1.0001 0 0 0-0.19922 1.4219l2.0156 2.5938a1.0001 1.0001 0 0 0 0.02344 0.03125c0.12146 0.14441 0.09685 0.16193 0.08984 0.20312-7e-3 0.0412-0.05052 0.1251-0.13086 0.1875-0.08034 0.0624-0.17226 0.08547-0.21484 0.08203-0.04258-0.0034-0.06757 0.01448-0.17773-0.13867a1.0001 1.0001 0 0 0-0.02149-0.0293l-2.0547-2.6484a1.0001 1.0001 0 0 0-1.3867-0.18945l-1.9473 1.4414z" fill="#565656"/>
</svg>
