<svg height="16px" viewBox="0 0 16 16" width="16px" xmlns="http://www.w3.org/2000/svg">
    <path d="m 7.546875 0 l -3.046875 8 h 3.714844 l -1.804688 3.613281 l -1.011718 -1.203125 l -0.351563 5.589844 l 4.332031 -3.585938 l -1.671875 -0.171874 l 4.339844 -6.242188 h -3.695313 l 3.195313 -6 z m -1.566406 1.304688 c -2.875 0.867187 -4.980469 3.546874 -4.980469 6.699218 c 0 2.445313 1.269531 4.605469 3.179688 5.855469 l 0.152343 -2.449219 c -0.824219 -0.890625 -1.332031 -2.085937 -1.332031 -3.40625 c 0 -1.617187 0.757812 -3.042968 1.9375 -3.957031 z m 5.628906 0.707031 l -0.9375 1.761719 c 0.515625 0.324218 0.96875 0.738281 1.332031 1.226562 h 0.042969 c 0.371094 0 0.714844 0.207031 0.886719 0.535156 c 0.171875 0.332032 0.144531 0.730469 -0.066406 1.035156 l -0.050782 0.078126 c 0.117188 0.429687 0.183594 0.882812 0.183594 1.355468 c 0 1.914063 -1.0625 3.570313 -2.636719 4.410156 c 0.003907 0.296876 -0.125 0.578126 -0.347656 0.769532 l -2.191406 1.816406 c 0.058593 0 0.117187 0.003906 0.175781 0.003906 c 3.855469 0 7 -3.144531 7 -7 c 0 -2.535156 -1.359375 -4.765625 -3.390625 -5.992187 z m 0 0" fill="#565656"/>
</svg>
