<svg width="16px" height="16px" version="1.1" viewBox="0 0 16 16" xmlns="http://www.w3.org/2000/svg">
 <path d="m6.5078 0c-1.3828 0-2.5 1.1133-2.5 2.5v0.5h-3-1.0078v2h1.0078 1v8c0 1.6602 1.3438 3 3 3h6.0039c1.6562 0 3-1.3398 3-3v-8h1 0.98828v-0.89062c0.004073-0.036386 0.011719-0.071942 0.011719-0.10938s-0.007646-0.072989-0.011719-0.10938v-0.89062h-0.98828-3.0195v-0.5c0-1.3867-1.1211-2.5-2.5039-2.5h-2.9805zm0 2h2.9805c0.26953 0 0.5 0.23047 0.5 0.5v0.5h-3.9805v-0.5c0-0.26953 0.23438-0.5 0.5-0.5zm-2.5 3h8.0039v8c0 0.54687-0.45703 1-1 1h-6.0039c-0.54297 0-1-0.45313-1-1v-8z" fill="#565656"/>
</svg>
