<svg width="16" height="16" version="1.1" xmlns="http://www.w3.org/2000/svg">
 <path d="m6.7051 5.291c-1.0089 0.48323-1.7051 1.5156-1.7051 2.709 0 1.6569 1.3431 3 3 3 1.1934 0 2.2258-0.69618 2.709-1.7051l-2.002-2.002c0.18097 0.18096 0.29297 0.43089 0.29297 0.70703 0 0.55228-0.44772 1-1 1s-1-0.44772-1-1 0.44772-1 1-1c0.27614 0 0.52607 0.112 0.70703 0.29297l-2.002-2.002z" fill="#555555"/>
 <path d="m8 2c-0.56982 0-1.1079 0.052013-1.6172 0.14062l1.8652 1.8652c4.1448 0.1206 5.459 3.2253 5.752 3.9941-0.087341 0.22923-0.26932 0.66806-0.58594 1.1719l1.4414 1.4414c0.58227-0.8238 0.88553-1.5639 1.0137-1.9004a2.0002 2.0002 0 0 0 0-1.4258c-0.18466-0.48459-0.72008-1.8006-1.9531-3.0098-1.2331-1.2091-3.2511-2.2773-5.916-2.2773zm-3.7754 0.81055c-0.86522 0.40329-1.5833 0.92034-2.1406 1.4668-1.2331 1.2091-1.7685 2.5251-1.9531 3.0098a2.0002 2.0002 0 0 0 0 1.4258c0.18466 0.48459 0.72007 1.8006 1.9531 3.0098 1.2331 1.2091 3.2511 2.2773 5.916 2.2773 2.3889 0 4.2561-0.85943 5.5059-1.9082l-1.418-1.418c-0.9164 0.73646-2.2275 1.3262-4.0879 1.3262-4.3424 0-5.7012-3.2159-6-4 0.2394-0.62832 1.1612-2.8168 3.752-3.6621l-1.5273-1.5273z" fill="#555555" style="-inkscape-stroke:none"/>
 <rect transform="rotate(45)" x="3.3137" y="-1" width="16" height="2" fill="#555555" stroke-linecap="square" stroke-width="1.0046" style="paint-order:fill markers stroke"/>
</svg>
