<svg width="16" height="16" version="1.1" xmlns="http://www.w3.org/2000/svg">
 <g transform="translate(1)" fill="#555555">
  <path d="m7 3c-0.554 0-1 0.446-1 1h4.4727c0.29214 0 0.52734 0.2352 0.52734 0.52734v4.4727c0.554 0 1-0.446 1-1v-4c0-0.554-0.446-1-1-1z"/>
  <path d="m3 5c-0.554 0-1 0.446-1 1v6c0 0.554 0.446 1 1 1h6c0.554 0 1-0.446 1-1v-6c0-0.554-0.446-1-1-1zm1.5273 2h2.9453c0.29214 0 0.52734 0.2352 0.52734 0.52734v2.9453c0 0.29214-0.2352 0.52734-0.52734 0.52734h-2.9453c-0.29214 0-0.52734-0.2352-0.52734-0.52734v-2.9453c0-0.29214 0.2352-0.52734 0.52734-0.52734z"/>
 </g>
</svg>
