<svg width="16" height="16" version="1.1" xmlns="http://www.w3.org/2000/svg">
 <path class="cls-5" d="m9.5199 8.9478c-0.05037 0.06548-0.20622 0.15615-0.20622 0.35378 0 0.16296 0.10637 0.32 0.29511 0.45155 0.89866 0.62518 2.5926 0.54251 2.5973 0.54251a3.7229 3.7229 0 0 0 1.8918-0.52148c1.1751-0.68651 1.8989-1.5896 1.9016-2.9505 0.016296-1.4003-0.49985-2.3315-0.70873-2.7437-1.3244-2.5905-4.1828-4.08-7.2912-4.08-4.3745 0-7.938 3.5126-7.9996 7.8859 0.029926-2.2832 2.2998-4.4017 5-4.4017 0.21866 0 1.4661 0.021333 2.6249 0.62933 1.021 0.53629 1.5561 1.4578 1.928 2.0995 0.54044 1.0198 0.56385 1.9564-0.03259 2.7348z" fill="#565656" stroke-width=".29629"/>
 <path class="cls-1" d="m7.0312 6.2539c-2.8103 1.384-3.9311 4.9677-2.084 7.498a4.9499 4.9499 0 0 0 1.4199 1.334l0.0058594 0.001953c1.0083 0.63063 2.3883 0.85357 3.5938 0.63867 0.059689-0.01266 0.12273-0.023595 0.17969-0.037109 0.14056-0.033347 0.27096-0.068183 0.38281-0.10352l0.082031-0.027344a8.0186 8.0186 0 0 0 4.1621-3.2988c0.13863-0.21845-0.10777-0.47734-0.33398-0.35352-0.76655 0.7535-1.9542 0.93276-2.9004 0.9375-2.957 0-5.5352-2.2728-5.5352-4.8828a1.9671 1.9671 0 0 1 1.0273-1.707z" fill="#565656" opacity=".5" stroke-width=".29629"/>
 <path class="cls-3" d="m6.3677 15.085a4.9499 4.9499 0 0 1-1.421-1.3333c-1.8471-2.5303-0.72503-6.1146 2.0853-7.4986 0.19496-0.091851 0.528-0.25778 0.97125-0.24978a2.0222 2.0222 0 0 1 1.6056 0.81244 1.992 1.992 0 0 1 0.39733 1.1659c0-0.01304 1.5289-4.9742-5-4.9742-2.7437 0-5 2.6032-5 4.8874a8.1309 8.1309 0 0 0 0.75703 3.4992c1.7221 3.674 5.9229 5.477 9.773 4.1934-1.3182 0.4154-2.992 0.23289-4.1635-0.49985z" fill="#565656" opacity=".75" stroke-width=".29629"/>
</svg>
