<svg xmlns="http://www.w3.org/2000/svg" width="16" height="16"><path d="M15.111 1c.493 0 .889.508.889 1v10c0 .492-.396 1-.889 1h-3.669l-2.318-.8-2.825-.298-2.324.173-2.087-.274c-.488-.065-.828-.133-.839-.626L.874 3.35c-.01-.492 1.048-.44 1.514-.6L7.494 1z" fill="#555555" opacity=".3"/><path d="M.89 1C.396 1 0 1.508 0 2v10c0 .492.397 1 .89 1H3.6l2 2 2-2h4.043c.033-.027.066-.05.1-.078 2.419-2.104 3.154-5.848.911-8.357-.88-.985-2.181-1.574-3.466-1.587-.954-.009-2.3.3-3.061.999-1.19 1.093-1.542 3.051-.364 4.289.415.435 1.245.702 2.05.721 1.1-.06 1.818-.767 1.918-1.67.003-1.341-1.076-1.377-1.563-.969-.193.209-.244.57-.01.769.123.106.335.132.445-.008.055-.069.07-.185-.01-.242-.037-.025-.095-.03-.122.012-.007.016-.01.042.01.053.008.004.023.004.023-.004v-.006c-.011-.003 0-.006 0-.007.007-.003.017.004.017.011.005.021-.015.04-.034.044-.05.011-.084-.035-.094-.078-.017-.096.075-.168.163-.179.177-.02.308.148.32.31.024.306-.268.525-.55.538-.5.022-1.047-.455-1.057-.919-.014-.779.47-1.617 1.462-1.642 1.843-.023 2.297 1.463 2.269 2.564C10.957 9.27 9.945 10.922 7.369 11 4.943 10.899 2.87 8.307 3 6.01 3.137 3.577 5.622 1.745 7.866 1z" fill="#555555"/></svg>