<?xml version="1.0" encoding="UTF-8"?>
<svg width="16px" height="16px" version="1.1" viewBox="0 0 16 16" xmlns="http://www.w3.org/2000/svg">
 <path d="m8 0c-1.6602 0-3 1.3398-3 3v5c0 1.6602 1.3398 3 3 3s3-1.3398 3-3v-5c0-1.6602-1.3398-3-3-3zm0 2c0.554 0 1 0.446 1 1v5c0 0.554-0.446 1-1 1s-1-0.446-1-1v-5c0-0.554 0.446-1 1-1zm-6 4v2.0117c0 2.9648 2.1641 5.4219 5 5.8984v2.0898h2v-2.0898c2.8359-0.47656 5-2.9336 5-5.8984v-2.0117h-1.5v2.0117c0 2.5-1.9922 4.4883-4.5 4.4883-2.5078 0-4.5-1.9883-4.5-4.4883v-2.0117h-1.5z" fill="#555"/>
</svg>
