<svg width="16px" height="16px" version="1.1" viewBox="0 0 16 16" xmlns="http://www.w3.org/2000/svg">
 <path d="m8 0c-0.55469-1.7764e-15 -1 0.44531-1 1v6.5s-5e-7 0.5-0.5 0.5-0.5-0.5-0.5-0.5v-5.5c0-0.55469-0.44531-1-1-1s-1 0.44531-1 1v6.5s-5e-7 0.5-0.5 0.5-0.5-0.5-0.5-0.5v-3.5c0-0.55469-0.44531-1-1-1s-1 0.44531-1 1v8s3e-6 3 3 3h6c0.94922-0.003906 2-0.5 2.707-1.293l3-3c0.44922-0.44922 0.38672-1.6328-0.69531-1.7187-0.27344 0.003907-0.53125 0.10937-0.71875 0.30469l-1.793 1.707s-0.5-1e-6 -0.5-0.5v-8.5c0-0.55469-0.44531-1-1-1s-1 0.44531-1 1v4.5s-5e-7 0.5-0.5 0.5-0.5-0.5-0.5-0.5v-6.5c0-0.55469-0.44531-1-1-1zm1.1016 9.9863c0.4978-0.026559 0.89844 0.4943 0.89844 1.0137v2c0 0.554-0.446 1-1 1h-5c-0.554 0-1-0.446-1-1v-1c0-0.554 0.45676-0.89135 1-1l5-1c0.033953-0.0067905 0.068376-0.011901 0.10156-0.013672z" fill="#565656"/>
</svg>
