<svg height="16px" viewBox="0 0 16 16" width="16px" xmlns="http://www.w3.org/2000/svg">
    <g fill="#565656">
        <path d="m 3.3125 13.683594 c 0.011719 0.007812 0.023438 0.015625 0.039062 0.019531 l 4.195313 2.179687 c 0.289063 0.152344 0.636719 0.152344 0.925781 0 l 4.152344 -2.179687 c 0.019531 -0.007813 0.039062 -0.019531 0.058594 -0.03125 c 3.988281 -2.449219 2.25 -7.671875 -1.703125 -7.671875 c -1.011719 0 -1.75 0.441406 -2.238281 1.128906 c -0.894532 1.257813 -0.691407 1.277344 -1.621094 0.042969 c -0.554688 -0.730469 -1.320313 -1.203125 -2.128906 -1.171875 c -3.996094 0 -5.652344 5.390625 -1.679688 7.683594 z m 7.667969 -5.6875 c 1.726562 0 3.132812 2.449218 0.65625 3.96875 l 0.058593 -0.035156 l -4.152343 2.179687 h 0.925781 l -4.195312 -2.179687 l 0.039062 0.023437 c -2.386719 -1.378906 -1.097656 -3.957031 0.679688 -3.957031 c 1.378906 0 2.039062 0.945312 2.320312 1.535156 c 0.117188 0.25 0.398438 0.46875 0.675781 0.46875 h 0.011719 c 0.277344 0 0.558594 -0.21875 0.675781 -0.46875 c 0.28125 -0.589844 0.945313 -1.535156 2.304688 -1.535156 z m 0 0"/>
        <path d="m 8 4 c -0.546875 0 -1 -0.453125 -1 -1 s 0.453125 -1 1 -1 s 1 0.453125 1 1 s -0.453125 1 -1 1 z m 0 -4 c -1.660156 0 -3 1.339844 -3 3 s 1.339844 3 3 3 s 3 -1.339844 3 -3 s -1.339844 -3 -3 -3 z m 0 0"/>
    </g>
</svg>
