<svg width="16" height="16" version="1.1" xmlns="http://www.w3.org/2000/svg">
 <path d="m5 1-1 1v2h-3v8.5c0 1.5 1.5 1.5 1.5 1.5h6.5v-2h-6v-6h10v2h2v-4h-3v-2l-1-1h-6zm1 2h4v1h-4v-1z" fill="#555555"/>
 <path d="m14.359 11.718c0.01501-0.14514 0.02002-0.29029 5e-3 -0.43043l0.53554-0.42542c0.05005-0.04004 0.06006-0.1051 0.03003-0.16016l-0.51551-0.8959c-0.03003-0.055055-0.0951-0.075075-0.15516-0.055055l-0.64064 0.25025c-0.11512-0.085086-0.24024-0.15516-0.37538-0.21021l-0.1001-0.68068c-0.01001-0.065065-0.060061-0.11011-0.12512-0.11011h-1.036c-0.06006 0-0.11512 0.045045-0.12512 0.10511l-0.1001 0.68068c-0.13013 0.055055-0.25526 0.13013-0.37037 0.21021l-0.64064-0.25025c-0.06006-0.025025-0.12513 0-0.15516 0.055055l-0.51552 0.8959c-0.03003 0.05505-0.02002 0.12012 0.03003 0.16016l0.53554 0.43043c-0.01501 0.14515-0.02002 0.29029-5e-3 0.43043l-0.53553 0.42542c-0.05005 0.04004-0.06006 0.1051-0.03003 0.16016l0.51552 0.8959c0.03003 0.05505 0.0951 0.07508 0.15516 0.05505l0.63564-0.25025c0.11512 0.08508 0.24024 0.15516 0.37538 0.21021l0.1001 0.68068c0.01001 0.06006 0.06006 0.1051 0.12512 0.1051h1.036c0.06006 0 0.11511-0.04504 0.12512-0.1051l0.1001-0.68068c0.13013-0.05506 0.25526-0.13013 0.37037-0.21021l0.64064 0.25025c0.06006 0.02502 0.12512 0 0.15516-0.05505l0.51552-0.8959c0.03003-0.05505 0.02002-0.12012-0.03003-0.16016zm-1.8569 0.53554c-0.41542 0-0.75075-0.33534-0.75075-0.75075 0-0.41542 0.33534-0.75075 0.75075-0.75075 0.41542 0 0.75075 0.33534 0.75075 0.75075 0 0.41541-0.33534 0.75075-0.75075 0.75075z" fill="#555555" stroke-width=".5005"/>
</svg>
