<svg width="16" height="16" xmlns="http://www.w3.org/2000/svg"><path d="M7.6 0C6.713 0 6 .713 6 1.6v.75a6 6 0 0 0-1.893 1.093l-.65-.375a1.596 1.596 0 0 0-2.186.586l-.4.692a1.596 1.596 0 0 0 .586 2.185l.648.375A6 6 0 0 0 2 8a6 6 0 0 0 .105 1.094l-.648.375a1.596 1.596 0 0 0-.586 2.185l.4.692a1.596 1.596 0 0 0 2.186.586l.647-.373A6 6 0 0 0 6 13.649v-2.204C4.81 10.752 4 9.477 4 8a3.995 3.995 0 0 1 2-3.451V7l2 1.5L10 7V4.547c1.224.709 2 2.016 2 3.453 0 1.477-.81 2.752-2 3.445v2.2a6 6 0 0 0 1.893-1.088l.65.375a1.596 1.596 0 0 0 2.186-.586l.4-.692a1.596 1.596 0 0 0-.586-2.185l-.648-.375A6 6 0 0 0 14 8a6 6 0 0 0-.105-1.094l.648-.375a1.596 1.596 0 0 0 .586-2.185l-.4-.692a1.596 1.596 0 0 0-2.186-.586l-.647.373A6 6 0 0 0 10 2.351V1.6C10 .713 9.287 0 8.4 0zM8 10.2c-.554 0-1 .357-1 .8v3.2c0 .442.446.8 1 .8s1-.358 1-.8V11c0-.443-.446-.8-1-.8z" fill="#444"/></svg>