<svg width="16" height="16" version="1.1" viewBox="0 0 4.2332 4.2332" xmlns="http://www.w3.org/2000/svg">
 <path d="m2.947 0.26561a0.26143 0.26143 0 0 0-0.1173 0.043924c0.10221-0.055919 0.21084-0.0031457 0.21084 0.18241v0.771 1.7063 0.0010336 0.76996c0 0.18065-0.10249 0.23484-0.20205 0.18655 0.041306 0.023712 0.097864 0.046939 0.14883 0.040824a0.16449 0.16449 0 0 0 0.052709-0.015503l0.7617-0.37361c0.083343-0.040794 0.16691-0.074279 0.16691-0.16639v-2.5905c0-0.092116-0.083568-0.1256-0.16691-0.16639l-0.7617-0.37413a0.16405 0.16405 0 0 0-0.093016-0.014986v-5.1676e-4z" fill="#565656" fill-rule="evenodd" stroke-width=".11624" style="paint-order:stroke fill markers"/>
 <path d="m2.9135 0.28835c-0.042113-0.0025831-0.088981 0.016825-0.13126 0.055809l-1.4371 1.3281 0.5798 0.44389 1.1157-0.85316v-0.771c0-0.13434-0.056933-0.1993-0.12712-0.2036zm-2.0489 1.8278-0.5612 0.51882c-0.048251 0.044304-0.082676 0.12245-0.021704 0.18035l0.23151 0.22014c0.091239 0.086852 0.19528 0.011507 0.23564-0.019637l0.59633-0.45578-0.48058-0.44389z" fill="#565656" fill-rule="evenodd" opacity=".7" stroke-width=".11624" style="paint-order:stroke fill markers"/>
 <path d="m0.30332 1.5972 2.4788 2.2911c0.11273 0.10396 0.25836 0.067113 0.25836-0.14826v-0.77071l-2.2915-1.7528c-0.040356-0.031583-0.14475-0.10659-0.23599-0.020178l-0.23161 0.22064c-0.060972 0.057902-0.026319 0.13598 0.021932 0.18028z" fill="#565656" fill-rule="evenodd" opacity=".85" stroke-width=".11624" style="paint-order:stroke fill markers"/>
</svg>
