<svg width="24" height="24" version="1.1" xmlns="http://www.w3.org/2000/svg">
 <defs>
  <style id="current-color-scheme" type="text/css">.ColorScheme-Text { color:#dedede; } .ColorScheme-Highlight { color:#5294e2; }</style>
 </defs>
 <path d="m3 5v2h2v-2h-2zm3 0v2h2v-2h-2zm3 0v2h2v-2h-2zm3 0v2h2v-2h-2zm3 0v2h2v-2h-2zm3 0v2h2v-2h-2zm-15 3v2h2v-2h-2zm15 0v2h2v-2h-2zm-15 3v2h2v-2h-2zm15 0v2h2v-2h-2zm-15 3v2h2v-2h-2zm15 0v3h-3v2h3v3h2v-3h3v-2h-3v-3h-2zm-15 3v2h2v-2h-2zm3 0v2h2v-2h-2zm3 0v2h2v-2h-2zm3 0v2h2v-2h-2z" class="ColorScheme-Text" style="fill:currentColor"/>
</svg>
