<?xml version="1.0" encoding="UTF-8" standalone="no"?>
<svg
   xmlns:dc="http://purl.org/dc/elements/1.1/"
   xmlns:cc="http://creativecommons.org/ns#"
   xmlns:rdf="http://www.w3.org/1999/02/22-rdf-syntax-ns#"
   xmlns:svg="http://www.w3.org/2000/svg"
   xmlns="http://www.w3.org/2000/svg"
   xmlns:xlink="http://www.w3.org/1999/xlink"
   xmlns:sodipodi="http://sodipodi.sourceforge.net/DTD/sodipodi-0.dtd"
   xmlns:inkscape="http://www.inkscape.org/namespaces/inkscape"
   width="48px"
   height="48px"
   viewBox="0 0 48 48"
   version="1.1"
   id="svg18"
   sodipodi:docname="application-octet-stream.svg"
   inkscape:version="0.92.2 2405546, 2018-03-11">
  <metadata
     id="metadata22">
    <rdf:RDF>
      <cc:Work
         rdf:about="">
        <dc:format>image/svg+xml</dc:format>
        <dc:type
           rdf:resource="http://purl.org/dc/dcmitype/StillImage" />
      </cc:Work>
    </rdf:RDF>
  </metadata>
  <sodipodi:namedview
     pagecolor="#ffffff"
     bordercolor="#666666"
     borderopacity="1"
     objecttolerance="10"
     gridtolerance="10"
     guidetolerance="10"
     inkscape:pageopacity="0"
     inkscape:pageshadow="2"
     inkscape:window-width="1260"
     inkscape:window-height="720"
     id="namedview20"
     showgrid="false"
     inkscape:zoom="4.9166667"
     inkscape:cx="60.012333"
     inkscape:cy="44.021909"
     inkscape:window-x="478"
     inkscape:window-y="125"
     inkscape:window-maximized="0"
     inkscape:current-layer="svg18" />
  <!-- Generator: Sketch 41.2 (35397) - http://www.bohemiancoding.com/sketch -->
  <title
     id="title2">application-octet-stream</title>
  <desc
     id="desc4">Created with Sketch.</desc>
  <g
     id="g829">
    <rect
       rx="2"
       ry="1.9047618"
       y="4"
       x="6"
       height="40"
       width="36"
       id="rect834"
       style="opacity:1;fill:#cccccc;fill-opacity:1;stroke:none;stroke-width:0.92582005;stroke-linecap:round;stroke-linejoin:round;stroke-miterlimit:4;stroke-dasharray:none;stroke-opacity:0.05882353;paint-order:markers stroke fill" />
    <path
       inkscape:connector-curvature="0"
       id="rect866"
       d="M 42,17.242188 A 40,40 0 0 1 23.494141,44 H 40 c 1.108,0 2,-0.849059 2,-1.904297 z"
       style="opacity:0.15;fill:url(#linearGradient877);fill-opacity:1;stroke:none;stroke-width:0.92582005;stroke-linecap:round;stroke-linejoin:round;stroke-miterlimit:4;stroke-dasharray:none;stroke-opacity:0.05882353;paint-order:markers stroke fill" />
  </g>
  <defs
     id="defs11">
    <linearGradient
       x1="90.7002767%"
       y1="6.56534831%"
       x2="35.3271484%"
       y2="64.1438802%"
       id="linearGradient-1">
      <stop
         stop-color="#93DEF2"
         offset="0%"
         id="stop6" />
      <stop
         stop-color="#5ABADF"
         offset="100%"
         id="stop8" />
    </linearGradient>
    <linearGradient
       inkscape:collect="always"
       xlink:href="#linearGradient875"
       id="linearGradient877"
       x1="32.74707"
       y1="44"
       x2="32.74707"
       y2="17.242188"
       gradientUnits="userSpaceOnUse" />
    <linearGradient
       inkscape:collect="always"
       id="linearGradient875">
      <stop
         style="stop-color:#000000;stop-opacity:1;"
         offset="0"
         id="stop871" />
      <stop
         style="stop-color:#000000;stop-opacity:0;"
         offset="1"
         id="stop873" />
    </linearGradient>
  </defs>
  <g
     id="Page-1"
     transform="translate(0,-1.1640625)"
     style="fill:none;fill-rule:evenodd;stroke:none;stroke-width:1">
    <g
       id="application-octet-stream">
      <path
         d="m 19.359375,20.191406 c 0,0.427086 -0.02604,0.794269 -0.07813,1.101563 -0.05208,0.307293 -0.148437,0.585936 -0.289063,0.835937 -0.177084,0.307293 -0.406248,0.54427 -0.6875,0.710938 -0.281251,0.166667 -0.593748,0.25 -0.9375,0.25 -0.395835,0 -0.750649,-0.111978 -1.064453,-0.335938 -0.313803,-0.223959 -0.550129,-0.533852 -0.708984,-0.929687 -0.08073,-0.216147 -0.139974,-0.455077 -0.177734,-0.716797 -0.03776,-0.26172 -0.05664,-0.544921 -0.05664,-0.84961 0,-0.393231 0.02083,-0.747394 0.0625,-1.0625 0.04167,-0.315105 0.10677,-0.585936 0.195313,-0.8125 0.153646,-0.375001 0.376951,-0.660806 0.669921,-0.857421 0.292971,-0.196616 0.642577,-0.294922 1.048828,-0.294922 0.268231,0 0.511718,0.04362 0.730469,0.130859 0.218751,0.08724 0.410807,0.214843 0.576172,0.382813 0.165365,0.167969 0.305338,0.375649 0.419922,0.623046 0.197918,0.42969 0.296875,1.037757 0.296875,1.824219 z m -1.070313,-0.07813 c 0,-0.476565 -0.02865,-0.866535 -0.08594,-1.169922 -0.05729,-0.303387 -0.153645,-0.532551 -0.289063,-0.6875 -0.135417,-0.154948 -0.322915,-0.232422 -0.5625,-0.232422 -0.343751,0 -0.582681,0.173176 -0.716796,0.519532 -0.134116,0.346356 -0.201172,0.880204 -0.201172,1.601562 0,0.489586 0.02865,0.890624 0.08594,1.203125 0.05729,0.312502 0.153645,0.548828 0.289063,0.708985 0.135417,0.160157 0.319009,0.240234 0.550781,0.240234 0.239584,0 0.427083,-0.08333 0.5625,-0.25 0.135417,-0.166668 0.230468,-0.404946 0.285156,-0.714844 0.05469,-0.309897 0.08203,-0.716143 0.08203,-1.21875 z m 3.707032,2.351563 v -3.554688 c -0.661462,0.507815 -1.10677,0.761719 -1.335938,0.761719 -0.109375,0 -0.20638,-0.04362 -0.291015,-0.130859 -0.08464,-0.08724 -0.126954,-0.188151 -0.126954,-0.302735 0,-0.132813 0.04167,-0.230468 0.125,-0.292969 0.08333,-0.0625 0.230468,-0.143228 0.441407,-0.242187 0.315105,-0.148438 0.567056,-0.304687 0.755859,-0.46875 0.188803,-0.164063 0.356119,-0.347655 0.501953,-0.550781 0.145834,-0.203126 0.240885,-0.328125 0.285156,-0.375 0.04427,-0.04688 0.127604,-0.07031 0.25,-0.07031 0.138022,0 0.248698,0.05338 0.332032,0.160156 0.08333,0.106772 0.125,0.253906 0.125,0.441407 V 22.3125 c 0,0.52344 -0.178384,0.785156 -0.535157,0.785156 -0.158855,0 -0.286457,-0.05339 -0.382812,-0.160156 -0.09635,-0.106771 -0.144531,-0.264322 -0.144531,-0.472656 z m 6.871093,-2.273438 c 0,0.427086 -0.02604,0.794269 -0.07813,1.101563 -0.05208,0.307293 -0.148436,0.585936 -0.289062,0.835937 -0.177084,0.307293 -0.406249,0.54427 -0.6875,0.710938 -0.281251,0.166667 -0.593748,0.25 -0.9375,0.25 -0.395835,0 -0.75065,-0.111978 -1.064453,-0.335938 -0.313804,-0.223959 -0.55013,-0.533852 -0.708985,-0.929687 -0.08073,-0.216147 -0.139973,-0.455077 -0.177734,-0.716797 -0.03776,-0.26172 -0.05664,-0.544921 -0.05664,-0.84961 0,-0.393231 0.02083,-0.747394 0.0625,-1.0625 0.04167,-0.315105 0.106771,-0.585936 0.195313,-0.8125 0.153647,-0.375001 0.376952,-0.660806 0.669922,-0.857421 0.29297,-0.196616 0.642576,-0.294922 1.048828,-0.294922 0.268231,0 0.511718,0.04362 0.730469,0.130859 0.218751,0.08724 0.410806,0.214843 0.576172,0.382813 0.165365,0.167969 0.305338,0.375649 0.419921,0.623046 0.197918,0.42969 0.296875,1.037757 0.296875,1.824219 z m -1.070312,-0.07813 c 0,-0.476565 -0.02865,-0.866535 -0.08594,-1.169922 -0.05729,-0.303387 -0.153645,-0.532551 -0.289062,-0.6875 -0.135417,-0.154948 -0.322916,-0.232422 -0.5625,-0.232422 -0.343752,0 -0.582682,0.173176 -0.716797,0.519532 -0.134115,0.346356 -0.201172,0.880204 -0.201172,1.601562 0,0.489586 0.02865,0.890624 0.08594,1.203125 0.05729,0.312502 0.153645,0.548828 0.289062,0.708985 0.135418,0.160157 0.319009,0.240234 0.550781,0.240234 0.239585,0 0.427083,-0.08333 0.5625,-0.25 0.135418,-0.166668 0.230469,-0.404946 0.285157,-0.714844 0.05469,-0.309897 0.08203,-0.716143 0.08203,-1.21875 z m 5.824219,0.07813 c 0,0.427086 -0.02604,0.794269 -0.07813,1.101563 -0.05208,0.307293 -0.148437,0.585936 -0.289063,0.835937 -0.177084,0.307293 -0.406248,0.54427 -0.6875,0.710938 -0.281251,0.166667 -0.593748,0.25 -0.9375,0.25 -0.395835,0 -0.750649,-0.111978 -1.064453,-0.335938 -0.313803,-0.223959 -0.550129,-0.533852 -0.708984,-0.929687 -0.08073,-0.216147 -0.139974,-0.455077 -0.177735,-0.716797 -0.03776,-0.26172 -0.05664,-0.544921 -0.05664,-0.84961 0,-0.393231 0.02083,-0.747394 0.0625,-1.0625 0.04167,-0.315105 0.10677,-0.585936 0.195312,-0.8125 0.153647,-0.375001 0.376952,-0.660806 0.669922,-0.857421 0.29297,-0.196616 0.642576,-0.294922 1.048828,-0.294922 0.268231,0 0.511718,0.04362 0.730469,0.130859 0.218751,0.08724 0.410806,0.214843 0.576172,0.382813 0.165365,0.167969 0.305338,0.375649 0.419922,0.623046 0.197917,0.42969 0.296875,1.037757 0.296875,1.824219 z m -1.070313,-0.07813 c 0,-0.476565 -0.02864,-0.866535 -0.08594,-1.169922 -0.05729,-0.303387 -0.153645,-0.532551 -0.289063,-0.6875 -0.135417,-0.154948 -0.322915,-0.232422 -0.5625,-0.232422 -0.343752,0 -0.582681,0.173176 -0.716797,0.519532 -0.134115,0.346356 -0.201172,0.880204 -0.201172,1.601562 0,0.489586 0.02865,0.890624 0.08594,1.203125 0.05729,0.312502 0.153645,0.548828 0.289062,0.708985 0.135418,0.160157 0.31901,0.240234 0.550782,0.240234 0.239584,0 0.427082,-0.08333 0.5625,-0.25 0.135417,-0.166668 0.230468,-0.404946 0.285156,-0.714844 0.05469,-0.309897 0.08203,-0.716143 0.08203,-1.21875 z M 17.242187,32.464844 v -3.554688 c -0.661461,0.507815 -1.106769,0.761719 -1.335937,0.761719 -0.109375,0 -0.20638,-0.04362 -0.291016,-0.130859 -0.08463,-0.08724 -0.126953,-0.188151 -0.126953,-0.302735 0,-0.132813 0.04167,-0.230468 0.125,-0.292969 0.08333,-0.0625 0.230468,-0.143228 0.441406,-0.242187 0.315106,-0.148438 0.567057,-0.304687 0.75586,-0.46875 0.188803,-0.164063 0.356119,-0.347655 0.501953,-0.550781 0.145834,-0.203126 0.240885,-0.328125 0.285156,-0.375 0.04427,-0.04688 0.127604,-0.07031 0.25,-0.07031 0.138022,0 0.248698,0.05338 0.332031,0.160156 0.08333,0.106772 0.125,0.253906 0.125,0.441407 V 32.3125 c 0,0.52344 -0.178383,0.785156 -0.535156,0.785156 -0.158855,0 -0.286458,-0.05338 -0.382812,-0.160156 -0.09635,-0.106771 -0.144532,-0.264322 -0.144532,-0.472656 z m 6.871094,-2.273438 c 0,0.427086 -0.02604,0.794269 -0.07813,1.101563 -0.05208,0.307293 -0.148436,0.585936 -0.289062,0.835937 -0.177085,0.307293 -0.406249,0.54427 -0.6875,0.710938 -0.281252,0.166667 -0.593749,0.25 -0.9375,0.25 -0.395836,0 -0.75065,-0.111978 -1.064453,-0.335938 -0.313804,-0.223959 -0.55013,-0.533852 -0.708985,-0.929687 -0.08073,-0.216147 -0.139974,-0.455077 -0.177734,-0.716797 -0.03776,-0.26172 -0.05664,-0.544921 -0.05664,-0.84961 0,-0.393231 0.02083,-0.747394 0.0625,-1.0625 0.04167,-0.315105 0.106771,-0.585936 0.195313,-0.8125 0.153646,-0.375001 0.376951,-0.660806 0.669922,-0.857421 0.29297,-0.196616 0.642576,-0.294922 1.048828,-0.294922 0.26823,0 0.511717,0.04362 0.730468,0.130859 0.218752,0.08724 0.410807,0.214843 0.576172,0.382813 0.165366,0.167969 0.305338,0.375649 0.419922,0.623046 0.197918,0.42969 0.296875,1.037757 0.296875,1.824219 z m -1.070312,-0.07813 c 0,-0.476565 -0.02865,-0.866535 -0.08594,-1.169922 -0.05729,-0.303387 -0.153645,-0.532551 -0.289062,-0.6875 -0.135418,-0.154948 -0.322916,-0.232422 -0.5625,-0.232422 -0.343752,0 -0.582682,0.173176 -0.716797,0.519532 -0.134115,0.346356 -0.201172,0.880204 -0.201172,1.601562 0,0.489586 0.02865,0.890624 0.08594,1.203125 0.05729,0.312502 0.153646,0.548828 0.289063,0.708985 0.135417,0.160157 0.319009,0.240234 0.550781,0.240234 0.239585,0 0.427083,-0.08333 0.5625,-0.25 0.135418,-0.166668 0.230469,-0.404946 0.285156,-0.714844 0.05469,-0.309897 0.08203,-0.716143 0.08203,-1.21875 z m 5.824218,0.07813 c 0,0.427086 -0.02604,0.794269 -0.07813,1.101563 -0.05208,0.307293 -0.148436,0.585936 -0.289062,0.835937 -0.177084,0.307293 -0.406249,0.54427 -0.6875,0.710938 -0.281251,0.166667 -0.593748,0.25 -0.9375,0.25 -0.395835,0 -0.75065,-0.111978 -1.064453,-0.335938 -0.313804,-0.223959 -0.55013,-0.533852 -0.708985,-0.929687 -0.08073,-0.216147 -0.139973,-0.455077 -0.177734,-0.716797 -0.03776,-0.26172 -0.05664,-0.544921 -0.05664,-0.84961 0,-0.393231 0.02083,-0.747394 0.0625,-1.0625 0.04167,-0.315105 0.106771,-0.585936 0.195313,-0.8125 0.153647,-0.375001 0.376952,-0.660806 0.669922,-0.857421 0.29297,-0.196616 0.642576,-0.294922 1.048828,-0.294922 0.268231,0 0.511718,0.04362 0.730469,0.130859 0.218751,0.08724 0.410806,0.214843 0.576172,0.382813 0.165365,0.167969 0.305338,0.375649 0.419921,0.623046 0.197918,0.42969 0.296875,1.037757 0.296875,1.824219 z m -1.070312,-0.07813 c 0,-0.476565 -0.02865,-0.866535 -0.08594,-1.169922 -0.05729,-0.303387 -0.153645,-0.532551 -0.289062,-0.6875 -0.135417,-0.154948 -0.322916,-0.232422 -0.5625,-0.232422 -0.343752,0 -0.582682,0.173176 -0.716797,0.519532 -0.134115,0.346356 -0.201172,0.880204 -0.201172,1.601562 0,0.489586 0.02865,0.890624 0.08594,1.203125 0.05729,0.312502 0.153645,0.548828 0.289062,0.708985 0.135418,0.160157 0.319009,0.240234 0.550781,0.240234 0.239585,0 0.427083,-0.08333 0.5625,-0.25 0.135418,-0.166668 0.230469,-0.404946 0.285157,-0.714844 0.05469,-0.309897 0.08203,-0.716143 0.08203,-1.21875 z m 3.707031,2.351563 v -3.554688 c -0.661461,0.507815 -1.106769,0.761719 -1.335937,0.761719 -0.109376,0 -0.20638,-0.04362 -0.291016,-0.130859 C 29.792317,29.453776 29.75,29.352865 29.75,29.238281 c 0,-0.132813 0.04167,-0.230468 0.125,-0.292969 0.08333,-0.0625 0.230468,-0.143228 0.441406,-0.242187 0.315106,-0.148438 0.567057,-0.304687 0.75586,-0.46875 0.188803,-0.164063 0.356119,-0.347655 0.501953,-0.550781 0.145834,-0.203126 0.240885,-0.328125 0.285156,-0.375 0.04427,-0.04688 0.127604,-0.07031 0.25,-0.07031 0.138021,0 0.248697,0.05338 0.332031,0.160156 0.08333,0.106772 0.125,0.253906 0.125,0.441407 V 32.3125 c 0,0.52344 -0.178383,0.785156 -0.535156,0.785156 -0.158855,0 -0.286458,-0.05338 -0.382813,-0.160156 -0.09635,-0.106771 -0.144531,-0.264322 -0.144531,-0.472656 z"
         id="0100"
         inkscape:connector-curvature="0"
         style="fill:#ffffff" />
    </g>
  </g>
</svg>
