<?xml version="1.0" encoding="UTF-8" standalone="no"?>
<svg
   xmlns:dc="http://purl.org/dc/elements/1.1/"
   xmlns:cc="http://creativecommons.org/ns#"
   xmlns:rdf="http://www.w3.org/1999/02/22-rdf-syntax-ns#"
   xmlns:svg="http://www.w3.org/2000/svg"
   xmlns="http://www.w3.org/2000/svg"
   xmlns:xlink="http://www.w3.org/1999/xlink"
   xmlns:sodipodi="http://sodipodi.sourceforge.net/DTD/sodipodi-0.dtd"
   xmlns:inkscape="http://www.inkscape.org/namespaces/inkscape"
   width="48px"
   height="48px"
   viewBox="0 0 48 48"
   version="1.1"
   id="svg21"
   sodipodi:docname="application-ffDiaporama.svg"
   inkscape:version="0.92.2 2405546, 2018-03-11">
  <metadata
     id="metadata25">
    <rdf:RDF>
      <cc:Work
         rdf:about="">
        <dc:format>image/svg+xml</dc:format>
        <dc:type
           rdf:resource="http://purl.org/dc/dcmitype/StillImage" />
      </cc:Work>
    </rdf:RDF>
  </metadata>
  <sodipodi:namedview
     pagecolor="#ffffff"
     bordercolor="#666666"
     borderopacity="1"
     objecttolerance="10"
     gridtolerance="10"
     guidetolerance="10"
     inkscape:pageopacity="0"
     inkscape:pageshadow="2"
     inkscape:window-width="1920"
     inkscape:window-height="1051"
     id="namedview23"
     showgrid="false"
     inkscape:zoom="6.9532165"
     inkscape:cx="43.519083"
     inkscape:cy="47.982847"
     inkscape:window-x="0"
     inkscape:window-y="29"
     inkscape:window-maximized="1"
     inkscape:current-layer="svg21" />
  <!-- Generator: Sketch 41.2 (35397) - http://www.bohemiancoding.com/sketch -->
  <title
     id="title2">application-ffDiaporama</title>
  <desc
     id="desc4">Created with Sketch.</desc>
  <g
     id="g895">
    <rect
       rx="2"
       ry="1.9047618"
       y="4"
       x="6"
       height="40"
       width="36"
       id="rect891"
       style="opacity:1;fill:#5294e2;fill-opacity:1;stroke:none;stroke-width:0.92582005;stroke-linecap:round;stroke-linejoin:round;stroke-miterlimit:4;stroke-dasharray:none;stroke-opacity:0.05882353;paint-order:markers stroke fill" />
    <path
       inkscape:connector-curvature="0"
       id="path893"
       d="M 42,17.242188 A 40,40 0 0 1 23.494141,44 H 40 c 1.108,0 2,-0.849059 2,-1.904297 z"
       style="opacity:0.15;fill:url(#linearGradient897);fill-opacity:1;stroke:none;stroke-width:0.92582005;stroke-linecap:round;stroke-linejoin:round;stroke-miterlimit:4;stroke-dasharray:none;stroke-opacity:0.05882353;paint-order:markers stroke fill" />
  </g>
  <defs
     id="defs11">
    <linearGradient
       inkscape:collect="always"
       id="linearGradient837">
      <stop
         style="stop-color:#000000;stop-opacity:1;"
         offset="0"
         id="stop833" />
      <stop
         style="stop-color:#000000;stop-opacity:0;"
         offset="1"
         id="stop835" />
    </linearGradient>
    <linearGradient
       inkscape:collect="always"
       xlink:href="#linearGradient875"
       id="linearGradient897"
       gradientUnits="userSpaceOnUse"
       x1="32.74707"
       y1="44"
       x2="32.74707"
       y2="17.242188" />
    <linearGradient
       inkscape:collect="always"
       id="linearGradient875">
      <stop
         style="stop-color:#000000;stop-opacity:1;"
         offset="0"
         id="stop871" />
      <stop
         style="stop-color:#000000;stop-opacity:0;"
         offset="1"
         id="stop873" />
    </linearGradient>
    <linearGradient
       inkscape:collect="always"
       xlink:href="#linearGradient837"
       id="linearGradient839"
       x1="21.285113"
       y1="35.706185"
       x2="21.285112"
       y2="26.367022"
       gradientUnits="userSpaceOnUse" />
  </defs>
  <path
     d="m 9.8080697,23.204417 c 0,0 5.2444273,10.712751 13.1158503,12.157319 7.868235,1.446959 11.991589,-1.923434 10.865734,-5.294625 -1.123465,-3.370393 -6.993367,-6.501752 -10.616341,-3.610225 -3.622974,2.88834 -3.744085,2.044546 -6.492191,0.961718 -2.748105,-1.082829 -4.497841,-6.501752 -4.497841,-6.501752 0,0 -1.74894,-4.093076 -3.1217973,-2.287565 -1.3760448,1.808698 0.7473828,4.57513 0.7473828,4.57513 m 0,0"
     style="fill:url(#linearGradient839);fill-rule:nonzero;stroke:none;stroke-width:0.79678333;fill-opacity:1;opacity:0.1"
     id="path31"
     inkscape:connector-curvature="0" />
  <path
     inkscape:connector-curvature="0"
     d="m 16.328865,14 c -0.320908,0.02354 -0.784067,0.231949 -1.455519,0.817925 -1.276861,0.752525 -0.863659,1.808502 -0.555451,2.315998 0.221841,-0.344435 0.615568,-0.810949 1.270085,-1.444011 0.605409,-0.582488 1.187109,-0.851932 1.667202,-0.998426 L 16.990157,14.337459 C 16.844522,14.146494 16.653161,13.98692 16.328865,14.010464 m 1.375928,1.277461 c -0.48602,0.12295 -1.101588,0.361003 -1.719698,0.844956 -0.760359,0.599928 -1.091428,1.134456 -1.243838,1.502435 l 4.392807,3.814946 c 0.182045,-0.364491 0.416587,-0.735958 0.740883,-1.089985 0.353931,-0.384546 0.694315,-0.636551 1.008449,-0.848444 L 17.70818,15.287925 m 7.485042,4.199493 c -0.251477,0 -0.515655,0.01046 -0.767132,0.01743 -1.174406,0.06801 -2.252286,0.2895 -3.069375,0.544992 -0.01355,0.02005 -0.03641,-0.01046 -0.05334,0 -0.211681,0.166551 -0.466545,0.418555 -0.846724,0.820541 -0.347157,0.364491 -0.595247,0.705438 -0.767133,1.038537 -0.0068,0.02005 -0.01693,0.05493 -0.02625,0.08197 -0.919542,2.551435 0.175273,6.849463 4.207372,7.847889 4.570619,1.127479 4.816169,-0.09156 6.773795,1.253918 1.967787,1.341989 0.866199,3.375463 1.79929,2.810416 0.479246,-0.286012 1.997423,-2.424997 1.43181,-5.912949 -0.612181,-3.736466 -2.205716,-5.725469 -3.810259,-7.084899 -1.243838,-1.055976 -3.088851,-1.416979 -4.868665,-1.416979 m -0.0034,0"
     style="fill:#ffffff;fill-opacity:1;fill-rule:nonzero;stroke:none;stroke-width:0.85926312"
     id="path33" />
</svg>
