<?xml version="1.0" encoding="UTF-8" standalone="no"?>
<svg
   xmlns:dc="http://purl.org/dc/elements/1.1/"
   xmlns:cc="http://creativecommons.org/ns#"
   xmlns:rdf="http://www.w3.org/1999/02/22-rdf-syntax-ns#"
   xmlns:svg="http://www.w3.org/2000/svg"
   xmlns="http://www.w3.org/2000/svg"
   xmlns:xlink="http://www.w3.org/1999/xlink"
   xmlns:sodipodi="http://sodipodi.sourceforge.net/DTD/sodipodi-0.dtd"
   xmlns:inkscape="http://www.inkscape.org/namespaces/inkscape"
   width="48px"
   height="48px"
   viewBox="0 0 48 48"
   version="1.1"
   id="svg18"
   sodipodi:docname="application-x-class-file.svg"
   inkscape:version="0.92.2 2405546, 2018-03-11">
  <metadata
     id="metadata22">
    <rdf:RDF>
      <cc:Work
         rdf:about="">
        <dc:format>image/svg+xml</dc:format>
        <dc:type
           rdf:resource="http://purl.org/dc/dcmitype/StillImage" />
      </cc:Work>
    </rdf:RDF>
  </metadata>
  <sodipodi:namedview
     pagecolor="#ffffff"
     bordercolor="#666666"
     borderopacity="1"
     objecttolerance="10"
     gridtolerance="10"
     guidetolerance="10"
     inkscape:pageopacity="0"
     inkscape:pageshadow="2"
     inkscape:window-width="1920"
     inkscape:window-height="1051"
     id="namedview20"
     showgrid="false"
     inkscape:zoom="4.9166667"
     inkscape:cx="-2.8474576"
     inkscape:cy="24"
     inkscape:window-x="0"
     inkscape:window-y="29"
     inkscape:window-maximized="1"
     inkscape:current-layer="svg18" />
  <!-- Generator: Sketch 41.2 (35397) - http://www.bohemiancoding.com/sketch -->
  <title
     id="title2">application-x-class-file</title>
  <desc
     id="desc4">Created with Sketch.</desc>
  <g
     id="g829">
    <rect
       rx="2"
       ry="1.9047618"
       y="4"
       x="6"
       height="40"
       width="36"
       id="rect834"
       style="opacity:1;fill:#e64a19;fill-opacity:1;stroke:none;stroke-width:0.92582005;stroke-linecap:round;stroke-linejoin:round;stroke-miterlimit:4;stroke-dasharray:none;stroke-opacity:0.05882353;paint-order:markers stroke fill" />
    <path
       inkscape:connector-curvature="0"
       id="rect866"
       d="M 42,17.242188 A 40,40 0 0 1 23.494141,44 H 40 c 1.108,0 2,-0.849059 2,-1.904297 z"
       style="opacity:0.15;fill:url(#linearGradient877);fill-opacity:1;stroke:none;stroke-width:0.92582005;stroke-linecap:round;stroke-linejoin:round;stroke-miterlimit:4;stroke-dasharray:none;stroke-opacity:0.05882353;paint-order:markers stroke fill" />
  </g>
  <defs
     id="defs11">
    <linearGradient
       inkscape:collect="always"
       xlink:href="#linearGradient875"
       id="linearGradient877"
       x1="32.74707"
       y1="44"
       x2="32.74707"
       y2="17.242188"
       gradientUnits="userSpaceOnUse" />
    <linearGradient
       inkscape:collect="always"
       id="linearGradient875">
      <stop
         style="stop-color:#000000;stop-opacity:1;"
         offset="0"
         id="stop871" />
      <stop
         style="stop-color:#000000;stop-opacity:0;"
         offset="1"
         id="stop873" />
    </linearGradient>
  </defs>
  <g
     id="Page-1"
     transform="translate(0.76369813,0.41905951)"
     style="fill:none;fill-rule:evenodd;stroke:none;stroke-width:1">
    <g
       id="application-x-class-file">
      <path
         d="m 24.045408,17.5 c 3.838435,-3.938634 1,-6 1,-6 0,0 0.5,2 0,3 -0.5,1 -2.5,2.5 -4,3.5 -1.5,1 -2.500001,3.5 2,6.5 0,0 -1.5,-2 -1.5,-3.5 0,-1.5 2.460334,-3.459299 2.5,-3.5 z m 4.5,-1 c 0,0 -3.5,0.5 -5,2.5 -1.5,2 0,3 0.5,4 0.5,1 0,2.5 0,2.5 0,0 2.999999,-2.5 1,-4 -2,-1.5 3.5,-5 3.5,-5 z m -8,8 c 0,0 -4.5,0.5 -4.5,1.5 0,1 6,2.5 12,-0.5 0,0 -6,1 -9,0.5 -3,-0.5 1.5,-1.5 1.5,-1.5 z m -1.795081,7.047607 c 0,0 -4.5,0.5 -4.5,1.5 0,1 14.295081,2.452393 16.79508,-0.547607 0,0 -2.430832,0.800688 -5.499999,1 -3.076562,0.199792 -6.793277,-0.202092 -8.295081,-0.452393 -3,-0.5 1.5,-1.5 1.5,-1.5 z m 0.796192,2.961445 c 0,0 -2.122981,-0.501598 -2.001111,0.490948 0.09139,0.744311 7.008266,1.07922 11.35459,-0.183992 1.449541,-0.421293 2.613162,-1.020343 3.142311,-1.841247 0,0 -1.315451,0.968219 -4.337451,1.540082 C 24.675577,35.088084 21.566522,35.065411 20.045408,35 17.006835,34.869335 19.546519,34.509052 19.546519,34.509052 Z M 24.045408,28 c -3,0.5 -3.410718,0.621031 -4.5,0.5 -1.089282,-0.121031 -0.5,-1 -0.5,-1 0,0 -2,0.5 -1,1.5 1,1 6,0.5 9.5,-0.5 0,0 -0.500001,-1 -3.5,-0.5 z m -0.368132,2.743921 C 21.471805,31.1115 21.169862,31.200477 20.369069,31.1115 19.568275,31.02252 20.00149,30.376343 20.00149,30.376343 c 0,0 -1.470314,0.367578 -0.735157,1.102736 0.735157,0.735157 4.410943,0.367578 6.983994,-0.367579 0,0 -0.367579,-0.735157 -2.573051,-0.367579 z M 30.545408,26 c 0,-1.5 -2,-1 -2,-1 0,0 2.5,-1 3.5,0.5 1,1.5 -2.5,4 -4,4 0,0 2.5,-2 2.5,-3.5 z"
         id="Combined-Shape"
         inkscape:connector-curvature="0"
         style="fill:#ffffff" />
    </g>
  </g>
</svg>
