<?xml version="1.0" encoding="UTF-8" standalone="no"?>
<svg
   xmlns:dc="http://purl.org/dc/elements/1.1/"
   xmlns:cc="http://creativecommons.org/ns#"
   xmlns:rdf="http://www.w3.org/1999/02/22-rdf-syntax-ns#"
   xmlns:svg="http://www.w3.org/2000/svg"
   xmlns="http://www.w3.org/2000/svg"
   xmlns:xlink="http://www.w3.org/1999/xlink"
   xmlns:sodipodi="http://sodipodi.sourceforge.net/DTD/sodipodi-0.dtd"
   xmlns:inkscape="http://www.inkscape.org/namespaces/inkscape"
   width="48px"
   height="48px"
   viewBox="0 0 48 48"
   version="1.1"
   id="svg24"
   sodipodi:docname="application-msword-template.svg"
   inkscape:version="0.92.2 2405546, 2018-03-11">
  <metadata
     id="metadata28">
    <rdf:RDF>
      <cc:Work
         rdf:about="">
        <dc:format>image/svg+xml</dc:format>
        <dc:type
           rdf:resource="http://purl.org/dc/dcmitype/StillImage" />
      </cc:Work>
    </rdf:RDF>
  </metadata>
  <sodipodi:namedview
     pagecolor="#ffffff"
     bordercolor="#666666"
     borderopacity="1"
     objecttolerance="10"
     gridtolerance="10"
     guidetolerance="10"
     inkscape:pageopacity="0"
     inkscape:pageshadow="2"
     inkscape:window-width="1920"
     inkscape:window-height="1024"
     id="namedview26"
     showgrid="false"
     inkscape:zoom="9.8333333"
     inkscape:cx="1.7561331"
     inkscape:cy="24.17112"
     inkscape:window-x="0"
     inkscape:window-y="28"
     inkscape:window-maximized="1"
     inkscape:current-layer="svg24" />
  <!-- Generator: Sketch 41.2 (35397) - http://www.bohemiancoding.com/sketch -->
  <title
     id="title2">application-msword-template</title>
  <desc
     id="desc4">Created with Sketch.</desc>
  <g
     id="g829">
    <rect
       rx="2"
       ry="1.9047618"
       y="4"
       x="6"
       height="40"
       width="36"
       id="rect834"
       style="opacity:1;fill:#32a3d7;fill-opacity:1;stroke:none;stroke-width:0.92582005;stroke-linecap:round;stroke-linejoin:round;stroke-miterlimit:4;stroke-dasharray:none;stroke-opacity:0.05882353;paint-order:markers stroke fill" />
    <path
       inkscape:connector-curvature="0"
       id="rect866"
       d="M 42,17.242188 A 40,40 0 0 1 23.494141,44 H 40 c 1.108,0 2,-0.849059 2,-1.904297 z"
       style="opacity:0.15;fill:url(#linearGradient877);fill-opacity:1;stroke:none;stroke-width:0.92582005;stroke-linecap:round;stroke-linejoin:round;stroke-miterlimit:4;stroke-dasharray:none;stroke-opacity:0.05882353;paint-order:markers stroke fill" />
  </g>
  <defs
     id="defs11">
    <linearGradient
       x1="90.7002767%"
       y1="6.56534831%"
       x2="35.3271484%"
       y2="64.1438802%"
       id="linearGradient-1">
      <stop
         stop-color="#93DEF2"
         offset="0%"
         id="stop6" />
      <stop
         stop-color="#5ABADF"
         offset="100%"
         id="stop8" />
    </linearGradient>
    <linearGradient
       inkscape:collect="always"
       xlink:href="#linearGradient875"
       id="linearGradient877"
       x1="32.74707"
       y1="44"
       x2="32.74707"
       y2="17.242188"
       gradientUnits="userSpaceOnUse" />
    <linearGradient
       inkscape:collect="always"
       id="linearGradient875">
      <stop
         style="stop-color:#000000;stop-opacity:1;"
         offset="0"
         id="stop871" />
      <stop
         style="stop-color:#000000;stop-opacity:0;"
         offset="1"
         id="stop873" />
    </linearGradient>
  </defs>
  <g
     id="Page-1"
     stroke-width="1"
     stroke="none"
     fill-rule="evenodd"
     fill="none">
    <g
       id="application-msword-template">
      <g
         id="方块"
         transform="translate(5.000000, 5.000000)" />
      <g
         id="Group-30"
         transform="translate(14.000000, 17.000000)"
         fill="#FFFFFF">
        <g
           id="g74"
           transform="translate(0,-2.7820435)">
          <path
             id="Path-390"
             d="m 1,3.4078947 h 17.564087 c 0.414213,0 0.75,-0.3357864 0.75,-0.75 0,-0.4142135 -0.335787,-0.75 -0.75,-0.75 H 1 c -0.41421356,0 -0.75,0.3357865 -0.75,0.75 0,0.4142136 0.33578644,0.75 0.75,0.75 z"
             inkscape:connector-curvature="0" />
          <path
             id="Path-391"
             d="m 1.9078947,1 v 17.564087 c 0,0.414213 0.3357865,0.75 0.75,0.75 0.4142136,0 0.75,-0.335787 0.75,-0.75 V 1 c 0,-0.41421356 -0.3357864,-0.75 -0.75,-0.75 -0.4142135,0 -0.75,0.33578644 -0.75,0.75 z"
             inkscape:connector-curvature="0" />
          <path
             id="Path-392"
             d="m 1,16.671053 h 17.564087 c 0.414213,0 0.75,-0.335787 0.75,-0.75 0,-0.414214 -0.335787,-0.75 -0.75,-0.75 H 1 c -0.41421356,0 -0.75,0.335786 -0.75,0.75 0,0.414213 0.33578644,0.75 0.75,0.75 z"
             inkscape:connector-curvature="0" />
          <path
             id="Path-393"
             d="m 16.118421,1 v 17.564087 c 0,0.414213 0.335786,0.75 0.75,0.75 0.414214,0 0.75,-0.335787 0.75,-0.75 V 1 c 0,-0.41421356 -0.335786,-0.75 -0.75,-0.75 -0.414214,0 -0.75,0.33578644 -0.75,0.75 z"
             inkscape:connector-curvature="0" />
        </g>
      </g>
      <path
         d="m 24.678711,26.451172 -1.157227,-4.291992 -1.171875,4.291992 c -0.09115,0.325522 -0.163574,0.559081 -0.217285,0.700683 -0.05371,0.141603 -0.147297,0.268555 -0.280762,0.38086 -0.133464,0.112305 -0.310871,0.168457 -0.532226,0.168457 -0.179037,0 -0.326334,-0.03337 -0.441895,-0.100098 -0.11556,-0.06673 -0.209146,-0.161132 -0.280761,-0.283203 -0.07161,-0.122071 -0.130208,-0.266926 -0.175782,-0.43457 -0.04557,-0.167644 -0.08626,-0.323079 -0.12207,-0.466309 L 19.107422,21.597656 C 19.035807,21.317707 19,21.104493 19,20.958008 c 0,-0.185548 0.0651,-0.341796 0.195312,-0.46875 0.130209,-0.126954 0.291341,-0.19043 0.483399,-0.19043 0.263673,0 0.44108,0.08463 0.532226,0.253906 0.09115,0.169272 0.170899,0.415038 0.239258,0.737305 l 0.9375,4.179687 1.049805,-3.911132 c 0.07813,-0.299481 0.148112,-0.527343 0.209961,-0.683594 0.06185,-0.156251 0.16276,-0.291341 0.302734,-0.405274 0.139975,-0.113932 0.330403,-0.170898 0.571289,-0.170898 0.244142,0 0.433756,0.05941 0.568848,0.178223 0.135092,0.118816 0.228678,0.248209 0.280762,0.388183 0.05208,0.139975 0.12207,0.371092 0.209961,0.69336 l 1.05957,3.911132 0.9375,-4.179687 c 0.04557,-0.2181 0.0887,-0.388997 0.129394,-0.512695 0.04069,-0.123699 0.110677,-0.234375 0.209961,-0.332032 0.09928,-0.09766 0.243326,-0.146484 0.432129,-0.146484 0.188803,0 0.349121,0.06266 0.480957,0.187988 0.131837,0.125326 0.197754,0.282389 0.197754,0.471192 0,0.133464 -0.03581,0.346678 -0.107422,0.639648 l -1.191406,4.819336 c -0.08138,0.325523 -0.148925,0.563964 -0.202637,0.715332 -0.05371,0.151368 -0.144856,0.284017 -0.273437,0.397949 -0.128581,0.113933 -0.310058,0.170899 -0.544434,0.170899 -0.221355,0 -0.398762,-0.05534 -0.532226,-0.166016 -0.133464,-0.110677 -0.226237,-0.235188 -0.278321,-0.373535 -0.05208,-0.138347 -0.125325,-0.375161 -0.219726,-0.710449 z"
         id="W"
         inkscape:connector-curvature="0"
         style="fill:#ffffff" />
    </g>
  </g>
</svg>
