<?xml version="1.0" encoding="UTF-8" standalone="no"?>
<svg
   xmlns:dc="http://purl.org/dc/elements/1.1/"
   xmlns:cc="http://creativecommons.org/ns#"
   xmlns:rdf="http://www.w3.org/1999/02/22-rdf-syntax-ns#"
   xmlns:svg="http://www.w3.org/2000/svg"
   xmlns="http://www.w3.org/2000/svg"
   xmlns:xlink="http://www.w3.org/1999/xlink"
   xmlns:sodipodi="http://sodipodi.sourceforge.net/DTD/sodipodi-0.dtd"
   xmlns:inkscape="http://www.inkscape.org/namespaces/inkscape"
   width="48px"
   height="48px"
   viewBox="0 0 48 48"
   version="1.1"
   id="svg19"
   sodipodi:docname="application-text.svg"
   inkscape:version="0.92.2 2405546, 2018-03-11">
  <metadata
     id="metadata23">
    <rdf:RDF>
      <cc:Work
         rdf:about="">
        <dc:format>image/svg+xml</dc:format>
        <dc:type
           rdf:resource="http://purl.org/dc/dcmitype/StillImage" />
      </cc:Work>
    </rdf:RDF>
  </metadata>
  <sodipodi:namedview
     pagecolor="#ffffff"
     bordercolor="#666666"
     borderopacity="1"
     objecttolerance="10"
     gridtolerance="10"
     guidetolerance="10"
     inkscape:pageopacity="0"
     inkscape:pageshadow="2"
     inkscape:window-width="932"
     inkscape:window-height="615"
     id="namedview21"
     showgrid="false"
     inkscape:zoom="3.4766083"
     inkscape:cx="12.291697"
     inkscape:cy="52.221148"
     inkscape:window-x="640"
     inkscape:window-y="139"
     inkscape:window-maximized="0"
     inkscape:current-layer="svg19" />
  <!-- Generator: Sketch 41.2 (35397) - http://www.bohemiancoding.com/sketch -->
  <title
     id="title2">application-text</title>
  <desc
     id="desc4">Created with Sketch.</desc>
  <g
     id="g829">
    <rect
       rx="2"
       ry="1.9047618"
       y="4"
       x="6"
       height="40"
       width="36"
       id="rect834"
       style="opacity:1;fill:#f2f2f2;fill-opacity:1;stroke:none;stroke-width:0.92582005;stroke-linecap:round;stroke-linejoin:round;stroke-miterlimit:4;stroke-dasharray:none;stroke-opacity:0.05882353;paint-order:markers stroke fill" />
    <path
       inkscape:connector-curvature="0"
       id="rect866"
       d="M 42,17.242188 A 40,40 0 0 1 23.494141,44 H 40 c 1.108,0 2,-0.849059 2,-1.904297 z"
       style="opacity:0.15;fill:url(#linearGradient877);fill-opacity:1;stroke:none;stroke-width:0.92582005;stroke-linecap:round;stroke-linejoin:round;stroke-miterlimit:4;stroke-dasharray:none;stroke-opacity:0.05882353;paint-order:markers stroke fill" />
  </g>
  <defs
     id="defs11">
    <linearGradient
       inkscape:collect="always"
       xlink:href="#linearGradient875"
       id="linearGradient877"
       x1="32.74707"
       y1="44"
       x2="32.74707"
       y2="17.242188"
       gradientUnits="userSpaceOnUse" />
    <linearGradient
       inkscape:collect="always"
       id="linearGradient875">
      <stop
         style="stop-color:#000000;stop-opacity:1;"
         offset="0"
         id="stop871" />
      <stop
         style="stop-color:#000000;stop-opacity:0;"
         offset="1"
         id="stop873" />
    </linearGradient>
  </defs>
  <path
     style="fill:#808080;fill-rule:evenodd;stroke:none;stroke-width:1"
     d="m 14,17.5 c -0.554,0 -1,0.446 -1,1 v 11 c 0,0.554 0.446,1 1,1 h 20 c 0.554,0 1,-0.446 1,-1 v -11 c 0,-0.554 -0.446,-1 -1,-1 z m 4.175781,2.720703 c 0.201824,0 0.368815,0.03678 0.503907,0.113281 0.135092,0.0765 0.245116,0.176431 0.328124,0.296875 0.08301,0.120443 0.152019,0.248372 0.208985,0.386719 0.05697,0.138347 0.130859,0.323567 0.21875,0.554688 l 1.869141,4.61914 c 0.146485,0.351564 0.220703,0.608072 0.220703,0.767578 0,0.166016 -0.07063,0.316732 -0.208985,0.455078 -0.138347,0.138347 -0.304686,0.207032 -0.5,0.207032 -0.113933,0 -0.211587,-0.01986 -0.292968,-0.06055 -0.08138,-0.04069 -0.14974,-0.09603 -0.205079,-0.166016 -0.05534,-0.06999 -0.114257,-0.177408 -0.177734,-0.322265 -0.06348,-0.144858 -0.118488,-0.272135 -0.164063,-0.382813 l -0.341796,-0.898437 h -2.910157 l -0.341797,0.917968 c -0.133464,0.358075 -0.247395,0.599284 -0.341796,0.72461 -0.0944,0.125326 -0.249999,0.1875 -0.464844,0.1875 -0.182292,0 -0.342447,-0.06575 -0.482422,-0.199219 -0.139975,-0.133464 -0.210937,-0.285806 -0.210938,-0.455078 0,-0.09766 0.01823,-0.198567 0.05078,-0.302735 0.03255,-0.104167 0.08528,-0.248045 0.160156,-0.433593 l 1.832031,-4.648438 c 0.05208,-0.133464 0.114257,-0.293292 0.1875,-0.480469 0.07324,-0.187174 0.151367,-0.343098 0.234375,-0.466796 0.08301,-0.123699 0.191081,-0.224285 0.326172,-0.300782 0.135092,-0.0765 0.303384,-0.113281 0.501953,-0.113281 z m 4.910157,0 c 0.205079,0 0.363931,0.06543 0.474609,0.197266 0.110677,0.131837 0.166016,0.318358 0.166015,0.5625 v 2.037109 c 0.250653,-0.260418 0.505208,-0.459309 0.765626,-0.597656 0.260418,-0.138348 0.584632,-0.208984 0.96875,-0.208984 0.44271,0 0.830401,0.106444 1.164062,0.316406 0.33366,0.209962 0.591471,0.513344 0.775391,0.912109 0.18392,0.398765 0.277343,0.871092 0.277343,1.417969 0,0.403648 -0.05176,0.774412 -0.154296,1.111328 -0.10254,0.336916 -0.251953,0.629556 -0.447266,0.876953 -0.195314,0.247397 -0.432617,0.439127 -0.710938,0.574219 -0.278322,0.135091 -0.584632,0.201172 -0.919922,0.201172 -0.205079,0 -0.39746,-0.02344 -0.578124,-0.07227 -0.180665,-0.04883 -0.335937,-0.113606 -0.462891,-0.193359 -0.126953,-0.07975 -0.2347,-0.161458 -0.324219,-0.246094 -0.08952,-0.08464 -0.20703,-0.211588 -0.353516,-0.380859 v 0.132812 c 0,0.250652 -0.0612,0.439779 -0.18164,0.56836 -0.120443,0.128582 -0.273436,0.191406 -0.458984,0.191406 -0.188804,0 -0.338867,-0.06283 -0.451172,-0.191406 -0.112305,-0.128582 -0.167969,-0.317708 -0.167969,-0.56836 v -5.822266 c 0,-0.270184 0.05501,-0.472981 0.164062,-0.611328 0.10905,-0.138347 0.259766,-0.207031 0.455079,-0.207031 z m -4.921876,1.527344 -1.058593,2.953125 h 2.138672 z m 12.994141,0.445312 c 0.345054,0 0.661132,0.04947 0.949219,0.150391 0.288087,0.100912 0.532226,0.231119 0.732422,0.390625 0.200196,0.159506 0.35319,0.329101 0.458984,0.509766 0.105795,0.180665 0.160156,0.349608 0.160156,0.505859 0,0.159506 -0.06087,0.29362 -0.179687,0.404297 -0.118816,0.110678 -0.262369,0.166016 -0.431641,0.166015 -0.110677,0 -0.202147,-0.02701 -0.27539,-0.08398 -0.07324,-0.05697 -0.154947,-0.15039 -0.246094,-0.277344 -0.162761,-0.247397 -0.334309,-0.432941 -0.511719,-0.55664 -0.177409,-0.123698 -0.402342,-0.185547 -0.675781,-0.185547 -0.393882,0 -0.710285,0.155272 -0.951172,0.462891 -0.240886,0.307618 -0.361328,0.727861 -0.361328,1.261718 0,0.250653 0.02995,0.481444 0.0918,0.691406 0.06185,0.209963 0.15039,0.388997 0.267578,0.53711 0.117188,0.148112 0.259765,0.259439 0.425781,0.335937 0.166017,0.0765 0.348306,0.115235 0.546875,0.115235 0.266928,0 0.495117,-0.06185 0.685547,-0.185547 0.190431,-0.123699 0.359374,-0.312499 0.505859,-0.566406 0.08138,-0.149741 0.169271,-0.266927 0.263672,-0.351563 0.0944,-0.08464 0.208984,-0.126953 0.345703,-0.126953 0.162761,0 0.298828,0.06185 0.40625,0.185547 0.107423,0.123698 0.16211,0.256509 0.16211,0.396484 0,0.166016 -0.0511,0.342447 -0.150391,0.53125 -0.09928,0.188803 -0.249674,0.368164 -0.453125,0.539063 -0.203452,0.170899 -0.460285,0.309894 -0.769531,0.414062 -0.309247,0.104167 -0.65755,0.15625 -1.044922,0.15625 -0.823572,0 -1.465492,-0.240558 -1.927734,-0.720703 -0.462242,-0.480146 -0.69336,-1.124344 -0.69336,-1.93164 0,-0.546877 0.104817,-1.031248 0.316407,-1.451172 0.21159,-0.419924 0.517576,-0.743164 0.917968,-0.972657 0.400393,-0.229493 0.878904,-0.34375 1.435547,-0.34375 z m -6.048828,1.003907 c -0.253907,0 -0.481119,0.07063 -0.679687,0.208984 -0.198569,0.138347 -0.354818,0.337563 -0.46875,0.599609 -0.113932,0.262045 -0.169922,0.574217 -0.169922,0.935547 0,0.530602 0.120766,0.937825 0.363281,1.222656 0.242514,0.284833 0.561196,0.427735 0.955078,0.427735 0.335289,0 0.622719,-0.146157 0.865234,-0.4375 0.242514,-0.291342 0.365235,-0.708331 0.365235,-1.251953 0,-0.351565 -0.05143,-0.654296 -0.152344,-0.908203 -0.100912,-0.253908 -0.24414,-0.449544 -0.429688,-0.587891 -0.185546,-0.138347 -0.40104,-0.208984 -0.648437,-0.208984 z"
     id="Rectangle-272"
     inkscape:connector-curvature="0" />
</svg>
