<?xml version="1.0" encoding="UTF-8" standalone="no"?>
<svg
   xmlns:dc="http://purl.org/dc/elements/1.1/"
   xmlns:cc="http://creativecommons.org/ns#"
   xmlns:rdf="http://www.w3.org/1999/02/22-rdf-syntax-ns#"
   xmlns:svg="http://www.w3.org/2000/svg"
   xmlns="http://www.w3.org/2000/svg"
   xmlns:xlink="http://www.w3.org/1999/xlink"
   xmlns:sodipodi="http://sodipodi.sourceforge.net/DTD/sodipodi-0.dtd"
   xmlns:inkscape="http://www.inkscape.org/namespaces/inkscape"
   width="48px"
   height="48px"
   viewBox="0 0 48 48"
   version="1.1"
   id="svg37"
   sodipodi:docname="application-x-arc.svg"
   inkscape:version="0.92.2 2405546, 2018-03-11">
  <metadata
     id="metadata41">
    <rdf:RDF>
      <cc:Work
         rdf:about="">
        <dc:format>image/svg+xml</dc:format>
        <dc:type
           rdf:resource="http://purl.org/dc/dcmitype/StillImage" />
      </cc:Work>
    </rdf:RDF>
  </metadata>
  <sodipodi:namedview
     pagecolor="#ffffff"
     bordercolor="#666666"
     borderopacity="1"
     objecttolerance="10"
     gridtolerance="10"
     guidetolerance="10"
     inkscape:pageopacity="0"
     inkscape:pageshadow="2"
     inkscape:window-width="1300"
     inkscape:window-height="911"
     id="namedview39"
     showgrid="false"
     inkscape:zoom="4.9166667"
     inkscape:cx="24"
     inkscape:cy="24"
     inkscape:window-x="425"
     inkscape:window-y="205"
     inkscape:window-maximized="0"
     inkscape:current-layer="svg37" />
  <!-- Generator: Sketch 41.2 (35397) - http://www.bohemiancoding.com/sketch -->
  <title
     id="title2">application-x-arc</title>
  <desc
     id="desc4">Created with Sketch.</desc>
  <g
     id="g829">
    <rect
       rx="2"
       ry="1.9047618"
       y="4"
       x="6"
       height="40"
       width="36"
       id="rect834"
       style="opacity:1;fill:#4caf50;fill-opacity:1;stroke:none;stroke-width:0.92582005;stroke-linecap:round;stroke-linejoin:round;stroke-miterlimit:4;stroke-dasharray:none;stroke-opacity:0.05882353;paint-order:markers stroke fill" />
    <path
       inkscape:connector-curvature="0"
       id="rect866"
       d="M 42,17.242188 A 40,40 0 0 1 23.494141,44 H 40 c 1.108,0 2,-0.849059 2,-1.904297 z"
       style="opacity:0.15;fill:url(#linearGradient877);fill-opacity:1;stroke:none;stroke-width:0.92582005;stroke-linecap:round;stroke-linejoin:round;stroke-miterlimit:4;stroke-dasharray:none;stroke-opacity:0.05882353;paint-order:markers stroke fill" />
  </g>
  <defs
     id="defs11">
    <linearGradient
       x1="90.7002767%"
       y1="6.56534831%"
       x2="35.3271484%"
       y2="64.1438802%"
       id="linearGradient-1">
      <stop
         stop-color="#93DEF2"
         offset="0%"
         id="stop6" />
      <stop
         stop-color="#5ABADF"
         offset="100%"
         id="stop8" />
    </linearGradient>
    <linearGradient
       inkscape:collect="always"
       xlink:href="#linearGradient875"
       id="linearGradient877"
       x1="32.74707"
       y1="44"
       x2="32.74707"
       y2="17.242188"
       gradientUnits="userSpaceOnUse" />
    <linearGradient
       inkscape:collect="always"
       id="linearGradient875">
      <stop
         style="stop-color:#000000;stop-opacity:1;"
         offset="0"
         id="stop871" />
      <stop
         style="stop-color:#000000;stop-opacity:0;"
         offset="1"
         id="stop873" />
    </linearGradient>
  </defs>
  <g
     id="Page-1"
     stroke="none"
     stroke-width="1"
     fill="none"
     fill-rule="evenodd">
    <g
       id="application-x-arc">
      <polygon
         id="Rectangle-327"
         fill="#FFFFFF"
         points="12 10 14.6666667 10 16 11 14.6666667 12 12 12" />
      <polygon
         id="polygon15"
         fill="#FFFFFF"
         transform="translate(16.000000, 13.000000) scale(-1, 1) translate(-16.000000, -13.000000) "
         points="14 12 16.6666667 12 18 13 16.6666667 14 14 14" />
      <polygon
         id="polygon17"
         fill="#FFFFFF"
         transform="translate(16.000000, 17.000000) scale(-1, 1) translate(-16.000000, -17.000000) "
         points="14 16 16.6666667 16 18 17 16.6666667 18 14 18" />
      <polygon
         id="polygon19"
         fill="#FFFFFF"
         points="12 14 14.6666667 14 16 15 14.6666667 16 12 16" />
      <polygon
         id="polygon21"
         fill="#FFFFFF"
         transform="translate(16.000000, 21.000000) scale(-1, 1) translate(-16.000000, -21.000000) "
         points="14 20 16.6666667 20 18 21 16.6666667 22 14 22" />
      <polygon
         id="polygon23"
         fill="#FFFFFF"
         points="12 18 14.6666667 18 16 19 14.6666667 20 12 20" />
      <polygon
         id="polygon25"
         fill="#FFFFFF"
         transform="translate(16.000000, 25.000000) scale(-1, 1) translate(-16.000000, -25.000000) "
         points="14 24 16.6666667 24 18 25 16.6666667 26 14 26" />
      <polygon
         id="polygon27"
         fill="#FFFFFF"
         points="12 22 14.6666667 22 16 23 14.6666667 24 12 24" />
      <polygon
         id="polygon29"
         fill="#FFFFFF"
         transform="translate(16.000000, 29.000000) scale(-1, 1) translate(-16.000000, -29.000000) "
         points="14 28 16.6666667 28 18 29 16.6666667 30 14 30" />
      <polygon
         id="polygon31"
         fill="#FFFFFF"
         points="12 26 14.6666667 26 16 27 14.6666667 28 12 28" />
      <path
         d="M15,37 C18,37 16,34.3807119 16,33 C16,31.6192881 16,31 15,31 C14,31 14,31.6192881 14,33 C14,34.3807119 12.0000001,37 15,37 Z M15,36.3652344 C15.5522847,36.3652344 16,35.9175191 16,35.3652344 C16,34.8129496 15.5522847,34.3652344 15,34.3652344 C14.4477153,34.3652344 14,34.8129496 14,35.3652344 C14,35.9175191 14.4477153,36.3652344 15,36.3652344 Z"
         id="Combined-Shape"
         fill="#FFFFFF" />
    </g>
  </g>
</svg>
