<?xml version="1.0" encoding="UTF-8" standalone="no"?>
<svg
   xmlns:dc="http://purl.org/dc/elements/1.1/"
   xmlns:cc="http://creativecommons.org/ns#"
   xmlns:rdf="http://www.w3.org/1999/02/22-rdf-syntax-ns#"
   xmlns:svg="http://www.w3.org/2000/svg"
   xmlns="http://www.w3.org/2000/svg"
   xmlns:xlink="http://www.w3.org/1999/xlink"
   xmlns:sodipodi="http://sodipodi.sourceforge.net/DTD/sodipodi-0.dtd"
   xmlns:inkscape="http://www.inkscape.org/namespaces/inkscape"
   width="48px"
   height="48px"
   viewBox="0 0 48 48"
   version="1.1"
   id="svg18"
   sodipodi:docname="audio-x-flac+ogg.svg"
   inkscape:version="0.92.2 2405546, 2018-03-11">
  <metadata
     id="metadata22">
    <rdf:RDF>
      <cc:Work
         rdf:about="">
        <dc:format>image/svg+xml</dc:format>
        <dc:type
           rdf:resource="http://purl.org/dc/dcmitype/StillImage" />
      </cc:Work>
    </rdf:RDF>
  </metadata>
  <sodipodi:namedview
     pagecolor="#ffffff"
     bordercolor="#666666"
     borderopacity="1"
     objecttolerance="10"
     gridtolerance="10"
     guidetolerance="10"
     inkscape:pageopacity="0"
     inkscape:pageshadow="2"
     inkscape:window-width="1920"
     inkscape:window-height="1051"
     id="namedview20"
     showgrid="false"
     inkscape:zoom="4.9166667"
     inkscape:cx="15.864407"
     inkscape:cy="24"
     inkscape:window-x="0"
     inkscape:window-y="29"
     inkscape:window-maximized="1"
     inkscape:current-layer="svg18" />
  <!-- Generator: Sketch 41.2 (35397) - http://www.bohemiancoding.com/sketch -->
  <title
     id="title2">audio-x-flac+ogg</title>
  <desc
     id="desc4">Created with Sketch.</desc>
  <g
     id="g829">
    <rect
       rx="2"
       ry="1.9047618"
       y="4"
       x="6"
       height="40"
       width="36"
       id="rect834"
       style="opacity:1;fill:#614ca3;fill-opacity:1;stroke:none;stroke-width:0.92582005;stroke-linecap:round;stroke-linejoin:round;stroke-miterlimit:4;stroke-dasharray:none;stroke-opacity:0.05882353;paint-order:markers stroke fill" />
    <path
       inkscape:connector-curvature="0"
       id="rect866"
       d="M 42,17.242188 A 40,40 0 0 1 23.494141,44 H 40 c 1.108,0 2,-0.849059 2,-1.904297 z"
       style="opacity:0.15;fill:url(#linearGradient877);fill-opacity:1;stroke:none;stroke-width:0.92582005;stroke-linecap:round;stroke-linejoin:round;stroke-miterlimit:4;stroke-dasharray:none;stroke-opacity:0.05882353;paint-order:markers stroke fill" />
  </g>
  <defs
     id="defs11">
    <linearGradient
       inkscape:collect="always"
       xlink:href="#linearGradient875"
       id="linearGradient877"
       x1="32.74707"
       y1="44"
       x2="32.74707"
       y2="17.242188"
       gradientUnits="userSpaceOnUse" />
    <linearGradient
       inkscape:collect="always"
       id="linearGradient875">
      <stop
         style="stop-color:#000000;stop-opacity:1;"
         offset="0"
         id="stop871" />
      <stop
         style="stop-color:#000000;stop-opacity:0;"
         offset="1"
         id="stop873" />
    </linearGradient>
  </defs>
  <g
     id="Page-1"
     transform="translate(0,-2.2998878)"
     style="fill:none;fill-rule:evenodd;stroke:none;stroke-width:1">
    <g
       id="audio-x-flac+ogg">
      <path
         d="m 29.603641,17.987862 0.531587,9.581517 c -0.878128,-0.219024 -1.960693,-0.03332 -2.877496,0.123949 -1.724922,0.295895 -2.929428,1.604777 -2.69034,2.92347 0.239088,1.318694 1.831233,2.147836 3.556155,1.851942 1.700461,-0.291698 3.971177,-0.681219 3.620488,-2.979765 L 31.048836,16.958454 c -0.01138,-0.20512 -0.104162,-0.386403 -0.245257,-0.514238 -0.153892,-0.211174 -0.389862,-0.36216 -0.669056,-0.401398 L 19.339185,14.525632 c -0.157138,-0.02208 -0.310872,-0.0064 -0.452008,0.04023 -0.02949,-0.0012 -0.05937,-6.34e-4 -0.08952,0.0017 -0.412948,0.03237 -0.72147,0.393364 -0.689104,0.806311 l 0.783352,9.994539 c -0.870235,-0.202512 -1.932401,-0.02031 -2.834188,0.134386 -1.724922,0.295894 -2.929428,1.604776 -2.69034,2.92347 0.239088,1.318693 1.831233,2.147836 3.556155,1.851941 1.686256,-0.289261 3.933282,-0.674717 3.628729,-2.922564 L 19.709042,16.597267 Z M 19.6,33.632 c -0.66,0 -1.176,0.21 -1.548,0.642 -0.36,0.408 -0.534,0.936 -0.534,1.59 0,0.648 0.174,1.176 0.534,1.584 0.372,0.42 0.888,0.636 1.548,0.636 0.654,0 1.17,-0.21 1.548,-0.63 0.36,-0.402 0.54,-0.93 0.54,-1.59 0,-0.66 -0.18,-1.194 -0.54,-1.596 C 20.77,33.842 20.254,33.632 19.6,33.632 Z m 0,0.618 c 0.444,0 0.786,0.138 1.026,0.426 0.234,0.288 0.354,0.684 0.354,1.188 0,0.504 -0.12,0.894 -0.354,1.176 -0.24,0.282 -0.582,0.426 -1.026,0.426 -0.444,0 -0.792,-0.15 -1.032,-0.444 -0.234,-0.288 -0.348,-0.672 -0.348,-1.158 0,-0.492 0.114,-0.876 0.348,-1.164 0.246,-0.3 0.588,-0.45 1.032,-0.45 z m 4.608,-0.618 c -0.636,0 -1.14,0.216 -1.512,0.66 -0.354,0.414 -0.528,0.942 -0.528,1.584 0,0.636 0.174,1.158 0.528,1.56 0.378,0.432 0.906,0.648 1.59,0.648 0.384,0 0.726,-0.048 1.038,-0.144 0.294,-0.096 0.552,-0.228 0.78,-0.408 V 35.72 h -1.836 v 0.6 h 1.134 v 0.882 c -0.144,0.084 -0.294,0.15 -0.462,0.198 -0.18,0.048 -0.372,0.072 -0.576,0.072 -0.522,0 -0.906,-0.144 -1.152,-0.432 -0.228,-0.27 -0.342,-0.66 -0.342,-1.164 0,-0.528 0.126,-0.93 0.384,-1.218 0.234,-0.276 0.552,-0.408 0.954,-0.408 0.324,0 0.588,0.066 0.786,0.204 0.192,0.138 0.324,0.342 0.384,0.618 h 0.708 c -0.078,-0.48 -0.27,-0.834 -0.576,-1.074 -0.318,-0.246 -0.75,-0.366 -1.302,-0.366 z m 4.536,0 c -0.636,0 -1.14,0.216 -1.512,0.66 -0.354,0.414 -0.528,0.942 -0.528,1.584 0,0.636 0.174,1.158 0.528,1.56 0.378,0.432 0.906,0.648 1.59,0.648 0.384,0 0.726,-0.048 1.038,-0.144 0.294,-0.096 0.552,-0.228 0.78,-0.408 V 35.72 h -1.836 v 0.6 h 1.134 v 0.882 c -0.144,0.084 -0.294,0.15 -0.462,0.198 -0.18,0.048 -0.372,0.072 -0.576,0.072 -0.522,0 -0.906,-0.144 -1.152,-0.432 -0.228,-0.27 -0.342,-0.66 -0.342,-1.164 0,-0.528 0.126,-0.93 0.384,-1.218 0.234,-0.276 0.552,-0.408 0.954,-0.408 0.324,0 0.588,0.066 0.786,0.204 0.192,0.138 0.324,0.342 0.384,0.618 h 0.708 c -0.078,-0.48 -0.27,-0.834 -0.576,-1.074 -0.318,-0.246 -0.75,-0.366 -1.302,-0.366 z"
         id="Combined-Shape"
         inkscape:connector-curvature="0"
         style="fill:#ffffff" />
    </g>
  </g>
</svg>
