<?xml version="1.0" encoding="UTF-8" standalone="no"?>
<svg
   xmlns:dc="http://purl.org/dc/elements/1.1/"
   xmlns:cc="http://creativecommons.org/ns#"
   xmlns:rdf="http://www.w3.org/1999/02/22-rdf-syntax-ns#"
   xmlns:svg="http://www.w3.org/2000/svg"
   xmlns="http://www.w3.org/2000/svg"
   xmlns:xlink="http://www.w3.org/1999/xlink"
   xmlns:sodipodi="http://sodipodi.sourceforge.net/DTD/sodipodi-0.dtd"
   xmlns:inkscape="http://www.inkscape.org/namespaces/inkscape"
   width="48px"
   height="48px"
   viewBox="0 0 48 48"
   version="1.1"
   id="svg21"
   sodipodi:docname="gnome-mime-image-vnd.adobe.photoshop.svg"
   inkscape:version="0.92.2 2405546, 2018-03-11">
  <metadata
     id="metadata25">
    <rdf:RDF>
      <cc:Work
         rdf:about="">
        <dc:format>image/svg+xml</dc:format>
        <dc:type
           rdf:resource="http://purl.org/dc/dcmitype/StillImage" />
      </cc:Work>
    </rdf:RDF>
  </metadata>
  <sodipodi:namedview
     pagecolor="#ffffff"
     bordercolor="#666666"
     borderopacity="1"
     objecttolerance="10"
     gridtolerance="10"
     guidetolerance="10"
     inkscape:pageopacity="0"
     inkscape:pageshadow="2"
     inkscape:window-width="1920"
     inkscape:window-height="1051"
     id="namedview23"
     showgrid="false"
     inkscape:zoom="6.9532167"
     inkscape:cx="-33.389859"
     inkscape:cy="37.412019"
     inkscape:window-x="0"
     inkscape:window-y="29"
     inkscape:window-maximized="1"
     inkscape:current-layer="svg21" />
  <!-- Generator: Sketch 41.2 (35397) - http://www.bohemiancoding.com/sketch -->
  <title
     id="title2">gnome-mime-image-vnd.adobe.photoshop</title>
  <desc
     id="desc4">Created with Sketch.</desc>
  <g
     id="g829">
    <rect
       rx="2"
       ry="1.9047618"
       y="4"
       x="6"
       height="40"
       width="36"
       id="rect834"
       style="opacity:1;fill:#45a1d4;fill-opacity:1;stroke:none;stroke-width:0.92582005;stroke-linecap:round;stroke-linejoin:round;stroke-miterlimit:4;stroke-dasharray:none;stroke-opacity:0.05882353;paint-order:markers stroke fill" />
    <path
       inkscape:connector-curvature="0"
       id="rect866"
       d="M 42,17.242188 A 40,40 0 0 1 23.494141,44 H 40 c 1.108,0 2,-0.849059 2,-1.904297 z"
       style="opacity:0.15;fill:url(#linearGradient877);fill-opacity:1;stroke:none;stroke-width:0.92582005;stroke-linecap:round;stroke-linejoin:round;stroke-miterlimit:4;stroke-dasharray:none;stroke-opacity:0.05882353;paint-order:markers stroke fill" />
  </g>
  <defs
     id="defs11">
    <linearGradient
       x1="90.7002767%"
       y1="6.56534831%"
       x2="35.3271484%"
       y2="64.1438802%"
       id="linearGradient-1">
      <stop
         stop-color="#93DEF2"
         offset="0%"
         id="stop6" />
      <stop
         stop-color="#5ABADF"
         offset="100%"
         id="stop8" />
    </linearGradient>
    <linearGradient
       inkscape:collect="always"
       xlink:href="#linearGradient875"
       id="linearGradient877"
       x1="32.74707"
       y1="44"
       x2="32.74707"
       y2="17.242188"
       gradientUnits="userSpaceOnUse" />
    <linearGradient
       inkscape:collect="always"
       id="linearGradient875">
      <stop
         style="stop-color:#000000;stop-opacity:1;"
         offset="0"
         id="stop871" />
      <stop
         style="stop-color:#000000;stop-opacity:0;"
         offset="1"
         id="stop873" />
    </linearGradient>
  </defs>
  <path
     d="m 20.263672,27.654297 h -1.59375 v 2.43164 c 0,0.347658 -0.08203,0.611328 -0.246094,0.791016 -0.164063,0.179689 -0.371092,0.269531 -0.621094,0.269531 -0.26172,0 -0.472655,-0.08887 -0.632812,-0.266601 -0.160157,-0.177736 -0.240235,-0.438475 -0.240235,-0.782227 v -6.621094 c 0,-0.382814 0.08789,-0.656249 0.263672,-0.820312 0.175783,-0.164063 0.455077,-0.246094 0.837891,-0.246094 h 2.232422 c 0.660159,0 1.167967,0.05078 1.523437,0.152344 0.351565,0.09766 0.655272,0.259764 0.911133,0.486328 0.255861,0.226564 0.450195,0.503905 0.583008,0.832031 0.132813,0.328127 0.199219,0.697264 0.199219,1.107422 0,0.875005 -0.269529,1.538084 -0.808594,1.989258 -0.539065,0.451174 -1.341792,0.676758 -2.408203,0.676758 z m -0.421875,-3.9375 h -1.171875 v 2.625 h 1.171875 c 0.410158,0 0.752928,-0.04297 1.02832,-0.128906 0.275392,-0.08594 0.485351,-0.226562 0.629883,-0.421875 0.144532,-0.195314 0.216797,-0.451171 0.216797,-0.767579 0,-0.378908 -0.111327,-0.687498 -0.333985,-0.925781 -0.250001,-0.253907 -0.763668,-0.380859 -1.541015,-0.380859 z m 11.61914,4.705078 c 0,0.519534 -0.133787,0.986326 -0.401367,1.400391 -0.267579,0.414064 -0.659177,0.73828 -1.174804,0.972656 -0.515628,0.234376 -1.12695,0.351562 -1.833985,0.351562 -0.84766,0 -1.546872,-0.160154 -2.097656,-0.480468 -0.390627,-0.23047 -0.708007,-0.538084 -0.952148,-0.922852 -0.244142,-0.384767 -0.366211,-0.758787 -0.366211,-1.12207 0,-0.210939 0.07324,-0.391601 0.219726,-0.541992 0.146485,-0.150392 0.333007,-0.225586 0.55957,-0.225586 0.183595,0 0.338867,0.05859 0.465821,0.175781 0.126954,0.117188 0.235351,0.291014 0.325195,0.521484 0.109376,0.273439 0.227539,0.501952 0.354492,0.685547 0.126954,0.183595 0.305663,0.334961 0.536133,0.454102 0.23047,0.119141 0.533201,0.178711 0.908203,0.178711 0.515628,0 0.934569,-0.120116 1.256836,-0.360352 0.322267,-0.240236 0.483399,-0.540037 0.483399,-0.899414 0,-0.285158 -0.08691,-0.516601 -0.260743,-0.694336 -0.173829,-0.177735 -0.398436,-0.313476 -0.673828,-0.407227 -0.275392,-0.09375 -0.643552,-0.193358 -1.104492,-0.298828 -0.617191,-0.144532 -1.133787,-0.313475 -1.549805,-0.506836 -0.416017,-0.19336 -0.746092,-0.457029 -0.990234,-0.791015 -0.244142,-0.333986 -0.366211,-0.749021 -0.366211,-1.245117 0,-0.472659 0.128905,-0.892577 0.386719,-1.259766 0.257814,-0.367189 0.630857,-0.649413 1.11914,-0.84668 0.488284,-0.197266 1.062497,-0.295898 1.722657,-0.295898 0.527346,0 0.983396,0.06543 1.368164,0.196289 0.384767,0.13086 0.7041,0.304686 0.958008,0.521484 0.253907,0.216798 0.439452,0.444335 0.55664,0.682617 0.117188,0.238283 0.175781,0.470702 0.175781,0.697266 0,0.207032 -0.07324,0.393554 -0.219726,0.55957 -0.146485,0.166017 -0.329101,0.249024 -0.547852,0.249024 -0.199219,0 -0.350585,-0.0498 -0.454101,-0.149414 -0.103516,-0.09961 -0.21582,-0.262694 -0.336914,-0.489258 -0.156251,-0.32422 -0.343749,-0.577148 -0.5625,-0.758789 C 28.746093,23.590819 28.394534,23.5 27.910156,23.5 c -0.449221,0 -0.811522,0.09863 -1.086914,0.295898 -0.275392,0.197267 -0.413086,0.434569 -0.413086,0.711914 0,0.171876 0.04687,0.320312 0.140625,0.445313 0.09375,0.125001 0.222656,0.232421 0.386719,0.322266 0.164063,0.08984 0.330077,0.160156 0.498047,0.210937 0.16797,0.05078 0.44531,0.125 0.832031,0.222656 0.484377,0.113282 0.92285,0.238281 1.31543,0.375 0.39258,0.13672 0.726561,0.302734 1.001953,0.498047 0.275392,0.195314 0.490233,0.442382 0.644531,0.741211 0.154298,0.29883 0.231445,0.665037 0.231445,1.098633 z"
     id="PS"
     inkscape:connector-curvature="0"
     style="fill:#ffffff;fill-rule:evenodd;stroke:none;stroke-width:1" />
  <path
     d="m 20.06836,27.654297 h -1.59375 v 2.43164 c 0,0.347658 -0.08203,0.611328 -0.246094,0.791016 -0.164063,0.179689 -0.371092,0.269531 -0.621094,0.269531 -0.26172,0 -0.472655,-0.08887 -0.632812,-0.266601 -0.160157,-0.177736 -0.240235,-0.438475 -0.240235,-0.782227 v -6.621094 c 0,-0.382814 0.08789,-0.656249 0.263672,-0.820312 0.175783,-0.164063 0.455077,-0.246094 0.837891,-0.246094 h 2.232422 c 0.660159,0 1.167967,0.05078 1.523437,0.152344 0.351565,0.09766 0.655272,0.259764 0.911133,0.486328 0.255861,0.226564 0.450195,0.503905 0.583008,0.832031 0.132813,0.328127 0.199219,0.697264 0.199219,1.107422 0,0.875005 -0.269529,1.538084 -0.808594,1.989258 -0.539065,0.451174 -1.341792,0.676758 -2.408203,0.676758 z m -0.421875,-3.9375 H 18.47461 v 2.625 h 1.171875 c 0.410158,0 0.752928,-0.04297 1.02832,-0.128906 0.275392,-0.08594 0.485351,-0.226562 0.629883,-0.421875 0.144532,-0.195314 0.216797,-0.451171 0.216797,-0.767579 0,-0.378908 -0.111327,-0.687498 -0.333985,-0.925781 -0.250001,-0.253907 -0.763668,-0.380859 -1.541015,-0.380859 z m 11.61914,4.705078 c 0,0.519534 -0.133787,0.986326 -0.401367,1.400391 -0.267579,0.414064 -0.659177,0.73828 -1.174804,0.972656 -0.515628,0.234376 -1.12695,0.351562 -1.833985,0.351562 -0.84766,0 -1.546872,-0.160154 -2.097656,-0.480468 -0.390627,-0.23047 -0.708007,-0.538084 -0.952148,-0.922852 -0.244142,-0.384767 -0.366211,-0.758787 -0.366211,-1.12207 0,-0.210939 0.07324,-0.391601 0.219726,-0.541992 0.146485,-0.150392 0.333007,-0.225586 0.55957,-0.225586 0.183595,0 0.338867,0.05859 0.465821,0.175781 0.126954,0.117188 0.235351,0.291014 0.325195,0.521484 0.109376,0.273439 0.227539,0.501952 0.354492,0.685547 0.126954,0.183595 0.305663,0.334961 0.536133,0.454102 0.23047,0.119141 0.533201,0.178711 0.908203,0.178711 0.515628,0 0.934569,-0.120116 1.256836,-0.360352 0.322267,-0.240236 0.483399,-0.540037 0.483399,-0.899414 0,-0.285158 -0.08691,-0.516601 -0.260743,-0.694336 -0.173829,-0.177735 -0.398436,-0.313476 -0.673828,-0.407227 -0.275392,-0.09375 -0.643552,-0.193358 -1.104492,-0.298828 -0.617191,-0.144532 -1.133787,-0.313475 -1.549805,-0.506836 -0.416017,-0.19336 -0.746092,-0.457029 -0.990234,-0.791015 -0.244142,-0.333986 -0.366211,-0.749021 -0.366211,-1.245117 0,-0.472659 0.128905,-0.892577 0.386719,-1.259766 0.257814,-0.367189 0.630857,-0.649413 1.11914,-0.84668 0.488284,-0.197266 1.062497,-0.295898 1.722657,-0.295898 0.527346,0 0.983396,0.06543 1.368164,0.196289 0.384767,0.13086 0.7041,0.304686 0.958008,0.521484 0.253907,0.216798 0.439452,0.444335 0.55664,0.682617 0.117188,0.238283 0.175781,0.470702 0.175781,0.697266 0,0.207032 -0.07324,0.393554 -0.219726,0.55957 -0.146485,0.166017 -0.329101,0.249024 -0.547852,0.249024 -0.199219,0 -0.350585,-0.0498 -0.454101,-0.149414 -0.103516,-0.09961 -0.21582,-0.262694 -0.336914,-0.489258 -0.156251,-0.32422 -0.343749,-0.577148 -0.5625,-0.758789 C 28.550781,23.590819 28.199222,23.5 27.714844,23.5 c -0.449221,0 -0.811522,0.09863 -1.086914,0.295898 -0.275392,0.197267 -0.413086,0.434569 -0.413086,0.711914 0,0.171876 0.04687,0.320312 0.140625,0.445313 0.09375,0.125001 0.222656,0.232421 0.386719,0.322266 0.164063,0.08984 0.330077,0.160156 0.498047,0.210937 0.16797,0.05078 0.44531,0.125 0.832031,0.222656 0.484377,0.113282 0.92285,0.238281 1.31543,0.375 0.39258,0.13672 0.726561,0.302734 1.001953,0.498047 0.275392,0.195314 0.490233,0.442382 0.644531,0.741211 0.154298,0.29883 0.231445,0.665037 0.231445,1.098633 z"
     id="path16"
     inkscape:connector-curvature="0"
     style="fill:#ffffff;fill-rule:evenodd;stroke:none;stroke-width:1" />
  <path
     d="m 19.471071,11.4154 c 0.246695,-0.239643 0.663891,-0.251777 0.907463,-0.01517 l 0.879047,0.853919 c 0.243572,0.23661 0.22671,0.637331 -0.01999,0.877277 l -0.209847,0.203849 -1.766524,-1.716029 z m -0.218591,1.49944 0.441553,0.428932 -5.916623,5.747499 c -0.02186,-0.126799 -0.05777,-0.247227 -0.122411,-0.31002 -0.06464,-0.06279 -0.188613,-0.09798 -0.319142,-0.119215 z m -0.662642,-0.643397 0.441866,0.428931 -5.916624,5.747196 c -0.02186,-0.126495 -0.05808,-0.246924 -0.122723,-0.309716 -0.06433,-0.06279 -0.187363,-0.09919 -0.317581,-0.120429 z m -4.145102,7.458675 c -0.0203,-0.121035 -0.05558,-0.23388 -0.11679,-0.294853 -0.07338,-0.07098 -0.19923,-0.106474 -0.331633,-0.127709 l 5.918497,-5.749319 0.441553,0.429235 z m -2.615593,0.306986 0.611741,-1.736353 c 0.152701,0.01031 0.294161,0.03246 0.323514,0.04975 0.03123,0.04459 0.06308,0.254205 0.06651,0.439852 0.0016,0.0816 0.0687,0.146517 0.152077,0.148033 0.191423,0.003 0.406891,0.03397 0.443739,0.05582 0.03123,0.04429 0.06308,0.253901 0.06651,0.439852 0.0012,0.08039 0.06745,0.144999 0.150515,0.147729 0.195795,0.0061 0.416259,0.04004 0.45342,0.06279 0.02373,0.03549 0.04559,0.174121 0.05434,0.32094 l -1.786822,0.594255 z m 9.652025,-8.000451 -0.878735,-0.853919 c -0.365358,-0.354612 -0.982096,-0.341568 -1.352139,0.0182 l -7.035183,6.834085 c -0.02498,0.02427 -0.03778,0.05521 -0.04247,0.08797 l -1.023316,2.904539 c -0.01936,0.05491 -0.0053,0.115575 0.03685,0.156223 0.04184,0.04065 0.104299,0.0546 0.16082,0.0358 l 3.014989,-1.002559 c 0.0228,-0.0076 0.04185,-0.02032 0.05808,-0.03549 9.37e-4,-9.1e-4 0.0022,-6.07e-4 0.0031,-0.0015 l 7.035183,-6.834085 c 0.370043,-0.359768 0.388154,-0.954327 0.0228,-1.309242 z"
     id="Fill-1"
     inkscape:connector-curvature="0"
     style="fill:#ffffff;fill-rule:evenodd;stroke:none;stroke-width:1" />
</svg>
