<?xml version="1.0" encoding="UTF-8" standalone="no"?>
<svg
   xmlns:dc="http://purl.org/dc/elements/1.1/"
   xmlns:cc="http://creativecommons.org/ns#"
   xmlns:rdf="http://www.w3.org/1999/02/22-rdf-syntax-ns#"
   xmlns:svg="http://www.w3.org/2000/svg"
   xmlns="http://www.w3.org/2000/svg"
   xmlns:xlink="http://www.w3.org/1999/xlink"
   xmlns:sodipodi="http://sodipodi.sourceforge.net/DTD/sodipodi-0.dtd"
   xmlns:inkscape="http://www.inkscape.org/namespaces/inkscape"
   width="48px"
   height="48px"
   viewBox="0 0 48 48"
   version="1.1"
   id="svg18"
   sodipodi:docname="gnome-mime-application-vnd.oasis.opendocument.formula.svg"
   inkscape:version="0.92.2 2405546, 2018-03-11">
  <metadata
     id="metadata22">
    <rdf:RDF>
      <cc:Work
         rdf:about="">
        <dc:format>image/svg+xml</dc:format>
        <dc:type
           rdf:resource="http://purl.org/dc/dcmitype/StillImage" />
      </cc:Work>
    </rdf:RDF>
  </metadata>
  <sodipodi:namedview
     pagecolor="#ffffff"
     bordercolor="#666666"
     borderopacity="1"
     objecttolerance="10"
     gridtolerance="10"
     guidetolerance="10"
     inkscape:pageopacity="0"
     inkscape:pageshadow="2"
     inkscape:window-width="1920"
     inkscape:window-height="1051"
     id="namedview20"
     showgrid="false"
     inkscape:zoom="4.9166667"
     inkscape:cx="24"
     inkscape:cy="24"
     inkscape:window-x="0"
     inkscape:window-y="29"
     inkscape:window-maximized="1"
     inkscape:current-layer="svg18" />
  <!-- Generator: Sketch 41.2 (35397) - http://www.bohemiancoding.com/sketch -->
  <title
     id="title2">gnome-mime-application-vnd.oasis.opendocument.formula</title>
  <desc
     id="desc4">Created with Sketch.</desc>
  <g
     id="g829">
    <rect
       rx="2"
       ry="1.9047618"
       y="4"
       x="6"
       height="40"
       width="36"
       id="rect834"
       style="opacity:1;fill:#8bc34a;fill-opacity:1;stroke:none;stroke-width:0.92582005;stroke-linecap:round;stroke-linejoin:round;stroke-miterlimit:4;stroke-dasharray:none;stroke-opacity:0.05882353;paint-order:markers stroke fill" />
    <path
       inkscape:connector-curvature="0"
       id="rect866"
       d="M 42,17.242188 A 40,40 0 0 1 23.494141,44 H 40 c 1.108,0 2,-0.849059 2,-1.904297 z"
       style="opacity:0.15;fill:url(#linearGradient877);fill-opacity:1;stroke:none;stroke-width:0.92582005;stroke-linecap:round;stroke-linejoin:round;stroke-miterlimit:4;stroke-dasharray:none;stroke-opacity:0.05882353;paint-order:markers stroke fill" />
  </g>
  <defs
     id="defs11">
    <linearGradient
       inkscape:collect="always"
       xlink:href="#linearGradient875"
       id="linearGradient877"
       x1="32.74707"
       y1="44"
       x2="32.74707"
       y2="17.242188"
       gradientUnits="userSpaceOnUse" />
    <linearGradient
       inkscape:collect="always"
       id="linearGradient875">
      <stop
         style="stop-color:#000000;stop-opacity:1;"
         offset="0"
         id="stop871" />
      <stop
         style="stop-color:#000000;stop-opacity:0;"
         offset="1"
         id="stop873" />
    </linearGradient>
  </defs>
  <g
     id="Page-1"
     transform="translate(0,-2.7939997)"
     style="fill:none;fill-rule:evenodd;stroke:none;stroke-width:1">
    <g
       id="gnome-mime-application-vnd.oasis.opendocument.formula">
      <path
         d="M 18.105572,15.4 H 28.57478 l 0.378299,3.544025 h -0.615836 c -0.258075,-0.642216 -0.624643,-1.240251 -1.099707,-1.794108 -0.475082,-0.559726 -0.909099,-0.880839 -1.302052,-0.963338 -0.175962,-0.03534 -0.4047,-0.05891 -0.686217,-0.0707 -0.281532,-0.01177 -0.568922,-0.01766 -0.86217,-0.01767 h -3.818182 l 5.102639,6.725695 v 0.238625 L 19.8739,30.018004 h 7.01173 c 0.310841,-2e-6 0.598231,-0.0766 0.86217,-0.229787 0.26392,-0.147302 0.495591,-0.338791 0.695015,-0.574469 0.211133,-0.247464 0.398816,-0.524387 0.56305,-0.830769 0.164211,-0.306383 0.299109,-0.589197 0.404692,-0.848445 L 30,27.720132 28.961877,31.6 H 18 V 31.16694 L 24.123167,23.751883 18.105572,15.79771 V 15.400001 Z M 15.494,33.898 16.562,35.35 15.356,37 H 16.16 L 16.94,35.854 17.714,37 h 0.804 l -1.206,-1.65 1.068,-1.452 h -0.798 l -0.642,0.948 -0.648,-0.948 z m 4.59,0.036 v 1.23 h -1.236 v 0.564 h 1.236 v 1.236 h 0.564 v -1.236 h 1.23 v -0.564 h -1.23 v -1.23 z m 2.124,-0.036 1.23,3.03 -0.546,1.26 h 0.732 l 1.68,-4.29 H 24.56 l -0.786,2.208 -0.822,-2.208 z m 3.426,0.648 v 0.564 h 3.03 v -0.564 z m 0,1.242 v 0.564 h 3.03 v -0.564 z m 3.54,-1.89 v 0.558 h 1.656 l -1.716,2.082 V 37 h 2.736 v -0.558 h -1.836 l 1.74,-2.106 v -0.438 z"
         id="Combined-Shape"
         inkscape:connector-curvature="0"
         style="fill:#ffffff" />
    </g>
  </g>
</svg>
