<?xml version="1.0" encoding="UTF-8" standalone="no"?>
<svg
   xmlns:dc="http://purl.org/dc/elements/1.1/"
   xmlns:cc="http://creativecommons.org/ns#"
   xmlns:rdf="http://www.w3.org/1999/02/22-rdf-syntax-ns#"
   xmlns:svg="http://www.w3.org/2000/svg"
   xmlns="http://www.w3.org/2000/svg"
   xmlns:xlink="http://www.w3.org/1999/xlink"
   xmlns:sodipodi="http://sodipodi.sourceforge.net/DTD/sodipodi-0.dtd"
   xmlns:inkscape="http://www.inkscape.org/namespaces/inkscape"
   width="48px"
   height="48px"
   viewBox="0 0 48 48"
   version="1.1"
   id="svg19"
   sodipodi:docname="image-x-psd.svg"
   inkscape:version="0.92.2 2405546, 2018-03-11">
  <metadata
     id="metadata23">
    <rdf:RDF>
      <cc:Work
         rdf:about="">
        <dc:format>image/svg+xml</dc:format>
        <dc:type
           rdf:resource="http://purl.org/dc/dcmitype/StillImage" />
      </cc:Work>
    </rdf:RDF>
  </metadata>
  <sodipodi:namedview
     pagecolor="#ffffff"
     bordercolor="#666666"
     borderopacity="1"
     objecttolerance="10"
     gridtolerance="10"
     guidetolerance="10"
     inkscape:pageopacity="0"
     inkscape:pageshadow="2"
     inkscape:window-width="1920"
     inkscape:window-height="1051"
     id="namedview21"
     showgrid="false"
     inkscape:zoom="4.9166667"
     inkscape:cx="24"
     inkscape:cy="24"
     inkscape:window-x="0"
     inkscape:window-y="29"
     inkscape:window-maximized="1"
     inkscape:current-layer="svg19" />
  <!-- Generator: Sketch 41.2 (35397) - http://www.bohemiancoding.com/sketch -->
  <title
     id="title2">image-x-psd</title>
  <desc
     id="desc4">Created with Sketch.</desc>
  <g
     id="g829">
    <rect
       rx="2"
       ry="1.9047618"
       y="4"
       x="6"
       height="40"
       width="36"
       id="rect834"
       style="opacity:1;fill:#45a1d4;fill-opacity:1;stroke:none;stroke-width:0.92582005;stroke-linecap:round;stroke-linejoin:round;stroke-miterlimit:4;stroke-dasharray:none;stroke-opacity:0.05882353;paint-order:markers stroke fill" />
    <path
       inkscape:connector-curvature="0"
       id="rect866"
       d="M 42,17.242188 A 40,40 0 0 1 23.494141,44 H 40 c 1.108,0 2,-0.849059 2,-1.904297 z"
       style="opacity:0.15;fill:url(#linearGradient877);fill-opacity:1;stroke:none;stroke-width:0.92582005;stroke-linecap:round;stroke-linejoin:round;stroke-miterlimit:4;stroke-dasharray:none;stroke-opacity:0.05882353;paint-order:markers stroke fill" />
  </g>
  <defs
     id="defs11">
    <linearGradient
       inkscape:collect="always"
       xlink:href="#linearGradient875"
       id="linearGradient877"
       x1="32.74707"
       y1="44"
       x2="32.74707"
       y2="17.242188"
       gradientUnits="userSpaceOnUse" />
    <linearGradient
       inkscape:collect="always"
       id="linearGradient875">
      <stop
         style="stop-color:#000000;stop-opacity:1;"
         offset="0"
         id="stop871" />
      <stop
         style="stop-color:#000000;stop-opacity:0;"
         offset="1"
         id="stop873" />
    </linearGradient>
  </defs>
  <path
     d="m 19.21875,25.313964 h -2.390625 v 3.647461 c 0,0.521487 -0.123046,0.916991 -0.369141,1.186524 -0.246095,0.269532 -0.556639,0.404297 -0.931641,0.404297 -0.39258,0 -0.708983,-0.1333 -0.949218,-0.399903 -0.240236,-0.266603 -0.360351,-0.657712 -0.360351,-1.17334 v -9.93164 c 0,-0.574222 0.131833,-0.984374 0.395507,-1.230469 0.263674,-0.246095 0.682615,-0.369141 1.256836,-0.369141 h 3.348633 c 0.99024,0 1.75195,0.07617 2.285156,0.228516 0.527346,0.146485 0.982908,0.389647 1.3667,0.729492 0.383791,0.339846 0.675292,0.755857 0.874511,1.248047 0.19922,0.49219 0.298828,1.045895 0.298828,1.661133 0,1.312506 -0.404293,2.307125 -1.212891,2.983887 -0.808598,0.676761 -2.012687,1.015136 -3.612304,1.015136 z m -0.632813,-5.90625 h -1.757812 v 3.9375 h 1.757812 c 0.615237,0 1.129392,-0.06445 1.54248,-0.193359 0.413088,-0.128907 0.728026,-0.339842 0.944825,-0.632813 0.216798,-0.29297 0.325195,-0.676755 0.325195,-1.151367 0,-0.568362 -0.166991,-1.031248 -0.500977,-1.388672 -0.375001,-0.380861 -1.145502,-0.571289 -2.311523,-0.571289 z m 15.196289,8.006836 c 0,0.662113 -0.16113,1.229002 -0.483398,1.700684 -0.322267,0.471682 -0.798336,0.8291 -1.428222,1.072265 -0.629886,0.243166 -1.395992,0.364747 -2.29834,0.364747 -0.861333,0 -1.599607,-0.131835 -2.214844,-0.395508 -0.615237,-0.263673 -1.069334,-0.59326 -1.362305,-0.98877 -0.29297,-0.39551 -0.439453,-0.792477 -0.439453,-1.190918 0,-0.263673 0.09375,-0.489256 0.28125,-0.676758 0.187501,-0.187501 0.424803,-0.28125 0.711914,-0.28125 0.251955,0 0.445312,0.06152 0.580078,0.184571 0.134767,0.123047 0.263672,0.295897 0.386719,0.518554 0.246095,0.427737 0.540526,0.74707 0.883301,0.958008 0.342775,0.210939 0.810056,0.316406 1.401855,0.316406 0.480472,0 0.874511,-0.106932 1.182129,-0.3208 0.307619,-0.213869 0.461426,-0.458495 0.461426,-0.733887 0,-0.421876 -0.159666,-0.729491 -0.479004,-0.922852 -0.319337,-0.193359 -0.845211,-0.377928 -1.577637,-0.55371 -0.826176,-0.20508 -1.498532,-0.420409 -2.017089,-0.645997 -0.518558,-0.225587 -0.933104,-0.522946 -1.243653,-0.892088 -0.310548,-0.369143 -0.46582,-0.82324 -0.46582,-1.362305 0,-0.480471 0.143553,-0.934568 0.430664,-1.362305 0.287111,-0.427736 0.710446,-0.769042 1.27002,-1.023926 0.559573,-0.254884 1.234859,-0.382324 2.025878,-0.382324 0.621097,0 1.179197,0.06445 1.674317,0.19336 0.49512,0.128906 0.908201,0.301756 1.239258,0.518554 0.331055,0.216798 0.583007,0.45703 0.755859,0.720703 0.172853,0.263674 0.259277,0.521483 0.259277,0.773438 0,0.275392 -0.09228,0.500976 -0.276855,0.676758 -0.184571,0.175782 -0.446776,0.263672 -0.786621,0.263672 -0.246095,0 -0.455566,-0.07031 -0.628418,-0.210938 -0.172853,-0.140626 -0.370604,-0.351561 -0.593262,-0.632812 -0.181641,-0.234377 -0.395506,-0.421875 -0.641601,-0.5625 -0.246095,-0.140626 -0.580076,-0.210938 -1.001954,-0.210938 -0.433595,0 -0.793943,0.09228 -1.081054,0.276855 -0.287111,0.184572 -0.430664,0.41455 -0.430664,0.689942 0,0.251954 0.105467,0.458495 0.316406,0.619629 0.210939,0.161134 0.495115,0.294433 0.852539,0.399902 0.357424,0.105469 0.849606,0.234374 1.476563,0.386719 0.744144,0.181641 1.352048,0.398436 1.82373,0.650391 0.471682,0.251954 0.829099,0.549314 1.072266,0.892088 0.243164,0.342777 0.364745,0.733886 0.364745,1.17334 z"
     id="Ps"
     inkscape:connector-curvature="0"
     style="fill:#ffffff;fill-rule:evenodd;stroke:none;stroke-width:1" />
</svg>
