<?xml version="1.0" encoding="UTF-8" standalone="no"?>
<svg
   xmlns:dc="http://purl.org/dc/elements/1.1/"
   xmlns:cc="http://creativecommons.org/ns#"
   xmlns:rdf="http://www.w3.org/1999/02/22-rdf-syntax-ns#"
   xmlns:svg="http://www.w3.org/2000/svg"
   xmlns="http://www.w3.org/2000/svg"
   xmlns:xlink="http://www.w3.org/1999/xlink"
   xmlns:sodipodi="http://sodipodi.sourceforge.net/DTD/sodipodi-0.dtd"
   xmlns:inkscape="http://www.inkscape.org/namespaces/inkscape"
   width="48px"
   height="48px"
   viewBox="0 0 48 48"
   version="1.1"
   id="svg19"
   sodipodi:docname="image-png.svg"
   inkscape:version="0.92.2 2405546, 2018-03-11">
  <metadata
     id="metadata23">
    <rdf:RDF>
      <cc:Work
         rdf:about="">
        <dc:format>image/svg+xml</dc:format>
        <dc:type
           rdf:resource="http://purl.org/dc/dcmitype/StillImage" />
      </cc:Work>
    </rdf:RDF>
  </metadata>
  <sodipodi:namedview
     pagecolor="#ffffff"
     bordercolor="#666666"
     borderopacity="1"
     objecttolerance="10"
     gridtolerance="10"
     guidetolerance="10"
     inkscape:pageopacity="0"
     inkscape:pageshadow="2"
     inkscape:window-width="1920"
     inkscape:window-height="1051"
     id="namedview21"
     showgrid="false"
     inkscape:zoom="9.8333333"
     inkscape:cx="31.599574"
     inkscape:cy="20.494688"
     inkscape:window-x="0"
     inkscape:window-y="29"
     inkscape:window-maximized="1"
     inkscape:current-layer="svg19" />
  <!-- Generator: Sketch 41.2 (35397) - http://www.bohemiancoding.com/sketch -->
  <title
     id="title2">image-png</title>
  <desc
     id="desc4">Created with Sketch.</desc>
  <g
     id="g829">
    <rect
       rx="2"
       ry="1.9047618"
       y="4"
       x="6"
       height="40"
       width="36"
       id="rect834"
       style="opacity:1;fill:#4caf50;fill-opacity:1;stroke:none;stroke-width:0.92582005;stroke-linecap:round;stroke-linejoin:round;stroke-miterlimit:4;stroke-dasharray:none;stroke-opacity:0.05882353;paint-order:markers stroke fill" />
    <path
       inkscape:connector-curvature="0"
       id="rect866"
       d="M 42,17.242188 A 40,40 0 0 1 23.494141,44 H 40 c 1.108,0 2,-0.849059 2,-1.904297 z"
       style="opacity:0.15;fill:url(#linearGradient877);fill-opacity:1;stroke:none;stroke-width:0.92582005;stroke-linecap:round;stroke-linejoin:round;stroke-miterlimit:4;stroke-dasharray:none;stroke-opacity:0.05882353;paint-order:markers stroke fill" />
  </g>
  <defs
     id="defs11">
    <linearGradient
       inkscape:collect="always"
       xlink:href="#linearGradient875"
       id="linearGradient877"
       x1="32.74707"
       y1="44"
       x2="32.74707"
       y2="17.242188"
       gradientUnits="userSpaceOnUse" />
    <linearGradient
       inkscape:collect="always"
       id="linearGradient875">
      <stop
         style="stop-color:#000000;stop-opacity:1;"
         offset="0"
         id="stop871" />
      <stop
         style="stop-color:#000000;stop-opacity:0;"
         offset="1"
         id="stop873" />
    </linearGradient>
  </defs>
  <path
     d="m 14.850584,24.949219 h -1.59375 v 2.43164 c 0,0.347658 -0.08203,0.611328 -0.246093,0.791016 -0.164064,0.179689 -0.371093,0.269531 -0.621094,0.269531 -0.26172,0 -0.472656,-0.08887 -0.632813,-0.266601 C 11.596677,27.997069 11.5166,27.73633 11.5166,27.392578 v -6.621094 c 0,-0.382814 0.08789,-0.656249 0.263672,-0.820312 0.175782,-0.164063 0.455076,-0.246094 0.837891,-0.246094 h 2.232421 c 0.66016,0 1.167967,0.05078 1.523438,0.152344 0.351564,0.09766 0.655272,0.259764 0.911133,0.486328 0.25586,0.226564 0.450194,0.503905 0.583007,0.832031 0.132814,0.328127 0.199219,0.697264 0.199219,1.107422 0,0.875005 -0.269528,1.538084 -0.808594,1.989258 -0.539065,0.451174 -1.341791,0.676758 -2.408203,0.676758 z m -0.421875,-3.9375 h -1.171875 v 2.625 h 1.171875 c 0.410159,0 0.752929,-0.04297 1.028321,-0.128906 0.275392,-0.08594 0.48535,-0.226562 0.629882,-0.421875 0.144533,-0.195314 0.216797,-0.451171 0.216797,-0.767579 0,-0.378908 -0.111327,-0.687498 -0.333984,-0.925781 -0.250001,-0.253907 -0.763668,-0.380859 -1.541016,-0.380859 z m 7.359375,-0.410156 3.345703,5.0625 v -5.109375 c 0,-0.332033 0.07129,-0.581054 0.213868,-0.747071 0.142578,-0.166016 0.334959,-0.249023 0.577148,-0.249023 0.250001,0 0.447265,0.08301 0.591797,0.249023 0.144532,0.166017 0.216797,0.415038 0.216797,0.747071 v 6.755859 c 0,0.75391 -0.312497,1.130859 -0.9375,1.130859 -0.156251,0 -0.296875,-0.02246 -0.421875,-0.06738 -0.125001,-0.04492 -0.242187,-0.116211 -0.351563,-0.213868 -0.109375,-0.09766 -0.210937,-0.211913 -0.304687,-0.342773 -0.09375,-0.13086 -0.1875,-0.264648 -0.28125,-0.401367 L 21.17285,22.412109 v 5.033204 c 0,0.328126 -0.07617,0.576171 -0.228516,0.74414 -0.152344,0.16797 -0.347655,0.251953 -0.585937,0.251953 -0.246095,0 -0.443359,-0.08496 -0.591797,-0.254882 -0.148438,-0.169923 -0.222656,-0.416991 -0.222656,-0.741211 v -6.626954 c 0,-0.281251 0.03125,-0.501952 0.09375,-0.662109 0.07422,-0.175782 0.197264,-0.319335 0.36914,-0.430664 0.171876,-0.111329 0.357421,-0.166992 0.556641,-0.166992 0.156251,0 0.290039,0.02539 0.401367,0.07617 0.111329,0.05078 0.208984,0.11914 0.292969,0.205078 0.08398,0.08594 0.169921,0.197265 0.257812,0.333984 0.08789,0.13672 0.178711,0.279296 0.272461,0.427735 z m 14.695313,4.201171 v 1.646485 c 0,0.218751 -0.02148,0.393554 -0.06445,0.524414 -0.04297,0.13086 -0.12207,0.249023 -0.237305,0.354492 -0.115235,0.105469 -0.262694,0.207031 -0.442383,0.304688 -0.519534,0.281251 -1.019529,0.486327 -1.5,0.615234 -0.480471,0.128907 -1.003903,0.193359 -1.570312,0.193359 -0.66016,0 -1.261716,-0.101561 -1.804688,-0.304687 -0.542971,-0.203126 -1.005857,-0.498045 -1.388672,-0.884766 -0.382814,-0.38672 -0.676756,-0.855466 -0.881836,-1.40625 C 28.388672,25.294919 28.286134,24.679691 28.286134,24 c 0,-0.667972 0.09961,-1.279294 0.298828,-1.833984 0.19922,-0.554691 0.492186,-1.025389 0.878907,-1.41211 0.38672,-0.38672 0.857419,-0.682616 1.412109,-0.887695 0.55469,-0.205079 1.18359,-0.307617 1.886719,-0.307617 0.578128,0 1.089841,0.07715 1.535156,0.231445 0.445315,0.154298 0.806639,0.348632 1.083984,0.583008 0.277345,0.234376 0.486328,0.482421 0.626953,0.744141 0.140626,0.26172 0.210938,0.494139 0.210938,0.697265 0,0.218751 -0.08105,0.405273 -0.243164,0.559571 -0.16211,0.154297 -0.356444,0.231445 -0.583008,0.231445 -0.125,0 -0.245117,-0.0293 -0.360351,-0.08789 -0.115235,-0.05859 -0.211914,-0.140624 -0.29004,-0.246094 -0.214844,-0.335939 -0.396483,-0.589842 -0.544921,-0.761718 -0.148439,-0.171876 -0.348632,-0.316406 -0.600586,-0.433594 -0.251955,-0.117188 -0.57324,-0.175781 -0.963868,-0.175781 -0.402345,0 -0.761717,0.06934 -1.078125,0.208008 -0.316407,0.138672 -0.586912,0.339842 -0.811523,0.603515 -0.22461,0.263673 -0.396484,0.586912 -0.515625,0.969727 -0.119141,0.382814 -0.178711,0.806638 -0.178711,1.271484 0,1.007818 0.231443,1.7832 0.694336,2.326172 0.462893,0.542971 1.108394,0.814453 1.936523,0.814453 0.402346,0 0.780272,-0.05273 1.13379,-0.158203 0.353517,-0.105469 0.711912,-0.255858 1.075195,-0.451172 v -1.394531 h -1.347656 c -0.324221,0 -0.569336,-0.04883 -0.735352,-0.146485 -0.166016,-0.09766 -0.249023,-0.26367 -0.249023,-0.498046 0,-0.191408 0.06934,-0.349609 0.208007,-0.47461 0.138673,-0.125 0.327148,-0.1875 0.56543,-0.1875 h 1.974609 c 0.242189,0 0.447265,0.02148 0.615235,0.06445 0.167969,0.04297 0.30371,0.138671 0.407226,0.28711 0.103517,0.148438 0.155274,0.371092 0.155274,0.667968 z"
     id="PNG"
     inkscape:connector-curvature="0"
     style="fill:#ffffff;fill-rule:evenodd;stroke:none;stroke-width:1" />
</svg>
