<?xml version="1.0" encoding="UTF-8" standalone="no"?>
<svg
   xmlns:dc="http://purl.org/dc/elements/1.1/"
   xmlns:cc="http://creativecommons.org/ns#"
   xmlns:rdf="http://www.w3.org/1999/02/22-rdf-syntax-ns#"
   xmlns:svg="http://www.w3.org/2000/svg"
   xmlns="http://www.w3.org/2000/svg"
   xmlns:xlink="http://www.w3.org/1999/xlink"
   xmlns:sodipodi="http://sodipodi.sourceforge.net/DTD/sodipodi-0.dtd"
   xmlns:inkscape="http://www.inkscape.org/namespaces/inkscape"
   width="48px"
   height="48px"
   viewBox="0 0 48 48"
   version="1.1"
   id="svg19"
   sodipodi:docname="stock_addressbook.svg"
   inkscape:version="0.92.2 2405546, 2018-03-11">
  <metadata
     id="metadata23">
    <rdf:RDF>
      <cc:Work
         rdf:about="">
        <dc:format>image/svg+xml</dc:format>
        <dc:type
           rdf:resource="http://purl.org/dc/dcmitype/StillImage" />
      </cc:Work>
    </rdf:RDF>
  </metadata>
  <sodipodi:namedview
     pagecolor="#ffffff"
     bordercolor="#666666"
     borderopacity="1"
     objecttolerance="10"
     gridtolerance="10"
     guidetolerance="10"
     inkscape:pageopacity="0"
     inkscape:pageshadow="2"
     inkscape:window-width="1920"
     inkscape:window-height="1051"
     id="namedview21"
     showgrid="false"
     inkscape:zoom="4.9166667"
     inkscape:cx="24"
     inkscape:cy="24"
     inkscape:window-x="0"
     inkscape:window-y="29"
     inkscape:window-maximized="1"
     inkscape:current-layer="svg19" />
  <!-- Generator: Sketch 41.2 (35397) - http://www.bohemiancoding.com/sketch -->
  <title
     id="title2">stock_addressbook</title>
  <desc
     id="desc4">Created with Sketch.</desc>
  <g
     id="g829">
    <rect
       rx="2"
       ry="1.9047618"
       y="4"
       x="6"
       height="40"
       width="36"
       id="rect834"
       style="opacity:1;fill:#ef6c00;fill-opacity:1;stroke:none;stroke-width:0.92582005;stroke-linecap:round;stroke-linejoin:round;stroke-miterlimit:4;stroke-dasharray:none;stroke-opacity:0.05882353;paint-order:markers stroke fill" />
    <path
       inkscape:connector-curvature="0"
       id="rect866"
       d="M 42,17.242188 A 40,40 0 0 1 23.494141,44 H 40 c 1.108,0 2,-0.849059 2,-1.904297 z"
       style="opacity:0.15;fill:url(#linearGradient877);fill-opacity:1;stroke:none;stroke-width:0.92582005;stroke-linecap:round;stroke-linejoin:round;stroke-miterlimit:4;stroke-dasharray:none;stroke-opacity:0.05882353;paint-order:markers stroke fill" />
  </g>
  <defs
     id="defs11">
    <linearGradient
       inkscape:collect="always"
       xlink:href="#linearGradient875"
       id="linearGradient877"
       x1="32.74707"
       y1="44"
       x2="32.74707"
       y2="17.242188"
       gradientUnits="userSpaceOnUse" />
    <linearGradient
       inkscape:collect="always"
       id="linearGradient875">
      <stop
         style="stop-color:#000000;stop-opacity:1;"
         offset="0"
         id="stop871" />
      <stop
         style="stop-color:#000000;stop-opacity:0;"
         offset="1"
         id="stop873" />
    </linearGradient>
  </defs>
  <g
     id="Page-1"
     transform="translate(0,-2)"
     style="fill:none;fill-rule:evenodd;stroke:none;stroke-width:1">
    <g
       id="stock_addressbook">
      <path
         d="M 32.00016,33 C 32.000046,32.999812 32,19.000872 32,19.000872 32,19.00053 15.99984,19 15.99984,19 15.999954,19.000187 16,32.999128 16,32.999128 16,32.99947 32.00016,33 32.00016,33 Z M 15,19.000872 C 15,18.448105 15.444946,18 15.993398,18 H 32.006602 C 32.555241,18 33,18.444631 33,19.000872 V 32.999128 C 33,33.551895 32.555054,34 32.006602,34 H 15.993398 C 15.444759,34 15,33.555369 15,32.999128 Z M 16,19 h 4 v 14 h -4 z"
         id="Combined-Shape"
         inkscape:connector-curvature="0"
         style="fill:#ffffff" />
      <path
         d="m 26.939453,24.296875 0.09766,-0.433594 h 1.03125 l -0.59375,2.800781 c -0.03646,0.177085 -0.05469,0.294271 -0.05469,0.351563 0,0.0599 0.01497,0.106771 0.04492,0.140625 0.02995,0.03385 0.06575,0.05078 0.107422,0.05078 0.140625,0 0.322264,-0.0918 0.544921,-0.27539 0.222658,-0.183595 0.416666,-0.433593 0.582032,-0.75 0.165365,-0.316408 0.248047,-0.662108 0.248047,-1.03711 0,-0.312501 -0.05925,-0.606769 -0.177735,-0.882812 -0.11849,-0.276043 -0.289712,-0.515624 -0.513672,-0.71875 -0.223959,-0.203126 -0.500649,-0.361979 -0.830078,-0.476563 -0.329429,-0.114584 -0.702472,-0.171875 -1.11914,-0.171875 -0.424482,0 -0.813801,0.05534 -1.167969,0.166016 -0.354169,0.110677 -0.665363,0.26953 -0.933594,0.476562 -0.26823,0.207033 -0.492186,0.462889 -0.671875,0.767578 -0.158855,0.265627 -0.279947,0.559895 -0.363281,0.882813 -0.08333,0.322918 -0.125,0.652342 -0.125,0.988281 0,0.447919 0.08919,0.85742 0.267578,1.228516 0.178386,0.371095 0.437498,0.68229 0.777344,0.933594 0.339845,0.251303 0.750648,0.429687 1.232422,0.535156 0.481773,0.105469 1.026038,0.126953 1.632812,0.06445 0.481773,-0.05729 0.889972,-0.166666 1.224609,-0.328125 0.334638,-0.161459 0.617838,-0.388019 0.84961,-0.679688 h 0.832031 c -0.135417,0.278648 -0.311848,0.527343 -0.529297,0.746094 -0.217449,0.218751 -0.472004,0.402994 -0.763672,0.552735 -0.291668,0.14974 -0.618487,0.263671 -0.980468,0.341796 -0.361981,0.07813 -0.756509,0.117188 -1.183594,0.117188 -0.640628,0 -1.217446,-0.08398 -1.730469,-0.251953 -0.513023,-0.16797 -0.94466,-0.410155 -1.294922,-0.726563 -0.350262,-0.316408 -0.615233,-0.694008 -0.794922,-1.132812 -0.179688,-0.438804 -0.269531,-0.923826 -0.269531,-1.455078 0,-0.554691 0.09245,-1.072915 0.277344,-1.554688 0.184897,-0.481773 0.45117,-0.900389 0.798828,-1.255859 0.347658,-0.355471 0.772133,-0.633463 1.273437,-0.833985 0.501305,-0.200521 1.054034,-0.300781 1.658204,-0.300781 0.494794,0 0.948565,0.07226 1.361328,0.216797 0.412762,0.144532 0.766274,0.352212 1.060547,0.623047 0.294272,0.270835 0.518879,0.591795 0.673828,0.962891 0.154948,0.371095 0.232422,0.780596 0.232422,1.228515 0,0.34896 -0.0625,0.690754 -0.1875,1.025391 -0.125001,0.334637 -0.304036,0.635415 -0.53711,0.902344 -0.233074,0.266928 -0.50716,0.477863 -0.822265,0.632812 C 27.78841,27.922527 27.44857,28 27.083984,28 c -0.210938,0 -0.374999,-0.03581 -0.492187,-0.107422 -0.117188,-0.07162 -0.195312,-0.185546 -0.234375,-0.341797 -0.226564,0.22396 -0.486978,0.365234 -0.78125,0.423828 -0.294272,0.05859 -0.579426,0.03125 -0.855469,-0.08203 -0.276043,-0.113282 -0.499348,-0.304035 -0.669922,-0.572266 -0.170574,-0.26823 -0.255859,-0.598956 -0.255859,-0.992187 0,-0.408856 0.08789,-0.811196 0.263672,-1.207031 0.175782,-0.395836 0.425779,-0.720051 0.75,-0.972657 0.32422,-0.252605 0.690753,-0.378906 1.099609,-0.378906 0.468752,0 0.812499,0.17578 1.03125,0.527344 z m -2.136719,2.023437 c 0,0.312502 0.0651,0.552083 0.195313,0.71875 0.130209,0.166668 0.30078,0.25 0.511719,0.25 0.244793,0 0.460285,-0.09765 0.646484,-0.292968 0.186199,-0.195314 0.327473,-0.442056 0.423828,-0.740235 0.09635,-0.298178 0.144531,-0.586587 0.144531,-0.865234 0,-0.138022 -0.01628,-0.262369 -0.04883,-0.373047 -0.03255,-0.110678 -0.08073,-0.207682 -0.144531,-0.291016 -0.0638,-0.08333 -0.140625,-0.146484 -0.230469,-0.189453 -0.08984,-0.04297 -0.192057,-0.06445 -0.30664,-0.06445 -0.229168,0 -0.435546,0.08919 -0.619141,0.267578 -0.183595,0.178387 -0.324869,0.410155 -0.423828,0.695313 -0.09896,0.285158 -0.148438,0.580076 -0.148438,0.884765 z"
         id="@"
         inkscape:connector-curvature="0"
         style="fill:#ffffff" />
    </g>
  </g>
</svg>
