<?xml version="1.0" encoding="UTF-8" standalone="no"?>
<svg
   xmlns:dc="http://purl.org/dc/elements/1.1/"
   xmlns:cc="http://creativecommons.org/ns#"
   xmlns:rdf="http://www.w3.org/1999/02/22-rdf-syntax-ns#"
   xmlns:svg="http://www.w3.org/2000/svg"
   xmlns="http://www.w3.org/2000/svg"
   xmlns:xlink="http://www.w3.org/1999/xlink"
   xmlns:sodipodi="http://sodipodi.sourceforge.net/DTD/sodipodi-0.dtd"
   xmlns:inkscape="http://www.inkscape.org/namespaces/inkscape"
   width="48px"
   height="48px"
   viewBox="0 0 48 48"
   version="1.1"
   id="svg18"
   sodipodi:docname="text-x-changlog.svg"
   inkscape:version="0.92.2 2405546, 2018-03-11">
  <metadata
     id="metadata22">
    <rdf:RDF>
      <cc:Work
         rdf:about="">
        <dc:format>image/svg+xml</dc:format>
        <dc:type
           rdf:resource="http://purl.org/dc/dcmitype/StillImage" />
        <dc:title>audio-x-adpcm</dc:title>
      </cc:Work>
    </rdf:RDF>
  </metadata>
  <sodipodi:namedview
     pagecolor="#ffffff"
     bordercolor="#666666"
     borderopacity="1"
     objecttolerance="10"
     gridtolerance="10"
     guidetolerance="10"
     inkscape:pageopacity="0"
     inkscape:pageshadow="2"
     inkscape:window-width="730"
     inkscape:window-height="444"
     id="namedview20"
     showgrid="false"
     inkscape:zoom="4.9166667"
     inkscape:cx="-10.576271"
     inkscape:cy="24"
     inkscape:window-x="1190"
     inkscape:window-y="255"
     inkscape:window-maximized="0"
     inkscape:current-layer="svg18" />
  <!-- Generator: Sketch 41.2 (35397) - http://www.bohemiancoding.com/sketch -->
  <title
     id="title2">audio-x-adpcm</title>
  <desc
     id="desc4">Created with Sketch.</desc>
  <g
     id="g829">
    <rect
       rx="2"
       ry="1.9047618"
       y="4"
       x="6"
       height="40"
       width="36"
       id="rect834"
       style="opacity:1;fill:#d86eb0;fill-opacity:1;stroke:none;stroke-width:0.92582005;stroke-linecap:round;stroke-linejoin:round;stroke-miterlimit:4;stroke-dasharray:none;stroke-opacity:0.05882353;paint-order:markers stroke fill" />
    <path
       inkscape:connector-curvature="0"
       id="rect866"
       d="M 42,17.242188 A 40,40 0 0 1 23.494141,44 H 40 c 1.108,0 2,-0.849059 2,-1.904297 z"
       style="opacity:0.15;fill:url(#linearGradient877);fill-opacity:1;stroke:none;stroke-width:0.92582005;stroke-linecap:round;stroke-linejoin:round;stroke-miterlimit:4;stroke-dasharray:none;stroke-opacity:0.05882353;paint-order:markers stroke fill" />
  </g>
  <defs
     id="defs11">
    <linearGradient
       inkscape:collect="always"
       xlink:href="#linearGradient875"
       id="linearGradient877"
       x1="32.74707"
       y1="44"
       x2="32.74707"
       y2="17.242188"
       gradientUnits="userSpaceOnUse" />
    <linearGradient
       inkscape:collect="always"
       id="linearGradient875">
      <stop
         style="stop-color:#000000;stop-opacity:1;"
         offset="0"
         id="stop871" />
      <stop
         style="stop-color:#000000;stop-opacity:0;"
         offset="1"
         id="stop873" />
    </linearGradient>
  </defs>
  <g
     style="fill:none;fill-rule:evenodd;stroke:none;stroke-width:1"
     id="Page-1">
    <g
       id="application-rtf">
      <rect
         style="fill:#ffffff"
         id="Rectangle-272"
         x="12"
         y="26"
         width="24"
         height="2"
         rx="1" />
      <rect
         style="fill:#ffffff"
         id="rect16"
         x="12"
         y="30"
         width="24"
         height="2"
         rx="1" />
      <path
         style="fill:#ffffff"
         inkscape:connector-curvature="0"
         d="m 19.976562,21.189453 -0.341796,-0.898437 h -2.910157 l -0.341797,0.917968 c -0.133464,0.358075 -0.247395,0.599772 -0.341796,0.725098 -0.0944,0.125326 -0.249023,0.187988 -0.463868,0.187988 -0.182292,0 -0.343423,-0.06673 -0.483398,-0.200195 -0.139975,-0.133464 -0.209961,-0.28483 -0.209961,-0.454102 0,-0.09766 0.01628,-0.198567 0.04883,-0.302734 0.03255,-0.104167 0.08626,-0.249022 0.161133,-0.43457 l 1.831055,-4.648438 c 0.05208,-0.133464 0.114745,-0.293781 0.187988,-0.480957 0.07324,-0.187175 0.151367,-0.34261 0.234375,-0.466308 0.08301,-0.123699 0.192057,-0.223796 0.327148,-0.300293 0.135092,-0.0765 0.30192,-0.114746 0.500489,-0.114746 0.201824,0 0.370279,0.03825 0.505371,0.114746 0.135092,0.0765 0.24414,0.174966 0.327148,0.29541 0.08301,0.120443 0.152995,0.249836 0.209961,0.388183 0.05697,0.138347 0.129394,0.323079 0.217285,0.5542 l 1.870117,4.61914 c 0.146486,0.351564 0.219727,0.607096 0.219727,0.766602 0,0.166016 -0.06917,0.318196 -0.20752,0.456543 -0.138347,0.138347 -0.305174,0.207519 -0.500488,0.207519 -0.113933,0 -0.211588,-0.02035 -0.292969,-0.06104 -0.08138,-0.04069 -0.149739,-0.09603 -0.205078,-0.166016 -0.05534,-0.06999 -0.114745,-0.177408 -0.178222,-0.322265 -0.06348,-0.144858 -0.118001,-0.272623 -0.163575,-0.383301 z m -2.871093,-1.987305 h 2.138672 l -1.079102,-2.954101 z m 6.621093,-3.720703 v 2.036133 c 0.250653,-0.260418 0.506184,-0.459797 0.766602,-0.598144 0.260418,-0.138348 0.58268,-0.20752 0.966797,-0.20752 0.44271,0 0.83089,0.104979 1.164551,0.314941 0.33366,0.209962 0.592447,0.514321 0.776367,0.913086 0.18392,0.398765 0.275879,0.87158 0.275879,1.418457 0,0.403648 -0.05127,0.773924 -0.153809,1.11084 -0.102539,0.336916 -0.251464,0.629068 -0.446777,0.876465 -0.195314,0.247397 -0.432128,0.438639 -0.710449,0.573731 -0.278322,0.135091 -0.585122,0.202636 -0.920411,0.202636 -0.205079,0 -0.397948,-0.02441 -0.578613,-0.07324 C 24.686034,22 24.532227,21.93571 24.405273,21.855957 c -0.126953,-0.07975 -0.235188,-0.161946 -0.324707,-0.246582 -0.08952,-0.08464 -0.207518,-0.211588 -0.354004,-0.380859 v 0.131836 c 0,0.250652 -0.06022,0.440266 -0.180664,0.568847 -0.120443,0.128582 -0.273436,0.192871 -0.458984,0.192871 -0.188803,0 -0.339355,-0.06429 -0.45166,-0.192871 -0.112305,-0.128581 -0.168457,-0.318195 -0.168457,-0.568847 v -5.820313 c 0,-0.270184 0.05452,-0.474446 0.163574,-0.612793 0.10905,-0.138347 0.26123,-0.207519 0.456543,-0.207519 0.205079,0 0.362955,0.06592 0.473633,0.197754 0.110677,0.131836 0.166015,0.319822 0.166015,0.563964 z m 0.06348,3.959961 c 0,0.530602 0.121255,0.938313 0.36377,1.223145 0.242514,0.284832 0.560707,0.427246 0.954589,0.427246 0.335289,0 0.624185,-0.145669 0.8667,-0.437012 0.242514,-0.291342 0.363769,-0.708819 0.363769,-1.252441 0,-0.351565 -0.05045,-0.654296 -0.151367,-0.908203 -0.100912,-0.253908 -0.24414,-0.450032 -0.429688,-0.588379 -0.185547,-0.138347 -0.402017,-0.20752 -0.649414,-0.20752 -0.253907,0 -0.480142,0.06917 -0.678711,0.20752 -0.198568,0.138347 -0.354817,0.33854 -0.46875,0.600586 -0.113932,0.262045 -0.170898,0.573728 -0.170898,0.935058 z m 9.736328,1.030274 c 0,0.166016 -0.04964,0.343423 -0.148926,0.532226 -0.09928,0.188803 -0.25065,0.368652 -0.454101,0.539551 -0.203452,0.170899 -0.459797,0.30843 -0.769043,0.412598 -0.309247,0.104167 -0.65755,0.15625 -1.044922,0.15625 -0.823572,0 -1.466469,-0.24007 -1.928711,-0.720215 -0.462242,-0.480146 -0.693359,-1.123857 -0.693359,-1.931153 0,-0.546877 0.105793,-1.030271 0.317382,-1.450195 0.21159,-0.419924 0.517577,-0.744628 0.917969,-0.974121 0.400393,-0.229493 0.878904,-0.344238 1.435547,-0.344238 0.345054,0 0.66162,0.05045 0.949707,0.151367 0.288087,0.100912 0.532226,0.231119 0.732422,0.390625 0.200196,0.159506 0.35319,0.329589 0.458984,0.510254 0.105795,0.180665 0.158692,0.34912 0.158692,0.505371 0,0.159506 -0.05941,0.294596 -0.178223,0.405273 -0.118816,0.110678 -0.262857,0.166016 -0.432129,0.166016 -0.110677,0 -0.202636,-0.02848 -0.275879,-0.08545 -0.07324,-0.05697 -0.155435,-0.148925 -0.246582,-0.275879 -0.162761,-0.247397 -0.332844,-0.432942 -0.510254,-0.556641 -0.177409,-0.123698 -0.40283,-0.185547 -0.676269,-0.185547 -0.393882,0 -0.711262,0.153807 -0.952149,0.461426 -0.240886,0.307619 -0.361328,0.72835 -0.361328,1.262207 0,0.250653 0.03092,0.480956 0.09277,0.690918 0.06185,0.209962 0.151366,0.388997 0.268554,0.53711 0.117188,0.148112 0.258789,0.260416 0.424805,0.336914 0.166017,0.0765 0.348306,0.114746 0.546875,0.114746 0.266928,0 0.495605,-0.06185 0.686035,-0.185547 0.190431,-0.123699 0.358886,-0.312499 0.505371,-0.566406 0.08138,-0.149741 0.169271,-0.266927 0.263672,-0.351563 0.0944,-0.08464 0.209961,-0.126953 0.34668,-0.126953 0.162761,0 0.297851,0.06185 0.405273,0.185547 0.107423,0.123698 0.161133,0.255533 0.161133,0.395508 z"
         id="ABC" />
    </g>
  </g>
</svg>
