<?xml version="1.0" encoding="UTF-8" standalone="no"?>
<svg
   xmlns:dc="http://purl.org/dc/elements/1.1/"
   xmlns:cc="http://creativecommons.org/ns#"
   xmlns:rdf="http://www.w3.org/1999/02/22-rdf-syntax-ns#"
   xmlns:svg="http://www.w3.org/2000/svg"
   xmlns="http://www.w3.org/2000/svg"
   xmlns:xlink="http://www.w3.org/1999/xlink"
   xmlns:sodipodi="http://sodipodi.sourceforge.net/DTD/sodipodi-0.dtd"
   xmlns:inkscape="http://www.inkscape.org/namespaces/inkscape"
   width="48px"
   height="48px"
   viewBox="0 0 48 48"
   version="1.1"
   id="svg18"
   sodipodi:docname="text-css.svg"
   inkscape:version="0.92.2 2405546, 2018-03-11">
  <metadata
     id="metadata22">
    <rdf:RDF>
      <cc:Work
         rdf:about="">
        <dc:format>image/svg+xml</dc:format>
        <dc:type
           rdf:resource="http://purl.org/dc/dcmitype/StillImage" />
      </cc:Work>
    </rdf:RDF>
  </metadata>
  <sodipodi:namedview
     pagecolor="#ffffff"
     bordercolor="#666666"
     borderopacity="1"
     objecttolerance="10"
     gridtolerance="10"
     guidetolerance="10"
     inkscape:pageopacity="0"
     inkscape:pageshadow="2"
     inkscape:window-width="1920"
     inkscape:window-height="1051"
     id="namedview20"
     showgrid="false"
     inkscape:zoom="4.9166667"
     inkscape:cx="24"
     inkscape:cy="24"
     inkscape:window-x="0"
     inkscape:window-y="29"
     inkscape:window-maximized="1"
     inkscape:current-layer="svg18" />
  <!-- Generator: Sketch 41.2 (35397) - http://www.bohemiancoding.com/sketch -->
  <title
     id="title2">text-css</title>
  <desc
     id="desc4">Created with Sketch.</desc>
  <g
     id="g829">
    <rect
       rx="2"
       ry="1.9047618"
       y="4"
       x="6"
       height="40"
       width="36"
       id="rect834"
       style="opacity:1;fill:#ab47bc;fill-opacity:1;stroke:none;stroke-width:0.92582005;stroke-linecap:round;stroke-linejoin:round;stroke-miterlimit:4;stroke-dasharray:none;stroke-opacity:0.05882353;paint-order:markers stroke fill" />
    <path
       inkscape:connector-curvature="0"
       id="rect866"
       d="M 42,17.242188 A 40,40 0 0 1 23.494141,44 H 40 c 1.108,0 2,-0.849059 2,-1.904297 z"
       style="opacity:0.15;fill:url(#linearGradient877);fill-opacity:1;stroke:none;stroke-width:0.92582005;stroke-linecap:round;stroke-linejoin:round;stroke-miterlimit:4;stroke-dasharray:none;stroke-opacity:0.05882353;paint-order:markers stroke fill" />
  </g>
  <defs
     id="defs11">
    <linearGradient
       inkscape:collect="always"
       xlink:href="#linearGradient875"
       id="linearGradient877"
       x1="32.74707"
       y1="44"
       x2="32.74707"
       y2="17.242188"
       gradientUnits="userSpaceOnUse" />
    <linearGradient
       inkscape:collect="always"
       id="linearGradient875">
      <stop
         style="stop-color:#000000;stop-opacity:1;"
         offset="0"
         id="stop871" />
      <stop
         style="stop-color:#000000;stop-opacity:0;"
         offset="1"
         id="stop873" />
    </linearGradient>
  </defs>
  <g
     id="Page-1"
     stroke="none"
     stroke-width="1"
     fill="none"
     fill-rule="evenodd">
    <g
       id="text-css">
      <path
         d="M13,29.990778 C13,29.4435864 13.4509752,29 13.990778,29 L18.009222,29 C18.5564136,29 19,29.4509752 19,29.990778 L19,34.009222 C19,34.5564136 18.5490248,35 18.009222,35 L13.990778,35 C13.4435864,35 13,34.5490248 13,34.009222 L13,29.990778 Z M21,29.990778 C21,29.4435864 21.4509752,29 21.990778,29 L26.009222,29 C26.5564136,29 27,29.4509752 27,29.990778 L27,34.009222 C27,34.5564136 26.5490248,35 26.009222,35 L21.990778,35 C21.4435864,35 21,34.5490248 21,34.009222 L21,29.990778 Z M29,29.990778 C29,29.4435864 29.4509752,29 29.990778,29 L34.009222,29 C34.5564136,29 35,29.4509752 35,29.990778 L35,34.009222 C35,34.5564136 34.5490248,35 34.009222,35 L29.990778,35 C29.4435864,35 29,34.5490248 29,34.009222 L29,29.990778 Z M13,21.990778 C13,21.4435864 13.4509752,21 13.990778,21 L18.009222,21 C18.5564136,21 19,21.4509752 19,21.990778 L19,26.009222 C19,26.5564136 18.5490248,27 18.009222,27 L13.990778,27 C13.4435864,27 13,26.5490248 13,26.009222 L13,21.990778 Z M21,21.990778 C21,21.4435864 21.4509752,21 21.990778,21 L26.009222,21 C26.5564136,21 27,21.4509752 27,21.990778 L27,26.009222 C27,26.5564136 26.5490248,27 26.009222,27 L21.990778,27 C21.4435864,27 21,26.5490248 21,26.009222 L21,21.990778 Z M13,13.990778 C13,13.4435864 13.4509752,13 13.990778,13 L18.009222,13 C18.5564136,13 19,13.4509752 19,13.990778 L19,18.009222 C19,18.5564136 18.5490248,19 18.009222,19 L13.990778,19 C13.4435864,19 13,18.5490248 13,18.009222 L13,13.990778 Z"
         id="Combined-Shape"
         fill="#FFFFFF" />
    </g>
  </g>
</svg>
