<?xml version="1.0" encoding="UTF-8" standalone="no"?>
<!-- Created with Inkscape (http://www.inkscape.org/) -->

<svg
   xmlns:osb="http://www.openswatchbook.org/uri/2009/osb"
   xmlns:dc="http://purl.org/dc/elements/1.1/"
   xmlns:cc="http://creativecommons.org/ns#"
   xmlns:rdf="http://www.w3.org/1999/02/22-rdf-syntax-ns#"
   xmlns:svg="http://www.w3.org/2000/svg"
   xmlns="http://www.w3.org/2000/svg"
   xmlns:sodipodi="http://sodipodi.sourceforge.net/DTD/sodipodi-0.dtd"
   xmlns:inkscape="http://www.inkscape.org/namespaces/inkscape"
   sodipodi:docname="x-office-drawing-symbolic.svg"
   inkscape:export-filename="/home/sam/source-symbolic.png"
   inkscape:export-xdpi="270"
   inkscape:export-ydpi="270"
   height="16"
   id="svg7384"
   style="enable-background:new"
   version="1.1"
   inkscape:version="0.92.2 2405546, 2018-03-11"
   width="16">
  <sodipodi:namedview
     inkscape:bbox-nodes="true"
     inkscape:bbox-paths="false"
     bordercolor="#666666"
     borderlayer="false"
     borderopacity="1"
     inkscape:current-layer="layer14"
     inkscape:cx="7.5654447"
     inkscape:cy="7.445639"
     gridtolerance="10"
     inkscape:guide-bbox="true"
     guidetolerance="10"
     id="namedview88"
     inkscape:object-nodes="true"
     inkscape:object-paths="true"
     objecttolerance="10"
     pagecolor="#f7f7f7"
     inkscape:pageopacity="1"
     inkscape:pageshadow="2"
     showborder="true"
     showgrid="false"
     showguides="true"
     inkscape:showpageshadow="false"
     inkscape:snap-bbox="true"
     inkscape:snap-bbox-edge-midpoints="false"
     inkscape:snap-bbox-midpoints="true"
     inkscape:snap-center="false"
     inkscape:snap-global="true"
     inkscape:snap-grids="true"
     inkscape:snap-intersection-paths="true"
     inkscape:snap-midpoints="true"
     inkscape:snap-nodes="true"
     inkscape:snap-object-midpoints="true"
     inkscape:snap-others="true"
     inkscape:snap-page="false"
     inkscape:snap-smooth-nodes="true"
     inkscape:snap-to-guides="true"
     inkscape:window-height="1051"
     inkscape:window-maximized="1"
     inkscape:window-width="1920"
     inkscape:window-x="0"
     inkscape:window-y="29"
     inkscape:zoom="45.254834">
    <inkscape:grid
       color="#000000"
       dotted="false"
       empcolor="#0800ff"
       empopacity="0.4627451"
       empspacing="4"
       enabled="true"
       id="grid4866"
       opacity="0.16470588"
       originx="-443.99998"
       originy="-548.00336"
       snapvisiblegridlinesonly="true"
       spacingx="0.25"
       spacingy="0.25"
       type="xygrid"
       visible="true" />
  </sodipodi:namedview>
  <metadata
     id="metadata90">
    <rdf:RDF>
      <cc:Work
         rdf:about="">
        <dc:format>image/svg+xml</dc:format>
        <dc:type
           rdf:resource="http://purl.org/dc/dcmitype/StillImage" />
        <dc:title>Paper Symbolic Icon Theme</dc:title>
      </cc:Work>
    </rdf:RDF>
  </metadata>
  <title
     id="title8473">Paper Symbolic Icon Theme</title>
  <defs
     id="defs7386">
    <linearGradient
       id="linearGradient5606"
       osb:paint="solid">
      <stop
         id="stop5608"
         offset="0"
         style="stop-color:#000000;stop-opacity:1;" />
    </linearGradient>
    <filter
       inkscape:collect="always"
       id="filter7554"
       style="color-interpolation-filters:sRGB">
      <feBlend
         inkscape:collect="always"
         id="feBlend7556"
         in2="BackgroundImage"
         mode="darken" />
    </filter>
  </defs>
  <g
     inkscape:groupmode="layer"
     id="layer9"
     inkscape:label="status"
     style="display:inline"
     transform="translate(-685.00018,331.00336)" />
  <g
     inkscape:groupmode="layer"
     id="layer10"
     inkscape:label="devices"
     style="display:inline;filter:url(#filter7554)"
     transform="translate(-685.00018,331.00336)" />
  <g
     inkscape:groupmode="layer"
     id="layer1"
     inkscape:label="places"
     style="display:inline"
     transform="translate(-443.99998,-285.99664)" />
  <g
     inkscape:groupmode="layer"
     id="layer14"
     inkscape:label="mimetypes"
     style="display:inline"
     transform="translate(-685.00018,331.00336)">
    <path
       style="display:inline;opacity:1;fill:#555555;fill-opacity:1;stroke:none;stroke-width:1;stroke-linecap:round;stroke-linejoin:round;stroke-miterlimit:4;stroke-dasharray:none;stroke-opacity:1;paint-order:markers stroke fill;enable-background:new"
       d="M 3 1 C 1.8920094 1 1 1.892 1 3 L 1 13 C 1 14.108 1.8920094 15 3 15 L 13 15 C 14.107991 15 15 14.108 15 13 L 15 3 C 15 1.892 14.107991 1 13 1 L 3 1 z M 5.5 4.0039062 C 6.32843 4.0039062 7 4.6754762 7 5.5039062 C 7 6.3323363 6.32843 7.0039062 5.5 7.0039062 C 4.67157 7.0039062 4 6.3323363 4 5.5039062 C 4 4.6754762 4.67157 4.0039062 5.5 4.0039062 z M 8.5 9.0039062 C 8.94583 9.0039062 9.3323856 9.2168356 9.5722656 9.4785156 C 9.8121356 9.7401956 9.9472656 10.03125 10.072266 10.28125 C 10.197266 10.53125 10.312136 10.740196 10.416016 10.853516 C 10.519886 10.966806 10.57083 11.003906 10.75 11.003906 L 11.5 11.003906 L 12 11.003906 L 12 12.003906 L 11.5 12.003906 L 10.75 12.003906 C 10.30417 12.003906 9.9176144 11.790977 9.6777344 11.529297 C 9.4378644 11.267617 9.3027344 10.976562 9.1777344 10.726562 C 9.0527344 10.476562 8.9378644 10.267617 8.8339844 10.154297 C 8.7301144 10.041007 8.67917 10.003906 8.5 10.003906 C 8.32083 10.003906 8.2698856 10.041007 8.1660156 10.154297 C 8.0621356 10.267617 7.9472656 10.476562 7.8222656 10.726562 C 7.6972656 10.976562 7.5621356 11.267617 7.3222656 11.529297 C 7.0823856 11.790977 6.69583 12.003906 6.25 12.003906 L 4.5 12.003906 L 4 12.003906 L 4 11.003906 L 4.5 11.003906 L 6.25 11.003906 C 6.42917 11.003906 6.4801144 10.966806 6.5839844 10.853516 C 6.6878644 10.740196 6.8027344 10.53125 6.9277344 10.28125 C 7.0527344 10.03125 7.1878644 9.7401956 7.4277344 9.4785156 C 7.6676144 9.2168356 8.05417 9.0039062 8.5 9.0039062 z "
       transform="translate(685.00018,-331.00336)"
       id="rect827" />
  </g>
  <g
     inkscape:groupmode="layer"
     id="layer15"
     inkscape:label="emblems"
     style="display:inline"
     transform="translate(-685.00018,331.00336)" />
  <g
     inkscape:groupmode="layer"
     id="g71291"
     inkscape:label="emotes"
     style="display:inline"
     transform="translate(-685.00018,331.00336)" />
  <g
     inkscape:groupmode="layer"
     id="layer2"
     inkscape:label="categories"
     style="display:inline"
     transform="translate(-443.99998,-135.99664)" />
  <g
     inkscape:groupmode="layer"
     id="g6058"
     inkscape:label="apps"
     style="display:inline"
     transform="translate(-443.99998,-135.99664)" />
  <g
     inkscape:groupmode="layer"
     id="layer12"
     inkscape:label="actions"
     style="display:inline"
     transform="translate(-685.00018,331.00336)" />
</svg>
