<svg xmlns="http://www.w3.org/2000/svg" width="16" height="16"><path d="M3 1C1 1 1 3 1 3v10c0 2 2 2 2 2h10c2 0 2-2 2-2V3c0-2-2-2-2-2zm2.5 3a1.5 1.5 0 1 1 0 3 1.5 1.5 0 0 1 0-3zm3 5c.45 0 .83.21 1.07.47.24.27.74 1.27.85 1.38.1.11.15.15.33.15H12v1h-1.25c-.45 0-.83-.211-1.07-.471-.24-.27-.74-1.269-.85-1.379-.1-.11-.15-.15-.33-.15-.18 0-.23.04-.33.15-.11.11-.61 1.109-.85 1.379-.24.26-.62.471-1.07.471H4v-1h2.25c.18 0 .23-.04.33-.15.11-.11.61-1.11.85-1.38.24-.26.62-.47 1.07-.47z" fill="#555555"/></svg>