<?xml version="1.0" encoding="UTF-8" standalone="no"?>
<!-- Created with Inkscape (http://www.inkscape.org/) -->

<svg
   xmlns:dc="http://purl.org/dc/elements/1.1/"
   xmlns:cc="http://creativecommons.org/ns#"
   xmlns:rdf="http://www.w3.org/1999/02/22-rdf-syntax-ns#"
   xmlns:svg="http://www.w3.org/2000/svg"
   xmlns="http://www.w3.org/2000/svg"
   xmlns:xlink="http://www.w3.org/1999/xlink"
   xmlns:sodipodi="http://sodipodi.sourceforge.net/DTD/sodipodi-0.dtd"
   xmlns:inkscape="http://www.inkscape.org/namespaces/inkscape"
   width="64"
   height="64"
   viewBox="0 0 16.933333 16.933334"
   version="1.1"
   id="svg8"
   inkscape:version="0.92.2 2405546, 2018-03-11"
   sodipodi:docname="default-network.svg">
  <defs
     id="defs2">
    <linearGradient
       inkscape:collect="always"
       id="linearGradient835">
      <stop
         style="stop-color:#000000;stop-opacity:1;"
         offset="0"
         id="stop831" />
      <stop
         style="stop-color:#000000;stop-opacity:0;"
         offset="1"
         id="stop833" />
    </linearGradient>
    <clipPath
       clipPathUnits="userSpaceOnUse"
       id="clipPath827">
      <rect
         ry="0.52915645"
         y="285.35831"
         x="0.52916664"
         height="9.5249939"
         width="15.875"
         id="rect829"
         style="opacity:1;fill:#4d4d4d;fill-opacity:1;stroke:none;stroke-width:0.25100571;stroke-miterlimit:4;stroke-dasharray:none;stroke-opacity:0.19607843;paint-order:markers stroke fill"
         transform="rotate(45)" />
    </clipPath>
    <linearGradient
       inkscape:collect="always"
       xlink:href="#linearGradient835"
       id="linearGradient837"
       x1="-197.10156"
       y1="217.68132"
       x2="-196.91447"
       y2="219.36513"
       gradientUnits="userSpaceOnUse" />
  </defs>
  <sodipodi:namedview
     id="base"
     pagecolor="#ffffff"
     bordercolor="#666666"
     borderopacity="1.0"
     inkscape:pageopacity="0.0"
     inkscape:pageshadow="2"
     inkscape:zoom="22.4"
     inkscape:cx="0.4796832"
     inkscape:cy="42.512898"
     inkscape:document-units="mm"
     inkscape:current-layer="layer1"
     showgrid="true"
     units="px"
     inkscape:window-width="1920"
     inkscape:window-height="1026"
     inkscape:window-x="0"
     inkscape:window-y="28"
     inkscape:window-maximized="1">
    <inkscape:grid
       type="xygrid"
       id="grid3713" />
  </sodipodi:namedview>
  <metadata
     id="metadata5">
    <rdf:RDF>
      <cc:Work
         rdf:about="">
        <dc:format>image/svg+xml</dc:format>
        <dc:type
           rdf:resource="http://purl.org/dc/dcmitype/StillImage" />
        <dc:title />
      </cc:Work>
    </rdf:RDF>
  </metadata>
  <g
     inkscape:label="Layer 1"
     inkscape:groupmode="layer"
     id="layer1"
     transform="translate(0,-280.06663)">
    <path
       inkscape:connector-curvature="0"
       id="rect4538"
       d="m 3.4395833,282.44788 c -0.2931528,0 -0.3943929,0.26884 -0.5291667,0.52917 h -0.79375 c -0.2931605,0 -0.5291666,0.236 -0.5291666,0.52916 v 5.29167 c 0,0.29316 0.2360061,0.52917 0.5291666,0.52917 H 14.816666 c 0.293161,0 0.529167,-0.23601 0.529167,-0.52917 v -5.29167 c 0,-0.29316 -0.236006,-0.52916 -0.529167,-0.52916 H 7.6729166 c -0.1553681,-0.24859 -0.2360139,-0.52917 -0.5291667,-0.52917 z"
       style="opacity:1;fill:#4d4d4d;fill-opacity:1;stroke:none;stroke-width:0.26458332;stroke-miterlimit:4;stroke-dasharray:none;stroke-opacity:0.19607843;paint-order:markers stroke fill" />
    <path
       style="opacity:0.18000004;fill:#000000;fill-opacity:1;stroke:none;stroke-width:0.26458332;stroke-miterlimit:4;stroke-dasharray:none;stroke-opacity:0.19607843;paint-order:markers stroke fill"
       d="m 3.4395833,282.44788 c -0.2931528,0 -0.3943929,0.26884 -0.5291667,0.52917 h -0.79375 c -0.2931605,0 -0.5291666,0.236 -0.5291666,0.52916 v 5.29167 c 0,0.29316 0.2360061,0.52917 0.5291666,0.52917 H 14.816666 c 0.293161,0 0.529167,-0.23601 0.529167,-0.52917 v -5.29167 c 0,-0.29316 -0.236006,-0.52916 -0.529167,-0.52916 H 7.6729167 C 7.5175486,282.72846 7.4369028,282.44788 7.14375,282.44788 Z"
       id="path828"
       inkscape:connector-curvature="0" />
    <rect
       style="opacity:1;fill:#ffffff;fill-opacity:1;stroke:none;stroke-width:0.26458332;stroke-miterlimit:4;stroke-dasharray:none;stroke-opacity:0.19607843;paint-order:markers stroke fill"
       id="rect827"
       width="12.170834"
       height="5.0270834"
       x="2.3812499"
       y="283.77078"
       ry="0.26459754" />
    <rect
       style="opacity:1;fill:#4d4d4d;fill-opacity:1;stroke:none;stroke-width:0.25100571;stroke-miterlimit:4;stroke-dasharray:none;stroke-opacity:0.19607843;paint-order:markers stroke fill"
       id="rect822"
       width="15.875"
       height="9.5249939"
       x="0.52916664"
       y="285.35831"
       ry="0.52915645" />
    <path
       style="opacity:1;fill:#4d4d4d;fill-opacity:1;stroke:none;stroke-width:0.13317069;stroke-miterlimit:4;stroke-dasharray:none;stroke-opacity:0.19607843;paint-order:markers stroke fill"
       d="m 8.4666727,284.29996 h 7.4083213 c 0.293161,0 0.529172,0.23601 0.529172,0.52917 v 3.96874 c 0,0.29316 -0.236011,0.52917 -0.529172,0.52917 H 6.1515685 c -0.2931617,0 -0.6768878,-0.27594 -0.5291727,-0.52917 L 7.9375,284.82913 c 0.1477151,-0.25323 0.236011,-0.52917 0.5291727,-0.52917 z"
       id="rect824"
       inkscape:connector-curvature="0"
       sodipodi:nodetypes="sssssssss" />
    <rect
       style="opacity:0.25;fill:#000000;fill-opacity:1;stroke:none;stroke-width:0.71899027;stroke-miterlimit:4;stroke-dasharray:none;stroke-opacity:0.03921569;paint-order:stroke markers fill"
       id="rect817"
       width="3.1749997"
       height="0.52915847"
       x="3.7041667"
       y="282.71246"
       ry="0.26457924" />
    <rect
       style="opacity:0.1;fill:url(#linearGradient837);fill-opacity:1;stroke:none;stroke-width:0.52916664;stroke-miterlimit:4;stroke-dasharray:none;stroke-opacity:0.03921569;paint-order:stroke markers fill"
       id="rect819"
       width="5.2916665"
       height="4.7624998"
       x="-199.58691"
       y="217.86841"
       ry="0.13229166"
       transform="rotate(-45)"
       clip-path="url(#clipPath827)" />
    <path
       style="color:#000000;line-height:normal;opacity:1;fill:#ffffff;fill-opacity:1;stroke-width:0.20706521"
       d="m 8.4666669,287.47496 a 2.38125,2.38125 0 0 0 -2.38125,2.38125 2.38125,2.38125 0 0 0 2.38125,2.38125 2.38125,2.38125 0 0 0 2.3812491,-2.38125 2.38125,2.38125 0 0 0 -2.3812491,-2.38125 z m 0.2123228,0.25398 c 0.2316043,0.0214 0.4560066,0.0742 0.6600204,0.16298 -0.015707,0.0196 -0.027845,0.0369 -0.038824,0.07 -0.06275,0.1882 -0.1563221,0.0983 -0.046509,0.33365 0.1098133,0.23527 0.2015744,0.29625 0.2329483,0.18644 0.031375,-0.10973 -0.07899,-0.26456 0.046509,-0.2018 0.1255014,0.0628 0.2182839,-0.0172 0.1241581,0.12415 -0.094125,0.14118 -0.091995,0.21786 -0.2018076,0.18644 -0.1098133,-0.0315 -0.1077671,0.18581 -0.2175804,0.21718 -0.1098125,0.0315 -0.1476147,-0.0473 -0.1476147,0.0312 0,0.0784 0.062605,0.006 0.046913,0.13225 -0.00477,0.0384 -0.00371,0.0451 -0.00809,0.0619 -0.1030798,-0.0295 -0.1487294,-0.0456 -0.22486,-0.0158 -0.078438,0.0315 -0.1710715,0.23295 -0.1710715,0.23295 0.097984,0.098 0.1436078,0.16843 0.1787557,0.20181 -0.021929,0.0109 -0.048396,0.0156 -0.069965,0.0311 -0.1568756,0.10985 -0.2789037,0.1304 -0.3259661,0.28714 -0.047063,0.15702 -0.031141,0.0131 -0.031141,0.20182 0,0.18828 -0.047619,0.0607 0.046509,0.23335 0.094125,0.17257 0.3249434,0.25527 0.4347559,0.34942 0.1098133,0.0941 0.2232197,-0.20475 0.4428446,0.0776 0.2196258,0.28233 0.2337375,0.169 0.155299,0.32596 -0.078438,0.15687 -0.1550648,0.20903 -0.1864395,0.27177 -0.031375,0.0628 0.06085,0.27897 0.1706668,0.32597 h 0.00769 c -0.00587,0.0135 -0.00957,0.0254 -0.015368,0.0388 -0.1422023,0.0646 -0.3165218,0.15403 -0.3494226,0.16339 -0.07765,0.0224 -0.35156,0.0686 -0.5512301,0.12416 -0.02496,0.007 -0.04485,0.007 -0.054597,0.008 0.024823,-0.027 0.221412,-0.12979 0.3186863,-0.18644 0.1331148,-0.0778 -0.00809,-0.07 -0.00809,-0.07 0,0 -0.2116301,-0.0235 -0.6442478,-0.0235 -0.2163098,0 -0.3099618,0.01 -0.3571067,0.0235 -0.023571,0.007 -0.035474,0.0142 -0.046913,0.0235 -0.01144,0.01 -0.019413,0.02 -0.038825,0.0312 -0.07765,0.0444 0.04564,0.0909 -0.054193,0.12416 -0.074876,0.0248 -0.083658,-1.1e-4 -0.147615,-0.0469 0.045623,-0.0454 0.108661,-0.1 0.1864397,-0.19413 0.1411881,-0.1708 0.185886,-0.13993 0.2329484,-0.29523 0.047064,-0.15535 -0.3959313,-0.1086 -0.3959313,-0.2018 0,-0.0932 -0.076393,-0.15504 -0.2175804,-0.21718 -0.141188,-0.0621 -0.044933,-0.0933 -0.2018076,-0.13993 -0.1568753,-0.0464 -0.3335005,0.23304 -0.3805633,0.13993 -0.047064,-0.0932 0.1476149,-0.0932 0.1476149,-0.20181 0,-0.10609 -0.2238238,0.0799 -0.2640891,-0.0546 -0.00106,-0.005 -0.0069,-0.005 -0.00769,-0.008 -0.00394,-0.0197 -0.00139,-0.0312 0,-0.0465 0.00987,-0.11169 0.1392169,-0.15532 0.1941236,-0.26409 0.06275,-0.12412 0.030352,0.0935 0.1087902,0.20222 0.078438,0.10871 0.047064,-0.13969 0,-0.27947 -0.047063,-0.13982 0.029714,-0.14001 0.1395264,-0.32637 0.1098129,-0.1864 0.1087899,-0.29495 0.1087899,-0.43475 0,-0.13973 0.076073,-0.15534 0.2329484,-0.29523 0.071901,-0.064 0.128555,-0.11971 0.1710715,-0.17067 0.010276,-0.005 0.020338,-0.005 0.030736,-0.008 0.166392,-0.0666 0.2363569,-0.16635 0.3805631,-0.46589 0.1442068,-0.29944 -0.056331,-0.02 -0.1007016,-0.0312 -0.044372,-0.011 -0.1087899,-0.0896 -0.2640889,-0.17835 -0.03203,-0.0182 -0.060532,-0.027 -0.085334,-0.0308 l 0.2871413,-0.47398 c 0.092029,-0.0248 0.1906739,-0.0416 0.2871412,-0.0542 0.035296,0.20083 0.015773,0.38825 0.015773,0.38825 0,0 -0.054597,0.0644 -0.054597,0.10879 0,0.0444 0.2973672,-0.36605 0.3417384,-0.38825 0.044372,-0.0224 0.1565703,0.11735 0.1787556,-0.0934 0.00123,-0.012 -0.00124,-0.0124 0,-0.0226 z m 0.3935046,0.83756 c -0.00915,0.002 -0.018912,0.005 -0.028714,0.009 0,0.0549 -0.021343,0.0949 -0.031141,0.11647 -0.00587,-0.01 -0.023053,-0.0235 -0.023053,-0.0235 -0.023525,0.0434 -0.074435,0.0817 -0.023456,0.07 0.050987,-0.0114 0.089897,0.0197 0.054597,-0.0235 -0.00681,-0.008 -0.00394,-0.005 -0.00809,-0.008 0.00657,0.005 0.019459,0.008 0.046914,0.008 h 0.069561 c -0.03787,0.0279 -0.078935,0.0402 -0.023052,0.0546 0.074512,0.0196 0.1087899,0.0236 0.1087899,0.008 0,-0.0155 -0.023456,-0.07 -0.023456,-0.07 0.014556,-0.006 0.027913,-0.0131 0.015368,-0.0388 -0.023533,-0.0468 -0.060586,-0.0938 -0.1083858,-0.1011 v -4.1e-4 c -0.00797,-0.002 -0.016738,-0.002 -0.025883,-7.8e-4 z m 1.2136767,0.13265 c 0.0388,0.0603 0.07605,0.12229 0.108791,0.18644 -0.0216,0.12529 -0.07662,0.20989 0.01537,0.20989 0.02572,0 0.04873,-0.005 0.06996,-0.008 0.0029,0.008 0.0049,0.0157 0.0077,0.023 -0.156877,0 -0.23216,0.047 -0.310598,0.0311 -0.07844,-0.016 -0.2964874,-0.0297 -0.155299,-0.17067 0.08252,-0.0826 0.185679,-0.21361 0.264089,-0.27177 z m -0.9783017,0.28714 v 4e-4 c 0.014455,0.005 0.027062,0.0198 0.038824,0.0465 0.047066,0.10987 0.1250355,0.20147 0.062282,0.21718 -0.06275,0.0155 -0.093422,0.0312 -0.093422,0.0312 0,0 0.2172611,0.14138 0.2329484,-0.0153 0.015691,-0.15696 -0.061877,-0.24872 -0.061877,-0.24872 0,0 0.1081516,0.1083 0.1395264,0.17107 0.031375,0.0628 0.030352,-6e-5 0.1087907,0.0776 0.078437,0.0784 0.060856,-0.31164 0.1706666,-0.20181 0.1098136,0.1098 0.1789906,0.10763 0.1476146,0.18604 -0.03137,0.0784 0.201808,-0.0946 0.201808,0.0623 0,0.15124 0.09661,0.21243 -0.09302,0.28714 -0.0718,-0.005 -0.128784,-0.0169 -0.139931,-0.0388 -0.031375,-0.0627 -0.2094917,-0.0153 -0.2094917,-0.0153 -0.4692875,-0.11728 -0.6731022,-0.15433 -0.8076352,-0.13184 0.0025,-0.005 0.00495,-0.005 0.00769,-0.008 0.068635,-0.12362 0.1977663,-0.29517 0.1552989,-0.3571 0.059815,-0.0344 0.1068592,-0.0723 0.1399306,-0.0623 z m 1.3200407,0.78458 c 0.0014,0.0314 0,0.0616 0,0.0934 0,0.0883 -0.0052,0.17821 -0.01537,0.26369 -0.14114,-0.12556 -0.341739,-0.12416 -0.341739,-0.12416 0,0 0.122262,-0.13902 0.294826,-0.20181 0.02158,-0.008 0.04484,-0.0185 0.06228,-0.0311 z"
       id="path4150"
       inkscape:connector-curvature="0" />
  </g>
</svg>
