<?xml version="1.0" encoding="UTF-8" standalone="no"?>
<!-- Created with Inkscape (http://www.inkscape.org/) -->

<svg
   xmlns:dc="http://purl.org/dc/elements/1.1/"
   xmlns:cc="http://creativecommons.org/ns#"
   xmlns:rdf="http://www.w3.org/1999/02/22-rdf-syntax-ns#"
   xmlns:svg="http://www.w3.org/2000/svg"
   xmlns="http://www.w3.org/2000/svg"
   xmlns:xlink="http://www.w3.org/1999/xlink"
   xmlns:sodipodi="http://sodipodi.sourceforge.net/DTD/sodipodi-0.dtd"
   xmlns:inkscape="http://www.inkscape.org/namespaces/inkscape"
   width="64"
   height="64"
   viewBox="0 0 16.933333 16.933334"
   version="1.1"
   id="svg8"
   inkscape:version="0.92.2 2405546, 2018-03-11"
   sodipodi:docname="grey-folder-move.svg">
  <defs
     id="defs2">
    <linearGradient
       inkscape:collect="always"
       id="linearGradient835">
      <stop
         style="stop-color:#000000;stop-opacity:1;"
         offset="0"
         id="stop831" />
      <stop
         style="stop-color:#000000;stop-opacity:0;"
         offset="1"
         id="stop833" />
    </linearGradient>
    <clipPath
       clipPathUnits="userSpaceOnUse"
       id="clipPath827">
      <rect
         ry="0.52915645"
         y="285.35831"
         x="0.52916664"
         height="9.5249939"
         width="15.875"
         id="rect829"
         style="opacity:1;fill:#bdbdbd;fill-opacity:1;stroke:none;stroke-width:0.25100571;stroke-miterlimit:4;stroke-dasharray:none;stroke-opacity:0.19607843;paint-order:markers stroke fill"
         transform="rotate(45)" />
    </clipPath>
    <linearGradient
       inkscape:collect="always"
       xlink:href="#linearGradient835"
       id="linearGradient837"
       x1="-197.10156"
       y1="217.68132"
       x2="-196.91447"
       y2="219.36513"
       gradientUnits="userSpaceOnUse" />
    <linearGradient
       inkscape:collect="always"
       xlink:href="#linearGradient835"
       id="linearGradient850"
       gradientUnits="userSpaceOnUse"
       x1="-197.10156"
       y1="217.68132"
       x2="-196.91447"
       y2="219.36513" />
  </defs>
  <sodipodi:namedview
     id="base"
     pagecolor="#ffffff"
     bordercolor="#666666"
     borderopacity="1.0"
     inkscape:pageopacity="0.0"
     inkscape:pageshadow="2"
     inkscape:zoom="15.839192"
     inkscape:cx="19.961169"
     inkscape:cy="30.603012"
     inkscape:document-units="mm"
     inkscape:current-layer="layer1"
     showgrid="true"
     units="px"
     inkscape:window-width="1920"
     inkscape:window-height="1026"
     inkscape:window-x="0"
     inkscape:window-y="28"
     inkscape:window-maximized="1">
    <inkscape:grid
       type="xygrid"
       id="grid3713" />
  </sodipodi:namedview>
  <metadata
     id="metadata5">
    <rdf:RDF>
      <cc:Work
         rdf:about="">
        <dc:format>image/svg+xml</dc:format>
        <dc:type
           rdf:resource="http://purl.org/dc/dcmitype/StillImage" />
        <dc:title />
      </cc:Work>
    </rdf:RDF>
  </metadata>
  <g
     inkscape:label="Layer 1"
     inkscape:groupmode="layer"
     id="layer1"
     transform="translate(0,-280.06663)">
    <path
       inkscape:connector-curvature="0"
       id="rect4538"
       d="m 3.0691667,287.15746 c -0.1758917,0 -0.2366358,0.1613 -0.3175,0.3175 h -0.47625 c -0.1758963,0 -0.3175,0.1416 -0.3175,0.3175 v 3.175 c 0,0.17589 0.1416037,0.3175 0.3175,0.3175 h 7.6199996 c 0.1758967,0 0.3174997,-0.14161 0.3174997,-0.3175 v -3.175 c 0,-0.1759 -0.141603,-0.3175 -0.3174997,-0.3175 H 5.6091667 c -0.093221,-0.14915 -0.1416084,-0.3175 -0.3175001,-0.3175 z"
       style="opacity:1;fill:#bdbdbd;fill-opacity:1;stroke:none;stroke-width:0.15875;stroke-miterlimit:4;stroke-dasharray:none;stroke-opacity:0.19607843;paint-order:markers stroke fill" />
    <path
       style="opacity:0.35;fill:#000000;fill-opacity:1;stroke:none;stroke-width:0.15875;stroke-miterlimit:4;stroke-dasharray:none;stroke-opacity:0.19607843;paint-order:markers stroke fill"
       d="m 3.0691667,287.15746 c -0.1758917,0 -0.2366358,0.1613 -0.3175,0.3175 h -0.47625 c -0.1758963,0 -0.3175,0.1416 -0.3175,0.3175 v 3.175 c 0,0.17589 0.1416037,0.3175 0.3175,0.3175 h 7.6199996 c 0.1758967,0 0.3174997,-0.14161 0.3174997,-0.3175 v -3.175 c 0,-0.1759 -0.141603,-0.3175 -0.3174997,-0.3175 H 5.6091667 c -0.093221,-0.14915 -0.1416084,-0.3175 -0.3175001,-0.3175 z"
       id="path843"
       inkscape:connector-curvature="0" />
    <rect
       style="opacity:1;fill:#f2f2f2;fill-opacity:1;stroke:none;stroke-width:0.15875;stroke-miterlimit:4;stroke-dasharray:none;stroke-opacity:0.19607843;paint-order:markers stroke fill"
       id="rect827"
       width="7.3025002"
       height="3.0162501"
       x="2.4341667"
       y="287.9512"
       ry="0.15875852" />
    <path
       style="opacity:1;fill:#bdbdbd;fill-opacity:1;stroke:none;stroke-width:0.56920981;stroke-miterlimit:4;stroke-dasharray:none;stroke-opacity:0.19607843;paint-order:markers stroke fill"
       d="M 23 31 C 22.335192 31 22.135757 31.624957 21.800781 32.199219 L 21.099609 33.400391 L 6.1992188 33.400391 C 5.5344316 33.400391 5 33.934822 5 34.599609 L 5 53.800781 C 5 54.465568 5.5344316 55 6.1992188 55 L 39.800781 55 C 40.465568 55 41 54.465568 41 53.800781 L 41 41.199219 L 41 34.599609 L 41 32.199219 C 41 31.5344 40.465589 31 39.800781 31 L 23 31 z "
       transform="matrix(0.26458333,0,0,0.26458333,0,280.06663)"
       id="rect822" />
    <rect
       style="opacity:0.25;fill:#000000;fill-opacity:1;stroke:none;stroke-width:0.43139416;stroke-miterlimit:4;stroke-dasharray:none;stroke-opacity:0.03921569;paint-order:stroke markers fill"
       id="rect817"
       width="1.9049999"
       height="0.31749508"
       x="3.2279167"
       y="287.31622"
       ry="0.15874754" />
    <rect
       style="opacity:0.1;fill:url(#linearGradient837);fill-opacity:1;stroke:none;stroke-width:0.52916664;stroke-miterlimit:4;stroke-dasharray:none;stroke-opacity:0.03921569;paint-order:stroke markers fill"
       id="rect819"
       width="5.2916665"
       height="4.7624998"
       x="-199.58691"
       y="217.86841"
       ry="0.13229166"
       transform="matrix(0.42426407,-0.42426407,0.42426407,0.42426407,1.0054167,117.68873)"
       clip-path="url(#clipPath827)" />
    <path
       style="opacity:1;fill:#bdbdbd;fill-opacity:1;stroke:none;stroke-width:0.15875;stroke-miterlimit:4;stroke-dasharray:none;stroke-opacity:0.19607843;paint-order:markers stroke fill"
       d="m 8.0962497,283.18871 c -0.1758917,0 -0.2366358,0.1613 -0.3175,0.3175 h -0.47625 c -0.1758963,0 -0.3175,0.1416 -0.3175,0.3175 v 3.175 c 0,0.17589 0.1416037,0.3175 0.3175,0.3175 h 7.6199993 c 0.175897,0 0.317501,-0.14161 0.317501,-0.3175 v -3.175 c 0,-0.1759 -0.141604,-0.3175 -0.317501,-0.3175 H 10.63625 c -0.09322,-0.14915 -0.141609,-0.3175 -0.3175,-0.3175 z"
       id="path836"
       inkscape:connector-curvature="0" />
    <path
       inkscape:connector-curvature="0"
       id="path868"
       d="m 8.0962497,283.18871 c -0.1758917,0 -0.2366358,0.1613 -0.3175,0.3175 h -0.47625 c -0.1758963,0 -0.3175,0.1416 -0.3175,0.3175 v 3.175 c 0,0.17589 0.1416037,0.3175 0.3175,0.3175 h 7.6199993 c 0.175897,0 0.317501,-0.14161 0.317501,-0.3175 v -3.175 c 0,-0.1759 -0.141604,-0.3175 -0.317501,-0.3175 H 10.63625 c -0.09322,-0.14915 -0.141609,-0.3175 -0.3175,-0.3175 z"
       style="opacity:0.25;fill:#000000;fill-opacity:1;stroke:none;stroke-width:0.15875;stroke-miterlimit:4;stroke-dasharray:none;stroke-opacity:0.19607843;paint-order:markers stroke fill" />
    <rect
       ry="0.15875852"
       y="283.98245"
       x="7.4612498"
       height="3.0162501"
       width="7.3025002"
       id="rect838"
       style="opacity:1;fill:#ffffff;fill-opacity:1;stroke:none;stroke-width:0.15875;stroke-miterlimit:4;stroke-dasharray:none;stroke-opacity:0.19607843;paint-order:markers stroke fill" />
    <path
       style="opacity:1;fill:#bdbdbd;fill-opacity:1;stroke:none;stroke-width:0.56920981;stroke-miterlimit:4;stroke-dasharray:none;stroke-opacity:0.19607843;paint-order:markers stroke fill"
       d="M 42 16 C 41.335192 16 41.135761 16.624957 40.800781 17.199219 L 40.099609 18.400391 L 25.199219 18.400391 C 24.534432 18.400391 24 18.934822 24 19.599609 L 24 38.800781 C 24 39.465568 24.534432 40 25.199219 40 L 58.800781 40 C 59.465568 40 60 39.465568 60 38.800781 L 60 26.199219 L 60 19.599609 L 60 17.199219 C 60 16.5344 59.465589 16 58.800781 16 L 42 16 z "
       transform="matrix(0.26458333,0,0,0.26458333,0,280.06663)"
       id="rect840" />
    <path
       inkscape:connector-curvature="0"
       id="rect837"
       d="m 11.1125,284.29996 c -0.175897,0 -0.228664,0.16536 -0.317293,0.3173 l -0.185519,0.31781 H 6.6672934 c -0.1758916,0 -0.3172934,0.1414 -0.3172934,0.31729 v 5.08031 c 0,0.17589 0.1414018,0.31729 0.3172934,0.31729 h 8.8904136 c 0.175891,0 0.317293,-0.1414 0.317293,-0.31729 v -3.33416 -1.74615 -0.6351 c 0,-0.1759 -0.141397,-0.3173 -0.317293,-0.3173 z"
       style="opacity:0.15;fill:#ffffff;fill-opacity:1;stroke:none;stroke-width:0.15060343;stroke-miterlimit:4;stroke-dasharray:none;stroke-opacity:0.19607843;paint-order:markers stroke fill" />
    <rect
       ry="0.15874754"
       y="283.34747"
       x="8.2550001"
       height="0.31749508"
       width="1.9049999"
       id="rect844"
       style="opacity:0.25;fill:#000000;fill-opacity:1;stroke:none;stroke-width:0.43139416;stroke-miterlimit:4;stroke-dasharray:none;stroke-opacity:0.03921569;paint-order:stroke markers fill" />
    <rect
       clip-path="url(#clipPath827)"
       transform="matrix(0.42426407,-0.42426407,0.42426407,0.42426407,6.0324997,113.71998)"
       ry="0.13229166"
       y="217.86841"
       x="-199.58691"
       height="4.7624998"
       width="5.2916665"
       id="rect846"
       style="opacity:0.1;fill:url(#linearGradient850);fill-opacity:1;stroke:none;stroke-width:0.52916664;stroke-miterlimit:4;stroke-dasharray:none;stroke-opacity:0.03921569;paint-order:stroke markers fill" />
  </g>
</svg>
