<svg width="24" height="24" version="1.1" viewBox="0 0 24 24" xmlns="http://www.w3.org/2000/svg">
 <defs>
  <style id="current-color-scheme" type="text/css">.ColorScheme-Text { color:#727272; } .ColorScheme-Highlight { color:#5294e2; }</style>
 </defs>
 <g class="ColorScheme-Text" transform="translate(4,-2)" color="#727272" fill="currentColor">
  <path d="m8 7a7 7 0 0 0-7 7 7 7 0 0 0 7 7 7 7 0 0 0 7-7 7 7 0 0 0-7-7zm0 2v5h5a5 5 0 0 1-5 5 5 5 0 0 1-5-5 5 5 0 0 1 0.025391-0.5 5 5 0 0 1 4.9746-4.5z"/>
  <g transform="translate(0,6)">
   <path d="m3 8a5 5 0 0 0 5 5v-5z" opacity=".35"/>
   <path d="m13 8a5 5 0 0 1-5 5v-5z" opacity=".75"/>
  </g>
 </g>
</svg>
