<svg xmlns="http://www.w3.org/2000/svg" width="16" height="16" viewBox="0 0 4.233 4.233"><g transform="translate(-.163 -75.565) scale(.26923)" stroke-width="3.714"><rect transform="matrix(0 -1 -1 0 0 0)" ry="6.879" rx="6.879" y="-15.346" x="-295.413" height="13.758" width="13.758" fill="#46d177"/><path d="M9.15 285.358c-1.372 0-2.505 1.123-2.505 2.495 0 .521.176 1 .453 1.403l-1.67 1.672a.455.456 0 0 0 .636.652l1.67-1.673c.403.277.894.44 1.416.44a2.499 2.499 0 0 0 2.492-2.494 2.499 2.499 0 0 0-2.492-2.495zm0 .907c.882 0 1.586.705 1.586 1.588 0 .882-.704 1.587-1.586 1.587a1.579 1.579 0 0 1-1.585-1.587c0-.883.703-1.588 1.585-1.588z" fill="#fff"/></g></svg>