<svg xmlns="http://www.w3.org/2000/svg" xmlns:xlink="http://www.w3.org/1999/xlink" width="16" height="16" viewBox="0 0 4.233 4.233"><defs><linearGradient id="a"><stop offset="0"/><stop offset="1" stop-opacity="0"/></linearGradient><linearGradient xlink:href="#a" id="b" x1="31.672" y1="31" x2="50" y2="31" gradientUnits="userSpaceOnUse" gradientTransform="matrix(.06615 0 0 .06345 0 293.053)"/></defs><g transform="translate(0 -292.767)"><path d="M.595 293.434h3.043c.037 0 .066.028.066.063v3.173c0 .035-.03.063-.066.063H.595a.065.065 0 0 1-.066-.063v-3.173c0-.035.03-.063.066-.063z" fill="#303030" paint-order="fill markers stroke"/><path d="M.785 293.624h2.663c.032 0 .058.025.058.056v2.807a.057.057 0 0 1-.058.056H.785a.057.057 0 0 1-.057-.056v-2.807c0-.03.025-.056.057-.056z" opacity=".15" fill="#fff" paint-order="fill markers stroke"/><ellipse cx="2.117" cy="293.37" rx=".149" ry=".143" fill="none" stroke="#037ad9" stroke-width=".397" stroke-linejoin="bevel"/><path d="M.926 293.688v2.665h1.521l.86-.825v-1.84z" fill="#fff" stroke="#000" stroke-width=".529" stroke-linecap="round" stroke-opacity=".098" paint-order="markers stroke fill"/><path d="M1.654 293.783s.066-.38.198-.38h.53c.132 0 .198.38.198.38z" fill="#46a9ee" fill-rule="evenodd" stroke="#037ad9" stroke-width=".265"/><path d="M3.303 293.688a3.506 3.363 0 0 1 .004.127v-.127zm.004.127a3.506 3.363 0 0 1-1.212 2.538h.352l.86-.825z" opacity=".25" fill="url(#b)" paint-order="markers stroke fill"/><path d="M2.447 295.528h.86l-.86.825z" fill="#b3b3b3" paint-order="markers stroke fill"/></g></svg>