<svg width="16" height="16" version="1.1" viewBox="0 0 4.233 4.233" xmlns="http://www.w3.org/2000/svg" xmlns:xlink="http://www.w3.org/1999/xlink">
 <rect x=".52913" y=".52912" width="3.1748" height="3.4393" rx=".52913" ry=".52913" fill="#303030"/>
 <path transform="scale(.26456)" d="m4 3c-0.554 0-1 0.446-1 1v9c0 0.554 0.446 1 1 1h5l4-4v-6c0-0.554-0.446-1-1-1h-8z" fill="#ffffff"/>
 <ellipse cx="2.117" cy=".603" rx=".149" ry=".143" fill="none" stroke="#037ad9" stroke-linejoin="bevel" stroke-width=".397"/>
 <path transform="scale(.26456)" d="m6.998 1.9043c-0.36503 0-0.6001 0.23665-0.73828 0.43555-0.13818 0.1989-0.22407 0.41711-0.29492 0.62109-0.14171 0.40796-0.20703 0.79688-0.20703 0.79688l-0.10352 0.58398h0.59961 4.0957l-0.10352-0.58398s-0.063365-0.38891-0.20508-0.79688c-0.070859-0.20398-0.15869-0.42219-0.29688-0.62109-0.13818-0.1989-0.37325-0.43555-0.73828-0.43555h-2.0078z" color="#000000" fill="#249bfa" fill-rule="evenodd" stroke-width="1.0016" style="-inkscape-stroke:none"/>
 <path d="m2.3811 3.7039 1.0582-1.0582h-0.79369c-0.14657 0-0.26456 0.11799-0.26456 0.26456z" fill="#c0bfbc"/>
</svg>
