<svg xmlns="http://www.w3.org/2000/svg" width="16" height="16" viewBox="0 0 4.233 4.233"><g transform="matrix(.25 0 0 .25 0 -70.017)" stroke-width="4"><rect transform="matrix(0 -1 -1 0 0 0)" ry="6.879" rx="6.879" y="-15.346" x="-295.413" height="13.758" width="13.758" fill="#fff" stroke="#000" stroke-width="1.058" stroke-opacity=".059" paint-order="markers stroke fill"/><rect width="13.758" height="13.758" x="-295.413" y="-15.346" rx="6.879" ry="6.879" transform="matrix(0 -1 -1 0 0 0)" fill="#fff" paint-order="markers stroke fill"/><rect width="11.642" height="11.642" x="-294.354" y="-14.288" rx="5.821" ry="5.821" transform="matrix(0 -1 -1 0 0 0)" fill="#4d8dd8"/><rect transform="matrix(0 -1 -1 0 0 0)" ry="4.233" rx="4.233" y="-12.7" x="-292.767" height="8.467" width="8.467" opacity=".25" fill="#fff"/><rect width="5.292" height="5.292" x="-291.179" y="-11.113" rx="2.646" ry="2.646" transform="matrix(0 -1 -1 0 0 0)" opacity=".25" fill="#fff"/><rect transform="matrix(0 -1 -1 0 0 0)" ry=".794" rx=".794" y="-9.26" x="-289.327" height="1.587" width="1.587" fill="#fff"/><path d="M8.467 288.346l4.49-4.49.187.187-4.49 4.49z" fill="#fff" paint-order="markers stroke fill"/></g></svg>