<svg version="1.1" viewBox="0 0 32 32" xmlns="http://www.w3.org/2000/svg">
 <defs>
  <style id="current-color-scheme" type="text/css">.ColorScheme-Text { color:#363636; }</style>
 </defs>
 <path class="ColorScheme-Text" d="m8 5c-1.662 0-3 1.338-3 3v4c0 1.662 1.338 3 3 3h4c1.662 0 3-1.338 3-3v-4c0-1.662-1.338-3-3-3zm0 2h4c0.554 0 1 0.446 1 1v4c0 0.554-0.446 1-1 1h-4c-0.554 0-1-0.446-1-1v-4c0-0.554 0.446-1 1-1z" fill="currentColor"/>
 <path class="ColorScheme-Text" d="m20 5c-1.662 0-3 1.338-3 3v4c0 1.662 1.338 3 3 3h4c1.662 0 3-1.338 3-3v-4c0-1.662-1.338-3-3-3zm0 2h4c0.554 0 1 0.446 1 1v4c0 0.554-0.446 1-1 1h-4c-0.554 0-1-0.446-1-1v-4c0-0.554 0.446-1 1-1z" fill="currentColor" opacity=".45"/>
 <path class="ColorScheme-Text" d="m8 17c-1.662 0-3 1.338-3 3v4c0 1.662 1.338 3 3 3h4c1.662 0 3-1.338 3-3v-4c0-1.662-1.338-3-3-3zm0 2h4c0.554 0 1 0.446 1 1v4c0 0.554-0.446 1-1 1h-4c-0.554 0-1-0.446-1-1v-4c0-0.554 0.446-1 1-1z" fill="currentColor"/>
 <path class="ColorScheme-Text" d="m20 17c-1.662 0-3 1.338-3 3v4c0 1.662 1.338 3 3 3h4c1.662 0 3-1.338 3-3v-4c0-1.662-1.338-3-3-3zm0 2h4c0.554 0 1 0.446 1 1v4c0 0.554-0.446 1-1 1h-4c-0.554 0-1-0.446-1-1v-4c0-0.554 0.446-1 1-1z" fill="currentColor"/>
</svg>
