<svg width="32" height="32" version="1.1" xmlns="http://www.w3.org/2000/svg">
 <defs>
  <style id="current-color-scheme" type="text/css">.ColorScheme-Text { color:#565656; } .ColorScheme-Highlight { color:#4285f4; }</style>
 </defs>
 <g class="ColorScheme-Text" transform="translate(-80,40)" fill="currentColor">
  <path d="m94.021-29.331c-1.2654 0.02647-2.5987 0.19487-3.9557 0.6276-0.48043 0.10813-0.82709 0.80849-0.70833 1.4115 0.11879 0.60296 0.70313 0.97768 1.1667 0.78385 5.5048-1.7553 10.911 1.099 10.911 1.099 0.43182 0.22939 0.98664-0.07732 1.1667-0.6276s-0.0265-1.2368-0.45833-1.4661c0 0-3.3181-1.7697-7.5807-1.8281-0.17761-0.0017-0.36089-0.0033-0.54167 0zm0.58073 4c-1.0522 0.0095-2.1733 0.21219-3.3697 0.65104-0.36105 0.09453-0.63463 0.69435-0.54948 1.2396 0.08511 0.54519 0.47292 0.87373 0.82292 0.70833 4.9796-1.8265 8.8568 1.2995 8.8568 1.2995 0.31204 0.2472 0.73952 0.0061 0.90104-0.47136 0.16152-0.47755 0.036-1.1122-0.27604-1.3593 0 0-2.4377-1.9452-5.9557-2.0677-0.14659-0.0056-0.27939-0.0013-0.42969 0zm0.41927 3.9973c-0.80649-0.0053-1.6884 0.12952-2.6355 0.41927-0.23979 0.04732-0.43104 0.42065-0.3776 0.7474 0.05345 0.32667 0.31831 0.51924 0.54948 0.41927 4.0275-1.2322 6.7421 0.97917 6.7421 0.97917 0.19873 0.19215 0.52676 0.10256 0.64844-0.18749 0.12168-0.29008 0.0161-0.69531-0.20312-0.83855-1.4677-0.86705-3.0019-1.5057-4.724-1.5391z" opacity=".45"/>
  <path d="m96-36a12 12 0 0 0-12 12 12 12 0 0 0 12 12 12 12 0 0 0 12-12 12 12 0 0 0-12-12zm0 2a10 10 0 0 1 10 10 10 10 0 0 1-10 10 10 10 0 0 1-10-10 10 10 0 0 1 10-10z"/>
 </g>
</svg>
