<svg width="32" height="32" version="1.1" xmlns="http://www.w3.org/2000/svg">
 <defs>
  <style id="current-color-scheme" type="text/css">.ColorScheme-Text { color:#565656; } .ColorScheme-Highlight { color:#4285f4; }</style>
 </defs>
 <path class="ColorScheme-Text" d="m15.195 8.3751c-1.1718 0.038937-2.4941 0.40303-3.7785 1.3335-1.3335 0.96623-1.918 1.2308-2.565 1.5519 0.57644 0.04415 4.0247-0.44759 4.6344 1.5783-2.4466 0.69848-3.6689 2.2399-2.6278 4.4284 1.0525 2.2127 2.8714 2.264 5.1165 3.7662 1.753 1.1721 2.1822 1.7695 3.3129 3.3945-0.23483-2.2456-1.3215-5.1398-1.8293-6.4147 1.9609 1.173 2.9569 1.436 5.6914 1.7221-3.5486-2.5258-4.2221-3.019-6.253-4.7501-1.3628 0.06824-1.2131 0.0566-2.0168 0.10276 1.0582 1.4929 1.4756 3.6851-0.45842 4.0873-1.8104 0.37654-3.5562-1.1858-3.0597-2.8597 0.53912-1.8172 2.8654-1.4685 5.3055-1.7839 2.4407-0.31511 4.6705-2.7084 6.0117-4.4799h-4.01e-4c-2.2889 0.78116-3.6842 1.2352-7.0759 2.1801-0.54875-1.069-1.2585-3.0982 2.4656-3.2399-0.68122-0.36931-1.7016-0.65552-2.873-0.61699z" fill="currentColor" opacity=".45" stroke-width="1.3548"/>
 <path class="ColorScheme-Text" d="m16 4a12 12 0 0 0-12 12 12 12 0 0 0 12 12 12 12 0 0 0 12-12 12 12 0 0 0-12-12zm0 2a10 10 0 0 1 10 10 10 10 0 0 1-10 10 10 10 0 0 1-10-10 10 10 0 0 1 10-10z" fill="currentColor"/>
</svg>
