<svg version="1.1" viewBox="0 0 32 32" xmlns="http://www.w3.org/2000/svg">
 <defs>
  <style id="current-color-scheme" type="text/css">.ColorScheme-Text { color:#565656; }</style>
 </defs>
 <path class="ColorScheme-Text" d="m15.562 12-0.24267 0.96897c-0.22061 0.0588-0.43261 0.14612-0.63062 0.25977l-0.85449-0.5127-0.61865 0.61865 0.5127 0.85449c-0.11497 0.19838-0.20345 0.41096-0.26318 0.63233l-0.96556 0.24097v0.875l0.96897 0.24267c0.0588 0.22061 0.14612 0.43261 0.25977 0.63062l-0.5127 0.85449 0.61865 0.61865 0.85449-0.5127c0.19838 0.11497 0.41096 0.20345 0.63233 0.26318l0.24097 0.96556h0.875l0.24267-0.96897c0.22061-0.0588 0.43261-0.14612 0.63062-0.25977l0.85449 0.5127 0.61865-0.61865-0.5127-0.85449c0.11497-0.19838 0.20345-0.41096 0.26318-0.63233l0.96556-0.24097v-0.875l-0.96897-0.24267c-0.0588-0.22061-0.14612-0.43261-0.25977-0.63062l0.5127-0.85449-0.61865-0.61865-0.85449 0.5127c-0.19838-0.11497-0.41096-0.20345-0.63233-0.26318l-0.24097-0.96556zm0.4375 1.75c0.05819 1.7e-5 0.11639 0.0026 0.17432 0.0087 0.05793 0.0053 0.11553 0.01426 0.1726 0.02564 0.05766 0.0119 0.11472 0.02678 0.1709 0.04445 0.05565 0.01724 0.11041 0.03719 0.16406 0.05985 0.05364 0.0224 0.10609 0.04751 0.15722 0.07516 0.0511 0.02826 0.1007 0.05906 0.14869 0.09229 0.04847 0.03299 0.09523 0.06834 0.14013 0.10595 0.04471 0.03771 0.0875 0.07761 0.12818 0.11963 0.04025 0.04139 0.07849 0.0847 0.1145 0.12988 0.03657 0.04611 0.07079 0.09401 0.10253 0.14355 0.03159 0.04917 0.06064 0.09998 0.08715 0.1521 0.02599 0.0518 0.04935 0.10482 0.07009 0.15894 0.02161 0.05425 0.04042 0.1096 0.05644 0.16577 0.0154 0.05626 0.02791 0.11335 0.03763 0.1709 0.0097 0.05775 0.01654 0.1159 0.02047 0.17431 0.0035 0.04095 0.0053 0.08199 0.0053 0.12302-1.8e-5 0.05819-0.0026 0.11639-0.0087 0.17432-0.0053 0.05793-0.01426 0.11553-0.02564 0.1726-0.0119 0.05766-0.02678 0.11472-0.04445 0.1709-0.01724 0.05565-0.03719 0.11041-0.05985 0.16406-0.0224 0.05364-0.04751 0.10609-0.07516 0.15722-0.02826 0.0511-0.05906 0.1007-0.09229 0.14869-0.03299 0.04847-0.06834 0.09523-0.10596 0.14013-0.03771 0.04471-0.07761 0.0875-0.11963 0.12818-0.04139 0.04025-0.0847 0.07849-0.12988 0.1145-0.04611 0.03657-0.09401 0.07079-0.14356 0.10253-0.04917 0.03159-0.09997 0.06064-0.15209 0.08715-0.0518 0.02599-0.10482 0.04935-0.15894 0.07009-0.05425 0.02153-0.10961 0.04034-0.16578 0.05635-0.05626 0.0154-0.11334 0.02791-0.1709 0.03763-0.05775 0.0097-0.1159 0.01654-0.17432 0.02048-0.02441 0.0035-0.04891 0.0061-0.0735 0.0087h-0.11963c-0.03482-0.0018-0.06956-0.0044-0.10425-0.0087-0.05793-0.0053-0.11554-0.01426-0.17261-0.02564-0.05766-0.0119-0.11471-0.02678-0.1709-0.04445-0.05565-0.01724-0.11041-0.03719-0.16406-0.05985-0.05364-0.0224-0.1061-0.04751-0.15723-0.07516-0.0511-0.02826-0.10069-0.05906-0.14868-0.09228-0.04847-0.03299-0.09523-0.06834-0.14014-0.10596-0.02634-0.02319-0.05198-0.04708-0.07691-0.07175l-0.07691-0.07691c-0.03089-0.03246-0.06055-0.06606-0.08887-0.10083-0.03658-0.04611-0.07079-0.09401-0.10254-0.14356-0.03159-0.04917-0.06064-0.09997-0.08715-0.15209-0.02599-0.0518-0.04935-0.10482-0.07009-0.15894-0.02161-0.05425-0.04043-0.10961-0.05644-0.16578-0.0154-0.05626-0.02791-0.11334-0.03763-0.1709-0.0097-0.05775-0.01654-0.1159-0.02047-0.17432-0.0035-0.04095-0.0053-0.08199-0.0053-0.12304 1.8e-5 -0.05819 0.0026-0.11639 0.0088-0.17432 0.0053-0.05793 0.01426-0.11554 0.02564-0.17261 0.0119-0.05766 0.02678-0.11471 0.04445-0.1709 0.01724-0.05565 0.03719-0.11041 0.05985-0.16406 0.0224-0.05364 0.04751-0.1061 0.07516-0.15723 0.02826-0.0511 0.05906-0.10069 0.09229-0.14868 0.03299-0.04847 0.06834-0.09523 0.10596-0.14014 0.03771-0.04471 0.07761-0.0875 0.11963-0.12817 0.04139-0.04025 0.0847-0.07849 0.12988-0.1145 0.04611-0.03658 0.09401-0.07079 0.14356-0.10254 0.04917-0.03159 0.09997-0.06064 0.15209-0.08715 0.0518-0.02599 0.10482-0.04935 0.15894-0.07009 0.05425-0.02153 0.10961-0.04043 0.16578-0.05644 0.05626-0.0154 0.11334-0.02791 0.1709-0.03763 0.05775-0.0097 0.1159-0.01654 0.17432-0.02047 0.04086-0.0044 0.0819-7e-3 0.12304-0.0088z" fill="currentColor"/>
 <g class="ColorScheme-Text" transform="translate(-40)" fill="currentColor">
  <path d="m51 3c-1.662 0-3 1.338-3 3v20c0 1.662 1.338 3 3 3h10c1.662 0 3-1.338 3-3v-20c0-1.662-1.338-3-3-3zm0 2h10c0.554 0 1 0.446 1 1v20c0 0.554-0.446 1-1 1h-10c-0.554 0-1-0.446-1-1v-20c0-0.554 0.446-1 1-1z"/>
  <rect x="53" y="24" width="6" height="2" rx="1" ry="1" opacity=".45"/>
 </g>
</svg>
