<svg width="32" height="32" version="1.1" viewBox="0 0 32 32" xmlns="http://www.w3.org/2000/svg">
 <defs>
  <style id="current-color-scheme" type="text/css">.ColorScheme-Text {
        color:#565656;
      }</style>
 </defs>
 <g id="kget" transform="translate(-27 -2.8096e-5)">
  <rect x="27" y="2.8096e-5" width="32" height="32" fill="none"/>
  <rect class="ColorScheme-Text" x="33" y="26" width="20" height="2" rx="1" ry="1" fill="currentColor" opacity=".45"/>
  <path class="ColorScheme-Text" d="m41 3.9993c-1.662 0-3 1.338-3 3v9.5859l-2.0723-2.0723c-0.39174-0.39174-1.0223-0.39174-1.4141 0s-0.39174 1.0223 0 1.4141l7.7773 7.7793h2e-3c0.02416 0.02409 0.04836 0.04724 0.07422 0.06836h2e-3c0.02585 0.02104 0.05276 0.04052 0.08008 0.05859h2e-3c0.02731 0.018 0.05544 0.03574 0.08398 0.05078h2e-3c0.02853 0.01497 0.0564 0.029 0.08594 0.04102h2e-3c0.02954 0.01195 0.05952 0.02419 0.08984 0.0332h2e-3c0.03031 0.0089 0.06093 0.01744 0.0918 0.02344h2e-3c0.09446 0.01836 0.18965 0.02285 0.28516 0.01367 0.03184-0.0031 0.06422-0.0076 0.0957-0.01367 0.03086-0.0061 0.06345-0.01444 0.09375-0.02344 0.03031-0.0091 0.06228-0.02119 0.0918-0.0332 0.02952-0.01207 0.05939-0.02599 0.08789-0.04102 0.02853-0.0151 0.05865-0.03273 0.08594-0.05078 0.02729-0.01812 0.05621-0.03751 0.08203-0.05859 0.02584-0.02116 0.05008-0.04422 0.07422-0.06836h2e-3l7.7773-7.7793c0.39174-0.39174 0.39174-1.0223 0-1.4141s-1.0223-0.39174-1.4141 0l-2.0726 2.0723v-9.5859c0-1.662-1.338-3-3-3zm0 2h4c0.554 0 1 0.446 1 1v11.584l-3 3-3-3v-11.584c0-0.554 0.446-1 1-1z" fill="currentColor"/>
 </g>
</svg>
