<svg width="32" height="32" version="1.1" viewBox="0 0 32 32" xmlns="http://www.w3.org/2000/svg">
 <defs>
  <style id="current-color-scheme" type="text/css">.ColorScheme-Text { color:#565656; } .ColorScheme-Highlight { color:#5294e2; }</style>
 </defs>
 <path d="m16 3a3 3 0 0 0-3 3h-2c-2.77 0-5 2.23-5 5v12c0 2.77 2.23 5 5 5h10c2.77 0 5-2.23 5-5v-12c0-2.77-2.23-5-5-5h-2a3 3 0 0 0-3-3zm0 2a1 1 0 0 1 1 1 1 1 0 0 1-0.06836 0.3457 1 1 0 0 1-0.01953 0.054687 1 1 0 0 1-0.18555 0.27734 1 1 0 0 1-0.04883 0.048828 1 1 0 0 1-0.27734 0.18555 1 1 0 0 1-0.05469 0.019531 1 1 0 0 1-0.3457 0.06836 1 1 0 0 1-0.3457-0.068359 1 1 0 0 1-0.054688-0.019531 1 1 0 0 1-0.27734-0.18555 1 1 0 0 1-0.048828-0.048828 1 1 0 0 1-0.18555-0.27734 1 1 0 0 1-0.019532-0.054688 1 1 0 0 1-0.068359-0.3457 1 1 0 0 1 1-1zm-5 3h10c1.662 0 3 1.338 3 3v12c0 1.662-1.338 3-3 3h-10c-1.662 0-3-1.338-3-3v-12c0-1.662 1.338-3 3-3z" class="ColorScheme-Text" style="fill:currentColor"/>
 <path d="m13 12c-0.554 0-1 0.446-1 1s0.446 1 1 1h3c0.554 0 1-0.446 1-1s-0.446-1-1-1h-3zm0 4c-0.554 0-1 0.446-1 1s0.446 1 1 1h6c0.554 0 1-0.446 1-1s-0.446-1-1-1h-6zm0 4c-0.554 0-1 0.446-1 1s0.446 1 1 1h6c0.554 0 1-0.446 1-1s-0.446-1-1-1h-6z" opacity=".45" class="ColorScheme-Text" style="fill:currentColor"/>
</svg>
