<svg width="32" height="32" version="1.1" xmlns="http://www.w3.org/2000/svg">
 <defs>
  <style id="current-color-scheme" type="text/css">.ColorScheme-Text { color:#565656; } .ColorScheme-Highlight { color:#4285f4; }</style>
 </defs>
 <g class="ColorScheme-Text" transform="translate(-80,40)" fill="currentColor" opacity=".35">
  <path d="m96-36a12 12 0 0 0-12 12 12 12 0 0 0 12 12 12 12 0 0 0 12-12 12 12 0 0 0-12-12zm0 2a10 10 0 0 1 10 10 10 10 0 0 1-10 10 10 10 0 0 1-10-10 10 10 0 0 1 10-10z"/>
  <path d="m96-30c-0.554 0-1 0.446-1 1v6c0 0.554 0.446 1 1 1s1-0.446 1-1v-6c0-0.554-0.446-1-1-1zm0 10a1 1 0 0 0-1 1 1 1 0 0 0 1 1 1 1 0 0 0 1-1 1 1 0 0 0-1-1z" opacity=".45"/>
 </g>
</svg>
