<svg width="32" height="32" version="1.1" xmlns="http://www.w3.org/2000/svg">
 <style id="current-color-scheme" type="text/css">.ColorScheme-Text {
        color:#565656;
      }
      .ColorScheme-Background{
        color:#EFF0F1;
      }
      .ColorScheme-Highlight{
        color:#3DAEE6;
      }
      .ColorScheme-ButtonText {
        color:#565656;
      }</style>
 <path class="ColorScheme-Text" d="m5 4c-1.662 0-3 1.338-3 3v12c0 1.662 1.338 3 3 3h8v5h-3c-0.554 0-1 0.446-1 1h4 1 9c0-0.554-0.446-1-1-1h-3v-5h8c1.662 0 3-1.338 3-3v-12c0-1.662-1.338-3-3-3h-22zm0 1h22c1.108 0 2 0.892 2 2v12c0 1.108-0.892 2-2 2h-22c-1.108 0-2-0.892-2-2v-12c0-1.108 0.892-2 2-2zm9 17h4v5h-4v-5z" fill="currentColor"/>
 <path class="ColorScheme-Highlight" d="m16 7a6 6 0 0 0-6 6h1 4v-1h-3.8848a5 5 0 0 1 4.8848-4 5 5 0 0 1 5 5 5 5 0 0 1-5 5v1a6 6 0 0 0 6-6 6 6 0 0 0-6-6z" fill="currentColor"/>
</svg>
