<svg width="32" height="32" version="1.1" xmlns="http://www.w3.org/2000/svg">
 <style id="current-color-scheme" type="text/css">.ColorScheme-Text {
        color:#565656;
      }
      .ColorScheme-Background{
        color:#EFF0F1;
      }
      .ColorScheme-Highlight{
        color:#3DAEE6;
      }
      .ColorScheme-ButtonText {
        color:#565656;
      }</style>
 <path class="ColorScheme-Text" d="m16 4c-1.662 0-3 1.338-3 3v6h1v-6c0-1.108 0.892-2 2-2h11c1.108 0 2 0.892 2 2v8c0 1.108-0.892 2-2 2h-7v1h7c1.662 0 3-1.338 3-3v-8c0-1.662-1.338-3-3-3h-11zm-11 10c-1.662 0-3 1.338-3 3v8c0 1.662 1.338 3 3 3h11c1.662 0 3-1.338 3-3v-8c0-1.662-1.338-3-3-3h-11zm0 1h11c1.108 0 2 0.892 2 2v8c0 1.108-0.892 2-2 2h-11c-1.108 0-2-0.892-2-2v-8c0-1.108 0.892-2 2-2z" fill="currentColor"/>
 <path class="ColorScheme-Highlight" d="m17 7c-0.554 0-1 0.446-1 1v5c0.34616 0 0.68007 0.046994 1 0.12891v-3.1289h9v4h-7.3574c0.32514 0.28638 0.60436 0.62206 0.82227 1h6.5352c0.554 0 1-0.446 1-1v-6c0-0.554-0.446-1-1-1h-9zm6.5 1a0.5 0.5 0 0 1 0.5 0.5 0.5 0.5 0 0 1-0.5 0.5 0.5 0.5 0 0 1-0.5-0.5 0.5 0.5 0 0 1 0.5-0.5zm2 0a0.5 0.5 0 0 1 0.5 0.5 0.5 0.5 0 0 1-0.5 0.5 0.5 0.5 0 0 1-0.5-0.5 0.5 0.5 0 0 1 0.5-0.5zm-19.5 9c-0.554 0-1 0.446-1 1v6c0 0.554 0.446 1 1 1h9c0.554 0 1-0.446 1-1v-6c0-0.554-0.446-1-1-1h-9zm6.5 1a0.5 0.5 0 0 1 0.5 0.5 0.5 0.5 0 0 1-0.5 0.5 0.5 0.5 0 0 1-0.5-0.5 0.5 0.5 0 0 1 0.5-0.5zm2 0a0.5 0.5 0 0 1 0.5 0.5 0.5 0.5 0 0 1-0.5 0.5 0.5 0.5 0 0 1-0.5-0.5 0.5 0.5 0 0 1 0.5-0.5zm-8.5 2h9v4h-9v-4z" fill="currentColor"/>
</svg>
