<svg width="32" height="32" version="1.1" xmlns="http://www.w3.org/2000/svg">
 <style id="current-color-scheme" type="text/css">.ColorScheme-Text {
        color:#565656;
      }
      .ColorScheme-Background{
        color:#EFF0F1;
      }
      .ColorScheme-Highlight{
        color:#3DAEE6;
      }
      .ColorScheme-ButtonText {
        color:#565656;
      }</style>
 <path class="ColorScheme-Text" d="m5 9c-1.662 0-3 1.338-3 3v8c0 1.662 1.338 3 3 3h8.3574c-0.32514-0.28638-0.60436-0.62206-0.82227-1h-7.5352c-1.108 0-2-0.892-2-2v-8c0-1.108 0.892-2 2-2h7.5352c0.21791-0.37794 0.49713-0.71362 0.82227-1h-8.3574zm11 0c-1.662 0-3 1.338-3 3v8c0 1.662 1.338 3 3 3h11c1.662 0 3-1.338 3-3v-8c0-1.662-1.338-3-3-3h-11zm0 1h11c1.108 0 2 0.892 2 2v8c0 1.108-0.892 2-2 2h-11c-1.108 0-2-0.892-2-2v-8c0-1.108 0.892-2 2-2z" fill="currentColor"/>
 <path class="ColorScheme-Highlight" d="m8 12c-0.554 0-1 0.446-1 1v6c0 0.554 0.446 1 1 1h4v-1h-4v-4h4v-3h-4zm7 0v3h4v4h-4v1h4c0.554 0 1-0.446 1-1v-6c0-0.554-0.446-1-1-1h-4zm1.5 1a0.5 0.49998 0 0 1 0.5 0.5 0.5 0.49998 0 0 1-0.5 0.5 0.5 0.49998 0 0 1-0.5-0.5 0.5 0.49998 0 0 1 0.5-0.5zm2 0a0.49998 0.49998 0 0 1 0.5 0.5 0.49998 0.49998 0 0 1-0.5 0.5 0.49998 0.49998 0 0 1-0.5-0.5 0.49998 0.49998 0 0 1 0.5-0.5z" fill="currentColor"/>
</svg>
