<svg width="32" height="32" version="1.1" xmlns="http://www.w3.org/2000/svg">
 <style id="current-color-scheme" type="text/css">.ColorScheme-Text {
        color:#565656;
      }
      .ColorScheme-Background{
        color:#EFF0F1;
      }
      .ColorScheme-Highlight{
        color:#3DAEE6;
      }
      .ColorScheme-ButtonText {
        color:#565656;
      }</style>
 <path class="ColorScheme-Text" d="m16 4c-1.662 0-3 1.338-3 3v6h1v-6c0-1.108 0.892-2 2-2h11c1.108 0 2 0.892 2 2v8c0 1.108-0.892 2-2 2h-7v1h7c1.662 0 3-1.338 3-3v-8c0-1.662-1.338-3-3-3zm-11 10c-1.662 0-3 1.338-3 3v8c0 1.662 1.338 3 3 3h11c1.662 0 3-1.338 3-3v-8c0-1.662-1.338-3-3-3zm0 1h11c1.108 0 2 0.892 2 2v8c0 1.108-0.892 2-2 2h-11c-1.108 0-2-0.892-2-2v-8c0-1.108 0.892-2 2-2z" fill="currentColor"/>
 <path class="ColorScheme-Highlight" d="m6 17c-0.554 0-1 0.446-1 1v6c0 0.554 0.446 1 1 1h9c0.554 0 1-0.446 1-1v-6c0-0.554-0.446-1-1-1zm6.5 1c0.27614 0 0.5 0.22386 0.5 0.5s-0.22386 0.5-0.5 0.5-0.5-0.22386-0.5-0.5 0.22386-0.5 0.5-0.5zm2 0c0.27614 0 0.5 0.22386 0.5 0.5s-0.22386 0.5-0.5 0.5-0.5-0.22386-0.5-0.5 0.22386-0.5 0.5-0.5zm-8.5 2h9v4h-9z" fill="currentColor"/>
 <path d="m18.227 7.1113-0.70508 0.70703 3.1797 3.1816-2.5977 2.5977c0.2874 0.17751 0.54862 0.39049 0.78125 0.63281l2.5234-2.5234 3.1816 3.1816 0.70703-0.70703-3.1816-3.1816 3.1816-3.1816-0.70703-0.70703-3.1816 3.1816-3.1816-3.1816z" fill="#da4453"/>
</svg>
