<svg version="1.1" viewBox="0 0 32 32" xmlns="http://www.w3.org/2000/svg">
 <defs>
  <style id="current-color-scheme" type="text/css">.ColorScheme-Text { color:#565656; }</style>
 </defs>
 <path class="ColorScheme-Text" d="m16 4c-3.8958 0-7 3.3843-7 7.4492 0 2.3928 1.0557 4.5368 2.7539 5.9043 0.33769 0.2728 0.67659 0.55117 0.89453 0.80859 0.2182 0.25773 0.29297 0.44197 0.29297 0.61328v0.02344l0.10547 2.2012h5.8984l0.12305-2.1719v-0.0039c0.01982-0.40853 0.52573-0.94242 1.1797-1.4707h-2e-3c1.6982-1.3675 2.754-3.5116 2.754-5.9043 0-4.0649-3.1042-7.4492-7-7.4492zm0 2c2.7345 0 5 2.3891 5 5.4492 0 1.8072-0.78773 3.3652-2.0078 4.3477h-2e-3c-0.67541 0.54561-1.8401 1.4111-1.918 2.9219v0.0039l-0.017532 0.27735h-2.1016l-0.01172-0.27344v0.04883c0-0.79119-0.37197-1.439-0.76758-1.9062-0.39561-0.46727-0.83679-0.80789-1.1641-1.0723h-2e-3c-1.22-0.9825-2.0078-2.5404-2.0078-4.3477 0-3.0601 2.2655-5.4492 5-5.4492z" fill="currentColor" opacity=".35"/>
 <path class="ColorScheme-Text" d="m13 23v1c0 0.554 0.446 1 1 1h4c0.554 0 1-0.446 1-1v-1h-5zm1 4v1.0098c0 0.54804 0.446 0.9902 1 0.9902h2c0.554 0 1-0.44216 1-0.99023v-1.0098h-3z" fill="currentColor" opacity=".35"/>
</svg>
