<svg width="32" height="32" version="1.1" xmlns="http://www.w3.org/2000/svg">
 <style id="current-color-scheme" type="text/css">.ColorScheme-Text {
        color:#565656;
      }
      .ColorScheme-Background{
        color:#EFF0F1;
      }
      .ColorScheme-Highlight{
        color:#3DAEE6;
      }
      .ColorScheme-ViewText {
        color:#7B7C7E;
      }
      .ColorScheme-ViewBackground{
        color:#FCFCFC;
      }
      .ColorScheme-ViewHover {
        color:#3DAEE6;
      }
      .ColorScheme-ViewFocus{
        color:#1E92FF;
      }
      .ColorScheme-ButtonText {
        color:#7B7C7E;
      }
      .ColorScheme-ButtonBackground{
        color:#EFF0F1;
      }
      .ColorScheme-ButtonHover {
        color:#3DAEE6;
      }
      .ColorScheme-ButtonFocus{
        color:#1E92FF;
      }</style>
 <path class="ColorScheme-Text" d="m15.975 8.5c-0.26491 0.013342-0.47461 0.23166-0.47461 0.5v1c0 0.277 0.223 0.5 0.5 0.5s0.5-0.223 0.5-0.5v-1c0-0.277-0.223-0.5-0.5-0.5-0.0087 0-0.01685-4.3e-4 -0.02539 0zm-2.7383 0.73633c-0.080564 0.0022-0.16136 0.02508-0.23633 0.06836-0.23989 0.1385-0.32209 0.44175-0.18359 0.68164l0.5 0.86719c0.1385 0.23989 0.4437 0.32014 0.68359 0.18164s0.32209-0.44175 0.18359-0.68164l-0.5-0.86719c-0.09522-0.16492-0.27003-0.25479-0.44727-0.25zm5.502 0c-0.16873 0.0036-0.33098 0.09257-0.42188 0.25l-0.5 0.86719c-0.1385 0.23989-0.0563 0.54314 0.18359 0.68164s0.54509 0.05825 0.68359-0.18164l0.5-0.86719c0.1385-0.23989 0.0563-0.54314-0.18359-0.68164-0.08246-0.04761-0.17334-0.07026-0.26172-0.06836zm-2.7383 1.7637a3.5 3.5 0 0 0-3.5 3.5 3.5 3.5 0 0 0 3.5 3.5 3.5 3.5 0 0 0 0.48047-0.0332 3.5 3.5 0 0 0 0.13476-0.02734 3.5 3.5 0 0 0 0.33984-0.07617 3.5 3.5 0 0 0 0.13672-0.04492 3.5 3.5 0 0 0 0.31836-0.11914 3.5 3.5 0 0 0 0.15625-0.07617 3.5 3.5 0 0 0 0.25391-0.13867 3.5 3.5 0 0 0 0.17969-0.11915 3.5 3.5 0 0 0 0.2168-0.16211 3.5 3.5 0 0 0 0.16016-0.14258 3.5 3.5 0 0 0 0.18359-0.18359 3.5 3.5 0 0 0 0.14258-0.16016 3.5 3.5 0 0 0 0.16211-0.2168 3.5 3.5 0 0 0 0.11914-0.17969 3.5 3.5 0 0 0 0.13867-0.25391 3.5 3.5 0 0 0 0.07617-0.15625 3.5 3.5 0 0 0 0.11914-0.31836 3.5 3.5 0 0 0 0.04492-0.13672 3.5 3.5 0 0 0 0.07617-0.33984 3.5 3.5 0 0 0 0.02734-0.13476 3.5 3.5 0 0 0 0.033213-0.48047 3.5 3.5 0 0 0-0.0039-0.15234 3.5 3.5 0 0 0-0.0059-0.10156 3.5 3.5 0 0 0-0.0039-0.05078 3.5 3.5 0 0 0-0.0039-0.03906 3.5 3.5 0 0 0 0-2e-3 3.5 3.5 0 0 0 0-2e-3 3.5 3.5 0 0 0 0-2e-3 3.5 3.5 0 0 0 0-2e-3 3.5 3.5 0 0 0-0.01758-0.13672 3.5 3.5 0 0 0-2e-3 -0.02539 3.5 3.5 0 0 0-0.01563-0.09375 3.5 3.5 0 0 0-0.01367-0.07617 3.5 3.5 0 0 0-0.0059-0.0293 3.5 3.5 0 0 0-0.0332-0.13672 3.5 3.5 0 0 0-0.03516-0.12891 3.5 3.5 0 0 0-0.0098-0.03711 3.5 3.5 0 0 0-0.01172-0.03711 3.5 3.5 0 0 0-0.04297-0.12695 3.5 3.5 0 0 0-0.0059-0.01758 3.5 3.5 0 0 0-0.125-0.29883 3.5 3.5 0 0 0-0.01758-0.03516 3.5 3.5 0 0 0-0.06055-0.11914 3.5 3.5 0 0 0-0.07617-0.13672 3.5 3.5 0 0 0-0.0078-0.01172 3.5 3.5 0 0 0-0.05078-0.08203 3.5 3.5 0 0 0-0.04102-0.06445 3.5 3.5 0 0 0-0.02148-0.0293 3.5 3.5 0 0 0-0.07813-0.10938 3.5 3.5 0 0 0-0.10547-0.13672 3.5 3.5 0 0 0-0.11133-0.12891 3.5 3.5 0 0 0-0.01367-0.01563 3.5 3.5 0 0 0-0.23047-0.22852 3.5 3.5 0 0 0-0.12891-0.11133 3.5 3.5 0 0 0-0.13672-0.10547 3.5 3.5 0 0 0-0.10938-0.07813 3.5 3.5 0 0 0-0.0293-0.02148 3.5 3.5 0 0 0-0.06445-0.04102 3.5 3.5 0 0 0-0.08203-0.05078 3.5 3.5 0 0 0-0.01172-0.0078 3.5 3.5 0 0 0-0.13672-0.07617 3.5 3.5 0 0 0-0.11914-0.06055 3.5 3.5 0 0 0-0.03516-0.01758 3.5 3.5 0 0 0-0.01758-0.0078 3.5 3.5 0 0 0-0.29883-0.12305 3.5 3.5 0 0 0-0.12695-0.04297 3.5 3.5 0 0 0-0.03711-0.01172 3.5 3.5 0 0 0-0.03711-0.0098 3.5 3.5 0 0 0-0.12891-0.03516 3.5 3.5 0 0 0-0.13672-0.0332 3.5 3.5 0 0 0-0.0293-0.0059 3.5 3.5 0 0 0-0.07617-0.01367 3.5 3.5 0 0 0-0.09375-0.01563 3.5 3.5 0 0 0-0.02539-2e-3 3.5 3.5 0 0 0-0.13672-0.01758 3.5 3.5 0 0 0-0.0078 0 3.5 3.5 0 0 0-0.03906-0.0039 3.5 3.5 0 0 0-0.05078-0.0039 3.5 3.5 0 0 0-0.10156-0.0059 3.5 3.5 0 0 0-0.15217-0.003569zm-4.7988 0.25c-0.15998 0.01118-0.30992 0.10007-0.39648 0.25-0.1385 0.23989-0.05825 0.54509 0.18164 0.68359l0.86719 0.5c0.23989 0.1385 0.54314 0.0563 0.68164-0.18359s0.05825-0.54509-0.18164-0.68359l-0.86719-0.5c-0.089958-0.051937-0.18916-0.073116-0.28516-0.066406zm9.5488 0c-0.08056 0.0022-0.16136 0.02313-0.23633 0.06641l-0.86719 0.5c-0.23989 0.1385-0.32014 0.4437-0.18164 0.68359s0.44175 0.32209 0.68164 0.18359l0.86719-0.5c0.23989-0.1385 0.32014-0.4437 0.18164-0.68359-0.09522-0.16492-0.26807-0.25479-0.44531-0.25zm-4.75 0.75v5a2.5 2.5 0 0 1-2.5-2.5 2.5 2.5 0 0 1 2.5-2.5zm-5.5254 2c-0.26491 0.013342-0.47461 0.23166-0.47461 0.5 0 0.277 0.223 0.5 0.5 0.5h1c0.277 0 0.5-0.223 0.5-0.5s-0.223-0.5-0.5-0.5h-1c-0.0087 0-0.01685-4.3e-4 -0.02539 0zm10 0c-0.26491 0.013342-0.47461 0.23166-0.47461 0.5 0 0.277 0.223 0.5 0.5 0.5h1c0.277 0 0.5-0.223 0.5-0.5s-0.223-0.5-0.5-0.5h-1c-0.0087 0-0.01685-4.3e-4 -0.02539 0zm-8.3848 2.25c-0.08056 0.0022-0.16136 0.02313-0.23633 0.06641l-0.86719 0.5c-0.23989 0.1385-0.32014 0.4437-0.18164 0.68359s0.44175 0.32209 0.68164 0.18359l0.86719-0.5c0.23989-0.1385 0.32014-0.4437 0.18164-0.68359-0.09522-0.16492-0.26807-0.25479-0.44531-0.25zm7.7715 0c-0.15998 0.01118-0.30992 0.10007-0.39648 0.25-0.1385 0.23989-0.05825 0.54509 0.18164 0.68359l0.86719 0.5c0.23989 0.1385 0.54314 0.0563 0.68164-0.18359s0.05825-0.54509-0.18164-0.68359l-0.86719-0.5c-0.08996-0.05194-0.18916-0.07312-0.28516-0.06641zm-6.123 1.6465c-0.16873 0.0036-0.33098 0.09257-0.42188 0.25l-0.5 0.86719c-0.1385 0.23989-0.0563 0.54314 0.18359 0.68164s0.54509 0.05825 0.68359-0.18164l0.5-0.86719c0.1385-0.23989 0.0563-0.54314-0.18359-0.68164-0.08246-0.04761-0.17334-0.07026-0.26172-0.06836zm4.498 0c-0.08056 0.0022-0.16136 0.02508-0.23633 0.06836-0.23989 0.1385-0.32209 0.44175-0.18359 0.68164l0.5 0.86719c0.1385 0.23989 0.4437 0.32014 0.68359 0.18164s0.32209-0.44175 0.18359-0.68164l-0.5-0.86719c-0.09522-0.16492-0.27003-0.25479-0.44727-0.25zm-2.2617 0.60352c-0.26491 0.013342-0.47461 0.23166-0.47461 0.5v1c0 0.277 0.223 0.5 0.5 0.5s0.5-0.223 0.5-0.5v-1c0-0.277-0.223-0.5-0.5-0.5-0.0087 0-0.01685-4.3e-4 -0.02539 0z" fill="currentColor" opacity=".45"/>
 <g class="ColorScheme-Text" transform="translate(0,44)" fill="currentColor">
  <path d="m6-39c-1.662 0-3 1.338-3 3v13c0 1.662 1.338 3 3 3h20c1.662 0 3-1.338 3-3v-13c0-1.662-1.338-3-3-3zm0 2h20c0.554 0 1 0.446 1 1v13c0 0.554-0.446 1-1 1h-20c-0.554 0-1-0.446-1-1v-13c0-0.554 0.446-1 1-1z"/>
  <rect x="11" y="-18" width="10" height="2" rx="1" ry="1" opacity=".45"/>
 </g>
</svg>
