<svg width="32" height="32" version="1.1" viewBox="0 0 32 32" xmlns="http://www.w3.org/2000/svg">
 <defs>
  <style id="current-color-scheme" type="text/css">.ColorScheme-Text {
        color:#4d4d4d;
      }
      .ColorScheme-Background {
        color:#eff0f1;
      }
      .ColorScheme-Highlight {
        color:#3daee9;
      }
      .ColorScheme-ViewText {
        color:#31363b;
      }
      .ColorScheme-ViewBackground {
        color:#fcfcfc;
      }
      .ColorScheme-ViewHover {
        color:#93cee9;
      }
      .ColorScheme-ViewFocus{
        color:#3daee9;
      }
      .ColorScheme-ButtonText {
        color:#31363b;
      }
      .ColorScheme-ButtonBackground {
        color:#eff0f1;
      }
      .ColorScheme-ButtonHover {
        color:#93cee9;
      }
      .ColorScheme-ButtonFocus{
        color:#3daee9;
      }</style>
  <style type="text/css">.ColorScheme-Text {
        color:#4d4d4d;
      }
      .ColorScheme-Background {
        color:#eff0f1;
      }
      .ColorScheme-Highlight {
        color:#3daee9;
      }
      .ColorScheme-ViewText {
        color:#31363b;
      }
      .ColorScheme-ViewBackground {
        color:#fcfcfc;
      }
      .ColorScheme-ViewHover {
        color:#93cee9;
      }
      .ColorScheme-ViewFocus{
        color:#3daee9;
      }
      .ColorScheme-ButtonText {
        color:#31363b;
      }
      .ColorScheme-ButtonBackground {
        color:#eff0f1;
      }
      .ColorScheme-ButtonHover {
        color:#93cee9;
      }
      .ColorScheme-ButtonFocus{
        color:#3daee9;
      }</style>
 </defs>
 <g transform="translate(0 -1020.4)">
  <path d="m13 1030.4v14h9a7 7 0 0 0 7-7 7 7 0 0 0-7-7z" fill="#f5f5f5"/>
  <circle cx="13" cy="1034.4" r="10" fill="#f5f5f5"/>
  <g fill="#2196f3">
   <rect x="12" y="1046.4" width="2" height="2.9998" ry="1"/>
   <rect x="16" y="1046.4" width="2" height="4" ry="1"/>
   <rect x="20" y="1046.4" width="2" height="2.9998" ry="1"/>
  </g>
  <path d="m7.9698 1033.4c-0.33386 0.01-0.64081 0.1856-0.81814 0.4687l-4.9986 7.9996c-0.41507 0.6658 0.063 1.5285 0.84742 1.5293h1.9995v4.9997c-4.08e-4 1.0045 1.3141 1.3826 1.8472 0.5313l4.9986-7.9996c0.4175-0.6662-0.06138-1.5314-0.84742-1.5312h-1.9995v-4.9998c-9.42e-4 -0.5631-0.46629-1.0144-1.029-0.998z" color="#000000" color-rendering="auto" fill="#ffca28" fill-rule="evenodd" image-rendering="auto" shape-rendering="auto" solid-color="#000000" style="isolation:auto;mix-blend-mode:normal;text-decoration-color:#000000;text-decoration-line:none;text-decoration-style:solid;text-indent:0;text-transform:none;white-space:normal"/>
 </g>
</svg>
