<?xml version="1.0" encoding="UTF-8" standalone="no"?>
<svg
   xmlns:dc="http://purl.org/dc/elements/1.1/"
   xmlns:cc="http://creativecommons.org/ns#"
   xmlns:rdf="http://www.w3.org/1999/02/22-rdf-syntax-ns#"
   xmlns:svg="http://www.w3.org/2000/svg"
   xmlns="http://www.w3.org/2000/svg"
   xmlns:sodipodi="http://sodipodi.sourceforge.net/DTD/sodipodi-0.dtd"
   xmlns:inkscape="http://www.inkscape.org/namespaces/inkscape"
   width="64"
   height="64"
   version="1"
   id="svg12"
   sodipodi:docname="audio-headphones.svg"
   inkscape:version="0.92.2 2405546, 2018-03-11">
  <metadata
     id="metadata18">
    <rdf:RDF>
      <cc:Work
         rdf:about="">
        <dc:format>image/svg+xml</dc:format>
        <dc:type
           rdf:resource="http://purl.org/dc/dcmitype/StillImage" />
      </cc:Work>
    </rdf:RDF>
  </metadata>
  <defs
     id="defs16">
    <clipPath
       clipPathUnits="userSpaceOnUse"
       id="clipPath904">
      <circle
         style="opacity:1;fill:#d86eb0;fill-opacity:1;stroke:none;stroke-width:0.49136904;stroke-miterlimit:4;stroke-dasharray:none;stroke-opacity:0.03921569;paint-order:stroke markers fill"
         id="circle906"
         cx="8.4666672"
         cy="288.53333"
         r="6.8791666" />
    </clipPath>
  </defs>
  <sodipodi:namedview
     pagecolor="#ffffff"
     bordercolor="#666666"
     borderopacity="1"
     objecttolerance="10"
     gridtolerance="10"
     guidetolerance="10"
     inkscape:pageopacity="0"
     inkscape:pageshadow="2"
     inkscape:window-width="1920"
     inkscape:window-height="1022"
     id="namedview14"
     showgrid="false"
     inkscape:zoom="7.375"
     inkscape:cx="0.099568891"
     inkscape:cy="28.060292"
     inkscape:window-x="0"
     inkscape:window-y="28"
     inkscape:window-maximized="1"
     inkscape:current-layer="svg12" />
  <circle
     r="26"
     cy="31.999956"
     cx="31.999998"
     id="circle884"
     style="opacity:1;fill:#ff5555;fill-opacity:1;stroke:none;stroke-width:1.85714269;stroke-miterlimit:4;stroke-dasharray:none;stroke-opacity:0.03921569;paint-order:stroke markers fill" />
  <g
     id="g876"
     transform="matrix(3.7795276,0,0,3.7795276,-2.5e-6,-1058.53)"
     clip-path="url(#clipPath904)">
    <path
       sodipodi:nodetypes="csssc"
       inkscape:connector-curvature="0"
       id="path867"
       d="m 0,287.73959 c 0,0 2.2837192,-0.73323 3.4676196,1.97766 0.6743132,1.54404 1.6231366,2.22869 2.7726928,2.28322 1.4799019,0.0702 2.672279,-1.22623 3.45853,-2.38507 1.6025206,-2.36193 4.1887126,-1.8677 6.2439576,-0.97001"
       style="opacity:0.35;fill:none;stroke:#ffffff;stroke-width:0.13229166;stroke-linecap:butt;stroke-linejoin:miter;stroke-miterlimit:4;stroke-dasharray:none;stroke-opacity:0.93670888" />
    <path
       style="opacity:0.35;fill:none;stroke:#ffffff;stroke-width:0.13229166;stroke-linecap:butt;stroke-linejoin:miter;stroke-miterlimit:4;stroke-dasharray:none;stroke-opacity:0.93670888"
       d="m 0,289.10975 c 0,0 2.7856621,-2.64951 4.365313,-0.14846 0.7215602,1.14244 1.5758897,2.86653 4.0483625,2.70845 1.478547,-0.0945 2.9559765,-0.71049 3.7183885,-2.14883 1.387806,-2.61819 3.338267,-2.52917 4.165089,-1.39524"
       id="path869"
       inkscape:connector-curvature="0"
       sodipodi:nodetypes="csssc" />
    <path
       sodipodi:nodetypes="csssc"
       inkscape:connector-curvature="0"
       id="path871"
       d="m 0.73232886,291.0705 c 0,0 2.33681544,-2.20066 5.23938294,-1.35326 1.2970805,0.37868 2.9372253,1.84723 6.0563612,1.50365 0.823431,-0.0907 1.52221,-0.56281 2.18286,-1.46375 0.957376,-1.30559 2.015351,-1.37161 3.385513,-1.11175"
       style="opacity:0.35;fill:none;stroke:#ffffff;stroke-width:0.13229166;stroke-linecap:butt;stroke-linejoin:miter;stroke-miterlimit:4;stroke-dasharray:none;stroke-opacity:0.93670888" />
  </g>
  <g
     id="g852"
     transform="matrix(0.5,0,0,0.5,14.945332,22.04047)">
    <path
       inkscape:connector-curvature="0"
       id="path4"
       d="m 34.109337,-10.08034 c -15.464,0 -28.0000003,12.5360004 -28.0000003,28 v 18 c 0,7.1392 5.0838003,9.082 8.0000003,9.6132 v -27.614 c 0,-11.0799996 8.92,-19.9999996 20,-19.9999996 11.08,0 20,8.92 20,19.9999996 v 27.624 c 2.916,-0.536 8,-2.484 8,-9.624 v -18 c 0,-15.4639996 -12.536,-28 -28,-28 z"
       style="fill:#ffffff" />
    <path
       inkscape:connector-curvature="0"
       id="path6"
       d="m 14.109337,21.91926 v 28 h 10 v -28 z m 30,0 v 28 h 10 v -28 z"
       style="fill:#ffffff;opacity:0.75" />
  </g>
</svg>
