<?xml version="1.0" encoding="UTF-8" standalone="no"?>
<svg
   xmlns:dc="http://purl.org/dc/elements/1.1/"
   xmlns:cc="http://creativecommons.org/ns#"
   xmlns:rdf="http://www.w3.org/1999/02/22-rdf-syntax-ns#"
   xmlns:svg="http://www.w3.org/2000/svg"
   xmlns="http://www.w3.org/2000/svg"
   xmlns:xlink="http://www.w3.org/1999/xlink"
   xmlns:sodipodi="http://sodipodi.sourceforge.net/DTD/sodipodi-0.dtd"
   xmlns:inkscape="http://www.inkscape.org/namespaces/inkscape"
   width="64"
   height="64"
   version="1"
   id="svg26"
   sodipodi:docname="input-touchpad.svg"
   inkscape:version="0.92.2 2405546, 2018-03-11">
  <metadata
     id="metadata32">
    <rdf:RDF>
      <cc:Work
         rdf:about="">
        <dc:format>image/svg+xml</dc:format>
        <dc:type
           rdf:resource="http://purl.org/dc/dcmitype/StillImage" />
      </cc:Work>
    </rdf:RDF>
  </metadata>
  <defs
     id="defs30">
    <linearGradient
       inkscape:collect="always"
       id="linearGradient850">
      <stop
         style="stop-color:#000000;stop-opacity:1;"
         offset="0"
         id="stop846" />
      <stop
         style="stop-color:#000000;stop-opacity:0;"
         offset="1"
         id="stop848" />
    </linearGradient>
    <linearGradient
       inkscape:collect="always"
       xlink:href="#linearGradient850"
       id="linearGradient852"
       x1="41.856445"
       y1="58"
       x2="41.856445"
       y2="6"
       gradientUnits="userSpaceOnUse" />
  </defs>
  <sodipodi:namedview
     pagecolor="#ffffff"
     bordercolor="#666666"
     borderopacity="1"
     objecttolerance="10"
     gridtolerance="10"
     guidetolerance="10"
     inkscape:pageopacity="0"
     inkscape:pageshadow="2"
     inkscape:window-width="1920"
     inkscape:window-height="1022"
     id="namedview28"
     showgrid="true"
     inkscape:snap-bbox="true"
     inkscape:bbox-nodes="true"
     inkscape:snap-bbox-edge-midpoints="true"
     inkscape:zoom="5.2149125"
     inkscape:cx="0.019734205"
     inkscape:cy="17.828553"
     inkscape:window-x="0"
     inkscape:window-y="28"
     inkscape:window-maximized="1"
     inkscape:current-layer="svg26">
    <inkscape:grid
       type="xygrid"
       id="grid839" />
  </sodipodi:namedview>
  <rect
     style="fill:#4f4f4f"
     width="52"
     height="52"
     x="-58"
     y="-58"
     rx="2.5"
     ry="2.5"
     transform="matrix(0,-1,-1,0,0,0)"
     id="rect4" />
  <g
     style="opacity:0.40"
     transform="matrix(2,0,0,2,2e-4,0)"
     id="g22">
    <rect
       width="11"
       height="6"
       x="4"
       y="22"
       rx="1.25"
       ry="1.25"
       id="rect6" />
    <rect
       width="11"
       height="6"
       x="17"
       y="22"
       rx="1.25"
       ry="1.25"
       id="rect8" />
    <rect
       width="4"
       height="1"
       x="24"
       y="7"
       id="rect10" />
    <rect
       width="4"
       height="1"
       x="24"
       y="9"
       id="rect12" />
    <rect
       width="4"
       height="1"
       x="24"
       y="11"
       id="rect14" />
    <rect
       width="4"
       height="1"
       x="24"
       y="13"
       id="rect16" />
    <rect
       width="4"
       height="1"
       x="24"
       y="15"
       id="rect18" />
    <rect
       width="4"
       height="1"
       x="24"
       y="17"
       id="rect20" />
  </g>
  <path
     style="fill:url(#linearGradient852);opacity:0.25;fill-opacity:1"
     d="M 47.960938 6 A 43.499901 43.499901 0 0 1 50 19 A 43.499901 43.499901 0 0 1 25.712891 58 L 55.5 58 C 56.885 58 58 56.885 58 55.5 L 58 8.5 C 58 7.115 56.885 6 55.5 6 L 47.960938 6 z "
     id="rect841" />
</svg>
