<?xml version="1.0" encoding="UTF-8" standalone="no"?>
<svg
   xmlns:dc="http://purl.org/dc/elements/1.1/"
   xmlns:cc="http://creativecommons.org/ns#"
   xmlns:rdf="http://www.w3.org/1999/02/22-rdf-syntax-ns#"
   xmlns:svg="http://www.w3.org/2000/svg"
   xmlns="http://www.w3.org/2000/svg"
   xmlns:xlink="http://www.w3.org/1999/xlink"
   xmlns:sodipodi="http://sodipodi.sourceforge.net/DTD/sodipodi-0.dtd"
   xmlns:inkscape="http://www.inkscape.org/namespaces/inkscape"
   width="64"
   height="64"
   version="1.1"
   viewBox="0 0 64 64"
   id="svg82"
   sodipodi:docname="drive-virtual.svg"
   inkscape:version="0.92.2 2405546, 2018-03-11">
  <metadata
     id="metadata88">
    <rdf:RDF>
      <cc:Work
         rdf:about="">
        <dc:format>image/svg+xml</dc:format>
        <dc:type
           rdf:resource="http://purl.org/dc/dcmitype/StillImage" />
      </cc:Work>
    </rdf:RDF>
  </metadata>
  <defs
     id="defs86">
    <linearGradient
       inkscape:collect="always"
       id="linearGradient907">
      <stop
         style="stop-color:#000000;stop-opacity:1;"
         offset="0"
         id="stop903" />
      <stop
         style="stop-color:#000000;stop-opacity:0;"
         offset="1"
         id="stop905" />
    </linearGradient>
    <linearGradient
       inkscape:collect="always"
       xlink:href="#linearGradient907"
       id="linearGradient909"
       x1="37.648438"
       y1="14"
       x2="60"
       y2="14"
       gradientUnits="userSpaceOnUse" />
    <linearGradient
       inkscape:collect="always"
       xlink:href="#linearGradient907"
       id="linearGradient935"
       gradientUnits="userSpaceOnUse"
       x1="37.648438"
       y1="14"
       x2="60"
       y2="14" />
    <linearGradient
       inkscape:collect="always"
       xlink:href="#linearGradient907"
       id="linearGradient948"
       gradientUnits="userSpaceOnUse"
       x1="37.648438"
       y1="14"
       x2="60"
       y2="14"
       gradientTransform="translate(0,18)" />
    <linearGradient
       inkscape:collect="always"
       xlink:href="#linearGradient907"
       id="linearGradient952"
       gradientUnits="userSpaceOnUse"
       gradientTransform="translate(0,36)"
       x1="37.648438"
       y1="14"
       x2="60"
       y2="14" />
  </defs>
  <sodipodi:namedview
     pagecolor="#ffffff"
     bordercolor="#666666"
     borderopacity="1"
     objecttolerance="10"
     gridtolerance="10"
     guidetolerance="10"
     inkscape:pageopacity="0"
     inkscape:pageshadow="2"
     inkscape:window-width="1920"
     inkscape:window-height="1022"
     id="namedview84"
     showgrid="true"
     inkscape:snap-bbox="true"
     inkscape:bbox-nodes="true"
     inkscape:zoom="7.375"
     inkscape:cx="48.541786"
     inkscape:cy="30.978111"
     inkscape:window-x="0"
     inkscape:window-y="28"
     inkscape:window-maximized="1"
     inkscape:current-layer="svg82">
    <inkscape:grid
       type="xygrid"
       id="grid911" />
  </sodipodi:namedview>
  <g
     id="g26">
    <rect
       style="fill:#666666"
       width="18"
       height="56"
       x="-59"
       y="-60"
       rx="2.5"
       ry="2.5"
       transform="matrix(0,-1,-1,0,0,0)"
       id="rect4" />
    <path
       style="opacity:0.5;fill:none;stroke:#000000;stroke-width:3;stroke-linecap:round"
       d="M 24,47 20,53"
       id="path6" />
    <path
       style="opacity:0.5;fill:none;stroke:#000000;stroke-width:3;stroke-linecap:round"
       d="M 18,47 14,53"
       id="path8" />
    <path
       style="opacity:0.5;fill:none;stroke:#000000;stroke-width:3;stroke-linecap:round"
       d="M 12,47 8,53"
       id="path10" />
    <path
       style="opacity:0.5;fill:none;stroke:#000000;stroke-width:3;stroke-linecap:round"
       d="M 30,47 26,53"
       id="path12" />
    <circle
       style="fill:#76ff03"
       cx="40.5"
       cy="46.5"
       r="2.5"
       id="circle20" />
    <circle
       style="fill:#ffff00"
       cx="47.5"
       cy="46.5"
       r="2.5"
       id="circle22" />
    <circle
       style="fill:#ffcd40"
       cx="54.5"
       cy="46.5"
       r="2.5"
       id="circle24" />
  </g>
  <g
     id="g52">
    <rect
       style="fill:#666666"
       width="18"
       height="56"
       x="-41"
       y="-60"
       rx="2.5"
       ry="2.5"
       transform="matrix(0,-1,-1,0,0,0)"
       id="rect30" />
    <path
       style="opacity:0.5;fill:none;stroke:#000000;stroke-width:3;stroke-linecap:round"
       d="M 24,29 20,35"
       id="path32" />
    <path
       style="opacity:0.5;fill:none;stroke:#000000;stroke-width:3;stroke-linecap:round"
       d="M 18,29 14,35"
       id="path34" />
    <path
       style="opacity:0.5;fill:none;stroke:#000000;stroke-width:3;stroke-linecap:round"
       d="M 12,29 8,35"
       id="path36" />
    <path
       style="opacity:0.5;fill:none;stroke:#000000;stroke-width:3;stroke-linecap:round"
       d="M 30,29 26,35"
       id="path38" />
    <circle
       style="fill:#76ff03"
       cx="40.5"
       cy="28.5"
       r="2.5"
       id="circle46" />
    <circle
       style="fill:#ffff00"
       cx="47.5"
       cy="28.5"
       r="2.5"
       id="circle48" />
    <circle
       style="fill:#ffcd40"
       cx="54.5"
       cy="28.5"
       r="2.5"
       id="circle50" />
  </g>
  <g
     id="g80">
    <rect
       style="fill:#8e8e8e"
       width="18"
       height="56"
       x="-23"
       y="-60"
       rx="2.5"
       ry="2.5"
       transform="matrix(0,-1,-1,0,0,0)"
       id="rect56" />
    <path
       style="opacity:0.5;fill:none;stroke:#000000;stroke-width:3;stroke-linecap:round"
       d="M 24,11 20,17"
       id="path58" />
    <path
       style="opacity:0.5;fill:none;stroke:#000000;stroke-width:3;stroke-linecap:round"
       d="M 18,11 14,17"
       id="path60" />
    <path
       style="opacity:0.5;fill:none;stroke:#000000;stroke-width:3;stroke-linecap:round"
       d="M 12,11 8,17"
       id="path62" />
    <path
       style="opacity:0.5;fill:none;stroke:#000000;stroke-width:3;stroke-linecap:round"
       d="M 30,11 26,17"
       id="path64" />
    <circle
       style="fill:#76ff03"
       cx="39.5"
       cy="10.5"
       r="2.5"
       id="circle72" />
    <circle
       style="fill:#ffff00"
       cx="47.5"
       cy="10.5"
       r="2.5"
       id="circle74" />
    <circle
       style="fill:#ffcd40"
       cx="54.5"
       cy="10.5"
       r="2.5"
       id="circle76" />
    <path
       style="fill:url(#linearGradient909);opacity:0.25;fill-opacity:1"
       d="M 48.482422 5 A 31.160637 31.160637 0 0 1 37.648438 23 L 57.5 23 C 58.885 23 60 21.885 60 20.5 L 60 7.5 C 60 6.115 58.885 5 57.5 5 L 48.482422 5 z "
       id="rect898" />
  </g>
  <rect
     style="fill:#666666"
     width="18"
     height="56"
     x="-23"
     y="-60"
     rx="2.5"
     ry="2.5"
     transform="matrix(0,-1,-1,0,0,0)"
     id="rect913" />
  <path
     inkscape:connector-curvature="0"
     style="opacity:0.5;fill:none;stroke:#000000;stroke-width:3;stroke-linecap:round"
     d="m 24,11 -4,6"
     id="path915" />
  <path
     inkscape:connector-curvature="0"
     style="opacity:0.5;fill:none;stroke:#000000;stroke-width:3;stroke-linecap:round"
     d="m 18,11 -4,6"
     id="path917" />
  <path
     inkscape:connector-curvature="0"
     style="opacity:0.5;fill:none;stroke:#000000;stroke-width:3;stroke-linecap:round"
     d="M 12,11 8,17"
     id="path919" />
  <path
     inkscape:connector-curvature="0"
     style="opacity:0.5;fill:none;stroke:#000000;stroke-width:3;stroke-linecap:round"
     d="m 30,11 -4,6"
     id="path921" />
  <circle
     style="fill:#76ff03"
     cx="39.5"
     cy="10.5"
     r="2.5"
     id="circle923" />
  <circle
     style="fill:#ffff00"
     cx="47.5"
     cy="10.5"
     r="2.5"
     id="circle925" />
  <circle
     style="fill:#ffcd40"
     cx="54.5"
     cy="10.5"
     r="2.5"
     id="circle927" />
  <path
     inkscape:connector-curvature="0"
     style="opacity:0.25;fill:url(#linearGradient935);fill-opacity:1"
     d="M 48.482422,5 A 31.160637,31.160637 0 0 1 37.648438,23 H 57.5 C 58.885,23 60,21.885 60,20.5 V 7.5 C 60,6.115 58.885,5 57.5,5 Z"
     id="path929" />
  <path
     id="path946"
     d="M 48.482422,23 A 31.160637,31.160637 0 0 1 37.648438,41 H 57.5 c 1.385,0 2.5,-1.115 2.5,-2.5 v -13 C 60,24.115 58.885,23 57.5,23 Z"
     style="opacity:0.25;fill:url(#linearGradient948);fill-opacity:1"
     inkscape:connector-curvature="0" />
  <path
     inkscape:connector-curvature="0"
     style="opacity:0.25;fill:url(#linearGradient952);fill-opacity:1"
     d="M 48.482422,41 A 31.160637,31.160637 0 0 1 37.648438,59 H 57.5 c 1.385,0 2.5,-1.115 2.5,-2.5 v -13 C 60,42.115 58.885,41 57.5,41 Z"
     id="path950" />
</svg>
