<?xml version="1.0" encoding="UTF-8" standalone="no"?>
<svg
   xmlns:dc="http://purl.org/dc/elements/1.1/"
   xmlns:cc="http://creativecommons.org/ns#"
   xmlns:rdf="http://www.w3.org/1999/02/22-rdf-syntax-ns#"
   xmlns:svg="http://www.w3.org/2000/svg"
   xmlns="http://www.w3.org/2000/svg"
   xmlns:xlink="http://www.w3.org/1999/xlink"
   xmlns:sodipodi="http://sodipodi.sourceforge.net/DTD/sodipodi-0.dtd"
   xmlns:inkscape="http://www.inkscape.org/namespaces/inkscape"
   width="64"
   height="64"
   version="1"
   id="svg28"
   sodipodi:docname="uninterruptible-power-supply.svg"
   inkscape:version="0.92.2 2405546, 2018-03-11">
  <metadata
     id="metadata34">
    <rdf:RDF>
      <cc:Work
         rdf:about="">
        <dc:format>image/svg+xml</dc:format>
        <dc:type
           rdf:resource="http://purl.org/dc/dcmitype/StillImage" />
      </cc:Work>
    </rdf:RDF>
  </metadata>
  <defs
     id="defs32">
    <linearGradient
       inkscape:collect="always"
       id="linearGradient855">
      <stop
         style="stop-color:#000000;stop-opacity:1;"
         offset="0"
         id="stop851" />
      <stop
         style="stop-color:#000000;stop-opacity:0;"
         offset="1"
         id="stop853" />
    </linearGradient>
    <linearGradient
       inkscape:collect="always"
       xlink:href="#linearGradient855"
       id="linearGradient857"
       x1="27.425781"
       y1="32"
       x2="53"
       y2="32"
       gradientUnits="userSpaceOnUse" />
  </defs>
  <sodipodi:namedview
     pagecolor="#ffffff"
     bordercolor="#666666"
     borderopacity="1"
     objecttolerance="10"
     gridtolerance="10"
     guidetolerance="10"
     inkscape:pageopacity="0"
     inkscape:pageshadow="2"
     inkscape:window-width="1920"
     inkscape:window-height="1022"
     id="namedview30"
     showgrid="true"
     inkscape:snap-bbox="true"
     inkscape:bbox-nodes="true"
     inkscape:snap-bbox-edge-midpoints="true"
     inkscape:zoom="7.375"
     inkscape:cx="21.719765"
     inkscape:cy="27.031764"
     inkscape:window-x="0"
     inkscape:window-y="28"
     inkscape:window-maximized="1"
     inkscape:current-layer="svg28">
    <inkscape:grid
       type="xygrid"
       id="grid841" />
  </sodipodi:namedview>
  <rect
     style="fill:#8e8e8e;stroke-width:0.94146889"
     width="52"
     height="42"
     x="-58"
     y="-53"
     rx="3.7142856"
     ry="3.8181818"
     transform="matrix(0,-1,-1,0,0,0)"
     id="rect4" />
  <path
     style="opacity:0.5"
     d="M 46,6 V 34 C 46,41.756 39.756,48 32,48 24.244,48 18,41.756 18,34 V 6 Z"
     id="path6"
     inkscape:connector-curvature="0"
     sodipodi:nodetypes="cssscc" />
  <circle
     cx="32"
     cy="34"
     r="6"
     style="fill:#3697c4;fill-opacity:1"
     id="circle12" />
  <circle
     cx="32"
     cy="21"
     r="3"
     style="fill:#ff6e40"
     id="circle16" />
  <circle
     cx="32"
     cy="13"
     r="3"
     style="fill:#76ff03"
     id="circle20" />
  <path
     style="opacity:0.5;stroke-width:0.99999994"
     d="M 17 56 C 15.892 56 15 56.892 15 58 L 49 58 C 49 56.892 48.108 56 47 56 L 17 56 z "
     id="rect22" />
  <path
     style="opacity:0.5"
     d="m 51,32 c -0.554,0 -1,0.446 -1,1 0,0.554 0.446,1 1,1 h 2 v -2 z m 0,4 c -0.554,0 -1,0.446 -1,1 0,0.554 0.446,1 1,1 h 2 v -2 z m 0,4 c -0.554,0 -1,0.446 -1,1 0,0.554 0.446,1 1,1 h 2 v -2 z"
     id="path24"
     inkscape:connector-curvature="0"
     sodipodi:nodetypes="sssccssssccssssccs" />
  <path
     d="m 13,32 c 0.554,0 1,0.446 1,1 0,0.554 -0.446,1 -1,1 h -2 v -2 z m 0,4 c 0.554,0 1,0.446 1,1 0,0.554 -0.446,1 -1,1 h -2 v -2 z m 0,4 c 0.554,0 1,0.446 1,1 0,0.554 -0.446,1 -1,1 h -2 v -2 z"
     style="opacity:0.5"
     id="path26"
     inkscape:connector-curvature="0"
     sodipodi:nodetypes="sssccssssccssssccs" />
  <path
     style="fill:url(#linearGradient857);stroke-width:0.94146889;opacity:0.25;fill-opacity:1"
     d="M 48.886719 6 A 50 50 0 0 1 50 16.220703 A 50 50 0 0 1 27.425781 58 L 49.181641 58 C 51.296913 58 53 56.34287 53 54.285156 L 53 9.7148438 C 53 7.6571295 51.296913 6 49.181641 6 L 48.886719 6 z "
     id="rect846" />
</svg>
