<?xml version="1.0" encoding="UTF-8" standalone="no"?>
<svg
   xmlns:dc="http://purl.org/dc/elements/1.1/"
   xmlns:cc="http://creativecommons.org/ns#"
   xmlns:rdf="http://www.w3.org/1999/02/22-rdf-syntax-ns#"
   xmlns:svg="http://www.w3.org/2000/svg"
   xmlns="http://www.w3.org/2000/svg"
   xmlns:xlink="http://www.w3.org/1999/xlink"
   xmlns:sodipodi="http://sodipodi.sourceforge.net/DTD/sodipodi-0.dtd"
   xmlns:inkscape="http://www.inkscape.org/namespaces/inkscape"
   width="64"
   height="64"
   version="1"
   id="svg18"
   sodipodi:docname="wiimotedev.svg"
   inkscape:version="0.92.2 2405546, 2018-03-11">
  <metadata
     id="metadata24">
    <rdf:RDF>
      <cc:Work
         rdf:about="">
        <dc:format>image/svg+xml</dc:format>
        <dc:type
           rdf:resource="http://purl.org/dc/dcmitype/StillImage" />
      </cc:Work>
    </rdf:RDF>
  </metadata>
  <defs
     id="defs22">
    <linearGradient
       inkscape:collect="always"
       id="linearGradient843">
      <stop
         style="stop-color:#000000;stop-opacity:1;"
         offset="0"
         id="stop839" />
      <stop
         style="stop-color:#000000;stop-opacity:0;"
         offset="1"
         id="stop841" />
    </linearGradient>
    <linearGradient
       inkscape:collect="always"
       xlink:href="#linearGradient843"
       id="linearGradient845"
       x1="34.635742"
       y1="60"
       x2="34.635742"
       y2="34.433594"
       gradientUnits="userSpaceOnUse" />
  </defs>
  <sodipodi:namedview
     pagecolor="#ffffff"
     bordercolor="#666666"
     borderopacity="1"
     objecttolerance="10"
     gridtolerance="10"
     guidetolerance="10"
     inkscape:pageopacity="0"
     inkscape:pageshadow="2"
     inkscape:window-width="1672"
     inkscape:window-height="748"
     id="namedview20"
     showgrid="false"
     inkscape:zoom="3.6875"
     inkscape:cx="-33.050086"
     inkscape:cy="46.280822"
     inkscape:window-x="0"
     inkscape:window-y="28"
     inkscape:window-maximized="0"
     inkscape:current-layer="svg18" />
  <rect
     style="fill:#e4e4e4"
     width="56"
     height="26"
     x="4"
     y="-45"
     rx="2.8"
     ry="2.6"
     transform="matrix(0,1,-1,0,0,0)"
     id="rect4" />
  <path
     style="fill:#4f4f4f"
     d="m 39,15.6 c -4e-6,-0.7756 -0.6244,-1.600053 -1.4,-1.600053 l -2.599983,3.6e-5 -3.4e-5,-2.599947 c 0,-0.7756 -0.824017,-1.4 -1.600017,-1.4 l -2.8,3.4e-5 c -0.7756,6e-6 -1.599983,0.6244 -1.599983,1.4 l 3.4e-5,2.599947 -2.600017,3.6e-5 c -0.776,0 -1.4,0.824453 -1.4,1.600053 l 3.6e-5,2.8 c 2e-6,0.7756 0.6244,1.600074 1.4,1.600074 l 2.599946,-3.6e-5 3.6e-5,2.599926 c 2e-6,0.7756 0.824454,1.4 1.600054,1.4 l 2.8,-3.6e-5 c 0.7756,-4e-6 1.600028,-0.6244 1.600028,-1.4 l -0.0022,-2.600126 2.598972,-8.8e-5 c 0.77586,1.54e-4 1.40146,-0.823474 1.40134,-1.599254 l -3.8e-5,-2.8 z"
     id="path6" />
  <circle
     style="fill:#ff7f2a"
     cx="51"
     cy="-36"
     r="3"
     transform="matrix(0,1,-1,0,0,0)"
     id="circle8" />
  <circle
     style="fill:#729fcf"
     cx="43"
     cy="-36"
     r="3"
     transform="matrix(0,1,-1,0,0,0)"
     id="circle10" />
  <circle
     style="fill:#8ccb4d;fill-opacity:1"
     cx="51"
     cy="-28"
     r="3"
     transform="matrix(0,1,-1,0,0,0)"
     id="circle12" />
  <circle
     style="fill:#d35f5f"
     cx="43"
     cy="-28"
     r="3"
     transform="matrix(0,1,-1,0,0,0)"
     id="circle14" />
  <path
     style="fill:url(#linearGradient845);opacity:0.25;fill-opacity:1"
     d="M 45 34.433594 A 48.40678 48.40678 0 0 1 24.271484 60 L 42.400391 60 C 43.840791 60 45 58.750419 45 57.199219 L 45 34.433594 z "
     id="rect834" />
</svg>
