<?xml version="1.0" encoding="UTF-8" standalone="no"?>
<!-- Created with Inkscape (http://www.inkscape.org/) -->

<svg
   xmlns:dc="http://purl.org/dc/elements/1.1/"
   xmlns:cc="http://creativecommons.org/ns#"
   xmlns:rdf="http://www.w3.org/1999/02/22-rdf-syntax-ns#"
   xmlns:svg="http://www.w3.org/2000/svg"
   xmlns="http://www.w3.org/2000/svg"
   xmlns:sodipodi="http://sodipodi.sourceforge.net/DTD/sodipodi-0.dtd"
   xmlns:inkscape="http://www.inkscape.org/namespaces/inkscape"
   width="64"
   height="64"
   viewBox="0 0 16.933333 16.933333"
   version="1.1"
   id="svg4572"
   inkscape:version="0.92.2 2405546, 2018-03-11"
   sodipodi:docname="bclound.svg">
  <title
     id="title4611">Canvas icon theme</title>
  <defs
     id="defs4566">
    <filter
       id="filter4154"
       style="color-interpolation-filters:sRGB">
      <feColorMatrix
         values="1 0 0 0 0 0 1 0 0 0 0 0 1 0 0 0 0 0 1 0 "
         result="result7"
         id="feColorMatrix2" />
      <feGaussianBlur
         result="result6"
         stdDeviation="5"
         id="feGaussianBlur4" />
      <feComposite
         in2="result7"
         operator="atop"
         in="result6"
         result="result91"
         id="feComposite6" />
      <feComposite
         operator="in"
         in2="result91"
         id="feComposite8" />
    </filter>
  </defs>
  <sodipodi:namedview
     id="base"
     pagecolor="#ffffff"
     bordercolor="#666666"
     borderopacity="1.0"
     inkscape:pageopacity="0.0"
     inkscape:pageshadow="2"
     inkscape:zoom="7.9195959"
     inkscape:cx="33.200665"
     inkscape:cy="36.086437"
     inkscape:document-units="px"
     inkscape:current-layer="layer1"
     showgrid="true"
     units="px"
     width="64px"
     showguides="true"
     inkscape:guide-bbox="true"
     inkscape:window-width="1920"
     inkscape:window-height="1021"
     inkscape:window-x="0"
     inkscape:window-y="29"
     inkscape:window-maximized="1"
     inkscape:snap-bbox="true"
     inkscape:bbox-nodes="true"
     inkscape:snap-bbox-edge-midpoints="true">
    <inkscape:grid
       type="xygrid"
       id="grid4582" />
    <sodipodi:guide
       position="1.0583333,15.875"
       orientation="0,1"
       id="guide4584"
       inkscape:locked="false" />
    <sodipodi:guide
       position="1.0583333,1.0583333"
       orientation="1,0"
       id="guide4586"
       inkscape:locked="false" />
    <sodipodi:guide
       position="15.875,15.875"
       orientation="1,0"
       id="guide4588"
       inkscape:locked="false" />
    <sodipodi:guide
       position="1.0583333,1.0583333"
       orientation="0,1"
       id="guide4590"
       inkscape:locked="false" />
  </sodipodi:namedview>
  <metadata
     id="metadata4569">
    <rdf:RDF>
      <cc:Work
         rdf:about="">
        <dc:format>image/svg+xml</dc:format>
        <dc:type
           rdf:resource="http://purl.org/dc/dcmitype/StillImage" />
        <dc:title>Canvas icon theme</dc:title>
        <cc:license
           rdf:resource="http://creativecommons.org/licenses/by-nc-sa/4.0/" />
        <dc:creator>
          <cc:Agent>
            <dc:title>Vince Liuice</dc:title>
          </cc:Agent>
        </dc:creator>
      </cc:Work>
      <cc:License
         rdf:about="http://creativecommons.org/licenses/by-nc-sa/4.0/">
        <cc:permits
           rdf:resource="http://creativecommons.org/ns#Reproduction" />
        <cc:permits
           rdf:resource="http://creativecommons.org/ns#Distribution" />
        <cc:requires
           rdf:resource="http://creativecommons.org/ns#Notice" />
        <cc:requires
           rdf:resource="http://creativecommons.org/ns#Attribution" />
        <cc:prohibits
           rdf:resource="http://creativecommons.org/ns#CommercialUse" />
        <cc:permits
           rdf:resource="http://creativecommons.org/ns#DerivativeWorks" />
        <cc:requires
           rdf:resource="http://creativecommons.org/ns#ShareAlike" />
      </cc:License>
    </rdf:RDF>
  </metadata>
  <g
     inkscape:label="Layer 1"
     inkscape:groupmode="layer"
     id="layer1"
     transform="translate(0,-280.06667)">
    <circle
       style="opacity:1;fill:#0b93d3;fill-opacity:1;stroke:none;stroke-width:0.49136901;stroke-miterlimit:4;stroke-dasharray:none;stroke-opacity:0.03821656;paint-order:stroke markers fill"
       id="path13"
       cx="8.4666662"
       cy="288.53333"
       r="6.8791666" />
    <circle
       r="1.3890623"
       cy="287.58527"
       cx="11.90625"
       id="circle850"
       style="opacity:0.25;fill:#ffffff;fill-opacity:1;stroke:none;stroke-width:0.27781245;stroke-miterlimit:4;stroke-dasharray:none;stroke-opacity:0.03921569;paint-order:stroke markers fill" />
    <circle
       style="opacity:0.25;fill:#ffffff;fill-opacity:1;stroke:none;stroke-width:0.27781245;stroke-miterlimit:4;stroke-dasharray:none;stroke-opacity:0.03921569;paint-order:stroke markers fill"
       id="circle832"
       cx="11.90625"
       cy="287.58527"
       r="1.3890623" />
    <circle
       r="3.0868053"
       cy="287.73956"
       cx="8.8194456"
       id="circle852"
       style="opacity:1;fill:#ffffff;fill-opacity:1;stroke:none;stroke-width:0.61736107;stroke-miterlimit:4;stroke-dasharray:none;stroke-opacity:0.03921569;paint-order:stroke markers fill" />
    <circle
       style="opacity:1;fill:#ffffff;fill-opacity:1;stroke:none;stroke-width:0.52916664;stroke-miterlimit:4;stroke-dasharray:none;stroke-opacity:0.03921569;paint-order:stroke markers fill"
       id="path822"
       cx="8.7312498"
       cy="288.26874"
       r="2.6458333" />
    <circle
       style="opacity:1;fill:#ffffff;fill-opacity:1;stroke:none;stroke-width:0.49388885;stroke-miterlimit:4;stroke-dasharray:none;stroke-opacity:0.03921569;paint-order:stroke markers fill"
       id="circle854"
       cx="5.4239588"
       cy="288.97427"
       r="2.4694443" />
    <circle
       r="2.1166666"
       cy="289.32706"
       cx="5.8208327"
       id="circle824"
       style="opacity:1;fill:#ffffff;fill-opacity:1;stroke:none;stroke-width:0.42333332;stroke-miterlimit:4;stroke-dasharray:none;stroke-opacity:0.03921569;paint-order:stroke markers fill" />
    <circle
       r="1.8520833"
       cy="289.59164"
       cx="12.214931"
       id="circle856"
       style="opacity:1;fill:#ffffff;fill-opacity:1;stroke:none;stroke-width:0.37041667;stroke-miterlimit:4;stroke-dasharray:none;stroke-opacity:0.03921569;paint-order:stroke markers fill" />
    <circle
       style="opacity:1;fill:#ffffff;fill-opacity:1;stroke:none;stroke-width:0.3175;stroke-miterlimit:4;stroke-dasharray:none;stroke-opacity:0.03921569;paint-order:stroke markers fill"
       id="circle826"
       cx="11.641666"
       cy="289.85623"
       r="1.5875" />
    <rect
       y="288.04825"
       x="5.4239588"
       height="3.3954861"
       width="6.7909727"
       id="rect858"
       style="opacity:1;fill:#ffffff;fill-opacity:1;stroke:none;stroke-width:0.56788963;stroke-miterlimit:4;stroke-dasharray:none;stroke-opacity:0.03921569;paint-order:stroke markers fill" />
    <rect
       style="opacity:1;fill:#ffffff;fill-opacity:1;stroke:none;stroke-width:0.48676252;stroke-miterlimit:4;stroke-dasharray:none;stroke-opacity:0.03921569;paint-order:stroke markers fill"
       id="rect828"
       width="5.8208337"
       height="2.9104166"
       x="5.8208327"
       y="288.53333" />
    <path
       inkscape:connector-curvature="0"
       id="path31"
       style="fill:#1793e6;fill-opacity:1;fill-rule:nonzero;stroke:none;stroke-width:0.20373799"
       d="m 8.4750381,286.47389 c -0.7878543,0 -1.4261657,0.63831 -1.4261657,1.42616 0,0.78786 0.6383114,1.42617 1.4261657,1.42617 0.7878551,0 1.4261662,-0.63831 1.4261662,-1.42617 0,-0.78785 -0.6383111,-1.42616 -1.4261662,-1.42616 z m 0.00593,0.62629 a 0.80476506,0.80476506 0 0 1 0.8045617,0.80456 0.80476506,0.80476506 0 0 1 -0.8045617,0.80497 0.80476506,0.80476506 0 0 1 -0.8049683,-0.80497 0.80476506,0.80476506 0 0 1 0.8049683,-0.80456 z" />
    <path
       inkscape:connector-curvature="0"
       id="path33"
       style="fill:#1793e6;fill-opacity:1;fill-rule:nonzero;stroke:none;stroke-width:0.20373799"
       d="m 10.087624,288.00417 c -0.3732476,0 -0.7071737,0.1475 -0.9614387,0.382 l 0.4074755,0.47145 c 0.032395,-0.0307 0.069472,-0.0635 0.108185,-0.0894 0.1187789,-0.0788 0.2257411,-0.11633 0.3565413,-0.12733 0.043599,-0.004 0.089237,-0.002 0.1401719,0 0.295012,0.0135 0.528903,0.16665 0.662148,0.43294 0.0434,0.0868 0.06785,0.17541 0.07966,0.26424 0.0057,0.0463 0.0076,0.0923 0.0055,0.13773 0,7.7e-4 0,0.002 0,0.002 h 4.08e-4 c 0.01406,0.15912 0.149135,0.28381 0.31233,0.28381 0.163397,0 0.298272,-0.12449 0.31233,-0.28381 0,-7.7e-4 4.07e-4,-0.002 4.07e-4,-0.002 h -4.07e-4 c 4.07e-4,-0.0161 0,-0.0322 0,-0.0485 0,-0.0244 -0.0021,-0.0489 -0.0041,-0.0731 h 4.07e-4 c -2.04e-4,-0.003 -10e-4,-0.006 -0.0012,-0.01 -6.11e-4,-0.008 -6.11e-4,-0.0169 -0.0012,-0.025 h -0.0012 c -0.05704,-0.7355 -0.666019,-1.31472 -1.416182,-1.31472" />
    <path
       inkscape:connector-curvature="0"
       id="path35"
       style="fill:#1793e6;fill-opacity:1;fill-rule:nonzero;stroke:none;stroke-width:0.20373799"
       d="m 6.8329103,288.00009 c -0.787855,0 -1.4261665,0.63831 -1.4261665,1.42617 0,0.78785 0.6383115,1.42616 1.4261665,1.42616 0.7878543,0 1.4261658,-0.63831 1.4261658,-1.42616 0,-0.78786 -0.6383115,-1.42617 -1.4261658,-1.42617 z m 0.00593,0.62629 a 0.80476506,0.80476506 0 0 1 0.8045609,0.80456 0.80476506,0.80476506 0 0 1 -0.8045609,0.80497 0.80476506,0.80476506 0 0 1 -0.8049691,-0.80497 0.80476506,0.80476506 0 0 1 0.8049691,-0.80456 z" />
    <path
       inkscape:connector-curvature="0"
       id="path37"
       style="fill:#ff4444;fill-opacity:1;stroke:none;filter:url(#filter4154)"
       d="m 6.973,7.4709997 c -0.365,0 -0.744,0.04 -1.094,0.094 0.999,0.422 1.719,1.441 1.719,2.5940003 0,0.16 -0.036,0.316 -0.063,0.469 1.306,0.172 2.39,0.972 2.938,2.063 0.791,1.577 0.522,3.357 -0.719,4.594 0.962,-0.959 2.934,-2.702 4.156,-3.844 C 13.398,10.066 10.501,7.4719997 6.972,7.4719997 Z"
       transform="matrix(0.203738,0,0,0.203738,5.4067438,286.47389)" />
    <path
       inkscape:connector-curvature="0"
       id="path39"
       style="fill:#1793e6;fill-opacity:1;stroke:none;stroke-width:0.20373799"
       d="m 7.4522736,290.53052 -0.6521652,0.0259 2.294497,-2.1309 0.4095138,0.45984 -1.7788364,1.65374 z" />
    <circle
       id="circle41"
       style="fill:#1793e6;fill-opacity:1;stroke:none;stroke-width:0.20373799"
       r="0.30560699"
       cy="290.30643"
       cx="11.213277" />
  </g>
</svg>
