<?xml version="1.0" encoding="UTF-8" standalone="no"?>
<!-- Created with Inkscape (http://www.inkscape.org/) -->

<svg
   xmlns:dc="http://purl.org/dc/elements/1.1/"
   xmlns:cc="http://creativecommons.org/ns#"
   xmlns:rdf="http://www.w3.org/1999/02/22-rdf-syntax-ns#"
   xmlns:svg="http://www.w3.org/2000/svg"
   xmlns="http://www.w3.org/2000/svg"
   xmlns:xlink="http://www.w3.org/1999/xlink"
   xmlns:sodipodi="http://sodipodi.sourceforge.net/DTD/sodipodi-0.dtd"
   xmlns:inkscape="http://www.inkscape.org/namespaces/inkscape"
   width="64"
   height="64"
   viewBox="0 0 16.933333 16.933333"
   version="1.1"
   id="svg4572"
   inkscape:version="0.92.2 2405546, 2018-03-11"
   sodipodi:docname="desktop-environment-kde.svg">
  <title
     id="title4611">Canvas icon theme</title>
  <defs
     id="defs4566">
    <linearGradient
       gradientTransform="matrix(0.26458333,0,0,0.26458333,-4.6124265e-8,280.06666)"
       inkscape:collect="always"
       xlink:href="#linearGradient856"
       id="linearGradient858"
       x1="45.62793"
       y1="57.955078"
       x2="45.62793"
       y2="12.460938"
       gradientUnits="userSpaceOnUse" />
    <linearGradient
       inkscape:collect="always"
       id="linearGradient856">
      <stop
         style="stop-color:#000000;stop-opacity:1;"
         offset="0"
         id="stop852" />
      <stop
         style="stop-color:#000000;stop-opacity:0;"
         offset="1"
         id="stop854" />
    </linearGradient>
    <linearGradient
       id="linearGradient3764"
       x1="1"
       x2="47"
       gradientUnits="userSpaceOnUse"
       gradientTransform="rotate(-90,23.999998,24)">
      <stop
         style="stop-color:#32a2f8;stop-opacity:1"
         id="stop2" />
      <stop
         offset="1"
         style="stop-color:#45a9f9;stop-opacity:1"
         id="stop4" />
    </linearGradient>
  </defs>
  <sodipodi:namedview
     id="base"
     pagecolor="#ffffff"
     bordercolor="#666666"
     borderopacity="1.0"
     inkscape:pageopacity="0.0"
     inkscape:pageshadow="2"
     inkscape:zoom="7.9195959"
     inkscape:cx="20.987287"
     inkscape:cy="46.982063"
     inkscape:document-units="px"
     inkscape:current-layer="layer1"
     showgrid="true"
     units="px"
     width="64px"
     showguides="true"
     inkscape:guide-bbox="true"
     inkscape:window-width="730"
     inkscape:window-height="470"
     inkscape:window-x="1122"
     inkscape:window-y="303"
     inkscape:window-maximized="0"
     inkscape:snap-bbox="true"
     inkscape:bbox-nodes="true"
     inkscape:snap-bbox-edge-midpoints="true">
    <inkscape:grid
       type="xygrid"
       id="grid4582" />
    <sodipodi:guide
       position="1.0583333,15.875"
       orientation="0,1"
       id="guide4584"
       inkscape:locked="false" />
    <sodipodi:guide
       position="1.0583333,1.0583333"
       orientation="1,0"
       id="guide4586"
       inkscape:locked="false" />
    <sodipodi:guide
       position="15.875,15.875"
       orientation="1,0"
       id="guide4588"
       inkscape:locked="false" />
    <sodipodi:guide
       position="1.0583333,1.0583333"
       orientation="0,1"
       id="guide4590"
       inkscape:locked="false" />
    <sodipodi:guide
       position="3.9687499,8.4666665"
       orientation="0,1"
       id="guide822"
       inkscape:locked="false" />
    <sodipodi:guide
       position="8.4666665,8.4666665"
       orientation="1,0"
       id="guide824"
       inkscape:locked="false" />
  </sodipodi:namedview>
  <metadata
     id="metadata4569">
    <rdf:RDF>
      <cc:Work
         rdf:about="">
        <dc:format>image/svg+xml</dc:format>
        <dc:type
           rdf:resource="http://purl.org/dc/dcmitype/StillImage" />
        <dc:title>Canvas icon theme</dc:title>
        <cc:license
           rdf:resource="http://creativecommons.org/licenses/by-nc-sa/4.0/" />
        <dc:creator>
          <cc:Agent>
            <dc:title>Vince Liuice</dc:title>
          </cc:Agent>
        </dc:creator>
      </cc:Work>
      <cc:License
         rdf:about="http://creativecommons.org/licenses/by-nc-sa/4.0/">
        <cc:permits
           rdf:resource="http://creativecommons.org/ns#Reproduction" />
        <cc:permits
           rdf:resource="http://creativecommons.org/ns#Distribution" />
        <cc:requires
           rdf:resource="http://creativecommons.org/ns#Notice" />
        <cc:requires
           rdf:resource="http://creativecommons.org/ns#Attribution" />
        <cc:prohibits
           rdf:resource="http://creativecommons.org/ns#CommercialUse" />
        <cc:permits
           rdf:resource="http://creativecommons.org/ns#DerivativeWorks" />
        <cc:requires
           rdf:resource="http://creativecommons.org/ns#ShareAlike" />
      </cc:License>
    </rdf:RDF>
  </metadata>
  <g
     inkscape:label="Layer 1"
     inkscape:groupmode="layer"
     id="layer1"
     transform="translate(0,-280.06667)">
    <circle
       style="opacity:1;fill:#3ea7f9;fill-opacity:1;stroke:none;stroke-width:0.27516666;stroke-linecap:round;stroke-linejoin:round;stroke-miterlimit:4;stroke-dasharray:none;stroke-opacity:0.05882353;paint-order:markers stroke fill"
       id="path832"
       cx="8.4666662"
       cy="288.53333"
       r="6.8791666" />
    <path
       inkscape:connector-curvature="0"
       style="opacity:0.25;fill:url(#linearGradient858);fill-opacity:1;stroke:none;stroke-width:0.49136904;stroke-miterlimit:4;stroke-dasharray:none;stroke-opacity:0.03821656;paint-order:stroke markers fill"
       d="m 12.997139,283.36363 a 10.715625,10.715625 0 0 1 0.496611,3.18534 10.715625,10.715625 0 0 1 -4.6948041,8.85165 6.8791665,6.8791665 0 0 0 6.5468871,-6.86728 6.8791665,6.8791665 0 0 0 -2.348694,-5.16971 z"
       id="circle839" />
    <g
       transform="matrix(0.35269969,0,0,0.35269969,0.00281086,280.0666)"
       id="g39">
      <g
         id="g37">
        <!-- color: #45a9f9 -->
        <g
           id="g35">
          <path
             inkscape:connector-curvature="0"
             d="m 25.91,12 -4.172,0.297 v 16.617 l 4.172,-0.508 v -7.254 c 1.809,2.73 3.262,5.27 5.684,7.91 l 4.32,-1.242 c -2.313,-2.68 -4.04,-5.04 -5.617,-7.613 1.641,-2.418 3.695,-4.848 5.703,-7.02 l -4.477,-1.098 c -2.09,2.355 -3.949,4.789 -5.613,7.234 m -9.504,-3.914 c -0.059,0.008 -0.129,0.043 -0.184,0.098 -0.492,0.465 -0.957,0.93 -1.445,1.395 -0.215,0.207 0.004,0.453 0.098,0.625 l 0.992,1.371 0.742,1 c 0.105,0.145 0.137,0.16 0.082,0.262 -0.066,0.105 -0.121,0.191 -0.184,0.297 -0.965,1.621 -0.289,1.746 -2.355,2.273 l -1.582,0.262 c -0.234,0.078 -0.539,0.07 -0.555,0.395 0,0.656 -0.02,1.309 -0.02,1.961 -0.012,0.301 0.324,0.328 0.523,0.379 l 1.684,0.293 1.262,0.23 c 0.172,0.023 0.211,-0.016 0.25,0.113 0.516,2.176 1.191,1.676 0.066,3.578 l -0.906,1.262 c -0.121,0.219 -0.344,0.434 -0.117,0.656 0.477,0.473 0.934,0.949 1.414,1.422 0.211,0.207 0.484,-0.004 0.656,-0.098 l 1.395,-0.969 1.043,-0.703 c 0.145,-0.117 0.164,-0.145 0.27,-0.082 2.09,1.277 2.164,0.355 2.773,2.504 l 0.301,1.539 c 0.078,0.23 0.086,0.527 0.406,0.539 h 2.031 c 0.305,0 0.332,-0.348 0.371,-0.539 l 0.285,-1.637 0.203,-1.211 c 0.012,-0.117 0.008,-0.176 0.031,-0.215 2.449,-0.504 1.84,-1.215 3.832,-0.082 l 1.293,0.883 c 0.238,0.117 0.465,0.32 0.691,0.102 0.48,-0.453 0.957,-0.91 1.438,-1.359 0.215,-0.219 0.004,-0.469 -0.098,-0.637 h -0.02 l -0.941,-1.293 -0.621,0.211 c -0.16,0.105 -0.371,0.066 -0.559,-0.18 l -1.359,-1.75 c -1.27,1.711 -3.324,2.816 -5.652,2.816 -3.832,0 -6.961,-3.043 -6.961,-6.777 0,-2.652 1.578,-4.949 3.867,-6.06 v -1.559 c -0.078,0.039 -0.168,0.059 -0.234,0.082 -0.895,0.363 -0.953,0.527 -2.418,-0.293 l -1.293,-0.898 c -0.18,-0.078 -0.34,-0.227 -0.504,-0.188 m 4.441,3.484 c -1.945,1.07 -3.266,3.121 -3.266,5.453 0,3.441 2.883,6.254 6.43,6.254 2.191,0 4.113,-1.082 5.273,-2.727 l -0.063,-0.133 c -1.359,1.469 -2.895,2.422 -5.23,2.473 -2.91,0.051 -5.855,-2.473 -5.871,-5.797 -0.023,-2.145 0.992,-3.586 2.723,-4.613 v -0.902 m 0.004,0"
             style="fill:#ffffff;fill-opacity:1;fill-rule:evenodd;stroke:none"
             id="path33" />
        </g>
      </g>
    </g>
  </g>
</svg>
