<?xml version="1.0" encoding="UTF-8" standalone="no"?>
<!-- Created with Inkscape (http://www.inkscape.org/) -->

<svg
   xmlns:dc="http://purl.org/dc/elements/1.1/"
   xmlns:cc="http://creativecommons.org/ns#"
   xmlns:rdf="http://www.w3.org/1999/02/22-rdf-syntax-ns#"
   xmlns:svg="http://www.w3.org/2000/svg"
   xmlns="http://www.w3.org/2000/svg"
   xmlns:xlink="http://www.w3.org/1999/xlink"
   xmlns:sodipodi="http://sodipodi.sourceforge.net/DTD/sodipodi-0.dtd"
   xmlns:inkscape="http://www.inkscape.org/namespaces/inkscape"
   width="64"
   height="64"
   viewBox="0 0 16.933333 16.933333"
   version="1.1"
   id="svg4572"
   inkscape:version="0.92.2 2405546, 2018-03-11"
   sodipodi:docname="configure-debian.svg">
  <title
     id="title4611">Canvas icon theme</title>
  <defs
     id="defs4566">
    <linearGradient
       inkscape:collect="always"
       id="linearGradient856">
      <stop
         style="stop-color:#000000;stop-opacity:1;"
         offset="0"
         id="stop852" />
      <stop
         style="stop-color:#000000;stop-opacity:0;"
         offset="1"
         id="stop854" />
    </linearGradient>
    <linearGradient
       inkscape:collect="always"
       xlink:href="#linearGradient856"
       id="linearGradient858"
       x1="45.62793"
       y1="57.955078"
       x2="45.62793"
       y2="12.460938"
       gradientUnits="userSpaceOnUse" />
  </defs>
  <sodipodi:namedview
     id="base"
     pagecolor="#ffffff"
     bordercolor="#666666"
     borderopacity="1.0"
     inkscape:pageopacity="0.0"
     inkscape:pageshadow="2"
     inkscape:zoom="7.9195959"
     inkscape:cx="8.37369"
     inkscape:cy="19.225408"
     inkscape:document-units="px"
     inkscape:current-layer="layer1"
     showgrid="true"
     units="px"
     width="64px"
     showguides="true"
     inkscape:guide-bbox="true"
     inkscape:window-width="1920"
     inkscape:window-height="1018"
     inkscape:window-x="0"
     inkscape:window-y="0"
     inkscape:window-maximized="1"
     inkscape:snap-bbox="true"
     inkscape:bbox-nodes="true">
    <inkscape:grid
       type="xygrid"
       id="grid4582" />
    <sodipodi:guide
       position="1.0583333,15.875"
       orientation="0,1"
       id="guide4584"
       inkscape:locked="false" />
    <sodipodi:guide
       position="1.0583333,1.0583333"
       orientation="1,0"
       id="guide4586"
       inkscape:locked="false" />
    <sodipodi:guide
       position="15.875,15.875"
       orientation="1,0"
       id="guide4588"
       inkscape:locked="false" />
    <sodipodi:guide
       position="1.0583333,1.0583333"
       orientation="0,1"
       id="guide4590"
       inkscape:locked="false" />
  </sodipodi:namedview>
  <metadata
     id="metadata4569">
    <rdf:RDF>
      <cc:Work
         rdf:about="">
        <dc:format>image/svg+xml</dc:format>
        <dc:type
           rdf:resource="http://purl.org/dc/dcmitype/StillImage" />
        <dc:title>Canvas icon theme</dc:title>
        <cc:license
           rdf:resource="http://creativecommons.org/licenses/by-nc-sa/4.0/" />
        <dc:creator>
          <cc:Agent>
            <dc:title>Vince Liuice</dc:title>
          </cc:Agent>
        </dc:creator>
      </cc:Work>
      <cc:License
         rdf:about="http://creativecommons.org/licenses/by-nc-sa/4.0/">
        <cc:permits
           rdf:resource="http://creativecommons.org/ns#Reproduction" />
        <cc:permits
           rdf:resource="http://creativecommons.org/ns#Distribution" />
        <cc:requires
           rdf:resource="http://creativecommons.org/ns#Notice" />
        <cc:requires
           rdf:resource="http://creativecommons.org/ns#Attribution" />
        <cc:prohibits
           rdf:resource="http://creativecommons.org/ns#CommercialUse" />
        <cc:permits
           rdf:resource="http://creativecommons.org/ns#DerivativeWorks" />
        <cc:requires
           rdf:resource="http://creativecommons.org/ns#ShareAlike" />
      </cc:License>
    </rdf:RDF>
  </metadata>
  <g
     inkscape:label="Layer 1"
     inkscape:groupmode="layer"
     id="layer1"
     transform="translate(0,-280.06667)">
    <circle
       style="opacity:1;fill:#f6476b;fill-opacity:1;stroke:none;stroke-width:0.49136901;stroke-miterlimit:4;stroke-dasharray:none;stroke-opacity:0.03821656;paint-order:stroke markers fill"
       id="path13"
       cx="8.4666662"
       cy="288.53333"
       r="6.8791666" />
    <path
       style="opacity:0.25;fill:url(#linearGradient858);fill-opacity:1;stroke:none;stroke-width:1.85714281;stroke-miterlimit:4;stroke-dasharray:none;stroke-opacity:0.03821656;paint-order:stroke markers fill"
       d="M 49.123047 12.460938 A 40.5 40.5 0 0 1 51 24.5 A 40.5 40.5 0 0 1 33.255859 57.955078 A 26 26 0 0 0 58 32 A 26 26 0 0 0 49.123047 12.460938 z "
       transform="matrix(0.26458333,0,0,0.26458333,0,280.06667)"
       id="circle839" />
    <path
       style="display:inline;fill:#ffffff;fill-opacity:1;stroke-width:0.26458332"
       id="path2536"
       inkscape:connector-curvature="0"
       d="m 11.077469,287.92408 c 0.0085,0.22847 -0.06666,0.33949 -0.134649,0.5358 l -0.122278,0.0608 c -0.09995,0.19423 0.01006,0.12331 -0.06166,0.27773 -0.156216,0.13873 -0.473387,0.43395 -0.574942,0.46101 -0.07424,-8e-4 0.05021,-0.0876 0.06647,-0.12114 -0.208894,0.14335 -0.167661,0.21523 -0.4871954,0.30251 l -0.00929,-0.0208 c -0.7877198,0.37069 -1.8820089,-0.36378 -1.8676433,-1.36578 -0.00838,0.0635 -0.023808,0.0477 -0.041352,0.0732 -0.04064,-0.51546 0.2381144,-1.03321 0.7082818,-1.24493 0.4598649,-0.22753 0.9989688,-0.13428 1.3281488,0.17295 -0.1808041,-0.23697 -0.5410034,-0.48823 -0.9675727,-0.46496 -0.4180738,0.006 -0.8092803,0.27244 -0.9397835,0.56095 -0.2140905,0.13475 -0.2390521,0.51972 -0.3322913,0.59026 -0.1256791,0.92295 0.2361273,1.32153 0.8482379,1.79067 0.096078,0.0649 0.02708,0.0748 0.039872,0.12416 -0.2033193,-0.0951 -0.389421,-0.23887 -0.5426146,-0.41486 0.081331,0.11887 0.1689864,0.23443 0.2823745,0.32522 -0.1918745,-0.0648 -0.4480458,-0.4646 -0.5226562,-0.48086 0.3305089,0.59177 1.340728,1.03783 1.8699946,0.81646 -0.2449193,0.009 -0.5559335,0.005 -0.8309271,-0.0966 -0.1158345,-0.0595 -0.27272,-0.18251 -0.2446377,-0.20548 0.7220894,0.2696 1.4678172,0.20406 2.0925092,-0.29665 0.159055,-0.12387 0.332677,-0.33447 0.382892,-0.3373 -0.07556,0.11366 0.01304,0.0546 -0.04513,0.15498 0.158114,-0.25541 -0.06894,-0.10402 0.1636,-0.44104 l 0.08586,0.1182 c -0.03214,-0.2122 0.26336,-0.46961 0.233284,-0.80493 0.06781,-0.1025 0.07556,0.11045 0.0037,0.34629 0.09977,-0.26166 0.02634,-0.30373 0.05192,-0.51972 0.02753,0.0726 0.06412,0.1497 0.08274,0.22638 -0.06506,-0.25295 0.06648,-0.42581 0.0992,-0.57286 -0.03228,-0.0142 -0.100334,0.11178 -0.116031,-0.18686 0.0031,-0.12974 0.03626,-0.068 0.04916,-0.0999 -0.02538,-0.0147 -0.0922,-0.11414 -0.132768,-0.30487 0.02922,-0.045 0.07868,0.11621 0.118772,0.12274 -0.02581,-0.15159 -0.07017,-0.26724 -0.07206,-0.38364 -0.117257,-0.24493 -0.04149,0.0326 -0.136457,-0.10516 -0.12482,-0.38904 0.103454,-0.0903 0.118967,-0.26695 0.188932,0.27375 0.296643,0.69835 0.346289,0.87415 -0.03778,-0.21438 -0.09882,-0.42214 -0.173429,-0.62309 0.05758,0.0242 -0.09258,-0.44095 0.0748,-0.13286 -0.178636,-0.65674 -0.763889,-1.27046 -1.302436,-1.55832 0.06574,0.0602 0.148848,0.13589 0.119166,0.14781 -0.268006,-0.15934 -0.220906,-0.17192 -0.259298,-0.23926 -0.217972,-0.0888 -0.232535,0.007 -0.376754,2.2e-4 -0.4113345,-0.21826 -0.4905802,-0.19509 -0.8691251,-0.33164 l 0.017272,0.0806 c -0.2724405,-0.0908 -0.3174597,0.0342 -0.611831,2e-4 -0.01784,-0.0139 0.094376,-0.0507 0.1868577,-0.064 -0.2634537,0.0348 -0.2511617,-0.052 -0.5089402,0.009 0.063456,-0.0446 0.1307849,-0.0742 0.1984905,-0.11196 -0.2147529,0.013 -0.5129169,0.12501 -0.4209033,0.023 -0.3503593,0.1564 -0.9726827,0.37588 -1.3219116,0.70336 l -0.01096,-0.0734 c -0.1599969,0.19206 -0.6977849,0.57363 -0.7406242,0.8226 l -0.042816,0.01 c -0.083134,0.14099 -0.13712,0.30071 -0.2031304,0.44568 -0.1088368,0.18563 -0.1596201,0.0715 -0.1441217,0.10061 -0.2141728,0.43423 -0.3207537,0.79907 -0.4125785,1.09846 0.06544,0.0979 8.8e-4,0.58932 0.02628,0.98261 -0.1074272,1.94272 1.3634236,3.82879 2.9711889,4.26416 0.2356617,0.0845 0.5860162,0.0814 0.8840851,0.0897 -0.3515841,-0.10062 -0.3969913,-0.0533 -0.7396842,-0.17267 -0.2470993,-0.1165 -0.3011761,-0.24936 -0.4763066,-0.40133 l 0.069304,0.12247 c -0.3432547,-0.12138 -0.1996138,-0.15022 -0.4789627,-0.23864 l 0.07404,-0.0965 c -0.1112968,-0.008 -0.2947505,-0.18743 -0.3448689,-0.28682 l -0.1217992,0.005 c -0.1461985,-0.18 -0.2242169,-0.31022 -0.2184425,-0.41111 l -0.039352,0.0702 c -0.044512,-0.0765 -0.5381626,-0.67687 -0.2820817,-0.5371 -0.04756,-0.0434 -0.1108248,-0.0706 -0.179388,-0.19537 l 0.052104,-0.0595 c -0.1230265,-0.15859 -0.2267649,-0.36179 -0.2188209,-0.4295 0.065728,0.0887 0.1113072,0.10534 0.1565065,0.12058 -0.3112137,-0.77203 -0.3287033,-0.0425 -0.5642698,-0.78584 l 0.04976,-0.004 c -0.038104,-0.0578 -0.061472,-0.12009 -0.092111,-0.18146 l 0.021688,-0.21608 c -0.2239249,-0.25873 -0.062608,-1.10119 -0.030136,-1.56314 0.022128,-0.18779 0.186952,-0.3878 0.3120625,-0.70147 l -0.076216,-0.013 c 0.1458153,-0.2542 0.8323515,-1.0212 1.1504612,-0.98187 0.1540424,-0.19347 -0.030576,-2.1e-4 -0.060808,-0.0494 0.3384425,-0.35016 0.4448281,-0.24737 0.6732042,-0.31045 0.2461472,-0.14609 -0.2113497,0.0571 -0.094662,-0.0557 0.4258226,-0.10864 0.3016569,-0.24718 0.8570347,-0.30232 0.058624,0.0334 -0.1358904,0.0514 -0.1846841,0.0947 0.3546098,-0.17362 1.1223736,-0.134 1.6212865,0.0963 0.5784498,0.27055 1.2287678,1.0699 1.2544898,1.82196 l 0.02922,0.008 c -0.01479,0.29902 0.04577,0.64483 -0.0593,0.96239 l 0.07103,-0.15046" />
  </g>
</svg>
