<?xml version="1.0" encoding="UTF-8" standalone="no"?>
<!-- Created with Inkscape (http://www.inkscape.org/) -->

<svg
   xmlns:dc="http://purl.org/dc/elements/1.1/"
   xmlns:cc="http://creativecommons.org/ns#"
   xmlns:rdf="http://www.w3.org/1999/02/22-rdf-syntax-ns#"
   xmlns:svg="http://www.w3.org/2000/svg"
   xmlns="http://www.w3.org/2000/svg"
   xmlns:xlink="http://www.w3.org/1999/xlink"
   xmlns:sodipodi="http://sodipodi.sourceforge.net/DTD/sodipodi-0.dtd"
   xmlns:inkscape="http://www.inkscape.org/namespaces/inkscape"
   width="64"
   height="64"
   viewBox="0 0 16.933333 16.933333"
   version="1.1"
   id="svg4572"
   inkscape:version="0.92.2 2405546, 2018-03-11"
   sodipodi:docname="docky.svg">
  <title
     id="title4611">Canvas icon theme</title>
  <defs
     id="defs4566">
    <linearGradient
       inkscape:collect="always"
       id="linearGradient827">
      <stop
         style="stop-color:#66bcff;stop-opacity:1"
         offset="0"
         id="stop823" />
      <stop
         style="stop-color:#b29aff;stop-opacity:1"
         offset="1"
         id="stop825" />
    </linearGradient>
    <linearGradient
       inkscape:collect="always"
       xlink:href="#linearGradient827"
       id="linearGradient829"
       x1="13.229166"
       y1="297"
       x2="2.1166666"
       y2="280.06668"
       gradientUnits="userSpaceOnUse"
       gradientTransform="matrix(0.92857144,0,0,1.1304348,0.60476198,-37.634787)" />
    <clipPath
       clipPathUnits="userSpaceOnUse"
       id="clipPath864">
      <path
         style="opacity:1;fill:url(#linearGradient868);fill-opacity:1;stroke:none;stroke-width:0.54814512;stroke-miterlimit:4;stroke-dasharray:none;stroke-opacity:0.03921569;paint-order:stroke markers fill"
         d="m 8.4666665,281.65417 c 3.8110585,0 6.8791665,3.06811 6.8791665,6.87917 0,3.81106 -3.068108,6.87917 -6.8791665,6.87917 -3.8110583,0 -6.8791666,-3.06811 -6.8791666,-6.87917 0,-3.81106 3.0681083,-6.87917 6.8791666,-6.87917 z"
         id="path866"
         inkscape:connector-curvature="0" />
    </clipPath>
    <linearGradient
       inkscape:collect="always"
       xlink:href="#linearGradient827"
       id="linearGradient868"
       gradientUnits="userSpaceOnUse"
       gradientTransform="matrix(0.92857144,0,0,1.1304348,0.60476198,-37.634777)"
       x1="13.229166"
       y1="297"
       x2="2.1166666"
       y2="280.06668" />
    <clipPath
       clipPathUnits="userSpaceOnUse"
       id="clipPath874">
      <rect
         ry="6.8791666"
         y="281.65417"
         x="1.5874999"
         height="13.758333"
         width="13.758333"
         id="rect876"
         style="opacity:1;fill:url(#linearGradient878);fill-opacity:1;stroke:none;stroke-width:0.54814512;stroke-miterlimit:4;stroke-dasharray:none;stroke-opacity:0.03921569;paint-order:stroke markers fill" />
    </clipPath>
    <linearGradient
       inkscape:collect="always"
       xlink:href="#linearGradient827"
       id="linearGradient878"
       gradientUnits="userSpaceOnUse"
       gradientTransform="matrix(0.92857144,0,0,1.1304348,0.60476198,-37.634777)"
       x1="13.229166"
       y1="297"
       x2="2.1166666"
       y2="280.06668" />
  </defs>
  <sodipodi:namedview
     id="base"
     pagecolor="#ffffff"
     bordercolor="#666666"
     borderopacity="1.0"
     inkscape:pageopacity="0.0"
     inkscape:pageshadow="2"
     inkscape:zoom="3.959798"
     inkscape:cx="20.494015"
     inkscape:cy="37.959207"
     inkscape:document-units="px"
     inkscape:current-layer="layer1"
     showgrid="true"
     units="px"
     width="64px"
     showguides="true"
     inkscape:guide-bbox="true"
     inkscape:window-width="1920"
     inkscape:window-height="1021"
     inkscape:window-x="0"
     inkscape:window-y="29"
     inkscape:window-maximized="1"
     inkscape:snap-bbox="true"
     inkscape:bbox-nodes="true"
     inkscape:snap-bbox-edge-midpoints="false"
     inkscape:snap-nodes="false">
    <inkscape:grid
       type="xygrid"
       id="grid4582" />
    <sodipodi:guide
       position="1.0583333,15.875"
       orientation="0,1"
       id="guide4584"
       inkscape:locked="false" />
    <sodipodi:guide
       position="1.0583333,1.0583333"
       orientation="1,0"
       id="guide4586"
       inkscape:locked="false" />
    <sodipodi:guide
       position="15.875,15.875"
       orientation="1,0"
       id="guide4588"
       inkscape:locked="false" />
    <sodipodi:guide
       position="1.0583333,1.0583333"
       orientation="0,1"
       id="guide4590"
       inkscape:locked="false" />
    <sodipodi:guide
       position="8.4666665,8.4666665"
       orientation="0,1"
       id="guide822"
       inkscape:locked="false" />
    <sodipodi:guide
       position="8.4666665,8.4666665"
       orientation="1,0"
       id="guide824"
       inkscape:locked="false" />
  </sodipodi:namedview>
  <metadata
     id="metadata4569">
    <rdf:RDF>
      <cc:Work
         rdf:about="">
        <dc:format>image/svg+xml</dc:format>
        <dc:type
           rdf:resource="http://purl.org/dc/dcmitype/StillImage" />
        <dc:title>Canvas icon theme</dc:title>
        <cc:license
           rdf:resource="http://creativecommons.org/licenses/by-nc-sa/4.0/" />
        <dc:creator>
          <cc:Agent>
            <dc:title>Vince Liuice</dc:title>
          </cc:Agent>
        </dc:creator>
      </cc:Work>
      <cc:License
         rdf:about="http://creativecommons.org/licenses/by-nc-sa/4.0/">
        <cc:permits
           rdf:resource="http://creativecommons.org/ns#Reproduction" />
        <cc:permits
           rdf:resource="http://creativecommons.org/ns#Distribution" />
        <cc:requires
           rdf:resource="http://creativecommons.org/ns#Notice" />
        <cc:requires
           rdf:resource="http://creativecommons.org/ns#Attribution" />
        <cc:prohibits
           rdf:resource="http://creativecommons.org/ns#CommercialUse" />
        <cc:permits
           rdf:resource="http://creativecommons.org/ns#DerivativeWorks" />
        <cc:requires
           rdf:resource="http://creativecommons.org/ns#ShareAlike" />
      </cc:License>
    </rdf:RDF>
  </metadata>
  <g
     inkscape:label="Layer 1"
     inkscape:groupmode="layer"
     id="layer1"
     transform="translate(0,-280.06667)">
    <rect
       style="opacity:1;fill:url(#linearGradient829);fill-opacity:1;stroke:none;stroke-width:0.54814512;stroke-miterlimit:4;stroke-dasharray:none;stroke-opacity:0.03921569;paint-order:stroke markers fill"
       id="rect821"
       width="13.758333"
       height="13.758333"
       x="1.5874999"
       y="281.65417"
       ry="6.8791666" />
    <rect
       style="opacity:1;fill:#ccdfff;fill-opacity:1;stroke:none;stroke-width:0.52916664;stroke-miterlimit:4;stroke-dasharray:none;stroke-opacity:0.03921569;paint-order:stroke markers fill"
       id="rect850"
       width="1.3229166"
       height="1.3229166"
       x="4.4979167"
       y="292.76666"
       ry="0.13229166" />
    <rect
       ry="0.13229166"
       y="292.76666"
       x="6.7027774"
       height="1.3229166"
       width="1.3229166"
       id="rect852"
       style="opacity:1;fill:#ccdfff;fill-opacity:1;stroke:none;stroke-width:0.52916664;stroke-miterlimit:4;stroke-dasharray:none;stroke-opacity:0.03921569;paint-order:stroke markers fill" />
    <rect
       style="opacity:1;fill:#ccdfff;fill-opacity:1;stroke:none;stroke-width:0.52916664;stroke-miterlimit:4;stroke-dasharray:none;stroke-opacity:0.03921569;paint-order:stroke markers fill"
       id="rect854"
       width="1.3229166"
       height="1.3229166"
       x="8.9076376"
       y="292.76666"
       ry="0.13229166" />
    <rect
       ry="0.13229166"
       y="292.76666"
       x="11.1125"
       height="1.3229166"
       width="1.3229166"
       id="rect856"
       style="opacity:1;fill:#ccdfff;fill-opacity:1;stroke:none;stroke-width:0.52916664;stroke-miterlimit:4;stroke-dasharray:none;stroke-opacity:0.03921569;paint-order:stroke markers fill" />
    <path
       style="opacity:0.35;fill:#000000;fill-opacity:1;stroke:none;stroke-width:0.55379206;stroke-miterlimit:4;stroke-dasharray:none;stroke-opacity:0.03921569;paint-order:stroke markers fill"
       d="m 1.0583332,281.65417 c -0.14658662,0 -0.26458333,0.118 -0.26458333,0.26458 v 0.79375 H 16.66875 v -0.79375 c 0,-0.14658 -0.117997,-0.26458 -0.264584,-0.26458 z"
       id="rect839"
       inkscape:connector-curvature="0"
       clip-path="url(#clipPath874)" />
    <rect
       ry="0.26458803"
       y="281.91876"
       x="7.1201262"
       height="0.52917606"
       width="2.6458333"
       id="rect840"
       style="opacity:0.35;fill:#000000;fill-opacity:1;stroke:none;stroke-width:1.18326306;stroke-miterlimit:4;stroke-dasharray:none;stroke-opacity:0.03921569;paint-order:stroke markers fill" />
    <path
       style="opacity:0.35;fill:#ffffff;fill-opacity:1;stroke:none;stroke-width:0.5291664;stroke-miterlimit:4;stroke-dasharray:none;stroke-opacity:0.03921569;paint-order:stroke markers fill"
       clip-path="url(#clipPath864)"
       d="m 3.9687446,293.56042 h 8.9958434 c 0.293156,0 0.529162,0.11801 0.529162,0.26459 v 0.79375 c 0,0.14658 -0.236006,0.26458 -0.529162,0.26458 H 3.9687446 c -0.2931555,0 -0.5291615,-0.118 -0.5291615,-0.26458 v -0.79375 c 0,-0.14658 0.236006,-0.26459 0.5291615,-0.26459 z"
       id="rect848"
       inkscape:connector-curvature="0" />
    <path
       inkscape:connector-curvature="0"
       d="m 8.4666663,284.82917 c -0.438414,0 -0.79375,0.35534 -0.79375,0.79375 2.65e-4,0.33629 0.212196,0.63579 0.529167,0.74771 v 0.83979 h -1.190625 c -0.07329,0 -0.132292,0.059 -0.132292,0.13229 v 0.26458 c 0,0.0733 0.059,0.1323 0.132292,0.1323 h 1.190625 v 2.64583 c 0,0.14605 -0.118533,0.26458 -0.264583,0.26458 h -0.132292 c -0.198437,0 -0.787665,-0.22754 -1.1482915,-0.40772 -0.4455584,-0.22278 -0.4460875,-0.3339 -0.4164542,-0.38603 0.089694,-0.15848 0.2418292,-0.0265 0.2418292,-0.0265 0,0 0.05371,-0.23812 -0.2645834,-0.5027 -0.1063625,-0.0883 -0.3272895,-0.19999 -0.3968749,-0.26455 -0.1383771,-0.12806 -0.1359959,-0.26458 -0.2116667,-0.26458 -0.098425,0 -0.3175,0.48339 -0.3175,0.79375 0,0.30983 0,0.65379 0.2645833,0.79375 0,-0.12039 0.1060979,-0.26458 0.2645833,-0.18494 0.073554,0.037 0.427302,0.27225 0.8154458,0.5162 0.573617,0.36063 1.443302,0.47069 1.830387,0.99166 0.387086,-0.52097 1.256771,-0.63103 1.8303878,-0.99166 0.388144,-0.24395 0.745331,-0.47308 0.815446,-0.5162 0.129116,-0.0796 0.264583,-0.0796 0.264583,0.18494 0.264583,-0.13996 0.264583,-0.48392 0.264583,-0.79375 0,-0.31036 -0.245533,-0.79375 -0.343958,-0.79375 -0.07144,0 -0.04683,0.13652 -0.185208,0.26458 -0.06959,0.0646 -0.290513,0.17622 -0.396875,0.26459 -0.318294,0.26458 -0.264584,0.5027 -0.264584,0.5027 0,0 0.152136,-0.13202 0.24183,0.0265 0.02937,0.0521 0.0291,0.16325 -0.416455,0.38603 -0.3606268,0.18018 -0.9498538,0.40772 -1.1482908,0.40772 h -0.132292 c -0.14605,0 -0.264583,-0.11853 -0.264583,-0.26458 v -2.64583 h 1.190625 c 0.07329,0 0.1322908,-0.059 0.1322908,-0.1323 v -0.26458 c 0,-0.0733 -0.06085,-0.11642 -0.1322908,-0.13229 H 8.7312503 v -0.84032 c 0.3167059,-0.11192 0.5286369,-0.41116 0.5291659,-0.74718 0,-0.43841 -0.355335,-0.79375 -0.7937499,-0.79375 m 0,0.52917 c 0.14605,0 0.264584,0.11853 0.264584,0.26458 0,0.14605 -0.118534,0.26458 -0.264584,0.26458 -0.14605,0 -0.264583,-0.11853 -0.264583,-0.26458 0,-0.14605 0.118533,-0.26458 0.264583,-0.26458 z"
       style="opacity:0.35;fill:#000000;fill-opacity:1;stroke:none;stroke-width:0.26458332"
       id="path39" />
  </g>
</svg>
