<?xml version="1.0" encoding="UTF-8" standalone="no"?>
<!-- Created with Inkscape (http://www.inkscape.org/) -->

<svg
   xmlns:dc="http://purl.org/dc/elements/1.1/"
   xmlns:cc="http://creativecommons.org/ns#"
   xmlns:rdf="http://www.w3.org/1999/02/22-rdf-syntax-ns#"
   xmlns:svg="http://www.w3.org/2000/svg"
   xmlns="http://www.w3.org/2000/svg"
   xmlns:xlink="http://www.w3.org/1999/xlink"
   xmlns:sodipodi="http://sodipodi.sourceforge.net/DTD/sodipodi-0.dtd"
   xmlns:inkscape="http://www.inkscape.org/namespaces/inkscape"
   width="64"
   height="64"
   viewBox="0 0 16.933333 16.933333"
   version="1.1"
   id="svg4572"
   inkscape:version="0.92.2 2405546, 2018-03-11"
   sodipodi:docname="gimp.svg">
  <title
     id="title4611">Canvas icon theme</title>
  <defs
     id="defs4566">
    <linearGradient
       inkscape:collect="always"
       id="linearGradient881">
      <stop
         style="stop-color:#000000;stop-opacity:1;"
         offset="0"
         id="stop877" />
      <stop
         style="stop-color:#000000;stop-opacity:0;"
         offset="1"
         id="stop879" />
    </linearGradient>
    <linearGradient
       inkscape:collect="always"
       id="linearGradient868">
      <stop
         style="stop-color:#000000;stop-opacity:1;"
         offset="0"
         id="stop864" />
      <stop
         style="stop-color:#000000;stop-opacity:0;"
         offset="1"
         id="stop866" />
    </linearGradient>
    <linearGradient
       inkscape:collect="always"
       xlink:href="#linearGradient868"
       id="linearGradient870"
       x1="41.207745"
       y1="47.544922"
       x2="41.207745"
       y2="13.291016"
       gradientUnits="userSpaceOnUse" />
    <linearGradient
       inkscape:collect="always"
       xlink:href="#linearGradient881"
       id="linearGradient883"
       x1="34.600586"
       y1="50.400391"
       x2="34.600586"
       y2="45.085938"
       gradientUnits="userSpaceOnUse" />
  </defs>
  <sodipodi:namedview
     id="base"
     pagecolor="#ffffff"
     bordercolor="#666666"
     borderopacity="1.0"
     inkscape:pageopacity="0.0"
     inkscape:pageshadow="2"
     inkscape:zoom="5.6"
     inkscape:cx="-5.9924084"
     inkscape:cy="49.996453"
     inkscape:document-units="px"
     inkscape:current-layer="layer1"
     showgrid="true"
     units="px"
     width="64px"
     showguides="true"
     inkscape:guide-bbox="true"
     inkscape:window-width="817"
     inkscape:window-height="447"
     inkscape:window-x="809"
     inkscape:window-y="473"
     inkscape:window-maximized="0"
     inkscape:snap-bbox="true"
     inkscape:bbox-nodes="true"
     inkscape:snap-global="false">
    <inkscape:grid
       type="xygrid"
       id="grid4582" />
    <sodipodi:guide
       position="1.0583333,15.875"
       orientation="0,1"
       id="guide4584"
       inkscape:locked="false" />
    <sodipodi:guide
       position="1.0583333,1.0583333"
       orientation="1,0"
       id="guide4586"
       inkscape:locked="false" />
    <sodipodi:guide
       position="15.875,15.875"
       orientation="1,0"
       id="guide4588"
       inkscape:locked="false" />
    <sodipodi:guide
       position="1.0583333,1.0583333"
       orientation="0,1"
       id="guide4590"
       inkscape:locked="false" />
  </sodipodi:namedview>
  <metadata
     id="metadata4569">
    <rdf:RDF>
      <cc:Work
         rdf:about="">
        <dc:format>image/svg+xml</dc:format>
        <dc:type
           rdf:resource="http://purl.org/dc/dcmitype/StillImage" />
        <dc:title>Canvas icon theme</dc:title>
        <cc:license
           rdf:resource="http://creativecommons.org/licenses/by-nc-sa/4.0/" />
        <dc:creator>
          <cc:Agent>
            <dc:title>Vince Liuice</dc:title>
          </cc:Agent>
        </dc:creator>
      </cc:Work>
      <cc:License
         rdf:about="http://creativecommons.org/licenses/by-nc-sa/4.0/">
        <cc:permits
           rdf:resource="http://creativecommons.org/ns#Reproduction" />
        <cc:permits
           rdf:resource="http://creativecommons.org/ns#Distribution" />
        <cc:requires
           rdf:resource="http://creativecommons.org/ns#Notice" />
        <cc:requires
           rdf:resource="http://creativecommons.org/ns#Attribution" />
        <cc:prohibits
           rdf:resource="http://creativecommons.org/ns#CommercialUse" />
        <cc:permits
           rdf:resource="http://creativecommons.org/ns#DerivativeWorks" />
        <cc:requires
           rdf:resource="http://creativecommons.org/ns#ShareAlike" />
      </cc:License>
    </rdf:RDF>
  </metadata>
  <g
     inkscape:label="Layer 1"
     inkscape:groupmode="layer"
     id="layer1"
     transform="translate(0,-280.06667)">
    <g
       id="g895"
       transform="matrix(1.299987,0,0,1.2934671,-2.5456864,-84.622203)">
      <path
         style="display:inline;opacity:1;fill:#5c4e3c;fill-opacity:1;stroke:none;stroke-width:0.52916664;stroke-miterlimit:4;stroke-dasharray:none;stroke-opacity:1;enable-background:new"
         d="m 3.9350315,283.5832 c 0,0 -0.7552716,0 -0.7552716,0.75527 0,0 -0.040854,3.69466 0.7552716,5.28691 0.4776761,0.95535 3.0210892,3.02109 3.0210892,3.02109 h 3.021092 c 0,0 2.5434133,-2.06574 3.0210893,-3.02109 0.796128,-1.59225 0.755271,-5.28691 0.755271,-5.28691 0.106813,-0.74768 -0.755271,-0.75527 -0.755271,-0.75527 v 0 c 0,1.51055 -1.510546,1.51055 -1.510546,1.51055 H 5.4455774 c 0,0 -1.5105459,0 -1.5105459,-1.51055 z"
         id="path4492"
         inkscape:connector-curvature="0"
         sodipodi:nodetypes="cssccssccccc" />
      <g
         id="g4610"
         transform="matrix(0.26458333,0,0,0.26458333,-31.450276,219.92012)"
         style="display:inline;enable-background:new">
        <circle
           r="4"
           cy="259.32553"
           cx="159.86719"
           id="circle4612"
           style="opacity:1;fill:#ffffff;fill-opacity:1;stroke:none;stroke-width:1;stroke-linecap:round;stroke-linejoin:round;stroke-miterlimit:4;stroke-dasharray:none;stroke-opacity:1" />
        <path
           inkscape:connector-curvature="0"
           style="opacity:0.8;fill:#000000;fill-opacity:1;stroke:none;stroke-width:1;stroke-linecap:round;stroke-linejoin:round;stroke-miterlimit:4;stroke-dasharray:none;stroke-opacity:1"
           d="m 159.74122,257.33138 a 3.0000074,3.0000074 0 0 0 -2.87403,2.99415 3.0000074,3.0000074 0 0 0 3,3 3.0000074,3.0000074 0 0 0 3,-3 3.0000074,3.0000074 0 0 0 -2.85059,-2.99122 1.5000037,1.5000037 0 0 1 1.3506,1.49121 1.5000037,1.5000037 0 0 1 -1.50001,1.50001 1.5000037,1.5000037 0 0 1 -1.50001,-1.50001 1.5000037,1.5000037 0 0 1 1.37404,-1.49414 z"
           id="path4614" />
      </g>
      <g
         transform="matrix(0.26458333,0,0,0.26458333,-36.212776,219.92012)"
         id="g4600"
         style="display:inline;enable-background:new">
        <circle
           style="opacity:1;fill:#ffffff;fill-opacity:1;stroke:none;stroke-width:1;stroke-linecap:round;stroke-linejoin:round;stroke-miterlimit:4;stroke-dasharray:none;stroke-opacity:1"
           id="circle4500"
           cx="159.86719"
           cy="259.32553"
           r="4" />
        <path
           id="path4502"
           d="m 159.74122,257.33138 a 3.0000074,3.0000074 0 0 0 -2.87403,2.99415 3.0000074,3.0000074 0 0 0 3,3 3.0000074,3.0000074 0 0 0 3,-3 3.0000074,3.0000074 0 0 0 -2.85059,-2.99122 1.5000037,1.5000037 0 0 1 1.3506,1.49121 1.5000037,1.5000037 0 0 1 -1.50001,1.50001 1.5000037,1.5000037 0 0 1 -1.50001,-1.50001 1.5000037,1.5000037 0 0 1 1.37404,-1.49414 z"
           style="opacity:0.8;fill:#000000;fill-opacity:1;stroke:none;stroke-width:1;stroke-linecap:round;stroke-linejoin:round;stroke-miterlimit:4;stroke-dasharray:none;stroke-opacity:1"
           inkscape:connector-curvature="0" />
      </g>
      <path
         id="path859"
         transform="matrix(0.26458333,0,0,0.26458333,0,280.06667)"
         d="m 49.126953,13.291016 c 0,5.612828 -5.489556,5.705433 -5.675781,5.707031 A 20.5,24.499986 0 0 1 44,24.5 20.5,24.499986 0 0 1 30.398438,47.544922 h 7.310546 c 0,0 9.612579,-7.807197 11.417969,-11.417969 3.008988,-6.017953 2.855469,-19.982422 2.855469,-19.982422 0.403703,-2.825877 -2.855469,-2.853515 -2.855469,-2.853515 z"
         style="display:inline;opacity:0.25;fill:url(#linearGradient870);fill-opacity:1;stroke:none;stroke-width:1.99999988;stroke-miterlimit:4;stroke-dasharray:none;stroke-opacity:1;enable-background:new"
         inkscape:connector-curvature="0" />
      <path
         style="display:inline;fill:#252525;fill-opacity:1;fill-rule:evenodd;stroke:none;stroke-width:0.26458332px;stroke-linecap:butt;stroke-linejoin:miter;stroke-opacity:1;enable-background:new"
         d="m 6.9561207,292.64647 c 0,0 0.4424283,0.75527 1.510546,0.75527 1.068118,0 1.510546,-0.75527 1.510546,-0.75527 0,0 -0.377637,-0.75527 -1.510546,-0.75527 -1.1329088,0 -1.510546,0.75527 -1.510546,0.75527 z"
         id="path4494"
         inkscape:connector-curvature="0"
         sodipodi:nodetypes="cscsc" />
      <path
         id="path872"
         transform="matrix(0.26458333,0,0,0.26458333,0,280.06667)"
         d="m 34.537109,45.085938 a 5.5,4.9999999 0 0 1 0.07227,0.791015 5.5,4.9999999 0 0 1 -3.117187,4.501953 c 0.16695,0.01036 0.331943,0.02148 0.507812,0.02148 4.036981,0 5.708984,-2.855469 5.708984,-2.855469 0,0 -0.845689,-1.676973 -3.171875,-2.458984 z"
         style="display:inline;opacity:0.25;fill:url(#linearGradient883);fill-opacity:1;fill-rule:evenodd;stroke:none;stroke-width:0.99999994px;stroke-linecap:butt;stroke-linejoin:miter;stroke-opacity:1;enable-background:new"
         inkscape:connector-curvature="0" />
    </g>
  </g>
</svg>
