<?xml version="1.0" encoding="UTF-8" standalone="no"?>
<!-- Created with Inkscape (http://www.inkscape.org/) -->

<svg
   xmlns:dc="http://purl.org/dc/elements/1.1/"
   xmlns:cc="http://creativecommons.org/ns#"
   xmlns:rdf="http://www.w3.org/1999/02/22-rdf-syntax-ns#"
   xmlns:svg="http://www.w3.org/2000/svg"
   xmlns="http://www.w3.org/2000/svg"
   xmlns:sodipodi="http://sodipodi.sourceforge.net/DTD/sodipodi-0.dtd"
   xmlns:inkscape="http://www.inkscape.org/namespaces/inkscape"
   width="64"
   height="64"
   viewBox="0 0 16.933333 16.933333"
   version="1.1"
   id="svg4572"
   inkscape:version="0.92.3 (2405546, 2018-03-11)"
   sodipodi:docname="gnome-mines.svg">
  <title
     id="title4611">Canvas icon theme</title>
  <defs
     id="defs4566" />
  <sodipodi:namedview
     id="base"
     pagecolor="#ffffff"
     bordercolor="#666666"
     borderopacity="1.0"
     inkscape:pageopacity="0.0"
     inkscape:pageshadow="2"
     inkscape:zoom="5.6"
     inkscape:cx="16.927858"
     inkscape:cy="18.785647"
     inkscape:document-units="px"
     inkscape:current-layer="layer1"
     showgrid="true"
     units="px"
     width="64px"
     showguides="true"
     inkscape:guide-bbox="true"
     inkscape:window-width="730"
     inkscape:window-height="468"
     inkscape:window-x="703"
     inkscape:window-y="274"
     inkscape:window-maximized="0"
     inkscape:snap-bbox="true"
     inkscape:bbox-nodes="true"
     inkscape:snap-bbox-edge-midpoints="true">
    <inkscape:grid
       type="xygrid"
       id="grid4582" />
    <sodipodi:guide
       position="1.0583333,15.875"
       orientation="0,1"
       id="guide4584"
       inkscape:locked="false" />
    <sodipodi:guide
       position="1.0583333,1.0583333"
       orientation="1,0"
       id="guide4586"
       inkscape:locked="false" />
    <sodipodi:guide
       position="15.875,15.875"
       orientation="1,0"
       id="guide4588"
       inkscape:locked="false" />
    <sodipodi:guide
       position="1.0583333,1.0583333"
       orientation="0,1"
       id="guide4590"
       inkscape:locked="false" />
    <sodipodi:guide
       position="14.552083,8.4666665"
       orientation="0,1"
       id="guide822"
       inkscape:locked="false" />
    <sodipodi:guide
       position="8.4666665,8.4666665"
       orientation="1,0"
       id="guide824"
       inkscape:locked="false" />
  </sodipodi:namedview>
  <metadata
     id="metadata4569">
    <rdf:RDF>
      <cc:Work
         rdf:about="">
        <dc:format>image/svg+xml</dc:format>
        <dc:type
           rdf:resource="http://purl.org/dc/dcmitype/StillImage" />
        <dc:title>Canvas icon theme</dc:title>
        <cc:license
           rdf:resource="http://creativecommons.org/licenses/by-nc-sa/4.0/" />
        <dc:creator>
          <cc:Agent>
            <dc:title>Vince Liuice</dc:title>
          </cc:Agent>
        </dc:creator>
      </cc:Work>
      <cc:License
         rdf:about="http://creativecommons.org/licenses/by-nc-sa/4.0/">
        <cc:permits
           rdf:resource="http://creativecommons.org/ns#Reproduction" />
        <cc:permits
           rdf:resource="http://creativecommons.org/ns#Distribution" />
        <cc:requires
           rdf:resource="http://creativecommons.org/ns#Notice" />
        <cc:requires
           rdf:resource="http://creativecommons.org/ns#Attribution" />
        <cc:prohibits
           rdf:resource="http://creativecommons.org/ns#CommercialUse" />
        <cc:permits
           rdf:resource="http://creativecommons.org/ns#DerivativeWorks" />
        <cc:requires
           rdf:resource="http://creativecommons.org/ns#ShareAlike" />
      </cc:License>
    </rdf:RDF>
  </metadata>
  <g
     inkscape:label="Layer 1"
     inkscape:groupmode="layer"
     id="layer1"
     transform="translate(0,-280.06667)">
    <circle
       style="opacity:1;fill:#3a3a3a;fill-opacity:1;stroke:none;stroke-width:0.49136901;stroke-miterlimit:4;stroke-dasharray:none;stroke-opacity:0.03921569;paint-order:stroke markers fill"
       id="path13"
       cx="8.4666662"
       cy="288.53333"
       r="6.8791666" />
    <circle
       r="5.8208218"
       cy="288.53333"
       cx="8.4666662"
       id="circle864"
       style="opacity:0.1;fill:#ffffff;fill-opacity:1;stroke:none;stroke-width:0.41577297;stroke-miterlimit:4;stroke-dasharray:none;stroke-opacity:0.03921569;paint-order:stroke markers fill" />
    <g
       id="layer9"
       transform="matrix(0.52916004,0,0,0.52916004,-166.68594,382.19461)"
       style="fill:#ffffff;stroke-width:0.50000626">
      <path
         inkscape:connector-curvature="0"
         id="path21655"
         d="m 330.97,-185 c -0.56912,0 -0.93191,0.41811 -0.96875,0.96875 v 1 0.125 c 0.0521,0.50391 0.4829,0.90625 1,0.90625 0.12928,0 0.26142,-0.0169 0.375,-0.0625 0.34175,-0.13678 0.58591,-0.46581 0.625,-0.84375 v -0.125 V -184 c 0,-0.55187 -0.46213,-1 -1.0312,-1 z m -1.9375,2.3438 c -0.65858,0.23314 -1.2784,0.60022 -1.8125,1.0312 0.23112,0.16706 0.42497,0.36936 0.5625,0.625 0.004,0.007 -0.004,0.0239 0,0.0312 0.0623,0.12037 0.12161,0.241 0.15625,0.375 0.003,0.01 -0.002,0.0216 0,0.0312 0.0326,0.13504 0.0625,0.29248 0.0625,0.4375 0,0.12728 -0.007,0.25498 -0.0312,0.375 -0.0241,0.12002 -0.0791,0.23346 -0.125,0.34375 -0.27515,0.66175 -0.90548,1.125 -1.6562,1.125 -0.35885,0 -0.65601,-0.0982 -0.9375,-0.28125 -0.0403,0.11408 -0.1,0.22149 -0.125,0.34375 -0.002,0.009 0.002,0.0219 0,0.0312 -0.037,0.1856 -0.0743,0.37116 -0.0937,0.5625 -10e-4,0.0108 0.001,0.0204 0,0.0312 -0.0186,0.19192 -0.0313,0.39697 -0.0313,0.59375 0,0.0103 -5e-5,0.0209 0,0.0312 -5e-5,0.0103 0,0.0209 0,0.0312 0.002,0.186 0.0128,0.38092 0.0312,0.5625 0.002,0.0208 -0.002,0.0417 0,0.0625 0.0202,0.18044 0.0579,0.35601 0.0937,0.53125 0.0333,0.17288 0.0761,0.3338 0.125,0.5 0.37098,-0.21511 0.79417,-0.29869 1.0625,-0.3125 0.36227,-0.0186 0.70042,0.0872 0.96875,0.28125 0.26833,0.1941 0.46966,0.45035 0.59375,0.78125 0.0414,0.10918 0.0721,0.22453 0.0937,0.34375 0.025,0.12858 0.0312,0.23843 0.0312,0.375 0,0.50655 -0.41487,1.1735 -0.71875,1.5 0.12312,0.0962 0.24313,0.19309 0.375,0.28125 0.15756,0.10534 0.30107,0.22204 0.46875,0.3125 0.23804,0.12931 0.49388,0.2471 0.75,0.34375 0.0489,0.0183 0.1032,0.0226 0.15625,0.0312 -0.0141,-0.0688 -0.0312,-0.14701 -0.0312,-0.21875 0,-0.79471 0.89543,-1.4375 2,-1.4375 1.10457,0 2,0.64279 2,1.4375 0,0.0717 -0.0172,0.14996 -0.0312,0.21875 0.30066,-0.10342 0.59888,-0.22667 0.875,-0.375 0.21316,-0.11255 0.39696,-0.23857 0.59375,-0.375 0.061,-0.0429 0.12821,-0.0799 0.1875,-0.125 0.0468,-0.0352 0.0796,-0.0875 0.125,-0.125 -0.14238,-0.11092 -0.25033,-0.22403 -0.34375,-0.34375 -0.18962,-0.2371 -0.30041,-0.49522 -0.34375,-0.75 -0.0222,-0.12758 -0.0312,-0.24836 -0.0312,-0.375 0,-0.24256 0.0553,-0.48133 0.125,-0.6875 0.003,-0.009 -0.003,-0.0222 0,-0.0312 0.0379,-0.10666 0.0703,-0.18709 0.125,-0.28125 0.0556,-0.0932 0.11637,-0.17099 0.1875,-0.25 0.0743,-0.0874 0.15935,-0.14968 0.25,-0.21875 0.16836,-0.12827 0.34648,-0.22642 0.5625,-0.28125 0.10801,-0.0274 0.22594,-0.0559 0.34375,-0.0625 0.28125,-0.0156 0.75402,0.0974 1.125,0.3125 0.0452,-0.15684 0.0937,-0.30597 0.125,-0.46875 0.0359,-0.17524 0.0735,-0.35081 0.0937,-0.53125 0.002,-0.0208 -0.002,-0.0417 0,-0.0625 0.0184,-0.18158 0.0294,-0.3765 0.0312,-0.5625 0,-0.22888 -0.005,-0.46609 -0.0312,-0.6875 -0.0194,-0.19134 -0.0568,-0.3769 -0.0937,-0.5625 -0.002,-0.009 0.002,-0.0219 0,-0.0312 -0.0271,-0.13223 -0.0812,-0.25162 -0.125,-0.375 -0.28149,0.18314 -0.57865,0.28125 -0.9375,0.28125 -0.50051,0 -0.95325,-0.1976 -1.2812,-0.53125 -0.082,-0.0834 -0.15361,-0.18316 -0.21875,-0.28125 -0.19538,-0.29426 -0.31245,-0.6494 -0.31245,-1.0312 0,-0.31038 0.0867,-0.5964 0.21875,-0.84375 0.0661,-0.12481 0.12769,-0.23753 0.21875,-0.34375 0.0928,-0.10468 0.19694,-0.19772 0.3125,-0.28125 -0.53426,-0.43251 -1.1219,-0.80164 -1.7812,-1.0312 0.014,0.0688 0.0312,0.14705 0.0312,0.21875 0,0.79471 -0.89543,1.4375 -2,1.4375 -0.69036,0 -1.2968,-0.24266 -1.6562,-0.625 -0.0719,-0.0765 -0.1369,-0.16399 -0.1875,-0.25 -0.10116,-0.17202 -0.1562,-0.36382 -0.1562,-0.5625 0,-0.0717 0.0171,-0.14995 0.0312,-0.21875 z m -4.3438,0.6875 c -0.24763,0.0619 -0.47499,0.22695 -0.625,0.46875 -0.30004,0.48362 -0.15645,1.1153 0.3125,1.4062 l 0.8125,0.5 0.3125,0.1875 c 0.12661,0.0462 0.26354,0.0937 0.40625,0.0937 0.15317,0 0.30624,-0.0409 0.4375,-0.0937 0.13126,-0.0529 0.24532,-0.1249 0.34375,-0.21875 0.19685,-0.1877 0.3125,-0.43829 0.3125,-0.71875 0,-0.29531 -0.12807,-0.59978 -0.34375,-0.78125 l -0.375,-0.21875 -0.84375,-0.5 c -0.23448,-0.14548 -0.50237,-0.18686 -0.75,-0.125 z m 12.25,0 c -0.12745,0.0192 -0.25776,0.0523 -0.375,0.125 l -0.84375,0.5 -0.375,0.21875 c -0.0111,0.009 -0.0206,0.0215 -0.0312,0.0312 -0.21573,0.18147 -0.31255,0.42344 -0.31255,0.71875 0,0.28046 0.11565,0.53105 0.3125,0.71875 0.0984,0.0939 0.21249,0.16589 0.34375,0.21875 0.13126,0.0529 0.28433,0.0937 0.4375,0.0937 0.14271,0 0.27964,-0.0163 0.40625,-0.0625 l 0.3125,-0.1875 0.8125,-0.5 c 0.46895,-0.29093 0.61254,-0.92263 0.3125,-1.4062 -0.22501,-0.36271 -0.61765,-0.52633 -1,-0.46875 z m -5.9375,2.9688 c 1.1046,0 2,0.89543 2,2 0,1.10457 -0.89543,2 -2,2 -0.55228,0 -1.0443,-0.23182 -1.4062,-0.59375 -0.0905,-0.0905 -0.17812,-0.17485 -0.25,-0.28125 -0.21565,-0.3192 -0.34375,-0.71079 -0.34375,-1.125 0,-0.13807 0.005,-0.27605 0.0312,-0.40625 0.18654,-0.91137 1.0023,-1.5938 1.9688,-1.5938 z m 0,1 c -0.41511,0 -0.75472,0.26608 -0.90625,0.625 -0.0506,0.11964 -0.0937,0.23693 -0.0937,0.375 0,0.55231 0.44651,1 1,1 0.55349,0 1,-0.44769 1,-1 0,-0.55231 -0.44651,-1 -1,-1 z m -5.0938,3.3438 c -0.2334,0.0254 -0.29465,0.0845 -0.40625,0.125 l -0.21875,0.125 -0.8125,0.5 c -0.46895,0.29093 -0.61254,0.92263 -0.3125,1.4062 0.30002,0.48361 0.9373,0.63471 1.4062,0.34375 l 0.8125,-0.5 0.28125,-0.1875 c 0.13602,-0.14307 0.26258,-0.30302 0.3125,-0.5 0.0187,-0.0631 0.0312,-0.11894 0.0312,-0.1875 0,-0.15445 -0.0329,-0.29188 -0.0937,-0.4375 -0.0516,-0.12933 -0.12846,-0.23976 -0.21875,-0.34375 -0.0977,-0.1089 -0.21341,-0.22396 -0.34375,-0.28125 -0.13034,-0.0573 -0.2853,-0.0791 -0.4375,-0.0625 z m 10.219,0.0625 c -0.5868,0 -1.0625,0.48088 -1.0625,1.0625 0,0.27422 0.0767,0.474 0.25,0.65625 l 0.3125,0.21875 0.8125,0.5 c 0.46895,0.29096 1.1062,0.13986 1.4062,-0.34375 0.30004,-0.48362 0.15645,-1.1153 -0.3125,-1.4062 l -0.8125,-0.5 c -0.0715,-0.0421 -0.13904,-0.0884 -0.21875,-0.125 -0.1116,-0.0401 -0.24973,-0.0625 -0.375,-0.0625 z m -5.125,2.5938 c -0.12928,0 -0.25474,0.0162 -0.375,0.0625 -0.12026,0.0463 -0.24587,0.13599 -0.34375,0.21875 -0.19575,0.16553 -0.31769,0.37305 -0.34375,0.625 v 0.125 0.96875 c 0,0.55187 0.46213,1 1.0312,1 0.56907,0 1.0312,-0.44813 1.0312,-1 v -0.96875 -0.125 c -0.0522,-0.50391 -0.4829,-0.90625 -1,-0.90625 z"
         style="fill:#ffffff;stroke-width:0.50000626" />
    </g>
  </g>
</svg>
