<?xml version="1.0" encoding="UTF-8" standalone="no"?>
<!-- Created with Inkscape (http://www.inkscape.org/) -->

<svg
   xmlns:dc="http://purl.org/dc/elements/1.1/"
   xmlns:cc="http://creativecommons.org/ns#"
   xmlns:rdf="http://www.w3.org/1999/02/22-rdf-syntax-ns#"
   xmlns:svg="http://www.w3.org/2000/svg"
   xmlns="http://www.w3.org/2000/svg"
   xmlns:xlink="http://www.w3.org/1999/xlink"
   xmlns:sodipodi="http://sodipodi.sourceforge.net/DTD/sodipodi-0.dtd"
   xmlns:inkscape="http://www.inkscape.org/namespaces/inkscape"
   width="64"
   height="64"
   viewBox="0 0 16.933333 16.933333"
   version="1.1"
   id="svg4572"
   inkscape:version="0.92.3 (2405546, 2018-03-11)"
   sodipodi:docname="gnome-2048.svg">
  <title
     id="title4611">Canvas icon theme</title>
  <defs
     id="defs4566">
    <linearGradient
       inkscape:collect="always"
       id="linearGradient868">
      <stop
         style="stop-color:#000000;stop-opacity:1;"
         offset="0"
         id="stop864" />
      <stop
         style="stop-color:#000000;stop-opacity:0;"
         offset="1"
         id="stop866" />
    </linearGradient>
    <linearGradient
       gradientTransform="matrix(0.26458333,0,0,0.26458333,5.5624997e-8,280.06666)"
       inkscape:collect="always"
       xlink:href="#linearGradient868"
       id="linearGradient840"
       x1="46.167969"
       y1="57"
       x2="46.167969"
       y2="27.345703"
       gradientUnits="userSpaceOnUse" />
  </defs>
  <sodipodi:namedview
     id="base"
     pagecolor="#ffffff"
     bordercolor="#666666"
     borderopacity="1.0"
     inkscape:pageopacity="0.0"
     inkscape:pageshadow="2"
     inkscape:zoom="2.8"
     inkscape:cx="38.612657"
     inkscape:cy="26.251051"
     inkscape:document-units="px"
     inkscape:current-layer="layer1"
     showgrid="true"
     units="px"
     width="64px"
     showguides="true"
     inkscape:guide-bbox="true"
     inkscape:window-width="732"
     inkscape:window-height="468"
     inkscape:window-x="690"
     inkscape:window-y="142"
     inkscape:window-maximized="0"
     inkscape:snap-bbox="true"
     inkscape:bbox-nodes="true"
     inkscape:snap-bbox-edge-midpoints="true"
     inkscape:snap-nodes="true">
    <inkscape:grid
       type="xygrid"
       id="grid4582" />
    <sodipodi:guide
       position="1.0583333,15.875"
       orientation="0,1"
       id="guide4584"
       inkscape:locked="false" />
    <sodipodi:guide
       position="1.0583333,1.0583333"
       orientation="1,0"
       id="guide4586"
       inkscape:locked="false" />
    <sodipodi:guide
       position="15.875,15.875"
       orientation="1,0"
       id="guide4588"
       inkscape:locked="false" />
    <sodipodi:guide
       position="1.0583333,1.0583333"
       orientation="0,1"
       id="guide4590"
       inkscape:locked="false" />
    <sodipodi:guide
       position="8.4666665,8.4666665"
       orientation="0,1"
       id="guide822"
       inkscape:locked="false" />
    <sodipodi:guide
       position="8.4666665,8.4666665"
       orientation="1,0"
       id="guide824"
       inkscape:locked="false" />
  </sodipodi:namedview>
  <metadata
     id="metadata4569">
    <rdf:RDF>
      <cc:Work
         rdf:about="">
        <dc:format>image/svg+xml</dc:format>
        <dc:type
           rdf:resource="http://purl.org/dc/dcmitype/StillImage" />
        <dc:title>Canvas icon theme</dc:title>
        <cc:license
           rdf:resource="http://creativecommons.org/licenses/by-nc-sa/4.0/" />
        <dc:creator>
          <cc:Agent>
            <dc:title>Vince Liuice</dc:title>
          </cc:Agent>
        </dc:creator>
      </cc:Work>
      <cc:License
         rdf:about="http://creativecommons.org/licenses/by-nc-sa/4.0/">
        <cc:permits
           rdf:resource="http://creativecommons.org/ns#Reproduction" />
        <cc:permits
           rdf:resource="http://creativecommons.org/ns#Distribution" />
        <cc:requires
           rdf:resource="http://creativecommons.org/ns#Notice" />
        <cc:requires
           rdf:resource="http://creativecommons.org/ns#Attribution" />
        <cc:prohibits
           rdf:resource="http://creativecommons.org/ns#CommercialUse" />
        <cc:permits
           rdf:resource="http://creativecommons.org/ns#DerivativeWorks" />
        <cc:requires
           rdf:resource="http://creativecommons.org/ns#ShareAlike" />
      </cc:License>
    </rdf:RDF>
  </metadata>
  <g
     inkscape:label="Layer 1"
     inkscape:groupmode="layer"
     id="layer1"
     transform="translate(0,-280.06667)">
    <rect
       style="opacity:1;fill:#cb7148;fill-opacity:1;stroke:none;stroke-width:0.2362351;stroke-linecap:round;stroke-linejoin:round;stroke-miterlimit:4;stroke-dasharray:none;stroke-opacity:0.09803922;paint-order:markers stroke fill"
       id="rect841-3"
       width="13.229166"
       height="13.229166"
       x="1.8520834"
       y="281.91876"
       rx="0.79374945"
       ry="0.79374105" />
    <rect
       ry="0.26459271"
       rx="0.26457828"
       y="282.71249"
       x="2.6458378"
       height="11.641657"
       width="11.641657"
       id="rect848"
       style="opacity:1;fill:#ffffff;fill-opacity:1;stroke:none;stroke-width:0.2362351;stroke-linecap:round;stroke-linejoin:round;stroke-miterlimit:4;stroke-dasharray:none;stroke-opacity:0.09803922;paint-order:markers stroke fill" />
    <path
       style="color:#000000;clip-rule:nonzero;display:inline;overflow:visible;visibility:visible;opacity:1;isolation:auto;mix-blend-mode:normal;color-interpolation:sRGB;color-interpolation-filters:linearRGB;solid-color:#000000;solid-opacity:1;fill:#dee642;fill-opacity:1;fill-rule:nonzero;stroke:none;stroke-width:0;stroke-linecap:butt;stroke-linejoin:round;stroke-miterlimit:5.19999981;stroke-dasharray:none;stroke-dashoffset:0;stroke-opacity:1;color-rendering:auto;image-rendering:auto;shape-rendering:auto;text-rendering:auto;enable-background:accumulate"
       d="M 3.8931555,283.2417 C 3.495298,283.2417 3.175,283.56207 3.175,283.95986 v 3.59081 c 0,0.39785 0.320298,0.71808 0.7181555,0.71808 h 3.5907751 c 0.3978573,0 0.7181526,-0.32023 0.7181526,-0.71808 v -3.59081 c 0,-0.39779 -0.3202953,-0.71816 -0.7181526,-0.71816 z m 1.6817731,0.83809 c 0.8245305,0 1.2048716,0.42946 1.2048716,0.98744 0,0.67642 -0.6618801,1.28886 -1.3086686,1.95047 h 1.3774 v 0.53297 H 4.4934862 v -0.38012 c 0.1826823,-0.17278 0.3905824,-0.35055 0.6473218,-0.61725 0.4937313,-0.51831 1.031646,-1.01234 1.031646,-1.44677 0,-0.27648 -0.1630524,-0.44892 -0.5975254,-0.44892 -0.3456119,0 -0.6218496,0.13807 -0.9082142,0.26164 l -0.1781439,-0.52881 c 0.2369784,-0.1233 0.6222406,-0.31065 1.0863496,-0.31065 z"
       id="rect4136"
       inkscape:connector-curvature="0" />
    <path
       style="color:#000000;clip-rule:nonzero;display:inline;overflow:visible;visibility:visible;opacity:1;isolation:auto;mix-blend-mode:normal;color-interpolation:sRGB;color-interpolation-filters:linearRGB;solid-color:#000000;solid-opacity:1;fill:#56c55c;fill-opacity:1;fill-rule:nonzero;stroke:none;stroke-width:0;stroke-linecap:butt;stroke-linejoin:round;stroke-miterlimit:5.19999981;stroke-dasharray:none;stroke-dashoffset:0;stroke-opacity:1;color-rendering:auto;image-rendering:auto;shape-rendering:auto;text-rendering:auto;enable-background:accumulate"
       d="m 3.89316,288.79792 c -0.3978572,0 -0.718154,0.32028 -0.718154,0.71813 v 3.59074 c 0,0.39791 0.3202968,0.71822 0.718154,0.71822 h 3.5907692 c 0.3978596,0 0.718154,-0.32031 0.718154,-0.71822 v -3.59074 c 0,-0.39785 -0.3202944,-0.71813 -0.718154,-0.71813 z m 1.8206338,0.88226 h 0.8191425 v 2.15299 H 7.1304642 V 292.376 H 6.5329363 v 0.73079 H 5.9255925 V 292.376 H 4.2816929 v -0.42918 z m 0.2117987,0.66201 -0.068732,0.14791 -0.8493039,1.34304 h 0.9180315 v -1.34304 z"
       id="rect4136-4"
       inkscape:connector-curvature="0" />
    <path
       style="color:#000000;clip-rule:nonzero;display:inline;overflow:visible;visibility:visible;opacity:1;isolation:auto;mix-blend-mode:normal;color-interpolation:sRGB;color-interpolation-filters:linearRGB;solid-color:#000000;solid-opacity:1;fill:#f19d1e;fill-opacity:1;fill-rule:nonzero;stroke:none;stroke-width:0;stroke-linecap:butt;stroke-linejoin:round;stroke-miterlimit:5.19999981;stroke-dasharray:none;stroke-dashoffset:0;stroke-opacity:1;color-rendering:auto;image-rendering:auto;shape-rendering:auto;text-rendering:auto;enable-background:accumulate"
       d="m 9.4494036,288.79792 c -0.3978563,0 -0.7181538,0.32028 -0.7181538,0.71813 v 3.59081 c 0,0.39778 0.3202975,0.71815 0.7181538,0.71815 h 3.5907784 c 0.397857,0 0.718151,-0.32037 0.718151,-0.71815 v -3.59081 c 0,-0.39785 -0.320294,-0.71813 -0.718151,-0.71813 z m 1.7498014,0.83727 c 0.844283,0 1.229422,0.34563 1.229422,0.88372 0,0.27148 -0.147962,0.4744 -0.399755,0.67192 0.409796,0.222 0.592617,0.54297 0.592617,0.88851 0,0.53334 -0.468848,1.07665 -1.392128,1.07665 -0.814654,0 -1.4173714,-0.42012 -1.4173714,-1.03239 0,-0.3605 0.2371704,-0.70577 0.5877074,-0.918 -0.325861,-0.222 -0.394844,-0.52371 -0.394844,-0.69645 0,-0.47893 0.429068,-0.87396 1.194352,-0.87396 z m 0,0.54359 c -0.335736,0 -0.562461,0.19247 -0.562461,0.38007 0,0.28146 0.409349,0.40501 0.695715,0.48386 0.325863,-0.18263 0.474094,-0.2963 0.474094,-0.45928 0,-0.27174 -0.286421,-0.40465 -0.607348,-0.40465 z m -0.0638,1.17972 c -0.444357,0.12331 -0.70132,0.40509 -0.70132,0.67179 0,0.28638 0.301427,0.56247 0.819846,0.56247 0.469042,0 0.740597,-0.25151 0.740597,-0.54287 0,-0.39486 -0.395013,-0.57295 -0.859123,-0.69139 z"
       id="rect4136-0"
       inkscape:connector-curvature="0" />
    <path
       inkscape:connector-curvature="0"
       style="opacity:0.25;fill:url(#linearGradient840);fill-opacity:1;stroke:none;stroke-width:0.2362351;stroke-linecap:round;stroke-linejoin:round;stroke-miterlimit:4;stroke-dasharray:none;stroke-opacity:0.09803922;paint-order:markers stroke fill"
       d="m 15.081249,287.30187 a 11.90625,11.90625 0 0 1 -5.7319487,7.84604 h 4.9381987 c 0.439738,0 0.79375,-0.35402 0.79375,-0.79375 z"
       id="rect829" />
  </g>
</svg>
