<?xml version="1.0" encoding="UTF-8" standalone="no"?>
<!-- Created with Inkscape (http://www.inkscape.org/) -->

<svg
   xmlns:dc="http://purl.org/dc/elements/1.1/"
   xmlns:cc="http://creativecommons.org/ns#"
   xmlns:rdf="http://www.w3.org/1999/02/22-rdf-syntax-ns#"
   xmlns:svg="http://www.w3.org/2000/svg"
   xmlns="http://www.w3.org/2000/svg"
   xmlns:sodipodi="http://sodipodi.sourceforge.net/DTD/sodipodi-0.dtd"
   xmlns:inkscape="http://www.inkscape.org/namespaces/inkscape"
   width="64"
   height="64"
   viewBox="0 0 16.933333 16.933334"
   version="1.1"
   id="svg8"
   inkscape:version="0.92.2 2405546, 2018-03-11"
   sodipodi:docname="chrome.svg">
  <defs
     id="defs2">
    <linearGradient
       id="e"
       gradientUnits="userSpaceOnUse"
       x1="409.65225"
       x2="409.65225"
       y1="546.11548"
       y2="499.85736">
      <stop
         offset="0"
         stop-color="#79a8ca"
         id="stop22" />
      <stop
         offset="1"
         stop-color="#9ecbda"
         id="stop24" />
    </linearGradient>
  </defs>
  <sodipodi:namedview
     id="base"
     pagecolor="#ffffff"
     bordercolor="#666666"
     borderopacity="1.0"
     inkscape:pageopacity="0.0"
     inkscape:pageshadow="2"
     inkscape:zoom="5.6"
     inkscape:cx="15.903916"
     inkscape:cy="37.599435"
     inkscape:document-units="mm"
     inkscape:current-layer="layer1"
     showgrid="true"
     units="px"
     inkscape:window-width="1920"
     inkscape:window-height="1021"
     inkscape:window-x="0"
     inkscape:window-y="29"
     inkscape:window-maximized="1"
     inkscape:snap-bbox="true"
     inkscape:snap-bbox-edge-midpoints="true"
     inkscape:snap-bbox-midpoints="true"
     inkscape:bbox-nodes="true">
    <inkscape:grid
       type="xygrid"
       id="grid3713" />
  </sodipodi:namedview>
  <metadata
     id="metadata5">
    <rdf:RDF>
      <cc:Work
         rdf:about="">
        <dc:format>image/svg+xml</dc:format>
        <dc:type
           rdf:resource="http://purl.org/dc/dcmitype/StillImage" />
        <dc:title></dc:title>
      </cc:Work>
    </rdf:RDF>
  </metadata>
  <g
     inkscape:label="Layer 1"
     inkscape:groupmode="layer"
     id="layer1"
     transform="translate(0,-280.06663)">
    <g
       transform="matrix(0.28961772,0,0,0.28961772,-109.84912,136.90377)"
       id="g54">
      <rect
         style="fill:url(#e)"
         height="45.129883"
         ry="22.564941"
         width="45.12989"
         x="385.95911"
         y="500.98563"
         id="rect32" />
      <path
         style="opacity:0.8;fill:#649cc1"
         inkscape:connector-curvature="0"
         d="m 409.08535,512.5047 c -0.3107,0 -0.56134,0.25064 -0.56134,0.56134 0,0.3107 0.25064,0.56134 0.56134,0.56134 h 20.25463 c 0.0409,0 0.0776,-0.0149 0.11599,-0.0231 l 0.27553,-0.74227 -1.0178,-0.35722 z"
         id="path34" />
      <g
         style="fill-rule:evenodd"
         id="g46">
        <path
           style="fill:#0f9d58;fill-opacity:1"
           inkscape:connector-curvature="0"
           d="m 389.52659,509.29903 c -2.97437,3.96679 -4.75516,8.96416 -4.75516,14.32577 0,13.15893 10.59366,23.67835 23.75258,23.67835 l 8.3134,-17.02762 -15.43918,-3.16207 z"
           id="path38" />
        <path
           style="fill:#ffcd40;fill-opacity:1"
           inkscape:connector-curvature="0"
           d="m 409.71164,512.86192 7.12577,17.33938 -8.3134,17.10185 c 13.15892,0 23.75257,-10.59365 23.75257,-23.75257 0,-3.85418 -0.9287,-7.47634 -2.54458,-10.68866 z"
           id="path40" />
        <path
           style="fill:#db4437;fill-opacity:1"
           inkscape:connector-curvature="0"
           d="m 408.51937,499.798 c -7.79731,0 -14.67185,3.73682 -18.99742,9.50567 l 11.87164,17.80979 15.43918,3.08784 -7.12578,-17.33938 h 20.02037 C 425.82632,505.10676 417.8241,499.798 408.51937,499.798 Z"
           id="path44" />
      </g>
      <path
         style="fill:#f2f6f7;fill-opacity:1"
         inkscape:connector-curvature="0"
         d="m 408.57143,512.79801 c 6.09399,0 11,4.906 11,11 0,6.09399 -4.90601,10.99999 -11,10.99999 -6.094,0 -11,-4.906 -11,-10.99999 0,-6.094 4.906,-11 11,-11 z"
         id="path50" />
      <path
         style="fill:#2566d3;fill-opacity:1"
         inkscape:connector-curvature="0"
         d="m 408.57143,515.298 h 10e-6 c 4.70899,0 8.49999,3.79099 8.49999,8.5 0,4.709 -3.791,8.5 -8.49999,8.5 h -10e-6 c -4.70901,0 -8.5,-3.791 -8.5,-8.5 0,-4.70901 3.79099,-8.5 8.5,-8.5 z"
         id="path52" />
    </g>
  </g>
</svg>
