<?xml version="1.0" encoding="UTF-8" standalone="no"?>
<!-- Created with Inkscape (http://www.inkscape.org/) -->

<svg
   xmlns:dc="http://purl.org/dc/elements/1.1/"
   xmlns:cc="http://creativecommons.org/ns#"
   xmlns:rdf="http://www.w3.org/1999/02/22-rdf-syntax-ns#"
   xmlns:svg="http://www.w3.org/2000/svg"
   xmlns="http://www.w3.org/2000/svg"
   xmlns:sodipodi="http://sodipodi.sourceforge.net/DTD/sodipodi-0.dtd"
   xmlns:inkscape="http://www.inkscape.org/namespaces/inkscape"
   width="64"
   height="64"
   viewBox="0 0 16.933333 16.933333"
   version="1.1"
   id="svg4572"
   inkscape:version="0.92.2 2405546, 2018-03-11"
   sodipodi:docname="help-browser.svg">
  <title
     id="title4611">Canvas icon theme</title>
  <defs
     id="defs4566">
    <linearGradient
       id="linearGradient3764"
       x1="1"
       x2="47"
       gradientUnits="userSpaceOnUse"
       gradientTransform="rotate(-90,23.999998,24)">
      <stop
         style="stop-color:#30a0d4;stop-opacity:1"
         id="stop2" />
      <stop
         offset="1"
         style="stop-color:#41a8d8;stop-opacity:1"
         id="stop4" />
    </linearGradient>
  </defs>
  <sodipodi:namedview
     id="base"
     pagecolor="#ffffff"
     bordercolor="#666666"
     borderopacity="1.0"
     inkscape:pageopacity="0.0"
     inkscape:pageshadow="2"
     inkscape:zoom="3.959798"
     inkscape:cx="81.434701"
     inkscape:cy="37.846423"
     inkscape:document-units="px"
     inkscape:current-layer="layer1"
     showgrid="true"
     units="px"
     width="64px"
     showguides="true"
     inkscape:guide-bbox="true"
     inkscape:window-width="1920"
     inkscape:window-height="1021"
     inkscape:window-x="0"
     inkscape:window-y="29"
     inkscape:window-maximized="1"
     inkscape:snap-bbox="true">
    <inkscape:grid
       type="xygrid"
       id="grid4582" />
    <sodipodi:guide
       position="1.0583333,15.875"
       orientation="0,1"
       id="guide4584"
       inkscape:locked="false" />
    <sodipodi:guide
       position="1.0583333,1.0583333"
       orientation="1,0"
       id="guide4586"
       inkscape:locked="false" />
    <sodipodi:guide
       position="15.875,15.875"
       orientation="1,0"
       id="guide4588"
       inkscape:locked="false" />
    <sodipodi:guide
       position="1.0583333,1.0583333"
       orientation="0,1"
       id="guide4590"
       inkscape:locked="false" />
  </sodipodi:namedview>
  <metadata
     id="metadata4569">
    <rdf:RDF>
      <cc:Work
         rdf:about="">
        <dc:format>image/svg+xml</dc:format>
        <dc:type
           rdf:resource="http://purl.org/dc/dcmitype/StillImage" />
        <dc:title>Canvas icon theme</dc:title>
        <cc:license
           rdf:resource="http://creativecommons.org/licenses/by-nc-sa/4.0/" />
        <dc:creator>
          <cc:Agent>
            <dc:title>Vince Liuice</dc:title>
          </cc:Agent>
        </dc:creator>
      </cc:Work>
      <cc:License
         rdf:about="http://creativecommons.org/licenses/by-nc-sa/4.0/">
        <cc:permits
           rdf:resource="http://creativecommons.org/ns#Reproduction" />
        <cc:permits
           rdf:resource="http://creativecommons.org/ns#Distribution" />
        <cc:requires
           rdf:resource="http://creativecommons.org/ns#Notice" />
        <cc:requires
           rdf:resource="http://creativecommons.org/ns#Attribution" />
        <cc:prohibits
           rdf:resource="http://creativecommons.org/ns#CommercialUse" />
        <cc:permits
           rdf:resource="http://creativecommons.org/ns#DerivativeWorks" />
        <cc:requires
           rdf:resource="http://creativecommons.org/ns#ShareAlike" />
      </cc:License>
    </rdf:RDF>
  </metadata>
  <g
     inkscape:label="Layer 1"
     inkscape:groupmode="layer"
     id="layer1"
     transform="translate(0,-280.06667)">
    <circle
       style="opacity:1;fill:#3fa7d7;fill-opacity:1;stroke:none;stroke-width:0.49136901;stroke-miterlimit:4;stroke-dasharray:none;stroke-opacity:0.03821656;paint-order:stroke markers fill"
       id="path4521"
       cx="8.4666662"
       cy="288.53333"
       r="6.8791666" />
    <circle
       r="5.5940475"
       cy="288.53333"
       cx="8.4666662"
       id="circle4523"
       style="opacity:0.15;fill:#000000;fill-opacity:1;stroke:none;stroke-width:0.39957482;stroke-miterlimit:4;stroke-dasharray:none;stroke-opacity:0.03821656;paint-order:stroke markers fill" />
    <circle
       style="opacity:1;fill:#3fa7d7;fill-opacity:1;stroke:none;stroke-width:0.10744498;stroke-miterlimit:4;stroke-dasharray:none;stroke-opacity:0.03821656;paint-order:stroke markers fill"
       id="circle893"
       cx="8.4666662"
       cy="288.53333"
       r="1.5042297" />
    <g
       transform="matrix(0.26458333,0,0,0.26458333,2.1166666,282.18334)"
       id="g53">
      <g
         id="g51">
        <!-- color: #41a8d8 -->
        <g
           id="g49">
          <path
             inkscape:connector-curvature="0"
             d="M 24,9 C 15.715,9 9,15.715 9,24 9,32.285 15.715,39 24,39 32.285,39 39,32.285 39,24 39,15.715 32.285,9 24,9 m 0,6 c 4.969,0 9,4.03 9,9 0,4.969 -4.03,9 -9,9 -4.969,0 -9,-4.03 -9,-9 0,-4.969 4.03,-9 9,-9 m 0,0"
             style="fill:#ff6e65;fill-opacity:1;fill-rule:nonzero;stroke:none"
             id="path37" />
          <path
             inkscape:connector-curvature="0"
             d="M 10.375,17.781 C 9.508,19.676 9,21.781 9,24 c 0,2.219 0.508,4.324 1.375,6.219 l 5.25,-3 C 15.242,26.219 15,25.137 15,24 c 0,-1.137 0.242,-2.219 0.625,-3.219 m -5.25,-3"
             style="fill:#ffffff;fill-opacity:1;fill-rule:nonzero;stroke:none"
             id="path39" />
          <path
             inkscape:connector-curvature="0"
             d="m 37.625,17.781 -5.25,3 c 0.383,1 0.625,2.082 0.625,3.219 0,1.137 -0.242,2.219 -0.625,3.219 l 5.25,3 C 38.492,28.324 39,26.219 39,24 39,21.781 38.492,19.676 37.625,17.781 m 0,0"
             style="fill:#ffffff;fill-opacity:1;fill-rule:nonzero;stroke:none"
             id="path41" />
          <path
             inkscape:connector-curvature="0"
             d="m 20.781,32.375 -3,5.25 c 1.895,0.867 4,1.375 6.219,1.375 2.219,0 4.324,-0.508 6.219,-1.375 l -3,-5.25 C 26.219,32.758 25.137,33 24,33 22.863,33 21.781,32.758 20.781,32.375 m 0,0"
             style="fill:#ffffff;fill-opacity:1;fill-rule:nonzero;stroke:none"
             id="path43" />
          <path
             inkscape:connector-curvature="0"
             d="m 24,9 c -2.219,0 -4.324,0.508 -6.219,1.375 l 3,5.25 C 21.781,15.242 22.863,15 24,15 c 1.137,0 2.219,0.242 3.219,0.625 l 3,-5.25 C 28.324,9.508 26.219,9 24,9 m 0,0"
             style="fill:#ffffff;fill-opacity:1;fill-rule:nonzero;stroke:none"
             id="path45" />
        </g>
      </g>
    </g>
  </g>
</svg>
