<?xml version="1.0" encoding="UTF-8" standalone="no"?>
<svg
   xmlns:dc="http://purl.org/dc/elements/1.1/"
   xmlns:cc="http://creativecommons.org/ns#"
   xmlns:rdf="http://www.w3.org/1999/02/22-rdf-syntax-ns#"
   xmlns:svg="http://www.w3.org/2000/svg"
   xmlns="http://www.w3.org/2000/svg"
   xmlns:sodipodi="http://sodipodi.sourceforge.net/DTD/sodipodi-0.dtd"
   xmlns:inkscape="http://www.inkscape.org/namespaces/inkscape"
   width="64"
   height="64"
   version="1.1"
   viewBox="0 0 64 64"
   id="svg24"
   sodipodi:docname="org.remmina.Remmina.svg"
   inkscape:version="0.92.2 2405546, 2018-03-11">
  <metadata
     id="metadata30">
    <rdf:RDF>
      <cc:Work
         rdf:about="">
        <dc:format>image/svg+xml</dc:format>
        <dc:type
           rdf:resource="http://purl.org/dc/dcmitype/StillImage" />
      </cc:Work>
    </rdf:RDF>
  </metadata>
  <defs
     id="defs28" />
  <sodipodi:namedview
     pagecolor="#ffffff"
     bordercolor="#666666"
     borderopacity="1"
     objecttolerance="10"
     gridtolerance="10"
     guidetolerance="10"
     inkscape:pageopacity="0"
     inkscape:pageshadow="2"
     inkscape:window-width="1920"
     inkscape:window-height="1024"
     id="namedview26"
     showgrid="false"
     inkscape:zoom="7.375"
     inkscape:cx="-3.5555623"
     inkscape:cy="42.967148"
     inkscape:window-x="0"
     inkscape:window-y="28"
     inkscape:window-maximized="1"
     inkscape:current-layer="svg24" />
  <g
     transform="matrix(0.89655172,0,0,0.89655172,3.310345,-237.23448)"
     id="g22">
    <circle
       style="fill:#ffffff;stroke:#000000;stroke-opacity:0.05882353;stroke-width:1.11538462;stroke-miterlimit:4;stroke-dasharray:none"
       cx="32"
       cy="300.29999"
       r="26.1"
       id="circle2" />
    <polygon
       class="st1"
       points="29.55,32.88 20.62,38.83 20.62,48.01 43.32,32.88 20.62,17.74 20.62,26.92 "
       transform="matrix(0.7664523,0,0,0.7664523,3.1972864,269.3011)"
       style="fill:#20aa73"
       id="polygon6" />
    <polygon
       style="fill:#3989da"
       class="st2"
       points="55.39,50.05 46.46,44.1 55.39,38.14 55.39,28.96 32.69,44.1 55.39,59.23 "
       transform="matrix(0.76641852,0,0,0.76641852,2.5496107,272.3035)"
       id="polygon10" />
    <path
       style="fill:#20aa73"
       d="m 57.372168,286.30128 -4.876758,3.2455 A 23.2,23.2 0 0 1 55.199998,300.3 23.2,23.2 0 0 1 32,323.5 23.2,23.2 0 0 1 14.149707,315.0577 l -4.8597658,3.23418 C 14.606225,324.98952 22.80444,329.3 32,329.3 c 15.990474,0 29,-13.00876 29,-29 0,-5.07706 -1.325304,-9.84392 -3.627832,-13.99872 z"
       id="path14"
       inkscape:connector-curvature="0" />
    <path
       style="fill:#3989da"
       d="m 32,271.3 c -15.991229,0 -29.0000001,13.00876 -29.0000001,29 0,4.71932 1.1368765,9.1759 3.1463867,13.11798 L 11.045801,310.1583 A 23.2,23.2 0 0 1 8.8,300.3 23.2,23.2 0 0 1 32,277.1 a 23.2,23.2 0 0 1 17.19043,7.67764 l 4.888086,-3.25118 C 48.755678,275.2751 40.833542,271.3 32,271.3 Z"
       id="path18"
       inkscape:connector-curvature="0" />
  </g>
</svg>
