<?xml version="1.0" encoding="UTF-8" standalone="no"?>
<!-- Created with Inkscape (http://www.inkscape.org/) -->

<svg
   xmlns:dc="http://purl.org/dc/elements/1.1/"
   xmlns:cc="http://creativecommons.org/ns#"
   xmlns:rdf="http://www.w3.org/1999/02/22-rdf-syntax-ns#"
   xmlns:svg="http://www.w3.org/2000/svg"
   xmlns="http://www.w3.org/2000/svg"
   xmlns:xlink="http://www.w3.org/1999/xlink"
   xmlns:sodipodi="http://sodipodi.sourceforge.net/DTD/sodipodi-0.dtd"
   xmlns:inkscape="http://www.inkscape.org/namespaces/inkscape"
   width="64"
   height="64"
   viewBox="0 0 16.933333 16.933333"
   version="1.1"
   id="svg4572"
   inkscape:version="0.92.2 2405546, 2018-03-11"
   sodipodi:docname="vivaldi.svg">
  <title
     id="title4611">Canvas icon theme</title>
  <defs
     id="defs4566">
    <linearGradient
       inkscape:collect="always"
       id="linearGradient914">
      <stop
         style="stop-color:#000000;stop-opacity:1;"
         offset="0"
         id="stop910" />
      <stop
         style="stop-color:#000000;stop-opacity:0;"
         offset="1"
         id="stop912" />
    </linearGradient>
    <linearGradient
       id="linearGradient3481"
       y1="1"
       x2="0"
       y2="47"
       gradientUnits="userSpaceOnUse">
      <stop
         style="stop-color:#fc5858;stop-opacity:1"
         id="stop2" />
      <stop
         offset="1"
         style="stop-color:#fc4444;stop-opacity:1"
         id="stop4" />
    </linearGradient>
    <linearGradient
       id="linearGradient858"
       y1="1"
       x2="0"
       y2="47"
       gradientUnits="userSpaceOnUse">
      <stop
         style="stop-color:#fc5858;stop-opacity:1"
         id="stop854" />
      <stop
         offset="1"
         style="stop-color:#fc4444;stop-opacity:1"
         id="stop856" />
    </linearGradient>
    <linearGradient
       inkscape:collect="always"
       xlink:href="#linearGradient914"
       id="linearGradient916"
       x1="44.851562"
       y1="58"
       x2="44.851562"
       y2="15.445312"
       gradientUnits="userSpaceOnUse" />
  </defs>
  <sodipodi:namedview
     id="base"
     pagecolor="#ffffff"
     bordercolor="#666666"
     borderopacity="1.0"
     inkscape:pageopacity="0.0"
     inkscape:pageshadow="2"
     inkscape:zoom="7.919596"
     inkscape:cx="50.392964"
     inkscape:cy="40.444274"
     inkscape:document-units="px"
     inkscape:current-layer="layer1"
     showgrid="true"
     units="px"
     width="64px"
     showguides="true"
     inkscape:guide-bbox="true"
     inkscape:window-width="1920"
     inkscape:window-height="1051"
     inkscape:window-x="0"
     inkscape:window-y="29"
     inkscape:window-maximized="1"
     inkscape:snap-bbox="true"
     inkscape:bbox-nodes="true"
     inkscape:snap-bbox-edge-midpoints="true">
    <inkscape:grid
       type="xygrid"
       id="grid4582" />
    <sodipodi:guide
       position="1.0583333,15.875"
       orientation="0,1"
       id="guide4584"
       inkscape:locked="false" />
    <sodipodi:guide
       position="1.0583333,1.0583333"
       orientation="1,0"
       id="guide4586"
       inkscape:locked="false" />
    <sodipodi:guide
       position="15.875,15.875"
       orientation="1,0"
       id="guide4588"
       inkscape:locked="false" />
    <sodipodi:guide
       position="1.0583333,1.0583333"
       orientation="0,1"
       id="guide4590"
       inkscape:locked="false" />
    <sodipodi:guide
       position="8.4666665,8.4666665"
       orientation="0,1"
       id="guide822"
       inkscape:locked="false" />
    <sodipodi:guide
       position="8.4666665,8.4666665"
       orientation="1,0"
       id="guide824"
       inkscape:locked="false" />
  </sodipodi:namedview>
  <metadata
     id="metadata4569">
    <rdf:RDF>
      <cc:Work
         rdf:about="">
        <dc:format>image/svg+xml</dc:format>
        <dc:type
           rdf:resource="http://purl.org/dc/dcmitype/StillImage" />
        <dc:title>Canvas icon theme</dc:title>
        <cc:license
           rdf:resource="http://creativecommons.org/licenses/by-nc-sa/4.0/" />
        <dc:creator>
          <cc:Agent>
            <dc:title>Vince Liuice</dc:title>
          </cc:Agent>
        </dc:creator>
      </cc:Work>
      <cc:License
         rdf:about="http://creativecommons.org/licenses/by-nc-sa/4.0/">
        <cc:permits
           rdf:resource="http://creativecommons.org/ns#Reproduction" />
        <cc:permits
           rdf:resource="http://creativecommons.org/ns#Distribution" />
        <cc:requires
           rdf:resource="http://creativecommons.org/ns#Notice" />
        <cc:requires
           rdf:resource="http://creativecommons.org/ns#Attribution" />
        <cc:prohibits
           rdf:resource="http://creativecommons.org/ns#CommercialUse" />
        <cc:permits
           rdf:resource="http://creativecommons.org/ns#DerivativeWorks" />
        <cc:requires
           rdf:resource="http://creativecommons.org/ns#ShareAlike" />
      </cc:License>
    </rdf:RDF>
  </metadata>
  <g
     inkscape:label="Layer 1"
     inkscape:groupmode="layer"
     id="layer1"
     transform="translate(0,-280.06667)">
    <circle
       style="opacity:1;fill:#fc5555;fill-opacity:1;stroke:none;stroke-width:0.49136901;stroke-miterlimit:4;stroke-dasharray:none;stroke-opacity:0.03921569;paint-order:stroke markers fill"
       id="path13"
       cx="8.4666662"
       cy="288.53333"
       r="6.8791666" />
    <path
       inkscape:connector-curvature="0"
       d="m 5.15513,286.55881 2.766748,4.88818 c 0,0 0.149754,0.26167 0.526785,0.26167 0.376767,0 0.526785,-0.26167 0.526785,-0.26167 0,0 1.922992,-2.94534 2.707482,-4.51644 0.07885,-0.15769 0.163777,-0.31724 0.199495,-0.49027 0.02434,-0.11748 0.03598,-0.24342 0.0079,-0.3601 -0.03413,-0.14235 -0.100012,-0.28787 -0.207433,-0.38709 -0.124089,-0.11456 -0.296333,-0.18494 -0.464079,-0.2024 -0.180446,-0.019 -0.372798,0.0243 -0.534458,0.10874 -0.113507,0.0598 -0.214313,0.15531 -0.277813,0.26723 -0.06297,0.11086 -0.07911,0.24527 -0.08625,0.37253 -0.0048,0.0876 0.01243,0.17569 0.03043,0.26141 0.0061,0.0294 0.01614,0.058 0.02619,0.086 0.02567,0.0717 0.06059,0.1397 0.08678,0.21114 0.0217,0.0587 0.05186,0.11642 0.05874,0.17886 0.01111,0.10054 0.0085,0.20796 -0.02858,0.30189 -0.18071,0.4572 -0.491331,0.89693 -0.901964,1.16549 -0.170127,0.11112 -0.38788,0.1389 -0.590815,0.14763 -0.23151,0.01 -0.49821,-0.008 -0.686065,-0.11059 -0.187854,-0.10213 -0.276225,-0.2794 -0.393964,-0.43577 -0.540279,-0.71702 -1.423458,-2.28759 -1.423458,-2.28759 0,0 -0.383911,-0.67865 -1.074738,-0.26723 -0.690562,0.41169 -0.268552,1.06892 -0.268552,1.06892 z"
       style="fill:#ffffff;fill-rule:evenodd;stroke:none;stroke-width:0.26458332"
       id="path27-6" />
    <path
       style="opacity:0.25;fill:url(#linearGradient916);fill-opacity:1;stroke:none;stroke-width:1.85714281;stroke-miterlimit:4;stroke-dasharray:none;stroke-opacity:0.03921569;paint-order:stroke markers fill"
       d="M 52.023438 15.445312 A 42.500002 42.500002 0 0 1 52.5 21.5 A 42.500002 42.500002 0 0 1 31.703125 57.984375 A 26 26 0 0 0 32 58 A 26 26 0 0 0 58 32 A 26 26 0 0 0 52.023438 15.445312 z "
       transform="matrix(0.26458333,0,0,0.26458333,0,280.06667)"
       id="circle905" />
  </g>
</svg>
