<svg id="svg" width="32" height="32" version="1.1" viewBox="0 0 32 32" xmlns="http://www.w3.org/2000/svg">
 <defs>
  <style id="current-color-scheme" type="text/css">.ColorScheme-Text { color:#565656; } .ColorScheme-Highlight { color:#5294e2; } .ColorScheme-ButtonBackground { color:#f5f5f5; }</style>
 </defs>
 <g id="configure">
  <path class="ColorScheme-Text" fill="currentColor" d="m16 12c-2.1973 0-4 1.8027-4 4s1.8027 4 4 4 4-1.8027 4-4-1.8027-4-4-4zm0 2c1.1164 0 2 0.88359 2 2s-0.88359 2-2 2-2-0.88359-2-2 0.88359-2 2-2z" opacity=".45"/>
  <path class="ColorScheme-Text" fill="currentColor" d="m15.343 5c-0.79268-1.5e-5 -1.5521 0.31698-2.1113 0.87891-0.5592 0.56186-0.87294 1.3245-0.86914 2.1172v-0.019531c-0.0079 0.55119-0.43579 0.97223-0.98633 0.97461-0.15686-0.00268-0.30996-0.044664-0.44531-0.125l-0.0078-0.00391-0.0059-0.00391c-1.4204-0.81389-3.2608-0.3169-4.0781 1.1016l-0.68945 1.1328-0.0059 0.0098c-0.81631 1.4167-0.32547 3.256 1.0879 4.0781h2e-3v2e-3c0.30778 0.17768 0.49609 0.5019 0.49609 0.85742 0 0.35536-0.18831 0.67975-0.49609 0.85742-1.4137 0.81783-1.9061 2.6556-1.0898 4.0703l2e-3 2e-3 0.64648 1.1172c0.38549 0.69561 1.0338 1.2084 1.7988 1.4258 0.765 0.2175 1.5856 0.12131 2.2793-0.26758l0.0156-0.0078c0.22401-0.13073 0.48946-0.1667 0.74023-0.09961 0.25064 0.06705 0.46294 0.23175 0.5918 0.45703l0.0039 0.0059 0.0039 0.0078c0.08135 0.13706 0.1253 0.29173 0.12695 0.45117v-0.0098c-1.5e-5 1.6396 1.3504 2.9901 2.9902 2.9901h1.3047c1.6345 1.55e-4 2.9844-1.3423 2.9922-2.9766v-0.0098c-0.0012-0.26258 0.10177-0.51188 0.28711-0.69727 0.18379-0.18379 0.43142-0.28469 0.69141-0.28516 0.16409 7e-3 0.32405 0.05124 0.4668 0.13281l-2e-3 -2e-3c1.4158 0.81572 3.2533 0.32548 4.0762-1.0859l0.68359-1.1387 0.0039-0.0059c0.39914-0.68516 0.50716-1.5012 0.30273-2.2676h2e-3c-0.20436-0.7662-0.70729-1.4209-1.3945-1.8163-0.22663-0.13036-0.39154-0.34477-0.45898-0.59766-0.06737-0.25256-0.03197-0.52027 0.09961-0.74609l4e-3 -0.0078c0.08417-0.14698 0.20634-0.26725 0.35352-0.35156l0.0039-2e-3 0.0039-0.0039c1.405-0.8218 1.8948-2.6488 1.0879-4.0625l0.13086 0.49609v-0.27732l-0.13289-0.23242-0.64844-1.123c-0.81729-1.4184-2.6577-1.9154-4.0781-1.1016l-0.0039 0.00195-0.0059 0.00391c-0.22474 0.1324-0.49157 0.16909-0.74414 0.10352-0.25255-0.065572-0.46756-0.22797-0.59961-0.45312l-4e-3 -0.0039c-0.08133-0.13707-0.12332-0.29363-0.125-0.45312l-2e-3 0.039063c0.023452-0.80757-0.2805-1.5907-0.84358-2.1699-0.56306-0.5792-1.3387-0.90659-2.1465-0.90625zm0 2h1.3066c0.26805-1.141e-4 0.52403 0.10851 0.71094 0.30078 0.1869 0.19225 0.28702 0.45083 0.2793 0.71875v0.039062c0.0054 0.51067 0.14589 1.0098 0.40625 1.4492 3.25e-4 5.491e-4 -3.26e-4 0.0014 0 0.00195 0.40052 0.67993 1.0543 1.1747 1.8184 1.373 0.76585 0.19883 1.582 0.08521 2.2637-0.31641l-0.01172 0.0059c0.48409-0.27738 1.073-0.11818 1.3516 0.36523l0.51367 0.88867v0.0098l0.13086 0.23047c0.27479 0.48146 0.11911 1.0658-0.35938 1.3457l0.0078-0.0039c-0.45385 0.25999-0.82888 0.6381-1.0898 1.0918-0.39759 0.6845-0.50874 1.5006-0.30469 2.2656 0.20433 0.76616 0.70505 1.4209 1.3926 1.8164 0.22672 0.13044 0.39159 0.34298 0.45898 0.5957v2e-3c0.06717 0.2518 0.03127 0.51841-0.09961 0.74414-3.37e-4 5.82e-4 3.39e-4 0.0014 0 2e-3l-0.68359 1.1367-0.0039 0.0059c-0.28012 0.48155-0.86681 0.63949-1.3496 0.36133l-2e-3 -2e-3h-2e-3c-0.43362-0.24801-0.92039-0.38517-1.4198-0.3986h-0.02344c-0.79502-0.0038-1.5587 0.31067-2.1211 0.87305-0.56214 0.5623-0.87666 1.3261-0.87305 2.1211v-0.0098c-0.002642 0.55677-0.43344 0.98642-0.99023 0.98636h-1.3066c-0.55896 0-0.99023-0.43141-0.99024-0.99023v-0.009766c-0.0053-0.50809-0.14656-1.0057-0.4043-1.4434-0.3937-0.68439-1.0418-1.1865-1.8047-1.3906-0.76504-0.20468-1.5814-0.09656-2.2656 0.30273l0.01563-0.0078c-0.23022 0.12906-0.50205 0.16201-0.75586 0.08984v-2e-3c-0.25381-0.07211-0.46778-0.23987-0.5957-0.4707l-0.0039-0.0098-0.66212-1.1386v-2e-3c-0.27504-0.47882-0.11877-1.0612 0.35938-1.3378 0.92323-0.53355 1.4941-1.5236 1.4941-2.5898 0-1.0654-0.57041-2.054-1.4922-2.5879-0.48094-0.27976-0.63801-0.86723-0.36133-1.3496 3.53e-4 -6.16e-4 -3.55e-4 -0.0013 0-2e-3l0.68945-1.1328 0.0059-0.0098c0.27851-0.48338 0.86753-0.64259 1.3516-0.36524l-0.01367-0.0078c0.43972 0.26098 0.94137 0.40302 1.4531 0.4082h0.0098c1.6236 1.69e-4 2.9669-1.3257 2.9902-2.9492v-0.01758c-0.0013-0.26131 0.1007-0.51193 0.28508-0.69719 0.18432-0.18522 0.43399-0.28907 0.69531-0.28906z"/>
 </g>
</svg>
