<svg width="32" height="32" version="1.1" xmlns="http://www.w3.org/2000/svg">
 <defs>
  <style id="current-color-scheme" type="text/css">.ColorScheme-Text { color:#565656; } .ColorScheme-Highlight { color:#4285f4; }</style>
 </defs>
 <path class="ColorScheme-Text" d="m6 11c-0.554 0-1 0.446-1 1s0.446 1 1 1h20c0.554 0 1-0.446 1-1s-0.446-1-1-1zm0 8c-0.554 0-1 0.446-1 1s0.446 1 1 1h20c0.554 0 1-0.446 1-1s-0.446-1-1-1z" fill="currentColor"/>
 <path class="ColorScheme-Text" d="m21.049 6.0484c-0.25562 0-0.51116 0.0971-0.70703 0.29297-0.39174 0.39173-0.39174 1.0223 0 1.4141l4.9492 4.9512c0.39174 0.39174 1.0243 0.39174 1.416 0s0.39174-1.0243 0-1.416l-4.9512-4.9492c-0.19587-0.19587-0.45141-0.29297-0.70703-0.29297zm-15.049 12.951c-0.25562 0-0.51116 0.0971-0.70703 0.29297-0.39174 0.39174-0.39174 1.0243 0 1.416l4.9512 4.9492c0.39174 0.39174 1.0223 0.39174 1.4141 0 0.39174-0.39173 0.39174-1.0223 0-1.4141l-4.9492-4.9512c-0.19587-0.19587-0.45336-0.29297-0.70898-0.29297z" fill="currentColor" opacity=".45"/>
</svg>
