<svg width="32" height="32" version="1.1" xmlns="http://www.w3.org/2000/svg">
 <defs>
  <style id="current-color-scheme" type="text/css">.ColorScheme-Text { color:#565656; } .ColorScheme-Highlight { color:#4285f4; }</style>
 </defs>
 <path class="ColorScheme-Text" d="m16 8a1 1 0 0 0-1 1 1 1 0 0 0 1 1h7.5859l-8.293 8.293a1.0001 1.0001 0 0 0 0.70703 1.707h10a1 1 0 0 0 1-1 1 1 0 0 0-1-1h-7.5859l8.293-8.293a1.0001 1.0001 0 0 0-0.70703-1.707z" fill="currentColor"/>
 <path class="ColorScheme-Text" d="m6 16a1 1 0 0 0-1 1 1 1 0 0 0 1 1h3.5859l-4.293 4.293a1.0001 1.0001 0 0 0 0.70703 1.707h6a1 1 0 0 0 1-1 1 1 0 0 0-1-1h-3.5859l4.293-4.293a1.0001 1.0001 0 0 0-0.70703-1.707z" fill="currentColor" opacity=".45"/>
</svg>
