<svg width="32" height="32" version="1.1" xmlns="http://www.w3.org/2000/svg">
 <defs>
  <style id="current-color-scheme" type="text/css">.ColorScheme-Text { color:#565656; } .ColorScheme-Highlight { color:#5294e2; }</style>
 </defs>
 <path class="ColorScheme-Text" d="m17.672 5.1348c-2.258-0.3453-4.6242 0.01054-6.75 1.1191a1 1 0 0 0-0.42383 1.3496 1 1 0 0 0 1.3496 0.42383c3.4851-1.8175 7.7349-1.1666 10.518 1.6094 2.7793 2.7823 3.4319 7.0343 1.6133 10.521a1 1 0 0 0 0.42383 1.3496 1 1 0 0 0 1.3496-0.42383c2.219-4.255 1.4199-9.4692-1.9727-12.863a1.0001 1.0001 0 0 0-2e-3 0c-1.6973-1.6932-3.8474-2.7406-6.1055-3.0859zm-10.83 5.2949a1 1 0 0 0-0.58594 0.49219c-2.2172 4.2515-1.4216 9.4589 1.9648 12.854a1.0001 1.0001 0 0 0 2e-3 2e-3c3.3946 3.3864 8.604 4.184 12.855 1.9668a1 1 0 0 0 0.42383-1.3496 1 1 0 0 0-1.3496-0.42383c-3.4843 1.8171-7.7329 1.1668-10.516-1.6074l-2e-3 -2e-3c-2.7743-2.7827-3.4225-7.0314-1.6055-10.516a1 1 0 0 0-0.42578-1.3496 1 1 0 0 0-0.76172-0.06641z" fill="currentColor"/>
 <path class="ColorScheme-Text" d="m7.1348 10.375c-0.25562 0-0.51116 0.0971-0.70703 0.29297-0.39174 0.39174-0.39174 1.0223 0 1.4141l3.209 3.209c0.39174 0.39174 1.0223 0.39174 1.4141 0 0.39174-0.39174 0.39174-1.0223 0-1.4141l-3.209-3.209c-0.19587-0.19587-0.45141-0.29297-0.70703-0.29297zm14.521 6.0371c-0.25562 0-0.51116 0.0971-0.70703 0.29297-0.39174 0.39174-0.39174 1.0243 0 1.416l3.209 3.209c0.39174 0.39174 1.0243 0.39174 1.416 0s0.39174-1.0223 0-1.4141l-3.2109-3.2109c-0.19587-0.19587-0.45141-0.29297-0.70703-0.29297z" fill="currentColor" opacity=".45"/>
</svg>
