<svg width="32" height="32" version="1.1" xmlns="http://www.w3.org/2000/svg">
 <defs>
  <style id="current-color-scheme" type="text/css">.ColorScheme-Text { color:#565656; } .ColorScheme-Highlight { color:#5294e2; }</style>
 </defs>
 <path class="ColorScheme-Text" d="m23.801 22.135a1 1 0 0 0-0.36914-0.66993 1 1 0 0 0-1.4062 0.15625c-1.7076 2.1353-4.2913 3.3779-7.0254 3.3789-4.9824 0-9-4.0176-9-9s4.0176-9 9-9c2.7309 7e-3 5.309 1.2534 7.0117 3.3887a1 1 0 0 0 1.4062 0.15821 1 1 0 0 0 0.1582-1.4043c-2.0806-2.6091-5.2352-4.1341-8.5723-4.1426a1.0001 1.0001 0 0 0-0.0039 0c-6.0633 0-11 4.9367-11 11s4.9367 11 11 11a1.0001 1.0001 0 0 0 2e-3 0c3.3401-1e-3 6.4998-1.5204 8.5859-4.1289a1 1 0 0 0 0.21289-0.73632z" fill="currentColor"/>
 <path class="ColorScheme-Text" d="m26.07 12.084a1 1 0 0 0-0.70703 0.29493 1 1 0 0 0 0.0039 1.4141l1.2129 1.207h-9.5801a1 1 0 0 0-1 1 1 1 0 0 0 1 1h9.5801l-1.2129 1.207a1 1 0 0 0-0.0039 1.4141 1 1 0 0 0 1.4141 4e-3l2.9277-2.916a1.0001 1.0001 0 0 0 0.10352-0.12109 1.0001 1.0001 0 0 0 0.14062-0.27344 1.0001 1.0001 0 0 0 2e-3 -6e-3 1 1 0 0 0 2e-3 -8e-3 1.0001 1.0001 0 0 0 0.04677-0.30054 1 1 0 0 0-0.0039-0.0879 1.0001 1.0001 0 0 0-2e-3 -8e-3 1 1 0 0 0-0.0059-0.0469 1.0001 1.0001 0 0 0-0.0098-0.0547 1 1 0 0 0-0.0098-0.0469 1 1 0 0 0-0.0039-0.0156 1.0001 1.0001 0 0 0-0.02149-0.0703 1.0001 1.0001 0 0 0-0.04297-0.10351 1.0001 1.0001 0 0 0-0.04492-0.084 1.0001 1.0001 0 0 0-0.0078-0.0137 1 1 0 0 0-0.01367-0.0195 1.0001 1.0001 0 0 0-0.04101-0.0566 1.0001 1.0001 0 0 0-0.01172-0.0156 1 1 0 0 0-0.01758-0.0215 1.0001 1.0001 0 0 0-0.05664-0.0625 1 1 0 0 0-2e-3 -2e-3l-2.9277-2.9141a1 1 0 0 0-0.70703-0.29297z" fill="currentColor" opacity=".45"/>
</svg>
