<?xml version="1.0" encoding="UTF-8" standalone="no"?>
<svg
   xmlns:dc="http://purl.org/dc/elements/1.1/"
   xmlns:cc="http://creativecommons.org/ns#"
   xmlns:rdf="http://www.w3.org/1999/02/22-rdf-syntax-ns#"
   xmlns:svg="http://www.w3.org/2000/svg"
   xmlns="http://www.w3.org/2000/svg"
   xmlns:sodipodi="http://sodipodi.sourceforge.net/DTD/sodipodi-0.dtd"
   xmlns:inkscape="http://www.inkscape.org/namespaces/inkscape"
   width="24"
   height="24"
   version="1.1"
   id="svg9"
   sodipodi:docname="wired.svg"
   inkscape:version="0.92.2 2405546, 2018-03-11">
  <metadata
     id="metadata13">
    <rdf:RDF>
      <cc:Work
         rdf:about="">
        <dc:format>image/svg+xml</dc:format>
        <dc:type
           rdf:resource="http://purl.org/dc/dcmitype/StillImage" />
      </cc:Work>
    </rdf:RDF>
  </metadata>
  <sodipodi:namedview
     pagecolor="#ffffff"
     bordercolor="#666666"
     borderopacity="1"
     objecttolerance="10"
     gridtolerance="10"
     guidetolerance="10"
     inkscape:pageopacity="0"
     inkscape:pageshadow="2"
     inkscape:window-width="1920"
     inkscape:window-height="1051"
     id="namedview11"
     showgrid="true"
     inkscape:zoom="9.8333333"
     inkscape:cx="5.7831593"
     inkscape:cy="18.55323"
     inkscape:window-x="0"
     inkscape:window-y="29"
     inkscape:window-maximized="1"
     inkscape:current-layer="svg9">
    <inkscape:grid
       type="xygrid"
       id="grid832" />
  </sodipodi:namedview>
  <defs
     id="defs3">
    <style
       id="current-color-scheme"
       type="text/css">
   .ColorScheme-Text { color:#dfdfdf; } .ColorScheme-Highlight { color:#5294e2; }
  </style>
  </defs>
  <path
     style="opacity:1;fill:#dfdfdf;fill-opacity:1;stroke:none;stroke-width:1;stroke-linecap:round;stroke-linejoin:round;stroke-miterlimit:4;stroke-dasharray:none;stroke-opacity:1;paint-order:markers stroke fill"
     d="M 4,3 C 2.892,3 2,3.9458641 2,5.1210938 V 16.878906 C 2,18.054136 2.892,19 4,19 h 2 l 2,2 h 8 l 2,-2 h 2 c 1.108,0 2,-0.945864 2,-2.121094 V 5.1210938 C 22,3.9458641 21.108,3 20,3 Z m 2,3 h 12 c 0.554,0 1,0.446 1,1 v 8 c 0,0.554 -0.446,1 -1,1 h -1 l -2,2 H 9 L 7,16 H 6 C 5.446,16 5,15.554 5,15 V 7 C 5,6.446 5.446,6 6,6 Z"
     id="rect815"
     inkscape:connector-curvature="0" />
</svg>
