<svg xmlns="http://www.w3.org/2000/svg" width="16" height="16"><defs><style id="current-color-scheme" type="text/css"></style></defs><path d="M5.002 0A7.963 7.963 0 0 0 1.09 5.764c.241-.115.49-.217.746-.3C2.938 5.112 4.167 5.006 5.453 5c1.78-.007 3.682.225 5.467.566C9.53 2.568 7.524-.012 5.002 0zm4.24 1.117c1.043 1.12 1.892 2.532 2.586 4.03l.318.687c.963.22 1.887.456 2.692.709a7 7 0 0 0-5.596-5.426zM5.457 6C2.999 6.01.892 6.438 0 8a8 8 0 0 0 16 0c-2.34-.915-6.84-2.015-10.543-2z" fill="currentColor" color="#dfdfdf"/></svg>