<svg xmlns="http://www.w3.org/2000/svg" width="16" height="16" version="1"><defs><style id="current-color-scheme" type="text/css"></style></defs><path d="M6.758 14.994c-1.512-.161-2.866-.61-3.644-1.426a3.737 3.737 0 0 1-.706-1c-.375-.78-.493-1.657-.31-2.305.184-.645.6-1.357 1.185-2.025.325-.372.79-.613.94-.915.357-.612.135-1.03-.07-1.369-.113-.186-.233-.22-.743-.195-.498.025-.742-.006-.98-.126-.184-.092-.25-.197-.192-.308.296-.24.4-.502.726-.625-.477-.421-.948-.863-.964-1.493.033-.338.334-.257.334-.257.473.1.96.2 1.405.215.128-.018.262-.053.3-.079.036-.025.137-.174.223-.332.335-.614.69-1.211 1.087-1.416.458-.235 1.44-.361 2.056-.334.74.032 1.368.297 1.88.794.353.342.586.427.922.337.236-.063.242-.063.242.014 0 .101-.078.232-.197.332l-.11.092.11.068c.153.094.135.17-.047.196-.15.023-.264.075-.264.122 0 .016.022.16.048.318.066.389.042 1.142-.046 1.514-.137.576-.344.982-.699 1.368-.275.26-1.39.793-1.462.841.035 0 .333-.018.532 0 .732.067 1.241.395 1.975.75.693.335 1.117.353 1.5.15.54-.383.857-.9 1.294-.9.964 0 .953 2.025.896 2.951.068 2.387-2.027 4.295-4.438 4.857-.65.152-.912.179-1.814.19-.467.004-.903.003-.97-.004z" fill="currentColor" color="#dfdfdf"/></svg>