<svg xmlns="http://www.w3.org/2000/svg" width="16" height="16" version="1"><defs><style id="current-color-scheme" type="text/css"></style></defs><path d="M8 1a7 7 0 0 0-7 7 7 7 0 0 0 7 7 7 7 0 0 0 7-7 7 7 0 0 0-7-7zm.33 3.574h.002c1.6.06 2.547 1.141 2.65 2.719.119 1.778-.406 2.242-.181 2.6.468.746-.195.94-.635 1.304-.274.227-.804.124-1.066-.199-.797-.461-.49.425-2.135.43-.856-.035-1.64-.653-1.861-1.485-.34-1.276.157-2.219 1.544-2.664.402-.128 1.197-.05 1.547-.306.33-.242.215-.59-.191-.635-.582-.065-1.492.198-2.03.092-.43-.086-.562-.91-.28-1.264.46-.58 1.643-.555 2.31-.586.113-.005.22-.01.326-.006zm-.318 3.563C7.458 8.137 7 8.55 7 9.064S7.458 10 8.012 10C8.564 10 9 9.578 9 9.064s-.436-.927-.988-.927z" fill="currentColor" color="#dfdfdf"/></svg>