<svg width="16" height="16" version="1.1" xmlns="http://www.w3.org/2000/svg">
 <defs>
  <style id="current-color-scheme" type="text/css">.ColorScheme-Text { color:#dfdfdf; } .ColorScheme-Highlight { color:#4285f4; }</style>
 </defs>
 <g class="ColorScheme-Text" fill="currentColor">
  <path d="m10 5v6c1.1009-0.59686 1.7876-1.7477 1.79-3 0.001973-1.2535-0.68593-2.4064-1.79-3z" opacity=".35"/>
  <path d="m8 1-4 4h-3v6h3l4 4v-11.172zm-2 4.8281v4.3418l-1-0.99805-0.16992-0.17188h-1.8301v-2h1.8301l0.16992-0.17188z"/>
  <path d="m10 1v1.5c2.32 0.74 4 2.93 4 5.5s-1.68 4.76-4 5.5v1.5c3.15-0.78 5.5-3.6 5.5-7s-2.35-6.22-5.5-7z" opacity=".35"/>
 </g>
</svg>
