<svg width="16" height="16" version="1.1" xmlns="http://www.w3.org/2000/svg">
 <defs>
  <style id="current-color-scheme" type="text/css">.ColorScheme-Text { color:#dfdfdf; } .ColorScheme-Highlight { color:#4285f4; }</style>
 </defs>
 <g class="ColorScheme-Text" fill="currentColor">
  <rect transform="rotate(45)" x="2.3137" y="-1" width="18" height="2" rx="0" ry="0"/>
  <path d="m10 5v0.75781l1.7559 1.7559c-0.15122-1.0596-0.79637-1.9978-1.7559-2.5137zm0 3.5859v2.4141c0.51769-0.28067 0.94553-0.68349 1.252-1.1621l-1.252-1.252z"/>
  <path d="m8 1-1.3789 1.3789 1.3789 1.3789v-2.7578zm-2.793 2.793-1.207 1.207h-3v6h3l4 4v-8.4141l-2.793-2.793zm0.79297 2.0352v4.3418l-1-0.99805-0.16992-0.17188h-1.8301v-2h1.8301l0.16992-0.17188 1-1z"/>
  <path d="m10 1v1.5c2.32 0.74 4 2.93 4 5.5 0 0.53548-0.074479 1.0541-0.21094 1.5469l1.1777 1.1777c0.34382-0.83885 0.5332-1.7586 0.5332-2.7246 0-3.4-2.35-6.22-5.5-7zm2.8613 10.447c-0.70948 0.95567-1.7059 1.6842-2.8613 2.0527v1.5c1.5667-0.38794 2.9358-1.2805 3.916-2.498l-1.0547-1.0547z"/>
 </g>
</svg>
