<svg xmlns="http://www.w3.org/2000/svg" width="16" height="16"><defs><style id="current-color-scheme" type="text/css"></style></defs><path d="M3.625 1a1.75 1.692 0 0 0-1.74 1.506L1.01 10.12A1.75 1.692 0 0 0 2.75 12h10.5a1.75 1.692 0 0 0 1.74-1.879l-.875-7.615A1.75 1.692 0 0 0 12.375 1h-8.75zm4.363 2a.373.373 0 0 1 .37.232l.648 1.774h2.119c.362-.001.513.451.219.64L9.623 6.758l.654 1.808c.108.306-.282.559-.572.371l-1.71-1.123-1.718 1.118c-.293.192-.686-.067-.57-.375l.662-1.805-1.715-1.117c-.291-.19-.141-.641.219-.64l2.123.009.654-1.774A.368.368 0 0 1 7.988 3zM1 12.3v.48C1 13.84 1.908 15 2.969 15H13.03C14.091 15 15 13.84 15 12.78v-.48a2.59 2.59 0 0 1-1.75.698H2.75A2.59 2.59 0 0 1 1 12.301z" fill="currentColor" color="#5294e2"/></svg>