<svg xmlns="http://www.w3.org/2000/svg" width="16" height="16" version="1"><defs><style id="current-color-scheme" type="text/css"></style></defs><path d="M5.991 0a.996.996 0 0 0-.673.293l-2.992 3c-.979.943.47 2.396 1.41 1.414l1.291-1.294.008 6.939a.986.986 0 0 0-.01.148c0 .015.01.028.01.043v.006a.999.999 0 0 0 .076.361C5.337 13.146 7.238 15 9.513 15 11.931 15 14 12.925 14 10.5S11.931 6 9.513 6c-.943 0-1.767.408-2.486.947L7.02 1a.999.999 0 0 0-1.029-1z" fill="currentColor" color="#dfdfdf"/></svg>