<svg xmlns="http://www.w3.org/2000/svg" width="16" height="16"><defs><style id="current-color-scheme" type="text/css"></style></defs><path d="M8 1a7 7 0 0 0-7 7 7 7 0 0 0 7 7 7 7 0 0 0 7-7 7 7 0 0 0-7-7zM6 3h1v1c.303-.011.701 0 1 0V3h1v1h1c.567 0 1 1 1 1.75C11 7 10.567 7.443 9.816 7.5 11 7.501 12 8 12 9.5c0 2.134-1.108 2.362-3.016 2.5l.032 1h-1l-.032-1H7v.982L6 13v-1c-.266 0-.598-.01-.873 0H4v-1s.69.013.676 0c.321-.01.306-.359.324-.5V5.549c-.048-.223-.194-.556-.654-.549C4.359 4.985 4 5 4 5V4h1.066c.236 0 .688.01.934 0V3zm1 2v2c1.269 0 2 0 2-1s-.59-1-2-1zm0 3v3c2 0 3 0 3-1.5S9 8 7 8z" fill="currentColor" color="#dfdfdf"/></svg>