<svg xmlns="http://www.w3.org/2000/svg" width="16" height="16"><defs><style id="current-color-scheme" type="text/css"></style></defs><path d="M8 1c-5.435 0-5.573.003-5.715.087-.3.179-.285-.042-.285 4.126 0 4.229-.006 4.144.322 4.964.378.943.985 1.74 1.983 2.607.837.727 1.83 1.385 2.937 1.943.375.19.568.276.758.273.19.003.383-.083.758-.273a14.343 14.343 0 0 0 2.937-1.943c.998-.866 1.605-1.664 1.983-2.607.328-.82.322-.735.322-4.964 0-4.168.015-3.947-.285-4.126C13.573 1.003 13.435 1 8 1zm0 2c2.25 0 3.192.003 3.983.01.007.556.017.86.017 2.203 0 2.115-.004 3.17-.034 3.63-.03.461.026.162-.146.59-.247.618-.594 1.11-1.436 1.841-.657.57-1.478 1.102-2.384 1.574z" fill="currentColor" color="#dfdfdf"/></svg>