<svg xmlns="http://www.w3.org/2000/svg" width="16" height="16"><defs><style id="current-color-scheme" type="text/css"></style></defs><path d="M14.761 9.812A7 7 0 1 0 1.238 6.189 7 7 0 0 0 14.76 9.812zm-1.931-.518a5.002 5.002 0 0 1-5.132 3.698l-.285 1.062-2.38-2.708 3.415-1.155-.211.788a2.99 2.99 0 0 0 2.66-2.203 3 3 0 0 0-.192-2.065l1.462-1.463a5 5 0 0 1 .663 4.046zm-1.863-4.64L7.552 5.809l.211-.788a2.99 2.99 0 0 0-2.66 2.203 3 3 0 0 0 .192 2.065l-1.462 1.463a5 5 0 0 1-.663-4.046 5.002 5.002 0 0 1 5.132-3.698l.285-1.062 2.38 2.708z" fill="currentColor" color="#dfdfdf"/></svg>