<svg xmlns="http://www.w3.org/2000/svg" width="16" height="16"><defs><style id="current-color-scheme" type="text/css"></style></defs><path d="M9.812 1.239a7 7 0 1 0-3.623 13.523A7 7 0 0 0 9.812 1.24zM9.294 3.17a5.002 5.002 0 0 1 3.698 5.132l1.062.285-2.708 2.38-1.155-3.415.788.211a2.99 2.99 0 0 0-2.203-2.66 3 3 0 0 0-2.065.192L5.248 3.833a5 5 0 0 1 4.046-.663zm-4.64 1.863l1.155 3.415-.788-.211a2.99 2.99 0 0 0 2.203 2.66 3 3 0 0 0 2.065-.192l1.463 1.462a5 5 0 0 1-4.046.663 5.002 5.002 0 0 1-3.698-5.132l-1.062-.285 2.708-2.38z" fill="currentColor" color="#dfdfdf"/></svg>