<svg xmlns="http://www.w3.org/2000/svg" width="16" height="16"><defs><style id="current-color-scheme" type="text/css"></style></defs><path d="M6.188 1.239a7 7 0 1 0 3.624 13.523A7 7 0 0 0 6.188 1.239zm.518 1.931a5.002 5.002 0 0 1 5.769 2.596l1.062-.285-1.156 3.416-2.708-2.38.789-.212a2.99 2.99 0 0 0-3.238-1.203 3 3 0 0 0-1.693 1.2l-1.997-.535A5 5 0 0 1 6.706 3.17zM3.619 7.103l2.708 2.38-.789.212a2.99 2.99 0 0 0 3.238 1.203 3 3 0 0 0 1.693-1.2l1.997.535a5 5 0 0 1-3.172 2.597 5.002 5.002 0 0 1-5.769-2.596l-1.062.285L3.62 7.103z" fill="currentColor" color="#dfdfdf"/></svg>