<svg xmlns="http://www.w3.org/2000/svg" width="16" height="16"><defs><style id="current-color-scheme" type="text/css"></style></defs><path d="M11.5 1.938a7 7 0 1 0-7 12.125 7 7 0 0 0 7-12.125zm-1 1.732a5.002 5.002 0 0 1 2.244 5.914l.952.55-3.232 1.598-.232-3.598.707.408A2.99 2.99 0 0 0 9.5 5.402a3 3 0 0 0-2.045-.349L6.42 3.263a5 5 0 0 1 4.08.407zm-4.964.598l.232 3.598-.707-.408a2.99 2.99 0 0 0 1.439 3.14 3 3 0 0 0 2.045.349l1.035 1.79a5 5 0 0 1-4.08-.407 5.002 5.002 0 0 1-2.244-5.914l-.952-.55 3.232-1.598z" fill="currentColor" color="#dfdfdf"/></svg>