<svg xmlns="http://www.w3.org/2000/svg" width="16" height="16"><defs><style id="current-color-scheme" type="text/css"></style></defs><path d="M14.062 11.5a7 7 0 1 0-12.125-7 7 7 0 0 0 12.125 7zm-1.732-1a5.002 5.002 0 0 1-5.914 2.244l-.55.952-1.598-3.232 3.598-.232-.408.707a2.99 2.99 0 0 0 3.14-1.439 3 3 0 0 0 .349-2.045l1.79-1.035a5 5 0 0 1-.407 4.08zm-.598-4.964l-3.598.232.408-.707A2.99 2.99 0 0 0 5.402 6.5a3 3 0 0 0-.349 2.045L3.263 9.58A5 5 0 0 1 3.67 5.5a5.002 5.002 0 0 1 5.914-2.244l.55-.952 1.598 3.232z" fill="currentColor" color="#dfdfdf"/></svg>