<svg xmlns="http://www.w3.org/2000/svg" width="16" height="16"><defs><style id="current-color-scheme" type="text/css"></style></defs><path d="M7.813 1.002a7 7 0 1 0 0 0zM5 3h2a1 1 0 0 1 .326.057c.451-.062.904-.061 1.348 0A1 1 0 0 1 9 3h2a1 1 0 0 1 1 1v.535l.695-.4-.23 3.597-.465-.23V9h.893A4.999 4.999 0 0 1 12 10.988V12a1 1 0 0 1-1 1H9a1 1 0 0 1-.326-.057c-.451.062-.904.061-1.348 0A1 1 0 0 1 7 13H5a1 1 0 0 1-1-1v-.535l-.695.4.23-3.597.465.23V7h-.893A4.999 4.999 0 0 1 4 5.012V4a1 1 0 0 1 1-1zm0 1v8h2V4H5zm4 0v8h2V4H9z" fill="currentColor" color="#dfdfdf"/></svg>