<svg xmlns="http://www.w3.org/2000/svg" width="16" height="16"><defs><style id="current-color-scheme" type="text/css"></style></defs><path d="M4.5 1.938a7 7 0 1 0 7 12.124 7 7 0 0 0-7-12.124zm1 1.732a5.002 5.002 0 0 1 6.244 1.014l.952-.55-.232 3.598-3.232-1.598.707-.408A2.99 2.99 0 0 0 6.5 5.402a3 3 0 0 0-1.324 1.597H3.108A5 5 0 0 1 5.5 3.67zM3.536 8.268l3.232 1.598-.707.408c.94.8 2.31.976 3.439.324a3 3 0 0 0 1.324-1.597h2.068a5 5 0 0 1-2.392 3.33 5.002 5.002 0 0 1-6.244-1.015l-.952.55.232-3.598z" fill="currentColor" color="#dfdfdf"/></svg>