<svg xmlns="http://www.w3.org/2000/svg" width="16" height="16"><defs><style id="current-color-scheme" type="text/css"></style></defs><path d="M12.95 3.05a7 7 0 1 0-9.9 9.9 7 7 0 0 0 9.9-9.9zm-1.414 1.414a5.002 5.002 0 0 1 .636 6.294l.778.778-3.536.707.707-3.536.578.577a2.99 2.99 0 0 0-.578-3.405 3 3 0 0 0-1.885-.866L7.7 3.016a5 5 0 0 1 3.836 1.448zm-4.95-.707l-.707 3.536-.578-.577a2.99 2.99 0 0 0 .578 3.405 3 3 0 0 0 1.885.866l.536 1.997a5 5 0 0 1-3.836-1.448 5.002 5.002 0 0 1-.636-6.294l-.778-.778 3.536-.707z" fill="currentColor" color="#dfdfdf"/></svg>