<svg xmlns="http://www.w3.org/2000/svg" width="16" height="16"><defs><style id="current-color-scheme" type="text/css"></style></defs><path d="M12.95 12.95a7 7 0 1 0-9.9-9.9 7 7 0 0 0 9.9 9.9zm-1.414-1.414a5.002 5.002 0 0 1-6.294.636l-.778.778-.707-3.536 3.536.707-.577.578a2.99 2.99 0 0 0 3.405-.578 3 3 0 0 0 .866-1.885l1.997-.536a5 5 0 0 1-1.448 3.836zm.707-4.95l-3.536-.707.577-.578a2.99 2.99 0 0 0-3.405.578 3 3 0 0 0-.866 1.885L3.016 8.3a5 5 0 0 1 1.448-3.836 5.002 5.002 0 0 1 6.294-.636l.778-.778.707 3.536z" fill="currentColor" color="#dfdfdf"/></svg>