<svg xmlns="http://www.w3.org/2000/svg" width="16" height="16"><defs><style id="current-color-scheme" type="text/css"></style></defs><path d="M14.062 4.5a7 7 0 1 0-12.124 7 7 7 0 0 0 12.124-7zm-1.732 1a5.002 5.002 0 0 1-1.014 6.244l.55.952-3.598-.232 1.598-3.232.408.707c.8-.94.976-2.31.324-3.439a3 3 0 0 0-1.597-1.324V3.108A5 5 0 0 1 12.33 5.5zM7.732 3.536L6.134 6.768l-.408-.707A2.99 2.99 0 0 0 5.402 9.5a3 3 0 0 0 1.597 1.324v2.068A5 5 0 0 1 3.67 10.5a5.002 5.002 0 0 1 1.015-6.244l-.55-.952 3.598.232z" fill="currentColor" color="#dfdfdf"/></svg>