<svg xmlns="http://www.w3.org/2000/svg" width="16" height="16"><defs><style id="current-color-scheme" type="text/css"></style></defs><path d="M14.761 6.188A7 7 0 1 0 1.238 9.812a7 7 0 0 0 13.523-3.624zm-1.931.518a5.002 5.002 0 0 1-2.596 5.769l.285 1.062-3.416-1.156 2.38-2.708.212.789a2.99 2.99 0 0 0 1.203-3.238 3 3 0 0 0-1.2-1.693l.535-1.997a5 5 0 0 1 2.597 3.172zM8.897 3.619l-2.38 2.708-.212-.789a2.99 2.99 0 0 0-1.203 3.238 3 3 0 0 0 1.2 1.693l-.535 1.997A5 5 0 0 1 3.17 9.294a5.002 5.002 0 0 1 2.596-5.769L5.48 2.463 8.897 3.62z" fill="currentColor" color="#dfdfdf"/></svg>