<svg xmlns="http://www.w3.org/2000/svg" width="16" height="16"><defs><style id="current-color-scheme" type="text/css"></style></defs><path d="M3.625 1a1.75 1.692 0 0 0-1.74 1.506L1.01 10.12A1.75 1.692 0 0 0 2.75 12h10.5a1.75 1.692 0 0 0 1.74-1.879l-.875-7.615A1.75 1.692 0 0 0 12.375 1h-8.75zm3.516 2H8.85L11 9H9.59l-.451-1H6.867L6.41 9H5l2.14-6zm.851 1.338L7.15 7h1.7l-.858-2.662zM1 12.3v.478C1 13.84 1.908 15 2.969 15H13.03C14.091 15 15 13.84 15 12.78v-.48a2.59 2.59 0 0 1-1.75.698H2.75A2.59 2.59 0 0 1 1 12.301z" fill="currentColor" opacity=".3" color="#dfdfdf"/></svg>