<svg xmlns="http://www.w3.org/2000/svg" width="16" height="16"><defs><style id="current-color-scheme" type="text/css"></style></defs><path d="M8 1a7 7 0 0 0-6.213 3.787A7 7 0 0 1 5 4a7 7 0 0 1 1.26.117 7 7 0 0 1 1.847-3.111A7 7 0 0 0 8 1zm1.473.16A6 6 0 0 0 7.23 4.375a7 7 0 0 1 3.832 3.148 2.324 2.324 0 0 1 1.305-.52h.004c.083-.004.165-.004.248 0 .846.045 1.591.557 1.983 1.294l.33.623A7 7 0 0 0 15 8a7 7 0 0 0-5.527-6.84zM5 5a6 6 0 0 0-3.797 1.36A7 7 0 0 0 1 8a7 7 0 0 0 7 7 7 7 0 0 0 .504-.027c-.538-.766-.684-1.824-.2-2.737l.391-.736A7 7 0 0 1 6 6a7 7 0 0 1 .066-.9A6 6 0 0 0 5 5zm2.035.363A6 6 0 0 0 7 6a6 6 0 0 0 2.17 4.605l.18-.34 1.02-1.917a6 6 0 0 0-3.335-2.985zm5.39 2.639a1.408 1.53 0 0 0-1.144.764l-1.047 1.968-1.045 1.971A1.408 1.53 0 0 0 10.406 15h4.186a1.408 1.53 0 0 0 1.219-2.295l-1.047-1.97-1.045-1.97a1.408 1.53 0 0 0-1.153-.763 1.408 1.53 0 0 0-.14 0zM12 9h1v3h-1V9zm0 4h1v1h-1v-1z" fill="currentColor" color="#dfdfdf"/></svg>