<svg xmlns="http://www.w3.org/2000/svg" width="16" height="16"><defs><style id="current-color-scheme" type="text/css"></style></defs><path d="M8 1a7 7 0 0 0-6.213 3.787A7 7 0 0 1 5 4a7 7 0 0 1 1.26.117 7 7 0 0 1 1.847-3.111A7 7 0 0 0 8 1zm1.473.16A6 6 0 0 0 7.23 4.375a7 7 0 0 1 3.916 3.303A2.916 2.916 0 0 1 13 7c.77 0 1.462.307 1.99.793A7 7 0 0 0 9.473 1.16zM5 5a6 6 0 0 0-3.797 1.36A7 7 0 0 0 1 8a7 7 0 0 0 7 7 7 7 0 0 0 1-.086V11.73A7 7 0 0 1 6 6a7 7 0 0 1 .066-.9A6 6 0 0 0 5 5zm2.035.363A6 6 0 0 0 7 6a6 6 0 0 0 2.115 4.557A.993.993 0 0 1 10 10h.014a3.036 3.036 0 0 1 .43-1.502 6 6 0 0 0-3.409-3.135zM13 8c-1.108 0-2 .911-2 2.031V11h-1v4h6v-4h-1v-.969C15 8.911 14.108 8 13 8zm0 1c.554 0 1 .442 1 1v1h-2v-1c0-.558.446-1 1-1z" fill="currentColor" color="#dfdfdf"/></svg>