<svg xmlns="http://www.w3.org/2000/svg" width="16" height="16"><defs><style id="current-color-scheme" type="text/css"></style></defs><path d="M8 1a7 7 0 0 0-6.213 3.787A7 7 0 0 1 5 4a7 7 0 0 1 1.26.117 7 7 0 0 1 1.847-3.111A7 7 0 0 0 8 1zm1.473.16A6 6 0 0 0 7.23 4.375a7 7 0 0 1 3.694 2.914A4.5 4.5 0 0 1 12.5 7a4.5 4.5 0 0 1 2.488.752A7 7 0 0 0 9.473 1.16zM5 5a6 6 0 0 0-3.797 1.36A7 7 0 0 0 1 8a7 7 0 0 0 7 7 7 7 0 0 0 1.484-.168A4.5 4.5 0 0 1 8 11.5a4.5 4.5 0 0 1 .043-.578A7 7 0 0 1 6 6a7 7 0 0 1 .066-.9A6 6 0 0 0 5 5zm2.035.363A6 6 0 0 0 7 6a6 6 0 0 0 1.346 3.771 4.5 4.5 0 0 1 1.681-2.029 6 6 0 0 0-2.992-2.379zM12.45 8a3.5 3.5 0 0 0-2.424 1.025 3.5 3.5 0 0 0 0 4.95 3.5 3.5 0 0 0 4.95 0 3.5 3.5 0 0 0 0-4.95A3.5 3.5 0 0 0 12.449 8zm.09 1a2.5 2.5 0 0 1 .002 0 2.5 2.5 0 0 1 1.727.732 2.5 2.5 0 0 1 .314 3.143l-3.46-3.46A2.5 2.5 0 0 1 12.538 9zm-2.121 1.125l3.46 3.46a2.5 2.5 0 0 1-3.146-.317 2.5 2.5 0 0 1-.314-3.143z" fill="currentColor" color="#dfdfdf"/></svg>