<svg xmlns="http://www.w3.org/2000/svg" width="16" height="16"><defs><style id="current-color-scheme" type="text/css"></style></defs><path d="M12.874 2.023l-.362-.31A2.94 2.94 0 0 0 10.606 1c-.924 0-1.785.433-2.364 1.19L2.676 9.462a3.315 3.315 0 0 0-.659 2.356 3.24 3.24 0 0 0 1.109 2.157l.362.31a2.934 2.934 0 0 0 2.228.697 2.976 2.976 0 0 0 2.03-1.157L11.5 8.919c.669-.873.54-2.16-.285-2.866l-.19-.162a1.867 1.867 0 0 0-1.21-.453c-.587 0-1.134.275-1.5.755l-3.75 4.898a.777.777 0 0 0 .105 1.05.681.681 0 0 0 .994-.11l3.748-4.898a.493.493 0 0 1 .724-.081l.189.162a.552.552 0 0 1 .189.366.568.568 0 0 1-.113.4l-3.744 4.892c-.309.403-.77.635-1.263.635a1.57 1.57 0 0 1-1.019-.381l-.362-.31a1.729 1.729 0 0 1-.592-1.152c-.045-.456.08-.903.353-1.26l5.567-7.273c.31-.404.77-.636 1.264-.636.37 0 .732.136 1.019.381l.362.31c.695.595.803 1.678.24 2.413a.774.774 0 0 0 .106 1.05.684.684 0 0 0 .443.167.69.69 0 0 0 .55-.277 3.319 3.319 0 0 0 .657-2.356 3.244 3.244 0 0 0-1.109-2.16z" fill="currentColor" color="#dfdfdf"/></svg>