<svg xmlns="http://www.w3.org/2000/svg" width="16" height="16"><defs><style id="current-color-scheme" type="text/css">.ColorScheme-Text{color:#dfdfdf}</style></defs><path class="ColorScheme-Text" d="M15.25 0l-4.287 5.03 1.668.974L15.557.275zM3.37 3L0 6.004 3.5 5.5 4.531 11H14.8l-1.324-3.313-1.686-1.177L7.367 10 4.631 3.479zm5.894 2L6.537 6.004l1.041 2.525 3.369-2.525zM.836 12a.834.834 0 0 0-.836.836v.328c0 .463.373.836.836.836H6v-2z" fill="currentColor"/><path class="ColorScheme-Text" d="M6 12v2h9.164a.836.836 0 0 0 .836-.838v-.326c0-.463-.375-.795-.836-.836z" opacity=".3" fill="currentColor"/></svg>