<svg xmlns="http://www.w3.org/2000/svg" width="16" height="16"><defs><style id="current-color-scheme" type="text/css"></style></defs><path d="M10.5 1A4.5 4.5 0 0 0 6 5.5a4.5 4.5 0 0 0 4.5 4.5A4.5 4.5 0 0 0 15 5.5 4.5 4.5 0 0 0 10.5 1zm.11 2a2.21 1.767 45 0 1 1.64.75 2.21 1.767 45 0 1 .313 2.813A2.21 1.767 45 0 1 9.75 6.25a2.21 1.767 45 0 1-.313-2.813A2.21 1.767 45 0 1 10.61 3zM5.181 6.883L1.256 10.88A.876.876 0 0 0 1 11.5v2.625c0 .483.392.875.875.875H4.1c.483 0 .9-.392.9-.875V12h2.125c.483 0 .875-.017.875-.5l-.031-1.123a5.5 5.5 0 0 1-1.31-.947l-3.444 3.41c-.618.588-1.517-.308-.93-.928l3.586-3.441a5.5 5.5 0 0 1-.69-1.588z" fill="currentColor" color="#dfdfdf"/></svg>