<svg xmlns="http://www.w3.org/2000/svg" width="16" height="16"><defs><style id="current-color-scheme" type="text/css">.ColorScheme-Text{color:#dfdfdf}</style></defs><path class="ColorScheme-Text" d="M7.41 1c-.799 1.067-2.526 3.087-3.816 5.285C4.544 5.37 5.518 5.001 6.408 5c2.9-.003 5.372 3.672 4.324 4.05C9.9 7.352 8.526 7.028 7.498 7 6.148 6.965 5.051 8.318 5 9.893c-.118 3.643 5.268 3.21 5.977 4.322.614-.328 1.13-.755 1.48-1.29C14.815 9.318 8.804 3.189 7.41 1zM3.594 6.285zm-.91 1.772zm-.336.888zm-.233.875c-.05.252-.079.498-.095.742a7.99 7.99 0 0 1 .095-.742zm-.095.742a5.233 5.233 0 0 1 0 0zm-.004.38c.002.235.021.466.062.69a5.342 5.342 0 0 1-.063-.691zm.138 1c.033.118.06.238.106.353-.043-.115-.074-.234-.106-.354zm.389.913c.014.023.02.048.035.07.014.022.034.039.049.06-.014-.021-.033-.038-.047-.06-.015-.022-.025-.046-.037-.07zm.402.52c.044.046.093.087.139.13-.046-.043-.095-.085-.139-.13zm.139.13zm.84.624a4.48 4.48 0 0 1 0 0zm6.525.334c-.072.03-.149.053-.222.08.074-.027.15-.05.222-.08zm-.648.223a7.265 7.265 0 0 1-.192.05c.065-.016.129-.032.192-.05zm-4.522.007c.21.06.427.108.647.15a7.647 7.647 0 0 1-.47-.107c-.06-.015-.12-.026-.177-.043zm.647.15zm3.265-.011c-.098.02-.198.039-.298.055a8.06 8.06 0 0 0 .299-.055zm-.517.084zm-2.19.012z" fill="currentColor"/><path class="ColorScheme-Text" d="M6.408 5c-.89 0-1.865.37-2.814 1.285-.685 1.166-1.249 2.38-1.479 3.535a7.99 7.99 0 0 0-.095.742 5.226 5.226 0 0 0-.008.305v.006c0 .023.003.046.004.068a5.342 5.342 0 0 0 .062.692v.006c.019.102.049.202.076.302.032.12.063.239.106.354.073.186.164.368.273.543.018.028.028.06.047.088.014.02.033.038.047.058.032.046.071.087.105.131.07.088.136.178.213.26.044.045.093.087.139.13a3.982 3.982 0 0 0 .463.384c.057.04.12.077.18.115.058.037.115.078.175.113l.022.012c.051.03.1.06.154.088l.004.002c.18.094.364.182.559.26h.002c.164.065.338.12.511.173.042.013.081.03.123.041h.002c.058.017.118.028.176.043a7.647 7.647 0 0 0 .717.15c.103.017.208.029.312.042.355.043.714.071 1.075.07.03 0 .06-.003.091-.004a8.561 8.561 0 0 0 1.024-.078c.073-.01.146-.018.219-.03a7.972 7.972 0 0 0 .671-.138l.026-.006.213-.056c.126-.037.247-.08.369-.123l.055-.02c.073-.027.15-.05.222-.08a5.65 5.65 0 0 0 .528-.248c-.709-1.113-6.095-.679-5.977-4.322C5.051 8.318 6.148 6.965 7.498 7c1.028.027 2.4.351 3.234 2.05C11.78 8.673 9.308 4.998 6.408 5z" opacity=".3" fill="currentColor" fill-rule="evenodd"/></svg>