<svg xmlns="http://www.w3.org/2000/svg" width="16" height="16"><defs><style id="current-color-scheme" type="text/css"></style></defs><path d="M6.379 2s-1.76-.043-3.625 1.498S0 8.229 0 12.824c0 0 2.138 2.075 5 2.176 0 0 .612-.452 1-1-1.644-.547-2.56-2.367-2.56-2.367C4.954 12.586 6.428 12.983 8 13c1.571-.017 3.045-.414 4.56-1.367 0 0-.916 1.82-2.56 2.367.388.548 1 1 1 1 2.862-.101 5-2.176 5-2.176 0-4.595-.89-7.785-2.754-9.326C11.382 1.957 9.621 2 9.621 2l-.129.172c2.33.735 3.39 2.373 3.39 2.373s-.284-.172-.763-.402C10.666 3.358 9.333 3 8 3c-1.333 0-2.666.358-4.12 1.143-.478.23-.763.402-.763.402s1.06-1.638 3.39-2.373L6.38 2zM5.5 8c.838 0 1.515.668 1.5 1.5 0 .832-.662 1.5-1.5 1.5-.823 0-1.5-.668-1.5-1.5S4.662 8 5.5 8zm5 0c.838 0 1.5.668 1.5 1.5s-.677 1.5-1.5 1.5C9.662 11 9 10.332 9 9.5A1.482 1.482 0 0 1 10.5 8z" fill="currentColor" color="#dfdfdf"/></svg>