<svg xmlns="http://www.w3.org/2000/svg" width="16" height="16"><defs><style id="current-color-scheme" type="text/css"></style></defs><path d="M4.447 1l.002.004L.008 3.508 4 5.986 0 9.004 4.45 11.5 8 9.01 4 6l4-2.492 4 2.506-1.736 1.3A5 5 0 0 1 12 7a5 5 0 0 1 1.793.338L12 5.996l3.99-2.49L11.55 1 8 3.492 4.447 1zM12 8a4 4 0 1 0 0 8 4 4 0 0 0 0-8zm3.97.967a5 5 0 0 1 .02.03L16 8.99l-.03-.023zm-5.613.666l-.003.013L12 11.293l1.646-1.647.708.708L12.707 12l1.647 1.646-.708.708-1.642-1.66-1.647 1.646-.707-.707 1.647-1.647L9.65 10.34l.707-.707zm-3.144.93l-2.764 1.939-.888-.498v.371L8 15l.006-.002A5 5 0 0 1 7 12a5 5 0 0 1 .213-1.438z" fill="currentColor" color="#dfdfdf"/></svg>