<svg xmlns="http://www.w3.org/2000/svg" width="16" height="16"><defs><style id="current-color-scheme" type="text/css"></style></defs><path d="M4.447 1l.002.004L.008 3.508 4 5.986 0 9.004 4.45 11.5 8 9.01 4 6l4-2.492 4 2.506-1.736 1.3A5 5 0 0 1 12 7a5 5 0 0 1 1.793.338L12 5.996l3.99-2.49L11.55 1 8 3.492 4.447 1zM12 8a4 4 0 1 0 0 8 4 4 0 0 0 0-8zm0 1v1a2 2 0 0 0-2 2H9a3 3 0 0 1 3-3zm-4.787 1.563l-2.764 1.939-.888-.498v.371L8 15l.006-.002A5 5 0 0 1 7 12a5 5 0 0 1 .213-1.438zM14 12h1a3 3 0 0 1-3 3v-1a2 2 0 0 0 2-2z" fill="currentColor" color="#dfdfdf"/></svg>