<svg xmlns="http://www.w3.org/2000/svg" width="16" height="16"><defs><style id="current-color-scheme" type="text/css"></style></defs><path d="M4.447 1l.002.004L.008 3.508 4 5.986 0 9.004 4.45 11.5 8 9.01 4 6l4-2.492 4 2.506-1.736 1.3A5 5 0 0 1 12 7a5 5 0 0 1 1.793.338L12 5.996l3.99-2.49L11.55 1 8 3.492 4.447 1zM12 8a4 4 0 0 0-4 4 4 4 0 0 0 4 4 4 4 0 0 0 4-4 4 4 0 0 0-4-4zm3.97.967a5 5 0 0 1 .02.03L16 8.99l-.03-.023zm-1.77.295a3.5 3.5 0 0 1 .433.422 3.5 3.5 0 0 1 .002.002 3.5 3.5 0 0 1 .713 1.294 3.5 3.5 0 0 1 .105.438 3.5 3.5 0 0 1 .041.46 3.561 3.561 0 0 0-.043-.458 3.001 3.001 0 0 0-.105-.438 3.867 3.867 0 0 0-.159-.416l-3.18 3.635-.345.406-.39-.375L9.77 12.73a.529.529 0 0 1 0-.72.528.528 0 0 1 .718 0l1.127 1.127 3.018-3.453a3.61 3.61 0 0 0-.434-.422zm-6.987 1.3l-2.764 1.94-.888-.498v.371L8 15l.006-.002A5 5 0 0 1 7 12a5 5 0 0 1 .213-1.438z" fill="currentColor" color="#dfdfdf"/></svg>