<svg xmlns="http://www.w3.org/2000/svg" width="16" height="16"><defs><style id="current-color-scheme" type="text/css"></style></defs><path d="M7.027 1.002c-.467-.01-.971.034-1.135.078-.263.072-.556.215-.715.44-.108.153-.18.343-.18.615 0 .153.003-.086.006.232.005.318.01.433.01.433 0 .284-.237.225-.53.225H3.235c-1.283 0-1.29 2.054-1.203 3.02.048.36.452 2.9.836 3.672.151.296.25.425.543.556.651.272 2.143.572 2.84.66.694.085 1.134.27 1.393-.261 0 0 .052-.133.125-.328a5.135 5.135 0 0 0 .255-1.684c0-.047.069-.047.069 0 0 .302-.06 1.371.771 1.66.328.114 1.01.21 1.7.291.624.069 1.076.311 1.076 1.873 0 .951-.202 1.516-1.276 1.516C9.497 14 9 14.182 9 13.512c0-.543.517-.484.927-.484.18 0 .047-.131.047-.467 0-.335.215-.525.013-.53C8.574 11.995 8 12.028 8 13.752 8 15.312 8.558 15 10.563 15c1.572 0 2.126-.052 2.773-2.012.13-.387.441-1.57.63-3.552.121-1.256-.11-5.042-.296-6-.104-.557-.448-.733-.754-.843-1.29-.526-2.41-.576-3.824-.618-.06-.39-.34-.616-.65-.739-.417-.163-.948-.225-1.415-.234zm4.012 5C11.881 6.042 12 7.209 12 8a2.532 2.532 0 0 0-1.271-.404 2.62 2.62 0 0 0-.729.058c.068-.754.281-1.695 1.04-1.652z" fill="currentColor" color="#dfdfdf"/></svg>