<svg xmlns="http://www.w3.org/2000/svg" width="16" height="16"><defs><style id="current-color-scheme" type="text/css"></style></defs><path d="M8 1a7 7 0 0 0-7 7 7 7 0 0 0 7 7 7 7 0 0 0 7-7 7 7 0 0 0-7-7zM4.5 5A1.5 1.5 0 0 1 6 6.5 1.5 1.5 0 0 1 4.5 8 1.5 1.5 0 0 1 3 6.5 1.5 1.5 0 0 1 4.5 5zm7 0A1.5 1.5 0 0 1 13 6.5 1.5 1.5 0 0 1 11.5 8 1.5 1.5 0 0 1 10 6.5 1.5 1.5 0 0 1 11.5 5zm.49 3.98A1 1 0 0 1 13 10s-.009.315-.113.629c-.105.314-.312.71-.68 1.078C11.471 12.443 10.167 13 8 13s-3.471-.557-4.207-1.293a2.796 2.796 0 0 1-.68-1.078C3.01 10.315 3 10 3 10a1 1 0 0 1 .984-1.014 1 1 0 0 1 1.014.989c0-.006.005-.006.014.021.02.061.063.165.195.297.264.264.96.707 2.793.707 1.833 0 2.529-.443 2.793-.707a.736.736 0 0 0 .195-.297c.01-.027.011-.025.012-.02a1 1 0 0 1 .99-.996z" fill="currentColor" color="#dfdfdf"/></svg>