<svg xmlns="http://www.w3.org/2000/svg" width="16" height="16"><defs><style id="current-color-scheme" type="text/css">.ColorScheme-Text{color:#dfdfdf}</style></defs><path class="ColorScheme-Text" d="M8 1a7 7 0 0 0-7 7 7 7 0 0 0 7 7 7 7 0 0 0 7-7h-2a5 5 0 0 1-5 5 5 5 0 0 1-5-5 5 5 0 0 1 5-5V1zm0 3a4 4 0 0 0-4 4 4 4 0 0 0 4 4 4 4 0 0 0 4-4h-2a2 2 0 0 1-2 2 2 2 0 0 1-2-2 2 2 0 0 1 2-2V4z" fill="currentColor" opacity=".3"/><circle cx="8" cy="8" r="1" fill="currentColor" color="#5294e2"/><path class="ColorScheme-Text" d="M8 1v2a5 5 0 0 1 5 5h2a7 7 0 0 0-7-7zm0 3v2a2 2 0 0 1 2 2h2a4 4 0 0 0-4-4z" fill="currentColor"/></svg>