<svg xmlns="http://www.w3.org/2000/svg" width="16" height="16" version="1"><defs><style id="current-color-scheme" type="text/css"></style></defs><path d="M7.936 1.012L2.133 3.049c-.08.028-.133.416-.133.5C2 12 7.97 14.997 8 15c0 0 6-3 6-11.451 0-.084-.054-.472-.133-.5L8.064 1.012a.189.189 0 0 0-.128 0zM8 3.109l3.852 1.352c-.307 4.728-2.493 7.173-3.813 8.139a8.966 8.966 0 0 1-1.51-1.434C5.401 9.804 4.371 7.604 4.156 4.459zm-1 .903v4h2v-4zM8 9a1 1 0 1 0 0 2 1 1 0 0 0 0-2z" fill="currentColor" color="#5294e2"/></svg>