<svg xmlns="http://www.w3.org/2000/svg" width="16" height="16" version="1"><defs><style id="current-color-scheme" type="text/css">.ColorScheme-Text{color:#dfdfdf}</style></defs><path class="ColorScheme-Text" d="M7.936 1.012L2.133 3.049c-.08.028-.133.416-.133.5C2 12 7.97 14.997 8 15c0 0 6-3 6-11.451 0-.084-.054-.472-.133-.5L8.064 1.012a.189.189 0 0 0-.128 0zM8 3.109l3.852 1.352c-.307 4.728-2.493 7.173-3.813 8.139a8.966 8.966 0 0 1-1.51-1.434C5.401 9.804 4.371 7.604 4.156 4.459L8 3.109z" fill="currentColor"/><path class="ColorScheme-Text" d="M7.935 1.011L2.132 2.75c-.079.028-.132.415-.132.5 0 2.075.548 4.476 1.503 6.583.775 1.71 2.169 3.99 4.406 5.146A.21.21 0 0 0 8 15c.03 0 .062-.008.09-.022 2.238-1.156 3.632-3.436 4.407-5.146C13.452 7.724 14 5.324 14 3.25c0-.085-.053-.472-.132-.5L8.065 1.011a.193.193 0 0 0-.13 0z" fill="none"/><path d="M7 4.012v4h2v-4zM8 9a1 1 0 1 0 0 2 1 1 0 0 0 0-2z" fill="currentColor" color="#5294e2"/></svg>