<svg xmlns="http://www.w3.org/2000/svg" width="16" height="16"><defs><style id="current-color-scheme" type="text/css">.ColorScheme-Text{color:#dfdfdf}</style></defs><path class="ColorScheme-Text" d="M10 4a1 1 0 0 0-1 1 1 1 0 0 0 1 1 1 1 0 0 0 1-1 1 1 0 0 0-1-1zM6.443 9.01c-.595-.018-1.233.105-1.968.402-.797.324-1.717.802-2.776 1.633A7.007 7.007 0 0 0 8 15a6.968 6.968 0 0 0 5.293-2.424c-2.1-1.181-3.63-2.508-5.145-3.164-.56-.236-1.11-.393-1.705-.402z" fill="currentColor"/><path class="ColorScheme-Text" d="M8 1C4.133 1 1 4.133 1 8c0 .744.123 1.479.36 2.188 1.023-.797 1.932-1.34 2.78-1.69.832-.332 1.603-.473 2.329-.455a5.423 5.423 0 0 1 2.021.465c1.768.761 3.307 2.205 5.346 3.351A6.998 6.998 0 0 0 8 1zm2 2a2 2 0 0 1 2 2 2 2 0 0 1-2 2 2 2 0 0 1-2-2 2 2 0 0 1 2-2z" opacity=".3" fill="currentColor"/></svg>