<svg xmlns="http://www.w3.org/2000/svg" width="16" height="16"><defs><style id="current-color-scheme" type="text/css">.ColorScheme-Text{color:#dfdfdf}</style></defs><path class="ColorScheme-Text" d="M1.8 1c-.442 0-.8.311-.8.7v11.6c0 .388.358.7.8.7h12.4c.442 0 .8-.312.8-.7V1.7c0-.389-.358-.7-.8-.7H9v4h2v1H9v1h2v1H9V7H6v1H3V7h2V4H3V3h2V1zM10 3h3v1h-3zM3 5h2v1H3zm9 0h1v1h-1zm0 2h1v1h-1zM3 9h2v1H3zm6 0h3v1H9zm3 0h1v1h-1zm-9 2h1v1H3zm2 0h2v1H5zm4 0h3v1H9z" fill="currentColor"/><path class="ColorScheme-Text" d="M6 .5V6h2V.5S7.919 0 7 0 6 .5 6 .5z" opacity=".3" fill="currentColor"/></svg>