<svg xmlns="http://www.w3.org/2000/svg" width="16" height="16"><defs><style id="current-color-scheme" type="text/css"></style></defs><path d="M1.02 1C-.33.974-.344 3.006 1.006 2.998v10.99c-.02 1.346 2 1.35 1.996.014h-.004V1.971A.996.996 0 0 0 2.006 1H1.02zm2.978 1v10.988h1.006v1.274c0 .726.726.724.726.724h1.274v-1.998h1.998v1.994h2v-1.994h2v1.996h1.271s.727.002.727-.724v-1.272h.3a.69.69 0 0 0 .7-.685V2.686A.69.69 0 0 0 15.3 2H3.999zM9 4h2v2H9V4zm0 3h2v4H9V7z" fill="currentColor" color="#dfdfdf"/></svg>