<svg xmlns="http://www.w3.org/2000/svg" width="16" height="16"><defs><style id="current-color-scheme" type="text/css"></style></defs><path d="M1.019 1C-.331.974-.344 3.006 1.005 2.998v10.99c-.019 1.345 2.001 1.349 1.998.013h-.004V1.97A.996.996 0 0 0 2.005 1zm2.98 1v10.989h1.005v1.272c0 .726.726.726.726.726h1.274v-1.998h1.998v1.994h2v-1.994h2v1.996h1.272s.726 0 .726-.726v-1.27h.301a.691.691 0 0 0 .699-.687V2.686A.691.691 0 0 0 15.301 2zm2.005 1.997h3.998a1 1 0 0 1 .781 1.624L8.085 8.992h1.917c1.352-.019 1.352 2.018 0 1.999H6.004a1 1 0 0 1-.781-1.624L7.92 5.995H6.004c-1.352.02-1.352-2.017 0-1.998zm6.505 0h1.992a.5.5 0 0 1 .415.777l-1.476 2.22h1.06c.676-.01.676 1.009 0 1H12.51a.5.5 0 0 1-.418-.777l1.476-2.22H12.51c-.676.009-.676-1.01 0-1z" fill="currentColor" color="#dfdfdf"/></svg>