<svg height="16" width="16" xmlns="http://www.w3.org/2000/svg"><g fill="#dfdfdf"><path d="M9 0C8 0 8 1 8 1v14s0 1 1 1h6c1 0 1-1 1-1V1s0-1-1-1zm1 2.003h4v11h-4z"/><path d="M2.5 0c-.277 0-.5.223-.5.5V1L0 .998v14.501c0 .277.223.5.5.5h5a.5.5 0 0 0 .5-.5V1L5.5 1H4V.5c0-.277-.223-.5-.5-.5z" color="#bebebe" opacity=".35" stroke-width="0" stroke-linecap="round" stroke-linejoin="round"/><path d="M0 9.998V15.5c0 .277.223.5.5.5h5c.277 0 .5-.223.5-.5V9.998z" color="#bebebe" stroke-width="0" stroke-linecap="round" stroke-linejoin="round"/></g></svg>