<svg xmlns="http://www.w3.org/2000/svg" width="16" height="16"><defs><style id="current-color-scheme" type="text/css">.ColorScheme-Text{color:#dfdfdf}</style></defs><path class="ColorScheme-Text" d="M8 0L5.81 2H3v2.81L.72 7H4c0-2.21 1.79-4 4-4s4 1.79 4 4h3.28L13 5V2h-2.78zm0 4a3 3 0 0 0-3 3h3z" opacity=".3" fill="currentColor"/><path class="ColorScheme-Text" d="M15 9c0-.554-.446-1-1-1H1c-.554 0-1 .446-1 1v5c0 .554.446 1 1 1h13c.554 0 1-.446 1-1zm-3 0v1h-1V9zm0 2v1h-1v-1zm-1 2v1H4v-1zm-1-4v1H9V9zm0 2v1H9v-1zM8 9v1H7V9zm0 2v1H7v-1zM6 9v1H5V9zm0 2v1H5v-1zM4 9v1H3V9zm0 2v1H3v-1z" fill="currentColor" fill-rule="evenodd" opacity=".3"/></svg>