<svg xmlns="http://www.w3.org/2000/svg" width="16" height="16"><path d="M1.02 1C-.33.974-.344 3.006 1.006 2.998v10.99c-.02 1.346 2 1.35 1.996.014h-.004V1.971A.996.996 0 0 0 2.006 1H1.02zm2.978 1v10.988h1.006v1.274c0 .726.726.724.726.724h1.274v-1.998h1.998v1.994h2v-1.994H13V7.994h-.49a.5.5 0 0 1-.418-.777l1.474-2.22H12.51c-.676.009-.676-1.009 0-.999h1.99c.4 0 .637.443.416.775l-1.477 2.221H14.5c.012 0 .02.006.031.006H16V2.686A.69.69 0 0 0 15.3 2H3.999zm2.006 1.998h3.998a.999.999 0 0 1 .781 1.623L8.084 8.992h1.918c1.352-.019 1.352 2.017 0 1.998H6.004a.999.999 0 0 1-.781-1.623l2.697-3.37H6.004c-1.352.018-1.352-2.018 0-1.999z" opacity=".3" fill="currentColor" color="#dfdfdf"/><path d="M14 8v4h2V8h-2zm0 5v2h2v-2h-2z" fill="currentColor" color="#5294e2"/></svg>