<svg xmlns="http://www.w3.org/2000/svg" width="16" height="16"><defs><style id="current-color-scheme" type="text/css"></style></defs><path d="M2.713 1a.644.644 0 0 0-.455.19C2.09 1.356 2 1.627 2 1.978v12.039c0 .35.098.62.258.787.243.246.623.27 1.056.008l10.14-6.032c.73-.43.73-1.129 0-1.566l-.411-.246-.186-.11A4.994 4.994 0 0 0 8 3c-.46 0-.897.083-1.32.2L3.314 1.181A1.155 1.155 0 0 0 2.713 1zM8 4l.02.002a3.988 3.988 0 0 1 3.578 2.281c.035.074.076.145.107.22l.002.007c.078.193.138.394.186.601.013.06.024.121.035.182.04.23.072.465.072.707 0 .17-.027.33-.047.494l-5.406 3.223c-.018-.007-.037-.012-.055-.02-.117-.048-.229-.106-.34-.164-.078-.04-.157-.08-.232-.127a3.97 3.97 0 0 1-.266-.181 4.017 4.017 0 0 1-.25-.194 3.994 3.994 0 0 1-.22-.205 4.02 4.02 0 0 1-.213-.226 3.997 3.997 0 0 1-.37-.51 3.989 3.989 0 0 1-.15-.26 3.993 3.993 0 0 1-.129-.285c-.04-.098-.084-.194-.117-.295-.036-.11-.061-.227-.088-.342-.02-.088-.048-.175-.062-.265A4.017 4.017 0 0 1 4 8a4 4 0 0 1 4-4zm0 2a2 2 0 0 0-2 2 2 2 0 0 0 2 2 2 2 0 0 0 2-2 2 2 0 0 0-2-2z" fill="currentColor" color="#dfdfdf"/></svg>