<svg xmlns="http://www.w3.org/2000/svg" width="16" height="16"><defs><style id="current-color-scheme" type="text/css"></style></defs><path d="M2.75 1C1.78 1 1 1.78 1 2.75v10.5c0 .97.78 1.75 1.75 1.75h10.5c.97 0 1.75-.78 1.75-1.75V2.75C15 1.78 14.22 1 13.25 1H2.75zM6 2h1v1h3v2H7v1h1c.75 0 1.44.317 1.873.805.433.487.627 1.098.627 1.695s-.194 1.21-.627 1.697C9.44 10.685 8.75 11 8 11H7v1H6v-1H3V9h3V8H5c-.75 0-1.44-.315-1.873-.803A2.537 2.537 0 0 1 2.5 5.5c0-.597.194-1.208.627-1.695C3.56 3.317 4.25 3 5 3h1V2zM5 5c-.25 0-.31.06-.377.135A.574.574 0 0 0 4.5 5.5a.58.58 0 0 0 .123.367C4.69 5.942 4.75 6 5 6h1V5H5zm2 3v1h1c.25 0 .31-.058.377-.133A.577.577 0 0 0 8.5 8.5a.571.571 0 0 0-.123-.365C8.31 8.06 8.251 8 8 8H7zm2 4h4v1H9v-1z" fill="currentColor" color="#dfdfdf"/></svg>