<svg xmlns="http://www.w3.org/2000/svg" width="16" height="16"><defs><style id="current-color-scheme" type="text/css"></style></defs><path d="M7.5 1A6.5 6.5 0 0 0 1 7.5a6.5 6.5 0 0 0 6.041 6.477C7.038 14.875 7 16 7 16c3.95-.49 7-3.918 7-8 0-.092-.009-.17-.012-.258.006-.08.01-.161.012-.242A6.5 6.5 0 0 0 7.5 1zm-.828 4.988c.208 0 .38.203.312.402.016.038.014.078.014.118v2.568c0 .765-.495 1.48-1.223 1.773-.018.008-.036.019-.054.028l-.03.008-.017.007a3.789 3.789 0 0 1-.461.1c-.12.017-.157-.05-.158-.166-.002-.081-.002-.162-.002-.244l.004-.44-.002-.097c0-.112.113-.16.258-.192.183-.04.232-.098.375-.226.17-.154.273-.416.312-.633l-1.498-.002a8.59 8.59 0 0 1-.16-.002c-.202-.003-.34-.4-.34-.598L4.004 6.4l-.002-.023c-.016-.145.027-.264.16-.344a.315.315 0 0 1 .168-.043l2.342-.002zm4.002 0c.208 0 .377.203.31.402.016.038.014.078.014.118v2.568c-.001.765-.497 1.48-1.225 1.773-.018.008-.032.019-.05.028l-.032.008-.015.007a3.811 3.811 0 0 1-.463.1c-.12.017-.155-.05-.156-.166-.002-.081-.002-.162-.002-.244l.002-.44-.002-.097c0-.112.112-.16.256-.192.183-.04.233-.098.375-.226.17-.154.273-.416.312-.633l-1.494-.002-.162-.002c-.202-.003-.34-.4-.34-.598 0-.774 0-1.217.002-1.992v-.023c-.016-.145.025-.263.158-.344a.306.306 0 0 1 .166-.043l2.346-.002z" fill="currentColor" color="#dfdfdf"/></svg>