<svg xmlns="http://www.w3.org/2000/svg" width="16" height="16"><path d="M3.945 2a.888.888 0 0 0-.763.428L.119 7.568a.837.837 0 0 0 0 .862l3.063 5.142a.89.89 0 0 0 .763.428h6.114a.886.886 0 0 0 .761-.428l3.06-5.142a.836.836 0 0 0 0-.862l-3.06-5.14A.887.887 0 0 0 10.06 2H3.945zm.63 2H9.43l.058.098L7 6.586 4.514 4.1l.06-.1zm5.968 1.871L11.809 8l-1.266 2.129L8.414 8l2.129-2.129zm-7.084.002L5.586 8l-2.127 2.127L2.191 8 3.46 5.873zM7 9.414L9.486 11.9l-.058.1H4.574l-.06-.1L7 9.414z" fill="currentColor" color="#dfdfdf"/><path d="M12.432 2c-.344 0-.542.349-.368.602l.762 1.099.757 1.098c.187.268.65.268.835 0l.76-1.098.758-1.099c.183-.267-.048-.6-.416-.602z" fill="currentColor" color="#5294e2"/></svg>