<svg xmlns="http://www.w3.org/2000/svg" width="16" height="16"><path d="M7.5.947C3.405.947 0 4.067 0 7.98c0 3.91 3.405 7.03 7.5 7.03a.938.938 0 0 0 .002 0c.574 0 1.137-.11 1.695-.234 1.152.759 2.497 1.442 4.094 1.155a.938.938 0 0 0 .516-1.565c-.547-.577-.835-.938-.852-1.707 1.248-1.282 2.043-2.914 2.045-4.68 0-3.91-3.405-7.03-7.5-7.03zm0 1.998c3.078 0 5.499 2.283 5.5 5.032-.001 1.165-.526 2.31-1.479 3.289l-.584.6.018.835c.007.317.16.59.248.887-.291-.143-.573-.263-.906-.483l-.705-.466-.826.181c-.525.116-.945.189-1.266.19-3.079 0-5.5-2.281-5.5-5.031 0-2.75 2.421-5.034 5.5-5.034zm-3.021 5.55a.5.5 0 0 0-.454.663s.185.52.711.97C5.263 10.58 6.15 11 7.5 11c1.35 0 2.237-.42 2.764-.871.526-.452.71-.97.71-.97a.5.5 0 0 0-.949-.317s-.065.23-.414.53C9.263 9.67 8.65 10 7.5 10c-1.15 0-1.763-.33-2.111-.629-.349-.298-.414-.53-.414-.53a.5.5 0 0 0-.496-.347z" fill="currentColor" color="#dfdfdf"/><circle cx="7.5" cy="6.5" r="1.5" fill="currentColor" color="#5294e2"/></svg>