<svg xmlns="http://www.w3.org/2000/svg" width="16" height="16"><defs><style id="current-color-scheme" type="text/css">.ColorScheme-Text{color:#dfdfdf}</style></defs><path class="ColorScheme-Text" d="M1 0C.446 0 0 .446 0 1v14c0 .554.446 1 1 1h14c.554 0 1-.446 1-1V1c0-.554-.446-1-1-1zm.5 1a.5.5 0 0 1 .5.5.5.5 0 0 1-.5.5.5.5 0 0 1-.5-.5.5.5 0 0 1 .5-.5zM8 1a7 7 0 0 1 7 7 7 7 0 0 1-7 7 7 7 0 0 1-7-7 7 7 0 0 1 7-7zm6.5 0a.5.5 0 0 1 .5.5.5.5 0 0 1-.5.5.5.5 0 0 1-.5-.5.5.5 0 0 1 .5-.5zm-13 13a.5.5 0 0 1 .5.5.5.5 0 0 1-.5.5.5.5 0 0 1-.5-.5.5.5 0 0 1 .5-.5zm13 0a.5.5 0 0 1 .5.5.5.5 0 0 1-.5.5.5.5 0 0 1-.5-.5.5.5 0 0 1 .5-.5z" fill="currentColor"/><circle class="ColorScheme-Text" cx="8" cy="8" r="2" fill="currentColor"/><path class="ColorScheme-Text" d="M9.002 2.102a1 1 0 0 0-1.002 1V5a3 3 0 0 1 2.344 1.129c.789-.17 1.455-.328 2.129-.486.894-.211.533-.99.175-1.43A5.999 5.999 0 0 0 9.201 2.12a1.002 1.002 0 0 0-.199-.02zM13.897 9c.001-.6-.447-1-1-1h-1.898a3 3 0 0 1-1.129 2.3c.17.8.327 1.5.486 2.2.211.9.989.5 1.43.1 1.073-.8 1.813-2 2.092-3.4.013-.1.019-.1.019-.2zM6.997 13.9c.553 0 1.002-.4 1.002-1V11a3 3 0 0 1-2.344-1.1c-.79.1-1.455.3-2.129.5-.894.2-.533.9-.176 1.4.874 1.1 2.092 1.8 3.448 2.1h.199zM2.102 7c-.001.6.447 1 1 1H5a3 3 0 0 1 1.13-2.3c-.171-.8-.328-1.5-.487-2.2-.211-.9-.99-.5-1.43-.1-1.073.8-1.813 2-2.092 3.4-.013.1-.02.1-.02.2z" fill="currentColor"/></svg>