<svg xmlns="http://www.w3.org/2000/svg" width="16" height="16"><defs><style id="current-color-scheme" type="text/css"></style></defs><path d="M3.348 0a.258.258 0 0 0-.254.262V1.83a1.538 1.538 0 0 0-1.265 1.264H.262a.258.258 0 1 0 0 .517h1.54v2.582H.263a.258.258 0 1 0 0 .516h1.54v2.582H.263a.259.259 0 1 0 0 .517h1.54v2.582H.263a.258.258 0 1 0 0 .516h1.567a1.54 1.54 0 0 0 1.265 1.265v1.567a.258.258 0 1 0 .516 0v-1.541h2.582v1.541a.258.258 0 1 0 .517 0v-1.541H9.29v1.541a.258.258 0 1 0 .516 0v-1.541h2.582v1.541a.259.259 0 1 0 .517 0v-1.567a1.538 1.538 0 0 0 1.264-1.265h1.568a.258.258 0 0 0 .262-.262.258.258 0 0 0-.262-.254h-1.541V9.808h1.541A.258.258 0 0 0 16 9.545a.258.258 0 0 0-.262-.254h-1.541V6.709h1.541a.258.258 0 0 0 .263-.262.258.258 0 0 0-.262-.254h-1.541V3.611h1.541a.258.258 0 0 0 .262-.262.258.258 0 0 0-.262-.254h-1.568a1.54 1.54 0 0 0-1.265-1.265V.262A.258.258 0 0 0 12.643 0a.258.258 0 0 0-.254.263v1.54H9.807V.264A.258.258 0 0 0 9.545 0a.258.258 0 0 0-.254.263v1.54H6.709V.264A.258.258 0 0 0 6.447 0a.258.258 0 0 0-.254.263v1.54H3.61V.264A.258.258 0 0 0 3.349 0z" fill="currentColor" color="#dfdfdf"/></svg>