<svg xmlns="http://www.w3.org/2000/svg" width="16" height="16"><defs><style id="current-color-scheme" type="text/css">.ColorScheme-Text{color:#dfdfdf}</style></defs><path class="ColorScheme-Text" d="M8 1.003A7 7 0 1 0 8 15a7.04 7.04 0 0 0 .82-.056C6.73 13.369 5 10.832 5 8.034 5 5.2 6.731 2.686 8.823 1.086A6.998 6.998 0 0 0 8 1z" fill="currentColor"/><path class="ColorScheme-Text" d="M10.003 1.266C7.753 2.665 6 5.115 6 8.002c0 2.839 1.752 5.316 4.003 6.701A7 7 0 0 0 15 7.967a6.998 6.998 0 0 0-4.997-6.703z" opacity=".3" fill="currentColor"/></svg>