<svg xmlns="http://www.w3.org/2000/svg" width="16" height="16"><defs><style id="current-color-scheme" type="text/css"></style></defs><path d="M5.786 1.203C2.842 2.055.764 4.346 1.022 7.532c.296 3.675 5.623 7.391 7.71 7.468.909-.215.382-3.125-.153-5.321-.15-.594-.3-1.185-.474-1.78l-.14-.489c-.285-.956-.63-2.048-1.194-3.783A.488.488 0 0 1 7.7 3.32c.978 3.008 1.366 4.33 1.764 5.883 1.571 1.969 3.855 4.662 4.593 4.495 1.138-.26 1.551-7.836-.526-10.172C11.455 1.19 8.706.641 5.786 1.203z" fill="currentColor" color="#dfdfdf"/></svg>