<svg xmlns="http://www.w3.org/2000/svg" width="16" height="16"><defs><style id="current-color-scheme" type="text/css">.ColorScheme-Text{color:#dfdfdf}</style></defs><path class="ColorScheme-Text" d="M3.108 1a1 1 0 0 1 .906 1v13a1 1 0 1 1-2 0V3h-1a1 1 0 1 1 0-2h2a1 1 0 0 1 .094 0z" fill="currentColor"/><path class="ColorScheme-Text" d="M3.014 6v3h-3V6h2.5zm-1 1h-1v1h1zM3.014 10v3h-3v-3h2.5zm-1 1h-1v1h1zM16.014 4v12h-10v-2h-1v-2h3v2h6V6h-9V4h10z" fill="currentColor"/><path class="ColorScheme-Text" d="M13.014 7.1v4h-1v-4zm-2 0v4h-1v-4zm-2 0v4h-1v-4zm-2 0v4h-1v-4z" fill="currentColor"/></svg>