<svg xmlns="http://www.w3.org/2000/svg" width="16" height="16"><defs><style id="current-color-scheme" type="text/css"></style></defs><path d="M4.293 1l-1.19 1.19 1.19 1.191 1.19-1.19zm9.331.168a1.262 1.263 0 0 0-1.262 1.263 1.262 1.263 0 0 0 1.262 1.263 1.262 1.263 0 0 0 1.262-1.263 1.262 1.263 0 0 0-1.262-1.263zM2.509 2.786l-1.191 1.19 1.191 1.191 1.19-1.19zm3.569 0l-1.19 1.19 1.19 1.191 1.19-1.19zm5.691.608l-.695.696.892.893.695-.696a2.126 2.126 0 0 1-.892-.893zm-2.767.048L3.925 8.524a6.306 6.306 0 0 1 2.153 1.419 6.331 6.331 0 0 1 1.416 2.153l5.077-5.083zm-4.709 1.13l-1.19 1.19 1.19 1.19 1.19-1.19zm7.732 4.173l-1.19 1.193 1.19 1.19 1.19-1.19zm-10.13.218a3.862 3.862 0 0 0-.54.048.42.421 0 0 0-.23.714l5.144 5.15a.42.421 0 0 0 .714-.231c.231-1.428-.356-2.981-1.5-4.129-1.003-1.003-2.318-1.58-3.588-1.552zm8.346 1.57l-1.19 1.19 1.19 1.191 1.19-1.191zm3.57 0l-1.191 1.19 1.191 1.191L15 11.723zm-1.785 1.786l-1.19 1.19 1.19 1.191 1.19-1.191z" fill="currentColor" color="#dfdfdf"/></svg>