<svg xmlns="http://www.w3.org/2000/svg" width="16" height="16"><defs><style id="current-color-scheme" type="text/css">.ColorScheme-Text{color:#dfdfdf}</style></defs><path class="ColorScheme-Text" d="M2 3v11c0 .554.446 1 1 1h10c.554 0 1-.446 1-1V3zm2.5 2h7a.5.5 0 0 1 .5.5v4a.5.5 0 0 1-.5.5h-7a.5.5 0 0 1-.5-.5v-4a.5.5 0 0 1 .5-.5zM5 6v1h6V6zm0 2v1h6V8zm0 3h1v1h1v-1h1v1h1v-1h1v1h1v-1h1v1h-1v1h1v1h-1v-1h-1v1H9v-1H8v1H7v-1H6v1H5v-1H4v-1h1zm0 1v1h1v-1zm2 1h1v-1H7zm2 0h1v-1H9z" fill="currentColor"/><path class="ColorScheme-Text" d="M2 2l2-1h8l2 1z" fill="currentColor" fill-rule="evenodd"/></svg>