<svg xmlns="http://www.w3.org/2000/svg" width="16" height="16"><defs><style id="current-color-scheme" type="text/css"></style></defs><path d="M5.25 0A.25.25 0 0 0 5 .25v1.5c0 .139.112.25.25.25h.5A.25.25 0 0 0 6 1.75V.25A.25.25 0 0 0 5.75 0zm4 0A.25.25 0 0 0 9 .25v1.5c0 .139.112.25.25.25h.5a.25.25 0 0 0 .25-.25V.25A.25.25 0 0 0 9.75 0zm4 0a.25.25 0 0 0-.25.25v1.5c0 .139.112.25.25.25h.5a.25.25 0 0 0 .25-.25V.25a.25.25 0 0 0-.25-.25zm-10 2C2.558 2 2 2.558 2 3.25v.775c.572.116 1 .618 1 1.225v.5c0 .607-.428 1.11-1 1.225v1.05c.572.116 1 .618 1 1.225v.5c0 .607-.428 1.109-1 1.225v1.05c.572.116 1 .618 1 1.225v.5c0 .599-.418 1.095-.978 1.219A1.245 1.245 0 0 0 3.25 16h11.5c.692 0 1.25-.558 1.25-1.25V3.25c0-.609-.431-1.111-1.006-1.225A.994.994 0 0 1 14 3h-1c-.554 0-1-.446-1-1h-1c0 .554-.446 1-1 1H9c-.554 0-1-.446-1-1H7c0 .554-.446 1-1 1H5c-.554 0-1-.446-1-1zM5 4h9c.554 0 1 .446 1 1v9c0 .554-.446 1-1 1H5c-.554 0-1-.446-1-1V5c0-.554.446-1 1-1zM.25 5a.25.25 0 0 0-.25.25v.5c0 .138.112.25.25.25h1.5A.25.25 0 0 0 2 5.75v-.5A.25.25 0 0 0 1.75 5zm5 0a.25.25 0 0 0-.25.25v8.5c0 .138.112.25.25.25h8.5a.25.25 0 0 0 .25-.25v-8.5a.25.25 0 0 0-.25-.25zm-5 4a.25.25 0 0 0-.25.25v.5c0 .138.112.25.25.25h1.5A.25.25 0 0 0 2 9.75v-.5A.25.25 0 0 0 1.75 9zm0 4a.25.25 0 0 0-.25.25v.5c0 .138.112.25.25.25h1.5a.25.25 0 0 0 .25-.25v-.5a.25.25 0 0 0-.25-.25z" fill="currentColor" color="#dfdfdf"/></svg>