<svg xmlns="http://www.w3.org/2000/svg" width="16" height="16"><defs><style id="current-color-scheme" type="text/css"></style></defs><path d="M2.75 1C1.78 1 1 1.78 1 2.75v10.5c0 .97.78 1.75 1.75 1.75h10.5c.97 0 1.75-.78 1.75-1.75V2.75C15 1.78 14.22 1 13.25 1zm4.746 2a.5.5 0 0 1 .484.363L9.537 8.81l1.488-4.467a.5.5 0 0 1 .969.076l.93 5.582H14v1h-1.5a.5.5 0 0 1-.494-.418l-.668-4.012-1.363 4.088a.5.5 0 0 1-.955-.021L7.56 5.531 5.989 12.61a.5.5 0 0 1-.963.049L3.14 7H2V6h1.5a.5.5 0 0 1 .475.342l1.43 4.287 1.607-7.236A.5.5 0 0 1 7.496 3z" fill="currentColor" color="#dfdfdf"/></svg>