<svg xmlns="http://www.w3.org/2000/svg" width="16" height="16"><defs><style id="current-color-scheme" type="text/css">.ColorScheme-Text{color:#dfdfdf}</style></defs><path class="ColorScheme-Text" d="M8 1C6 1 3 8 3 15c2-3 5-5 6-5s2.112 1 4.112 4C13 8 10 1 8 1z" fill="currentColor" fill-rule="evenodd"/><path class="ColorScheme-Text" d="M8 2a6 6 0 0 0-.781.059c-.497.85-1.037 2.125-1.516 3.62-.668 2.089-1.117 4.578-1.394 7.042a6 6 0 0 0 .052.041c.447-.536.867-1.154 1.307-1.594.589-.589 1.149-1.085 1.668-1.461C7.855 9.331 8.25 9 9 9c.583 0 1.054.279 1.43.598.375.319.703.711 1.052 1.179.046.062.116.177.163.241-.326-1.88-.764-3.778-1.329-5.448C9.833 4.14 9.291 2.896 8.793 2.06A6 6 0 0 0 8 2zM4.494 3.14A6 6 0 0 0 2 8a6 6 0 0 0 .508 2.398A39.54 39.54 0 0 1 3.797 5.07c.22-.689.455-1.329.697-1.93zm7.043.022c.232.561.46 1.138.674 1.77a39.395 39.395 0 0 1 1.367 5.261A6 6 0 0 0 14 8a6 6 0 0 0-2.463-4.838zM9 11c-.055 0-.033.006.023.041C9.087 11.012 9.104 11 9 11zm.023.041c-.089.041-.289.121-.515.285-.388.281-.89.72-1.426 1.256a24.84 24.84 0 0 0-1.016 1.092A6 6 0 0 0 8 14a6 6 0 0 0 2.793-.693 31.499 31.499 0 0 0-.914-1.332c-.304-.407-.566-.702-.742-.852-.061-.051-.084-.064-.114-.082z" fill="currentColor"/></svg>