<svg xmlns="http://www.w3.org/2000/svg" width="16" height="16"><defs><style id="current-color-scheme" type="text/css"></style></defs><path d="M14.75 2a.25.25 0 0 1 .25.25v.5a.25.25 0 0 1-.25.25H13V2zm0 2a.25.25 0 0 1 .25.25v.5a.25.25 0 0 1-.25.25H13V4zm0 2a.25.25 0 0 1 .25.25v.5a.25.25 0 0 1-.25.25H13V6zm0 2a.25.25 0 0 1 .25.25v.5a.25.25 0 0 1-.25.25H13V8zm0 2a.25.25 0 0 1 .25.25v.5a.25.25 0 0 1-.25.25H13v-1zm0 2a.25.25 0 0 1 .25.25v.5a.25.25 0 0 1-.25.25H13v-1zM1.25 2a.25.25 0 0 0-.25.25v.5c0 .139.111.25.25.25H3V2zm0 2a.25.25 0 0 0-.25.25v.5c0 .138.111.25.25.25H3V4zm0 2a.25.25 0 0 0-.25.25v.5c0 .138.111.25.25.25H3V6zm0 2a.25.25 0 0 0-.25.25v.5c0 .138.111.25.25.25H3V8zm0 2a.25.25 0 0 0-.25.25v.5c0 .138.111.25.25.25H3v-1zm0 2a.25.25 0 0 0-.25.25v.5c0 .138.111.25.25.25H3v-1zM5 1h6c.554 0 1 .446 1 1v11c0 .554-.446 1-1 1H5c-.554 0-1-.446-1-1V2c0-.554.446-1 1-1z" fill="currentColor" color="#dfdfdf"/></svg>