<svg xmlns="http://www.w3.org/2000/svg" width="16" height="16"><defs><style id="current-color-scheme" type="text/css"></style></defs><path d="M8 1a4 4 0 0 0-3.998 4.039A3.5 3.5 0 0 0 1 8.499 3.5 3.5 0 0 0 4.5 12H4.092l.29.016c.07.244.292.675.318 1.235.029.606-.526.974-.934 1.328-.104.055-.182.12-.174.142.024.077.5.24.781.268.362.036.864-.01 1.152-.117a2.21 2.21 0 0 0 1.086-.846c.222-.332.339-.66.373-1.043l.03-.967L8.804 12H12a3 3 0 1 0 0-6 2.903 2.903 0 0 0-.133.006A4 4 0 0 0 12 5a4 4 0 0 0-4-4z" fill="currentColor" color="#dfdfdf"/></svg>