<svg xmlns="http://www.w3.org/2000/svg" width="16" height="16"><defs><style id="current-color-scheme" type="text/css">.ColorScheme-Text{color:#dfdfdf}</style></defs><path class="ColorScheme-Text" d="M7.5 1A4.5 4.5 0 0 0 3 5.5a4.5 4.5 0 0 0 3 4.236V14l1.5 2L9 14l1-.5-1-.699v-.75l1-1-1-1v-.315A4.5 4.5 0 0 0 12 5.5 4.5 4.5 0 0 0 7.5 1zm0 1A1.5 1.5 0 0 1 9 3.5 1.5 1.5 0 0 1 7.5 5 1.5 1.5 0 0 1 6 3.5 1.5 1.5 0 0 1 7.5 2zM7 10h1v4H7z" fill="currentColor"/><path class="ColorScheme-Text" d="M13 9c-1.108 0-2 .911-2 2.031V12h-1v4h6v-4h-1v-.969C15 9.911 14.108 9 13 9zm0 1c.554 0 1 .442 1 1v1h-2v-1c0-.558.446-1 1-1z" fill="currentColor"/></svg>