<svg xmlns="http://www.w3.org/2000/svg" width="16" height="16" version="1"><defs><style id="current-color-scheme" type="text/css"></style></defs><path d="M11 1a4 4 0 0 0-4 4 4 4 0 0 0 .557 2.027l-.606.606H6.95L2.71 3.39a1 1 0 0 0-1.416 1.414l4.242 4.242v.002L1.293 13.29a1.001 1.001 0 0 0 1.416 1.416L3.416 14H5v-1.584L5.416 12H7v-1.486l4.193 4.191a.997.997 0 0 0 1.414 0 1 1 0 0 0 0-1.416L8.365 9.05v-.002l.606-.606A4 4 0 0 0 11 9a4 4 0 0 0 4-4 4 4 0 0 0-4-4zm1 2a1 1 0 0 1 1 1 1 1 0 0 1-1 1 1 1 0 0 1-1-1 1 1 0 0 1 1-1z" fill="currentColor" color="#dfdfdf"/></svg>