<svg xmlns="http://www.w3.org/2000/svg" width="16" height="16"><defs><style id="current-color-scheme" type="text/css"></style></defs><path d="M7 1c-.03 0-.34.63-.531 1.008-.28.554-.413.982-.46 1.474-.01.122-.009.242-.001.36a1.984 1.984 0 0 0 .412 1.373A6.014 6.014 0 0 0 2.932 7.79a3.137 3.137 0 0 0-.391.64 5.971 5.971 0 0 0-.361 1.124 5.95 5.95 0 0 0-.137.722c-.003.022.005.027.016.024-.012.095-.027.186-.036.285-.028.319-.03.45-.01.45L6 7l-.96 3.012c.004.005-.107.047.026-.014.819-.377 1.57-.886 2.471-.994.311-.037 1.389-.038 1.713-.004.328.034.641.22.965.422A4 4 0 0 1 12 9a4 4 0 0 1 1.205.186c.088-.247.13-.515.098-.76-.007-.053-.02-.102-.032-.153.022-.052.002-.14-.082-.287a2.805 2.805 0 0 0-.386-.683c-.885-.973-1.966-1.739-3.223-2.09a1.983 1.983 0 0 0 .414-1.365c.002-.051.007-.103.004-.153-.035-.684-.431-1.154-1.03-1.463-.316-.163-.8-.24-1.116-.24C7.37 1.926 7.29 1.28 7 1zM4.553 9.887s-.414.363-1.828 1.851a.993.993 0 0 1-.63.282A6 6 0 0 0 3.538 15h5.004A4 4 0 0 1 8 13a4 4 0 0 1 1.287-2.934c-.03-.011-.135-.071-.14-.072a49.165 49.165 0 0 0-1.49.002c-.597.071-1.252.486-2.167.908l-.006.002-.015.01c-.05.025-.058.03-.139.059-.02.007-.116.033-.117.033l-.26.021-.328-.072-.086-.039.461-.887-.447-.144zM12 10c-1.657 0-3 1.35-3 3s1.343 3 3 3 3-1.35 3-3-1.343-3-3-3zm0 1a2 2 0 0 1 2 2h-1a1 1 0 0 0-1-1v-1zm-7 1a1 1 0 0 1 1 1 1 1 0 0 1-1 1 1 1 0 0 1-1-1 1 1 0 0 1 1-1zm5 1h1a1 1 0 0 0 1 1v1a2 2 0 0 1-2-2z" fill="currentColor" color="#dfdfdf"/></svg>