<svg xmlns="http://www.w3.org/2000/svg" width="16" height="16" version="1"><defs><style id="current-color-scheme" type="text/css"></style></defs><path d="M.8 1c-.442 0-.8.362-.8.813v10.374c0 .451.397.63.8.813H3v1.187c0 .451.372.813.834.813h8.332a.822.822 0 0 0 .834-.813V13h2.199a.805.805 0 0 0 .801-.813V1.813A.806.806 0 0 0 15.199 1zM1 2h14v10H1zm6 1a1 1 0 1 0 0 2 1 1 0 0 0 0-2zm5 0a2 2 0 1 0 0 4 2 2 0 0 0 0-4zM3.5 6a1.5 1.5 0 1 0 0 3 1.5 1.5 0 0 0 0-3zm8.965 2.4a.5.5 0 1 0 .07.998.5.5 0 0 0-.07-.998zM9 9a1 1 0 1 0 0 2 1 1 0 0 0 0-2z" fill="currentColor" color="#dfdfdf"/></svg>