<svg xmlns="http://www.w3.org/2000/svg" width="16" height="16"><defs><style id="current-color-scheme" type="text/css"></style></defs><path d="M8 1a7 7 0 0 0-7 7 7 7 0 0 0 3.031 5.756c.074-.552.37-1.07.782-1.367.136-.1.282-.166.43-.221A5 5 0 0 1 3 8a5 5 0 0 1 5-5 5 5 0 0 1 5 5 5 5 0 0 1-.137 1.14c.13.131.267.26.37.401.418.58.454 1.115.556 1.652l.395.077A7 7 0 0 0 15 8a7 7 0 0 0-7-7zm0 3a4 4 0 0 0-4 4 4 4 0 0 0 2.184 3.563c.034-.342.095-.69.199-1.04A3 3 0 0 1 5 8a3 3 0 0 1 3-3 3 3 0 0 1 3 3 3 3 0 0 1-.006.111c.355.08.682.201.975.354A4 4 0 0 0 12 8a4 4 0 0 0-4-4zm2 5c-2.443 0-2.934 1.974-2.982 3.502 0 .174.016.348.048.52-.16-.06-.53-.092-.703-.092C5.61 12.93 5 13.29 5 14c0 .71.61 1 1.363 1h6.819C14.186 15 15 14.447 15 13.5s-.814-1.5-1.818-1.5h-.135C13 11 12.443 9 10 9z" fill="currentColor" color="#dfdfdf"/></svg>