<svg xmlns="http://www.w3.org/2000/svg" width="16" height="16"><defs><style id="current-color-scheme" type="text/css"></style></defs><path d="M1.701 1A.7.7 0 0 0 1 1.701V14.3a.7.7 0 0 0 .701.701H14.3a.7.7 0 0 0 .701-.701V1.7A.7.7 0 0 0 14.299 1H1.7zM7.5 2c.277 0 .5.334.5.75v10.5c0 .416-.223.75-.5.75s-.5-.334-.5-.75V2.75c0-.416.223-.75.5-.75zm-4 1c.277 0 .5.37.5.832v8.336c0 .461-.223.832-.5.832s-.5-.371-.5-.832V3.832C3 3.371 3.223 3 3.5 3zm6 0c.277 0 .5.32.5.715v8.57c0 .396-.223.715-.5.715s-.5-.319-.5-.715v-8.57C9 3.319 9.223 3 9.5 3zm-4 1c.277 0 .5.358.5.8v6.4c0 .442-.223.8-.5.8s-.5-.358-.5-.8V4.8c0-.442.223-.8.5-.8zm6 0c.277 0 .5.298.5.668v6.664c0 .37-.223.668-.5.668s-.5-.298-.5-.668V4.668c0-.37.223-.668.5-.668z" fill="currentColor" color="#dfdfdf"/></svg>