<svg xmlns="http://www.w3.org/2000/svg" width="16" height="16"><defs><style id="current-color-scheme" type="text/css">.ColorScheme-Text{color:#dfdfdf}</style></defs><path class="ColorScheme-Text" d="M8 1a7 7 0 0 0-7 7 7 7 0 0 0 7 7 7 7 0 0 0 .006 0A5 5 0 0 1 7 12a5 5 0 0 1 .42-2H7L6 8.5V11H4V5h2l2 3 2-3h2v2a5 5 0 0 1 3 1.008A7 7 0 0 0 15 8a7 7 0 0 0-7-7z" fill="currentColor" opacity=".3"/><path class="ColorScheme-Text" d="M12.279 8.008a4 4 0 1 0 0 0zM9.999 10h1v4h-1v-4zm3 0h1v4h-1v-4z" fill="currentColor"/></svg>