<svg xmlns="http://www.w3.org/2000/svg" width="16" height="16"><defs><style id="current-color-scheme" type="text/css">.ColorScheme-Text{color:#dfdfdf}</style></defs><path class="ColorScheme-Text" d="M8 0C6.338 0 5 1.338 5 3v5.002A2.992 2.992 0 0 0 8 11c1.662 0 3-1.336 3-2.998V3c0-1.662-1.338-3-3-3z" opacity=".3" fill="currentColor"/><path class="ColorScheme-Text" d="M2 7v.998C2 10.965 4 14 7 14v2h2v-2c3 0 5-3.035 5-6.001v-.998h-2v.998a3.97 3.97 0 0 1-4 4.002 3.97 3.97 0 0 1-4-4.002v-.998H2z" fill="currentColor"/></svg>