<svg height="16.001" width="16.001" xmlns="http://www.w3.org/2000/svg"><g fill="#dfdfdf"><path d="M2.345.938l12.718 12.719-1.406 1.406L.938 2.345z" style="marker:none" color="#000" overflow="visible"/><path d="M8 0A2.995 2.995 0 0 0 5.236 1.83v.002l5.766 5.764V3c0-1.662-1.338-3-3-3zM5 4.408v3.594a2.993 2.993 0 0 0 5.391 1.797zM2 7.001v1a5.992 5.992 0 0 0 5 5.906v2.094h2v-2.094a5.988 5.988 0 0 0 3.524-1.977l-1.418-1.417A3.961 3.961 0 0 1 8.001 12a3.97 3.97 0 0 1-4-4V7zm10 0v1c0 .186-.028.362-.052.54l1.637 1.638A5.958 5.958 0 0 0 14 8V7z" style="marker:none" color="#bebebe" overflow="visible" stroke-width="2"/></g></svg>