<svg xmlns="http://www.w3.org/2000/svg" width="16" height="16"><defs><style id="current-color-scheme" type="text/css"></style></defs><path d="M12.997 11.471c-.458.119-1.474.371-2.225.475-.984.137-2.122.213-2.972.198-.608-.011-1.41-.139-1.8-.291a3.515 3.515 0 0 1-1-.61V15H3V1.001h2v5.181c0 .729.043 1.348.128 1.857.102.508.254.923.458 1.245.22.322.5.56.839.712.356.136 1.149.25 1.657.25a39.193 39.193 0 0 0 2.068-.123c.203-.017.343-.045.496-.062.153-.034.293-.048.344-.065V1H13z" fill="currentColor" color="#dfdfdf"/></svg>