<svg height="16.005" width="16.031" xmlns="http://www.w3.org/2000/svg"><g fill="#dfdfdf"><path d="M10.969 11.005v1c0 .276.1.538.28.719l.782.781-.781.781a1.015 1.015 0 0 0-.281.719v1h1c.276 0 .537-.1.718-.281l.782-.781.78.78c.182.182.443.282.72.282h1v-1c0-.276-.1-.538-.282-.719l-.781-.781.781-.781c.181-.181.282-.443.282-.719v-1h-1c-.277 0-.538.1-.72.281l-.78.782-.782-.782a1.015 1.015 0 0 0-.718-.281h-1z"/><path d="M8.031 2.002C4.997 2.002 2.265 3.08 0 4.752l8.031 8.75L16 4.72c-2.257-1.653-4.958-2.718-7.969-2.718z" style="marker:none" color="#000" overflow="visible" opacity=".35"/></g></svg>