<svg xmlns="http://www.w3.org/2000/svg" width="16" height="16"><defs><style id="current-color-scheme" type="text/css">.ColorScheme-Text{color:#dfdfdf}</style></defs><path class="ColorScheme-Text" d="M2 2S1 2 1 3v9c0 1 1 1 1 1h2l1 1h4v-2H6l-1-1H3V4h10v4c.774 0 1.471.309 2 .801V3c0-1-1-1-1-1z" fill="currentColor"/><path class="ColorScheme-Text" d="M13 9c-1.108 0-2 .911-2 2.031V12h-1v4h6v-4h-1v-.969C15 9.911 14.108 9 13 9zm0 1c.554 0 1 .442 1 1v1h-2v-1c0-.558.446-1 1-1z" fill="currentColor"/></svg>