<svg height="16" width="16.031" xmlns="http://www.w3.org/2000/svg"><g color="#000" fill="#dfdfdf"><path d="M8.031 2.002C4.997 2.002 2.265 3.08 0 4.752l.232.254h15.51L16 4.72c-2.257-1.653-4.958-2.718-7.969-2.718zm-2.29 9.004l2.29 2.496 2.266-2.496H5.74z" style="marker:none" overflow="visible" opacity=".35"/><path d="M3.029 6.002c-1.108 0-2 .892-2 2s.892 2 2 2 2-.892 2-2-.892-2-2-2zm5 0c-1.108 0-2 .892-2 2s.892 2 2 2 2-.892 2-2-.892-2-2-2zm5 0c-1.108 0-2 .892-2 2s.892 2 2 2 2-.892 2-2-.892-2-2-2z" style="marker:none" overflow="visible"/></g></svg>