<svg height="16.002" width="16.031" xmlns="http://www.w3.org/2000/svg"><g color="#000" fill="#dfdfdf"><path d="M8.031 2.002C4.997 2.002 2.265 3.08 0 4.752l8.031 8.75 1-1.102v-1.398h1.014c.02-1.632 1.337-2.993 2.976-2.998L16 4.72c-2.257-1.653-4.958-2.718-7.969-2.718z" style="marker:none" overflow="visible" opacity=".35"/><path d="M13.031 9.002c-1.108 0-2 .91-2 2.03v.97h-1v4h6v-4h-1v-.97c0-1.119-.892-2.03-2-2.03zm0 1c.554 0 1 .442 1 1v1h-2v-1c0-.558.446-1 1-1z" style="marker:none" overflow="visible"/><path d="M8.031 5.002c-2.243 0-4.26.797-5.935 2.033l5.935 6.467.994-1.096v-1.367h.006v-.037h.996c.01-.405.102-.79.258-1.143.453-1.079 1.503-1.854 2.738-1.857l.899-.99c-1.668-1.223-3.665-2.01-5.89-2.01z" style="marker:none" overflow="visible"/></g></svg>