<svg xmlns="http://www.w3.org/2000/svg" width="16" height="16"><defs><style id="current-color-scheme" type="text/css"></style></defs><path d="M8 1v2.47l5 3.295v-2.47zm-5.25.595c-.414 0-.75.37-.75.824V3.47l5 3.294v-2.47c-1.375-.862-2.505-1.732-3.878-2.59a.695.695 0 0 0-.372-.11zM2 5.118v2.47l5 3.294v-2.47zm6 0v2.47l5 3.294v-2.47zM2 9.235v2.471L7.25 15 7 12.529zm6 0v2.469c1.375.863 2.506 1.733 3.878 2.592a.692.692 0 0 0 .372.109c.414 0 .75-.369.75-.824v-1.052z" fill="currentColor" fill-rule="evenodd" color="#dfdfdf"/></svg>