<svg xmlns="http://www.w3.org/2000/svg" width="16" height="16"><path d="M8 1v2.47l5 3.296V4.295zm-5.25.596c-.414 0-.75.367-.75.822v1.053l5 3.295V4.295c-1.375-.863-2.505-1.731-3.877-2.59a.697.697 0 0 0-.373-.11zM2 5.117v2.47l5 3.296v-2.47zm6 0v2.47l5 3.296v-2.47zM2 9.234v2.471L7.25 15 7 12.529z" fill="currentColor" fill-rule="evenodd" color="#dfdfdf"/><path d="M8 9.235v2.469c1.375.863 2.506 1.733 3.878 2.592a.692.692 0 0 0 .372.109c.414 0 .75-.369.75-.824v-1.052z" fill="currentColor" fill-rule="evenodd" color="#5294e2"/></svg>