<svg xmlns="http://www.w3.org/2000/svg" width="16" height="16" version="1"><defs><style id="current-color-scheme" type="text/css"></style></defs><path d="M1 6.999V12c0 2 0 3 1.5 3S4 14 4 12c0 2 0 3 1.5 3S7 14 7 12c0 2 0 3 1.5 3s1.5-1 1.5-3c0 2 0 3 1.5 3s1.5-1 1.5-3V6.998h-.002C13 4 12 .998 7 .998s-6 3.001-6 6zm3.5-2C5.331 5 6 5.67 6 6.5 6 7.331 5.331 8 4.5 8S3 7.332 3 6.5C3 5.67 3.669 5 4.5 5zm6 0c.831 0 1.5.67 1.5 1.5 0 .832-.669 1.5-1.5 1.5S9 7.332 9 6.5c0-.83.669-1.5 1.5-1.5z" fill="currentColor" color="#5294e2"/></svg>