<svg xmlns="http://www.w3.org/2000/svg" width="16" height="16"><defs><style id="current-color-scheme" type="text/css">.ColorScheme-Text{color:#dfdfdf}</style></defs><path class="ColorScheme-Text" d="M8 2a5 5 0 0 0-4.604 3.049A4 4 0 0 0 0 9a4 4 0 0 0 3.809 3.99V13h4.224A4.5 4.5 0 0 1 8 12.5 4.5 4.5 0 0 1 12.5 8a4.5 4.5 0 0 1 3.193 1.332 2.476 2.476 0 0 0-.87-.914A2.5 2.5 0 0 0 15 7.5a2.5 2.5 0 0 0-2.422-2.496A5 5 0 0 0 8 2zM6 5h4v3H7v3H6V5zm1 1v1h2V6H7z" fill="currentColor"/><path class="ColorScheme-Text" d="M14.25 9.469a3.5 3.5 0 0 0-4.781 1.281 3.5 3.5 0 0 0 1.281 4.781 3.5 3.5 0 0 0 4.781-1.281 3.5 3.5 0 0 0-1.281-4.781zm-1.825.536l-.041.696-.018.308a1.5 1.5 0 0 0-1.165.741 1.5 1.5 0 0 0-.189.928l-.886.587a2.5 2.5 0 0 1 .209-2.015 2.5 2.5 0 0 1 2.09-1.245zm2.271 1.312a2.5 2.5 0 0 1-.03 2.433 2.5 2.5 0 0 1-1.64 1.191l.064-1.065a1.5 1.5 0 0 0 .709-.626 1.5 1.5 0 0 0 .06-1.38l.257-.169z" fill="currentColor"/></svg>