<svg xmlns="http://www.w3.org/2000/svg" width="16" height="16" version="1"><defs><style id="current-color-scheme" type="text/css"></style></defs><path d="M8 1a7 7 0 0 0-7 7 7 7 0 0 0 7 7 7 7 0 0 0 7-7 7 7 0 0 0-7-7zM5 3c1.6 1.2 5.299 1.202 7 1.5-1.179.262-3.117.316-4.77.652C8.656 6.168 9.391 6.218 11 6.5c-1.713.38-2.36.342-3.79 1.361 1.685.368 3.668.443 4.79.639-1.804.4-5.4.3-7 1.5l1.5.2L8 10c-1.2 1.6-1.202 2.299-1.5 4-.4-1.804-.3-2.4-1.5-4l.2-1.5L5 7c.505.379 1.229.631 2.023.818L7.2 6.5l-.172-1.3c-.794.176-1.516.417-2.027.8l.2-1.5L5 3zm4 7l1.5.2L12 10c-1.2 1.6-1.202 2.299-1.5 4-.4-1.804-.3-2.4-1.5-4z" fill="currentColor" color="#dfdfdf"/></svg>