<svg xmlns="http://www.w3.org/2000/svg" width="16" height="16"><defs><style id="current-color-scheme" type="text/css"></style></defs><path d="M8.5 0C5.463 0 3 2.328 3 5.2c.002.133.009.266.021.4H3V6H1.834C1.372 6 1 6.346 1 6.777v5.446c0 .43.372.777.834.777H3v2.2c0 .442.377.8.846.8h2.963l1.267-2h.848l1.267 2h2.963c.47 0 .846-.358.846-.8V13h1.166c.462 0 .834-.346.834-.777V6.777c0-.43-.372-.777-.834-.777H14v-.4h-.018c.012-.134.018-.267.018-.4C14 2.327 11.537 0 8.5 0zm0 2C10.433 2 12 3 12 5.978l-.002.044H5v-.044C5 3 6.567 2 8.5 2zM6 4v1h1V4zm4 0v1h1V4zM8.5 7c.923 0 1.467.782 1.467 1.742V9h.617c.227-.04.416.263.416.5v2.072a.42.42 0 0 1-.416.428H6.416A.42.42 0 0 1 6 11.572V9.5c0-.237.295-.696.416-.5h.617v-.258C7.033 7.782 7.577 7 8.5 7zm0 .857c-.462 0-.633.383-.633.858V9h1.266v-.285c0-.475-.171-.858-.633-.858z" fill="currentColor" color="#dfdfdf"/></svg>