<svg xmlns="http://www.w3.org/2000/svg" width="16" height="16"><defs><style id="current-color-scheme" type="text/css">.ColorScheme-Text{color:#dfdfdf}</style></defs><path class="ColorScheme-Text" d="M8.5 0C5.463 0 3 2.328 3 5.2c.002.133.009.266.021.4H3V6H1.834C1.372 6 1 6.346 1 6.777v5.446c0 .43.372.777.834.777H3v2.2c0 .442.377.8.846.8h2.963l1.267-2h.848l1.267 2h2.963c.47 0 .846-.358.846-.8V13h1.166c.462 0 .834-.346.834-.777V6.777c0-.43-.372-.777-.834-.777H14v-.4h-.018c.012-.134.018-.267.018-.4C14 2.327 11.537 0 8.5 0zm0 2c1.933 0 3.5.999 3.5 3.977l-.002.046L5 6.021v-.044C5 2.999 6.567 2 8.5 2zM6 4v1h1V4H6zm4 0v1h1V4h-1zM4.5 8A1.5 1.5 0 0 1 6 9.5 1.5 1.5 0 0 1 4.5 11 1.5 1.5 0 0 1 3 9.5 1.5 1.5 0 0 1 4.5 8zm4 0A1.5 1.5 0 0 1 10 9.5 1.5 1.5 0 0 1 8.5 11 1.5 1.5 0 0 1 7 9.5 1.5 1.5 0 0 1 8.5 8zm4 0A1.5 1.5 0 0 1 14 9.5a1.5 1.5 0 0 1-1.5 1.5A1.5 1.5 0 0 1 11 9.5 1.5 1.5 0 0 1 12.5 8z" fill="currentColor" opacity=".3"/><path class="ColorScheme-Text" d="M4 9v1h1V9H4zm4 0v1h1V9H8zm4 0v1h1V9h-1z" fill="currentColor"/></svg>