<svg xmlns="http://www.w3.org/2000/svg" width="16" height="16"><defs><style id="current-color-scheme" type="text/css">.ColorScheme-Text{color:#dfdfdf}</style></defs><path class="ColorScheme-Text" d="M1.75 1a.748.748 0 0 0-.75.75V8h14V1.75a.749.749 0 0 0-.75-.75H1.75zM4 3a1 1 0 0 1 1 1 1 1 0 0 1-1 1 1 1 0 0 1-1-1 1 1 0 0 1 1-1zm8 0a1 1 0 0 1 1 1 1 1 0 0 1-1 1 1 1 0 0 1-1-1 1 1 0 0 1 1-1zM6 5c2.054.317 4 0 4 0a2 2 0 1 1-4 0z" opacity=".3" fill="currentColor"/><path class="ColorScheme-Text" d="M1 8v6.25c0 .416.335.75.75.75h12.5c.416 0 .75-.334.75-.75V8H1zm3 1c.554 0 1 .446 1 1v3c0 .554-.446 1-1 1s-1-.446-1-1v-3c0-.554.446-1 1-1zm4 0c.554 0 1 .446 1 1v3c0 .554-.446 1-1 1s-1-.446-1-1v-3c0-.554.446-1 1-1zm4 0c.554 0 1 .446 1 1v3c0 .554-.446 1-1 1s-1-.446-1-1v-3c0-.554.446-1 1-1z" fill="currentColor"/></svg>