<svg xmlns="http://www.w3.org/2000/svg" width="16" height="16"><defs><style id="current-color-scheme" type="text/css"></style></defs><path d="M10.438 1c-.074-.005-.19.047-.405.146-.254.118-.832.213-1.285.213-1.603.035-2.888.617-3.928 1.715-1.41 1.5-1.854 3.388-1.21 5.14.148.405.24.817.2.915-.038.099-.31.37-.601.605-.634.511-1.072 1.336-1.182 2.221-.065.532-.021.785.258 1.418.6 1.359 1.963 1.942 3.414 1.461.84-.28 1.683-1.271 2.356-2.773.582-1.298.608-1.33 1.232-1.563 1.052-.394 1.714-.829 2.373-1.559 1.169-1.294 1.603-2.968 1.184-4.57-.189-.72-.347-.967-1.2-1.883-.54-.58-1.018-1.17-1.064-1.306-.039-.116-.069-.175-.143-.18zm-.264 1.877c.204-.023.464.16.83.541 1.449 1.508 1.3 3.79-.332 5.102-.696.558-.859.594-1.342.293-.279-.175-.332-.334-.33-.971.003-.976.383-3.366.678-4.274.143-.44.292-.668.496-.691zM8.029 3c.487.002.863.15.965.441.034.096-.107.547-.316 1.002-.536 1.172-.707 1.817-1.032 3.883-.401 2.563-.839 3.67-1.718 4.334-.555.42-1.238.454-1.602.084a1.055 1.055 0 0 1-.258-1.14c.116-.334.561-.387 1.407-.512.588-.087 1.002-.494 1.002-1.028 0-.335-.135-.526-.592-1.01-.707-.747-1.35-1.463-1.354-2.368-.005-1.417.69-2.621 1.875-3.254.542-.29 1.137-.434 1.623-.432z" fill="currentColor" color="#dfdfdf"/></svg>