<svg xmlns="http://www.w3.org/2000/svg" width="16" height="16"><defs><style id="current-color-scheme" type="text/css"></style></defs><path d="M2 1c-.554 0-1 .446-1 1v2.283A1.958 1.958 0 0 1 2 4h2.586l1.707-1.707A1 1 0 0 1 7 2h1c0-.554-.446-1-1-1zm5 2L5 5H2c-.554 0-1 .446-1 1v7c0 1.108.892 2 2 2h10c1.108 0 2-.892 2-2V4c0-.554-.446-1-1-1zm.98 2.32a.444.444 0 0 1 .045 0 .444.444 0 0 1 .4.305l.798 2.39 2.519.026a.444.444 0 0 1 .26.8L9.977 10.34l.753 2.404a.444.444 0 0 1-.683.494l-2.049-1.465-2.053 1.461a.444.444 0 0 1-.681-.498l.76-2.402L4 8.834a.444.444 0 0 1 .262-.803l2.52-.02.8-2.386a.444.444 0 0 1 .399-.305z" fill="currentColor" color="#5294e2"/></svg>