<svg xmlns="http://www.w3.org/2000/svg" width="16" height="16"><defs><style id="current-color-scheme" type="text/css"></style></defs><path d="M7.5 1c-.345 0-.69.015-.91.045-2.652.365-4.22 1.6-4.533 3.574-.035.218-.046.606-.051 2.09l-.004 1.166H2v1.97l.006-1.368.072.113c.19.29.45.492 1.7 1.32 2.087 1.385 2.946 1.891 3.474 2.045.083.024.198.044.256.045.35.004 1.375-.545 2.928-1.57 1.936-1.28 2.295-1.546 2.484-1.836L13 8.47V7.018c0-1.896-.015-2.23-.107-2.637-.166-.725-.466-1.298-.946-1.797-.77-.8-1.974-1.324-3.537-1.54A7.535 7.535 0 0 0 7.5 1zm0 3c1.134 0 2.12.943 2.441 2.098.057.203.059.212.059 1.039 0 .458-.005.842-.014.851-.008.01-1.122.014-2.486.01-1.364.004-2.478 0-2.486-.01C5.006 7.98 5 7.595 5 7.137c0-.827.002-.836.059-1.04C5.38 4.944 6.366 4 7.5 4zM13 9.47l-.08.124c-.189.29-.548.557-2.484 1.836-1.553 1.025-2.577 1.574-2.928 1.57-.057 0-.173-.02-.256-.045-.528-.154-1.387-.66-3.475-2.045-1.248-.828-1.509-1.03-1.699-1.32l-.072-.113L2 10.846v3.027h.01l.004.656.082.149a.494.494 0 0 0 .218.22l.135.077 2.192.013c1.205.007 3.461.013 5.013.012h2.823l.136-.057c.176-.072.228-.114.309-.26l.064-.12v-.69H13V9.471z" fill="currentColor" color="#dfdfdf"/></svg>