<svg xmlns="http://www.w3.org/2000/svg" width="16" height="16"><defs><style id="current-color-scheme" type="text/css"></style></defs><path d="M8 0C6.338 0 5 1.338 5 3v4.008A4.999 4.999 0 0 0 3 11a5 5 0 0 0 4.652 4.982c.116.011.232.017.348.018a5 5 0 0 0 5-5 4.997 4.997 0 0 0-2-3.992V3c0-1.662-1.338-3-3-3zm0 2c.589 0 1 .411 1 1v5.008l.801.599A2.997 2.997 0 0 1 11 11.002a2.97 2.97 0 0 1-3.16 2.99l-.024-.004-.025-.002A2.972 2.972 0 0 1 5 11a2.998 2.998 0 0 1 1.2-2.393l.8-.599V3c0-.589.411-1 1-1z" fill="currentColor" color="#5294e2"/></svg>