<svg xmlns="http://www.w3.org/2000/svg" width="16" height="16"><defs><style id="current-color-scheme" type="text/css"></style></defs><path d="M0 2v12h2V2zm4 0v12l4.252-.033c2.931-.033 3.208-.072 4.447-.676 2.702-1.316 3.98-4.505 2.941-7.344-.686-1.875-2.248-3.263-4.237-3.768-.625-.158-1.02-.18-3.448-.18H3.999zm6 .344l1.414 1.414.707.707-.707.707L10 6.586l-.707-.707.928-.928c-.702-.086-1.515.1-2.342.928-2.122 2.121 0 4.242 0 4.242l-.707.707S4.343 8 7.172 5.172C8.22 4.124 9.273 3.86 10.178 3.934l-.885-.883.707-.707zm2.828 2.828s2.828 2.828 0 5.656c-1.049 1.048-2.102 1.312-3.006 1.238l.885.883-.707.707-1.414-1.414-.707-.707.707-.707L10 9.414l.707.707-.928.928c.701.086 1.515-.101 2.342-.928 2.121-2.121 0-4.242 0-4.242l.707-.706z" fill="currentColor" color="#dfdfdf"/></svg>