<svg xmlns="http://www.w3.org/2000/svg" width="16" height="16"><defs><style id="current-color-scheme" type="text/css"></style></defs><path d="M0 2v12h2V2zm4 0v12l4.252-.033c2.931-.033 3.208-.072 4.447-.676 2.702-1.316 3.98-4.505 2.941-7.344-.686-1.875-2.248-3.263-4.237-3.768-.625-.158-1.02-.18-3.448-.18H3.999zm6 2c1.482 0 2.413.558 3 1.25V4h1v3h-3V6h1.312C11.877 5.443 11.17 5 10 5 7 5 7 8 7 8H6s0-4 4-4zm3 4h1s0 4-4 4c-1.483 0-2.413-.558-3-1.25V12H6V9h3v1H7.687c.436.557 1.143 1 2.313 1 3 0 3-3 3-3z" fill="currentColor" color="#dfdfdf"/></svg>