<svg xmlns="http://www.w3.org/2000/svg" width="16" height="16"><defs><style id="current-color-scheme" type="text/css"></style></defs><path d="M0 2v12h2V2zm4 0v12l4.252-.033c2.931-.033 3.208-.072 4.447-.676 2.702-1.316 3.98-4.505 2.941-7.344-.686-1.875-2.248-3.263-4.237-3.768-.625-.158-1.02-.18-3.448-.18H3.999zm6.264 1.918c.797.038 1.68.37 2.564 1.254 1.048 1.048 1.312 2.101 1.238 3.006l.882-.885.707.707-1.414 1.414-.707.707-.707-.707L11.413 8l.707-.707.928.928c.086-.702-.1-1.515-.928-2.342-2.121-2.122-4.242 0-4.242 0l-.707-.708s1.337-1.337 3.092-1.254zm-3.8 1.96l.708.708L8.586 8l-.708.707-.928-.928c-.085.702.101 1.515.928 2.342 2.121 2.121 4.242 0 4.242 0l.707.707s-2.827 2.828-5.656 0C6.122 9.78 5.859 8.727 5.932 7.822l-.882.885L4.343 8l1.414-1.414.707-.707z" fill="currentColor" color="#dfdfdf"/></svg>