<svg xmlns="http://www.w3.org/2000/svg" width="16" height="16"><defs><style id="current-color-scheme" type="text/css"></style></defs><path d="M0 2v12h2V2zm4 0v12l4.252-.033c2.931-.033 3.208-.072 4.447-.676 2.702-1.316 3.98-4.505 2.941-7.344-.686-1.875-2.248-3.263-4.237-3.768-.625-.158-1.02-.18-3.448-.18H3.999zm2 2h3v3H8V5.687C7.443 6.123 7 6.83 7 8c0 3 3 3 3 3v1s-4 0-4-4c0-1.483.558-2.413 1.25-3H6V4zm4 0s4 0 4 4c0 1.483-.558 2.413-1.25 3H14v1h-3V9h1v1.313c.557-.435 1-1.143 1-2.313 0-3-3-3-3-3z" fill="currentColor" color="#dfdfdf"/></svg>