<svg xmlns="http://www.w3.org/2000/svg" width="16" height="16"><defs><style id="current-color-scheme" type="text/css"></style></defs><path d="M7.5 1C5.291 1 4 2.791 4 5v1H3a1 1 0 0 0-1 1v7a1 1 0 0 0 1 1h9a1 1 0 0 0 1-1V7a1 1 0 0 0-1-1h-1V5c0-2.209-1.291-4-3.5-4zm0 2.037a1.5 1.5 0 0 1 1.5 1.5c0 .354-.077.631-.178.83-.1.199-.318.465-.572.67-.248.2-.75.451-.75.451s.227-.274.32-.488a1.5 1.5 0 1 1-.32-2.963zM7.5 7a3.5 3.5 0 1 1 0 7 3.5 3.5 0 0 1 0-7zm0 1A2.5 2.5 0 0 0 5 10.5 2.5 2.5 0 0 0 7.5 13a2.5 2.5 0 0 0 2.5-2.5A2.5 2.5 0 0 0 7.5 8z" fill="currentColor" opacity=".3" color="#dfdfdf"/></svg>