<svg xmlns="http://www.w3.org/2000/svg" width="16" height="16"><defs><style id="current-color-scheme" type="text/css">.ColorScheme-Text{color:#dfdfdf}</style></defs><path class="ColorScheme-Text" d="M8 1c-1.267 0-2.356.557-3.03 1.4-.676.844-.97 1.915-.97 3V10h2V5.4c0-.715.206-1.344.53-1.75C6.857 3.243 7.268 3 8 3s1.144.243 1.47.65c.324.406.53 1.035.53 1.75V10h2V5.4c0-1.085-.294-2.156-.97-3C10.357 1.557 9.268 1 8 1z" opacity=".3" fill="currentColor"/><path class="ColorScheme-Text" d="M5.36 6.002C3.432 5.93 2.1 7.215 2.005 8.605c-.05.723.234 1.472.941 2.077L8 15l5.053-4.318c.707-.605.99-1.354.941-2.077-.095-1.39-1.427-2.675-3.353-2.603-1.097.04-2.092.558-2.641 1.37-.55-.812-1.544-1.33-2.64-1.37zM7.001 8h1.996v2h-.477l.977 2H6.502l.977-2h-.477V8z" fill="currentColor"/></svg>