<svg xmlns="http://www.w3.org/2000/svg" width="16" height="16"><defs><style id="current-color-scheme" type="text/css"></style></defs><path d="M8.796 5c1.597.023 2.007 1.482 2.474 1.514.58.038.907.776.674 1.275-.234.5-.932.246-.944.838-.007.346.787.601.914.606.359-.28.737-.285.927-.103.188.182.189.55.187 1.017.853.999.567 1.076.792 1.545.174.363.346 1.011-.124 1.219-.337 1.369-1.292 1.84-2.246 1.72-.318-.034-1.141.628-2.847.254-1.32-.288-7.241-1.765-6.547-4.483C2.672 8.004 4.372 2.639 5 2.017c0 0 .289 1.307.843 1.84C6.088 1.747 7.65 1.067 8.197 1c-.537.651-.809 1.399-.652 2.046 1.217-1.54 3.256-1.084 4.199-.577C7.675 3.205 8.797 5 8.797 5z" fill="currentColor" fill-rule="evenodd" color="#dfdfdf"/></svg>