<svg xmlns="http://www.w3.org/2000/svg" width="16" height="16"><defs><style id="current-color-scheme" type="text/css"></style></defs><path d="M8-.06c-2.84 0-5.14 2.31-5.14 5.16 0 1.68.79 3.16 2.04 4.1.57.43 1.05.99 1.05 1.76l.05.98h4l.06-.98c.04-.77.47-1.33 1.04-1.76a5.096 5.096 0 0 0 2.04-4.1c0-2.85-2.3-5.16-5.14-5.16zM8 2a3.1 3.1 0 0 1 3.09 3.1c0 .97-.45 1.87-1.23 2.45-1.16.88-1.6 1.86-1.76 2.68h-.2c-.16-.82-.6-1.8-1.76-2.68A3.036 3.036 0 0 1 4.91 5.1 3.1 3.1 0 0 1 8 2zM6 12.94v1h4v-1zm1 2v1h2v-1z" opacity=".3" fill="currentColor" color="#dfdfdf"/></svg>