<svg xmlns="http://www.w3.org/2000/svg" width="16" height="16"><defs><style id="current-color-scheme" type="text/css"></style></defs><path d="M8 0C5.16 0 2.86 2.31 2.86 5.16c0 1.68.79 3.16 2.04 4.1.57.43 1.05.99 1.05 1.76L6 12h4l.06-.98c.04-.77.47-1.33 1.04-1.76a5.096 5.096 0 0 0 2.04-4.1C13.14 2.31 10.84 0 8 0zm0 2.06a3.1 3.1 0 0 1 3.09 3.1c0 .97-.45 1.87-1.23 2.45-1.16.88-1.6 1.86-1.76 2.68h-.2c-.16-.82-.6-1.8-1.76-2.68a3.036 3.036 0 0 1-1.23-2.45A3.1 3.1 0 0 1 8 2.06zM6 13v1h4v-1zm1 2v1h2v-1z" fill="currentColor" color="#dfdfdf"/></svg>