<svg xmlns="http://www.w3.org/2000/svg" width="16" height="16"><defs><style id="current-color-scheme" type="text/css">.ColorScheme-Text{color:#dfdfdf}</style></defs><path class="ColorScheme-Text" d="M8 1a7 7 0 0 0-7 7 7 7 0 0 0 .852 3.342l1.67-1.125A5 5 0 0 1 3 8a5 5 0 0 1 5-5 5 5 0 0 1 3.725 1.674l1.673-1.125A7 7 0 0 0 8 1zm6.105 3.582l-1.668 1.121A5 5 0 0 1 13 8a5 5 0 0 1-5 5 5 5 0 0 1-3.781-1.74L2.55 12.383A7 7 0 0 0 8 15a7 7 0 0 0 7-7 7 7 0 0 0-.895-3.418z" fill="currentColor"/><path class="ColorScheme-Text" d="M5 4.2v1.733l1.151.767L5 7.467V9.2L8.75 6.7zM10.55 7L6.8 9.5l3.75 2.5v-1.734L9.4 9.5l1.15-.767z" fill="currentColor"/></svg>