<svg xmlns="http://www.w3.org/2000/svg" width="16" height="16" version="1.1" id="svg7"><defs id="defs3"><style id="current-color-scheme" type="text/css"></style></defs><path d="M2 1c-.554 0-1 .446-1 1v3c0 .554.446 1 1 1h5.2L8 5l.8 1H14c.554 0 1-.446 1-1V2c0-.554-.446-1-1-1H2z" id="rect23" display="inline" opacity=".5" fill="#dfdfdf" fill-opacity="1" stroke="none" stroke-width="1" stroke-linecap="round" stroke-linejoin="miter" stroke-miterlimit="4" stroke-dasharray="none" stroke-opacity="1" paint-order="stroke markers fill"/><path d="M8 3L7 5H1c-.554 0-1 .446-1 1v8c0 .554.446 1 1 1h14c.554 0 1-.446 1-1V4c0-.5-.5-1-1-1H8zm0 2l4 5h-2v3H6v-3H4l4-5z" id="path4-3" display="inline" fill="#dfdfdf" fill-opacity="1" stroke="none"/></svg>