<svg xmlns="http://www.w3.org/2000/svg" width="16" height="16" version="1"><defs><style id="current-color-scheme" type="text/css">.ColorScheme-Text{color:#dfdfdf;}.ColorScheme-Highlight{color:#5294e2;}</style></defs><defs><style id="current-color-scheme" type="text/css"></style></defs><path d="M5 1v4H1v6h4v4h6v-4h4V5h-4V1zm3 1c.554 0 1 .446 1 1v3.27a2 2 0 0 1 .729.73H13c.554 0 1 .446 1 1s-.446 1-1 1H9.73A2 2 0 0 1 6 8a2 2 0 0 1 1-1.729V3c0-.554.446-1 1-1z" fill="currentColor" fill-rule="evenodd" class="ColorScheme-Text"/></svg>