<svg xmlns="http://www.w3.org/2000/svg" width="16" height="16" version="1"><defs><style id="current-color-scheme" type="text/css"></style></defs><path d="M2.5 1C1.669 1 1 1.669 1 2.5v11c0 .831.669 1.5 1.5 1.5h8c.831 0 1.5-.669 1.5-1.5v-11c0-.831-.669-1.5-1.5-1.5h-8zM4 3a1 1 0 1 1 0 2 1 1 0 0 1 0-2zm5 0a1 1 0 1 1 0 2 1 1 0 0 1 0-2zM6.5 6a3.5 3.5 0 1 1 0 7 3.5 3.5 0 0 1 0-7zm0 2a1.5 1.5 0 1 0 .001 3.001A1.5 1.5 0 0 0 6.5 8zm6.967 3c-.257-.007-.467.242-.467.55v2.9c0 .422.38.686.684.476l1.045-.725 1.042-.724c.305-.212.305-.74 0-.952L14.73 11.8l-1.045-.725a.401.401 0 0 0-.217-.074z" fill="currentColor" fill-rule="evenodd" color="#dfdfdf"/></svg>