<svg xmlns="http://www.w3.org/2000/svg" width="16" height="16"><defs><style id="current-color-scheme" type="text/css"></style></defs><path d="M5 1a2 2 0 0 0-2 2 2 2 0 0 0 2 2 2 2 0 0 0 2-2 2 2 0 0 0-2-2zm2.23 0A3 3 0 0 1 8 3a3 3 0 0 1-3 3 3 3 0 0 1-2-.768V13c0 1.108.892 2 2 2s2-.892 2-2v-.875L5.756 9.969c-.797-1.38-.18-3.13 1.197-3.926a3.146 3.146 0 0 1 1.66-.42c.941.027 1.84.483 2.338 1.346l.621 1.074A3.969 3.969 0 0 0 13 5c0-2.216-1.784-4-4-4H7.23zm1.346 5.617a2.153 2.153 0 0 0-1.123.293c-.96.554-1.33 1.697-.832 2.56l2.701 4.676c.499.864 1.672 1.113 2.631.56.96-.555 1.33-1.696.832-2.56l-2.7-4.675c-.31-.54-.887-.84-1.509-.854z" fill="currentColor" color="#dfdfdf"/></svg>