<svg xmlns="http://www.w3.org/2000/svg" width="16" height="16"><defs><style id="current-color-scheme" type="text/css"></style></defs><path d="M3.05 3.05a7 7 0 0 0 0 9.9 7 7 0 0 0 9.9 0 7 7 0 0 0 0-9.9 7 7 0 0 0-9.9 0zm1.414 1.414a5 5 0 0 1 6.34-.602 1.5 1.5 0 0 1 1.792.249 1.5 1.5 0 0 1 .053 2.063 5 5 0 0 1 .002 3.655 1.5 1.5 0 0 1-.055 2.06 1.5 1.5 0 0 1-1.794.247 5 5 0 0 1-6.337-.6 5 5 0 0 1-.06-.063 1.5 1.5 0 0 1-1.708-.291 1.5 1.5 0 0 1 0-2.121 1.5 1.5 0 0 1 .373-.271 5 5 0 0 1 1.395-4.326zm.708.708a4 4 0 0 0-1.114 3.48 1.5 1.5 0 0 1 .76.409 1.5 1.5 0 0 1 .04.045l2.353-1.008a1.5 1.5 0 0 1 .435-1.159 1.5 1.5 0 0 1 1.706-.291l.831-.831a1.5 1.5 0 0 1-.042-1.19 4 4 0 0 0-4.97.545zm.08 4.853a1.5 1.5 0 0 1-.141.737 4 4 0 0 0 .06.066 4 4 0 0 0 4.97.547 1.5 1.5 0 0 1 .042-1.192l-.83-.83a1.5 1.5 0 0 1-1.707-.292 1.5 1.5 0 0 1-.04-.046l-2.354 1.01zm4.807-2.67a1.5 1.5 0 0 1 0 1.29l.832.831a1.5 1.5 0 0 1 .87-.127 4 4 0 0 0 0-2.696 1.5 1.5 0 0 1-.87-.13l-.832.832z" opacity=".3" fill="currentColor" color="#dfdfdf"/></svg>