<svg xmlns="http://www.w3.org/2000/svg" width="16" height="16"><defs><style id="current-color-scheme" type="text/css"></style></defs><path d="M14.062 11.5A7 7 0 0 0 11.5 1.938 7 7 0 0 0 1.938 4.5 7 7 0 0 0 4.5 14.062a7 7 0 0 0 9.562-2.562zm-1.732-1a5 5 0 0 1-5.967 2.222 1.5 1.5 0 0 1-1.796.224 1.5 1.5 0 0 1-.585-1.98 5 5 0 0 1-.948-3.528 1.5 1.5 0 0 1-.48-2.005 1.5 1.5 0 0 1 1.669-.703A5 5 0 0 1 10.5 3.67a5 5 0 0 1 .073.045 1.5 1.5 0 0 1 1.726-.161 1.5 1.5 0 0 1 .55 2.049 1.5 1.5 0 0 1-.291.358 5 5 0 0 1-.228 4.539zm-.866-.5a4 4 0 0 0 .175-3.65 1.5 1.5 0 0 1-.84-.198 1.5 1.5 0 0 1-.05-.034L8.736 7.701a1.5 1.5 0 0 1-.12 1.232 1.5 1.5 0 0 1-1.572.723l-.588 1.018a1.5 1.5 0 0 1 .35 1.138A4 4 0 0 0 11.463 10zm-1.333-4.667a1.5 1.5 0 0 1-.055-.749A4 4 0 0 0 10 4.536a4 4 0 0 0-4.941.758 1.5 1.5 0 0 1 .267 1.162l1.018.588a1.5 1.5 0 0 1 1.723-.16 1.5 1.5 0 0 1 .05.034l2.014-1.585zM6.178 9.156a1.5 1.5 0 0 1-.334-1.246l-1.018-.588a1.5 1.5 0 0 1-.808.348 4 4 0 0 0 .698 2.604 1.5 1.5 0 0 1 .874-.1l.588-1.018z" fill="currentColor" color="#dfdfdf"/></svg>