<svg xmlns="http://www.w3.org/2000/svg" width="16" height="16"><defs><style id="current-color-scheme" type="text/css"></style></defs><path d="M1.938 11.5a7 7 0 0 0 9.562 2.562A7 7 0 0 0 14.062 4.5 7 7 0 0 0 4.5 1.938 7 7 0 0 0 1.938 11.5zm1.732-1a5 5 0 0 1 1.059-6.279 1.5 1.5 0 0 1 .704-1.667 1.5 1.5 0 0 1 2.007.483 5 5 0 0 1 3.53.943 1.5 1.5 0 0 1 1.976.587 1.5 1.5 0 0 1-.225 1.797A5 5 0 0 1 10.5 12.33a5 5 0 0 1-.075.041 1.5 1.5 0 0 1-.724 1.575 1.5 1.5 0 0 1-2.05-.549 1.5 1.5 0 0 1-.164-.43A5 5 0 0 1 3.67 10.5zm.866-.5a4 4 0 0 0 3.073 1.976 1.5 1.5 0 0 1 .592-.628 1.5 1.5 0 0 1 .054-.027l-.364-2.534a1.5 1.5 0 0 1-1.007-.72 1.5 1.5 0 0 1 .16-1.723l-.588-1.018a1.5 1.5 0 0 1-1.16-.267A4 4 0 0 0 4.536 10zm4.708 1.179a1.5 1.5 0 0 1 .676.327 4 4 0 0 0 .08-.042 4 4 0 0 0 1.814-4.658 1.5 1.5 0 0 1-1.14-.35l-1.018.588a1.5 1.5 0 0 1-.723 1.572 1.5 1.5 0 0 1-.054.027l.365 2.536zM7.91 5.844a1.5 1.5 0 0 1 1.246.334l1.018-.588a1.5 1.5 0 0 1 .103-.873 4 4 0 0 0-2.604-.698 1.5 1.5 0 0 1-.35.807l.587 1.018z" fill="currentColor" color="#dfdfdf"/></svg>