<svg xmlns="http://www.w3.org/2000/svg" width="16" height="16"><defs><style id="current-color-scheme" type="text/css"></style></defs><path d="M1.938 4.5A7 7 0 0 0 4.5 14.062a7 7 0 0 0 9.562-2.562A7 7 0 0 0 11.5 1.938 7 7 0 0 0 1.938 4.5zm1.732 1a5 5 0 0 1 5.967-2.222 1.5 1.5 0 0 1 1.796-.224 1.5 1.5 0 0 1 .585 1.98 5 5 0 0 1 .948 3.528 1.5 1.5 0 0 1 .48 2.005 1.5 1.5 0 0 1-1.669.703A5 5 0 0 1 5.5 12.33a5 5 0 0 1-.073-.045 1.5 1.5 0 0 1-1.726.161 1.5 1.5 0 0 1-.55-2.049 1.5 1.5 0 0 1 .291-.358A5 5 0 0 1 3.67 5.5zm.866.5a4 4 0 0 0-.175 3.65 1.5 1.5 0 0 1 .84.198 1.5 1.5 0 0 1 .05.034l2.013-1.583a1.5 1.5 0 0 1 .12-1.232 1.5 1.5 0 0 1 1.572-.723l.588-1.018a1.5 1.5 0 0 1-.35-1.138A4 4 0 0 0 4.537 6zm1.333 4.667a1.5 1.5 0 0 1 .055.749 4 4 0 0 0 .076.048 4 4 0 0 0 4.941-.758 1.5 1.5 0 0 1-.267-1.162l-1.018-.588a1.5 1.5 0 0 1-1.723.16 1.5 1.5 0 0 1-.05-.034l-2.014 1.585zm3.953-3.823a1.5 1.5 0 0 1 .334 1.246l1.018.588a1.5 1.5 0 0 1 .808-.348 4 4 0 0 0-.698-2.604 1.5 1.5 0 0 1-.874.1l-.588 1.018z" fill="currentColor" color="#dfdfdf"/></svg>