<svg xmlns="http://www.w3.org/2000/svg" width="16" height="16"><defs><style id="current-color-scheme" type="text/css"></style></defs><path d="M8 15a7 7 0 0 0 7-7 7 7 0 0 0-7-7 7 7 0 0 0-7 7 7 7 0 0 0 7 7zm0-2a5 5 0 0 1-4.908-4.057A1.5 1.5 0 0 1 2 7.5a1.5 1.5 0 0 1 1.422-1.496 5 5 0 0 1 2.582-2.586A1.5 1.5 0 0 1 7.5 2a1.5 1.5 0 0 1 1.443 1.094A5 5 0 0 1 13 8a5 5 0 0 1-.002.086A1.5 1.5 0 0 1 14 9.5a1.5 1.5 0 0 1-1.5 1.5 1.5 1.5 0 0 1-.455-.072A5 5 0 0 1 8 13zm0-1a4 4 0 0 0 3.248-1.674A1.5 1.5 0 0 1 11 9.5a1.5 1.5 0 0 1 .004-.06l-2.377-.952A1.5 1.5 0 0 1 7.5 9a1.5 1.5 0 0 1-1.412-1H4.912a1.5 1.5 0 0 1-.81.871A4 4 0 0 0 8 12zm3.375-3.488a1.5 1.5 0 0 1 .621-.422A4 4 0 0 0 12 8a4 4 0 0 0-3.127-3.9A1.5 1.5 0 0 1 8 4.912v1.176A1.5 1.5 0 0 1 9 7.5a1.5 1.5 0 0 1-.004.06l2.379.952zM6.088 7A1.5 1.5 0 0 1 7 6.088V4.912a1.5 1.5 0 0 1-.705-.525 4 4 0 0 0-1.906 1.906A1.5 1.5 0 0 1 4.912 7h1.176z" fill="currentColor" color="#dfdfdf"/></svg>