<svg xmlns="http://www.w3.org/2000/svg" width="16" height="16"><defs><style id="current-color-scheme" type="text/css"></style></defs><path d="M15 8a7 7 0 0 0-7-7 7 7 0 0 0-7 7 7 7 0 0 0 7 7 7 7 0 0 0 7-7zm-2 0a5 5 0 0 1-4.057 4.908A1.5 1.5 0 0 1 7.5 14a1.5 1.5 0 0 1-1.496-1.422 5 5 0 0 1-2.586-2.582A1.5 1.5 0 0 1 2 8.5a1.5 1.5 0 0 1 1.094-1.443A5 5 0 0 1 8 3a5 5 0 0 1 .086.002A1.5 1.5 0 0 1 9.5 2 1.5 1.5 0 0 1 11 3.5a1.5 1.5 0 0 1-.072.455A5 5 0 0 1 13 8zm-1 0a4 4 0 0 0-1.674-3.248A1.5 1.5 0 0 1 9.5 5a1.5 1.5 0 0 1-.06-.004l-.952 2.377A1.5 1.5 0 0 1 9 8.5a1.5 1.5 0 0 1-1 1.412v1.176a1.5 1.5 0 0 1 .871.81A4 4 0 0 0 12 8zM8.512 4.625a1.5 1.5 0 0 1-.422-.621A4 4 0 0 0 8 4a4 4 0 0 0-3.9 3.127A1.5 1.5 0 0 1 4.912 8h1.176A1.5 1.5 0 0 1 7.5 7a1.5 1.5 0 0 1 .06.004l.952-2.379zM7 9.912A1.5 1.5 0 0 1 6.088 9H4.912a1.5 1.5 0 0 1-.525.705 4 4 0 0 0 1.906 1.906A1.5 1.5 0 0 1 7 11.088V9.912z" fill="currentColor" color="#dfdfdf"/></svg>