<svg xmlns="http://www.w3.org/2000/svg" width="16" height="16" version="1"><defs><style id="current-color-scheme" type="text/css">.ColorScheme-Text{color:#dfdfdf}</style></defs><path class="ColorScheme-Text" d="M4.5 1A3.5 3.5 0 0 0 1 4.5a3.5 3.5 0 0 0 1.086 2.53A6 6 0 0 0 2 8a6 6 0 0 0 6 6 6 6 0 0 0 .97-.082A3.5 3.5 0 0 0 15 11.5a3.5 3.5 0 0 0-1.086-2.53A6 6 0 0 0 14 8a6 6 0 0 0-6-6 6 6 0 0 0-.97.082A3.5 3.5 0 0 0 4.5 1zm1.379 3.465L8 6.585l2.121-2.12 1.414 1.414L9.415 8l2.12 2.121-1.414 1.414L8 9.415l-2.121 2.12-1.414-1.414L6.585 8l-2.12-2.121 1.414-1.414z" opacity=".3" fill="currentColor"/></svg>