<svg xmlns="http://www.w3.org/2000/svg" width="16" height="16" version="1"><defs><style id="current-color-scheme" type="text/css">.ColorScheme-Text{color:#dfdfdf}</style></defs><path class="ColorScheme-Text" d="M4.5 1A3.5 3.5 0 0 0 1 4.5a3.5 3.5 0 0 0 1.086 2.53A6 6 0 0 0 2 8a6 6 0 0 0 6 6 6 6 0 0 0 .97-.082A3.5 3.5 0 0 0 11.5 15a3.5 3.5 0 0 0 3.5-3.5 3.5 3.5 0 0 0-1.086-2.53A6 6 0 0 0 14 8a6 6 0 0 0-6-6 6 6 0 0 0-.97.082A3.5 3.5 0 0 0 4.5 1zM8 2.986v1.051c.526.043 1.13.14 1.766.41C10.895 4.927 12 6.153 12 7.987a1 1 0 1 1-2 0c0-1.167-.395-1.434-1.016-1.698A3.692 3.692 0 0 0 8 6.053v.933l-3-2 3-2zm-2.984 4A1 1 0 0 1 6 8c0 1.167.398 1.439 1.02 1.705.294.126.642.197.98.238V9l3 2-3 2v-1.037a5.704 5.704 0 0 1-1.77-.418C5.102 11.06 4 9.833 4 8a1 1 0 0 1 1.016-1.014z" fill="currentColor"/></svg>