<svg xmlns="http://www.w3.org/2000/svg" width="16" height="16" version="1"><defs><style id="current-color-scheme" type="text/css">.ColorScheme-Text{color:#dfdfdf}</style></defs><path class="ColorScheme-Text" d="M4.5 1A3.5 3.5 0 0 0 1 4.5a3.5 3.5 0 0 0 1.086 2.53A6 6 0 0 0 2 8a6 6 0 0 0 6 6 6 6 0 0 0 .97-.082A3.5 3.5 0 0 0 11.5 15a3.5 3.5 0 0 0 3.5-3.5 3.5 3.5 0 0 0-1.086-2.53A6 6 0 0 0 14 8a6 6 0 0 0-6-6 6 6 0 0 0-.97.082A3.5 3.5 0 0 0 4.5 1zM8 4a1 1 0 1 1 0 2c-1.167 0-1.439.398-1.705 1.02-.126.294-.197.642-.238.98H7l-2 3-2-3h1.037c.045-.523.15-1.142.418-1.77C4.94 5.102 6.167 4 8 4zm3.014 1l2 3h-1.051a5.584 5.584 0 0 1-.41 1.766C11.073 10.895 9.847 12 8.013 12a1 1 0 1 1 0-2c1.167 0 1.434-.395 1.698-1.016.125-.295.196-.644.236-.984h-.933l2-3z" fill="currentColor"/></svg>