<svg xmlns="http://www.w3.org/2000/svg" width="16" height="16"><path d="M3.156 3.374A.998.998 0 0 0 2.449 4.6l.259.966-.966.259a.998.998 0 0 0-.707 1.225c.143.535.69.85 1.224.707l.966-.26 1.036 3.865-.966.258a.998.998 0 0 0-.708 1.225c.144.535.69.85 1.225.707l.966-.259.259.966c.143.535.69.85 1.225.707a.998.998 0 0 0 .707-1.224l-.259-.966 3.864-1.036.259.966c.143.536.69.85 1.224.708a.998.998 0 0 0 .707-1.225l-.258-.966.966-.259a.998.998 0 0 0 .707-1.225.998.998 0 0 0-1.225-.707l-.966.259-1.035-3.864.966-.259a.998.998 0 0 0 .707-1.224.998.998 0 0 0-1.225-.707l-.966.258-.259-.965a.998.998 0 0 0-1.225-.708.998.998 0 0 0-.707 1.225l.26.966-3.865 1.035-.258-.966a.998.998 0 0 0-1.225-.707zM5.157 6.98l3.864-1.035 1.035 3.864-3.864 1.035-1.035-3.864z" fill="currentColor" color="#dfdfdf"/><circle cx="14.5" cy="2.5" r="1.5" fill="currentColor" color="#5294e2"/></svg>