<svg xmlns="http://www.w3.org/2000/svg" width="16" height="16"><path d="M3 1c-1.108 0-2 .892-2 2v10c0 1.108.892 2 2 2h10c1.108 0 2-.892 2-2V3c0-1.108-.892-2-2-2zm2.865 1.305l1.586 2.748C7.632 5.018 7.816 5 8 5c.184 0 .367.018.547.053l1.588-2.748 1.73 1-1.586 2.75c.239.279.424.6.547.945H14v2h-3.176a2.986 2.986 0 0 1-.543.949l1.584 2.746-1.73 1-1.586-2.748A3.065 3.065 0 0 1 8 11a3.042 3.042 0 0 1-.547-.053l-1.588 2.748-1.73-1 1.586-2.75A3 3 0 0 1 5.174 9H2V7h3.176a3 3 0 0 1 .543-.95L4.135 3.306z" fill="currentColor" color="#dfdfdf"/><path d="M8 6a2 2 0 0 0-2 2 2 2 0 0 0 2 2 2 2 0 0 0 2-2 2 2 0 0 0-2-2z" fill="currentColor" color="#5294e2"/></svg>