<svg xmlns="http://www.w3.org/2000/svg" width="16" height="16"><defs><style id="current-color-scheme" type="text/css"></style></defs><path d="M8 1a7 7 0 0 0-7 7 7 7 0 0 0 7 7 7 7 0 0 0 7-7 7 7 0 0 0-7-7zM6.516 4.002c.135-.002.273-.001.406 0 3.197.044 5.685 1.371 5.685 1.371.324.172.479.687.344 1.1-.135.412-.551.642-.875.47 0 0-4.055-2.14-8.183-.824-.348.146-.786-.135-.875-.588-.09-.452.17-.977.53-1.058a10.409 10.409 0 0 1 2.968-.471zm.435 3c.113-.001.212-.004.322 0 2.64.092 4.467 1.55 4.467 1.55.234.186.328.662.207 1.02-.121.358-.441.539-.676.354 0 0-2.907-2.345-6.642-.975-.263.124-.553-.122-.617-.531-.064-.41.141-.859.412-.93.897-.329 1.738-.481 2.527-.488zM7.266 10c1.29.025 2.442.504 3.543 1.154.164.108.243.412.152.629-.091.218-.337.285-.486.141 0 0-2.036-1.659-5.057-.735-.173.075-.372-.069-.412-.314-.04-.245.103-.525.283-.561A6.636 6.636 0 0 1 7.266 10z" fill="currentColor" color="#dfdfdf"/></svg>