<svg xmlns="http://www.w3.org/2000/svg" width="16" height="16"><defs><style id="current-color-scheme" type="text/css"></style></defs><path d="M8 1a7 7 0 0 0-7 7 7 7 0 0 0 7 7 7 7 0 0 0 7-7 7 7 0 0 0-7-7zm.145 2.998V4h.002c1.309.048 2.5.737 3.203 1.818l1.388-.462-1.57 3.146-3.146-1.574 1.277-.426a1.985 1.985 0 0 0-1.229-.504 1.999 1.999 0 0 0-1.806.998l-1.733-1a4.006 4.006 0 0 1 3.614-1.998zm-3.313 3.5l3.147 1.574-1.278.426c.338.294.763.485 1.229.502a1.999 1.999 0 0 0 1.806-.998l1.733 1A4.007 4.007 0 0 1 7.856 12a4.001 4.001 0 0 1-3.204-1.818l-1.388.463z" fill="currentColor" color="#dfdfdf"/></svg>