<svg xmlns="http://www.w3.org/2000/svg" width="16" height="16"><defs><style id="current-color-scheme" type="text/css"></style></defs><path d="M9 1a4 4 0 0 0-3.484 2.04 3 3 0 0 0-2.512 3.089A4 4 0 0 0 0 10a4 4 0 0 0 4 4h5.297l-2.049-2.342A1 1 0 0 1 8 10h1V7a1 1 0 0 1 1-1h3a1 1 0 0 1 1 1v3h1a.98.98 0 0 1 .762.354A4 4 0 0 0 16 9a4 4 0 0 0-3.006-3.87c.003-.043.005-.086.006-.13a4 4 0 0 0-4-4zm1 6v3.324c0 .246-.221.676-.467.676H8l3.5 4 3.5-4h-1.521c-.246 0-.479-.43-.479-.676V7h-3z" fill="currentColor" color="#dfdfdf"/></svg>