<svg xmlns="http://www.w3.org/2000/svg" width="16" height="16"><defs><style id="current-color-scheme" type="text/css"></style></defs><path d="M13 3a3 3 0 0 0-2.99 2.766l-2.098 3.27A2.5 2.5 0 0 0 6.2 9.37l-1.207-.682A2.5 2.5 0 0 0 5 8.5 2.5 2.5 0 0 0 2.5 6 2.5 2.5 0 0 0 0 8.5 2.5 2.5 0 0 0 2.5 11a2.5 2.5 0 0 0 1.549-.541l1.002.557A2.5 2.5 0 0 0 5 11.5a2.5 2.5 0 1 0 4.979-.314l2.597-2.22A3 3 0 0 0 13 9a3 3 0 0 0 0-6zm0 1a2 2 0 1 1 0 4 2 2 0 0 1 0-4zm0 1a1 1 0 1 0 0 2 1 1 0 0 0 0-2zM2.5 7a1.5 1.5 0 0 1 1.443 1.096l-.44-.248-.017-.002A1 1 0 0 0 3 7.72a1 1 0 0 0-1 1 1 1 0 0 0 .504.865l.008.018.531.294A1.5 1.5 0 0 1 2.5 10 1.5 1.5 0 0 1 1 8.5 1.5 1.5 0 0 1 2.5 7zm4.96 3h.04a1.5 1.5 0 1 1-1.498 1.566l.498.288c.496.286 1.118.13 1.395-.35.277-.48.1-1.097-.395-1.383l-.188-.107A1.5 1.5 0 0 1 7.462 10z" fill="currentColor" color="#dfdfdf"/><path d="M.072 6.986a8 8 0 0 0-.052.616 8 8 0 0 1 .052-.616zM0 8a8 8 0 0 0 .04.725A8 8 0 0 1 0 8z" fill="currentColor"/></svg>