<svg height="16" width="16" xmlns="http://www.w3.org/2000/svg"><g fill="#dfdfdf"><path d="M2.977 11.994a.5.5 0 0 0-.424.281l-1 2a.5.5 0 1 0 .895.448l1-2a.5.5 0 0 0-.471-.729zM5.477 11.994a.5.5 0 0 0-.424.281l-1 2a.5.5 0 1 0 .895.448l1-2a.5.5 0 0 0-.471-.729zM7.977 11.994a.5.5 0 0 0-.424.281l-1 2a.5.5 0 1 0 .895.448l1-2a.5.5 0 0 0-.471-.729zM10.477 11.994a.5.5 0 0 0-.424.281l-1 2a.5.5 0 1 0 .895.448l1-2a.5.5 0 0 0-.471-.729zM12.977 11.994a.5.5 0 0 0-.424.281l-1 2a.5.5 0 1 0 .895.448l1-2a.5.5 0 0 0-.471-.729z" style="line-height:normal;text-indent:0;text-align:start;text-decoration-line:none;text-decoration-style:solid;text-decoration-color:#000;text-transform:none;block-progression:tb;white-space:normal;isolation:auto;mix-blend-mode:normal;solid-color:#000;solid-opacity:1" color="#000" font-weight="400" font-family="sans-serif" overflow="visible" stroke-linecap="round"/><path d="M8 .003c-2.071 0-3.835 1.268-4.594 3.063A3.981 3.981 0 0 0 0 7.003a4 4 0 0 0 4 4h8.5a3.5 3.5 0 0 0 3.5-3.5 3.49 3.49 0 0 0-3.094-3.468A5.011 5.011 0 0 0 8 .003z"/></g></svg>