<svg xmlns="http://www.w3.org/2000/svg" width="16" height="16"><defs><style id="current-color-scheme" type="text/css"></style></defs><path d="M8 1a.885.885 0 0 0-.627.262L1.26 7.373a.887.887 0 0 0 0 1.256l6.113 6.111a.885.885 0 0 0 1.254 0L14.74 8.63a.887.887 0 0 0 0-1.256L8.627 1.262A.885.885 0 0 0 8 1zm-.107 3c.73 0 1.3.176 1.709.527.41.352.617.82.617 1.405 0 .49-.145.9-.436 1.23-.29.33-.707.54-1.246.633v.031c1.281.167 1.922.786 1.922 1.854 0 .72-.245 1.288-.734 1.703-.49.41-1.197.617-2.123.617-.86 0-1.546-.14-2.061-.42v-.906a4.35 4.35 0 0 0 2.04.512c1.255 0 1.882-.512 1.882-1.538 0-.915-.675-1.375-2.027-1.375h-.707v-.802h.707c.567 0 1.008-.135 1.32-.405.312-.269.469-.626.469-1.07 0-.362-.122-.648-.364-.857-.24-.213-.564-.319-.968-.319-.632 0-1.241.214-1.83.643l-.49-.664C6.235 4.267 7.008 4 7.892 4z" fill="currentColor" color="#dfdfdf"/></svg>