<svg xmlns="http://www.w3.org/2000/svg" width="16" height="16"><defs><style id="current-color-scheme" type="text/css">.ColorScheme-Text{color:#dfdfdf}</style></defs><path class="ColorScheme-Text" d="M8 1a7 7 0 0 0-7 7l1 2 1-2a5 5 0 0 1 5-5L6 2z" opacity=".3" fill="currentColor"/><path class="ColorScheme-Text" d="M8 1L6 2l2 1a5 5 0 0 1 5 5l1-2 1 2a7 7 0 0 0-7-7zM1 8a7 7 0 0 0 7 7l2-1-2-1a5 5 0 0 1-5-5l-1 2-1-2zM13 9a3 3 0 0 0-3 3 3 3 0 0 0 3 3 3 3 0 0 0 3-3 3 3 0 0 0-3-3zm1.477.994a.5.5 0 0 1 .47.729l-1.5 3a.5.5 0 0 1-.724.191l-1.5-1a.5.5 0 1 1 .554-.832l1.03.688 1.246-2.493a.5.5 0 0 1 .424-.283z" fill="currentColor"/></svg>