<svg xmlns="http://www.w3.org/2000/svg" width="16" height="16" version="1"><defs><style id="current-color-scheme" type="text/css"></style></defs><path d="M4 1c-.554 0-1 .446-1 1v2c0-.554.446-1 1-1h8c.554 0 1 .446 1 1V2c0-.554-.446-1-1-1zm0 3c-.554 0-1 .446-1 1v1h10V5c0-.554-.446-1-1-1zM2 7c-.554 0-1 .446-1 1v6c0 .554.446 1 1 1h12c.554 0 1-.446 1-1V8c0-.554-.446-1-1-1zm4.25 3h3.5c.139 0 .25.111.25.25v.5a.25.25 0 0 1-.25.25h-3.5a.249.249 0 0 1-.25-.25v-.5a.25.25 0 0 1 .25-.25z" fill="currentColor" color="#dfdfdf"/></svg>