<svg xmlns="http://www.w3.org/2000/svg" width="16" height="16"><defs><style id="current-color-scheme" type="text/css"></style></defs><path d="M8 1a7 7 0 0 0-7 7 7 7 0 0 0 7 7 7 7 0 0 0 2.004-.295c-.006-.043-.017-.084-.02-.129-.02-.407.165-.858.469-1.15l.926-.926-.928-.928a1.453 1.453 0 0 1-.373-.65L10 11V9H6v2L3 8l3-3v2h4V5l3 3-1.068 1.068c.24.074.462.2.64.383l.928.928.932-.932c.136-.14.298-.25.474-.326A7 7 0 0 0 15 8a7 7 0 0 0-7-7zm3.494 8.994a.5.5 0 0 0-.348.86l1.647 1.646-1.647 1.646a.5.5 0 1 0 .708.708l1.646-1.647 1.646 1.647a.5.5 0 1 0 .708-.708L14.207 12.5l1.647-1.646a.5.5 0 0 0-.364-.858.5.5 0 0 0-.344.15L13.5 11.793l-1.646-1.647a.5.5 0 0 0-.36-.152z" fill="currentColor" color="#dfdfdf"/></svg>