<svg xmlns="http://www.w3.org/2000/svg" width="16" height="16" version="1"><defs><style id="current-color-scheme" type="text/css"></style></defs><path d="M9.29 14.877c-.391-.236-.64-.646-1.723-2.836-.599-1.212-1.17-2.289-1.267-2.392-.11-.117-1.014-.597-2.363-1.256C1.27 7.093 1 6.885 1 6.148c0-.344.168-.673.431-.845.09-.058 2.878-1.056 6.195-2.216C13.453 1.05 13.67.98 14.068 1.003c.344.022.444.057.61.214.248.237.359.565.311.916-.052.377-4.236 12.194-4.392 12.403-.331.447-.894.594-1.309.342z" fill="currentColor" color="#dfdfdf"/></svg>