<?xml version="1.0" encoding="UTF-8" standalone="no"?>
<svg
   xmlns:dc="http://purl.org/dc/elements/1.1/"
   xmlns:cc="http://creativecommons.org/ns#"
   xmlns:rdf="http://www.w3.org/1999/02/22-rdf-syntax-ns#"
   xmlns:svg="http://www.w3.org/2000/svg"
   xmlns="http://www.w3.org/2000/svg"
   xmlns:sodipodi="http://sodipodi.sourceforge.net/DTD/sodipodi-0.dtd"
   xmlns:inkscape="http://www.inkscape.org/namespaces/inkscape"
   viewBox="0 0 16 16"
   version="1.1"
   id="svg8"
   sodipodi:docname="transmission-tray-icon.svg"
   inkscape:version="0.92.4 5da689c313, 2019-01-14">
  <metadata
     id="metadata14">
    <rdf:RDF>
      <cc:Work
         rdf:about="">
        <dc:format>image/svg+xml</dc:format>
        <dc:type
           rdf:resource="http://purl.org/dc/dcmitype/StillImage" />
      </cc:Work>
    </rdf:RDF>
  </metadata>
  <defs
     id="defs12" />
  <sodipodi:namedview
     pagecolor="#ffffff"
     bordercolor="#666666"
     borderopacity="1"
     objecttolerance="10"
     gridtolerance="10"
     guidetolerance="10"
     inkscape:pageopacity="0"
     inkscape:pageshadow="2"
     inkscape:window-width="1366"
     inkscape:window-height="707"
     id="namedview10"
     showgrid="false"
     inkscape:zoom="14.75"
     inkscape:cx="-1.3220339"
     inkscape:cy="8"
     inkscape:window-x="0"
     inkscape:window-y="28"
     inkscape:window-maximized="1"
     inkscape:current-layer="svg8" />
  <g
     transform="matrix(1.25,0,0,-1.25,0,16)"
     id="g6">
    <g
       id="g4">
      <path
         d="M 4.07,10.8 C 3.746,10.8 3.484,10.538 3.484,10.214 3.484,9.89 3.746,9.628 4.07,9.628 l 1.782,0 -0.04,-2.348 -2.437,0 -1.102,-4.695 0,-0.586 8.25,0 0,0.551 -1.023,4.73 -2.496,0 0,-1.761 1.176,0 -1.742,-1.797 -1.782,1.797 1.156,0 0.04,1.761 1.152,0 0,2.348 1.762,0 c 0.324,0 0.586,0.262 0.586,0.586 0,0.324 -0.262,0.586 -0.586,0.586 l -4.696,0 z"
         style="fill:#dfdfdf;fill-opacity:1;stroke:none;fill-rule:evenodd"
         id="path2" />
    </g>
  </g>
</svg>
