<svg xmlns="http://www.w3.org/2000/svg" width="16" height="16"><defs><style id="current-color-scheme" type="text/css"></style></defs><path d="M6 3a4 4 0 0 0-4 4 4 4 0 0 0 .006.172A3 3 0 0 0 0 10a3 3 0 0 0 3 3h10a3 3 0 0 0 3-3 3 3 0 0 0-2.01-2.828A3 3 0 0 0 14 7a3 3 0 0 0-3-3 3 3 0 0 0-1.8.605A4 4 0 0 0 6 3zm.002 3h.52a.51.51 0 0 1 .333.168L8 7.293l1.168-1.125c.132-.115.211-.163.332-.168h.5v.5c0 .143-.017.275-.125.375L8.729 8.021l1.125 1.125A.498.498 0 0 1 10 9.5v.5h-.5a.5.5 0 0 1-.354-.146L8 8.729 6.855 9.854a.498.498 0 0 1-.353.146h-.5v-.5c0-.133.05-.261.144-.355L7.293 8.02 6.146 6.875a.458.458 0 0 1-.144-.375V6z" fill="currentColor" color="#dfdfdf"/></svg>