<svg width="16" height="16" version="1.1" xmlns="http://www.w3.org/2000/svg">
 <defs>
  <style id="current-color-scheme" type="text/css">.ColorScheme-Text { color:#dfdfdf; } .ColorScheme-Highlight { color:#4285f4; }</style>
 </defs>
 <path class="ColorScheme-Text" d="m7.5762 0.011719a8.0066 8.011 0 0 0-5.2324 2.3242 8.0066 8.011 0 0 0-1.2344 9.7305 8.0066 8.011 0 0 0 1.2344 1.5977l4.2461-4.248-0.41602-0.41602h-2l-1.5879 1.5898a6.0049 6.0082 0 0 1 1.1738-6.8379 6.0049 6.0082 0 0 1 6.8262-1.166l1.4746-1.4766a8.0066 8.011 0 0 0-4.4844-1.0977zm6.0898 2.3242-4.2461 4.248 0.41602 0.41602h2l1.5801-1.582a6.0049 6.0082 0 0 1-0.43164 5.9316 3.5 3.5 0 0 1 1.5156-0.34961 3.5 3.5 0 0 1 0.875 0.11328 8.0066 8.011 0 0 0-0.48438-7.1699 8.0066 8.011 0 0 0-1.2246-1.6074zm-2.3027 10.625a6.0049 6.0082 0 0 1-5.9395 0.45312l-1.4746 1.4766a8.0066 8.011 0 0 0 7.1641 0.46289 3.5 3.5 0 0 1-0.11328-0.85352 3.5 3.5 0 0 1 0.36328-1.5391z" fill="currentColor"/>
 <circle class="ColorScheme-Highlight" cx="14.5" cy="14.5" r="1.5" fill="currentColor"/>
</svg>
