<svg height="16" width="16" xmlns="http://www.w3.org/2000/svg"><defs><style id="current-color-scheme" type="text/css">.ColorScheme-Text{color:#dfdfdf;}.ColorScheme-Highlight{color:#5294e2;}</style></defs><g fill="#dfdfdf"><path d="M13 2.003s2 0 2 2H1c0-2 1.969-2 1.969-2zm2 8c0 2-2 2-2 2h-1l-2 3-2-3H3c-1.108 0-2-.892-2-2z" opacity=".35"/><path d="M3 5c-1.108 0-2 .892-2 2s.892 2 2 2 2-.892 2-2-.892-2-2-2zm5 0c-1.108 0-2 .892-2 2s.892 2 2 2 2-.892 2-2-.892-2-2-2zm5 0c-1.108 0-2 .892-2 2s.892 2 2 2 2-.892 2-2-.892-2-2-2z" style="marker:none" color="#000" overflow="visible"/></g></svg>