<svg xmlns="http://www.w3.org/2000/svg" width="16" height="16"><defs><style id="current-color-scheme" type="text/css"></style></defs><path d="M14 1c-.974 0-2 .784-2 1.75.001.234.12.565.213.78.014.05.025.11.041.152.369 1.411-.007 2.415-.848 3.42-1.176 1.174-2.466 1.194-3.635.046L4.204 1.556c-.361-.387-.865-.525-1.325-.528-.99-.016-1.676.768-1.839 1.609-.12.672-.175.556 3.023 6.318 2.018 3.636 2.977 5.314 3.135 5.479.556.584 1.352.728 2.095.381a1.9 1.9 0 0 0 .557-.413c.276-.311 5.909-10.58 6.003-10.933.11-.235.134-.484.147-.718C16 1.784 14.975 1 14 1z" fill="currentColor" color="#dfdfdf"/></svg>