<svg xmlns="http://www.w3.org/2000/svg" width="16" height="16"><path d="M8 0C5.929 0 4.165 1.27 3.406 3.07A3.974 3.974 0 0 0 0 7c0 1.94 1.365 3.54 3.187 3.91.764-.78 1.522-1.56 2.313-2.31.573.54 1.133 1.1 1.687 1.65.243-.07.383-.84.719-1.09.854-.87 1.709-1.73 2.594-2.56.666.62 1.291 1.26 1.937 1.9.598.57 1.228 1.21 1.438 2.03.016.06.018.11.031.16A3.466 3.466 0 0 0 16 7.5c0-1.79-1.351-3.27-3.094-3.47C12.451 1.74 10.427 0 8 0zm2.5 9.44c-.085.08-.165.17-.25.25-.397.42-.899.78-1.125 1.31h2.781c-.026-.06-.056-.13-.094-.18-.373-.52-.879-.92-1.312-1.38z" fill="currentColor" color="#dfdfdf"/><path d="M10.5 8l-.344.34L8.75 9.75A2.46 2.46 0 0 0 8 11.5a2.51 2.51 0 0 0 2.5 2.5 2.51 2.51 0 0 0 2.5-2.5c0-.69-.297-1.3-.75-1.75l-1.406-1.41zm-5 2l-.344.34-1.406 1.41A2.46 2.46 0 0 0 3 13.5 2.51 2.51 0 0 0 5.5 16 2.51 2.51 0 0 0 8 13.5c0-.69-.297-1.3-.75-1.75l-1.406-1.41z" fill="currentColor" color="#5294e2"/></svg>