<svg height="16" width="16" xmlns="http://www.w3.org/2000/svg"><path d="M8 .003c-2.071 0-3.835 1.268-4.594 3.063A3.981 3.981 0 0 0 0 7.003a3.982 3.982 0 0 0 3.188 3.907c.764-.779 1.52-1.562 2.312-2.313.573.538 1.133 1.1 1.688 1.656.242-.069.382-.846.718-1.093.855-.868 1.71-1.725 2.594-2.563.666.625 1.291 1.261 1.938 1.906.597.572 1.227 1.204 1.437 2.032.016.05.018.104.031.156A3.468 3.468 0 0 0 16 7.503a3.49 3.49 0 0 0-3.094-3.468A5.011 5.011 0 0 0 8 .003zm2.5 9.438c-.085.083-.165.167-.25.25-.397.416-.9.783-1.125 1.312h2.781a1.308 1.308 0 0 0-.093-.187c-.374-.513-.88-.913-1.313-1.375z" fill="#dfdfdf"/><path class="link" d="M10.5 8l-.344.344L8.75 9.75c-.453.453-.75 1.063-.75 1.75 0 1.375 1.125 2.5 2.5 2.5s2.5-1.125 2.5-2.5c0-.687-.297-1.297-.75-1.75l-1.406-1.406zm-5 2l-.344.344L3.75 11.75c-.453.453-.75 1.063-.75 1.75C3 14.875 4.125 16 5.5 16S8 14.875 8 13.5c0-.687-.297-1.297-.75-1.75l-1.406-1.406z" style="line-height:normal;-inkscape-font-specification:Sans;text-indent:0;text-align:start;text-decoration-line:none;text-transform:none;block-progression:tb;marker:none" color="#000" font-weight="400" font-family="Sans" overflow="visible" fill="#dfdfdf"/></svg>