<svg height="16" width="16" xmlns="http://www.w3.org/2000/svg"><g fill="#dfdfdf"><path d="M8 0C5.929 0 4.165 1.268 3.406 3.063A3.981 3.981 0 0 0 0 7a4 4 0 0 0 4 4h.406a3.68 3.68 0 0 1 2.125-1.688C7.151 7.99 8.506 6.974 10 7c1.908-.03 3.582 1.485 3.875 3.344.143.045.27.09.406.156A3.471 3.471 0 0 0 16 7.5a3.49 3.49 0 0 0-3.094-3.469A5.011 5.011 0 0 0 8 0zm2 9c-.34 0-.676.077-.969.25-.588.319-.89.947-1.062 1.563-.023.212-.29.124-.438.187H12c.02-1.066-.924-2.037-2-2z"/><path d="M10 8c-1.312 0-2.405.858-2.813 2.031A2.494 2.494 0 0 0 7.5 15H13a2 2 0 1 0 0-4 3 3 0 0 0-3-3z"/></g></svg>