<svg xmlns="http://www.w3.org/2000/svg" width="16" height="16"><defs><style id="current-color-scheme" type="text/css"></style></defs><path d="M8.02 0a1 1 0 1 0 0 2s.286.013.543.143c.257.13.443.188.443.857s-.186.728-.443.857c-.257.13-.542.143-.542.143H1.013a1 1 0 1 0 0 2h7.008s.707.013 1.442-.357S11.004 4.33 11.004 3c0-1.331-.806-2.272-1.541-2.643C8.728-.013 8.02 0 8.02 0zm4.996 3a1 1 0 1 0 0 2s.286.013.543.143c.257.13.443.188.443.857s-.186.728-.443.857c-.257.13-.543.143-.543.143H5.023a1 1 0 1 0 0 2h7.993s.707.013 1.442-.357S16 7.33 16 6c0-1.331-.807-2.272-1.542-2.643-.735-.37-1.442-.357-1.442-.357zM1.013 10a1 1 0 1 0 0 2h7.008s.285.013.542.143c.257.129.443.188.443.857s-.186.728-.443.857c-.257.13-.542.143-.542.143a1 1 0 1 0 0 2s.707.013 1.442-.357c.735-.371 1.541-1.312 1.541-2.643 0-1.331-.806-2.272-1.541-2.643C8.728 9.987 8.02 10 8.02 10z" fill="currentColor" color="#dfdfdf"/></svg>