<svg xmlns="http://www.w3.org/2000/svg" width="16" height="16"><defs><style id="current-color-scheme" type="text/css"></style></defs><path d="M8 .004c-2.071 0-3.835 1.268-4.594 3.063A3.981 3.981 0 0 0 0 7.003a4 4 0 0 0 4 4h8.5a3.5 3.5 0 0 0 3.5-3.5 3.49 3.49 0 0 0-3.094-3.469A5.01 5.01 0 0 0 8 .004zM3.479 11.992a.5.5 0 0 0-.426.283l-1 2a.5.5 0 0 0 .894.448l1-2a.5.5 0 0 0-.469-.731zm3 .002a.5.5 0 0 0-.426.283l-1 2a.5.5 0 1 0 .894.448l1-2a.5.5 0 0 0-.468-.731zM11 12a1 1 0 0 0-1 1 1 1 0 0 0 1 1 1 1 0 0 0 1-1 1 1 0 0 0-1-1zm-2 2a1 1 0 0 0-1 1 1 1 0 0 0 1 1 1 1 0 0 0 1-1 1 1 0 0 0-1-1zm4 0a1 1 0 0 0-1 1 1 1 0 0 0 1 1 1 1 0 0 0 1-1 1 1 0 0 0-1-1z" fill="currentColor" color="#dfdfdf"/></svg>