<svg xmlns="http://www.w3.org/2000/svg" width="16" height="16"><defs><style id="current-color-scheme" type="text/css"></style></defs><path d="M8 0C5.929 0 4.165 1.268 3.406 3.063A3.981 3.981 0 0 0 0 7a4 4 0 0 0 4 4h1.186C5.602 9.842 6.706 9 8 9s2.398.842 2.814 2H12.5A3.5 3.5 0 0 0 16 7.5a3.49 3.49 0 0 0-3.094-3.469A5.01 5.01 0 0 0 8 0zm0 10a2 2 0 0 0-2 2 2 2 0 0 0 2 2 2 2 0 0 0 2-2 2 2 0 0 0-2-2zm-5 2a2 2 0 0 0-2 2 2 2 0 0 0 2 2 2 2 0 0 0 2-2 2 2 0 0 0-2-2zm10 0a2 2 0 0 0-2 2 2 2 0 0 0 2 2 2 2 0 0 0 2-2 2 2 0 0 0-2-2z" fill="currentColor" color="#dfdfdf"/></svg>