<svg height="16" width="16" xmlns="http://www.w3.org/2000/svg"><path d="M8 0l-.5 1.031c.165-.011.332-.03.5-.03.168 0 .335.019.5.03L8 0zm0 2a6 6 0 1 0 0 12A6 6 0 0 0 8 2zm-5.656.344l.375 1.094c.218-.252.467-.501.719-.72l-1.094-.374zm11.312 0l-1.094.375c.252.218.501.467.72.719l.374-1.094zM1.031 7.5L0 8l1.031.5C1.02 8.335 1 8.168 1 8c0-.168.02-.335.031-.5zm13.938 0c.011.165.031.332.031.5 0 .168-.02.335-.031.5L16 8l-1.031-.5zm-12.25 5.063l-.375 1.093 1.094-.375a7.326 7.326 0 0 1-.72-.719zm10.562 0c-.218.25-.467.5-.719.718l1.094.375-.375-1.094zM7.5 14.969L8 16l.5-1.031c-.165.011-.332.031-.5.031-.168 0-.335-.02-.5-.031z" style="marker:none" color="#bebebe" overflow="visible" fill="#dfdfdf" stroke-width="2"/></svg>