<svg height="16.003" width="16" xmlns="http://www.w3.org/2000/svg"><g fill="#dfdfdf"><path d="M7 .003l-.5 1.032c.162-.014.335-.032.5-.032h.5l-.5-1zm0 2a5 5 0 0 0-5 5c0 2.254 1.513 4.126 3.563 4.75a3.715 3.715 0 0 1 1.968-1.437C8.151 8.994 9.506 7.978 11 8.003c.304-.005.587.056.875.125.085-.364.125-.735.125-1.125a5 5 0 0 0-5-5zm-4.938.063l.344 1.062c.22-.259.46-.5.719-.718l-1.063-.344zm9.876 0l-1.094.375h-.063c.14.11.275.225.406.344.132.118.258.241.376.375l.374-1.094zM1 6.503l-1 .5 1.031.5C1.016 7.334 1 7.177 1 7.003c0-.027-.002-.083 0-.156.006-.116.022-.232.031-.344H1zm11.969 0c.015.17.031.327.031.5 0 .028.002.084 0 .157-.006.115-.022.232-.031.343H13l1-.5-1.031-.5zM2.438 10.847l-.376 1.094 1.094-.375h.063a8.605 8.605 0 0 1-.406-.344 4.596 4.596 0 0 1-.376-.375z" style="marker:none" color="#bebebe" overflow="visible" stroke-width="2"/><path d="M11 9.003c-1.312 0-2.405.859-2.813 2.032a2.494 2.494 0 0 0 .313 4.968H14a2 2 0 1 0 0-4 3 3 0 0 0-3-3z"/></g></svg>