<svg xmlns="http://www.w3.org/2000/svg" width="16" height="16"><defs><style id="current-color-scheme" type="text/css"></style></defs><path d="M8.037 1a1.522 1.592 0 0 0-.799.215L2.762 3.918A1.522 1.592 0 0 0 2 5.297v5.406a1.522 1.592 0 0 0 .762 1.379l4.476 2.703a1.522 1.592 0 0 0 1.524 0l4.476-2.703A1.522 1.592 0 0 0 14 10.703V5.297a1.522 1.592 0 0 0-.762-1.379L8.762 1.215a1.522 1.592 0 0 0-.725-.213zM6.273 4C6.932 4 7.585 4.419 8 5c.415-.581 1.068-1 1.727-1C10.982 4 12 5.324 12 6.955c0 .44-.06.86-.164 1.264 0 0-.096.362-.18.562C10.698 11.34 8 13 8 13s-2.698-1.66-3.656-4.219c-.084-.2-.18-.562-.18-.562A5.023 5.023 0 0 1 4 6.955C4 5.324 5.018 4 6.273 4z" fill="currentColor" color="#dfdfdf"/></svg>