<svg xmlns="http://www.w3.org/2000/svg" width="16" height="16"><defs><style id="current-color-scheme" type="text/css">.ColorScheme-Highlight{color:#5294e2}</style></defs><path class="ColorScheme-Highlight" d="M8 1c-.169 0-.335.008-.5.02l-.063.003a6.98 6.98 0 0 0-5.689 3.829c-.07.137-.139.277-.2.42a6.365 6.365 0 0 0-.542 2.425c-.002.079-.005.157-.004.237L1 8c0 .814.145 1.591.398 2.316.102.326.22.654.362.987.05.117.08.2.119.297A2.5 2.5 0 0 1 3.5 11 2.5 2.5 0 0 1 6 13.5a2.5 2.5 0 0 1-.283 1.15c.11.032.202.054.342.098.459.144.981.221 1.572.242.024.002.05.001.074.002.08.003.161.008.244.008H8c.195 0 .388-.01.58-.025 1.73-.124 3.12-.763 4.371-2.012a6.933 6.933 0 0 0 1.98-3.996c.011-.076.022-.153.03-.229a7.13 7.13 0 0 0 .031-.496c.002-.042.004-.083.004-.125.001-.04.004-.078.004-.117a6.981 6.981 0 0 0-6.807-6.994l-.09-.002C8.07 1.004 8.036 1 8 1zM5.5 4A1.5 1.5 0 0 1 7 5.5C7 6 7 7 6 7c0 1 2.032 2.946 3 3 0-1 1-1 1.5-1a1.5 1.5 0 0 1 0 3h-.56c-.297-.007-.643-.116-1.127-.293-1.624-.592-2.75-1.542-3.905-3.293-.672-1.02-.904-1.633-.908-2.396V5.5A1.5 1.5 0 0 1 5.5 4z" fill="currentColor"/><circle class="ColorScheme-Highlight" cx="3.5" cy="13.5" r="1.5" fill="currentColor"/></svg>