<svg xmlns="http://www.w3.org/2000/svg" width="16" height="16"><defs><style id="current-color-scheme" type="text/css"></style></defs><path d="M8 1c-.169 0-.335.008-.5.02l-.063.003a6.98 6.98 0 0 0-5.689 3.829c-.07.137-.139.277-.2.42a6.365 6.365 0 0 0-.542 2.425c-.002.079-.005.157-.004.237L1 8c0 .814.145 1.591.398 2.316.102.326.22.654.362.987.353.83.395 1.054.34 1.746-.04.483-.169.976-.332 1.254-.149.25-.268.512-.268.578 0 .205 1.18.133 2.225-.135 1.223-.313 1.33-.313 2.334.002.459.144.981.221 1.572.242.024.002.05.001.074.002.08.003.161.008.244.008H8c.195 0 .388-.01.58-.025 1.73-.124 3.12-.763 4.371-2.012a6.933 6.933 0 0 0 1.98-3.996c.011-.076.022-.153.03-.229.017-.163.026-.329.031-.496.002-.042.004-.083.004-.125.001-.04.004-.078.004-.117a6.981 6.981 0 0 0-6.807-6.994l-.09-.002C8.07 1.004 8.036 1 8 1zM4 7a1 1 0 0 1 1 1 1 1 0 0 1-1 1 1 1 0 0 1-1-1 1 1 0 0 1 1-1zm4 0a1 1 0 0 1 1 1 1 1 0 0 1-1 1 1 1 0 0 1-1-1 1 1 0 0 1 1-1zm4 0a1 1 0 0 1 1 1 1 1 0 0 1-1 1 1 1 0 0 1-1-1 1 1 0 0 1 1-1z" fill="currentColor" color="#dfdfdf"/></svg>