<svg xmlns="http://www.w3.org/2000/svg" width="16" height="16" version="1"><defs><style id="current-color-scheme" type="text/css"></style></defs><path d="M1.477.996a.5.5 0 0 0-.317.871l14 13c.49.453 1.169-.281.68-.734l-14-13a.5.5 0 0 0-.363-.137zM8 1a3.978 3.978 0 0 0-3.15 1.563L6.398 4H7V3h2v1h1v2H9v.416l1.666 1.547A3.976 3.976 0 0 0 12 5a4 4 0 0 0-4-4zM4.143 6.002a3.985 3.985 0 0 0 3.15 2.926zM8 10c-8 .004-7 5-7 5h12.832l-5.365-4.982C8.307 10.013 8.166 10 8 10z" fill="currentColor" color="#dfdfdf"/></svg>