<svg xmlns="http://www.w3.org/2000/svg" width="16" height="16" version="1"><defs><style id="current-color-scheme" type="text/css"></style></defs><path d="M8 1a4 4 0 1 0 0 8 4 4 0 0 0 0-8zM7 3h2v1h1v2H9v1H7V6H6V4h1zm4.494 6.994a.5.5 0 0 0-.348.86l1.647 1.646-1.647 1.646c-.49.472.236 1.198.708.708l1.646-1.647 1.646 1.647c.472.49 1.198-.236.708-.708L14.207 12.5l1.647-1.646a.5.5 0 1 0-.708-.708L13.5 11.793l-1.646-1.647a.503.503 0 0 0-.36-.152zM8 10c-8 .004-7 5-7 5h9.074a1.47 1.47 0 0 1-.09-.424c-.02-.407.165-.858.469-1.15l.926-.926-.928-.928c-.396-.383-.51-.952-.396-1.435A15.452 15.452 0 0 0 8 10z" fill="currentColor" color="#dfdfdf"/></svg>