<svg xmlns="http://www.w3.org/2000/svg" width="16" height="16"><path d="M3 1c-.554 0-1 .446-1 1v12c0 .554.446 1 1 1h5.021c.025-.225.08-.447.186-.652l1.395-2.705.716-1.39A4 4 0 0 1 8 11H4V7a4 4 0 0 1 4-4 4 4 0 0 1 4 4 4 4 0 0 1-.172 1.16c.18-.082.37-.146.576-.158h.004c.06-.003.12-.003.18 0a1.715 1.715 0 0 1 1.412.93V2c0-.554-.446-1-1-1H3zm5 4a2 2 0 0 0-2 2 2 2 0 0 0 2 2 2 2 0 0 0 2-2 2 2 0 0 0-2-2z" fill="currentColor" color="#dfdfdf"/><path d="M12.463 9a.71.796 0 0 0-.578.396l-1.395 2.706-1.394 2.705a.71.796 0 0 0-.096.379.71.796 0 0 0 .71.814h5.58a.71.796 0 0 0 .614-1.193l-1.394-2.705-1.395-2.706A.71.796 0 0 0 12.533 9a.71.796 0 0 0-.07 0zM12 10h1v3h-1v-3zm0 4h1v1h-1v-1z" fill="currentColor" color="#5294e2"/></svg>