<svg xmlns="http://www.w3.org/2000/svg" width="16" height="16"><defs><style id="current-color-scheme" type="text/css"></style></defs><path d="M4.53 1A3.515 3.515 0 0 0 1 4.532v6.936A3.514 3.514 0 0 0 4.53 15h6.94A3.514 3.514 0 0 0 15 11.468V4.532A3.515 3.515 0 0 0 11.47 1zM2.002 3.001L7 3v.47c-.129.012-.21 0-.373 0-.54.036-.938.104-.938.406 0 .266.082.515.28.781L8.47 8.53l2.655-3.904c.176-.278.25-.53.25-.688 0-.23-.187-.383-.375-.468h-1V3h4v.47c-.446.036-.827.065-1.156.343-.317.266-.753.796-1.281 1.594L9 9.47V13c.211.193 1.213.519 2 .531V14H5v-.47c.799-.036 1.812-.337 2-.53V9.44L4.875 6.188C3.96 4.883 3.357 4.103 3.063 3.813c-.293-.29-.6-.343-1.062-.343V3z" fill="currentColor" color="#dfdfdf"/></svg>