<svg xmlns="http://www.w3.org/2000/svg" width="16" height="16" version="1"><defs><style id="current-color-scheme" type="text/css"></style></defs><path d="M7.092 2.047c-3.556 0-2.729 3.248-4.549 4.226-.063.036-.098.069-.154.104 1.2-.715 2.68-1.312 4.252-1.717a17.344 17.344 0 0 1 4.021-.559c-1.2-.34-1.332-2.054-3.57-2.054zm3.875 2.955a17.357 17.357 0 0 0-3.926.558C2.655 6.69-.472 9.144.059 11.043c.305 1.085 1.777 1.801 3.97 1.931 0-.008-.003-.015-.004-.023-.118-1.027.534-1.92 1.297-2.526.764-.605 1.747-1.045 2.85-1.279 1.103-.234 2.136-.223 3 .037.812.245 1.576.778 1.764 1.694 2.198-1.233 3.338-2.719 3.007-3.92-.35-1.258-2.258-2.008-4.976-1.955zM9.662 10a1.859 3.577 76.001 0 0-1.377.142 1.859 3.577 76.001 0 0-3.28 2.6 1.859 3.577 76.001 0 0 3.71 1.115 1.859 3.577 76.001 0 0 3.277-2.599A1.859 3.577 76.001 0 0 9.662 10z" fill="currentColor" color="#dfdfdf"/></svg>