<svg xmlns="http://www.w3.org/2000/svg" width="16" height="16"><defs><style id="current-color-scheme" type="text/css">.ColorScheme-Text{color:#dfdfdf}</style></defs><path class="ColorScheme-Text" d="M8.107 2c-1.87 0-4.628.124-5.455.152-.898.086-1.23.134-1.72.582C.177 3.445 0 4.843 0 6.98v2.034c0 2.437.304 3.677.809 4.129.577.529.957.57 1.34.632.148.023 1.207.225 5.89.225.565 0 .966-.02 1.486-.03A4 4 0 0 1 9 12a4 4 0 0 1 4-4 4 4 0 0 1 2.992 1.354c.001-.115.008-.21.008-.329V6.658c0-1.265-.065-3.05-.803-3.8-.56-.506-.764-.647-1.92-.71C12.951 2.133 10.1 2 8.107 2zM7 5l4 3-4 3V5z" fill="currentColor"/><path class="ColorScheme-Text" d="M13.776 9.102a3.004 3.004 0 0 0-3.674 2.122 3.004 3.004 0 0 0 2.122 3.674 3.004 3.004 0 0 0 3.674-2.122 3.004 3.004 0 0 0-2.122-3.674zm-.258.966a2 2 0 0 1 1.414 2.45l-.966-.26a1 1 0 0 0-.707-1.224l.259-.966zm-2.45 1.414l.966.26a1 1 0 0 0 .707 1.224l-.259.966a2 2 0 0 1-1.414-2.45z" fill="currentColor"/></svg>