<svg version="1.1" viewBox="0 0 16 16" xmlns="http://www.w3.org/2000/svg">
 <style id="current-color-scheme" type="text/css">.ColorScheme-Text {
            color:#232629;
        }</style>
 <path d="m8 1a7 7 0 0 0-7 7 7 7 0 0 0 7 7 7 7 0 0 0 7-7 7 7 0 0 0-7-7zm0 2v5h5a5 5 0 0 1-5 5 5 5 0 0 1-5-5 5 5 0 0 1 0.025391-0.5 5 5 0 0 1 4.9746-4.5z" fill="#727272" fill-rule="evenodd" style="paint-order:fill markers stroke"/>
 <g class="ColorScheme-Text" fill="#727272">
  <path d="M3 8a5 5 0 0 0 5 5V8z" opacity=".35"/>
  <path d="M13 8a5 5 0 0 1-5 5V8z" opacity=".75"/>
 </g>
</svg>
