<svg xmlns="http://www.w3.org/2000/svg" width="16" height="16"><defs><style id="current-color-scheme" type="text/css"></style></defs><path d="M1 1c-.554 0-1 .446-1 1v4c0 .554.446 1 1 1h1v1H1c-.554 0-1 .446-1 1v4c0 .554.446 1 1 1h1v1h1v-1h10v1h1v-1h1c.554 0 1-.446 1-1V9c0-.554-.446-1-1-1h-1V7h1c.554 0 1-.446 1-1V2c0-.554-.446-1-1-1H1zm12 2a1 1 0 0 1 1 1 1 1 0 0 1-1 1 1 1 0 0 1-1-1 1 1 0 0 1 1-1zM3 7h10v1H3V7zm10 3a1 1 0 0 1 1 1 1 1 0 0 1-1 1 1 1 0 0 1-1-1 1 1 0 0 1 1-1z" fill="currentColor" color="#727272"/></svg>