<svg xmlns="http://www.w3.org/2000/svg" width="16" height="16"><defs><style id="current-color-scheme" type="text/css"></style></defs><path d="M12.236 1.994c-.24.001-.463.077-.672.225-.527.376-1.625.78-3.564.781-1.939 0-3.037-.405-3.564-.781A1.061 1.061 0 0 0 3.786 2a1.736 1.736 0 0 0-.807.219C1.94 2.765.987 4.555.469 6.875c-.442 1.97-.606 4.666-.342 5.75.23.932.626 1.344 1.332 1.344 1.046-.018 2.36-1.183 3.193-2.75.603-.868 2-1.263 3.348-1.219 1.347-.047 2.745.35 3.348 1.219.833 1.567 2.147 2.732 3.193 2.75.706 0 1.102-.412 1.332-1.344.264-1.084.1-3.78-.342-5.75-.518-2.32-1.472-4.11-2.51-4.656-.284-.153-.544-.226-.785-.225zM4.033 5h.992v1h.99v1h-.99v1h-.992V7h-.992V6h.992V5zm7.438 0c.274 0 .496.224.496.5s-.222.5-.496.5a.496.496 0 0 1-.494-.5c0-.276.22-.5.494-.5zm-.99 1c.273 0 .496.224.496.5s-.223.5-.497.5a.498.498 0 0 1-.496-.5c0-.276.223-.5.496-.5zm1.982 0c.274 0 .496.224.496.5s-.222.5-.496.5a.498.498 0 0 1-.496-.5c0-.276.222-.5.496-.5zm-.992 1c.274 0 .496.224.496.5s-.222.5-.496.5a.496.496 0 0 1-.494-.5c0-.276.22-.5.494-.5z" fill="currentColor" color="#727272"/></svg>