<svg width="32" height="32" version="1" xmlns="http://www.w3.org/2000/svg" xmlns:xlink="http://www.w3.org/1999/xlink">
 <g transform="matrix(.5062 0 0 .4784 .333 1.15)" stroke-width="2.032">
  <path d="M14.667 14.001c-1.478 0-2.667 1.235-2.667 2.769v30.46c0 1.534 1.189 2.77 2.667 2.77H20v-6h12v6h25.334C58.81 50 60 48.764 60 47.23V16.77c0-1.535-1.19-2.77-2.666-2.77z" fill="#419d45"/>
  <rect x="30" y="24" width="12" height="12" rx="2.4" ry="2.4" fill="#4e4e4e"/>
  <path d="m6.023 10.024h3.982v41.981" fill="none" stroke="#b7b7b7" stroke-linecap="round" stroke-linejoin="round" stroke-width="8.128"/>
  <g fill="#f8c44e">
   <path d="m34 44h4v8h-4zm6 0h4v8h-4zm6 0h4v8h-4zm6 0h4v8h-4z"/>
  </g>
  <g fill="#fff">
   <path d="m32 21h2v4h-2zm6 0h2v4h-2zm-6 14h2v4h-2zm6 0h2v4h-2zm7-9v2h-4v-2zm0 6v2h-4v-2zm-14-6v2h-4v-2zm0 6v2h-4v-2z"/>
  </g>
 </g>
</svg>
