<svg width="32" height="32" version="1" xmlns="http://www.w3.org/2000/svg">
 <circle cx="16.001" cy="16.001" r="14" fill="#f55" stroke-width=".99992" style="paint-order:stroke markers fill"/>
 <path d="m2.2797 14.33s1.7203-0.33016 3.5482 4.0743c1.3717 3.1422 3.303 4.5363 5.6414 4.6462 3.012 0.14246 5.4399-2.4951 7.0395-4.8538 3.2603-4.807 9.5798-3.7277 11.413-2.4774" fill="none" opacity=".35" stroke="#fff" stroke-opacity=".937" stroke-width=".50064"/>
 <path d="m2.2034 15.652s2.7788-3.4522 5.4499 1.2139c1.4694 2.3261 3.2074 5.8347 8.2402 5.5132 3.0079-0.19334 6.0158-1.4449 7.5666-4.3755 2.3933-4.4151 5.6187-4.5456 6.1992-4.2512" fill="none" opacity=".35" stroke="#fff" stroke-opacity=".937" stroke-width=".50064"/>
 <path d="m2.7046 20.007s3.1261-3.2069 8.2191-1.603c2.6396 0.77131 5.9772 3.7589 12.325 3.0608 1.6769-0.18316 3.0975-1.1458 4.4427-2.9794 1.1326-1.6491 1.8716-2.119 2.2388-2.2151" fill="none" opacity=".35" stroke="#fff" stroke-opacity=".937" stroke-width=".50064"/>
 <g transform="matrix(.53846 0 0 .53846 -1.23 -1.23)" fill="#fff" stroke-width="1.857">
  <path d="m32 17c-7.732 0-14 6.268-14 14v9c0 3.57 2.542 4.541 4 4.807v-13.807c0-5.54 4.46-10 10-10s10 4.46 10 10v13.812c1.458-0.268 4-1.242 4-4.812v-9c0-7.732-6.268-14-14-14z"/>
  <path d="m22 33v14h5v-14zm15 0v14h5v-14z" opacity=".75"/>
 </g>
</svg>
