<svg xmlns="http://www.w3.org/2000/svg" xmlns:xlink="http://www.w3.org/1999/xlink" width="32" height="32" version="1"><defs><linearGradient id="a"><stop offset="0"/><stop offset="1" stop-opacity="0"/></linearGradient><linearGradient xlink:href="#a" id="b" x1="26.1" y1="34.496" x2="58" y2="34.496" gradientUnits="userSpaceOnUse"/></defs><g transform="translate(-1.23 -1.23) scale(.53846)" stroke-width="1.857"><circle r="26" cy="32" cx="32" fill="#ebeeef" paint-order="markers stroke fill"/><path d="M48 38a16 15.986 0 1 1-32 0 16 15.986 0 1 1 32 0z" fill="#334d5c"/><path d="M44 38a12 11.995 0 1 1-24 0 12 11.995 0 1 1 24 0z" fill="#efc84a"/><path d="M38 38a6 5.995 0 1 1-12 0 6 5.995 0 1 1 12 0z" fill="#334d5c"/><path d="M35 38a3 3 NaN 1 1-6 0 3 3 NaN 1 1 6 0z" fill="#f0f0f0"/><path d="M38 14a6 5.998 0 1 1-12 0 6 5.998 0 1 1 12 0z" fill="#fff"/><path d="M36 14a4 3.997 0 1 1-8 0 4 3.997 0 1 1 8 0z" fill="#334d5c"/><path d="M34 14.001a2 1.998 0 1 1-4 0 2 1.998 0 1 1 4 0z" fill="#efc84a"/><path d="M22 15a1 1 0 1 1-2 0 1 1 0 1 1 2 0zM44 15a1 1 0 1 1-2 0 1 1 0 1 1 2 0zM54 39a1 1 0 1 1-2 0 1 1 0 1 1 2 0zM13 39a1 1 0 1 1-2 0 1 1 0 1 1 2 0z" fill="#334d5c"/><path d="M13.629 13.623A26 26 0 0 0 6 32a26 26 0 0 0 .426 4.633A16 15.986 0 0 0 16 22a16 15.986 0 0 0-2.371-8.377zM50.38 13.633A16 15.986 0 0 0 48 22a16 15.986 0 0 0 9.563 14.639A26 26 0 0 0 58 32a26 26 0 0 0-7.62-18.367z" opacity=".25" fill="#334d5c"/><path d="M47.275 10.992a31.657 31.657 0 0 1 4.014 15.352 31.657 31.657 0 0 1-25.19 30.95A26 26 0 0 0 32 58a26 26 0 0 0 26-26 26 26 0 0 0-10.725-21.008z" opacity=".25" fill="url(#b)" paint-order="markers stroke fill"/></g></svg>