<svg xmlns="http://www.w3.org/2000/svg" width="32" height="32" version="1"><defs><clipPath clipPathUnits="userSpaceOnUse" id="a"><circle cx="8.467" cy="288.533" r="6.879" fill="#d86eb0" stroke-width=".491" stroke-opacity=".039" paint-order="stroke markers fill"/></clipPath></defs><g transform="translate(-1.23 -1.23) scale(.53846)" stroke-width="1.857"><circle cx="32" cy="32" r="26" fill="#f55" paint-order="stroke markers fill"/><g clip-path="url(#a)" transform="matrix(3.77953 0 0 3.77953 0 -1058.53)" fill="none" stroke="#fff" stroke-width=".246" stroke-opacity=".937"><path d="M0 287.74s2.284-.734 3.468 1.977c.674 1.544 1.623 2.229 2.772 2.283 1.48.07 2.673-1.226 3.459-2.385 1.602-2.362 4.189-1.867 6.244-.97" opacity=".35"/><path d="M0 289.11s2.786-2.65 4.365-.149c.722 1.143 1.576 2.867 4.049 2.709 1.478-.095 2.956-.71 3.718-2.15 1.388-2.617 3.338-2.528 4.165-1.394" opacity=".35"/><path d="M.732 291.07s2.337-2.2 5.24-1.353c1.297.379 2.937 1.847 6.056 1.504.824-.09 1.522-.563 2.183-1.464.957-1.305 2.015-1.371 3.385-1.112" opacity=".35"/></g><g fill="#fff"><path d="M32 17c-7.732 0-14 6.268-14 14v9c0 3.57 2.542 4.541 4 4.807V31c0-5.54 4.46-10 10-10s10 4.46 10 10v13.812c1.458-.268 4-1.242 4-4.812v-9c0-7.732-6.268-14-14-14z"/><path d="M22 33v14h5V33zm15 0v14h5V33z" opacity=".75"/></g></g></svg>