<svg xmlns="http://www.w3.org/2000/svg" xmlns:xlink="http://www.w3.org/1999/xlink" width="32" height="32" version="1"><defs><linearGradient id="a"><stop offset="0"/><stop offset="1" stop-opacity="0"/></linearGradient><linearGradient xlink:href="#a" id="b" x1="28.41" y1="32.275" x2="58" y2="32.275" gradientUnits="userSpaceOnUse"/></defs><g transform="matrix(.5 0 0 .5 -.25 0)" stroke-width="2"><rect ry="8.4" rx="8.438" y="4" x="13" height="56" width="45" fill="#4f4f4f"/><circle transform="matrix(0 -1 -1 0 0 0)" r="2.5" cy="-50.5" cx="-11.5" fill="#fff"/><circle transform="matrix(0 -1 -1 0 0 0)" r="11.5" cy="-35.5" cx="-30.5" fill="#fff"/><circle transform="rotate(-90)" r="8.5" cy="35.5" cx="-30.5" fill="#007095"/><circle transform="matrix(0 -1 -1 0 0 0)" r="4.5" cy="-35.5" cx="-30.5" fill="#49acdc"/><rect ry="1.385" rx="1.5" y="14" x="7" height="36" width="6" fill="#3f3f3f"/><circle r="1.5" cy="50.5" cx="18.5" opacity=".5"/><circle r="1.5" cy="50.5" cx="24.5" opacity=".5"/><circle r="1.5" cy="50.5" cx="30.5" opacity=".5"/><circle r="1.5" cy="50.5" cx="36.5" opacity=".5"/><circle r="1.5" cy="54.5" cx="21.5" opacity=".5"/><circle r="1.5" cy="54.5" cx="27.5" opacity=".5"/><circle r="1.5" cy="54.5" cx="33.5" opacity=".5"/><circle cx="-11.5" cy="-50.5" r="1.5" transform="matrix(0 -1 -1 0 0 0)" fill="#ff4d4d"/><path d="M52.559 4.55A45 45 0 0 1 55 19a45 45 0 0 1-26.59 41h21.152C54.237 60 58 56.253 58 51.6V12.4c0-3.6-2.257-6.65-5.441-7.85z" opacity=".25" fill="url(#b)"/></g></svg>