<svg xmlns="http://www.w3.org/2000/svg" xmlns:xlink="http://www.w3.org/1999/xlink" width="32" height="32" version="1"><defs><linearGradient id="a"><stop offset="0"/><stop offset="1" stop-opacity="0"/></linearGradient><linearGradient xlink:href="#a" id="b" x1="36.006" y1="32.065" x2="58" y2="32.065" gradientUnits="userSpaceOnUse"/></defs><g transform="translate(-1.23 -.692) scale(.53846)" stroke-width="1.857"><rect ry="2" rx="2" y="10" x="10" height="8" width="8" fill="#4f4f4f"/><rect ry="2.5" rx="2.5" y="12" x="6" height="40" width="52" fill="#4f4f4f"/><circle r="2" cy="18" cx="52" fill="#333"/><circle r="16" cy="32" cx="32" fill="#fff"/><circle transform="scale(1 -1)" r="12" cy="-32" cx="32" fill="#009587"/><circle r="8" cy="32" cx="32" fill="#66bfb7"/><circle cx="52" cy="18" r="1.119" fill="#fff"/><path d="M56.264 12.13a45 45 0 0 1 .078 2.253A45 45 0 0 1 36.006 52H55.5c1.385 0 2.5-1.115 2.5-2.5v-35c0-1.117-.73-2.046-1.736-2.37z" opacity=".25" fill="url(#b)"/></g></svg>