<svg xmlns="http://www.w3.org/2000/svg" xmlns:xlink="http://www.w3.org/1999/xlink" width="32" height="32" version="1"><defs><linearGradient id="a"><stop offset="0"/><stop offset="1" stop-opacity="0"/></linearGradient><linearGradient xlink:href="#a" id="b" x1="27.166" y1="35.067" x2="58" y2="35.067" gradientUnits="userSpaceOnUse"/></defs><g transform="matrix(.50001 0 0 .50001 0 0)" stroke-width="1.857"><path d="M32 4.002C16.487 4.002 4 16.489 4 32c0 15.511 12.488 28 28 28 15.51 0 27.998-12.489 27.998-28C59.998 16.489 47.511 4 32 4z" fill="#4f4f4f"/><circle r="17.999" cy="32.001" cx="31.999" opacity=".4"/><circle transform="scale(1 -1)" r="14" cy="-32.001" cx="31.999" fill="#ba174e"/><circle r="8" cy="32.001" cx="31.999" fill="#d67495"/><path d="M48.803 12.135a34.704 34.704 0 0 1 2.302 12.46 34.545 34.545 0 0 1-23.939 32.952A26.31 26.31 0 0 0 32 58c14.404 0 26-11.596 26-26a25.92 25.92 0 0 0-9.197-19.865z" transform="translate(-2.461 -2.46) scale(1.07689)" opacity=".25" fill="url(#b)"/><circle cx="35.23" cy="28.77" r="2.154" opacity=".5" fill="#fff"/></g></svg>