<svg xmlns="http://www.w3.org/2000/svg" xmlns:xlink="http://www.w3.org/1999/xlink" width="32" height="32" version="1"><defs><linearGradient id="a"><stop offset="0"/><stop offset="1" stop-opacity="0"/></linearGradient><linearGradient xlink:href="#a" id="b" x1="31.637" y1="43.058" x2="56" y2="43.058" gradientUnits="userSpaceOnUse"/></defs><g transform="translate(-1.23 -1.23) scale(.53846)" stroke-width="1.857"><g fill="#8e8e8e"><path d="M58 40v2H6v-2zM58 46v2H6v-2zM58 52v2H6v-2zM58 22v2H6v-2zM58 28v2H6v-2zM58 34v2H6v-2zM58 16v2H6v-2zM58 10v2H6v-2z"/><path d="M24 58h-2V6h2zM18 58h-2V6h2zM12 58h-2V6h2zM42 58h-2V6h2zM36 58h-2V6h2zM30 58h-2V6h2zM48 58h-2V6h2zM54 58h-2V6h2z"/></g><rect transform="matrix(0 -1 -1 0 0 0)" ry="2.5" rx="2.5" y="-56" x="-56" height="48" width="48" fill="#4d4d4d"/><g fill="#0ff"><path opacity=".5" d="M14 23h12v2H14zM28 23h6v2h-6zM36 23h14v2H36zM14 31h16v2H14zM32 31h16v2H32zM14 39h6v2h-6zM22 39h6v2h-6zM30 39h12v2H30z"/></g><path d="M56 30.115A41.492 41.492 0 0 1 31.637 56H53.5c1.385 0 2.5-1.115 2.5-2.5z" opacity=".25" fill="url(#b)"/></g></svg>