<?xml version="1.0" encoding="UTF-8"?>
<svg width="32" height="32" version="1" xmlns="http://www.w3.org/2000/svg" xmlns:cc="http://creativecommons.org/ns#" xmlns:dc="http://purl.org/dc/elements/1.1/" xmlns:rdf="http://www.w3.org/1999/02/22-rdf-syntax-ns#" xmlns:xlink="http://www.w3.org/1999/xlink">
 <metadata>
  <rdf:RDF>
   <cc:Work rdf:about="">
    <dc:format>image/svg+xml</dc:format>
    <dc:type rdf:resource="http://purl.org/dc/dcmitype/StillImage"/>
    <dc:title/>
   </cc:Work>
  </rdf:RDF>
 </metadata>
 <defs>
  <linearGradient id="b" x1="30.656" x2="53" y1="48.703" y2="48.703" gradientUnits="userSpaceOnUse">
   <stop offset="0"/>
   <stop stop-opacity="0" offset="1"/>
  </linearGradient>
 </defs>
 <g transform="translate(-1.23 -1.23) scale(.53846)" stroke-width="1.857">
  <rect transform="matrix(0 -1 -1 0 0 0)" x="-58" y="-53" width="52" height="42" rx="3" ry="3" fill="#666"/>
  <circle cx="32" cy="31" r="16" fill="#7297ba" paint-order="markers stroke fill"/>
  <path d="M53 39.406A37.5 37.5 0 0 1 30.656 58H50c1.662 0 3-1.338 3-3z" fill="url(#b)" opacity=".25"/>
  <path d="M32 22.429a8 8 0 0 0-8 8v8h8a8 8 0 1 0 0-16zM32 27a3.429 3.429 0 0 1 3.429 3.429A3.429 3.429 0 0 1 32 33.857a3.429 3.429 0 0 1-3.429-3.428A3.429 3.429 0 0 1 32 27z" fill="#fff"/>
 </g>
</svg>
