<svg width="32" height="32" version="1" xmlns="http://www.w3.org/2000/svg">
 <rect transform="matrix(0,-1,-1,0,0,0)" x="-30" y="-28" width="28" height="24" rx="4" ry="4" fill="#666666" stroke-width="1.0301"/>
 <circle cx="16" cy="16" r="9" fill="#7297ba" stroke-width="1.0446" paint-order="markers stroke fill"/>
 <path d="m16 11c-2.7614 0-5 2.2386-5 5v5h5c2.7614 0 5-2.2386 5-5s-2.2386-5-5-5zm0 3a2 2 0 0 1 2 2 2 2 0 0 1-2 2 2 2 0 0 1-2-2 2 2 0 0 1 2-2z" fill="#ffffff" stroke-width="1.1606"/>
</svg>
