<?xml version="1.0" encoding="UTF-8" standalone="no"?>
<svg
   xmlns:dc="http://purl.org/dc/elements/1.1/"
   xmlns:cc="http://creativecommons.org/ns#"
   xmlns:rdf="http://www.w3.org/1999/02/22-rdf-syntax-ns#"
   xmlns:svg="http://www.w3.org/2000/svg"
   xmlns="http://www.w3.org/2000/svg"
   xmlns:xlink="http://www.w3.org/1999/xlink"
   xmlns:sodipodi="http://sodipodi.sourceforge.net/DTD/sodipodi-0.dtd"
   xmlns:inkscape="http://www.inkscape.org/namespaces/inkscape"
   width="32"
   height="32"
   version="1"
   id="svg22"
   sodipodi:docname="drive-harddisk-ieee1394.svg"
   inkscape:version="0.92.4 (5da689c313, 2019-01-14)">
  <metadata
     id="metadata28">
    <rdf:RDF>
      <cc:Work
         rdf:about="">
        <dc:format>image/svg+xml</dc:format>
        <dc:type
           rdf:resource="http://purl.org/dc/dcmitype/StillImage" />
      </cc:Work>
    </rdf:RDF>
  </metadata>
  <defs
     id="defs26">
    <linearGradient
       inkscape:collect="always"
       xlink:href="#linearGradient834"
       id="linearGradient836"
       x1="30.65625"
       y1="48.703125"
       x2="53"
       y2="48.703125"
       gradientUnits="userSpaceOnUse" />
    <linearGradient
       inkscape:collect="always"
       id="linearGradient834">
      <stop
         style="stop-color:#000000;stop-opacity:1;"
         offset="0"
         id="stop830" />
      <stop
         style="stop-color:#000000;stop-opacity:0;"
         offset="1"
         id="stop832" />
    </linearGradient>
  </defs>
  <sodipodi:namedview
     pagecolor="#ffffff"
     bordercolor="#666666"
     borderopacity="1"
     objecttolerance="10"
     gridtolerance="10"
     guidetolerance="10"
     inkscape:pageopacity="0"
     inkscape:pageshadow="2"
     inkscape:window-width="1366"
     inkscape:window-height="712"
     id="namedview24"
     showgrid="true"
     inkscape:zoom="14.75"
     inkscape:cx="5.1453466"
     inkscape:cy="16.090708"
     inkscape:window-x="0"
     inkscape:window-y="30"
     inkscape:window-maximized="1"
     inkscape:current-layer="svg22">
    <inkscape:grid
       type="xygrid"
       id="grid832" />
  </sodipodi:namedview>
  <g
     id="g838"
     transform="matrix(0.53846154,0,0,0.53846154,-1.2307693,-1.2307693)"
     style="stroke-width:1.85714281">
    <rect
       id="rect4"
       transform="matrix(0,-1,-1,0,0,0)"
       ry="3"
       rx="3"
       y="-53"
       x="-58"
       height="42"
       width="52"
       style="fill:#666666;stroke-width:1.74844217" />
    <path
       id="rect825"
       d="M 53,39.40625 A 37.5,37.5 0 0 1 30.65625,58 H 50 c 1.662,0 3,-1.338 3,-3 z"
       style="opacity:0.25;fill:url(#linearGradient836);fill-opacity:1;stroke-width:1.74844217"
       inkscape:connector-curvature="0" />
    <circle
       r="16"
       cy="31"
       cx="32"
       id="path822"
       style="opacity:1;fill:#537bbc;fill-opacity:1;stroke:none;stroke-width:1.9170506;stroke-linecap:round;stroke-linejoin:round;stroke-miterlimit:4;stroke-dasharray:none;stroke-opacity:0.03821656;paint-order:markers stroke fill" />
    <circle
       style="opacity:1;fill:#537bbc;fill-opacity:1;stroke:none;stroke-width:1.6774193;stroke-linecap:round;stroke-linejoin:round;stroke-miterlimit:4;stroke-dasharray:none;stroke-opacity:0.03821656;paint-order:markers stroke fill"
       id="circle824"
       cx="32"
       cy="31"
       r="14" />
    <g
       transform="matrix(0.67343503,0,0,0.67343503,10.452381,10.547619)"
       id="g20"
       style="opacity:1;fill:#ffffff;stroke-width:1.85714281">
      <rect
         style="fill:#ffffff;stroke-width:1.85714281"
         id="rect8"
         y="40"
         x="28"
         height="3"
         width="8" />
      <rect
         style="fill:#ffffff;stroke-width:1.85714281"
         id="rect10"
         y="45"
         x="28"
         height="3"
         width="8" />
      <path
         style="fill:#ffffff;stroke-width:1.85714281"
         inkscape:connector-curvature="0"
         id="path12"
         d="m 32,24 a 7,7 0 0 0 -7,7 7,7 0 0 0 7,7 7,7 0 0 0 7,-7 7,7 0 0 0 -7,-7 z m 0,3 a 4,4 0 0 1 4,4 4,4 0 0 1 -4,4 4,4 0 0 1 -4,-4 4,4 0 0 1 4,-4 z" />
      <rect
         style="fill:#ffffff;stroke-width:1.85714281"
         id="rect14"
         transform="rotate(-135)"
         y="9.75"
         x="-48.5"
         height="8"
         width="8" />
      <rect
         style="fill:#ffffff;stroke-width:1.85714281"
         id="rect16"
         transform="rotate(135)"
         y="-35.5"
         x="-4.75"
         height="3"
         width="8" />
      <rect
         style="fill:#ffffff;stroke-width:1.85714281"
         id="rect18"
         transform="rotate(135)"
         y="-30.5"
         x="-4.75"
         height="3"
         width="8" />
    </g>
  </g>
</svg>
