<svg xmlns="http://www.w3.org/2000/svg" xmlns:xlink="http://www.w3.org/1999/xlink" width="32" height="32" version="1"><defs><linearGradient id="a"><stop offset="0"/><stop offset="1" stop-opacity="0"/></linearGradient><linearGradient xlink:href="#a" id="b" x1="40.777" y1="18" x2="60" y2="18" gradientUnits="userSpaceOnUse"/><linearGradient xlink:href="#a" id="c" gradientUnits="userSpaceOnUse" x1="40.777" y1="18" x2="60" y2="18" gradientTransform="translate(0 24)"/></defs><g transform="scale(.5)" stroke-width="2"><path fill="#333" d="M48 52h6v4h-6zM10 52h6v4h-6z"/><rect transform="matrix(0 -1 -1 0 0 0)" ry="4" rx="4" y="-60" x="-52" height="56" width="20" fill="#666"/><circle r="3" cy="42" cx="13" fill="#9eee5a"/><path fill="#333" d="M48 28h6v4h-6zM10 28h6v4h-6z"/><rect width="20" height="56" x="-28" y="-60" rx="4" ry="4" transform="matrix(0 -1 -1 0 0 0)" fill="#666"/><circle cx="13" cy="18" r="3" fill="#9eee5a"/><path d="M53.354 8a30.983 30.983 0 0 1-12.577 20H56c2.216 0 4-1.784 4-4V12c0-2.216-1.784-4-4-4z" opacity=".25" fill="url(#b)"/><path d="M53.354 32a30.983 30.983 0 0 1-12.577 20H56c2.216 0 4-1.784 4-4V36c0-2.216-1.784-4-4-4z" opacity=".25" fill="url(#c)"/></g></svg>