<svg xmlns="http://www.w3.org/2000/svg" xmlns:xlink="http://www.w3.org/1999/xlink" width="32" height="32" version="1"><defs><linearGradient id="a"><stop offset="0"/><stop offset="1" stop-opacity="0"/></linearGradient><linearGradient xlink:href="#a" id="b" x1="41.856" y1="58" x2="41.856" y2="6" gradientUnits="userSpaceOnUse"/></defs><g transform="translate(-1.23 -1.23) scale(.53846)" stroke-width="1.857"><rect transform="matrix(0 -1 -1 0 0 0)" ry="2.5" rx="2.5" y="-58" x="-58" height="52" width="52" fill="#4f4f4f"/><g transform="matrix(2 0 0 2 0 0)" opacity=".4" stroke-width="3.449"><rect ry="1.25" rx="1.25" y="22" x="4" height="6" width="11"/><rect ry="1.25" rx="1.25" y="22" x="17" height="6" width="11"/><path d="M24 7h4v1h-4zM24 9h4v1h-4zM24 11h4v1h-4zM24 13h4v1h-4zM24 15h4v1h-4zM24 17h4v1h-4z"/></g><path d="M47.96 6A43.5 43.5 0 0 1 50 19a43.5 43.5 0 0 1-24.287 39H55.5c1.385 0 2.5-1.115 2.5-2.5v-47C58 7.115 56.885 6 55.5 6z" opacity=".25" fill="url(#b)"/></g></svg>