<?xml version="1.0" encoding="UTF-8" standalone="no"?>
<svg
   xmlns:dc="http://purl.org/dc/elements/1.1/"
   xmlns:cc="http://creativecommons.org/ns#"
   xmlns:rdf="http://www.w3.org/1999/02/22-rdf-syntax-ns#"
   xmlns:svg="http://www.w3.org/2000/svg"
   xmlns="http://www.w3.org/2000/svg"
   xmlns:xlink="http://www.w3.org/1999/xlink"
   xmlns:sodipodi="http://sodipodi.sourceforge.net/DTD/sodipodi-0.dtd"
   xmlns:inkscape="http://www.inkscape.org/namespaces/inkscape"
   width="32"
   height="32"
   version="1"
   id="svg16"
   sodipodi:docname="input-tablet.svg"
   inkscape:version="0.92.4 (5da689c313, 2019-01-14)">
  <metadata
     id="metadata22">
    <rdf:RDF>
      <cc:Work
         rdf:about="">
        <dc:format>image/svg+xml</dc:format>
        <dc:type
           rdf:resource="http://purl.org/dc/dcmitype/StillImage" />
      </cc:Work>
    </rdf:RDF>
  </metadata>
  <defs
     id="defs20">
    <linearGradient
       inkscape:collect="always"
       id="linearGradient845">
      <stop
         style="stop-color:#000000;stop-opacity:1;"
         offset="0"
         id="stop841" />
      <stop
         style="stop-color:#000000;stop-opacity:0;"
         offset="1"
         id="stop843" />
    </linearGradient>
    <linearGradient
       inkscape:collect="always"
       xlink:href="#linearGradient845"
       id="linearGradient847"
       x1="25.652344"
       y1="33"
       x2="58"
       y2="33"
       gradientUnits="userSpaceOnUse" />
  </defs>
  <sodipodi:namedview
     pagecolor="#ffffff"
     bordercolor="#666666"
     borderopacity="1"
     objecttolerance="10"
     gridtolerance="10"
     guidetolerance="10"
     inkscape:pageopacity="0"
     inkscape:pageshadow="2"
     inkscape:window-width="1366"
     inkscape:window-height="712"
     id="namedview18"
     showgrid="true"
     inkscape:snap-bbox="true"
     inkscape:bbox-nodes="true"
     inkscape:zoom="14.75"
     inkscape:cx="24.06415"
     inkscape:cy="12.975529"
     inkscape:window-x="0"
     inkscape:window-y="30"
     inkscape:window-maximized="1"
     inkscape:current-layer="svg16">
    <inkscape:grid
       type="xygrid"
       id="grid829" />
  </sodipodi:namedview>
  <g
     id="g831"
     transform="matrix(0.54545455,0,0,0.54545455,-2.2727274,-3.3636365)"
     style="stroke-width:1.83333337">
    <rect
       id="rect4"
       ry="3"
       rx="3"
       y="12"
       x="6"
       height="42"
       width="52"
       style="fill:#4f4f4f;stroke-width:1.7260263" />
    <path
       id="rect836"
       d="m 45.779297,12 a 50.990326,50.990326 0 0 1 0.05078,1.427734 A 50.990326,50.990326 0 0 1 25.652344,54 H 55 c 1.662,0 3,-1.338 3,-3 V 15 c 0,-1.662 -1.338,-3 -3,-3 z"
       style="opacity:0.25;fill:url(#linearGradient847);fill-opacity:1;stroke-width:1.7260263"
       inkscape:connector-curvature="0" />
    <circle
       id="circle10"
       r="16"
       cy="43"
       cx="45"
       style="fill:#1ea362;stroke-width:1.83333337" />
    <path
       inkscape:connector-curvature="0"
       id="path14"
       d="m 37.000125,47.435875 v 3.564 h 3.564 l 9.001,-9.001 -3.564,-3.564 z m 15.717,-8.578 c 0.377,-0.377 0.377,-0.971 0,-1.348 l -2.227,-2.227 c -0.377,-0.377 -0.971,-0.377 -1.348,0 l -1.862,1.873 3.564,3.564 z"
       style="fill:#ffffff;stroke-width:1.83333337" />
    <path
       id="rect831"
       d="m 9,12 c -1.662,0 -3,1.338 -3,3 v 36 c 0,1.662 1.338,3 3,3 h 6 V 12 Z"
       style="opacity:0.15;fill:#ffffff;stroke-width:1.7260263"
       inkscape:connector-curvature="0" />
  </g>
</svg>
