<svg xmlns="http://www.w3.org/2000/svg" width="32" height="32" version="1"><g transform="matrix(.53571 0 0 .53571 -1.143 -1.143)" stroke-width="1.867"><path d="M32 4c-.024 0-.05.004-.074.004h-.008C22.946 4.06 14 13.358 14 20.336v23.07C14 52.888 20.75 60 32 60c11.25.002 18-7.108 18-16.59V20.972c0-7.252-8.988-16.906-18-16.964z" fill="#4f4f4f"/><path d="M32 4l-.073.003h-.008C22.947 4.059 14 13.357 14 20.335V32h36V20.972c0-7.252-8.988-16.906-18-16.964z" opacity=".1"/><path d="M32 4l-.073.003h-.008C22.947 4.059 14 13.357 14 20.335V32h18V4.008z" opacity=".1"/><path d="M32 11c1.653 0 3 1.249 3 2.787v7.429C35 22.752 33.653 24 32 24s-3-1.248-3-2.786v-7.43C29 12.248 30.347 11 32 11" fill="#1dd0d0"/><circle r="1" cy="55" cx="32" fill="#1dd0d0" paint-order="markers stroke fill"/></g></svg>