<svg width="32" height="32" version="1" xmlns="http://www.w3.org/2000/svg" xmlns:xlink="http://www.w3.org/1999/xlink">
 <rect x="1.7764e-15" y="3" width="29" height="22" rx="3" ry="3" fill="#4f4f4f" stroke-width=".99071"/>
 <circle cx="24" cy="20" r="8" fill="#1ea362" stroke-width=".9165"/>
 <path d="m20 22.218v1.782h1.782l4.5005-4.5005-1.782-1.782zm7.8585-4.289a0.4725 0.4725 0 0 0 0-0.674l-1.1135-1.1135a0.4725 0.4725 0 0 0-0.674 0l-0.931 0.9365 1.782 1.782z" fill="#ffffff" stroke-width=".9165"/>
 <path d="m3 3c-1.662 0-3 1.338-3 3v16c0 1.662 1.338 3 3 3h3v-22h-3z" fill="#ffffff" opacity=".15" stroke-width=".99071"/>
</svg>
