<svg width="32" height="32" version="1.1" viewBox="0 0 64 64" xmlns="http://www.w3.org/2000/svg" xmlns:xlink="http://www.w3.org/1999/xlink">
 <g transform="matrix(1.0345 0 0 1.0345 -1.103 -1095.6)" stroke-width=".967">
  <path d="m7.526 1066.5c-2.507 0-4.526 2.183-4.526 4.892v37.215c0 2.71 2.019 4.893 4.526 4.893h48.948c2.507 0 4.526-2.184 4.526-4.893v-37.215c0-2.71-2.019-4.892-4.526-4.892zm12.045 17.279a6.214 6.22 0 0 1 6.215 6.22 6.214 6.22 0 0 1-6.215 6.221 6.214 6.22 0 0 1-6.214-6.22 6.214 6.22 0 0 1 6.214-6.221zm24.858 0a6.214 6.22 0 0 1 6.214 6.22 6.214 6.22 0 0 1-6.214 6.221 6.214 6.22 0 0 1-6.215-6.22 6.214 6.22 0 0 1 6.215-6.221z" fill="#3f3f3f" paint-order="markers fill stroke"/>
  <path d="m9 1113.5 5.412-10h35.176l5.412 10z" fill="#4f4f4f"/>
  <path d="m11.307 1072.5c-1.279 0-2.307 1.207-2.307 2.708v8.292h46v-8.292c0-1.501-1.028-2.708-2.307-2.708z" fill="#0071e2" paint-order="markers fill stroke"/>
  <path d="m9 1083.5v14.45c0 1.414 1.028 2.55 2.307 2.55h41.386c1.28 0 2.307-1.136 2.307-2.55v-14.45zm11 1.5a4.5 4.5 0 0 1 4.5 4.5 4.5 4.5 0 0 1-4.5 4.5 4.5 4.5 0 0 1-4.5-4.5 4.5 4.5 0 0 1 4.5-4.5zm24 0a4.5 4.5 0 0 1 4.5 4.5 4.5 4.5 0 0 1-4.5 4.5 4.5 4.5 0 0 1-4.5-4.5 4.5 4.5 0 0 1 4.5-4.5z" fill="#1eb29b" paint-order="markers fill stroke"/>
  <circle cx="19.5" cy="1108" r="2.5" opacity=".4" paint-order="markers fill stroke"/>
  <path d="m20 1083.5a6 6 0 0 0-6 6 6 6 0 0 0 6 6h24a6 6 0 0 0 6-6 6 6 0 0 0-6-6zm0 2a4 4 0 0 1 4 4 4 4 0 0 1-4 4 4 4 0 0 1-4-4 4 4 0 0 1 4-4zm24 0a4 4 0 0 1 4 4 4 4 0 0 1-4 4 4 4 0 0 1-4-4 4 4 0 0 1 4-4z" fill="#3f3f3f"/>
  <g paint-order="markers fill stroke">
   <path d="m24.995 1086.5h14v6h-14z" fill="#ccc"/>
   <path d="M25 1086.52v6h5.51a9.58 9.58 0 0 0 .49-3 9.58 9.58 0 0 0-.49-3z" fill="#874f29"/>
  </g>
  <circle cx="44.5" cy="1108" r="2.5" opacity=".4" paint-order="markers fill stroke"/>
 </g>
</svg>
