<svg xmlns="http://www.w3.org/2000/svg" xmlns:xlink="http://www.w3.org/1999/xlink" width="32" height="32" version="1"><defs><linearGradient id="a"><stop offset="0"/><stop offset="1" stop-opacity="0"/></linearGradient><linearGradient xlink:href="#a" id="b" x1="29.928" y1="41" x2="60" y2="41" gradientUnits="userSpaceOnUse"/></defs><g transform="scale(.5)" stroke-width="2"><path fill="#b7b7b7" d="M12 6h40v20H12z"/><rect ry="2.5" rx="2.5" y="24" x="4" height="34" width="56" fill="#3e92ce"/><rect ry="2" rx="2" y="32" x="16" height="4" width="32" opacity=".4"/><rect ry="2" rx="2" y="40" x="20" height="4" width="24" opacity=".4"/><rect ry="2" rx="2" y="48" x="24" height="4" width="16" opacity=".4"/><path opacity=".5" d="M16 14h10v6H16zM38 14h10v6H38z"/><path d="M49.813 24a34.983 34.983 0 0 1 .085 2.441A34.983 34.983 0 0 1 29.928 58H57.5c1.385 0 2.5-1.115 2.5-2.5v-29c0-1.385-1.115-2.5-2.5-2.5z" opacity=".25" fill="url(#b)"/></g></svg>