<svg width="32" height="32" version="1" xmlns="http://www.w3.org/2000/svg" xmlns:xlink="http://www.w3.org/1999/xlink">
 <rect transform="matrix(0,-1,-1,0,0,0)" x="-30" y="-30" width="28" height="28" rx="3" ry="3" fill="#4f4f4f" stroke-width=".99992"/>
 <path d="m9 2v9c0 1.108 0.892 2 2 2h14c1.108 0 2-0.892 2-2v-9h-18zm11 2h4c0.554 0 1 0.446 1 1v5c0 0.554-0.446 1-1 1h-4c-0.554 0-1-0.446-1-1v-5c0-0.554 0.446-1 1-1z" fill="#d3d3d3" fill-rule="evenodd" stop-color="#000000" stroke-linecap="round" stroke-linejoin="round" stroke-width="2" style="paint-order:stroke fill markers"/>
 <rect x="5" y="15" width="22" height="12" rx="1" ry="1" fill="#ffffff" stroke-width=".97382"/>
 <path d="m5 24v2c0 0.554 0.446 1 1 1h20c0.554 0 1-0.446 1-1v-2h-22z" fill="#ffae3f" stroke-width=".97382"/>
</svg>
