<svg xmlns="http://www.w3.org/2000/svg" xmlns:xlink="http://www.w3.org/1999/xlink" width="32" height="32" version="1"><defs><linearGradient id="a"><stop offset="0"/><stop offset="1" stop-opacity="0"/></linearGradient><linearGradient xlink:href="#a" id="b" x1="40.006" y1="56" x2="40.006" y2="4" gradientUnits="userSpaceOnUse"/></defs><g transform="translate(-1.23 -.154) scale(.53846)" stroke-width="1.857"><path d="M20 4L10 14v40c0 1.385.615 2 2 2h40c1.385 0 2-.615 2-2V6.5C54 5.115 52.885 4 51.5 4z" fill="#4f4f4f"/><rect transform="scale(1 -1)" ry="2.5" rx="2.5" y="-53" x="15" height="20" width="34" opacity=".4"/><g fill="#f8c44e"><path d="M47 9h3v8h-3zM43 9h3v8h-3zM39 9h3v8h-3zM35 9h3v8h-3zM31 9h3v8h-3zM27 9h3v8h-3zM23 9h3v8h-3zM19 9h3v8h-3zM15 13h3v4h-3z"/></g><path d="M47.719 4a52.5 52.5 0 0 1 .781 9 52.5 52.5 0 0 1-22.488 43H52c1.385 0 2-.615 2-2V6.5C54 5.115 52.885 4 51.5 4z" opacity=".25" fill="url(#b)"/></g></svg>