<svg width="32" height="32" version="1" xmlns="http://www.w3.org/2000/svg" xmlns:xlink="http://www.w3.org/1999/xlink">
 <path d="m9.4551 2-5.4551 5.3848v19.615c0 1.662 1.338 3 3 3h18c1.662 0 3-1.338 3-3v-22c0-1.662-1.338-3-3-3z" fill="#4f4f4f" stroke-width="1.0064"/>
 <rect transform="scale(1,-1)" x="6" y="-28" width="20" height="10" rx="1.013" ry="1" opacity=".4" stroke-width="1.0071"/>
 <rect x="24" y="4" width="2" height="5" rx="0" ry="0" fill="#f8c44e" fill-rule="evenodd" stop-color="#000000" stroke-linecap="round" stroke-linejoin="round" stroke-width="2" style="paint-order:stroke fill markers"/>
 <rect x="21" y="4" width="2" height="5" rx="0" ry="0" fill="#f8c44e" fill-rule="evenodd" stop-color="#000000" stroke-linecap="round" stroke-linejoin="round" stroke-width="2" style="paint-order:stroke fill markers"/>
 <rect x="18" y="4" width="2" height="5" rx="0" ry="0" fill="#f8c44e" fill-rule="evenodd" stop-color="#000000" stroke-linecap="round" stroke-linejoin="round" stroke-width="2" style="paint-order:stroke fill markers"/>
 <rect x="15" y="4" width="2" height="5" rx="0" ry="0" fill="#f8c44e" fill-rule="evenodd" stop-color="#000000" stroke-linecap="round" stroke-linejoin="round" stroke-width="2" style="paint-order:stroke fill markers"/>
 <rect x="12" y="4" width="2" height="5" rx="0" ry="0" fill="#f8c44e" fill-rule="evenodd" stop-color="#000000" stroke-linecap="round" stroke-linejoin="round" stroke-width="2" style="paint-order:stroke fill markers"/>
 <rect x="9" y="6" width="2" height="3" rx="0" ry="0" fill="#f8c44e" fill-rule="evenodd" stop-color="#000000" stroke-linecap="round" stroke-linejoin="round" stroke-width="1.5492" style="paint-order:stroke fill markers"/>
</svg>
