<svg xmlns="http://www.w3.org/2000/svg" xmlns:xlink="http://www.w3.org/1999/xlink" width="32" height="32" version="1"><defs><linearGradient id="a"><stop offset="0"/><stop offset="1" stop-opacity="0"/></linearGradient><linearGradient xlink:href="#a" id="b" x1="40.619" y1="57.898" x2="40.644" y2="6.237" gradientUnits="userSpaceOnUse"/></defs><g transform="translate(-1.23 -1.23) scale(.53846)" stroke-width="1.857"><rect transform="matrix(0 -1 -1 0 0 0)" ry="2.5" rx="2.5" y="-58" x="-58" height="52" width="52" fill="#4f4f4f"/><rect ry="2.5" rx="2.5" y="30" x="12" height="24" width="40" fill="#fff"/><path d="M12 48v3.5c0 1.384 1.115 2.5 2.5 2.5h35c1.384 0 2.5-1.116 2.5-2.5V48z" fill="#ffae3f"/><path d="M20 6v17.5c0 1.386 1.114 2.5 2.5 2.5h27c1.384 0 2.5-1.114 2.5-2.5V6zm20 4h6c1.108 0 2 .892 2 2v8c0 1.108-.892 2-2 2h-6c-1.108 0-2-.892-2-2v-8c0-1.108.892-2 2-2z" opacity=".75" fill="#fff"/><path d="M47.896 6a37.56 37.56 0 0 1 4.172 17.186A37.56 37.56 0 0 1 28.551 58H55.5c1.385 0 2.5-1.115 2.5-2.5v-47C58 7.115 56.885 6 55.5 6z" opacity=".25" fill="url(#b)"/></g></svg>