<?xml version="1.0" encoding="UTF-8" standalone="no"?>
<svg
   xmlns:dc="http://purl.org/dc/elements/1.1/"
   xmlns:cc="http://creativecommons.org/ns#"
   xmlns:rdf="http://www.w3.org/1999/02/22-rdf-syntax-ns#"
   xmlns:svg="http://www.w3.org/2000/svg"
   xmlns="http://www.w3.org/2000/svg"
   xmlns:xlink="http://www.w3.org/1999/xlink"
   xmlns:sodipodi="http://sodipodi.sourceforge.net/DTD/sodipodi-0.dtd"
   xmlns:inkscape="http://www.inkscape.org/namespaces/inkscape"
   width="32"
   height="32"
   version="1.1"
   viewBox="0 0 64 64"
   id="svg36"
   sodipodi:docname="media-tape.svg"
   inkscape:version="0.92.4 (5da689c313, 2019-01-14)">
  <metadata
     id="metadata42">
    <rdf:RDF>
      <cc:Work
         rdf:about="">
        <dc:format>image/svg+xml</dc:format>
        <dc:type
           rdf:resource="http://purl.org/dc/dcmitype/StillImage" />
        <dc:title />
      </cc:Work>
    </rdf:RDF>
  </metadata>
  <defs
     id="defs40">
    <linearGradient
       inkscape:collect="always"
       id="linearGradient858">
      <stop
         style="stop-color:#000000;stop-opacity:1;"
         offset="0"
         id="stop854" />
      <stop
         style="stop-color:#000000;stop-opacity:0;"
         offset="1"
         id="stop856" />
    </linearGradient>
    <linearGradient
       inkscape:collect="always"
       xlink:href="#linearGradient858"
       id="linearGradient860"
       x1="45.677734"
       y1="55"
       x2="45.677734"
       y2="8"
       gradientUnits="userSpaceOnUse" />
  </defs>
  <sodipodi:namedview
     pagecolor="#ffffff"
     bordercolor="#666666"
     borderopacity="1"
     objecttolerance="10"
     gridtolerance="10"
     guidetolerance="10"
     inkscape:pageopacity="0"
     inkscape:pageshadow="2"
     inkscape:window-width="1366"
     inkscape:window-height="712"
     id="namedview38"
     showgrid="false"
     inkscape:zoom="5.2149125"
     inkscape:cx="-55.617628"
     inkscape:cy="25.814524"
     inkscape:window-x="0"
     inkscape:window-y="30"
     inkscape:window-maximized="1"
     inkscape:current-layer="svg36" />
  <g
     transform="matrix(1.0344828,0,0,1.0344828,-1.1034494,-1095.6066)"
     id="g34"
     style="stroke-width:0.96666664">
    <path
       style="fill:#3f3f3f;stroke-width:0.96666664;paint-order:markers fill stroke"
       d="m 7.5258554,1066.5196 c -2.507217,0 -4.5258558,2.1833 -4.5258558,4.8922 v 37.2156 c 0,2.7089 2.0186387,4.8922 4.5258558,4.8922 H 56.474144 c 2.507217,0 4.525856,-2.1833 4.525856,-4.8922 v -37.2156 c 0,-2.7089 -2.018639,-4.8922 -4.525856,-4.8922 z m 12.0455726,17.2794 a 6.2142858,6.220599 0 0 1 6.214286,6.2207 6.2142858,6.220599 0 0 1 -6.214286,6.2205 6.2142858,6.220599 0 0 1 -6.214285,-6.2205 6.2142858,6.220599 0 0 1 6.214285,-6.2207 z m 24.857144,0 a 6.2142858,6.220599 0 0 1 6.214285,6.2207 6.2142858,6.220599 0 0 1 -6.214285,6.2205 6.2142858,6.220599 0 0 1 -6.214286,-6.2205 6.2142858,6.220599 0 0 1 6.214286,-6.2207 z"
       id="path4"
       inkscape:connector-curvature="0" />
    <path
       style="fill:#4f4f4f;stroke-width:0.96666664"
       d="m 8.9999998,1113.5197 5.4117632,-10 h 35.176472 l 5.411765,10 z"
       id="path6"
       inkscape:connector-curvature="0" />
    <path
       style="fill:#0071e2;stroke-width:0.96666664;paint-order:markers fill stroke"
       d="m 11.30687,1072.5197 c -1.278768,0 -2.3068701,1.2071 -2.3068701,2.7083 v 8.2917 H 55 v -8.2917 c 0,-1.5012 -1.028107,-2.7083 -2.306871,-2.7083 z"
       id="path8"
       inkscape:connector-curvature="0" />
    <path
       style="fill:#1eb29b;stroke-width:0.96666664;paint-order:markers fill stroke"
       d="M 9,25 V 39.451172 C 9,40.864072 10.027873,42 11.306641,42 H 52.693359 C 53.972123,42 55,40.864072 55,39.451172 V 25 Z m 11,1.5 A 4.5,4.5 0 0 1 24.5,31 4.5,4.5 0 0 1 20,35.5 4.5,4.5 0 0 1 15.5,31 4.5,4.5 0 0 1 20,26.5 Z m 24,0 A 4.5,4.5 0 0 1 48.5,31 4.5,4.5 0 0 1 44,35.5 4.5,4.5 0 0 1 39.5,31 4.5,4.5 0 0 1 44,26.5 Z"
       transform="translate(0,1058.5197)"
       id="path10"
       inkscape:connector-curvature="0" />
    <circle
       style="opacity:0.4;stroke-width:0.96666664;paint-order:markers fill stroke"
       cx="19.5"
       cy="1108.02"
       r="2.5"
       id="circle12" />
    <path
       style="fill:#3f3f3f;stroke-width:0.96666664"
       d="m 20,25 a 6,6 0 0 0 -6,6 6,6 0 0 0 6,6 h 24 a 6,6 0 0 0 6,-6 6,6 0 0 0 -6,-6 z m 0,2 a 4,4 0 0 1 4,4 4,4 0 0 1 -4,4 4,4 0 0 1 -4,-4 4,4 0 0 1 4,-4 z m 24,0 a 4,4 0 0 1 4,4 4,4 0 0 1 -4,4 4,4 0 0 1 -4,-4 4,4 0 0 1 4,-4 z"
       transform="translate(0,1058.5197)"
       id="path14"
       inkscape:connector-curvature="0" />
    <g
       transform="matrix(1.0137931,0,0,1.0862069,-0.44136325,-94.492961)"
       id="g20"
       style="stroke-width:0.96666664">
      <rect
         width="13.81"
         height="5.5240002"
         x="25.09"
         y="1087.28"
         style="fill:#cccccc;stroke-width:0.96666664;paint-order:markers fill stroke"
         id="rect16" />
      <path
         d="m 25.095235,1087.2815 v 5.5238 h 5.435294 c 0.316646,-0.8865 0.479913,-1.8205 0.482789,-2.7618 -0.0029,-0.9414 -0.16612,-1.8754 -0.482789,-2.762 z"
         style="fill:#874f29;stroke-width:0.96666664;paint-order:markers fill stroke"
         id="path18"
         inkscape:connector-curvature="0" />
    </g>
    <circle
       cx="44.5"
       cy="1108.02"
       r="2.5"
       style="opacity:0.4;stroke-width:0.96666664;paint-order:markers fill stroke"
       id="circle22" />
    <path
       style="opacity:0.25;fill:url(#linearGradient860);fill-opacity:1;stroke-width:1.00119042;paint-order:markers fill stroke"
       d="M 52.460938,8 A 40.077374,40.077374 0 0 1 53.884766,18.552734 40.077374,40.077374 0 0 1 30.355469,55 h 26.11914 C 58.981826,55 61,52.816322 61,50.107422 V 12.892578 C 61,10.183678 58.981826,8 56.474609,8 Z"
       transform="translate(0,1058.5197)"
       id="path849"
       inkscape:connector-curvature="0" />
  </g>
</svg>
