<?xml version="1.0" encoding="UTF-8" standalone="no"?>
<svg
   xmlns:dc="http://purl.org/dc/elements/1.1/"
   xmlns:cc="http://creativecommons.org/ns#"
   xmlns:rdf="http://www.w3.org/1999/02/22-rdf-syntax-ns#"
   xmlns:svg="http://www.w3.org/2000/svg"
   xmlns="http://www.w3.org/2000/svg"
   xmlns:xlink="http://www.w3.org/1999/xlink"
   xmlns:sodipodi="http://sodipodi.sourceforge.net/DTD/sodipodi-0.dtd"
   xmlns:inkscape="http://www.inkscape.org/namespaces/inkscape"
   width="32"
   height="32"
   version="1"
   id="svg18"
   sodipodi:docname="media-floppy.svg"
   inkscape:version="0.92.4 (5da689c313, 2019-01-14)">
  <metadata
     id="metadata24">
    <rdf:RDF>
      <cc:Work
         rdf:about="">
        <dc:format>image/svg+xml</dc:format>
        <dc:type
           rdf:resource="http://purl.org/dc/dcmitype/StillImage" />
      </cc:Work>
    </rdf:RDF>
  </metadata>
  <defs
     id="defs22">
    <linearGradient
       inkscape:collect="always"
       id="linearGradient843">
      <stop
         style="stop-color:#000000;stop-opacity:1;"
         offset="0"
         id="stop839" />
      <stop
         style="stop-color:#000000;stop-opacity:0;"
         offset="1"
         id="stop841" />
    </linearGradient>
    <linearGradient
       inkscape:collect="always"
       xlink:href="#linearGradient843"
       id="linearGradient845"
       x1="40.618576"
       y1="57.898304"
       x2="40.64407"
       y2="6.237288"
       gradientUnits="userSpaceOnUse" />
  </defs>
  <sodipodi:namedview
     pagecolor="#ffffff"
     bordercolor="#666666"
     borderopacity="1"
     objecttolerance="10"
     gridtolerance="10"
     guidetolerance="10"
     inkscape:pageopacity="0"
     inkscape:pageshadow="2"
     inkscape:window-width="1366"
     inkscape:window-height="712"
     id="namedview20"
     showgrid="false"
     inkscape:zoom="7.375"
     inkscape:cx="0.80399047"
     inkscape:cy="-10.340295"
     inkscape:window-x="0"
     inkscape:window-y="30"
     inkscape:window-maximized="1"
     inkscape:current-layer="svg18" />
  <g
     id="g825"
     transform="matrix(0.53846154,0,0,0.53846154,-1.2307693,-1.2307693)"
     style="stroke-width:1.85714281">
    <rect
       id="rect4"
       transform="matrix(0,-1,-1,0,0,0)"
       ry="2.5"
       rx="2.5"
       y="-58"
       x="-58"
       height="52"
       width="52"
       style="fill:#4f4f4f;stroke-width:1.85714281" />
    <rect
       id="rect8"
       ry="2.5"
       rx="2.5"
       y="30"
       x="12"
       height="24"
       width="40"
       style="fill:#ffffff;stroke-width:1.85714281" />
    <path
       id="path10"
       d="m 12,48 v 3.5 c 0,1.384 1.115,2.5 2.5,2.5 h 35 C 50.884,54 52,52.884 52,51.5 V 48 Z"
       style="fill:#ffae3f;stroke-width:1.85714281"
       inkscape:connector-curvature="0" />
    <path
       id="path14"
       d="m 20,6 v 17.5 c 0,1.386 1.114,2.5 2.5,2.5 h 27 C 50.884,26 52,24.886 52,23.5 V 6 Z m 20,4 h 6 c 1.108,0 2,0.892 2,2 v 8 c 0,1.108 -0.892,2 -2,2 h -6 c -1.108,0 -2,-0.892 -2,-2 v -8 c 0,-1.108 0.892,-2 2,-2 z"
       style="opacity:0.75;fill:#ffffff;stroke-width:3.44897938"
       inkscape:connector-curvature="0" />
    <path
       id="rect834"
       d="M 47.896484,6 A 37.559322,37.559322 0 0 1 52.068359,23.185547 37.559322,37.559322 0 0 1 28.550781,58 H 55.5 C 56.885,58 58,56.885 58,55.5 V 8.5 C 58,7.115 56.885,6 55.5,6 Z"
       style="opacity:0.25;fill:url(#linearGradient845);fill-opacity:1;stroke-width:3.44897938"
       inkscape:connector-curvature="0" />
  </g>
</svg>
