<?xml version="1.0" encoding="UTF-8" standalone="no"?>
<svg
   xmlns:dc="http://purl.org/dc/elements/1.1/"
   xmlns:cc="http://creativecommons.org/ns#"
   xmlns:rdf="http://www.w3.org/1999/02/22-rdf-syntax-ns#"
   xmlns:svg="http://www.w3.org/2000/svg"
   xmlns="http://www.w3.org/2000/svg"
   xmlns:xlink="http://www.w3.org/1999/xlink"
   xmlns:sodipodi="http://sodipodi.sourceforge.net/DTD/sodipodi-0.dtd"
   xmlns:inkscape="http://www.inkscape.org/namespaces/inkscape"
   width="32"
   height="32"
   version="1.1"
   viewBox="0 0 64 64"
   id="svg82"
   sodipodi:docname="network-server.svg"
   inkscape:version="0.92.4 (5da689c313, 2019-01-14)">
  <metadata
     id="metadata88">
    <rdf:RDF>
      <cc:Work
         rdf:about="">
        <dc:format>image/svg+xml</dc:format>
        <dc:type
           rdf:resource="http://purl.org/dc/dcmitype/StillImage" />
      </cc:Work>
    </rdf:RDF>
  </metadata>
  <defs
     id="defs86">
    <linearGradient
       inkscape:collect="always"
       id="linearGradient907">
      <stop
         style="stop-color:#000000;stop-opacity:1;"
         offset="0"
         id="stop903" />
      <stop
         style="stop-color:#000000;stop-opacity:0;"
         offset="1"
         id="stop905" />
    </linearGradient>
    <linearGradient
       inkscape:collect="always"
       xlink:href="#linearGradient907"
       id="linearGradient909"
       x1="37.648438"
       y1="14"
       x2="60"
       y2="14"
       gradientUnits="userSpaceOnUse" />
    <linearGradient
       inkscape:collect="always"
       xlink:href="#linearGradient907"
       id="linearGradient935"
       gradientUnits="userSpaceOnUse"
       x1="37.648438"
       y1="14"
       x2="60"
       y2="14" />
    <linearGradient
       inkscape:collect="always"
       xlink:href="#linearGradient907"
       id="linearGradient948"
       gradientUnits="userSpaceOnUse"
       x1="37.648438"
       y1="14"
       x2="60"
       y2="14"
       gradientTransform="translate(0,18)" />
    <linearGradient
       inkscape:collect="always"
       xlink:href="#linearGradient907"
       id="linearGradient952"
       gradientUnits="userSpaceOnUse"
       gradientTransform="translate(0,36)"
       x1="37.648438"
       y1="14"
       x2="60"
       y2="14" />
  </defs>
  <sodipodi:namedview
     pagecolor="#ffffff"
     bordercolor="#666666"
     borderopacity="1"
     objecttolerance="10"
     gridtolerance="10"
     guidetolerance="10"
     inkscape:pageopacity="0"
     inkscape:pageshadow="2"
     inkscape:window-width="1366"
     inkscape:window-height="712"
     id="namedview84"
     showgrid="true"
     inkscape:snap-bbox="true"
     inkscape:bbox-nodes="true"
     inkscape:zoom="7.375"
     inkscape:cx="26.372294"
     inkscape:cy="30.978111"
     inkscape:window-x="0"
     inkscape:window-y="30"
     inkscape:window-maximized="1"
     inkscape:current-layer="svg82">
    <inkscape:grid
       type="xygrid"
       id="grid911" />
  </sodipodi:namedview>
  <g
     id="g897">
    <g
       id="g26">
      <rect
         id="rect4"
         transform="matrix(0,-1,-1,0,0,0)"
         ry="2.5"
         rx="2.5"
         y="-60"
         x="-59"
         height="56"
         width="18"
         style="fill:#666666" />
      <path
         id="path6"
         d="M 24,47 20,53"
         style="opacity:0.5;fill:none;stroke:#000000;stroke-width:3;stroke-linecap:round" />
      <path
         id="path8"
         d="M 18,47 14,53"
         style="opacity:0.5;fill:none;stroke:#000000;stroke-width:3;stroke-linecap:round" />
      <path
         id="path10"
         d="M 12,47 8,53"
         style="opacity:0.5;fill:none;stroke:#000000;stroke-width:3;stroke-linecap:round" />
      <path
         id="path12"
         d="M 30,47 26,53"
         style="opacity:0.5;fill:none;stroke:#000000;stroke-width:3;stroke-linecap:round" />
      <circle
         id="circle20"
         r="2.5"
         cy="46.5"
         cx="40.5"
         style="fill:#76ff03" />
      <circle
         id="circle22"
         r="2.5"
         cy="46.5"
         cx="47.5"
         style="fill:#ffff00" />
      <circle
         id="circle24"
         r="2.5"
         cy="46.5"
         cx="54.5"
         style="fill:#ffcd40" />
    </g>
    <g
       id="g52">
      <rect
         id="rect30"
         transform="matrix(0,-1,-1,0,0,0)"
         ry="2.5"
         rx="2.5"
         y="-60"
         x="-41"
         height="56"
         width="18"
         style="fill:#666666" />
      <path
         id="path32"
         d="M 24,29 20,35"
         style="opacity:0.5;fill:none;stroke:#000000;stroke-width:3;stroke-linecap:round" />
      <path
         id="path34"
         d="M 18,29 14,35"
         style="opacity:0.5;fill:none;stroke:#000000;stroke-width:3;stroke-linecap:round" />
      <path
         id="path36"
         d="M 12,29 8,35"
         style="opacity:0.5;fill:none;stroke:#000000;stroke-width:3;stroke-linecap:round" />
      <path
         id="path38"
         d="M 30,29 26,35"
         style="opacity:0.5;fill:none;stroke:#000000;stroke-width:3;stroke-linecap:round" />
      <circle
         id="circle46"
         r="2.5"
         cy="28.5"
         cx="40.5"
         style="fill:#76ff03" />
      <circle
         id="circle48"
         r="2.5"
         cy="28.5"
         cx="47.5"
         style="fill:#ffff00" />
      <circle
         id="circle50"
         r="2.5"
         cy="28.5"
         cx="54.5"
         style="fill:#ffcd40" />
    </g>
    <g
       id="g80">
      <rect
         id="rect56"
         transform="matrix(0,-1,-1,0,0,0)"
         ry="2.5"
         rx="2.5"
         y="-60"
         x="-23"
         height="56"
         width="18"
         style="fill:#8e8e8e" />
      <path
         id="path58"
         d="M 24,11 20,17"
         style="opacity:0.5;fill:none;stroke:#000000;stroke-width:3;stroke-linecap:round" />
      <path
         id="path60"
         d="M 18,11 14,17"
         style="opacity:0.5;fill:none;stroke:#000000;stroke-width:3;stroke-linecap:round" />
      <path
         id="path62"
         d="M 12,11 8,17"
         style="opacity:0.5;fill:none;stroke:#000000;stroke-width:3;stroke-linecap:round" />
      <path
         id="path64"
         d="M 30,11 26,17"
         style="opacity:0.5;fill:none;stroke:#000000;stroke-width:3;stroke-linecap:round" />
      <circle
         id="circle72"
         r="2.5"
         cy="10.5"
         cx="39.5"
         style="fill:#76ff03" />
      <circle
         id="circle74"
         r="2.5"
         cy="10.5"
         cx="47.5"
         style="fill:#ffff00" />
      <circle
         id="circle76"
         r="2.5"
         cy="10.5"
         cx="54.5"
         style="fill:#ffcd40" />
      <path
         id="rect898"
         d="M 48.482422 5 A 31.160637 31.160637 0 0 1 37.648438 23 L 57.5 23 C 58.885 23 60 21.885 60 20.5 L 60 7.5 C 60 6.115 58.885 5 57.5 5 L 48.482422 5 z "
         style="fill:url(#linearGradient909);opacity:0.25;fill-opacity:1" />
    </g>
    <rect
       id="rect913"
       transform="matrix(0,-1,-1,0,0,0)"
       ry="2.5"
       rx="2.5"
       y="-60"
       x="-23"
       height="56"
       width="18"
       style="fill:#666666" />
    <path
       id="path915"
       d="m 24,11 -4,6"
       style="opacity:0.5;fill:none;stroke:#000000;stroke-width:3;stroke-linecap:round"
       inkscape:connector-curvature="0" />
    <path
       id="path917"
       d="m 18,11 -4,6"
       style="opacity:0.5;fill:none;stroke:#000000;stroke-width:3;stroke-linecap:round"
       inkscape:connector-curvature="0" />
    <path
       id="path919"
       d="M 12,11 8,17"
       style="opacity:0.5;fill:none;stroke:#000000;stroke-width:3;stroke-linecap:round"
       inkscape:connector-curvature="0" />
    <path
       id="path921"
       d="m 30,11 -4,6"
       style="opacity:0.5;fill:none;stroke:#000000;stroke-width:3;stroke-linecap:round"
       inkscape:connector-curvature="0" />
    <circle
       id="circle923"
       r="2.5"
       cy="10.5"
       cx="39.5"
       style="fill:#76ff03" />
    <circle
       id="circle925"
       r="2.5"
       cy="10.5"
       cx="47.5"
       style="fill:#ffff00" />
    <circle
       id="circle927"
       r="2.5"
       cy="10.5"
       cx="54.5"
       style="fill:#ffcd40" />
    <path
       id="path929"
       d="M 48.482422,5 A 31.160637,31.160637 0 0 1 37.648438,23 H 57.5 C 58.885,23 60,21.885 60,20.5 V 7.5 C 60,6.115 58.885,5 57.5,5 Z"
       style="opacity:0.25;fill:url(#linearGradient935);fill-opacity:1"
       inkscape:connector-curvature="0" />
    <path
       inkscape:connector-curvature="0"
       style="opacity:0.25;fill:url(#linearGradient948);fill-opacity:1"
       d="M 48.482422,23 A 31.160637,31.160637 0 0 1 37.648438,41 H 57.5 c 1.385,0 2.5,-1.115 2.5,-2.5 v -13 C 60,24.115 58.885,23 57.5,23 Z"
       id="path946" />
    <path
       id="path950"
       d="M 48.482422,41 A 31.160637,31.160637 0 0 1 37.648438,59 H 57.5 c 1.385,0 2.5,-1.115 2.5,-2.5 v -13 C 60,42.115 58.885,41 57.5,41 Z"
       style="opacity:0.25;fill:url(#linearGradient952);fill-opacity:1"
       inkscape:connector-curvature="0" />
  </g>
</svg>
