<svg width="32" height="32" version="1.1" viewBox="0 0 64 64" xmlns="http://www.w3.org/2000/svg" xmlns:xlink="http://www.w3.org/1999/xlink">
 <defs>
  <linearGradient id="b" x1="37.648" x2="60" y1="14" y2="14" gradientUnits="userSpaceOnUse">
   <stop offset="0"/>
   <stop stop-opacity="0" offset="1"/>
  </linearGradient>
 </defs>
 <rect transform="matrix(0,-1,-1,0,0,0)" x="-58" y="-60" width="18" height="56" rx="2.5" ry="2.5" fill="#666666"/>
 <path d="m24 46-4 6m-2-6-4 6m-2-6-4 6m22-6-4 6" fill="none" opacity=".5" stroke="#000000" stroke-linecap="round" stroke-width="3"/>
 <circle cx="40.5" cy="45.5" r="2.5" fill="#76ff03"/>
 <circle cx="47.5" cy="45.5" r="2.5" fill="#ffff00"/>
 <circle cx="54.5" cy="45.5" r="2.5" fill="#ffcd40"/>
 <rect transform="matrix(0,-1,-1,0,0,0)" x="-40" y="-60" width="18" height="56" rx="2.5" ry="2.5" fill="#666666"/>
 <path d="m24 28-4 6m-2-6-4 6m-2-6-4 6m22-6-4 6" fill="none" opacity=".5" stroke="#000000" stroke-linecap="round" stroke-width="3"/>
 <circle cx="40.5" cy="27.5" r="2.5" fill="#76ff03"/>
 <circle cx="47.5" cy="27.5" r="2.5" fill="#ffff00"/>
 <circle cx="54.5" cy="27.5" r="2.5" fill="#ffcd40"/>
 <g transform="translate(0,-1)">
  <rect transform="matrix(0,-1,-1,0,0,0)" x="-23" y="-60" width="18" height="56" rx="2.5" ry="2.5" fill="#8e8e8e"/>
  <path d="m24 11-4 6m-2-6-4 6m-2-6-4 6m22-6-4 6" fill="none" opacity=".5" stroke="#000000" stroke-linecap="round" stroke-width="3"/>
  <circle cx="39.5" cy="10.5" r="2.5" fill="#76ff03"/>
  <circle cx="47.5" cy="10.5" r="2.5" fill="#ffff00"/>
  <circle cx="54.5" cy="10.5" r="2.5" fill="#ffcd40"/>
  <path d="m48.482 5a31.16 31.16 0 0 1-10.834 18h19.852c1.385 0 2.5-1.115 2.5-2.5v-13c0-1.385-1.115-2.5-2.5-2.5z" fill="url(#b)" opacity=".25"/>
 </g>
 <rect transform="matrix(0,-1,-1,0,0,0)" x="-22" y="-60" width="18" height="56" rx="2.5" ry="2.5" fill="#666666"/>
 <path d="m24 10-4 6m-2-6-4 6m-2-6-4 6m22-6-4 6" fill="none" opacity=".5" stroke="#000000" stroke-linecap="round" stroke-width="3"/>
 <circle cx="39.5" cy="9.5" r="2.5" fill="#76ff03"/>
 <circle cx="47.5" cy="9.5" r="2.5" fill="#ffff00"/>
 <circle cx="54.5" cy="9.5" r="2.5" fill="#ffcd40"/>
 <path transform="matrix(0,-1,-1,0,0,0)" d="m-17.5-4h-2c-1.385 0-2.5-1.115-2.5-2.5v-51c0-1.385 1.115-2.5 2.5-2.5h2c-1.385 0-2.5 1.115-2.5 2.5v51c0 1.385 1.115 2.5 2.5 2.5z" fill="#000000" opacity=".15"/>
 <path d="m4 35.5v2c0 1.385 1.115 2.5 2.5 2.5h51c1.385 0 2.5-1.115 2.5-2.5v-2c0 1.385-1.115 2.5-2.5 2.5h-51c-1.385 0-2.5-1.115-2.5-2.5z" fill="#000000" opacity=".15"/>
 <path d="m4 53.5v2c0 1.385 1.115 2.5 2.5 2.5h51c1.385 0 2.5-1.115 2.5-2.5v-2c0 1.385-1.115 2.5-2.5 2.5h-51c-1.385 0-2.5-1.115-2.5-2.5z" fill="#000000" opacity=".15"/>
</svg>
