<svg xmlns="http://www.w3.org/2000/svg" xmlns:xlink="http://www.w3.org/1999/xlink" width="32" height="32" version="1"><defs><linearGradient id="a"><stop offset="0"/><stop offset="1" stop-opacity="0"/></linearGradient><linearGradient xlink:href="#a" id="b" x1="48.423" y1="60" x2="48.423" y2="32" gradientUnits="userSpaceOnUse"/></defs><g transform="matrix(.53571 0 0 .53571 -1.143 -1.143)" stroke-width="1.867"><rect transform="rotate(90)" ry="3" y="-18" x="4" height="6" width="34" fill="#8e8e8e"/><rect ry="4.2" rx="4.2" y="32" x="4" height="28" width="56" fill="#4f4f4f"/><circle r="6" cy="46" cx="48" fill="#c0f957"/><circle r="6" cy="46" cx="32" fill="#91af5b"/><path d="M48.3 32a28.764 28.764 0 0 1 .407 4.77A28.764 28.764 0 0 1 36.846 60H55.8A4.19 4.19 0 0 0 60 55.8V36.2a4.19 4.19 0 0 0-4.2-4.2z" opacity=".25" fill="url(#b)"/></g></svg>