<?xml version="1.0" encoding="UTF-8" standalone="no"?>
<svg
   xmlns:dc="http://purl.org/dc/elements/1.1/"
   xmlns:cc="http://creativecommons.org/ns#"
   xmlns:rdf="http://www.w3.org/1999/02/22-rdf-syntax-ns#"
   xmlns:svg="http://www.w3.org/2000/svg"
   xmlns="http://www.w3.org/2000/svg"
   xmlns:sodipodi="http://sodipodi.sourceforge.net/DTD/sodipodi-0.dtd"
   xmlns:inkscape="http://www.inkscape.org/namespaces/inkscape"
   width="32"
   height="32"
   version="1"
   id="svg16"
   sodipodi:docname="network-firewall.svg"
   inkscape:version="0.92.4 (5da689c313, 2019-01-14)">
  <metadata
     id="metadata22">
    <rdf:RDF>
      <cc:Work
         rdf:about="">
        <dc:format>image/svg+xml</dc:format>
        <dc:type
           rdf:resource="http://purl.org/dc/dcmitype/StillImage" />
        <dc:title />
      </cc:Work>
    </rdf:RDF>
  </metadata>
  <defs
     id="defs20" />
  <sodipodi:namedview
     pagecolor="#ffffff"
     bordercolor="#666666"
     borderopacity="1"
     objecttolerance="10"
     gridtolerance="10"
     guidetolerance="10"
     inkscape:pageopacity="0"
     inkscape:pageshadow="2"
     inkscape:window-width="1366"
     inkscape:window-height="712"
     id="namedview18"
     showgrid="true"
     inkscape:snap-bbox="true"
     inkscape:bbox-nodes="true"
     inkscape:zoom="3.6875"
     inkscape:cx="-29.73662"
     inkscape:cy="33.61598"
     inkscape:window-x="0"
     inkscape:window-y="30"
     inkscape:window-maximized="1"
     inkscape:current-layer="svg16">
    <inkscape:grid
       type="xygrid"
       id="grid839" />
  </sodipodi:namedview>
  <g
     id="g822"
     transform="matrix(0.53846154,0,0,0.53846154,-1.2307693,-1.2307693)"
     style="stroke-width:1.85714281">
    <circle
       r="26"
       cy="32"
       cx="32"
       id="path829"
       style="opacity:1;fill:#ba3c37;fill-opacity:1;stroke:none;stroke-width:2.82927823;stroke-linecap:round;stroke-linejoin:round;stroke-miterlimit:4;stroke-dasharray:none;stroke-opacity:0.05882353;paint-order:markers stroke fill" />
    <path
       id="rect4564"
       d="M 32,6 A 26,26 0 0 0 22,8.0253906 V 14 h -8.720703 a 26,26 0 0 0 -1.736328,2 H 13 v 6 H 8.0078125 A 26,26 0 0 0 7.2773438,24 H 22 v 7 H 6.0507812 A 26,26 0 0 0 6,32 26,26 0 0 0 6.0351562,33 H 13 v 7 H 7.2949219 a 26,26 0 0 0 0.7304687,2 H 22 v 6 H 11.517578 A 26,26 0 0 0 15,51.654297 V 50 h 16 v 6 H 22.019531 A 26,26 0 0 0 32,58 26,26 0 0 0 41.941406,56 H 33 v -6 h 16 v 1.630859 A 26,26 0 0 0 52.457031,48 H 42 v -6 h 13.992188 a 26,26 0 0 0 0.730468,-2 H 51 v -7 h 6.949219 A 26,26 0 0 0 58,32 26,26 0 0 0 57.964844,31 H 42 V 24 H 56.705078 A 26,26 0 0 0 55.974609,22 H 51 v -6 h 1.482422 A 26,26 0 0 0 50.751953,14 H 42 V 8.0078125 A 26,26 0 0 0 32,6 Z m -8,2 h 16 v 6 H 24 Z m -9,8 h 16 v 6 H 15 Z m 18,0 h 16 v 6 H 33 Z m -9,8 h 16 v 7 H 24 Z m -9,9 h 16 v 7 H 15 Z m 18,0 h 16 v 7 H 33 Z m -9,9 h 16 v 6 H 24 Z"
       style="opacity:0.1;fill:#000000;fill-opacity:1;stroke:none;stroke-width:3.71428561;stroke-linecap:round;stroke-linejoin:miter;stroke-miterlimit:4;stroke-dasharray:none;stroke-opacity:0.05882353;paint-order:markers stroke fill"
       inkscape:connector-curvature="0" />
    <g
       style="stroke-width:1.03326285"
       transform="matrix(1.7973579,0,0,1.7973579,-28.110548,-22.708323)"
       id="g4562">
      <path
         style="color:#000000;clip-rule:nonzero;display:inline;overflow:visible;visibility:visible;opacity:1;isolation:auto;mix-blend-mode:normal;color-interpolation:sRGB;color-interpolation-filters:linearRGB;solid-color:#000000;solid-opacity:1;fill:#ffd33f;fill-opacity:1;fill-rule:nonzero;stroke:none;stroke-width:1.03326285;stroke-linecap:butt;stroke-linejoin:miter;stroke-miterlimit:4;stroke-dasharray:none;stroke-dashoffset:0;stroke-opacity:1;marker:none;color-rendering:auto;image-rendering:auto;shape-rendering:auto;text-rendering:auto;enable-background:accumulate"
         d="m 32.11819,22.063191 c -0.06972,2.904862 -0.987748,5.45031 -2.753906,7.634766 -0.06972,-0.85984 -0.336002,-1.720239 -0.800781,-2.580078 -0.04648,0.650689 -0.308756,1.517041 -0.785157,2.597656 -0.476405,1.080615 -0.772478,1.863547 -0.888672,2.351562 -0.255627,1.231664 -0.110573,2.312633 0.435547,3.242188 0.546121,0.929555 1.621128,1.847588 3.22461,2.753906 2.425686,0.945027 3.362158,0.989922 5.36914,0 1.138718,-0.650688 2.044836,-1.366021 2.71875,-2.144531 0.673917,-0.77851 1.10314,-1.533605 1.289063,-2.265625 0.185922,-0.732018 0.23759,-1.487116 0.15625,-2.265625 -0.08134,-0.77851 -0.266159,-1.481925 -0.556641,-2.109375 -0.290479,-0.627451 -0.622317,-1.219612 -0.99414,-1.777344 -0.371823,-0.557735 -0.707661,-0.998874 -1.009766,-1.324219 -0.302105,-0.325343 -0.54651,-0.557832 -0.732422,-0.697265 0.162671,0.441538 0.220298,0.91843 0.173828,1.429687 -0.04648,0.511255 -0.161747,0.97623 -0.347656,1.394531 -0.06972,-0.697169 -0.27436,-1.394631 -0.611328,-2.091796 -0.336971,-0.697168 -0.696643,-1.273398 -1.080078,-1.726563 -0.383438,-0.453164 -0.824577,-0.888353 -1.324219,-1.306641 -0.499643,-0.418287 -0.843385,-0.690537 -1.029297,-0.818359 -0.185908,-0.127819 -0.336929,-0.22716 -0.453125,-0.296875 z"
         id="path4190-3"
         inkscape:connector-curvature="0" />
      <path
         style="color:#000000;clip-rule:nonzero;display:inline;overflow:visible;visibility:visible;opacity:1;isolation:auto;mix-blend-mode:normal;color-interpolation:sRGB;color-interpolation-filters:linearRGB;solid-color:#000000;solid-opacity:1;fill:#fff3cb;fill-opacity:1;fill-rule:nonzero;stroke:none;stroke-width:1.03326285;stroke-linecap:butt;stroke-linejoin:miter;stroke-miterlimit:4;stroke-dasharray:none;stroke-dashoffset:0;stroke-opacity:1;marker:none;color-rendering:auto;image-rendering:auto;shape-rendering:auto;text-rendering:auto;enable-background:accumulate"
         d="m 35.918306,38.06319 c 0.766883,-1.533769 0.917936,-3.189543 0.453157,-4.967323 C 35.906684,31.318084 34.988747,29.952795 33.617653,29 c 0.116194,0.511257 0.05229,1.35367 -0.191728,2.527241 -0.244016,1.17357 -0.633265,2.062461 -1.167748,2.666674 0.09296,-0.743647 0.116197,-1.34786 0.06972,-1.812639 -0.04648,-0.464776 -0.116197,-0.813358 -0.20915,-1.045747 l -0.17429,-0.313724 c -0.139434,0.836599 -0.499637,1.673199 -1.08061,2.509798 -0.302105,0.441541 -0.528687,0.848222 -0.679747,1.220043 -0.151059,0.371823 -0.209157,0.848221 -0.174294,1.429194 0.03487,0.580972 0.214965,1.208422 0.540296,1.882351 0,0 0.918831,0.75 1.942922,0.75 2.482588,0 2.59525,-0.275689 3.425282,-0.750001 z"
         id="path881"
         inkscape:connector-curvature="0" />
    </g>
  </g>
</svg>
