<svg xmlns="http://www.w3.org/2000/svg" xmlns:xlink="http://www.w3.org/1999/xlink" width="32" height="32" version="1"><defs><linearGradient gradientTransform="matrix(.5909 0 0 .5909 -62.543 -60.554)" xlink:href="#a" id="b" x1="164.79" y1="170.337" x2="164.79" y2="181.809" gradientUnits="userSpaceOnUse"/><linearGradient id="a"><stop offset="0" stop-color="#252525"/><stop offset="1" stop-color="#3d3d3d"/></linearGradient></defs><g transform="matrix(.53846 0 0 .52774 -1.23 -.888)" stroke-width="2.02"><path style="isolation:auto;mix-blend-mode:normal" d="M20.183 10.514v6.335l-2.364.004v3.573h28.363v-3.573h-2.364v-6.399z" overflow="visible" color="#000" fill="#333"/><path d="M21.364 9.863h21.273v10.563H21.365z" style="isolation:auto;mix-blend-mode:normal" overflow="visible" color="#000" fill="#fff" stroke="#000" stroke-width="1.782" stroke-linecap="round" stroke-linejoin="round" stroke-opacity=".059" paint-order="markers stroke fill"/><path d="M16.637 39.898h31.387l4.658 6.5H11.91z" style="isolation:auto;mix-blend-mode:normal" overflow="visible" color="#000" fill="url(#b)"/><path d="M18.41 40.489h27.18l7.464 13.648H11.538z" style="isolation:auto;mix-blend-mode:normal" overflow="visible" color="#000" fill="#fff" stroke="#828282" stroke-width="1.782" stroke-linecap="round" stroke-linejoin="round" stroke-opacity=".059" paint-order="markers stroke fill"/><path d="M6 21.016l.592-.59h50.817l.591.59v22.427l-.59.59h-4.137l-4.727-5.317H15.455l-4.732 5.318H6.591L6 43.443z" style="isolation:auto;mix-blend-mode:normal;marker:none" display="block" overflow="visible" color="#000" fill="#4d4d4d" paint-order="fill markers stroke"/><path d="M15 27.5a1.5 1.5 0 1 1-3 0 1.5 1.5 0 0 1 3 0z" style="isolation:auto;mix-blend-mode:normal;marker:none" display="block" overflow="visible" color="#000" fill="#31a6da" paint-order="fill markers stroke"/><circle cy="22.5" cx="55.5" style="isolation:auto;mix-blend-mode:normal;marker:none" r=".5" display="block" overflow="visible" color="#000" fill="#fff" paint-order="fill markers stroke"/><path d="M16.637 37.534h30.726c.69 0 1.182.492 1.182 1.182h-33.09c0-.69.493-1.182 1.182-1.182z" style="isolation:auto;mix-blend-mode:normal;marker:none" display="block" overflow="visible" color="#000" fill-opacity=".417" paint-order="fill markers stroke"/><rect ry="1" y="25" x="48.273" height="2" width="6" opacity=".5" fill="#31a6da" paint-order="markers stroke fill"/><circle r="2" cy="26" cx="53" fill="#31a6da" paint-order="markers stroke fill"/><path overflow="visible" display="block" style="isolation:auto;mix-blend-mode:normal;marker:none" d="M14 27.5a.5.5 0 1 1-1 0 .5.5 0 0 1 1 0z" color="#000" fill="#fff" fill-opacity=".924" paint-order="fill markers stroke"/><circle overflow="visible" display="block" r=".5" style="isolation:auto;mix-blend-mode:normal;marker:none" cx="55.5" cy="42.5" color="#000" fill="#fff" paint-order="fill markers stroke"/><circle overflow="visible" display="block" r=".5" style="isolation:auto;mix-blend-mode:normal;marker:none" cx="8.5" cy="22.5" color="#000" fill="#fff" paint-order="fill markers stroke"/><circle cy="42.5" cx="8.5" style="isolation:auto;mix-blend-mode:normal;marker:none" r=".5" display="block" overflow="visible" color="#000" fill="#fff" paint-order="fill markers stroke"/><rect width="6" height="2" x="49" y="31" ry="1" opacity=".5" fill="#fff" paint-order="markers stroke fill"/><circle cx="50.273" cy="32" r="2" fill="#fff" paint-order="markers stroke fill"/></g></svg>