<svg xmlns="http://www.w3.org/2000/svg" xmlns:xlink="http://www.w3.org/1999/xlink" width="32" height="32" version="1"><defs><linearGradient id="b"><stop offset="0"/><stop offset="1" stop-opacity="0"/></linearGradient><linearGradient id="a"><stop offset="0" stop-color="#388dd4"/><stop offset="1" stop-color="#388dd4" stop-opacity="0"/></linearGradient><linearGradient xlink:href="#a" id="d" x1="-55" y1="-32" x2="-22" y2="-32" gradientUnits="userSpaceOnUse" gradientTransform="translate(77)"/><linearGradient xlink:href="#b" id="c" x1="39.635" y1="58" x2="39.635" y2="6" gradientUnits="userSpaceOnUse"/></defs><g transform="matrix(.52632 0 0 .52632 -.842 -.842)" stroke-width="1.9"><rect transform="matrix(0 -1 -1 0 0 0)" ry="2.8" rx="2.786" y="-53" x="-58" height="42" width="52" fill="#4f4f4f"/><rect transform="matrix(0 -1 -1 0 0 0)" ry="0" rx="0" y="-50" x="-55" height="36" width="46" fill="#fff"/><path d="M43.262 6A50 50 0 0 1 45 19a50 50 0 0 1-18.73 39H50.2c1.55 0 2.8-1.242 2.8-2.785V8.785A2.787 2.787 0 0 0 50.2 6z" opacity=".25" fill="url(#c)"/><rect width="33" height="36" x="22" y="-50" rx="0" ry="0" transform="rotate(90)" opacity=".5" fill="url(#d)"/><rect ry="1.006" rx="1" y="21" x="3.5" height="3" width="57" fill="#388dd4" fill-rule="evenodd"/></g></svg>