<svg width="32" height="32" version="1" xmlns="http://www.w3.org/2000/svg" xmlns:xlink="http://www.w3.org/1999/xlink">
 <rect x="7" y="1" width="18" height="30" rx="1.8" ry="1.875" fill="#333333" stroke-width=".99737"/>
 <path d="m8.8887 2c-0.49244 0-0.88867 0.41653-0.88867 0.93359v26.133c0 0.51707 0.39623 0.93359 0.88867 0.93359h14.223c0.49244 0 0.88867-0.41653 0.88867-0.93359v-26.133c0-0.51707-0.39623-0.93359-0.88867-0.93359h-4.1113c0 0.554-0.446 1-1 1h-4c-0.554 0-1-0.446-1-1h-4.1113z" fill="#5294e2" stroke-width="1.0721"/>
 <rect x="12" y="28" width="8" height="1" rx=".5" ry=".5" fill="#000000" fill-rule="evenodd" opacity=".15" stop-color="#000000" stroke-linecap="round" stroke-linejoin="round" stroke-width="2.1381" style="paint-order:stroke fill markers"/>
 <path d="m13.742 8.0301-0.74182 0.42873 1.026 1.7782c-1.8753 0.90491-1.8829 3.0196-1.8829 3.0196h7.7133s-0.0082-2.1142-1.8829-3.0202l1.026-1.7782-0.74182-0.42818-1.1095 1.9216a5.1829 5.1829 0 0 0-1.1471-0.12382c-0.432 0-0.80891 0.047999-1.1504 0.12382zm0.54545 3.5127a0.42545 0.42545 0 0 1 0.42709 0.42654 0.43091 0.43091 0 0 1-0.42709 0.43036 0.42873 0.42873 0 0 1 0-0.85691zm3.4287 0a0.42545 0.42545 0 0 1 0.42709 0.42654 0.43091 0.43091 0 0 1-0.42709 0.43036 0.42873 0.42873 0 0 1 0-0.85691zm3.4647 2.1409c-0.49309 0-0.89454 0.45436-0.89454 1.0145v3.9687c0 0.55964 0.40145 1.0167 0.89454 1.0167 0.49254 0 0.81927-0.45709 0.81927-1.0167v-3.9693c0-0.56018-0.32564-1.0145-0.81927-1.0145m-9.0382 5.45e-4v7.2862c0 0.20182 0.22691 0.42818 0.42873 0.42818h1.2856v1.6075c0 0.53345 0.33982 0.96436 0.85746 0.96436 0.51436 0 0.87436-0.432 0.85691-0.96436v-1.6069h0.85746v1.6069c0 0.53345 0.33927 0.96436 0.85691 0.96436 0.51436 0 0.85746-0.438 0.85746-0.96436v-1.6069h1.2856c0.20182 0 0.42818-0.22636 0.42818-0.42873v-7.2856zm-1.2475 0c-0.49309 0-0.89509 0.45436-0.89509 1.0145v3.9687c0 0.55964 0.402 1.0167 0.89454 1.0167 0.49364 0 0.81982-0.45709 0.81982-1.0167v-3.9693c0-0.56018-0.32564-1.0145-0.81927-1.0145" fill="#ffffff" stroke-width="1.0129"/>
</svg>
