<?xml version="1.0" encoding="UTF-8" standalone="no"?>
<svg
   xmlns:dc="http://purl.org/dc/elements/1.1/"
   xmlns:cc="http://creativecommons.org/ns#"
   xmlns:rdf="http://www.w3.org/1999/02/22-rdf-syntax-ns#"
   xmlns:svg="http://www.w3.org/2000/svg"
   xmlns="http://www.w3.org/2000/svg"
   xmlns:xlink="http://www.w3.org/1999/xlink"
   xmlns:sodipodi="http://sodipodi.sourceforge.net/DTD/sodipodi-0.dtd"
   xmlns:inkscape="http://www.inkscape.org/namespaces/inkscape"
   width="32"
   height="32"
   version="1"
   id="svg18"
   sodipodi:docname="smartphone.svg"
   inkscape:version="0.92.4 (5da689c313, 2019-01-14)">
  <metadata
     id="metadata24">
    <rdf:RDF>
      <cc:Work
         rdf:about="">
        <dc:format>image/svg+xml</dc:format>
        <dc:type
           rdf:resource="http://purl.org/dc/dcmitype/StillImage" />
      </cc:Work>
    </rdf:RDF>
  </metadata>
  <defs
     id="defs22">
    <linearGradient
       inkscape:collect="always"
       xlink:href="#linearGradient835"
       id="linearGradient837"
       x1="12"
       y1="18"
       x2="52"
       y2="45"
       gradientUnits="userSpaceOnUse"
       gradientTransform="matrix(0.8,0,0,1,6.4,0)" />
    <linearGradient
       inkscape:collect="always"
       id="linearGradient835">
      <stop
         style="stop-color:#7332a6;stop-opacity:1"
         offset="0"
         id="stop831" />
      <stop
         style="stop-color:#4a79d3;stop-opacity:1"
         offset="1"
         id="stop833" />
    </linearGradient>
    <linearGradient
       inkscape:collect="always"
       xlink:href="#linearGradient831"
       id="linearGradient833"
       x1="27.921875"
       y1="30"
       x2="48"
       y2="30"
       gradientUnits="userSpaceOnUse" />
    <linearGradient
       inkscape:collect="always"
       id="linearGradient831">
      <stop
         style="stop-color:#000000;stop-opacity:1;"
         offset="0"
         id="stop827" />
      <stop
         style="stop-color:#000000;stop-opacity:0;"
         offset="1"
         id="stop829" />
    </linearGradient>
  </defs>
  <sodipodi:namedview
     pagecolor="#ffffff"
     bordercolor="#666666"
     borderopacity="1"
     objecttolerance="10"
     gridtolerance="10"
     guidetolerance="10"
     inkscape:pageopacity="0"
     inkscape:pageshadow="2"
     inkscape:window-width="1366"
     inkscape:window-height="712"
     id="namedview20"
     showgrid="true"
     inkscape:zoom="7.375"
     inkscape:cx="17.87279"
     inkscape:cy="5.3381494"
     inkscape:window-x="0"
     inkscape:window-y="30"
     inkscape:window-maximized="1"
     inkscape:current-layer="svg18">
    <inkscape:grid
       type="xygrid"
       id="grid864" />
  </sodipodi:namedview>
  <g
     id="g832"
     transform="matrix(0.53846154,0,0,0.53846154,-1.2307693,-1.2307693)"
     style="stroke-width:1.85714281">
    <rect
       id="rect4"
       ry="3"
       rx="3"
       y="6"
       x="14"
       height="52"
       width="36"
       style="fill:#333333;stroke-width:1.49727643" />
    <rect
       id="rect6"
       ry="1.9090909"
       rx="1.6"
       y="9"
       x="16"
       height="42"
       width="32"
       style="opacity:1;fill:url(#linearGradient837);fill-opacity:1;stroke-width:1.62288821" />
    <rect
       id="rect8"
       ry="0.50000006"
       rx="0.44067797"
       y="7"
       x="25"
       height="1.0000001"
       width="14"
       style="opacity:0.5;fill:#ffffff;stroke-width:1.31319845" />
    <circle
       id="circle10"
       r="2.499999"
       cy="54.5"
       cx="32"
       style="opacity:0.5;fill:#f9f9f9;stroke-width:1.54761851" />
    <path
       id="rect820"
       d="M 44.826172,9 A 51,51 0 0 1 45,13 51,51 0 0 1 27.921875,51 H 46.400391 C 47.286791,51 48,50.149433 48,49.091797 V 10.908203 C 48,9.8505668 47.286791,9 46.400391,9 Z"
       style="opacity:0.25;fill:url(#linearGradient833);fill-opacity:1;stroke-width:1.62288821"
       inkscape:connector-curvature="0" />
    <path
       inkscape:connector-curvature="0"
       id="path14"
       d="m 27.859287,15.418212 -1.359286,0.785715 1.881,3.259143 C 24.942715,21.124071 24.928572,25 24.928572,25 h 14.142856 c 0,0 -0.01571,-3.875929 -3.452429,-5.53693 l 1.881,-3.259143 -1.359286,-0.785715 -2.035,3.523144 c -0.623858,-0.139857 -1.312143,-0.227072 -2.102572,-0.227072 -0.792,0 -1.483429,0.08722 -2.108854,0.227072 z m 1.001,6.43893 c 0.435286,0 0.782572,0.350429 0.782572,0.782572 0,0.432143 -0.352,0.788857 -0.782572,0.788857 -0.435286,0 -0.788857,-0.352 -0.788857,-0.788857 0,-0.432143 0.353571,-0.782572 0.788857,-0.782572 z m 6.285712,0 c 0.435285,0 0.782571,0.350429 0.782571,0.782572 0,0.432143 -0.352,0.788857 -0.782571,0.788857 -0.435286,0 -0.788858,-0.352 -0.788858,-0.788857 0,-0.432143 0.353572,-0.782572 0.788858,-0.782572 z m 6.351715,3.926215 c -0.903572,0 -1.640572,0.832857 -1.640572,1.859 v 7.276502 c 0,1.026143 0.737,1.863714 1.640572,1.863714 C 42.401286,36.782573 43,35.945002 43,34.918859 v -7.276502 c 0,-1.027714 -0.597143,-1.860571 -1.502286,-1.860571 m -16.569142,0.0016 v 13.357145 c 0,0.370858 0.415643,0.785715 0.785715,0.785715 h 2.357143 v 2.947215 c 0,0.977428 0.622286,1.767857 1.571429,1.767857 0.942853,0 1.602853,-0.792 1.571425,-1.767857 v -2.94643 h 1.571428 v 2.94643 c 0,0.977399 0.622286,1.767828 1.571429,1.767828 0.942858,0 1.571429,-0.803786 1.571429,-1.767857 v -2.94643 h 2.357143 c 0.370858,0 0.785715,-0.414857 0.785715,-0.785714 V 25.784143 Z m -2.288,0 C 21.737,25.783386 21,26.616243 21,27.642386 v 7.276502 c 0,1.026143 0.737,1.863714 1.640572,1.863714 0.904357,0 1.502286,-0.837571 1.502286,-1.863714 v -7.276502 c 0,-1.027714 -0.597143,-1.860571 -1.502286,-1.860571 M 35.08157,22.293243 m -13.163856,2.765714"
       style="fill:#ffffff;stroke-width:1.45918393" />
  </g>
</svg>
