<svg width="32" height="32" version="1" xmlns="http://www.w3.org/2000/svg" xmlns:xlink="http://www.w3.org/1999/xlink">
 <rect transform="matrix(0,-1,-1,0,0,0)" x="-30" y="-27" width="28" height="22" rx="2" ry="2" fill="#8e8e8e" stroke-width=".98622"/>
 <path d="m23.539 2.0008v15.077c0 4.1763-3.3621 7.5384-7.5384 7.5384s-7.5384-3.3621-7.5384-7.5384v-15.077z" opacity=".5" stroke-width=".99992"/>
 <circle cx="16.001" cy="17.078" r="3.2308" fill="#3697c4" stroke-width=".99992"/>
 <circle cx="16.001" cy="10.078" r="1.6154" fill="#ff6e40" stroke-width=".99992"/>
 <circle cx="16.001" cy="5.77" r="1.6154" fill="#76ff03" stroke-width=".99992"/>
 <path d="m8.2308 28.924c-0.59661 0-1.0769 0.48031-1.0769 1.0769h17.692c0-0.59661-0.48031-1.0769-1.0769-1.0769zm17.692-12.923c-0.29831 0-0.53846 0.24015-0.53846 0.53846s0.24015 0.53846 0.53846 0.53846h1.0769v-1.0769zm0 2.1538c-0.29831 0-0.53846 0.24015-0.53846 0.53846s0.24015 0.53846 0.53846 0.53846h1.0769v-1.0769zm0 2.1538c-0.29831 0-0.53846 0.24015-0.53846 0.53846s0.24015 0.53846 0.53846 0.53846h1.0769v-1.0769zm-19.846-4.3077c0.29831 0 0.53846 0.24015 0.53846 0.53846s-0.24015 0.53846-0.53846 0.53846h-1.0769v-1.0769zm0 2.1538c0.29831 0 0.53846 0.24015 0.53846 0.53846s-0.24015 0.53846-0.53846 0.53846h-1.0769v-1.0769zm0 2.1538c0.29831 0 0.53846 0.24015 0.53846 0.53846s-0.24015 0.53846-0.53846 0.53846h-1.0769v-1.0769z" opacity=".5" stroke-width=".99992"/>
</svg>
