<svg xmlns="http://www.w3.org/2000/svg" xmlns:xlink="http://www.w3.org/1999/xlink" width="32" height="32" version="1"><defs><linearGradient id="b"><stop offset="0"/><stop offset="1" stop-opacity="0"/></linearGradient><linearGradient id="a"><stop offset="0" stop-color="#7332a6"/><stop offset="1" stop-color="#4a79d3"/></linearGradient><linearGradient xlink:href="#a" id="c" x1="-20.237" y1="-8.678" x2="-47.898" y2="-48.271" gradientUnits="userSpaceOnUse"/><linearGradient xlink:href="#b" id="d" x1="34.393" y1="30" x2="55" y2="30" gradientUnits="userSpaceOnUse"/></defs><g transform="translate(-1.23 -1.23) scale(.53846)" stroke-width="1.857"><rect transform="matrix(0 -1 -1 0 0 0)" ry="2.5" rx="2.5" y="-46" x="-53" height="28" width="40" fill="#8e8e8e"/><rect transform="matrix(0 -1 -1 0 0 0)" ry="2.5" rx="2.5" y="-58" x="-49" height="52" width="38" fill="#333"/><rect transform="matrix(0 -1 -1 0 0 0)" ry="0" rx="0" y="-55" x="-46" height="46" width="32" fill="url(#c)"/><path d="M47.979 14a37.297 37.297 0 0 1 .152 3.115A37.297 37.297 0 0 1 34.393 46H55V14z" opacity=".25" fill="url(#d)"/></g></svg>